<svg xmlns="http://www.w3.org/2000/svg" id="a" viewBox="0 0 72 72"><g id="b"><rect width="48" height="47.834" x="11.75" y="12.416" fill="#d0cfce"/></g><g id="c" fill="none" stroke="#000" stroke-linecap="round" stroke-linejoin="round" stroke-width="2"><rect width="48" height="48" x="12" y="12.166"/><path d="m31.339 40.518a4.3461 4.3461 0 0 0 4.3459 4.3459h0.63a4.3459 4.3459 0 0 0 4.3459-4.3459 4.346 4.346 0 0 0-4.3459-4.3459h-0.63a4.3462 4.3462 0 0 0-4.3459 4.3459z"/><path d="m31.339 31.814a4.346 4.346 0 0 0 4.3459 4.3457h0.63a4.3458 4.3458 0 0 0 4.3459-4.3459 4.3458 4.3458 0 0 0-4.3459-4.3456h-0.63a4.346 4.346 0 0 0-4.3459 4.3458z"/></g></svg>