<svg xmlns="http://www.w3.org/2000/svg" id="a" viewBox="0 0 72 72"><g id="b"><rect width="39" height="62.4" x="16.5" y="4.8" fill="#d0cfce"/><polygon fill="#ea5a47" points="35.806 48.602 26.843 51.115 27.93 46.615 21.283 46.466 24.239 44.005 28.268 42.502 45.313 42.78 50.338 46.309 44.057 46.615 45.501 51.115"/><path fill="#d22f27" d="m41.925 50.188c0.6289 0.8354 3.5763 0.9269 3.5763 0.9269l-1.4445-4.5 6.2818-0.3059-5.0257-3.5293-2.9248-0.09c-0.6163 0.363-1.092 6.6628-0.4631 7.4983z"/><path fill="#ea5a47" d="m21.021 23.286c-0.6734 0.15 3.9411-6.4248 11.426-2.5271 0 0 4.5-10.779 14.411-6.7508 0 0-8.1695 6.2635-6.0268 5.9931 8.2578-1.042 9.3575 4.3845 9.3575 4.3845-10.071-2.8386-4.3783 5.6017-4.3783 5.6017-6.8537-6.8408-14.474-5.7178-19.954-0.7242 2e-4 0 2.9642-7.7161-4.8349-5.9772z"/><path fill="#d22f27" d="m40.831 20.001c8.2578-1.042 9.3575 4.3845 9.3575 4.3845-10.071-2.8386-4.3783 5.6017-4.3783 5.6017-2.0246-2.0207-6.0321-2.3908-6.1648-4.0666-0.2592-3.2741-0.3242-5.7291 1.1856-5.9196z"/></g><g id="c"><path fill="#fcea2b" d="m44.889 28.89c-0.2972-2.0864-11.352-6.9564-18.083-0.6564 0 0-0.2566 4.3777-0.2566 5.312 0 6.3731 4.1333 11.54 9.2319 11.54s9.2316-5.1665 9.2316-11.54a26.469 26.469 0 0 0-0.1237-4.6556z"/></g><g id="d"><rect width="39" height="62.4" x="16.5" y="4.8" fill="none" stroke="#000" stroke-linecap="round" stroke-linejoin="round" stroke-width="2"/><path fill="none" stroke="#000" stroke-linecap="round" stroke-linejoin="round" stroke-width="2" d="m21.021 23.286c-0.6734 0.15 3.9411-6.4248 11.426-2.5271 0 0 4.5-10.779 14.411-6.7508 0 0-8.1695 6.2635-6.0268 5.9931 8.2578-1.042 9.3575 4.3845 9.3575 4.3845-10.071-2.8386-4.3783 5.6017-4.3783 5.6017-6.8537-6.8408-14.474-5.7178-19.954-0.7242 2e-4 0 2.9642-7.7161-4.8349-5.9772z"/><path fill="none" stroke="#000" stroke-linecap="round" stroke-linejoin="round" stroke-width="2" d="M25.9961,42.78c-1.211.0039-6.32,3.4383-6.32,5.0027,0,0,6.5691-1.77,8.2538-1.1678,0,0-1.939,3.8151-1.8187,5.8608,0,0,6.3717-3.1424,9.8822-3.1424"/><path fill="none" stroke="#000" stroke-linecap="round" stroke-linejoin="round" stroke-width="2" d="M45.99,42.78c1.211.0039,6.32,3.4383,6.32,5.0027,0,0-6.5692-1.77-8.2539-1.1678,0,0,1.9391,3.8151,1.8187,5.8608,0,0-6.3717-3.1424-9.8822-3.1424"/><path fill="none" stroke="#000" stroke-linecap="round" stroke-linejoin="round" stroke-width="2" d="M23.37,7.35v4.5a2.5,2.5,0,0,1-2.5,2.5h0a2.4908,2.4908,0,0,1-1.6728-.642"/><path fill="none" stroke="#000" stroke-linecap="round" stroke-linejoin="round" stroke-width="2" d="M48.63,64.2165v-4.5a2.5,2.5,0,0,1,2.5-2.5h0a2.4908,2.4908,0,0,1,1.6728.642"/><circle cx="50.782" cy="27.475" r="1.949"/><circle cx="48.833" cy="16.482" r="1.949"/><circle cx="20.68" cy="26.467" r="1.949"/><path d="m41.772 31.097a1.9489 1.9489 0 1 1-1.9488-1.9489 1.95 1.95 0 0 1 1.9488 1.9489"/><path d="m33.976 31.097a1.9489 1.9489 0 1 1-1.9489-1.9489 1.95 1.95 0 0 1 1.9489 1.9489"/><path d="M35.925,40.8433a7.4566,7.4566,0,0,1-3.3591-.836.9745.9745,0,1,1,.8717-1.7432,5.24,5.24,0,0,0,4.9748,0,.9745.9745,0,1,1,.8717,1.7432A7.4566,7.4566,0,0,1,35.925,40.8433Z"/></g></svg>