<svg xmlns="http://www.w3.org/2000/svg" id="a" viewBox="0 0 72 72"><g id="b"><g id="c" fill="none" stroke="#000" stroke-linejoin="round" stroke-width="2"><path d="M59.0349,60h-46.07A.9679.9679,0,0,1,12,59.0349v-46.07A.9679.9679,0,0,1,12.9651,12h46.07A.9679.9679,0,0,1,60,12.9651v46.07A.9679.9679,0,0,1,59.0349,60Z"/><path stroke-linecap="round" d="m37.763 35.228h-8.42v-11h8.42a5.5 5.5 0 0 1 5.5 5.5h0a5.5 5.5 0 0 1-5.5 5.5z"/><path stroke-linecap="round" d="m37.763 46.228h-8.42v-11h8.42a5.5 5.5 0 0 1 5.5 5.5h0a5.5 5.5 0 0 1-5.5 5.5z"/></g></g><g id="d"><g id="e"><path fill="#d22f27" d="M59.0349,60h-46.07A.9679.9679,0,0,1,12,59.0349v-46.07A.9679.9679,0,0,1,12.9651,12h46.07A.9679.9679,0,0,1,60,12.9651v46.07A.9679.9679,0,0,1,59.0349,60Z"/></g></g><g id="f"><g id="g" fill="none" stroke="#fff" stroke-linejoin="round" stroke-width="2"><path d="M59.0349,60h-46.07A.9679.9679,0,0,1,12,59.0349v-46.07A.9679.9679,0,0,1,12.9651,12h46.07A.9679.9679,0,0,1,60,12.9651v46.07A.9679.9679,0,0,1,59.0349,60Z"/><path stroke-linecap="round" d="m37.763 35.228h-8.42v-11h8.42a5.5 5.5 0 0 1 5.5 5.5h0a5.5 5.5 0 0 1-5.5 5.5z"/><path stroke-linecap="round" d="m37.763 46.228h-8.42v-11h8.42a5.5 5.5 0 0 1 5.5 5.5h0a5.5 5.5 0 0 1-5.5 5.5z"/></g></g></svg>