<svg xmlns="http://www.w3.org/2000/svg" id="a" viewBox="0 0 72 72"><g id="b"><g id="c" fill="none" stroke="#000" stroke-linejoin="round" stroke-width="2"><path d="M59.0349,60.1374h-46.07A.9679.9679,0,0,1,12,59.1723v-46.07a.9679.9679,0,0,1,.9651-.9651h46.07A.9679.9679,0,0,1,60,13.1025v46.07A.9679.9679,0,0,1,59.0349,60.1374Z"/><g stroke-linecap="round"><polyline points="45.429 46.313 36 24.313 26.571 46.313"/><line x1="29.714" x2="42.286" y1="41.046" y2="41.046"/></g></g></g><g id="d"><g id="e"><path fill="#d22f27" d="M59.0349,60h-46.07A.9679.9679,0,0,1,12,59.0349v-46.07A.9679.9679,0,0,1,12.9651,12h46.07A.9679.9679,0,0,1,60,12.9651v46.07A.9679.9679,0,0,1,59.0349,60Z"/></g></g><g id="f"><g id="g" fill="none" stroke="#fff" stroke-linejoin="round" stroke-width="2"><path d="M59.0349,60h-46.07A.9679.9679,0,0,1,12,59.0349v-46.07A.9679.9679,0,0,1,12.9651,12h46.07A.9679.9679,0,0,1,60,12.9651v46.07A.9679.9679,0,0,1,59.0349,60Z"/><g stroke-linecap="round"><polyline points="45.429 46.176 36 24.176 26.571 46.176"/><line x1="29.714" x2="42.286" y1="40.908" y2="40.908"/></g></g></g></svg>