<?xml version="1.0" encoding="UTF-8"?>
<svg id="a" viewBox="0 0 72 72" xmlns="http://www.w3.org/2000/svg"><g id="b"><g id="c" fill="none" stroke="#000" stroke-width="2"><path d="M59.0349,60h-46.07A.9679.9679,0,0,1,12,59.0349v-46.07A.9679.9679,0,0,1,12.9651,12h46.07A.9679.9679,0,0,1,60,12.9651v46.07A.9679.9679,0,0,1,59.0349,60Z" stroke-miterlimit="10"/><path d="m35.75 46.512h0a7.8572 7.8572 0 0 1-7.8571-7.8571v-6.2858a7.8572 7.8572 0 0 1 7.8571-7.8571h0a7.8572 7.8572 0 0 1 7.8571 7.8571v6.2858a7.8572 7.8572 0 0 1-7.8571 7.8571z" stroke-linecap="round" stroke-linejoin="round"/></g></g><g id="d"><g id="e"><path d="M59.0349,60h-46.07A.9679.9679,0,0,1,12,59.0349v-46.07A.9679.9679,0,0,1,12.9651,12h46.07A.9679.9679,0,0,1,60,12.9651v46.07A.9679.9679,0,0,1,59.0349,60Z" fill="#d22f27"/></g></g><g id="f"><g id="g" fill="none" stroke="#fff" stroke-width="2"><path d="M59.0349,60h-46.07A.9679.9679,0,0,1,12,59.0349v-46.07A.9679.9679,0,0,1,12.9651,12h46.07A.9679.9679,0,0,1,60,12.9651v46.07A.9679.9679,0,0,1,59.0349,60Z" stroke-miterlimit="10"/><path d="m35.75 46.512h0a7.8572 7.8572 0 0 1-7.8571-7.8571v-6.2858a7.8572 7.8572 0 0 1 7.8571-7.8571h0a7.8572 7.8572 0 0 1 7.8571 7.8571v6.2858a7.8572 7.8572 0 0 1-7.8571 7.8571z" stroke-linecap="round" stroke-linejoin="round"/></g></g></svg>
