<svg xmlns="http://www.w3.org/2000/svg" id="a" viewBox="0 0 72 72"><g id="b"><g id="c" fill="none" stroke="#000" stroke-linejoin="round" stroke-width="2"><path d="M59.0349,60.1373h-46.07A.9679.9679,0,0,1,12,59.1722v-46.07a.9679.9679,0,0,1,.9651-.9651h46.07A.9679.9679,0,0,1,60,13.1024v46.07A.9679.9679,0,0,1,59.0349,60.1373Z"/><g stroke-linecap="round"><polyline points="33.287 43.637 26.858 28.637 20.43 43.637"/><line x1="22.572" x2="31.144" y1="40.046" y2="40.046"/><path d="m46.655 36.137h-5.72v-7.4719h5.72a3.736 3.736 0 0 1 3.736 3.736 3.7359 3.7359 0 0 1-3.736 3.7359z"/><path d="m46.655 43.609h-5.72v-7.4721h5.72a3.736 3.736 0 0 1 3.736 3.736 3.7361 3.7361 0 0 1-3.736 3.7361z"/></g></g></g><g id="d"><g id="e"><path fill="#d22f27" d="M59.0349,60.1372h-46.07A.9679.9679,0,0,1,12,59.1721v-46.07a.9679.9679,0,0,1,.9651-.9651h46.07A.9679.9679,0,0,1,60,13.1023v46.07A.9679.9679,0,0,1,59.0349,60.1372Z"/></g></g><g id="f"><g id="g" fill="none" stroke="#fff" stroke-linejoin="round" stroke-width="2"><path d="M59.0349,60.1372h-46.07A.9679.9679,0,0,1,12,59.1721v-46.07a.9679.9679,0,0,1,.9651-.9651h46.07A.9679.9679,0,0,1,60,13.1023v46.07A.9679.9679,0,0,1,59.0349,60.1372Z"/><g stroke-linecap="round"><polyline points="33.287 43.637 26.858 28.637 20.43 43.637"/><line x1="22.572" x2="31.144" y1="40.046" y2="40.046"/><path d="m46.655 36.137h-5.72v-7.472h5.72a3.7361 3.7361 0 0 1 3.736 3.7361 3.7359 3.7359 0 0 1-3.736 3.7359z"/><path d="m46.655 43.609h-5.72v-7.4721h5.72a3.736 3.736 0 0 1 3.736 3.736 3.7361 3.7361 0 0 1-3.736 3.7361z"/></g></g></g></svg>