<svg xmlns="http://www.w3.org/2000/svg" id="a" viewBox="0 0 72 72"><g id="b"><g id="c" fill="none" stroke="#000" stroke-linejoin="round" stroke-width="2"><path d="M59.0349,60h-46.07A.9679.9679,0,0,1,12,59.0349v-46.07A.9679.9679,0,0,1,12.9651,12h46.07A.9679.9679,0,0,1,60,12.9651v46.07A.9679.9679,0,0,1,59.0349,60Z"/><path stroke-linecap="round" d="m32.07 42.578a5.3144 5.3144 0 0 1-3.5383 1.3423h0a5.3343 5.3343 0 0 1-5.3342-5.3342v-4.2673a5.3343 5.3343 0 0 1 5.3342-5.3342h0a5.3131 5.3131 0 0 1 3.5383 1.3425"/><polyline stroke-linecap="round" points="42.401 29.049 42.401 43.985 48.802 43.985"/></g></g><g id="d"><g id="e"><path fill="#d22f27" d="M59.0349,60.4528h-46.07A.9679.9679,0,0,1,12,59.4877v-46.07a.9679.9679,0,0,1,.9651-.9651h46.07A.9679.9679,0,0,1,60,13.4179v46.07A.9679.9679,0,0,1,59.0349,60.4528Z"/></g></g><g id="f" fill="none" stroke="#fff" stroke-linejoin="round" stroke-width="2"><path d="M59.0349,60h-46.07A.9679.9679,0,0,1,12,59.0349v-46.07A.9679.9679,0,0,1,12.9651,12h46.07A.9679.9679,0,0,1,60,12.9651v46.07A.9679.9679,0,0,1,59.0349,60Z"/><path stroke-linecap="round" d="m32.07 42.578a5.3144 5.3144 0 0 1-3.5383 1.3423h0a5.3343 5.3343 0 0 1-5.3342-5.3342v-4.2673a5.3343 5.3343 0 0 1 5.3342-5.3342h0a5.3131 5.3131 0 0 1 3.5383 1.3425"/><polyline stroke-linecap="round" points="42.401 29.049 42.401 43.985 48.802 43.985"/></g></svg>