<?xml version="1.0" encoding="UTF-8"?>
<svg id="a" viewBox="0 0 72 72" xmlns="http://www.w3.org/2000/svg"><g id="b"><path d="M59.0349,60H12.9651 C12.4343,60,12,59.5657,12,59.0349V12.9651C12,12.4343,12.4343,12,12.9651,12h46.0698C59.5657,12,60,12.4343,60,12.9651v46.0698 C60,59.5657,59.5657,60,59.0349,60z" fill="#d0cfce" stroke-linejoin="round" stroke-miterlimit="10" stroke-width="2"/></g><g id="c" fill="none" stroke="#000" stroke-linejoin="round" stroke-miterlimit="10" stroke-width="2"><path d="M59.0349,60H12.9651 C12.4343,60,12,59.5657,12,59.0349V12.9651C12,12.4343,12.4343,12,12.9651,12h46.0698C59.5657,12,60,12.4343,60,12.9651v46.0698 C60,59.5657,59.5657,60,59.0349,60z"/><path d="m44.168 33.244c-0.2926-1.1381-1.5573-1.9943-3.0731-1.9943v0c-1.7325 0-3.1369 1.1182-3.1369 2.4977s1.4044 2.4977 3.1369 2.4977l-0.0638 0.0093c1.7325 0 3.1369 1.1182 3.1369 2.4977s-1.4044 2.4977-3.1369 2.4977v0c-1.5159 0-2.7806-0.8561-3.0731-1.9943" stroke-linecap="round"/><polyline points="35.232 31.259 32.378 41.25 29.523 31.259" stroke-linecap="round"/></g></svg>
