<?xml version="1.0" encoding="UTF-8"?>
<svg id="a" viewBox="0 0 72 72" xmlns="http://www.w3.org/2000/svg"><g id="b"><path d="M59.0349,60h-46.07A.9679.9679,0,0,1,12,59.0349v-46.07A.9679.9679,0,0,1,12.9651,12h46.07A.9679.9679,0,0,1,60,12.9651v46.07A.9679.9679,0,0,1,59.0349,60Z" fill="#92d3f5"/></g><g id="c"><g id="d" fill="none" stroke="#000" stroke-linejoin="round" stroke-width="2"><path d="M59.0349,60h-46.07A.9679.9679,0,0,1,12,59.0349v-46.07A.9679.9679,0,0,1,12.9651,12h46.07A.9679.9679,0,0,1,60,12.9651v46.07A.9679.9679,0,0,1,59.0349,60Z"/><polyline points="23.83 36.376 20.83 36.376 20.83 39.876 20.83 32.876 24.83 32.876" stroke-linecap="round"/><g stroke-linecap="round"><path d="m29.008 39.876v-7h2.6692a1.7434 1.7434 0 0 1 1.7434 1.7435 1.7433 1.7433 0 0 1-1.7434 1.7434h-2.6692"/><line x1="31.69" x2="33.207" y1="36.363" y2="39.876"/></g><g stroke-linecap="round"><polyline points="42.83 32.876 38.83 32.876 38.83 39.876 42.83 39.876"/><line x1="38.83" x2="41.83" y1="36.376" y2="36.376"/></g><g stroke-linecap="round"><polyline points="51.83 32.876 47.83 32.876 47.83 39.876 51.83 39.876"/><line x1="47.83" x2="50.83" y1="36.376" y2="36.376"/></g></g></g></svg>
