<?xml version="1.0" encoding="UTF-8"?>
<svg id="a" viewBox="0 0 72 72" xmlns="http://www.w3.org/2000/svg"><g id="b"><path d="M59.0349,60H12.9651 C12.4343,60,12,59.5657,12,59.0349V12.9651C12,12.4343,12.4343,12,12.9651,12h46.0698C59.5657,12,60,12.4343,60,12.9651v46.0698 C60,59.5657,59.5657,60,59.0349,60z" fill="#d0cfce" stroke-miterlimit="10" stroke-width="2"/></g><g id="c" fill="none" stroke="#000" stroke-miterlimit="10" stroke-width="2"><path d="M59.0349,60H12.9651 C12.4343,60,12,59.5657,12,59.0349V12.9651C12,12.4343,12.4343,12,12.9651,12h46.0698C59.5657,12,60,12.4343,60,12.9651v46.0698 C60,59.5657,59.5657,60,59.0349,60z"/><polyline points="47.946 32.027 47.946 40.027 51.375 40.027" stroke-linecap="round" stroke-linejoin="round"/><path d="m31.955 40.027v0c-1.5779 0-2.8571-1.2792-2.8571-2.8571v-2.2857c0-1.5779 1.2792-2.8571 2.8571-2.8571v0c1.5779 0 2.8571 1.2792 2.8571 2.8571v2.2857c0 1.5779-1.2792 2.8571-2.8571 2.8571z" stroke-linecap="round" stroke-linejoin="round"/><path d="m41.085 40.027v0c-1.5779 0-2.8571-1.2792-2.8571-2.8571v-2.2857c0-1.5779 1.2792-2.8571 2.8571-2.8571v0c1.5779 0 2.8571 1.2792 2.8571 2.8571v2.2857c1e-4 1.5779-1.2791 2.8571-2.8571 2.8571z" stroke-linecap="round" stroke-linejoin="round"/><path d="m26.378 39.308c-0.5044 0.4473-1.168 0.719-1.8952 0.719v0c-1.5779 0-2.8571-1.2792-2.8571-2.8571v-2.2857 2.2857-2.2857c0-1.5779 1.2792-2.8571 2.8571-2.8571v0c0.7272 0 1.3909 0.2717 1.8952 0.7191" stroke-linecap="round" stroke-linejoin="round"/></g></svg>
