<svg xmlns="http://www.w3.org/2000/svg" id="a" viewBox="0 0 72 72"><g id="b"><path fill="#d0cfce" stroke-miterlimit="10" stroke-width="2" d="M59.0349,60H12.9651 C12.4343,60,12,59.5657,12,59.0349V12.9651C12,12.4343,12.4343,12,12.9651,12h46.0698C59.5657,12,60,12.4343,60,12.9651v46.0698 C60,59.5657,59.5657,60,59.0349,60z"/></g><g id="c" fill="none" stroke="#000" stroke-miterlimit="10" stroke-width="2"><path d="M59.0349,60H12.9651 C12.4343,60,12,59.5657,12,59.0349V12.9651C12,12.4343,12.4343,12,12.9651,12h46.0698C59.5657,12,60,12.4343,60,12.9651v46.0698 C60,59.5657,59.5657,60,59.0349,60z"/><polyline stroke-linecap="round" stroke-linejoin="round" points="37.486 32.47 32.914 32.47 32.914 40.47 37.486 40.47"/><line x1="32.914" x2="36.343" y1="36.47" y2="36.47" stroke-linecap="round" stroke-linejoin="round"/><polyline stroke-linecap="round" stroke-linejoin="round" points="23 40.47 23 32.47 28.714 40.47 28.714 32.47"/><polyline stroke-linecap="round" stroke-linejoin="round" points="50 32.47 47.714 40.47 45.429 32.47 43.143 40.47 40.857 32.47"/></g></svg>