<?xml version="1.0" encoding="UTF-8"?>
<svg id="a" viewBox="0 0 72 72" xmlns="http://www.w3.org/2000/svg"><g id="b"><rect x="5" y="17" width="62" height="38" fill="#f1b31c"/><rect x="5" y="42" width="62" height="13" fill="#5c9e31"/><rect x="5" y="17" width="62" height="13" fill="#d22f27"/><ellipse transform="translate(-12.2 36.948) rotate(-45)" cx="38.5" cy="33.2" rx="2.2" ry="1.2"/><ellipse transform="translate(-13.371 34.119) rotate(-45)" cx="34.5" cy="33.2" rx="1.2" ry="2.2"/><ellipse cx="36.5" cy="36.867" rx="2" ry="3.1333" fill="#61b2e4"/><path d="M40,41a1,1,0,0,1-.707-1.707,1.725,1.725,0,0,0-.0059-2.5918,1,1,0,0,1,1.42-1.4082,3.7206,3.7206,0,0,1,0,5.414A.9967.9967,0,0,1,40,41Z" fill="#d22f27"/><path d="M32.8887,41a.9971.9971,0,0,1-.7071-.293,3.7208,3.7208,0,0,1,0-5.414,1,1,0,0,1,1.419,1.41,1.7242,1.7242,0,0,0-.0049,2.59A1,1,0,0,1,32.8887,41Z" fill="#d22f27"/></g><g id="c"><rect x="5" y="17" width="62" height="38" fill="none" stroke="#000" stroke-linecap="round" stroke-linejoin="round" stroke-width="2"/></g></svg>
