<?xml version="1.0" encoding="UTF-8"?>
<svg id="a" viewBox="0 0 72 72" xmlns="http://www.w3.org/2000/svg"><g id="b"><rect x="5" y="17" width="62" height="38" fill="#fcea2b"/><rect x="5" y="17" width="21" height="38" fill="#1e50a0"/><rect x="46" y="17" width="21" height="38" fill="#d22f27"/><path d="M42,32.1538V44a2.0059,2.0059,0,0,1-2,2H32a2.0059,2.0059,0,0,1-2-2V32.1538" fill="#d22f27"/><rect x="36" y="32.154" width="6" height="6.1538" fill="#f1b31c"/><rect x="30" y="38.308" width="6" height="7.6923" fill="#f1b31c"/><ellipse cx="36" cy="38.308" rx="2.25" ry="2.3077" fill="#6a462f"/><g fill="none" stroke="#6a462f" stroke-linecap="round" stroke-linejoin="round" stroke-width="2"><path d="m30 27.538a12.596 12.596 0 0 1 6-1.5385"/><path d="m42 27.538a12.596 12.596 0 0 0-6-1.5385"/><line x1="30" x2="42" y1="32.154" y2="32.154"/><path d="M42,32.1538V44a2.0059,2.0059,0,0,1-2,2H32a2.0059,2.0059,0,0,1-2-2V32.1538"/></g></g><g id="c"><rect x="5" y="17" width="62" height="38" fill="none" stroke="#000" stroke-linecap="round" stroke-linejoin="round" stroke-width="2"/></g></svg>
