<svg xmlns="http://www.w3.org/2000/svg" id="a" viewBox="0 0 72 72"><g id="b"><rect width="62" height="38" x="5.083" y="17" fill="#1e50a0"/><rect width="62" height="6" x="5.083" y="49" fill="#d22f27"/><rect width="62" height="6" x="5" y="17" fill="#d22f27"/><circle cx="36.083" cy="36" r="9" fill="#fff"/><circle cx="36.083" cy="36" r="7.5" fill="#fff" stroke="#5c9e31" stroke-miterlimit="10"/><polygon fill="#fcea2b" points="38.583 38.5 36.083 38.5 36.083 33 39.083 33"/><path fill="#61b2e4" stroke="#61b2e4" stroke-linecap="round" stroke-linejoin="round" d="M36.0833,41a4.9451,4.9451,0,0,0,2.5876-2.2291L36,36.1l-2.5576,2.5576A4.9084,4.9084,0,0,0,36.0833,41Z"/><path fill="none" stroke="#000" stroke-linecap="round" stroke-linejoin="round" d="m36.083 41s3-1 3-4v-4h-6v4c0 3 3 4 3 4z"/></g><g id="c"><rect width="62" height="38" x="5.083" y="17" fill="none" stroke="#000" stroke-linecap="round" stroke-linejoin="round" stroke-width="2"/></g></svg>