<?xml version="1.0" encoding="UTF-8"?>
<svg id="a" viewBox="0 0 72 72" xmlns="http://www.w3.org/2000/svg"><g id="b"><rect x="5" y="17" width="62" height="38" fill="#f1b31c"/><path d="m23 33v7a2.0059 2.0059 0 0 1-2 2h-4a2.0059 2.0059 0 0 1-2-2v-7" fill="#d22f27"/><rect x="5" y="17" width="62" height="9" fill="#d22f27"/><rect x="5" y="46" width="62" height="9" fill="#d22f27"/><rect x="19" y="33" width="4" height="4" fill="#f1b31c"/><circle cx="19" cy="37" r="1.5" fill="#6a462f"/><g fill="none" stroke="#6a462f" stroke-linecap="round" stroke-linejoin="round" stroke-width="2"><line x1="27" x2="27" y1="33" y2="42"/><line x1="11" x2="11" y1="33" y2="42"/><path d="m15 30a8.5678 8.5678 0 0 1 4-1"/><path d="m23 30a8.5678 8.5678 0 0 0-4-1"/><line x1="15" x2="23" y1="33" y2="33"/><path d="m23 33v7a2.0059 2.0059 0 0 1-2 2h-4a2.0059 2.0059 0 0 1-2-2v-7"/><line x1="10" x2="12" y1="42" y2="42"/><line x1="26" x2="28" y1="42" y2="42"/></g></g><g id="c"><rect x="5" y="17" width="62" height="38" fill="none" stroke="#000" stroke-linecap="round" stroke-linejoin="round" stroke-width="2"/></g></svg>
