<svg xmlns="http://www.w3.org/2000/svg" id="a" viewBox="0 0 72 72"><g id="b"><rect width="62" height="38" x="5" y="17" fill="#d22f27"/><rect width="21" height="38" x="5" y="17"/><rect width="21" height="38" x="46" y="17" fill="#5c9e31"/><path fill="#fff" stroke-width=".845" d="m36 48.88a12.89 12.89 0 0 1-9.111-22 0.845 0.845 0 0 1 1.195 1.195 11.2 11.2 0 1 0 15.83 0 0.845 0.845 0 1 1 1.195-1.195 12.89 12.89 0 0 1-9.111 22z"/><path fill="#fff" stroke-width=".86" d="m39.38 34.52h-6.76a0.845 0.875 0 0 1 0-1.75h6.76a0.845 0.875 0 0 1 0 1.75z"/><circle cx="36" cy="30.3" r="1.69" fill="#fff" stroke-width=".845"/><path fill="#fff" stroke-width=".86" d="m41.07 44.76h-10.14a0.845 0.875 0 0 1 0-1.75h10.14a0.845 0.875 0 0 1 0 1.75z"/><path stroke="#fff" stroke-linecap="round" stroke-linejoin="round" stroke-width="1.775" d="m32.58 28.68v15.07"/><path stroke="#fff" stroke-linecap="round" stroke-linejoin="round" stroke-width="1.766" d="m39.4 28.67v14.91"/><rect width="4.161" height="1.607" x="-18.88" y="42.61" fill="#fff" fill-rule="evenodd" stroke="#fff" stroke-linecap="round" stroke-linejoin="round" stroke-width=".771" paint-order="normal" transform="rotate(-60)"/><rect width="4.161" height="1.607" x="50.72" y="-19.75" fill="#fff" fill-rule="evenodd" stroke="#fff" stroke-linecap="round" stroke-linejoin="round" stroke-width=".771" paint-order="normal" transform="rotate(60)"/></g><g id="c"><rect width="62" height="38" x="5" y="17" fill="none" stroke="#000" stroke-linecap="round" stroke-linejoin="round" stroke-width="2"/></g></svg>