<?xml version="1.0" encoding="UTF-8"?>
<svg id="a" viewBox="0 0 72 72" xmlns="http://www.w3.org/2000/svg"><g id="b"><rect x="5" y="17" width="62" height="38" fill="#fff"/><polygon points="67 20 67 17 63 17 5 52 5 55 9 55" fill="#d22f27"/><polygon points="5 20 5 17 9 17 67 52 67 55 63 55" fill="#d22f27"/><path d="m38.74 22.34s0.2958 0.5821 0.2996 2.759c0.0038 2.177-0.9878 4.162-3.017 5.113-2.03-0.9514-3.071-2.972-3.071-5.113s0.3002-2.759 0.3002-2.759z" fill="#d22f27" stroke="#d22f27" stroke-linecap="round" stroke-linejoin="round" stroke-width="1.522"/><path d="m32.66 19.96h6.683l-0.5663 1.193h-5.604z" fill="#fcea2b" fill-rule="evenodd" stroke="#fcea2b" stroke-linecap="round" stroke-linejoin="round" stroke-miterlimit="10" stroke-width=".9856" paint-order="normal"/><rect x="33.26" y="22.72" width="5.478" height=".8682" ry=".0166" fill="#fcea2b" fill-rule="evenodd" stroke="#fcea2b" stroke-linecap="round" stroke-linejoin="round" stroke-miterlimit="10" stroke-width=".6318" paint-order="stroke fill markers"/><rect x="33.26" y="25.08" width="5.478" height=".8682" ry=".0166" fill="#fcea2b" fill-rule="evenodd" stroke="#fcea2b" stroke-linecap="round" stroke-linejoin="round" stroke-miterlimit="10" stroke-width=".6318" paint-order="stroke fill markers"/><rect x="33.74" y="27.39" width="4.526" height=".7173" ry=".0137" fill="#fcea2b" fill-rule="evenodd" stroke="#fcea2b" stroke-linecap="round" stroke-linejoin="round" stroke-miterlimit="10" stroke-width=".522" paint-order="stroke fill markers"/></g><g id="c"><rect x="5" y="17" width="62" height="38" fill="none" stroke="#000" stroke-linecap="round" stroke-linejoin="round" stroke-width="2"/></g></svg>
