<?xml version="1.0" encoding="UTF-8"?>
<svg id="a" viewBox="0 0 72 72" xmlns="http://www.w3.org/2000/svg"><g id="b"><rect x="5" y="17" width="62" height="38" fill="#f1b31c"/><path d="m5 19v5l62 23v-5z" fill="#fff" stroke="#fff" stroke-miterlimit="10"/><path d="m5 25v5l62 23v-5z" stroke="#000" stroke-miterlimit="10"/><g fill="none" stroke="#d22f27" stroke-linecap="round" stroke-linejoin="round" stroke-width="2"><path d="M41.528 34.915c.30362 .71783 .47151 1.507 .47151 2.3355 0 3.3137-2.6863 6-6 6s-6-2.6863-6-6c0-.82843 .16789-1.6176 .47151-2.3355"/><path d="m36 28v12.5"/><path d="m42 43.25c-3.7143 3.1429-8.1429 3.2143-12 0"/><path d="m26 41.75v-5.75l-2-4.25"/><path d="m46 41.75v-5.25l2-4.75"/><path d="M39.385 31.592c-2.2775-.81785-4.6618-.75339-6.8641-.02937"/></g></g><g id="c"><rect x="5" y="17" width="62" height="38" fill="none" stroke="#000" stroke-linecap="round" stroke-linejoin="round" stroke-width="2"/></g></svg>
