<svg xmlns="http://www.w3.org/2000/svg" id="a" version="1.1" viewBox="0 0 72 72"><g id="b"><rect width="62" height="38" x="5" y="17" fill="#186648"/><rect width="4" height="38" x="38" y="17" fill="#fff" stroke-width="2"/><rect width="62" height="4" x="5" y="34"/><rect width="62" height="4" x="5" y="38" fill="#fff" stroke-width="2"/><rect width="62" height="4" x="5" y="30" fill="#fcea2b"/><rect width="4" height="38" x="34" y="17"/><rect width="4" height="38" x="30" y="17" fill="#fcea2b"/><circle cx="36" cy="36" r="13" fill="#d22f27"/><path d="M36.3668,34.9556A5.1,5.1,0,0,0,39.2812,38.46a.2572.2572,0,0,0,.3528-.1087.1829.1829,0,0,0-.0858-.2935h0a4.81,4.81,0,0,1-2.6927-3.1408h0a.2261.2261,0,0,0-.2408-.1658A.2317.2317,0,0,0,36.3668,34.9556Z"/><path fill="#8967aa" d="m38.768 36.931-0.04049-0.07964c-0.35042-0.70029-0.90086-1.2475-1.2795-1.9214-0.3688-0.65652 0.52362-1.4021 1.1527-1.7667 0.73511-0.42582 0.54041-1.8837 0.18577-2.4322l-1.5416-1.9355s-0.81116-1.1585-3.5685 0.20109c0 0-3.5392 0.85673-3.8461 1.5378 0 0 2.6834-0.73296 2.9544 0.52094 0.27098 1.2539-1.4041 1.6992 0.24158 4.6899 0 0 1.3911 2.9687 3.115 3.4469a6.2 6.2 0 0 1 2.5422 0.42307c-0.22207-0.588 0.17129-2.0633 0.08461-2.6843z"/><path d="m36.546 40.353c-0.02413-0.0043-0.04798-0.0095-0.0716-0.01608-1.8803-0.52195-3.8728-3.8358-4.0935-4.2118-1.1567-2.1932-0.67744-3.0582-0.08869-3.7585 0.19067-0.22674 0.18908-0.23443 0.17123-0.32439-0.0715-0.3086-1.4658-0.82568-2.9473-0.97186a0.7645 0.7645 0 0 1-0.57537-0.37013 0.7471 0.7471 0 0 1-0.03515-0.68349c0.12594-0.2812 0.45881-1.0219 5.1837-1.9089a3.1158 3.1158 0 0 1 3.0347-0.71631c1.6322 0.6299 2.0568 2.9052 2.1 3.1622a0.75 0.75 0 0 1-1.4789 0.24938c-0.07498-0.43513-0.44983-1.7397-1.1632-2.0133-0.52147-0.20304-1.2211 0.22132-1.7141 0.61102a0.7464 0.7464 0 0 1-0.32873 0.14878c-0.81177 0.14992-1.6983 0.34656-2.4621 0.54554a2.5786 2.5786 0 0 1 1.8592 1.6597 1.7587 1.7587 0 0 1-0.49626 1.5769c-0.27606 0.32866-0.51416 0.61242 0.25086 2.0642 0.75331 1.2786 2.2571 3.2385 3.1854 3.4962a0.75 0.75 0 0 1-0.33 1.4615z"/><path fill="#186648" d="m36.064 37.755c-0.30154-2.4506 1.415-5.9086 3.0208-4.2768 1.6057 1.6318 0.73658 11.199 0.73658 11.199s-3.4558-4.471-3.7573-6.9217z"/><path d="m39.892 45.389a0.75 0.75 0 0 1-0.44788-0.26043c-0.38178-0.4614-3.7451-4.5852-4.1491-7.1534l8.7e-5 -4.92e-4c-0.3017-1.9216 0.46377-4.6492 1.9402-5.4242a1.8249 1.8249 0 0 1 2.1933 0.38877c1.8192 1.7289 1.437 10.094 1.3426 11.754a0.75 0.75 0 0 1-0.87926 0.69569zm-3.1159-7.6473c0.19956 1.2639 1.483 3.2865 2.5771 4.8037 0.08008-3.8904-0.22085-7.8187-0.95808-8.5194-0.26316-0.25071-0.37794-0.19062-0.4628-0.14761-0.69502 0.36486-1.3947 2.3423-1.1552 3.8635z"/><circle cx="36" cy="25" r="1" fill="#186648"/><circle cx="50.285" cy="-3.036" r="1" fill="#186648" transform="rotate(36)"/><circle cx="45.363" cy="-34.113" r="1" fill="#186648" transform="rotate(72)"/><circle cx="23.113" cy="-56.363" r="1" fill="#186648" transform="rotate(108)"/><circle cx="-7.964" cy="-61.285" r="1" fill="#186648" transform="rotate(144)"/><circle cx="-36" cy="-47" r="1" fill="#186648" transform="scale(-1)"/><circle cx="-50.285" cy="-18.964" r="1" fill="#186648" transform="rotate(216)"/><circle cx="-45.363" cy="12.113" r="1" fill="#186648" transform="rotate(252)"/><circle cx="-23.113" cy="34.363" r="1" fill="#186648" transform="rotate(-72)"/><circle cx="7.964" cy="39.285" r="1" fill="#186648" transform="rotate(-36)"/></g><g id="c"><rect width="62" height="38" x="5" y="17" fill="none" stroke="#000" stroke-linecap="round" stroke-linejoin="round" stroke-width="2"/></g></svg>