<svg xmlns="http://www.w3.org/2000/svg" id="a" viewBox="0 0 72 72"><g id="b"><rect width="62" height="38" x="5" y="17" fill="#fcea2b"/><rect width="21" height="38" x="5" y="17" fill="#1e50a0"/><rect width="21" height="38" x="46" y="17" fill="#d22f27"/><path fill="#d22f27" d="M42,32.1538V44a2.0059,2.0059,0,0,1-2,2H32a2.0059,2.0059,0,0,1-2-2V32.1538"/><rect width="6" height="6.154" x="36" y="32.154" fill="#f1b31c"/><rect width="6" height="7.692" x="30" y="38.308" fill="#f1b31c"/><ellipse cx="36" cy="38.308" fill="#6a462f" rx="2.25" ry="2.308"/><g fill="none" stroke="#6a462f" stroke-linecap="round" stroke-linejoin="round" stroke-width="2"><path d="m30 27.538a12.596 12.596 0 0 1 6-1.5385"/><path d="m42 27.538a12.596 12.596 0 0 0-6-1.5385"/><line x1="30" x2="42" y1="32.154" y2="32.154"/><path d="M42,32.1538V44a2.0059,2.0059,0,0,1-2,2H32a2.0059,2.0059,0,0,1-2-2V32.1538"/></g></g><g id="c"><rect width="62" height="38" x="5" y="17" fill="none" stroke="#000" stroke-linecap="round" stroke-linejoin="round" stroke-width="2"/></g></svg>