<svg xmlns="http://www.w3.org/2000/svg" id="a" viewBox="0 0 72 72"><g id="b"><rect width="62" height="38" x="5" y="17" fill="#fff"/><polygon fill="#fcea2b" stroke="#fcea2b" stroke-linecap="round" stroke-linejoin="round" points="43.5 25.91 44.5 22.91 27.5 22.91 28.5 25.91"/><path fill="#1e50a0" stroke="#1e50a0" stroke-linecap="round" stroke-linejoin="round" d="m36 45.91s7.5-2.5 7.5-10v-10h-15v10c0 7.5 7.5 10 7.5 10z"/><path fill="#d22f27" stroke="#d22f27" stroke-miterlimit="10" d="m28.5 32.41v3.5a10.184 10.184 0 0 0 0.3063 2.5h14.388a10.184 10.184 0 0 0 0.3062-2.5v-3.5z"/><g fill="#fcea2b" stroke="#fcea2b" stroke-linecap="round" stroke-linejoin="round"><line x1="36" x2="36" y1="30.16" y2="27.66"/><line x1="35.375" x2="36.625" y1="28.494" y2="28.494"/><line x1="40.5" x2="40.5" y1="30.16" y2="27.66"/><line x1="39.875" x2="41.125" y1="28.494" y2="28.494"/><line x1="31.5" x2="31.5" y1="30.16" y2="27.66"/><line x1="30.875" x2="32.125" y1="28.494" y2="28.494"/></g><g fill="#fff" stroke="#fff" stroke-linecap="round" stroke-linejoin="round"><line x1="36" x2="36" y1="36.66" y2="34.16"/><line x1="37.25" x2="34.75" y1="35.41" y2="35.41"/></g><circle cx="36" cy="43.91" r="1" fill="#fcea2b"/><circle cx="33" cy="40.91" r="1" fill="#fcea2b"/><circle cx="39" cy="40.91" r="1" fill="#fcea2b"/><path fill="none" stroke="#a57939" stroke-linecap="round" stroke-linejoin="round" stroke-width="2" d="m47 46.269a23.092 23.092 0 0 1-11 2.8208"/><path fill="none" stroke="#a57939" stroke-linecap="round" stroke-linejoin="round" stroke-width="2" d="m25 46.269a23.093 23.093 0 0 0 11 2.8208"/></g><g id="c"><rect width="62" height="38" x="5" y="17" fill="none" stroke="#000" stroke-linecap="round" stroke-linejoin="round" stroke-width="2"/></g></svg>