<svg xmlns="http://www.w3.org/2000/svg" id="a" viewBox="0 0 72 72"><g id="b"><rect width="62" height="38" x="5" y="17" fill="#1e50a0"/><line x1="49" x2="51" y1="25" y2="23" fill="none" stroke="#9b9b9a" stroke-linecap="round" stroke-linejoin="round" stroke-width="2"/><line x1="49" x2="47" y1="25" y2="23" fill="none" stroke="#9b9b9a" stroke-linecap="round" stroke-linejoin="round" stroke-width="2"/><polygon fill="#fff" points="9.887 18 6 18 6 20.332 32.113 36 36 36 36 33.668"/><polygon fill="#fff" points="36 20.332 36 18 32.113 18 6 33.668 6 36 9.887 36"/><rect width="30" height="6" x="6" y="24" fill="#fff"/><rect width="6" height="18" x="18" y="18" fill="#fff"/><rect width="2" height="18" x="20" y="18" fill="#d22f27"/><rect width="30" height="2" x="6" y="26" fill="#d22f27"/><polygon fill="#d22f27" points="36 33.668 29.887 30 26 30 36 36 36 35.999"/><polygon fill="#d22f27" points="36 18 32.113 18 24 22.868 24 24 26.001 24 36 18.001"/><polygon fill="#d22f27" points="6 20.332 12.113 24 16.001 24 6.001 18 6 18.001"/><polygon fill="#d22f27" points="6 36 9.887 36 18 31.132 18 30 16 30 6 35.999"/><rect width="4" height="1" x="50" y="26" fill="none" stroke="#e27022" stroke-linecap="round" stroke-linejoin="round" stroke-width="2"/><line x1="54" x2="54" y1="27" y2="30" fill="none" stroke="#e27022" stroke-linecap="round" stroke-linejoin="round" stroke-width="2"/><line x1="50" x2="50" y1="27" y2="30" fill="none" stroke="#e27022" stroke-linecap="round" stroke-linejoin="round" stroke-width="2"/><line x1="49" x2="50" y1="25" y2="26" fill="none" stroke="#e27022" stroke-linecap="round" stroke-linejoin="round" stroke-width="2"/><path fill="none" stroke="#f1b31c" stroke-linecap="round" stroke-linejoin="round" stroke-width="2" d="m59.136 49a9.9864 9.9864 0 0 0-14.271 0"/><polygon fill="#5c9e31" stroke="#5c9e31" stroke-linecap="round" stroke-linejoin="round" stroke-width="2" points="52 42 55 34 49 34"/><path d="M59,31V41a1.0029,1.0029,0,0,0,1,1h1a1.0029,1.0029,0,0,0,1-1V36a2.094,2.094,0,0,0-.8321-1.5547L59,33"/><path fill="none" stroke="#000" stroke-linecap="round" stroke-linejoin="round" stroke-width="2" d="M59,31V41a1.0029,1.0029,0,0,0,1,1h1a1.0029,1.0029,0,0,0,1-1V36a2.094,2.094,0,0,0-.8321-1.5547L59,33"/><path fill="#9b9b9a" d="M45,31V41a1.0029,1.0029,0,0,1-1,1H43a1.0029,1.0029,0,0,1-1-1V36a2.094,2.094,0,0,1,.8321-1.5547L45,33"/><path fill="none" stroke="#9b9b9a" stroke-linecap="round" stroke-linejoin="round" stroke-width="2" d="M45,31V41a1.0029,1.0029,0,0,1-1,1H43a1.0029,1.0029,0,0,1-1-1V36a2.094,2.094,0,0,1,.8321-1.5547L45,33"/></g><g id="c"><rect width="62" height="38" x="5" y="17" fill="none" stroke="#000" stroke-linecap="round" stroke-linejoin="round" stroke-width="2"/></g></svg>