<svg xmlns="http://www.w3.org/2000/svg" id="a" viewBox="0 0 72 72"><g id="b"><rect width="62" height="38" x="5" y="17" fill="#fff"/><circle cx="36" cy="36" r="9" fill="#d22f27"/><g fill="#1e50a0"><path d="M28.1267,31.6756A4.4922,4.4922,0,0,0,36,36c.023-.04.0338-.0828.0554-.123l.0232.0138a4.4932,4.4932,0,0,1,7.7243,4.59l.003.0018a8.9918,8.9918,0,0,1-15.6792-8.8071Z"/><path d="M28.3313,31.2869l.02.0115c-.03.046-.0668.085-.0954.1325C28.283,31.3844,28.3029,31.3328,28.3313,31.2869Z"/></g><g fill="none" stroke="#000" stroke-linecap="round" stroke-linejoin="round"><line x1="24.232" x2="27.232" y1="41.902" y2="47.098"/><line x1="20.768" x2="23.768" y1="43.902" y2="49.098"/><line x1="22.5" x2="23.5" y1="42.902" y2="44.634"/><line x1="24.5" x2="25.5" y1="46.366" y2="48.098"/><line x1="45.5" x2="46.5" y1="48.098" y2="46.366"/><line x1="47.5" x2="48.5" y1="44.634" y2="42.902"/><line x1="47.232" x2="48.232" y1="49.098" y2="47.366"/><line x1="49.232" x2="50.232" y1="45.634" y2="43.902"/><line x1="43.768" x2="44.768" y1="47.098" y2="45.366"/><line x1="45.768" x2="46.768" y1="43.634" y2="41.902"/><line x1="20.768" x2="23.768" y1="28.098" y2="22.902"/><line x1="22.5" x2="25.5" y1="29.098" y2="23.902"/><line x1="24.232" x2="27.232" y1="30.098" y2="24.902"/><line x1="44.768" x2="45.768" y1="24.902" y2="26.634"/><line x1="46.768" x2="47.768" y1="28.366" y2="30.098"/><line x1="48.232" x2="49.232" y1="22.902" y2="24.634"/><line x1="50.232" x2="51.232" y1="26.366" y2="28.098"/><line x1="46.5" x2="49.5" y1="23.902" y2="29.098"/></g></g><g id="c"><rect width="62" height="38" x="5" y="17" fill="none" stroke="#000" stroke-linecap="round" stroke-linejoin="round" stroke-width="2"/></g></svg>