<svg xmlns="http://www.w3.org/2000/svg" id="a" viewBox="0 0 72 72"><g id="b"><rect width="62" height="38" x="5" y="17" fill="#fcea2b"/><rect width="21" height="38" x="5" y="17" fill="#1e50a0"/><rect width="21" height="38" x="46" y="17" fill="#d22f27"/><path fill="#a57939" stroke="#a57939" stroke-linecap="round" stroke-linejoin="round" stroke-width="2" d="M34.6566,30.5657,34.1579,32.27h-2.21A2.0412,2.0412,0,0,0,29,32.27v8.1052l2.9474-2.9473h2.21L31.8283,44h8.4848l-2.471-6.572H40.79L43,40.3753V32.27a2.0412,2.0412,0,0,0-2.9474,0h-2.21l-.3573-1.7044V29.1515a2.5259,2.5259,0,0,0-1.8481-2.6862,1.8866,1.8866,0,0,0-1.5806.2582l-1.5207,1.0139,2.1212,1.4141Z"/><rect width="7.764" height="4.529" x="32.219" y="31.5" fill="#d22f27"/><path fill="#1e50a0" d="m32.219 35.382h7.7641c0.3235 4.5291-4.2056 6.47-4.2056 6.47s-4.8525-3.2349-3.5585-6.47z"/><polygon fill="#fcea2b" stroke="#fcea2b" stroke-linecap="round" stroke-linejoin="round" stroke-width="2" points="35.454 35.25 36.748 35.25 36.101 37.2"/><path fill="none" stroke="#000" stroke-linecap="round" stroke-linejoin="round" d="m35.994 41.852s3.882-1.294 3.882-5.1761v-5.176h-7.764v5.176c0 3.8821 3.882 5.1761 3.882 5.1761z"/></g><g id="c"><rect width="62" height="38" x="5" y="17" fill="none" stroke="#000" stroke-linecap="round" stroke-linejoin="round" stroke-width="2"/></g></svg>