<?xml version="1.0" encoding="UTF-8"?>
<svg id="a" viewBox="0 0 72 72" xmlns="http://www.w3.org/2000/svg"><g id="b"><rect x="5" y="17" width="62" height="38" fill="#1e50a0"/><polygon points="9.887 18 6 18 6 20.332 32.113 36 36 36 36 33.668" fill="#fff"/><polygon points="36 20.332 36 18 32.113 18 6 33.668 6 36 9.887 36" fill="#fff"/><rect x="6" y="24" width="30" height="6" fill="#fff"/><rect x="18" y="18" width="6" height="18" fill="#fff"/><rect x="20" y="18" width="2" height="18" fill="#d22f27"/><rect x="6" y="26" width="30" height="2" fill="#d22f27"/><polygon points="36 33.668 29.887 30 26 30 36 36 36 35.999" fill="#d22f27"/><polygon points="36 18 32.113 18 24 22.868 24 24 26.001 24 36 18.001" fill="#d22f27"/><polygon points="6 20.332 12.113 24 16.001 24 6.001 18 6 18.001" fill="#d22f27"/><polygon points="6 36 9.887 36 18 31.132 18 30 16 30 6 35.999" fill="#d22f27"/><path d="M60.73,29.0911H44.6178s-1.0053,14.0906,8.0395,18.1475v.0165l.0167-.0082.0167.0082v-.0165C61.7356,43.1817,60.73,29.0911,60.73,29.0911Z" fill="#f1b31c" stroke="#fff" stroke-linecap="round" stroke-linejoin="round" stroke-width="1.0091"/><path d="m49.777 42.714s0-5.0455 3.0273-5.0455 3.0274 5.0455 3.0274 5.0455-3.0274 3.0274-6.0547 0z" fill="#5c9e31"/><circle cx="52.804" cy="37.669" r="1.0091" fill="#d22f27" stroke="#d22f27" stroke-miterlimit="10" stroke-width="1.0091"/><ellipse transform="translate(-9.6887 23.465) rotate(-25.087)" cx="47.889" cy="33.506" rx="1.5137" ry="2.6489" fill="#f4aa41"/><ellipse cx="48.898" cy="33.506" rx="1.5137" ry="2.6489" fill="#ffa7c0"/><ellipse cx="56.971" cy="33.506" rx="1.5137" ry="2.6489" fill="#a57939"/></g><g id="c"><rect x="5" y="17" width="62" height="38" fill="none" stroke="#000" stroke-linecap="round" stroke-linejoin="round" stroke-width="2"/></g></svg>
