<svg xmlns="http://www.w3.org/2000/svg" id="a" viewBox="0 0 72 72"><g id="b"><rect width="62" height="38" x="5" y="17" fill="#1e50a0"/><rect width="31" height="19" x="5" y="17" fill="#1e50a0"/><path fill="#fff" d="M9.5,36H5L31.5,17H36Z"/><path fill="#fff" d="M36,32.5,5,17v3.5L36,36Z"/><path fill="#d22f27" d="M36,33.5,5,18v1.5L36,35Z"/><path fill="#d22f27" d="M8.5,36H6L32.5,17H35Z"/><polygon fill="#d22f27" points="36 25 22 25 22 17 19 17 19 25 5 25 5 28 19 28 19 36 22 36 22 28 36 28"/><g fill="none" stroke="#fff" stroke-linejoin="round"><polyline points="5 28 19 28 19 36"/><polyline points="19 17 19 25 5 25"/><polyline points="36 25 22 25 22 17"/><polyline points="22 36 22 28 36 28"/></g><path fill="#fcea2b" d="M57.4518,44.7545c-4.5023,3.939-9.0187,3.8068-13.3557.1308-.4754.112-.8438.3264-1.1072.2357-.6456-.2222-.704-.8505-.1978-1.3206a8.0456,8.0456,0,0,0,.9669-.9378c.3463-.4526.6265-.3777.9966-.0522a19.9329,19.9329,0,0,0,1.9685,1.6365,7.357,7.357,0,0,0,9.6994-1.4055c.6294-.7476.8221-.7463,1.4606-.0087a3.6555,3.6555,0,0,0,.6087.6286c.4793.3369.7014.7127.3,1.2333C58.4718,45.31,58.0566,45.2755,57.4518,44.7545Z"/><path fill="#186648" d="m50.643 27.723h-5.0756a1.8626 1.8626 0 0 0-1.8626 1.8626v10.752c0 2.0873 4.749 3.7429 6.389 4.2524a1.84 1.84 0 0 0 1.0983 0c1.64-0.5095 6.389-2.1651 6.389-4.2524v-10.752a1.8626 1.8626 0 0 0-1.8625-1.8626z"/><circle cx="55.216" cy="30.246" r=".631" fill="#fcea2b"/><circle cx="55.216" cy="32.138" r=".631" fill="#fcea2b"/><circle cx="55.216" cy="34.03" r=".631" fill="#fcea2b"/><circle cx="55.216" cy="35.923" r=".631" fill="#fcea2b"/><circle cx="55.216" cy="37.815" r=".631" fill="#fcea2b"/><circle cx="55.216" cy="39.707" r=".631" fill="#fcea2b"/><circle cx="46.385" cy="30.246" r=".631" fill="#fcea2b"/><circle cx="51.116" cy="29.931" r=".946" fill="#ffa7c0"/><circle cx="46.385" cy="32.138" r=".631" fill="#fcea2b"/><circle cx="46.385" cy="34.03" r=".631" fill="#fcea2b"/><circle cx="47.647" cy="35.923" r=".631" fill="#fcea2b"/><circle cx="46.385" cy="37.815" r=".631" fill="#fcea2b"/><circle cx="46.385" cy="39.707" r=".631" fill="#fcea2b"/><circle cx="50.17" cy="41.599" r=".631" fill="#fcea2b"/><circle cx="51.431" cy="41.599" r=".631" fill="#fcea2b"/><line x1="49.854" x2="47.962" y1="32.454" y2="34.977" fill="none" stroke="#ffa7c0" stroke-linecap="round" stroke-linejoin="round" stroke-width=".631"/><rect width="3.154" height="10.092" x="49.46" y="31.508" fill="#fff" rx="1.155" ry="1.155"/><line x1="52.377" x2="52.963" y1="32.454" y2="35.899" fill="none" stroke="#ffa7c0" stroke-linecap="round" stroke-linejoin="round" stroke-width=".631"/><path fill="#a57939" stroke="#a57939" stroke-linecap="round" stroke-linejoin="round" stroke-width=".631" d="m52.081 29.123a0.9461 0.9461 0 0 0-1.338 0l1.338 1.338a0.9461 0.9461 0 0 0 0-1.338z"/></g><g id="c"><rect width="62" height="38" x="5" y="17" fill="none" stroke="#000" stroke-linecap="round" stroke-linejoin="round" stroke-width="2"/></g></svg>