<svg xmlns="http://www.w3.org/2000/svg" id="a" viewBox="0 0 72 72"><g id="b"><rect width="62" height="38" x="5" y="17" fill="#fcea2b"/><rect width="31" height="19" x="5" y="17" fill="#1e50a0"/><polygon fill="#fff" points="9.887 18 6 18 6 20.332 32.113 36 36 36 36 33.668"/><polygon fill="#fff" points="36 20.332 36 18 32.113 18 6 33.668 6 36 9.887 36"/><rect width="30" height="6" x="6" y="24" fill="#fff"/><rect width="6" height="18" x="18" y="18" fill="#fff"/><rect width="2" height="18" x="20" y="18" fill="#d22f27"/><rect width="30" height="2" x="6" y="26" fill="#d22f27"/><polygon fill="#d22f27" points="36 33.668 29.887 30 26 30 36 36 36 35.999"/><polygon fill="#d22f27" points="36 18 32.113 18 24 22.868 24 24 26.001 24 36 18.001"/><polygon fill="#d22f27" points="6 20.332 12.113 24 16.001 24 6.001 18 6 18.001"/><polygon fill="#d22f27" points="6 36 9.887 36 18 31.132 18 30 16 30 6 35.999"/><circle cx="20.5" cy="26.5" r="2.5" fill="#1e50a0"/><polygon fill="#fcea2b" stroke="#fcea2b" stroke-linecap="round" stroke-linejoin="round" points="19.531 28 20.526 25 21.385 27.954 19 26.174 22 26.1"/><circle cx="27" cy="26.5" r="1" fill="#fcea2b"/><circle cx="14" cy="26.5" r="1" fill="#fcea2b"/><circle cx="20.5" cy="32" r="1" fill="#fcea2b"/><circle cx="20.5" cy="21" r="1" fill="#fcea2b"/></g><g id="c"><rect width="62" height="38" x="5" y="17" fill="none" stroke="#000" stroke-linecap="round" stroke-linejoin="round" stroke-width="2"/></g></svg>