<svg xmlns="http://www.w3.org/2000/svg" id="a" viewBox="0 0 72 72"><g id="b"><rect width="62" height="38" x="5" y="17" fill="#1e50a0"/><polygon fill="#fff" points="9.887 18 6 18 6 20.332 32.113 36 36 36 36 33.668"/><polygon fill="#fff" points="36 20.332 36 18 32.113 18 6 33.668 6 36 9.887 36"/><rect width="30" height="6" x="6" y="24" fill="#fff"/><rect width="6" height="18" x="18" y="18" fill="#fff"/><rect width="2" height="18" x="20" y="18" fill="#d22f27"/><rect width="30" height="2" x="6" y="26" fill="#d22f27"/><polygon fill="#d22f27" points="36 33.668 29.887 30 25.999 30 35.999 36 36 35.999"/><polygon fill="#d22f27" points="36 18 32.113 18 24 22.868 24 24 26 24 36 18.001"/><polygon fill="#d22f27" points="6 20.332 12.113 24 16 24 6 18 6 18.001"/><polygon fill="#d22f27" points="6 36 9.887 36 18 31.132 18 30 15.999 30 6 35.999"/><path fill="#3f3f3f" d="M58.5,29h-.2771c.0939.0307.1839.0693.2771.1014Z"/><path fill="#3f3f3f" d="M45.5,29v.1014c.0932-.0321.1832-.0707.2771-.1014Z"/><path fill="#fcea2b" d="m52 28a19.956 19.956 0 0 0-6.2229 1h12.446a19.956 19.956 0 0 0-6.2229-1z"/><path fill="#fcea2b" d="M58.5,34.5V29.1014c-.0932-.0321-.1832-.0707-.2771-.1014H45.7771c-.0939.0307-.1839.0693-.2771.1014V34.5Z"/><path fill="#92d3f5" d="M44.9556,34.81,58.5,34.8635S60,44,52,47"/><path fill="#92d3f5" d="M44.9556,34.81S44,45,52,47"/><path fill="#1e50a0" stroke="#1e50a0" stroke-linecap="round" stroke-linejoin="round" stroke-width="2" d="M56,42.9188c-2.4-1.5567-8,0-8,0L52,47Z"/><polyline fill="none" stroke="#a57939" stroke-linecap="round" stroke-linejoin="round" stroke-width="2" points="46 37 49 41 49 44"/><ellipse cx="46.858" cy="40.589" fill="none" stroke="#a57939" stroke-linecap="round" stroke-linejoin="round" stroke-width="2" rx=".5" ry="2.647" transform="translate(-10.321 16.636) rotate(-18.17)"/><polygon fill="#f4aa41" stroke="#a57939" stroke-linecap="round" stroke-linejoin="round" stroke-width="2" points="53 32 51 32 50 30"/><path fill="none" stroke="#f4aa41" stroke-linecap="round" stroke-linejoin="round" stroke-width="2" d="m55 41h-3a2.8222 2.8222 0 0 0 3 0z"/><path fill="none" stroke="#000" stroke-linecap="round" stroke-linejoin="round" d="m58.583 29v9c0 6.75-6.75 9-6.75 9s-6.75-2.25-6.75-9v-9s6.8959-3.4063 13.5 0z"/><line x1="58.5" x2="45.5" y1="34.5" y2="34.5" fill="none" stroke="#000" stroke-linecap="round" stroke-linejoin="round"/></g><g id="c"><rect width="62" height="38" x="5" y="17" fill="none" stroke="#000" stroke-linecap="round" stroke-linejoin="round" stroke-width="2"/></g></svg>