<svg xmlns="http://www.w3.org/2000/svg" id="a" viewBox="0 0 72 72"><g id="b"><rect width="62" height="38" x="5" y="17" fill="#d22f27"/><rect width="62" height="7" x="5" y="48" fill="#1e50a0" stroke="#f1b31c" stroke-miterlimit="10"/><rect width="62" height="7" x="5" y="17" fill="#1e50a0" stroke="#f1b31c" stroke-miterlimit="10"/><line x1="19.362" x2="56.163" y1="28.928" y2="28.928" fill="none" stroke="#fcea2b" stroke-linecap="round" stroke-linejoin="round" stroke-width=".968"/><line x1="16.016" x2="52.817" y1="33.109" y2="33.109" fill="none" stroke="#fcea2b" stroke-linecap="round" stroke-linejoin="round" stroke-width=".968"/><line x1="11.676" x2="60.503" y1="36.478" y2="36.478" fill="none" stroke="#fcea2b" stroke-linecap="round" stroke-linejoin="round" stroke-width=".925"/><path d="M48.6477,32.309a17.8474,17.8474,0,0,0-25.2386,0l-3.9549,3.9544a.3035.3035,0,0,0,0,.4293l3.9549,3.9544a17.8474,17.8474,0,0,0,25.2386,0l3.9549-3.9544a.3035.3035,0,0,0,0-.4293Z"/><path fill="#fff" d="M36.09,45.6893A.3112.3112,0,0,0,36.4018,46a17.4822,17.4822,0,0,0,12.1535-5.1379l4.1695-4.169a.3036.3036,0,0,0,0-.4293l-4.1695-4.169a17.4813,17.4813,0,0,0-12.1535-5.1382.3111.3111,0,0,0-.3123.3106Z"/><g fill="none" stroke="#fff" stroke-linecap="round" stroke-linejoin="round" stroke-width="1.936"><line x1="23.89" x2="33.57" y1="34.3" y2="34.3"/><line x1="23.89" x2="33.57" y1="38.656" y2="38.656"/></g><g fill="none" stroke="#000" stroke-linecap="round" stroke-linejoin="round" stroke-width="1.936"><line x1="38.411" x2="48.091" y1="34.3" y2="34.3"/><line x1="38.411" x2="48.091" y1="38.656" y2="38.656"/></g><circle cx="31.119" cy="30.645" r="2.904" fill="#1e50a0" stroke="#000" stroke-linecap="round" stroke-linejoin="round" stroke-width=".968"/><circle cx="12.766" cy="38.292" r="2.904" fill="#1e50a0" stroke="#000" stroke-linecap="round" stroke-linejoin="round" stroke-width=".968"/><circle cx="60.178" cy="38.292" r="2.904" fill="#1e50a0" stroke="#000" stroke-linecap="round" stroke-linejoin="round" stroke-width=".968"/></g><g id="c"><rect width="62" height="38" x="5" y="17" fill="none" stroke="#000" stroke-linecap="round" stroke-linejoin="round" stroke-width="2"/></g></svg>