<svg xmlns="http://www.w3.org/2000/svg" id="a" viewBox="0 0 72 72"><g id="b"><rect width="61.681" height="37.804" x="5.319" y="17" fill="#61b2e4"/><g stroke="#92d3f5" stroke-linecap="round" stroke-linejoin="round"><g fill="none" stroke-width="1.153"><circle cx="36.16" cy="32.938" r="11.595"/><circle cx="36.16" cy="32.938" r="8.697"/><line x1="36.16" x2="36.16" y1="44.534" y2="21.343"/><line x1="24.564" x2="47.755" y1="32.938" y2="32.938"/><line x1="27.96" x2="44.359" y1="41.138" y2="24.739"/><line x1="44.359" x2="27.96" y1="41.138" y2="24.739"/></g><circle cx="36.16" cy="32.938" r="5.798" fill="#61b2e4" stroke-width="1.282"/></g><path fill="#fff" d="M26.4716,37.6969a.486.486,0,0,1,.4176-.7476h1.4837a.9062.9062,0,0,0,.9253-.9252.9062.9062,0,0,1,.9253-.9253c.9253,0,.9253,2.7758,1.85,3.7011s.9253,1.8506,0,1.8506a3.3991,3.3991,0,0,1-2.7758-.9253C28.6221,39.0491,26.958,38.373,26.4716,37.6969Z"/><path fill="#fff" d="m30.961 34.927a0.8909 0.8909 0 0 1-0.3922-1.1073c0.4016-0.9922 1.1891-2.6457 1.9765-2.6457 1.1249 0 1.1249-2.25 3.3748 0s-1.1249 2.25-1.1249 3.3748 1.1249 0 2.25 0 1.125 1.1249-1.1249 1.1249c-2.1836 0 1.9901 3.1785-4.9593-0.7467z"/><path fill="#fff" d="M38.8661,40.5337a1.9333,1.9333,0,0,1-2.6-1.733c0-1.733,1.733-.8665,1.733-1.733s0-2.6.8665-2.6,0-.8665,0-1.733,1.733-1.733,1.733-1.733,1.733-.8665,2.6,0,0,1.733,0,2.5995,1.733.8665,0,1.733-2.1663,1.3-1.3,1.3,2.5995.8665,2.5995,1.733,0,1.7331-.8665.8666-.8665,0-.8665.8665,0,2.6-1.733,2.6S39.4322,40.2992,38.8661,40.5337Z"/><path fill="#fff" d="m42.029 26.867c-0.0738-0.4542-0.8232-2.47 1.6463-0.8232s2.47 3.2928 1.6464 3.2928-3.1609-1.6565-3.2927-2.4696z"/><path fill="#fff" d="M40.3825,27.69s0-1.6464.8232,0,2.4695,1.6464,2.4695,2.47c0,.57-1.1856-.0448-1.9138-.4765A2.9534,2.9534,0,0,1,40.56,28.4087,1.7432,1.7432,0,0,1,40.3825,27.69Z"/><ellipse cx="38.736" cy="23.163" fill="#fff" rx=".823" ry=".412"/><path fill="#fff" d="m35.948 30.727c0.5176 0.2144 1.12 1.12 2.2409 0s1.12 1.12 0 1.12 1.12 1.12 0 1.12-4.3111-3.0972-2.2409-2.24z"/><g fill="#fff"><path d="M51.9928,24.4406a10.8943,10.8943,0,0,0-3.3112-2.9654c-.2439-.1415-.4913-.2739-.7411-.4a.5558.5558,0,0,0-.7362.7587c.4879.9619,1.8007,3.92,1.8007,3.92A14.3473,14.3473,0,0,1,36.9287,46.4775c-.1291.0068-.2575.0106-.3858.0139s-.2551.0063-.3834.0064-.2558-.003-.3833-.0064-.2567-.0071-.3858-.0139A14.3473,14.3473,0,0,1,23.3141,25.754s1.3128-2.9585,1.8007-3.92a.5558.5558,0,0,0-.7362-.7587c-.25.1264-.4972.2588-.7411.4a10.8943,10.8943,0,0,0-3.3112,2.9654A14.3927,14.3927,0,0,0,17.45,34.1674q.0068.0885.0144.1772a18.717,18.717,0,0,0,7.3065,13.2441,8.3031,8.3031,0,0,0,9.3539.5949,3.7255,3.7255,0,0,1,1.4013-.522c.0246-.0041.0478-.012.0726-.0156a3.8329,3.8329,0,0,1,1.1223,0c.025.0036.0486.0116.0735.0158a3.7233,3.7233,0,0,1,1.4.5218,8.3031,8.3031,0,0,0,9.3539-.5949A18.717,18.717,0,0,0,54.855,34.3446q.0077-.0887.0144-.1772A14.3927,14.3927,0,0,0,51.9928,24.4406Z"/><path stroke="#fff" stroke-linecap="round" stroke-linejoin="round" stroke-width=".687" d="M45.2409,47.7376a4.3178,4.3178,0,0,1-2.1156.351,5.3,5.3,0,0,1-1.8837-.5537,15.2989,15.2989,0,0,0-1.6114-.6543,6.1261,6.1261,0,0,0-2.0875-.3638,7.3981,7.3981,0,0,0-.9019.0959,2.958,2.958,0,0,0-.4714.12l-.01.002-.01-.002a2.958,2.958,0,0,0-.4714-.12,7.3981,7.3981,0,0,0-.9019-.0959,6.1261,6.1261,0,0,0-2.0875.3638,15.2989,15.2989,0,0,0-1.6114.6543,5.3007,5.3007,0,0,1-1.8837.5537,4.3178,4.3178,0,0,1-2.1156-.351c-.1487-.0684-.2906-.1516-.4582-.24a2.0946,2.0946,0,0,0,.3063.3158,4.6012,4.6012,0,0,0,1.02.73,4.3585,4.3585,0,0,0,1.58.5073,4.5816,4.5816,0,0,0,2.5895-.5249,12.066,12.066,0,0,0,1.3766-.8858,7.6787,7.6787,0,0,1,.8382-.5231,1.7348,1.7348,0,0,1,1.26-.1508c.03.0075.0591.02.1117.0388a12.1472,12.1472,0,0,0-3.2638,2.2736c-.143.1125-.771.63-.771,1.0444a.4229.4229,0,0,0,.281.4278l.0115.0045a.4069.4069,0,0,0,.1753.0354.2593.2593,0,0,0,.09-.0181.5329.5329,0,0,0,.2557-.1405,2.3508,2.3508,0,0,0,.3061-.3124,7.46,7.46,0,0,1,.9208-1.03l1.9688-1.7471c.0584-.0368.1189-.07.1809-.1013a.5525.5525,0,0,1,.6045,0c.062.0313.1225.0645.1809.1013l1.9688,1.7471a7.46,7.46,0,0,1,.9208,1.03,2.3508,2.3508,0,0,0,.3061.3124.5329.5329,0,0,0,.2557.1405.2593.2593,0,0,0,.09.0181.4069.4069,0,0,0,.1753-.0354l.0115-.0045a.4229.4229,0,0,0,.281-.4278c0-.4147-.628-.9319-.771-1.0444a12.1472,12.1472,0,0,0-3.2638-2.2736c.0526-.0185.0815-.0313.1117-.0388a1.7348,1.7348,0,0,1,1.26.1508,7.6787,7.6787,0,0,1,.8382.5231,12.066,12.066,0,0,0,1.3766.8858,4.5816,4.5816,0,0,0,2.59.5249,4.3585,4.3585,0,0,0,1.58-.5073,4.6012,4.6012,0,0,0,1.02-.73,2.0946,2.0946,0,0,0,.3063-.3158C45.5315,47.586,45.39,47.6692,45.2409,47.7376Z"/></g></g><g id="c"><rect width="62" height="38" x="5" y="17" fill="none" stroke="#000" stroke-linecap="round" stroke-linejoin="round" stroke-width="2"/></g></svg>