<?xml version="1.0" encoding="UTF-8"?>
<svg id="a" viewBox="0 0 72 72" xmlns="http://www.w3.org/2000/svg"><g id="b"><rect x="5" y="17" width="62" height="38" fill="#1e50a0"/><polygon points="19.75 21.972 20.986 25.972 17.75 23.5 21.75 23.5 18.514 25.972" fill="#fff" stroke="#fff" stroke-linecap="round" stroke-linejoin="round"/><polygon points="19.75 35.972 20.986 39.972 17.75 37.5 21.75 37.5 18.514 39.972" fill="#fff" stroke="#fff" stroke-linecap="round" stroke-linejoin="round"/><polygon points="12.5 27.972 13.736 31.972 10.5 29.5 14.5 29.5 11.264 31.972" fill="#fff" stroke="#fff" stroke-linecap="round" stroke-linejoin="round"/><polygon points="26.5 26.972 27.427 29.972 25 28.118 28 28.118 25.573 29.972" fill="#fff" stroke="#fff" stroke-linecap="round" stroke-linejoin="round"/><path d="m56.496 22.004-33.996 24.996h32l2-8e-4c-2.1713-3.7-5.4086-7.9629-5.4086-12.501 0-4.5349 3.2359-8.7957 5.405-12.494z" fill="#f1b31c" stroke="#f1b31c" stroke-linecap="round" stroke-linejoin="round" stroke-width="2"/><line x1="22.5" x2="58.5" y1="50" y2="50" fill="none" stroke="#f1b31c" stroke-linecap="round" stroke-linejoin="round" stroke-width="2"/></g><g id="c"><rect x="5" y="17" width="62" height="38" fill="none" stroke="#000" stroke-linecap="round" stroke-linejoin="round" stroke-width="2"/></g></svg>
