<?xml version="1.0" encoding="UTF-8"?>
<svg id="a" viewBox="0 0 72 72" xmlns="http://www.w3.org/2000/svg"><g id="b"><rect x="5" y="17" width="62" height="38"/><rect x="5" y="42" width="62" height="6" fill="#f1b31c"/><rect x="5" y="30" width="62" height="6" fill="#d22f27"/><rect x="5" y="48" width="62" height="7" fill="#d22f27"/><rect x="5" y="24" width="62" height="6" fill="#f1b31c"/><circle cx="36" cy="36" r="6" fill="#fff"/><circle cx="35.215" cy="32.664" r=".9933" stroke="#000" stroke-miterlimit="10" stroke-width="1.3347"/><circle cx="36.705" cy="36.14" r=".9933" stroke="#000" stroke-miterlimit="10" stroke-width="1.6683"/><line x1="32.732" x2="35.712" y1="33.161" y2="33.161" stroke="#000" stroke-linecap="round" stroke-linejoin="round" stroke-width="1.001"/><line x1="35.712" x2="35.712" y1="36.14" y2="33.161" stroke="#000" stroke-linecap="round" stroke-linejoin="round" stroke-width="1.6683"/><line x1="36.705" x2="36.705" y1="40.114" y2="37.134" stroke="#000" stroke-linecap="round" stroke-linejoin="round" stroke-width="1.001"/><path d="m38.582 34.963c-1.2029-0.676-2.5481-0.5659-3.0044 0.246l4.3563 2.4483c0.4559-0.8118-0.149-2.0182-1.3519-2.6943z" stroke="#000" stroke-linecap="round" stroke-linejoin="round" stroke-width=".3337"/></g><g id="c"><rect x="5" y="17" width="62" height="38" fill="none" stroke="#000" stroke-linecap="round" stroke-linejoin="round" stroke-width="2"/></g></svg>
