<?xml version="1.0" encoding="UTF-8"?>
<svg id="a" viewBox="0 0 72 72" xmlns="http://www.w3.org/2000/svg"><g id="b"><rect x="5" y="17" width="62" height="38" fill="#d22f27"/><rect x="5" y="17" width="62" height="13" fill="#fff"/><rect x="5" y="30" width="62" height="12" fill="#1e50a0"/><path d="m23.833 45s6.75-2.25 6.75-9v-9h-13.5v9c0 6.75 6.75 9 6.75 9z" fill="#d22f27" stroke="#fff" stroke-linecap="round" stroke-linejoin="round"/><line x1="23.833" x2="23.833" y1="29.5" y2="41.5" fill="none" stroke="#fff" stroke-linecap="round" stroke-linejoin="round" stroke-width="2"/><line x1="21.833" x2="25.833" y1="31.5" y2="31.5" fill="none" stroke="#fff" stroke-linecap="round" stroke-linejoin="round" stroke-width="2"/><line x1="20.333" x2="27.333" y1="34.5" y2="34.5" fill="none" stroke="#fff" stroke-linecap="round" stroke-linejoin="round" stroke-width="2"/><circle cx="23.833" cy="41.5" r="3.1667" fill="#1e50a0"/><path d="M19.25,39.3333a2.1457,2.1457,0,0,0-1.3265.465,9.5792,9.5792,0,0,0,2.7022,3.3628A2.158,2.158,0,0,0,19.25,39.3333Z" fill="#1e50a0"/><path d="m28.417 39.333a2.158 2.158 0 0 0-1.3757 3.8278 9.5792 9.5792 0 0 0 2.7022-3.3628 2.1455 2.1455 0 0 0-1.3265-0.465z" fill="#1e50a0"/><path d="m23.833 45s6.75-2.25 6.75-9v-9h-13.5v9c0 6.75 6.75 9 6.75 9z" fill="none" stroke="#fff" stroke-linecap="round" stroke-linejoin="round"/></g><g id="c"><rect x="5" y="17" width="62" height="38" fill="none" stroke="#000" stroke-linecap="round" stroke-linejoin="round" stroke-width="2"/></g></svg>
