<svg xmlns="http://www.w3.org/2000/svg" id="a" viewBox="0 0 72 72"><g id="b"><rect width="62" height="38" x="5" y="17" fill="#1e50a0"/><rect width="62" height="9" x="5" y="27" fill="#fff"/><rect width="62" height="9" x="5" y="36" fill="#d22f27"/><rect width="62" height="10" x="5" y="17" fill="#f1b31c"/><polygon fill="#5c9e31" points="37 36 5 55 5 17"/><g fill="#fff"><circle cx="19" cy="31" r="1.044"/><circle cx="19" cy="34.333" r="1.044"/><circle cx="19" cy="37.667" r="1.044"/><circle cx="19" cy="41" r="1.044"/></g><path fill="#fff" stroke="#fff" stroke-linecap="round" stroke-linejoin="round" d="m11.693 36.125a7.4815 7.4815 0 0 1 5.9889-7.3567 7.3762 7.3762 0 0 0-1.4373-0.1433 7.5 7.5 0 0 0 0 15 7.3839 7.3839 0 0 0 1.4373-0.1432 7.4817 7.4817 0 0 1-5.9889-7.3568z"/></g><g id="c"><rect width="62" height="38" x="5" y="17" fill="none" stroke="#000" stroke-linecap="round" stroke-linejoin="round" stroke-width="2"/></g></svg>