<svg xmlns="http://www.w3.org/2000/svg" id="a" viewBox="0 0 72 72"><g id="b"><rect width="62" height="38" x="5" y="17" fill="#fff"/><rect width="62" height="5" x="5" y="17" fill="#d22f27"/><rect width="62" height="4" x="5" y="26" fill="#d22f27"/><rect width="62" height="4" x="5" y="34" fill="#d22f27"/><rect width="32" height="21" x="5" y="17" fill="#1e50a0"/><rect width="62" height="4" x="5" y="42" fill="#d22f27"/><circle cx="9.5" cy="22" r="1.75" fill="#fff"/><circle cx="17.5" cy="22" r="1.75" fill="#fff"/><circle cx="25.5" cy="22" r="1.75" fill="#fff"/><circle cx="33.5" cy="22" r="1.75" fill="#fff"/><circle cx="29.5" cy="26" r="1.75" fill="#fff"/><circle cx="21.5" cy="26" r="1.75" fill="#fff"/><circle cx="13.5" cy="26" r="1.75" fill="#fff"/><circle cx="9.5" cy="30" r="1.75" fill="#fff"/><circle cx="17.5" cy="30" r="1.75" fill="#fff"/><circle cx="25.5" cy="30" r="1.75" fill="#fff"/><circle cx="33.5" cy="30" r="1.75" fill="#fff"/><circle cx="29.5" cy="34" r="1.75" fill="#fff"/><circle cx="21.5" cy="34" r="1.75" fill="#fff"/><circle cx="13.5" cy="34" r="1.75" fill="#fff"/><rect width="62" height="5" x="5" y="50" fill="#d22f27"/></g><g id="c"><rect width="62" height="38" x="5" y="17" fill="none" stroke="#000" stroke-linecap="round" stroke-linejoin="round" stroke-width="2"/></g></svg>