<?xml version="1.0" encoding="UTF-8"?>
<svg id="a" viewBox="0 0 72 72" xmlns="http://www.w3.org/2000/svg"><g id="b"><rect x="5" y="17" width="62" height="38" fill="#fff"/><rect x="5" y="17" width="62" height="9" fill="#d22f27"/><rect x="5" y="46" width="62" height="9" fill="#d22f27"/><path d="m42 36a7 7 0 0 1-14 0" fill="#92d3f5" stroke="#92d3f5" stroke-linejoin="round" stroke-width=".9333"/><path d="m28 36a7 7 0 0 1 14 0" fill="#f4aa41" stroke="#f4aa41" stroke-linejoin="round" stroke-width=".9333"/><path d="m36.542 31s-3.1667 0-3.1667 2.1111v3.1667l3.1667 1.5833v-4.2222s-2.1111-0.5278 0-2.6389z" fill="#d22f27" stroke="#d22f27" stroke-linejoin="round"/><path d="M33,39.5794s-1.0445.6963-1.7408,0l.05-4.8191" fill="none" stroke="#d22f27" stroke-linecap="round" stroke-linejoin="round"/><path d="M37.2592,39.5794s1.0445.6963,1.7408,0L38.95,34.76" fill="none" stroke="#d22f27" stroke-linecap="round" stroke-linejoin="round"/></g><g id="c"><rect x="5" y="17" width="62" height="38" fill="none" stroke="#000" stroke-linecap="round" stroke-linejoin="round" stroke-width="2"/></g></svg>
