<?xml version="1.0" encoding="UTF-8"?>
<svg id="a" viewBox="0 0 72 72" xmlns="http://www.w3.org/2000/svg"><g id="b"><rect x="5" y="17" width="62" height="38" fill="#1e50a0"/><path d="m52.679 47s6.75-2.25 6.75-9v-9h-13.5v9c0 6.75 6.75 9 6.75 9z" fill="#92d3f5" stroke="#92d3f5" stroke-linecap="round" stroke-linejoin="round"/><path d="m46.277 40.5c1.3694 4.8127 6.4023 6.5 6.4023 6.5s5.033-1.6873 6.4024-6.5z" fill="#d22f27" stroke="#d22f27" stroke-linecap="round" stroke-linejoin="round"/><line x1="52.458" x2="52.458" y1="32.062" y2="42.688" fill="none" stroke="#000" stroke-linecap="round" stroke-linejoin="round" stroke-width="2"/><line x1="55.646" x2="49.271" y1="35.25" y2="35.25" fill="none" stroke="#000" stroke-linecap="round" stroke-linejoin="round" stroke-width="2"/><polygon points="9.887 18 6 18 6 20.332 32.113 36 36 36 36 33.668" fill="#fff"/><polygon points="36 20.332 36 18 32.113 18 6 33.668 6 36 9.887 36" fill="#fff"/><rect x="6" y="24" width="30" height="6" fill="#fff"/><rect x="18" y="18" width="6" height="18" fill="#fff"/><rect x="20" y="18" width="2" height="18" fill="#d22f27"/><rect x="6" y="26" width="30" height="2" fill="#d22f27"/><polygon points="36 33.668 29.887 30 26 30 36 36 36 35.999" fill="#d22f27"/><polygon points="36 18 32.113 18 24 22.868 24 24 26.001 24 36 18.001" fill="#d22f27"/><polygon points="6 20.332 12.113 24 16.001 24 6.001 18 6 18.001" fill="#d22f27"/><polygon points="6 36 9.887 36 18 31.132 18 30 16 30 6 35.999" fill="#d22f27"/></g><g id="c"><rect x="5" y="17" width="62" height="38" fill="none" stroke="#000" stroke-linecap="round" stroke-linejoin="round" stroke-width="2"/></g></svg>
