<?xml version="1.0" encoding="UTF-8"?>
<svg id="a" viewBox="0 0 72 72" xmlns="http://www.w3.org/2000/svg"><g id="b"><rect x="5" y="17" width="62" height="38" fill="#d22f27"/><rect x="5" y="17" width="62" height="13" fill="#fff"/><rect x="5" y="30" width="62" height="12" fill="#1e50a0"/><path d="m22.583 22v9c0 6.75-6.75 9-6.75 9s-6.75-2.25-6.75-9v-9s6.8959-3.4063 13.5 0z" fill="#1e50a0" stroke="#000" stroke-linecap="round" stroke-linejoin="round"/><path d="M11.9626,33.3515l7.9755.3394A6.8155,6.8155,0,0,1,16,38c-3,1-4.0374-4.6485-4.0374-4.6485" fill="#fff" stroke="#fff" stroke-miterlimit="10"/><polyline points="14.5 33.5 15.5 31.5 17.765 34.084 14.5 33.5" fill="#fff" stroke="#fff" stroke-miterlimit="10"/><circle cx="13" cy="24" r="1" fill="#fcea2b"/><path d="m21 35-1-3-2 3-2-5-2 5-2-3-1 3s4 9 10 0z" fill="none" stroke="#fff" stroke-linecap="round" stroke-linejoin="round" stroke-width="2"/><circle cx="16" cy="26" r="1" fill="#fcea2b"/><circle cx="19" cy="24" r="1" fill="#fcea2b"/><path d="m22.583 22v9c0 6.75-6.75 9-6.75 9s-6.75-2.25-6.75-9v-9s6.8959-3.4063 13.5 0z" fill="none" stroke="#d22f27" stroke-linecap="round" stroke-linejoin="round"/></g><g id="c"><rect x="5" y="17" width="62" height="38" fill="none" stroke="#000" stroke-linecap="round" stroke-linejoin="round" stroke-width="2"/></g></svg>
