<?xml version="1.0" encoding="UTF-8"?>
<svg id="a" viewBox="0 0 72 72" xmlns="http://www.w3.org/2000/svg"><g id="b"><rect x="5" y="17" width="62" height="38" fill="#1e50a0"/><polygon points="9.887 18 6 18 6 20.332 32.113 36 36 36 36 33.668" fill="#fff"/><polygon points="36 20.332 36 18 32.113 18 6 33.668 6 36 9.887 36" fill="#fff"/><rect x="6" y="24" width="30" height="6" fill="#fff"/><rect x="18" y="18" width="6" height="18" fill="#fff"/><rect x="20" y="18" width="2" height="18" fill="#d22f27"/><rect x="6" y="26" width="30" height="2" fill="#d22f27"/><polygon points="36 33.668 29.887 30 26 30 36 36 36 35.999" fill="#d22f27"/><polygon points="36 18 32.113 18 24 22.868 24 24 26.001 24 36 18.001" fill="#d22f27"/><polygon points="6 20.332 12.113 24 16.001 24 6.001 18 6 18.001" fill="#d22f27"/><polygon points="6 36 9.887 36 18 31.132 18 30 16 30 6 35.999" fill="#d22f27"/><path d="M59.5,30h-.2771c.0939.0307.1839.0693.2771.1014Z" fill="#3f3f3f"/><path d="M46.5,30v.1014c.0932-.0321.1832-.0707.2771-.1014Z" fill="#3f3f3f"/><path d="m53 29a19.956 19.956 0 0 0-6.2229 1h12.446a19.956 19.956 0 0 0-6.2229-1z" fill="#fcea2b"/><path d="M59.5,35.5V30.1014c-.0932-.0321-.1832-.0707-.2771-.1014H46.7771c-.0939.0307-.1839.0693-.2771.1014V35.5Z" fill="#fcea2b"/><path d="M45.9556,35.81,59.5,35.8635S61,45,53,48" fill="#92d3f5"/><path d="M45.9556,35.81S45,46,53,48" fill="#92d3f5"/><path d="M57,43.9188c-2.4-1.5567-8,0-8,0L53,48Z" fill="#1e50a0" stroke="#1e50a0" stroke-linecap="round" stroke-linejoin="round" stroke-width="2"/><polyline points="47 38 50 42 50 45" fill="none" stroke="#a57939" stroke-linecap="round" stroke-linejoin="round" stroke-width="2"/><ellipse transform="translate(-10.583 16.998) rotate(-18.17)" cx="47.858" cy="41.589" rx=".5" ry="2.6466" fill="none" stroke="#a57939" stroke-linecap="round" stroke-linejoin="round" stroke-width="2"/><polygon points="54 33 52 33 51 31" fill="#f4aa41" stroke="#a57939" stroke-linecap="round" stroke-linejoin="round" stroke-width="2"/><path d="m56 42h-3a2.8222 2.8222 0 0 0 3 0z" fill="none" stroke="#f4aa41" stroke-linecap="round" stroke-linejoin="round" stroke-width="2"/><path d="m59.583 30v9c0 6.75-6.75 9-6.75 9s-6.75-2.25-6.75-9v-9s6.8959-3.4063 13.5 0z" fill="none" stroke="#000" stroke-linecap="round" stroke-linejoin="round"/><line x1="59.5" x2="46.5" y1="35.5" y2="35.5" fill="none" stroke="#000" stroke-linecap="round" stroke-linejoin="round"/></g><g id="c"><rect x="5" y="17" width="62" height="38" fill="none" stroke="#000" stroke-linecap="round" stroke-linejoin="round" stroke-width="2"/></g></svg>
