<svg xmlns="http://www.w3.org/2000/svg" id="a" viewBox="0 0 72 72"><g id="b"><path d="m40.85 21.012h-10.676c-0.5527 0-1 0.4478-1 1v28c0 0.5522 0.4473 1 1 1s1-0.4478 1-1v-13.052h9.6758c4.3984 0 7.9766-3.5762 7.9766-7.9722s-3.5781-7.9761-7.9766-7.9761zm0 13.948h-9.6758v-11.948h9.6758c3.2959 0 5.9766 2.6807 5.9766 5.9761 0 3.293-2.6807 5.9722-5.9766 5.9722z"/></g><g id="c"><g id="d"><circle cx="36" cy="36" r="28" fill="none" stroke="#000" stroke-linejoin="round" stroke-width="2"/></g><path fill="none" stroke="#000" stroke-linejoin="round" stroke-width="2" d="m40.85 21.012h-10.676c-0.5527 0-1 0.4478-1 1v28c0 0.5522 0.4473 1 1 1s1-0.4478 1-1v-13.052h9.6758c4.3984 0 7.9766-3.5762 7.9766-7.9722s-3.5781-7.9761-7.9766-7.9761zm0 13.948h-9.6758v-11.948h9.6758c3.2959 0 5.9766 2.6807 5.9766 5.9761 0 3.293-2.6807 5.9722-5.9766 5.9722z"/></g></svg>