<svg xmlns="http://www.w3.org/2000/svg" id="a" viewBox="0 0 72 72"><g id="b"><rect width="62" height="38" x="5" y="17" fill="#5c9e31"/><rect width="62" height="13" x="5" y="17" fill="#d22f27"/><rect width="62" height="12" x="5" y="30"/><path fill="#fff" stroke="#fff" stroke-linecap="round" stroke-linejoin="round" d="M32.1358,36.125a4.0528,4.0528,0,0,1,3.3783-3.9236,4.3947,4.3947,0,0,0-.8108-.0764,4.0043,4.0043,0,1,0,0,8,4.3947,4.3947,0,0,0,.8108-.0764A4.0527,4.0527,0,0,1,32.1358,36.125Z"/><polygon fill="#fff" stroke="#fff" stroke-linecap="round" stroke-linejoin="round" points="38.193 37.166 39.521 33.166 40.666 37.105 37.486 34.732 41.486 34.633"/></g><g id="c"><rect width="62" height="38" x="5" y="17" fill="none" stroke="#000" stroke-linecap="round" stroke-linejoin="round" stroke-width="2"/></g></svg>