<svg xmlns="http://www.w3.org/2000/svg" id="a" viewBox="0 0 72 72"><g id="b"><rect width="62" height="38" x="5" y="17" fill="#fff"/><rect width="62" height="13" x="5" y="17" fill="#d22f27"/><rect width="62" height="12" x="5" y="30" fill="#1e50a0"/><circle cx="27" cy="40" r="7" fill="#fff" stroke="#d22f27" stroke-miterlimit="10" stroke-width="2"/><polyline fill="#fff" stroke="#d22f27" stroke-miterlimit="10" stroke-width="2" points="34 40 34 29 20 29 20 40"/><line x1="22" x2="34" y1="44" y2="30" fill="none" stroke="#d22f27" stroke-linecap="round" stroke-miterlimit="10" stroke-width="2"/><line x1="32" x2="20" y1="44" y2="30" fill="none" stroke="#d22f27" stroke-linecap="round" stroke-miterlimit="10" stroke-width="2"/><line x1="27" x2="27" y1="33" y2="43" fill="none" stroke="#fff" stroke-miterlimit="10" stroke-width="2"/><line x1="22" x2="32" y1="38" y2="38" fill="none" stroke="#fff" stroke-miterlimit="10" stroke-width="2"/><path fill="none" stroke="#fcea2b" stroke-linecap="round" stroke-linejoin="round" stroke-width="2" d="m27 23c-3.1257 0.623-5 1.6-4 4h8c1-2.4-0.8743-3.377-4-4z"/><line x1="27" x2="27" y1="21.049" y2="23" fill="none" stroke="#fcea2b" stroke-linecap="round" stroke-linejoin="round" stroke-width="2"/></g><g id="c"><rect width="62" height="38" x="5" y="17" fill="none" stroke="#000" stroke-linecap="round" stroke-linejoin="round" stroke-width="2"/></g></svg>