<svg xmlns="http://www.w3.org/2000/svg" id="a" viewBox="0 0 72 72"><g id="b"><rect width="62" height="38" x="5" y="17" fill="#fff"/><rect width="62" height="9" x="5" y="17" fill="#d22f27"/><rect width="62" height="9" x="5" y="46" fill="#d22f27"/><path fill="#92d3f5" stroke="#92d3f5" stroke-linejoin="round" stroke-width=".933" d="m42 36a7 7 0 0 1-14 0"/><path fill="#f4aa41" stroke="#f4aa41" stroke-linejoin="round" stroke-width=".933" d="m28 36a7 7 0 0 1 14 0"/><path fill="#d22f27" stroke="#d22f27" stroke-linejoin="round" d="m36.542 31s-3.1667 0-3.1667 2.1111v3.1667l3.1667 1.5833v-4.2222s-2.1111-0.5278 0-2.6389z"/><path fill="none" stroke="#d22f27" stroke-linecap="round" stroke-linejoin="round" d="M33,39.5794s-1.0445.6963-1.7408,0l.05-4.8191"/><path fill="none" stroke="#d22f27" stroke-linecap="round" stroke-linejoin="round" d="M37.2592,39.5794s1.0445.6963,1.7408,0L38.95,34.76"/></g><g id="c"><rect width="62" height="38" x="5" y="17" fill="none" stroke="#000" stroke-linecap="round" stroke-linejoin="round" stroke-width="2"/></g></svg>