<?xml version="1.0" encoding="UTF-8"?>
<svg id="a" viewBox="0 0 72 72" xmlns="http://www.w3.org/2000/svg"><g id="b"><path d="m36 21.012c-6.0654 0-11 4.9346-11 11v8c0 6.0654 4.9346 11 11 11s11-4.9346 11-11v-8c0-6.0654-4.9346-11-11-11zm9 19c0 4.9624-4.0371 9-9 9s-9-4.0376-9-9v-8c0-4.9624 4.0371-9 9-9s9 4.0376 9 9v8z"/></g><g id="c"><g id="d"><circle cx="36" cy="36" r="28" fill="none" stroke="#000" stroke-linejoin="round" stroke-width="2"/></g><path d="m36 21.012c-6.0654 0-11 4.9346-11 11v8c0 6.0654 4.9346 11 11 11s11-4.9346 11-11v-8c0-6.0654-4.9346-11-11-11zm9 19c0 4.9624-4.0371 9-9 9s-9-4.0376-9-9v-8c0-4.9624 4.0371-9 9-9s9 4.0376 9 9v8z" fill="none" stroke="#000" stroke-linejoin="round" stroke-width="2"/></g></svg>
