<?xml version="1.0" encoding="UTF-8"?>
<svg id="a" viewBox="0 0 72 72" xmlns="http://www.w3.org/2000/svg"><g id="b"><path d="M59.0349,60h-46.07A.9679.9679,0,0,1,12,59.0349v-46.07A.9679.9679,0,0,1,12.9651,12h46.07A.9679.9679,0,0,1,60,12.9651v46.07A.9679.9679,0,0,1,59.0349,60Z" fill="#1e50a0"/></g><g id="c" fill="none" stroke="#000" stroke-width="2"><path d="M59.0349,60h-46.07A.9679.9679,0,0,1,12,59.0349v-46.07A.9679.9679,0,0,1,12.9651,12h46.07A.9679.9679,0,0,1,60,12.9651v46.07A.9679.9679,0,0,1,59.0349,60Z" stroke-miterlimit="10"/><polyline points="23 30 23 26 48 26 48 30" stroke-linecap="round" stroke-linejoin="round"/><line x1="35.5" x2="35.5" y1="22.5" y2="26" stroke-linecap="round" stroke-linejoin="round"/><path d="m31.5 26.5s2 8-9 10" stroke-linecap="round" stroke-linejoin="round"/><path d="M38.34,26l.16,8.5h5.5858a3.4142,3.4142,0,0,0,2.4142-1h0" stroke-linecap="round" stroke-linejoin="round"/><line x1="25" x2="46" y1="41" y2="41" stroke-linecap="round" stroke-linejoin="round"/><polyline points="35.5 41.5 35.5 49.5 22.5 49.5" stroke-linecap="round" stroke-linejoin="round"/><line x1="49.5" x2="35.5" y1="49.5" y2="49.5" stroke-linecap="round" stroke-linejoin="round"/></g></svg>
