<?xml version="1.0" encoding="UTF-8"?>
<svg id="a" viewBox="0 0 72 72" xmlns="http://www.w3.org/2000/svg"><g id="b"><g id="c"><path d="M59.0349,60h-46.07A.9679.9679,0,0,1,12,59.0349v-46.07A.9679.9679,0,0,1,12.9651,12h46.07A.9679.9679,0,0,1,60,12.9651v46.07A.9679.9679,0,0,1,59.0349,60Z" fill="#d0cfce"/></g></g><g id="d" fill="none" stroke="#000" stroke-width="2"><path d="M59.0349,60h-46.07A.9679.9679,0,0,1,12,59.0349v-46.07A.9679.9679,0,0,1,12.9651,12h46.07A.9679.9679,0,0,1,60,12.9651v46.07A.9679.9679,0,0,1,59.0349,60Z" stroke-miterlimit="10"/><polyline points="23 32 23 27 48 27 48 32" stroke-linecap="round" stroke-linejoin="round"/><line x1="27" x2="30.104" y1="22" y2="27" stroke-linecap="round" stroke-linejoin="round"/><line x1="34" x2="37.144" y1="22" y2="27" stroke-linecap="round" stroke-linejoin="round"/><line x1="44" x2="41.346" y1="22" y2="27" stroke-linecap="round" stroke-linejoin="round"/><polygon points="28 31 28 37 34.832 37 43 37 43 31" stroke-linecap="round" stroke-linejoin="round"/><line x1="33" x2="35" y1="41" y2="37" stroke-linecap="round" stroke-linejoin="round"/><polyline points="25 50 25 41 46 41 46 50" stroke-linecap="round" stroke-linejoin="round"/><line x1="26" x2="45" y1="47" y2="47" stroke-linecap="round" stroke-linejoin="round"/></g></svg>
