<?xml version="1.0" encoding="UTF-8"?>
<svg id="a" viewBox="0 0 72 72" xmlns="http://www.w3.org/2000/svg"><g id="b"><path d="M59.0349,60h-46.07A.9679.9679,0,0,1,12,59.0349v-46.07A.9679.9679,0,0,1,12.9651,12h46.07A.9679.9679,0,0,1,60,12.9651v46.07A.9679.9679,0,0,1,59.0349,60Z" fill="#d0cfce"/></g><g id="c" stroke="#000" stroke-width="2"><line x1="25" x2="47" y1="37" y2="37" stroke-linecap="round" stroke-linejoin="round"/><polyline points="21.5 41.5 36 41.5 50.5 41.5" stroke-linecap="round" stroke-linejoin="round"/><polyline points="36.5 43 36.5 50.5 31.5 50.5" fill="none" stroke-linecap="round" stroke-linejoin="round"/><path d="m29 44s-3 5-7 6" fill="none" stroke-linecap="round" stroke-linejoin="round"/><path d="m43 44s3 5 7 6" fill="none" stroke-linecap="round" stroke-linejoin="round"/><line x1="28" x2="28" y1="22" y2="32" stroke-linecap="round" stroke-linejoin="round"/><line x1="21" x2="33.5" y1="24.574" y2="24.574" stroke-linecap="round" stroke-linejoin="round"/><path d="m21.5 32.5s6-4 6-8" stroke-linecap="round" stroke-linejoin="round"/><path d="m28.852 24.5s1.6483 5 4.6483 6" stroke-linecap="round" stroke-linejoin="round"/><line x1="43.5" x2="43.5" y1="22" y2="32" stroke-linecap="round" stroke-linejoin="round"/><line x1="50.5" x2="38" y1="24.574" y2="24.574" stroke-linecap="round" stroke-linejoin="round"/><path d="m50 32.5s-6-4-6-8" stroke-linecap="round" stroke-linejoin="round"/><path d="M42.6483,24.5S40.6454,30.75,37,32" stroke-linecap="round" stroke-linejoin="round"/><path d="M59.0349,60h-46.07A.9679.9679,0,0,1,12,59.0349v-46.07A.9679.9679,0,0,1,12.9651,12h46.07A.9679.9679,0,0,1,60,12.9651v46.07A.9679.9679,0,0,1,59.0349,60Z" fill="none" stroke-miterlimit="10"/></g></svg>
