<?xml version="1.0" encoding="UTF-8"?>
<svg id="a" viewBox="0 0 72 72" xmlns="http://www.w3.org/2000/svg"><g id="b"><rect x="11.472" y="11.042" width="48.984" height="48.984" rx="1.6991" fill="#d0cfce"/></g><g id="c"><g fill="none" stroke="#000" stroke-width="2"><line x1="21.321" x2="51.296" y1="25.123" y2="25.123" stroke-linecap="round" stroke-miterlimit="5"/><path d="m34.433 19.997a46.047 46.047 0 0 1-5.197 10.875 25.378 25.378 0 0 1-8.5626 8.4156" stroke-linecap="round" stroke-miterlimit="5"/><path d="M40.3044,51.304h5.89a.6.6,0,0,0,.661-.5073V32.0284a.6.6,0,0,0-.661-.5073H30.6074" stroke-linecap="round" stroke-miterlimit="5"/><line x1="29.85" x2="46.855" y1="37.9" y2="37.9" stroke-linecap="round" stroke-miterlimit="5"/><line x1="29.225" x2="29.225" y1="32.082" y2="51.088" stroke-linecap="round" stroke-miterlimit="5"/><line x1="29.225" x2="46.855" y1="43.228" y2="43.228" stroke-miterlimit="5"/><rect x="11.472" y="11.042" width="48.984" height="48.984" rx="1.6991" stroke-miterlimit="10"/></g></g></svg>
