<?xml version="1.0" encoding="UTF-8"?>
<svg id="a" viewBox="0 0 72 72" xmlns="http://www.w3.org/2000/svg"><g id="b"><rect x="4" y="4" width="64" height="64" fill="#e27022"/><polyline points="68 4 60 4 44 35 48 38 65 18 68 14.769" fill="#f4aa41"/><polygon points="4 17.562 6.019 19.475 24.55 38.066 28.3 34.758 9 4 4 4" fill="#f4aa41"/><polyline points="30.879 4 33.348 32.375 38.331 32.787 42.08 6.807 42.566 4" fill="#f4aa41"/><path d="m50.961 49.078c-0.2669 3.1308-5.2035 14.664-16.04 13.883a15 15 0 0 1-13.883-16.04c0.627-8.7 8.6625-14.342 16.04-13.883 6.9914 0.4348 11.089 6.2058 11.654 7.0295a14.632 14.632 0 0 1 2.1067 5.5473 16.402 16.402 0 0 1 0.1214 3.4627z" fill="#fcea2b"/><polygon points="4 42.636 15.889 33.41 54.869 68 4 68" fill="#d0cfce"/><polyline points="41.492 54.869 68 27.944 68 68 54.869 68" fill="#9b9b9a"/></g><g id="c" fill="none" stroke="#000" stroke-linecap="round" stroke-width="2"><path d="m25.75 37.049a15.025 15.025 0 0 1 14.712-3.3742 15.362 15.362 0 0 1 7.5867 5.3881 11.518 11.518 0 0 1 1.6933 2.88" stroke-miterlimit="10"/><polyline points="5 42.416 16.34 32.855 54.746 67" stroke-linejoin="round"/><line x1="42.983" x2="66.755" y1="53.445" y2="28.22" stroke-linejoin="round"/></g></svg>
