<?xml version="1.0" encoding="UTF-8"?>
<svg id="a" version="1.1" viewBox="0 0 72 72" xmlns="http://www.w3.org/2000/svg"><g id="b"><path d="m28.8 9.1c-0.4-0.7 1.6-4.2 4.6-4.4 3-0.3 5.2 1.5 4.4 3.6s-2.1 2.2-2.8 2.3l3.2 1.7c-0.8 2.1-7.8 2.7-6.5 5.6l-4 0.4c0.1-1.5 0-3.7-1.5-4.9-1.1-0.9-2.8-1.1-4.2-1.6-2-0.7-2-2.7-1.4-4 0.7-1.4 1.8-2.8 3.4-2.8 1 0 2 0 3 1l1.8 3.1z" fill="#D0CFCE" stroke="#D0CFCE" stroke-linecap="round" stroke-linejoin="round" stroke-miterlimit="10" stroke-width="1.8"/><polygon points="63 57 56.4 49.1 53 40 45 34 40 34 36 22 40 34 36 22 32 24 24.2 22.1 19 34 17 46 9 57" fill="#9B9B9A"/><path d="m33.7 22.3c1.4 0.4 0.8 2.1 1.5 4.4 0.4 1.4 0.3 1.8 0.3 2-0.5 1.3-1.2 1.2-1.7 2.4-0.4 1.1 0.7 1.6 0.4 3s-1.7 2.7-2.7 2.4c-0.8-0.2-1.1-1.3-1.3-1.8-0.5-1.8 0.2-3.5 0.4-4.1 0.8-1.8 1.7-2.2 1.5-3.3-0.1-1-1-1.6-1.3-1.8-0.8-0.6-2.1-1-3.1-0.6-1.9 0.8-2.4 4.6-2 7.4 0.4 2.2 2.8 7 2.2 8.7-0.2 0.7-2-3.1-3.2-1.5-1.1 1.4 0.4 5.3-1.8 6.6-1.3 0.7-1.7-3.9-1.8-3.9-0.3 0-1 1.5-0.3-2.1 0.4-2.4 1.7-1.4 2.1-4 0.2-1.5 0.1-4-0.1-6-0.3-3-1.4-2.7-1.1-5.1 0.1-0.8 0.8-1.5 2-2.1 0.5-0.2 0.2-1.9 2.4-1.8 3.6 0.2 4.1 1.4 5.2 1.3 1.4-0.1 1.7-0.3 2.4-0.1z" fill="#EA5A47"/></g><g id="c" fill="none" stroke="#000" stroke-linecap="round" stroke-linejoin="round" stroke-miterlimit="10"><polyline points="63 56 56.4 49.1 53 40" stroke-width="2"/><polyline points="24 22 19 34 17 46 9 56" stroke-width="2"/><polyline points="40 34 36 22 34.4 22.8" stroke-width="2"/><polyline points="40 34 45 34 53 40 52 46 53 51 51 53 48 56" stroke-width="2"/><path d="m33.7 22.3c1.4 0.4 0.8 2.1 1.5 4.4 0.4 1.4 0.3 1.8 0.3 2-0.5 1.3-1.2 1.2-1.7 2.4-0.4 1.1 0.7 1.6 0.4 3s-1.7 2.7-2.7 2.4c-0.8-0.2-1.1-1.3-1.3-1.8-0.5-1.8 0.2-3.5 0.4-4.1 0.8-1.8 1.7-2.2 1.5-3.3-0.1-1-1-1.6-1.3-1.8-0.8-0.6-2.1-1-3.1-0.6-1.9 0.8-2.4 4.6-2 7.4 0.4 2.2 2.8 7 2.2 8.7-0.2 0.7-2-3.1-3.2-1.5-1.1 1.4 0.4 5.3-1.8 6.6-1.3 0.7-1.7-3.9-1.8-3.9-0.3 0-1 1.5-0.3-2.1 0.4-2.4 1.7-1.4 2.1-4 0.2-1.5 0.1-4-0.1-6-0.3-3-1.4-2.7-1.1-5.1 0.1-0.8 0.8-1.5 2-2.1 0.5-0.2 0.2-1.9 2.4-1.8 3.6 0.2 4.1 1.4 5.2 1.3 1.4-0.1 1.7-0.3 2.4-0.1z" stroke-width="1.8"/><path d="m24.2 16.3c-0.4-1.6-3.3-2.4-6.5-1.7" stroke-width="2"/><path d="m35 18.9c2.7-1.9 6.7-0.9 8.9 2.3" stroke-width="2"/><path d="m22.8 19.9c-1.5-1.6-8.5-4.1-9.8 4.2" stroke-width="2"/><path d="M27,6c-1-1-2-1-3-1c-1.6,0-2.7,1.4-3.4,2.7C20,9,20,11,22,11.7c1.3,0.5,3.1,0.7,4.2,1.6c1.5,1.2,1.5,3.4,1.5,4.9" stroke-width="2"/><path d="m34.9 10.5c0.7-0.1 2-0.2 2.8-2.3s-1.4-3.9-4.4-3.6-5 3.8-4.6 4.4" stroke-width="2"/><path d="m31.6 17.9c-1.3-2.9 5.7-3.5 6.5-5.6" stroke-width="2"/></g></svg>
