<?xml version="1.0" encoding="UTF-8"?>
<svg id="a" version="1.1" viewBox="0 0 72 72" xmlns="http://www.w3.org/2000/svg"><g id="b"><path d="m4 28.189c0-13.372 10.286-24.212 23.836-24.212-12.836 15.366-1.5865 39.744 28.564 37.586 4.2563-0.3047 8.9466-1.7777 12.593-3.7244v30.086c0 0.5583-0.4525 1.0108-1.0108 1.0109l-63.982 0.0217v-40.769" fill="#92D3F5"/><path d="m21.784 10.012c-3.8217 7.178-5.9507 21.128 6.5553 33.344 0 0 10.239 12.649 40.654 4.8847v-10.891s-11.106 7.5922-27.525 2.3384c-15.385-4.923-19.425-16.527-18.909-20.767 0.1825-1.4994 0.7878-6.0417 0.7878-6.0417s0.8388-3.0147 0.5454-3.801c-0.3396-0.9104-1.8341 0.4196-2.1078 0.9336z" fill="#61B2E4"/><path d="m44.857 9.7223c1.6744 1.9066 1.5785 4.7217-0.2101 6.2925s-4.5959 1.2984-6.2703-0.6082c0 0-2.0702-2.2858-3.0178-8.8759 0 0-0.2509-1.3199 0.9788-0.9606 6.4126 1.7907 8.5194 4.1522 8.5194 4.1522" fill="#92D3F5"/><path d="m35.41 6.0551c4.3534-0.5992 9.1662 3.3883 9.1662 3.3883 2.1331 2.429 1.859 5.0003 0.0704 6.571-1e-4 0-0.9978-5.4421-9.2366-9.9593" fill="#61B2E4"/></g><g id="c" fill="none" stroke="#000" stroke-linecap="round" stroke-linejoin="round" stroke-miterlimit="10"><path d="m4 27.833m0 40.125m64-20.062v20.062h-64v-40.125c0-14.686 9.579-23.833 23.836-23.836" stroke-width="2"/><path d="M68,37.5064C64.3533,39.4229,60.6563,40.7,56.4,41C26.25,43.125,15,19.125,27.8364,3.9969" stroke-width="2"/><path d="m68 47.896c-4.8333 2.6875-11.25 3.3715-19.016 2.9878-34.993-3.2582-37.603-36.5-21.148-46.887" stroke-width="2"/><path d="m44.857 9.7223c1.6744 1.9066 1.5785 4.7217-0.2101 6.2925s-4.5959 1.2984-6.2703-0.6082c0 0-2.0702-2.2858-3.0178-8.8759 0 0-0.2509-1.3199 0.9788-0.9606 6.4126 1.7907 8.5194 4.1522 8.5194 4.1522" stroke-width="1.9"/><path d="m63.875 63.278c-3.4238 0-3.4238-2.055-6.8475-2.055-3.4219 0-3.4219 2.055-6.8438 2.055-3.4249 0-3.4249-2.055-6.8498-2.055-3.4272 0-3.4272 2.055-6.8545 2.055s-3.4272-2.055-6.8545-2.055" stroke-width="2"/></g></svg>
