<?xml version="1.0" encoding="UTF-8"?>
<svg id="a" viewBox="0 0 72 72" xmlns="http://www.w3.org/2000/svg"><g id="b"><g stroke="#000"><g fill="none" stroke-linecap="round" stroke-miterlimit="10" stroke-width="2"><path d="m41.773 19.473a7.2185 7.2185 0 0 1-5.695 9.864"/><path d="m41.773 19.473a6.0541 6.0541 0 0 1-5.695 9.864"/></g><polygon points="22 22.381 23.854 23.706 23.166 21.533 25 20.18 22.721 20.073 22 18 21.279 20.162 19 20.18 20.834 21.533 20.146 23.706" stroke-linejoin="round" stroke-width="2"/><polygon points="27 32.46 27.618 32.902 27.389 32.178 28 31.727 27.24 31.721 27 31 26.76 31.721 26 31.727 26.611 32.088 26.382 32.902" stroke-linejoin="round" stroke-width=".75"/><polygon points="51.5 26.337 52.427 27 52.083 25.913 53 25.237 51.86 25.138 51.5 24.147 51.14 25.228 50 25.237 50.917 25.913 50.573 27" stroke-linejoin="round"/></g></g><g id="c"><rect x="12" y="12" width="48" height="48" rx="1" fill="#1e50a0"/><g stroke="#f1b31c"><g fill="none" stroke-linecap="round" stroke-miterlimit="10" stroke-width="2"><path d="m41.773 19.473a7.2185 7.2185 0 0 1-5.695 9.864"/><path d="m41.773 19.473a6.0541 6.0541 0 0 1-5.695 9.864"/></g><polygon points="22 22.381 23.854 23.706 23.166 21.533 25 20.18 22.721 20.073 22 18 21.279 20.162 19 20.18 20.834 21.533 20.146 23.706" fill="#f1b31c" stroke-linejoin="round" stroke-width="2"/><polygon points="27 32.46 27.618 32.902 27.389 32.178 28 31.727 27.24 31.721 27 31 26.76 31.721 26 31.727 26.611 32.088 26.382 32.902" fill="#f1b31c" stroke-linejoin="round" stroke-width=".75"/><polygon points="51.5 26.337 52.427 27 52.083 25.913 53 25.237 51.86 25.138 51.5 24.147 51.14 25.228 50 25.237 50.917 25.913 50.573 27" fill="#f1b31c" stroke-linejoin="round"/></g></g><g id="d"><g fill="none" stroke="#000" stroke-width="2"><line x1="12.923" x2="59.077" y1="48.038" y2="48.038" stroke-linecap="round" stroke-miterlimit="10"/><line x1="24" x2="12" y1="36.962" y2="48.038" stroke-linecap="round" stroke-miterlimit="10"/><line x1="24" x2="24" y1="36.962" y2="60.038" stroke-miterlimit="10"/><line x1="48" x2="48" y1="60.038" y2="36.962" stroke-miterlimit="10"/><g stroke-miterlimit="10"><line x1="24" x2="16.615" y1="41.222" y2="48.038"/><line x1="24" x2="21.231" y1="45.482" y2="48.038"/></g><line x1="48" x2="36" y1="36.962" y2="48.038" stroke-linecap="round" stroke-miterlimit="10"/><g stroke-miterlimit="10"><line x1="48" x2="40.615" y1="41.222" y2="48.038"/><line x1="48" x2="45.231" y1="45.482" y2="48.038"/></g><line x1="24" x2="36" y1="36.962" y2="48.038" stroke-linecap="round" stroke-miterlimit="10"/><g stroke-miterlimit="10"><line x1="24" x2="31.385" y1="41.222" y2="48.038"/><line x1="24" x2="26.769" y1="45.482" y2="48.038"/></g><line x1="48" x2="60" y1="36.962" y2="48.038" stroke-linecap="round" stroke-miterlimit="10"/><g stroke-miterlimit="10"><line x1="48" x2="55.385" y1="41.222" y2="48.038"/><line x1="48" x2="50.769" y1="45.482" y2="48.038"/></g><rect x="12" y="12" width="48" height="48" rx="1" stroke-linejoin="round"/></g></g></svg>
