<svg xmlns="http://www.w3.org/2000/svg" id="a" viewBox="0 0 72 72"><g id="b"><rect width="64" height="64" x="3.9" y="4" fill="#fff"/><path fill="#d0cfce" d="M44.9,12.6a5.1017,5.1017,0,0,1-5,5.1H18.7a6.6143,6.6143,0,0,1-.6-13.2h0V4h18a7.096,7.096,0,0,1,1.6,3.9,5.3742,5.3742,0,0,1,2.1-.5h.3a4.2528,4.2528,0,0,1,1.1.2A5.2511,5.2511,0,0,1,44.9,12.6Z" transform="translate(0)"/><path fill="#fff" d="M68,14.8V30.3h0l-.1.1a9.59,9.59,0,0,1-5.4,1.7H31.2a7.3335,7.3335,0,1,1,1.4-14.6,10.548,10.548,0,0,1,2.4.6A9.57,9.57,0,0,1,44.9,9a10.6351,10.6351,0,0,1,4.3,1.2,7.3416,7.3416,0,0,1,9.7-3.9,7.4385,7.4385,0,0,1,4.5,6.8h0c.3,0,.5.1.8.1a4.3311,4.3311,0,0,1,.5.1h.1a.3674.3674,0,0,1,.3.1,6.3729,6.3729,0,0,0,.7.2c.2.1.5.2.7.3a5.9683,5.9683,0,0,1,1.5.9Z" transform="translate(0)"/><path fill="#d0cfce" d="M40.7,25.8a8.5239,8.5239,0,0,1-.3,2.3,8.34,8.34,0,0,1-4.7,5.2c-.2.1-.4.1-.6.2a7.267,7.267,0,0,1-2.5.4L3.9,35.7V5.1a16.3523,16.3523,0,0,1,2.2-.2,8.1876,8.1876,0,0,1,7.5,5,10.4917,10.4917,0,0,1,14.3,3.9c.1.2.2.3.3.5a10.4853,10.4853,0,0,1,1.1,4.2,7.9741,7.9741,0,0,1,10.7,4,6.3562,6.3562,0,0,1,.6,1.8c.1.3.1.7.2,1A.7494.7494,0,0,0,40.7,25.8Z" transform="translate(0)"/><path fill="#d0cfce" d="M68,27.5V46a9.0337,9.0337,0,0,1-2.8.4h-31a6.2792,6.2792,0,0,1-1.9-.3A7.4012,7.4012,0,0,1,27,37a8.03,8.03,0,0,1,1.5-2.9h0l.3-.3a7.5172,7.5172,0,0,1,8.5-1.7,9.764,9.764,0,0,1,10.1-9.2,10.6351,10.6351,0,0,1,4.3,1.2A7.4947,7.4947,0,0,1,66.1,27h0A13.3216,13.3216,0,0,1,68,27.5Z" transform="translate(0)"/><path fill="#fff" d="m3.9 40.2a9.9816 9.9816 0 0 0 5.3 1.6h30.8a7.5687 7.5687 0 0 0 1.5-0.1 6.4682 6.4682 0 0 0 1.3-0.4 7.6435 7.6435 0 0 0 3.5-2.9 8.4858 8.4858 0 0 0 1.1-2.6 7.24 7.24 0 0 0-0.6-4.6 2.1859 2.1859 0 0 0-0.3-0.5 7.3849 7.3849 0 0 0-9.5-3 9.5727 9.5727 0 0 0-9.6-9.1 10.145 10.145 0 0 0-5.1 1 6.6182 6.6182 0 0 0-6.5-4.3 7.6389 7.6389 0 0 0-3.3 0.8 7.45 7.45 0 0 0-4.1 6.6 8.7124 8.7124 0 0 0-4.4 1.6c-0.1-0.1-0.1 15.9-0.1 15.9z" transform="translate(0)"/><path fill="#fff" d="M64.1,32.5A5.7847,5.7847,0,0,1,68,34V52.9H45.5a5.1892,5.1892,0,0,1-2.7-.7h0l-.9-.6a5.8028,5.8028,0,0,1-2.1-4.4,3.75,3.75,0,0,1,.1-1.1,5.4058,5.4058,0,0,1,3-3.9,5.94,5.94,0,0,1,2.6-.7,3.4019,3.4019,0,0,1,1,.1,7.366,7.366,0,0,1,1.4.4,7.3065,7.3065,0,0,1,7.7-7,7.4871,7.4871,0,0,1,3.3,1A5.6624,5.6624,0,0,1,64.1,32.5Z" transform="translate(0)"/><rect width="7.2" height="42.1" x="32.5" y="9.3" fill="#ea5a47"/><rect width="4" height="27.1" x="44.8" y="23.8" fill="#ea5a47"/><rect width="3.8" height="27.2" x="55" y="33" fill="#ea5a47"/><path fill="#ea5a47" d="M68,39.2v7S54.9,35.5,50.9,31.5c-4.1-4.1-14.8-18.4-14.8-18.4l2.4-2.4s11,13.4,15,17.4C57.6,32.2,68,39.2,68,39.2Z" transform="translate(0)"/><rect width="3.8" height="27.3" x="23.1" y="23.6" fill="#ea5a47"/><rect width="3.8" height="26.6" x="13.2" y="33.2" fill="#ea5a47"/><path fill="#ea5a47" d="M3.9,39.9v6.9S17.1,35.2,21.1,31.2C25.2,27.1,35.9,13,35.9,13l-2.4-2.4S22.5,24,18.5,28C14.4,32.2,3.9,39.9,3.9,39.9Z" transform="translate(0)"/><path fill="#d0cfce" d="M21.3,57.8a6.6143,6.6143,0,0,1-.6-13.2h0a5.1215,5.1215,0,0,1,5.1-5.1,5.022,5.022,0,0,1,4.7,3.1,6.5748,6.5748,0,0,1,9,2.5,7.5019,7.5019,0,0,1,.9,3,5.123,5.123,0,1,1,4.3,9.3,5.3742,5.3742,0,0,1-2.1.5Z" transform="translate(0)"/><path fill="#d0cfce" d="M68,47.9V68H31l.1-6.5a6.9591,6.9591,0,0,1,1.1-3.7,1.38,1.38,0,0,1,.3-.4,7.4331,7.4331,0,0,1,3.8-2.7h.2c.1,0,.3-.1.4-.1a.6012.6012,0,0,0,.4-.1h.9a7.1732,7.1732,0,0,1,2.9.6,10.0387,10.0387,0,0,1,.4-2.4,4.1792,4.1792,0,0,1,.4-1,9.2017,9.2017,0,0,1,5.5-4.9,9.54,9.54,0,0,1,7.4.7,7.134,7.134,0,0,1,9.3-3.8A7.3349,7.3349,0,0,1,68,47.9Z" transform="translate(0)"/><path fill="#fff" d="M3.9,51.2V68h27A6.5238,6.5238,0,0,0,33,66.4a6.4522,6.4522,0,0,0-.2-8.7,1.7556,1.7556,0,0,0-.5-.4,6.2582,6.2582,0,0,0-6.8-.9,8.7923,8.7923,0,0,0-1-3.6,8.16,8.16,0,0,0-7.2-4.2,8.6862,8.6862,0,0,0-4.1,1.1,6.3213,6.3213,0,0,0-5.9-3.9,6.0618,6.0618,0,0,0-3.5,1.1" transform="translate(0)"/></g><g id="c" fill="none" stroke="#000" stroke-linecap="round" stroke-linejoin="round" stroke-width="2"><path d="m66.4 13.9a10.889 10.889 0 0 0-3.1-0.8 7.3951 7.3951 0 0 0-14.2-2.9 8.6841 8.6841 0 0 0-4.7-1.2" transform="translate(0)"/><path d="m6.2 4.9a8.1876 8.1876 0 0 1 7.5 5 10.457 10.457 0 0 1 13.2 2.4" transform="translate(0)"/><path d="m53.3 22.7a7.0982 7.0982 0 0 1 10-0.4 6.8219 6.8219 0 0 1 2.3 5.2" transform="translate(0)"/><polyline points="33.4 38 33.4 9.3 38.7 9.3 38.7 39.4"/><line x1="45.8" x2="45.8" y1="24.7" y2="43.2"/><path d="m60.2 38.6c-3.3-2.7-6.9-5.8-8.8-7.7-2.8-2.8-8.9-10.1-12.5-14.4" transform="translate(0)"/><path d="m38.7 10.9s10.8 13.2 14.8 17.2c4.1 4.1 13.3 11.5 13.3 11.5" transform="translate(0)"/><line x1="24.1" x2="24.1" y1="36" y2="27"/><line x1="56" x2="56" y1="41.4" y2="35.2"/><line x1="14.2" x2="14.2" y1="44.7" y2="37.1"/><path d="m9.7 40.5c3.1-2.6 8.2-7 10.9-9.7 2.8-2.8 9-10.1 12.6-14.4" transform="translate(0)"/><path d="M33.3,11S22.5,24.1,18.5,28.2c-4.1,4-13.2,11.7-13.2,11.7" transform="translate(0)"/><path d="m18.3 45.3a4.1956 4.1956 0 0 1 2.4-0.7 5.1215 5.1215 0 0 1 5.1-5.1 5.022 5.022 0 0 1 4.7 3.1 6.5748 6.5748 0 0 1 9 2.5 7.5019 7.5019 0 0 1 0.9 3" transform="translate(0)"/><path d="M33.1,66.4a6.4522,6.4522,0,0,0-.2-8.7,1.7556,1.7556,0,0,0-.5-.4,6.2582,6.2582,0,0,0-6.8-.9,8.7923,8.7923,0,0,0-1-3.6,8.16,8.16,0,0,0-7.2-4.2,8.6862,8.6862,0,0,0-4.1,1.1,6.3213,6.3213,0,0,0-5.9-3.9,5.867,5.867,0,0,0-2.3.4" transform="translate(0)"/><path d="M36.3,54.7h.2c.1,0,.3-.1.4-.1a.6012.6012,0,0,0,.4-.1h.9a7.1732,7.1732,0,0,1,2.9.6,10.0387,10.0387,0,0,1,.4-2.4,4.1792,4.1792,0,0,1,.4-1,9.2017,9.2017,0,0,1,5.5-4.9,9.54,9.54,0,0,1,7.4.7,7.134,7.134,0,0,1,9.3-3.8,6.3419,6.3419,0,0,1,2.3,1.6" transform="translate(0)"/><path d="M21.6,19.9a7.36,7.36,0,0,0-6.5-4.4,6.9629,6.9629,0,0,0-2.5.5h0A7.1086,7.1086,0,0,0,8,22.6H8a4.5292,4.5292,0,0,0-1.6.3,4.15,4.15,0,0,0-1.3.7" transform="translate(0)"/></g></svg>