<?xml version="1.0" encoding="UTF-8"?>
<svg id="a" viewBox="0 0 72 72" xmlns="http://www.w3.org/2000/svg"><g id="b"><rect x="4" y="3.9853" width="64" height="64" fill="#8967aa"/><polyline points="9.923 45.944 9.923 28.944 19.923 28.944 19.923 45.944" fill="#9b9b9a"/><rect x="33.923" y="32.944" width="13" height="35.041" fill="#9b9b9a"/><polyline points="50.923 67.985 50.923 36.944 66.923 36.944 66.923 67.985" fill="#d0cfce"/><polyline points="4.923 67.985 4.923 45.944 38.923 45.944 38.923 67.985" fill="#d0cfce"/><rect x="8.9231" y="48.948" width="2.9913" height="5.9965" fill="#fcea2b"/><rect x="14.923" y="48.948" width="2.9913" height="5.9965" fill="#fcea2b"/><rect x="26.923" y="48.948" width="2.9913" height="5.9965" fill="#fcea2b"/><rect x="32.923" y="48.948" width="2.9913" height="5.9965" fill="#fcea2b"/><rect x="54.923" y="39.948" width="2.9913" height="5.9965" fill="#fcea2b"/><rect x="60.923" y="49.948" width="2.9913" height="5.9965" fill="#fcea2b"/><rect x="60.923" y="59.948" width="2.9913" height="5.9965" fill="#fcea2b"/><rect x="54.923" y="59.948" width="2.9913" height="5.9965" fill="#fcea2b"/><rect x="32.923" y="58.948" width="2.9913" height="5.9965" fill="#fcea2b"/><rect x="20.923" y="58.948" width="2.9913" height="5.9965" fill="#fcea2b"/><rect x="8.9231" y="58.948" width="2.9913" height="5.9965" fill="#fcea2b"/><circle cx="22" cy="20.842" r="2" fill="#fcea2b"/><circle cx="34" cy="25.842" r="2" fill="#fcea2b"/><circle cx="33" cy="14.842" r="2" fill="#fcea2b"/><circle cx="14" cy="10.842" r="2" fill="#fcea2b"/><path d="M56,25.8424c-.4838.5267-9.016-2.3975-9-9,.0107-4.4,3.813-8.5541,9-9a22.1374,22.1374,0,0,0-2.0783,2.0869A10.4512,10.4512,0,0,0,51,16.8424c.0634,2.8883,1.7575,5.2225,3.1609,6.7968C55.262,24.8744,56.1843,25.6419,56,25.8424Z" fill="#fcea2b"/></g><g id="c" fill="none" stroke="#000" stroke-linecap="round" stroke-linejoin="round" stroke-width="2"><polyline points="50.923 66.944 50.923 36.944 66.923 36.944 66.923 66.944"/><polyline points="4.923 66.944 4.923 45.944 38.923 45.944 38.923 66.944"/><polyline points="34.923 42.944 34.923 32.944 46.923 32.944 46.923 66.944"/><polyline points="10.923 42.944 10.923 28.944 18.923 28.944 18.923 42.944"/><polyline points="56.923 45.944 54.923 45.944 54.923 40.944"/><polyline points="62.923 55.944 60.923 55.944 60.923 50.944"/><polyline points="28.923 54.944 26.923 54.944 26.923 49.944"/><polyline points="34.923 54.944 32.923 54.944 32.923 49.944"/><polyline points="34.923 64.944 32.923 64.944 32.923 59.944"/><polyline points="16.923 54.944 14.923 54.944 14.923 49.944"/><polyline points="10.923 54.944 8.923 54.944 8.923 49.944"/><polyline points="10.923 64.944 8.923 64.944 8.923 59.944"/><polyline points="22.923 64.944 20.923 64.944 20.923 59.944"/><polyline points="56.923 65.944 54.923 65.944 54.923 60.944"/><polyline points="62.923 65.944 60.923 65.944 60.923 60.944"/><line x1="14.923" x2="14.923" y1="31.944" y2="42.944"/><line x1="38.923" x2="38.923" y1="35.944" y2="42.944"/><line x1="42.923" x2="42.923" y1="35.944" y2="66.944"/><path d="m14 12.842a2 2 0 0 1 0-4"/><path d="m22 22.842a2 2 0 0 1 0-4"/><path d="m33 16.842a2 2 0 1 1 0-4"/><path d="m34 27.842a2 2 0 0 1 0-4"/><path d="M56,25.8424c-.4838.5267-9.016-2.3975-9-9,.0107-4.4,3.813-8.5541,9-9a22.1374,22.1374,0,0,0-2.0783,2.0869A10.4512,10.4512,0,0,0,51,16.8424c.0634,2.8883,1.7575,5.2225,3.1609,6.7968C55.262,24.8744,56.1843,25.6419,56,25.8424Z"/></g></svg>
