<?xml version="1.0" encoding="UTF-8"?>
<svg id="a" viewBox="0 0 72 72" xmlns="http://www.w3.org/2000/svg"><g id="b"><rect x="4.0003" y="47.292" width="64" height="20.787" fill="#61b2e4"/><rect x="4.0003" y="4.079" width="64" height="43.213" fill="#e27022"/><polyline points="68 4.079 60 4.079 44 35.079 48 38.079 65 18.079 68 14.848" fill="#f4aa41"/><polygon points="4 17.641 6.019 19.554 24.55 38.145 28.3 34.837 9 4.079 4 4.079" fill="#f4aa41"/><polyline points="30.879 4.079 33.348 32.454 38.331 32.866 42.08 6.886 42.566 4.079" fill="#f4aa41"/><polyline points="68 34.719 46.068 41.718 46.775 46.668 68 44.947" fill="#f4aa41"/><polyline points="4 34.899 25.933 41.898 25.226 46.848 4 45.127" fill="#f4aa41"/><path d="m21.48 47.292a15.679 15.679 0 1 1 29.04 6e-4" fill="#fcea2b"/><polygon points="67.964 24.049 68 47.292 49.932 47.292 55.019 37.008 58.641 33.433 59.643 27.783 60.927 24.904" fill="#fff"/><polygon points="4.037 24.049 4 47.292 21.48 47.292 18.327 36.079 14.848 32.091 14.967 28.846 11.073 24.904" fill="#fff"/></g><g id="c" fill="none" stroke="#000" stroke-linecap="round" stroke-miterlimit="10" stroke-width="2"><path d="m8.48 32.188a7.7528 7.7528 0 0 1 9.8478 4.82"/><path d="m5 24.026a7.7528 7.7528 0 0 1 9.8478 4.82"/><path d="m54.475 40.583a7.7527 7.7527 0 0 1 8.3317-7.127"/><path d="m58.641 30.756a7.7529 7.7529 0 0 1 8.3317-7.1271"/><line x1="5.1239" x2="66.877" y1="47.293" y2="47.293"/><path d="m20.49 43.963a15.679 15.679 0 1 1 30.775 0.2534"/></g></svg>
