<?xml version="1.0" encoding="UTF-8"?>
<svg id="a" viewBox="0 0 72 72" xmlns="http://www.w3.org/2000/svg"><g id="b"><path d="m35.99 7c14.625 0 29.01 11.583 29.01 28.958 0 16-12.751 29.042-29.01 29.042-13.844 0-26.067-9.3958-26.067-23.884 0-10.406 8.4357-18.842 18.842-18.842 8.3247 0 15.073 6.7485 15.073 15.073 0 6.6598-5.3988 12.059-12.059 12.059-5.3278 0-9.6469-4.3191-9.6469-9.6469 0-4.2623 3.4552-7.7175 7.7175-7.7175 3.4098 0 6.174 2.7642 6.174 6.174 0 2.7278-2.2114 4.9392-4.9392 4.9392-2.1823 0-3.9578-1.7691-3.9514-3.9514 0.0053-1.8015 1.213-2.8736 2.8239-2.4426 0.2681 0.0717 0.6559 0.2764 0.9406 0.633 0.3572 0.4473 0.4259 0.9031 0.4636 1.3122" fill="none" stroke="#000" stroke-linecap="round" stroke-linejoin="round" stroke-width="2"/></g></svg>
