<?xml version="1.0" encoding="UTF-8"?>
<svg id="a" viewBox="0 0 72 72" xmlns="http://www.w3.org/2000/svg"><g id="b"><circle cx="36" cy="36" r="28" fill="#3f3f3f" stroke="#3f3f3f" stroke-linecap="round" stroke-linejoin="round" stroke-width="2"/><path d="m29 62c20.003 0 16.663-52 16.663-52s24.958 7 16.639 35-48.901 17-33.302 17z" opacity=".4" stroke="#000" stroke-miterlimit="10" stroke-width=".204"/><circle cx="26.5" cy="27.5" r="5" fill="#fff" stroke-linecap="round" stroke-linejoin="round"/><circle cx="45.5" cy="27.5" r="5" fill="#fff"/></g><g id="c" stroke="#000" stroke-linecap="round" stroke-linejoin="round"><rect x="34" y="37" width="4" height="2" stroke-width=".25"/><path d="m36 64a28 28 0 0 1 0-56" fill="none" stroke-width="2"/><path d="m36 8a28 28 0 0 1 0 56" fill="none" stroke-width="2"/><path d="m36 39.5c1.1046 0 2.5-0.8954 2.5-2h-4.5a2 2 0 0 0 2 2z" fill="none" stroke-width="2"/><path d="m26.92 45.92s3.705 3.389 9.652 3.771c6.942 0.3136 10.42-3.695 10.42-3.695" fill="none" stroke-width="2"/><circle cx="26.5" cy="27.5" r="5" fill="none" stroke-width="2"/><circle cx="45.5" cy="27.5" r="5" fill="none" stroke-width="2"/><circle cx="45.5" cy="27.5" r="5" fill="none"/><circle cx="47.75" cy="27.75" r="1.75" stroke-width="2"/><circle cx="26.5" cy="27.5" r="5" fill="none"/><circle cx="28.75" cy="27.75" r="1.75" stroke-width="2"/></g></svg>
