<?xml version="1.0" encoding="UTF-8"?>
<svg id="a" viewBox="0 0 72 72" xmlns="http://www.w3.org/2000/svg"><g id="b"><path d="m7.3634 42.41c4.5525 6.1703 11.874 10.173 20.13 10.173 13.807 0 25-11.193 25-25 0-8.5226-4.2646-16.049-10.776-20.562 13.038 2.8385 22.781 14.443 22.781 28.332 0 16.016-12.984 29-29 29-13.588 0-24.989-9.3288-28.135-21.942z" fill="#FCEA2B"/><path d="m45.837 9.2108c8.25 4.25 16.195 11.872 16.195 24.674 0 15.449-12.524 27.974-27.974 27.974-9.2431 0-19.752-4.8353-24.294-15.544 0 0 4.3805 18.657 25.719 18.665 19.327 0.0074 28.042-20.622 28.042-20.622 6.5078-31.977-17.688-35.147-17.688-35.147z" fill="#F1B31C"/></g><g id="c"><path d="m7.3634 42.41c4.5525 6.1703 11.874 10.173 20.13 10.173 13.807 0 25-11.193 25-25 0-8.5226-4.2646-16.049-10.776-20.562 13.038 2.8385 22.781 14.443 22.781 28.332 0 16.016-12.984 29-29 29-13.588 0-24.989-9.3288-28.135-21.942z" fill="none" stroke="#000" stroke-linecap="round" stroke-linejoin="round" stroke-miterlimit="10" stroke-width="2"/></g></svg>
