<svg xmlns="http://www.w3.org/2000/svg" id="a" viewBox="0 0 72 72"><g id="b"><polygon fill="#FCEA2B" points="36 10 31.448 4.322 28.671 11.046 22.701 6.886 21.944 14.123 15.043 11.817 16.349 18.975 9.078 18.696 12.342 25.198 5.289 26.983 10.262 32.295 4 36 10.262 39.705 5.289 45.017 12.343 46.803 9.079 53.305 16.35 53.026 15.044 60.184 21.944 57.878 22.703 65.114 28.671 60.954 31.448 67.678 36 62 40.552 67.678 43.329 60.954 49.299 65.114 50.056 57.877 56.957 60.183 55.651 53.025 62.922 53.304 59.658 46.802 66.711 45.017 61.738 39.705 68 36 61.738 32.295 66.711 26.983 59.657 25.197 62.921 18.695 55.65 18.974 56.956 11.816 50.056 14.122 49.297 6.886 43.329 11.046 40.552 4.322"/></g><g id="c"><polygon fill="none" stroke="#000" stroke-linecap="round" stroke-linejoin="round" stroke-miterlimit="10" stroke-width="2" points="36 10 31.448 4.322 28.671 11.046 22.701 6.886 21.944 14.123 15.043 11.817 16.349 18.975 9.078 18.696 12.342 25.198 5.289 26.983 10.262 32.295 4 36 10.262 39.705 5.289 45.017 12.343 46.803 9.079 53.305 16.35 53.026 15.044 60.184 21.944 57.878 22.703 65.114 28.671 60.954 31.448 67.678 36 62 40.552 67.678 43.329 60.954 49.299 65.114 50.056 57.877 56.957 60.183 55.651 53.025 62.922 53.304 59.658 46.802 66.711 45.017 61.738 39.705 68 36 61.738 32.295 66.711 26.983 59.657 25.197 62.921 18.695 55.65 18.974 56.956 11.816 50.056 14.122 49.297 6.886 43.329 11.046 40.552 4.322"/><circle cx="27.846" cy="33.789" r="3"/><circle cx="44.154" cy="33.789" r="3"/><path fill="none" stroke="#000" stroke-linecap="round" stroke-linejoin="round" stroke-miterlimit="10" stroke-width="2" d="m43.676 46.382c-2.1347 1.5846-4.8139 2.5518-7.6766 2.5518-2.9019 0-5.5262-0.9282-7.6759-2.5523"/><path fill="none" stroke="#000" stroke-linecap="round" stroke-linejoin="round" stroke-miterlimit="10" stroke-width="2" d="m31.775 23.004s-4.7748-2.6003-9.5496 1.6523"/><path fill="none" stroke="#000" stroke-linecap="round" stroke-linejoin="round" stroke-miterlimit="10" stroke-width="2" d="m40.225 23.004s4.7748-2.6003 9.5496 1.6523"/></g></svg>