<svg xmlns="http://www.w3.org/2000/svg" id="a" viewBox="0 0 72 72"><g id="b"><path fill="#FCEA2B" d="m44.042 51.455c0.4326 4.3927 3.0423 9.3581 10.892 14.313 0.7821 0.4938 0.5357 1.6732-0.3778 1.8182-1.7019 0.27-3.4469 0.4136-5.227 0.4136-18.077 0-32.731-14.327-32.731-32s14.654-32 32.731-32c1.7798 0 3.5246 0.1435 5.2263 0.4135 0.8258 0.131 1.1385 1.1617 0.5234 1.728-4.0365 3.7157-7.234 7.9623-9.4854 12.892-1.0597 2.3204-1.2184 4.9524-0.4059 7.3704 0.8325 2.4776 2.3223 5.7414 4.9173 8.5959 4.375 4.8125-3.5625 5.375-3.5625 5.375s-3.1458 0.5833-0.5 3.4375c1.161 1.2524 0.7912 1.964-0.1731 2.7025 3.2645 2.8612-1.8268 4.9399-1.8268 4.9399"/><path fill="#F1B31C" d="m54.038 4.3223c-1.7695-0.3033-3.2542-0.3223-5.1102-0.3223-17.673 0-32 14.327-32 32s14.327 32 32 32c1.719 0 3.4063-0.1355 5.0518-0.3965 0 0 0.6874-0.3097 0.7793-1.1742 0 0-3.0381 0.3419-4.6022 0.3419-16.994 0-30.771-13.777-30.771-30.771s13.777-30.771 30.771-30.771c1.6727 0 3.3142 0.1335 4.9145 0.3903"/></g><g id="c"><circle cx="36" cy="27.25" r="3"/><path fill="none" stroke="#000" stroke-linecap="round" stroke-linejoin="round" stroke-miterlimit="10" stroke-width="2" d="m44.344 51.455c0.4118 4.1818 2.7967 8.8825 9.7967 13.6 1.1555 0.7786 0.6786 2.5674-0.7056 2.7269-1.2478 0.1437-2.517 0.2188-3.8044 0.2188-18.077 0-32.731-14.327-32.731-32s14.654-32 32.731-32c1.4038 0 2.7859 0.0893 4.1422 0.2595 1.271 0.1595 1.7777 1.7021 0.8548 2.5905-3.6851 3.5471-6.6266 7.5692-8.7365 12.192-1.0567 2.3153-1.2149 4.9406-0.405 7.3533 0.832 2.4787 2.3222 5.7467 4.9203 8.6047 4.375 4.8125-3.5625 5.375-3.5625 5.375s-3.1458 0.5833-0.5 3.4375c1.161 1.2524 0.2761 2.4207-0.6881 3.1591-1.0432 0.7989-2.3329 1.1945-3.646 1.244-1.6313 0.0614-3.9551-0.2698-5.7064-2.2156m8.0405 5.4548s5.0913-2.0786 1.8269-4.9398"/><path fill="none" stroke="#000" stroke-linecap="round" stroke-linejoin="round" stroke-miterlimit="10" stroke-width="2" d="m40.781 19.875s-4.7812-3-9.5625 1.9062"/></g></svg>