<svg xmlns="http://www.w3.org/2000/svg" id="a" version="1.1" viewBox="0 0 72 72"><g id="b"><path fill="#FCEA2B" d="m27.958 51.455s-5.0913-2.0786-1.8269-4.9398c-0.9642-0.7385-1.334-1.4501-0.1731-2.7025 2.6458-2.8542-0.5-3.4375-0.5-3.4375s-7.9375-0.5625-3.5625-5.375c2.595-2.8546 4.0848-6.1183 4.9173-8.5959 0.8125-2.4181 0.6538-5.0501-0.4059-7.3704-2.2514-4.9298-5.4489-9.1764-9.4854-12.892-0.6151-0.5663-0.3024-1.597 0.5234-1.728 1.7018-0.2701 3.4466-0.4136 5.2264-0.4136 18.077 0 32.731 14.327 32.731 32s-14.654 32-32.731 32c-1.78 0-3.5251-0.1436-5.227-0.4136-0.9135-0.145-1.1599-1.3244-0.3778-1.8182 7.8492-4.9554 10.459-9.9207 10.892-14.313"/><path fill="#F1B31C" d="m17.962 4.3223c1.7695-0.3033 3.2542-0.3223 5.1102-0.3223 17.673 0 32 14.327 32 32s-14.327 32-32 32c-1.719 0-3.4063-0.1355-5.0518-0.3965 0 0-0.6874-0.3097-0.7793-1.1742 0 0 3.0381 0.3419 4.6022 0.3419 16.994 0 30.771-13.777 30.771-30.771s-13.777-30.771-30.771-30.771c-1.6727 0-3.3142 0.1335-4.9145 0.3903"/></g><g id="c"><circle cx="36" cy="27.25" r="3"/><path fill="none" stroke="#000" stroke-linecap="round" stroke-linejoin="round" stroke-miterlimit="10" stroke-width="2" d="m35.696 46c-1.7512 1.9458-4.0751 2.277-5.7064 2.2156-1.3131-0.0494-2.6027-0.445-3.646-1.244-0.9642-0.7385-1.8491-1.9067-0.6881-3.1591 2.7753-3.0819-0.5-3.4375-0.5-3.4375s-7.9375-0.5625-3.5625-5.375c2.5981-2.8579 4.0883-6.126 4.9203-8.6047 0.8098-2.4127 0.6517-5.0381-0.405-7.3533-2.1099-4.6228-5.0514-8.645-8.7365-12.192-0.9229-0.8884-0.4162-2.431 0.8548-2.5905 1.3563-0.1702 2.7384-0.2595 4.1422-0.2595 18.077 0 32.731 14.327 32.731 32s-14.654 32-32.731 32c-1.2874 0-2.5566-0.0751-3.8043-0.2188-1.3842-0.1595-1.8611-1.9482-0.7056-2.7269 7-4.717 9.3849-9.4177 9.7967-13.6m-1.8269-4.9398c-3.2644 2.8612 1.8269 4.9398 1.8269 4.9398"/><path fill="none" stroke="#000" stroke-linecap="round" stroke-linejoin="round" stroke-miterlimit="10" stroke-width="2" d="m31.219 19.875s4.7812-3 9.5625 1.9062"/></g></svg>