<?xml version="1.0" encoding="UTF-8"?>
<svg id="a" viewBox="0 0 72 72" xmlns="http://www.w3.org/2000/svg"><g id="b"><path d="m49.452 44.876a1.5009 1.5009 0 0 0 0-3 1.5009 1.5009 0 0 0 0 3z" fill="#fcea2b"/><path d="M64,36A28,28,0,0,0,36,8V64A28,28,0,0,0,64,36Z" fill="#fcea2b" stroke="#fcea2b" stroke-linecap="round" stroke-linejoin="round" stroke-width="2"/><path d="M8,36A28,28,0,0,0,36,64V8A28,28,0,0,0,8,36Z" fill="#3f3f3f" stroke="#3f3f3f" stroke-linecap="round" stroke-linejoin="round" stroke-width="2"/></g><g id="c" fill="none" stroke="#000" stroke-linecap="round" stroke-linejoin="round" stroke-width="2"><circle cx="36" cy="36" r="28"/><path d="M64,36A28,28,0,0,0,36,8V64A28,28,0,0,0,64,36Z"/></g></svg>
