<svg xmlns="http://www.w3.org/2000/svg" id="a" viewBox="0 0 72 72"><g id="b" fill="#FCEA2B"><polygon points="35.97 6.037 27.769 22.67 9.417 25.344 22.702 38.284 19.574 56.564 35.986 47.928 52.404 56.552 49.263 38.274 62.538 25.324 44.184 22.664"/><polygon points="14.164 41.459 4.859 42.036 6.476 46.733"/><polygon points="57.836 40.979 67.141 41.556 65.524 46.253"/><polygon points="22.072 15.592 18.648 6.921 14.681 9.91"/><polygon points="50.4 16.086 57.985 10.666 54.125 7.54"/><polygon points="35.92 56.978 33.436 65.963 38.403 65.963"/></g><g id="c" fill="none" stroke="#000" stroke-linecap="round" stroke-linejoin="round" stroke-miterlimit="10" stroke-width="2"><polygon points="35.925 6.037 27.723 22.67 9.371 25.344 22.656 38.284 19.528 56.564 35.94 47.928 52.359 56.552 49.217 38.274 62.493 25.324 44.139 22.664"/><polygon points="35.932 56.978 33.448 65.963 38.416 65.963"/><polygon points="57.816 41.078 65.594 46.217 67.129 41.493"/><polygon points="14.176 41.459 4.871 42.036 6.489 46.733"/><polygon points="50.412 16.086 57.997 10.666 54.137 7.54"/><polygon points="22.084 15.592 18.66 6.921 14.693 9.91"/></g></svg>