<svg xmlns="http://www.w3.org/2000/svg" id="a" viewBox="0 0 72 72"><g id="b"><path fill="#f4aa41" d="m48.637 13.465c-1.9512-1.9531-5.1172-1.9531-7.0703 0l-28.102 28.1c-1.9531 1.9531-1.9531 5.1191-0.0019 7.0712l9.9004 9.8995c1.9531 1.9531 5.1191 1.9531 7.0703 0l28.104-28.1c1.9512-1.9531 1.9512-5.1191 0-7.0712l-9.9004-9.8995z"/><path fill="#ea5a47" d="m20.535 58.535c-1.9532 1.9531-5.1192 1.9531-7.0723 0-1.9512-1.9522-1.9512-5.1182 0-7.0704l38.002-38c1.9532-1.9531 5.1192-1.9531 7.0723 0 1.9512 1.9522 1.9512 5.1182 0 7.0704l-38.002 38z"/></g><g id="c" fill="none" stroke="#000" stroke-linecap="round" stroke-linejoin="round" stroke-miterlimit="10" stroke-width="2"><path d="m27 45.001c0 1.6562-1.3437 3.001-3.001 3.001-1.6572 0-2.999 1.3437-3 3"/><path d="m39.002 33c0 1.6563-1.3438 3-3.002 3-1.6562 0-2.999 1.3438-3 3"/><path d="m33 39c0 1.6563-1.3418 3.001-3 3-1.6572 0-3 1.3447-3 3.001"/><path d="m45.002 26.998c0 1.6573-1.3418 3.002-3 3.001-1.6582 0-3 1.3448-3 3.001"/><path d="m51.002 20.998c0 1.6563-1.3418 3-3 3-1.6563 0-3 1.3448-3 3"/><path d="m20.535 58.535c-1.9532 1.9531-5.1192 1.9531-7.0723 0-1.9512-1.9522-1.9512-5.1182 0-7.0704l38.002-38c1.9532-1.9531 5.1192-1.9531 7.0723 0 1.9512 1.9522 1.9512 5.1182 0 7.0704l-38.002 38z"/><path d="m50.051 14.879-1.4141-1.4141c-1.9512-1.9531-5.1172-1.9531-7.0703 0l-28.102 28.1c-1.9531 1.9531-1.9531 5.1191-0.0019 7.0712l1.416 1.4151"/><path d="m21.949 57.121 1.4141 1.4141c1.9531 1.9531 5.1191 1.9531 7.0703 0l28.104-28.1c1.9512-1.9531 1.9512-5.1191 0-7.0712l-1.4141-1.4151"/></g></svg>