<svg xmlns="http://www.w3.org/2000/svg" id="a" viewBox="0 0 72 72"><g id="b"><path fill="#FCEA2B" d="m31.083 42.882-3.7893 6.7541c-0.2732 0.2863-0.0517 0.7346 0.3629 0.7346h8.4435l-5.845 9.2144c-0.3172 0.5 0.3444 1.0389 0.7699 0.6271l13.669-13.227c0.2916-0.2821 0.0737-0.7475-0.35-0.7475h-8.1735l1.5388-3.3558-6.6263-1e-4z"/><path fill="#d0cfce" d="m19.279 22.469c-0.031 0.3535-0.3174 0.6396-0.6721 0.6775-4.2996 0.4607-7.6066 4.6943-7.6066 9.8475 0 5.4608 3.7871 9.8877 8.4588 9.8877h32.248c5.1325 0 9.2932-4.6783 9.2932-10.449 0-5.5305-3.8212-10.058-8.6569-10.425-0.37-0.0281-0.67-0.2871-0.7406-0.6494-1.0803-5.5472-6.0636-9.7159-11.955-9.7159-3.829 0-7.2399 1.7335-9.4549 4.4912-0.2164 0.2695-0.5797 0.3929-0.8992 0.2589-0.8523-0.3575-1.7525-0.5304-2.7597-0.5304-3.8062 0-6.9303 2.9047-7.2547 6.6072z"/></g><g id="c" fill="none" stroke="#000" stroke-linecap="round" stroke-linejoin="round" stroke-miterlimit="10"><path stroke-width="2" d="m19.279 22.469c-0.031 0.3535-0.3174 0.6396-0.6721 0.6775-4.2996 0.4607-7.6066 4.6943-7.6066 9.8475 0 5.4608 3.7871 9.8877 8.4588 9.8877h32.248c5.1325 0 9.2932-4.6783 9.2932-10.449 0-5.5305-3.8212-10.058-8.6569-10.425-0.37-0.0281-0.67-0.2871-0.7406-0.6494-1.0803-5.5472-6.0636-9.7159-11.955-9.7159-3.829 0-7.2399 1.7335-9.4549 4.4912-0.2164 0.2695-0.5797 0.3929-0.8992 0.2589-0.8523-0.3575-1.7525-0.5304-2.7597-0.5304-3.8062 0-6.9303 2.9047-7.2547 6.6072z"/><path stroke-width="1.8" d="m31.083 42.882-3.7893 6.7541c-0.2732 0.2863-0.0517 0.7346 0.3629 0.7346h8.4435l-5.845 9.2144c-0.3172 0.5 0.3444 1.0389 0.7699 0.6271l13.669-13.227c0.2916-0.2821 0.0737-0.7475-0.35-0.7475h-8.1735l1.5388-3.3558-6.6263-1e-4z"/></g></svg>