<svg xmlns="http://www.w3.org/2000/svg" id="a" viewBox="0 0 72 72"><g id="b"><path fill="#FCEA2B" d="m16.688 38.812c-5.9636-2.8537-9.8014-10.126-7.9817-14.119 1.8669-4.0966 6.9504-9.1 13.822-6.7149s7.1253 9.0835 7.1253 9.0835l-0.6534 2.8865 7.7946-6.3607-8.6767-1.8829 1.6659-7.9764-7.2087 3.8044-3.3356-7.4372-3.595 7.3181-7.0724-4.0568 1.3934 8.0309-8.1037 0.8768 5.8413 5.6814-6.0359 5.473 8.0643 1.162-0.7296 8.5369 7.6861-4.3059z"/><path fill="#FCEA2B" d="m29.653 27.062c-0.5423-5.4473-5.1387-9.7012-10.729-9.7012-5.9549 0-10.782 4.8274-10.782 10.782 0 4.2822 2.4963 7.9814 6.1131 9.7216l2.4324 0.9475 3.8509-0.4005 2.0033-5.0787 5.171-3.2083 1.6317-0.4575 0.3085-2.6051z"/><path fill="#fff" stroke-linecap="round" stroke-linejoin="round" stroke-miterlimit="10" stroke-width="2" d="m20.963 37.749c-0.0366 0.4183-0.3756 0.7568-0.7953 0.8018-5.0879 0.545-9.0012 5.5548-9.0012 11.653 0 6.462 4.4814 11.7 10.01 11.7h38.16c6.0734 0 10.997-5.536 10.997-12.365 0-6.5444-4.5218-11.901-10.244-12.336-0.4378-0.0333-0.7928-0.3397-0.8763-0.7685-1.2783-6.5642-7.1753-11.497-14.147-11.497-4.531 0-8.5673 2.0513-11.188 5.3146-0.2561 0.3189-0.686 0.465-1.0641 0.3064-1.0086-0.423-2.0738-0.6277-3.2657-0.6277-4.5039 0-8.2008 3.4372-8.5846 7.8185z"/></g><g id="c" fill="none" stroke="#000" stroke-linecap="round" stroke-linejoin="round" stroke-miterlimit="10"><polyline stroke-width="1.9" points="11.265 40.762 8.065 42.558 9.731 34.582 1.667 33.42 7.702 27.947 1.861 22.265 9.965 21.388 8.572 13.357 15.644 17.414 19.239 10.096 22.575 17.533 29.783 13.729 28.117 21.705 36.182 22.867 33.258 25.25"/><path stroke-width="1.9" d="m14.255 37.865c-3.6168-1.7402-6.1131-5.4394-6.1131-9.7216 0-5.9549 4.8274-10.782 10.782-10.782 5.59 0 10.186 4.2539 10.729 9.7012"/><path stroke-width="2" d="m20.963 37.749c-0.0366 0.4183-0.3756 0.7568-0.7953 0.8018-5.0879 0.545-9.0012 5.5548-9.0012 11.653 0 6.462 4.4814 11.7 10.01 11.7h38.16c6.0734 0 10.997-5.536 10.997-12.365 0-6.5444-4.5218-11.901-10.244-12.336-0.4378-0.0333-0.7928-0.3397-0.8763-0.7685-1.2783-6.5642-7.1753-11.497-14.147-11.497-4.531 0-8.5673 2.0513-11.188 5.3146-0.2561 0.3189-0.686 0.465-1.0641 0.3064-1.0086-0.423-2.0738-0.6277-3.2657-0.6277-4.5039 0-8.2008 3.4372-8.5846 7.8185z"/></g></svg>