<svg xmlns="http://www.w3.org/2000/svg" id="a" viewBox="0 0 72 72"><g id="b"><path fill="#FCEA2B" d="m51.058 42.483 0.0966-0.3192c0.9466-3.1267 0.787-7.2348-0.3992-10.279l5.8871-8.2718-10.44 0.7617 0.8096-11.095-9.2068 6.2396-4.8557-10.005-4.8554 10.005-9.2064-6.2399 0.8095 11.095-11.095-0.8096 6.2396 9.2068-10.005 4.8557 10.005 4.8554-6.2399 9.2064 11.095-0.8095-0.8096 11.095 9.2068-6.2396 22.964-13.252z"/><path fill="#fff" stroke-linecap="round" stroke-linejoin="round" stroke-miterlimit="10" stroke-width="2" d="m34.791 46.607c-0.0241 0.2749-0.2468 0.4973-0.5226 0.5268-3.3432 0.3581-5.9145 3.65-5.9145 7.6568 0 4.2461 2.9447 7.6882 6.5771 7.6882h25.074c3.9908 0 7.2259-3.6376 7.2259-8.1248 0-4.3002-2.9712-7.8202-6.7312-8.106-0.2877-0.0219-0.521-0.2232-0.5758-0.505-0.84-4.3132-4.7148-7.5546-9.2958-7.5546-2.9773 0-5.6294 1.3479-7.3517 3.4921-0.1683 0.2095-0.4507 0.3055-0.6992 0.2013-0.6627-0.2779-1.3626-0.4124-2.1458-0.4124-2.9594 2e-4 -5.3886 2.2587-5.6408 5.1376z"/></g><g id="c" fill="none" stroke="#000" stroke-linecap="round" stroke-linejoin="round" stroke-miterlimit="10" stroke-width="2"><path d="m24.464 53.52c-6.1162-2.9451-10.337-9.202-10.337-16.445 0-10.074 8.1669-18.241 18.241-18.241 9.0895 0 16.626 6.648 18.013 15.347"/><polyline points="24.547 56.982 18.563 61.025 19.358 50.132 8.465 50.927 14.591 41.888 4.769 37.122 14.591 32.354 8.465 23.316 19.358 24.11 18.564 13.218 27.602 19.344 32.369 9.521 37.136 19.344 46.174 13.218 45.38 24.111 56.272 23.316 50.146 32.355"/><path d="m34.791 46.607c-0.0241 0.2749-0.2468 0.4973-0.5226 0.5268-3.3432 0.3581-5.9145 3.65-5.9145 7.6568 0 4.2461 2.9447 7.6882 6.5771 7.6882h25.074c3.9908 0 7.2259-3.6376 7.2259-8.1248 0-4.3002-2.9712-7.8202-6.7312-8.106-0.2877-0.0219-0.521-0.2232-0.5758-0.505-0.84-4.3132-4.7148-7.5546-9.2958-7.5546-2.9773 0-5.6294 1.3479-7.3517 3.4921-0.1683 0.2095-0.4507 0.3055-0.6992 0.2013-0.6627-0.2779-1.3626-0.4124-2.1458-0.4124-2.9594 2e-4 -5.3886 2.2587-5.6408 5.1376z"/></g></svg>