<svg xmlns="http://www.w3.org/2000/svg" id="a" viewBox="0 0 72 72"><g id="b"><path fill="#92D3F5" d="m22.353 51.674c-0.7516 1.1632-2.1343 1.603-3.0902 0.9854-0.9559-0.6177-1.1216-2.0613-0.37-3.2245 0 0 0.8943-1.4257 4.0066-3.0386 0 0 0.6168-0.3534 0.5724 0.3205-0.1914 3.5001-1.1188 4.9572-1.1188 4.9572"/><path fill="#61B2E4" d="m22.812 46.538c0.5441 1.6504-0.7227 4.9495-0.7227 4.9495-0.9587 1.3692-2.1337 1.5027-3.1418 0.7967-1e-4 1e-4 2.7195-0.9711 3.8645-5.7462"/><path fill="#92D3F5" d="m52.457 51.674c-0.7516 1.1632-2.1343 1.603-3.0902 0.9854-0.9559-0.6177-1.1216-2.0613-0.37-3.2245 0 0 0.8943-1.4257 4.0066-3.0386 0 0 0.6168-0.3534 0.5724 0.3205-0.1914 3.5001-1.1188 4.9572-1.1188 4.9572"/><path fill="#61B2E4" d="m52.917 46.538c0.5441 1.6504-0.7227 4.9495-0.7227 4.9495-0.9587 1.3692-2.1337 1.5027-3.1418 0.7967-1e-4 1e-4 2.7195-0.9711 3.8645-5.7462"/><path fill="#92D3F5" d="m37.405 51.674c-0.7516 1.1632-2.1343 1.603-3.0902 0.9854-0.9559-0.6177-1.1216-2.0613-0.37-3.2245 0 0 0.8943-1.4257 4.0066-3.0386 0 0 0.6168-0.3534 0.5724 0.3205-0.1914 3.5001-1.1188 4.9572-1.1188 4.9572"/><path fill="#61B2E4" d="m37.864 46.538c0.5441 1.6504-0.7227 4.9495-0.7227 4.9495-0.9587 1.3692-2.1337 1.5027-3.1418 0.7967-1e-4 1e-4 2.7195-0.9711 3.8645-5.7462"/><path fill="#92D3F5" d="m29.379 59.245c-0.7516 1.1632-2.1343 1.603-3.0902 0.9854-0.9559-0.6177-1.1216-2.0613-0.37-3.2245 0 0 0.8943-1.4257 4.0066-3.0386 0 0 0.6168-0.3534 0.5724 0.3205-0.1914 3.5002-1.1188 4.9572-1.1188 4.9572"/><path fill="#61B2E4" d="m29.838 54.109c0.5441 1.6504-0.7227 4.9495-0.7227 4.9495-0.9587 1.3692-2.1337 1.5027-3.1418 0.7967 0 0 2.7195-0.9711 3.8645-5.7462"/><path fill="#92D3F5" d="m44.431 59.245c-0.7516 1.1632-2.1343 1.603-3.0902 0.9854s-1.1216-2.0613-0.37-3.2245c0 0 0.8943-1.4257 4.0066-3.0386 0 0 0.6168-0.3534 0.5724 0.3205-0.1914 3.5002-1.1188 4.9572-1.1188 4.9572"/><path fill="#61B2E4" d="m44.891 54.109c0.5441 1.6504-0.7227 4.9495-0.7227 4.9495-0.9587 1.3692-2.1337 1.5027-3.1418 0.7967-1e-4 0 2.7194-0.9711 3.8645-5.7462"/><path fill="#d0cfce" d="m19.279 22.317c-0.031 0.3535-0.3174 0.6396-0.6721 0.6775-4.2996 0.4606-7.6066 4.6943-7.6066 9.8475 0 5.4608 3.7871 9.8877 8.4588 9.8877h32.248c5.1325 0 9.2932-4.6783 9.2932-10.449 0-5.5305-3.8212-10.058-8.6569-10.425-0.37-0.0281-0.67-0.2871-0.7406-0.6494-1.0803-5.5472-6.0636-9.7159-11.955-9.7159-3.829 0-7.2399 1.7335-9.4549 4.4912-0.2164 0.2695-0.5797 0.3929-0.8992 0.2589-0.8523-0.3575-1.7525-0.5304-2.7597-0.5304-3.8062 0-6.9303 2.9047-7.2547 6.6072z"/></g><g id="c" fill="none" stroke="#000" stroke-linecap="round" stroke-linejoin="round" stroke-miterlimit="10"><path stroke-width="1.8" d="m22.353 51.674c-0.7516 1.1632-2.1343 1.603-3.0902 0.9854-0.9559-0.6177-1.1216-2.0613-0.37-3.2245 0 0 0.8761-1.5078 4.0066-3.0386 0 0 0.6168-0.3534 0.5724 0.3205-0.1914 3.5001-1.1188 4.9572-1.1188 4.9572"/><path stroke-width="1.8" d="m52.457 51.674c-0.7516 1.1632-2.1343 1.603-3.0902 0.9854-0.9559-0.6177-1.1216-2.0613-0.37-3.2245 0 0 0.8761-1.5078 4.0066-3.0386 0 0 0.6168-0.3534 0.5724 0.3205-0.1914 3.5001-1.1188 4.9572-1.1188 4.9572"/><path stroke-width="1.8" d="m37.405 51.674c-0.7516 1.1632-2.1343 1.603-3.0902 0.9854-0.9559-0.6177-1.1216-2.0613-0.37-3.2245 0 0 0.8761-1.5078 4.0066-3.0386 0 0 0.6168-0.3534 0.5724 0.3205-0.1914 3.5001-1.1188 4.9572-1.1188 4.9572"/><path stroke-width="1.8" d="m29.379 59.245c-0.7516 1.1632-2.1343 1.603-3.0902 0.9854-0.9559-0.6177-1.1216-2.0613-0.37-3.2245 0 0 0.8761-1.5078 4.0066-3.0386 0 0 0.6168-0.3534 0.5724 0.3205-0.1914 3.5002-1.1188 4.9572-1.1188 4.9572"/><path stroke-width="1.8" d="m44.431 59.245c-0.7516 1.1632-2.1343 1.603-3.0902 0.9854s-1.1216-2.0613-0.37-3.2245c0 0 0.8761-1.5078 4.0066-3.0386 0 0 0.6168-0.3534 0.5724 0.3205-0.1914 3.5002-1.1188 4.9572-1.1188 4.9572"/><path stroke-width="2" d="m19.279 22.317c-0.031 0.3535-0.3174 0.6396-0.6721 0.6775-4.2996 0.4606-7.6066 4.6943-7.6066 9.8475 0 5.4608 3.7871 9.8877 8.4588 9.8877h32.248c5.1325 0 9.2932-4.6783 9.2932-10.449 0-5.5305-3.8212-10.058-8.6569-10.425-0.37-0.0281-0.67-0.2871-0.7406-0.6494-1.0803-5.5472-6.0636-9.7159-11.955-9.7159-3.829 0-7.2399 1.7335-9.4549 4.4912-0.2164 0.2695-0.5797 0.3929-0.8992 0.2589-0.8523-0.3575-1.7525-0.5304-2.7597-0.5304-3.8062 0-6.9303 2.9047-7.2547 6.6072z"/></g></svg>