<svg xmlns="http://www.w3.org/2000/svg" id="a" viewBox="0 0 72 72"><g id="b"><ellipse cx="28.708" cy="23.311" fill="#ea5a47" rx="5.999" ry="5.999" transform="matrix(.9659 -.2588 .2588 .9659 -5.0542 8.2223)"/><ellipse cx="15.49" cy="30.155" fill="#ea5a47" rx="6" ry="6" transform="matrix(.7071 -.7071 .7071 .7071 -16.786 19.788)"/><ellipse cx="56.51" cy="30.153" fill="#ea5a47" rx="5.997" ry="6.002" transform="matrix(.7072 -.707 .707 .7072 -4.7714 48.785)"/><path fill="#ea5a47" d="m49.089 24.86c-0.8594 3.2011-4.1446 5.0952-7.3467 4.2387-3.2012-0.8545-5.0986-4.143-4.2432-7.3452 0.8526-3.1968 4.1475-5.0957 7.3448-4.2353 3.1982 0.8525 5.1025 4.1425 4.2451 7.3418z"/><path fill="#b1cc33" d="m57.441 48.628 4.958-0.75-0.3271-0.9658c1.6015-0.4297 2.5527-2.0742 2.1211-3.6738-0.2461-0.919-0.8985-1.6113-1.709-1.9639 1.3652-1.5654 1.6758-3.873 0.5801-5.7724-1.1817-2.043-3.5821-2.9239-5.7481-2.2823 0.2852-1.0107 0.043-2.1357-0.7539-2.9297-0.6719-0.6738-1.584-0.9472-2.46-0.8466 0.3985-2.0391-0.4863-4.1924-2.3847-5.2891-2.0449-1.1787-4.5645-0.7422-6.1192 0.8965-0.2578-1.0166-1.0312-1.8711-2.1172-2.1602-0.9189-0.247-1.8457-0.0273-2.5546 0.4971-0.6739-1.9648-2.5176-3.3867-4.711-3.3867-2.3584 0-4.3222 1.6386-4.8496 3.8349-0.7324-0.75-1.8301-1.1035-2.915-0.8125-0.919 0.2461-1.6114 0.8985-1.9639 1.708-1.5654-1.3642-3.873-1.6738-5.7715-0.5771-2.0429 1.1797-2.9248 3.5801-2.2822 5.7461-1.0107-0.2832-2.1367-0.041-2.9316 0.7539-0.6729 0.6719-0.9463 1.584-0.8457 2.4609-2.0381-0.3984-4.1915 0.4864-5.2881 2.3858-1.1787 2.0429-0.7422 4.5635 0.8964 6.1181-1.0166 0.2588-1.8701 1.0313-2.1621 2.1172-0.4287 1.6006 0.5215 3.2451 2.1211 3.6748l-0.0283 1.0049 3.1192 0.6514"/><path fill="#fcea2b" d="m15.148 53.001c-1.1045 0-2-0.8955-2-2 0-12.702 10.298-23 23-23 12.702 0 23 10.298 23 23 0 1.1045-0.8964 2-2 2h-42z"/></g><g id="c" fill="none" stroke="#000" stroke-linecap="round" stroke-linejoin="round" stroke-miterlimit="10" stroke-width="2"><path d="m15.148 53.001c-1.1045 0-2-0.8955-2-2 0-12.702 10.298-23 23-23 12.701 0 23 10.298 23 23 0 1.1045-0.8964 2-2 2h-42z"/><path d="m62.072 46.912c1.6015-0.4297 2.5527-2.0742 2.1211-3.6738-0.2461-0.919-0.8985-1.6113-1.709-1.9639 1.3652-1.5654 1.6758-3.873 0.5801-5.7724-1.1817-2.043-3.5821-2.9239-5.7481-2.2823 0.2852-1.0107 0.043-2.1357-0.7539-2.9297-0.6719-0.6738-1.584-0.9472-2.4609-0.8466 0.3984-2.0391-0.4864-4.1924-2.3848-5.2891-2.0449-1.1787-4.5645-0.7422-6.1182 0.8965-0.2578-1.0166-1.0312-1.8711-2.1172-2.1602-0.9189-0.247-1.8457-0.0273-2.5546 0.4971-0.6739-1.9648-2.5176-3.3867-4.711-3.3867-2.3584 0-4.3232 1.6386-4.8496 3.8349-0.7334-0.75-1.8291-1.1035-2.915-0.8125-0.919 0.2461-1.6114 0.8985-1.9629 1.708-1.5664-1.3642-3.8731-1.6738-5.7725-0.5771-2.0439 1.1797-2.9248 3.5801-2.2822 5.7461-1.0098-0.2832-2.1367-0.041-2.9316 0.7539-0.6729 0.6719-0.9454 1.584-0.8457 2.4609-2.0391-0.3984-4.1915 0.4864-5.2881 2.3858-1.1787 2.0429-0.7422 4.5635 0.8974 6.1181-1.0176 0.2588-1.8711 1.0313-2.1631 2.1172-0.4287 1.6006 0.5215 3.2451 2.1211 3.6748"/><path d="m14.997 25.194c-1.1104 0.1026-2.1905 0.5738-3.042 1.4253-0.8106 0.8106-1.2754 1.8272-1.4063 2.8804"/><path d="m30.694 18.738c-0.997-0.4414-2.1435-0.561-3.2812-0.2568-1.1338 0.3037-2.0645 0.977-2.707 1.854"/><path d="m41.305 18.738c0.9971-0.4414 2.1435-0.561 3.2812-0.2568 1.1338 0.3037 2.0645 0.977 2.7071 1.854"/><path d="m57.002 25.194c1.1093 0.1026 2.1894 0.5738 3.041 1.4253 0.8105 0.8106 1.2754 1.8272 1.4062 2.8804"/></g></svg>