<?xml version="1.0" encoding="UTF-8"?>
<svg id="a" viewBox="0 0 72 72" xmlns="http://www.w3.org/2000/svg"><g id="b"><polygon points="18.161 32.77 11.994 36.174 12.724 27.638 4.6594 26.476 10.695 21.002 4.854 15.321 12.958 14.444 11.564 6.4134 18.637 10.47 22.232 3.1521 25.567 10.589 32.776 6.7848 31.11 14.761 39.787 16.644 33.451 21.991 39.27 27.772 31.147 28.449 32.341 36.512 25.371 32.291 20.713 39.85" fill="#FCEA2B"/><path d="m25.619 30.56c-0.031 0.3535-0.3174 0.6396-0.6721 0.6775-4.2996 0.4606-7.6067 4.6942-7.6067 9.8474 0 5.4608 3.7871 9.8877 8.4588 9.8877h32.248c5.1325 0 9.2932-4.6783 9.2932-10.449 0-5.5305-3.8212-10.058-8.6569-10.425-0.37-0.0281-0.67-0.2871-0.7406-0.6494-1.0803-5.5472-6.0636-9.7159-11.955-9.7159-3.829 0-7.2399 1.7335-9.4549 4.4912-0.2164 0.2695-0.5797 0.3929-0.8992 0.2589-0.8523-0.3575-1.7525-0.5304-2.7597-0.5304-3.806 1e-4 -6.9302 2.9047-7.2546 6.6073z" fill="#d0cfce" stroke-linecap="round" stroke-linejoin="round" stroke-miterlimit="10" stroke-width="2"/><path d="m28.693 59.223c-0.7516 1.1632-2.1343 1.6031-3.0902 0.9854s-1.1216-2.0613-0.37-3.2245c0 0 0.8943-1.4257 4.0066-3.0386 0 0 0.6168-0.3534 0.5724 0.3205-0.1914 3.5001-1.1188 4.9572-1.1188 4.9572" fill="#92D3F5"/><path d="m29.153 54.088c0.5441 1.6504-0.7227 4.9495-0.7227 4.9495-0.9587 1.3692-2.1337 1.5027-3.1418 0.7967-1e-4 1e-4 2.7195-0.9711 3.8645-5.7462" fill="#61B2E4"/><path d="m58.798 59.223c-0.7516 1.1632-2.1343 1.6031-3.0902 0.9854s-1.1216-2.0613-0.37-3.2245c0 0 0.8943-1.4257 4.0066-3.0386 0 0 0.6168-0.3534 0.5724 0.3205-0.1914 3.5001-1.1188 4.9572-1.1188 4.9572" fill="#92D3F5"/><path d="m59.257 54.088c0.5441 1.6504-0.7227 4.9495-0.7227 4.9495-0.9587 1.3692-2.1337 1.5027-3.1418 0.7967-1e-4 1e-4 2.7195-0.9711 3.8645-5.7462" fill="#61B2E4"/><path d="m43.746 59.223c-0.7516 1.1632-2.1343 1.6031-3.0902 0.9854s-1.1216-2.0613-0.37-3.2245c0 0 0.8943-1.4257 4.0066-3.0386 0 0 0.6168-0.3534 0.5724 0.3205-0.1914 3.5001-1.1188 4.9572-1.1188 4.9572" fill="#92D3F5"/><path d="m44.205 54.088c0.5441 1.6504-0.7227 4.9495-0.7227 4.9495-0.9587 1.3692-2.1337 1.5027-3.1418 0.7967-1e-4 1e-4 2.7195-0.9711 3.8645-5.7462" fill="#61B2E4"/><path d="m35.72 66.794c-0.7516 1.1632-2.1343 1.603-3.0902 0.9854-0.9559-0.6177-1.1216-2.0613-0.37-3.2245 0 0 0.8943-1.4257 4.0066-3.0385 0 0 0.6168-0.3534 0.5724 0.3205-0.1915 3.5001-1.1188 4.9571-1.1188 4.9571" fill="#92D3F5"/><path d="m36.179 61.659c0.5441 1.6504-0.7227 4.9495-0.7227 4.9495-0.9587 1.3692-2.1337 1.5027-3.1418 0.7967-1e-4 0 2.7194-0.9711 3.8645-5.7462" fill="#61B2E4"/><path d="m50.772 66.794c-0.7516 1.1632-2.1343 1.603-3.0902 0.9854-0.9559-0.6177-1.1216-2.0613-0.37-3.2245 0 0 0.8943-1.4257 4.0066-3.0385 0 0 0.6168-0.3534 0.5724 0.3205-0.1915 3.5001-1.1188 4.9571-1.1188 4.9571" fill="#92D3F5"/><path d="m51.231 61.659c0.5441 1.6504-0.7227 4.9495-0.7227 4.9495-0.9587 1.3692-2.1337 1.5027-3.1418 0.7967-1e-4 0 2.7195-0.9711 3.8645-5.7462" fill="#61B2E4"/></g><g id="c" fill="none" stroke="#000" stroke-linecap="round" stroke-linejoin="round" stroke-miterlimit="10"><polyline points="14.524 33.667 11.324 35.463 12.99 27.487 4.9255 26.325 10.961 20.852 5.1201 15.17 13.224 14.293 11.83 6.2625 18.903 10.319 22.498 3.0012 25.834 10.438 33.042 6.634 31.376 14.61 39.441 15.772 36.517 18.155" stroke-width="1.9"/><path d="m32.912 19.968c-0.5423-5.4473-5.1387-9.7012-10.729-9.7012-5.9549 0-10.782 4.8274-10.782 10.782 0 4.2822 2.4963 7.9814 6.1131 9.7216" stroke-width="1.9"/><path d="m25.619 30.56c-0.031 0.3535-0.3174 0.6396-0.6721 0.6775-4.2996 0.4606-7.6067 4.6942-7.6067 9.8474 0 5.4608 3.7871 9.8877 8.4588 9.8877h32.248c5.1325 0 9.2932-4.6783 9.2932-10.449 0-5.5305-3.8212-10.058-8.6569-10.425-0.37-0.0281-0.67-0.2871-0.7406-0.6494-1.0803-5.5472-6.0636-9.7159-11.955-9.7159-3.829 0-7.2399 1.7335-9.4549 4.4912-0.2164 0.2695-0.5797 0.3929-0.8992 0.2589-0.8523-0.3575-1.7525-0.5304-2.7597-0.5304-3.806 1e-4 -6.9302 2.9047-7.2546 6.6073z" stroke-width="2"/><path d="m28.693 59.223c-0.7516 1.1632-2.1343 1.6031-3.0902 0.9854s-1.1216-2.0613-0.37-3.2245c0 0 0.8761-1.5078 4.0066-3.0386 0 0 0.6168-0.3534 0.5724 0.3205-0.1914 3.5001-1.1188 4.9572-1.1188 4.9572" stroke-width="1.8"/><path d="m58.798 59.223c-0.7516 1.1632-2.1343 1.6031-3.0902 0.9854s-1.1216-2.0613-0.37-3.2245c0 0 0.8761-1.5078 4.0066-3.0386 0 0 0.6168-0.3534 0.5724 0.3205-0.1914 3.5001-1.1188 4.9572-1.1188 4.9572" stroke-width="1.8"/><path d="m43.746 59.223c-0.7516 1.1632-2.1343 1.6031-3.0902 0.9854s-1.1216-2.0613-0.37-3.2245c0 0 0.8761-1.5078 4.0066-3.0386 0 0 0.6168-0.3534 0.5724 0.3205-0.1914 3.5001-1.1188 4.9572-1.1188 4.9572" stroke-width="1.8"/><path d="m35.72 66.794c-0.7516 1.1632-2.1343 1.603-3.0902 0.9854-0.9559-0.6177-1.1216-2.0613-0.37-3.2245 0 0 0.8761-1.5078 4.0066-3.0385 0 0 0.6168-0.3534 0.5724 0.3205-0.1915 3.5001-1.1188 4.9571-1.1188 4.9571" stroke-width="1.8"/><path d="m50.772 66.794c-0.7516 1.1632-2.1343 1.603-3.0902 0.9854-0.9559-0.6177-1.1216-2.0613-0.37-3.2245 0 0 0.8761-1.5078 4.0066-3.0385 0 0 0.6168-0.3534 0.5724 0.3205-0.1915 3.5001-1.1188 4.9571-1.1188 4.9571" stroke-width="1.8"/></g></svg>
