<svg xmlns="http://www.w3.org/2000/svg" id="a" viewBox="0 0 72 72"><g id="b" fill="none" stroke="#d0cfce" stroke-linecap="round" stroke-linejoin="round" stroke-miterlimit="10"><path stroke-width="4" d="m36 15.543c-17.673 0-32-1.5881-32-3.5471"/><path stroke-width="4" d="m4 12.007c0-1.959 14.327-3.5471 32-3.5471s32 1.5881 32 3.5471v-0.0106"/><path stroke-width="2" d="m66 17.023c0 1.8366-13.432 3.3254-30 3.3254s-30-1.4888-30-3.3254"/><path stroke-width="2" d="m64 22.399c0 1.7141-12.536 3.1037-28 3.1037s-28-1.3896-28-3.1037"/><path stroke-width="2" d="m62 27.502c0 1.5917-11.641 2.882-26 2.882s-26-1.2903-26-2.882"/><path stroke-width="2" d="m58 33.364c0 1.3468-9.8497 2.4386-22 2.4386s-22-1.0918-22-2.4386"/><path stroke-width="2" d="m54 38.803c0 1.1019-8.0589 1.9952-18 1.9952s-18-0.8933-18-1.9952"/><path stroke-width="2" d="m50 43.798c0 0.8571-6.268 1.5519-14 1.5519s-14-0.6948-14-1.5519"/><path stroke-width="2" d="m46 48.86c0 0.6122-4.4772 1.1085-10 1.1085s-10-0.4963-10-1.1085"/><path stroke-width="2" d="m44 53.468c0 0.4897-3.5817 0.8868-8 0.8868s-8-0.397-8-0.8868"/><path stroke-width="2" d="m40 58.355c0 0.2449-1.7909 0.4434-4 0.4434s-4-0.1985-4-0.4434"/><path stroke-width="2" d="m38 62.799c0 0.1224-0.8954 0.2217-2 0.2217s-2-0.0993-2-0.2217"/></g><g id="c" fill="none" stroke="#000" stroke-linecap="round" stroke-linejoin="round" stroke-miterlimit="10" stroke-width="2"><path d="m36 15.543c-17.673 0-32-1.5881-32-3.5471"/><path d="m4 12.007c0-1.959 14.327-3.5471 32-3.5471s32 1.5881 32 3.5471v-0.0106"/><path d="m66 18.063c0 1.8366-13.432 3.3254-30 3.3254s-30-1.4888-30-3.3254"/><path d="m64 23.389c0 1.7141-12.536 3.1037-28 3.1037s-28-1.3896-28-3.1037"/><path d="m62 28.492c0 1.5917-11.641 2.882-26 2.882s-26-1.2903-26-2.882"/><path d="m58 34.374c0 1.3468-9.8497 2.4386-22 2.4386s-22-1.0918-22-2.4386"/><path d="m54 39.813c0 1.1019-8.0589 1.9952-18 1.9952s-18-0.8933-18-1.9952"/><path d="m50 44.808c0 0.8571-6.268 1.5519-14 1.5519s-14-0.6948-14-1.5519"/><path d="m46 49.86c0 0.6122-4.4772 1.1085-10 1.1085s-10-0.4963-10-1.1085"/><path d="m44 54.468c0 0.4897-3.5817 0.8868-8 0.8868s-8-0.397-8-0.8868"/><path d="m40 59.355c0 0.2449-1.7909 0.4434-4 0.4434s-4-0.1985-4-0.4434"/><path d="m38 63.799c0 0.1224-0.8954 0.2217-2 0.2217s-2-0.0993-2-0.2217"/></g></svg>