<?xml version="1.0" encoding="UTF-8"?>
<svg id="a" viewBox="0 0 72 72" xmlns="http://www.w3.org/2000/svg"><g id="b"><path d="m19.279 22.44c-0.031 0.3535-0.3174 0.6396-0.6721 0.6775-4.2996 0.4606-7.6066 4.6942-7.6066 9.8475 0 5.4608 3.7871 9.8877 8.4588 9.8877h32.248c5.1325 0 9.2932-4.6783 9.2932-10.449 0-5.5305-3.8212-10.058-8.6569-10.425-0.37-0.0281-0.67-0.2871-0.7406-0.6494-1.0803-5.5472-6.0636-9.7159-11.955-9.7159-3.829 0-7.2399 1.7335-9.4549 4.4912-0.2164 0.2695-0.5797 0.3929-0.8992 0.2589-0.8523-0.3575-1.7525-0.5304-2.7597-0.5304-3.8062 0-6.9303 2.9046-7.2547 6.6072z" fill="#d0cfce"/></g><g id="c" fill="none" stroke="#000" stroke-linecap="round" stroke-linejoin="round" stroke-miterlimit="10"><path d="m19.279 22.44c-0.031 0.3535-0.3174 0.6396-0.6721 0.6775-4.2996 0.4606-7.6066 4.6942-7.6066 9.8475 0 5.4608 3.7871 9.8877 8.4588 9.8877h32.248c5.1325 0 9.2932-4.6783 9.2932-10.449 0-5.5305-3.8212-10.058-8.6569-10.425-0.37-0.0281-0.67-0.2871-0.7406-0.6494-1.0803-5.5472-6.0636-9.7159-11.955-9.7159-3.829 0-7.2399 1.7335-9.4549 4.4912-0.2164 0.2695-0.5797 0.3929-0.8992 0.2589-0.8523-0.3575-1.7525-0.5304-2.7597-0.5304-3.8062 0-6.9303 2.9046-7.2547 6.6072z" stroke-width="2"/><line x1="28.768" x2="28.768" y1="52.518" y2="60.387" stroke-width="1.8"/><line x1="25.408" x2="32.127" y1="58.42" y2="54.485" stroke-width="1.8"/><line x1="32.127" x2="25.408" y1="58.42" y2="54.485" stroke-width="1.8"/><line x1="56.291" x2="56.291" y1="46.04" y2="53.262" stroke-width="1.8"/><line x1="53.208" x2="59.374" y1="51.457" y2="47.845" stroke-width="1.8"/><line x1="59.374" x2="53.208" y1="51.457" y2="47.845" stroke-width="1.8"/><line x1="16.958" x2="16.958" y1="47.04" y2="54.262" stroke-width="1.8"/><line x1="13.874" x2="20.041" y1="52.457" y2="48.845" stroke-width="1.8"/><line x1="20.041" x2="13.874" y1="52.457" y2="48.845" stroke-width="1.8"/><line x1="42.709" x2="42.709" y1="48.076" y2="60.083" stroke-width="1.8"/><line x1="37.583" x2="47.836" y1="57.082" y2="51.077" stroke-width="1.8"/><line x1="47.836" x2="37.583" y1="57.082" y2="51.077" stroke-width="1.8"/></g></svg>
