<?xml version="1.0" encoding="UTF-8"?>
<svg id="a" viewBox="0 0 72 72" xmlns="http://www.w3.org/2000/svg"><g id="b"><path d="m14.597 29.908c-0.0396 0.4525-0.4062 0.8186-0.8602 0.8673-5.5036 0.5895-9.7366 6.0085-9.7366 12.605 0 6.9899 4.8475 13.372 10.827 13.372h41.278c1.3997-0.037 2.5589-0.1579 3.7218-0.551 3.1992-1.5711 8.1735-6.7931 8.1735-13.539 0-7.079-4.8912-12.874-11.081-13.344-0.4735-0.036-0.8576-0.3674-0.9479-0.8313-1.3827-7.1005-7.7614-12.436-15.303-12.436-4.9012 0-9.2671 2.2189-12.102 5.7487-0.277 0.3449-0.742 0.503-1.151 0.3315-1.091-0.4575-2.2432-0.6789-3.5324-0.6789-4.8718-1e-4 -8.8707 3.7179-9.2859 8.4572z" fill="#d0cfce"/></g><g id="c" fill="none" stroke="#000" stroke-linecap="round" stroke-linejoin="round" stroke-width="2"><path d="m59.444 55.459c4.944-1.6229 8.5558-6.7575 8.5558-12.841 0-7.079-4.8912-12.874-11.081-13.344-0.4735-0.036-0.8576-0.3674-0.9479-0.8313-1.3827-7.1005-7.7614-12.436-15.303-12.436-4.9012 0-9.2671 2.2189-12.102 5.7487-0.277 0.3449-0.742 0.503-1.151 0.3315-1.091-0.4575-2.2432-0.6789-3.5324-0.6789-4.8718 0-8.8707 3.718-9.2859 8.4573-0.0396 0.4525-0.4062 0.8186-0.8602 0.8673-5.5036 0.5895-9.7366 6.0085-9.7366 12.605 0 6.9899 4.8475 12.656 10.827 12.656h36.219" stroke-miterlimit="10"/><path d="m31.686 32.062c-1.2083 0.9992-2.7458 1.5119-4.312 1.438-1.5664 0.0745-3.1043-0.4379-4.313-1.437"/><path d="m48.939 32.062c-1.2083 0.9992-2.7458 1.5119-4.312 1.438-1.5664 0.0745-3.1043-0.4379-4.313-1.437"/><path d="m39.611 45.333c1.6569 0 3-1.1379 3-2.5417 0-1.0528-0.7555-1.9561-1.8323-2.3419-0.3589-0.1286-0.7535-0.1997-1.1677-0.1997" stroke-miterlimit="10"/><path d="m39.184 50.406c0.9401 0 2.0159-0.5708 2.3309-1.472 0.5041-1.4419-0.3552-3.0541-1.9192-3.6009" stroke-miterlimit="10"/><path d="m62.364 45.559c2.1545-3.308 2.0114-7.9339-1.9915-9.7984-1.7893-0.8334-3.8681-0.6097-4.9454 1.0444-0.5386 0.827-0.3048 1.9341 0.5222 2.4727" stroke-miterlimit="10"/><path d="m46.09 46.551c4.7602 2.7667 12.005 5.3518 16.274-0.9917" stroke-miterlimit="10"/><path d="m55.955 59.826c-0.2166 1.9335-1.9589 3.369-3.8924 3.1524-1.6258-0.1821-2.8687-1.4434-3.0943-2.9898" stroke-miterlimit="10"/><path d="m46.09 46.551s10.704 5.7177 9.8651 13.275" stroke-miterlimit="10"/></g></svg>
