<svg xmlns="http://www.w3.org/2000/svg" id="a" viewBox="0 0 72 72"><g id="b"><path fill="#B1CC33" d="m36.835 18.078c1.7393 1.6583 1.6481 4.5775 1.6481 4.5775s-2.9114 0.2303-4.651-1.428c-1.7396-1.6582-1.6481-4.5775-1.6481-4.5775s2.9119-0.2288 4.651 1.428z"/><path fill="#5C9E31" d="m42.088 54.363c-4.6114 1.465-9.3345-1.6943-9.3345-1.6943s2.7546-5.5346 7.3663-7.0003 9.3345 1.6943 9.3345 1.6943-2.7576 5.5342-7.3663 7.0003z"/><path fill="#B1CC33" d="m49.048 35.692c-3.6542 1.0489-7.2941-1.5366-7.2941-1.5366s2.2856-4.2862 5.9401-5.3357 7.2941 1.5366 7.2941 1.5366-2.288 4.2858-5.9401 5.3357z"/><path fill="#5C9E31" d="m27.018 32.151c3.0883 2.3003 3.5096 6.9616 3.5096 6.9616s-4.5864 0.9311-7.6753-1.3691-3.5096-6.9616-3.5096-6.9616 4.5876-0.9289 7.6753 1.3691z"/></g><g id="c" fill="none" stroke="#000" stroke-linecap="round" stroke-linejoin="round" stroke-width="2"><path d="m36.835 18.078c1.7393 1.6583 1.6481 4.5775 1.6481 4.5775s-2.9114 0.2303-4.651-1.428c-1.7396-1.6582-1.6481-4.5775-1.6481-4.5775s2.9119-0.2288 4.651 1.428z"/><path d="m27.018 32.151c3.0883 2.3003 3.5096 6.9616 3.5096 6.9616s-4.5864 0.9311-7.6753-1.3691-3.5096-6.9616-3.5096-6.9616 4.5876-0.9289 7.6753 1.3691z"/><path d="m42.088 54.363c-4.6114 1.465-9.3345-1.6943-9.3345-1.6943s2.7546-5.5346 7.3663-7.0003 9.3345 1.6943 9.3345 1.6943-2.7576 5.5342-7.3663 7.0003z"/><path d="m49.048 35.692c-3.6542 1.0489-7.2941-1.5366-7.2941-1.5366s2.2856-4.2862 5.9401-5.3357 7.2941 1.5366 7.2941 1.5366-2.288 4.2858-5.9401 5.3357z"/><path d="m39.905 25.782c0 4.7785-2.8879 10.061-4.8815 13.138-0.8136 1.2558-1.7383 2.4273-2.7031 3.5711-2.5753 3.0534-5.2237 8.2176-3.876 15.872"/></g></svg>