<svg xmlns="http://www.w3.org/2000/svg" id="a" viewBox="0 0 72 72"><g id="b"><ellipse cx="35.81" cy="10.162" fill="#f4aa41" rx="3.481" ry="5.162"/><ellipse cx="31.287" cy="19.207" fill="#f1b31c" rx="3.481" ry="5.162" transform="translate(-4.4175 27.749) rotate(-45)"/><ellipse cx="31.287" cy="27.347" fill="#f1b31c" rx="3.481" ry="5.162" transform="translate(-10.174 30.133) rotate(-45)"/><ellipse cx="31.287" cy="35.488" fill="#f1b31c" rx="3.481" ry="5.162" transform="translate(-15.93 32.517) rotate(-45)"/><ellipse cx="31.287" cy="43.629" fill="#f1b31c" rx="3.481" ry="5.162" transform="translate(-21.686 34.902) rotate(-45)"/><ellipse cx="31.287" cy="51.769" fill="#f1b31c" rx="3.481" ry="5.162" transform="translate(-27.443 37.286) rotate(-45)"/><ellipse cx="40.713" cy="19.207" fill="#f1b31c" rx="5.162" ry="3.481" transform="translate(-1.6567 34.414) rotate(-45)"/><ellipse cx="40.713" cy="27.347" fill="#f1b31c" rx="5.162" ry="3.481" transform="translate(-7.4129 36.798) rotate(-45)"/><ellipse cx="40.713" cy="35.488" fill="#f1b31c" rx="5.162" ry="3.481" transform="translate(-13.169 39.183) rotate(-45)"/><ellipse cx="40.713" cy="43.629" fill="#f1b31c" rx="5.162" ry="3.481" transform="translate(-18.926 41.567) rotate(-45)"/><ellipse cx="40.713" cy="51.769" fill="#f1b31c" rx="5.162" ry="3.481" transform="translate(-24.682 43.951) rotate(-45)"/><path fill="none" stroke="#000" stroke-miterlimit="10" stroke-width="2" d="m35.79 56v9"/><ellipse cx="35.81" cy="10.162" fill="#f4aa41" rx="3.481" ry="5.162"/><ellipse cx="31.287" cy="19.207" fill="#f1b31c" rx="3.481" ry="5.162" transform="translate(-4.4175 27.749) rotate(-45)"/><ellipse cx="31.287" cy="27.347" fill="#f1b31c" rx="3.481" ry="5.162" transform="translate(-10.174 30.133) rotate(-45)"/><ellipse cx="31.287" cy="35.488" fill="#f1b31c" rx="3.481" ry="5.162" transform="translate(-15.93 32.517) rotate(-45)"/><ellipse cx="31.287" cy="43.629" fill="#f1b31c" rx="3.481" ry="5.162" transform="translate(-21.686 34.902) rotate(-45)"/><ellipse cx="31.287" cy="51.769" fill="#f1b31c" rx="3.481" ry="5.162" transform="translate(-27.443 37.286) rotate(-45)"/><ellipse cx="40.713" cy="19.207" fill="#f1b31c" rx="5.162" ry="3.481" transform="translate(-1.6567 34.414) rotate(-45)"/><ellipse cx="40.713" cy="27.347" fill="#f1b31c" rx="5.162" ry="3.481" transform="translate(-7.4129 36.798) rotate(-45)"/><ellipse cx="40.713" cy="35.488" fill="#f1b31c" rx="5.162" ry="3.481" transform="translate(-13.169 39.183) rotate(-45)"/><ellipse cx="40.713" cy="43.629" fill="#f1b31c" rx="5.162" ry="3.481" transform="translate(-18.926 41.567) rotate(-45)"/><ellipse cx="40.713" cy="51.769" fill="#f1b31c" rx="5.162" ry="3.481" transform="translate(-24.682 43.951) rotate(-45)"/><ellipse cx="35.81" cy="10.162" fill="#f1b31c" rx="3.481" ry="5.162"/><ellipse cx="31.287" cy="19.207" fill="#f1b31c" rx="3.481" ry="5.162" transform="translate(-4.4175 27.749) rotate(-45)"/><ellipse cx="31.287" cy="27.347" fill="#f1b31c" rx="3.481" ry="5.162" transform="translate(-10.174 30.133) rotate(-45)"/><ellipse cx="31.287" cy="35.488" fill="#f1b31c" rx="3.481" ry="5.162" transform="translate(-15.93 32.517) rotate(-45)"/><ellipse cx="31.287" cy="43.629" fill="#f1b31c" rx="3.481" ry="5.162" transform="translate(-21.686 34.902) rotate(-45)"/><ellipse cx="31.287" cy="51.769" fill="#f1b31c" rx="3.481" ry="5.162" transform="translate(-27.443 37.286) rotate(-45)"/><ellipse cx="40.713" cy="19.207" fill="#f1b31c" rx="5.162" ry="3.481" transform="translate(-1.6567 34.414) rotate(-45)"/><ellipse cx="40.713" cy="27.347" fill="#f1b31c" rx="5.162" ry="3.481" transform="translate(-7.4129 36.798) rotate(-45)"/><ellipse cx="40.713" cy="35.488" fill="#f1b31c" rx="5.162" ry="3.481" transform="translate(-13.169 39.183) rotate(-45)"/><ellipse cx="40.713" cy="43.629" fill="#f1b31c" rx="5.162" ry="3.481" transform="translate(-18.926 41.567) rotate(-45)"/><ellipse cx="40.713" cy="51.769" fill="#f4aa41" rx="5.162" ry="3.481" transform="translate(-24.682 43.951) rotate(-45)"/></g><g id="c" fill="none" stroke="#000" stroke-miterlimit="10" stroke-width="2"><ellipse cx="35.81" cy="10.162" rx="3.481" ry="5.162"/><ellipse cx="31.287" cy="19.207" rx="3.481" ry="5.162" transform="translate(-4.4175 27.749) rotate(-45)"/><ellipse cx="31.287" cy="27.347" rx="3.481" ry="5.162" transform="translate(-10.174 30.133) rotate(-45)"/><ellipse cx="31.287" cy="35.488" rx="3.481" ry="5.162" transform="translate(-15.93 32.517) rotate(-45)"/><ellipse cx="31.287" cy="43.629" rx="3.481" ry="5.162" transform="translate(-21.686 34.902) rotate(-45)"/><ellipse cx="31.287" cy="51.769" rx="3.481" ry="5.162" transform="translate(-27.443 37.286) rotate(-45)"/><ellipse cx="40.713" cy="19.207" rx="5.162" ry="3.481" transform="translate(-1.6567 34.414) rotate(-45)"/><ellipse cx="40.713" cy="27.347" rx="5.162" ry="3.481" transform="translate(-7.4129 36.798) rotate(-45)"/><ellipse cx="40.713" cy="35.488" rx="5.162" ry="3.481" transform="translate(-13.169 39.183) rotate(-45)"/><ellipse cx="40.713" cy="43.629" rx="5.162" ry="3.481" transform="translate(-18.926 41.567) rotate(-45)"/><ellipse cx="40.713" cy="51.769" rx="5.162" ry="3.481" transform="translate(-24.682 43.951) rotate(-45)"/></g></svg>