<?xml version="1.0" encoding="UTF-8"?>
<svg id="a" viewBox="0 0 72 72" xmlns="http://www.w3.org/2000/svg"><g id="b"><path d="m23.697 59.43s-8.7685-5.362-9.193-14.698c-0.4359-9.5866 9.2144-26.947 9.2144-26.947s-4.7203 20.706-0.0214 41.645z" fill="#5C9E31"/><path d="m50.717 27.303c-2.7631-0.1233-8.0574 1.5799-9.5149 2.8892-2.4893 2.2362-2.9448 2.8517-3.8431 6.4732-0.1034 0.4169 0.08 0.5524 0.1891 1.413 0.1488 1.1738-3.5923-1.3633-3.5923-1.3633-2.1365-1.8582-1.2818-5.2882-0.1597-7.8879 2.6922-6.2376 14.314-9.8962 16.451-8.0381 0 0 0.9568 1.2159 1.1218 6.4742l-0.6515 0.0397z" fill="#F4AA41"/><path d="m57.288 29.872c1.3436 2.4925-3.0561 13.578-9.7327 14.835-2.1528 0.4052-3.8746-0.0623-5.7286-1.4619-0.9986-0.7539-1.8237-1.7212-2.4582-2.7997-1.5547-2.3665-0.8443-5.7082 0.9387-7.9079 4.278-5.2777 15.426-5.0316 16.981-2.6651" fill="#F4AA41"/><path d="m52.948 22.666c2.1629-0.5025 4.2949-0.3222 4.8381 0.3621" fill="#E27022"/><path d="m51.368 27.264s-0.3688-4.5372-0.4588-4.763c-0.1099-0.2756 3.1089-2.0736 6.8768-1.1484s0 7.9946 0 7.9946l-1.3267-0.9953c-0.2155-0.1617-0.4588-0.2727-0.7228-0.3265-1.181-0.2407-4.3685-0.7614-4.3685-0.7614z" fill="#E27022"/></g><g id="c" fill="none" stroke="#000" stroke-linecap="round" stroke-linejoin="round" stroke-width="2"><path d="m23.697 59.43s-8.7685-5.362-9.193-14.698c-0.4359-9.5866 9.2144-26.947 9.2144-26.947s-4.7203 20.706-0.0214 41.645z"/><path d="m34.088 41.289c-3.438 3.548-7.676 10.246-5.829 20.735"/><path d="m57.084 29.872c1.3436 2.4925-3.0561 13.578-9.7327 14.835-2.1528 0.4052-3.8746-0.0623-5.7286-1.4619-0.9986-0.7539-1.8237-1.7212-2.4582-2.7997-1.5547-2.3665-0.8443-5.7082 0.9387-7.9079 4.278-5.2777 15.426-5.0316 16.981-2.6651"/><path d="m53.537 22.342c2.1629-0.5025 4.2949-0.3222 4.8381 0.3621"/><path d="m58.375 22.704c0.3869 0.5853 0.2321 2.1634-0.3773 3.8327"/><path d="m34.566 35.928c-2.1322-1.8631-1.8894-4.8477-0.7613-7.4448 2.7067-6.2313 13.513-8.9826 15.645-7.1195"/><path d="m49.304 21.195c0.506 0.5262 0.7973 1.5901 0.8465 3.1014"/></g></svg>
