<svg xmlns="http://www.w3.org/2000/svg" id="a" viewBox="0 0 72 72"><g id="b"><path fill="#5c9e31" d="m36.221 29.316c-2.3045-4.2879-8.34-5.5242-13.481-2.7614s-6.7397 8.181-4.4352 12.469l1.1937-1.279c1.8116-1.9229 2.6256-2.3028 4.8485-3.7454 1e-4 0 6.0943-4.5336 11.874-4.6831z"/><path fill="#b1cc33" d="m37.285 28.249c-2.3394-0.8811-4.95-0.1607-6.9233 1.6466-1.0336 0.9466-1.8924 2.1915-2.4457 3.6606-1.6096 4.2736-0.0246 8.8265 3.5401 10.169 0.2136-5.5917 2.3006-11.133 5.8289-15.476z"/><path fill="#5c9e31" d="m56.609 19.958c-1.7664-4.5362-7.6069-6.4968-13.045-4.3791-3.4455 1.3417-5.903 3.9986-6.792 6.9192-0.5142 1.6891-0.5038 3.4665 0.1435 5.1286 0 0 8.6249-8.458 19.694-7.6687z"/><path fill="#b1cc33" d="m61.703 34.872c1.4992-5.6939-2.8192-11.767-9.6454-13.564-1.0578-0.2785-2.1138-0.438-3.1487-0.4875-5.6432-0.2699-10.659 2.7314-11.926 7.5429 8.6314-0.5583 17.482 1.7722 24.72 6.5086z"/><path fill="#5c9e31" d="m12.279 23.744s12.538-0.9481 23.347 2.6232l0.7806 0.4425s2.2411-6.8492-3.3024-9.7317c-4.6493-2.4177-16.394-4.5176-20.825 6.666z"/></g><g id="c" fill="none" stroke="#000" stroke-linecap="round" stroke-linejoin="round" stroke-width="2"><path d="m39.977 32.442c2.4273 6.8664 4.2771 16.83 2.9406 30.322"/><path d="m36.221 28.316c-2.3045-4.2879-8.34-5.5242-13.481-2.7614s-7.4397 8.4785-5.1352 12.766c1.8116-1.9229 3.8637-3.6243 6.0866-5.0669"/><path d="m56.431 19.031c-2.0648-4.4084-8.0229-5.9754-13.308-3.5-3.3485 1.5683-5.6233 4.3831-6.3158 7.3565-0.4005 1.7196-0.2716 3.4923 0.485 5.1077"/><path d="m37.285 28.249c-2.3394-0.8811-4.95-0.1607-6.9233 1.6466-1.0336 0.9466-1.8924 2.1915-2.4457 3.6606-1.6096 4.2736-0.0246 8.8265 3.5401 10.169 0.2136-5.5917 2.3006-11.133 5.8289-15.476z"/><path d="m61.703 34.872c1.4992-5.6939-2.8192-11.767-9.6454-13.564-1.0578-0.2785-2.1138-0.438-3.1487-0.4875-5.6432-0.2699-10.659 2.7314-11.926 7.5429 8.6314-0.5583 17.482 1.7722 24.72 6.5086z"/><path d="m34.187 19.011c-0.088-0.085-0.1776-0.1693-0.2689-0.2527-1.7757-1.624-4.1607-2.9465-6.8817-3.6185-6.8529-1.6926-13.504 1.9432-14.758 7.6962 2.2915-0.2474 4.6074-0.2905 6.9127-0.137"/><line x1="56.431" x2="55" y1="19.031" y2="18.906"/></g></svg>