<?xml version="1.0" encoding="UTF-8"?>
<svg id="a" viewBox="0 0 72 72" xmlns="http://www.w3.org/2000/svg"><g id="b" fill="#b1cc33"><path d="m35.487 7.054c-3.6266 0-6.5664 3.2647-6.5664 7.292v19.192h-2.9773c-3.9616 0-3.7957-1.0309-3.7957-4.7691l-1.6106-3.2526c0-2.7922-0.3806-3.6821-3.3989-3.41-2.6314 0.2368-5.1765 1.5557-5.1765 4.05l-0.2056 11.283c0 2.6374 4.38 7.58 7.1743 7.58l7.013 0.0688h2.9773v19.087h13.133v-49.829c0-4.0273-2.9397-7.292-6.5664-7.292z"/><path d="m54.524 25.984a4.7767 4.7767 0 0 0-5.2448 4.7531v6.3643c0 3.7383 0.1565 4.7691-3.5816 4.7691h-3.3913l0.0793 11.551h11.669a4.7757 4.7757 0 0 0 4.7753-4.7757v-17.703a4.9143 4.9143 0 0 0-4.3062-4.9584z"/></g><g id="c" fill="none" stroke="#000" stroke-linecap="round" stroke-linejoin="round" stroke-width="2"><path d="m42.054 63.148v-48.95c0-3.9562-2.94-7.1634-6.5664-7.1634s-6.5664 3.2072-6.5664 7.1634v48.95"/><path d="m25.062 44.045h-6.3643a6.7684 6.7684 0 0 1-6.7685-6.7686v-11.14a4.7765 4.7765 0 0 1 5.2447-4.7531 4.9143 4.9143 0 0 1 4.3066 4.9584v4.7677a3.3843 3.3843 0 0 0 3.3842 3.3842h0.1975"/><path d="m45.826 52.403h8.3573a4.7757 4.7757 0 0 0 4.7756-4.7756v-17.703a4.9143 4.9143 0 0 0-4.3065-4.9584 4.7765 4.7765 0 0 0-5.2447 4.7531v6.3643c0 3.7382 0.1565 6.7685-3.5817 6.7685"/><line x1="40.096" x2="44.165" y1="18.349" y2="14.28"/><line x1="51.134" x2="55.203" y1="48.083" y2="44.015"/><line x1="20.153" x2="24.221" y1="30.369" y2="26.301"/><line x1="33.146" x2="29.668" y1="11.703" y2="7"/><line x1="31.217" x2="26.624" y1="55.233" y2="51.61"/><line x1="55.905" x2="59.974" y1="27.996" y2="23.928"/><line x1="51.032" x2="46.626" y1="35.572" y2="31.724"/><line x1="36.174" x2="33.237" y1="25.578" y2="21.361"/><line x1="14.694" x2="11.756" y1="25.962" y2="20.712"/></g></svg>
