<?xml version="1.0" encoding="UTF-8"?>
<svg id="a" viewBox="0 0 72 72" xmlns="http://www.w3.org/2000/svg"><g id="b"><path d="m51.56 17.73c-0.5093 0.0029-1.018 0.0333-1.524 0.091l-0.673 0.072-0.317-0.6c-2.673-5.047-8.5-8.308-14.854-8.308-9.026 0-16.369 6.4-16.369 14.268 0.0014 0.5162 0.0348 1.0319 0.1 1.544l0.1 0.824-0.792 0.251c-4.015 1.272-6.608 4.186-6.608 7.421 0 4.445 4.851 8.061 10.813 8.061 2.3045 0.0227 4.5747-0.5593 6.584-1.688l0.591-0.341 0.189 0.151 0.344 0.275c2.714 2.167 7.082 3.462 11.683 3.462 7.762 0 14.32-3.691 14.32-8.061-0.0013-0.2702-0.0274-0.5396-0.078-0.805l-0.138-0.751-0.022-0.117 0.842-0.266c4.022-1.271 6.622-4.185 6.622-7.425 1e-3 -4.439-4.851-8.058-10.813-8.058z" fill="#b1cc33"/><path d="m39.468 27.997s4.917 7.331 15.443 5.488l0.891 3.572-4 4.922-9.214 2.032-12.13-2.555-1.846-2.126c5.1993-1.8606 9.2206-6.0585 10.856-11.333z" fill="#5c9e31"/></g><g id="c" fill="none" stroke="#000" stroke-linecap="round" stroke-width="2"><polyline points="35.79 63.943 35.79 52.776 28.158 45.26" stroke-linejoin="round"/><line x1="35.79" x2="40.158" y1="52.776" y2="48.23" stroke-linejoin="round"/><path d="m63.374 25.773c0-5-5.289-9.061-11.813-9.061-0.5451 0.0044-1.0895 0.0378-1.631 0.1-2.763-5.216-8.762-8.839-15.738-8.839-9.593 0-17.369 6.836-17.369 15.268 0.0017 0.5574 0.0378 1.1141 0.108 1.667-4.288 1.359-7.306 4.595-7.306 8.374 0 5 5.289 9.061 11.813 9.061 2.4798 0.021 4.922-0.6072 7.084-1.822 2.791 2.229 7.257 3.681 12.307 3.681 8.461 0 15.32-4.057 15.32-9.061-0.0014-0.3308-0.0329-0.6609-0.094-0.986 4.293-1.36 7.319-4.598 7.319-8.382z" stroke-miterlimit="10"/></g></svg>
