<?xml version="1.0" encoding="UTF-8"?>
<svg id="a" viewBox="0 0 72 72" xmlns="http://www.w3.org/2000/svg"><g id="b"><path d="m51.935 35.872c4.1996 0.9278 6.7648 5.4824 6.7648 5.4824s-4.2448 3.05-8.4449 2.1226-6.7648-5.4824-6.7648-5.4824 4.247-3.0482 8.4449-2.1226z" fill="#B1CC33"/><path d="m22.362 19.992c4.067 1.3991 6.0978 6.2158 6.0978 6.2158s-4.5639 2.5478-8.6315 1.149-6.0978-6.2158-6.0978-6.2158 4.566-2.5458 8.6315-1.149z" fill="#5C9E31"/></g><g id="c" fill="none" stroke="#000" stroke-linecap="round" stroke-linejoin="round" stroke-width="2"><polyline points="36 63.166 36 51.166 31 29.166"/><line x1="36" x2="41" y1="51.166" y2="41.166"/><path d="m22.362 19.992c4.067 1.3991 6.0978 6.2158 6.0978 6.2158s-4.5639 2.5478-8.6315 1.149-6.0978-6.2158-6.0978-6.2158 4.566-2.5458 8.6315-1.149z"/><path d="m51.935 35.872c4.1996 0.9278 6.7648 5.4824 6.7648 5.4824s-4.2448 3.05-8.4449 2.1226-6.7648-5.4824-6.7648-5.4824 4.247-3.0482 8.4449-2.1226z"/></g></svg>
