<svg xmlns="http://www.w3.org/2000/svg" id="a" viewBox="0 0 72 72"><g id="b" stroke-linejoin="round" stroke-miterlimit="10" stroke-width="2"><path fill="#EA5A47" stroke="#EA5A47" stroke-linecap="round" d="m61.02 29.52c0 0.3701-0.02 0.7401-0.05 1.11-0.4075 8.0575-5.22 24.1-29.95 27.07-6.26-0.16-12.03-2.28-16.71-5.79-0.98-0.66-3.61-2.05-2.77-3.69s4.07-0.33 4.25-0.29c0.1 0.03 0.2 0.06 0.29 0.11 5.54 1.88 11.54 1.95 15.73 1.95 4.18 0 17.4-3.26 17.44-19.74v-0.07c0-0.08 0-0.17 0.02-0.25 0.16-2.92 2.41-5.27 5.29-5.56 0.19-0.02 0.39-0.03 0.6-0.03 0.19 0 0.38 0.01 0.56 0.03 2.76 0.26 4.97 2.41 5.3 5.15z"/><path fill="#D22F27" stroke="#D22F27" stroke-linecap="round" d="m60.97 30.63c-0.02 0.4-0.06 0.79-0.11 1.18-1.66 14.58-14.03 25.91-29.05 25.91-0.27 0-10.3-1.8875-10.56-1.9075 23.344 3.5725 38.187-12.205 35.555-24.015 1.66 0.45 2.8053-0.5772 4.1653-1.1672z"/><path fill="#B1CC33" d="m48.606 28.432c-0.4282 0.8332 0.3404 1.7472 1.2376 1.4778 1.5002-0.4505 3.4108-0.6393 4.297 0.8565 1.2368 2.0876 5.3387 0.5293 7.0383-0.2337 0.4606-0.2067 0.7127-0.708 0.5864-1.1968-0.4177-1.6163-1.8591-5.0003-6.6064-5.0003-3.6944 1e-4 -5.6073 2.2568-6.5529 4.0965z"/><path fill="#5C9E31" stroke="#5C9E31" stroke-linecap="round" d="m61.18 30.53c-1.3 0.59-4 1.63-5.75 1.16 6.14-2.85-0.27-7.35-0.27-7.35 4.75 0 6.19 3.38 6.6 5 0.13 0.48-0.12 0.99-0.58 1.19z"/></g><g id="c" fill="none" stroke="#000" stroke-miterlimit="10" stroke-width="2"><path stroke-linecap="round" d="m55.232 24.336s2.1769-13.086-9.9082-13.086"/><path stroke-linejoin="round" d="m31.02 57.7c-0.05 0.01-0.09 0.01-0.14 0.02"/><path stroke-linecap="round" stroke-linejoin="round" d="m60.136 35.753c-3.2344 12.63-14.687 21.968-28.328 21.968-6.5624 0-12.615-2.1556-17.5-5.8085-0.9807-0.6664-3.6104-2.0547-2.7698-3.6962 0.8407-1.6414 4.0758-0.3283 4.2563-0.2859 0.0956 0.0319 0.1911 0.0637 0.2867 0.1062 5.543 1.8795 11.543 1.9538 15.726 1.9538 3.8212 0 15.18-2.7194 17.153-15.747"/><path stroke-linejoin="round" d="m48.606 28.432c-0.4282 0.8332 0.3404 1.7472 1.2376 1.4778 1.5002-0.4505 3.4108-0.6393 4.297 0.8565 1.2368 2.0876 5.3387 0.5293 7.0383-0.2337 0.4606-0.2067 0.7127-0.708 0.5864-1.1968-0.4177-1.6163-1.8591-5.0003-6.6064-5.0003-3.6944 1e-4 -5.6073 2.2568-6.5529 4.0965z"/><path stroke-linejoin="round" d="m61.18 30.53c-0.07 0.03-0.14 0.06-0.21 0.1-1.36 0.59-3.8799 1.51-5.54 1.06-0.54-0.14-1-0.43-1.29-0.92-0.89-1.5-2.8-1.31-4.3-0.86-0.2 0.06-0.4 0.06-0.57 0.02-0.61-0.16-0.99-0.85-0.66-1.5 0.89-1.74 2.64-3.84 5.95-4.06 0.19-0.02 0.39-0.03 0.6-0.03 0.19 0 0.38 0.01 0.56 0.03 4.3 0.24 5.65 3.42 6.04 4.97 0.13 0.48-0.12 0.99-0.58 1.19z"/></g></svg>