<?xml version="1.0" encoding="UTF-8"?>
<svg id="a" viewBox="0 0 72 72" xmlns="http://www.w3.org/2000/svg"><g id="b"><path d="m56.035 54.005-8.1237-15.209 3.3463 0.5399c0.5439 0.0891 1.0571-0.2796 1.1462-0.8235 0.0381-0.2326-0.0073-0.4712-0.1283-0.6735l-7.3722-12.434 3.0778 0.2186c0.5498 0.0384 1.0267-0.3762 1.0651-0.9261 0.0158-0.2267-0.0462-0.4521-0.1759-0.6388l-12.046-17.334c-0.192-0.2698-0.5032-0.4295-0.8343-0.4281-0.3321 0.0049-0.64 0.1748-0.8213 0.4531l-3.7175 5.7005-7.8213 12.007c-0.3011 0.4617-0.1709 1.08 0.2908 1.3811 0.2089 0.1362 0.4612 0.1893 0.7072 0.1488l2.3014-0.3732-7.5518 12.211c-0.2901 0.4687-0.1453 1.0838 0.3234 1.3738 0.2013 0.1246 0.4405 0.1736 0.6746 0.1381l3.7265-0.5629-8.1347 15.231c-0.2597 0.4861-0.0762 1.0908 0.4099 1.3505 0.1647 0.088 0.3508 0.128 0.5372 0.1155l12.447-0.8363 1.0359-0.0699 10.961-0.1247 13.718 1.0309h0.0749c0.5512-1e-4 0.9979-0.447 0.9978-0.9981 0-0.1639-0.0404-0.3253-0.1176-0.4699l0.0029 2e-3z" fill="#5C9E31"/></g><g id="c" fill="none" stroke="#000" stroke-linecap="round" stroke-width="2"><polyline points="41.448 53.49 55.194 54.523 46.104 37.503 51.448 38.365 43.089 24.266 48.073 24.615 36.004 7.2457 24.448 24.99 28.918 24.266 20.198 38.365 25.903 37.503 16.813 54.523 30.323 53.615" stroke-linejoin="round"/><line x1="36.004" x2="36.004" y1="55.964" y2="65.273" stroke-miterlimit="10"/></g></svg>
