<svg xmlns="http://www.w3.org/2000/svg" id="a" viewBox="0 0 72 72"><g id="b"><path fill="#ffa7c0" stroke="#ffa7c0" d="m56.239 31.078c0.789-2.398-0.301-8.807-2.824-8.894 3.467-10.044-11.017-11.013-11.385-8.228-3.083-5.954-15.552 2.894-11.305 8.577-1.836 0.408-3.839 6.938-2.046 9.081 1.619 1.937 6.814 3.985 6.814 3.985 0.087 2.523 3.752 5.271 6.275 5.184 2.364-0.082 7.708-1.107 7.42-5.185 0 0 5.746-0.559 7.051-4.52z"/><path fill="#fcea2b" d="m40.82 28.398c-1.834 0-3.32-1.443-3.32-3.223 0-1.369 0.769-2.538 2.009-3.006 0.235-0.088 0.502-0.02 0.693 0.144l3.437 2.853 3.273 2.769c0.369 0.312 0.566 0.809 0.44 1.276-0.371 1.386-1.669 2.41-3.213 2.41-1.833 0-3.319-1.443-3.319-3.223"/><path fill="#b1cc33" d="m21.818 33.265c3.992 4.886 2.805 12.462 2.805 12.462s-7.66-0.347-11.653-5.233-2.805-12.462-2.805-12.462 7.661 0.351 11.653 5.233z"/></g><g id="c"><path fill="none" stroke="#000" stroke-linecap="round" stroke-linejoin="round" stroke-width="2" d="m21.818 33.276c3.992 4.886 2.805 12.462 2.805 12.462s-7.66-0.347-11.653-5.233-2.805-12.462-2.805-12.462 7.661 0.351 11.653 5.233z"/><path fill="none" stroke="#000" stroke-linecap="round" stroke-linejoin="round" stroke-width="2" d="m32.993 41.831c-3.438 3.548-7.676 10.246-5.829 20.735"/><path fill="none" stroke="#000" stroke-linecap="round" stroke-linejoin="round" stroke-width="2" d="m43.012 26.373c-1e-3 0 3.03-3.917-0.072-7.5"/><path fill="none" stroke="#000" stroke-linecap="round" stroke-linejoin="round" stroke-width="2" d="m46.41 29.025c0 1.657-1.343 3-3 3s-3-1.343-3-3"/><path fill="none" stroke="#000" stroke-linecap="round" stroke-linejoin="round" stroke-width="2" d="m40.41 29.025c-1.657 0-3-1.343-3-3 0-1.403 0.963-2.581 2.264-2.909"/><path fill="none" stroke="#000" stroke-linecap="round" stroke-linejoin="round" stroke-width="2" d="m30.765 22.439c-1.784-2.219-0.74-5.933 2.333-8.296 3.072-2.362 7.01-2.477 8.794-0.258"/><path fill="none" stroke="#000" stroke-linecap="round" stroke-linejoin="round" stroke-width="2" d="m30.765 22.439c-1.784-2.219-0.74-5.933 2.333-8.296 3.072-2.362 7.01-2.477 8.794-0.258"/><path fill="none" stroke="#000" stroke-linecap="round" stroke-linejoin="round" stroke-width="2" d="m35.405 35.771c-2.675 0.977-5.857-1.206-7.107-4.874-1.25-3.669-0.094-7.434 2.581-8.411"/><path fill="none" stroke="#000" stroke-linecap="round" stroke-linejoin="round" stroke-width="2" d="m41.987 13.99c1.628-2.337 5.486-2.379 8.617-0.094 3.13 2.284 4.348 6.03 2.72 8.366"/><path fill="none" stroke="#000" stroke-linecap="round" stroke-linejoin="round" stroke-width="2" d="m53.476 22.232c2.748 0.747 4.085 4.366 2.987 8.083-1.099 3.716-4.216 6.123-6.964 5.376"/><path fill="none" stroke="#000" stroke-linecap="round" stroke-linejoin="round" stroke-width="2" d="m49.468 35.668c0.098 2.846-2.964 5.193-6.839 5.242s-7.096-2.218-7.194-5.064"/><circle cx="47.825" cy="25.042" r="1"/><circle cx="47.731" cy="19.443" r="1"/></g></svg>