<svg xmlns="http://www.w3.org/2000/svg" id="a" viewBox="0 0 72 72"><g id="b"><path fill="#FCEA2B" d="m53.199 26.128c-0.2578-0.3518-0.2578-0.8302 0-1.182l0.781-1.066c1.7236-2.3562 1.2108-5.6636-1.1455-7.3873-1.0641-0.7784-2.3808-1.1311-3.6915-0.9887l-1.313 0.143c-0.4329 0.0447-0.8455-0.1936-1.023-0.591l-0.533-1.208c-1.1787-2.6708-4.2994-3.8805-6.9702-2.7018-1.206 0.5322-2.1696 1.4958-2.7018 2.7018l-0.533 1.209c-0.1785 0.3963-0.5906 0.6339-1.023 0.59l-1.313-0.143c-2.9024-0.3146-5.5102 1.7833-5.8248 4.6857-0.142 1.3104 0.2106 2.6265 0.9888 3.6903l0.781 1.066c0.2578 0.3518 0.2578 0.8302 0 1.182l-0.78 1.066c-1.7242 2.3551-1.2128 5.6621 1.1423 7.3863 1.0645 0.7794 2.3821 1.1324 3.6937 0.9897l1.313-0.143c0.4331-0.0472 0.8469 0.1915 1.023 0.59l0.533 1.208c0.1352 0.2987 0.2972 0.5845 0.484 0.854 0.043 0.063 0.088 0.122 0.133 0.182 0.1707 0.2319 0.3604 0.4494 0.567 0.65 0.019 0.019 0.037 0.039 0.056 0.057 0.5022 0.4685 1.0932 0.8316 1.738 1.068 0.5941 0.2236 1.2233 0.3394 1.858 0.342 2.0993 0.0169 4.0045-1.2253 4.836-3.153l0.533-1.208c0.1757-0.3989 0.5896-0.638 1.023-0.591l1.313 0.143c2.9023 0.3152 5.5106-1.7821 5.8258-4.6845 0.1423-1.3108-0.2103-2.6274-0.9888-3.6915l-0.782-1.065z"/><path fill="#5C9E31" d="m10.079 28.398c-0.151 2.092-0.178 7.231 2.687 10.738s7.906 4.508 9.985 4.774c0.151-2.092 0.178-7.232-2.687-10.738-2.875-3.517-7.908-4.508-9.985-4.774z"/><path fill="#F1B31C" d="m41.438 21.537c-2.2091 0-4 1.7909-4 4s1.7909 4 4 4 4-1.7909 4-4-1.7908-4-4-4z"/></g><g id="c" fill="none" stroke="#000" stroke-linecap="round" stroke-linejoin="round" stroke-width="2"><circle cx="41.438" cy="25.537" r="5"/><path d="m20.837 32.539c3.992 4.886 2.805 12.462 2.805 12.462s-7.66-0.347-11.653-5.233-2.805-12.462-2.805-12.462 7.66 0.347 11.653 5.233z"/><path d="m32.011 41.09c-3.438 3.548-7.676 10.246-5.829 20.735"/><path d="m47.189 13.443 0.533 1.209 1.313-0.143c3.4507-0.3755 6.5525 2.1174 6.9281 5.5682 0.1698 1.5599-0.2501 3.1268-1.177 4.3928l-0.78 1.066 0.78 1.066c2.0506 2.8007 1.4425 6.7334-1.3582 8.784-1.266 0.9269-2.833 1.3468-4.3928 1.177l-1.313-0.143-0.533 1.209c-1.4014 3.1756-5.1118 4.6139-8.2875 3.2125-1.434-0.6328-2.5797-1.7786-3.2125-3.2125l-0.533-1.209-1.313 0.143c-3.4507 0.3755-6.5525-2.1174-6.928-5.5682-0.1697-1.5599 0.2501-3.1268 1.177-4.3928l0.78-1.066-0.78-1.066c-2.0506-2.8007-1.4425-6.7334 1.3582-8.784 1.266-0.9269 2.833-1.3468 4.3928-1.177l1.313 0.143 0.533-1.209c1.4014-3.1756 5.1118-4.6139 8.2875-3.2125 1.4339 0.6327 2.5796 1.7785 3.2124 3.2125z"/></g></svg>