<svg xmlns="http://www.w3.org/2000/svg" id="a" viewBox="0 0 72 72"><g id="b"><path fill="#a57939" d="M28,28.6136l18-1s5,25-1,25l-9,5-7.79-4.7685C24,40.6136,28,28.6136,28,28.6136Z"/><path fill="#f1b31c" d="m17 23.614s0.4223-2.3167 4-5c4-3 16-5 16-5l-14 12z"/><path fill="#6a462f" d="m27 27.614-11.251-4s-12.749 19 11.251 28z"/><path fill="#6a462f" d="m47 27.614 11.251-4s10.499 11.429-11.251 28l1-13z"/><path fill="#f1b31c" d="m16.927 23.498 0.0839 0.1938c17.497 10.492 39.99-0.0785 39.99-0.0785a23.843 23.843 0 0 0-19.356-10.108"/></g><g id="c" fill="none" stroke="#000" stroke-width="2"><path stroke-miterlimit="10" d="m16.927 23.498 0.0839 0.1938c17.497 10.492 39.99-0.0785 39.99-0.0785a23.843 23.843 0 0 0-19.356-10.108"/><path stroke-miterlimit="10" d="m16 23.614c17.497 10.492 41 0 41 0"/><path stroke-miterlimit="10" d="m46.473 27.544s4.6059 13.533-1.1843 25.302"/><path stroke-miterlimit="10" d="m46.473 27.544s4.6059 13.533-1.1843 25.302"/><path stroke-linecap="round" stroke-linejoin="round" d="m21.977 17.807c-6.1574 3.983-10.245 10.39-9.8666 17.742 0.3892 7.5649 6.78 14.681 13.547 16.362 4.101 1.0189 8.7043 4.8382 10.017 5.9834a0.625 0.625 0 0 0 0.7731 0.0409 69.433 69.433 0 0 1 8.5483-4.9849c8.5745-4.2024 13.503-9.836 14.977-17.401 2.291-11.761-10.085-22.042-23.302-22.042a27.39 27.39 0 0 0-11.383 2.4845"/><path stroke-miterlimit="10" d="m27.026 27.544a113.76 113.76 0 0 0 1.1845 25.302"/></g></svg>