<svg xmlns="http://www.w3.org/2000/svg" id="a" version="1.1" viewBox="0 0 72 72"><g id="b"><path fill="#FCEA2B" stroke="#FCEA2B" stroke-linecap="round" stroke-miterlimit="10" stroke-width="2" d="m38.641 52.917-15.122-15.132c-8.8335-8.8335-12.038-17.698-8.58-21.166 0.9229-0.9127 2.2211-1.3691 3.7931-1.3691 0.5679 0 1.1663 0.0608 1.8052 0.1724 4.2596 0.7809 9.9188 4.1278 15.568 9.7768l3.4584 3.4584c-0.8316 1.3286-1.643 2.789-2.3225 4.3509-2.5355 5.7402-3.4888 12.9 1.3995 19.908z"/><path fill="#FCEA2B" d="m52.302 53.982c-3.4584 3.4685-9.4522 3.1338-13.326-0.7302l-0.3346-0.3346c-4.8884-7.0081-3.9351-14.168-1.3996-19.908 0.6795-1.5619 1.4908-3.0223 2.3225-4.3509l12.008 11.998c3.864 3.874 4.1987 9.8678 0.7301 13.326z"/><path fill="#5C9E31" stroke="#5C9E31" stroke-miterlimit="10" stroke-width="2" d="m55.983 56.193c-3.6714 4.3001-10.152 4.4928-14.067 0.5679-0.1319-0.1319-0.2535-0.2535-0.3752-0.3955-1.1359-1.1359-2.0994-2.2921-2.9006-3.4482-4.8884-7.0081-3.9351-14.168-1.3996-19.908 0.6795-1.5619 1.4908-3.0223 2.3225-4.3509 2.6065-4.148 5.5172-6.9573 6.075-7.4847 0.0305-0.0304 0.0913-0.0101 0.0913 0.0406 0.0304 1.3387 0.4868 12.616 9.5232 21.805 3.5193 3.58 3.9858 9.3508 0.7302 13.174z"/><path fill="#B1CC33" d="m55.444 43.139c3.9189 3.9189 3.7265 10.4-0.5773 14.068-3.821 3.2558-9.5884 2.7869-13.169-0.7314-9.1932-9.0327-20.466-9.4964-21.801-9.5195-0.0506-9e-4 -0.0777-0.0591-0.043-0.096 1.404-1.4949 19.344-19.945 35.19-4.0983 0.1372 0.1259 0.2688 0.246 0.4004 0.3776z"/><path fill="#FCEA2B" d="m36.105 25.199c-5.649-5.649-11.308-8.9958-15.568-9.7768-0.6389-0.1115-1.2373-0.1724-1.8052-0.1724-1.572 0-2.8702 0.4564-3.7931 1.3691-3.4584 3.4686-0.2535 12.333 8.58 21.166"/></g><g id="c" fill="none" stroke="#000" stroke-miterlimit="10" stroke-width="2"><path d="m55.444 43.139c3.9189 3.9189 3.7265 10.4-0.5773 14.068-3.821 3.2558-9.5884 2.7869-13.169-0.7314-9.1932-9.0327-20.466-9.4964-21.801-9.5195-0.0506-9e-4 -0.0777-0.0591-0.043-0.096 1.404-1.4949 19.344-19.945 35.19-4.0983 0.1372 0.1259 0.2688 0.246 0.4004 0.3776z"/><path stroke-linecap="round" d="m37.487 32.459c0.6253-1.3559 1.3429-2.6301 2.0763-3.8017 2.6065-4.148 5.5172-6.9573 6.075-7.4847 0.0305-0.0304 0.0913-0.0101 0.0913 0.0406 0.0198 0.8707 0.2197 5.9457 2.8433 11.916l0.2619 0.5604"/><path stroke-linecap="round" d="m36.105 25.199c-5.649-5.649-11.308-8.9958-15.568-9.7768-0.6389-0.1115-1.2373-0.1724-1.8052-0.1724-1.572 0-2.8702 0.4564-3.7931 1.3691-3.4584 3.4686-0.2535 12.333 8.58 21.166"/></g></svg>