<svg xmlns="http://www.w3.org/2000/svg" id="a" viewBox="0 0 72 72"><g id="b"><path fill="#B1CC33" stroke="#B1CC33" stroke-linecap="round" stroke-linejoin="round" stroke-miterlimit="10" stroke-width="2" d="m43.98 22.748c3.2532-1.7664 6.7524-2.0682 9.8603-0.5143 6.7971 3.4098 9.1671 14.377 5.3102 24.494-3.8569 10.129-12.488 15.573-19.274 12.163-0.4877-0.2459-0.953-0.5297-1.3942-0.849-1.2846-0.9296-3.0462-0.93-4.3311-9e-4 -0.4421 0.3197-0.9078 0.6038-1.396 0.8499-6.7971 3.4097-15.428-2.0347-19.285-12.163-3.8569-10.117-1.4756-21.084 5.3102-24.494 3.1079-1.5539 6.5959-1.2633 9.838 0.4919 0 0 0.0559 0.0336 0.1677 0.0895 0.7379 0.3913 3.9128 1.9564 7.0878 1.9564 3.1637 0 7.043-1.5652 7.9598-1.9564 0.0671-0.0335 0.1118-0.0559 0.1454-0.0671"/><path fill="#f4aa41" d="m49.407 21.234c-0.0849-0.0094-0.1605 0-0.2454 0.0094l0.0377-0.2266c0.0756 0.0756 0.1417 0.1417 0.2077 0.2172z"/><path fill="#5C9E31" stroke="#5C9E31" stroke-linejoin="round" stroke-miterlimit="10" stroke-width="2" d="m36.219 57.324-0.223 0.0652c-0.6184 0.0559-1.2366 0.2328-1.7738 0.5493-0.071 0.0373-0.1521 0.0838-0.223 0.1304-0.4764 0.3166-0.9731 0.5959-1.5001 0.838-1.5103 0.6983-3.1118 1.0148-4.7336 1.0055-0.0405 0-0.081 0-0.1216-0.0093 0.2939-0.3632 2.3008-2.5791 8.5751-2.5791z"/><path fill="#5C9E31" stroke="#5C9E31" stroke-linejoin="round" stroke-miterlimit="10" stroke-width="2" d="m59.15 46.724c-3.3608 8.8364-11.248 16.127-21.397 10.856 8.2802 1.7898 28.893-18.777 11.654-36.346 1.52-0.0283 3.021 0.2927 4.4371 1.0007 6.7973 3.4081 9.1669 14.378 5.3056 24.489z"/><path fill="#B1CC33" stroke-linecap="round" stroke-linejoin="round" stroke-miterlimit="10" stroke-width="2" d="m48.453 17.224c3.9562 1.3292 6.8444 5.8193 6.8444 5.8193s-5.0134 1.8354-8.9696 0.5062c-3.9508-1.3274-6.8444-5.8193-6.8444-5.8193s5.0188-1.8336 8.9696-0.5062z"/></g><g id="c" fill="none" stroke="#000" stroke-linecap="round" stroke-linejoin="round" stroke-miterlimit="10" stroke-width="2"><polyline points="35.454 20.562 35.454 15.102 31.111 10.758"/><path d="m57.742 25.595c3.6482 4.9493 4.3968 13.296 1.4093 21.133-3.8569 10.129-12.488 15.573-19.274 12.163-0.4877-0.2459-0.953-0.5297-1.3942-0.849-1.2846-0.9296-3.0462-0.93-4.3311-9e-4 -0.4421 0.3197-0.9078 0.6038-1.396 0.8499-6.7971 3.4097-15.428-2.0347-19.285-12.163-3.8569-10.117-1.4756-21.084 5.3102-24.494 3.1079-1.5539 6.5959-1.2633 9.838 0.4919 0 0 0.0559 0.0336 0.1677 0.0895 0.7379 0.3913 3.9128 1.9564 7.0878 1.9564 0.7267 0 1.4911-0.0826 2.2487-0.2145 0 0 1.1885-0.182 2.126-0.4632"/><path d="m48.453 17.224c3.9562 1.3292 6.8444 5.8193 6.8444 5.8193s-5.0134 1.8354-8.9696 0.5062c-3.9508-1.3274-6.8444-5.8193-6.8444-5.8193s5.0188-1.8336 8.9696-0.5062z"/></g></svg>