<?xml version="1.0" encoding="UTF-8"?>
<svg id="a" version="1.1" viewBox="0 0 72 72" xmlns="http://www.w3.org/2000/svg"><g id="b"><path d="m32.33 37.54a6.688 6.688 0 0 1-6.688 6.688 6.688 6.688 0 0 1-6.688-6.688 6.688 6.688 0 0 1 6.688-6.688 6.688 6.688 0 0 1 6.688 6.688" fill="#b399c8"/><path d="m27.88 27.51a6.688 6.688 0 0 1-6.688 6.688 6.688 6.688 0 0 1-6.688-6.688 6.688 6.688 0 0 1 6.688-6.688 6.688 6.688 0 0 1 6.688 6.688" fill="#b399c8"/><path d="m31.22 34.2a6.684 6.684 0 1 0-5.897-3.531" fill="#b399c8"/><path d="m49.05 47.58a6.688 6.688 0 0 1-6.688 6.688 6.688 6.688 0 0 1-6.688-6.688 6.688 6.688 0 0 1 6.688-6.688 6.688 6.688 0 0 1 6.688 6.688" fill="#b399c8"/><path d="m37.91 47.58a6.688 6.688 0 0 1-6.688 6.688 6.688 6.688 0 0 1-6.688-6.688 6.688 6.688 0 0 1 6.688-6.688 6.688 6.688 0 0 1 6.688 6.688" fill="#b399c8"/><path d="m55.74 37.54a6.688 6.688 0 0 1-6.688 6.688 6.688 6.688 0 0 1-6.688-6.688 6.688 6.688 0 0 1 6.688-6.688 6.688 6.688 0 0 1 6.688 6.688" fill="#b399c8"/><path d="m43.48 36.43a6.688 6.688 0 0 1-6.688 6.688 6.688 6.688 0 0 1-6.688-6.688 6.688 6.688 0 0 1 6.688-6.688 6.688 6.688 0 0 1 6.688 6.688" fill="#b399c8"/><path d="m36.57 29.13a6.688 6.688 0 0 1 0 13.38" fill="#8967aa"/><path d="m57.82 27.18c0 3.693-1.239 5.486-4.762 4.377-4.713-1.483-8.869 0.0912-8.613-4.377 0.2117-3.687 2.994-6.688 6.688-6.688s6.688 2.994 6.688 6.688" fill="#8967aa"/><path d="m47.22 30.54a6.678 6.678 0 1 0-4.165 3.415" fill="#b399c8"/><path d="m43.48 57.61a6.688 6.688 0 0 1-6.688 6.688 6.688 6.688 0 0 1-6.688-6.688 6.688 6.688 0 0 1 6.688-6.688 6.688 6.688 0 0 1 6.688 6.688" fill="#b399c8"/><path d="m36.57 50.92a6.688 6.688 0 0 1 0 13.38" fill="#8967aa"/><path d="m42.16 40.89a6.688 6.688 0 0 1 0 13.38" fill="#8967aa"/><path d="m48.97 30.79a6.688 6.688 0 0 1 0 13.38" fill="#8967aa"/><path d="m41.08 20.88a6.688 6.688 0 0 1 0 13.38" fill="#8967aa"/></g><g id="c" fill="none" stroke="#000"><path d="m37.01 21.82c-1.343-7.331-6.229-22.43-22.85-7.574" stroke-linecap="round" stroke-linejoin="round" stroke-width="2"/><path d="m54.34 32.9a6.679 6.672 0 1 0-8.112-10.32" stroke-miterlimit="10"/><path d="m30.48 40.42a6.625 6.619 0 0 1-0.949-3.418 6.706 6.699 0 0 1 5.462-6.562" stroke-miterlimit="10" stroke-width="2"/><ellipse cx="36.57" cy="57.34" rx="6.721" ry="6.715" stroke-miterlimit="10" stroke-width="2"/><path d="m36.57 50.62a6.721 6.715 0 0 0 0 13.43" stroke-miterlimit="10" stroke-width="2"/><path d="m42.17 53.98q0.2552 0 0.5059-0.01869" stroke-miterlimit="10" stroke-width="2"/><path d="m42.67 53.96a6.718 6.711 0 1 0-6.551-3.756" stroke-miterlimit="10" stroke-width="2"/><path d="m36.37 43.28a6.721 6.715 0 1 0-6.042 10.67" stroke-miterlimit="10" stroke-width="2"/><path d="m43.13 33.73a6.732 6.725 0 0 0-0.2801 6.416" stroke-miterlimit="10" stroke-width="2"/><path d="m47.91 43.84a6.721 6.715 0 1 0-4.783-10.11" stroke-miterlimit="10" stroke-width="2"/><path d="m30.41 32.75a6.721 6.715 0 1 0-6.157 11.06" stroke-miterlimit="10" stroke-width="2"/><path d="m24.25 43.81a6.775 6.768 0 0 0 1.112 0.09143" stroke-miterlimit="10" stroke-width="2"/><path d="m54.5 32.93a6.721 6.715 0 1 0-8.322-10.35" stroke-miterlimit="10" stroke-width="2"/><path d="m46.68 30.78a6.708 6.701 0 1 0-3.669 2.765" stroke-miterlimit="10" stroke-width="2"/><path d="m35.83 22.48a6.723 6.716 0 0 0-10.9 7.582" stroke-miterlimit="10" stroke-width="2"/><path d="m25.64 22.37a6.721 6.715 0 1 0-6.216 11.3" stroke-miterlimit="10" stroke-width="2"/><path d="m50.57 9.212s-3.357 7.635-15.68 5.496" stroke-linecap="round" stroke-linejoin="round" stroke-width="2"/></g></svg>
