<svg xmlns="http://www.w3.org/2000/svg" id="a" viewBox="0 0 72 72"><g id="b" stroke-linejoin="round" stroke-miterlimit="10" stroke-width="2"><path fill="#A57939" stroke="#A57939" stroke-linecap="round" d="m37.17 65.34h-1.26c-6.6 0-12-5.4-12-12v-11.67c0-6.6 5.4-12 12-12h0.82s7.35 3.41 7.35 8v18 2.31s0.42 7.36-6.91 7.36z"/><path fill="#6A462F" stroke="#6A462F" stroke-linecap="round" d="m49.75 41.67v11.67c0 6.6-5.4 12-12 12h-0.58c7.33 0 6.91-7.36 6.91-7.36v-2.31-18c0-4.59-7.35-8-7.35-8h1.02c6.6 0 12 5.4 12 12z"/><path fill="#B1CC33" d="m44.374 14.679c2.1344 0.044 3.8706 0.5836 3.8706 0.5836s-2.2161 2.2134-4.6058 5.5611c1.9403 0.0441 3.5029 0.5396 3.5029 0.5396s-3.1148 3.1274-5.8109 7.4661c-1.8893 3.0393-4.5956 2.8191-4.5956 2.8191s-2.7063 0.2313-4.6058-2.8191c-2.6961-4.3388-5.8109-7.4661-5.8109-7.4661s1.5625-0.4956 3.5029-0.5396c-2.3897-3.3476-4.6058-5.5611-4.6058-5.5611s1.7361-0.5396 3.8706-0.5836c-2.2978-3.1275-4.3301-5.1536-4.3301-5.1536s7.9146-2.4337 10.938 2.4336c0.4391 0.7048 0.7762 1.3875 1.0417 2.0483 0.2553-0.6608 0.5923-1.3435 1.0315-2.0483 3.0228-4.8673 10.938-2.4336 10.938-2.4336s-2.0325 2.0262-4.3303 5.1536z"/><path fill="#B1CC33" stroke-linecap="round" d="m43.639 20.823c-3.0513 1.236-3.5224 3.1594-4.3209 4.0898"/><path fill="#B1CC33" stroke-linecap="round" d="m44.374 14.679s-4.4382 1.5439-4.6699 4.3635"/><path fill="#B1CC33" stroke-linecap="round" d="m29.856 20.823c3.0513 1.236 3.5224 3.1594 4.3209 4.0898"/><path fill="#B1CC33" stroke-linecap="round" d="m29.121 14.679s4.4382 1.5439 4.6699 4.3635"/></g><g id="c" fill="none" stroke="#000" stroke-linejoin="round" stroke-miterlimit="10" stroke-width="2"><path stroke-linecap="round" d="m45.305 32.368c2.7068 2.205 4.443 5.5616 4.443 9.3041v11.667c0 6.6-5.4 12-12 12h-1.8343c-6.6 0-12-5.4-12-12v-11.667c0-4.0844 2.0681-7.7093 5.2089-9.8792"/><path d="m44.374 14.679c2.1344 0.044 3.8706 0.5836 3.8706 0.5836s-2.2161 2.2134-4.6058 5.5611c1.9403 0.0441 3.5029 0.5396 3.5029 0.5396s-3.1148 3.1274-5.8109 7.4661c-1.8893 3.0393-4.5956 2.8191-4.5956 2.8191s-2.7063 0.2313-4.6058-2.8191c-2.6961-4.3388-5.8109-7.4661-5.8109-7.4661s1.5625-0.4956 3.5029-0.5396c-2.3897-3.3476-4.6058-5.5611-4.6058-5.5611s1.7361-0.5396 3.8706-0.5836c-2.2978-3.1275-4.3301-5.1536-4.3301-5.1536s7.9146-2.4337 10.938 2.4336c0.4391 0.7048 0.7762 1.3875 1.0417 2.0483 0.2553-0.6608 0.5923-1.3435 1.0315-2.0483 3.0228-4.8673 10.938-2.4336 10.938-2.4336s-2.0325 2.0262-4.3303 5.1536z"/><path stroke-linecap="round" d="m43.639 20.823c-3.0513 1.236-3.5224 3.1594-4.3209 4.0898"/><path stroke-linecap="round" d="m44.374 14.679s-4.4382 1.5439-4.6699 4.3635"/><path stroke-linecap="round" d="m29.856 20.823c3.0513 1.236 3.5224 3.1594 4.3209 4.0898"/><path stroke-linecap="round" d="m29.121 14.679s4.4382 1.5439 4.6699 4.3635"/></g></svg>