<svg xmlns="http://www.w3.org/2000/svg" id="a" viewBox="0 0 72 72"><g id="b"><circle cx="36" cy="39.073" r="21" fill="#f1b31c"/><circle cx="26" cy="46.346" r=".909"/><circle cx="26.909" cy="49.982" r=".909"/><circle cx="29.636" cy="47.255" r=".909"/><path fill="#e27022" d="m49.294 22.814a9.6511 9.6511 0 0 1-2.5425 1.5039 9.46 9.46 0 0 1-1.7473 0.503 20.946 20.946 0 0 1-15.473 34.212 20.985 20.985 0 0 0 19.762-36.219z"/><path fill="#b1cc33" d="m36 22.326a7.2293 7.2293 0 0 1 4.2028 0.8654c3.5973 2.06 9.6312 0.0634 11.284-5.3548a4.077 4.077 0 0 1-2.427-1.3621c-2.4795-2.9866-10.247-3.2113-13.06 5.8515z"/></g><g id="c" fill="none" stroke="#000" stroke-linecap="round" stroke-linejoin="round" stroke-width="2"><path d="m36 22.326a7.2293 7.2293 0 0 1 4.2028 0.8654c3.5973 2.06 9.6312 0.0634 11.284-5.3548a4.077 4.077 0 0 1-2.427-1.3621c-2.4795-2.9866-10.247-3.2113-13.06 5.8515z"/><path d="m49.832 24.628a19.997 19.997 0 1 1-17.945-5.1311"/><path d="m31.374 14.624s5.1161 1.0498 4.6255 7.7021"/></g></svg>