<svg xmlns="http://www.w3.org/2000/svg" id="a" viewBox="0 0 72 72"><g id="b"><path fill="#8967AA" stroke="#8967AA" stroke-linecap="round" stroke-linejoin="round" stroke-miterlimit="10" stroke-width="2" d="m60.62 23.81c0.23 11.63-3.41 21.98-9.12 27.19-0.1 0.1-0.19 0.2-0.3 0.3-0.2 0.21-0.4 0.42-0.62 0.62-0.3 0.29-0.61 0.58-0.93 0.86-0.36 0.33-0.73 0.64-1.11 0.95-0.18 0.15-0.37 0.29-0.56 0.44-0.55 0.43-1.11 0.84-1.69 1.23-0.21 0.14-0.41 0.28-0.62 0.41-6.09 3.93-13.56 5.84-21.26 5-0.8-0.09-1.61-0.21-2.41-0.37-1.18-0.27-2.28-0.68-3.31-1.2 35.9-0.26 32.722-32.51 32.622-35.74l9.3075 0.31z"/><path fill="#B399C8" stroke="#B399C8" stroke-linecap="round" stroke-linejoin="round" stroke-miterlimit="10" stroke-width="2" d="m43.34 22.61-0.25-0.02c0.11-0.13 0.2-0.12 0.25 0.02z"/><path fill="#B399C8" stroke="#B399C8" stroke-linecap="round" stroke-linejoin="round" stroke-miterlimit="10" stroke-width="2" d="m18.69 59.24c-0.1-0.04-0.2-0.09-0.29-0.14-5.33-2.86-8.39-8.83-7.12-14.91 1.57-7.52 9.13-12.38 16.87-10.86 0 0 8.1 2.63 13.35-3.8 1.79-2.19 2.18-6.21 1.84-6.92l10.8 0.75-2.9525-1.4225c0.1 3.23 3.4025 37.042-32.498 37.302z"/><path fill="#5C9E31" stroke="#5C9E31" stroke-linecap="round" stroke-linejoin="round" stroke-miterlimit="10" stroke-width="2" d="m61.69 26.22s-3.72 0.53-6.8-1.81c-0.54 3.78-3.52 6.01-3.52 6.01s-2.97-2.23-3.51-6.01c-0.71 0.54-1.46 0.93-2.19 1.2-2.42 0.92-4.62 0.61-4.62 0.61s-0.63-4.47 2.55-7.66c0.65-0.66 1.36-1.15 2.07-1.52 2.76-1.44 10.28-1.68 13.48 1.52 3.19 3.19 2.54 7.66 2.54 7.66z"/><path fill="#B1CC33" d="m51.37 30.42s-2.97-2.23-3.51-6.01c-0.71 0.54-1.46 0.93-2.19 1.2-2.42 0.92-4.62 0.61-4.62 0.61s-0.63-4.47 2.55-7.66c0.65-0.66 1.36-1.15 2.07-1.52 2.76-1.44 5.59-1.04 5.59-1.04l0.11 14.42z"/></g><g id="c" fill="none" stroke="#000" stroke-linecap="round" stroke-linejoin="round" stroke-miterlimit="10" stroke-width="2"><path d="m60.276 30.418c-0.0991 1.8395-0.539 3.8125-0.9248 5.6459-3.3074 15.922-18.607 26.532-34.936 24.742-0.8085-0.0847-1.617-0.2057-2.4133-0.3629-7.4724-1.718-12.25-8.9046-10.719-16.248 1.568-7.5253 9.1261-12.389 16.868-10.865 0 0 7.7474 1.9693 12.85-3.1818"/><path d="M50.7929,11.9832C50.1897,10.9538,49.0717,10,47,10"/><path d="m61.69 26.22s-3.72 0.53-6.8-1.81c-0.54 3.78-3.52 6.01-3.52 6.01s-2.97-2.23-3.51-6.01c-0.71 0.54-1.46 0.93-2.19 1.2-2.42 0.92-4.62 0.61-4.62 0.61s-0.63-4.47 2.55-7.66c0.65-0.66 1.36-1.15 2.07-1.52 2.76-1.44 10.28-1.68 13.48 1.52 3.19 3.19 2.54 7.66 2.54 7.66z"/><path d="m41.001 30.148c0.1285-0.1297 0.2554-0.264 0.3803-0.4029"/></g></svg>