<?xml version="1.0" encoding="UTF-8"?>
<svg id="a" viewBox="0 0 72 72" xmlns="http://www.w3.org/2000/svg"><g id="b" stroke-linejoin="round" stroke-miterlimit="10" stroke-width="2"><path d="m55.226 56.781c-10.988 10.977-28.78 10.977-39.768 0-10.976-10.988-10.976-28.78 0-39.768l2.6542 2.6542c-9.5258 9.5145-9.5258 24.945 0 34.459 9.5145 9.5258 24.945 9.5258 34.459 0l2.6542 2.6541z" fill="#B1CC33"/><path d="m52.572 54.126c-9.5145 9.5258-24.945 9.5258-34.459 0-9.5258-9.5145-9.5258-24.945 0-34.459l34.459 34.459" fill="#EA5A47" stroke="#EA5A47" stroke-linecap="round"/><path d="m49.524 56.718c-9.5196 6.8373-22.857 5.9734-31.412-2.5916-8.6198-8.6097-9.4396-22.063-2.4594-31.594" fill="#EA5A47" stroke-linecap="round"/></g><g id="c"><path d="m55.226 56.781c-10.988 10.977-28.78 10.977-39.768 0-10.976-10.988-10.976-28.78 0-39.768l2.6542 2.6542c-9.5258 9.5145-9.5258 24.945 0 34.459 9.5145 9.5258 24.945 9.5258 34.459 0l2.6542 2.6541z" fill="none" stroke="#000" stroke-linejoin="round" stroke-miterlimit="10" stroke-width="2"/><line x1="17.516" x2="53.722" y1="19.071" y2="55.277" fill="none" stroke="#000" stroke-linecap="round" stroke-linejoin="round" stroke-miterlimit="10" stroke-width="2"/><path d="m49.524 56.718c-9.5196 6.8373-22.857 5.9734-31.412-2.5916-8.6198-8.6097-9.4396-22.063-2.4594-31.594" fill="none" stroke="#000" stroke-linecap="round" stroke-linejoin="round" stroke-miterlimit="10" stroke-width="2"/><ellipse transform="matrix(.7071 -.7071 .7071 .7071 -23.846 36.246)" cx="31.83" cy="46.907" rx="1.687" ry=".8435"/><ellipse transform="matrix(.7071 -.7071 .7071 .7071 -24.617 47.107)" cx="44.554" cy="53.269" rx="1.687" ry=".8435"/><ellipse transform="matrix(.7071 -.7071 .7071 .7071 -29.469 38.575)" cx="31.83" cy="54.86" rx="1.687" ry=".8435"/><ellipse transform="matrix(.7071 -.7071 .7071 .7071 -21.355 30.233)" cx="25.817" cy="40.894" rx="1.687" ry=".8435"/><ellipse transform="matrix(.7071 -.7071 .7071 .7071 -14.221 22.007)" cx="19.455" cy="28.17" rx="1.687" ry=".8435"/><ellipse transform="matrix(.7071 -.7071 .7071 .7071 -23.684 24.609)" cx="17.864" cy="40.894" rx="1.687" ry=".8435"/><ellipse transform="matrix(.7071 -.7071 .7071 .7071 -28.89 30.425)" cx="22.281" cy="50.086" rx="1.687" ry=".8435"/></g></svg>
