<svg xmlns="http://www.w3.org/2000/svg" id="a" viewBox="0 0 72 72"><g id="b"><path fill="#b1cc33" d="m28.919 27.91c8.1523-6.8285 20.773-4.925 20.773-4.925s-0.5995 12.836-8.6246 19.455-20.773 4.9249-20.773 4.9249 0.4724-12.627 8.6246-19.455z"/></g><g id="c" fill="none" stroke="#000" stroke-linecap="round" stroke-linejoin="round" stroke-width="2"><path d="m29.63 27.91c8.1523-6.8285 20.773-4.925 20.773-4.925s-0.5994 12.836-8.6245 19.455-20.773 4.9249-20.773 4.9249 0.4723-12.627 8.6245-19.455z"/><path d="m54.086 38.543a10.246 10.246 0 0 1-1.58 4.7407 11.317 11.317 0 0 1-7.901 4.7406"/><path d="m58.826 41.703a10.245 10.245 0 0 1-1.58 4.7407 11.317 11.317 0 0 1-7.9011 4.7406"/><path d="m17.741 30.642a10.246 10.246 0 0 1 1.58-4.7407 11.317 11.317 0 0 1 7.9013-4.741"/><path d="m13 27.481a10.245 10.245 0 0 1 1.58-4.7407 11.317 11.317 0 0 1 7.9013-4.7406"/><line x1="18" x2="20.901" y1="50" y2="47.024"/></g></svg>