<svg xmlns="http://www.w3.org/2000/svg" id="a" viewBox="0 0 72 72"><g id="b"><path fill="#ea5a47" d="m53.88 21.51a11.417 11.417 0 0 0-10.737 0.5044c-0.0352 0.0156-0.0723 0.0332-0.1084 0.0517a22.914 22.914 0 0 1-7.5674 1.8765 15.907 15.907 0 0 1-6.6377-1.85l-0.1416-0.0757a11.41 11.41 0 0 0-10.764-0.5064c-7.2239 3.6301-9.8231 15.18-5.7948 25.743 2.373 6.2324 6.6846 11.08 11.535 12.966a10.983 10.983 0 0 0 9.1337-0.2656 11.377 11.377 0 0 0 1.5323-0.9316 2.7261 2.7261 0 0 1 3.1582 0 11.173 11.173 0 0 0 1.5312 0.9326 10.465 10.465 0 0 0 4.7354 1.1269 12.078 12.078 0 0 0 4.3828-0.8593c4.8515-1.8858 9.165-6.7334 11.539-12.968 4.0303-10.57 1.4307-22.12-5.7969-25.745z"/><path fill="#f4aa41" d="m48.999 21.405a1.0736 1.0736 0 0 0-0.2454 0.0094l0.0377-0.2266c0.0755 0.0756 0.1417 0.1417 0.2077 0.2172z"/><path fill="#d22f27" d="m53.883 21.511a10.367 10.367 0 0 0-4.9023-1.1064 1 1 0 0 0-0.6954 1.7c9.4434 9.6245 6.3877 19.16 3.7266 23.988-3.8916 7.0586-10.844 11.466-14.457 10.68a1 1 0 0 0-0.6719 1.8652 15.513 15.513 0 0 0 7.1689 1.8984 12.895 12.895 0 0 0 4.629-0.8632c4.66-1.7764 8.6679-6.3038 10.995-12.422 4.0351-10.568 1.4375-22.115-5.793-25.74z"/><path fill="#b1cc33" d="m48.044 17.395c3.9562 1.3292 6.8444 5.8193 6.8444 5.8193s-5.0135 1.8354-8.97 0.5062c-3.9508-1.3274-6.8444-5.8193-6.8444-5.8193s5.0192-1.8336 8.97-0.5062z"/></g><g id="c"><g id="d" fill="none" stroke="#000" stroke-linecap="round" stroke-linejoin="round" stroke-width="2"><polyline points="35.046 20.733 35.046 15.272 30.702 10.929"/><path d="m57.334 25.766c3.6482 4.9493 4.3968 13.296 1.4093 21.133-3.8569 10.129-12.488 15.573-19.274 12.163a10.24 10.24 0 0 1-1.3942-0.849 3.7126 3.7126 0 0 0-4.3311-9e-4 10.27 10.27 0 0 1-1.396 0.85c-6.7971 3.41-15.428-2.0347-19.285-12.163-3.8569-10.117-1.4756-21.084 5.31-24.494a10.42 10.42 0 0 1 9.838 0.4919s0.0559 0.0336 0.1677 0.09a16.863 16.863 0 0 0 7.0878 1.9564 13.271 13.271 0 0 0 2.2487-0.2145 18.634 18.634 0 0 0 2.126-0.4632"/><path d="m48.044 17.395c3.9562 1.3292 6.8444 5.8193 6.8444 5.8193s-5.0135 1.8354-8.97 0.5062c-3.9508-1.3274-6.8444-5.8193-6.8444-5.8193s5.0192-1.8336 8.97-0.5062z"/></g></g></svg>