<?xml version="1.0" encoding="UTF-8"?>
<svg id="a" viewBox="0 0 72 72" xmlns="http://www.w3.org/2000/svg"><g id="b"><path d="m55.732 36.689c5.4323 6.2313 4.1316 16.317 4.1316 16.317s-9.9309-0.223-15.363-6.4543-4.1316-16.317-4.1316-16.317 10.046 0.069 15.363 6.4543z" fill="#a57939"/><path d="M19.7623,22.3615C26.1543,17.0075,36.05,18.5,36.05,18.5s-.47,10.065-6.7623,15.2543S13,37.6159,13,37.6159,13.37,27.7156,19.7623,22.3615Z" fill="#e27022"/></g><g id="c" fill="none" stroke="#000" stroke-linecap="round" stroke-linejoin="round" stroke-width="2"><path d="M19.7623,22.3615C26.1543,17.0075,36.05,18.5,36.05,18.5s-.47,10.065-6.7623,15.2543S13,37.6159,13,37.6159,13.37,27.7156,19.7623,22.3615Z"/><path d="m55.732 36.689c5.4323 6.2313 4.1316 16.317 4.1316 16.317s-9.9309-0.223-15.363-6.4543-4.1316-16.317-4.1316-16.317 10.046 0.069 15.363 6.4543z"/></g></svg>
