<svg xmlns="http://www.w3.org/2000/svg" id="a" viewBox="0 0 72 72"><g id="b"><path fill="#fcea2b" stroke-linecap="round" stroke-miterlimit="10" stroke-width="2" d="m16.03 55.937c-1.5967-1.6729-1.9362-4.0928-1.0184-6.0812-4.2565-8.3473-1.6753-20.26 6.9544-28.889s20.542-11.211 28.889-6.9545c2.026-0.9351 4.4999-0.5649 6.1752 1.1104s2.0455 4.1493 1.1104 6.1752c4.2661 8.3571 1.6753 20.26-6.9545 28.889s-20.532 11.221-28.889 6.9544c-2.026 0.9351-4.5 0.5649-6.1753-1.1103-0.031-0.031-0.0616-0.0624-0.0918-0.094"/><path fill="#f4aa41" d="m50.556 50.012c-8.631 8.631-20.535 11.221-28.894 6.9571 34.683 0 36.337-35.146 36.337-35.146 4.2734 8.3505 1.179 19.558-7.4426 28.188z"/><path fill="#f4aa41" d="m30.454 59.988c-3.2764 0-10.454-2.9883-10.454-2.9883l-2.5-1.0303h4.1611c13.988 0 24.181-5.7363 30.295-17.048 4.5869-8.4883 5.0391-17.059 5.043-17.144l0.1768-3.7549 1.7129 3.3462c4.4639 8.7231 1.4707 20.245-7.626 29.351-6 6-13.69 9.2686-20.809 9.2686zm-3.5254-2.3028c7.4531 1.3506 16.269-1.7285 22.92-8.3799 7.0859-7.0947 10.258-16.001 8.5996-23.312-1.6289 8.8477-7.9189 29.064-31.52 31.692z"/><path fill="#f4aa41" d="m56.961 14.901s1.8262 4.8233 0.9674 7.234l-4.1007-4.1006 3.1333-3.1334"/><path fill="#f4aa41" d="m16.168 57.121s5.0539 1.0283 7.2955-0.2063l-4.7058-3.3893-2.5897 3.5956"/></g><g id="c" fill="none" stroke="#000" stroke-linecap="round" stroke-miterlimit="10" stroke-width="2"><path d="m16.03 55.937c-1.5967-1.6729-1.9362-4.0928-1.0184-6.0812-4.2565-8.3473-1.6753-20.26 6.9544-28.889s20.542-11.211 28.889-6.9545c2.026-0.9351 4.4999-0.5649 6.1752 1.1104s2.0455 4.1493 1.1104 6.1752c4.2661 8.3571 1.6753 20.26-6.9545 28.889s-20.532 11.221-28.889 6.9544c-2.026 0.9351-4.5 0.5649-6.1753-1.1103-0.031-0.031-0.0616-0.0624-0.0918-0.094"/><path d="m16.03 55.937c-1.5967-1.6729-1.9362-4.0928-1.0184-6.0812-4.2565-8.3473-1.6753-20.26 6.9544-28.889s20.542-11.211 28.889-6.9545c2.026-0.9351 4.4999-0.5649 6.1752 1.1104s2.0455 4.1493 1.1104 6.1752c4.2661 8.3571 1.6753 20.26-6.9545 28.889s-20.532 11.221-28.889 6.9544c-2.026 0.9351-4.5 0.5649-6.1753-1.1103-0.031-0.031-0.0616-0.0624-0.0918-0.094"/></g></svg>