<svg xmlns="http://www.w3.org/2000/svg" id="a" viewBox="0 0 72 72"><g id="b"><path fill="#f4aa41" d="m36.044 11.166c3.6923 4.6154 5.5385 8.3077 6.4615 15.692 0.4173 3.3383 0 5.5385-0.2838 7.9244 0 0 11.32-9.7705 18.705-7.0013 0 0-6.4615 6.4615-7.3846 9.2308-0.9231 2.7692-2.7692 6.4615-6.4615 6.4615 0 0 0 4.6154 10.154 2.7692 0 0-6.4615 10.154-17.538 5.5385 0 0-1.8462 0.9231-1.8462 7.3846h-3.611c0-6.4615-1.8462-7.3846-1.8462-7.3846-11.077 4.6154-17.538-5.5385-17.538-5.5385 10.154 1.8462 10.154-2.7692 10.154-2.7692-3.6923 0-5.5385-3.6923-6.4615-6.4615-0.9231-2.7692-7.3846-9.2308-7.3846-9.2308 7.3846-2.7692 18.705 7.0013 18.705 7.0013-0.2838-2.3859-0.7011-4.5861-0.2838-7.9244 0.923-7.3846 2.7692-11.077 6.4615-15.692z"/></g><g id="c"><path fill="none" stroke="#000" stroke-linecap="round" stroke-linejoin="round" stroke-miterlimit="10" stroke-width="2" d="m36.044 10.906c3.6923 4.6154 5.5385 8.3077 6.4615 15.692 0.4173 3.3383 0 5.5385-0.2838 7.9244 0 0 11.32-9.7705 18.705-7.0013 0 0-6.4615 6.4615-7.3846 9.2308-0.9231 2.7692-2.7692 6.4615-6.4615 6.4615 0 0 0 4.6154 10.154 2.7692 0 0-6.4615 10.154-17.538 5.5385 0 0-1.8462 0.9231-1.8462 7.3846h-3.611c0-6.4615-1.8462-7.3846-1.8462-7.3846-11.077 4.6154-17.538-5.5385-17.538-5.5385 10.154 1.8462 10.154-2.7692 10.154-2.7692-3.6923 0-5.5385-3.6923-6.4615-6.4615-0.9231-2.7692-7.3846-9.2308-7.3846-9.2308 7.3846-2.7692 18.705 7.0013 18.705 7.0013-0.2838-2.3859-0.7011-4.5861-0.2838-7.9244 0.9231-7.3846 2.7693-11.077 6.4616-15.692v0z"/></g></svg>