<svg xmlns="http://www.w3.org/2000/svg" id="a" viewBox="0 0 72 72"><g id="b" stroke-linejoin="round" stroke-miterlimit="10"><ellipse cx="35.825" cy="37.598" fill="#EA5A47" stroke="#EA5A47" stroke-linecap="round" stroke-width="1.8" rx="25.015" ry="22.382"/><path fill="#D22F27" stroke="#D22F27" stroke-width="1.8" d="m60.528 37.598c0 12.365-10.89 22.382-24.703 22.382 17.4-4.1037 31.96-32.932 0-44.763 5.0852 0 9.8164 1.3576 13.765 3.6901 6.7774 4.0033 10.938 10.879 10.938 18.692z"/><path fill="#B1CC33" stroke-width="2" d="m46.324 15.849c-0.384 1.3824-0.9937 3.0311-2.4357 4.235-5.8888 4.9161-13.638 3.2037-17.072-1e-4 -1.3604-1.2836-2.0407-2.8525-2.4246-4.235-0.6364-2.2821-0.3621-4.1691-0.3621-4.1691s2.2821-0.3291 4.8384 0.5815c0.8668 0.3072 1.7664 0.757 2.6222 1.4044 0.4827-3.3682 2.7319-5.6174 3.5547-6.3415l0.3072-0.2523 0.3072 0.2523c0.8229 0.7242 3.0721 2.9733 3.5548 6.3415 0.8557-0.6473 1.7554-1.0971 2.6221-1.4044 2.5564-0.9106 4.8384-0.5815 4.8384-0.5815s0.2853 1.8871-0.3511 4.1692z"/></g><g id="c" fill="none" stroke="#000" stroke-linejoin="round" stroke-miterlimit="10" stroke-width="2"><path stroke-linecap="round" d="m50.307 19.346c6.3743 4.0565 10.532 10.72 10.532 18.251 0 12.361-11.2 22.382-25.015 22.382s-25.015-10.021-25.015-22.382c0-7.3745 3.9861-13.916 10.136-17.994"/><path d="m46.324 15.849c-0.384 1.3824-0.9937 3.0311-2.4357 4.235-5.8888 4.9161-13.638 3.2037-17.072-1e-4 -1.3604-1.2836-2.0407-2.8525-2.4246-4.235-0.6364-2.2821-0.3621-4.1691-0.3621-4.1691s2.2821-0.3291 4.8384 0.5815c0.8668 0.3072 1.7664 0.757 2.6222 1.4044 0.4827-3.3682 2.7319-5.6174 3.5547-6.3415l0.3072-0.2523 0.3072 0.2523c0.8229 0.7242 3.0721 2.9733 3.5548 6.3415 0.8557-0.6473 1.7554-1.0971 2.6221-1.4044 2.5564-0.9106 4.8384-0.5815 4.8384-0.5815s0.2853 1.8871-0.3511 4.1692z"/></g></svg>