<?xml version="1.0" encoding="UTF-8"?>
<svg id="a" viewBox="0 0 72 72" xmlns="http://www.w3.org/2000/svg"><g id="b"><path d="m36.153 60.168h-0.0274l-0.0439-0.0019c-3.9814-0.1885-12.486-4.3536-19.123-18.769a14.537 14.537 0 0 1 0.4423-14.669c3.4786-5.4161 10.37-8.3526 18.892-8.0166 8.4278-0.2959 15.279 2.6328 18.744 8.0371 2.7558 4.3007 2.8877 9.6679 0.3623 14.726-2.8965 6.2735-10.643 18.294-19.138 18.69-0.0234 9e-4 -0.0733 0.0019-0.1084 0.0019z" fill="#ea5a47"/><path d="m55.037 26.749c-3.4649-5.4043-10.316-8.333-18.744-8.0371a31.649 31.649 0 0 0-3.5044 0.0584c6.8992 0.4828 12.438 3.3011 15.437 7.9787 2.7559 4.3008 2.8877 9.668 0.3623 14.727-2.5024 5.42-8.6257 15.124-15.724 17.921a10.271 10.271 0 0 0 3.2175 0.7694l0.0439 2e-3h0.0274c0.0351 0 0.085-1e-3 0.1084-2e-3 8.4951-0.3964 16.241-12.417 19.138-18.69 2.5254-5.059 2.3935-10.426-0.3623-14.727z" fill="#d22f27"/><path d="M26.9616,27.7258a1,1,0,0,1-.9219-.6153,5.4579,5.4579,0,0,1-.334-2.72c-6.9277.1084-8.4775-1.9932-8.7256-2.4385a1,1,0,0,1,.2159-1.2412,17.9743,17.9743,0,0,1,16.2324-3.9277v-.9316a2.0464,2.0464,0,0,1,2.0439-2.044h1.251a2.0463,2.0463,0,0,1,2.0439,2.044v.9794a17.9573,17.9573,0,0,1,16.4375,3.88,1,1,0,0,1,.2159,1.2412c-.2491.4473-1.8242,2.56-8.8467,2.4366a6.3533,6.3533,0,0,1-.5088,2.7744,1.0015,1.0015,0,0,1-.8994.5625c-3.5869,0-7.4912-1.9766-8.9268-2.7783-3.2646,2.0214-8.9013,2.7392-9.1533,2.77A1.075,1.075,0,0,1,26.9616,27.7258Z" fill="#5c9e31"/><circle cx="25.198" cy="33.736" r="2" fill="#d22f27"/><circle cx="33.198" cy="33.736" r="2" fill="#d22f27"/><circle cx="40.198" cy="33.736" r="2" fill="#d22f27"/><circle cx="47.198" cy="33.736" r="2" fill="#d22f27"/><circle cx="44.198" cy="42.146" r="2" fill="#d22f27"/><circle cx="36.198" cy="42.146" r="2" fill="#d22f27"/><circle cx="28.198" cy="42.146" r="2" fill="#d22f27"/><circle cx="32.198" cy="51.744" r="2" fill="#d22f27"/><circle cx="40.198" cy="51.744" r="2" fill="#d22f27"/></g><g id="c" fill="none" stroke="#000" stroke-linecap="round" stroke-linejoin="round" stroke-width="2"><line x1="24.994" x2="24.994" y1="34.744" y2="32.728"/><line x1="32.994" x2="32.994" y1="34.744" y2="32.728"/><line x1="39.994" x2="39.994" y1="34.744" y2="32.728"/><line x1="46.994" x2="46.994" y1="34.744" y2="32.728"/><line x1="43.994" x2="43.994" y1="43.154" y2="41.138"/><line x1="35.994" x2="35.994" y1="43.154" y2="41.138"/><line x1="27.994" x2="27.994" y1="43.154" y2="41.138"/><line x1="31.994" x2="31.994" y1="52.752" y2="50.736"/><line x1="39.994" x2="39.994" y1="52.752" y2="50.736"/><path d="M45.4354,23.349c7.8372.4,9.11-1.8828,9.11-1.8828a17.0606,17.0606,0,0,0-16.78-3.3117V15.8529a1.0439,1.0439,0,0,0-1.0439-1.0438H35.47a1.0439,1.0439,0,0,0-1.0439,1.0438V18.09a17.031,17.031,0,0,0-16.5755,3.3767s1.2725,2.2824,9.11,1.8828a5.0163,5.0163,0,0,0,0,3.3783s6.28-.7782,9.2376-2.9572c0,0,4.7944,2.9572,8.9651,2.9572A5.55,5.55,0,0,0,45.4354,23.349Z"/><path d="m53.003 25.702a13.698 13.698 0 0 1 1.19 1.5887c2.56 3.9955 2.6736 9.0035 0.31 13.74-2.8141 6.0928-10.277 17.764-18.291 18.138l-0.0447 0.0019-0.0446-0.0019c-7.9926-0.3789-15.438-12.063-18.259-18.188a13.592 13.592 0 0 1 0.3753-13.711 13.802 13.802 0 0 1 1.1712-1.5664"/></g></svg>
