<svg xmlns="http://www.w3.org/2000/svg" id="a" viewBox="0 0 72 72"><g id="b"><path fill="#B1CC33" stroke="#B1CC33" stroke-miterlimit="10" stroke-width="2" d="m56.599 32.869c6.3433 6.3433 6.3359 16.624 0 22.96-6.3433 6.3433-16.617 6.3433-22.96 0-0.1776-0.1776-0.3405-0.3553-0.5107-0.5403-1.5396-1.6728-2.6573-3.6046-3.3604-5.6401-0.6588-1.5469-1.2509-3.1901-1.8431-4.8481-1.5987-4.4558-3.1901-8.9931-6.2396-12.043-3.2716-3.2716-3.2716-8.5711 0-11.843 3.2641-3.2641 8.5712-3.2716 11.843 0 3.0495 3.0495 7.5868 4.6409 12.043 6.2396 1.658 0.5922 3.3012 1.1843 4.8482 1.843 2.1169 0.9178 4.0709 1.9689 5.6401 3.3604 0.1851 0.1703 0.3627 0.3331 0.5403 0.5107z"/><path fill="#5C9E31" d="m56.599 55.83c-4.7458 4.7574-11.386 4.6603-11.386 4.6603 22.205-13.198 5.2078-31.496 5.2078-31.496s4.0668 1.9735 5.6346 3.366c0.1937 0.166 0.3689 0.332 0.5441 0.5072 6.3447 6.3447 6.3278 16.619 0 22.963z"/></g><g id="c" fill="none" stroke="#000" stroke-linecap="round" stroke-linejoin="round" stroke-miterlimit="10" stroke-width="2"><path d="m21.738 21.593s-5.271-5.1624-10.488 0.0543"/><path d="m24.88 18.919c2.9293-1.0048 6.3086-0.3418 8.6475 1.9971 3.0495 3.0495 7.5868 4.6409 12.043 6.2396 1.658 0.5922 3.3012 1.1843 4.8482 1.843 2.1169 0.9178 4.0709 1.9689 5.6401 3.3604 0.185 0.1702 0.3627 0.333 0.5403 0.5107 6.3433 6.3433 6.3359 16.624 0 22.96-6.3433 6.3433-16.617 6.3433-22.96 0-0.1776-0.1776-0.3405-0.3553-0.5107-0.5403-1.5396-1.6728-2.6573-3.6046-3.3604-5.6401-0.6588-1.5469-1.2509-3.1901-1.8431-4.8481-1.5987-4.4558-3.1901-8.9931-6.2396-12.043-2.1564-2.1564-2.8915-5.1939-2.2052-7.9509"/></g></svg>