<svg xmlns="http://www.w3.org/2000/svg" id="a" viewBox="0 0 72 72"><g id="b"><path fill="#f4aa41" d="m51.678 23.857c0.7129 0.418 1.3868 0.9239 2 1.5362 3.9043 3.9057 3.9043 10.238-0.0019 14.142-0.9317 0.9316-2.002 1.6347-3.1445 2.1211-0.9532 0.4082-1.9825 0.5097-2.9727 0.7636-2.3955 0.6133-4.5059 2.6309-5.1338 5.0196-0.291 1.1074-0.3906 2.2656-0.876 3.3261-0.4824 1.0537-1.1455 2.0449-2.0136 2.9121-3.9053 3.9053-10.236 3.9063-14.143 0-0.6113-0.6113-1.1172-1.2871-1.5352-1.999-0.4629-0.79-0.8164-1.626-1.0469-2.4892-0.8632-0.2305-1.6992-0.584-2.4882-1.0469-0.7129-0.417-1.3887-0.9238-2-1.5352-3.9063-3.9062-3.9053-10.237 0-14.143 0.8681-0.8681 1.8593-1.5312 2.9131-2.0136 1.0605-0.4854 2.2177-0.585 3.3251-0.876 2.3877-0.6284 4.4063-2.7378 5.0196-5.1343 0.2539-0.9902 0.3564-2.0205 0.7637-2.9746 0.4863-1.1406 1.1894-2.2129 2.121-3.1445 3.9053-3.9043 10.236-3.9053 14.141 0 0.6113 0.6113 1.1191 1.2871 1.5371 2 0.4629 0.789 0.8144 1.625 1.0449 2.4892 0.8633 0.2305 1.7012 0.583 2.4902 1.0459z"/><path fill="#fff" d="m20.322 48.143-3.7676 3.7676c-1.1719-1.1719-3.0723-1.1719-4.2432 0-1.1709 1.1718-1.1709 3.0703 1e-3 4.2421 0.7383 0.7393 1.7656 1.0098 2.7188 0.8165-0.1934 0.9531 0.0771 1.9804 0.8164 2.7187 1.1718 1.1719 3.0703 1.1719 4.2421 1e-3 1.1719-1.1709 1.1719-3.0713 0-4.2432l3.7676-3.7666"/><path fill="#fff" d="m51.678 23.857 3.7676-3.7676c1.1719 1.1719 3.0723 1.1719 4.2432 0 1.1709-1.1718 1.1709-3.0703-1e-3 -4.2421-0.7383-0.7393-1.7656-1.0098-2.7188-0.8165 0.1934-0.9531-0.0771-1.9804-0.8164-2.7187-1.1718-1.1719-3.0703-1.1719-4.2421-1e-3 -1.1719 1.1709-1.1719 3.0713 0 4.2432l-3.7676 3.7666"/></g><g id="c" fill="none" stroke="#000" stroke-linecap="round" stroke-linejoin="round" stroke-miterlimit="10" stroke-width="2"><path d="m20.322 48.143-3.7676 3.7676c-1.1719-1.1719-3.0723-1.1719-4.2432 0-1.1709 1.1718-1.1709 3.0703 1e-3 4.2421 0.7383 0.7393 1.7656 1.0098 2.7188 0.8165-0.1934 0.9531 0.0771 1.9804 0.8164 2.7187 1.1718 1.1719 3.0703 1.1719 4.2421 1e-3 1.1719-1.1709 1.1719-3.0713 0-4.2432l3.7676-3.7666"/><path d="m20.322 48.143c0.789 0.4629 1.625 0.8164 2.4882 1.0469 0.2305 0.8632 0.584 1.6992 1.0469 2.4892"/><path d="m51.678 23.857 3.7676-3.7675c1.1719 1.1718 3.0703 1.1718 4.2422 0 1.1719-1.1709 1.1719-3.0704 0-4.2422-0.7383-0.7383-1.7656-1.0098-2.7187-0.8164 0.1933-0.9532-0.0782-1.9805-0.8165-2.7188-1.1718-1.1719-3.0722-1.1719-4.2441 0-1.1699 1.1709-1.1719 3.0703 0 4.2422l-3.7656 3.7676"/><path d="m48.143 20.322c-0.418-0.7129-0.9258-1.3887-1.5371-2-3.9043-3.9053-10.235-3.9043-14.141 0-0.9316 0.9316-1.6347 2.0039-2.121 3.1445-0.4073 0.9541-0.5098 1.9844-0.7637 2.9746-0.6133 2.3965-2.6319 4.5059-5.0196 5.1343-1.1074 0.291-2.2646 0.3906-3.3251 0.876-1.0538 0.4824-2.045 1.1455-2.9131 2.0136-3.9053 3.9053-3.9063 10.236 0 14.143 0.6113 0.6114 1.2871 1.1182 2 1.5352"/><path d="m51.678 23.857c-0.789-0.4629-1.6269-0.8154-2.4902-1.0459-0.2305-0.8642-0.582-1.7002-1.0449-2.4892"/><path d="m51.678 23.857c0.7129 0.418 1.3868 0.9239 2 1.5362 3.9043 3.9057 3.9043 10.238-0.0019 14.142-0.9317 0.9316-2.002 1.6347-3.1445 2.1211-0.9532 0.4082-1.9825 0.5097-2.9727 0.7636-2.3955 0.6133-4.5059 2.6309-5.1338 5.0196-0.291 1.1074-0.3906 2.2656-0.876 3.3261-0.4824 1.0537-1.1455 2.0449-2.0136 2.9121-3.9053 3.9053-10.236 3.9063-14.143 0-0.6113-0.6113-1.1172-1.2871-1.5352-1.999"/></g></svg>