<?xml version="1.0" encoding="UTF-8"?>
<svg id="a" viewBox="0 0 72 72" xmlns="http://www.w3.org/2000/svg"><g id="b"><path d="m62.92 35.003a1.8786 1.8786 0 0 0-1.8742-2.0029h-49.993a1.9727 1.9727 0 0 0-1.97 2.1313c0.857 9.7287 7.53 17.984 16.794 21.724v5.4866a1.72 1.72 0 0 0 1.7672 1.6583h16.711a1.72 1.72 0 0 0 1.767-1.6583v-4.8424c9.712-3.3783 16.071-12.109 16.798-22.496z" fill="#d22f27"/></g><g id="c" fill="none" stroke="#000" stroke-linecap="round" stroke-linejoin="round"><line x1="61.434" x2="17.434" y1="21" y2="21" stroke-width="2"/><line x1="61.434" x2="17.434" y1="13" y2="13" stroke-width="2"/><line x1="34.277" x2="34.434" y1="10.812" y2="33" stroke-width="1.8409"/><line x1="28.277" x2="28.434" y1="10.812" y2="33" stroke-width="1.8409"/><line x1="21.277" x2="21.434" y1="10.812" y2="33" stroke-width="1.8409"/><path d="m62.92 35.003a1.8786 1.8786 0 0 0-1.8742-2.0029h-49.993a1.9727 1.9727 0 0 0-1.97 2.1313c0.857 9.7287 7.53 17.984 16.794 21.724v5.4866a1.72 1.72 0 0 0 1.7672 1.6583h16.711a1.72 1.72 0 0 0 1.767-1.6583v-4.8424c9.712-3.3783 16.071-12.109 16.798-22.496z" stroke-width="2"/></g><g id="d" fill="none" stroke="#f1b31c" stroke-linecap="round" stroke-linejoin="round" stroke-width="1.8409"><line x1="34.277" x2="34.434" y1="10.812" y2="33"/><line x1="28.277" x2="28.434" y1="10.812" y2="33"/><line x1="21.277" x2="21.434" y1="10.812" y2="33"/></g></svg>
