<svg xmlns="http://www.w3.org/2000/svg" id="a" version="1.1" viewBox="0 0 72 72"><g id="b"><path fill="#F4AA41" d="m54.9 59.2c0.6-0.8 0.4-1.6 0.8-2 0.6-0.6 0.8-1.5 0.5-2.3 0.3 0 0.5-0.1 0.8-0.3 0.7-0.5 1.1-1.3 0.9-2.1 0.9 0.4 1.9 0.1 2.5-0.7 0.5-0.7 0.4-1.6-0.1-2.3 0.3-0.1 0.5-0.3 0.7-0.5 0.6-0.6 0.7-1.5 0.4-2.2 0.9 0.2 1.9-0.4 2.2-1.3 0.3-0.8 0-1.7-0.6-2.2l0.6-0.6c0.4-0.7 0.3-1.6-0.2-2.3 0.9-0.1 1.7-0.8 1.8-1.8 0.1-0.9-0.4-1.7-1.1-2 0.2-0.2 0.3-0.5 0.4-0.7 0.2-0.8-0.1-1.7-0.7-2.1 0.9-0.3 1.5-1.2 1.4-2.2-0.1-0.9-0.8-1.5-1.6-1.7 0.1-0.2 0.2-0.5 0.2-0.8 0-0.9-0.5-1.6-1.2-1.9 0.8-0.5 1.2-1.5 0.8-2.4-0.3-0.8-1.1-1.3-2-1.2 0.1-0.3 0.1-0.5 0-0.8-0.2-0.8-0.9-1.4-1.7-1.6 0.7-0.7 0.8-1.8 0.2-2.6-0.5-0.7-1.4-1-2.2-0.7 0-0.3-0.1-0.5-0.2-0.8-0.4-0.8-1.2-1.2-2-1.1 0.5-0.8 0.3-1.9-0.4-2.5s-1.6-0.6-2.3-0.2c-0.1-0.3-0.2-0.5-0.4-0.7-0.8-0.6-1.6-0.9-2.4-0.6 0.3-0.9-0.2-1.9-1-2.3s-1.7-0.2-2.3 0.4c-0.1-0.2-0.3-0.5-0.6-0.6-0.7-0.5-1.6-0.5-2.3 0 0-0.9-0.6-1.8-1.6-2-0.9-0.2-1.7 0.2-2.1 0.9-0.2-0.2-0.4-0.4-0.7-0.5-0.8-0.3-1.7-0.1-2.2 0.5-0.2-0.9-1-1.6-2-1.6-0.9 0-1.6 0.6-1.8 1.4-0.2-0.1-0.5-0.2-0.8-0.3-0.8-0.1-1.6 0.3-2 1-0.4-0.9-1.4-1.3-2.3-1-0.8 0.2-1.4 1-1.4 1.8-0.3-0.1-0.5-0.1-0.8-0.1-0.8 0.1-1.5 0.7-1.7 1.5-0.6-0.7-1.7-0.9-2.5-0.4-0.8 0.4-1.1 1.3-1 2.1-0.3 0-0.6 0-0.8 0.1-0.8 0.3-1.3 1-1.3 1.9-0.8-0.6-1.8-0.5-2.6 0.2-0.6 0.6-0.8 1.5-0.4 2.3-0.3 0-0.5 0.1-0.8 0.3-0.7 0.5-1 1.3-0.8 2.1-0.9-0.4-1.9 0-2.4 0.8-0.5 0.7-0.4 1.7 0.1 2.3-0.2 0.1-0.5 0.3-0.7 0.5-0.6 0.6-0.7 1.5-0.3 2.3-0.9-0.1-1.9 0.4-2.2 1.4-0.3 0.8 0 1.7 0.7 2.2-0.2 0.2-0.4 0.4-0.5 0.6-0.4 0.8-0.3 1.6 0.3 2.3-0.9 0.1-1.7 0.9-1.8 1.8s0.5 1.6 1.2 2c-0.2 0.2-0.3 0.5-0.4 0.7-0.2 0.7 0.1 1.5 0.8 2-0.9 0.3-1.4 1.3-1.3 2.2 0.2 0.9 0.8 1.5 1.7 1.6-0.1 0.2-0.2 0.5-0.2 0.8 0 0.9 0.5 1.6 1.3 1.9-0.8 0.5-1.1 1.6-0.7 2.5 0.4 0.8 1.2 1.2 2 1.2v0.8c0.2 0.8 0.9 1.4 1.7 1.5-0.6 0.7-0.7 1.8-0.1 2.6 0.5 0.7 1.4 0.9 2.2 0.7 0 0.3 0.1 0.5 0.2 0.8 0.4 0.8 1.2 1.1 2 1-0.4 0.8-0.9 3-0.2 3.6l6.6 4.2c0.8 0.4 1.9-1.5 2.5-2.1 0.1 0.2 0.3 0.4 0.6 0.6 0.7 0.5 1.6 0.4 2.3 0 0 1 0.7 1.8 1.6 2s1.7-0.3 2.1-1c0.2 0.2 0.4 0.3 0.7 0.4 0.2 0.1 0.4 0.1 0.6 0.1 0.4 0.5 1 0.9 1.7 0.9 0.9 0 1.6-0.6 1.9-1.3 0.2 0.2 0.5 0.3 0.8 0.3 0.8 0.1 1.6-0.3 2.1-1 0.4 0.9 1.3 1.4 2.3 1.1 0.8-0.2 1.4-0.9 1.5-1.8 0.3 0.1 0.5 0.1 0.8 0.1 0.9-0.1 3.2 0.4 5.2-0.4l4-2.7z"/><path fill="#E27022" d="m64.8 38.8c0.1-0.9-0.4-1.7-1.1-2 0.2-0.2 0.3-0.5 0.4-0.7 0.2-0.8-0.1-1.7-0.7-2.1 0.9-0.3 1.5-1.2 1.4-2.2-0.1-0.9-0.8-1.5-1.6-1.7 0.1-0.2 0.2-0.5 0.2-0.8 0-0.9-0.5-1.6-1.2-1.9 0.8-0.5 1.2-1.5 0.8-2.4-0.3-0.8-1.1-1.3-2-1.2 0.1-0.3 0.1-0.5 0-0.8-0.2-0.8-0.9-1.4-1.7-1.6 0.7-0.7 0.8-1.8 0.2-2.6-0.5-0.7-1.4-1-2.2-0.7 0-0.3-0.1-0.5-0.2-0.8-0.4-0.8-1.2-1.2-2-1.1 0.5-0.8 0.3-1.9-0.4-2.5-0.7-0.7-1.7-0.8-2.4-0.4-0.1-0.3-0.2-0.5-0.4-0.7-0.5-0.7-1.4-0.9-2.2-0.6 0.3-0.9-0.2-1.9-1-2.3s-1.7-0.2-2.3 0.4c-0.1-0.2-0.3-0.5-0.6-0.6-0.7-0.5-1.6-0.5-2.3 0 0-0.7-0.3-1.4-0.9-1.7 0.2 0.7 0.2 1.6-0.1 2.3 0.8-0.1 1.6 0.4 2 1.4 0.1 0.3 0.2 0.7 0.2 1.1 0.8-0.3 1.7 0 2.2 1 0.6 1 0.5 2.5-0.2 3.3 0.8 0.2 1.5 0.9 1.7 2 0.1 0.4 0.1 0.7 0 1.1 0.8 0 1.6 0.6 2 1.6 0.4 1.2 0 2.5-0.8 3.2 0.7 0.4 1.3 1.4 1.2 2.5 0 0.4-0.1 0.7-0.2 1.1 0.8 0.2 1.5 1.1 1.6 2.2 0.1 1.3-0.5 2.5-1.4 2.9 0.6 0.6 1 1.7 0.7 2.8-0.1 0.4-0.2 0.7-0.4 1 0.7 0.5 1.2 1.5 1.1 2.6 0 1.1-0.8 2.1-1.7 2.1 0.5 0.8 0.6 2 0.2 3-0.1 0.3-0.3 0.6-0.6 0.8 0.6 0.7 0.9 1.8 0.6 2.9-0.3 1.2-1.3 1.9-2.2 1.7 0.3 1 0.2 2.1-0.4 2.9-0.2 0.3-0.4 0.5-0.7 0.6 0.5 0.9 0.6 2.1 0.1 3-0.5 1.1-1.6 1.4-2.5 0.9 0.2 1-0.2 2.1-0.9 2.7-0.2 0.2-0.5 0.3-0.8 0.4 0.3 1 0.2 2.1-0.4 2.9 0.8-0.2 1.4-0.9 1.5-1.8 0.3 0.1 0.5 0.1 0.8 0.1 0.9-0.1 3.2 0.4 5.2-0.4l4.1-2.5c0.6-0.8 0.4-1.6 0.8-2 0.6-0.6 0.8-1.5 0.5-2.3 0.3 0 0.5-0.1 0.8-0.3 0.7-0.5 1.1-1.3 0.9-2.1 0.9 0.4 1.9 0.1 2.5-0.7 0.5-0.7 0.4-1.6-0.1-2.3 0.3-0.1 0.5-0.3 0.7-0.5 0.6-0.6 0.7-1.5 0.4-2.2 0.9 0.2 1.9-0.4 2.2-1.3 0.3-0.8 0-1.7-0.6-2.2l0.6-0.6c0.4-0.7 0.3-1.6-0.2-2.3 0.9 0.1 1.7-0.6 1.8-1.6z"/><path fill="#3F3F3F" d="M50,62.6c-4.2,2.2-9,3.4-14,3.4c-5.1,0-9.8-1.3-14-3.5V44h28V62.6z"/></g><g id="c" fill="none" stroke="#000" stroke-linecap="round" stroke-linejoin="round" stroke-miterlimit="10" stroke-width="2"><path d="m54.2 58.5 1.2-0.9c0.6-0.6 0.8-1.5 0.5-2.3 0.3 0 0.5-0.1 0.8-0.3 0.7-0.5 1.1-1.3 0.9-2.1 0.9 0.4 1.9 0.1 2.5-0.7 0.5-0.7 0.4-1.7-0.1-2.3 0.3-0.1 0.5-0.3 0.7-0.5 0.6-0.6 0.7-1.5 0.4-2.2 0.9 0.2 1.9-0.4 2.2-1.3 0.3-0.8 0-1.7-0.6-2.2l0.6-0.6c0.4-0.7 0.3-1.6-0.2-2.3 0.9-0.1 1.7-0.8 1.8-1.8 0.1-0.9-0.4-1.7-1.1-2 0.2-0.2 0.3-0.5 0.4-0.7 0.2-0.8-0.1-1.7-0.7-2.1 0.9-0.3 1.5-1.2 1.4-2.2-0.1-0.9-0.8-1.5-1.6-1.7 0.1-0.2 0.2-0.5 0.2-0.8 0-0.9-0.5-1.6-1.2-1.9 0.8-0.5 1.2-1.5 0.8-2.4-0.3-0.8-1.1-1.3-2-1.2 0.1-0.3 0.1-0.5 0-0.8-0.2-0.8-0.9-1.4-1.7-1.6 0.7-0.7 0.8-1.8 0.2-2.6-0.5-0.7-1.4-1-2.2-0.7 0-0.3-0.1-0.5-0.2-0.8-0.4-0.8-1.2-1.2-2-1.1 0.5-0.8 0.3-1.9-0.4-2.5s-1.6-0.6-2.3-0.2c-0.1-0.3-0.2-0.5-0.4-0.7-0.5-0.7-1.4-0.9-2.2-0.6 0.3-0.9-0.2-1.9-1-2.3s-1.7-0.2-2.3 0.4c-0.1-0.2-0.3-0.5-0.6-0.6-0.7-0.5-1.6-0.5-2.3 0 0-0.9-0.6-1.8-1.6-2-0.9-0.2-1.7 0.2-2.1 0.9-0.2-0.2-0.4-0.4-0.7-0.5-0.9-0.5-1.7-0.3-2.3 0.3-0.2-0.9-1-1.6-2-1.6-0.9 0-1.6 0.6-1.8 1.4-0.2-0.1-0.5-0.2-0.8-0.3-0.8-0.1-1.6 0.3-2 1-0.4-0.9-1.4-1.3-2.3-1-0.8 0.2-1.4 1-1.4 1.8-0.3-0.1-0.5-0.1-0.8-0.1-0.8 0.1-1.5 0.7-1.7 1.5-0.6-0.7-1.7-0.9-2.5-0.4-0.8 0.4-1.1 1.3-1 2.1-0.3 0-0.6 0-0.8 0.1-0.8 0.3-1.3 1-1.3 1.9-0.8-0.6-1.8-0.5-2.6 0.2-0.6 0.6-0.8 1.5-0.4 2.3-0.3 0-0.5 0.1-0.8 0.3-0.7 0.5-1 1.3-0.8 2.1-0.9-0.4-1.9 0-2.4 0.8-0.5 0.7-0.4 1.7 0.1 2.3-0.2 0.1-0.5 0.3-0.7 0.5-0.6 0.6-0.7 1.5-0.3 2.3-0.9-0.1-1.9 0.4-2.2 1.4-0.3 0.8 0 1.7 0.7 2.2-0.2 0.2-0.4 0.4-0.5 0.6-0.4 0.8-0.3 1.6 0.3 2.3-1.1-0.1-1.9 0.7-1.9 1.7-0.1 0.9 0.5 1.6 1.2 2-0.2 0.2-0.3 0.5-0.4 0.7-0.2 0.8 0.1 1.7 0.8 2.1-0.9 0.3-1.4 1.2-1.3 2.2 0.2 0.9 0.8 1.5 1.7 1.6-0.1 0.2-0.2 0.5-0.2 0.8 0 0.9 0.5 1.6 1.3 1.9-0.8 0.5-1.1 1.6-0.7 2.5 0.4 0.8 1.2 1.2 2 1.2v0.8c0.2 0.8 0.9 1.4 1.7 1.5-0.6 0.7-0.7 1.8-0.1 2.6 0.5 0.7 1.4 0.9 2.2 0.7 0 0.3 0.1 0.5 0.2 0.8 0.4 0.8 1.2 1.1 2 1-0.4 0.8-0.2 1.9 0.5 2.5"/><path d="M50,62.6c-4.2,2.2-9,3.4-14,3.4c-5.1,0-9.8-1.3-14-3.5V44h28V62.6z"/></g></svg>