<svg xmlns="http://www.w3.org/2000/svg" id="a" viewBox="0 0 72 72"><g id="b"><path fill="#fff" d="m33.493 61c1.0449 0 1.9629-0.5352 2.5-1.3457 0.5371 0.8105 1.455 1.3457 2.499 1.3457 1.6572 0 3.001-1.3437 3.001-2.999 0-1.6572-1.3438-3.001-3-3.001v-6h-5v6c-1.6573 0-3.001 1.3438-3 3 0 1.6582 1.3427 3 3 3z"/><path fill="#f4aa41" d="m40.877 12.786c-0.7774-1.9394-2.667-3.3144-4.8838-3.3144s-4.1065 1.375-4.8838 3.3144c-6.417 8.2246-6.7891 19.623-1.1162 28.214v5c0 1.6563 1.3437 3 3 3h6c1.6562 0 3-1.3437 3-3v-5.001c5.6728-8.5898 5.3017-19.988-1.1162-28.213z"/></g><g id="c" fill="none" stroke="#000" stroke-linecap="round" stroke-linejoin="round" stroke-miterlimit="10" stroke-width="2"><path d="m33.493 61c1.0449 0 1.9629-0.5352 2.5-1.3457 0.5371 0.8105 1.455 1.3457 2.499 1.3457 1.6572 0 3.001-1.3437 3.001-2.999 0-1.6572-1.3438-3.001-3-3.001v-6h-5v6c-1.6573 0-3.001 1.3438-3 3 0 1.6582 1.3427 3 3 3z"/><path d="m40.877 12.786c-0.7774-1.9394-2.667-3.3144-4.8838-3.3144s-4.1065 1.375-4.8838 3.3144c-6.417 8.2246-6.7891 19.623-1.1162 28.214v5c0 1.6563 1.3437 3 3 3h6c1.6562 0 3-1.3437 3-3v-5.001c5.6728-8.5898 5.3017-19.988-1.1162-28.213z"/></g></svg>