<svg xmlns="http://www.w3.org/2000/svg" id="a" viewBox="0 0 72 72"><g id="b" stroke-linejoin="round" stroke-miterlimit="10" stroke-width="2"><path fill="#b1cc33" stroke="#b1cc33" d="m58.613 14.831s-3.7211 6.9524-9.3761 9.375c-4.4396 1.9049-10.081 1.0073-12.296 0.5447-2.2244 0.4174-7.8826 1.1998-12.283-0.7952-5.6044-2.5373-9.183-9.5641-9.183-9.5641s7.6302-1.9423 13.235 0.5949c1.2046 0.5423 2.307 1.2836 3.3085 2.1239 3.786 3.1849 4.8131 3.5598 9.9995 0.1019 1.0184-0.8197 2.1358-1.5384 3.3511-2.056 5.6551-2.4225 13.244-0.3251 13.244-0.3251z"/><path fill="#FFA7C0" stroke="#FFA7C0" stroke-linecap="round" d="m60.72 39.78c-0.31 12.69-11.44 22.65-24.01 24.2-0.05 0.01-0.1 0.01-0.15 0.02h-0.11c-0.21 0-0.41-0.01-0.63-0.02-11.34-2.56-22.28-12.53-23.42-24.2 0-1.76 0.19-3.49 0.55-5.15 0.64-2.99 1.85-5.78 3.49-8.25 2.64-2.89 6.55-4.71 10.92-4.71 2.27 0 4.4 0.48 6.31 1.35 1.29 0.59 2.73 0.7401 4.09 0.44 0.45-0.09 0.9-0.24 1.33-0.44 1.9-0.87 4.04-1.35 6.3-1.35 4.88 0 9.2 2.27 11.8 5.76 0.29 0.37 0.54 0.75 0.78 1.14 0.4901 0.93 0.91 1.89 1.28 2.88 0.01 0.02 0.02 0.03 0.02 0.05 0.12 0.32 0.23 0.65 0.33 0.98 0.09 0.29 0.1801 0.58 0.26 0.87 0.07 0.26 0.14 0.51 0.2 0.77 0.37 1.56 0.59 3.18 0.65 4.83 0.01 0.28 0.01 0.55 0.01 0.83z"/><path fill="#E67A94" stroke="#E67A94" d="m37.76 23.46c1.05-0.2 2.05-0.36 2.99-0.46-1.72 0.3-3.29 0.57-3.63 0.6 0.22-0.05 0.43-0.1 0.64-0.14z"/><path fill="#E67A94" stroke="#E67A94" d="m60.72 39.78c-0.31 12.69-11.44 22.65-24.01 24.2 20.214-4.719 31.415-43.924 4.04-40.98 2.16-0.37 4.57-0.77 5.09-0.77 4.61 0 8.72 2.03 11.35 5.2 0.29 0.37 0.54 0.75 0.78 1.14 0.4901 0.93 0.91 1.89 1.28 2.88 0.01 0.02 0.02 0.03 0.02 0.05 0.12 0.32 0.23 0.65 0.33 0.98 0.09 0.29 0.1801 0.58 0.26 0.87 0.07 0.26 0.14 0.51 0.2 0.77 0.39 1.56 0.62 3.17 0.65 4.83 0.01 0.28 0.01 0.55 0.01 0.83z"/><path fill="none" stroke="#E67A94" stroke-linecap="round" d="m37.719 36.595c-0.7182-3.444-3.4067-5.5325-3.4067-5.5325"/></g><g id="c" fill="none" stroke="#000" stroke-linecap="round" stroke-linejoin="round" stroke-miterlimit="10" stroke-width="2"><path d="m41.961 17.325c1.0056-0.8284 2.1179-1.5632 3.3207-2.0925 5.6325-2.4789 13.248-0.4519 13.248-0.4519"/><path d="m58.53 14.781s-1.0994 2.1043-3.0227 4.4128"/><path d="m31.64 16.83c-1.0056-0.8284-2.1179-1.5632-3.3207-2.0925-5.6325-2.4789-13.248-0.4519-13.248-0.4519"/><path d="m15.072 14.286s1.0245 1.961 2.8257 4.1736"/><path d="m36.445 15.366c-0.3203-2.3302-1.1526-5.6407-3.3079-7.9037"/><path d="m60.72 39.78c-0.31 12.69-11.44 22.65-24.01 24.2-0.05 0.01-0.1 0.01-0.15 0.02h-0.11c-0.21 0-0.42 0.03-0.63-0.02-11.34-2.56-22.28-12.53-23.42-24.2-0.17-1.75 0.19-3.49 0.55-5.15 0.64-2.99 1.85-5.78 3.49-8.25 2.64-2.89 6.55-4.71 10.92-4.71 2.27 0 4.4 0.48 6.31 1.35 1.29 0.59 2.73 0.7401 4.09 0.44 0.45-0.09 0.9-0.24 1.33-0.44 1.9-0.87 4.04-1.35 6.3-1.35 4.88 0 9.2 2.27 11.8 5.76 0.29 0.37 0.54 0.75 0.78 1.14 0.4901 0.93 0.91 1.89 1.28 2.88 0.01 0.02 0.02 0.03 0.02 0.05 0.12 0.32 0.23 0.65 0.33 0.98 0.09 0.29 0.1801 0.58 0.26 0.87 0.07 0.26 0.14 0.51 0.2 0.77 0.39 1.56 0.62 3.17 0.65 4.83 0.01 0.28 0.01 0.55 0.01 0.83z"/><path d="m40.987 52.864c2.0414-7.1668 3.244-17.616-3.7374-24.614"/></g></svg>