<svg xmlns="http://www.w3.org/2000/svg" id="a" viewBox="0 0 72 72"><g id="b"><path fill="#b1cc33" d="m47.079 27.084 5.335-1.0059-0.4766-0.7338 11.056-2.2251 1.414-1.4141c0.7813-0.7813 0.7813-2.0479 1e-3 -2.8286-0.7812-0.7813-2.0488-0.7813-2.8301 0-0.7802 0.7807-2.0468 0.7812-2.8281 0-0.7803-0.7808-0.7803-2.0474 0-2.8281 0.7813-0.7813 0.7813-2.0479 0-2.8291-0.7803-0.7808-2.0469-0.7808-2.8281 4e-4 -0.7813 0.7808-2.0469 0.7808-2.8281 0-0.7813-0.7812-0.7813-2.0473 0-2.8281 0.7812-0.7812 0.7812-2.0478 0-2.8291-0.7813-0.7807-2.0469-0.7807-2.8282 5e-4l-1.414 1.4141-2.1953 11.117-0.9463-0.608-0.8243 4.125"/><path fill="#b1cc33" d="m24.711 44.707-5.3349 1.0039 0.6953 0.9317-11.071 2.2148-1.4141 1.4141c-0.7812 0.7812-0.7812 2.0488-9e-4 2.8301 0.7812 0.7812 2.0488 0.7812 2.83 0 0.7803-0.7813 2.0469-0.7813 2.8282 0 0.7802 0.7793 0.7802 2.0468 0 2.8281-0.7813 0.7812-0.7813 2.0469 0 2.8281 0.7802 0.7813 2.0468 0.7813 2.8281 0 0.7812-0.7812 2.0469-0.7812 2.8281 0 0.7813 0.7813 0.7813 2.0469 0 2.8281-0.7812 0.7813-0.7812 2.0469 0 2.8282 0.7813 0.7812 2.0469 0.7812 2.8281 0l1.4141-1.4141 2.2158-11.072 0.9258 0.5625 0.8242-4.123"/><circle cx="35.993" cy="36" r="14.999" fill="#b1cc33"/><path fill="#5c9e31" d="m51.001 35.99c1e-3 -5.5019-2.9727-10.301-7.3916-12.91 1.3183 2.2324 2.0888 4.8262 2.0888 7.6074 1e-3 8.2852-6.7148 15.002-15 15-2.7793 2e-3 -5.375-0.7695-7.6074-2.0879 2.6104 4.4199 7.4082 7.3906 12.911 7.3926 8.2841 0 15.001-6.7168 14.999-15.002z"/></g><g id="c" fill="none" stroke="#000" stroke-linecap="round" stroke-linejoin="round" stroke-miterlimit="10" stroke-width="2"><ellipse cx="36" cy="36" rx="15" ry="15" transform="matrix(.7071 -.7071 .7071 .7071 -14.912 35.999)"/><path d="m51.929 25.356 11.071-2.2143 1.4141-1.4141c0.7812-0.7812 0.7812-2.0478 9e-4 -2.8286-0.7812-0.7812-2.0488-0.7812-2.83 0-0.7803 0.7808-2.0469 0.7813-2.8282 0-0.7802-0.7807-0.7802-2.0473 0-2.8281 0.7813-0.7813 0.7813-2.0479 0-2.8291-0.7802-0.7808-2.0468-0.7808-2.8281 5e-4 -0.7812 0.7807-2.0469 0.7807-2.8281 0-0.7813-0.7813-0.7813-2.0474 0-2.8281 0.7812-0.7813 0.7812-2.0479 0-2.8292-0.7813-0.7807-2.0469-0.7807-2.8281 5e-4l-1.4141 1.4141-2.2148 11.071"/><path d="m20.071 46.643-11.071 2.2148-1.415 1.4141c-0.7803 0.7812-0.7803 2.0478 0 2.8281 0.7812 0.7813 2.0478 0.7813 2.8291 1e-3 0.7812-0.7813 2.0468-0.7822 2.8281-1e-3 0.7812 0.7813 0.7812 2.0469 0 2.8281-0.7813 0.7813-0.7813 2.0489 0 2.8282 0.7812 0.7812 2.0469 0.7812 2.8281 0.0019 0.7813-0.7812 2.0479-0.7812 2.8281-0.0019 0.7813 0.7812 0.7813 2.0488 0 2.83-0.7812 0.7793-0.7812 2.0469 0 2.8282 0.7813 0.7812 2.0479 0.7812 2.8282 0l1.415-1.4141 2.2158-11.072"/><ellipse cx="36.001" cy="35.958" rx="15" ry="15" transform="matrix(.7071 -.7071 .7071 .7071 -14.882 35.989)"/></g></svg>