<svg xmlns="http://www.w3.org/2000/svg" id="a" version="1.1" viewBox="0 0 72 72"><g id="b"><ellipse cx="36" cy="21.001" fill="#FCEA2B" rx="10" ry="10" transform="matrix(.7071 -.7071 .7071 .7071 -4.3062 31.607)"/><path fill="#F1B31C" d="m43.07 13.938c-2.5937-2.5937-6.2578-3.4551-9.5713-2.6016 1.6748 0.4317 3.2608 1.2911 4.5713 2.6016 3.9063 3.9063 3.9063 10.238 1e-3 14.142-1.3106 1.311-2.8975 2.1724-4.5713 2.602 3.3135 0.8536 6.9766-0.0078 9.5713-2.602 3.9053-3.9043 3.9053-10.236-1e-3 -14.142z"/><path fill="#FCEA2B" d="m52.07 23.93c3.9063 3.9043 3.9063 10.236 1e-3 14.143-3.9053 3.9043-12.166 6.832-16.071 2.9277-3.9053-3.9062-1.9766-13.166 1.9287-17.071s10.237-3.9053 14.142 1e-3z"/><path fill="#F1B31C" d="m52.07 23.938c-2.5937-2.5937-6.2578-3.4551-9.5713-2.6016 1.6748 0.4317 3.2608 1.2911 4.5713 2.6016 3.9063 3.9063 3.9063 10.238 1e-3 14.143-1.3106 1.3105-2.8975 2.1719-4.5713 2.6015 3.3135 0.8536 6.9766-0.0078 9.5713-2.6015 3.9053-3.9043 3.9053-10.236-1e-3 -14.143z"/><ellipse cx="26.999" cy="31.002" fill="#FCEA2B" rx="10" ry="10.001" transform="matrix(.7071 -.7071 .7071 .7071 -14.014 28.172)"/><path fill="#F1B31C" d="m34.07 23.938c-2.5937-2.5937-6.2578-3.4551-9.5713-2.6016 1.6748 0.4317 3.2608 1.2911 4.5713 2.6016 3.9063 3.9063 3.9063 10.238 1e-3 14.143-1.3106 1.3105-2.8975 2.1719-4.5713 2.6015 3.3135 0.8536 6.9766-0.0078 9.5713-2.6015 3.9053-3.9043 3.9053-10.236-1e-3 -14.143z"/><path fill="#fff" d="m33 60v-6c0-2.7617-2.2393-5-5-5h-7c-2.7607 0-5-2.2383-5-5v-3c0-1.1045 0.8955-2 2-2h36c1.1045 0 2 0.8955 2 2v3c0 2.7617-2.2393 5-5 5h-7c-2.7607 0-5 2.2383-5 5v6"/></g><g id="c" fill="none" stroke="#000" stroke-linecap="round" stroke-linejoin="round" stroke-miterlimit="10"><path stroke-width="2" d="m26 21c0-5.5228 4.4772-10 10-10s10 4.4772 10 10"/><path stroke-width="2" d="M36.0657,26.5031C37.7119,23.2387,41.0947,21,45,21c5.5225,0,10,4.4766,10,10c0,3.1787-1.4829,6.0107-3.7946,7.8423"/><path stroke-width="2" d="M20.6391,38.7165C18.4166,36.8823,17,34.1066,17,31c0-5.5228,4.4772-10,10-10s10,4.4772,10,10 c0,3.1784-1.4828,6.0105-3.7945,7.8421"/><path stroke-width="1.947" d="m33 60v-6c0-2.7617-2.2393-5-5-5h-7c-2.7607 0-5-2.2383-5-5v-3c0-1.1045 0.8955-2 2-2h36c1.1045 0 2 0.8955 2 2v3c0 2.7617-2.2393 5-5 5h-7c-2.7607 0-5 2.2383-5 5v6"/><line x1="29" x2="43" y1="60" y2="60" stroke-width="1.947"/></g></svg>