<svg xmlns="http://www.w3.org/2000/svg" id="a" viewBox="0 0 72 72"><g id="b"><path fill="#fff" d="m53.935 36v4h-35.567v-4h1.0015c-0.02-0.34 0.01-0.68 0.1-1 0.3-1.05 1.17-1.92 2.33-2.18l3.77-0.87c-1.5 0.11-2.88-0.84-3.21-2.3-0.37-1.61 0.68-3.23 2.36-3.62l3.77-0.87c-1.5 0.1-2.88-0.85-3.21-2.3-0.37-1.61 0.69-3.23 2.37-3.62l3.79-0.87c-1.51 0.13-2.9-0.82-3.23-2.29-0.38-1.61 0.68-3.24 2.36-3.62l1.26-0.29h0.01c2.02-0.5 4.16-5.17 2.16-7.17h3c1.66 0 3 1.34 3 3s-1 2.52-2.69 2.9l2.77-0.64c1.68-0.39 3.34 0.61 3.71 2.22 0.34 1.45-0.47 2.89-1.84 3.46l1.05-0.24c1.68-0.39 3.35 0.6 3.72 2.22 0.33 1.44-0.48 2.88-1.85 3.45l1.06-0.24c1.68-0.38 3.34 0.61 3.71 2.23 0.34 1.46-0.5 2.92-1.9 3.48l1.11-0.26c1.68-0.39 3.34 0.61 3.71 2.22 0.38 1.62-0.68 3.24-2.36 3.63l-2.39 0.55 2.19 0.02c1.31 0 2.42 0.83 2.82 2 0.12 0.31 1.1154 0.65 1.1154 1z"/><rect width="38" height="10" x="17" y="40" fill="#fcea2b"/><path fill="#fcea2b" d="m52 50-4 12c-0.873 2.6191-2.2393 5-5 5h-14c-2.7607 0-4.127-2.3809-5-5l-4-12"/><rect width="12.667" height="10" x="42.333" y="40" fill="#f1b31c"/><path fill="#f1b31c" d="M43.3564,50L40,63.0303c-0.374,1.4541-0.8408,2.8486-1.4678,3.9697H43c2.7607,0,4.127-2.3809,5-5l4-12 H43.3564z"/></g><g id="c" fill="none" stroke="#000" stroke-linecap="round" stroke-linejoin="round" stroke-miterlimit="10"><rect width="38" height="10" x="17" y="40" stroke-width="2"/><path stroke-width="2" d="m53 36c0-1.6562-1.3428-3-3-3l-2.2187-0.0156"/><path stroke-width="2.04" d="m30.571 12.456c-1.6797 0.3877-2.7383 2.0112-2.3662 3.6255 0.373 1.6142 2.0361 2.6084 3.7158 2.2207l9.5088-2.1954c1.6797-0.3876 2.7383-2.0107 2.3652-3.625-0.372-1.6142-2.0351-2.6088-3.7148-2.2211l-9.5088 2.1953z"/><path stroke-width="2.04" d="m27.648 19.24c-1.6797 0.3877-2.7383 2.0103-2.3653 3.6245 0.3721 1.6143 2.0352 2.6094 3.7149 2.2217l15.355-3.5449c1.6788-0.3877 2.7383-2.0112 2.3653-3.6255-0.3721-1.6142-2.0362-2.6084-3.7158-2.2207l-15.354 3.5449z"/><path stroke-width="2.04" d="m49.641 23.356c-0.373-1.6143-2.0351-2.6094-3.7148-2.2212l-21.201 4.8945c-1.6797 0.3877-2.7383 2.0112-2.3662 3.6255 0.373 1.6143 2.0361 2.6084 3.7158 2.2207l21.201-4.8945c1.6797-0.3877 2.7383-2.0108 2.3652-3.625z"/><path stroke-width="2.04" d="m35.942 35.717 14.257-3.291c1.6787-0.3877 2.7383-2.0108 2.3653-3.625-0.3731-1.6143-2.0362-2.6094-3.7149-2.2217l-27.048 6.2451c-1.5225 0.3506-2.5352 1.7168-2.4327 3.1729"/><path stroke-width="2" d="m34 5h3c1.6572 0 3 1.3433 3 3s-1 2.521-2.6875 2.896"/><path stroke-width="2" d="m34 5c2 2-0.1455 6.6875-2.167 7.1665"/><path stroke-width="2" d="m52 50-4 12c-0.873 2.6191-2.2393 5-5 5h-14c-2.7607 0-4.127-2.3809-5-5l-4-12"/></g></svg>