<?xml version="1.0" encoding="UTF-8"?>
<svg id="a" viewBox="0 0 72 72" xmlns="http://www.w3.org/2000/svg"><g id="b"><ellipse transform="matrix(.7071 -.7071 .7071 .7071 -14.87 36.098)" cx="36.142" cy="36" rx="10" ry="9.9996" fill="#fff"/><ellipse transform="matrix(.7071 -.7071 .7071 .7071 -9.0706 22.1)" cx="22.142" cy="21.999" rx="9.9996" ry="10" fill="#ea5a47"/><path d="m29.213 14.92c-2.5938-2.5947-6.2578-3.4551-9.5713-2.602 1.6748 0.4311 3.2607 1.291 4.5713 2.602 3.9062 3.9053 3.9062 10.237 1e-3 14.143-1.3106 1.3105-2.8975 2.1699-4.5713 2.6016 3.3135 0.8525 6.9765-0.0078 9.5713-2.6016 3.9052-3.9058 3.9052-10.237-1e-3 -14.143z" fill="#D22F27"/><ellipse transform="matrix(.7071 -.7071 .7071 .7071 -20.669 50.098)" cx="50.142" cy="50" rx="9.9993" ry="10" fill="#b1cc33"/><path d="m57.213 42.92c-2.5938-2.5937-6.2578-3.4551-9.5713-2.6015 1.6748 0.4316 3.2607 1.291 4.5713 2.6015 3.9062 3.9063 3.9062 10.236 1e-3 14.143-1.3106 1.3105-2.8975 2.1699-4.5713 2.6016 3.3135 0.8535 6.9765-0.0078 9.5713-2.6016 3.9052-3.9062 3.9052-10.236-1e-3 -14.143z" fill="#5c9e31"/><ellipse transform="matrix(.7071 -.7071 .7071 .7071 -14.87 36.1)" cx="36.142" cy="35.999" rx="9.9996" ry="10" fill="none"/><path d="m43.213 28.92c-2.5938-2.5947-6.2578-3.4551-9.5713-2.602 1.6748 0.4311 3.2607 1.291 4.5713 2.602 3.9062 3.9053 3.9062 10.236 1e-3 14.143-1.3106 1.3105-2.8975 2.1699-4.5713 2.6016 3.3135 0.8535 6.9765-0.0078 9.5713-2.6016 3.9052-3.9062 3.9052-10.237-1e-3 -14.143z" fill="#d0cfce"/></g><g id="c" fill="none" stroke="#000" stroke-linecap="round" stroke-linejoin="round" stroke-miterlimit="10" stroke-width="2"><ellipse transform="matrix(.7071 -.7071 .7071 .7071 -14.87 36.098)" cx="36.142" cy="36" rx="10" ry="9.9996"/><ellipse transform="matrix(.7071 -.7071 .7071 .7071 -9.012 21.959)" cx="22" cy="21.858" rx="9.9998" ry="10"/><ellipse transform="matrix(.7071 -.7071 .7071 .7071 -20.728 50.242)" cx="50.284" cy="50.142" rx="10" ry="10"/><line x1="60.143" x2="67.143" y1="60" y2="67"/></g></svg>
