<?xml version="1.0" encoding="UTF-8"?>
<svg id="a" version="1.1" viewBox="0 0 72 72" xmlns="http://www.w3.org/2000/svg"><g id="b"><path d="m52.07 24.888c3.9063 3.9043 3.9063 10.236 1e-3 14.142-3.9053 3.9043-12.166 6.041-16.071 2.1367-3.9053-3.9063-1.9766-12.374 1.9287-16.28s10.237-3.9053 14.142 1e-3z" fill="#FCEA2B"/><path d="m52.07 24.896c-2.5937-2.5938-6.2578-3.4551-9.5713-2.6016 1.6748 0.4317 3.2608 1.291 4.5713 2.6016 3.9063 3.9062 3.9063 10.238 1e-3 14.142-1.3106 1.3105-2.8975 2.1719-4.5713 2.6015 3.3135 0.8536 6.9766-0.0078 9.5713-2.6015 3.9053-3.9043 3.9053-10.236-1e-3 -14.142z" fill="#F1B31C"/><ellipse transform="matrix(.7071 -.7071 .7071 .7071 -14.75 28.476)" cx="26.999" cy="32.043" rx="9.9997" ry="10" fill="#FCEA2B"/><path d="m34.07 24.979c-2.5937-2.5937-6.2578-3.4551-9.5713-2.6016 1.6748 0.4317 3.2608 1.2911 4.5713 2.6016 3.9063 3.9063 3.9063 10.238 1e-3 14.142-1.3106 1.3105-2.8975 2.1719-4.5713 2.6016 3.3135 0.8535 6.9766-0.0079 9.5713-2.6016 3.9053-3.9043 3.9053-10.236-1e-3 -14.142z" fill="#F1B31C"/><path d="M31,27c1.6436,0,3.0889-0.8037,4-2.0273V30c0,1.6563,1.3428,3,3,3s3-1.3437,3-3v2c0,1.6563,1.3428,3,3,3 s3-1.3437,3-3v-2.1836C47.3145,29.9277,47.6475,30,48,30c1.6572,0,3-1.3437,3-3v-2.9956c-1.4219-1.0684-3.1357-1.769-5.0029-1.9541 C45.9971,22.0332,46,22.0171,46,22c0-5.5229-4.4775-10-10-10s-10,4.4771-10,10C26,24.7612,28.2393,27,31,27z" fill="#EA5A47"/><path d="m33 60v-6c0-2.7617-2.2393-5-5-5h-7c-2.7607 0-5-2.2383-5-5v-3c0-1.1045 0.8955-2 2-2h36c1.1045 0 2 0.8955 2 2v3c0 2.7617-2.2393 5-5 5h-7c-2.7607 0-5 2.2383-5 5v6" fill="#fff"/></g><g id="c" fill="none" stroke="#000" stroke-linecap="round" stroke-linejoin="round" stroke-miterlimit="10"><path d="M45.9972,22.0491C51.0516,22.5496,55,26.8137,55,32c0,2.4632-0.8905,4.7183-2.367,6.4609" stroke-width="2"/><path d="m36.967 32.814c-0.1814 2.2526-1.1093 4.2945-2.5361 5.878" stroke-width="2"/><path d="M19.5982,38.7242C17.9839,36.9483,17,34.589,17,32c0-5.1777,3.935-9.4363,8.9776-9.9484" stroke-width="2"/><path d="M31,27c1.6436,0,3.0889-0.8037,4-2.0273V30c0,1.6563,1.3428,3,3,3s3-1.3437,3-3v2c0,1.6563,1.3428,3,3,3s3-1.3437,3-3v-2.1836 C47.3145,29.9277,47.6475,30,48,30c1.6572,0,3-1.3437,3-3v-2.9956c-1.4219-1.0684-3.1357-1.769-5.0029-1.9541 C45.9971,22.0332,46,22.0171,46,22c0-5.5229-4.4775-10-10-10s-10,4.4771-10,10C26,24.7612,28.2393,27,31,27z" stroke-width="2"/><path d="m33 60v-6c0-2.7617-2.2393-5-5-5h-7c-2.7607 0-5-2.2383-5-5v-3c0-1.1045 0.8955-2 2-2h36c1.1045 0 2 0.8955 2 2v3c0 2.7617-2.2393 5-5 5h-7c-2.7607 0-5 2.2383-5 5v6" stroke-width="1.9467"/><line x1="29" x2="43" y1="60" y2="60" stroke-width="1.9467"/></g></svg>
