<?xml version="1.0" encoding="UTF-8"?>
<svg id="a" viewBox="0 0 72 72" xmlns="http://www.w3.org/2000/svg"><g id="b"><polyline points="54 32.906 54 5.9063 18.031 5.9063 18.031 39.516" fill="#a57939"/><polygon points="55 25 17 32 17 67 55 67" fill="#ea5a47"/></g><g id="c" fill="none" stroke="#000" stroke-linecap="round" stroke-linejoin="round" stroke-miterlimit="10" stroke-width="2"><rect x="38" y="9" width="11" height="9"/><rect x="23" y="9" width="11" height="9"/><polygon points="55 25 17 32 17 67 55 67"/><polyline points="53 20.932 53 5 19 5 19 27.541"/><polyline points="38 23.847 38 22 47.503 22"/><polyline points="23 26.764 23 22 34 22 34 24.625"/><polyline points="47.503 22 38 22 38 23.847"/><polyline points="34 24.625 34 22 23 22 23 26.764"/></g></svg>
