<svg xmlns="http://www.w3.org/2000/svg" id="a" viewBox="0 0 72 72"><g id="b"><ellipse cx="36" cy="35.999" fill="#f4aa41" rx="10" ry="10" transform="matrix(.7071 -.7071 .7071 .7071 -14.911 36)"/><path fill="#e27022" d="m43.07 28.92c-2.5937-2.5947-6.2578-3.4551-9.5713-2.602 1.6748 0.4311 3.2608 1.2915 4.5713 2.602 3.9063 3.9053 3.9063 10.236 1e-3 14.143-1.3106 1.3105-2.8975 2.1699-4.5713 2.6016 3.3135 0.8535 6.9766-0.0078 9.5713-2.6016 3.9053-3.9062 3.9053-10.237-1e-3 -14.143z"/><polygon fill="#a57939" points="19.125 36 14.998 15 35.999 19.128"/><polygon fill="#6A462F" points="36 19.128 14.999 15 15.247 16.263 28.376 19.827 18.601 33.324 19.126 36"/><path fill="#d0cfce" d="m39.582 55.418c1.2901 1.289 2.8448 2.1445 4.4883 2.582l13.896-13.896c-0.4385-1.6426-1.292-3.1992-2.5811-4.4883-1.29-1.291-2.8457-2.1445-4.4892-2.583l-13.896 13.896c0.4385 1.6446 1.293 3.2012 2.582 4.4903z"/><path fill="#9b9b9a" d="m58 44.104c-0.4385-1.6426-1.292-3.1992-2.5811-4.4883-1.29-1.291-2.8457-2.1445-4.4892-2.583l-0.0752 0.0752c0.1894 0.2012 0.3848 0.3887 0.5644 0.6104 1.2891 1.6006 2.1426 3.5283 2.5811 5.5674l-11.418 14.158c0.4961 0.2226 1.002 0.4179 1.5215 0.5566l13.896-13.896z"/></g><g id="c" fill="none" stroke="#000" stroke-linecap="round" stroke-linejoin="round" stroke-miterlimit="10" stroke-width="2"><ellipse cx="36" cy="35.999" rx="10" ry="10" transform="matrix(.7071 -.7071 .7071 .7071 -14.911 36.002)"/><line x1="54" x2="67" y1="54" y2="67"/><polygon points="19.17 36.042 15.043 15.042 36.044 19.17"/><path d="m39.686 55.385c1.2901 1.289 2.8448 2.1445 4.4883 2.582l13.896-13.896c-0.4385-1.6426-1.292-3.1992-2.581-4.4883-1.2901-1.291-2.8457-2.1445-4.4893-2.582l-13.896 13.896c0.4385 1.6426 1.293 3.1992 2.582 4.4883z"/></g></svg>