<svg xmlns="http://www.w3.org/2000/svg" id="a" viewBox="0 0 72 72"><g id="b"><path fill="#fff" d="M54.2432,41.1414l.6255,3.79a1.0217,1.0217,0,0,1,.0136.1631c0,3.9355-9.4287,5.9941-18.7422,5.9941S17.397,49.03,17.397,45.094a1.0217,1.0217,0,0,1,.0136-.1631l.6416-3.8871C12.8572,42.7519,10,45.1494,10,47.8328c0,6.0048,13.3955,9.2451,26,9.2451s26-3.24,26-9.2451C62,45.1652,59.3164,42.86,54.2432,41.1414Z"/><path fill="#a57939" d="m54.549 42.232-36.544-0.1381c-2.362 1.1686-3.5952 2.57-3.5952 4.136 0 4.721 11.197 7.2684 21.73 7.2684s21.73-2.5474 21.73-7.2688c0-1.5035-1.1372-2.857-3.3213-3.9975z"/><path fill="#fcea2b" d="M54.8687,44.9312,52.2256,28.919l.0015-.01a.3176.3176,0,0,0-.0171-.0851l-.5327-3.2269c-.0042-.0251-.0188-.0451-.0247-.07-.37-3.33-8.2014-4.8559-15.5124-4.8559S20.9969,22.1975,20.627,25.5275c-.0061.0244-.0208.0446-.0249.07l-.5327,3.2269a.3176.3176,0,0,0-.0171.0851l.0014.01-2.643,16.0122a1.01,1.01,0,0,0-.0137.1631c0,3.9355,9.4287,5.9941,18.7432,5.9941S54.8824,49.03,54.8824,45.0943A1.01,1.01,0,0,0,54.8687,44.9312Z"/><path fill="#a57939" d="M52.1956,28.753l0-.0069-.5185-3.1406c-.0027-.0162-.0132-.0284-.0166-.0443-.3191-3.3542-8.1844-4.8893-15.52-4.8893s-15.2027,1.5352-15.5215,4.8895c-.0034.0158-.0139.028-.0166.0441l-.5186,3.1406,0,.0069a.9521.9521,0,0,0-.0315.1562c0,3.5137,8.34,5.1133,16.0879,5.1133s16.0869-1.6,16.0869-5.1133A.9627.9627,0,0,0,52.1956,28.753Z"/><path fill="#6a462f" d="M52.1956,28.753l0-.0069-.5185-3.1406a.9272.9272,0,0,0-.0418-.1115.9376.9376,0,0,0-.4807-.5969.9645.9645,0,0,0-.1362-.0625.9513.9513,0,0,0-.2222-.0448.938.938,0,0,0-.1055-.0212c-.0283,0-.0517.0138-.0795.016s-.0547-.0074-.0835-.0024a.9328.9328,0,0,0-.1079.041.971.971,0,0,0-.19.0721.9422.9422,0,0,0-.1528.103.9608.9608,0,0,0-.1406.1328.9707.9707,0,0,0-.1033.1533.9526.9526,0,0,0-.08.1747.9642.9642,0,0,0-.0388.1923.9076.9076,0,0,0-.0237.1172c0,.9258-4.61,3.0966-13.5507,3.0966s-13.5518-2.1708-13.5518-3.0966a.8892.8892,0,0,0-.0237-.1173.841.841,0,0,0-.1186-.367.9285.9285,0,0,0-.5867-.4611.9469.9469,0,0,0-.1079-.041c-.0291-.0051-.0554.0049-.0842.0022s-.0511-.0158-.0789-.0158a.9261.9261,0,0,0-.1023.0206.94.94,0,0,0-.2278.046,1.32,1.32,0,0,0-.6562.77l-.5186,3.1406,0,.0069a.9521.9521,0,0,0-.0315.1562c0,3.5137,8.34,5.1133,16.0879,5.1133s16.0869-1.6,16.0869-5.1133A.9627.9627,0,0,0,52.1956,28.753Z"/></g><g id="c" fill="none" stroke="#000" stroke-linecap="round" stroke-linejoin="round" stroke-width="2"><path d="m41.807 29.534c5.2209-0.622 8.8839-2.0776 8.8839-3.774 0-2.2624-6.5149-4.0964-14.551-4.0964s-14.132 1.4149-14.551 4.0962l-3.1909 19.334"/><path d="m51.209 28.901c0 2.2624-6.7469 4.0964-15.07 4.0964s-15.07-1.834-15.07-4.0964"/><path d="m53.882 45.094-3.1909-19.334"/><path d="M53.3545,41.8986C58.0682,43.3981,61,45.5027,61,47.8332c0,4.5534-11.1929,8.2446-25,8.2446s-25-3.6912-25-8.2446c0-2.3786,3.0543-4.522,7.94-6.0268"/></g></svg>