<?xml version="1.0" encoding="UTF-8"?>
<svg id="a" viewBox="0 0 72 72" xmlns="http://www.w3.org/2000/svg"><g id="b"><path d="m61.879 5.8789-11.744 11.983c1.4922 1.166 2.8369 2.5098 4.0019 4.0029l11.984-11.744c1.1719-1.1719 1.1719-3.0713 0-4.2432-1.1719-1.1709-3.0703-1.1709-4.2422 1e-3z" fill="#9b9b9a"/><path d="m54.137 21.865c-1.164-1.4931-2.5097-2.8369-4.0019-4.0029-3.9004-3.043-8.8037-4.8623-14.135-4.8623-12.703 0-23 10.298-23 23s10.297 23 23 23 23-10.298 23-23c0-5.3311-1.8184-10.234-4.8633-14.135z" fill="#d0cfce"/><path d="m47.225 37.55c-0.0723-0.0352-0.1435-0.0703-0.2168-0.1016-0.6338-0.3359-1.0566-1.0869-1.0566-1.8535-0.0039-0.0888-0.0205-0.1748-0.0264-0.2636-0.0146-0.2247-0.0361-0.4473-0.0654-0.668-0.0196-0.1377-0.0391-0.2744-0.0625-0.4102-0.043-0.2402-0.0957-0.4756-0.1543-0.709-0.0274-0.1064-0.0528-0.2138-0.0821-0.3183-0.0869-0.3008-0.1884-0.5938-0.3017-0.8828-0.0127-0.0313-0.0225-0.0645-0.0352-0.0957-0.7256-1.791-1.956-3.3213-3.5146-4.42-0.4551-0.373-0.7666-0.9658-0.7666-1.5937-0.3692-2.3975-2.4424-4.2334-4.9424-4.2334-2.2852 0-4.2129 1.5342-4.8086 3.6279-0.0508 0.1778-0.1182 0.4092-0.1338 0.5957-0.0488 0.5918-0.2763 1.1143-0.6826 1.4795-0.1133 0.0762-0.2187 0.1641-0.3291 0.2451-0.0127 0.0088-0.0264 0.0166-0.0381 0.0254-0.0176 0.0127-0.0322 0.0274-0.0488 0.0401-0.209 0.1572-0.4111 0.3203-0.6065 0.4931-0.0254 0.0215-0.0498 0.045-0.0752 0.0674-0.1982 0.1787-0.3906 0.3643-0.5752 0.5586-0.0126 0.0127-0.0244 0.0274-0.0361 0.0401-1.6748 1.788-2.707 4.1845-2.707 6.8271 0 5.5225 4.4765 10 10 10 0.3183 0 0.6348-0.0176 0.9453-0.0479 0.2617-0.0244 0.5176-0.0654 0.7725-0.1103 0.0341-0.0059 0.0703-0.0088 0.1045-0.0156 0.6933-0.128 1.3613-0.3223 1.996-0.585 0.5977-0.1641 1.253-0.0478 1.7637 0.3555 0.0606 0.0478 0.125 0.0918 0.1807 0.1474l-0.0088 0.0108c0.8769 0.7724 2.0254 1.2451 3.2871 1.2451 2.7617 0 5-2.2393 5-5 0-1.958-1.1367-3.6318-2.7754-4.4502z" fill="#fff"/><circle cx="36" cy="35.875" r="5" fill="#fcea2b"/></g><g id="c" fill="none" stroke="#000" stroke-linecap="round" stroke-linejoin="round" stroke-miterlimit="10" stroke-width="2"><path d="m61.879 5.8789-11.744 11.983c1.4922 1.166 2.8369 2.5098 4.0019 4.0029l11.984-11.744c1.1719-1.1719 1.1719-3.0713 0-4.2432-1.1719-1.1709-3.0703-1.1709-4.2422 1e-3z"/><path d="m54.137 21.865c-1.164-1.4931-2.5097-2.8369-4.0019-4.0029-3.9004-3.043-8.8037-4.8623-14.135-4.8623-12.703 0-23 10.298-23 23s10.297 23 23 23 23-10.298 23-23c0-5.3311-1.8184-10.234-4.8633-14.135z"/><circle cx="36" cy="35.875" r="5"/><path d="M47.2246,37.5498c-0.0723-0.0352-0.1435-0.0703-0.2168-0.1016c-0.6338-0.3359-1.0566-1.0869-1.0566-1.8535 c0-0.0009-0.0117-0.0224-0.0147-0.0293c-0.1377-3.1992-1.7715-6.0068-4.2275-7.7383c-0.4551-0.373-0.7666-0.9658-0.7666-1.5937 C40.5732,23.8359,38.5,22,36,22c-2.2852,0-4.2129,1.5342-4.8086,3.6279c-0.0508,0.1778-0.1182,0.4092-0.1338,0.5957 c-0.0488,0.5918-0.2763,1.1143-0.6826,1.4795C27.7109,29.5,25.959,32.5449,25.959,36c0,5.5225,4.4765,10,10,10 c1.3525,0,2.6406-0.2715,3.8183-0.7588c0.5977-0.1641,1.253-0.0478,1.7637,0.3555c0.0606,0.0478,0.125,0.0918,0.1807,0.1474 l-0.0088,0.0108C42.5898,46.5273,43.7383,47,45,47c2.7617,0,5-2.2393,5-5C50,40.042,48.8633,38.3682,47.2246,37.5498z"/></g></svg>
