<?xml version="1.0" encoding="UTF-8"?>
<svg id="a" version="1.1" viewBox="0 0 72 72" xmlns="http://www.w3.org/2000/svg"><g id="b"><path d="m37.739 28.902 10.198-10.198 5.2468 5.2468-10.198 10.198c-1.1588 1.1588-1.8563 2.6718-1.9213 4.1683l-0.1273 2.9232c-0.1036 2.382-1.2137 4.7905-3.0584 6.6352l-17.208 17.208c-1.5429 1.5429-3.839 1.7482-5.1284 0.4588l-9.1968-9.1968c-1.2895-1.2895-1.084-3.5856 0.4588-5.1284l17.208-17.208c1.8446-1.8446 4.2531-2.9548 6.6352-3.0584l2.9232-0.1273c1.4963-0.0651 3.0093-0.7626 4.1681-1.9214z" fill="#B1CC33"/><path d="m16.351 60.784 6.1656-6.1656c6.8117-6.8117 9.1408-10.896 9.8941-13.128 0.6734-1.9952 1.8553-3.8628 3.4063-5.4138l14.747-14.747 2.6205 2.6205-10.198 10.198c-1.1588 1.1588-1.8563 2.6718-1.9213 4.1683l-0.1272 2.9233c-0.1036 2.382-1.2137 4.7905-3.0584 6.6352l-17.208 17.208c-1.5429 1.5429-3.839 1.7482-5.1284 0.4588l-4.5954-4.5954c2.5116 2.5119 5.4034-0.1628 5.4034-0.1628z" fill="#5C9E31"/><path d="m37.686 48.069-17.015 17.015c-1.5429 1.5429-3.839 1.7482-5.1284 0.4588l-9.1969-9.1968c-1.2895-1.2895-1.084-3.5856 0.4588-5.1284l17.015-17.015 13.866 13.866z" fill="#B1CC33"/><path d="m32.316 41.88 5.78 5.78-17.367 17.367c-1.5748 1.5748-3.9223 1.7804-5.2433 0.4595l-4.7077-4.7078c2.5733 2.5733 5.5253-0.1563 5.5253-0.1563l6.2931-6.2931c6.0747-6.0748 8.6538-10.026 9.7193-12.449z" fill="#5C9E31"/><rect transform="matrix(.7071 -.7071 .7071 .7071 -29.024 30.089)" x="12.424" y="40.275" width="18.768" height="19.61" fill="#D0CFCE"/><path d="m35.378 50.378-13.272 13.272-4.8121-4.8121 6.6357-6.6357c2.5564-2.5564 4.6814-4.8211 6.448-6.8237l4.9999 4.9999z" fill="#9B9B9A"/><path d="m37.739 28.902 10.198-10.198 5.2468 5.2468-10.198 10.198c-1.1588 1.1588-1.8563 2.6718-1.9213 4.1683l-3.5522-0.0048c-2.2744-0.0029-3.9293-1.6565-3.9341-3.9304l-0.0074-3.5586c1.4963-0.065 3.0093-0.7625 4.1681-1.9213z" fill="#FCEA2B"/><path d="m42.986 34.149c-1.1588 1.1588-1.8563 2.6718-1.9213 4.1683l-3.5522-0.0048c-1.1042-0.0014-2.0615-0.3927-2.7558-1.0543 0.3306-0.4103 0.6842-0.8052 1.0601-1.1811l14.747-14.747 2.6205 2.6205-10.198 10.198z" fill="#F1B31C"/><path d="m46.658 21.011 4.0442 4.0442c0.8245 0.8245 2.7765 0.2218 4.3376-1.3393s2.1638-3.5131 1.3393-4.3376l-4.0442-4.0442c-0.8245-0.8245-2.7765-0.2218-4.3376 1.3393-1.5612 1.561-2.1639 3.513-1.3393 4.3376z" fill="#FCEA2B"/><path d="m52.87 21.547c1.5611-1.5611 2.147-3.5299 1.3019-4.375l2.3451 2.3451c0.8451 0.8451 0.2592 2.8139-1.3019 4.375s-3.5299 2.147-4.375 1.3019l-2.3451-2.3451c0.8451 0.8452 2.8138 0.2592 4.375-1.3019z" fill="#F1B31C"/><path d="m55.658 12.011 4.0442 4.0442c0.8245 0.8245 3.0015-0.0032 4.8376-1.8393s2.6638-4.0131 1.8393-4.8376l-4.0442-4.0442c-0.8245-0.8245-3.0015 0.0032-4.8376 1.8393-1.8362 1.836-2.6639 4.013-1.8393 4.8376z" fill="#F4AA41"/><path d="m62.37 12.047c1.8361-1.8361 2.647-4.0299 1.8019-4.875l2.3451 2.3451c0.8451 0.8451 0.0342 3.0389-1.8019 4.875s-4.0299 2.647-4.875 1.8019l-2.3451-2.3451c0.8451 0.8452 3.0388 0.0342 4.875-1.8019z" fill="#E27022"/></g><g id="c" fill="none" stroke="#000" stroke-miterlimit="10" stroke-width="2"><path d="m62.334 5.3344 1.8375 1.8375-1e-4 -2e-4 2.3451 2.3452c0.8451 0.8451 0.0342 3.0388-1.8019 4.875s-4.0299 2.647-4.875 1.802l-0.1383-0.1384-4.0442-4.0442c-0.8245-0.8245 0.0032-3.0015 1.8393-4.8376s4.0131-2.6639 4.8376-1.8393z"/><path d="m56.021 20.502c0.3033 0.9062-0.1427 2.2344-1.1827 3.2744-0.897 0.8971-2.0029 1.3395-2.8731 1.2531l-8.6799 8.6799c-0.1448 0.1448-0.2825 0.2952-0.4126 0.4504-0.2602 0.3103-0.4902 0.6399-0.6874 0.983-0.2957 0.5146-0.5176 1.0596-0.6566 1.6151-0.0927 0.3704-0.1484 0.7455-0.1647 1.1196l-0.1272 2.9233c-0.1036 2.382-1.2137 4.7905-3.0583 6.6351l-0.1934 0.1935-17.015 17.015-2e-4 2e-4c-1.5429 1.5429-3.839 1.7482-5.1284 0.4587l-9.1968-9.1968c-0.806-0.806-1.0279-2.0051-0.7043-3.1678 0.1941-0.6976 0.5846-1.3822 1.1632-1.9608l17.208-17.208c1.8446-1.8446 4.2531-2.9548 6.6352-3.0583l2.9232-0.1273v-2e-4c0.5612-0.0243 1.1246-0.1376 1.6709-0.3309 0.9105-0.322 1.7731-0.866 2.4973-1.5903l8.5557-8.5557c-0.2427-0.9022 0.1978-2.1692 1.2017-3.1731 1.1668-1.1668 2.6965-1.5859 3.5859-1.0379" stroke-linecap="round"/><line x1="22" x2="35" y1="37" y2="50" stroke-linecap="round" stroke-linejoin="round"/><line x1="8.5" x2="21.5" y1="50.5" y2="63.5" stroke-linecap="round" stroke-linejoin="round"/></g></svg>
