<svg xmlns="http://www.w3.org/2000/svg" id="a" viewBox="0 0 72 72"><g id="b"><path fill="#FCEA2B" d="m51.533 37.384-16.3-16.3c6.2853-6.2853 8.5839 1.4216 15.94-5.9347l1.5737-1.5734c1.738-1.7383 4.5563-1.7383 6.2938 0 1.7383 1.7377 1.7383 4.5561 5e-4 6.2938l-1.5739 1.574c-7.3561 7.3561 0.3507 9.6545-5.9347 15.94z"/><path fill="#F1B31C" d="m53.24 16.968 1.6272-1.5189c0.8839-0.8249 1.3516-1.9262 1.4039-3.0457 1.1571 0.0258 2.303 0.4951 3.1547 1.4082 1.6774 1.7965 1.5802 4.6134-0.2165 6.29l-1.6272 1.5189c-7.6054 7.098 0.0176 9.6608-6.4808 15.726l-6.7713-7.1008c6.4984-6.0651 1.3046-6.1795 8.91-13.278z"/><path fill="#92D3F5" d="m48.8 41.284-18.062 17.637c-2.0932 2.044-5.5182 2.044-7.6112 0l-10.035-9.798c-2.0932-2.044-2.0932-5.3884 0-7.4321l9.0316-8.8188 9.0311-8.8181c2.0934-2.0442 3.6396-3.5773 5.7328-1.5331l13.658 14c2.0929 2.0438 0.3479 2.7192-1.7455 4.7632z"/><path fill="#61B2E4" d="m16.21 51.938c2.0779 2.044 5.4782 2.044 7.5564 0l17.932-17.637c2.0782-2.044 2.0782-5.3882 3e-4 -7.432l-2.6876-2.6433 2e-4 1e-4 10.552 11.296c2.0779 2.0438 1.4881 3.8904-0.5902 5.9343l-17.932 17.637c-2.0781 2.044-5.4784 2.044-7.5564 0l-9.9623-9.798s-6e-4 -8e-4 -9e-4 -0.0012l2.6887 2.6444z"/></g><g id="c" fill="none" stroke="#000" stroke-miterlimit="10" stroke-width="2"><path stroke-linejoin="round" d="m51.533 37.384-16.3-16.3c6.2853-6.2853 8.5839 1.4216 15.94-5.9347l1.5737-1.5734c1.738-1.7383 4.5563-1.7383 6.2938 0 1.7383 1.7377 1.7383 4.5561 5e-4 6.2938l-1.5739 1.574c-7.3561 7.3561 0.3507 9.6545-5.9347 15.94z"/><path d="m57.521 12.584c0.0079 0.0032 0.0162 0.0042 0.024 0.0072 0.2369 0.0945 0.4637 0.218 0.6847 0.3549 0.034 0.021 0.0715 0.0332 0.105 0.0552 0.2499 0.1643 0.4872 0.3553 0.7069 0.5752 0.4346 0.4343 0.7605 0.9363 0.9778 1.472 0.3259 0.8036 0.4075 1.6832 0.2446 2.5248-0.1629 0.8417-0.5703 1.6453-1.2219 2.2969l-1.5739 1.5741c-2.2988 2.2987-3.1266 4.1036-3.3701 5.6906-0.0487 0.3174-0.074 0.6261-0.0831 0.9282-0.0181 0.6044 0.0289 1.1826 0.0843 1.7527 0.0692 0.7124 0.1515 1.4117 0.136 2.1326-0.0062 0.2883-0.028 0.5801-0.0726 0.8774-0.1337 0.8921-0.472 1.8351-1.2065 2.8884-0.2402 0.3442-0.524 0.7008-0.8555 1.0708-0.0368 1.3615-0.5595 2.7123-1.5927 3.7454l-18.488 18.488c-2.1425 2.1426-5.6482 2.1426-7.7905 0l-10.271-10.271-0.1794-0.1794c-2.1425-2.1426-2.1425-5.6484 0-7.7908l9.2444-9.2442 9.2438-9.2436c0.9285-0.9285 2.115-1.4297 3.3335-1.5535 6.0092-5.6279 8.3631 1.624 15.573-5.5863l1.5737-1.5734c1.2906-1.2909 3.1759-1.6186 4.773-0.9924z"/><line x1="34.021" x2="27.021" y1="35.021" y2="28.021" stroke-linecap="round" stroke-linejoin="round"/><line x1="29.521" x2="22.521" y1="39.521" y2="32.521" stroke-linecap="round" stroke-linejoin="round"/><line x1="24.521" x2="17.521" y1="44.521" y2="37.521" stroke-linecap="round" stroke-linejoin="round"/></g></svg>