<svg xmlns="http://www.w3.org/2000/svg" id="a" viewBox="0 0 72 72"><g id="b"><path fill="#fff" d="m7 36c0 16.017 12.983 29 29 29s29-12.983 29-29h-58z"/><path fill="#d0cfce" d="m49 36c0 16.016-4 29-13 29 16.017 0 29-12.984 29-29h-16z"/></g><g id="c" fill="none" stroke="#000" stroke-linecap="round" stroke-linejoin="round" stroke-miterlimit="10" stroke-width="2"><path d="m7 36c0 16.017 12.983 29 29 29s29-12.983 29-29h-58z"/><line x1="7" x2="14" y1="25.141" y2="32.141"/><path d="m29.043 7.8457c0.1015 1.125 0.5605 2.2236 1.4209 3.084 1.9521 1.9512 1.9521 5.1172 0 7.0703-1.9522 1.9531-1.9522 5.1191 0 7.0703 1.9521 1.9512 1.9521 5.1172 0 7.0703"/><path d="m34.57 7.0361c-0.1006 1.3975 0.3613 2.8262 1.4297 3.8936 1.9521 1.9512 1.9521 5.1172 0 7.0703s-1.9521 5.1191 0 7.0703 1.9521 5.1172 0 7.0703"/><path d="m40.011 7.2832c-0.0302 1.3164 0.4483 2.6426 1.4532 3.6465 1.9521 1.9512 1.9521 5.1172 0 7.0703-1.9522 1.9531-1.9522 5.1191 0 7.0703 1.9521 1.9512 1.9521 5.1172 0 7.0703"/></g></svg>