<?xml version="1.0" encoding="UTF-8"?>
<svg id="a" viewBox="0 0 72 72" xmlns="http://www.w3.org/2000/svg"><g id="b"><path d="M5,19c0-1.1045,0.8955-2,2-2h58c1.1045,0,2,0.8955,2,2v34c0,1.1045-0.8955,2-2,2H7c-1.1045,0-2-0.8955-2-2 V19z" fill="#fff"/><path d="M44.0713,21c1.9521,1.9521,1.9521,5.1182,0,7.0713c-1.9522,1.9531-5.1182,1.9531-7.0713,0L44.0713,21z" fill="#d0cfce"/><path d="M56.6074,21c1.9522,1.9521,1.9522,5.1182,0,7.0713c-1.9531,1.9531-5.1191,1.9531-7.0722,0L56.6074,21z" fill="#d0cfce"/><path d="m39 40c0-1.1045-0.8955-2-2-2h-4c-1.1045 0-2 0.8955-2 2v9c0 1.1045 0.8955 2 2 2h4c1.1045 0 2-0.8955 2-2v-9z" fill="#ea5a47"/><path d="m51 40c0-1.1045-0.8955-2-2-2h-4c-1.1045 0-2 0.8955-2 2v9c0 1.1045 0.8955 2 2 2h4c1.1045 0 2-0.8955 2-2v-9z" fill="#ea5a47"/><path d="m63 40c0-1.1045-0.8955-2-2-2h-4c-1.1045 0-2 0.8955-2 2v9c0 1.1045 0.8955 2 2 2h4c1.1045 0 2-0.8955 2-2v-9z" fill="#ea5a47"/><polyline points="12.998 42.213 11.998 51 15.998 47 15.998 47 19.998 51 18.604 42.213" fill="#61b2e4"/><path d="m17.604 43.213c5.8574-5.8574 5.8574-15.355 0-21.213h-3.6065c-5.8574 5.8579-5.8574 15.356 0 21.213h3.6065z" fill="#92d3f5"/></g><g id="c" fill="none" stroke="#000" stroke-linecap="round" stroke-linejoin="round" stroke-miterlimit="10" stroke-width="2"><path d="M5,19c0-1.1045,0.8955-2,2-2h58c1.1045,0,2,0.8955,2,2v34c0,1.1045-0.8955,2-2,2H7c-1.1045,0-2-0.8955-2-2V19z"/><line x1="27" x2="27" y1="17" y2="55"/><line x1="27" x2="67" y1="34" y2="34"/><path d="m17.606 43.213c5.8575-5.8574 5.8575-15.355 0-21.213h-3.6064c-5.8574 5.8579-5.8574 15.356 0 21.213h3.6064z"/><line x1="11" x2="21" y1="28" y2="28"/><polyline points="13 42.213 12 51 16 47 16 47 20 51 18.606 42.213"/><path d="m39 40c0-1.1045-0.8955-2-2-2h-4c-1.1045 0-2 0.8955-2 2v9c0 1.1045 0.8955 2 2 2h4c1.1045 0 2-0.8955 2-2v-9z"/><path d="m51 40c0-1.1045-0.8955-2-2-2h-4c-1.1045 0-2 0.8955-2 2v9c0 1.1045 0.8955 2 2 2h4c1.1045 0 2-0.8955 2-2v-9z"/><path d="m63 40c0-1.1045-0.8955-2-2-2h-4c-1.1045 0-2 0.8955-2 2v9c0 1.1045 0.8955 2 2 2h4c1.1045 0 2-0.8955 2-2v-9z"/><path d="m44 21c1.9521 1.9521 1.9521 5.1182 0 7.0713s-5.1182 1.9531-7.0713 0l7.0713-7.0713z"/><path d="M56.5361,21c1.9522,1.9521,1.9522,5.1182,0,7.0713c-1.9531,1.9531-5.1191,1.9531-7.0722,0L56.5361,21z"/><path d="m39 44.334c0 1.1035-0.8955 2-2 2"/><path d="m39 40c0 1.1045-0.8955 2-2 2"/><path d="m51 44.334c0 1.1035-0.8955 2-2 2"/><path d="m51 40c0 1.1045-0.8955 2-2 2"/><path d="m63 44.334c0 1.1035-0.8955 2-2 2"/><path d="m63 40c0 1.1045-0.8955 2-2 2"/></g></svg>
