<svg xmlns="http://www.w3.org/2000/svg" id="a" viewBox="0 0 72 72"><g id="b" fill="#fff"><path d="M65,66.64c-1.3,0-22,0.36-32,0C34,52,36,37,41,24l1-0.82c-4.32-3.03-6.37-8.6-6.37-16.18h28.74 c0,7.58-2.05,13.15-6.37,16.18V24C64,37,64,52,65,66.64z"/><path stroke-linecap="round" stroke-linejoin="round" stroke-miterlimit="10" stroke-width="2" d="m34 66.636c9.9998 0.3639 29.7 0 31 0-1-14.636-1-29.636-7-42.636"/><path stroke-linecap="round" stroke-linejoin="round" stroke-miterlimit="10" stroke-width="2" d="m37.548 38.248c1.1488-5.8127 2.6403-10.806 4.3783-14.662l0.2072-0.3738"/><path stroke-linecap="round" stroke-linejoin="round" stroke-miterlimit="10" stroke-width="2" d="m37.548 38.248c-0.4857 2.4575-0.9102 5.0613-1.2661 7.7875"/><path stroke-linecap="round" stroke-linejoin="round" stroke-miterlimit="10" stroke-width="2" d="m18.04 51h16.33c0 6.9523-2.2865 12.776-7.1166 15.68h-14.4c-4.8294-2.9042-7.1159-8.7276-7.1159-15.68h12.303z"/><path stroke-linecap="round" stroke-linejoin="round" stroke-miterlimit="10" stroke-width="2" d="m64.37 8c0 6.7783-2.1735 12.483-6.7586 15.456"/><path stroke-linecap="round" stroke-linejoin="round" stroke-miterlimit="10" stroke-width="2" d="m41.978 23.102c-4.2305-3.0582-6.2401-8.5838-6.2401-15.102"/></g><g id="c" fill="none" stroke="#000" stroke-linecap="round" stroke-linejoin="round" stroke-miterlimit="10" stroke-width="2"><path d="m34 66.636c9.9998 0.3639 29.7 0 31 0-1-14.636-1-29.636-7-42.636"/><path d="m37.548 38.248c1.1488-5.8127 2.6403-10.806 4.3783-14.662l0.2072-0.3738"/><path d="m37.548 38.248c-0.4857 2.4575-0.9102 5.0613-1.2661 7.7875"/><path d="m18.04 51h16.33c0 6.9523-2.2865 12.776-7.1166 15.68h-14.4c-4.8294-2.9042-7.1159-8.7276-7.1159-15.68h12.303z"/><path d="m64.37 8c0 6.7783-2.1735 12.483-6.7586 15.456"/><path d="m41.978 23.102c-4.2305-3.0582-6.2401-8.5838-6.2401-15.102"/></g></svg>