<?xml version="1.0" encoding="UTF-8"?>
<svg id="a" viewBox="0 0 72 72" xmlns="http://www.w3.org/2000/svg"><g id="b"><polygon points="22 27 50 27 47 60 25 60" fill="#ea5a47"/><path d="m50.672 27.243 2.8594-1.5469-0.5284-0.8711c1.1641-0.4121 1.9981-1.5215 1.9971-2.8262-1e-3 -1.4336-1.0107-2.6308-2.3574-2.9258 0.5947-1.1328 0.4306-2.5586-0.5205-3.5078-0.8487-0.8496-2.0791-1.0732-3.1397-0.6914-0.0849-0.9385-0.6035-1.8232-1.4804-2.3291-0.7989-0.4609-1.7178-0.5-2.5225-0.207-0.0859-1.2432-0.9326-2.3516-2.2002-2.6904-0.9639-0.2588-1.9395-0.0098-2.6602 0.5732-0.3466-0.1396-0.7226-0.2207-1.1191-0.2207-0.2432 0-0.4766 0.0371-0.7031 0.0918-0.5508-0.6621-1.3692-1.0918-2.2969-1.0918s-1.7471 0.4297-2.2969 1.0918c-0.2265-0.0547-0.4599-0.0918-0.7031-0.0918-0.3955 0-0.7705 0.0811-1.1162 0.2197-0.7207-0.582-1.6963-0.831-2.6592-0.5722-1.4824 0.3974-2.3916 1.8388-2.1797 3.3213-0.9385-0.8829-2.3711-1.1006-3.5439-0.4239-0.8203 0.4737-1.3194 1.2774-1.4531 2.1465-0.7842-0.0137-1.5713 0.2754-2.169 0.8731-0.9512 0.9511-1.1172 2.3779-0.5244 3.5087-1.3457 0.2969-2.3545 1.4922-2.3535 2.9258 1e-3 1.3106 0.8408 2.4239 2.0127 2.833l-0.2949 0.9424 3.0937 1.9375" fill="#fcea2b"/></g><g id="c" fill="none" stroke="#000" stroke-linecap="round" stroke-linejoin="round" stroke-miterlimit="10" stroke-width="2"><path d="m53.003 24.825c1.1641-0.4121 1.9981-1.5215 1.9971-2.8262-1e-3 -1.4336-1.0107-2.6308-2.3574-2.9258 0.5947-1.1328 0.4306-2.5586-0.5205-3.5078-0.8487-0.8496-2.0791-1.0732-3.1397-0.6914-0.0849-0.9385-0.6035-1.8232-1.4804-2.3291-0.7989-0.4609-1.7178-0.5-2.5225-0.207-0.0859-1.2432-0.9326-2.3516-2.2002-2.6904-0.9639-0.2588-1.9395-0.0098-2.6602 0.5732-0.3466-0.1396-0.7226-0.2207-1.1191-0.2207-0.2432 0-0.4766 0.0371-0.7031 0.0918-0.5508-0.6621-1.3692-1.0918-2.2969-1.0918s-1.7471 0.4297-2.2969 1.0918c-0.2265-0.0547-0.4599-0.0918-0.7031-0.0918-0.3955 0-0.7705 0.0811-1.1162 0.2197-0.7207-0.582-1.6963-0.831-2.6592-0.5722-1.4824 0.3974-2.3916 1.8388-2.1797 3.3213-0.9385-0.8829-2.3711-1.1006-3.5439-0.4239-0.8203 0.4737-1.3194 1.2774-1.4531 2.1465-0.7842-0.0137-1.5713 0.2754-2.169 0.8731-0.9512 0.9511-1.1172 2.3779-0.5244 3.5087-1.3457 0.2969-2.3545 1.4922-2.3535 2.9258 1e-3 1.3106 0.8408 2.4239 2.0127 2.833"/><polygon points="22 27 50 27 47 60 25 60"/><path d="m26 21c0-1.6572 1.3438-3 3-3"/><path d="m34 18c0-1.6572 1.3428-3 3-3"/></g></svg>
