<?xml version="1.0" encoding="UTF-8"?>
<svg id="a" version="1.1" viewBox="0 0 72 72" xmlns="http://www.w3.org/2000/svg"><g id="b"><rect transform="matrix(.9907 -.1362 .1362 .9907 -4.8571 7.1074)" x="38.832" y="26.095" width="21.362" height="25.909" fill="#FCEA2B"/><polygon points="52.352 25.582 50.571 51.979 61.858 50.428 58.329 24.761" fill="#F1B31C"/><path d="m54.179 19.703c-0.92 0.1257-1.7192 0.5748-2.3177 1.2226-0.8493-1.2758-2.3157-2.0295-3.8622-1.8181-0.5648 0.0772-1.0837 0.2763-1.5399 0.5676-0.9375-0.9642-2.26-1.4884-3.6423-1.2995-2.0787 0.2841-3.5999 2.0797-3.731 4.2139-0.2539-0.0279-0.5121-0.0337-0.7749 0.0022-1.8366 0.251-3.1097 2.0372-2.8429 3.9888l0.7729 5.6548c0.1063 0.7775 0.7919 1.3319 1.5236 1.2319l0.6652-0.0909c0.7317-0.1 1.2434-0.818 1.1372-1.5955l-0.1542-1.1281c0.439 0.2071 0.9283 0.3023 1.4332 0.2333l1.3084-0.1788c0.8481-0.1159 1.5384-0.6531 1.9362-1.3814 0.8731 0.9888 2.1616 1.5414 3.5039 1.358 2.1952-0.3 3.7303-2.454 3.4115-4.7866l7.705-1.0531c0.0872-0.4627 0.1068-0.9492 0.0389-1.4454-0.3203-2.3426-2.3665-3.997-4.5709-3.6957z" fill="#fff"/><path d="m37.889 28.704c-0.2592-1.8965 1.02-3.6381 2.8567-3.8891 0.2627-0.0359 0.5209-0.0313 0.7745-0.0051 0.1393-2.0755 1.6664-3.8272 3.7452-4.1113 1.3822-0.1889 2.7021 0.3157 3.6354 1.2496 0.4571-0.285 0.9765-0.4805 1.5413-0.5578 1.5466-0.2114 3.0093 0.5158 3.8533 1.753 0.6007-0.6321 1.4012-1.0718 2.3211-1.1975 0.3737-0.0511 0.7416-0.0434 1.0981 0.0088-0.7635-1.5343-2.3996-2.4881-4.143-2.2498-0.9199 0.1257-1.7204 0.5655-2.3211 1.1975-0.844-1.2372-2.3067-1.9644-3.8533-1.753-0.5648 0.0772-1.0842 0.2728-1.5413 0.5578-0.9333-0.9339-2.2531-1.4385-3.6354-1.2496-2.0788 0.2842-3.6059 2.0358-3.7452 4.1113-0.2536-0.0262-0.5118-0.0308-0.7745 0.0051-1.8367 0.2511-3.1159 1.9926-2.8567 3.8891l0.7509 5.4952c0.1032 0.7556 0.7864 1.2919 1.5181 1.1919l0.6652-0.0909c0.2543-0.0347 0.4796-0.1454 0.6646-0.3022l-0.5539-4.053z" fill="#fff"/><rect transform="matrix(.1362 -.9907 .9907 .1362 -20.143 56.995)" x="9.6574" y="29.367" width="25.909" height="21.362" fill="#FCEA2B"/><polygon points="19.772 26.582 21.553 52.979 10.267 51.428 13.795 25.761" fill="#F1B31C"/><path d="m17.945 20.703c0.92 0.1257 1.7192 0.5748 2.3177 1.2226 0.8493-1.2758 2.3157-2.0295 3.8622-1.8181 0.5648 0.0772 1.0837 0.2763 1.5399 0.5676 0.9375-0.9642 2.26-1.4884 3.6423-1.2995 2.0787 0.2841 3.5999 2.0797 3.731 4.2139 0.2539-0.0279 0.5121-0.0337 0.7749 0.0022 1.8366 0.251 3.1097 2.0372 2.8429 3.9888l-0.7729 5.6548c-0.1063 0.7775-0.7919 1.3319-1.5236 1.2319l-0.6652-0.0909c-0.7317-0.1-1.2434-0.818-1.1372-1.5955l0.1542-1.1281c-0.439 0.2071-0.9283 0.3023-1.4332 0.2333l-1.3084-0.1788c-0.8481-0.1159-1.5384-0.6531-1.9362-1.3814-0.8731 0.9888-2.1616 1.5414-3.5039 1.358-2.1952-0.3-3.7303-2.454-3.4115-4.7866l-7.705-1.0531c-0.0872-0.4627-0.1068-0.9492-0.0389-1.4454 0.3202-2.3426 2.3664-3.997 4.5709-3.6957z" fill="#fff"/><path d="m34.236 29.704c0.2592-1.8965-1.02-3.6381-2.8567-3.8891-0.2627-0.0359-0.5209-0.0313-0.7745-0.0051-0.1393-2.0755-1.6664-3.8272-3.7452-4.1113-1.3822-0.1889-2.7021 0.3157-3.6354 1.2496-0.4571-0.285-0.9765-0.4805-1.5413-0.5578-1.5466-0.2114-3.0093 0.5158-3.8533 1.753-0.6007-0.6321-1.4012-1.0718-2.3211-1.1975-0.3737-0.0511-0.7416-0.0434-1.0981 0.0088 0.7635-1.5343 2.3996-2.4881 4.143-2.2498 0.9199 0.1257 1.7204 0.5655 2.3211 1.1975 0.844-1.2372 2.3067-1.9644 3.8533-1.753 0.5648 0.0772 1.0842 0.2728 1.5413 0.5578 0.9333-0.9339 2.2531-1.4385 3.6354-1.2496 2.0788 0.2842 3.6059 2.0358 3.7452 4.1113 0.2536-0.0262 0.5117-0.0308 0.7745 0.0051 1.8367 0.2511 3.1159 1.9926 2.8567 3.8891l-0.7509 5.4952c-0.1032 0.7556-0.7864 1.2919-1.5181 1.1919l-0.6652-0.0909c-0.2543-0.0347-0.4796-0.1454-0.6646-0.3022l0.5539-4.053z" fill="#fff"/></g><g id="c" fill="none" stroke="#000" stroke-linecap="round" stroke-linejoin="round" stroke-miterlimit="10" stroke-width="2"><path d="m61.621 44.046 4.2325-0.5819c1.5519-0.2134 2.6471-1.6577 2.4338-3.2096l-1.3577-9.8759c-0.2134-1.5519-1.6577-2.6471-3.2096-2.4338l-4.2325 0.5819"/><polyline points="50.988 25.77 58.329 24.761 61.895 50.699 41.438 53.511 39.463 39.145"/><path d="m36.13 31.427 0.1105 0.8085c0.1063 0.7775 0.7919 1.3319 1.5236 1.2319l0.6652-0.0909c0.144-0.0197 0.2796-0.0633 0.4035-0.1267"/><path d="m38.833 33.25c0.5057-0.2584 0.8189-0.8444 0.7336-1.4689l-0.1542-1.1281c0.439 0.2071 0.9283 0.3023 1.4332 0.2333l1.3084-0.1788c0.8481-0.1159 1.5384-0.6531 1.9362-1.3814 0.8731 0.9888 2.1616 1.5414 3.5039 1.358 2.1952-0.3 3.7303-2.454 3.4115-4.7866l7.705-1.0531c0.0872-0.4627 0.1068-0.9492 0.0389-1.4454-0.3202-2.3425-2.3664-3.9969-4.5708-3.6956-0.92 0.1257-1.7192 0.5748-2.3177 1.2226-0.8493-1.2758-2.3157-2.0295-3.8622-1.8181-0.5648 0.0772-1.0837 0.2763-1.5399 0.5676-0.9375-0.9642-2.26-1.4884-3.6423-1.2995-2.0787 0.2841-3.5999 2.0797-3.731 4.2139-0.2539-0.0279-0.5121-0.0337-0.7749 0.0022-1.1479 0.1569-2.0756 0.9134-2.5449 1.9353"/><path d="m10.503 45.046-4.2325-0.5819c-1.5519-0.2134-2.6471-1.6577-2.4338-3.2096l1.3577-9.8759c0.2134-1.5519 1.6577-2.6471 3.2096-2.4338l4.2325 0.5819"/><polyline points="21.136 26.77 13.795 25.761 10.229 51.699 30.686 54.511 32.661 40.145"/><path d="m33.291 34.25c-0.5057-0.2584-0.8189-0.8444-0.7336-1.4688l0.1542-1.1281c-0.439 0.2071-0.9283 0.3023-1.4332 0.2333l-1.3084-0.1788c-0.8481-0.1159-1.5384-0.6531-1.9362-1.3814-0.8731 0.9888-2.1616 1.5414-3.5039 1.358-2.1952-0.3-3.7303-2.454-3.4115-4.7866l-7.705-1.0531c-0.0872-0.4627-0.1068-0.9492-0.0389-1.4454 0.3202-2.3425 2.3664-3.9969 4.5708-3.6956 0.92 0.1257 1.7192 0.5748 2.3177 1.2226 0.8493-1.2758 2.3157-2.0295 3.8622-1.8181 0.5648 0.0772 1.0837 0.2763 1.5399 0.5676 0.9375-0.9642 2.26-1.4884 3.6423-1.2995 2.0787 0.2841 3.5999 2.0797 3.731 4.2139 0.2539-0.0279 0.5121-0.0337 0.7749 0.0022 1.8366 0.251 3.1097 2.0372 2.8429 3.9888l-0.7729 5.6548c-0.1063 0.7775-0.7919 1.3319-1.5236 1.2319l-0.6652-0.0909c-0.144-0.0198-0.2795-0.0634-0.4035-0.1268"/></g></svg>
