<svg xmlns="http://www.w3.org/2000/svg" id="a" viewBox="0 0 72 72"><g id="b"><path fill="#fff" d="m58 17.057-17.751 2.7278-1.3265 1.2081-31.922 5.0074c-1.1045 0-2 0.8965-2 2v12h1c2.7617 0 5-2.2383 5-4.999 0-2.7617 2.2383-5.001 5-5.001s5 2.2393 5 5.001c0 2.7607 2.2383 4.999 5 4.999s5-2.2383 5-4.999c0-2.7617 2.2383-5.001 5-5.001s5 2.2393 5 5.001c0 2.7607 2.2383 4.999 5 4.999s5-2.2383 5-4.999c0-2.7617 2.2383-5.001 5-5.001s5 2.2393 5 5.001c0 2.7607 2.2383 4.999 5 4.999h1v-12c0-4.7112-3.2599-8.6632-7.647-9.7215-0.4344-0.1048-0.8799-1.1245-1.3344-1.1705"/><circle cx="49.5" cy="18" r="5" fill="#ea5a47"/><path fill="#fcea2b" d="M67,39v20c0,1.1055-0.8955,2-2,2H7c-1.1045,0-2-0.8945-2-2V39"/><path fill="#fcea2b" d="m67 40h-1c-2.7607 0-5-2.2383-5-5s-2.2393-5-5-5-5 2.2383-5 5-2.2393 5-5 5-5-2.2383-5-5-2.2393-5-5-5-5 2.2383-5 5-2.2393 5-5 5-5-2.2383-5-5-2.2393-5-5-5-5 2.2383-5 5-2.2393 5-5 5h-1"/></g><g id="c" fill="none" stroke="#000" stroke-linecap="round" stroke-linejoin="round" stroke-miterlimit="10" stroke-width="2"><path d="M67,28v31c0,1.1055-0.8955,2-2,2H7c-1.1045,0-2-0.8945-2-2V28c0-1.1035,0.8955-2,2-2l33.9961-5.4385"/><path d="M58.0186,18.0513C63.0625,18.5615,67,22.8223,67,28"/><path d="m5 40h1c2.7617 0 5-2.2383 5-4.999 0-2.7617 2.2383-5.001 5-5.001s5 2.2393 5 5.001c0 2.7607 2.2383 4.999 5 4.999s5-2.2383 5-4.999c0-2.7617 2.2383-5.001 5-5.001s5 2.2393 5 5.001c0 2.7607 2.2383 4.999 5 4.999s5-2.2383 5-4.999c0-2.7617 2.2383-5.001 5-5.001s5 2.2393 5 5.001c0 2.7607 2.2383 4.999 5 4.999h1"/><line x1="5" x2="67" y1="48" y2="48"/><line x1="5" x2="67" y1="52" y2="52"/><circle cx="49.5" cy="18" r="5"/><path d="m49.5 16c0-5.5229 4.4766-10 10-10"/></g></svg>