<?xml version="1.0" encoding="UTF-8"?>
<svg id="a" version="1.1" viewBox="0 0 72 72" xmlns="http://www.w3.org/2000/svg"><g id="b"><rect x="19" y="23.23" width="30" height="36.386" fill="#FCEA2B"/><polygon points="40.526 23.23 33 59.616 49 59.616 49 23.23" fill="#F1B31C"/><path d="m44.193 15.4c-1.304-1e-3 -2.5018 0.4709-3.4585 1.2577-0.9376-1.9375-2.8336-3.2665-5.0258-3.2682-0.8005-6e-4 -1.5606 0.1771-2.2511 0.4952-1.1199-1.5208-2.8597-2.5031-4.819-2.5046-2.9465-0.0023-5.4063 2.205-5.997 5.1492-0.3479-0.0874-0.7061-0.1448-1.0785-0.1451-2.6033-0.0021-4.7162 2.2396-4.7184 5.0059l-0.0063 8.0154c-9e-4 1.1021 0.847 2.0045 1.8842 2.0053l0.9429 7e-4c1.0372 8e-4 1.8865-0.9002 1.8873-2.0024l0.0013-1.5991c0.5711 0.3722 1.2338 0.5981 1.9494 0.5987l1.8546 0.0015c1.2022 9e-4 2.2653-0.6144 2.9581-1.5517 1.0256 1.5428 2.7125 2.5581 4.6153 2.5596 3.1115 0.0025 5.6594-2.7007 5.662-6.0071l10.921 0.0086c0.2098-0.627 0.3301-1.3002 0.3306-2.0036 0.0027-3.3203-2.5278-6.0135-5.6525-6.016z" fill="#fff"/><path d="m19.807 24.808c0.0022-2.6882 2.115-4.8665 4.7184-4.8646 0.3724 3e-4 0.7307 0.0561 1.0785 0.141 0.5907-2.861 3.0506-5.006 5.9971-5.0037 1.9593 0.0015 3.699 0.956 4.8189 2.4339 0.6904-0.3091 1.4505-0.4818 2.2511-0.4812 2.1922 0.0017 4.0882 1.2932 5.0258 3.1759 0.9567-0.7645 2.1545-1.2232 3.4585-1.2222 0.5297 4e-4 1.0401 0.0815 1.5261 0.2223-0.7688-2.2807-2.8627-3.9207-5.3338-3.9226-1.304-1e-3 -2.5018 0.4577-3.4585 1.2222-0.9376-1.8828-2.8336-3.1742-5.0258-3.1759-0.8005-6e-4 -1.5607 0.1721-2.2511 0.4812-1.1199-1.4778-2.8597-2.4324-4.8189-2.4339-2.9465-0.0023-5.4064 2.1427-5.9971 5.0037-0.3478-0.085-0.7061-0.1407-1.0785-0.141-2.6034-2e-3 -4.7163 2.1764-4.7184 4.8646l-0.0063 7.7891c-9e-4 1.071 0.847 1.9479 1.8842 1.9487l0.9429 7e-4c0.3605 3e-4 0.6951-0.1105 0.9824-0.2934l0.0045-5.7448z" fill="#fff"/></g><g id="c" fill="none" stroke="#000" stroke-linecap="round" stroke-linejoin="round" stroke-miterlimit="10"><path d="m49.5 50.5h6c2.2 0 4-1.8 4-4v-14c0-2.2-1.8-4-4-4h-6" stroke-width="2"/><polyline points="38.594 23.23 49 23.23 49 60 20 60 20 39.635" stroke-width="2.0185"/><path d="m20.252 31.312c0.753-0.2628 1.3009-1.0182 1.3016-1.9033l0.0013-1.5991c0.5711 0.3722 1.2338 0.5981 1.9494 0.5987l1.8546 0.0015c1.2022 9e-4 2.2653-0.6144 2.9581-1.5517 1.0256 1.5428 2.7125 2.5581 4.6153 2.5596 3.1115 0.0025 5.6594-2.7007 5.662-6.0071l10.921 0.0086c0.2098-0.627 0.3301-1.3002 0.3306-2.0036 0.0026-3.3204-2.5278-6.0136-5.6525-6.016-1.304-1e-3 -2.5018 0.4709-3.4585 1.2577-0.9376-1.9375-2.8336-3.2665-5.0258-3.2682-0.8005-6e-4 -1.5606 0.1771-2.2511 0.4952-1.1199-1.5208-2.8597-2.5031-4.819-2.5046-2.9465-0.0023-5.4063 2.205-5.997 5.1492-0.3479-0.0874-0.7061-0.1448-1.0785-0.1451-2.6033-0.0021-4.7162 2.2396-4.7184 5.0059l-0.0063 8.0154c-9e-4 1.1021 0.847 2.0045 1.8842 2.0053l0.9429 7e-4c0.2042 1e-4 0.4011-0.0347 0.5857-0.0991" stroke-width="2"/></g></svg>
