<?xml version="1.0" encoding="UTF-8"?>
<svg id="a" viewBox="0 0 72 72" xmlns="http://www.w3.org/2000/svg"><g id="b"><path d="m31.843 18.778c-3.5265-6.9338-11.93-9.884-19.035-6.571s-10.247 11.647-7.2019 18.806l26.237-12.235z" fill="#f1b31c"/><path d="m13.204 12.156c3.1295-1.4593 6.5101-1.7007 9.6158-0.9244-0.8834 0.2213-1.7593 0.525-2.6158 0.9244-6.1756 2.8798-9.3513 9.5527-8.0783 15.95l-6.1236 2.8555c-3.0448-7.1584 0.097-15.492 7.2019-18.806z" fill="#FCEA2B"/><path d="m66.66 30.961c3.0448-7.1584-0.0971-15.493-7.2019-18.806s-15.509-0.3628-19.035 6.571l26.237 12.235z" fill="#F1B31C"/><path d="m59.458 12.156c-3.1295-1.4593-6.5101-1.7007-9.6158-0.9244 0.8834 0.2213 1.7593 0.525 2.6158 0.9244 6.1756 2.8798 9.3513 9.5527 8.0783 15.95l6.1236 2.8555c3.0448-7.1584-0.097-15.492-7.2019-18.806z" fill="#FCEA2B"/><ellipse cx="19.295" cy="31.458" rx="2" ry="1.9708" fill="#ea5a47"/><ellipse cx="44.295" cy="33.458" rx="2" ry="1.9708" fill="#8967aa"/><ellipse cx="40.295" cy="55.458" rx="2" ry="1.9708" fill="#FCEA2B"/></g><g id="c" fill="none" stroke="#000" stroke-linecap="round" stroke-linejoin="round" stroke-miterlimit="10" stroke-width="2"><path d="m31.843 18.778c-3.5265-6.9338-11.93-9.884-19.035-6.571s-10.247 11.647-7.2019 18.806l26.237-12.235z"/><path d="m66.66 30.961c3.0448-7.1584-0.0971-15.493-7.2019-18.806s-15.509-0.3628-19.035 6.571l26.237 12.235z"/><path d="m36.361 30.342c-0.4363 0.257-0.8402 0.5878-1.1941 0.9918-1.8345 2.0941-1.6323 5.3611 0.4517 7.297"/><path d="m35.467 38.512c0.4084 0.2994 0.7771 0.669 1.0888 1.1064 1.6156 2.2673 1.0872 5.4977-1.1802 7.2151"/><path d="m20.956 42.954c-0.4954 0.1047-0.9836 0.2898-1.4477 0.5601-2.4057 1.4013-3.2539 4.5627-1.8945 7.0613"/><path d="m17.507 50.414c0.2919 0.4138 0.5237 0.8816 0.68 1.3954 0.8098 2.6637-0.7193 5.5578-3.4155 6.4641"/><path d="m53.493 38.62c0.4774 0.1689 0.937 0.4165 1.3616 0.7455 2.2007 1.7052 2.6261 4.9507 0.9502 7.249"/><path d="m55.931 46.469c-0.3437 0.3719-0.6351 0.8051-0.8575 1.294-1.1528 2.5341-0.0173 5.6041 2.5364 6.8569"/></g></svg>
