<?xml version="1.0" encoding="UTF-8"?>
<svg id="a" viewBox="0 0 72 72" xmlns="http://www.w3.org/2000/svg"><g id="b"><path d="m51.024 14.021c-1.6705-3.0089-3.6713-4.5339-5.9477-4.5339-2.6203 0-5.3416 2.0624-8.0912 6.133-0.3517 0.521-0.6812 1.042-0.985 1.5449-0.3038-0.5029-0.6333-1.0238-0.9857-1.5449-2.7479-4.0705-5.4701-6.133-8.0904-6.133-2.2762 0-4.278 1.5249-5.9476 4.5339-1.2484 2.252-1.1453 4.0191-0.548 4.9787 1.0765 1.7294 3.8299 2.7454 7.7039 3.4114 2.9746 0.5127 6.1222 0.5886 7.7335 0.5886h9e-4 0.1335 0.1344c1.6114 0 4.759-0.0759 7.7336-0.5886 3.8731-0.666 6.6256-1.682 7.7039-3.4114 0.5954-0.9596 0.7013-2.7266-0.5481-4.9787z" fill="#D22F27"/><rect x="16" y="36" width="39" height="25" fill="#FCEA2B"/><polygon points="53.39 35.5 17 35.558 17 41.058 44.143 44.987 55 46.5 55 35.558" fill="#f1b31c"/><polygon points="29.714 60 42.286 60 42.286 44.273 29.714 41.786" fill="#EA5A47"/><rect x="14" y="21" width="44" height="14" fill="#FCEA2B"/><rect x="29.714" y="22" width="12.571" height="13" fill="#EA5A47"/><polygon points="42.286 35.5 29.714 35.52 29.714 42.874 42.286 44.707" fill="#D22F27"/></g><g id="c" fill="none" stroke="#000" stroke-miterlimit="10" stroke-width="2"><line x1="54.091" x2="17.356" y1="21.357" y2="21.357" stroke-linecap="round" stroke-linejoin="round"/><polyline points="17.356 21.357 14 21.357 14 35.5 16.357 35.5 16.357 60.643 55.643 60.643 55.643 35.5 58 35.5 58 21.357 54.091 21.357" stroke-linecap="round" stroke-linejoin="round"/><line x1="16.357" x2="56.429" y1="35.5" y2="35.5" stroke-linecap="round" stroke-linejoin="round"/><path d="m50.961 18.251c0.3839-0.9798 0.4917-2.3937-0.4893-4.2293-1.6091-3.0089-3.5365-4.5339-5.7293-4.5339-2.5241 0-5.1454 2.0624-7.794 6.133-0.3388 0.521-0.6562 1.042-0.9488 1.5449-0.2926-0.5029-0.61-1.0238-0.9495-1.5449-2.647-4.0705-5.2692-6.133-7.7933-6.133-2.1926 0-4.1209 1.5249-5.7292 4.5339-0.9019 1.689-0.8835 3.0211-0.5752 3.9863" stroke-linecap="round" stroke-linejoin="round"/><line x1="42.286" x2="42.286" y1="60" y2="44.273"/><line x1="29.714" x2="29.714" y1="41.786" y2="60"/><line x1="42.286" x2="42.286" y1="35" y2="22"/><line x1="29.714" x2="29.714" y1="22" y2="35"/><polyline points="42.286 44.707 42.286 35.5 29.714 35.52 29.714 42.874"/></g></svg>
