<svg xmlns="http://www.w3.org/2000/svg" id="a" version="1.1" viewBox="0 0 72 72"><g id="b"><ellipse cx="35.921" cy="37.3" fill="#fff" rx="11.314" ry="5.657"/><path fill="#fff" d="m46.942 35.785c0.5998 0.5178 0.9795 1.2837 0.9795 2.1382 0 1.5594-1.2643 2.8236-2.8235 2.8236 0 1.5593-1.2643 2.8235-2.8236 2.8235-0.533 0-1.026-0.1564-1.4514-0.4131 0.1258 0.8535-0.1304 1.7527-0.7874 2.4096-1.1026 1.1027-2.8904 1.1027-3.9929 0-0.0461-0.046-0.0785-0.0994-0.1205-0.1475-0.5177 0.5924-1.2698 0.9745-2.1183 0.9745-1.5593 0-2.8236-1.2642-2.8236-2.8235 0-0.1419 0.0216-0.278 0.0417-0.4143-0.4256 0.2575-0.9195 0.4143-1.4534 0.4143-1.5593 0-2.8236-1.2642-2.8236-2.8235-0.7225 0-1.4451-0.2758-1.9964-0.8271-1.1028-1.1026-1.1028-2.8904 0-3.993"/><path fill="#EA5A47" d="m25.024 20.32c0.5059-6.6438 5.8965-11.02 10.896-11.02 6 0 9.0025 1.39 10.882 2.3793 10.493 5.524 8.7806 17.345 7.9726 22.641 0.0496-0.0038 0.0952-0.02 0.1458-0.02 0.7418 0 1.3818 0.4086 1.7272 1.0084 0.6921-9e-4 1.366 0.3491 1.7369 0.9916 0.3708 0.6424 0.3372 1.4011-0.0098 2 0.347 0.5989 0.3806 1.3575 0.0098 2-0.3709 0.6424-1.0447 0.9924-1.7368 0.9915-0.3454 0.5999-0.9855 1.0085-1.7273 1.0085s-1.382-0.4086-1.7273-1.0085c-0.6922 9e-4 -1.366-0.3491-1.7368-0.9915-0.3709-0.6425-0.3372-1.4011 0.0097-2-0.3469-0.5989-0.3806-1.3576-0.0097-2 0.0542-0.094 0.127-0.1681 0.1933-0.2494l-1.0313-0.4833-25.594-15.247z"/><path fill="#D22F27" d="m25.393 20.667 19.528-0.3669s4-3-1-10c14 4 11.074 22.8 11.084 22.937-0.0188-0.0256-0.0771 0.0845-0.2295 1.0832 0.0496-0.0038 0.0952-0.02 0.1458-0.02l-3.4641 2c0.0542-0.094 0.127-0.1681 0.1933-0.2494l-1.0597 0.5655-25.197-15.949z"/><path fill="#D22F27" d="m55.005 33.237c0.0127 0.0174 0.0071 0.0947 0 0z"/><path fill="#fff" d="m50.921 38.3c0 2.2091 1.7908 4 4 4 2.2091 0 4-1.7909 4-4s-1.7909-4-4-4c-2 1-2 1-3.2961 1.7331-0.444 0.6443-0.7039 1.4253-0.7039 2.2669z"/><path fill="#6A462F" d="m16.054 58.56c-2.1156-1.8336-3.4537-4.5404-3.4537-7.5597 0-4.503 3.9885-7.646 7.6297-8.6534 1.3738-0.38 2.8394 0.0319 3.7804 1.1026 2.1982 2.5012 6.0466 7.9954 4.5899 14.551"/><path fill="#fff" d="m46.743 20.3h-21.644c-0.6506 0-1.1779 0.4175-1.1779 0.9325v3.135c0 0.515 0.5273 0.9325 1.1779 0.9325h21.644c0.6505 0 1.1779-0.4175 1.1779-0.9325v-3.135c0-0.515-0.5274-0.9325-1.1779-0.9325z"/><path fill="#EA5A47" d="m54.796 60.9s2-13.9-10-13.9c-3.1919 2.1279-5.9264 3.5984-9 3.5921h0.125c-3.0736 0.0063-5.8082-1.4642-9-3.5921-12 0-10 13.9-10 13.9"/><path fill="#D22F27" d="m44.796 47c-3.1699 2.1133-4.875 3-8.9375 3.5886 13.062 0.4114 13.062 6.3114 13.825 10.311h5.1129s2-13.9-10-13.9z"/><path fill="#fff" d="M38.921,61v-5.9095c5.5076-0.3459,9.5193-2.7944,10.9741-7.0259C48.5656,47.4055,46.9,47,44.796,47 c-3.1699,2.1133-5.8895,3.5746-8.9375,3.5886c-3.048-0.014-5.7676-1.4753-8.9375-3.5886c-2.0474,0-3.6792,0.3846-4.991,1.0124 c2.4717,4.1207,6.142,6.3653,10.991,6.9589V61"/><path fill="#A57939" d="m12.6 51c0-4.503 3.9885-7.646 7.6297-8.6534 1.3738-0.38 2.8394 0.0319 3.7804 1.1026 2.1982 2.5012 6.0466 7.9954 4.5899 14.551 0 0-9-9-11-9"/></g><g id="c"><path fill="#6a462f" d="m46.54 25.321c0.4651 1.5491 0.7195 3.2271 0.7195 4.9793 0 1.7891-0.3386 5-0.7492 5.077-5.5894-3.077-12.715-4.7519-21.152 0.0855-0.4371-1.1625-0.7757-3.341-0.7757-5.1625 0-1.4757 0.1804-2.8987 0.5152-4.2364"/></g><g id="d"><path fill="none" stroke="#000" stroke-linecap="round" stroke-linejoin="round" stroke-miterlimit="10" stroke-width="2" d="m46.942 35.785c0.5998 0.5178 0.9795 1.2837 0.9795 2.1382 0 1.5594-1.2643 2.8236-2.8235 2.8236 0 1.5593-1.2643 2.8235-2.8236 2.8235-0.533 0-1.026-0.1564-1.4514-0.4131 0.1258 0.8535-0.1304 1.7527-0.7874 2.4096-1.1026 1.1027-2.8904 1.1027-3.9929 0-0.0461-0.046-0.0785-0.0994-0.1205-0.1475-0.5177 0.5924-1.2698 0.9745-2.1183 0.9745-1.5593 0-2.8236-1.2642-2.8236-2.8235 0-0.1419 0.0216-0.278 0.0417-0.4143-0.4256 0.2575-0.9195 0.4143-1.4534 0.4143-1.5593 0-2.8236-1.2642-2.8236-2.8235-0.7225 0-1.4451-0.2758-1.9964-0.8271-1.1028-1.1026-1.1028-2.8904 0-3.993"/><path fill="none" stroke="#000" stroke-linecap="round" stroke-linejoin="round" stroke-miterlimit="10" stroke-width="2" d="m16.054 58.56c-2.1156-1.8336-3.4537-4.5404-3.4537-7.5597 0-4.503 3.9885-7.646 7.6297-8.6534 1.3738-0.38 2.8394 0.0319 3.7804 1.1026 2.1982 2.5012 6.0466 7.9954 4.5899 14.551"/><path fill="none" stroke="#000" stroke-linecap="round" stroke-linejoin="round" stroke-miterlimit="10" stroke-width="2" d="m46.54 25.321c0.4651 1.5491 0.7195 3.2271 0.7195 4.9793 0 1.7891-0.3386 5-0.7492 5.077-5.5894-3.077-12.715-4.7519-21.152 0.0855-0.4371-1.1625-0.7757-3.341-0.7757-5.1625 0-1.4757 0.1804-2.8987 0.5152-4.2364"/><path d="m29.921 28.939c0 1.1045 0.8965 2 2 2s2-0.8955 2-2c0-1.1035-0.8965-2-2-2s-2 0.8965-2 2"/><path d="m37.921 28.939c0 1.1045 0.8965 2 2 2s2-0.8955 2-2c0-1.1035-0.8965-2-2-2s-2 0.8965-2 2"/><path d="m35.921 38.942c1.1518 0 2.3037-0.2861 3.4472-0.8579 0.4942-0.2471 0.6944-0.8477 0.4473-1.3418-0.2466-0.4937-0.8462-0.6943-1.3418-0.4473-1.7178 0.8594-3.3877 0.8594-5.1055 0-0.4946-0.247-1.0947-0.0464-1.3417 0.4473-0.2471 0.4941-0.0469 1.0947 0.4472 1.3418 1.1436 0.5718 2.2954 0.8579 3.4473 0.8579z"/><path fill="none" stroke="#000" stroke-linecap="round" stroke-linejoin="round" stroke-miterlimit="10" stroke-width="2" d="m46.818 20.32c-0.0737-0.9671-0.1899-1.8861-0.359-2.7506"/><path fill="none" stroke="#000" stroke-linecap="round" stroke-linejoin="round" stroke-miterlimit="10" stroke-width="2" d="m46.743 20.3h-21.644c-0.6506 0-1.1779 0.4175-1.1779 0.9325v3.135c0 0.515 0.5273 0.9325 1.1779 0.9325h21.644c0.6505 0 1.1779-0.4175 1.1779-0.9325v-3.135c0-0.515-0.5274-0.9325-1.1779-0.9325z"/><path fill="none" stroke="#000" stroke-linecap="round" stroke-linejoin="round" stroke-miterlimit="10" stroke-width="2" d="m25.024 20.32c0.5059-6.6438 5.8965-11.02 10.896-11.02 6 0 9.0025 1.39 10.882 2.3793 10.493 5.524 8.7806 17.345 7.9726 22.641 0.0496-0.0038 0.0952-0.02 0.1458-0.02 0.7418 0 1.3818 0.4086 1.7272 1.0084 0.6921-9e-4 1.366 0.3491 1.7369 0.9916 0.3708 0.6424 0.3372 1.4011-0.0098 2 0.347 0.5989 0.3806 1.3575 0.0098 2-0.3709 0.6424-1.0447 0.9924-1.7368 0.9915-0.3454 0.5999-0.9855 1.0085-1.7273 1.0085s-1.382-0.4086-1.7273-1.0085c-0.6922 9e-4 -1.366-0.3491-1.7368-0.9915-0.3709-0.6425-0.3372-1.4011 0.0097-2-0.3469-0.5989-0.3806-1.3576-0.0097-2 0.0542-0.094 0.127-0.1681 0.1933-0.2494l-1.0313-0.4833"/><path fill="none" stroke="#000" stroke-linecap="round" stroke-linejoin="round" stroke-miterlimit="10" stroke-width="2" d="m16.054 58.56c-2.1156-1.8336-3.4537-4.5404-3.4537-7.5597 0-4.503 3.9885-7.646 7.6297-8.6534 1.3738-0.38 2.8394 0.0319 3.7804 1.1026 2.1982 2.5012 6.0466 7.9954 4.5899 14.551 0 0-9-9-11-9"/><path fill="none" stroke="#000" stroke-linecap="round" stroke-linejoin="round" stroke-miterlimit="10" stroke-width="2" d="m25.024 20.32c0.5059-6.6438 5.8965-11.02 10.896-11.02 6 0 9.0025 1.39 10.882 2.3793 10.493 5.524 8.7806 17.345 7.9726 22.641 0.0496-0.0038 0.0952-0.02 0.1458-0.02 0.7418 0 1.3818 0.4086 1.7272 1.0084 0.6921-9e-4 1.366 0.3491 1.7369 0.9916 0.3708 0.6424 0.3372 1.4011-0.0098 2 0.347 0.5989 0.3806 1.3575 0.0098 2-0.3709 0.6424-1.0447 0.9924-1.7368 0.9915-0.3454 0.5999-0.9855 1.0085-1.7273 1.0085s-1.382-0.4086-1.7273-1.0085c-0.6922 9e-4 -1.366-0.3491-1.7368-0.9915-0.3709-0.6425-0.3372-1.4011 0.0097-2-0.3469-0.5989-0.3806-1.3576-0.0097-2 0.0542-0.094 0.127-0.1681 0.1933-0.2494l-1.0313-0.4833"/><path fill="none" stroke="#000" stroke-linecap="round" stroke-linejoin="round" stroke-miterlimit="10" stroke-width="2" d="m16.92 59.998s-0.97-6.3 2.49-10.13"/><path fill="none" stroke="#000" stroke-linecap="round" stroke-linejoin="round" stroke-miterlimit="10" stroke-width="2" d="m54.8 59.998s1.36-8.85-4.9-11.93l-0.51-0.24c-0.18-0.07-0.36-0.14-0.55-0.21-0.19-0.06-0.38-0.12-0.58-0.18-0.4-0.11-0.82-0.2-1.26-0.28-0.68-0.1-1.41-0.16-2.2-0.16-0.6 0.4-1.18 0.78-1.75 1.12-0.2 0.12-0.39 0.24-0.59 0.35l-0.54 0.3c-0.18 0.11-0.36 0.21-0.54 0.3-0.37 0.19-0.74 0.36-1.11 0.52s-0.73 0.3-1.1 0.42c-0.18 0.06-0.36 0.12-0.55 0.17-0.14 0.04-0.28 0.08-0.42 0.11-0.2 0.05-0.39 0.09-0.58 0.13-0.06 0.01-0.13 0.02-0.19 0.03-0.32 0.06-0.65 0.1-0.98 0.12-0.19 0.01-0.39 0.02-0.59 0.02h-0.14c-0.18 0-0.35-0.01-0.53-0.03-0.12 0-0.24-0.02-0.36-0.03-0.18-0.02-0.36-0.04-0.54-0.08-0.09-0.01-0.19-0.03-0.28-0.05-0.18-0.03-0.35-0.07-0.53-0.11-0.03-0.01-0.07-0.02-0.1-0.03-0.1-0.02-0.2-0.05-0.3-0.08-0.18-0.05-0.36-0.11-0.53-0.17-0.37-0.12-0.73-0.26-1.1-0.42-1.47-0.63-2.94-1.53-4.53-2.59-0.12 0-0.24 0-0.35 0.01"/><path fill="none" stroke="#000" stroke-linecap="round" stroke-linejoin="round" stroke-miterlimit="10" stroke-width="2" d="m28.88 53.988c1.24 0.48 2.59 0.81 4.04 0.98v5.03"/><path fill="none" stroke="#000" stroke-linecap="round" stroke-linejoin="round" stroke-miterlimit="10" stroke-width="2" d="m38.92 59.998v-4.91c5.51-0.34 9.52-2.79 10.98-7.02l-0.51-0.24c-0.18-0.07-0.36-0.14-0.55-0.21-0.19-0.06-0.38-0.12-0.58-0.18-0.4-0.11-0.82-0.2-1.26-0.28-0.68-0.1-1.41-0.16-2.2-0.16-0.6 0.4-1.18 0.78-1.75 1.12-0.2 0.12-0.39 0.24-0.59 0.35-0.18 0.11-0.36 0.22-0.54 0.3-0.18 0.11-0.36 0.21-0.54 0.3-0.37 0.19-0.74 0.36-1.11 0.52s-0.73 0.3-1.1 0.42c-0.18 0.07-0.36 0.13-0.55 0.17-0.14 0.04-0.28 0.08-0.42 0.11-0.2 0.05-0.39 0.09-0.58 0.13-0.06 0.01-0.13 0.02-0.19 0.03-0.32 0.06-0.65 0.1-0.98 0.12-0.19 0.01-0.39 0.02-0.59 0.02h-0.14c-0.18 0-0.35-0.01-0.53-0.03-0.12 0-0.24-0.02-0.36-0.03-0.18-0.02-0.36-0.04-0.54-0.08-0.09-0.01-0.19-0.03-0.28-0.05-0.21-0.04-0.42-0.09-0.63-0.14-0.1-0.02-0.2-0.05-0.3-0.08-0.18-0.05-0.36-0.11-0.53-0.17-0.37-0.12-0.73-0.26-1.1-0.42-1.47-0.63-2.94-1.53-4.53-2.59-0.12 0-0.24 0-0.35 0.01"/><path fill="none" stroke="#000" stroke-linecap="round" stroke-linejoin="round" stroke-miterlimit="10" stroke-width="2" d="m12.6 51c0-4.503 3.9885-7.646 7.6297-8.6534 1.3738-0.38 2.8394 0.0319 3.7804 1.1026 2.1982 2.5012 6.0466 7.9954 4.5899 14.551 0 0-9-9-11-9"/></g></svg>