<?xml version="1.0" encoding="UTF-8"?>
<svg id="a" viewBox="0 0 72 72" xmlns="http://www.w3.org/2000/svg"><g id="b"><line x1="22.707" x2="31.9" y1="46.707" y2="55.9" fill="none" stroke="#000" stroke-linecap="round" stroke-miterlimit="10" stroke-width="2"/><line x1="29.071" x2="29.071" y1="48.828" y2="53.071" fill="none" stroke="#000" stroke-linecap="round" stroke-miterlimit="10" stroke-width="2"/><line x1="26.243" x2="26.243" y1="46" y2="50.243" fill="none" stroke="#000" stroke-linecap="round" stroke-miterlimit="10" stroke-width="2"/><line x1="24.828" x2="29.071" y1="53.071" y2="53.071" fill="none" stroke="#000" stroke-linecap="round" stroke-miterlimit="10" stroke-width="2"/><line x1="22" x2="26.243" y1="50.243" y2="50.243" fill="none" stroke="#000" stroke-linecap="round" stroke-miterlimit="10" stroke-width="2"/><line x1="49.293" x2="40.1" y1="46.707" y2="55.9" fill="none" stroke="#000" stroke-linecap="round" stroke-miterlimit="10" stroke-width="2"/><line x1="42.929" x2="42.929" y1="48.828" y2="53.071" fill="none" stroke="#000" stroke-linecap="round" stroke-miterlimit="10" stroke-width="2"/><line x1="45.757" x2="45.757" y1="46" y2="50.243" fill="none" stroke="#000" stroke-linecap="round" stroke-miterlimit="10" stroke-width="2"/><line x1="47.172" x2="42.929" y1="53.071" y2="53.071" fill="none" stroke="#000" stroke-linecap="round" stroke-miterlimit="10" stroke-width="2"/><line x1="50" x2="45.757" y1="50.243" y2="50.243" fill="none" stroke="#000" stroke-linecap="round" stroke-miterlimit="10" stroke-width="2"/><line x1="36" x2="36" y1="43" y2="56" fill="none" stroke="#000" stroke-linecap="round" stroke-miterlimit="10" stroke-width="2"/><line x1="33" x2="36" y1="49" y2="52" fill="none" stroke="#000" stroke-linecap="round" stroke-miterlimit="10" stroke-width="2"/><line x1="33" x2="36" y1="45" y2="48" fill="none" stroke="#000" stroke-linecap="round" stroke-miterlimit="10" stroke-width="2"/><line x1="39" x2="36" y1="49" y2="52" fill="none" stroke="#000" stroke-linecap="round" stroke-miterlimit="10" stroke-width="2"/><line x1="39" x2="36" y1="45" y2="48" fill="none" stroke="#000" stroke-linecap="round" stroke-miterlimit="10" stroke-width="2"/><line x1="35" x2="35" y1="22" y2="33" fill="none" stroke="#000" stroke-linecap="round" stroke-miterlimit="10" stroke-width="2"/><line x1="37" x2="37" y1="28" y2="39" fill="none" stroke="#000" stroke-linecap="round" stroke-linejoin="round" stroke-width="2"/><path d="m36.5 8c1.3807 0 2.5 1.7909 2.5 4s-1.1193 4-2.5 4-2.5-1.7909-2.5-4 1.1193-4 2.5-4m0-2c-2.5234 0-4.5 2.6355-4.5 6s1.9766 6 4.5 6 4.5-2.6355 4.5-6-1.9766-6-4.5-6z"/><path d="m40.5 24c1.3807 0 2.5 1.7909 2.5 4s-1.1193 4-2.5 4-2.5-1.7909-2.5-4 1.1193-4 2.5-4m0-2c-2.5234 0-4.5 2.6355-4.5 6s1.9766 6 4.5 6 4.5-2.6355 4.5-6-1.9766-6-4.5-6z"/><path d="m31.5 18c1.3807 0 2.5 1.7909 2.5 4s-1.1193 4-2.5 4-2.5-1.7909-2.5-4 1.1193-4 2.5-4m0-2c-2.5234 0-4.5 2.6355-4.5 6s1.9766 6 4.5 6 4.5-2.6355 4.5-6-1.9766-6-4.5-6z"/><path d="M36.5,8C37.8807,8,39,9.7908,39,12V24.8181A1.9823,1.9823,0,0,1,40.5,24c1.3807,0,2.5,1.7908,2.5,4V55H29V22c0-2.2092,1.1193-4,2.5-4S34,19.7908,34,22l.08-10c0-2.2092,1.039-4,2.42-4m0-2c-2.52,0-4.42,2.5794-4.42,6l-.0325,4.0421A3.5721,3.5721,0,0,0,31.5,16c-2.5234,0-4.5,2.6355-4.5,6V55a2,2,0,0,0,2,2H43a2,2,0,0,0,2-2V28c0-3.1388-1.72-5.6432-4-5.965V12c0-3.3645-1.9766-6-4.5-6Z"/><line x1="32" x2="32" y1="56" y2="67" fill="none" stroke="#000" stroke-linecap="round" stroke-linejoin="round" stroke-width="2"/><line x1="40" x2="40" y1="56" y2="67" fill="none" stroke="#000" stroke-linecap="round" stroke-linejoin="round" stroke-width="2"/><line x1="46" x2="26" y1="59.5" y2="59.5" fill="none" stroke="#000" stroke-linecap="round" stroke-linejoin="round" stroke-width="2"/><line x1="26" x2="46" y1="63.5" y2="63.5" fill="none" stroke="#000" stroke-linecap="round" stroke-linejoin="round" stroke-width="2"/></g><g id="c"><rect x="26" y="56" width="20" height="11" fill="#f4aa41"/><line x1="32" x2="32" y1="56" y2="67" fill="none" stroke="#a57939" stroke-linecap="round" stroke-linejoin="round" stroke-width="2"/><line x1="40" x2="40" y1="56" y2="67" fill="none" stroke="#a57939" stroke-linecap="round" stroke-linejoin="round" stroke-width="2"/><line x1="46" x2="26" y1="59.5" y2="59.5" fill="none" stroke="#a57939" stroke-linecap="round" stroke-linejoin="round" stroke-width="2"/><line x1="26" x2="46" y1="63.5" y2="63.5" fill="none" stroke="#a57939" stroke-linecap="round" stroke-linejoin="round" stroke-width="2"/><rect x="29" y="22" width="5" height="33" fill="#b1cc33"/><rect x="34" y="12" width="5" height="43" fill="#5c9e31"/><rect x="38" y="28" width="5" height="27" fill="#b1cc33"/><ellipse cx="36.5" cy="12" rx="2.5" ry="4" fill="#f4aa41"/><ellipse cx="40.5" cy="28" rx="2.5" ry="4" fill="#f4aa41"/><ellipse cx="31.5" cy="22" rx="2.5" ry="4" fill="#f4aa41"/><line x1="22.707" x2="31.9" y1="46.707" y2="55.9" fill="none" stroke="#186648" stroke-linecap="round" stroke-miterlimit="10" stroke-width="2"/><line x1="29.071" x2="29.071" y1="48.828" y2="53.071" fill="none" stroke="#186648" stroke-linecap="round" stroke-miterlimit="10" stroke-width="2"/><line x1="26.243" x2="26.243" y1="46" y2="50.243" fill="none" stroke="#186648" stroke-linecap="round" stroke-miterlimit="10" stroke-width="2"/><line x1="24.828" x2="29.071" y1="53.071" y2="53.071" fill="none" stroke="#186648" stroke-linecap="round" stroke-miterlimit="10" stroke-width="2"/><line x1="22" x2="26.243" y1="50.243" y2="50.243" fill="none" stroke="#186648" stroke-linecap="round" stroke-miterlimit="10" stroke-width="2"/><line x1="49.293" x2="40.1" y1="46.707" y2="55.9" fill="none" stroke="#186648" stroke-linecap="round" stroke-miterlimit="10" stroke-width="2"/><line x1="42.929" x2="42.929" y1="48.828" y2="53.071" fill="none" stroke="#186648" stroke-linecap="round" stroke-miterlimit="10" stroke-width="2"/><line x1="45.757" x2="45.757" y1="46" y2="50.243" fill="none" stroke="#186648" stroke-linecap="round" stroke-miterlimit="10" stroke-width="2"/><line x1="47.172" x2="42.929" y1="53.071" y2="53.071" fill="none" stroke="#186648" stroke-linecap="round" stroke-miterlimit="10" stroke-width="2"/><line x1="50" x2="45.757" y1="50.243" y2="50.243" fill="none" stroke="#186648" stroke-linecap="round" stroke-miterlimit="10" stroke-width="2"/><line x1="36" x2="36" y1="43" y2="56" fill="none" stroke="#186648" stroke-linecap="round" stroke-miterlimit="10" stroke-width="2"/><line x1="33" x2="36" y1="49" y2="52" fill="none" stroke="#186648" stroke-linecap="round" stroke-miterlimit="10" stroke-width="2"/><line x1="33" x2="36" y1="45" y2="48" fill="none" stroke="#186648" stroke-linecap="round" stroke-miterlimit="10" stroke-width="2"/><line x1="39" x2="36" y1="49" y2="52" fill="none" stroke="#186648" stroke-linecap="round" stroke-miterlimit="10" stroke-width="2"/><line x1="39" x2="36" y1="45" y2="48" fill="none" stroke="#186648" stroke-linecap="round" stroke-miterlimit="10" stroke-width="2"/></g><g id="d"><rect x="26" y="56" width="20" height="11" fill="none" stroke="#000" stroke-linecap="round" stroke-linejoin="round" stroke-width="2"/></g></svg>
