<svg xmlns="http://www.w3.org/2000/svg" id="a" viewBox="0 0 72 72"><g id="b"><path fill="#fcea2b" d="M11,37c0,1.1045,50,2.1045,50,1v-7h-1V20c0-2.7612-2.2393-5-5-5H17c-2.7607,0-5,2.2388-5,5v11h-1V37z"/><path fill="#fff" d="M12,21.9238c1.9443-1.3081,4.6025-1.1064,6.3213,0.6123c1.9531,1.9522,5.1191,1.9522,7.0723,0 c1.9521-1.9521,5.1181-1.9521,7.0703,0c1.9531,1.9522,5.1191,1.9522,7.0722,0c1.9522-1.9521,5.1182-1.9521,7.0703,0 c1.9532,1.9522,5.1192,1.9522,7.0723,0c1.7188-1.7187,4.377-1.9204,6.3213-0.6123V20c0-2.7612-2.2393-5-5-5H17 c-2.7607,0-5,2.2388-5,5V21.9238z"/><path fill="#fcea2b" d="M5,60c0,1.1045,0.8955,2,2,2h58c1.1045,0,2-0.8955,2-2V41c0-2.7617-2.2393-5-5-5H10 c-2.7607,0-5,2.2383-5,5V60z"/><circle cx="36" cy="12" r="3" fill="#ea5a47"/><path fill="#fff" stroke-linecap="round" stroke-linejoin="round" stroke-miterlimit="10" stroke-width="2" d="m11.251 45.536c1.9521 1.9522 5.1181 1.9522 7.0703 0 1.9531-1.9521 5.1191-1.9521 7.0723 0 1.9521 1.9522 5.1181 1.9522 7.0703 0 1.9531-1.9521 5.1191-1.9521 7.0722 0 1.9522 1.9522 5.1182 1.9522 7.0703 0 1.9532-1.9521 5.1192-1.9521 7.0723 0 1.9522 1.9522 5.1182 1.9522 7.0703 0 1.6992-1.6982 4.3135-1.915 6.251-0.6591v-3.877c0-2.7617-2.2393-5-5-5h-52c-2.7607 0-5 2.2383-5 5v3.877c1.9375-1.2559 4.5518-1.0391 6.251 0.6591z"/></g><g id="c" fill="none" stroke="#000" stroke-linecap="round" stroke-linejoin="round" stroke-miterlimit="10" stroke-width="2"><circle cx="36" cy="12" r="3"/><path d="m36 10.75c0-2.7617 2.2383-5 5-5"/><path d="m11.251 45.536c1.9521 1.9522 5.1181 1.9522 7.0703 0 1.9531-1.9521 5.1191-1.9521 7.0723 0 1.9521 1.9522 5.1181 1.9522 7.0703 0 1.9531-1.9521 5.1191-1.9521 7.0722 0 1.9522 1.9522 5.1182 1.9522 7.0703 0 1.9532-1.9521 5.1192-1.9521 7.0723 0 1.9522 1.9522 5.1182 1.9522 7.0703 0 1.6992-1.6982 4.3135-1.915 6.251-0.6591v-3.877c0-2.7617-2.2393-5-5-5h-52c-2.7607 0-5 2.2383-5 5v3.877c1.9375-1.2559 4.5518-1.0391 6.251 0.6591z"/><path d="M5,44.877V60c0,1.1045,0.8955,2,2,2h58c1.1045,0,2-0.8955,2-2V44.877"/><path d="m11.251 45.536c1.9521 1.9522 5.1181 1.9522 7.0703 0 1.9531-1.9521 5.1191-1.9521 7.0723 0 1.9521 1.9522 5.1181 1.9522 7.0703 0 1.9531-1.9521 5.1191-1.9521 7.0722 0 1.9522 1.9522 5.1182 1.9522 7.0703 0 1.9532-1.9521 5.1192-1.9521 7.0723 0 1.9522 1.9522 5.1182 1.9522 7.0703 0 1.6992-1.6982 4.3135-1.915 6.251-0.6591v-3.877c0-2.7617-2.2393-5-5-5h-52c-2.7607 0-5 2.2383-5 5v3.877c1.9375-1.2559 4.5518-1.0391 6.251 0.6591z"/><line x1="60" x2="60" y1="21.924" y2="32"/><line x1="12" x2="12" y1="21.924" y2="32"/><path d="M12,21.9238c1.9443-1.3081,4.6025-1.1064,6.3213,0.6123c1.9531,1.9522,5.1191,1.9522,7.0723,0 c1.9521-1.9521,5.1181-1.9521,7.0703,0c1.9531,1.9522,5.1191,1.9522,7.0722,0c1.9522-1.9521,5.1182-1.9521,7.0703,0 c1.9532,1.9522,5.1192,1.9522,7.0723,0c1.7188-1.7187,4.377-1.9204,6.3213-0.6123V20c0-2.7612-2.2393-5-5-5H17 c-2.7607,0-5,2.2388-5,5V21.9238z"/></g></svg>