<?xml version="1.0" encoding="UTF-8"?>
<svg id="a" viewBox="0 0 72 72" xmlns="http://www.w3.org/2000/svg"><g id="b" fill="none" stroke="#000" stroke-linecap="round" stroke-width="2"><line x1="27.612" x2="27.612" y1="16.11" y2="16.11" stroke-miterlimit="10"/><line x1="55.898" x2="55.898" y1="44.382" y2="44.382" stroke-miterlimit="10"/><line x1="55.882" x2="55.882" y1="16.1" y2="16.1" stroke-miterlimit="10"/><line x1="27.593" x2="27.593" y1="16.128" y2="16.128" stroke-miterlimit="10"/><line x1="41.75" x2="41.75" y1="10.25" y2="24.25" stroke-linejoin="round"/><line x1="47.75" x2="61.75" y1="30.25" y2="30.25" stroke-linejoin="round"/><line x1="41.75" x2="41.75" y1="50.25" y2="36.25" stroke-linejoin="round"/><line x1="35.75" x2="21.75" y1="30.25" y2="30.25" stroke-linejoin="round"/><line x1="37.507" x2="31.143" y1="26.007" y2="19.643" stroke-miterlimit="10"/><line x1="52.357" x2="45.993" y1="19.643" y2="26.007" stroke-miterlimit="10"/><line x1="52.357" x2="45.993" y1="40.857" y2="34.493" stroke-miterlimit="10"/><line x1="32.262" x2="34.978" y1="7.347" y2="13.903" stroke-miterlimit="10"/><line x1="18.84" x2="25.397" y1="20.77" y2="23.485" stroke-miterlimit="10"/><line x1="18.843" x2="25.399" y1="39.753" y2="37.036" stroke-miterlimit="10"/><line x1="32.269" x2="34.983" y1="53.171" y2="46.614" stroke-miterlimit="10"/><line x1="51.252" x2="48.534" y1="53.164" y2="46.609" stroke-miterlimit="10"/><line x1="64.667" x2="58.11" y1="39.735" y2="37.023" stroke-miterlimit="10"/><line x1="64.656" x2="58.101" y1="20.752" y2="23.472" stroke-miterlimit="10"/><line x1="51.218" x2="48.51" y1="7.348" y2="13.908" stroke-miterlimit="10"/><line x1="32.236" x2="34.951" y1="7.3578" y2="13.914" stroke-miterlimit="10"/><path d="M13,57,40.6378,29.2409a1.5,1.5,0,0,1,2.1214,0h0a1.5,1.5,0,0,1,0,2.1213L19,55" stroke-miterlimit="10"/></g><g id="c"><path d="m11.293 57.172 28.638-28.638a2.5 2.5 0 0 1 3.5356 0 2.5 2.5 0 0 1 0 3.5355l-28.638 28.638a1 1 0 0 1-1.4142 0l-2.1213-2.1213a1 1 0 0 1 0-1.4142z" fill="#9b9b9a"/><g fill="none" stroke="#f1b31c" stroke-linecap="round" stroke-width="2"><line x1="27.612" x2="27.612" y1="16.11" y2="16.11" stroke-miterlimit="10"/><line x1="55.898" x2="55.898" y1="44.382" y2="44.382" stroke-miterlimit="10"/><line x1="55.882" x2="55.882" y1="16.1" y2="16.1" stroke-miterlimit="10"/><line x1="27.593" x2="27.593" y1="16.128" y2="16.128" stroke-miterlimit="10"/><line x1="41.75" x2="41.75" y1="10.25" y2="24.25" stroke-linejoin="round"/><line x1="47.75" x2="61.75" y1="30.25" y2="30.25" stroke-linejoin="round"/><line x1="41.75" x2="41.75" y1="50.25" y2="36.25" stroke-linejoin="round"/><line x1="35.75" x2="21.75" y1="30.25" y2="30.25" stroke-linejoin="round"/><line x1="37.507" x2="31.143" y1="26.007" y2="19.643" stroke-miterlimit="10"/><line x1="52.357" x2="45.993" y1="19.643" y2="26.007" stroke-miterlimit="10"/><line x1="52.357" x2="45.993" y1="40.857" y2="34.493" stroke-miterlimit="10"/><line x1="32.262" x2="34.978" y1="7.347" y2="13.903" stroke-miterlimit="10"/><line x1="18.84" x2="25.397" y1="20.77" y2="23.485" stroke-miterlimit="10"/><line x1="18.843" x2="25.399" y1="39.753" y2="37.036" stroke-miterlimit="10"/><line x1="32.269" x2="34.983" y1="53.171" y2="46.614" stroke-miterlimit="10"/><line x1="51.252" x2="48.534" y1="53.164" y2="46.609" stroke-miterlimit="10"/><line x1="64.667" x2="58.11" y1="39.735" y2="37.023" stroke-miterlimit="10"/><line x1="64.656" x2="58.101" y1="20.752" y2="23.472" stroke-miterlimit="10"/><line x1="51.218" x2="48.51" y1="7.348" y2="13.908" stroke-miterlimit="10"/><line x1="32.236" x2="34.951" y1="7.3578" y2="13.914" stroke-miterlimit="10"/></g></g><g id="d"><path d="m17 52.879 23.638-23.638a1.5 1.5 0 0 1 2.1214 0h0a1.5 1.5 0 0 1 0 2.1213l-10.839 10.839" fill="none" stroke="#000" stroke-linecap="round" stroke-miterlimit="10" stroke-width="2"/></g></svg>
