<?xml version="1.0" encoding="UTF-8"?>
<svg id="a" version="1.1" viewBox="0 0 72 72" xmlns="http://www.w3.org/2000/svg"><g id="b"><path d="m57.294 16.473c-4.9576 0-13.753 4.8295-18.134 9.5323 0.8358 0.8942 1.355 2.1297 1.355 3.4895-0.0483 6.2816 0.1137 6.5231-0.1576 7.6042 11.589 3.5957 14.485 12.515 20.195 4.9369 6.5154-8.648 2.8707-25.563-3.2576-25.563z" fill="#EA5A47"/><path d="m40.512 29.95c4.6559-4.2405 12.293-8.2014 16.782-8.2014 3.3555 0 5.9664 5.0713 6.5725 11.08 0.823-7.9779-2.2597-16.356-6.5725-16.356-4.9576 0-13.753 4.8295-18.134 9.5323 0.8358 0.8942 1.355 2.1297 1.355 3.4895-0.0012 0.1558-0.0022 0.3068-0.0031 0.4552z" fill="#D22F27"/><path d="m30.11 28.49v0.46c0.01 1.54 0.01 2.7 0 3.58v2.14c0 0.57 0.03 0.88 0.11 1.24 0.01 0.03 0.01 0.06 0.02 0.09 0.02 0.03 0.02 0.06 0.03 0.1h-0.01c-7.18 2.23-11.02 6.5-14.26 7.62-1.7 0.59-3.24 0.32-5-1.56-0.3-0.32-0.61-0.7-0.93-1.12-1.51-2.01-2.48-4.46-2.99-7.04v-0.02c-0.14-0.71-0.25-1.43-0.32-2.15-0.05-0.44-0.09-0.88-0.1-1.32-0.03-0.43-0.04-0.87-0.04-1.3 0-5.56 1.77-10.85 4.38-12.87 0.16-0.13 0.32-0.24 0.49-0.34 0.58-0.34 1.2-0.53 1.84-0.53 0.61 0 1.27 0.07 1.98 0.21 0.23 0.04 0.46 0.09 0.69 0.15 0.21 0.05 0.43 0.11 0.65 0.17 4.76 1.32 10.85 4.96 14.43 8.61l-0.97 3.88z" fill="#EA5A47"/><path d="m30.11 28.49v0.46c-3.82-3.48-9.66-6.78-14.11-7.84-0.97-0.23-1.87-0.36-2.67-0.36-0.83 0-1.61 0.31-2.33 0.87-0.12 0.09-0.23 0.18-0.35 0.29-2.01 1.83-3.46 5.64-3.89 9.92-0.05-0.44-0.09-0.88-0.1-1.32-0.03-0.43-0.04-0.87-0.04-1.3 0-5.56 1.77-10.85 4.38-12.87 0.16-0.13 0.32-0.24 0.49-0.34 0.58-0.34 1.2-0.53 1.84-0.53 0.61 0 1.27 0.07 1.98 0.21 0.23 0.04 0.46 0.09 0.69 0.15 0.21 0.05 0.43 0.11 0.65 0.17 4.76 1.32 10.85 4.96 14.43 8.61l-0.97 3.88z" fill="#D22F27"/><path d="m30.297 36.82c-1.2433 0.4498-2.3699 0.9827-3.4001 1.5558-2.2091 2.9385-6.1227 8.8343-10.312 18.22-0.3339 0.7478 0.1772 1.6439 0.8543 1.496l4.8211-1.054c0.6993-0.1529 1.3995 0.2638 1.7428 1.0375l2.1714 4.8934c0.38 0.8563 1.4067 0.6854 1.5923-0.2651 0.9416-4.8245 3.1008-15.242 5.7176-22.267-1.5431-0.3283-2.787-1.7591-3.1876-3.6164z" fill="#EA5A47"/><path d="m44.146 38.433c-1.0626-0.6085-2.206-1.1647-3.4429-1.6129-0.4006 1.8573-1.6446 3.2882-3.1877 3.6164 2.6169 7.0251 4.7762 17.442 5.7177 22.267 0.1855 0.9505 1.2123 1.1214 1.5923 0.2651l2.1715-4.8934c0.3433-0.7734 1.0435-1.1903 1.7428-1.0375l4.8211 1.054c0.6771 0.1479 1.1882-0.7481 0.8543-1.496-4.1623-9.3253-8.0525-15.205-10.269-18.163z" fill="#EA5A47"/><path d="m35.839 22.718h-1.6787c-2.2335 0-4.0505 2.3813-4.0505 5.3087v6.6448c0 2.9274 1.817 5.3088 4.0505 5.3088h1.6787c2.2335 0 4.0505-2.3815 4.0505-5.3088v-6.6448c1e-4 -2.9274-1.817-5.3087-4.0505-5.3087z" fill="#EA5A47"/><path d="m39.547 24.624c0.5888 0.922 0.9436 2.1089 0.9436 3.4025v6.6448c0 2.9274-1.817 5.3088-4.0505 5.3088h-1.6787c-0.5522 0-1.0787-0.146-1.5588-0.4094 1.4619-0.8019 2.4917-2.6958 2.4917-4.8994v-6.6448c0-2.2036-1.0298-4.0974-2.4917-4.8993 0.4801-0.2634 1.0066-0.4094 1.5588-0.4094h1.6787c1.2466 0 2.3633 0.7417 3.1069 1.9062z" fill="#D22F27"/></g><g id="c" fill="none" stroke="#000" stroke-miterlimit="10"><path d="m59.056 16.104c-0.5572-0.3152-1.1471-0.4855-1.762-0.4855-2.2168 0-5.2008 0.9656-8.2145 2.4537" stroke-width="1.992"/><path d="m40.357 36.245c11.589 3.5957 14.485 12.515 20.195 4.9369 5.8616-7.7802 3.4998-22.252-1.4956-25.077" stroke-width="1.992"/><path d="m49.08 18.073c-3.7261 1.8399-7.4976 4.4786-9.9199 7.0785" stroke-width="1.992"/><path d="m30.11 28.49v0.46c0.01 1.54 0.01 2.7 0 3.58 0 1.02-0.01 1.67 0 2.14 0 0.57 0.03 0.88 0.11 1.24 0 0.02 0.01 0.03 0.01 0.05 0.02 0.04 0.03 0.09 0.04 0.14h-0.01c-7.18 2.23-11.02 6.5-14.26 7.62-1.7 0.59-3.24 0.32-5-1.56-0.3-0.32-0.61-0.7-0.93-1.12-1.51-2.01-2.48-4.46-2.99-7.04-0.14-0.72-0.25-1.44-0.32-2.17-0.05-0.44-0.09-0.88-0.1-1.32-0.03-0.43-0.04-0.87-0.04-1.3 0-5.56 1.77-10.85 4.38-12.87 0.16-0.13 0.32-0.24 0.49-0.34 0.58-0.34 1.2-0.53 1.84-0.53 0.61 0 1.27 0.07 1.98 0.21 0.23 0.04 0.46 0.09 0.69 0.15 0.21 0.05 0.43 0.11 0.65 0.17 4.76 1.32 10.85 4.96 14.43 8.61" stroke-width="1.992"/><path d="m30.297 36.82c-1.2433 0.4498-2.3699 0.9827-3.4001 1.5558-2.2091 2.9385-6.1227 8.8343-10.312 18.22-0.3339 0.7478 0.1772 1.6439 0.8543 1.496l4.8211-1.054c0.6993-0.1529 1.3995 0.2638 1.7428 1.0375l2.1714 4.8934c0.38 0.8563 1.4067 0.6854 1.5923-0.2651 0.9416-4.8245 3.1008-15.242 5.7176-22.267-1.5431-0.3283-2.787-1.7591-3.1876-3.6164z" stroke-linecap="round" stroke-linejoin="round" stroke-width="2"/><path d="m44.146 38.433c-1.0626-0.6085-2.206-1.1647-3.4429-1.6129-0.4006 1.8573-1.6446 3.2882-3.1877 3.6164 2.6169 7.0251 4.7762 17.442 5.7177 22.267 0.1855 0.9505 1.2123 1.1214 1.5923 0.2651l2.1715-4.8934c0.3433-0.7734 1.0435-1.1903 1.7428-1.0375l4.8211 1.054c0.6771 0.1479 1.1882-0.7481 0.8543-1.496-4.1623-9.3253-8.0525-15.205-10.269-18.163z" stroke-linecap="round" stroke-linejoin="round" stroke-width="2"/><path d="m35.839 22.718h-1.6787c-2.2335 0-4.0505 2.3813-4.0505 5.3087v6.6448c0 2.9274 1.817 5.3088 4.0505 5.3088h1.6787c2.2335 0 4.0505-2.3815 4.0505-5.3088v-6.6448c1e-4 -2.9274-1.817-5.3087-4.0505-5.3087z" stroke-width="2"/></g></svg>
