<svg xmlns="http://www.w3.org/2000/svg" id="a" viewBox="0 0 72 72"><g id="b" stroke="#000" stroke-width="2"><rect width="2" height="25" x="35" y="38.915" fill="none" stroke-linecap="round" stroke-linejoin="round"/><line x1="15.995" x2="15.995" y1="32.911" y2="32.911" fill="none" stroke-linecap="round" stroke-miterlimit="10"/><line x1="55.989" x2="55.989" y1="32.902" y2="32.902" fill="none" stroke-linecap="round" stroke-miterlimit="10"/><line x1="35.978" x2="35.978" y1="12.915" y2="12.915" fill="none" stroke-linecap="round" stroke-miterlimit="10"/><line x1="21.849" x2="31.749" y1="18.771" y2="28.67" fill="none" stroke-linecap="round" stroke-linejoin="round"/><line x1="40.234" x2="50.133" y1="28.67" y2="18.771" fill="none" stroke-linecap="round" stroke-linejoin="round"/><line x1="50.133" x2="40.234" y1="47.055" y2="37.156" fill="none" stroke-linecap="round" stroke-linejoin="round"/><line x1="31.749" x2="21.849" y1="37.156" y2="47.055" fill="none" stroke-linecap="round" stroke-linejoin="round"/><line x1="29.991" x2="20.991" y1="32.913" y2="32.913" fill="none" stroke-linecap="round" stroke-miterlimit="10"/><line x1="35.991" x2="35.991" y1="17.913" y2="26.913" fill="none" stroke-linecap="round" stroke-miterlimit="10"/><line x1="50.991" x2="41.991" y1="32.913" y2="32.913" fill="none" stroke-linecap="round" stroke-miterlimit="10"/><line x1="13.087" x2="19.643" y1="23.427" y2="26.143" fill="none" stroke-linecap="round" stroke-miterlimit="10"/><line x1="13.088" x2="19.644" y1="42.41" y2="39.693" fill="none" stroke-linecap="round" stroke-miterlimit="10"/><line x1="26.513" x2="29.227" y1="55.83" y2="49.273" fill="none" stroke-linecap="round" stroke-miterlimit="10"/><line x1="45.495" x2="42.777" y1="55.825" y2="49.269" fill="none" stroke-linecap="round" stroke-miterlimit="10"/><line x1="58.913" x2="52.355" y1="42.396" y2="39.684" fill="none" stroke-linecap="round" stroke-miterlimit="10"/><line x1="58.903" x2="52.348" y1="23.415" y2="26.134" fill="none" stroke-linecap="round" stroke-miterlimit="10"/><line x1="45.472" x2="42.76" y1="10" y2="16.558" fill="none" stroke-linecap="round" stroke-miterlimit="10"/><line x1="26.492" x2="29.216" y1="10.024" y2="16.577" fill="none" stroke-linecap="round" stroke-miterlimit="10"/><polygon stroke-linejoin="round" points="36 34.315 37.7 35.53 37.069 33.538 38.75 32.298 36.661 32.282 36 30.3 35.339 32.282 33.25 32.298 34.931 33.538 34.3 35.53"/></g><g id="c" stroke-width="2"><rect width="2" height="25" x="35" y="38.915" fill="none" stroke="#d22f27" stroke-linecap="round" stroke-linejoin="round"/><line x1="15.995" x2="15.995" y1="32.911" y2="32.911" fill="none" stroke="#fcea2b" stroke-linecap="round" stroke-miterlimit="10"/><line x1="55.989" x2="55.989" y1="32.902" y2="32.902" fill="none" stroke="#f1b31c" stroke-linecap="round" stroke-miterlimit="10"/><line x1="35.978" x2="35.978" y1="12.915" y2="12.915" fill="none" stroke="#f1b31c" stroke-linecap="round" stroke-miterlimit="10"/><line x1="21.849" x2="31.749" y1="18.771" y2="28.67" fill="none" stroke="#e27022" stroke-linecap="round" stroke-linejoin="round"/><line x1="40.234" x2="50.133" y1="28.67" y2="18.771" fill="none" stroke="#61b2e4" stroke-linecap="round" stroke-linejoin="round"/><line x1="50.133" x2="40.234" y1="47.055" y2="37.156" fill="none" stroke="#f1b31c" stroke-linecap="round" stroke-linejoin="round"/><line x1="31.749" x2="21.849" y1="37.156" y2="47.055" fill="none" stroke="#e67a94" stroke-linecap="round" stroke-linejoin="round"/><line x1="29.991" x2="20.991" y1="32.913" y2="32.913" fill="none" stroke="#d0cfce" stroke-linecap="round" stroke-miterlimit="10"/><line x1="35.991" x2="35.991" y1="17.913" y2="26.913" fill="none" stroke="#8967aa" stroke-linecap="round" stroke-miterlimit="10"/><line x1="50.991" x2="41.991" y1="32.913" y2="32.913" fill="none" stroke="#ea5a47" stroke-linecap="round" stroke-miterlimit="10"/><line x1="13.087" x2="19.643" y1="23.427" y2="26.143" fill="none" stroke="#b399c8" stroke-linecap="round" stroke-miterlimit="10"/><line x1="13.088" x2="19.644" y1="42.41" y2="39.693" fill="none" stroke="#92d3f5" stroke-linecap="round" stroke-miterlimit="10"/><line x1="26.513" x2="29.227" y1="55.83" y2="49.273" fill="none" stroke="#b1cc33" stroke-linecap="round" stroke-miterlimit="10"/><line x1="45.495" x2="42.777" y1="55.825" y2="49.269" fill="none" stroke="#ffa7c0" stroke-linecap="round" stroke-miterlimit="10"/><line x1="58.913" x2="52.355" y1="42.396" y2="39.684" fill="none" stroke="#b399c8" stroke-linecap="round" stroke-miterlimit="10"/><line x1="58.903" x2="52.348" y1="23.415" y2="26.134" fill="none" stroke="#b1cc33" stroke-linecap="round" stroke-miterlimit="10"/><line x1="45.472" x2="42.76" y1="10" y2="16.558" fill="none" stroke="#a57939" stroke-linecap="round" stroke-miterlimit="10"/><line x1="26.492" x2="29.216" y1="10.024" y2="16.577" fill="none" stroke="#fcea2b" stroke-linecap="round" stroke-miterlimit="10"/><polygon fill="#d22f27" stroke="#d22f27" stroke-linejoin="round" points="36 34.315 37.7 35.53 37.069 33.538 38.75 32.298 36.661 32.282 36 30.3 35.339 32.282 33.25 32.298 34.931 33.538 34.3 35.53"/></g><g id="d"><polyline fill="none" stroke="#000" stroke-linecap="round" stroke-linejoin="round" stroke-width="2" points="35 58.915 35 38.915 37 38.915"/></g></svg>