<svg xmlns="http://www.w3.org/2000/svg" id="a" viewBox="0 0 72 72"><g id="b"><path fill="#D0CFCE" d="m42.392 24.68 17.608 0.2571 0.1694-7.6202-48.169-0.4881v8.1083l20.344-0.2571c0.5527 0 1.6146 0.5054 1.6146 1.0576l-0.2315 20.909c0 0.5527-2.9051 0.3328-3.4578 0.3328l-18.27-0.2921v8.3125l48-0.258v-7.7624h-20.13c-0.5528 0-1.6399-0.4474-1.6399-1.0001l0.4195-20.73c0-0.5522 3.1897-0.5695 3.7425-0.5695z"/><rect width="21.742" height="22.043" x="38.244" y="24.937" fill="#fff"/><rect width="21.951" height="22.043" x="12.004" y="24.937" fill="#fff"/></g><g id="c"><rect width="48" height="38" x="12" y="17" fill="none" stroke="#000" stroke-linecap="round" stroke-linejoin="round" stroke-miterlimit="10" stroke-width="2"/><polyline fill="none" stroke="#000" stroke-linecap="round" stroke-linejoin="round" stroke-miterlimit="10" stroke-width="2" points="12 24.937 33.959 24.937 33.959 46.98 12 46.98"/><polyline fill="none" stroke="#000" stroke-linecap="round" stroke-linejoin="round" stroke-miterlimit="10" stroke-width="2" points="60 46.98 38.23 46.98 38.23 24.937 60 24.937"/><circle cx="18.095" cy="20.908" r="1.079"/><circle cx="24.095" cy="20.908" r="1.079"/><circle cx="30.095" cy="20.908" r="1.079"/><circle cx="36.095" cy="20.908" r="1.079"/><circle cx="42.095" cy="20.908" r="1.079"/><circle cx="48.095" cy="20.908" r="1.079"/><circle cx="54.095" cy="20.908" r="1.079"/><circle cx="18.078" cy="51.026" r="1.079"/><circle cx="24.078" cy="51.026" r="1.079"/><circle cx="30.078" cy="51.026" r="1.079"/><circle cx="36.078" cy="51.026" r="1.079"/><circle cx="42.078" cy="51.026" r="1.079"/><circle cx="48.078" cy="51.026" r="1.079"/><circle cx="54.078" cy="51.026" r="1.079"/></g></svg>