<?xml version="1.0" encoding="UTF-8"?>
<svg id="a" viewBox="0 0 72 72" xmlns="http://www.w3.org/2000/svg"><g id="b" stroke-linecap="round" stroke-linejoin="round" stroke-miterlimit="10" stroke-width="2"><path d="m56 31.083c0-11.046-8.9543-20-20-20s-20 8.9543-20 20v33.875h40v-33.875z" fill="#D22F27"/><path d="m51.646 52.965v7.6214h-31.293v-7.492 1.9266-24.416c0-8.6413 7.0052-15.646 15.646-15.646s15.646 7.0052 15.646 15.646v24.416" fill="#EA5A47"/></g><g id="c" fill="none" stroke="#000" stroke-linecap="round" stroke-linejoin="round" stroke-miterlimit="10" stroke-width="2"><path d="m56 31.083c0-11.046-8.9543-20-20-20s-20 8.9543-20 20v33.875h40v-33.875z"/><path d="m51.646 52.965v7.6214h-31.293v-7.492 1.9266-24.416c0-8.6413 7.0052-15.646 15.646-15.646s15.646 7.0052 15.646 15.646v24.416"/><line x1="23.904" x2="46.898" y1="49.455" y2="49.455"/><path d="m31 9c0-2.7614 2.2386-5 5-5s5 2.2386 5 5"/></g></svg>
