<svg xmlns="http://www.w3.org/2000/svg" id="a" viewBox="0 0 72 72"><g id="b"><path fill="#92d3f5" d="m55.177 38.626a19.673 19.673 0 0 0 0.4943-9.2146 19.997 19.997 0 0 0-39.671 3.5881 19.742 19.742 0 0 0 0.8242 5.63 2.0054 2.0054 0 0 0 1.9234 1.4292h34.504a2.0071 2.0071 0 0 0 1.9246-1.4327z"/><path fill="#f1b31c" d="m39 41a3 3 0 0 1-6 0"/><path fill="#d0cfce" d="m16 54a14.423 14.423 0 0 0 14-4l4 6a14.423 14.423 0 0 1-14 4z"/></g><g id="c"><g fill="none" stroke="#000" stroke-width="2"><path stroke-miterlimit="10" d="m55.177 38.626a19.673 19.673 0 0 0 0.4943-9.2146 19.997 19.997 0 0 0-39.671 3.5881 19.742 19.742 0 0 0 0.8242 5.63 2.0054 2.0054 0 0 0 1.9234 1.4292h34.504a2.0071 2.0071 0 0 0 1.9246-1.4327z"/><path stroke-linecap="round" stroke-miterlimit="10" d="M36,13s.7889-4.1056-1-5"/><path stroke-miterlimit="10" d="m36 44s1 6-4 9"/><path stroke-miterlimit="10" d="m39 41a3 3 0 0 1-6 0"/><path stroke-linejoin="round" d="m16 54a14.423 14.423 0 0 0 14-4l4 6a14.423 14.423 0 0 1-14 4z"/></g></g></svg>