<svg xmlns="http://www.w3.org/2000/svg" id="a" viewBox="0 0 72 72"><g id="b" stroke-linecap="round" stroke-linejoin="round" stroke-miterlimit="10" stroke-width="2"><polygon fill="#fcea2b" points="36 27.737 41.248 43.888 58.23 43.888 44.491 53.87 49.739 70.021 36 60.039 22.261 70.021 27.509 53.87 13.77 43.888 30.752 43.888"/><polygon fill="#ea5a47" points="56 8.979 56 2.021 16 2.021 16 8.979 36 23.737"/></g><g id="c" fill="none" stroke="#000" stroke-linecap="round" stroke-linejoin="round" stroke-miterlimit="10" stroke-width="2"><polygon points="36 27.737 41.248 43.888 58.23 43.888 44.491 53.87 49.739 70.021 36 60.039 22.261 70.021 27.509 53.87 13.77 43.888 30.752 43.888"/><line x1="36" x2="36" y1="19.064" y2="2.021"/><polygon points="56 8.979 56 2.021 16 2.021 16 8.979 36 23.737"/><polygon points="36 27.737 41.248 43.888 58.23 43.888 44.491 53.87 49.739 70.021 36 60.039 22.261 70.021 27.509 53.87 13.77 43.888 30.752 43.888"/><line x1="36" x2="36" y1="19.064" y2="2.021"/><polygon points="56 8.979 56 2.021 16 2.021 16 8.979 36 23.737"/></g></svg>