<svg xmlns="http://www.w3.org/2000/svg" id="a" version="1.1" viewBox="0 0 72 72"><g id="b"><path fill="#3F3F3F" d="m48.11 28.54-4.38 4.39-4.35 4.35-5.81 5.47s-1.2755 1.3938-3.19 1.92-4.79-0.15-6.5699-1.92l-3.58-3.58c-2.77-2.78-2.77-7.32 0-10.1l4.31-4.3 9.9-9.8999c2.78-2.78 7.3199-2.78 10.09 0l3.58 3.58c2.7799 2.7699 2.7799 7.3199-1e-4 10.09z"/><path fill="#9B9B9A" d="m43.832 24.262s-3.4544 3.4623-4.3799 4.39c-0.9256 0.9277-4.35 2.4561-5.2784 3.3301-0.9283 0.874-3.2698 5.1874-4.8817 6.4899-1.6118 1.3025-1.0722 1.4146-3.19 1.92s-4.79-0.15-6.57-1.92l-0.6-0.6c-2.77-2.78-2.77-7.32 0-10.1l4.31-4.3 9.9-9.8999c2.78-2.78 7.3199-2.78 10.09 0l0.6 0.6c2.78 2.7799 2.78 7.3198 0 10.09z"/><rect width="27.843" height="5.297" x="21.902" y="54.688" fill="#D0CFCE"/><rect width="2.694" height="5.297" x="47.051" y="54.688" fill="#3F3F3F"/><path fill="#9B9B9A" d="m36.364 30.595-0.5432-1.3615c-0.6895 0-2.2504 0.9225-2.2504 1.6119v24.092c0 1e-4 2.9293-0.2495 2.9293-0.2495l-0.1357-24.093z"/><path fill="#3F3F3F" d="m38.12 54.688-0.2185-23.819c0-0.6894-0.8474-1.0591-1.5368-1.0591l0.1357 24.878s1.6196 1e-4 1.6196 0z"/><path fill="#D0CFCE" d="m32.42 28.088c-0.2558 0-0.5117-0.0977-0.707-0.293l-7.5977-7.5971c-0.3906-0.3907-0.3906-1.0235 0-1.4141 0.0187-0.0186 0.0435-0.0251 0.0632-0.0419l-0.0261-0.0264s-0.3883 0.3664-0.7789 0.7571c-0.3907 0.3906-0.3907 1.0234 0 1.414l7.4951 7.5705c0.1953 0.1953 0.4511 0.2929 0.707 0.2929s0.5117-0.0976 0.707-0.2929c0.2255-0.2258 0.462-0.403 0.6302-0.5197-0.1543 0.0892-0.3198 0.1506-0.4928 0.1506z"/><path fill="#D0CFCE" d="m41.027 35.658-1.2024 1.1804c-0.0477 0.3048 0.0283 0.6249 0.2632 0.8599l0.6086 0.5919c0.1953 0.1963 0.4511 0.2939 0.708 0.2939 0.2549 0 0.5107-0.0966 0.706-0.2919 0.3906-0.3897 0.822-0.7921 0.822-0.7921l-1.9054-1.8421z"/></g><g id="c" fill="none" stroke="#000" stroke-linecap="round" stroke-linejoin="round" stroke-miterlimit="10" stroke-width="2"><path d="m29.392 18.596 4.3865-4.3865c2.7764-2.7764 7.3196-2.7764 10.096 0l3.5778 3.5778c2.7764 2.7765 2.7764 7.3197 0 10.096l-4.3864 4.3864"/><path d="m29.72 44.009c-2.2958 0.4945-4.7929-0.1458-6.5678-1.9207l-3.5778-3.5778c-2.7764-2.7764-2.7764-7.3196 0-10.096l4.3033-4.3033"/><path d="m33.571 54.688v-22.843c0-1.2429 1.0075-2.2505 2.2504-2.2505h0.543c1.2429 0 2.2504 1.0076 2.2504 2.2505v22.843"/><rect width="27.305" height="5.297" x="22.44" y="54.688"/><line x1="20.996" x2="18.573" y1="40.499" y2="42.968"/><line x1="41.636" x2="42.17" y1="36.304" y2="36.838"/><line x1="24.823" x2="32.42" y1="19.491" y2="27.088"/></g></svg>