<?xml version="1.0" encoding="UTF-8"?>
<svg id="a" viewBox="0 0 72 72" xmlns="http://www.w3.org/2000/svg"><g id="b"><g stroke="#000"><circle cx="36" cy="21" r="9" fill="none" stroke-miterlimit="10" stroke-width="2"/><g fill="none" stroke-linecap="round" stroke-miterlimit="10" stroke-width="2"><path d="m15.006 43.04a9.8158 9.8158 0 0 1 6.6232 2.9568"/><path d="m15.534 40.011a10.281 10.281 0 0 1 6.56 2.4528"/><path d="m16.275 37.006a10.585 10.585 0 0 1 6.4447 2.1383"/><path d="m17.424 34.009a10.599 10.599 0 0 1 6.1608 2.0261"/><path d="m24.846 33.252a9.9691 9.9691 0 0 0-5.27-2.1559"/><path d="m23.076 28.678a8.7566 8.7566 0 0 1 3.575 2.3416"/></g><g fill="none" stroke-linecap="round" stroke-miterlimit="10" stroke-width="2"><path d="m20.006 52.04a9.8158 9.8158 0 0 1 6.6232 2.9568"/><path d="m20.534 49.011a10.281 10.281 0 0 1 6.56 2.4528"/><path d="m21.275 46.006a10.585 10.585 0 0 1 6.4447 2.1383"/><path d="m22.424 43.009a10.599 10.599 0 0 1 6.1608 2.0261"/><path d="m29.846 42.252a9.9691 9.9691 0 0 0-5.27-2.1559"/><path d="m28.076 37.678a8.7566 8.7566 0 0 1 3.575 2.3416"/></g><g fill="none" stroke-linecap="round" stroke-miterlimit="10" stroke-width="2"><path d="m25 28a12.06 12.06 0 0 0-7 5c-2.88 4.3193-3.686 14.857-3.912 20.421"/><path d="m30 37a12.06 12.06 0 0 0-7 5c-2.2917 3.4375-3.2693 10.81-3.6873 16.484"/></g><polygon points="52 22.46 52.618 22.902 52.389 22.178 53 21.727 52.24 21.721 52 21 51.76 21.721 51 21.727 51.611 22.088 51.382 22.902" stroke-linejoin="round" stroke-width=".75"/><polygon points="54.897 32.071 56.197 33 55.715 31.477 57 30.528 55.402 30.516 54.897 29 54.392 30.426 52.794 30.528 54.08 31.477 53.597 33" stroke-linejoin="round" stroke-width="1.5"/><polygon points="18.5 24.337 19.427 25 19.083 23.913 20 23.237 18.86 23.138 18.5 22.147 18.14 23.228 17 23.237 17.917 23.913 17.573 25" stroke-linejoin="round"/><circle cx="53.75" cy="47.75" r="2.25" fill="none" stroke-linecap="round" stroke-miterlimit="10" stroke-width="2"/><circle cx="47" cy="47.75" r="2.25" fill="none" stroke-linecap="round" stroke-miterlimit="10" stroke-width="2"/><circle cx="40.25" cy="47.75" r="2.25" fill="none" stroke-linecap="round" stroke-miterlimit="10" stroke-width="2"/><circle cx="43.625" cy="41.75" r="2.25" fill="none" stroke-linecap="round" stroke-miterlimit="10" stroke-width="2"/><circle cx="50.375" cy="41.75" r="2.25" fill="none" stroke-linecap="round" stroke-miterlimit="10" stroke-width="2"/><circle cx="47" cy="35.75" r="2.25" fill="none" stroke-linecap="round" stroke-miterlimit="10" stroke-width="2"/></g></g><g id="c"><circle cx="36" cy="36" r="28" fill="#1e50a0"/><circle cx="36" cy="21" r="9" fill="#f1b31c" stroke="#f1b31c" stroke-miterlimit="10" stroke-width="2"/><circle cx="53.75" cy="47.75" r="2.25" fill="#d0cfce" stroke="#d0cfce" stroke-linecap="round" stroke-miterlimit="10" stroke-width="2"/><circle cx="47" cy="47.75" r="2.25" fill="#d0cfce" stroke="#d0cfce" stroke-linecap="round" stroke-miterlimit="10" stroke-width="2"/><circle cx="40.25" cy="47.75" r="2.25" fill="#d0cfce" stroke="#d0cfce" stroke-linecap="round" stroke-miterlimit="10" stroke-width="2"/><circle cx="43.625" cy="41.75" r="2.25" fill="#d0cfce" stroke="#d0cfce" stroke-linecap="round" stroke-miterlimit="10" stroke-width="2"/><circle cx="50.375" cy="41.75" r="2.25" fill="#d0cfce" stroke="#d0cfce" stroke-linecap="round" stroke-miterlimit="10" stroke-width="2"/><circle cx="47" cy="35.75" r="2.25" fill="#d0cfce" stroke="#d0cfce" stroke-linecap="round" stroke-miterlimit="10" stroke-width="2"/><g fill="none" stroke="#f4aa41" stroke-linecap="round" stroke-miterlimit="10" stroke-width="2"><path d="m15.006 43.04a9.8158 9.8158 0 0 1 6.6232 2.9568"/><path d="m15.534 40.011a10.281 10.281 0 0 1 6.56 2.4528"/><path d="m16.275 37.006a10.585 10.585 0 0 1 6.4447 2.1383"/><path d="m17.424 34.009a10.599 10.599 0 0 1 6.1608 2.0261"/><path d="m24.846 33.252a9.9691 9.9691 0 0 0-5.27-2.1559"/><path d="m23.076 28.678a8.7566 8.7566 0 0 1 3.575 2.3416"/></g><g fill="none" stroke="#f4aa41" stroke-linecap="round" stroke-miterlimit="10" stroke-width="2"><path d="m20.006 52.04a9.8158 9.8158 0 0 1 6.6232 2.9568"/><path d="m20.534 49.011a10.281 10.281 0 0 1 6.56 2.4528"/><path d="m21.275 46.006a10.585 10.585 0 0 1 6.4447 2.1383"/><path d="m22.424 43.009a10.599 10.599 0 0 1 6.1608 2.0261"/><path d="m29.846 42.252a9.9691 9.9691 0 0 0-5.27-2.1559"/><path d="m28.076 37.678a8.7566 8.7566 0 0 1 3.575 2.3416"/></g><g fill="none" stroke="#5c9e31" stroke-linecap="round" stroke-miterlimit="10" stroke-width="2"><path d="m25 28a12.06 12.06 0 0 0-7 5c-2.88 4.3193-3.686 14.857-3.912 20.421"/><path d="m30 37a12.06 12.06 0 0 0-7 5c-2.2917 3.4375-3.2693 10.81-3.6873 16.484"/></g><polygon points="52 22.46 52.618 22.902 52.389 22.178 53 21.727 52.24 21.721 52 21 51.76 21.721 51 21.727 51.611 22.088 51.382 22.902" fill="#f1b31c" stroke="#f1b31c" stroke-linejoin="round" stroke-width=".75"/><polygon points="54.897 32.071 56.197 33 55.715 31.477 57 30.528 55.402 30.516 54.897 29 54.392 30.426 52.794 30.528 54.08 31.477 53.597 33" fill="#f1b31c" stroke="#f1b31c" stroke-linejoin="round" stroke-width="1.5"/><polygon points="18.5 24.337 19.427 25 19.083 23.913 20 23.237 18.86 23.138 18.5 22.147 18.14 23.228 17 23.237 17.917 23.913 17.573 25" fill="#f1b31c" stroke="#f1b31c" stroke-linejoin="round"/><path d="M36,64a27.8892,27.8892,0,0,0,18.6166-7.092q.4968-.4425.9715-.908H40Z" fill="#a57939" stroke="#a57939" stroke-linecap="round" stroke-linejoin="round" stroke-width="2"/><polygon points="58.243 53 34 53 34 56 40 56 55.588 56" fill="#a57939" stroke="#a57939" stroke-linecap="round" stroke-linejoin="round" stroke-width="2"/></g><g id="d"><g fill="none" stroke="#000" stroke-width="2"><path d="m55.341 49.341a2.25 2.25 0 0 1-3.182-3.182" stroke-linecap="round" stroke-miterlimit="10"/><path d="m48.591 49.341a2.25 2.25 0 0 1-3.182-3.182" stroke-linecap="round" stroke-miterlimit="10"/><path d="m41.841 49.341a2.25 2.25 0 0 1-3.182-3.182" stroke-linecap="round" stroke-miterlimit="10"/><path d="m45.216 43.341a2.25 2.25 0 0 1-3.182-3.182" stroke-linecap="round" stroke-miterlimit="10"/><path d="m51.966 43.341a2.25 2.25 0 0 1-3.182-3.182" stroke-linecap="round" stroke-miterlimit="10"/><path d="m48.591 37.341a2.25 2.25 0 0 1-3.182-3.182" stroke-linecap="round" stroke-miterlimit="10"/><polyline points="58.243 53 34 53 34 56" stroke-linecap="round" stroke-linejoin="round"/><path d="m42.364 27.364a9 9 0 0 1-12.728-12.728" stroke-linecap="round" stroke-miterlimit="10"/><line x1="40" x2="36" y1="56" y2="64" stroke-linecap="round" stroke-linejoin="round"/><circle cx="36" cy="36" r="28" stroke-linejoin="round"/></g></g></svg>
