<svg xmlns="http://www.w3.org/2000/svg" id="a" version="1.1" viewBox="0 0 72 72"><g id="b"><path fill="#D22F27" d="m57.6 35.9c0-4.9 3.9-9.1 9.4-10.6v-5.2h-62v5.5c4.9 1.7 8.4 5.7 8.4 10.3s-3.5 8.7-8.4 10.4v5.5h62v-5.2c-5.4-1.5-9.4-5.7-9.4-10.7z"/></g><g id="c" fill="none" stroke="#000" stroke-linejoin="round" stroke-miterlimit="10"><path stroke-width="2.216" d="m57.1 35.6c0-4.9 3.9-9.1 9.4-10.6v-5.2h-62v5.5c4.9 1.7 8.4 5.7 8.4 10.3s-3.5 8.6-8.4 10.3v5.5h62v-5.2c-5.4-1.5-9.4-5.7-9.4-10.6z"/><rect width="34" height="20" x="18.5" y="25" stroke-width="2.095"/></g><g id="d"><rect width="34" height="20" x="18.5" y="25" fill="none" stroke="#fff" stroke-linejoin="round" stroke-miterlimit="10" stroke-width="2.1"/></g></svg>