<?xml version="1.0" encoding="UTF-8"?>
<svg id="a" viewBox="0 0 72 72" xmlns="http://www.w3.org/2000/svg"><g id="b" stroke-linecap="round" stroke-linejoin="round" stroke-miterlimit="10" stroke-width="2"><polygon points="36 27.737 41.248 43.888 58.23 43.888 44.491 53.87 49.739 70.021 36 60.039 22.261 70.021 27.509 53.87 13.77 43.888 30.752 43.888" fill="#fcea2b"/><polygon points="56 8.9792 56 2.0208 16 2.0208 16 8.9792 36 23.737" fill="#ea5a47"/></g><g id="c" fill="none" stroke="#000" stroke-linecap="round" stroke-linejoin="round" stroke-miterlimit="10" stroke-width="2"><polygon points="36 27.737 41.248 43.888 58.23 43.888 44.491 53.87 49.739 70.021 36 60.039 22.261 70.021 27.509 53.87 13.77 43.888 30.752 43.888"/><line x1="36" x2="36" y1="19.064" y2="2.0208"/><polygon points="56 8.9792 56 2.0208 16 2.0208 16 8.9792 36 23.737"/><polygon points="36 27.737 41.248 43.888 58.23 43.888 44.491 53.87 49.739 70.021 36 60.039 22.261 70.021 27.509 53.87 13.77 43.888 30.752 43.888"/><line x1="36" x2="36" y1="19.064" y2="2.0208"/><polygon points="56 8.9792 56 2.0208 16 2.0208 16 8.9792 36 23.737"/></g></svg>
