<svg xmlns="http://www.w3.org/2000/svg" id="a" viewBox="0 0 72 72"><g id="b"><path fill="#9B9B9A" d="m27.447 62.537-0.4016-22.913c-1.7207 1.0537-6.1319 5.5625-6.5918 11.819-0.4795 6.5166 5.053 10.201 6.9934 11.093z"/><path fill="#9B9B9A" d="m44.716 39.529-0.1605 22.912c1.0101-0.4595 2.9881-0.8169 4.6035-2.8555 1.5019-1.8954 2.6903-5.3707 2.496-8.4901-0.1696-2.7185-0.8216-5.4282-2.0577-7.2953-1.596-2.4107-3.921-3.6617-4.8813-4.2714z"/><path fill="#D0CFCE" d="m44.556 61.574 0.1605-21.498c2e-3 -0.3135-0.3784-1.4622-0.2605-1.4945v-0.0348l-3.8116 1.0772c-0.0024 0.0068 0.0051 0.0252 0.0049 0.0345 0.4023-0.0864-0.4505 1.4292-0.9212 1.7182-0.5996 0.3672-0.3068 1.094-0.3146 1.7913l-0.1726 15.504c-0.0066 0.6065 1.6991 3.7628 1.6406 3.7524-1e-3 0.0027-0.0067 0.0174-0.0067 0.0174l3.5812 1.0182v-0.0356c-0.1923-0.0197 0.098-1.5472 0.1-1.8499z"/><path fill="#D0CFCE" d="m31.531 60.657c0.7295-0.3183 1.0848-2.1352 1.0848-2.9291l-0.1199-14.866c0-0.1897-0.1742-1.0742-0.2243-1.251-0.0912-0.3215-1.3269-2.0305-0.894-1.9341 0.0027-0.0162 0.0131-0.0397 0.0131-0.0532l-3.5841-0.9857-5e-4 0.038c0.1202 0.0333-0.6041 1.7546-0.6051 2.068l0.0551 20.605c-1e-3 0.3028 0.674 2.0549 0.5995 2.0886l3.4455-0.9012s0.0022-0.0124 0.0045-0.0259c-0.1002 0.0321-0.2804-1.632 0.2254-1.8537z"/><path fill="#D0CFCE" d="m60.833 48.3c1.427-3.1789 2.2094-15.108 2.2094-15.117 0-9.1932-7.4424-17.625-7.4424-17.625s-2.0547-2.9007-5.8415-4.765c-5.0229-2.473-12.132-4.0838-12.134-4.0838-8.9344 0.0125-19.1 4.8769-24.348 12.485-1.5825 2.294-3.0395 8.7727-3.8933 10.837-1.0392 2.5123 0.0163 11.05 0.0264 11.115 0.0702 0.4535 0.7761 4.1464 0.8683 4.4515 0.122 0.4037 3.15 7.3311 3.4766 7.8459 0.2473 0.3901 1.2495 0.7031 0.9524 1.0283l0.0087 0.0372s1.5427-1.9693 0.0337-4.4451c-1.509-2.4757-3.1651-8.9466-3.1651-14.445 0-14.735 10.503-25.854 24.43-25.862 13.929 0.0088 24.431 11.127 24.431 25.862 0 5.4991-2.0251 13.031-3.2579 15.092-1.2327 2.0618-0.0249 3.607-0.0249 3.607l0.0158-0.0487c-0.1621-0.307 2.2278-2.791 3.6549-5.97z"/></g><g id="c" fill="none" stroke="#000" stroke-linecap="round" stroke-linejoin="round" stroke-miterlimit="10" stroke-width="2"><path d="m31.161 40.634c0.9756 0.5038 1.643 1.5194 1.643 2.6874l-2e-4 15.505c0 1.2299-0.74 2.2845-1.8007 2.7478"/><path d="m27.542 39.624s-6.354 1.7853-7.0674 11.489 6.9726 11.424 6.9726 11.424l0.0948-22.913z"/><path d="m40.859 40.626c-0.8573 0.5269-1.4336 1.4669-1.4456 2.5423l-0.1726 15.504c-0.0139 1.2475 0.7356 2.3231 1.8156 2.7878"/><path d="m44.716 39.529s6.3337 1.8559 6.939 11.567c0.6052 9.7107-7.0995 11.346-7.0995 11.346l0.1605-22.912z"/><path d="m58.047 53.808c3.209-5.0583 5.0887-11.17 5.0887-18.189 0-15.759-11.352-28.536-27.105-28.552v-7e-4c-0.0053 0-0.0102 2e-4 -0.0154 2e-4 -0.0051 0-0.0102-2e-4 -0.0153-2e-4v7e-4c-15.753 0.0166-27.105 12.793-27.105 28.552 0 7.0186 1.8794 13.13 5.0884 18.189"/><path d="m50.214 20.194c-3.1322-4.4436-8.1665-7.3121-14.188-7.3184v-5e-4c-0.0034 0-0.0066 1e-4 -0.01 1e-4 -0.0033 0-0.0066-1e-4 -0.0099-1e-4v5e-4c-5.9961 0.0063-11.013 2.8504-14.148 7.2618"/></g></svg>