<?xml version="1.0" encoding="UTF-8"?>
<svg id="a" viewBox="0 0 72 72" xmlns="http://www.w3.org/2000/svg"><g id="b"><path d="m27.24 55.13-8.387-4.806 3.7-8.325-3.323-2.89-2.677-14.11-8.538 1.199-1.462-2.199 8-6c-0.208 0.02912-0.2202-4.11 0.6345-5.177 2.221-2.211 2.474 0.6435 3.721 2.273l8.351 8.243 2.293 1.66 17.76-2.195 9.236 2.195 1.787 7.042-4.147 6.785 2.36 5.173-6.2 6-3.794-4.482 1.994-6.518-2.37-0.267-17.63 4.267-5 6 4.912 3.681z" fill="#fff"/><polygon points="37.55 22.71 32.55 23.6 32.49 4 37.55 4" fill="#f4aa41"/><polygon points="32.55 45.57 37.49 44.5 37.55 68 32.55 68" fill="#f4aa41"/><polygon points="34.96 45.05 37.15 44.5 37.17 68 34.96 68" fill="#fcea2b"/><polygon points="37.24 22.76 35.03 23.16 35.03 4.028 37.24 4.028" fill="#fcea2b"/><path d="m48.548 39s-2.1 6.8-3 9a68.387 68.387 0 0 0-2 8l4.2-1.2 2.4-4.9-1.2-0.2v-2.6l2.9-3" fill="#d0cfce"/><path d="M56.5485,25h2c3,0,7,3,6,7-.7,2.9-4.1,5.6.9,10.6,0,0,.7,2.8-2,2a6.3581,6.3581,0,0,1-3.4-4.1c-1.8-5.5,1.7-8.2,1-10.2-.4-1.2-2.3-1.1-2.3-1.1" fill="#d0cfce"/><path d="M21.8485,42.1l-1.1,2.9c-.6.2-4.4,1.5-4.3,2.7.2,1.9-.9,7.3-.9,7.3l-2,1s-2-8-2-9a3.8811,3.8811,0,0,1,1-3,61.25,61.25,0,0,1,6-4" fill="#d0cfce"/><path d="m42.55 28c0.0729 3.48 0.1135 5.413-1 6-1.409 0.7427-3.943-1.052-5-2-1.134-1.017-1.013-1.458-2-2-1.68-0.9222-2.924-0.136-4-1-0.5011-0.4022-1.023-1.208-1-3" fill="#e67a94"/><path d="m30.54 24.81 11.32-1.409c0.3511-0.05088 0.6656 0.2214 0.6656 0.5761l0.02356 4.028-13-2z" fill="#ffa7c0"/></g><g id="c" fill="none" stroke="#000" stroke-linecap="round" stroke-width="2"><polyline points="32.55 5 32.55 16.57 32.55 23.16" stroke-miterlimit="10"/><polyline points="37.55 5 37.55 15.83 37.55 22" stroke-miterlimit="10"/><path d="m26.55 24c-1-1-2.5-3.5-5-6a14.39 14.39 0 0 0-3-2l-2-3" stroke-linejoin="round"/><path d="m46.55 30s-1 3 0 5c1.2 2.4 5.8 8 5.8 9l-2.8 3s-1.1 0.7-1.1 1.4a1.563 1.563 0 0 0 1.9 1.6s6.4-5.6 6.2-6c-0.5-1.3-1.4-3.7-2-5-1-2 4-5 4-8 0-1.6-1-6-5-7a19.32 19.32 0 0 0-6-0.3" stroke-linejoin="round"/><path d="m24.55 54a19.44 19.44 0 0 1-5-3 3.054 3.054 0 0 1 0-3l3-6a7.812 7.812 0 0 1-3-2c-1-1-0.9-5-1-7-0.1-1.8-2-8-2-8a37.46 37.46 0 0 0-8 1c-0.7 0.2-2.6-1.6-2-2a79.74 79.74 0 0 1 8-6" stroke-linejoin="round"/><path d="m26.55 51a11.35 11.35 0 0 1 1.2 1.2 1.758 1.758 0 0 1-2.2 2.7c-0.6-0.5-1-0.9-1-0.9" stroke-linejoin="round"/><path d="m47.55 38s-7.4 3.4-10 4a79.17 79.17 0 0 1-9 1c-4 4-5 6-5 6a20.04 20.04 0 0 0 3 2" stroke-linejoin="round"/><path d="M48.5485,39s-2.1,6.8-3,9c-.5,1.2-.6,1.9-1.5,4-.8,1.8-.9,2.1-.9,2.1a1.85,1.85,0,0,0,1,2.4,2.1579,2.1579,0,0,0,2.4-1.3l1-2.1" stroke-linejoin="round"/><path d="m15.55 52v2c0 1.1-0.7 2-1.5 2a1.56 1.56 0 0 1-1.5-1.6v-2.4" stroke-linejoin="round"/><path d="m18.55 40a61.25 61.25 0 0 0-6 4 3.881 3.881 0 0 0-1 3 46.19 46.19 0 0 0 1 5" stroke-linejoin="round"/><path d="m56.55 25h2c3 0 7 3 6 7-0.7 2.9-5 6 0 11" stroke-linejoin="round"/><polyline points="32.55 46 32.55 59.38 32.55 67" stroke-miterlimit="10"/><polyline points="37.55 45 37.55 59.02 37.55 67" stroke-miterlimit="10"/><path d="m29.55 25c-0.2 2.269 0.3851 3.392 1 4 1.432 1.416 3.389 0.3868 5 2 1.149 1.15 0.8128 2.332 2 3a3.718 3.718 0 0 0 3 0" stroke-linejoin="round"/><line x1="15.55" x2="15.55" y1="48" y2="52" stroke-linejoin="round"/></g></svg>
