<?xml version="1.0" encoding="UTF-8"?>
<svg id="a" viewBox="0 0 72 72" xmlns="http://www.w3.org/2000/svg"><g id="b"><path d="M39.4776,16.4928c5.5494-3.93,8.754-.6339,8.754-.6339a2.3228,2.3228,0,0,1,.2327,3.267L38.4981,30.6211a2.3227,2.3227,0,0,1-3.267.2328l-3.7134-3.2195a2.3227,2.3227,0,0,1-.2328-3.267l1.6316-1.8819L36.1507,25.29l5.8114-6.7029Z" fill="#fcea2b"/><path d="M45.9661,22.1935,38.86,30.39a2.3227,2.3227,0,0,1-3.2669.2327L31.88,27.403a2.3226,2.3226,0,0,1-.2327-3.2669l1.6315-1.8819,3.2343,2.804L38.93,22.27" fill="#f4aa41"/><polygon points="14.271 50.034 7.866 47.472 7.866 63.893 14.271 63.893" fill="#ea5a47"/><polygon points="10.38 49.63 10.38 63.713 13.583 63.713 13.583 50.9" fill="#d22f27"/><polygon points="30.613 48.78 24.208 50.473 24.208 63.893 30.613 63.893" fill="#ea5a47"/><polygon points="27.41 50.111 27.41 64.194 30.613 64.194 30.613 48.78" fill="#d22f27"/><polygon points="48.353 36.383 41.948 42.796 41.948 63.935 48.353 63.935" fill="#ea5a47"/><polygon points="44.515 40.249 44.515 64.194 47.718 64.194 47.718 37.986" fill="#d22f27"/><polygon points="64.822 11.896 58.417 22.378 58.417 63.893 64.822 63.893" fill="#ea5a47"/><polygon points="61.62 17.866 61.62 63.358 64.822 63.358 64.822 13.565" fill="#d22f27"/></g><g id="c"><path d="m62.359 6.1951s-25.825 55.94-55.181 35.974" fill="none" stroke="#000" stroke-linecap="round" stroke-miterlimit="10" stroke-width="2"/><polygon points="47.718 36.383 41.313 42.796 41.313 63.935 47.718 63.935" fill="none" stroke="#000" stroke-linecap="round" stroke-linejoin="round" stroke-width="2"/><polygon points="30.613 48.78 24.208 50.473 24.208 63.893 30.613 63.893" fill="none" stroke="#000" stroke-linecap="round" stroke-linejoin="round" stroke-width="2"/><polygon points="13.583 50.034 7.178 47.472 7.178 63.893 13.583 63.893" fill="none" stroke="#000" stroke-linecap="round" stroke-linejoin="round" stroke-width="2"/><path d="M39.8608,16.45c5.5494-3.9305,8.754-.6339,8.754-.6339a2.3228,2.3228,0,0,1,.2327,3.267L38.8813,30.5778a2.3228,2.3228,0,0,1-3.267.2328l-3.7134-3.2195a2.3227,2.3227,0,0,1-.2328-3.267L33.3,22.4422l3.2342,2.8041,5.8114-6.7029Z" fill="none" stroke="#000" stroke-linecap="round" stroke-linejoin="round" stroke-width="2"/><circle cx="48.575" cy="20.77" r="1.5501"/><circle cx="46.884" cy="22.992" r="1.5501"/><circle cx="40.021" cy="30.636" r="1.5501"/><circle cx="42.21" cy="28.608" r="1.5501"/><polygon points="64.822 11.896 58.417 22.378 58.417 63.893 64.822 63.893" fill="none" stroke="#000" stroke-linecap="round" stroke-linejoin="round" stroke-width="2"/></g></svg>
