<svg xmlns="http://www.w3.org/2000/svg" id="a" viewBox="0 0 72 72"><g id="b"><path fill="#92D3F5" d="m46.861 68.537-1.6868 0.8404c-0.7318 0.3646-1.579-0.3197-1.2981-1.065 1.1586-3.0731 5.3156-4.8418 5.3156-4.8418-6.0185-6.5137-5.6827-14.959-5.6827-14.959-0.3442-12.475 7.5746-15.511 7.5746-15.511s10.042 3.2568 9.6976 15.732c0 0 0.0474 6.7897-7.5845 14.739 0 0 4.139 1.7874 5.1468 4.8905 0.2414 0.7433-0.5889 1.3958-1.3077 1.0377l-1.7297-0.8618c-2.648-1.3195-5.7971-1.3195-8.4451-1e-4z"/><path fill="#92D3F5" d="m43.796 52.525c-0.5335 0-4.821 0.0934-5.5082 0.1939v-3.9962s0.8311-3.9527 5.5082-4.8481"/><path fill="#92D3F5" d="m60.126 43.03c5.2256 0.144 6.7234 5.113 6.7234 5.113l-2.928 10.732c-0.5235-0.7915-1.2329-1.0028-1.9989-1.24 0 0-2.2732-0.6794-3.8565-0.5127 0 0 3.6017-7.6961 2.06-14.092"/><path fill="#61B2E4" d="m60.126 43.03c5.2256 0.144 6.7234 5.113 6.7234 5.113l-2.928 10.732c-0.5235-0.7915-1.2329-1.0028-1.9989-1.24 0 0-2.2732-0.6794-3.8565-0.5127 0 0 3.6017-7.6961 2.06-14.092"/><path fill="#61B2E4" d="m50.905 67.55s6.7134 1.7937 7.4071 1.7937c0 0-0.246-3.2812-4.6562-5.8438 0 0 7.1765-9.1875 7.1338-15.85-0.0442-6.8769-3.7901-11.646-9.7063-14.65 3.9425 4.7579 7.5647 6.6357 6.3116 15.396-1e-4 0-0.7287 8.6039-6.49 19.154z"/><path fill="#A57939" d="m15.173 49.142-4.2894 17.484c-3.5506-0.0794-5.7337-1.4067-5.7337-1.4067l4.2894-17.484c0-1e-4 2.6145 1.4067 5.7337 1.4067z"/><path fill="#6A462F" d="m12.918 48.916c0.6932 0.1379 1.4569 0.2298 2.2547 0.2261l-4.2894 17.484c-0.6986-0.0127-1.4899-0.145-2.0738-0.2376l4.1085-17.472z"/></g><g id="c"><circle cx="53.911" cy="41.856" r="1.766"/><path fill="none" stroke="#000" stroke-linecap="round" stroke-linejoin="round" stroke-miterlimit="10" stroke-width="2" d="m62.356 56.721c0.766 0.2372 1.487 0.6866 2.0105 1.4781l2.4829-10.056s-1.4978-4.969-6.7234-5.113"/><path fill="none" stroke="#000" stroke-linecap="round" stroke-linejoin="round" stroke-miterlimit="10" stroke-width="2" d="m46.861 68.537-1.6868 0.8404c-0.7318 0.3646-1.579-0.3197-1.2981-1.065 1.1586-3.0731 5.3156-4.8418 5.3156-4.8418-6.0185-6.5137-5.6827-14.959-5.6827-14.959-0.3442-12.475 7.5746-15.511 7.5746-15.511s10.042 3.2568 9.6976 15.732c0 0 0.0474 6.7897-7.5845 14.739 0 0 4.139 1.7874 5.1468 4.8905 0.2414 0.7433-0.5889 1.3958-1.3077 1.0377l-1.7297-0.8618c-2.648-1.3195-5.7971-1.3195-8.4451-1e-4z"/><path fill="none" stroke="#000" stroke-linecap="round" stroke-linejoin="round" stroke-miterlimit="10" stroke-width="2" d="m40.113 51.606c-0.5328 0.0283-1.138 0.0835-1.8251 0.1733v-3.5718s0.8311-3.533 5.5082-4.3333"/><path fill="none" stroke="#000" stroke-linecap="round" stroke-linejoin="round" stroke-miterlimit="10" stroke-width="2" d="m51.084 33 0.1114-25.146s-3.7092-8.8284-16.548-3.8128c-11.88 4.641-18.217 27.838-21.221 40.503"/><path fill="none" stroke="#000" stroke-linecap="round" stroke-linejoin="round" stroke-miterlimit="10" stroke-width="2" d="m15.173 49.142-4.2894 17.484c-3.5506-0.0794-5.7337-1.4067-5.7337-1.4067l4.2894-17.484c0-1e-4 2.6145 1.4067 5.7337 1.4067z"/><path fill="none" stroke="#000" stroke-linecap="round" stroke-linejoin="round" stroke-miterlimit="10" stroke-width="2" d="m6.0532 61.529s2.6145 1.4067 5.7337 1.4067"/></g></svg>