<svg xmlns="http://www.w3.org/2000/svg" id="a" viewBox="0 0 72 72"><g id="b" stroke-miterlimit="10" stroke-width="2"><path fill="#A57939" stroke-linecap="round" stroke-linejoin="round" d="m59 36c-0.25-0.75-0.71-2.1-2-3-1.56-1.08-3.63-1.01-4-1-0.76 0.03-1.18 0.16-2 0-0.58-0.12-1.53-0.3-2-1-0.4-0.59-0.15-1.08 0-3 0.12-1.51 0.17-2.27 0-3-0.37-1.58-1.49-2.56-2-3-1.05-0.92-2.38-1.56-5-2-1.82-0.31-4.75-0.6-9 0-2.15 0.3-5.46 0.87-8 1.72-1.77 0.58-3.74 1.41-6 3-0.02 0.01-0.04 0.02-0.05 0.03-3.44 2.24-5.39 6.2-5.22 10.31 0.91 22.07 40.83 24.85 45.27 5.94 0.09-0.6 0.79-2.65 0-5zm-20.79-5.88c-1.53 0-2.76-1.24-2.76-2.76 0-1.53 1.23-2.76 2.76-2.76h2.71c1.52 0 2.76 1.23 2.76 2.76 0 0.76-0.31 1.45-0.81 1.95s-1.19 0.81-1.95 0.81h-2.71z"/><circle cx="20" cy="33" r="3" fill="#61B2E4"/><circle cx="25" cy="42" r="3" fill="#5C9E31" stroke-linecap="round" stroke-linejoin="round"/><circle cx="35" cy="45" r="3" fill="#FCEA2B"/><circle cx="45" cy="44" r="3" fill="#D22F27"/></g><g id="c" fill="none" stroke="#000" stroke-miterlimit="10" stroke-width="2"><path stroke-linecap="round" stroke-linejoin="round" d="m59 36c-0.25-0.75-0.71-2.1-2-3-1.56-1.08-3.63-1.01-4-1-0.76 0.03-1.18 0.16-2 0-0.58-0.12-1.53-0.3-2-1-0.4-0.59-0.15-1.08 0-3 0.12-1.51 0.17-2.27 0-3-0.37-1.58-1.49-2.56-2-3-1.05-0.92-2.38-1.56-5-2-1.82-0.31-4.75-0.6-9 0-2.15 0.3-5.46 0.87-8 1.72-1.77 0.58-3.74 1.41-6 3-0.02 0.01-0.04 0.02-0.05 0.03-3.44 2.24-5.39 6.2-5.22 10.31 0.91 22.07 40.83 24.85 45.27 5.94 0.09-0.6 0.79-2.65 0-5zm-20.79-5.88c-1.53 0-2.76-1.24-2.76-2.76 0-1.53 1.23-2.76 2.76-2.76h2.71c1.52 0 2.76 1.23 2.76 2.76 0 0.76-0.31 1.45-0.81 1.95s-1.19 0.81-1.95 0.81h-2.71z"/><circle cx="20" cy="33" r="3"/><circle cx="25" cy="42" r="3" stroke-linecap="round" stroke-linejoin="round"/><circle cx="35" cy="45" r="3"/><circle cx="45" cy="44" r="3"/></g></svg>