<?xml version="1.0" encoding="UTF-8"?>
<svg id="a" version="1.1" viewBox="0 0 72 72" xmlns="http://www.w3.org/2000/svg"><g id="b"><path d="m39.401 29.521c-2.6372-2.2167-2.5537-3.5214-2.5514-3.5238-0.1082-0.127-1.757-1.6761-1.776-2.1562-0.0031-0.029-0.0066-0.0621-0.0089-0.0814l-2.5567 3.2828c0.3242-0.4463-6.3214 10.406-6.3214 10.406l-11.793 16.238 3.3726 3.3726s24.414-21.277 24.062-20.898l3.4038-3.3554c-0.1071 0.0032-3.1932-1.068-5.8305-3.2848z" fill="#3F3F3F"/><path d="m54.62 30.18c-0.1982 0.2256-0.4746 0.3408-0.7519 0.3408-0.2344 0-0.4698-0.082-0.6592-0.248l-16.619-14.58c-0.4113-0.361-0.4536-0.9837-0.0998-1.3993-0.0028 0.0032-0.0068 0.0044-0.0095 0.0077l-0.6543 0.7866c-0.3467 0.417-0.2989 1.0337 0.1093 1.3911l16.619 14.581c0.1826 0.1601 0.417 0.248 0.6592 0.248 0.0263 0 0.0527-1e-3 0.0781-0.0029 0.2695-0.0215 0.5185-0.1504 0.6904-0.3574l0.6543-0.7871c0.0397-0.0477 0.0553-0.1048 0.0847-0.157-0.0334 0.0592-0.0546 0.1233-0.1013 0.1765z" fill="#D0CFCE"/><path d="m55.258 25.541c-1.1619 3.3997-5.2831 5.5623-5.2831 5.5623-1.9265 1.0963-4.0318 1.6194-6.0378 1.5188 0 0-0.3476-0.0805-0.9137-0.2716-1.8272-0.6337-5.8491-2.4844-7.2494-6.8799-0.3774-2.0016-0.1589-4.1843 0.6455-6.2764 1.0228-4.2647 4.9951-6.2563 4.9951-6.2563 1.4102-0.9556 2.9395-1.5892 4.4787-1.8709 2.8203-0.5331 5.6605 0.0805 7.7757 1.9715 3.3269 2.9471 3.8433 8.0869 1.589 12.502z" fill="#3F3F3F"/><path d="m51.475 25.541c-1.1718 3.3997-5.2831 5.5623-5.2831 5.5623-1.0228 0.5733-2.0854 0.9958-3.1679 1.2472-1.8272-0.6337-5.8491-2.4844-7.2494-6.8799-0.3774-2.0016-0.1589-4.1843 0.6455-6.2764 1.0228-4.2647 4.9951-6.2563 4.9951-6.2563 1.4102-0.9556 2.9395-1.5892 4.4787-1.8709 1.4598 0.2917 2.8303 0.9455 3.9921 1.9715 3.317 2.9471 3.8334 8.0869 1.589 12.502z" fill="#9B9B9A"/></g><g id="c" fill="none" stroke="#000" stroke-linecap="round" stroke-linejoin="round" stroke-miterlimit="10" stroke-width="2"><line x1="30.75" x2="34.77" y1="38.941" y2="34.322"/><path d="m49.514 30.43c-1.8043 1.0136-3.7741 1.4947-5.6491 1.4045"/><path d="m41.504 13.651c3.7376-2.4981 8.4052-2.5922 11.465 0.0926 3.1081 2.7269 3.5898 7.4706 1.4886 11.544"/><path d="m36.235 25.223c-0.3538-1.8443-0.1517-3.8622 0.602-5.7893"/><polyline points="33.317 27.63 14.393 53.686 17.766 57.058 41.105 35.486"/><line x1="15.497" x2="12.451" y1="56.001" y2="59.075"/><line x1="53.868" x2="37.249" y1="29.521" y2="14.94"/></g></svg>
