<?xml version="1.0" encoding="UTF-8"?>
<svg id="a" viewBox="0 0 72 72" xmlns="http://www.w3.org/2000/svg"><g id="b"><polygon points="55.532 51.262 36.512 52.262 17.491 51.262 16.588 32.376 56 32.376" fill="#FCEA2B"/><polygon points="55.355 32.376 54.682 47.252 55.836 21.754 55.952 19.178 56.5 7.0833 16.5 7.0833 18.318 47.252 17.645 32.376" fill="#3F3F3F" stroke-linecap="round" stroke-linejoin="round" stroke-miterlimit="10" stroke-width="2"/><path d="m54.5 51.262s-11.291 1.7703-17.5 1.7703-18.5-1.7703-18.5-1.7703c-7.3129-1.1586-14-2.0756-14-0.04 0 3.5608 14.327 6.4474 32 6.4474s32-2.8866 32-6.4474c0-2.0356-6.6871-1.1186-14 0.04z" fill="#3F3F3F" stroke-linecap="round" stroke-linejoin="round" stroke-miterlimit="10" stroke-width="2"/></g><g id="c" fill="none" stroke="#000" stroke-linecap="round" stroke-linejoin="round" stroke-miterlimit="10" stroke-width="2"><polygon points="55.355 32.376 54.682 47.252 55.836 21.754 55.952 19.178 56.5 7.0833 16.5 7.0833 18.318 47.252 17.645 32.376"/><path d="m54.5 51.262s-11.291 1.7703-17.5 1.7703-18.5-1.7703-18.5-1.7703c-7.3129-1.1586-14-2.0756-14-0.04 0 3.5608 14.327 6.4474 32 6.4474s32-2.8866 32-6.4474c0-2.0356-6.6871-1.1186-14 0.04z"/></g></svg>
