<?xml version="1.0" encoding="UTF-8"?>
<svg id="a" viewBox="0 0 72 72" xmlns="http://www.w3.org/2000/svg"><g id="b"><rect x="11" y="10.958" width="50" height="50" rx="1.921" fill="#92d3f5"/><path d="M43.96,46.2808,51.59,52.5a1.0894,1.0894,0,0,0,1.7778-.8445V33.4761a1.09,1.09,0,0,0-1.7778-.8445l-7.8408,6.3908" fill="#fff"/><path d="m41.773 52.486h-20.953a2.1875 2.1875 0 0 1-2.1875-2.1875v-15.465a2.1876 2.1876 0 0 1 2.1875-2.1876h20.953a2.1875 2.1875 0 0 1 2.1872 2.1876v15.465a2.1875 2.1875 0 0 1-2.1873 2.1875z" fill="#fff"/><circle cx="23.647" cy="24.253" r="5" fill="#fff"/><circle cx="38.749" cy="24.253" r="5" fill="#fff"/></g><g id="c" fill="none" stroke="#000" stroke-width="2"><path d="M43.96,46.2808,51.59,52.5a1.0894,1.0894,0,0,0,1.7778-.8445V33.4761a1.09,1.09,0,0,0-1.7778-.8445l-7.63,6.18" stroke-linecap="round" stroke-linejoin="round"/><circle cx="23.647" cy="24.253" r="5" stroke-linejoin="round"/><circle cx="38.749" cy="24.253" r="5" stroke-linejoin="round"/><path d="m41.773 52.486h-20.953a2.1875 2.1875 0 0 1-2.1875-2.1875v-15.465a2.1876 2.1876 0 0 1 2.1875-2.1876h20.953a2.1875 2.1875 0 0 1 2.1872 2.1876v15.465a2.1875 2.1875 0 0 1-2.1873 2.1875z" stroke-linejoin="round"/><rect x="11" y="10.958" width="50" height="50" rx="1.921" stroke-miterlimit="10"/></g></svg>
