<?xml version="1.0" encoding="UTF-8"?>
<svg id="a" viewBox="0 0 72 72" xmlns="http://www.w3.org/2000/svg"><g id="b" stroke-linecap="round" stroke-linejoin="round" stroke-miterlimit="10" stroke-width="2"><rect x="11.5" y="39" width="49" height="16" fill="#fff"/><polygon points="36 25 11.5 39 60.5 39" fill="#fff"/><polygon points="36 25 20.5 39 51.5 39" fill="#EA5A47"/><polygon points="36 25 30.5 39 41.5 39" fill="#fff"/><rect x="21" y="39" width="30" height="16" fill="#EA5A47"/><rect x="30.5" y="39" width="11" height="16" fill="#fff"/><rect x="36" y="44" width="0" height="11" fill="#fff"/><polygon points="36 44 33 55 39 55" fill="#3F3F3F"/></g><g id="c" fill="none" stroke="#000" stroke-linecap="round" stroke-linejoin="round" stroke-miterlimit="10" stroke-width="2"><rect x="11.5" y="39" width="49" height="16"/><polygon points="36 25 11.5 39 60.5 39"/><polygon points="36 25 20.5 39 51.5 39"/><polygon points="36 25 30.5 39 41.5 39"/><rect x="21" y="39" width="30" height="16"/><rect x="30.5" y="39" width="11" height="16"/><rect x="36" y="44" width="0" height="11"/><polygon points="36 44 33 55 39 55"/></g></svg>
