<svg xmlns="http://www.w3.org/2000/svg" id="a" viewBox="0 0 72 72"><g id="b"><path fill="#FCEA2B" d="m48.713 23.515c-3.4279-3.5522-4.0284-8.7836-1.8682-12.933l-3.6009-3.7315-36.358 35.086 3.8016 3.9394c4.0722-1.5735 8.8681-0.6711 12.09 2.6676s3.9531 8.1636 2.2356 12.177l3.8016 3.9394 36.358-35.086-3.6009-3.7315c-4.2242 2.0111-9.4309 1.2248-12.859-2.3273z"/></g><g id="c"><path fill="none" stroke="#000" stroke-miterlimit="10" stroke-width="2" d="m48.155 23.505c-3.4279-3.5522-4.0284-8.7836-1.8682-12.933l-3.6009-3.7315-36.358 35.086 3.8016 3.9394c4.0722-1.5735 8.8681-0.6711 12.09 2.6676s3.9531 8.1636 2.2356 12.177l3.8016 3.9394 36.358-35.086-3.6009-3.7315c-4.2242 2.0111-9.4309 1.2249-12.859-2.3273z"/><ellipse cx="37.122" cy="22.122" rx="2" ry="2" transform="matrix(.7098 -.7044 .7044 .7098 -4.8096 32.57)"/><ellipse cx="43.612" cy="28.661" rx="2" ry="2" transform="matrix(.7098 -.7044 .7044 .7098 -7.5322 39.039)"/><ellipse cx="50.101" cy="35.199" rx="2" ry="2" transform="matrix(.7098 -.7044 .7044 .7098 -10.255 45.508)"/></g></svg>