<?xml version="1.0" encoding="UTF-8"?>
<svg id="a" viewBox="0 0 72 72" xmlns="http://www.w3.org/2000/svg"><g id="b"><circle cx="15.799" cy="30.967" r="1.5112" fill="#fff"/><path d="m16.588 37.397v17.573c0 1.1026 1.8975 3 3 3l33.637 0.2321c1.1025 0 2.2763-2.1295 2.2763-3.2321v-17.573h-38.914z" fill="#3F3F3F"/><polygon points="41.374 12.91 48.525 16.598 51.076 15.618 43.923 11.93" fill="#3F3F3F"/><polygon points="39.962 20.129 32.275 16.158 29.536 17.208 37.226 21.18" fill="#3F3F3F"/><polygon points="22.085 20.067 18.639 21.715 25.326 25.719 29.71 24.073" fill="#3F3F3F"/><polygon points="29.258 31.315 25.663 31.315 20.554 37.05 24.149 37.05" fill="#3F3F3F"/><polygon points="41.225 30.967 38.315 30.967 32.586 37.397 35.496 37.397" fill="#3F3F3F"/><polygon points="44.586 37.397 47.496 37.397 53.225 30.967 50.315 30.967" fill="#3F3F3F"/><polygon points="43.331 36.914 48.198 31.451 42.481 31.451 37.614 36.914" fill="#fff"/><polygon points="49.692 36.99 55.059 36.99 55.059 30.966" fill="#fff"/><circle cx="15.799" cy="30.967" r="2.5116" fill="#3F3F3F"/><path d="m16.527 33.891v3.3443h3.2915l5.4403-6.1061h-6.5834c-0.3506 1.169-1.1208 2.1474-2.1484 2.7618z" fill="#fff"/><polygon points="31.33 36.906 36.183 31.459 30.482 31.459 25.629 36.906" fill="#fff"/><polygon points="45.93 11.195 49.577 13.076 48.478 10.216" fill="#fff"/><polygon points="40.013 13.396 33.733 15.809 40.934 19.528 47.222 17.112" fill="#fff"/><polygon points="28.499 17.952 23.065 20.041 29.9 23.632 35.402 21.517" fill="#fff"/><path d="m17.536 22.211-4.9559 1.9047 1.5446 4.0189c0.3313-0.0798 0.6724-0.1334 1.0278-0.1334 0.658 0 1.2769 0.155 1.8383 0.4148 0.0521-0.0293 0.092-0.0728 0.1495-0.0949l6.9447-2.6689-6.549-3.4412z" fill="#fff"/></g><g id="c" fill="none" stroke="#000" stroke-linecap="round" stroke-linejoin="round" stroke-miterlimit="10" stroke-width="2"><polyline points="17.741 28.643 51.088 15.828 48.781 9.8251 12.457 23.784 14.195 28.306"/><path d="m16.588 37.397v17.573c0 1.6569 1.3431 3 3 3h32.914c1.6569 0 3-1.3431 3-3v-17.573l-38.914-1e-4z"/><polyline points="18.897 30.966 55.501 30.966 55.501 37.397"/><line x1="16.588" x2="16.588" y1="37.05" y2="33.958"/><polygon points="19.7 37.397 24.383 37.397 30.112 30.966 25.429 30.966"/><polygon points="31.7 37.397 36.383 37.397 42.112 30.966 37.429 30.966"/><polygon points="43.7 37.397 48.383 37.397 54.112 30.966 49.429 30.966"/><circle cx="15.798" cy="30.966" r="2.5115"/><polyline points="47.879 17.084 40.224 13.137 44.595 11.457 50.597 14.551"/><polygon points="40.771 19.811 36.399 21.489 28.746 17.536 33.119 15.859"/><polygon points="29.71 24.073 25.326 25.719 17.701 21.713 22.085 20.067"/></g></svg>
