<?xml version="1.0" encoding="UTF-8"?>
<svg id="a" viewBox="0 0 72 72" xmlns="http://www.w3.org/2000/svg"><g id="b"><path d="m58.336 42.579c-2.7773-2.126-8.5199-5.8337-10.281-6.9909 0.8311 5.1719 1.7668 16.616 0.47 18.858-0.3819 0.6601-0.3669 1.6449-0.6462 1.6449-1.1557 0-4.1123-14.804-4.1123-14.804 0.0169-0.0169-5.1231-25.04-5.8159-27.611-0.4102-1.5249-2.2325-2.7641-2.6436-2.9374-1.211-0.5103-7.4913-0.8018-10.163-1.1162 1.5498 0.3779 6.8551 2.5792 7.7545 3.1724 2.1982 1.4487 2.8586 7.6358 4.9348 26.084 0.3554 3.1572 1.1778 10.879 1.5274 13.747 0.749 6.1211 1.1333 7.5279 2.4673 10.339 1.4287 3.0117 6.051 4.4648 6.051 4.4648 4.6997-0.4112 7.3433-4.3532 7.3433-7.7546-0.0449-1.0098-0.4355-9.5911 0.4112-12.454 0.5215-1.7627 1.9436-3.8998 2.7024-4.641z" fill="#fcea2b"/><path d="m19.563 8.3379c-0.0078 0.0811-0.4535 1.3485-0.4653 1.4232 0.2315 0.0254 1.0852 0.0304 1.3137 0.0548 1.1133 0.1206 3.0453 0.4053 4.3519 0.5747-0.1103-0.166-0.3705-1.7343-0.4418-1.8852-0.5351-0.0273-1.6859-0.0161-2.3226-0.0581-0.8106-0.0537-1.7972-0.085-2.4359-0.1094z" fill="#3f3f3f"/></g><g id="c" fill="none" stroke="#000" stroke-linecap="round" stroke-linejoin="round" stroke-miterlimit="10" stroke-width="2"><line x1="39.674" x2="41.208" y1="30.278" y2="29.332"/><line x1="40.287" x2="42.15" y1="34.776" y2="33.712"/><line x1="40.92" x2="42.747" y1="39.314" y2="37.959"/><line x1="41.68" x2="43.43" y1="44.252" y2="42.505"/><path d="m47.979 67.174-0.2473 0.0124c-1.9476 0.0976-4.528-0.6466-6.0516-3.8582-1.3826-2.9143-1.9445-6.7954-2.7225-13.161-1.7866-14.617-3.5588-35.488-6.1067-37.167-3.6575-2.4104-16.42-2.7051-15.939-3.24 0.102-0.1134 0.4415-0.2152 1.6139-0.2573 0.4613-0.0166 0.0362-1.4799 0.6104-1.4837 1.1638-0.0077 3.7966 0.2283 5.2394 0.2793 0.2471 0.0088 0.5007 1.0585 0.7517 1.0691 4.3901 0.1854 8.9637 0.8552 11.033 1.7268 0.5752 0.2423 1.2915 0.562 1.8241 2.5387 2.0671 7.6717 8.1527 43.218 9.8464 43.218s1.3243-18.904 0.1054-21.022c-1.2188-2.1179 10.448 6.9191 10.448 6.9191s-2.0679 1.2514-2.8921 4.0368c-0.8243 2.7854-0.3793 12.909-0.3793 12.909 0 4.0863-3.268 7.4093-7.333 7.4982"/></g></svg>
