<svg xmlns="http://www.w3.org/2000/svg" id="a" viewBox="0 0 72 72"><g id="b"><path fill="#92d3f5" d="m13.146 50.948c0 2.7722 2.8927 6.0133 6.1177 4.4871l37.927-21.915c0.8035-0.4176 1.6385-0.0447 2.1156 0.7843l0.4895 0.7537c0.4771 0.8291 0.4596 2.6148-0.2836 2.9275l-38.688 22.182c-1.3862 0.831-3.6104 0.7012-5.3616 0.7012-5.6745 0-10.275-4.4418-10.275-9.921"/><path fill="#92d3f5" d="m5.1883 50.948c0-2.2158 1.7814-4.012 3.9788-4.012s3.9788 1.7962 3.9788 4.012"/><path fill="#61b2e4" d="m12.996 59.398c2.1208 1.5099 5.8513 2.024 8.1426 0.5897l37.996-21.814c0.7597-0.3558 0.7511-1.8552 0.3191-2.5571l-0.1964-0.449-0.0156 0.1047-41.008 23.524s-2.4121 1.3145-5.2373 0.6019z"/><path fill="#61b2e4" d="m9.6372 48.341c-1.1216 1.959-0.2771 4.5512 1.8862 5.7898 0 0 1.8239 1.0541 2.4002-0.2086 0.0788-0.4426-0.1506-0.8947-0.5626-1.1331-0.9434-0.546-1.1558-1.8976-0.6901-2.7111"/><path fill="#61b2e4" d="m9.6372 48.341c0.4536-0.7922 1.5004-1.0456 2.3381-0.5659 0.8377 0.4796 1.1492 1.5107 0.6956 2.3029"/><path fill="#FCEA2B" d="m23.328 48.03c-2.201 1.2615-5.0942 0.3494-6.4621-2.0372s-0.6925-5.344 1.5085-6.6055c3.9184-2.2458 6.1114-5.9562 4.0774-9.5049l-5.4873-9.6681s1.4067-2.2395 3.4963-1.8747c0.379 0.0662 0.7424-0.0995 0.8865-0.4554 0.8069-1.9935 3.9277-9.145 7.1242-3.5679l12.724 22.201c0.3031 0.5288 0.1534 1.184-0.3342 1.4635l-17.534 10.049"/><rect width="2.365" height="19.572" x="34.1" y="20.114" fill="#F1B31C" transform="matrix(.866 -.5 .5 .866 -10.223 21.647)"/><path fill="#9B9B9A" d="m20.552 26.536-3.5879-6.3214s1.1922-1.989 3.4963-1.8747l0.8865-0.4554s1.927-5.9618 4.8208-5.6537c0 0 2.9312 1.4284 5.6157 7.8648l-11.231 6.4404z"/><rect width="2.365" height="9.673" x="26.659" y="12.176" fill="#3F3F3F" transform="matrix(.866 -.5 .5 .866 -4.7763 16.2)"/></g><g id="c" fill="none" stroke="#000" stroke-linecap="round" stroke-linejoin="round" stroke-miterlimit="10" stroke-width="2"><path d="m20.2 59.516c-1.4043 0.72-3.0074 1.1774-4.7117 1.1774-5.5228 0-10-4.2873-10-9.576"/><line x1="54.975" x2="20.141" y1="39.564" y2="59.55"/><path d="m13.233 51.118c0 2.6758 2.8154 5.8041 5.9541 4.331l38.913-22.277 0.052 0.0163c1.4248 0.4466 2.2684 2.0549 1.927 3.4478l-1.6391 0.9404"/><path d="m5.4883 51.118c0-2.1387 1.7338-3.8724 3.8724-3.8724s3.8724 1.7338 3.8724 3.8724"/><line x1="48.214" x2="61.616" y1="24.932" y2="17.25"/><line x1="46.7" x2="66.812" y1="30.384" y2="18.877"/><line x1="39.291" x2="64.435" y1="25.502" y2="11.083"/><path d="m23.322 48.253c-2.2017 1.2619-5.0958 0.3495-6.4642-2.0378s-0.6927-5.3457 1.509-6.6076c3.9196-2.2465 6.1133-5.9581 4.0787-9.5079l-5.4891-9.6712s1.4071-2.2402 3.4974-1.8753c0.3791 0.0662 0.7427-0.0996 0.8868-0.4555 0.8072-1.9941 3.9289-9.1479 7.1264-3.569l12.728 22.208c0.3032 0.5289 0.1535 1.1843-0.3343 1.4639l-17.539 10.052"/><line x1="20.545" x2="31.78" y1="26.752" y2="20.31"/><line x1="19.578" x2="21.382" y1="38.826" y2="41.972"/><line x1="22.489" x2="24.933" y1="35.639" y2="39.902"/><line x1="22.553" x2="26.809" y1="30.294" y2="27.854"/></g></svg>