<svg xmlns="http://www.w3.org/2000/svg" id="a" viewBox="0 0 72 72"><g id="b"><path fill="#EA5A47" d="m33.075 48.333c2.3369-0.9131 4.8243-2.2304 5.129-2.5878 0.1191-0.1397 0.4553-2.3764 0.5129-2.4946-0.7393 0.0313-3.7431-0.8208-4.6161-1.0258-1.6875-0.3936-4.8421-5.8358-4.1731-7.7401 0.5156-1.4688 3.6835-7.064 3.6835-7.064s-0.7169-0.5712-1.8532-0.381c-0.7231 0.1211-1.979 0.9429-2.1567 1.1504-1.1455 1.3379-3.2272 6.7993-4.1032 8.1597-0.9385 1.4541-2.1622 2.3806-3.8234 2.6111-1.4424 0.2002-3.8944 0.9347-6.2714 2.7277-2.7988 2.1103-5.1115 8.3067-1.632 13.032 0.8211 1.1148 6.0415 4.6902 10.235 3.7535 3.6128-0.807 6.8309-3.4038 7.1573-6.4578 0.0086-0.0805-0.0757-2.9063 1.9117-3.6836z"/><ellipse cx="22.752" cy="47.778" fill="#fff" rx="5.47" ry="5.47" transform="matrix(.9999 -.0158 .0158 .9999 -.751 .3649)"/><path fill="#a57939" d="m58.008 14.394c-0.0625 0.0039-5.6067 2.7464-6.6692 3.3904-1.541 1.0313-2.5045 3.7789-2.6432 3.9146l-22.925 21.718c0.4381 0.4626 1.6745 1.6307 1.9548 2.1867l23.887-22.65c-0.0875-0.0921 1.9549-0.3566 3.3142-1.9664 0.3054-0.3617 1.1459-1.5814 2.2198-2.5511 1.074-0.9697 2.3815-1.6893 2.75-2.4187 0.7566-1.4973-1.3859-1.6561-1.8885-1.6234z"/><path fill="#EA5A47" d="m32.359 41.094c-0.0801 0.0596-0.1554 0.1276-0.2148 0.2158 0.0591-0.0877 0.1377-0.1514 0.2163-0.2139l-0.0015-0.0019z"/><path fill="#EA5A47" d="m28.086 44.136c-0.0324-0.0472-0.0661-0.0932-0.0998-0.1396 0.0337 0.0464 0.0674 0.0925 0.0998 0.1396z"/></g><g id="c" fill="none" stroke="#000" stroke-linecap="round" stroke-linejoin="round" stroke-miterlimit="10" stroke-width="2"><line x1="20.899" x2="23.262" y1="46.91" y2="49.2"/><path d="m52.339 22.264s1.3423-0.0178 2.2362-0.5799c0.8941-0.562 1.0716-1.066 1.0637-1.542s0.7356-2.3263 2.3062-2.7289c1.5708-0.4028 2.4877-1.2997 2.128-2.2506-0.3598-0.9508-2.1142-0.6964-2.5538-0.6898-0.4397 0.0066-3.1881 1.6713-3.1881 1.6713s-3.5106 2.3476-3.9665 2.9203c-0.4557 0.5728-0.5206 1.0193-0.5206 1.0193l-23.639 23.07"/><ellipse cx="22.752" cy="47.778" rx="5.47" ry="5.47" transform="matrix(.9999 -.0158 .0158 .9999 -.751 .3649)"/><path d="m30.167 38.34c-0.6184-1.6047-0.6911-3.4291-0.0767-5.1788 0.8444-2.4046 3.2143-5.4706 3.2061-5.5286-0.036-0.2561-2.4648-0.6658-4.0754 1.2156s-1.9747 3.5723-2.4923 4.7953-0.6392 1.4866-1.4695 2.7743c-0.7821 1.2129-2.3485 2.2248-3.7112 2.4143-1.3627 0.1894-3.5669 0.6275-6.2429 2.6452-3.1998 2.4126-5.3398 8.5125-1.546 13.664 1.7344 2.355 6.314 5.2555 11.43 3.3176 3.7656-1.4265 5.0953-3.635 5.5126-4.6436 0.5701-1.378 0.8892-3.167 0.9549-3.6356 0.1095-0.7806-0.0477-1.6554 1.7554-2.3604 1.8031-0.7051 3.987-1.7099 4.5698-2.3949 0.6572-0.7728 0.7207-1.5145 0.4697-2.1736-0.1366 0.0216-1.1682 0.3697-3.1645-0.0969-1.9963-0.4665-2.0687-1.1225-2.3125-1.2866"/></g></svg>