<?xml version="1.0" encoding="UTF-8"?>
<svg id="a" viewBox="0 0 72 72" xmlns="http://www.w3.org/2000/svg"><g id="b"><path d="m49.966 4.9838v6s-0.41 13 5 13v43h-38v-43c5.3228-0.1787 4.9687-13.031 4.9687-13.031l0.0313-5.9688h3.8363a10 10 0 0 0 20 0z" fill="#92d3f5"/><path d="m45.797 5.0243a10 10 0 0 1-20 0s3.9632 5.0527 9.3243 5.19c5.4904 0.1409 10.676-5.19 10.676-5.19z" fill="#61b2e4"/><path d="m14.958 52.008v-4.9747c15.792 0 30.839-18.865 30.839-42.033h4.2029c0 25.912-16.506 47.008-35.042 47.008z" fill="#fcea2b"/></g><g id="c"><g fill="none" stroke="#000" stroke-linecap="round" stroke-linejoin="round" stroke-width="2"><path d="m16.891 46.494v-22.478c5.3229-0.1787 4.9687-13.031 4.9687-13.031l0.0313-5.9687h3.8363a10 10 0 0 0 20 0h4.1637v6s-0.41 13 5 13v43h-38v-14.75"/><path d="m41.667 8.3189a10.006 10.006 0 0 1-12.15-0.1159"/><path d="m14.958 52.008v-4.9747c15.792 0 30.839-18.865 30.839-42.033h4.2029c0 25.912-16.506 47.008-35.042 47.008z"/></g></g></svg>
