<svg xmlns="http://www.w3.org/2000/svg" id="a" viewBox="0 0 72 72"><g id="b"><path fill="#d0cfce" d="m24.239 20h-7.2109a7.1536 7.1536 0 0 1 0.0252 2h7.1534a7.18 7.18 0 0 1 0.0323-2z"/><path fill="#d0cfce" d="m26.956 11.306a6.4946 6.4946 0 0 0-6.3218-6.3219 6.3219 6.3219 0 0 0-6.3219 6.3219l-0.0044-0.026c0.05 2.2573 1.4038 4.4042 2.2124 6.72h8.2325c0.8095-2.306 2.1536-4.4452 2.2032-6.694z"/><path fill="#d0cfce" d="M27.2917,27.47A11.7467,11.7467,0,0,1,24.78,24H16.471a11.7743,11.7743,0,0,1-2.4995,3.4438c-9.2582,9.2582-5.8275,25.063,1.1162,39.53L15,67H26.1756C33.1192,52.5328,36.55,36.7281,27.2917,27.47Z"/><path fill="#ea5a47" d="m24.207 22h-7.1534a7.1754 7.1754 0 0 1-0.5823 2h8.309a7.1557 7.1557 0 0 1-0.5733-2z"/><path fill="#ea5a47" d="m24.752 18h-8.2325a10.761 10.761 0 0 1 0.5081 2h7.2109a10.848 10.848 0 0 1 0.5135-2z"/><path fill="#9b9b9a" d="m22.162 22h2.0436a7.1759 7.1759 0 0 1 0.0323-2h-2.0653c-0.0313 0.6477-0.0398 1.3118-0.0106 2z"/><path fill="#9b9b9a" d="m23.057 11.306a63.054 63.054 0 0 1-0.7168 6.6943h2.4118c0.8095-2.3063 2.1536-4.4455 2.2032-6.6943a6.5112 6.5112 0 0 0-5.7781-6.2914c1.0552 0.3063 1.9014 3.297 1.8799 6.2914z"/><path fill="#9b9b9a" d="m27.291 27.47a11.745 11.745 0 0 1-2.5118-3.47h-2.43a20.844 20.844 0 0 0 0.8172 3.47c3.0122 9.2582 1.896 25.063-0.3631 39.53l3.3482-0.3277c6.9433-14.467 10.398-29.944 1.1395-39.202z"/><path fill="#d22f27" d="m22.349 24h2.43a7.1587 7.1587 0 0 1-0.5732-2h-2.0433a19.744 19.744 0 0 0 0.1865 2z"/><path fill="#d22f27" d="m22.173 20h2.0653a10.84 10.84 0 0 1 0.5135-2h-2.4118c-0.0744 0.6511-0.1341 1.3159-0.167 2z"/><path fill="#d0cfce" d="M21,4.9838h-.0007v.02c.0591.0038.1189.0044.1776.01A.636.636,0,0,0,21,4.9838Z"/><path fill="#d0cfce" d="m41.239 20h-7.2109a7.1536 7.1536 0 0 1 0.0252 2h7.1534a7.18 7.18 0 0 1 0.0323-2z"/><path fill="#d0cfce" d="m43.956 11.306a6.4946 6.4946 0 0 0-6.3218-6.3219 6.3219 6.3219 0 0 0-6.3219 6.3219l-0.0044-0.026c0.05 2.2573 1.4038 4.4042 2.2124 6.72h8.2325c0.8095-2.306 2.1536-4.4452 2.2032-6.694z"/><path fill="#d0cfce" d="M44.2917,27.47A11.7467,11.7467,0,0,1,41.78,24H33.471a11.7743,11.7743,0,0,1-2.4995,3.4438c-9.2582,9.2582-5.9133,25.1037,1.03,39.5708L32,67H43.1756C50.1192,52.5328,53.55,36.7281,44.2917,27.47Z"/><path fill="#ea5a47" d="m41.207 22h-7.1534a7.1754 7.1754 0 0 1-0.5823 2h8.309a7.1557 7.1557 0 0 1-0.5733-2z"/><path fill="#ea5a47" d="m41.752 18h-8.2325a10.761 10.761 0 0 1 0.5081 2h7.2109a10.848 10.848 0 0 1 0.5135-2z"/><path fill="#9b9b9a" d="m39.162 22h2.0436a7.1759 7.1759 0 0 1 0.0323-2h-2.0653c-0.0313 0.6477-0.0398 1.3118-0.0106 2z"/><path fill="#9b9b9a" d="m40.057 11.306a63.054 63.054 0 0 1-0.7168 6.6943h2.4118c0.8095-2.3063 2.1536-4.4455 2.2032-6.6943a6.5112 6.5112 0 0 0-5.7781-6.2914c1.0552 0.3063 1.9014 3.297 1.8799 6.2914z"/><path fill="#9b9b9a" d="m44.291 27.47a11.745 11.745 0 0 1-2.5118-3.47h-2.43a20.844 20.844 0 0 0 0.8172 3.47c3.0122 9.2582 1.896 25.063-0.3631 39.53h3.3719c6.9433-14.467 10.374-30.272 1.1158-39.53z"/><path fill="#d22f27" d="m39.349 24h2.43a7.1587 7.1587 0 0 1-0.5732-2h-2.0433a19.744 19.744 0 0 0 0.1865 2z"/><path fill="#d22f27" d="m39.173 20h2.0653a10.84 10.84 0 0 1 0.5135-2h-2.4118c-0.0744 0.6511-0.1341 1.3159-0.167 2z"/><path fill="#d0cfce" d="M38,4.9838h-.0007v.02c.0591.0038.1189.0044.1776.01A.636.636,0,0,0,38,4.9838Z"/><circle cx="19.998" cy="52.092" r="15" fill="#9b9b9a"/><path fill="#3F3F3F" d="m27.602 39.16a15.003 15.003 0 0 1-18.569 23.172 15.004 15.004 0 0 0 25.966-10.241 14.886 14.886 0 0 0-7.3965-12.931z"/><path fill="#d0cfce" d="m58.239 20h-7.2109a7.1536 7.1536 0 0 1 0.0252 2h7.1534a7.18 7.18 0 0 1 0.0323-2z"/><path fill="#d0cfce" d="m60.956 11.306a6.4946 6.4946 0 0 0-6.3218-6.3219 6.3219 6.3219 0 0 0-6.3219 6.3219l-0.0044-0.026c0.05 2.2573 1.4038 4.4042 2.2124 6.72h8.2325c0.8095-2.306 2.1536-4.4452 2.2032-6.694z"/><path fill="#d0cfce" d="m61.292 27.47a11.747 11.747 0 0 1-2.5117-3.47h-8.309a11.774 11.774 0 0 1-2.4995 3.4438c-9.2582 9.2582-5.9152 25.089 1.0285 39.556h11.176c6.9436-14.467 10.374-30.272 1.1161-39.53z"/><path fill="#ea5a47" d="m58.207 22h-7.1534a7.1754 7.1754 0 0 1-0.5823 2h8.309a7.1557 7.1557 0 0 1-0.5733-2z"/><path fill="#ea5a47" d="m58.752 18h-8.2325a10.761 10.761 0 0 1 0.5081 2h7.2109a10.848 10.848 0 0 1 0.5135-2z"/><path fill="#9b9b9a" d="m56.162 22h2.0436a7.1759 7.1759 0 0 1 0.0323-2h-2.0653c-0.0313 0.6477-0.0398 1.3118-0.0106 2z"/><path fill="#9b9b9a" d="m57.057 11.306a63.054 63.054 0 0 1-0.7168 6.6943h2.4118c0.8095-2.3063 2.1536-4.4455 2.2032-6.6943a6.5112 6.5112 0 0 0-5.7781-6.2914c1.0552 0.3063 1.9014 3.297 1.8799 6.2914z"/><path fill="#9b9b9a" d="m61.291 27.47a11.745 11.745 0 0 1-2.5118-3.47h-2.43a20.844 20.844 0 0 0 0.8172 3.47c3.0122 9.2582 1.896 25.063-0.3631 39.53h3.3719c6.9433-14.467 10.374-30.272 1.1158-39.53z"/><path fill="#d22f27" d="m56.349 24h2.43a7.1587 7.1587 0 0 1-0.5732-2h-2.0433a19.744 19.744 0 0 0 0.1865 2z"/><path fill="#d22f27" d="m56.173 20h2.0653a10.84 10.84 0 0 1 0.5135-2h-2.4118c-0.0744 0.6511-0.1341 1.3159-0.167 2z"/><path fill="#d0cfce" d="M55,4.9838h-.0007v.02c.0591.0038.1189.0044.1776.01A.636.636,0,0,0,55,4.9838Z"/></g><g id="c"><circle cx="19.998" cy="52.092" r="15" fill="none" stroke="#000" stroke-linecap="round" stroke-linejoin="round" stroke-width="2"/><circle cx="16.197" cy="47.652" r="2"/><circle cx="19.777" cy="51.652" r="2"/><circle cx="12.457" cy="53.652" r="2"/><path fill="none" stroke="#000" stroke-linecap="round" stroke-linejoin="round" stroke-width="2.303" d="M8.7027,37.8423a19.06,19.06,0,0,1,5.2688-10.3984c6.8233-6.8233.445-11.226.336-16.1643l.0045.0261a6.3219,6.3219,0,0,1,6.3219-6.3219,6.4947,6.4947,0,0,1,6.3218,6.3219c-.1053,4.7754-6.0734,9.05-.2966,15.497"/><path fill="none" stroke="#000" stroke-linecap="round" stroke-linejoin="round" stroke-width="2.303" d="M26.3992,35.0074a18.4794,18.4794,0,0,1,4.5723-7.5635c6.8233-6.8233.445-11.226.336-16.1643l.0045.0261a6.3219,6.3219,0,0,1,6.3219-6.3219,6.4947,6.4947,0,0,1,6.3218,6.3219c-.1052,4.7674-6.0534,9.0357-.3255,15.4646"/><path fill="none" stroke="#000" stroke-linecap="round" stroke-linejoin="round" stroke-width="2.303" d="M49,67c-6.9436-14.4671-10.2867-30.298-1.0285-39.5561,6.8233-6.8233.445-11.226.336-16.1643l.0045.0261a6.3219,6.3219,0,0,1,6.3219-6.3219,6.4947,6.4947,0,0,1,6.3218,6.3219c-.1089,4.9383-6.4872,9.3409.3361,16.1642C70.55,36.7281,67.1192,52.5329,60.1756,67Z"/><polyline fill="none" stroke="#000" stroke-linecap="round" stroke-linejoin="round" stroke-width="2.097" points="32.321 65.557 32.703 66.902 42.547 66.902 43.784 63.329"/></g></svg>