<?xml version="1.0" encoding="UTF-8"?>
<svg id="a" version="1.1" viewBox="0 0 72 72" xmlns="http://www.w3.org/2000/svg"><g id="b"><polygon points="58.094 22.608 35.673 27.844 13.929 22.273 35.673 17.417" fill="#D0CFCE"/><polygon points="58.221 48.347 36.043 54.104 35.673 27.004 58.166 21.846" fill="#9B9B9A"/><polygon points="13.986 47.957 35.703 54.104 35.673 27.844 22.65 24.699 13.983 22.296" fill="#D0CFCE"/></g><g id="c"><polyline points="35.635 54.017 57.47 48.731 57.47 21.765 35.617 26.516 13.767 21.765 13.767 48.731 35.601 54.017 35.601 30.371" fill="none" stroke="#000" stroke-linecap="round" stroke-linejoin="round" stroke-miterlimit="10" stroke-width="2.069"/><polyline points="13.767 21.765 35.808 16.454 57.47 21.765" fill="none" stroke="#000" stroke-linecap="round" stroke-linejoin="round" stroke-miterlimit="10" stroke-width="2.069"/><circle cx="21.274" cy="32.934" r="3"/><circle cx="27.245" cy="44.376" r="3"/><circle cx="41.767" cy="45.221" r="3"/><circle cx="46.827" cy="38.067" r="3"/><circle cx="51.888" cy="30.912" r="3"/><ellipse cx="35.831" cy="21.122" rx="4" ry="1.6191"/></g></svg>
