<svg xmlns="http://www.w3.org/2000/svg" id="a" viewBox="0 0 72 72"><g id="b" fill="#fff"><rect width="6.002" height="6.002" x="22.358" y="17.268"/><polygon points="28.36 33.893 22.358 35.273 22.358 29.272 28.36 29.272"/><rect width="6.002" height="6.002" x="28.36" y="23.27"/><rect width="6.002" height="6.002" x="34.362" y="17.268"/><rect width="6.002" height="2.281" x="28.36" y="14.987"/><polygon points="40.363 35.273 34.362 33.822 34.362 29.272 40.363 29.272"/><rect width="6.002" height="6.002" x="40.363" y="23.27"/><rect width="6.002" height="3.001" x="46.365" y="20.269"/><rect width="6.002" height="6.002" x="46.365" y="29.272"/><rect width="1.744" height="6.002" x="52.367" y="23.27"/><rect width="6.002" height="1.931" x="40.363" y="35.273"/><rect width="2.113" height="2.404" x="52.367" y="35.273"/></g><g id="c"><rect width="6.002" height="6.002" x="22.358" y="23.27"/><rect width="6.002" height="6.002" x="28.36" y="17.268"/><rect width="6.002" height="5.14" x="28.36" y="29.272"/><polygon points="28.36 17.268 22.358 17.268 23.042 16.647 28.36 16.026"/><polygon points="40.363 17.268 34.362 17.268 34.362 15.649 40.363 16.621"/><rect width="6.002" height="6.002" x="34.362" y="23.27"/><polygon points="46.365 23.27 40.363 23.27 40.363 18.646 46.365 19.967"/><rect width="6.002" height="6.002" x="40.363" y="29.272"/><rect width="6.002" height="6.002" x="46.365" y="23.27"/><rect width="1.744" height="2.96" x="52.367" y="20.309"/><rect width="1.909" height="6.002" x="52.367" y="29.272"/><rect width="6.002" height="3.474" x="46.365" y="35.273"/><path fill="none" stroke="#000" stroke-linecap="round" stroke-linejoin="round" stroke-miterlimit="10" stroke-width="2" d="m23.084 17.488c2.885-1.7983 8.4218-4.2326 14.416-1.488 3.689 1.6892 5.6344 4.6976 15.04 4.1142 0.7886-0.0489 1.4595 0.5967 1.4595 1.4106v15.125c0 0.6226-0.4235 1.0771-0.9648 1.354-1.947 0.9959-7.2715 0.9349-15.535-3.0041-3.3653-1.6041-8.5703-2.5683-14.458 1.4425"/><line x1="19.327" x2="19.327" y1="12.875" y2="59.835" fill="none" stroke="#000" stroke-linecap="round" stroke-miterlimit="10" stroke-width="2"/></g></svg>