<?xml version="1.0" encoding="UTF-8"?>
<svg id="a" version="1.1" viewBox="0 0 72 72" xmlns="http://www.w3.org/2000/svg"><g id="b" fill="none" stroke="#000" stroke-linecap="round" stroke-linejoin="round" stroke-miterlimit="10" stroke-width="2"><line x1="36" x2="36" y1="4.2" y2="67.7"/><line x1="38.9" x2="33.1" y1="35.9" y2="35.9"/><line x1="38.9" x2="33.1" y1="30.9" y2="30.9"/><line x1="38.9" x2="33.1" y1="40.9" y2="40.9"/><line x1="25.6" x2="46.5" y1="58.6" y2="58.6"/><line x1="23.6" x2="48.4" y1="16" y2="16"/></g><g id="c"><path d="M35.9,4c-11,6.4-18.3,18.3-18.3,31.9S25,61.5,36,67.9h0.1C47,61.5,54.4,49.6,54.4,36 C54.4,22.3,47,10.4,35.9,4" fill="#A57939"/><path d="m41.7 8.1c5.8 7.9 9.2 18.8 7.4 29.1-2.1 11.7-9.5 21.2-19.2 26.3 1.9 1.7 3.9 3.2 6.1 4.5h0.1c11-6.4 18.3-18.3 18.3-31.9 0-10.8-5.3-21.2-12.7-28z" fill="#6A462F"/><line x1="36" x2="36" y1="4.2" y2="67.7" fill="none" stroke="#fff" stroke-linecap="round" stroke-linejoin="round" stroke-miterlimit="10" stroke-width="2"/><line x1="38.9" x2="33.1" y1="35.9" y2="35.9" fill="none" stroke="#fff" stroke-linecap="round" stroke-linejoin="round" stroke-miterlimit="10" stroke-width="2"/><line x1="38.9" x2="33.1" y1="30.9" y2="30.9" fill="none" stroke="#fff" stroke-linecap="round" stroke-linejoin="round" stroke-miterlimit="10" stroke-width="2"/><line x1="38.9" x2="33.1" y1="40.9" y2="40.9" fill="none" stroke="#fff" stroke-linecap="round" stroke-linejoin="round" stroke-miterlimit="10" stroke-width="2"/><line x1="25.6" x2="46.5" y1="58.6" y2="58.6" fill="none" stroke="#fff" stroke-linecap="round" stroke-linejoin="round" stroke-miterlimit="10" stroke-width="2"/><line x1="23.6" x2="48.4" y1="16" y2="16" fill="none" stroke="#fff" stroke-linecap="round" stroke-linejoin="round" stroke-miterlimit="10" stroke-width="2"/></g><g id="d"><path d="M35.9,4c-11,6.4-18.3,18.3-18.3,31.9S25,61.5,36,67.9h0.1C47,61.5,54.4,49.6,54.4,36C54.4,22.3,47,10.4,35.9,4" fill="none" stroke="#000" stroke-linecap="round" stroke-linejoin="round" stroke-miterlimit="10" stroke-width="2"/></g></svg>
