<?xml version="1.0" encoding="UTF-8"?>
<svg id="a" viewBox="0 0 72 72" xmlns="http://www.w3.org/2000/svg"><g id="b" fill="#fcea2b"><path d="M41.7129,32.5877s-6.1963-4.29-7.6262-5.72a4.878,4.878,0,0,1-.7626-1.7159c-.2869-.7626,1.143-3.5271,2.5729-3.4308a16.1338,16.1338,0,0,1,4.4813,1.7149c1.3346.572,2.0972-.5719,2.4785-1.2383L35.42,18.67,30.56,23.055l-3.4318,3.4327L24.3633,33.35l2.9542-.6663,7.3412-1.24Z"/><circle cx="18.548" cy="28.583" r="2.8598"/></g><g id="c"><path d="m64.877 31.348c-7.6261 0-10.486 2.86-15.252 2.86s-9.5327-2.86-15.252-2.86-9.5327 2.86-15.252 2.86-12.392-2.86-15.252-2.86v11.153c0 1.3346 1.3346 7.9122 6.6729 7.9122h48.712c5.529 0 5.6243-4.5757 5.6243-9.0561z" fill="#92d3f5"/></g><g id="d" fill="none" stroke="#000" stroke-width="2"><path d="m4.8215 31.348c2.86 0 8.58 2.86 14.299 2.86s9.5327-2.86 15.252-2.86 10.486 2.86 15.252 2.86 6.6729-2.86 14.299-2.86" stroke-linecap="round" stroke-linejoin="round"/><path d="m43.906 38.975a19.967 19.967 0 0 0 5.72 0.9533c2.5738 0 4.3851-0.8579 6.6729-1.62" stroke-linecap="round" stroke-linejoin="round"/><path d="m12.256 38.879a26.505 26.505 0 0 0 6.8639 1.0486c5.72 0 9.5327-2.86 15.252-2.86" stroke-linecap="round" stroke-linejoin="round"/><path d="m24.84 45.648c3.05-0.8579 5.91-2.0018 9.5327-2.0018 4.1944 0 7.9121 1.5252 11.439 2.3831" stroke-linecap="round" stroke-linejoin="round"/><circle cx="18.548" cy="28.583" r="3" stroke-miterlimit="10"/><path d="M24.84,33.255c.9532-2.86.9532-5.72,3.813-8.5794,1.9066-1.9066,4.7664-5.72,6.6729-5.72s6.6729,2.86,6.6729,2.86" stroke-linecap="round" stroke-linejoin="round"/><path d="m41.046 32.302s-4.957-3.7177-6.6729-4.7663c-1.8112-1.1439-1.9066-1.9066-1.9066-1.9066" stroke-linecap="round" stroke-linejoin="round"/></g></svg>
