<svg xmlns="http://www.w3.org/2000/svg" id="a" viewBox="0 0 72 72"><g id="b"><path fill="#f4aa41" d="m58.619 13.226c-12.329-3.2325-25.998-0.0171-35.662 9.646-9.6832 9.6832-12.892 23.389-9.6257 35.738l0.0486 0.0486c12.329 3.2325 25.998 0.0171 35.662-9.646 9.6832-9.6832 12.892-23.389 9.6257-35.738"/><path fill="#e27022" d="m60.019 20.352c-1.4674 9.6513-6.7618 19.759-15.396 25.791-9.7444 6.8072-21.628 8.2594-32.162 4.9803 0.1342 2.5292 0.5149 5.0476 1.1665 7.5114l0.0484 0.0484c12.283 3.2204 25.901 0.017 35.528-9.6099 7.6078-7.6077 11.231-18.757 10.816-28.722z"/></g><g id="c" fill="none" stroke="#000" stroke-linecap="round" stroke-linejoin="round" stroke-miterlimit="10" stroke-width="2"><path d="m58.619 13.226c-12.329-3.2325-25.998-0.0171-35.662 9.646-9.6832 9.6832-12.892 23.389-9.6257 35.738l0.0486 0.0486c12.329 3.2325 25.998 0.0171 35.662-9.646 9.6832-9.6832 12.892-23.389 9.6257-35.738"/><line x1="58.669" x2="13.333" y1="13.276" y2="58.612"/><line x1="41.575" x2="37.496" y1="34.447" y2="30.368"/><line x1="45.111" x2="41.031" y1="30.911" y2="26.832"/><line x1="38.04" x2="33.96" y1="37.982" y2="33.903"/><line x1="34.504" x2="30.425" y1="41.518" y2="37.439"/><line x1="30.968" x2="26.889" y1="45.053" y2="40.974"/><path d="m26.016 36.079c0-1.7991 0.4751-3.4872 1.3066-4.9457"/><path d="m41.008 44.746c-1.4691 0.8481-3.174 1.3333-4.9922 1.3333"/><path d="m46.016 36.079c0 1.8198-0.4861 3.5261-1.3355 4.996"/><path d="m30.986 27.434c1.4575-0.8498 3.1494-1.3415 4.9551-1.3547"/></g></svg>