<svg xmlns="http://www.w3.org/2000/svg" id="a" viewBox="0 0 72 72"><g id="b"><path fill="#92D3F5" d="m34 66s5 1 8 0l5-2 5-6s2-3 3-6 2.0313-3.625 2.8281-3.625c0.7969 0 1.8291 0.625 1.8291 0.625s0.6914 2.1738 0.167 3c0 0-2.1103 3.2178-1.4736 2.4795 0 0 1.7744-0.3545 2.6494-0.3545s3.6689 0.3867 4 2.375c0.125 0.75-0.125 1.8242 1.125 2.9746 0 0 1.1221 4 0.709 3.9697-0.4131-0.0302-4.583 0.543-5.834-0.4013 0 0-2.751-3.0215-3.834-3.0215 0 0-2.3066 1.3506-5.167 3.4228-7.666 5.5557-15.354 4.5909-16.999 3.3311"/></g><g id="c" fill="#FCEA2B"><circle cx="35.969" cy="11.094" r="3"/><path d="m45 23v24l-2 13h-3v-13l-2-8h-1l-6 8-4 10h-3l2-13 6-9 2-5v-5l-2.916-1.7495s-1.707-0.5835-3.999 0.6245-5.584 1.958-7.084 2.125-6.6905 0-7.125 0c-1.167 0-1.876-0.6665-1.876-1.958 0 0 8.584-0.0425 10.25-0.626s10.25-4.0835 10.25-4.0835l14.584-1.3325 11.971 6.7378 3.7803 1.6792s-0.377 1.8745-2.8975 1.1143c-2.2744-0.6861-6.2705-2.5313-9.875-5.0313-0.6504-0.4507-3.125-1.0937-3.125 0.5"/></g><g id="d" fill="none" stroke="#000" stroke-miterlimit="10" stroke-width="2"><circle cx="35.969" cy="11.094" r="3"/><path stroke-linecap="round" stroke-linejoin="round" d="m11.875 24 5.125-0.0073c2.75-0.0039 6.7998-1.1289 9-2.5s5.7998-2.7178 8-2.9927 6.25-0.5 9-0.5v0c2.75 0 6.3496 1.125 8 2.5s4.5752 3.1748 6.5 4 3.5 1.5 3.5 1.5"/><path stroke-linecap="round" stroke-linejoin="round" d="m45 23v14 4 4c0 1.0996-0.1367 2.8896-0.3037 3.9766l-1.3926 9.0468c-0.167 1.087-0.9785 1.9766-1.8037 1.9766s-1.5-0.9004-1.5-2v-9c0-1.0996-0.2187-2.873-0.4854-3.9404l-1.0292-4.1192c-0.2666-1.0674-0.71-1.9404-0.9854-1.9404s-1.04 0.7197-1.7002 1.5996l-3.6006 4.8008c-0.6601 0.8799-1.5342 2.4355-1.9424 3.457l-2.5146 6.2852c-0.4082 1.0215-1.418 1.8574-2.2422 1.8574s-1.3633-0.8896-1.1953-1.9766l1.3906-9.0468c0.168-1.087 0.8037-2.7256 1.4141-3.6407l3.7812-5.6718c0.6104-0.9151 1.4434-2.5 1.8516-3.5215l0.5156-1.2852c0.4082-1.0215 0.7422-2.7578 0.7422-3.8574v-1c0-1.1001-0.4502-2.4502-1-3l-1-1"/><path stroke-linecap="round" stroke-linejoin="round" d="m56 53s0-4 2-4 2 2 1 3"/><path stroke-linecap="round" stroke-linejoin="round" d="m53 63.444s1.1055-1.5527 2-2c2-1 3 0 3 0"/><path stroke-linecap="round" stroke-linejoin="round" d="m62 62.744s3.2686 2.3047 4.4209 0.67c0.6445-0.9141 0.9121-3.0284-2.1162-3.9395"/><path stroke-linecap="round" stroke-linejoin="round" d="m6.8125 57.188s2.3535 1.2939 9.1875 2.8125c9 2 22.812 3.1875 22.812 3.1875"/><path stroke-linecap="round" stroke-linejoin="round" d="m33 66c4 1 9 1 12-1 3.7207-2.4805 6-9 15-10"/></g></svg>