<?xml version="1.0" encoding="UTF-8"?>
<svg id="a" viewBox="0 0 72 72" xmlns="http://www.w3.org/2000/svg"><g id="b"><path d="M53.9375,15.7813L57,16l1,3c1,2-2.9687,3.1875-3.9687,0.1875" fill="#D0CFCE"/></g><g id="c" fill="#fadcbc" stroke="#fadcbc"><circle cx="38.969" cy="11.094" r="3"/><path d="m33.156 20c-4.0625 0.4688-5.8233 0.2085-6.3643-0.625-0.5137-0.792-0.209-4.4585-0.375-8.75l-2.25-1.1665-0.042 10.875 1.417 2 5.25 0.7915 1.333-0.5835 1.0313-2.5415z"/><path d="m28 11 2 5 10 3 1 3-1 11 1 4 1 14 4 16h-3l-6-16-2-11h-1l-1 10-2 17h-3v-18l1-13 2-9 2.25-6.9375c-0.8437-0.2812-3.4687-0.9062-4.5937-2.1562s-3.3331-5.8335-3.3643-7.3648"/></g><g id="d" fill="none" stroke="#000" stroke-miterlimit="10" stroke-width="2"><path d="m33 21-1.3672 4.1025c-0.3476 1.0435-0.8281 2.7759-1.0664 3.8496l-1.1328 5.0958c-0.2383 1.0732-0.502 2.8496-0.5869 3.9462l-0.6934 9.0118c-0.0849 1.0966-0.1533 2.8945-0.1533 3.9941v14c0 1.0996 0.6758 2 1.5 2s1.6045-0.8936 1.7334-1.9863l1.5322-13.027c0.1289-1.0927 0.3233-2.8818 0.4336-3.9765l0.6016-6.0196c0.1094-1.0947 0.4238-1.9902 0.6992-1.9902s0.6611 0.8857 0.8574 1.9678l1.2852 7.0644c0.1963 1.0821 0.6738 2.8106 1.0595 3.8408l4.5958 12.254c0.3857 1.0302 1.3769 1.873 2.2021 1.873s1.2813-0.873 1.0146-1.9404l-3.0292-12.119c-0.2666-1.0674-0.5499-2.8379-0.628-3.9355l-0.7148-10.01c-0.0781-1.0976-0.3613-2.8681-0.628-3.9355l-0.0292-0.1192c-0.2666-1.0674-0.4043-2.8369-0.3047-3.9326l0.6386-7.0161c0.0996-1.0952-0.0439-2.6665-0.3193-3.4917s-1.3623-1.7588-2.416-2.0747l-6.168-1.8506c-1.0547-0.3159-2.25-1.4101-2.6582-2.4316l-1.2578-3.1431" stroke-linecap="round" stroke-linejoin="round"/><circle cx="38.969" cy="11.094" r="3"/><path d="M32,23l-5.0234-0.6279C25.3398,22.1675,24,20.6499,24,19v-9" stroke-linecap="round" stroke-linejoin="round"/><path d="M45.7666,13.8164L57,16l1,3c1,2-2,3-3,0" stroke-linecap="round" stroke-linejoin="round"/><line x1="21" x2="31.974" y1="9" y2="11.134" stroke-linecap="round" stroke-linejoin="round"/></g></svg>
