<?xml version="1.0" encoding="UTF-8"?>
<svg id="a" version="1.1" viewBox="0 0 72 72" xmlns="http://www.w3.org/2000/svg"><g id="b"><circle cx="36" cy="36" r="29" fill="#F4AA41"/><path d="m50.7 11c4.8 5.2 7.8 12.1 7.8 19.8 0 16-13 29-29 29-5.4 0-10.4-1.5-14.7-4 5.3 5.6 12.9 9.2 21.2 9.2 16 0 29-13 29-29 0-10.7-5.7-20-14.3-25z" fill="#E27022"/></g><g id="c" fill="none" stroke="#000" stroke-linecap="round" stroke-linejoin="round" stroke-miterlimit="10" stroke-width="2"><line x1="7" x2="65" y1="36" y2="36"/><line x1="36" x2="36" y1="7" y2="65"/><path d="m55.2 57.7c-5.6-5.6-9-13.2-9-21.8 0-8.5 3.4-16.2 9-21.8"/><path d="m16.9 14.2c5.6 5.6 9 13.3 9 21.8s-3.4 16.2-9 21.8"/><circle cx="36" cy="36" r="29"/></g></svg>
