<?xml version="1.0" encoding="UTF-8"?>
<svg id="a" viewBox="0 0 72 72" xmlns="http://www.w3.org/2000/svg"><g id="b"><path d="m67.958 35.958c-8 0-10.958 3.042-15.958 3.042s-10-3-16-3-10 3-16 3-13-3-16-3v11.666c0 1.416 1.4189 8.334 7 8.334h24.98 26.104c5.832 0 5.876-4.834 5.876-9.5215 0-2.666-1e-3 -10.52-1e-3 -10.52z" fill="#92D3F5"/></g><g id="c" fill="#c19a65" stroke="#c19a65"><circle cx="19.386" cy="33.062" r="2.9687"/><path d="m43.688 37.312s-6.4795-4.4795-8-6c-0.3437-0.3437-0.4502-0.9258-0.8125-1.7812-0.3437-0.8125 1.2012-3.731 2.7188-3.5625 1.125 0.125 2.5898 0.8134 4.7187 1.7812 1.375 0.625 2.1563-0.5937 2.5625-1.3125l-7.75-3.6562-5.1562 4.5312-3.5625 3.625-2.875 7.1875 3.125-0.7187 7.6562-1.3438 7.375 1.25z"/></g><g id="d" fill="none" stroke="#000" stroke-miterlimit="10" stroke-width="2"><circle cx="19.386" cy="33.062" r="2.9687"/><path d="m5 36c3 0 9 3 15 3s10-3 16-3 11 3 16 3 7-3 15-3" stroke-linecap="round" stroke-linejoin="round"/><path d="M46.0059,43.9639C48.0449,44.5313,50.0225,45,52,45c2.7441,0,4.585-0.9043,7.0088-1.7197" stroke-linecap="round" stroke-linejoin="round"/><path d="M12.7773,43.8867C15.0439,44.4883,17.5225,45,20,45c6,0,10-3,16-3" stroke-linecap="round" stroke-linejoin="round"/><path d="m26.001 50.959c3.208-0.8828 6.2031-2.084 9.999-2.084 4.4063 0 8.2734 1.6182 11.997 2.4775" stroke-linecap="round" stroke-linejoin="round"/><path d="m26 38c1-3 0.9912-5.9912 4-9 2-2 5-6 7-6s7 3 7 3" stroke-linecap="round" stroke-linejoin="round"/><path d="m43 37s-5.1572-3.8906-7-5c-1.916-1.1533-2-2-2-2" stroke-linecap="round" stroke-linejoin="round"/></g></svg>
