<svg xmlns="http://www.w3.org/2000/svg" id="a" viewBox="0 0 72 72"><g id="b"><path fill="#d22f27" d="m5 50.77s-1.5518 4.167 0.0313 4.167h15.5 40.083l1.8339-2h4.5l0.4161-9.833-0.833-6.667-9.167-0.583-2.833 1.083-0.0733 1.918 5.2285 5.0625-3.9052 0.0195s-0.7481-2-3.0821-2.584-11.167-2.417-11.167-2.417l-0.583 4.5s-10.981-0.0205-14.396 0.4395c-1.9697 0.2656-6.6562 0.6289-10.938 1.624-3.2286 0.75-5.792 3.4795-8.9151 4.5l-1.6992 0.7705z"/><path fill="#ea5a47" d="m10.22 53.376s-5.7822 1.084-4.2197-0.292c0 0 3.9688-2.6465 13.612-2.8965l-2.7998 3.3906-4.0195 1.2158-2.5733-1.4179z"/><polygon fill="#ea5a47" points="41.562 43.688 41.751 38.916 54.062 42.062 55.125 45 45.625 45"/><polygon fill="#ea5a47" points="55.188 34.125 55 38 67 38 66.812 34"/><circle cx="58.75" cy="52" r="2.828" fill="#d0cfce"/><circle cx="21.5" cy="52" r="2.828" fill="#d0cfce"/></g><g id="c"><circle cx="22" cy="52" r="3" fill="none" stroke="#000" stroke-linecap="round" stroke-linejoin="round" stroke-miterlimit="10" stroke-width="2"/><circle cx="39" cy="42" r="3"/><circle cx="59" cy="52" r="3" fill="none" stroke="#000" stroke-linecap="round" stroke-linejoin="round" stroke-miterlimit="10" stroke-width="2"/><polyline fill="none" stroke="#000" stroke-linecap="round" stroke-linejoin="round" stroke-miterlimit="10" stroke-width="2" points="65.625 52 67 52 67 35 55 35 55 38 58.188 41.108"/><path fill="none" stroke="#000" stroke-linecap="round" stroke-linejoin="round" stroke-miterlimit="10" stroke-width="2" d="m16 53-1 1h-10v-4s13-6 26-6h20"/><line x1="29" x2="53" y1="54" y2="54" fill="none" stroke="#000" stroke-linecap="round" stroke-linejoin="round" stroke-miterlimit="10" stroke-width="2"/><path fill="none" stroke="#000" stroke-linecap="round" stroke-linejoin="round" stroke-miterlimit="10" stroke-width="2" d="m41 43v-4s10 0 14 5"/></g></svg>