<?xml version="1.0" encoding="UTF-8"?>
<svg id="a" viewBox="0 0 72 72" xmlns="http://www.w3.org/2000/svg"><g id="b" fill="#fadcbc"><circle cx="18.55" cy="28.583" r="2.8598"/><path d="M41.7132,32.5877s-6.1962-4.29-7.6261-5.72a4.8777,4.8777,0,0,1-.7627-1.7159c-.2869-.7626,1.143-3.5271,2.5729-3.4308a16.133,16.133,0,0,1,4.4814,1.7149c1.3345.572,2.0971-.5719,2.4785-1.2383L35.4207,18.67,30.56,23.055l-3.4318,3.4327L24.3637,33.35l2.9542-.6663,7.3411-1.24Z"/></g><g id="c"><path d="m64.878 31.348c-7.6262 0-10.486 2.86-15.252 2.86s-9.5327-2.86-15.252-2.86-9.5327 2.86-15.252 2.86-12.392-2.86-15.252-2.86v11.153c0 1.3346 1.3345 7.9122 6.6729 7.9122h48.712c5.529 0 5.6243-4.5757 5.6243-9.0561z" fill="#92d3f5"/></g><g id="d" fill="none" stroke="#000" stroke-width="2"><path d="m4.8219 31.348c2.86 0 8.58 2.86 14.299 2.86s9.5327-2.86 15.252-2.86 10.486 2.86 15.252 2.86 6.6729-2.86 14.299-2.86" stroke-linecap="round" stroke-linejoin="round"/><path d="m43.906 38.975a19.967 19.967 0 0 0 5.72 0.9533c2.5738 0 4.385-0.8579 6.6729-1.62" stroke-linecap="round" stroke-linejoin="round"/><path d="m12.257 38.879a26.505 26.505 0 0 0 6.8636 1.0486c5.72 0 9.5327-2.86 15.252-2.86" stroke-linecap="round" stroke-linejoin="round"/><path d="m24.841 45.648c3.0505-0.8579 5.91-2.0018 9.5327-2.0018 4.1944 0 7.9122 1.5252 11.439 2.3831" stroke-linecap="round" stroke-linejoin="round"/><path d="M24.84,33.255c.9533-2.86.9533-5.72,3.8131-8.5794,1.9065-1.9066,4.7664-5.72,6.6729-5.72s6.6729,2.86,6.6729,2.86" stroke-linecap="round" stroke-linejoin="round"/><circle cx="18.55" cy="28.583" r="3" stroke-miterlimit="10"/><path d="m41.046 32.302s-4.957-3.7177-6.6729-4.7663c-1.8112-1.1439-1.9065-1.9066-1.9065-1.9066" stroke-linecap="round" stroke-linejoin="round"/><path d="M20.0352,24.6343s.12-.6472.5689-.7662c.5275-.1407,1.7532.382,2.5.3039a3.3626,3.3626,0,0,0,1.9854-.88" stroke-linecap="round" stroke-linejoin="round"/></g></svg>
