<svg xmlns="http://www.w3.org/2000/svg" id="a" viewBox="0 0 72 72"><g id="b" fill="#3F3F3F"><path d="m16 31c0 0.5498-0.4502 1-1 1h-2c-0.5498 0-1-0.4502-1-1v-16c0-0.5498 0.4502-1 1-1h2c0.5498 0 1 0.4502 1 1v16z"/><path d="m60 31c0 0.5498-0.4502 1-1 1h-2c-0.5498 0-1-0.4502-1-1v-16c0-0.5498 0.4502-1 1-1h2c0.5498 0 1 0.4502 1 1v16z"/></g><g id="c" fill="#fadcbc" stroke="#fadcbc"><circle cx="35.969" cy="18.094" r="3"/><path d="m41 39 5 2-2 17h-4v-13h-8v13h-4l-2-17 5-2s-1.2812-6.3018-1.875-8.458c-0.333-1.209-1.125-0.834-1.459-0.5-0.125 0.125-1.79 3.166-3.624 3.166s-2.8174-0.5254-3.292-1.291c-1.292-2.084-3.125-9.042-3.125-9.042l2.458-0.5 1.959 7.333 1.416 0.875 3.125-3.6665 3.459-1.4165 11.541-0.2085 3.709 1.5 2.499 3.1255 1.667 0.5 1.375-4 1.417-3.667 1.958 0.3335s-1.624 7.5425-2.916 8.8335-3.584 1.75-4.792 0.583-1.542-1.875-2.333-2.583c-0.2256-0.2022-1.125-0.709-1.334 0.542"/></g><g id="d" fill="none" stroke="#000" stroke-miterlimit="10" stroke-width="2"><circle cx="35.969" cy="18.094" r="3"/><path stroke-linecap="round" stroke-linejoin="round" d="M20,23l2.0518,6.1543c0.5214,1.5654,1.7334,1.7471,2.6923,0.4043l1.5118-2.1172c0.9589-1.3428,3.0839-2.2739,4.7207-2.0693 l2.0468,0.2558c1.6368,0.2046,4.3164,0.2046,5.9532,0l2.0468-0.2558c1.6368-0.2046,3.7618,0.7265,4.7207,2.0693l1.5118,2.1172 c0.9589,1.3428,2.1709,1.1611,2.6923-0.4043L52,23"/><path stroke-linecap="round" stroke-linejoin="round" d="m41 39 3.1426 1.2568c1.0215 0.4092 1.7519 1.6368 1.624 2.7295l-1.5332 13.027c-0.1279 1.0927-1.1338 1.9863-2.2334 1.9863v0c-1.0996 0-2-0.9004-2-2v-9c0-1.0996-0.4502-2-1-2h-3v0h-3c-0.5498 0-1 0.9004-1 2v9c0 1.0996-0.9004 2-2 2v0c-1.0996 0-2.1055-0.8936-2.2334-1.9863l-1.5332-13.027c-0.1279-1.0927 0.6025-2.3203 1.624-2.7295l3.1426-1.2568"/><path stroke-linecap="round" stroke-linejoin="round" d="m31 39v-2s-0.2246-3.125-0.5-4.5-0.5-2.5-0.5-2.5"/><path stroke-linecap="round" stroke-linejoin="round" d="m41 39v-2.1875s0.2109-3.2285 0.4688-4.5c0.2578-1.2715 0.4687-2.3125 0.4687-2.3125"/><path stroke-linecap="round" stroke-linejoin="round" d="M16,31c0,0.5498-0.4502,1-1,1h-2c-0.5498,0-1-0.4502-1-1V15c0-0.5498,0.4502-1,1-1h2c0.5498,0,1,0.4502,1,1V31z"/><path stroke-linecap="round" stroke-linejoin="round" d="M60,31c0,0.5498-0.4502,1-1,1h-2c-0.5498,0-1-0.4502-1-1V15c0-0.5498,0.4502-1,1-1h2c0.5498,0,1,0.4502,1,1V31z"/><path stroke-linecap="round" stroke-linejoin="round" d="m42 22c4 0 14 1 14 1"/><path stroke-linecap="round" stroke-linejoin="round" d="m16 23s7-1 14-1"/></g></svg>