<svg xmlns="http://www.w3.org/2000/svg" id="a" viewBox="0 0 72 72"><g id="b"><polyline fill="#92d3f5" stroke="#92d3f5" stroke-linecap="round" stroke-linejoin="round" stroke-miterlimit="10" stroke-width="2" points="54.999 4.022 43 16.021 36 16.021 30.958 10.979 37.921 4.017 54.999 4.017"/><polyline fill="#ea5a47" stroke="#ea5a47" stroke-linecap="round" stroke-linejoin="round" stroke-miterlimit="10" stroke-width="2" points="23.983 4.004 36 16.021 29 16.021 16.968 3.988 23.983 3.988"/><polyline fill="#fcea2b" points="28 22.427 28 17 44 17 44 22.427"/><circle cx="36" cy="45.021" r="23" fill="#fcea2b" stroke-linecap="round" stroke-linejoin="round" stroke-miterlimit="10" stroke-width="2"/><polygon fill="#f1b31c" stroke-linecap="round" stroke-linejoin="round" stroke-miterlimit="10" stroke-width="2" points="35.986 28 30.858 38.401 19.382 40.073 27.689 48.165 25.733 59.596 35.996 54.196 46.263 59.588 44.298 48.159 52.6 40.061 41.122 38.398"/></g><g id="c" fill="none" stroke="#000" stroke-miterlimit="10" stroke-width="2"><circle cx="36" cy="45.021" r="23"/><circle cx="36" cy="45.021" r="23" stroke-linecap="round" stroke-linejoin="round"/><circle cx="36" cy="45.021" r="23"/><line x1="29" x2="29" y1="19" y2="16.021" stroke-linecap="round" stroke-linejoin="round"/><line x1="43" x2="43" y1="19" y2="16.021" stroke-linecap="round" stroke-linejoin="round"/><line x1="29" x2="43" y1="16.021" y2="16.021" stroke-linecap="round" stroke-linejoin="round"/><line x1="25.99" x2="16.968" y1="13.01" y2="3.988" stroke-linecap="round" stroke-linejoin="round"/><line x1="31.99" x2="23.983" y1="12.01" y2="4.004" stroke-linecap="round" stroke-linejoin="round"/><line x1="34" x2="37.921" y1="8" y2="4.017" stroke-linecap="round" stroke-linejoin="round"/><line x1="46" x2="54.999" y1="13" y2="4.022" stroke-linecap="round" stroke-linejoin="round"/><line x1="16.968" x2="23.983" y1="3.988" y2="3.988" stroke-linecap="round" stroke-linejoin="round"/><line x1="37.921" x2="54.999" y1="4.017" y2="4.017" stroke-linecap="round" stroke-linejoin="round"/><circle cx="36" cy="45.021" r="23"/><polygon stroke-linecap="round" stroke-linejoin="round" points="35.986 28 30.858 38.401 19.382 40.073 27.689 48.165 25.733 59.596 35.996 54.196 46.263 59.588 44.298 48.159 52.6 40.061 41.122 38.398"/></g></svg>