<?xml version="1.0" encoding="UTF-8"?>
<svg id="a" viewBox="0 0 72 72" xmlns="http://www.w3.org/2000/svg"><g id="b"><path d="m41.585 12.831h-20.795c0.072 0.333 0.152 0.72 0.246 1.168 0.476 2.287 1.392 6.775 3.152 15.579 0.112 0.562 0.239 1.1 0.373 1.616 0.04 0.154 0.084 0.3 0.126 0.451 0.1 0.365 0.207 0.721 0.32 1.064 0.051 0.154 0.1 0.3 0.156 0.453 0.1213 0.3413 0.249 0.6713 0.383 0.99 0.049 0.117 0.1 0.236 0.147 0.35 0.183 0.413 0.376 0.81 0.582 1.183l0.01 0.019c0.2198 0.3981 0.4604 0.7843 0.721 1.157l0.025 0.034c0.2309 0.3262 0.4792 0.6397 0.744 0.939 0.042 0.047 0.085 0.093 0.128 0.139 0.2358 0.258 0.4852 0.5034 0.747 0.735 0.042 0.037 0.084 0.076 0.127 0.112 2.0451 1.6637 4.6303 2.5178 7.264 2.4 0.9852 0.0032 1.968-0.1 2.931-0.308 2.3398-9.1651 3.2216-18.642 2.613-28.081z" fill="#fcea2b"/><path d="m41.585 12.831c0.6086 9.4384-0.2729 18.914-2.612 28.078 4.706-1.027 7.576-4.732 8.922-11.46 1.457-7.282 2.511-12.474 3.134-15.431 0.1-0.456 0.18-0.849 0.255-1.187h-9.699z" fill="#f1b31c"/><path d="m31.421 51.333h-3.871v7.167h10.958v-7.167h-7.087z" fill="#fcea2b"/><path d="m43.883 51.333h-5.375v7.167h5.375v-7.167z" fill="#f1b31c"/><circle cx="36.037" cy="24.581" r="4" fill="#f1b31c"/></g><g id="c" fill="none" stroke="#000" stroke-linecap="round" stroke-linejoin="round" stroke-width="2"><path d="m52.537 11.832s0-0.519-3.667 17.814c-1.588 7.942-5.5 12.572-12.833 12.572s-11.245-4.5-12.833-12.443c-3.667-18.333-3.667-17.943-3.667-17.943h33z"/><path d="m23.044 31.479s0.079-0.261-5.421-3.928c-2.528-1.683-5.459-3.9-5.459-6.943s2.5-5.11 5.539-5.11h1.513"/><path d="m48.711 31.766s0.079-0.261 5.579-3.928c2.528-1.683 5.541-3.9 5.541-6.943-0.0146-2.842-2.3303-5.1341-5.1723-5.1196-0.0963 5e-4 -0.1926 0.0037-0.2887 0.0096h-2.154"/><rect x="26.55" y="50.332" width="18.333" height="9.167"/><circle cx="36.037" cy="24.581" r="5"/><line x1="36.037" x2="36.037" y1="50.332" y2="42.218"/></g></svg>
