<?xml version="1.0" encoding="UTF-8"?>
<svg id="a" viewBox="0 0 72 72" xmlns="http://www.w3.org/2000/svg"><g id="b"><ellipse cx="12.031" cy="48" rx="7.0312" ry="7" fill="#9B9B9A"/><ellipse cx="53.031" cy="48" rx="8.0312" ry="7.9951" fill="#9B9B9A"/><path d="m12.115 35.12c-1.1953-0.6806-2-1.1201-2-1.1201s3.7842-6.3921 9-9c4-2 11-3 11-3v3l-6 4 4 3 8-2 7 6s7-3 10-6v-2l14-3-1 3s-22 16-28 16l5 6h-20s0-6-1-8c-0.5361-1.0723-3.9502-3.1689-7-5" fill="#EA5A47"/><polyline points="65.115 30 67.115 32 65.417 33.668 62.875 31.126" fill="#FCEA2B"/><path d="m15 38-3-2s4-5 5-5-2 7-2 7z" fill="#FCEA2B"/><path d="M28.1152,32c0,4.834,4.8848,7.667,8.5518,7.667c3.0644,0,10.1143-4.8565,12.5-5.334 c1.7148-0.3428,1.5273-1.8935,4.083-2.708c1.585-0.5059,10.25-4.5,12.75-4.25c1.6338,0.1636-2.4717,2.251-1.333,1.625 c6.667-3.666-25,14.667-25,14.667L37,44l-7.833-3.666l-5.667-5.5v-5.5L28.1152,32z" fill="#D22F27"/><polygon points="39.5 32.5 42 36 50.5 33 53.115 30 53.115 28" fill="#3F3F3F"/><polygon points="40.15 45.388 45.75 45.969 48.594 45 52.719 42.875 59.625 39.781 59.844 38.469 56 34.949 47.969 40.312 40.275 43.314 38.87 44 39.5 45" fill="#D0CFCE"/></g><g id="c" fill="none" stroke="#000" stroke-miterlimit="10" stroke-width="2"><path d="m15.115 37s3-4 2-5" stroke-linecap="round" stroke-linejoin="round"/><ellipse cx="12.031" cy="48" rx="7.0312" ry="7"/><path d="m15.115 37c3.0498 1.8311 6.4639 3.9277 7 5 1 2 1 9 1 9h20s-0.4863-6.0371-12.281-10c-1.9756-0.6631-11.495-7.2236-6.7188-12" stroke-linecap="round" stroke-linejoin="round"/><path d="m12.115 35.12c-1.1953-0.6806-2-1.1201-2-1.1201s3.7842-6.3921 9-9c4-2 11-3 11-3v3l-6 4 4 3s6.7149-3.6279 10-1c1.875 1.5 4 5 4 5s8-2 11-5v-3l14-3-1 3s-22.49 16.167-28.49 16.167" stroke-linecap="round" stroke-linejoin="round"/><path d="m15.115 37s3-4 2-5" stroke-linecap="round" stroke-linejoin="round"/><line x1="18.115" x2="12.031" y1="40" y2="48" stroke-linecap="round" stroke-linejoin="round"/><polyline points="65.115 30 67.115 32 66.115 33" stroke-linecap="round" stroke-linejoin="round"/><polyline points="59 39 48.115 45 46 45" stroke-linecap="round" stroke-linejoin="round"/><path d="m53.115 28c-5.2802 2.8496-10.282 4-14 4" stroke-linecap="round" stroke-linejoin="round"/><path d="m46.267 49.916c0.8379 2.9346 3.5498 5.084 6.7647 5.084 3.8828 0 7.0312-3.1338 7.0312-7 0-1.6602-0.5801-3.1846-1.5508-4.3848" stroke-linecap="round"/></g></svg>
