<svg xmlns="http://www.w3.org/2000/svg" id="a" version="1.1" viewBox="0 0 72 72"><g id="b" fill="#debb90"><circle cx="26.969" cy="15.094" r="3"/><path d="m38.5 22c2.5 9 5.7383 17.08 5.7383 17.08l-3.9649 3.5351-2.2412 13.511-4.0322-1.126 0.5117-15.364-0.6113-0.2353-5.3945 0.0801-5.5059 8.5195-4-1 4.1113-11.591 7.7041-2.4092-1.3154-4-1.5-1h-1s-2.333 0.875-9.333 12.875c-1.5918 2.7295-3.209 0.833-3.209 0.833 0.334-0.75 11.542-17.708 11.542-17.708l11-5h19s0 3-3 3h-13c-2 0 0 2 0 2"/></g><g id="c" fill="none" stroke="#000" stroke-miterlimit="10" stroke-width="2"><circle cx="26.969" cy="15.094" r="3"/><path stroke-linecap="round" stroke-linejoin="round" d="m15 41 6.5195-11.409c1.3643-2.3872 3.8301-5.2969 5.4805-6.4658s4.3496-2.5752 6-3.125 5.25-1 8-1h3 8s3 0 3 0"/><path stroke-linecap="round" stroke-linejoin="round" d="m38.5 23 3.625 8.0625c1.4648 3.2578 1.6533 4.9502 1.6533 4.9502 0.1221 1.0928-0.3437 2.6875-1.0351 3.543l-1.2129 1.5039c-0.6914 0.8554-1.4043 2.4433-1.584 3.5283l-1.5869 9.5654c-0.1797 1.085-1.1944 1.7305-2.2539 1.4346l-0.1787-0.0498c-1.0596-0.2959-1.8965-1.4375-1.8604-2.5371l0.3789-11.366c0.0361-1.0996-0.0713-2.0518-0.2392-2.1172-0.168-0.0645-1.2061-0.1035-2.3057-0.0879l-1.3945 0.0215c-1.0996 0.0156-2.4883 0.7851-3.086 1.709l-3.334 5.1601c-0.5976 0.9238-1.9589 1.461-3.0263 1.1943l-0.1192-0.0292c-1.0674-0.2666-1.6396-1.334-1.2715-2.3702l2.7735-7.8213c0.3681-1.0361 1.5283-2.1533 2.5781-2.4814l3.8858-1.2158c1.0498-0.3281 1.6279-1.4512 1.2841-2.4971l-0.0654-0.1992c-0.3437-1.0459-0.9629-2.1255-1.375-2.4004s-0.75-0.5-0.75-0.5"/><path stroke-linecap="round" stroke-linejoin="round" d="m45 64h-1s-2.1699-0.6738-3.5996-1.4971l-27.801-16.006c-1.4297-0.8233-2.8242-1.9473-3.0996-2.4971s-0.5-1-0.5-1"/></g></svg>