<?xml version="1.0" encoding="UTF-8"?>
<svg id="a" version="1.1" viewBox="0 0 72 72" xmlns="http://www.w3.org/2000/svg"><g id="b"><rect x="18.5" y="31.5" width="35" height="25" fill="#fff"/><polygon points="28.5 22.059 23.5 26.765 23.5 17 28.5 17" fill="#EA5A47"/><rect x="25.5" y="40" width="9" height="16" fill="#A57939"/><polygon points="37.45 40.38 24.26 53.57 21.34 50.66 25.5 46.5 32 40 34.53 37.47" fill="#6A462F"/><polygon points="48 47 42.792 47 40 47 40 40 42 40 48 40" fill="#9B9B9A"/><polygon points="42.792 47 46 43 43 42 42 40 48 40 48 47" fill="#92D3F5"/><polygon points="36 15 19 31 19 32 53 32 53 31 47 26 40 27 32 28 34 24 32 22 38.6 17.6" fill="#EA5A47"/></g><g id="c" fill="none" stroke="#000" stroke-linecap="round" stroke-linejoin="round" stroke-miterlimit="10" stroke-width="2"><polygon points="28.5 22.059 23.5 26.765 23.5 17 28.5 17"/><polygon points="32 40 25.5 46.5 25.5 40"/><polygon points="34.5 43.33 34.5 56 25.5 56 25.5 52.33"/><polygon points="48 47 42.792 47 40 47 40 40 42 40 48 40"/><rect transform="matrix(.7071 -.7071 .7071 .7071 -23.576 34.118)" x="20.068" y="43.457" width="18.656" height="4.122"/><polygon points="42.792 47 46 43 43 42 42 40 48 40 48 47"/><line x1="42" x2="42" y1="22" y2="26"/><line x1="45" x2="45" y1="25" y2="26"/><line x1="39" x2="39" y1="19" y2="26"/><polyline points="40 19 36 15 19 31 19 32 53 32 53 31 47 26 40 27 32 28 34 24 32 22 38.6 17.6"/><line x1="36" x2="36" y1="20" y2="27"/><rect x="19" y="32" width="34" height="24"/></g></svg>
