<?xml version="1.0" encoding="UTF-8"?>
<svg id="a" viewBox="0 0 72 72" xmlns="http://www.w3.org/2000/svg"><g id="b"><rect x="14.5" y="41.5" width="23" height="16" fill="#fff"/><rect x="33.61" y="26.9" width="23" height="16" fill="#fff"/><rect x="48.5" y="32" width="5" height="4" fill="#92D3F5" stroke-linecap="round" stroke-linejoin="round" stroke-miterlimit="10" stroke-width="2"/><polygon points="57.5 27 34.5 27 34.5 25.537 46 15 57.5 25.537" fill="#EA5A47" stroke-linecap="round" stroke-linejoin="round" stroke-miterlimit="10" stroke-width="2"/><polygon points="21 34.581 17 38.246 17 32 21 32" fill="#EA5A47" stroke-linecap="round" stroke-linejoin="round" stroke-miterlimit="10" stroke-width="2"/><polygon points="41 19.581 37 23.246 37 17 41 17" fill="#EA5A47" stroke-linecap="round" stroke-linejoin="round" stroke-miterlimit="10" stroke-width="2"/><rect x="38" y="33" width="8" height="9.9915" fill="#A57939"/><rect x="19" y="47" width="6" height="10" fill="#A57939" stroke-linecap="round" stroke-linejoin="round" stroke-miterlimit="10" stroke-width="2"/><rect x="28.5" y="47" width="5" height="4" fill="#92D3F5" stroke-linecap="round" stroke-linejoin="round" stroke-miterlimit="10" stroke-width="2"/><polygon points="37.5 42 14.5 42 14.5 40.537 26 30 37.5 40.537" fill="#EA5A47" stroke-linecap="round" stroke-linejoin="round" stroke-miterlimit="10" stroke-width="2"/></g><g id="c" fill="none" stroke="#000" stroke-linecap="round" stroke-linejoin="round" stroke-miterlimit="10" stroke-width="2"><rect x="48.5" y="32" width="5" height="4"/><polygon points="57.5 27 34.5 27 34.5 25.537 46 15 57.5 25.537"/><polygon points="21 34.581 17 38.246 17 32 21 32"/><polygon points="41 19.581 37 23.246 37 17 41 17"/><polyline points="34.5 33 34.5 27 34.5 25.537 46 15 57.5 25.537 57.5 27 57.5 42 41.5 42"/><polyline points="45 42 45 32 39 32 39 36.088"/><rect x="19" y="47" width="6" height="10"/><rect x="28.5" y="47" width="5" height="4"/><polygon points="37.5 42 14.5 42 14.5 40.537 26 30 37.5 40.537"/><rect x="14.5" y="42" width="23" height="15"/></g></svg>
