<svg xmlns="http://www.w3.org/2000/svg" id="a" viewBox="0 0 72 72"><g id="b"><path fill="#a57939" d="m14.084 33 31.461 16.869s-8.6284 3.6312-19.295-1.1188c1e-4 0-8.9166-5.4167-12.166-15.75z"/><path fill="#EA5A47" d="m50.111 48.322c-0.1236 0.1086-0.2469 0.217-0.3769 0.3162-4.8051 3.6711-12.103 3.2038-18.646 1.6809l-0.0783-0.0091s-1.1392-0.1871-1.6246 0.8975l-6.9608-3.7043c0.6236-1.0115-0.113-1.7932-0.113-1.7932l-0.0365-0.0382c-7.2736-6.6788-10.967-14.912-5.7359-24.8 6.0984-11.527 17.952-21.789 32.023-14.344 11.301 5.9789 13.398 16.737 10.585 26.429 1e-4 0-2.4914 9.6105-9.0367 15.365z"/><line x1="45.545" x2="14.453" y1="49.869" y2="33.419" fill="#EA5A47"/><path fill="#A57939" d="m21.839 70.169 4.099-8.886 7.7953-17.663-6.5343-3.4572-10.238 16.371-4.6434 7.3673c-0.2881 0.4836-0.2898 0.7463-0.2181 1.1494 0.0742 0.4167 0.4308 0.8499 0.9015 1.2571 0 0 1.3685 1.4157 4.1297 2.6315 0 1e-4 4.002 1.8732 4.7079 1.23z"/><circle cx="54.822" cy="40.881" r="5" fill="#fff" stroke-linecap="round" stroke-linejoin="round" stroke-miterlimit="10" stroke-width="2"/></g><g id="c" fill="none" stroke="#000" stroke-linecap="round" stroke-linejoin="round" stroke-miterlimit="10" stroke-width="2"><path d="m29.386 51.208c0.4854-1.0846 1.6246-0.8975 1.6246-0.8975l0.0783 0.0091c6.7209 1.5643 13.048 1.2476 18.032-2.4671"/><path d="m22.425 47.504c0.6236-1.0115-0.113-1.7932-0.113-1.7932l-0.0365-0.0382c-7.2736-6.6788-10.967-14.912-5.7359-24.8 6.0985-11.527 17.953-21.789 32.023-14.344 11.301 5.9789 12.478 16.317 9.6649 26.009"/><line x1="45.545" x2="14.453" y1="49.869" y2="33.419"/><path d="m21.352 69.316 3.9927-9.0477 7.6176-17.057-5.9312-3.138-9.8345 15.884-4.4591 7.1491c-0.2774 0.4689-0.2854 0.7197-0.2294 1.1028 0.0579 0.396 0.3755 0.8007 0.7988 1.1777 0 0 1.6564 1.5208 4.1689 2.6128"/><circle cx="54.822" cy="40.881" r="5"/></g></svg>