<svg xmlns="http://www.w3.org/2000/svg" id="a" viewBox="0 0 72 72"><g id="b"><path fill="#a57939" d="m28.017 62.715c-2.6148 4.3359-8.2494 5.7311-12.585 3.1163s-5.7311-8.2494-3.1163-12.585l-0.0479 0.0795c1.3431-2.2271 4.2373-2.9438 6.4644-1.6007s2.9438 4.2373 1.6007 6.4644c-0.5394 0.8945-0.2516 2.057 0.6429 2.5964s2.057 0.2516 2.5964-0.6429l0.0104-0.0168 32.73-54.284c0.5834-0.9674 1.8521-1.2815 2.8195-0.6981l0.8794 0.5304c0.9674 0.5834 1.2815 1.8521 0.6981 2.8195l-32.732 54.288 0.0402-0.0667z"/><path fill="#6A462F" d="m15.604 51.846c2.2271 1.3431 2.9438 4.2373 1.6006 6.4644-0.5394 0.8945-0.2516 2.057 0.6429 2.5964 0.8869 0.5349 2.0356 0.2546 2.5808-0.6221-0.4382-0.597-0.5021-1.4224-0.0957-2.0963 1.3431-2.2271 0.6264-5.1214-1.6007-6.4645-1.3087-0.7892-2.8417-0.85-4.161-0.3283 0.3536 0.1105 0.7018 0.2506 1.0331 0.4504z"/><path fill="#6A462F" d="m60.011 5.6742-0.4397-0.2651-0.0349-0.021-34.688 57.515 0.0402-0.0667c-1.3668 2.2665-3.5609 3.72-5.9612 4.2267 3.5151 0.4774 7.1403-1.1175 9.0889-4.3481l33.427-53.487c0.5834-0.9674-0.4652-2.9705-1.4325-3.5539z"/><circle cx="52.246" cy="60.869" r="5" fill="#EA5A47"/><path fill="#D22F27" d="m54.936 56.659c0.4978 0.7773 0.7901 1.699 0.7901 2.6905 0 2.7614-2.2386 5-5 5-0.9916 0-1.9132-0.2923-2.6905-0.7902 0.8886 1.3874 2.44 2.3094 4.2099 2.3094 2.7614 0 5-2.2386 5-5-1e-4 -1.7697-0.9221-3.3212-2.3095-4.2097z"/></g><g id="c" fill="none" stroke="#000" stroke-linecap="round" stroke-linejoin="round" stroke-miterlimit="10" stroke-width="2"><circle cx="52.246" cy="60.869" r="5"/><path d="m58.208 12.52-30.191 50.194c-2.6148 4.3359-8.2494 5.7311-12.585 3.1163s-5.7311-8.2494-3.1163-12.585l-0.0479 0.0795c1.3431-2.2271 4.2373-2.9438 6.4644-1.6007s2.9438 4.2373 1.6007 6.4644c-0.5394 0.8945-0.2516 2.057 0.6429 2.5964s2.057 0.2516 2.5964-0.6429l0.0104-0.0168 32.73-54.284c0.5834-0.9674 1.8521-1.2815 2.8195-0.6981l0.8794 0.5304c0.9674 0.5834 1.2815 1.8521 0.6981 2.8195l-0.385 0.6385"/></g></svg>