<?xml version="1.0" encoding="UTF-8"?>
<svg id="a" version="1.1" viewBox="0 0 72 72" xmlns="http://www.w3.org/2000/svg"><g id="b"><polygon points="58 25.833 12 27 12 20 58 21.167" fill="#FCEA2B"/><polygon points="28 59 18 59 20 13 26 13" fill="#FCEA2B"/><rect x="40.5" y="37" width="19" height="4" fill="#D0CFCE"/></g><g id="c" fill="none" stroke="#000" stroke-linecap="round" stroke-linejoin="round" stroke-miterlimit="10" stroke-width="2"><polygon points="58 25.833 12 27 12 20 58 21.167"/><polygon points="28 59 18 59 20 13 26 13"/><line x1="19" x2="27" y1="50" y2="50"/><line x1="19" x2="27" y1="41" y2="41"/><line x1="19.5" x2="26.5" y1="34" y2="34"/><line x1="34" x2="34" y1="26" y2="21"/><line x1="42" x2="42" y1="26" y2="21"/><line x1="50" x2="50" y1="37" y2="21"/><rect x="40.5" y="37" width="19" height="4"/><polygon points="58 25.833 12 27 12 20 58 21.167"/></g></svg>
