<svg xmlns="http://www.w3.org/2000/svg" id="a" version="1.1" viewBox="0 0 72 72"><g id="b"><polyline fill="#FCEA2B" stroke="#FCEA2B" stroke-linecap="round" stroke-linejoin="round" stroke-miterlimit="10" stroke-width="2" points="27 35 12.5 60 41.5 60 27 35"/><polyline fill="#F1B31C" stroke="#F1B31C" stroke-linecap="round" stroke-linejoin="round" stroke-miterlimit="10" stroke-width="2" points="27 35 27 60 12.5 60 27 35"/><path fill="#B1CC33" d="m66.5 32.616c0-3.5438-3.6409-6.422-8.1319-6.422-0.3752 0.0031-0.75 0.0268-1.1227 0.0708-1.9021-3.6968-6.0317-6.2646-10.834-6.2646-6.6037 0-11.957 4.845-11.957 10.821 0.0012 0.395 0.026 0.7896 0.0743 1.1815-2.9518 0.9632-5.0293 3.2567-5.0293 5.9351 0 3.5437 3.6409 6.422 8.1319 6.422 1.7071 0.0148 3.3882-0.4304 4.8765-1.2914 1.9213 1.5798 4.9956 2.6089 8.472 2.6089 5.8244 0 10.546-2.8754 10.546-6.4219-1e-3 -0.2345-0.0226-0.4684-0.0647-0.6989 2.9559-0.9646 5.0383-3.2595 5.0383-5.9407z"/><path fill="#8967AA" d="m27 54c-1 0-3 1-5 1-2.7614 0-5 2.2386-5 5h10v-6z"/></g><g id="c" fill="none" stroke="#000" stroke-linecap="round" stroke-width="2"><polyline stroke-linejoin="round" points="46.94 60 46.94 52.326 41.655 47.161"/><line x1="47.512" x2="50.518" y1="52.218" y2="49.05" stroke-linejoin="round"/><polyline stroke-linejoin="round" stroke-miterlimit="10" points="27 35 12.5 60 41.5 60 34.566 48.044"/><line x1="27" x2="27" y1="60" y2="44.25" stroke-linejoin="round" stroke-miterlimit="10"/><line x1="27" x2="27" y1="44.25" y2="60" stroke-linejoin="round" stroke-miterlimit="10"/><path stroke-miterlimit="10" d="m66.5 32.616c0-3.5438-3.6409-6.422-8.1319-6.422-0.3752 0.0031-0.75 0.0268-1.1227 0.0708-1.9021-3.6968-6.0317-6.2646-10.834-6.2646-6.6037 0-11.957 4.845-11.957 10.821 0.0012 0.395 0.026 0.7896 0.0743 1.1815-2.9518 0.9632-5.0293 3.2567-5.0293 5.9351 0 3.5437 3.6409 6.422 8.1319 6.422 1.7071 0.0148 3.3882-0.4304 4.8765-1.2914 1.9213 1.5798 4.9956 2.6089 8.472 2.6089 5.8244 0 10.546-2.8754 10.546-6.4219-1e-3 -0.2345-0.0226-0.4684-0.0647-0.6989 2.9559-0.9646 5.0383-3.2595 5.0383-5.9407z"/><path stroke-linejoin="round" stroke-miterlimit="10" d="m27 54c-1 0-3 1-5 1-2.7614 0-5 2.2386-5 5h10v-6z"/></g></svg>