<svg xmlns="http://www.w3.org/2000/svg" id="a" version="1.1" viewBox="0 0 72 72"><g id="b"><polygon fill="#D0CFCE" points="66 34 62 49 10 49 6 34"/><path fill="#D0CFCE" d="m66 34c0-10.493-19.507-8-30-8s-30-2.4934-30 8h60z"/><path fill="#D0CFCE" d="m14 31c0-10.493 15.704-6 22-6s22-4.4934 22 6h-44z"/><path fill="#D0CFCE" d="m25 33.573c0-18.382 8.4816-9.1724 11-9.1724s12-9.2099 12 9.1724h-23z"/><path fill="#92D3F5" d="m41 49c0-10.493-2.9013-12-5-12s-5 1.5066-5 12h10z"/></g><g id="c" fill="none" stroke="#000" stroke-linecap="round" stroke-linejoin="round" stroke-miterlimit="10" stroke-width="2"><path d="m66 34-4 15h-21c0-10.49-2.9-12-5-12s-5 1.51-5 12h-21l-4-15c0-4.88 4.23-6.95 9.81-7.78 2.31-2.16 6.51-2.36 10.68-2.08 2.55-4.75 7.65 0.26 9.51 0.26 1.85 0 7.47-4.98 10.32-0.31 3.9-0.19 7.71 0.11 9.87 2.13 5.58 0.8299 9.81 2.9 9.81 7.78z"/><line x1="41" x2="31" y1="49" y2="49"/><path d="m58 31c0-2.18-0.68-3.71-1.81-4.78"/><path d="m15.81 26.22c-1.13 1.07-1.81 2.6-1.81 4.78"/><path d="m48 33.57c0-3.54-0.35-6.06-0.94-7.82l-0.74-1.66"/><path d="m26.49 24.14-0.64 1.61c-0.53 1.76-0.85 4.28-0.85 7.82"/><path d="m13 49v-6c0-0.55 0.45-1 1-1"/><path d="m19 49v-6c0-0.55 0.45-1 1-1"/><path d="m25 49v-6c0-0.55 0.45-1 1-1"/><path d="m57 49v-6c0-0.55 0.45-1 1-1"/><path d="m51 49v-6c0-0.55 0.45-1 1-1"/><path d="m45 49v-6c0-0.55 0.45-1 1-1"/><path d="m41 49h-10c0-10.49 2.9-12 5-12s5 1.51 5 12z"/></g></svg>