<svg xmlns="http://www.w3.org/2000/svg" id="a" viewBox="0 0 72 72"><g id="b"><circle cx="35.988" cy="35.958" r="29" fill="#D0CFCE"/><path fill="#9B9B9A" d="m50.738 10.998c4.8254 5.1792 7.7822 12.122 7.7822 19.76 0 16.016-12.984 29-29 29-5.3519 0-10.361-1.4558-14.665-3.9839 5.2892 5.6453 12.798 9.1841 21.144 9.1841 16.016 0 29-12.984 29-29 0-10.631-5.7308-19.911-14.262-24.96z"/></g><g id="c" fill="none" stroke="#000" stroke-linecap="round" stroke-linejoin="round" stroke-miterlimit="10" stroke-width="2"><path d="m36 35.958c0 10.722-5.6044 19.99-14.292 24.999"/><path d="m36 35.958c-8.9994-5.878-13.667-15.712-13.11-25.725"/><path d="m35.993 35.951c9.1533-5.6353 20.08-5.5746 28.9-0.8024"/><path d="m33.081 48.914c9.1533-5.6353 20.21-5.5746 29.03-0.8024"/><path d="m22.93 60.694c9.8471-6.0624 21.36-6.6171 30.281-2.4044"/><path d="m26.813 26.563c0.0229 10.749-5.8045 19.897-14.482 24.924"/><path d="m22.26 11.289c0.0258 12.098-5.7717 22.67-14.406 28.326"/><path d="m49.31 31.635c-9.6212-4.7929-15.412-14.211-16.022-24.221"/><path d="m64.332 33.868c-10.828-5.3943-17.686-14.906-18.876-25.159"/><circle cx="35.988" cy="35.958" r="29"/></g></svg>