<?xml version="1.0" encoding="UTF-8"?>
<svg id="a" viewBox="0 0 72 72" xmlns="http://www.w3.org/2000/svg"><g id="b"><path d="m65.49 62.028v3.6853c0 1.0376-4.2382 1.8788-9.4662 1.8788s-9.4662-0.8412-9.4662-1.8788v-3.6853" fill="#9B9B9A"/><ellipse cx="56.024" cy="61.636" rx="9.4662" ry="1.8788" fill="#D0CFCE"/><path d="m33.194 56.778c-0.4812 0.7463-1.3198 1.2404-2.2739 1.2404h0.0211-23.885c-1.6851 0-3.0639 1.3788-3.0639 3.0639v2.5609c0 1.6852 1.3788 3.0639 3.0639 3.0639h24.297c1.1031 0 2.0849-0.5854 2.6246-1.4662l33.803-57.33c0.5557-0.9425 0.2392-2.1682-0.7033-2.7239l-0.4284-0.2525-0.4284-0.2526c-0.9424-0.5557-2.1682-0.2392-2.7239 0.7033l-30.303 51.392z" fill="#A57939"/><path d="m67.078 5.191-0.3991-0.2353-33.355 56.516c-0.5397 0.8809-1.5214 1.4662-2.6246 1.4662h-27.361v1.765c0 1.6852 2.0335 2.0082 3.7186 2.0082h24.297c1.1031 0 2.0848-0.5854 2.6246-1.4662l31.998-52.292 2.5308-4.3117c0.5557-0.9426-0.4872-2.8947-1.4297-3.4503z" fill="#6A462F"/></g><g id="c" fill="none" stroke="#000" stroke-linecap="round" stroke-linejoin="round" stroke-miterlimit="10"><path d="m67.275 8.7696 0.5061-0.8583c0.5557-0.9425 0.2392-2.1682-0.7033-2.7239l-0.4284-0.2525-0.4284-0.2526c-0.9424-0.5557-2.1682-0.2392-2.7239 0.7033l-30.303 51.392c-0.4812 0.7463-1.3198 1.2404-2.2739 1.2404h0.0211-23.885c-1.6851 0-3.0639 1.3788-3.0639 3.0639v2.5609c0 1.6852 1.3788 3.0639 3.0639 3.0639h24.297c1.1031 0 2.0849-0.5854 2.6246-1.4662l31.269-53.032" stroke-width="2"/><path d="m65.49 61.626v3.9515c0 1.1126-4.2382 2.0145-9.4662 2.0145s-9.4662-0.9019-9.4662-2.0145v-3.9515" stroke-width="1.9"/><ellipse cx="56.024" cy="61.636" rx="9.4662" ry="1.8788" stroke-width="1.9"/></g></svg>
