<svg xmlns="http://www.w3.org/2000/svg" id="a" version="1.1" viewBox="0 0 72 72"><g id="b"><path fill="#3F3F3F" d="m53 46s-0.8-10.9-1.1-11.5-1-2.1-1.3-2.5l-1.8-3-5.5-4.1-3.9 4.9-0.8 2.2 3.4 2"/><path fill="#9B9B9A" d="m22.2 29.8h8.5l10.3 2.7 9 6.5 3.4 9.1 6.6 7.9h-48l4-7 2-12c0.5-3 4.2-7.2 4.2-7.2z"/><path fill="#fff" d="m29 31s-0.8 0.7-1.3 0.9c-1.7 1.1-1.9 2.9-2.7 3.1-1.3 0.4-0.9-2.7-3-3-2-0.3-2.1 1.5-3 1-1.2-0.7-0.2-4.4 0-5 0.3-1.1 1.2-2.7 3-6 1.6-2.8 1.7-3.1 2-4 0.4-1.6 0.3-1.6 1-2 0.9-0.5 2.3 0.3 3 1 1 1 0.4 0.7 2 2 1.3 1 1.5 0.8 3 2 0.3 0.2 1.1 0.9 2 2 0.6 0.7 1.4 1.6 2 3 0.7 1.5 0.4 1.7 1 3 0.9 1.9 2.2 2.6 2 3-0.3 0.5-2.7-1-4 0-0.4 0.3-0.3 0.6-1 2-0.8 1.7-1.2 3.6-2 4-1.2 0.6-3-0.9-4-2-1.6-1.8 0-5 0-5z"/><path fill="#fff" d="m44 23c0.8-0.8 1.9 1.3 3 3 0.9 1.4 2.4 3.2 2 4-0.5 1-3 0.4-4 0-0.3-0.2-0.4-0.3-1-1-1.3-1.5-1.7-1.4-2-2-0.6-1.3 1-3 2-4z"/></g><g id="c" fill="none" stroke="#000" stroke-linecap="round" stroke-linejoin="round" stroke-miterlimit="10" stroke-width="2"><polyline points="60 55 53.4 48.1 50 39"/><polyline points="19.4 33.1 18 37 16 49 12 55"/><polyline points="40 32 50 39 49 45 50 50 48 52 45 55"/><line x1="48.7" x2="51" y1="30.3" y2="35"/><line x1="41.2" x2="42.4" y1="29" y2="27.5"/><path d="m29 31s-0.8 0.7-1.3 0.9c-1.7 1.1-1.9 2.9-2.7 3.1-1.3 0.4-0.9-2.7-3-3-2-0.3-2.1 1.5-3 1-1.2-0.7-0.2-4.4 0-5 0.3-1.1 1.2-2.7 3-6 1.6-2.8 1.7-3.1 2-4 0.4-1.6 0.3-1.6 1-2 0.9-0.5 2.3 0.3 3 1 1 1 0.4 0.7 2 2 1.3 1 1.5 0.8 3 2 0.3 0.2 1.1 0.9 2 2 0.6 0.7 1.4 1.6 2 3 0.7 1.5 0.4 1.7 1 3 0.9 1.9 2.2 2.6 2 3-0.3 0.5-2.7-1-4 0-0.4 0.3-0.3 0.6-1 2-0.8 1.7-1.2 3.6-2 4-1.2 0.6-3-0.9-4-2-1.6-1.8 0-5 0-5z"/><path d="m44 23c0.8-0.8 1.9 1.3 3 3 0.9 1.4 2.4 3.2 2 4-0.5 1-3 0.4-4 0-0.3-0.2-0.4-0.3-1-1-1.3-1.5-1.7-1.4-2-2-0.6-1.3 1-3 2-4z"/></g></svg>