<svg xmlns="http://www.w3.org/2000/svg" id="a" viewBox="0 0 72 72"><g id="b"><rect width="34.92" height="25.95" x="18.54" y="26" fill="#9b9b9a"/><rect width="48" height="4" x="12" y="56" fill="#fff" stroke-miterlimit="10"/><rect width="43.74" height="4" x="14.13" y="22" fill="#fff" stroke-miterlimit="10"/><rect width="40.55" height="4" x="15.72" y="52" fill="#fff" stroke-miterlimit="10"/><rect width="4" height="26" x="18.5" y="26" fill="#fff" stroke-miterlimit="10"/><rect width="4" height="26" x="27.35" y="26.15" fill="#fff" stroke-miterlimit="10"/><rect width="3.941" height="26" x="49.52" y="25.95" fill="#fff" stroke-miterlimit="10"/><polygon fill="#fff" stroke-linecap="round" stroke-linejoin="round" stroke-miterlimit="10" stroke-width="2" points="36 12 19 21.75 53 21.75"/><rect width="4" height="26" x="40.35" y="26.15" fill="#fff" stroke-miterlimit="10"/></g><g id="c" fill="none" stroke="#000" stroke-linecap="round" stroke-linejoin="round" stroke-miterlimit="10"><rect width="48.01" height="3.993" x="11.99" y="55.89" stroke-width="2"/><rect width="43.65" height="3.999" x="14.18" y="21.76" stroke-width="2.001"/><rect width="41.47" height="3.993" x="15.27" y="51.76" stroke-width="2"/><rect width="4.298" height="26.3" x="18.35" y="25.61" stroke-width="1.702"/><rect width="4.298" height="26.3" x="27.35" y="25.61" stroke-width="1.702"/><rect width="4.298" height="26.3" x="49.35" y="25.61" stroke-width="1.702"/><polygon stroke-width="1.916" points="36 12 19 21.75 53 21.75" transform="matrix(1.091 0 0 .9982 -3.283 .098)"/><rect width="4.298" height="26.3" x="40.35" y="25.61" stroke-width="1.702"/></g></svg>