<?xml version="1.0" encoding="UTF-8"?>
<svg id="a" viewBox="0 0 72 72" xmlns="http://www.w3.org/2000/svg"><g id="b"><rect x="19.125" y="9.871" width="32.737" height="52.264" rx="11" fill="#ea5a47"/><g fill="#d22f27"><path d="m46.414 10.743-6.1863-0.8719c7.6518 1.92 6.6782 13.537 6.7861 15.785 1.7573 36.601-12.681 36.635-13.409 36.678l9.4057-0.3342h0.0607a9.1128 9.1128 0 0 0 8.9287-9.0127v-33.515s-0.6148-5.8198-5.5859-8.7298z"/><path d="m33.604 62.41-0.05 0.0013s0.018 6e-4 0.05-0.0013z"/></g><rect x="29.35" y="18.332" width="12.286" height="35.618" rx="2" fill="#fff"/><polyline points="26.84 8.018 26.84 4.972 44.146 4.972 44.146 8.018" fill="#3f3f3f"/><polyline points="44.146 64.184 44.146 67.05 26.84 67.05 26.84 64.184" fill="#3f3f3f"/></g><g id="c" fill="none" stroke="#000" stroke-linecap="round" stroke-linejoin="round"><polyline points="26.84 7.481 26.84 4.972 44.146 4.972 44.146 7.481" stroke-width="2"/><polyline points="44.146 64.657 44.146 67.05 26.84 67.05 26.84 64.657" stroke-width="2"/><rect x="19.125" y="9.871" width="32.737" height="52.264" rx="11" stroke-width="2"/><g stroke-width="1.5"><rect x="31.34" y="31.689" width="8.3074" height="8.9339"/><rect x="31.34" y="42.539" width="8.3074" height="8.9339"/><rect x="31.34" y="20.84" width="8.3074" height="8.9339"/></g></g></svg>
