<?xml version="1.0" encoding="UTF-8"?>
<svg id="a" viewBox="0 0 72 72" xmlns="http://www.w3.org/2000/svg"><g id="b"><rect x="19" y="32" width="34" height="24" fill="#fff"/><rect x="25" y="40" width="9" height="16" fill="#A57939" stroke-linecap="round" stroke-linejoin="round" stroke-miterlimit="10" stroke-width="2"/><rect x="40" y="40" width="8" height="7" fill="#92D3F5" stroke-linecap="round" stroke-linejoin="round" stroke-miterlimit="10" stroke-width="2"/><polygon points="53 32 19 32 19 31 35 15 53 31" fill="#EA5A47" stroke-linecap="round" stroke-linejoin="round" stroke-miterlimit="10" stroke-width="2"/><polygon points="29 21 24 26 24 17 29 17" fill="#EA5A47" stroke-linecap="round" stroke-linejoin="round" stroke-miterlimit="10" stroke-width="2"/></g><g id="c" fill="none" stroke="#000" stroke-linecap="round" stroke-linejoin="round" stroke-miterlimit="10" stroke-width="2"><rect x="25" y="40" width="9" height="16"/><rect x="40" y="40" width="8" height="7"/><polygon points="53 32 19 32 19 31 35 15 53 31"/><rect x="19" y="32" width="34" height="24"/><polygon points="29 21 24 26 24 17 29 17"/></g></svg>
