<svg xmlns="http://www.w3.org/2000/svg" id="a" viewBox="0 0 72 72"><g id="b"><polygon fill="#d0cfce" points="9.356 56.506 62.644 56.506 62.644 23.564 45.282 23.564 45.282 20.658 26.718 20.658 26.718 23.564 9.356 23.564"/><rect width="10.751" height="12.746" x="30.625" y="39.995" fill="#a57939"/><circle cx="36" cy="30.242" r="6.298" fill="#fff"/><rect width="1.938" height="4.035" x="20.498" y="46.817" fill="none" stroke="#92d3f5" stroke-linecap="round" stroke-linejoin="round" stroke-width="2"/><rect width="1.938" height="4.035" x="13.716" y="46.817" fill="none" stroke="#92d3f5" stroke-linecap="round" stroke-linejoin="round" stroke-width="2"/><rect width="1.938" height="4.844" x="20.498" y="37.128" fill="none" stroke="#92d3f5" stroke-linecap="round" stroke-linejoin="round" stroke-width="2"/><rect width="1.938" height="4.844" x="13.716" y="37.128" fill="none" stroke="#92d3f5" stroke-linecap="round" stroke-linejoin="round" stroke-width="2"/><rect width="1.938" height="4.844" x="20.498" y="27.44" fill="none" stroke="#92d3f5" stroke-linecap="round" stroke-linejoin="round" stroke-width="2"/><rect width="1.938" height="4.844" x="13.716" y="27.44" fill="none" stroke="#92d3f5" stroke-linecap="round" stroke-linejoin="round" stroke-width="2"/><rect width="1.938" height="4.035" x="56.346" y="46.817" fill="none" stroke="#92d3f5" stroke-linecap="round" stroke-linejoin="round" stroke-width="2"/><rect width="1.938" height="4.035" x="49.564" y="46.817" fill="none" stroke="#92d3f5" stroke-linecap="round" stroke-linejoin="round" stroke-width="2"/><rect width="1.938" height="4.844" x="56.346" y="37.128" fill="none" stroke="#92d3f5" stroke-linecap="round" stroke-linejoin="round" stroke-width="2"/><rect width="1.938" height="4.844" x="49.564" y="37.128" fill="none" stroke="#92d3f5" stroke-linecap="round" stroke-linejoin="round" stroke-width="2"/><rect width="1.938" height="4.844" x="56.346" y="27.44" fill="none" stroke="#92d3f5" stroke-linecap="round" stroke-linejoin="round" stroke-width="2"/><rect width="1.938" height="4.844" x="49.564" y="27.44" fill="none" stroke="#92d3f5" stroke-linecap="round" stroke-linejoin="round" stroke-width="2"/><polygon fill="#d22f27" points="24.8 20.49 26.72 20.49 26.72 23.56 9.36 23.56 13.21 17.42 28.411 17.42"/><polygon fill="#d22f27" points="47.2 20.49 45.284 20.49 45.284 23.56 62.644 23.56 58.794 17.42 43.592 17.42"/><polygon fill="#ea5a47" points="47.2 20.49 24.8 20.49 26.72 18.859 36 10.96"/><rect width="19.522" height="5.653" x="7.196" y="50.852" fill="#b1cc33"/><rect width="19.522" height="5.653" x="45.282" y="50.852" fill="#b1cc33"/></g><g id="c" fill="none" stroke="#000" stroke-linecap="round" stroke-linejoin="round" stroke-width="2"><rect width="18.56" height="36.02" x="26.72" y="20.49"/><polygon points="24.8 20.49 26.72 20.49 26.72 23.56 9.36 23.56 13.21 17.42 28.411 17.42"/><polygon points="47.2 20.49 45.284 20.49 45.284 23.56 62.644 23.56 58.794 17.42 43.592 17.42"/><polygon points="47.2 20.49 24.8 20.49 26.72 18.859 36 10.96"/><path d="M9.7104,50.8525h14.493c1.3887,0,2.5144,1.1257,2.5144,2.5144v3.1387H7.196v-3.1387c0-1.3887,1.1257-2.5144,2.5144-2.5144Z"/><path d="m47.797 50.852h14.493c1.3887 0 2.5144 1.1257 2.5144 2.5144v3.1387h-19.522v-3.1387c0-1.3887 1.1257-2.5144 2.5144-2.5144z"/><line x1="26.718" x2="45.282" y1="52.741" y2="52.741"/><polyline points="9.356 50.852 9.356 23.564 26.718 23.564"/><line x1="62.644" x2="9.356" y1="56.506" y2="56.506"/><polyline points="45.282 23.564 62.644 23.564 62.644 50.852"/><rect width="10.751" height="12.746" x="30.625" y="39.995"/><line x1="36" x2="36" y1="52.741" y2="39.995"/><circle cx="36" cy="30.242" r="6.298"/><line x1="36" x2="36" y1="30.727" y2="26.55"/><line x1="36" x2="38.088" y1="30.727" y2="29.682"/><line x1="20.498" x2="20.498" y1="50.852" y2="46.817"/><line x1="13.716" x2="13.716" y1="50.852" y2="46.817"/><polyline points="22.436 41.973 20.498 41.973 20.498 37.128"/><polyline points="15.654 41.973 13.716 41.973 13.716 37.128"/><polyline points="22.436 32.284 20.498 32.284 20.498 27.44"/><polyline points="15.654 32.284 13.716 32.284 13.716 27.44"/><line x1="56.346" x2="56.346" y1="50.852" y2="46.817"/><line x1="49.564" x2="49.564" y1="50.852" y2="46.817"/><polyline points="58.284 41.973 56.346 41.973 56.346 37.128"/><polyline points="51.502 41.973 49.564 41.973 49.564 37.128"/><polyline points="58.284 32.284 56.346 32.284 56.346 27.44"/><polyline points="51.502 32.284 49.564 32.284 49.564 27.44"/></g></svg>