<svg xmlns="http://www.w3.org/2000/svg" id="a" version="1.1" viewBox="0 0 72 72"><g id="b"><rect width="53" height="17" x="9" y="38" fill="#E27022"/><rect width="10" height="10" x="14" y="45" fill="#92D3F5"/><rect width="10" height="10" x="28" y="45" fill="#92D3F5"/><rect width="10" height="10" x="38" y="45" fill="#92D3F5"/><rect width="10" height="10" x="48" y="45" fill="#92D3F5"/><ellipse cx="19" cy="37" fill="#fff" rx="7" ry="5"/></g><g id="c" fill="none" stroke="#000" stroke-miterlimit="10"><polyline stroke-linecap="round" stroke-linejoin="round" stroke-width="2" points="26 38 62 38 62 55 9 55 9 38 12 38"/><rect width="10" height="10" x="14" y="45" stroke-linecap="round" stroke-linejoin="round" stroke-width="2"/><line x1="19" x2="19" y1="55" y2="45" stroke-linecap="round" stroke-linejoin="round" stroke-width="2"/><rect width="10" height="10" x="28" y="45" stroke-linecap="round" stroke-linejoin="round" stroke-width="2"/><rect width="10" height="10" x="38" y="45" stroke-linecap="round" stroke-linejoin="round" stroke-width="2"/><rect width="10" height="10" x="48" y="45" stroke-linecap="round" stroke-linejoin="round" stroke-width="2"/><ellipse cx="19" cy="37" stroke-width="2" rx="7" ry="5"/><path stroke-linecap="round" stroke-linejoin="round" stroke-width=".857" d="m16.577 35.989c0.0859-0.4199 0.4575-0.7358 0.9028-0.7358v0c0.2544 0 0.4848 0.1032 0.6516 0.2699 0.2594 0.2594 0.2355 0.6905-0.0079 0.9649l-1.5652 1.7652h1.843"/><polyline stroke-linecap="round" stroke-linejoin="round" stroke-width=".857" points="20.778 35.253 19.663 37.774 21.418 37.774"/><line x1="21.129" x2="21.129" y1="36.845" y2="38.253" stroke-linecap="round" stroke-linejoin="round" stroke-width=".857"/></g></svg>