<?xml version="1.0" encoding="UTF-8"?>
<svg id="a" viewBox="0 0 72 72" xmlns="http://www.w3.org/2000/svg"><g id="b" stroke-linecap="round" stroke-linejoin="round" stroke-miterlimit="10" stroke-width="2"><rect x="22.5" y="12" width="27" height="48" fill="#fff"/><rect x="13.5" y="25" width="9" height="35" fill="#fff"/><rect x="49.5" y="25" width="9" height="35" fill="#fff"/><rect x="29.5" y="44" width="13" height="16" fill="#92D3F5"/><polygon points="43.5 23 38.5 23 38.5 18 33.5 18 33.5 23 28.5 23 28.5 28 33.5 28 33.5 33 38.5 33 38.5 28 43.5 28" fill="#EA5A47"/><rect x="17" y="30" width="2" height="5" fill="none" stroke="#92D3F5"/><rect x="17" y="40" width="2" height="5" fill="none" stroke="#92D3F5"/><rect x="17" y="50" width="2" height="5" fill="none" stroke="#92D3F5"/><rect x="53" y="30" width="2" height="5" fill="none" stroke="#92D3F5"/><rect x="53" y="40" width="2" height="5" fill="none" stroke="#92D3F5"/><rect x="53" y="50" width="2" height="5" fill="none" stroke="#92D3F5"/></g><g id="c" fill="none" stroke="#000" stroke-linecap="round" stroke-linejoin="round" stroke-miterlimit="10" stroke-width="2"><rect x="22.5" y="12" width="27" height="48"/><rect x="13.5" y="25" width="9" height="35"/><rect x="49.5" y="25" width="9" height="35"/><rect x="29.5" y="44" width="13" height="16"/><line x1="36" x2="36" y1="60" y2="44"/><polygon points="43.5 23 38.5 23 38.5 18 33.5 18 33.5 23 28.5 23 28.5 28 33.5 28 33.5 33 38.5 33 38.5 28 43.5 28"/><polyline points="19 35 17 35 17 30"/><polyline points="19 45 17 45 17 40"/><polyline points="19 55 17 55 17 50"/><polyline points="55 35 53 35 53 30"/><polyline points="55 45 53 45 53 40"/><polyline points="55 55 53 55 53 50"/></g></svg>
