<?xml version="1.0" encoding="UTF-8"?>
<svg id="a" viewBox="0 0 72 72" xmlns="http://www.w3.org/2000/svg"><g id="b" stroke-linecap="round" stroke-linejoin="round" stroke-width="2"><rect x="22.5" y="10" width="27" height="52" fill="#FFA7C0" stroke-miterlimit="10"/><rect x="27" y="52" width="10" height="10" fill="#92D3F5" stroke-miterlimit="10"/><rect x="35" y="42" width="2" height="5" fill="none" stroke="#92D3F5" stroke-miterlimit="10"/><rect x="43" y="42" width="2" height="5" fill="none" stroke="#92D3F5" stroke-miterlimit="10"/><rect x="43" y="53" width="2" height="5" fill="none" stroke="#92D3F5" stroke-miterlimit="10"/><rect x="27" y="42" width="2" height="5" fill="none" stroke="#92D3F5" stroke-miterlimit="10"/><rect x="35" y="31" width="2" height="5" fill="none" stroke="#92D3F5" stroke-miterlimit="10"/><rect x="43" y="31" width="2" height="5" fill="none" stroke="#92D3F5" stroke-miterlimit="10"/><rect x="27" y="31" width="2" height="5" fill="none" stroke="#92D3F5" stroke-miterlimit="10"/><path d="m36 25.825-4.8692-6.2438-0.1569-0.232c-0.8207-1.3515-0.3904-3.1124 0.9611-3.9331 1.3516-0.8207 3.1125-0.3904 3.9332 0.9611 0.0479 0.0789 0.092 0.1601 0.1321 0.2433 0.6865-1.4244 2.3978-2.0225 3.8222-1.336 1.4243 0.6866 2.0224 2.3979 1.3359 3.8222-0.0761 0.158-0.1666 0.3086-0.2703 0.45l-4.8881 6.2683z" fill="#EA5A47"/></g><g id="c" fill="none" stroke="#000" stroke-linecap="round" stroke-linejoin="round" stroke-width="2"><rect x="22.5" y="10" width="27" height="52" stroke-miterlimit="10"/><rect x="27" y="52" width="10" height="10" stroke-miterlimit="10"/><line x1="32" x2="32" y1="62" y2="52" stroke-miterlimit="10"/><path d="m36 25.825-4.8692-6.2438-0.1569-0.232c-0.8207-1.3515-0.3904-3.1124 0.9611-3.9331 1.3516-0.8207 3.1125-0.3904 3.9332 0.9611 0.0479 0.0789 0.092 0.1601 0.1321 0.2433 0.6865-1.4244 2.3978-2.0225 3.8222-1.336 1.4243 0.6866 2.0224 2.3979 1.3359 3.8222-0.0761 0.158-0.1666 0.3086-0.2703 0.45l-4.8881 6.2683z"/><polyline points="37 36 35 36 35 31" stroke-miterlimit="10"/><polyline points="29 36 27 36 27 31" stroke-miterlimit="10"/><polyline points="45 36 43 36 43 31" stroke-miterlimit="10"/><polyline points="37 47 35 47 35 42" stroke-miterlimit="10"/><polyline points="29 47 27 47 27 42" stroke-miterlimit="10"/><polyline points="45 47 43 47 43 42" stroke-miterlimit="10"/><polyline points="45 58 43 58 43 53" stroke-miterlimit="10"/></g></svg>
