<?xml version="1.0" encoding="UTF-8"?>
<svg id="a" viewBox="0 0 72 72" xmlns="http://www.w3.org/2000/svg"><g id="b" fill="none" stroke="#000" stroke-linecap="round" stroke-linejoin="round" stroke-width="2"><polyline points="20.071 27.98 24.541 18.066 29.01 27.98"/><line x1="21.194" x2="27.759" y1="25.531" y2="25.531"/><line x1="34.556" x2="34.556" y1="18.066" y2="27.98"/><line x1="31.183" x2="37.928" y1="18.066" y2="18.066"/><polyline points="42.575 28.002 42.575 18.044 46.809 26.937 51.278 18.044 51.278 28.002"/></g><g id="c"><rect x="16" y="13.438" width="40" height="45.042" fill="#3f3f3f"/><g fill="none" stroke="#fff" stroke-linecap="round" stroke-linejoin="round" stroke-width="2"><polyline points="20.071 27.98 24.541 18.066 29.01 27.98"/><line x1="21.194" x2="27.759" y1="25.531" y2="25.531"/></g><line x1="34.556" x2="34.556" y1="18.066" y2="27.98" fill="none" stroke="#fff" stroke-linecap="round" stroke-linejoin="round" stroke-width="2"/><line x1="31.183" x2="37.928" y1="18.066" y2="18.066" fill="none" stroke="#fff" stroke-linecap="round" stroke-linejoin="round" stroke-width="2"/><polyline points="42.575 28.002 42.575 18.044 46.809 26.937 51.278 18.044 51.278 28.002" fill="none" stroke="#fff" stroke-linecap="round" stroke-linejoin="round" stroke-width="2"/><rect x="19.426" y="33.638" width="15.126" height="13.887" fill="#d0cfce"/><rect x="19.426" y="51.147" width="32.498" height="3.5422" fill="#b1cc33"/><path d="m43.237 39.771h-5.1328a0.9994 0.9994 0 0 1-1-1v-5.1328a1 1 0 0 1 1-1h5.1328a1 1 0 0 1 1 1v5.1328a0.9993 0.9993 0 0 1-1 1z" fill="#d0cfce"/><path d="m51.924 39.771h-5.1328a0.9993 0.9993 0 0 1-1-1v-5.1328a1 1 0 0 1 1-1h5.1328a1 1 0 0 1 1 1v5.1328a0.9994 0.9994 0 0 1-1 1z" fill="#d0cfce"/><path d="m43.237 48.529h-5.1328a1 1 0 0 1-1-1v-5.1329a1 1 0 0 1 1-1h5.1328a1 1 0 0 1 1 1v5.1329a0.9994 0.9994 0 0 1-1 1z" fill="#d0cfce"/><path d="m51.924 48.529h-5.1328a0.9994 0.9994 0 0 1-1-1v-5.1329a1 1 0 0 1 1-1h5.1328a1 1 0 0 1 1 1v5.1329a1 1 0 0 1-1 1z" fill="#d0cfce"/></g><g id="d" fill="none" stroke="#000" stroke-linecap="round" stroke-linejoin="round"><rect x="16" y="13.438" width="40" height="45.042" stroke-width="2.1223"/><rect x="19.426" y="33.638" width="15.126" height="13.887" stroke-width="2"/><polyline points="19.426 53.723 19.426 51.147 51.923 51.147 51.923 53.723" stroke-width="2"/><polyline points="38.104 38.771 38.104 33.638 43.237 33.638" stroke-width="2"/><polyline points="46.79 38.771 46.79 33.638 51.923 33.638" stroke-width="2"/><polyline points="38.104 47.529 38.104 42.396 43.237 42.396" stroke-width="2"/><polyline points="46.79 47.529 46.79 42.396 51.923 42.396" stroke-width="2"/></g></svg>
