<svg xmlns="http://www.w3.org/2000/svg" id="a" version="1.1" viewBox="0 0 72 72"><g id="b"><rect width="38" height="38" x="17" y="17" fill="#D0CFCE"/><rect width="11.5" height="35" x="55" y="20" fill="#D0CFCE"/><rect width="2" height="5" x="60" y="25" fill="none" stroke="#92D3F5" stroke-linecap="round" stroke-linejoin="round" stroke-miterlimit="10" stroke-width="2"/><rect width="2" height="5" x="60" y="35" fill="none" stroke="#92D3F5" stroke-linecap="round" stroke-linejoin="round" stroke-miterlimit="10" stroke-width="2"/><rect width="2" height="5" x="60" y="45" fill="none" stroke="#92D3F5" stroke-linecap="round" stroke-linejoin="round" stroke-miterlimit="10" stroke-width="2"/><rect width="12.5" height="35" x="5" y="20" fill="#D0CFCE"/><rect width="2" height="5" x="10" y="25" fill="none" stroke="#92D3F5" stroke-linecap="round" stroke-linejoin="round" stroke-miterlimit="10" stroke-width="2"/><rect width="2" height="5" x="10" y="35" fill="none" stroke="#92D3F5" stroke-linecap="round" stroke-linejoin="round" stroke-miterlimit="10" stroke-width="2"/><rect width="2" height="5" x="10" y="45" fill="none" stroke="#92D3F5" stroke-linecap="round" stroke-linejoin="round" stroke-miterlimit="10" stroke-width="2"/><rect width="2" height="5" x="31" y="22" fill="none" stroke="#92D3F5" stroke-linecap="round" stroke-linejoin="round" stroke-miterlimit="10" stroke-width="2"/><rect width="2" height="5" x="39" y="22" fill="none" stroke="#92D3F5" stroke-linecap="round" stroke-linejoin="round" stroke-miterlimit="10" stroke-width="2"/><rect width="2" height="5" x="47" y="22" fill="none" stroke="#92D3F5" stroke-linecap="round" stroke-linejoin="round" stroke-miterlimit="10" stroke-width="2"/><rect width="2" height="5" x="23" y="22" fill="none" stroke="#92D3F5" stroke-linecap="round" stroke-linejoin="round" stroke-miterlimit="10" stroke-width="2"/><rect width="26" height="14" x="23" y="41" fill="#9B9B9A"/><rect width="29" height="9" x="21.5" y="32" fill="#FCEA2B"/><rect width="9" height="10" x="31.5" y="45" fill="#92D3F5"/></g><g id="c" fill="none" stroke="#000" stroke-linecap="round" stroke-linejoin="round" stroke-miterlimit="10"><rect width="38" height="38" x="17" y="17" stroke-width="2"/><rect width="11.5" height="35" x="55" y="20" stroke-width="2"/><rect width="11.5" height="35" x="5" y="20" stroke-width="2"/><rect width="26" height="14" x="23" y="41" stroke-width="2"/><rect width="29" height="9" x="21.5" y="32" stroke-width="2"/><line x1="27" x2="27" y1="55" y2="41" stroke-width="2"/><line x1="45" x2="45" y1="55" y2="41" stroke-width="2"/><rect width="9" height="10" x="31.5" y="45" stroke-width="2"/><line x1="36" x2="36" y1="55" y2="45" stroke-width="2"/><polyline stroke-width="2" points="49 27 47 27 47 22"/><polyline stroke-width="2" points="41 27 39 27 39 22"/><polyline stroke-width="2" points="33 27 31 27 31 22"/><polyline stroke-width="2" points="25 27 23 27 23 22"/><polyline stroke-width="2" points="12 30 10 30 10 25"/><polyline stroke-width="2" points="12 40 10 40 10 35"/><polyline stroke-width="2" points="62 40 60 40 60 35"/><polyline stroke-width="2" points="62 30 60 30 60 25"/><polyline stroke-width="2" points="62 50 60 50 60 45"/><polyline stroke-width="2" points="12 50 10 50 10 45"/><polyline points="42.045 34.499 39.785 34.499 39.785 38.454 42.045 38.454"/><line x1="39.785" x2="41.48" y1="36.476" y2="36.476"/><line x1="25.659" x2="25.659" y1="34.499" y2="38.454"/><line x1="27.919" x2="27.919" y1="34.499" y2="38.454"/><line x1="27.919" x2="25.659" y1="36.469" y2="36.469"/><polyline points="44.305 34.499 44.305 38.454 46 38.454"/><path d="m31.688 38.454c-0.7801 0-1.4126-0.6324-1.4126-1.4126v-1.13c0-0.7801 0.6324-1.4126 1.4126-1.4126 0.7801 0 1.4126 0.6324 1.4126 1.4126v1.13c0 0.7802-0.6325 1.4126-1.4126 1.4126z"/><line x1="35.361" x2="37.621" y1="34.516" y2="34.516"/><line x1="36.491" x2="36.491" y1="34.516" y2="38.471"/></g></svg>