<?xml version="1.0" encoding="UTF-8"?>
<svg id="a" version="1.1" viewBox="0 0 72 72" xmlns="http://www.w3.org/2000/svg"><g id="b"><rect x="16" y="26" width="40" height="34" fill="#9B9B9A"/><rect x="14" y="22" width="44" height="4" fill="#D0CFCE"/><polyline points="19.5 26 21.552 26 21.552 60 19.5 60" fill="#fff"/><polyline points="24.933 26 26.971 26 26.971 60 24.933 60" fill="#fff"/><polyline points="47.067 60 45.018 60 45.018 26 47.067 26" fill="#fff"/><polyline points="52.5 60 50.482 60 50.482 26 52.5 26" fill="#fff"/><polygon points="36 12 19 22 53 22" fill="#D0CFCE"/><rect x="31.5" y="50" width="9" height="10" fill="#92D3F5"/><circle cx="36" cy="35" r="5" fill="#FCEA2B"/><path d="m36.948 34.262c-0.0977-0.3803-0.5204-0.6665-1.0269-0.6665v0c-0.5789 0-1.0483 0.3737-1.0483 0.8347s0.4693 0.8347 1.0483 0.8347l-0.0213 0.0031c0.5789 0 1.0483 0.3737 1.0483 0.8347s-0.4693 0.8347-1.0483 0.8347v0c-0.5066 0-0.9293-0.2861-1.027-0.6665" fill="none" stroke="#F4AA41" stroke-linecap="round" stroke-linejoin="round" stroke-miterlimit="10"/><line x1="35.911" x2="35.911" y1="33.596" y2="32.8" fill="none" stroke="#F4AA41" stroke-linecap="round" stroke-linejoin="round" stroke-miterlimit="10"/><line x1="35.911" x2="35.911" y1="37.733" y2="36.938" fill="none" stroke="#F4AA41" stroke-linecap="round" stroke-linejoin="round" stroke-miterlimit="10"/></g><g id="c" fill="none" stroke="#000" stroke-miterlimit="10"><rect x="16" y="26" width="40" height="34" stroke-linecap="round" stroke-linejoin="round" stroke-width="2"/><rect x="14" y="22" width="44" height="4" stroke-linecap="round" stroke-linejoin="round" stroke-width="2"/><polyline points="19.5 26 22.5 26 22.5 60 19.5 60" stroke-linecap="round" stroke-linejoin="round" stroke-width="2"/><polyline points="24.933 26 27.933 26 27.933 60 24.933 60" stroke-linecap="round" stroke-linejoin="round" stroke-width="2"/><polyline points="47.067 60 44.067 60 44.067 26 47.067 26" stroke-linecap="round" stroke-linejoin="round" stroke-width="2"/><polyline points="52.5 60 49.5 60 49.5 26 52.5 26" stroke-linecap="round" stroke-linejoin="round" stroke-width="2"/><polygon points="36 12 19 21.749 53 21.749" stroke-linecap="round" stroke-linejoin="round" stroke-width="2"/><rect x="31.5" y="50" width="9" height="10" stroke-linecap="round" stroke-linejoin="round" stroke-width="2"/><line x1="36" x2="36" y1="60" y2="50" stroke-linecap="round" stroke-linejoin="round" stroke-width="2"/><circle cx="36" cy="35" r="5" stroke-width="2"/><path d="m36.948 34.262c-0.0977-0.3803-0.5204-0.6665-1.0269-0.6665v0c-0.5789 0-1.0483 0.3737-1.0483 0.8347s0.4693 0.8347 1.0483 0.8347l-0.0213 0.0031c0.5789 0 1.0483 0.3737 1.0483 0.8347s-0.4693 0.8347-1.0483 0.8347v0c-0.5066 0-0.9293-0.2861-1.027-0.6665" stroke-linecap="round" stroke-linejoin="round"/><line x1="35.911" x2="35.911" y1="33.596" y2="32.8" stroke-linecap="round" stroke-linejoin="round"/><line x1="35.911" x2="35.911" y1="37.733" y2="36.938" stroke-linecap="round" stroke-linejoin="round"/></g></svg>
