<svg xmlns="http://www.w3.org/2000/svg" id="a" version="1.1" viewBox="0 0 72 72"><g id="b"><rect width="27" height="48" x="12.5" y="12" fill="#D0CFCE"/><rect width="19" height="35" x="39.5" y="25" fill="#D0CFCE"/><rect width="2" height="5" x="17" y="40" fill="#92D3F5" stroke="#92D3F5" stroke-linecap="round" stroke-linejoin="round" stroke-miterlimit="10" stroke-width="2"/><rect width="2" height="5" x="25" y="40" fill="#92D3F5" stroke="#92D3F5" stroke-linecap="round" stroke-linejoin="round" stroke-miterlimit="10" stroke-width="2"/><rect width="2" height="5" x="33" y="40" fill="#92D3F5" stroke="#92D3F5" stroke-linecap="round" stroke-linejoin="round" stroke-miterlimit="10" stroke-width="2"/><rect width="2" height="5" x="44" y="30" fill="#92D3F5" stroke="#92D3F5" stroke-linecap="round" stroke-linejoin="round" stroke-miterlimit="10" stroke-width="2"/><rect width="2" height="5" x="52" y="30" fill="#92D3F5" stroke="#92D3F5" stroke-linecap="round" stroke-linejoin="round" stroke-miterlimit="10" stroke-width="2"/><rect width="2" height="5" x="44" y="40" fill="#92D3F5" stroke="#92D3F5" stroke-linecap="round" stroke-linejoin="round" stroke-miterlimit="10" stroke-width="2"/><rect width="2" height="5" x="52" y="40" fill="#92D3F5" stroke="#92D3F5" stroke-linecap="round" stroke-linejoin="round" stroke-miterlimit="10" stroke-width="2"/><rect width="2" height="5" x="44" y="50" fill="#92D3F5" stroke="#92D3F5" stroke-linecap="round" stroke-linejoin="round" stroke-miterlimit="10" stroke-width="2"/><rect width="2" height="5" x="52" y="50" fill="#92D3F5" stroke="#92D3F5" stroke-linecap="round" stroke-linejoin="round" stroke-miterlimit="10" stroke-width="2"/><rect width="13" height="10" x="19.5" y="50" fill="#92D3F5"/></g><g id="c" stroke="#000" stroke-linecap="round" stroke-linejoin="round" stroke-miterlimit="10" stroke-width="2"><rect width="27" height="48" x="12.5" y="12" fill="none"/><rect width="19" height="35" x="39.5" y="25" fill="none"/><rect width="13" height="10" x="19.5" y="50" fill="none"/><line x1="26" x2="26" y1="60" y2="50" fill="none"/><polyline fill="none" points="54 35 52 35 52 30"/><polyline fill="none" points="54 45 52 45 52 40"/><polyline fill="none" points="54 55 52 55 52 50"/><polyline fill="none" points="46 35 44 35 44 30"/><polyline fill="none" points="27 45 25 45 25 40"/><polyline fill="none" points="35 45 33 45 33 40"/><polyline fill="none" points="19 45 17 45 17 40"/><polyline fill="none" points="46 45 44 45 44 40"/><polyline fill="none" points="46 55 44 55 44 50"/><rect width="16" height="2" x="18" y="18"/><rect width="16" height="2" x="18" y="24"/><rect width="2" height="7" x="25" y="26"/></g></svg>