<?xml version="1.0" encoding="UTF-8"?>
<svg id="a" viewBox="0 0 72 72" xmlns="http://www.w3.org/2000/svg"><g id="b" stroke-linecap="round" stroke-linejoin="round" stroke-miterlimit="10" stroke-width="2"><rect x="16" y="12" width="40" height="48" fill="#D0CFCE"/><rect x="20" y="50" width="8" height="10" fill="#92D3F5"/><rect x="44" y="50" width="8" height="10" fill="#92D3F5"/><rect x="32" y="50" width="8" height="10" fill="#92D3F5"/><rect x="16" y="36" width="10" height="10" fill="#92D3F5"/><rect x="26" y="36" width="10" height="10" fill="#92D3F5"/><rect x="36" y="36" width="10" height="10" fill="#92D3F5"/><rect x="46" y="36" width="10" height="10" fill="#92D3F5"/><rect x="16" y="26" width="10" height="10" fill="#92D3F5"/><rect x="26" y="26" width="10" height="10" fill="#92D3F5"/><rect x="36" y="26" width="10" height="10" fill="#92D3F5"/><rect x="46" y="26" width="10" height="10" fill="#92D3F5"/><rect x="16" y="16" width="10" height="10" fill="#92D3F5"/><rect x="26" y="16" width="10" height="10" fill="#92D3F5"/><rect x="36" y="16" width="10" height="10" fill="#92D3F5"/><rect x="46" y="16" width="10" height="10" fill="#92D3F5"/></g><g id="c" fill="none" stroke="#000" stroke-linecap="round" stroke-linejoin="round" stroke-miterlimit="10" stroke-width="2"><rect x="16" y="12" width="40" height="48"/><rect x="20" y="50" width="8" height="10"/><rect x="44" y="50" width="8" height="10"/><rect x="32" y="50" width="8" height="10"/><rect x="16" y="36" width="10" height="10"/><rect x="26" y="36" width="10" height="10"/><rect x="36" y="36" width="10" height="10"/><rect x="46" y="36" width="10" height="10"/><rect x="16" y="26" width="10" height="10"/><rect x="26" y="26" width="10" height="10"/><rect x="36" y="26" width="10" height="10"/><rect x="46" y="26" width="10" height="10"/><rect x="16" y="16" width="10" height="10"/><rect x="26" y="16" width="10" height="10"/><rect x="36" y="16" width="10" height="10"/><rect x="46" y="16" width="10" height="10"/></g></svg>
