<svg xmlns="http://www.w3.org/2000/svg" id="a" viewBox="0 0 72 72"><g id="b"><rect width="32.737" height="52.264" x="19.125" y="9.871" fill="#ea5a47" rx="11"/><g fill="#d22f27"><path d="m46.414 10.743-6.1863-0.8719c7.6518 1.92 6.6782 13.537 6.7861 15.785 1.7573 36.601-12.681 36.635-13.409 36.678l9.4057-0.3342h0.0607a9.1128 9.1128 0 0 0 8.9287-9.0127v-33.515s-0.6148-5.8198-5.5859-8.7298z"/><path d="m33.604 62.41-0.05 0.0013s0.018 6e-4 0.05-0.0013z"/></g><rect width="12.286" height="35.618" x="29.35" y="18.332" fill="#fff" rx="2"/><polyline fill="#3f3f3f" points="26.84 8.018 26.84 4.972 44.146 4.972 44.146 8.018"/><polyline fill="#3f3f3f" points="44.146 64.184 44.146 67.05 26.84 67.05 26.84 64.184"/></g><g id="c" fill="none" stroke="#000" stroke-linecap="round" stroke-linejoin="round"><polyline stroke-width="2" points="26.84 7.481 26.84 4.972 44.146 4.972 44.146 7.481"/><polyline stroke-width="2" points="44.146 64.657 44.146 67.05 26.84 67.05 26.84 64.657"/><rect width="32.737" height="52.264" x="19.125" y="9.871" stroke-width="2" rx="11"/><g stroke-width="1.5"><rect width="8.307" height="8.934" x="31.34" y="31.689"/><rect width="8.307" height="8.934" x="31.34" y="42.539"/><rect width="8.307" height="8.934" x="31.34" y="20.84"/></g></g></svg>