<svg xmlns="http://www.w3.org/2000/svg" id="a" viewBox="0 0 72 72"><g id="b"><rect width="46" height="46" x="13" y="14" fill="#d0cfce"/><circle cx="37" cy="37" r="6" fill="#fcea2b"/><rect width="13" height="10" x="29.5" y="50" fill="#92d3f5"/><rect width="2" height="5" x="51" y="30" fill="none" stroke="#92d3f5" stroke-linecap="round" stroke-linejoin="round" stroke-width="2"/><rect width="2" height="5" x="51" y="20" fill="none" stroke="#92d3f5" stroke-linecap="round" stroke-linejoin="round" stroke-width="2"/><rect width="2" height="5" x="35" y="20" fill="none" stroke="#92d3f5" stroke-linecap="round" stroke-linejoin="round" stroke-width="2"/><rect width="2" height="5" x="43" y="20" fill="none" stroke="#92d3f5" stroke-linecap="round" stroke-linejoin="round" stroke-width="2"/><rect width="2" height="5" x="27" y="20" fill="none" stroke="#92d3f5" stroke-linecap="round" stroke-linejoin="round" stroke-width="2"/><rect width="2" height="5" x="51" y="40" fill="none" stroke="#92d3f5" stroke-linecap="round" stroke-linejoin="round" stroke-width="2"/><rect width="2" height="5" x="51" y="50" fill="none" stroke="#92d3f5" stroke-linecap="round" stroke-linejoin="round" stroke-width="2"/><rect width="2" height="5" x="19" y="30" fill="none" stroke="#92d3f5" stroke-linecap="round" stroke-linejoin="round" stroke-width="2"/><rect width="2" height="5" x="19" y="20" fill="none" stroke="#92d3f5" stroke-linecap="round" stroke-linejoin="round" stroke-width="2"/><rect width="2" height="5" x="19" y="40" fill="none" stroke="#92d3f5" stroke-linecap="round" stroke-linejoin="round" stroke-width="2"/><rect width="2" height="5" x="19" y="50" fill="none" stroke="#92d3f5" stroke-linecap="round" stroke-linejoin="round" stroke-width="2"/><circle cx="37" cy="37" r="3" fill="#d0cfce"/><polygon fill="#fcea2b" points="31 34.5 26.7 38.8 32 41 33 40"/><polygon fill="#fcea2b" points="47 37 43 41 41 39 44.9 35"/><path fill="#fcea2b" d="m43 41a8.89 8.89 0 0 1-6 2 8.89 8.89 0 0 1-6-2l2-2a10.718 10.718 0 0 0 4 1 10.718 10.718 0 0 0 4-1z"/></g><g id="c" fill="none" stroke="#000" stroke-linecap="round" stroke-linejoin="round" stroke-width="2"><rect width="46" height="46" x="13" y="14"/><path d="M43,36.9,41,39a11.1844,11.1844,0,0,1-3.8,1,3,3,0,1,0-.4,0A9.2887,9.2887,0,0,1,33,39l-.3.3-1.5-4A6.027,6.027,0,0,1,43,36.9Z"/><rect width="13" height="10" x="29.5" y="50"/><line x1="36" x2="36" y1="60" y2="50"/><polygon points="32.7 39.3 31.3 40.7 26.7 38.8 31 34.5 31.2 35.3"/><polygon points="47 37 43 41 41 39 43 36.9 44.9 35"/><path d="m43 41a8.8127 8.8127 0 0 1-5.5 2h-0.9a8.8792 8.8792 0 0 1-5.6-2l2-2a11.184 11.184 0 0 0 3.8 1h0.4a9.2887 9.2887 0 0 0 3.8-1z"/><polyline points="21 25 19 25 19 20"/><polyline points="53 35 51 35 51 30"/><polyline points="45 25 43 25 43 20"/><polyline points="53 25 51 25 51 20"/><polyline points="37 25 35 25 35 20"/><polyline points="29 25 27 25 27 20"/><polyline points="21 35 19 35 19 30"/><polyline points="21 45 19 45 19 40"/><polyline points="53 45 51 45 51 40"/><polyline points="53 55 51 55 51 50"/><polyline points="21 55 19 55 19 50"/></g></svg>