<?xml version="1.0" encoding="UTF-8"?>
<svg id="a" viewBox="0 0 72 72" xmlns="http://www.w3.org/2000/svg"><g id="b" stroke-linecap="round" stroke-linejoin="round" stroke-miterlimit="10" stroke-width="2"><rect x="9.5" y="38" width="53" height="17" fill="#EA5A47"/><rect x="14.5" y="43" width="13" height="12" fill="#D0CFCE"/><rect x="32.5" y="43" width="5" height="5" fill="#92D3F5"/><rect x="37.5" y="43" width="5" height="5" fill="#92D3F5"/><rect x="42.5" y="43" width="5" height="5" fill="#92D3F5"/><rect x="47.5" y="43" width="5" height="5" fill="#92D3F5"/><rect x="52.5" y="43" width="5" height="5" fill="#92D3F5"/><polygon points="56 38 50 38 51 22 55 22" fill="#3F3F3F"/><polygon points="14.497 31 14.502 38 24.497 38" fill="#D0CFCE"/><polygon points="25 31 25.005 38 35 38" fill="#D0CFCE"/><polygon points="35 31 35.005 38 45 38" fill="#D0CFCE"/></g><g id="c" fill="none" stroke="#000" stroke-linecap="round" stroke-miterlimit="10" stroke-width="2"><rect x="9.5" y="38" width="53" height="17" stroke-linejoin="round"/><rect x="14.5" y="43" width="13" height="12" stroke-linejoin="round"/><line x1="14.5" x2="27.5" y1="47" y2="47" stroke-linejoin="round"/><line x1="14.5" x2="27.5" y1="51" y2="51" stroke-linejoin="round"/><rect x="32.5" y="43" width="5" height="5" stroke-linejoin="round"/><rect x="37.5" y="43" width="5" height="5" stroke-linejoin="round"/><rect x="42.5" y="43" width="5" height="5" stroke-linejoin="round"/><rect x="47.5" y="43" width="5" height="5" stroke-linejoin="round"/><rect x="52.5" y="43" width="5" height="5" stroke-linejoin="round"/><polygon points="56 38 50 38 51 22 55 22" stroke-linejoin="round"/><polygon points="14.497 31 14.502 38 24.497 38" stroke-linejoin="round"/><polygon points="25 31 25.005 38 35 38" stroke-linejoin="round"/><polygon points="35 31 35.005 38 45 38" stroke-linejoin="round"/><path d="M54,19 c0.0435-1.9564-0.3252-4.0019-2.0786-5.5659c-1.4875-1.3268-3.042-1.0494-5.6192-2.1035C44.7835,10.7094,45,7,42.0854,5.4809"/><path d="m51 19c-0.6452-1.8475-0.8095-3.15-3-4-1.8583-0.7211-6 0-7-2"/></g></svg>
