<svg xmlns="http://www.w3.org/2000/svg" id="a" viewBox="0 0 72 72"><g id="b"><path fill="#1E50A0" d="M67 17H5.31909V54.8044H67V17Z"/><path fill="#fff" fill-rule="evenodd" d="m33 31c0 0.5523-0.4477 1-1 1 0.5523 0 1 0.4477 1 1 0-0.5523 0.4477-1 1-1-0.5523 0-1-0.4477-1-1z" clip-rule="evenodd"/><path fill="#fff" d="m32 31.75c-0.1381 0-0.25 0.1119-0.25 0.25s0.1119 0.25 0.25 0.25v-0.5zm1.25-0.75c0-0.1381-0.1119-0.25-0.25-0.25s-0.25 0.1119-0.25 0.25h0.5zm-0.5 2c0 0.1381 0.1119 0.25 0.25 0.25s0.25-0.1119 0.25-0.25h-0.5zm1.25-0.75c0.1381 0 0.25-0.1119 0.25-0.25s-0.1119-0.25-0.25-0.25v0.5zm-2 0c0.6904 0 1.25-0.5596 1.25-1.25h-0.5c0 0.4142-0.3358 0.75-0.75 0.75v0.5zm1.25 0.75c0-0.6904-0.5596-1.25-1.25-1.25v0.5c0.4142 0 0.75 0.3358 0.75 0.75h0.5zm0.75-1.25c-0.6904 0-1.25 0.5596-1.25 1.25h0.5c0-0.4142 0.3358-0.75 0.75-0.75v-0.5zm-1.25-0.75c0 0.6904 0.5596 1.25 1.25 1.25v-0.5c-0.4142 0-0.75-0.3358-0.75-0.75h-0.5z"/><path fill="#fff" fill-rule="evenodd" d="m38 33c0 0.5523-0.4477 1-1 1 0.5523 0 1 0.4477 1 1 0-0.5523 0.4477-1 1-1-0.5523 0-1-0.4477-1-1z" clip-rule="evenodd"/><path fill="#fff" d="m37 33.75c-0.1381 0-0.25 0.1119-0.25 0.25s0.1119 0.25 0.25 0.25v-0.5zm1.25-0.75c0-0.1381-0.1119-0.25-0.25-0.25s-0.25 0.1119-0.25 0.25h0.5zm-0.5 2c0 0.1381 0.1119 0.25 0.25 0.25s0.25-0.1119 0.25-0.25h-0.5zm1.25-0.75c0.1381 0 0.25-0.1119 0.25-0.25s-0.1119-0.25-0.25-0.25v0.5zm-2 0c0.6904 0 1.25-0.5596 1.25-1.25h-0.5c0 0.4142-0.3358 0.75-0.75 0.75v0.5zm1.25 0.75c0-0.6904-0.5596-1.25-1.25-1.25v0.5c0.4142 0 0.75 0.3358 0.75 0.75h0.5zm0.75-1.25c-0.6904 0-1.25 0.5596-1.25 1.25h0.5c0-0.4142 0.3358-0.75 0.75-0.75v-0.5zm-1.25-0.75c0 0.6904 0.5596 1.25 1.25 1.25v-0.5c-0.4142 0-0.75-0.3358-0.75-0.75h-0.5z"/><path fill="#fff" fill-rule="evenodd" d="m37 29c0 0.5523-0.4477 1-1 1 0.5523 0 1 0.4477 1 1 0-0.5523 0.4477-1 1-1-0.5523 0-1-0.4477-1-1z" clip-rule="evenodd"/><path fill="#fff" d="m36 29.75c-0.1381 0-0.25 0.1119-0.25 0.25s0.1119 0.25 0.25 0.25v-0.5zm1.25-0.75c0-0.1381-0.1119-0.25-0.25-0.25s-0.25 0.1119-0.25 0.25h0.5zm-0.5 2c0 0.1381 0.1119 0.25 0.25 0.25s0.25-0.1119 0.25-0.25h-0.5zm1.25-0.75c0.1381 0 0.25-0.1119 0.25-0.25s-0.1119-0.25-0.25-0.25v0.5zm-2 0c0.6904 0 1.25-0.5596 1.25-1.25h-0.5c0 0.4142-0.3358 0.75-0.75 0.75v0.5zm1.25 0.75c0-0.6904-0.5596-1.25-1.25-1.25v0.5c0.4142 0 0.75 0.3358 0.75 0.75h0.5zm0.75-1.25c-0.6904 0-1.25 0.5596-1.25 1.25h0.5c0-0.4142 0.3358-0.75 0.75-0.75v-0.5zm-1.25-0.75c0 0.6904 0.5596 1.25 1.25 1.25v-0.5c-0.4142 0-0.75-0.3358-0.75-0.75h-0.5z"/><circle cx="41.5" cy="33.5" r=".5" fill="#fff"/><circle cx="43.5" cy="32.5" r=".5" fill="#fff"/><circle cx="37.5" cy="38.5" r=".5" fill="#fff"/><circle cx="35.5" cy="35.5" r=".5" fill="#fff"/><circle cx="35.5" cy="32.5" r=".5" fill="#fff"/><circle cx="33.5" cy="29.5" r=".5" fill="#fff"/><circle cx="30.5" cy="35.5" r=".5" fill="#fff"/><circle cx="33.5" cy="36.5" r=".5" fill="#fff"/><circle cx="41.5" cy="27.5" r=".5" fill="#fff"/><circle cx="33.5" cy="26.5" r=".5" fill="#fff"/><circle cx="37.5" cy="25.5" r=".5" fill="#fff"/><circle cx="29.5" cy="31.5" r=".5" fill="#fff"/><circle cx="39.5" cy="31.5" r=".5" fill="#fff"/><path fill="none" stroke="#fff" stroke-linecap="round" stroke-linejoin="round" d="m27.488 23.428-0.4278 0.8555 1.711-1.2832"/><path fill="none" stroke="#fff" stroke-linecap="round" stroke-linejoin="round" d="m25.777 24.711c-0.3422 0.6844-0.4278 1.4258-0.4278 1.711l0.8555-0.4278"/><path fill="none" stroke="#fff" stroke-linecap="round" stroke-linejoin="round" d="m23.211 28.988c0.2852 0.9981 1.0266 2.652 1.711 1.2832m-0.8555-3.8497c0 0.9981 0.2567 2.7376 1.2833 1.711"/><path fill="none" stroke="#fff" stroke-linecap="round" stroke-linejoin="round" d="m22.783 31.555c0.2851 0.998 1.1121 2.652 2.1387 1.2832"/><path fill="none" stroke="#fff" stroke-linecap="round" stroke-linejoin="round" d="m22.355 33.694c0.4278 0.9981 1.5399 2.652 2.5665 1.2832"/><path fill="none" stroke="#fff" stroke-linecap="round" stroke-linejoin="round" d="m23.211 36.688c0.8555 1.2832 2.5665 1.2832 2.9943 0"/><path fill="none" stroke="#fff" stroke-linecap="round" stroke-linejoin="round" d="m25.35 39.254c0.5703 0.4278 2.1388 1.1977 2.1388-0.8555"/><path fill="none" stroke="#fff" stroke-linecap="round" stroke-linejoin="round" d="m27.06 41.393c0.4278 0.1426 1.3688 0.3422 1.711 0s0.2852-0.9981 0-1.2833"/><path fill="none" stroke="#fff" stroke-linecap="round" stroke-linejoin="round" d="m32.621 43.96s1.0205 0.6906 2.1387-0.4277c0.3422-0.3422-0.4277-0.7129-0.8555-0.8555-0.8555 0-3.1653-0.0855-3.8497-0.4277"/><path fill="none" stroke="#fff" stroke-linecap="round" stroke-linejoin="round" d="m45.111 23.428 0.4278 0.8555-1.711-1.2832"/><path fill="none" stroke="#fff" stroke-linecap="round" stroke-linejoin="round" d="m46.822 24.711c0.3422 0.6844 0.4277 1.4258 0.4277 1.711l-0.8555-0.4278"/><path fill="none" stroke="#fff" stroke-linecap="round" stroke-linejoin="round" d="m49.389 28.988c-0.2852 0.9981-1.0266 2.652-1.711 1.2832m0.8555-3.8497c0 0.9981-0.2567 2.7376-1.2832 1.711"/><path fill="none" stroke="#fff" stroke-linecap="round" stroke-linejoin="round" d="m49.816 31.555c-0.2851 0.998-1.1121 2.652-2.1387 1.2832"/><path fill="none" stroke="#fff" stroke-linecap="round" stroke-linejoin="round" d="m50.244 33.694c-0.4278 0.9981-1.5399 2.652-2.5665 1.2832"/><path fill="none" stroke="#fff" stroke-linecap="round" stroke-linejoin="round" d="m49.389 36.688c-0.8555 1.2832-2.5665 1.2832-2.9942 0"/><path fill="none" stroke="#fff" stroke-linecap="round" stroke-linejoin="round" d="m47.25 39.254c-0.5703 0.4278-2.1387 1.1977-2.1387-0.8555"/><path fill="none" stroke="#fff" stroke-linecap="round" stroke-linejoin="round" d="m45.539 41.393c-0.4278 0.1426-1.3688 0.3422-1.711 0s-0.2852-0.9981 0-1.2833"/><path fill="none" stroke="#fff" stroke-linecap="round" stroke-linejoin="round" d="m39.978 43.96s-1.0204 0.6906-2.1387-0.4277c-0.3422-0.3422 0.4277-0.7129 0.8555-0.8555 0.8555 0 3.1653-0.0855 3.8497-0.4277"/><circle cx="36" cy="32" r="9" fill="none" stroke="#fff" stroke-width="1.15"/><path fill="none" stroke="#fff" stroke-linecap="round" stroke-width="3" d="m11.5 48.5h49"/></g><g id="c"><path fill="none" stroke="#000" stroke-linecap="round" stroke-linejoin="round" stroke-width="2" d="M67 17H5V55H67V17Z"/></g></svg>