<?xml version="1.0" encoding="UTF-8"?>
<svg id="a" viewBox="0 0 72 72" xmlns="http://www.w3.org/2000/svg"><g id="b"><path d="M67 17H5.31909V54.8044H67V17Z" fill="#9B9B9A"/><path d="m22.56 32.198c-0.0456 0.0748-0.0811 0.1569-0.1044 0.2452-0.2346 0.8916-0.3825 1.8135-0.4356 2.7547-0.024 0.4249 0.2469 0.8055 0.648 0.9476l0.7171 0.2539c0.3817 0.1352 0.6403 0.4877 0.6833 0.8903 0.0424 0.3972 0.1042 0.7886 0.1845 1.1732 0.0826 0.3959-0.0545 0.8104-0.3754 1.0566l-0.6019 0.4619c-0.3376 0.2591-0.4776 0.7048-0.3235 1.1015 0.3413 0.8787 0.7669 1.7098 1.2655 2.4852 0.2303 0.3581 0.6733 0.507 1.0815 0.3861l0.7309-0.2165c0.3877-0.1148 0.8036 0.0178 1.0752 0.3175 0.2659 0.2934 0.5461 0.5737 0.8396 0.8396 0.2996 0.2715 0.4323 0.6874 0.3174 1.0752l-0.2154 0.7272c-0.1209 0.4085 0.0282 0.8517 0.3865 1.082 0.781 0.5021 1.6124 0.9274 2.4823 1.2674 0.3971 0.1551 0.8439 0.0154 1.1034-0.3228l0.4615-0.6014c0.2462-0.3209 0.6606-0.458 1.0565-0.3754 0.3847 0.0802 0.776 0.1421 1.1732 0.1845 0.4026 0.043 0.7551 0.3016 0.8903 0.6833l0.2533 0.7151c0.1423 0.402 0.5242 0.673 0.9499 0.648 0.4596-0.0269 0.9221-0.0767 1.3863-0.1503 0.4643-0.0735 0.9195-0.1691 1.3649-0.2854 0.4126-0.1078 0.6921-0.4836 0.7033-0.9099l0.0198-0.7559c0.0106-0.4044 0.2655-0.759 0.6345-0.9248 0.3626-0.1629 0.7156-0.3433 1.058-0.5401 0.3511-0.2018 0.7884-0.1998 1.1221 0.0296l0.6253 0.4297c0.3514 0.2415 0.8194 0.2364 1.1491-0.0339 0.7223-0.5922 1.3816-1.2536 1.9692-1.9724 0.2696-0.3298 0.2745-0.7974 0.0332-1.1485l-0.4284-0.6234c-0.2293-0.3337-0.2313-0.7709-0.0295-1.122 0.1967-0.3424 0.3771-0.6954 0.54-1.058 0.1658-0.369 0.5204-0.624 0.9248-0.6346l0.7587-0.0199c0.4256-0.0111 0.8009-0.2896 0.9092-0.7013 0.2347-0.8916 0.3826-1.8135 0.4357-2.7547 0.0239-0.4249-0.2469-0.8055-0.6481-0.9476l-0.7171-0.254c-0.3817-0.1352-0.6403-0.4877-0.6833-0.8903-0.0425-0.3971-0.1043-0.7885-0.1845-1.1731-0.0826-0.3959 0.0545-0.8103 0.3753-1.0565l0.6021-0.462c0.3376-0.2591 0.4776-0.7048 0.3235-1.1015-0.3413-0.8787-0.7669-1.7098-1.2656-2.4852-0.2302-0.3581-0.6733-0.507-1.0815-0.3861l-0.7309 0.2165c-0.3877 0.1148-0.8036-0.0178-1.0752-0.3175-0.2659-0.2934-0.5461-0.5736-0.8395-0.8395-0.2996-0.2715-0.4323-0.6874-0.3175-1.0752l0.2155-0.7273c0.1209-0.4084-0.0282-0.8517-0.3865-1.082-0.781-0.5021-1.6124-0.9274-2.4823-1.2674-0.3971-0.1551-0.8439-0.0154-1.1034 0.3228l-0.4615 0.6015c-0.2462 0.3208-0.6607 0.4579-1.0566 0.3753-0.3846-0.0802-0.7759-0.1421-1.1731-0.1845-0.4026-0.043-0.7551-0.3016-0.8903-0.6833l-0.2533-0.7151c-0.1423-0.402-0.5242-0.673-0.9499-0.6481-0.4596 0.027-0.9221 0.0768-1.3864 0.1504-0.4642 0.0735-0.9194 0.169-1.3648 0.2854-0.0889 0.0232-0.1717 0.0589-0.2469 0.1048l0.1552 2.6377 1.0506 1.14c0.8278-0.222 1.6981-0.3403 2.596-0.3403 5.5228 0 10 4.4771 10 10 0 5.5228-4.4772 10-10 10-5.5229 0-10-4.4772-10-10 0-0.8979 0.1183-1.7682 0.3403-2.5961l-1.14-1.0506-2.6402-0.1553z" clip-rule="evenodd" fill="#fff" fill-rule="evenodd"/><path d="m46.214 44.811 1.42 2.1299c0.3031 0.4547-0.2387 0.9965-0.6934 0.6934l-2.1299-1.4199c-0.0217-0.0145-0.0423-0.0307-0.0615-0.0484l-17.871-16.469c-0.0849-0.0783-0.1942-0.1247-0.3095-0.1315l-4.7207-0.2777c-0.4306-0.0253-0.6292-0.5476-0.3241-0.8527l6.9106-6.9106c0.3051-0.3051 0.8274-0.1065 0.8527 0.3241l0.2777 4.7207c0.0068 0.1153 0.0532 0.2246 0.1315 0.3095l16.469 17.871c0.0177 0.0192 0.0339 0.0398 0.0483 0.0615z" fill="#fff"/></g><g id="c"><path d="M67 17H5V55H67V17Z" fill="none" stroke="#000" stroke-linecap="round" stroke-linejoin="round" stroke-width="2"/></g></svg>
