<svg xmlns="http://www.w3.org/2000/svg" id="a" viewBox="0 0 72 72"><g id="b" fill="#fff"><path d="m22.302 17.488c2.958-1.7983 8.6348-4.2326 14.78-1.488 3.7823 1.6892 5.7769 4.6976 15.421 4.1142 0.8085-0.0489 1.4964 0.5967 1.4964 1.4106v15.125c0 0.6226-0.4342 1.0771-0.9892 1.354-1.9962 0.9959-7.4553 0.9349-15.928-3.0041-3.4504-1.6041-8.7871-2.5683-14.824 1.4425"/><path stroke-linecap="round" stroke-linejoin="round" stroke-miterlimit="10" stroke-width="2" d="m23.084 17.488c2.885-1.7983 8.4218-4.2326 14.416-1.488 3.689 1.6892 5.6344 4.6976 15.04 4.1142 0.7886-0.0489 1.4595 0.5967 1.4595 1.4106v15.125c0 0.6226-0.4235 1.0771-0.9648 1.354-1.947 0.9959-7.2715 0.9349-15.535-3.0041-3.3653-1.6041-8.5703-2.5683-14.458 1.4425"/></g><g id="c" fill="none" stroke="#000" stroke-linecap="round" stroke-miterlimit="10" stroke-width="2"><path stroke-linejoin="round" d="m23.084 17.488c2.885-1.7983 8.4218-4.2326 14.416-1.488 3.689 1.6892 5.6344 4.6976 15.04 4.1142 0.7886-0.0489 1.4595 0.5967 1.4595 1.4106v15.125c0 0.6226-0.4235 1.0771-0.9648 1.354-1.947 0.9959-7.2715 0.9349-15.535-3.0041-3.3653-1.6041-8.5703-2.5683-14.458 1.4425"/><line x1="19.327" x2="19.327" y1="12.875" y2="59.835"/></g></svg>