<svg xmlns="http://www.w3.org/2000/svg" id="a" viewBox="0 0 72 72"><g id="b"><path fill-rule="evenodd" d="m5 17h62v38h-62v-38zm17.724 1.8299c0.7008 0.1574 1.3075 0.6283 1.7312 1.3059 0.5735 0.9089 0.1915 1.7602-0.2106 2.2807-0.1418 0.1835-0.2958 0.3413-0.4348 0.4685 0.3138 0.3043 0.7618 0.7477 1.2776 1.3067 0.1756 0.1902 0.1769 0.4831 3e-3 0.6749l-2.2202 2.4492c-0.0919 0.1014-0.2213 0.1607-0.3581 0.164-0.1369 0.0034-0.2691-0.0495-0.3659-0.1463l-1.397-1.397c-0.1255 0.0871-0.2782 0.1854-0.4493 0.2795-0.4453 0.2449-1.148 0.5367-1.8293 0.3422-0.5355-0.1511-0.9822-0.4353-1.2721-0.863-0.291-0.4292-0.3886-0.9505-0.3211-1.5079 0.0027-0.0217 0.0067-0.0433 0.0122-0.0645 0.3462-1.3461 1.5052-2.1601 2.7983-2.1463-0.0766-0.9268 0.2289-1.8932 0.8735-2.5755 0.018-0.0191 0.0376-0.0368 0.0585-0.0529 0.6526-0.5022 1.396-0.6774 2.1041-0.5182zm26.665 0.0064c0.7251-0.1348 1.4882 0.053 2.14 0.5546 0.0208 0.016 0.0403 0.0336 0.0583 0.0526 0.6482 0.6852 0.9208 1.6223 0.836 2.5282 1.2844-0.0251 2.4835 0.7207 2.8346 2.0848 0.0055 0.0212 0.0095 0.0428 0.0122 0.0646 0.146 1.2069-0.6277 2.149-1.724 2.4581-0.6859 0.1955-1.3799-0.1065-1.816-0.3583-0.1618-0.0934-0.3065-0.1907-0.4264-0.2778l-1.3204 1.3205c-0.0995 0.0994-0.2362 0.1524-0.3767 0.1459s-0.2717-0.0718-0.3615-0.18l-2.1175-2.5496c-0.1605-0.1934-0.1526-0.4759 0.0186-0.66l1.0695-1.1499c-0.141-0.1297-0.2991-0.2933-0.4437-0.485-0.3939-0.5221-0.7573-1.3683-0.1872-2.2717 0.4345-0.6941 1.0802-1.1425 1.8042-1.277zm-26.458 25.507c0.1558 0.0193 0.2934 0.1105 0.3718 0.2464l1.7471 3.0288c0.1129 0.1958 0.0805 0.4429-0.0791 0.6029l-1.0555 1.0585c0.3555 0.3799 0.5441 0.7872 0.6221 1.1914 0.1004 0.5209 7e-3 0.9943-0.0557 1.2967-0.0109 0.0523-0.0301 0.1025-0.0568 0.1487-0.4216 0.7289-1.0675 1.1696-1.8 1.2674-0.7247 0.0967-1.4725-0.1497-2.1023-0.6701-0.0158-0.0131-0.0309-0.0272-0.045-0.0421-0.3833-0.4057-0.6765-0.8557-0.8308-1.3685-0.0966-0.321-0.1351-0.6547-0.115-1.0022-1.2867-0.0506-2.4144-0.7984-2.7693-2.1781-0.0055-0.0212-0.0096-0.0428-0.0122-0.0645-0.0681-0.5633 0.0388-1.1045 0.3252-1.5518 0.2869-0.4482 0.7341-0.7707 1.2892-0.9276 0.9479-0.281 1.9487 0.0184 2.5886 0.7208l1.5572-1.6083c0.1091-0.1127 0.2648-0.1676 0.4205-0.1484zm26.228 0.0901c0.1469-0.0181 0.2942 0.0298 0.4023 0.1308 0.6428 0.6001 1.128 1.1286 1.4524 1.4924 0.6197-0.6754 1.5542-0.9357 2.4888-0.6578 1.1382 0.3225 1.8186 1.3812 1.678 2.5443-0.0027 0.0217-0.0067 0.0432-0.0121 0.0643-0.3569 1.3893-1.6032 2.0492-2.8789 2.0042 0.0823 0.8982-0.1914 1.8179-0.8365 2.5008-0.0142 0.0149-0.0292 0.029-0.045 0.0421-0.6357 0.5252-1.393 0.7574-2.1218 0.6472-0.7333-0.111-1.3815-0.5607-1.8017-1.2882-4e-3 -0.0069-0.0078-0.014-0.0115-0.0211-0.0037-0.0073-0.0073-0.0146-0.0107-0.0221-0.2136-0.47-0.2846-1.0049-0.1148-1.5551 0.1234-0.4 0.3652-0.7795 0.7247-1.1328l-1.051-1.0503c-0.1669-0.1668-0.1945-0.4275-0.0662-0.6255l1.8455-2.8488c0.0804-0.1242 0.2117-0.2064 0.3585-0.2244zm-13.959-21.014c-10.3-0.0945-14.89 12.67-7.6 19.66l0.0682 0.0682c0.7569 0.6775 1.262 1.592 1.433 2.593v2.866c0.0044 0.3032-0.9173 0.6422-1.221 0.6379 0.7134 0.51 1.8109 0.9445 3.1198 1.2657v-1.8588c0-0.1326 0.0527-0.2598 0.1464-0.3536 0.0938-0.0937 0.221-0.1464 0.3536-0.1464s0.2598 0.0527 0.3536 0.1464c0.0937 0.0938 0.1464 0.221 0.1464 0.3536v2.0744c0.6371 0.1196 1.3092 0.2139 2 0.2793v-2.3537c0-0.1326 0.0527-0.2598 0.1464-0.3536 0.0938-0.0937 0.221-0.1464 0.3536-0.1464s0.2598 0.0527 0.3536 0.1464c0.0937 0.0938 0.1464 0.221 0.1464 0.3536v2.4274c0.6614 0.0348 1.3325 0.0428 2 0.021v-2.4484c0-0.1326 0.0527-0.2598 0.1464-0.3536 0.0938-0.0937 0.221-0.1464 0.3536-0.1464s0.2598 0.0527 0.3536 0.1464c0.0937 0.0938 0.1464 0.221 0.1464 0.3536v2.3927c0.6826-0.0542 1.3542-0.1418 2-0.266v-2.1267c0-0.1326 0.0527-0.2598 0.1464-0.3536 0.0938-0.0937 0.221-0.1464 0.3536-0.1464s0.2598 0.0527 0.3536 0.1464c0.0937 0.0938 0.1464 0.221 0.1464 0.3536v1.8986c1.2755-0.3401 2.4062-0.8454 3.2602-1.5447-0.4634-0.6553-0.8904-1.1023-1.2198-1.4471-0.8709-0.9119-1.0588-1.1086 0.5688-2.5489 9.338-8.941 1.889-21.5-8.414-21.59l0.0048 1e-4zm-0.88 16.12c0 1.6569-1.3431 3-3 3-1.6568 0-3-1.3431-3-3 0-1.6568 1.3432-3 3-3 1.6569 0 3 1.3432 3 3zm6.36 3c1.6568 0 3-1.3431 3-3 0-1.6568-1.3432-3-3-3-1.6569 0-3 1.3432-3 3 0 1.6569 1.3431 3 3 3zm-2.4087 2.34c0.3397 0.5741-0.5214 1.0842-0.8613 0.51l-1.5156-2.561-1.516 2.561c-0.3399 0.574-1.2012 0.0642-0.8613-0.51l1.978-3.343c0.0894-0.1605 0.2629-0.2556 0.3991-0.2446 0.1362-0.011 0.3097 0.0841 0.3991 0.2446l1.978 3.343z" clip-rule="evenodd"/><path d="m43.36 51.61c-0.2607-2e-4 -0.511-0.1022-0.6976-0.2842-0.1866-0.1821-0.2948-0.4298-0.3014-0.6904l-0.0732-4.865c0.166-1.0908 0.7422-2.077 1.611-2.757l0.27-0.2769c1.9212-1.9825 2.978-4.6457 2.939-7.406-0.0132-2.9369-1.1919-5.7484-3.277-7.8166-2.0852-2.0683-4.9061-3.2241-7.843-3.2134-0.7514 8e-4 -1.5013 0.0647-2.242 0.1909-1.9225 0.3738-3.7094 1.2568-5.1742 2.557-1.4648 1.3001-2.5536 2.9696-3.153 4.8342-0.5993 1.8645-0.6871 3.8558-0.2541 5.7659 0.4329 1.9101 1.3706 3.6689 2.7153 5.0929 0.7676 0.8052 1.732 1.817 1.732 3.004v5.866c0 0.2652-0.1054 0.5195-0.2929 0.7071-0.1875 0.1875-0.4419 0.2929-0.7071 0.2929s-0.5196-0.1054-0.7071-0.2929c-0.1875-0.1876-0.2929-0.4419-0.2929-0.7071v-5.866c0-0.3867-0.7822-1.208-1.116-1.558l-0.0732-0.0767c-1.5916-1.6858-2.7012-3.7681-3.2125-6.0294-0.5114-2.2613-0.4059-4.6185 0.3056-6.8251 0.7114-2.2065 2.0026-4.1814 3.7385-5.7181s3.8528-2.5789 6.1294-3.0174c0.8601-0.1481 1.7312-0.2231 2.604-0.2241 3.4639-0.0107 6.7905 1.3531 9.2501 3.7921s3.8514 5.754 3.8699 9.2179c0.0464 3.2797-1.2064 6.4446-3.485 8.804l-0.3047 0.3111c-0.2793 0.2822-1.024 1.032-1.03 1.323l0.0732 4.84c0.0064 0.2651-0.0926 0.5219-0.2753 0.7141-0.1827 0.1921-0.4342 0.304-0.6993 0.3109l-0.0265 3e-4z"/></g><g id="c"><path fill="#3F3F3F" d="M67 17H5V55H67V17Z"/><g fill="#fff" stroke="#fff" stroke-linecap="round" stroke-linejoin="round"><path d="m49.63 26.91 1.637-1.637s1.188 1.098 2.143 0.8251c0.8972-0.2526 1.476-0.9915 1.364-1.917-0.3393-1.318-1.661-1.96-2.979-1.622 0.3103-0.9535 0.1181-2.044-0.5706-2.772-1.095-0.8427-2.483-0.5794-3.216 0.5923-0.8187 1.296 0.9402 2.437 0.9402 2.437l-1.436 1.544 2.1174 2.5496z"/><path d="m22.87 44.84-1.978 2.043c-0.4447-0.8727-1.449-1.303-2.388-1.023-0.8976 0.2522-1.369 1.013-1.257 1.939 0.3393 1.319 1.531 1.961 2.872 1.774-0.2561 1.019 0.0337 1.827 0.7224 2.556 1.082 0.8941 2.448 0.7531 3.151-0.4622 0.1243-0.5987 0.2883-1.547-0.8033-2.366l1.428-1.432-1.7471-3.0288z"/><path d="m22.5 26.98-1.706-1.706s-1.231 1.076-2.186 0.8034c-0.8972-0.2526-1.346-0.9048-1.234-1.83 0.3393-1.319 1.618-2.026 2.937-1.687-0.3103-0.9535-0.0747-2.087 0.614-2.816 1.095-0.8427 2.375-0.5143 3.107 0.6574 0.8187 1.296-0.9798 2.446-0.9798 2.446 0.2046 0.2046 0.8494 0.796 1.668 1.683l-2.2202 2.4492z"/><path d="m49.22 44.93c1.023 0.9552 1.637 1.724 1.842 1.929 0.4447-0.8727 1.363-1.26 2.301-0.9796 0.8972 0.2526 1.433 1.078 1.321 2.004-0.3388 1.319-1.705 1.875-3.024 1.535 0.3103 0.9535 0.1181 2.022-0.5706 2.751-1.082 0.8941-2.47 0.7098-3.172-0.5056-0.3411-0.7505-0.2015-1.634 0.8901-2.453l-1.433-1.432 1.8455-2.8488z"/></g><path fill="#fff" fill-rule="evenodd" d="m27.6 43.08c-7.29-6.99-2.7-19.754 7.6-19.66l-0.0048-1e-4c10.303 0.09 17.752 12.649 8.414 21.59-1.6276 1.4403-1.4397 1.637-0.5688 2.5489 0.3294 0.3448 0.7564 0.7918 1.2198 1.4471-0.854 0.6993-1.9847 1.2046-3.2602 1.5447v-1.8986c0-0.1326-0.0527-0.2598-0.1464-0.3536-0.0938-0.0937-0.221-0.1464-0.3536-0.1464s-0.2598 0.0527-0.3536 0.1464c-0.0937 0.0938-0.1464 0.221-0.1464 0.3536v2.1267c-0.6458 0.1242-1.3174 0.2118-2 0.266v-2.3927c0-0.1326-0.0527-0.2598-0.1464-0.3536-0.0938-0.0937-0.221-0.1464-0.3536-0.1464s-0.2598 0.0527-0.3536 0.1464c-0.0937 0.0938-0.1464 0.221-0.1464 0.3536v2.4484c-0.6675 0.0218-1.3386 0.0138-2-0.021v-2.4274c0-0.1326-0.0527-0.2598-0.1464-0.3536-0.0938-0.0937-0.221-0.1464-0.3536-0.1464s-0.2598 0.0527-0.3536 0.1464c-0.0937 0.0938-0.1464 0.221-0.1464 0.3536v2.3537c-0.6908-0.0654-1.3629-0.1597-2-0.2793v-2.0744c0-0.1326-0.0527-0.2598-0.1464-0.3536-0.0938-0.0937-0.221-0.1464-0.3536-0.1464s-0.2598 0.0527-0.3536 0.1464c-0.0937 0.0938-0.1464 0.221-0.1464 0.3536v1.8588c-1.3089-0.3212-2.4064-0.7557-3.1198-1.2657 0.3037 0.0043 1.2254-0.3347 1.221-0.6379v-2.866c-0.171-1.001-0.6761-1.9155-1.433-2.593l-0.0682-0.0682z" clip-rule="evenodd"/><g><path d="m37.41 45.39c0.3399 0.5742 1.201 0.0641 0.8613-0.51l-1.978-3.343c-0.0894-0.1605-0.2629-0.2556-0.3991-0.2446-0.1362-0.011-0.3097 0.0841-0.3991 0.2446l-1.978 3.343c-0.3399 0.5742 0.5214 1.084 0.8613 0.51l1.516-2.561 1.5156 2.561z"/><path d="m31.32 42.54c1.6569 0 3-1.3431 3-3 0-1.6568-1.3431-3-3-3-1.6568 0-3 1.3432-3 3 0 1.6569 1.3432 3 3 3z"/><path d="m40.68 42.54c1.6568 0 3-1.3431 3-3 0-1.6568-1.3432-3-3-3-1.6569 0-3 1.3432-3 3 0 1.6569 1.3431 3 3 3z"/><path d="m43.36 49.61c-0.2607-2e-4 -0.511-0.1022-0.6976-0.2842-0.1866-0.1821-0.2948-0.4298-0.3014-0.6904l-0.0732-2.865c0.166-1.0908 0.7422-2.077 1.611-2.757l0.27-0.2769c1.9212-1.9825 2.978-4.6457 2.939-7.406-0.0132-2.9369-1.1919-5.7484-3.277-7.8166-2.0852-2.0683-4.9061-3.2241-7.843-3.2134-0.7514 8e-4 -1.5013 0.0647-2.242 0.1909-1.9225 0.3738-3.7094 1.2568-5.1742 2.557-1.4648 1.3001-2.5536 2.9696-3.153 4.8342-0.5993 1.8645-0.6871 3.8558-0.2541 5.7659 0.4329 1.9101 1.3706 3.6689 2.7153 5.0929 0.7676 0.8052 1.732 1.817 1.732 3.004v2.866c0 0.2652-0.1054 0.5195-0.2929 0.7071-0.1875 0.1875-0.4419 0.2929-0.7071 0.2929s-0.5196-0.1054-0.7071-0.2929c-0.1875-0.1876-0.2929-0.4419-0.2929-0.7071v-2.866c0-0.3867-0.7822-1.208-1.116-1.558l-0.0732-0.0767c-1.5916-1.6858-2.7012-3.7681-3.2125-6.0294-0.5114-2.2613-0.4059-4.6185 0.3056-6.8251 0.7114-2.2065 2.0026-4.1814 3.7385-5.7181s3.8528-2.5789 6.1294-3.0174c0.8601-0.1481 1.7312-0.2231 2.604-0.2241 3.4639-0.0107 6.7905 1.3531 9.2501 3.7921s3.8514 5.754 3.8699 9.2179c0.0464 3.2797-1.2064 6.4446-3.485 8.804l-0.3047 0.3111c-0.2793 0.2822-1.024 1.032-1.03 1.323l0.0732 2.84c0.0064 0.2651-0.0926 0.5219-0.2753 0.7141-0.1827 0.1921-0.4342 0.304-0.6993 0.3109l-0.0265 3e-4z"/><path d="m22.14 53.32c-0.6415 0.0041-1.2622-0.2277-1.744-0.6514-0.334-0.3298-0.5876-0.7321-0.741-1.1757-0.1535-0.4436-0.2028-0.9166-0.144-1.3823-0.6762-0.0072-1.3335-0.2242-1.881-0.6211-0.2704-0.1907-0.4997-0.4339-0.6741-0.7152-0.1744-0.2812-0.2903-0.5947-0.3409-0.9218-0.073-0.5667 0.0612-1.1407 0.3777-1.6164 0.3166-0.4757 0.7943-0.8211 1.3453-0.9726 0.4569-0.1363 0.9431-0.1398 1.4019-0.0101s0.8712 0.3872 1.1891 0.7425l1.56-1.56c0.0942-0.0918 0.2207-0.1428 0.3522-0.1419 0.1315 8e-4 0.2574 0.0534 0.3504 0.1464s0.1456 0.2189 0.1464 0.3504-0.0502 0.2581-0.142 0.3522l-1.978 1.978c-0.0548 0.0555-0.122 0.0972-0.1959 0.1218-0.074 0.0246-0.1528 0.0314-0.2299 0.0198-0.0771-0.0113-0.1506-0.0405-0.2145-0.0851-0.0639-0.0447-0.1165-0.1036-0.1537-0.1722-0.1605-0.3233-0.4305-0.5791-0.7619-0.722-0.3315-0.1428-0.7029-0.1634-1.0481-0.058-0.3151 0.09-0.5886 0.2878-0.7728 0.5588s-0.2675 0.5981-0.2352 0.9242c0.0321 0.1964 0.1035 0.3843 0.2101 0.5524 0.1065 0.168 0.246 0.3128 0.4099 0.4256 0.2591 0.182 0.5522 0.3099 0.8618 0.3763 0.3095 0.0663 0.6293 0.0697 0.9402 0.0099 0.0827-0.016 0.1682-0.0101 0.2479 0.0169 0.0798 0.0271 0.1512 0.0744 0.2071 0.1374 0.0567 0.062 0.0969 0.1372 0.1169 0.2188s0.0191 0.1669-0.0026 0.248c-0.126 0.3794-0.1494 0.7853-0.0678 1.1766 0.0817 0.3913 0.2654 0.7541 0.5326 1.0514 0.1962 0.1579 0.4238 0.2722 0.6676 0.3353 0.2438 0.0632 0.4983 0.0737 0.7465 0.0309 0.2482-0.0427 0.4844-0.1378 0.693-0.2789 0.2086-0.1412 0.3848-0.325 0.5169-0.5395 0.0966-0.2139 0.3984-0.8769-0.8018-1.776-0.0574-0.043-0.1048-0.0978-0.1392-0.1607-0.0343-0.0629-0.0547-0.1325-0.0598-0.204s0.0052-0.1432 0.0303-0.2104c0.0251-0.0671 0.0643-0.1281 0.115-0.1788l1.433-1.433c0.0942-0.0918 0.2207-0.1428 0.3522-0.1419 0.1315 8e-4 0.2574 0.0534 0.3504 0.1464s0.1456 0.2189 0.1464 0.3504-0.0502 0.2581-0.142 0.3522l-1.048 1.048c0.391 0.2984 0.6699 0.7199 0.7918 1.1964 0.122 0.4764 0.0797 0.9801-0.1199 1.4296-0.1866 0.3554-0.4517 0.6636-0.7752 0.9011-0.3235 0.2376-0.6969 0.3983-1.0918 0.4699-0.1926 0.0406-0.3888 0.0612-0.5856 0.0615l-0.0019-1e-4z"/><path d="m22.5 27.49c-0.0657 1e-4 -0.1307-0.0128-0.1914-0.0379-0.0606-0.0252-0.1157-0.0621-0.1621-0.1086l-1.382-1.381c-0.3148 0.2895-0.6886 0.5072-1.0957 0.6382-0.4071 0.1309-0.8378 0.1719-1.2623 0.1201-0.5538-0.1534-1.0334-0.5021-1.3499-0.9818-0.3166-0.4796-0.4488-1.0576-0.3721-1.6272 0.0524-0.3237 0.169-0.6338 0.343-0.9118 0.1739-0.278 0.4018-0.5185 0.67-0.7072 0.5478-0.3962 1.205-0.6125 1.881-0.6191-0.059-0.465-0.0102-0.9373 0.1428-1.3804 0.1529-0.4431 0.4058-0.845 0.739-1.1746 0.2756-0.2456 0.6018-0.4276 0.9555-0.5333 0.3537-0.1056 0.7264-0.1322 1.0915-0.078 0.4256 0.0633 0.8335 0.2139 1.1981 0.4422 0.3646 0.2284 0.6782 0.5296 0.9209 0.8848 0.2446 0.4817 0.3038 1.0365 0.1662 1.559-0.1375 0.5224-0.4621 0.9762-0.9122 1.275 0.3056 0.2925 0.7324 0.71 1.238 1.259 0.0476 0.0477 0.085 0.1044 0.1101 0.1669 0.0251 0.0624 0.0373 0.1293 0.0359 0.1966s-0.0163 0.1336-0.044 0.195c-0.0276 0.0613-0.0673 0.1165-0.1168 0.1622-0.0494 0.0456-0.1076 0.0808-0.171 0.1034-0.0634 0.0227-0.1307 0.0323-0.1979 0.0282-0.0672-4e-3 -0.1329-0.0215-0.1931-0.0515s-0.1138-0.0719-0.1575-0.1231c-0.6114-0.6626-1.106-1.129-1.4-1.408l-0.2237-0.2148c-0.0527-0.0527-0.093-0.1166-0.1178-0.1869-0.0249-0.0703-0.0337-0.1452-0.0258-0.2194 0.0079-0.0741 0.0322-0.1456 0.0713-0.2091 0.039-0.0635 0.0918-0.1175 0.1544-0.158 0.0146-0.01 1.483-0.9771 0.94-1.837-0.1639-0.2338-0.3738-0.4318-0.6167-0.582s-0.5138-0.2493-0.7963-0.2915c-0.2216-0.0351-0.4483-0.0204-0.6635 0.0431-0.2152 0.0636-0.4135 0.1743-0.5805 0.3241-0.2691 0.2958-0.4539 0.6584-0.5351 1.0499-0.0813 0.3915-0.056 0.7977 0.0732 1.1761 0.0216 0.0811 0.0225 0.1663 0.0025 0.2478s-0.0601 0.1566-0.1168 0.2185c-0.0564 0.0625-0.1278 0.1095-0.2074 0.1366-0.0797 0.0271-0.1649 0.0334-0.2477 0.0182-0.3106-0.0603-0.6303-0.0573-0.9397 0.0088-0.3095 0.0661-0.6024 0.1939-0.8613 0.3759-0.162 0.1103-0.3002 0.252-0.4066 0.4166-0.1063 0.1646-0.1786 0.3489-0.2125 0.5419-0.0365 0.3292 0.0445 0.6607 0.2288 0.936 0.1843 0.2752 0.4599 0.4764 0.7782 0.568 0.5078 0.149 1.413-0.5014 1.77-0.8378 0.0946-0.0894 0.2204-0.1384 0.3506-0.1366 0.1302 0.0019 0.2546 0.0545 0.3466 0.1466l1.706 1.706c0.0699 0.0699 0.1175 0.159 0.1368 0.256s0.0094 0.1975-0.0285 0.2889c-0.0378 0.0913-0.1019 0.1694-0.1841 0.2243-0.0822 0.055-0.1788 0.0843-0.2777 0.0843l-7e-4 -0.0016z"/><path d="m49.79 53.32c-0.1972-3e-4 -0.3939-0.0209-0.5869-0.0615-0.3942-0.0715-0.7669-0.2318-1.0901-0.4686-0.3231-0.2368-0.5881-0.5441-0.7749-0.8984-0.2001-0.4499-0.2428-0.9541-0.1212-1.4313 0.1215-0.4771 0.4002-0.8994 0.7912-1.1987l-1.048-1.048c-0.0918-0.0942-0.1428-0.2207-0.142-0.3522 8e-4 -0.1316 0.0534-0.2574 0.1464-0.3504s0.2189-0.1457 0.3504-0.1465 0.258 0.0502 0.3522 0.142l1.434 1.434c0.0505 0.0507 0.0895 0.1117 0.1144 0.1787 0.0249 0.0671 0.0351 0.1388 0.0299 0.2102-0.0052 0.0713-0.0257 0.1408-0.06 0.2036s-0.0817 0.1175-0.139 0.1604c-1.199 0.9-0.8984 1.562-0.8 1.78 0.1327 0.2141 0.3095 0.3975 0.5186 0.538 0.209 0.1406 0.4456 0.235 0.6939 0.2771 0.2484 0.0422 0.5029 0.031 0.7466-0.0328s0.471-0.1787 0.6669-0.337c0.2663-0.2973 0.4492-0.6597 0.5301-1.0505 0.081-0.3907 0.0571-0.796-0.0692-1.1745-0.0217-0.0812-0.0226-0.1665-0.0026-0.2481s0.0602-0.1568 0.1169-0.2187c0.0562-0.0628 0.1275-0.11 0.2073-0.137 0.0797-0.027 0.1651-0.033 0.2478-0.0173 0.3109 0.0591 0.6305 0.0555 0.94-0.0107 0.3095-0.0663 0.6026-0.1938 0.862-0.375 0.1617-0.1105 0.2996-0.2522 0.4058-0.4167 0.1061-0.1645 0.1783-0.3485 0.2124-0.5413 0.037-0.3292-0.0438-0.6608-0.2279-0.9361s-0.4598-0.4765-0.7781-0.5679c-0.3452-0.105-0.7164-0.0842-1.0478 0.0586-0.3314 0.1427-0.6014 0.3983-0.7622 0.7214-0.037 0.0685-0.0896 0.1275-0.1534 0.1721-0.0638 0.0447-0.1372 0.0739-0.2143 0.0852-0.0771 0.0114-0.1557 0.0045-0.2297-0.0199s-0.1413-0.0658-0.1965-0.1207l-0.2187-0.2271c-0.292-0.3076-0.837-0.88-1.61-1.604-0.0512-0.0439-0.093-0.0977-0.1229-0.1582-0.0299-0.0604-0.0472-0.1263-0.051-0.1937-0.0038-0.0673 0.0061-0.1347 0.0291-0.1981s0.0585-0.1215 0.1046-0.1708c0.046-0.0494 0.1015-0.0888 0.1631-0.1161 0.0617-0.0273 0.1283-0.0419 0.1957-0.0428s0.1344 0.0118 0.1967 0.0375c0.0624 0.0256 0.119 0.0636 0.1663 0.1117 0.6377 0.5952 1.123 1.09 1.444 1.425 0.3177-0.3525 0.7289-0.6075 1.1858-0.7354s0.9407-0.1235 1.3952 0.0128c0.5541 0.1532 1.0338 0.5021 1.3502 0.982 0.3165 0.48 0.4482 1.0583 0.3708 1.628-0.0526 0.3234-0.1693 0.633-0.3433 0.9107-0.1739 0.2777-0.4016 0.5178-0.6697 0.7063-0.5476 0.3958-1.2043 0.6124-1.88 0.62 0.0589 0.4649 0.01 0.9373-0.1429 1.3803-0.1529 0.4431-0.4058 0.845-0.739 1.1747-0.4827 0.4245-1.1042 0.6575-1.747 0.6549v8e-4z"/><path d="m49.63 27.42c-0.0989 0-0.1955-0.0294-0.2777-0.0843s-0.1463-0.133-0.1841-0.2244c-0.0379-0.0913-0.0478-0.1918-0.0285-0.2888s0.0669-0.1861 0.1368-0.256l1.636-1.637c0.0921-0.0923 0.2165-0.1451 0.3469-0.1472 0.1303-0.0021 0.2564 0.0467 0.3514 0.136 0.3564 0.3369 1.253 0.9878 1.772 0.8383 0.3151-0.09 0.5886-0.2878 0.7728-0.5588s0.2675-0.5981 0.2352-0.9242c-0.0322-0.1967-0.1039-0.3849-0.2109-0.5532-0.1069-0.1682-0.2468-0.3131-0.4112-0.4258-0.2591-0.1816-0.552-0.3092-0.8614-0.3753s-0.6289-0.0693-0.9396-0.0094c-0.0827 0.0145-0.1678 0.0079-0.2473-0.0192-0.0795-0.027-0.151-0.0737-0.2077-0.1356s-0.0969-0.1372-0.1169-0.2188-0.0191-0.1669 0.0026-0.248c0.126-0.3794 0.1494-0.7853 0.0677-1.1766-0.0816-0.3914-0.2654-0.7541-0.5326-1.0514-0.1669-0.1486-0.3647-0.2583-0.5791-0.3213-0.2145-0.0629-0.4402-0.0774-0.6609-0.0425-0.2832 0.0423-0.5549 0.1419-0.7983 0.2926-0.2435 0.1508-0.4537 0.3497-0.6177 0.5844-0.541 0.8564 0.9277 1.824 0.9424 1.834 0.0626 0.0405 0.1154 0.0945 0.1544 0.158 0.0391 0.0635 0.0634 0.135 0.0713 0.2091 0.0078 0.0742-1e-3 0.1491-0.0259 0.2194-0.0248 0.0703-0.0651 0.1342-0.1178 0.1869l-1.501 1.501c-0.0942 0.0918-0.2207 0.1428-0.3522 0.142-0.1315-9e-4 -0.2574-0.0535-0.3504-0.1465s-0.1456-0.2189-0.1464-0.3504 0.0502-0.258 0.142-0.3522l1.097-1.098c-0.4529-0.2978-0.7804-0.7519-0.9202-1.2756-0.1397-0.5237-0.0819-1.0805 0.1624-1.5644 0.2427-0.3562 0.5566-0.6582 0.9218-0.8871s0.7738-0.3797 1.2002-0.4429c0.3643-0.054 0.7359-0.0275 1.0889 0.0775 0.3529 0.105 0.6786 0.2861 0.9541 0.5304 0.3342 0.3299 0.5879 0.7323 0.7415 1.1761s0.203 0.917 0.1442 1.3829c0.6756 0.0068 1.3325 0.2231 1.88 0.6191 0.2705 0.1909 0.4999 0.4344 0.6744 0.7158 0.1746 0.2814 0.2907 0.595 0.3416 0.9222 0.0732 0.5669-0.0608 1.1412-0.3774 1.6171s-0.7945 0.8214-1.3456 0.9729c-0.4248 0.0516-0.8557 0.0105-1.2631-0.1204-0.4075-0.1309-0.7817-0.3485-1.0969-0.6379l-1.312 1.313c-0.0464 0.0465-0.1016 0.0834-0.1624 0.1085-0.0607 0.0251-0.1259 0.038-0.1916 0.0378l-8e-4 -0.0018z"/></g></g><g id="d"><path d="M67 56H5C4.73478 56 4.48043 55.8946 4.29289 55.7071C4.10536 55.5196 4 55.2652 4 55V17C4 16.7348 4.10536 16.4804 4.29289 16.2929C4.48043 16.1054 4.73478 16 5 16H67C67.2652 16 67.5196 16.1054 67.7071 16.2929C67.8946 16.4804 68 16.7348 68 17V55C68 55.2652 67.8946 55.5196 67.7071 55.7071C67.5196 55.8946 67.2652 56 67 56ZM6 54H66V18H6V54Z"/></g></svg>