<?xml version="1.0" encoding="UTF-8"?>
<svg id="a" viewBox="0 0 72 72" xmlns="http://www.w3.org/2000/svg"><g id="b"><path d="M67 17H5.31909V54.8044H67V17Z" fill="#fff"/><g fill="#5c9e31"><path d="m50.977 40h-29.953c4.4073-0.6361 9.522-1 14.977-1s10.569 0.3639 14.977 1z" clip-rule="evenodd" fill-rule="evenodd"/><path d="m50.977 40v1c0.5245 0 0.9599-0.4052 0.9974-0.9284 0.0376-0.5232-0.3354-0.9864-0.8546-1.0613l-0.1428 0.9897zm-29.953 0-0.1428-0.9897c-0.5191 0.0749-0.8922 0.5381-0.8546 1.0613 0.0375 0.5232 0.4729 0.9284 0.9974 0.9284v-1zm29.953-1h-29.953v2h29.953v-2zm-14.977-1c-5.4971 0-10.66 0.3666-15.12 1.0103l0.2857 1.9794c4.355-0.6285 9.4216-0.9897 14.834-0.9897v-2zm15.12 1.0103c-4.4596-0.6437-9.6223-1.0103-15.12-1.0103v2c5.4122 0 10.479 0.3612 14.834 0.9897l0.2856-1.9794z"/></g><rect x="5" y="48" width="62" height="7" fill="#EA5A47"/><path d="m16.5 23 0.5613 1.7275h1.8163l-1.4694 1.0676 0.5613 1.7274-1.4695-1.0676-1.4695 1.0676 0.5613-1.7274-1.4694-1.0676h1.8163l0.5613-1.7275z" fill="#EA5A47" stroke="#EA5A47" stroke-linejoin="round"/><path d="m25.5 32.5-2 1.5 0.5 0.5 0.8271-0.0497v1c3.5803 0 2.9428-2.6187 5.6729-1.4503 0 0-1.0849 4.1054-3.5267 4.4315l0.0056 0.6306c1.1716 0 0.3285-0.0218 1.5001-0.0218 2.0554-1.2883 3.6542-2.4782 5.021-4.0403 0.6926 2.12 3.3577 2.12 1.5 3.5h1.7574s0.184-0.1723 0.5014-0.61-1.2968-2.9192-1.2968-2.9192 2.538 0.5292 3.538 0.0292c-0.7961 1.9627 1.9817 3.222-1 3.6l0.5 0.4h1.5s1.8158-2.2027 2.1319-3.5497c0.5509 2.8951 5.1509 1.2391 2.3681 3.5497h1l1.5-1c-1.9206-2-1.5327-9.4773-7.0314-9.4773-2.5 0-2.9686 0.4773-3.9686 0.4773s-3.5-1-4.5-1-4.1511 1.8594-4.5 2-1.1729 0.541-1.1729 0.541c-0.5 0-1.5 1.5-1.5 1.5l0.6729 0.459z" fill="#A57939" stroke="#A57939" stroke-linejoin="round"/><path d="m40.5 44.5h12.5m-34 0h16.5" fill="none" stroke="#A57939" stroke-linecap="round" stroke-width="3"/></g><g id="c"><path d="M67 17H5V55H67V17Z" fill="none" stroke="#000" stroke-linecap="round" stroke-linejoin="round" stroke-width="2"/></g></svg>
