<?xml version="1.0" encoding="UTF-8"?>
<svg id="a" viewBox="0 0 72 72" xmlns="http://www.w3.org/2000/svg"><g id="b"><path d="m35.466 10c-5.6661 0-10.266 7.196-10.411 16.155-8.4986 0.45-15.176 4.9212-15.176 10.38 0 5.4648 6.6935 9.9393 15.206 10.38 0.4412 8.5128 4.9157 15.206 10.38 15.206 5.4584 0 9.93-6.6775 10.38-15.176 8.959-0.1444 16.155-4.7445 16.155-10.411 0-5.66-7.18-10.255-16.125-10.41-0.1543-8.9445-4.75-16.124-10.41-16.124z" fill="#d22f27" stroke="#d22f27" stroke-miterlimit="10" stroke-width="2"/><path d="m53.197 18.174c-3.76-3.7595-11.587-2.0371-17.627 3.8114-5.9377-5.34-13.335-6.8044-16.957-3.1826-3.626 3.626-2.1537 11.036 3.202 16.978-5.3557 5.9412-6.828 13.351-3.202 16.977 3.6218 3.622 11.019 2.1578 16.957-3.1826 6.04 5.8486 13.867 7.571 17.627 3.8114 3.7553-3.7553 2.0405-11.569-3.7921-17.606 5.8326-6.0374 7.5474-13.851 3.7921-17.606z" fill="#ea5a47"/><circle cx="35.591" cy="35.781" r="8.0032" fill="#f4aa41" stroke="#f4aa41" stroke-miterlimit="10" stroke-width="2"/><circle cx="35.591" cy="35.781" r="4.4462" fill="#fcea2b" stroke="#fcea2b" stroke-miterlimit="10" stroke-width="2"/></g><g id="c" fill="none" stroke="#000" stroke-linejoin="round" stroke-width="2"><path d="m53.197 18.174c-3.76-3.7595-11.587-2.0371-17.627 3.8114-5.9377-5.34-13.335-6.8044-16.957-3.1826-3.626 3.626-2.1537 11.036 3.202 16.978-5.3557 5.9412-6.828 13.351-3.202 16.977 3.6218 3.622 11.019 2.1578 16.957-3.1826 6.04 5.8486 13.867 7.571 17.627 3.8114 3.7553-3.7553 2.0405-11.569-3.7921-17.606 5.8326-6.0374 7.5474-13.851 3.7921-17.606z" stroke-linecap="round"/><path d="M58.5472,42.8971A8.3115,8.3115,0,0,0,62,36.5345c0-2.5743-1.4854-4.9284-3.9467-6.7446" stroke-linecap="round"/><path d="m28.391 57.71c1.8569 2.7374 4.3417 4.4108 7.0741 4.4108a8.3057 8.3057 0 0 0 6.3507-3.4368" stroke-linecap="round"/><path d="m13.125 30.343a8.2069 8.2069 0 0 0-3.2459 6.1919 7.8549 7.8549 0 0 0 2.5668 5.57" stroke-linecap="round"/><path d="M42.0774,13.77C40.28,11.4144,37.9775,10,35.4655,10a8.3022,8.3022,0,0,0-6.3482,3.4352" stroke-linecap="round"/><circle cx="35.591" cy="35.781" r="8.0032"/><circle cx="35.591" cy="35.781" r="4.4462"/></g></svg>
