<svg xmlns="http://www.w3.org/2000/svg" id="a" viewBox="0 0 72 72"><g id="b"><rect width="62" height="38" x="5" y="17" fill="#fff"/><rect width="34" height="4" x="33" y="22"/><rect width="34" height="4" x="33" y="30"/><rect width="62" height="4" x="5" y="38"/><rect width="62" height="4" x="5" y="46"/><g stroke="#000" stroke-linejoin="round" stroke-width="2"><polygon points="9 24 11 24 10 21"/><polygon points="18 24 20 24 19 21"/><polygon points="27 24 29 24 28 21"/><polygon points="13.5 29 15.5 29 14.5 26"/><polygon points="22.5 29 24.5 29 23.5 26"/><polygon points="9 34 11 34 10 31"/><polygon points="18 34 20 34 19 31"/><polygon points="27 34 29 34 28 31"/></g></g><g id="c"><rect width="62" height="38" x="5" y="17" fill="none" stroke="#000" stroke-linecap="round" stroke-linejoin="round" stroke-width="2"/></g></svg>