<?xml version="1.0" encoding="UTF-8"?>
<svg id="a" viewBox="0 0 72 72" xmlns="http://www.w3.org/2000/svg"><g id="b"><g id="c"><path d="m51.88 55.586a27.017 27.017 0 0 0-35.496-35.496" fill="none" stroke="#a57939" stroke-linecap="round" stroke-linejoin="round" stroke-width="2.8"/><path d="M31.1285,40.8418l-7.098,7.098v6.8521a.6024.6024,0,0,0,1.0283.4259l5.8933-5.8933a.6027.6027,0,0,0,.1764-.4259Z" fill="#d22f27"/><path d="M31.1285,40.8418l-7.098,7.098H17.1784a.6024.6024,0,0,1-.4259-1.0283l5.8933-5.8933a.6027.6027,0,0,1,.4259-.1764Z" fill="#ea5a47"/></g></g><g id="d"><g fill="none" stroke="#000" stroke-width="2"><line x1="19.228" x2="50.454" y1="21.517" y2="52.742" stroke-linecap="round" stroke-linejoin="round"/><path d="m50.218 57.249a2.3515 2.3515 0 0 1-0.4964-2.5908 24.668 24.668 0 0 0-32.41-32.41 2.3493 2.3493 0 0 1-1.8567-4.3162 29.366 29.366 0 0 1 38.583 38.583 2.3526 2.3526 0 0 1-3.82 0.7341z" stroke-miterlimit="10"/><line x1="57.966" x2="22.158" y1="14.064" y2="49.872" stroke-linecap="round" stroke-linejoin="round"/><polyline points="52.596 14.064 57.966 14.064 57.966 19.153" stroke-linecap="round" stroke-linejoin="round"/></g></g></svg>
