<?xml version="1.0" encoding="UTF-8"?>
<svg id="a" viewBox="0 0 72 72" xmlns="http://www.w3.org/2000/svg"><g id="b"><polygon points="32.171 21.4 29.022 18.186 24.488 18.324 21.681 21.698 21.879 24.875 23.154 25.211 30.088 24.612" fill="#9B9B9A"/><path d="m24.796 40.19-0.8333 2.375-2.4718 3.3847-0.1771 2.9668 0.9926 1.2707c1.3077 0.3166 2.5337 0.235 3.6562-0.3501l3-2.1053 2.7996-4.4607 0.4921-3.4977-5.4703 0.5595-1.988-0.1429z" fill="#9B9B9A"/><polyline points="33.61 19.18 29.984 19.959 27 22.336 25.611 24.866 21.502 25.31 15.812 26.875 12.765 29 9.6142 33.622 8.8111 36.508 10.54 38.69 16.754 40 25.431 39.938 27.338 41.25 28.994 42.515 27.276 46.068 26.446 49.246 28.504 50.836 33.61 48.291 36.033 46.927 40.838 47.536 47.004 49.246 52.671 46.927 54.254 45.958 56.724 41.996 57.443 40.192 58.421 33.5 55.684 28.459 51.421 23.216 44.921 21.992 40.475 22.75 38.088 20.693 33.61 19.18" fill="#D0CFCE"/></g><g id="c" fill="none" stroke="#000" stroke-linecap="round" stroke-linejoin="round" stroke-miterlimit="10" stroke-width="2"><path d="m53.592 45.388c-0.888 0.8428-1.9637 1.5428-3.3211 2.1079-2.2113 0.9206-4.6535 1.136-7.0265 0.8101l-8.9309-1.2267"/><path d="m40.077 23.492c2-1 5-2 10 0 3.8282 1.5313 10 8 7.0199 15.95-0.2141 0.5711-0.4314 1.1152-0.6588 1.633"/><path d="m36.67 41.618c-0.5145 1.8742-4.3697 6.5546-5.8144 8.322-1.6076 1.9668-6.7002 0.5522-4.8585-3.1099 0.7387-1.4689 1.9142-2.6962 2.1526-4.323 0.0514-0.3507 0.0819-0.6918 0.0967-1.018"/><path d="m22.382 49.219c-0.6896-0.7299-0.8252-1.9762 0.3992-3.6776 0.6175-0.858 2.1556-2.6643 2.2769-4.741 0 0-2.9074-0.2291-4.2157-0.233-13.839-0.042-12.042-5.1665-11.858-5.6907 0.2987-0.853 4.0154-6.5648 6.9052-8.0097 4.3697-2.1849 9.6853-1.6357 9.6853-1.6357 1.5022-5.7393 10.525-9.6715 14.202-1.0924 3.2773 7.647-4.6994 10.353-7.6994 10.353"/><path d="m56.437 41.074c2 0 3.6401 3.4173 2.6401 6.4173s-1.8218 3.9576-6.1915 6.1425c-8.7394 4.3697-19.664 2.1849-29.645 0.3599-6.311-1.154-9.2354 0.6406-10.164 2.4977-1.0924 2.1849 1.6796 5.8607 7.0357 4.7895"/><path d="m22.651 21.698c0.1574-0.8515 0.4634-1.624 0.8426-2.1859 2.2057-3.2685 6.8333-1.8141 7.6419 0"/></g></svg>
