<svg xmlns="http://www.w3.org/2000/svg" id="a" viewBox="0 0 72 72"><g id="b"><path fill="#D0CFCE" d="m27.421 21.417s1.25 2.2191 3.5 3.7762 10.333 2.5571 10.333 2.5571l9.2123-2.2944s6.0646 1.4402 7.4908 3.0883 7.9531 6.8283 0 15.309l0.2389 6.5619-0.513 10.881s-1.0214 1.2169-1.429 1.2169c-0.4077 0-2.8165-1.2169-2.8165-1.2169l0.3165-5.7958-0.4167-3.25-2.6667-5.25-2.25-1.7644s-3.6692 1.3718-4.3333 1.3484-8.0016 0.416-8.0016 0.416-3.2406-0.0821-4.2862-0.8744l-2.8158 13.994-1.6999 0.9492-2.5097-1.0779 0.7298-12.158-0.7298-2.5977c-2.9225 0.0141-4.7627-1.6712-5.9368-4.4023l-3.338-7.061-1.079-5.2069-6.1626-1.7813-1.661-3.7008 4.4991-2.856 1.6358-1.7873 3.1933-2.7895s3.0425-4.1482 6.1441-2.2744 5.1726 4.1393 5.1726 4.1393l0.179 3.9013z"/><path fill="#A57939" d="m15.091 16.971s-0.0553 2.7787 4.2521 2.2162l1.8699-1.0705 1.1497 0.5825v1.9255l-1.322 1.6734-2.7027-0.6734-2.2805-0.0234-0.3451 1.1858 0.8418 1.7111 1.5338 1.8139h2.75l3.5255-0.8063 2.6117-3.0306 0.6188-2.7873-0.506-3.1257-2.0625-2.1875-3.3721-1.1395-3.2188 0.3255-3.3436 3.4103z"/><path fill="#fff" d="m23.463 26.312s-0.926 4.6708-7.963 5.9291l2.4651 6.4437s1.2176 5.0565 2.1229 5.1674c0.9054 0.1109 4.895 1.8209 4.895 1.8209s3.7861-2.5068 7.3205-0.7152l-0.4716-3.5115s9.8394-4.0719 16.235 1.8031c0 0 7.034-3.159 9.9024 4.358l0.299-4.358 3.3541-4v-4.625l-2.2387-4.433-3.8811-3.3446-4.1445-1.6545-5.2645 1.5516-5.6543 0.5404-4.6278-0.4375-5.2469-2.5974-2.9709-1.96s-2.4971 4.2492-4.131 4.0225z"/></g><g id="c" fill="none" stroke="#000" stroke-linecap="round" stroke-linejoin="round" stroke-miterlimit="10" stroke-width="2"><path d="m30.565 25.193 0.5192 0.26s8.4026 3.5753 16.954 0.7563c0 0 8.1052-2.4752 12.269 5.5005 2.7067 5.1842 0.6735 8.54-1.0813 10.254-1.0828 1.0576-1.6594 2.5275-1.4654 4.0286l0.4646 3.5942-0.3795 10.995c-0.0372 1.0771-0.9211 1.931-1.9988 1.931h-0.5794c-1.1966 0-2.1254-1.0437-1.9865-2.2323l0.2318-5.4098c0.073-1.7043-0.3885-3.3889-1.32-4.818l-3.4857-5.3479s-2.8257-5.1567-0.5205-8.8008"/><path d="m36.086 46.126c3.5312 0.4581 9.2266 0.9151 11.654-0.4592"/><path d="m63.038 28.959s3.1975 0.1375 3.3462 4.813"/><path d="m19.558 18.222s2.7513-1.3862 3.0487 1.3862c0.1487 1.3862-0.6784 1.9951-1.3481 2.5483-0.9896 0.8174-3.3808 0.0229-4.7505-0.5393-0.4961-0.2036-1.0303 0.234-0.912 0.757 0.352 1.5559 1.5637 3.7142 4.2163 4.1262 6.4375 1 11.048-7.7853 4.8764-11.911-6.7203-4.492-9.7411 2.6815-9.7411 2.6815l-2.7362 1.4439-1.1154 1.5126s-6.0962 1.6336-4.0962 4.9394l1.75 2.25 4.1958 0.3953c1.136 0.107 2.0137 1.0444 2.0459 2.185l1.028 4.5431 3.6444 7.767c0.504 1.0741 1.4088 1.9079 2.5204 2.3226l2.7982 1.044c0.4563 1.1771 0.7472 2.1251 0.7472 2.1251l-1.1773 11.058c-0.1258 1.1817 0.8004 2.2117 1.9888 2.2117h0.7429c0.9595 0 1.7838-0.6814 1.9643-1.6237l2.7706-14.464c0.0701-0.3659 0.0872-0.7399 0.0507-1.1106l-0.5399-5.4916"/></g></svg>