<svg xmlns="http://www.w3.org/2000/svg" id="a" viewBox="0 0 72 72"><g id="b"><path fill="#e27022" d="M11.2544,25.4963,9.0044,28.12,5.421,31.8315l-.5248,4.649.4148,1.9272,1.575,1.0532,5.8684-1.5834,2.42-.5443.6011,4.67L12.2544,45s-.67.3054-1.1667.5633c-2.0208,2.2486-3.9091,5.7-1.6988,8.3888l3.1988-.1587L13.8428,51.64l.43-2.1447L22.0841,44.61l2.545-2.6064,6.792-.7817,6.7923-.703L42.38,39.04l1.8321,5.64,1.7086,4.08-.77,4.69-.076,1.4726,1.3427,1.2681h1.7535l2.6112-6.5245-.8666-3.3932.14-5.43,2.3413-5.2812,1.3576-3.731s.26-3.451-1.2034-5.2246-8.3385-2.5344-8.3385-2.5344h-7.72l-7.1581.9372-4.9177.4866H20.6745l-4.8368,1.5871-1.5648-.15Z"/><polygon fill="#d0cfce" points="23.463 43.912 23.775 46.938 24.417 49.938 23.94 53.063 24.629 54.637 25.513 55.411 27.963 55.411 29.57 49.662 29.57 41.573 24.629 42.003"/><path fill="#e27022" d="M50.4,42.4235,52.8351,45.43,56.65,48.2323l2.1613,3.4857.7183,3.0647,2.4954.5608,2.1419-2.4529a5.5241,5.5241,0,0,0-1.4255-3.9952l-2.4872-2.6219-2.5-5.7551-1-8.3517-1.75-3.0833-1.3458-1.28H52.15l1.0782,5.8945-1.0157,3.551-2.1572,4.0157Z"/><path fill="#d0cfce" d="M24.4165,41.5733l6.2336-.1358,4.8115-.6344,4.7618-.998L42.38,39.04l.703-4.9774s-6.8176,5.13-18.6566,4.9711Z"/><path fill="#d0cfce" d="m16.796 33.277-0.958 3.2855-0.1595 1.2554-4.9777 0.6138-3.2239 0.87s1.208-5.4057 4.66-7.1348c-5e-4 -2e-4 3.7421-1.1754 4.6591 1.1101z"/><path fill="#d0cfce" d="m53.112 45.201 4.6425-4.683 2.5941 5.59s3.2845 2.4088 3.8161 3.6227a8.1341 8.1341 0 0 1 0.5024 3.16l-3.7042 2.453-1.8432-1.55-0.876-3.2941-0.5751-1.7117-2.2392-1.4529-2.0431-1.7721z"/></g><g id="c" fill="none" stroke="#000" stroke-linecap="round" stroke-linejoin="round" stroke-width="2"><path d="M12.1118,37.5052,9.6868,39.097a2.5683,2.5683,0,0,1-1.41.4213H7.4217A2.5686,2.5686,0,0,1,5.56,38.7189h0a2.5688,2.5688,0,0,1-.6633-2.2384l.8909-4.7966,3.2578-2.51s1.363-5.2538,4.7676-2.6374c3.8838,2.9846-1.7758,5.2236-1.7758,5.2236"/><path d="m14.852 27.619s5.5681-2.7151 9.0881-2.2188a13.166 13.166 0 0 0 4.28-0.1869c5.3712-1.018 16.796-2.6465 22.562 0.5368 0 0 8.7736 2.5188 9.787 17.659a5.0808 5.0808 0 0 0 1.7123 3.5375c1.2438 1.058 4.3018 1.8859 5.0518-2.1974"/><path d="m24.256 37.333s0.9081 5.3808-1.5889 6.9168c-2.7974 1.7208-8.7769 5.4861-8.7769 5.4861s0.6949 5.7817-3.7587 3.5413"/><path d="m16.796 33.277s-2.0215 2.6553-0.6317 8.7261l-4.414 4.33"/><path d="m24.629 42.003s12.571-0.9207 14.909-2.0142 3.0907-0.9552 3.0907-0.9552"/><path d="m42.774 34.5s-1.784 5.1542 3.4593 14.26l-1.2 5.202a1.86 1.86 0 0 0 1.8124 2.2781h0.0024a1.86 1.86 0 0 0 1.7558-1.2463l2.1789-6.2338s-2.6532-4.9632 0.0632-9.7268 1.9879-7.45 1.9879-7.45"/><path d="M49.8724,41.5141s4.0648,5.2765,7.1008,6.7766c2.11,1.0426,1.9436,4.4593,1.9436,4.4593v.173a2,2,0,0,0,2.087,1.9981l.75-.0326a2,2,0,0,0,1.913-1.9981v-.1088"/><path d="m24.629 46.701a18.495 18.495 0 0 1 0 6.36 1.6658 1.6658 0 0 0 1.4659 2.4572h0.41a1.6659 1.6659 0 0 0 1.6107-1.2408l1.0516-4.61-0.3853-8.0173"/><path d="m26.797 25.496s4.0366 3.3371 2.37 12.67"/><path d="m33.388 41.157s2.2784-6.5738 0.6227-11.74"/><path d="m37.126 24.072s2.091 2.5109 2.1744 8.0942"/><path d="M43.1546,23.9437S45.5,25.6667,45.3333,30"/><path d="m21.5 32.662a11.927 11.927 0 0 0-1.68-6.8562"/></g></svg>