<svg xmlns="http://www.w3.org/2000/svg" id="a" viewBox="0 0 72 72"><g id="b"><path fill="#F4AA41" d="m10.921 22.555-4.0185 2.0136-2.5423 1.7802-0.8686 2.7256-1.4696 4.1912 1.8157 2.3282 5.8333-1.5797 1.6224 1.5797 3.6707 1.9249 1.2487 4.3261-4.0418 3.9438-1.4167 4.3797 0.539 2.6654 2.8043 2.3565 3.0014-2.8463s-0.5245-3.0007 0.9404-4.3388 3.3757-3.7385 3.3757-3.7385v8.4005l0.6012 2.5443 2.2353 0.4577 1.3519-1.8344 1.4614-12.922 2.2658 0.2907 5.9944 0.5474 4.2084-2.0965 1.1374 4.6127 3.6984 3.7385-0.79 4.7548 1.175 2.2688 2.5399-1.4963 2.3975-4.1153v-3.6284l-4.1458-4.0474 7.6544 5.3456 2.7721 1.7794 0.7162 5.8899 1.9164 0.9706 1.8163-1.4347-0.7805-9.0342-1.7225-1.3776-3.4836-5.7002 0.2779-4.3048-0.5946-5.3399c-3.7098-1.924-7.58-2.9066-11.633-2.8146l-8.4753-0.0539-7.4206 0.5278-4.8427-1.3913-6.8252-0.2347-1.6817-1.3828-2.3181-0.6309z"/><path fill="#fff" d="m42.213 37.086s-10.688-4.6485-14.25-0.211l-0.8976 4.037 4.3849 0.963 7.2002-1.375 3.5625-3.414z"/><path fill="#fff" d="m19.921 40.875-4.9167 2.6667-3.5503 4.4631v5.4119l4.4253 1.6116 1.4167-2.945s-0.3051-2.6254 0.7435-3.875 3.2982-4.125 3.2982-4.125l-0.25-2.2083-1.1667-1z"/><path fill="#fff" d="m40.629 43.042s7.625-1.2709 9.8333 2.6041v3.7292l-3.75 5.6533-2.2083 0.1827-1.125-1.5443 0.99-4.375-0.6984-1.625-1.4583-2.5295-1.5833-2.0955z"/><path fill="#f4aa41" d="m54.046 33.833s2.5005 9.2708 6.3755 11.812c3.875 2.5417 5.7079 2.9792 7.8745 2.5626 1.8129-0.3486 1.5833-2.5626 1.5833-2.5626h-2.0833l-6.0833-3.2291-1.5719-3.2761-0.7198-2.8489-1.0833-4.0282-3.4637-3.2144-2.0363-1.1324 1.2083 5.9167z"/></g><g id="c" fill="none" stroke="#000" stroke-linecap="round" stroke-linejoin="round" stroke-miterlimit="10" stroke-width="2"><path d="m14.33 24.511h6.2586c0.7536 0 1.4984 0.1615 2.1843 0.4735l0.9154 0.4165c1.3718 0.6241 2.8873 0.8609 4.3831 0.6759 5.4788-0.6773 18.85-0.9925 23.896 1.3062 6.9315 3.1578 6.4836 7.3762 7.3482 9.6455 0.8646 2.2692 2.9583 9.0061 9.6667 8.5999"/><path d="m18.18 35.127c0.4163 2.1503 1.4556 4.6774 3.6201 7.4476v11.151c0 1.1046 0.8954 2 2 2h0.1891c1.0865 0 1.9746-0.8635 1.9993-1.9497 0.0903-3.9687 1.4782-15.208 2.4732-16.836 0 0-0.6371-2.5625-1.25-4.25"/><path d="m12.201 35.006c0.415 0.6388 1.6554 1.4664 2.4862 1.8528 0.4386 0.204 0.753 0.6061 0.8782 1.0733l1.2429 4.6375s-7.3532 3.9727-4.451 10.976c0.2972 0.7173 1.0845 1.4253 2.1262 1.5869 1.0894 0.169 3.0014-0.6707 2.3248-2.6707"/><path d="m27.998 40.685s7.5589 2.9477 14.028-2.9477c0 0 0.1031 1.7447 6.2829 6.0852 0 0 3.7501 2.8987 7.6317 4.7127l0.5507 5.6552c0.0906 0.9305 1.1792 1.5357 2.1141 1.5357 1.0579 0 1.892-0.9006 1.8109-1.9555l-0.615-7.9988c-0.0424-0.5518-0.4406-0.9553-0.9528-1.1649-1.3235-0.5416-3.4173-4.1666-4.7819-7.2291l-0.4167-3.316"/><path d="m38.567 40.083s1.352 4.1254 6.2702 8.5451l-0.8725 4.0737c-0.2501 1.1677 0.6401 2.2688 1.8343 2.2688 0.7351 0 1.4005-0.426 1.7053-1.0949 0.6068-1.3321 1.3466-3.5208 2.0204-4.5392"/><path d="m13.825 26.066c1.7351-2.7653-1.6752-4.625-3.754-2.9065-1.5286 1.2637-2.3807 1.2238-2.3807 1.2238-3.8209 1.0685-3.5524 3.9198-3.5524 3.9198l-1.6985 4.6446c-0.0943 0.3356 0.0237 0.6948 0.2985 0.9092l1.6702 1.3022c0.5103 0.3978 1.188 0.4859 1.7866 0.2402 1.6796-0.6895 5.3397-2.6848 5.3397-5.6474"/><path d="m21.801 44.208s-2.9432 1.5902-4.3161 3.7385"/><path d="m49.18 35.691c-0.8284 0-1.5-0.6716-1.5-1.5s0.6716-1.5 1.5-1.5c0.3365 0 0.6472 0.1108 0.8975 0.298"/><path d="m32.137 32.264c-0.8284 0-1.5-0.6716-1.5-1.5s0.6716-1.5 1.5-1.5c0.3365 0 0.6472 0.1108 0.8975 0.298"/><path d="m40.484 32.877c-0.6478-0.5164-0.7544-1.4601-0.238-2.1079s1.4601-0.7544 2.1079-0.238c0.2632 0.2098 0.437 0.4901 0.5161 0.7924"/><path d="m17.514 32.1c-0.6478-0.5164-0.7544-1.4601-0.238-2.1079s1.4601-0.7544 2.1079-0.238c0.2632 0.2098 0.437 0.4901 0.5161 0.7924"/><path d="m34.395 35.578c0.5438-0.6249 1.4913-0.6907 2.1162-0.1468 0.6249 0.5438 0.6907 1.4913 0.1468 2.1162-0.2209 0.2539-0.5085 0.4155-0.814 0.4814"/><path d="m22.006 34.723c0.5438-0.6249 1.4913-0.6907 2.1162-0.1468 0.6249 0.5438 0.6907 1.4913 0.1468 2.1162-0.2209 0.2539-0.5085 0.4155-0.814 0.4814"/></g></svg>