<?xml version="1.0" encoding="UTF-8"?>
<svg id="a" viewBox="0 0 72 72" xmlns="http://www.w3.org/2000/svg"><g id="b"><path d="m25.99 27.329-2.496 8.7105-9.6982 1.4448s-0.0205 3.1489 0.2295 3.6802 2.7634 4.3159 2.7634 4.3159l4.3616 2.8091 1.5625 1.6562-1.3125 2.1875s-3.1009 2.3394-2.9375 2.5625 0.9193 1.8738 0.9193 1.8738l4.0807 0.4309s3.2812-1.1484 3.3125-1.2421 2.9688-4.8125 2.9688-4.8125 3.939-1.0638 5.3438 1.6562l4.2188-3.6875 2.25-11.656s-1.8438-3.625-1.875-3.75-5.284-5.0518-5.284-5.0518l-5.9035 1.8643-2.5042-2.9918z" fill="#fff"/><path d="m19.275 22.727-6.2269 3.6503-3.9338 6.1468s0.8481 4.1092 0.9419 4.0779 7.875 1.6315 7.875 1.6315l6.5312-2.6003-5.1874-12.906z" fill="#fff"/><path d="m27.63 22.02 1.8557-5.3811-0.815-5.3491-3.4166 1.4572-1.9167 1.3333s-1.1652-2.8309-2.9993-2.7905l-3.2566 3.838-0.7857 4.7025-0.8751 0.9167s0.2626 3.0269 0.8751 3.1667c0.2308 0.0527 0.6721 0.0043 1.1324-0.0764l-3.4191 1.91s-2.4218 8.3974 5.2054 12.335c2.3502 0.1295 3.1521 0.6518 5.4978-1.4832 0 0 3.4489-4.3574 0.5786-10.48-0.028-0.2242-0.0581-0.3881-0.0581-0.3881l2.3972-3.7112z" fill="#3F3F3F"/><path d="m31.758 29.01s13.404 8.9663 4.2419 21.591l-1.0373 2.9375 1.6686 1.9443 6.2064 1.8057 7.5-0.625 5.0625-3.6875 0.4316-3.8946-0.9941-5.8554-3.2855-5.6251-4.5973-5.4061-4.7366-2.8584-10.46-0.3267z" fill="#3F3F3F"/><path d="m55.566 47.517 3.2404-0.5402 3.6875 1.8438s0.1038 3.3438 0.1769 3.4375c0.0731 0.0938-3.0519 3.1698-3.1456 3.2255-0.0938 0.0557-2.375 0.962-2.375 0.962s-3.2812 0.3261-4.8438-0.962l2.9375-2.6318 0.3221-5.3348z" fill="#fff"/></g><g id="c" fill="none" stroke="#000" stroke-linecap="round" stroke-linejoin="round" stroke-miterlimit="10" stroke-width="2"><path d="m23.886 35.532c-2.3651 5.1127-13.238 1.0229-13.238 1.0229-0.5968-0.2704-1.0232-0.816-1.1416-1.4603l-0.3697-2.0127c-0.0882-0.4801 0.0022-0.976 0.2543-1.394l1.9397-3.2171c0.9308-1.5438 2.2842-2.7888 3.9002-3.5877l3.7161-1.8372s3.5476-10.852 9.3212-11.756c0 0 4.591 4.6606-3.478 15.025 0 0 2.0247 1.3871 3.6172 4.0345 0 0 15.256-8.8797 24.903 10.365 8.946 17.846-8.3356 16.735-14.211 15.898-1.4891-0.2122-2.836-1.1028-3.4651-2.4691-0.6568-1.4264-0.5172-3.1231 3.347-3.6205"/><path d="M15,41.1641c0.3333,2.9167,2.0746,6.1553,6.6667,6.8193c0,0,1.4608,1.8086,0,3.3389c0,0-1.351,1.1679-2.4473,2.2562 C17.9523,54.8362,18.8443,57,20.6295,57h3.8928c0.6864,0,1.3249-0.352,1.6913-0.9325l3.7193-5.8926l1.2571-3.965"/><path d="m59 47.983s4.9053-0.1041 3.375 3.8609-5.0417 3.6322-5.0417 3.6322"/><path d="m16.312 20.204c-0.1542-3.0543 0.75-7.2275 4.0259-8.9138 0 0 1.9372-0.233 3.1598 3.1876"/></g></svg>
