<?xml version="1.0" encoding="UTF-8"?>
<svg id="a" viewBox="0 0 72 72" xmlns="http://www.w3.org/2000/svg"><g id="b"><path d="m18.171 25.167-0.2068-0.1171-2.6682-1.5114-3.2982 0.9914s-3.2623 4.3446-3.3309 4.4526c-0.0686 0.1079-2.4959 4.2768-2.4959 4.2768l0.767 2.685s4.733 1.7356 9.8163 0c0 0 4.5631 3.0063 4.1982 7.2812 0 0 5.4684-0.9435 5.4684 3.2749 0 0.2083-0.3377 7.4825-0.3377 7.4825l0.6294 2.9181h2.875l2.5417-12.087 3.6182 0.6865 12.507-0.6866 3.5417-1.4801 1.5 3.1667-1.7945 7.8149 2.2529 2.2267 3.0417-2.9583s-0.8399 3.5834 2.3077 3.1527c2.7083-0.3705 2.8056-1.6944 2.8056-1.6944l0.3033-6.5416-0.3034-2.6771-2.8216-3.0312 1.5-9.5328s-1-8.3493-2.875-9.7208l-25.132-0.6008-8.7017 1.0211-5.7083 1.2083z" fill="#fff"/><path d="m23.282 22.937-6.0445 2.06s-5.4553 1.8146-5.4652 6.8653 3.5658 4.9708 3.5658 4.9708l2.8962 1e-4s2.2519 2.4633 2.5528 5.6066 4.0287 3.3829 4.0287 3.3829l1.6805 1.7614-0.2432 5.548-0.5084 2.5512 1.5934 0.8582 2.4922-0.7044 2.7511-11.456 0.59-4.6421s-1.1667-7.5652-1.25-8.194-0.8402-6.192-1.9201-8.3271l-6.7193-0.2812z" fill="#A57939"/><path d="m40.088 22.937s5 4.1461 4.9167 12.479 6.9142 8.1912 6.9142 8.1912l0.9635 3.8442-1.3407 5.7585 1.1037 2.4729 2.3928-0.4537 3.5095-9.4069s1.983-6.2935 1.5564-6.5125c-0.4267-0.219 0.484-6.3937 0.484-6.3937s0.0053-7.1371-3.414-9.3602l-17.086-0.6192z" fill="#A57939"/></g><g id="c" fill="none" stroke="#000" stroke-linecap="round" stroke-linejoin="round" stroke-miterlimit="10" stroke-width="2"><path d="m59.853 33.259c0.5483 2.1777 0.198 5.6858-1.0426 8.387l-0.8143 5.1605-2.5058 7.6663c-0.2665 0.8154-1.0078 1.3645-1.842 1.3645h-0.2583c-1.3215 0-2.2578-1.3307-1.8481-2.6267l1.6269-6.9876s-4.1332-7.6611-2.9994-11.212"/><path d="m31.05 31.862 1.5307 8.1589-2.5362 15.127c-0.1241 0.9835-0.9267 1.7256-1.888 1.7458l-0.3071 0.0065c-1.3326 0.028-2.2977-1.2976-1.8918-2.6071 0.826-2.6646 0.9821-6.9715-0.2413-9.9115-1.3972-3.3576-0.753-4.9584-0.753-4.9584"/><path d="m35.748 44.501s12.097 1.3113 15.379-1.4411"/><path d="m65.2 44.382s-2.1681-3.6663-1.239-9.2472c1.7192-10.327-6.4472-11.447-6.4472-11.447l-0.3398-0.1311-24.593-0.6192-9.2994 1.0134"/><path d="m58.756 41.987 3.1531 3.8358-0.0649 8.3475c0 0.9206-0.7235 1.6669-1.616 1.6669h-1.681"/><path d="m7.79 22.269c1.9909 2.5381 3.9819 2.5381 3.9819 2.5381"/><path d="m18.975 20.695c1.4174 2.8432-1.7383 4.3023-1.7383 4.3023s-2.717-3.7782-5.4652-0.19l-2.0612 2.4996s-2.1109 3.471-3.5898 5.4622c-0.4114 0.554 0.3304 2.4246 0.6856 3.0185 0.6608 1.105 5.3525 1.7864 9.723 0.2124 0 0 3.6456 0.3266 4.3312 7.0608 0.1304 1.2807 2.7376 3.0159 4.8836 2.731"/><path d="m18.654 31.505c4.7561 1.5524 4.9952-2.4579 4.9952-2.4579v-0.2588c-2.3138-2.7598-4.4562-0.7762-4.4562-0.7762"/></g></svg>
