<svg xmlns="http://www.w3.org/2000/svg" id="a" viewBox="0 0 72 72"><g id="b"><path fill="#3F3F3F" d="m9.688 27.157-3.1846 4.8048 0.0057 2.7046 3.8508 1.7982 5.5418-1.9082s1.8526 6.0554 6.2693 7.041l5.2916 0.4648 0.7084 6.5781-0.4025 5.2298 1.8966 2.4718 1.9312-1.2136 1.5715-7.1295 0.4289-6.4013 7.0751-0.1308 6.0714 0.7325 2.0944 1.3285 5.3196-3.8355 2.451 5.6017-0.2514 8.6226 1.5641 2.345h2.25l1.75-1.4283 0.4348-10.029s-1.103-3.5452-1.1582-3.7649 1.1582-11.872 1.1582-11.872 1.6848-5.0349 0-7.1424-8.9295-1.9046-8.9295-1.9046l-13.987 0.0612s-7.6848-2.1243-10.935 0.5141l-2.2865-0.3616-1.892 2.4167-4.4785-1.0333-3.82-1.7169-5.32 1.5836-1.0192 5.5736z"/><path fill="#3F3F3F" d="m39.796 41.039-1.7683 13.283s-1.315 1.6779-1.5233 1.6362-1.693 0.5833-1.693 0.5833-2.7237-0.0417-3.057-1.2083l1.375-5.75 0.371-6.5463 1.6435-1.8287 4.6521-0.1692z"/><path fill="#9B9B9A" d="m9.2127 16.625c-0.7838-0.3971-2.748 0.2718-4 2.0833-2.0867 3.0193-1.3098 7.7014 5.25 6.0417 0 0 2.0417-3.6667 7.467-0.6992 0 0 5.8915 5.0326 9.908-0.8073 0.6672-1.2435 1.5833-7.1383-3.7083-7.1185l1.8054 4.5699-2.0138 2.1384s-3.6889-1.2917-4.0736-1.375-3.5891-1.2083-3.8202-1.2083-3.1062 0.4583-3.5228 0.8333-2.6667 1.1787-3.3334 1.1667-2.45-0.1259-2.45-0.1259 0.7834-2.9158 0.7-3.0825c-0.0833-0.1666 1.7917-2.4166 1.7917-2.4166z"/></g><g id="c" fill="none" stroke="#000" stroke-linecap="round" stroke-linejoin="round" stroke-miterlimit="10" stroke-width="2"><path d="m8.9109 17.555s-3.968 3.5483-1.7036 5.0512c0.9172 0.6087 2.9356-0.4136 3.4998-1.0225 0.8495-0.9168 3.7525-3.6489 8.2239-0.3394 1.174 0.8689 2.6347 2.5625 5.0689 1.3867 1.5162-0.7324 3.6398-3.5863 0.2605-5.5297"/><path d="m19.153 26.512s2.3202-0.7013 4.6678 1.5608c0 0 0.0058 3.0133-4.5349 3.029"/><path d="m29.168 20.486s2.6885-2.5698 9.6703-0.8573c5.3092 1.3022 12.497 0.3827 15.637-0.1326 1.0363-0.1701 11.713 0.2626 11.017 9.2837-0.4897 6.352-1.9217 11.048 0.7569 14.385"/><path d="m27.337 41.056c-3.3251 0.4223-5.8873 0.4044-7.6501-0.8123-1.8748-1.577-2.9481-3.5708-3.7853-5.6875-1.6255 1.1176-6.5272 1.9792-7.785 1.3629-2.6033-1.2755-1.6134-3.9576-1.6134-3.9576l4.1212-6.2179"/><path d="m34.584 27.613 0.4346 9.4476s-2.7664 4.918-1.976 10.495l-1.466 6.7936c-0.1951 0.9041-0.9947 1.5495-1.9196 1.5495h-0.1172c-1.2916 0-2.2456-1.2282-1.8966-2.4718 0.6333-2.2561 1.2656-5.7606 0.4971-9.2444-1.5235-6.9057-0.411-8.5966-0.411-8.5966"/><path d="m33.438 41.29s10.495-1.1991 15.544 1.3039c0 0 3.1177-3.6885 5.0498-3.9959"/><path d="m50.232 30.102s5.3842 11.086 5.9989 13.062c0.487 1.5655 0.4278 7.9893 0.4355 10.492 0.0093 3.0265 4.3664 2.6583 4.4853 0.2332 0.0937-1.9102 0.3043-5.6929 0.9117-8.5278 0.1792-0.8364 0.2995-1.6849-0.1053-2.4384-0.94-1.7497-1.8987-5.1703-0.9868-9.6829 0.8332-4.1227 0.7776-5.066 0.7776-5.066"/><path d="m39.314 41.154s-1.3498 10.329-1.4115 12.724c-0.0191 0.7432-0.9928 1.3614-1.7362 1.3614h-1.1477"/></g></svg>