<svg xmlns="http://www.w3.org/2000/svg" id="a" viewBox="0 0 72 72"><g id="b" stroke-linecap="round" stroke-linejoin="round" stroke-miterlimit="10" stroke-width="2"><path fill="#5C9E31" stroke="#5C9E31" d="m46 52s17 2 19 0v-1s3-3 1-4-5 0-5 0-2.9167-1.3333-6.4583-4.6667c0 0-1.5417-1.3333-3.5417 0.6667 0 0-2-3-8-3s-24 1-24 1-6-1 0-3 11-2 12 0c0 0-2.6667-8.4167-17.333-5.2083 0 0-12.667 3.2083-5.6667 15.208 0 0 2 4 8 4h30z"/><path fill="#B1CC33" stroke="#B1CC33" d="m23 47s-4.8121 4-3.406 5 3.406 3 3.406 3h4l-3.0324-3s2.0324-1 3.0324-3 0-3.2403 0-3.2403"/><path fill="#B1CC33" stroke="#B1CC33" d="m40 47s-4.8121 4-3.406 5 3.406 3 3.406 3h4l-3.0324-3s2.0324-1 3.0324-3 0-3.2403 0-3.2403"/></g><g id="c" fill="none" stroke="#000" stroke-linecap="round" stroke-linejoin="round" stroke-miterlimit="10" stroke-width="2"><line x1="29" x2="33" y1="52" y2="52"/><path d="m46 52s17 2 19 0v-1s3-3 1-4-5 0-5 0-2.9167-1.3333-6.4583-4.6667c0 0-1.5417-1.3333-3.5417 0.6667 0 0-2-3-8-3s-24 1-24 1-6-1 0-3 11-2 12 0c0 0-2.6667-8.4167-17.333-5.2083 0 0-12.667 3.2083-5.6667 15.208 0 0 2 4 8 4"/><path d="m23 47s-4.8121 4-3.406 5 3.406 3 3.406 3h4l-3.0324-3s2.0324-1 3.0324-3 0-3.2403 0-3.2403"/><path d="m40 47s-4.8121 4-3.406 5 3.406 3 3.406 3h4l-3.0324-3s2.0324-1 3.0324-3 0-3.2403 0-3.2403"/></g></svg>