<?xml version="1.0" encoding="UTF-8"?>
<svg id="a" viewBox="0 0 72 72" xmlns="http://www.w3.org/2000/svg"><g id="b"><path d="m65.838 43.167-4.3333 7.5s-0.2084 7.1042-9.2917 6.7708c0 0-33.188-7.3125-42.833 4.9007l12.716-3.9147 15.974-0.267 16.143 2.4684 8.3451-3.3418 4.2013-4.5332-0.1301-6.8284-0.7913-2.7548" fill="#FFA7C0"/><path d="m66.403 44.989-2.6483-8.1301-5.75-7.1548-7.7943-3.5385-6.9556-0.4988-7.9167 1.5768h-6.4167l-4.25-1.3268-0.5833-3.7949-3.058 1.2949-1.8977 2.0341-6.2763 1.218-7.768 3.0353 1.2245 2.8591 3.7022 2.2401 3.24 1.8548 5.6667 0.2008 1.3333 3.4745 2.5344 3.2867 0.967 1.9638-2.7261 6.4995 0.8914 2.4583 2.6145-0.8041 7.9635-7.0895s2.7213 2.8356 7.1134 3.3021l-1.0661 2.6332 1.0661 1.7192 3.2462-0.6035 3.0134-1.4658 4.5688 1.2403c4.1636 0.5619 7.9047-0.2066 11.064-2.8069 2.156-1.5622 3.7857-3.4567 4.898-5.6778z" fill="#9B9B9A"/></g><g id="c" fill="none" stroke="#000" stroke-linecap="round" stroke-linejoin="round" stroke-miterlimit="10" stroke-width="2"><path d="m19.927 36.034c-6.75 2.4057-9.6365-1.2167-9.6365-1.2167-3.0683 0-4.2715-2.4868-4.6998-3.8443-0.1516-0.4805 0.0785-0.9949 0.5357-1.2065l6.2553-2.895c0.9073-0.4199 1.8704-0.7067 2.8596-0.8514l4.1816-0.6119s5.1722-6.4608 5.5874 0.0426c0 0 0.3333 5.6667-2.8199 4.4545"/><path d="m32.499 35.648c2.4907 3.5284 0 11 0 11l-7.9635 7.0895c-0.4845 0.4893-1.1866 0.6949-1.8585 0.5443l-0.0865-0.0194c-1.2654-0.2836-1.9277-1.6753-1.3501-2.8363 1.4782-2.9711 2.818-6.6461 2.818-6.6461-1.4108-0.7054-2.209-2.6946-2.9129-4.8293"/><path d="m10.333 62.338c13.5-7.3948 30.167-3.9632 42.344-2.2208 8.2188 1.176 18.358-6.3433 12.178-20.273-8.7723-19.77-26.267-13.606-29.035-12.569s-10.81-1.8254-10.81-1.8254"/><path d="m60.677 50.375c-5.302 6.375-14.536 1.7219-14.536 1.7219s-4.7982 2.4447-5.4176 2.4447h-0.1645c-1.5297 0-2.4931-1.6473-1.7431-2.9805l2.3608-4.777c-5.6878-8.5793 6.2429-12.935 6.2429-12.935"/></g></svg>
