<?xml version="1.0" encoding="UTF-8"?>
<svg id="a" viewBox="0 0 72 72" xmlns="http://www.w3.org/2000/svg"><g id="b" fill="#6A462F"><ellipse cx="36" cy="29.763" rx="6.2632" ry="4.0263"/><ellipse cx="36" cy="36.921" rx="4.4737" ry="2.8759"/><ellipse cx="36" cy="50.342" rx="6.2632" ry="10.29"/></g><g id="c" fill="none" stroke="#000" stroke-linecap="round" stroke-linejoin="round" stroke-miterlimit="10" stroke-width="2"><polyline points="31.526 34.684 23.474 31.105 20.79 23.947"/><polyline points="40.474 34.684 48.526 31.105 51.21 23.947"/><polyline points="40.474 38.263 50.316 38.263 53 35.579"/><polyline points="31.526 38.263 21.684 38.263 19 35.579"/><polyline points="32.421 40.158 22.579 49.105 23.474 56.263"/><polyline points="39.579 40.158 50.316 49.105 49.421 56.263"/><polyline points="33.838 25.737 32.421 22.158 33.316 20.368"/><polyline points="37.79 25.737 39.206 22.158 38.311 20.368"/><ellipse cx="36" cy="29.763" rx="6.2632" ry="4.0263"/><ellipse cx="36" cy="36.921" rx="4.4737" ry="2.8759"/><ellipse cx="36" cy="50.342" rx="6.2632" ry="10.29"/></g></svg>
