<svg xmlns="http://www.w3.org/2000/svg" id="a" viewBox="0 0 72 72"><g id="b"><path fill="#D22F27" d="m60 30.378c2-6.1193-3-6.1193-3-6.1193-7 1.0199-2 7.1391-2 7.1391s6 11.219-4.5833 10.825-7.4167-10.825-7.4167-10.825c6.0698-5.1987 4-11.219 4-11.219-3-10.199-11-9.1789-11-9.1789s-8-1.0199-11 8.159c0 0-3 9.1789 4 12.238 0 0 4 11.219-8 11.219 0 0-10 0-4-13.258 0 0 2-7.1391-4-5.0994 0 0-3 1.0199-2 6.1193 0 0-5 21.417 14 16.318 0 0 16-3.0596 22 0s14 1.0199 14-9.1789l-1-7.1391z"/><path fill="#EA5A47" d="m33 32s4 11.449-7 14.572c0 0-7-1.0408-7 5.2041s4 6.2449 6 5.2041 3-4.1633 3-4.1633 0-2.9389-4 0.1836-3-3.306 4-4.3468 10-12.49 8-16.653h-3z"/><path fill="#EA5A47" d="m19.116 45s-2 1-4-1-4-1-4-1-4 1-1 5c0 0 1 2 4 1 0 0 1.8843-1-0.1157-2s-4-2-2-2 6.2314 5 7.1157 0z"/><path fill="#EA5A47" d="m38.608 32s-4 11.449 7 14.572c0 0 7-1.0408 7 5.2041s-4 6.2449-6 5.2041-3-4.1633-3-4.1633 0.3918-2.9389 4.3918 0.1836 2.6082-3.306-4.3918-4.3468-10-12.49-8-16.653h3z"/><path fill="#EA5A47" d="m54 45s2 1 4-1 4-1 4-1 4 1 1 5c0 0-1 2-4 1 0 0-1.8843-1 0.1157-2s4-2 2-2-6.2314 5-7.1157 0z"/></g><g id="c" fill="none" stroke="#000" stroke-linecap="round" stroke-linejoin="round" stroke-miterlimit="10" stroke-width="2"><path d="M60,30c2-6-3-6-3-6c-7,1-2,7-2,7s6,11-4.5833,10.6142C39.8333,41.2284,43,31,43,31c6.0698-5.0974,4-11,4-11c-3-10-11-9-11-9 s-8-1-11,8c0,0-3,9,4,12c0,0,4,11-8,11c0,0-10,0-4-13c0,0,2-7-4-5c0,0-3,1-2,6"/><path d="m33 33s4 11-7 14c0 0-7-1-7 5s4 6 6 5 3-4 3-4"/><path d="m38.709 33s-4 11 7 14c0 0 7-1 7 5s-4 6-6 5-3-4-3-4"/><path d="m19.116 45s-2 1-4-1-4-1-4-1-4 1-1 5c0 0 1 2 4 1"/><path d="m54 45s2 1 4-1 4-1 4-1 4 1 1 5c0 0-1 2-4 1"/></g></svg>