<?xml version="1.0" encoding="UTF-8"?>
<svg id="a" viewBox="0 0 72 72" xmlns="http://www.w3.org/2000/svg"><g id="b"><path d="m17.213 12.75-1.0877 5-2.2873 0.5625-1.8357 1.9925-5.4986 0.6325-0.3532 1.5 1.8421 3.0837 7.0077 1.7913 0.9529 9.8949 0.6348 3.9176 4.9409 3.7104 1.9909 6.1514-0.7999 7.5348 0.7999 3.4576 2.5682-1.1364 1.8939-4.9315 2.1061-9.4113 3.3698 0.875 7.5502-0.875 8.0799-2.1875 2.9401 3.8826 2.9349 3.9953 0.4375 7.6221 1.1875 2.0921 3.1135-0.9228 0.2989-9.2563-1.9497-6.1068 1.2924-6.7437-0.9426-3.4375 1-0.0625-0.625-2.0625s5.2823-4.222 5.3125-9.875c0.038-7.1042-7.2917-13.604-12.583-11.104l1.1133 1.206 4.2201 1.4607 2.9569 3.9292 0.2594 5.8833-2.8497 2.9946s-3.4179 1.3181-3.6082 1.3356c-0.1902 0.0176-3.3571-0.3725-3.7821-0.437s-7.6642-0.2238-7.9142-0.2257c-0.2499-0.0018-13.9-0.105-13.9-0.105l-1.7632-5.0032-2.0795-2.8127-2.3318-1.6423-1.1121-2.9453-1.1257-2.2215-2.375-1z" fill="#F4AA41"/><path d="m44.296 45.156 1.2083 3.5938 4.2567 2.9475-0.2439 6.3442 0.6122 3.863 3.1667 0.512s2.25-0.6667 2.7917-3.5833l-0.75-7.875-3.5-3.5-2.5417-4.2917-5 1.9895z" fill="#E27022"/><path d="m16.675 39.799-5.5255 7.6721c-0.0134 0.0187-0.0215 0.0407-0.0232 0.0636l-0.3272 4.295c-0.0022 0.0291 0.0058 0.0581 0.0227 0.0819l3.1895 4.498c0.0218 0.0307 0.0562 0.05 0.0937 0.0525l3.9491 0.2649c0.0461 0.0031 0.0902-0.0195 0.1146-0.0587l1.1604-1.8636c0.0055-0.0088 0.0075-0.0108 0.0107-0.0206 0.0453-0.1395 0.4485-2.6844-1.1605-2.8839-1.8836-0.2336-2.0546-1.2336-1.6604-2.4479-0.0091-0.0473 0.0098-0.0956 0.0485-0.1243l5.5318-4.0882c0.0602-0.0445 0.0681-0.1316 0.0169-0.1863l-2.8728-3.0624c-0.0194-0.0207-0.0418-0.0339-0.0699-0.0376-0.3001-0.0395-2.229-0.3604-2.2747-2.0886-0.0033-0.1168-0.1555-0.1605-0.2237-0.0659z" fill="#E27022"/></g><g id="c" fill="none" stroke="#000" stroke-linecap="round" stroke-linejoin="round" stroke-miterlimit="10" stroke-width="2"><path d="m58.667 35.917c0.6667 1.6979 0.8506 2.9638 0.5159 4.5011l-1.1322 5.2009 1.9496 6.1068s0.1206 4.7698 0.0014 8.2786c-0.0369 1.087-0.9494 1.9752-2.0371 1.9751h-0.3531c-1.3464 0-1.9256-1.3248-1.9256-2.6712l-0.8522-8.3913s-7.4907-5.4667-6.4583-13.604"/><path d="m33.516 46.5c3.8333-0.2052 11.234 0 14.984-2.6875"/><path d="m51.625 13.25c5.7603 1.5458 8.0746 4.2902 8.6494 7.2047 1.0392 5.269-4.012 9.798-9.2239 8.5024-2.5257-0.6278-4.6488-0.4429-4.6488-0.4429l-18.402-0.1392c-1.6875-8.125-6.4473-9.565-6.4473-9.565-0.8653-5.56-4.3027-5.56-4.3027-5.56l-0.6995 4.8391-1.4644 0.2501c-0.7843 0.1339-1.5121 0.4951-2.0931 1.0387l-1.3525 1.2654-4.1141 0.4425c-0.7613 0.0819-1.229 0.8738-0.9332 1.5801l0.8806 2.1021c0.2896 0.6913 0.9063 1.1916 1.6425 1.3325l6.4671 0.7328s-1 13.167 2.7292 15.167c8.1309 4.3607 4.4071 16.522 4.4071 16.522-0.8217 1.4362-0.1868 3.4576 1.4679 3.4576h0.0015c0.7939 0 1.5235-0.4367 1.8987-1.1364l2.0998-5.4678 1.3773-9.1449c0.1081-0.7178-0.0364-1.4427-0.3653-2.0898-0.576-1.1333-1.2538-3.3607-0.137-6.5257"/><path d="m16.235 40.3-4.3515 6.655c-0.3212 0.4697-0.5044 1.03-0.5192 1.6187-0.044 1.7553-0.2547 5.5414 2.9991 7.69 0.8545 0.5642 2.4644 0.6389 3.3141 0.1114 0.7175-0.4455 1.3028-1.2911 0.7739-2.8914"/><line x1="20.534" x2="16.125" y1="45.437" y2="48.516"/><path d="m46.417 48.516c0.4329 1.5669 3.0772 3.003 4.25 3.7336l-1.0698 7.1428c0 0.6523 0.1869 1.281 0.5906 1.7322 1.0625 1.1875 2.4301 0.6653 2.4301 0.6653"/></g></svg>
