<svg xmlns="http://www.w3.org/2000/svg" id="a" viewBox="0 0 72 72"><g id="b"><path fill="#6A462F" d="m18.256 20.392-1.4733 2.7164-6.8836 4.1102s-4.0991 3.4124-3.7536 4.6981 0.9175 2.8327 0.9175 2.8327 0.1912 2.6601 1.1912 3.497 3.9363 0 3.9363 0l2.9057-0.6172 4.158-0.1292s2.223 2.0833 2.9865 2.25 4.4302 2.0874 4.4302 2.0874-0.4167 2.7282 0 3.737c0.4167 1.0089 1.2734 5.1857 1.2734 5.1857l-0.8227 4.0732 1.6454 2.0833s3.18-0.0069 3.3155-1.5989l1.0051 2.0195 2.4235-0.3976 0.7191-1.5272 0.399-7.183 1.9584-4.7014s1.5 0.7085 2.25 1.0069 5.6889 0 5.6889 0l4.1667-1.9749 3.655 3.6086-0.1854 4.8619-0.3369 3.5493 0.5224 1.3659 1.3309 0.6716 2.2822-0.6716 1.1272-10.86-0.8331-3.2397s4.3089-9.7208 3.2373-12.783-9.4657-7.32-9.4657-7.32l-9.0264-3.0706s-8.9962-2.4218-12.663-2.6718-12.082 4.392-12.082 4.392z"/><path fill="#3F3F3F" d="m22.004 38.246s8.7917 6.2119 16.833 4.1286l-2.2406 6.4345-0.3844 7.8079-3.125 0.7198-1.2705-1.3914s-1.3082 1.2625-3.0501 0.9709c-1.7419-0.2917-2.1169-3.0417-2.1169-3.0417l1.375-4.3125-1.1875-4.25s-4.2924-5.6593-4.8333-7.0661z"/><path fill="#3F3F3F" d="m59.088 38.875s-6.7083-0.125-7.7083 2.5833 2.9689 4.7104 2.9689 4.7104l-0.5522 4.5914-0.1667 4.4482 1.375 1.4091 3.0833-0.4091 1-3.9583 0.5417-7.6667-0.6667-4.7083 0.125-1z"/><path fill="#3F3F3F" d="m23.338 21.688s-5.5 5.5 1.5625 8.6875l3.0442-2.1875s1.0808-3.6875 1.0808-3.9375-0.2581-3.3907-0.2581-3.3907l-1.1169-0.3593-4.3125 1.1875z"/></g><g id="c" fill="none" stroke="#000" stroke-linecap="round" stroke-linejoin="round" stroke-miterlimit="10" stroke-width="2"><path d="m8.9874 37.652s2.0168 1.435 4.2662-0.1551l3.1083 0.2228c1.2161 0.0872 2.411-0.3521 3.2811-1.2061l3.2672-3.2067"/><path d="m13.593 33.272c-0.862-0.6593-1.3426-2.5845-0.4667-4.2095"/><path d="m15.232 32.222c-2.6899 2.3456-8.1684 2.5269-8.1684 2.5269l-0.9175-2.4814c1.2128-4.971 8.4793-7.7055 8.4793-7.7055l2.158-1.4542 0.8422-2.227c4.6223-3.7209 9.9561-5.1271 16.068-4.0947 0 0 22.688 2.9476 27.531 12.165 0 0 1.5911 2.3191-2.9684 12.894l0.8349 3.2467-0.6967 9.7954c-0.0693 0.9744-0.88 1.7295-1.8569 1.7295h-0.8575c-1.0976 0-1.957-0.9448-1.8533-2.0375l0.7712-8.1238-3.6699-4.2393s-2.0681 3.983-9.5452 1.5783"/><path d="m23.816 22.565 3.7744-1.6828c0.4668-0.1173 0.9199 0.2224 0.9441 0.7031 0.1034 2.0556 0.2325 7.379-3.8398 7.7668"/><path d="m22.241 38.661c1.9649 1.5919 5.4102 4.0457 8.5566 4.1126l1.6928 7.755-0.4077 4.7893c-0.0925 1.0865 0.7645 2.0195 1.8549 2.0195h0.4326c1.0539 0 1.903-0.8717 1.8602-1.9248-0.1416-3.4875 0.0316-10.859 3.5901-14.851"/><path d="m27.622 45.574c0.4154 1.9173 0.6969 4.7358-0.4188 8.2036-0.344 1.0692 0.4357 2.1677 1.5588 2.1677h0.0046"/><path d="m64.571 31.077c0.5566 1.0204 1.515 6.2151-0.4484 7.4211-1.9634 1.2059 0.5892 3.3395 0.5892 3.3395"/></g></svg>