<svg xmlns="http://www.w3.org/2000/svg" id="a" viewBox="0 0 72 72"><g id="b"><ellipse cx="36.46" cy="21.915" fill="#3f3f3f" rx="11.02" ry="11.097"/><ellipse cx="36.486" cy="40.683" fill="#d22f27" rx="16.529" ry="17.987"/></g><g id="c"><path fill="none" stroke="#000" stroke-linecap="round" stroke-linejoin="round" stroke-width="2" d="m18.984 21.727c0 3.3082 4.2257 5.9138 5.4833 6.6049"/><path fill="none" stroke="#000" stroke-linecap="round" stroke-linejoin="round" stroke-width="2" d="m14.124 38.257c0 0.7364 3.9538 2.0393 5.8345 2.6284"/><path fill="none" stroke="#000" stroke-linecap="round" stroke-linejoin="round" stroke-width="2" d="m18.984 57.697c0-2.8776 3.1948-4.69 4.8488-5.438"/><path fill="none" stroke="#000" stroke-linecap="round" stroke-linejoin="round" stroke-width="2" d="m49.126 28.53s4.8614-3.8891 4.8614-6.806"/><path fill="none" stroke="#000" stroke-linecap="round" stroke-linejoin="round" stroke-width="2" d="m53.005 40.137a8.4318 8.4318 0 0 0 4.8715-1.8807"/><path fill="none" stroke="#000" stroke-linecap="round" stroke-linejoin="round" stroke-width="2" d="M48.6433,52.8712c1.2575.1133,4.5656.7251,5.3473,3.8519"/><path fill="none" stroke="#000" stroke-linecap="round" stroke-linejoin="round" stroke-width="2" d="m29.678 9.0842c0.759 3.0135 2.0958 3.6932 2.6623 3.8405"/><path fill="none" stroke="#000" stroke-linecap="round" stroke-linejoin="round" stroke-width="2" d="m42.32 12.973s2.6586-2.3334 1.9939-3.889"/><ellipse cx="36.486" cy="40.683" fill="none" stroke="#000" stroke-linecap="round" stroke-linejoin="round" stroke-width="2" rx="16.529" ry="17.987"/><line x1="36.486" x2="36.486" y1="23.668" y2="57.698" fill="none" stroke="#000" stroke-linecap="round" stroke-linejoin="round" stroke-width="2"/><circle cx="26.819" cy="35.28" r="2"/><circle cx="46.265" cy="35.28" r="2"/><circle cx="42.376" cy="41.114" r="2"/><circle cx="46.265" cy="46.947" r="2"/><circle cx="30.708" cy="41.114" r="2"/><circle cx="26.819" cy="46.947" r="2"/><path fill="none" stroke="#000" stroke-linecap="round" stroke-linejoin="round" stroke-width="2" d="m26.46 21.724a10.004 10.004 0 0 1 20 0"/></g></svg>