<svg xmlns="http://www.w3.org/2000/svg" id="a" viewBox="0 0 72 72"><g id="b"><path fill="#92D3F5" d="m16.11 37.461s-5.1101-4.8074-4.0659-11.073 13.575 1.0442 14.619 6.2652c0 0 3.1326-5.221 8.3536-6.2652 0 0-1.0442-5.221 0-8.3536 0 0 11.486-4.1768 15.663 6.2652 0 0 11.486 2.0884 12.53 11.486l-3.1326 2.0884 2.741 2.3495s-0.126 6.9813-11.876 10.147c0 0-2.3517 7.3429-10.705 5.2545l1.0442-5.221s-6.2652 1.0442-14.619-8.3536c0 0-3.1326 9.3978-15.663 7.3094 1e-4 0-0.2218-8.1366 5.1101-11.9z"/><path fill="#61B2E4" d="m41.78 30.918s-7.8664 4.3435-0.8652 11.048"/></g><g id="c" fill="none" stroke="#000" stroke-linecap="round" stroke-linejoin="round" stroke-miterlimit="10" stroke-width="2"><path d="m16.11 37.461s-5.1101-4.8074-4.0659-11.073 13.575 1.0442 14.619 6.2652c0 0 3.1326-5.221 8.3536-6.2652 0 0-1.0442-5.221 0-8.3536 0 0 11.486-4.1768 15.663 6.2652 0 0 11.486 2.0884 12.53 11.486l-3.1326 2.0884 2.741 2.3495s-0.126 6.9813-11.876 10.147c0 0-2.3517 7.3429-10.705 5.2545l1.0442-5.221s-6.2652 1.0442-14.619-8.3536c0 0-3.1326 9.3978-15.663 7.3094 1e-4 0-0.2218-8.1366 5.1101-11.9z"/><path d="m41 31s-6 4-1 11"/></g></svg>