<svg xmlns="http://www.w3.org/2000/svg" id="a" viewBox="0 0 72 72"><g id="b"><path fill="#FFA7C0" d="m17.124 30.476-2.2757 1.6731-2.0804-1.6731s-2.0225 6.0245 0.2319 8.5245 0 0 0 0l-2.7074 3.5319-4.2015 2.0643v2.0705l1.9089 3.3333 6.0877 0.9339h5.9167l3.1143-1.1268-0.9548 4.9429 1.1061 1.3796 2.6389-1.9663 5.6655-9.5671 7.0964 0.701 10-1.1854 4.8485-1.1872 1.7506 4.6619 1.4564 8.0866 1.421 1.3269 1.3884-0.7678 3.5889-16.482s-1.2533-9.2543-6.6191-13.002 0 0 0 0c-6.5936-5.6173-14.54-7.2248-24.041-4.2215-5.723 1.9812-10.837 4.6307-15.341 7.9485z"/><polygon fill="#E67A94" points="48.008 44.596 47.504 50.177 46.707 54.526 48.089 55.673 52.944 50.135 55.084 46 53.213 42.375"/><polygon fill="#E67A94" points="35 44.935 35 52.5 34.088 55.868 30.808 55.375 30.088 51.438 29.713 46.75 30.808 44.935"/></g><g id="c" fill="none" stroke="#000" stroke-linecap="round" stroke-linejoin="round" stroke-miterlimit="10" stroke-width="2"><path d="M18.2668,40.3655C18.2668,40.3655,19,37,18,35c-0.8253-1.6506-5-4-5-4c-0.8997,2.2493-0.6625,6.0065-0.2803,7.0457L13,39 l-0.5222,0.8891c-1.0655,1.8141-2.6341,3.2804-4.5158,4.2212l-1.281,0.6405c-0.5269,0.2635-0.7405,0.9042-0.477,1.4311L8,50 c0,0,6.75,1.6875,11.4451,0.332"/><path d="m15.633 32.131c4.9804-7.1004 36.828-22.241 46.05 3.1369 0.9971 2.7436 1.1827 5.7171 0.577 8.5728-0.7996 3.7694-1.9902 9.3825-2.5201 11.881-0.1583 0.7465-0.8171 1.2788-1.5802 1.2788h-0.0126c-1.0658 0-1.3516-0.8488-1.5523-1.8955-0.5953-3.1045-0.4675-7.884-4.2918-14.483"/><path d="m30.039 34.735s3.5828 5.6301 1.0237 9.7248c-2.0097 3.2155-4.6506 8.6405-5.6921 10.822-0.2774 0.5811-0.8646 0.9503-1.5085 0.9503h-0.0254c-1.147 0-1.9499-1.1202-1.5828-2.2068 0.7577-2.2427 1.5685-5.9644 0.6195-10.077"/><path d="m31.574 44.972s15.867 1.5355 20.985-2.0473"/><path d="M48,45c0,0,0,4-1.1994,8.417c-0.3035,1.1177,0.1299,2.2561,1.2881,2.2561h0c0.5846,0,1.1158-0.3399,1.3608-0.8707L52,50"/><path d="M31.0152,51.5785l-0.1986,2.1841c-0.1367,1.5041,1.4309,2.574,2.7817,1.8986l0.0173-0.0087 c0.609-0.3045,1.0121-0.9076,1.0606-1.5867L35,46"/><path d="m61.284 27.929s6.142-1.5355 2.5592 3.071"/></g></svg>