<svg xmlns="http://www.w3.org/2000/svg" id="a" viewBox="0 0 72 72"><g id="b"><path fill="#A57939" d="m14.905 16.569s-4.0263-2.1683-5.1407-0.4195l1.6065 2.5221-4.0225 3.9723-0.7365 2.2816 0.9757 1.7853 2.8661-0.1759 1.1085 1.2019-0.5683 4.6614s4.5938 0.25 2.7188-6.6493h2.2324l0.1963 2.1493 0.6417 3.4545s0.8915 3.8863 1.5478 3.7955 3.1319 2.4 3.1319 2.4l0.684 3.9778 3.161 3.4406s3.4359 11.656 2.4673 14.566c-0.9687 2.9096-0.7567 3.3723-0.7567 3.3723l2.5692 0.681 2.1608-4.4433-0.8899-14.896s6.9504 5.9571 15.246 1.3046c0 0 0.5321 5.4073 2.4139 6.3462l-1.1489 6.8721-1.9903 3.5042 1.396 0.9868 1.8119-0.3503 3.0314-6.0352 1.1038-10.963 1.178-2.5774 5.3749-7.1527s0.2703-2.5759-1.3092-4.0424-6.5838-3.8558-6.5838-3.8558l-12.67-0.635-11.375 1.5-6.375-10.25-2.6317-2.125c-2e-4 -1e-4 -2.7959-0.5961-3.4259-0.2044z"/><path fill="#6A462F" d="m59.275 36.181s-1.7636 7.4875-2.3125 10.339c-0.3333 1.7317-0.6959 3.819-0.6959 3.819l1.1475 1.996-4.25 11.688s-3.8266 0.5271-4.3891-0.7632l3.1059-4.6743 0.4566-5.5625 0.4375-7.6875 1.1251-2.0016 5.3749-7.1526z"/><path fill="#6A462F" d="m14.588 17.96 3.3466-3.9634 5.2479-0.5321 4.2805 3.7455s-6.75-4.375-9.1317 1.4375l-3.7433-0.6875z"/><polygon fill="#6A462F" points="26.4 48.586 31.025 49.273 31.838 57.71 29.842 63.063 26.4 63.063 28.15 58.336"/><polygon fill="#6A462F" points="52.338 53.023 48.4 53.523 46.916 59.567 45.379 62.273 45.793 63.063 48.15 63.586 50.9 59.059"/><path fill="#6A462F" d="m64.963 26.502s1.9578 10.343-5.8128 10.213c0 0-0.0556-3.1065-1.1839-4.5765l2.4679-2.5651s1.7521-2.2515 1.8614-2.3229 2.6674-0.7486 2.6674-0.7486z"/></g><g id="c" fill="none" stroke="#000" stroke-linecap="round" stroke-linejoin="round" stroke-miterlimit="10" stroke-width="2"><path d="m10.952 31.352c2.1772-4.1292-0.8258-4.955-0.8258-4.955-1.7268 0.8258-2.7778-0.3003-2.7778-0.3003-1.8018-1.7267 0-3.4535 0-3.4535 4.0541-2.8529 4.0225-3.9723 4.0225-3.9723l-1.7276-2.7122s2.4349-2.3246 4.9124 1.0538c0 0 5.931-8.4085 12.463-0.6006"/><path d="m13.956 25.736s3.9033 0.4364 3.9784-3.7678"/><path d="m18.331 17.709s2.2921 0.3123 3.875 3.875c0.7891 1.7761 4.4163 7.4998 4.8126 7.7292 0 0 25.526-5.6186 30.556 2.7899 0 0 1.7267 0.5255 2.7778-2.3274s3.6037-3.2283 3.6037-3.2283"/><path d="m46.401 45.394c-8.9341 4.8799-15.554-1.3532-15.554-1.3532l0.4836 8.8965 0.5 6.0223-1.672 3.7114c-0.1616 0.3586-0.5184 0.5892-0.9117 0.5892h-1.4643c-0.7366 0-1.2204-0.7694-0.9013-1.4333l1.1632-2.9869s-0.0504-1.736-0.5009-5.4147-2.3274-8.7088-2.3274-8.7088c-4.5046-2.5526-3.7538-7.168-3.7538-7.168-5.7057-4.1514-5.3158-12.316-5.3158-12.316"/><path d="m48.678 39.198s-5.0582 6.4486-0.1595 12.699c0 0 0.1019 5.4161-1.8125 8.0625l-1.1586 1.7482c-0.4405 0.6647 0.0361 1.5524 0.8336 1.5524h1.4454c0.2941 0 0.5696-0.1269 0.7608-0.3503 0.9164-1.0706 3.4939-4.5506 3.4939-9.8253 0-5.2399 1.0453-9.0438 1.0453-9.0438 5.0676-4.4483 5.2568-7.8591 5.2568-7.8591"/><path d="m56.039 46.52s-1.065 3.2324 1.375 5.3345l-4.25 11.208"/></g></svg>