<svg xmlns="http://www.w3.org/2000/svg" id="a" viewBox="0 0 72 72"><g id="b"><path fill="#9B9B9A" d="m20.671 18.25-3.6023 1.5802-4.0643 3.6698-0.4252 4.3426-2.4915 7.2143-0.4251 9.1097 1.9224 5.4437 4.9415 3.3897 4.5341-1.0805 1.4437-2.8362-0.5962-2.9808s-2.5903-2.0797-3.4497 1.1334c-0.2382 0.8904-1.1383 1.5096-2.0176 1.2333-0.3541-0.1112-0.7386-0.3395-1.1344-0.7506-2.8968-3.008 1.3438-6.1225 1.3438-6.1225l1.6414-2.2629s4.0394 2.037 6.5844 0.75v2.9168l1.3489 7.5038 0.3507 2.6202-1.6996 3.2094 0.522 1.1577h6.8436l0.8588-1.726s-0.411-8.9621 0.6214-11.03 0 0 0 0l3.9632 1.5529 6.6304-0.7555 5.0148-0.9487c3.2921 0.4679 5.2979 1.7727 5.3891 4.3231l0.3639 4.2229-1.6859 3.2944 0.0237 1.576 5.5771 0.2008 2.2731-1.6758-0.0905-15.523 0.0905-6.9796-0.5294-5.3817-3.0282-4.8426-10.163-5.6653-6.5067 2.5107-6.2321 0.0246-3.8146-2.2172-4.3262-1.4661-4.283 1.0696-1.717 0.196z"/><path fill="#3F3F3F" d="m47.671 44.167 1.0833 3.9167-0.4538 4.25-1.6994 4.3333 3.6949 2.2083s3.5833 0.1515 5.1667-0.6742l-2.0653-1.7768 2.0653-3.1323-0.3333-4.4583-1.1667-2.7917-2.9308-1.5417-3.3609-0.3333z"/></g><g id="c" fill="none" stroke="#000" stroke-linecap="round" stroke-linejoin="round" stroke-miterlimit="10" stroke-width="2"><path d="m21.202 46.717c1.2841 2.2998 0.6705 4.1675-0.3068 5.0943-1.0582 1.0035-3.1239 1.4522-4.5341 1.0805-12.645-3.3328-3.9473-25.157-3.9473-25.157 0.6152-9.2276 8.0852-8.8761 8.0852-8.8761s6.9105-4.5689 11.019 0.1662c1.2299 1.4176 1.7756 3.2996 1.7197 5.1755-0.0871 2.9273 2.8817 6.9577-1.6526 10.358-1.75 1.3125-0.947 5.108-4.5 5.5833 0 0-5.0918 0.5197-5.1797-7.4775"/><path d="m25.315 40.546s-0.3114 2.4517 1.0948 12.47l-1.5105 2.5977c-0.5087 0.8748 0.0629 1.9876 1.0713 2.0714 1.2249 0.1018 3.9499 0.1775 5.2613 0.0134 1.0114-0.1266 1.8256-1.0297 1.7028-2.0416-0.8553-7.0462 0.6214-11.03 0.6214-11.03 4.6607 3.5732 11.223 0.1962 14.914-0.1554 0.7382-0.0703 2.0387 0.1671 2.6527 0.3435 2.3131 0.6643 3.8527 2.1228 3.7945 8.5894l-1.5535 2.5634c-0.4911 0.9067 0.1568 2.0371 1.1652 2.2526 1.1002 0.2352 4.1595-0.0517 5.0685-0.2525 1.7298-0.382 1.6507-2.2086 1.7573-3.9768 0.2273-3.7699-0.0975-9.0142-0.3054-11.744-0.0757-0.9936-0.0446-1.9861 0.1017-2.9718 0.3711-2.5006 3.1904-12.548-8.1712-19.209-6.5744-3.8542-13.193 4.2417-20.625-0.55"/><path d="m18.126 35.908s0.1758 10.81-13.007 11.161"/><path d="m64.134 29.81c1.0513 2.4141 1.7681 6.2446 1.2036 12.3"/><path d="m47.959 45.424 0.4015 4.8512c0.0638 0.7704-0.1286 1.5402-0.5457 2.1835l-0.883 1.3619c-0.2136 0.3294-0.3728 0.8248-0.464 1.3684-0.2372 1.4145 0.847 2.7027 2.2429 2.7027h1.1233"/></g></svg>