<?xml version="1.0" encoding="UTF-8"?>
<svg id="a" viewBox="0 0 72 72" xmlns="http://www.w3.org/2000/svg"><g id="b"><path d="m30 31s-2 23 7 26 14-34 6-34c-6.2075 0-7-1-11.71-0.3422-1.3704 0.1913-3.3064 0.1024-5.2901 1.3422-8 5 5 29 8 31" fill="#FFA7C0"/><path d="m42 22s1-3-2-3-7 0-7 0-2.1402-0.4205-1 3" fill="#E67A94"/><path d="m34 18c3.2-5.3333 5.1333 0.3333 5 0" fill="#FFA7C0"/></g><g id="c" fill="none" stroke="#000" stroke-linecap="round" stroke-linejoin="round" stroke-miterlimit="10" stroke-width="2"><path d="m30 31s-2 23 7 26 14-34 6-34c-6.2075 0-7-1-11.71-0.3422-1.3704 0.1913-3.3064 0.1024-5.2901 1.3422-8 5 5 29 8 31"/><path d="m42 22s1-3-2-3-7 0-7 0-2.1402-0.4205-1 3"/><path d="m34 18c3.2-5.3333 5.1333 0.3333 5 0"/></g></svg>
