<?xml version="1.0" encoding="UTF-8"?>
<svg id="a" viewBox="0 0 72 72" xmlns="http://www.w3.org/2000/svg"><g id="b"><path d="m10.713 17.125-3.1478 2.7497-2.747 3.9321v2.5057l2.6453 1.0866 4.8374-0.7267 1.9397 3.1378 0.6091 2.8132s1.0894 2.1144 3.5389 3.4955c0 0-1.6761 2.0945 1.3867 4.0503l0.6461 3.6836 4.1076 0.7031-1.4713 14.444 2.4692 2.794 4.118-0.7253h1.7352l0.9624-1.6004-0.3379-13.914 3.9579 0.571 5.2088 0.2623 3.9121-0.8334 3.153 0.1126 6.4305-1.2506 3.0833 5 0.0134 10.1 1.2663 2.1509 2.6031-1.5836 1.301-10.296-1.26-3.399-0.9145-5.6454 1.7764-4.0802-0.4634-3.4689 0.8615-4.234-2.3462-2.0844-1.7575-2.7887-3.1634-0.5027-3.329-1.75-4.625 1.0417-2.9583-1.0417-3.5827 0.4566s-3.6047-0.71-5.6568 0c0 0-3.8854-1.915-5.5938-0.54 0 0-6.0477 0.3598-6.8636 1.1791 0 0-1.1343-1.5616-3.3426-1.0498l0.7062-3.7543s-2.0328-3.625-5.7935-1.7833c-2.4767 1.2129-3.9148 0.7833-3.9148 0.7833z" fill="#D0CFCE"/><path d="m9.7922 18.187s4.3788 0.4801 6.1288 3.5634l2.5891 0.54 1.9109-2.0517-0.9167-4.1634h-3.75l-3.8103 0.9021-2.1518 1.2096z" fill="#fff"/><path d="m19.004 22.29s1.3297 6.8052-4.3768 8.716l0.479 3.494 2.6988 1.0851-0.3844 2.7482 2.3539 1.8359v2.7475s7.0206 1.1253 7.5029 4.6269c0 0 3.4766-3.6843 4.7266-1.9889l3 0.8334 3.0429-0.8334 3.1238 0.8334h3.5l5.5-0.8334s4.0182 0.7201 4.4956-1.1379c0 0 3.6773-3.7112 6.3408-0.5639l-0.2482-3.1102 1.7764-4.0802-0.4634-3.4689 0.8866-2.7768-2.6686-3.0317-1.4603-3.299-3.1634-0.5027-3.329-1.75-4.0833 0.8333-3.5-0.8333-2.4131 0.777-2.8369-0.777-3.9895 0.4566-2.5938-1.1902-3 0.6502-3.6667-1.0833-3.6666 1.6233s-0.75-1.8768-3.5833 0z" fill="#fff"/></g><g id="c" fill="none" stroke="#000" stroke-linecap="round" stroke-linejoin="round" stroke-miterlimit="10" stroke-width="2"><path d="m23.057 22.929s3.6604-3.4572 6.1926-0.8662c0 0 4.3429-1.8549 6.5 0.4371 0 0 3.8325-1.7757 6.0833 0.4167 0 0 3.5093-2.5403 6.4167 0.25 0 0 4.25-2.5 7.4167 0.4167 0 0 4.5833-1 4.6237 3.8016 0 0 3.7514 2.1213 1.7819 5.8085 0 0 1.761 3.9732-1.313 7.5491 0 0-0.0759 4.7775 1.6838 7.043 0.4358 0.5611 0.5798 1.2965 0.4908 2.0014l-1.301 10.296c-0.1235 0.9776-0.955 1.7106-1.9403 1.7106-1.2088 0-2.1281-1.0856-1.9291-2.2779l-0.0135-10.1s-1.489-3.3059-3.0833-5c0 0-1.7853-0.5603-3.3797-2.5534"/><path d="m31.583 40.119c0.9911 1.8333 0.7589 6.2567 0.7589 6.2567v13.092c0 1.0092-0.8181 1.8274-1.8274 1.8274-0.9342 0-1.7179-0.7046-1.817-1.6334l-0.8573-8.033-0.5627-4.0858c-1.5944-3.3882-4.5955-3.5875-4.5955-3.5875-3.4701-0.1993-2.9074-3.7868-2.9074-3.7868-2.9074-0.7972-1.9695-4.5841-1.9695-4.5841-3.8054-0.6685-3.1387-5.0852-3.1387-5.0852l-2.3661-3.8276c-0.967-0.1323-1.955-0.0498-2.8468 0.3467-0.4923 0.2189-1.1527 0.3952-1.9906 0.38-1.2767-0.0231-2.053-0.4391-2.5249-0.939-0.678-0.7181-0.686-1.8437-0.1204-2.6533l2.747-3.9321 2.5328-1.9197c1.13-0.8565 2.5091-1.32 3.927-1.32h0.5971s5.6119-2.26 5.5628 2.2991c-0.051 4.742-3.562 3.2397-3.562 3.2397"/><path d="m35.333 45.555s0.9167 0.8215 2.9492-0.0979c0.2007 0.0096 4.6708 2.1931 6.3774-0.1599 0 0 2.2509 1.7544 4.6893-0.3384"/><path d="m24.277 45.555c-0.0857 0.8158 0.5325 5.0353-0.7205 12.914-0.1937 1.2178 0.7374 2.3286 1.9705 2.3286"/><path d="m64.729 27.385c0.3751 0.3276 3.939-2.1638 1.313 17.468"/></g></svg>
