<svg xmlns="http://www.w3.org/2000/svg" id="a" viewBox="0 0 72 72"><g id="b"><path fill="#9b9b9a" d="m33.671 13.167-9.5676 2.0199-3.2691-1.2877-3.777 2.3309v3.2295l2.0674 3.5065 3.3492 1.2264 1.4421 3.1644 2.5118 2.0122-0.6532 2.4645-1.2611 6.6238 1.2611 6.3762 0.4796 1.7016s0.6484 0.965 2.2409 1.715l0.4258 3.3333-0.4258 3.75 2.2591 5.2151 3.3333 0.3655 2.5724-0.1501s3.9395 0.2497 4.4752-0.2154 6.1066-2.9344 6.1066-2.9344 4.6112-4.4254 5.1625-8.3512 0.7095-8.8683-0.9862-12.222c-1.6957-3.3541-4.5391-7.1481-4.5391-7.1481l-2.1037-3.4937-2.7711-2.4818s-2.25-0.6667-2.75 0-0.4811-2.4202-0.4811-2.4202l3.1478-0.8246s1.544-3.5904 1.1667-4.5885-0.3743-3.25-0.3743-3.25-3.2635-2.1329-5.2263-1.2294c-1.9626 0.9035-3.8159 1.5628-3.8159 1.5628z"/><polygon fill="#3F3F3F" points="30.046 19.542 28.213 21.167 28.213 23.583 29.718 25.417 31.629 25.417 32.338 23.958 32.171 21.042"/><path fill="#d0cfce" d="m33.298 29.143s3.2267 1.1698 0.6642 3.3573-3.3125 4.8125-3.3125 4.8125l0.5 4.9375-1.4322 4.7531-0.4428 1.5594s-3.1875-1.375-4.0625-4.1875-0.6868-6.6751-0.6868-6.6751l2.2492-7.8281 6.5234-0.7291z"/></g><g id="c" fill="none" stroke="#000" stroke-miterlimit="10" stroke-width="2"><ellipse cx="30.321" cy="22.573" rx="2.168" ry="3.125" transform="matrix(.984 -.1779 .1779 .984 -3.5329 5.7559)"/><path stroke-linecap="round" stroke-linejoin="round" d="m29.718 29.872c3.0586-0.2054 7.1509-1.8162 8.3837-3.5592s0.6715-4.8163 0.6715-4.8163c4.1661-0.085 3.8936-3.1148 3.9398-6.6981 0.0466-3.6123-4.2196-3.3423-4.2196-3.3423-1.8815-0.085-4.8601 2.3639-4.8601 2.3639-5.3989-0.6802-9.1055 1.5278-9.1905 1.6554 0 0-2.0885-2.0015-4.2053-1.5048 0 0-5.2238 1.059-2.935 6.0958 2.5587 5.631 5.0901 3.718 5.0901 3.718s0.9305 6.5171 7.3254 6.0876z"/><path stroke-linecap="round" stroke-linejoin="round" d="m33.132 32.183c-0.085 0.2551-4.1642 2.4082-1.8115 10.179l-2.113 6.1217c-0.5557 1.6099-0.7898 3.3132-0.6889 5.0133l0.0818 1.3795c0.116 1.9558 0.952 3.8854 2.5426 5.0294 4.1465 2.9821 6.2598-1.6811 6.7751-2.7554 0.6364-1.327-0.4461-3.0488-2.177-2.6161"/><path stroke-linecap="round" stroke-linejoin="round" d="m40.319 33.222 0.7242 3.5918c0.2186 1.0842 0.0441 2.2108-0.4923 3.1781l-2.0778 3.7471"/><path stroke-linecap="round" stroke-linejoin="round" d="m46.879 50.056s-9.0974-5.739-12.456-0.2551c-0.7194 1.1747-1.0896 2.2557-1.2273 3.2293"/><path stroke-linecap="round" stroke-linejoin="round" d="m27.036 29.872s-5.5566 8.1245-0.1749 15.656"/><path stroke-linecap="round" stroke-linejoin="round" d="m40.038 60.914c-1.3177 0.143-2.7591 0.0637-4.2978-0.3655"/><path stroke-linecap="round" stroke-linejoin="round" d="m42 24.833c2.4884 0.7826 3.621 2.0388 4.8791 5.0588 7.7875 8.5881 7.9542 20.107 1.3604 26.753 0 0-3.2138 3.7271-8.2012 4.2684"/></g></svg>