<?xml version="1.0" encoding="UTF-8"?>
<svg id="a" viewBox="0 0 72 72" xmlns="http://www.w3.org/2000/svg"><g id="b"><path d="M51,35c0,11.0457-8.9543,20-20,20s-20-8.9543-20-20s8.9543-20,20-20c3.2428,0,6.3053,0.7718,9.0139,2.1416 C46.5315,20.4378,51,27.1971,51,35z" fill="#6A462F"/><path d="m39.583 16.333s8.4167-2.3333 9.4167-2.3333 0.1667 5.3333-1.9167 8.1667" fill="#6A462F"/><path d="m49.28 29.567s10.248-7.369 12.351-6.2343-0.1773 20.029-4.6971 22.749c0 0-4.131 0.7224-8.3412-3.5419" fill="#6A462F"/><polyline points="46.498 48.182 48.449 55.544 40.825 52.403" fill="#6A462F"/><path d="m12 40.926s3 13.314 19.5 14.053c16.5 0.7396 20.5-18.984 18.5-18.984s-5 6.9034-7 3.9448c-2.4807-3.6697-3-4.931-5-3.9448-1.2649 0.6237-3 7.8895-5 3.9448-1.8439-3.6369-3-3.9448-3-3.9448-4 0-3 4.931-6 4.931s-2-3.9448-5-4.931-7 4.9309-7 4.9309" fill="#A57939"/></g><g id="c"><line x1="10.526" x2="7.4742" y1="33.46" y2="31.54" fill="none" stroke="#000" stroke-linecap="round" stroke-linejoin="round" stroke-miterlimit="10" stroke-width="3"/><line x1="10.293" x2="7.7066" y1="36.428" y2="37.572" fill="none" stroke="#000" stroke-linecap="round" stroke-linejoin="round" stroke-miterlimit="10" stroke-width="3"/><line x1="14" x2="12" y1="46" y2="47" fill="none" stroke="#000" stroke-linecap="round" stroke-linejoin="round" stroke-miterlimit="10" stroke-width="2"/><line x1="18" x2="17" y1="51" y2="52" fill="none" stroke="#000" stroke-linecap="round" stroke-linejoin="round" stroke-miterlimit="10" stroke-width="2"/><line x1="37.179" x2="37.821" y1="54.87" y2="56.13" fill="none" stroke="#000" stroke-linecap="round" stroke-linejoin="round" stroke-miterlimit="10" stroke-width="2"/><line x1="48.114" x2="49.886" y1="45.819" y2="47.181" fill="none" stroke="#000" stroke-linecap="round" stroke-linejoin="round" stroke-miterlimit="10" stroke-width="2"/><line x1="48.706" x2="50.87" y1="25.572" y2="24.337" fill="none" stroke="#000" stroke-linecap="round" stroke-linejoin="round" stroke-miterlimit="10" stroke-width="2"/><line x1="33.906" x2="34.094" y1="14.996" y2="13.004" fill="none" stroke="#000" stroke-linecap="round" stroke-linejoin="round" stroke-miterlimit="10" stroke-width="2"/><line x1="26.563" x2="26.195" y1="15.181" y2="13.063" fill="none" stroke="#000" stroke-linecap="round" stroke-linejoin="round" stroke-miterlimit="10" stroke-width="2"/><line x1="20.148" x2="18.852" y1="17.911" y2="16.089" fill="none" stroke="#000" stroke-linecap="round" stroke-linejoin="round" stroke-miterlimit="10" stroke-width="2"/><line x1="15" x2="13" y1="23" y2="21" fill="none" stroke="#000" stroke-linecap="round" stroke-linejoin="round" stroke-miterlimit="10" stroke-width="2"/><line x1="30.614" x2="30.386" y1="55.802" y2="57.198" fill="none" stroke="#000" stroke-linecap="round" stroke-linejoin="round" stroke-miterlimit="10" stroke-width="2"/><line x1="23.889" x2="23.111" y1="54.91" y2="56.09" fill="none" stroke="#000" stroke-linecap="round" stroke-linejoin="round" stroke-miterlimit="10" stroke-width="2"/><path d="m39.583 16.333s8.4167-2.3333 9.4167-2.3333 0.1667 5.3333-1.9167 8.1667" fill="none" stroke="#000" stroke-linecap="round" stroke-linejoin="round" stroke-miterlimit="10" stroke-width="2"/><path d="m50.296 29.631s9.4861-7.4171 11.419-6.2931c1.933 1.124-0.262 20.023-4.4431 22.765 0 0-3.8127 0.7425-7.6739-3.4998" fill="none" stroke="#000" stroke-linecap="round" stroke-linejoin="round" stroke-miterlimit="10" stroke-width="2"/><polyline points="46.498 48.182 48.449 55.544 40.825 52.403" fill="none" stroke="#000" stroke-linecap="round" stroke-linejoin="round" stroke-miterlimit="10" stroke-width="2"/><path d="m12 41s4-6 7-5 2 5 5 5 2-5 6-5c0 0 1.1561 0.3122 3 4 2 4 3.7351-3.3675 5-4 2-1 2.5193 0.279 5 4 2 3 5-4 7-4" fill="none" stroke="#000" stroke-linecap="round" stroke-linejoin="round" stroke-miterlimit="10" stroke-width="2"/><path d="M51,35c0,11.0457-8.9543,20-20,20s-20-8.9543-20-20s8.9543-20,20-20c3.2428,0,6.3053,0.7718,9.0139,2.1416 C46.5315,20.4378,51,27.1971,51,35z" fill="none" stroke="#000" stroke-linecap="round" stroke-linejoin="round" stroke-miterlimit="10" stroke-width="2"/><circle cx="34" cy="50" r="2"/><circle cx="40" cy="44" r="2"/><circle cx="22" cy="46" r="2"/><circle cx="30" cy="44" r="1"/><circle cx="17" cy="42" r="1"/><circle cx="27" cy="50" r="1"/><circle cx="40" cy="49" r="1"/></g></svg>
