<svg xmlns="http://www.w3.org/2000/svg" id="a" viewBox="0 0 72 72"><g id="b"><path fill="#6A462F" d="m40.203 22s3.1218-9 11.447-4c0 0 8.585 0.75 8.9753 3.375 0 0-7.9346 1.625-10.016 5.625s3.1218 7-5.3331 15.625c0 0-4.0324 4.375-10.276 4.375 0 0-22 3-25 0"/><path fill="#A57939" d="m10.125 46.875s24.875-22.875 32.875-21.875 2 13.25-5.5 17.625-27.375 4.25-27.375 4.25z"/></g><g id="c"><line x1="32.625" x2="37" y1="55.625" y2="54" fill="none" stroke="#000" stroke-linecap="round" stroke-linejoin="round" stroke-miterlimit="10" stroke-width="2"/><path d="m42.85 29.469c-0.7444-0.1428-0.9348 0.5114-0.9348 0.5114h-5e-4c-0.6837 2.166-3.0652 7.1369-10.487 10.083l6e-3 0.0082s-0.7619 0.2029-0.443 1.0278c0.2757 0.7122 0.9802 0.5552 1.1667 0.4988 8.3025-3.3272 10.782-9.1109 11.448-11.34 0.0585-0.197-0.0154-0.6477-0.7549-0.7893z"/><path fill="none" stroke="#000" stroke-linecap="round" stroke-linejoin="round" stroke-miterlimit="10" stroke-width="2" d="m31.625 40.875s8.375-1.875 11.375-11.875"/><path fill="none" stroke="#000" stroke-linecap="round" stroke-linejoin="round" stroke-miterlimit="10" stroke-width="2" d="m41 22s3-9 11-4c0 0 8.25 0.75 8.625 3.375 0 0-7.625 1.625-9.625 5.625s3 7-5.125 15.625c0 0-3.875 4.375-9.875 4.375l-1 2 2 5 6 1"/><path fill="none" stroke="#000" stroke-linecap="round" stroke-linejoin="round" stroke-miterlimit="10" stroke-width="2" d="m10.125 46.875s24.875-22.875 32.875-21.875 2 13.25-5.5 17.625-27.375 4.25-27.375 4.25z"/></g></svg>