<?xml version="1.0" encoding="UTF-8"?>
<svg id="a" viewBox="0 0 72 72" xmlns="http://www.w3.org/2000/svg"><g id="b"><ellipse cx="36" cy="43" rx="15" ry="11" fill="#FCEA2B" stroke="#FCEA2B" stroke-miterlimit="10" stroke-width="1.8"/><path d="M42.25,36c2,9,9,9,9,9c2-6-6-11-6-11c7-6,1-10,1-10c0-10-10.375-11-10.375-11C25.5,15,26.25,24,26.25,24 c-6,4,0.625,9.75,0.625,9.75S19.25,38,21.25,45c0,0,8,0,8-9" fill="#FCEA2B"/><path d="m36.622 26.603s5.9251-0.2907 0 5.2324c0 0-5.9251-5.2324 0-5.2324z" fill="#F1B31C"/></g><g id="c"><path d="M23,49c0,0,4.7974,5.0246,13.48,5.0122C45,54,49,49,49,49" fill="none" stroke="#000" stroke-linecap="round" stroke-linejoin="round" stroke-miterlimit="10" stroke-width="2"/><line x1="33.625" x2="31.125" y1="13.5" y2="11.625" fill="none" stroke="#000" stroke-linecap="round" stroke-linejoin="round" stroke-miterlimit="10" stroke-width="2"/><line x1="35.125" x2="34.125" y1="12.875" y2="10.75" fill="none" stroke="#000" stroke-linecap="round" stroke-linejoin="round" stroke-miterlimit="10" stroke-width="2"/><line x1="37.125" x2="37.25" y1="13.25" y2="10" fill="none" stroke="#000" stroke-linecap="round" stroke-linejoin="round" stroke-miterlimit="10" stroke-width="2"/><polyline points="31.346 53.731 30.375 58.25 27.25 60" fill="none" stroke="#000" stroke-linecap="round" stroke-linejoin="round" stroke-miterlimit="10" stroke-width="2"/><line x1="33.25" x2="30.25" y1="59" y2="58" fill="none" stroke="#000" stroke-linecap="round" stroke-linejoin="round" stroke-miterlimit="10" stroke-width="2"/><polyline points="40.154 53.731 41.125 58.25 44.25 60" fill="none" stroke="#000" stroke-linecap="round" stroke-linejoin="round" stroke-miterlimit="10" stroke-width="2"/><line x1="38.25" x2="41.25" y1="59" y2="58" fill="none" stroke="#000" stroke-linecap="round" stroke-linejoin="round" stroke-miterlimit="10" stroke-width="2"/><circle cx="32.25" cy="23" r="2"/><circle cx="40.25" cy="23" r="2"/><path d="m36.372 26.603s5.9132-0.2907 0 5.2324c0 0-5.9132-5.2324 0-5.2324z" fill="none" stroke="#000" stroke-linecap="round" stroke-linejoin="round" stroke-miterlimit="10" stroke-width="2"/><path d="M42,36c2,9,9,9,9,9c2-6-6-11-6-11c7-6,1-10,1-10c0-10-10.375-11-10.375-11C25.25,15,26,24,26,24c-6,4,0.625,9.75,0.625,9.75 S19,38,21,45c0,0,8,0,8-9" fill="none" stroke="#000" stroke-linecap="round" stroke-linejoin="round" stroke-miterlimit="10" stroke-width="2"/></g></svg>
