<?xml version="1.0" encoding="UTF-8"?>
<svg id="a" viewBox="0 0 72 72" xmlns="http://www.w3.org/2000/svg"><g id="b"><path d="M54.1176,53.1541c-.0007.4136.5,7.6026-.98-14.7059-.0586-.8818-1.3818-3.5748-.98-4.902.7359-2.4335,3.8378-1.5845,3.9215-10.7843H53.1373l-1.9608,7.8432s-5.8824,0-7.8432-.98-7.8431.98-7.8431.98,4.902,3.9215,1.9608,11.7647c-.278.4682,6.4944-.97,7.8431,0,1.9984,1.437,4.4252,11.2518,4.902,10.7843Z" fill="#9b9b9a"/><ellipse cx="54.608" cy="19.33" rx="5.3922" ry="4.4118" fill="#d0cfce"/><polyline points="10 18.84 17.843 17.86 20.784 18.84 20.784 23.742 17.621 23.742 10.98 22.762 10 18.84" fill="#9b9b9a"/><path d="m19.804 23.742s-4.9019 8.8235-2.9412 13.726 6.8628 11.765 16.667 8.8235 1.9606-21.569 1.9606-21.569l-0.98-4.902s-2.9412-8.8235-6.8627-8.8235-7.8432 0.98-8.8236 3.9216 0.9802 8.8235 0.9802 8.8235z" fill="#d0cfce"/><polygon points="26.667 56.784 22.745 58.056 22.745 60.997 30.588 60.997 30.588 56.095" fill="#9b9b9a"/><polygon points="51.176 56.784 47.255 58.056 47.255 60.997 55.098 60.997 55.098 56.095" fill="#9b9b9a"/><polygon points="24.706 46.291 30.588 46.291 29.412 52.174 25.882 52.174" fill="#9b9b9a"/><ellipse cx="28.137" cy="54.134" rx="4.4118" ry="2.9412" fill="#d0cfce"/><ellipse cx="52.157" cy="54.134" rx="3.9216" ry="2.9412" fill="#d0cfce"/></g><g id="c" fill="none" stroke="#000" stroke-linecap="round" stroke-linejoin="round" stroke-width="2"><polyline points="49.447 51.455 45.237 41.911 41.373 41.389"/><path d="M59.02,19.8207c.3977-5.3988-4.4057-4.9472-5.8823-4.9019,0,0-3.9216,0-3.9216,3.9215s3.9216,4.902,3.9216,4.902c0,5.8824-3.9216,7.8431-3.9216,7.8431.2419.0071-7.9453-1.9351-11.7647-.98L34.51,24.7227c0,.98-.98-4.902-.98-4.902-1.9608-10.7843-8.8235-8.8235-8.8235-8.8235-5.8824,0-6.8628,6.8628-6.8628,6.8628L10,18.84l.98,3.9216,7.8431.98C13.9216,34.5266,16.49,44.9,25.6863,46.2913c0,0,7.8431,1.9608,11.7647-3.9215a11.8954,11.8954,0,0,0,.98-4.902"/><path d="M24.7059,18.84c-.2975.7806-3.92,19.4774,7.8431,9.804"/><line x1="52.961" x2="52.157" y1="50.513" y2="38.448"/><path d="m31.569 54.134c0 1.6243-1.7557 2.9411-3.9215 2.9411s-3.9216-1.3168-3.9216-2.9411a3.0663 3.0663 0 0 1 2.3951-2.71 5.0572 5.0572 0 0 1 1.5265-0.2311c2.1658-1e-4 3.9215 1.3166 3.9215 2.9411z"/><line x1="29.545" x2="29.608" y1="51.193" y2="47.272"/><line x1="25.686" x2="24.706" y1="51.193" y2="46.291"/><path d="M24.986,57.0756c-1.0981.2352-2.2409.9422-2.2409,1.9608v1.9608h7.8431V56.7837"/><path d="M49.4958,57.0756c-1.0981.2352-2.2409.9422-2.2409,1.9608v1.9608H55.098V56.7837"/><path d="m56.078 54.134c0 1.6243-1.7557 2.9411-3.9215 2.9411s-3.9216-1.3168-3.9216-2.9411a3.0663 3.0663 0 0 1 2.3951-2.71 5.0572 5.0572 0 0 1 1.5265-0.2311 5.2219 5.2219 0 0 1 0.79 0.06c1.7873 0.2739 3.1315 1.4597 3.1315 2.8811z"/></g></svg>
