<svg xmlns="http://www.w3.org/2000/svg" id="a" viewBox="0 0 72 72"><g id="b"><path fill="#FCEA2B" d="m21.315 31.042s9.2531 5.7124 6.1677 18.869c0 0-4.3844 3.8059-4.5945 1.4388s2.6556-9.6588-1.5986-13.005-4.6699-8.2965-4.6699-8.2965l4.6953 0.9937z"/><path fill="#61B2E4" d="m17.688 19.062s13.188-2.6889 15.25-1.8757 15.079 24.006-3.4292 39.91c0 0 1.9917-5.5963 0.9917-7.5963s-1.75-3.875-0.375-4.9375-3.3634 3.1875-3.3634 3.1875-1.2616-13.25-4.2616-16.25l5 3s4-7 3-10-3.625-5.875-12.812-5.4375z"/><path fill="#61B2E4" d="m40.65 21.304s14.49 19.992-3.176 36.68l9.9997-0.0145c17.683-15.86 3.2145-34.822 3.2145-34.822s-5.4641-2.7727-10.038-1.8444z"/><path fill="#FCEA2B" d="M53.1891,26.1345c4.1891,10.1345,0.8778,24.4252,0.8778,24.4252S55,42,63,40 c0,0-4.5031-2.9353-5.7515-6.9677S53.1891,26.1345,53.1891,26.1345z"/><path fill="#F1B31C" d="m34.573 18.009s14.067 22.072-3.5728 39.991l10.454-0.5514c17.658-17.028 3.1603-37.441 3.1603-37.441s-5.4687-2.9903-10.042-1.9991z"/><path fill="#92D3F5" d="m49 39.743s-4.4523-12.94-7.7915-9.7054-1.8088 9.7054-0.9044 9.7054 0.0873 1.2787 5.5047 2.2569"/></g><g id="c" fill="none" stroke="#000" stroke-linecap="round" stroke-linejoin="round" stroke-miterlimit="10" stroke-width="2"><path d="M13,20c0,0,35.5-12.25,44.75,14.375C57.75,34.375,59,39,64,38c0,0-2,2,0,3c0,0-4.5-1-6.75,2.5S56,54,41,60l2-3c0,0-7,3-14,1 c0,0,3.5-5.5,1.25-8.75S30,44,30,44s-4,9-8,8c0,0,2.5-7.5,0.25-11.25S15,30,16,30s8,1,12,5c0,0,2-5.5,2.5-8.25S32,18,13,20z"/><path d="m48 39s-4-12-7-9-1.625 9-0.8125 9 0.0784 1.1858 4.9455 2.0929"/><path d="m33.573 18.009s14.521 21.521-3.1188 39.44"/><path d="m44.614 20.008s14.498 20.413-3.1602 37.441"/><path d="m54.067 50.56s3.3113-14.291-0.8778-24.425"/><path d="m20.748 31.057s8.1468 5.7402 5.4763 18.886"/></g></svg>