<svg xmlns="http://www.w3.org/2000/svg" id="a" viewBox="0 0 72 72"><g id="b"><path fill="#FCEA2B" stroke="#FCEA2B" stroke-miterlimit="10" stroke-width="2" d="m51.989 51.91c11.011-8.91 1.7714-17.714 1.7714-17.714 0-13.088-10.032-17.473-15.272-18.87-1.9297-0.5147-3.9633-0.5083-5.88 0.053-15.466 4.529-14.276 18.817-14.276 18.817-8.3325 9.804 1.1071 17.271 1.1071 17.271s16.607 14.614 32.549 0.4429"/><path fill="#F1B31C" d="m36.705 38.807s10.475-0.5149 0 9.2687c0-1e-4 -10.475-9.2687 0-9.2687z"/></g><g id="c"><line x1="31.396" x2="26.968" y1="15.596" y2="12.275" fill="none" stroke="#000" stroke-linecap="round" stroke-linejoin="round" stroke-miterlimit="10" stroke-width="2"/><line x1="34.054" x2="32.282" y1="14.489" y2="10.725" fill="none" stroke="#000" stroke-linecap="round" stroke-linejoin="round" stroke-miterlimit="10" stroke-width="2"/><line x1="37.596" x2="37.818" y1="15.153" y2="9.396" fill="none" stroke="#000" stroke-linecap="round" stroke-linejoin="round" stroke-miterlimit="10" stroke-width="2"/><circle cx="28.961" cy="32.425" r="3"/><circle cx="44" cy="32" r="3"/><path fill="none" stroke="#000" stroke-linecap="round" stroke-linejoin="round" stroke-miterlimit="10" stroke-width="2" d="m51.989 51.91c11.011-8.91 1.7714-17.714 1.7714-17.714 0-13.088-10.032-17.473-15.272-18.87-1.9297-0.5147-3.9633-0.5083-5.88 0.053-15.466 4.529-14.276 18.817-14.276 18.817-8.3325 9.804 1.1071 17.271 1.1071 17.271s16.607 14.614 32.549 0.4429"/><path fill="none" stroke="#000" stroke-linecap="round" stroke-linejoin="round" stroke-miterlimit="10" stroke-width="2" d="m36.705 38.807s10.475-0.5149 0 9.2687c0-1e-4 -10.475-9.2687 0-9.2687z"/></g></svg>