<svg xmlns="http://www.w3.org/2000/svg" id="a" viewBox="0 0 72 72"><g id="b"><polygon fill="#D0CFCE" points="24.504 18 15.338 10.303 11.584 11.208 6.906 17.362 8.14 26.046 12.406 32.331 16.185 34.752 14.899 42.503 16.37 50.171 19.923 54.431 31.537 59.759 35.754 61.833 38.572 61.673 42.062 59.933 52.47 55.419 57.254 51.643 59.1 43.412 57.965 35.232 61.178 32.692 66.068 25.512 67.311 18.417 65.504 13.083 60.547 9.833 56.422 12.495 49.56 18.835 43.059 15.993 33.636 15.397 26.782 17.584"/><path fill="#FFA7C0" d="m62.916 11.386-3.1454 2.4885-5.0591 8.25v9.625s1.5061 3.2138 3.2535 3.4819l5.6892-5.1203 2.8083-5.4866 0.8483-7.2631-1.2199-2.6339-3.1749-3.3415z"/><path fill="#FFA7C0" d="m11.084 11.775 3.1454 2.4885 5.0591 8.25v9.625s-1.5061 3.2138-3.2535 3.4819l-5.6891-5.1203-2.8083-5.4866-0.8483-7.2631 1.2199-2.6339 3.1748-3.3415z"/></g><g id="c"><circle cx="26.782" cy="38.62" r="3"/><line x1="37" x2="37" y1="54.469" y2="57.491" fill="none" stroke="#000" stroke-linecap="round" stroke-linejoin="round" stroke-miterlimit="10" stroke-width="2"/><path fill="none" stroke="#000" stroke-linecap="round" stroke-linejoin="round" stroke-miterlimit="10" stroke-width="2" d="m42.062 59.933 10.409-4.5136c10.571-5.4638 5.345-20.668 5.345-20.668 4.3948-1.7817 6.8394-6.0914 6.8394-6.0914 6.3409-12.319-0.2162-16.744-3.6864-18.15-1.0579-0.4287-2.2666-0.1795-3.0757 0.6257l-8.3325 7.6996c-8.3737-4.9392-16.747-4.9392-25.121 0l-8.3325-7.6996c-0.809-0.8052-2.0178-1.0544-3.0757-0.6257-3.47 1.4064-10.027 5.8309-3.6862 18.15 0 0 2.4446 4.3097 6.8394 6.0914 0 0-5.2263 15.204 5.345 20.668l10.409 4.5136c2.7411 2.534 7.3824 2.5339 10.123 0z"/><path fill="none" stroke="#000" stroke-linecap="round" stroke-linejoin="round" stroke-miterlimit="10" stroke-width="2" d="m13.453 14.728s8.077 3.8724 5.2263 16.521"/><circle cx="47.218" cy="38.62" r="3"/><path fill="none" stroke="#000" stroke-linecap="round" stroke-linejoin="round" stroke-miterlimit="10" stroke-width="2" d="m60.547 14.728s-8.077 3.8724-5.2263 16.521"/><path d="m34.449 50.265c1.4173-0.2612 3.1422-0.4049 4.971-0.1656 1.8102 0.2369 2.6036 1.9215 1.4716 3.0418l-1.9003 1.8806c-0.9386 0.9289-2.7309 0.9772-3.7505 0.1011l-2.0222-1.7375c-1.2421-1.0671-0.5736-2.788 1.2304-3.1204z"/></g></svg>