<svg xmlns="http://www.w3.org/2000/svg" id="a" viewBox="0 0 72 72"><g id="b"><path fill="#fff" d="m15 10v3l6 4-1 8 2 8-1 8 2 8 3 2 1 7s0 4 3 5 7 2 7 2l6-2s4-4 4-6 0-5 0-5l3-7 1-13 1-6-2-9 4-1 3-4v-3l-9 2-5-2-8-2-6 2-4 2-10-1z"/><path fill="#A57939" d="m67 16.451-5.5804 0.379-7.3319 2.5057-2.8846 1.2896s-10.365 1.4604-10.199 7.2938c0 0-0.4646 3.6003 1.951 6.1473 1.8803 1.9826 2.9889 4.6478 2.5192 7.3395-0.3101 1.7768-1.2515 3.5306-3.4702 4.594l3.5899 1.2603 1.5524 4.4368s2.1911-0.6947 3.5244-4.1114c0 0 0.9791-5.9167 0.9167-6.1042-0.0625-0.1875-0.375-6.0625-0.375-6.0625l-0.3125-2.0625 1.5043-1.1515 6.1201-1.5565 4.7972-3.3019 2.923-4.998 0.7551-5.8975z"/><path fill="#A57939" d="m5.0488 16.451 5.5804 0.379 7.3319 2.5057 2.8846 1.2896s10.365 1.4604 10.199 7.2938c0 0 0.4645 3.6003-1.951 6.1473-1.8803 1.9826-2.9889 4.6478-2.5192 7.3395 0.3101 1.7768 1.2515 3.5306 3.4702 4.594l-3.5899 1.2603-1.5524 4.4368s-2.1911-0.6947-3.5244-4.1114c0 0-0.9792-5.9167-0.9167-6.1042s0.375-6.0625 0.375-6.0625l0.3125-2.0625-1.5043-1.1515-6.1201-1.5565-4.7971-3.3018-2.923-4.998-0.7552-5.8976z"/><polygon fill="#F4AA41" points="27.921 45.336 25.564 52.419 26.162 57.669 28.049 57.842 36.423 57.178 45.421 58.171 47.012 56.618 47.281 50.937 44.917 46.321 34.754 46"/></g><g id="c"><path d="m26.162 31.06s-3.0474-0.219-3.8284-1-0.781-2.0474 0-2.8284 2.0474-0.781 2.8284 0c0.7811 0.781 1 3.8284 1 3.8284z"/><path fill="none" stroke="#000" stroke-linecap="round" stroke-linejoin="round" stroke-miterlimit="10" stroke-width="2" d="m19.619 26.235 2.0377-9.248s-7.6806-0.627-6.505-7.4454c0 0 9.9534 3.2917 12.775 0.4702 0 0 6.2375-6.6642 16.196-0.0429 3.3226 2.2093 12.775-0.4702 12.775-0.4702 1.1756 6.8184-6.505 7.4454-6.505 7.4454l2.0377 9.248"/><path fill="none" stroke="#000" stroke-linecap="round" stroke-linejoin="round" stroke-miterlimit="10" stroke-width="2" d="m28.482 46h15.726c0.272 0 0.5324 0.1138 0.7082 0.3213 0.8467 0.9992 3.1442 4.3471 2.0943 10.297-0.1836 1.0404-1.1647 1.7418-2.2037 1.5503-3.4759-0.6406-11.324-1.7893-16.759-0.3263-1.1058 0.2976-2.2065-0.454-2.3432-1.5909-0.302-2.5115-0.3157-6.6284 2.0103-9.8682 0.1751-0.2438 0.4667-0.3828 0.7668-0.3828z"/><path fill="none" stroke="#000" stroke-linecap="round" stroke-linejoin="round" stroke-miterlimit="10" stroke-width="2" d="m29.867 50.277s-0.6865 2.855 3.1538 2.926"/><path fill="none" stroke="#000" stroke-linecap="round" stroke-linejoin="round" stroke-miterlimit="10" stroke-width="2" d="m29.128 61.466s6.3482 7.9157 13.794 0.3135"/><path fill="none" stroke="#000" stroke-linecap="round" stroke-linejoin="round" stroke-miterlimit="10" stroke-width="2" d="m17.518 20.154c-3.0642-1.9576-7.3791-4.5873-12.435-3.3426 0 0-1.4891 14.029 15.361 15.518l1.2133 0.881s-2.2906 8.9177 1.2618 16.102"/><path d="m45.887 31.014s3.0474-0.219 3.8284-1c0.7811-0.781 0.7811-2.0474 0-2.8284-0.781-0.781-2.0474-0.781-2.8284 0s-1 3.8284-1 3.8284z"/><path fill="none" stroke="#000" stroke-linecap="round" stroke-linejoin="round" stroke-miterlimit="10" stroke-width="2" d="m43.182 50.234s0.6865 2.855-3.1538 2.926"/><path fill="none" stroke="#000" stroke-linecap="round" stroke-linejoin="round" stroke-miterlimit="10" stroke-width="2" d="m54.774 19.958c3.0474-1.888 7.2683-4.4017 12.192-3.1896 0 0 1.4891 14.029-15.361 15.518l-1.2133 0.881s2.5382 7.9772-1.0141 15.161"/></g></svg>