<svg xmlns="http://www.w3.org/2000/svg" id="a" viewBox="0 0 72 72"><g id="b"><path fill="#E27022" d="m19.368 9.2168s-8.31-0.7683-4.7954 9.1741c0 0 2.4911 6.1326 4.7954 7.3748 0 0-9.3677 6.4041-3.7409 18.569l0.6476 3.8526s3.75 5.5625 8.5 5.6875l1.75 1.625s1.1875 3.5625 2.125 4 5.4375 3.0289 5.4375 3.0289l4.3582-0.2763 5.4543-2.5651s2.4375-2.0625 2.4375-4.6875l1.0021-1.375s6.1854-1.2168 8.6229-5.8834l1.9107-7.1166v-4.5268l-0.3757-2.8898-2.3475-5.8333-1.5625-1.75s1.3125-2.2252 2-3.3001 2.2857-4.745 2.2857-4.745l1.4018-3.3299-1.4018-3.5-3.9951-1.547-2.3531 0.8595-5.4035 5.7083s-5.5911-3.0058-9.1563-2.7633-11.035 2.43-11.035 2.43l-6.5615-6.2208z"/><path fill="#fff" d="m38.338 29.506s4.1875 3.7873 4.5 8.1312c0 0 4 3.7631 5.9375-1.9828l2.8125-6.4229s-1.9316-3.5892-8.125-3.7797l-5.125 4.0542z"/><path fill="#fff" d="m33.838 29.57s-3.0625 3.7797-3.375 8.1236c0 0-4 3.7631-5.9375-1.9828l-4.125-6.4793s2.3691-4.0405 8.5625-4.231l4.875 4.5695z"/><path fill="#fff" d="m52.213 33.5c0 0.3125 0.125 12-11.062 13.375 0 0-6.625-2.125-10.625 0.375 0 0-11.438-4.3125-10.938-13.875l-0.1875 5.8125c-1.4367 1.1319-3.6761-4.0312-0.6458-13.021-5.2301 3.4846-5.9625 16.141-2.4792 22.021 0 0 3.5 5.75 9.3125 5.9375 0 0 3.5 4.4375 10.312 1.1875 0 0 5.625 3.625 10.5-1.375 0 0 7.1875-0.7669 9.5625-6.1959 0 0 5.2083-15.242-2.2083-21.658 0 0 3.3333 13.542-1.2292 13.167l-0.3125-5.7501z"/><path fill="#D0CFCE" d="m26.525 55.5s0.8125 4.25 3.5625 4.9167l5.6667 2.25 4.75-0.9167 3.3958-2.0625s2.6875-1.5208 2.4375-4.6875c0 0-6.75 2.5-10.167 0.1667 0 0-5.7916 2.1666-9.6458 0.3333z"/><path fill="#E27022" d="m31.504 47.083s3.5 2.75 9.0833 0.0833l-0.25 2.6667-4.4167 1.8333-3.9167-1-0.4999-3.5833z"/></g><g id="c"><path d="m47.339 34.618s0.0607 2.3422-1.2037 3.1596-3.3752-0.1996-3.3752-0.1996-0.0607-2.3422 1.2037-3.1596 3.3752 0.1996 3.3752 0.1996z"/><path d="m25.93 34.618s-0.0607 2.3422 1.2037 3.1596 3.3752-0.1996 3.3752-0.1996 0.0607-2.3422-1.2037-3.1596-3.3752 0.1996-3.3752 0.1996z"/><path fill="none" stroke="#000" stroke-linecap="round" stroke-linejoin="round" stroke-miterlimit="10" stroke-width="2" d="m24.198 47.367s-1.6667 12.708 11.958 7.5833v-3.3438"/><path fill="none" stroke="#000" stroke-linecap="round" stroke-linejoin="round" stroke-miterlimit="10" stroke-width="2" d="m21.24 28.492c-0.1667 0.3333-4.6667 9.1667 0.9167 16.25"/><path fill="none" stroke="#000" stroke-linecap="round" stroke-linejoin="round" stroke-miterlimit="10" stroke-width="2" d="m22.155 23.24c-4.6652 2.7745-12.117 9.7821-5.2485 24.126"/><path fill="none" stroke="#000" stroke-linecap="round" stroke-linejoin="round" stroke-miterlimit="10" stroke-width="2" d="m27.323 48.992s-11.167 0.75-12.75 6.8333"/><path fill="none" stroke="#000" stroke-linecap="round" stroke-linejoin="round" stroke-miterlimit="10" stroke-width="2" d="m28.906 52.158c-0.25 0.1667-10.333 5.75-8.5833 10.667"/><path fill="none" stroke="#000" stroke-linecap="round" stroke-linejoin="round" stroke-miterlimit="10" stroke-width="2" d="m29.577 59.152c1.9799 2.0495 7.4123 6.3778 13.517 0.1296"/><path fill="none" stroke="#000" stroke-linecap="round" stroke-linejoin="round" stroke-miterlimit="10" stroke-width="2" d="m17.49 22.325c-7.9284-9.061-3.0759-11.658-0.2234-12.876 0.9417-0.4022 2.0253-0.2705 2.8642 0.3168l5.7994 6.0597s9.3237-6.3941 20.14 0l5.7994-6.0597c0.8389-0.5872 1.9225-0.719 2.8642-0.3168 2.8525 1.2184 7.705 3.8155-0.2234 12.876"/><path fill="none" stroke="#000" stroke-linecap="round" stroke-linejoin="round" stroke-miterlimit="10" stroke-width="2" d="m40.719 47.742s1 2.875-3.4167 3.625h-2.6038c-4.4167-0.75-3.4167-3.625-3.4167-3.625"/><path fill="none" stroke="#000" stroke-linecap="round" stroke-linejoin="round" stroke-miterlimit="10" stroke-width="2" d="m47.802 47.367s1.6667 12.708-11.958 7.5833v-3.5833"/><path fill="none" stroke="#000" stroke-linecap="round" stroke-linejoin="round" stroke-miterlimit="10" stroke-width="2" d="m50.76 28.492c0.1667 0.3333 4.6667 9.1667-0.9167 16.25"/><path fill="none" stroke="#000" stroke-linecap="round" stroke-linejoin="round" stroke-miterlimit="10" stroke-width="2" d="m49.883 23.263c4.6675 2.7899 12.06 9.7983 5.2104 24.104"/><path fill="none" stroke="#000" stroke-linecap="round" stroke-linejoin="round" stroke-miterlimit="10" stroke-width="2" d="m44.677 48.992s11.167 0.75 12.75 6.8333"/><path fill="none" stroke="#000" stroke-linecap="round" stroke-linejoin="round" stroke-miterlimit="10" stroke-width="2" d="m43.094 52.158c0.25 0.1667 10.333 5.75 8.5833 10.667"/><path fill="none" stroke="#000" stroke-linecap="round" stroke-linejoin="round" stroke-miterlimit="10" stroke-width="2" d="m29.577 24.107s7.0776-3.3333 13.183 0.4167"/><path fill="none" stroke="#000" stroke-linecap="round" stroke-linejoin="round" stroke-miterlimit="10" stroke-width="2" d="m31.521 29.286s4.9901-3.3333 9.2949 0.4167"/></g></svg>