<svg xmlns="http://www.w3.org/2000/svg" id="a" viewBox="0 0 72 72"><g id="b"><path fill="#FCEA2B" stroke="#FCEA2B" stroke-miterlimit="10" stroke-width="1.8" d="m36.109 44.124s21.337-0.7112 10.668-20.626c0 0-2.8449-7.8235-10.668-7.8235-2.2075 0-4.0187 0.5096-5.4973 1.2733-3.7618 1.9427-5.3718 5.5292-5.8823 6.5502-0.7113 1.4225-11.38 19.203 11.38 20.626z"/><path fill="#F1B31C" d="m35.372 30.603s5.9251-0.2907 0 5.2324c0 0-5.9251-5.2324 0-5.2324z"/><path fill="#fff" d="m61.694 37.95c0 14.387-11.663 26.05-26.05 26.05s-26.05-11.663-26.05-26.05l7.4428 3.7214 6.5125-4.6518 8.3732 5.5821 6.2024-5.5821 8.1758 4.7364 7.0199-5.6667 8.3732 1.8607z"/><path fill="#D0CFCE" d="m53.321 36.089c-1.9804 11.638-7.0995 21.404-17.677 27.911 14.387 0 26.05-11.663 26.05-26.05l-8.3732-1.8607z"/></g><g id="c"><circle cx="30.908" cy="26.363" r="2.368"/><circle cx="40.381" cy="26.363" r="2.368"/><line x1="34.796" x2="33.433" y1="14.904" y2="9.786" fill="none" stroke="#000" stroke-linecap="round" stroke-linejoin="round" stroke-miterlimit="10" stroke-width="2"/><line x1="36.828" x2="36.828" y1="15.706" y2="12.154" fill="none" stroke="#000" stroke-linecap="round" stroke-linejoin="round" stroke-miterlimit="10" stroke-width="2"/><line x1="38.999" x2="40.381" y1="15.904" y2="9.786" fill="none" stroke="#000" stroke-linecap="round" stroke-linejoin="round" stroke-miterlimit="10" stroke-width="2"/><path fill="none" stroke="#000" stroke-linecap="round" stroke-linejoin="round" stroke-miterlimit="10" stroke-width="2" d="m35.372 30.603s5.9251-0.2907 0 5.2324c0 0-5.9251-5.2324 0-5.2324z"/><path fill="none" stroke="#000" stroke-linecap="round" stroke-linejoin="round" stroke-miterlimit="10" stroke-width="2" d="m49.764 33.419c0.0286-2.6167-0.8175-5.8717-2.9865-9.9204 0 0-2.8449-7.8235-10.668-7.8235-2.2075 0-4.0187 0.5096-5.4973 1.2733-3.7618 1.9427-5.3718 5.5292-5.8823 6.5502-0.3479 0.6959-3.0787 5.3065-3.1133 10.002"/><path fill="none" stroke="#000" stroke-linecap="round" stroke-linejoin="round" stroke-miterlimit="10" stroke-width="2" d="m61.694 37.95c0 14.387-11.663 26.05-26.05 26.05s-26.05-11.663-26.05-26.05l7.4428 3.7214 6.5125-4.6518 8.3732 5.5821 6.2024-5.5821 8.1758 4.7364 7.0199-5.6667 8.3732 1.8607z"/></g></svg>