<?xml version="1.0" encoding="UTF-8"?>
<svg id="a" viewBox="0 0 72 72" xmlns="http://www.w3.org/2000/svg"><g id="b"><path d="m34.254 15.252c-0.8333 0.3333-7.3333 3-8.1667 3-0.8333 0-11 8-11 8l-4.3333 7.3333-0.8334 11.667 1.1667 5.3333 4.6667 4.5 6.5 1 13.5-5 5.5 1.1667 8.5 3.1667 7.6667 0.1667 4.8333-4 1.6667-4.3333-0.1667-8.3333-0.8333-5.6667-2.1667-5.6667-8.3333-6.5-8.6667-4.5-9.5-1.3334z" fill="#FFA7C0"/><path d="m24.338 33.419-4.0833 2.0833-3.1667 5.5 0.4167 5 2.9167 2.5833 4.4167-2.3333 2.4167-5s0.4167-3.6667 0.3333-3.9167c-0.0834-0.2499-1.3334-3.9166-3.2501-3.9166z" fill="#E67A94"/><path d="m49.682 33.419 4.0833 2.0833 3.1667 5.5-0.4167 5-2.9167 2.5833-4.4167-2.3333-2.4167-5s-0.4167-3.6667-0.3333-3.9167 1.3335-3.9166 3.2501-3.9166z" fill="#E67A94"/></g><g id="c" fill="none" stroke="#000" stroke-linecap="round" stroke-linejoin="round" stroke-miterlimit="10" stroke-width="2"><path d="m50.405 55.377-11.742-4.4121c-1.072-0.4028-2.2537-0.4028-3.3257 0l-11.742 4.4121c-6.4975 2.4414-13.433-2.3613-13.433-9.3023v-7.2737c0-6.2312 3.2237-12.019 8.5216-15.299l7.0307-4.3532c6.9146-4.2813 15.656-4.2813 22.571 0l7.0307 4.3532c5.2979 3.2803 8.5216 9.0679 8.5216 15.299v7.2737c0 6.9411-6.9352 11.744-13.433 9.3023z"/><ellipse transform="matrix(.3327 -.943 .943 .3327 -23.784 48.43)" cx="22.328" cy="41.021" rx="7.9644" ry="4.9004"/><ellipse transform="matrix(.943 -.3327 .3327 .943 -10.703 19.526)" cx="51.672" cy="41.021" rx="4.9004" ry="7.9644"/></g></svg>
