<svg xmlns="http://www.w3.org/2000/svg" id="a" viewBox="0 0 72 72"><g id="b"><path fill="#B1CC33" stroke-linecap="round" stroke-linejoin="round" stroke-miterlimit="10" stroke-width="2" d="m39.386 22.357c0.4635 0 0.8719-0.305 0.9938-0.7522 0.5599-2.0537 2.5904-6.9293 7.6535-7.6044 7.8343-1.0446 10.968 4.1783 10.968 8.3565 0 5.0604-2.0891 5.2228-3.4152 7.597-0.2637 0.4721-0.4077 1.0587-0.0342 1.4497 5.4428 5.697 8.1892 29.602-19.531 29.602-25.07 2e-4 -27.02-20.006-19.544-29.622 0.333-0.4283 0.391-1.0013 0.0259-1.4026-1.4705-1.6157-4.5595-5.6648-2.9399-9.7139 2.0891-5.2228 6.2674-6.2674 9.4011-6.2674 3.0031 0 7.9249 1.9186 9.2492 7.5947 0.1057 0.4531 0.5276 0.7619 0.9928 0.7619l6.1802-1e-4z"/></g><g id="c"><path fill="none" stroke="#000" stroke-linecap="round" stroke-linejoin="round" stroke-miterlimit="10" stroke-width="2" d="m39.386 22.357c0.4635 0 0.8719-0.305 0.9938-0.7522 0.5599-2.0537 2.5904-6.9293 7.6535-7.6044 7.8343-1.0446 10.968 4.1783 10.968 8.3565 0 5.0604-2.0891 5.2228-3.4152 7.597-0.2637 0.4721-0.4077 1.0587-0.0342 1.4497 5.4428 5.697 8.1892 29.602-19.531 29.602-25.07 2e-4 -27.02-20.006-19.544-29.622 0.333-0.4283 0.391-1.0013 0.0259-1.4026-1.4705-1.6157-4.5595-5.6648-2.9399-9.7139 2.0891-5.2228 6.2674-6.2674 9.4011-6.2674 3.0031 0 7.9249 1.9186 9.2492 7.5947 0.1057 0.4531 0.5276 0.7619 0.9928 0.7619l6.1802-1e-4z"/><path fill="none" stroke="#000" stroke-linecap="round" stroke-linejoin="round" stroke-miterlimit="10" stroke-width="2" d="m22.441 48.471s13.579 12.535 28.203 0"/><circle cx="22.441" cy="23.401" r="3.134"/><circle cx="49.6" cy="23.401" r="3.134"/><circle cx="31.842" cy="43.248" r="2.089"/><circle cx="40.199" cy="43.248" r="2.089"/></g></svg>