<svg xmlns="http://www.w3.org/2000/svg" id="a" viewBox="0 0 72 72"><g id="b"><path fill="#F4AA41" d="m23.5 14.586-4.5 1.75-7.25 8.5-4.5 10.75 2 5.25c1.2554 3.7911 3.5231 7.1832 7.25 10l2.5-3.3333s3.8218 7.7098 10.738 8.9598c0 0 10.262 1.936 15.595-0.8765 3.4203-1.8037 4.4167-4.4167 4.4167-4.4167l3.4167-3.4167 1.5833 2.3333 2.0833-0.0833 5.4167-7.25 1.75-5.4166-0.1667-4.5-2.3333-5.5-4.8333-7.4167s-2.6667-4.9167-8.1667-3.9167c0 0-6.5-4.8333-11.833-4.0833s-4.5834-1.25-13.167 2.6667z"/><polygon fill="#EA5A47" points="36 47.252 32.917 49.669 30.417 49.669 30.333 53.502 31.083 57.002 32.167 58.919 35 60.419 39.583 59.836 41.167 58.086 42.167 53.836 41.917 49.836 39.917 50.086"/><polygon fill="#3F3F3F" points="32.5 36.919 30.917 40.669 33.083 41.919 34.333 42.419 38.667 42.586 41.583 40.336 39.833 37.086"/></g><g id="c"><path d="m29.506 30.109s-1.8051 1.2424-2.7484 0.6679c-0.9434-0.5745-1.2424-1.8051-0.6679-2.7484s1.805-1.2424 2.7484-0.6679 0.6679 2.7484 0.6679 2.7484z"/><path fill="none" stroke="#000" stroke-linecap="round" stroke-linejoin="round" stroke-miterlimit="10" stroke-width="2" d="m33.109 37.006h6.1457c0.4011 0 0.7634 0.2397 0.9203 0.6089l1.1579 2.7245-2.1792 1.1456c-0.6156 0.3236-1.3654-0.0645-1.4567-0.754"/><path fill="none" stroke="#000" stroke-linecap="round" stroke-linejoin="round" stroke-miterlimit="10" stroke-width="2" d="m34.761 40.763c-0.1132 0.6268-0.7757 0.9895-1.3647 0.7471l-2.3132-0.952 1.0899-2.9035c0.1465-0.3901 0.5195-0.6486 0.9362-0.6486"/><path fill="none" stroke="#000" stroke-linecap="round" stroke-linejoin="round" stroke-miterlimit="10" stroke-width="2" d="m30.436 50.027s-0.7187 8.7934 3.0072 9.9375c2.6459 0.8125 5.1497 0.5324 6.0625-0.25 0.875-0.75 2.6323-4.4741 1.8267-9.6875"/><path d="m44.264 30.109s1.805 1.2424 2.7484 0.6679 1.2424-1.8051 0.6679-2.7484c-0.5745-0.9434-1.805-1.2424-2.7484-0.6679s-0.6679 2.7484-0.6679 2.7484z"/><path fill="none" stroke="#000" stroke-linecap="round" stroke-linejoin="round" stroke-miterlimit="10" stroke-width="2" d="m25.624 42.839c-0.475 3.6024 2.2343 5.7505 4.2847 6.8414 1.1968 0.6367 2.6508 0.5182 3.7176-0.3181l2.581-2.0233 2.581 2.0233c1.0669 0.8363 2.5209 0.9548 3.7176 0.3181 2.0504-1.0909 4.7597-3.239 4.2847-6.8414"/><path fill="none" stroke="#000" stroke-linecap="round" stroke-linejoin="round" stroke-miterlimit="10" stroke-width="2" d="m19.951 28.357c-2.3166 5.1597-0.5084 13.025 0.119 15.376 0.122 0.4571 0.0755 0.9355-0.1271 1.3631l-1.9874 4.1937c-0.623 1.3146-2.3934 1.5533-3.331 0.4409-3.1921-3.7871-8.5584-11.39-6.5486-16.686 7.0625-18.61 15.868-18.143 15.868-18.143 2.8453-1.9336 13.104-6.9375 24.812 0.875 0 0 8.6323-1.7175 14.938 16.938 1.8036 5.3362-3.4297 12.867-6.5506 16.644-0.9312 1.127-2.7162 0.8939-3.3423-0.4272l-1.9741-4.1656c-0.2026-0.4275-0.2491-0.906-0.1271-1.3631 0.6275-2.3509 2.4356-10.216 0.119-15.376"/><path fill="none" stroke="#000" stroke-linecap="round" stroke-linejoin="round" stroke-miterlimit="10" stroke-width="2" d="m52.631 46.463s-3.0781 6.7216-7.8049 8.2712"/><path fill="none" stroke="#000" stroke-linecap="round" stroke-linejoin="round" stroke-miterlimit="10" stroke-width="2" d="m19.437 46.969s3.0781 6.0823 7.8049 7.632"/><line x1="36.208" x2="36.208" y1="47.339" y2="44.309" fill="none" stroke="#000" stroke-linecap="round" stroke-linejoin="round" stroke-miterlimit="10" stroke-width="2"/></g></svg>