<svg xmlns="http://www.w3.org/2000/svg" id="a" viewBox="0 0 72 72"><g id="b"><path fill="#6A462F" d="m24.754 17.919-6.6667-5.3333-8.1667 1-3 4.6667 0.5 6.6667 3.8333 5.8333s1.8333 1.1667 2.6667 1.6667l-2.5 7.6667-0.3333 6.3333 1.5 5.5 2.8333 3.6667 5.5 3.8333s15.667 9 30.667 0.1667l5.8333-4.8333 3.1667-6 0.6667-4.6667-1.3333-8.8333-1.6667-2.5 2.8333-2.1667 2.5-4.8333 1.6667-5.3333-1.6667-5-4.3333-3-4.1667-0.1667-6 3.8333-1.3333 1.5-8.3333-1.6667h-8.1667l-6.5 1.9999z"/><path fill="#A57939" d="m29.588 37.752-2 5-0.8333 6.6667 2 3.1667 0.3333 4.3333 2.8333 2.1667 8.6667-0.3333 2.3333-1 0.1667-5.1667 2-3.1667-1.1667-6.6667-2.5-5.5s-7-4.8333-11.833 0.5z"/><path fill="#3F3F3F" d="m30.754 47.752s4.3333-4.6667 9.8333-0.3333l-1.8333 2.8333-6-0.1667-2-2.3333z"/><path fill="#A57939" d="m47.754 18.419s12.833-4 15.167 8l2-4-0.1667-5.5-3.5-3.8333-5.5-1.3333-5.5 3.6667-2.5 2.9999z"/><path fill="#A57939" d="m24.254 18.419s-12.833-4-15.167 8l-2-4 0.1667-5.5 3.5-3.8333 5.5-1.3333 5.5 3.6667 2.5 2.9999z"/></g><g id="c"><circle cx="28.634" cy="36.999" r="2"/><path fill="none" stroke="#000" stroke-linecap="round" stroke-linejoin="round" stroke-miterlimit="10" stroke-width="2" d="m26.009 19.895s-7.6875-11.625-14.938-6.8125c-6.6011 4.3818-3.9113 13.958 0.603 16.915"/><path fill="none" stroke="#000" stroke-linecap="round" stroke-linejoin="round" stroke-miterlimit="10" stroke-width="2" d="m21.071 58.582c-15.938-6.3125-7.8506-24.013-7.8506-24.013s3.645-9.3586 9.3416-11.609"/><path fill="none" stroke="#000" stroke-linecap="round" stroke-linejoin="round" stroke-miterlimit="10" stroke-width="2" d="m51.098 58.582c15.938-6.3125 7.8506-24.013 7.8506-24.013s-3.645-9.3586-9.3416-11.609"/><circle cx="43.366" cy="36.999" r="2"/><path fill="none" stroke="#000" stroke-linecap="round" stroke-linejoin="round" stroke-miterlimit="10" stroke-width="2" d="m43.495 43.331 1.5607 4.8039c0.2196 0.8168 0.0853 1.6816-0.3675 2.3961-1.2194 1.924-4.0542 5.1185-8.2597 2.2386h-0.8572c-4.2055 2.8798-7.0402-0.3147-8.2597-2.2386-0.4528-0.7144-0.5871-1.5793-0.3675-2.3961l1.5607-4.8039"/><path fill="none" stroke="#000" stroke-linecap="round" stroke-linejoin="round" stroke-miterlimit="10" stroke-width="2" d="m40.172 47.924c-0.1014 3.008-2.8052 1.6561-2.8052 1.6561l-1.3668-0.6766-1.3667 0.6766s-2.7039 1.3519-2.8052-1.6561"/><path fill="none" stroke="#000" stroke-linecap="round" stroke-linejoin="round" stroke-miterlimit="10" stroke-width="2" d="m45.991 19.895s7.6875-11.625 14.938-6.8125c6.6011 4.3818 3.9113 13.958-0.603 16.915"/><path fill="none" stroke="#000" stroke-linecap="round" stroke-linejoin="round" stroke-miterlimit="10" stroke-width="2" d="m29.946 57.148s5.1875 6.6013 12.107 0.5625"/><path fill="none" stroke="#000" stroke-linecap="round" stroke-linejoin="round" stroke-miterlimit="10" stroke-width="2" d="m24.665 17.951s8.7098-4.9304 22.326 0"/><line x1="36" x2="36" y1="52.77" y2="49.58" fill="none" stroke="#000" stroke-linecap="round" stroke-linejoin="round" stroke-miterlimit="10" stroke-width="2"/></g></svg>