<svg xmlns="http://www.w3.org/2000/svg" id="a" viewBox="0 0 72 72"><g id="b"><path fill="#A57939" d="m21.588 15.086-2.25 3.625-4.25 2-4.5 5.375-1.5 4.5 1.5 3 4.25 0.375 5.875-1.125s1.4611 0.3956 2.0417 2.5c0.6667 2.4167-1.5417 3.375-1.9167 3.5s-4 0-4 0l-5.625 0.5-0.625 3.75 0.875 1.375s3.5 0.75 5-0.375 5 0.875 5 0.875l4.8974 0.6486s-2.2853 4.3682-0.5353 6.6182-1.4871 2.8582-1.4871 2.8582l-2.3777 2.2089-0.6848 1.6661 1.0625 2 3.375 0.25 1.5639 1.1472 1.2485 0.4398 1.4375 0.288 7.5-1.875 6.25-0.25 3.125-1.625s1.125-2.375 1.25-2.75 2.25-8 2.25-8v-8.25l-1-6.5-2.375-4.25-4.375-4-7-2.625s-5.125-0.5-5.625-0.75-4-1.75-4-1.75l-1.25-3.75-1.75-2.25h-1.375v0.625z"/><path fill="#A57939" d="m37.504 23.669v-3.1667s2.5833-7.6667 2.6667-7.9167c0.0833-0.25 3.6667-4.5 3.6667-4.5l3.9167-1.4167 6.25 0.3333 7.0833 6.0833 2.4866 2.8125c2.3333 10.66-13.653 10.473-11.471 1.6197-2.6123 6.4845 1.4113 10.118 6.2344 13.651l4.25 5.4167 0.1667 4.75-1.5833 5.8333s-3.4167 3.9167-4.5 4.3333c-1.0833 0.4167-7.4167 2.8333-7.4167 2.8333l1.25-8.25 0.0833-6.25-1.3333-4.5833-1.0833-3.6667-3.1667-3.9167-4.3333-2.9167-3.1668-1.083z"/><path fill="#D0CFCE" d="m33.967 23.205c-0.5456 0.3805-1.9622 3.7574-0.2539 4.5273s4.7276 2.4477 4.7276 2.4477l4.4879 5.02 1.7623 4.7822v7.8729l-1.0195 4.6054s1.5329 5.2083 5.0581 1.875 0.5252 0 0.5252 0l1.75-9.8147-1.75-9.2687-1.7794-4.75-4.8873-4.9167-8.621-2.3804z"/></g><g id="c" fill="none" stroke="#000" stroke-linecap="round" stroke-linejoin="round" stroke-miterlimit="10" stroke-width="2"><path d="m20.4 32.494c-3.0173 2.2297-6.5652 1.993-8.8312 1.4888-1.597-0.3554-2.6144-1.9684-2.2352-3.5599 0.2859-1.2 0.8627-2.8654 1.9621-5.1475 3.1184-6.473 8.4386-6.4878 8.4386-6.4878 0.4074-1.0361 1.8658-3.7003 3.0066-4.1946 0 0 7.1306 7.3708 1.0283 11.344"/><path d="m11.678 43.592c-1.8048-0.7483-2.8431-6.5592 6.7421-4.5 0.5798 0.1245 1.5991 0.2365 2.1722 0.084 1.7947-0.4774 5.6455-0.6465 5.6455-4.584"/><path d="m34.117 35.086c0.1417 0.0945 4.5831 9.8748-3.1184 10.442s-13.796-2.0317-13.796-2.0317"/><path d="m30.123 49.402s-1.1252 3.9695 1.8987 6.9934l-2.7832 0.8106c-1.3249 0.3859-2.4211 1.3209-3.0112 2.5684-0.4746 1.0034 0.0081 2.1977 1.0489 2.5834 1.6081 0.5959 4.3116 0.8772 8.1206-1.109 0 0 9.3468 2.5554 12.421-3.9085 0 0 5.5148-9.2134 1.7349-22.254-2.6759-9.2317-10.61-11.326-15.016-11.762-1.6261-0.1609-3.1757-0.6903-4.6658-1.3609-1.8515-0.8333-3.5115-1.0041-3.5115-1.0041"/><path d="m38.614 20.592s0.1099-13.113 10.126-13.869 13.866 9.6165 13.866 9.6165"/><path d="m55.866 16.592c-2.1875-1.25-7.4368 1.8883-3.5625 8.125s13.355 10.569 10.304 18.779c-3.5909 9.6629-13.116 10.721-13.116 10.721"/><path d="m34.054 27.802s15.438 4.6032 9.875 23.728"/><path d="m26.36 45.609s-2.0983 4.7126 0.485 9.2126c0 0-6.9167 0.75-4.7352 5.2441"/></g></svg>