<?xml version="1.0" encoding="UTF-8"?>
<svg id="a" viewBox="0 0 72 72" xmlns="http://www.w3.org/2000/svg"><g id="b"><path d="m35.838 9.4188c-0.8333 0.1667-9 0.1667-9 0.1667l-8.75 7.25-4.9167 10.25-3 12.417 1.3333 8.75 5.75 7.1667s4.75 4 11.167 3.75c0 0 20 2.9167 26.5-3.5833l3.3333-3.5833 3.1667-6.3333 0.0833-7.6667-1.5-7-2.1667-6.9167-4.0833-7.5-4.9167-4.1667-3.9166-2.5834-4.1667-0.8333-4.9166 0.4166z" fill="#3F3F3F"/><path d="m55.588 19.502 2.5-1.8333 3.0833-0.5 1.9167 1.25 0.75 1s0.9167 3.6667 1 3.9167 0 6 0 6l-1.25 3.1667-2.1667 1.9167-2.3333-5.5-3.1667-7.25-0.3333-2.1668z" fill="#F4AA41"/><polygon points="16.671 19.002 14.004 17.169 11.254 16.586 8.3377 18.419 6.671 23.336 7.171 29.169 8.3377 31.836 10.838 34.669 12.254 30.169 14.421 24.252" fill="#F4AA41"/><path d="m46.338 44.586 4.0833-2.4167 1.75-4.6667 1.25-7.25-1.0833-4.75-2.4167-2.8333-4.3333-1.8333-5.4167 0.1667-3.5833-0.0833-7-0.3333-4.6667 0.3333-4.25 2.8333-2 4.5833 0.0833 3.9167s-0.0833 3.5 0.1667 3.9167 1.5833 4.4167 1.5833 4.4167l1.1667 1.6667 4 1.8333-1 4s-0.1667 6.5 1.25 8.4167 5.75 5.4167 5.75 5.4167l6.4167 0.6667 4.5833-1.6667 3.8334-4.8333c0.8412-2.6884 1.1213-5.4142 1-8.1667l-1.1667-3.3335z" fill="#F4AA41"/></g><g id="c"><circle cx="27.634" cy="29.677" r="2"/><path d="m23.039 27.954s4.726-6.5434 9.4521 0.1023" fill="none" stroke="#000" stroke-linecap="round" stroke-linejoin="round" stroke-miterlimit="10" stroke-width="2"/><path d="m30.897 40.17s0.6484 2.299 3.537 2.7117" fill="none" stroke="#000" stroke-linecap="round" stroke-linejoin="round" stroke-miterlimit="10" stroke-width="2"/><path d="m27.989 51.767 1.2915 0.8045c1.2002 0.7477 2.5573 1.1408 3.9382 1.1408h5.6222c1.3232 0 2.6255-0.361 3.7893-1.0503l1.5111-0.895" fill="none" stroke="#000" stroke-linecap="round" stroke-linejoin="round" stroke-miterlimit="10" stroke-width="2"/><path d="m31.056 35.588c-2.6158 1.5082-5.9686 4.8289-5.5798 11.876" fill="none" stroke="#000" stroke-linecap="round" stroke-linejoin="round" stroke-miterlimit="10" stroke-width="2"/><path d="m26.818 56.026 0.2809 0.6695c1.0574 2.5206 3.1675 4.4503 5.7723 5.279l0.7864 0.2502c2.2541 0.7171 4.6965 0.5509 6.8326-0.4651v0c2.0135-0.9577 3.6173-2.6051 4.5206-4.6436l0.4855-1.0957" fill="none" stroke="#000" stroke-linecap="round" stroke-linejoin="round" stroke-miterlimit="10" stroke-width="2"/><path d="m16.08 18.845-1.7688-1.228c-1.6197-1.1245-3.7931-1.0191-5.2965 0.2567v0c-0.7659 0.65-1.2866 1.5421-1.4642 2.5308-0.6192 3.4457-1.5742 11.572 2.6707 13.711" fill="none" stroke="#000" stroke-linecap="round" stroke-linejoin="round" stroke-miterlimit="10" stroke-width="2"/><circle cx="43.366" cy="29.913" r="2"/><path d="m48.018 28.176s-4.726-6.5434-9.4521 0.1023" fill="none" stroke="#000" stroke-linecap="round" stroke-linejoin="round" stroke-miterlimit="10" stroke-width="2"/><path d="m49.961 41.42c2.5152-1.7505 2.6995-5.9685 3.3012-10.18 0.4127-2.8885-0.4716-5.895-3.5959-8.4888-3.1321-2.6002-7.3146-2.1486-9.39-1.6993-1.0224 0.2213-2.0608 0.3145-3.1062 0.2758l-2.7267-0.1011c-0.842-0.0312-1.6765-0.1564-2.4973-0.3471-1.9859-0.4613-6.3637-1.0469-9.6117 1.6496-3.1243 2.5938-4.0086 5.6002-3.5959 8.4888 0.6017 4.2118 0.786 8.4298 3.3012 10.18" fill="none" stroke="#000" stroke-linecap="round" stroke-linejoin="round" stroke-miterlimit="10" stroke-width="2"/><path d="m41.103 40.17s-0.6484 2.299-3.537 2.7117" fill="none" stroke="#000" stroke-linecap="round" stroke-linejoin="round" stroke-miterlimit="10" stroke-width="2"/><path d="m41.253 35.995c2.5625 1.588 5.6444 4.9189 5.2707 11.691" fill="none" stroke="#000" stroke-linecap="round" stroke-linejoin="round" stroke-miterlimit="10" stroke-width="2"/><path d="m41.253 35.995c-0.5708-0.3538-1.1928-0.6531-1.7718-0.8958-1.2375-0.5188-2.5724-0.7524-3.9139-0.7201l-0.0521 0.0013c-1.5439 0.0372-3.0699 0.4152-4.4116 1.18-0.0161 0.0092-0.0322 0.0184-0.0483 0.0277" fill="none" stroke="#000" stroke-linecap="round" stroke-linejoin="round" stroke-miterlimit="10" stroke-width="2"/><path d="m54.463 54.76s12.676-6.0522 3.9518-28.462-22.349-16.587-22.349-16.587-13.755-6.0449-22.48 16.365 3.9518 28.462 3.9518 28.462" fill="none" stroke="#000" stroke-linecap="round" stroke-linejoin="round" stroke-miterlimit="10" stroke-width="2"/><path d="m55.92 19.067 1.7688-1.228c1.6197-1.1245 3.7931-1.0191 5.2965 0.2567v0c0.7659 0.65 1.2866 1.5421 1.4642 2.5308 0.6192 3.4457 1.5742 11.572-2.6707 13.711" fill="none" stroke="#000" stroke-linecap="round" stroke-linejoin="round" stroke-miterlimit="10" stroke-width="2"/></g></svg>
