<svg xmlns="http://www.w3.org/2000/svg" id="a" viewBox="0 0 72 72"><g id="b"><path fill="#FFA7C0" d="m26.838 20.586s-0.75-5.125-10.375-7.125-8.625-2.375-8.625-2.375l-1.875 1.875 2.125 9.25 0.875 6.375 2.625 7 3.75 3.375h5.5l-1.25 8.75 1.25 8.375 2.75 4.25 2 2.25s13.5 7.25 20.875-1 5.875-15.5 5.875-15.5l-1.125-7.375 2.875-0.125 4.125-1 3.5-7 1.375-4.875-0.125-4.25 2.375-6.375 0.125-3.125-3.125-1-4.375 1.5-7.5 2-4.875 3.125-1.125 3.5s-11.5-1.75-17.625-0.5z"/><polygon fill="#E67A94" points="35.963 42.21 27.963 45.96 26.463 51.086 27.463 54.836 29.713 55.836 35.713 53.96 40.088 55.336 44.338 54.71 45.213 50.586 43.713 45.586"/><path fill="#E67A94" d="m64.463 14.086-3.375 2.5-6.875 1.625-4.875 4.25-1 4.375s0.25 8.75 2.5 10.375 5 1.5 5 1.5l3.125-1.75 3.25-7.375 1-6.25 2.125-8.25-0.875-1z"/><path fill="#E67A94" d="m7.296 14.086 3.375 2.5 6.875 1.625 4.875 4.25 1 4.375s-0.25 8.75-2.5 10.375-5 1.5-5 1.5l-3.125-1.75-3.25-7.375-1-6.25-2.125-8.25 0.875-1z"/></g><g id="c"><path fill="none" stroke="#000" stroke-linecap="round" stroke-linejoin="round" stroke-miterlimit="10" stroke-width="2" d="m40.535 55.624-3.9761-1.494c-0.363-0.1364-0.7632-0.1364-1.1261 0l-3.9761 1.494c-2.2002 0.8267-4.5486-0.7996-4.5486-3.1499v-2.463c0-2.11 1.0916-4.0698 2.8856-5.1806l2.3807-1.4741c2.3414-1.4497 5.3015-1.4497 7.6429 0l2.3807 1.4741c1.794 1.1108 2.8856 3.0706 2.8856 5.1806v2.463c-1e-4 2.3504-2.3484 3.9767-4.5486 3.1499z"/><ellipse cx="32.185" cy="49.709" rx="2.611" ry="1.607" transform="matrix(.3327 -.943 .943 .3327 -25.4 63.524)"/><ellipse cx="39.806" cy="49.709" rx="1.607" ry="2.611" transform="matrix(.943 -.3327 .3327 .943 -14.269 16.074)"/><circle cx="26.083" cy="36.086" r="2"/><circle cx="46.042" cy="36.086" r="2"/><path fill="none" stroke="#000" stroke-linecap="round" stroke-linejoin="round" stroke-miterlimit="10" stroke-width="2" d="m25.833 61.419c-10.083-6.5-5.1667-23.167-5.1667-23.167-7.7762 2.9161-9.0215-3.7404-10.92-8.2062-0.7452-1.7525-1.0738-3.6364-1.1634-5.5386-0.1599-3.3973-1.6127-8.0761-2.4938-10.639-0.47-1.3674 0.6215-2.7649 2.0621-2.6417 1.1647 0.0996 2.4527 0.5098 3.5792 0.9664 1.8985 0.7695 3.8733 1.3555 5.9082 1.591 8.4189 0.9743 9.2693 7.3018 9.2693 7.3018s10.57-1.75 17.759 0.25c0 0 0.8287-6.9109 9.2476-7.8852 2.0349-0.2355 4.0098-0.8215 5.9082-1.591 1.1266-0.4566 2.4145-0.8668 3.5792-0.9664 1.4406-0.1231 2.5321 1.2744 2.0621 2.6417-0.8811 2.5633-2.3339 7.242-2.4939 10.639-0.0896 1.9022-0.4182 3.7862-1.1634 5.5386-1.8989 4.4657-3.1442 11.122-10.92 8.2062 0 0 4.9167 16.667-5.1667 23.167"/><path fill="none" stroke="#000" stroke-linecap="round" stroke-linejoin="round" stroke-miterlimit="10" stroke-width="2" d="m30.833 59.336s4.6667 4 10.667 0"/><path fill="none" stroke="#000" stroke-linecap="round" stroke-linejoin="round" stroke-miterlimit="10" stroke-width="2" d="m23.062 26.023s-1.375-6.4375-7.1875-8-5.5-2.1875-5.5-2.1875"/><path fill="none" stroke="#000" stroke-linecap="round" stroke-linejoin="round" stroke-miterlimit="10" stroke-width="2" d="m47.827 26.023s1.375-6.4375 7.1875-8 5.5-2.1875 5.5-2.1875"/></g></svg>