<?xml version="1.0" encoding="UTF-8"?>
<svg id="a" viewBox="0 0 72 72" xmlns="http://www.w3.org/2000/svg"><g id="b"><path d="m30.921 28.002s3.8009-4.523 10.109 0.4052l-0.6097 11.51 3.9176 6.0845s4.5833 5.503 4.8333 6.2515 1.75 7.9151 1.5833 8.2485c-0.1667 0.3333-4.6667 6.5833-4.6667 6.5833l-20.167-0.3634-3.1667-5.703 0.5833-11.1 5.5833-5.1667 2.8333-7-0.8332-9.7499z" fill="#fff"/><path d="m39.754 27.752s-4.8333 14.833 4.6667 21.667c0 0 8.3333 7.6667 0.1667 17l6-1 3.6667-2.6667 2.5-6.1667-0.8333-5.3333-5.1667-7.3333-0.8333-1s-2.8333-2.8333 0.1667-5.5l6.3333-7.3333 4.5-8 2.6667-7 0.5-8.3333-4-1-5.6667 1-5.8333 5-4 6.1667-2.6667 6.3333-2.1668 3.4999z" fill="#3F3F3F"/><path d="m32.108 27.752s4.8333 14.833-4.6667 21.667c0 0-8.3333 7.6667-0.1667 17l-6-1-3.6667-2.6667-2.5-6.1667 0.8333-5.3333 5.1667-7.3333 0.8333-1s2.8333-2.8333-0.1667-5.5l-6.3333-7.3333-4.5-8-2.6667-7-0.5-8.3333 4-1 5.6667 1 5.8333 5 4 6.1667 2.6667 6.3333 2.1668 3.4999z" fill="#3F3F3F"/></g><g id="c"><path d="m60.569 9.8131s-12.498-0.3048-16.784 19.858" fill="none" stroke="#000" stroke-linecap="round" stroke-linejoin="round" stroke-miterlimit="10" stroke-width="2"/><polyline points="41.03 50.553 35.84 53.954 30.564 50.553" fill="none" stroke="#000" stroke-linecap="round" stroke-linejoin="round" stroke-miterlimit="10" stroke-width="2"/><polyline points="31.377 61.019 35.797 58.987 40.42 61.019" fill="none" stroke="#000" stroke-linecap="round" stroke-linejoin="round" stroke-miterlimit="10" stroke-width="2"/><line x1="35.84" x2="35.797" y1="53.954" y2="58.987" fill="none" stroke="#000" stroke-linecap="round" stroke-linejoin="round" stroke-miterlimit="10" stroke-width="2"/><ellipse cx="45.121" cy="39.918" rx="1.6461" ry="2.8119"/><path d="m22.333 36.734c-16.664-13.006-14.429-30.451-14.429-30.451 16.055-5.5566 23.472 21.713 23.472 21.713s4.4135-3.561 9.0435 0c0 0 7.4177-27.269 23.472-21.713 0 0 2.2355 17.445-14.429 30.451" fill="none" stroke="#000" stroke-linecap="round" stroke-linejoin="round" stroke-miterlimit="10" stroke-width="2"/><path d="m11.228 9.8131s12.498-0.3048 16.784 19.858" fill="none" stroke="#000" stroke-linecap="round" stroke-linejoin="round" stroke-miterlimit="10" stroke-width="2"/><path d="m22.333 43.745s-10.872 8.2306-4.7758 17.985c0 0 2.8451 5.2838 13.21 4.979h10.263c10.364 0.3048 13.21-4.979 13.21-4.979 6.0967-9.7547-4.7758-17.985-4.7758-17.985" fill="none" stroke="#000" stroke-linecap="round" stroke-linejoin="round" stroke-miterlimit="10" stroke-width="2"/><ellipse cx="26.879" cy="39.918" rx="1.6461" ry="2.8119"/></g></svg>
