<svg xmlns="http://www.w3.org/2000/svg" id="a" viewBox="0 0 72 72"><g id="b"><path fill="#fff" d="m35.796 14.76-11.163 1.4089-4.1292 5-5.4167 7.8286-3.9501 10.002 0.46 8.3969s0.6101 5.4808 4.4251 7.2518 4.4817 3.8544 4.4817 3.8544 12.741 3.4167 15.496 2.9167 14.421-1.8333 16.588-3.4167c2.1667-1.5833 4.8333-4.2322 4.8333-4.2322l3.5473-7.8884-0.9862-9.2665-2.8944-10.28s-5.25-5.925-5.5-6.3792-6.1667-3.5271-6.1667-3.5271l-9.6245-1.6692z"/><path fill="#3F3F3F" d="m26.629 19.586-3.3333 3-5.5 2.7083-4.0417 6.2917-3.3333-2.3333-4-9.3333s1.8333-5.6667 2.3333-6.1667 5-3 5-3l5.1667 1.1667 7.7083 7.6666z"/><path fill="#3F3F3F" d="m45.296 19.544 3.8936 3.2933 5.8564 3.1234 3.0417 5.625 3.3333-2.3333 4-9.3333s-1.8333-5.6667-2.3333-6.1667-5-3-5-3l-5.1667 1.1667-7.625 7.6249z"/><path fill="#3F3F3F" d="m34.754 41.002s-3 5.8333-6.1667 5.6667c-3.1667-0.1667-6.4167-1.4167-6.4167-1.4167l-1.6667-4.0833 1.5-3.3333 2.3333-2.5 3.0833-1.3333 4-0.0833 1.4167 1.4167 1.9168 5.6665z"/><path fill="#3F3F3F" d="m37.338 41.002s3 5.8333 6.1667 5.6667c3.1667-0.1667 6.4167-1.4167 6.4167-1.4167l1.6667-4.0833-1.5-3.3333-2.3333-2.5-3.0833-1.3333-4-0.0833-1.4167 1.4167-1.9168 5.6665z"/><path fill="#3F3F3F" d="m31.525 46.836s4.9375-2.1875 8.8125 0.0625l-0.75 2.4375-6.3125 0.5-1.75-3z"/></g><g id="c"><circle cx="28.602" cy="38.999" r="2"/><path fill="none" stroke="#000" stroke-linecap="round" stroke-linejoin="round" stroke-miterlimit="10" stroke-width="2" d="m35.968 49.135s-4.0706 1.7971-4.172-1.2109"/><path fill="none" stroke="#000" stroke-linecap="round" stroke-linejoin="round" stroke-miterlimit="10" stroke-width="2" d="m25.977 18.895s-7.6875-11.625-14.938-6.8125c-6.6011 4.3818-3.9113 13.958 0.603 16.915"/><path fill="none" stroke="#000" stroke-linecap="round" stroke-linejoin="round" stroke-miterlimit="10" stroke-width="2" d="m21.04 57.582c-15.938-6.3125-7.8506-24.013-7.8506-24.013s3.645-9.3586 9.3416-11.609"/><path fill="none" stroke="#000" stroke-linecap="round" stroke-linejoin="round" stroke-miterlimit="10" stroke-width="2" d="m51.066 57.582c15.938-6.3125 7.8506-24.013 7.8506-24.013s-3.645-9.3586-9.3416-11.609"/><circle cx="43.334" cy="38.999" r="2"/><path fill="none" stroke="#000" stroke-linecap="round" stroke-linejoin="round" stroke-miterlimit="10" stroke-width="2" d="m44.657 51.531c-1.2194 1.924-4.0542 5.1185-8.2597 2.2386h-0.8572c-4.2055 2.8798-7.0402-0.3147-8.2597-2.2386"/><path fill="none" stroke="#000" stroke-linecap="round" stroke-linejoin="round" stroke-miterlimit="10" stroke-width="2" d="m35.968 49.135s4.0706 1.7971 4.172-1.2109"/><path fill="none" stroke="#000" stroke-linecap="round" stroke-linejoin="round" stroke-miterlimit="10" stroke-width="2" d="m45.959 18.895s7.6875-11.625 14.938-6.8125c6.6011 4.3818 3.9113 13.958-0.603 16.915"/><path fill="none" stroke="#000" stroke-linecap="round" stroke-linejoin="round" stroke-miterlimit="10" stroke-width="2" d="m24.634 16.951s8.7098-4.9304 22.326 0"/><path fill="none" stroke="#000" stroke-linecap="round" stroke-linejoin="round" stroke-miterlimit="10" stroke-width="2" d="m30.602 59.582c3.5914 1.2214 7.1689 1.2311 10.732 0"/><line x1="35.968" x2="36" y1="49.135" y2="53.77" fill="none" stroke="#000" stroke-linecap="round" stroke-linejoin="round" stroke-miterlimit="10" stroke-width="2"/><path fill="none" stroke="#000" stroke-linecap="round" stroke-linejoin="round" stroke-miterlimit="10" stroke-width="2" d="m43.938 45.836s7.3693 1.6133 7.4134-4.2067c0.0229-3.021-1.8972-5.6794-4.6072-7.0147-3.522-1.7354-8.4313-2.5763-8.4313 6.2213"/><path fill="none" stroke="#000" stroke-linecap="round" stroke-linejoin="round" stroke-miterlimit="10" stroke-width="2" d="m28.257 45.836s-7.3692 1.6133-7.4134-4.2067c-0.0229-3.021 1.8972-5.6794 4.6072-7.0147 3.522-1.7354 8.4312-2.5763 8.4312 6.2213"/></g></svg>