<svg xmlns="http://www.w3.org/2000/svg" id="a" viewBox="0 0 72 72"><g id="b"><path fill="#A57939" d="m22.754 11.086 1.6667 7.1667-5.3333 5.3333-8.3333 14.333 1 4.6667 2.1667 1.3333 4-0.1667 3.5-3.3333 6.8333-1.8333s1.3333 1.5 2.1667 3 3.6667 4.1667 3.6667 4.1667l0.5 6-1.8333 6.1667-2 2.8333s22 9.5 33.167-7l-0.5-6-1.8333-5-3.3333-5.1667-1-1.5-0.1667-5.1667-2.8333-5.3333-5-3-2.6667-4.5-5.1667-4.1667-6.5-1.5-5.6667 1-4.1667-2.1667-2.3335-0.1666z"/><path fill="#6A462F" d="m64.711 62.721c-0.9631-2.3846-0.5769-5.6313-0.1453-7.3825 0.2628-1.0662 0.3215-2.1766 0.1378-3.2592-1.4791-8.7127-6.9983-15.119-6.9983-15.119l-0.4205 1.8071c1.0747-6.5267-2.1549-11.307-2.1549-11.307l-5.2085-4.095-0.1175 0.6046c-2.2811-6.5568-10.049-9.9924-10.049-9.9924l-10.768-0.1362 2.4602 4.0656 5.792 2.0801 3.5322 2.8413 2.2761 4.3124 0.2832 4.8929-1.4169 5.6426-0.3258 6.0341 1.5833 4.7642c2.321 7.1157 7.7722 7.2844 9.4165 7.1639l0.0364 0.7856c0.0051 0.1072 0.0179 0.2164 0.0417 0.321 1.0129 4.4402 6.5474 7.319 10.257 8.0876 1.2262 0.2542 2.2572-0.9502 1.7883-2.1113zm-12.468-13.265c0.067-0.1094 0.1366-0.2226 0.2172-0.3541-0.0763 0.1243-0.1486 0.2422-0.2172 0.3541zm-0.1534 4.734 0.4487 0.3732 0.0138 0.2971c-0.1567-0.2231-0.3176-0.4455-0.4625-0.6703zm-0.37-3.8808c-0.0577 0.094-0.0622 0.1015 0 0zm0.0205-0.0334c0.063-0.1028 0.178-0.2902 0.3435-0.56-0.155 0.2527-0.2744 0.4474-0.3435 0.56zm4.4978-7.2547-2.1681 4.0145c0.2203-0.5795 0.4586-1.1631 0.7343-1.7551 0.9119-1.4865 1.5479-2.9395 1.9739-4.3344l-0.3918 1.6837c-0.0318 0.1364-0.0816 0.268-0.1483 0.3913zm-3.5675 5.7378c0.0782-0.1277 0.1625-0.2649 0.2516-0.41-0.0859 0.1399-0.1695 0.2763-0.2516 0.41zm0.798-1.3009c0.1384-0.2257 0.2872-0.4683 0.4448-0.7251-0.1416 0.2308-0.2912 0.4747-0.4448 0.7251zm0.8601-1.4022c0.0613-0.0999 0.1266-0.2064 0.1904-0.3103-0.0563 0.0919-0.1213 0.1977-0.1904 0.3103zm0.3892-0.6345c0.0051-0.0084 0.0095-0.0156 0.0146-0.024-0.0046 0.0078-0.0095 0.0156-0.0146 0.024z"/></g><g id="c"><path fill="none" stroke="#000" stroke-linecap="round" stroke-linejoin="round" stroke-miterlimit="10" stroke-width="2" d="m57.205 36.868c1.768 2.3617 6.5451 6.6821 6.0451 16.238"/><path fill="none" stroke="#000" stroke-linecap="round" stroke-linejoin="round" stroke-miterlimit="10" stroke-width="2" d="m31.25 40.971s8.4783 6.7823 0 18.765"/><path fill="none" stroke="#000" stroke-linecap="round" stroke-linejoin="round" stroke-miterlimit="10" stroke-width="2" d="m33.946 29.955c0.5489 8.3555-9.3225 9.703-11.954 10.335-0.3325 0.0798-0.6318 0.25-0.8736 0.4919l-2.2227 2.2227c-0.3494 0.3494-0.8234 0.5458-1.3176 0.5458h-3.5121c-1.203 0-2.2711-0.7698-2.6515-1.9111l-0.531-1.5931c-0.258-0.774-0.1649-1.6222 0.2549-2.3218l8.7862-14.644 4.7238-4.7238-2.1151-6.9054s7.8026-0.6987 8.4135 5.3308c0 0 16.928 2.4418 10.553 19.383 0 0-1.625 5.9489 2.375 11.185"/><path fill="none" stroke="#000" stroke-linecap="round" stroke-linejoin="round" stroke-miterlimit="10" stroke-width="2" d="m29.667 13.106s22.244-4.0208 19.958 19.958"/><path fill="none" stroke="#000" stroke-linecap="round" stroke-linejoin="round" stroke-miterlimit="10" stroke-width="2" d="m48.669 22.24s14.766 6.5865 5.4563 22.22c0 0-5.375 6.5625 0.625 13.604"/><circle cx="23.167" cy="28.016" r="2"/></g></svg>