<svg xmlns="http://www.w3.org/2000/svg" id="a" viewBox="0 0 72 72"><g id="b" fill="#3F3F3F"><path d="m11.254 18.669s-0.4167 2.75-0.1667 3.1667 2.3333 2.8333 2.6667 2.8333 2.5 0.25 2.5 0.25l1.4167-2.8333-1.6667-2.8333-3.0833-1.25-1.6667 0.6666z"/><polygon points="16.254 10.586 16.088 13.336 18.171 15.752 20.421 15.752 21.588 14.086 21.088 11.086 18.754 8.585"/><path d="m26.504 7.3355-1.9167 2.5 1.0833 2.1667 1.0833 1.3333 2.5833 0.0833 0.75-2.1667-0.25-2.75s-0.75-1.1667-1.0833-1.1667c-0.3333 1e-4 -2.2499 1e-4 -2.2499 1e-4z"/><path d="m34.671 10.919-1 3.0833s0.1667 3.25 0.4167 3.5 2.6667 1.25 2.6667 1.25l1.5833-2.3333 0.3333-3.5833-1.75-1.8333-2.25-0.0834z"/><path d="m22.004 20.836c-0.0833 0.25-1.6667 3.5833-1.6667 3.5833l0.3333 3.5833-1.1667 3.3333 0.6667 3.3333 2.8333 2.0833 3.5833-0.5 2.1667-2.5833 5.25 1.4167s3.5-2 3.4167-2.25 0.5833-4.3333 0.5833-4.3333-2.8333-3.5833-3.5833-3.4167c0 0-1.1667-4.5-4.3333-5.4167-3.1667-0.9167-6-0.5-6-0.5l-2.0833 1.6668z"/><path d="m34.754 40.586s-1.25 3.1667-1.0833 3.4167 1.4167 3.25 1.4167 3.25 2.5833 0.4167 2.6667 0.1667c0.0833-0.25 1.0833-2.9167 1.0833-2.9167l-0.0833-3.1667-4.0001-0.75z"/><polygon points="44.171 35.086 42.421 38.252 43.671 41.836 47.338 40.252 47.838 37.752 46.921 35.336"/><path d="m53.254 37.336c-0.0833 0.25-2.4167 3.4167-2.4167 3.4167l0.9167 3.1667 2.8333-0.0833 2-3.0833-0.5833-3-2.75-0.4168z"/><path d="m58.671 45.336-2.5 3.0833-0.5 2.75 1.4167 1 3.75-1s1-2.1667 1-2.4167-0.4167-2.8333-0.4167-2.8333l-2.75-0.5833z"/><path d="m41.004 48.752c-0.1975 0.9874-2.1667 4.5-2.1667 4.5s-2.9167 1.9167-3.0833 2.25c-0.1667 0.3333-0.75 3.5833-0.75 3.5833l1.5 2.8333 2.4167 1.25 4.75-1.4167 3.25 3.5s3.25 0.5 4.5833-0.9167 1.9167-4.3333 1.9167-4.3333l-1.5-3 0.5833-4s-1.0833-5.3333-3.75-5.8333c-2.6667-0.4999-7.5 0.3334-7.75 1.5834z"/></g><g id="c" fill="none" stroke="#000" stroke-linecap="round" stroke-linejoin="round" stroke-miterlimit="10" stroke-width="2"><path d="m34.204 25.041c-0.0364-0.2205-0.0784-0.4413-0.134-0.6623-1.0117-4.0167-4.871-6.5074-8.6199-5.5631s-5.9678 4.9659-4.9561 8.9826c0.0557 0.221 0.1233 0.4353 0.1957 0.6468-1.1533 1.1787-1.6914 2.9682-1.2371 4.7717 0.6745 2.6778 3.2473 4.3382 5.7466 3.7087 1.6833-0.424 3.7084-3.5122 3.9147-3.5641 0.2063-0.052 3.4527 1.7084 5.136 1.2844 2.4993-0.6295 3.9785-3.3106 3.3041-5.9884-0.4544-1.8035-1.7759-3.1246-3.35-3.6163z"/><ellipse cx="19.013" cy="12.433" rx="2.688" ry="3.763" transform="matrix(.9327 -.3607 .3607 .9327 -3.2047 7.6957)"/><ellipse cx="14.124" cy="21.55" rx="2.688" ry="3.763" transform="matrix(.8286 -.5598 .5598 .8286 -9.6426 11.599)"/><ellipse cx="36.132" cy="14.827" rx="3.763" ry="2.688" transform="matrix(.0748 -.9972 .9972 .0748 18.643 49.749)"/><ellipse cx="27.703" cy="10.244" rx="2.688" ry="3.763" transform="matrix(.9893 -.1458 .1458 .9893 -1.1975 4.1481)"/><path d="m52.016 56.906c0.0775-0.2096 0.1503-0.4223 0.2113-0.6418 1.1089-3.991-1.0118-8.0652-4.7367-9.1002s-7.6434 1.3613-8.7523 5.3523c-0.061 0.2196-0.1083 0.4393-0.1501 0.6589-1.5855 0.4534-2.9387 1.742-3.4366 3.534-0.7393 2.6606 0.6745 5.3768 3.1578 6.0668 1.6725 0.4647 4.9607-1.2164 5.1656-1.1594s2.1545 3.1934 3.8271 3.6581c2.4832 0.69 5.0956-0.9076 5.8349-3.5682 0.4978-1.7922 0.0033-3.5942-1.121-4.8005z"/><ellipse cx="45.056" cy="38.431" rx="3.763" ry="2.688" transform="matrix(.1482 -.989 .989 .1482 .3735 77.296)"/><ellipse cx="36.296" cy="43.934" rx="2.688" ry="3.763" transform="matrix(.9971 -.0763 .0763 .9971 -3.2453 2.8964)"/><ellipse cx="58.746" cy="48.985" rx="3.763" ry="2.688" transform="matrix(.5586 -.8295 .8295 .5586 -14.698 70.351)"/><ellipse cx="53.69" cy="40.83" rx="3.763" ry="2.688" transform="matrix(.363 -.9318 .9318 .363 -3.8434 76.038)"/></g></svg>