<svg xmlns="http://www.w3.org/2000/svg" id="a" viewBox="0 0 72 72"><g id="b"><path fill="#F4AA41" d="m58.495 11.21s-10.408 2.3754-15.574 6.7088c0 0-9-2.5-13.833 0.1667 0 0-9.6549-6.7318-15.655-6.7318 0 0-5.0326 3.75 0.3216 21.065 0 0-2.6667 10.667 1.6667 16.333s9.8333 9.5 9.8333 9.5l8.7917 4.0417 3.9583 0.1667 9.9167-4.375s6.6667-4.8333 8.8333-9.5c2.1667-4.6667 2.1667-13.833 2.1667-13.833l-1-3.3333 2.8333-11.021-2.2591-9.1881z"/><path fill="#fff" d="m30.838 47.336s-7.625 2.75-1.375 9.25c0 0-0.9739 4.625 3.8034 5.4849h5.1966c2.0529 0.0031 4.5833-1.0683 3.7404-5.3628 0 0 7.5513-6.3722-1.3654-9.3722l-4.875 2-5.125-1.9999z"/></g><g id="c"><ellipse cx="45.085" cy="38.103" rx="1.646" ry="2.812"/><ellipse cx="26.843" cy="38.103" rx="1.646" ry="2.812"/><polyline fill="none" stroke="#000" stroke-linecap="round" stroke-linejoin="round" stroke-miterlimit="10" stroke-width="2" points="31.933 47.229 36.037 50.02 39.85 47.229"/><path fill="none" stroke="#000" stroke-linecap="round" stroke-linejoin="round" stroke-miterlimit="10" stroke-width="2" d="m36.037 50.02v4.2708s-1.1042 3.6875-5.5417 2.875"/><path fill="none" stroke="#000" stroke-linecap="round" stroke-linejoin="round" stroke-miterlimit="10" stroke-width="2" d="m15.872 48.476c-4.8928-7.2535-2.0014-15.872-2.0014-15.872s-5.25-14.875-0.4375-21.25c0 0 9.1875 1.5 15.688 7.375 4.5946-1.9379 9.1575-2.0128 13.688-0.1437 6.5-5.875 15.688-7.375 15.688-7.375 4.8125 6.375-0.4375 21.25-0.4375 21.25s2.8914 8.6187-2.0014 15.872"/><path fill="none" stroke="#000" stroke-linecap="round" stroke-linejoin="round" stroke-miterlimit="10" stroke-width="2" d="m14.745 15.104s12.812 6.1875 10.062 11.812"/><path fill="none" stroke="#000" stroke-linecap="round" stroke-linejoin="round" stroke-miterlimit="10" stroke-width="2" d="m24.849 50.875s-9.3615-0.458-13.652 7.5243"/><path fill="none" stroke="#000" stroke-linecap="round" stroke-linejoin="round" stroke-miterlimit="10" stroke-width="2" d="m35.891 49.877v4.2708s1.1042 3.6875 5.5417 2.875"/><path fill="none" stroke="#000" stroke-linecap="round" stroke-linejoin="round" stroke-miterlimit="10" stroke-width="2" d="m57.183 14.96s-12.812 6.1875-10.062 11.812"/><path fill="none" stroke="#000" stroke-linecap="round" stroke-linejoin="round" stroke-miterlimit="10" stroke-width="2" d="m47.205 54.684s8.2116 2.2454 8.6795 11.296"/><path fill="none" stroke="#000" stroke-linecap="round" stroke-linejoin="round" stroke-miterlimit="10" stroke-width="2" d="m48.079 50.732s9.3615-0.458 13.652 7.5243"/><path fill="none" stroke="#000" stroke-linecap="round" stroke-linejoin="round" stroke-miterlimit="10" stroke-width="2" d="m31.386 60.76c3.88 1.6845 5.6481 1.8093 9.3021 0"/><path fill="none" stroke="#000" stroke-linecap="round" stroke-linejoin="round" stroke-miterlimit="10" stroke-width="2" d="m25.445 54.684s-8.2116 2.2454-8.6795 11.296"/></g></svg>