<svg xmlns="http://www.w3.org/2000/svg" id="a" viewBox="0 0 72 72"><g id="b"><path fill="#F4AA41" d="m19.588 25.336s-12.5 3.25-8.75 19.75 16 13.5 16 13.5l4.75-1.25 9.5-0.25s9 2.75 14.25-0.25 7.75-12.25 7.75-12.25v-7l-2.5-5.5-4.25-4.25-2.5-2s7.5-7 5-11.5-4.25-5.75-11.5 0.25l-1.25 1s-9.75-4.75-19.5-0.25c0 0-5-8-11.75-3l-0.5 5s1.75 8 5.25 8z"/><path fill="#fff" d="m9.921 40.752s9.5833 10.333 22.167 2.1667c0 0 1.1667 4.4167 3.8333 3.75 2.6667-0.6667 4.9167-3.4167 4.9167-3.4167s15.083 5.5833 22.917-2.5833c0 0 0.5417 9.3333-8.2917 16.667 0 0-8.125 2.9167-14.375-0.25l-9.8333 0.25s-7.5833 2.6667-12.833-0.1667c-5.2501-2.8333-9.6667-12.833-8.5001-16.417z"/><path fill="#EA5A47" d="m32.088 42.919 8.375-0.0833s-0.6875 3.9375-3.8125 3.9375-4.5625-3.8542-4.5625-3.8542z"/></g><g id="c"><circle cx="27.814" cy="32.086" r="3"/><circle cx="44.439" cy="32.086" r="3"/><path fill="none" stroke="#000" stroke-linecap="round" stroke-linejoin="round" stroke-miterlimit="10" stroke-width="2" d="m32.377 43.756s0.75 2.5833 3.75 2.9167c3 0.3333 4-2.9167 4-2.9167"/><path fill="none" stroke="#000" stroke-linecap="round" stroke-linejoin="round" stroke-miterlimit="10" stroke-width="2" d="m36.127 46.673 0.125 4.3334c1.6287 1.0459 2.5723 1.5093 5.0416 1"/><path fill="none" stroke="#000" stroke-linecap="round" stroke-linejoin="round" stroke-miterlimit="10" stroke-width="2" d="m31.377 52.006c1.9583 0.3334 2.9167 0 4.875-1"/><path fill="none" stroke="#000" stroke-linecap="round" stroke-linejoin="round" stroke-miterlimit="10" stroke-width="2" d="m41.882 56.673c5.397 2.7745 9.6846 1.7224 12.752-0.243"/><path fill="none" stroke="#000" stroke-linecap="round" stroke-linejoin="round" stroke-miterlimit="10" stroke-width="2" d="m11.031 44.478c-3.7861-13.524 9.0129-18.722 9.0129-18.722-3-1-8.3333-9.5833-3.9167-13.583s10.5 3.3333 10.5 3.3333 9.8443-4.1667 20.006 0c0 0 6.0833-7.3333 10.5-3.3333s-0.9167 12.583-3.9167 13.583c0 0 12.582 5.0927 9.1061 18.377"/><path fill="none" stroke="#000" stroke-linecap="round" stroke-linejoin="round" stroke-miterlimit="10" stroke-width="2" d="m19.221 56.791c3.0177 1.722 7.0999 2.4809 12.156-0.1181"/><path fill="none" stroke="#000" stroke-linecap="round" stroke-linejoin="round" stroke-miterlimit="10" stroke-width="2" d="m26.627 43.506s-17 2.6667-19.75 11.75"/><path fill="none" stroke="#000" stroke-linecap="round" stroke-linejoin="round" stroke-miterlimit="10" stroke-width="2" d="m27.377 47.227s-12.252 2.2168-14.5 13.28"/><path fill="none" stroke="#000" stroke-linecap="round" stroke-linejoin="round" stroke-miterlimit="10" stroke-width="2" d="m46.632 43.506s17 2.6667 19.75 11.75"/><path fill="none" stroke="#000" stroke-linecap="round" stroke-linejoin="round" stroke-miterlimit="10" stroke-width="2" d="m45.882 47.227s11.743 3.7797 14.5 13.28"/></g></svg>