<svg xmlns="http://www.w3.org/2000/svg" id="a" viewBox="0 0 72 72"><g id="b"><path fill="#5C9E31" stroke="#5C9E31" stroke-linecap="round" stroke-linejoin="round" stroke-miterlimit="10" stroke-width="1.8" d="m51 33c8-4 8-9 8-9l-7 3c4-5 2-11 2-11-2 4-5 5-5 5-4-6-10-6-10-6l-3-4-3 4c-6 0-10 6-10 6-4-1-5-5-5-5-1 9 3 11 3 11l-7-2c2 4 7 7 7 7-3 2-6 1-6 1 3 5 7 5 7 5h28c7 0 8-5 8-5-5 1-7 0-7 0z"/><path fill="#B1CC33" stroke="#B1CC33" stroke-linecap="round" stroke-linejoin="round" stroke-miterlimit="10" stroke-width="2" d="M26,38c0,0,0-1,4.0537-0.9286c0,0,5.9468-3.9646,11.8937,0c0,0,4.0527,0.9463,4.0527,2.9286c0,0,4,3,1.8942,5.9916 c0,0,0,3.9646-5.9468,7.9291c0,0-3.9646,1.9823-11.8937,0c0,0-7.2664-6.07-6.0537-10.9207C25,39,26,38,26,38z"/><path fill="#EA5A47" stroke="#EA5A47" stroke-linecap="round" stroke-linejoin="round" stroke-miterlimit="10" stroke-width="2" d="m34 49s0 10-2 11c0 0 4-1 4-5 0 0 1 4 4 5 0 0-3-7-2-11h-4z"/><path fill="#fff" d="m31 46v4c-3-3-3-7-3-7s8 7 16 0c0 0 1 5-3 7v-4"/></g><g id="c"><path fill="none" stroke="#000" stroke-linecap="round" stroke-linejoin="round" stroke-miterlimit="10" stroke-width="2" d="m31 46v4c-3-3-3-7-3-7s8 7 16 0c0 0 1 5-3 7v-4"/><path fill="none" stroke="#000" stroke-linecap="round" stroke-linejoin="round" stroke-miterlimit="10" stroke-width="2" d="m27 23s7 2 9 8c0 0 2-7 10-8"/><circle cx="29" cy="30" r="2"/><circle cx="43" cy="30" r="2"/><circle cx="34" cy="39" r="1"/><circle cx="38" cy="39" r="1"/><path fill="none" stroke="#000" stroke-linecap="round" stroke-linejoin="round" stroke-miterlimit="10" stroke-width="2" d="m34 49s0 10-2 11c0 0 4-1 4-5 0 0 1 4 4 5 0 0-3-7-2-11"/><path fill="none" stroke="#000" stroke-linecap="round" stroke-linejoin="round" stroke-miterlimit="10" stroke-width="2" d="m22 38s-4 0-7-5c0 0 3 1 6-1 0 0-5-3-7-7l7 2s-4-2-3-11c0 0 1 4 5 5 0 0 4-6 10-6l3-4 3 4s6 0 10 6c0 0 3-1 5-5 0 0 2 6-2 11l7-3s0 5-8 9c0 0 2 1 7 0 0 0-1 5-8 5"/><path fill="none" stroke="#000" stroke-linecap="round" stroke-linejoin="round" stroke-miterlimit="10" stroke-width="2" d="m25 39s-1-3 5-2c0 0 6-5 12 0 0 0 5-1 5 2"/><path fill="none" stroke="#000" stroke-linecap="round" stroke-linejoin="round" stroke-miterlimit="10" stroke-width="2" d="m29 40s-6-1-9 3-6 4-8 2"/><path fill="none" stroke="#000" stroke-linecap="round" stroke-linejoin="round" stroke-miterlimit="10" stroke-width="2" d="m43 40s6-1 9 3 6 4 8 2"/><path fill="none" stroke="#000" stroke-linecap="round" stroke-linejoin="round" stroke-miterlimit="10" stroke-width="2" d="m23.315 40.571s-1.3149 10.429 6.6851 13.429"/><path fill="none" stroke="#000" stroke-linecap="round" stroke-linejoin="round" stroke-miterlimit="10" stroke-width="2" d="m49.189 40.783s-0.1888 10.217-7.1888 13.217"/><path fill="none" stroke="#000" stroke-linecap="round" stroke-linejoin="round" stroke-miterlimit="10" stroke-width="2" d="m31 46v4c-3-3-3-7-3-7s8 7 16 0c0 0 1 5-3 7v-4"/></g></svg>