<svg xmlns="http://www.w3.org/2000/svg" id="a" version="1.1" viewBox="0 0 72 72"><g id="b"><path fill="#c19a65" d="m54.42 40.99c-1.16 1.12-4.36-0.18-6.16-1.46l-0.01-0.01c-0.36-0.23-1.56-0.26-1.56-0.26l-1.35-1.83-0.79-1.07v-1.28l-0.02 1.25 0.02 0.03v24.27c0 1.94-1.57 3.5-3.5 3.5-1.83 0-3.31-1.38-3.48-3.16-0.01-0.11-0.02-0.23-0.02-0.34l-0.09-21.8c-0.38 1.64-1.89 2.81-3.63 2.7-1.77-0.11-3.14-1.51-3.26-3.23h-0.13c-0.02 0.17-0.07 0.33-0.12 0.49-0.04 0.1-0.08 0.21-0.13 0.3101-0.08 0.2-0.2 0.39-0.33 0.5699-0.06 0.09-0.12 0.17-0.2 0.25-0.14 0.17-0.3 0.32-0.47 0.45-0.07 0.06-0.15 0.11-0.22 0.17-0.28 0.19-0.6 0.35-0.9399 0.44-0.36 0.1201-0.75 0.17-1.16 0.15h-0.04c-0.05 0-0.11 0-0.15-0.01-0.06-0.01-0.1-0.01-0.16-0.02-0.23-0.03-0.45-0.09-0.66-0.16-0.21-0.08-0.41-0.17-0.6-0.28-0.1-0.06-0.19-0.1201-0.28-0.1801-0.18-0.1299-0.34-0.27-0.49-0.43-0.08-0.08-0.15-0.16-0.21-0.24-0.28-0.35-0.4901-0.75-0.6201-1.18-0.02-0.06-0.03-0.12-0.04-0.18-0.02-0.05-0.03-0.1-0.03-0.15-0.01-0.03-0.01-0.05-0.02-0.08 0 0.03 0.01 0.05 0.01 0.08h-0.19c-0.4 1.56-1.85 2.67-3.52 2.6-1.57-0.07-2.85-1.16-3.23-2.6-0.08-0.29-0.12-0.58-0.12-0.89 0 0-0.0088-6.3534 0-11.34-0.306-8.6962 7.43-18.14 16.46-18.14 7.35 1.61 15.85 1.62 16.7 21.84 5.31 7.0301 6.08 9.9202 4.74 11.22z"/></g><g id="c" fill="none" stroke="#000" stroke-linecap="round" stroke-linejoin="round" stroke-miterlimit="10" stroke-width="2"><path d="m16.521 37.257v-12.874c0-9.0883 7.3675-16.456 16.456-16.456s16.456 7.3675 16.456 16.456"/><path d="m23.513 37.55c-0.081 1.9313-1.7123 3.4313-3.6436 3.3502s-3.4313-1.7123-3.3502-3.6436"/><path d="m30.51 37.783c-0.081 1.9313-1.7123 3.4313-3.6436 3.3502s-3.4313-1.7123-3.3502-3.6436"/><path d="m30.506 37.917c-0.155 1.9268-1.8426 3.3631-3.7694 3.2081s-3.3631-1.8426-3.2081-3.7694"/><path d="m37.548 38.261c-0.1237 1.929-1.7878 3.3925-3.7168 3.2688s-3.3925-1.7878-3.2688-3.7168"/><path d="m54.501 36.038c1.3429 1.3904 1.3044 3.6061-0.086 4.949s-3.6061 1.3044-4.949-0.086"/><path d="m44.548 60.634c0 1.933-1.567 3.5-3.5 3.5s-3.5-1.567-3.5-3.5"/><line x1="37.548" x2="37.548" y1="38.298" y2="60.634"/><line x1="44.548" x2="44.548" y1="60.634" y2="32.843"/><line x1="47.508" x2="49.466" y1="38.687" y2="40.901"/><path d="m52.734 33.718c-1.9526-2.1439-3.3734-5.1677-3.3013-9.5218"/><line x1="54.501" x2="52.68" y1="36.038" y2="33.658"/></g></svg>