<svg xmlns="http://www.w3.org/2000/svg" id="a" version="1.1" viewBox="0 0 72 72"><g id="b"><path fill="#6a462f" d="m55.36 33.73c-0.38-1.44-1.66-2.53-3.23-2.6-1.67-0.07-3.12 1.04-3.52 2.6h-0.19c0 0.02 0.01 0.05 0.01 0.08-0.01-0.03-0.01-0.06-0.02-0.08v-0.0099-0.01c-0.11-0.56-0.35-1.06-0.69-1.49-0.06-0.08-0.1299-0.16-0.21-0.2401-0.17-0.18-0.35-0.34-0.56-0.47-0.07-0.05-0.14-0.1-0.21-0.14-0.17-0.1-0.34-0.18-0.52-0.25-0.1-0.04-0.2-0.07-0.3-0.09-0.12-0.04-0.25-0.07-0.38-0.09l-0.24-0.03h-0.04-0.02c-0.09-0.01-0.17-0.01-0.26-0.01-0.12 0-0.23 0-0.34 0.02-0.23 0.02-0.44 0.06-0.65 0.12-0.43 0.13-0.83 0.34-1.18 0.6201-0.08 0.06-0.16 0.1299-0.24 0.21-0.09 0.07-0.16 0.15-0.23 0.24-0.07 0.08-0.14 0.16-0.2 0.25s-0.12 0.18-0.18 0.28c-0.11 0.19-0.2 0.39-0.28 0.6-0.05 0.16-0.1 0.32-0.12 0.49h-0.13c-0.12-1.72-1.49-3.12-3.26-3.23-1.74-0.11-3.25 1.06-3.63 2.7v0.58l-0.09-0.01v-22.37c0-0.11-0.01-0.23-0.02-0.34-0.17-1.78-1.65-3.16-3.48-3.16-1.93 0-3.5 1.56-3.5 3.5v24.27l0.02 0.03-0.02 1.25v-1.28l-0.79-1.0699-1.35-1.83-0.69 0.45c-0.22-0.23-0.51-0.48-0.87-0.71l-0.01-0.01c-1.8-1.28-5-2.58-6.16-1.46-1.35 1.3101-0.56 4.23 4.86 11.37 0.99 20.84 8.68 19.56 16.58 21.69 7.66 0.71 16.13-6.3101 16.25-18.14h0.21v-11.34c0-0.3102-0.04-0.6002-0.12-0.8903zm-13.86 0.38h-0.01c0.01-0.07 0.01-0.14 0.03-0.21-0.01 0.0701-0.02 0.14-0.02 0.21z"/></g><g id="c" fill="none" stroke="#000" stroke-linecap="round" stroke-linejoin="round" stroke-miterlimit="10" stroke-width="2"><path d="m55.479 47.647c0 9.0883-7.3675 16.456-16.456 16.456s-16.456-7.3675-16.456-16.456"/><line x1="55.479" x2="55.479" y1="46.774" y2="34.774"/><path d="m48.487 34.48c0.081-1.9313 1.7123-3.4313 3.6436-3.3502 1.9313 0.081 3.4312 1.7123 3.3502 3.6436"/><path d="m41.49 34.248c0.081-1.9313 1.7123-3.4312 3.6436-3.3502s3.4313 1.7123 3.3502 3.6436"/><path d="m41.494 34.114c0.155-1.9268 1.8426-3.3631 3.7694-3.2081s3.3631 1.8426 3.2081 3.7694"/><path d="m34.452 33.769c0.1237-1.929 1.7878-3.3925 3.7168-3.2688s3.3925 1.7878 3.2688 3.7168"/><path d="m17.499 35.993c-1.3429-1.3904-1.3044-3.6061 0.086-4.949s3.6061-1.3044 4.949 0.086"/><path d="m27.452 11.397c0-1.933 1.567-3.5 3.5-3.5s3.5 1.567 3.5 3.5"/><line x1="34.452" x2="34.452" y1="33.732" y2="11.397"/><line x1="27.452" x2="27.452" y1="11.397" y2="39.188"/><line x1="24.492" x2="22.534" y1="33.344" y2="31.13"/><path d="m19.266 38.312c1.9526 2.1439 3.3734 5.1677 3.3013 9.5218"/><line x1="17.499" x2="19.32" y1="35.993" y2="38.373"/></g></svg>