<?xml version="1.0" encoding="UTF-8"?>
<svg id="a" viewBox="0 0 72 72" xmlns="http://www.w3.org/2000/svg"><g id="b"><path d="m56.426 39.17c0.03-0.18 0.03-0.36 0.03-0.55 0 0 0.33-21.03 0.3-21.34-0.19-1.94-1.92-3.36-3.86-3.17s-3.36 1.91-3.17 3.86l0.7104 13.221c-1.42-5.66-5.6404-21.641-5.7304-21.871-0.68-1.83-2.71-2.76-4.54-2.08-1.83 0.69-2.75 2.72-2.07 4.55l1.7127 6.7546 2.5673 10.135v-0.01c-2.6-4.36-10.55-17.72-10.71-17.93-1.18-1.55-3.4-1.85-4.95-0.67-1.55 1.17-1.86 3.39-0.68 4.94l5.3325 9.1368 7.5566 13.035-6.2691-7.432c-0.16-0.27-0.36-0.51-0.59-0.72-0.55-0.51-1.22-0.81-1.92-0.91-0.59-0.19-1.22-0.23-1.87-0.11l-10.08 1.47c-0.32 0-0.63 0.04-0.93 0.12-1.88 0.51-2.99 2.45-2.48 4.33 0.51 1.89 2.45 3 4.34 2.48l8.8796-1.3 5.651 7.1064c-1.3254 3.8368-1.2485 6.1236-3.2986 7.1812-3.9119-1.3794-7.9247-1.9453-7.9247-1.9453v-5.3923c0.04-0.31 0.04-0.62 0-0.93-0.26-1.93-2.03-3.29-3.96-3.03-1.94 0.25-3.3 2.03-3.04 3.96v8.14l0.0716 0.2227c0.0875 1.9615 0.7117 3.8226 1.5117 4.4226 1.1808 1.3968 3.0242 3.1904 4.9271 5.0504 4.3858 3.3314 10.452 6.0706 15.508 5.8058 11.084 0 20.07-8.9855 20.07-20.07 0-2.2878-0.3798-4.4198-1.0843-6.4559" fill="#fcea2b" stroke="#fcea2b" stroke-miterlimit="10" stroke-width="1.8"/></g><g id="c" fill="none" stroke="#000" stroke-linecap="round" stroke-linejoin="round" stroke-width="2"><path d="m15.458 50.2v-8.14c-0.26-1.93 1.1-3.71 3.04-3.96 1.93-0.26 3.7 1.1 3.96 3.03 0.04 0.31 0.04 0.62 0 0.93v5.3923"/><path d="m56.461 39.176c0.7045 2.036 1.0843 4.1681 1.0843 6.4559 0 11.084-8.9855 20.07-20.07 20.07-5.0562 0.2648-11.122-2.4744-15.508-5.8058-1.9029-1.86-3.7464-3.6536-4.9271-5.0504-0.8-0.6-1.4242-2.4611-1.5117-4.4226"/><path d="m33.681 42.216c-1.3254 3.8368-1.2485 6.1236-3.2986 7.1812-3.9119-1.3794-7.9247-1.9453-7.9247-1.9453"/><path d="m28.03 35.11-8.8796 1.3c-1.89 0.52-3.83-0.59-4.34-2.48-0.51-1.88 0.6-3.82 2.48-4.33 0.3-0.08 0.61-0.12 0.93-0.12l10.08-1.47c0.65-0.12 1.28-0.08 1.87 0.11"/><line x1="33.681" x2="28.03" y1="42.216" y2="35.11"/><path d="m30.17 28.12c0.7 0.1 1.37 0.4 1.92 0.91 0.23 0.21 0.43 0.45 0.59 0.72l6.2691 7.432"/><path d="m31.392 24.147-5.3325-9.1368c-1.18-1.55-0.87-3.77 0.68-4.94 1.55-1.18 3.77-0.88 4.95 0.67 0.16 0.21 8.11 13.57 10.71 17.93v0.01"/><path d="m50.46 31.191c-1.42-5.66-5.6404-21.641-5.7304-21.871-0.68-1.83-2.71-2.76-4.54-2.08-1.83 0.69-2.75 2.72-2.07 4.55l1.7127 6.7546"/><path d="m49.75 17.97c-0.19-1.95 1.23-3.67 3.17-3.86s3.67 1.23 3.86 3.17c0.03 0.31-0.3 21.34-0.3 21.34 0 0.19 0 0.37-0.03 0.55"/><line x1="41.825" x2="45.406" y1="27.792" y2="33.447"/></g></svg>
