<svg xmlns="http://www.w3.org/2000/svg" id="a" viewBox="0 0 72 72"><g id="b"><path fill="#fff" d="m7.6875 31.438c7.1875 11.938 20.472 18.965 29.562 21.5 4.5378 1.2652 16.125 9.75 16.125 9.75s-2.8918-8.4957-3.375-11.438c-1.8349-11.171 13.062-12.5 14.531-20.466-8.5311-19.826-38.531-37.472-56.844 0.6532z"/><circle cx="36" cy="30.5" r="14.222" fill="#A57939"/></g><g id="c"><path fill="none" stroke="#000" stroke-linecap="round" stroke-linejoin="round" stroke-miterlimit="10" stroke-width="2" d="m7.6875 31.438c7.1875 11.938 20.472 18.965 29.562 21.5 4.5378 1.2652 16.125 9.75 16.125 9.75s-2.8918-8.4957-3.375-11.438c-1.8349-11.171 13.062-12.5 14.531-20.466-8.5311-19.826-38.531-37.472-56.844 0.6532z"/><circle cx="36" cy="30.5" r="7.782"/><circle cx="36" cy="30.5" r="14.222" fill="none" stroke="#000" stroke-linecap="round" stroke-linejoin="round" stroke-miterlimit="10" stroke-width="2"/><circle cx="36" cy="30.5" r="7.782" fill="none" stroke="#000" stroke-linecap="round" stroke-linejoin="round" stroke-miterlimit="10" stroke-width="2"/></g></svg>