<?xml version="1.0" encoding="UTF-8"?>
<svg id="a" version="1.1" viewBox="0 0 72 72" xmlns="http://www.w3.org/2000/svg"><g id="b"><path d="m18.658 19.241c-0.9683-1.6927-3.1256-2.2799-4.8183-1.3115s-2.2799 3.1256-1.3115 4.8183c0.1552 0.2714 0.3458 0.5209 0.5667 0.742l11.532 15.1 2.6883 3.3878-7.8906-10.331c-0.9683-1.6927-3.1256-2.2799-4.8183-1.3115s-2.2799 3.1256-1.3115 4.8183c0.1552 0.2714 0.3458 0.5209 0.5667 0.7421l7.8906 10.331 6.2707 7.899c5.467 6.2731 14.515 5.9306 20.786 0.465 3.6045-3.1684 5.9226-7.5482 6.5154-12.31 0.3858-4.2326 0.807-15.301 0.807-15.301-0.1826-2.6008-3.1353-4.5234-3.5158-3.1802l-4.8939 9.7575-3.3657-4.2224 3.3657 4.2224-3.3657-4.2224-13.465-17.209c-0.9683-1.6927-3.1256-2.2799-4.8183-1.3115s-2.2799 3.1256-1.3115 4.8183c0.1552 0.2714 0.3458 0.5209 0.5667 0.742l4.2488 5.5631 6.4234 8.48-13.419-17.68c-0.9683-1.6927-3.1256-2.2799-4.8183-1.3115s-2.2799 3.1256-1.3116 4.8183c0.1552 0.2714 0.3458 0.5209 0.5667 0.7421l14.672 19.014" fill="#a57939"/></g><g id="c" fill="none" stroke="#000" stroke-linecap="round" stroke-linejoin="round" stroke-width="2"><path d="m18.658 19.241c-0.9683-1.6927-3.1256-2.2799-4.8183-1.3115s-2.2799 3.1256-1.3115 4.8183c0.1552 0.2714 0.3458 0.5209 0.5667 0.742l11.532 15.1 2.6883 3.3878-7.8906-10.331c-0.9683-1.6927-3.1256-2.2799-4.8183-1.3115s-2.2799 3.1256-1.3115 4.8183c0.1552 0.2714 0.3458 0.5209 0.5667 0.7421l7.8906 10.331 6.2707 7.899c5.467 6.2731 14.515 5.9306 20.786 0.465 3.6045-3.1684 5.9226-7.5482 6.5154-12.31 0.3858-4.2326 0.807-15.301 0.807-15.301-0.1826-2.6008-3.1353-4.5234-3.5158-3.1802l-4.8939 9.7575-3.3657-4.2224 3.3657 4.2224-3.3657-4.2224-13.465-17.209c-0.9683-1.6927-3.1256-2.2799-4.8183-1.3115s-2.2799 3.1256-1.3115 4.8183c0.1552 0.2714 0.3458 0.5209 0.5667 0.742l4.2488 5.5631 6.4234 8.48-13.419-17.68c-0.9683-1.6927-3.1256-2.2799-4.8183-1.3115s-2.2799 3.1256-1.3116 4.8183c0.1552 0.2714 0.3458 0.5209 0.5667 0.7421l14.672 19.014"/><path d="m11.673 42.872c0 2.5663 1.747 4.6428 3.9059 4.6428" stroke-miterlimit="10"/><path d="m7.0614 42.437c0 5.5959 3.8094 10.124 8.5171 10.124" stroke-miterlimit="10"/><path d="m45.262 21.238c0-2.5663-1.747-4.6428-3.9059-4.6428" stroke-miterlimit="10"/><path d="m49.873 21.673c0-5.5959-3.8094-10.124-8.5171-10.124" stroke-miterlimit="10"/></g></svg>
