<?xml version="1.0" encoding="UTF-8"?>
<svg id="a" viewBox="0 0 72 72" xmlns="http://www.w3.org/2000/svg"><g id="b"><polygon points="37.333 57.207 35.666 52.624 31.75 43.04 31.687 41.304 40.812 41.304 41.666 40.707 42.5 40.04 55.666 39.54 58.25 38.04 58.083 34.624 56.916 32.457 59.416 31.29 60.333 28.54 58.416 25.874 56.833 25.207 58.416 22.207 57.583 19.874 56.25 18.207 52.666 18.124 53.416 16.54 52.666 12.707 50.271 11.137 36.229 11.345 26.604 11.304 13.666 18.374 11.667 29.648 19 42.707 34.166 60.04 37.088 60.685" fill="#a57939" stroke="#a57939"/></g><g id="c" fill="none" stroke="#000" stroke-width="2"><path d="m17.236 40.316c-3.2007-3.5759-4.9796-8.2009-5-13 0-8.319 5.679-15 14-15h9" stroke-linecap="round" stroke-linejoin="round"/><path d="m17.236 40.316 15 19c2.21 2.8 5.811 1.084 5-1l-7-18h4.389" stroke-linecap="round" stroke-linejoin="round"/><path d="m41.448 40.316h13c0.3099 0.0413 0.6238 0.0413 0.9337 0 1.933-0.2578 3.291-2.0339 3.0331-3.9669s-2.0339-3.291-3.9669-3.0331h-13c-2.0658-0.1226-3.8473 1.4362-4 3.5 0.1528 2.0638 1.9343 3.6226 4.0001 3.5z" stroke-linecap="round" stroke-linejoin="round"/><path d="m42.305 18.98h7c0.3099 0.0413 0.6238 0.0413 0.9337 0 1.933-0.2578 3.291-2.0339 3.0331-3.9669s-2.0339-3.291-3.9669-3.0331h-7c-2.0658-0.1226-3.8473 1.4362-4 3.5 0.1528 2.0638 1.9343 3.6226 4.0001 3.5z" stroke-linecap="round" stroke-linejoin="round"/><path d="m37.236 32.98h19c0.3099 0.0413 0.6238 0.0413 0.9337 0 1.933-0.2578 3.291-2.0339 3.0331-3.9669s-2.0339-3.291-3.9669-3.0331h-19c-2.0658-0.1226-3.8473 1.4362-4 3.5 0.1528 2.0638 1.9343 3.6226 4.0001 3.5z" stroke-linecap="round" stroke-linejoin="round"/><path d="m39.236 25.98h15c0.3099 0.0413 0.6238 0.0413 0.9337 0 1.933-0.2578 3.291-2.0339 3.0331-3.9669s-2.0339-3.291-3.9669-3.0331h-15c-2.0658-0.1226-3.8473 1.4362-4 3.5 0.1528 2.0638 1.9343 3.6226 4.0001 3.5z" stroke-linecap="round" stroke-linejoin="round"/><path d="m27.355 12.315c-10.5 0-15.125 6.94-15.125 15.5 0.0807 2.7175 0.73 5.3879 1.906 7.839" stroke-miterlimit="10"/></g></svg>
