<?xml version="1.0" encoding="UTF-8"?>
<svg id="a" viewBox="0 0 72 72" xmlns="http://www.w3.org/2000/svg"><g id="b" fill="#debb90" stroke="#debb90"><path d="m46.05 41.903c-1.0781-3.8065-4.3718-14.867-3.1714-30.028h-13.391c1.2004 15.161-2.0933 26.222-3.1714 30.028"/><path d="m50.25 36.708c7.5833 4.6667 2.8334 12.752-1.6875 14.021-3.92 1.1004-2.5625 9.339-12.562 9.3125-10 0.0265-8.6425-8.212-12.562-9.3125-4.5209-1.2691-9.2818-9.3547-1.6984-14.021"/></g><g id="c" fill="none" stroke="#000" stroke-linecap="round" stroke-linejoin="round" stroke-miterlimit="10" stroke-width="2"><path d="m29.487 12.875c1.2004 14.656-2.0933 25.348-3.1714 29.028"/><path d="m42.878 12.875c-1.2004 14.656 2.0933 25.348 3.1714 29.028"/><path d="m50.25 37.708c7.5833 4.6667 2.8334 11.752-1.6875 13.021-3.92 1.1005-2.5625 9.3391-12.562 9.3126-10 0.0265-8.6425-8.212-12.562-9.3125-4.5209-1.2692-9.2708-8.3542-1.6875-13.021"/></g></svg>
