<?xml version="1.0" encoding="UTF-8"?>
<svg id="a" viewBox="0 0 72 72" xmlns="http://www.w3.org/2000/svg"><g id="b"><path d="m25.107 19.748c4.625-17.542 35.893-12.748 24.604 15.917-14.592 35.792-32.792 24.677-29.729 13" fill="#6a462f" stroke="#6a462f"/></g><g id="c" fill="#352318"><path d="m45.688 35.614c3.6637-21.878-14.562-17.239-16.006-11.677 3.9743-15.875 24.092-9.5924 16.006 11.677z"/><path d="m34.163 27.634c4.4385 7 8.3371 13.908 2.3371 16.616-1.3969 0.5735-2.8765 0.4132-4.3824 1.1735-1.5343 0.7223-1.8192 1.3265-3.6385 3.2848-2.5625 2.0625-5.7708-1.5465-3.9583-3.6875 3.0729-3.3958 6.4479-3.9271 4.6667-7.2083-1.2187-2.2047 0.4957-5.0277 4.402-3.9027"/></g><g id="d" fill="none" stroke="#000" stroke-linecap="round" stroke-linejoin="round" stroke-miterlimit="10" stroke-width="2"><path d="m26.125 19.625c4.625-17.542 34.875-11.75 23.562 16.333-14.592 35.792-31.875 25-28.812 13.323"/><path d="m35.103 28c4.4386 7 7.3969 13.542 1.3969 16.25-1.3969 0.5735-2.8765 0.4132-4.3824 1.1735-1.5343 0.7223-1.8192 1.3265-3.6385 3.2848-2.5625 2.0625-5.7708-1.5465-3.9583-3.6875 3.0729-3.3958 6.4479-3.9271 4.6667-7.2083-1.2187-2.2047-0.4062-5.2812 3.5-4.1562"/><path d="m29.682 23.938c3.9744-15.875 24.833-10.258 15.24 11.118"/></g></svg>
