<?xml version="1.0" encoding="UTF-8"?>
<svg id="a" version="1.1" viewBox="0 0 72 72" xmlns="http://www.w3.org/2000/svg"><g id="b" fill="#fadcbc"><path d="m56.352 43.998-1.0617-7.4771c-0.5114-3.0215-0.8271-7.288-1.9002-14.274-2.4731-1.8145-5.4509 1.6502-6.2031 4.6336l-2.7527-17.92c-0.5551-3.6134-7.1336-2.877-6.4499 1.5743l2.0868 14.078-2.5293-16.958c-0.5976-3.8903-7.1342-4.2736-6.0641 2.6924-0.5335-3.473-7.0838-3.4227-6.2808 1.8048l0.7744 5.4314 0.1014 0.8084-0.221-1.6979c-0.4806-3.1286-6.0705-2.3774-5.4508 1.6573l1.0803 6.4311" stroke="#fadcbc" stroke-linecap="round" stroke-linejoin="round" stroke-miterlimit="10" stroke-width="2"/><path d="m22.748 27.254c-3.1923-3.1923 1.6882-7.6885 4.2795-5.0972l16.309 16.309-3.4575-3.4575c-1.1612-2.8574-0.8089-7.4235 2.2659-7.4235 5.01 5.01 8.4731 8.9333 10.678 11.072 6.2265 6.2265 6.2265 16.322 0 22.548s-16.187 6.2579-22.413 0.0314l-17.239-17.239c-2.8935-2.8935 1.1791-6.8155 3.4228-4.5718l9.8594 10.043-13.082-13.326c-3.7489-3.7489 1.5155-7.6739 4.0062-5.1832-4.9957-4.9957 0.5147-8.5621 3.3047-5.7722l13.391 13.391"/></g><g id="c" fill="none" stroke="#000" stroke-linecap="round" stroke-linejoin="round" stroke-miterlimit="10" stroke-width="2"><path d="m22.748 27.254c-3.1923-3.1923 1.6882-7.6885 4.2795-5.0972l16.309 16.309-3.4575-3.4575c-1.1612-2.8574-0.8089-7.4235 2.2659-7.4235 5.01 5.01 8.4731 8.9333 10.678 11.072 6.2265 6.2265 6.2265 16.322 0 22.548s-16.187 6.2579-22.413 0.0314l-17.239-17.239c-2.8935-2.8935 1.1791-6.8155 3.4228-4.5718l9.8594 10.043-13.082-13.326c-3.7489-3.7489 1.5155-7.6739 4.0062-5.1832-4.9957-4.9957 0.5147-8.5621 3.3047-5.7722l13.391 13.391"/><line x1="20.36" x2="20.641" y1="18.342" y2="20.171"/><line x1="15.408" x2="14.06" y1="12.91" y2="6.6237"/><line x1="12.507" x2="6.5922" y1="18.505" y2="21.026"/><line x1="13.653" x2="9.2139" y1="15.52" y2="13.219"/><line x1="54.532" x2="54.27" y1="14.497" y2="8.0732"/><line x1="58.736" x2="65.092" y1="19.193" y2="20.16"/><line x1="56.882" x2="60.607" y1="16.588" y2="13.252"/><line x1="29.917" x2="16.835" y1="43.743" y2="30.417"/><line x1="34.074" x2="20.683" y1="38.579" y2="25.188"/><path d="m13.172 43.998c-2.8935-2.8935 1.1791-6.8155 3.4228-4.5718l9.8594 10.043"/><path d="m13.372 36.143c-3.7489-3.7489 1.5155-7.6739 4.0062-5.1832"/><path d="m20.683 25.188c-2.79-2.79-8.3004 0.7764-3.3047 5.7722"/><path d="m52.824 38.657c-2.2051-2.1389-5.6682-6.0622-10.678-11.072-3.0748 0-3.4271 4.5661-2.2659 7.4235l3.4575 3.4575-16.309-16.309c-2.5914-2.5914-7.4718 1.9049-4.2795 5.0972"/><line x1="13.372" x2="17.88" y1="36.143" y2="40.735"/><path d="m52.824 38.657c6.2265 6.2265 6.2265 16.322 0 22.548s-16.187 6.2579-22.413 0.0314"/><line x1="13.172" x2="30.41" y1="43.998" y2="61.236"/><line x1="33.387" x2="31.348" y1="23.706" y2="9.5592"/><line x1="40.079" x2="37.543" y1="24.619" y2="7.6188"/><path d="m20.36 18.342c-0.6213-4.0446 4.9823-4.7977 5.4641-1.6614l0.2215 1.702"/><path d="m25.168 12.127c-0.805-5.2403 5.7614-5.2907 6.2962-1.8092"/><path d="m37.543 7.6188c-0.5991-3.8999-7.1517-4.2841-6.079 2.6991"/><path d="m55.335 36.556c-0.5127-3.0289-0.8291-7.3059-1.9048-14.309-2.4791-1.8189-5.4643 1.6542-6.2183 4.6449l-2.7594-17.964c-0.5564-3.6223-7.1511-2.8841-6.4657 1.5781"/><line x1="25.168" x2="25.944" y1="12.127" y2="17.572"/><line x1="20.36" x2="20.641" y1="18.342" y2="20.171"/><line x1="15.408" x2="14.06" y1="12.91" y2="6.6237"/><line x1="12.507" x2="6.5922" y1="18.505" y2="21.026"/><line x1="13.653" x2="9.2139" y1="15.52" y2="13.219"/><line x1="54.532" x2="54.27" y1="14.497" y2="8.0732"/><line x1="58.736" x2="65.092" y1="19.193" y2="20.16"/><line x1="56.882" x2="60.607" y1="16.588" y2="13.252"/></g></svg>
