<?xml version="1.0" encoding="UTF-8"?>
<svg id="a" viewBox="0 0 72 72" xmlns="http://www.w3.org/2000/svg"><g id="b"><path d="m15.625 21.75h41.75" fill="none"/><path d="m56.967 16.777c0 6-41.779 7.8191-41.342 1.0066-9.6555 35.239 9.3367 42.591 20.875 42.591s31.895-6.0205 20.467-43.598z" fill="#ea5a47"/></g><g id="c" fill="none" stroke="#000" stroke-linecap="round" stroke-linejoin="round" stroke-miterlimit="10" stroke-width="2"><path d="m62.417 12.5c-6.1355 7.125-13.448 9.6893-26.417 9.6875-12.969 0.0018-20.281-2.5625-26.417-9.6875"/><path d="m62.417 12.5c-6.1355 7.125-13.448 9.6893-26.417 9.6875-12.969 0.0018-20.281-2.5625-26.417-9.6875"/><path d="M57.375,21.75C66.5,55.1875,48.0383,60.375,36.5,60.375s-30-5.1875-20.875-38.625"/><line x1="36.5" x2="36.5" y1="60.375" y2="34.196"/></g></svg>
