<svg xmlns="http://www.w3.org/2000/svg" id="a" viewBox="0 0 72 72"><g id="b" fill="#debb90" stroke="#debb90"><path d="m26.303 55.288c-11.975 0-18.391-7.1612-18.391-16.249s5.9358-19.291 31.153-16.617"/><line x1="25.242" x2="37.242" y1="55.494" y2="55.494"/><path d="m37.535 48.502c1.9313 0.081 3.4313 1.7123 3.3502 3.6436-0.081 1.9313-1.7123 3.4313-3.6436 3.3502"/><path d="m37.768 41.505c1.9313 0.081 3.4313 1.7123 3.3502 3.6436-0.081 1.9313-1.7123 3.4313-3.6436 3.3502"/><path d="m37.902 41.509c1.9268 0.155 3.3631 1.8426 3.2081 3.7694s-1.8426 3.3631-3.7694 3.2081"/><path d="m38.246 34.468c1.929 0.1237 3.3925 1.7878 3.2688 3.7168s-1.7878 3.3925-3.7168 3.2688"/><path d="m28.942 22.954c7.6195-5.8672 10.687-6.7449 12.03-5.3546 1.3429 1.3904-0.7837 5.6942-2.1741 7.0371"/><path d="m60.618 27.468c1.933 0 3.5 1.567 3.5 3.5s-1.567 3.5-3.5 3.5"/><line x1="38.283" x2="60.618" y1="34.468" y2="34.468"/><line x1="60.618" x2="32.828" y1="27.468" y2="27.468"/><line x1="38.672" x2="40.886" y1="24.507" y2="22.549"/><path d="m33.703 19.282c-2.1439 1.9526-5.1677 3.3734-9.5218 3.3013"/><line x1="36.022" x2="33.642" y1="17.514" y2="19.335"/><polygon points="33.203 34.578 35.17 27.515 60.953 27.515 60.953 34.468"/><rect width="20.921" height="12.226" x="21.709" y="38.925" transform="matrix(-1.837e-16 1 -1 -1.837e-16 77.208 12.868)"/><polygon points="35.062 27.468 36.057 24.812 39.243 25.321 36.313 27.485"/></g><g id="c" fill="none" stroke="#000" stroke-linecap="round" stroke-linejoin="round" stroke-miterlimit="10" stroke-width="2"><path d="m24.368 55.494c-9.0883 0-16.456-7.3675-16.456-16.456s7.3675-16.456 16.456-16.456"/><line x1="25.242" x2="37.242" y1="55.494" y2="55.494"/><path d="m37.535 48.502c1.9313 0.081 3.4313 1.7123 3.3502 3.6436-0.081 1.9313-1.7123 3.4313-3.6436 3.3502"/><path d="m37.768 41.505c1.9313 0.081 3.4313 1.7123 3.3502 3.6436-0.081 1.9313-1.7123 3.4313-3.6436 3.3502"/><path d="m37.902 41.509c1.9268 0.155 3.3631 1.8426 3.2081 3.7694s-1.8426 3.3631-3.7694 3.2081"/><path d="m38.246 34.468c1.929 0.1237 3.3925 1.7878 3.2688 3.7168s-1.7878 3.3925-3.7168 3.2688"/><path d="m36.022 17.514c1.3904-1.3429 3.6061-1.3044 4.949 0.086s1.3044 3.6061-0.086 4.949"/><path d="m60.618 27.468c1.933 0 3.5 1.567 3.5 3.5s-1.567 3.5-3.5 3.5"/><line x1="38.283" x2="60.618" y1="34.468" y2="34.468"/><line x1="60.618" x2="32.828" y1="27.468" y2="27.468"/><line x1="38.672" x2="40.886" y1="24.507" y2="22.549"/><path d="m33.703 19.282c-2.1439 1.9526-5.1677 3.3734-9.5218 3.3013"/><line x1="36.022" x2="33.642" y1="17.514" y2="19.335"/></g></svg>