<svg xmlns="http://www.w3.org/2000/svg" id="a" viewBox="0 0 72 72"><g id="b"><polygon fill="#61B2E4" points="23.513 14.309 20.823 16.021 20.823 56 51.177 56 51.177 16.021 48.306 14.389 45.098 13.528 45.732 11.124 36.74 7.431 27.437 9.639 25.636 13.454"/><polygon fill="#61B2E4" stroke-linecap="round" stroke-linejoin="round" stroke-miterlimit="10" stroke-width="2" points="61 31.329 51.177 28.329 51.177 16.021 64 22.021"/><path fill="#92D3F5" d="m45.732 11.124s2.4511 2.4293-4.7072 11.283l-3.2087-5.165 4.5054-4.8457 2.3198-2.6622"/><path fill="#92D3F5" d="m27.437 9.6393 2.0075 2.7494 4.5124 4.8532-3.2087 5.165c-7.1583-8.8534-4.7072-11.283-4.7072-11.283"/><polygon fill="#61B2E4" stroke-linecap="round" stroke-linejoin="round" stroke-miterlimit="10" stroke-width="2" points="11 31.329 20.823 28.329 20.823 16.021 8 22.021"/></g><g id="c"><polyline fill="none" stroke="#000" stroke-linecap="round" stroke-linejoin="round" stroke-miterlimit="10" stroke-width="2" points="48.306 15.24 51.177 16.021 51.177 56 20.823 56 20.823 16.021 23.513 15.16"/><polygon fill="none" stroke="#000" stroke-linecap="round" stroke-linejoin="round" stroke-miterlimit="10" stroke-width="2" points="61 31.329 51.177 28.329 51.177 16.021 64 22.021"/><polygon fill="none" stroke="#000" stroke-linecap="round" stroke-linejoin="round" stroke-miterlimit="10" stroke-width="2" points="11 31.329 20.823 28.329 20.823 16.021 8 22.021"/><path fill="none" stroke="#000" stroke-linecap="round" stroke-linejoin="round" stroke-miterlimit="10" stroke-width="2" d="m42.322 12.396-4.5054 4.8457 3.2087 5.165c7.1583-8.8534 4.7072-11.283 4.7072-11.283-10.443-8.3615-19.691 0-19.691 0s-2.4511 2.4293 4.7072 11.283l3.2087-5.165-4.5124-4.8532"/><circle cx="35.887" cy="21.675" r=".853"/><circle cx="35.887" cy="24.942" r=".853"/><circle cx="35.887" cy="28.208" r=".853"/></g></svg>