<?xml version="1.0" encoding="UTF-8"?>
<svg id="a" viewBox="0 0 72 72" xmlns="http://www.w3.org/2000/svg"><g id="b" stroke-miterlimit="10" stroke-width="2"><path d="m16.132 13.778c-3.292 0-5.9607 2.6687-5.9607 5.9607v38.078c0 3.292 2.6687 5.9607 5.9607 5.9607h38.078c3.292 0 5.9607-2.6687 5.9607-5.9607v-38.078c0-3.292-2.6687-5.9607-5.9607-5.9607h-3.1635l-10.351-5.8139-8.528-0.2269-8.2214 2.3051-4.029 3.7356h-3.7857z" fill="#61B2E4" stroke="#61B2E4"/><path d="m20.73 12.597s-4.6402 2.9574 6.4892 16.722l3.9887-7.0302-6.8234-8.4142-3.0873-3.0873" fill="#92D3F5" stroke="#92D3F5"/><path d="m48.531 11.368-2.4093 2.4093-7.1732 8.52 4.6605 7.0331c11.129-13.765 6.0484-16.379 6.0484-16.379" fill="#92D3F5" stroke="#92D3F5"/><polygon points="36.679 31.62 33.672 31.62 29.646 63.778 40.696 63.778" fill="#8967AA" stroke-linecap="round" stroke-linejoin="round"/><polygon points="36.679 24.662 33.672 24.662 32.168 28.141 33.672 31.62 36.679 31.62 38.183 28.141" fill="#8967AA" stroke-linecap="round" stroke-linejoin="round"/></g><g id="c" fill="none" stroke="#000" stroke-linecap="round" stroke-linejoin="round" stroke-miterlimit="10" stroke-width="2"><path d="m16.132 13.778c-3.292 0-5.9607 2.6687-5.9607 5.9607v38.078c0 3.292 2.6687 5.9607 5.9607 5.9607h38.078c3.292 0 5.9607-2.6687 5.9607-5.9607v-38.078c0-3.292-2.6687-5.9607-5.9607-5.9607"/><path d="m24.384 13.875 7.8234 8.4142-4.9887 8.0302c-11.129-13.765-7.3184-17.542-7.3184-17.542s14.378-13 30.614 0c0 0 3.8109 3.7769-7.3184 17.542l-4.9887-8.0302 7.9138-8.5115"/><polygon points="36.679 31.62 33.672 31.62 29.646 63.778 40.696 63.778"/><polygon points="36.679 24.662 33.672 24.662 32.168 28.141 33.672 31.62 36.679 31.62 38.183 28.141"/></g></svg>
