<?xml version="1.0" encoding="UTF-8"?>
<svg id="a" viewBox="0 0 72 72" xmlns="http://www.w3.org/2000/svg"><g id="b"><path d="m37.621 29.671c-2.5604 0-4.9347 1.7605-4.9347 2.8289s-2 35.413-2 35.413h-13.062v-56.955h40v56.955h-13.062s-2-34.345-2-35.413-2.3743-2.8289-4.9347-2.8289" fill="#61B2E4" stroke-linecap="round" stroke-linejoin="round" stroke-miterlimit="10" stroke-width="2"/></g><g id="c"><path d="m37.621 29.671c-2.5604 0-4.9347 1.7605-4.9347 2.8289s-2 35.413-2 35.413h-13.062v-56.955h40v56.955h-13.062s-2-34.345-2-35.413-2.3743-2.8289-4.9347-2.8289" fill="none" stroke="#000" stroke-linecap="round" stroke-linejoin="round" stroke-miterlimit="10" stroke-width="2"/><circle cx="38.125" cy="16.07" r="2"/><path d="m48.865 14.328s-2.403 8.938 6.0876 11.467" fill="none" stroke="#000" stroke-linecap="round" stroke-linejoin="round" stroke-miterlimit="10" stroke-width="2"/><path d="m26.385 14.328s2.403 8.938-6.0876 11.467" fill="none" stroke="#000" stroke-linecap="round" stroke-linejoin="round" stroke-miterlimit="10" stroke-width="2"/></g></svg>
