<svg xmlns="http://www.w3.org/2000/svg" id="a" version="1.1" viewBox="0 0 72 72"><g id="b"><rect width="64" height="7.267" x="4" y="51.624" fill="#fff"/><circle cx="35.996" cy="16.008" r="5" fill="#fff"/><rect width="64" height="7.267" x="4" y="51.624" fill="#F1B31C"/><path fill="#FCEA2B" d="m7 11c2.7614 0 5 2.2386 5 5s-2.2386 5-5 5"/><path fill="#FCEA2B" d="m65 21c-2.7614 0-5-2.2386-5-5s2.2386-5 5-5"/><path fill="#FCEA2B" d="M64.9674,17.4945c0,9.0811-7.3617,16.4428-16.4428,16.4428H48.238 c-9.0811,0-11.4428-7.3617-11.4428-16.4428h-2.0738c0,9.0811-2.3617,16.4428-11.4428,16.4428h0.1643 c-5.3121,0-10.0359-2.519-13.0419-6.4277C8.2681,24.7363,7,21.2635,7,17.4945V11v40.624h58V11"/><circle cx="35.996" cy="16.008" r="5" fill="#FCEA2B"/></g><g id="c" fill="none" stroke="#000" stroke-linecap="round" stroke-linejoin="round" stroke-miterlimit="10" stroke-width="2"><rect width="64" height="7.267" x="4" y="51.624"/><polyline points="7 11 7 51.624 65 51.624 65 11"/><path d="m7 11c2.7614 0 5 2.2386 5 5s-2.2386 5-5 5"/><path d="M23.4428,33.9373c-5.3121,0-10.0359-2.519-13.0419-6.4277C8.2681,24.7363,7,21.2635,7,17.4945"/><path d="m64.967 17.494c0 9.0811-7.3617 16.443-16.443 16.443"/><circle cx="35.996" cy="16.008" r="5"/><path d="m65 21c-2.7614 0-5-2.2386-5-5s2.2386-5 5-5"/><rect width="64" height="7.267" x="4" y="51.624"/><path d="m7 11c2.7614 0 5 2.2386 5 5s-2.2386 5-5 5"/><path d="m65 21c-2.7614 0-5-2.2386-5-5s2.2386-5 5-5"/><path d="M34.597,20.8744c-0.5876,7.4597-3.3959,13.0629-11.3184,13.0629h0.1643c-5.3121,0-10.0359-2.519-13.0419-6.4277 C8.2681,24.7363,7,21.2635,7,17.4945V11v40.624h58V11"/><path d="m64.967 17.494c0 9.0811-7.3617 16.443-16.443 16.443h-0.2866c-7.9061 0-10.719-5.5799-11.315-13.016"/><circle cx="35.996" cy="16.008" r="5"/></g></svg>