<svg xmlns="http://www.w3.org/2000/svg" id="a" viewBox="0 0 72 72"><g id="b"><path fill="#9B9B9A" stroke-linecap="round" stroke-linejoin="round" stroke-miterlimit="10" stroke-width="2" d="m7 52.061c-2.2485-1.8528-3-8.2556-3-11.397 0-2.7896 1.1307-10.315 2.9588-12.143 0 0 2.6586-1.1324 4.0412 0 4.5288 3.7092 13.658 12.215 25.004 0 0 0 17.577 8.3421 22.32 9.5458 8.1427 2.0668 8.4167 4.1197 8.4167 6.8223 0 8.6515-10.084 7.5391-16.81 7.1718-3.7068-0.2025-38.801 0.2254-42.93-1e-4"/><path fill="#D0CFCE" d="m7 45.884s16.134-1.5287 25.496 1.0426 28.346 0.2299 28.346 0.2299l5.2681-0.0261s-0.9366 5.7896-5.523 5.7896-54.586-1.7914-54.586-1.7914-3.3823-4.6906 1-5.2446z"/></g><g id="c" fill="none" stroke="#000" stroke-linecap="round" stroke-linejoin="round" stroke-miterlimit="10" stroke-width="2"><path d="m7 52.061c-2.2485-1.8528-3-8.2556-3-11.397 0-2.7896 1.1307-10.315 2.9588-12.143 0 0 2.6586-1.1324 4.0412 0 4.5288 3.7092 13.658 12.215 25.004 0 0 0 17.577 8.3421 22.32 9.5458 8.1427 2.0668 8.4167 4.1197 8.4167 6.8223 0 8.6515-10.084 7.5391-16.81 7.1718-3.7068-0.2025-38.801 0.2254-42.93-1e-4"/><path d="m8 46.816s15.134-2.4608 24.496 0.1105 28.346 1.2299 28.346 1.2299"/><line x1="40.442" x2="35.37" y1="35.958" y2="41.896"/><line x1="45.526" x2="41.994" y1="37.761" y2="41.896"/><path d="m7 52.061c-2.2485-1.8528-3-8.2556-3-11.397 0-2.7896 1.1307-10.315 2.9588-12.143 0 0 2.6586-1.1324 4.0412 0 4.5288 3.7092 13.658 12.215 25.004 0 0 0 17.577 8.3421 22.32 9.5458 8.1427 2.0668 8.4167 4.1197 8.4167 6.8223 0 8.6515-10.084 7.5391-16.81 7.1718-3.7068-0.2025-38.801 0.2254-42.93-1e-4"/></g></svg>