<svg xmlns="http://www.w3.org/2000/svg" id="a" viewBox="0 0 72 72"><g id="b"><path fill="#D0CFCE" d="m14.537 29.848v-5.2545s11.726-1.1745 21.463-1.1745 21.478 1.1745 21.478 1.1745v5.2545"/><path fill="#8967AA" stroke-linecap="round" stroke-linejoin="round" stroke-miterlimit="10" stroke-width="2" d="m36 27.893h-17.706c0 10.947-7.2944 14.042-7.2944 21.106s11.193 12.299 25 12.299 25-5.2359 25-12.299-7.2944-10.159-7.2944-21.106h-17.706z"/><path fill="#B399C8" d="m44.027 27.893s9.5808 9.9741 5.9505 31.376c-0.281 1.6566 11.022-5.8555 11.022-10.27 0-7.0633-7.2944-10.159-7.2944-21.106h-9.6784"/><circle cx="37.692" cy="14.942" r="3.937" fill="#D0CFCE"/><circle cx="33.012" cy="13.702" r="3" fill="#D0CFCE" stroke-linecap="round" stroke-linejoin="round" stroke-miterlimit="10" stroke-width="2"/><path fill="#D0CFCE" stroke-linecap="round" stroke-linejoin="round" stroke-miterlimit="10" stroke-width="2" d="m38.522 12c1.5921 0.4585 2.5111 2.1209 2.0526 3.7131s-2.1209 2.5111-3.7131 2.0526"/></g><g id="c" fill="none" stroke="#000" stroke-linecap="round" stroke-linejoin="round" stroke-miterlimit="10" stroke-width="2"><path d="m36 27.893h-17.706c0 10.947-7.2944 14.042-7.2944 21.106s11.193 12.299 25 12.299 25-5.2359 25-12.299-7.2944-10.159-7.2944-21.106h-17.706z"/><path d="m14.537 28.893v-4.4738s11.726-1 21.463-1 21.478 1 21.478 1v4.4738"/><polyline points="18.699 20.362 24.953 20.362 28.355 17.396"/><polyline points="50.101 20.362 43.847 20.362 42.146 18.879"/><circle cx="33.012" cy="13.702" r="3"/><path d="m38.522 12c1.5921 0.4585 2.5111 2.1209 2.0526 3.7131s-2.1209 2.5111-3.7131 2.0526"/><path d="m36 27.893h-17.706c0 10.947-7.2944 14.042-7.2944 21.106s11.193 12.299 25 12.299 25-5.2359 25-12.299-7.2944-10.159-7.2944-21.106h-17.706z"/></g></svg>