<svg xmlns="http://www.w3.org/2000/svg" id="a" viewBox="0 0 72 72"><g id="b" fill="#a57939" stroke="#a57939"><path d="m6.523 24.298c-0.8267-1.1121-2.3985-1.3435-3.5107-0.5167s-1.3435 2.3985-0.5167 3.5107c0.1325 0.1783 0.2881 0.3382 0.4628 0.4755l9.417 9.6754 0.8938 0.8849-5.153-5.3427c-0.8267-1.1121-2.3985-1.3435-3.5107-0.5167-1.1121 0.8268-1.3435 2.3985-0.5167 3.5107 0.1325 0.1783 0.2881 0.3382 0.4628 0.4755l6.4432 6.62 5.0941 5.0412c4.3891 3.9622 10.744 2.9533 14.705-1.4348 2.2744-2.5411 3.5384-5.8278 3.5528-9.238-0.0868-3.019-0.7282-10.864-0.7282-10.864-0.3494-1.8195-2.5956-2.9255-2.7502-1.9455l-2.6253 7.2992-2.7327-2.6936 2.7327 2.6936-2.7327-2.6936-10.96-10.999c-0.8267-1.1121-2.3985-1.3435-3.5107-0.5167-1.1121 0.8268-1.3435 2.3985-0.5167 3.5107 0.1325 0.1783 0.2881 0.3382 0.4628 0.4755l3.4694 3.5646 4.7716 4.9416-10.487-10.839c-0.8267-1.1121-2.3985-1.3435-3.5107-0.5167-1.1121 0.8268-1.3435 2.3985-0.5167 3.5107 0.1325 0.1783 0.2881 0.3382 0.4628 0.4755l9.5524 9.7181"/><path d="m65.824 24.298c0.8267-1.1121 2.3985-1.3435 3.5107-0.5167s1.3435 2.3985 0.5167 3.5107c-0.1325 0.1783-0.2881 0.3382-0.4628 0.4755l-9.417 9.6754-0.8938 0.8849 5.153-5.3427c0.8268-1.1121 2.3985-1.3435 3.5107-0.5167 1.1121 0.8268 1.3435 2.3985 0.5167 3.5107-0.1325 0.1783-0.2881 0.3382-0.4628 0.4755l-6.4432 6.62-5.0941 5.0412c-4.3891 3.9622-10.744 2.9533-14.705-1.4348-2.2744-2.5411-3.5384-5.8278-3.5528-9.238 0.0868-3.019 0.7283-10.864 0.7283-10.864 0.3494-1.8195 2.5956-2.9255 2.7502-1.9455l2.6253 7.2992 2.7327-2.6936-2.7327 2.6936 2.7327-2.6936 10.96-10.999c0.8267-1.1121 2.3985-1.3435 3.5107-0.5167 1.1121 0.8268 1.3435 2.3985 0.5167 3.5107-0.1325 0.1783-0.2881 0.3382-0.4628 0.4755l-3.4694 3.5646-4.7716 4.9416 10.487-10.84c0.8267-1.1121 2.3985-1.3435 3.5107-0.5167 1.1121 0.8268 1.3435 2.3985 0.5167 3.5107-0.1325 0.1783-0.2881 0.3382-0.4628 0.4755l-9.5524 9.7181"/></g><g id="c" fill="none" stroke="#000" stroke-linecap="round" stroke-linejoin="round" stroke-width="2"><path d="m6.523 24.298c-0.8267-1.1121-2.3985-1.3435-3.5107-0.5167s-1.3435 2.3985-0.5167 3.5107c0.1325 0.1783 0.2881 0.3382 0.4628 0.4755l9.417 9.6754 0.8938 0.8849-5.153-5.3427c-0.8267-1.1121-2.3985-1.3435-3.5107-0.5167-1.1121 0.8268-1.3435 2.3985-0.5167 3.5107 0.1325 0.1783 0.2881 0.3382 0.4628 0.4755l6.4432 6.62 5.0941 5.0412c4.3891 3.9622 10.744 2.9533 14.705-1.4348 2.2744-2.5411 3.5384-5.8278 3.5528-9.238-0.0868-3.019-0.7282-10.864-0.7282-10.864-0.3494-1.8195-2.5956-2.9255-2.7502-1.9455l-2.6253 7.2992-2.7327-2.6936 2.7327 2.6936-2.7327-2.6936-10.96-10.999c-0.8267-1.1121-2.3985-1.3435-3.5107-0.5167-1.1121 0.8268-1.3435 2.3985-0.5167 3.5107 0.1325 0.1783 0.2881 0.3382 0.4628 0.4755l3.4694 3.5646 4.7716 4.9416-10.487-10.839c-0.8267-1.1121-2.3985-1.3435-3.5107-0.5167-1.1121 0.8268-1.3435 2.3985-0.5167 3.5107 0.1325 0.1783 0.2881 0.3382 0.4628 0.4755l9.5524 9.7181"/><path d="m65.824 24.298c0.8267-1.1121 2.3985-1.3435 3.5107-0.5167s1.3435 2.3985 0.5167 3.5107c-0.1325 0.1783-0.2881 0.3382-0.4628 0.4755l-9.417 9.6754-0.8938 0.8849 5.153-5.3427c0.8268-1.1121 2.3985-1.3435 3.5107-0.5167 1.1121 0.8268 1.3435 2.3985 0.5167 3.5107-0.1325 0.1783-0.2881 0.3382-0.4628 0.4755l-6.4432 6.62-5.0941 5.0412c-4.3891 3.9622-10.744 2.9533-14.705-1.4348-2.2744-2.5411-3.5384-5.8278-3.5528-9.238 0.0868-3.019 0.7283-10.864 0.7283-10.864 0.3494-1.8195 2.5956-2.9255 2.7502-1.9455l2.6253 7.2992 2.7327-2.6936-2.7327 2.6936 2.7327-2.6936 10.96-10.999c0.8267-1.1121 2.3985-1.3435 3.5107-0.5167 1.1121 0.8268 1.3435 2.3985 0.5167 3.5107-0.1325 0.1783-0.2881 0.3382-0.4628 0.4755l-3.4694 3.5646-4.7716 4.9416 10.487-10.84c0.8267-1.1121 2.3985-1.3435 3.5107-0.5167 1.1121 0.8268 1.3435 2.3985 0.5167 3.5107-0.1325 0.1783-0.2881 0.3382-0.4628 0.4755l-9.5524 9.7181"/></g></svg>