<svg xmlns="http://www.w3.org/2000/svg" id="a" viewBox="0 0 72 72"><g id="b"><path fill="#f1b31c" d="m49.175 39.888s2.46-19.167-13.25-19.082-12.93 19.082-12.93 19.082 5.5237 0.7667 13.065 0.7667 13.115-0.7667 13.115-0.7667z"/><path fill="#f1b31c" d="m36.06 33.047c-12.941 0-26 2.2544-26 7.2905 0 5.8779 18.183 6.5127 26 6.5127 6.4492 0 27.491-0.4697 27.491-6.5127 0-4.7861-13.83-7.2905-27.491-7.2905z"/><path fill="#d22f27" d="M38.5841,40.655s-.0728-3.8838-2.6591-3.8838c-3.5083,0-12.93-.6344-12.93-.6344v3.8838s5.5237,.6344,13.065,.6344h2.5241Z"/><path fill="#ea5a47" d="m40.804 40.486c-1.5373 0.0325-2.8099-1.1873-2.8425-2.7247s1.1873-2.8099 2.7247-2.8425c3.775-0.0799 5.1354 3.8004 5.168 5.3377l-5.0502 0.2294z"/><path fill="#ea5a47" d="M50.7844,39.881c1.5287-.166,2.6334-1.5397,2.4674-3.0684s-1.5397-2.6334-3.0684-2.4674c-3.7538,.4075-4.6025,4.4309-4.4366,5.9595l5.0376-.4237Z"/><path fill="#a57939" d="m40.686 34.162s1.3103-8.5445-4.7612-13.356l5.4848 0.9852 5.6051 5.2098 2.0965 7.1598-3.2573 3.7903-2.5958-3.2445-2.5722-0.5443h1e-4z"/></g><g id="c" fill="none" stroke="#000" stroke-linecap="round" stroke-linejoin="round" stroke-width="2"><path d="m40.804 40.486c-1.5373 0.0325-2.8099-1.1873-2.8425-2.7247s1.1873-2.8099 2.7247-2.8425c3.775-0.0799 5.1354 3.8004 5.168 5.3377l-5.0502 0.2294z"/><path d="M50.7844,39.881c1.5287-.166,2.6334-1.5397,2.4674-3.0684s-1.5397-2.6334-3.0684-2.4674c-3.7538,.4075-4.6025,4.4309-4.4366,5.9595l5.0376-.4237Z"/><path d="m22.861 34.882c-7.9436 1.0862-13.292 3.1227-13.292 5.4558 0 3.4745 11.86 6.2911 26.491 6.2911s26.491-2.8166 26.491-6.2911c0-1.4884-2.1764-2.8561-5.8147-3.9333"/><path d="M44.3146,36.5258c.5046-.0299,.9767-.0607,1.4129-.0913,.3976-.0279,.7654-.0556,1.101-.0822"/><path d="m49.179 34.329c-0.557-5.6525-3.1401-13.577-13.254-13.522-15.71 0.0846-12.93 19.082-12.93 19.082s5.5237 0.7667 13.065 0.7667c4.0714 0 7.7174-0.2067 9.6869-0.3503"/><path d="M22.995,36.1368s5.5237,.6344,13.065,.6344c.7052,0,1.3933-.0055,2.0611-.0156"/></g></svg>