<svg xmlns="http://www.w3.org/2000/svg" id="a" viewBox="0 0 72 72"><g id="b"><path fill="#A57939" stroke-linecap="round" stroke-linejoin="round" stroke-miterlimit="10" stroke-width="2" d="m56.227 53.879h-37.194c-3.4707 0-6.2227-2.9267-6.0092-6.3909l1.2581-20.417c0.1957-3.1753 2.8279-5.6503 6.0092-5.6503h34.678c3.1813 0 5.8136 2.4751 6.0092 5.6503l1.2581 20.417c0.2134 3.4642-2.5386 6.3909-6.0093 6.3909z"/></g><g id="c" fill="none" stroke="#000" stroke-linecap="round" stroke-linejoin="round" stroke-miterlimit="10"><path stroke-width="2" d="m56.227 53.879h-37.194c-3.4707 0-6.2227-2.9267-6.0092-6.3909l1.2581-20.417c0.1957-3.1753 2.8279-5.6503 6.0092-5.6503h34.678c3.1813 0 5.8136 2.4751 6.0092 5.6503l1.2581 20.417c0.2134 3.4642-2.5386 6.3909-6.0093 6.3909z"/><path stroke-width="1.863" d="m17.365 30.018c0.1698-3.1753 1.4545-5.6503 4.2158-5.6503h32.1c2.7613 0 4.046 2.4751 4.2158 5.6503"/><line x1="13.292" x2="10.752" y1="21.757" y2="19.217" stroke-width="2"/></g></svg>