<svg xmlns="http://www.w3.org/2000/svg" id="a" viewBox="0 0 72 72"><g id="b"><path fill="#8967AA" stroke="#8967AA" stroke-miterlimit="10" stroke-width="2" d="m16.412 17.04-7.3166 8.1192s1.3568 2.9628 7.282 5.0874l3.5563 1.3571"/><path fill="#8967AA" d="m16.412 17.04-7.7891 7.7891s1.8293 3.2929 7.7545 5.4175"/><path fill="#8967AA" stroke="#8967AA" stroke-miterlimit="10" stroke-width="2" d="m56.588 17.04 7.2584 8.1598s-1.2986 2.9221-7.2238 5.0468l-3.3807 1.3017"/><path fill="#8967AA" stroke-linecap="round" stroke-linejoin="round" stroke-miterlimit="10" stroke-width="2.096" d="m56.588 17.04 7.7891 7.7891s-1.8293 3.2929-7.7545 5.4175"/><path fill="#B399C8" d="m29.447 16c0 1.4542 3.2125 2.6331 7.1753 2.6331s7.1752-1.1789 7.1752-2.6331h2.9358l-2.9358 13.62-8.155 5.3237-8.8069-8.9978-1.6335-9.903 4.2449-0.0424z"/><path fill="#8967AA" stroke-linecap="round" stroke-linejoin="round" stroke-miterlimit="10" stroke-width="2.096" d="m36.378 60.958h-20s3.908-7.2615 3.908-21.959-3.908-21.959-3.908-21.959h9.8889c0 6.0818 5.337 6.6033 5.337 6.6033l4.7741 10.205h0.245l4.7741-10.205s5.3369-0.5215 5.3369-6.6033h9.8889s-3.908 7.2615-3.908 21.959 3.908 21.959 3.908 21.959h-20"/></g><g id="c" fill="none" stroke="#000" stroke-linecap="round" stroke-linejoin="round" stroke-miterlimit="10"><path stroke-width="2.096" d="m56.588 17.04 7.7891 7.7891s-1.8293 3.2929-7.7545 5.4175"/><path stroke-width="2.096" d="m16.412 17.04-7.7891 7.7891s1.8293 3.2929 7.7545 5.4175"/><path stroke-width="2.096" d="m36.378 60.958h-20s3.908-7.2615 3.908-21.959-3.908-21.959-3.908-21.959h9.8889c0 6.0818 5.337 6.6033 5.337 6.6033l4.7741 10.205h0.245l4.7741-10.205s5.3369-0.5215 5.3369-6.6033h9.8889s-3.908 7.2615-3.908 21.959 3.908 21.959 3.908 21.959h-20"/><path stroke-width="2" d="M43.7978,17c0,1.3775-3.2125,2.4941-7.1753,2.4941S29.4473,18.3775,29.4473,17"/></g></svg>