<?xml version="1.0" encoding="UTF-8"?>
<svg id="a" version="1.1" viewBox="0 0 72 72" xmlns="http://www.w3.org/2000/svg"><g id="b"><path d="m11 61v-16.045c0-3.2895 3.2918-5.9566 6.5836-5.9566 3.9146 3.2895 7.8292 3.2895 11.833 0h13.167c3.9146 3.2895 7.8292 3.2895 11.833 0 3.2918 0 6.5836 2.6671 6.5836 5.9566v16.045" fill="#92D3F5"/><path d="M26.5004,61v-2.5333C26.5004,56,29.0022,54,31.504,54c2.9751,2.4667,5.9502,2.4667,8.9929,0 c2.5017,0,5.0035,2,5.0035,4.4667V61" fill="#B1CC33"/></g><g id="c" fill="#A57939"><path d="m37.127 38.999h5.4571c3.9146 3.2895 7.8292 3.2895 11.833 0 1.2701 0 2.538 0.4002 3.619 1.0768l0.3439-0.1638 1.7012-2.0374c1.956-2.2226 1.5774-5.9042 0.4216-8.6602-1.6003-3.734-2.0448-3.734-2.3115-8.5349-0.0889-2.7561-2.2226-5.0676-4.9787-5.3343 0 0-1.6892-2.0448-5.3343-2.0448-4.2675 0-8.1792 2.3115-9.1572 5.9566-1.0668 3.734 0.1779 5.2453-0.889 8.0903-0.9335 2.4005-2.9313 3.7391-2.9105 6.6245 0.0068 0.9417 0.7955 3.0455 1.4623 4.0457l0.7434 0.9815z"/><path d="m13.929 21.39c0.5334-7.7347 6.4011-7.8236 9.335-7.3791 0.2667 0.0889 1.0669 0 1.3336 0 5.3343-0.7112 8.0014 5.3343 8.0014 8.0014 0 0.978 0.2255 3.3655-1.1081 4.6991 0 0-3.2483-3.7211-3.4261-5.8549 0 0-10.135 3.8229-10.846 0.5334 0 0-0.7112 2.6671-1.3336 3.3784 0 0-0.3288 2.0448-0.3288 2.6671 2e-4 2e-4 -1.8937-2.667-1.627-6.0454z"/><path d="m36 40.704c3.864 1.3703 5.567 5.8271 5.6943 9.6307 1.4225 0.308 2.8826-0.3898 3.8057-1.461-0.9845-0.8337-1.7269-1.9167-2.1494-3.1356 0.7369-5.7252-2.03-9.5793-7.3506-8.4862-5.3206-1.0931-8.0875 2.761-7.3506 8.4862-0.4225 1.2189-1.1649 2.3019-2.1494 3.1356 0.923 1.0712 2.3833 1.769 3.8057 1.461 0.1273-3.8034 1.8302-8.2605 5.6943-9.6307z"/></g><g id="d" fill="#FCEA2B"><path d="m41.121 26.814c0 5.3343 3.3784 9.335 7.3791 9.335s7.3791-4.0007 7.3791-9.335c0-3.3784-1.3336-5.3343-4.0007-8.0014-2.6671 2.6671-10.669 6.0455-10.669 7.3791l-0.0889 0.6223z"/><path d="m28.045 20.857s-10.135 3.8229-10.846 0.5334c0 0-0.7112 2.6672-1.3336 3.3784 0 0-0.3185 1.9835-0.3273 2.635 0.4585 5.148 3.8411 9.1996 7.9427 9.1996 4.2864 0 7.782-4.426 7.9809-9.9028-0.1045-0.1204-3.2414-3.7454-3.4163-5.8436z"/><path d="m41.504 48.517c-0.0138-0.0543-0.0171-0.1106-0.0324-0.1646-0.5499-3.1755-2.2374-6.5396-5.471-7.6487-3.2336 1.1091-4.9211 4.4731-5.471 7.6487-0.0153 0.054-0.0186 0.1102-0.0324 0.1646 0.8397 2.7543 2.9947 4.3117 5.5034 4.3118 2.5087-1e-4 4.6638-1.5575 5.5034-4.3118z"/></g><g id="e"><path d="m31.5 25.569v0.6437c0 5.7012-3.5862 10.391-8 10.391s-8-4.6897-8-10.391v-0.6437" fill="none" stroke="#000" stroke-miterlimit="10" stroke-width="2"/><path d="m13.929 21.39c0.5334-7.7347 6.4011-7.8236 9.335-7.3791 0.2667 0.0889 1.0669 0 1.3336 0 5.3343-0.7112 8.0014 5.3343 8.0014 8.0014 0 0.978 0.2255 3.3655-1.1081 4.6991 0 0-3.2483-3.7211-3.4261-5.8549 0 0-10.135 3.8229-10.846 0.5334 0 0-0.7112 2.6671-1.3336 3.3784 0 0-0.3288 2.0448-0.3288 2.6671 2e-4 2e-4 -1.8937-2.667-1.627-6.0454z" fill="none" stroke="#000" stroke-linecap="round" stroke-linejoin="round" stroke-width="2"/><path d="m35.841 33.634c-0.0323-2.2288 1.1717-4.1809 1.9908-6.287 1.0669-2.845-0.1778-4.3563 0.889-8.0903 0.978-3.6451 4.8898-5.9566 9.1572-5.9566 3.6451 0 5.3343 2.0448 5.3343 2.0448 2.7561 0.2667 4.8898 2.5782 4.9787 5.3343 0.2667 4.8009 0.7112 4.8009 2.3115 8.5349 1.0621 2.5328 0.7728 5.3659-0.7991 7.5333" fill="none" stroke="#000" stroke-linecap="round" stroke-linejoin="round" stroke-width="2"/><path d="m41.121 26.814c0 5.3343 3.3784 9.335 7.3791 9.335s7.3791-4.0007 7.3791-9.335c0-3.3784-1.3336-5.3343-4.0007-8.0014-2.6671 2.6671-10.669 6.0455-10.669 7.3791l-0.0889 0.6223z" fill="none" stroke="#000" stroke-linejoin="round" stroke-miterlimit="10" stroke-width="2"/><path d="M46.2565,41.1188c2.6973,0.8481,5.4076,0.1413,8.1601-2.1202c3.2918,0,6.5836,2.6671,6.5836,5.9566V60" fill="none" stroke="#000" stroke-linecap="round" stroke-linejoin="round" stroke-miterlimit="10" stroke-width="2"/><path d="m11 60v-15.045c0-3.2895 3.2918-5.9566 6.5836-5.9566 2.6822 2.2539 5.3643 2.9634 8.0751 2.1288" fill="none" stroke="#000" stroke-linecap="round" stroke-linejoin="round" stroke-miterlimit="10" stroke-width="2"/><path d="m47.25 26.5c0 0.7143-0.5357 1.25-1.25 1.25s-1.25-0.5357-1.25-1.25 0.5357-1.25 1.25-1.25 1.25 0.5357 1.25 1.25"/><path d="m52.25 26.5c0 0.7143-0.5357 1.25-1.25 1.25s-1.25-0.5357-1.25-1.25 0.5357-1.25 1.25-1.25 1.25 0.5357 1.25 1.25"/><path d="m46.633 31.533c1.1558 0.6223 2.5782 0.6223 3.734 0" fill="none" stroke="#000" stroke-linecap="round" stroke-linejoin="round" stroke-width="2"/><path d="m22.25 26.5c0 0.7143-0.5357 1.25-1.25 1.25s-1.25-0.5357-1.25-1.25 0.5357-1.25 1.25-1.25 1.25 0.5357 1.25 1.25"/><path d="m27.25 26.5c0 0.7143-0.5357 1.25-1.25 1.25s-1.25-0.5357-1.25-1.25 0.5357-1.25 1.25-1.25 1.25 0.5357 1.25 1.25"/><path d="m21.633 31.533c1.1558 0.6223 2.5782 0.6223 3.734 0" fill="none" stroke="#000" stroke-linecap="round" stroke-linejoin="round" stroke-width="2"/><path d="M26.5003,60.2v-1.7333 C26.5003,56,29.0021,54,31.5039,54c2.9751,2.4667,5.9502,2.4667,8.9929,0c2.5017,0,5.0035,2,5.0035,4.4667V60.2" fill="none" stroke="#000" stroke-linecap="round" stroke-linejoin="round" stroke-width="1.6"/><path d="m38.598 45.702c0.0333 0.4958-0.3417 0.9247-0.8377 0.958-0.4959 0.0333-0.9249-0.3417-0.9582-0.8375s0.3417-0.9247 0.8377-0.958c0.0201-0.0014 0.0402-2e-3 0.0604-2e-3 0.4796-0.0155 0.8813 0.3601 0.8978 0.8395z"/><path d="m34.664 49.186c0.7749 0.6425 1.8974 0.6425 2.6723 0" fill="none" stroke="#000" stroke-linecap="round" stroke-linejoin="round" stroke-width="1.6"/><path d="m41.544 48.407c-0.8139 2.8267-3.0002 4.4219-5.5441 4.4219h6e-4c-2.5439 0-4.7302-1.5952-5.5441-4.4219" fill="none" stroke="#000" stroke-miterlimit="10" stroke-width="1.6"/><path d="m34.3 44.862c0.0201 0 0.0403 7e-4 0.0604 2e-3 0.4959 0.0333 0.871 0.4622 0.8377 0.958s-0.4623 0.8707-0.9582 0.8375c-0.4959-0.0333-0.871-0.4622-0.8377-0.958 0.0165-0.4794 0.4182-0.855 0.8978-0.8395z"/><path d="m36 40.704c3.864 1.3703 5.567 5.8271 5.6943 9.6307 1.4225 0.308 2.8826-0.3898 3.8057-1.461-0.9845-0.8337-1.7269-1.9167-2.1494-3.1356 0.7369-5.7252-2.03-9.5793-7.3506-8.4862-5.3206-1.0931-8.0875 2.761-7.3506 8.4862-0.4225 1.2189-1.1649 2.3019-2.1494 3.1356 0.923 1.0712 2.3833 1.769 3.8057 1.461 0.1273-3.8034 1.8302-8.2605 5.6943-9.6307z" fill="none" stroke="#000" stroke-linecap="round" stroke-linejoin="round" stroke-width="1.6"/></g></svg>
