<?xml version="1.0" encoding="UTF-8"?>
<svg id="a" version="1.1" viewBox="0 0 72 72" xmlns="http://www.w3.org/2000/svg"><g id="b"><path d="m11 61v-16.045c0-3.2895 3.2918-5.9566 6.5836-5.9566 3.9146 3.2895 7.8292 3.2895 11.833 0h13.167c3.9146 3.2895 7.8292 3.2895 11.833 0 3.2918 0 6.5836 2.6671 6.5836 5.9566v16.045" fill="#92D3F5"/><path d="M17,61v-2.5333C17,56,19.5018,54,22.0036,54c2.9751,2.4667,5.9502,2.4667,8.9929,0 C33.4982,54,36,56,36,58.4667V61" fill="#B1CC33"/><path d="M36.0003,61v-2.5333C36.0003,56,38.5021,54,41.0039,54c2.9751,2.4667,5.9502,2.4667,8.9929,0 c2.5018,0,5.0036,2,5.0036,4.4667V61" fill="#B1CC33"/></g><g id="c" fill="#A57939"><path d="m45.5 40.704c3.864 1.3703 5.567 5.8271 5.6943 9.6307 1.4225 0.308 2.8826-0.3898 3.8057-1.461-0.9845-0.8337-1.7269-1.9167-2.1494-3.1356 0.7369-5.7252-2.03-9.5793-7.3506-8.4862-5.3206-1.0931-8.0875 2.761-7.3506 8.4862-0.4225 1.2189-1.1649 2.3019-2.1494 3.1356 0.923 1.0712 2.3833 1.769 3.8057 1.461 0.1273-3.8034 1.8302-8.2605 5.6943-9.6307z"/><path d="m24.136 42.272c0.4694 3.3631 4.487-0.8706 4.487-0.8706 0.5491 1.5737 4.4254 3.8674 4.4254 3.8674 1.0324-0.9557 0.5259-2.8525 0.3721-3.5136-0.5106-2.7127-3.0794-4.5325-5.8079-4.1144-0.3436 0.0276-0.6888 0.0276-1.0324 0-2.2709-0.3369-6.03-0.1483-7.12 4.6433-0.5317 2.3382 0.624 2.9844 0.624 2.9844s3.764-5.0588 4.0518-2.9965z"/><path d="m36 38.999h6.5839c3.9146 3.2895 7.8292 3.2895 11.833 0 1.2701 0 2.538 0.4002 3.619 1.0768l0.3439-0.1638 1.7012-2.0374c1.956-2.2226 1.5774-5.9042 0.4216-8.6602-1.6003-3.734-2.0448-3.734-2.3115-8.5349-0.0889-2.7561-2.2226-5.0676-4.9787-5.3343 0 0-1.6892-2.0448-5.3343-2.0448-4.2675 0-8.1792 2.3115-9.1572 5.9566-1.0668 3.734-0.2999 7.7047-3.6364 9.8337-0.9335 2.4005-0.1839 1.9957-0.1631 4.8811 0.0068 0.9417 1.0789 5.0272 1.0789 5.0272z"/><path d="m36.16 33.971c0.0208-2.8854-1.0579-4.224-1.9914-6.6245-1.0669-2.845 0.1778-4.3563-0.889-8.0903-0.978-3.6451-4.8897-5.9566-9.1572-5.9566-3.6451 0-5.3343 2.0448-5.3343 2.0448-2.7561 0.2667-4.8898 2.5782-4.9787 5.3343-0.2667 4.8009-0.7112 4.8009-2.3115 8.5349-1.1558 2.756-1.5344 6.4376 0.4216 8.6602l1.7012 2.0374 0.3439 0.1638c1.081-0.6766 2.3489-1.0768 3.619-1.0768 4.0035 3.2895 7.9181 3.2895 11.833 0h6.5839s0.153-4.0855 0.1598-5.0272z"/></g><g id="d" fill="#FCEA2B"><path d="m41.121 26.814c0 5.3343 3.3784 9.335 7.3791 9.335s7.3791-4.0007 7.3791-9.335c0-3.3784-1.3336-5.3343-4.0007-8.0014-2.6671 2.6671-10.669 6.0455-10.669 7.3791l-0.0889 0.6223z"/><path d="m28.622 41.401s-4.0176 4.2337-4.487 0.8706c-0.2576-1.8462-3.2933 2.0046-3.9283 2.834-0.0739 0.3356-0.1232 0.5668-0.1232 0.5888-0.1437 3.7311 2.7579 6.8753 6.4885 7.031 3.7306-0.1557 6.6323-3.2999 6.4886-7.031 0-0.0303-0.0594-0.2263-0.15-0.5089-0.6787-0.4149-3.7996-2.383-4.2886-3.7845z"/><path d="m51.003 48.517c-0.0138-0.0543-0.0171-0.1106-0.0324-0.1646-0.5499-3.1755-2.2374-6.5396-5.471-7.6487-3.2336 1.1091-4.9211 4.4731-5.471 7.6487-0.0153 0.054-0.0186 0.1102-0.0324 0.1646 0.8397 2.7543 2.9947 4.3117 5.5034 4.3118 2.5087-1e-4 4.6638-1.5575 5.5034-4.3118z"/><path d="m30.893 26.814-0.0889-0.6223c0-1.3336-8.0015-4.712-10.669-7.3791-2.6671 2.6671-4.0007 4.623-4.0007 8.0014 0 5.3343 3.3784 9.335 7.3791 9.335s7.3791-4.0007 7.3791-9.335z"/></g><g id="e"><path d="m11 60v-15.045c0-3.2895 3.2918-5.9566 6.5836-5.9566 0.541 0.4546 1.082 0.8464 1.6232 1.1754" fill="none" stroke="#000" stroke-linecap="round" stroke-linejoin="round" stroke-width="2"/><path d="M52.6455,40.2424 c0.5886-0.3426,1.1789-0.7573,1.7711-1.2439c3.2918,0,6.5836,2.6671,6.5836,5.9566V60" fill="none" stroke="#000" stroke-linecap="round" stroke-linejoin="round" stroke-width="2"/><path d="m48.098 45.702c0.0333 0.4958-0.3417 0.9247-0.8377 0.958-0.4959 0.0333-0.9249-0.3417-0.9582-0.8375s0.3417-0.9247 0.8377-0.958c0.0201-0.0014 0.0402-2e-3 0.0604-2e-3 0.4796-0.0155 0.8813 0.3601 0.8978 0.8395z"/><path d="m44.164 49.186c0.7749 0.6425 1.8974 0.6425 2.6723 0" fill="none" stroke="#000" stroke-linecap="round" stroke-linejoin="round" stroke-width="1.6"/><path d="m51.044 48.407c-0.8139 2.8267-3.0002 4.4219-5.5441 4.4219h6e-4c-2.5439 0-4.7302-1.5952-5.5441-4.4219" fill="none" stroke="#000" stroke-miterlimit="10" stroke-width="1.6"/><path d="m43.8 44.862c0.0201 0 0.0403 7e-4 0.0604 2e-3 0.4959 0.0333 0.871 0.4622 0.8377 0.958s-0.4623 0.8707-0.9582 0.8375c-0.4959-0.0333-0.871-0.4622-0.8377-0.958 0.0165-0.4794 0.4182-0.855 0.8978-0.8395z"/><path d="M17,60.2v-1.7333 C17,56,19.5018,54,22.0036,54c2.9751,2.4667,5.9502,2.4667,8.9929,0C33.4982,54,36,56,36,58.4667V60.2" fill="none" stroke="#000" stroke-linecap="round" stroke-linejoin="round" stroke-width="1.6"/><path d="m36 60.2v-1.7333c0-2.4667 2.5018-4.4667 5.0036-4.4667 2.9751 2.4667 5.9502 2.4667 8.9929 0 2.5018 0 5.0036 2 5.0036 4.4667v1.7333" fill="none" stroke="#000" stroke-linecap="round" stroke-linejoin="round" stroke-width="1.6"/><path d="m29.298 45.702c0.0333 0.4958-0.3417 0.9247-0.8377 0.958-0.4959 0.0333-0.9249-0.3417-0.9582-0.8375s0.3417-0.9247 0.8377-0.958c0.0201-0.0014 0.0402-2e-3 0.0604-2e-3 0.4796-0.0155 0.8813 0.3601 0.8978 0.8395z"/><path d="m25.164 49.186c0.7749 0.6425 1.8974 0.6425 2.6723 0" fill="none" stroke="#000" stroke-linecap="round" stroke-linejoin="round" stroke-width="1.6"/><path d="m24.6 44.862c0.0201 0 0.0403 7e-4 0.0604 2e-3 0.4959 0.0333 0.871 0.4622 0.8377 0.958s-0.4623 0.8707-0.9582 0.8375c-0.4959-0.0333-0.871-0.4622-0.8377-0.958 0.0165-0.4794 0.4182-0.855 0.8978-0.8395z"/><path d="m45.5 40.704c3.864 1.3703 5.567 5.8271 5.6943 9.6307 1.4225 0.308 2.8826-0.3898 3.8057-1.461-0.9845-0.8337-1.7269-1.9167-2.1494-3.1356 0.7369-5.7252-2.03-9.5793-7.3506-8.4862-5.3206-1.0931-8.0875 2.761-7.3506 8.4862-0.4225 1.2189-1.1649 2.3019-2.1494 3.1356 0.923 1.0712 2.3833 1.769 3.8057 1.461 0.1273-3.8034 1.8302-8.2605 5.6943-9.6307z" fill="none" stroke="#000" stroke-linecap="round" stroke-linejoin="round" stroke-width="1.6"/><path d="m33.049 45.268c0.0078 0.141 0.0117 0.283 0.0118 0.4261 0.1437 3.7311-2.758 6.8753-6.4886 7.031-3.7306-0.1557-6.6322-3.2999-6.4885-7.031 0-0.0952 0.0017-0.1899 0.0052-0.2841" fill="none" stroke="#000" stroke-miterlimit="10" stroke-width="1.6"/><path d="m24.136 42.272c0.4694 3.3631 4.487-0.8706 4.487-0.8706 0.5491 1.5737 4.4254 3.8674 4.4254 3.8674 1.0324-0.9557 0.5259-2.8525 0.3721-3.5136-0.5106-2.7127-3.0794-4.5325-5.8079-4.1144-0.3436 0.0276-0.6888 0.0276-1.0324 0-2.2709-0.3369-6.03-0.1483-7.12 4.6433-0.5317 2.3382 0.624 2.9844 0.624 2.9844s3.764-5.0588 4.0518-2.9965z" fill="none" stroke="#000" stroke-linecap="round" stroke-linejoin="round" stroke-width="1.6"/><path d="m35.084 29.09c3.4065-2.3411 2.5696-6.0996 3.6364-9.8336 0.978-3.6451 4.8898-5.9566 9.1572-5.9566 3.6451 0 5.3343 2.0448 5.3343 2.0448 2.7561 0.2667 4.8898 2.5782 4.9787 5.3343 0.2667 4.8009 0.7112 4.8009 2.3115 8.5349 1.0621 2.5328 0.7728 5.3659-0.7991 7.5333" fill="none" stroke="#000" stroke-linecap="round" stroke-linejoin="round" stroke-width="2"/><path d="m41.121 26.814c0 5.3343 3.3784 9.335 7.3791 9.335s7.3791-4.0007 7.3791-9.335c0-3.3784-1.3336-5.3343-4.0007-8.0014-2.6671 2.6671-10.669 6.0455-10.669 7.3791l-0.0889 0.6223z" fill="none" stroke="#000" stroke-linejoin="round" stroke-miterlimit="10" stroke-width="2"/><path d="m47.25 26.5c0 0.7143-0.5357 1.25-1.25 1.25s-1.25-0.5357-1.25-1.25 0.5357-1.25 1.25-1.25 1.25 0.5357 1.25 1.25"/><path d="m52.25 26.5c0 0.7143-0.5357 1.25-1.25 1.25s-1.25-0.5357-1.25-1.25 0.5357-1.25 1.25-1.25 1.25 0.5357 1.25 1.25"/><path d="m46.633 31.533c1.1558 0.6223 2.5782 0.6223 3.734 0" fill="none" stroke="#000" stroke-linecap="round" stroke-linejoin="round" stroke-width="2"/><path d="m12.297 36.747c-1.5719-2.1674-1.8612-5.0005-0.7991-7.5333 1.6003-3.734 2.0448-3.734 2.3115-8.5349 0.0889-2.7561 2.2226-5.0676 4.9787-5.3343 0 0 1.6892-2.0448 5.3343-2.0448 4.2674 0 8.1792 2.3115 9.1572 5.9566 1.0668 3.734-0.1779 5.2453 0.889 8.0903 0.8191 2.1061 2.0231 4.0582 1.9908 6.287" fill="none" stroke="#000" stroke-linecap="round" stroke-linejoin="round" stroke-width="2"/><path d="m30.879 26.814-0.0889-0.6223c0-1.3336-8.0015-4.712-10.669-7.3791-2.6671 2.6671-4.0007 4.623-4.0007 8.0014 0 5.3343 3.3784 9.335 7.3791 9.335s7.3791-4.0007 7.3791-9.335z" fill="none" stroke="#000" stroke-linejoin="round" stroke-miterlimit="10" stroke-width="2"/><path d="m24.75 26.5c0-0.7143 0.5357-1.25 1.25-1.25s1.25 0.5357 1.25 1.25-0.5357 1.25-1.25 1.25-1.25-0.5357-1.25-1.25"/><path d="m19.75 26.5c0-0.7143 0.5357-1.25 1.25-1.25s1.25 0.5357 1.25 1.25-0.5357 1.25-1.25 1.25-1.25-0.5357-1.25-1.25"/><path d="m21.633 31.533c1.1558 0.6223 2.5782 0.6223 3.734 0" fill="none" stroke="#000" stroke-linecap="round" stroke-linejoin="round" stroke-width="2"/></g></svg>
