<?xml version="1.0" encoding="UTF-8"?>
<svg id="a" version="1.1" viewBox="0 0 72 72" xmlns="http://www.w3.org/2000/svg"><g id="b"><path d="m17.135 58.899s-2-13.5 10-13.5c3.1918 2.1279 5.9264 3.5984 9 3.5922h-0.125c3.0736 0.0062 5.4081-2.1643 8.6-4.2922 15.57 0 10.8 14.2 10.8 14.2" fill="#92D3F5"/><polygon points="49.297 58.861 49.297 45.986 44.806 45.202 44.806 52.447 26.929 52.447 26.931 45.202 22.265 45.986 22.265 58.861" fill="#61B2E4"/><path d="m36.931 9.2258h-1.8034c-11.295 0.0352-10.045 11.314-10.045 11.314 12.891-5.6569 21.893 0 21.893 0s1.2502-11.279-10.045-11.314z" fill="#61B2E4"/><path d="m54.724 38.171c0.5179-2.1527 2.3562-3.642 4.4486-3.8149l-1.1314 4.637c0.0817 0.0154 2.7265 0.6496 2.8079 0.6692l1.1311-4.7124c1.9373 1.0552 3.007 3.313 2.4664 5.5601-0.4768 1.9822-2.0758 3.3943-3.9596 3.7416l-3.4226 14.227c-0.2616 1.0876-1.3553 1.7572-2.443 1.4956-1.0876-0.2617-1.757-1.3555-1.4954-2.4431l3.4226-14.227c-1.5196-1.166-2.3014-3.1509-1.8246-5.1331z" fill="#9B9B9A"/><path d="m33.116 18.256v-2.3118c0-1.6568 1.3431-3 3-3s3 1.3432 3 3v2.3295" fill="#fff"/></g><g id="c"><path d="m25.478 20.47c0.5452-0.1169 10.599-5.3959 21.558 0.3394l-0.0361 0.1447c1.5074 5.4986 0.1748 6.2727 0.1748 6.2727l-5.2599-6.3244s-1.4782 2.8056-5.6542 2.4931c0 0 0.6471-2.293 0.2934-3.5679 0 0-6.8103 4.4728-11.65 6.5335l-0.0073-0.0014-0.1214 0.0037c-0.4592 0.1263-0.7052-4.1554 0.8544-5.824" fill="#6A462F"/></g><g id="d"><path d="m36.261 23.396c2.1125 0.0278 4.1416-0.5155 6.0263-2.0457l5.1256 6.6847c0 7.8277-5.0765 14.173-11.339 14.173s-11.339-6.3456-11.339-14.173c0-3.2033 11.819-8.2069 11.819-8.2069l-0.2934 3.5679z" fill="#FCEA2B"/></g><g id="e"><path d="m41.974 27.035c0 1.1045-0.8965 2-2 2s-2-0.8955-2-2c0-1.1035 0.8965-2 2-2s2 0.8965 2 2"/><path d="m33.974 27.035c0 1.1045-0.8965 2-2 2s-2-0.8955-2-2c0-1.1035 0.8965-2 2-2s2 0.8965 2 2"/><path d="m35.974 37.037c-1.1519 0-2.3037-0.2861-3.4473-0.8579-0.4941-0.2471-0.6943-0.8477-0.4473-1.3418 0.2466-0.4937 0.8462-0.6943 1.3418-0.4473 1.7178 0.8594 3.3877 0.8594 5.1055 0 0.4946-0.247 1.0947-0.0464 1.3418 0.4473 0.2471 0.4941 0.0469 1.0947-0.4473 1.3418-1.1435 0.5718-2.2954 0.8579-3.4472 0.8579z"/><path d="m24.754 26.344c-0.0777 0.6699-0.1179 1.355-0.1179 2.0519 0 7.8277 5.0764 14.173 11.339 14.173 6.2621 0 11.339-6.3455 11.339-14.173 0-0.3957-0.013-0.7876-0.0385-1.1751" fill="none" stroke="#000" stroke-linecap="round" stroke-miterlimit="10" stroke-width="2"/><path d="m51.746 47.189c-1.5129-1.3672-3.7235-2.3011-6.9399-2.3011-3.1918 2.1279-5.9264 3.5984-9 3.5921h0.125c-3.0736 0.0063-5.8081-1.4642-9-3.5921-12 0-10 13-10 13" fill="none" stroke="#000" stroke-linecap="round" stroke-linejoin="round" stroke-miterlimit="10" stroke-width="2"/><path d="m54.724 38.171c0.5179-2.1527 2.3562-3.642 4.4486-3.8149l-1.1314 4.637c0.0817 0.0154 2.7265 0.6496 2.8079 0.6692l1.1311-4.7124c1.9373 1.0552 3.007 3.313 2.4664 5.5601-0.4768 1.9822-2.0758 3.3943-3.9596 3.7416l-3.4226 14.227c-0.2616 1.0876-1.3553 1.7572-2.443 1.4956-1.0876-0.2617-1.757-1.3555-1.4954-2.4431l3.4226-14.227c-1.5196-1.166-2.3014-3.1509-1.8246-5.1331z" fill="none" stroke="#000" stroke-linecap="round" stroke-linejoin="round" stroke-miterlimit="10" stroke-width="2"/><path d="m33.116 18.256v-2.3118c0-1.6568 1.3431-3 3-3s3 1.3432 3 3v2.3295" fill="none" stroke="#000" stroke-linecap="round" stroke-miterlimit="10" stroke-width="2"/><polyline points="44.806 44.888 44.806 52.133 26.929 52.133 26.931 44.888" fill="none" stroke="#000" stroke-linecap="round" stroke-linejoin="round" stroke-miterlimit="10" stroke-width="2"/><line x1="49.297" x2="49.297" y1="45.672" y2="57.867" fill="none" stroke="#000" stroke-linecap="round" stroke-linejoin="round" stroke-miterlimit="10" stroke-width="2"/><line x1="22.265" x2="22.265" y1="45.757" y2="57.867" fill="none" stroke="#000" stroke-linecap="round" stroke-linejoin="round" stroke-miterlimit="10" stroke-width="2"/><line x1="32.604" x2="26.929" y1="56.778" y2="56.778" fill="none" stroke="#000" stroke-linecap="round" stroke-linejoin="round" stroke-miterlimit="10" stroke-width="2"/><path d="m46.976 20.54s1.2502-11.279-10.045-11.314h-1.8034c-11.295 0.0352-10.045 11.314-10.045 11.314" fill="none" stroke="#000" stroke-linecap="round" stroke-linejoin="round" stroke-miterlimit="10" stroke-width="2"/><path d="m49.809 22.408c-6.1883-4.9827-16.972-5.4838-24.031-2.1379-1.2509 0.593-2.3848 1.3068-3.3554 2.1379" fill="none" stroke="#000" stroke-linecap="round" stroke-linejoin="round" stroke-miterlimit="10" stroke-width="2"/><path d="m25.478 20.47c0.5452-0.1169 10.599-5.3959 21.558 0.3394l-0.0361 0.1447c1.5074 5.4986 0.1748 6.2727 0.1748 6.2727l-5.2599-6.3244s-1.4782 2.8056-5.6542 2.4931c0 0 0.6471-2.293 0.2934-3.5679 0 0-6.8103 4.4728-11.65 6.5335l-0.0073-0.0014-0.1214 0.0037c-0.4592 0.1263-0.7052-4.1554 0.8544-5.824" fill="none" stroke="#000" stroke-linecap="round" stroke-linejoin="round" stroke-miterlimit="10" stroke-width="2"/></g></svg>
