<svg xmlns="http://www.w3.org/2000/svg" id="a" viewBox="0 0 72 72"><g id="b"><path fill="#d0cfce" d="m32.031 59.62a12.276 12.276 0 0 0 12.433-12.116 12.276 12.276 0 1 0-12.433 12.116"/><path fill="#9b9b9a" d="m32.261 41.822a5.524 5.524 0 1 0 5.4523 5.5949 5.5239 5.5239 0 0 0-5.4523-5.5949z"/></g><g id="c" fill="#fcea2b"><path d="M31.5246,22.6606c-1.6558-.1986-2.7483.05-3.2461.9936L25.91,28.0483a6.7337,6.7337,0,0,0-1.0211,4.1635v6.6548c0,1.5175.7256,2.1706,1.6838,2.1706.9948,0,1.6125-.9345,1.6125-2.2679l0-6.95a.5711.5711,0,0,1,.059-.2528l1.0521-2.1276a.6413.6413,0,0,1,.4867-.2939c.1663,0,.2758.156.2758.35v1.87a.57.57,0,0,0,.57.57H31.96"/><path d="M30.7994,31.483c0-1.9677-.4633-6.9142-.4633-8.4783,0-.5448.5931-.0953,3.7775-.0953,1.7309,0,2.3181.4378,3.38,1.9324a5.4388,5.4388,0,0,1,1.4232,2.9516,2.73,2.73,0,0,1-1.4758,2.2137l-.2775,2.3605Z"/><line x1="31.389" x2="31.389" y1="30.698" y2="32.912"/><circle cx="34.319" cy="16.028" r="3.543"/><path d="m46.237 36.77 2.2864 17.174c0.2431 1.625 1.0247 2.3289 2.1657 2.3289"/><path d="m50.689 56.273c1.2029 0 2.0025-1.1774 2.0025-2.9466 0 0-0.5521-10.182-0.7413-12.623s-2.3342-3.9335-5.7133-3.9335"/></g><g id="d"><g fill="none" stroke="#000" stroke-linecap="round" stroke-linejoin="round" stroke-width="2"><path d="m50.689 56.273c1.2029 0 2.0025-1.1774 2.0025-2.9466 0 0-0.5521-10.182-0.7413-12.623s-2.3342-3.9335-5.7133-3.9335"/><path d="m48.524 53.944c0.2431 1.625 1.0247 2.3289 2.1657 2.3289"/><path d="m26.666 47.274a5.5241 5.5241 0 1 0 5.595-5.4522"/><path d="M35.7363,23.1906l-4.2117-.53c-1.6558-.1986-2.778.05-3.2461.9936l-3.2843,7.4285a1.24,1.24,0,0,0-.1059.5016v7.2824c0,1.5175.7256,2.1706,1.6838,2.1706"/><path d="M32.0927,22.7321c-1.6558-.1986-3.3032.15-3.7713,1.0938l-3.2843,7.4285a1.2415,1.2415,0,0,0-.1059.5016v7.2824c0,1.5175.7256,2.1706,1.6838,2.1706"/><path d="m30.362 31.935h1.5981a25.341 25.341 0 0 1 6.5707 1.4732"/><circle cx="34.319" cy="16.028" r="3.543"/><path d="m22.604 39.745a12.242 12.242 0 1 0 7.4671-4.3666"/><path d="M33.7712,22.9433c1.9651.2473,2.4765,0,3.6456,1.553a5.2977,5.2977,0,0,1,.8515,3.1919,4.2853,4.2853,0,0,1-.8515,2.51l.0172,2.2355"/><path d="M30.1682,12.994s-.5786-.27-.9252.0177c-.4081.3371-.6856,1.5991-1.168,2.145a3.2608,3.2608,0,0,1-1.8128,1.0716"/></g></g></svg>