<svg xmlns="http://www.w3.org/2000/svg" id="a" version="1.1" viewBox="0 0 72 72"><g id="b"><path fill="#9B9B9A" d="m16.847 58.857s-1.5465-13.84 10.454-13.84c3.1919 2.1279 5.9264 3.5984 9 3.5922h-0.125c3.0736 0.0062 5.1081-2.5643 8.3-4.6922 15.57-1e-4 11.1 14.94 11.1 14.94"/><polyline fill="#D0CFCE" points="36.615 54.17 39.03 57.439 45.362 44.14 52.194 53.63 40.364 58.348"/><path fill="#fff" d="m38.509 57.73c-0.5976 1.035-4.8914 1.035-5.4889 0l-1.8421-2.4345-3.3864-8.7387 7.9729 2.7 7.573-2.7-3.2865 8.7387-1.542 2.4345z"/><path fill="#3F3F3F" d="m33.457 48.498s-1.2064 6.0214 2.3072 6.0214 2.3073-6.0214 2.3073-6.0214"/><path fill="#3F3F3F" d="m35.018 54.843c0.3249-0.5627 1.137-0.5627 1.4619 0l2.5499 4.0246h-6.6183l2.6065-4.0246z"/><polyline fill="#D0CFCE" points="34.914 54.519 32.499 57.874 26.827 44.889 22.87 53.333 32.328 57.874"/><path fill="#D0CFCE" d="m66.116 58.449h-15.485v-19.802h15.271c0.1181 0 0.2138 0.0957 0.2138 0.2138v19.589z"/><path fill="#fff" d="M62.6646,60.925H48.057V41.9732H58.81c2.1288,0,3.8546,1.7257,3.8546,3.8546V60.925z"/></g><g id="c"><path fill="#3F3F3F" d="m17.202 44.73c0.3924 0.644 0.8751 1.2364 1.4433 1.7322 0.4796 0.4185 0.9583 0.8137 1.4365 1.198 1.5671-1.5598 3.8624-2.6433 7.2188-2.6433 3.1714 2.1143 5.892 3.5762 8.9417 3.5889 3.0358-0.0315 5.0649-2.5767 8.2333-4.6888 1.2472 0 2.365 0.0963 3.3664 0.2733l0.2155-1.6545 2.6372 0.0162v-3.7255l5.0351 0.0022c-0.2041-2.9537-1.4052-6.5718-3.7585-11.158-0.1305-6.5579-0.9548-15.685-8.5214-15.424-1.8536-4.3087-24.843-9.6662-23.929 15.764-0.0775 4.3858-5.13 10.301-2.319 16.72z"/></g><g id="d"><path fill="#FCEA2B" d="m40.998 15.858c-2.0473 3.6729-11.675 8.6145-16.374 10.756l0.0874 0.0102c-0.078 0.6711-0.1184 1.3574-0.1184 2.0556 0 7.8276 5.0765 14.173 11.339 14.173 6.2622 0 11.339-6.3456 11.339-14.173 0-1.1582-0.1111-2.2839-0.3208-3.3614-0.7817-4.0177-2.9333-7.3653-5.8015-9.2263"/></g><g id="e"><path fill="none" stroke="#000" stroke-linecap="round" stroke-linejoin="round" stroke-miterlimit="10" stroke-width="2" d="m18.163 44.36-0.5604-0.9195c-2.6609-6.0766 2.4972-11.676 2.5705-15.827-0.8655-24.071 20.896-19 22.651-14.922 7.1623-0.2473 7.9426 8.3925 8.0662 14.6 1.5104 2.9436 2.5194 5.4658 3.0728 7.6563"/><path fill="none" stroke="#000" stroke-linecap="round" stroke-linejoin="round" stroke-miterlimit="10" stroke-width="2" d="m40.998 15.858c-2.0473 3.6729-11.675 8.6145-16.374 10.756l0.0874 0.0102c-0.078 0.6711-0.1184 1.3574-0.1184 2.0556 0 7.8276 5.0765 14.173 11.339 14.173 6.2622 0 11.339-6.3456 11.339-14.173 0-1.1582-0.1111-2.2839-0.3208-3.3614-0.7817-4.0177-2.9333-7.3653-5.8015-9.2263"/><path d="m41.932 26.996c0 1.1045-0.8965 2-2 2s-2-0.8955-2-2c0-1.1035 0.8965-2 2-2s2 0.8965 2 2"/><path d="m33.932 26.996c0 1.1045-0.8965 2-2 2s-2-0.8955-2-2c0-1.1035 0.8965-2 2-2s2 0.8965 2 2"/><path d="m35.932 36.999c-1.1518 0-2.3037-0.2861-3.4472-0.8579-0.4942-0.247-0.6944-0.8476-0.4473-1.3418 0.2466-0.4936 0.8462-0.6943 1.3418-0.4472 1.7178 0.8593 3.3877 0.8593 5.1055 0 0.4946-0.2471 1.0947-0.0464 1.3418 0.4472 0.247 0.4942 0.0468 1.0948-0.4473 1.3418-1.1436 0.5718-2.2954 0.8579-3.4473 0.8579z"/><path fill="none" stroke="#000" stroke-linecap="round" stroke-linejoin="round" stroke-miterlimit="10" stroke-width="2" d="m33.457 48.498s-1.2064 6.0214 2.3072 6.0214 2.3073-6.0214 2.3073-6.0214"/><line x1="44.702" x2="38.962" y1="55.592" y2="57.88" fill="none" stroke="#000" stroke-linecap="round" stroke-linejoin="round" stroke-miterlimit="10" stroke-width="2"/><path fill="none" stroke="#000" stroke-linecap="round" stroke-linejoin="round" stroke-miterlimit="10" stroke-width="2" d="m16.827 57.849s-2-13 10-13c3.1919 2.1279 5.9264 3.5984 9 3.5921h-0.125c3.0736 0.0063 5.8082-1.4642 9-3.5921"/><polyline fill="none" stroke="#000" stroke-linecap="round" stroke-linejoin="round" stroke-miterlimit="10" stroke-width="2" points="34.914 54.519 32.499 57.874 26.827 44.889 22.87 53.333 32.328 57.874"/><polyline fill="none" stroke="#000" stroke-linecap="round" stroke-linejoin="round" stroke-miterlimit="10" stroke-width="2" points="44.702 44.849 39.03 57.874 36.615 54.519"/><polygon fill="none" stroke="#000" stroke-linecap="round" stroke-linejoin="round" stroke-miterlimit="10" stroke-width="2" points="62.665 60.925 48.057 60.925 48.057 42.289 59.882 42.289 59.882 44.402 62.665 44.402"/><polyline fill="none" stroke="#000" stroke-linecap="round" stroke-linejoin="round" stroke-miterlimit="10" stroke-width="2" points="51.261 38.826 66.086 38.826 66.086 57.462"/><line x1="59.882" x2="62.665" y1="42.289" y2="44.402" fill="none" stroke="#000" stroke-linecap="round" stroke-linejoin="round" stroke-miterlimit="10" stroke-width="2"/><line x1="51.002" x2="59.434" y1="48.498" y2="48.498" fill="none" stroke="#000" stroke-linecap="round" stroke-linejoin="round" stroke-miterlimit="10" stroke-width="2"/><line x1="51.002" x2="59.434" y1="52.594" y2="52.594" fill="none" stroke="#000" stroke-linecap="round" stroke-linejoin="round" stroke-miterlimit="10" stroke-width="2"/><line x1="51.002" x2="59.434" y1="56.178" y2="56.178" fill="none" stroke="#000" stroke-linecap="round" stroke-linejoin="round" stroke-miterlimit="10" stroke-width="2"/></g></svg>