<?xml version="1.0" encoding="UTF-8"?>
<svg id="a" version="1.1" viewBox="0 0 72 72" xmlns="http://www.w3.org/2000/svg"><g id="b"><path d="m45.304 45.616c2.4514 0 3.7516 0.5425 5.1709 1.4059l0.0148-0.0244v11.901h-28.983v-11.901l-0.0826-0.1495c1.3796-0.7617 2.5886-1.232 4.871-1.232l0.0885-0.0119s0.2787 11.844 8.9179 12.959h0.8504c8.6392-1.1147 8.9179-12.959 8.9179-12.959" fill="#3F3F3F"/><rect transform="matrix(.7071 -.7071 .7071 .7071 -12.816 55.301)" x="58.347" y="37.906" width="4" height="10.43" fill="#9B9B9A"/><ellipse cx="53.622" cy="36.586" rx="4" ry="4" fill="#D0CFCE"/></g><g id="c"><path d="m58.026 42.794c-1.3223-0.3647-1.8445-1.8761-1.7502-3.2374-1.5707 1.4034-3.9748 1.3658-5.4827-0.1422-1.5621-1.5621-1.5621-4.0947 0-5.6568 0.8289-0.8289 1.9303-1.2045 3.0157-1.1536-0.4639-0.8731-0.395-2.3412-0.778-3.8458 0 0-0.4278-0.3276-0.506-0.7819-0.0687-0.3989-0.1467-0.8118-0.2523-1.2263-0.5676-2.2302-1.2861-7.7974-8.3534-12.692-2.4218-1.6774-4.865 0.5316-4.865 0.5316l-0.3099-0.2285s-3.767-6.1694-10.465-0.815-7.7859 10.462-8.3535 12.692-0.3391 4.4139-2.1568 4.6323c-1.8178 0.2183-2.7274 3.125-1.8178 4.5105 0.9096 1.3854 0.6826 4.3608-1.2472 4.893-1.9299 0.5323-2.8215 4.2902-1.8727 5.8823 0.5701 1.1254 2.2085 2.8893 4.9567 4.5168 1.2208-3.0382 3.7885-5.7533 9.0735-5.7533 3.17 2.1047 5.8896 3.5601 8.9375 3.5739 3.048-0.0138 5.7676-1.4692 8.9375-3.5739 5.4276 0 7.9862 2.8235 9.1662 5.9154 1.8039-0.6282 3.663-1.3354 5.5985-2.1588 2.8642-1.2183 0.4543-5.35-1.4755-5.8823z" fill="#6a462f"/></g><g id="d" fill="#c19a65"><path d="m24.814 26.039c-0.9299 0.096 1.3287 2.7283 1.3287 3.7068 0 1.1735-1.4449 1.4633-1.2299 2.5538 1.2196 6.1835 5.6861 10.769 11.01 10.769 6.2621 0 11.338-6.3455 11.338-14.173 0-0.9784-0.0793-1.9337-0.2303-2.8564 0 0-6.737-3.4848-8.3708-6.8039v-0.5669s-0.8335 2.2193-2.3769 2.7968l-0.7643-4.8041s-5.7542 8.867-10.704 9.3781z"/><path d="m44.738 44.92c-3.1699 2.1047-5.8895 3.5601-8.9375 3.5739-3.0479-0.0138-5.7675-1.4692-8.9375-3.5739-12 0-10 13.996-10 13.996l4.6447-0.0244v-11.893l-0.0826-0.1495c1.3796-0.7617 2.5886-1.232 4.871-1.232l0.0885-0.0119s0.2787 11.844 8.9179 12.959h0.8504c8.6392-1.1147 8.9179-12.959 8.9179-12.959l0.2342 0.0119c2.4514 0 3.7516 0.5425 5.1709 1.4059l0.0148-0.0244v11.741l4.2473-0.0223s2-13.797-10-13.797z"/></g><g id="e"><path d="m41.923 27.067c0 1.1045-0.8965 2-2 2s-2-0.8955-2-2c0-1.1035 0.8965-2 2-2s2 0.8965 2 2"/><path d="m33.923 27.067c0 1.1045-0.8965 2-2 2s-2-0.8955-2-2c0-1.1035 0.8965-2 2-2s2 0.8965 2 2"/><path d="m35.922 37.069c-1.1519 0-2.3037-0.2861-3.4473-0.8579-0.4941-0.2471-0.6943-0.8477-0.4473-1.3418 0.2466-0.4937 0.8462-0.6943 1.3418-0.4473 1.7178 0.8594 3.3877 0.8594 5.1055 0 0.4946-0.247 1.0947-0.0464 1.3418 0.4473 0.2471 0.4941 0.0469 1.0947-0.4473 1.3418-1.1435 0.5718-2.2954 0.8579-3.4472 0.8579z"/><path d="m25.008 32.281c1.3428 5.9552 5.7209 10.32 10.915 10.32 4.9713 0 9.1954-3.9992 10.726-9.5644" fill="none" stroke="#000" stroke-linecap="round" stroke-linejoin="round" stroke-miterlimit="10" stroke-width="2"/><path d="m54.738 57.92s2-13-10-13c-3.1918 2.1279-5.9263 3.5984-9 3.5921h0.125c-3.0736 0.0063-5.8081-1.4642-9-3.5921-12 0-10 13-10 13" fill="none" stroke="#000" stroke-linecap="round" stroke-linejoin="round" stroke-miterlimit="10" stroke-width="2"/><rect transform="matrix(.7071 -.7071 .7071 .7071 -12.816 55.301)" x="58.347" y="37.906" width="4" height="10.43" fill="none" stroke="#000" stroke-linecap="round" stroke-linejoin="round" stroke-miterlimit="10" stroke-width="2"/><ellipse cx="53.622" cy="36.586" rx="4" ry="4" fill="none" stroke="#000" stroke-linecap="round" stroke-linejoin="round" stroke-miterlimit="10" stroke-width="2"/><line x1="64.252" x2="67.098" y1="46.992" y2="49.838" fill="none" stroke="#000" stroke-linecap="round" stroke-linejoin="round" stroke-miterlimit="10" stroke-width="2"/><line x1="58.853" x2="58.853" y1="44.789" y2="58.789" fill="none" stroke="#000" stroke-linecap="round" stroke-linejoin="round" stroke-miterlimit="10" stroke-width="2"/><path d="m38.66 14.672s-3.6231-6.1695-10.065-0.8151-7.4886 10.462-8.0345 12.692c-0.5459 2.2303-0.3262 4.414-2.0745 4.6323-1.7484 0.2184-2.6232 3.1251-1.7484 4.5105 0.8749 1.3855 0.6565 4.3608-1.1996 4.8931-1.8561 0.5322-3.4939 3.6986-1.4194 5.8823" fill="none" stroke="#000" stroke-linecap="round" stroke-linejoin="round" stroke-miterlimit="10" stroke-width="2"/><path d="m38.958 14.389s2.3499-2.209 4.6792-0.5316c6.7975 4.8951 7.4886 10.462 8.0345 12.692 0.1015 0.4145 0.1765 0.8274 0.2426 1.2263 0.0753 0.4543 0.1391 0.8905 0.2172 1.2905" fill="none" stroke="#000" stroke-linecap="round" stroke-linejoin="round" stroke-miterlimit="10" stroke-width="2"/><path d="m47.201 33.475c-1.9653-1.5286-0.0438-6.9252-0.0438-6.9252-2.2275-0.4832-8.2142-8.1654-8.2142-8.1654s-0.6951 2.2068-2.6604 3.0803l-0.7643-4.8041s-6.2493 8.9692-11.04 9.8892c0 0 3.6159 4.3048 0.122 6.0517-3.4939 1.747-2.5532 4.9133-1.0246 5.2409" fill="none" stroke="#000" stroke-linecap="round" stroke-linejoin="round" stroke-miterlimit="10" stroke-width="2"/><path d="m45.07 44.908s-0.2787 11.844-8.9179 12.959h-0.8504c-8.6392-1.1148-8.9179-12.959-8.9179-12.959" fill="none" stroke="#000" stroke-linecap="round" stroke-linejoin="round" stroke-miterlimit="10" stroke-width="2"/><line x1="21.507" x2="21.507" y1="46.301" y2="57.918" fill="none" stroke="#000" stroke-linecap="round" stroke-linejoin="round" stroke-miterlimit="10" stroke-width="2"/><line x1="50.49" x2="50.49" y1="46.301" y2="57.975" fill="none" stroke="#000" stroke-linecap="round" stroke-linejoin="round" stroke-miterlimit="10" stroke-width="2"/></g></svg>
