<?xml version="1.0" encoding="UTF-8"?>
<svg id="a" version="1.1" viewBox="0 0 72 72" xmlns="http://www.w3.org/2000/svg"><g id="b"><path d="m54.85 58.916s2-14-10-14c-3.1919 2.1279-5.9264 3.5984-9 3.5922h0.125c-3.0736 0.0062-5.8082-1.4643-9-3.5922-12 0-10 14-10 14" fill="#3F3F3F"/><polygon points="45.119 12.271 35.809 13.181 26.739 12.291 21.299 11.761 35.179 9.2413 50.309 11.761" fill="#9B9B9A"/><path d="m45.119 12.271v7.97s-6.72-0.27-9.19 2.63c-2.47-2.9-9.19-2.63-9.19-2.63v-7.95l9.07 0.89 9.31-0.91z" fill="#3F3F3F"/><path d="m35.851 51.493h-0.0147-0.0586-0.0293-0.0039-0.0019v-1e-3c-3.1973-0.0313-5.9854-1.4639-9.4277-3.7598-0.46-0.3066-0.584-0.9277-0.2774-1.3867 0.3057-0.46 0.9248-0.584 1.3867-0.2773 3.1533 2.1025 5.6602 3.4101 8.3828 3.4248 2.7217-0.0137 5.2286-1.3223 8.3829-3.4248 0.4609-0.3067 1.081-0.1827 1.3867 0.2773 0.3066 0.46 0.1826 1.0801-0.2774 1.3867-3.4433 2.2959-6.2314 3.7285-9.4277 3.7598v1e-3h-2e-3 -0.0039-0.0146z" fill="#fff"/></g><g id="c"><path d="m21.187 46.474c1.4263-0.9518 3.3033-1.5577 5.7879-1.5577 3.1699 2.1133 5.8895 3.5746 8.9375 3.5886 3.048-0.0139 5.7675-1.4753 8.9375-3.5886 2.4695 0 4.3384 0.5988 5.7615 1.5405 1.121-1.4768 1.9742-3.0567 2.3716-4.7086 2.0498-8.5205-5.2788-18.391-7.4774-21.511-4.1739-0.3651-7.3131 0.5797-9.5764 2.6336-2.4446-2.1166-5.6751-2.8033-9.3764-2.6336-2.1985 3.1195-9.7601 13.023-7.5775 21.511 0.4411 1.7153 1.2238 3.289 2.2117 4.7258z"/></g><g id="d"><path d="m47.145 28.892c-6.6211-7.1154-8.1216-9.2836-11.216-6.021-3.3996-3.3996-3.5685-0.36-11.402 4.6002-0.0387 0.4764-0.0585 0.9315-0.0585 1.4208 0 7.8276 5.0764 14.173 11.339 14.173 6.2621 0 11.338-6.3456 11.338-14.173z" fill="#6a462f"/></g><g id="e"><path d="m41.929 27.064c0 1.1045-0.8965 2-2 2s-2-0.8955-2-2c0-1.1035 0.8965-2 2-2s2 0.8965 2 2"/><path d="m33.929 27.064c0 1.1045-0.8965 2-2 2s-2-0.8955-2-2c0-1.1035 0.8965-2 2-2s2 0.8965 2 2"/><path d="m35.929 37.066c-1.1519 0-2.3037-0.2862-3.4473-0.858-0.4941-0.247-0.6943-0.8476-0.4472-1.3417 0.2465-0.4937 0.8461-0.6944 1.3417-0.4473 1.7178 0.8594 3.3877 0.8594 5.1055 0 0.4946-0.2471 1.0947-0.0464 1.3418 0.4473 0.2471 0.4941 0.0469 1.0947-0.4473 1.3417-1.1435 0.5718-2.2954 0.858-3.4472 0.858z"/><path d="m54.746 58.915c-0.0508 0-0.1016-0.0029-0.1523-0.0107-0.5459-0.084-0.9209-0.5938-0.8379-1.1387 0.0087-0.0576 0.8271-5.7412-2.1289-9.1777-1.4756-1.7149-3.6895-2.6123-6.586-2.669-3.3096 2.1856-6.0283 3.5459-9.126 3.5889-0.0214 2e-3 -0.0429 1e-3 -0.0644 1e-3h-0.0215-0.0449-0.042c-0.0147 0-0.0293 0-0.044-1e-3 -3.0996-0.043-5.8164-1.4033-9.1259-3.5889-2.8965 0.0567-5.1104 0.9541-6.586 2.669-2.956 3.4365-2.1377 9.1201-2.1289 9.1777 0.083 0.5449-0.292 1.0547-0.8379 1.1387-0.5332 0.0801-1.0547-0.29-1.1386-0.8359-0.0411-0.2696-0.9727-6.6329 2.581-10.775 1.9229-2.2412 4.751-3.377 8.4072-3.377 0.1973 0 0.3907 0.0586 0.5547 0.168 3.1533 2.1025 5.6602 3.4101 8.3828 3.4248 2.7217-0.0137 5.2286-1.3223 8.3829-3.4248 0.164-0.1094 0.3574-0.168 0.5546-0.168 3.6563 0 6.4844 1.1358 8.4073 3.377 3.5537 4.1425 2.622 10.506 2.581 10.775-0.0761 0.4941-0.5019 0.8466-0.9863 0.8466z"/><path d="m21.3 21.113c-0.5527 0-1-0.4478-1-1v-8.1216c0-0.5522 0.4473-1 1-1s1 0.4478 1 1v8.1216c0 0.5522-0.4473 1-1 1z"/><path d="m19.272 23.693c-0.2159 0-0.4336-0.0699-0.6172-0.2134-0.4336-0.3413-0.5098-0.9702-0.168-1.4043l2.0264-2.5796c0.3408-0.4331 0.9677-0.5093 1.4043-0.1689 0.4336 0.3413 0.5097 0.9702 0.1679 1.4043l-2.0263 2.5795c-0.1973 0.251-0.4903 0.3824-0.7871 0.3824z"/><path d="m21.3 25.213c-0.5527 0-1-0.4478-1-1v-4.1001c0-0.5523 0.4473-1 1-1s1 0.4477 1 1v4.1001c0 0.5522-0.4473 1-1 1z"/><path d="m20.321 44.066c-0.3731 0-0.7305-0.209-0.9024-0.5674-0.2255-0.4697-0.4238-0.9482-0.5888-1.4219-2.9785-8.5644 4.2597-18.812 6.6387-22.18l0.166-0.2354c0.3183-0.4507 0.9423-0.56 1.3935-0.2412 0.4512 0.3179 0.5596 0.9419 0.2412 1.3936l-0.167 0.2373c-2.2324 3.1596-9.0244 12.776-6.3837 20.369 0.1406 0.4024 0.3095 0.8106 0.5029 1.2139 0.2392 0.498 0.0293 1.0957-0.4688 1.334-0.1396 0.0674-0.2871 0.0986-0.4316 0.0986z"/><path d="m51.536 44.066c-0.1445 0-0.292-0.0312-0.4316-0.0986-0.4981-0.2383-0.708-0.836-0.4688-1.334 0.1934-0.4033 0.3623-0.8115 0.503-1.2149 2.6406-7.5918-4.1514-17.208-6.3838-20.368l-0.167-0.2373c-0.3184-0.4517-0.21-1.0757 0.2412-1.3936 0.4502-0.3188 1.0762-0.2095 1.3936 0.2412l0.166 0.2354c2.3789 3.3676 9.6172 13.616 6.6386 22.179-0.165 0.4746-0.3632 0.9531-0.5888 1.4228-0.1719 0.3584-0.5293 0.5674-0.9024 0.5674z"/><path d="m24.62 28.628c-0.3564 0-0.7012-0.1875-0.8818-0.5205-0.2637-0.4853-0.0908-1.0884 0.3945-1.3515l0.0147-0.0083c4.1728-2.2642 4.1728-2.2642 8.1572-6.3213l1.458 1.3701c-4.1865 4.2622-4.2666 4.3247-8.6611 6.709-0.1534 0.083-0.3184 0.1225-0.4815 0.1225z"/><path d="m47.247 28.635c-0.1612 0-0.3242-0.0386-0.4756-0.1211-0.1817-0.0987-4.499-2.4634-8.6768-6.7173-0.3867-0.3941-0.3808-1.0274 0.0137-1.4141 0.3926-0.3872 1.0254-0.3818 1.4141 0.0127 3.9687 4.042 8.1601 6.3379 8.2021 6.3609 0.4854 0.2631 0.666 0.8701 0.4024 1.3559-0.1807 0.3335-0.5245 0.523-0.8799 0.523z"/><path d="m35.929 43.598c-7.1494 0-12.339-6.6202-12.339-15.74 0-0.5522 0.4473-1 1-1 0.5528 0 1 0.4478 1 1 0 7.9619 4.3477 13.74 10.339 13.74 5.7012 0 10.339-5.9092 10.339-13.173 0-0.2495-0.0059-0.498-0.0166-0.7446-0.0244-0.5518 0.4023-1.0191 0.9541-1.044 0.539-0.0117 1.0185 0.4019 1.0439 0.9541 0.0127 0.2769 0.0186 0.5547 0.0186 0.8345 0 8.3667-5.5352 15.173-12.339 15.173z"/><polyline points="21.299 11.761 26.739 12.291 35.809 13.181 45.119 12.271 50.309 11.761" fill="none" stroke="#000" stroke-linecap="round" stroke-linejoin="round" stroke-miterlimit="10" stroke-width="2"/><path d="m26.739 11.761v8.48s6.72-0.27 9.19 2.63" fill="none" stroke="#000" stroke-linecap="round" stroke-linejoin="round" stroke-miterlimit="10" stroke-width="2"/><path d="m45.119 11.761v8.48s-6.72-0.27-9.19 2.63" fill="none" stroke="#000" stroke-linecap="round" stroke-linejoin="round" stroke-miterlimit="10" stroke-width="2"/><polyline points="50.309 11.761 35.179 9.2413 21.299 11.761" fill="none" stroke="#000" stroke-linecap="round" stroke-linejoin="round" stroke-miterlimit="10" stroke-width="2"/></g></svg>
