<svg xmlns="http://www.w3.org/2000/svg" id="a" viewBox="0 0 72 72"><g id="b"><polyline fill="#6A462F" points="10.294 30.533 10.294 58.958 19.672 58.958 22.426 36.741"/><polyline fill="#6A462F" stroke-linecap="round" stroke-linejoin="round" stroke-miterlimit="10" stroke-width="2" points="11.21 34.533 11.21 58.958 19.049 58.958 21.049 40.533"/><path fill="#6A462F" d="m59.064 52.31c2.7748 0.0391 5.9062-0.1885 8.4416-1.171 0.7079 6.5249-0.5933 8.2515-3.991 9.7438-5.6629 2.487-19.568 1.2919-23.336-1.4893-4.5676-3.3713-2.5607-3.9694-10.35-14.656-6.1889-8.4912-18.7-13.929-18.7-13.929v-5.7697s20.746 6.6699 25.004 17.835c0.7983 2.0934 2.8151 3.4373 4.3049 4.8808 0 0 7.2775 4.3951 18.626 4.5551z"/><polyline fill="#A57939" points="41.343 57.587 45.365 36.741 58.095 39.271 55.381 60.303"/></g><g id="c" fill="none" stroke="#000" stroke-linecap="round" stroke-linejoin="round" stroke-miterlimit="10" stroke-width="2"><polyline points="11.21 34.533 11.21 58.958 19.049 58.958 21.049 40.533"/><path d="m59.497 53.177c2.7511-0.3643 5.4735-1.0558 8.0089-2.0383 0.7079 6.5249-0.5933 8.2515-3.991 9.7438-5.6629 2.487-19.568 1.2919-23.336-1.4893-4.5676-3.3713-2.5607-3.9694-10.35-14.656-6.1889-8.4912-18.7-13.929-18.7-13.929v-5.7697s20.746 6.6699 25.004 17.835c0.7983 2.0934 1.9924 3.8504 3.4823 5.2939"/><polyline points="41.752 56.773 45.365 36.741 58.095 39.271 55.481 59.303"/></g></svg>