<svg xmlns="http://www.w3.org/2000/svg" id="a" version="1.1" viewBox="0 0 72 72"><g id="b"><path fill="#3F3F3F" d="m22.835 18.621s-1.175-0.9644 0-1.867c0 0-2.4338-1.4384-1.2589-2.5552 0.7295-0.6934 7.2842-4.0618 14.234-4.8293 4.2443-0.4688 9.3807 0.0325 12.342 2.7054 0 0 3.6155 2.8307 0.3425 4.2368 0 0 1.9302 1.9303 0 2.3499l-25.66-0.0406z"/><path fill="#fff" d="m56.434 59.115s2.1786-15.029-10.893-15.029c-3.4768 2.3083-6.4554 3.9036-9.8034 3.8968h0.1362c-3.3481 0.0068-6.3267-1.5885-9.8034-3.8968-13.071 0-10.893 15.029-10.893 15.029"/><path fill="#D0CFCE" d="m44.776 43.986c-3.8028 2.5353-5.8484 3.599-10.722 4.3051 15.671 0.4936 15.671 6.022 16.585 10.821h6.1338s2.3993-15.126-11.997-15.126z"/><path fill="#EA5A47" d="m50.01 53.172s-3.9 0.82-6.18-3.07l-0.34-0.59c0.21-0.37 0.34-0.78 0.37-1.2h0.01l1.04 0.15c4.49 0.75 5.1 4.71 5.1 4.71z"/><path fill="#EA5A47" d="m43.49 49.512c-0.22 0.4-0.53 0.74-0.93 1.01-0.1 0.07-0.21 0.13-0.33 0.19-0.27 0.14-0.56 0.23-0.85 0.27-0.19 0.04-0.39 0.06-0.58 0.04-1.06-0.02-2.08-0.62-2.6-1.64l-0.48-1.09v-0.01c1.85-0.34 3.64-1.2 5.54-2.37v0.01l0.3 0.77c0.26 0.52 0.36 1.08 0.3 1.62-0.03 0.42-0.16 0.83-0.37 1.2z"/><path fill="#EA5A47" d="m43.21 51.112c2.87 3.06 0.43 6.44 0.43 6.44s-3.56-1.91-2.45-5.91l0.19-0.64v-0.02c0.29-0.04 0.58-0.13 0.85-0.27 0.12-0.06 0.23-0.12 0.33-0.19l0.09 0.15 0.56 0.44z"/><path fill="#EA5A47" d="m40.8 51.022-0.02 0.34c-13.41 3.47-13.75-6.5-13.75-6.5 3.15 2.1 5.85 3.56 8.87 3.59h0.13c0.57-0.01 1.13-0.06 1.69-0.17v0.01l0.48 1.09c0.52 1.02 1.54 1.62 2.6 1.64z"/><path fill="#F1B31C" d="m16.252 59.576c-0.4557-0.3472-0.8796-0.7068-1.2731-1.0768-0.2702-0.2541-0.526-0.5131-0.7679-0.7764-3.3407-3.6362-4.0105-8.0778-3.0519-11.545 1.1291-4.0839 5.4064-6.472 9.5509-5.3186 1.9615 0.5459 7.9171 1.6131 8.9643 11.565 3.846-1.1751 7.7742 1.9024 5.029 5.9617-0.4138 0.6119-0.9792 1.246-1.7194 1.8913-3.7982 3.3112-11.64 3.1785-16.732-0.7007z"/><path fill="#EA5A47" d="m17.851 46.253c-0.2943 1.0646-1.397 1.6888-2.4606 1.3948-1.0636-0.2941-1.6891-1.3961-1.3947-2.4607 0.294-1.0636 1.397-1.6888 2.4606-1.3947 1.0636 0.294 1.6888 1.397 1.3947 2.4606"/><path fill="#61B2E4" d="m23.628 57.856c-0.2943 1.0646-1.3971 1.6888-2.4607 1.3948-1.0636-0.2941-1.689-1.3961-1.3947-2.4607 0.2941-1.0636 1.397-1.6888 2.4606-1.3947s1.6888 1.397 1.3948 2.4606"/><path fill="#3F3F3F" d="m60.275 44.105-3.8708 14.968c-0.2929 1.1327-1.4505 1.8146-2.5832 1.5217-0.5615-0.1452-1.0243-0.5128-1.297-0.9758-0.2728-0.4631-0.3699-1.0459-0.2247-1.6075l3.8707-14.968 4.105 1.0616z"/><polygon fill="#9B9B9A" points="61.154 40.706 60.275 44.105 56.17 43.043 57.049 39.645 58.085 39.913 60.137 40.444"/><path fill="#A57939" d="m61.308 31.801s3.9546 4.359-0.4411 8.0562l-0.7299 0.5859-2.0525-0.5308-0.4802-0.8989c-1.9641-5.4658 3.7037-7.2124 3.7037-7.2124z"/><path fill="#FCEA2B" d="m18.322 53.121c-0.2943 1.0645-1.397 1.6888-2.4606 1.3947-1.0636-0.294-1.6891-1.3961-1.3948-2.4606 0.2941-1.0636 1.3971-1.6888 2.4607-1.3948 1.0636 0.2941 1.6888 1.3971 1.3947 2.4607"/></g><g id="c"><path d="m49.165 37.882h1.2089c5.7976 0-3.4775-19.22-3.4775-19.22l-8.6575-0.0233h-4.4579l-8.6576 0.0233s-10.125 19.22-4.3279 19.22h2.0593"/></g><g id="d"><path fill="#a57939" d="m47.149 28.839c0-4.7072-4.4312-3.0674-13.368-10.201-4.4504 4.4503-9.1554 6.7175-9.3092 10.201-0.3452 7.8201 5.0764 14.173 11.339 14.173 6.2621 0 11.338-6.3456 11.338-14.173z"/></g><g id="e"><path d="m41.964 27.011c0 1.1045-0.8965 2-2 2s-2-0.8955-2-2c0-1.1035 0.8965-2 2-2s2 0.8965 2 2"/><path d="m33.964 27.011c0 1.1045-0.8965 2-2 2s-2-0.8955-2-2c0-1.1035 0.8965-2 2-2s2 0.8965 2 2"/><path d="m35.964 37.013c-1.1519 0-2.3037-0.2861-3.4473-0.8579-0.4941-0.247-0.6943-0.8476-0.4473-1.3418 0.2466-0.4936 0.8462-0.6943 1.3418-0.4472 1.7178 0.8593 3.3877 0.8593 5.1055 0 0.4946-0.2471 1.0947-0.0464 1.3418 0.4472 0.2471 0.4942 0.0469 1.0948-0.4473 1.3418-1.1435 0.5718-2.2954 0.8579-3.4472 0.8579z"/><path d="m35.964 43.545c-6.8028 0-12.338-6.8066-12.338-15.173 0-1.1133 0.0986-2.2251 0.292-3.3047l1.9687 0.3535c-0.1728 0.9634-0.2607 1.9561-0.2607 2.9512 0 7.2641 4.6377 13.173 10.338 13.173 5.7011 0 10.339-5.9092 10.339-13.173 0-0.8936-0.0713-1.7881-0.2109-2.6582l1.9746-0.3174c0.1572 0.9746 0.2363 1.9761 0.2363 2.9756 0 8.3667-5.5351 15.173-12.339 15.173z"/><path d="m48.495 19.661h-0.0019l-25.66-0.0405c-0.2305-5e-4 -0.4541-0.0806-0.6328-0.227-0.1504-0.1241-0.9033-0.7925-0.8867-1.7852 0.0029-0.1841 0.0332-0.4043 0.124-0.6406-0.5225-0.4561-1.082-1.1133-1.1699-1.8814-0.0674-0.5957 0.1523-1.1684 0.6201-1.6123 1.0244-0.9751 7.9111-4.3369 14.814-5.0991 2.6396-0.2896 9.1963-0.5854 13.122 2.9575 0.335 0.2588 2.2598 1.8677 2.0235 3.6875-0.0596 0.4585-0.2744 1.0405-0.8858 1.564 0.294 0.5083 0.5079 1.1406 0.3233 1.769-0.1104 0.376-0.4619 1.043-1.5772 1.2852-0.0693 0.0151-0.1406 0.0229-0.2119 0.0229zm-25.138-2.0395 24.913 0.039c-0.1123-0.205-0.3144-0.4736-0.4824-0.642-0.2344-0.2344-0.3379-0.5699-0.2754-0.8956 0.0625-0.3256 0.2832-0.5996 0.5879-0.7304 0.2168-0.0928 0.7246-0.3404 0.7627-0.6294 0.0654-0.4976-0.7442-1.4404-1.3281-1.9024-2.3594-2.1254-6.6788-3.0429-11.615-2.4975-6.7558 0.7461-13.03 4.0381-13.646 4.5527 0.1094 0.2427 0.6113 0.7061 1.0694 0.9771 0.2861 0.1689 0.4697 0.4687 0.4892 0.8003 0.0205 0.3315-0.126 0.6513-0.3887 0.8535-0.038 0.0288-0.0664 0.0542-0.0869 0.0747z"/><path d="m35.81 10.369c-0.5527 0-1-0.4477-1-1v-3.0854c0-0.5523 0.4473-1 1-1 0.5528 0 1 0.4477 1 1v3.0854c0 0.5523-0.4472 1-1 1z"/><path d="m47.156 26.542c-0.0821 5e-4 -0.1651-0.0098-0.2481-0.0313-7.4531-1.9033-11.5-4.9697-13.09-6.4218-1.4082 1.4848-4.71 4.6176-8.834 6.1997-0.5166 0.1997-1.0948-0.0606-1.292-0.5752-0.1983-0.5161 0.0596-1.0943 0.5752-1.292 4.9092-1.8833 8.708-6.3794 8.7461-6.4248 0.1894-0.2266 0.4697-0.3579 0.7656-0.3584h2e-3c0.2949 0 0.5742 0.1294 0.7646 0.355 0.0332 0.0395 3.7148 4.2446 12.856 6.58 0.5352 0.1367 0.8584 0.6812 0.7217 1.2163-0.1152 0.4522-0.5224 0.7525-0.9677 0.7525z"/><path fill="none" stroke="#000" stroke-linecap="round" stroke-linejoin="round" stroke-miterlimit="10" stroke-width="2" d="m42.23 50.712c0.12-0.06 0.23-0.12 0.33-0.19 0.4-0.27 0.71-0.61 0.93-1.01 0.21-0.37 0.34-0.78 0.37-1.2 0.06-0.54-0.04-1.1-0.3-1.62l-0.3-0.77"/><path fill="none" stroke="#000" stroke-linecap="round" stroke-linejoin="round" stroke-miterlimit="10" stroke-width="2" d="m42.23 50.712c-0.27 0.14-0.56 0.23-0.85 0.27-0.19 0.04-0.39 0.06-0.58 0.04-1.06-0.02-2.08-0.62-2.6-1.64l-0.48-1.09"/><path fill="none" stroke="#000" stroke-linecap="round" stroke-linejoin="round" stroke-miterlimit="10" stroke-width="2" d="m50.93 46.452c-1.45-0.97-3.4-1.59-6.03-1.59-0.56 0.37-1.1 0.72-1.64 1.05-1.9 1.17-3.69 2.03-5.54 2.37-0.56 0.11-1.12 0.16-1.69 0.17h-0.13c-3.02-0.03-5.72-1.49-8.87-3.59"/><path fill="none" stroke="#000" stroke-linecap="round" stroke-linejoin="round" stroke-miterlimit="10" stroke-width="2" d="m42.65 50.672 0.56 0.44c2.87 3.06 0.43 6.44 0.43 6.44s-3.56-1.91-2.45-5.91l0.19-0.64"/><path fill="none" stroke="#000" stroke-linecap="round" stroke-linejoin="round" stroke-miterlimit="10" stroke-width="2" d="m27.03 44.862s0.34 9.97 13.75 6.5"/><path fill="none" stroke="#000" stroke-linecap="round" stroke-linejoin="round" stroke-miterlimit="10" stroke-width="2" d="m43.47 49.472 0.02 0.04 0.34 0.59c2.28 3.89 6.18 3.07 6.18 3.07s-0.61-3.96-5.1-4.71l-1.04-0.15"/><path d="m25.66 63.626c-3.4844 0-7.1836-1.0977-10.015-3.2539 0-1e-3 0-1e-3 -1e-3 -1e-3 -0.4795-0.3672-0.9345-0.752-1.3515-1.1436-0.2871-0.2714-0.5606-0.5468-0.8184-0.8281-3.2402-3.5264-4.4668-8.1953-3.2793-12.488 0.6123-2.2158 2.0586-4.0634 4.0723-5.2021 2.0488-1.1592 4.4297-1.4463 6.7109-0.8135l0.3106 0.084c2.1884 0.5791 7.8691 2.082 9.2412 11.244 2.0898-0.2578 4.1474 0.4961 5.2636 2.0069 1.1954 1.6181 1.0997 3.7011-0.2626 5.7158-0.4776 0.706-1.1133 1.4082-1.8907 2.084-1.9951 1.7402-4.9043 2.5957-7.9804 2.5957zm-8.8018-4.8457c4.5566 3.4717 11.93 3.8271 15.469 0.7422 0.6465-0.5625 1.167-1.1329 1.5479-1.6963 0.8711-1.2891 0.9814-2.4991 0.3096-3.4073-0.8135-1.1005-2.5869-1.5351-4.2178-1.039-0.2861 0.0879-0.5967 0.043-0.8438-0.1221-0.249-0.165-0.4111-0.4326-0.4423-0.7295-0.9239-8.7685-5.8145-10.062-7.9034-10.615l-0.3349-0.0899c-1.7647-0.4912-3.6074-0.2685-5.1895 0.626-1.5488 0.876-2.6601 2.2949-3.1299 3.9951-1.0019 3.6231 0.0538 7.587 2.8243 10.602 0.2265 0.2461 0.4648 0.4883 0.7168 0.7256 0.3662 0.3447 0.7685 0.6846 1.1943 1.0088z"/><path fill="none" stroke="#000" stroke-linecap="round" stroke-linejoin="round" stroke-miterlimit="10" stroke-width="2" d="m58.085 39.913-0.4802-0.8989c-1.9641-5.4658 3.7037-7.2124 3.7037-7.2124s3.9546 4.359-0.4411 8.0562l-0.7299 0.5859"/><path fill="none" stroke="#000" stroke-linecap="round" stroke-linejoin="round" stroke-miterlimit="10" stroke-width="2" d="m60.275 44.105-3.8708 14.968c-0.2929 1.1327-1.4505 1.8146-2.5832 1.5217-0.5615-0.1452-1.0243-0.5128-1.297-0.9758-0.2728-0.4631-0.3699-1.0459-0.2247-1.6075l3.8707-14.968"/><polygon fill="none" stroke="#000" stroke-linecap="round" stroke-linejoin="round" stroke-miterlimit="10" stroke-width="2" points="60.275 44.105 61.154 40.706 60.137 40.444 58.085 39.913 57.049 39.645 56.17 43.043"/><path d="m23.062 37.981h-2.1806c-1.3116 0-1.9864-0.6748-2.3213-1.2402-2.2168-3.7441 4.3486-16.118 5.6875-18.56 0.1748-0.3199 0.5097-0.5186 0.874-0.5196l8.6572-0.0229h3e-3c0.5507 0 0.998 0.4458 1 0.9975 9e-4 0.5523-0.4454 1.001-0.9971 1.0025l-8.0645 0.0215c-3.0449 5.6684-6.6084 14.088-5.4394 16.062 0.0576 0.0976 0.1543 0.2597 0.6006 0.2597h2.1806c0.5518 0 1 0.4473 1 1 0 0.5528-0.4482 1-1 1z"/><path d="m50.374 37.981h-1.789c-0.5528 0-1-0.4472-1-1 0-0.5527 0.4472-1 1-1h1.789c0.4356 0 0.5664-0.1523 0.6543-0.2949 1.2324-2.0068-1.957-10.383-4.75-16.027l-8.042-0.0215c-0.5517-0.0015-0.998-0.4502-0.997-1.0025 0.0019-0.5517 0.4492-0.9975 1-0.9975h0.0029l8.6572 0.0229c0.376 1e-3 0.7197 0.2129 0.8897 0.5484 1.2314 2.4326 7.2578 14.757 4.9423 18.524-0.3496 0.5693-1.0429 1.248-2.3574 1.248z"/></g></svg>