<svg xmlns="http://www.w3.org/2000/svg" id="a" version="1.1" viewBox="0 0 72 72"><g id="b"><path fill="#fff" d="m26.275 20.904h19.272v-6.0567c2.209 0 4-1.7908 4-4 0-2.2091-1.791-4-4-4-0.8757 0-1.6789 0.2894-2.3376 0.7666 0.3247-0.5782 0.5254-1.2355 0.5254-1.9459 0-2.2091-1.7908-4-4-4-1.8202 0-3.339 1.2234-3.8235 2.8873-0.4845-1.6639-2.0034-2.8873-3.8236-2.8873-2.2091 0-4 1.7909-4 4 0 0.7103 0.2007 1.3677 0.5254 1.9459-0.6587-0.4773-1.4619-0.7666-2.3376-0.7666-2.2092 0-4 1.7909-4 4 0 2.2092 1.7908 4 4 4"/><path fill="#fff" d="m54.848 57.79s2-12.802-10-12.802c-3.1919 2.1279-5.9264 3.5984-9 3.5921h0.125c-3.0736 0.0063-5.8082-1.4642-9-3.5921-12 0-10 12.802-10 12.802"/><path fill="#D0CFCE" d="m47.768 7.081c-0.9873-0.6744-4.0588 0.3783-4.0588 0.3783 1.4981-3.7579-1.9342-5.6378-1.9342-5.6378s0.7999 3.7291-1.5665 5.7485c-0.254 0.2167-0.4339 0.5065-0.4339 0.8404v12.303h0.6366l0.3124 0.0363h5.3232v-6.0567c2.209 0 4-1.7908 4-4 0-1.5929-0.9311-2.9683-2.2788-3.6117l-0.0183 0.3969"/><path fill="#D0CFCE" d="m44.254 45.139c-3.1699 2.1133-9.076 6.2728-17.344 0 0.3845 5.5358 9.6727 10.639 19.312 5.8941l0.4192 6.7374h8.1797s1.4331-12.632-10.567-12.632z"/></g><g id="c"><path d="m45.426 20.867c0.6529 1.3503 1.1307 2.8478 1.3939 4.4432l-0.0644-0.361s-3.2903 0.6195-8.4569-3.7624"/><path d="m26.192 20.867c-0.6529 1.3503-1.1307 2.8478-1.3939 4.4432l0.0644-0.361s3.2903 0.6195 8.457-3.7624"/></g><g id="d"><path fill="#a57939" d="m24.892 24.829c-0.2094 1.077-0.3204 2.202-0.3204 3.3595 0 7.8276 5.0765 14.173 11.339 14.173s11.339-6.3456 11.339-14.173c0-1.0419-0.0899-2.0576-0.2607-3.0355-3.4698-0.2273-6.2888-1.8188-8.6902-4.2855h-4.3876c-2.5871 2.0607-5.5438 3.4683-9.0183 3.9615z"/></g><g id="e"><path fill="none" stroke="#000" stroke-linecap="round" stroke-linejoin="round" stroke-miterlimit="10" stroke-width="2" d="m26.2 20.867c-1.0332 2.1368-1.6278 4.6421-1.6278 7.321 0 7.8276 5.0765 14.173 11.339 14.173s11.339-6.3456 11.339-14.173c0-2.6789-0.5946-5.1842-1.6278-7.321"/><path d="m54.91 57.827c-0.5523 0-1-0.4477-1-1v-3c0-4.4516-4.4961-7.8105-8.6519-7.9921-6.205 5.0117-12.491 5.0117-18.696 0-4.1557 0.1816-8.6518 3.5405-8.6518 7.9921v3c0 0.5523-0.4478 1-1 1-0.5523 0-1-0.4477-1-1v-3c0-5.3247 5.1401-9.9975 11-10h5e-4c0.2339 0 0.4604 0.0821 0.6401 0.232 5.625 4.6875 11.095 4.6875 16.72 0 0.1797-0.1499 0.4063-0.232 0.6402-0.232h5e-4c5.8593 0.0025 11 4.6753 11 10v3c0 0.5523-0.4478 1-1 1z"/><path d="m41.91 26.827c0 1.1045-0.8965 2-2 2s-2-0.8955-2-2c0-1.1035 0.8965-2 2-2s2 0.8965 2 2"/><path d="m33.91 26.827c0 1.1045-0.8965 2-2 2s-2-0.8955-2-2c0-1.1035 0.8965-2 2-2s2 0.8965 2 2"/><path d="m35.91 36.83c-1.1519 0-2.3037-0.2862-3.4473-0.8579-0.4941-0.2471-0.6943-0.8477-0.4472-1.3418 0.2465-0.4937 0.8461-0.6944 1.3418-0.4473 1.7177 0.8594 3.3876 0.8594 5.1054 0 0.4946-0.2471 1.0947-0.0464 1.3418 0.4473 0.2471 0.4941 0.0469 1.0947-0.4472 1.3418-1.1436 0.5717-2.2955 0.8579-3.4473 0.8579z"/><path fill="none" stroke="#000" stroke-linecap="round" stroke-linejoin="round" stroke-miterlimit="10" stroke-width="2" d="m26.562 45.835s3.6651 10.858 20.167 5.0964v5.8753"/><circle cx="28.41" cy="55.827" r="1.5"/><circle cx="43.41" cy="55.827" r="1.5"/><path fill="none" stroke="#000" stroke-linecap="round" stroke-linejoin="round" stroke-miterlimit="10" stroke-width="2" d="m26.192 20.867c-0.6529 1.3503-1.1307 2.8478-1.3939 4.4432l0.0644-0.361s3.2903 0.6195 8.457-3.7624"/><path fill="none" stroke="#000" stroke-linecap="round" stroke-linejoin="round" stroke-miterlimit="10" stroke-width="2" d="m45.426 20.867c0.6529 1.3503 1.1307 2.8478 1.3939 4.4432l-0.0644-0.361s-3.2903 0.6195-8.4569-3.7624"/><line x1="26.275" x2="26.275" y1="14.847" y2="20.904" fill="none" stroke="#000" stroke-linecap="round" stroke-linejoin="round" stroke-miterlimit="10" stroke-width="2"/><path fill="none" stroke="#000" stroke-linecap="round" stroke-linejoin="round" stroke-miterlimit="10" stroke-width="2" d="m26.275 20.904h19.272v-6.0567c2.209 0 4-1.7908 4-4 0-2.2091-1.791-4-4-4-0.8757 0-1.6789 0.2894-2.3376 0.7666 0.3247-0.5782 0.5254-1.2355 0.5254-1.9459 0-2.2091-1.7908-4-4-4-1.8202 0-3.339 1.2234-3.8235 2.8873-0.4845-1.6639-2.0034-2.8873-3.8236-2.8873-2.2091 0-4 1.7909-4 4 0 0.7103 0.2007 1.3677 0.5254 1.9459-0.6587-0.4773-1.4619-0.7666-2.3376-0.7666-2.2092 0-4 1.7909-4 4 0 2.2092 1.7908 4 4 4"/></g></svg>