<?xml version="1.0" encoding="UTF-8"?>
<svg id="a" version="1.1" viewBox="0 0 72 72" xmlns="http://www.w3.org/2000/svg"><g id="b"><path d="m50.903 27.532c0 1.2253-0.147 2.4163-0.4242 3.5563-1.5968 6.5677-7.5169 11.444-14.576 11.444-7.0588 0-12.979-4.8758-14.576-11.443-0.2773-1.1402-0.4242-2.3314-0.4242-3.5568 0-8.2843 6.7157-15 15-15 8.2842 0 15 6.7157 15 15z" fill="#9B9B9A"/><path d="m31.932 12.938s-6.5189 2.2396-9.1843 7.3842c-1.1601 2.1133-3.006 3.5059-1.4205 10.766s10.56 11.048 10.56 11.048c5.4844-1.2858 9.8096-5.5808 11.139-11.048 0.2773-1.14 0.4241-2.3311 0.4241-3.5563 0-7.0858-4.9129-13.024-11.518-14.594z" fill="#D0CFCE"/><path d="m16.764 58.776s-2-13.727 10-13.727c3.1919 2.1279 5.9264 3.5984 9 3.5921h-0.125c3.0736 0.0063 5.5082-2.1642 8.7-4.2921 15.57-1e-4 10.7 14.427 10.7 14.427" fill="#D0CFCE"/><rect x="28.142" y="52.903" width="15.561" height="5.8237" fill="#9B9B9A"/><path d="m44.437 45.676c-3.1699 2.1133-4.875 3-8.9375 3.5886 13.062 0.4114 13.062 5.5163 13.825 9.5163h5.1129s2-13.105-10-13.105z" fill="#9B9B9A"/></g><g id="c" fill="#6a462f"><path d="m33.836 22.579s-3.6548 5.3911-8.4626 8.0149l-0.6458 0.4712c-0.151-0.9227-0.2303-1.878-0.2303-2.8564 0-0.4172 0.0144-0.8302 0.0426-1.2383l-0.6209 0.999c1.1596-2.161 3.1669-3.8624 5.6726-4.5972"/><path d="m42.024 23.372c2.0532 0.6021 3.7718 1.8532 4.9635 3.4744 0.2628 0.3575 0.4999 0.733 0.7094 1.1235l-0.5597-0.9119c0.0244 0.3794 0.0368 0.7631 0.0368 1.1505 0 2.1136-0.3701 4.1192-1.0338 5.921l0.2613-0.6973c-3.14 1.57-2.8941-9.1587-2.8941-9.1587"/></g><g id="d"><path d="m46.356 33.45c0.0154-0.0072 0.0297-0.0099 0.0452-0.0178l-0.2614 0.6973c0.0813-0.2205 0.1439-0.4531 0.2162-0.6795-3.0911 1.4412-2.8489-9.1765-2.8489-9.1765l-1.4834-0.9016-8.1884-0.7932s-3.6548 5.3911-8.4626 8.0149l-0.6458 0.4712c-0.151-0.9227-0.2303-1.878-0.2303-2.8564 0-0.2066 0.0142-0.4087 0.0211-0.6132-0.0451 0.4537-0.0798 0.9156-0.0798 1.2893 0 7.8276 5.0767 14.173 11.339 14.173 5.9453 0 10.813-5.723 11.291-13-0.1238 1.1849-0.369 2.3188-0.7119 3.3928z" fill="#c19a65"/></g><g id="e"><path d="m34.488 58.719c0.0426-0.1623 0.0653-0.3326 0.0653-0.5082 0-1.1035-0.8965-2-2-2h0.0068c-1.1035 0-2 0.8965-2 2 0 0.1756 0.0227 0.3459 0.0653 0.5082"/><path d="m41.19 58.719c0.0426-0.1623 0.0653-0.3326 0.0653-0.5082 0-1.1035-0.8965-2-2-2h0.0068c-1.1035 0-2 0.8965-2 2 0 0.1756 0.0227 0.3459 0.0653 0.5082"/><polyline points="43.523 57.796 43.523 52.988 28.262 52.988 28.262 57.796" fill="none" stroke="#000" stroke-linecap="round" stroke-linejoin="round" stroke-miterlimit="10" stroke-width="2"/><path d="m41.93 26.965c0 1.1045-0.8965 2-2 2s-2-0.8955-2-2c0-1.1035 0.8965-2 2-2s2 0.8965 2 2"/><path d="m33.93 26.965c0 1.1045-0.8965 2-2 2s-2-0.8955-2-2c0-1.1035 0.8965-2 2-2s2 0.8965 2 2"/><path d="m35.93 36.967c-1.1519 0-2.3037-0.2862-3.4473-0.858-0.4941-0.247-0.6943-0.8476-0.4472-1.3417 0.2465-0.4937 0.8462-0.6944 1.3418-0.4473 1.7177 0.8594 3.3877 0.8594 5.1054 0 0.4947-0.2471 1.0948-0.0464 1.3418 0.4473 0.2471 0.4941 0.0469 1.0947-0.4472 1.3417-1.1436 0.5718-2.2954 0.858-3.4473 0.858z"/><path d="m46.235 34.247c0.6636-1.8018 1.0338-3.8074 1.0338-5.9211 0-0.3873-0.0125-0.771-0.0368-1.1505" fill="none" stroke="#000" stroke-miterlimit="10" stroke-width="2"/><path d="m24.634 27.088c-0.0283 0.4081-0.0427 0.821-0.0427 1.2382 0 7.8277 5.0765 14.173 11.339 14.173" fill="none" stroke="#000" stroke-miterlimit="10" stroke-width="2"/><path d="m16.87 57.818s-2-13 10-13c3.1918 2.1279 5.9264 3.5984 9 3.5922h-0.125c3.0736 0.0062 5.8081-1.4643 9-3.5922 12 0 10 13 10 13" fill="none" stroke="#000" stroke-linecap="round" stroke-linejoin="round" stroke-miterlimit="10" stroke-width="2"/><path d="m50.902 27.532c0 1.2253-0.1469 2.4163-0.4241 3.5563-1.5969 6.5677-7.5169 11.444-14.576 11.444-7.0588 0-12.979-4.8758-14.576-11.443-0.2772-1.1402-0.4242-2.3314-0.4242-3.5568 0-8.2843 6.7157-15 15-15s15 6.7157 15 15z" fill="none" stroke="#000" stroke-linecap="round" stroke-linejoin="round" stroke-miterlimit="10" stroke-width="2"/><path d="m47.792 28.087c-0.2095-0.3904-0.4467-0.7659-0.7094-1.1234-1.1918-1.6212-2.9103-2.8724-4.9635-3.4745-2.1203-0.6217-4.1294-0.903-6.2164-0.8438-2.0871-0.0592-4.0963 0.2221-6.2165 0.8438-2.5057 0.7348-4.513 2.4363-5.6725 4.5973" fill="none" stroke="#000" stroke-linecap="round" stroke-linejoin="round" stroke-miterlimit="10" stroke-width="2"/><line x1="53.864" x2="53.864" y1="25.467" y2="30.238" fill="none" stroke="#000" stroke-linecap="round" stroke-linejoin="round" stroke-miterlimit="10" stroke-width="2"/><line x1="17.751" x2="17.751" y1="25.467" y2="30.238" fill="none" stroke="#000" stroke-linecap="round" stroke-linejoin="round" stroke-miterlimit="10" stroke-width="2"/><path d="m46.148 34.215c-2.5512 5.1336-9.5918 5.1389-9.5918 5.1389" fill="none" stroke="#000" stroke-linecap="round" stroke-miterlimit="10" stroke-width="2"/><polyline points="43.83 57.796 43.83 52.988 28.57 52.988 28.57 57.796" fill="none" stroke="#000" stroke-linecap="round" stroke-linejoin="round" stroke-miterlimit="10" stroke-width="2"/><path d="m43.602 24.391s-0.2459 10.729 2.8941 9.1588" fill="none" stroke="#000" stroke-linecap="round" stroke-miterlimit="10" stroke-width="2"/><path d="m33.93 22.696s-3.6548 5.391-8.4626 8.0149" fill="none" stroke="#000" stroke-linecap="round" stroke-miterlimit="10" stroke-width="2"/><path d="m46.235 34.247c0.6636-1.8018 1.0338-3.8074 1.0338-5.9211 0-0.3873-0.0125-0.771-0.0368-1.1505" fill="none" stroke="#000" stroke-miterlimit="10" stroke-width="2"/><path d="m24.634 27.088c-0.0283 0.4081-0.0427 0.821-0.0427 1.2382 0 7.8277 5.0765 14.173 11.339 14.173" fill="none" stroke="#000" stroke-miterlimit="10" stroke-width="2"/><path d="m47.792 28.087c-0.2095-0.3904-0.4467-0.7659-0.7094-1.1234-1.1918-1.6212-2.9103-2.8724-4.9635-3.4745-2.1203-0.6217-4.1294-0.903-6.2164-0.8438-2.0871-0.0592-4.0963 0.2221-6.2165 0.8438-2.5057 0.7348-4.513 2.4363-5.6725 4.5973" fill="none" stroke="#000" stroke-linecap="round" stroke-linejoin="round" stroke-miterlimit="10" stroke-width="2"/><path d="m43.602 24.391s-0.2459 10.729 2.8941 9.1588" fill="none" stroke="#000" stroke-linecap="round" stroke-miterlimit="10" stroke-width="2"/><path d="m33.93 22.696s-3.6548 5.391-8.4626 8.0149" fill="none" stroke="#000" stroke-linecap="round" stroke-miterlimit="10" stroke-width="2"/></g></svg>
