<svg xmlns="http://www.w3.org/2000/svg" id="a" version="1.1" viewBox="0 0 72 72"><g id="b"><path fill="#EA5A47" d="m36 14.7c1.1-2.4 4-3.4 6.3-2.2s3.3 4 2.2 6.4c-0.1 0.3-0.3 0.5-0.4 0.7l-8.1 10.4-8.1-10.4c-0.2-0.2-0.3-0.5-0.4-0.7-1.1-2.4-0.1-5.2 2.2-6.4s5.2-0.2 6.3 2.2z"/></g><g id="c"><g id="d"><path fill="#A57939" d="m42.3 28.7c0 0.3 13.7-7 16.3 1.4 0 0 3.6 1.8 2.9 7.9-0.1 1-0.1 3.4-1.2 4.4l-2.9-7.3s-7.7 3-12.9-0.6l-2.4 7.8s-0.9-1.4-1-3.1c0 0-0.4-4.1 0.5-5.7 0.2-0.1 1.8-2.7 0.7-4.8z"/></g><g id="e"><path fill="#A57939" d="m9.5 35.8c0.6-8.8 7.3-8.9 10.6-8.3 0.3 0.1 1.2 0 1.5 0 6.1-0.8 9.1 6.1 9.1 9.1 0 1.1 0 3.8-1.5 5.3 0 0-3.5-4.2-3.6-6.6 0 0-11.5 4.4-12.3 0.6 0 0-0.8 3-1.5 3.8v3c0-0.1-2.6-3.2-2.3-6.9z"/></g></g><g id="f"><g id="g"><path fill="#fadcbc" d="m60.3 42.4-2.9-7.3s-7.7 3-12.9-0.6l-1.9863 6.4554c0.1447 6.3511 4.1073 11.445 8.9863 11.445 4.5337 0 8.2739-4.3997 8.8981-10.118-0.0346 0.0369-0.0609 0.0839-0.0981 0.1176z"/></g><g id="h"><path fill="#FCEA2B" d="m25.6 35.3s-11.5 4.4-12.3 0.6c0 0-0.7353 2.7525-1.4128 3.6849-0.0514 0.4968-0.0872 1-0.0872 1.5151 0 6.2408 3.8951 11.3 8.7 11.3 4.6063 0 8.3665-4.6531 8.6703-10.536-0.3004-0.3651-3.475-4.2772-3.5703-6.5639z"/></g></g><g id="i" fill="none" stroke="#000" stroke-width="2"><path stroke-miterlimit="10" d="m60.5 39.7v0.9c0 6.5-4 11.8-9 11.8s-9-5.3-9-11.8v-0.7"/><path stroke-linecap="round" stroke-linejoin="round" d="m49.4 47.4c0.6 0.7 1.4 0.7 2.1 0"/><path stroke-linecap="round" stroke-miterlimit="10" d="m46.2 41.8s1.5 1.5 3 0"/><path stroke-linecap="round" stroke-miterlimit="10" d="m53.5 41.1s1.5 1.5 3 0"/><path stroke-linejoin="round" stroke-miterlimit="10" d="m42.3 28.7c0 0.3 13.7-7 16.3 1.4 0 0 3.6 1.8 2.9 7.9-0.1 1-0.1 3.4-1.2 4.4l-2.9-7.3s-7.7 3-12.9-0.6l-2.4 7.8s-0.9-1.4-1-3.1c0 0-0.4-4.1 0.5-5.7 0.2-0.1 1.8-2.7 0.7-4.8z"/><path stroke-linecap="round" stroke-linejoin="round" d="m36 14.7c1.1-2.4 4-3.4 6.3-2.2s3.3 4 2.2 6.4c-0.1 0.3-0.3 0.5-0.4 0.7l-8.1 10.4-8.1-10.4c-0.2-0.2-0.3-0.5-0.4-0.7-1.1-2.4-0.1-5.2 2.2-6.4s5.2-0.2 6.3 2.2v0z"/><path stroke-miterlimit="10" d="m29.2 40.2v0.9c0 6.3-3.9 11.3-8.7 11.3s-8.7-5.1-8.7-11.3v-0.7"/><path stroke-linecap="round" stroke-linejoin="round" d="m20.2 47.4c0.6 0.7 1.4 0.7 2.1 0"/><path stroke-linecap="round" stroke-miterlimit="10" d="m22.5 41.8s1.5 1.5 3 0"/><path stroke-linecap="round" stroke-miterlimit="10" d="m14.9 41.1s1.5 1.5 3 0"/><path stroke-linecap="round" stroke-linejoin="round" d="m9.5 35.8c0.6-8.8 7.3-8.9 10.6-8.3 0.3 0.1 1.2 0 1.5 0 6.1-0.8 9.1 6.1 9.1 9.1 0 1.1 0 3.8-1.5 5.3 0 0-3.5-4.2-3.6-6.6 0 0-11.5 4.4-12.3 0.6 0 0-0.8 3-1.5 3.8v3c0-0.1-2.6-3.2-2.3-6.9z"/></g></svg>