<svg xmlns="http://www.w3.org/2000/svg" id="a" viewBox="0 0 72 72"><g id="b"><path d="m19 47.2c-0.1-0.6-0.1-1.2 0-1.7 0.4-1.3 1.1-2.4 2.1-3.3-3.7-2.9-0.9-7.1-0.9-7.1-3.4-2.8-1.1-7.2-1.1-7.2-1.1-2.1-0.6-4.7 1.3-6.2-0.2-0.9-0.1-1.9 0.2-2.7 0.7-1.3 2.1-2.2 3.6-2.3 0.9-2.5 3.7-3.7 6.2-2.7 0.1 0.1 0.3 0.1 0.4 0.2 1.7-2.3 4.9-2.8 7.2-1.1 0.2 0.2 0.4 0.3 0.6 0.5 1-1 2.4-1.4 3.8-1.2 1.5 0.3 2.8 1.3 3.5 2.8 2.1-0.5 4.2 0.8 4.7 2.9 0.1 0.5 0.1 1 0 1.6 0 0 3.5 2.3 1.2 6.6 2.2 2 2.4 5.3 0.5 7.5 0 0 2.9 3.7-0.7 6.3 1.2 1.8 1.5 4.1 0.9 6.2l0.5 1.7c-0.1 0.4-0.3 0.8-0.5 1.2-3.2 6.5-15.4 6.2-17.4 6.1-10.6-0.5-15.4-6.2-15.8-6.8 0-0.5-0.2-0.9-0.3-1.3z"/></g><g id="c"><path fill="#a57939" d="m44.1 21.5c-0.7 0.8-1.5 1.4-2.5 1.7-1.2 0.4-2.6 0.3-3.8-0.2-0.8 0.4-1.6 0.5-2.5 0.6-1.2 0-1.7-0.4-2.6-0.2-1.1 0.2-1.5 1-2.3 1.6-1.5 1.1-3.2 1.8-5 2-0.3 1.3-0.5 2.7-0.5 4 0 7.7 4.9 14 11 14s11-6.3 11-14c0.1-3.4-0.9-6.7-2.8-9.5z"/></g><g id="d"><path fill="#92D3F5" d="m17 61v-4c0-5 5-9 10-9 6 5 12 5 18 0 5 0 10 4 10 9v4"/></g><g id="e"><path fill="none" stroke="#000" stroke-linecap="round" stroke-linejoin="round" stroke-width="2" d="m17 59.9v-3c0-5 5-9 10-9 6 5 12 5 18 0 5 0 10 4 10 9v3"/><path d="m42 29.9c0 1.1-0.9 2-2 2s-2-0.9-2-2 0.9-2 2-2 2 0.9 2 2"/><path d="m34 29.9c0 1.1-0.9 2-2 2s-2-0.9-2-2 0.9-2 2-2 2 0.9 2 2"/><path fill="none" stroke="#000" stroke-linecap="round" stroke-linejoin="round" stroke-width="2" d="m33 38.1c1.9 1 4.1 1 6 0"/><path fill="none" stroke="#000" stroke-linecap="round" stroke-linejoin="round" stroke-width="2" d="m28.8 41.5c-2.5-2.9-3.8-6.7-3.7-10.5 0-1.6 0.3-3.1 0.8-4.6 2.2 0.3 3.4-0.3 4-0.9 0.8-0.7 1.4-1.6 2-2.4 1 0.4 2 0.6 3.1 0.6 1-0.1 1.9-0.6 2.6-1.4 1.2 0.9 2.7 1.2 4.2 0.9 1.1-0.2 2-0.8 2.8-1.6 1.6 2.9 2.5 6.1 2.7 9.4 0 8-5.1 14-11.1 14-2.9 0-5.6-1.3-7.4-3.5z"/><path fill="none" stroke="#000" stroke-linecap="round" stroke-linejoin="round" stroke-width="2" d="m19.9 46.9c-0.1-1.7 0.3-3.3 1.2-4.8-3.7-2.9-1.3-7.1-1.3-7.1-2.1-1.6-2.4-4.6-0.8-6.6 0.1-0.1 0.2-0.2 0.2-0.3-0.5-1.1-0.6-2.4-0.4-3.6 0.3-1.1 0.8-2 1.6-2.8-0.5-1.5-0.2-3.1 0.8-4.2 0.9-0.9 2.1-1.4 3.3-1.4 0.5-2 2.6-3.3 4.6-2.8 0.6 0.2 1.2 0.5 1.6 0.9 1.7-2.3 4.9-2.8 7.2-1.1 0.2 0.2 0.4 0.3 0.6 0.5 1-1 2.4-1.4 3.8-1.2 1.5 0.3 2.8 1.3 3.5 2.8 2.1-0.5 4.2 0.8 4.7 2.9 0.1 0.5 0.1 1 0 1.6 0 0 3.5 2.3 1.2 6.6 2.2 2 2.4 5.3 0.5 7.5 0 0 2.9 3.7-0.7 6.3 1.6 1.7 1.6 4.4-0.1 6l-0.2 0.2 0.8 1.6"/></g></svg>