<svg xmlns="http://www.w3.org/2000/svg" id="a" version="1.1" viewBox="0 0 72 72"><g id="b"><path fill="#92D3F5" d="m16.962 58.918s-2-13.5 10-13.5c3.1919 2.1279 5.9264 3.5984 9 3.5922h-0.125c3.0736 0.0062 5.5081-2.1643 8.7-4.2922 15.57 0 10.7 14.2 10.7 14.2"/><polygon fill="#61B2E4" points="49.124 58.88 49.124 46.005 44.633 45.221 44.633 52.466 26.756 52.466 26.758 45.221 22.092 46.005 22.092 58.88"/><path fill="#61B2E4" d="m36.461 9.2639h-1.8035c-11.295 0.0352-10.045 11.314-10.045 11.314 12.891-5.657 21.893 0 21.893 0s1.2502-11.279-10.045-11.314z"/><path fill="#9B9B9A" d="m54.726 38.19c0.5178-2.1526 2.3561-3.6419 4.4485-3.8148l-1.1313 4.637c0.0816 0.0154 2.7264 0.6496 2.8078 0.6692l1.1312-4.7124c1.9373 1.0552 3.007 3.3129 2.4664 5.56-0.4769 1.9823-2.0759 3.3944-3.9597 3.7417l-3.4226 14.227c-0.2616 1.0876-1.3553 1.7572-2.4429 1.4955-1.0877-0.2616-1.7571-1.3554-1.4955-2.443l3.4226-14.227c-1.5196-1.166-2.3014-3.1509-1.8245-5.1332z"/><path fill="#fff" d="m32.949 18.294v-2.3118c0-1.6568 1.3432-3 3-3 1.6569 0 3 1.3432 3 3v2.3295"/></g><g id="c"><path d="m24.82 26.559s-10.634 2.5266-7.9128 15.729c0 0 5.3627 0.1413 7.5363-2.4283 0 0 2.4867-2.2424 3.5184-8.1865 1.0317-5.9442-3.2501-5.1369-3.2501-5.1369"/><path d="m24.717 26.283c4.7415-0.4991 11.78-7.5645 11.78-7.5645s8.5126 8.7362 10.892 6.8972c0.2163-2.3798-1.2982-4.7597-1.2982-4.7597s-8.8314-5.4799-19.972-0.3616c-3.0698 3.8232-1.6044 6.9598-1.6044 6.9598"/></g><g id="d"><path fill="#6a462f" d="m36.496 18.718s-6.9597 6.983-11.7 7.55c-0.0604 0.5923-0.1019 1.1918-0.1019 1.8047 0 7.8277 5.0765 14.173 11.339 14.173s11.339-6.3456 11.339-14.173c0-0.8017-0.066-1.5825-0.1683-2.3479-2.6027 1.3082-10.707-7.0068-10.707-7.0068z"/></g><g id="e"><path d="m42.008 27.073c0 1.1045-0.8965 2-2 2s-2-0.8955-2-2c0-1.1035 0.8965-2 2-2s2 0.8965 2 2"/><path d="m34.008 27.073c0 1.1045-0.8965 2-2 2s-2-0.8955-2-2c0-1.1035 0.8965-2 2-2s2 0.8965 2 2"/><path d="m36.007 37.075c-1.1519 0-2.3037-0.2861-3.4473-0.8579-0.4941-0.2471-0.6943-0.8477-0.4472-1.3418 0.2465-0.4937 0.8461-0.6944 1.3417-0.4473 1.7178 0.8594 3.3877 0.8594 5.1055 0 0.4946-0.2471 1.0947-0.0464 1.3418 0.4473 0.2471 0.4941 0.0469 1.0947-0.4473 1.3418-1.1435 0.5718-2.2954 0.8579-3.4472 0.8579z"/><path fill="none" stroke="#000" stroke-linecap="round" stroke-miterlimit="10" stroke-width="2" d="m24.787 26.382c-0.0778 0.6699-0.118 1.355-0.118 2.0519 0 7.8276 5.0765 14.173 11.339 14.173s11.339-6.3456 11.339-14.173c0-0.3957 0.0122-2.8271 0.0122-2.8271"/><path fill="none" stroke="#000" stroke-linecap="round" stroke-linejoin="round" stroke-miterlimit="10" stroke-width="2" d="m51.747 47.208c-1.513-1.3672-3.7236-2.3012-6.9399-2.3012-3.1919 2.1279-5.9264 3.5985-9.0001 3.5922h0.1251c-3.0737 0.0063-5.8082-1.4643-9.0001-3.5922-12 0-10 13-10 13"/><path fill="none" stroke="#000" stroke-linecap="round" stroke-linejoin="round" stroke-miterlimit="10" stroke-width="2" d="m54.726 38.19c0.5178-2.1526 2.3561-3.6419 4.4485-3.8148l-1.1313 4.637c0.0816 0.0154 2.7264 0.6496 2.8078 0.6692l1.1312-4.7124c1.9373 1.0552 3.007 3.3129 2.4664 5.56-0.4769 1.9823-2.0759 3.3944-3.9597 3.7417l-3.4226 14.227c-0.2616 1.0876-1.3553 1.7572-2.4429 1.4955-1.0877-0.2616-1.7571-1.3554-1.4955-2.443l3.4226-14.227c-1.5196-1.166-2.3014-3.1509-1.8245-5.1332z"/><path fill="none" stroke="#000" stroke-linecap="round" stroke-linejoin="round" stroke-miterlimit="10" stroke-width="2" d="m46.809 20.578s1.2504-11.279-10.045-11.314h-1.8033c-11.295 0.0352-10.045 11.314-10.045 11.314"/><path fill="none" stroke="#000" stroke-linecap="round" stroke-miterlimit="10" stroke-width="2" d="m32.949 18.294v-2.3118c0-1.6568 1.3432-3 3-3 1.6569 0 3 1.3432 3 3v2.3295"/><polyline fill="none" stroke="#000" stroke-linecap="round" stroke-linejoin="round" stroke-miterlimit="10" stroke-width="2" points="44.807 44.907 44.807 52.152 26.93 52.152 26.932 44.907"/><line x1="49.299" x2="49.299" y1="45.691" y2="57.881" fill="none" stroke="#000" stroke-linecap="round" stroke-linejoin="round" stroke-miterlimit="10" stroke-width="2"/><line x1="22.266" x2="22.266" y1="45.691" y2="57.868" fill="none" stroke="#000" stroke-linecap="round" stroke-linejoin="round" stroke-miterlimit="10" stroke-width="2"/><line x1="32.606" x2="26.93" y1="56.797" y2="56.797" fill="none" stroke="#000" stroke-linecap="round" stroke-linejoin="round" stroke-miterlimit="10" stroke-width="2"/><path fill="none" stroke="#000" stroke-linecap="round" stroke-linejoin="round" stroke-miterlimit="10" stroke-width="2" d="m26.088 20.485c-3.0698 3.8233-1.6044 6.9599-1.6044 6.9599s-9.3623 2.4885-6.9666 14.112c0 0 4.3693-0.1397 6.283-2.4021"/><path fill="none" stroke="#000" stroke-linecap="round" stroke-linejoin="round" stroke-miterlimit="10" stroke-width="2" d="m46.06 20.847s1.5144 2.3799 1.2981 4.7598c-2.3799 1.839-10.892-6.8972-10.892-6.8972s-7.038 7.0654-11.78 7.5645"/><path fill="none" stroke="#000" stroke-linecap="round" stroke-linejoin="round" stroke-miterlimit="10" stroke-width="2" d="m49.642 22.446c-6.1883-4.9827-16.972-5.4838-24.031-2.1379-1.2509 0.593-2.3848 1.3068-3.3554 2.1379"/></g></svg>