<svg xmlns="http://www.w3.org/2000/svg" id="a" viewBox="0 0 72 72"><g id="b"><rect width="40" height="6.677" x="16" y="49.322" fill="#9b9b9a" rx="3.339" ry="3.339"/><polyline fill="#d0cfce" points="56 52.661 56 56 39.924 56 39.924 49.323 56 49.323 56 52.661"/></g><g id="c"><g id="d"><path fill="#fcea2b" d="M44.3634,30.3025l5.6784-2.0162c.7528-.6232,1.6743-1.6145,2.4561-3.7873l2.02-7.6445c.2242-.7408-.1516-1.5307-.8679-1.824-.6812-.2344-1.4234,.1279-1.6578,.8091-.0092,.0267-.0175,.0537-.0249,.0809l-2.3187,7.6376c-.3387,.6366-.9167,1.1122-1.6066,1.3219l-3.747,.9189c-1.2893,.3249-2.5974,.5695-3.917,.7324l-8.6944,.6436c-1.3353-.049-2.6476,.3581-3.7207,1.1543l-.62,.4609-.15,.1268c-1.0378,.9775-1.8588,2.1619-2.41,3.4767l-.6856,2.0508c-.2178,.6162-.5517,1.55-.8721,2.334-.5294,1.2229-.5112,2.6137,.05,3.8223l3.803,5.0484c.2434,.5371,.7785,.882,1.3681,.8819,.2061,0,.0424,.0423,.2436-.0475,.6968-.2562,1.054-1.0287,.7978-1.7255-.0145-.0393-.0307-.0779-.0488-.1157l-3.11-5.5567c-.1934-.4475-.1867-.9563,.0185-1.3985,.4809-.9643,3.0632-4.1636,3.6526-5.0657,2.8146,4.521,.8101,7.815,.0379,11.2374l11.9621,.0005c-.7386-3.4345-2.8908-7.0646-.0343-11.2374l.819,.4145,1.5788-2.7339Z"/></g><g id="e"><circle cx="35.998" cy="19.886" r="3.5" fill="#fcea2b"/></g></g><g id="f"><circle cx="36.002" cy="19.886" r="3.5" fill="none" stroke="#000" stroke-miterlimit="10" stroke-width="2.333"/><path fill="none" stroke="#000" stroke-linecap="round" stroke-linejoin="round" stroke-width="2" d="M27.657,45.649l-4.5089-5.66c-.4156-.8471-.455-1.8301-.1086-2.7078,.3291-.8289,.6675-1.7276,.8915-2.3777l.7652-2.2192c.473-1.2232,1.1745-2.3452,2.0669-3.3062l.1715-.1714c.9502-.8572,2.1393-1.4041,3.4085-1.5678l9.0178-.6938c1.3227-.1212,2.6354-.3344,3.9285-.6378l4.1205-1.03c1.1751-.3659,2.1263-1.2359,2.5953-2.3738l2.4688-7.1108"/><path fill="none" stroke="#000" stroke-linecap="round" stroke-linejoin="round" stroke-width="2.216" d="m30.746 20.455v-3.2356c0-2.9061 2.3559-5.262 5.262-5.262h0c2.9061 0 5.262 2.3559 5.262 5.262v3.2356"/><line x1="21.534" x2="34.3" y1="46.483" y2="46.483" fill="none" stroke="#000" stroke-linecap="round" stroke-linejoin="round" stroke-width="2"/><line x1="37.693" x2="50.458" y1="46.483" y2="46.483" fill="none" stroke="#000" stroke-linecap="round" stroke-linejoin="round" stroke-width="2"/><polygon fill="none" stroke="#000" stroke-linecap="round" stroke-linejoin="round" stroke-width="2" points="55.998 52.661 55.998 49.323 15.998 49.323 15.998 52.661 15.998 56 55.998 56"/><circle cx="46.657" cy="52.661" r="1"/><circle cx="49.645" cy="52.661" r="1"/><path fill="none" stroke="#000" stroke-linecap="round" stroke-linejoin="round" stroke-width="2.216" d="M30.5259,20.61c-.9027,0-1.6344-.7317-1.6344-1.6344s.7317-1.6344,1.6344-1.6344"/><path fill="none" stroke="#000" stroke-linecap="round" stroke-linejoin="round" stroke-width="2.216" d="M41.2571,17.3412c.9027,0,1.6344,.7317,1.6344,1.6344s-.7317,1.6344-1.6344,1.6344"/><g id="g" fill="none" stroke="#000" stroke-linecap="round" stroke-linejoin="round" stroke-width="1.934"><path d="m42 42.859c-0.7386-2.4345-2.8908-6.0646-0.0343-10.237"/><path d="m30 32.621c2.8146 4.521 0.8101 7.815 0.0379 10.237"/></g></g></svg>