<svg xmlns="http://www.w3.org/2000/svg" id="a" version="1.1" viewBox="0 0 72 72"><g id="b"><path fill="#fff" d="m16.697 58.853s-0.9644-3.8571-0.1756-7.6612c0.7007-3.3792 4.6186-7.2388 10.209-7.2388 3.1918 2.1279 5.5264 4.5985 8.6 4.5922h-0.125c3.0736 0.0063 6.308-1.5642 9.4999-3.6922 11.565-0.0346 10.009 13.9 10.24 14"/><path fill="#D0CFCE" d="m44.599 49.848c4.2663 2.3224 4.3828 6.254 4.9068 9.004h5.1128s1.6601-4.6027 0.1076-8.7835c-1.1542-3.1082-4.4418-6.1174-9.6076-6.1165"/><path fill="#3F3F3F" d="m50.269 16.127c0.6 1.14 0.42 2.53-0.4 3.52l-2.24 2.72-0.09 0.06c-1.02-1.56-2.34-2.5-2.34-2.5l-0.04-0.05c0.49-0.35 0.93-0.76 1.31-1.21h-21.07c0.33 0.33 0.7 0.64 1.1 0.93l-0.02 0.03s-1.2 0.91-2.17 2.4l-0.24-0.15-1.85-2.23c-0.82-0.99-1-2.38-0.4-3.52 1.37-2.58 4.98-6.72 14.23-7.28 9.25 0.56 12.86 4.7 14.22 7.28z"/><path fill="#3F3F3F" d="m33.949 22.227c-2.82-0.33-5.51-1.23-7.45-2.63-0.4-0.29-0.77-0.6-1.1-0.93h21.07c-0.38 0.45-0.82 0.86-1.31 1.21-1.08 0.82-2.38 1.43-3.82 1.83-2.28 0.65-4.88 0.81-7.39 0.52z"/><path fill="#D0CFCE" d="m33.035 18.084c0-1.6553 1.3448-3 3-3 1.6553 0 3 1.3447 3 3"/><polygon fill="#3F3F3F" points="35.744 50.176 39.519 58.852 35.744 58.852 31.77 58.852"/><path fill="#3F3F3F" d="m33.374 48.73s-1.2063 5.0369 2.3073 5.0369 2.3073-5.0369 2.3073-5.0369"/></g><g id="c"><path d="m46.507 41.958c6.2358-0.6113 8.387-3.307 8.387-3.307l-5.9082-0.6003c8.0702-8.437-3.3737-16.885-3.3737-16.885h-1.4614l-7.1649 1.5887-8.9561-1.5887h-1.8351s-11.444 8.4482-3.3737 16.885l-5.6247 0.6003s1.8674 2.6957 8.1037 3.307c0 1.256 21.207 1.256 21.207 0z"/></g><g id="d" fill="#a57939"><rect width="6.964" height="3.85" x="16.758" y="44.352"/><rect width="6.964" height="3.85" x="47.708" y="44.352"/><path d="m36 22.362 6.035-0.5829s5.338 5.4276 5.2303 6.948c0 7.8277-5.0765 14.173-11.339 14.173s-11.339-6.3456-11.339-14.173c-0.1953-4.1264 11.412-6.3651 11.412-6.3651z"/></g><g id="e"><path d="m42.035 26.846c0 1.1045-0.8965 2-2 2s-2-0.8955-2-2c0-1.1035 0.8965-2 2-2s2 0.8965 2 2"/><path d="m34.035 26.846c0 1.1045-0.8965 2-2 2s-2-0.8955-2-2c0-1.1035 0.8965-2 2-2s2 0.8965 2 2"/><path d="m36.035 36.848c-1.1518 0-2.3037-0.2861-3.4473-0.8579-0.4941-0.247-0.6943-0.8476-0.4472-1.3418 0.2466-0.4936 0.8462-0.6943 1.3418-0.4472 1.7177 0.8593 3.3877 0.8593 5.1054 0 0.4947-0.2471 1.0948-0.0464 1.3418 0.4472 0.2471 0.4942 0.0469 1.0948-0.4472 1.3418-1.1436 0.5718-2.2954 0.8579-3.4473 0.8579z"/><path d="m36.035 43.38c-6.8038 0-12.339-6.8067-12.339-15.173 0-0.5522 0.4473-1 1-1s1 0.4478 1 1c0 7.2642 4.6377 13.173 10.339 13.173 5.7002 0 10.338-5.9092 10.338-13.173 0-0.5522 0.4473-1 1-1 0.5528 0 1 0.4478 1 1 0 8.3667-5.5351 15.173-12.338 15.173z"/><path d="m36.354 23.486c-4.6972 0-9.207-1.5288-11.669-3.9951-0.2852-0.2861-0.3701-0.7163-0.2158-1.0898 0.1552-0.3731 0.5195-0.6167 0.9238-0.6167h21.068c0.3897 0 0.7442 0.2265 0.9073 0.58 0.164 0.3536 0.1074 0.7706-0.1455 1.0674-2.0313 2.3921-5.6788 3.8633-10.006 4.0371-0.2881 0.0113-0.5762 0.0171-0.8633 0.0171zm-7.8242-3.7016c2.333 1.1792 5.4336 1.8139 8.6074 1.686 2.5635-0.103 4.8272-0.6978 6.5381-1.686h-15.146z"/><path d="m47.824 23.23c-0.2236 0-0.4492-0.0752-0.6357-0.229-0.4258-0.3521-0.4864-0.9825-0.1338-1.4082l2.0371-2.4644c0.5771-0.6987 0.6885-1.6465 0.2832-2.4141-1.2051-2.2846-4.54-6.1943-13.34-6.7504-8.7989 0.5561-12.135 4.4658-13.341 6.7504-0.4052 0.7671-0.2939 1.7149 0.2842 2.4141l1.8633 2.2549c0.3525 0.4258 0.292 1.0561-0.1338 1.4082-0.4267 0.353-1.0557 0.291-1.4072-0.1338l-1.8633-2.2549c-1.0947-1.3242-1.2949-3.1382-0.5127-4.622 1.4053-2.6612 5.2285-7.2159 15.049-7.8169 0.041-3e-3 0.0821-3e-3 0.1231 0 9.8222 0.6015 13.644 5.1557 15.048 7.8169 0.7832 1.4843 0.5821 3.2983-0.5117 4.622l-2.0371 2.4644c-0.1973 0.2392-0.4834 0.3628-0.7715 0.3628z"/><path d="m25.293 42.438c-0.0323 0-0.0655-2e-3 -0.0987-0.0049-6.6201-0.6484-8.7402-3.6064-8.8281-3.7324-0.2012-0.29-0.2344-0.6641-0.0869-0.9854 0.1465-0.3212 0.4521-0.541 0.8027-0.5781l3.7676-0.4023c-1.4463-2.0137-2.0791-4.1758-1.8828-6.4483 0.5039-5.8623 6.377-10.261 6.627-10.445 0.4443-0.3271 1.0693-0.2339 1.3974 0.2105 0.3281 0.4433 0.2344 1.0693-0.209 1.3979-0.0537 0.0401-5.4023 4.0586-5.8242 9.0156-0.1904 2.2422 0.6768 4.3868 2.5781 6.3741 0.2637 0.2754 0.3477 0.6767 0.2168 1.0351-0.1308 0.3574-0.4541 0.6104-0.833 0.6504l-3.1992 0.3418c1.1504 0.6318 2.9619 1.3106 5.6689 1.5762 0.5499 0.0537 0.9512 0.543 0.8975 1.0928-0.0508 0.5166-0.4853 0.9023-0.9941 0.9023z"/><path d="m46.499 42.438c-0.5088 0-0.9433-0.3857-0.9941-0.9023-0.0537-0.5498 0.3476-1.0391 0.8974-1.0928 2.6993-0.2647 4.5733-0.9414 5.7969-1.5791l-3.3222-0.3379c-0.3799-0.0391-0.7051-0.291-0.837-0.6494-0.1318-0.3584-0.0478-0.7608 0.2159-1.0371 1.9033-1.9893 2.7705-4.1368 2.5771-6.3819-0.4277-4.9707-5.7685-8.9673-5.8223-9.0068-0.4443-0.3281-0.539-0.9541-0.2109-1.3984 0.3281-0.4444 0.9541-0.5391 1.3984-0.211 0.25 0.1846 6.1231 4.583 6.627 10.445 0.1953 2.2686-0.4346 4.4278-1.876 6.4395l4.0391 0.4101c0.3633 0.0372 0.6787 0.2706 0.8203 0.6075 0.1416 0.3379 0.0879 0.7256-0.1406 1.0117-0.0987 0.123-2.4903 3.0322-9.0703 3.6777-0.0332 0.0029-0.0664 0.0049-0.0987 0.0049z"/><path d="m23.743 30.327c-0.0684 0-0.1387-0.0068-0.208-0.0214-0.5411-0.1153-0.8858-0.6455-0.7715-1.1856 0.9521-4.4922 10.288-7.3164 11.35-7.6235 0.5312-0.1533 1.0859 0.1528 1.2383 0.6821 0.1543 0.5303-0.1514 1.085-0.6817 1.2388-3.5644 1.0337-9.4179 3.6089-9.9492 6.1167-0.0996 0.4707-0.5156 0.7929-0.9775 0.7929z"/><path d="m47.336 28.963c-0.2802 0-0.5595-0.1177-0.7578-0.3472l-5.2529-6.0952c-0.3604-0.4185-0.3135-1.0498 0.1055-1.4102 0.417-0.3613 1.0478-0.3144 1.4101 0.1045l5.253 6.0952c0.3603 0.4185 0.3134 1.0499-0.1055 1.4102-0.1885 0.1631-0.4209 0.2427-0.6524 0.2427z"/><path d="m39.035 19.084c-0.5528 0-1-0.4478-1-1 0-1.1031-0.8975-2-2-2-1.1026 0-2 0.8969-2 2 0 0.5522-0.4473 1-1 1-0.5528 0-1-0.4478-1-1 0-2.2056 1.7939-4 4-4 2.206 0 4 1.7944 4 4 0 0.5522-0.4473 1-1 1z"/><path d="m35.681 54.767c-1.4112 0-2.2159-0.6455-2.6426-1.1865-1.3828-1.753-0.7178-4.7481-0.6377-5.083 0.1289-0.5371 0.6748-0.8672 1.2031-0.7393 0.5371 0.127 0.8692 0.666 0.7422 1.2031-0.1436 0.6094-0.4033 2.5401 0.2637 3.3819 0.1435 0.1826 0.4111 0.4238 1.0713 0.4238 0.6611 0 0.9287-0.2422 1.0722-0.4248 0.6211-0.7881 0.4453-2.6172 0.2627-3.3799-0.1289-0.5371 0.2032-1.0762 0.7403-1.2051 0.5361-0.1259 1.0761 0.2032 1.205 0.7403 0.0801 0.3349 0.7452 3.33-0.6377 5.083-0.4267 0.541-1.2314 1.1865-2.6425 1.1865z"/><path d="m54.76 58.904c-0.0508 0-0.1016-0.0029-0.1524-0.0107-0.5459-0.084-0.9209-0.5938-0.8379-1.1387 0.0049-0.0371 0.5371-3.6924-0.7715-6.9111-0.208-0.5118 0.0391-1.0958 0.5499-1.3038 0.5117-0.206 1.0957 0.0391 1.3037 0.5498 1.5205 3.7432 0.9209 7.7969 0.8945 7.9678-0.0762 0.4942-0.502 0.8467-0.9863 0.8467z"/><path d="m30.106 54.701c-0.0284 0-0.0576-1e-3 -0.0869-0.0039-0.3663-0.0323-0.6856-0.2627-0.8311-0.5996l-3.7754-8.7481c-0.1279-0.2949-0.1055-0.6338 0.0596-0.9092 0.165-0.2763 0.4521-0.456 0.7724-0.4834l0.5528-0.0478c0.2265-0.0225 0.4521 0.0381 0.6406 0.164 3.1543 2.1026 5.6621 3.4102 8.3828 3.4248 2.7227-0.0136 5.2295-1.3222 8.3828-3.4248 0.1846-0.123 0.4004-0.1875 0.625-0.165l0.6787 0.0479c0.3282 0.0224 0.6241 0.206 0.7911 0.4892 0.1669 0.2842 0.1845 0.6318 0.0449 0.9297l-4.0752 8.748c-0.1563 0.336-0.4854 0.5577-0.8555 0.5772-0.3701 0.0215-0.7197-0.1689-0.9092-0.4863l-2.9072-4.8692c-0.5469 0.0928-1.1006 0.1446-1.667 0.1524-0.0215 9e-4 -0.043 9e-4 -0.0644 9e-4h-0.0205-0.0459-0.042c-0.0147 0-0.0293 0-0.044-9e-4 -0.5293-0.0078-1.0469-0.0528-1.5576-0.1348l-3.2129 4.8877c-0.1865 0.2832-0.501 0.4512-0.8359 0.4512zm-1.8067-7.709 1.9903 4.6094 1.8144-2.7608c-1.2422-0.4306-2.4863-1.0586-3.8047-1.8486zm11.311 1.8232 1.6426 2.752 2.1474-4.6104c-1.3135 0.791-2.5537 1.4229-3.79 1.8584z"/><path d="m16.882 58.905c-0.4853 0-0.9111-0.3535-0.9873-0.8477-0.0263-0.1689-0.6172-4.164 0.8633-7.8847 0.2041-0.5147 0.7861-0.7657 1.2979-0.5596 0.5136 0.2041 0.7646 0.7851 0.5595 1.2978-1.2802 3.2207-0.75 6.8067-0.7441 6.8418 0.084 0.5459-0.29 1.0567-0.8359 1.1407-0.0518 0.0078-0.1036 0.0117-0.1534 0.0117z"/><path d="m31.901 58.862c-0.1768 0-0.3555-0.0469-0.5176-0.1455-0.4727-0.2861-0.6231-0.9014-0.3359-1.373l2.2382-3.6885c0.2862-0.4727 0.9014-0.6231 1.3731-0.336 0.4726 0.2862 0.623 0.9014 0.3359 1.3731l-2.2383 3.6885c-0.1875 0.3105-0.5175 0.4814-0.8554 0.4814z"/><path d="m39.461 58.862c-0.3379 0-0.6679-0.1709-0.8554-0.4814l-2.2393-3.6895c-0.2871-0.4717-0.1367-1.0869 0.3359-1.373 0.4727-0.2871 1.0879-0.1368 1.3731 0.3359l2.2393 3.6895c0.2871 0.4716 0.1367 1.0869-0.336 1.373-0.1621 0.0986-0.3408 0.1455-0.5176 0.1455z"/><path d="m23.722 48.24c-0.5528 0-1-0.4472-1-1v-1.9521c0-0.5527 0.4472-1 1-1 0.5527 0 1 0.4473 1 1v1.9521c0 0.5528-0.4473 1-1 1z"/><path d="m20.326 48.24c-0.5528 0-1-0.4472-1-1v-1.9521c0-0.5527 0.4472-1 1-1 0.5527 0 1 0.4473 1 1v1.9521c0 0.5528-0.4473 1-1 1z"/><path d="m16.931 48.24c-0.5528 0-1-0.4472-1-1v-1.9521c0-0.5527 0.4472-1 1-1 0.5527 0 1 0.4473 1 1v1.9521c0 0.5528-0.4473 1-1 1z"/><path d="m47.795 48.24c-0.5527 0-1-0.4472-1-1v-1.9521c0-0.5527 0.4473-1 1-1 0.5528 0 1 0.4473 1 1v1.9521c0 0.5528-0.4472 1-1 1z"/><path d="m51.19 48.24c-0.5527 0-1-0.4472-1-1v-1.9521c0-0.5527 0.4473-1 1-1 0.5528 0 1 0.4473 1 1v1.9521c0 0.5528-0.4472 1-1 1z"/><path d="m54.586 48.24c-0.5527 0-1-0.4472-1-1v-1.9521c0-0.5527 0.4473-1 1-1 0.5528 0 1 0.4473 1 1v1.9521c0 0.5528-0.4472 1-1 1z"/></g></svg>