<svg xmlns="http://www.w3.org/2000/svg" id="a" viewBox="0 0 72 72"><g id="b"><path fill="#d0cfce" d="m31.958 59.482a12.319 12.319 0 0 0 12.477-12.159 12.319 12.319 0 1 0-12.477 12.159"/><path fill="#9b9b9a" d="m32.189 41.621a5.5435 5.5435 0 1 0 5.4715 5.6147 5.5435 5.5435 0 0 0-5.4715-5.6147z"/></g><g id="c" fill="#c19a65"><path d="M28.0981,31.5638a.4877.4877,0,0,1,.05-.216l1.0645-2.1529a.6442.6442,0,0,1,.4884-.295c.1669,0,.2768.1566.2768.3513v1.9613a.4873.4873,0,0,0,.4873.4873h1.4215a14.0763,14.0763,0,0,1,6.5905,1.5785.4873.4873,0,0,0,.7189-.4905l-.4619-3.2823-.5986-3.922a2.965,2.965,0,0,0-2.46-2.6594L31.45,22.3922c-1.6617-.1993-2.758.05-3.2576.9971l-2.3771,4.41A6.7577,6.7577,0,0,0,24.79,31.9772v6.6783c0,1.5228.7282,2.1783,1.69,2.1783.9983,0,1.6183-.9379,1.6183-2.276Z"/><circle cx="34.254" cy="15.736" r="3.556"/><path d="m50.682 56.124c1.2071 0 2.01-1.1816 2.01-2.957 0 0-0.5541-10.218-0.744-12.668s-2.3424-3.947-5.7334-3.947"/><path d="m46.214 36.552 2.2944 17.235c0.244 1.6308 1.0284 2.3372 2.1734 2.3372"/></g><g id="d" fill="none" stroke="#000" stroke-linecap="round" stroke-linejoin="round" stroke-width="2.007"><path d="m48.509 53.786c0.244 1.6308 1.0284 2.3372 2.1734 2.3372"/><path d="m50.682 56.124c1.2071 0 2.01-1.1816 2.01-2.957 0 0-0.5541-10.218-0.744-12.668s-2.3424-3.947-5.7334-3.947"/><path d="m26.574 47.093a5.5436 5.5436 0 1 0 5.6149-5.4715"/><path d="M30.283,31.7h1.6041a14.0754,14.0754,0,0,1,7.4462,2.0607l-.5987-4.255-.5986-3.922a2.965,2.965,0,0,0-2.46-2.6594L31.45,22.3922c-1.6617-.1993-2.7878.05-3.2576.9971l-3.2958,7.4548a1.2455,1.2455,0,0,0-.1064.5034v7.3081c0,1.5228.7282,2.1783,1.69,2.1783"/><circle cx="34.254" cy="15.736" r="3.556"/><path d="m22.497 39.537a12.285 12.285 0 1 0 7.4935-4.382"/></g></svg>