<?xml version="1.0" encoding="UTF-8"?>
<svg id="a" version="1.1" viewBox="0 0 72 72" xmlns="http://www.w3.org/2000/svg"><g id="b"><path d="m41.009 54.004h-12.263c-0.2505 1e-4 -0.4919-0.0941-0.6762-0.2639l-7.4307-6.834c-0.2967-0.2728-0.4007-0.697-0.2637-1.0761 1.4776-4.0947 2.5049-6.8242 3.0547-8.1113 0.7183-1.5602 2.3008-2.5388 4.0176-2.4844 0.1562-0.0137 0.3105-0.0264 0.4609-0.0449 0.8209-0.0927 1.6493 0.0915 2.3535 0.5234 1.714 1.071 3.6957 1.636 5.7168 1.63h0.9961c2.0252-0.014 4.0085-0.5777 5.7383-1.6309 0.7045-0.4311 1.5327-0.615 2.3535-0.5224 0.15 0.0185 0.3047 0.0312 0.46 0.0449 1.6993-0.0596 3.2708 0.8986 3.9961 2.4365 1.0136 2.3682 3.1191 8.1963 4.7119 12.678 0.1849 0.5204-0.0871 1.0922-0.6075 1.2771-0.0486 0.0173-0.0985 0.0308-0.1493 0.0403l-12.283 2.32c-0.0613 0.0119-0.1236 0.0179-0.1861 0.018z" fill="#B399C8"/><path d="m36.978 50.884c-1.1792-0.2084-2.3708-0.3382-3.5672-0.3886 0.9485 4.4521-1.8918 8.8301-6.3439 9.7785-2.0886 0.445-4.2684 0.0619-6.0802-1.0685 0.6659 1.659 1.7913 3.0935 3.2442 4.1351 2.8993 2.1116 6.2588 3.5044 9.8017 4.0635 1.5463 0.2793 3.1143 0.4218 4.6856 0.4258 6.14 0 10.884-2.3282 11.549-6.0537 0.8252-4.6323-5.0127-9.4165-13.289-10.892z" fill="#B1CC33"/><path d="m36.323 50.684c-1.1487-2e-4 -2.1716-0.7269-2.55-1.8115l-0.79-2.2754c-0.4858-1.4062 0.2575-2.9403 1.6621-3.4307l8.583-2.9795c1.406-0.4877 2.9414 0.2557 3.4307 1.6612l0.79 2.2773c0.4864 1.406-0.2572 2.9404-1.6621 3.43l-8.583 2.98c-0.2832 0.0985-0.5809 0.1488-0.8807 0.1486z" fill="#92D3F5"/><circle cx="33.278" cy="47.683" r="2" fill="#F1B31C"/></g><g id="c" fill="#FCEA2B"><path d="m25.332 60.471c-4.5602 0-8.2569-3.6967-8.2569-8.2569s3.6967-8.2569 8.2569-8.2569 8.2569 3.6967 8.2569 8.2569v1e-4c-0.0052 4.558-3.6989 8.2516-8.2569 8.2568z"/><path d="m56.039 55.471s-0.8418-2.415-1.9424-5.5088c-0.0161-0.0303-0.0338-0.0598-0.0531-0.0882-0.0101-0.0334-0.022-0.0662-0.0358-0.0983-0.0178-0.0292-0.0466-0.0454-0.0667-0.0721-0.0394-0.0523-0.084-0.1004-0.1331-0.1437-0.0483-0.0437-0.1008-0.0823-0.1569-0.1153-0.0519-0.0299-0.1065-0.0549-0.163-0.0747-0.0622-0.023-0.1267-0.0395-0.1923-0.0493-0.0596-0.0084-0.1199-0.011-0.18-8e-3 -0.0679 0.0024-0.1353 0.012-0.2012 0.0286-0.0318 0.0029-0.0635 0.0075-0.0949 0.0136-0.0305 0.0161-0.06 0.0338-0.0885 0.0532-0.0333 0.0101-0.0661 0.022-0.0981 0.0357-1.5917 0.815-3.3702 1.1959-5.1561 1.1044-1.2471-2.0232-2.5471-3.9678-3.251-5.1871-0.4548-1.0514-1.6452-1.5723-2.7261-1.1927-1.357 0.4551-2.0882 1.9241-1.6332 3.2811 0.0198 0.0591 0.0417 0.1174 0.0658 0.1749 3.0694 7.3545 7.545 15.802 11.905 15.802 0.2952 0 0.5892-0.0395 0.874-0.1172 0.0185-5e-3 0.0313-0.0186 0.0492-0.0245 0.02-0.0066 0.04-0.0037 0.06-0.0116 1.4602-0.5081 2.6442-1.599 3.27-3.0127 0.5596-1.5506 0.5412-3.251-0.0519-4.7891z"/><path d="m32.612 61.936-8.9951-3.6992c-0.0184-0.0076-0.0378-0.0045-0.0564-0.0109-0.0134-0.0046-0.0227-0.0152-0.0364-0.0194-2.3222-0.7046-4.0297-2.6853-4.3845-5.0859-0.0114-0.0406-0.0255-0.0804-0.0423-0.1191-0.0172-0.0767-0.0435-0.1512-0.0783-0.2217-0.0357-0.0568-0.0771-0.1099-0.1236-0.1582-0.0844-0.1218-0.2062-0.2128-0.3469-0.2591-0.0283-0.0183-0.0575-0.035-0.0876-0.05-0.0065-0.0021-0.013 0-0.0195-0.0022-0.078-0.019-0.1581-0.0281-0.2384-0.0271-0.0546-7e-3 -0.1098-0.0095-0.1648-0.0074-0.0107 0.0014-0.0206-0.0032-0.0314-0.0014-0.0508 0.0134-0.1004 0.0311-0.1482 0.0528-0.0646 0.016-0.1274 0.0384-0.1875 0.0669-0.1034 0.0738-0.2011 0.1554-0.2922 0.2439-0.0457 0.0626-0.084 0.1302-0.1141 0.2016-0.0242 0.0366-0.0458 0.0749-0.0647 0.1145-0.0058 0.0177-0.0093 0.0333-0.0149 0.0509l-0.0029 0.01c-2.0249 6.2905 0.6584 8.2628 0.95 8.4536 3.9688 2.4534 8.3081 4.249 12.85 5.3174 1.3214 0.3415 2.68-0.4061 3.0987-1.7051 0.41-1.2713-0.2309-2.6434-1.469-3.1449z"/><path d="m26.843 22.207c0.0276 0.2543 0.0614 0.5098 0.1014 0.7664 1.02 6.52 5.7549 11.194 10.575 10.44s7.9005-6.6515 6.8805-13.172c-3.5124 0.5439-6.9891-1.1707-8.6957-4.2884-2.1315 2.6425-5.1947 5.5064-8.8524 6.2527"/><path d="m35.302 45.055 8.581-2.9785c0.0347-0.0122 0.0703-0.0216 0.1065-0.0283 0.0276-0.0052 0.0481-0.023 0.0747-0.03 0.1226-0.0357 0.2382-0.092 0.3418-0.1665 0.0552-0.0438 0.1055-0.0933 0.15-0.1479 0.036-0.0396 0.0687-0.0822 0.0976-0.1272 0.033-0.0587 0.0598-0.1206 0.08-0.1848 0.0217-0.0553 0.0381-0.1126 0.049-0.171 0.0034-0.0206 0.0152-0.0374 0.0171-0.0585 0.1604-1.6469 0.2002-3.3033 0.1192-4.956-0.0251-0.0692-0.0374-0.1423-0.0362-0.2159-0.0133-0.0294-0.0282-0.0581-0.0446-0.0859-0.0505-0.1205-0.122-0.231-0.2111-0.3266-0.0406-0.0404-0.0847-0.0772-0.1316-0.11-0.0543-0.04-0.1125-0.0743-0.1738-0.1024-0.1176-0.0491-0.2427-0.0778-0.37-0.085-0.0311-0.0012-0.059-0.0148-0.09-0.0131-0.0345 0.0071-0.0685 0.0161-0.1019 0.027-0.0378 5e-4 -0.0755 0.0032-0.1129 0.0081-0.3282 0.0939-0.6422 0.2315-0.9336 0.4092-1.7298 1.0532-3.7131 1.6169-5.7383 1.6309h-0.9961c-2.0211 6e-3 -4.0028-0.559-5.7168-1.63-0.3961-0.2432-0.8344-0.4099-1.292-0.4912-0.4512-0.0774-0.896 0.1674-1.072 0.59-0.0083 0.0158-0.0119 0.033-0.0193 0.0493-0.0278 0.0546-0.0502 0.1118-0.0669 0.1708-0.0046 0.0261 0.0044 0.05 0.0019 0.0763-0.0107 0.0326-0.0195 0.0658-0.0263 0.0995-0.2162 3.6968 0.2609 7.4015 1.4069 10.923l6.1077-2.0752z"/></g><g id="d"><path d="m49.803 20.823c-0.4189-9.0351-5.4658-14.462-13.507-14.517h-0.5811c-8.2275 0.0557-13.282 5.6739-13.52 15.056v19.709c0 0.0068 0.0037 0.0123 0.0039 0.0191 0.0061 0.079 0.0219 0.1571 0.0469 0.2324 8e-3 0.0505 0.0198 0.1004 0.0354 0.1491 0.0298 0.0549 0.0648 0.1069 0.1045 0.1552 0.0323 0.0565 0.0701 0.1096 0.1129 0.1587 0.0386 0.0303 0.0793 0.0577 0.1218 0.0821 0.0632 0.0515 0.1325 0.0948 0.2064 0.1291 6e-3 0.0024 0.01 0.0076 0.0158 0.01 0.2257 0.088 0.4766 0.0859 0.7009-0.0058 0.0345-0.0142 0.0682-0.0303 0.1008-0.0485 0.072-0.0366 0.1392-0.082 0.2-0.135 0.0296-0.0243 0.0577-0.0504 0.0842-0.078 0.0579-0.0652 0.1068-0.1378 0.1455-0.2159 0.0146-0.0282 0.0342-0.0519 0.0462-0.0815 0.0027-0.0067 0.0078-0.0115 0.01-0.0182 0.4991-1.3242 0.8848-2.3066 1.125-2.872 0.5733-1.1689 1.2891-1.23 2.3731-1.3252 0.1777-0.0157 0.3525-0.03 0.5234-0.0508 0.3762-0.0427 0.7556 0.0438 1.0762 0.2451 2.035 1.2639 4.3845 1.9298 6.78 1.9219h0.9531c2.4022 0.0065 4.7582-0.6597 6.8015-1.923 0.3209-0.2006 0.7002-0.2867 1.0762-0.2441 0.1708 0.02 0.3457 0.0351 0.5234 0.0508 1.084 0.0947 1.8 0.1562 2.3506 1.2734l0.165 0.3975 0.0032 0.0047c0.0505 0.1218 0.1246 0.2324 0.218 0.3254 0.0083 0.0081 0.02 0.0112 0.0282 0.019 0.1833 0.1695 0.4224 0.2659 0.672 0.271l0.0044 1e-3c0.126-0.0261 0.2523-0.0508 0.3789-0.0743l0.0046-0.0031c0.1215-0.0502 0.2318-0.1239 0.3247-0.2169 0.0209-0.0275 0.0403-0.0562 0.0579-0.0859 0.0628-0.07 0.1154-0.1486 0.156-0.2334 0.0504-0.121 0.0765-0.2508 0.0769-0.3819l1e-3 -0.0045-0.0011-17.696zm-12.284 12.591c-4.8204 0.7541-9.5554-3.92-10.575-10.44-0.04-0.2566-0.0738-0.512-0.1014-0.7664l0.0092-9e-4c3.6577-0.7463 6.7209-3.6102 8.8524-6.2527 1.7066 3.1177 5.1833 4.8323 8.6957 4.2884 1.0199 6.5201-2.0602 12.418-6.8806 13.172z" fill="#A57939"/></g><g id="e" fill="none" stroke="#000" stroke-linecap="round" stroke-linejoin="round" stroke-width="2"><path d="m26.843 22.207c0.0276 0.2543 0.0614 0.5098 0.1014 0.7664 1.02 6.52 5.7549 11.194 10.575 10.44s7.9005-6.6515 6.8805-13.172c-3.5124 0.5439-6.9891-1.1707-8.6957-4.2884-2.1315 2.6425-5.1947 5.5064-8.8524 6.2527"/><path d="m48.795 38.111v-17.242c-0.32-6.9079-3.6992-13.503-12.508-13.563h-0.5742c-9.0183 0.0609-12.346 6.9719-12.526 14.056v12.128"/><path d="m43.805 41.066c0.1548-1.5954 0.1938-3.1999 0.1166-4.8009"/><path d="m28.785 36.265c-0.2007 3.5568 0.2552 7.1202 1.3447 10.512"/><path d="m21.315 46.17c1.2325-3.4161 2.4138-6.6069 3.0343-8.0586 0.9436-1.9239 2.4321-1.7805 3.6765-1.9283 0.5984-0.0686 1.2025 0.0662 1.7149 0.3828 1.8808 1.1622 4.048 1.7775 6.2589 1.7771h0.9747c2.2109 4e-4 4.3781-0.6149 6.2589-1.7771 0.5124-0.3166 1.1165-0.4514 1.7149-0.3828 1.2444 0.1478 2.7329 0.0044 3.6765 1.9283 1.65 3.86 6.47 17.688 6.47 17.688s1.9655 4.6809-2.6193 6.5336l-0.0256 0.01c-4.3985 1.1911-9.8744-10.963-11.649-15.235"/><circle cx="25.332" cy="52.214" r="7.257"/><path d="m18.7 60.646c3.9547 2.4286 8.2777 4.1986 12.8 5.2409"/><path d="m41.214 48.084-4.3375 1.5056c-0.8845 0.3041-1.8485-0.1631-2.1578-1.0458l-0.79-2.2759c-0.3044-0.8845 0.1628-1.8487 1.0457-2.1578l8.5828-2.9794c0.8845-0.3041 1.8485 0.1631 2.1578 1.0458l0.79 2.2759"/><path d="m32.552 51.481c1.4253 0.0167 2.8467 0.1519 4.2495 0.4043 2.6408 0.4457 5.1862 1.339 7.5264 2.6413"/><path d="m46.557 50.987c1.4492 2.3905 3.0979 4.6542 4.9284 6.7669"/><path d="m31.326 48.122c-0.2415-1.0788 0.4373-2.149 1.5161-2.3905 0.3292-0.0737 0.6718-0.063 0.9957 0.0312"/><path d="m34.88 48.881c-0.6614 0.8846-1.9147 1.0656-2.7994 0.4042-0.0602-0.045-0.1179-0.0935-0.1727-0.145"/></g></svg>
