<svg xmlns="http://www.w3.org/2000/svg" id="a" viewBox="0 0 72 72"><g id="b"><path fill="#F4AA41" d="m44.6 39.6c1.3 0.5 2.7 0.3 3.7-0.5 0.8-0.6 1.3-1.5 1.5-2.5 0.9-0.5 1.6-1.3 1.9-2.4 0.3-1.2 0-2.4-0.7-3.4 1-1 1.5-2.3 1.3-3.7-0.2-1.1-0.8-2.1-1.6-2.7 1-1.2 1.3-2.8 0.7-4.3-0.5-1-1.3-1.7-2.4-2.1 0.1-1.3-0.4-2.6-1.5-3.3-1.3-0.8-2.9-0.7-4.1 0.3-0.5-1.3-1.6-2.2-3-2.4-1.3-0.1-2.5 0.4-3.3 1.4 0 0-3.2-3.5-7.1 0.1 0 0-5-2.1-6.5 2.9 0 0-4.2 1.1-2.2 5.9 0 0-2.9 3-0.8 6.5 0 0-2.1 4.2 1.8 5.7-0.1 1 0.2 1.9 0.7 2.7 0.9 1.1 2.3 1.7 3.7 1.5"/></g><g id="c"><path fill="#FCEA2B" d="m44.5 21.8c1.7 2.7 2.7 5.9 2.6 9.1 0 7.7-4.9 14-11 14s-11-6.3-11-14c0-2.7 0.6-5.4 1.9-7.8l3.2 1.3c1.9-0.9 3.9-1.2 6-1.1 1.9 0.2 3 0.8 4.8 0.4 1.3-0.3 2.5-0.9 3.5-1.9z"/></g><g id="d"><path fill="#92D3F5" d="m17 61v-4c0-5 5-9 10-9 6 5 12 5 18 0 5 0 10 4 10 9v4"/></g><g id="e"><path fill="none" stroke="#000" stroke-linecap="round" stroke-linejoin="round" stroke-width="2" d="m17 59.9v-3c0-5 5-9 10-9 6 5 12 5 18 0 5 0 10 4 10 9v3"/><path d="m42 29.9c0 1.1-0.9 2-2 2s-2-0.9-2-2 0.9-2 2-2 2 0.9 2 2"/><path d="m34 29.9c0 1.1-0.9 2-2 2s-2-0.9-2-2 0.9-2 2-2 2 0.9 2 2"/><path fill="none" stroke="#000" stroke-linecap="round" stroke-linejoin="round" stroke-width="2" d="m33 38.1c1.9 1 4.1 1 6 0"/><path fill="none" stroke="#000" stroke-linecap="round" stroke-linejoin="round" stroke-width="2" d="m28.8 41.5c-2.5-2.9-3.8-6.7-3.7-10.5 0.1-2.8 0.8-5.5 2.1-8 0.5 0.9 1.4 1.5 2.4 1.6 1.3 0 2.5-0.9 2.8-2.1 1.1 1.4 3 1.7 4.4 0.6 0.3-0.2 0.5-0.4 0.7-0.7 1.5 1.8 4.1 2.1 5.9 0.6 0.4-0.4 0.8-0.8 1.1-1.3 1.6 2.9 2.5 6.1 2.7 9.4 0 8-5.1 14-11.1 14-2.8-0.1-5.5-1.4-7.3-3.6z"/><path fill="none" stroke="#000" stroke-linejoin="round" stroke-width="2" d="m44.6 39.6c1.3 0.5 2.7 0.3 3.7-0.5 0.8-0.6 1.3-1.5 1.5-2.5 0.9-0.5 1.6-1.3 1.9-2.4 0.3-1.2 0-2.4-0.7-3.4 1-1 1.5-2.3 1.3-3.7-0.2-1.1-0.8-2.1-1.6-2.7 1-1.2 1.3-2.8 0.7-4.3-0.5-1-1.3-1.7-2.4-2.1 0.1-1.3-0.4-2.6-1.5-3.3-1.3-0.8-2.9-0.7-4.1 0.3-0.5-1.3-1.6-2.2-3-2.4-1.3-0.1-2.5 0.4-3.3 1.4 0 0-3.2-3.5-7.1 0.1 0 0-4.7-3.1-6.1 2.6 0 0-5.4 0.8-2.6 6.2 0 0-2.9 3-0.8 6.5 0 0-2.1 4.2 1.8 5.7-0.1 1 0.2 1.9 0.7 2.7 0.9 1.1 2.3 1.7 3.7 1.5"/></g></svg>