<?xml version="1.0" encoding="UTF-8"?>
<svg id="a" version="1.1" viewBox="0 0 72 72" xmlns="http://www.w3.org/2000/svg"><g id="b"><path d="m36 38.999h-6.5838c-4.0035 3.2895-7.9182 3.2895-11.833 0-3.2918 0-6.5836 2.6671-6.5836 5.9566v16.045h25v-22.001z" fill="#92D3F5"/><path d="M23,61v-2.5333C23,56,25.5018,54,28.0036,54c2.9751,2.4667,5.9502,2.4667,8.9929,0 C39.4982,54,42,56,42,58.4667V61" fill="#B1CC33"/><path d="M42.0003,61v-2.5333C42.0003,56,44.5021,54,47.0039,54c2.9751,2.4667,5.9502,2.4667,8.9929,0 c2.5018,0,5.0036,2,5.0036,4.4667V61" fill="#B1CC33"/></g><g id="c" fill="#A57939"><path d="m13.929 21.39c0.5334-7.7347 6.4011-7.8236 9.335-7.3791 0.2667 0.0889 1.0669 0 1.3336 0 5.3343-0.7112 8.0014 5.3343 8.0014 8.0014 0 0.978 0.2255 3.3655-1.1081 4.6991 0 0-3.2483-3.7211-3.4261-5.8549 0 0-10.135 3.8229-10.846 0.5334 0 0-0.7112 2.6671-1.3336 3.3784 0 0-0.3288 2.0448-0.3288 2.6671 2e-4 2e-4 -1.8937-2.667-1.627-6.0454z"/><path d="m30.136 42.272c0.4694 3.3631 4.487-0.8706 4.487-0.8706 0.5491 1.5737 4.4254 3.8674 4.4254 3.8674 1.0324-0.9557 0.5259-2.8525 0.3721-3.5136-0.5106-2.7127-3.0794-4.5325-5.8079-4.1144-0.3436 0.0276-0.6888 0.0276-1.0324 0-2.2709-0.3369-6.03-0.1483-7.12 4.6433-0.5317 2.3382 0.624 2.9844 0.624 2.9844s3.764-5.0588 4.0518-2.9965z"/><path d="m57.989 45.268s1.1557-0.6462 0.624-2.9844c-1.09-4.7916-4.8491-4.9802-7.12-4.6433-0.3436 0.0276-0.6888 0.0276-1.0324 0-2.7285-0.4181-5.2973 1.4017-5.8079 4.1144-0.1538 0.6611-0.6603 2.5579 0.3721 3.5136 0 0 3.8763-2.2937 4.4254-3.8674 0 0 4.0176 4.2337 4.487 0.8706 0.2878-2.0623 4.0518 2.9965 4.0518 2.9965z"/></g><g id="d" fill="#FCEA2B"><path d="m28.045 20.857s-10.135 3.8229-10.846 0.5334c0 0-0.7112 2.6672-1.3336 3.3784 0 0-0.3185 1.9835-0.3273 2.635 0.4585 5.148 3.8411 9.1996 7.9427 9.1996 4.2864 0 7.782-4.426 7.9809-9.9028-0.1045-0.1204-3.2414-3.7454-3.4163-5.8436z"/><path d="m34.622 41.401s-4.0176 4.2337-4.487 0.8706c-0.2576-1.8462-3.2933 2.0046-3.9283 2.834-0.0739 0.3356-0.1232 0.5668-0.1232 0.5888-0.1437 3.7311 2.7579 6.8753 6.4885 7.031 3.7306-0.1557 6.6323-3.2999 6.4886-7.031 0-0.0303-0.0594-0.2263-0.15-0.5089-0.6787-0.4149-3.7996-2.383-4.2886-3.7845z"/><path d="m45.162 45.186c-0.0906 0.2826-0.15 0.4786-0.15 0.5089-0.1437 3.7311 2.758 6.8753 6.4886 7.031 3.7306-0.1557 6.6322-3.2999 6.4885-7.031 0-0.022-0.0493-0.2532-0.1232-0.5888-0.635-0.8294-3.6707-4.6802-3.9283-2.834-0.4694 3.3631-4.487-0.8706-4.487-0.8706-0.489 1.4015-3.6099 3.3696-4.2886 3.7845z"/></g><g id="e"><path d="m31.5 25.569v0.6437c0 5.7012-3.5862 10.391-8 10.391s-8-4.6897-8-10.391v-0.6437" fill="none" stroke="#000" stroke-miterlimit="10" stroke-width="2"/><path d="m13.929 21.39c0.5334-7.7347 6.4011-7.8236 9.335-7.3791 0.2667 0.0889 1.0669 0 1.3336 0 5.3343-0.7112 8.0014 5.3343 8.0014 8.0014 0 0.978 0.2255 3.3655-1.1081 4.6991 0 0-3.2483-3.7211-3.4261-5.8549 0 0-10.135 3.8229-10.846 0.5334 0 0-0.7112 2.6671-1.3336 3.3784 0 0-0.3288 2.0448-0.3288 2.6671 2e-4 2e-4 -1.8937-2.667-1.627-6.0454z" fill="none" stroke="#000" stroke-linecap="round" stroke-linejoin="round" stroke-width="2"/><path d="m22.25 26.5c0 0.7143-0.5357 1.25-1.25 1.25s-1.25-0.5357-1.25-1.25 0.5357-1.25 1.25-1.25 1.25 0.5357 1.25 1.25"/><path d="m27.25 26.5c0 0.7143-0.5357 1.25-1.25 1.25s-1.25-0.5357-1.25-1.25 0.5357-1.25 1.25-1.25 1.25 0.5357 1.25 1.25"/><path d="m21.633 31.533c1.1558 0.6223 2.5782 0.6223 3.734 0" fill="none" stroke="#000" stroke-linecap="round" stroke-linejoin="round" stroke-width="2"/><path d="m50.164 49.186c0.7749 0.6425 1.8974 0.6425 2.6723 0" fill="none" stroke="#000" stroke-linecap="round" stroke-linejoin="round" stroke-width="1.6"/><path d="M23,60.2v-1.7333 C23,56,25.5018,54,28.0036,54c2.9751,2.4667,5.9502,2.4667,8.9929,0C39.4982,54,42,56,42,58.4667V60.2" fill="none" stroke="#000" stroke-linecap="round" stroke-linejoin="round" stroke-width="1.6"/><path d="m42 60.2v-1.7333c0-2.4667 2.5018-4.4667 5.0036-4.4667 2.9751 2.4667 5.9502 2.4667 8.9929 0 2.5018 0 5.0036 2 5.0036 4.4667v1.7333" fill="none" stroke="#000" stroke-linecap="round" stroke-linejoin="round" stroke-width="1.6"/><path d="m35.298 45.702c0.0333 0.4958-0.3417 0.9247-0.8377 0.958-0.4959 0.0333-0.9249-0.3417-0.9582-0.8375s0.3417-0.9247 0.8377-0.958c0.0201-0.0014 0.0402-2e-3 0.0604-2e-3 0.4796-0.0155 0.8813 0.3601 0.8978 0.8395z"/><path d="m31.164 49.186c0.7749 0.6425 1.8974 0.6425 2.6723 0" fill="none" stroke="#000" stroke-linecap="round" stroke-linejoin="round" stroke-width="1.6"/><path d="m30.6 44.862c0.0201 0 0.0403 7e-4 0.0604 2e-3 0.4959 0.0333 0.871 0.4622 0.8377 0.958s-0.4623 0.8707-0.9582 0.8375c-0.4959-0.0333-0.871-0.4622-0.8377-0.958 0.0165-0.4794 0.4182-0.855 0.8978-0.8395z"/><path d="m54.298 45.702c0.0333 0.4958-0.3417 0.9247-0.8377 0.958-0.4959 0.0333-0.9249-0.3417-0.9582-0.8375s0.3417-0.9247 0.8377-0.958c0.0201-0.0014 0.0402-2e-3 0.0604-2e-3 0.4795-0.0155 0.8812 0.3601 0.8978 0.8395z"/><path d="m49.6 44.862c0.0201 0 0.0403 7e-4 0.0604 2e-3 0.4959 0.0333 0.871 0.4622 0.8377 0.958s-0.4623 0.8707-0.9582 0.8375c-0.4959-0.0333-0.871-0.4622-0.8377-0.958 0.0164-0.4794 0.4181-0.855 0.8978-0.8395z"/><path d="m39.049 45.268c0.0078 0.141 0.0117 0.283 0.0118 0.4261 0.1437 3.7311-2.758 6.8753-6.4886 7.031-3.7306-0.1557-6.6322-3.2999-6.4885-7.031 0-0.0952 0.0017-0.1899 0.0052-0.2841" fill="none" stroke="#000" stroke-miterlimit="10" stroke-width="1.6"/><path d="m30.136 42.272c0.4694 3.3631 4.487-0.8706 4.487-0.8706 0.5491 1.5737 4.4254 3.8674 4.4254 3.8674 1.0324-0.9557 0.5259-2.8525 0.3721-3.5136-0.5106-2.7127-3.0794-4.5325-5.8079-4.1144-0.3436 0.0276-0.6888 0.0276-1.0324 0-2.2709-0.3369-6.03-0.1483-7.12 4.6433-0.5317 2.3382 0.624 2.9844 0.624 2.9844s3.764-5.0588 4.0518-2.9965z" fill="none" stroke="#000" stroke-linecap="round" stroke-linejoin="round" stroke-width="1.6"/><path d="m57.983 45.41c0.0035 0.0942 0.0052 0.1889 0.0052 0.2841 0.1437 3.7311-2.7579 6.8753-6.4885 7.031-3.7306-0.1557-6.6323-3.2999-6.4886-7.031 1e-4 -0.1431 4e-3 -0.2851 0.0118-0.4261" fill="none" stroke="#000" stroke-miterlimit="10" stroke-width="1.6"/><path d="m57.989 45.268s1.1557-0.6462 0.624-2.9844c-1.09-4.7916-4.8491-4.9802-7.12-4.6433-0.3436 0.0276-0.6888 0.0276-1.0324 0-2.7285-0.4181-5.2973 1.4017-5.8079 4.1144-0.1538 0.6611-0.6603 2.5579 0.3721 3.5136 0 0 3.8763-2.2937 4.4254-3.8674 0 0 4.0176 4.2337 4.487 0.8706 0.2878-2.0623 4.0518 2.9965 4.0518 2.9965z" fill="none" stroke="#000" stroke-linecap="round" stroke-linejoin="round" stroke-width="1.6"/><path d="m11 60v-15.045c0-3.2895 3.2918-5.9566 6.5836-5.9566 1.4914 1.2532 2.9827 2.029 4.4789 2.3273" fill="none" stroke="#000" stroke-linecap="round" stroke-linejoin="round" stroke-miterlimit="10" stroke-width="2"/></g></svg>
