<?xml version="1.0" encoding="UTF-8"?>
<svg id="a" version="1.1" viewBox="0 0 72 72" xmlns="http://www.w3.org/2000/svg"><g id="b"><polyline points="13.886 52.097 10.83 52.097 10.83 16.914 19.822 16.914 36.328 16.914 52.039 16.914 60.766 16.914 60.766 52.097 56.681 52.097" fill="#5C9E31"/><path d="m53.88 58.999s2.7-14.138-9.3-14.138c-3.1919 2.1192-5.9264 3.5837-9 3.5775h0.125c-3.0736 0.0062-5.8082-1.4583-9-3.5775-12 0-10 14.138-10 14.138" fill="#6A462F"/><polygon points="44.58 45.364 47.15 54.404 41.53 54.164 41.62 58.954 35.74 57.354 35.83 57.324 35.74 57.194" fill="#3F3F3F"/><path d="m44.48 45.214 0.1 0.15-8.84 11.83-8.85-11.83 0.16-0.24c3.08 2.05 5.75 3.46 8.72 3.49h0.03 0.09c2.93-0.03 5.56-1.4 8.59-3.4z" fill="#D0CFCE"/><polygon points="35.74 57.194 35.64 57.324 35.74 57.354 29.85 58.954 29.94 54.164 24.32 54.404 26.89 45.364" fill="#3F3F3F"/></g><g id="c"><path d="m50.5 21.314c-0.59-2.45-2.64-5.38-7.52-8.6-5.48-3.95-13.73-2.8-16 0.09-0.43 0.6-0.65 1.31-0.64 2.03l-0.46 0.01c-6.5 6.89-2.09 15.71-1.36 13.91l0.09-0.09c2.85-2.78 3.56-9.58 3.56-9.58l0.1-0.1c2.05 2.16 6.58 4.15 17.81 3.15v0.0099c0.38 0.95 0.68 1.96 0.89 3.03s0.32 2.2 0.32 3.36v0.21l0.43 0.01c0 1e-4 3.89-2.8899 2.78-7.4399zm-23.671-4.5744c0.1947 0.4575 0.4438 0.9625 0.806 1.475-0.3622-0.5125-0.6113-1.0175-0.806-1.475z" fill="#6a462f"/></g><g id="d"><path d="m47.169 28.537c0-2.2835-0.432-4.4408-1.1994-6.3513-7.4505 0.6891-15.839-0.043-18.13-3.704-0.1611 3.4348-1.0463 6.4725-3.3477 10.055 0 7.8276 5.0765 14.173 11.339 14.173s11.339-6.3456 11.339-14.173z" fill="#c19a65"/></g><g id="e"><path d="m27.57 15.91c0.24 0.61 0.54 1.31 1.09 2h-2.38c-0.26-0.48-0.44-0.9301-0.59-1.3-0.33 0.43-0.61 0.87-0.85 1.3h-13.01v32.29h2.06c0.55 0 1 0.44 1 1 0 0.55-0.45 1-1 1h-3.06c-0.55 0-1-0.45-1-1v-34.29c0-0.55 0.45-1 1-1h16.74z"/><path d="m61.77 16.91v34.29c0 0.55-0.45 1-1 1h-2.59c-0.55 0-1-0.45-1-1 0-0.56 0.45-1 1-1h1.59v-32.29h-12.22c-0.55-0.67-1.21-1.33-1.98-2h15.2c0.55 0 1 0.4499 1 1z"/><path d="m41.953 27.171c0 1.1045-0.8965 2-2 2s-2-0.8955-2-2c0-1.1035 0.8965-2 2-2s2 0.8965 2 2"/><path d="m33.953 27.171c0 1.1045-0.8965 2-2 2s-2-0.8955-2-2c0-1.1035 0.8965-2 2-2s2 0.8965 2 2"/><path d="m35.953 37.173c-1.1518 0-2.3037-0.2861-3.4472-0.8579-0.4942-0.2471-0.6944-0.8476-0.4473-1.3418 0.2466-0.4936 0.8462-0.6943 1.3418-0.4473 1.7178 0.8594 3.3877 0.8594 5.1055 0 0.4946-0.247 1.0947-0.0463 1.3418 0.4473 0.247 0.4942 0.0468 1.0947-0.4473 1.3418-1.1436 0.5718-2.2954 0.8579-3.4473 0.8579z"/><path d="m48.15 26.3c0 0.56-0.45 1-1 1h-1.96v1.24c0 2.11-1.71 3.82-3.81 3.82h-2.01c-1.55 0-2.88-0.93-3.48-2.25-0.6 1.32-1.94 2.25-3.48 2.25h-2.01c-2.11 0-3.82-1.71-3.82-3.82v-1.24h-0.69c-0.45 0-0.83-0.3-0.95-0.71 0.23-0.38 0.44-0.8 0.62-1.23 0.1-0.04 0.21-0.06 0.33-0.06h1.69c0.05 0 0.1 0 0.15 0.01 0.49 0.08 0.85 0.49 0.85 0.99v2.24c0 1 0.82 1.82 1.82 1.82h2.01c1 0 1.81-0.82 1.81-1.82v-1.1c0-0.55 0.45-1 1-1h1.33c0.56 0 1 0.45 1 1v1.1c0 1 0.82 1.82 1.82 1.82h2.01c1 0 1.81-0.82 1.81-1.82v-2.24c0-0.55 0.45-1 1-1h2.96c0.55 0 1 0.4501 1 1z"/><path d="m24.61 28.534v0.13c0.06 7.76 5.11 14.04 11.34 14.04 6.2 0 11.25-6.24 11.34-13.96v-0.21c0-1.16-0.11-2.29-0.32-3.36s-0.51-2.08-0.89-3.03" fill="none" stroke="#000" stroke-linecap="round" stroke-linejoin="round" stroke-miterlimit="10" stroke-width="2"/><path d="m48.32 29.56c-0.18 0.13-0.39 0.19-0.6 0.19-0.3 0-0.61-0.13-0.8-0.4-0.33-0.44-0.24-1.07 0.2-1.4 0.12-0.09 2.58-1.98 2.58-5.01 0-0.44-0.05-0.91-0.17-1.39-0.28-1.2-0.95-2.42-1.98-3.64-0.55-0.67-1.21-1.33-1.98-2-0.9-0.79-1.95-1.58-3.14-2.36-5.04-3.63-12.69-2.64-14.66-0.13-0.28 0.39-0.44 0.89-0.43 1.4 0 0.31 0.06 0.64 0.17 0.92 0.02 0.06 0.04 0.11 0.06 0.17 0.24 0.61 0.54 1.31 1.09 2 0.1 0.1299 0.21 0.25 0.33 0.3799 2.53 2.67 8.26 3.63 17 2.85 0.42-0.04 0.84-0.08 1.28-0.12l0.23-0.02c0.53-0.05 1.03 0.35 1.09 0.9 0.05 0.55-0.35 1.04-0.9 1.09l-0.23 0.02c-0.44 0.05-0.88 0.09-1.3 0.12-8.23 0.74-13.89-0.01-17.23-2.3-0.52-0.34-0.98-0.73-1.39-1.16-0.14-0.15-0.27-0.3-0.39-0.44-0.37-0.45-0.65-0.9-0.87-1.3199-0.26-0.48-0.44-0.9301-0.59-1.3-0.01-0.05-0.03-0.09-0.05-0.14-0.07-0.1801-0.12-0.37-0.16-0.56-0.1-0.36-0.14-0.72-0.14-1.08 0-0.29 0.02-0.58 0.08-0.86 0.11-0.62 0.36-1.22 0.75-1.75 2.56-3.26 11.35-4.67 17.4-0.32 1.99 1.31 3.62 2.65 4.88 4.01 0.62 0.66 1.15 1.33 1.59 2 0.7 1.05 1.18 2.11 1.43 3.17 1.25 5.13-2.97 8.3399-3.15 8.48z"/><path d="m28.27 18.09c-0.55-0.07-1.04 0.34-1.09 0.89 0 0.01-0.01 0.09-0.03 0.25-0.11 0.84-0.55 3.73-1.59 6.13-0.18 0.43-0.39 0.85-0.62 1.23-0.21 0.36-0.44 0.7-0.69 1-0.33-0.65-0.74-1.84-0.84-3.41-0.11-1.67 0.1-3.94 1.4301-6.27 0.24-0.4301 0.52-0.8701 0.85-1.3 0.18-0.23 0.37-0.47 0.58-0.7 0.11-0.13 0.22-0.25 0.34-0.38 0.38-0.4 0.36-1.03-0.04-1.41-0.32-0.3-0.78-0.35-1.15-0.15-0.1 0.04-0.19 0.11-0.27 0.19-0.54 0.5699-1.01 1.16-1.42 1.75-0.46 0.66-0.84 1.33-1.14 2-1.9 4.0699-1.2401 8.08-0.31 10.18 0.55 1.26 1.21 1.9 1.97 1.9h0.02c0.44 0 0.83-0.24 1.07-0.64 0.47-0.46 0.8799-1.01 1.24-1.6201 0.46-0.75 0.83-1.58 1.15-2.42 0.61-1.63 0.98-3.3 1.2-4.48 0.16-0.93 0.23-1.56 0.24-1.64 0.0499-0.5499-0.3501-1.0399-0.9001-1.0999z"/><path d="m16.89 58.024s-2-13 10-13c0.05 0.04 0.11 0.07 0.16 0.1 3.08 2.05 5.75 3.46 8.72 3.49h0.03 0.09c2.93-0.03 5.56-1.4 8.59-3.4 0.1-0.06 0.19-0.12 0.29-0.19 3.99 0 6.43 1.44 7.92 3.36l0.78 1.26" fill="none" stroke="#000" stroke-linecap="round" stroke-linejoin="round" stroke-miterlimit="10" stroke-width="2"/><polygon points="35.74 57.194 35.83 57.324 35.74 57.354 29.85 58.954 29.94 54.164 24.32 54.404 26.89 45.364" fill="none" stroke="#000" stroke-linecap="round" stroke-linejoin="round" stroke-miterlimit="10" stroke-width="2"/><polygon points="35.74 57.194 35.64 57.324 35.74 57.354 41.62 58.954 41.53 54.164 47.15 54.404 44.58 45.364" fill="none" stroke="#000" stroke-linecap="round" stroke-linejoin="round" stroke-miterlimit="10" stroke-width="2"/><path d="m53.044 58.752c-0.5096 0-0.9023-0.4491-0.8345-0.9541l3.3718-26.503-1.4138 26.672c-0.0297 0.4421-0.6804 0.7855-1.1235 0.7855z"/><path d="m53.044 59.503c-0.4599 0-0.8964-0.1982-1.1982-0.5439-0.3027-0.3467-0.4404-0.8057-0.3789-1.2608l3.3701-26.498c0.0508-0.3994 0.3975-0.6895 0.8115-0.6523 0.4014 0.0361 0.7032 0.3837 0.6817 0.7871l-1.4131 26.672c-0.0664 0.9678-1.1494 1.4961-1.8731 1.4961zm0.71-7.9004-0.7998 6.2911 0.0898 0.1093c0.1153 0 0.3028-0.0859 0.379-0.1572l0.331-6.2432z"/></g></svg>
