<svg xmlns="http://www.w3.org/2000/svg" id="a" viewBox="0 0 72 72"><g id="b"><polyline fill="#6A462F" points="9.369 49.906 10.043 60.958 19.888 61.229 21.082 50.176"/><polyline fill="#6A462F" stroke-linecap="round" stroke-linejoin="round" stroke-miterlimit="10" stroke-width="2" points="10.369 52.98 11.043 60.958 18.882 60.958 19.556 54.724"/><path fill="#A57939" stroke-linecap="round" stroke-linejoin="round" stroke-miterlimit="10" stroke-width="2" d="m50.369 52.663c5.0161 0.1894 5 8.2957 5 8.2957h-24.996l-8.5938-11.053h-11.41c1.0244-3.1706 5.4677-8.176 6.5615-11.846 3.613-12.121-7.7259-27.102-7.7259-27.102 12.411-9.9373 32.444-6.9584 32.444-6.9584s-5.2797 8.2972-6.2792 22.575c-1.0161 14.516-0.0139 18.888 3.2856 22.929 3.2996 4.0407 6.6983 2.9692 11.714 3.1586z"/><line x1="22.278" x2="26.036" y1="9.14" y2="25.313" fill="#A57939" stroke-linecap="round" stroke-linejoin="round" stroke-miterlimit="10" stroke-width="2"/></g><g id="c" fill="none" stroke="#000" stroke-linecap="round" stroke-linejoin="round" stroke-miterlimit="10" stroke-width="2"><polyline points="10.369 52.98 11.043 60.958 18.882 60.958 19.556 54.724"/><path d="m50.369 52.663c5.0161 0.1894 5 8.2957 5 8.2957h-24.996l-8.5938-11.053h-11.41c1.0244-3.1706 5.4677-8.176 6.5615-11.846 3.613-12.121-7.7259-27.102-7.7259-27.102 12.411-9.9373 32.444-6.9584 32.444-6.9584s-5.2797 8.2972-6.2792 22.575c-1.0161 14.516-0.0139 18.888 3.2856 22.929 3.2996 4.0407 6.6983 2.9692 11.714 3.1586z"/><line x1="22.278" x2="26.036" y1="9.14" y2="25.313"/></g></svg>