<?xml version="1.0" encoding="UTF-8"?>
<svg id="a" version="1.1" viewBox="0 0 72 72" xmlns="http://www.w3.org/2000/svg"><g id="b"><path d="m17.283 58.824s-2-13.5 10-13.5c3.1918 2.1279 5.9264 3.5984 9 3.5921h-0.125c3.0736 0.0063 4.7081-2.1642 7.9-4.2921 15.57-1e-4 11.5 14.2 11.5 14.2" fill="#92D3F5"/><polygon points="35.537 55.498 32.298 51.566 29.059 47.634 35.537 47.634 42.015 47.634 38.776 51.566" fill="#fff"/><path d="m26.53 44.92s-5.9003 4.0266-2.161 7.4669h4.5729l-0.8335 3.7419 7.8919 1.9525 0.2903-2.5055-8.3606-10.364" fill="#61B2E4"/><polygon points="67.087 43.422 60.137 59.772 35.147 59.772 42.097 43.422" fill="#D0CFCE"/><polygon points="67.303 43.422 60.353 59.772 60.133 59.772 51.363 59.772 58.313 43.422 67.083 43.422" fill="#9B9B9A"/></g><g id="c"><path d="m47.676 18.072c0.9033 3.0115 1.8166 6.9707-0.4869 8.4539 0 0-1.298-5.192-2.9696-6.1236"/><path d="m28.062 19.972c5.5098 2.6849 12.775 2.1946 16.858-0.0697 0.8067-0.4474 1.5281-1.0031 2.1418-1.6716 2.9159-3.1771 0.2257-6.3452 0.2257-6.3452l-2.6305 2.0302c-8.8352-8.8352-18.672-3.5868-18.009 1.433 0 0-6.945 3.6233-2.1353 11.464l3.5499-6.8402z"/></g><g id="d"><path d="m44.919 19.902c-4.0828 2.2643-11.348 2.7546-16.858 0.0697l-3.5499 6.8402c-0.0712-0.116-0.1313-0.2279-0.1974-0.342-0.015 0.2981-0.0363 0.5942-0.0363 0.897 0 7.8277 5.0765 14.173 11.339 14.173s11.339-6.3456 11.339-14.173c0-2.8104-0.6627-5.4227-1.7914-7.626-0.0841 0.0503-0.1582 0.1132-0.2445 0.1611z" fill="#6a462f"/></g><g id="e"><path d="m16.917 58.919c-0.4844 1e-3 -0.9102-0.3525-0.9863-0.8466-0.0411-0.2696-0.9727-6.6328 2.581-10.775 1.9229-2.2412 4.751-3.377 8.4072-3.377 0.1973 0 0.3907 0.0586 0.5547 0.168 3.1631 2.1084 5.6758 3.418 8.4053 3.4238h0.04c0.5518 0 0.9991 0.4473 1 0.999 1e-3 0.5518-0.4462 1-0.998 1.001h-2e-3 -0.0029c-0.0107-1e-3 -0.0254-1e-3 -0.0381 0h-0.084c-0.0146 0-0.0302 0-0.0449-1e-3 -3.0986-0.0419-5.8164-1.4023-9.1269-3.5878-2.8965 0.0566-5.1104 0.9541-6.586 2.6689-2.956 3.4365-2.1377 9.1201-2.1289 9.1777 0.083 0.545-0.292 1.0547-0.8379 1.1387-0.0507 0.0078-0.1015 0.0107-0.1523 0.0107z"/><path d="m33.996 55.283c-0.294 0-0.584-0.1279-0.7813-0.375l-7.2646-9.0713c-0.3457-0.4306-0.2764-1.0605 0.1553-1.4053 0.4326-0.3486 1.0615-0.2753 1.4052 0.1553l7.2647 9.0713c0.3457 0.4307 0.2764 1.0606-0.1553 1.4053-0.1846 0.1484-0.4053 0.2197-0.624 0.2197z"/><path d="m33.007 57.356c-0.0742 0-0.1494-0.0078-0.2255-0.0254l-4.8975-1.127c-0.2686-0.0615-0.499-0.2314-0.6387-0.4697-0.1387-0.2373-0.1738-0.5225-0.0967-0.7861l0.458-1.5606h-3.2373c-0.2509 0-0.4921-0.0947-0.6767-0.2637-1.4043-1.2919-1.6201-2.6455-1.5537-3.5546 0.2129-2.9268 3.459-5.2227 3.8281-5.4746 0.4551-0.3116 1.0762-0.1934 1.3877 0.2617 0.3115 0.455 0.1953 1.0771-0.2598 1.3896-0.7832 0.5381-2.8427 2.3008-2.9619 3.9717-0.042 0.5918 0.1709 1.1406 0.6504 1.6699h4.1592c0.3154 0 0.6113 0.1485 0.8008 0.4004 0.1884 0.2529 0.247 0.5791 0.1591 0.8809l-0.5351 1.8242 3.8633 0.8887c0.5381 0.124 0.874 0.6601 0.75 1.1992-0.1065 0.4619-0.5186 0.7754-0.9737 0.7754z"/><polygon points="35.147 59.772 60.137 59.772 67.087 43.422 42.097 43.422" fill="none" stroke="#000" stroke-linecap="round" stroke-linejoin="round" stroke-miterlimit="10" stroke-width="2"/><line x1="24.177" x2="35.147" y1="59.772" y2="59.772" fill="none" stroke="#000" stroke-linecap="round" stroke-linejoin="round" stroke-miterlimit="10" stroke-width="2"/><path d="m41.973 27.043c0 1.1045-0.8965 2-2 2s-2-0.8955-2-2c0-1.1035 0.8965-2 2-2s2 0.8965 2 2"/><path d="m33.973 27.043c0 1.1045-0.8965 2-2 2s-2-0.8955-2-2c0-1.1035 0.8965-2 2-2s2 0.8965 2 2"/><path d="m35.973 37.045c-1.1518 0-2.3037-0.2861-3.4472-0.8579-0.4942-0.2471-0.6944-0.8477-0.4473-1.3418 0.2466-0.4937 0.8462-0.6943 1.3418-0.4473 1.7178 0.8594 3.3877 0.8594 5.1055 0 0.4946-0.247 1.0947-0.0464 1.3418 0.4473 0.2471 0.4941 0.0469 1.0947-0.4473 1.3418-1.1435 0.5718-2.2954 0.8579-3.4473 0.8579z"/><path d="m35.851 43.577c-6.8037 0-12.339-6.8066-12.339-15.173 0-0.667 0.0352-1.3345 0.1045-1.9839 0.0576-0.5488 0.5586-0.9477 1.0996-0.8882 0.5498 0.0581 0.9473 0.5508 0.8887 1.1001-0.0615 0.5796-0.0928 1.1758-0.0928 1.772 0 7.2642 4.6377 13.173 10.339 13.173 5.7002 0 10.338-5.9091 10.338-13.173 0-0.5874-0.0303-1.1807-0.0918-1.7637-0.0567-0.5493 0.3428-1.041 0.8916-1.0981 0.5527-0.061 1.041 0.3423 1.0986 0.8911 0.0674 0.6519 0.1016 1.3145 0.1016 1.9707 0 8.3667-5.5352 15.173-12.338 15.173z"/><path d="m41.471 32.668h-2.0078c-1.5479 0-2.8828-0.9258-3.4815-2.253-0.5976 1.3272-1.9335 2.253-3.4804 2.253h-2.0078c-2.1045 0-3.8164-1.7119-3.8164-3.8164v-1.2378h-0.6924c-0.5528 0-1-0.4478-1-1 0-0.5523 0.4472-1 1-1h1.6924c0.5527 0 1 0.4477 1 1v2.2378c0 1.0019 0.8144 1.8164 1.8164 1.8164h2.0078c1.001 0 1.8154-0.8145 1.8154-1.8164v-1.104c0-0.5523 0.4473-1 1-1h1.3301c0.5527 0 1 0.4477 1 1v1.104c0 1.0019 0.8144 1.8164 1.8164 1.8164h2.0078c1.001 0 1.8154-0.8145 1.8154-1.8164v-2.2378c0-0.5523 0.4473-1 1-1h1.1573c0.5527 0 1 0.4477 1 1 0 0.5522-0.4473 1-1 1h-0.1573v1.2378c0 2.1045-1.7119 3.8164-3.8154 3.8164z"/><path d="m47.188 27.526c-0.124 0-0.249-0.0235-0.3682-0.0703-0.2998-0.1187-0.5234-0.3745-0.6015-0.687-0.5752-2.2959-1.6895-5.0489-2.4864-5.4927-0.4824-0.2691-0.6553-0.878-0.3857-1.3604 0.2685-0.4824 0.8769-0.6567 1.3603-0.3867 1.2647 0.7051 2.2422 2.9419 2.8369 4.6831 0.3282-1.6045-0.2646-3.9809-0.8261-5.8525-0.1582-0.5288 0.1416-1.0865 0.6709-1.2451 0.5302-0.1582 1.0869 0.142 1.2451 0.6709 0.6767 2.2568 2.2627 7.5429-0.9043 9.5815-0.1631 0.1055-0.3516 0.1592-0.541 0.1592z"/><path d="m24.512 27.812c-0.3467 0-0.6699-0.1802-0.8525-0.4771-1.7031-2.7768-2.2315-5.3974-1.5694-7.789 0.7041-2.5474 2.5743-4.0908 3.5264-4.7349 0.0234-2.1943 1.5703-4.3305 4.1006-5.5786 3.6406-1.7964 9.4297-1.8003 15.011 3.3648l1.9483-1.5035c0.4248-0.3266 1.0293-0.2612 1.374 0.1446 1.127 1.3281 2.5264 4.6406-0.251 7.6684-0.6748 0.7334-1.4804 1.3623-2.3945 1.8697-3.8799 2.1523-10.966 2.9814-16.892 0.4965l-3.1133 5.9995c-0.166 0.3204-0.4912 0.5259-0.8515 0.5391-0.0127 5e-4 -0.0245 5e-4 -0.0362 5e-4zm10.015-17.665c-1.4903 0-2.8282 0.3379-3.9248 0.8785-2.0049 0.9897-3.168 2.6347-2.9629 4.1919 0.0556 0.4165-0.1563 0.8232-0.5283 1.0175-0.0206 0.0108-2.4004 1.3008-3.0987 3.8643-0.3769 1.3818-0.2099 2.9072 0.4951 4.5508l2.667-5.1392c0.25-0.4804 0.835-0.6763 1.3262-0.4385 5.2793 2.5743 12.249 1.9981 15.934-0.0454 0.7275-0.4028 1.3633-0.8989 1.8916-1.4736 1.5156-1.6523 1.1514-3.2715 0.7061-4.2075l-1.7637 1.3608c-0.3985 0.3062-0.961 0.271-1.3184-0.0845-3.2812-3.2817-6.6211-4.4751-9.4228-4.4751z"/></g></svg>
