<?xml version="1.0" encoding="UTF-8"?>
<svg id="a" version="1.1" viewBox="0 0 72 72" xmlns="http://www.w3.org/2000/svg"><g id="b"><path d="m36 38.999h-6.5838c-4.0035 3.2895-7.9182 3.2895-11.833 0-3.2918 0-6.5836 2.6671-6.5836 5.9566v16.045h25v-22.001z" fill="#92D3F5"/><path d="M26.5004,61v-2.5333C26.5004,56,29.0022,54,31.504,54c2.9751,2.4667,5.9502,2.4667,8.9929,0 c2.5017,0,5.0035,2,5.0035,4.4667V61" fill="#B1CC33"/></g><g id="c" fill="#A57939"><path d="m36 40.704c3.864 1.3703 5.567 5.8271 5.6943 9.6307 1.4225 0.308 2.8826-0.3898 3.8057-1.461-0.9845-0.8337-1.7269-1.9167-2.1494-3.1356 0.7369-5.7252-2.03-9.5793-7.3506-8.4862-5.3206-1.0931-8.0875 2.761-7.3506 8.4862-0.4225 1.2189-1.1649 2.3019-2.1494 3.1356 0.923 1.0712 2.3833 1.769 3.8057 1.461 0.1273-3.8034 1.8302-8.2605 5.6943-9.6307z"/><path d="m37.12 33.688c0.0208-2.8854-2.0185-3.9404-2.952-6.3409-1.0669-2.845 0.1778-4.3563-0.889-8.0903-0.978-3.6451-4.8897-5.9566-9.1572-5.9566-3.6451 0-5.3343 2.0448-5.3343 2.0448-2.7561 0.2667-4.8898 2.5782-4.9787 5.3343-0.2667 4.8009-0.7112 4.8009-2.3115 8.5349-1.1558 2.756-1.5344 6.4376 0.4216 8.6602l1.7012 2.0374 0.3439 0.1638c1.081-0.6766 2.3489-1.0768 3.619-1.0768 4.0035 3.2895 7.9181 3.2895 11.833 0h6.5839s1.1205-2.6547 1.1204-5.3108z"/></g><g id="d" fill="#FCEA2B"><path d="m41.504 48.517c-0.0138-0.0543-0.0171-0.1106-0.0324-0.1646-0.5499-3.1755-2.2374-6.5396-5.471-7.6487-3.2336 1.1091-4.9211 4.4731-5.471 7.6487-0.0153 0.054-0.0186 0.1102-0.0324 0.1646 0.8397 2.7543 2.9947 4.3117 5.5034 4.3118 2.5087-1e-4 4.6638-1.5575 5.5034-4.3118z"/><path d="m30.893 26.814-0.0889-0.6223c0-1.3336-8.0015-4.712-10.669-7.3791-2.6671 2.6671-4.0007 4.623-4.0007 8.0014 0 5.3343 3.3784 9.335 7.3791 9.335s7.3791-4.0007 7.3791-9.335z"/></g><g id="e"><path d="m11 60v-15.045c0-3.2895 3.2918-5.9566 6.5836-5.9566 2.6822 2.2539 5.3643 2.9634 8.0751 2.1288" fill="none" stroke="#000" stroke-linecap="round" stroke-linejoin="round" stroke-miterlimit="10" stroke-width="2"/><path d="M26.5003,60.2v-1.7333 C26.5003,56,29.0021,54,31.5039,54c2.9751,2.4667,5.9502,2.4667,8.9929,0c2.5017,0,5.0035,2,5.0035,4.4667V60.2" fill="none" stroke="#000" stroke-linecap="round" stroke-linejoin="round" stroke-width="1.6"/><path d="m38.598 45.702c0.0333 0.4958-0.3417 0.9247-0.8377 0.958-0.4959 0.0333-0.9249-0.3417-0.9582-0.8375s0.3417-0.9247 0.8377-0.958c0.0201-0.0014 0.0402-2e-3 0.0604-2e-3 0.4796-0.0155 0.8813 0.3601 0.8978 0.8395z"/><path d="m34.664 49.186c0.7749 0.6425 1.8974 0.6425 2.6723 0" fill="none" stroke="#000" stroke-linecap="round" stroke-linejoin="round" stroke-width="1.6"/><path d="m41.544 48.407c-0.8139 2.8267-3.0002 4.4219-5.5441 4.4219h6e-4c-2.5439 0-4.7302-1.5952-5.5441-4.4219" fill="none" stroke="#000" stroke-miterlimit="10" stroke-width="1.6"/><path d="m34.3 44.862c0.0201 0 0.0403 7e-4 0.0604 2e-3 0.4959 0.0333 0.871 0.4622 0.8377 0.958s-0.4623 0.8707-0.9582 0.8375c-0.4959-0.0333-0.871-0.4622-0.8377-0.958 0.0165-0.4794 0.4182-0.855 0.8978-0.8395z"/><path d="m36 40.704c3.864 1.3703 5.567 5.8271 5.6943 9.6307 1.4225 0.308 2.8826-0.3898 3.8057-1.461-0.9845-0.8337-1.7269-1.9167-2.1494-3.1356 0.7369-5.7252-2.03-9.5793-7.3506-8.4862-5.3206-1.0931-8.0875 2.761-7.3506 8.4862-0.4225 1.2189-1.1649 2.3019-2.1494 3.1356 0.923 1.0712 2.3833 1.769 3.8057 1.461 0.1273-3.8034 1.8302-8.2605 5.6943-9.6307z" fill="none" stroke="#000" stroke-linecap="round" stroke-linejoin="round" stroke-width="1.6"/><path d="m12.297 36.747c-1.5719-2.1674-1.8612-5.0005-0.7991-7.5333 1.6003-3.734 2.0448-3.734 2.3115-8.5349 0.0889-2.7561 2.2226-5.0676 4.9787-5.3343 0 0 1.6892-2.0448 5.3343-2.0448 4.2674 0 8.1792 2.3115 9.1572 5.9566 1.0668 3.734-0.1779 5.2453 0.889 8.0903 0.8191 2.1061 2.0231 4.0582 1.9908 6.287" fill="none" stroke="#000" stroke-linecap="round" stroke-linejoin="round" stroke-width="2"/><path d="m30.879 26.814-0.0889-0.6223c0-1.3336-8.0015-4.712-10.669-7.3791-2.6671 2.6671-4.0007 4.623-4.0007 8.0014 0 5.3343 3.3784 9.335 7.3791 9.335s7.3791-4.0007 7.3791-9.335z" fill="none" stroke="#000" stroke-linejoin="round" stroke-miterlimit="10" stroke-width="2"/><path d="m24.75 26.5c0-0.7143 0.5357-1.25 1.25-1.25s1.25 0.5357 1.25 1.25-0.5357 1.25-1.25 1.25-1.25-0.5357-1.25-1.25"/><path d="m19.75 26.5c0-0.7143 0.5357-1.25 1.25-1.25s1.25 0.5357 1.25 1.25-0.5357 1.25-1.25 1.25-1.25-0.5357-1.25-1.25"/><path d="m21.633 31.533c1.1558 0.6223 2.5782 0.6223 3.734 0" fill="none" stroke="#000" stroke-linecap="round" stroke-linejoin="round" stroke-width="2"/></g></svg>
