<svg xmlns="http://www.w3.org/2000/svg" id="a" version="1.1" viewBox="0 0 72 72"><g id="b"><path fill="#B1CC33" d="m54.84 58.975s2-14.02-10-14.02c-3.1918 2.1279-5.9264 3.5984-9 3.5921h0.125c-3.0736 0.0063-5.8081-1.4642-9-3.5921-12 0-10 14.02-10 14.02"/><rect width="4.288" height="14.027" x="22.032" y="44.995" fill="#61B2E4"/><rect width="4.288" height="14.027" x="44.501" y="44.995" fill="#61B2E4"/><rect width="27.491" height="1.734" x="22.032" y="57.336" fill="#61B2E4"/><polyline fill="#5C9E31" points="26.903 45.054 32.706 55.241 35.903 49.946"/><polyline fill="#5C9E31" points="44.903 45.054 39.099 55.241 35.903 49.946"/><polyline fill="#F4AA41" points="27.062 16.375 27.062 8.173 35.848 9.591 44.633 8.173 44.633 16.375"/><rect width="17.446" height="2.658" x="27.062" y="12.958" fill="#E27022"/><rect width="5.48" height="4.245" x="57.561" y="40.758" fill="#9B9B9A"/><polygon fill="#A57939" points="58.301 45.044 58.301 54.368 58.301 57.954 58.301 58.975 62.301 58.975 62.301 57.954 62.301 54.368 62.301 45.044"/></g><g id="c"><path d="m9.7129 48.318c6.3524-0.3944 4.5577-5.6759 4.5577-5.6759s-5.5445-0.6118-4.5577 5.6759z"/><path d="m56.213 38.137c2.1052-2.4526-0.9647-5.5202-2.188-4.7455 2.1054-4.1094 0.2125-7.648-1.8387-10.842-2.4906-3.8777-5.9991-6.5095-5.9991-6.5095h-19.804s-12 8.7517-7.3379 17.851c-1.2233-0.7747-2.3565-0.3104-3.1313 0.9129-0.7747 1.2233-0.7801 2.5579 0.4433 3.3326-1.4183 0-2.5681 1.1497-2.5681 2.568s1.1498 2.5681 2.5681 2.5681 2.568-1.1498 2.568-2.5681c0.6816 1.2776 1.9884 1.2985 3.2872 0.6582 1.9517-0.9622 1.0791-3.5474 1.0791-3.5474 3.6019 6.1061 9.1339 3.8279 9.1625 3.816-4.5758-1.8243-7.8898-7.181-7.8898-13.506 0-2.9437 0.718-5.6779 1.947-7.9438l-0.0278 0.0891 0.6342 2.0569h17.335l0.6342-2.0569-0.0278-0.0891c1.229 2.2659 1.947 5.0001 1.947 7.9438 0 6.3246-3.3141 11.682-7.8899 13.506 0.0289 0.012 5.5607 2.2898 9.1625-3.816 0 0-0.8726 2.5852 1.0791 3.5474 1.2988 0.6403 1.9056 1.6194 2.5872 0.3418 0 1.4183 1.1497 2.5681 2.568 2.5681 3.5286 0 3.2681-2.1498 3.2681-3.5681 0.4921-1.1482 0.4472-2.5546-1.5682-2.568z"/></g><g id="d"><path fill="#a57939" d="m35.903 22.663h8.8477s-0.0171-3.205 0.2418-2.78c1.4504 2.3813 2.3116 5.3538 2.3116 8.5778 0 7.8276-5.0765 14.173-11.339 14.173s-11.339-6.3456-11.339-14.173c0-3.0831 0.7875-5.9363 2.1249-8.2623 0.1858-0.3231 0.366 2.4645 0.366 2.4645s8.7852 0 8.7852 0z"/></g><g id="e"><path d="m41.903 27.1c0 1.1045-0.8965 2-2 2s-2-0.8955-2-2c0-1.1035 0.8965-2 2-2s2 0.8965 2 2"/><path d="m33.903 27.1c0 1.1045-0.8965 2-2 2s-2-0.8955-2-2c0-1.1035 0.8965-2 2-2s2 0.8965 2 2"/><path d="m35.903 37.102c-1.1518 0-2.3037-0.2861-3.4473-0.8579-0.4941-0.247-0.6943-0.8476-0.4472-1.3418 0.2466-0.4936 0.8462-0.6943 1.3418-0.4472 1.7177 0.8593 3.3877 0.8593 5.1054 0 0.4947-0.2471 1.0948-0.0464 1.3418 0.4472 0.2471 0.4942 0.0469 1.0948-0.4472 1.3418-1.1436 0.5718-2.2954 0.8579-3.4473 0.8579z"/><polyline fill="none" stroke="#000" stroke-linecap="round" stroke-linejoin="round" stroke-miterlimit="10" stroke-width="2" points="26.903 45.054 32.706 55.241 35.903 49.946"/><polyline fill="none" stroke="#000" stroke-linecap="round" stroke-linejoin="round" stroke-miterlimit="10" stroke-width="2" points="44.903 45.054 39.099 55.241 35.903 49.946"/><path fill="none" stroke="#000" stroke-linecap="round" stroke-linejoin="round" stroke-miterlimit="10" stroke-width="2" d="m54.84 57.954s2-13-10-13c-3.1918 2.1279-5.9264 3.5984-9 3.5921h0.125c-3.0736 0.0063-5.8081-1.4642-9-3.5921-12 0-10 13-10 13"/><line x1="22.032" x2="22.032" y1="45.906" y2="58.11" fill="none" stroke="#000" stroke-linecap="round" stroke-linejoin="round" stroke-miterlimit="10" stroke-width="2"/><line x1="49.523" x2="49.523" y1="45.906" y2="58.11" fill="none" stroke="#000" stroke-linecap="round" stroke-linejoin="round" stroke-miterlimit="10" stroke-width="2"/><polyline fill="none" stroke="#000" stroke-linecap="round" stroke-linejoin="round" stroke-miterlimit="10" stroke-width="2" points="27.171 45.209 27.171 58.11 44.619 58.096 44.619 45.189"/><path fill="none" stroke="#000" stroke-linecap="round" stroke-linejoin="round" stroke-miterlimit="10" stroke-width="2" d="m16.357 38.472c-1.2234-0.7748-1.218-2.1093-0.4433-3.3326 0.7748-1.2234 1.908-1.6877 3.1313-0.9129"/><path fill="none" stroke="#000" stroke-linecap="round" stroke-linejoin="round" stroke-miterlimit="10" stroke-width="2" d="m18.925 41.04c0 1.4183-1.1497 2.5681-2.568 2.5681s-2.5681-1.1498-2.5681-2.5681 1.1498-2.568 2.5681-2.568"/><path fill="none" stroke="#000" stroke-linecap="round" stroke-linejoin="round" stroke-miterlimit="10" stroke-width="2" d="m9.7129 48.652c6.3524-0.3944 4.5577-5.6759 4.5577-5.6759s-5.5445-0.6118-4.5577 5.6759z"/><path fill="none" stroke="#000" stroke-linecap="round" stroke-linejoin="round" stroke-miterlimit="10" stroke-width="2" d="m23.291 38.15s0.8726 2.5851-1.0791 3.5473c-1.2988 0.6403-2.6056 0.6195-3.2872-0.6581"/><polyline fill="none" stroke="#000" stroke-linecap="round" stroke-linejoin="round" stroke-miterlimit="10" stroke-width="2" points="27.062 16.375 27.062 8.173 35.848 9.591 44.633 8.173 44.633 16.375"/><line x1="27.062" x2="44.633" y1="12.87" y2="12.87" fill="none" stroke="#000" stroke-linecap="round" stroke-linejoin="round" stroke-miterlimit="10" stroke-width="2"/><path fill="none" stroke="#000" stroke-linecap="round" stroke-linejoin="round" stroke-miterlimit="10" stroke-width="2" d="m26.383 16.375s-12 8.7517-7.3379 17.851"/><path fill="none" stroke="#000" stroke-linecap="round" stroke-linejoin="round" stroke-miterlimit="10" stroke-width="2" d="m52.645 41.04c0 0.8066 0.3718 1.5264 0.9535 1.9972"/><path fill="none" stroke="#000" stroke-linecap="round" stroke-linejoin="round" stroke-miterlimit="10" stroke-width="2" d="m48.278 38.15s-0.8726 2.5851 1.0791 3.5473c1.2988 0.6403 2.6056 0.6195 3.2872-0.6581"/><path fill="none" stroke="#000" stroke-linecap="round" stroke-linejoin="round" stroke-miterlimit="10" stroke-width="2" d="m45.187 16.375s2.9602 2.159 5.3689 5.4472"/><path fill="none" stroke="#000" stroke-linecap="round" stroke-linejoin="round" stroke-miterlimit="10" stroke-width="2" d="m53.13 25.1s-2.3767 15.416 7.0845 15.658v-15.658"/><path fill="none" stroke="#000" stroke-linecap="round" stroke-linejoin="round" stroke-miterlimit="10" stroke-width="2" d="m67.298 25.1s2.3766 15.416-7.0845 15.658v-15.658"/><rect width="5.48" height="4.245" x="57.561" y="40.758" fill="none" stroke="#000" stroke-linecap="round" stroke-linejoin="round" stroke-miterlimit="10" stroke-width="2"/><polyline fill="none" stroke="#000" stroke-linecap="round" stroke-linejoin="round" stroke-miterlimit="10" stroke-width="2" points="62.301 57.954 62.301 45.044 58.301 45.044 58.301 57.954"/><line x1="19.39" x2="51.958" y1="16.375" y2="16.375" fill="none" stroke="#000" stroke-linecap="round" stroke-linejoin="round" stroke-miterlimit="10" stroke-width="2"/><path fill="none" stroke="#000" stroke-linecap="round" stroke-linejoin="round" stroke-miterlimit="10" stroke-width="2" d="m26.511 20.517c-1.229 2.2659-1.947 5-1.947 7.9438 0 7.8277 5.0765 14.173 11.339 14.173s11.339-6.3455 11.339-14.173c0-2.7693-0.6354-5.3532-1.734-7.5362l-0.2361-0.8856-0.5208 2.624h-17.633l-0.6342-2.0571"/></g></svg>