<svg xmlns="http://www.w3.org/2000/svg" id="a" version="1.1" viewBox="0 0 72 72"><g id="b"><path fill="#fff" d="m16.408 58.796s-2-13.5 10-13.5c3.1919 2.1279 5.9264 3.5984 9 3.5921h-0.125c3.0736 0.0063 5.5081-2.1642 8.7-4.2921 15.57-1e-4 10.7 14.2 10.7 14.2"/><path fill="#D0CFCE" d="m45.293 44.123c-3.17 2.1133-3.075 3.7-7.1375 4.2886 13.062 0.4114 13.062 5.4114 13.825 9.4114h5.1129s0.2-13.7-11.8-13.7z"/><path fill="#fff" d="m58.427 43.168h-1.1793v6.4783l3.8661 8.8386s0.3081 1.3804-0.7928 1.3804c-0.5364 0-9.8482 0.0117-10.385 0.0117-1.1009 0-0.7928-1.3804-0.7928-1.3804l3.8661-8.8286v-6.5h-1.0854"/><line x1="53.01" x2="57.248" y1="43.168" y2="43.168" fill="none"/><path fill="#B1CC33" d="m57.048 49.647 3.8661 8.8386s0.3081 1.3804-0.7928 1.3804c-0.5364 0-9.8482 0.0117-10.385 0.0117-1.1009 0-0.7928-1.3804-0.7928-1.3804l3.8661-8.8286"/><path fill="#92D3F5" d="m22.803 25.172s12.703-7.0231 26.25 0.8022l-3.8831 6.0255s-6.7095 0.9322-9.2418-1.6c-2.5912 2.5912-8.4903 1.6-8.4903 1.6l-4.6345-6.8277z"/></g><g id="c"><path fill="#E27022" d="m52.152 25.225c-0.7507-5.994-2.7826-10.651-5.1433-12.728-2.9246-2.5738-6.459-0.514-6.459-0.514s-5.3405-6.4837-12.904-1.6624c-7.5638 4.8214-8.3703 14.904-8.3703 14.904s-0.7261 8.073 0.3152 16.517c0.2071 1.6792 0.6382 3.3293 1.3223 4.8728 1.3883-0.8123 3.1788-1.3191 5.4958-1.3191 3.1658 2.1105 5.8825 3.5701 8.9255 3.5878 3.0493-0.0179 5.4755-2.1718 8.6495-4.2878 2.7432 0 4.8411 0.447 6.4537 1.1732 0.6005-1.0406 1.0916-2.1504 1.4464-3.3234 0.3227-1.0668 0.4429-2.1835 0.4549-3.298 0.0347-3.2445 0.1754-11.036-0.1863-13.923zm-6.9827 6.7753s-6.7095 0.9322-9.2418-1.6c-2.5912 2.5912-8.4904 1.6-8.4904 1.6l-4.6345-6.8277s12.703-7.0231 26.25 0.8022l-3.883 6.0255z"/></g><g id="d" fill="#FCEA2B"><path d="m47.425 25.11-8.4968-6.6935c-2.4692 1.8462-4.9036 3.1522-7.0764 4.0812 4.339-0.5405 9.8359-0.2295 15.573 2.6123z"/><path d="m45.169 32s-6.7095 0.9322-9.2418-1.6c-2.5912 2.5912-8.4904 1.6-8.4904 1.6l-2.4694-3.638c0.1837 7.6266 5.1753 13.743 11.321 13.743 6.1889 0 11.211-6.2008 11.328-13.902l-2.4472 3.7974z"/></g><g id="e"><line x1="33.026" x2="33.026" y1="54.892" y2="56.661" fill="none" stroke="#000" stroke-linecap="round" stroke-linejoin="round" stroke-miterlimit="10" stroke-width="2"/><path d="m41.892 27.072c0 1.1045-0.8965 2-2 2s-2-0.8955-2-2c0-1.1035 0.8965-2 2-2s2 0.8965 2 2"/><path d="m33.892 27.072c0 1.1045-0.8965 2-2 2s-2-0.8955-2-2c0-1.1035 0.8965-2 2-2s2 0.8965 2 2"/><path d="m35.892 37.075c-1.1518 0-2.3037-0.2861-3.4472-0.8579-0.4942-0.2471-0.6944-0.8477-0.4473-1.3418 0.2466-0.4937 0.8462-0.6944 1.3418-0.4473 1.7178 0.8594 3.3877 0.8594 5.1055 0 0.4946-0.2471 1.0947-0.0464 1.3418 0.4473 0.247 0.4941 0.0468 1.0947-0.4473 1.3418-1.1436 0.5718-2.2954 0.8579-3.4473 0.8579z"/><path fill="none" stroke="#000" stroke-linecap="round" stroke-linejoin="round" stroke-miterlimit="10" stroke-width="2" d="m47.173 29.863c-0.5734 7.1564-5.4055 12.744-11.282 12.744-6.2621 0-11.339-6.3456-11.339-14.173v-1.2531"/><path fill="none" stroke="#000" stroke-linecap="round" stroke-linejoin="round" stroke-miterlimit="10" stroke-width="2" d="m16.832 57.925s-2-13 10-13c3.1919 2.128 5.9264 3.5985 9 3.5922h-0.125c3.0736 0.0063 5.8081-1.4642 9-3.5922 1.8775 0 3.4123 0.3183 4.6656 0.8551"/><path fill="none" stroke="#000" stroke-linecap="round" stroke-linejoin="round" stroke-miterlimit="10" stroke-width="2" d="m58.31 43.071h-1.1793v6.4784l3.8661 8.8385s0.3081 1.3805-0.7928 1.3805c-0.5364 0-9.8482 0.0116-10.385 0.0116-1.1009 0-0.7928-1.3804-0.7928-1.3804l3.8661-8.8286v-6.5h-1.0854"/><line x1="52.893" x2="57.131" y1="43.071" y2="43.071" fill="none" stroke="#000" stroke-linecap="round" stroke-linejoin="round" stroke-miterlimit="10" stroke-width="2"/><path fill="none" stroke="#000" stroke-linecap="round" stroke-linejoin="round" stroke-miterlimit="10" stroke-width="2" d="m32.28 22.385c4.2811-1.6427 6.6482-3.9688 6.6482-3.9688s3.8316 3.9334 7.8297 6.0854"/><path fill="none" stroke="#000" stroke-linecap="round" stroke-linejoin="round" stroke-miterlimit="10" stroke-width="2" d="m20.714 42.725c-1.3842-8.8622-0.3955-18.051-0.3955-18.051s0.7556-9.7405 7.8405-14.398 12.088 1.6059 12.088 1.6059 3.3103-1.9898 6.05 0.4966c2.2111 2.0066 4.1143 6.5052 4.8177 12.296 0.4325 3.5614 0.5575 9.7039 0.2505 14.849"/><path fill="none" stroke="#000" stroke-linecap="round" stroke-linejoin="round" stroke-miterlimit="10" stroke-width="2" d="m26.338 44.925s4.831 7.1009 11.06 7.7101v5.2899"/><line x1="33.026" x2="33.026" y1="56.134" y2="57.904" fill="none" stroke="#000" stroke-linecap="round" stroke-linejoin="round" stroke-miterlimit="10" stroke-width="2"/><path fill="none" stroke="#000" stroke-linecap="round" stroke-linejoin="round" stroke-miterlimit="10" stroke-width="2" d="m23.122 25.072s12.703-7.0231 26.25 0.8022l-3.8831 6.0255s-6.7095 0.9322-9.2418-1.6c-2.5912 2.5912-8.4903 1.6-8.4903 1.6l-4.6345-6.8277z"/></g></svg>