<svg xmlns="http://www.w3.org/2000/svg" id="a" version="1.1" viewBox="0 0 72 72"><g id="b"><path fill="#fff" d="m54.778 58.592s2-13.797-10-13.797c-3.1919 2.1192-5.9264 3.5837-9 3.5775h0.125c-3.0736 0.0062-5.8082-1.4583-9-3.5775-12 0-10 13.797-10 13.797"/><path fill="#61B2E4" d="m26.902 44.795c-12 0-10 13.967-10 13.967h15.893s-4.4214-3.2647-5.8934-13.967"/><path fill="#61B2E4" d="m44.778 44.795c12 0 10 13.967 10 13.967h-15.748s5.4224-7.4433 5.748-13.967"/><path fill="#92D3F5" d="m33.533 48.284s-1.2063 6.0214 2.3073 6.0214c3.5135 0 2.3072-6.0214 2.3072-6.0214"/><rect width="4" height="10.43" x="58.387" y="37.781" fill="#9B9B9A" transform="matrix(.7071 -.7071 .7071 .7071 -12.716 55.293)"/><ellipse cx="53.662" cy="36.461" fill="#D0CFCE" rx="4" ry="4"/><path fill="#92D3F5" d="m34.99 54.488-2.4152 3.6378c-3.6298-1.7539-5.6719-12.962-5.6719-12.962l-5.1046 6.9347 2.974 1.842-0.9985 3.1134 8.8689 1.0721"/><polygon fill="#92D3F5" points="35.679 54.096 37.469 56.706 38.976 58.75 32.665 58.75 34.172 56.706"/><path fill="#92D3F5" d="m36.69 54.488 2.4151 3.6378c3.6298-1.7539 5.672-12.962 5.672-12.962l5.1045 6.9347-2.974 1.842 0.9985 3.1134-8.8689 1.0721"/></g><g id="c"><path fill="#fcea2b" d="m41.774 15.715-0.6254-0.6243c-0.2869-0.736-2.9576-6.849-11.302-3.2994-2.1059 0.8958-3.98 2.2516-5.6163 3.8515 0 0-2.8374 2.382-3.9208 4.0349 0 0-1.6869-0.2843-3.267-1.7639 0 0-0.435 6.6434 7.5762 7.5773 0 0 2.8584 0.0223 6.1913-2.8191l1.4053-0.6223c3.0391-0.1977 5.3514-1.1826 5.3532-2.3707l1.2075-0.5347 0.927-0.2524s4.6008 8.0972 7.3029 6.0499l0.0027-5e-4c0.2297-5.3041-1.0354-9.058-5.2346-9.2263z"/></g><g id="d"><path fill="#debb90" d="m39.703 18.892-0.927 0.2524-1.2075 0.5347c-0.0018 1.1881-2.3141 2.173-5.3532 2.3707l-1.4053 0.6223c-3.2748 2.7919-6.0849 2.8188-6.1821 2.819-0.2001 1.0543-0.3173 2.1485-0.3173 3.2793 0 7.8277 5.0764 14.173 11.339 14.173s11.339-6.3456 11.339-14.173c0-1.2493-0.1422-2.4543-0.385-3.6083-2.7317 1.0607-6.8998-6.2701-6.8998-6.2701z"/></g><g id="e"><path d="m41.962 26.942c0 1.1045-0.8965 2-2 2s-2-0.8955-2-2c0-1.1035 0.8965-2 2-2s2 0.8965 2 2"/><path d="m33.962 26.942c0 1.1045-0.8965 2-2 2s-2-0.8955-2-2c0-1.1035 0.8965-2 2-2s2 0.8965 2 2"/><path d="m35.962 36.944c-1.1519 0-2.3037-0.2861-3.4473-0.8579-0.4941-0.2471-0.6943-0.8476-0.4473-1.3418 0.2466-0.4936 0.8462-0.6943 1.3418-0.4473 1.7178 0.8594 3.3877 0.8594 5.1055 0 0.4946-0.247 1.0947-0.0463 1.3418 0.4473 0.2471 0.4942 0.0469 1.0947-0.4473 1.3418-1.1435 0.5718-2.2954 0.8579-3.4472 0.8579z"/><path fill="none" stroke="#000" stroke-miterlimit="10" stroke-width="2" d="m46.98 24.96c0.21 1.07 0.32 2.2 0.32 3.34 0 7.83-5.08 14.18-11.34 14.18s-11.34-6.35-11.34-14.18c0-0.97 0.08-1.91 0.23-2.82"/><path fill="none" stroke="#000" stroke-miterlimit="10" stroke-width="2" d="m40.95 15.58c0.08 0.04 0.16 0.09 0.23 0.14 0.14 0.09 0.28 0.18 0.41 0.28"/><rect width="4" height="10.43" x="58.387" y="37.781" fill="none" stroke="#000" stroke-linecap="round" stroke-linejoin="round" stroke-miterlimit="10" stroke-width="2" transform="matrix(.7071 -.7071 .7071 .7071 -12.716 55.293)"/><ellipse cx="53.662" cy="36.461" fill="none" stroke="#000" stroke-linecap="round" stroke-linejoin="round" stroke-miterlimit="10" stroke-width="2" rx="4" ry="4"/><line x1="64.292" x2="67.138" y1="46.868" y2="49.714" fill="none" stroke="#000" stroke-linecap="round" stroke-linejoin="round" stroke-miterlimit="10" stroke-width="2"/><line x1="58.893" x2="58.893" y1="44.664" y2="57.864" fill="none" stroke="#000" stroke-linecap="round" stroke-linejoin="round" stroke-miterlimit="10" stroke-width="2"/><path fill="none" stroke="#000" stroke-linecap="round" stroke-linejoin="round" stroke-miterlimit="10" stroke-width="2" d="m41.774 15.715c4.1992 0.1683 5.4643 3.9222 5.2346 9.2263l-0.0027 5e-4c-2.7021 2.0473-7.3029-6.0499-7.3029-6.0499l2.071-3.1769z"/><path fill="none" stroke="#000" stroke-linecap="round" stroke-linejoin="round" stroke-miterlimit="10" stroke-width="2" d="m33.533 48.098s-1.2063 6.0215 2.3073 6.0215c3.5135 0 2.3072-6.0215 2.3072-6.0215"/><path fill="none" stroke="#000" stroke-linecap="round" stroke-linejoin="round" stroke-miterlimit="10" stroke-width="2" d="m34.99 54.119-2.4152 3.6377c-3.6298-1.7538-5.6719-12.962-5.6719-12.962l-5.1046 6.9346 2.974 1.842-0.9985 3.1134 8.8689 1.0721"/><path fill="none" stroke="#000" stroke-linecap="round" stroke-linejoin="round" stroke-miterlimit="10" stroke-width="2" d="m36.69 54.119 2.4151 3.6377c3.6298-1.7538 5.672-12.962 5.672-12.962l5.1045 6.9346-2.974 1.842 0.9985 3.1134-8.8689 1.0721"/><path fill="none" stroke="#000" stroke-linecap="round" stroke-linejoin="round" stroke-miterlimit="10" stroke-width="2" d="m39.093 19.004 2.0825-3.8399s-2.4602-7.1453-11.329-3.3725c-2.1059 0.8958-3.98 2.2516-5.6163 3.8515 0 0-2.8374 2.382-3.9208 4.0348 0 0-1.6869-0.2843-3.267-1.7638 0 0-0.435 6.6434 7.5762 7.5773 0 0 2.8584 0.0223 6.1913-2.8191"/><path fill="none" stroke="#000" stroke-linecap="round" stroke-linejoin="round" stroke-miterlimit="10" stroke-width="2" d="m39.108 18.892c-0.0034-0.463-3.2917 6.1827-13.917 2.8403"/><path fill="none" stroke="#000" stroke-linecap="round" stroke-linejoin="round" stroke-miterlimit="10" stroke-width="2" d="m16.902 57.795s-2-13 10-13c3.1918 2.1279 5.9264 3.5984 9 3.5921h-0.125c3.0736 0.0063 5.8081-1.4642 9-3.5921 12 0 10 13 10 13"/></g></svg>