<svg xmlns="http://www.w3.org/2000/svg" id="a" version="1.1" viewBox="0 0 72 72"><g id="b"><path fill="#9B9B9A" d="m17.298 58.854s-2-13.8 10-13.8c3.1918 2.1279 5.9264 3.5984 9 3.5921h-0.125c3.0736 0.0063 5.3081-2.6642 8.5-4.7921 13.314 0 10.9 15 10.9 15"/><polyline fill="#D0CFCE" points="36.613 54.207 39.028 58.752 45.4 44.136 51.857 53.92 40.7 58.052"/><path fill="#fff" d="m38.507 57.743c-0.5976 1.0349-4.8914 1.0349-5.489 0l-1.842-2.4101-3.3864-8.7387 7.9729 2.7 7.573-2.7-3.2865 8.7387-1.542 2.4101z"/><path fill="#D0CFCE" d="m65.729 58.486h-15.485v-19.802h15.271c0.1181 0 0.2138 0.0957 0.2138 0.2138v19.589z"/><path fill="#fff" d="m62.618 60.962h-14.608v-18.952h10.753c2.1288 0 3.8546 1.7257 3.8546 3.8545v15.097z"/><path fill="#3F3F3F" d="m33.455 48.535s-1.2063 6.0215 2.3073 6.0215 2.3073-6.0215 2.3073-6.0215"/><path fill="#3F3F3F" d="m35.016 54.88c0.3249-0.5627 1.137-0.5627 1.4619 0l1.1645 2.0171 1.8956 1.9831h-7.5821l1.8955-1.9831 1.1646-2.0171z"/><polyline fill="#D0CFCE" points="34.912 54.556 32.497 57.801 26.825 44.886 22.868 53.37 32.325 57.801"/></g><g id="c"><path fill="#6a462f" d="m27.374 18.787s10.136 7.9589 10.511 2.439c0 0 5.3353 3.8061 9.0176 3.8064 6.4331 5e-4 -0.131-12.479-11.14-15.119-3.1441-0.7528-9.8929-1.7551-9.8929 4.4592 0 0-7.6176 4.2314-1.3233 12.55l0.0911-0.3328c0.3131-3.0795 2.7364-7.802 2.7364-7.802z"/></g><g id="d"><path fill="#c19a65" d="m27.33 19.092c-1.7336 2.4893-2.7833 5.7423-2.7833 9.3018 0 7.8277 5.0765 14.173 11.339 14.173 6.2622 0 11.339-6.3455 11.339-14.173 0-1.1581-0.1111-2.2838-0.3208-3.3613-2.9944-0.3097-6.0012-1.6571-9.0176-3.8064-0.1582 3.7561-4.7799 1.5781-10.556-2.1341z"/></g><g id="e"><path fill="none" stroke="#000" stroke-linecap="round" stroke-linejoin="round" stroke-miterlimit="10" stroke-width="2" d="m24.624 26.728c-0.0512 0.5466-0.0775 1.1026-0.0775 1.6664 0 7.8277 5.0765 14.173 11.339 14.173 6.2622 0 11.339-6.3455 11.339-14.173 0-1.1581-0.1111-2.2838-0.3208-3.3613"/><path d="m41.885 27.033c0 1.1045-0.8965 2-2 2s-2-0.8955-2-2c0-1.1035 0.8965-2 2-2s2 0.8965 2 2"/><path d="m33.885 27.033c0 1.1045-0.8965 2-2 2s-2-0.8955-2-2c0-1.1035 0.8965-2 2-2s2 0.8965 2 2"/><path d="m35.885 37.036c-1.1518 0-2.3037-0.2861-3.4472-0.8579-0.4942-0.2471-0.6944-0.8477-0.4473-1.3418 0.2466-0.4936 0.8462-0.6943 1.3418-0.4473 1.7178 0.8594 3.3877 0.8594 5.1055 0 0.4946-0.247 1.0947-0.0463 1.3418 0.4473 0.247 0.4941 0.0468 1.0947-0.4473 1.3418-1.1436 0.5718-2.2954 0.8579-3.4473 0.8579z"/><polygon fill="none" stroke="#000" stroke-linecap="round" stroke-linejoin="round" stroke-miterlimit="10" stroke-width="2" points="62.618 60.962 48.01 60.962 48.01 42.326 59.836 42.326 59.836 44.438 62.618 44.438"/><polyline fill="none" stroke="#000" stroke-linecap="round" stroke-linejoin="round" stroke-miterlimit="10" stroke-width="2" points="51.214 38.863 66.04 38.863 66.04 57.499"/><line x1="59.836" x2="62.618" y1="42.326" y2="44.438" fill="none" stroke="#000" stroke-linecap="round" stroke-linejoin="round" stroke-miterlimit="10" stroke-width="2"/><line x1="50.955" x2="59.388" y1="48.535" y2="48.535" fill="none" stroke="#000" stroke-linecap="round" stroke-linejoin="round" stroke-miterlimit="10" stroke-width="2"/><line x1="50.955" x2="59.388" y1="52.631" y2="52.631" fill="none" stroke="#000" stroke-linecap="round" stroke-linejoin="round" stroke-miterlimit="10" stroke-width="2"/><line x1="50.955" x2="59.388" y1="56.216" y2="56.216" fill="none" stroke="#000" stroke-linecap="round" stroke-linejoin="round" stroke-miterlimit="10" stroke-width="2"/><path fill="none" stroke="#000" stroke-linecap="round" stroke-linejoin="round" stroke-miterlimit="10" stroke-width="2" d="m33.455 48.535s-1.2063 6.0215 2.3073 6.0215 2.3073-6.0215 2.3073-6.0215"/><line x1="44.7" x2="38.96" y1="55.629" y2="57.808" fill="none" stroke="#000" stroke-linecap="round" stroke-linejoin="round" stroke-miterlimit="10" stroke-width="2"/><path fill="none" stroke="#000" stroke-linecap="round" stroke-linejoin="round" stroke-miterlimit="10" stroke-width="2" d="m27.374 18.787s10.136 7.9589 10.511 2.439c0 0 5.3353 3.8061 9.0176 3.8064 6.4331 5e-4 -0.131-12.479-11.14-15.119-3.1441-0.7528-9.8929-1.7551-9.8929 4.4592 0 0-7.6176 4.2314-1.3233 12.55l0.0911-0.3328c0.3131-3.0795 2.7364-7.802 2.7364-7.802z"/><path fill="none" stroke="#000" stroke-linecap="round" stroke-linejoin="round" stroke-miterlimit="10" stroke-width="2" d="m16.825 57.886s-2-13 10-13c3.1919 2.1279 5.9264 3.5984 9 3.5921h-0.125c3.0736 0.0063 5.8081-1.4642 9-3.5921"/><polyline fill="none" stroke="#000" stroke-linecap="round" stroke-linejoin="round" stroke-miterlimit="10" stroke-width="2" points="34.912 54.556 32.497 57.801 26.825 44.886 22.868 53.37 32.325 57.801"/><polyline fill="none" stroke="#000" stroke-linecap="round" stroke-linejoin="round" stroke-miterlimit="10" stroke-width="2" points="44.7 44.886 39.028 57.801 36.613 54.556"/></g></svg>