<?xml version="1.0" encoding="UTF-8"?>
<svg id="a" version="1.1" viewBox="0 0 72 72" xmlns="http://www.w3.org/2000/svg"><g id="b"><path d="m16.725 58.881s-2-13.5 10-13.5c3.1919 2.1279 5.9264 3.5984 9 3.5922h-0.125c3.0736 0.0062 5.7081-2.5643 8.9-4.6922 10.068-0.5859 11.802 7.479 11.449 10.887-0.1964 1.8934-1.1178 3.683-1.049 3.7128" fill="#A57939"/><polygon points="39.701 52.704 35.811 58.574 31.981 52.704" fill="#3F3F3F"/><path d="m51.8 21.878c-1.2424-1.0275-3.1754-1.2844-5.0366-1.156-1.9375 0.1336-3.8314 0.7472-5.5122 1.7728-1.6872 1.0295-3.5154 1.5017-5.2726 1.5234-1.7569-0.0217-3.585-0.4939-5.2722-1.5234-1.6809-1.0256-3.5747-1.6392-5.5122-1.7728-1.8615-0.1284-3.7943 0.1285-5.0366 1.156 0 0-4.4856 3.4441 0.6199 7.4121 10.134 4.2267 20.268 4.2267 30.402 1e-4 5.1056-3.9681 0.62-7.4122 0.62-7.4122z" fill="#D22F27"/><path d="m35.761 7.2c0.0691 0 0.1399 0.0052 0.2092 6e-3 0.0694-8e-4 0.1402-6e-3 0.2093-6e-3h-0.4185z" fill="#EA5A47"/><path d="m35.97 7.206c-5.4277 0.062-11.719 2.5726-11.803 12.543l-0.2803 0.8992c0.5991-0.0556 1.2175-0.0608 1.8293-0.0208 1.8726 0.1224 3.7029 0.6843 5.3274 1.6236 1.6307 0.9427 3.3975 1.3752 5.0955 1.3951 1.6982-0.0199 3.4651-0.4524 5.0957-1.3951 1.6245-0.9393 3.4548-1.5012 5.3274-1.6236 0.5063-0.0331 1.0171-0.0342 1.5183-0.0035l-0.3064-0.8749c-0.0845-9.97-6.3757-12.481-11.804-12.543z" fill="#EA5A47"/><path d="m63.661 38.592 1.43 1.72c-2.29 1.78-6.58 7.24-6.58 7.24l-3.03-3.65s5.93-3.25 8.18-5.31z" fill="#9B9B9A"/><rect transform="matrix(.7694 -.6387 .6387 .7694 -17.135 46.318)" x="53.763" y="44.521" width="3.6501" height="4.7436" fill="#9B9B9A"/><path d="m52.671 46.232 3.03 3.65s-6.98 5.92-6.65 9.01h-5.21c-0.97-6.13 8.83-12.66 8.83-12.66z" fill="#3F3F3F"/><path d="m31.67 17.882v-4.6824l4.1171-5.8178 4.4789 5.8962v4.604c-2.535 1.8666-6.3765 1.1811-8.596 0z" fill="#FCEA2B"/></g><g id="c" fill="#debb90"><path d="m44.661 45.044 0.06 0.09-5.02 7.57h-7.72l-5.06-7.75c3.15 2.1 5.86 3.56 8.88 3.59h0.03 0.09c2.98-0.03 5.65-1.45 8.74-3.5z"/><path d="m35.761 23.646c2.8407 0 9.4021-3.0962 9.4021-3.0962 1.2226 2.2621 1.9365 4.989 1.9365 7.9244 0 7.8276-5.0765 14.173-11.339 14.173s-11.339-6.3456-11.339-14.173c0-2.915 0.704-5.6244 1.911-7.8772 0 0 6.5869 3.049 9.4276 3.049z"/></g><g id="d" fill="#fcea2b"><path d="m30.981 22.422c-1.4187 1.9337-3.748 4.4784-4.013 0.7735 0 0-0.5485 5.2657-2.3966 4.9999-0.9568-1e-4 -2.1388-4.4453-0.7565-7.5979"/><path d="m47.707 20.598c1.3823 3.1526 0.2003 7.5978-0.7565 7.5979-1.848 0.2658-2.3966-4.9999-2.3966-4.9999-0.2649 3.7049-2.5943 1.1602-4.013-0.7735"/></g><g id="e"><path d="m41.983 27.019c0 1.1045-0.8965 2-2 2s-2-0.8955-2-2c0-1.1035 0.8965-2 2-2s2 0.8965 2 2"/><path d="m33.983 27.019c0 1.1045-0.8965 2-2 2s-2-0.8955-2-2c0-1.1035 0.8965-2 2-2s2 0.8965 2 2"/><path d="m35.983 37.021c-1.1519 0-2.3037-0.2861-3.4473-0.8579-0.4941-0.2471-0.6943-0.8476-0.4472-1.3418 0.2466-0.4936 0.8462-0.6943 1.3418-0.4473 1.7177 0.8594 3.3877 0.8594 5.1054 0 0.4947-0.247 1.0948-0.0463 1.3418 0.4473 0.2471 0.4942 0.0469 1.0947-0.4472 1.3418-1.1436 0.5718-2.2954 0.8579-3.4473 0.8579z"/><path d="m35.983 43.553c-6.8037 0-12.339-6.8066-12.339-15.173 0-0.5523 0.4473-1 1-1 0.5528 0 1 0.4477 1 1 0 7.2637 4.6377 13.173 10.339 13.173 5.7002 0 10.338-5.9091 10.338-13.173 0-0.5523 0.4473-1 1-1s1 0.4477 1 1c0 8.3662-5.5352 15.173-12.338 15.173z"/><path d="m16.921 58.871c-0.4844 0-0.9102-0.3525-0.9863-0.8467-0.041-0.2695-0.9727-6.6328 2.581-10.775 1.9229-2.2412 4.751-3.3769 8.4073-3.3769 0.1972 0 0.3906 0.0586 0.5546 0.1679 3.1534 2.1016 5.6602 3.4092 8.3829 3.4239 2.7236-0.0137 5.2304-1.3213 8.3828-3.4239 0.164-0.1093 0.3574-0.1679 0.5547-0.1679 1.2753 0 2.4638 0.1406 3.5332 0.4179 0.5341 0.1387 0.8554 0.6836 0.7168 1.2188-0.1387 0.5342-0.6846 0.8584-1.2188 0.7168-0.8242-0.2129-1.7422-0.3311-2.7344-0.3506-3.3086 2.1846-6.0254 3.5449-9.1259 3.5879-0.0215 1e-3 -0.043 1e-3 -0.0645 1e-3h-0.0205-0.0459c-0.0156-1e-3 -0.0274-1e-3 -0.042 0-0.0146 0-0.0293 0-0.0439-1e-3 -3.0987-0.043-5.8165-1.4033-9.126-3.5879-2.8965 0.0566-5.1104 0.9541-6.586 2.6689-2.956 3.4366-2.1377 9.1202-2.1289 9.1778 0.083 0.5449-0.292 1.0547-0.8379 1.1387-0.0507 0.0078-0.1015 0.0107-0.1523 0.0107z"/><path d="m36.339 20.046c-1.8516 0-3.708-0.52-5.1387-1.2808-0.3262-0.1733-0.5303-0.5131-0.5303-0.8828v-4.6826c0-0.207 0.0645-0.4087 0.1836-0.5776l4.1172-5.8179c0.1846-0.2603 0.4814-0.417 0.7998-0.4224 0.3242-0.0151 0.6211 0.1416 0.8125 0.3951l4.4785 5.8964c0.1328 0.1744 0.2041 0.3868 0.2041 0.605v4.604c0 0.3179-0.1513 0.6167-0.4072 0.8052-1.3125 0.9668-2.9141 1.3584-4.5195 1.3584zm-3.669-2.79c1.9932 0.8754 4.7315 1.1489 6.5957 0.0854v-3.7261l-3.4502-4.5424-3.1455 4.4448v3.7383z"/><path d="m47.5 45.07v6.6c-1.57 1.72-2.79 3.76-2.56 5.84-0.15 0.04-0.3 0.04-0.45 0-0.45-0.11-0.77-0.51-0.77-0.97v-8.3l-7.08 10.21c-0.19 0.27-0.5 0.43-0.83 0.43s-0.64-0.16-0.82-0.44l-7.07-10.33v9.81c0 0.55-0.44 1-1 1h-1.78c-0.55 0-1-0.45-1-1v-12.87c0-0.55 0.45-1 1-1 0.36 0 0.67 0.18 0.85 0.46 0.11-0.28 0.34-0.5 0.64-0.59 0.41-0.13 0.87 0.03 1.12 0.39l8.07 11.81 8.08-11.64c0.25-0.36 0.7-0.52 1.12-0.39 0.26 0.09 0.48 0.27 0.59 0.51 0.17-0.3101 0.5-0.53 0.89-0.53 0.55 0 1 0.45 1 1z"/><path d="m39.702 53.222h-7.7187c-0.5527 0-1-0.4473-1-1 0-0.5528 0.4473-1 1-1h7.7187c0.5528 0 1 0.4472 1 1 0 0.5527-0.4472 1-1 1z"/><path d="m47.618 20.748c-0.5489 0-0.9952-0.4419-1-0.9917-0.0801-9.4179-5.8692-11.499-10.804-11.556-4.9346 0.0566-10.724 2.1377-10.804 11.556-0.0048 0.5523-0.4658 1.0127-1.0087 0.9917-0.5518-0.0048-0.9961-0.456-0.9913-1.0083 0.0997-11.672 8.3428-13.4 12.461-13.531 0.0439-0.0059 0.0888-0.0088 0.1338-0.0088h0.4179c0.045 0 0.0899 0.0029 0.1338 0.0088 4.1182 0.1313 12.361 1.8589 12.461 13.531 0.0048 0.5523-0.4395 1.0035-0.9912 1.0083h-0.0088z"/><path d="m47.037 29.206c-0.4355 0-0.8545-0.1495-1.2256-0.439-0.7226-0.5635-1.2011-1.6753-1.5127-2.7598-0.0175 0.0054-0.0351 0.0108-0.0537 0.0161-1.1855 0.3457-2.5097-0.5849-4.2881-3.0097-0.3261-0.4453-0.2304-1.0713 0.2149-1.398 0.4463-0.3261 1.0713-0.2295 1.3984 0.2154 1.1192 1.5258 1.7744 2.0249 2.0576 2.1855 0.0518-0.1519 0.1172-0.4253 0.1514-0.8921 0.0361-0.5171 0.4619-0.9194 0.9805-0.9282h0.0166c0.5107 0 0.9414 0.3857 0.9941 0.8955 0.1807 1.7124 0.7334 3.561 1.1787 4.0254 0.4903-0.8779 1.0645-3.8364 0.0645-6.1182-0.2217-0.5058 0.0088-1.0957 0.5146-1.3174 0.5098-0.2197 1.0957 0.0098 1.3174 0.5147 1.2461 2.8442 0.665 6.6509-0.2998 8.1279-0.4365 0.6675-0.9277 0.8457-1.2891 0.8692-0.0732 0.0078-0.1464 0.0127-0.2197 0.0127zm0.0234-2.001c4e-3 0.0024 0.0088 0.0044 0.0137 0.0063 0.0459-0.0063 0.0508-0.0156 0.0977-0.0156-0.0401 0-0.0772 0.0034-0.1114 0.0093zm-3.5078-3.023zm0.2412-0.0918z"/><path d="m24.929 29.206c-0.0732 0-0.1465-0.0049-0.2197-0.0127-0.3613-0.0235-0.8526-0.2017-1.2881-0.8692-0.9658-1.4775-1.5469-5.2846-0.2998-8.1284 0.2217-0.5054 0.8076-0.7358 1.3174-0.5142 0.5058 0.2222 0.7363 0.8121 0.5146 1.3179-1.0078 2.2974-0.417 5.2827 0.0752 6.1367 0.416-0.4174 0.9863-2.3017 1.168-4.0439 0.0527-0.5103 0.4824-0.8965 0.9941-0.8965h0.0166c0.5176 0.0088 0.9444 0.4116 0.9805 0.9287 0.0342 0.4663 0.0986 0.7402 0.1514 0.8916 0.2832-0.1606 0.9384-0.6597 2.0576-2.1855 0.3271-0.4444 0.9521-0.542 1.3984-0.2144 0.4453 0.3267 0.541 0.9526 0.2149 1.398-1.7793 2.4243-3.1026 3.352-4.2891 3.0092-0.0176-0.0053-0.0361-0.0107-0.0537-0.0166-0.3106 1.085-0.79 2.1968-1.5127 2.7603-0.3711 0.2895-0.79 0.439-1.2256 0.439zm3.4854-5.024zm-0.2422-0.0918z"/><path d="m50.676 29.475c-0.3076 0-0.6104-0.1416-0.8067-0.4072-0.3271-0.4448-0.2324-1.0708 0.2129-1.3985 1.294-0.9531 1.9512-1.9043 1.9532-2.8276 0.0019-1.3271-1.3409-2.3398-1.3536-2.3501-0.8769-0.687-2.3632-0.9897-4.2099-0.8662-1.7061 0.1113-3.3975 0.627-4.8916 1.4912-1.6914 0.9776-3.6221 1.5064-5.585 1.5298-1.9863-0.0234-3.917-0.5522-5.6084-1.5298-1.4951-0.8638-3.1865-1.3799-4.8916-1.4912-1.8447-0.1216-3.334 0.1802-4.1865 0.8477-0.0371 0.0288-1.3799 1.0415-1.377 2.3681 2e-3 0.9234 0.6592 1.8745 1.9532 2.8277 0.4453 0.3276 0.54 0.9536 0.2129 1.3979-0.3272 0.4453-0.9532 0.5381-1.3985 0.2129-1.8408-1.356-2.7715-2.8545-2.7676-4.4541 0.0069-2.3457 2.084-3.8838 2.1729-3.9482 1.5605-1.2232 3.8672-1.3545 5.5215-1.2481 2.0097 0.1318 4.0019 0.7388 5.7617 1.7559 1.3945 0.8061 2.9883 1.2422 4.6074 1.2612 1.5957-0.019 3.1895-0.4551 4.583-1.2612 1.7598-1.0171 3.752-1.6241 5.7627-1.7559 1.6543-0.1094 3.961 0.0234 5.5498 1.2695 0.0596 0.043 2.1367 1.5811 2.1446 3.9268 0.0039 1.6001-0.9268 3.0986-2.7676 4.4541-0.1787 0.1318-0.3858 0.1953-0.5918 0.1953z"/><path d="m55.83 50.885c-0.2881 0-0.5733-0.1231-0.7705-0.3623l-3.0283-3.6543c-0.17-0.2041-0.251-0.4668-0.2266-0.7315 0.0254-0.2637 0.1543-0.5068 0.3584-0.6758l1.5996-1.3261-6.0029-2.8369c-0.4991-0.2364-0.7119-0.8321-0.4766-1.3321 0.2363-0.498 0.8291-0.7138 1.332-0.4765l6.958 3.289c1.4024-0.7881 5.7569-3.2871 7.5479-4.9219 0.2021-0.1845 0.4707-0.2744 0.7432-0.2597 0.2724 0.0195 0.5263 0.1494 0.7002 0.3603l1.4218 1.7159c0.1729 0.208 0.2539 0.4775 0.2246 0.746-0.0293 0.2686-0.166 0.5147-0.3798 0.6807-2.1045 1.6387-6.1407 6.7383-6.3936 7.0596-0.0381 0.0498-0.082 0.0976-0.1309 0.1416l-9e-4 1e-3c-0.0108 0.0097-0.0215 0.0185-0.0332 0.0283l-2.8057 2.3242c-0.1865 0.1553-0.4121 0.2305-0.6367 0.2305zm-1.6211-4.5225 1.7519 2.1143 1.2696-1.0518-1.752-2.1143-1.2695 1.0518zm2.9365-2.1748 1.4805 1.7861c1.1758-1.4482 3.4511-4.1728 5.1943-5.7812l-0.1543-0.1865c-1.915 1.4961-4.9306 3.2744-6.5205 4.1816z"/><path d="m53.29 47.1c-0.06 0.03-3.34 1.91-5.79 4.5699-1.57 1.72-2.79 3.76-2.56 5.84 0 0.07 0.01 0.15 0.02 0.22 0.09 0.55-0.28 1.06-0.83 1.15-0.05 0.01-0.1 0.01-0.16 0.01-0.48 0-0.9-0.35-0.98-0.84-0.24-1.52 0.08-3 0.73-4.36 0.86-1.83 2.3101-3.47 3.78-4.81 2.28-2.08 4.61-3.41 4.81-3.52 0.48-0.27 1.09-0.1 1.36 0.38 0.27 0.4801 0.1 1.0901-0.38 1.3601z"/><path d="m49.182 58.919c-0.5048 0-0.9384-0.3808-0.9931-0.8935-0.374-3.4951 5.8174-8.0742 7.0625-8.9561 0.4511-0.3203 1.0752-0.2148 1.3935 0.2373 0.3194 0.4502 0.2139 1.0743-0.2373 1.3936-2.6982 1.915-6.415 5.3867-6.2304 7.1123 0.0586 0.5498-0.3389 1.042-0.8877 1.1006-0.0362 0.0039-0.0723 0.0058-0.1075 0.0058z"/><path d="m54.898 58.871c-0.0507 0-0.1015-0.0029-0.1523-0.0107-0.5459-0.084-0.9209-0.5938-0.8379-1.1387 0-0.0049 0.0723-0.4854 0.1006-1.2393l0.0088-0.2998c0.0068-0.2988 0.0049-0.626-0.0078-0.9775l0.0117-0.6953c0.0107-0.5528 0.4707-0.9571 1.0195-0.9805 0.5528 0.0107 0.9912 0.4678 0.9805 1.0195l-0.0127 0.6387c0.0137 0.3379 0.0156 0.7041 0.0088 1.0342l-0.0108 0.3359c-0.0332 0.8789-0.1181 1.4434-0.122 1.4668-0.0762 0.4942-0.502 0.8467-0.9864 0.8467z"/></g></svg>
