<svg xmlns="http://www.w3.org/2000/svg" id="a" version="1.1" viewBox="0 0 72 72"><g id="b"><path fill="#92D3F5" d="m16.54 58.644s-1.8-13.9 10.2-13.9c3.1918 2.1279 5.9264 3.5984 9 3.5921h-0.125c3.0736 0.0063 6.308-1.5642 9.4999-3.6921 11.565-0.0346 9.609 13.9 9.84 14"/><path fill="#61B2E4" d="m45.251 43.644c-3.1699 2.1133-5.075 3.3-9.1375 3.8886 13.062 0.4114 13.062 7.1114 13.825 11.111h5.1129s2.2-15-9.8-15z"/><path fill="#3F3F3F" d="m35.903 53.214 1.839 3.1852 1.5755 1.9234c0.1053 0.1286 0.0138 0.3218-0.1524 0.3218h-6.5241c-0.1662 0-0.2577-0.1932-0.1524-0.3218l1.5755-1.9234 1.8389-3.1852z"/><path fill="#92D3F5" d="m44.658 44.795-3.69 8.76-2.58-2.66v-0.01l-2.55-2.62h0.12c2.96-0.04 5.63-1.44 8.7-3.47z"/><path fill="#3F3F3F" d="m38.388 50.885v0.01c-0.11 1.56-0.66 3.18-2.49 3.18-1.75 0-2.33-1.51-2.47-3.01l-0.16-0.15 2.57-2.65 2.55 2.62z"/><path fill="#92D3F5" d="m35.838 48.265-2.57 2.65-2.56 2.64-3.75-8.88c3.16 2.09 5.86 3.55 8.88 3.59z"/><path fill="#92D3F5" d="m50.333 16.225c1.24 0.33 0.42 2.52-0.4 3.51l-2.24 2.72-0.07 0.04c-0.86-1.26-1.91-1.98-1.91-1.98l-0.66-0.54c0.49-0.36 0.93-0.77 1.31-1.22h-21.07c0.43 0.43 0.92 0.83 1.47 1.19l-0.76 0.57s-0.93 0.64-1.75 1.76l-0.13-0.1-2.02-2.44c-0.81-0.99-1.64-3.18-0.39-3.51 5.74-1.53 5.95-7.86 14.31-7.86s8.57 6.33 14.31 7.86zm-14.28 0.33c2.12 0 2.46-3.87 2.46-3.87-0.94-0.94-3.38-1.32-5-0.06 0 0 0.42 3.93 2.54 3.93z"/><path fill="#3F3F3F" d="m33.963 22.325c-2.69-0.29-5.27-1.11-7.2-2.38-0.55-0.36-1.04-0.76-1.47-1.19h21.07c-0.38 0.45-0.82 0.86-1.31 1.22-1.05 0.79-2.32 1.38-3.71 1.79-2.28 0.67-4.88 0.84-7.38 0.56z"/><path fill="#61B2E4" d="m42.866 10.539s0.9357 8.2184-2.5907 8.2184l5.3484 0.3352 1.7376 2.978s3.6717-1.9011 3.6101-5.2334c0 0-7.2609-4.2214-8.1054-6.2982z"/><path fill="#FCEA2B" d="m36.095 16.556c-2.1207 0.0034-2.536-3.9337-2.536-3.9337 1.615-1.2569 4.0573-0.8771 5 0.0577 0 0-0.3433 3.8725-2.464 3.876z"/></g><g id="c" fill="#F4AA41"><path d="m24.713 29.705c-0.09 0.2-0.13 0.31-0.13 0.31-2.61-3.31-1.58-6.06-0.33-7.74 0.82-1.12 1.75-1.76 1.75-1.76l0.76-0.57c1.93 1.27 4.51 2.09 7.2 2.38-6.12 0.95-8.69 6.06-9.25 7.38z"/><path d="m47.233 29.875c-0.03 0.05-0.06 0.09-0.1 0.14 0 0-2.7-7.96-5.78-8.21l-0.01-0.04c1.39-0.41 2.66-1 3.71-1.79l0.66 0.54s1.05 0.72 1.91 1.98c1.16 1.67 1.99 4.27-0.39 7.38z"/></g><g id="d"><path fill="#FCEA2B" d="m47.133 30.015c0.04-0.05 0.07-0.09 0.1-0.14-0.67 7.03-5.46 12.48-11.26 12.48-5.85 0-10.65-5.54-11.26-12.65 0.56-1.32 3.13-6.43 9.25-7.38 2.5 0.28 5.1 0.11 7.38-0.56l0.01 0.04c3.08 0.25 5.78 8.21 5.78 8.21zm-5.16-3.2c0-1.1-0.89-2-2-2-1.1 0-2 0.9-2 2 0 1.11 0.9 2 2 2 1.11 0 2-0.89 2-2zm-8 0c0-1.1-0.89-2-2-2-1.1 0-2 0.9-2 2 0 1.11 0.9 2 2 2 1.11 0 2-0.89 2-2z"/></g><g id="e"><path d="m49.361 54.995c0 1.1045-0.8965 2-2 2s-2-0.8955-2-2c0-1.1035 0.8965-2 2-2s2 0.8965 2 2"/><path fill="none" stroke="#000" stroke-linecap="round" stroke-linejoin="round" stroke-miterlimit="10" stroke-width="2" d="m16.958 57.675s-2-13 10-13c3.16 2.09 5.86 3.55 8.88 3.59h0.12c2.96-0.04 5.63-1.44 8.7-3.47l0.18-0.12c12 0 10 13 10 13"/><polyline fill="none" stroke="#000" stroke-linecap="round" stroke-linejoin="round" stroke-miterlimit="10" stroke-width="2" points="26.958 44.675 30.708 53.555 33.268 50.915 35.838 48.265"/><line x1="38.388" x2="35.838" y1="50.885" y2="48.265" fill="none" stroke="#000" stroke-linecap="round" stroke-linejoin="round" stroke-miterlimit="10" stroke-width="2"/><polyline fill="none" stroke="#000" stroke-linecap="round" stroke-linejoin="round" stroke-miterlimit="10" stroke-width="2" points="44.708 44.675 44.658 44.795 40.968 53.555 38.388 50.895"/><path fill="none" stroke="#000" stroke-linecap="round" stroke-linejoin="round" stroke-miterlimit="10" stroke-width="2" d="m33.428 51.065c0.14 1.5 0.72 3.01 2.47 3.01 1.83 0 2.38-1.62 2.49-3.18v-0.01"/><line x1="35.048" x2="32.638" y1="54.075" y2="57.675" fill="none" stroke="#000" stroke-linecap="round" stroke-linejoin="round" stroke-miterlimit="10" stroke-width="2"/><line x1="36.748" x2="39.168" y1="54.075" y2="57.675" fill="none" stroke="#000" stroke-linecap="round" stroke-linejoin="round" stroke-miterlimit="10" stroke-width="2"/><path d="m26.963 57.129h-5.8447c-0.5528 0-1-0.4473-1-1s0.4472-1 1-1h5.8447c0.5527 0 1 0.4473 1 1s-0.4473 1-1 1z"/><path d="m39.973 24.815c1.11 0 2 0.9 2 2 0 1.11-0.89 2-2 2-1.1 0-2-0.89-2-2 0-1.1 0.9-2 2-2z"/><path d="m31.973 24.815c1.11 0 2 0.9 2 2 0 1.11-0.89 2-2 2-1.1 0-2-0.89-2-2 0-1.1 0.9-2 2-2z"/><path d="m36.022 36.821c-1.1518 0-2.3037-0.2861-3.4472-0.8579-0.4942-0.2471-0.6944-0.8476-0.4473-1.3418 0.2466-0.4936 0.8462-0.6943 1.3418-0.4472 1.7178 0.8593 3.3877 0.8593 5.1055 0 0.4946-0.2471 1.0947-0.0464 1.3418 0.4472 0.247 0.4942 0.0468 1.0947-0.4473 1.3418-1.1436 0.5718-2.2954 0.8579-3.4473 0.8579z"/><path d="m36.022 43.352c-6.4161 0-11.698-5.916-12.286-13.761l1.9942-0.1504c0.5009 6.6797 5.0215 11.911 10.292 11.911 5.2578 0 9.6728-5.0136 10.271-11.663 0.045-0.5 0.0674-1.0083 0.0674-1.5103h2c0 0.561-0.0254 1.1294-0.0752 1.689-0.6923 7.6875-5.9638 13.484-12.264 13.484z"/><path d="m36.093 17.556c-2.9346 0-3.4756-4.3345-3.5274-4.8287-0.0361-0.3437 0.1075-0.6816 0.3799-0.894 1.9815-1.5425 4.9697-1.2002 6.3184 0.1362 0.2109 0.2095 0.3183 0.5025 0.292 0.7989-0.044 0.4897-0.5098 4.7827-3.458 4.7876h-0.0049zm1e-3 -2 0.0019 1-0.0019-1c0.7539-1e-3 1.2119-1.4581 1.3916-2.42-0.669-0.3369-1.8467-0.499-2.835-0.02 0.2187 1.0708 0.7324 2.44 1.4424 2.44h1e-3z"/><path d="m24.632 31.018c-0.3017 0-0.5918-0.1367-0.7832-0.3789-1.4687-1.8565-2.0664-3.772-1.7773-5.6939 0.4814-3.2016 3.2871-5.1675 3.4062-5.25l0.7246-0.5498c0.4405-0.334 1.0674-0.2461 1.4004 0.1934 0.334 0.4404 0.2471 1.0679-0.1933 1.4013l-0.7608 0.5762c-0.0556 0.0401-2.2578 1.6011-2.6015 3.9395-0.1309 0.8916 0.0263 1.8027 0.4677 2.7231 1.2686-2.1982 4.1358-5.8188 9.5196-6.5762 0.5586-0.0839 1.0527 0.3042 1.1299 0.8511 0.0771 0.5469-0.3037 1.0528-0.8506 1.1294-6.46 0.9087-8.6504 6.7285-8.7403 6.9756-0.124 0.3408-0.4228 0.5889-0.7802 0.6465-0.0537 0.0088-0.1075 0.0127-0.1612 0.0127z"/><path d="m36.298 23.459c-4.6973 0-9.2071-1.5288-11.669-3.9951-0.2851-0.2862-0.3701-0.7163-0.2158-1.0899 0.1553-0.373 0.5195-0.6167 0.9238-0.6167h21.068c0.3896 0 0.7441 0.2266 0.9072 0.5801 0.1641 0.3535 0.1074 0.7705-0.1455 1.0674-2.0313 2.3921-5.6787 3.8633-10.006 4.0371-0.2881 0.0112-0.5761 0.0171-0.8632 0.0171zm-7.8243-3.7017c2.333 1.1797 5.4317 1.8125 8.6075 1.6861 2.5634-0.1031 4.8271-0.6978 6.538-1.6861h-15.146z"/><path d="m47.732 23.46c-0.2236 0-0.4492-0.0752-0.6357-0.229-0.4258-0.3521-0.4863-0.9825-0.1338-1.4082l2.248-2.7207c0.5166-0.6241 0.836-1.5703 0.8086-1.9424-2.5966-0.7202-4.1435-2.3057-5.6396-3.8399-1.9815-2.0317-3.8535-3.9511-8.3125-3.9511-4.46 0-6.332 1.9194-8.3135 3.9511-1.4971 1.5347-3.0439 3.1202-5.6396 3.8399-0.0264 0.3721 0.2929 1.3183 0.8086 1.9424l2.0117 2.434c0.3525 0.4258 0.292 1.0562-0.1338 1.4082-0.4268 0.3531-1.0567 0.292-1.4072-0.1337l-2.0118-2.4341c-0.6718-0.813-1.5791-2.5943-1.1562-3.9151 0.1973-0.6128 0.6484-1.0415 1.2715-1.207 2.1259-0.564 3.4365-1.9077 4.8252-3.3306 2.082-2.1352 4.4423-4.5551 9.7451-4.5551 5.3017 0 7.6621 2.4199 9.7441 4.5547 1.3887 1.4233 2.6992 2.767 4.8252 3.3315 0.6231 0.165 1.0752 0.5942 1.2715 1.2075 0.4238 1.3218-0.4844 3.1026-1.1562 3.9146l-2.2481 2.7202c-0.1973 0.2392-0.4834 0.3628-0.7715 0.3628z"/><path d="m47.175 31.019c-0.0566 0-0.1133-0.0049-0.1699-0.0147-0.3613-0.0625-0.6592-0.3174-0.7774-0.6641-1.0039-2.9599-3.2607-7.4033-4.913-7.541-0.5508-0.0459-0.959-0.5293-0.9131-1.0796 0.0449-0.5498 0.5136-0.9658 1.0791-0.9135 2.6738 0.2231 4.8076 4.3305 5.9082 6.9624 0.3681-0.8482 0.4922-1.689 0.3711-2.5122-0.3438-2.3389-2.5459-3.8999-2.5684-3.9156l-0.7246-0.5908c-0.4268-0.3506-0.4883-0.9805-0.1377-1.4077 0.3496-0.4258 0.9785-0.4897 1.4072-0.1382l0.6602 0.542c0.0517 0.0317 2.8574 1.9976 3.3389 5.1992 0.289 1.9219-0.3086 3.8374-1.7764 5.6939-0.1914 0.2422-0.4815 0.3799-0.7842 0.3799z"/></g></svg>