<svg xmlns="http://www.w3.org/2000/svg" id="a" viewBox="0 0 72 72"><g id="b"><path fill="#D22F27" d="m25.501 34.561c2.9156 2.3721 5.4581 5.3848 6.7637 9.1491 4.3333 12.494 1.0296 12.729 4.3333 17.346 3.9794 5.5609 40.724 5.1768 23.375-7.0795 0 0-12.254 2.9795-16.94-1.3551 0 0-5.428-17.956-26.141-38.379 0 0-4.5005 2.3277-6.2424 8.0451 0 0 0.5599 2.0029 0.5599 4.5792s14.291 7.6946 14.291 7.6946z"/><path fill="#D22F27" d="m25.108 35.453c2.9156 2.3721 5.8515 4.4931 7.1571 8.2574 4.3333 12.494 1.0296 12.729 4.3333 17.346 3.9794 5.5609 40.724 5.1768 23.375-7.0795 0 0-12.254 2.9795-16.94-1.3551 0 0-5.428-17.956-26.141-38.379 0 0-5.5038 2.1333-7.2458 7.8506 0 0-0.6444 2.1297-0.1093 3.3639s15.57 9.9961 15.57 9.9961z"/><path fill="#3F3F3F" stroke-linecap="round" stroke-linejoin="round" stroke-miterlimit="10" stroke-width="2" d="m19.962 33.086-2 27.872h-3.8393v-28.872l-2.9125-5.982s6.6505 3.8112 10.526 6.9115l-1.7741 0.0705z"/></g><g id="c" fill="none" stroke="#000" stroke-linecap="round" stroke-linejoin="round" stroke-miterlimit="10" stroke-width="2"><path d="m19.962 33.086-2 27.872h-3.8393v-28.872l-2.9125-5.982s6.6505 3.8112 10.526 6.9115l-1.7741 0.0705z"/><path d="m25.501 34.561c2.9156 2.3721 5.4581 5.3848 6.7637 9.1491 4.3333 12.494 1.0296 12.729 4.3333 17.346 3.9794 5.5609 40.724 5.1768 23.375-7.0795 0 0-12.254 2.9795-16.94-1.3551 0 0-5.428-17.956-26.141-38.379 0 0-4.5005 2.3277-6.2424 8.0451"/><path d="m25.501 34.561c2.9156 2.3721 5.4581 5.3848 6.7637 9.1491 4.3333 12.494 1.0296 12.729 4.3333 17.346 3.9794 5.5609 40.724 5.1768 23.375-7.0795 0 0-12.254 2.9795-16.94-1.3551 0 0-5.428-17.956-26.141-38.379 0 0-4.5005 2.3277-6.2424 8.0451"/></g></svg>