<svg xmlns="http://www.w3.org/2000/svg" id="a" version="1.1" viewBox="0 0 72 72"><g id="b"><path fill="#92D3F5" d="m36 38.999h-6.5838c-4.0035 3.2895-7.9182 3.2895-11.833 0-3.2918 0-6.5836 2.6671-6.5836 5.9566v16.045h25v-22.001z"/><path fill="#B1CC33" d="M23,61v-2.5333C23,56,25.5018,54,28.0036,54c2.9751,2.4667,5.9502,2.4667,8.9929,0 C39.4982,54,42,56,42,58.4667V61"/><path fill="#B1CC33" d="M42.0003,61v-2.5333C42.0003,56,44.5021,54,47.0039,54c2.9751,2.4667,5.9502,2.4667,8.9929,0 c2.5018,0,5.0036,2,5.0036,4.4667V61"/></g><g id="c" fill="#A57939"><path d="m13.929 21.39c0.5334-7.7347 6.4011-7.8236 9.335-7.3791 0.2667 0.0889 1.0669 0 1.3336 0 5.3343-0.7112 8.0014 5.3343 8.0014 8.0014 0 0.978 0.2255 3.3655-1.1081 4.6991 0 0-3.2483-3.7211-3.4261-5.8549 0 0-10.135 3.8229-10.846 0.5334 0 0-0.7112 2.6671-1.3336 3.3784 0 0-0.3288 2.0448-0.3288 2.6671 2e-4 2e-4 -1.8937-2.667-1.627-6.0454z"/><path d="m32.5 40.704c3.864 1.3703 5.567 5.8271 5.6943 9.6307 1.4225 0.308 2.8826-0.3898 3.8057-1.461-0.9845-0.8337-1.7269-1.9167-2.1494-3.1356 0.7369-5.7252-2.03-9.5793-7.3506-8.4862-5.3206-1.0931-8.0875 2.761-7.3506 8.4862-0.4225 1.2189-1.1649 2.3019-2.1494 3.1356 0.923 1.0712 2.3833 1.769 3.8057 1.461 0.1273-3.8034 1.8302-8.2605 5.6943-9.6307z"/><path d="m51.5 40.704c3.864 1.3703 5.567 5.8271 5.6943 9.6307 1.4225 0.308 2.8826-0.3898 3.8057-1.461-0.9845-0.8337-1.7269-1.9167-2.1494-3.1356 0.7369-5.7252-2.03-9.5793-7.3506-8.4862-5.3206-1.0931-8.0875 2.761-7.3506 8.4862-0.4225 1.2189-1.1649 2.3019-2.1494 3.1356 0.923 1.0712 2.3833 1.769 3.8057 1.461 0.1273-3.8034 1.8302-8.2605 5.6943-9.6307z"/></g><g id="d" fill="#FCEA2B"><path d="m28.045 20.857s-10.135 3.8229-10.846 0.5334c0 0-0.7112 2.6672-1.3336 3.3784 0 0-0.3185 1.9835-0.3273 2.635 0.4585 5.148 3.8411 9.1996 7.9427 9.1996 4.2864 0 7.782-4.426 7.9809-9.9028-0.1045-0.1204-3.2414-3.7454-3.4163-5.8436z"/><path d="m38.003 48.517c-0.0138-0.0543-0.0171-0.1106-0.0324-0.1646-0.5499-3.1755-2.2374-6.5396-5.471-7.6487-3.2336 1.1091-4.9211 4.4731-5.471 7.6487-0.0153 0.054-0.0186 0.1102-0.0324 0.1646 0.8397 2.7543 2.9947 4.3117 5.5034 4.3118 2.5087-1e-4 4.6638-1.5575 5.5034-4.3118z"/><path d="m57.003 48.517c-0.0138-0.0543-0.0171-0.1106-0.0324-0.1646-0.5499-3.1755-2.2374-6.5396-5.471-7.6487-3.2336 1.1091-4.9211 4.4731-5.471 7.6487-0.0153 0.054-0.0186 0.1102-0.0324 0.1646 0.8397 2.7543 2.9947 4.3117 5.5034 4.3118 2.5087-1e-4 4.6638-1.5575 5.5034-4.3118z"/></g><g id="e"><path fill="none" stroke="#000" stroke-miterlimit="10" stroke-width="2" d="m31.5 25.569v0.6437c0 5.7012-3.5862 10.391-8 10.391s-8-4.6897-8-10.391v-0.6437"/><path fill="none" stroke="#000" stroke-linecap="round" stroke-linejoin="round" stroke-width="2" d="m13.929 21.39c0.5334-7.7347 6.4011-7.8236 9.335-7.3791 0.2667 0.0889 1.0669 0 1.3336 0 5.3343-0.7112 8.0014 5.3343 8.0014 8.0014 0 0.978 0.2255 3.3655-1.1081 4.6991 0 0-3.2483-3.7211-3.4261-5.8549 0 0-10.135 3.8229-10.846 0.5334 0 0-0.7112 2.6671-1.3336 3.3784 0 0-0.3288 2.0448-0.3288 2.6671 2e-4 2e-4 -1.8937-2.667-1.627-6.0454z"/><path d="m22.25 26.5c0 0.7143-0.5357 1.25-1.25 1.25s-1.25-0.5357-1.25-1.25 0.5357-1.25 1.25-1.25 1.25 0.5357 1.25 1.25"/><path d="m27.25 26.5c0 0.7143-0.5357 1.25-1.25 1.25s-1.25-0.5357-1.25-1.25 0.5357-1.25 1.25-1.25 1.25 0.5357 1.25 1.25"/><path fill="none" stroke="#000" stroke-linecap="round" stroke-linejoin="round" stroke-width="2" d="m21.633 31.533c1.1558 0.6223 2.5782 0.6223 3.734 0"/><path d="m54.098 45.702c0.0333 0.4958-0.3417 0.9247-0.8377 0.958-0.4959 0.0333-0.9249-0.3417-0.9582-0.8375s0.3417-0.9247 0.8377-0.958c0.0201-0.0014 0.0402-2e-3 0.0604-2e-3 0.4796-0.0155 0.8813 0.3601 0.8978 0.8395z"/><path fill="none" stroke="#000" stroke-linecap="round" stroke-linejoin="round" stroke-width="1.6" d="m50.164 49.186c0.7749 0.6425 1.8974 0.6425 2.6723 0"/><path fill="none" stroke="#000" stroke-miterlimit="10" stroke-width="1.6" d="m57.044 48.407c-0.8139 2.8267-3.0002 4.4219-5.5441 4.4219h6e-4c-2.5439 0-4.7302-1.5952-5.5441-4.4219"/><path d="m49.8 44.862c0.0201 0 0.0403 7e-4 0.0604 2e-3 0.4959 0.0333 0.871 0.4622 0.8377 0.958s-0.4623 0.8707-0.9582 0.8375c-0.4959-0.0333-0.871-0.4622-0.8377-0.958 0.0165-0.4794 0.4182-0.855 0.8978-0.8395z"/><path fill="none" stroke="#000" stroke-linecap="round" stroke-linejoin="round" stroke-width="1.6" d="M23,60.2v-1.7333 C23,56,25.5018,54,28.0036,54c2.9751,2.4667,5.9502,2.4667,8.9929,0C39.4982,54,42,56,42,58.4667V60.2"/><path fill="none" stroke="#000" stroke-linecap="round" stroke-linejoin="round" stroke-width="1.6" d="m42 60.2v-1.7333c0-2.4667 2.5018-4.4667 5.0036-4.4667 2.9751 2.4667 5.9502 2.4667 8.9929 0 2.5018 0 5.0036 2 5.0036 4.4667v1.7333"/><path d="m35.098 45.702c0.0333 0.4958-0.3417 0.9247-0.8377 0.958-0.4959 0.0333-0.9249-0.3417-0.9582-0.8375s0.3417-0.9247 0.8377-0.958c0.0201-0.0014 0.0402-2e-3 0.0604-2e-3 0.4796-0.0155 0.8813 0.3601 0.8978 0.8395z"/><path fill="none" stroke="#000" stroke-linecap="round" stroke-linejoin="round" stroke-width="1.6" d="m31.164 49.186c0.7749 0.6425 1.8974 0.6425 2.6723 0"/><path fill="none" stroke="#000" stroke-miterlimit="10" stroke-width="1.6" d="m38.044 48.407c-0.8139 2.8267-3.0002 4.4219-5.5441 4.4219h6e-4c-2.5439 0-4.7302-1.5952-5.5441-4.4219"/><path d="m30.8 44.862c0.0201 0 0.0403 7e-4 0.0604 2e-3 0.4959 0.0333 0.871 0.4622 0.8377 0.958s-0.4623 0.8707-0.9582 0.8375c-0.4959-0.0333-0.871-0.4622-0.8377-0.958 0.0165-0.4794 0.4182-0.855 0.8978-0.8395z"/><path fill="none" stroke="#000" stroke-linecap="round" stroke-linejoin="round" stroke-width="1.6" d="m32.5 40.704c3.864 1.3703 5.567 5.8271 5.6943 9.6307 1.4225 0.308 2.8826-0.3898 3.8057-1.461-0.9845-0.8337-1.7269-1.9167-2.1494-3.1356 0.7369-5.7252-2.03-9.5793-7.3506-8.4862-5.3206-1.0931-8.0875 2.761-7.3506 8.4862-0.4225 1.2189-1.1649 2.3019-2.1494 3.1356 0.923 1.0712 2.3833 1.769 3.8057 1.461 0.1273-3.8034 1.8302-8.2605 5.6943-9.6307z"/><path fill="none" stroke="#000" stroke-linecap="round" stroke-linejoin="round" stroke-width="1.6" d="m51.5 40.704c3.864 1.3703 5.567 5.8271 5.6943 9.6307 1.4225 0.308 2.8826-0.3898 3.8057-1.461-0.9845-0.8337-1.7269-1.9167-2.1494-3.1356 0.7369-5.7252-2.03-9.5793-7.3506-8.4862-5.3206-1.0931-8.0875 2.761-7.3506 8.4862-0.4225 1.2189-1.1649 2.3019-2.1494 3.1356 0.923 1.0712 2.3833 1.769 3.8057 1.461 0.1273-3.8034 1.8302-8.2605 5.6943-9.6307z"/><path fill="none" stroke="#000" stroke-linecap="round" stroke-linejoin="round" stroke-miterlimit="10" stroke-width="2" d="m11 60v-15.045c0-3.2895 3.2918-5.9566 6.5836-5.9566 1.4914 1.2532 2.9827 2.029 4.4789 2.3273"/></g></svg>