<svg xmlns="http://www.w3.org/2000/svg" id="a" viewBox="0 0 72 72"><g id="b"><circle cx="42.613" cy="55.744" r="5" fill="#d0cfce"/><circle cx="16.313" cy="55.744" r="5" fill="#d0cfce"/><path fill="#ea5a47" d="m37.113 42.044c-6.2 2.2-6.9 9.6-6.9 9.6l-6.9021 0.0206 1.1021 4.88 8.6 0.1a9.9 9.9 0 0 1 19.8 0 25.508 25.508 0 0 0-2.8-15.6"/><path fill="#a57939" d="m46.913 38.744a4.5364 4.5364 0 0 1-1 0.1h-13.3a1.0021 1.0021 0 0 0-1 1v1.2a1.0754 1.0754 0 0 0 1 1h16.4a1.0754 1.0754 0 0 0 1-1v-16.5a1.0021 1.0021 0 0 0-1-1h-1.2c-0.5 0-0.4193 0.4316-0.4193 1.0316l-0.5807 13.068a7.4715 7.4715 0 0 1 0.1 1.1z"/></g><g id="c" fill="#fcea2b"><circle cx="44.077" cy="11.544" r="2.599"/><path d="M31.5635,34.2571,37.4,33.8847l.0356-.0344,1.1977-8.6156.6514-4.3151a3.9744,3.9744,0,0,1,3.9784-3.2913h0a3.784,3.784,0,0,1,3.581,3.6439l-.3563,15.3264a2.5073,2.5073,0,0,1-2.5067,2.449H39.46l-8.268.0259L23.4387,49.4754c-.3652.5478-1.2437.2714-1.4519-.3532a5.0533,5.0533,0,0,1,.4709-2.1191l4.295-9.5054a4.3658,4.3658,0,0,1,2.018-2.3h0A6.7127,6.7127,0,0,1,31.5635,34.2571Z"/></g><g id="d" fill="none" stroke="#000" stroke-width="2"><circle cx="43.885" cy="11.447" r="2.599" stroke-miterlimit="10"/><path stroke-linecap="round" stroke-linejoin="round" d="M31.9809,34.0565l5.8364-.3725.0356-.0343,1.1978-8.6156.6513-4.3151a3.9744,3.9744,0,0,1,3.9785-3.2913h0a3.7838,3.7838,0,0,1,3.5809,3.6439l-.3563,15.3263a2.5074,2.5074,0,0,1-2.5067,2.4491H39.8769l-8.2679.0258L23.6349,49.4361c-.3652.5478-1.283.6246-1.4912,0a4.2438,4.2438,0,0,1,.3532-2.0406L27.17,37.2971a4.3658,4.3658,0,0,1,2.018-2.3h0A6.7113,6.7113,0,0,1,31.9809,34.0565Z"/><polyline stroke-linecap="round" stroke-linejoin="round" points="43.957 21.04 39.766 28.497 30.342 26.797"/><path stroke-linecap="round" stroke-linejoin="round" d="m23.113 51.644a8.8794 8.8794 0 0 1 1.3 4.9l8.6 0.1h0a9.9 9.9 0 0 1 19.8 0 25.508 25.508 0 0 0-2.8-15.6"/><path stroke-linecap="round" stroke-linejoin="round" d="m37.113 42.044c-6.2 2.2-6.9 9.6-6.9 9.6h-3.2"/><path stroke-linecap="round" stroke-linejoin="round" d="m46.913 38.744a4.5364 4.5364 0 0 1-1 0.1h-13.3a1.0021 1.0021 0 0 0-1 1v1.2a1.0754 1.0754 0 0 0 1 1h16.4a1.0754 1.0754 0 0 0 1-1v-16.5a1.0021 1.0021 0 0 0-1-1h-1.2c-0.5 0-0.4193 0.4316-0.4193 1.0316l-0.5807 13.068a7.4715 7.4715 0 0 1 0.1 1.1z"/><circle cx="16.313" cy="55.743" r="5" stroke-miterlimit="10"/><circle cx="42.613" cy="55.744" r="5" stroke-miterlimit="10"/><path stroke-linecap="round" stroke-linejoin="round" d="m24.513 56.644a6.602 6.602 0 0 0-0.1-1.4 9.9842 9.9842 0 0 0-2.8-5.6 6.8641 6.8641 0 0 0-6.5392-2.1517"/><polyline stroke-linecap="round" stroke-linejoin="round" points="18.656 46.985 26.056 29.485 29.056 29.485 31.356 29.585"/><line x1="29.056" x2="29.056" y1="27.885" y2="29.485" stroke-linecap="round" stroke-linejoin="round"/><path stroke-linecap="round" stroke-linejoin="round" d="M46.844,8.213s.5785-.2695.9252.0177c.4081.3372.6855,1.5991,1.1679,2.145A3.2608,3.2608,0,0,0,50.75,11.4474"/></g></svg>