<svg xmlns="http://www.w3.org/2000/svg" id="a" version="1.1" viewBox="0 0 72 72"><g id="b"><path fill="#D22F27" d="m51.6 21.739c-1.2424-1.0276-3.1754-1.2845-5.0366-1.1561-1.9375 0.1336-3.8314 0.7473-5.5122 1.7729-1.6872 1.0294-3.5154 1.5016-5.2726 1.5234-1.7569-0.0218-3.585-0.494-5.2722-1.5234-1.6809-1.0256-3.5747-1.6393-5.5122-1.7729-1.8615-0.1284-3.7943 0.1285-5.0366 1.1561 0 0-4.4856 3.444 0.6199 7.412 10.134 4.2267 20.268 4.2268 30.402 1e-4 5.1056-3.9681 0.62-7.4121 0.62-7.4121z"/><path fill="#EA5A47" d="m35.561 7.6561c0.0691 0 0.1399 0.0053 0.2092 0.0061 0.0694-8e-4 0.1402-0.0061 0.2093-0.0061h-0.4185z"/><path fill="#EA5A47" d="m35.77 7.6622c-5.4277 0.0619-11.719 1.9772-11.803 11.947l-0.2803 0.8991c0.5991-0.0556 1.2175-0.0607 1.8293-0.0208 1.8726 0.1225 3.7029 0.6844 5.3274 1.6236 1.6307 0.9428 3.3975 1.3753 5.0955 1.3952 1.6982-0.0199 3.4651-0.4524 5.0957-1.3952 1.6245-0.9392 3.4548-1.5011 5.3274-1.6236 0.5063-0.0331 1.0171-0.0341 1.5183-0.0034l-0.3064-0.8749c-0.0845-9.9701-6.3757-11.885-11.804-11.947z"/><path fill="#A57939" d="m16.725 58.881s-2-13.5 10-13.5c3.1919 2.1279 5.9264 3.5984 9 3.5922h-0.125c3.0736 0.0062 5.7081-2.5643 8.9-4.6922 10.068-0.5859 11.802 7.479 11.449 10.887-0.1964 1.8934-1.1178 3.683-1.049 3.7128"/><polygon fill="#3F3F3F" points="39.701 52.704 35.811 58.574 31.981 52.704"/><path fill="#9B9B9A" d="m63.661 38.592 1.43 1.72c-2.29 1.78-6.58 7.24-6.58 7.24l-3.03-3.65s5.93-3.25 8.18-5.31z"/><rect width="3.65" height="4.744" x="53.763" y="44.521" fill="#9B9B9A" transform="matrix(.7694 -.6387 .6387 .7694 -17.135 46.318)"/><path fill="#3F3F3F" d="m52.671 46.232 3.03 3.65s-6.98 5.92-6.65 9.01h-5.21c-0.97-6.13 8.83-12.66 8.83-12.66z"/><path fill="#FCEA2B" d="m31.47 17.743v-4.6823l4.1171-5.2226 4.4789 5.3009v4.604c-2.535 1.8666-6.3765 1.1812-8.596 0z"/></g><g id="c" fill="#6A462F"><path d="m26.759 19.765c-1.7821 2.2194-2.0358 4.2075-1.935 5.4848l-0.1722 0.4657c2.1471-0.3334 5.5091-1.9969 7.624-3.5629"/><path d="m40.874 21.453c2.6002 2.2005 5.8288 4.4575 7.1545 3.4331 0.2163-2.3798-1.2982-4.7597-1.2982-4.7597"/><path d="m24.979 25.811s-10.634 2.5266-7.9128 15.729c0 0 5.3626 0.1413 7.5363-2.4284 0 0 2.4867-2.2423 3.5184-8.1865s-3.2501-5.1369-3.2501-5.1369"/></g><g id="d" fill="#FCEA2B"><path d="m35.715 23.416c4.0167-2.5616 11.818 0.9081 11.184 4.9181 0 7.8276-5.0765 14.173-11.339 14.173s-11.339-6.3456-11.339-14.173c-0.4039-2.0168 6.6155-7.9845 11.493-4.9181z"/><path d="m44.661 45.044 0.06 0.09-5.02 7.57h-7.72l-5.06-7.75c3.15 2.1 5.86 3.56 8.88 3.59h0.03 0.09c2.98-0.03 5.65-1.45 8.74-3.5z"/></g><g id="e"><path d="m41.884 26.88c0 1.1045-0.8965 2-2 2s-2-0.8955-2-2c0-1.1035 0.8965-2 2-2s2 0.8965 2 2"/><path d="m33.884 26.88c0 1.1045-0.8965 2-2 2s-2-0.8955-2-2c0-1.1035 0.8965-2 2-2s2 0.8965 2 2"/><path d="m35.884 36.882c-1.1519 0-2.3037-0.2861-3.4473-0.8579-0.4941-0.247-0.6943-0.8476-0.4472-1.3418 0.2465-0.4936 0.8461-0.6943 1.3417-0.4472 1.7178 0.8594 3.3877 0.8594 5.1055 0 0.4946-0.2471 1.0947-0.0464 1.3418 0.4472 0.2471 0.4942 0.0469 1.0948-0.4473 1.3418-1.1435 0.5718-2.2954 0.8579-3.4472 0.8579z"/><path d="m35.884 43.414c-6.8037 0-12.339-6.8067-12.339-15.173 0-0.9248 0.0684-1.854 0.2031-2.7607l1.9786 0.2939c-0.1202 0.8101-0.1817 1.6402-0.1817 2.4668 0 7.2642 4.6377 13.173 10.339 13.173s10.339-5.9092 10.339-13.173c0-1.0727-0.1016-2.1391-0.3028-3.1699l1.9629-0.3828c0.2256 1.1567 0.3399 2.352 0.3399 3.5527 0 8.3667-5.5352 15.173-12.339 15.173z"/><path d="m36.138 19.907c-1.8506 0-3.708-0.5205-5.1377-1.2817-0.3262-0.1738-0.5303-0.5132-0.5303-0.8828v-4.6822c0-0.2246 0.0752-0.4428 0.2149-0.6191l4.1172-5.2226c0.1855-0.2359 0.4677-0.3755 0.7685-0.3809h0.0166c0.294 0 0.5733 0.1294 0.7637 0.3545l4.4795 5.3008c0.1523 0.1806 0.2363 0.4091 0.2363 0.6455v4.604c0 0.3178-0.1514 0.6167-0.4072 0.8052-1.3135 0.9672-2.9151 1.3593-4.5215 1.3593zm-3.668-2.7905c1.9942 0.8755 4.7315 1.1475 6.5967 0.085v-3.6973l-3.4521-4.0855-3.1446 3.9883v3.7095z"/><path d="m36.238 19.907c-1.8506 0-3.707-0.5205-5.1367-1.2817-0.3262-0.1738-0.5303-0.5132-0.5303-0.8828v-4.6822c0-0.2246 0.0752-0.4428 0.2148-0.6191l4.1172-5.2226c0.1856-0.2359 0.4678-0.3755 0.7686-0.3809h0.0166c0.2939 0 0.5732 0.1294 0.7636 0.3545l4.4786 5.3008c0.1523 0.1806 0.2363 0.4091 0.2363 0.6455v4.604c0 0.3178-0.1514 0.6167-0.4072 0.8052-1.3135 0.9672-2.9151 1.3593-4.5215 1.3593zm-3.667-2.7905c1.9902 0.8755 4.7285 1.1484 6.5957 0.085v-3.6973l-3.4522-4.0855-3.1435 3.9883v3.7095z"/><path d="m47.519 20.609c-0.5489 0-0.9952-0.4424-1-0.9917-0.0616-7.3057-3.5957-10.893-10.803-10.96-7.208 0.0679-10.742 3.6548-10.804 10.96-0.0049 0.5493-0.4512 0.9917-1 0.9917h-0.0088c-0.5517-0.0049-0.9961-0.4561-0.9912-1.0083 0.0693-8.2896 4.3838-12.754 12.483-12.939 0.0361-0.0039 0.0733-0.0058 0.1104-0.0058h0.4189c0.0371 0 0.0742 0.0019 0.1104 0.0058 8.0996 0.1851 12.414 4.6494 12.483 12.939 0.0048 0.5522-0.4395 1.0034-0.9913 1.0083h-0.0087z"/><path d="m47.015 27.16c-1.538 5e-4 -3.4628-1.6187-5.4746-3.3111-0.3984-0.334-0.7929-0.6665-1.1767-0.9785-0.4287-0.3486-0.4932-0.978-0.1455-1.4067 0.3486-0.4282 0.9785-0.4932 1.4072-0.145 0.3926 0.3188 0.7959 0.6582 1.2021 1 1.0313 0.8676 2.8096 2.3628 3.75 2.7485-0.1289-1.5469-0.8476-3.4194-1.1181-3.9082-0.2686-0.4829-0.0938-1.0918 0.3887-1.3599 0.4814-0.2671 1.0918-0.0937 1.3593 0.3892 0.419 0.7534 1.5664 3.6611 1.3662 5.8721-0.0253 0.2768-0.165 0.5307-0.3847 0.7011-0.3574 0.2764-0.751 0.3985-1.1739 0.3985zm0.5625-1.19h0.0098-0.0098z"/><path d="m50.576 29.335c-0.3076 0-0.6104-0.1416-0.8067-0.4078-0.3271-0.4443-0.2324-1.0703 0.2129-1.3979 1.2989-0.9565 1.9561-1.9111 1.9531-2.8379-0.0039-1.3208-1.3359-2.3267-1.3486-2.3364-0.8808-0.689-2.3701-0.9912-4.2148-0.8692-1.7051 0.1114-3.3965 0.6275-4.8926 1.4913-1.6904 0.9775-3.6211 1.5063-5.584 1.5297-1.9863-0.0234-3.917-0.5522-5.6084-1.5297-1.4941-0.8643-3.1855-1.3799-4.8916-1.4913-1.8467-0.1211-3.333 0.1797-4.1846 0.8477-0.0976 0.0728-1.8007 1.3613-1.2763 2.999 0.1689 0.5259-0.1211 1.0889-0.6465 1.2573-0.5283 0.169-1.0899-0.1215-1.2578-0.6469-0.9688-3.021 1.8545-5.1172 1.9756-5.2051 1.5586-1.2241 3.8691-1.355 5.5205-1.2481 2.0107 0.1319 4.0029 0.7388 5.7627 1.7559 1.3935 0.8062 2.9873 1.2422 4.6064 1.2612 1.5957-0.019 3.1895-0.455 4.583-1.2612 1.7608-1.0171 3.7529-1.624 5.7627-1.7559 1.6543-0.1093 3.9609 0.024 5.5498 1.2696 0.0606 0.0429 2.1377 1.581 2.1445 3.9267 4e-3 1.5996-0.9267 3.0982-2.7675 4.4536-0.1787 0.1319-0.3858 0.1954-0.5918 0.1954z"/><path d="m24.804 26.637c-0.5058 0-0.9394-0.3818-0.9932-0.8955-0.0585-0.5488 0.3399-1.041 0.8897-1.0991 1.5332-0.1612 3.6572-1.1988 6.1416-2.9995 0.4482-0.3238 1.0732-0.2242 1.3965 0.2226 0.3242 0.4473 0.2246 1.0723-0.2227 1.3965-2.8066 2.0352-5.1982 3.1685-7.1064 3.3696-0.0352 0.0035-0.0703 0.0054-0.1055 0.0054z"/><path d="m17.636 41.92c-0.4736 0-0.8837-0.332-0.9794-0.7978-2.0792-10.088 4.2392-13.856 6.7285-14.926-0.2539-1.2749-0.3145-3.5967 1.5048-6.2515 0.3135-0.4551 0.9346-0.5727 1.3907-0.2593 0.4551 0.3121 0.5713 0.9346 0.2597 1.3902-2.0302 2.9604-1.0693 5.2236-1.0273 5.3188 0.1182 0.2671 0.1152 0.5782-0.0107 0.8413-0.127 0.2637-0.3604 0.4634-0.6426 0.5386-0.3321 0.0908-7.9619 2.2949-6.4043 12.071 1.4043-0.1807 3.6338-0.7129 4.7002-1.9736 0.3574-0.4209 0.9863-0.4727 1.4101-0.1172 0.4209 0.3574 0.4737 0.9883 0.1172 1.4101-2.1767 2.5713-6.8183 2.7481-7.0146 2.7539-0.0108 1e-3 -0.0215 1e-3 -0.0323 1e-3z"/><path d="m16.921 58.871c-0.4844 0-0.9102-0.3525-0.9863-0.8467-0.041-0.2695-0.9727-6.6328 2.581-10.775 1.9229-2.2412 4.751-3.3769 8.4073-3.3769 0.1972 0 0.3906 0.0586 0.5546 0.1679 3.1534 2.1016 5.6602 3.4092 8.3829 3.4239 2.7236-0.0137 5.2304-1.3213 8.3828-3.4239 0.164-0.1093 0.3574-0.1679 0.5547-0.1679 1.2753 0 2.4638 0.1406 3.5332 0.4179 0.5341 0.1387 0.8554 0.6836 0.7168 1.2188-0.1387 0.5342-0.6846 0.8584-1.2188 0.7168-0.8242-0.2129-1.7422-0.3311-2.7344-0.3506-3.3086 2.1846-6.0254 3.5449-9.1259 3.5879-0.0215 1e-3 -0.043 1e-3 -0.0645 1e-3h-0.0205-0.0459c-0.0156-1e-3 -0.0274-1e-3 -0.042 0-0.0146 0-0.0293 0-0.0439-1e-3 -3.0987-0.043-5.8165-1.4033-9.126-3.5879-2.8965 0.0566-5.1104 0.9541-6.586 2.6689-2.956 3.4366-2.1377 9.1202-2.1289 9.1778 0.083 0.5449-0.292 1.0547-0.8379 1.1387-0.0507 0.0078-0.1015 0.0107-0.1523 0.0107z"/><path d="m47.5 45.07v6.6c-1.57 1.72-2.79 3.76-2.56 5.84-0.15 0.04-0.3 0.04-0.45 0-0.45-0.11-0.77-0.51-0.77-0.97v-8.3l-7.08 10.21c-0.19 0.27-0.5 0.43-0.83 0.43s-0.64-0.16-0.82-0.44l-7.07-10.33v9.81c0 0.55-0.44 1-1 1h-1.78c-0.55 0-1-0.45-1-1v-12.87c0-0.55 0.45-1 1-1 0.36 0 0.67 0.18 0.85 0.46 0.11-0.28 0.34-0.5 0.64-0.59 0.41-0.13 0.87 0.03 1.12 0.39l8.07 11.81 8.08-11.64c0.25-0.36 0.7-0.52 1.12-0.39 0.26 0.09 0.48 0.27 0.59 0.51 0.17-0.3101 0.5-0.53 0.89-0.53 0.55 0 1 0.45 1 1z"/><path d="m39.702 53.222h-7.7187c-0.5527 0-1-0.4473-1-1 0-0.5528 0.4473-1 1-1h7.7187c0.5528 0 1 0.4472 1 1 0 0.5527-0.4472 1-1 1z"/><path d="m55.83 50.885c-0.2881 0-0.5733-0.1231-0.7705-0.3623l-3.0283-3.6543c-0.17-0.2041-0.251-0.4668-0.2266-0.7315 0.0254-0.2637 0.1543-0.5068 0.3584-0.6758l1.5996-1.3261-6.0029-2.8369c-0.4991-0.2364-0.7119-0.8321-0.4766-1.3321 0.2363-0.498 0.8291-0.7138 1.332-0.4765l6.958 3.289c1.4024-0.7881 5.7569-3.2871 7.5479-4.9219 0.2021-0.1845 0.4707-0.2744 0.7432-0.2597 0.2724 0.0195 0.5263 0.1494 0.7002 0.3603l1.4218 1.7159c0.1729 0.208 0.2539 0.4775 0.2246 0.746-0.0293 0.2686-0.166 0.5147-0.3798 0.6807-2.1045 1.6387-6.1407 6.7383-6.3936 7.0596-0.0381 0.0498-0.082 0.0976-0.1309 0.1416l-9e-4 1e-3c-0.0108 0.0097-0.0215 0.0185-0.0332 0.0283l-2.8057 2.3242c-0.1865 0.1553-0.4121 0.2305-0.6367 0.2305zm-1.6211-4.5225 1.7519 2.1143 1.2696-1.0518-1.752-2.1143-1.2695 1.0518zm2.9365-2.1748 1.4805 1.7861c1.1758-1.4482 3.4511-4.1728 5.1943-5.7812l-0.1543-0.1865c-1.915 1.4961-4.9306 3.2744-6.5205 4.1816z"/><path d="m53.29 47.1c-0.06 0.03-3.34 1.91-5.79 4.5699-1.57 1.72-2.79 3.76-2.56 5.84 0 0.07 0.01 0.15 0.02 0.22 0.09 0.55-0.28 1.06-0.83 1.15-0.05 0.01-0.1 0.01-0.16 0.01-0.48 0-0.9-0.35-0.98-0.84-0.24-1.52 0.08-3 0.73-4.36 0.86-1.83 2.3101-3.47 3.78-4.81 2.28-2.08 4.61-3.41 4.81-3.52 0.48-0.27 1.09-0.1 1.36 0.38 0.27 0.4801 0.1 1.0901-0.38 1.3601z"/><path d="m49.182 58.919c-0.5048 0-0.9384-0.3808-0.9931-0.8935-0.374-3.4951 5.8174-8.0742 7.0625-8.9561 0.4511-0.3203 1.0752-0.2148 1.3935 0.2373 0.3194 0.4502 0.2139 1.0743-0.2373 1.3936-2.6982 1.915-6.415 5.3867-6.2304 7.1123 0.0586 0.5498-0.3389 1.042-0.8877 1.1006-0.0362 0.0039-0.0723 0.0058-0.1075 0.0058z"/><path d="m54.898 58.871c-0.0507 0-0.1015-0.0029-0.1523-0.0107-0.5459-0.084-0.9209-0.5938-0.8379-1.1387 0-0.0049 0.0723-0.4854 0.1006-1.2393l0.0088-0.2998c0.0068-0.2988 0.0049-0.626-0.0078-0.9775l0.0117-0.6953c0.0107-0.5528 0.4707-0.9571 1.0195-0.9805 0.5528 0.0107 0.9912 0.4678 0.9805 1.0195l-0.0127 0.6387c0.0137 0.3379 0.0156 0.7041 0.0088 1.0342l-0.0108 0.3359c-0.0332 0.8789-0.1181 1.4434-0.122 1.4668-0.0762 0.4942-0.502 0.8467-0.9864 0.8467z"/></g></svg>