<?xml version="1.0" encoding="UTF-8"?>
<svg id="a" version="1.1" viewBox="0 0 72 72" xmlns="http://www.w3.org/2000/svg"><g id="b"><path d="m54.97 59.042s2-13.992-10-13.992c-3.1919 2.1279-5.9264 3.5985-9 3.5922h0.125c-3.0736 0.0063-5.8082-1.4643-9-3.5922-12 0-10 13.992-10 13.992" fill="#B1CC33"/><polyline points="27.033 45.049 32.836 53.936 36.033 48.642" fill="#5C9E31"/><polyline points="45.033 45.049 39.229 53.936 36.033 48.642" fill="#5C9E31"/><rect x="57.912" y="39.453" width="5.4802" height="4.2448" fill="#9B9B9A"/><polygon points="62.652 54.839 62.652 43.739 58.652 43.739 58.652 54.839 58.652 58.059 58.652 59.042 62.855 59.042 62.855 54.839" fill="#A57939"/><rect x="22.162" y="45.09" width="4.2883" height="13.971" fill="#61B2E4"/><polygon points="49.653 58.205 22.162 58.035 22.162 59.013 49.653 59.013" fill="#61B2E4"/><polygon points="48.92 45.09 44.631 45.09 44.631 50.773 44.631 59.032 48.92 59.032" fill="#61B2E4"/><polyline points="27.185 16.27 27.185 8.0684 35.97 9.4857 44.755 8.0684 44.755 16.27" fill="#F4AA41"/><rect x="27.185" y="12.854" width="17.446" height="2.6585" fill="#E27022"/></g><g id="c"><path d="m24.724 24.994c-0.2098 1.0778-0.321 2.2038-0.321 3.3623 0 0.7929 0.0521 1.5707 0.1523 2.3282l-0.4737-0.5234s-4.6525-6.8512 2.5534-13.891h18.213c7.206 7.0394 2.5535 13.891 2.5535 13.891l-5.6599-12.624s-1.4782 3.8056-5.6542 3.4931c0 0 1.0645-4.7593-0.2835-4.7593 0 0-5.1834 6.2171-11.073 8.7249" fill="#a57939"/></g><g id="d"><path d="m41.742 17.536s-1.4782 3.8056-5.6542 3.4931c0 0 1.0645-4.7593-0.2835-4.7593 0 0-5.1794 6.2122-11.066 8.7219-0.0145 0.0745-0.0322 0.1473-0.0458 0.2222-0.0624 0.3441-0.1099 0.6948-0.1518 1.0479-0.0198 0.1668-0.0459 0.3309-0.061 0.4996-0.047 0.5239-0.0762 1.0546-0.0762 1.5942 0 0.4494 0.0211 0.8925 0.0538 1.3311 0.0104 0.1393 0.0273 0.2761 0.0409 0.4142 0.6894 7.0025 5.4556 12.428 11.244 12.428 5.9927 0 10.887-5.8153 11.298-13.176l-5.2981-11.817z" fill="#fadcbc"/></g><g id="e"><path d="m41.97 26.995c0 1.1045-0.8965 2-2 2s-2-0.8955-2-2c0-1.1035 0.8965-2 2-2s2 0.8965 2 2"/><path d="m33.97 26.995c0 1.1045-0.8965 2-2 2s-2-0.8955-2-2c0-1.1035 0.8965-2 2-2s2 0.8965 2 2"/><path d="m35.97 36.998c-1.1519 0-2.3038-0.2862-3.4473-0.8579-0.4942-0.2471-0.6943-0.8477-0.4473-1.3418 0.2466-0.4937 0.8462-0.6944 1.3418-0.4473 1.7178 0.8594 3.3877 0.8594 5.1055 0 0.4946-0.2471 1.0947-0.0464 1.3418 0.4473 0.2471 0.4941 0.0469 1.0947-0.4473 1.3418-1.1435 0.5717-2.2954 0.8579-3.4472 0.8579z"/><polyline points="27.033 45.049 32.836 53.936 36.033 48.642" fill="none" stroke="#000" stroke-linecap="round" stroke-linejoin="round" stroke-miterlimit="10" stroke-width="2"/><polyline points="45.033 45.049 39.229 53.936 36.033 48.642" fill="none" stroke="#000" stroke-linecap="round" stroke-linejoin="round" stroke-miterlimit="10" stroke-width="2"/><path d="m53.48 23.795s-2.3766 15.416 7.0845 15.658v-15.658" fill="none" stroke="#000" stroke-linecap="round" stroke-linejoin="round" stroke-miterlimit="10" stroke-width="2"/><path d="m67.65 23.795s2.3767 15.416-7.0845 15.658v-15.658" fill="none" stroke="#000" stroke-linecap="round" stroke-linejoin="round" stroke-miterlimit="10" stroke-width="2"/><rect x="57.912" y="39.453" width="5.4802" height="4.2448" fill="none" stroke="#000" stroke-linecap="round" stroke-linejoin="round" stroke-miterlimit="10" stroke-width="2"/><polyline points="62.652 58.069 62.652 43.739 58.652 43.739 58.652 58.059" fill="none" stroke="#000" stroke-linecap="round" stroke-linejoin="round" stroke-miterlimit="10" stroke-width="2"/><path d="m54.97 58.049s2-13-10-13c-3.1919 2.1279-5.9264 3.5985-9 3.5922h0.125c-3.0736 0.0063-5.8082-1.4643-9-3.5922-12 0-10 13-10 13" fill="none" stroke="#000" stroke-linecap="round" stroke-linejoin="round" stroke-miterlimit="10" stroke-width="2"/><line x1="22.162" x2="22.162" y1="46.001" y2="58.035" fill="none" stroke="#000" stroke-linecap="round" stroke-linejoin="round" stroke-miterlimit="10" stroke-width="2"/><line x1="49.653" x2="49.653" y1="46.001" y2="58.064" fill="none" stroke="#000" stroke-linecap="round" stroke-linejoin="round" stroke-miterlimit="10" stroke-width="2"/><polyline points="27.301 45.305 27.301 58.035 44.749 58.021 44.749 45.284" fill="none" stroke="#000" stroke-linecap="round" stroke-linejoin="round" stroke-miterlimit="10" stroke-width="2"/><path d="m24.724 24.994c-0.2098 1.0778-0.321 2.2038-0.321 3.3623 0 0.7929 0.0521 1.5707 0.1523 2.3282l-0.4737-0.5234s-4.6525-6.8512 2.5534-13.891h18.213c7.206 7.0394 2.5535 13.891 2.5535 13.891l-5.6599-12.624s-1.4782 3.8056-5.6542 3.4931c0 0 1.0645-4.7593-0.2835-4.7593 0 0-5.1834 6.2171-11.073 8.7249" fill="none" stroke="#000" stroke-miterlimit="10"/><path d="m24.952 24.994c-0.2097 1.0778-0.3209 2.2038-0.3209 3.3623 0 7.8276 5.0764 14.173 11.339 14.173 5.9698 0 10.862-5.7671 11.306-13.087" fill="none" stroke="#000" stroke-miterlimit="10" stroke-width="2"/><path d="m45.077 16.27c7.2059 7.0394 2.5534 13.891 2.5534 13.891l-5.6599-12.624s-1.4782 3.8056-5.6542 3.4931c0 0 1.0646-4.7593-0.2834-4.7593 0 0-5.1834 6.2171-11.073 8.7249" fill="none" stroke="#000" stroke-linecap="round" stroke-linejoin="round" stroke-miterlimit="10" stroke-width="2"/><path d="m24.31 30.161s-4.6525-6.8512 2.5534-13.891" fill="none" stroke="#000" stroke-linecap="round" stroke-linejoin="round" stroke-miterlimit="10" stroke-width="2"/><polyline points="27.185 16.27 27.185 8.0684 35.97 9.4857 44.755 8.0684 44.755 16.27" fill="none" stroke="#000" stroke-linecap="round" stroke-linejoin="round" stroke-miterlimit="10" stroke-width="2"/><line x1="27.185" x2="44.755" y1="12.765" y2="12.765" fill="none" stroke="#000" stroke-linecap="round" stroke-linejoin="round" stroke-miterlimit="10" stroke-width="2"/><line x1="19.513" x2="52.081" y1="16.27" y2="16.27" fill="none" stroke="#000" stroke-linecap="round" stroke-linejoin="round" stroke-miterlimit="10" stroke-width="2"/></g></svg>
