<svg xmlns="http://www.w3.org/2000/svg" id="a" version="1.1" viewBox="0 0 72 72"><g id="b"><path fill="#92D3F5" d="M6,61v-3.3C6,54,9.7,51,13.4,51c4.4,3.7,8.8,3.7,13.3,0c3.7,0,7.4,3,7.4,6.7V61"/><path fill="#92D3F5" d="M38,61v-3.3c0-3.7,3.7-6.7,7.4-6.7c4.4,3.7,8.8,3.7,13.3,0c3.7,0,7.4,3,7.4,6.7V61"/><path fill="#EA5A47" d="m36 11.7c1.1-2.4 4-3.4 6.3-2.2s3.3 4 2.2 6.4c-0.1 0.3-0.3 0.5-0.4 0.7l-8.1 10.4-8.1-10.4c-0.2-0.2-0.3-0.5-0.4-0.7-1.1-2.4-0.1-5.2 2.2-6.4s5.2-0.2 6.3 2.2z"/></g><g id="c"><g id="d"><path fill="#a57939" d="m43.2 25.2c0 0.3 13.2-6.8 15.7 1.4 0 0 3.5 1.7 2.8 7.5-0.1 1-0.1 3.3-1.1 4.3l-2.8-7.1s-7.4 2.8-12.4-0.6l-2.3 7.5s-0.9-1.3-1-3c0 0-0.4-4 0.4-5.4 0.2 0 1.7-2.6 0.7-4.6z"/></g><g id="e"><path fill="#a57939" d="m9.1 31.2c0.6-8.7 7.2-8.8 10.5-8.3 0.3 0.1 1.2 0 1.5 0 6-0.8 9 6 9 9 0 1.1 0 3.8-1.5 5.3 0 0-3.4-4.2-3.6-6.6 0 0-11.4 4.3-12.2 0.6 0 0-0.8 3-1.5 3.8v3s-2.5-3-2.2-6.8z"/></g></g><g id="f"><g id="g"><path fill="#fadcbc" d="m57.8 31.3s-7.4 2.8-12.4-0.6l-2.1 6.8c0.3 5.8 4.1 10.5 8.7 10.5 4.4 0 8-4.2 8.6-9.6l-2.8-7.1z"/></g><g id="h"><path fill="#fadcbc" d="m25 30.8s-11.4 4.3-12.2 0.6c0 0-0.8 3-1.5 3.8v3c0.6 5.5 4.2 9.8 8.6 9.8 4.6 0 8.4-4.7 8.7-10.6-0.3-0.4-3.4-4.3-3.6-6.6z"/></g></g><g id="i"><path fill="none" stroke="#000" stroke-miterlimit="10" stroke-width="2" d="m60.6 35.6v1.2c0 6.2-3.9 11.3-8.7 11.3s-8.7-5.1-8.7-11.3v-0.7"/><path fill="none" stroke="#000" stroke-linejoin="round" stroke-miterlimit="10" stroke-width="2" d="m43.2 25.2c0 0.3 13.2-6.8 15.7 1.4 0 0 3.5 1.7 2.8 7.5-0.1 1-0.1 3.3-1.1 4.3l-2.8-7.1s-7.4 2.8-12.4-0.6l-2.3 7.5s-0.9-1.3-1-3c0 0-0.4-4 0.4-5.4 0.2 0 1.7-2.6 0.7-4.6z"/><path fill="none" stroke="#000" stroke-linecap="round" stroke-linejoin="round" stroke-width="2" d="m36 11.7c1.1-2.4 4-3.4 6.3-2.2s3.3 4 2.2 6.4c-0.1 0.3-0.3 0.5-0.4 0.7l-8.1 10.4-8.1-10.4c-0.2-0.2-0.3-0.5-0.4-0.7-1.1-2.4-0.1-5.2 2.2-6.4s5.2-0.2 6.3 2.2v0z"/><path fill="none" stroke="#000" stroke-miterlimit="10" stroke-width="2" d="m28.6 36.1v0.7c0 6.2-3.9 11.3-8.7 11.3s-8.7-5.1-8.7-11.3v-0.7"/><path fill="none" stroke="#000" stroke-linecap="round" stroke-linejoin="round" stroke-width="2" d="m9.1 31.4c0.6-8.7 7.2-8.8 10.5-8.3 0.3 0.1 1.2 0 1.5 0 6-0.8 9 6 9 9 0 1.1 0 3.8-1.5 5.3 0 0-3.4-4.2-3.6-6.6 0 0-11.4 4.3-12.2 0.6 0 0-0.8 3-1.5 3.8v3s-2.5-3-2.2-6.8z"/><path fill="none" stroke="#000" stroke-linecap="round" stroke-linejoin="round" stroke-width="2" d="M6,60v-2.3 C6,54,9.7,51,13.4,51c4.4,3.7,8.8,3.7,13.3,0c3.7,0,7.4,3,7.4,6.7V60"/><path d="m24.2 37.4c0 0.8-0.6 1.4-1.4 1.4s-1.4-0.6-1.4-1.4 0.6-1.4 1.4-1.4 1.4 0.7 1.4 1.4"/><path d="m18.6 37.4c0 0.8-0.6 1.4-1.4 1.4s-1.4-0.6-1.4-1.4 0.6-1.4 1.4-1.4 1.4 0.7 1.4 1.4"/><path fill="none" stroke="#000" stroke-linecap="round" stroke-linejoin="round" stroke-width="2" d="m17.9 43.2c1.3 0.7 2.9 0.7 4.2 0"/><path d="m56.2 37.7c0 0.8-0.6 1.4-1.4 1.4s-1.4-0.6-1.4-1.4 0.6-1.4 1.4-1.4 1.4 0.6 1.4 1.4"/><path d="m50.6 37.7c0 0.8-0.6 1.4-1.4 1.4s-1.4-0.6-1.4-1.4 0.6-1.4 1.4-1.4 1.4 0.6 1.4 1.4"/><path fill="none" stroke="#000" stroke-linecap="round" stroke-linejoin="round" stroke-width="2" d="m49.9 43.4c1.3 0.7 2.9 0.7 4.2 0"/><path fill="none" stroke="#000" stroke-linecap="round" stroke-linejoin="round" stroke-width="2" d="m38 60v-2.3c0-3.7 3.7-6.7 7.4-6.7 4.4 3.7 8.8 3.7 13.3 0 3.7 0 7.4 3 7.4 6.7v2.3"/></g></svg>