<?xml version="1.0" encoding="UTF-8"?>
<svg id="a" version="1.1" viewBox="0 0 72 72" xmlns="http://www.w3.org/2000/svg"><g id="b"><path d="m36 14.7c1.1-2.4 4-3.4 6.3-2.2s3.3 4 2.2 6.4c-0.1 0.3-0.3 0.5-0.4 0.7l-8.1 10.4-8.1-10.4c-0.2-0.2-0.3-0.5-0.4-0.7-1.1-2.4-0.1-5.2 2.2-6.4s5.2-0.2 6.3 2.2z" fill="#EA5A47"/></g><g id="c"><g id="d"><path d="m9.5 35.8c0.6-8.8 7.3-8.9 10.6-8.3 0.3 0.1 1.2 0 1.5 0 6.1-0.8 9.1 6.1 9.1 9.1 0 1.1 0 3.8-1.5 5.3 0 0-3.5-4.2-3.6-6.6 0 0-11.5 4.4-12.3 0.6 0 0-0.8 3-1.5 3.8v3c0-0.1-2.6-3.2-2.3-6.9z"/></g><g id="e"><path d="m38.7 55c-3-4.5-0.6-8.8 0.8-12.3 1.2-3.2-0.2-4.9 1-9.1 1.1-4.2 5.5-6.8 10.4-6.8 4.1 0 6.1 2.3 6.1 2.3 3.2 0.3 5.6 2.9 5.6 6.1 0.3 5.4 0.8 5.4 2.6 9.7 1.3 3.1 0.8 7.6-1.4 10.2"/></g></g><g id="f"><g id="g"><path d="m25.6 35.3s-11.5 4.4-12.3 0.6c0 0-0.7353 2.7525-1.4128 3.6849-0.0514 0.4968-0.0872 1-0.0872 1.5151 0 6.2408 3.8951 11.3 8.7 11.3 4.6063 0 8.3665-4.6531 8.6703-10.536-0.3004-0.3651-3.475-4.2772-3.5703-6.5639z" fill="#6a462f"/></g><g id="h"><path d="m43.2 41.9c0 6.1 3.8 10.6 8.3 10.6s8.3-4.5 8.3-10.6c0-3.8-1.5-6.1-4.5-9.1-3 3-12.1 6.8-12.1 8.3v0.8z" fill="#6a462f"/></g></g><g id="i" fill="none" stroke="#000" stroke-width="2"><path d="m29.2 40.2v0.9c0 6.3-3.9 11.3-8.7 11.3s-8.7-5.1-8.7-11.3v-0.7" stroke-miterlimit="10"/><path d="m20.2 47.4c0.6 0.7 1.4 0.7 2.1 0" stroke-linecap="round" stroke-linejoin="round"/><path d="m22.5 41.8s1.5 1.5 3 0" stroke-linecap="round" stroke-miterlimit="10"/><path d="m14.9 41.1s1.5 1.5 3 0" stroke-linecap="round" stroke-miterlimit="10"/><path d="m9.5 35.8c0.6-8.8 7.3-8.9 10.6-8.3 0.3 0.1 1.2 0 1.5 0 6.1-0.8 9.1 6.1 9.1 9.1 0 1.1 0 3.8-1.5 5.3 0 0-3.5-4.2-3.6-6.6 0 0-11.5 4.4-12.3 0.6 0 0-0.8 3-1.5 3.8v3c0-0.1-2.6-3.2-2.3-6.9z" stroke-linecap="round" stroke-linejoin="round"/><path d="m36 14.7c1.1-2.4 4-3.4 6.3-2.2s3.3 4 2.2 6.4c-0.1 0.3-0.3 0.5-0.4 0.7l-8.1 10.4-8.1-10.4c-0.2-0.2-0.3-0.5-0.4-0.7-1.1-2.4-0.1-5.2 2.2-6.4s5.2-0.2 6.3 2.2v0z" stroke-linecap="round" stroke-linejoin="round"/><path d="m38.7 54c-3-4.5-0.6-7.8 0.8-11.3 1.2-3.2-0.2-4.9 1-9.1 1.1-4.2 5.5-6.8 10.4-6.8 4.1 0 6.1 2.3 6.1 2.3 3.2 0.3 5.6 2.9 5.6 6.1 0.3 5.4 0.8 5.4 2.6 9.7 1.3 3.1 0.8 6.6-1.4 9.2" stroke-linecap="round" stroke-linejoin="round"/><path d="m43.2 41.9c0 6.1 3.8 10.6 8.3 10.6s8.3-4.5 8.3-10.6c0-3.8-1.5-6.1-4.5-9.1-3 3-12.1 6.8-12.1 8.3v0.8z" stroke-linejoin="round" stroke-miterlimit="10"/><path d="m49.2 47.4c0.6 0.8 1.4 0.8 2.1 0" stroke-linecap="round" stroke-linejoin="round"/><path d="m53.9 41.1s1.5 1.5 3 0" stroke-linecap="round" stroke-miterlimit="10"/><path d="m46.3 41.8s1.5 1.5 3 0" stroke-linecap="round" stroke-miterlimit="10"/></g></svg>
