<svg xmlns="http://www.w3.org/2000/svg" id="a" version="1.1" viewBox="0 0 72 72"><g id="b"><path fill="#FFA7C0" d="m50.058 58.84c0-4.0115 3.8632-8.1267 3.8632-8.1267l-2.1081-3.3567c-4.4249-0.4802-6.0588 8.7658-6.0588 8.7658-3.6822-4.6369-9.8914 0.17-9.8914 0.17s-6.3702-4.8069-10.052-0.17c0 0-1.6339-9.246-6.0587-8.7658l-2.1081 3.3567s3.8632 4.1152 3.8632 8.1267h28.551z"/><polygon fill="#FCEA2B" points="31.44 17.56 31.442 7.817 34.557 10.468 35.972 6.923 37.441 10.332 40.285 7.817 40.285 17.56"/></g><g id="c" fill="#F4AA41"><path d="m44.662 14.181c-1.3679-0.8802-2.7359-1.5522-4.1038-2.0161l-0.2729 5.3958h-8.6702l0.0319-5.4733c-1.4461 0.4652-2.8922 1.1631-4.3383 2.0936-15.312 15.276 6.6157 9.8224 8.6766 4.5452 2.0609 5.2772 23.989 10.731 8.6767-4.5452z"/><path d="m23.813 44.829c0.9169-0.246 1.9445-0.389 3.1118-0.389 3.17 2.1047 5.8895 3.5601 8.9375 3.574 3.048-0.0139 5.7675-1.4693 8.9375-3.574 1.2405 0 2.3238 0.1609 3.2828 0.4369 0.7167-0.5253 1.4333-1.0814 2.15-1.7 3.1968-3.5804 0.3021-14.826-0.9258-19.006-8.8832-8.316-17.766-8.3165-26.65 0-1.2279 4.18-4.1231 15.425-0.9258 19.006 0.6938 0.5989 1.3877 1.1407 2.0816 1.6521z"/></g><g id="d" fill="#FCEA2B"><path d="m17.7 50.775c-1.3542 3.8632-0.7748 8.0626-0.7748 8.0626h4.5813c-0.0014-3.7331-3.3433-7.5512-3.8065-8.0626z"/><path d="m44.8 44.44c-3.17 2.1047-5.8895 3.5601-8.9375 3.574-3.048-0.0139-5.7675-1.4693-8.9375-3.574-5.3155 0-7.8812 2.8254-9.0933 5.9727l1.9196-3.0566c4.4248-0.4802 6.0587 8.7658 6.0587 8.7658 3.6823-4.6369 10.052 0.17 10.052 0.17s6.2092-4.8069 9.8914-0.17c0 0 1.6339-9.246 6.0588-8.7658l2.1081 3.3567s-3.8616 4.1138-3.863 8.1245h4.7422s2-14.397-10-14.397z"/><path d="m36.013 19.38s3.5238 5.175 11.1 5.7564c0.1564 0.9382 0.2386 1.9103 0.2386 2.9065 0 7.8277-5.0765 14.173-11.339 14.173s-11.339-6.3456-11.339-14.173c0-1.0109 0.0847-1.9971 0.2456-2.9481 7.0648-1.2683 11.093-5.7148 11.093-5.7148z"/></g><g id="e"><path d="m41.985 26.981c0 1.1045-0.8965 2-2 2s-2-0.8955-2-2c0-1.1035 0.8965-2 2-2s2 0.8965 2 2"/><path d="m33.985 26.981c0 1.1045-0.8965 2-2 2s-2-0.8955-2-2c0-1.1035 0.8965-2 2-2s2 0.8965 2 2"/><path d="m35.985 36.983c-1.1518 0-2.3037-0.2861-3.4472-0.8579-0.4942-0.2471-0.6944-0.8477-0.4473-1.3418 0.2466-0.4937 0.8462-0.6943 1.3418-0.4473 1.7178 0.8594 3.3877 0.8594 5.1055 0 0.4946-0.247 1.0947-0.0464 1.3418 0.4473 0.247 0.4941 0.0468 1.0947-0.4473 1.3418-1.1436 0.5718-2.2954 0.8579-3.4473 0.8579z"/><path fill="none" stroke="#000" stroke-miterlimit="10" stroke-width="2" d="m24.967 24.98c-0.2096 1.0775-0.3208 2.2032-0.3208 3.3613 0 7.8276 5.0765 14.173 11.339 14.173 6.2622 0 11.339-6.3456 11.339-14.173 0-1.1582-0.1111-2.2839-0.3208-3.3614"/><path fill="none" stroke="#000" stroke-linecap="round" stroke-linejoin="round" stroke-miterlimit="10" stroke-width="2" d="m16.925 57.834s-2-13 10-13c3.1919 2.1279 5.9264 3.5984 9 3.5921h-0.125c3.0736 0.0063 5.8081-1.4642 9-3.5921 12 0 10 13 10 13"/><polygon fill="none" stroke="#000" stroke-linecap="round" stroke-linejoin="round" stroke-miterlimit="10" stroke-width="2" points="31.44 17.56 31.442 7.817 34.557 10.468 35.972 6.923 37.441 10.332 40.285 7.817 40.285 17.56"/><path fill="none" stroke="#000" stroke-linecap="round" stroke-linejoin="round" stroke-miterlimit="10" stroke-width="2" d="m17.643 50.713s3.8632 3.1152 3.8632 7.1267"/><path fill="none" stroke="#000" stroke-linecap="round" stroke-linejoin="round" stroke-miterlimit="10" stroke-width="2" d="m51.813 47.356c-4.4249-0.4802-6.0588 8.7658-6.0588 8.7658-3.6822-4.6369-9.8914 0.17-9.8914 0.17s-6.3702-4.8069-10.052-0.17c0 0-1.6339-9.246-6.0587-8.7658"/><path fill="none" stroke="#000" stroke-linecap="round" stroke-linejoin="round" stroke-miterlimit="10" stroke-width="2" d="m53.921 50.713s-3.8632 3.1252-3.8632 7.1367"/><path fill="none" stroke="#000" stroke-linecap="round" stroke-linejoin="round" stroke-miterlimit="10" stroke-width="2" d="m44.269 15.055c14.569 14.536-6.295 9.3461-8.256 4.3248-1.9611 5.0213-22.825 10.211-8.2561-4.3248"/><path fill="none" stroke="#000" stroke-linecap="round" stroke-linejoin="round" stroke-miterlimit="10" stroke-width="2" d="m23.056 23.826c-1.1906 4.0541-3.9987 14.961-0.898 18.434"/><path fill="none" stroke="#000" stroke-linecap="round" stroke-linejoin="round" stroke-miterlimit="10" stroke-width="2" d="m48.904 23.826c1.1906 4.0541 3.9986 14.961 0.8979 18.434"/></g></svg>