<?xml version="1.0" encoding="UTF-8"?>
<svg id="a" viewBox="0 0 72 72" xmlns="http://www.w3.org/2000/svg"><g id="b"><path d="m48.856 16c3-2 4-5 3-9 7 2 6 10 3 15" fill="#D22F27"/><path d="m23.144 16c-3-2-4-5-3-9-7 2-6 10-3 15" fill="#D22F27"/><path d="m36 13c-12.682 0-23 10.318-23 23s10.318 23 23 23c12.682 0 23-10.318 23-23 0-12.682-10.318-23-23-23z" fill="#EA5A47"/></g><g id="c"><circle cx="36" cy="36" r="23" fill="none" stroke="#000" stroke-miterlimit="10" stroke-width="2"/><path d="m30 32.925c0 1.6567-1.3448 3-3 3-1.6553 0-3-1.3433-3-3 0-1.6553 1.3447-3 3-3 1.6552 0 3 1.3448 3 3"/><path d="m48 32.925c0 1.6567-1.3447 3-3 3s-3-1.3433-3-3c0-1.6553 1.3447-3 3-3s3 1.3448 3 3"/><line x1="23" x2="30" y1="25" y2="29" fill="none" stroke="#000" stroke-linecap="round" stroke-linejoin="round" stroke-miterlimit="10" stroke-width="2"/><line x1="49" x2="42" y1="25" y2="29" fill="none" stroke="#000" stroke-linecap="round" stroke-linejoin="round" stroke-miterlimit="10" stroke-width="2"/><path d="m48.856 16c3-2 4-5 3-9 7 2 6 10 3 15" fill="none" stroke="#000" stroke-linecap="round" stroke-linejoin="round" stroke-miterlimit="10" stroke-width="2"/><path d="m23.144 16c-3-2-4-5-3-9-7 2-6 10-3 15" fill="none" stroke="#000" stroke-linecap="round" stroke-linejoin="round" stroke-miterlimit="10" stroke-width="2"/><path d="m29.5 44c1.2841-0.6376 3.9847-1.0308 6.8421-0.9981 2.6235 0.03 4.9897 0.4146 6.1579 0.9981" fill="none" stroke="#000" stroke-linecap="round" stroke-linejoin="round" stroke-miterlimit="10" stroke-width="2"/></g></svg>
