<?xml version="1.0" encoding="UTF-8"?>
<svg id="a" viewBox="0 0 72 72" xmlns="http://www.w3.org/2000/svg"><g id="b"><path d="m56.727 32.378c0 5.4783-1.6721 11.051-4.2 15.913-0.6345 1.2206-1.8548 1.5903-2.5843 2.7088-0.608 0.9322-0.7125 2.6309-1.37 3.476-3.9933 5.1332-8.7616 8.524-12.63 8.524-3.8271 0-8.5351-3.3188-12.502-8.3603-0.6817-0.8663 0.1316-2.6797-0.4981-3.6397-0.5315-0.8103-2.5147-0.755-2.9983-1.6214-2.8522-5.1095-4.786-11.11-4.786-17.001 0-14.961 10.392-22.378 20.784-22.378s20.784 7.417 20.784 22.378z" fill="#D0CFCE"/><path d="m36.943 63c6-5 11.927-48.054 12-49 2.2165 3.118 7.0271 9.8719 7.6517 13.978 1.1644 7.6568-1.9952 13.812-5.001 20.482-5.6507 12.54-14.651 14.54-14.651 14.54" fill="#9B9B9A"/><path d="m22.57 42.348c1.9926 3.7 5.3442 5.7121 7.4861 4.4943 2.1418-1.2178 2.2628-5.2045 0.2702-8.9045s-5.3442-5.7121-7.4861-4.4943-2.2628 5.2046-0.2702 8.9045z" fill="#3F3F3F"/><path d="m49.032 42.348c-1.9926 3.7-5.3442 5.7121-7.4861 4.4943-2.1418-1.2178-2.2628-5.2045-0.2702-8.9045s5.3442-5.7121 7.4861-4.4943c2.1418 1.2179 2.2628 5.2046 0.2702 8.9045z" fill="#3F3F3F"/></g><g id="c" fill="none" stroke="#000" stroke-miterlimit="10" stroke-width="2"><path d="m30.746 53.669c0.4295 0.4051 2.3337 2.11 5.1016 1.9273 2.2456-0.1483 3.7515-1.4526 4.2513-1.9273" stroke-linecap="round" stroke-linejoin="round"/><path d="m22.57 42.348c1.9926 3.7 5.3442 5.7121 7.4861 4.4943 2.1418-1.2178 2.2628-5.2045 0.2702-8.9045s-5.3442-5.7121-7.4861-4.4943-2.2628 5.2046-0.2702 8.9045z"/><path d="m35.943 63c-10 0-13.51-11.778-13.51-11.778s-7.2745-5.8889-7.2745-18.844c0-14.961 10.392-22.378 20.784-22.378s20.784 7.417 20.784 22.378c0 12.956-7.0698 18.38-7.2745 18.844-4.1569 9.4222-9.1311 11.778-13.51 11.778z" stroke-linecap="round" stroke-linejoin="round"/><path d="m49.032 42.348c-1.9926 3.7-5.3442 5.7121-7.4861 4.4943-2.1418-1.2178-2.2628-5.2045-0.2702-8.9045s5.3442-5.7121 7.4861-4.4943c2.1418 1.2179 2.2628 5.2046 0.2702 8.9045z"/></g></svg>
