<svg xmlns="http://www.w3.org/2000/svg" id="a" version="1.1" viewBox="0 0 72 72"><g id="b"><path fill="#92D3F5" d="m54.071 58.897s2-13.797-10-13.797c-3.1919 2.1193-5.9264 3.5838-9 3.5775h0.125c-3.0736 0.0063-5.8082-1.4582-9-3.5775-12 0-10 13.797-10 13.797"/><path fill="#61B2E4" d="m43.101 49.125c5.4463 2.2601 5.5866 6.8076 6.1478 9.7535h5.0205s2.1603-14.925-9.6229-14.925"/><path fill="#E27022" d="m49.1 58.897v-13.073l-4.096-0.7271c-2.3626 5.5058-5.0143 10.899-6.8354 13.8h10.931z"/><path fill="#E27022" d="m33.72 58.897c-1.8211-2.9012-4.4729-8.2944-6.8355-13.8l-4.3245 0.7271v13.073l11.16 2e-4z"/><path fill="#F1B31C" d="m46.927 21.282-0.04 0.1c-0.38-0.13-0.79-0.26-1.23-0.39-2.11-0.62-4.99-1.16-8.56-1.16v-2.57h2.89l0.06-5.96c6.84 1.21 6.88 9.98 6.88 9.98z"/><path fill="#F1B31C" d="m37.097 17.262v2.57c-0.34 0-0.68 0.01-1.03 0.02h-0.16c-0.03 0-0.06-0.01-0.08 0-4.02-0.11-7.21 0.47-9.5 1.13v0.01c-0.59 0.17-1.12 0.35-1.59 0.53l-0.09-0.24s0.05-9.2 7.4-10.06l-0.06 6.04h5.11z"/><polygon fill="#FCEA2B" points="44.423 58.948 47.911 45.723 45.976 45.22 42.187 58.945"/><polygon fill="#FCEA2B" points="27.172 58.948 23.683 45.723 25.619 45.22 29.407 58.945"/><path fill="#FCEA2B" d="m40.047 11.302-0.06 5.96h-8l0.06-6.04c1.59-2.81 7.37-2.07 8 0v0.08z"/></g><g id="c" fill="#6a462f"><path d="m35.827 19.852s0.04 0.04 0.12 0.11c-0.92 0.79-6.87 5.73-10.22 4.31l-0.53-0.21c0.28-1.09 0.66-2.12 1.13-3.07v-0.01c2.29-0.66 5.48-1.24 9.5-1.13z"/><path d="m46.787 24.052-0.62 0.22c-3.35 1.42-9.3-3.52-10.22-4.31 0.08-0.07 0.12-0.11 0.12-0.11 0.35-0.01 0.69-0.02 1.03-0.02 3.57 0 6.45 0.54 8.56 1.16 0.47 0.95 0.85 1.98 1.13 3.06z"/></g><g id="d"><path fill="#c19a65" d="m47.007 25.032c0.21 1.08 0.32 2.21 0.32 3.36 0 7.83-5.08 14.18-11.34 14.18s-11.34-6.35-11.34-14.18c0-1.51 0.19-2.97 0.55-4.33l0.53 0.21c3.35 1.42 9.3-3.52 10.22-4.31 0.92 0.79 6.87 5.73 10.22 4.31l0.62-0.22c0.08 0.32 0.16 0.65 0.22 0.98zm-5.02 2c0-1.1-0.89-2-2-2-1.1 0-2 0.9-2 2 0 1.11 0.9 2 2 2 1.11 0 2-0.89 2-2zm-2.55 9.15c0.49-0.25 0.69-0.85 0.45-1.34-0.25-0.5-0.85-0.7-1.34-0.45-1.72 0.86-3.39 0.86-5.11 0-0.5-0.25-1.1-0.05-1.34 0.45-0.25 0.49-0.05 1.09 0.45 1.34 1.14 0.57 2.29 0.86 3.44 0.86s2.31-0.29 3.45-0.86zm-5.45-9.15c0-1.1-0.89-2-2-2-1.1 0-2 0.9-2 2 0 1.11 0.9 2 2 2 1.11 0 2-0.89 2-2z"/></g><g id="e"><line x1="24.651" x2="28.14" y1="45.472" y2="58.897" fill="none"/><path d="m54.807 58.888c-0.0507 0-0.1015-0.0029-0.1523-0.0107-0.5459-0.084-0.9209-0.5938-0.8379-1.1387 0.0088-0.0576 0.8272-5.7412-2.1289-9.1778-1.4756-1.7148-3.6895-2.6123-6.5859-2.6689-3.3096 2.1846-6.0274 3.5449-9.126 3.5879-0.0215 0.0019-0.044 1e-3 -0.0645 1e-3h-0.0215-0.0458c-0.0137-1e-3 -0.0274 0-0.0411 0-0.0146 0-0.0293 0-0.0439-1e-3 -3.1006-0.043-5.8174-1.4033-9.126-3.5879-2.8965 0.0566-5.1103 0.9541-6.5859 2.6689-2.9561 3.4366-2.1377 9.1202-2.1289 9.1778 0.083 0.5449-0.292 1.0547-0.8379 1.1387-0.5352 0.083-1.0547-0.2901-1.1387-0.836-0.041-0.2695-0.9726-6.6328 2.5811-10.775 1.9228-2.2412 4.7509-3.3769 8.4072-3.3769 0.1973 0 0.3906 0.0586 0.5547 0.1679 3.1523 2.1016 5.6592 3.4092 8.3828 3.4239 2.7226-0.0137 5.2295-1.3213 8.3828-3.4239 0.1641-0.1093 0.3574-0.1679 0.5547-0.1679 3.6562 0 6.4844 1.1357 8.4072 3.3769 3.5537 4.1426 2.6221 10.506 2.5811 10.775-0.0762 0.4942-0.502 0.8467-0.9864 0.8467z"/><path d="m33.766 58.889c-0.333 0-0.6582-0.166-0.8476-0.4688-1.8311-2.916-4.5157-7.5635-6.9073-13.137-0.2177-0.5078 0.0176-1.0957 0.5245-1.3135 0.5068-0.2197 1.0957 0.0166 1.3134 0.5244 2.3409 5.4551 4.9698 10.006 6.7627 12.863 0.294 0.4678 0.1524 1.085-0.3154 1.378-0.165 0.1035-0.3486 0.1533-0.5303 0.1533z"/><path d="m38.213 58.889c-0.1816 0-0.3652-0.0498-0.5303-0.1533-0.4678-0.293-0.6094-0.9102-0.3154-1.378 1.793-2.8574 4.4219-7.4082 6.7627-12.863 0.2168-0.5078 0.8066-0.7431 1.3135-0.5244 0.5068 0.2178 0.7421 0.8057 0.5244 1.3135-2.3916 5.5732-5.0762 10.221-6.9073 13.137-0.1894 0.3028-0.5146 0.4688-0.8476 0.4688z"/><path d="m22.604 58.889c-0.5527 0-1-0.4473-1-1v-12.274c0-0.5527 0.4473-1 1-1s1 0.4473 1 1v12.274c0 0.5527-0.4473 1-1 1z"/><path d="m49.146 58.889c-0.5527 0-1-0.4473-1-1v-12.274c0-0.5527 0.4473-1 1-1s1 0.4473 1 1v12.274c0 0.5527-0.4473 1-1 1z"/><path d="m39.987 25.032c1.11 0 2 0.9 2 2 0 1.11-0.89 2-2 2-1.1 0-2-0.89-2-2 0-1.1 0.9-2 2-2z"/><path d="m39.887 34.842c0.24 0.49 0.04 1.09-0.45 1.34-1.14 0.57-2.3 0.86-3.45 0.86s-2.3-0.29-3.44-0.86c-0.5-0.25-0.7-0.85-0.45-1.34 0.24-0.5 0.84-0.7 1.34-0.45 1.72 0.86 3.39 0.86 5.11 0 0.49-0.25 1.09-0.05 1.34 0.45z"/><path d="m31.987 25.032c1.11 0 2 0.9 2 2 0 1.11-0.89 2-2 2-1.1 0-2-0.89-2-2 0-1.1 0.9-2 2-2z"/><path fill="none" stroke="#000" stroke-miterlimit="10" stroke-width="2" d="m26.327 20.992c-0.47 0.95-0.85 1.98-1.13 3.07-0.36 1.36-0.55 2.82-0.55 4.33 0 7.83 5.08 14.18 11.34 14.18s11.34-6.35 11.34-14.18c0-1.15-0.11-2.28-0.32-3.36-0.06-0.33-0.14-0.66-0.22-0.98-0.28-1.08-0.66-2.11-1.13-3.06"/><path fill="none" stroke="#000" stroke-linecap="round" stroke-linejoin="round" stroke-miterlimit="10" stroke-width="2" d="m26.327 20.992c-0.59 0.17-1.12 0.35-1.59 0.53-1.74 0.64-2.65 1.22-2.65 1.22"/><line x1="26.327" x2="26.327" y1="20.982" y2="20.992" fill="none" stroke="#000" stroke-miterlimit="10" stroke-width="2"/><path fill="none" stroke="#000" stroke-linecap="round" stroke-linejoin="round" stroke-miterlimit="10" stroke-width="2" d="m49.887 22.742s-1.03-0.66-3-1.36c-0.38-0.13-0.79-0.26-1.23-0.39-2.11-0.62-4.99-1.16-8.56-1.16-0.34 0-0.68 0.01-1.03 0.02h-0.16c-0.03 0-0.06-0.01-0.08 0-4.02-0.11-7.21 0.47-9.5 1.13"/><path fill="none" stroke="#000" stroke-linecap="round" stroke-linejoin="round" stroke-miterlimit="10" stroke-width="2" d="m40.047 11.302v-0.08c-0.63-2.07-6.41-2.81-8 0l-0.06 6.04h8l0.06-5.96z"/><path fill="none" stroke="#000" stroke-miterlimit="10" stroke-width="2" d="m24.647 21.282s0.05-9.2 7.4-10.06"/><path fill="none" stroke="#000" stroke-miterlimit="10" stroke-width="2" d="m46.927 21.282s-0.04-8.77-6.88-9.98c-0.16-0.03-0.34-0.06-0.51-0.08"/><path fill="none" stroke="#000" stroke-linecap="round" stroke-miterlimit="10" stroke-width="2" d="m36.067 19.852s-0.04 0.04-0.12 0.11c-0.92 0.79-6.87 5.73-10.22 4.31l-0.53-0.21h-0.01"/><path fill="none" stroke="#000" stroke-linecap="round" stroke-miterlimit="10" stroke-width="2" d="m35.827 19.852s0.04 0.04 0.12 0.11c0.92 0.79 6.87 5.73 10.22 4.31l0.62-0.22"/></g></svg>