<svg xmlns="http://www.w3.org/2000/svg" id="a" viewBox="0 0 72 72"><g id="b"><path fill="#d0cfce" d="M18.7,52.9H9s1.8,8,6.2,8.8,11.5,0,11.5,0Z"/><path fill="#d0cfce" d="M53.2,52.9H63s-1.8,8-6.2,8.8-11.5,0-11.5,0Z"/><path fill="#9b9b9a" d="m16.1 53.8a11.904 11.904 0 0 0 5.3 7.1l1.3 1.2 4-0.3s-7.9-8.1-7.5-8.9z"/><path fill="#9b9b9a" d="m55.9 53.8a11.904 11.904 0 0 1-5.3 7.1l-1.3 1.2-4-0.3s7.9-8.1 7.5-8.9z"/></g><g id="c"><ellipse cx="35.899" cy="42.699" fill="#6a462f" rx="18.6" ry="20.7" transform="translate(-.5359 .4563) rotate(-.7229)"/></g><g id="d"><path d="m34.7 22.8h5.3c1.3 0-1.9 11.5-5.3 8-0.9-0.8 1-5.2 0-8z"/></g><g id="e"><ellipse cx="36.9" cy="16.2" fill="none" stroke="#000" stroke-linecap="round" stroke-linejoin="round" stroke-width="2" rx="16.4" ry="2.2"/><path fill="none" stroke="#000" stroke-linecap="round" stroke-linejoin="round" stroke-width="2" d="M19.2,52.9H9s1.6,8.9,8,8.9H27.5"/><ellipse cx="36" cy="43" fill="none" stroke="#000" stroke-linecap="round" stroke-linejoin="round" stroke-width="2" rx="18.9" ry="21"/><path fill="none" stroke="#000" stroke-linecap="round" stroke-linejoin="round" stroke-width="2" d="M52.8,52.9H63s-1.6,8.9-8,8.9H44.4"/><path fill="none" stroke="#000" stroke-linecap="round" stroke-linejoin="round" stroke-width="2" d="M40,22.8s1.8,1.8-.9,6.2-8,2.7-8,2.7,3.9-.4,4.4-3.5a5.3323,5.3323,0,0,0-1.8-5.3"/><path d="m31.9 41.8a2.7951 2.7951 0 0 1-2.8 2.8 2.8616 2.8616 0 0 1-2.8-2.8 2.7951 2.7951 0 0 1 2.8-2.8 2.8616 2.8616 0 0 1 2.8 2.8"/><path d="m45.5 41.8a2.8 2.8 0 1 1-2.8-2.8 2.7951 2.7951 0 0 1 2.8 2.8"/><path fill="none" stroke="#000" stroke-linecap="round" stroke-linejoin="round" stroke-width="2" d="m31.4 52.7s5 2.8 9.6 0"/></g></svg>