<?xml version="1.0" encoding="UTF-8"?>
<svg id="a" viewBox="0 0 72 72" xmlns="http://www.w3.org/2000/svg"><g id="b" fill="#fff"><path d="M53.7274,27.1555c-.0057-.0128-.0172-.02-.0234-.0329a.9779.9779,0,0,0-.1238-.1745.9986.9986,0,0,0-.1135-.1358,2.4361,2.4361,0,0,0-.3409-.1927c-.0125-.0041-.0212-.0141-.0341-.0178a1820.9231,1820.9231,0,0,1-.35-.0281.972.972,0,0,0-.1948.0443.93.93,0,0,0-.1394.0317c-.0133.0059-.0212.0178-.0341.0242a.9783.9783,0,0,0-.1756.1249.5626.5626,0,0,0-.2283.2644.9707.9707,0,0,0-.0959.1844c-.0048.0139-.0157.0235-.02.0378a11.2432,11.2432,0,0,1-5.8819,7.0859.9584.9584,0,0,0-.3884.3929.9232.9232,0,0,0-.0715.1042c-1.98,4.6533-5.6133,7.51-9.4541,7.4141-3.1817-.0655-6.1328-2.0967-8.0977-5.5713-.0075-.0136-.0211-.0208-.0293-.0339a.9771.9771,0,0,0-.1578-.1824.9991.9991,0,0,0-.1085-.1018,1.9082,1.9082,0,0,0-.3566-.1571c-.02-.0044-.0353-.0176-.0558-.0209-2.9531-.4775-6.1133-6.7031-7.082-9.0615a.9267.9267,0,0,0-.0759-.1138.67.67,0,0,0-.33-.34.9544.9544,0,0,0-.11-.0785l-.0121-.0026a.9938.9938,0,0,0-.2614-.0589,1.0458,1.0458,0,0,0-.1189-.0245,1.056,1.056,0,0,0-.134.0232,1.0068,1.0068,0,0,0-.248.0473l-.0147.0028a.9461.9461,0,0,0-.134.0893.98.98,0,0,0-.178.1187.97.97,0,0,0-.1482.2071.91.91,0,0,0-.072.1006l-.01.0221-.0009.0018C16.756,30.6417,9.2882,47.9476,13.1766,51.77a2.8859,2.8859,0,0,0,2.1065.8193,6.79,6.79,0,0,0,2.8144-.75c.0113-.0052.0177-.0155.0286-.0212a.9873.9873,0,0,0,.2662-.1972.9467.9467,0,0,0,.0613-.08.979.979,0,0,0,.0863-.1127c1.502-2.6367,4.1367-4.0069,7.8311-4.0762,3.4638,2.2871,6.3047,3.7119,9.542,3.7568.0146.001.03.001.0449.001h.1142c.0215,0,.044,0,.0655-.001,3.2382-.0449,6.0791-1.47,9.542-3.7568,3.5771.0674,6.1621,1.3535,7.6845,3.8272.0172.0278.0449.0431.0644.0687a.99.99,0,0,0,.52.5914,6.79,6.79,0,0,0,2.8145.75,2.8843,2.8843,0,0,0,2.1035-.8164C59.8192,50.8381,62.2626,46.304,53.7274,27.1555Z"/><path d="M51.2157,60.9583H20.9833a1,1,0,0,1-.8135-1.5811c4.3564-6.0977,6.6016-6.0557,10.8672-5.4053a30.9193,30.9193,0,0,0,4.9883.4522,33.029,33.029,0,0,0,5.2382-.459c4.3213-.6465,6.4161-.6748,10.7657,5.4121a1,1,0,0,1-.8135,1.5811Z"/></g><g id="c" fill="#fadcbc"><path d="M54.1483,48.8685c-2.0039-2.336-4.9531-3.52-8.7666-3.52a1.0008,1.0008,0,0,0-.5547.168c-3.3076,2.206-5.9385,3.5781-8.8017,3.5928-2.8614-.0147-5.4932-1.3877-8.8018-3.5928a1.0008,1.0008,0,0,0-.5547-.168c-3.8135,0-6.7617,1.1836-8.7656,3.5186-3.7061,4.32-2.7344,10.9619-2.6914,11.2431a1.0006,1.0006,0,0,0,.9883.8477h4.7832a1,1,0,0,1-.8135-1.5811c4.3564-6.0976,6.6016-6.0556,10.8672-5.4052a30.9206,30.9206,0,0,0,4.9883.4521,33.0172,33.0172,0,0,0,5.2382-.459c4.3213-.6464,6.4161-.6748,10.7657,5.4121a1,1,0,0,1-.8135,1.5811h4.6357a1.0006,1.0006,0,0,0,.9883-.8477C56.8827,59.8294,57.8544,53.1888,54.1483,48.8685Z"/><path d="m36.036 45.462a10.814 10.814 0 0 1-7.69-3.3613 16.272 16.272 0 0 1-4.31-11.651 21.987 21.987 0 0 1 2.2246-8.6084 1 1 0 0 1 1.5088-0.375 9.1705 9.1705 0 0 0 9.7236 0.2188c3.1934-1.7471 5.5772-2.3741 7.0782-1.8662a1.9835 1.9835 0 0 1 1.23 1.0029 27.136 27.136 0 0 1 2.2984 9.6406c0 8.2715-5.4122 15-12.064 15z"/></g><g id="d"><path d="m36.099 11.462c-9 0-14 6-14 12 0 6.29 0.8126 12.562 3.1527 13.774a15.339 15.339 0 0 1-1.2157-6.7862 23.234 23.234 0 0 1 2.2246-8.6084 1.3246 1.3246 0 0 1 1.5088-0.375c3.1729 2.04 5.71 1.6085 8.3512 0.9874 2.079-0.4873 4.5534-2.6732 8.0778-2.6732a3.1338 3.1338 0 0 1 1.6023 1.0418c0.1269 0.2539 2.2988 5.714 2.2988 9.6406a19.417 19.417 0 0 1-1.3508 6.8673c2.4936-0.9508 3.35-7.4026 3.35-13.867 3e-4 -6.0005-4.9997-12-14-12z" fill="#a57939"/></g><g id="e"><path d="m16.2 59.958s-2.0938-13.61 10.469-13.61c3.3416 2.2277 6.2043 3.7671 9.4221 3.7605h-0.131c3.2177 0.0066 6.0806-1.5328 9.4221-3.7605 12.563 0 10.469 13.61 10.469 13.61" fill="none" stroke="#000" stroke-linecap="round" stroke-linejoin="round" stroke-width="2"/><path d="m51.216 59.958c-5.7322-8.0208-6.9511-4.5345-15.19-4.5345-7.8374 0-9.31-3.4863-15.043 4.5345" fill="none" stroke="#000" stroke-linecap="round" stroke-linejoin="round" stroke-width="2"/><path d="m19.245 27.533s-9.8778 22.022-4.7355 23.924" fill="none" stroke="#000" stroke-linecap="round" stroke-linejoin="round" stroke-width="2"/><path d="m52.814 27.563c0.3992 0.896 9.7523 22.025 4.725 23.894" fill="none" stroke="#000" stroke-linecap="round" stroke-linejoin="round" stroke-width="2"/><path d="m26.1 37.462c-3 0-4-7-4-14 0-6 5-12 14-12s14 6 14 12c0 7-1 14-4 14" fill="none" stroke="#000" stroke-linecap="round" stroke-linejoin="round" stroke-width="2"/><path d="m41.972 29.462a2 2 0 1 1-2-2 2 2 0 0 1 2 2"/><path d="m33.972 29.462a2 2 0 1 1-2-2 2 2 0 0 1 2 2"/><path d="m37.972 22.561a10.22 10.22 0 0 1-10.805-0.2971 21.15 21.15 0 0 0-2.1312 8.1978c-0.1015 7.999 4.9365 14 11 14 5.9365 0 11.064-6 11.064-14a26.518 26.518 0 0 0-2.2116-9.2336s-0.8779-1.9692-6.9154 1.3329z" fill="none" stroke="#000" stroke-linejoin="round" stroke-width="2"/><path d="m32.972 37.712a8.2741 8.2741 0 0 0 6 0" fill="none" stroke="#000" stroke-linecap="round" stroke-linejoin="round" stroke-width="2"/><path d="m27.828 17.168s7.5751 3.5795 14.9 0" fill="none" stroke="#000" stroke-linecap="round" stroke-linejoin="round" stroke-width="2"/></g></svg>
