<?xml version="1.0" encoding="UTF-8"?>
<svg id="a" viewBox="0 0 72 72" xmlns="http://www.w3.org/2000/svg"><g id="b" fill="#8967AA"><polygon points="10 21 10 35 13 35 13 38 16 38 16 45 22 45 22 51 27 51 28 51 28 45 44 45 44 51 50 51 50 45 56 45 56 38 59 38 59 35 62 35 62 20 56 20 56 24 56 25 49 25 49 20 45 20 45 14 39 14 39 20 32 20 32 14 26 14 26 20 22 20 22 25 16 25 16 20 10 20"/><rect x="16" y="51" width="6" height="6"/><rect x="50" y="51" width="6" height="6"/></g><g id="c" stroke="#000" stroke-linecap="round" stroke-linejoin="round" stroke-width="2"><rect x="25.175" y="31" width="3.6" height="6"/><polyline points="22 45 16 45 16 39" fill="none"/><polyline points="22.583 25 22.583 20 26 20" fill="none"/><polyline points="48.708 25 48.708 20 45.292 20" fill="none"/><polyline points="13 35 10 35 10 20 16 20 16 35" fill="none"/><polyline points="56 35 56 20 62 20 62 35 59 35" fill="none"/><polyline points="26 20 26 14 32 14 32 20" fill="none"/><polyline points="39 20 39 14 45 14 45 20" fill="none"/><polyline points="16 35 19 35 19 38 13 38 13 35" fill="none"/><polyline points="59 35 59 38 53 38 53 35 56 35" fill="none"/><rect x="16" y="51" width="6" height="6" fill="none"/><rect x="50" y="51" width="6" height="6" fill="none"/><polyline points="28 45 28 51 22 51 22 45" fill="none"/><polyline points="50 45 56 45 56 39" fill="none"/><polyline points="44 45 44 51 50 51 50 45" fill="none"/><rect x="43.425" y="31" width="3.6" height="6"/><path d="m44 45z" fill="none"/><path d="m39 20z" fill="none"/><path d="m16 25z" fill="none"/><path d="m49 25z" fill="none"/><line x1="28" x2="44" y1="45" y2="45" fill="none"/><line x1="32" x2="39" y1="20" y2="20" fill="none"/><line x1="16" x2="22" y1="25" y2="25" fill="none"/><line x1="49" x2="56" y1="25" y2="25" fill="none"/></g></svg>
