<svg xmlns="http://www.w3.org/2000/svg" id="a" viewBox="0 0 72 72"><g id="b"><path fill="#92d3f5" d="m55.008 58.874s1.9935-13.752-9.9672-13.752c-3.1814 2.1124-5.907 3.5721-8.9705 3.5658h0.1246c-3.0635 0.0063-5.7892-1.4534-8.97-3.5658-11.961 0-9.9672 13.752-9.9672 13.752"/><path fill="#61b2e4" d="m44.101 49.125c5.4463 2.26 5.5866 6.8076 6.1478 9.7535h5.02s2.16-14.925-9.6229-14.925"/><path fill="#e27022" d="m50.08 58.886v-13.053l-4.09-0.726a115.94 115.94 0 0 1-6.825 13.779z"/><path fill="#e27022" d="m34.723 58.886a115.94 115.94 0 0 1-6.8251-13.779l-4.3179 0.726v13.053z"/><polygon fill="#fcea2b" points="45.41 58.938 48.893 45.733 46.96 45.231 43.178 58.935"/><polygon fill="#fcea2b" points="28.185 58.938 24.702 45.733 26.634 45.231 30.417 58.935"/><path fill="#f1b31c" d="m47.927 20.282-0.04 0.1q-0.57-0.195-1.23-0.39a30.417 30.417 0 0 0-8.56-1.16v-2.57h2.89l0.06-5.96c6.84 1.21 6.88 9.98 6.88 9.98z"/><path fill="#f1b31c" d="M38.0969,16.2621v2.57c-.34,0-.68.01-1.03.02h-.16c-.03,0-.06-.01-.08,0a31.1621,31.1621,0,0,0-9.5,1.13v.01c-.59.17-1.12.35-1.59.53l-.09-.24s.05-9.2,7.4-10.06l-.06,6.04Z"/><path fill="#fcea2b" d="m41.047 10.302-0.06 5.96h-8l0.06-6.04c1.59-2.81 7.37-2.07 8 0z"/></g><g id="c"><g fill="#6a462f"><polygon points="24 23 24 26 24 30 23 33 22 36 23 39 25 39 27 39 28.132 37.559 28 36 25.815 30.832 25.701 27.032 26.727 22.38 27 21"/><polygon points="50.132 23 50.132 26 50.132 30 51.132 33 52.132 36 51.132 39 49.132 39 47.132 39 46 37.559 46.132 36 48.318 30.832 48.431 27.032 47.405 22.38 47.132 21"/><polygon points="24 23 24 24.375 24 26 29 24 31 23 33 21 33 20 30 20 26.569 21.287 24 22"/><polygon points="49 23 49 24.375 49 26 44 24 42 23 40 21 40 20 43 20 46.431 21.287 49 22"/></g></g><g id="d"><g id="e"><path fill="#fcea2b" d="m48.007 25.032a17.644 17.644 0 0 1 0.32 3.36c0 7.83-5.08 14.18-11.34 14.18s-11.34-6.35-11.34-14.18a10.441 10.441 0 0 1 0.3531-3.3921h1c1.457-0.2256 8.1782-5.8346 9.9469-5.0378-0.5156 0.2384 8.4014 3.7783 9.0531 5.0378l3 1c0.08 0.32-1.0531-1.2979-0.9931-0.9679zm-5.02 2a2 2 0 1 0-2 2 1.9994 1.9994 0 0 0 2-2zm-2.55 9.15a1.0108 1.0108 0 0 0 0.45-1.34 0.9935 0.9935 0 0 0-1.34-0.45 5.383 5.383 0 0 1-5.11 0 1 1 0 0 0-0.89 1.79 7.33 7.33 0 0 0 6.89 0zm-5.45-9.15a2 2 0 1 0-2 2 1.9994 1.9994 0 0 0 2-2z"/></g></g><g id="f"><path d="M55.8066,58.8877a.9956.9956,0,0,1-.99-1.1494c.0088-.0576.8272-5.7412-2.1289-9.1778-1.4756-1.7148-3.69-2.6123-6.5859-2.6689-3.31,2.1846-6.0274,3.5449-9.126,3.5879-.0215.0019-.044.001-.0645.001h-.0673c-.0137-.001-.0274,0-.0411,0s-.0293,0-.0439-.001c-3.1006-.043-5.8174-1.4033-9.126-3.5879-2.8965.0566-5.11.9541-6.5859,2.6689-2.9561,3.4366-2.1377,9.12-2.1289,9.1778a1,1,0,0,1-1.9766.3027c-.041-.2695-.9726-6.6328,2.5811-10.7754,1.9228-2.2412,4.7509-3.3769,8.4072-3.3769a1.0015,1.0015,0,0,1,.5547.1679c3.1523,2.1016,5.6592,3.4092,8.3828,3.4239,2.7226-.0137,5.23-1.3213,8.3828-3.4239a1.0015,1.0015,0,0,1,.5547-.1679c3.6562,0,6.4844,1.1357,8.4072,3.3769,3.5537,4.1426,2.6221,10.5059,2.5811,10.7754A.9991.9991,0,0,1,55.8066,58.8877Z"/><path d="m34.766 58.889a0.9975 0.9975 0 0 1-0.8476-0.4688 97.571 97.571 0 0 1-6.9073-13.137 1 1 0 0 1 1.8379-0.7891 95.718 95.718 0 0 0 6.7627 12.863 1 1 0 0 1-0.8457 1.5313z"/><path d="m39.213 58.889a1 1 0 0 1-0.8457-1.5313 95.694 95.694 0 0 0 6.7628-12.863 1 1 0 1 1 1.8379 0.7891 97.571 97.571 0 0 1-6.9074 13.137 0.9975 0.9975 0 0 1-0.8476 0.4687z"/><path d="m23.604 58.889a1 1 0 0 1-1-1v-12.274a1 1 0 0 1 2 0v12.274a1 1 0 0 1-1 1z"/><path d="m50.146 58.889a1 1 0 0 1-1-1v-12.274a1 1 0 0 1 2 0v12.274a1 1 0 0 1-1 1z"/><path d="m40.987 25.032a2 2 0 1 1-2 2 1.9994 1.9994 0 0 1 2-2z"/><path d="m40.887 34.842a1.0108 1.0108 0 0 1-0.45 1.34 7.33 7.33 0 0 1-6.89 0 1 1 0 0 1 0.89-1.79 5.383 5.383 0 0 0 5.11 0 0.9935 0.9935 0 0 1 1.34 0.45z"/><path d="m32.987 25.032a2 2 0 1 1-2 2 1.9994 1.9994 0 0 1 2-2z"/><path fill="none" stroke="#000" stroke-miterlimit="10" stroke-width="2" d="m25.959 25.1a17.255 17.255 0 0 0-0.3122 3.292c0 7.83 5.08 14.18 11.34 14.18s11.34-6.35 11.34-14.18a17.644 17.644 0 0 0-0.32-3.36"/><path fill="none" stroke="#000" stroke-linecap="round" stroke-linejoin="round" stroke-width="2" d="M27.3269,20.9921c-.59.17-1.12.35-1.59.53a15.0574,15.0574,0,0,0-2.65,1.22"/><line x1="27.327" x2="27.327" y1="20.982" y2="20.992" fill="none" stroke="#000" stroke-miterlimit="10" stroke-width="2"/><path fill="none" stroke="#000" stroke-linecap="round" stroke-linejoin="round" stroke-width="2" d="M50.8869,22.7421a15.9913,15.9913,0,0,0-3-1.36q-.57-.195-1.23-.39a30.4168,30.4168,0,0,0-8.56-1.16c-.34,0-.68.01-1.03.02h-.16c-.03,0-.06-.01-.08,0a31.1621,31.1621,0,0,0-9.5,1.13"/><path fill="none" stroke="#000" stroke-linecap="round" stroke-linejoin="round" stroke-width="2" d="M41.0469,11.3021v-.08c-.63-2.07-6.41-2.81-8,0l-.06,6.04h8Z"/><path fill="none" stroke="#000" stroke-miterlimit="10" stroke-width="2" d="m25.647 21.282s0.05-9.2 7.4-10.06"/><path fill="none" stroke="#000" stroke-miterlimit="10" stroke-width="2" d="M47.9269,21.2821s-.04-8.77-6.88-9.98c-.16-.03-.34-.06-.51-.08"/><g fill="none" stroke="#000" stroke-linecap="round" stroke-width="2"><path stroke-linejoin="round" d="m28.132 37.972c-2.8064 1.7134-4.7476 0.7957-5.8883-0.2888a1.53 1.53 0 0 1-0.1494-2.07c1.9553-2.2983 2.0983-12.871 2.0983-12.871"/><path stroke-linejoin="round" d="m49.698 22.742s0.143 10.572 2.0983 12.871a1.53 1.53 0 0 1-0.1494 2.07c-1.1408 1.0845-3.0819 2.0022-5.8884 0.2888"/><path stroke-miterlimit="10" d="M33.8725,19.8954C32.48,23.0338,25,26,25,26"/><path stroke-miterlimit="10" d="M39,19.8954C40.5491,23.0338,48.8725,26,48.8725,26"/></g></g></svg>