<?xml version="1.0" encoding="UTF-8"?>
<svg id="a" viewBox="0 0 72 72" xmlns="http://www.w3.org/2000/svg"><g id="b"><path d="m17 61v-4c0-5 5-9 10-9 6 5 12 5 18 0 5 0 10 4 10 9v4" fill="#92D3F5"/></g><g id="c"><path d="m26 39c-4 0-4-6-4-13s4-14 14-14 14 7 14 14 0 13-4 13" fill="#FCEA2B"/></g><g id="d"><path d="m24.9 31c0 9 4.9 14 11 14 6 0 11.1-5 11.1-14 0-3-1-5-1-5-3-3-7-8-7-8-4 3-7 6-13 7 0 0-1.1 1-1.1 6z" fill="#fadcbc"/></g><g id="e"><path d="m26 39c-4 0-4-6-4-13s4-14 14-14 14 7 14 14 0 13-4 13" fill="none" stroke="#000" stroke-linecap="round" stroke-linejoin="round" stroke-width="2"/><path d="m17 60v-3c0-5 5-9 10-9 6 5 12 5 18 0 5 0 10 4 10 9v3" fill="none" stroke="#000" stroke-linecap="round" stroke-linejoin="round" stroke-width="2"/><path d="m41.9 30c0 1.1-0.9 2-2 2s-2-0.9-2-2 0.9-2 2-2 2 0.9 2 2"/><path d="m33.9 30c0 1.1-0.9 2-2 2s-2-0.9-2-2 0.9-2 2-2 2 0.9 2 2"/><path d="m24.9 31c0 9 4.9 14 11 14 6 0 11.1-5 11.1-14 0-3-1-5-1-5-3-3-7-8-7-8-4 3-7 6-13 7 0 0-1.1 1-1.1 6z" fill="none" stroke="#000" stroke-linejoin="round" stroke-width="2"/><path d="m33 38c1.9 0.9 4 1 6 0" fill="none" stroke="#000" stroke-linecap="round" stroke-linejoin="round" stroke-width="2"/></g></svg>
