<svg xmlns="http://www.w3.org/2000/svg" id="a" viewBox="0 0 72 72"><g id="b"><path fill="#fff" d="m13.995 51.377c-0.9623-2.069 3.4028-6.2239 6.017-12.082 1.1268-2.5251 1.2295-4.7069 0.738-6.384-1.2826-2.5697-2.3564-3.62-3.4174-6.1225-0.8441-1.991 8.174-0.2897 8.3927-0.3765 0.8853-0.7861 3.2644-9.554 5.4268-12.24 0.9874-1.2266 3.396-2.6415 5.7808-2.5013 2.0182 0.1187 4.1012 1.3013 4.9603 2.3747 2.171 2.7125 4.7139 12.206 5.4308 12.354 1.9302 0.3988 7.9684-1.8974 8.321 0.4119 0.0771 0.5053-1.9201 5.7746-2.2439 6.1147-0.5692 1.348-1.1653 3.3725-0.3164 5.4799 1.2135 3.0123 6.055 8.5856 6.0544 14.024 0 0.1925-0.9263 5.5194-7.6907 3.6474-0.1511-0.0418-0.184-0.1383-0.2678-0.2018-1.5408-1.1691-4.7131-1.7748-7.61-0.9184-3.4167 1.01-2.8112 2.9781-6.954 4.7235-1.0835 0.4565-3.1113 1.2832-5.7731 1.0496-0.7152-0.0628-2.7788-0.2675-4.8115-1.6059-2.9156-1.9198-2.3607-3.9289-4.7879-5.7011-3.2153-2.3478-6.5523-0.5481-7.2491-2.0461z"/><ellipse cx="39.898" cy="23.212" fill="#3F3F3F" rx="1.707" ry="3.187"/><ellipse cx="36.519" cy="30.341" fill="#3F3F3F" rx="1.774" ry="2.125"/><path fill="#d0cfce" d="M40.1212,56.6767C40.8364,56.614,45,55,46.9277,55.153C50.4076,55.4291,54.5728,57.7723,57,56 c3.2152-2.3476,1.2678-3.0961,1.9646-4.5942c0.9623-2.069-3.4028-6.2239-6.017-12.0822c-1.1268-2.5251-1.2295-4.7069-0.738-6.384 c1.2826-2.5697,2.3564-3.62,3.4174-6.1225c0.8441-1.991-8.174-0.2897-8.3927-0.3765c-0.8853-0.7861-1.102-6.8678-3.2644-9.554"/><ellipse cx="33.101" cy="23.212" fill="#3F3F3F" rx="1.707" ry="3.187"/></g><g id="c" fill="none" stroke="#000" stroke-linecap="round" stroke-linejoin="round" stroke-miterlimit="10" stroke-width="2"><ellipse cx="39.878" cy="23.212" rx="1.707" ry="3.187"/><path d="m13.975 51.377c-0.9623-2.069 3.4028-6.2239 6.017-12.082 1.1268-2.5251 1.2295-4.7069 0.738-6.384-1.2826-2.5697-2.3564-3.62-3.4174-6.1225-0.8441-1.991 8.174-0.2897 8.3927-0.3765 0.8853-0.7861 3.2644-9.554 5.4268-12.24 0.9874-1.2266 3.396-2.6415 5.7808-2.5013 2.0182 0.1187 4.1012 1.3013 4.9603 2.3747 2.171 2.7125 4.7139 12.206 5.4308 12.354 1.9302 0.3988 7.9684-1.8974 8.321 0.4119 0.0771 0.5053-1.9201 5.7746-2.2439 6.1147-0.5692 1.348-1.1653 3.3725-0.3164 5.4799 1.2135 3.0123 6.055 8.5856 6.0544 14.024 0 0.1925-0.9263 5.5194-7.6907 3.6474-0.1511-0.0418-4.9809-1.9766-7.8778-1.1202-3.4167 1.01-2.8112 2.9781-6.954 4.7235-1.0835 0.4565-3.1113 1.2832-5.7731 1.0496-0.7152-0.0628-2.7788-0.2675-4.8115-1.6059-2.9156-1.9198-2.3607-3.9289-4.7879-5.7011-3.2154-2.3478-6.5524-0.5481-7.2491-2.0461z"/><ellipse cx="36.499" cy="30.341" rx="1.774" ry="2.125"/><ellipse cx="33.081" cy="23.212" rx="1.707" ry="3.187"/></g></svg>