<svg xmlns="http://www.w3.org/2000/svg" id="a" viewBox="0 0 72 72"><g id="b"><path fill="#b1cc33" d="m54.864 59.107s2-13.797-10-13.797c-3.1918 2.1192-5.9264 3.5837-9 3.5775h0.125c-3.0736 0.0062-5.8081-1.4583-9-3.5775-12 0-10 13.797-10 13.797"/><path fill="#5c9e31" d="m45.257 44.163c-3.1127 2.0751-4.9833 3.24-8.9725 3.8184 12.827 0.404 12.827 7.1793 13.575 11.107h5.02s2.1607-14.926-9.6225-14.926z"/><path fill="#fff" d="m40.018 9.2025c10.25 3.13 10.37 9.6 9.18 13.76h-0.34a49.712 49.712 0 0 1-9.3-10.11l-2.92-0.41a6.8919 6.8919 0 0 0-0.53-3.75l0.06-0.03a13.217 13.217 0 0 1 3.85 0.54z"/><path fill="#fff" d="m40.428 20.632a21.353 21.353 0 0 1-4.13-6.19l-0.13-0.05a9.0785 9.0785 0 0 0 0.47-1.95l2.92 0.41a49.712 49.712 0 0 0 9.3 10.11h0.34a15.582 15.582 0 0 1-1.69 3.87s-0.03-0.02-0.1-0.07a46.092 46.092 0 0 1-6.98-6.13z"/><path fill="#fff" d="m40.428 20.632c-3.74 3.57-8.33 0-8.33 0a18.72 18.72 0 0 0 4.07-6.24l0.13 0.05a21.353 21.353 0 0 0 4.13 6.19z"/><path fill="#fff" d="m36.108 8.6925a6.8919 6.8919 0 0 1 0.53 3.75 9.0785 9.0785 0 0 1-0.47 1.95 18.72 18.72 0 0 1-4.07 6.24 39.454 39.454 0 0 1-4.08 3.79c-1.58 1.28-2.84 2.13-3.17 2.35l-0.09 0.06s-8.34-12.79 7.5-17.63a13.103 13.103 0 0 1 3.84-0.54c0 0.01 0.01 0.02 0.01 0.03z"/><path fill="#d0cfce" d="m40.951 9.512s5.4813 8.9463 1.1446 12.828l5.4149 4.4923s8.3123-12.222-6.5595-17.32z"/></g><g id="c"><path fill="#fcea2b" d="m45.828 35.882a17.201 17.201 0 0 1-9.17 8.38 1.45 1.45 0 0 1-1.12 0.01 17.597 17.597 0 0 1-9.52-9.15 18.572 18.572 0 0 1 6.73-3.72c3.8-1.09 8.67-0.82 13.08 4.48zm-6.29 0.52a1 1 0 0 0-0.89-1.79 5.383 5.383 0 0 1-5.11 0 0.9935 0.9935 0 0 0-1.34 0.45 1.0108 1.0108 0 0 0 0.45 1.34 7.33 7.33 0 0 0 6.89 0z"/></g><g id="d" fill="#debb90"><path d="m47.348 26.852a17.142 17.142 0 0 1 0.09 1.76 16.804 16.804 0 0 1-1.61 7.27c-4.41-5.3-9.28-5.57-13.08-4.48l-0.65-2.15a2 2 0 1 0-1.55-3.27l-2.53-1.56a39.454 39.454 0 0 0 4.08-3.79s4.59 3.57 8.33 0a46.092 46.092 0 0 0 6.98 6.13zm-5.25 0.4a2 2 0 1 0-2 2 2.0059 2.0059 0 0 0 2-2z"/><path d="m32.098 29.252 0.65 2.15a18.572 18.572 0 0 0-6.73 3.72 16.973 16.973 0 0 1-1.26-6.51c0-0.62 0.03-1.23 0.09-1.84 0.33-0.22 1.59-1.07 3.17-2.35l2.53 1.56a2.0261 2.0261 0 0 0-0.45 1.27 1.9931 1.9931 0 0 0 2 2z"/></g><g id="e"><path d="m40.098 25.252a2 2 0 1 1-2 2 2.0059 2.0059 0 0 1 2-2z"/><path d="M39.9884,35.0625a.9935.9935,0,0,1-.45,1.34,7.33,7.33,0,0,1-6.89,0,1.0108,1.0108,0,0,1-.45-1.34.9935.9935,0,0,1,1.34-.45,5.383,5.383,0,0,0,5.11,0A.9935.9935,0,0,1,39.9884,35.0625Z"/><path d="m32.098 25.252a2 2 0 1 1-2 2 2.0261 2.0261 0 0 1 0.45-1.27 2.0009 2.0009 0 0 1 1.55-0.73z"/><path fill="none" stroke="#000" stroke-miterlimit="10" d="m26.018 35.122a18.572 18.572 0 0 1 6.73-3.72c3.8-1.09 8.67-0.82 13.08 4.48"/><path d="m40.098 25.252a2 2 0 1 1-2 2 2.0059 2.0059 0 0 1 2-2z"/><path d="M39.9884,35.0625a.9935.9935,0,0,1-.45,1.34,7.33,7.33,0,0,1-6.89,0,1.0108,1.0108,0,0,1-.45-1.34.9935.9935,0,0,1,1.34-.45,5.383,5.383,0,0,0,5.11,0A.9935.9935,0,0,1,39.9884,35.0625Z"/><path d="m32.098 25.252a2 2 0 1 1-2 2 2.0261 2.0261 0 0 1 0.45-1.27 2.0009 2.0009 0 0 1 1.55-0.73z"/><path fill="none" stroke="#000" stroke-linecap="round" stroke-linejoin="round" stroke-width="2" d="M24.8484,26.7725c-.06.61-.09,1.22-.09,1.84a16.973,16.973,0,0,0,1.26,6.51,17.5972,17.5972,0,0,0,9.52,9.15,1.45,1.45,0,0,0,1.12-.01,17.201,17.201,0,0,0,9.17-8.38,16.804,16.804,0,0,0,1.61-7.27,17.1416,17.1416,0,0,0-.09-1.76"/><path fill="none" stroke="#000" stroke-linecap="round" stroke-linejoin="round" stroke-width="2" d="m44.908 45.112c12 0 10 13 10 13"/><path fill="none" stroke="#000" stroke-linecap="round" stroke-linejoin="round" stroke-width="2" d="m41.468 47.182a35.334 35.334 0 0 0 3.33-2"/><path fill="none" stroke="#000" stroke-linecap="round" stroke-linejoin="round" stroke-width="2" d="m17.038 58.112s-2-13 10-13c3.14 2.09 5.84 3.55 8.87 3.59h0.13a12.202 12.202 0 0 0 5.42-1.51"/><path fill="none" stroke="#000" stroke-linecap="round" stroke-linejoin="round" stroke-width="2" d="M36.1084,8.6925c0-.01-.01-.02-.01-.03a13.1031,13.1031,0,0,0-3.84.54c-15.84,4.84-7.5,17.63-7.5,17.63l.09-.06c.33-.22,1.59-1.07,3.17-2.35a39.4538,39.4538,0,0,0,4.08-3.79,18.72,18.72,0,0,0,4.07-6.24,9.0785,9.0785,0,0,0,.47-1.95A6.8919,6.8919,0,0,0,36.1084,8.6925Z"/><path fill="none" stroke="#000" stroke-linecap="round" stroke-linejoin="round" stroke-width="2" d="m23.408 22.962a40.62 40.62 0 0 0 9.66-10.11"/><path fill="none" stroke="#000" stroke-linecap="round" stroke-linejoin="round" stroke-width="2" d="M36.1684,8.6625a13.217,13.217,0,0,1,3.85.54c10.25,3.13,10.37,9.6,9.18,13.76a15.582,15.582,0,0,1-1.69,3.87s-.03-.02-.1-.07a46.092,46.092,0,0,1-6.98-6.13,21.3528,21.3528,0,0,1-4.13-6.19"/><path fill="none" stroke="#000" stroke-linecap="round" stroke-linejoin="round" stroke-width="2" d="m48.858 22.962a49.712 49.712 0 0 1-9.3-10.11"/><path fill="none" stroke="#000" stroke-linecap="round" stroke-linejoin="round" stroke-width="2" d="m32.098 20.632s4.59 3.57 8.33 0h0.01"/><path fill="none" stroke="#000" stroke-linecap="round" stroke-linejoin="round" stroke-width="2" d="m26.018 35.122a18.572 18.572 0 0 1 6.73-3.72c3.8-1.09 8.67-0.82 13.08 4.48"/><path fill="none" stroke="#000" stroke-linecap="round" stroke-linejoin="round" stroke-width="2" d="M44.9084,45.1125a.9322.9322,0,0,0-.11.07c-.37.21-1.64.96-3.33,2a.01.01,0,0,1-.01.01c-5.09,3.14-14.05,8.95-14.05,10.92"/></g></svg>