<?xml version="1.0" encoding="UTF-8"?>
<svg id="a" viewBox="0 0 72 72" xmlns="http://www.w3.org/2000/svg"><g id="b"><path d="M17,62.5v-1.9c0-8.4,1.1-25.7,4.1-32.1h30c3,6.3,3.9,23.6,3.9,32.1v1.9H17z" fill="#92D3F5"/><path d="m55 62.5h-12v-16.5c0-3-1-4-1-4l5.4-2.9 4.4-8 1.4 3.6 1.8 27.8z" fill="#61B2E4"/><circle cx="36" cy="35.5" r="3" fill="#EA5A47"/></g><g id="c"><path d="m51.1 25.7c0-9.1-6.2-15.7-15-15.7s-15 6.5-15 15.7c0 6.3-0.8 12.2 7.1 16.3 0 0 3.5 1 7.9 1 5 0 8-1.1 8-1.1 8-4 7-10 7-16.2zm-15.1 12.8c-1.7 0-3-1.3-3-3s1.3-3 3-3 3 1.3 3 3-1.3 3-3 3z" fill="#debb90"/></g><g id="d" fill="none" stroke="#000" stroke-width="2"><path d="m27 28s1-1 2-1 2 1 2 1" stroke-linecap="round" stroke-miterlimit="10"/><path d="m41 28s1-1 2-1 2 1 2 1" stroke-linecap="round" stroke-miterlimit="10"/><path d="m51 29.3c3 3 4 21.7 4 29.7v2.5" stroke-linecap="round" stroke-linejoin="round"/><path d="M17,61.5V59 c0-8,1-26.7,4-29.7" stroke-linecap="round" stroke-linejoin="round"/><line x1="32" x2="31" y1="16" y2="17" stroke-linecap="round" stroke-miterlimit="10"/><line x1="36" x2="35" y1="15" y2="17" stroke-linecap="round" stroke-miterlimit="10"/><line x1="40" x2="41" y1="16" y2="17" stroke-linecap="round" stroke-miterlimit="10"/><circle cx="36" cy="35.5" r="3" stroke-miterlimit="10"/><path d="M32.7,35.6C31.6,35.3,31,35,31,35" stroke-linecap="round" stroke-linejoin="round" stroke-miterlimit="10"/><path d="m41 35s-0.5 0.3-1.5 0.6" stroke-linecap="round" stroke-linejoin="round" stroke-miterlimit="10"/><path d="m44 42c8-3 7-12 7-15.8 0-8.9-6.2-15.2-15-15.2s-15 6.3-15 15.2c0 3.8-1 12.8 7.1 15.8 3.7 1.4 12.1 1.3 15.9 0z" stroke-linecap="round" stroke-linejoin="round"/></g></svg>
