<?xml version="1.0" encoding="UTF-8"?>
<svg id="a" viewBox="0 0 72 72" xmlns="http://www.w3.org/2000/svg"><g id="b"><path d="m11.934 60.943v-4.2187c0-4.9942 5.0078-9 10-9q9 7.5 18 0c1.3682 0 3.1221-0.2784 4.3887 0.2607a11.877 11.877 0 0 1 3.2368 2.8125v10.146" fill="#92d3f5"/></g><g id="c" fill="#6a462f"><path d="m19.871 30.985c0 9 4.9365 14 11 14 5.9365 0 11.064-5 11.064-14a12.137 12.137 0 0 0-1-5c-3-3-7-8-7-8-4 3-7 6-13 7 0 0-1.0635 0.9995-1.0635 6z"/><path d="m54.934 60.943-1.9375-14.264 0.9375-1.25 6-2 5-6a1.4142 1.4142 0 0 0-2-2l-3 3c-1 1-4 0-7 1s-5 3.2325-5 5v16.514"/></g><g id="d"><path d="m41.083 26.077c-2.6615-0.8554-7.3666-7.9368-7.3666-7.9368-2.6614 3.2317-12.737 6.9863-12.737 6.9863-2.9941 2.9942-0.0451 13.859-0.0451 13.859-4 0-4-6-4-13s4-14 14-14 14 7 14 14 0 13-4 13c1.3247-2.2526 0.1487-12.908 0.1487-12.908z"/></g><g id="e"><path d="m20.934 38.985c-4 0-4-6-4-13s4-14 14-14 14 7 14 14 0 13-4 13" fill="none" stroke="#000" stroke-linecap="round" stroke-linejoin="round" stroke-width="2"/><path d="m11.934 59.985v-3c0-4.9941 5.0078-9 10-9q9 7.5 18 0a10.271 10.271 0 0 1 4.0029 0.84" fill="none" stroke="#000" stroke-linecap="round" stroke-linejoin="round" stroke-width="2"/><path d="m36.808 29.985a2 2 0 1 1-2-2 2 2 0 0 1 2 2"/><path d="m28.808 29.985a2 2 0 1 1-2-2 2 2 0 0 1 2 2"/><path d="m19.871 30.985c0 9 4.9365 14 11 14 5.9365 0 11.064-5 11.064-14a12.137 12.137 0 0 0-1-5c-3-3-7-8-7-8-4 3-7 6-13 7 0 0-1.0635 0.9995-1.0635 6z" fill="none" stroke="#000" stroke-linejoin="round" stroke-width="2"/><path d="m27.934 37.985a6.5535 6.5535 0 0 0 6 0" fill="none" stroke="#000" stroke-linecap="round" stroke-linejoin="round" stroke-width="2"/><path d="m54.934 59.985-1.9375-13.306 0.9375-1.25 6-2 5-6a1.4142 1.4142 0 0 0-2-2l-3 3c-1 1-4 0-7 1s-5 3.2325-5 5v15.556" fill="none" stroke="#000" stroke-linecap="round" stroke-linejoin="round" stroke-width="2"/></g></svg>
