<?xml version="1.0" encoding="UTF-8"?>
<svg id="a" viewBox="0 0 72 72" xmlns="http://www.w3.org/2000/svg"><g id="b"><path d="m11.945 60.958v-4.2183c0-4.9942 5.0078-9 10-9q9 7.5 18 0c1.3682 0 3.1221-0.2784 4.3887 0.2607a11.877 11.877 0 0 1 3.2362 2.8121v10.146" fill="#92d3f5"/></g><g id="c" fill="#fadcbc"><path d="m54.945 60.958-1.9375-14.264 0.9375-1.25 6-2 5-6a1.4142 1.4142 0 0 0-2-2l-3 3c-1 1-4 0-7 1s-5 3.2325-5 5v16.514"/><path d="m19.886 31c-0.1015 7.999 4.0635 14 11 14 7.0635 0 11.064-6 11.064-14 0-5-3-10-3-10-8 0-10 3-16 1a17.077 17.077 0 0 0-3.0635 9z"/></g><g id="d"><path d="m39.227 19.688c-7.473 0-8.7162 3.5912-16.36 1.88-3.4041-0.7622-1.9182 16.432-1.9182 16.432-3 0-4-7-4-14 0-6 5-12 14-12s14 6 14 12c0 7-1 14-4 14 0 0 0.717-18.312-1.7218-18.312z" fill="#a57939"/></g><g id="e"><path d="m11.945 60v-3c0-4.9941 5.0078-9 10-9q9 7.5 18 0a10.271 10.271 0 0 1 4.0029 0.84" fill="none" stroke="#000" stroke-linecap="round" stroke-linejoin="round" stroke-width="2"/><path d="m36.818 30a2 2 0 1 1-2-2 2 2 0 0 1 2 2"/><path d="m28.818 30a2 2 0 1 1-2-2 2 2 0 0 1 2 2"/><path d="m27.945 38a6.5535 6.5535 0 0 0 6 0" fill="none" stroke="#000" stroke-linecap="round" stroke-linejoin="round" stroke-width="2"/><path d="M54.9451,60,53.0076,46.6946l.9375-1.25,6-2,5-6a1.4142,1.4142,0,0,0-2-2l-3,3c-1,1-4,0-7,1s-5,3.2325-5,5V60" fill="none" stroke="#000" stroke-linecap="round" stroke-linejoin="round" stroke-width="2"/><path d="m20.949 38c-3 0-4-7-4-14 0-6 5-12 14-12s14 6 14 12c0 7-1 14-4 14" fill="none" stroke="#000" stroke-linecap="round" stroke-linejoin="round" stroke-width="2"/><path d="m19.886 31c-0.1015 7.999 4.9365 14 11 14 5.9365 0 11.064-6 11.064-14 0-5-3-11-3-11-8 0-10 3-16 1 0 0-3 5-3.0635 10z" fill="none" stroke="#000" stroke-linejoin="round" stroke-width="2"/></g></svg>
