<?xml version="1.0" encoding="UTF-8"?>
<svg id="a" viewBox="0 0 72 72" xmlns="http://www.w3.org/2000/svg"><g id="b"><path d="M17,61V57.7485c0-5.4128,5.0078-9.7545,10-9.7545q9,8.1288,18,0c4.9941,0,10,4.3417,10,9.7545V61" fill="#92d3f5"/></g><g id="c" fill="#fcea2b"><path d="m44.702 23.355a13.318 13.318 0 0 0 0.8819 5.7007 13.603 13.603 0 0 1 1.416 4.9385c0 5-5.127 11-11.064 11-6.0635 0-11-6-11-11a7.6381 7.6381 0 0 1 1.0635-4c1-2 1.3848-5.271 1.708-6.3335l3.0742-2.7266a16.951 16.951 0 0 1 3.0908-2.0639c2.1993-1.228 3.2931-0.9559 4.8546-0.0169a24.343 24.343 0 0 1 3.21 1.9775z"/><path d="M55,4.994c0,3-1,11-1,11v12c-1,4-4,4-4,4,0-6-3-12-3-12a14.6523,14.6523,0,0,0-3.3408,4.1714C42.1729,26.5721,40,24.994,41,22.994c.8379-1.6758,3.0469-5.62,4-7a7.4948,7.4948,0,0,1,4-3v-8"/><path d="M17,4.994c0,3,1,11,1,11v12c1,4,4,4,4,4,0-6,3-12,3-12a14.6523,14.6523,0,0,1,3.3408,4.1714C29.8271,26.5721,32,24.994,31,22.994c-.8379-1.6758-3.0469-5.62-4-7a7.4948,7.4948,0,0,0-4-3v-8"/></g><g id="d"><path d="M46.7078,33.4209l-1.5086-5.4651a17.9055,17.9055,0,0,0-1.5562-3.7l-2.8972-.1179V21.1027c.2266-.0884-3.6156-2.24-4.7775-2.1052s-4.4668,2.0168-4.4668,2.0168l.3715,2.24-3.6426,1.12c-1.1172,1.3371-1.65,4.7741-1.65,4.7741l-1.6436,9.21c-1.1972-.6335-2.6386-2.5192-2.9365-6.36a30.241,30.241,0,0,1,2-10l.3279-1.5748c4.5569,4.5569,6.3244,2.9827,6.3244,2.9827,1.4085-.0552-4.34-9.2409-4.34-9.2409,3.166-2.8125,5.8037-2.7085,9.6563-2.7085s5.8242-.375,9.8867,2.7705c0,0-6.3668,9.318-4.2815,9.63s6.5316-3.2973,6.5631-3.3653.3629,2.8645.3629,2.8645A33.36,33.36,0,0,1,50,31.9975c-1.0382,2.8646-1.7939,6.3846-3.6057,6.9965Z" fill="#f1b31c"/></g><g id="e"><path d="m41.873 29.994a2 2 0 1 1-2-2 2 2 0 0 1 2 2"/><path d="m33.873 29.994a2 2 0 1 1-2-2 2 2 0 0 1 2 2"/><path d="m50.239 31.908c-0.2852 3.9268-1.54 7.086-4.2387 7.086" fill="none" stroke="#000" stroke-linecap="round" stroke-linejoin="round" stroke-width="2"/><path d="m29.159 13.394a15.8 15.8 0 0 1 6.8408-1.3999 15.971 15.971 0 0 1 6.5928 1.2847" fill="none" stroke="#000" stroke-linecap="round" stroke-linejoin="round" stroke-width="2"/><path d="M26,38.994c-1.6484,0-2.6748-1.2109-3.2881-3.0449A16.9011,16.9011,0,0,1,22,31.994" fill="none" stroke="#000" stroke-linecap="round" stroke-linejoin="round" stroke-width="2"/><path d="m17 59.994v-3c0-4.9941 5.0078-9 10-9q9 7.5 18 0c4.9941 0 10 4.0059 10 9v3" fill="none" stroke="#000" stroke-linecap="round" stroke-linejoin="round" stroke-width="2"/><path d="m41.873 29.994a2 2 0 1 1-2-2 2 2 0 0 1 2 2"/><path d="m33.873 29.994a2 2 0 1 1-2-2 2 2 0 0 1 2 2"/><path d="m36 17.994a10.618 10.618 0 0 0-2.457 0.8594" fill="none" stroke="#000" stroke-linecap="round" stroke-linejoin="round" stroke-width="2"/><path d="m26 27.102a40.314 40.314 0 0 0-1.0635 6.8921c0 5 4.9365 11 11 11 5.9365 0 11.064-6 11.064-11a35.913 35.913 0 0 0-1-6.8921" fill="none" stroke="#000" stroke-linecap="round" stroke-linejoin="round" stroke-width="2"/><path d="m33 37.994a6.5535 6.5535 0 0 0 6 0" fill="none" stroke="#000" stroke-linecap="round" stroke-linejoin="round" stroke-width="2"/><path d="m17 5.994c0 3 1 10 1 10v12c1 4 4 4 4 4 0-6 3-12 3-12l4 4c1 1 3 0 2-2a66.766 66.766 0 0 0-4-6 7.4948 7.4948 0 0 0-4-3v-7" fill="none" stroke="#000" stroke-linecap="round" stroke-linejoin="round" stroke-width="2"/><path d="m55.273 5.994c0 3-1 10-1 10v12c-1 4-4 4-4 4 0-6-3-12-3-12l-4 4c-1 1-3 0-2-2a66.766 66.766 0 0 1 4-6 7.4952 7.4952 0 0 1 4-3v-7" fill="none" stroke="#000" stroke-linecap="round" stroke-linejoin="round" stroke-width="2"/><path d="M36,17.993a7.2883,7.2883,0,0,1,2.334.6675" fill="none" stroke="#000" stroke-linecap="round" stroke-linejoin="round" stroke-width="2"/></g></svg>
