<?xml version="1.0" encoding="UTF-8"?>
<svg id="a" viewBox="0 0 72 72" xmlns="http://www.w3.org/2000/svg"><g id="b"><path d="m7.8143 61.021v-3.958c0-4.9941 5.0078-9 10-9q9 7.5 18 0c4.9941 0 10 4.0059 10 9v3.958" fill="#92d3f5"/><path d="M57.7079,40.0135a5.0006,5.0006,0,1,1-8.1446-.2012l-.499-.749.6875-.5625-2.75-3.0625-1.5-3.625-.1943-4.3286,2.5732,1.2036,9.6836,9.875s1.0625.9355,1,1.249" fill="#9b9b9a"/><path d="M53.5643,31.8133a5.0351,5.0351,0,0,0,.1006,1l-15.8506.25s.75,3.75,3.75,3.75h17a5,5,0,1,0-5-5Z" fill="#d0cfce"/></g><g id="c"><path d="m15.751 31.063c0 9 4.9365 14 11 14 5.9365 0 11.064-5 11.064-14a12.133 12.133 0 0 0-1-5c-3-3-7-8.0005-7-8.0005-4 3-7 6-13 7.0005 0 0-1.0635 0.9995-1.0635 6z" fill="#debb90"/></g><g id="d"><path d="m16.814 39.063c-4 0-4-6-4-13s4-14 14-14 13.122 7.0181 17 14c0.7061 1.272 1 3 1 6l-7 1c0.9457 2.77 3.1955 4.3563 6.9414 4.5859 0 0-0.8164 3.4141-1.6289 3.4141s-8.123-0.251-8.123-0.251 4.8262-11.482 1.054-14.776l-6.3215-7.49-12.909 7.2244s-2.2577 9.6393-0.0134 13.293z" fill="#fcea2b"/></g><g id="e"><circle cx="58.564" cy="31.813" r="2"/><path d="m44.814 37.063c-0.042 1.1074-0.6924 4-2 4h-7" fill="none" stroke="#000" stroke-linecap="round" stroke-linejoin="round" stroke-width="2"/><path d="m16.814 39.063c-4 0-4-6-4-13s4-14 14-14 13.122 7.0181 17 14c0.7061 1.272 1 3 1 6" fill="none" stroke="#000" stroke-linecap="round" stroke-linejoin="round" stroke-width="2"/><path d="m7.8143 60.063v-3c0-4.9941 5.0078-9 10-9q9 7.5 18 0c4.9941 0 10 4.0059 10 9v3" fill="none" stroke="#000" stroke-linecap="round" stroke-linejoin="round" stroke-width="2"/><path d="m32.687 30.063a2 2 0 1 1-2-2 2 2 0 0 1 2 2"/><path d="m24.687 30.063a2 2 0 1 1-2-2 2 2 0 0 1 2 2"/><path d="m15.751 31.063c0 9 4.9365 14 11 14 5.9365 0 11.064-5 11.064-14a12.133 12.133 0 0 0-1-5c-3-3-7-8.0005-7-8.0005-4 3-7 6-13 7.0005 0 0-1.0635 0.9995-1.0635 6z" fill="none" stroke="#000" stroke-linejoin="round" stroke-width="2"/><path d="m23.814 38.063a6.5535 6.5535 0 0 0 6 0" fill="none" stroke="#000" stroke-linecap="round" stroke-linejoin="round" stroke-width="2"/><path d="M53.5643,31.8133a5.0351,5.0351,0,0,0,.1006,1l-15.8506.25s.75,3.75,3.75,3.75h17a5,5,0,1,0-5-5Z" fill="none" stroke="#000" stroke-linecap="round" stroke-linejoin="round" stroke-width="2"/><path d="m57.708 40.014a5.0006 5.0006 0 1 1-8.1446-0.2012" fill="none" stroke="#000" stroke-linecap="round" stroke-linejoin="round" stroke-width="2"/><path d="M44.2928,26.8035a3.0643,3.0643,0,0,1,.749.4434,3.2181,3.2181,0,0,1,.2657.2378l2.5732,2.5747" fill="none" stroke="#000" stroke-linecap="round" stroke-linejoin="round" stroke-width="2"/><circle cx="53.564" cy="42.813" r="1.9995"/></g></svg>
