<?xml version="1.0" encoding="UTF-8"?>
<svg id="a" viewBox="0 0 72 72" xmlns="http://www.w3.org/2000/svg"><g id="b"><g fill="none" stroke="#000" stroke-miterlimit="10" stroke-width="1.8"><rect x="15.325" y="40.826" width="3.8984" height="4.9305" rx="1.9492"/><rect x="20.643" y="37.339" width="3.8984" height="4.9305" rx="1.9492"/><rect x="25.805" y="39.222" width="3.8984" height="4.9305" rx="1.9492"/><rect x="31.104" y="46.795" width="3.8984" height="4.9305" rx="1.9492"/></g></g><g id="c" fill="#ea5a47"><polygon points="43.152 25.408 52.816 11.013 58.03 13.766 48.201 28.747 45.418 26.907"/><path d="M38.0542,35.687c-1.2162-.2813-4.1118,2.1767-3.2232,4.243.7373,1.7147.87,1.61.4136,3.0789l3.2774-1.3921s1.8132-1.8914,1.4771-3.45C39.8438,37.4466,38.9575,35.8959,38.0542,35.687Z"/><rect x="15.325" y="40.826" width="3.8984" height="4.9305" rx="1.9492"/><rect x="20.643" y="37.339" width="3.8984" height="4.9305" rx="1.9492"/><rect x="25.805" y="39.222" width="3.8984" height="4.9305" rx="1.9492"/><rect x="31.104" y="46.795" width="3.8984" height="4.9305" rx="1.9492"/></g><g id="d" fill="#c19a65"><path d="M35.5545,49.0123a2.5114,2.5114,0,0,0-1.41-1.89,2.1722,2.1722,0,0,1,.29.24,1.9859,1.9859,0,0,1,.57,1.38v1.03a1.95,1.95,0,0,1-3.9,0v-1.03a1.9669,1.9669,0,0,1,.98-1.69,2.5919,2.5919,0,0,0-1.67,1.96l-.08-7.13a3.04,3.04,0,0,0-1.63-2.41,1.9247,1.9247,0,0,1,.43.32,1.9677,1.9677,0,0,1,.57,1.38v1.03a1.95,1.95,0,1,1-3.9,0v-1.03a1.9831,1.9831,0,0,1,.82-1.59,3.3848,3.3848,0,0,0-1.53,2.31l-.03.01-.03-2.49a2.4313,2.4313,0,0,0-2.49-2.11,2.5558,2.5558,0,0,0-2.64,2.11l.02,3.92h-.02a2.7141,2.7141,0,0,0-2.65-2.57,2.4906,2.4906,0,0,0-2.57,2.57l.06,17.32h20.96Zm-16.33-5.2a1.95,1.95,0,0,1-3.9,0v-1.04a1.95,1.95,0,1,1,3.9,0Zm5.32-3.49a1.95,1.95,0,1,1-3.9,0v-1.03a1.95,1.95,0,1,1,3.9,0Z"/><path d="M35.5545,49.0123a2.5114,2.5114,0,0,0-1.41-1.89,2.1722,2.1722,0,0,1,.29.24,1.9859,1.9859,0,0,1,.57,1.38v1.03a1.95,1.95,0,0,1-3.9,0v-1.03a1.9669,1.9669,0,0,1,.98-1.69,2.5919,2.5919,0,0,0-1.67,1.96l-.08-7.13a3.04,3.04,0,0,0-1.63-2.41,1.9247,1.9247,0,0,1,.43.32,1.9677,1.9677,0,0,1,.57,1.38v1.03a1.95,1.95,0,1,1-3.9,0v-1.03a1.9831,1.9831,0,0,1,.82-1.59,3.3848,3.3848,0,0,0-1.53,2.31l-.03.01-.03-2.49a2.4313,2.4313,0,0,0-2.49-2.11,2.5558,2.5558,0,0,0-2.64,2.11l.02,3.92h-.02a2.7141,2.7141,0,0,0-2.65-2.57,2.4906,2.4906,0,0,0-2.57,2.57l.06,17.32h20.96Zm-16.33-5.2a1.95,1.95,0,0,1-3.9,0v-1.04a1.95,1.95,0,1,1,3.9,0Zm5.32-3.49a1.95,1.95,0,1,1-3.9,0v-1.03a1.95,1.95,0,1,1,3.9,0Z"/></g><g id="e" fill="none" stroke="#000" stroke-linecap="round" stroke-linejoin="round" stroke-width="2"><path d="m20.191 56.532-0.2136-13.461a2.7166 2.7166 0 0 0-2.6543-2.5732 2.4951 2.4951 0 0 0-2.5687 2.5682l0.0579 16.625"/><path d="m30.582 56.795-0.171-15.171s-0.2535-2.584-2.5475-2.5838c-2.3 0-2.7 2.5877-2.7 2.5877"/><path d="m35.766 59.691-0.1381-10.939a2.4433 2.4433 0 0 0-2.499-2.1085 2.5578 2.5578 0 0 0-2.6371 2.11"/><path d="m25.249 55.233-0.1366-16.085a2.4431 2.4431 0 0 0-2.499-2.1082 2.5577 2.5577 0 0 0-2.637 2.1095l0.0281 5.6"/><line x1="39" x2="45.418" y1="36.562" y2="26.907"/><path d="m36.082 43.532s1.87-1.39 2.44-1.9154a3.9748 3.9748 0 0 0 1.4771-3.45 1.82 1.82 0 0 0-2.07-1.5135"/><polygon points="43.152 25.408 52.816 11.013 58.03 13.766 48.201 28.747 45.418 26.907"/></g></svg>
