<svg xmlns="http://www.w3.org/2000/svg" id="a" viewBox="0 0 72 72"><g id="b"><path fill="#92d3f5" d="M8.125,60.9583V57c0-4.9941,5.0078-9,10-9q9,7.5,18,0c4.9941,0,10,4.0059,10,9v3.958"/><path fill="#9b9b9a" d="M58.0186,39.9505a5.0006,5.0006,0,1,1-8.1446-.2012L49.375,39l.6875-.5625-2.75-3.0625-1.5-3.625-.1943-4.3286,2.5732,1.2036L57.875,38.5s1.0625.9355,1,1.249"/><path fill="#d0cfce" d="M53.875,31.75a5.0351,5.0351,0,0,0,.1006,1L38.125,33s.75,3.75,3.75,3.75h17a5,5,0,1,0-5-5Z"/></g><g id="c"><path fill="#fcea2b" d="m16.062 31c0 9 4.9365 14 11 14 5.9365 0 11.064-5 11.064-14a12.133 12.133 0 0 0-1-5 47.138 47.138 0 0 0-1.9992-6 45.97 45.97 0 0 1-16 1s-3.0643 5-3.0643 10z"/></g><g id="d"><path fill="#f1b31c" d="M17.125,39c-4,0-4-6-4-13s4-14,14-14,13.1221,7.0181,17,14c.7061,1.272,1,3,1,6l-7,1c.9457,2.77,2.4606,3.8708,6.2065,4.1,0,0-2.97,2.3692-3.7823,2.3692a49.61,49.61,0,0,0-5.2347,1.2794s4.8257-11.4825,1.054-14.776L35.1258,20l-16.74,1.4532S14.8805,35.347,17.125,39Z"/></g><g id="e"><circle cx="58.875" cy="31.75" r="2"/><path fill="none" stroke="#000" stroke-linecap="round" stroke-linejoin="round" stroke-width="2" d="m42.942 37.273c-1.7488 2.4426-4.5146 2.6959-6.8946 2.3612"/><path fill="none" stroke="#000" stroke-linecap="round" stroke-linejoin="round" stroke-width="2" d="m27.125 12c10 0 13.122 7.0181 17 14a10.233 10.233 0 0 1 0.7229 6.3871"/><path fill="none" stroke="#000" stroke-linecap="round" stroke-linejoin="round" stroke-width="2" d="m8.125 60v-3c0-4.9941 5.0078-9 10-9q9 7.5 18 0c4.9941 0 10 4.0059 10 9v3"/><path d="m32.998 30a2 2 0 1 1-2-2 2 2 0 0 1 2 2"/><path d="m24.998 30a2 2 0 1 1-2-2 2 2 0 0 1 2 2"/><path fill="none" stroke="#000" stroke-linecap="round" stroke-linejoin="round" stroke-width="2" d="m24.125 38a6.5535 6.5535 0 0 0 6 0"/><path fill="none" stroke="#000" stroke-linecap="round" stroke-linejoin="round" stroke-width="2" d="M53.875,31.75a5.0351,5.0351,0,0,0,.1006,1L38.125,33s.75,3.75,3.75,3.75h17a5,5,0,1,0-5-5Z"/><path fill="none" stroke="#000" stroke-linecap="round" stroke-linejoin="round" stroke-width="2" d="m58.019 39.95a5.0006 5.0006 0 1 1-8.1446-0.2012"/><path fill="none" stroke="#000" stroke-linecap="round" stroke-linejoin="round" stroke-width="2" d="M44.6035,26.7405a3.0643,3.0643,0,0,1,.749.4434,3.2181,3.2181,0,0,1,.2657.2378l2.5732,2.5747"/><circle cx="53.875" cy="42.75" r="2"/><path fill="none" stroke="#000" stroke-linejoin="round" stroke-width="2" d="m16.062 31c-0.1015 7.999 4.9365 14 11 14 5.9365 0 11.064-6 11.064-14 0-5-3-11-3-11-8 0-10 3-16 1 0 0-3 5-3.0635 10z"/><path fill="none" stroke="#000" stroke-linecap="round" stroke-linejoin="round" stroke-width="2" d="m17.093 38c-3 0-4-7-4-14 0-6 5-12 14-12"/></g></svg>