<svg xmlns="http://www.w3.org/2000/svg" id="a" viewBox="0 0 72 72"><g id="b"><path fill="#92d3f5" d="M16.9925,61V57.7492c0-5.4116,5.0078-9.7524,10-9.7524q9,8.127,18,0c4.9941,0,10,4.3408,10,9.7524V61"/></g><g id="c" fill="#fadcbc"><path d="m44.695 23.358a9.2239 9.2239 0 0 0 1.3607 5.3614 16.57 16.57 0 0 1 0.9372 5.2778c0 5-5.127 11-11.064 11-6.0635 0-11-6-11-11a7.6381 7.6381 0 0 1 1.0635-4c1-2 1.1426-5.5969 1.4658-6.6594l3.2471-2.1117a15.453 15.453 0 0 1 2.9292-1.9757c2.1993-1.228 3.2524-1.098 4.8139-0.159a20.215 20.215 0 0 1 3.1015 2.3775z"/><path d="M54.9925,4.9968c0,3-1,11-1,11v12c-1,4-4,4-4,4,0-6-3-12-3-12a14.6523,14.6523,0,0,0-3.3408,4.1714c-1.4863,2.4067-3.6592.8286-2.6592-1.1714.8379-1.6758,3.0469-5.62,4-7a7.4948,7.4948,0,0,1,4-3v-8"/><path d="m16.992 4.9968c0 3 1 11 1 11v12c1 4 4 4 4 4 0-6 3-12 3-12a14.652 14.652 0 0 1 3.3408 4.1714c1.4863 2.4067 3.6592 0.8286 2.6592-1.1714-0.8379-1.6758-3.0469-5.62-4-7a7.4948 7.4948 0 0 0-4-3v-8"/></g><g id="d"><path fill="#a57939" d="m52.329 30.98s-2.4686 2.1946-3.8364-7.625l-1.8712-2.6867-4.7557 3.479s-1.138-4.5181 4.2231-9.172l-0.2407-0.75c-4.0625-3.1455-6.0342-2.77-9.8867-2.77s-6.49-0.104-9.6563 2.7085l0.1878 1.38c6.905 7.2 3.3728 8.844 3.3728 8.844l-4.72-3.7075-3.3683 10.904-1.7973-0.5745c-3.62 1.5193-6.5943 15.968 2.3277 18.646l4.6847-1.6594 9.1367 4.0684 8.8633-4.0684 4.3552 1.0019c2.0033 2.195 10.684-11.998 2.9813-18.019zm-15.169 13.93s-15.434 2.0677-10.302-17.322a7.348 7.348 0 0 1 2.19-3.32s3.118 1.793 2.4273-2.7153a11.4 11.4 0 0 1 2.877-2.0621l1.64-1.7918 1.6622 1.6684a8.7577 8.7577 0 0 1 3.0836 2.4031s-1.4465 2.8 2.3712 2.7637a6.2761 6.2761 0 0 1 2.0939 3.4624s5.7125 15.257-8.0429 16.913z"/></g><g id="e"><path d="m41.866 29.997a2 2 0 1 1-2-2 2 2 0 0 1 2 2"/><path d="m33.866 29.997a2 2 0 1 1-2-2 2 2 0 0 1 2 2"/><path fill="none" stroke="#000" stroke-linecap="round" stroke-linejoin="round" stroke-width="2" d="m29.152 13.397a15.8 15.8 0 0 1 6.8408-1.4 15.971 15.971 0 0 1 6.5928 1.2847"/><path fill="none" stroke="#000" stroke-linecap="round" stroke-linejoin="round" stroke-width="2" d="m16.992 59.997v-3c0-4.9941 5.0078-9 10-9q9 7.5 18 0c4.9941 0 10 4.0059 10 9v3"/><path d="m41.866 29.997a2 2 0 1 1-2-2 2 2 0 0 1 2 2"/><path d="m33.866 29.997a2 2 0 1 1-2-2 2 2 0 0 1 2 2"/><path fill="none" stroke="#000" stroke-linecap="round" stroke-linejoin="round" stroke-width="2" d="m35.992 17.996a10.618 10.618 0 0 0-2.457 0.8594"/><path fill="none" stroke="#000" stroke-linecap="round" stroke-linejoin="round" stroke-width="2" d="m25.992 27.105a40.314 40.314 0 0 0-1.0635 6.8921c0 5 4.9365 11 11 11 5.9365 0 11.064-6 11.064-11a35.913 35.913 0 0 0-1-6.8921"/><path fill="none" stroke="#000" stroke-linecap="round" stroke-linejoin="round" stroke-width="2" d="m32.992 37.997a6.5535 6.5535 0 0 0 6 0"/><path fill="none" stroke="#000" stroke-linecap="round" stroke-linejoin="round" stroke-width="2" d="m16.992 5.9968c0 3 1 10 1 10v12c1 4 4 4 4 4 0-6 3-12 3-12l4 4c1 1 3 0 2-2a66.766 66.766 0 0 0-4-6 7.4948 7.4948 0 0 0-4-3v-7"/><path fill="none" stroke="#000" stroke-linecap="round" stroke-linejoin="round" stroke-width="2" d="m55.266 5.9968c0 3-1 10-1 10v12c-1 4-4 4-4 4 0-6-3-12-3-12l-4 4c-1 1-3 0-2-2a66.766 66.766 0 0 1 4-6 7.4952 7.4952 0 0 1 4-3v-7"/><path fill="none" stroke="#000" stroke-linecap="round" stroke-linejoin="round" stroke-width="2" d="m35.992 17.996a7.2883 7.2883 0 0 1 2.334 0.6675"/><path fill="none" stroke="#000" stroke-linecap="round" stroke-linejoin="round" stroke-width="2" d="m53.775 33.994a11.599 11.599 0 0 1-1.4463 11.663"/><path fill="none" stroke="#000" stroke-linecap="round" stroke-linejoin="round" stroke-width="2" d="m18.762 45.859c-3.0013-4.7215-1.5714-8.3817 0.0427-12.057"/></g></svg>