<?xml version="1.0" encoding="UTF-8"?>
<svg id="a" viewBox="0 0 72 72" xmlns="http://www.w3.org/2000/svg"><g id="b"><path d="m37.625 25.042c8.7995 0 15.958 7.1589 15.958 15.958s-7.1588 15.958-15.958 15.958-15.958-7.1589-15.958-15.958 7.1588-15.958 15.958-15.958m0-4c-11.023 0-19.958 8.9357-19.958 19.958s8.9356 19.958 19.958 19.958 19.958-8.9356 19.958-19.958-8.9356-19.958-19.958-19.958z" fill="#D0CFCE"/><polygon points="41.314 17 33.646 17 32.646 11.957 42.314 11.957" fill="#61B2E4" stroke-linecap="round" stroke-linejoin="round" stroke-miterlimit="10" stroke-width="2"/></g><g id="c" fill="none" stroke="#000" stroke-linecap="round" stroke-linejoin="round" stroke-miterlimit="10" stroke-width="2"><circle cx="37.625" cy="41" r="19.958"/><line x1="27.933" x2="31.183" y1="11.958" y2="18.428"/><line x1="46.875" x2="43.625" y1="11.957" y2="18.426"/><polygon points="41.314 17 33.646 17 32.646 11.957 42.314 11.957"/></g></svg>
