<svg xmlns="http://www.w3.org/2000/svg" id="a" version="1.1" viewBox="0 0 72 72"><g id="b"><path fill="#EA5A47" d="m54.92 58.942s4.011-14.002-10.3-14.897c-3.1919 2.1193-5.9264 3.5838-9 3.5775h0.125c-3.0736 0.0063-5.8082-1.4582-9-3.5775-12 0-10 14.897-10 14.897"/><path fill="#D22F27" d="m45.362 44.09c-3.1127 2.0751-4.9834 3.2404-8.9725 3.8183 12.827 0.404 12.827 7.1094 13.575 11.037h5.0206s2.1602-14.855-9.623-14.855z"/><polygon fill="#fff" points="38 52.061 33.817 52.061 34.117 58.943 37.8 58.943"/><path fill="#3F3F3F" d="m24.872 23.026h21.272v-13.44c0-4.0604-3.2916-7.3521-7.352-7.3521h-6.5685c-4.0604 0-7.352 3.2917-7.352 7.3521v13.44z"/><path fill="#3F3F3F" d="m44.816 44.943c1.19 0 2.24 0.13 3.17 0.36-7.49 9.31-18.82 7.44-24.21 0 0.93-0.23 1.97-0.36 3.16-0.36 3.16 2.09 5.86 3.55 8.88 3.59h0.12c3.02-0.04 5.73-1.5 8.88-3.59z"/></g><g id="c"><path fill="#debb90" d="m47.208 28.866c0-2.234-0.4439-4.3435-1.2315-6.2084l-20.587 0.3675c-0.694 1.7727-1.082 3.7525-1.082 5.841 0 0.949 0.0801 1.8756 0.2326 2.7704 1.0677 6.2642 5.4904 10.976 11.595 10.976s10.267-5.1983 10.818-10.847c0.1674-0.935 0.2554-1.9053 0.2554-2.9002z"/></g><g id="d"><path d="m41.88 27.087c0 1.1045-0.8965 2-2 2s-2-0.8955-2-2c0-1.1035 0.8965-2 2-2s2 0.8965 2 2"/><path d="m33.88 27.087c0 1.1045-0.8965 2-2 2s-2-0.8955-2-2c0-1.1035 0.8965-2 2-2s2 0.8965 2 2"/><path d="m35.88 37.09c-1.1519 0-2.3037-0.2861-3.4473-0.8579-0.4941-0.2471-0.6943-0.8477-0.4472-1.3418 0.2466-0.4937 0.8462-0.6943 1.3418-0.4473 1.7177 0.8594 3.3877 0.8594 5.1054 0 0.4947-0.247 1.0948-0.0464 1.3418 0.4473 0.2471 0.4941 0.0469 1.0947-0.4472 1.3418-1.1436 0.5718-2.2954 0.8579-3.4473 0.8579z"/><path fill="none" stroke="#000" stroke-linecap="round" stroke-linejoin="round" stroke-miterlimit="10" stroke-width="2" d="m16.936 57.943s-1.62-10.56 6.84-12.64c0.93-0.23 1.97-0.36 3.16-0.36 3.16 2.09 5.86 3.55 8.88 3.59h0.12c3.02-0.04 5.73-1.5 8.88-3.59 1.19 0 2.24 0.13 3.17 0.36 8.45 2.09 6.83 12.64 6.83 12.64"/><path fill="none" stroke="#000" stroke-linecap="round" stroke-linejoin="round" stroke-miterlimit="10" stroke-width="2" d="m23.776 45.303c5.39 7.44 16.72 9.31 24.21 0"/><path d="m34.221 58.953c-0.5527 0-1-0.4472-1-1v-6.4013c0-0.5528 0.4473-1 1-1s1 0.4472 1 1v6.4013c0 0.5528-0.4473 1-1 1z"/><path d="m37.779 58.953c-0.5527 0-1-0.4472-1-1v-6.4326c0-0.5527 0.4473-1 1-1s1 0.4473 1 1v6.4326c0 0.5528-0.4473 1-1 1z"/><path d="m46.444 24.026h-21.272c-0.5528 0-1-0.4478-1-1v-13.44c0-4.6054 3.747-8.3525 8.3525-8.3525h6.5684c4.6054 0 8.3515 3.7471 8.3515 8.3525v13.44c0 0.5522-0.4472 1-1 1zm-20.272-2h19.272v-12.44c0-3.5029-2.8496-6.3525-6.3515-6.3525h-6.5684c-3.5029 0-6.3525 2.8496-6.3525 6.3525v12.44z"/><path d="m41.876 27.079c0 1.1045-0.8965 2-2 2s-2-0.8955-2-2c0-1.1035 0.8965-2 2-2s2 0.8965 2 2"/><path d="m33.876 27.079c0 1.1045-0.8965 2-2 2s-2-0.8955-2-2c0-1.1035 0.8965-2 2-2s2 0.8965 2 2"/><path d="m35.876 37.082c-1.1519 0-2.3037-0.2862-3.4473-0.8579-0.4941-0.2471-0.6943-0.8477-0.4472-1.3418 0.2465-0.4937 0.8461-0.6944 1.3418-0.4473 1.7177 0.8594 3.3876 0.8594 5.1054 0 0.4947-0.2471 1.0947-0.0464 1.3418 0.4473 0.2471 0.4941 0.0469 1.0947-0.4472 1.3418-1.1436 0.5717-2.2955 0.8579-3.4473 0.8579z"/><path d="m35.876 43.613c-6.8037 0-12.339-6.8067-12.339-15.173 0-1.8813 0.2764-3.7172 0.8203-5.4565 0.1651-0.5264 0.7227-0.8203 1.253-0.6558 0.5263 0.1651 0.8203 0.7261 0.6552 1.2535-0.4834 1.5454-0.7285 3.1801-0.7285 4.8588 0 7.2642 4.6377 13.173 10.339 13.173 5.7002 0 10.338-5.9092 10.338-13.173 0-1.0756-0.1016-2.142-0.3018-3.1699-0.1094-0.563-0.251-1.1255-0.4209-1.6723-0.1641-0.5274 0.1309-1.0879 0.6582-1.252 0.5313-0.165 1.0889 0.1314 1.252 0.6582 0.1914 0.6167 0.3506 1.2505 0.4736 1.8843 0.2246 1.1528 0.3389 2.3481 0.3389 3.5517 0 8.3667-5.5352 15.173-12.338 15.173z"/><path fill="none" stroke="#000" stroke-linecap="round" stroke-linejoin="round" stroke-miterlimit="10" stroke-width="2" d="m17.715 44.463c1.5814-1.107 3.6505-1.9636 6.3522-2.3986"/><path fill="none" stroke="#000" stroke-linecap="round" stroke-linejoin="round" stroke-miterlimit="10" stroke-width="2" d="m54.285 44.463c-1.5814-1.107-3.6505-1.9636-6.3522-2.3986"/></g></svg>