<?xml version="1.0" encoding="UTF-8"?>
<svg id="a" version="1.1" viewBox="0 0 72 72" xmlns="http://www.w3.org/2000/svg"><g id="b"><polygon points="56.377 11.98 16.377 11.98 4 23.348 36 64.084 68 23.348" fill="#61B2E4"/><polyline points="37.37 62.336 55.749 23.348 36 11.98 56.377 11.98 68 23.348 37.37 62.336" fill="#92D3F5"/></g><g id="c" fill="none" stroke="#000" stroke-linecap="round" stroke-linejoin="round" stroke-miterlimit="10" stroke-width="2"><polygon points="56.377 11.98 16.377 11.98 4 23.348 36 64.084 68 23.348"/><polyline points="55.749 23.86 36 64.084 36 24.348 36 11.98 16.256 23.348"/><line x1="16.256" x2="36.004" y1="23.86" y2="64.084"/><line x1="4" x2="68" y1="23.348" y2="23.348"/><line x1="36" x2="55.749" y1="11.98" y2="23.348"/><polygon points="56.377 11.98 16.377 11.98 4 23.348 36 64.084 68 23.348"/></g></svg>
