<svg xmlns="http://www.w3.org/2000/svg" id="a" viewBox="0 0 72 72"><g id="b"><path fill="#fff" d="M65.0856,55.5H6.8775C5.2883,55.5,4,54.2117,4,52.6225V17.2483C4,16.0066,5.0066,15,6.2483,15h59.4459 C66.9677,15,68,16.0323,68,17.3058v35.2799C68,54.1952,66.6952,55.5,65.0856,55.5z"/><g id="c"><path fill="#EA5A47" d="m47.064 33.552c0-3.2502-2.6348-5.885-5.885-5.885-2.2378 0-4.1835 1.2493-5.1788 3.0883-0.9952-1.839-2.9409-3.0883-5.1788-3.0883-3.2502 0-5.885 2.6348-5.885 5.885 0 1.3982 0.4898 2.6808 1.3043 3.6905l-2e-3 0.0016 9.7616 12.098 9.7615-12.098-2e-3 -0.0016c0.8144-1.0097 1.3042-2.2922 1.3042-3.6904z"/></g></g><g id="d"><path fill="none" stroke="#000" stroke-linecap="round" stroke-linejoin="round" stroke-miterlimit="10" stroke-width="2" d="M65.0856,55.5H6.8775C5.2883,55.5,4,54.2117,4,52.6225V17.2483C4,16.0066,5.0066,15,6.2483,15h59.4459 C66.9677,15,68,16.0323,68,17.3058v35.2799C68,54.1952,66.6952,55.5,65.0856,55.5z"/><line x1="5" x2="20" y1="16" y2="32" fill="none" stroke="#000" stroke-linecap="round" stroke-miterlimit="10" stroke-width="2"/><line x1="67" x2="52" y1="16" y2="32" fill="none" stroke="#000" stroke-linecap="round" stroke-miterlimit="10" stroke-width="2"/><g id="e"><path fill="none" stroke="#000" stroke-linejoin="round" stroke-miterlimit="10" stroke-width="2" d="m47.064 33.552c0-3.2502-2.6348-5.885-5.885-5.885-2.2378 0-4.1835 1.2493-5.1788 3.0883-0.9952-1.839-2.9409-3.0883-5.1788-3.0883-3.2502 0-5.885 2.6348-5.885 5.885 0 1.3982 0.4898 2.6808 1.3043 3.6905l-2e-3 0.0016 9.7616 12.098 9.7615-12.098-2e-3 -0.0016c0.8144-1.0097 1.3042-2.2922 1.3042-3.6904z"/></g></g></svg>