<svg xmlns="http://www.w3.org/2000/svg" id="a" viewBox="0 0 72 72"><g id="b"><path fill="#92d3f5" d="M11.9481,60.94V56.7213c0-4.9942,5.0078-9,10-9q9,7.5,18,0c1.3682,0,3.1221-.2784,4.3887.2607a11.8771,11.8771,0,0,1,3.2363,2.8125V60.94"/></g><g id="c" fill="#a57939"><path d="m54.948 60.94-1.9375-14.264 0.9375-1.25 6-2 5-6a1.4142 1.4142 0 0 0-2-2l-3 3c-1 1-4 0-7 1s-5 3.2325-5 5v16.514"/><path d="m20.406 29.529v0.957c0 7.6494 4.6093 13.643 10.494 13.643s10.494-5.9932 10.494-13.643c0-4.6533-1.7784-7.5151-5.2842-11.134a64.146 64.146 0 0 1-8.9883 5.772c-2.6465 1.5142-6.2549 3.5693-6.7158 4.4053z"/></g><g id="d"><path d="M50.143,36.3278c-.2048-.7578-1.559-1.4094-1.9591-2.1037a23.7515,23.7515,0,0,1-1.1574-2.6328c-1.4725-3.27-2.0233-4.4927-2.3485-10.5239.0273-3.6929-3.794-6.7842-7.4746-7.0928a1.0016,1.0016,0,0,1-.6885-.3433c-.0928-.0995-2.4082-2.6547-7.2432-2.6547-6.2,0-11.4413,3.3818-12.743,8.226a18.518,18.518,0,0,0-.5645,6.1758,13.3173,13.3173,0,0,1-.7607,5.9609,6.8034,6.8034,0,0,1-1.1192,2.0879c-3.7725,4.42-.9747,14.3028-1.167,14.01A24.0468,24.0468,0,0,0,16.55,50.1563a10.4646,10.4646,0,0,1,5.361-2.09c6.209,5.0127,12.4951,5.0127,18.7,0,.9623.0421,2.1985-.2355,3.3938-.0873.95.1177,2.6905,1.9191,3.1194,2.2082,1.0562-.6991-.25-2.0811.6675-2.9373.6443-.3876.3021-4.138,2.4927-6.0125.2814-.2408.1316-.73.1786-1.0965A12.2485,12.2485,0,0,0,50.143,36.3278ZM39.7156,37.9819C33.0407,48.7277,27.09,44.3943,27.09,44.3943s-9.9955-7.5111-6.9911-14.1555c0,0,13.5953-9.4091,15.06-10.8868C35.1584,19.352,46.39,27.2363,39.7156,37.9819Z"/></g><g id="e"><path fill="none" stroke="#000" stroke-linecap="round" stroke-linejoin="round" stroke-width="2" d="m11.948 59.982v-3c0-4.9941 5.0078-9 10-9q9 7.5 18 0a10.271 10.271 0 0 1 4.0029 0.84"/><path d="m36.821 29.982a2 2 0 1 1-2-2 2 2 0 0 1 2 2"/><path d="m28.821 29.982a2 2 0 1 1-2-2 2 2 0 0 1 2 2"/><path fill="none" stroke="#000" stroke-linecap="round" stroke-linejoin="round" stroke-width="2" d="m27.948 37.982a6.5535 6.5535 0 0 0 6 0"/><path fill="none" stroke="#000" stroke-linecap="round" stroke-linejoin="round" stroke-width="2" d="m54.948 59.982-1.9375-13.306 0.9375-1.25 6-2 5-6a1.4142 1.4142 0 0 0-2-2l-3 3c-1 1-4 0-7 1s-5 3.2325-5 5v15.556"/><path fill="none" stroke="#000" stroke-linecap="round" stroke-linejoin="round" stroke-width="2" d="m13.652 46.713c-3.7227-5.8565-0.628-10.08 1.18-14.725 1.6357-4.2-0.209-6.4512 1.291-12.034 1.4795-5.5 7.2773-8.9658 13.709-8.9658 5.4 0 8 3 8 3a8.1321 8.1321 0 0 1 7.4052 8.0371c0.3867 7.18 1.0244 7.1523 3.4287 12.822a11.6 11.6 0 0 1 0.7356 2.3707"/><path fill="none" stroke="#000" stroke-linejoin="round" stroke-width="2" d="m19.832 30.988c0 8 5 14 11 14s11-6 11-14c0-5-2-8-6-12-4 4-16 9-16 11z"/></g></svg>