<?xml version="1.0" encoding="UTF-8"?>
<svg id="a" viewBox="0 0 72 72" xmlns="http://www.w3.org/2000/svg"><g id="b" stroke-linecap="round" stroke-linejoin="round" stroke-miterlimit="10" stroke-width="2"><path d="m48.5 16h-23c-1.1046 0-2-0.8954-2-2s0.8954-2 2-2h23c1.1046 0 2 0.8954 2 2s-0.8954 2-2 2z" fill="#D0CFCE"/><path d="m48.5 60h-23c-1.1046 0-2-0.8954-2-2s0.8954-2 2-2h23c1.1046 0 2 0.8954 2 2s-0.8954 2-2 2z" fill="#D0CFCE"/><rect x="26" y="16" width="22" height="40" fill="#EA5A47"/><polygon points="41.822 16 26 25 26 21 34.462 16" fill="#fff"/><polygon points="26 37 48 24 48 20 26 33" fill="#fff"/><polygon points="48 32 26 45 26 49 48 36" fill="#fff"/><polygon points="48 44 27.692 56 34.462 56 48 48" fill="#fff"/><polygon points="48 16 41.822 16 26 25 26 33 48 20" fill="#92D3F5"/><polygon points="48 44 27.692 56 26 56 26 49 48 36" fill="#92D3F5"/></g><g id="c" fill="none" stroke="#000" stroke-linecap="round" stroke-linejoin="round" stroke-miterlimit="10" stroke-width="2"><path d="m48.5 16h-23c-1.1046 0-2-0.8954-2-2s0.8954-2 2-2h23c1.1046 0 2 0.8954 2 2s-0.8954 2-2 2z"/><path d="m48.5 60h-23c-1.1046 0-2-0.8954-2-2s0.8954-2 2-2h23c1.1046 0 2 0.8954 2 2s-0.8954 2-2 2z"/><rect x="26" y="16" width="22" height="40"/><polygon points="41.822 16 26 25 26 21 34.462 16"/><polygon points="26 37 48 24 48 20 26 33"/><polygon points="48 32 26 45 26 49 48 36"/><polygon points="48 44 27.692 56 34.462 56 48 48"/><polygon points="48 16 41.822 16 26 25 26 33 48 20"/><polygon points="48 44 27.692 56 26 56 26 49 48 36"/></g></svg>
