<svg xmlns="http://www.w3.org/2000/svg" id="a" viewBox="0 0 72 72"><g id="b"><rect width="27.29" height="19.193" x="22.71" y="47.807" fill="#d0cfce"/><polygon fill="#9b9b9a" points="41 42.609 41 67 50 67 50 43"/><rect width="27.29" height="5.198" x="22.71" y="42.609" fill="#d0cfce"/><path fill="#ea5a47" d="m26.908 42.411h17.894v-27.092s-1-10.396-17.894-9.0965z"/><path fill="#d22f27" d="m41 37v-27a7.69 7.69 0 0 1 5 5v27.411h-5.0024z"/><path fill="#d22f27" d="M44.0352,15.4425c-1.0629,1.6832-5.3483.8857-9.5717-1.7813S27.6781,7.4676,28.741,5.7844C29.0857,5.2385,30.09,6.0449,31,6a11.395,11.395,0,0,1,7.3128,1.5656C42.5361,10.2327,45.0982,13.7592,44.0352,15.4425Z"/><line x1="32.5" x2="32.5" y1="18.5" y2="31" fill="none" stroke="#fff" stroke-linecap="round" stroke-miterlimit="10" stroke-width="2"/></g><g id="c" fill="none" stroke="#000" stroke-width="2"><polyline stroke-linecap="round" stroke-linejoin="round" points="23.328 66 23.328 42.609 29.12 42.609 50 42.609 50 66"/><path stroke-linecap="round" stroke-linejoin="round" d="M27.9084,38.5121V6.2228C43.33,4.3122,45,15.3193,45,15.3193L44.8967,38.386"/><line x1="23.328" x2="50" y1="48.327" y2="48.327" stroke-miterlimit="10"/><path stroke-linecap="round" stroke-linejoin="round" d="m32 11a14.843 14.843 0 0 0 9 5"/></g></svg>