<svg xmlns="http://www.w3.org/2000/svg" id="a" viewBox="0 0 72 72"><g id="b"><path fill="#D22F27" d="m44.33 44.71-11.81 11.81c-4.53 4.54-11.85 4.7-16.58 0.4901 8.96 0.08 8.4 0.65 24.87-15.82l3.52 3.5199z"/><path fill="#EA5A47" d="m40.81 41.19c-16.47 16.47-15.91 15.9-24.87 15.82-0.18-0.16-0.35-0.32-0.52-0.4901-2.35-2.35-3.53-5.45-3.53-8.55s1.18-6.2 3.53-8.55l11.81-11.81 13.58 13.58z"/><path fill="#92D3F5" d="m56.85 15.1c-2.47-2.47-5.75-3.83-9.2599-3.83-3.51 0-6.8 1.36-9.26 3.83l-12.52 12.51 18.52 18.52 12.51-12.52c2.47-2.46 3.83-5.75 3.83-9.26 0-3.5-1.36-6.79-3.82-9.25zm-0.71 17.8-11.81 11.81-3.52-3.52 1.31-1.31c15.72-15.72 8.77-25.05 6.21-27.59 2.85 0.18 5.65 1.35 7.81 3.51 2.35 2.35 3.53 5.45 3.53 8.55s-1.18 6.2-3.53 8.55z"/><path fill="#92D3F5" d="m57.55 14.39c-2.65-2.66-6.19-4.1201-9.96-4.1201-3.78 0-7.32 1.46-9.97 4.1201l-13.22 13.22 1.41 1.42 17.1 17.1 1.42 1.41 13.22-13.22c2.66-2.66 4.12-6.2 4.12-9.97s-1.46-7.31-4.12-9.96zm-13.22 30.32-17.1-17.1 11.81-11.81c2.35-2.35 5.45-3.53 8.55-3.53 0.25 0 0.49 0.01 0.74 0.02 2.85 0.18 5.65 1.35 7.81 3.51 2.35 2.35 3.53 5.45 3.53 8.55s-1.18 6.2-3.53 8.55l-11.81 11.81z"/><path fill="#61B2E4" d="m59.67 24.35c0 3.1-1.18 6.2-3.53 8.55l-11.81 11.81-3.52-3.52 1.31-1.31c15.72-15.72 8.77-25.05 6.21-27.59 2.85 0.18 5.65 1.35 7.81 3.51 2.35 2.35 3.53 5.45 3.53 8.55z"/><line x1="27.228" x2="26.658" y1="27.614" y2="27.034" fill="none"/><rect width="5.808" height="6.564" x="40.845" y="39.013" fill="#61B2E4" transform="matrix(.7071 .7071 -.7071 .7071 42.721 -18.547)"/></g><g id="c"><path d="m47.588 12.274c3.1001 0 6.2001 1.1759 8.5519 3.5276 4.7035 4.7035 4.7035 12.4 0 17.104l-23.62 23.62c-2.3518 2.3518-5.4518 3.5277-8.5519 3.5277s-6.2001-1.1759-8.5519-3.5277c-4.7035-4.7035-4.7035-12.4 0-17.104l23.62-23.62c2.3518-2.3518 5.4519-3.5276 8.552-3.5276m0-2c-3.7741 0-7.3135 1.4608-9.9661 4.1134l-23.62 23.62c-5.4953 5.4953-5.4953 14.437 0 19.932 2.6526 2.6526 6.192 4.1135 9.9661 4.1135s7.3135-1.4608 9.9661-4.1134l23.62-23.62c5.4953-5.4953 5.4953-14.437 0-19.932-2.6526-2.6527-6.192-4.1135-9.9661-4.1135z"/><line x1="28.562" x2="41.422" y1="30.406" y2="43.266" fill="none" stroke="#000" stroke-linecap="round" stroke-miterlimit="10" stroke-width="2"/></g></svg>