<?xml version="1.0" encoding="UTF-8"?>
<svg id="a" viewBox="0 0 72 72" xmlns="http://www.w3.org/2000/svg"><g id="b"><path d="m24.872 28.026h21.272v-13.44a7.3521 7.3521 0 0 0-7.352-7.3521h-6.5685a7.3521 7.3521 0 0 0-7.352 7.3521z" fill="#3f3f3f"/><path d="m54.92 63.942s4.011-14.002-10.3-14.897c-3.1919 2.1193-5.9264 3.5838-9 3.5775h0.125c-3.0736 0.0063-5.8082-1.4582-9-3.5775-12 0-10 14.897-10 14.897" fill="#ea5a47"/><path d="m45.362 49.09c-3.1127 2.0751-4.9834 3.24-8.9725 3.8183 12.827 0.404 12.827 7.1094 13.575 11.037h5.0206s2.1602-14.855-9.623-14.855z" fill="#d22f27"/><polygon points="38 57.061 33.817 57.061 34.117 63.943 37.8 63.943" fill="#fff"/><path d="m44.816 49.943a13.167 13.167 0 0 1 3.17 0.36c-7.49 9.31-18.82 7.44-24.21 0a13.081 13.081 0 0 1 3.16-0.36c3.16 2.09 5.86 3.55 8.88 3.59h0.12c3.02-0.04 5.73-1.5 8.88-3.59z" fill="#3f3f3f"/></g><g id="c"><g><polygon points="24 29 24 32 24 36 23 39 22 42 23 45 25 45 27 45 28.132 43.559 27.556 42.127 25.37 36.959 25 32 26 28 27 27"/><polygon points="48 29 48 32 48 36 49 39 50 42 49 45 47 45 45 45 43.868 43.559 44.591 42.43 46.777 37.262 47.1 32.801 46.074 28.149 45 27"/></g></g><g id="d"><g id="e"><path d="m47.208 33.866a15.964 15.964 0 0 0-1.2315-6.2084l-20.586 0.3675a16.028 16.028 0 0 0-1.082 5.841 16.49 16.49 0 0 0 0.2326 2.77c1.0677 6.2642 5.49 10.976 11.595 10.976s10.267-5.1983 10.818-10.847a16.456 16.456 0 0 0 0.2549-2.8998z" fill="#a57939"/></g></g><g id="f"><g id="g"><path d="m41.88 32.087a2 2 0 1 1-2-2 2.0007 2.0007 0 0 1 2 2"/><path d="m33.88 32.087a2 2 0 1 1-2-2 2.0007 2.0007 0 0 1 2 2"/><path d="M35.88,42.09a7.6528,7.6528,0,0,1-3.4473-.8579,1,1,0,0,1,.8946-1.7891,5.3772,5.3772,0,0,0,5.1054,0,1,1,0,0,1,.8946,1.7891A7.6528,7.6528,0,0,1,35.88,42.09Z"/><path d="m16.936 62.943s-1.62-10.56 6.84-12.64a13.081 13.081 0 0 1 3.16-0.36c3.16 2.09 5.86 3.55 8.88 3.59h0.12c3.02-0.04 5.73-1.5 8.88-3.59a13.167 13.167 0 0 1 3.17 0.36c8.45 2.09 6.83 12.64 6.83 12.64" fill="none" stroke="#000" stroke-linecap="round" stroke-linejoin="round" stroke-width="2"/><path d="m23.776 50.303c5.39 7.44 16.72 9.31 24.21 0" fill="none" stroke="#000" stroke-linecap="round" stroke-linejoin="round" stroke-width="2"/><path d="m34.221 63.953a0.9994 0.9994 0 0 1-1-1v-6.4013a1 1 0 0 1 2 0v6.4013a0.9994 0.9994 0 0 1-1 1z"/><path d="m37.779 63.953a0.9994 0.9994 0 0 1-1-1v-6.4326a1 1 0 0 1 2 0v6.4326a0.9994 0.9994 0 0 1-1 1z"/><path d="m46.444 29.026h-21.272a1 1 0 0 1-1-1v-13.44a8.3621 8.3621 0 0 1 8.3525-8.3525h6.5684a8.3613 8.3613 0 0 1 8.3515 8.3525v13.44a1 1 0 0 1-1 0.9995zm-20.272-2h19.272v-12.44a6.3593 6.3593 0 0 0-6.3515-6.3525h-6.5684a6.36 6.36 0 0 0-6.3525 6.3525z"/><path d="m41.876 32.079a2 2 0 1 1-2-2 2.0007 2.0007 0 0 1 2 2"/><path d="m33.876 32.079a2 2 0 1 1-2-2 2.0007 2.0007 0 0 1 2 2"/><path d="m35.876 42.082a7.6541 7.6541 0 0 1-3.4473-0.8579 1 1 0 0 1 0.8946-1.7891 5.3772 5.3772 0 0 0 5.1054 0 1 1 0 0 1 0.8946 1.7891 7.6544 7.6544 0 0 1-3.4473 0.8579z"/><path d="m35.876 48.613c-6.8037 0-12.339-6.8067-12.339-15.173a18.26 18.26 0 0 1 0.82-5.4565 1 1 0 1 1 1.9082 0.5977 16.255 16.255 0 0 0-0.7285 4.8588c0 7.2642 4.6377 13.173 10.339 13.173s10.338-5.9092 10.338-13.173a16.62 16.62 0 0 0-0.3018-3.17 15.84 15.84 0 0 0-0.4209-1.6723 1 1 0 0 1 1.91-0.5938 17.86 17.86 0 0 1 0.4736 1.8843 18.619 18.619 0 0 1 0.3389 3.5517c2e-4 8.3667-5.535 15.173-12.338 15.173z"/><path d="m17.715 49.463a15.076 15.076 0 0 1 6.3522-2.3986" fill="none" stroke="#000" stroke-linecap="round" stroke-linejoin="round" stroke-width="2"/><path d="m54.285 49.463a15.076 15.076 0 0 0-6.3522-2.3986" fill="none" stroke="#000" stroke-linecap="round" stroke-linejoin="round" stroke-width="2"/></g><path d="M28.1323,44.0457c-2.8064,1.58-4.7476.7338-5.8883-.2663a1.3329,1.3329,0,0,1-.1494-1.9094C24.05,39.75,25,28,25,28" fill="none" stroke="#000" stroke-linecap="round" stroke-linejoin="round" stroke-width="2"/><path d="M43.7589,44.0457c2.8065,1.58,4.7476.7338,5.8884-.2663a1.3329,1.3329,0,0,0,.1494-1.9094C47.8414,39.75,46.8913,28,46.8913,28" fill="none" stroke="#000" stroke-linecap="round" stroke-linejoin="round" stroke-width="2"/></g></svg>
