<?xml version="1.0" encoding="UTF-8"?>
<svg id="a" viewBox="0 0 72 72" xmlns="http://www.w3.org/2000/svg"><g id="b"><path d="m17.004 60.958v-3.2474c0-5.406 5.0078-9.7423 10-9.7423q9 8.1186 18 0c4.9941 0 10 4.3363 10 9.7423v3.2474" fill="#92d3f5"/></g><g id="c" fill="#6a462f"><path d="m44.706 23.329a13.318 13.318 0 0 0 0.8819 5.7007 13.603 13.603 0 0 1 1.416 4.9385c0 5-5.127 11-11.064 11-6.0635 0-11-6-11-11a7.6381 7.6381 0 0 1 1.0635-4c1-2 1.3848-5.271 1.708-6.3335l3.1378-2.27a12.01 12.01 0 0 1 3.0272-1.625c2.1993-1.228 2.6093-1.3 4.1708-0.3614a30.41 30.41 0 0 1 3.5138 2.0613z"/><path d="M55.0039,4.9686c0,3-1,11-1,11v12c-1,4-4,4-4,4,0-6-3-12-3-12A14.6523,14.6523,0,0,0,43.6631,24.14c-1.4863,2.4067-3.6592.8286-2.6592-1.1714.8379-1.6758,3.0469-5.62,4-7a7.4948,7.4948,0,0,1,4-3v-8"/><path d="m17.004 4.9686c0 3 1 11 1 11v12c1 4 4 4 4 4 0-6 3-12 3-12a14.652 14.652 0 0 1 3.3408 4.1714c1.4863 2.4067 3.6592 0.8286 2.6592-1.1714-0.8379-1.6758-3.0469-5.62-4-7a7.4948 7.4948 0 0 0-4-3v-8"/></g><g id="d"><path d="M46.7117,33.3921l-1.5085-5.4652a17.91,17.91,0,0,0-1.5563-3.7L40.75,24.1092V21.0738c.2266-.0884-3.6156-2.24-4.7775-2.1052s-4.4668,2.0168-4.4668,2.0168l.3715,2.24-3.6426,1.12c-1.1172,1.3371-1.65,4.7741-1.65,4.7741l-1.2466,7.41c-1.1972-.6336-3.0356-.72-3.3335-4.56a30.241,30.241,0,0,1,2-10l.3279-1.5748c4.5569,4.5569,6.3244,2.9827,6.3244,2.9827,1.4085-.0552-4.34-9.2409-4.34-9.2409,3.166-2.8125,5.8037-2.7085,9.6563-2.7085s5.8242-.375,9.8867,2.7705c0,0-6.3668,9.318-4.2815,9.63s6.5317-3.2973,6.5631-3.3653.3629,2.8645.3629,2.8645a33.36,33.36,0,0,1,1.5,8.6416c-1.0381,2.8646-2.1271,3.6888-3.9389,4.3007Z"/></g><g id="e"><path d="m41.877 29.969a2 2 0 1 1-2-2 2 2 0 0 1 2 2"/><path d="m33.877 29.969a2 2 0 1 1-2-2 2 2 0 0 1 2 2"/><path d="m29.163 13.368a15.8 15.8 0 0 1 6.8408-1.4 15.971 15.971 0 0 1 6.5928 1.2847" fill="none" stroke="#000" stroke-linecap="round" stroke-linejoin="round" stroke-width="2"/><path d="m17.004 59.969v-3c0-4.9941 5.0078-9 10-9q9 7.5 18 0c4.9941 0 10 4.0059 10 9v3" fill="none" stroke="#000" stroke-linecap="round" stroke-linejoin="round" stroke-width="2"/><path d="m41.877 29.969a2 2 0 1 1-2-2 2 2 0 0 1 2 2"/><path d="m33.877 29.969a2 2 0 1 1-2-2 2 2 0 0 1 2 2"/><path d="m36.004 17.968a10.618 10.618 0 0 0-2.457 0.8594" fill="none" stroke="#000" stroke-linecap="round" stroke-linejoin="round" stroke-width="2"/><path d="m26.004 27.076a40.314 40.314 0 0 0-1.0639 6.8921c0 5 4.9365 11 11 11 5.9365 0 11.064-6 11.064-11a35.913 35.913 0 0 0-1-6.8921" fill="none" stroke="#000" stroke-linecap="round" stroke-linejoin="round" stroke-width="2"/><path d="m33.004 37.969a6.5535 6.5535 0 0 0 6 0" fill="none" stroke="#000" stroke-linecap="round" stroke-linejoin="round" stroke-width="2"/><path d="m17.004 5.9686c0 3 1 10 1 10v12c1 4 4 4 4 4 0-6 3-12 3-12l4 4c1 1 3 0 2-2a66.766 66.766 0 0 0-4-6 7.4948 7.4948 0 0 0-4-3v-7" fill="none" stroke="#000" stroke-linecap="round" stroke-linejoin="round" stroke-width="2"/><path d="m55.277 5.9686c0 3-1 10-1 10v12c-1 4-4 4-4 4 0-6-3-12-3-12l-4 4c-1 1-3 0-2-2a66.766 66.766 0 0 1 4-6 7.4952 7.4952 0 0 1 4-3v-7" fill="none" stroke="#000" stroke-linecap="round" stroke-linejoin="round" stroke-width="2"/><path d="m36.004 17.968a7.2883 7.2883 0 0 1 2.334 0.6675" fill="none" stroke="#000" stroke-linecap="round" stroke-linejoin="round" stroke-width="2"/><path d="m25.337 36.529c-1.78-1.3475-2.78-1.512-3.2673-5.939" fill="none" stroke="#000" stroke-linecap="round" stroke-linejoin="round" stroke-width="2"/><path d="m50.175 30.628c-0.4869 4.4269-1.4877 4.5914-3.2674 5.939" fill="none" stroke="#000" stroke-linecap="round" stroke-linejoin="round" stroke-width="2"/></g></svg>
