<?xml version="1.0" encoding="UTF-8"?>
<svg id="a" version="1.1" viewBox="0 0 72 72" xmlns="http://www.w3.org/2000/svg"><g id="b"><path transform="rotate(45)" d="m45.25-20.36h9.591v19.33h-9.591z" fill="#fff" fill-rule="evenodd" stroke-linecap="round" stroke-linejoin="round" stroke-miterlimit="10" stroke-width=".1"/><path transform="rotate(45)" d="m48.52 10.64h3.608v3.691h-3.608z" fill="#d22f27"/><rect transform="rotate(45)" x="47.94" y="-29.98" width="4.643" height="10.19" fill="#d0cfce"/><path d="m32.77 31.37 6.738 6.681-8.252 8.252-6.782-6.782z" fill="#d22f27"/></g><g id="c" fill="none" stroke="#000" stroke-linecap="round" stroke-linejoin="round" stroke-width="2"><path transform="rotate(45)" d="m45.25-20.36h9.591v31.01h-9.591z"/><rect transform="rotate(45)" x="48.52" y="10.64" width="3.608" height="3.691"/><path d="m58.61 15.46-7.123 7.123-3.283-3.283 7.108-7.108"/><line x1="24.95" x2="12.8" y1="46.21" y2="58.37"/><line x1="41.07" x2="43.16" y1="32.29" y2="34.37"/><line x1="43.93" x2="47.14" y1="27.18" y2="30.39"/><path transform="rotate(45)" d="m45.25-1.03h9.591v11.67h-9.591z"/><path d="m53.57 10.43 6.744 6.744"/></g></svg>
