<?xml version="1.0" encoding="UTF-8"?>
<svg id="a" viewBox="0 0 72 72" xmlns="http://www.w3.org/2000/svg"><g id="b"><path d="m59.557 52.301c0.0023-0.0038 0.0034-8e-3 0.0058-0.0118 0.0024-4e-3 0.0038-0.0086 0.0063-0.0126 0.3557-0.5929 0.3272-1.306-0.0084-1.8614-2.3758-5.3476-2.4708-10.543-2.5386-14.727-0.0692-4.2642-0.1243-7.6324-2.4436-9.7216-1.5084-1.3593-3.6639-1.866-6.7806-1.5912-2.0898 0.1883-2.3516 0.4517-3.3919-0.1941s-0.9204-0.9973-1.6799-2.9566c-1.1463-2.9441-2.5625-4.6637-4.4577-5.4131-2.8893-1.1421-5.9077 0.3033-9.7293 2.1327-3.7707 1.8059-8.4563 4.0366-14.325 4.2904-0.6841-0.0849-1.3929 0.1982-1.7732 0.8108-0.5718 0.921-0.1461 2.0778 0.599 2.5454 0.4679 0.6741 0.9501 3.2438 1.3393 5.3361 1.2839 6.8908 3.2244 17.304 11.794 22.624s18.763 2.4391 25.508 0.5326c2.0479-0.5794 4.5646-1.2873 5.3764-1.167 0.8709 0.5349 1.9975 0.192 2.4991-0.6158z" fill="#D22F27"/><path d="m38.368 33.752s-1.0207-2.2751-2.3856-3.1224c-1.522-0.9448-2.7501-0.6102-4.5924 0.0536-1.2572 0.4516-2.6185 0.9414-4.2992 0.7309-0.5597-0.0701-0.8772 0.6307-0.4723 1.0234 3.4626 3.3568 5.1926 7.5546 5.8325 9.4125 0.0932 0.2708 0.2895 0.502 0.4996 0.6284 0.2065 0.1323 0.5008 0.2056 0.7848 0.169 1.949-0.2507 6.4785-0.5625 11.023 1.0515 0.5316 0.1887 1.0188-0.4068 0.7077-0.8773-0.9343-1.4129-1.0992-2.8502-1.2522-4.1772-0.2224-1.9456-0.4673-3.1946-1.9893-4.1395-1.3649-0.8474-3.8566-0.7529-3.8566-0.7529z" fill="#fff"/></g><g id="c" fill="none" stroke="#000" stroke-miterlimit="10" stroke-width="2"><path d="m59.557 52.301c0.0023-0.0038 0.0034-8e-3 0.0058-0.0118 0.0024-4e-3 0.0038-0.0086 0.0063-0.0126 0.3557-0.5929 0.3272-1.306-0.0084-1.8614-2.3758-5.3476-2.4708-10.543-2.5386-14.727-0.0692-4.2642-0.1243-7.6324-2.4436-9.7216-1.5084-1.3593-3.6639-1.866-6.7806-1.5912-2.0898 0.1883-2.3516 0.4517-3.3919-0.1941s-0.9204-0.9973-1.6799-2.9566c-1.1463-2.9441-2.5625-4.6637-4.4577-5.4131-2.8893-1.1421-5.9077 0.3033-9.7293 2.1327-3.7707 1.8059-8.4563 4.0366-14.325 4.2904-0.6841-0.0849-1.3929 0.1982-1.7732 0.8108-0.5718 0.921-0.1461 2.0778 0.599 2.5454 0.4679 0.6741 0.9501 3.2438 1.3393 5.3361 1.2839 6.8908 3.2244 17.304 11.794 22.624s18.763 2.4391 25.508 0.5326c2.0479-0.5794 4.5646-1.2873 5.3764-1.167 0.8709 0.5349 1.9975 0.192 2.4991-0.6158z"/><path d="m38.368 33.752s-1.0207-2.2751-2.3856-3.1224c-1.522-0.9448-2.7501-0.6102-4.5924 0.0536-1.2572 0.4516-2.6185 0.9414-4.2992 0.7309-0.5597-0.0701-0.8772 0.6307-0.4723 1.0234 3.4626 3.3568 5.1926 7.5546 5.8325 9.4125 0.0932 0.2708 0.2895 0.502 0.4996 0.6284 0.2065 0.1323 0.5008 0.2056 0.7848 0.169 1.949-0.2507 6.4785-0.5625 11.023 1.0515 0.5316 0.1887 1.0188-0.4068 0.7077-0.8773-0.9343-1.4129-1.0992-2.8502-1.2522-4.1772-0.2224-1.9456-0.4673-3.1946-1.9893-4.1395-1.3649-0.8474-3.8566-0.7529-3.8566-0.7529z"/></g></svg>
