<?xml version="1.0" encoding="UTF-8"?>
<svg id="a" viewBox="0 0 72 72" xmlns="http://www.w3.org/2000/svg"><g id="b"><path d="m60.5 25c0-7.4438-6.0557-13.5-13.5-13.5-4.4033 0-8.4844 2.1377-11 5.6724-2.5156-3.5347-6.5962-5.6724-11-5.6724-7.4438 0-13.5 6.0562-13.5 13.5 0 2.7285 0.8403 5.4082 2.3833 7.6504l-0.0347 0.0273 20.866 25.862h2.5708l20.227-25.07 0.668-0.8369-0.0352-0.0244c1.5244-2.2333 2.3545-4.8969 2.3545-7.6088z" fill="#EA5A47"/><path d="m60.339 24.537c-2.9255 0-8.1155 2.8499-10.701 5.6249 0.4932 0.5277 0.7996 1.2567 0.7996 2.0591-0.0285 3.7067 0.0671 3.8492-0.093 4.4872 6.8388 2.1218 8.5475 7.3849 11.917 2.9132 3.8447-5.1031 1.694-15.084-1.9223-15.084z" fill="#FCEA2B"/><path d="m50.436 32.489c2.7474-2.5023 7.2539-4.8396 9.9033-4.8396 1.9801 0 3.5207 2.9925 3.8784 6.5382 0.4857-4.7077-1.3334-9.6513-3.8784-9.6513-2.9255 0-8.1155 2.8499-10.701 5.6249 0.4932 0.5277 0.7996 1.2567 0.7996 2.0591-8e-4 0.092-0.0014 0.1811-0.0019 0.2687z" fill="#F1B31C"/><path d="m32.473 39.621c3.3692 4.4717 5.0779-0.7915 11.917-2.9132-0.1601-0.6379-0.0645-0.7804-0.093-4.4872 0-0.8024 0.3064-1.5315 0.7996-2.0591-2.5855-2.7751-7.7755-5.6249-10.701-5.6249-3.6162 0-5.767 9.9813-1.9223 15.084z" fill="#FCEA2B"/><path d="m44.299 32.489c-2.7474-2.5023-7.2539-4.8396-9.9033-4.8396-1.9801 0-3.5207 2.9925-3.8784 6.5382-0.4857-4.7077 1.3334-9.6513 3.8784-9.6513 2.9255 0 8.1155 2.8499 10.701 5.6249-0.4932 0.5277-0.7996 1.2567-0.7996 2.0591 7e-4 0.092 0.0013 0.1811 0.0019 0.2687z" fill="#F1B31C"/><path d="m44.224 37.133c-0.7336 0.2654-1.3985 0.5799-2.0064 0.9181-1.3036 1.734-3.6129 5.2131-6.0849 10.751-0.197 0.4413 0.1046 0.9701 0.5041 0.8828l2.8449-0.622c0.4127-0.0902 0.8258 0.1557 1.0284 0.6122l1.2813 2.8876c0.2242 0.5053 0.8301 0.4045 0.9396-0.1564 0.5556-2.8469 1.8298-8.9941 3.3739-13.14-0.9105-0.1938-1.6445-1.0381-1.8809-2.1341z" fill="#FCEA2B"/><path d="m52.396 38.085c-0.627-0.3591-1.3017-0.6873-2.0316-0.9518-0.2364 1.096-0.9705 1.9404-1.881 2.134 1.5442 4.1454 2.8184 10.293 3.374 13.14 0.1095 0.5609 0.7154 0.6617 0.9396 0.1564l1.2814-2.8876c0.2026-0.4564 0.6157-0.7024 1.0284-0.6122l2.8449 0.622c0.3996 0.0873 0.7011-0.4415 0.5041-0.8828-2.4562-5.5027-4.7518-8.9723-6.0598-10.718z" fill="#FCEA2B"/><path d="m47.495 28.812h-0.9906c-1.318 0-2.3902 1.4052-2.3902 3.1326v3.9211c0 1.7274 1.0722 3.1327 2.3902 3.1327h0.9906c1.318 0 2.3902-1.4053 2.3902-3.1327v-3.9211c0-1.7274-1.0722-3.1326-2.3902-3.1326z" fill="#FCEA2B"/><path d="m47.055 35.866v-3.9211c0-1.3004-0.6077-2.4179-1.4703-2.8911 0.2833-0.1554 0.594-0.2416 0.9198-0.2416h0.9906c1.318 0 2.3902 1.4052 2.3902 3.1326v3.9211c0 1.7274-1.0722 3.1327-2.3902 3.1327h-0.9906c-0.3258 0-0.6365-0.0862-0.9198-0.2416 0.8626-0.4731 1.4703-1.5906 1.4703-2.891z" fill="#F1B31C"/><line x1="15.556" x2="32.446" y1="32.264" y2="32.264" fill="none"/></g><g id="c"><path d="m49.835 36.794c6.8388 2.1218 8.5475 7.3849 11.917 2.9132 3.4589-4.591 2.0652-13.13-0.8826-14.798-0.3288-0.186-0.6769-0.2865-1.0397-0.2865-1.3081 0-3.069 0.5698-4.8473 1.4479h-1e-4c-2.1988 1.0857-4.4243 2.6428-5.8537 4.177" fill="none" stroke="#000" stroke-miterlimit="10" stroke-width="2"/><path d="m44.224 36.794c-0.7336 0.2654-1.3985 0.5799-2.0064 0.9181-1.3036 1.734-3.6129 5.2131-6.0849 10.751-0.197 0.4413 0.1046 0.9701 0.5041 0.8828l2.8449-0.622c0.4127-0.0902 0.8258 0.1557 1.0284 0.6122l1.2813 2.8876c0.2242 0.5053 0.8301 0.4045 0.9396-0.1564 0.5556-2.8469 1.8298-8.9941 3.3739-13.14-0.9105-0.1938-1.6445-1.0381-1.8809-2.1341z" fill="none" stroke="#000" stroke-linecap="round" stroke-linejoin="round" stroke-miterlimit="10" stroke-width="2"/><path d="m51.866 37.746c-0.627-0.3591-1.3017-0.6873-2.0316-0.9518-0.2364 1.096-0.9705 1.9404-1.881 2.134 1.5442 4.1454 2.8184 10.293 3.374 13.14 0.1095 0.5609 0.7154 0.6617 0.9396 0.1564l1.2814-2.8876c0.2026-0.4564 0.6157-0.7024 1.0284-0.6122l2.8449 0.622c0.3996 0.0873 0.7011-0.4415 0.5041-0.8828-2.4562-5.5027-4.7518-8.9723-6.0598-10.718z" fill="none" stroke="#000" stroke-linecap="round" stroke-linejoin="round" stroke-miterlimit="10" stroke-width="2"/><path d="m47.495 28.812h-0.9906c-1.318 0-2.3902 1.4052-2.3902 3.1326v3.9211c0 1.7274 1.0722 3.1327 2.3902 3.1327h0.9906c1.318 0 2.3902-1.4053 2.3902-3.1327v-3.9211c0-1.7274-1.0722-3.1326-2.3902-3.1326z" fill="none" stroke="#000" stroke-miterlimit="10" stroke-width="2"/><path d="m44.372 29.891c-2.5855-2.7751-7.2347-5.3542-10.16-5.3542-3.6163 0-5.767 9.9814-1.9223 15.084 3.3692 4.4717 5.0779-0.7915 11.917-2.9132" fill="none" stroke="#000" stroke-miterlimit="10" stroke-width="2"/><g id="d"><path d="M58.6477,20.4541C56.8293,15.7982,52.2998,12.5,47,12.5c-4.7533,0-8.8861,2.6536-11,6.5598C33.8861,15.1536,29.7533,12.5,25,12.5 c-6.9036,0-12.5,5.5964-12.5,12.5c0,2.9699,1.0403,5.6942,2.7703,7.8387l-0.0043,0.0034L36,58.5397l3.1014-3.8438" fill="none" stroke="#000" stroke-linecap="round" stroke-linejoin="round" stroke-miterlimit="10" stroke-width="2"/></g></g></svg>
