<?xml version="1.0" encoding="UTF-8"?>
<svg id="a" viewBox="0 0 72 72" xmlns="http://www.w3.org/2000/svg"><g id="b" fill="none" stroke="#000" stroke-linecap="round" stroke-linejoin="round"><path d="m37.194 66.466a151.07 151.07 0 0 0-11.453-35.001" stroke-width="2"/><path d="m35.661 30.455s4.1766 21.626-2.0021 33.081" stroke-width="2"/><path d="m46.718 30.455s-5.3346 22.94-14.586 35.264" stroke-width="2"/><path d="m31.976 54.954s-3.0829 2.95 5.9207 4.0468c6.4239 0.7826 4.5685-2.8057 4.5685-2.8057" stroke-width="2.1049"/></g><g id="c"><path d="m34.684 65.536a2 2 0 0 1-1.7588-2.9492c6.4991-11.421 1.1687-35.079 1.1287-35.288a2 2 0 0 1 3.9277-0.7578c0.1758 0.9111 4.9085 25.999-1.5349 37.944a2 2 0 0 1-1.7627 1.0507z" fill="#5c9e31"/><path d="M33.3326,67.7258A1.0112,1.0112,0,0,0,34.68,67.458c9.1227-12.83,15.7884-39.4851,16.0058-40.42a2,2,0,1,0-3.8965-.9062c-.0506.22-5.8561,26.6265-15.47,38.9794a.9989.9989,0,0,0,.296,1.46Z" fill="#b1cc33"/><path d="M39.1973,67.0755a.9521.9521,0,0,0,.7453-1.1422c-.9945-4.4153-5.5785-23.2177-13.42-40.1127a2.0052,2.0052,0,0,0-2.9516-.8056,2.08,2.08,0,0,0-.6352,2.5811c3.3473,7.2972,5.4282,11.218,8.1834,19.046,2.8281,8.035,4.2236,16.2031,5.1338,20.092a.9551.9551,0,0,0,1.1243.7137Z" fill="#b1cc33"/><path d="m41.817 27.123s6.0374 3.9174 10.18-1.4008-2.9863-13.011-2.9863-13.011-4.5943-4.6622-7.2593-2.143c0 0 5.4376 9.2578 2.9326 13.243-2.5035 3.9821-2.867 3.3126-2.867 3.3126z" fill="#b399c8"/><path d="m50.022 27.011a5.2859 5.2859 0 0 0 7.783-1.2393c3.5786-4.66 0.33-10.993 0.33-10.993s-1.7291-4.2453-4.2774-4.8885-5.1918 3.8539-5.1918 3.8539 6.5567 7.2942 1.3562 13.267z" fill="#b399c8"/><path d="m49.215 12.915s-2.5449-2.6213-5-3.0472a8.223 8.223 0 0 1 2.5633-4.238 2.3937 2.3937 0 0 1 2.235 0.2337 12.546 12.546 0 0 1 2.4176 2.5888l0.754 1.6058a8.9874 8.9874 0 0 0-2.9699 2.8569z" fill="#8967aa"/><path d="m27.316 23.81c-2.505-3.9848 2.9326-13.243 2.9326-13.243-2.665-2.5192-7.2593 2.143-7.2593 2.143s-7.1287 7.6932-2.9863 13.011 10.18 1.4008 10.18 1.4008-0.3632 0.6699-2.867-3.3126z" fill="#ffa7c0"/><path d="m23.334 13.744s-2.6435-4.4971-5.1918-3.8539-4.2776 4.8885-4.2776 4.8885-3.2484 6.3332 0.33 10.993a5.2859 5.2859 0 0 0 7.783 1.2393c-5.2003-5.9728 1.3564-13.267 1.3564-13.267z" fill="#ffa7c0"/><path d="m19.815 10.058 0.754-1.6058a12.546 12.546 0 0 1 2.4176-2.5888 2.3937 2.3937 0 0 1 2.235-0.2337 8.223 8.223 0 0 1 2.5635 4.238c-2.4553 0.4259-5 3.0472-5 3.0472a8.9874 8.9874 0 0 0-2.9701-2.8569z" fill="#e67a94"/><path d="M35.8811,13.2113c-1.6425,1.518-3.6864,5.5415-3.771,7.1322-.1445,2.7169-.0536,3.3326,1.4953,5.9309.1783.2991.36.2716.9114.7035.7524.5892-2.82,1.282-2.82,1.282-2.2728.1605-3.7376-2.3027-4.578-4.4424-2.0163-5.1337,2.516-13.92,4.7889-14.08,0,0,1.2362.1488,4.3213,3.0765Z" fill="#f4aa41"/><path d="m40.597 11.977c1.9846 0.5944 5.4435 8.6057 2.6394 12.71a4.9253 4.9253 0 0 1-3.72 2.2074 7.0067 7.0067 0 0 1-2.72-0.1767c-2.0287-0.42-3.39-2.5163-3.6055-4.5768-0.5172-4.9436 5.3776-10.584 7.4062-10.164" fill="#f4aa41"/><path d="m33.95 9.7953c1.0766-1.7282 2.5759-2.9937 3.3718-2.9022" fill="#e27022"/><path d="m35.906 13.8s-3.181-2.7028-3.3862-2.7905c-0.25-0.1074 0.6713-3.36 3.7143-5.2035s5.1841 5.1835 5.1841 5.1835l-1.5056 0.2149a1.6459 1.6459 0 0 0-0.68 0.2569c-0.9222 0.6096-3.3266 2.3387-3.3266 2.3387z" fill="#e27022"/><path d="m37.194 66.466a151.07 151.07 0 0 0-11.453-35.001" fill="none" stroke="#000" stroke-linecap="round" stroke-linejoin="round" stroke-width="2"/><path d="m35.661 30.455s4.1766 21.626-2.0021 33.081" fill="none" stroke="#000" stroke-linecap="round" stroke-linejoin="round" stroke-width="2"/><path d="m46.718 30.455s-5.3346 22.94-14.586 35.264" fill="none" stroke="#000" stroke-linecap="round" stroke-linejoin="round" stroke-width="2"/><path d="m31.976 54.954s-3.0829 2.95 5.9207 4.0468c6.4239 0.7826 4.5685-2.8057 4.5685-2.8057" fill="none" stroke="#fcea2b" stroke-linecap="round" stroke-linejoin="round" stroke-width="2.1049"/></g><g id="d" fill="none" stroke="#000" stroke-linecap="round" stroke-linejoin="round" stroke-width="2"><path d="m40.657 11.169c2.1643 0.6482 5.9363 9.3848 2.8784 13.861a5.3711 5.3711 0 0 1-4.0568 2.4072 7.6405 7.6405 0 0 1-2.9664-0.1927c-2.2123-0.458-3.6969-2.7441-3.9319-4.9911-0.5641-5.3912 5.8643-11.542 8.0767-11.084"/><path d="m34.408 8.9219c0.9368-1.5038 2.2414-2.6049 2.9339-2.5253"/><path d="M37.3415,6.3966c.5485.1119,1.3515,1.09,1.9495,2.3752"/><path d="m31.369 27.29c-2.2541 0.1518-3.801-1.669-4.63-3.7707-1.9886-5.0427 2.5558-12.692 4.81-12.843"/><path d="m31.373 10.663a3.8924 3.8924 0 0 1 2.2274 1.2722"/><path d="m46.013 27.492a7.814 7.814 0 0 0 2.4083-0.2476c2.2123-0.458 3.6969-2.7441 3.9319-4.9911 0.477-4.559-4.0464-9.6612-6.7921-10.851"/><path d="m50.526 8.9219c-0.9365-1.5038-2.2414-2.6049-2.9339-2.5253"/><path d="M47.5926,6.3966c-.5485.1119-1.3515,1.09-1.95,2.3752"/><path d="m53.565 27.29c2.2541 0.1518 3.801-1.669 4.63-3.7707 1.9886-5.0427-2.5558-12.692-4.81-12.843"/><path d="m53.562 10.663a3.8924 3.8924 0 0 0-2.2274 1.2722"/><path d="m26.439 11.403c-2.7457 1.19-7.2691 6.2918-6.7921 10.851 0.235 2.247 1.72 4.5331 3.9319 4.9911a7.814 7.814 0 0 0 2.4083 0.2476"/><path d="M24.4074,6.3966c-.6925-.08-1.9971,1.0215-2.9339,2.5253"/><path d="m26.357 8.7718c-0.598-1.2856-1.401-2.2633-1.95-2.3752"/><path d="M18.6154,10.676c-2.2542.1518-6.7986,7.8007-4.81,12.8434.8288,2.1017,2.3757,3.9225,4.63,3.7707"/><path d="m20.666 11.936a3.8924 3.8924 0 0 0-2.2274-1.2722"/></g></svg>
