<svg xmlns="http://www.w3.org/2000/svg" id="a" viewBox="0 0 72 72"><g id="b" fill="#FFA7C0"><path d="M43,36.1645c0-4.7003-3.8103-8.5106-8.5106-8.5106c-3.2363,0-6.0501,1.8067-7.4894,4.4662 c-1.4392-2.6595-4.2531-4.4662-7.4894-4.4662c-4.7003,0-8.5106,3.8103-8.5106,8.5106c0,2.0221,0.7083,3.8769,1.8862,5.337 l-0.0029,0.0023L27,59l14.1167-17.4962l-0.0029-0.0023C42.2917,40.0413,43,38.1865,43,36.1645z"/><path d="M61,17.5213C61,15.0242,58.9758,13,56.4787,13c-1.7193,0-3.2141,0.9598-3.9787,2.3727 C51.7354,13.9598,50.2406,13,48.5213,13C46.0242,13,44,15.0242,44,17.5213c0,1.0742,0.3763,2.0596,1.002,2.8353l-0.0015,0.0012 L52.5,29.6526l7.4995-9.2948l-0.0015-0.0012C60.6237,19.5809,61,18.5955,61,17.5213z"/></g><g id="c" fill="none" stroke="#000" stroke-miterlimit="10" stroke-width="2"><path stroke-linecap="round" d="M19.6143,21.6923 C23.7178,18.4958,29.5411,16.5,36,16.5c0.6906,0,1.3739,0.0228,2.0486,0.0675"/><path stroke-linecap="round" d="m60.92 30.261c0.3795 1.2013 0.5801 2.4528 0.5801 3.7387 0 8.7281-9.2412 15.873-20.94 16.461"/><path stroke-linejoin="round" d="m43 36.164c0-4.7003-3.8103-8.5106-8.5106-8.5106-3.2363 0-6.0501 1.8067-7.4894 4.4662-1.4392-2.6595-4.2531-4.4662-7.4894-4.4662-4.7003 0-8.5106 3.8103-8.5106 8.5106 0 2.0221 0.7083 3.8769 1.8862 5.337l-0.0029 0.0023 14.117 17.496 14.117-17.496-0.0029-0.0023c1.1779-1.4602 1.8862-3.315 1.8862-5.337z"/><path stroke-linejoin="round" d="M61,17.5213 C61,15.0242,58.9758,13,56.4787,13c-1.7193,0-3.2141,0.9598-3.9787,2.3727C51.7354,13.9598,50.2406,13,48.5213,13 C46.0242,13,44,15.0242,44,17.5213c0,1.0742,0.3763,2.0596,1.002,2.8353l-0.0015,0.0012L52.5,29.6526l7.4995-9.2948 l-0.0015-0.0012C60.6237,19.5809,61,18.5955,61,17.5213z"/></g></svg>