<svg xmlns="http://www.w3.org/2000/svg" id="a" viewBox="0 0 72 72"><g id="b" fill="#EA5A47"><path d="m49.566 15.609c-4.3218 0-8.187 2.3611-10.189 6.1814l-3.377 7.8874 7 6.0169-6 8.4238 5 6.8813-3.5852 9.1622 20.462-26.237c1.4419-1.9653 2.2134-4.3222 2.2134-6.7934 0-6.3535-5.17-11.522-11.524-11.522z"/><path d="m37.099 50.984-5.0534-6.9615 5.9387-8.0457-7.0457-5.9463s1.6215-7.5485 1.455-7.8939c-1.9444-4.0263-5.9185-6.5278-10.371-6.5278-6.3535 0-11.522 5.169-11.522 11.522 0 2.1167 0.5776 4.185 1.6714 5.9814l0.6602 0.9737 20.462 26.23 0.3502-0.449 3.4548-8.8833z"/></g><g id="c" fill="none" stroke="#000" stroke-miterlimit="10" stroke-width="2"><path stroke-linecap="round" stroke-linejoin="round" d="m49.566 15.609c-4.3218 0-8.187 2.3611-10.189 6.1814l-3.377 7.8874 7 6.0169-6 8.4238 5 6.8813-3.5852 9.1622 20.462-26.237c1.4419-1.9653 2.2134-4.3222 2.2134-6.7934 0-6.3535-5.17-11.522-11.524-11.522z"/><path d="m37.099 50.984-5.0534-6.9615 5.9387-8.0457-7.0457-5.9463s1.6215-7.5485 1.455-7.8939c-1.9444-4.0263-5.9185-6.5278-10.371-6.5278-6.3535 0-11.522 5.169-11.522 11.522 0 2.1167 0.5776 4.185 1.6714 5.9814l0.6602 0.9737 20.462 26.23 0.3502-0.449 3.4548-8.8833z"/></g></svg>