<svg xmlns="http://www.w3.org/2000/svg" id="a" viewBox="0 0 72 72"><g id="b"><path fill="#E67A94" d="m60.5 25c0-7.4438-6.0557-13.5-13.5-13.5-4.4033 0-8.4844 2.1377-11 5.6724-2.5156-3.5347-6.5962-5.6724-11-5.6724-7.4438 0-13.5 6.0562-13.5 13.5 0 2.7285 0.8403 5.4082 2.3833 7.6504l-0.0347 0.0273 20.866 25.862h2.5708l20.227-25.07 0.668-0.8369-0.0352-0.0244c1.5244-2.2333 2.3545-4.8969 2.3545-7.6088z"/><path fill="#FCEA2B" d="m26.676 38.305c0.1049 0.5815 0.6677 1.0558 1.421 1.1981l8.5987 1.6246c0.4027 0.0761 0.4073 0.5078 0.0046 0.5839-2.282 0.4312-6.5127 1.2304-8.6081 1.6263-0.7533 0.1423-1.3112 0.616-1.4161 1.1974l-2.2795 12.633c-0.0627 0.3475-0.7275 0.3475-0.7902 0l-2.2795-12.633c-0.1049-0.5815-0.6629-1.0552-1.4163-1.1975-2.0955-0.3957-6.3263-1.195-8.6084-1.6262-0.4027-0.0761-0.4027-0.5069 0-0.583 2.2823-0.4312 6.5133-1.2306 8.6086-1.6267 0.7532-0.1423 0.8465-0.8247 0.9514-1.4061l1.7931-10.178c0.0627-0.3475 1.6784-2.5957 1.741-2.2481 0.7095 3.9321 2.1393 11.856 2.2797 12.635z"/><path fill="#F1B31C" d="m23.837 57.169 1.7746-11.125c-1.9242-3.3355-3.3469-6.7963-4.2428-9.2606l-0.2443 1.5312c-0.0927 0.5811-0.5856 1.0544-1.2512 1.1968-1.8515 0.3958-5.5901 1.1948-7.6067 1.6259-0.3558 0.076-0.3558 0.5066 0 0.5827 2.0165 0.431 5.7549 1.2298 7.6064 1.6253 0.6657 0.1423 1.1588 0.6157 1.2515 1.1969l2.0142 12.627c0.0555 0.3472 0.643 0.3472 0.6983-2e-4z"/><path fill="#FCEA2B" d="m51.882 18.936c0.0862 0.4637 0.5487 0.8419 1.1677 0.9554l7.0663 1.2955c0.3309 0.0607 0.3347 0.4049 0.0038 0.4656-1.8753 0.3438-5.352 0.9812-7.074 1.2969-0.619 0.1135-1.0775 0.4912-1.1637 0.9548l-1.8733 10.074c-0.0515 0.2771-0.5978 0.2771-0.6494 0l-1.8733-10.074c-0.0862-0.4637-0.5448-0.8414-1.1639-0.9549-1.722-0.3156-5.1988-0.9529-7.0743-1.2967-0.3309-0.0607-0.3309-0.4042 0-0.4649 1.8755-0.3438 5.3525-0.9813 7.0745-1.2972 0.619-0.1135 0.6956-0.6577 0.7818-1.1213l1.4736-8.1159c0.0515-0.2771 1.3793-2.0699 1.4308-1.7927 0.583 3.1355 1.758 9.4545 1.8734 10.075z"/><path fill="#F1B31C" d="m50.075 33.978 1.2105-8.8711c-1.3126-2.6598-2.2831-5.4195-2.8942-7.3846l-0.1666 1.221c-0.0633 0.4634-0.3994 0.8408-0.8535 0.9543-1.263 0.3156-3.8133 0.9528-5.1889 1.2965-0.2427 0.0606-0.2427 0.404 0 0.4647 1.3756 0.3437 3.9257 0.9807 5.1887 1.2961 0.4541 0.1134 0.7904 0.491 0.8537 0.9544l1.374 10.069c0.0378 0.2769 0.4385 0.2769 0.4763-1e-4z"/></g><g id="c" fill="none" stroke="#000" stroke-linecap="round" stroke-linejoin="round" stroke-miterlimit="10" stroke-width="2"><g id="d"><path d="M29.1505,50.0504L36,58.5397l20.7339-25.6975l-0.0043-0.0034C58.4597,30.6942,59.5,27.9699,59.5,25"/><path d="m45.249 12.622c-4.0043 0.5613-7.3996 3.0202-9.2493 6.4381-2.1139-3.9062-6.2467-6.5598-11-6.5598-6.9036 0-12.5 5.5964-12.5 12.5 0 2.9699 1.0403 5.6942 2.7703 7.8387l-0.0043 0.0034 2.1605 2.6777"/></g><path d="m22.556 32.45 1.5469-8.0604 0.5052 3.0162c0.081 0.4824 1.6827 10.043 1.6827 10.043 0.1889 1.1269 1.1869 2.0334 2.5426 2.3092l8.167 1.662-8.1728 1.663c-1.3523 0.2752-2.3482 1.1812-2.5369 2.3084l-2.1876 13.059-2.1876-13.058c-0.1889-1.1272-1.1848-2.0333-2.5372-2.3085l-8.173-1.6629 8.1735-1.6634c1.352-0.2753 2.2663-1.8467 2.455-2.9736"/><path d="m48.848 14.267 1.2335-6.4275 0.4029 2.4052c0.0646 0.3847 1.3418 8.0084 1.3418 8.0084 0.1506 0.8986 0.9465 1.6215 2.0275 1.8414l6.5126 1.3253-6.5171 1.3261c-1.0783 0.2194-1.8725 0.9419-2.023 1.8408l-1.7445 10.413-1.7445-10.413c-0.1506-0.8988-0.9448-1.6214-2.0232-1.8409l-6.5174-1.326 6.5177-1.3264c1.0781-0.2195 1.8072-1.4726 1.9577-2.3712"/></g></svg>