<svg xmlns="http://www.w3.org/2000/svg" id="a" viewBox="0 0 72 72"><g id="b"><path fill="#FFA7C0" d="m60.5 25c0-7.4438-6.0557-13.5-13.5-13.5-4.4033 0-8.4844 2.1377-11 5.6724-2.5156-3.5347-6.5962-5.6724-11-5.6724-7.4438 0-13.5 6.0562-13.5 13.5 0 2.7285 0.8403 5.4082 2.3833 7.6504l-0.0347 0.0273 20.866 25.862h2.5708l20.227-25.07 0.668-0.8369-0.0352-0.0244c1.5244-2.2333 2.3545-4.8969 2.3545-7.6088z"/><polyline fill="#61B2E4" points="19.821 52.179 20.096 58.904 14.107 64.893 13.832 58.168 19.821 52.179"/><polyline fill="#92D3F5" points="7.882 57.668 14.332 57.668 20.321 51.679 13.871 51.679 7.882 57.668"/><polygon fill="#92D3F5" points="68.18 3.628 66.924 8.48 65.669 13.331 62.073 9.735 58.477 6.139 63.328 4.884"/></g><g id="c"><g id="d"><path fill="none" stroke="#000" stroke-linecap="round" stroke-linejoin="round" stroke-miterlimit="10" stroke-width="2" d="m28.263 48.951 7.7368 9.5889 20.734-25.698-0.0043-0.0034c1.7301-2.1446 2.7704-4.8689 2.7704-7.8388 0-6.9036-5.5964-12.5-12.5-12.5-4.7533 0-8.8861 2.6536-11 6.5598-2.1139-3.9062-6.2467-6.5598-11-6.5598-6.9036 0-12.5 5.5964-12.5 12.5 0 2.9699 1.0403 5.6942 2.7703 7.8387l-0.0043 0.0034 7.8527 9.7326"/></g><line x1="34.5" x2="21" y1="37.5" y2="51" fill="none" stroke="#000" stroke-linecap="round" stroke-linejoin="round" stroke-miterlimit="10" stroke-width="2"/><line x1="62.092" x2="58" y1="9.908" y2="14" fill="none" stroke="#000" stroke-linecap="round" stroke-linejoin="round" stroke-miterlimit="10" stroke-width="2"/><polygon fill="none" stroke="#000" stroke-linecap="round" stroke-linejoin="round" stroke-miterlimit="10" stroke-width="2" points="20.596 51.454 13.646 51.454 7.193 57.907 14.143 57.907 14.143 64.857 20.596 58.404"/><polygon fill="none" stroke="#000" stroke-linecap="round" stroke-linejoin="round" stroke-miterlimit="10" stroke-width="2" points="68.18 3.628 66.924 8.48 65.669 13.331 62.073 9.735 58.477 6.139 63.328 4.884"/></g></svg>