<svg xmlns="http://www.w3.org/2000/svg" id="a" viewBox="0 0 72 72"><g id="b"><path fill="#FFA7C0" d="M59.5,25c0-6.9036-5.5964-12.5-12.5-12.5c-4.7533,0-8.8861,2.6536-11,6.5598 C33.8861,15.1536,29.7533,12.5,25,12.5c-6.9036,0-12.5,5.5964-12.5,12.5c0,2.9699,1.0403,5.6942,2.7703,7.8387l-0.0043,0.0034 L36,58.5397l20.7339-25.6975l-0.0043-0.0034C58.4597,30.6942,59.5,27.9699,59.5,25z"/><path fill="#E67A94" d="m56.417 29.4c0-5.9979-4.8623-10.86-10.86-10.86-4.1297 0-7.7204 2.3055-9.557 5.6992-1.8366-3.3937-5.4272-5.6992-9.557-5.6992-5.9979 0-10.86 4.8623-10.86 10.86 0 2.5803 0.9039 4.9472 2.4069 6.8104l-0.0037 3e-3 18.014 22.326 18.014-22.326-0.0037-3e-3c1.503-1.8633 2.4069-4.2301 2.4069-6.8104z"/><path fill="#FFA7C0" d="m53.865 33.042c0-5.2482-4.2545-9.5027-9.5027-9.5027-3.6135 0-6.7553 2.0173-8.3624 4.9868-1.607-2.9695-4.7488-4.9868-8.3624-4.9868-5.2482 0-9.5027 4.2545-9.5027 9.5027 0 2.2578 0.7909 4.3288 2.106 5.9591l-0.0032 0.0026 15.762 19.536 15.762-19.536-0.0032-0.0026c1.3151-1.6304 2.106-3.7014 2.106-5.9592z"/><path fill="#E67A94" d="m51.313 36.685c0-4.4984-3.6467-8.1451-8.1451-8.1451-3.0973 0-5.7903 1.7291-7.1677 4.2744-1.3774-2.5453-4.0704-4.2744-7.1677-4.2744-4.4984 0-8.1451 3.6467-8.1451 8.1451 0 1.9352 0.6779 3.7104 1.8052 5.1078l-0.0028 0.0022 13.51 16.745 13.51-16.745-0.0028-0.0022c1.1273-1.3975 1.8052-3.1726 1.8052-5.1079z"/></g><g id="c"><path fill="none" stroke="#000" stroke-linejoin="round" stroke-miterlimit="10" stroke-width="2" d="M59.5,25 c0-6.9036-5.5964-12.5-12.5-12.5c-4.7533,0-8.8861,2.6536-11,6.5598C33.8861,15.1536,29.7533,12.5,25,12.5 c-6.9036,0-12.5,5.5964-12.5,12.5c0,2.9699,1.0403,5.6942,2.7703,7.8387l-0.0043,0.0034L36,58.5397l20.7339-25.6975 l-0.0043-0.0034C58.4597,30.6942,59.5,27.9699,59.5,25z"/></g></svg>