<svg xmlns="http://www.w3.org/2000/svg" id="a" viewBox="0 0 72 72"><g id="b"><path fill="#61B2E4" d="m34.72 47.779c-1.5285 3.0359-4.1723 5.4814-7.6302 6.6234-3.4578 1.142-7.0381 0.7521-10.063-0.7418-2.9899-1.5053-5.4468-4.1837-6.5888-7.6416-1.8044-5.4634 1.9518-14.527 4.6645-21.061 0.4406-1.1043 0.8696-2.128 1.2407-3.0943 0.8737 0.5552 1.8279 1.1221 2.8281 1.7121 6.0702 3.6327 14.474 8.6422 16.29 14.14 1.142 3.4579 0.7521 7.0382-0.7418 10.063z"/><path fill="#61B2E4" d="m58.359 19.136c1.2807 2.4715 1.6342 5.3998 0.732 8.2423s-2.8796 5.031-5.3227 6.3207c-2.4341 1.2613-5.3907 1.6058-8.2333 0.7036-4.4913-1.4254-8.7024-8.2688-11.735-13.205-0.5212-0.8225-0.9946-1.5985-1.4575-2.3086 0.7878-0.3132 1.622-0.6742 2.4937-1.0546 5.3244-2.2839 12.683-5.4555 17.202-4.0211 2.8425 0.9023 5.031 2.8797 6.3207 5.3228z"/><path fill="#61B2E4" d="m59.116 51.031c-0.0551 2.0123-0.8567 3.9888-2.4228 5.4715-1.5662 1.4827-3.5836 2.1751-5.581 2.1357-1.9818-0.0542-3.9732-0.8715-5.4559-2.4377-2.3427-2.4745-2.611-8.2791-2.8016-12.464-0.0418-0.7029-0.0696-1.3597-0.1139-1.9711 0.6081 0.0777 1.2624 0.1413 1.9471 0.2058 4.1686 0.4192 9.935 0.9889 12.292 3.4791 1.4826 1.5662 2.175 3.5837 2.1356 5.5811z"/><path fill="#92D3F5" d="m20.373 24.296c-0.4083-0.2454-0.8099-0.4857-1.2012-0.7198-1.0002-0.59-1.9545-1.157-2.8281-1.7121-0.3712 0.9662-0.8001 1.99-1.2407 3.0942-2.7128 6.5334-6.4689 15.597-4.6646 21.061 1.142 3.4578 3.5989 6.1363 6.5889 7.6415 3.0245 1.4939 6.6048 1.8839 10.063 0.7418 1.6939-0.5594 3.1891-1.4351 4.4569-2.5363 2.1178-7.0326-5.3287-19.36-11.174-27.57z"/><path fill="#92D3F5" d="m35.88 17.387c-0.3553 0.1517-0.704 0.3013-1.0439 0.4471-0.8717 0.3804-1.7059 0.7415-2.4937 1.0546 0.463 0.7101 0.9363 1.4861 1.4575 2.3087 3.0329 4.9363 7.244 11.78 11.735 13.205 2.8426 0.9022 5.7993 0.5576 8.2333-0.7036 2.4431-1.2897 4.4205-3.4781 5.3227-6.3207 0.836-2.6343 0.5829-5.3372-0.4763-7.6868-4.7486-2.6696-15.345-2.683-22.735-2.3044z"/><path fill="#92D3F5" d="m55.376 57.503c0.2383-6.0273-7.4263-12.515-11.659-15.627-0.3361-0.0347-0.6629-0.0709-0.9766-0.111 0.0443 0.6115 0.0721 1.2682 0.1138 1.9711 0.1906 4.1853 0.4589 9.9899 2.8016 12.464 1.4827 1.5662 3.4741 2.3834 5.4559 2.4377 1.4743 0.029 2.958-0.3435 4.2645-1.1352z"/></g><g id="c" fill="none" stroke="#000" stroke-linecap="round" stroke-linejoin="round" stroke-miterlimit="10" stroke-width="2"><path d="m34.72 47.779c-1.5285 3.0359-4.1723 5.4814-7.6302 6.6234-3.4578 1.142-7.0381 0.7521-10.063-0.7418-2.9899-1.5053-5.4468-4.1837-6.5888-7.6416-1.8044-5.4634 1.9518-14.527 4.6645-21.061 0.4406-1.1043 0.8696-2.128 1.2407-3.0943 0.8737 0.5552 1.8279 1.1221 2.8281 1.7121 6.0702 3.6327 14.474 8.6422 16.29 14.14 1.142 3.4579 0.7521 7.0382-0.7418 10.063z"/><path d="m54.042 14.681c1.8757 1.0513 3.3489 2.6219 4.3163 4.4546 1.2807 2.4715 1.6342 5.3998 0.732 8.2423s-2.8796 5.031-5.3227 6.3207c-2.4341 1.2613-5.3907 1.6058-8.2333 0.7036-4.4913-1.4254-8.7024-8.2688-11.735-13.205-0.5212-0.8225-0.9946-1.5985-1.4575-2.3086 0.7878-0.3132 1.622-0.6742 2.4937-1.0546 2.3743-1.0184 5.1529-2.2134 7.904-3.0977m9.6448-0.8069c0.5824 0.2066 1.1357 0.459 1.6579 0.7517m-2.0044-0.8681c0.1166 0.037 0.2321 0.0758 0.3465 0.1164m-2.3751-0.4619c0.722 0.0365 1.4026 0.1469 2.0287 0.3456m-2.4678-0.3588c0.148 0.0015 0.2944 0.0059 0.4391 0.0132m-1.5129 0.0222c0.3657-0.0267 0.7241-0.039 1.0738-0.0354m-2.1291 0.1481c0.3576-0.0495 0.7097-0.0875 1.0553-0.1127m-1.7366 0.2195c0.229-0.0399 0.4562-0.0757 0.6813-0.1068m-2.2299 0.4315c0.5232-0.1267 1.0405-0.2361 1.5486-0.3247m-2.4127 0.5476c0.2895-0.0791 0.5777-0.1536 0.8641-0.2229m-1.2977 0.3445c0.1448-0.0416 0.2894-0.0822 0.4336-0.1216m-1.6075 0.4795c0.3923-0.1261 0.784-0.2459 1.1739-0.3579"/><path d="m59.116 51.031c-0.0551 2.0123-0.8567 3.9888-2.4228 5.4715-1.5662 1.4827-3.5836 2.1751-5.581 2.1357-1.9818-0.0542-3.9732-0.8715-5.4559-2.4377-2.3427-2.4745-2.611-8.2791-2.8016-12.464-0.0418-0.7029-0.0696-1.3597-0.1139-1.9711 0.6081 0.0777 1.2624 0.1413 1.9471 0.2058 4.1686 0.4192 9.935 0.9889 12.292 3.4791 1.4826 1.5662 2.175 3.5837 2.1356 5.5811z"/></g></svg>