<?xml version="1.0" encoding="UTF-8"?>
<svg id="a" version="1.1" viewBox="0 0 72 72" xmlns="http://www.w3.org/2000/svg"><g id="b" fill="none" stroke="#000" stroke-linecap="round" stroke-linejoin="round" stroke-width="2"><path d="m46.92 17.265c-0.1494-2.5109-0.8696-4.9547-2.1057-7.1454l-2.1438 1.3618-1.333-2.256c-2.1398 1.3226-3.9498 3.1159-5.2922 5.2433"/><path d="m14.258 30.41c-1.6317-1.9146-2.8052-4.1762-3.4311-6.6126l2.4895-0.5028-0.6013-2.55c2.4595-0.5283 5.0071-0.4886 7.4489 0.116"/><path d="M37.6369,56.4975 c1.6192,1.9252,3.6561,3.4556,5.9559,4.475L44.5,58.6l2.4163,1.0138c0.9265-2.3386,1.3074-4.8578,1.1137-7.3658"/><path d="m58.012 38.762c2.1801-1.2552 4.0451-2.9911 5.4532-5.0757l-2.176-1.31 1.4232-2.2c-2.139-1.3239-4.5519-2.1424-7.0549-2.3932"/><path d="m21.429 53.484c-2.4418 0.6048-4.9894 0.6446-7.4489 0.1165l0.662-2.452-2.55-0.601c0.6257-2.4366 1.799-4.6983 3.4306-6.613"/><path d="m29.569 32.7c-3.2222-2.6532-6.5311-7.3063-3.5375-15.334l2.3115 0.9849"/><path d="m28.24 18.393 0.9849-2.3115c7.7195 3.716 8.5562 9.364 8.07 13.51l0.206-0.0829c1.25-3.7348 4.334-7.9683 12.623-8.1919l-0.098 2.4333 2.4333 0.098c-0.3168 5.736-4.122 10.689-9.5825 12.474"/><path d="m29.569 32.7c-3.4885-1.8278-8.5424-2.7863-14.675 2.7938l1.7562 1.6874-1.6872 1.7562c4.2018 3.9178 10.378 4.8547 15.552 2.3593"/><path d="m30.412 41.338c-4.4006 3.4813-6.2347 9.2934-4.6293 14.67l2.3492-0.706 0.706 2.3492c12.115-4.3965 8.8766-14.823 8.8766-14.823l0.7211-0.29s5.0513 9.5776 16.773 4.5012l-1.015-2.2248 2.1833-1.118c-2.5966-4.9604-7.9238-7.8703-13.501-7.3744"/></g><g id="c" fill="none" stroke="#D22F27" stroke-linecap="round" stroke-linejoin="round" stroke-width="2"><path d="m46.92 17.265c-0.1494-2.5109-0.8696-4.9547-2.1057-7.1454l-2.1438 1.3618-1.333-2.256c-2.1398 1.3226-3.9498 3.1159-5.2922 5.2433"/><path d="m14.258 30.41c-1.6317-1.9146-2.8052-4.1762-3.4311-6.6126l2.4895-0.5028-0.6013-2.55c2.4595-0.5283 5.0071-0.4886 7.4489 0.116"/><path d="M37.6369,56.4975 c1.6192,1.9252,3.6561,3.4556,5.9559,4.475L44.5,58.6l2.4163,1.0138c0.9265-2.3386,1.3074-4.8578,1.1137-7.3658"/><path d="m58.012 38.762c2.1801-1.2552 4.0451-2.9911 5.4532-5.0757l-2.176-1.31 1.4232-2.2c-2.139-1.3239-4.5519-2.1424-7.0549-2.3932"/><path d="m21.429 53.484c-2.4418 0.6048-4.9894 0.6446-7.4489 0.1165l0.662-2.452-2.55-0.601c0.6257-2.4366 1.799-4.6983 3.4306-6.613"/><path d="m29.569 32.7c-3.2222-2.6532-6.5311-7.3063-3.5375-15.334l2.3115 0.9849"/><path d="m28.24 18.393 0.9849-2.3115c7.7195 3.716 8.5562 9.364 8.07 13.51l0.206-0.0829c1.25-3.7348 4.334-7.9683 12.623-8.1919l-0.098 2.4333 2.4333 0.098c-0.3168 5.736-4.122 10.689-9.5825 12.474"/><path d="m29.569 32.7c-3.4885-1.8278-8.5424-2.7863-14.675 2.7938l1.7562 1.6874-1.6872 1.7562c4.2018 3.9178 10.378 4.8547 15.552 2.3593"/><path d="m30.412 41.338c-4.4006 3.4813-6.2347 9.2934-4.6293 14.67l2.3492-0.706 0.706 2.3492c12.115-4.3965 8.8766-14.823 8.8766-14.823l0.7211-0.29s5.0513 9.5776 16.773 4.5012l-1.015-2.2248 2.1833-1.118c-2.5966-4.9604-7.9238-7.8703-13.501-7.3744"/></g></svg>
