<svg xmlns="http://www.w3.org/2000/svg" id="a" viewBox="0 0 72 72"><g id="b" fill="#EA5A47"><path d="m36 16.54c-8.293 0-16.662-4.3137-16.662-4.3137-0.9777-0.504-1.3268-0.1374-0.7757 0.8146 0 0 5.9136 10.214 17.438 10.126 11.524 0.0883 17.438-10.126 17.438-10.126 0.5512-0.952 0.2021-1.3186-0.7757-0.8146 0 0-8.3689 4.3137-16.662 4.3137z"/><path d="m36 55.46c8.2931 0 16.662 4.3137 16.662 4.3137 0.9778 0.504 1.3269 0.1374 0.7757-0.8145 0 0-5.9135-10.214-17.438-10.126-11.524-0.0883-17.438 10.126-17.438 10.126-0.5511 0.9519-0.202 1.3185 0.7757 0.8145 0 0 8.369-4.3137 16.662-4.3137z"/><path d="m55.46 36c0-8.293 4.3137-16.662 4.3137-16.662 0.504-0.9777 0.1374-1.3268-0.8146-0.7756 0 0-10.214 5.9135-10.126 17.438-0.0883 11.524 10.126 17.438 10.126 17.438 0.952 0.5512 1.3186 0.2021 0.8146-0.7756 0-2e-4 -4.3137-8.369-4.3137-16.662z"/><path d="m16.54 36c0 8.2931-4.3137 16.662-4.3137 16.662-0.504 0.9777-0.1374 1.3268 0.8145 0.7756 0 0 10.214-5.9135 10.126-17.438 0.0883-11.524-10.126-17.438-10.126-17.438-0.9519-0.5512-1.3185-0.2021-0.8145 0.7756 3e-4 -1e-4 4.3137 8.3689 4.3137 16.662z"/></g><g id="c" fill="none" stroke="#000" stroke-linecap="round" stroke-miterlimit="10" stroke-width="2"><path d="m36 16.54c-8.293 0-16.662-4.3137-16.662-4.3137-0.9777-0.504-1.3268-0.1374-0.7757 0.8146 0 0 5.9136 10.214 17.438 10.126 11.524 0.0883 17.438-10.126 17.438-10.126 0.5512-0.952 0.2021-1.3186-0.7757-0.8146 0 0-8.3689 4.3137-16.662 4.3137z"/><path d="m36 55.46c8.2931 0 16.662 4.3137 16.662 4.3137 0.9778 0.504 1.3269 0.1374 0.7757-0.8145 0 0-5.9135-10.214-17.438-10.126-11.524-0.0883-17.438 10.126-17.438 10.126-0.5511 0.9519-0.202 1.3185 0.7757 0.8145 0 0 8.369-4.3137 16.662-4.3137z"/><path d="m55.46 36c0-8.293 4.3137-16.662 4.3137-16.662 0.504-0.9777 0.1374-1.3268-0.8146-0.7756 0 0-10.214 5.9135-10.126 17.438-0.0883 11.524 10.126 17.438 10.126 17.438 0.952 0.5512 1.3186 0.2021 0.8146-0.7756 0-2e-4 -4.3137-8.369-4.3137-16.662z"/><path d="m16.54 36c0 8.2931-4.3137 16.662-4.3137 16.662-0.504 0.9777-0.1374 1.3268 0.8145 0.7756 0 0 10.214-5.9135 10.126-17.438 0.0883-11.524-10.126-17.438-10.126-17.438-0.9519-0.5512-1.3185-0.2021-0.8145 0.7756 3e-4 -1e-4 4.3137 8.3689 4.3137 16.662z"/></g></svg>