<?xml version="1.0" encoding="UTF-8"?>
<svg id="a" viewBox="0 0 72 72" xmlns="http://www.w3.org/2000/svg"><g id="b"><rect transform="matrix(.7071 -.7071 .7071 .7071 -2.4114 41.177)" x="43" y="15.721" width="11" height="15.556" fill="#9B9B9A"/><polygon points="46.034 22.212 50.512 17.734 57.889 25.111 52.522 30.478" fill="#3F3F3F"/><circle cx="31.769" cy="40.404" r="23" fill="#9B9B9A"/><path d="m19.633 55.737c12.702 0 23-10.298 23-23 0-5.5327-1.9548-10.608-5.2097-14.576 9.8615 2.5932 17.136 11.567 17.136 22.243 0 12.702-10.298 23-23 23-7.1697 0-13.572-3.2816-17.79-8.4237 1.8726 0.4922 3.8373 0.7571 5.8643 0.7571z" fill="#3F3F3F"/></g><g id="c" fill="none" stroke="#000" stroke-linecap="round" stroke-linejoin="round" stroke-miterlimit="10" stroke-width="2"><polyline points="41.46 19.539 46.889 14.11 57.889 25.11 52.522 30.477"/><circle cx="31.769" cy="40.404" r="23"/><line x1="55.757" x2="64.243" y1="16.243" y2="7.7574"/></g></svg>
