<?xml version="1.0" encoding="UTF-8"?>
<svg id="a" viewBox="0 0 72 72" xmlns="http://www.w3.org/2000/svg"><g id="b" fill="#a57939" stroke="#a57939"><path d="m63.11 54.165c-10.969 9.4397-26.361 11.68-46.41 11.563 0 0-3.7408 1.1495-4.5981-3.5655 0 0-0.7696-20.886 3.809-35.548 0 0-0.1948-5.9814 0.0293-9.8976 0.0389-0.6722 0.3312-1.2957 0.828-1.7535 5.7574-5.319 8.3487-6.0983 8.3487-6.0983l8.3682-1.4808c1.3249 0.906 4.2279 4.1792 3.7505 9.995l0.1071-0.3994 3.2148 0.9012c1.1226 0.3416 1.8585 1.525 1.8412 2.6546-0.0098 1.169-2.8056 2.0457-2.8056 2.0457l-6.1178 1.3834c-1.8314 2.8738-5.5937 3.1758-7.279 3.0979-0.0877-0.2435-0.5927-0.0195-0.1933 0 0.5942 1.5002 1.2893 5.1144 1.9225 11.807l0.1753 1.8606c0.0487 0.5261 0.3166 4.7286 0.3847 7.4757 1.812-4.413 6.6361-12.561 15.735-13.847 13.463-1.9192 20.165 8.4948 20.165 8.4948s0.2338 0.2728 0.526 0.7696c2.0654 3.4486 1.2471 7.9103-1.8021 10.541z"/><path d="m26.508 26.81c-0.41-0.02-0.74-0.06-0.94-0.09l0.64-0.49c0.11 0.14 0.21 0.33 0.3 0.58z"/><path d="m26.508 26.81c-0.41-0.02-0.74-0.06-0.94-0.09l0.64-0.49c0.11 0.14 0.21 0.33 0.3 0.58z"/></g><g id="c" fill="#6a462f"><path d="m21.922 26.23s5.3444-4.9857 1.6152-6.3791l12.761-0.4198 0.6708-1.142 0.2196-1.8442c1.0717 0.1781 3.365 0.9463 3.6416 1.0119 0 0 2.4043 1.8731 0.4487 4.0933l-7.7788 2.2345c0-1e-4 -4.7232 3.8035-11.578 2.4454z"/><path d="m21.922 26.23c0.7946 9.2179 2.5603 25.641 2.0697 27.745-0.0446 0.6989 0.6552 0.8094 1.0129 0.2954 0.8285-0.6666 2.7669-2.5969 3.8182-5.1942 0-5.762-0.6668-12.458-2.2191-22.263-0.5702-1.5845-2.9393-1.565-4.6817-0.5835z"/><path d="m48.199 34.1s10.239 6.9729 3.106 16.42c0 0 2.1324 8.5167 0.1552 9.8508s20.619-5.5453 12.136-18.563c1e-4 1e-4 -5.1583-7.5727-15.397-7.7073z"/></g><g id="d" fill="none" stroke="#000" stroke-linecap="round" stroke-linejoin="round" stroke-miterlimit="10" stroke-width="2"><path d="m27.468 40.552c-0.4282-4.2794-1.1326-12.72-1.9548-13.754 0 0 5.2009 1.1102 7.8117-2.9736"/><path d="m34.503 53.088s10.802 2.7012 19.287-4.3269"/><path d="m27.72 50.631s2.8688-14.474 16.368-16.393 20.214 8.5143 20.214 8.5143 0.2302 0.2755 0.5269 0.7704c2.0724 3.4564 1.2505 7.9342-1.8035 10.564-10.992 9.4642-26.426 11.712-46.518 11.597 0 0-3.7502 1.1456-4.6096-3.574 0 0-0.7689-20.939 3.8178-35.626 0 0-0.1965-6.0013 0.0307-9.9287 0.0388-0.67 0.3337-1.2971 0.827-1.7521 5.7789-5.3313 8.3742-6.1149 8.3742-6.1149l8.3881-1.4838c1.436 0.9837 4.7256 4.7388 3.5707 11.495"/><path d="m25.589 19.295s1.8163 2.5911 3.6325-0.2835v-3.0113l-0.46-1.6583-0.3606-0.278"/><path d="m29.544 19.295s1.8163 2.5911 3.6325-0.2835v-3.0113l-0.8731-2.1254"/><path d="m36.82 19.011c-1.9616 1.8889-3.3207 0-3.3207 0"/><path d="M20.301,16.4465c0.5038,0.4387,1.1429,1.2206,1.2784,2.4327c0.0322,0.2877,0.131,0.5691,0.3359,0.7736 c0.595,0.5939,1.9586,1.5167,3.3223-0.6415V16l-0.6351-1.2677"/><path d="m40.356 18.289c1.9261 0.5697 2.2618 3.4266-0.7028 4.0993l-6.3283 1.4358"/></g></svg>
