<svg xmlns="http://www.w3.org/2000/svg" id="a" viewBox="0 0 72 72"><g id="b" fill="none" stroke="#000" stroke-linecap="round" stroke-linejoin="round" stroke-miterlimit="10" stroke-width="4"><line x1="59.183" x2="13.183" y1="46.059" y2="46.059"/><line x1="59.183" x2="13.183" y1="54.059" y2="54.059"/><path d="m32.983 37.005c-3.4677 0-6.2789-2.8112-6.2789-6.2789v-10.388c0-3.4677 2.8112-6.2792 6.2789-6.2792 3.4681 0 6.2792 2.8115 6.2792 6.2792v10.388c0 3.4677-2.8112 6.2789-6.2792 6.2789z"/><path d="m52.909 37.005c-3.4677 0-6.2789-2.8112-6.2789-6.2789v-10.388c0-3.4677 2.8112-6.2792 6.2789-6.2792 3.4681 0 6.2792 2.8115 6.2792 6.2792v10.388c0 3.4677-2.8111 6.2789-6.2792 6.2789z"/><polyline points="12.984 18.885 19.337 14.126 19.337 37.072"/></g><g id="c" fill="none" stroke="#D22F27" stroke-linecap="round" stroke-linejoin="round" stroke-miterlimit="10" stroke-width="4.1"><line x1="59.183" x2="13.183" y1="46.059" y2="46.059"/><line x1="59.183" x2="13.183" y1="54.059" y2="54.059"/><path d="m32.983 37.005c-3.4677 0-6.2789-2.8112-6.2789-6.2789v-10.388c0-3.4677 2.8112-6.2792 6.2789-6.2792 3.4681 0 6.2792 2.8115 6.2792 6.2792v10.388c0 3.4677-2.8112 6.2789-6.2792 6.2789z"/><path d="m52.909 37.005c-3.4677 0-6.2789-2.8112-6.2789-6.2789v-10.388c0-3.4677 2.8112-6.2792 6.2789-6.2792 3.4681 0 6.2792 2.8115 6.2792 6.2792v10.388c0 3.4677-2.8111 6.2789-6.2792 6.2789z"/><polyline points="12.984 18.885 19.337 14.126 19.337 37.072"/></g></svg>