<?xml version="1.0" encoding="UTF-8"?>
<svg id="a" viewBox="0 0 72 72" xmlns="http://www.w3.org/2000/svg"><g id="b"><path d="m14.827 18.535c-0.3361-0.2255 80.195-10.75 29.962 39.444l-12.099-9.499s47.749-18.573-17.863-29.945z" fill="#fcea2b"/><path d="m31.298 48.362 3.791 3.1118c11.064-4.9912 39.602-20.575-0.4471-33.845-10.641-0.4668-20.642 0.9064-20.642 0.9064 64.003 11.049 17.298 29.826 17.298 29.826z" fill="#f1b31c"/><polygon points="35 30.403 39.944 40.421 51 42.028 43 49.826 44.888 60.837 35 55.638 25.112 60.837 27 49.826 19 42.028 30.056 40.421" fill="#fcea2b"/></g><g id="c" fill="none" stroke="#000" stroke-linecap="round" stroke-linejoin="round" stroke-miterlimit="10" stroke-width="2"><path d="m48.665 34.784c0.7196-5.4552-6.5085-11.551-33.837-16.249 0 0 72.994-9.9979 34.807 33.068"/><polygon points="35 30.403 39.944 40.421 51 42.028 44 49.826 45.888 60.837 35 55.638 25.112 60.837 27 49.826 19 42.028 30.056 40.421"/></g></svg>
