<?xml version="1.0" encoding="UTF-8"?>
<svg id="a" viewBox="0 0 72 72" xmlns="http://www.w3.org/2000/svg"><g id="b"><polygon points="63.738 40.98 63.738 68.046 11.812 68.046 11.812 40.98 11.812 35.958 63.738 35.958" fill="#9B9B9A"/><rect transform="matrix(-1 -1.2246e-16 1.2246e-16 -1 75.25 39.85)" x="12.625" y="3.8917" width="50" height="32.067" fill="#9B9B9A" stroke-linecap="round" stroke-linejoin="round" stroke-miterlimit="10" stroke-width="2"/><polygon points="62.625 36 12.625 13.779 12.625 3.8917 62.625 26.113" fill="#fff"/></g><g id="c" fill="none" stroke="#000" stroke-linecap="round" stroke-linejoin="round" stroke-miterlimit="10" stroke-width="2"><polyline points="62.625 40.98 62.625 68.046 12.625 68.046 12.625 40.98"/><rect transform="matrix(-1 -1.2246e-16 1.2246e-16 -1 75.25 39.85)" x="12.625" y="3.8917" width="50" height="32.067"/><line x1="17.625" x2="57.625" y1="41.528" y2="41.528"/><line x1="17.625" x2="57.625" y1="47.097" y2="47.097"/><line x1="17.625" x2="57.625" y1="52.666" y2="52.666"/><rect x="30.717" y="56.186" width="13.506" height="8.1037"/><rect transform="matrix(-1 -1.2246e-16 1.2246e-16 -1 75.25 39.85)" x="12.625" y="3.8917" width="50" height="32.067"/></g></svg>
