<svg xmlns="http://www.w3.org/2000/svg" id="a" viewBox="0 0 72 72"><g id="b"><rect width="46.414" height="27.88" x="14.639" y="23.038" fill="#fff"/><rect width="31.11" height="2.938" x="22.285" y="48.714" fill="#5C9E31"/><rect width="31.11" height="2.938" x="19.778" y="22.336" fill="#5C9E31"/><path fill="#5C9E31" d="m59.36 20.73v0.61h-3.06c-0.04-0.51-0.47-0.92-0.9901-0.92h-31.91c-0.52 0-0.95 0.41-0.99 0.92h-8.89v0.66h-0.58v30.62h9.46c0 0.55 0.45 1 1 1h31.91c0.55 0 1-0.45 1-1h6v-31.89h-2.95zm0 25.18c-0.13-0.01-0.28-0.01-0.43-0.01-2.15 0-3.95 1.68-4.05 3.81h-34.55c-0.09-2.13-1.88-3.81-4.05-3.81-0.14 0-0.27 0-0.39 0.01v-17.91c0.12 0.01 0.25 0.01 0.39 0.01 2.16 0 3.94-1.65 4.05-3.76h34.55c0.13 2.11 1.91 3.76 4.05 3.76 0.15 0 0.3 0 0.43-0.01v17.91z"/><ellipse cx="37.34" cy="36.676" fill="#5C9E31" stroke="#5C9E31" stroke-miterlimit="10" stroke-width="2" rx="16.171" ry="10.009"/><path fill="#D0CFCE" stroke-linecap="round" stroke-linejoin="round" stroke-miterlimit="10" stroke-width="2" d="m46.028 22.378v29.286c0 0.1053-0.02 0.2011-0.05 0.2969-0.13 0.383-0.51 0.6608-0.95 0.6608h-15.34c-0.44 0-0.82-0.2778-0.95-0.6608-0.03-0.0958-0.05-0.1915-0.05-0.2969v-29.286c0-0.1053 0.02-0.2011 0.05-0.2969 0.13-0.3831 0.51-0.6608 0.95-0.6608h15.34c0.44 0 0.82 0.2777 0.95 0.6608 0.0301 0.0957 0.05 0.1915 0.05 0.2969z"/><path fill="#5C9E31" stroke-linecap="round" stroke-miterlimit="10" stroke-width="2" d="m48.753 29.585c2.939 1.8123 4.7578 4.3199 4.7578 7.0905 0 2.7944-1.8502 5.3213-4.8338 7.137"/><path fill="#5C9E31" stroke-linecap="round" stroke-miterlimit="10" stroke-width="2" d="m24.74 42.95c-2.2338-1.7164-3.5709-3.8986-3.5709-6.2741 0-2.5704 1.5655-4.9145 4.1386-6.687"/></g><g id="c" fill="none" stroke="#000" stroke-linecap="round" stroke-miterlimit="10" stroke-width="2"><path stroke-linejoin="round" d="m50.028 24.25h4.8525c0.13 2.11 1.91 3.76 4.05 3.76 0.15 0 0.3 0 0.43-0.01v17.91c-0.13-0.01-0.28-0.01-0.43-0.01-2.15 0-3.95 1.68-4.05 3.81h-4.8525m-24.92 0h-4.7776c-0.09-2.13-1.88-3.81-4.05-3.81-0.14 0-0.27 0-0.39 0.01v-17.91c0.12 0.01 0.25 0.01 0.39 0.01 2.16 0 3.94-1.65 4.05-3.76h4.385"/><path stroke-linejoin="round" d="m46.028 22.378v29.286c0 0.1053-0.02 0.2011-0.05 0.2969-0.13 0.383-0.51 0.6608-0.95 0.6608h-15.34c-0.44 0-0.82-0.2778-0.95-0.6608-0.03-0.0958-0.05-0.1915-0.05-0.2969v-29.286c0-0.1053 0.02-0.2011 0.05-0.2969 0.13-0.3831 0.51-0.6608 0.95-0.6608h15.34c0.44 0 0.82 0.2777 0.95 0.6608 0.0301 0.0957 0.05 0.1915 0.05 0.2969z"/><path stroke-linejoin="round" d="m25.108 52.621h-11.168c-0.5523 0-1-0.4477-1-1v-29.201c0-0.5523 0.4477-1 1-1h10.838"/><path stroke-linejoin="round" d="m49.772 21.42h11.538c0.5523 0 1 0.4477 1 1v29.201c0 0.5523-0.4477 1-1 1h-11.538"/><path d="m48.753 29.585c2.939 1.8123 4.7578 4.3199 4.7578 7.0905 0 2.7944-1.8502 5.3213-4.8338 7.137"/><path d="m24.74 42.95c-2.2338-1.7164-3.5709-3.8986-3.5709-6.2741 0-2.5704 1.5655-4.9145 4.1386-6.687"/><path stroke-linejoin="round" d="m39.663 34.221c-0.2188-0.8514-1.1649-1.4919-2.2989-1.4919h-1e-4c-1.296 0-2.3466 0.8366-2.3466 1.8685s1.0506 1.8685 2.3466 1.8685l-0.0476 0.0069c1.296 0 2.3466 0.8366 2.3466 1.8685s-1.0506 1.8685-2.3466 1.8685c-1.134 0-2.0802-0.6404-2.299-1.4919"/><line x1="37.34" x2="37.34" y1="32.729" y2="30.948" stroke-linejoin="round"/><line x1="37.34" x2="37.34" y1="41.991" y2="40.21" stroke-linejoin="round"/></g></svg>