<svg xmlns="http://www.w3.org/2000/svg" id="a" viewBox="0 0 72 72"><g id="b"><polygon fill="#FCEA2B" points="41.596 36.354 33.056 36.317 31.063 36.317 31.063 39.275 31.072 42.368 38.777 42.402 41.596 42.402"/><path fill="#6A462F" d="m31.531 42.145-0.364-3.1784-13.2-0.4533c-1.9096 0-6.4631-0.1957-6.8589-1.9877l0.4298 5.8765h0.02c0.1183-0.4203 0.4878 0.5745 0.9462 0.5745s0.8283-0.9948 0.9466-0.5745h16.768c-0.0228-0.0838 1.3122-0.166 1.3122-0.2571z"/><path fill="#6A462F" d="m56.874 38.664h-14.922v3.4808c0 0.0911 0.512 0.1733 0.4892 0.2571h16.05c0.1244-0.4106 0.4909 0.7837 0.9424 0.7837s0.8181-1.1943 0.9425-0.7837h0.0119l0.4397-6.2702c-0.2349 1.9835-3.213 1.9629-3.953 2.5323z"/><polygon fill="#6A462F" points="60.874 35.279 60.874 35.457 60.886 35.279"/><path fill="#A57939" d="m12.008 36.814s-0.2216 1.9088 3.7599 1.8508c2.983-0.0435 14.852 0 14.852 0l1.0237-1.8983 9.3992-0.0793 1.3976 1.6962s11.97 0.5109 14.433 0.2814c3.2389-0.3018 3-3.8906 3-3.9999v-14.744h-47.865v16.893z"/><path fill="#A57939" d="m42.492 41.653h-29.959l6e-4 0.0206c0.5383 0.0165-0.525 1.3157-0.525 1.858l0.4953 15.318h46.929v-16.163c0-0.4933-0.637-0.8842-0.1675-0.9664l0.0017-0.068h-16.775z"/></g><g id="c" fill="none" stroke="#000" stroke-linecap="round" stroke-linejoin="round" stroke-miterlimit="10" stroke-width="2"><polyline points="31.456 15.891 31.456 12.052 41.781 12.052 41.781 15.891"/><polyline points="59.433 42.688 59.433 58.85 12.504 58.85 12.504 42.668"/><path d="m41.951 38.664h14.922c1.6569 0 3-1.3431 3-3v-15.743h-47.865v15.743c0 1.6569 1.3431 3 3 3h15.612"/><rect width="10.325" height="5.828" x="31.167" y="36.317"/></g></svg>