<svg xmlns="http://www.w3.org/2000/svg" id="a" viewBox="0 0 72 72"><g id="b"><rect width="48.742" height="32.634" x="11.354" y="20.134" fill="#fff"/><rect width="40.032" height="24.2" x="15.33" y="24.4" fill="#EA5A47"/><rect width="4.63" height=".19" x="55.82" y="20.62" fill="#F4AA41"/><circle cx="46.302" cy="34.578" r="5.933" fill="#fff" stroke-miterlimit="10" stroke-width="2"/><path fill="#D0CFCE" stroke-linecap="round" stroke-linejoin="round" stroke-miterlimit="10" stroke-width="2" d="m37.494 21.952v29.097c0 0.1047-0.02 0.1998-0.05 0.295-0.13 0.3806-0.51 0.6565-0.95 0.6565h-15.34c-0.44 0-0.82-0.276-0.95-0.6565-0.03-0.0952-0.05-0.1903-0.05-0.295v-29.097c0-0.1047 0.02-0.1998 0.05-0.295 0.13-0.3806 0.51-0.6565 0.95-0.6565h15.34c0.44 0 0.82 0.2759 0.95 0.6565 0.03 0.0952 0.05 0.1904 0.05 0.295z"/></g><g id="c" fill="none" stroke="#000" stroke-miterlimit="10" stroke-width="2"><circle cx="46.302" cy="34.578" r="5.933"/><path stroke-linecap="round" stroke-linejoin="round" d="m37.494 21.952v29.097c0 0.1047-0.02 0.1998-0.05 0.295-0.13 0.3806-0.51 0.6565-0.95 0.6565h-15.34c-0.44 0-0.82-0.276-0.95-0.6565-0.03-0.0952-0.05-0.1903-0.05-0.295v-29.097c0-0.1047 0.02-0.1998 0.05-0.295 0.13-0.3806 0.51-0.6565 0.95-0.6565h15.34c0.44 0 0.82 0.2759 0.95 0.6565 0.03 0.0952 0.05 0.1904 0.05 0.295z"/><polyline stroke-linecap="round" stroke-linejoin="round" points="29.037 41 29.037 37.13 31.617 31.97 29.037 37.13 26.457 31.97"/><line x1="26.588" x2="31.451" y1="36.468" y2="36.468" stroke-linecap="round" stroke-linejoin="round"/><path stroke-linecap="round" stroke-linejoin="round" d="m15.706 52.079h-3.6296c-0.5523 0-1-0.4477-1-1v-29.201c0-0.5523 0.4477-1 1-1h3.6296"/><path stroke-linecap="round" stroke-linejoin="round" d="M42,21l17.4462-0.1218c0.5523,0,1,0.4477,1,1V51.079c0,0.5523-0.4477,1-1,1L42,52"/><polyline stroke-linecap="round" stroke-linejoin="round" points="42 25.156 55.817 25.156 55.817 47.83 42 47.83"/><line x1="15.706" x2="15.706" y1="48" y2="25.156" stroke-linecap="round" stroke-linejoin="round"/></g></svg>