<?xml version="1.0" encoding="UTF-8"?>
<svg id="a" viewBox="0 0 72 72" xmlns="http://www.w3.org/2000/svg"><g id="b"><rect x="11" y="10.958" width="50" height="50" fill="#3F3F3F" stroke-linecap="round" stroke-linejoin="round" stroke-miterlimit="10" stroke-width="2"/><path d="m52.55 47.117c-3.5867 5.309-9.6606 8.7994-16.55 8.7994-11.023 0-19.958-8.9356-19.958-19.958s8.9356-19.958 19.958-19.958c6.8569 0 12.906 3.4578 16.499 8.7249" fill="#D0CFCE" stroke-linecap="round" stroke-linejoin="round" stroke-miterlimit="10" stroke-width="2"/><circle cx="35.927" cy="35.887" r="19.958" fill="#D0CFCE"/><path d="m17.513 26.386c3.078-5.9375 8.9544-10.29 16.098-11.121 11.429-1.3305 21.772 6.8558 23.103 18.285s-6.8558 21.772-18.285 23.103c-7.1096 0.8277-13.799-2.0274-18.16-7.0549" fill="#D0CFCE"/><path d="m52.55 47.046c-3.5867 5.309-9.6606 8.7994-16.55 8.7994-11.023 0-19.958-8.9356-19.958-19.958s8.9356-19.958 19.958-19.958c6.8569 0 12.906 3.4578 16.499 8.7249" fill="#D0CFCE" stroke-linecap="round" stroke-linejoin="round" stroke-miterlimit="10" stroke-width="2"/><circle cx="36" cy="35.958" r="5" fill="#3F3F3F" stroke-linecap="round" stroke-linejoin="round" stroke-miterlimit="10" stroke-width="2"/><polyline points="44 36.5 44 41.975 61 44.433 61 36.5 61 36.433 61 28.5 44 30.958 44 36.433" fill="#D0CFCE" stroke-linecap="round" stroke-linejoin="round" stroke-miterlimit="10" stroke-width="2"/></g><g id="c" fill="none" stroke="#000" stroke-linecap="round" stroke-linejoin="round" stroke-miterlimit="10" stroke-width="2"><rect x="11" y="10.958" width="50" height="50"/><path d="m52.55 47.117c-3.5867 5.309-9.6606 8.7994-16.55 8.7994-11.023 0-19.958-8.9356-19.958-19.958s8.9356-19.958 19.958-19.958c6.8569 0 12.906 3.4578 16.499 8.7249"/><path d="m52.55 47.046c-3.5867 5.309-9.6606 8.7994-16.55 8.7994-11.023 0-19.958-8.9356-19.958-19.958s8.9356-19.958 19.958-19.958c6.8569 0 12.906 3.4578 16.499 8.7249"/><circle cx="36" cy="35.958" r="5"/><polyline points="44 36.5 44 41.975 61 44.433 61 36.5 61 36.433 61 28.5 44 30.958 44 36.433"/></g></svg>
