<?xml version="1.0" encoding="UTF-8"?>
<svg id="a" viewBox="0 0 72 72" xmlns="http://www.w3.org/2000/svg"><g id="b"><rect x="14.689" y="14.805" width="23.904" height="14.051" fill="#ea5a47"/><path d="M27.9556,13.4112V30.4234a.5924.5924,0,0,1-.5976.4064H18.2148a.72.72,0,0,1-.5976-.4064V13.237a.5925.5925,0,0,1,.5976-.4064H27.358a.72.72,0,0,1,.5976.4064Z" fill="#d0cfce"/><ellipse cx="44.881" cy="49.88" rx="9.681" ry="5.8062" fill="#5c9e31" stroke="#5c9e31" stroke-miterlimit="10" stroke-width="1.5"/><path d="M58.0878,40.59v.3483H56.2353a.5833.5833,0,0,0-.5976-.5225H36.5745a.5833.5833,0,0,0-.5976.5225H30.6583v.4065H30.3V59.1113h5.6772a.6337.6337,0,0,0,.5976.5807H55.6377a.59.59,0,0,0,.5976-.5807h3.5856V40.59Zm0,14.6316h-.239a2.4018,2.4018,0,0,0-2.45,2.2063H34.7219a2.3865,2.3865,0,0,0-2.39-2.2063h-.2391V44.8281h.2391a2.3457,2.3457,0,0,0,2.39-2.2064h20.617a2.4019,2.4019,0,0,0,2.45,2.2064h.2391V55.2212Z" fill="#5c9e31"/><rect x="35.917" y="56.847" width="18.585" height="1.6838" fill="#5c9e31"/><rect x="34.423" y="41.519" width="18.585" height="1.6838" fill="#5c9e31"/><path d="M50.08,41.5766V58.763a.5925.5925,0,0,1-.5976.4064H40.3393a.72.72,0,0,1-.5976-.4064V41.4024a.5925.5925,0,0,1,.5976-.4064h9.1432a.72.72,0,0,1,.5976.4064Z" fill="#d0cfce"/><ellipse cx="33.214" cy="20.727" rx="3.5258" ry="3.4257" fill="#fff"/></g><g id="c" fill="none" stroke="#000" stroke-width="1.5"><polyline points="48.485 26.717 46.125 22.734 50.225 20.441" stroke-linecap="round" stroke-linejoin="round"/><path d="m47.072 22.888a14.706 14.706 0 0 1 10.822 11.384" stroke-linecap="round" stroke-linejoin="round"/><polyline points="23.094 45.255 25.453 49.238 21.354 51.53" stroke-linecap="round" stroke-linejoin="round"/><path d="m24.507 49.084a14.706 14.706 0 0 1-10.822-11.384" stroke-linecap="round" stroke-linejoin="round"/><ellipse cx="33.214" cy="20.727" rx="3.5258" ry="3.4257" stroke-miterlimit="10"/><path d="M27.9556,13.4112V30.4234a.5924.5924,0,0,1-.5976.4064H18.2148a.72.72,0,0,1-.5976-.4064V13.237a.5925.5925,0,0,1,.5976-.4064H27.358a.72.72,0,0,1,.5976.4064Z" stroke-linecap="round" stroke-linejoin="round"/><polyline points="22.876 24.443 22.876 22.179 24.43 19.217 22.876 22.179 21.382 19.217" stroke-linecap="round" stroke-linejoin="round"/><line x1="21.442" x2="24.37" y1="21.83" y2="21.83" stroke-linecap="round" stroke-linejoin="round"/><path d="M14.9281,30.8879H12.7767a.5568.5568,0,0,1-.5976-.5806V13.3531a.5568.5568,0,0,1,.5976-.5806h2.1514" stroke-linecap="round" stroke-linejoin="round"/><path d="M30.6448,12.8306l10.3981-.0581a.5567.5567,0,0,1,.5976.5806V30.3073a.5567.5567,0,0,1-.5976.5806L30.6448,30.83" stroke-linecap="round" stroke-linejoin="round"/><polyline points="30.645 15.269 38.892 15.269 38.892 28.391 30.645 28.391" stroke-linecap="round" stroke-linejoin="round"/><line x1="14.928" x2="14.928" y1="28.507" y2="15.269" stroke-linecap="round" stroke-linejoin="round"/><path d="M52.4705,42.68h2.9282a2.4018,2.4018,0,0,0,2.45,2.2063h.239V55.2793h-.239a2.4018,2.4018,0,0,0-2.45,2.2063H52.4705m-14.88-.0581H34.7219a2.3865,2.3865,0,0,0-2.39-2.2063h-.2391V44.8281h.2391a2.3457,2.3457,0,0,0,2.39-2.2064h2.6294" stroke-linecap="round" stroke-linejoin="round"/><path d="M50.08,41.5766V58.763a.5925.5925,0,0,1-.5976.4064H40.3393a.72.72,0,0,1-.5976-.4064V41.4024a.5925.5925,0,0,1,.5976-.4064h9.1432a.72.72,0,0,1,.5976.4064Z" stroke-linecap="round" stroke-linejoin="round"/><path d="M37.59,59.1113H30.8973a.5567.5567,0,0,1-.5976-.5806V41.5766a.5567.5567,0,0,1,.5976-.5806h6.454" stroke-linecap="round" stroke-linejoin="round"/><path d="M52.3509,40.996h6.8724a.5567.5567,0,0,1,.5976.5806V58.5307a.5567.5567,0,0,1-.5976.5806H52.3509" stroke-linecap="round" stroke-linejoin="round"/><path d="m51.753 45.757c1.7331 1.0451 2.8685 2.4966 2.8685 4.1224s-1.1354 3.0773-2.8685 4.1224" stroke-linecap="round" stroke-miterlimit="10"/><path d="m37.351 53.479a4.7206 4.7206 0 0 1-2.1513-3.6579 4.9263 4.9263 0 0 1 2.45-3.89" stroke-linecap="round" stroke-miterlimit="10"/><path d="m46.315 48.428a1.3407 1.3407 0 0 0-1.3744-0.8709h0a1.2308 1.2308 0 0 0-1.3745 1.103 1.2674 1.2674 0 0 0 1.3745 1.1032h0a1.2307 1.2307 0 0 1 1.3744 1.1031 1.3113 1.3113 0 0 1-1.3744 1.1037h0a1.3406 1.3406 0 0 1-1.3745-0.8709" stroke-linecap="round" stroke-linejoin="round"/><line x1="44.881" x2="44.881" y1="47.557" y2="46.512" stroke-linecap="round" stroke-linejoin="round"/><line x1="44.881" x2="44.881" y1="52.957" y2="51.912" stroke-linecap="round" stroke-linejoin="round"/></g></svg>
