<svg xmlns="http://www.w3.org/2000/svg" id="a" viewBox="0 0 72 72"><g id="b"><rect width="48.553" height="32.877" x="11.558" y="19.946" fill="#fff"/><rect width="22.562" height="33.125" x="34.375" y="19.884" fill="#B1CC33"/><path fill="#D0CFCE" stroke-linecap="round" stroke-linejoin="round" stroke-miterlimit="10" stroke-width="2" d="m36.569 21.804v29.286c0 0.1053-0.02 0.2011-0.05 0.2969-0.13 0.383-0.51 0.6608-0.95 0.6608h-15.34c-0.44 0-0.82-0.2778-0.95-0.6608-0.03-0.0958-0.05-0.1915-0.05-0.2969v-29.286c0-0.1053 0.02-0.2011 0.05-0.2969 0.13-0.3831 0.51-0.6608 0.95-0.6608h15.34c0.44 0 0.82 0.2777 0.95 0.6608 0.03 0.0958 0.05 0.1916 0.05 0.2969z"/></g><g id="c" fill="none" stroke="#000" stroke-linecap="round" stroke-linejoin="round" stroke-miterlimit="10" stroke-width="2"><path d="m41.709 20.846h17.802c0.5523 0 1 0.4477 1 1v29.201c0 0.5523-0.4477 1-1 1h-17.802"/><path d="m36.569 21.804v29.286c0 0.1053-0.02 0.2011-0.05 0.2969-0.13 0.383-0.51 0.6608-0.95 0.6608h-15.34c-0.44 0-0.82-0.2778-0.95-0.6608-0.03-0.0958-0.05-0.1915-0.05-0.2969v-29.286c0-0.1053 0.02-0.2011 0.05-0.2969 0.13-0.3831 0.51-0.6608 0.95-0.6608h15.34c0.44 0 0.82 0.2777 0.95 0.6608 0.03 0.0958 0.05 0.1916 0.05 0.2969z"/><path d="m13.75 52.047h-1.609c-0.5523 0-1-0.4477-1-1v-29.201c0-0.5523 0.4477-1 1-1h1.609"/><path d="m30.518 39.773c-0.5113 0.4535-1.1843 0.7289-1.9215 0.7289-1.3834 0-2.8967-1.3396-2.8967-2.8967v-2.3173 2.3173-2.3173c0-1.5998 1.2969-2.8967 2.8967-2.8967 0.7373 0 1.4102 0.2754 1.9215 0.729"/><line x1="23.973" x2="28.34" y1="36.432" y2="36.432"/><path d="m54.099 32c-1.0579 0-1.9155-0.8576-1.9155-1.9155v-3.1689c0-1.0579 0.8576-1.9156 1.9155-1.9156 1.058 0 1.9156 0.8577 1.9156 1.9156v3.1689c0 1.0579-0.8576 1.9155-1.9156 1.9155z"/><path d="m47.431 32c-1.0579 0-1.9155-0.8576-1.9155-1.9155v-3.1689c0-1.0579 0.8576-1.9156 1.9155-1.9156 1.058 0 1.9156 0.8577 1.9156 1.9156v3.1689c0 1.0579-0.8576 1.9155-1.9156 1.9155z"/><polyline points="40.74 26.452 42.678 25 42.678 32"/></g></svg>