<?xml version="1.0" encoding="UTF-8"?>
<svg id="a" viewBox="0 0 72 72" xmlns="http://www.w3.org/2000/svg"><g id="b"><rect x="11.558" y="19.946" width="48.553" height="32.877" fill="#fff"/><rect x="34.375" y="19.884" width="22.562" height="33.125" fill="#B399C8"/><path d="m36.569 21.804v29.286c0 0.1053-0.02 0.2011-0.05 0.2969-0.13 0.383-0.51 0.6608-0.95 0.6608h-15.34c-0.44 0-0.82-0.2778-0.95-0.6608-0.03-0.0958-0.05-0.1915-0.05-0.2969v-29.286c0-0.1053 0.02-0.2011 0.05-0.2969 0.13-0.3831 0.51-0.6608 0.95-0.6608h15.34c0.44 0 0.82 0.2777 0.95 0.6608 0.03 0.0958 0.05 0.1916 0.05 0.2969z" fill="#D0CFCE" stroke-linecap="round" stroke-linejoin="round" stroke-miterlimit="10" stroke-width="2"/></g><g id="c" fill="none" stroke="#000" stroke-linecap="round" stroke-linejoin="round" stroke-miterlimit="10" stroke-width="2"><path d="m41.709 20.846h17.802c0.5523 0 1 0.4477 1 1v29.201c0 0.5523-0.4477 1-1 1h-17.802"/><path d="m36.569 21.804v29.286c0 0.1053-0.02 0.2011-0.05 0.2969-0.13 0.383-0.51 0.6608-0.95 0.6608h-15.34c-0.44 0-0.82-0.2778-0.95-0.6608-0.03-0.0958-0.05-0.1915-0.05-0.2969v-29.286c0-0.1053 0.02-0.2011 0.05-0.2969 0.13-0.3831 0.51-0.6608 0.95-0.6608h15.34c0.44 0 0.82 0.2777 0.95 0.6608 0.03 0.0958 0.05 0.1916 0.05 0.2969z"/><path d="m13.75 52.047h-1.609c-0.5523 0-1-0.4477-1-1v-29.201c0-0.5523 0.4477-1 1-1h1.609"/><line x1="25.413" x2="27.191" y1="36.437" y2="36.437"/><path d="m30.046 39.95h-3.7444v-5.1343c0-1.034 0.8382-1.8722 1.8722-1.8722 0.9693 0 1.7666 0.7367 1.8625 1.6807"/><path d="m53.236 32.944c-1.0579 0-1.9155-0.8576-1.9155-1.9155v-3.1689c0-1.0579 0.8576-1.9156 1.9155-1.9156 1.058 0 1.9156 0.8577 1.9156 1.9156v3.1689c0 1.0579-0.8576 1.9155-1.9156 1.9155z"/><path d="m43.954 27.661c0.2005-0.9798 1.0674-1.7169 2.1065-1.7169 0.5937 0 1.1313 0.2407 1.5204 0.6298 0.6053 0.6053 0.5494 1.6111-0.0185 2.2515l-3.6521 4.1187h4.3004"/></g></svg>
