<svg xmlns="http://www.w3.org/2000/svg" id="a" viewBox="0 0 72 72"><g id="b" stroke-linecap="round" stroke-linejoin="round" stroke-miterlimit="10" stroke-width="2"><path fill="#6A462F" stroke="#6A462F" d="m56.72 40.04c0 10.93-8.46 19.88-19.19 20.66 15.45-9.02 17.31-24.74 4.62-39.52-0.0501-0.06-0.1001-0.12-0.1501-0.18-3.27-3.78 1.44-9.8 1.44-9.8h1.99c1.78 0 3.24 1.46 3.24 3.24v0.02c0 0.7401-0.26 1.4301-0.69 1.98-0.33 0.44-0.78 0.78-1.29 1h-0.01c-1.17 1.16-2.2 3.13 0.8 5.35 0.03 0.02 0.08 0.06 0.11 0.08 0.11 0.07 0.24 0.15 0.35 0.24 1.47 1.03 2.8 2.26 3.95 3.64 1.05 1.25 1.97 2.63 2.69 4.13 0.04 0.06 0.07 0.13 0.11 0.21 0.15 0.33 0.29 0.65 0.42 0.98 0.1 0.27 0.21 0.54 0.3 0.8 0.11 0.28 0.19 0.55 0.27 0.81 0 0.01 0.01 0.02 0.01 0.03 0.07 0.25 0.15 0.51 0.22 0.76 0.01 0.04 0.03 0.09 0.04 0.13 0.03 0.12 0.06 0.22 0.08 0.34 0.05 0.15 0.09 0.31 0.12 0.47s0.0699 0.3 0.1 0.46c0.03 0.12 0.06 0.26 0.09 0.39 0 0.0099 0 0.04 0.0099 0.05 0.05 0.29 0.1 0.56 0.14 0.82 0.05 0.36 0.09 0.69 0.13 0.99 0.02 0.21 0.04 0.41 0.05 0.58 0.0601 0.84 0.0501 1.34 0.0501 1.34z"/><path fill="#A57939" stroke="#A57939" d="m37.53 60.7c-0.17 0.02-0.34 0.03-0.5 0.03-0.34 0.02-0.69 0.03-1.03 0.03-11.44 0-20.72-9.28-20.72-20.72v-0.13c0-0.28 0.0099-0.55 0.03-0.83 0-0.12 0.01-0.24 0.02-0.3799 0.01-0.17 0.03-0.3701 0.05-0.58 0.03-0.26 0.07-0.55 0.12-0.86 0.02-0.15 0.05-0.31 0.07-0.48 0.17-0.95 0.42-2.08 0.8-3.29 0.06-0.19 0.13-0.4 0.21-0.61 0.21-0.58 0.45-1.18 0.73-1.79 0.03-0.08 0.07-0.15 0.11-0.21 0.67-1.43 2.69-4.13 2.69-4.13 1.15-1.38 2.48-2.61 3.95-3.64 0.11-0.09 0.24-0.17 0.35-0.24 0.03-0.02 0.08-0.06 0.11-0.08 2.95-2.19 2-4.14 0.85-5.3-0.59-0.22-1.1-0.61-1.46-1.11-0.02-0.01-0.03-0.02-0.03-0.02-0.39-0.54-0.62-1.19-0.62-1.9v-0.02c0-1.78 1.45-3.24 3.24-3.24h16.94s-4.71 6.02-1.44 9.8l0.15 0.18c12.69 14.78 10.83 30.5-4.62 39.52z"/></g><g id="c"><path d="m16.486 34.819c0.0913-0.4585 0.1988-0.9108 0.3247-1.3545-0.1282 0.4725-0.2344 0.9248-0.3247 1.3545z"/><path d="m17.085 32.53c-0.1051 0.3064-0.1854 0.6218-0.274 0.9341 0.0828-0.3053 0.1726-0.6163 0.274-0.9341z"/><path d="m16.315 35.7c0.0483-0.2778 0.107-0.5753 0.1713-0.8814-0.0584 0.2931-0.1277 0.5812-0.1713 0.8814z"/><path d="m16.065 37.91c-0.02 0.27-0.03 0.53-0.03 0.8 0-0.15 0-0.42 0.03-0.8z"/><line x1="42.358" x2="29.525" y1="19.833" y2="19.833" fill="none" stroke="#000" stroke-linecap="round" stroke-miterlimit="10" stroke-width="2"/><path fill="none" stroke="#000" stroke-linecap="round" stroke-linejoin="round" stroke-miterlimit="10" stroke-width="2" d="m56.72 40.042c0 11.437-9.2781 20.715-20.715 20.715-11.447 0-20.725-9.2781-20.725-20.715v-0.1349c0-0.2802 0.0104-0.55 0.0311-0.8302 0-0.1141 0.0104-0.2387 0.0208-0.3736 0.0104-0.1764 0.0312-0.3736 0.0519-0.5812 0.0312-0.2595 0.0623-0.5501 0.1141-0.8614 0.0208-0.1556 0.0519-0.3113 0.0727-0.4774 0.1661-0.9548 0.4152-2.086 0.7991-3.2899 0.0623-0.1972 0.1349-0.4047 0.2076-0.6123 0.2179-0.5812 0.4566-1.1831 0.7368-1.7955 0.0312-0.0726 0.0623-0.1452 0.1038-0.2075 0.6745-1.4322 2.6879-4.1306 2.6879-4.1306 1.152-1.3803 2.4804-2.6049 3.9541-3.6427 0.1142-0.083 0.2387-0.166 0.3529-0.2387 0.0312-0.0208 0.0727-0.0519 0.1038-0.0727 2.9578-2.1898 2.003-4.1409 0.851-5.3032-0.5916-0.218-1.1001-0.6123-1.4529-1.1105-0.0208-0.0104-0.0312-0.0208-0.0312-0.0208-0.3944-0.5396-0.6227-1.1934-0.6227-1.8992v-0.0208c0-1.7747 1.4529-3.238 3.238-3.238h18.93c1.7851 0 3.238 1.4633 3.238 3.238v0.0208c0 0.7368-0.2595 1.4322-0.6849 1.9822-0.3321 0.4359-0.7784 0.7784-1.2869 0.9963h-0.0104c-1.1727 1.1623-2.2002 3.1342 0.7991 5.3551 0.0312 0.0208 0.0727 0.0519 0.1038 0.0727 0.1141 0.0727 0.2387 0.1557 0.3528 0.2387 1.4737 1.0378 2.8021 2.2625 3.9541 3.6427 1.0482 1.2558 1.9615 2.6361 2.688 4.1306 0.0415 0.0623 0.0727 0.1349 0.1038 0.2075 0.1557 0.3321 0.2906 0.6538 0.4255 0.9859 0.1038 0.2698 0.2076 0.5397 0.3009 0.7991 0.1038 0.2802 0.1868 0.55 0.2698 0.8095 0 0.0104 0.0104 0.0208 0.0104 0.0312 0.0727 0.2491 0.1453 0.5085 0.2179 0.7576 0.0104 0.0415 0.0312 0.0934 0.0416 0.1349 0.0311 0.1141 0.0623 0.218 0.083 0.3321 0.0415 0.1557 0.083 0.3113 0.1141 0.4774 0.0311 0.1556 0.0727 0.3009 0.1038 0.4566 0.0312 0.1245 0.0623 0.2595 0.083 0.3944 0 0.0103 0 0.0311 0.0104 0.0415 0.0519 0.2906 0.1038 0.5604 0.1452 0.8199 0.0519 0.3633 0.0934 0.6954 0.1246 0.9963 0.0207 0.2076 0.0415 0.4048 0.0519 0.5812 0.0623 0.8408 0.0519 1.3389 0.0519 1.3389z"/><path fill="none" stroke="#000" stroke-linecap="round" stroke-linejoin="round" stroke-miterlimit="10" stroke-width="2" d="m39.19 36.357c-0.2715-1.0566-1.4456-1.8514-2.8529-1.8514h-1e-4c-1.6083 0-2.9121 1.0381-2.9121 2.3188s1.3038 2.3188 2.9121 2.3188l-0.0591 0.0086c1.6083 0 2.9121 1.0381 2.9121 2.3188s-1.3038 2.3188-2.9121 2.3188v0c-1.4073 0-2.5815-0.7947-2.853-1.8514"/><line x1="36.308" x2="36.308" y1="34.506" y2="32.295" fill="none" stroke="#000" stroke-linecap="round" stroke-linejoin="round" stroke-miterlimit="10" stroke-width="2"/><line x1="36.308" x2="36.308" y1="46" y2="43.789" fill="none" stroke="#000" stroke-linecap="round" stroke-linejoin="round" stroke-miterlimit="10" stroke-width="2"/><path fill="none" stroke="#000" stroke-linecap="round" stroke-linejoin="round" stroke-miterlimit="10" stroke-width="2" d="m22 20s-6 0-6 6"/><path fill="none" stroke="#000" stroke-linecap="round" stroke-linejoin="round" stroke-miterlimit="10" stroke-width="2" d="m17 18s-2 0-2-2"/></g></svg>