<?xml version="1.0" encoding="UTF-8"?>
<svg id="a" version="1.1" viewBox="0 0 72 72" xmlns="http://www.w3.org/2000/svg"><g id="b"><path d="m49.245 52.593h-19.332c-0.5523 0-1 0.4477-1 1v3.9069c0 1.3807 1.1193 2.5 2.5 2.5h17.832c0.5523 0 1-0.4477 1-1v-5.4069c0-0.5523-0.4477-1-1-1z" fill="#D0CFCE"/><path d="m50.578 46.668h-21.998c-0.5523 0-1 0.4477-1 1v3.4069c0 1.6569 1.3431 3 3 3h17.998c1.6568 0 3-1.3431 3-3v-3.4069c0-0.5523-0.4478-1-1-1z" fill="#9B9B9A"/><path d="m33.917 43.184-9.2373-29.426c-0.1654-0.5269-0.7266-0.82-1.2535-0.6546l-5.1587 1.6194c-0.527 0.1654-0.82 0.7266-0.6546 1.2536l9.2372 29.426c0.1654 0.527 0.7267 0.82 1.2536 0.6546l5.1587-1.6193c0.5269-0.1655 0.82-0.7267 0.6546-1.2536z" fill="#61B2E4"/><path d="m52.91 43.22v3.93c0 0.55-0.45 1-1 1h-24.66c-0.56 0-1-0.45-1-1v-3.66l-8.64-27.51c-0.16-0.53 0.13-1.09 0.66-1.26l5.16-1.62c0.52-0.16 1.08 0.13 1.25 0.66l8.94 28.46h18.29c0.55 0 1 0.45 1 1z" fill="#61B2E4"/><path d="m29.497 24.383-3.3355-10.626c-0.1654-0.5269-0.7266-0.82-1.2536-0.6546l-1.0688 0.3355c-0.527 0.1654-0.82 0.7267-0.6546 1.2536l3.3355 10.626c0.1654 0.5269 0.7266 0.82 1.2536 0.6546l1.0688-0.3355c0.527-0.1654 0.82-0.7267 0.6546-1.2536z" fill="#92D3F5"/><path d="m46.029 33.335h-17.072c-0.5284 0-0.9568 0.4283-0.9568 0.9567v2.5306c0 0.5284 0.4284 0.9568 0.9568 0.9568h17.072c0.5284 0 0.9568-0.4284 0.9568-0.9568v-2.5306c0-0.5284-0.4284-0.9567-0.9568-0.9567z" fill="#9B9B9A"/></g><g id="c" fill="none" stroke="#000" stroke-linecap="round" stroke-linejoin="round" stroke-miterlimit="10"><path d="m50.24 53.57v0.02 5.41c0 0.55-0.44 1-1 1h-17.83c-1.3799 0-2.5-1.12-2.5-2.5v-3.91-0.02c0.48 0.31 1.05 0.5 1.67 0.5h18c0.61 0 1.18-0.19 1.66-0.5z" stroke-width="2"/><path d="m51.58 48.15v2.92c0 1.05-0.54 1.96-1.34 2.5-0.48 0.31-1.05 0.5-1.66 0.5h-18c-0.62 0-1.19-0.19-1.67-0.5-0.8-0.54-1.33-1.46-1.33-2.5v-2.92h24z" stroke-width="2"/><path d="m28.84 25.64-0.39 0.12-0.68 0.21c-0.52 0.17-1.09-0.13-1.25-0.65l-3.34-10.63c-0.16-0.52 0.13-1.09 0.66-1.25l0.49-0.16h0.01l0.5699-0.18c0.52-0.16 1.09 0.1299 1.25 0.66l3.34 10.62c0.1601 0.53-0.1299 1.09-0.6599 1.26z" stroke-width="2"/><path d="m52.91 43.22v3.93c0 0.55-0.45 1-1 1h-24.66c-0.56 0-1-0.45-1-1v-3.66l-8.64-27.51c-0.16-0.53 0.13-1.09 0.66-1.2599l5.16-1.62c0.15-0.05 0.3-0.05 0.45-0.03 0.06 0.01 0.11 0.03 0.16 0.05 0.11 0.03 0.2 0.09 0.29 0.16l-0.49 0.16c-0.53 0.16-0.82 0.73-0.66 1.25l3.34 10.63c0.16 0.52 0.73 0.82 1.25 0.65l0.68-0.21 2.38 7.58h-1.87c-0.53 0-0.96 0.42-0.96 0.95v2.53c0 0.53 0.43 0.96 0.96 0.96h3.27l1.39 4.44h18.29c0.55-1e-4 1 0.4498 1 0.9999z" stroke-width="2"/><path d="m46.99 34.29v2.53c0 0.53-0.43 0.96-0.96 0.96h-17.07c-0.53 0-0.96-0.43-0.96-0.96v-2.53c0-0.53 0.43-0.95 0.96-0.95h17.07c0.53 1e-4 0.96 0.4201 0.96 0.95z" stroke-width="1.9136"/></g></svg>
