<?xml version="1.0" encoding="UTF-8"?>
<svg id="a" viewBox="0 0 72 72" xmlns="http://www.w3.org/2000/svg"><g id="b"><path d="m58.831 59.603c0.5559-0.378 0.9222-1.0177 0.9222-1.7415v-33.253h-42.918v31.919c0 0.0451-3e-3 0.0893-0.0082 0.1344-0.0073 0.0558-0.0867 0.5933-0.3357 1.3202-0.0785 0.2418-0.1719 0.4732-0.2754 0.6998-0.0305 0.0683-0.0611 0.1355-0.0946 0.2052-0.0605 0.1211-0.1177 0.2432-0.1852 0.359-0.1271 0.2341-0.2663 0.4705-0.4309 0.7066l42.159 0.0103c0.1439 0 0.2845-0.0148 0.4205-0.0429 0.2716-0.0561 0.5244-0.1653 0.7467-0.3165z" fill="#D0CFCE"/><path d="m12.134 60.037c-0.04-0.5215 2.2655-0.2523 2.7831-0.3314 1.3427-0.205 1.7472-2.5912 1.8829-4.7953l0.5022-29.349s-0.3879-1.318-0.0754-1.318l2.9082 0.0717h37.804l0.0615-3.9487-0.0038-0.0046c-0.0169 0.2818-0.6078-1.9364-0.8105-1.7651-0.0039 0.0025 0.0925-0.0379 0 0 0 0 0.135 0 0 0-0.5527 0-0.1779-1.6485-0.1779-1.6485l-27.338-0.0025c-0.75 0-0.4256-3.6514-0.8223-3.8284-1e-4 -2e-4 -1.8003-1.0422-2.3372-1.0576-0.0195-5e-4 -11.343-0.0052-11.343-0.0052-1.1026 0-3.2083 1.8996-3.2083 3.0026 0 0-0.9313 41.269-0.9563 41.159v-2e-4l-0.0241-0.0167 1.1915 4.0249-0.0311-0.1686c-7e-4 -0.0066-0.0046-0.012-0.0051-0.0187z" fill="#9B9B9A"/></g><g id="c" fill="none" stroke="#000" stroke-linecap="round" stroke-linejoin="round" stroke-miterlimit="10" stroke-width="2"><path d="m57.008 20.304v-3.3562l-27.338-0.0025c-0.198 0-0.3586-0.165-0.3586-0.3684l-0.0687-1.5169c-0.116-1.7878-1.3398-3.0033-2.9967-3.0033h-11.287c-1.6569 0-3 1.3432-3 3v40.943"/><path d="m16.961 55.369c-0.1472 2.6185-1.9172 4.3009-3.8299 4.5924l43.915 0.0108c1.6569 0 3-1.3431 3-3v-31.658c0-0.5523-0.4477-1-1-1h-41.081c-0.5523 0-1 0.4477-1 1l-0.0038 30.054z"/></g></svg>
