<svg xmlns="http://www.w3.org/2000/svg" id="a" viewBox="0 0 72 72"><g id="b"><path fill="#EA5A47" d="m35.972 9.7197c-6.4217 0-11.646 5.2242-11.646 11.646s5.2242 11.646 11.646 11.646c6.4216 0 11.646-5.2242 11.646-11.646s-5.2243-11.646-11.646-11.646z"/><path fill="#D22F27" d="m39.169 32.382c1.7258-0.6456 3.289-0.8166 4.8143-2.212 2.1013-1.9223 3.9035-5.3398 3.9035-8.0238 0-2.4449-0.578-5.3031-2.3421-7.6335-1.6276-2.15-4.3608-3.8416-6.3757-4.554 0 0 3.5175 5.6512 3.5175 11.374s-3.5175 11.049-3.5175 11.049z"/><path fill="#D0CFCE" d="m35.837 63.489 2.8467-7.6704s-0.8248-19.577-0.3788-19.678h-5.1693c0.4459 0.1007-0.2244 19.559-0.2244 19.559l2.9258 7.789z"/><path fill="#9B9B9A" d="m35.956 62.738 2.649-7.0773s0.1045-19.058 0.0622-19.527l-2.9331 0.0072 0.2219 26.597z"/></g><g id="c" fill="none" stroke="#000" stroke-linecap="round" stroke-linejoin="round" stroke-miterlimit="10" stroke-width="2"><circle cx="35.972" cy="21.366" r="11.808"/><polyline points="38.52 37.098 38.52 55.714 35.936 64.219 32.921 55.714 32.921 37.098"/></g></svg>