<svg xmlns="http://www.w3.org/2000/svg" id="a" viewBox="0 0 72 72"><g id="b"><path fill="#9B9B9A" d="m15.464 59.626c0.1391-0.1691 2.3559-7.8264 2.8998-9.627 0.457-1.5137 3.9618-15.27 6.1601-25.071 0.0084-0.1315 33.484-0.6133 33.484-0.6133v-4.0109c0 0.5522-1-3.356-1-3.356l-27.493-0.5712c-0.0801-1.2364-1.004-4.1216-2.1368-4.1216l-12.587-0.1983c-1.1026 0-2.8321 1.3407-2.8321 2.4437 0 0 0.5527 39.725 0 39.725s-0.9999 2.3271-0.9999 1.7744c0 0 0.3537 3.5947 1.3755 4.566 0.0143 0.0137 0.0302 0.0212 0.0451 0.0335-0.1325-0.1559 2.9254-0.7806 3.0844-0.9731z"/><path fill="#D0CFCE" d="m23.944 24.315c0 0.0782-0.0083 0.1557-0.0259 0.2318-0.2749 1.226-6.7345 30.042-7.363 32.124-0.3359 1.1164-0.9593 2.3082-1.7645 3.291l43.112 0.0104c1.1381 0 1.5216 0 2.1521-2.3899 0.6676-2.5305 6.6984-30.269 7.342-33.232 0.0017-9e-3 0.0066-0.0353 0.0066-0.0353h-43.459z"/></g><g id="c" fill="none" stroke="#000" stroke-linecap="round" stroke-linejoin="round" stroke-miterlimit="10" stroke-width="2"><path d="m57.008 20.304v-3.3562l-27.338-0.0025c-0.198 0-0.3586-0.165-0.3586-0.3684l-0.0687-1.5169c-0.116-1.7878-1.3398-3.0033-2.9967-3.0033h-11.287c-1.6569 0-3 1.3432-3 3v40.943"/><path d="m17.027 55.568c-0.5897 1.954-2.2223 4.1389-3.8959 4.394l43.915 0.0108c1.6569 0 2.3233-0.4388 3-3s7-31.658 7-31.658c0-0.5523-0.4477-1-1-1h-41.081c-0.5523 0-1 0.4477-1 1 0 0-6.3481 28.299-6.9378 30.253z"/></g></svg>