<svg xmlns="http://www.w3.org/2000/svg" id="a" viewBox="0 0 72 72"><g id="b"><path fill="#fff" d="m12 28.122-3e-3 31.969 31.659-0.0054 16.09-12.048c-0.0072-0.0488 0.2538-3.9464 0.2538-3.9464l-3e-3 -16-47.997 0.0306z"/><path fill="#EA5A47" d="m11.444 28.292 48.553-0.2003 3e-3 -15.969s-6.5361-0.9998-5.9834-0.9998h-3.5569l0.0526 5.772c1.7272 0.4562 2.1504 3.0869 2.1504 3.0874-0.0225 2.1919-2.6783 2.5299-2.6907 2.5274-1.8479-0.3787-2.4888-1.2828-2.4683-2.8021 0.0144-1.0682 0.046-1.3296 0.8087-2.0781 0.5122-0.5019 0.6338-0.6085 1.3107-0.7802l-0.0279-5.7264h-3.5395-20.05-3.6621l0.071 5.7264c1.7272 0.4562 2.2925 0.8529 2.2752 2.7188-0.0205 2.1929-2.706 3.2811-2.7187 3.2811-2.2051-0.0215-2.9918-1.0379-2.9713-3.243 0.0098-1.0683 0.8766-1.8637 1.6393-2.6122 0.5122-0.5019 0.6989-0.822 1.3758-0.9937l-0.2395-4.8774h-3.7434c0.2142 0-6.0322 0.9998-6.0322 0.9998l-0.5563 16.17z"/><path fill="#d0cfce" d="m59.997 48.038h-16.859s-0.8989 6.1042-0.9709 5.6225v5.4255l1.4889 1.0002 16.341-12.048z"/><line x1="22.015" x2="22.015" y1="8.688" y2="18.998" fill="#9b9b9a" fill-rule="evenodd" stroke-linecap="round" stroke-linejoin="round" stroke-miterlimit="10" stroke-width="2" clip-rule="evenodd"/><line x1="50.016" x2="50.016" y1="8.688" y2="18.998" fill="#9b9b9a" fill-rule="evenodd" stroke-linecap="round" stroke-linejoin="round" stroke-miterlimit="10" stroke-width="2" clip-rule="evenodd"/></g><g id="c" fill="none" stroke="#000" stroke-linecap="round" stroke-linejoin="round" stroke-miterlimit="10" stroke-width="2"><ellipse cx="22" cy="19.849" fill-rule="evenodd" clip-rule="evenodd" rx="3" ry="3" transform="matrix(.0096 -1 1 .0096 1.9414 41.658)"/><line x1="26.006" x2="46.056" y1="12.122" y2="12.122"/><polyline points="54.016 12.122 60 12.122 60 28.122 12 28.122 12 12.122 18.032 12.122"/><line x1="22.015" x2="22.015" y1="8.688" y2="18.998" fill-rule="evenodd" clip-rule="evenodd"/><ellipse cx="50.001" cy="19.849" fill-rule="evenodd" clip-rule="evenodd" rx="3" ry="3" transform="matrix(.0096 -1 1 .0096 29.674 69.658)"/><line x1="50.016" x2="50.016" y1="8.688" y2="18.998" fill-rule="evenodd" clip-rule="evenodd"/><path d="m34.336 38.092c0.5248-2.5644 2.7937-4.4936 5.5134-4.4936 1.5539 0 2.9609 0.63 3.9793 1.6484 1.5843 1.5842 1.438 4.2167-0.0484 5.8928l-9.5586 10.78h4.7601"/><polyline points="23.276 37.398 28.348 33.598 28.348 51.92"/><polyline points="11.997 28.092 11.997 60.092 43.656 60.086 59.997 48.038 59.997 28.092"/><polyline points="59.746 48.038 43.138 48.038 43.138 53.518"/></g></svg>