<svg xmlns="http://www.w3.org/2000/svg" id="a" viewBox="0 0 72 72"><g id="b"><path fill="#fff" d="m11.997 27.916v32.175l31.659-0.0054 16.489-11.9v-20.095l-48.148-0.1753z"/><path fill="#EA5A47" d="m19.207 18.736c0.0059-0.6514-0.7503-2.3148-0.4458-2.8811-0.1466-0.5021 1.6993-3.5815 1.6993-3.5815h-8.4608l-3e-3 15 48.148 0.305-0.1454-15.305-6.6506-0.375-1.9644 3.4982c0.3652 1.0116 0.6716 1.8772 0.7819 2.139 0.3596 0.5433 0.7323 3.2262 0.7323 3.2264-0.0197 1.9187-2.6538 2.2379-2.9272 2.2379-2.4384-0.3664-2.7436-2.0798-2.7231-4.2859 0.0058-0.6514-0.3112-2.6719-0.307-2.7145 0.0141-0.1445 1.5385-3.7261 1.5385-3.7261h-22.915l-2.2003 3.1232c0.3652 1.0116 1.6155 4.6319 1.6155 4.6321-0.0205 2.1914-1.2224 2.7459-3.0285 2.9712s-2.7656-2.0578-2.7451-4.2639z"/><path fill="#d0cfce" d="m60.145 48.186-17.212-0.3533s0.7574 3.9405 0.2047 3.9405c-0.502 0-0.8989 2.3688-0.9709 1.8871v6.6846l1.6823-0.0774 16.296-12.082z"/></g><g id="c" fill="none" stroke="#000" stroke-linecap="round" stroke-linejoin="round" stroke-miterlimit="10" stroke-width="2"><polyline points="53.349 12.273 60 12.273 60 28.273 12 28.273 12 12.273 20.461 12.273"/><line x1="25.566" x2="48.48" y1="12.273" y2="12.273"/><path fill-rule="evenodd" d="m53.349 12.275-1.9644 3.1214s0.9936 2.767 1.0851 2.8995c0.3399 0.4916 0.5366 1.0894 0.5304 1.7326-0.0158 1.6567-1.3717 2.987-3.0285 2.9712-1.6568-0.0159-2.987-1.3718-2.9712-3.0286 6e-3 -0.6212 0.2003-1.1966 0.5284-1.6723 0.0816-0.1184-0.9091-2.9024-0.9091-2.9024l1.8603-3.1332" clip-rule="evenodd"/><path fill-rule="evenodd" d="m25.33 12.275-1.9644 3.1214s0.9936 2.767 1.0851 2.8995c0.3399 0.4916 0.5366 1.0894 0.5304 1.7326-0.0158 1.6567-1.3717 2.987-3.0285 2.9712-1.6568-0.0159-2.987-1.3718-2.9712-3.0286 6e-3 -0.6212 0.2003-1.1966 0.5284-1.6723 0.0816-0.1184-0.9091-2.9024-0.9091-2.9024l1.8603-3.1332" clip-rule="evenodd"/><path d="m34.336 38.092c0.5248-2.5644 2.7937-4.4936 5.5134-4.4936 1.5539 0 2.9609 0.63 3.9793 1.6484 1.5843 1.5842 1.438 4.2167-0.0484 5.8928l-9.5586 10.78h4.7601"/><polyline points="23.276 37.398 28.348 33.598 28.348 51.92"/><polyline points="11.997 28.092 11.997 60.092 43.656 60.086 59.997 48.038 59.997 28.092"/><polyline points="59.746 48.038 43.138 48.038 43.138 53.518"/></g></svg>