<svg xmlns="http://www.w3.org/2000/svg" id="a" viewBox="0 0 72 72"><g id="b"><rect width="9" height="4.807" x="11" y="18.193" fill="#ea5a47"/><rect width="9" height="4.807" x="22.86" y="18.193" fill="#b1cc33"/><rect width="9" height="4.807" x="34.721" y="18.193" fill="#92d3f5"/><rect width="50" height="30" x="11" y="23" fill="#d0cfce"/></g><g id="c" fill="none" stroke="#000" stroke-linecap="round" stroke-linejoin="round" stroke-width="2"><path d="m11.901 18.193h7.1985a0.9008 0.9008 0 0 1 0.9007 0.9008v3.9066h-9v-3.9066a0.9008 0.9008 0 0 1 0.9008-0.9008z"/><path d="m23.761 18.193h7.1988a0.9008 0.9008 0 0 1 0.9008 0.9008v3.9066h-9v-3.9066a0.9008 0.9008 0 0 1 0.9004-0.9008z"/><path d="m35.622 18.193h7.1984a0.9008 0.9008 0 0 1 0.9008 0.9008v3.9066h-9v-3.9066a0.9008 0.9008 0 0 1 0.9008-0.9008z"/><rect width="50" height="30" x="11" y="23"/></g></svg>