<svg xmlns="http://www.w3.org/2000/svg" id="a" viewBox="0 0 72 72"><g id="b"><polyline fill="#9B9B9A" points="56 48.821 56 10.958 15.037 10.958 15.037 41.111 15.037 52.265 54.464 50.917"/><polyline fill="#9B9B9A" stroke-linecap="round" stroke-linejoin="round" stroke-miterlimit="10" stroke-width="2" points="56 48.821 56 10.958 16 10.958 16 41.111"/><polygon fill="#D0CFCE" stroke-linecap="round" stroke-linejoin="round" stroke-miterlimit="10" stroke-width="2" points="47.972 38.149 13.839 45.652 14.653 56.442 45.842 52.277 49.115 51.84 53 51.321"/></g><g id="c" fill="none" stroke="#000" stroke-linecap="round" stroke-linejoin="round" stroke-miterlimit="10" stroke-width="2"><polyline points="56 48.821 56 10.958 16 10.958 16 41.111"/><polygon points="47.972 38.149 13.839 45.652 14.653 56.442 45.842 52.277 49.115 51.84 53 51.321"/><line x1="20.622" x2="36" y1="16" y2="16"/><line x1="20.622" x2="51.66" y1="21.328" y2="21.328"/><line x1="20.622" x2="51.66" y1="32.22" y2="32.22"/><line x1="20.622" x2="33.393" y1="37.627" y2="37.627"/><line x1="20.622" x2="51.66" y1="26.814" y2="26.814"/><path d="m56 48.321c0 1.6569-1.3431 3-3 3"/></g></svg>