<?xml version="1.0" encoding="UTF-8"?>
<svg id="a" viewBox="0 0 72 72" xmlns="http://www.w3.org/2000/svg"><g id="b"><path d="m12.05 59.91h47.9v-47.9h-47.9z" fill="#fff"/><path d="m31.238 28.417-6.8898-8.6812-2.8384 2.5491 8.7131 11.797 6.5938-3.5617c0.1425-0.0713 11.276 21.222 11.276 21.222l3.397-1.4527-12.435-25.084s-7.5277 3.5956-7.8167 3.2118z" fill="#92d3f5"/></g><g id="c" fill="none" stroke="#000" stroke-linecap="round" stroke-linejoin="round" stroke-miterlimit="10" stroke-width="2"><polygon points="47.906 52.066 37.261 30.593 29.909 34.237 21.151 22.14 24.348 19.735 31.358 29.054 35.484 27.009 35.471 26.982 39.055 25.205 51.49 50.289"/><rect x="12.052" y="12.015" width="47.897" height="47.897"/><line x1="51.839" x2="59.805" y1="36.085" y2="36.085"/><line x1="12.739" x2="26.04" y1="36.085" y2="36.085"/><line x1="55.207" x2="59.683" y1="47.993" y2="47.993"/><line x1="12.739" x2="41.361" y1="47.993" y2="47.993"/><line x1="48.234" x2="48.251" y1="56.08" y2="59.37"/><line x1="48.033" x2="48.153" y1="12.059" y2="34.504"/><line x1="36.184" x2="36.184" y1="38.182" y2="59.573"/><line x1="36.184" x2="36.184" y1="12.33" y2="22.284"/><line x1="24.225" x2="24.225" y1="33.302" y2="59.573"/><line x1="24.225" x2="24.225" y1="12.12" y2="15.652"/><line x1="43.255" x2="59.226" y1="24.177" y2="24.177"/><line x1="12.264" x2="17.552" y1="24.177" y2="24.177"/></g></svg>
