<svg xmlns="http://www.w3.org/2000/svg" id="a" viewBox="0 0 72 72"><g id="b"><path fill="#EA5A47" d="m46.288 34.393c-0.8205-1.4005-3.5756-2.5592-3.5756-2.5592l-1.0343-4.1975-1.4782-13.048-9.8551-0.6051-0.9527 4.2373s0.0101-0.0118 0.0231-0.0265c0.152-0.3584-1.2544 12.418-1.2544 12.418-0.0635 0.3545-1.4459 1.7772-1.7857 1.8963-2.8213 0.9893-3.0856 3.5212-3.57 4.5505l25.416 0.0322c-0.0304-0.143-1.2274-1.494-1.9328-2.6983z"/><polygon fill="#EA5A47" points="31.008 8.599 29.584 14.588 40.282 14.128 39.827 8.789"/><polygon fill="#D22F27" points="39.827 8.789 36.848 8.789 37.14 14.588 40.827 14.588"/><path fill="#d0cfce" d="m33.051 40.235s-0.0242 2.6808-0.0242 3.2335l0.3163 12.495 2.5622 7.4335 2.1319-4.849 0.2783-18.295-5.2645-0.0173z"/><polygon fill="#9b9b9a" points="35.874 62.479 38.246 55.963 38.309 41.697 38.32 40.237 35.661 40.246"/><path fill="#D22F27" d="m38.012 31.834s1.4394 1.1587 2.2599 2.5592c0.7054 1.2043 1.238 2.5553 1.2684 2.6983l6.2498-0.3612c-0.4834-1.0264-1.2141-2.9608-4.0383-3.951-0.3398-0.1191-0.6609-0.5908-0.7244-0.9453 0 0-2.212-14.038-2.0498-13.588l-0.6956-4.1179-3.1415 0.4601 0.8499 15.39 0.0216 1.8554z"/></g><g id="c" fill="none" stroke="#000" stroke-linecap="round" stroke-linejoin="round" stroke-miterlimit="10" stroke-width="2"><polyline points="33.069 41.232 33.075 56.015 35.936 63.873 38.254 55.991 38.248 41.235"/><path d="m30.319 18.576-2.3773 13.26c-5.2242 1.8318-5.4803 5.4953-5.4803 5.4953h25.45s-0.2561-3.6635-5.4803-5.4953l-2.3773-13.26"/><polygon points="40.827 14.588 29.584 14.588 30.584 8.789 39.827 8.789"/></g></svg>