<svg xmlns="http://www.w3.org/2000/svg" id="a" viewBox="0 0 72 72"><g id="b"><polygon fill="#fff" points="11 57.697 60 57.697 60 11.909 15.998 11.909 11.998 15.909"/><path fill="#9b9b9a" stroke-linecap="round" stroke-linejoin="round" stroke-miterlimit="10" stroke-width="2" d="m55.002 60.909h-43.003c-0.5514 0-0.9985-0.447-0.9985-0.9985v-43.003c0-0.5514 0.447-0.9985 0.9985-0.9985h43.003c0.5514 0 0.9985 0.447 0.9985 0.9985v43.003c0 0.5514-0.447 0.9985-0.9985 0.9985z"/></g><g id="c" fill="none" stroke="#000" stroke-linecap="round" stroke-linejoin="round" stroke-miterlimit="10" stroke-width="2"><path d="m11 16.909 4.9985-5h43.003c0.5514 0 0.9985 0.447 0.9985 0.9985v43.003c0 0.5514-0.447 0.9985-0.9985 0.9985"/><path d="m55.002 60.909h-43.003c-0.5514 0-0.9985-0.447-0.9985-0.9985v-43.003c0-0.5514 0.447-0.9985 0.9985-0.9985h43.003c0.5514 0 0.9985 0.447 0.9985 0.9985v43.003c0 0.5514-0.447 0.9985-0.9985 0.9985z"/><polyline points="47.358 29.798 43.358 29.798 43.358 36.798 47.358 36.798"/><line x1="43.358" x2="46.358" y1="33.298" y2="33.298"/><polyline points="19.642 36.798 19.642 29.798 24.642 36.798 24.642 29.798"/><path d="m30.858 36.798c-1.3807 0-2.5-1.1193-2.5-2.5v-2c0-1.3807 1.1193-2.5 2.5-2.5s2.5 1.1193 2.5 2.5v2c0 1.3807-1.1193 2.5-2.5 2.5z"/><line x1="36.358" x2="40.358" y1="29.829" y2="29.829"/><line x1="38.358" x2="38.358" y1="29.829" y2="36.829"/></g></svg>