<?xml version="1.0" encoding="UTF-8"?>
<svg id="a" viewBox="0 0 72 72" xmlns="http://www.w3.org/2000/svg"><g id="b"><rect x="11" y="22" width="50" height="28" fill="#d0cfce"/><polygon points="61 50 50.685 50 36.512 22 61 22" fill="#9b9b9a"/><rect x="16" y="27" width="33" height="11.2" fill="#b1cc33"/><polygon points="49 38.2 41.512 38.2 35.843 27 49 27" fill="#5c9e31"/></g><g id="c"><line x1="11" x2="11" y1="50" y2="22" fill="none" stroke="#000" stroke-linecap="round" stroke-linejoin="round" stroke-width="2"/><line x1="61" x2="11" y1="50" y2="50" fill="none" stroke="#000" stroke-linecap="round" stroke-linejoin="round" stroke-width="2"/><line x1="61" x2="61" y1="22" y2="50" fill="none" stroke="#000" stroke-linecap="round" stroke-linejoin="round" stroke-width="2"/><line x1="11" x2="61" y1="22" y2="22" fill="none" stroke="#000" stroke-linecap="round" stroke-linejoin="round" stroke-width="2"/><line x1="16" x2="16" y1="38.2" y2="27" fill="none" stroke="#000" stroke-linecap="round" stroke-linejoin="round" stroke-width="1.8"/><line x1="49" x2="16" y1="38.2" y2="38.2" fill="none" stroke="#000" stroke-linecap="round" stroke-linejoin="round" stroke-width="1.8"/><line x1="49" x2="49" y1="27" y2="38.2" fill="none" stroke="#000" stroke-linecap="round" stroke-linejoin="round" stroke-width="1.8"/><line x1="16" x2="49" y1="27" y2="27" fill="none" stroke="#000" stroke-linecap="round" stroke-linejoin="round" stroke-width="1.8"/><circle cx="20.638" cy="44.1" r="2"/><circle cx="28.638" cy="44.1" r="2"/><circle cx="36.638" cy="44.1" r="2"/></g></svg>
