<svg xmlns="http://www.w3.org/2000/svg" id="a" viewBox="0 0 72 72"><g id="b"><path fill="#ea5a47" d="m52.158 7.41-7.652 17.148-8.349-17.558-8.2229 17.557-8.4837-17.083s-12.798 16.19-12.798 31.326 15.668 26.2 29.187 26.2h0.7608c13.52 0 27.965-11.064 27.965-26.2s-12.407-31.39-12.407-31.39z"/><path fill="#d22f27" d="M25.452,31.01H51.958a2.9184,2.9184,0,0,1,2.9184,2.9184v17.133A2.9184,2.9184,0,0,1,51.958,53.98H20.8318a2.9184,2.9184,0,0,1-2.9184-2.9184V38.5485A7.5386,7.5386,0,0,1,25.452,31.01Z"/><rect width="33.071" height="19.731" x="19.022" y="31.726" fill="#fff" rx="2.918" ry="2.918"/></g><g id="c" fill="none" stroke="#000" stroke-linecap="round" stroke-linejoin="round" stroke-width="2"><path d="m52.158 7.41-7.652 17.148-8.349-17.558-8.2229 17.557-8.4837-17.083s-12.798 16.19-12.798 31.326 15.668 26.2 29.187 26.2h0.7608c13.52 0 27.965-11.064 27.965-26.2s-12.407-31.39-12.407-31.39z"/><rect width="33.071" height="19.731" x="19.022" y="31.726" rx="2.918" ry="2.918"/></g></svg>