<svg xmlns="http://www.w3.org/2000/svg" id="a" viewBox="0 0 72 72"><g id="b"><rect width="41.954" height="40.977" x="15.023" y="16.283" fill="#F4AA41"/><polyline fill="#E27022" stroke-linecap="round" stroke-linejoin="round" stroke-miterlimit="10" stroke-width="2" points="16 55.748 11 55.948 11 60.99 61 60.99 61 53.948 56 54.148"/><polyline fill="#E27022" stroke-linecap="round" stroke-linejoin="round" stroke-miterlimit="10" stroke-width="2" points="56 16.283 61 16.083 61 11.042 11 11.042 11 18.083 16 17.883"/></g><g id="c" fill="none" stroke="#000" stroke-linecap="round" stroke-linejoin="round" stroke-miterlimit="10" stroke-width="2"><polyline points="16 55.748 11 55.948 11 60.99 61 60.99 61 53.948 56 54.148"/><polyline points="56 16.283 61 16.083 61 11.042 11 11.042 11 18.083 16 17.883"/><polyline points="56 16.283 34.626 17.138 16 17.883"/><line x1="16" x2="56" y1="55.748" y2="54.148"/><line x1="16" x2="16" y1="22.002" y2="50.06"/><line x1="56" x2="56" y1="22.002" y2="50.06"/><line x1="20.852" x2="31.861" y1="24.903" y2="24.903"/><line x1="20.852" x2="52.019" y1="30.152" y2="30.152"/><line x1="20.852" x2="52.019" y1="35.4" y2="35.4"/><line x1="20.852" x2="52.019" y1="40.648" y2="40.648"/><line x1="20.852" x2="52.019" y1="45.896" y2="45.896"/></g></svg>