<?xml version="1.0" encoding="UTF-8"?>
<svg id="a" viewBox="0 0 72 72" xmlns="http://www.w3.org/2000/svg"><g id="b"><path d="m13.671 21.31c1.4142 9.8995 26.87 35.355 36.77 36.77 0 0 5.6569 0 8.4853-5.6569l-9.1924-9.1924-3.5355 3.5355c-7.0711-1.4142-19.799-14.142-21.213-21.213l3.5355-3.5355-9.1924-9.1924c-5.6569 2.8284-5.6569 8.4853-5.6569 8.4853z" fill="#d0cfce" stroke-linecap="round" stroke-linejoin="round" stroke-miterlimit="10" stroke-width="2"/><polygon points="25 26 15.125 16.25 19 13 27.75 21.875" fill="#9b9b9a"/><polygon points="56 57 46.125 47.25 50 44 58.75 52.875" fill="#9b9b9a"/></g><g id="c" fill="none" stroke="#000" stroke-linecap="round" stroke-linejoin="round" stroke-miterlimit="10" stroke-width="2"><path d="m13.671 21.31c1.4142 9.8995 26.87 35.355 36.77 36.77 0 0 5.6569 0 8.4853-5.6569l-9.1924-9.1924-3.5355 3.5355c-7.0711-1.4142-19.799-14.142-21.213-21.213l3.5355-3.5355-9.1924-9.1924c-5.6569 2.8284-5.6569 8.4853-5.6569 8.4853z"/><path d="m13.671 21.31c1.4142 9.8995 26.87 35.355 36.77 36.77 0 0 5.6569 0 8.4853-5.6569l-9.1924-9.1924-3.5355 3.5355c-7.0711-1.4142-19.799-14.142-21.213-21.213l3.5355-3.5355-9.1924-9.1924c-5.6569 2.8284-5.6569 8.4853-5.6569 8.4853z"/></g></svg>
