<?xml version="1.0" encoding="UTF-8"?>
<svg id="a" viewBox="0 0 72 72" xmlns="http://www.w3.org/2000/svg"><g id="b"><path d="m60.1 57.08c0.5632 0 1.0198-0.4576 1.0198-1.0222v-44.023c0-0.5645-0.4566-1.0222-1.0198-1.0222h-43.922c-0.5632 0-1.0198 0.4576-1.0198 1.0222v27.129l36.061 17.917h8.881z" fill="#FCEA2B"/><path d="m60.121 56.012c0.5514 0 0.9985-0.447 0.9985-0.9985v-43.003c0-0.5514-0.447-0.9985-0.9985-0.9985h-43.003c-0.5514 0-0.9985 0.447-0.9985 0.9985v44.002h44.002z" fill="#FCEA2B"/><path d="m16.12 12.011c0-0.5514 0.447-0.9985 0.9985-0.9985h43.003c0.5514 0 0.9985 0.447 0.9985 0.9985v43.003c0 0.5514-0.447 0.9985-0.9985 0.9985" fill="#FCEA2B" stroke-linecap="round" stroke-linejoin="round" stroke-miterlimit="10" stroke-width="2"/><path d="m55.134 61h-43.003c-0.5514 0-0.9985-0.447-0.9985-0.9985v-43.003c0-0.5514 0.447-0.9985 0.9985-0.9985h43.003c0.5514 0 0.9985 0.447 0.9985 0.9985v43.003c0 0.5515-0.4471 0.9985-0.9985 0.9985z" fill="#F1B31C" stroke-linecap="round" stroke-linejoin="round" stroke-miterlimit="10" stroke-width="2"/></g><g id="c" fill="none" stroke="#000" stroke-linecap="round" stroke-linejoin="round" stroke-miterlimit="10" stroke-width="2"><path d="m16.12 12.011c0-0.5514 0.447-0.9985 0.9985-0.9985h43.003c0.5514 0 0.9985 0.447 0.9985 0.9985v43.003c0 0.5514-0.447 0.9985-0.9985 0.9985"/><path d="m55.134 61h-43.003c-0.5514 0-0.9985-0.447-0.9985-0.9985v-43.003c0-0.5514 0.447-0.9985 0.9985-0.9985h43.003c0.5514 0 0.9985 0.447 0.9985 0.9985v43.003c0 0.5515-0.4471 0.9985-0.9985 0.9985z"/><line x1="7" x2="15.712" y1="23.411" y2="23.411"/><line x1="7" x2="15.712" y1="29.447" y2="29.447"/><line x1="7" x2="15.712" y1="35.482" y2="35.482"/><line x1="15.712" x2="7" y1="41.518" y2="41.518"/><line x1="7" x2="15.712" y1="47.553" y2="47.553"/><line x1="7" x2="15.712" y1="53.589" y2="53.589"/></g></svg>
