<svg xmlns="http://www.w3.org/2000/svg" id="a" viewBox="0 0 72 72"><g id="b"><rect width="39.564" height="49.066" x="16.406" y="11.378" fill="#fff"/><polyline fill="#f4aa41" points="39.931 40.222 51.225 28.928 58.601 36.304 47.403 47.502"/><polyline fill="#a57939" points="37.942 46.818 39.902 41.17 46.356 47.624 40.708 49.585"/><polyline fill="#EA5A47" points="54.609 25.052 58.587 21.073 66.446 28.932 62.501 32.876"/><polyline fill="#d0cfce" points="50.494 29.659 55.102 25.052 62.477 32.427 57.909 36.996"/></g><g id="c"><polygon points="38.07 47.191 40.456 49.577 36.992 50.857"/><line x1="22.322" x2="49.322" y1="19.875" y2="19.875" fill="none" stroke="#000" stroke-linecap="round" stroke-linejoin="round" stroke-miterlimit="10" stroke-width="2"/><line x1="22.322" x2="47.922" y1="27.875" y2="27.875" fill="none" stroke="#000" stroke-linecap="round" stroke-linejoin="round" stroke-miterlimit="10" stroke-width="2"/><line x1="22.322" x2="39.431" y1="35.875" y2="35.875" fill="none" stroke="#000" stroke-linecap="round" stroke-linejoin="round" stroke-miterlimit="10" stroke-width="2"/><line x1="22.322" x2="34.528" y1="43.875" y2="43.875" fill="none" stroke="#000" stroke-linecap="round" stroke-linejoin="round" stroke-miterlimit="10" stroke-width="2"/><line x1="22.322" x2="32.468" y1="51.875" y2="51.875" fill="none" stroke="#000" stroke-linecap="round" stroke-linejoin="round" stroke-miterlimit="10" stroke-width="2"/><polygon points="38.07 47.191 40.456 49.577 36.992 50.857"/><polygon fill="none" stroke="#000" stroke-linecap="round" stroke-linejoin="round" stroke-miterlimit="10" stroke-width="2" points="40.692 49.591 46.356 47.624 61.946 32.034 55.492 25.58 39.902 41.17 37.928 46.841"/><polyline fill="none" stroke="#000" stroke-linecap="round" stroke-linejoin="round" stroke-miterlimit="10" stroke-width="2" points="58.086 22.986 59.641 21.431 66.095 27.885 64.463 29.517"/><line x1="40.279" x2="46.733" y1="40.793" y2="47.247" fill="none" stroke="#000" stroke-linecap="round" stroke-linejoin="round" stroke-miterlimit="10" stroke-width="2"/><polyline fill="none" stroke="#000" stroke-linecap="round" stroke-linejoin="round" stroke-miterlimit="10" stroke-width="2" points="37.932 46.828 36.549 50.977 40.708 49.585"/><line x1="51.302" x2="57.504" y1="30.157" y2="36.359" fill="none" stroke="#000" stroke-linecap="round" stroke-linejoin="round" stroke-miterlimit="10" stroke-width="2"/><polyline fill="none" stroke="#000" stroke-linecap="round" stroke-linejoin="round" stroke-miterlimit="10" stroke-width="2.021" points="55.322 44.228 55.322 59.875 16.322 59.875 16.322 11.875 55.322 11.875 55.322 20.331"/></g></svg>