<?xml version="1.0" encoding="UTF-8"?>
<svg id="a" viewBox="0 0 72 72" xmlns="http://www.w3.org/2000/svg"><g id="b"><path d="m14.85 64.04 0.05537-5.257-5.343-0.03324v-50.79h28.89l5.287 5.291h11.3v50.79z" fill="#fff" stroke="#fff" stroke-linejoin="round" stroke-width="2"/><polyline transform="matrix(1.057 0 0 1.058 -8.414 -4.737)" points="54.92 23 44 11.65 44 23" fill="#d0cfce" stroke-width=".9454"/><polygon transform="matrix(1.057 0 0 1.058 -8.414 -4.737)" points="59.55 29.04 67 29.04 67 34 59.55 34 57.71 31.52" fill="#92d3f5" stroke-width=".9454"/><polygon transform="matrix(1.057 0 0 1.058 -8.414 -4.737)" points="54.55 48 62 48 62 52.96 54.55 52.96 52.71 50.48" fill="#ea5a47" stroke-width=".9454"/></g><g id="c" fill="none" stroke="#000" stroke-linecap="round" stroke-linejoin="round"><polyline transform="matrix(1.059 0 0 1.058 -8.462 -4.752)" points="60 28.75 60 17 49.32 17" stroke-width="1.889"/><line x1="55.06" x2="55.06" y1="45.53" y2="31.68" stroke-width="2"/><polyline transform="matrix(1.059 0 0 1.058 -8.462 -4.752)" points="22 63.09 22 65 60 65 60 53.33" stroke-width="1.889"/><polyline transform="matrix(1.059 0 0 1.058 -8.462 -4.752)" points="55 48 55 22.68 44.32 12 17 12 17 60 55 60 55 53" stroke-width="1.889"/><polyline transform="matrix(1.059 0 0 1.058 -8.462 -4.752)" points="55 23 44.3 23 44.32 12" stroke-width="1.889"/><polygon transform="matrix(1.059 0 0 1.058 -8.462 -4.752)" points="59.55 34 57.71 31.52 59.55 29.04 67 29.04 67 34" stroke-width="1.889"/><polygon transform="matrix(1.059 0 0 1.058 -8.462 -4.752)" points="54.55 52.96 52.71 50.48 54.55 48 62 48 62 52.96" stroke-width="1.889"/><line x1="15.89" x2="30.71" y1="17.48" y2="17.48" stroke-width="2"/><line x1="15.89" x2="43.41" y1="25.94" y2="25.94" stroke-width="2"/><line x1="15.89" x2="43.41" y1="33.35" y2="33.35" stroke-width="2"/><line x1="15.89" x2="43.41" y1="41.82" y2="41.82" stroke-width="2"/><line x1="15.89" x2="43.41" y1="50.29" y2="50.29" stroke-width="2"/></g></svg>
