<svg xmlns="http://www.w3.org/2000/svg" id="a" viewBox="0 0 72 72"><g id="b"><path fill="#f4aa41" d="M35.5723,66.6641a1.003,1.003,0,0,1-.5-.1338L9.3829,51.6982a1,1,0,0,1-.5-.8662l-.001-29.664a1,1,0,0,1,.5-.8662L35.0723,5.47a1.0045,1.0045,0,0,1,1,0L61.7628,20.3018a1,1,0,0,1,.0019,1.7314L36.629,36.61,36.5723,65.666a1.0008,1.0008,0,0,1-1,.9981Z"/><polygon fill="#f4aa41" points="35.572 65 61.262 50.832 61.438 21.317 35.202 36.033"/><path fill="#d0cfce" d="m44.442 37.978a2.471 2.471 0 0 1-1.249-2.163v-4.1719l-25.07-14.529a1 1 0 0 1-1e-3 -1.7305l8.2608-4.792a1.0032 1.0032 0 0 1 1.0019-1e-3l25.637 14.802a1 1 0 0 1 0.5 0.8662v6.0244a3.2891 3.2891 0 0 1-1.64 2.8409l-4.9444 2.8544a2.4738 2.4738 0 0 1-2.4961 0z"/><path fill="#d0cfce" d="M45.3377,60.3412a1,1,0,0,1-.5-.8662V56.139a2.9781,2.9781,0,0,1,1.4853-2.5722L52.3963,50.06a1.8472,1.8472,0,0,1,2.7705,1.6v3.0069a1,1,0,0,1-.5.8662l-8.3291,4.8086a1.0011,1.0011,0,0,1-1,0Z"/><path fill="#3f3f3f" d="m44.427 45.946v0.8683a1.4967 1.4967 0 0 0 2.2451 1.2962l6.8048-3.76a2.28 2.28 0 0 0 1.14-1.9745v-1.1184a1.4442 1.4442 0 0 0-2.1663-1.2507l-6.7455 3.7252a2.5565 2.5565 0 0 0-1.2781 2.2139z"/><polygon fill="#fff" points="31.083 38.917 22.785 34.264 22.785 41.706 31.083 46.359"/></g><g id="c" fill="none" stroke="#000" stroke-linecap="round" stroke-linejoin="round" stroke-width="2"><polygon points="61.262 21.168 35.572 6.336 9.882 21.168 9.882 50.832 35.572 65.664 61.262 50.832"/><line x1="35.572" x2="35.572" y1="36.033" y2="65.664"/><line x1="35.63" x2="9.94" y1="36.033" y2="21.201"/><line x1="52.517" x2="61.262" y1="26.25" y2="21.201"/><line x1="35.572" x2="44.188" y1="36.033" y2="31.059"/><path d="m26.884 11.456 25.638 14.802v6.0248a2.28 2.28 0 0 1-1.14 1.9745l-4.9439 2.8543a1.4967 1.4967 0 0 1-2.2451-1.2962v-4.7486l-25.569-14.818"/><polygon points="31.083 38.917 22.785 34.264 22.785 41.706 31.083 46.359"/><path d="M54.1667,54.6663V51.66a.8472.8472,0,0,0-1.2708-.7337l-6.073,3.5062a1.97,1.97,0,0,0-.9853,1.7065v3.3361"/><path d="m44.427 45.946v0.8683a1.4967 1.4967 0 0 0 2.2451 1.2962l6.8048-3.76a2.28 2.28 0 0 0 1.14-1.9745v-1.1184a1.4442 1.4442 0 0 0-2.1663-1.2507l-6.7455 3.7252a2.5565 2.5565 0 0 0-1.2781 2.2139z"/></g></svg>