<?xml version="1.0" encoding="UTF-8"?>
<svg id="a" viewBox="0 0 72 72" xmlns="http://www.w3.org/2000/svg"><g id="b"><circle cx="59.383" cy="36.38" r="5" fill="#3F3F3F" stroke="#3F3F3F" stroke-miterlimit="10" stroke-width="2"/><path d="m57.738 11.375-16.435 13.346h-28.712c-1.6548 5e-3 -2.995 1.3452-3 3v16.692c5e-3 1.6548 1.3452 2.995 3 3h28.712l16.436 13.128-1e-3 -49.166z" fill="#d0cfce"/><line x1="18.751" x2="18.751" y1="25.333" y2="46.583" fill="#d0cfce"/><polygon points="18.687 24.511 11.152 24.948 9.623 26.859 9.5684 45.042 11.698 47.499 18.523 47.444" fill="#9b9b9a"/><path d="m27.75 47.746v12.293c0 1.5088-1.1175 2.7319-2.4962 2.7319h-4.9924c-1.3785 0-2.4962-1.2231-2.4962-2.7319v-12.293" fill="#9b9b9a"/></g><g id="c" fill="none" stroke="#000" stroke-linecap="round" stroke-linejoin="round" stroke-width="2"><path d="m57.738 11.375-16.435 13.346h-28.712c-1.6548 5e-3 -2.995 1.3452-3 3v16.692c5e-3 1.6548 1.3452 2.995 3 3h28.712l16.436 13.128-1e-3 -49.166z"/><line x1="18.751" x2="18.751" y1="25.333" y2="46.583"/><path d="m26.751 51.445v9c0 1.1046-0.8954 2-2 2h-4c-1.1045 0-2-0.8954-2-2v-9"/><path d="m61.614 31.907c1.6486 0.8173 2.782 2.5175 2.782 4.4823 0 1.9659-1.1346 3.6667-2.7846 4.4836"/></g></svg>
