<?xml version="1.0" encoding="UTF-8"?>
<svg id="a" viewBox="0 0 72 72" xmlns="http://www.w3.org/2000/svg"><g id="b" stroke-miterlimit="10" stroke-width="2"><path d="m41.003 26.14h-1.5889c-0.5519 0-0.9994 0.4474-0.9994 0.9994v4.4112c0 0.5519-0.4474 0.9994-0.9994 0.9994h-4.3313c-0.5519 0-0.9994-0.4474-0.9994-0.9994v-4.4112c0-0.5519-0.4474-0.9994-0.9994-0.9994h-1.5788c-0.8109 0-1.2842-0.9149-0.8157-1.5768l5.7482-8.1208c0.3983-0.5627 1.2331-0.5627 1.6314 0l5.7482 8.1208c0.4687 0.6619-0.0046 1.5768-0.8155 1.5768z" fill="#92D3F5"/><path d="m61 42.189v10.74c0 1.711-1.3914 3.0922-3.0922 3.0922h-43.908c-1.6569 0-3-1.3431-3-3v-10.924c0-1.6569 1.3431-3 3-3h5.4067c1.1204 0 2.2273 0.523 2.7865 1.4938 0.5049 0.8765 1.4431 1.4643 2.5154 1.4643l11.286 0.0103 11.286-0.0103c1.0722 0 2.0104-0.5878 2.5154-1.4643 0.5593-0.9708 1.6662-1.4938 2.7865-1.4938h5.3248c1.7008 0 3.0922 1.3812 3.0922 3.0922z" fill="#d0cfce" stroke-linecap="round" stroke-linejoin="round"/></g><g id="c" fill="none" stroke="#000" stroke-miterlimit="10" stroke-width="2"><path d="m41.003 26.14h-1.5889c-0.5519 0-0.9994 0.4474-0.9994 0.9994v4.4112c0 0.5519-0.4474 0.9994-0.9994 0.9994h-4.3313c-0.5519 0-0.9994-0.4474-0.9994-0.9994v-4.4112c0-0.5519-0.4474-0.9994-0.9994-0.9994h-1.5788c-0.8109 0-1.2842-0.9149-0.8157-1.5768l5.7482-8.1208c0.3983-0.5627 1.2331-0.5627 1.6314 0l5.7482 8.1208c0.4687 0.6619-0.0046 1.5768-0.8155 1.5768z"/><path d="m61 42.189v10.74c0 1.711-1.3914 3.0922-3.0922 3.0922h-43.908c-1.6569 0-3-1.3431-3-3v-10.924c0-1.6569 1.3431-3 3-3h5.4067c1.1204 0 2.2273 0.523 2.7865 1.4938 0.5049 0.8765 1.4431 1.4643 2.5154 1.4643l11.286 0.0103 11.286-0.0103c1.0722 0 2.0104-0.5878 2.5154-1.4643 0.5593-0.9708 1.6662-1.4938 2.7865-1.4938h5.3248c1.7008 0 3.0922 1.3812 3.0922 3.0922z" stroke-linecap="round" stroke-linejoin="round"/></g></svg>
