<svg xmlns="http://www.w3.org/2000/svg" id="a" viewBox="0 0 72 72"><g id="b" stroke-miterlimit="10"><polyline fill="#fff" stroke="#fff" stroke-linecap="round" stroke-linejoin="round" stroke-width="1.8" points="29.992 54.879 29.992 65.879 29.992 68.879 38.992 68.879 40.992 68.879 40.992 54.879"/><path fill="#EA5A47" stroke-linecap="round" stroke-width="2" d="m53.774 13.502v39.621c0 1.4948-1.2156 2.7015-2.7015 2.7015h-30.616c-1.4948 0-2.7015-1.2066-2.7015-2.7015v-39.621c0-1.4948 1.2067-2.7015 2.7015-2.7015h30.616c1.4859 0 2.7015 1.2067 2.7015 2.7015z"/><path fill="#D22F27" stroke="#D22F27" stroke-linejoin="round" stroke-width="2" d="m47.491 11.084h4.6452c0.6733 0 1.2242 1.2067 1.2242 2.7015v39.621c-0.6443 2.8772-5.832 2.0495-5.832 2.0495"/><path fill="#3F3F3F" stroke="#3F3F3F" stroke-linecap="round" stroke-width="2" d="m50.065 22.225v6.0791c0 0.7475-0.6721 1.3509-1.5047 1.3509h-25.79c-0.8326 0-1.5047-0.6034-1.5047-1.3509v-6.0791h28.8z"/><path fill="#D0CFCE" stroke="#D0CFCE" stroke-linecap="round" stroke-linejoin="round" stroke-width="2" d="m42.345 42.8h-13.41c-0.44 0-0.84-0.1-1.15-0.28-0.39-0.21-0.64-0.54-0.64-0.9v-22.86c0-0.35 0.24-0.67 0.62-0.89 0.31-0.18 0.72-0.29 1.17-0.29h13.38l-7.41 8.04-2.09 2.26c-0.11 0.12-0.21 0.24-0.29 0.36-0.91 1.23-0.91 2.66 0.01 3.88 0.08 0.12 0.18 0.24 0.28 0.35l2.1 2.27 7.43 8.06z"/><line x1="42.526" x2="42.546" y1="17.904" y2="17.872" fill="#D0CFCE" stroke="#D0CFCE" stroke-linecap="round" stroke-linejoin="round" stroke-width="2"/><path fill="#D0CFCE" stroke="#D0CFCE" stroke-linecap="round" stroke-linejoin="round" stroke-width="2" d="m42.905 18.47v23.47c0 0.29-0.18 0.58-0.46 0.79-0.03 0.02-0.07 0.05-0.1 0.07l-7.43-8.06-2.1-2.27c-0.1-0.11-0.2-0.23-0.28-0.35-0.92-1.22-0.92-2.65-0.01-3.88 0.08-0.12 0.18-0.24 0.29-0.36l2.09-2.26 7.41-8.04c0.03 0.02 0.07 0.05 0.11 0.07 0.3 0.22 0.48 0.5 0.48 0.82z"/><path fill="#EA5A47" stroke-linecap="round" stroke-width="2" d="m50.064 19.141v4.0422h-28.799v-4.0422c0-0.8946 0.6721-1.6169 1.5047-1.6169h25.79c0.8325 0 1.5046 0.7222 1.5046 1.6169z"/><line x1="43.315" x2="43.315" y1="23.25" y2="23.18" fill="#D22F27" stroke="#D22F27" stroke-linejoin="round" stroke-width="2"/><path fill="#D22F27" stroke="#D22F27" stroke-linejoin="round" stroke-width="2" d="m50.065 19.14v4.04h-4.04v-5.66h3.1362c0.5028 0 0.9038 0.73 0.9038 1.62z"/><polyline fill="#fff" stroke-linecap="round" stroke-linejoin="round" stroke-width="2" points="30 60.25 30 66 30 69 39 69 41 69 41 60.062"/></g><g id="c" fill="none" stroke="#000" stroke-linecap="round" stroke-miterlimit="10" stroke-width="2"><path d="m53.774 13.502v39.621c0 1.4948-1.2156 2.7015-2.7015 2.7015h-30.616c-1.4948 0-2.7015-1.2066-2.7015-2.7015v-39.621c0-1.4948 1.2067-2.7015 2.7015-2.7015h30.616c1.4859 0 2.7015 1.2067 2.7015 2.7015z"/><path d="m53.774 13.502v39.621c0 1.4948-1.2156 2.7015-2.7015 2.7015h-30.616c-1.4948 0-2.7015-1.2066-2.7015-2.7015v-39.621c0-1.4948 1.2067-2.7015 2.7015-2.7015h30.616c1.4859 0 2.7015 1.2067 2.7015 2.7015z"/><path d="m22.658 29.653c-0.7899-0.0422-1.4133-0.6285-1.4133-1.3485v-6.0791h28.799v6.0791c0 0.7475-0.6721 1.3509-1.5047 1.3509"/><path d="m50.064 19.141v4.0422h-28.799v-4.0422c0-0.8946 0.6721-1.6169 1.5047-1.6169h25.79c0.8325 0 1.5046 0.7222 1.5046 1.6169z"/><path d="m50.064 19.141v4.0422h-28.799v-4.0422c0-0.8946 0.6721-1.6169 1.5047-1.6169h25.79c0.8325 0 1.5046 0.7222 1.5046 1.6169z"/><polyline stroke-linejoin="round" points="30 60.25 30 66 30 69 39 69 41 69 41 60.062"/><path stroke-linejoin="round" d="m34.931 26.73-2.0816 2.2259c-0.1106 0.1194-0.2112 0.2388-0.2917 0.3581-0.9155 1.2237-0.9155 2.6464 0.0101 3.8602 0.0804 0.1194 0.1811 0.2388 0.2817 0.3482l2.1127 2.2584 7.4748 8.0188h-13.491c-0.4427 0-0.845-0.0995-1.1569-0.2786-0.3924-0.2089-0.6439-0.5372-0.6439-0.8954l-0.1448-16.032"/><path stroke-linejoin="round" d="m43 26.837v16.107c0 0.2885-0.1811 0.577-0.4628 0.7859-0.0301 0.0199-0.0704 0.0497-0.1006 0.0696l-7.4748-8.0188-2.1127-2.2584c-0.1006-0.1094-0.2012-0.2288-0.2817-0.3482-0.9256-1.2138-0.9256-2.6365-0.0101-3.8602 0.0805-0.1194 0.1811-0.2388 0.2917-0.3581l2.1026-2.2484 0.0414-0.0445"/></g></svg>