<svg xmlns="http://www.w3.org/2000/svg" id="a" version="1.1" viewBox="0 0 72 72"><g id="b"><path fill="#fff" d="m27.815 13.764c-0.6841 0-1.3577 0.0737-2.0103 0.221h-0.0105c-0.642-0.1474-1.3051-0.221-1.9891-0.221h4.0099z"/><path fill="#fff" stroke="#fff" stroke-miterlimit="10" stroke-width="1.8" d="m32.498 57.778v-21.892h6.7358v21.892c0 1.8523-1.5156 3.3679-3.3679 3.3679-0.9262 0-1.7682-0.3789-2.3786-0.9893-0.6104-0.6105-0.9893-1.4524-0.9893-2.3786z"/><path fill="#61B2E4" stroke="#61B2E4" stroke-linejoin="round" stroke-miterlimit="10" stroke-width="1.8" d="m58.605 25.977v10.146c0 2.0313-1.3472 3.7152-3.0733 3.9468-0.1368 0.0211-0.2736 0.0315-0.4209 0.0315l-29.564-0.0315c1.1367 0 2.0523-1.0419 2.0523-2.3154v-11.777c0-5.957-4.2099-12.209-3.5257-12.209h23.817c0.6841 0 1.3471 0.0737 1.9891 0.221h0.0105c4.9572 1.063 8.7145 6.0307 8.7145 11.988z"/><path fill="#92D3F5" d="m34.519 25.972v11.777c0 1.2735-0.9156 2.3154-2.0523 2.3154h-17.292c-1.1367 0-2.0418-1.0419-2.0418-2.3154v-12.714c0.242-3.7679 1.9892-7.0621 4.5782-9.1039 1.7155-1.3577 3.831-2.1681 6.0938-2.1681 0.6841 0 1.3471 0.0737 1.9891 0.221h0.0105c4.9573 1.063 8.7146 6.0307 8.7146 11.988z"/><path fill="#EA5A47" d="m41.087 31.354h0.9347c0.6427 0 1.1684-0.4404 1.1684-0.9786v-9.9812h2.1031c0.6426 0 1.1684-0.4404 1.1684-0.9786v-7.437c0-0.5383-0.5258-0.9786-1.1684-0.9786h-4.2061c-0.6426 0-1.1684 0.4403-1.1684 0.9786v18.397c-1e-4 0.5382 0.5257 0.9786 1.1683 0.9786z"/><path fill="#fff" d="m39.23 44.875v12.905c0 1.85-1.51 3.37-3.36 3.37-0.93 0-1.77-0.38-2.38-0.99s-0.99-1.46-0.99-2.38v-12.936"/></g><g id="c" fill="none" stroke="#000" stroke-miterlimit="10" stroke-width="2"><path d="m27.815 13.764c-0.6841 0-1.3577 0.0737-2.0103 0.221h-0.0105c-0.642-0.1474-1.3051-0.221-1.9891-0.221h4.0099z"/><path stroke-linecap="round" stroke-linejoin="round" d="m35.87 13.77h-11.56-0.24"/><path stroke-linecap="round" stroke-linejoin="round" d="m51.35 14.43c4.22 1.63 7.25 6.19 7.25 11.55v10.14c0 2.03-1.34 3.72-3.07 3.95-0.14 0.02-0.27 0.03-0.42 0.03l-29.56-0.03c0.07 0 0.14 0 0.21-0.01"/><path d="m34.519 25.972v11.777c0 1.2735-0.9156 2.3154-2.0523 2.3154h-17.292c-1.1367 0-2.0418-1.0419-2.0418-2.3154v-12.714c0.242-3.7679 1.9892-7.0621 4.5782-9.1039 1.7155-1.3577 3.831-2.1681 6.0938-2.1681 0.6841 0 1.3471 0.0737 1.9891 0.221h0.0105c4.9573 1.063 8.7146 6.0307 8.7146 11.988z"/><path stroke-linecap="round" d="m21.553 17.405v3.1153c0 0.5789 0.4736 1.0525 1.0525 1.0525h2.1049c0.5789 0 1.0525-0.4736 1.0525-1.0525v-3.1784"/><path stroke-linejoin="round" d="m41.087 31.354h0.9347c0.6427 0 1.1684-0.4404 1.1684-0.9786v-9.9812h2.1031c0.6426 0 1.1684-0.4404 1.1684-0.9786v-7.437c0-0.5383-0.5258-0.9786-1.1684-0.9786h-4.2061c-0.6426 0-1.1684 0.4403-1.1684 0.9786v18.397c-1e-4 0.5382 0.5257 0.9786 1.1683 0.9786z"/><path stroke-linecap="round" d="m39.23 44.875v12.905c0 1.85-1.51 3.37-3.36 3.37-0.93 0-1.77-0.38-2.38-0.99s-0.99-1.46-0.99-2.38v-12.936"/></g></svg>