<svg xmlns="http://www.w3.org/2000/svg" id="a" version="1.1" viewBox="0 0 72 72"><g id="b"><path fill="#fff" stroke="#fff" stroke-miterlimit="10" stroke-width="1.8" d="m32.498 57.778v-21.892h6.7358v21.892c0 1.8523-1.5156 3.3679-3.3679 3.3679-0.9262 0-1.7682-0.3789-2.3786-0.9893-0.6104-0.6105-0.9893-1.4524-0.9893-2.3786z"/><path fill="#fff" d="m39.23 44.875v12.905c0 1.85-1.51 3.37-3.36 3.37-0.93 0-1.77-0.38-2.38-0.99s-0.99-1.46-0.99-2.38v-12.936"/><path fill="#61B2E4" stroke="#61B2E4" stroke-linejoin="round" stroke-miterlimit="10" stroke-width="1.8" d="m56.541 25.826v9.8247c0 1.967-1.3046 3.5976-2.976 3.8218-0.1324 0.0204-0.2649 0.0305-0.4076 0.0305l-28.628-0.0305c1.1007 0 1.9874-1.009 1.9874-2.2422v-11.404c0-5.7684-4.0766-11.822-3.4142-11.822h23.064c0.6624 0 1.3045 0.0713 1.9262 0.214h0.0102c4.8002 1.0293 8.4386 5.8398 8.4386 11.608z"/><path fill="#EA5A47" d="m40.1 29.017v0.9051c0 0.6223 0.4264 1.1314 0.9476 1.1314h9.6653v2.0365c0 0.6222 0.4264 1.1314 0.9476 1.1314h7.2016c0.5212 0 0.9476-0.5091 0.9476-1.1314v-4.073c0-0.6222-0.4264-1.1314-0.9476-1.1314h-17.814c-0.5212 1e-4 -0.9476 0.5092-0.9476 1.1314z"/><path fill="#92D3F5" d="m33.218 25.822v11.404c0 1.2332-0.8867 2.2422-1.9874 2.2422h-16.745c-1.1007 0-1.9772-1.009-1.9772-2.2422v-12.311c0.2344-3.6486 1.9262-6.8386 4.4333-8.8158 1.6613-1.3146 3.7098-2.0994 5.901-2.0994 0.6624 0 1.3045 0.0713 1.9262 0.214h0.0102c4.8002 1.0293 8.4386 5.8398 8.4386 11.608z"/></g><g id="c" fill="none" stroke="#000" stroke-miterlimit="10" stroke-width="2"><path stroke-linecap="round" d="m39.23 44.875v12.905c0 1.85-1.51 3.37-3.36 3.37-0.93 0-1.77-0.38-2.38-0.99s-0.99-1.46-0.99-2.38v-12.936"/><path stroke-linecap="round" stroke-linejoin="round" d="m23.09 14.01 0.01-0.01h23.07c0.66 0 1.3 0.08 1.92 0.22h0.01c3.97 0.85 7.14 4.28 8.12 8.7"/><path stroke-linecap="round" stroke-linejoin="round" d="m24.53 39.47 28.63 0.03c0.14 0 0.27-0.01 0.4-0.03 0.84-0.11 1.58-0.57 2.12-1.25"/><path stroke-linejoin="round" d="m40.1 29.017v0.9051c0 0.6223 0.4264 1.1314 0.9476 1.1314h9.6653v2.0365c0 0.6222 0.4264 1.1314 0.9476 1.1314h7.2016c0.5212 0 0.9476-0.5091 0.9476-1.1314v-4.073c0-0.6222-0.4264-1.1314-0.9476-1.1314h-17.814c-0.5212 1e-4 -0.9476 0.5092-0.9476 1.1314z"/><path d="m33.218 25.822v11.404c0 1.2332-0.8867 2.2422-1.9874 2.2422h-16.745c-1.1007 0-1.9772-1.009-1.9772-2.2422v-12.311c0.2344-3.6486 1.9262-6.8386 4.4333-8.8158 1.6613-1.3146 3.7098-2.0994 5.901-2.0994 0.6624 0 1.3045 0.0713 1.9262 0.214h0.0102c4.8002 1.0293 8.4386 5.8398 8.4386 11.608z"/><path stroke-linecap="round" d="m20.662 17.526v3.0167c0 0.5605 0.4586 1.0192 1.0192 1.0192h2.0383c0.5605 0 1.0192-0.4586 1.0192-1.0192v-3.0779"/></g></svg>