<svg xmlns="http://www.w3.org/2000/svg" id="a" viewBox="0 0 72 72"><g id="b"><path fill="#f1b31c" stroke="#f1b31c" stroke-linecap="round" stroke-linejoin="round" stroke-miterlimit="10" stroke-width="2" d="m39.807 51h-9c-12.702 0-23-14.954-23-26h-5c0 12.702 10.298 30 23 30h9"/><path fill="#fcea2b" d="m49.053 33.195c0-0.01 0-0.02-0.01-0.03-0.24-0.75-0.56-1.4601-0.98-2.14-0.13-0.23-0.28-0.46-0.44-0.67l0.63 1.26c0.4 1.3 0.62 2.69 0.62 4.12 0 4.01-1.68 7.62-4.38 10.17 0.04 0.03 0.08 0.06 0.12 0.1l0.36 0.43 2.43-3.25 0.39-0.59c1.82-2.72 2.28-6.2701 1.26-9.4zm8.75 2.5099c-0.28-9.0299-5.64-17.14-13.46-20.84-0.54-0.27-1.1-0.51-1.67-0.73-0.36-0.13-0.72-0.26-1.09-0.3701-0.36-0.12-0.74-0.2199-1.11-0.3199-1.81-0.4901-3.7-0.7401-5.67-0.7401-9.14 0-17.05 5.3401-20.73 13.07-0.16 0.34-0.31 0.67-0.46 1.02-0.29 0.69-0.55 1.39-0.77 2.11-0.12 0.3599-0.22 0.73-0.31 1.09-0.08 0.31-0.16 0.62-0.22 0.93-0.03 0.11-0.05 0.2199-0.07 0.3399-0.07 0.32-0.12 0.6501-0.17 0.9801-0.06 0.35-0.1 0.7-0.14 1.06-0.09 0.8-0.13 1.62-0.13 2.44 0 0.81 0.04 1.62 0.13 2.41 0.03 0.37 0.08 0.7399 0.14 1.1 0.06 0.37 0.13 0.73 0.2 1.0799 0.06 0.2701 0.12 0.5501 0.18 0.8201 0.07 0.27 0.14 0.53 0.21 0.7999 0.23 0.8001-0.3504 1.8635-0.0504 2.6335 1.13 2.79 3.357 6.4439 5.4269 8.5639 0.71 0.74 1.7435 0.0027 2.5535 0.6227 0.01 0.01 0.01 0.01 0.02 0.01 3.91 3.09 8.84 4.9199 14.19 4.9199 5.89 0 11.34-2.2099 15.46-5.8499 0.33-0.29 0.64-0.58 0.95-0.9001 0.77-0.75 1.48-1.56 2.13-2.4199 2.77-3.63 4.43-8.11 4.47-12.96 0-0.2899 0-0.5799-0.01-0.87zm-14.67 10.12c-2.27 1.3301-9.16 4.5601-17.41 0.57-3-2.57-5.5336-6.1064-5.5336-10.376 0-7.75 6.9136-14.314 14.654-14.314 3.45 0 6.6 1.2401 9.04 3.31l2.6535 2.6201 1.1999 2.39-0.3234 0.03c0.07 0.1 0.15 0.2 0.21 0.3l0.63 1.26c0.4 1.3 0.62 2.69 0.62 4.12 0 4.01-1.68 7.62-4.38 10.17-0.39-0.3-0.93-0.34-1.36-0.0801zm5.92-12.63c0-0.01 0-0.02-0.01-0.03-0.24-0.75-0.56-1.4601-0.98-2.14-0.13-0.23-0.28-0.46-0.44-0.67l0.63 1.26c0.4 1.3 0.62 2.69 0.62 4.12 0 4.01-1.68 7.62-4.38 10.17 0.04 0.03 0.08 0.06 0.12 0.1l0.36 0.43 2.43-3.25 0.39-0.59c1.82-2.72 2.28-6.2701 1.26-9.4z"/><path fill="#f1b31c" d="m58.733 38.03c-0.06 0.75-0.13 1.2-0.13 1.2 0 4.84-2.51 8.05-5.26 10.56-1.15 1.05-2.34 1.98-3.41 2.85-0.22 0.18-0.43 0.35-0.64 0.52-0.87 0.74-1.62 1.44-2.15 2.15l0.79-4.19 0.14-0.71 2.6-13.74-1.62-3.22c0-0.01 0-0.02-0.01-0.03l-0.79-1.55-0.63-1.26 0.1134-0.33-1.1999-2.39-1.8031-2.62-3.3204-2.74-0.75-0.83 3.68-6.58 0.02-0.04 0.31-0.56c6.95 2.89 11.54 9.26 13.27 15.03 0.09 0.3 0.16 0.63 0.23 0.92 0.77 3.02 0.69 5.98 0.56 7.56z"/><path fill="#fff" d="m44.493 46.16c-2.51 2.4-5.9 3.86-9.65 3.86-3.48 0-6.67-1.27-9.12-3.37 8.25 3.99 15.14 0.76 17.41-0.57 0.43-0.26 0.97-0.22 1.36 0.08z"/><path fill="#fcea2b" stroke="#fcea2b" stroke-linecap="round" stroke-linejoin="round" stroke-miterlimit="10" stroke-width="2" d="m69.163 51.6-3.38 2.6c-2.9-3.76-7.88-4.97-12.06-3.25l-2.51 1.26-1.16 0.58-0.75 0.38-0.01-0.01-1.36-2.04-2.95-4.42-0.01-0.01 2.43-3.25 0.39-0.59c1.82-2.72 2.28-6.27 1.26-9.4 0-0.01 0-0.02-0.01-0.03-0.24-0.75-0.56-1.46-0.98-2.14-0.13-0.23-0.28-0.46-0.44-0.67-0.06-0.1-0.14-0.2-0.21-0.3l0.04-0.03 0.15-0.12 3.19-2.45 7.02 9.12 0.92 1.2 10.43 13.57z"/><path fill="#a57939" d="m49.843 54.61c-14.54 9.47-27.82 2.42-31.8-0.17-0.61-0.39-0.72-1.22-0.28-1.77 0.02-0.04 0.06-0.08 0.09-0.11l0.47-0.57 3.11-3.74 1.68-2.02c0.39-0.39 0.99-0.45 1.47-0.18 0.38 0.21 0.77 0.41 1.14 0.6 8.25 3.99 15.14 0.76 17.41-0.57 0.43-0.26 0.97-0.22 1.36 0.08 0.04 0.03 0.08 0.06 0.12 0.1l0.36 0.43 0.01 0.01 3.09 3.71 1.86 2.23 0.08 0.1c0.02 0.02 0.03 0.03 0.04 0.05 0.09 0.1 0.16 0.2 0.21 0.32 0.23 0.52 0.08 1.17-0.42 1.5z"/></g><g id="c" fill="none" stroke="#000" stroke-linecap="round" stroke-linejoin="round"><path stroke-width="2" d="m8.6106 30.693c-0.5237-1.9476-0.8032-3.8734-0.8032-5.6932h-5c0 6.0533 2.3385 13.15 6.1613 18.921"/><path stroke-width="2" d="m56.866 29.467c-2.8151-9.5206-11.626-16.467-22.059-16.467-12.702 0-23 10.298-23 23 0 4.7187 1.421 9.1055 3.8584 12.756"/><path stroke-width="2" d="M46.1575,26.1927 C43.407,23.0123,39.3422,21,34.8074,21c-8.2843,0-15,6.7157-15,15c0,2.3463,0.5387,4.5667,1.4991,6.5444"/><path stroke-width="2" d="m47.403 43.44 0.39-0.59c1.82-2.72 2.28-6.27 1.26-9.4 0-0.01 0-0.02-0.01-0.03-0.24-0.75-0.56-1.46-0.98-2.14-0.13-0.23-0.28-0.46-0.44-0.67-0.06-0.1-0.14-0.2-0.21-0.3l0.04-0.03 0.15-0.12 3.19-2.45 7.02 9.12 0.92 1.2 10.43 13.57-3.38 2.6c-2.9-3.76-7.88-4.97-12.06-3.25"/><path stroke-width="2.143" d="m49.843 54.61c-14.54 9.47-27.82 2.42-31.8-0.17-0.61-0.39-0.72-1.22-0.28-1.77 0.02-0.04 0.06-0.08 0.09-0.11l0.47-0.57 3.11-3.74 1.68-2.02c0.39-0.39 0.99-0.45 1.47-0.18 0.38 0.21 0.77 0.41 1.14 0.6 8.25 3.99 15.14 0.76 17.41-0.57 0.43-0.26 0.97-0.22 1.36 0.08 0.04 0.03 0.08 0.06 0.12 0.1l0.36 0.43 0.01 0.01 3.09 3.71 1.86 2.23 0.08 0.1c0.02 0.02 0.03 0.03 0.04 0.05 0.09 0.1 0.16 0.2 0.21 0.32 0.23 0.52 0.08 1.17-0.42 1.5z"/></g></svg>