<?xml version="1.0" encoding="UTF-8"?>
<svg id="a" version="1.1" viewBox="0 0 72 72" xmlns="http://www.w3.org/2000/svg"><g id="b"><rect x="20.28" y="22.562" width="31.72" height="3.125" fill="#D0CFCE"/><path d="m28.227 40.783-3.2868 3.2264-2.2014-0.9-11.342 10.447c-0.35-0.6201-0.57-1.44-0.57-2.32v-26.51l17.4 16.056z" fill="#D0CFCE"/><path d="m60.768 24.677v26.56c0 0.86-0.2 1.65-0.55 2.27l-11.439-10.474-1.5232 0.1969-3.4731-2.8072 3.9748-3.7456 13.011-12z" fill="#9B9B9A"/><path d="m26.748 39.417 4.47 4.13c0.24 0.22 0.48 0.41 0.72 0.57 2.4301 1.8 5.26 1.8 7.6801-0.01 0.23-0.16 0.47-0.36 0.69-0.56l4.5-4.15" fill="#D0CFCE"/><path d="m26.748 39.417 4.47 4.13c0.24 0.22 0.48 0.41 0.72 0.57 2.4301 1.8 5.26 1.8 7.6801-0.01 0.23-0.16 0.47-0.36 0.69-0.56l4.5-4.15 15.41 14.11c-0.42 0.77-1.07 1.27-1.79 1.27h-45.26c-0.7 0-1.34-0.47-1.77-1.22l15.35-14.14" fill="#D0CFCE" stroke="#D0CFCE" stroke-linecap="round" stroke-linejoin="round" stroke-miterlimit="10" stroke-width="1.8"/><path d="m47.872 42.203 12.346 11.304c-0.42 0.77-1.07 1.27-1.79 1.27h-45.26c-0.7 0-1.34-0.47-1.77-1.22l12.078-11.126" fill="#D0CFCE"/><path d="m49.594 23.567h9.46c0.59 0 1.16 0.35 1.57 0.91 0.05 0.06 0.1 0.13 0.14 0.2l-15.96 14.72-4.5 4.15c-0.22 0.2-0.46 0.4-0.69 0.56-2.42 1.81-5.25 1.81-7.68 0.01-0.24-0.16-0.48-0.35-0.72-0.57l-4.47-4.13-15.92-14.69c0.04-0.06 0.09-0.13 0.14-0.2 0.42-0.6 0.99-0.96 1.61-0.96h8.48" fill="#D0CFCE"/><path d="m29.949 22.097h1.5889c0.5519 0 0.9994-0.4474 0.9994-0.9994v-4.4112c0-0.5519 0.4474-0.9994 0.9994-0.9994h4.3313c0.5519 0 0.9994 0.4474 0.9994 0.9994v4.4112c0 0.5519 0.4474 0.9994 0.9994 0.9994h1.5788c0.8109 0 1.2842 0.9149 0.8157 1.5768l-5.7482 8.1208c-0.3983 0.5627-1.2331 0.5627-1.6314 0l-5.7482-8.1208c-0.4687-0.6619 0.0046-1.5768 0.8155-1.5768z" fill="#EA5A47"/></g><g id="c" fill="none" stroke="#000" stroke-linecap="round" stroke-miterlimit="10" stroke-width="2"><path d="m22.739 43.109-11.342 10.447c-0.35-0.6201-0.57-1.44-0.57-2.32v-26.51l17.4 16.056" stroke-linejoin="round"/><path d="m43.782 40.422 3.9748-3.7456 13.011-12v26.56c0 0.86-0.2 1.65-0.55 2.27l-11.439-10.474" stroke-linejoin="round"/><path d="m26.748 39.417 4.47 4.13c0.24 0.22 0.48 0.41 0.72 0.57 2.4301 1.8 5.26 1.8 7.6801-0.01 0.23-0.16 0.47-0.36 0.69-0.56l4.5-4.15" stroke-linejoin="round"/><path d="m47.872 42.203 12.346 11.304c-0.42 0.77-1.07 1.27-1.79 1.27h-45.26c-0.7 0-1.34-0.47-1.77-1.22l12.078-11.126" stroke-linejoin="round"/><path d="m49.594 23.567h9.46c0.59 0 1.16 0.35 1.57 0.91 0.05 0.06 0.1 0.13 0.14 0.2l-15.96 14.72-4.5 4.15c-0.22 0.2-0.46 0.4-0.69 0.56-2.42 1.81-5.25 1.81-7.68 0.01-0.24-0.16-0.48-0.35-0.72-0.57l-4.47-4.13-15.92-14.69c0.04-0.06 0.09-0.13 0.14-0.2 0.42-0.6 0.99-0.96 1.61-0.96h8.48" stroke-linejoin="round"/><path d="m29.949 22.097h1.5889c0.5519 0 0.9994-0.4474 0.9994-0.9994v-4.4112c0-0.5519 0.4474-0.9994 0.9994-0.9994h4.3313c0.5519 0 0.9994 0.4474 0.9994 0.9994v4.4112c0 0.5519 0.4474 0.9994 0.9994 0.9994h1.5788c0.8109 0 1.2842 0.9149 0.8157 1.5768l-5.7482 8.1208c-0.3983 0.5627-1.2331 0.5627-1.6314 0l-5.7482-8.1208c-0.4687-0.6619 0.0046-1.5768 0.8155-1.5768z"/></g></svg>
