<?xml version="1.0" encoding="UTF-8"?>
<svg id="a" viewBox="0 0 72 72" xmlns="http://www.w3.org/2000/svg"><g id="b"><path d="m12.864 32.49 5.261-0.0016v-3.409h-5.261c-0.0434 0.3279-0.0884 0.8679-0.0884 1.7047 0 0.838 0.045 1.378 0.0884 1.7059z" fill="#D0CFCE"/><path d="m12.325 31.867c-0.0134 0-0.0284 0-0.0435 9e-4h0.0869c-0.0133-9e-4 -0.0284-9e-4 -0.0434-9e-4z" fill="#D0CFCE"/><polygon points="52.448 59.999 54.953 38.197 51.704 38.197 48.8 59.999" fill="#9b9b9a"/><path d="m47.644 29.377c0.0569 0.5118 0.0938 1.0293 0.0938 1.556 0-0.5267-0.0369-1.0442-0.0938-1.556z" fill="#D0CFCE"/><path d="m48.8 29.377c-0.4111-3.6953-2.5001-7.7075-5.8095-10.249-2.6571-2.0407-6.2527-2.9817-9.2531-3.1947l0.2712 26.999c0.2486 0.6495-0.3346 2.4231 0.6547 2.6473 2.0178 0.4572 6.3562-1.3102 8.0762-2.6473 1.7857-1.3882 3.8837-3.5192 4.9515-6.3317 0.9164-2.4136 0.9159-5.4874 1.109-7.2233z" fill="#D0CFCE"/><path d="m34.738 41.786-1.2595 0.1084 0.259 4.0384c2.2672-0.1608 8.4311-2.5655 10.246-4.0463 2.9667-2.4215 4.7545-5.8777 4.7545-10.954 0-0.5267 0-1.7478-1.0933-1.5561-0.7412 6.6622-6.1689 11.931-12.906 12.409z" fill="#9b9b9a"/><path d="m52.655 26.964-3.4453-0.0401c-0.499 0.189-0.3108 3.3007-0.4716 4.0092-0.4838 2.1318-0.1699 3.2765 0.4682 4.0222h3.0961l0.0043-0.0363c-0.4569-0.1003 3.597-1.2223 3.2719-4.3628-0.3251-3.1404-3.5038-3.5721-2.9236-3.5922z" fill="#3F3F3F"/><path d="m52.692 26.966v-0.0013l-0.0117-1e-4c4e-3 1e-4 0.0077 0.0013 0.0117 0.0014z" fill="#3F3F3F"/></g><g id="c" fill="none" stroke="#000" stroke-linecap="round" stroke-linejoin="round" stroke-miterlimit="10" stroke-width="2"><path d="m33.738 45.933c8.2843 0 15-6.7157 15-15 0-8.2842-6.7157-15-15-15v30z"/><path d="m52.642 27.962c1.6565 0.0351 2.9709 1.4064 2.9358 3.0629s-1.4064 2.9709-3.0629 2.9358"/><path d="m17.912 32.49h-4.3872s-0.7404 0.0215-0.7404-1.5303c0-1.5519 0.7404-1.5305 0.7404-1.5305h4.3872v3.0608z"/><line x1="24.131" x2="33.738" y1="30.933" y2="30.933"/><line x1="22.121" x2="33.738" y1="27.649" y2="15.933"/><line x1="22.156" x2="33.738" y1="34.274" y2="45.933"/><line x1="40.238" x2="58.831" y1="59.999" y2="59.999"/><polyline points="48.8 59.999 51.704 38.197 54.953 38.197 52.049 59.999"/></g></svg>
