<svg xmlns="http://www.w3.org/2000/svg" id="a" viewBox="0 0 72 72"><g id="b" stroke-linecap="round" stroke-linejoin="round" stroke-miterlimit="10" stroke-width="2"><rect width="46" height="26" x="13" y="32" fill="#9B9B9A"/><path fill="#D0CFCE" d="m21 55h-1c-1.6569 0-3-1.3431-3-3v-14c0-1.6569 1.3431-3 3-3h1c1.6569 0 3 1.3431 3 3v14c0 1.6569-1.3431 3-3 3z"/><rect width="38" height="19" x="17" y="13" fill="#9B9B9A"/><rect width="22" height="15" x="29" y="17" fill="#fff"/><rect width="9" height="8" x="46" y="37" fill="#B1CC33"/></g><g id="c"><rect width="46" height="26" x="13" y="32" fill="none" stroke="#000" stroke-linecap="round" stroke-linejoin="round" stroke-miterlimit="10" stroke-width="2"/><path fill="none" stroke="#000" stroke-linecap="round" stroke-linejoin="round" stroke-miterlimit="10" stroke-width="2" d="m21 55h-1c-1.6569 0-3-1.3431-3-3v-14c0-1.6569 1.3431-3 3-3h1c1.6569 0 3 1.3431 3 3v14c0 1.6569-1.3431 3-3 3z"/><rect width="38" height="19" x="17" y="13" fill="none" stroke="#000" stroke-linecap="round" stroke-linejoin="round" stroke-miterlimit="10" stroke-width="2"/><rect width="22" height="15" x="29" y="17" fill="none" stroke="#000" stroke-linecap="round" stroke-linejoin="round" stroke-miterlimit="10" stroke-width="2"/><circle cx="29" cy="39" r="2"/><circle cx="35" cy="39" r="2"/><circle cx="41" cy="39" r="2"/><circle cx="29" cy="45" r="2"/><circle cx="35" cy="45" r="2"/><circle cx="41" cy="45" r="2"/><circle cx="29" cy="51" r="2"/><circle cx="35" cy="51" r="2"/><circle cx="41" cy="51" r="2"/><rect width="9" height="8" x="46" y="37" fill="none" stroke="#000" stroke-linecap="round" stroke-linejoin="round" stroke-miterlimit="10" stroke-width="2"/></g></svg>