<?xml version="1.0" encoding="UTF-8"?>
<svg id="a" viewBox="0 0 72 72" xmlns="http://www.w3.org/2000/svg"><g id="b"><path d="M58.7,27.6c0-5.4-2.9627-10.4219-7.3-11.6-3.4284-.9312-15.4-.6-15.4-.6l-11.8036-.0976c-.7,0,3.5036,6.2976,3.5036,12.2976V39.3a2.338,2.338,0,0,1-2.1226,2.3964L58.7,41.6Z" fill="#61b2e4"/><path d="m34.6 27.6v11.8a2.1631 2.1631 0 0 1-2.1 2.3h-17.2a2.15 2.15 0 0 1-2-2.3v-12.8a12.27 12.27 0 0 1 4.6-9.1 9.5025 9.5025 0 0 1 6.1-2.2 13.552 13.552 0 0 1 2 0.2c4.9 1.1 8.6 6.1 8.6 12.1z" fill="#3f3f3f"/><path d="M41.2,33h.9a1.12,1.12,0,0,0,1.2-1V22h2.1a1.12,1.12,0,0,0,1.2-1V13.6a1.1256,1.1256,0,0,0-1.2-1H41.2a1.12,1.12,0,0,0-1.2,1V32A1.1256,1.1256,0,0,0,41.2,33Z" fill="#ea5a47"/><rect x="23.027" y="25.462" width="11.257" height="14.298" rx="1.5627" fill="#d0cfce"/><path d="M39.3,59.4V41.6533l-6.813.0082L32.5,46.4v13" fill="#fff"/></g><g id="c" fill="none" stroke="#000" stroke-width="2"><path d="M40,15.3463c-7.5-.1255-15.804-.0439-15.804-.0439" stroke-linecap="round" stroke-linejoin="round"/><path d="m25.577 41.696 33.123-0.0964v-14c0-5.4-2.9627-10.422-7.3-11.6a30.007 30.007 0 0 0-4.8008-0.4629" stroke-linecap="round" stroke-linejoin="round"/><path d="M41.2,33h.9a1.12,1.12,0,0,0,1.2-1V22h2.1a1.12,1.12,0,0,0,1.2-1V13.6a1.1256,1.1256,0,0,0-1.2-1H41.2a1.12,1.12,0,0,0-1.2,1V32A1.1256,1.1256,0,0,0,41.2,33Z" stroke-linejoin="round"/><path d="m34.6 27.6v11.8a2.1631 2.1631 0 0 1-2.1 2.3h-17.2a2.15 2.15 0 0 1-2-2.3v-12.8a12.27 12.27 0 0 1 4.6-9.1 9.5025 9.5025 0 0 1 6.1-2.2 13.552 13.552 0 0 1 2 0.2c4.9 1.1 8.6 6.1 8.6 12.1z" stroke-miterlimit="10"/><path d="M39.3,59.4V41.6533l-6.813.0082L32.5,46.4v13" stroke-linecap="round" stroke-linejoin="round"/><path d="m28.287 34.46-4.9684 4.72a2.44 2.44 0 0 1-0.2662-1.054v-12.144" stroke-linecap="round" stroke-linejoin="round"/><path d="M34.2526,39.73h-10.18a1.0489,1.0489,0,0,1-.7985-.55l5.3677-5.0866" stroke-linecap="round" stroke-linejoin="round"/><path d="M34.1711,25.4324H23.8061a.9014.9014,0,0,0-.71.4582c0,.0458-.0444.0458-.0444.0917l7.0091,6.7363,1.9963,1.8788c.0887.0916.2218.1833.31.2749a2.8492,2.8492,0,0,0,1.8032.6117" stroke-linecap="round" stroke-linejoin="round"/></g></svg>
