<svg xmlns="http://www.w3.org/2000/svg" id="a" viewBox="0 0 72 72"><g id="b"><path fill="#D0CFCE" d="m5.2797 17.059v34.841c0 1.1026 1.8975 3 3 3h55.563c1.1025 0 3-1.8974 3-3v-34.841h-61.563z"/><polyline fill="none" points="11 28.115 11 21.076 60.983 21.076 60.983 28.115"/><path fill="#fff" d="m49.187 42.833c2.0872 0 3.7793-1.6921 3.7793-3.7793 0-2.0873-1.6921-3.7794-3.7793-3.7794v7.5587z"/><rect width="17.227" height="13.58" x="27.402" y="31.876" fill="#FCEA2B"/><path fill="#fff" d="m51.967 39.054c0-1.1797-0.7393-2.1904-1.7793-2.5937v5.1875c1.04-0.4034 1.7793-1.4141 1.7793-2.5938z"/><path fill="#fff" d="m19.904 39.054c0 1.1797 0.7393 2.1904 1.7793 2.5938v-5.1875c-1.04 0.4033-1.7793 1.414-1.7793 2.5937z"/><path fill="#D0CFCE" d="m13.461 39.342c0 4.0913 5.0779 7.9026 9.2223 8.4176v-4.9269c-2.3654-0.4828-3.7793-1.3807-3.7793-3.7793 0-2.3985 1.4139-3.2966 3.7793-3.7794v-4.9268s-4.0828 1.2914-5.5313 1.9847c-1.3174 0.6305-3.691 7.0101-3.691 7.0101z"/><path fill="#D0CFCE" d="m54.114 31.876c-1.5628-1.1186-4.1301-1.4925-4.1301-1.4925l0.2037 5.0282s2.4418 1.3699 2.4418 3.4104c0 1.9308-1.5522 2.962-3.1237 4.0109l-0.3185 5.1634c3.7497-1.3535 9.0277-4.0938 8.5777-9.7128-0.45-5.6189-3.156-6.0533-3.6509-6.4076z"/><path fill="#9B9B9A" d="m22.684 32.665-0.7888-2.3172c-3.7783 0.4922-8.1744 5.1224-6.9174 8.7062 0 0 0.5725-1.6479 1.2564-2.7343 0.6839-1.0865 1.7737-2.2682 2.9748-2.8709 1.3205-0.6625 3.475-0.7838 3.475-0.7838z"/><path fill="#9B9B9A" d="m51.968 47.187c-0.5646 0.2192-2.1616 0.7291-2.781 0.8098l0.3185-5.1634c0.6524-0.1396 1.9366-0.0236 2.4612-0.3997l0.0013 4.7533z"/><path fill="#9B9B9A" d="m56.444 36.458c1.3479-2.0593-4.358-5.7333-7.2568-6.1109v4.4879c0.5391 0.1154 2.0453 0.8634 2.5007 1.1438l0.0621-3.2199s1.3258 0.4776 2.525 1.4021c1.1992 0.9246 2.169 2.297 2.169 2.297z"/><path fill="#9B9B9A" d="m59.982 23.334v-1.2581h-47.982v6.039c0 0.4141-0.2512 0.7688-0.6094 0.9207 0 0 1.823 0.2259 1.823-0.9206v-4.781"/><polygon fill="#9B9B9A" points="61.982 21.076 61.982 21.076"/></g><g id="c" fill="none" stroke="#000" stroke-linecap="round" stroke-linejoin="round" stroke-miterlimit="10" stroke-width="2"><path d="m63.843 54.9h-55.563c-1.6569 0-3-1.3431-3-3v-34.841h61.563v34.841c0 1.6569-1.3432 3-3 3z"/><path d="m22.684 30.348c-4.8083 0-8.7062 3.8979-8.7062 8.7062s3.8979 8.7062 8.7062 8.7062v-17.412z"/><path d="m49.187 47.76c4.8083 0 8.7062-3.8979 8.7062-8.7062s-3.8979-8.7062-8.7062-8.7062v17.412z"/><path d="m22.684 35.274c-2.0873 0-3.7793 1.6921-3.7793 3.7794 0 2.0872 1.692 3.7793 3.7793 3.7793v-7.5587z"/><rect width="17.556" height="13.58" x="27.074" y="31.876"/><polyline points="11 28.115 11 21.076 60.983 21.076 60.983 28.115"/><path d="m49.187 42.833c2.0872 0 3.7793-1.6921 3.7793-3.7793 0-2.0873-1.6921-3.7794-3.7793-3.7794v7.5587z"/><line x1="16.783" x2="56.122" y1="25.812" y2="25.812"/></g></svg>