<?xml version="1.0" encoding="UTF-8"?>
<svg id="a" version="1.1" viewBox="0 0 72 72" xmlns="http://www.w3.org/2000/svg"><g id="b"><circle cx="33.852" cy="37.591" r="4.9999" fill="#D0CFCE"/><path d="m33.852 27.591c-2.1024 0-5.0159 1.4642-6.5495 2.6766 0 0 0.9658 1.2952 0.6406 1.6224-0.3262 0.3271-1.3249 0.369-1.3249 0.369-1.1046 1.4944-2.4297 3.3352-2.4297 5.3321 0 4.9629 4.9985 10.298 9.9614 10.298s9.7021-5.335 9.7021-10.298-5.0371-10-10-10zm1e-4 16c-3.3086 0-6-2.6914-6-6s2.6914-6 6-6 6 2.6914 6 6-2.6914 6-6 6z" fill="#3F3F3F"/><polygon points="11.518 21.918 11.135 21.918 11.135 24.212 12.449 22.683" fill="#fff"/><path d="m57.661 21.918h-0.7301c0.2793 0 0.5516 0.029 0.8155 0.0808l-0.0854-0.0808z" fill="#fff"/><path d="m12.126 32.197h-0.2558l0.0591 0.0396c0.0658-0.0136 0.1269-0.0396 0.1967-0.0396z" fill="#9B9B9A"/><path d="m27.532 31.642-6.1309-3.6932-2.6515 4.7584c2.3713 2.2317 7.42-0.4655 7.8561-0.4137l0.9263-0.6515z" fill="#fff"/><path d="m46.503 33.961c0.1722 0.1404 0.3833 0.236 0.623 0.236h0.0259c-0.2509 0-0.4734-0.101-0.6489-0.2535v0.0175z" fill="#fff"/><polygon points="28.854 32.294 28.854 32.294 28.854 32.292" fill="#fff"/><path d="m29.467 21.918h-4.7056l-2.2791 1.3437 4.3373 6.9754 0.5652 0.7418c1.1349-0.8972 4.6418-2.4049 4.212-2.2579-0.5185 0.1758 2.6106-1.0071 3.8303-1.0071 4.1438 0 6.3852 3.4308 6.3851 3.4308-0.0047-0.0106 1.1873 1.7282 1.1827 1.7177 0 0 3.6809-0.5696 3.5087-0.4292v0.0175c0.1755-0.1525 1.5048 0.4117 1.7557 0.4117l12.088-0.2717-0.9776-8.5374c0-1.1372-30.456-2.1353-29.903-2.1353z" fill="#fff"/><path d="m28.924 31.74c-5e-3 -0.0331-9e-3 -0.0649-0.0174-0.0976 8e-3 0.0323 0.0126 0.0648 0.0174 0.0976z" fill="#fff"/><path d="m28.933 31.929c-0.0017 0.0379-0.0011 0.0759-0.0072 0.1134 6e-3 -0.0379 0.0057-0.075 0.0072-0.1134z" fill="#fff"/><path d="m12.126 32.197c0.1259 0 0.2444 0.0263 0.3543 0.069-0.1094-0.0434-0.2279-0.069-0.3543-0.069z" fill="#fff"/><path d="m12.768 32.445c-0.0387-0.0346-0.086-0.0561-0.1298-0.0842 0.0438 0.0276 0.0909 0.0501 0.1298 0.0842z" fill="#fff"/><path d="m16.561 32.672-0.7721-5.4771-4.654 1.8031v4.1286h0.0051c0.0332-0.4485 0.4583 0.6813 0.8863 0.5908l2.6792-0.5908s0.54-0.4548 1.8555-0.4546z" fill="#fff"/><path d="m13.126 33.039-0.0369-0.0247c-0.0045-0.0237-0.0183-0.043-0.0243-0.066 0.0155 0.0595 0.0421 0.1144 0.0468 0.1777h0.0144v-0.087z" fill="#fff"/><path d="m12.976 32.707c-0.0144-0.0261-0.035-0.0466-0.0515-0.0712 0.0166 0.0243 0.037 0.0454 0.0515 0.0712z" fill="#fff"/><path d="m59.074 51.738c0.0311-0.0144 1.0036-1.113 1.0002-4.3976-0.0052-5.0782 0-15.018 0-15.018s-13.501-0.1253-12.948-0.1253h-3.6908c0.0046 0.0105 0.0097 0.024 0.0144 0.0346 1e-4 0 0 0 1e-4 1e-4 0.2193 0.3913-0.7686 0.5787-0.5976 0.9975 0 0 1.2496 2.3944 0.9999 5.5663s-2.8919 6.7518-5.5648 8.1018c-2.441 1.2329-2.1896 0.9902-4.9309 0.6931-2.7412-0.2971-4.7834-0.8471-6.2134-2.2769-0.0809-0.0809-1.2041-2.1166-1.7665-3.0153-1.2721-2.033-1.228-3.6201-1.1879-4.7077 0.0457-1.2387 0.796-1.7835 1.0592-2.8015 0.3098-1.1985 1.308-2.4241 1.3705-2.5306 0.0749-0.1277-2.9171-0.0406-6.1038-0.0531l-5.1876-0.0095c-1.3155-2e-4 -2.2012 0.0012-2.2012 0.0012h-1c0.1289 0-0.2778 18.333 0 18.365 0.2867 0.0328 2.462 1.8319 3.9868 1.8497 10.155 0.1187 42.928-0.6584 42.961-0.6741z" fill="#9B9B9A"/><path d="m17.142 37.591s3.5909-9.3438 3.8741-9.4459c0.2841-0.1035 5.8744 2.4323 5.8744 2.4323s-4.5214-7.4033-4.456-7.6641c0.0655-0.2612 7.7379-4.8892 7.7379-4.8892l-8.7435 2.0703c-0.2832 0.0767-0.7378-0.0972-0.7661-0.3907l-1.7091-8.1953-2.691 8.0704c-0.083 0.269-7.9333-2.1364-7.9333-2.1364l5.5443 5.1175c0.208 0.1709-6.1709 7.6712-6.1709 7.6712l7.5566-3.0363c0.1484-0.0806 1.8826 10.396 1.8826 10.396z" fill="#F1B31C"/></g><g id="c" fill="none" stroke="#000" stroke-linecap="round" stroke-linejoin="round" stroke-miterlimit="10" stroke-width="2"><path d="m12.126 33.198v16.004c0 1.6912 1.4076 3.0623 3.1441 3.0623h41.661c1.7365 0 3.1441-1.3711 3.1441-3.0623v-23.221c0-1.6912-1.4076-3.0622-3.1441-3.0622h-27.464"/><line x1="47.152" x2="59.618" y1="33.198" y2="33.198"/><path d="m30.614 28.127c1.0157-0.3475 2.1051-0.5361 3.2386-0.5361 5.5229 0 10 4.4771 10 10 0 5.5228-4.4771 10-10 10-5.5228 0-10-4.4772-10-10 0-1.0285 0.1553-2.0207 0.4436-2.9544"/><circle cx="33.852" cy="37.591" r="5"/><polygon points="13.874 22.56 5.6109 32.172 15.735 26.697 17.075 39.029 21.02 27.719 27.944 31.89 22.435 22.913 31.889 17.4 20.276 20.58 19.234 9.9071 16.107 20.086 5.6109 15.774"/></g></svg>
