<svg xmlns="http://www.w3.org/2000/svg" id="a" version="1.1" viewBox="0 0 72 72"><g id="b"><circle id="c" cx="40.466" cy="54" r="1.95"/></g><g id="d"><polygon fill="#F1B31C" points="37.304 56.926 38.607 53.268 42.405 53.51 42.722 57.928"/><polyline fill="#F1B31C" points="41.562 55.217 42.405 65.992 35.281 64.807 39.065 54.997"/><circle cx="40.466" cy="54" r="2" fill="#FCEA2B"/><polyline fill="#F1B31C" points="41.783 58.045 42.405 65.992 35.281 64.807 38.124 57.437"/></g><g id="e" fill="none" stroke="#000" stroke-linecap="round" stroke-linejoin="round"><polyline stroke-miterlimit="10" stroke-width="2" points="41.783 58.045 42.405 65.992 35.281 64.807 38.124 57.437"/><path stroke-dasharray="0 6.735 0 0 0 0" stroke-width="4" d="m47.61 12.847c1.1383 11.193-2.5564 14.379 7.9682 15.442s0.6967 20.042-13.975 20.042-16.364-10.251-12.19-14.425c4.1738-4.1738-3.1185-6.2607-4.3102-4.1738s-17.903 0.1524-9.9347-10.624 31.304-17.454 32.442-6.2608z"/></g><g id="f"><path id="g" fill="none" stroke="#D22F27" stroke-dasharray="0 6.735 0 0 0 0" stroke-linecap="round" stroke-linejoin="round" stroke-width="4" d="m47.61 12.847c1.1383 11.193-2.5564 14.379 7.9682 15.442s0.6967 20.042-13.975 20.042-16.364-10.251-12.19-14.425c4.1738-4.1738-3.1185-6.2607-4.3102-4.1738s-17.903 0.1524-9.9347-10.624 31.304-17.454 32.442-6.2608z"/></g></svg>