<?xml version="1.0" encoding="UTF-8"?>
<svg id="a" viewBox="0 0 72 72" xmlns="http://www.w3.org/2000/svg"><g id="b" stroke-linecap="round" stroke-linejoin="round" stroke-miterlimit="10" stroke-width="2"><path d="m49.789 60h-27.578c-0.4616 0-0.8357-0.3741-0.8357-0.8357v-46.8c0-0.4616 0.3741-0.8357 0.8357-0.8357h27.578c0.4616 0 0.8357 0.3741 0.8357 0.8357v46.8c0 0.4616-0.3741 0.8357-0.8357 0.8357z" fill="#9b9b9a"/><path d="m46.057 51.84h-20.114c-0.4459 0-0.8074-0.3614-0.8074-0.8074v-33.485c0-0.4459 0.3614-0.8074 0.8074-0.8074h20.114c0.4459 0 0.8074 0.3614 0.8074 0.8074v33.485c0 0.4459-0.3614 0.8074-0.8073 0.8074z" fill="#d0cfce"/><polygon points="31.821 14.233 40.179 14.233 40.179 14.233" fill="#fff"/></g><g id="c"><polyline points="60.998 12 54.999 20 60.998 28 54.999 35.999 55.006 35.998 61 44 54.997 51.997 60.991 60" fill="none" stroke="#000" stroke-linecap="round" stroke-linejoin="round" stroke-miterlimit="10" stroke-width="2"/><polyline points="10.999 60 16.998 52 10.999 44 16.998 36.001 16.991 36.002 10.997 28 17 20.003 11.006 12" fill="none" stroke="#000" stroke-linecap="round" stroke-linejoin="round" stroke-miterlimit="10" stroke-width="2"/><path d="m49.789 60h-27.578c-0.4616 0-0.8357-0.3741-0.8357-0.8357v-46.8c0-0.4616 0.3741-0.8357 0.8357-0.8357h27.578c0.4616 0 0.8357 0.3741 0.8357 0.8357v46.8c0 0.4616-0.3741 0.8357-0.8357 0.8357z" fill="none" stroke="#000" stroke-linecap="round" stroke-linejoin="round" stroke-miterlimit="10" stroke-width="2"/><path d="m46.057 51.84h-20.114c-0.4459 0-0.8074-0.3614-0.8074-0.8074v-33.485c0-0.4459 0.3614-0.8074 0.8074-0.8074h20.114c0.4459 0 0.8074 0.3614 0.8074 0.8074v33.485c0 0.4459-0.3614 0.8074-0.8073 0.8074z" fill="none" stroke="#000" stroke-linecap="round" stroke-linejoin="round" stroke-miterlimit="10" stroke-width="2"/><circle cx="36" cy="56.018" r="1.6714"/><polygon points="31.821 14.233 40.179 14.233 40.179 14.233" fill="none" stroke="#000" stroke-linecap="round" stroke-linejoin="round" stroke-miterlimit="10" stroke-width="2"/></g></svg>
