<?xml version="1.0" encoding="UTF-8"?>
<svg id="a" viewBox="0 0 72 72" xmlns="http://www.w3.org/2000/svg"><g id="b"><polygon points="55.281 53.184 56.842 53.183 56.842 53.18" fill="#D0CFCE"/><path d="m56.927 51.183-0.0868-18.976c6e-4 0-3.5428 2e-3 -6.0229 0.0034l0.0839-9.2465s-11.988 0.852-11.988 0.2998l-0.3192-2.7549-23.302 0.2012-0.1605 35.427 35.47-0.1364 0.0255-2.8145 5.7991-6e-3c-0.5485-0.0028 0.5009-1.9971 0.5009-1.9971z" fill="#D0CFCE"/><polygon points="62.588 24.313 54.32 11.442 51.399 16.844 42.88 23.264 50.137 23.764 51.003 30.318 56.8 25.742 56.8 25.742" fill="#3F3F3F"/><path d="m45.302 49.797v-17.276c0-1.2146-0.9887-2.2032-2.2032-2.2032h-19.393v21.683h19.393c1.2145 0 2.2032-0.9887 2.2032-2.2032z" fill="#9B9B9A"/><circle cx="34.259" cy="43.337" r="4.9996" fill="#D0CFCE"/><rect x="11.838" y="20.597" width="3.453" height="18.74" fill="#3F3F3F"/></g><g id="c" fill="none" stroke="#000" stroke-linecap="round" stroke-linejoin="round" stroke-miterlimit="10" stroke-width="2"><line x1="57.577" x2="51.003" y1="25.129" y2="30.318"/><line x1="43.898" x2="51.011" y1="22.964" y2="17.562"/><polygon points="51.011 17.573 57.592 25.129 62.588 24.313 54.32 11.442"/><polyline points="15.291 39.425 15.291 55.976 50.601 55.976 50.601 23.264 38.594 23.264 38.594 20.509 15.521 20.509"/><polyline points="54.779 33.213 56.842 33.207 56.842 52.18 54.779 52.185"/><path d="m42.305 52h-18.604v-21.682h18.604c1.6569 0 3 1.3431 3 3v15.682c0 1.6569-1.3431 3-3 3z"/><circle cx="34.258" cy="43.337" r="5"/><rect x="11.666" y="20.509" width="3.6255" height="18.916"/></g></svg>
