<?xml version="1.0" encoding="UTF-8"?>
<svg id="a" viewBox="0 0 72 72" xmlns="http://www.w3.org/2000/svg"><g id="b"><path d="M5.2629,15.7371L4.5,56.0004h62.1729L67,16L5.2629,15.7371z" fill="#9B9B9A"/><rect x="9" y="20" width="54" height="26" fill="#3F3F3F"/><polygon points="63 46 63 20 48.326 19.676 57.228 45.736" fill="#fff"/><path d="m34.272 60.958-0.2095 5.894 4.5437 0.1057 0.1946-6.6887s-0.8534-1.3007-0.3007-1.3007h-4c0.5527 0-0.2281 1.9897-0.2281 1.9897z" fill="#9B9B9A"/></g><g id="c"><rect x="5" y="16" width="62" height="40" fill="none" stroke="#000" stroke-linecap="round" stroke-linejoin="round" stroke-miterlimit="10" stroke-width="2"/><line x1="50.923" x2="22.077" y1="66.852" y2="66.852" stroke="#000" stroke-linecap="round" stroke-linejoin="round" stroke-miterlimit="10" stroke-width="2"/><circle cx="36.5" cy="51" r="2"/><rect x="9" y="20" width="54" height="26" fill="none" stroke="#000" stroke-linecap="round" stroke-linejoin="round" stroke-miterlimit="10" stroke-width="2"/><line x1="38.5" x2="38.5" y1="59.968" y2="66.354" fill="none" stroke="#000" stroke-linecap="round" stroke-linejoin="round" stroke-miterlimit="10" stroke-width="2"/><line x1="34.5" x2="34.5" y1="59.968" y2="66.354" fill="none" stroke="#000" stroke-linecap="round" stroke-linejoin="round" stroke-miterlimit="10" stroke-width="2"/></g></svg>
