<?xml version="1.0" encoding="UTF-8"?>
<svg id="a" viewBox="0 0 72 72" xmlns="http://www.w3.org/2000/svg"><g id="b" stroke-linecap="round" stroke-linejoin="round" stroke-miterlimit="10" stroke-width="2"><path d="m52.5 64.764h-33c-0.5523 0-1-0.4477-1-1v-56c0-0.5523 0.4477-1 1-1h33c0.5523 0 1 0.4477 1 1v56c0 0.5523-0.4477 1-1 1z" fill="#9B9B9A"/><path d="M48.0339,55H23.9661C23.4325,55,23,54.5675,23,54.0339V13.9661C23,13.4325,23.4325,13,23.9661,13h24.0678 C48.5675,13,49,13.4325,49,13.9661v40.0678C49,54.5675,48.5675,55,48.0339,55z" fill="#D0CFCE"/><polygon points="31 10 41 10 41 10" fill="#fff"/></g><g id="c" stroke="#000" stroke-miterlimit="10"><path d="m52.5 64.764h-33c-0.5523 0-1-0.4477-1-1v-56c0-0.5523 0.4477-1 1-1h33c0.5523 0 1 0.4477 1 1v56c0 0.5523-0.4477 1-1 1z" fill="none" stroke-linecap="round" stroke-linejoin="round" stroke-width="2"/><path d="M48.0339,55H23.9661C23.4325,55,23,54.5675,23,54.0339V13.9661C23,13.4325,23.4325,13,23.9661,13h24.0678 C48.5675,13,49,13.4325,49,13.9661v40.0678C49,54.5675,48.5675,55,48.0339,55z" fill="none" stroke-linecap="round" stroke-linejoin="round" stroke-width="2"/><circle cx="36" cy="60" r="2"/><polygon points="31 10 41 10 41 10" fill="none" stroke-linecap="round" stroke-linejoin="round" stroke-width="2"/></g></svg>
