<?xml version="1.0" encoding="UTF-8"?>
<svg id="a" viewBox="0 0 72 72" xmlns="http://www.w3.org/2000/svg"><g id="b"><path d="m42.639 31.864-12.371-0.3152-13.872 11.159 0.4431 13.244 32.533 0.0479 0.4484-5.8634-6.675-0.0927c-0.5527 0-0.5058-18.18-0.5058-18.18z" fill="#D0CFCE"/><rect x="47.946" y="40.226" width="7.0661" height="4.5557" fill="#D0CFCE"/><polygon points="47.943 44.069 48.05 46.494 54.906 46.494 55.012 44.069" fill="#9B9B9A"/><path d="m61.504 46.225c-0.0163-0.5613-0.0279-1.1624-0.0279-1.8459 0-1.7945 0.065-3.1512 0.1481-4.1536h-6.613v5.8024h6.4847s0.0034 0.0826 0.0081 0.1971z" fill="#D0CFCE"/><path d="m60.572 45.494c-0.0056-0.052-0.0103-0.1144-0.0155-0.1698 0.0053 0.0646 0.0105 0.1227 0.0155 0.1698z" fill="#D0CFCE"/><path d="m55.012 44.069-0.1051 2.4251h6.856c-0.0391-0.3668-0.2797-2.3728-0.2797-2.3728l-6.4712-0.0523z" fill="#9B9B9A"/><path d="m33.644 28.451c0.0036 0.0166 0.0153 0.0285 0.0197 0.0447-0.0312-0.1137-0.042-0.1455-0.0197-0.0447z" fill="#9B9B9A"/><path d="m40.23 28.397c-2e-4 0.0045 3e-4 0.0089 1e-4 0.0135 1e-4 -0.0045-3e-4 -9e-3 -1e-4 -0.0135z" fill="#9B9B9A"/><path d="m47.299 36.646-0.2467 0.0274c0.0081 2e-4 0.0155 0.0038 0.0236 0.0038 0.0744 0 0.1487-0.0138 0.2231-0.0312z" fill="#9B9B9A"/><path d="m53.387 21.428c-2.1435-4.4756-9.7905-6.1631-14.269-4.0185-3.7902 1.8154-5.3156 11.597-5.4545 11.086 0.13 0.4756 0.8648 3.4105 0.8648 3.4105l5.1432 0.1189 2.7164-4.7492c0.4883-0.812 2.268-1.7955 2.8187-1.3907 1.253 0.9214-2.4447 7.2765-2.4447 7.2765l0.8877 3.8894 3.4032-0.3769c-0.4261-0.0105 0.7143-0.9421 1.8901-1.5983 1.7236-0.9639 3.2069-2.5367 4.2757-4.2835 1.7269-2.8225 1.5726-6.4323 0.1683-9.3644z" fill="#9B9B9A"/><path d="m45.767 30.037c-0.0149 7e-3 -0.0302 0.0125-0.0454 0.0186 0.0154-0.0065 0.0303-0.0113 0.0454-0.0186z" fill="#9B9B9A"/><path d="m29.82 32.404c0.1748-0.1367 0.2202-1.4755 0.4429-1.4765l-0.5565-1.7307c0.0545 0.4878-1.0581-0.0869-1.1948-0.6221-0.8066-3.1538-3.2063-5.4551-6.347-6.294-4.7968-1.2827-11.242 0.5723-12.524 5.3668-1.084 4.0605-1.8064 8.3021 1.8938 10.281 0.4873 0.2607 1.6981 1.9863 1.4374 2.4736-0.1797 0.3369 1.699 1.1928 1.3416 1.1928l1.6029 0.5333c0.063-0.1731 0.7732 1.1737 0.9221 1.0566l5.5177-4.7492-3.1692-3.2331-0.4974-0.3296c-0.6143-0.7217-1.1222-1.0329-0.9992-2.0036 0.0967-0.7667 0.0609-1.1753 0.6195-1.5689 1.2744-0.8935 1.7364-0.7536 2.8497 0.5579l1.0812 0.8509c0.0157 0.0174 0.4983 0.8929 0.5126 0.911-1e-4 -2e-4 2.8677 1.9541 2.8677 1.9541l4.1987-3.1699z" fill="#9B9B9A"/><path d="m23.528 33.006c-0.5374-0.086-0.4709-0.4919-0.863-0.1374-0.4092 0.3721-0.3022 0.3185-0.6723-0.0897l-1.1997-1.1322c-0.4659-0.5488-2.3953-0.1518-2.4207 0.0445-0.0518 0.4092-0.2705 1.6342 0 1.9526l0.2098 1.558c0.3427 0.4336 1.0781 0.6189 0.6455 0.9617-0.1846 0.1455-0.1927 0.7569-0.39 0.5079l2.0237 2.3191 4.775-3.7469-2.1083-2.2376z" fill="#D0CFCE"/><path d="m42.639 31.864 1.0028 1.4762 2.4474-3.5369s-3e-4 -5e-3 -3e-4 -0.0052c-0.1923 0.2162 0.964-3.5686-1.1614-4.1405-2.1253-0.5718-4.7971 2.8435-4.6277 2.4111l-1.6134 2.8159v0.9794c0.2725 0.0029 3.9516-0.2656 3.9526 0z" fill="#D0CFCE"/><polygon points="40.646 27.464 40.646 27.464 40.646 27.464" fill="#D0CFCE"/><line x1="21.956" x2="34.263" y1="43.993" y2="43.993" fill="#d0cfce" stroke-linecap="round" stroke-linejoin="round" stroke-miterlimit="10" stroke-width="2"/><line x1="21.956" x2="34.263" y1="47.993" y2="47.993" fill="#d0cfce" stroke-linecap="round" stroke-linejoin="round" stroke-miterlimit="10" stroke-width="2"/><line x1="21.956" x2="34.263" y1="51.993" y2="51.993" fill="#d0cfce" stroke-linecap="round" stroke-linejoin="round" stroke-miterlimit="10" stroke-width="2"/><line x1="21.956" x2="34.263" y1="43.993" y2="43.993" fill="#d0cfce" stroke-linecap="round" stroke-linejoin="round" stroke-miterlimit="10" stroke-width="2"/><line x1="21.956" x2="34.263" y1="47.993" y2="47.993" fill="#d0cfce" stroke-linecap="round" stroke-linejoin="round" stroke-miterlimit="10" stroke-width="2"/><line x1="21.956" x2="34.263" y1="51.993" y2="51.993" fill="#d0cfce" stroke-linecap="round" stroke-linejoin="round" stroke-miterlimit="10" stroke-width="2"/></g><g id="c" fill="none" stroke="#000" stroke-linecap="round" stroke-linejoin="round" stroke-miterlimit="10" stroke-width="2"><path d="m45.346 29.138 0.3297-0.5876c0.6377-1.0595 0.444-2.2743-0.3788-2.879-0.8227-0.6047-2.2838-0.09-2.9215 0.9694l-1.1633 1.7874"/><line x1="48.608" x2="47.639" y1="21.428" y2="22.454"/><line x1="41.647" x2="42.528" y1="20.457" y2="21.712"/><line x1="46.898" x2="46.943" y1="32.025" y2="32.186"/><line x1="37.646" x2="38.845" y1="25.526" y2="25.789"/><line x1="50.652" x2="49.364" y1="27.953" y2="27.51"/><line x1="21.956" x2="34.263" y1="43.993" y2="43.993"/><line x1="21.956" x2="34.263" y1="47.993" y2="47.993"/><line x1="21.956" x2="34.263" y1="51.993" y2="51.993"/><line x1="21.956" x2="34.263" y1="43.993" y2="43.993"/><line x1="21.956" x2="34.263" y1="47.993" y2="47.993"/><line x1="21.956" x2="34.263" y1="51.993" y2="51.993"/><polygon points="42.678 50.343 42.678 44.733 42.665 44.733 42.639 31.864 30.268 31.928 16.838 42.465 16.838 55.952 41.706 55.952 42.678 55.952 49.323 55.952 49.323 50.343"/><path d="m61.762 46.494h-6.856v-6.5555h6.856s-0.2947 0.8214-0.2947 3.2778c0 2.4563 0.2947 3.2777 0.2947 3.2777z"/><polyline points="56.059 46.494 48.05 46.494 48.05 39.938 56.059 39.938"/><path d="m14.314 40.595c-4.003-2.1406-6.1592-6.8223-4.937-11.397 1.4254-5.3358 6.9064-8.5057 12.242-7.0803 3.6206 0.9672 6.244 3.8018 7.1111 7.1913"/><path d="m22.753 33.62-1.5938-1.7619c-0.8012-0.9419-2.0144-1.1452-2.8497-0.5579-0.8352 0.5873-0.8128 2.1362-0.0117 3.0781l1.3238 1.6721"/><line x1="18.235" x2="18.385" y1="25.54" y2="26.944"/><line x1="12.972" x2="14.498" y1="30.199" y2="30.344"/><line x1="14.223" x2="15.202" y1="36.534" y2="35.794"/><line x1="24.522" x2="23.348" y1="28.23" y2="28.92"/><path d="m47.077 35.678c0.6124-0.1736 1.3634-0.466 2.4997-1.1004 1.9943-1.1134 2.9915-2.7252 2.9915-2.7252 2.0117-2.8624 2.46-6.6986 0.8411-10.078-2.3858-4.9809-8.3577-7.0847-13.339-4.6989-4.2707 2.0456-6.4262 6.7276-5.4503 11.161"/></g></svg>
