<?xml version="1.0" encoding="UTF-8"?>
<svg id="a" version="1.1" viewBox="0 0 72 72" xmlns="http://www.w3.org/2000/svg"><g id="b"><circle id="c" cx="40.466" cy="54" r="1.95"/></g><g id="d"><polygon points="37.304 56.926 38.607 53.268 42.405 53.51 42.722 57.928" fill="#F1B31C"/><polyline points="41.562 55.217 42.405 65.992 35.281 64.807 39.065 54.997" fill="#F1B31C"/><circle cx="40.466" cy="54" r="2" fill="#FCEA2B"/><polyline points="41.783 58.045 42.405 65.992 35.281 64.807 38.124 57.437" fill="#F1B31C"/></g><g id="e" fill="none" stroke="#000" stroke-linecap="round" stroke-linejoin="round"><polyline points="41.783 58.045 42.405 65.992 35.281 64.807 38.124 57.437" stroke-miterlimit="10" stroke-width="2"/><path d="m47.61 12.847c1.1383 11.193-2.5564 14.379 7.9682 15.442s0.6967 20.042-13.975 20.042-16.364-10.251-12.19-14.425c4.1738-4.1738-3.1185-6.2607-4.3102-4.1738s-17.903 0.1524-9.9347-10.624 31.304-17.454 32.442-6.2608z" stroke-dasharray="0,6.7346,0,0,0,0" stroke-width="4"/></g><g id="f"><path id="g" d="m47.61 12.847c1.1383 11.193-2.5564 14.379 7.9682 15.442s0.6967 20.042-13.975 20.042-16.364-10.251-12.19-14.425c4.1738-4.1738-3.1185-6.2607-4.3102-4.1738s-17.903 0.1524-9.9347-10.624 31.304-17.454 32.442-6.2608z" fill="none" stroke="#D22F27" stroke-dasharray="0,6.7346,0,0,0,0" stroke-linecap="round" stroke-linejoin="round" stroke-width="4"/></g></svg>
