<?xml version="1.0" encoding="UTF-8"?>
<svg id="a" viewBox="0 0 72 72" xmlns="http://www.w3.org/2000/svg"><g id="b"><path d="m58.904 56h2.4417c1.6886 0 2.6542-1.0067 2.6542-2.6635v-42.378h-50.959v13.277" fill="#9B9B9A"/><path d="m59 56h2.3957c1.6569 0 2.6043-1.0067 2.6043-2.6635v-42.378h-50v16.154" fill="#9B9B9A"/><path d="M59,56h2.3957C63.0526,56,64,54.9933,64,53.3365v-0.3782v-42H14" fill="#9B9B9A" stroke-linecap="round" stroke-linejoin="round" stroke-miterlimit="10" stroke-width="2"/><rect x="9" y="16" width="50" height="40" fill="#D0CFCE" stroke-linecap="round" stroke-linejoin="round" stroke-miterlimit="10" stroke-width="2"/></g><g id="c" fill="none" stroke="#000" stroke-linecap="round" stroke-linejoin="round" stroke-miterlimit="10" stroke-width="2"><path d="M59,56h2.3957C63.0526,56,64,54.9933,64,53.3365v-0.3782v-42H14"/><rect x="9" y="16" width="50" height="40"/><rect x="14" y="27.112" width="20.004" height="20.004"/><line x1="14" x2="54" y1="21.999" y2="21.999"/><line x1="39.568" x2="54" y1="28.112" y2="28.112"/><line x1="39.568" x2="54" y1="34.479" y2="34.479"/><line x1="39.568" x2="54" y1="40.846" y2="40.846"/><line x1="39.568" x2="54" y1="47.213" y2="47.213"/></g></svg>
