<?xml version="1.0" encoding="UTF-8"?>
<svg id="a" viewBox="0 0 72 72" xmlns="http://www.w3.org/2000/svg"><g id="b"><path d="m59.971 42.798c0-0.5523 0.4477-1 1-1h4.143v-9.183h-4.143c-0.5523 0-1-0.4477-1-1v-7.159h-53.309v25.013h53.309v-6.671" fill="#d0cfce"/><path d="m61.083 32.348c-0.5523 0-1-0.4477-1-1v-7.159h-53.31v25.013h53.313v-6.671c0-0.5523 0.4477-1 1-1h4.143v-9.183h-4.146z" fill="#d0cfce"/><path d="m12.002 45.366h32.239v-17.007h-32.239v17.007z" fill="#b1cc33"/></g><g id="c" fill="none" stroke="#000" stroke-linecap="round" stroke-linejoin="round" stroke-width="2"><path d="m61.081 31.348v-7.159c0-0.5523-0.4477-1-1-1h-53.309c-0.5523 0-1 0.4477-1 1v25.016c0 0.5523 0.4477 1 1 1h53.313c0.5523 0 1-0.4477 1-1v-6.674h5.143v-11.183h-5.147z"/><rect x="11" y="27.36" width="34.239" height="19.007"/></g></svg>
