<svg xmlns="http://www.w3.org/2000/svg" id="a" viewBox="0 0 72 72"><g id="b" stroke-miterlimit="10"><path fill="#d0cfce" stroke="#d0cfce" stroke-linecap="round" stroke-linejoin="round" stroke-width="2" d="m33.77 47.413 16.436 13.128-1e-3 -49.166-16.435 13.346"/><line x1="33.715" x2="33.715" y1="24.801" y2="46.051" fill="#d0cfce" stroke="#d0cfce" stroke-linecap="round" stroke-linejoin="round" stroke-width="2"/><path fill="#9b9b9a" stroke="#9b9b9a" stroke-width="1.938" d="m32.793 24.721h-11.937c-1.554 5e-3 -2.8125 1.3452-2.8172 3v16.692c0.0047 1.6548 1.2632 2.995 2.8172 3h11.937"/></g><g id="c" fill="none" stroke="#000" stroke-linecap="round" stroke-linejoin="round" stroke-width="2"><path d="m50.22 45.488-7e-4 -34.113-16.435 13.346h-4.1277"/><path d="m20.229 24.843c-1.2445 0.3664-2.1535 1.5155-2.1576 2.8778v16.692c5e-3 1.6548 1.3452 2.995 3 3h12.712l16.436 13.128-1e-4 -5.659"/><line x1="33.784" x2="33.784" y1="25.333" y2="29"/><line x1="33.784" x2="33.784" y1="39" y2="47.051"/><line x1="11.605" x2="60.105" y1="11.782" y2="60.282"/></g></svg>