<?xml version="1.0" encoding="UTF-8"?>
<svg id="a" viewBox="0 0 72 72" xmlns="http://www.w3.org/2000/svg"><g id="b"><ellipse transform="matrix(.5379 -.843 .843 .5379 -1.1578 48.839)" cx="43.971" cy="25.476" rx="11.166" ry="11.166" fill="#fff"/><path d="m53.44 31.846c1.461-2.289 2.284-6.5149 1.6981-9.1673-0.4014-1.8161-2.6553-3.8396-3.8988-5.1585 0.6487 2.3544 1.0384 7.3509-2.1852 11.972-2.7358 3.9212-6.6908 5.6353-8.9477 6.0576 4.2488 1.2831 10.831 0.2175 13.334-3.7034z" fill="#92D3F5"/><path d="m51.777 13.241c-3.2684-2.0837-7.1512-2.7717-10.937-1.9372-3.785 0.8366-7.0182 3.097-9.1041 6.3645-4.3036 6.746-2.3176 15.737 4.4283 20.042 6.745 4.3047 15.735 2.3197 20.042-4.4273 2.0849-3.2675 2.7728-7.1524 1.9362-10.937-0.8366-3.7851-3.096-7.0182-6.3646-9.1041zm1.8363 18.388c-2.1788 3.4147-5.8819 5.2814-9.6611 5.2814-2.1045 9e-4 -4.2319-0.5785-6.1343-1.7924-5.3172-3.3926-6.8818-10.479-3.4892-15.795 1.6436-2.5754 4.1915-4.3576 7.1747-5.0159 2.9841-0.6584 6.0444-0.1176 8.6208 1.5269 2.5755 1.6426 4.3567 4.1905 5.016 7.1747 0.6593 2.9831 0.1166 6.0443-1.5269 8.6207z" fill="#D0CFCE"/><path d="m31.443 40.265-6.918 10.335-3.7106 5.8155c-0.4778 0.75 0.3797 3.2105 1.1294 3.6888 0.3613 0.2305 2.5325 0.011 2.5325 0.011l11.524-17.192-4.5571-2.658z" fill="#3F3F3F"/></g><g id="c" fill="none" stroke="#000" stroke-linecap="round" stroke-linejoin="round" stroke-miterlimit="10" stroke-width="2"><ellipse transform="matrix(.5379 -.843 .843 .5379 -1.1578 48.839)" cx="43.971" cy="25.476" rx="14.637" ry="14.637"/><ellipse transform="matrix(.5379 -.843 .843 .5379 -1.1578 48.839)" cx="43.971" cy="25.476" rx="11.166" ry="11.166"/><path d="m31.31 39.966 4.4057 2.811-10.496 16.45c-0.7499 1.1753-2.344 1.4986-3.5606 0.7224-1.2166-0.7763-1.595-2.3582-0.8451-3.5335l10.496-16.45z"/></g></svg>
