<?xml version="1.0" encoding="UTF-8"?>
<svg id="a" viewBox="0 0 72 72" xmlns="http://www.w3.org/2000/svg"><g id="b"><g id="c"><polyline points="37.48 34.315 37.48 52.009 10.561 52.009 10.561 34.315 11.907 34.315 36.134 34.315 37.48 34.315" fill="#fcea2b"/><polygon points="37.48 34.365 23.879 51.878 37.551 51.878" fill="#f1b31c"/><path d="m14.907 33.812c0-6.6518 2.1867-13.686 8.9363-13.686 6.8717 0 9.0737 5.5584 9.3486 13.686" fill="none" stroke="#9b9b9a" stroke-linejoin="round" stroke-width="3.6251"/><polyline points="42.923 41.776 40.042 46.616 34.701 47.873 34.12 42.889 38.097 38.739" fill="#d0cfce" stroke="#d0cfce" stroke-linecap="round" stroke-linejoin="round" stroke-width="1.563"/><path d="m61.439 17.031-2.1873-1.3506-2.16-1.386s-7.1483 5.7268-11.396 11.742a109.02 109.02 0 0 0-7.9309 12.494l2.8285 1.78 2.6586 1.6735a138.85 138.85 0 0 0 10.09-11.134 63.418 63.418 0 0 0 8.0976-13.818z" fill="#9b9b9a"/><path d="m43.3 29.772a60.702 60.702 0 0 0-5.6274 8.6992l2.8285 1.78 2.6586 1.6735a63.869 63.869 0 0 0 7.1763-7.7238z" fill="#3f3f3f"/></g></g><g id="d"><g id="e" fill="none" stroke="#000" stroke-linejoin="round" stroke-width="2"><path d="m13.697 34.307c0-7.5322 2.9241-15.258 10.119-15.258 6.899 0 10.274 6.0553 10.586 15.258"/><polyline points="37.48 50.39 37.48 51.944 10.561 51.944 10.561 34.3 11.907 34.3 36.134 34.3 37.48 34.3" stroke-linecap="round"/><polyline points="41.799 44.313 40.113 46.606 34.701 47.873 34.106 42.825 35.863 40.522" stroke-linecap="round"/><line x1="37.088" x2="35.402" y1="44.702" y2="46.995" stroke-linecap="round"/><path d="m61.439 17.031-2.1873-1.3506-2.16-1.386s-7.1483 5.7268-11.396 11.742a109.02 109.02 0 0 0-7.9309 12.494l2.8285 1.78 2.6586 1.6735a138.85 138.85 0 0 0 10.09-11.134 63.418 63.418 0 0 0 8.0976-13.818z" stroke-linecap="round"/><line x1="43.208" x2="50.613" y1="29.643" y2="34.301"/></g></g></svg>
