<svg xmlns="http://www.w3.org/2000/svg" id="a" viewBox="0 0 72 72"><g id="b"><path fill="#9b9b9a" d="m12.079 44.411v-16.694c0-1.1046 0.8955-2 2-2h11.712v20.692h-11.712c-1.1038 0-1.9989-0.8942-2-1.998z"/><path fill="#d0cfce" d="m42.268 58.433-14.5-11.579c0.036-0.0961 0.0566-0.1974 0.061-0.3v-21.25c-0.0055-0.0394-0.0135-0.0785-0.024-0.117l14.459-11.74 4e-3 44.986z"/></g><g id="c" fill="none" stroke="#000" stroke-linecap="round" stroke-width="2"><path stroke-linejoin="round" d="m43.219 11.375-16.435 13.346h-12.712c-1.6548 5e-3 -2.995 1.3452-3 3v16.692c5e-3 1.6548 1.3452 2.995 3 3h12.712l16.436 13.128-1e-3 -49.166z"/><line x1="26.784" x2="26.784" y1="25.333" y2="46.583" stroke-linejoin="round"/><path stroke-miterlimit="10" d="m54.674 24.612c5.0427 6.7235 5.0427 15.968 0 22.692"/><path stroke-miterlimit="10" d="m58.869 19.782c7.1892 9.5856 7.1892 22.766 0 32.351"/></g></svg>