<?xml version="1.0" encoding="UTF-8"?>
<svg id="a" viewBox="0 0 72 72" xmlns="http://www.w3.org/2000/svg"><g id="b"><path d="m30.644 51.106c0.5335-0.1424 1.0815 0.1746 1.224 0.708l1.455 5.449h8.387l1.455-5.426c0.143-0.5334 0.6913-0.85 1.2248-0.7071h2e-4" fill="#9b9b9a"/><path d="m33.013 24.106c-0.5523 0-1-0.4477-1-1v-14.886c0-1.2744-1.0331-2.3075-2.3075-2.3075s-2.3075 1.0331-2.3075 2.3075v14.883c0 0.5523-0.4477 1-1 1" fill="#3F3F3F"/><path d="m49.55 24.106c-0.5523 0-1-0.4477-1-1v-14.886c-1e-3 -1.2741-1.0346-2.3062-2.3088-2.3052-1.2728 1e-3 -2.3043 1.0325-2.3052 2.3052v14.883c0 0.5523-0.4477 1-1 1" fill="#3F3F3F"/><path d="m47.601 24.188h-27.166v10.48c-0.0125 9.4811 7.6634 17.177 17.144 17.19 3.5425 0.0047 6.9998-1.0868 9.8976-3.1245 0.5929-8.1696 0.6343-16.37 0.124-24.545z" fill="#d0cfce"/><path d="m47.601 24.188c0.5104 8.1755 0.469 16.376-0.124 24.546 4.5953-3.2095 7.3349-8.4598 7.339-14.065v-10.48l-7.215-1e-3z" fill="#9b9b9a"/><path d="m41.657 67.096c-0.5523 0-1-0.4477-1-1v-7.083h-6.063v7.083c0 0.5523-0.4477 1-1 1" fill="#d0cfce"/></g><g id="c" fill="none" stroke="#000" stroke-linecap="round" stroke-width="2"><path d="m33.013 23.092v-14.882c0-1.8264-1.4806-3.307-3.307-3.307s-3.307 1.4806-3.307 3.307v14.883" stroke-miterlimit="10"/><path d="m49.55 23.092v-14.882c0-1.8264-1.4806-3.307-3.307-3.307s-3.307 1.4806-3.307 3.307v14.883" stroke-miterlimit="10"/><path d="m19.435 23.188v11.48c0 10.046 8.1439 18.19 18.19 18.19s18.19-8.144 18.19-18.19v-11.48h-36.38z" stroke-linejoin="round"/><polyline points="31.011 51.81 32.665 58 42.586 58 44.24 51.834" stroke-linejoin="round"/><polyline points="33.618 66.084 33.618 58 41.681 58 41.681 66.084" stroke-linejoin="round"/></g></svg>
