<svg xmlns="http://www.w3.org/2000/svg" id="a" viewBox="0 0 72 72"><g id="b" fill="#92d3f5"><path d="M26.6754,17,34.89,26.4517H28.866l.2365,25.0865s-.7468,6.7212,7.468,2.24l1.4936,2.9872c-13.4424,7.468-13.4424-5.9743-13.4424-5.9743l-.1369-24.34H18.4606L26.6754,17"/><path d="m44.785 59.025-8.2147-9.4517h6.0241l-0.2365-25.087s0.7468-6.7212-7.4679-2.24l-1.4936-2.9872c13.442-7.4679 13.442 5.9744 13.442 5.9744l0.1369 24.34h6.0242l-8.2148 9.4517"/></g><g id="c" fill="none" stroke="#000" stroke-linecap="round" stroke-linejoin="round" stroke-width="2"><path d="M26.6754,17,34.89,26.4517H28.866l.2365,25.0865s-.7468,6.7212,7.468,2.24l1.4936,2.9872c-13.4424,7.468-13.4424-5.9743-13.4424-5.9743l-.1369-24.34H18.4606L26.6754,17"/><path d="m44.785 59.025-8.2147-9.4517h6.0241l-0.2365-25.087s0.7468-6.7212-7.4679-2.24l-1.4936-2.9872c13.442-7.4679 13.442 5.9744 13.442 5.9744l0.1369 24.34h6.0242l-8.2148 9.4517"/></g></svg>