<svg xmlns="http://www.w3.org/2000/svg" id="a" viewBox="0 0 72 72"><g id="b" fill="#3F3F3F" stroke-linecap="round" stroke-linejoin="round" stroke-miterlimit="10" stroke-width="2"><path d="m20.771 30.421-3.7092 4.0991c0.6829-7.7072 5.6421-14.355 12.963-17.013 2.1314-0.774 4.3519-1.1663 6.5997-1.1663 5.4828 0 10.76 2.375 14.478 6.5161l0.61 0.6795 3.8565-3.6084-0.61-0.6795c-4.7054-5.2418-11.386-8.2481-18.33-8.2481-2.8472 0-5.6591 0.4963-8.3556 1.4755-9.2075 3.3435-15.56 11.828-16.432 21.584l-3.2914-3.638-3.344 3.1165 9.4546 10.45 9.4537-10.449-3.342-3.1174z"/><path d="m67 38.347-9.4546-10.45-9.4537 10.449 3.3421 3.1174 3.6932-4.0815c-0.6491 7.749-5.6209 14.442-12.973 17.112-2.1306 0.7731-4.3501 1.1654-6.5997 1.1654-5.4828 0-10.76-2.375-14.478-6.5157l-0.61-0.6795-3.8565 3.6079 0.61 0.6795c4.7045 5.2415 11.386 8.2482 18.33 8.2482 2.8481 0 5.6591-0.4968 8.3556-1.475 9.2481-3.3574 15.619-11.902 16.446-21.712l3.3032 3.6511 3.344-3.1166z"/></g><g id="c" fill="none" stroke="#000" stroke-linecap="round" stroke-linejoin="round" stroke-miterlimit="10" stroke-width="2"><path d="m20.771 30.421-3.7092 4.0991c0.6829-7.7072 5.6421-14.355 12.963-17.013 2.1314-0.774 4.3519-1.1663 6.5997-1.1663 5.4828 0 10.76 2.375 14.478 6.5161l0.61 0.6795 3.8565-3.6084-0.61-0.6795c-4.7054-5.2418-11.386-8.2481-18.33-8.2481-2.8472 0-5.6591 0.4963-8.3556 1.4755-9.2075 3.3435-15.56 11.828-16.432 21.584l-3.2914-3.638-3.344 3.1165 9.4546 10.45 9.4537-10.449-3.342-3.1174z"/><path d="m67 38.347-9.4546-10.45-9.4537 10.449 3.3421 3.1174 3.6932-4.0815c-0.6491 7.749-5.6209 14.442-12.973 17.112-2.1306 0.7731-4.3501 1.1654-6.5997 1.1654-5.4828 0-10.76-2.375-14.478-6.5157l-0.61-0.6795-3.8565 3.6079 0.61 0.6795c4.7045 5.2415 11.386 8.2482 18.33 8.2482 2.8481 0 5.6591-0.4968 8.3556-1.475 9.2481-3.3574 15.619-11.902 16.446-21.712l3.3032 3.6511 3.344-3.1166z"/></g></svg>