<?xml version="1.0" encoding="UTF-8"?>
<svg id="a" viewBox="0 0 72 72" xmlns="http://www.w3.org/2000/svg"><g id="b"><ellipse transform="matrix(.8006 -.5992 .5992 .8006 -8.979 22.678)" cx="29.585" cy="24.83" rx="11.166" ry="11.166" fill="#fff"/><path d="M39,19c-1.6269-2.1743-5.3114-4.6131-8-5c-1.841-0.2648-5,0-5.3126,1.4508 c2.432,0.2232,6.261,1.3933,9.4483,6.0391c2.7047,3.9427,2.9098,7.2606,2.5092,9.5215C40,31,41.7867,22.7243,39,19z" fill="#92D3F5"/><path d="m20.717 13.253c-3.1395 2.3517-5.1766 5.7832-5.7372 9.6663-0.5584 3.883 0.4286 7.7514 2.7785 10.893 4.8528 6.4827 14.076 7.8101 20.56 2.9577 6.4832-4.8514 7.8112-14.073 2.9587-20.559-2.3504-3.1402-5.7839-5.1778-9.6668-5.7362-3.883-0.5585-7.751 0.4276-10.893 2.7786zm17.476 5.1351c2.2813 3.0482 2.696 6.924 1.4434 10.248-0.6965 1.8514-1.9113 3.5306-3.6095 4.8016-4.7463 3.5525-11.498 2.58-15.05-2.166-1.7206-2.2992-2.4437-5.1309-2.0341-7.9731 0.41-2.8429 1.8999-5.3554 4.2002-7.0765 2.2984-1.721 5.1298-2.4433 7.9731-2.0341 2.8424 0.4087 5.3551 1.9007 7.0765 4.2001z" fill="#D0CFCE"/><path d="m39 42 10 14s3 4 5 2 0-5 0-5l-11-14-4 3z" fill="#3F3F3F"/></g><g id="c" fill="none" stroke="#000" stroke-linecap="round" stroke-linejoin="round" stroke-miterlimit="10" stroke-width="2"><ellipse transform="matrix(.8006 -.5992 .5992 .8006 -8.979 22.678)" cx="29.585" cy="24.83" rx="14.637" ry="14.637"/><ellipse transform="matrix(.8006 -.5992 .5992 .8006 -8.979 22.678)" cx="29.585" cy="24.83" rx="11.166" ry="11.166"/><path d="m38.68 41.788 4.1839-3.1316 11.693 15.622c0.8354 1.1162 0.5758 2.7219-0.5795 3.5867-1.1554 0.8647-2.7691 0.661-3.6045-0.4551l-11.693-15.622z"/></g></svg>
