<svg xmlns="http://www.w3.org/2000/svg" id="a" viewBox="0 0 72 72"><g id="b"><path fill="#F4AA41" d="m33.536 31.991c-1.4016-4.2877-0.2247-9.41 3.4285-13.063 5.018-5.018 12.808-5.3639 17.399-0.7727s4.2452 12.381-0.7728 17.399c-4.057 4.057-10.435 5.5131-14.268 2.5888"/><polyline fill="#F4AA41" stroke="#F4AA41" stroke-linecap="round" stroke-linejoin="round" stroke-miterlimit="10" stroke-width="2" points="33.652 31.736 31.218 34.187 14.644 50.514 14.644 57.66 22.043 57.66 22.043 53.084 27.054 53.084 27.054 47.302 32.04 47.302 34.391 44.929 34.391 40.627 36.362 40.627 39.452 37.537"/><polygon fill="#E27022" points="15.985 53.346 15.986 51.439 31.898 35.874 32.85 36.848"/><circle cx="48.52" cy="23.998" r="3.952" fill="#E27022"/></g><g id="c" fill="none" stroke="#000" stroke-linecap="round" stroke-linejoin="round" stroke-miterlimit="10" stroke-width="2"><polyline points="30.735 34.656 14.303 50.681 14.303 57.921 21.868 57.921 21.868 53.284 26.993 53.284 26.993 47.427 32.091 47.427 34.496 45.023 34.496 40.665 36.511 40.665"/><circle cx="48.52" cy="23.998" r="3.952"/><path d="m34.226 31.178c-1.4298-4.2383-0.3466-9.2209 3.1804-12.695 4.8446-4.7715 12.465-4.8894 17.022-0.2634s4.3223 12.244-0.5223 17.016c-3.9169 3.8577-9.6484 4.6736-14.108 2.3998"/></g></svg>