<svg xmlns="http://www.w3.org/2000/svg" id="a" viewBox="0 0 72 72"><g id="b"><path fill="#D0CFCE" stroke="#D0CFCE" stroke-linecap="round" stroke-linejoin="round" stroke-miterlimit="10" stroke-width="2" d="m14.196 35.652c-0.2003-7.666 5.5788-16.384 12.452-16.6 6.9307-0.218 14.415 10.252 12.41 17.174h-3.1826s0.7894-7.1326-2.2339-10.144c-1.5425-1.5365-4.5505-4.3006-7.4804-3.869-1.9766 0.2912-6.3916 2.8073-7.3105 4.5813-1.0274 1.9835-1.1693 8.8584-1.1693 8.8584h-3.4848z"/><polygon fill="#FCEA2B" points="41.698 36.361 43.328 36.361 43.328 59.732 10.283 59.732 10.283 36.361 11.913 36.361"/><polygon fill="#F1B31C" points="42.942 36.532 26.619 59.578 43.409 59.578"/><path fill="#F4AA41" d="m55.94 32.583c3.5838-1.818 6.0691-5.786 6.0691-10.388 0-6.3218-4.689-11.447-10.473-11.447s-10.473 5.1249-10.473 11.447c0 5.1112 3.1002 10.046 7.3573 10.619"/><polyline fill="#F4AA41" stroke="#F4AA41" stroke-linecap="round" stroke-linejoin="round" stroke-miterlimit="10" stroke-width="2" points="56.027 32.349 56.016 35.426 56.172 56.151 51.67 60.652 47.01 55.992 49.893 53.109 46.736 49.952 50.377 46.31 47.237 43.17 47.251 40.194 49.96 37.484 48.719 36.243 48.719 32.349"/><polygon fill="#E27022" points="53.544 57.09 54.744 55.888 54.525 36.061 53.311 36.074"/><ellipse cx="51.536" cy="18.109" fill="#E27022" rx="3.521" ry="3.521" transform="matrix(.7071 -.7071 .7071 .7071 2.2893 41.745)"/></g><g id="c" fill="none" stroke="#000" stroke-linecap="round" stroke-linejoin="round" stroke-miterlimit="10" stroke-width="2"><path d="m39.467 33.42c0.5811-8.0338-5.889-14.587-12.82-14.369-6.8728 0.2162-12.452 7.0826-12.452 14.369"/><polygon points="41.698 36.321 43.328 36.321 43.328 59.692 10.283 59.692 10.283 36.321 11.913 36.321"/><path d="m17.825 33.42c0-5.5092 3.979-10.701 8.8809-10.864 4.9432-0.1648 9.5578 4.79 9.1434 10.864"/><polyline points="56.025 36.026 56.282 56.472 51.721 61.032 46.955 56.267 49.876 53.346 46.648 50.118 50.337 46.428 47.126 43.216 47.126 40.187 49.871 37.442 48.602 36.173"/><ellipse cx="51.536" cy="18.109" rx="3.521" ry="3.521" transform="matrix(.7071 -.7071 .7071 .7071 2.2893 41.745)"/><path d="m56.017 31.636c3.5704-1.7692 6.0267-5.5901 5.9932-10-0.0461-6.0573-4.7723-10.932-10.556-10.888-5.784 0.044-10.436 4.9901-10.389 11.048 0.0372 4.8974 3.1337 9.0217 7.3751 10.398"/></g></svg>