<?xml version="1.0" encoding="UTF-8"?>
<svg id="a" viewBox="0 0 72 72" xmlns="http://www.w3.org/2000/svg"><g id="b"><polygon points="53 32.297 54.875 32.297 54.875 59.172 16.875 59.172 16.875 32.297 18.75 32.297" fill="#FCEA2B"/><polygon points="54.43 32.493 35.66 58.994 54.968 58.994" fill="#F1B31C"/><path d="m46.064 31.817 0.2102-2.902c0.4766-6.9852-4.8299-12.683-10.514-12.493-4.6725 0.1558-8.6157 4.2846-9.8282 9.301l-4.0503-0.9026c1.6615-6.6916 7.2189-12.221 13.812-12.428 7.9697-0.2507 15.41 7.2847 14.742 16.523l-0.2425 2.902" fill="#D0CFCE" stroke="#D0CFCE" stroke-linejoin="round" stroke-miterlimit="10" stroke-width="2"/></g><g id="c" fill="none" stroke="#000" stroke-linecap="round" stroke-linejoin="round" stroke-miterlimit="10" stroke-width="2"><polygon points="53 32.25 54.875 32.25 54.875 59.125 16.875 59.125 16.875 32.25 18.75 32.25"/><path d="m46.274 28.915c0.4766-6.9852-4.8299-12.683-10.514-12.493-4.6725 0.1558-8.6157 4.2846-9.8282 9.301l-4.0503-0.9026c1.6615-6.6916 7.2189-12.221 13.812-12.428 7.9697-0.2507 15.41 7.2847 14.742 16.523"/></g></svg>
