<svg xmlns="http://www.w3.org/2000/svg" id="a" viewBox="0 0 72 72"><g id="b" stroke-miterlimit="10" stroke-width="2"><circle cx="35.61" cy="57.772" r="5" fill="#f1b31c" stroke="#f1b31c"/><path fill="#fcea2b" stroke="#fcea2b" stroke-linecap="round" stroke-linejoin="round" d="m56.105 56.782s-2.0587-3.7664-3.254-9.5855c-1.3523-6.5836-1.8795-15.515-2.246-19.414-0.7752-8.2479-6.7157-15-15-15h-0.5c-8.2843 0-14.225 6.7521-15 15-0.3665 3.8999-0.8937 12.831-2.246 19.414-1.1953 5.8191-3.254 9.5855-3.254 9.5855h41.5z"/></g><g id="c" fill="none" stroke="#000" stroke-linecap="round" stroke-linejoin="round" stroke-width="2"><path d="m30.105 13.282c0-2.7614 2.2386-5 5-5s5 2.2386 5 5"/><path d="m40.087 60c-0.8174 1.6487-2.5176 2.782-4.4824 2.782-1.9659 0-3.6667-1.1345-4.4836-2.7845"/><path stroke-miterlimit="10" d="m53.464 49.77c-0.2181-0.8032-0.4261-1.6631-0.6131-2.5733-1.3523-6.5836-1.8795-15.515-2.246-19.414-0.7752-8.2479-6.7157-15-15-15h-0.5c-4.9448 0-9.0546 2.4056-11.729 6.0991"/><path stroke-miterlimit="10" d="m20.258 26.564c-0.0638 0.402-0.1151 0.8084-0.1536 1.2184-0.3665 3.8999-0.8937 12.831-2.246 19.414-1.1953 5.8191-3.254 9.5855-3.254 9.5855h35.5"/><line x1="11.605" x2="59.105" y1="12.782" y2="60.282"/></g></svg>