<svg xmlns="http://www.w3.org/2000/svg" id="a" viewBox="0 0 72 72"><g id="b"><path fill="#D0CFCE" stroke="#D0CFCE" stroke-linecap="round" stroke-linejoin="round" stroke-miterlimit="10" stroke-width="2" d="m21.375 31.175c-0.3501-8.7708 6.4491-18.54 14.387-18.779 8.0047-0.2419 16.541 10.97 14.333 19.052h-4.0394s1.5619-7.922-2.2164-11.254c-1.8494-1.6307-5.2556-4.771-8.6396-4.2922-2.2829 0.323-6.8677 3.4518-7.9271 5.4209-2.0643 3.8367-1.7248 9.8169-1.7248 9.8169l-4.1727 0.0353z"/><polygon fill="#FCEA2B" points="53 32.297 54.875 32.297 54.875 59.172 16.875 59.172 16.875 32.297 18.75 32.297"/><polygon fill="#F1B31C" points="54.43 32.493 35.66 58.994 54.968 58.994"/></g><g id="c" fill="none" stroke="#000" stroke-linecap="round" stroke-linejoin="round" stroke-miterlimit="10" stroke-width="2"><polygon points="53 32.25 54.875 32.25 54.875 59.125 16.875 59.125 16.875 32.25 18.75 32.25"/><path d="m21.375 28.915c0-8.3786 6.4151-16.274 14.318-16.523 7.9697-0.2507 15.41 7.2847 14.742 16.523"/><path d="m25.548 28.915c0-6.3352 4.5755-12.305 10.212-12.493 5.6843-0.1896 10.991 5.5081 10.514 12.493"/></g></svg>