<svg xmlns="http://www.w3.org/2000/svg" id="a" viewBox="0 0 72 72"><g id="b"><polyline fill="#3f3f3f" points="35.991 14 23 28.516 32.527 28.516 32.69 40 39.483 40 39.456 28.516 48.982 28.516 35.991 14"/></g><g id="c" fill="none" stroke="#000" stroke-linecap="round" stroke-linejoin="round" stroke-width="2"><polyline points="35.991 14 23 28.516 32.527 28.516 32.69 40 39.483 40 39.456 28.516 48.982 28.516 35.991 14"/><path d="m36.33 55.47a3.5714 3.5714 0 0 1-3.5714-3.5714v-2.8573a3.5714 3.5714 0 0 1 3.5714-3.5713 3.5714 3.5714 0 0 1 3.5714 3.5714v2.8572a3.5714 3.5714 0 0 1-3.5714 3.5714z"/><line x1="24.143" x2="29.857" y1="45.5" y2="45.5"/><line x1="27" x2="27" y1="45.5" y2="55.5"/><path d="m43.142 55.47v-10h3.8132a2.49 2.49 0 0 1 2.4905 2.4907 2.49 2.49 0 0 1-2.4905 2.4906h-3.8132"/></g></svg>