<?xml version="1.0" encoding="UTF-8"?>
<svg id="a" viewBox="0 0 72 72" xmlns="http://www.w3.org/2000/svg"><g id="b"><path d="m36 8.1661c-3.149 0-4.9948 1.9679-7 4-1.8633 1.8883-4 3.7366-4 6.5405v17.919c0 2.6406 1.3256 4.6911 3 6.5405 2.0169 2.2277 4.6806 4 8 4 6.0751 0 11-4.7192 11-10.54v-17.919c0-2.8667-2.0623-5.6404-4-7.5405-1.9973-1.9586-3.9165-3-7-3zm4 27.37c0 2.5569-1.7909 4.6296-4 4.6296-1.1563 0-2.0027-0.3975-3-1-1.2121-0.7323-1.1074-2.3926-1-3.6296v-15.741c0-1.1549-0.6042-2.8187 0-3.6296 0.7335-0.9845 2.7886-1 4-1 1.3009 0 3.2695-0.1131 4 1 0.51 0.7772 0 2.5784 0 3.6296v15.741z" fill="#d0cfce"/><path d="m32.006 35.537c0.1159-2.4366 1.8597-4.3711 3.9939-4.3711 1.2944 0 3.2689 0.8963 4 2 0.5166 0.7799 0 1.5709 0 2.6296v15.741c0 1.173 0.6212 2.8138 0 3.6296-0.733 0.9626-2.8043 1-4 1-1.3246 0-3.272-0.852-4-2-0.4861-0.7666 0-1.6059 0-2.6296v-5.8082c-3-0.4378-7-9.7281-7-9.7281v15.896c0 5.6721 4.9249 10.27 11 10.27s11-4.5982 11-10.27v-17.459c0-5.6722-4.9249-10.27-11-10.27-1.6162 0-3.151 0.3254-4.5333 0.9099l0.5394 10.461z" fill="#9b9b9a"/></g><g id="c" fill="none" stroke="#000" stroke-linecap="round" stroke-linejoin="round" stroke-miterlimit="10" stroke-width="2"><path d="m37.232 41.013c-0.394 0.0998-0.8067 0.1529-1.2318 0.1529-2.7614 0-5-2.2386-5-5v-17c0-2.7614 2.2386-5 5-5s5 2.2386 5 5v3"/><path d="m37.36 46.074c-0.4448 0.0605-0.8988 0.0917-1.3602 0.0917-5.5228 0-10-4.4771-10-10v-17c0-5.5228 4.4772-10 10-10s10 4.4772 10 10v7"/><path d="m34.76 30.321c0.3964-0.1011 0.8117-0.1549 1.2396-0.1549 2.7614 0 5 2.2386 5 5v17c0 2.7614-2.2386 5-5 5s-5-2.2386-5-5v-3"/><path d="m34.749 25.244c0.4097-0.0511 0.8271-0.0774 1.2506-0.0774 5.5228 0 10 4.4772 10 10v17c0 5.5229-4.4772 10-10 10s-10-4.4771-10-10v-6"/></g></svg>
