<svg xmlns="http://www.w3.org/2000/svg" id="a" viewBox="0 0 72 72"><g id="b" stroke-miterlimit="10" stroke-width="2"><path fill="#3F3F3F" stroke="#3F3F3F" d="m24.272 30.108c-3.5449-0.2675-13.737-0.8052-18.656 0 0 0-1.3857 0.7557 0 4.6293 0 0 1.2566 0.5474 3 0.5474 1.491 0 12.87 1.5386 15.656 1.1077"/><path fill="#3F3F3F" stroke-linecap="round" stroke-linejoin="round" d="m20.482 30.108c-3.5449-0.2675-10.947-0.8052-15.867 0 0 0-1.3857 1.7557 0 5.6293 0 0 2.2566-0.4526 4-0.4526 1.491 0 9.4455 1.1901 12.232 0.7592"/><path fill="#D0CFCE" stroke-linecap="round" stroke-linejoin="round" d="m24.272 39.849h9.3437c32 0 31.95-9.7411 31.95-9.7411h-41.294v9.7411"/></g><g id="c" fill="none" stroke="#000" stroke-linecap="round" stroke-linejoin="round" stroke-miterlimit="10" stroke-width="2"><path d="m20.482 30.108c-3.5449-0.2675-10.947-0.8052-15.867 0 0 0-1.3857 1.7557 0 5.6293 0 0 2.2566-0.4526 4-0.4526 1.491 0 9.4455 1.1901 12.232 0.7592"/><path d="m24.272 39.849h9.3437c32 0 31.95-9.7411 31.95-9.7411h-41.294v9.7411"/></g></svg>