<svg xmlns="http://www.w3.org/2000/svg" id="a" viewBox="0 0 72 72"><g id="b"><path fill="#d0cfce" stroke-linejoin="round" stroke-miterlimit="10" stroke-width="2" d="M59.0349,60H12.9651 C12.4343,60,12,59.5657,12,59.0349V12.9651C12,12.4343,12.4343,12,12.9651,12h46.0698C59.5657,12,60,12.4343,60,12.9651v46.0698 C60,59.5657,59.5657,60,59.0349,60z"/></g><g id="c" fill="none" stroke="#000" stroke-linejoin="round" stroke-miterlimit="10" stroke-width="2"><path d="M59.0349,60H12.9651 C12.4343,60,12,59.5657,12,59.0349V12.9651C12,12.4343,12.4343,12,12.9651,12h46.0698C59.5657,12,60,12.4343,60,12.9651v46.0698 C60,59.5657,59.5657,60,59.0349,60z"/><path stroke-linecap="round" d="m47.566 40.871c-0.4413 0.3914-1.022 0.6291-1.6583 0.6291v0c-1.3807 0-2.5-1.1193-2.5-2.5v-2 2-2c0-1.3807 1.1193-2.5 2.5-2.5v0c0.6363 0 1.217 0.2377 1.6583 0.6292"/><path stroke-linecap="round" d="m36.363 41.75v0c1.3807 0 2.5-1.1193 2.5-2.5v-2c0-1.3807-1.1193-2.5-2.5-2.5v0c-1.3807 0-2.5 1.1193-2.5 2.5v2c0 1.3807 1.1193 2.5 2.5 2.5z"/><line x1="33.863" x2="33.863" y1="38.78" y2="29.78" stroke-linecap="round"/><path stroke-linecap="round" d="m23.434 39.958v0c0 0.9895 0.8523 1.7917 1.9036 1.7917h1.5229c1.0513 0 1.9036-0.8022 1.9036-1.7917v0c0-0.9895-0.8523-1.7917-1.9036-1.7917h-1.5229c-1.0513 1e-4 -1.9036 0.8022-1.9036 1.7917z"/><path stroke-linecap="round" d="m23.837 35.521c0.4185-0.5629 1.1625-0.9374 2.0105-0.9374h0.8291c1.3083 0 2.3689 0.8913 2.3689 1.9907v0 5.1759"/></g></svg>