<?xml version="1.0" encoding="UTF-8"?>
<svg id="a" version="1.1" viewBox="0 0 72 72" xmlns="http://www.w3.org/2000/svg"><g id="b"><path d="m50.1 55.5-2.8-2.8c-0.2-0.2-0.5-0.3-0.8-0.3l-23.4-1.9c-0.3 0-1.5 1.3-1.7 1.5l-2.5 2.4" fill="#3F3F3F"/><path d="m19.9 53.4-5.7 5.3c-0.7 0.7 0.5 2.6 1.5 2.6h39.5c1 0 1.5-1.2 0.8-1.9l-8.6-8.2" fill="#3F3F3F"/><circle cx="36" cy="32.8" r="22.2" fill="#B399C8"/><path d="m58.2 33c0 12.3-9.7 22.1-22 22.1 11.6-8 14.8-16.8 14.4-24.5 0-0.3 0-0.5-0.1-0.8-0.2-1.7-0.5-3.4-1.1-5-0.1-0.2-0.1-0.4-0.2-0.6-0.7-2-1.7-3.8-2.7-5.4-0.2-0.3-0.3-0.5-0.5-0.7-0.6-0.9-1.3-1.8-2.1-2.5-0.2-0.2-0.3-0.4-0.5-0.5l-0.6-0.6c-0.2-0.2-0.4-0.3-0.6-0.5l-0.3-0.3c-0.2-0.2-0.4-0.3-0.5-0.4-0.8-0.6-1.7-1.2-2.5-1.6-0.1-0.1-0.3-0.1-0.4-0.2-0.3-0.1-0.7-0.3-1-0.4-0.2-0.1-0.4-0.1-0.5-0.1s-0.2 0-0.3 0-0.2 0-0.3 0h0.1c12.1 0.1 21.7 9.9 21.7 22z" fill="#8967AA"/><path d="m19.4 30.7c0.1-0.5 0.2-1.1 0.3-1.6" fill="none" stroke="#fff" stroke-linecap="round" stroke-linejoin="round" stroke-miterlimit="10" stroke-width="2"/><path d="m21.4 24.6c1.5-2.7 3.6-4.9 6.2-6.4" fill="none" stroke="#fff" stroke-linecap="round" stroke-linejoin="round" stroke-miterlimit="10" stroke-width="2"/><path d="m48.7 50.8c0.1 0 0.2 0.1 0.3 0.2l7.7 7.7c0.7 0.7-0.5 2.6-1.5 2.6h-13v-7.2"/></g><g id="c" fill="none" stroke="#000" stroke-linecap="round" stroke-miterlimit="10" stroke-width="2"><circle cx="36" cy="32.8" r="22.2" stroke-linejoin="round"/><circle cx="36" cy="32.8" r="22.2" stroke-linejoin="round"/><path d="m18 56.6-3 2.8c-0.7 0.7-0.3 1.9 0.8 1.9h39.5c1 0 1.5-1.2 0.8-1.9l-2.8-2.8"/><path d="m53.2 56.6 2.8 2.8c0.7 0.7 0.2 1.9-0.8 1.9" stroke-linejoin="round"/></g></svg>
