<svg xmlns="http://www.w3.org/2000/svg" id="a" viewBox="0 0 72 72"><g id="b"><polygon fill="#a57939" points="37.877 21.43 37.848 43.552 39.05 47.175 39.025 62.881 37.817 62.883 34.193 62.889 32.984 62.891 33.009 47.185 34.223 43.558 34.252 21.436"/><path fill="#9b9b9a" d="m29.704 11.6v9.9h12.728v-5.6576s8.4853 0 11.314 2.8284a15.144 15.144 0 0 0-11.314-7.0708 60.523 60.523 0 0 0-12.728 0z"/><path fill="#d0cfce" d="m25.89 12.478-0.0319 8.02a3.3363 3.3363 0 0 1-3.7013 0.0147l0.0319-8.0195a2.6172 2.6172 0 0 1 3.7013-0.0147z"/></g><g id="c" fill="none" stroke="#000" stroke-linecap="round" stroke-linejoin="round" stroke-width="2"><polygon points="37.877 21.5 37.848 43.552 39.05 47.175 39.025 62.881 37.817 62.883 34.193 62.889 32.984 62.891 33.009 47.185 34.223 43.558 34.252 21.5"/><path d="m29.704 11.6v9.9h12.728v-5.6576s8.4853 0 11.314 2.8284a15.144 15.144 0 0 0-11.314-7.0708 60.523 60.523 0 0 0-12.728 0z"/><path d="m25.89 12.478-0.0319 8.02a3.3363 3.3363 0 0 1-3.7013 0.0147l0.0319-8.0195a2.6172 2.6172 0 0 1 3.7013-0.0147z"/></g></svg>