<svg xmlns="http://www.w3.org/2000/svg" id="a" viewBox="0 0 72 72"><g id="b"><path fill="#3f3f3f" d="m45.669 22.205 3.7465-1.3294c-0.0713 0.0157-0.1426 0.0374-0.2137 0.0374-0.4101 0 2.9722-2.6164 2.9722-2.6164l-3.371-7.7369s-4.1856 1.2874-3.944 0.9896l-3.143 1.6303c0.2373-0.1073 0.4787 1.0578 0.5891 1.3117l2.4753 6.4222c0.1093 0.2534 1.1093 1.1888 0.8886 1.2915z"/><path fill="#9b9b9a" d="m29.095 28.198 3.8277-1.415c-0.0619 0.0172 12.405-5.8087 12.405-5.8087l-3.1999-6.8928s-11.851 4.9053-11.659 4.8081l1.6804-0.8546-5.2261 2.6058 2.1719 7.5572z"/><path fill="#9b9b9a" d="m14.658 27.983 1.7596 3.9323s9.0807-2.4898 8.951-2.4429l-1.1438 0.4143 5.4031-1.8896-2.4411-7.4884-4.0234 2.1377c0.2375-0.0993-8.5054 5.3366-8.5054 5.3366z"/></g><g id="c"><polyline fill="none" stroke="#000" stroke-linecap="round" stroke-linejoin="round" stroke-miterlimit="10" stroke-width="2" points="16.019 56.662 29.149 36.039 31.624 36.039 43.895 56.656"/><line x1="30.462" x2="30.462" y1="36.741" y2="60.257" fill="none" stroke="#000" stroke-linecap="round" stroke-linejoin="round" stroke-miterlimit="10" stroke-width="2"/><line x1="9.748" x2="11.835" y1="32.575" y2="31.712" fill="none" stroke="#000" stroke-linecap="round" stroke-linejoin="round" stroke-miterlimit="10" stroke-width="2"/><polyline fill="none" stroke="#000" stroke-linecap="round" stroke-linejoin="round" stroke-miterlimit="10" stroke-width="2" points="45.633 12.179 48.803 10.56 52.381 18.772 49.202 19.912"/><line x1="26.822" x2="30.353" y1="19.924" y2="31.361" fill="none" stroke="#000" stroke-linecap="round" stroke-linejoin="round" stroke-miterlimit="10" stroke-width="2"/><circle cx="30.353" cy="31.361" r="2"/><polyline fill="none" stroke="#000" stroke-linecap="round" stroke-linejoin="round" stroke-miterlimit="10" stroke-width="2" points="25.028 28.533 16.197 31.732 14.658 28.174 23.546 23.557"/><polyline fill="none" stroke="#000" stroke-linecap="round" stroke-linejoin="round" stroke-miterlimit="10" stroke-width="2" points="30.922 19.781 42.128 14.082 45.255 21.31 32.656 25.829"/></g></svg>