<?xml version="1.0" encoding="UTF-8"?>
<svg id="a" viewBox="0 0 72 72" xmlns="http://www.w3.org/2000/svg"><g id="b"><path d="M34.8755,39.625a.9958.9958,0,0,1-.5176-.1445l-7.6992-4.6592a1.0007,1.0007,0,0,1-.3408-1.3692L37.4351,14.8672a1.0005,1.0005,0,0,1,1.3759-.3423l7.7,4.6592a1.0009,1.0009,0,0,1,.3379,1.3735S40.0034,31.9248,39.7222,32.4l-3.9864,6.7349a.9949.9949,0,0,1-.6172.46A.9813.9813,0,0,1,34.8755,39.625Z" fill="#d0cfce"/><polygon points="42.244 13.68 45.666 15.751 43.622 19.152 40.199 17.081" fill="#3f3f3f"/><rect x="16.976" y="54.983" width="37" height="5" fill="#d0cfce"/><path d="M51.8325,50.9092a1.0037,1.0037,0,0,1-.4629-.1133L47.7749,48.917a1,1,0,0,1-.4873-1.1973l.2451-.75c3.0068-9.1933-1.9766-14.56-5.2148-16.9409a1,1,0,0,1-.2364-1.3642l2.2032-3.2706a.9993.9993,0,0,1,.66-.4272,1.01,1.01,0,0,1,.7647.1831c4.59,3.4067,11.67,11.0142,7.5263,23.6851L52.7827,50.22a1.0012,1.0012,0,0,1-.95.6895Z" fill="#d0cfce"/><circle cx="42.138" cy="26.325" r="3" fill="#3f3f3f"/><path d="m54.959 54.983a8.064 8.064 0 0 0-16.128 0z" fill="#3f3f3f"/></g><g id="c" fill="none" stroke="#000" stroke-linecap="round" stroke-linejoin="round" stroke-width="2"><path d="M32.2654,37.5809a1.894,1.894,0,0,1-2.4337.2808,2.001,2.001,0,0,1-.8782-2.2937"/><polyline points="38.862 31.891 34.876 38.625 27.176 33.966 38.293 15.38 45.993 20.039 45.114 21.492"/><rect transform="matrix(.409 -.9124 .9124 .409 -26.019 52.727)" x="26.703" y="35.954" width="2" height="21"/><rect x="16.976" y="54.983" width="37" height="5"/><rect transform="matrix(.5176 -.8555 .8555 .5176 7.008 44.655)" x="41.478" y="14.112" width="3.2644" height="4"/><path d="m41.182 50.799a7.0812 7.0812 0 0 1 12.794 4.1843"/><line x1="37.261" x2="41.182" y1="50.799" y2="50.799"/><path d="m48.238 48.03 0.245-0.75c3.2038-9.7964-2.1223-15.52-5.572-18.057"/><path d="m45.114 25.952c4.3016 3.1934 11.134 10.453 7.1716 22.572l-0.4532 1.3847"/><circle cx="42.138" cy="26.325" r="3"/></g></svg>
