<?xml version="1.0" encoding="UTF-8"?>
<svg id="a" viewBox="0 0 72 72" xmlns="http://www.w3.org/2000/svg"><g id="b"><path d="M59.0349,60H12.9651 C12.4343,60,12,59.5657,12,59.0349V12.9651C12,12.4343,12.4343,12,12.9651,12h46.0698C59.5657,12,60,12.4343,60,12.9651v46.0698 C60,59.5657,59.5657,60,59.0349,60z" fill="#d0cfce" stroke-linejoin="round" stroke-miterlimit="10" stroke-width="2"/></g><g id="c"><path d="M59.0349,60H12.9651 C12.4343,60,12,59.5657,12,59.0349V12.9651C12,12.4343,12.4343,12,12.9651,12h46.0698C59.5657,12,60,12.4343,60,12.9651v46.0698 C60,59.5657,59.5657,60,59.0349,60z" fill="none" stroke="#000" stroke-linejoin="round" stroke-miterlimit="10" stroke-width="2"/><polygon points="23.441 27.048 27.926 27.048 27.926 34.223 29.676 34.223 29.676 27.048 34.16 27.048 34.16 25.262 23.441 25.262"/><rect x="23.441" y="21.776" width="10.719" height="1.769"/><path d="m33.246 44.165 0.0146-0.2642h-1.665l-0.0098 0.2397c-0.0391 0.9561-0.2207 1.5845-0.627 2.1655l-2.5195-3.0054 0.8701-0.6021c0.8765-0.6035 1.2847-1.2803 1.2847-2.1299 0-1.5815-1.1738-2.6865-2.8545-2.6865-1.7578 0-2.939 1.0728-2.939 2.6699 0 1.1372 0.748 2.0034 1.2437 2.5771-1.1489 0.7559-2.3726 1.7046-2.3726 3.3896 0 2.2075 1.4878 3.5791 3.8828 3.5791 1.8452 0 2.8398-0.8608 3.3198-1.2788l0.9751 1.1772h2.2236l-2.0107-2.3994c0.7228-0.8444 1.0987-1.9352 1.1837-3.4318zm-5.5064-4.768c0.7007 0 1.1899 0.4893 1.1899 1.1895 0 0.5713-0.4194 0.9341-0.8726 1.2412l-0.5688 0.3857c-0.6113-0.7153-0.9219-1.1665-0.9219-1.6445 1e-4 -0.712 0.4606-1.1719 1.1734-1.1719zm-0.7436 4.8222 2.8418 3.3779c-0.7246 0.6455-1.4077 0.9209-2.2832 0.9209-1.2563 0-2.1685-0.855-2.1685-2.0332 0-1.1498 0.8179-1.7172 1.6099-2.2656z"/><path d="m46.081 43.538c-1.3115 0-2.2275 1.0493-2.2275 2.5513v1.6978c0 1.5024 0.916 2.5518 2.2275 2.5518 1.3125 0 2.2285-1.0493 2.2285-2.5518v-1.6978c0-1.502-0.916-2.5513-2.2285-2.5513zm0.6406 2.602v1.5967c0 0.959-0.4658 0.959-0.6406 0.959s-0.6396 0-0.6396-0.959v-1.5967c0-0.9595 0.4648-0.9595 0.6396-0.9595 0.1582 1e-4 0.6406 1e-4 0.6406 0.9595z"/><polygon points="44.555 37.76 39.609 50.221 41.306 50.221 46.237 37.76"/><path d="m42.008 41.89v-1.6963c0-1.5024-0.916-2.5518-2.2285-2.5518-1.3115 0-2.2275 1.0493-2.2275 2.5518v1.6963c0 1.4932 0.916 2.5356 2.2275 2.5356 1.3125 1e-4 2.2285-1.0424 2.2285-2.5356zm-2.8682-0.0502v-1.5957c0-0.9595 0.4648-0.9595 0.6396-0.9595 0.1582 0 0.6406 0 0.6406 0.9595v1.5957c0 0.9429-0.4658 0.9429-0.6406 0.9429-0.1913-1e-4 -0.6396-1e-4 -0.6396-0.9429z"/><path d="m41.528 34.326c1.4463 0 2.6357-1.1763 2.6553-2.6533v-8.3828h1.1523v0.8457c0 0.2759 0.2246 0.5 0.5 0.5h0.5391c0.2754 0 0.5-0.2241 0.5-0.5v-1.1494c0-0.6812-0.5537-1.2354-1.2344-1.2354h-1.7607c-0.6816 0-1.2354 0.5542-1.2354 1.2354v6.2841c-0.3486-0.165-0.7275-0.251-1.1162-0.251-1.4629 0-2.6533 1.1904-2.6533 2.6533s1.1904 2.6534 2.6533 2.6534zm0-3.7695c0.6152 0 1.1162 0.501 1.1162 1.1162 0 0.6157-0.501 1.1162-1.1162 1.1162s-1.1162-0.5005-1.1162-1.1162c0-0.6153 0.501-1.1162 1.1162-1.1162z"/></g></svg>
