<?xml version="1.0" encoding="UTF-8"?>
<svg id="a" viewBox="0 0 72 72" xmlns="http://www.w3.org/2000/svg"><g id="b"><path d="M59.0349,60H12.9651 C12.4343,60,12,59.5657,12,59.0349V12.9651C12,12.4343,12.4343,12,12.9651,12h46.0698C59.5657,12,60,12.4343,60,12.9651v46.0698 C60,59.5657,59.5657,60,59.0349,60z" fill="#d0cfce" stroke-linejoin="round" stroke-miterlimit="10" stroke-width="2"/></g><g id="c" fill="none" stroke="#000" stroke-linejoin="round" stroke-miterlimit="10" stroke-width="2"><path d="M59.0349,60H12.9651 C12.4343,60,12,59.5657,12,59.0349V12.9651C12,12.4343,12.4343,12,12.9651,12h46.0698C59.5657,12,60,12.4343,60,12.9651v46.0698 C60,59.5657,59.5657,60,59.0349,60z"/><polyline points="33.611 33.175 28.983 22.375 24.354 33.175" stroke-linecap="round"/><line x1="25.897" x2="32.068" y1="30.589" y2="30.589" stroke-linecap="round"/><path d="m32.19 48.404c-0.6809 0.6039-1.5768 0.9706-2.5585 0.9706v0c-2.1302 0-3.8571-1.7269-3.8571-3.8571v-3.0857 3.0857-3.0857c0-2.1302 1.7269-3.8571 3.8571-3.8571v0c0.9817 0 1.8777 0.3667 2.5585 0.9708" stroke-linecap="round"/><path d="m44.817 27.775h-4.1182v-5.3798h4.1182c1.4856 0 2.69 1.2044 2.69 2.69v0c-1e-4 1.4856-1.2044 2.6898-2.69 2.6898z" stroke-linecap="round"/><path d="m44.817 33.155h-4.1182v-5.3799h4.1182c1.4856 0 2.69 1.2044 2.69 2.69v0c-1e-4 1.4855-1.2044 2.6899-2.69 2.6899z" stroke-linecap="round"/><path d="m45.5 49.355h-4.8739v-10.76h4.8739c1.1485 0 2.0796 0.9311 2.0796 2.0796v6.6005c0 1.1486-0.9311 2.0797-2.0796 2.0797z" stroke-linecap="round"/></g></svg>
