<svg xmlns="http://www.w3.org/2000/svg" id="a" version="1.1" viewBox="0 0 72 72"><g id="b"><line x1="13.198" x2="9.335" y1="46.281" y2="47.272" fill="none" stroke="#FCEA2B" stroke-linecap="round" stroke-linejoin="round" stroke-miterlimit="10" stroke-width="2"/><line x1="19.101" x2="15.173" y1="53.195" y2="57.026" fill="none" stroke="#FCEA2B" stroke-linecap="round" stroke-linejoin="round" stroke-miterlimit="10" stroke-width="2"/><line x1="26.242" x2="25.143" y1="59.47" y2="63.136" fill="none" stroke="#FCEA2B" stroke-linecap="round" stroke-linejoin="round" stroke-miterlimit="10" stroke-width="2"/><path fill="#D0CFCE" d="m56.487 17c-1.958-1.958-3.9941-3.469-5.0309-2.7058l-21.878 21.878c1.2786 0.5446 2.8726 1.5088 3.8848 2.5215 1.0128 1.0124 2.8059 3.7926 3.3505 5.0717l21.898-22.456c-0.042-0.4639-0.2168-2.3-2.2246-4.3088z"/><path fill="#D0CFCE" d="m20.45 38.215-4.7805 4.9489 14.142 14.142 5.1413-5.3317c1.7002-1.6992 1.5469-3.7971 1.5469-6.2014s-0.9148-4.9821-2.615-6.6822c-3.5097-3.5098-9.925-4.3855-13.435-0.8757z"/><path fill="#9B9B9A" d="m35.814 39.837c0.4458 0.6337 0.6988 3.2212 0.9996 3.9278l21.898-22.456c-0.0186-0.2055-0.106-2.1367-0.647-2.7353-0.3112-0.3443-1.0305 0.7301-1.3133 0.3267l-20.937 20.937z"/><path fill="#9B9B9A" d="m27.41 54.904 2.4018 2.4018 4.7992-4.8814c1.7002-1.6992 2.3886-4.5444 2.3886-6.9487 0-0.7988-0.3923-2.8729-0.8853-3.4553-0.5057-0.5973-1.1173 0.2989-1.52-0.3901-0.1932-0.3305 0.551 2.3353-0.5895 5.7511-1.1406 3.4157-6.5948 7.5226-6.5948 7.5226z"/></g><g id="c" fill="none" stroke="#000" stroke-linecap="round" stroke-linejoin="round" stroke-miterlimit="10" stroke-width="2"><path d="m29.579 36.171 21.878-21.878s1.4916-0.8489 4.609 2.2685 2.6169 4.9574 2.6169 4.9574l-21.878 21.878"/><path d="m19.743 39.091c3.9052-3.9053 10.237-3.9053 14.142 0 3.9053 3.9052 3.9053 10.237 0 14.142l-4.0732 4.0732-14.142-14.142 4.0732-4.0732z"/><line x1="13.198" x2="9.335" y1="46.281" y2="47.272"/><line x1="19.101" x2="15.173" y1="53.195" y2="57.026"/><line x1="26.242" x2="25.143" y1="59.47" y2="63.136"/></g><g id="d" fill="none" stroke="#FCEA2B" stroke-linecap="round" stroke-linejoin="round" stroke-miterlimit="10" stroke-width="2.1"><line x1="13.198" x2="9.335" y1="46.281" y2="47.272"/><line x1="19.101" x2="15.173" y1="53.195" y2="57.026"/><line x1="26.242" x2="25.143" y1="59.47" y2="63.136"/></g></svg>