<?xml version="1.0" encoding="UTF-8"?>
<svg id="a" viewBox="0 0 72 72" xmlns="http://www.w3.org/2000/svg"><g id="b"><path d="m40.154 68 2e-3 -8.6585c1.6181 0.9547 3.4967 1.5011 5.5005 1.5011 4.7844 0 9.1921-2.0494 10.496-7.078 0.3112-1.2007 0.3498-2.458 0.2359-3.6945l-0.1761-0.7974c-1.3037-5.9042-1.8268-11.96-1.5553-18.006h3l-4.5032-7.9957-4.4968 7.9956h3l-0.4802 9.3056-0.2672 5.1776c-0.0725 1.4041-0.4085 2.7809-0.9899 4.0558-1.7015 3.7307-6.9018 3.7324-8.6056 0.0028-0.5842-1.2788-0.942-2.653-1.0569-4.0589l-1.6002-19.582-0.0332-0.3471h3l-4.4968-7.9957-4.5032 7.9957h3l5e-4 0.2007-1.6001 19.582c-0.1149 1.406-0.4727 2.7801-1.0569 4.0589-1.7038 3.7296-6.9042 3.7279-8.6056-0.0028-0.5814-1.2749-0.9175-2.6517-0.99-4.0558l-0.2672-5.1776-0.4802-9.3056h3l-4.4968-7.9957-4.5032 7.9957h3c0.2715 6.0458-0.2516 12.101-1.5553 18.006l-0.1761 0.7974c-0.1139 1.2365-0.0753 2.4938 0.2359 3.6945 1.3034 5.0287 5.7111 7.078 10.496 7.078 2.0038 0 3.8824-0.5464 5.5005-1.5011l0.0131 8.7446 6.0166 0.0603z" fill="#FCEA2B"/></g><g id="c"><path d="m40.156 67.005v-8.4719c1.6181 0.9361 3.4967 1.4719 5.5005 1.4719 4.7844 0 9.1921-2.0095 10.496-6.9403 0.3112-1.1773 0.3498-2.4102 0.2359-3.6226l-0.1761-0.7819c-1.3037-5.7893-1.8268-11.727-1.5553-17.655v0h3l-4.5032-7.8401-4.4968 7.8401h3l-0.4802 9.1245-0.2672 5.0769c-0.0725 1.3768-0.4085 2.7268-0.9899 3.9769v0c-1.7015 3.6581-6.9018 3.6598-8.6056 0.0028v0c-0.5842-1.2539-0.942-2.6014-1.0569-3.9799l-1.6001-19.201-0.0332-0.3403h3l-4.4969-7.8403-4.5032 7.8401h3l5e-4 0.1968-1.6001 19.201c-0.1149 1.3786-0.4727 2.726-1.0569 3.9799v0c-1.7038 3.657-6.9042 3.6553-8.6056-0.0028v0c-0.5814-1.2501-0.9175-2.6001-0.99-3.9769l-0.2672-5.0769-0.4802-9.1245h3l-4.4968-7.8401-4.5032 7.8401h3v0c0.2715 5.9281-0.2516 11.866-1.5553 17.655l-0.1761 0.7819c-0.1139 1.2124-0.0753 2.4453 0.2359 3.6226 1.3034 4.9308 5.7111 6.9403 10.496 6.9403 2.0038 0 3.8824-0.5358 5.5005-1.4719l0.0116 8.5736" fill="none" stroke="#000" stroke-linecap="round" stroke-linejoin="round" stroke-miterlimit="10" stroke-width="2"/></g></svg>
