<?xml version="1.0" encoding="UTF-8"?>
<svg id="a" viewBox="0 0 72 72" xmlns="http://www.w3.org/2000/svg"><g id="b" stroke-miterlimit="10" stroke-width="2"><path d="M52,33.7806V60H18V33.7806 c0-0.3181,0.1513-0.6173,0.4076-0.8057l15.9731-11.744c0.3555-0.3077,0.8831-0.3077,1.2386,0l15.9731,11.744 C51.8487,33.1634,52,33.4625,52,33.7806z" fill="#F4AA41"/><rect x="8" y="39" width="10" height="21" fill="#F4AA41" stroke-linecap="round" stroke-linejoin="round"/><rect x="52" y="39" width="10" height="21" fill="#F4AA41" stroke-linecap="round" stroke-linejoin="round"/><path d="m39 60h-8v-6c0-1.6569 1.3431-3 3-3h2c1.6569 0 3 1.3431 3 3v6z" fill="#A57939" stroke-linecap="round" stroke-linejoin="round"/><polygon points="57 30 52 39 62 39" fill="#3F3F3F" stroke-linecap="round" stroke-linejoin="round"/><polygon points="13 30 8 39 18 39" fill="#3F3F3F" stroke-linecap="round" stroke-linejoin="round"/><polygon points="35 27 26.34 42 43.66 42" fill="#fff" stroke-linecap="round" stroke-linejoin="round"/><polygon points="35 47 43.66 32 26.34 32" fill="#D0CFCE" stroke-linecap="round" stroke-linejoin="round"/><polygon points="35 27 26.34 42 43.66 42" fill="#D0CFCE" stroke-linecap="round" stroke-linejoin="round"/></g><g id="c" fill="none" stroke="#000" stroke-miterlimit="10" stroke-width="2"><path d="M52,33.7806V60H18V33.7806 c0-0.3181,0.1513-0.6173,0.4076-0.8057l15.9731-11.744c0.3555-0.3077,0.8831-0.3077,1.2386,0l15.9731,11.744 C51.8487,33.1634,52,33.4625,52,33.7806z"/><rect x="8" y="39" width="10" height="21" stroke-linecap="round" stroke-linejoin="round"/><rect x="52" y="39" width="10" height="21" stroke-linecap="round" stroke-linejoin="round"/><path d="m39 60h-8v-6c0-1.6569 1.3431-3 3-3h2c1.6569 0 3 1.3431 3 3v6z" stroke-linecap="round" stroke-linejoin="round"/><path d="m14 47h-2v-3c0-0.5523 0.4477-1 1-1v0" stroke-linecap="round" stroke-linejoin="round"/><path d="m58 47h-2v-3c0-0.5523 0.4477-1 1-1v0" stroke-linecap="round" stroke-linejoin="round"/><line x1="35" x2="35" y1="60" y2="51" stroke-linecap="round" stroke-linejoin="round"/><polygon points="57 30 52 39 62 39" stroke-linecap="round" stroke-linejoin="round"/><polygon points="13 30 8 39 18 39" stroke-linecap="round" stroke-linejoin="round"/><polygon points="35 27 26.34 42 43.66 42" stroke-linecap="round" stroke-linejoin="round"/><polygon points="35 47 43.66 32 26.34 32" stroke-linecap="round" stroke-linejoin="round"/><polygon points="35 27 26.34 42 43.66 42" stroke-linecap="round" stroke-linejoin="round"/><polygon points="35 47 43.66 32 26.34 32" stroke-linecap="round" stroke-linejoin="round"/></g></svg>
