<?xml version="1.0" encoding="UTF-8"?>
<svg id="a" viewBox="0 0 72 72" xmlns="http://www.w3.org/2000/svg"><g id="b"><rect x="12" y="12" width="48" height="47.83" fill="#b399c8"/></g><g id="c" fill="none" stroke="#000" stroke-linecap="round" stroke-linejoin="round"><line x1="36" x2="36" y1="50.15" y2="21.85" stroke-width="3"/><line x1="30.81" x2="41.19" y1="50.26" y2="50.26" stroke-width="3"/><rect x="12" y="12" width="48" height="48" stroke-width="2"/><path d="m40.64 21.34a4.635 4.618 0 0 1-2.318 4 4.635 4.618 0 0 1-4.635-1e-6 4.635 4.618 0 0 1-2.318-4" stroke-width="2"/><path d="m44.87 21.34a8.871 8.858 0 0 1-4.435 7.671 8.871 8.858 0 0 1-8.871 0 8.871 8.858 0 0 1-4.435-7.671" stroke-width="2"/><path d="m49.11 21.34a13.11 13.09 0 0 1-6.552 11.34 13.11 13.09 0 0 1-13.11-2e-6 13.11 13.09 0 0 1-6.552-11.34" stroke-width="2"/><path d="m53.34 21.34a17.34 17.34 0 0 1-8.67 15.02 17.34 17.34 0 0 1-17.34-1e-6 17.34 17.34 0 0 1-8.67-15.02" stroke-width="2"/></g></svg>
