<svg xmlns="http://www.w3.org/2000/svg" id="a" viewBox="0 0 72 72"><g id="b" stroke-miterlimit="10" stroke-width="2"><path fill="#F4AA41" d="M52,33.7806V60H18V33.7806 c0-0.3181,0.1513-0.6173,0.4076-0.8057l15.9731-11.744c0.3555-0.3077,0.8831-0.3077,1.2386,0l15.9731,11.744 C51.8487,33.1634,52,33.4625,52,33.7806z"/><rect width="10" height="21" x="8" y="39" fill="#F4AA41" stroke-linecap="round" stroke-linejoin="round"/><rect width="10" height="21" x="52" y="39" fill="#F4AA41" stroke-linecap="round" stroke-linejoin="round"/><path fill="#A57939" stroke-linecap="round" stroke-linejoin="round" d="m39 60h-8v-6c0-1.6569 1.3431-3 3-3h2c1.6569 0 3 1.3431 3 3v6z"/><polygon fill="#3F3F3F" stroke-linecap="round" stroke-linejoin="round" points="57 30 52 39 62 39"/><polygon fill="#3F3F3F" stroke-linecap="round" stroke-linejoin="round" points="13 30 8 39 18 39"/><polygon fill="#fff" stroke-linecap="round" stroke-linejoin="round" points="35 27 26.34 42 43.66 42"/><polygon fill="#D0CFCE" stroke-linecap="round" stroke-linejoin="round" points="35 47 43.66 32 26.34 32"/><polygon fill="#D0CFCE" stroke-linecap="round" stroke-linejoin="round" points="35 27 26.34 42 43.66 42"/></g><g id="c" fill="none" stroke="#000" stroke-miterlimit="10" stroke-width="2"><path d="M52,33.7806V60H18V33.7806 c0-0.3181,0.1513-0.6173,0.4076-0.8057l15.9731-11.744c0.3555-0.3077,0.8831-0.3077,1.2386,0l15.9731,11.744 C51.8487,33.1634,52,33.4625,52,33.7806z"/><rect width="10" height="21" x="8" y="39" stroke-linecap="round" stroke-linejoin="round"/><rect width="10" height="21" x="52" y="39" stroke-linecap="round" stroke-linejoin="round"/><path stroke-linecap="round" stroke-linejoin="round" d="m39 60h-8v-6c0-1.6569 1.3431-3 3-3h2c1.6569 0 3 1.3431 3 3v6z"/><path stroke-linecap="round" stroke-linejoin="round" d="m14 47h-2v-3c0-0.5523 0.4477-1 1-1v0"/><path stroke-linecap="round" stroke-linejoin="round" d="m58 47h-2v-3c0-0.5523 0.4477-1 1-1v0"/><line x1="35" x2="35" y1="60" y2="51" stroke-linecap="round" stroke-linejoin="round"/><polygon stroke-linecap="round" stroke-linejoin="round" points="57 30 52 39 62 39"/><polygon stroke-linecap="round" stroke-linejoin="round" points="13 30 8 39 18 39"/><polygon stroke-linecap="round" stroke-linejoin="round" points="35 27 26.34 42 43.66 42"/><polygon stroke-linecap="round" stroke-linejoin="round" points="35 47 43.66 32 26.34 32"/><polygon stroke-linecap="round" stroke-linejoin="round" points="35 27 26.34 42 43.66 42"/><polygon stroke-linecap="round" stroke-linejoin="round" points="35 47 43.66 32 26.34 32"/></g></svg>