<?xml version="1.0" encoding="UTF-8"?>
<svg id="a" viewBox="0 0 72 72" xmlns="http://www.w3.org/2000/svg"><g id="b"><polygon points="41.67 32.658 28.776 32.596 28.776 63.604 41.282 63.604" fill="#fff"/><polygon points="37.343 63.604 41.67 63.604 41.67 32.548 37.343 32.529" fill="#d0cfce"/><path d="m30.139 16c0 1.9786-0.0131 4.8604 0.4283 6.3199 0.1599 0.5277 1.1604 2.2097 0.6331 2.3708h8.558c-0.0363-0.0092-0.1364 0.0063-0.1087-0.02 0.8117-0.7725 0.8117-0.7725 1.007-1.2891 0.584-1.5449 0.5181-4.3205 0.1158-6.5612-0.5205-2.8999-3.9503-7.1748-5.1651-8.5166-1.4073 1.4751-5.4684 4.664-5.4684 7.6962z" fill="#FCEA2B"/><line x1="35.372" x2="35.372" y1="23.735" y2="27.776" fill="#fff" stroke-linecap="round" stroke-linejoin="round" stroke-miterlimit="10" stroke-width="2"/></g><g id="c" fill="none" stroke="#000" stroke-linecap="round" stroke-linejoin="round" stroke-miterlimit="10" stroke-width="2"><path d="m30.908 23.735c-0.4263-1.4112-0.7692-3.6894-0.7692-5.9495 0-4.4164 5.4684-9.482 5.4684-9.482s4.4065 4.2924 5.1651 8.5166c0.4329 2.4099-0.1251 5.209-0.769 6.9149"/><polygon points="28.776 63.604 41.67 63.604 41.67 32.596 28.776 32.529"/><line x1="35.372" x2="35.372" y1="23.735" y2="27.776"/></g></svg>
