<svg xmlns="http://www.w3.org/2000/svg" id="a" viewBox="0 0 72 72"><g id="b" fill="#3F3F3F" stroke="#3F3F3F" stroke-miterlimit="10"><path d="m36.187 33.154c1.0309-0.1557 2.3936-0.355 3.1719 3.5553 0.5088 2.5561 2.4518 2.3815 3.5921 4.0059 2.3054 3.2843 7.0505 5.5111 11.365 5.5111 6.9036 0 12.5-5.5964 12.5-12.5l0.105-4.9141 1.895 0.0501v-4.1273s-18.932-16.179-29.48 5.3212h-6.4239c-10.549-21.5-29.48-5.3212-29.48-5.3212v4.1273l1.895-0.0501 0.105 4.9141c0 6.9036 5.5964 12.5 12.5 12.5 4.3147 0 9.1189-2.1861 11.365-5.5111"/><path d="m36.187 33.154c1.0309-0.1557 2.3936-0.355 3.1719 3.5553 0.5088 2.5561 2.4518 2.3815 3.5921 4.0059 2.3054 3.2843 7.0505 5.5111 11.365 5.5111"/><path d="m18.26 45.905c4.3147 0 9.0598-2.2268 11.365-5.5111 1.1402-1.6244 2.2768-1.3775 3.6757-3.6507 0.2905-0.4721-3.6316-4.9026 3.0884-3.9105"/></g><g id="c" fill="none" stroke="#000" stroke-linecap="round" stroke-linejoin="round" stroke-miterlimit="10" stroke-width="2"><path d="m29.297 40.716c-2.2463 3.325-7.0505 5.5111-11.365 5.5111-6.9036 0-12.5-5.5964-12.5-12.5l-0.105-4.9141-1.895 0.0501v-4.1273s18.932-16.179 29.48 5.3212h6.4239c10.549-21.5 29.48-5.3212 29.48-5.3212v4.1273l-1.895-0.0501-0.105 4.9141c0 6.9036-5.5964 12.5-12.5 12.5-4.3147 0-9.1189-2.1861-11.365-5.5111"/><path d="m33.359 36.71c0-1.6569 1.3431-3 3-3s3 1.3431 3 3"/><circle cx="18.364" cy="32.561" r="9.58"/><circle cx="53.884" cy="32.561" r="9.58"/></g></svg>