<?xml version="1.0" encoding="UTF-8"?>
<svg id="a" viewBox="0 0 72 72" xmlns="http://www.w3.org/2000/svg"><g id="b"><polyline points="17 55 17 52 24 52 24 55" fill="#EA5A47"/><circle cx="36" cy="17" r="10" fill="#EA5A47"/><path d="m27 55c0-3.866 4.0294-7 9-7s9 3.134 9 7" fill="#3F3F3F"/><rect x="33" y="27" width="6" height="21" fill="#9B9B9A" stroke="#9B9B9A" stroke-linecap="round" stroke-linejoin="round" stroke-miterlimit="10" stroke-width="2"/><rect x="14" y="55" width="44" height="10" fill="#9B9B9A" stroke-linecap="round" stroke-linejoin="round" stroke-miterlimit="10" stroke-width="2"/><polygon points="41 8 34 27 40 26 45 21 46 15" fill="#D22F27"/></g><g id="c" fill="none" stroke="#000" stroke-miterlimit="10" stroke-width="2"><rect x="14" y="55" width="44" height="10" stroke-linecap="round" stroke-linejoin="round"/><path d="m27 55c0-3.866 4.0294-7 9-7s9 3.134 9 7"/><polyline points="17 55 17 52 24 52 24 55" stroke-linecap="round" stroke-linejoin="round"/><polyline points="39 44.703 39 44 39 27 33 27 33 44.705" stroke-linecap="round" stroke-linejoin="round"/><circle cx="36" cy="17" r="10"/></g></svg>
