<?xml version="1.0" encoding="UTF-8"?>
<svg id="a" viewBox="0 0 72 72" xmlns="http://www.w3.org/2000/svg"><g id="b" fill="#6a462f" stroke="#6a462f"><circle cx="33.969" cy="8.0938" r="3"/><path d="m42 18 3 18-1 14-2.2998 17h-3.2998l0.5996-16v-13h-2l-5 9 2 11h-3l-4-12 6-14-2-10-2.7227-1.3428s-1.5986-1.6943-1.8183-1.6572c-1.1348 0.1909-6.0811 1.1738-6.7715 1.125-2.6562-0.1875-4-2.125-7.6875-6.1245-1.4629-1.5864 0.375-2.6255 0.375-2.6255l6.625 6.6255 10-2 6-1h6l7 1 12 2s-0.0156 2.248-2 2l-16-2z"/></g><g id="c" fill="none" stroke="#000" stroke-miterlimit="10" stroke-width="2"><circle cx="33.969" cy="8.0938" r="3"/><path d="M12.875,12l4.6963,4.6006c0.7861,0.7695,2.3115,1.2231,3.3896,1.0073l6.0782-1.2158c1.0781-0.2158,2.8584-0.4609,3.955-0.5454 l9.0118-0.6934c1.0966-0.0845,2.8808,0.003,3.9638,0.1944L59,18" stroke-linecap="round" stroke-linejoin="round"/><path d="m29 20 1 1c0.5498 0.5498 1.1758 1.8823 1.3926 2.9609l1.2148 6.0782c0.2168 1.0781 0.0381 2.788-0.3945 3.7988l-4.4258 10.324c-0.4326 1.0108-0.5019 2.6914-0.1543 3.7354l2.7344 8.205c0.3476 1.044 1.3076 1.8975 2.1328 1.8975s1.3389-0.8857 1.1426-1.9678l-1.2852-7.0644c-0.1963-1.0821 0.0801-2.7549 0.6133-3.7158l3.0576-5.504c0.5342-0.9609 1.4209-1.748 1.9717-1.748 0.5498 0 1 0.9004 1 2v9c0 1.0996-0.0342 2.8994-0.0752 3.999l-0.4492 12.002c-0.041 1.0996 0.667 1.999 1.5752 1.999 0.9072 0 1.7705-0.8916 1.918-1.9824l1.7626-13.035c0.1475-1.0908 0.3331-2.8799 0.4112-3.9775l0.7148-10.01c0.0781-1.0976-0.0136-2.8818-0.2051-3.9648l-2.6523-15.03" stroke-linecap="round" stroke-linejoin="round"/></g></svg>
