<?xml version="1.0" encoding="UTF-8"?>
<svg id="a" viewBox="0 0 72 72" xmlns="http://www.w3.org/2000/svg"><g id="b"><path d="m55.183 58.854s3.8111-14.002-10.5-14.897c-3.1918 2.1193-5.9264 3.5838-9 3.5775h0.125c-3.0736 0.0063-5.8081-1.4582-9-3.5775-12 0-10 14.897-10 14.897" fill="#a57939"/><polygon points="38.662 58.919 32.609 58.919 32.609 51.406 29.609 47.97 41.122 47.97 38.662 51.353" fill="#d0cfce"/><path d="m44.771 44.797-5.89 7.35c5.97-4.93 6.33 4.28 6.33 4.28l8.93-7.08c-1.24-2.76-3.81-5.19-9-5.19-0.19 0.12-0.37 0.24-0.55 0.36l0.18 0.28z" fill="#6a462f"/><ellipse transform="matrix(.3572 -.934 .934 .3572 -7.2958 80.403)" cx="54.765" cy="45.502" rx="5" ry="5" fill="#d0cfce"/><path d="m35.736 8.696c13.63 1.52 13.4 11 11.15 15.53h-0.01c-0.16-0.67-0.36-1.32-0.59-1.94l-0.8-0.2c0.62-0.13 0.92-0.82 1.27-1.28-0.68-0.93-1.55-1.69-2.54-2.31l0.06-0.09c-1.76-4.76-6.05-9.05-8.54-9.71z" fill="#6a462f"/><path d="m25.886 22.056c-0.55-0.18-0.84-0.82-1.17-1.25 0.68-0.93 1.55-1.69 2.54-2.31 0.02-0.01 0.05-0.03 0.07-0.04 2.36-1.44 5.4-2.01 8.41-1.89 3.01-0.12 6.05 0.45 8.41 1.89 0.02 0.01 0.05 0.03 0.07 0.04 0.99 0.62 1.86 1.38 2.54 2.31-0.35 0.46-0.65 1.15-1.27 1.28-2.96 0.62-6.3 0.94-9.51 0.9h-0.48c-3.2 0.04-6.55-0.28-9.51-0.9-0.04-0.01-0.07-0.02-0.1-0.03z" fill="#a57939"/><path d="m44.276 18.406-0.06 0.09c-0.02-0.01-0.05-0.03-0.07-0.04-2.36-1.44-5.4-2.01-8.41-1.89-3.01-0.12-6.05 0.45-8.41 1.89-0.02 0.01-0.05 0.03-0.07 0.04l-0.06-0.09c1.76-4.76 6.05-9.05 8.54-9.71 2.49 0.66 6.78 4.95 8.54 9.71z" fill="#a57939"/><path d="m35.736 8.696c-2.49 0.66-6.78 4.95-8.54 9.71l0.06 0.09c-0.99 0.62-1.86 1.38-2.54 2.31 0.33 0.43 0.62 1.07 1.17 1.25-0.37 0.92-0.66 1.9-0.86 2.93-2.61-4.13-3.73-14.68 10.71-16.29z" fill="#6a462f"/><path d="m26.846 44.856 5.89 7.35c-5.97-4.93-6.33 3.48-6.33 3.48l-8.19-6.37h-0.01c1.36-2.45 3.92-4.46 8.64-4.46z" fill="#6a462f"/><path d="m54.796 40.204 3.6824 6.5849c0.7532 1.3469 0.2717 3.0494-1.0754 3.8023l-0.1799 0.1006-5.0459-9.0234" fill="#fff"/></g><g id="c"><path d="m47.056 24.996c0.21 1.08 0.32 2.21 0.32 3.36 0 7.83-5.08 14.18-11.34 14.18s-11.34-6.35-11.34-14.18c0-1.16 0.11-2.28 0.33-3.36v-0.01c0.2-1.03 0.49-2.01 0.86-2.93 0.03 0.01 0.06 0.02 0.1 0.03 2.96 0.62 6.31 0.94 9.51 0.9h0.48c3.21 0.04 6.55-0.28 9.51-0.9l0.8 0.2c0.23 0.62 0.43 1.27 0.59 1.94 0.07 0.25 0.13 0.51 0.18 0.77zm-5.02 2c0-1.1-0.9-2-2-2s-2 0.9-2 2c0 1.11 0.9 2 2 2s2-0.89 2-2zm-2.55 9.15c0.49-0.25 0.69-0.85 0.44-1.34-0.24-0.5-0.84-0.7-1.34-0.45-1.72 0.86-3.39 0.86-5.1 0-0.5-0.25-1.1-0.05-1.34 0.45-0.25 0.49-0.05 1.09 0.44 1.34 1.15 0.57 2.3 0.86 3.45 0.86s2.3-0.29 3.45-0.86zm-5.45-9.15c0-1.1-0.9-2-2-2s-2 0.9-2 2c0 1.11 0.9 2 2 2s2-0.89 2-2z" fill="#6a462f" stroke="#6a462f"/></g><g id="d"><path d="m54.728 58.852c-0.0507 0-0.1015-3e-3 -0.1523-0.0108-0.5459-0.083-0.9209-0.5928-0.8379-1.1387 2e-3 -0.0126 0.1836-1.246 0.082-2.8984-0.0341-0.5517 0.3858-1.0254 0.9366-1.0596 0.5732-0.0234 1.0263 0.3858 1.0595 0.9366 0.1153 1.8798-0.0927 3.2656-0.1015 3.3232-0.0762 0.4951-0.502 0.8477-0.9864 0.8477z"/><path d="m49.615 59.971c-0.1191 0-0.2392-0.0215-0.3574-0.0664-0.5156-0.1973-0.7734-0.7744-0.5762-1.291l3.3643-8.7988c0.1973-0.5166 0.7754-0.7735 1.291-0.5762 0.5156 0.1972 0.7735 0.7744 0.5762 1.291l-3.3643 8.7988c-0.1513 0.3985-0.5312 0.6426-0.9336 0.6426z"/><path d="m40.036 24.996c1.1 0 2 0.9 2 2 0 1.11-0.9 2-2 2s-2-0.89-2-2c0-1.1 0.9-2 2-2z"/><path d="m39.926 34.806c0.25 0.49 0.05 1.09-0.44 1.34-1.15 0.57-2.3 0.86-3.45 0.86s-2.3-0.29-3.45-0.86c-0.49-0.25-0.69-0.85-0.44-1.34 0.24-0.5 0.84-0.7 1.34-0.45 1.71 0.86 3.38 0.86 5.1 0 0.5-0.25 1.1-0.05 1.34 0.45z"/><path d="m32.036 24.996c1.1 0 2 0.9 2 2 0 1.11-0.9 2-2 2s-2-0.89-2-2c0-1.1 0.9-2 2-2z"/><path d="m25.026 24.986c0.2-1.03 0.49-2.01 0.86-2.93v-0.01" fill="none" stroke="#000" stroke-linecap="round" stroke-linejoin="round" stroke-miterlimit="10" stroke-width="2"/><path d="m46.286 22.286c0.23 0.62 0.43 1.27 0.59 1.94 0.07 0.25 0.13 0.51 0.18 0.77 0.21 1.08 0.32 2.21 0.32 3.36 0 7.83-5.08 14.18-11.34 14.18s-11.34-6.35-11.34-14.18c0-1.16 0.11-2.28 0.33-3.36" fill="none" stroke="#000" stroke-linecap="round" stroke-linejoin="round" stroke-miterlimit="10" stroke-width="2"/><path d="m35.736 16.566c-3.01-0.12-6.05 0.45-8.41 1.89-0.02 0.01-0.05 0.03-0.07 0.04-0.99 0.62-1.86 1.38-2.54 2.31 0.33 0.43 0.62 1.07 1.17 1.25 0.03 0.01 0.06 0.02 0.1 0.03 2.96 0.62 6.31 0.94 9.51 0.9" fill="none" stroke="#000" stroke-linecap="round" stroke-linejoin="round" stroke-miterlimit="10" stroke-width="2"/><path d="m27.196 18.406c1.76-4.76 6.05-9.05 8.54-9.71-14.44 1.61-13.32 12.16-10.71 16.29v0.01" fill="none" stroke="#000" stroke-linecap="round" stroke-linejoin="round" stroke-miterlimit="10" stroke-width="2"/><path d="m35.736 16.566c3.01-0.12 6.05 0.45 8.41 1.89 0.02 0.01 0.05 0.03 0.07 0.04 0.99 0.62 1.86 1.38 2.54 2.31-0.35 0.46-0.65 1.15-1.27 1.28-2.96 0.62-6.3 0.94-9.51 0.9" fill="none" stroke="#000" stroke-linecap="round" stroke-linejoin="round" stroke-miterlimit="10" stroke-width="2"/><path d="m44.276 18.406c-1.76-4.76-6.05-9.05-8.54-9.71 13.63 1.52 13.4 11 11.15 15.53" fill="none" stroke="#000" stroke-linecap="round" stroke-linejoin="round" stroke-miterlimit="10" stroke-width="2"/><line x1="35.736" x2="35.736" y1="8.696" y2="7.276" fill="none" stroke="#000" stroke-linecap="round" stroke-linejoin="round" stroke-miterlimit="10" stroke-width="2"/><path d="m38.599 58.971c-0.5527 0-1-0.4473-1-1v-5.7676c0-0.2988 0.1328-0.581 0.3633-0.7715 1.9912-1.6425 3.7324-2.1494 5.1768-1.5078 1.542 0.6856 2.2334 2.4971 2.5429 3.9073l2.3536-1.8282c0.4355-0.3418 1.0664-0.2597 1.4023 0.1758 0.3398 0.4356 0.2607 1.0635-0.1758 1.4024l-3.7187 2.8906c-0.294 0.2304-0.6953 0.2734-1.0323 0.1181-0.3388-0.1562-0.5625-0.4892-0.58-0.8623-0.0498-1.0879-0.5088-3.4902-1.6055-3.9765-0.6113-0.2686-1.5684 0.0605-2.7266 0.9355v5.2842c0 0.5527-0.4472 1-1 1z"/><path d="m46.436 45.026c-0.7-0.11-0.89-0.17-1.71-0.17-3.15 2.09-5.86 3.55-8.88 3.59h-0.12c-3.02-0.04-5.72-1.5-8.88-3.59-4.72 0-7.28 2.01-8.64 4.46-2.1 3.76-1.36 8.54-1.36 8.54" fill="none" stroke="#000" stroke-linecap="round" stroke-linejoin="round" stroke-miterlimit="10" stroke-width="2"/><path d="m32.736 57.966v-5.76c-5.97-4.93-6.33 3.48-6.33 3.48l-8.19-6.37" fill="none" stroke="#000" stroke-linecap="round" stroke-linejoin="round" stroke-miterlimit="10" stroke-width="2"/><line x1="32.736" x2="26.846" y1="52.206" y2="44.856" fill="none" stroke="#000" stroke-linecap="round" stroke-linejoin="round" stroke-miterlimit="10" stroke-width="2"/><path d="m38.598 53.203c-0.2256 0-0.4522-0.0761-0.6397-0.2314-0.4238-0.3545-0.4814-0.9844-0.1279-1.4092l6.1269-7.3506c0.3545-0.4238 0.9834-0.4814 1.4092-0.1279 0.4238 0.3545 0.4815 0.9844 0.1279 1.4092l-6.1269 7.3506c-0.1983 0.2373-0.4824 0.3593-0.7695 0.3593z"/><path d="m54.759 51.502c-0.7109 0-1.4336-0.127-2.1367-0.3965-1.4971-0.5723-2.6807-1.6934-3.335-3.1563-0.6543-1.4638-0.6992-3.0937-0.126-4.5908 0.5723-1.4971 1.6934-2.6807 3.1563-3.335 1.4629-0.6513 3.0947-0.6982 4.5908-0.125 1.4971 0.5723 2.6816 1.6934 3.335 3.1563 0.6543 1.4639 0.6992 3.0937 0.1259 4.5908-0.9121 2.3867-3.1943 3.8565-5.6103 3.8565zm0.0039-10.002c-0.5547 0-1.1074 0.1172-1.6299 0.3496-0.9746 0.4365-1.7226 1.2256-2.1045 2.2236-0.3808 0.9981-0.3515 2.084 0.085 3.0596 0.4355 0.9756 1.2256 1.7236 2.2236 2.1055 0.9981 0.3799 2.084 0.3496 3.0606-0.084 0.9746-0.4365 1.7226-1.2256 2.1045-2.2236 0.3808-0.9981 0.3515-2.085-0.084-3.0596-0.4366-0.9756-1.2256-1.7236-2.2246-2.1055-0.4639-0.1767-0.9473-0.2656-1.4307-0.2656z"/></g></svg>
