<svg xmlns="http://www.w3.org/2000/svg" id="a" viewBox="0 0 72 72"><g id="b"><g fill="none" stroke="#000" stroke-linecap="round" stroke-linejoin="round" stroke-width="2"><path d="m33.067 11.211a7.8894 7.8894 0 0 0-1.0352-0.5193c-4.5363-1.7523-8.713 0.7674-10.554 5.2112l-9.9849 23.945"/><path d="m22.74 39.72 7.2545-17.353a2.59 2.59 0 0 0-4.7856-1.9822l-10.936 26.24a5.3177 5.3177 0 0 0 2.8369 6.849 5.2166 5.2166 0 0 0 6.7784-2.79l11.862-28.741a10.044 10.044 0 0 0 0.5525-6.4066"/><path d="m36.537 26.863 8.77 21.098c1.8407 4.4438 6.1419 7.1664 10.586 5.3258 4.4467-1.9686 5.6184-6.7037 3.7777-11.147l-9.8708-23.992"/><path d="M41.9371,26.19l7.14,17.4a2.59,2.59,0,1,0,4.7856-1.9822L43.0413,15.3206a5.3177,5.3177,0,0,0-6.8484-2.8367,5.2166,5.2166,0,0,0-2.82,6.766l.37.89"/></g></g></svg>