<svg xmlns="http://www.w3.org/2000/svg" id="a" viewBox="0 0 72 72"><g id="b"><polygon fill="#9b9b9a" points="18.407 49.773 24.817 56.738 17.931 58.707 15.515 56.323"/><path fill="#d0cfce" stroke="#d0cfce" stroke-miterlimit="10" stroke-width="2" d="m18.033 59.07c7.3107-1.7183 14.455-7.1937 18.033-10.1 5.2841-4.2911 15.681-15.02 22.024-21.693 2.9813-3.137 3.1752-7.8102 0.4421-10.543l-1e-4 -1e-4 -0.4873-0.4872-1e-4 -1e-4c-2.7332-2.7332-7.4063-2.5394-10.543 0.442-6.6738 6.3428-17.402 16.74-21.693 22.024-2.7631 3.4024-7.8498 10.03-9.8201 16.958-0.1883 0.662 0.0198 1.3745 0.5065 1.8612l1.5382 1.5382"/></g><g id="c" fill="none" stroke="#000" stroke-linecap="round" stroke-linejoin="round" stroke-miterlimit="10"><line x1="16.888" x2="14.465" y1="57.924" y2="60.347" stroke-width="2"/><line x1="47.915" x2="57.566" y1="17.153" y2="26.803" stroke-width="2"/><path stroke-width="2" d="m44.751 14.022c-1.1564-1.1563-3.1433-1.0441-4.4381 0.2507l-12.504 12.504"/><path stroke-width="2" d="m18.033 59.07c7.3107-1.7183 14.455-7.1937 18.033-10.1 5.2841-4.2911 15.681-15.02 22.024-21.693 2.9813-3.137 3.1752-7.8102 0.4421-10.543l-1e-4 -1e-4 -0.4873-0.4872-1e-4 -1e-4c-2.7332-2.7332-7.4063-2.5394-10.543 0.442-6.6738 6.3428-17.402 16.74-21.693 22.024-2.9058 3.5781-8.3813 10.722-10.1 18.033l2.3242 2.3242"/><line x1="24.786" x2="18.788" y1="56.06" y2="50.061" stroke-width="1.961"/></g></svg>