<svg xmlns="http://www.w3.org/2000/svg" id="a" viewBox="0 0 72 72"><g id="b" fill="#c19a65" stroke="#c19a65"><path d="m40.326 34.262c0.081-1.9313 1.7123-3.4312 3.6436-3.3502s3.4313 1.7123 3.3502 3.6436"/><path d="m23.27 34.165c-1.3429-1.3904-3.1309-1.4767-4.5213-0.1338s-1.4288 3.5586-0.086 4.949c1.7701 1.875 2.8123 4.5144 2.7402 8.8686v-0.187c0 9.0883 7.3675 16.456 16.456 16.456s16.456-7.3675 16.456-16.456l0.0016-12.874"/><path d="m54.316 34.788c0.081-1.9313-1.4189-3.5626-3.3502-3.6436s-3.5626 1.4189-3.6436 3.3502l-0.0155 0.1945c0.155-1.9268-1.2813-3.6144-3.2081-3.7694s-3.6144 1.2813-3.7694 3.2081l-0.0487 0.4272v-23.144l-0.0073 0.1121c0.1237-1.929-1.3398-3.5931-3.2688-3.7168s-3.5931 1.3398-3.7168 3.2688v22.671c0-1.933-1.567-3.5-3.5-3.5s-3.5 2.9146-3.5 4.8476"/></g><g id="c" fill="none" stroke="#000" stroke-linecap="round" stroke-linejoin="round" stroke-miterlimit="10" stroke-width="2"><path d="m40.326 34.262c0.081-1.9313 1.7123-3.4312 3.6436-3.3502s3.4313 1.7123 3.3502 3.6436"/><line x1="54.316" x2="54.315" y1="34.788" y2="47.662"/><path d="m23.011 34.788c-1.3429-1.3904-3.4627-1.3429-4.853 0-1.3904 1.3429-0.9608 3.2735 0.3821 4.6639 1.7701 1.875 2.935 4.0425 2.863 8.3966v-0.187c0 9.0883 7.3675 16.456 16.456 16.456s16.456-7.3674 16.456-16.456"/><path d="m54.316 34.788c0.081-1.9313-1.4189-3.5626-3.3502-3.6436s-3.5626 1.4189-3.6436 3.3502l-0.0155 0.1945c0.155-1.9268-1.2813-3.6144-3.2081-3.7694s-3.6144 1.2813-3.7694 3.2081l-0.0487 0.4272v-23.144l-0.0073 0.1121c0.1237-1.929-1.3398-3.5931-3.2688-3.7168s-3.5931 1.3398-3.7168 3.2688v22.671c0-1.933-1.567-3.5-3.5-3.5s-3.5 1.567-3.5 3.5"/></g></svg>