<svg xmlns="http://www.w3.org/2000/svg" id="a" version="1.1" viewBox="0 0 72 72"><g id="b"><path fill="#c19a65" d="m39.822 32.522 4.0087-21.643c1.8086-7.7501-5.693-10.014-7.6152-1.7771l-3.6586 19.236c-0.7941 3.5808-1.8856 5.1414-3.2721 5.7653-2.3799 1.0711-4.5703-2.4069-5.5939-4.8077l-5.2927-12.413c-3.2362-7.0282-9.7419-3.7315-7.1376 2.7429l7.2784 16.518-1.2882-2.9677-3.1633-7.2934c-2.7812-5.8647-8.75-3.521-6.8125 2.2915 0 0 4.3337 10.662 5.6042 14.281 1.6565 4.7184 3.351 14.821 5.9365 19.102 5.6263 9.3151 20.608 8.1089 27.866 0 2.0403-2.2795 5.6369-7.247 7.6442-9.5556 2.7887-3.2074 10.086-11.535 10.086-11.535 1.4629-2.1582 0.3282-5.4939-0.8007-4.6726l-14.69 5.3904c-1.0085 0.339-1.6661-0.4599-2.0902-1.096-0.3091-0.4636 0.0883-2.0531 0.2066-2.7705 1.3997-7.8137 2.7993-15.627 4.199-23.441 1.195-5.9529-6.1175-8.1404-7.5747-2.0134"/></g><g id="c" fill="none" stroke="#000" stroke-linecap="round" stroke-linejoin="round" stroke-width="2"><path d="m39.822 32.522 4.0087-21.643c1.8086-7.7501-5.693-10.014-7.6152-1.7771l-3.6586 19.236c-0.7941 3.5808-1.8856 5.1414-3.2721 5.7653-2.3799 1.0711-4.5703-2.4069-5.5939-4.8077l-5.2927-12.413c-3.2362-7.0282-9.7419-3.7315-7.1376 2.7429l7.2784 16.518-1.2882-2.9677-3.1633-7.2934c-2.7812-5.8647-8.75-3.521-6.8125 2.2915 0 0 4.3337 10.662 5.6042 14.281 1.6565 4.7184 3.351 14.821 5.9365 19.102 5.6263 9.3151 20.608 8.1089 27.866 0 2.0403-2.2795 5.6369-7.247 7.6442-9.5556 2.7887-3.2074 10.086-11.535 10.086-11.535 1.4629-2.1582 0.3282-5.4939-0.8007-4.6726l-14.69 5.3904c-1.0085 0.339-1.6661-0.4599-2.0902-1.096-0.3091-0.4636 0.0883-2.0531 0.2066-2.7705 1.3997-7.8137 2.7993-15.627 4.199-23.441 1.195-5.9529-6.1175-8.1404-7.5747-2.0134"/><path d="m39.822 32.522 4.0087-21.643c1.8086-7.7501-5.693-10.014-7.6152-1.7771l-3.6586 19.236c-0.7941 3.5808-1.8856 5.1414-3.2721 5.7653-2.3799 1.0711-4.5703-2.4069-5.5939-4.8077l-5.2927-12.413c-3.2362-7.0282-9.7419-3.7315-7.1376 2.7429l7.2784 16.518-1.2882-2.9677-3.1633-7.2934c-2.7812-5.8647-8.75-3.521-6.8125 2.2915 0 0 4.3337 10.662 5.6042 14.281 1.6565 4.7184 3.351 14.821 5.9365 19.102 5.6263 9.3151 20.608 8.1089 27.866 0 2.0403-2.2795 5.6369-7.247 7.6442-9.5556 2.7887-3.2074 10.086-11.535 10.086-11.535 1.4629-2.1582 0.3282-5.4939-0.8007-4.6726l-14.69 5.3904c-1.0085 0.339-1.6661-0.4599-2.0902-1.096-0.3091-0.4636 0.0883-2.0531 0.2066-2.7705 1.3997-7.8137 2.7993-15.627 4.199-23.441 1.195-5.9529-6.1175-8.1404-7.5747-2.0134"/></g></svg>