<svg xmlns="http://www.w3.org/2000/svg" id="a" viewBox="0 0 72 72"><g id="b"><polygon fill="#9B9B9A" points="56.5 57.039 68.5 57.039 68.5 15.929 4.5 15.929 4.5 57.039 16.5 57.039"/><polyline fill="#9B9B9A" points="16.5 56 4.5 56 4.5 15.929 68.5 15.929 68.5 56 56.5 56"/><rect width="7.141" height="40.071" x="5.393" y="15.929" fill="#D0CFCE"/><rect width="7.918" height="40.071" x="60.136" y="15.929" fill="#D0CFCE"/><polyline fill="#D0CFCE" points="15.501 15.412 15.501 4.992 57.499 4.992 57.499 15.929"/><polyline fill="#D0CFCE" stroke-linecap="round" stroke-linejoin="round" stroke-miterlimit="10" stroke-width="2" points="16.5 12.503 16.5 4.992 56.5 4.992 56.5 12.875"/><polyline fill="#3F3F3F" points="52.54 44.433 52.54 68 20.46 68 20.46 44.433"/><polyline fill="#3F3F3F" stroke-linecap="round" stroke-linejoin="round" stroke-miterlimit="10" stroke-width="2" points="51.586 50.587 51.586 68 21.414 68 21.414 50.587"/><line x1="61.145" x2="61.145" y1="20.335" y2="52.285" fill="#fff" stroke-linecap="round" stroke-linejoin="round" stroke-miterlimit="10" stroke-width="2"/><polyline fill="#fff" stroke-linecap="round" stroke-linejoin="round" stroke-miterlimit="10" stroke-width="2" points="46.783 44.452 46.783 63.756 26.217 63.756 26.217 44.452"/><line x1="11.5" x2="11.5" y1="20.335" y2="52.285" fill="#fff" stroke-linecap="round" stroke-linejoin="round" stroke-miterlimit="10" stroke-width="2"/></g><g id="c" fill="none" stroke="#000" stroke-linecap="round" stroke-linejoin="round" stroke-miterlimit="10" stroke-width="2"><polyline points="16.5 12.503 16.5 4.992 56.5 4.992 56.5 12.875"/><polyline points="51.586 50.587 51.586 68 21.414 68 21.414 50.587"/><line x1="61.145" x2="61.145" y1="20.335" y2="52.285"/><polyline points="46.783 44.452 46.783 63.756 26.217 63.756 26.217 44.452"/><line x1="29.528" x2="43.472" y1="48.378" y2="48.378"/><line x1="29.528" x2="43.472" y1="53.205" y2="53.205"/><line x1="29.528" x2="43.472" y1="58.504" y2="58.504"/><line x1="11.5" x2="11.5" y1="20.335" y2="52.285"/><path d="m16.5 52.285v-3.1353c0-2.6048 2.1116-4.7164 4.7164-4.7164h30.567c2.6048 0 4.7164 2.1116 4.7164 4.7164v3.1353"/><polyline points="56.5 56 68.5 56 68.5 15.929 4.5 15.929 4.5 56 16.5 56"/></g></svg>