<?xml version="1.0" encoding="UTF-8"?>
<svg id="a" viewBox="0 0 72 72" xmlns="http://www.w3.org/2000/svg"><g id="b"><path d="m44.183 60.958c0 4.9583 7.8401 7.0417 7.8401 7.0417h-31.62s7.8401-2.0833 7.8401-7.0417v-4.9336h15.778l0.1618 4.9336z" fill="#D0CFCE"/><path d="m63.194 56h-53.962c-2.8026 0-5.0746-2.272-5.0746-5.0746v-34.892c0-2.8026 2.272-5.0746 5.0746-5.0746h53.962c2.8026 0 5.0746 2.272 5.0746 5.0746v34.892c0 2.8026-2.272 5.0746-5.0746 5.0746z" fill="#9B9B9A" stroke-linecap="round" stroke-linejoin="round" stroke-miterlimit="10" stroke-width="2"/><path d="m67.547 46.721-63.334-22.521v-9.4576c0-1.8455 1.827-3.135 3.5659-2.5167l59.768 21.253v13.242z" fill="#fff"/><path d="m68.269 47.563s0.1688 4.8556-1.5499 6.8305-0.7221 1.6035-3.5247 1.6035h-53.962c-2.8026 0-4.164-1.852-4.164-2.4434l-0.9106-5.9906" fill="#D0CFCE" stroke-linecap="round" stroke-linejoin="round" stroke-miterlimit="10" stroke-width=".9187"/></g><g id="c" fill="none" stroke="#000" stroke-linecap="round" stroke-linejoin="round" stroke-miterlimit="10"><path d="m63.194 56h-53.962c-2.8026 0-5.0746-2.272-5.0746-5.0746v-34.892c0-2.8026 2.272-5.0746 5.0746-5.0746h53.962c2.8026 0 5.0746 2.272 5.0746 5.0746v34.892c0 2.8026-2.272 5.0746-5.0746 5.0746z" stroke-width="2"/><path d="m68.269 47.563s0.1688 4.8556-1.5499 6.8305-0.7221 1.6035-3.5247 1.6035h-53.962c-2.8026 0-4.164-1.852-4.164-2.4434l-0.9106-5.9906" stroke-width=".9187"/><path d="m63.194 56h-53.962c-2.8026 0-5.0746-2.272-5.0746-5.0746v-34.892c0-2.8026 2.272-5.0746 5.0746-5.0746h53.962c2.8026 0 5.0746 2.272 5.0746 5.0746v34.892c0 2.8026-2.272 5.0746-5.0746 5.0746z" stroke-width="2"/><line x1="7.2132" x2="65.213" y1="48.492" y2="48.492" stroke-width="2"/><path d="m43.183 60.958c0 4.9583 8.8401 7.0417 8.8401 7.0417h-31.62s8.8401-2.0833 8.8401-7.0417" stroke-width="2"/></g></svg>
