<?xml version="1.0" encoding="UTF-8"?>
<svg id="a" viewBox="0 0 72 72" xmlns="http://www.w3.org/2000/svg"><g id="b"><polygon points="56.5 57.039 68.5 57.039 68.5 15.929 4.5 15.929 4.5 57.039 16.5 57.039" fill="#9B9B9A"/><polyline points="16.5 56 4.5 56 4.5 15.929 68.5 15.929 68.5 56 56.5 56" fill="#9B9B9A"/><rect x="5.3926" y="15.929" width="7.1411" height="40.071" fill="#D0CFCE"/><rect x="60.136" y="15.929" width="7.9178" height="40.071" fill="#D0CFCE"/><polyline points="15.501 15.412 15.501 4.9923 57.499 4.9923 57.499 15.929" fill="#D0CFCE"/><polyline points="16.5 12.503 16.5 4.9923 56.5 4.9923 56.5 12.875" fill="#D0CFCE" stroke-linecap="round" stroke-linejoin="round" stroke-miterlimit="10" stroke-width="2"/><polyline points="52.54 44.433 52.54 68 20.46 68 20.46 44.433" fill="#3F3F3F"/><polyline points="51.586 50.587 51.586 68 21.414 68 21.414 50.587" fill="#3F3F3F" stroke-linecap="round" stroke-linejoin="round" stroke-miterlimit="10" stroke-width="2"/><line x1="61.145" x2="61.145" y1="20.335" y2="52.285" fill="#fff" stroke-linecap="round" stroke-linejoin="round" stroke-miterlimit="10" stroke-width="2"/><polyline points="46.783 44.452 46.783 63.756 26.217 63.756 26.217 44.452" fill="#fff" stroke-linecap="round" stroke-linejoin="round" stroke-miterlimit="10" stroke-width="2"/><line x1="11.5" x2="11.5" y1="20.335" y2="52.285" fill="#fff" stroke-linecap="round" stroke-linejoin="round" stroke-miterlimit="10" stroke-width="2"/></g><g id="c" fill="none" stroke="#000" stroke-linecap="round" stroke-linejoin="round" stroke-miterlimit="10" stroke-width="2"><polyline points="16.5 12.503 16.5 4.9923 56.5 4.9923 56.5 12.875"/><polyline points="51.586 50.587 51.586 68 21.414 68 21.414 50.587"/><line x1="61.145" x2="61.145" y1="20.335" y2="52.285"/><polyline points="46.783 44.452 46.783 63.756 26.217 63.756 26.217 44.452"/><line x1="29.528" x2="43.472" y1="48.378" y2="48.378"/><line x1="29.528" x2="43.472" y1="53.205" y2="53.205"/><line x1="29.528" x2="43.472" y1="58.504" y2="58.504"/><line x1="11.5" x2="11.5" y1="20.335" y2="52.285"/><path d="m16.5 52.285v-3.1353c0-2.6048 2.1116-4.7164 4.7164-4.7164h30.567c2.6048 0 4.7164 2.1116 4.7164 4.7164v3.1353"/><polyline points="56.5 56 68.5 56 68.5 15.929 4.5 15.929 4.5 56 16.5 56"/></g></svg>
