<svg xmlns="http://www.w3.org/2000/svg" id="a" viewBox="0 0 72 72"><g id="b"><rect width="50" height="36" x="11" y="21" fill="#d0cfce"/><rect width="50" height="4" x="11" y="21" fill="#9b9b9a"/><rect width="50" height="4" x="11" y="25" fill="#9b9b9a"/><path fill="#b1cc33" d="m17.565 16h5.87a1.565 1.565 0 0 1 1.565 1.565v3.435h-9v-3.435a1.565 1.565 0 0 1 1.565-1.565z"/><path fill="#ea5a47" d="m30.565 20h5.87a1.565 1.565 0 0 1 1.565 1.565v3.435h-9v-3.435a1.565 1.565 0 0 1 1.565-1.565z"/><path fill="#92d3f5" d="m19.565 24h5.87a1.565 1.565 0 0 1 1.565 1.565v3.435h-9v-3.435a1.565 1.565 0 0 1 1.565-1.565z"/></g><g id="c" fill="none" stroke="#000" stroke-linecap="round" stroke-linejoin="round" stroke-width="2"><line x1="11" x2="61" y1="29" y2="29"/><line x1="26.893" x2="61" y1="25" y2="25"/><line x1="11" x2="18.108" y1="25" y2="25"/><polyline points="29 21 11 21 11 57 61 57 61 21 37.893 21"/><path d="m17.565 16h5.87a1.565 1.565 0 0 1 1.565 1.565v3.435h-9v-3.435a1.565 1.565 0 0 1 1.565-1.565z"/><path d="m30.565 20h5.87a1.565 1.565 0 0 1 1.565 1.565v3.435h-9v-3.435a1.565 1.565 0 0 1 1.565-1.565z"/><path d="m19.565 24h5.87a1.565 1.565 0 0 1 1.565 1.565v3.435h-9v-3.435a1.565 1.565 0 0 1 1.565-1.565z"/></g></svg>