<svg xmlns="http://www.w3.org/2000/svg" id="a" viewBox="0 0 72 72"><g id="b"><path fill="#3f3f3f" d="M18,55h36V13H18V55z"/><path fill="#d0cfce" d="m22.27 17.011v14h27.499v-14h-27.499z"/><path fill="#d0cfce" d="m49.769 50.829v-14h-27.499v14h27.499z"/><rect width="11.983" height="4.357" x="29.947" y="19.676" fill="#9B9B9A"/><rect width="12.679" height="4.067" x="29.595" y="39.793" fill="#9B9B9A"/><line x1="17.009" x2="55" y1="60.003" y2="60.003" fill="#d0cfce" stroke-linecap="round" stroke-linejoin="round" stroke-miterlimit="10" stroke-width="2"/></g><g id="c" fill="none" stroke="#000" stroke-linecap="round" stroke-linejoin="round" stroke-miterlimit="10" stroke-width="2"><rect width="38" height="44" x="17" y="12"/><line x1="17.009" x2="55" y1="60.003" y2="60.003"/><rect width="29.5" height="16" x="21.269" y="35.829"/><rect width="12.399" height="4.116" x="29.735" y="39.713"/><line x1="42.134" x2="29.735" y1="47.829" y2="47.829"/><rect width="29.5" height="16" x="21.269" y="16.011"/><rect width="12.399" height="4.116" x="29.735" y="19.895"/><line x1="42.134" x2="29.735" y1="28.011" y2="28.011"/></g></svg>