<svg xmlns="http://www.w3.org/2000/svg" id="a" viewBox="0 0 72 72"><g id="b"><path fill="#fff" d="m11.973 28.204 0.123 31.806 31.601-0.082 16.231-12.378 0.1229-19.469-48.078 0.123z"/><path fill="#ea5a47" d="m12.142 28.14h47.71v-15.888h-47.71v15.888zm37.855-11.381h0.0307c0.841 0.0081 1.6281 0.3433 2.2169 0.9435 0.5897 0.6004 0.9094 1.3941 0.901 2.2351-0.0162 1.7261-1.426 3.1186-3.1479 3.1186h-0.0307c-1.7357-0.017-3.134-1.4429-3.1179-3.1786 0.0162-1.7261 1.426-3.1186 3.1479-3.1186zm-30.27 0.848c0.6109-0.5985 1.4156-0.9273 2.2694-0.9273h0.0317c1.7866 0.0174 3.2267 1.4852 3.2101 3.2719-0.0166 1.7768-1.4678 3.2102-3.2403 3.2102h-0.0316c-1.7867-0.0175-3.2267-1.4852-3.2101-3.2719 0.0078-0.8656 0.3528-1.6763 0.9708-2.2829z"/><path fill="#d0cfce" d="m56.956 49.038h-12.817v4.4795c0 0.5527-0.4473 1-1 1-0.502 0-0.8992-0.3752-0.9712-0.8569v5.4255l1.1596-3e-4 13.629-10.048z"/></g><g id="c"><ellipse cx="21.997" cy="19.941" fill="none" fill-rule="evenodd" stroke="#000" stroke-linecap="round" stroke-linejoin="round" stroke-miterlimit="10" stroke-width="2" clip-rule="evenodd" rx="3" ry="3" transform="matrix(.0096 -1 1 .0096 1.8467 41.746)"/><rect width="48" height="16" x="11.997" y="12.214" fill="none" stroke="#000" stroke-linecap="round" stroke-linejoin="round" stroke-miterlimit="10" stroke-width="2"/><ellipse cx="49.998" cy="19.941" fill="none" fill-rule="evenodd" stroke="#000" stroke-linecap="round" stroke-linejoin="round" stroke-miterlimit="10" stroke-width="2" clip-rule="evenodd" rx="3" ry="3" transform="matrix(.0096 -1 1 .0096 29.579 69.745)"/><polyline fill="none" stroke="#000" stroke-linecap="round" stroke-linejoin="round" stroke-miterlimit="10" stroke-width="2" points="11.997 28.092 11.997 60.092 43.656 60.086 59.997 48.038 59.997 28.092"/><ellipse cx="18.217" cy="33.673" rx="2" ry="2" transform="matrix(.0096 -1 1 .0096 -15.628 51.567)"/><ellipse cx="24.217" cy="33.673" rx="2" ry="2" transform="matrix(.0096 -1 1 .0096 -9.6857 57.566)"/><ellipse cx="30.217" cy="33.673" rx="2" ry="2" transform="matrix(.0096 -1 1 .0096 -3.743 63.566)"/><ellipse cx="36.217" cy="33.673" rx="2" ry="2" transform="matrix(.0096 -1 1 .0096 2.1997 69.566)"/><ellipse cx="18.217" cy="39.673" rx="2" ry="2" transform="matrix(.0096 -1 1 .0096 -21.628 57.51)"/><ellipse cx="24.217" cy="39.673" rx="2" ry="2" transform="matrix(.0096 -1 1 .0096 -15.686 63.509)"/><ellipse cx="30.217" cy="39.673" rx="2" ry="2" transform="matrix(.0096 -1 1 .0096 -9.7428 69.509)"/><ellipse cx="36.217" cy="39.673" rx="2" ry="2" transform="matrix(.0096 -1 1 .0096 -3.8001 75.509)"/><ellipse cx="18.217" cy="45.673" rx="2" ry="2" transform="matrix(.0096 -1 1 .0096 -27.628 63.452)"/><polyline fill="none" stroke="#000" stroke-linecap="round" stroke-linejoin="round" stroke-miterlimit="10" stroke-width="2" points="59.869 48.038 43.138 48.038 43.138 53.518"/></g></svg>