<?xml version="1.0" encoding="UTF-8"?>
<svg id="a" viewBox="0 0 72 72" xmlns="http://www.w3.org/2000/svg"><g id="b" fill="#3F3F3F"><path d="m58.37 24.89c-1.08-1.1-3.71-2.83-4.62-4.07-0.91-1.23-1.78-4.23-2.51-5.58-2.02-3.76-7.42-4.16-10.85-1.63l-1.26 0.94c-3.43 2.53-4.76 7.94-1.63 10.84 1.15 1.0699 3.81 2.8199 4.74 4.08 0.92 1.25 1.72 4.17 2.39 5.57 1.85 3.84 7.42 4.16 10.85 1.63l1.26-0.94c3.43-2.53 4.63-7.81 1.63-10.84zm-2.27 5.47c-0.43 2.69-2.96 4.52-5.66 4.09-2.69-0.43-4.24-2.93-4.09-5.65 0.17-3.16-2.53-3.12-2.53-3.12-2.69-0.43-4.53-2.97-4.1-5.66 0.44-2.69 2.97-4.52 5.66-4.09s4.53 2.96 4.09 5.66c0 0-0.71 3.02 2.54 3.11 2.72 0.08 4.52 2.97 4.09 5.66z"/><path d="m23.601 51.644-2.1982-2.0492 22.848-16.862-4.7101-5.8533-28.64 21.876 3.7532 5.3766 2.7892-2.1465 2.0937 2.4889-2.709 2.2642 3.2333 3.9188 2.2284-1.7852s0.4556-3.5319 4.0198-3.135l2.3595-2.003-2.9275-3.701-2.1409 1.6109z"/></g><g id="c" fill="none" stroke="#000" stroke-miterlimit="10" stroke-width="2"><path d="m40.561 34.561-19.357 14.62 2.1566 2.6035 2.1005-1.5861 2.8721 3.6437-2.3148 1.9719c-3.4969-0.3907-3.9438 3.0865-3.9438 3.0865l-2.1862 1.7576-3.1722-3.8581 2.6578-2.2291-2.0541-2.4503-2.7365 2.1132-3.6823-4.5398 26.179-19.779" stroke-linecap="round" stroke-linejoin="round"/><path d="m58.37 24.89c-1.08-1.1-3.71-2.83-4.62-4.07-0.91-1.23-1.78-4.23-2.51-5.58-2.02-3.76-7.42-4.16-10.85-1.63l-1.26 0.94c-3.43 2.53-4.76 7.94-1.63 10.84 1.15 1.0699 3.81 2.8199 4.74 4.08 0.92 1.25 1.72 4.17 2.39 5.57 1.85 3.84 7.42 4.16 10.85 1.63l1.26-0.94c3.43-2.53 4.63-7.81 1.63-10.84zm-2.27 5.47c-0.43 2.69-2.96 4.52-5.66 4.09-2.69-0.43-4.24-2.93-4.09-5.65 0.17-3.16-2.53-3.12-2.53-3.12-2.69-0.43-4.53-2.97-4.1-5.66 0.44-2.69 2.97-4.52 5.66-4.09s4.53 2.96 4.09 5.66c0 0-0.71 3.02 2.54 3.11 2.72 0.08 4.52 2.97 4.09 5.66z"/></g></svg>
