<svg xmlns="http://www.w3.org/2000/svg" id="a" viewBox="0 0 72 72"><g id="b"><rect width="3" height="3.383" x="43" y="36.166" fill="#9B9B9A"/><rect width="3" height="12" x="43.001" y="46.166" fill="#9B9B9A"/><rect width="8" height="3" x="41" y="22.166" fill="#9B9B9A"/><path fill="#D0CFCE" d="m47 45.777h-24.323c-2.5832 0-4.6774-2.0941-4.6774-4.6774v-18.71c0-5.1665 4.1883-9.3548 9.3548-9.3548h14.968c2.5833 0 4.6774 2.0942 4.6774 4.6774v4.0092h-4.9714c0-1.6976-1.3762-3.0737-3.0737-3.0737h-9.836c-3.3952 0-6.1475 2.7523-6.1475 6.1475v12.295c0 1.6976 1.3762 3.0737 3.0737 3.0737h20.955v5.6128z"/></g><g id="c" fill="none" stroke="#000" stroke-linecap="round" stroke-linejoin="round" stroke-miterlimit="10" stroke-width="2"><path d="m47 45.777h-24.323c-2.5832 0-4.6774-2.0941-4.6774-4.6774v-18.71c0-5.1665 4.1883-9.3548 9.3548-9.3548h14.968c2.5833 0 4.6774 2.0942 4.6774 4.6774v4.0092h-4.9714c0-1.6976-1.3762-3.0737-3.0737-3.0737h-9.836c-3.3952 0-6.1475 2.7523-6.1475 6.1475v12.295c0 1.6976 1.3762 3.0737 3.0737 3.0737h20.955v5.6128z"/><rect width="5" height="13" x="42" y="45.906"/><rect width="10" height="3.643" x="40" y="21.906"/><path d="M42,36.7186v3.1878h5v-3.1878c0-0.4485-0.4545-0.8122-1.0152-0.8122h-2.9696C42.4545,35.9065,42,36.2701,42,36.7186z"/><line x1="41" x2="37" y1="52.166" y2="52.166"/><line x1="52" x2="48" y1="52.166" y2="52.166"/></g></svg>