<?xml version="1.0" encoding="UTF-8"?>
<svg id="a" viewBox="0 0 72 72" xmlns="http://www.w3.org/2000/svg"><g id="b"><polygon points="15.076 12.068 15.076 18.019 50.82 18.019 51.465 12.068" fill="#D0CFCE"/><polygon points="21.909 54.689 22.409 59.971 43.927 59.971 44.518 54.689" fill="#D0CFCE"/><polygon points="42.096 60.178 49.418 60.178 49.934 54.447 42.696 54.447" fill="#9B9B9A"/><polygon points="56.529 12.288 48.939 12.288 48.311 17.901 56.529 17.901" fill="#9B9B9A"/></g><g id="c" fill="none" stroke="#000" stroke-miterlimit="10"><line x1="21.38" x2="17.773" y1="50.393" y2="22.012" stroke-linecap="round" stroke-linejoin="round" stroke-width="2"/><line x1="54.263" x2="50.506" y1="21.984" y2="50.378" stroke-linecap="round" stroke-linejoin="round" stroke-width="2"/><line x1="40.576" x2="48.749" y1="22.089" y2="32.109" stroke-linecap="round" stroke-linejoin="round" stroke-width="2"/><line x1="30.417" x2="47.569" y1="22.13" y2="42.772" stroke-linecap="round" stroke-linejoin="round" stroke-width="2"/><line x1="22.352" x2="44.216" y1="24.253" y2="50.425" stroke-linecap="round" stroke-linejoin="round" stroke-width="2"/><line x1="23.902" x2="35.928" y1="36.996" y2="50.63" stroke-linecap="round" stroke-linejoin="round" stroke-width="2"/><line x1="25.317" x2="26.68" y1="49.396" y2="50.753" stroke-linecap="round" stroke-linejoin="round" stroke-width="2"/><line x1="23.228" x2="31.813" y1="31.234" y2="22.103" stroke-linecap="round" stroke-linejoin="round" stroke-width="2"/><line x1="24.61" x2="42.853" y1="41.882" y2="22.13" stroke-linecap="round" stroke-linejoin="round" stroke-width="2"/><line x1="26.885" x2="49.382" y1="50.63" y2="26.715" stroke-linecap="round" stroke-linejoin="round" stroke-width="2"/><line x1="36.574" x2="48.117" y1="50.63" y2="38.684" stroke-linecap="round" stroke-linejoin="round" stroke-width="2"/><line x1="44.216" x2="46.343" y1="50.753" y2="48.96" stroke-linecap="round" stroke-linejoin="round" stroke-width="2"/><rect x="14.906" y="12.028" width="42.045" height="5.9459" stroke-linecap="round" stroke-linejoin="round" stroke-width="2"/><line x1="42.853" x2="50.124" y1="54.404" y2="54.404"/><polyline points="50.124 54.404 49.416 59.966 22.43 59.966 21.749 54.404 50.124 54.404" stroke-linecap="round" stroke-linejoin="round" stroke-width="2"/></g></svg>
