<?xml version="1.0" encoding="UTF-8"?>
<svg id="a" viewBox="0 0 72 72" xmlns="http://www.w3.org/2000/svg"><g id="b"><path d="m18.731 35.288 32.323-20.183s12.148 2.3457 9.6687 13.985l-10.005 8.8024-22.144 17.012s3.265-6.7108-0.0966-10.642a87.228 87.228 0 0 0-9.746-8.9742z" fill="#d0cfce"/><path d="m23.232 39.082-2.924 2.4575s5.1675 1.8864 5.5582 4.8693 0.112 5.1147-0.5208 6.3865-1.5339 3.01-7.7116 3.52c0 0 3.5921 3.6172 5.7058 2.54s6.1977-3.2394 6.3307-4.793 0.61-8.3143-0.6677-9.4794-5.7706-5.5009-5.7706-5.5009z" fill="#9b9b9a"/><path d="M16.3468,56.4944s-3.09.5421-3.54-9.2745c0,0,2.204-5.6592,5.4531-4.9507,0,0,6.3952.8884,4.3931,6.403,0,0-2.7457-4.7324-4.8049-1.9766,0,0-2.4963,5.449,1.3831,7.4591,0,0,3.8718.7912,4.6268,0S22.653,58.8549,16.3468,56.4944Z" fill="#d0cfce"/><path d="m21.458 43.337a6.4586 6.4586 0 0 1 0.4513 5.5146s-0.206 4.5555-3.65 3.057c0 0 0.5034 2.3376 3.7639 2.0979 0 0 5.3319-0.4781 4.2206-6.787 5e-4 1e-4 -2.0909-3.8225-4.7858-3.8825z" fill="#9b9b9a"/><path d="M21.4581,48.1926s-.8292-2.5175-3.049-1.6184c0,0-1.9053,2.5775-.7755,4.7953a2.27,2.27,0,0,0,1.0972,1.7982s3.1907-.6855,3.07-3.52Z" fill="#d0cfce"/><path d="m46.644 40.815a12.54 12.54 0 0 0-5.1888-14.202l-11.587 7.1892s9.4553 5.7543 6.8227 15.345z" fill="#3f3f3f"/></g><g id="c" fill="none" stroke="#000" stroke-linecap="round" stroke-linejoin="round" stroke-width="2"><path d="m48.074 16.79c1.5539-0.9135 3.2775-2.0476 5.1366-1.6845a11.644 11.644 0 0 1 8.789 9.21c0.5589 2.9164-1.3411 5.6107-3.4232 7.2949"/><path d="m28.666 44.582s-2.967-5.306-10.406-8.9976l29.814-18.795"/><line x1="26.918" x2="58.577" y1="56.914" y2="31.61"/><path d="M21.9094,48.852c.0858-3.1169-2.2309-2.9971-2.2309-2.9971-1.6223-.103-2.3394,1.3973-2.6559,2.6974a5.2371,5.2371,0,0,0,.3447,3.504c2.09,4.31,6.5755,1.9634,6.5755,1.9634a5.8246,5.8246,0,0,0,2.5659-5.6731,3.9532,3.9532,0,0,0-.3332-1.3079,7.6974,7.6974,0,0,0-5.41-4.7587,6.4607,6.4607,0,0,0-7.1889,3.8446,11.6134,11.6134,0,0,0-.5913,1.6671,4.9354,4.9354,0,0,0-.1586.9214,9.557,9.557,0,0,0,4.0008,8.6531c7.2447,4.4384,11.7463-2.4617,11.7463-2.4617a9.2057,9.2057,0,0,0,.8758-8.6C27.179,39.86,18.26,35.5849,18.26,35.5849"/><path d="m16.347 43.011c0.3429-0.1894 6.3062-3.93 6.3062-3.93"/><path d="m53.34 35.585c0.1579-9.66-7.0056-12.987-7.0056-12.987"/><path d="m58.577 31.61a11.359 11.359 0 0 0-5.4208-10.75"/><path d="m46.644 40.815a12.54 12.54 0 0 0-5.1888-14.202l-11.587 7.1892s9.4553 5.7543 6.8227 15.345z"/></g></svg>
