<svg xmlns="http://www.w3.org/2000/svg" id="a" viewBox="0 0 72 72"><g id="b"><path fill="#fff" stroke-linecap="round" stroke-linejoin="round" stroke-miterlimit="10" stroke-width="2" d="m54.881 49.128c2.5938-3.7233 4.1192-8.2465 4.1192-13.128 0-12.703-10.297-23-23-23s-23 10.297-23 23c0 12.702 10.297 23 23 23 3.7581 0 7.3021-0.9071 10.435-2.5054l10.542 4.4956-1.0836-6.1324-1.0125-5.7295z"/></g><g id="c"><path fill="none" stroke="#000" stroke-linecap="round" stroke-linejoin="round" stroke-miterlimit="10" stroke-width="2" d="m54.881 49.128c2.5938-3.7233 4.1192-8.2465 4.1192-13.128 0-12.703-10.297-23-23-23s-23 10.297-23 23c0 12.702 10.297 23 23 23 3.7581 0 7.3021-0.9071 10.435-2.5054l10.542 4.4956-1.0836-6.1324-1.0125-5.7295z"/></g></svg>