<svg xmlns="http://www.w3.org/2000/svg" id="a" viewBox="0 0 72 72"><g id="b" fill="#D0CFCE"><path d="m58 60.886s0-3-1-7c-1.2109-4.8457-4-8-10-8h-22c-6 0-8.7891 3.1543-10 8-1 4-1 7-1 7"/><path d="m49 30.597c-1-3 3-3 2-5s-3-2.7642-3-5c0-3-1-11-9-11-12.004 0-15 7.3437-15 12 0 4.1094 2.5908 7.1806 4 10 2 4 5.1533 7.3955 7 8.0107 4.2422 1.4141 13 2.3467 13-1.0107 0-2 1-3.0137 1-4l-3-2 3-2z"/></g><g id="c" fill="none" stroke="#000" stroke-linejoin="round" stroke-width="2"><path d="M49.2725,31.2139 c-0.0957-0.7959-0.7422-2.1094-0.6172-3.1016c0,0,3.9052-0.7129,2.3584-2.7266c-0.8653-1.1279-2.5801-3.3496-2.4766-4.3437 C49,16.5967,47,9.5967,38,9.5967c-11,0-14,7-14,12c0,5.8086,2.9883,8,4,11c1.4414,4.2724,5,7,11,8c3.9443,0.6572,10,1,9.3975-3 c-0.1602-1.0645,0.3759-2.417,0.499-3.3965l-2.8506-1.377L49.2725,31.2139z"/><line x1="54" x2="56" y1="28.597" y2="26.597" stroke-linecap="round"/><line x1="56" x2="58" y1="31.482" y2="31.482" stroke-linecap="round"/><line x1="54" x2="56" y1="34" y2="36" stroke-linecap="round"/><path stroke-linecap="round" d="m58 59.886s0-2-1-6c-1.2109-4.8457-6-8-12-8h-17c-6 0-11.789 3.1543-13 8-1 4-1 6-1 6"/></g></svg>