<svg xmlns="http://www.w3.org/2000/svg" id="a" version="1.1" viewBox="0 0 72 72"><g id="b"><path fill="#9B9B9A" d="m66.97 53.808-5.3008-4.5762-3.8887-4.8564c-0.0459-0.0576-0.0977-0.1094-0.1553-0.1562l-4.9219-3.9375-2.918-3.4854c-0.0342-0.041-0.0713-0.0786-0.1104-0.1133l-5.1201-4.4468-6.2402-5.0928c-0.1914-0.1567-0.4336-0.2363-0.6807-0.2241l-1.6336 0.0811h-4c-0.2651 0-0.5195 0.1055-0.707 0.293l-7.9331 7.939-6 4.9995c-0.0552 0.0459-0.105 0.0977-0.1489 0.1543l-5.3428 6.8584-7.3042 6.5771c-0.3076 0.2773-0.4131 0.7148-0.2646 1.1016s0.5195 0.6416 0.9336 0.6416h61.084c0.418 0 0.792-0.2598 0.9375-0.6514s0.0321-0.833-0.2843-1.1055z"/><path fill="#fff" d="m52.557 40.104-2.6993-3.3375-5.9348-5.2688-6.2397-5.093-1.6828 0.0821h-4l-3 3-5.8393 5.7303-5.8431 5.0442c0.4301 0.3941 3.6824 1.2255 4.6824 0.2255 0.932-0.932 1.7738-1.1595 2-1 0.2881 0.2032-0.4439 1.5363-1 4-0.2829 1.2534-0.2761 2.7175 0 3 0.4433 0.4537 1 0 2-1l1-1c1-1 2-3 3-3s1 1.1991 1 2c0 1-0.1171 1.9887 0 3 0.101 0.872 0 2 1 2 0.9445 0 2-4 3-5s3-1 4 0 3 4 4 3c3-1 1-4 2-4 0.8019 0 1.5452 0.684 3 2 0.9605 0.8689 1.1031 1.3573 2 2 0.8247 0.591 1.6097 1.24 2 1 0.6221-0.3825 0.3075-3.026-1-5-0.5197-0.7846-0.537-1.4283 0-2 0.5896-0.6278 1.0866-0.8124 1.4422-0.6761l1.1144 0.2933z"/></g><g id="c" fill="none" stroke="#000" stroke-linecap="round" stroke-linejoin="round" stroke-miterlimit="10" stroke-width="2"><polyline points="66.316 54.565 60.946 49.929 57 45"/><line x1="52" x2="57" y1="41" y2="45"/><polyline points="5.233 54.565 12.603 47.929 18 41"/><polyline points="18 41 24 36 29 31 32 28 35 28 36 28 37.683 27.918 43.922 33.011 49.019 37.437 52 41"/><path d="m42 47c3-1 1-4 2-4 0.8019 0 1.5452 0.684 3 2 0.9605 0.8689 1.1031 1.3573 2 2 0.8247 0.591 1.6097 1.24 2 1 0.6221-0.3825 0.3075-3.026-1-5-0.5197-0.7846-0.5546-1.4454 0-2 1-1 1-0.734 1-1"/><path d="m18 41c0.4301 0.3941 3 1 4 0 0.932-0.932 1.7738-1.1595 2-1 0.2881 0.2032-0.4439 1.5363-1 4-0.2829 1.2534-0.2761 2.7175 0 3 0.4433 0.4537 1 0 2-1l1-1c1-1 2-3 3-3s1 1.1991 1 2c0 1-0.1171 1.9887 0 3 0.101 0.872 0 2 1 2 0.9445 0 2-4 3-5s3-1 4 0 3 4 4 3"/><path d="m52 41-2.9812-3.5627-5.0963-4.4264-6.2397-5.093-1.6828 0.0821h-4l-8 8-6 5c0.4301 0.3941 3 1 4 0 0.932-0.932 1.7738-1.1595 2-1 0.2881 0.2032-0.4439 1.5363-1 4-0.2829 1.2534-0.2761 2.7175 0 3 0.4433 0.4537 1 0 2-1l1-1c1-1 2-3 3-3s1 1.1991 1 2c0 1-0.1171 1.9887 0 3 0.101 0.872 0 2 1 2 0.9445 0 2-4 3-5s3-1 4 0 3 4 4 3c3-1 1-4 2-4 0.8019 0 1.5452 0.684 3 2 0.9605 0.8689 1.1031 1.3573 2 2 0.8247 0.591 1.6097 1.24 2 1 0.6221-0.3825 0.3075-3.026-1-5-0.5197-0.7846-0.5546-1.4454 0-2 1-1 1-0.734 1-1"/></g></svg>