<?xml version="1.0" encoding="UTF-8"?>
<svg id="a" viewBox="0 0 72 72" xmlns="http://www.w3.org/2000/svg"><g id="b"><rect x="36.118" y="7" width=".9994" height="9.498" fill="#d22f27"/><rect x="35.068" y="7" width="1.0503" height="9.498" fill="#ea5a47"/><polygon points="41.824 22.646 36.142 22.646 36.142 18.394 41.06 18.394" fill="#d0cfce"/><path d="m36.16 48.84-0.0185 2.6071s-3.0975 0.077-5.3547 3.6929a14.111 14.111 0 0 0-1.6149 6.5818l-10.541-0.2452s6.8354-3.1377 8.8827-6.7536a50.835 50.835 0 0 0 2.5209-5.712" fill="#ea5a47"/><path d="m36.121 49.178-0.0026 2.2692s3.0974 0.077 5.3547 3.6929a14.111 14.111 0 0 1 1.6148 6.5818l10.541-0.2452s-6.8354-3.1377-8.8826-6.7536a48.79 48.79 0 0 1-2.3983-5.3975" fill="#d22f27"/><rect x="5.9595" y="63.412" width="30.04" height="2.5875" fill="#b1cc33"/><rect x="36" y="63.412" width="30.04" height="2.5875" fill="#5c9e31"/><polygon points="36.111 42.5 30.13 42.5 32.803 24.087 36.111 24.196" fill="#ea5a47"/><polygon points="40.931 42.5 36.111 42.5 36.111 24.196 40.343 24.196" fill="#d22f27"/><polygon points="43.031 47.984 36.178 47.984 36.178 43.907 44.04 43.907" fill="#d0cfce"/></g><g id="c" fill="none" stroke="#000" stroke-width="2"><polygon points="27.44 43.196 44.56 43.196 43.519 48.696 28.385 48.696" stroke-linecap="round" stroke-linejoin="round"/><rect x="5.0191" y="62.5" width="61.962" height="4.5" stroke-linecap="round" stroke-linejoin="round"/><path d="m29.786 62c0-5.314 2.8457-9.6218 6.3561-9.6218s6.356 4.3078 6.356 9.6218" stroke-miterlimit="10"/><path d="m42.878 49.5a17.042 17.042 0 0 0 3.03 5.8265 25.634 25.634 0 0 0 8.6617 6.6735" stroke-linecap="round" stroke-linejoin="round"/><path d="M40.2545,34.5912c-.0995-.9287-.2542-2.5213-.3586-4.5274-.1773-3.4091-.1-6.1179-.0849-6.14a104.18,104.18,0,0,0,1.61,19.158" stroke-linecap="round" stroke-linejoin="round"/><path d="m28.832 49.325a17.874 17.874 0 0 1-3.3641 7.0014 18.536 18.536 0 0 1-7.6913 5.5376" stroke-linecap="round" stroke-linejoin="round"/><path d="M31.9474,34.5912c.1-.9287.2542-2.5213.3585-4.5274.1774-3.4091.1-6.1179.085-6.14a104.18,104.18,0,0,1-1.61,19.158" stroke-linecap="round" stroke-linejoin="round"/><polyline points="36.182 17.5 30.745 17.5 30.202 23.386 42.162 23.386 41.619 17.5 36.182 17.5" stroke-linecap="round" stroke-linejoin="round"/><polyline points="34.444 17 34.444 6 37.792 6 37.792 17" stroke-linecap="round" stroke-linejoin="round"/></g></svg>
