<?xml version="1.0" encoding="UTF-8"?>
<svg id="a" viewBox="0 0 72 72" xmlns="http://www.w3.org/2000/svg"><g id="b"><circle cx="36" cy="36" r="24" fill="#FCEA2B"/><path d="m50.571 44.471s6.3864 4.2101 6.3864 7.6241c0 2.4671-1.5752 4.5107-4.2717 4.5107-3.7214 0-7.6844-6.2448-7.6844-6.2448" fill="#EA5A47"/></g><g id="c" fill="none" stroke="#000" stroke-miterlimit="10" stroke-width="2"><path d="m57.251 44.814c1.1272-2.7145 1.7494-5.6915 1.7494-8.8137 0-12.703-10.298-23-23-23-12.703 0-23 10.297-23 23 0 12.702 10.297 23 23 23 3.3707 0 6.5721-0.7251 9.4566-2.0279" stroke-linecap="round" stroke-linejoin="round"/><path d="m31.694 33.404c-1.0598-2.3854-3.8527-3.46-6.238-2.4002-1.0697 0.4752-1.9249 1.3305-2.4002 2.4002" stroke-linecap="round"/><path d="m48.944 33.404c-1.0598-2.3854-3.8527-3.46-6.238-2.4002-1.0697 0.4752-1.9249 1.3305-2.4002 2.4002" stroke-linecap="round"/><path d="m50.571 44.471s6.3864 4.2101 6.3864 7.6241c0 2.4671-1.5752 4.5107-4.2717 4.5107-3.7214 0-7.6844-6.2448-7.6844-6.2448"/><path d="m20.166 41.358c2.2328 6.6016 8.4783 11.354 15.834 11.354 7.3561 0 13.602-4.7533 15.835-11.356" stroke-linecap="round" stroke-linejoin="round"/></g></svg>
