<?xml version="1.0" encoding="UTF-8"?>
<svg id="a" viewBox="0 0 72 72" xmlns="http://www.w3.org/2000/svg"><g id="b"><path d="m36 13c-12.682 0-23 10.318-23 23 0 12.682 10.318 23 23 23 12.682 0 23-10.318 23-23 0-12.682-10.318-23-23-23z" fill="#FCEA2B"/></g><g id="c"><circle cx="36" cy="36" r="23" fill="none" stroke="#000" stroke-width="2"/><path d="m29.94 46.66c8.505 0.7027 16.67 0.4269 16.98-4.128" fill="none" stroke="#000" stroke-linecap="round" stroke-linejoin="round" stroke-miterlimit="10" stroke-width="2"/><path d="m41.93 26.77c0.4667-0.25 2.52-1.1 5.042-0.5743 2.118 0.3921 2.421 0.8283 3.73 1.725" fill="none" stroke="#000" stroke-linecap="round" stroke-linejoin="round" stroke-miterlimit="10" stroke-width="2"/><path d="m22.29 28.7c0.3266-0.4271 1.792-2.245 4.424-2.685 2.135-0.3566 3.794 0.4017 4.352 0.688" fill="none" stroke="#000" stroke-linecap="round" stroke-linejoin="round" stroke-miterlimit="10" stroke-width="2"/><path d="m32 33c0 1.6568-1.3448 3-3 3-1.6553 0-3-1.3433-3-3 0-1.6552 1.3447-3 3-3 1.6552 0 3 1.3448 3 3"/><path d="m50 33c0 1.6568-1.3447 3-3 3s-3-1.3433-3-3c0-1.6552 1.3447-3 3-3s3 1.3448 3 3"/></g></svg>
