<?xml version="1.0" encoding="UTF-8"?>
<svg id="a" viewBox="0 0 72 72" xmlns="http://www.w3.org/2000/svg"><g id="b"><path d="M36,60A24,24,0,0,0,54.157,20.3047q-.1309-.1515-.2646-.3008A24,24,0,1,0,36,60Z" fill="#fcea2b"/></g><g id="c" fill="none" stroke="#000" stroke-width="2"><path d="m45.815 45.227a15.429 15.429 0 0 1-19.629 0" stroke-linecap="round" stroke-linejoin="round"/><path d="m47.766 16.233a23.027 23.027 0 0 0-23.369-0.096" stroke-linecap="round" stroke-linejoin="round"/><path d="m17.638 22.147a23 23 0 1 0 36.625-0.1294" stroke-linecap="round" stroke-linejoin="round"/><ellipse cx="36" cy="14.8" rx="25" ry="5.25" stroke-miterlimit="10"/><path d="m31.694 33.404a4.7262 4.7262 0 0 0-8.6382 0" stroke-linecap="round" stroke-miterlimit="10"/><path d="m48.944 33.404a4.7262 4.7262 0 0 0-8.6382 0" stroke-linecap="round" stroke-miterlimit="10"/></g><g id="d"><ellipse cx="36" cy="14.8" rx="25" ry="5.25" fill="none" stroke="#61b2e4" stroke-miterlimit="10" stroke-width="2.1"/></g></svg>
