<?xml version="1.0" encoding="UTF-8"?>
<svg id="a" viewBox="0 0 72 72" xmlns="http://www.w3.org/2000/svg"><g id="b"><circle cx="36" cy="36" r="23" fill="#FCEA2B"/><polygon id="c" points="38.254 51.023 41.277 49.677 42.446 48.234 42.764 46.624 39.065 46.669 29.097 46.669 30.411 49.677 33.57 51.023" fill="#EA5A47"/></g><g id="d"><path d="m20.648 30.028c0.4053-1.5015 1.3531-2.7994 2.66-3.6424 1.2184-0.9802 2.7586-1.4705 4.3194-1.3752" fill="none" stroke="#000" stroke-linecap="round" stroke-linejoin="round" stroke-width="2"/><path d="m51.004 31.087c-2.2619-2.236-5.7272-2.7128-8.5089-1.1708" fill="none" stroke="#000" stroke-linecap="round" stroke-linejoin="round" stroke-width="2"/><path d="m42.783 45.769c0 2.9371-2.308 5.2718-6.9345 5.2718s-6.9637-2.3419-6.9637-5.2718" fill="none" stroke="#000" stroke-linecap="round" stroke-linejoin="round" stroke-width="2"/><path d="m28.94 45.769s7.0471 2.52 13.75 0.0543" fill="none" stroke="#000" stroke-linecap="round" stroke-linejoin="round" stroke-width="2"/><path d="m47.003 35.86c-0.8605-0.5508-1.8492-0.8688-2.8695-0.9229-1.1043 0.0204-2.1903 0.2852-3.18 0.7754" fill="none" stroke="#000" stroke-linecap="round" stroke-linejoin="round" stroke-width="2"/><circle cx="28.079" cy="35.309" r="3"/><circle cx="36" cy="36" r="23" fill="none" stroke="#000" stroke-linecap="round" stroke-linejoin="round" stroke-width="2"/></g></svg>
