<svg xmlns="http://www.w3.org/2000/svg" id="a" viewBox="0 0 72 72"><g id="b"><circle cx="36" cy="36" r="23" fill="#FCEA2B"/><path fill="#fff" d="m50.595 41.64c0.012 1.5397-0.2838 3.0662-0.87 4.49-12.49 3.03-25.43 0.34-27.49-0.13-0.5588-1.3852-0.8407-2.8664-0.83-4.36h0.11s14.8 3.59 28.89 0.07l0.19-0.07z"/><path fill="#EA5A47" d="m49.725 46.13c-1.79 4.27-6.35 7.23-13.69 7.23-7.41 0-12.03-3.03-13.8-7.36 2.06 0.47 15 3.16 27.49 0.13z"/></g><g id="c"><circle cx="36" cy="36" r="23" fill="none" stroke="#000" stroke-linecap="round" stroke-linejoin="round" stroke-width="2"/><path fill="none" stroke="#000" stroke-linecap="round" stroke-linejoin="round" stroke-width="2" d="m50.595 41.64c0.012 1.5397-0.2838 3.0662-0.87 4.49-12.49 3.03-25.43 0.34-27.49-0.13-0.5588-1.3852-0.8407-2.8664-0.83-4.36h0.11s14.8 3.59 28.89 0.07l0.19-0.07z"/><path fill="none" stroke="#000" stroke-linecap="round" stroke-linejoin="round" stroke-width="2" d="m49.725 46.13c-1.79 4.27-6.35 7.23-13.69 7.23-7.41 0-12.03-3.03-13.8-7.36 2.06 0.47 15 3.16 27.49 0.13z"/><path d="m30 31c0 1.6568-1.3448 3-3 3-1.6553 0-3-1.3433-3-3 0-1.6552 1.3447-3 3-3 1.6552 0 3 1.3448 3 3"/><path d="m48 31c0 1.6568-1.3447 3-3 3s-3-1.3433-3-3c0-1.6552 1.3447-3 3-3s3 1.3448 3 3"/></g></svg>