<svg xmlns="http://www.w3.org/2000/svg" id="a" viewBox="0 0 72 72"><g id="b"><circle cx="36" cy="36" r="23" fill="#FCEA2B"/></g><g id="c" fill="none" stroke="#000" stroke-linecap="round" stroke-miterlimit="10" stroke-width="2"><circle cx="36" cy="36" r="23" stroke-linejoin="round"/><path stroke-linejoin="round" d="m45.815 44.806c-5.8513 4.7083-14.1 4.6878-19.63 0"/><path d="m40.306 30.595c1.0598 2.3854 3.8527 3.46 6.238 2.4002 1.0697-0.4752 1.9249-1.3305 2.4002-2.4002"/><path d="m23.056 30.595c1.0598 2.3854 3.8527 3.46 6.238 2.4002 1.0697-0.4752 1.9249-1.3305 2.4002-2.4002"/><path stroke-linejoin="round" d="m21.849 27.145c0.846-1.6267 2.2631-2.8809 3.9804-3.5217 1.6496-0.822 3.5458-0.9962 5.3181-0.4941"/><path stroke-linejoin="round" d="m51.783 27.145c-1.8571-3.2546-5.6391-4.8951-9.2847-4.0272"/></g></svg>