<?xml version="1.0" encoding="UTF-8"?>
<svg id="a" viewBox="0 0 72 72" xmlns="http://www.w3.org/2000/svg"><g id="b"><circle cx="36" cy="36" r="23" fill="#FCEA2B"/><path d="m45.331 38.564c3.9628 0 7.1782-2.8618 7.1782-6.3889 0-1.7646 0.4473-3.5291-0.8519-4.6852s-4.3449-1.7037-6.3264-1.7037c-2.3567 0-5.1428 0.1434-6.4514 1.7037-0.8933 1.0652-0.7268 3.2534-0.7268 4.6852 1e-4 3.5271 3.2128 6.3889 7.1783 6.3889z" fill="#3F3F3F"/><path d="m25.738 38.564c3.9628 0 7.1782-2.8618 7.1782-6.3889 0-1.7646 0.4473-3.5291-0.8519-4.6852s-4.3449-1.7037-6.3264-1.7037c-2.3567 0-5.1428 0.1434-6.4514 1.7037-0.8933 1.0652-0.7268 3.2534-0.7268 4.6852 1e-4 3.5271 3.2128 6.3889 7.1783 6.3889z" fill="#3F3F3F"/></g><g id="c" fill="none" stroke="#000" stroke-linecap="round" stroke-linejoin="round" stroke-miterlimit="10" stroke-width="2"><circle cx="35.887" cy="36.056" r="23"/><path d="m45.702 44.862c-6.574 3.5248-14.045 3.6576-19.63 0"/><path d="m18.883 30.464s-0.953 8.5508 6.8608 7.9185c2.6197-0.212 7.8164-0.6507 7.867-8.3427 0.0046-0.6979-0.0078-1.5989-0.8108-2.6298-1.0647-1.3669-3.5716-1.9711-9.9446-1.422 1e-4 1e-4 -3.4462-0.099-3.9724 4.476z"/><polyline points="18.953 29.931 18.52 26.559 22.353 26.032"/><path d="m52.741 30.464s0.953 8.5508-6.8608 7.9185c-2.6197-0.212-7.8164-0.6507-7.867-8.3427-0.0046-0.6979 0.0078-1.5989 0.8108-2.6298 1.0647-1.3669 3.5716-1.9711 9.9446-1.422 0 1e-4 3.4463-0.099 3.9724 4.476z"/><path d="m31.505 26.416s4.1241 2.5339 8.6569 0"/><path d="m33.536 31.318s2.2019-3.7509 4.5362 0"/><polyline points="52.664 29.933 53.097 26.562 49.264 26.034"/><path d="m33.955 30.027s1.7954-3.7509 3.6988 0"/></g></svg>
