<svg xmlns="http://www.w3.org/2000/svg" id="a" viewBox="0 0 72 72"><g id="b"><circle cx="36" cy="36" r="23" fill="#fcea2b"/><path fill="#fff" d="M50.595,41.64a11.5554,11.5554,0,0,1-.87,4.49c-12.49,3.03-25.43.34-27.49-.13a11.4347,11.4347,0,0,1-.83-4.36h.11s14.8,3.59,28.89.07Z"/><path fill="#ea5a47" d="m49.725 46.13c-1.79 4.27-6.35 7.23-13.69 7.23-7.41 0-12.03-3.03-13.8-7.36 2.06 0.47 15 3.16 27.49 0.13z"/></g><g id="c"><circle cx="36" cy="36" r="23" fill="none" stroke="#000" stroke-linecap="round" stroke-linejoin="round" stroke-width="2"/><ellipse cx="28.568" cy="30.818" rx="3" ry="5.404"/><ellipse cx="43.432" cy="30.822" rx="3" ry="5.404"/><path fill="none" stroke="#000" stroke-linecap="round" stroke-linejoin="round" stroke-width="2" d="M50.595,41.64a11.5554,11.5554,0,0,1-.87,4.49c-12.49,3.03-25.43.34-27.49-.13a11.4347,11.4347,0,0,1-.83-4.36h.11s14.8,3.59,28.89.07Z"/><path fill="none" stroke="#000" stroke-linecap="round" stroke-linejoin="round" stroke-width="2" d="m49.725 46.13c-1.79 4.27-6.35 7.23-13.69 7.23-7.41 0-12.03-3.03-13.8-7.36 2.06 0.47 15 3.16 27.49 0.13z"/></g></svg>