<?xml version="1.0" encoding="UTF-8"?>
<svg id="a" viewBox="0 0 72 72" xmlns="http://www.w3.org/2000/svg"><g id="b"><circle cx="36" cy="36" r="24" fill="#fcea2b"/><path d="M54.25,28.1758a4.2422,4.2422,0,0,1-4.2442-4.2427c0-4.2026,4.211-8.4619,4.253-8.5044.1543.1729,4.2343,4.3228,4.2343,8.5039A4.241,4.241,0,0,1,54.25,28.1758Z" fill="#92d3f5"/><path d="M50.595,41.64a11.5554,11.5554,0,0,1-.87,4.49c-12.49,3.03-25.43.34-27.49-.13a11.4347,11.4347,0,0,1-.83-4.36h.11s14.8,3.59,28.89.07Z" fill="#fff"/><path d="m49.725 46.13c-1.79 4.27-6.35 7.23-13.69 7.23-7.41 0-12.03-3.03-13.8-7.36 2.06 0.47 15 3.16 27.49 0.13z" fill="#ea5a47"/></g><g id="c" fill="none" stroke="#000" stroke-width="2"><path d="M54.25,28.1758a4.2422,4.2422,0,0,1-4.2442-4.2427c0-4.2026,4.211-8.4619,4.253-8.5044.1543.1729,4.2343,4.3228,4.2343,8.5039A4.241,4.241,0,0,1,54.25,28.1758Z" stroke-linejoin="round"/><path d="m48.094 16.433a22.958 22.958 0 1 0 10.399 14.746" stroke-linecap="round" stroke-linejoin="round"/><path d="M50.595,41.64a11.5554,11.5554,0,0,1-.87,4.49c-12.49,3.03-25.43.34-27.49-.13a11.4347,11.4347,0,0,1-.83-4.36h.11s14.8,3.59,28.89.07Z" stroke-linecap="round" stroke-linejoin="round"/><path d="m49.725 46.13c-1.79 4.27-6.35 7.23-13.69 7.23-7.41 0-12.03-3.03-13.8-7.36 2.06 0.47 15 3.16 27.49 0.13z" stroke-linecap="round" stroke-linejoin="round"/><path d="m31.694 33.404a4.7262 4.7262 0 0 0-8.6382 0" stroke-linecap="round" stroke-miterlimit="10"/><path d="m48.944 33.404a4.7262 4.7262 0 0 0-8.6382 0" stroke-linecap="round" stroke-miterlimit="10"/></g></svg>
