<?xml version="1.0" encoding="UTF-8"?>
<svg id="a" viewBox="0 0 72 72" xmlns="http://www.w3.org/2000/svg"><g id="b"><path d="m36 13c-12.682 0-23 10.318-23 23 0 12.682 10.318 23 23 23 12.682 0 23-10.318 23-23 0-12.682-10.318-23-23-23z" fill="#FCEA2B"/></g><g id="c" fill="none" stroke="#000" stroke-miterlimit="10" stroke-width="2"><circle cx="36" cy="36" r="23"/><line x1="27" x2="45" y1="46" y2="46" stroke-linecap="round" stroke-linejoin="round"/><path d="m23 33.077c0.4132 0.344 2.2456 1.7915 4.9091 1.6364 2.1608-0.1259 3.61-1.2333 4.0909-1.6364" stroke-linecap="round" stroke-linejoin="round"/><path d="m41 33.077c0.4132 0.344 2.2456 1.7915 4.9091 1.6364 2.1608-0.1259 3.61-1.2333 4.0909-1.6364" stroke-linecap="round" stroke-linejoin="round"/><path d="m19.938 27.25c0.4872 0.2275 2.6277 1.1608 5.1639 0.3327 2.0576-0.6718 3.1771-2.1117 3.5396-2.6239" stroke-linecap="round" stroke-linejoin="round"/><path d="m52.642 27.25c-0.4872 0.2275-2.6277 1.1608-5.1639 0.3327-2.0576-0.6718-3.1771-2.1117-3.5396-2.6239" stroke-linecap="round" stroke-linejoin="round"/></g></svg>
