<svg xmlns="http://www.w3.org/2000/svg" id="a" viewBox="0 0 72 72"><g id="b"><path fill="#FCEA2B" d="m36 13c-12.682 0-23 10.318-23 23 0 12.682 10.318 23 23 23 12.682 0 23-10.318 23-23 0-12.682-10.318-23-23-23z"/></g><g id="c"><circle cx="36" cy="36" r="23" fill="none" stroke="#000" stroke-miterlimit="10" stroke-width="2"/><path fill="none" stroke="#000" stroke-linecap="round" stroke-linejoin="round" stroke-miterlimit="10" stroke-width="2" d="m30.09 43.09c3.126-0.7889 4.815-1.229 8.332-1.098 3.229 0.1204 6.141 0.5955 7.579 2.936"/><path fill="none" stroke="#000" stroke-linecap="round" stroke-linejoin="round" stroke-miterlimit="10" stroke-width="2" d="m23.29 26.7c0.3266-0.4271 1.792-2.245 4.424-2.685 2.135-0.3566 3.794 0.4017 4.352 0.688"/><path fill="none" stroke="#000" stroke-linecap="round" stroke-linejoin="round" stroke-miterlimit="10" stroke-width="2" d="m42.93 25c0.4667-0.25 2.52-1.1 5.042-0.5743 2.118 0.3921 2.421 0.8283 3.73 1.725"/><path d="m32 31c0 1.6568-1.3448 3-3 3-1.6553 0-3-1.3433-3-3 0-1.6552 1.3447-3 3-3 1.6552 0 3 1.3448 3 3"/><path d="m50 31c0 1.6568-1.3447 3-3 3s-3-1.3433-3-3c0-1.6552 1.3447-3 3-3s3 1.3448 3 3"/></g></svg>