<svg xmlns="http://www.w3.org/2000/svg" id="a" viewBox="0 0 72 72"><g id="b"><path fill="#FCEA2B" d="m36 13.116c-12.682 0-23 10.318-23 23 0 12.682 10.318 23 23 23 12.682 0 23-10.318 23-23 0-12.682-10.318-23-23-23z"/></g><g id="c"><circle cx="36" cy="36" r="23" fill="none" stroke="#000" stroke-miterlimit="10" stroke-width="2"/><path fill="none" stroke="#000" stroke-linecap="round" stroke-linejoin="round" stroke-miterlimit="10" stroke-width="2" d="m26.5 46c1.8768-2.5502 5.8239-4.1232 10-3.9924 3.8343 0.1201 7.2926 1.6586 9 3.9924"/><path fill="none" stroke="#000" stroke-linecap="round" stroke-linejoin="round" stroke-miterlimit="10" stroke-width="2" d="m22.5 23.077c0.4132 0.344 2.2456 1.7915 4.9091 1.6364 2.1608-0.1259 3.61-1.2333 4.0909-1.6364"/><path fill="none" stroke="#000" stroke-linecap="round" stroke-linejoin="round" stroke-miterlimit="10" stroke-width="2" d="m40.5 23.077c0.4132 0.344 2.2456 1.7915 4.9091 1.6364 2.1608-0.1259 3.61-1.2333 4.0909-1.6364"/><path d="m30 31c0 1.6568-1.3448 3-3 3-1.6553 0-3-1.3433-3-3 0-1.6552 1.3447-3 3-3 1.6552 0 3 1.3448 3 3"/><path d="m48 31c0 1.6568-1.3447 3-3 3s-3-1.3433-3-3c0-1.6552 1.3447-3 3-3s3 1.3448 3 3"/></g></svg>