<svg xmlns="http://www.w3.org/2000/svg" id="a" viewBox="0 0 72 72"><g id="b"><path fill="#FCEA2B" d="m36 12c-13.234 0-24 10.766-24 24 0 13.234 10.766 24 24 24 13.234 0 24-10.766 24-24 0-13.234-10.766-24-24-24z"/><path fill="#92D3F5" d="m24.812 10.587c0.1789 0.1789 4.3858 4.4369 4.3857 8.8871 0 2.7193-2.2652 4.9237-5.0594 4.9237s-5.0594-2.2044-5.0594-4.9237c-1e-4 -4.4502 4.2068-8.7082 4.3857-8.8871 0.3722-0.3722 0.975-0.372 1.347 0h4e-4z"/></g><g id="c" fill="none" stroke="#000" stroke-miterlimit="10" stroke-width="2"><path stroke-linecap="round" stroke-linejoin="round" d="M28.5,45c1.5805-2.5575,4.9043-4.1349,8.4211-4.0038C40.1499,41.1166,43.0622,42.6595,44.5,45"/><path stroke-linecap="round" stroke-linejoin="round" d="m40.5 31.725c0.4132-0.344 2.2456-1.7915 4.9091-1.6364 2.1608 0.1259 3.61 1.2333 4.0909 1.6364"/><path stroke-linecap="round" stroke-linejoin="round" d="m22.5 31.725c0.4132-0.344 2.2456-1.7915 4.9091-1.6364 2.1608 0.1259 3.61 1.2333 4.0909 1.6364"/><path stroke-linecap="round" d="M32.0757,13.3335 C33.3509,13.1142,34.6621,13,36,13c12.7025,0,23,10.2975,23,23S48.7025,59,36,59S13,48.7025,13,36 c0-4.2618,1.1591-8.2528,3.1793-11.675"/><path d="m24.812 10.587c0.1789 0.1789 4.3858 4.4369 4.3857 8.8871 0 2.7193-2.2652 4.9237-5.0594 4.9237s-5.0594-2.2044-5.0594-4.9237c-1e-4 -4.4502 4.2068-8.7082 4.3857-8.8871 0.3722-0.3722 0.975-0.372 1.347 0h4e-4z"/></g></svg>