<svg xmlns="http://www.w3.org/2000/svg" id="a" viewBox="0 0 72 72"><g id="b"><circle cx="36" cy="36" r="24" fill="#FCEA2B"/><path fill="#D22F27" d="m53.013 44.47c-1.9101-0.5703-3.9277 0.5201-4.498 2.4301-0.1899 0.6362-0.2018 1.3099-0.0342 1.948l0.111 0.3522 3.797 9.7215 8.5568-6.0862c0.6097-0.4613 1.0532-1.1008 1.275-1.8435 0.5703-1.91-0.5199-3.9283-2.4306-4.4987-1.3381-0.3995-2.7576-0.0041-3.7038 1.0317-0.0808 0.0887-0.2057 0.1237-0.3214 0.0892-0.1151-0.0344-0.2004-0.1321-0.2199-0.2508-0.2229-1.3849-1.1932-2.4938-2.5319-2.8935z"/></g><g id="c"><path fill="none" stroke="#000" stroke-linecap="round" stroke-linejoin="round" stroke-miterlimit="10" stroke-width="2" d="m20.591 30.005c0.4075-1.5078 1.358-2.8098 2.6702-3.656 1.2228-0.9847 2.769-1.4753 4.3352-1.3805"/><path fill="none" stroke="#000" stroke-linecap="round" stroke-linejoin="round" stroke-miterlimit="10" stroke-width="2" d="m51.06 31.069c-2.2698-2.2443-5.7488-2.7231-8.5407-1.1752"/><path fill="none" stroke="#000" stroke-linecap="round" stroke-linejoin="round" stroke-miterlimit="10" stroke-width="2" d="m47.044 35.86c-0.8065-0.4709-1.7748-0.9088-2.8803-0.9263-1.1197-0.0177-2.1249 0.3098-3.1914 0.7782"/><path fill="none" stroke="#000" stroke-linecap="round" stroke-linejoin="round" stroke-miterlimit="10" stroke-width="2" d="m58.372 41.361c0.4107-1.7201 0.6282-3.5153 0.6282-5.3612 0-12.703-10.298-23-23-23-12.703 0-23 10.297-23 23 0 12.702 10.297 23 23 23 3.6206 0 7.0459-0.8367 10.093-2.3272"/><circle cx="28.04" cy="35.306" r="3"/><path fill="none" stroke="#000" stroke-linecap="round" stroke-linejoin="round" stroke-miterlimit="10" stroke-width="2" d="m36.414 41.091s10.525 3.1956 0 5.5637c0 0 10.458 2.9883 0 4.9125"/><path fill="none" stroke="#000" stroke-linecap="round" stroke-linejoin="round" stroke-miterlimit="10" stroke-width="2" d="m53.013 44.47c-1.9101-0.5703-3.9277 0.5201-4.498 2.4301-0.1899 0.6362-0.2018 1.3099-0.0342 1.948l0.111 0.3522 3.797 9.7215 8.5568-6.0862c0.6097-0.4613 1.0532-1.1008 1.275-1.8435 0.5703-1.91-0.5199-3.9283-2.4306-4.4987-1.3381-0.3995-2.7576-0.0041-3.7038 1.0317-0.0808 0.0887-0.2057 0.1237-0.3214 0.0892-0.1151-0.0344-0.2004-0.1321-0.2199-0.2508-0.2229-1.3849-1.1932-2.4938-2.5319-2.8935z"/></g></svg>