<svg xmlns="http://www.w3.org/2000/svg" id="a" viewBox="0 0 72 72"><g id="b"><path fill="#FCEA2B" d="m36 13c-12.682 0-23 10.318-23 23 0 12.682 10.318 23 23 23 12.682 0 23-10.318 23-23 0-12.682-10.318-23-23-23z"/><path fill="#fff" d="m41.668 45.592c2.018-1.0892 3.6277-2.7511 4.4969-4.7746-1.9847 0.9853-6.1585 1.5931-10.574 1.5426-4.0546-0.0464-7.7116-0.6408-9.5171-1.5426h-0.2385c0.939 2.1647 2.7178 3.8986 4.9168 4.9729"/><path fill="#EA5A47" d="m41.577 41.818c0 6.0751-2.5324 11-5.6562 11-3.1239 0-5.6563-4.9249-5.6563-11"/></g><g id="c"><circle cx="36" cy="36" r="23" fill="none" stroke="#000" stroke-miterlimit="10" stroke-width="2"/><path fill="none" stroke="#000" stroke-linecap="round" stroke-linejoin="round" stroke-miterlimit="10" stroke-width="2" d="m40 31.725c0.4132-0.344 2.2456-1.7915 4.9091-1.6364 2.1608 0.1259 3.61 1.2333 4.0909 1.6364"/><path fill="none" stroke="#000" stroke-linecap="round" stroke-linejoin="round" stroke-miterlimit="10" stroke-width="2" d="m30.752 45.791c-2.199-1.0742-3.9778-2.8081-4.9168-4.9729m20.33 1e-4c-0.8692 2.0234-2.4789 3.6854-4.4969 4.7746m-15.595-4.7746c1.8055 0.9018 5.4625 1.4962 9.5171 1.5426 4.4161 0.0505 8.5899-0.5572 10.574-1.5426"/><path fill="none" stroke="#000" stroke-miterlimit="10" stroke-width="2" d="m41.66 41.818c0 6.0751-2.5324 11-5.6562 11s-5.6563-4.9249-5.6563-11"/><path d="m30 31c0 1.6568-1.3448 3-3 3-1.6553 0-3-1.3433-3-3 0-1.6552 1.3447-3 3-3 1.6552 0 3 1.3448 3 3"/></g></svg>