<?xml version="1.0" encoding="UTF-8"?>
<svg id="a" viewBox="0 0 72 72" xmlns="http://www.w3.org/2000/svg"><g id="b"><path transform="translate(0)" d="m22.729 51.462a23.883 23.883 0 1 1 27.72-0.5986s-6.6507 4.6412-14.279 4.6412a24.459 24.459 0 0 1-13.441-4.0426z" fill="#fcea2b"/><path transform="translate(0)" d="M40.452,59.156a3.1437,3.1437,0,0,0-.0224-.3616,2.6344,2.6344,0,0,0,2.17-2.4056,2.1583,2.1583,0,0,0-.3752-1.2049,3.9224,3.9224,0,0,0,3.136-3.5746c-.0006-2.0838-2.062-3.7726-4.6044-3.7721a5.6077,5.6077,0,0,0-.6185.0381l-2.3021-5.29H33.6321L31.2693,47.84l-.0271-.0011c-2.5424,0-4.6029,1.69-4.6024,3.7737a3.8021,3.8021,0,0,0,2.6453,3.41,2.19,2.19,0,0,0-.4957,1.3686,2.7049,2.7049,0,0,0,2.4742,2.4667c-.0095.0992-.0184.1985-.0184.3.0006,2.0837,2.062,3.7726,4.6044,3.7721S40.4525,61.24,40.452,59.156Z" fill="#d0cfce"/><path transform="translate(0)" d="M40.452,59.3012a3.16,3.16,0,0,0-.022-.3612,2.6345,2.6345,0,0,0,2.17-2.4056,2.1583,2.1583,0,0,0-.3752-1.2049,3.9224,3.9224,0,0,0,3.136-3.5746c-.0006-2.0838-2.062-3.7726-4.6044-3.7721a5.6077,5.6077,0,0,0-.6185.0381l-.6468-1.2458a4.4852,4.4852,0,0,1-2.6157,1.8326,2.1584,2.1584,0,0,1,.3752,1.205,2.6342,2.6342,0,0,1-2.17,2.4055,3.1454,3.1454,0,0,1,.0224.3617c0,2.0837-2.06,3.7732-4.6024,3.7737a5.479,5.479,0,0,1-1.6588-.2563,2.0627,2.0627,0,0,0-.0521.44,2.7051,2.7051,0,0,0,2.4743,2.4666c-.0095.0992-.0184.1986-.0184.3.0006,2.0837,2.062,3.7725,4.6044,3.772S40.4525,61.3849,40.452,59.3012Z" fill="#fff"/><path transform="translate(0)" d="m36.022 38.679c2.2919 0.0047 6.3823 0.9679 6.3823 2.4233 0 3.06-3.09 3.2728-6.4042 3.2722-3.2912 0-6.624-0.1615-6.624-3.1813 0-1.0505 4.164-2.5193 6.6459-2.5142z" fill="#fff"/></g><g id="c" fill="none" stroke="#000" stroke-linecap="round" stroke-width="2"><path transform="translate(0)" d="M33.6029,43.5631l-2.3336,4.4614-.0271-.0011c-2.5424,0-4.6029,1.6775-4.6024,3.7457a3.7782,3.7782,0,0,0,2.6453,3.3847,2.1643,2.1643,0,0,0-.4957,1.3585,2.6943,2.6943,0,0,0,2.4742,2.4484c-.0095.0984-.0184.1971-.0184.2975.0006,2.0683,2.062,3.7446,4.6044,3.7441s4.6029-1.6774,4.6024-3.7457a3.0971,3.0971,0,0,0-.0224-.3589A2.6218,2.6218,0,0,0,42.6,56.51a2.1319,2.1319,0,0,0-.3752-1.196,3.9022,3.9022,0,0,0,3.136-3.5481c-.0006-2.0682-2.062-3.7446-4.6044-3.7441a5.6567,5.6567,0,0,0-.6185.0378l-2.352-4.4964" stroke-linejoin="round"/><path transform="translate(0)" d="m23.226 50.731a23.001 23.001 0 1 1 26.696-0.5765" stroke-linejoin="round"/><path transform="translate(0)" d="m40.476 26.312a4.7262 4.7262 0 0 0 8.6382 0" stroke-miterlimit="10"/><path transform="translate(0)" d="m23.226 26.312a4.7262 4.7262 0 0 0 8.6382 0" stroke-miterlimit="10"/><path transform="translate(0)" d="m31.105 42.688a1.5162 1.5162 0 0 1-0.8222-1.3939c0-2.198 3.4938-3.4248 5.6918-3.4248s5.52 1.2268 5.52 3.4248a1.6853 1.6853 0 0 1-1.3759 1.6555" stroke-linejoin="round"/></g></svg>
