<svg xmlns="http://www.w3.org/2000/svg" id="a" viewBox="0 0 72 72"><g id="b"><path fill="#fcea2b" d="m36.2 13.316c-12.572 0-22.8 10.228-22.8 22.8 0 12.572 10.228 22.8 22.8 22.8 12.572 0 22.8-10.228 22.8-22.8 0-12.572-10.228-22.8-22.8-22.8z"/><path fill="#fff" d="m28 51c0.2704-0.3562 3.3099-8.2177 8.4211-8.0038 4.6054 0.1927 7.2288 7.541 7.5789 8.0038h-16z"/></g><g id="c" fill="none" stroke="#000" stroke-miterlimit="10" stroke-width="2"><circle cx="36" cy="36" r="23"/><line x1="44.536" x2="50.921" y1="21.439" y2="24.716" stroke-linecap="round" stroke-linejoin="round"/><line x1="26.921" x2="20.536" y1="21.439" y2="24.716" stroke-linecap="round" stroke-linejoin="round"/><path stroke-linecap="round" stroke-linejoin="round" d="m24 28c2.3334 1.3333 4.6666 2.6667 7 4-2.3334 1.3333-4.6666 2.6667-7 4"/><path stroke-linecap="round" stroke-linejoin="round" d="m48 28c-2.3334 1.3333-4.6666 2.6667-7 4 2.3334 1.3333 4.6666 2.6667 7 4"/><path stroke-linecap="round" stroke-linejoin="round" d="m28 51c0.2704-0.3562 1-8 8.4211-8.0038 6.5789-0.0033 7.2288 7.541 7.5789 8.0038h-16z"/></g></svg>