<?xml version="1.0" encoding="UTF-8"?>
<svg id="a" viewBox="0 0 72 72" xmlns="http://www.w3.org/2000/svg"><g id="b"><circle cx="36" cy="36" r="23" fill="#FCEA2B"/><ellipse cx="36" cy="48.395" rx="5.2452" ry="6.5383" fill="#fff"/></g><g id="c"><circle cx="36" cy="36" r="23" fill="none" stroke="#000" stroke-linecap="round" stroke-linejoin="round" stroke-miterlimit="10" stroke-width="2"/><path d="m20.695 27.2c0.7207-1.3857 1.9278-2.4541 3.3907-3 1.4052-0.7002 3.0205-0.8486 4.5302-0.4209" fill="none" stroke="#000" stroke-linecap="round" stroke-linejoin="round" stroke-miterlimit="10" stroke-width="2"/><path d="m51.305 27.2c-1.582-2.7724-4.8037-4.1699-7.9092-3.4306" fill="none" stroke="#000" stroke-linecap="round" stroke-linejoin="round" stroke-miterlimit="10" stroke-width="2"/><ellipse cx="36" cy="48.395" rx="5.2452" ry="6.5383" fill="none" stroke="#000" stroke-linecap="round" stroke-linejoin="round" stroke-miterlimit="10" stroke-width="2"/><path d="m30 35c0 1.6568-1.3448 3-3 3-1.6553 0-3-1.3433-3-3 0-1.6552 1.3447-3 3-3 1.6552 0 3 1.3448 3 3"/><path d="m48 35c0 1.6568-1.3447 3-3 3s-3-1.3433-3-3c0-1.6552 1.3447-3 3-3s3 1.3448 3 3"/></g></svg>
