<?xml version="1.0" encoding="UTF-8"?>
<svg id="a" viewBox="0 0 72 72" xmlns="http://www.w3.org/2000/svg"><g id="b"><path d="m36 13c-12.702 0-23 10.298-23 23s10.298 23 23 23 23-10.298 23-23c-0.0143-12.697-10.303-22.986-23-23z" fill="#FCEA2B"/><path d="m44.5 49.271h-17c-2.2064-0.0065-3.9935-1.7936-4-4 0.0065-2.2064 1.7936-3.9935 4-4h17c2.2064 0.0065 3.9935 1.7936 4 4-0.0065 2.2064-1.7936 3.9935-4 4z" fill="#fff"/></g><g id="c"><line x1="28" x2="28" y1="41.771" y2="48.771" fill="none" stroke="#000" stroke-linecap="round" stroke-linejoin="round" stroke-width="2"/><line x1="33" x2="33" y1="41.771" y2="48.771" fill="none" stroke="#000" stroke-linecap="round" stroke-linejoin="round" stroke-width="2"/><line x1="38" x2="38" y1="41.771" y2="48.771" fill="none" stroke="#000" stroke-linecap="round" stroke-linejoin="round" stroke-width="2"/><line x1="43" x2="43" y1="41.771" y2="48.771" fill="none" stroke="#000" stroke-linecap="round" stroke-linejoin="round" stroke-width="2"/><circle cx="36" cy="36" r="23" fill="none" stroke="#000" stroke-miterlimit="10" stroke-width="2"/><path d="m44.5 49.271h-17c-2.2064-0.0065-3.9935-1.7936-4-4 0.0065-2.2064 1.7936-3.9935 4-4h17c2.2064 0.0065 3.9935 1.7936 4 4-0.0065 2.2064-1.7936 3.9935-4 4z" fill="none" stroke="#000" stroke-miterlimit="2" stroke-width="2"/><path d="m30 31c0 1.6568-1.3448 3-3 3-1.6553 0-3-1.3433-3-3 0-1.6552 1.3447-3 3-3 1.6552 0 3 1.3448 3 3"/><path d="m48 31c0 1.6568-1.3447 3-3 3s-3-1.3433-3-3c0-1.6552 1.3447-3 3-3s3 1.3448 3 3"/></g></svg>
