<?xml version="1.0" encoding="UTF-8"?>
<svg id="a" viewBox="0 0 72 72" xmlns="http://www.w3.org/2000/svg"><g id="b"><path d="m36 13c-12.682 0-23 10.318-23 23 0 12.682 10.318 23 23 23 12.682 0 23-10.318 23-23 0-12.682-10.318-23-23-23z" fill="#FCEA2B"/><path d="m28 46s-0.1191-2.9038 0-3c1.3686-0.7308 3.9645-1 8-1 4 0 6.6522 0.2795 8 1 0.0878 0.0572 0 3 0 3h-16z" fill="#fff"/></g><g id="c"><circle cx="36" cy="36" r="23" fill="none" stroke="#000" stroke-miterlimit="10" stroke-width="2"/><path d="m30 30.925c0 1.6568-1.3448 3-3 3-1.6553 0-3-1.3433-3-3 0-1.6552 1.3447-3 3-3 1.6552 0 3 1.3448 3 3"/><path d="m48 30.925c0 1.6568-1.3447 3-3 3s-3-1.3433-3-3c0-1.6552 1.3447-3 3-3s3 1.3448 3 3"/><path d="m28 46s-0.1191-2.9038 0-3c1.3686-0.7308 3.9645-1 8-1 4 0 6.6522 0.2795 8 1 0.0878 0.0572 0 3 0 3h-16z" fill="none" stroke="#000" stroke-linecap="round" stroke-linejoin="round" stroke-miterlimit="10" stroke-width="2"/><path d="m23.148 24.25c0.4872 0.2275 2.6277 1.1608 5.1639 0.3327 2.0576-0.6718 3.1771-2.1117 3.5396-2.6239" fill="none" stroke="#000" stroke-linecap="round" stroke-linejoin="round" stroke-miterlimit="10" stroke-width="2"/><path d="m48.852 24.25c-0.4872 0.2275-2.6277 1.1608-5.1639 0.3327-2.0576-0.6718-3.1771-2.1117-3.5396-2.6239" fill="none" stroke="#000" stroke-linecap="round" stroke-linejoin="round" stroke-miterlimit="10" stroke-width="2"/></g></svg>
