<svg xmlns="http://www.w3.org/2000/svg" id="a" viewBox="0 0 72 72"><g id="b"><path fill="#FCEA2B" d="m36.2 13.316c-12.572 0-22.8 10.228-22.8 22.8 0 12.572 10.228 22.8 22.8 22.8 12.572 0 22.8-10.228 22.8-22.8 0-12.572-10.228-22.8-22.8-22.8z"/><path fill="#92D3F5" d="m22.775 33.824c-1.0767 1.1019-3.115 3.4878-3.2924 5.9164-0.1111 1.521 1.1185 2.9431 2.6365 3.0534 1.5693 0.1143 2.9388-1.0681 3.0546-2.6364 0.1769-2.4292-1.4936-5.0861-2.3987-6.3334z"/></g><g id="c"><circle cx="36" cy="36" r="23" fill="none" stroke="#000" stroke-miterlimit="10" stroke-width="2"/><path fill="none" stroke="#000" stroke-linecap="round" stroke-linejoin="round" stroke-miterlimit="10" stroke-width="2" d="m26.5 48c1.8768-3.8326 5.8239-6.1965 10-6 3.8343 0.1804 7.2926 2.4926 9 6"/><path fill="none" stroke="#000" stroke-miterlimit="10" stroke-width="2" d="m20.387 41.63c-0.5326-0.5326-0.8258-1.2405-0.8256-1.9936 0-2.4789 2.3433-4.8508 2.443-4.9505 0.2074-0.2074 0.5431-0.2072 0.7503 0 0.0998 0.0998 2.4432 2.4718 2.4437 4.9512l2e-4 2e-4c-7e-4 1.5535-1.2653 2.8177-2.8189 2.8175-0.7523 9e-4 -1.4601-0.2923-1.9927-0.8248z"/><path d="m30 31c0 1.6568-1.3448 3-3 3-1.6553 0-3-1.3433-3-3 0-1.6552 1.3447-3 3-3 1.6552 0 3 1.3448 3 3"/><path d="m48 31c0 1.6568-1.3447 3-3 3s-3-1.3433-3-3c0-1.6552 1.3447-3 3-3s3 1.3448 3 3"/></g></svg>