<?xml version="1.0" encoding="UTF-8"?>
<svg id="a" viewBox="0 0 72 72" xmlns="http://www.w3.org/2000/svg"><g id="b"><path d="m36 12c-13.255 0-24 10.745-24 24s10.745 24 24 24 24-10.745 24-24-10.745-24-24-24z" fill="#FCEA2B"/><path d="m41.54 37.497 13.747 6.3134s3.8107-4.3777 7.3934-0.753c1.8042 1.6892 1.8974 4.5211 0.2082 6.3253 0 0 0 1e-4 -1e-4 1e-4 -0.0219 0.0235-0.0441 0.0468-0.0666 0.07-0.0338 0.0348 3.46 3.3212 0.3024 6.4791-1.6137 1.6749-4.2497 1.8118-6.0282 0.313 0 0-2.5219 3.7564-6.086-0.2145s0.8088-7.42 0.8088-7.42l-10.279-11.113z" fill="#D0CFCE"/><path d="m30.46 37.497-13.747 6.3134s-3.8107-4.3777-7.3934-0.753c-1.8042 1.6892-1.8974 4.5211-0.2082 6.3253 0 0 0 1e-4 1e-4 1e-4 0.0219 0.0235 0.0441 0.0468 0.0666 0.07 0.0338 0.0348-3.46 3.3212-0.3024 6.4791 1.6137 1.6749 4.2498 1.8118 6.0283 0.313 0 0 2.5218 3.7566 6.0858-0.2148s-0.8088-7.42-0.8088-7.42l10.279-11.113z" fill="#D0CFCE"/></g><g id="c" fill="none" stroke="#000" stroke-linecap="round" stroke-linejoin="round" stroke-width="2"><path d="m46.716 56.356c-6.7467 3.5446-14.81 3.5235-21.538-0.0562"/><path d="m47.451 55.951c-0.2421 0.1393-0.4869 0.2743-0.7346 0.4049"/><path d="m13.122 38.388c-0.0817-0.7932-0.1225-1.5902-0.1224-2.3876 0-12.702 10.298-23 23-23s23 10.298 23 23c0 0.5043-0.0161 1.0046-0.0482 1.501"/><line x1="23" x2="30" y1="24" y2="28"/><line x1="49" x2="42" y1="24" y2="28"/><path d="M30,43 c2.1924-0.7812,4.5179-1.1204,6.8421-0.9981C38.9397,41.9366,41.0304,42.2755,43,43"/><path d="m22.5 33.078c1.3758 1.1372 3.1261 1.7206 4.9091 1.6364 1.503-0.0963 2.9361-0.6696 4.0909-1.6364"/><path d="m40.5 33.078c1.3758 1.1372 3.1261 1.7206 4.9091 1.6364 1.503-0.0963 2.9361-0.6696 4.0909-1.6364"/><path d="m30.46 37.497-13.747 6.3134s-3.8107-4.3777-7.3934-0.753c-1.8042 1.6892-1.8974 4.5211-0.2082 6.3253 0 0 0 1e-4 1e-4 1e-4 0.0219 0.0235 0.0441 0.0468 0.0666 0.07 0.0338 0.0348-3.46 3.3212-0.3024 6.4791 1.6137 1.6749 4.2498 1.8118 6.0283 0.313 0 0 2.5218 3.7566 6.0858-0.2148s-0.8088-7.42-0.8088-7.42l10.279-11.113z"/><path d="m41.54 37.497 13.747 6.3134s3.8107-4.3777 7.3934-0.753c1.8042 1.6892 1.8974 4.5211 0.2082 6.3253 0 0 0 1e-4 -1e-4 1e-4 -0.0219 0.0235-0.0441 0.0468-0.0666 0.07-0.0338 0.0348 3.46 3.3212 0.3024 6.4791-1.6137 1.6749-4.2497 1.8118-6.0282 0.313 0 0-2.5219 3.7564-6.086-0.2145s0.8088-7.42 0.8088-7.42l-10.279-11.113z"/></g></svg>
