<?xml version="1.0" encoding="UTF-8"?>
<svg id="a" viewBox="0 0 72 72" xmlns="http://www.w3.org/2000/svg"><g id="b"><path transform="translate(0)" d="m36 12.958a23 23 0 1 0 23 23 23.026 23.026 0 0 0-23-23z" fill="#fcea2b"/></g><g id="c" stroke="#000" stroke-miterlimit="10"><circle cx="36" cy="35.958" r="23" fill="none" stroke-width="2"/><path transform="translate(0)" d="m35.778 43.681a4.1686 4.1686 0 1 0 5e-4 0z" stroke-width="2.5104"/><g fill="none" stroke-linecap="round" stroke-width="2"><path transform="translate(0)" d="m41.27 30.937a5.4893 5.4893 0 1 1 10.979 0"/><path transform="translate(0)" d="m44.93 30.937a1.83 1.83 0 0 1 3.66 0"/><path transform="translate(0)" d="m41.27 30.937a7.3149 7.3149 0 0 0 7.3107 7.3191h0.0084"/><path transform="translate(0)" d="M44.93,30.9367a3.66,3.66,0,0,0,7.319.121q.001-.06,0-.121"/></g><g fill="none" stroke-linecap="round" stroke-width="2"><path transform="translate(0)" d="m19.316 30.937a5.4893 5.4893 0 0 1 10.979 0"/><path transform="translate(0)" d="m22.975 30.937a1.83 1.83 0 0 1 3.66 0"/><path transform="translate(0)" d="m19.316 30.937a7.3149 7.3149 0 0 0 7.3107 7.3191h0.0084"/><path transform="translate(0)" d="M22.975,30.9367a3.66,3.66,0,1,0,7.3191.1148q.0009-.0573,0-.1148"/></g></g></svg>
