<svg xmlns="http://www.w3.org/2000/svg" id="a" viewBox="0 0 72 72"><g id="b"><path fill="#F4AA41" d="m58.666 48.832c-3.5976 9.1169-12.631 15.155-23.207 15.155-9.1173 0-19.256-5.8476-22.854-14.964l-0.1262-0.3127c-1.1415-2.8597-0.9573-6.3599-0.9573-9.6324l3.6669-32.371 10.228 10.08c2.9226-1.2477 6.137-1.9388 9.5103-1.9388h1.0635c3.3733 0 6.5877 0.6911 9.5103 1.9388l11.228-11.08 3.7223 33.876c0 3.2725-0.6283 6.3969-1.7707 9.2566"/><path fill="#E27022" d="m35.458 63.987c10.609 0.3425 20.354-6.004 23.952-15.121l0.1109-0.231c1.1415-2.8597 0.9579-6.8965 0.9579-10.169l-3.7503-32.76"/><path fill="#fff" d="m55.106 33.527s-9.2757-9.2767-13.252 6.6249c10.602 7.9513 13.252-6.6249 13.252-6.6249z"/><path fill="#fff" d="m16.894 33.527s9.2757-9.2767 13.252 6.6249c-10.602 7.9513-13.252-6.6249-13.252-6.6249z"/><path fill="#92D3F5" d="m20.92 48.194c-1.1993 1.4205-3.4442 4.4727-3.4442 7.4143-0.0014 0.9206 0.3576 1.7853 1.0068 2.4345 0.6507 0.6507 1.5153 1.0097 2.4375 1.0098 1.8413-1e-4 3.4457-1.6044 3.4443-3.4443-1e-4 -2.9416-2.2451-5.9937-3.4444-7.4143z"/></g><g id="c"><path fill="none" stroke="#000" stroke-linecap="round" stroke-linejoin="round" stroke-miterlimit="10" stroke-width="2" d="m55.106 33.485s-9.2757-9.2767-13.252 6.6249c10.602 7.9513 13.252-6.6249 13.252-6.6249z"/><line x1="62" x2="52.64" y1="53.924" y2="48.724" fill="none" stroke="#000" stroke-linecap="round" stroke-linejoin="round" stroke-miterlimit="10" stroke-width="2"/><line x1="57.84" x2="48.48" y1="59.124" y2="53.924" fill="none" stroke="#000" stroke-linecap="round" stroke-linejoin="round" stroke-miterlimit="10" stroke-width="2"/><path fill="none" stroke="#000" stroke-linecap="round" stroke-linejoin="round" stroke-miterlimit="10" stroke-width="2" d="m13.292 47.795c-1.1172-2.7655-1.7316-5.787-1.7316-8.9517l3.64-32.76 10.98 10.715c2.858-1.2066 6.0013-1.8749 9.3001-1.8749h1.04c3.2988 0 6.4421 0.6683 9.3001 1.8749l10.98-10.715 3.64 32.76c0 3.1647-0.6144 6.1862-1.7316 8.9517"/><path fill="none" stroke="#000" stroke-linecap="round" stroke-linejoin="round" stroke-miterlimit="10" stroke-width="2" d="M27.004,61.4549C29.6388,62.4535,32.4956,63,35.4802,63h1.04c4.6465,0,8.9852-1.3243,12.6547-3.6176"/><path fill="none" stroke="#000" stroke-linecap="round" stroke-linejoin="round" stroke-miterlimit="10" stroke-width="2" d="m16.894 33.485s9.2757-9.2767 13.252 6.6249c-10.602 7.9513-13.252-6.6249-13.252-6.6249z"/><line x1="10" x2="18.72" y1="53.924" y2="49.079" fill="none" stroke="#000" stroke-linecap="round" stroke-linejoin="round" stroke-miterlimit="10" stroke-width="2"/><line x1="16.01" x2="14.16" y1="58.091" y2="59.121" fill="none" stroke="#000" stroke-linecap="round" stroke-linejoin="round" stroke-miterlimit="10" stroke-width="2"/><circle cx="23.52" cy="36.244" r="2.08"/><circle cx="48.48" cy="36.244" r="2.08"/><path d="m24.827 59.473c-1.0428 1.0428-2.4302 1.6172-3.9068 1.6173-1.4765 0-2.864-0.5746-3.9082-1.6187-1.0428-1.0428-1.6173-2.4302-1.6159-3.9053 0-4.8605 4.5933-9.5084 4.7887-9.7038 0.4065-0.4064 1.0643-0.4064 1.4708 0 0.1953 0.1953 4.7887 4.8432 4.7886 9.7037 0.0015 1.4751-0.573 2.8627-1.6172 3.9068zm-3.9068-11.321c-1.1993 1.4205-3.4442 4.4727-3.4442 7.4143-0.0014 0.9206 0.3576 1.7853 1.0068 2.4345 0.6507 0.6507 1.5153 1.0097 2.4375 1.0098 1.8413-1e-4 3.4457-1.6044 3.4443-3.4443-1e-4 -2.9416-2.2451-5.9937-3.4444-7.4143z"/><line x1="40.16" x2="36" y1="52.08" y2="46.88" fill="none" stroke="#000" stroke-linecap="round" stroke-linejoin="round" stroke-miterlimit="10" stroke-width="2"/><line x1="31.84" x2="36" y1="52.08" y2="46.88" fill="none" stroke="#000" stroke-linecap="round" stroke-linejoin="round" stroke-miterlimit="10" stroke-width="2"/><line x1="31.84" x2="40.16" y1="46.88" y2="46.88" fill="none" stroke="#000" stroke-linecap="round" stroke-linejoin="round" stroke-miterlimit="10" stroke-width="2"/></g></svg>