<svg xmlns="http://www.w3.org/2000/svg" id="a" viewBox="0 0 72 72"><g id="b"><path fill="#F4AA41" d="m58.666 48.945c-3.5976 9.1169-12.631 15.041-23.207 15.041-9.1173 0-19.256-5.7342-22.854-14.851l-0.1262-0.3127c-1.1415-2.8597-0.9573-6.3599-0.9573-9.6324l3.6669-32.371 10.228 10.08c2.9226-1.2477 6.137-1.9388 9.5103-1.9388h1.0636c3.3734 0 6.5877 0.6911 9.5103 1.9388l11.228-11.08 3.7223 33.876c0 3.2725-0.6283 6.3969-1.7707 9.2566"/><path fill="#E27022" d="m35.458 63.987c10.609 0.3425 20.354-5.8905 23.952-15.007l0.1109-0.231c1.1415-2.8597 0.9579-6.8965 0.9579-10.169l-3.7503-31.76"/><path fill="#EA5A47" d="m33.43 53.78c4.2754 2.8014 9.5698-0.5338 10.33-3.683l1.0825-0.96s-4.7131 3.6039-7.9674-1.0495c0.2153 4.0063-1.5621 5.151-3.3756 5.7404"/><path fill="#fff" d="m55.106 33.741s-13.906 5.8784-13.252 6.6249c13.306 12.103 14.35-4.9389 13.252-6.6249z"/><path fill="#fff" d="m16.894 33.741s12.866 6.9184 13.252 6.6249c-12.845 12.738-14.549-3.8593-13.252-6.6249z"/></g><g id="c"><line x1="34" x2="40.16" y1="46.88" y2="46.88" fill="none" stroke="#000" stroke-linecap="round" stroke-linejoin="round" stroke-miterlimit="10" stroke-width="2"/><path fill="none" stroke="#000" stroke-linecap="round" stroke-linejoin="round" stroke-miterlimit="10" stroke-width="2" d="m33.43 53.761c4.2754 2.8014 9.5698-0.5338 10.33-3.683l1.0825-0.96s-4.7131 3.6039-7.9674-1.0495c0.2153 4.0063-1.5621 5.151-3.3756 5.7404"/><path fill="none" stroke="#000" stroke-linecap="round" stroke-linejoin="round" stroke-miterlimit="10" stroke-width="2" d="m55.106 33.722s-13.906 5.8784-13.252 6.6249c13.306 12.103 14.35-4.939 13.252-6.6249z"/><line x1="62" x2="52.64" y1="54.16" y2="48.96" fill="none" stroke="#000" stroke-linecap="round" stroke-linejoin="round" stroke-miterlimit="10" stroke-width="2"/><line x1="57.84" x2="48.48" y1="59.36" y2="54.16" fill="none" stroke="#000" stroke-linecap="round" stroke-linejoin="round" stroke-miterlimit="10" stroke-width="2"/><path fill="none" stroke="#000" stroke-linecap="round" stroke-linejoin="round" stroke-miterlimit="10" stroke-width="2" d="m13.292 48.032c-1.1172-2.7655-1.7316-5.787-1.7316-8.9517l3.64-32.76 10.98 10.715c2.858-1.2066 6.0013-1.8749 9.3001-1.8749h1.04c3.2988 0 6.4411 0.6683 9.3011 1.8749l10.979-10.715 3.64 32.76c0 3.1647-0.6144 6.1862-1.7316 8.9517"/><path fill="none" stroke="#000" stroke-linecap="round" stroke-linejoin="round" stroke-miterlimit="10" stroke-width="2" d="M22.8253,59.3824C26.4968,61.6757,30.8335,63,35.48,63h1.04c4.6465,0,8.9842-1.3243,12.6547-3.6176"/><path fill="none" stroke="#000" stroke-linecap="round" stroke-linejoin="round" stroke-miterlimit="10" stroke-width="2" d="m16.894 33.722s12.866 6.9184 13.252 6.6249c-12.845 12.738-14.549-3.8594-13.252-6.6249z"/><line x1="10" x2="19.36" y1="54.16" y2="48.96" fill="none" stroke="#000" stroke-linecap="round" stroke-linejoin="round" stroke-miterlimit="10" stroke-width="2"/><line x1="14.16" x2="23.52" y1="59.36" y2="54.16" fill="none" stroke="#000" stroke-linecap="round" stroke-linejoin="round" stroke-miterlimit="10" stroke-width="2"/><circle cx="23.52" cy="38.56" r="2.08"/><circle cx="48.48" cy="38.56" r="2.08"/></g></svg>