<svg xmlns="http://www.w3.org/2000/svg" id="a" viewBox="0 0 72 72"><g id="b"><path fill="#d0cfce" d="m32.4 25.2a4.9126 4.9126 0 0 0 4.7-5.1 4.8278 4.8278 0 0 0-4.3-4.6 3.8281 3.8281 0 0 0-3.6-3.8 3.4576 3.4576 0 0 0-3.3 2.3 4.7026 4.7026 0 0 0-7 4 4.0126 4.0126 0 0 0-1.5-0.3 3.8053 3.8053 0 0 0 0 7.6h15z" transform="translate(0)"/><path fill="#fcea2b" d="M36,17.6A18.4,18.4,0,1,0,54.4,36,18.3516,18.3516,0,0,0,36,17.6Z" transform="translate(0)"/><path fill="#fff" d="M18.4,54.4A6.7359,6.7359,0,0,1,17.8,41h0a5.0376,5.0376,0,0,1,4.9-5.2A4.8469,4.8469,0,0,1,27.2,39a5.6144,5.6144,0,0,1,3.1-.9,6.4244,6.4244,0,0,1,6.3,6.4,4.5519,4.5519,0,0,1,2-.5,5.1706,5.1706,0,0,1,4.9,5.5,5.1146,5.1146,0,0,1-4.9,4.9Z" transform="translate(0)"/><path fill="#d0cfce" d="M53.3,59.9a6.7439,6.7439,0,0,0,6.8-6.8,6.8412,6.8412,0,0,0-6.2-6.8h0A5.3351,5.3351,0,0,0,48.6,41a5.5022,5.5022,0,0,0-4.9,3.2,6.6966,6.6966,0,0,0-9.2,2.5,8.0165,8.0165,0,0,0-.9,3,5.28,5.28,0,0,0-4.4,9.6,5.45,5.45,0,0,0,2.2.5H53.3Z" transform="translate(0)"/><path fill="#fff" d="M38.2,27.1a5.5488,5.5488,0,0,1-5.5-5.5,5.61,5.61,0,0,1,5-5.5h0A4.2682,4.2682,0,0,1,42,11.8a4.1361,4.1361,0,0,1,3.9,2.6,5.432,5.432,0,0,1,8.2,4.5A4.21,4.21,0,0,1,59.7,21a4.2965,4.2965,0,0,1-2.1,5.6,3.9222,3.9222,0,0,1-1.8.4H38.2Z" transform="translate(0)"/></g><g id="c"><path fill="none" stroke="#000" stroke-linecap="round" stroke-linejoin="round" stroke-width="2" d="m53.4 29.9a18.149 18.149 0 0 1 1 6.1 17.702 17.702 0 0 1-0.1 2.3" transform="translate(0)"/><path fill="none" stroke="#000" stroke-linecap="round" stroke-linejoin="round" stroke-width="2" d="M17.7,34.1A18.27,18.27,0,0,1,30,18.6" transform="translate(0)"/><path d="m31.2 32a2.4 2.4 0 1 1-2.4-2.4 2.4334 2.4334 0 0 1 2.4 2.4" transform="translate(0)"/><path d="m45.6 32a2.4 2.4 0 1 1-2.4-2.4 2.4334 2.4334 0 0 1 2.4 2.4" transform="translate(0)"/><path fill="none" stroke="#000" stroke-linecap="round" stroke-linejoin="round" stroke-width="2" d="M31.9,15.3a3.4953,3.4953,0,0,0-6.7-1.4,4.46,4.46,0,0,0-6.1,1.7,6.6371,6.6371,0,0,0-.6,2,3.4677,3.4677,0,1,0-2.9,6.3,3.194,3.194,0,0,0,1.4.3" transform="translate(0)"/><path fill="none" stroke="#000" stroke-linecap="round" stroke-linejoin="round" stroke-width="2" d="M21.9,53.5H18.2a6.1107,6.1107,0,0,1-.5-12.2h0a4.6946,4.6946,0,0,1,4.7-4.7,4.7856,4.7856,0,0,1,4.4,2.9,6.1141,6.1141,0,0,1,7.6,1.3" transform="translate(0)"/><path fill="none" stroke="#000" stroke-linecap="round" stroke-linejoin="round" stroke-width="2" d="M53.3,59.9a6.7439,6.7439,0,0,0,6.8-6.8,6.8412,6.8412,0,0,0-6.2-6.8h0A5.3351,5.3351,0,0,0,48.6,41a5.5022,5.5022,0,0,0-4.9,3.2,6.6966,6.6966,0,0,0-9.2,2.5,8.0165,8.0165,0,0,0-.9,3,5.28,5.28,0,0,0-4.4,9.6,5.45,5.45,0,0,0,2.2.5H53.3Z" transform="translate(0)"/><path fill="none" stroke="#000" stroke-linecap="round" stroke-linejoin="round" stroke-width="2" d="M38.2,27.1a5.5488,5.5488,0,0,1-5.5-5.5,5.61,5.61,0,0,1,5-5.5h0A4.2682,4.2682,0,0,1,42,11.8a4.1361,4.1361,0,0,1,3.9,2.6,5.432,5.432,0,0,1,8.2,4.5A4.21,4.21,0,0,1,59.7,21a4.2965,4.2965,0,0,1-2.1,5.6,3.9222,3.9222,0,0,1-1.8.4H38.2Z" transform="translate(0)"/></g></svg>