<svg xmlns="http://www.w3.org/2000/svg" id="a" viewBox="0 0 72 72"><g id="b"><circle cx="36" cy="36" r="23" fill="#FCEA2B"/><path fill="#fff" d="m43.18 51.87h-14.369c0-4 2.3896-7.1796 7.1797-7.1796 4.789 0 7.2099 3.1894 7.2099 7.1796"/></g><g id="c"><path fill="none" stroke="#000" stroke-linecap="round" stroke-linejoin="round" stroke-miterlimit="10" stroke-width="2" d="m43.18 51.87h-14.369c0-4 2.3896-7.1796 7.1797-7.1796 4.789 0 7.2099 3.1894 7.2099 7.1796"/><path fill="none" stroke="#000" stroke-linecap="round" stroke-linejoin="round" stroke-miterlimit="10" stroke-width="2" d="m20.279 27.2c0.7207-1.3857 1.9278-2.4541 3.3907-3 1.4052-0.7002 3.0205-0.8486 4.5302-0.4209"/><path fill="none" stroke="#000" stroke-linecap="round" stroke-linejoin="round" stroke-miterlimit="10" stroke-width="2" d="m50.89 27.2c-1.582-2.7724-4.8037-4.1699-7.9092-3.4306"/><circle cx="36" cy="36" r="23" fill="none" stroke="#000" stroke-linecap="round" stroke-linejoin="round" stroke-miterlimit="10" stroke-width="2"/><path d="m30 34c0 1.6568-1.3448 3-3 3-1.6553 0-3-1.3433-3-3 0-1.6552 1.3447-3 3-3 1.6552 0 3 1.3448 3 3"/><path d="m48 34c0 1.6568-1.3447 3-3 3s-3-1.3433-3-3c0-1.6552 1.3447-3 3-3s3 1.3448 3 3"/><path fill="none" stroke="#000" stroke-linecap="round" stroke-linejoin="round" stroke-miterlimit="10" stroke-width="2" d="m20.695 27.2c0.7207-1.3857 1.9278-2.4541 3.3907-3 1.4052-0.7002 3.0205-0.8486 4.5302-0.4209"/><path fill="none" stroke="#000" stroke-linecap="round" stroke-linejoin="round" stroke-miterlimit="10" stroke-width="2" d="m51.305 27.2c-1.582-2.7724-4.8037-4.1699-7.9092-3.4306"/></g></svg>