<svg xmlns="http://www.w3.org/2000/svg" id="a" viewBox="0 0 72 72"><g id="b"><circle cx="36" cy="36" r="24" fill="#FCEA2B"/><circle cx="36" cy="48.144" r="3.404" fill="#fff"/></g><g id="c"><path fill="none" stroke="#000" stroke-linecap="round" stroke-linejoin="round" stroke-miterlimit="10" stroke-width="2" d="m44.769 14.731c-0.3678-0.1518-0.7405-0.2944-1.1176-0.4274-2.3937-0.8442-4.9691-1.3034-7.6517-1.3034-12.703 0-23 10.297-23 23 0 12.702 10.297 23 23 23 12.702 0 23-10.298 23-23 0-2.8236-0.5088-5.5284-1.4397-8.0276"/><circle cx="36" cy="48.144" r="3.404" fill="none" stroke="#000" stroke-linecap="round" stroke-linejoin="round" stroke-miterlimit="10" stroke-width="2"/><path fill="none" stroke="#000" stroke-linecap="round" stroke-linejoin="round" stroke-miterlimit="10" stroke-width="2" d="m50.165 32.859c-3.1758 2.3436-7.4563 2.061-10 0"/><path fill="none" stroke="#000" stroke-linecap="round" stroke-linejoin="round" stroke-miterlimit="10" stroke-width="2" d="m31.835 32.859c-3.1758 2.3436-7.4563 2.061-10 0"/><path d="m44.875 24.026h-2.6162c-0.3564 0-0.6855-0.1899-0.8652-0.498-0.1787-0.3086-0.1797-0.6885-0.0029-0.998l1.7607-3.082h-0.8926c-0.5527 0-1-0.4478-1-1s0.4473-1 1-1h2.6162c0.3564 0 0.6855 0.1899 0.8652 0.498 0.1787 0.3086 0.1797 0.6885 0.0029 0.998l-1.7607 3.082h0.8926c0.5527 0 1 0.4478 1 1s-0.4473 1-1 1z"/><path d="m51.018 20.026h-3.7598c-0.3564 0-0.6855-0.1899-0.8652-0.498-0.1787-0.3086-0.1797-0.6885-0.0029-0.998l2.9043-5.082h-2.0361c-0.5527 0-1-0.4478-1-1s0.4473-1 1-1h3.7598c0.3564 0 0.6855 0.1899 0.8652 0.498 0.1787 0.3086 0.1797 0.6885 0.0029 0.998l-2.9044 5.082h2.0361c0.5527 0 1 0.4478 1 1s-0.4472 1-0.9999 1z"/><path d="m59.161 25.026h-4.9023c-0.3564 0-0.6855-0.1899-0.8652-0.498-0.1787-0.3086-0.1797-0.6885-0.0029-0.998l4.0469-7.082h-3.1787c-0.5527 0-1-0.4478-1-1s0.4473-1 1-1h4.9023c0.3564 0 0.6855 0.1899 0.8652 0.498 0.1787 0.3086 0.1797 0.6885 0.0029 0.998l-4.0469 7.082h3.1787c0.5527 0 1 0.4478 1 1s-0.4472 1-1 1z"/></g><g id="d" fill="#61B2E4" stroke="#61B2E4" stroke-miterlimit="10" stroke-width=".1"><path d="m44.875 24.026h-2.6162c-0.3564 0-0.6855-0.1899-0.8652-0.498-0.1787-0.3086-0.1797-0.6885-0.0029-0.998l1.7607-3.082h-0.8926c-0.5527 0-1-0.4478-1-1s0.4473-1 1-1h2.6162c0.3564 0 0.6855 0.1899 0.8652 0.498 0.1787 0.3086 0.1797 0.6885 0.0029 0.998l-1.7607 3.082h0.8926c0.5527 0 1 0.4478 1 1s-0.4473 1-1 1z"/><path d="m51.018 20.026h-3.7598c-0.3564 0-0.6855-0.1899-0.8652-0.498-0.1787-0.3086-0.1797-0.6885-0.0029-0.998l2.9043-5.082h-2.0361c-0.5527 0-1-0.4478-1-1s0.4473-1 1-1h3.7598c0.3564 0 0.6855 0.1899 0.8652 0.498 0.1787 0.3086 0.1797 0.6885 0.0029 0.998l-2.9044 5.082h2.0361c0.5527 0 1 0.4478 1 1s-0.4472 1-0.9999 1z"/><path d="m59.161 25.026h-4.9023c-0.3564 0-0.6855-0.1899-0.8652-0.498-0.1787-0.3086-0.1797-0.6885-0.0029-0.998l4.0469-7.082h-3.1787c-0.5527 0-1-0.4478-1-1s0.4473-1 1-1h4.9023c0.3564 0 0.6855 0.1899 0.8652 0.498 0.1787 0.3086 0.1797 0.6885 0.0029 0.998l-4.0469 7.082h3.1787c0.5527 0 1 0.4478 1 1s-0.4472 1-1 1z"/></g></svg>