<svg xmlns="http://www.w3.org/2000/svg" id="a" viewBox="0 0 72 72"><g id="b"><path fill="#F4AA41" d="m58.65 48.875c-3.5907 9.0991-12.607 15.125-23.162 15.125-9.0995 0-19.218-5.8362-22.809-14.935l-0.1259-0.3121c-1.1393-2.854-1.9535-6.3474-1.9535-9.6135l4.6597-32.306 10.206 10.058c2.9169-1.2453 6.125-1.935 9.4918-1.935h1.0614c3.3668 0 6.5749 0.6897 9.4918 1.935l11.206-11.058 3.715 33.81c0 3.2661-0.6271 6.3845-1.7673 9.2386"/><path fill="#E27022" d="m35.488 63.698c10.478 0.3382 20.103-5.93 23.657-14.935l0.1095-0.2282c1.1274-2.8244 1.9338-6.8115 1.9338-10.044l-4.6918-32.356"/><path fill="#92D3F5" d="m14.247 42.849c-1.8488 0.1561-5.5872 0.7259-7.6631 2.8018-0.6507 0.6487-1.0076 1.5123-1.0076 2.4286 0 0.9184 0.3569 1.782 1.0076 2.4328 1.2995 1.2994 3.564 1.2994 4.8614 0 2.076-2.0759 2.6457-5.8142 2.8017-7.6632z"/><path fill="#92D3F5" d="m57.756 42.849c0.1561 1.8489 0.7257 5.5873 2.8017 7.6632 1.2995 1.2994 3.564 1.2975 4.8615 0 1.34-1.3401 1.34-3.5214 0.0021-4.8614-2.076-2.0759-5.8144-2.6457-7.6653-2.8018z"/><path fill="#EA5A47" d="m25.099 49.036s7.7848 4.1519 10.38-3.1139c2.5949 7.2658 10.784 3.0641 10.784 3.0641s-2.6883 4.3726-3.4807 5.2235c-4.0095 4.3055-9.3823 4.0459-13.645 0.1165-0.9334-0.8604-4.038-5.2902-4.038-5.2902z"/></g><g id="c"><line x1="61.95" x2="52.608" y1="54.177" y2="48.987" fill="none" stroke="#000" stroke-linecap="round" stroke-linejoin="round" stroke-miterlimit="10" stroke-width="2"/><line x1="57.798" x2="48.456" y1="59.367" y2="54.177" fill="none" stroke="#000" stroke-linecap="round" stroke-linejoin="round" stroke-miterlimit="10" stroke-width="2"/><path fill="none" stroke="#000" stroke-linecap="round" stroke-linejoin="round" stroke-miterlimit="10" stroke-width="2" d="m11.74 37.938 3.5008-31.507 10.958 10.694c2.8525-1.2043 5.9896-1.8713 9.282-1.8713h1.038c3.2923 0 6.4295 0.667 9.282 1.8713l10.958-10.694 3.5219 31.698"/><path fill="none" stroke="#000" stroke-linecap="round" stroke-linejoin="round" stroke-miterlimit="10" stroke-width="2" d="m22.852 59.389c3.6644 2.2888 7.9926 3.6106 12.63 3.6106h1.038c4.6375 0 8.9677-1.3218 12.63-3.6106"/><line x1="9.013" x2="18.355" y1="54.177" y2="48.987" fill="none" stroke="#000" stroke-linecap="round" stroke-linejoin="round" stroke-miterlimit="10" stroke-width="2"/><line x1="14.203" x2="23.545" y1="59.367" y2="54.177" fill="none" stroke="#000" stroke-linecap="round" stroke-linejoin="round" stroke-miterlimit="10" stroke-width="2"/><path fill="none" stroke="#000" stroke-linecap="round" stroke-linejoin="round" stroke-miterlimit="10" stroke-width="2" d="m55.203 37.938c-3.1139-4.1519-9.3418-4.1519-11.418 0"/><path fill="none" stroke="#000" stroke-linecap="round" stroke-linejoin="round" stroke-miterlimit="10" stroke-width="2" d="m16.798 37.938c3.1139-4.1519 9.3418-4.1519 11.418 0"/><path d="m9.0142 53.548c-1.4718 0-2.8564-0.5738-3.8985-1.6158-1.042-1.0421-1.6157-2.4267-1.6157-3.9005 0-1.4718 0.5737-2.8564 1.6157-3.8964 3.4302-3.4302 9.952-3.4687 10.228-3.4687 0.5737 0 1.038 0.4643 1.038 1.038 0 0.2757-0.0385 6.7975-3.4687 10.228-1.0401 1.0419-2.4248 1.6157-3.8986 1.6157zm5.2324-10.747c-1.8488 0.1561-5.5872 0.7259-7.6631 2.8018-0.6507 0.6487-1.0076 1.5123-1.0076 2.4286 0 0.9184 0.3569 1.782 1.0076 2.4328 1.2995 1.2994 3.564 1.2994 4.8614 0 2.076-2.0759 2.6457-5.8142 2.8017-7.6632z"/><path d="m62.991 53.548c-1.4739 0-2.8585-0.5738-3.9006-1.6158-3.4301-3.4302-3.4686-9.952-3.4686-10.228 0-0.5737 0.4642-1.038 1.038-1.038 0.2757 0 6.7994 0.0385 10.23 3.4687 2.1489 2.1489 2.1469 5.648-2e-3 7.7969-1.04 1.0421-2.4247 1.6159-3.8964 1.6159zm-5.2345-10.747c0.1561 1.8489 0.7257 5.5873 2.8017 7.6632 1.2995 1.2994 3.564 1.2975 4.8615 0 1.34-1.3401 1.34-3.5214 0.0021-4.8614-2.076-2.0759-5.8144-2.6457-7.6653-2.8018z"/><line x1="31.638" x2="39.958" y1="45.466" y2="45.466" fill="none" stroke="#000" stroke-linecap="round" stroke-linejoin="round" stroke-miterlimit="10" stroke-width="2"/><path fill="none" stroke="#000" stroke-linecap="round" stroke-linejoin="round" stroke-miterlimit="10" stroke-width="2" d="m25.398 48.586s7.8 4.16 10.4-3.12c2.6 7.28 10.805 3.0701 10.805 3.0701s-2.6936 4.3812-3.4875 5.2337c-4.0173 4.3139-9.4006 4.0538-13.672 0.1167-0.9352-0.8621-4.0459-5.3005-4.0459-5.3005z"/></g></svg>