<svg xmlns="http://www.w3.org/2000/svg" id="a" viewBox="0 0 72 72"><g id="b" fill="none" stroke="#000" stroke-linecap="round" stroke-linejoin="round" stroke-miterlimit="10" stroke-width="2"><line x1="18" x2="20" y1="39.884" y2="37.884"/><line x1="20" x2="24" y1="43.884" y2="39.884"/><line x1="54" x2="52" y1="39.884" y2="37.884"/><line x1="52" x2="48" y1="43.884" y2="39.884"/></g><g id="c"><path fill="#FCEA2B" d="m36 13c-12.68 0-23 10.32-23 23s10.32 23 23 23 23-10.32 23-23-10.32-23-23-23z"/><path fill="#fff" d="m33.5 32.31c0 3.59-2.914 6.5-6.5 6.5s-6.5-2.91-6.5-6.5c0-3.586 2.914-6.5 6.5-6.5s6.5 2.914 6.5 6.5"/><path fill="#fff" d="m51.5 32.31c0 3.59-2.914 6.5-6.5 6.5s-6.5-2.91-6.5-6.5c0-3.586 2.914-6.5 6.5-6.5s6.5 2.914 6.5 6.5"/><line x1="18" x2="20" y1="42.553" y2="40.553" fill="none" stroke="#EA5A47" stroke-linecap="round" stroke-linejoin="round" stroke-miterlimit="10" stroke-width="2"/><line x1="20" x2="24" y1="46.553" y2="42.553" fill="none" stroke="#EA5A47" stroke-linecap="round" stroke-linejoin="round" stroke-miterlimit="10" stroke-width="2"/><line x1="54" x2="52" y1="42.553" y2="40.553" fill="none" stroke="#EA5A47" stroke-linecap="round" stroke-linejoin="round" stroke-miterlimit="10" stroke-width="2"/><line x1="52" x2="48" y1="46.553" y2="42.553" fill="none" stroke="#EA5A47" stroke-linecap="round" stroke-linejoin="round" stroke-miterlimit="10" stroke-width="2"/></g><g id="d"><path d="m29.56 32.43c0 1.411-1.146 2.556-2.556 2.556s-2.556-1.144-2.556-2.556c0-1.41 1.146-2.556 2.556-2.556s2.556 1.146 2.556 2.556"/><path d="m47.56 32.43c0 1.411-1.146 2.556-2.556 2.556s-2.556-1.144-2.556-2.556c0-1.41 1.146-2.556 2.556-2.556s2.556 1.146 2.556 2.556"/><circle cx="36" cy="36" r="23" fill="none" stroke="#000" stroke-miterlimit="10" stroke-width="2"/><path fill="none" stroke="#000" stroke-miterlimit="10" stroke-width="2" d="m33.5 32.43c0 3.59-2.914 6.5-6.5 6.5s-6.5-2.91-6.5-6.5c0-3.586 2.914-6.5 6.5-6.5s6.5 2.914 6.5 6.5"/><path fill="none" stroke="#000" stroke-miterlimit="10" stroke-width="2" d="m51.5 32.43c0 3.59-2.914 6.5-6.5 6.5s-6.5-2.91-6.5-6.5c0-3.586 2.914-6.5 6.5-6.5s6.5 2.914 6.5 6.5"/><path fill="none" stroke="#000" stroke-linecap="round" stroke-linejoin="round" stroke-miterlimit="10" stroke-width="2" d="m21.69 22.44c0.3525-0.406 1.928-2.129 4.582-2.405 2.153-0.2232 3.761 0.6367 4.301 0.9572"/><path fill="none" stroke="#000" stroke-linecap="round" stroke-linejoin="round" stroke-miterlimit="10" stroke-width="2" d="m41.43 20.97c0.464-0.2717 2.509-1.4 5.111-0.8103 2.111 0.4781 3.359 1.808 3.768 2.284"/><path fill="none" stroke="#000" stroke-linecap="round" stroke-linejoin="round" stroke-miterlimit="10" stroke-width="2" d="m42.5 46.5c-1.2841 0.6376-11.832 0.5835-13 0"/></g></svg>