<?xml version="1.0" encoding="UTF-8"?>
<svg id="a" viewBox="0 0 72 72" xmlns="http://www.w3.org/2000/svg"><g id="b"><circle cx="36" cy="36" r="24" fill="#FCEA2B"/><path d="m9.2458 27.724c-0.2538-1.041-0.087-2.1185 0.4698-3.0339 1.8322-3.0136 6.4342-4.1651 6.629-4.2126 0.4053-0.0988 0.8134 0.1495 0.9122 0.5546 0.0476 0.1952 1.1432 4.8107-0.6888 7.8253l1e-4 4e-4c-1.1491 1.888-3.6208 2.4902-5.5094 1.3416-0.9153-0.5549-1.5591-1.4344-1.8129-2.4754z" fill="#92D3F5"/></g><g id="c"><path d="m30 31c0 1.6568-1.3448 3-3 3-1.6553 0-3-1.3433-3-3 0-1.6552 1.3447-3 3-3 1.6552 0 3 1.3448 3 3"/><path d="m48 31c0 1.6568-1.3447 3-3 3s-3-1.3433-3-3c0-1.6552 1.3447-3 3-3s3 1.3448 3 3"/><path d="m26.5 48c1.8768-3.8326 5.8239-6.1965 10-6 3.8343 0.1804 7.2926 2.4926 9 6" fill="none" stroke="#000" stroke-linecap="round" stroke-linejoin="round" stroke-miterlimit="10" stroke-width="2"/><path d="m23.148 24.25c0.4872 0.2275 2.6277 1.1608 5.1639 0.3327 2.0576-0.6718 3.1771-2.1117 3.5396-2.6239" fill="none" stroke="#000" stroke-linecap="round" stroke-linejoin="round" stroke-miterlimit="10" stroke-width="2"/><path d="m48.852 24.25c-0.4872 0.2275-2.6277 1.1608-5.1639 0.3327-2.0576-0.6718-3.1771-2.1117-3.5396-2.6239" fill="none" stroke="#000" stroke-linecap="round" stroke-linejoin="round" stroke-miterlimit="10" stroke-width="2"/><path d="m9.2458 27.724c-0.2538-1.041-0.087-2.1185 0.4698-3.0339 1.8322-3.0136 6.4342-4.1651 6.629-4.2126 0.4053-0.0988 0.8134 0.1495 0.9122 0.5546 0.0476 0.1952 1.1432 4.8107-0.6888 7.8253l1e-4 4e-4c-1.1491 1.888-3.6208 2.4902-5.5094 1.3416-0.9153-0.5549-1.5591-1.4344-1.8129-2.4754z" fill="none" stroke="#000" stroke-miterlimit="10" stroke-width="2"/><path d="m21.997 17.745c3.8787-2.9798 8.7341-4.7512 14.003-4.7512 12.706 0 23.006 10.3 23.006 23.006s-10.3 23.006-23.006 23.006-23.006-10.3-23.006-23.006c0-0.396 0.01-0.7896 0.0298-1.1807" fill="none" stroke="#000" stroke-linecap="round" stroke-miterlimit="10" stroke-width="2"/></g></svg>
