<?xml version="1.0" encoding="UTF-8"?>
<svg id="a" viewBox="0 0 72 72" xmlns="http://www.w3.org/2000/svg"><g id="b"><path d="m58.628 48.844c-3.5949 9.1099-12.622 15.143-23.19 15.143-9.1103 0-19.241-5.8431-22.836-14.953l-0.1261-0.3124c-1.1406-2.8575-0.9558-6.355-0.9558-9.625l3.664-32.346 10.22 10.071c2.9204-1.2468 6.1323-1.9373 9.5031-1.9373h1.0627c3.3708 0 6.5827 0.6905 9.5031 1.9373l11.22-11.072 3.7194 33.85c0 3.27-0.6278 6.3921-1.7694 9.2495" fill="#F4AA41"/><path d="m35.439 63.987c10.601 0.3422 20.339-5.9994 23.934-15.109l0.1108-0.2309c1.1406-2.8575 1.9564-6.8912 1.9564-10.161l-4.7467-32.735" fill="#E27022"/><path d="m23.882 31.304c-1.364-3.6159-6.9438-3.8472-6.5942 1.4207 0.0465 0.6991 0.3029 1.3718 0.6915 1.9551l5.7331 6.9237 5.6288-6.7552c0.6248-0.7507 0.9944-1.7011 0.9756-2.6793-0.0931-4.692-5.4452-4.3501-6.6057-0.8663" fill="#D22F27"/><path d="m25.386 48.639s7.794 4.1568 10.392-3.1176c2.598 7.2744 10.797 3.0677 10.797 3.0677s-2.6915 4.3778-3.4848 5.2297c-4.0142 4.3106-9.3934 4.0507-13.661 0.1167-0.9346-0.8615-4.0429-5.2965-4.0429-5.2965z" fill="#EA5A47"/><path d="m48.604 31.304c-1.364-3.6159-6.9438-3.8472-6.5942 1.4207 0.0465 0.6991 0.3029 1.3718 0.6915 1.9551l5.7331 6.9237 5.6288-6.7552c0.6248-0.7507 0.9944-1.7011 0.9756-2.6793-0.0931-4.692-5.4452-4.3501-6.6057-0.8663" fill="#D22F27"/></g><g id="c" fill="none" stroke="#000" stroke-linecap="round" stroke-linejoin="round" stroke-miterlimit="10" stroke-width="2"><line x1="62.018" x2="52.549" y1="54.059" y2="49.078"/><line x1="57.804" x2="48.451" y1="59.363" y2="54.167"/><path d="m13.289 48.043c-1.1163-2.7634-1.7303-5.7826-1.7303-8.9449l3.6372-32.735 10.97 10.707c2.8569-1.2057 5.9978-1.8735 9.294-1.8735h1.0392c3.2962 0 6.4371 0.6678 9.294 1.8735l10.97-10.707 3.6372 32.735c0 3.1623-0.614 6.1815-1.7303 8.9449"/><path d="M22.8155,59.3851C26.4832,61.6766,30.8176,63,35.4606,63h1.0392c4.643,0,8.9774-1.3233,12.6451-3.6149"/><line x1="10" x2="19.353" y1="54.167" y2="48.971"/><line x1="14.157" x2="23.51" y1="59.363" y2="54.167"/><path d="m23.882 31.397c-1.364-3.6159-6.9438-3.8472-6.5942 1.4207 0.0465 0.6991 0.3029 1.3718 0.6915 1.9551l5.7331 6.9237 5.6288-6.7552c0.6248-0.7507 0.9944-1.7011 0.9756-2.6793-0.0931-4.692-5.4452-4.3501-6.6057-0.8663"/><path d="m48.604 31.397c-1.364-3.6159-6.9438-3.8472-6.5942 1.4207 0.0465 0.6991 0.3029 1.3718 0.6915 1.9551l5.7331 6.9237 5.6288-6.7552c0.6248-0.7507 0.9944-1.7011 0.9756-2.6793-0.0931-4.692-5.4452-4.3501-6.6057-0.8663"/><line x1="31.638" x2="39.958" y1="45.466" y2="45.466"/><path d="m25.398 48.586s7.8 4.16 10.4-3.12c2.6 7.28 10.805 3.0701 10.805 3.0701s-2.6936 4.3812-3.4875 5.2337c-4.0173 4.3139-9.4006 4.0538-13.672 0.1167-0.9352-0.8621-4.0459-5.3005-4.0459-5.3005z"/></g></svg>
