<svg xmlns="http://www.w3.org/2000/svg" id="a" viewBox="0 0 72 72"><g id="b"><path fill="#F4AA41" d="m58.666 48.832c-3.5977 9.1169-12.631 15.155-23.207 15.155-9.1173 0-19.256-5.8476-22.854-14.964l-0.1262-0.3127c-1.1415-2.8597-1.9573-6.3599-1.9573-9.6324l3.6669-33.371 11.228 11.08c2.9226-1.2477 6.137-1.9388 9.5103-1.9388h1.0635c3.3734 0 6.5877 0.6911 9.5103 1.9388l11.228-11.08 3.7223 33.876c0 3.2725-0.6283 6.3969-1.7707 9.2566"/><path fill="#E27022" d="m35.458 63.987c10.609 0.3424 20.354-6.004 23.952-15.121l0.1109-0.231c1.1415-2.8597 1.9579-6.8965 1.9579-10.169l-4.7503-32.76"/><path fill="#EA5A47" d="m25.6 48.524s7.8 4.16 10.4-3.12c2.6 7.28 10.805 3.0701 10.805 3.0701s-2.6936 4.3812-3.4875 5.2337c-4.0173 4.3139-9.4006 4.0538-13.672 0.1167-0.9352-0.8621-4.0459-5.3005-4.0459-5.3005z"/></g><g id="c" fill="none" stroke="#000" stroke-linecap="round" stroke-linejoin="round" stroke-miterlimit="10" stroke-width="2"><line x1="62" x2="52.64" y1="54.128" y2="48.928"/><line x1="57.84" x2="48.48" y1="59.328" y2="54.128"/><path d="m13.292 48c-1.1172-2.7655-1.7316-5.787-1.7316-8.9517l3.64-32.76 10.98 10.715c2.858-1.2066 6.0013-1.8749 9.3001-1.8749h1.04c3.2988 0 6.4421 0.6683 9.3001 1.8749l10.98-10.715 3.64 32.76c0 3.1647-0.6144 6.1862-1.7316 8.9517"/><line x1="10" x2="19.36" y1="54.128" y2="48.928"/><line x1="14.16" x2="23.52" y1="59.328" y2="54.128"/><line x1="31.638" x2="39.958" y1="45.466" y2="45.466"/><path d="m25.398 48.586s7.8 4.16 10.4-3.12c2.6 7.28 10.805 3.0701 10.805 3.0701s-2.6936 4.3812-3.4875 5.2337c-4.0173 4.3139-9.4006 4.0538-13.672 0.1167-0.9352-0.8621-4.0459-5.3005-4.0459-5.3005z"/><path d="m22.851 59.389c3.6644 2.2888 7.9926 3.6106 12.63 3.6106h1.038c4.6375 0 8.9677-1.3218 12.63-3.6106"/><path d="m55.203 37.758c-3.1139-4.1519-9.3418-4.1519-11.418 0"/><path d="m16.798 37.758c3.1139-4.1519 9.3418-4.1519 11.418 0"/></g></svg>