<svg xmlns="http://www.w3.org/2000/svg" id="a" viewBox="0 0 72 72"><g id="b"><path fill="#F4AA41" d="m58.666 48.832c-3.5976 9.1169-12.631 15.155-23.207 15.155-9.1173 0-19.256-5.8476-22.854-14.964l-0.1262-0.3127c-1.1415-2.8597-0.9573-6.3599-0.9573-9.6324l3.6669-32.371 10.228 10.08c2.9226-1.2477 6.137-1.9388 9.5103-1.9388h1.0635c3.3733 0 6.5877 0.6911 9.5103 1.9388l11.228-11.08 3.7223 33.876c0 3.2725-0.6283 6.3969-1.7707 9.2566"/><path fill="#E27022" d="m35.458 63.987c10.609 0.3425 20.354-6.004 23.952-15.121l0.1109-0.231c1.1415-2.8597 0.9579-6.8965 0.9579-10.169l-3.7503-32.76"/></g><g id="c" fill="none" stroke="#000" stroke-linecap="round" stroke-linejoin="round" stroke-miterlimit="10" stroke-width="2"><line x1="62" x2="52.64" y1="54.16" y2="48.96"/><line x1="57.84" x2="48.48" y1="59.36" y2="54.16"/><path d="m13.292 48.032c-1.1172-2.7655-1.7316-5.787-1.7316-8.9517l3.64-32.76 10.98 10.715c2.858-1.2066 6.0013-1.8749 9.3001-1.8749h1.04c3.2988 0 6.4421 0.6683 9.3001 1.8749l10.98-10.715 3.64 32.76c0 3.1647-0.6144 6.1862-1.7316 8.9517"/><path d="M22.8253,59.3824C26.4968,61.6757,30.8335,63,35.48,63h1.04c4.6465,0,8.9852-1.3243,12.6547-3.6176"/><line x1="10" x2="19.36" y1="54.16" y2="48.96"/><line x1="14.16" x2="23.52" y1="59.36" y2="54.16"/><path d="m55.24 38.929c-3.12-4.16-9.36-4.16-11.44 0"/><path d="m16.76 38.929c3.12-4.16 9.36-4.16 11.44 0"/><path d="m35.648 47.684s10.946 3.3234 0 5.7862c0 0 10.876 3.1078 0 5.109"/></g></svg>