<svg xmlns="http://www.w3.org/2000/svg" id="a" viewBox="0 0 72 72"><g id="b"><path fill="#fcea2b" d="m36 12.958a23 23 0 1 0 23 23 23.026 23.026 0 0 0-23-23z" transform="translate(0)"/></g><g id="c" stroke="#000" stroke-miterlimit="10"><circle cx="36" cy="35.958" r="23" fill="none" stroke-width="2"/><path stroke-width="2.51" d="m35.778 43.681a4.1686 4.1686 0 1 0 5e-4 0z" transform="translate(0)"/><g fill="none" stroke-linecap="round" stroke-width="2"><path d="m41.27 30.937a5.4893 5.4893 0 1 1 10.979 0" transform="translate(0)"/><path d="m44.93 30.937a1.83 1.83 0 0 1 3.66 0" transform="translate(0)"/><path d="m41.27 30.937a7.3149 7.3149 0 0 0 7.3107 7.3191h0.0084" transform="translate(0)"/><path d="M44.93,30.9367a3.66,3.66,0,0,0,7.319.121q.001-.06,0-.121" transform="translate(0)"/></g><g fill="none" stroke-linecap="round" stroke-width="2"><path d="m19.316 30.937a5.4893 5.4893 0 0 1 10.979 0" transform="translate(0)"/><path d="m22.975 30.937a1.83 1.83 0 0 1 3.66 0" transform="translate(0)"/><path d="m19.316 30.937a7.3149 7.3149 0 0 0 7.3107 7.3191h0.0084" transform="translate(0)"/><path d="M22.975,30.9367a3.66,3.66,0,1,0,7.3191.1148q.0009-.0573,0-.1148" transform="translate(0)"/></g></g></svg>