<svg xmlns="http://www.w3.org/2000/svg" id="a" viewBox="0 0 72 72"><g id="b"><line x1="20.566" x2="20.568" y1="35.241" y2="19.225" fill="#fcea2b" stroke-linecap="round" stroke-linejoin="round" stroke-miterlimit="10" stroke-width="2"/></g><g id="c" fill="#c19a65" stroke="#c19a65"><path d="m57.573 35.953-0.1749-18.673 1e-4 0.7675c-5e-4 -3.5223 6.4973-4.4704 6.498 0.8314l0.0603 6.4345 0.1146 12.239-0.1318-14.073c-5e-4 -3.1731 5.6525-3.2804 5.6531 0.8117l0.0035 24.379c0.0013 8.8056-7.0629 15.827-15.868 15.829s-15.945-7.1361-15.946-15.942c0.0464-3.0717-0.2798-8.2946-0.2808-15.38 2.1739-2.1745 5.6522 0.8046 6.8519 3.646l7e-4 4.8897-0.0033-23.065c-5e-4 -3.6647 6.6298-3.9373 6.6304 0.5772l-4e-4 -2.9215c-6e-4 -3.9456 6.4176-5.3212 6.4186 1.7439"/><path d="m13.975 35.953 0.1749-18.673-1e-4 0.7675c5e-4 -3.5223-6.4973-4.4704-6.498 0.8314l-0.0603 6.4345-0.1146 12.239 0.1318-14.073c5e-4 -3.1731-5.6525-3.2804-5.6531 0.8117l-0.0035 24.379c-0.0013 8.8056 7.0629 15.827 15.868 15.829s15.945-7.1361 15.946-15.942c-0.0464-3.0717 0.2798-8.2946 0.2808-15.38-2.1739-2.1745-5.6522 0.8046-6.8519 3.646l-7e-4 4.8897 0.0033-23.065c5e-4 -3.6647-6.6298-3.9373-6.6304 0.5772l4e-4 -2.9215c6e-4 -3.9456-6.4176-5.3212-6.4186 1.7439"/></g><g id="d" fill="none" stroke="#000" stroke-linecap="round" stroke-linejoin="round" stroke-miterlimit="10" stroke-width="2"><line x1="20.566" x2="20.568" y1="35.241" y2="19.225"/><line x1="50.982" x2="50.979" y1="37.552" y2="19.225"/><path d="m57.573 35.953-0.1749-18.673 1e-4 0.7675c-5e-4 -3.5223 6.4973-4.4704 6.498 0.8314l0.0603 6.4345 0.1146 12.239-0.1318-14.073c-5e-4 -3.1731 5.6525-3.2804 5.6531 0.8117l0.0035 24.379c0.0013 8.8056-7.0629 15.827-15.868 15.829s-15.945-7.1361-15.946-15.942c0.0464-3.0717-0.2798-8.2946-0.2808-15.38 2.1739-2.1745 5.6522 0.8046 6.8519 3.646l7e-4 4.8897-0.0033-23.065c-5e-4 -3.6647 6.6298-3.9373 6.6304 0.5772l-4e-4 -2.9215c-6e-4 -3.9456 6.4176-5.3212 6.4186 1.7439"/><line x1="50.982" x2="50.979" y1="37.552" y2="19.225"/><line x1="20.566" x2="20.568" y1="37.552" y2="19.225"/><path d="m13.975 35.953 0.1749-18.673-1e-4 0.7675c5e-4 -3.5223-6.4973-4.4704-6.498 0.8314l-0.0603 6.4345-0.1146 12.239 0.1318-14.073c5e-4 -3.1731-5.6525-3.2804-5.6531 0.8117l-0.0035 24.379c-0.0013 8.8056 7.0629 15.827 15.868 15.829s15.945-7.1361 15.946-15.942c-0.0464-3.0717 0.2798-8.2946 0.2808-15.38-2.1739-2.1745-5.6522 0.8046-6.8519 3.646l-7e-4 4.8897 0.0033-23.065c5e-4 -3.6647-6.6298-3.9373-6.6304 0.5772l4e-4 -2.9215c6e-4 -3.9456-6.4176-5.3212-6.4186 1.7439"/></g></svg>