<svg xmlns="http://www.w3.org/2000/svg" id="a" viewBox="0 0 72 72"><g id="b"><path fill="#92d3f5" d="m21.167 33.042a23.705 23.705 0 0 0-3.665 2.333c-2.2159 1.7734-3.918 16.334-3.834 17.667s1.583 7.916 2.25 7.916h40.332s2.166-3.333 2.083-4.333 0.25-14.749-1.166-16.583-1.5459-4.1895-2.418-4.833a28.567 28.567 0 0 0-3.582-2.167"/></g><g id="c" fill="#a57939"><path d="m28.027 32.806c0 4-3.3024 4.9077-2.8605 9.2359 0 4 4.873 8 10.936 8 5.9365 0 11.064-4 11.064-10-1.8908-9.0673-18.041-1.6116-19.002-6.9607"/><path d="m34.167 58.042a1.92 1.92 0 0 1-2 1.9414c-1.1025 0-6 0.0586-6 0.0586h-6s0-4 5-4h7a1.9588 1.9588 0 0 1 2 2z"/><path d="m38.167 58.042a1.92 1.92 0 0 0 2 1.9414c1.1025 0 6 0.0586 6 0.0586h6s0-4-5-4h-7a1.9588 1.9588 0 0 0-2 2z"/></g><g id="d"><path d="m27.981 32.485c-0.2564 1.2272-4.04 9.9921-2.8146 10.557-2 0-3-3-3-10s4-14 14-14 14 7 14 14-1 10-3 10c0 0 2.28-9.869-13.59-6.75-4.6843 0.9207-5.5954-3.807-5.5954-3.807z"/></g><g id="e" fill="none" stroke="#000" stroke-linecap="round" stroke-width="2"><path stroke-linejoin="round" d="m25.167 43.042c-1.6017-1.6179-3-3-3-10s4-14 14-14 14 7 14 14-2.0506 8.6946-3.3079 9.888"/><path stroke-linejoin="round" d="m28.126 34.586c-2.0432 1.2648-2.8054 4.0007-2.96 7.4561 0 4 4.873 8 10.936 8 5.9365 0 11.064-4 11.064-10-0.5544-9.64-19.567 0.0482-19.053-7.5431l0.2264-3.6809"/><path stroke-linejoin="round" d="m34.167 58.042a1.92 1.92 0 0 1-2 1.9414c-1.1025 0-6 0.0586-6 0.0586h-6s0-4 5-4h7a1.9588 1.9588 0 0 1 2 2z"/><path stroke-linejoin="round" d="m38.167 58.042a1.92 1.92 0 0 0 2 1.9414c1.1025 0 6 0.0586 6 0.0586h6s0-4-5-4h-7a1.9588 1.9588 0 0 0-2 2z"/><path stroke-linejoin="round" d="m18.167 36.042s-4 3-4 12v4c0 3 0 6 2 8"/><path stroke-linejoin="round" d="m54.167 36.042s4 3 4 12v5c0 3 0 5-2 7"/><line x1="23.167" x2="26.167" y1="15.042" y2="18.042" stroke-linejoin="round"/><line x1="31.167" x2="29.167" y1="15.042" y2="12.042" stroke-linejoin="round"/><line x1="49.167" x2="46.167" y1="15.042" y2="18.042" stroke-linejoin="round"/><line x1="41.167" x2="43.167" y1="15.042" y2="12.042" stroke-linejoin="round"/><path stroke-miterlimit="10" d="m33.167 43.042a2.7822 2.7822 0 0 1-3 0"/><path stroke-miterlimit="10" d="m39.167 43.042a2.9662 2.9662 0 0 0 3 0"/></g></svg>