<svg xmlns="http://www.w3.org/2000/svg" id="a" viewBox="0 0 72 72"><g id="b"><path fill="#92d3f5" d="m17.008 60.958v-4c0-4.9941 5.0078-9 10-9q9 7.5 18 0c4.9941 0 10 4.0059 10 9v4"/></g><g id="c"><path fill="#c19a65" d="m25.608 29.474v0.957c0 7.6494 4.6093 13.643 10.494 13.643s10.494-5.9932 10.494-13.643c0-4.6533-1.7784-7.5151-5.2842-11.134a64.146 64.146 0 0 1-8.9883 5.772c-2.6465 1.5142-6.2549 3.5693-6.7158 4.4053z"/></g><g id="d"><path fill="#6a462f" d="m53.455 34.156a23.722 23.722 0 0 1-1.1573-2.6327c-1.4726-3.27-2.0234-4.4927-2.3486-10.524 0.0273-3.6929-3.794-6.7842-7.4746-7.0928a1.0016 1.0016 0 0 1-0.6885-0.3433c-0.0928-0.1-2.4082-2.6548-7.2432-2.6548-6.2 0-11.441 3.3819-12.743 8.2261a18.517 18.517 0 0 0-0.5645 6.1757 13.318 13.318 0 0 1-0.7607 5.961 6.8046 6.8046 0 0 1-1.1192 2.0879c-3.7725 4.42-0.9747 14.303-1.167 14.01a24.054 24.054 0 0 0 3.6331 2.7193 10.466 10.466 0 0 1 5.361-2.09c6.209 5.0127 12.495 5.0127 18.7 0a8.3431 8.3431 0 0 1 4.2087 1.5137 22.793 22.793 0 0 0 2.972-2.33c1.1886-0.7155 3.1252-8.2829 0.3918-13.026zm-12.446 8.8351c-3.3782 2.5446-9.6082 1.083-9.6082 1.083s-8.6461-7.4083-5.7928-14.6c0 0 15.269-9.2095 15.401-10.789 0 4e-4 13.851 13.873 0 24.306z"/></g><g id="e"><path fill="none" stroke="#000" stroke-linecap="round" stroke-linejoin="round" stroke-width="2" d="m17.008 59.958v-3c0-4.9941 5.0078-9 10-9q9 7.5 18 0c4.9941 0 10 4.0059 10 9v3"/><path d="M42.0082,30.9583c0,1.1045-.8955,1-2,1s-2,.1045-2-1a3.1184,3.1184,0,0,1,1-2c1.1045,0,3,.8955,3,2"/><path d="M34.0082,30.9583c0,1.1045-.8955,1-2,1s-2,.1045-2-1c0-1,2.0225-2,3.127-2a3.2627,3.2627,0,0,1,.873,2"/><path fill="none" stroke="#000" stroke-linecap="round" stroke-linejoin="round" stroke-width="2" d="m38.008 38.708a3.0417 3.0417 0 0 0-4 0"/><path fill="none" stroke="#000" stroke-linecap="round" stroke-linejoin="round" stroke-width="2" d="m18.854 46.658c-3.7227-5.8565-0.628-10.08 1.18-14.725 1.6357-4.2-0.209-6.4512 1.291-12.034 1.48-5.5 7.2773-8.9658 13.709-8.9658 5.4 0 8 3 8 3a8.1321 8.1321 0 0 1 7.4049 8.0367c0.3867 7.18 1.0244 7.1523 3.4287 12.822a11.599 11.599 0 0 1-1.4463 11.663"/><path fill="none" stroke="#000" stroke-linejoin="round" stroke-width="2" d="m25.034 30.933c0 8 5 14 11 14s11-6 11-14c0-5-2-8-6-12-4 4-16 9-16 11z"/></g></svg>