<?xml version="1.0" encoding="UTF-8"?>
<svg id="a" viewBox="0 0 72 72" xmlns="http://www.w3.org/2000/svg"><g id="b"><path d="m17.008 60.958v-4c0-4.9941 2.7617-7.12 6.9844-9.4121 5.3633-2.458 16.562-2.918 23.948-0.13 3.3184 1.4609 7.0674 4.5479 7.0674 9.542v4" fill="#92d3f5"/></g><g id="c" fill="#fcea2b"><path d="m25.841 30.292c0 9 4.04 14.666 10.104 14.666 5.9365 0 10.106-5.9307 10.106-14.931 0-3-0.042-4.0693-0.042-4.0693-3-3-7-8-7-8-4 3-7 6-13 7 0 0-0.167 0.334-0.167 5.334z"/><path d="m42.564 38.403 8-7a1.4142 1.4142 0 0 1 2 2l-5 6"/><path d="m50.008 60.916-16-17-3.5557-4-1-1-6-4.5557a1.4142 1.4142 0 0 0-2 2l3 3.5557a39.326 39.326 0 0 0 2 6c0.6328 1.2647 3.5557 2 3.5557 2l2 2 8 11"/><path d="m22.008 60.916 16-17 3.5557-4 1-1 6-4.5557a1.4142 1.4142 0 0 1 2 2l-3 3.5557a39.326 39.326 0 0 1-2 6c-0.6328 1.2647-3.5557 2-3.5557 2l-2 2-8 11"/><path d="m29.453 38.403-8-7a1.4142 1.4142 0 0 0-2 2l5 6"/></g><g id="d"><path d="m39.244 18.446c0.1743 0.9826-11.092 5.57-12.995 6.551s-0.3463 5.2567-0.3463 5.2567a28.582 28.582 0 0 0 0.3878 4.764l-5.0339-3.75a48.883 48.883 0 0 1-0.2449-5.2235c0-7 5-14.062 15-14.062s15 7.0625 15 14.062c0 1.7359-0.0615 3.4065-0.215 4.9373l-5.1892 3.9026a30.768 30.768 0 0 0 0.4437-4.8562l0.5629-2.0462z" fill="#f1b31c"/></g><g id="e"><path d="M22.0112,27.9583c-.0029-.6543-.0029-1.3223-.0029-2,0-7,5-14,14-14a13.75,13.75,0,0,1,14,14c0,.6.0039,1.1318.0049,1.666" fill="none" stroke="#000" stroke-linecap="round" stroke-linejoin="round" stroke-width="2"/><path d="m41.881 29.958a2 2 0 1 1-2-2 2 2 0 0 1 2 2"/><path d="m33.881 29.958a2 2 0 1 1-2-2 2 2 0 0 1 2 2"/><path d="M46.9712,29.9563a11.66,11.66,0,0,0-.9629-3.998c-3-3-7-8-7-8-4,3-7,6-13,7,0,0-.9287.873-1.05,5.0693" fill="none" stroke="#000" stroke-linecap="round" stroke-linejoin="round" stroke-width="2"/><path d="m34.008 37.958h4" fill="none" stroke="#000" stroke-linecap="round" stroke-linejoin="round" stroke-width="2"/><path d="m47.941 48.408c3.85 1.1778 7.0674 4.5469 7.0674 8.5508v3" fill="none" stroke="#000" stroke-linecap="round" stroke-linejoin="round" stroke-width="2"/><path d="m17.008 59.958v-3c0-3.9756 3.1719-7.3242 6.9844-8.5244" fill="none" stroke="#000" stroke-linecap="round" stroke-linejoin="round" stroke-width="2"/><path d="m42.564 38.403 8-7a1.4142 1.4142 0 0 1 2 2l-5 6" fill="none" stroke="#000" stroke-linecap="round" stroke-linejoin="round" stroke-width="2"/><path d="m29.453 38.403-8-7a1.4142 1.4142 0 0 0-2 2l5 6" fill="none" stroke="#000" stroke-linecap="round" stroke-linejoin="round" stroke-width="2"/><line x1="36.01" x2="32.008" y1="54.906" y2="59.958" fill="none" stroke="#000" stroke-linecap="round" stroke-linejoin="round" stroke-width="2"/><path d="m35.977 45.494 5.5869-6.0909 1-1 6-4.5556a1.4142 1.4142 0 0 1 2 2l-3 3.5556a39.326 39.326 0 0 1-2 6c-0.6328 1.2647-3.5557 2-3.5557 2l-2.127 2" fill="none" stroke="#000" stroke-linecap="round" stroke-linejoin="round" stroke-width="2"/><line x1="22.008" x2="32.008" y1="59.958" y2="49.403" fill="none" stroke="#000" stroke-linecap="round" stroke-linejoin="round" stroke-width="2"/><path d="m50.008 59.958-16-16.556-3.5557-4-1-1-6-4.5556a1.4142 1.4142 0 0 0-2 2l3 3.5556a39.326 39.326 0 0 0 2 6c0.6328 1.2647 3.5557 2 3.5557 2l2 2 8 10.556" fill="none" stroke="#000" stroke-linecap="round" stroke-linejoin="round" stroke-width="2"/></g></svg>
