<svg xmlns="http://www.w3.org/2000/svg" id="a" viewBox="0 0 72 72"><g id="b"><path fill="#92d3f5" d="m22.494 65-0.2186-2.8134a23.426 23.426 0 0 1-4.3358-3.5173l3.9769-10.069c1.0234-2.5912 1.6347-3.5607 3.0234-2.5912 3.0068 2.0987 6.3457 2.9219 7.625 3.85 4.3281 3.6926 12.34 4.625 19.34 1.46 3 0 9.5687 3.8215 9.5687 9.09v4.5458z"/></g><g id="c" fill="#a57939"><path d="m18.63 55.99c-2.624-3.249-5.712-4.458-6.212-6.458-0.543-2.169-3.193-15.63-2.192-19.88 0.4003-2.535 0.4843-5.111 0.25-7.666-0.06-0.998 0.8437-4.688 0.8437-6.688-0.04883-1.323 0.07726-2.647 0.375-3.938 1.188-1.725 2.872-0.7321 2.898 0.4981l1.039-4.342c0.1875-1.281 3.698-2.219 3.188 1.25l0.4502-2.481c0.6811-1.425 2.381-1.16 2.758-0.6921 0.6222 0.809 0.3033 1.542 0.256 2.536 0 0 2.254-0.01883 1.671 3.002-0.19 0.9824-1.633 10.23-1.633 10.23 0.458-0.458 1.541-4.699 3.124-4.699 2.119 0 1.904 1.65 1.904 1.65s-0.6026 1.433-1.281 2.673c-1.012 1.851-2.281 5.5-3.281 6.5-1.673 1.114-3.417 2.116-5.222 3l2.91 12.25s0.167 0.5381 2.496 2.256"/><path d="m31.436 34.004c-0.1015 7.999 4.0635 14 11 14 7.0635 0 11.064-6 11.064-14 0-5-3-10-3-10-8 0-10 3-16 1a17.077 17.077 0 0 0-3.0635 9z"/></g><g id="d"><path d="m50.777 22.692c-7.473 0-8.7162 3.5912-16.36 1.88-3.4041-0.7622-1.9181 16.432-1.9181 16.432-3 0-4-7-4-14 0-6 5-12 14-12s14 6 14 12c0 7-1 14-4 14 0-1e-4 0.7169-18.312-1.7219-18.312z"/></g><g id="e"><path fill="none" stroke="#000" stroke-linecap="round" stroke-linejoin="round" stroke-width="2" d="m22.474 63.99a2.9818 2.9818 0 0 0-0.8419-2.6982c-3.1581-2.4458-4.1581-3.3018-4.1581-3.3018l5-12"/><path d="m48.347 32.99a2 2 0 1 1-2-2 2 2 0 0 1 2 2"/><path d="m40.347 32.99a2 2 0 1 1-2-2 2 2 0 0 1 2 2"/><path fill="none" stroke="#000" stroke-linecap="round" stroke-linejoin="round" stroke-width="2" d="m39.474 40.99a6.5535 6.5535 0 0 0 6 0"/><path fill="none" stroke="#000" stroke-linecap="round" stroke-linejoin="round" stroke-width="2" d="m20.183 6.7816c-0.709 3.9248-1.125 6.6318-1.709 11.208"/><path fill="none" stroke="#000" stroke-linecap="round" stroke-linejoin="round" stroke-width="2" d="m21.542 21.365c0.2929-2.1626 1.0979-6.7505 1.5567-11.375"/><path fill="none" stroke="#000" stroke-linecap="round" stroke-linejoin="round" stroke-width="2" d="M61.4738,63.99s.0908-2.25.0908-3c0-7-9.0908-10-9.0908-10-7,2-11,2-16,1-3.2754-.6553-10.0273-4.59-15-8,0,0-3.9093-9.5-3.9093-13.5005,0-.5825,5.5518-1.9936,7-6.5.7813-2.4307,1.8106-5.6738,1.8106-5.6738"/><path fill="none" stroke="#000" stroke-linecap="round" stroke-linejoin="round" stroke-width="2" d="m14.474 17.99c0.86-5.0757 1.5645-8.6211 2-10"/><path fill="none" stroke="#000" stroke-linecap="round" stroke-linejoin="round" stroke-width="2" d="M18.6281,55.221c-5-4-6.5879-5.12-7.1543-8.2314-2-11-1-14.5811-1-18,0-1,.0156,0,.0156-6,.001-.812.5078-4.3931.9844-7a25.2783,25.2783,0,0,1,1-4"/><path fill="none" stroke="#000" stroke-linecap="round" stroke-linejoin="round" stroke-width="2" d="m32.499 41.004c-3 0-4-7-4-14 0-6 5-12 14-12s14 6 14 12c0 7-1 14-4 14"/><path fill="none" stroke="#000" stroke-linejoin="round" stroke-width="2" d="m31.436 34.004c-0.1015 7.999 4.9365 14 11 14 5.9365 0 11.064-6 11.064-14 0-5-3-11-3-11-8 0-10 3-16 1 0 0-3 5-3.0635 10z"/></g></svg>