<svg xmlns="http://www.w3.org/2000/svg" id="a" viewBox="0 0 72 72"><g id="b"><path fill="#92d3f5" d="M56.5094,60.9261l4-17-10.9375-4.375-3.3966-.7953c-2.4082,3.0312.4884,1.516-1.0917,2.5687-6.6572,8.6026-13.8242,6.1338-19.0742.05-.1789-1.3857.502.1162-.3457-1.916l-3.1543.4678-10,3,4,18"/></g><g id="c" fill="#fcea2b"><path d="m24.946 32.958c0 9 4.9365 14 11 14 5.9365 0 11.064-5 11.064-14a12.137 12.137 0 0 0-1-5.0005c-1.0351-2.9427-1.86-5.952-1.86-5.952-5.9361 0.4123-11.584 2.68-16.489 1.4841a20.66 20.66 0 0 0-2.7142 9.4684z"/><path d="M23.0055,39.9583c-1.0918-4.1-1.6553-8.4766-1.9961-10.25-.6426-3.3394,5-12.75,5-12.75h2c3,0,5-2,11-2a.8313.8313,0,0,0,.9414-.5483L28.9664,11.5423a25.4338,25.4338,0,0,0-3.957.416,11.464,11.464,0,0,0-4,2s-7,11-7,15v13"/><path d="M48.9176,38.9593c.9219-3.7,1.6182-7.6348,2.0918-10.001.667-3.3345-5-12-5-12a3.4914,3.4914,0,0,0-2-1c-3,0-4-2-6-3a53.8435,53.8435,0,0,0-8-1,.9794.9794,0,0,1-1-1s.041-1.0835,1.041-1.0835c2.58,0,7.2276.0835,10.959.0835a32.8785,32.8785,0,0,1,8,2,11.0667,11.0667,0,0,1,2,2s7,11,7,15V42.9261"/></g><g id="d"><path fill="#f1b31c" d="m44.077 21.68c-4.8587 0-11.546 2.0538-15.766 2.0255-5.411-0.0361-2.6467 15.752-2.6467 15.752-2.7372 0-5.1853-4.4652-3.9721-11.359 1.5823-8.9916 1.9655-11.51 13.352-12.44 12.581-1.0286 15.408 5.4768 15.408 12.477s-0.2765 10.62-4.2765 10.62c1.0584-0.5518-0.1826-17.075-2.0986-17.075z"/></g><g id="e"><path d="m41.882 31.958a2 2 0 1 1-2-2 2 2 0 0 1 2 2"/><path d="m33.882 31.958a2 2 0 1 1-2-2 2 2 0 0 1 2 2"/><path fill="none" stroke="#000" stroke-linecap="round" stroke-linejoin="round" stroke-width="2" d="m39.009 39.458c-1 2-5 2-6 0"/><path fill="none" stroke="#000" stroke-linecap="round" stroke-linejoin="round" stroke-width="2" d="m47.809 39.015a33.664 33.664 0 0 0 3.2-10.057c0.667-3.3345-5-12-5-12a3.4914 3.4914 0 0 0-2-1c-3 0-4-2-6-3a52.19 52.19 0 0 0-7.5547-0.9932 1.3266 1.3266 0 0 1-1.4033-1.3242s-0.042-1.4785 2.0791-1.4453a49.99 49.99 0 0 1 9.8789 0.7627c0.98 0.1963 6.0244 1.0508 8 2a11.067 11.067 0 0 1 2 2s7 11 7 15v13.968"/><path fill="none" stroke="#000" stroke-linecap="round" stroke-linejoin="round" stroke-width="2" d="M39.9508,14.41a.8313.8313,0,0,1-.9414.5483c-6,0-8,2-11,2h-2s-5.6426,9.4106-5,12.75a55.9551,55.9551,0,0,0,2.7433,9.0475"/><path fill="none" stroke="#000" stroke-linecap="round" stroke-linejoin="round" stroke-width="2" d="m14.009 41.958v-13c0-4 7-15 7-15a11.464 11.464 0 0 1 4-2 13.369 13.369 0 0 1 4.7363-0.187"/><polyline fill="none" stroke="#000" stroke-linecap="round" stroke-linejoin="round" stroke-width="2" points="25.664 39.015 12.009 42.958 16.009 59.958"/><polyline fill="none" stroke="#000" stroke-linecap="round" stroke-linejoin="round" stroke-width="2" points="46.574 38.756 60.009 43.958 56.009 59.958"/><path fill="none" stroke="#000" stroke-linejoin="round" stroke-width="2" d="m24.902 33.068c-0.1015 7.999 4.9365 14 11 14 5.9365 0 11.064-6 11.064-14 0-5-3-11-3-11-8 0-10 3-16 1 0 0-3 5-3.0635 10z"/></g></svg>