<svg xmlns="http://www.w3.org/2000/svg" id="a" viewBox="0 0 72 72"><g id="b"><path fill="#92d3f5" d="M56.4916,60.9261l4-17-10.9375-4.375-.1543-.624c-2.4082,3.0312-2.7539,1.3447-4.334,2.3974-6.6572,8.6026-13.8242,6.1338-19.0742.05-1.8174-1.3633-1.6562.584-2.5039-1.4482h-.9961l-10,3,4,18"/></g><g id="c" fill="#fadcbc"><path d="m25.492 34.122c0.1758 5.6241 4.3724 12.836 10.436 12.836 5.9365 0 11.064-5 11.064-14a12.137 12.137 0 0 0-1-5.0005 42.425 42.425 0 0 0-5.0326-7.1736c-4 3-10.713 7.45-15.751 10.5a11.316 11.316 0 0 1 0.2838 2.8383z"/><path d="M19.16,39.7814c-1.0918-4.1.3363-8.5475,1.8321-10.0731-.6426-3.3394,5-12.75,5-12.75h2c3,0,5-2,11-2a.8313.8313,0,0,0,.9414-.5483L28.9486,11.5423a25.4338,25.4338,0,0,0-3.957.416,11.464,11.464,0,0,0-4,2s-7,11-7,15v13"/><path d="M52.8316,41.1857c.9219-3.7-.5752-9.712-1.84-12.2274.667-3.3345-5-12-5-12a3.4914,3.4914,0,0,0-2-1c-3,0-4-2-6-3a53.8435,53.8435,0,0,0-8-1,.9794.9794,0,0,1-1-1s.041-1.0835,1.041-1.0835c2.58,0,7.2276.0835,10.959.0835a32.8785,32.8785,0,0,1,8,2,11.0667,11.0667,0,0,1,2,2s7,11,7,15c0,3.25.04,13.5592.04,13.5592"/></g><g id="d"><path fill="#a57939" d="m39.796 14.531-13.557 2.7947s-7.792 12.604-8.0266 17.578c-0.503 10.664 8.35 10.462 9.9091 7.9977 0 0-5.7474-8.9862-1.2879-12.494s13.617-7.7894 14.33-9.3949c0 0 9.9434 8.54 2.9133 21.347 0.2189 0.788 15.629 6.698 7.3161-15.181l-6.3658-11.119-5.231-1.5289"/></g><g id="e"><path d="m41.865 31.958a2 2 0 1 1-2-2 2 2 0 0 1 2 2"/><path d="m33.865 31.958a2 2 0 1 1-2-2 2 2 0 0 1 2 2"/><path fill="none" stroke="#000" stroke-linecap="round" stroke-linejoin="round" stroke-width="2" d="m38.992 39.458c-1 2-5 2-6 0"/><path fill="none" stroke="#000" stroke-linecap="round" stroke-linejoin="round" stroke-width="2" d="m50.492 25.677a48.822 48.822 0 0 0-4.5-8.7183 3.4914 3.4914 0 0 0-2-1c-3 0-4-2-6-3a52.19 52.19 0 0 0-7.5547-0.9932 1.3266 1.3266 0 0 1-1.4033-1.3242s-0.042-1.4785 2.0791-1.4453a49.99 49.99 0 0 1 9.8789 0.7627c0.98 0.1963 6.0244 1.0508 8 2a11.067 11.067 0 0 1 2 2s7 11 7 15v13.968"/><path fill="none" stroke="#000" stroke-linecap="round" stroke-linejoin="round" stroke-width="2" d="M39.933,14.41a.8313.8313,0,0,1-.9414.5483c-6,0-8,2-11,2h-2a60.7884,60.7884,0,0,0-4.2353,8.6106"/><path fill="none" stroke="#000" stroke-linecap="round" stroke-linejoin="round" stroke-width="2" d="m13.992 41.958v-13c0-4 7-15 7-15a11.464 11.464 0 0 1 4-2 13.369 13.369 0 0 1 4.7363-0.187"/><polyline fill="none" stroke="#000" stroke-linecap="round" stroke-linejoin="round" stroke-width="2" points="19.159 40.888 11.992 42.958 15.992 59.958"/><polyline fill="none" stroke="#000" stroke-linecap="round" stroke-linejoin="round" stroke-width="2" points="52.832 41.186 59.992 43.958 55.992 59.958"/><path fill="none" stroke="#000" stroke-linejoin="round" stroke-width="2" d="m24.945 32.976c0 8 5 14 11 14s11-6 11-14c0-5-2-8-6-12-4 4-16 9-16 11z"/><path fill="none" stroke="#000" stroke-linecap="round" stroke-linejoin="round" stroke-width="2" d="m48.675 42.696c9.6774-0.4961 2.7925-14.081 1.7261-17.294"/><path fill="none" stroke="#000" stroke-linecap="round" stroke-linejoin="round" stroke-width="2" d="m21.762 25.557c-1.2019 3.33-7.6447 14.149 1.3293 17.495"/></g></svg>