<svg xmlns="http://www.w3.org/2000/svg" id="a" viewBox="0 0 72 72"><g id="b"><path fill="none" stroke="#000" stroke-linecap="round" stroke-miterlimit="10" stroke-width="2" d="m53.303 39c1.3354-3.979-0.0762-8.7844-3.6538-11-4.1779-2.5872-10.453-1.1119-13.491 3.952-2.9627-5.0735-9.2588-6.5804-13.491-3.952-3.4854 2.1647-5.2226 6.9179-3.6538 11"/></g><g id="c"><path fill="#6A462F" d="m19.692 19.332c-0.3299 0-7.1412-2.2454-10.307 3.9209-2.7954 5.4454 0.1467 9.812 3.4856 13.311"/><path fill="#6A462F" d="m52.22 19.332c0.3299 0 7.1412-2.2454 10.307 3.9209 2.7954 5.4454-0.1467 9.812-3.4856 13.311"/><path fill="#6A462F" d="m59.815 35.572c0 13.491-10.274 24.428-23.696 24.428s-24.304-10.936-24.304-24.428c1.9757-13.744 10.881-23.572 24.304-23.572 12.766 0 22.179 10.395 23.696 23.572z"/><path fill="#A57939" d="m49.649 27.021c-4.1779-2.5872-10.453-1.1119-13.491 3.952-2.9627-5.0735-9.2588-6.5804-13.491-3.952-3.4854 2.1647-5.2226 6.9179-3.6538 11 1.7617 4.5837 6.6722 5.6682 7.0266 5.7402-1.3571 6.1786-0.9503 11.823 0.0668 15.226 6.6579 1.3446 13.288 1.3563 19.888 0 1.8269-3.5132 2.108-7.9185 0.5621-14.664 0.4676-0.1376 5.1701-1.6083 6.7454-6.3024 1.3354-3.979-0.0762-8.7844-3.6538-11z"/><path fill="#fff" d="m41.978 49.017c-0.2036 0.2681-0.7527 6.0217-6.3387 6.0246-4.9521 0.0025-5.4413-5.6762-5.7048-6.0246h12.044z"/><path fill="#A57939" d="m22.33 60.623c1.8841-3.9279-0.7967 1.6609 1.0874-2.267-0.5664-1.6119-1.2604-4.0223-1.5384-7.0087-0.425-4.5648 0.1233-10.46 1.5384-10.662 0.555-0.0795 1.4734 0.6838 3.0324 4.7202 2.6006-3.0933 8.3652-6.2699 8.999-5.4998 0.6228 0.7568-0.0903 2.5375-0.0098 3.503 2.6552-1.2069 3.9497-1.4041 4.2664-1.0505 0.3186 0.3557-0.0824 1.6942-1.7721 4.3494 3.1158-0.7429 4.1039 0.1181 3.9426 0.8046-0.6076 2.5859-2.7004 5.9308-6.4366 9.6067-2.0968 2.0629-4.741 2.5726-6.3992 2.9133-0.6095 5.022 0.0557-1.9975-0.5538 3.0245"/><path fill="#6A462F" d="m23.649 58.356s-1.0936 1.828-1.7359 3.0995l6.1562 2.4335c0.6311-1.5839 1.2022-3.857 1.2022-3.857l-5.6225-1.676z"/><path fill="#A57939" d="m50.093 60.393c-1.8841-3.9279 0.6032 0.978-1.2808-2.9498 0.5664-1.6119 1.2604-4.0223 1.5384-7.0087 0.425-4.5648-0.1233-10.46-1.5384-10.662-0.555-0.0795-1.4734 0.6838-3.0324 4.7202-2.6006-3.0933-8.3652-6.2699-8.999-5.4998-0.6228 0.7568 0.0903 2.5375 0.0098 3.503-2.6552-1.2069-3.9497-1.4041-4.2664-1.0505-0.3186 0.3557 0.0824 1.6942 1.7721 4.3494-3.1158-0.7429-4.1039 0.1181-3.9426 0.8046 0.6076 2.5859 2.7004 5.9308 6.4366 9.6067 2.0968 2.0629 4.741 2.5726 6.3992 2.9133 0.6095 5.022-0.1317-1.0847 0.4778 3.9373"/><path fill="#6A462F" d="m43.187 59.096c-0.0058-0.0477-0.0171-0.1411 0 0z"/><path fill="#6A462F" d="m43.19 59.12c-9e-4 -0.0074-0.0021-0.0173-0.0029-0.0237 0.0016 0.013 0.0029 0.0237 0.0029 0.0237z"/><path fill="#6A462F" d="m48.752 57.462 0.0601-0.0179c0-1e-4 -0.1545-0.2501-0.0601 0.0179z"/><path fill="#6A462F" d="m50.613 60.993s-1.7696-3.2729-1.8609-3.5319l-5.5625 1.658c0.0319 0.2634 0.1424 1.1735 0.4778 4.9373l6.9456-3.0634z"/></g><g id="d"><circle cx="26.837" cy="35.251" r="3"/><circle cx="45.393" cy="35.251" r="3"/><path fill="none" stroke="#000" stroke-linecap="round" stroke-linejoin="round" stroke-miterlimit="10" stroke-width="2" d="m19.777 19.654c-0.3299 0-7.1412-2.2454-10.307 3.9209-2.7954 5.4454 0.1467 9.8121 3.4855 13.312"/><path fill="none" stroke="#000" stroke-linecap="round" stroke-linejoin="round" stroke-miterlimit="10" stroke-width="2" d="m52.305 19.654c0.3299 0 7.1412-2.2454 10.307 3.9209 2.7954 5.4454-0.1467 9.812-3.4856 13.311"/><path fill="none" stroke="#000" stroke-linecap="round" stroke-linejoin="round" stroke-miterlimit="10" stroke-width="2" d="m28.49 63.061 0.55-3.03s4.3-0.85 6.4-2.91c0.39-0.38 0.76-0.77 1.12-1.14"/><path fill="none" stroke="#000" stroke-linecap="round" stroke-linejoin="round" stroke-miterlimit="10" stroke-width="2" d="m35.59 41.981c0.12-0.79 0.23-1.62-0.14-2.07-0.63-0.78-6.4 2.4-9 5.49-1.56-4.03-2.48-4.79-3.03-4.72-1.42 0.21-1.97 6.1-1.54 10.67 0.28 2.98 0.97 5.39 1.54 7.01-0.16 0.33-0.29 0.59-0.39 0.8v0.01c-0.01 0.03-0.03 0.06-0.04 0.08-0.02 0.03-0.04 0.07-0.05 0.11-0.02 0.04-0.03 0.07-0.05 0.09 0 0.02-0.01 0.03-0.01 0.04-0.01 0-0.01 0.01-0.01 0.02-0.01 0.01-0.02 0.03-0.02 0.04-0.02 0.04-0.04 0.07-0.05 0.1"/><path fill="none" stroke="#000" stroke-linecap="round" stroke-linejoin="round" stroke-miterlimit="10" stroke-width="2" d="m22.33 60.621c0.15-0.32 0.28-0.58 0.38-0.78 0 0 0-0.01 0.01-0.02v-0.01c0.01-0.01 0.02-0.02 0.02-0.04l0.06-0.12c0.01-0.03 0.03-0.06 0.05-0.1 0-0.01 0.01-0.03 0.02-0.04 0-0.01 0-0.02 0.01-0.02 0.02-0.05 0.04-0.09 0.06-0.13"/><path fill="none" stroke="#000" stroke-linecap="round" stroke-linejoin="round" stroke-miterlimit="10" stroke-width="2" d="m35.59 41.981c0.12-0.79 0.23-1.62-0.14-2.07-0.63-0.78-6.4 2.4-9 5.49-1.56-4.03-2.48-4.79-3.03-4.72-1.42 0.21-1.97 6.1-1.54 10.67 0.28 2.98 0.97 5.39 1.54 7.01-0.16 0.33-0.29 0.59-0.39 0.8v0.01c-0.01 0.03-0.03 0.06-0.04 0.08-0.02 0.03-0.04 0.07-0.05 0.11-0.02 0.04-0.03 0.07-0.05 0.09-0.01 0.02-0.02 0.04-0.02 0.06-0.01 0.01-0.02 0.03-0.02 0.04-0.02 0.04-0.04 0.07-0.05 0.1l-0.06 0.12c0 0.02-0.01 0.03-0.02 0.04v0.01c-0.01 0.01-0.01 0.02-0.01 0.02-0.1 0.2-0.23 0.46-0.38 0.78"/><path fill="none" stroke="#000" stroke-linecap="round" stroke-linejoin="round" stroke-miterlimit="10" stroke-width="2" d="m50.093 60.114c-1.8841-3.9279 0.6032 1.2576-1.2808-2.6702 0.5664-1.6119 1.2604-4.0223 1.5384-7.0087 0.425-4.5648-0.1233-10.46-1.5384-10.662-0.555-0.0795-1.4734 0.6838-3.0324 4.7202-2.6006-3.0933-8.3652-6.2699-8.999-5.4998-0.6228 0.7568 0.0903 2.5375 0.0098 3.503-2.6552-1.2069-3.9497-1.4041-4.2664-1.0505-0.3186 0.3557 0.0824 1.6942 1.7721 4.3494-3.1158-0.7429-4.1039 0.1181-3.9426 0.8046 0.6076 2.5859 2.7004 5.9308 6.4366 9.6067 2.0968 2.0629 4.741 2.5726 6.3992 2.9133 0.6095 5.022-0.1317-1.0847 0.4778 3.9373"/><path fill="none" stroke="#000" stroke-linecap="round" stroke-miterlimit="10" stroke-width="2" d="M17.9101,50.2056 C14.8346,46.2945,13,41.3615,13,36c0-12.7025,10.2975-23,23-23s23,10.2975,23,23c0,5.2036-1.728,10.0035-4.6415,13.8573"/></g></svg>