<svg xmlns="http://www.w3.org/2000/svg" id="a" viewBox="0 0 72 72"><g id="b"><path fill="#92d3f5" d="m17 60.958v-4c0-4.9941 5.0078-9 10-9q9 7.5 18 0c4.9941 0 10 4.0059 10 9v4"/></g><g id="c"><path fill="#a57939" d="m24.926 30.944c-0.1015 7.999 4.0635 14 11 14 7.0635 0 11.064-6 11.064-14 0-5-3-10-3-10-8 0-10 3-16 1a17.077 17.077 0 0 0-3.0635 9z"/></g><g id="d"><path d="m43.899 19.502c-1.4662 0.7738-15.477 2.0364-15.477 2.0364-5.4169 2.3619-2.4319 16.406-2.4319 16.406-3 0-4-7-4-14 0-6 5-12 14-12s14 6 14 12c0 7-1 14-4 14 2.4979 0.0333-0.625-19.217-2.0912-18.443z"/></g><g id="e"><path fill="none" stroke="#000" stroke-linecap="round" stroke-linejoin="round" stroke-width="2" d="m17 59.958v-3c0-4.9941 5.0078-9 10-9q9 7.5 18 0c4.9941 0 10 4.0059 10 9v3"/><path d="M42,30.9583c0,1.1045-.8955,1-2,1s-2,.1045-2-1a3.1184,3.1184,0,0,1,1-2c1.1045,0,3,.8955,3,2"/><path d="M34,30.9583c0,1.1045-.8955,1-2,1s-2,.1045-2-1c0-1,2.0225-2,3.127-2a3.2627,3.2627,0,0,1,.873,2"/><path fill="none" stroke="#000" stroke-linecap="round" stroke-linejoin="round" stroke-width="2" d="m38 38.708a3.0417 3.0417 0 0 0-4 0"/><path fill="none" stroke="#000" stroke-linecap="round" stroke-linejoin="round" stroke-width="2" d="m25.99 37.944c-3 0-4-7-4-14 0-6 5-12 14-12s14 6 14 12c0 7-1 14-4 14"/><path fill="none" stroke="#000" stroke-linejoin="round" stroke-width="2" d="m24.926 30.944c-0.1015 7.999 4.9365 14 11 14 5.9365 0 11.064-6 11.064-14 0-5-3-11-3-11-8 0-10 3-16 1 3e-4 0-2.9997 5-3.0635 10z"/></g></svg>