<?xml version="1.0" encoding="UTF-8"?>
<svg id="a" viewBox="0 0 72 72" xmlns="http://www.w3.org/2000/svg"><g id="b"><path d="m58.363 49.283c-3.5496 8.9951-12.463 14.81-22.897 14.81-8.9955 0-18.999-5.6278-22.548-14.623l-0.1245-0.3085c-1.1262-2.8215-0.9311-6.2749-0.9311-9.5037l3.6179-31.925 10.078 9.9318c2.8836-1.231 6.055-1.9129 9.3833-1.9129h1.0493c3.3283 0 6.4997 0.6818 9.3833 1.9129l11.078-10.932 3.6726 33.423c0 3.2288-0.6199 6.3115-1.7471 9.1329" fill="#F4AA41"/><path d="m35.466 64.093c10.467 0.3379 20.082-5.782 23.632-14.777l0.1094-0.2279c1.1262-2.8215 0.9317-6.8043 0.9317-10.033l-3.6868-32.322" fill="#E27022"/><ellipse cx="36" cy="51.719" rx="6.4518" ry="7.7514" fill="#EA5A47"/><ellipse transform="matrix(.3339 -.9426 .9426 .3339 -15.942 45.829)" cx="24.456" cy="34.194" rx="7.7513" ry="6.4517" fill="#fff"/><ellipse transform="matrix(.9426 -.3339 .3339 .9426 -8.7295 17.602)" cx="46.84" cy="34.195" rx="6.4517" ry="7.7513" fill="#fff"/><path d="m15.295 65h9.0343s1.3738-13.369 0-15.81c-0.9984-1.7742-2.5479-5.2709-6.8527-5.1379-1.5576 0.0481-6.0111 1.347-4.7097 5.2514 1.8131 5.4394 3.4222 4.5051 4.2929 6.1777 1.1442 2.1978-1.7648 9.5189-1.7648 9.5189z" fill="#F4AA41"/><path d="m56.324 65h-9.0343s-1.3738-13.369 0-15.81c0.9984-1.7742 2.5479-5.2709 6.8527-5.1379 1.5577 0.0481 6.0111 1.347 4.7097 5.2514-1.8131 5.4394-3.4222 4.5051-4.2929 6.1777-1.1442 2.1978 1.7648 9.5189 1.7648 9.5189z" fill="#F4AA41"/></g><g id="c" fill="none" stroke="#000" stroke-linecap="round" stroke-linejoin="round" stroke-miterlimit="10" stroke-width="2"><line x1="61.65" x2="57.61" y1="54.45" y2="52.2"/><line x1="57.55" x2="54.34" y1="59.58" y2="57.8"/><path d="m12.92 46.48s-0.01-0.01 0-0.01c-0.67-2.19-1.03-4.5-1.03-6.9l3.59-32.32 10.83 10.57c2.82-1.19 5.92-1.85 9.18-1.85h1.02c3.26 0 6.36 0.66 9.18 1.85l10.83-10.57 3.59 32.32c0 2.59-0.41 5.07-1.19 7.4"/><path d="m24.7 60.56c3.23 1.67 6.9 2.61 10.79 2.61h1.02c3.75 0 7.28-0.87 10.43-2.42"/><line x1="14.1" x2="10.35" y1="52.36" y2="54.45"/><line x1="17.25" x2="14.45" y1="58.02" y2="59.58"/><ellipse cx="36" cy="51.719" rx="6.4518" ry="7.7514"/><ellipse transform="matrix(.3339 -.9426 .9426 .3339 -15.942 45.829)" cx="24.456" cy="34.194" rx="7.7513" ry="6.4517"/><ellipse transform="matrix(.9426 -.3339 .3339 .9426 -8.7295 17.602)" cx="46.84" cy="34.195" rx="6.4517" ry="7.7513"/><path d="m15.295 65h9.0343s1.3738-13.369 0-15.81c-0.9984-1.7742-2.5479-5.2709-6.8527-5.1379-1.5576 0.0481-6.0111 1.347-4.7097 5.2514 1.8131 5.4394 3.4222 4.5051 4.2929 6.1777 1.1442 2.1978-1.7648 9.5189-1.7648 9.5189z"/><path d="m56.324 65h-9.0343s-1.3738-13.369 0-15.81c0.9984-1.7742 2.5479-5.2709 6.8527-5.1379 1.5577 0.0481 6.0111 1.347 4.7097 5.2514-1.8131 5.4394-3.4222 4.5051-4.2929 6.1777-1.1442 2.1978 1.7648 9.5189 1.7648 9.5189z"/></g></svg>
