<svg xmlns="http://www.w3.org/2000/svg" id="a" viewBox="0 0 72 72"><g id="b"><path fill="#FCEA2B" d="m36 13c-12.682 0-23 10.318-23 23 0 12.682 10.318 23 23 23 12.682 0 23-10.318 23-23 0-12.682-10.318-23-23-23z"/></g><g id="c"><circle cx="36" cy="36" r="23" fill="none" stroke="#000" stroke-miterlimit="10" stroke-width="2"/><path d="m30 31c0 1.6568-1.3448 3-3 3-1.6553 0-3-1.3433-3-3 0-1.6552 1.3447-3 3-3 1.6552 0 3 1.3448 3 3"/><path d="m48 31c0 1.6568-1.3447 3-3 3s-3-1.3433-3-3c0-1.6552 1.3447-3 3-3s3 1.3448 3 3"/><path fill="none" stroke="#000" stroke-linecap="round" stroke-linejoin="round" stroke-miterlimit="10" stroke-width="2" d="M28,46c1.5805-2.5575,4.9043-4.1349,8.4211-4.0038C39.6499,42.1166,42.5622,43.6595,44,46"/></g></svg>