<?xml version="1.0" encoding="UTF-8"?>
<svg id="a" viewBox="0 0 72 72" xmlns="http://www.w3.org/2000/svg"><g id="b" fill="none" stroke="#000" stroke-linecap="round" stroke-linejoin="round" stroke-miterlimit="10" stroke-width="2"><path d="m50.384 47.206c-1.7396 1.4508-3.5449 2.0133-3.8255 2.096 1.2769 3.8998 1.5308 7.3335 0.8554 9.3629"/><path d="m23.741 31.407c4.0808-1.403 9.8253 0.1056 12.418 4.5449 2.5249-4.2094 7.8873-5.739 11.822-4.7169"/><path d="m25.721 59.576c-0.7095-2.8184-0.848-5.5181 0.3199-10.835-0.2215-0.045-2.2221-0.4854-4.1217-1.928"/></g><g id="c"><circle cx="36.116" cy="36" r="24" fill="#6A462F"/><path d="m26.108 57.887c-1.017-3.4032-1.4239-6.0475-0.0668-12.226-0.3544-0.072-5.2649-1.1565-7.0265-5.7402-1.5688-4.0821 0.1684-8.8353 3.6538-11 4.2321-2.6284 10.528-1.1215 13.491 3.952 3.0375-5.0639 9.313-6.5391 13.491-3.952 3.5775 2.2155 4.9892 7.0209 3.6538 11-1.5753 4.6941-6.2779 6.1647-6.7455 6.3024 0.9411 4.1067 1.2051 6.2341 0.8554 8.0629-0.1115 0.583-0.6968 1.054-1.4137 2.6346-0.3895 0.8587-3.7481 0.5225-4 1" fill="#A57939"/><path d="m41.979 48.917c-0.2036 0.2681-0.7527 6.0217-6.3387 6.0246-4.9521 0.0025-5.4413-5.6762-5.7048-6.0246h12.044z" fill="#fff"/><path d="m19.232 18.438c-0.361 0-8.0248-2.1272-11.489 4.6208-3.059 5.959-0.3874 10.255 4.0243 14.237" fill="#6A462F"/><path d="m52.933 18.807c0.3466 0 8.0022-2.5589 11.328 3.9191 2.9367 5.7207 0.4686 11.892-4.1618 14.184" fill="#6A462F"/><path d="m18.945 50.455c-0.4804-6.0396 0.0392-0.0793-0.4413-6.1189 0.7336-1.8542 1.6918-4.7683 2.059-8.4418 0.2878-2.8791-0.0143-3.9562-0.4118-10.3-0.5229-8.3456-0.2387-10.29-1.0295-10.496-1.4192-0.3691-4.4446 5.3461-5.971 10.496-1.6205 5.4675-1.5585 10.321-1.2354 13.594-0.8922 7.6868-0.3078-2.4173-1.2001 5.2695" fill="#A57939"/><path d="m11.304 39.19 0.0609 0.0441c0.1711-0.7626-0.0609-0.0441-0.0609-0.0441z" fill="#6A462F"/><path d="m19 57.921c-0.5222-6.0806-0.5346-13.548-0.5346-13.548l-7.1002-5.1383c-0.1299 0.5787-0.4918 2.0098-1.3652 5.2612l9 13.425z" fill="#6A462F"/><path d="m53.402 50.455c0.4804-6.0396-0.0392-0.0793 0.4413-6.1189-0.7336-1.8542-1.6918-4.7683-2.059-8.4418-0.2878-2.8791 0.0143-3.9562 0.4118-10.3 0.5229-8.3456 0.2387-10.29 1.0295-10.496 1.4192-0.3691 4.4446 5.3461 5.971 10.496 1.6205 5.4675 1.5585 10.321 1.2354 13.594 0.8922 7.6868 0.5987-1.1402 1.4909 6.5466" fill="#A57939"/><path d="m60.893 39.503 0.4278-0.313s-0.3159-0.2516-0.4278 0.313z" fill="#6A462F"/><path d="m62 45.921c-1.1036-4.1549-1.2314-5.7905-1.1072-6.4174l-6.9938 5.1184s0.0441 7.9261-0.4971 14.299l8.5981-13z" fill="#6A462F"/></g><g id="d"><circle cx="26.838" cy="38.251" r="3"/><circle cx="45.394" cy="38.251" r="3"/><path d="m41.979 49.017c-0.2036 0.2681-0.7527 6.0217-6.3387 6.0246-4.9521 0.0025-5.4413-5.6762-5.7048-6.0246h12.044z" fill="none" stroke="#000" stroke-linecap="round" stroke-linejoin="round" stroke-miterlimit="10" stroke-width="2"/><circle cx="34.099" cy="44.558" r="1"/><circle cx="37.738" cy="44.558" r="1"/><path d="m11.684 20.184c-1.2053 0.6459-2.3451 1.7036-3.2117 3.3917-1.708 3.3272-1.274 6.2517 0.0837 8.8217" fill="none" stroke="#000" stroke-linecap="round" stroke-linejoin="round" stroke-miterlimit="10" stroke-width="2"/><path d="m60.542 20.261c1.1529 0.6519 2.2379 1.6919 3.0706 3.3141 1.6027 3.122 1.3194 5.8895 0.1566 8.3422" fill="none" stroke="#000" stroke-linecap="round" stroke-linejoin="round" stroke-miterlimit="10" stroke-width="2"/><path d="m50.012 54.208c-3.8867 3.0046-8.7619 4.7923-14.055 4.7923-5.1125 0-9.8354-1.6681-13.654-4.4897" fill="none" stroke="#000" stroke-linecap="round" stroke-linejoin="round" stroke-miterlimit="10" stroke-width="2"/><path d="M23.838,16.4485C27.3571,14.2624,31.5099,13,35.9575,13c4.5893,0,8.8647,1.3441,12.4539,3.6602" fill="none" stroke="#000" stroke-linecap="round" stroke-linejoin="round" stroke-miterlimit="10" stroke-width="2"/><path d="m18.945 56.899c-0.4804-6.0396 0.0392-6.4239-0.4413-12.464 0.7336-1.8542 1.6918-4.7683 2.059-8.4418 0.2878-2.8791-0.0143-3.9562-0.4118-10.3-0.5229-8.3456-0.2387-10.29-1.0295-10.496-1.4192-0.3691-4.4446 5.3461-5.971 10.496-1.6205 5.4675-1.2354 13.594-1.2354 13.594l-1.2 5.2695" fill="none" stroke="#000" stroke-linecap="round" stroke-linejoin="round" stroke-miterlimit="10" stroke-width="2"/><path d="m53.402 57.987c0.4804-6.0396-0.0392-7.5118 0.4413-13.551-0.7336-1.8542-1.6918-4.7683-2.059-8.4418-0.2878-2.8791 0.0143-3.9562 0.4118-10.3 0.5229-8.3456 0.2387-10.29 1.0295-10.496 1.4192-0.3691 4.4446 5.3461 5.971 10.496 1.6205 5.4675 1.2354 13.594 1.2354 13.594l1.4909 6.5466" fill="none" stroke="#000" stroke-linecap="round" stroke-linejoin="round" stroke-miterlimit="10" stroke-width="2"/></g></svg>
