<svg xmlns="http://www.w3.org/2000/svg" id="a" viewBox="0 0 72 72"><g id="b"><path fill="#92d3f5" d="m16.987 60.958v-4c0-4.9941 2.7617-7.12 6.9844-9.4121 5.3633-2.458 16.562-2.918 23.948-0.13 3.3184 1.4609 7.0674 4.5479 7.0674 9.542v4"/></g><g id="c" fill="#6a462f"><path d="m25.82 30.292c0 9 4.04 14.666 10.104 14.666 5.9365 0 10.106-5.9307 10.106-14.931 0-3 0.0694-4.1025 0.0694-4.1025-1.2455-3.5288-2.2834-6.1582-2.2834-6.1582-4.4284 0.83-12.524 2.2142-15.984 1.5222a22.207 22.207 0 0 0-2.0113 9.0032z"/><path d="m42.543 38.403 8-7a1.4142 1.4142 0 0 1 2 2l-5 6"/><path d="m49.987 60.916-16-17-3.5557-4-1-1-6-4.5557a1.4142 1.4142 0 0 0-2 2l3 3.5557a39.326 39.326 0 0 0 2 6c0.6328 1.2647 3.5557 2 3.5557 2l2 2 8 11"/><path d="m21.987 60.916 16-17 3.5557-4 1-1 6-4.5557a1.4142 1.4142 0 0 1 2 2l-3 3.5557a39.326 39.326 0 0 1-2 6c-0.6328 1.2647-3.5557 2-3.5557 2l-2 2-8 11"/><path d="m29.432 38.403-8-7a1.4142 1.4142 0 0 0-2 2l5 6"/></g><g id="d"><path d="M43.8152,19.7669c.1744.9826-13.5955.7245-15.4988,1.7056S25.8783,30.23,25.8783,30.23a28.57,28.57,0,0,0,.3878,4.764l-5.0339-3.75a48.8842,48.8842,0,0,1-.245-5.2236c0-7,5-14.0625,15-14.0625s15,7.0625,15,14.0625c0,1.7359-.0615,3.4065-.215,4.9374l-5.1891,3.9026a16.7243,16.7243,0,0,0,.3348-4.5617l.6717-2.3408Z"/></g><g id="e"><path fill="none" stroke="#000" stroke-linecap="round" stroke-linejoin="round" stroke-width="2" d="M21.99,27.9583c-.0029-.6543-.0029-1.3223-.0029-2,0-7,5-14,14-14a13.75,13.75,0,0,1,14,14c0,.6.0039,1.1318.0049,1.666"/><path d="m41.86 29.958a2 2 0 1 1-2-2 2 2 0 0 1 2 2"/><path d="m33.86 29.958a2 2 0 1 1-2-2 2 2 0 0 1 2 2"/><path fill="none" stroke="#000" stroke-linecap="round" stroke-linejoin="round" stroke-width="2" d="m33.987 37.958h4"/><path fill="none" stroke="#000" stroke-linecap="round" stroke-linejoin="round" stroke-width="2" d="m47.92 48.408c3.85 1.1778 7.0674 4.5469 7.0674 8.5508v3"/><path fill="none" stroke="#000" stroke-linecap="round" stroke-linejoin="round" stroke-width="2" d="m16.987 59.958v-3c0-3.9756 3.1719-7.3242 6.9844-8.5244"/><path fill="none" stroke="#000" stroke-linecap="round" stroke-linejoin="round" stroke-width="2" d="m42.543 38.403 8-7a1.4142 1.4142 0 0 1 2 2l-5 6"/><path fill="none" stroke="#000" stroke-linecap="round" stroke-linejoin="round" stroke-width="2" d="m29.432 38.403-8-7a1.4142 1.4142 0 0 0-2 2l5 6"/><line x1="35.989" x2="31.987" y1="54.906" y2="59.958" fill="none" stroke="#000" stroke-linecap="round" stroke-linejoin="round" stroke-width="2"/><path fill="none" stroke="#000" stroke-linecap="round" stroke-linejoin="round" stroke-width="2" d="m35.956 45.494 5.5869-6.0909 1-1 6-4.5556a1.4142 1.4142 0 0 1 2 2l-3 3.5556a39.326 39.326 0 0 1-2 6c-0.6328 1.2647-3.5557 2-3.5557 2l-2.127 2"/><line x1="21.987" x2="31.987" y1="59.958" y2="49.403" fill="none" stroke="#000" stroke-linecap="round" stroke-linejoin="round" stroke-width="2"/><path fill="none" stroke="#000" stroke-linecap="round" stroke-linejoin="round" stroke-width="2" d="m49.987 59.958-16-16.556-3.5557-4-1-1-6-4.5556a1.4142 1.4142 0 0 0-2 2l3 3.5556a39.326 39.326 0 0 0 2 6c0.6328 1.2647 3.5557 2 3.5557 2l2 2 8 10.556"/><path fill="none" stroke="#000" stroke-linecap="round" stroke-linejoin="round" stroke-width="2" d="m46.876 30.174c-0.3017-4.803-2.9724-10.144-2.9724-10.144-8 0-10 3-16 1a23.814 23.814 0 0 0-3.0418 9.3945"/></g></svg>