<svg xmlns="http://www.w3.org/2000/svg" id="a" viewBox="0 0 72 72"><g id="b"><path fill="#92d3f5" d="m17 60.958v-4c0-4.9941 5.0078-9 10-9q9 7.5 18 0c4.9941 0 10 4.0059 10 9v4"/></g><g id="c"><path fill="#6a462f" d="m25.617 29.506v0.957c0 7.6494 4.6093 13.643 10.494 13.643s10.494-5.9932 10.494-13.643c0-4.6533-1.7784-7.5151-5.2842-11.134a64.146 64.146 0 0 1-8.9883 5.7716c-2.6465 1.5146-6.2549 3.57-6.7158 4.4057z"/></g><g id="d"><path d="m53.41 34.147a23.732 23.732 0 0 1-1.1573-2.6328c-1.4726-3.27-2.0234-4.4927-2.3486-10.524 0.0273-3.6929-3.794-6.7842-7.4746-7.0928a1.0016 1.0016 0 0 1-0.6885-0.3433c-0.0928-0.1-2.4082-2.6547-7.2432-2.6547-6.2 0-11.441 3.3818-12.743 8.226a18.518 18.518 0 0 0-0.5645 6.1758 13.317 13.317 0 0 1-0.7607 5.9609 6.8034 6.8034 0 0 1-1.1188 2.0882c-3.7725 4.42-0.9747 14.303-1.167 14.01a24.047 24.047 0 0 0 3.6331 2.7193 10.465 10.465 0 0 1 5.361-2.09c6.209 5.0127 12.495 5.0127 18.7 0a8.343 8.343 0 0 1 4.2087 1.5136 22.784 22.784 0 0 0 2.972-2.33c1.1886-0.7157 3.1252-8.2829 0.3914-13.026zm-12.446 8.835c-3.3783 2.5447-9.6082 1.083-9.6082 1.083s-8.6462-7.4083-5.7928-14.6c0 0 15.269-9.2095 15.401-10.789 4e-4 4e-4 13.851 13.873 4e-4 24.306z"/></g><g id="e"><path fill="none" stroke="#000" stroke-linecap="round" stroke-linejoin="round" stroke-width="2" d="m17 59.958v-3c0-4.9941 5.0078-9 10-9q9 7.5 18 0c4.9941 0 10 4.0059 10 9v3"/><path d="m41.873 29.958a2 2 0 0 1-4 0c0-1.1045 2.0225-2 3.127-2a3.2627 3.2627 0 0 1 0.873 2"/><path d="m34 29.958a2 2 0 0 1-4 0 3.1184 3.1184 0 0 1 1-2c1.1045 0 3 0.8955 3 2"/><path fill="none" stroke="#000" stroke-linecap="round" stroke-linejoin="round" stroke-width="2" d="m39 37.958c-1-2-5-2-6 0"/><path fill="none" stroke="#000" stroke-linecap="round" stroke-linejoin="round" stroke-width="2" d="m18.863 46.689c-3.7227-5.8565-0.628-10.08 1.18-14.725 1.6357-4.2-0.209-6.4512 1.291-12.034 1.48-5.5 7.2773-8.9658 13.709-8.9658 5.4 0 8 3 8 3a8.1321 8.1321 0 0 1 7.4052 8.0371c0.3867 7.18 1.0244 7.1523 3.4287 12.822a11.599 11.599 0 0 1-1.4463 11.663"/><path fill="none" stroke="#000" stroke-linejoin="round" stroke-width="2" d="m25.043 30.965c0 8 5 14 11 14s11-6 11-14c0-5-2-8-6-12-4 4-16 9-16 11z"/></g></svg>