<?xml version="1.0" encoding="UTF-8"?>
<svg id="a" viewBox="0 0 72 72" xmlns="http://www.w3.org/2000/svg"><g id="b"><path d="m17 60.958v-4c0-4.9941 5.0078-9 10-9q9 7.5 18 0c4.9941 0 10 4.0059 10 9v4" fill="#92d3f5"/></g><g id="c"><path d="m24.936 30.958c0 9 4.9365 14 11 14 5.9365 0 11.064-5 11.064-14a12.137 12.137 0 0 0-1-5.0005c-3-2.9995-7-8-7-8-4 3-7 6-13 7.0005 0 0-1.0635 0.9995-1.0635 6z" fill="#fadcbc"/></g><g id="d"><path d="m46.716 28.74c0.03-1.626-7.6646-10.909-7.716-10.782-0.761 1.8751-10.225 6.7049-13.139 7.8271-3.049 1.1741 0.1017 13.173 0.1017 13.173-4 0-4-6-4-13s4-14 14-14 14 7 14 14 0 13-4 13c0.4104-0.0973 0.7137-8.0413 0.7535-10.218z" fill="#a57939"/></g><g id="e"><path d="m26 38.958c-4 0-4-6-4-13s4-14 14-14 14 7 14 14 0 13-4 13" fill="none" stroke="#000" stroke-linecap="round" stroke-linejoin="round" stroke-width="2"/><path d="m17 59.958v-3c0-4.9941 5.0078-9 10-9q9 7.5 18 0c4.9941 0 10 4.0059 10 9v3" fill="none" stroke="#000" stroke-linecap="round" stroke-linejoin="round" stroke-width="2"/><path d="m24.936 30.958c0 9 4.9365 14 11 14 5.9365 0 11.064-5 11.064-14a12.137 12.137 0 0 0-1-5.0005c-3-2.9995-7-8-7-8-4 3-7 6-13 7.0005 0 0-1.0635 0.9995-1.0635 6z" fill="none" stroke="#000" stroke-linejoin="round" stroke-width="2"/><path d="m41.873 29.958a2 2 0 0 1-4 0c0-1.1045 2.0225-2 3.127-2a3.2627 3.2627 0 0 1 0.873 2"/><path d="m34 29.958a2 2 0 0 1-4 0 3.1184 3.1184 0 0 1 1-2c1.1045 0 3 0.8955 3 2"/><path d="m39 37.958c-1-2-5-2-6 0" fill="none" stroke="#000" stroke-linecap="round" stroke-linejoin="round" stroke-width="2"/></g></svg>
