<svg xmlns="http://www.w3.org/2000/svg" id="a" viewBox="0 0 72 72"><g id="b"><path fill="none" stroke="#000" stroke-linecap="round" stroke-linejoin="round" stroke-miterlimit="10" stroke-width="2" d="m19.745 30.37c0.7351-1.4356 1.8465-2.6723 3.2355-3.5099 4.2321-2.5519 10.528-1.0889 13.491 3.8371 3.0375-4.9167 9.313-6.349 13.491-3.8371 1.4555 0.8751 2.5525 2.1665 3.2519 3.6508"/></g><g id="c"><path fill="#6A462F" d="m52.156 19.332c0.3299 0 7.0229-2.1833 10.307 3.9209 3.1583 5.8708 1.1583 11.871-3.4855 14.312"/><path fill="#6A462F" d="m60.051 35.489c0 13.537-10.745 24.511-24 24.511s-24-10.974-24-24.511 10.745-23.489 24-23.489 24 9.9525 24 23.489z"/><path fill="#6A462F" d="m19.917 18.907c-0.3466 0-7.5022-2.3589-10.828 4.1191-2.9366 5.7207-0.4683 12.098 3.6618 13.984"/><path fill="#A57939" d="m26.042 57.021c-1.017-3.3042-1.4239-8.7844-0.0668-14.784-0.3544-0.0699-5.2649-1.1229-7.0265-5.5733-1.5688-3.9634 0.1684-8.5784 3.6538-10.68 4.2321-2.5519 10.528-1.0889 13.491 3.8371 3.0375-4.9167 9.313-6.349 13.491-3.8371 3.5775 2.151 4.9892 6.8168 3.6538 10.68-1.5753 4.5576-6.2779 5.9855-6.7455 6.1191 0.7217 2.1838 2.4234 8.3483-0.5621 14.238-0.5906 1.1649-0.995 0-4.995 2"/><path fill="#fff" d="m41.914 49.017c-0.2036 0.2681-0.7527 6.0217-6.3387 6.0246-4.9521 0.0025-5.4413-5.6762-5.7048-6.0246h12.044z"/><path fill="#A57939" d="m12.139 51.983c1.8841-3.9279-0.1881 0.8747 1.696-3.0531-0.5664-1.6119-1.2604-4.0223-1.5384-7.0087-0.425-4.5648 0.1233-10.46 1.5384-10.662 0.555-0.0795 1.4734 0.6838 3.0324 4.7202 2.6006-3.0933 8.3652-6.2699 8.999-5.4998 0.6228 0.7568-0.0903 2.5375-0.0098 3.503 2.6552-1.2069 3.9497-1.4041 4.2664-1.0505 0.3186 0.3557-0.0824 1.6942-1.7721 4.3494 3.1158-0.7429 4.1039 0.1181 3.9426 0.8046-0.6076 2.5859-2.7004 5.9308-6.4366 9.6067-2.0968 2.0629-4.741 2.5726-6.3992 2.9133-0.6095 5.022-0.4795 2.3595-1.089 7.3815"/><path fill="#A57939" d="m59.261 52.273c-1.8841-3.9279 0.2803 0.5844-1.6038-3.3435 0.5664-1.6119 1.2604-4.0223 1.5384-7.0087 0.425-4.5648-0.1233-10.46-1.5384-10.662-0.555-0.0795-1.4734 0.6838-3.0324 4.7202-2.6006-3.0933-8.3652-6.2699-8.999-5.4998-0.6228 0.7568 0.0903 2.5375 0.0098 3.503-2.6552-1.2069-3.9497-1.4041-4.2664-1.0505-0.3186 0.3557 0.0824 1.6942 1.7721 4.3494-3.1158-0.7429-4.1039 0.1181-3.9426 0.8046 0.6076 2.5859 2.7004 5.9308 6.4366 9.6067 2.0968 2.0629 4.741 2.5726 6.3992 2.9133 0.6095 5.022 0.347 2.8686 0.9565 7.8906"/><path fill="#6A462F" d="m58.174 48.915c-0.0136-0.0275-0.0069-0.0139 0 0z"/><path fill="#6A462F" d="m58.182 48.932-6.1469 1.7676s0.4585 2.7776 1.2932 8.7301l6.6512-6.5154c-1.5311-3.3969-1.7323-3.8511-1.7975-3.9823z"/><path fill="#6A462F" d="m58.174 48.915c0.0018 0.0036 0.0057 0.0114 0.0082 0.0165 1e-4 1e-4 -0.0041-0.0083-0.0082-0.0165z"/><path fill="#6A462F" d="m13.732 48.939s-0.0086-0.5805-2.0047 3.7916l5.9928 6.3912c0.1003 0.1176 0.2917 0.0527 0.3104-0.1007 0.6489-5.3294 1.6584-8.2166 1.6584-8.2166l-5.9569-1.8655z"/></g><g id="d"><path fill="none" stroke="#000" stroke-linecap="round" stroke-linejoin="round" stroke-miterlimit="10" stroke-width="2" d="m52.264 19.654c0.3299 0 7.1412-2.2454 10.307 3.9209 1.7048 3.321 1.2756 6.2407-0.0761 8.8072"/><path fill="none" stroke="#000" stroke-linecap="round" stroke-linejoin="round" stroke-miterlimit="10" stroke-width="2" d="m19.736 19.654c-0.3299 0-7.1412-2.2454-10.307 3.9209-1.6112 3.1387-1.3163 5.919-0.1379 8.3815"/><path fill="none" stroke="#000" stroke-linecap="round" stroke-linejoin="round" stroke-miterlimit="10" stroke-width="2" d="m41.937 49.017c-0.2036 0.2681-0.7527 6.0217-6.3387 6.0246-4.9521 0.0025-5.4413-5.6762-5.7048-6.0246h12.044z"/><circle cx="34.056" cy="44.558" r="1"/><circle cx="37.696" cy="44.558" r="1"/><path fill="none" stroke="#000" stroke-linecap="round" stroke-linejoin="round" stroke-miterlimit="10" stroke-width="2" d="M48.849,55.0215C45.1636,57.5323,40.7108,59,35.9151,59c-4.7635,0-9.1887-1.4481-12.8595-3.928"/><path fill="none" stroke="#000" stroke-linecap="round" stroke-linejoin="round" stroke-miterlimit="10" stroke-width="2" d="m14.992 26.434c3.6303-7.9273 11.633-13.434 20.922-13.434 9.2192 0 17.172 5.4242 20.84 13.255"/><path fill="none" stroke="#000" stroke-linecap="round" stroke-linejoin="round" stroke-miterlimit="10" stroke-width="2" d="m59.284 52.273c-1.8841-3.9279 0.2803 0.5844-1.6038-3.3435 0.5664-1.6119 1.2604-4.0223 1.5384-7.0087 0.425-4.5648-0.1233-10.46-1.5384-10.662-0.555-0.0795-1.4734 0.6838-3.0324 4.7202-2.6006-3.0933-8.3652-6.2699-8.999-5.4998-0.6228 0.7568 0.0903 2.5375 0.0098 3.503-2.6552-1.2069-3.9497-1.4041-4.2664-1.0505-0.3186 0.3557 0.0824 1.6942 1.7721 4.3494-3.1158-0.7429-4.1039 0.1181-3.9426 0.8046 0.6076 2.5859 2.7004 5.9308 6.4366 9.6067 2.0968 2.0629 4.741 2.5726 6.3992 2.9133 0.6095 5.022 0.347 2.8686 0.9565 7.8906"/><path fill="none" stroke="#000" stroke-linecap="round" stroke-linejoin="round" stroke-miterlimit="10" stroke-width="2" d="m12.393 51.983c1.8841-3.9279-0.4196 0.8747 1.4645-3.0531-0.5664-1.6119-1.2604-4.0223-1.5384-7.0087-0.425-4.5648 0.1233-10.46 1.5384-10.662 0.555-0.0795 1.4734 0.6838 3.0324 4.7202 2.6006-3.0933 8.3652-6.2699 8.999-5.4998 0.6228 0.7568-0.0903 2.5375-0.0098 3.503 2.6552-1.2069 3.9497-1.4041 4.2664-1.0505 0.3186 0.3557-0.0824 1.6942-1.7721 4.3494 3.1158-0.7429 4.1039 0.1181 3.9426 0.8046-0.6076 2.5859-2.7004 5.9308-6.4366 9.6067-2.0968 2.0629-4.741 2.5726-6.3992 2.9133-0.6095 5.022-0.3481 2.8686-0.9576 7.8906"/></g></svg>