<svg xmlns="http://www.w3.org/2000/svg" id="a" viewBox="0 0 72 72"><g id="b"><path fill="#92d3f5" d="m17.005 60.958v-4c0-4.9941 2.7617-7.12 6.9844-9.4121 5.3633-2.458 16.562-2.918 23.948-0.13 3.3184 1.4609 7.0674 4.5479 7.0674 9.542v4"/></g><g id="c" fill="#c19a65"><path d="m25.838 30.292c0 9 4.04 14.666 10.104 14.666 5.9365 0 10.106-5.9307 10.106-14.931 0-3-0.042-4.0693-0.042-4.0693-2.0055-3.0156-4.9476-6.9383-4.9476-6.9383a80.045 80.045 0 0 1-15.39 9.2036s0.1706-2.9313 0.1706 2.0687z"/><path d="m42.56 38.403 8-7a1.4142 1.4142 0 0 1 2 2l-5 6"/><path d="m50.005 60.916-16-17-3.5557-4-1-1-6-4.5557a1.4142 1.4142 0 0 0-2 2l3 3.5557a39.326 39.326 0 0 0 2 6c0.6328 1.2647 3.5557 2 3.5557 2l2 2 8 11"/><path d="m22.005 60.916 16-17 3.5557-4 1-1 6-4.5557a1.4142 1.4142 0 0 1 2 2l-3 3.5557a39.326 39.326 0 0 1-2 6c-0.6328 1.2647-3.5557 2-3.5557 2l-2 2-8 11"/><path d="m29.449 38.403-8-7a1.4142 1.4142 0 0 0-2 2l5 6"/></g><g id="d"><path fill="#6a462f" d="m54.995 35.456c-0.4385-0.8535-1.2066-2.2814-1.6858-3.24a21.379 21.379 0 0 1-1.3215-4.2589c-0.4971-1.8435-1.64-4.3072-1.7916-7.1158 0.0273-3.6929-4.2631-6.6058-7.9437-6.9144a12.994 12.994 0 0 0-7.9317-2.9974c-6.2 0-11.441 3.3818-12.743 8.226-0.5342 2.0121-2.14 5.006-1.98 7.0818a11.747 11.747 0 0 1-0.7346 5.5909c-0.248 0.7558-1.2693 2.6963-1.5663 3.7569-3.1579 6.2622 0.9237 12.104 0.7315 11.811a15.166 15.166 0 0 0 3.2934 2.7485c1.6947-1.2169 1.4363-1.0092 2.07-2.27 1.0366-0.5277 3.6121-1.5787 4.387-1.4342l1.1456 0.24s-3.8017-0.6723-5.31-8.7221c0 0-11.197-14.139 2.5176-1.56s10.372 8.5162 10.372 8.5162l12.334-12.11s7.0447-3.45 2.6322 1.9048c-5.4242 6.5824-5.4242 11.766-9.5932 12.706-2.0695 0.467 1.9026-1.3994 2.3057-0.6364a14.337 14.337 0 0 1 4.4429 0.8257c-0.07 1.0415-0.07 1.0415 1.2433 1.9271a22.792 22.792 0 0 0 2.9721-2.33c1.1883-0.7148 3.621-7.1192 2.1536-11.746zm-9.3643-0.8393-9.74 9.753s-9.507-8.4337-9.6727-9.623c-0.165-1.1843-0.3726-4.1128-0.3726-4.1128l-0.1778-1.2069c1.5463-1.58 15.092-9.5692 15.092-9.5692 5.8909 0.5173 5.1083 8.0314 5.1438 10.259a33.607 33.607 0 0 1-0.2726 4.5001z"/></g><g id="e"><path d="m41.878 29.958a2 2 0 1 1-2-2 2 2 0 0 1 2 2"/><path d="m33.878 29.958a2 2 0 1 1-2-2 2 2 0 0 1 2 2"/><path fill="none" stroke="#000" stroke-linecap="round" stroke-linejoin="round" stroke-width="2" d="m34.005 37.958h4"/><path fill="none" stroke="#000" stroke-linecap="round" stroke-linejoin="round" stroke-width="2" d="m47.937 48.408c3.85 1.1778 7.0674 4.5469 7.0674 8.5508v3"/><path fill="none" stroke="#000" stroke-linecap="round" stroke-linejoin="round" stroke-width="2" d="m17.005 59.958v-3c0-3.9756 3.1719-7.3242 6.9844-8.5244"/><path fill="none" stroke="#000" stroke-linecap="round" stroke-linejoin="round" stroke-width="2" d="m42.56 38.403 8-7a1.4142 1.4142 0 0 1 2 2l-5 6"/><path fill="none" stroke="#000" stroke-linecap="round" stroke-linejoin="round" stroke-width="2" d="m29.449 38.403-8-7a1.4142 1.4142 0 0 0-2 2l5 6"/><line x1="36.007" x2="32.005" y1="54.906" y2="59.958" fill="none" stroke="#000" stroke-linecap="round" stroke-linejoin="round" stroke-width="2"/><path fill="none" stroke="#000" stroke-linecap="round" stroke-linejoin="round" stroke-width="2" d="m35.973 45.494 5.5866-6.0909 1-1 6-4.5556a1.4142 1.4142 0 0 1 2 2l-3 3.5556a39.326 39.326 0 0 1-2 6c-0.6328 1.2647-3.5557 2-3.5557 2l-2.127 2"/><line x1="22.005" x2="32.005" y1="59.958" y2="49.403" fill="none" stroke="#000" stroke-linecap="round" stroke-linejoin="round" stroke-width="2"/><path fill="none" stroke="#000" stroke-linecap="round" stroke-linejoin="round" stroke-width="2" d="m50.005 59.958-16-16.556-3.5557-4-1-1-6-4.5556a1.4142 1.4142 0 0 0-2 2l3 3.5556a39.326 39.326 0 0 0 2 6c0.6328 1.2647 3.5557 2 3.5557 2l2 2 8 10.556"/><path fill="none" stroke="#000" stroke-linecap="round" stroke-linejoin="round" stroke-width="2" d="m54.162 35.999a11.6 11.6 0 0 1-1.8842 10.477"/><path fill="none" stroke="#000" stroke-linecap="round" stroke-linejoin="round" stroke-width="2" d="M20.6218,28.0052c.0193-2.2543-.4114-4.4722.56-8.0865,1.48-5.5,7.2773-8.9658,13.709-8.9658,5.4,0,8,3,8,3A8.1321,8.1321,0,0,1,50.2957,21.99a30.7458,30.7458,0,0,0,.7942,6.4234"/><path fill="none" stroke="#000" stroke-linecap="round" stroke-linejoin="round" stroke-width="2" d="m18.711 46.678c-2.6514-4.1711-1.8446-7.514-0.5075-10.77"/><path fill="none" stroke="#000" stroke-linecap="round" stroke-linejoin="round" stroke-width="2" d="m46.89 30.953c0-5-2-8-6-12-4 4-16 9-16 11v1"/></g></svg>