<?xml version="1.0" encoding="UTF-8"?>
<svg id="a" viewBox="0 0 72 72" xmlns="http://www.w3.org/2000/svg"><g id="b"><circle cx="36" cy="36" r="23" fill="#FCEA2B"/></g><g id="c"><circle cx="36" cy="36" r="23" fill="none" stroke="#000" stroke-linecap="round" stroke-linejoin="round" stroke-width="2"/><path d="m26.185 27.071c2.8995-1.6362 6.2482-2.5699 9.8149-2.5699s6.9153 0.9336 9.8149 2.5699" fill="none" stroke="#000" stroke-linecap="round" stroke-linejoin="round" stroke-width="2"/><path d="m42 41c0-1.6568 1.3448-3 3-3 1.6553 0 3 1.3433 3 3 0 1.6552-1.3447 3-3 3-1.6552 0-3-1.3448-3-3"/><path d="m24 41c0-1.6568 1.3447-3 3-3s3 1.3433 3 3c0 1.6552-1.3447 3-3 3s-3-1.3448-3-3"/></g></svg>
