<?xml version="1.0" encoding="UTF-8"?>
<svg id="a" viewBox="0 0 72 72" xmlns="http://www.w3.org/2000/svg"><g id="b"><rect x="21.526" y="35.564" width="45.278" height="12.025" fill="#ea5a47"/><rect x="34.358" y="32.235" width="6.3408" height="10.646" rx="1.0578" ry="1.0578" fill="#92d3f5"/><rect x="21.402" y="32.235" width="6.3408" height="10.646" rx="1.0578" ry="1.0578" fill="#92d3f5"/><rect x="47.368" y="32.235" width="6.3408" height="10.646" rx="1.0578" ry="1.0578" fill="#92d3f5"/><rect x="60.378" y="32.235" width="6.3408" height="10.646" rx="1.0578" ry="1.0578" fill="#92d3f5"/><path d="m33.749 51.112a4.2445 4.2445 0 0 1-8.4889 0" fill="#d0cfce"/><path d="m62.716 51.112a4.2445 4.2445 0 0 1-8.4889 0" fill="#d0cfce"/><rect x="22.196" y="47.049" width="43.938" height="4.0628" fill="#3f3f3f"/></g><g id="c" stroke="#000" stroke-linecap="round"><line x1="3" x2="67" y1="56" y2="56" stroke-linejoin="round" stroke-width="2"/><line x1="21" x2="67" y1="16" y2="16" fill="none" stroke-linejoin="round" stroke-width="2"/><polyline points="34.358 26.392 40 21 34 16" fill="none" stroke-linejoin="round" stroke-width="2"/><path d="M23.149,50.1115H22.33a.891.891,0,0,1-.8884-.8884V28.2888a1.9023,1.9023,0,0,1,1.8968-1.8968H64.8225a1.9023,1.9023,0,0,1,1.8968,1.8968V49.2235a.8906.8906,0,0,1-.888.888h-.8291" fill="none" stroke-miterlimit="10" stroke-width="2.0737"/><line x1="51.972" x2="35.845" y1="50.112" y2="50.112" fill="none" stroke-miterlimit="10" stroke-width="2.0737"/><path d="m33.749 51.364a4.2445 4.2445 0 1 1-8.4889 0" fill="none" stroke-miterlimit="10" stroke-width="2.0737"/><path d="m62.716 51.112a4.2445 4.2445 0 0 1-8.4889 0" fill="none" stroke-miterlimit="10" stroke-width="2.0737"/><rect x="34.358" y="32.246" width="6.3408" height="10.646" rx="1.0578" ry="1.0578" fill="none" stroke-miterlimit="10" stroke-width="2.0737"/><rect x="21.402" y="32.246" width="6.3408" height="10.646" rx="1.0578" ry="1.0578" fill="none" stroke-miterlimit="10" stroke-width="2.0737"/><rect x="47.196" y="32.324" width="6.3408" height="10.646" rx="1.0578" ry="1.0578" fill="none" stroke-miterlimit="10" stroke-width="2.0737"/><rect x="60.378" y="32.324" width="6.3408" height="10.646" rx="1.0578" ry="1.0578" fill="none" stroke-miterlimit="10" stroke-width="2.0737"/><line x1="20.384" x2="67.752" y1="47.031" y2="47.031" fill="none" stroke-miterlimit="10" stroke-width="1.9699"/></g></svg>
