<?xml version="1.0" encoding="UTF-8"?>
<svg id="a" viewBox="0 0 72 72" xmlns="http://www.w3.org/2000/svg"><g id="b"><path d="m64.728 32.609h-57.422v-10.922a1.8616 1.8616 0 0 1 1.8616-1.8616h53.699a1.8616 1.8616 0 0 1 1.8616 1.8616z" fill="#fff"/><path d="m7.3055 30.352h57.422v13.588a2.06 2.06 0 0 1-2.06 2.06h-53.303a2.06 2.06 0 0 1-2.06-2.06z" fill="#ea5a47"/><rect x="12.974" y="26.106" width="9.014" height="20.892" fill="#d0cfce"/><path d="M34.2125,36.097h-6.12c-.5725,0-1.0366-.34-1.0366-.7594V26.865c0-.4194.4641-.7593,1.0366-.7593h6.12c.5725,0,1.0366.34,1.0366.7593v8.4726C35.2491,35.757,34.785,36.097,34.2125,36.097Z" fill="#92d3f5"/><path d="M46.4237,36.097h-6.12c-.5725,0-1.0366-.34-1.0366-.7594V26.865c0-.4194.4641-.7593,1.0366-.7593h6.12c.5725,0,1.0366.34,1.0366.7593v8.4726C47.46,35.757,46.9962,36.097,46.4237,36.097Z" fill="#92d3f5"/><path d="M58.6349,36.097h-6.12c-.5725,0-1.0366-.34-1.0366-.7594V26.865c0-.4194.4641-.7593,1.0366-.7593h6.12c.5725,0,1.0366.34,1.0366.7593v8.4726C59.6715,35.757,59.2074,36.097,58.6349,36.097Z" fill="#92d3f5"/><path d="m7.3053 46.997h57.422v1.3493a1.7946 1.7946 0 0 1-1.7946 1.7945h-53.833a1.7946 1.7946 0 0 1-1.7946-1.7946v-1.3492a0 0 0 0 1-1e-4 0z" fill="#3f3f3f"/><path d="M18.4416,57a6.0055,6.0055,0,0,1-5.9131-7.0234,1,1,0,0,1,.9844-.83l9.8535-.0059h.001a1,1,0,0,1,.9853.8282A6.002,6.002,0,0,1,18.4416,57Z" fill="#d0cfce"/><path d="M53.6379,57a6.0066,6.0066,0,0,1-6-6,6.2182,6.2182,0,0,1,.0859-1.02,1.0008,1.0008,0,0,1,.9854-.833l9.8545-.0059h.001a1.0005,1.0005,0,0,1,.9853.8282A6.0073,6.0073,0,0,1,53.6379,57Z" fill="#d0cfce"/></g><g id="c" fill="none" stroke="#000" stroke-linecap="round" stroke-linejoin="round"><path d="m62.595 50.141h-53.157a2.1326 2.1326 0 0 1-2.1326-2.1325v-25.097a2.8978 2.8978 0 0 1 2.6638-3.0853h52.095a2.8978 2.8978 0 0 1 2.6638 3.0853v25.097a2.1325 2.1325 0 0 1-2.1326 2.1325z" stroke-width="2.1524"/><path d="M5.8871,46h7.0366V27.61a1.3634,1.3634,0,0,1,1.1509-1.5039H20.87A1.3634,1.3634,0,0,1,22.0205,27.61V46H65.8994" stroke-width="2"/><path d="M34.2125,36.097h-6.12c-.5725,0-1.0366-.34-1.0366-.7594V26.865c0-.4194.4641-.7593,1.0366-.7593h6.12c.5725,0,1.0366.34,1.0366.7593v8.4726C35.2491,35.757,34.785,36.097,34.2125,36.097Z" stroke-width="2"/><path d="M46.4237,36.097h-6.12c-.5725,0-1.0366-.34-1.0366-.7594V26.865c0-.4194.4641-.7593,1.0366-.7593h6.12c.5725,0,1.0366.34,1.0366.7593v8.4726C47.46,35.757,46.9962,36.097,46.4237,36.097Z" stroke-width="2"/><path d="M58.6349,36.097h-6.12c-.5725,0-1.0366-.34-1.0366-.7594V26.865c0-.4194.4641-.7593,1.0366-.7593h6.12c.5725,0,1.0366.34,1.0366.7593v8.4726C59.6715,35.757,59.2074,36.097,58.6349,36.097Z" stroke-width="2"/><path d="M23.3679,50.141a5,5,0,1,1-9.8542.0058" stroke-width="2"/><path d="M58.5648,50.141a5,5,0,1,1-9.8542.0058" stroke-width="2"/><line x1="15.737" x2="12.974" y1="35.958" y2="35.958" stroke-width="2.1524"/><polyline points="54.321 19.826 48.127 12.375 54.687 5.356" stroke-width="2"/></g></svg>
