<svg xmlns="http://www.w3.org/2000/svg" id="a" viewBox="0 0 72 72"><g id="b"><rect width="14" height="3" x="31" y="21" fill="#3f3f3f"/><path fill="#d0cfce" d="M18,48h-.0853A2.9232,2.9232,0,0,1,15,45.0853V26.9147A2.9232,2.9232,0,0,1,17.9147,24H58.0853A2.9232,2.9232,0,0,1,61,26.9147V45.0853A2.9232,2.9232,0,0,1,58.0853,48H58"/><rect width="45" height="9" x="15" y="38" fill="#61b2e4"/><rect width="8" height="9" x="17" y="27" fill="#92d3f5"/><rect width="7" height="7" x="30" y="27" fill="#92d3f5"/><rect width="7" height="7" x="40" y="27" fill="#92d3f5"/><rect width="7" height="7" x="50" y="27" fill="#92d3f5"/><rect width="5" height="3" x="16" y="38" fill="#fff"/><circle cx="54" cy="48" r="4" fill="#d0cfce"/><circle cx="22" cy="48" r="4" fill="#d0cfce"/></g><g id="c" fill="none" stroke="#000" stroke-linecap="round" stroke-linejoin="round" stroke-width="2"><line x1="50" x2="26.121" y1="48" y2="48"/><polyline points="30.909 24 30.909 21 46 21 46 24"/><line x1="38.455" x2="47" y1="21" y2="11"/><circle cx="22" cy="48" r="4"/><circle cx="54" cy="48" r="4"/><polyline points="18 36 25 36 25 27.9"/><polyline points="30.875 34 37 34 37 27.875"/><polyline points="40.875 34 47 34 47 27.875"/><polyline points="50.875 34 57 34 57 27.875"/><path d="M18,48h-.0853A2.9232,2.9232,0,0,1,15,45.0853V26.9147A2.9232,2.9232,0,0,1,17.9147,24H58.0853A2.9232,2.9232,0,0,1,61,26.9147V45.0853A2.9232,2.9232,0,0,1,58.0853,48H58"/><polyline points="17 41 21 41 21 39"/></g></svg>