<?xml version="1.0" encoding="UTF-8"?>
<svg id="a" version="1.1" viewBox="0 0 72 72" xmlns="http://www.w3.org/2000/svg"><g id="b"><path d="m7.7037 46.583z" fill="#EA5A47"/><path d="m67.19 30.95v9.26c0 0.19-0.05 0.37-0.15 0.51-0.07-0.01-0.15-0.02-0.23-0.02h-60.06c-0.09-0.14-0.14-0.31-0.14-0.49v-9.26c0-0.55 0.46-1 1.03-1h58.51c0.02 0 0.05 0 0.0699 0.01 0.5501 0.0299 0.9701 0.4599 0.9701 0.99z" fill="#3F3F3F"/><path d="m27.14 49.66h-9.62c0.58-2.11 2.51-3.66 4.81-3.66s4.23 1.5499 4.81 3.66z" fill="#EA5A47"/><rect x="31.407" y="25.44" width="4.1482" height="4.5232" fill="#3F3F3F"/><path d="m27.296 31.732h-6.7407c-0.0205 0-0.0371-0.0165-0.0371-0.037v-6.3704c0-1.3295 1.0779-2.4074 2.4074-2.4074h2.2963c1.166 0 2.1111 0.9452 2.1111 2.1111v6.6667c0 0.0205-0.0165 0.037-0.037 0.037z" fill="#3F3F3F"/><rect x="9.5556" y="18.695" width="3.1111" height="11.63" fill="#3F3F3F"/><path d="M7.56,37.73v-6.78c0-0.55,0.45-1,1-1H45.5V18.1h20.72v12.75c0.01,0.03,0.01,0.07,0.01,0.1v6.6125 L7.56,37.73z" fill="#3F3F3F"/><rect x="53.704" y="14.917" width="4.5926" height="3.1852" fill="#3F3F3F"/><path d="m45.27 51c0 2.76-2.24 5-5 5s-5-2.24-5-5c0-0.46 0.06-0.91 0.19-1.34 0.44-1.63 1.7-2.9301 3.31-3.42 0.48-0.16 0.98-0.24 1.5-0.24 0.93 0 1.79 0.25 2.53 0.69 1.11 0.65 1.94 1.71 2.28 2.97 0.13 0.43 0.19 0.8799 0.19 1.34z" fill="#EA5A47"/><line x1="29.824" x2="32.991" y1="48.692" y2="48.692" fill="none"/><path d="m68 41.88v0.82c0 0.65-0.53 1.18-1.19 1.18h-1.81v4.71c0 0.59-0.48 1.07-1.07 1.07h-5.81c-0.13-0.46-0.32-0.89-0.57-1.29-0.88-1.42-2.46-2.37-4.25-2.37-1.39 0-2.64 0.56-3.55 1.48-0.59 0.6-1.04 1.34-1.27 2.1801h-3.4c-0.34-1.26-1.17-2.32-2.28-2.97-0.74-0.44-1.6-0.69-2.53-0.69-0.52 0-1.02 0.08-1.5 0.24-1.61 0.49-2.87 1.79-3.31 3.42h-8.32c-0.58-2.11-2.51-3.66-4.81-3.66s-4.23 1.55-4.81 3.66h-8.48c-1.2599 0-2.28-1.02-2.28-2.28v-3.5h-1.57c-0.66 0-1.19-0.53-1.19-1.18v-0.82c0-0.65 0.53-1.18 1.19-1.18h61.62c0.08 0 0.16 0.01 0.23 0.02 0.55 0.1099 0.96 0.5899 0.96 1.1599z" fill="#EA5A47"/><path d="m58.3 51c0 2.76-2.24 5-5 5-2.77 0-5-2.24-5-5 0-0.46 0.06-0.91 0.18-1.34 0.23-0.84 0.68-1.58 1.27-2.1801 0.91-0.92 2.16-1.48 3.55-1.48 1.79 0 3.37 0.95 4.25 2.37 0.25 0.4 0.44 0.83 0.57 1.29 0.12 0.4301 0.18 0.88 0.18 1.3401z" fill="#EA5A47"/><path d="m27.33 51c0 2.76-2.24 5-5 5s-5-2.24-5-5c0-0.46 0.06-0.91 0.19-1.34 0.58-2.11 2.51-3.66 4.81-3.66s4.23 1.55 4.81 3.66c0.13 0.43 0.19 0.8799 0.19 1.34z" fill="#EA5A47"/><path d="m57.333 29.964h-8v-8.6342c0-0.5523 0.4477-1 1-1h7v9.6342z"/></g><g id="c" fill="none" stroke="#000" stroke-linecap="round" stroke-linejoin="round" stroke-miterlimit="10" stroke-width="2"><rect x="31.407" y="25.44" width="4.1482" height="4.5232"/><path d="m27.33 25.03v4.92h-6.81v-4.63c0-1.32 1.08-2.4 2.41-2.4h2.29c1.17-1e-4 2.11 0.9399 2.11 2.11z"/><rect x="9.56" y="18.7" width="3.11" height="11.25"/><path d="m66.23 37.56v-6.61c0-0.03 0-0.07-0.01-0.1v-12.75h-20.72v11.85h-18.17"/><path d="m7.56 37.73v-6.78c0-0.55 0.45-1 1-1h1"/><line x1="20.52" x2="12.67" y1="29.95" y2="29.95"/><rect x="53.704" y="14.917" width="4.5926" height="3.1852"/><path d="m7.7037 44.583v3.1087c0 0.5523 0.4477 1 1 1h6.2088"/><path d="M60.4028,48.692H64c0.5523,0,1-0.4477,1-1v-3.8118"/><line x1="29.824" x2="32.991" y1="48.692" y2="48.692"/><path d="m68 41.88v0.82c0 0.65-0.53 1.18-1.19 1.18h-61.62c-0.66 0-1.19-0.53-1.19-1.18v-0.82c0-0.65 0.53-1.18 1.19-1.18h61.62c0.66 0 1.19 0.5299 1.19 1.18z"/><circle cx="53.296" cy="51" r="5.0001"/><circle cx="40.273" cy="51" r="5.0001"/><circle cx="22.333" cy="51" r="5.0001"/><polyline points="57.162 21.297 57.162 29.964 50.245 29.964"/></g></svg>
