<svg xmlns="http://www.w3.org/2000/svg" id="a" version="1.1" viewBox="0 0 72 72"><g id="b"><path id="c" fill="none" stroke="#000" stroke-linecap="round" stroke-linejoin="round" stroke-miterlimit="10" stroke-width="2" d="m15.1 47.5s14.4-2.1 49.4-1"/></g><g id="d"><path fill="#D0CFCE" d="m52.6 26.7s-13.7-1-23.8 5.6-16.2 11.7-16.2 11.7-1.8 1.8-1.9 3.9c-0.2 3 6.9 3.9 6.9 3.9l15.4 1.1h1 34.5s-0.2-26.2 0-26.2h-15.9z"/><path fill="#3F3F3F" d="m27.8 38.1 3 3h34.7v-7c0-0.6-0.4-1-1-1h-19s-8.6-0.2-18.1 4.1"/><path fill="none" stroke="#EA5A47" stroke-linecap="round" stroke-linejoin="round" stroke-miterlimit="10" stroke-width="2" d="m15.1 47.5s14.4-2.1 49.4-1"/></g><g id="e"><circle cx="42.2" cy="54" r="2"/><circle cx="55.3" cy="54" r="2"/><line x1="4.4" x2="67.5" y1="56" y2="56" fill="none" stroke="#000" stroke-linecap="round" stroke-linejoin="round" stroke-miterlimit="10" stroke-width="2"/><path fill="none" stroke="#000" stroke-linecap="round" stroke-linejoin="round" stroke-miterlimit="10" stroke-width="2" d="m52.6 26.7s-13.7-1-23.8 5.6-16.2 11.7-16.2 11.7-1.8 1.8-1.9 3.9c-0.2 3 6.9 3.9 6.9 3.9l15.4 1.1h1 34.5s-0.2-26.2 0-26.2h-15.9z"/><polyline fill="none" stroke="#000" stroke-linecap="round" stroke-linejoin="round" stroke-miterlimit="10" stroke-width="2" points="27.8 38.1 30.8 41.2 64.5 41.2"/></g></svg>