<svg xmlns="http://www.w3.org/2000/svg" id="a" viewBox="0 0 72 72"><g id="b"><path fill="#d0cfce" d="m68.197 49h-49.428c-6.2907 0-11.438-4.4743-11.438-9.9429 0-5.4685 13.725-19.057 20.016-19.057h40.984v28.883a0.1273 0.1273 0 0 1-0.1348 0.1172z"/><polyline fill="#92d3f5" points="30.331 38 40.92 29 45.331 29 45.331 38 30.331 38"/><polyline fill="#92d3f5" points="49.331 38 59.92 29 64.331 29 64.331 38 49.331 38"/><path fill="#92d3f5" d="m10.332 37s5-7 10-8a22.795 22.795 0 0 1 8 0l-7.569 7.7824z"/><line x1="64.332" x2="12.332" y1="43" y2="43" fill="none" stroke="#ea5a47" stroke-linecap="round" stroke-linejoin="round" stroke-width="2"/><polygon fill="#3f3f3f" points="68.331 56 11.331 56 17.566 52 68.331 52"/></g><g id="c" fill="none" stroke="#000" stroke-linecap="round" stroke-linejoin="round" stroke-width="2"><polygon points="68.331 56 11.331 56 17.566 52 68.331 52"/><polyline points="31.331 38 45.331 38 45.331 29.643"/><polyline points="50.331 38 64.331 38 64.331 29.643"/><polyline points="28.331 30 21.331 37 11.331 37"/><path d="m68.197 49h-49.428c-6.2907 0-11.438-4.4743-11.438-9.9429 0-5.4685 13.725-19.057 20.016-19.057h40.984v28.883a0.1273 0.1273 0 0 1-0.1348 0.1172z"/></g></svg>