<svg xmlns="http://www.w3.org/2000/svg" id="a" version="1.1" viewBox="0 0 72 72"><g id="b"><rect width="4" height="64.1" x="34.1" y="3.9" fill="#D0CFCE"/><path fill="#fff" d="m48.9 38.5h-25.5c-1.1 0-2-0.9-2-2v-25.6c0-1.1 0.9-2 2-2h25.5c1.1 0 2 0.9 2 2v25.6c0 1.1-0.9 2-2 2z"/><circle cx="36.1" cy="23.6" r="10" fill="#FCEA2B" stroke="#5C9E31" stroke-linecap="round" stroke-linejoin="round" stroke-miterlimit="10" stroke-width="2"/></g><g id="c" fill="none" stroke="#000" stroke-linecap="round" stroke-linejoin="round" stroke-miterlimit="10" stroke-width="2"><polyline points="34.1 8.5 34.1 3.9 38.1 3.9 38.1 8.5"/><polyline points="38.1 39 38.1 68 34.1 68 34.1 38.9"/><path d="m48.9 38.5h-25.5c-1.1 0-2-0.9-2-2v-25.6c0-1.1 0.9-2 2-2h25.5c1.1 0 2 0.9 2 2v25.6c0 1.1-0.9 2-2 2z"/><circle cx="36.1" cy="23.6" r="10"/><line x1="32.7" x2="32.7" y1="18" y2="28.9"/><line x1="39" x2="39" y1="18" y2="28.9"/><line x1="39" x2="32.7" y1="23.4" y2="23.4"/></g><g id="d" fill="none" stroke="#5C9E31" stroke-linecap="round" stroke-linejoin="round" stroke-miterlimit="10" stroke-width="2.1"><circle cx="36.1" cy="23.6" r="10"/><line x1="32.7" x2="32.7" y1="18" y2="28.9"/><line x1="39" x2="39" y1="18" y2="28.9"/><line x1="39" x2="32.7" y1="23.4" y2="23.4"/></g></svg>