<?xml version="1.0" encoding="UTF-8"?>
<svg id="a" version="1.1" viewBox="0 0 72 72" xmlns="http://www.w3.org/2000/svg"><g id="b"><path d="m17.925 53.975-6.625-1.017s-1.0625 0-1.0625-1.25-0.0625-3.5625-0.0625-3.5625 0.6832-9.4798 2.625-10.625c1.625-0.9583 46.544-0.7036 53.136-0.5781 0.4728 9e-3 0.8668 0.3478 0.9496 0.8133 0.2375 1.3354 0.6809 4.0966 0.7264 6.3273 0.0625 3.0625-0.125 8-0.125 8l-4.7646 1.7952" fill="#EA5A47"/><path d="m13.133 38.083s-2.3125 3.1667-2.125 9.0417c0 0 3.9166 1.4583 9.9791-4.3125l42.938 1.3125s2.2292-1.2292 2.3334-6.2917c0 0-45.875-2.1666-53.125 0.25z" fill="#3F3F3F"/><line x1="50.341" x2="30.175" y1="53.061" y2="53.006" fill="none"/><circle cx="56.48" cy="53.292" r="3" fill="#D0CFCE"/><circle cx="23.98" cy="53.292" r="3" fill="#D0CFCE"/><rect x="40.487" y="40.318" width="5.0625" height="12.667" fill="#3F3F3F"/><path d="m11.159 50.656h2.5783l1.0723-2.3125h-2.8795c-0.4259 0-0.7711 0.3992-0.7711 0.8916v1.4209z" fill="#FCEA2B"/></g><g id="c" fill="none" stroke="#000" stroke-linecap="round" stroke-linejoin="round" stroke-miterlimit="10" stroke-width="2"><path d="m17.925 52.975-6.625-0.017s-1.0625 0-1.0625-1.25-0.0625-3.5625-0.0625-3.5625 0.6832-9.4798 2.625-10.625c1.625-0.9583 46.544-0.7036 53.136-0.5781 0.4728 9e-3 0.8668 0.3478 0.9496 0.8133 0.2375 1.3354 0.6809 4.0966 0.7264 6.3273 0.0625 3.0625-0.125 8-0.125 8l-4.7646 0.7952"/><line x1="50.341" x2="30.175" y1="53.061" y2="53.006"/><polyline points="11.3 40.5 6.7372 40.812 5.2997 44.125"/><circle cx="56.48" cy="53.292" r="3"/><circle cx="23.98" cy="53.292" r="3"/><path d="m45.549 43.028 18.125 0.1592s0.0142-0.0017 0.0403-0.0069"/><path d="m13.278 46.311s4.0241-0.9494 7.709-3.4984l19.5 0.1713"/><path d="m17.925 52.975-6.625-0.017s-1.0625 0-1.0625-1.25-0.0625-3.5625-0.0625-3.5625 0.6832-9.4798 2.625-10.625c1.625-0.9583 46.544-0.7036 53.136-0.5781 0.4728 9e-3 0.8668 0.3478 0.9496 0.8133 0.2375 1.3354 0.6809 4.0966 0.7264 6.3273 0.0625 3.0625-0.125 8-0.125 8"/><rect x="40.487" y="40.318" width="5.0625" height="12.667"/><polyline points="11.159 50.656 13.737 50.656 14.81 49.295"/></g></svg>
