<svg xmlns="http://www.w3.org/2000/svg" id="a" version="1.1" viewBox="0 0 72 72"><g id="b"><path fill="#92D3F5" d="m60.606 44.04c-0.1148 0.5893-0.362 1.1122-0.7238 1.5687h-20.081c-0.6443 0-1.1651-0.4482-1.1651-0.996v-13.404c1.474-0.3485 3.0452-0.5394 4.6428-0.5394 8.6325 0 15.8 5.3865 17.177 12.45 0.0618 0.3071 0.1147 0.6142 0.1501 0.9212z"/><path fill="#92D3F5" d="m39.433 43.851h-3.0209c-0.4984 0-0.9062-0.4078-0.9062-0.9062v-8.733c0-0.4984 0.4078-0.9062 0.9062-0.9062h3.0209c0.4984 0 0.9062 0.4078 0.9062 0.9062v8.733c0 0.4984-0.4078 0.9062-0.9062 0.9062z"/><path fill="#EA5A47" d="m60.58 43.85h-15.79c-0.49 0-0.88-0.39-0.88-0.88v-12.4c0-0.43-0.4-0.78-0.8799-0.78 0 0-1.36-0.05-3.54-0.1-0.53 0-1.1-0.01-1.72-0.02-7.02-0.08-19.31 0.03-25.68 1.6801-0.41 0.11-0.83-0.07-1.02-0.45l-2.31-3.75s-1.76-2.63-1.76 0l1.66 11.54c0.05 0.44 0.4301 0.77 0.8701 0.77h0.99c0.48 0 0.87-0.4 0.87-0.88v-1.86c0-0.45 0.34-0.82 0.78-0.87 3.07-0.35 14.25-1.29 16.28 2.9399 0.01 0.02 0.02 0.04 0.03 0.0601l-0.28 3.48-0.04 0.58-0.0699 0.94c0 2.39 2.15 4 5.56 4.97 2.86 0.81 6.6 1.18 10.7 1.18 2.7401 0 5.33-0.08 7.59-0.34 3.69-0.4301 6.53-1.34 7.85-3.17 0.36-0.49 0.61-1.04 0.72-1.66 0.05-0.23 0.08-0.48 0.09-0.73 0-0.03 0.01-0.07 0-0.11-3e-4 -0.0501-0.0103-0.0901-0.0203-0.1401zm-20.24-0.9c0 0.49-0.41 0.9-0.91 0.9h-3.02c-0.5 0-0.9-0.41-0.9-0.9v-8.74c0-0.5 0.4-0.9 0.9-0.9h3.02c0.5 0 0.91 0.4 0.91 0.9v8.74z"/></g><g id="c"><path fill="none" stroke="#000" stroke-linecap="round" stroke-linejoin="round" stroke-miterlimit="10" stroke-width="2" d="m60.46 43.12c0.05 0.25 0.09 0.49 0.12 0.73h-15.79c-0.49 0-0.88-0.39-0.88-0.88v-12.28c8.35 0.2399 15.2 5.5399 16.55 12.43z"/><path fill="none" stroke="#000" stroke-linecap="round" stroke-linejoin="round" stroke-miterlimit="10" stroke-width="2" d="m60.58 43.85h-15.79c-0.49 0-0.88-0.39-0.88-0.88v-12.4c0-0.43-0.4-0.78-0.8799-0.78 0 0-1.36-0.05-3.54-0.1-0.53 0-1.1-0.01-1.72-0.02-7.02-0.08-19.31 0.03-25.68 1.6801-0.41 0.11-0.83-0.07-1.02-0.45l-2.31-3.75s-1.76-2.63-1.76 0l1.66 11.54c0.05 0.44 0.4301 0.77 0.8701 0.77h0.99c0.48 0 0.87-0.4 0.87-0.88v-1.86c0-0.45 0.34-0.82 0.78-0.87 3.07-0.35 14.25-1.29 16.28 2.9399 0.01 0.02 0.02 0.04 0.03 0.0601l-0.28 3.48-0.04 0.58-0.0699 0.94c0 2.39 2.15 4 5.56 4.97 2.86 0.81 6.6 1.18 10.7 1.18 2.7401 0 5.33-0.08 7.59-0.34 3.69-0.4301 6.53-1.34 7.85-3.17 0.36-0.49 0.61-1.04 0.72-1.66 0.05-0.23 0.08-0.48 0.09-0.73 0-0.03 0.01-0.07 0-0.11-3e-4 -0.0501-0.0103-0.0901-0.0203-0.1401zm-20.24-0.9c0 0.49-0.41 0.9-0.91 0.9h-3.02c-0.5 0-0.9-0.41-0.9-0.9v-8.74c0-0.5 0.4-0.9 0.9-0.9h3.02c0.5 0 0.91 0.4 0.91 0.9v8.74z"/><path fill="none" stroke="#000" stroke-linecap="round" stroke-linejoin="round" stroke-miterlimit="10" stroke-width="2" d="m40.34 34.21v8.74c0 0.49-0.41 0.9-0.91 0.9h-3.02c-0.5 0-0.9-0.41-0.9-0.9v-8.74c0-0.5 0.4-0.9 0.9-0.9h3.02c0.5 0 0.91 0.4 0.91 0.9z"/><path d="m39.73 20.33v8.73c0 0.24-0.09 0.46-0.24 0.63-0.53 0-1.1-0.01-1.72-0.02-0.15-0.17-0.23-0.38-0.23-0.61v-8.73c0-0.52 0.42-0.94 0.94-0.94h0.32c0.51 0 0.93 0.42 0.93 0.94z"/><path fill="none" stroke="#000" stroke-linecap="round" stroke-linejoin="round" stroke-miterlimit="10" stroke-width="2" d="m35.121 47.366s-2.6364 0.8787-2.6364 7.0303"/><path fill="none" stroke="#000" stroke-linecap="round" stroke-linejoin="round" stroke-miterlimit="10" stroke-width="2" d="m50.061 47.366s2.6364 0.8787 2.6364 7.0303"/><path fill="none" stroke="#000" stroke-linecap="round" stroke-linejoin="round" stroke-miterlimit="10" stroke-width="2" d="m27.212 55.275h28.121s5.2728 0 6.1515-2.6364"/><line x1="12.273" x2="65" y1="21.588" y2="21.588" fill="none" stroke="#000" stroke-linecap="round" stroke-linejoin="round" stroke-miterlimit="10" stroke-width="2"/></g></svg>