<svg xmlns="http://www.w3.org/2000/svg" id="a" viewBox="0 0 72 72"><g id="b"><rect width="45.278" height="12.025" x="21.526" y="35.564" fill="#ea5a47"/><rect width="6.341" height="10.646" x="34.358" y="32.235" fill="#92d3f5" rx="1.058" ry="1.058"/><rect width="6.341" height="10.646" x="21.402" y="32.235" fill="#92d3f5" rx="1.058" ry="1.058"/><rect width="6.341" height="10.646" x="47.368" y="32.235" fill="#92d3f5" rx="1.058" ry="1.058"/><rect width="6.341" height="10.646" x="60.378" y="32.235" fill="#92d3f5" rx="1.058" ry="1.058"/><path fill="#d0cfce" d="m33.749 51.112a4.2445 4.2445 0 0 1-8.4889 0"/><path fill="#d0cfce" d="m62.716 51.112a4.2445 4.2445 0 0 1-8.4889 0"/><rect width="43.938" height="4.063" x="22.196" y="47.049" fill="#3f3f3f"/></g><g id="c" stroke="#000" stroke-linecap="round"><line x1="3" x2="67" y1="56" y2="56" stroke-linejoin="round" stroke-width="2"/><line x1="21" x2="67" y1="16" y2="16" fill="none" stroke-linejoin="round" stroke-width="2"/><polyline fill="none" stroke-linejoin="round" stroke-width="2" points="34.358 26.392 40 21 34 16"/><path fill="none" stroke-miterlimit="10" stroke-width="2.074" d="M23.149,50.1115H22.33a.891.891,0,0,1-.8884-.8884V28.2888a1.9023,1.9023,0,0,1,1.8968-1.8968H64.8225a1.9023,1.9023,0,0,1,1.8968,1.8968V49.2235a.8906.8906,0,0,1-.888.888h-.8291"/><line x1="51.972" x2="35.845" y1="50.112" y2="50.112" fill="none" stroke-miterlimit="10" stroke-width="2.074"/><path fill="none" stroke-miterlimit="10" stroke-width="2.074" d="m33.749 51.364a4.2445 4.2445 0 1 1-8.4889 0"/><path fill="none" stroke-miterlimit="10" stroke-width="2.074" d="m62.716 51.112a4.2445 4.2445 0 0 1-8.4889 0"/><rect width="6.341" height="10.646" x="34.358" y="32.246" fill="none" stroke-miterlimit="10" stroke-width="2.074" rx="1.058" ry="1.058"/><rect width="6.341" height="10.646" x="21.402" y="32.246" fill="none" stroke-miterlimit="10" stroke-width="2.074" rx="1.058" ry="1.058"/><rect width="6.341" height="10.646" x="47.196" y="32.324" fill="none" stroke-miterlimit="10" stroke-width="2.074" rx="1.058" ry="1.058"/><rect width="6.341" height="10.646" x="60.378" y="32.324" fill="none" stroke-miterlimit="10" stroke-width="2.074" rx="1.058" ry="1.058"/><line x1="20.384" x2="67.752" y1="47.031" y2="47.031" fill="none" stroke-miterlimit="10" stroke-width="1.97"/></g></svg>