<?xml version="1.0" encoding="UTF-8"?>
<svg id="a" viewBox="0 0 72 72" xmlns="http://www.w3.org/2000/svg"><g id="b"><rect x="21.6" y="11" width="28.8" height="33.6" rx="3.0558" ry="3.0558" fill="#d0cfce"/><rect x="25" y="18" width="22" height="10" fill="#3f3f3f"/><rect x="25" y="35" width="5" height="5" fill="#fcea2b"/><rect x="42" y="35" width="5" height="5" fill="#fcea2b"/></g><g id="c" fill="none" stroke="#000" stroke-linecap="round" stroke-width="2"><line x1="25" x2="12" y1="48" y2="61" stroke-miterlimit="10"/><line x1="60" x2="47" y1="61" y2="48" stroke-miterlimit="10"/><line x1="13" x2="59.333" y1="57.936" y2="58.2" stroke-miterlimit="10"/><line x1="17" x2="55.333" y1="53.936" y2="54.2" stroke-miterlimit="10"/><line x1="21" x2="51.333" y1="49.936" y2="50.2" stroke-miterlimit="10"/><path d="M47,19v8.8H26" stroke-linejoin="round"/><polyline points="26 40 30 40 30 36" stroke-linejoin="round"/><polyline points="43 40 47 40 47 36" stroke-linejoin="round"/><rect x="21.6" y="11" width="28.8" height="33.6" rx="3.0558" ry="3.0558" stroke-linejoin="round"/></g></svg>
