<?xml version="1.0" encoding="UTF-8"?>
<svg id="a" viewBox="0 0 72 72" xmlns="http://www.w3.org/2000/svg"><g id="b"><rect x="27.689" y="10.958" width="16.946" height="4.9408" rx="2.4704" ry="2.4704" fill="#fcea2b"/><path d="m24.23 13.958h23.54a7.2305 7.2305 0 0 1 7.2305 7.2305v26.27a1.5 1.5 0 0 1-1.5 1.5h-35a1.5 1.5 0 0 1-1.5-1.5v-26.27a7.23 7.23 0 0 1 7.23-7.23z" fill="#fcea2b"/><rect x="17" y="38.958" width="38" height="10" fill="#f4aa41"/><rect x="20" y="20.958" width="31" height="13" fill="#92d3f5"/><rect x="20" y="41.958" width="7" height="3" fill="#fff"/><rect x="44" y="41.958" width="7" height="3" fill="#fff"/><rect x="16" y="48.958" width="40" height="8" rx="2.6211" ry="2.6211" fill="#3f3f3f"/><rect x="30.044" y="13.218" width="10.911" height="2.8665" rx="1.4333" ry="1.4333" fill="#3f3f3f"/></g><g id="c"><rect x="16" y="48.958" width="40" height="8" rx="2.6211" ry="2.6211" fill="none" stroke="#000" stroke-linecap="round" stroke-linejoin="round" stroke-width="2"/><rect x="18" y="56.958" width="6" height="4" rx="2" ry="2"/><rect x="48" y="56.958" width="6" height="4" rx="2" ry="2"/><line x1="16" x2="13" y1="25.958" y2="25.958" fill="none" stroke="#000" stroke-linecap="round" stroke-linejoin="round" stroke-width="2"/><line x1="13" x2="13" y1="22.958" y2="28.958" fill="none" stroke="#000" stroke-linecap="round" stroke-linejoin="round" stroke-width="2"/><line x1="56" x2="59" y1="25.958" y2="25.958" fill="none" stroke="#000" stroke-linecap="round" stroke-linejoin="round" stroke-width="2"/><line x1="59" x2="59" y1="22.958" y2="28.958" fill="none" stroke="#000" stroke-linecap="round" stroke-linejoin="round" stroke-width="2"/><path d="m44.156 13.958h3.6144a7.2518 7.2518 0 0 1 7.23 7.2305v26.27a1.5044 1.5044 0 0 1-1.5 1.5h-35a1.5044 1.5044 0 0 1-1.5-1.5v-26.27a7.2515 7.2515 0 0 1 7.23-7.23h2.6142" fill="none" stroke="#000" stroke-linecap="round" stroke-linejoin="round" stroke-width="2"/><path d="m51 21.958v11.8h-30" fill="none" stroke="#000" stroke-linecap="round" stroke-linejoin="round" stroke-width="2"/><polyline points="21 44.958 27 44.958 27 42.958" fill="none" stroke="#000" stroke-linecap="round" stroke-linejoin="round" stroke-width="2"/><polyline points="45 44.958 51 44.958 51 42.958" fill="none" stroke="#000" stroke-linecap="round" stroke-linejoin="round" stroke-width="2"/><line x1="32" x2="41" y1="41.958" y2="41.958" fill="none" stroke="#000" stroke-linecap="round" stroke-miterlimit="10" stroke-width="2"/><line x1="32" x2="41" y1="44.958" y2="44.958" fill="none" stroke="#000" stroke-linecap="round" stroke-miterlimit="10" stroke-width="2"/><path d="m26.844 13.958v-0.4791a2.5283 2.5283 0 0 1 2.5209-2.5209h12.269a2.5283 2.5283 0 0 1 2.5209 2.5209v0.4791" fill="none" stroke="#000" stroke-linecap="round" stroke-linejoin="round" stroke-width="2"/></g></svg>
