<?xml version="1.0" encoding="UTF-8"?>
<svg id="a" viewBox="0 0 72 72" xmlns="http://www.w3.org/2000/svg"><g id="b"><rect x="22.087" y="36.099" width="45.278" height="12.025" fill="#b1cc33"/><rect x="34.918" y="32.77" width="6.3408" height="10.646" rx="1.0578" ry="1.0578" fill="#92d3f5"/><rect x="21.963" y="32.77" width="6.3408" height="10.646" rx="1.0578" ry="1.0578" fill="#92d3f5"/><rect x="47.929" y="32.77" width="6.3408" height="10.646" rx="1.0578" ry="1.0578" fill="#92d3f5"/><rect x="60.939" y="32.77" width="6.3408" height="10.646" rx="1.0578" ry="1.0578" fill="#92d3f5"/><path d="m34.31 51.646a4.2445 4.2445 0 1 1-8.4889 0" fill="#d0cfce"/><path d="m63.277 51.646a4.2445 4.2445 0 0 1-8.489 0" fill="#d0cfce"/><polygon points="16 22 21 17 26 22 24 23 22 21 20 23 18 22 15 24 14 23" fill="#92d3f5"/><polygon points="42.167 15.429 50.083 9 58 15.429 54.833 16.714 51.667 14.143 48.5 16.714 45.333 15.429 40.583 18 39 16.714" fill="#92d3f5"/><rect x="22.757" y="47.584" width="43.938" height="4.0628" fill="#3f3f3f"/></g><g id="c" stroke="#000" stroke-linecap="round"><line x1="4" x2="68" y1="56" y2="56" stroke-linejoin="round" stroke-width="2"/><polyline points="68 22 50 9 29 24 21 16 4 32" fill="none" stroke-linejoin="round" stroke-width="2"/><path d="M23.71,50.6463H22.89a.8909.8909,0,0,1-.8884-.8883V28.8236a1.9023,1.9023,0,0,1,1.8967-1.8967H65.383A1.9023,1.9023,0,0,1,67.28,28.8236V49.7583a.8906.8906,0,0,1-.888.888h-.8291" fill="none" stroke-miterlimit="10" stroke-width="2.0737"/><line x1="52.532" x2="36.406" y1="50.646" y2="50.646" fill="none" stroke-miterlimit="10" stroke-width="2.0737"/><path d="m34.31 51.898a4.2445 4.2445 0 1 1-8.4889 0" fill="none" stroke-miterlimit="10" stroke-width="2.0737"/><path d="m63.277 51.646a4.2445 4.2445 0 0 1-8.489 0" fill="none" stroke-miterlimit="10" stroke-width="2.0737"/><rect x="34.918" y="32.78" width="6.3408" height="10.646" rx="1.0578" ry="1.0578" fill="none" stroke-miterlimit="10" stroke-width="2.0737"/><rect x="21.963" y="32.78" width="6.3408" height="10.646" rx="1.0578" ry="1.0578" fill="none" stroke-miterlimit="10" stroke-width="2.0737"/><rect x="47.757" y="32.859" width="6.3408" height="10.646" rx="1.0578" ry="1.0578" fill="none" stroke-miterlimit="10" stroke-width="2.0737"/><rect x="60.939" y="32.859" width="6.3408" height="10.646" rx="1.0578" ry="1.0578" fill="none" stroke-miterlimit="10" stroke-width="2.0737"/><line x1="20.945" x2="68.313" y1="47.566" y2="47.566" fill="none" stroke-miterlimit="10" stroke-width="1.9699"/></g></svg>
