<?xml version="1.0" encoding="UTF-8"?>
<svg id="a" version="1.1" viewBox="0 0 72 72" xmlns="http://www.w3.org/2000/svg"><g id="b"><rect x="26.682" y="28.364" width="3.1666" height="4.4166" fill="#3F3F3F"/><path d="m51.095 20.284s-9.8301-1.17-16.16 0.58l-0.5 10.58s-18.84 1.5901-22.59 5.5901l1.25 13.5h40.25s1.1543-10.477 0.4938-19.424c-0.3326-4.5061-1.7792-8.367-2.7438-10.826zm-11.262 17.281-2.6789 0.0313 0.1406-12.634c5.3893-1.8888 11.64 0.0726 11.64 0.0726l0.0701 4.9c-7.85 2.07-9.172 7.6306-9.172 7.6306z" fill="#B1CC33"/><path d="m11.48 42.519s16.636-2.6442 30.997-3.035c0 0 4.0063-4.2064 6.0381-4.911 1.9375-0.6719 4.8815-1.2129 5.2787-0.875 0.4009 0.341 0.2324 2.6722 0.331 5.9151l-0.7213 11.954-41.061-0.2137-0.8624-8.8347z" fill="#3F3F3F"/><circle cx="52.98" cy="46.59" r="5" fill="#EA5A47"/><circle cx="15.02" cy="51.59" r="3" fill="#EA5A47"/><path d="m14.07 41.135h1.7578c0.9668 0 1.7578-0.45 1.7578-1v-2.12c-0.1406 0.2258 0.3418-1-0.625-1l-1.4721 0.3355c-0.4164 0.0949-0.7386 0.425-0.8233 0.8437l-0.5952 2.9408z" fill="#FCEA2B"/></g><g id="c"><path d="m52.98 35.59c-6.0654 0-11 4.9346-11 11s4.9346 11 11 11 11-4.9346 11-11-4.9346-11-11-11zm4 11c0 2.2061-1.7939 4-4 4s-4-1.7939-4-4 1.7939-4 4-4 4 1.7939 4 4z"/><path d="m15.02 45.59c-3.3086 0-6 2.6914-6 6s2.6914 6 6 6 6-2.6914 6-6-2.6914-6-6-6zm0 8c-1.103 0-2-0.8975-2-2s0.897-2 2-2 2 0.8975 2 2-0.897 2-2 2z"/><polyline points="26.682 32.3 26.682 28.364 29.849 28.364 29.849 31.851" fill="none" stroke="#000" stroke-linecap="round" stroke-linejoin="round" stroke-miterlimit="10" stroke-width="2"/><path d="m26.682 32.3c-5.1431 0.7998-11.774 2.1973-14.407 4.3368-0.2664 0.2165-0.4129 0.5443-0.3812 0.8861l0.6871 6.5445" fill="none" stroke="#000" stroke-linecap="round" stroke-linejoin="round" stroke-miterlimit="10" stroke-width="2"/><path d="m29.849 31.851c-0.9401 0.1207-2.0161 0.2697-3.1666 0.4487" fill="none" stroke="#000" stroke-linecap="round" stroke-linejoin="round" stroke-miterlimit="10" stroke-width="2"/><path d="m52.818 30.467c-0.3456-3.6951-0.8852-8.0548-1.7199-10.186 0 0-10.833-1.1666-17.167 0.5834l-0.5 10.583s-1.4378 0.1282-3.5834 0.4037" fill="none" stroke="#000" stroke-linecap="round" stroke-linejoin="round" stroke-miterlimit="10" stroke-width="2"/><line x1="22.515" x2="40.352" y1="50.531" y2="50.531" fill="none" stroke="#000" stroke-linecap="round" stroke-linejoin="round" stroke-miterlimit="10" stroke-width="2"/><path d="m40.352 43.472c1.537-6.9462 8.414-11.331 15.36-9.7939 2.792 0.6178 5.1703 2.0984 6.9165 4.0996" fill="none" stroke="#000" stroke-linecap="round" stroke-linejoin="round" stroke-miterlimit="10" stroke-width="2"/><path d="m48.967 23.669s-5.919-0.8771-11.669 0.2895l-0.2845 13.464h2.5016s2.875-4.6409 9.5223-6.8492l-0.0704-6.9038z" fill="none" stroke="#000" stroke-linecap="round" stroke-linejoin="round" stroke-miterlimit="10" stroke-width="2"/><path d="m28.119 28.364s0.3381-3.5834-1.2846-3.5834" stroke="#000" stroke-linecap="round" stroke-linejoin="round" stroke-miterlimit="10" stroke-width="2"/><path d="m37.017 37.279h2.6602s2.7485-4.8599 9.3606-6.7061" fill="none" stroke="#000" stroke-linecap="round" stroke-linejoin="round" stroke-miterlimit="10" stroke-width="2"/><path d="m17.044 38.015v2.12c0 0.55-0.4501 1-1 1h-1" fill="none" stroke="#000" stroke-linecap="round" stroke-linejoin="round" stroke-miterlimit="10" stroke-width="2"/></g></svg>
