<svg xmlns="http://www.w3.org/2000/svg" id="a" viewBox="0 0 72 72"><g id="b"><path fill="#fff" d="m65 28.67v21.08c0 0.55-0.45 1.9583-1 1.9583h-6.67c0-2.76-1.24-5.9583-4-5.9583s-4 3.1983-4 5.9583h-17.16v-24.038h31.83c0.55 0 1 0.44 1 1z"/><path fill="#fff" d="m32.17 27.67v24.08l-11.932-0.0176c-0.12-2.65-2.1582-5.9824-4.8382-5.9824-2.61 0-4.76 3.01-4.97 5.57l-3.43-0.07v-5.67c0-0.12 0-0.23 0.01-0.34 0-0.11 0.01-0.21 0.02-0.31 0.05-0.62 0.18-1.11 0.34-1.48 0.1-0.25 0.21-0.44 0.32-0.6v-0.01c0.06-0.07 0.11-0.14 0.16-0.2 0.04-0.06 0.09-0.11 0.14-0.15 0.03-0.02 0.05-0.05 0.07-0.07s0.04-0.03 0.06-0.05c0.03-0.03 0.05-0.03 0.05-0.03l4.5-3.13c0.94-1.04 1.84-1.99 2.72-2.85 0.28-0.29 0.57-0.57 0.85-0.84 0.55-0.54 1.1-1.04 1.62-1.51s1.02-0.9 1.51-1.3c1.45-1.2 2.74-2.12 3.85-2.81 0.38-0.24 0.73-0.44 1.06-0.63s0.65-0.35 0.94-0.5 0.56-0.27 0.82-0.38c0.18-0.08 0.36-0.15 0.53-0.22l0.24-0.09c1-0.37 1.52-0.41 1.52-0.41h3.84z"/><circle cx="53.33" cy="50.75" r="3" fill="#d0cfce"/><path fill="#d0cfce" d="m18.4 50.75c0 1.66-1.34 3-3 3s-3-1.34-3-3c0-0.13 0.01-0.26 0.03-0.39 0.18-1.47 1.44-2.61 2.97-2.61 1.57 0 2.85 1.2 2.98 2.73 0.02 0.09 0.02 0.18 0.02 0.27z"/><line x1="57.333" x2="57.333" y1="33.25" y2="40.667" fill="none" stroke="#ea5a47" stroke-linecap="round" stroke-linejoin="round" stroke-miterlimit="10" stroke-width="2"/><line x1="61.042" x2="53.625" y1="36.958" y2="36.958" fill="none" stroke="#ea5a47" stroke-linecap="round" stroke-linejoin="round" stroke-miterlimit="10" stroke-width="2"/><path fill="#92d3f5" d="m26.943 33.124-0.1517 5.3559c0 0.1598-2.101 1.3501-2.2604 1.3607l-6.3812-0.0017c-0.9195 0.0608-1.4213-1.0409-0.7717-1.6946l4.7033-5.0286c0.1877-0.1889 0.4431-0.2952 0.7094-0.2952h3.8488c0.1676 0 0.3035 0.1359 0.3035 0.3035z"/></g><g id="c"><path fill="none" stroke="#000" stroke-linecap="round" stroke-linejoin="round" stroke-miterlimit="10" stroke-width="2" d="m61.5 50.75h2.5c0.5523 0 1-0.4477 1-1v-21.083c0-0.5523-0.4477-1-1-1h-35.667s-5.5833 0.4166-15.667 11.542l-4.5 3.125s-1.1667 0.7292-1.1667 3.25v4.6667h0.9167"/><line x1="22.75" x2="45.583" y1="50.75" y2="50.75" fill="none" stroke="#000" stroke-linecap="round" stroke-linejoin="round" stroke-miterlimit="10" stroke-width="2"/><path d="m53.33 45.75c-2.76 0-5 2.24-5 5s2.24 5 5 5 5-2.24 5-5-2.24-5-5-5zm0 8c-1.66 0-3-1.34-3-3s1.34-3 3-3 3 1.34 3 3-1.34 3-3 3z"/><path d="m20.39 50.52c-0.12-2.65-2.31-4.77-4.99-4.77-2.61 0-4.76 2.01-4.97 4.57-0.02 0.14-0.03 0.28-0.03 0.43 0 2.76 2.24 5 5 5s5-2.24 5-5c0-0.08 0-0.16-0.01-0.23zm-4.99 3.23c-1.66 0-3-1.34-3-3 0-0.13 0.01-0.26 0.03-0.39 0.18-1.47 1.44-2.61 2.97-2.61 1.57 0 2.85 1.2 2.98 2.73 0.02 0.09 0.02 0.18 0.02 0.27 0 1.66-1.34 3-3 3z"/><path fill="none" stroke="#000" stroke-linecap="round" stroke-linejoin="round" stroke-miterlimit="10" stroke-width="2" d="M26.75,33.8333v2.1459c0,1.6569-1.3431,3-3,3H18"/><line x1="32.167" x2="32.167" y1="27.667" y2="50.75" fill="none" stroke="#000" stroke-linecap="round" stroke-linejoin="round" stroke-miterlimit="10" stroke-width="2"/></g></svg>