<svg xmlns="http://www.w3.org/2000/svg" id="a" viewBox="0 0 72 72"><g id="b"><polygon fill="#f4aa41" points="22.647 27.358 27.455 24.854 44.988 24.812 50.21 28.861 52.822 38.045 54.853 39.798 54.397 52.154 17.384 52.531 17.384 39.051 18.414 38.511"/><polygon fill="#92d3f5" points="23.192 37.462 48.756 37.443 45.846 28.155 26.314 28.155"/><rect width="5" height="3.51" x="19.978" y="41.33" fill="#fcea2b"/><rect width="5" height="3.51" x="45.978" y="41.33" fill="#fcea2b"/><polygon fill="#fcea2b" points="32.518 20.533 27.217 20.533 27.217 24.839 44.887 24.839 44.887 20.533"/><rect width="37.242" height="4.236" x="17.641" y="47.844" fill="#3f3f3f" rx="2.118" ry="2.118"/></g><g id="c"><polyline fill="none" stroke="#000" stroke-linecap="round" stroke-linejoin="round" stroke-width="2" points="24.095 37.443 48.756 37.443 45.878 28.852"/><line x1="32" x2="41" y1="42.161" y2="42.161" fill="none" stroke="#000" stroke-linecap="round" stroke-miterlimit="10" stroke-width="2"/><line x1="32" x2="41" y1="44.793" y2="44.793" fill="none" stroke="#000" stroke-linecap="round" stroke-miterlimit="10" stroke-width="2"/><polyline fill="none" stroke="#000" stroke-linecap="round" stroke-linejoin="round" stroke-width="2" points="21 44.793 25 44.793 25 42.161"/><polyline fill="none" stroke="#000" stroke-linecap="round" stroke-linejoin="round" stroke-width="2" points="47 44.793 51 44.793 51 42.161"/><rect width="6" height="3.51" x="18" y="52.49" rx="1.755" ry="1.755"/><rect width="6" height="3.51" x="48" y="52.49" rx="1.755" ry="1.755"/><rect width="4.965" height="3.274" x="52.478" y="35.502" rx="1.637" ry="1.637"/><rect width="4.965" height="3.274" x="14.504" y="35.686" rx="1.637" ry="1.637"/><path fill="none" stroke="#000" stroke-linecap="round" stroke-linejoin="round" stroke-width="2" d="m26.388 24.313h0c0-2.3685 1.18-4.3064 2.6216-4.3064h13.982c1.4419 0 2.6216 1.9379 2.6216 4.3064h0"/><path fill="none" stroke="#000" stroke-linecap="round" stroke-linejoin="round" stroke-width="2" d="M19.598,38.3373l2.0507-6.9637c1.1278-3.83,4.8183-6.9636,8.201-6.9636H36"/><path fill="none" stroke="#000" stroke-linecap="round" stroke-linejoin="round" stroke-width="2" d="M52.4019,38.3371l-2.0506-6.9635c-1.1279-3.83-4.8183-6.9636-8.201-6.9636H36"/><path fill="none" stroke="#000" stroke-linecap="round" stroke-linejoin="round" stroke-width="2" d="M36.2624,52.49H19.9134a2.9458,2.9458,0,0,1-2.9267-2.9474V42.5053c0-1.5965.89-4.0754,2.4927-4.0754"/><path fill="none" stroke="#000" stroke-linecap="round" stroke-linejoin="round" stroke-width="2" d="m35.685 52.49h16.349a2.9458 2.9458 0 0 0 2.9267-2.9474v-7.0373c0-1.5965-0.89-4.0754-2.4927-4.0754"/></g></svg>