<svg xmlns="http://www.w3.org/2000/svg" id="a" version="1.1" viewBox="0 0 72 72"><g id="b"><path fill="#D0CFCE" d="m64.8 43.8-1.1-0.6c-0.4-0.2-0.6-0.6-0.5-1 0.3-1.9 0.5-8.5-9.7-11.5-0.2-0.1-0.4-0.1-0.6-0.1l-19.6 0.1c-0.4 0-0.8 0.1-1.1 0.3l-10.3 6.9c-0.2 0.1-0.4 0.2-0.6 0.2-1.9-0.1-3.7 0.1-5.6 0.4-5.4 1.1-7.6 4-8.4 5.5-0.2 0.3-0.2 0.7-0.2 1 0.1 2.4-1.5 5.1 0.9 7.3l19.4-0.1 20.4-0.5 16.1-0.2c0.9-0.1 2.4-1.4 2.8-2.2 1.7-2.7-1.7-5.4-1.9-5.5z"/><path fill="#9B9B9A" d="m17.3 46.2c-2.2 0-4 1.8-4 4s1.8 4 4 4 4-1.8 4-4-1.8-4-4-4z"/><path fill="#9B9B9A" d="m57.1 46.2c-2.2 0-4 1.8-4 4s1.8 4 4 4 4-1.8 4-4-1.8-4-4-4z"/><path fill="#3F3F3F" d="m56.1 39.1v-4.3c0-0.9-0.8-1.7-1.7-1.7h-21.2c-0.1 0-0.2 0-0.2 0.1l-8 5.7c-0.2 0.1-0.2 0.4-0.1 0.6 0.1 0.1 0.2 0.2 0.3 0.2 5.6 0 27.2-0.2 30.4-0.1 0.3 0 0.5-0.2 0.5-0.5v0z"/><polygon fill="#FCEA2B" points="8.9 40.3 12.9 41.9 10.8 44.8 5.8 44.9"/><path fill="#92D3F5" d="m34.9 29.2s-0.1-2.1 2.4-2.2c2.4-0.1 2.4 2.2 2.4 2.2"/></g><g id="c" fill="none" stroke="#000" stroke-linecap="round" stroke-linejoin="round" stroke-width="2"><path stroke-miterlimit="10" d="m34.9 29.2s-0.1-2.1 2.4-2.2c2.4-0.1 2.4 2.2 2.4 2.2"/><line x1="47.6" x2="27" y1="50.8" y2="51.2"/><path d="m8.1 51.2c-0.9-0.2-1.7-0.5-1.8-1-0.1-1-0.3-3.8-0.3-5.1 0-0.5 0.1-1.1 0.4-1.5 1.1-2 4.8-6.8 14.9-6.4l10.3-6.9c0.5-0.3 1.1-0.5 1.6-0.5l19.6-0.1c0.3 0 0.6 0 0.9 0.1 2.2 0.6 11.7 4 10.4 12.6l1.1 0.6c0.5 0.2 0.9 0.7 1 1.2 0.4 1.4 0.3 2.9-0.2 4.3"/><polyline points="24.9 39.7 55.1 39.5 55.1 35"/><circle cx="17.3" cy="50.2" r="5"/><circle cx="57.1" cy="50.2" r="5"/><polyline points="12.3 42.7 10.5 44.9 6.8 44.8"/><line x1="24.1" x2="50.1" y1="43.2" y2="43.2" stroke-miterlimit="10"/></g><g id="d"><line id="e" x1="24.1" x2="50.1" y1="43.2" y2="43.2" fill="none" stroke="#61B2E4" stroke-linecap="round" stroke-linejoin="round" stroke-miterlimit="10" stroke-width="2.1"/></g></svg>