<?xml version="1.0" encoding="UTF-8"?>
<svg id="a" viewBox="0 0 72 72" xmlns="http://www.w3.org/2000/svg"><g id="b"><path d="m61.083 53.062 3.4792-1h2.4375l-0.125-4.5625h-0.6875s0.625-17.625-1.75-18.5-27.688-0.5625-30.812 0-6.625-0.375-17.875 10.938l-7.75 2.5425s-1.5 0.8325-1.5625 5.2075c0 0-0.875 0.25-0.75 1.5 0.1164 1.1644-0.2544 4.2792 4.9688 4.5313" fill="#d0cfce"/><circle cx="16.48" cy="52.292" r="3" fill="#d0cfce" stroke-linecap="round" stroke-linejoin="round" stroke-miterlimit="10" stroke-width="2"/><circle cx="55" cy="52.292" r="3" fill="#d0cfce" stroke-linecap="round" stroke-linejoin="round" stroke-miterlimit="10" stroke-width="2"/><path d="m14.24 44.564s0.0855-1.0781-1.2895-1.2031-3.898 1.2031-4.0386 1.5625c-0.1406 0.3593-0.3489 1.4328 0.2813 1.625 0.6301 0.1921 5.0468-1.9844 5.0468-1.9844z" fill="#fcea2b"/><path d="m18.969 41.625c0.375 0.02 10.219-0.25 10.844-1.75s0.625-7.4375 0.625-7.4375-5.2365 1.799-7.4062 3.9688c-4 4-4.0625 5.2187-4.0625 5.2187z" fill="#3f3f3f"/><path d="m34.062 32.938v7.5566c0 0.5523 0.4477 1 1 1l21.771-0.8402c0.2292 0 0.4515-0.0788 0.6296-0.2231l2.1667-1.7556c0.2344-0.1899 0.3705-0.4754 0.3705-0.777l0.7059-4.9607c0-0.5523-0.4477-1-1-1h-24.643c-0.5523 0-1 0.4477-1 1z" fill="#3f3f3f"/><path d="m64.092 48h-2.4346v-6.1353h1.437c0.5509 0 0.9976 0.4466 0.9976 0.9976v5.1377z" fill="#ea5a47"/></g><g id="c" fill="none" stroke="#000" stroke-linecap="round" stroke-linejoin="round" stroke-miterlimit="10" stroke-width="2"><path d="m61 52.136 3.5625-0.0738h2.4375l-0.125-4.5625h-0.6875s0.625-17.625-1.75-18.5-27.688-0.5625-30.812 0-6.625-0.375-17.875 10.938l-7.75 2.5425s-1.5 0.8325-1.5625 5.2075c0 0-0.875 0.25-0.75 1.5 0.1164 1.1644-0.4721 3.4134 4.7511 3.6655"/><line x1="23.062" x2="48.438" y1="52.75" y2="52.307"/><circle cx="16.48" cy="52.292" r="3"/><circle cx="55" cy="52.292" r="3"/><path d="m13.29 44.476s-1.9647 1.6588-3.5765 1.9176"/><path d="m19.875 41.48c0.375 0.02 9.3125-0.105 9.9375-1.605s0.625-6.5 0.625-6.5"/><path d="m35.062 40.654h21.771c0.2292 0 0.4515-0.0788 0.6296-0.2231l2.1667-1.7556c0.2344-0.1899 0.3705-0.4754 0.3705-0.777v-4.9607"/><polyline points="61.658 42.849 61.658 47.599 63.116 48.048"/></g></svg>
