<svg xmlns="http://www.w3.org/2000/svg" id="a" viewBox="0 0 72 72"><g id="b"><path fill="#92d3f5" d="m63.479 49.99h0.6453c0.5523 0 1-0.4477 1-1v-2c0-0.0954-0.0706-0.1761-0.1652-0.1887l-1.7098-0.228c0-1.717 0.4975-13.863-0.9281-19.38-0.1094-0.4233-0.4944-0.7148-0.9313-0.731l-26.809 0.0071c-0.3597-0.0133-0.6988 0.1677-0.8879 0.4739l-4.4024 9.1295-16.735 1.6169c-0.3231 0.0313-0.611 0.2174-0.7721 0.4993l-3.0765 6.3838h-1.1667c-0.5522 0-1 0.4478-1 1v1.5834c0 0.5523 0.4478 1 1 1h16.521l2.8125 3.4375 27.25 0.1875v-1.8594h9.0156"/><path fill="#3f3f3f" d="m33.353 36.011h12.632s0.4678-6.8125 0-6.8125h-8.6856c-0.4107 0-0.785 0.2358-0.9633 0.6067l-2.9835 6.2058z"/><path fill="#3f3f3f" d="m7.2489 44.634v4.4597h17.438l1.8541 2.6105 29.364 0.077 2.7521-0.8588h5.8956l0.7387-4.2871-3-0.1034-1.8541-4.3601-9.2656 0.9844-2.5469 2.1666-25.876-0.1544-1.362-2.7521c-0.1764-0.3564-0.5233-0.5975-0.9189-0.6385l-6.8426-0.7652-2.878 3.742-3.498-0.1206z"/><path fill="#9b9b9a" d="m16.374 46.74c-2.2 0-4 1.8-4 4s1.8 4 4 4 4-1.8 4-4-1.8-4-4-4z"/><path fill="#9b9b9a" d="m54.499 46.74c-2.2 0-4 1.8-4 4s1.8 4 4 4 4-1.8 4-4-1.8-4-4-4z"/><path fill="#3f3f3f" stroke-linecap="round" stroke-linejoin="round" stroke-miterlimit="10" stroke-width="2" d="m63.479 31.969c0.0833 0 1.375 0.0833 1.375 0.0833s1.6666 0.9792 1.6041 5.8125c-0.0625 4.8334-1.6666 5.6875-1.6666 5.6875h-0.7917"/></g><g id="c" fill="none" stroke="#000" stroke-linecap="round" stroke-linejoin="round" stroke-width="2"><path stroke-miterlimit="10" d="m63.124 49.99h1c0.5523 0 1-0.4477 1-1v-2c0-0.0954-0.0706-0.1761-0.1652-0.1887l-1.7098-0.228c0-1.717 0.4975-13.863-0.9281-19.38-0.1094-0.4233-0.4944-0.7148-0.9313-0.731l-26.809 0.0071c-0.3597-0.0133-0.6988 0.1677-0.8879 0.4739l-4.4024 9.1295-16.735 1.6169c-0.3231 0.0313-0.611 0.2174-0.7721 0.4993l-3.0765 6.3838h-1.1667c-0.5522 0-1 0.4478-1 1v1.5834c0 0.5523 0.4478 1 1 1h1.0834"/><path stroke-miterlimit="10" d="m23.666 48.156h0.7083l1.5755 2.1707c0.1881 0.2592 0.489 0.4126 0.8093 0.4126h19.653"/><circle cx="16.374" cy="50.74" r="5"/><circle cx="54.499" cy="50.74" r="5"/><polyline stroke-miterlimit="10" points="34.186 36.511 45.999 36.511 45.999 30.156"/><polyline stroke-miterlimit="10" points="47.567 45.74 50.749 42.469 59.499 42.469"/><polyline stroke-miterlimit="10" points="14.374 41.656 21.582 41.656 23.492 44.634"/><path stroke-miterlimit="10" d="m63.479 31.969c0.0833 0 1.375 0.0833 1.375 0.0833s1.6666 0.9792 1.6041 5.8125c-0.0625 4.8334-1.6666 5.6875-1.6666 5.6875h-0.7917"/></g></svg>