<?xml version="1.0" encoding="UTF-8"?>
<svg id="a" viewBox="0 0 72 72" xmlns="http://www.w3.org/2000/svg"><g id="b"><path d="m61.336 52.959c0.5526-0.0137 0.851-1.0213 0.851-1.0213s2 0.125 2.3125-1.1875c0.0414-0.1738 0.2878-13.79-1.529-17.571-0.148-0.3081-0.4411-0.5118-0.7806-0.552-3.0415-0.3603-19.433-1.1578-32.253 0.3105 0 0-4.6406 1.2031-12.75 6.875 0 0-5.5 2.25-7.875 3.875s-2.3125 4.75-2.3125 4.75 0.25 3 0.75 3.9375c0.0763 0.1431 0.3975 1.2323 2.5817 1.2808" fill="#fff"/><path d="m64.533 48.917h-9.3181v0.8025c0 1.7924 1.453 3.2454 3.2454 3.2454h3.1061c0.985 0 1.9167-0.4473 2.5326-1.2159l0.9006-1.1238-0.4666-1.7082z" fill="#3f3f3f"/><polygon points="17.449 49.7 8.1305 49.7 8.1305 52.238 10.094 53.656 16.04 53.656 17.915 51.485" fill="#3f3f3f"/><circle cx="17.132" cy="52.702" r="3" fill="#9b9b9a" stroke-miterlimit="10" stroke-width="2"/><circle cx="55.215" cy="52.702" r="3" fill="#9b9b9a" stroke-miterlimit="10" stroke-width="2"/><path d="m33.917 35.083v6.6667l-14.167 0.3958s6.9167-7.8958 14.167-7.0625z" fill="#3f3f3f"/><path d="m14.415 45.721s0.0855-1.0781-1.2895-1.2031-3.898 1.2031-4.0386 1.5625-0.3489 1.4328 0.2812 1.625c0.6302 0.1922 5.0469-1.9844 5.0469-1.9844z" fill="#d0cfce"/><path d="m13.465 45.633s-1.9647 1.6588-3.5765 1.9176" fill="#d0cfce" stroke-linecap="round" stroke-linejoin="round" stroke-miterlimit="10" stroke-width="2"/></g><g id="c" fill="none" stroke="#000" stroke-miterlimit="10" stroke-width="2"><path d="m22.834 52.672c8.2686-0.0728 17.415-0.2643 25.334-0.4335" stroke-linecap="round" stroke-linejoin="round"/><circle cx="17.132" cy="52.702" r="3"/><circle cx="55.215" cy="52.702" r="3"/><polyline points="33.917 36.083 33.917 41.75 20.5 42.667" stroke-linecap="round" stroke-linejoin="round"/><line x1="24.083" x2="49.083" y1="49.083" y2="48.083" stroke-linecap="round" stroke-linejoin="round"/><path d="m13.465 45.633s-1.9647 1.6588-3.5765 1.9176" stroke-linecap="round" stroke-linejoin="round"/><path d="m61.336 51.959c0.5526-0.0137 0.851-0.0213 0.851-0.0213s2 0.125 2.3125-1.1875c0.0414-0.1738 0.2878-13.79-1.529-17.571-0.148-0.3081-0.4411-0.5118-0.7806-0.552-3.0415-0.3603-19.433-1.1578-32.253 0.3105 0 0-4.6406 1.2031-12.75 6.875 0 0-5.5 2.25-7.875 3.875s-2.3125 4.75-2.3125 4.75 0.25 3 0.75 3.9375c0.0763 0.1431 0.3975 0.2323 2.5817 0.2808" stroke-linecap="round" stroke-linejoin="round"/></g></svg>
