<?xml version="1.0" encoding="UTF-8"?>
<svg id="a" viewBox="0 0 72 72" xmlns="http://www.w3.org/2000/svg"><g id="b"><path d="m10.34 52.88h-4.4801c-0.5499 0-0.99-0.44-1-0.99l-0.0859-7.277c-0.0056-0.4754 0.1011-0.944 0.3129-1.3697 0.2638-0.5303 0.6003-1.2013 0.6404-1.2545 0.0577-0.0765 0.1028-0.1579 0.1358-0.248 0.1679-0.4566 0.7625-2.1888 2.1969-7.3608 1.4499-5.23 10.53-5.92 13.61-6 0.5601-0.01 1.02 0.44 1.02 1v22.5c0 0.32-0.0024 0.745-0.0024 0.745" fill="#d0cfce"/><path d="M44.625,52.19H26.1899V28.31c0-0.55,0.4501-1,1-1H66.25c0.55,0,1,0.45,1,1v21.88 c0,0.55-0.8091,1.968-1.3591,1.968L58.14,52.19" fill="#3f3f3f"/><circle cx="16.333" cy="53.25" r="3" fill="#d0cfce" stroke-miterlimit="10" stroke-width="2"/><path d="M9.8333,41l5.875,0.0208l0.125-6.8958l-3.1939,0.068c-0.4314,0.0091-0.8082,0.294-0.9347,0.7065L9.8333,41" fill="#3f3f3f"/><circle cx="57.417" cy="53.25" r="3" fill="#d0cfce" stroke-miterlimit="10" stroke-width="2"/><circle cx="48.417" cy="53.25" r="3" fill="#d0cfce" stroke-miterlimit="10" stroke-width="2"/></g><g id="c" fill="none" stroke="#000" stroke-miterlimit="10" stroke-width="2"><circle cx="16.333" cy="53.25" r="3"/><polyline points="10.75 41 15.833 41 15.833 35.083" stroke-linecap="round" stroke-linejoin="round"/><circle cx="57.417" cy="53.25" r="3"/><circle cx="48.417" cy="53.25" r="3"/><path d="m10.34 51.88h-4.4801c-0.5499 0-0.99-0.44-1-0.99l-0.0859-6.277c-0.0056-0.4754 0.1011-0.944 0.3129-1.3697 0.2638-0.5303 0.6003-1.2013 0.6404-1.2545 0.0577-0.0765 0.8983-2.4368 2.3327-7.6088 1.4499-5.23 10.53-5.92 13.61-6 0.5601-0.01 1.02 0.44 1.02 1v21.5c0 0.32-0.0024 0.745-0.0024 0.745" stroke-linecap="round" stroke-linejoin="round"/><path d="M42.625,51.19H26.1899V28.31c0-0.55,0.4501-1,1-1H66.25c0.55,0,1,0.45,1,1v21.88c0,0.55-0.45,1-1,1h-3.11" stroke-linecap="round" stroke-linejoin="round"/></g></svg>
