<svg xmlns="http://www.w3.org/2000/svg" id="a" viewBox="0 0 72 72"><g id="b" stroke-linejoin="round"><rect width="43" height="24" x="13.5" y="28.5" fill="#fcea2b" stroke="#fcea2b"/><line x1="14" x2="56" y1="47.5" y2="47.5" fill="none" stroke="#61b2e4" stroke-width="2"/><rect width="13" height="10" x="16.5" y="32.5" fill="#d0cfce" stroke="#d0cfce" stroke-linecap="round" stroke-width="2"/><rect width="13" height="10" x="40.5" y="32.5" fill="#d0cfce" stroke="#d0cfce" stroke-linecap="round" stroke-width="2"/><rect width="4" height="10" x="30.5" y="32.5" fill="#9b9b9a" stroke="#9b9b9a" stroke-linecap="round"/><rect width="4" height="10" x="35.5" y="32.5" fill="#9b9b9a" stroke="#9b9b9a" stroke-linecap="round"/></g><g id="c" stroke="#000" stroke-linecap="round" stroke-linejoin="round"><path fill="none" stroke-width="2.032" d="m14.146 29h41.708a1.146 1.146 0 0 1 1.146 1.146v21.854h-44v-21.854a1.146 1.146 0 0 1 1.146-1.146z"/><rect width="62" height="3" x="5" y="17" stroke-width="2"/><line x1="16" x2="19" y1="19" y2="25" fill="none" stroke-width="2"/><line x1="25" x2="23" y1="19" y2="25" fill="none" stroke-width="2"/><line x1="43" x2="46" y1="19" y2="25" fill="none" stroke-width="2"/><line x1="52" x2="50" y1="19" y2="25" fill="none" stroke-width="2"/><line x1="19" x2="23" y1="25" y2="25" fill="none" stroke-width="2"/><line x1="46" x2="50" y1="25" y2="25" fill="none" stroke-width="2"/><line x1="48" x2="48" y1="25" y2="28" fill="none" stroke-width="2"/><line x1="21" x2="21" y1="25" y2="28" fill="none" stroke-width="2"/><line x1="16" x2="54" y1="43" y2="43" fill="none" stroke-width="1.988"/><line x1="16" x2="16" y1="32" y2="43" fill="none" stroke-width="1.988"/><line x1="54" x2="54" y1="32" y2="43" fill="none" stroke-width="1.988"/><line x1="16" x2="54" y1="32" y2="32" fill="none" stroke-width="1.988"/><line x1="40" x2="40" y1="33" y2="42" fill="none" stroke-width="1.988"/><line x1="30" x2="30" y1="33" y2="42" fill="none" stroke-width="1.988"/><rect width="14" height="11" x="40" y="32" fill="none" stroke-width="2"/><rect width="14" height="11" x="16" y="32" fill="none" stroke-width="2"/><line x1="35" x2="35" y1="32" y2="43" fill="none" stroke-width="1.988"/><rect width="5" height="11" x="30" y="32" fill="none" stroke-width="2"/><rect width="5" height="11" x="35" y="32" fill="none"/><line x1="30" x2="30" y1="43" y2="51" fill="none" stroke-width="2"/><line x1="40" x2="40" y1="43" y2="51" fill="none" stroke-width="2"/></g></svg>