<svg xmlns="http://www.w3.org/2000/svg" id="a" version="1.1" viewBox="0 0 72 72"><g id="b"><path fill="#fff" d="m25.719 37.219s-18.657 0.1092-18.884 3.2051c-0.226 3.0959 12.148 8.6395 12.148 8.6395s0.7809 0.7927 11.647 1.303c10.866 0.5103 28.141 1.0924 28.141 1.0924l4.6809-4.3851c0.088-0.0825 0.1418-0.2035 0.1476-0.3325l0.0661-1.4563c0.0099-0.2177-0.1173-0.4093-0.3023-0.4554l-1.9028-0.4743-5.017-3.2687c-0.0459-0.0299-0.0968-0.0487-0.1496-0.0553l-30.575-3.8124z"/><path fill="#92D3F5" d="m45.734 39.715s-6.8479-5.3894-15.021-6.2024c-0.0867-0.0086-0.1747 0.0159-0.2494 0.0692l-5.1414 3.6651 20.412 2.4681z"/><path fill="none" stroke="#EA5A47" stroke-linecap="round" stroke-linejoin="round" stroke-miterlimit="10" stroke-width="1.86" d="m13.872 41.048s24.987 2.43 42.391 5.4447"/><path fill="#92D3F5" d="M68,47v22H4V47h1c3,0,9,3,15,3s10-3,16-3s11,3,16,3s7-3,15-3H68z"/><polyline fill="none" points="68 39.021 68 55.021 4 55.021 4 39.021"/></g><g id="c" fill="none" stroke="#000" stroke-linecap="round" stroke-linejoin="round" stroke-miterlimit="10"><path stroke-width="1.86" d="m63.452 47.074c0.088-0.0825 0.1418-0.2035 0.1476-0.3325l0.0661-1.4563c0.0099-0.2177-0.1173-0.4093-0.3023-0.4554l-1.9028-0.4743-5.017-3.2687c-0.0459-0.0299-0.0968-0.0487-0.1496-0.0553l-30.575-3.8124s-18.657 0.1092-18.884 3.2051c-0.226 3.0959 12.148 8.6395 12.148 8.6395s0.3095 0.3142 3.25 0.6743"/><path stroke-width="1.86" d="m45.734 39.715s-6.8479-5.3894-15.021-6.2024c-0.0867-0.0086-0.1747 0.0159-0.2494 0.0692l-5.1414 3.6651 20.412 2.4681z"/><path stroke-width="2" d="m5 47c3 0 9 3 15 3s10-3 16-3 11 3 16 3 7-3 15-3"/></g></svg>