<?xml version="1.0" encoding="UTF-8"?>
<svg id="a" viewBox="0 0 72 72" xmlns="http://www.w3.org/2000/svg"><g id="b" fill="#a57939"><circle cx="33.505" cy="21.785" r="3"/><path d="m44.804 31.458c-3.8131-0.9532-10.581-3.05-14.299-3.813-4.7664-0.9533-9.5327 10.486-9.5327 10.486h7.6261l4.29-7.4355 9.7234 2.0972"/></g><g id="c"><path d="M55.29,45.757l7.6262-7.9121-20.972-.6673H31.4582L5.72,38.4168l5.72,7.34,5.72,2.0972L25.548,46.52l8.77-1.7159,6.8636,1.144L49.57,47.6636Z" fill="#d0cfce"/><path d="m64.823 44.804c-7.6261 0-10.486 2.86-15.252 2.86s-9.5327-2.86-15.252-2.86-9.5327 2.86-15.252 2.86-12.392-2.86-15.252-2.86v12.106c0 1.3346 1.3346 7.9121 6.6729 7.9121h48.712c5.529 0 5.6243-5.5289 5.6243-10.009z" fill="#92d3f5"/><path d="M23.8321,46.71s2.9551-2.0972,3.8131-2.86a8.3129,8.3129,0,0,1,4.7663-1.9066L44.804,31.4579l.7626-.6672s.858,1.5252.572,2.0972-5.8149,4.957-5.8149,4.957L34.318,43.1832l.286,2.0018-8.8654,1.2393Z" fill="#a57939"/></g><g id="d" fill="none" stroke="#000" stroke-linecap="round" stroke-linejoin="round" stroke-width="2"><path d="m11.44 45.757-5.72-7.34 25.738-0.2859"/><path d="m4.7669 44.804c2.86 0 8.58 2.86 14.299 2.86s9.5327-2.86 15.252-2.86 10.486 2.86 15.252 2.86 6.6729-2.86 14.299-2.86"/><path d="m23.832 46.71s2.9552-2.0972 3.8131-2.86a8.3133 8.3133 0 0 1 4.7664-1.9066l12.392-10.485"/><path d="M54.337,46.71l8.5795-8.8654-20.972.286"/><circle cx="33.365" cy="21.925" r="3"/><path d="m44.804 31.458c-3.8131-0.9532-10.581-3.05-14.299-3.813-4.7664-0.9533-9.5327 10.486-9.5327 10.486"/><path d="m28.598 38.131 3.8131-6.6729"/></g></svg>
