<?xml version="1.0" encoding="UTF-8"?>
<svg id="a" viewBox="0 0 72 72" xmlns="http://www.w3.org/2000/svg"><g id="b"><path d="m60 61h-48c-0.5523 0-1-0.4477-1-1v-48c0-0.5523 0.4477-1 1-1h48c0.5523 0 1 0.4477 1 1v48c0 0.5523-0.4477 1-1 1z" fill="#61b2e4" stroke-linecap="round" stroke-linejoin="round" stroke-miterlimit="10" stroke-width="2"/><polyline points="33.963 43.459 32.896 58.403 24.896 58.403 23.828 43.459" fill="#fff"/><path d="m31.231 41.195s-5.6067 0.3386-5.7333 0.411c-0.1267 0.0725 1.1619-1.6144 0.9723-3.4846 0 0 3.0416 1.0383 5.8834-0.5198l-1.1224 3.5934z" fill="#fff" stroke-linecap="round" stroke-linejoin="round" stroke-miterlimit="10" stroke-width="1.8266"/><path d="m42.626 25.643s-0.5443 3.9503-2.9983 6.9077c-0.5911 0.7122-2.7561 2.0885-3.3567 2.34-2.25 0.9423-4.4827-0.1479-4.4827-0.1479l5.9378-3.6298 1.8399-5.32 3.06-0.15z" fill="#fff"/><path d="m52.676 41.284-0.6535-16.041c-0.0946-1.8972-1.6166-3.3911-3.4733-3.4092h-4.9512c-1.8567 0.0181-3.3787 1.512-3.4733 3.4092l1.1038 2.0442c-0.0048 0.1074 0.1508 0.6019 0.1076 0.6998l0.4657 11.93-0.7693 18.245c-0.0269 0.2599 0.2184 0.5377 0.377 0.7427 0.0313 0.0399 0.076 0.0664 0.1255 0.0743 0.1765 0 0.5421-0.3529 0.6073-0.9287l2.0977-18.595c0.0442-0.3814 0.1421-0.7542 0.2904-1.1069l0.812-0.5142h1.341l0.5979 0.6645c0.1269 0.325 0.2916 0.6363 0.3324 0.9838l2.3919 18.57c0.0652 0.5766 0.43 0.9287 0.6065 0.9287 0.0494-0.0079 0.0942-0.0344 0.1255-0.0743 0.1587-0.2049 0.2328-0.4652 0.2063-0.7253l-0.5889-18.264 2.4208 1.7283c-0.0598-0.1107-0.094-0.2341-0.0998-0.3605z" fill="#fff"/><circle cx="45.992" cy="16.51" r="2.3752" fill="#fff"/></g><g id="c" fill="none" stroke="#000"><path d="m60 61h-48c-0.5523 0-1-0.4477-1-1v-48c0-0.5523 0.4477-1 1-1h48c0.5523 0 1 0.4477 1 1v48c0 0.5523-0.4477 1-1 1z" stroke-linecap="round" stroke-linejoin="round" stroke-miterlimit="10" stroke-width="2"/><polyline points="33.896 44.403 32.896 58.403 24.896 58.403 23.896 44.403" stroke-linecap="round" stroke-linejoin="round" stroke-miterlimit="10" stroke-width="2"/><path d="m31.231 41.195s-5.6067 0.3386-5.7333 0.411c-0.1267 0.0725 1.1619-1.6144 0.9723-3.4846 0 0 3.0416 1.0383 5.8834-0.5198l-1.1224 3.5934z" stroke-linecap="round" stroke-linejoin="round" stroke-miterlimit="10" stroke-width="1.8266"/><circle cx="45.992" cy="16.51" r="2.3752" stroke-miterlimit="10" stroke-width="2"/><path d="m50.017 26.861 1.52 30.4c0.044 0.88-0.46 1.6-1.12 1.6-0.7812-0.1321-1.3603-0.7976-1.3832-1.5896l-2.0312-17.625c-0.1008-0.8744-0.5431-1.5896-0.9832-1.5896-0.44 0-0.88 0.7152-0.9832 1.5896l-2.0336 17.625c-0.0228 0.792-0.602 1.4575-1.3832 1.5896-0.66 0-1.1639-0.72-1.12-1.6l1.52-30.4" stroke-linecap="round" stroke-linejoin="round" stroke-width="2"/><path d="m32.146 33.833s3.9208-1.4164 5-3c1.0447-1.5328 4.2447-8.9751 6.4715-9h4.8c2.2268 0.0249 4.0509 1.7761 4.1664 4l0.6336 15.2" stroke-linecap="round" stroke-linejoin="round" stroke-width="2"/></g></svg>
