<svg xmlns="http://www.w3.org/2000/svg" id="a" viewBox="0 0 72 72"><g id="b" stroke-linecap="round" stroke-linejoin="round" stroke-miterlimit="10" stroke-width="2"><path fill="#fff" d="m66.988 42.18h-61.975c-0.5568 0-1.0124-0.4556-1.0124-1.0125v-7.6418c0-0.5568 0.4556-1.0124 1.0124-1.0124h61.975c0.5568 0 1.0125 0.4556 1.0125 1.0124v7.6418c0 0.5569-0.4556 1.0125-1.0125 1.0125z"/><path fill="#f4aa41" d="m67 42.18h-16.875c-0.55 0-1-0.45-1-1v-7.6667c0-0.55 0.45-1 1-1h16.875c0.55 0 1 0.45 1 1v7.6667c0 0.55-0.45 1-1 1z"/><path fill="#9b9b9a" d="m10.007 42.18h-5.0136c-0.5463 0-0.9932-0.447-0.9932-0.9932v-7.6803c0-0.5463 0.4469-0.9932 0.9932-0.9932h5.0136c0.5463 0 0.9932 0.4469 0.9932 0.9932v7.6803c0 0.5462-0.4469 0.9932-0.9932 0.9932z"/></g><g id="c" fill="none" stroke="#000" stroke-linecap="round" stroke-linejoin="round" stroke-miterlimit="10" stroke-width="2"><path d="m66.988 42.18h-61.975c-0.5568 0-1.0124-0.4556-1.0124-1.0125v-7.6418c0-0.5568 0.4556-1.0124 1.0124-1.0124h61.975c0.5568 0 1.0125 0.4556 1.0125 1.0124v7.6418c0 0.5569-0.4556 1.0125-1.0125 1.0125z"/><path d="m67 42.18h-16.875c-0.55 0-1-0.45-1-1v-7.6667c0-0.55 0.45-1 1-1h16.875c0.55 0 1 0.45 1 1v7.6667c0 0.55-0.45 1-1 1z"/><path d="m10.007 42.18h-5.0136c-0.5463 0-0.9932-0.447-0.9932-0.9932v-7.6803c0-0.5463 0.4469-0.9932 0.9932-0.9932h5.0136c0.5463 0 0.9932 0.4469 0.9932 0.9932v7.6803c0 0.5462-0.4469 0.9932-0.9932 0.9932z"/></g></svg>