<?xml version="1.0" encoding="UTF-8"?>
<svg id="a" viewBox="0 0 72 72" xmlns="http://www.w3.org/2000/svg"><g id="b" stroke-miterlimit="10"><path d="m54.09 46.91h-36c-3.85 0-7-3.15-7-7v-8c0-3.85 3.15-7 7-7h36c3.85 0 7 3.15 7 7v8c0 3.85-3.15 7-7 7z" fill="#d0cfce"/><circle cx="21.618" cy="35.91" r="5.0001" fill="#b1cc33"/><circle cx="35.618" cy="35.91" r="5.0001" fill="#f4aa41"/><circle cx="50.618" cy="35.91" r="5.0001" fill="#ea5a47"/></g><g id="c" fill="none" stroke="#000" stroke-miterlimit="10"><path d="m54.09 46.91h-36c-3.85 0-7-3.15-7-7v-8c0-3.85 3.15-7 7-7h36c3.85 0 7 3.15 7 7v8c0 3.85-3.15 7-7 7z"/><circle cx="21.618" cy="35.91" r="5.0001"/><circle cx="35.618" cy="35.91" r="5.0001"/><circle cx="50.618" cy="35.91" r="5.0001"/><path d="m53.91 46.91h-36c-3.85 0-7-3.15-7-7v-8c0-3.85 3.15-7 7-7h36c3.85 0 7 3.15 7 7v8c0 3.85-3.15 7-7 7z" stroke-linecap="round" stroke-linejoin="round" stroke-width="2"/><circle cx="21.438" cy="35.91" r="5.0001" stroke-linecap="round" stroke-linejoin="round" stroke-width="2"/><circle cx="35.438" cy="35.91" r="5.0001" stroke-linecap="round" stroke-linejoin="round" stroke-width="2"/><circle cx="50.438" cy="35.91" r="5.0001" stroke-linecap="round" stroke-linejoin="round" stroke-width="2"/></g></svg>
