<svg xmlns="http://www.w3.org/2000/svg" id="a" viewBox="0 0 72 72"><g id="b" fill="#a57939"><circle cx="33.505" cy="21.785" r="3"/><path d="m44.804 31.458c-3.8131-0.9532-10.581-3.05-14.299-3.813-4.7663-0.9533-9.5327 10.486-9.5327 10.486h7.6262l4.29-7.4355 9.7234 2.0972"/></g><g id="c"><path fill="#d0cfce" d="M55.29,45.757l7.6261-7.9121-20.9719-.6673H31.4581L5.72,38.4168l5.72,7.34,5.72,2.0972L25.5478,46.52l8.77-1.7159,6.8636,1.144L49.57,47.6636Z"/><path fill="#92d3f5" d="m64.823 44.804c-7.6262 0-10.486 2.86-15.252 2.86s-9.5327-2.86-15.252-2.86-9.5327 2.86-15.252 2.86-12.393-2.86-15.252-2.86v12.106c0 1.3346 1.3346 7.9121 6.6729 7.9121h48.712c5.5289 0 5.6243-5.5289 5.6243-10.009z"/><path fill="#a57939" d="M23.8319,46.71s2.9552-2.0972,3.8131-2.86a8.3133,8.3133,0,0,1,4.7664-1.9066l12.3925-10.486.7626-.6672s.8579,1.5252.572,2.0972-5.815,4.957-5.815,4.957l-6.0056,5.3383.286,2.0018-8.8654,1.2393Z"/></g><g id="d" fill="none" stroke="#000" stroke-linecap="round" stroke-linejoin="round" stroke-width="2"><path d="m11.439 45.757-5.72-7.34 25.738-0.2859"/><path d="m4.7665 44.804c2.86 0 8.5794 2.86 14.299 2.86s9.5327-2.86 15.252-2.86 10.486 2.86 15.252 2.86 6.6729-2.86 14.299-2.86"/><path d="m23.832 46.71s2.9552-2.0972 3.8131-2.86a8.3133 8.3133 0 0 1 4.7664-1.9066l12.392-10.485"/><path d="m54.337 46.71 8.5794-8.8654-20.972 0.286"/><circle cx="33.365" cy="21.925" r="3"/><path d="m44.804 31.458c-3.8131-0.9532-10.581-3.05-14.299-3.813-4.7663-0.9533-9.5327 10.486-9.5327 10.486"/><path d="m28.598 38.131 3.8131-6.6729"/><path d="M29.9286,19.5309s-.47-.4613-.9055-.3015c-.5128.1872-1.2172,1.3184-1.8741,1.6829a3.3629,3.3629,0,0,1-2.1313.4173"/></g></svg>