<svg xmlns="http://www.w3.org/2000/svg" id="a" version="1.1" viewBox="0 0 72 72"><g id="b"><path fill="#3F3F3F" d="m40.688 27.031c0-0.3452-0.3498-0.625-0.7812-0.625h-7.8125c-0.4315 0-0.7813 0.2798-0.7813 0.625v0.9375h9.375v-0.9375z"/><path fill="#B1CC33" d="m58.656 58.828h-45.312c-1.2891 0-2.3438-1.0547-2.3438-2.3437v-26.562c0-1.2891 1.0547-2.3438 2.3438-2.3438h45.312c1.289 0 2.3437 1.0547 2.3437 2.3438v26.562c0 1.289-1.0547 2.3437-2.3437 2.3437z"/><path fill="#3F3F3F" d="M20.375,33.2c0-1.1412-1.0547-2.075-2.3437-2.075H11v8.6458h9.375V33.2z"/><path fill="#9B9B9A" d="M11,39.7708v8.6459h7.0313c1.289,0,2.3437-0.9338,2.3437-2.075v-6.5709H11z"/><path fill="#9B9B9A" d="M51.625,39.7708v6.5709c0,1.1412,1.0547,2.075,2.3438,2.075H61v-8.6459H51.625z"/><path fill="#3F3F3F" d="M61,31.125h-7.0312c-1.2891,0-2.3438,0.9338-2.3438,2.075v6.5708H61V31.125z"/><rect width="50" height="3.872" x="11" y="51.75" fill="#5C9E31"/><path fill="#9B9B9A" d="m24.281 38.906v5.5581c0 1.2278 1.0492 2.2232 2.3437 2.2232h4.6875c1.2945 0 2.3438-0.9954 2.3438-2.2232v-5.5581h-9.375z"/><path fill="#3F3F3F" d="m33.656 33.348c0-1.2278-1.0493-2.2232-2.3438-2.2232h-4.6875c-1.2945 0-2.3437 0.9954-2.3437 2.2232v5.558h9.375v-5.558z"/><path fill="#3F3F3F" d="m33.656 33.348c0-1.2278-1.0493-2.2232-2.3438-2.2232h-4.6875c-1.2945 0-2.3437 0.9954-2.3437 2.2232v5.558h9.375v-5.558z"/><path fill="#3F3F3F" d="m47.719 33.348c0-1.2278-1.0493-2.2232-2.3438-2.2232h-4.6875c-1.2945 0-2.3437 0.9954-2.3437 2.2232v5.558h9.375v-5.558z"/><path fill="#9B9B9A" d="m38.344 38.906v5.5581c0 1.2278 1.0492 2.2232 2.3437 2.2232h4.6875c1.2945 0 2.3438-0.9954 2.3438-2.2232v-5.5581h-9.375z"/><circle cx="33.951" cy="11.956" r="2" fill="#9B9B9A"/><circle cx="38.719" cy="13.625" r="2" fill="#9B9B9A"/></g><g id="c" fill="none" stroke="#000" stroke-miterlimit="10" stroke-width="2"><line x1="36" x2="36" y1="26.406" y2="12.875" stroke-linecap="round" stroke-linejoin="round"/><path stroke-linecap="round" stroke-linejoin="round" d="m51.62 33.2c0-1.14 1.06-2.07 2.35-2.07h7.03v-1.21c0-1.29-1.05-2.34-2.34-2.34h-45.32c-1.29 0-2.34 1.05-2.34 2.34v1.21h7.03c1.29 0 2.35 0.93 2.35 2.07v13.14c0 1.14-1.06 2.08-2.35 2.08h-7.03v3.33h50v-3.33h-7.03c-1.29 0-2.35-0.94-2.35-2.08v-13.14zm-17.96 11.26c0 1.23-1.05 2.23-2.35 2.23h-4.69c-1.29 0-2.34-1-2.34-2.23v-11.11c0-1.23 1.05-2.22 2.34-2.22h4.69c1.3 0 2.35 0.99 2.35 2.22v11.11zm14.06 0c0 1.23-1.05 2.23-2.34 2.23h-4.69c-1.3 0-2.35-1-2.35-2.23v-11.11c0-1.23 1.05-2.22 2.35-2.22h4.69c1.29 0 2.34 0.99 2.34 2.22v11.11z"/><path stroke-linecap="round" stroke-linejoin="round" d="m40.69 27.03v0.55h-9.38v-0.55c0-0.34 0.35-0.62 0.78-0.62h7.82c0.43 0 0.78 0.28 0.78 0.62z"/><path stroke-linecap="round" stroke-linejoin="round" d="m18.03 48.42h-7.03v-17.29h7.03c1.29 0 2.35 0.93 2.35 2.07v13.14c0 1.14-1.06 2.08-2.35 2.08z"/><path stroke-linecap="round" stroke-linejoin="round" d="m24.28 44.46v-11.11c0-1.23 1.05-2.22 2.34-2.22h4.69c1.3 0 2.35 0.99 2.35 2.22v11.11c0 1.23-1.05 2.23-2.35 2.23h-4.69c-1.29 0-2.34-1-2.34-2.23z"/><path stroke-linecap="round" stroke-linejoin="round" d="m38.34 44.46v-11.11c0-1.23 1.05-2.22 2.35-2.22h4.69c1.29 0 2.34 0.99 2.34 2.22v11.11c0 1.23-1.05 2.23-2.34 2.23h-4.69c-1.3 0-2.35-1-2.35-2.23z"/><path stroke-linecap="round" stroke-linejoin="round" d="m61 31.13v17.29h-7.03c-1.29 0-2.35-0.94-2.35-2.08v-13.14c0-1.14 1.06-2.07 2.35-2.07h7.03z"/><path stroke-linecap="round" stroke-linejoin="round" d="m11 51.75h50v4.73c0 1.29-1.05 2.35-2.34 2.35h-45.32c-1.29 0-2.34-1.06-2.34-2.35v-4.73z"/><path stroke-linecap="round" stroke-linejoin="round" d="m20.38 33.2v6.57h-9.38v-8.64h7.03c1.29 0 2.35 0.93 2.35 2.07z"/><path stroke-linecap="round" stroke-linejoin="round" d="m20.38 39.77v6.57c0 1.14-1.06 2.08-2.35 2.08h-7.03v-8.65h9.38z"/><path stroke-linecap="round" stroke-linejoin="round" d="m61 39.77v8.65h-7.03c-1.29 0-2.35-0.94-2.35-2.08v-6.57h9.38z"/><path stroke-linecap="round" stroke-linejoin="round" d="m61 31.13v8.64h-9.38v-6.57c0-1.14 1.06-2.07 2.35-2.07h7.03z"/><rect width="50" height="3.87" x="11" y="51.75" stroke-linecap="round" stroke-linejoin="round"/><path stroke-linecap="round" stroke-linejoin="round" d="m33.66 38.91v5.55c0 1.23-1.05 2.23-2.35 2.23h-4.69c-1.29 0-2.34-1-2.34-2.23v-5.55h9.38z"/><path stroke-linecap="round" stroke-linejoin="round" d="m33.66 33.35v5.56h-9.38v-5.56c0-1.23 1.05-2.22 2.34-2.22h4.69c1.3 0 2.35 0.99 2.35 2.22z"/><path stroke-linecap="round" stroke-linejoin="round" d="m33.66 33.35v5.56h-9.38v-5.56c0-1.23 1.05-2.22 2.34-2.22h4.69c1.3 0 2.35 0.99 2.35 2.22z"/><path stroke-linecap="round" stroke-linejoin="round" d="m47.72 33.35v5.56h-9.38v-5.56c0-1.23 1.05-2.22 2.35-2.22h4.69c1.29 0 2.34 0.99 2.34 2.22z"/><path stroke-linecap="round" stroke-linejoin="round" d="m47.72 38.91v5.55c0 1.23-1.05 2.23-2.34 2.23h-4.69c-1.3 0-2.35-1-2.35-2.23v-5.55h9.38z"/><path stroke-linecap="round" stroke-linejoin="round" d="m40.72 13.63c0 0.04 0 0.08-0.0099 0.12-0.06 1.05-0.93 1.88-1.9901 1.88-1.11 0-2-0.9-2-2 0-0.32 0.07-0.62 0.21-0.88 0.31-0.66 1-1.12 1.79-1.12 1.1 0 2 0.89 2 2z"/><line x1="36.93" x2="35.88" y1="12.75" y2="12.47" stroke-linecap="round" stroke-linejoin="round"/><line x1="68" x2="40.71" y1="21" y2="13.75" stroke-linecap="round" stroke-linejoin="round"/><line x1="32.02" x2="4" y1="11.44" y2="4" stroke-linecap="round" stroke-linejoin="round"/><path d="m35.95 11.96c0 0.18-0.02 0.35-0.07 0.51-0.22 0.86-1 1.49-1.93 1.49-1.1 0-2-0.9-2-2 0-0.18 0.02-0.36 0.07-0.52 0.23-0.86 1.01-1.48 1.93-1.48 1.11 0 2 0.89 2 2z"/></g></svg>