<?xml version="1.0" encoding="UTF-8"?>
<svg id="a" viewBox="0 0 72 72" xmlns="http://www.w3.org/2000/svg"><g id="b"><polygon points="58 48 66 39.7 44 39 33 39 6 40.3 12 48 18 50.167 26.833 48.75 36 47 43.167 48.167 52 50" fill="#D0CFCE"/><path d="m67.958 46.958c-8 0-10.958 3.042-15.958 3.042s-10-3-16-3-10 3-16 3-13-3-16-3v12.666c0 1.416 1.4189 8.334 7 8.334h24.98 26.104c5.832 0 5.876-5.834 5.876-10.522 0-2.666-1e-3 -10.52-1e-3 -10.52z" fill="#92D3F5"/><path d="m25 49s3.0557-2.1807 4-3c2.1367-1.8535 5-2 5-2l13-11 0.75-0.666s0.916 1.582 0.582 2.249-6.082 5.167-6.082 5.167l-6.334 5.583 0.251 2.084-9.334 1.333-1.833 0.25z" fill="#A57939"/></g><g id="c" fill="#FCEA2B"><circle cx="35" cy="23" r="3"/><path d="m47 33c-4-1-11.1-3.2002-15-4-5-1-10 11-10 11h8l4.5039-7.791 10.166 2.166"/></g><g id="d" fill="none" stroke="#000" stroke-linecap="round" stroke-linejoin="round" stroke-miterlimit="10" stroke-width="2"><polyline points="12 48 6 40.3 33 40"/><circle cx="35" cy="23" r="3"/><path d="m47 33c-4-1-11.1-3.2002-15-4-5-1-10 11-10 11"/><line x1="30" x2="34" y1="40" y2="33"/><path d="m5 47c3 0 9 3 15 3s10-3 16-3 11 3 16 3 7-3 15-3"/><path d="m25 49s3.0557-2.1807 4-3c2.1367-1.8535 5-2 5-2l13-11"/><polyline points="56.978 49 66 39.7 44 40"/></g></svg>
