<?xml version="1.0" encoding="UTF-8"?>
<svg id="a" viewBox="0 0 72 72" xmlns="http://www.w3.org/2000/svg"><g id="b"><path d="m21.4 51v-15a14.958 14.958 0 0 1 14.9-15 15.089 15.089 0 0 1 14.9 15v15" fill="#ea5a47"/><path d="m21.4 51h30a4.9514 4.9514 0 0 1 5 5 4.9514 4.9514 0 0 1-5 5h-30a4.9514 4.9514 0 0 1-5-5 4.9514 4.9514 0 0 1 5-5z" fill="#d0cfce"/><path d="m51.4 36a14.938 14.938 0 0 0-14.8-15 14.706 14.706 0 0 0-4.2 0.6c9.4 3.8 10.3 23.2 10.4 29.4h8.7v-15z" fill="#d22f27"/></g><g id="c" fill="none" stroke="#000" stroke-linecap="round" stroke-linejoin="round" stroke-width="2"><line x1="17.8" x2="13.1" y1="23.5" y2="18.8"/><line x1="54.1" x2="58.8" y1="23.5" y2="18.8"/><line x1="36.4" x2="36.4" y1="14" y2="8"/><path d="m21.4 51v-15a14.958 14.958 0 0 1 14.9-15 15.089 15.089 0 0 1 14.9 15v15"/><path d="m21.1 51h30.5a4.8011 4.8011 0 0 1 4.8 4.8 4.8011 4.8011 0 0 1-4.8 4.8h-30.5a4.8011 4.8011 0 0 1-4.8-4.8 4.9353 4.9353 0 0 1 4.8-4.8z"/></g></svg>
