<svg xmlns="http://www.w3.org/2000/svg" id="a" viewBox="0 0 72 72"><g id="b"><path fill="#fcea2b" d="m59.474 32.473a5.0709 5.0709 0 0 1 0 7.1632l-20.047 20.047a5.0709 5.0709 0 0 1-7.1632 0l-20.047-20.047a5.0709 5.0709 0 0 1 0-7.1632l20.047-20.047a5.071 5.071 0 0 1 7.1633 0l20.047 20.047"/></g><g id="c"><path d="m59.035 32.456a4.9434 4.9434 0 0 1 0 6.9833l-19.544 19.544a4.9435 4.9435 0 0 1-6.9833 0l-19.543-19.544a4.9434 4.9434 0 0 1 0-6.9833l19.543-19.544a4.9437 4.9437 0 0 1 6.9834 0l19.543 19.544zm1.4738-1.4737-19.544-19.544a7.0222 7.0222 0 0 0-9.9308 0l-19.544 19.544a7.0222 7.0222 0 0 0 0 9.9307l19.544 19.544a7.0221 7.0221 0 0 0 9.9307 0l19.544-19.544a7.0222 7.0222 0 0 0 0-9.9307z"/><circle cx="29.821" cy="25.573" r="2.31" fill="none" stroke="#000" stroke-miterlimit="10" stroke-width="2"/><path fill="none" stroke="#000" stroke-linecap="round" stroke-linejoin="round" stroke-width="2" d="M25.8191,46.3319l3.4833-7.0075c-1.1148-2.5068-.9061-7.9142,0-8.8008.231-.2994,1.5794-1.4679,1.8826,2.0967l.8543,5.3663"/><line x1="32.916" x2="31.964" y1="46.421" y2="41.326" fill="none" stroke="#000" stroke-linecap="round" stroke-linejoin="round" stroke-width="2"/><line x1="28.522" x2="25.464" y1="33.244" y2="36.137" fill="none" stroke="#000" stroke-linecap="round" stroke-linejoin="round" stroke-width="2"/><circle cx="42.18" cy="25.573" r="2.31" fill="none" stroke="#000" stroke-miterlimit="10" stroke-width="2"/><path fill="none" stroke="#000" stroke-linecap="round" stroke-linejoin="round" stroke-width="2" d="M38.178,46.3319l3.4833-7.0075c-1.1148-2.5068-.9061-7.9142,0-8.8008.231-.2994,1.5794-1.4679,1.8826,2.0967l.8543,5.3663"/><line x1="45.275" x2="44.323" y1="46.421" y2="41.326" fill="none" stroke="#000" stroke-linecap="round" stroke-linejoin="round" stroke-width="2"/><line x1="40.881" x2="37.823" y1="33.244" y2="36.137" fill="none" stroke="#000" stroke-linecap="round" stroke-linejoin="round" stroke-width="2"/></g></svg>