<svg xmlns="http://www.w3.org/2000/svg" id="a" viewBox="0 0 72 72"><g id="b" fill="#c19a65"><circle cx="32.793" cy="10.581" r="2.86"/><path d="m32.793 19.923 1.9066-2.7645 3.6224 0.0953 6.0056 13.441-2.0019 3.6225-2.3832 2.3831-2.9551 10.677-3.2411 6.3869-2.2879-1.9066 0.858-6.7682-3.6225-6.6729 0.0954-3.1458 7.6261-4.7663-2.6691-7.15"/></g><g id="c" fill="none" stroke="#000" stroke-width="2"><circle cx="19.161" cy="49.57" r="9.723" stroke-miterlimit="10"/><circle cx="49.666" cy="49.57" r="9.723" stroke-miterlimit="10"/><path stroke-linecap="round" stroke-linejoin="round" d="m19.257 49.57 1.9066-22.878h3.6224"/><circle cx="32.793" cy="10.581" r="3" stroke-miterlimit="10"/><path stroke-linecap="round" stroke-linejoin="round" d="M25.0713,26.7869,29.17,24.0224A11.8183,11.8183,0,0,0,31.84,21.3533l1.8113-2.5739a3.9415,3.9415,0,0,1,2.9551-1.5252A3.0555,3.0555,0,0,1,39.18,19.0654l4.3851,10.0094a4.7412,4.7412,0,0,1-.0954,3.4317l-.0953.1907A5.875,5.875,0,0,1,40.705,35.08l-5.243,2.2878a1.9349,1.9349,0,0,0-1.0486,2.4785l2.4785,6.101a2.2847,2.2847,0,0,1-.6673,2.6691,1.73,1.73,0,0,1-2.3832-.7626L29.647,40.0374a8.65,8.65,0,0,1-.8579-3.2411,3.6664,3.6664,0,0,1,1.62-2.5739l4.3851-2.7645a2.7844,2.7844,0,0,0,1.1439-2.86l-1.43-5.72"/><path stroke-miterlimit="10" d="m36.225 48.617-0.9533 2.9552a2.6607 2.6607 0 0 1-2.2878 1.8112 1.6224 1.6224 0 0 1-1.5253-1.9066l0.858-6.3869"/><path stroke-miterlimit="10" d="m40.419 35.176-3.4318 10.963"/></g></svg>