<svg xmlns="http://www.w3.org/2000/svg" id="a" viewBox="0 0 72 72"><g id="b" fill="#a57939" stroke="#a57939"><circle cx="34.386" cy="11.062" r="2.969"/><polyline points="34.386 20.925 36.417 18 40.25 18.084 46.457 32.234 44.417 36 41.89 38.514 38.77 49.668 35.364 56.418 32.96 54.381 33.879 47.303 30.108 40.326 30.205 37 38.25 32 35.364 24.5"/></g><g id="c" fill="none" stroke="#000" stroke-miterlimit="10" stroke-width="2"><circle cx="34.386" cy="11.062" r="2.969"/><path stroke-linecap="round" stroke-linejoin="round" d="m26.333 28.083 4.2705-2.9473c0.9053-0.6245 2.1602-1.875 2.7871-2.7783l1.8858-2.7148c0.6269-0.9033 2.0029-1.6236 3.0576-1.6006 1.0537 0.0229 2.2773 0.8662 2.7197 1.8735l4.5996 10.487c0.4424 1.0079 0.375 2.6231-0.1494 3.5909l-0.1338 0.248c-0.5244 0.9678-1.7803 2.1143-2.79 2.5498l-5.4922 2.3633c-1.0098 0.4355-1.4922 1.6221-1.0713 2.6387l2.6348 6.3593c0.4209 1.0166 0.0908 2.2979-0.7344 2.8477s-1.9277 0.208-2.4512-0.7598l-4.4062-8.1543c-0.5235-0.9677-0.9297-2.5078-0.9033-3.4228 0.0273-0.9151 0.8134-2.1377 1.747-2.7188l4.6485-2.8886c0.9336-0.5811 1.4795-1.9287 1.2128-2.9961l-1.5146-6.0596"/><circle cx="20.084" cy="52" r="10.166"/><circle cx="52.084" cy="52" r="10.166"/><polyline stroke-linecap="round" stroke-linejoin="round" points="20.25 52 22.25 28 26 28"/><path d="m37.978 50.959-0.9844 3.1328c-0.33 1.0498-1.4199 1.9082-2.4218 1.9082-1.002 0-1.7071-0.8926-1.5655-1.9834l0.8692-6.7178"/><line x1="42.407" x2="38.77" y1="36.865" y2="48.44"/></g></svg>