<svg xmlns="http://www.w3.org/2000/svg" id="a" viewBox="0 0 72 72"><g id="b"><path fill="#61b2e4" stroke-linecap="round" stroke-linejoin="round" stroke-miterlimit="10" stroke-width="2" d="m60 61.021h-48c-0.5523 0-1-0.4477-1-1v-48c0-0.5523 0.4477-1 1-1h48c0.5523 0 1 0.4477 1 1v48c0 0.5523-0.4477 1-1 1z"/><path fill="#fff" d="m26.448 45.396 2.1368 10.319 9.6236 0.0556 2.1146-10.167s-7-4.375-14.083-0.2083"/><path fill="#fff" stroke-linecap="round" stroke-linejoin="round" stroke-miterlimit="10" stroke-width="2" d="m58.5 24.681v4.87c0 0.56-0.45 1-1 1h-16.88c-2.84 0-3.51 2.46-3.66 3.83-0.06 0.5-0.48 0.88-0.99 0.88h-5.02c-0.55 0-0.99-0.43-1-0.9801-0.0101-2.7999 0.82-10.6 10.63-10.6h5.1699v-4.45h-4.75v-3.21h13.25v3.21h-4.75v4.45h8c0.55 0 1 0.45 1 1z"/></g><g id="c" fill="none" stroke="#000" stroke-linecap="round" stroke-linejoin="round" stroke-miterlimit="10" stroke-width="2"><path d="m60 61.021h-48c-0.5523 0-1-0.4477-1-1v-48c0-0.5523 0.4477-1 1-1h48c0.5523 0 1 0.4477 1 1v48c0 0.5523-0.4477 1-1 1z"/><polyline points="24.333 34.818 28.262 55.771 38.738 55.771 42.667 34.818"/><path d="m26.734 45.045s6.5477-2.619 13.095 0"/><path d="m58.5 24.681v4.87c0 0.56-0.45 1-1 1h-16.88c-2.84 0-3.51 2.46-3.66 3.83-0.06 0.5-0.48 0.88-0.99 0.88h-5.02c-0.55 0-0.99-0.43-1-0.9801-0.0101-2.7999 0.82-10.6 10.63-10.6h5.1699v-4.45h-4.75v-3.21h13.25v3.21h-4.75v4.45h8c0.55 0 1 0.45 1 1z"/></g></svg>