<?xml version="1.0" encoding="UTF-8"?>
<svg id="a" viewBox="0 0 72 72" xmlns="http://www.w3.org/2000/svg"><g id="b" fill="#fadcbc"><circle cx="32.793" cy="10.581" r="2.8598"/><path d="m32.793 19.923 1.9065-2.7645 3.6224 0.0953 6.0056 13.441-2.0018 3.6225-2.3832 2.3831-2.9551 10.677-3.2412 6.3869-2.2878-1.9066 0.8579-6.7679-3.6224-6.6729 0.0953-3.1458 7.6262-4.7663-2.6692-7.15"/></g><g id="c" fill="none" stroke="#000" stroke-width="2"><circle cx="19.161" cy="49.57" r="9.7234" stroke-miterlimit="10"/><circle cx="49.666" cy="49.57" r="9.7234" stroke-miterlimit="10"/><path d="m19.256 49.57 1.9066-22.878h3.6224" stroke-linecap="round" stroke-linejoin="round"/><circle cx="32.793" cy="10.581" r="3" stroke-miterlimit="10"/><path d="M25.0712,26.7869l4.099-2.7645a11.8187,11.8187,0,0,0,2.6692-2.6691l1.8112-2.5739a3.9419,3.9419,0,0,1,2.9552-1.5252A3.0555,3.0555,0,0,1,39.18,19.0654l4.385,10.0094a4.7417,4.7417,0,0,1-.0953,3.4317l-.0953.1907A5.8753,5.8753,0,0,1,40.7048,35.08l-5.243,2.2878a1.935,1.935,0,0,0-1.0486,2.4785l2.4785,6.101a2.2846,2.2846,0,0,1-.6673,2.6691,1.73,1.73,0,0,1-2.3831-.7626l-4.1944-7.8168a8.6483,8.6483,0,0,1-.858-3.2411A3.6662,3.6662,0,0,1,30.41,34.2224l4.385-2.7645a2.7844,2.7844,0,0,0,1.144-2.86l-1.43-5.72" stroke-linecap="round" stroke-linejoin="round"/><path d="m36.224 48.617-0.9532 2.9552a2.6607 2.6607 0 0 1-2.2879 1.8112 1.6224 1.6224 0 0 1-1.5252-1.9066l0.8579-6.3866" stroke-miterlimit="10"/><path d="m40.419 35.176-3.4317 10.963" stroke-miterlimit="10"/><path d="M36.1246,8.2779s.4584-.4724.898-.323c.5171.175,1.2482,1.289,1.9137,1.6378a3.3639,3.3639,0,0,0,2.1406.3665" stroke-linecap="round" stroke-linejoin="round"/></g></svg>
