<svg xmlns="http://www.w3.org/2000/svg" id="a" viewBox="0 0 72 72"><g id="b"><rect width="11.319" height="30.9" x="35.264" y="29.21" fill="#D0CFCE"/><rect width="11.319" height="7.25" x="29.992" y="29.21" fill="#9B9B9A"/><path fill="#9B9B9A" d="m14.776 36c-0.2747-6.5184 0.5759-5.8923 0.5759-5.8923l22.939-0.0462-0.0012 3.538c-4e-4 1.3261-0.445 2.4005-0.9932 2.4005h-22.521z"/><path fill="#D0CFCE" stroke="#D0CFCE" stroke-linejoin="round" stroke-miterlimit="10" stroke-width="2" d="m42.07 59.296h6.9469c-2.6901-9.2639-1.7826-17.388-1.7826-17.388s0.1739-4.8033 3.4783-5.8033c0 0 3.7391-1.087 5-1.8261v-17.385h-13.604v14.137l-0.0385 28.266z"/><path fill="#D0CFCE" d="m15.661 35.54s-0.201 5.0192 4.9803 8.9725l2.9011 1.7458s-0.8331 7.4562-0.9581 11.414c0 0 0.0723 1.5872 3.2907 1.7079h9.6223s1.9343 0.0514 2.4769-1.4407v-11.846s2.8109-2.3107 3.4363-3.3459c0 0 2.8044-3.9765 1.6135-7.0315 0 0-0.93-0.1194-4.1375-0.1263l-18.816-0.0401-4.4094-0.0088z"/></g><g id="c" fill="none" stroke="#000" stroke-linecap="round" stroke-linejoin="round" stroke-miterlimit="10" stroke-width="2"><path d="m15.661 35.54s-0.201 5.0192 4.9803 8.9725l2.9011 1.7458s-0.9857 7.4544-0.9581 11.414c0.0065 0.9269 0.0723 1.5872 3.2907 1.7079h9.6223s2.4297 0.1463 2.4769-1.4407c0.0894-3.0038 0-11.846 0-11.846s2.8109-2.3107 3.4363-3.3459c0 0 2.8044-3.9765 1.6135-7.0315 0 0-0.93-0.1194-4.1375-0.1263l-18.816-0.0401-4.4094-0.0089z"/><path d="m38.135 30.062h-21.64s-0.9323 0.0764-0.8214 1.6588"/><path d="m42.07 59.296h6.9469c-2.6901-9.2639-1.7826-17.388-1.7826-17.388s0.1739-4.8033 3.4783-5.8033c0 0 3.7391-1.087 5-1.8261v-17.385h-13.604v14.137"/><line x1="42" x2="55.966" y1="12.875" y2="12.875"/></g></svg>