<?xml version="1.0" encoding="UTF-8"?>
<svg id="a" viewBox="0 0 72 72" xmlns="http://www.w3.org/2000/svg"><g id="b" fill="#fcea2b"><circle cx="45.532" cy="8.013" r="2.9992"/><path d="m45.442 14.87 3.3818-0.6646 1.65 1.9544 3.7617 12.525-3.1758 2.6541-3.0834 1.361-6.614 8.887-5.33 4.7839-1.4442-2.6046 3.2461-6.0006-0.966-7.5311 1.2258-2.8987 8.6932-2.49-1.22-6.8035"/></g><g id="c"><path d="m60.238 63.782c-2.751 0-6.8155-0.153-6.8155-0.153l-15.634-2.2063-14.996-3.4449-17.077-8.7781-0.0232-5.02 1.723-0.7064 2.3324 1.625 4.6334 4.1579 4.87 1.4494 9.3431 4.7737 5.1819-1.1965 7.3514 1.414 10.159 5.2013 5.22-0.1261" fill="#d0cfce" stroke="#d0cfce" stroke-linejoin="round" stroke-width="2.32"/></g><g id="d" fill="none" stroke="#000" stroke-width="2"><path d="M51.5248,60.693l4.9814-.1215L60.1722,64" stroke-linecap="round" stroke-linejoin="round"/><path d="m22.971 52.338 6.2039 2.8146 4.7953-1.0571 5.2653 1.0212" stroke-linecap="round" stroke-linejoin="round"/><path d="m5.609 43.947 1.7866-0.7215 2.949 2.1407" stroke-linecap="round" stroke-linejoin="round"/><path d="m21.688 36.368 14.304-16.691 2.9446 2.11" stroke-linecap="round" stroke-linejoin="round"/><circle cx="21.599" cy="36.334" r="9.7234" stroke-miterlimit="10"/><circle cx="52.485" cy="48.247" r="9.7234" stroke-miterlimit="10"/><circle cx="45.393" cy="8.1524" r="3" stroke-miterlimit="10"/><path d="M38.4586,20.5583l2.5119-.5473a13.2985,13.2985,0,0,0,3.7966-1.2442s.4293-2.64.6235-3.5021a.8013.8013,0,0,1,.423-.679,3.1211,3.1211,0,0,1,3.01-.38c1.3024.5516,1.9216,2.389,2.16,2.9884A63.0047,63.0047,0,0,1,54.11,26.8982,4.1364,4.1364,0,0,1,52.78,30.0636l-.1578.1433a5.8749,5.8749,0,0,1-3.35,1.2575l-5.7155.2384a1.935,1.935,0,0,0-1.8735,1.932l.1061,6.5843a2.2848,2.2848,0,0,1-1.5868,2.2476,1.73,1.73,0,0,1-1.9465-1.5724L37.1705,32.09a8.651,8.651,0,0,1,.3714-3.3322,3.6663,3.6663,0,0,1,2.4413-1.8141l5.0877-.9929c1.0067-.2232,2.4916-1.7072,2.316-2.8626" stroke-linecap="round" stroke-linejoin="round"/><path d="m40.203 42.467-1.9568 2.4109a2.6608 2.6608 0 0 1-2.7878 0.8619 1.6222 1.6222 0 0 1-0.7331-2.3289l3.1082-5.6451" stroke-miterlimit="10"/><path d="m48.972 31.45-7.1615 8.9813" stroke-miterlimit="10"/></g></svg>
