<?xml version="1.0" encoding="UTF-8"?>
<svg id="a" viewBox="0 0 72 72" xmlns="http://www.w3.org/2000/svg"><g id="b"><path d="M31,45a.9448.9448,0,0,0-1,1,9.2,9.2,0,1,1-9.2-9.2h0l.2-2h-.2A11.2,11.2,0,1,0,32,46,.9448.9448,0,0,0,31,45Z"/><path d="m52.8 34.8a12.271 12.271 0 0 0-3.9 0.7l0.9 1.8a10.474 10.474 0 0 1 3-0.5 9.2 9.2 0 1 1-9.1 9.7l-2-0.1a11.154 11.154 0 1 0 11.1-11.6z"/><path d="m48 38.2-0.9-1.8a11.093 11.093 0 0 0-5.3 7.9l2 0.1a9.3751 9.3751 0 0 1 4.2-6.2z"/><line x1="23" x2="27" y1="22" y2="22" fill="none" stroke="#000" stroke-linecap="round" stroke-linejoin="round" stroke-width="2"/><line x1="42" x2="48" y1="25.7" y2="25.7" fill="none" stroke="#000" stroke-linecap="round" stroke-linejoin="round" stroke-width="2"/><g fill="none" stroke="#000" stroke-linecap="round" stroke-linejoin="round" stroke-width="2"><line x1="21.1" x2="22.8" y1="46" y2="24.6"/><line x1="36" x2="23" y1="45" y2="30"/><line x1="45" x2="53" y1="30" y2="46"/><line x1="23" x2="44" y1="30" y2="30"/><line x1="46" x2="36" y1="28.4" y2="45"/><line x1="36" x2="53" y1="45" y2="46"/></g></g><g id="c" fill="none" stroke="#ea5a47" stroke-linecap="round" stroke-linejoin="round" stroke-width="2.1"><line x1="21.1" x2="22.8" y1="46" y2="24.6"/><line x1="36" x2="23" y1="45" y2="30"/><line x1="45" x2="53" y1="30" y2="46"/><line x1="23" x2="44" y1="30" y2="30"/><line x1="46" x2="36" y1="28.4" y2="45"/><line x1="36" x2="53" y1="45" y2="46"/></g></svg>
