<?xml version="1.0" encoding="UTF-8"?>
<svg id="a" viewBox="0 0 72 72" xmlns="http://www.w3.org/2000/svg"><g id="b"><path d="m45.515 20.171s7.116-7.9306 13.305-7.2782v5.8571s-3.3014-0.9753-8.2012 5.762" fill="#9B9B9A" stroke="#9B9B9A" stroke-linecap="round" stroke-linejoin="round" stroke-miterlimit="10" stroke-width="2"/><path d="m23.304 24.151s-3.6232 2.4309-3.1341 4.0328l23.497 23.543s0.9153 0.5151 2.0191-1.0588l1.7375-2.5347" fill="#9B9B9A" stroke="#9B9B9A" stroke-miterlimit="10"/><path d="m24 24s8-6 17-2l3-3 7.1483 6.849-2.6127 3.0195s5.1386 9.3265-1.1003 18.782l-23.435-23.65z" fill="#D0CFCE"/><rect transform="matrix(.6754 -.7375 .7375 .6754 -2.8614 41.802)" x="43.852" y="19.537" width="4.4023" height="9.2292" fill="#9B9B9A"/><path d="m20.751 41.921c-0.9549 0.9549-2.5745 0.8797-3.6198-0.1655s-1.1185-2.6668-0.1636-3.6217c0 0 1.1397-1.1811 4.8354-1.683 0 0 0.7352-0.1359 0.6299 0.5727-0.5019 3.6957-1.6819 4.8975-1.6819 4.8975" fill="#92D3F5" stroke-linecap="round" stroke-linejoin="round" stroke-miterlimit="10" stroke-width="2"/><path d="m16.367 53.47c-0.9549 0.9549-2.5745 0.8797-3.6198-0.1655-1.0453-1.0453-1.1185-2.6668-0.1636-3.6217 0 0 1.1397-1.1812 4.8354-1.683 0 0 0.7352-0.1359 0.6299 0.5727-0.5018 3.6957-1.6819 4.8975-1.6819 4.8975" fill="#92D3F5" stroke-miterlimit="10" stroke-width="2"/><path d="m23.067 60.171c-0.9549 0.9549-2.5745 0.8797-3.6198-0.1655s-1.1185-2.6668-0.1636-3.6217c0 0 1.1397-1.1811 4.8354-1.683 0 0 0.7352-0.1359 0.6299 0.5727-0.5018 3.6957-1.6819 4.8975-1.6819 4.8975" fill="#92D3F5" stroke-miterlimit="10" stroke-width="2"/><path d="m27.284 48.454c-0.9549 0.9549-2.5745 0.8797-3.6198-0.1655-1.0453-1.0453-1.1185-2.6668-0.1636-3.6217 0 0 1.1397-1.1811 4.8354-1.683 0 0 0.7352-0.1359 0.6299 0.5727-0.5019 3.6957-1.6819 4.8975-1.6819 4.8975" fill="#92D3F5" stroke-miterlimit="10" stroke-width="2"/><path d="m33.821 54.99c-0.9549 0.9549-2.5745 0.8797-3.6198-0.1655-1.0453-1.0453-1.1185-2.6668-0.1636-3.6217 0 0 1.1397-1.1812 4.8354-1.683 0 0 0.7352-0.1359 0.6299 0.5727-0.5018 3.6957-1.6819 4.8975-1.6819 4.8975" fill="#92D3F5" stroke-miterlimit="10" stroke-width="2"/></g><g id="c" fill="none" stroke="#000" stroke-miterlimit="10" stroke-width="2"><path d="m48.298 17.358s4.0466-4.7508 10.523-4.4651v5.8571s-3.1429-0.2857-5.7619 3" stroke-linecap="round" stroke-linejoin="round"/><path d="m21.082 26.668s-1.6306 1.0684-0.75 2.0833l22.667 22.667s1 1.1667 2.1667-0.75" stroke-linecap="round" stroke-linejoin="round"/><path d="m24 24s8-6 17-2l3-3 7.1483 6.849-2.6127 3.0195s5.1386 9.3265-1.1003 18.782l-23.435-23.65z" stroke-linecap="round" stroke-linejoin="round"/><path d="m20.751 41.921c-0.9549 0.9549-2.5745 0.8797-3.6198-0.1655s-1.1185-2.6668-0.1636-3.6217c0 0 1.1397-1.1811 4.8354-1.683 0 0 0.7352-0.1359 0.6299 0.5727-0.5019 3.6957-1.6819 4.8975-1.6819 4.8975" stroke-linecap="round" stroke-linejoin="round"/><path d="m16.367 53.47c-0.9549 0.9549-2.5745 0.8797-3.6198-0.1655-1.0453-1.0453-1.1185-2.6668-0.1636-3.6217 0 0 1.1397-1.1812 4.8354-1.683 0 0 0.7352-0.1359 0.6299 0.5727-0.5018 3.6957-1.6819 4.8975-1.6819 4.8975"/><path d="m23.067 60.171c-0.9549 0.9549-2.5745 0.8797-3.6198-0.1655s-1.1185-2.6668-0.1636-3.6217c0 0 1.1397-1.1811 4.8354-1.683 0 0 0.7352-0.1359 0.6299 0.5727-0.5018 3.6957-1.6819 4.8975-1.6819 4.8975"/><path d="m27.284 48.454c-0.9549 0.9549-2.5745 0.8797-3.6198-0.1655-1.0453-1.0453-1.1185-2.6668-0.1636-3.6217 0 0 1.1397-1.1811 4.8354-1.683 0 0 0.7352-0.1359 0.6299 0.5727-0.5019 3.6957-1.6819 4.8975-1.6819 4.8975"/><path d="m33.821 54.99c-0.9549 0.9549-2.5745 0.8797-3.6198-0.1655-1.0453-1.0453-1.1185-2.6668-0.1636-3.6217 0 0 1.1397-1.1812 4.8354-1.683 0 0 0.7352-0.1359 0.6299 0.5727-0.5018 3.6957-1.6819 4.8975-1.6819 4.8975"/></g></svg>
