<?xml version="1.0" encoding="UTF-8"?>
<svg id="a" viewBox="0 0 72 72" xmlns="http://www.w3.org/2000/svg"><g id="b"><rect x="43" y="21" width="18" height="33" fill="#61b2e4"/><rect x="11" y="21" width="32" height="33" fill="#92d3f5"/></g><g id="c"><polyline points="17 21.552 11.343 21.552 11.343 53.313 17 53.313" fill="none" stroke="#000" stroke-linecap="round" stroke-linejoin="round" stroke-width="2"/><rect x="17.194" y="21.552" width="37.612" height="31.761" fill="none" stroke="#000" stroke-linecap="round" stroke-linejoin="round" stroke-width="2"/><polyline points="55.138 21.517 60.798 21.568 60.515 53.328 54.855 53.277" fill="none" stroke="#000" stroke-linecap="round" stroke-linejoin="round" stroke-width="2"/><polyline points="45 21.552 54.657 21.552 54.657 53.313 45 53.313" fill="none" stroke="#000" stroke-linecap="round" stroke-linejoin="round" stroke-width="2"/><circle cx="15.522" cy="58.328" r="1.6716"/><circle cx="9.6716" cy="58.328" r="1.6716"/><circle cx="62.328" cy="58.328" r="1.6716"/><circle cx="56.478" cy="58.328" r="1.6716"/><circle cx="50.627" cy="58.328" r="1.6716"/><circle cx="44.776" cy="58.328" r="1.6716"/><circle cx="38.925" cy="58.328" r="1.6716"/><circle cx="33.075" cy="58.328" r="1.6716"/><circle cx="27.224" cy="58.328" r="1.6716"/><circle cx="21.373" cy="58.328" r="1.6716"/><g fill="none" stroke="#000" stroke-linecap="round" stroke-linejoin="round" stroke-width="2"><path d="M28,21V17s0-4,4.7143-4H39"/><path d="M44,21V17s0-4-4.7143-4H33"/></g></g></svg>
