<?xml version="1.0" encoding="UTF-8"?>
<svg id="a" viewBox="0 0 72 72" xmlns="http://www.w3.org/2000/svg"><g id="b"><path d="m22.759 54.46h-5.4412l-2.5565 7.3286c-0.336 0.9633 0.3791 1.9701 1.3993 1.9701h3.3547l3.2437-9.2987z" fill="#9B9B9A"/><path d="m47.124 54.46h5.4412l2.5565 7.3286c0.336 0.9633-0.3791 1.9701-1.3993 1.9701h-3.3547l-3.2437-9.2987z" fill="#9B9B9A"/><polyline points="16.534 59.598 15.391 63.128 18.915 63.128 19.582 61.074" fill="#9B9B9A"/><polyline points="53.439 59.598 54.582 63.128 51.058 63.128 50.391 61.074" fill="#9B9B9A"/><path d="m11.007 34.218v9.4286c0 6.9143 5.4 12.571 12 12.571h26c6.6 0 12-5.6571 12-12.571v-9.4286s-23 2.0952-50 0z" fill="#D0CFCE" stroke-linecap="round" stroke-linejoin="round" stroke-miterlimit="10" stroke-width="2"/><path d="m43.804 56.218 16.761-21.709-0.0563 12.765s-1.9682 5.6235-6.8045 8.0979c0-1e-4 -5.3449 1.408-9.8999 0.8456z" fill="#9B9B9A"/><path d="m46.166 14.305c1.6097-2.1022 4.2966-2.7481 6.0014-1.4428s1.7819 4.0678 0.1722 6.17l-6.1736-4.7272z" fill="#D0CFCE" stroke-linecap="round" stroke-linejoin="round" stroke-miterlimit="10" stroke-width="2"/></g><g id="c" fill="none" stroke="#000" stroke-linecap="round" stroke-linejoin="round" stroke-miterlimit="10" stroke-width="2"><path d="m11.007 34.218v9.4286c0 6.9143 5.4 12.571 12 12.571h26c6.6 0 12-5.6571 12-12.571v-9.4286s-23 2.0952-50 0z"/><path d="m58.668 34.218v-19.856s0-6.9454-6.5006-1.4994"/><path d="m46.166 14.305c1.6097-2.1022 4.2966-2.7481 6.0014-1.4428s1.7819 4.0678 0.1722 6.17l-6.1736-4.7272z"/><polyline points="53.439 59.598 54.582 63.128 51.058 63.128 50.391 61.074"/><polyline points="16.534 59.598 15.391 63.128 18.915 63.128 19.582 61.074"/><path d="m11.007 34.218v9.4286c0 6.9143 5.4 12.571 12 12.571h26c6.6 0 12-5.6571 12-12.571v-9.4286s-23 2.0952-50 0z"/></g></svg>
