<?xml version="1.0" encoding="UTF-8"?>
<svg id="a" viewBox="0 0 72 72" xmlns="http://www.w3.org/2000/svg"><g id="b"><rect x="6.833" y="55.62" width="5.422" height="7.064" fill="#a57939" stroke-width="1.042"/><rect x="51.82" y="55.62" width="5.422" height="7.064" fill="#a57939" stroke-width="1.042"/><path d="m12.54 28.49h38.94l0.243 26.82-38.96-0.2078z" fill="#92d3f5"/><rect x="12.62" y="46.36" width="39.1" height="8.952" fill="#61b2e4" stroke-width=".9064"/><path transform="rotate(90 56.28 44.95)" d="m45.93 43.3h20.69l0.01452 6.212-20.71-0.1735z" fill="#61b2e4"/><path transform="rotate(90 7.178 44.95)" d="m-1.848 39.65 19.39-0.1405-0.01452 7.167h-21.36z" fill="#61b2e4"/><polyline points="52.74 57.65 52.74 62.46 56.17 62.46 56.17 57.65" fill="#A57939"/><polyline points="7.444 57.61 7.444 62.46 10.87 62.46 10.87 57.61" fill="#A57939"/><path d="m34.46 9.549v8.465s6.279 3.422 12.56 0v-8.465c1e-4 0-6.279-3.782-12.56 0z" fill="#FCEA2B"/></g><g id="c" fill="none" stroke="#000" stroke-linecap="round" stroke-linejoin="round" stroke-miterlimit="10" stroke-width="2"><path d="m12.61 36.87v-8.385h38.94v8.274c2.138-2.907 3.386-2.824 6.768-2.824v21.36h-52.47v-21.36c3.594-0.509 4.265 0.6135 6.768 2.935z"/><path d="m7.833 58.61v3.852h3.422v-3.852"/><path d="m52.82 58.61v3.852h3.422v-3.852"/><path d="m34.53 9.549v8.465c4.382 2.115 8.559 2.125 12.56 0v-8.465c-4.033-2.29-8.197-2.384-12.56 0z"/><path d="m12.7 46.42h38.86"/><path d="m51.56 54.6-0.0113-17.84"/><path d="m12.61 36.87 0.01095 18.44"/><path d="m47.09 13.7s15.18-2.847 15.56 19.74c0.0985 5.856 0 23.43 0 23.43"/><path d="m58.92 59.61h7.546"/></g></svg>
