<?xml version="1.0" encoding="UTF-8"?>
<svg id="a" viewBox="0 0 72 72" xmlns="http://www.w3.org/2000/svg"><g id="b"><path d="m16.274 61.899s-1.8-13.9 10.2-13.9c3.2 2.1 5.9 3.6 9 3.6h-0.1c3.1 0 6.3-1.6 9.5-3.7 11.6 0 9.6 13.9 9.8 14" fill="#92d3f5"/><path d="m44.844 47.285a18.274 18.274 0 0 1-8.87 3.514c13.1 0.4 13.1 7.1 13.8 11.1h5.1s1.97-14.614-10.03-14.614z" fill="#61b2e4"/><path d="m50.074 19.499c1.2 0.3 0.4 2.5-0.4 3.5l-2.2 2.7h-0.1a8.6253 8.6253 0 0 0-1.9-2l-0.6-0.4a15.38 15.38 0 0 0 1.3-1.2h-21.1a9.8318 9.8318 0 0 0 1.5 1.2l-0.8 0.5a8.2919 8.2919 0 0 0-1.8 1.8l-0.1-0.1-2-2.4c-0.8-1-1.6-3.2-0.4-3.5 5.7-1.5 6-7.9 14.3-7.9s8.6 6.3 14.3 7.8zm-14.2 0.4c2.1 0 2.5-3.9 2.5-3.9a4.3093 4.3093 0 0 0-5-0.1c-0.1 0 0.3 4 2.5 4z" fill="#92d3f5"/><path d="m35.874 19.899c-2.1 0-2.5-3.9-2.5-3.9a4.01 4.01 0 0 1 5 0.1c0-0.1-0.4 3.8-2.5 3.8z" fill="#fcea2b"/><path d="m42.674 13.799s0.9 8.2-2.6 8.2l5.3 0.3 1.7 3s3.7-1.9 3.6-5.2c0.1 0-7.2-4.2-8-6.3z" fill="#61b2e4"/><path d="m33.774 25.599a16.173 16.173 0 0 1-7.2-2.4c-0.6-0.4-1-0.8-1.5-1.2h21.1a4.8944 4.8944 0 0 1-1.3 1.2 11.584 11.584 0 0 1-3.7 1.8 18.327 18.327 0 0 1-7.4 0.6z" fill="#3f3f3f"/><g fill="#92d3f5"><path d="m44.474 48.099-3.7 8.8-2.6-2.7-2.5-2.6h0.1c2.9-0.1 5.6-1.5 8.7-3.5z"/><path d="m35.574 51.599-2.6 2.7-2.6 2.6-3.6-8.9c3.1 2.1 5.8 3.5 8.8 3.6z"/></g><path d="M47.03,48.1689,41.5472,62H47.024l5.1686-11.6454s-2.7675-2.6976-5.1628-2.186" fill="#fcea2b"/><rect x="24.681" y="47.797" width="7.5072" height="13.763" fill="#6a462f"/><rect x="11.334" y="47.797" width="13.346" height="13.763" fill="#a57939"/></g><g id="c"><path d="m46.874 33.299 0.1-0.1c-0.7 7-5.5 12.5-11.3 12.5-5.9 0-10.6-5.5-11.3-12.6a12.562 12.562 0 0 1 9.3-7.4 18.327 18.327 0 0 0 7.4-0.6c3.1 0.3 5.8 8.2 5.8 8.2zm-5.1-3.2a2 2 0 1 0-2 2 2.0059 2.0059 0 0 0 2-2zm-8 0a2 2 0 1 0-2 2 2.0059 2.0059 0 0 0 2-2z" fill="#fcea2b"/></g><g id="d" fill="#f4aa41"><path d="m46.974 33.199-0.1 0.1s-2.7-8-5.8-8.2a10.643 10.643 0 0 0 3.7-1.8l0.7 0.5a8.6253 8.6253 0 0 1 1.9 2c1.2 1.7 2 4.3-0.4 7.4z"/><path d="m24.474 32.999a0.774 0.774 0 0 0-0.1 0.3c-2.6-3.3-1.6-6-0.3-7.7a8.6414 8.6414 0 0 1 1.8-1.8l0.8-0.6a16.173 16.173 0 0 0 7.2 2.4 12.573 12.573 0 0 0-9.4 7.4z"/></g><g id="e"><line x1="46.99" x2="41.774" y1="48.521" y2="60.971" fill="none" stroke="#000" stroke-linecap="round" stroke-linejoin="round" stroke-width="2"/><line x1="51.611" x2="47.062" y1="50.68" y2="60.997" fill="none" stroke="#000" stroke-linecap="round" stroke-linejoin="round" stroke-width="2"/><g fill="none" stroke="#000" stroke-linecap="round" stroke-linejoin="round" stroke-width="2"><path d="M32.08,50.86a11.22,11.22,0,0,0,3.59.74h.1c3,0,5.6-1.4,8.7-3.5.1,0,.1-.1.2-.1,12,0,10,13,10,13"/><polyline points="32.053 55.349 33.074 54.199 35.574 51.599"/><line x1="38.174" x2="35.574" y1="54.199" y2="51.599"/><polyline points="44.474 47.999 44.474 48.099 40.774 56.899 38.174 54.199"/></g><path d="M35.774,40.0992a6.9211,6.9211,0,0,1-3.4-.9.9618.9618,0,0,1,.9-1.7,5.1542,5.1542,0,0,0,5.1,0,.9618.9618,0,1,1,.9,1.7A7.5936,7.5936,0,0,1,35.774,40.0992Z"/><path d="m41.774 30.099a2 2 0 1 1-2-2 2.0059 2.0059 0 0 1 2 2z"/><path d="m33.774 30.099a2 2 0 1 1-2-2 2.0059 2.0059 0 0 1 2 2z"/><path d="m35.774 46.699c-6.4 0-11.7-5.9-12.3-13.8l2-0.2c0.5 6.7 5 11.9 10.3 11.9s9.7-5 10.3-11.7c0-0.5 0.1-1 0.1-1.5h2a9.702 9.702 0 0 1-0.1 1.7c-0.7 7.8-6 13.6-12.3 13.6z"/><path d="M24.374,34.2992a.91.91,0,0,1-.8-.4,7.2313,7.2313,0,0,1-1.8-5.7,8.31,8.31,0,0,1,3.4-5.2l.7-.5a1,1,0,0,1,1.2,1.6l-.8.6a6.1633,6.1633,0,0,0-2.6,3.9,4.3671,4.3671,0,0,0,.5,2.7,13.1189,13.1189,0,0,1,9.5-6.6.9033.9033,0,0,1,1.1.9.9449.9449,0,0,1-.9,1.1,10.8536,10.8536,0,0,0-8.7,7,.8711.8711,0,0,1-.8.6Z"/><path d="M36.074,26.7992c-4.7,0-9.2-1.5-11.7-4a.9128.9128,0,0,1-.2-1.1.961.961,0,0,1,.9-.6h21.1a.961.961,0,0,1,.9.6,1.073,1.073,0,0,1-.1,1.1c-2,2.4-5.7,3.9-10,4Zm-7.8-3.7a17.89,17.89,0,0,0,8.6,1.7,13.8357,13.8357,0,0,0,6.5-1.7Z"/><path d="M47.474,26.7992a1.4213,1.4213,0,0,1-.6-.2.972.972,0,0,1-.1-1.4l2.2-2.7a4.0613,4.0613,0,0,0,.8-1.9c-2.6-.7-4.1-2.3-5.6-3.8-2-2-3.9-4-8.3-4-4.5,0-6.3,1.9-8.3,4-1.5,1.5-3,3.1-5.6,3.8a3.7014,3.7014,0,0,0,.8,1.9l2,2.4a.9925.9925,0,0,1-1.5,1.3l-2-2.4c-.7-.8-1.6-2.6-1.2-3.9a1.7644,1.7644,0,0,1,1.3-1.2,10.9076,10.9076,0,0,0,4.8-3.3c2.1-2.1,4.4-4.6,9.7-4.6s7.7,2.4,9.7,4.6c1.4,1.4,2.7,2.8,4.8,3.3a1.9517,1.9517,0,0,1,1.3,1.2c.4,1.3-.5,3.1-1.2,3.9l-2.2,2.7A1.9093,1.9093,0,0,1,47.474,26.7992Z"/><path d="M46.974,34.2992h-.2a.9689.9689,0,0,1-.8-.7c-1-3-3.3-7.4-4.9-7.5a.9033.9033,0,0,1-.9-1.1.9547.9547,0,0,1,1.1-.9c2.7.2,4.8,4.3,5.9,7a4.418,4.418,0,0,0,.4-2.5,6.1633,6.1633,0,0,0-2.6-3.9l-.7-.6a.9925.9925,0,0,1,1.3-1.5l.7.5a7.9473,7.9473,0,0,1,3.3,5.2,7.2313,7.2313,0,0,1-1.8,5.7A1.1355,1.1355,0,0,1,46.974,34.2992Z"/><path d="M35.874,20.8992c-2.9,0-3.5-4.3-3.5-4.8a1.0858,1.0858,0,0,1,.4-.9c2-1.5,5-1.2,6.3.1a1.1355,1.1355,0,0,1,.3.8c-.1.5-.6,4.8-3.5,4.8Zm0-2v0c.8,0,1.2-1.5,1.4-2.4a3.3974,3.3974,0,0,0-2.8,0c.2,1,.7,2.4,1.4,2.4Z"/><path d="m39.774 28.099a2 2 0 1 1-2 2 2.0059 2.0059 0 0 1 2-2z"/><path d="m31.774 28.099a2 2 0 1 1-2 2 2.0059 2.0059 0 0 1 2-2z"/><g fill="none" stroke="#000" stroke-linecap="round" stroke-linejoin="round" stroke-width="2"><polyline points="15.797 47.834 11.478 47.834 11.478 61.273 16.285 61.273"/><rect x="14.937" y="47.834" width="13.789" height="13.439"/><polyline points="24.681 47.819 32.104 47.841 31.985 61.28 29.625 61.258"/><line x1="29.542" x2="25.515" y1="61.273" y2="61.273"/><path d="m18.425 47.6v-1.6925a1.7563 1.7563 0 0 1 1.9662-1.6926h2.6215"/><path d="m25.098 47.6v-1.6925a1.7563 1.7563 0 0 0-1.9662-1.6926h-2.6215"/></g></g></svg>
