<svg xmlns="http://www.w3.org/2000/svg" id="a" viewBox="0 0 72 72"><g id="b"><path fill="#f1b31c" stroke="#f1b31c" stroke-miterlimit="10" d="m36.4 16.8a17.669 17.669 0 0 0-17.7 17.7h35.3a17.584 17.584 0 0 0-17.6-17.7z"/><path fill="#f1b31c" d="m37.5 15.6a1.7713 1.7713 0 0 0 1.7-1.8 1.7524 1.7524 0 0 0-1.7-1.7 1.7713 1.7713 0 0 0-1.7 1.8 1.6855 1.6855 0 0 0 1.7 1.7z"/><path fill="#f1b31c" d="m36.7 41.6a1.7713 1.7713 0 0 0 1.7-1.8 1.7524 1.7524 0 0 0-1.7-1.7 1.7713 1.7713 0 0 0-1.7 1.8 1.6275 1.6275 0 0 0 1.7 1.7z"/><path fill="#fff" d="M40.8,23c.7-.1,1.3.5,1.9.8a4.0134,4.0134,0,0,1,1.6,1.3c1,1.6,3.6.1,2.6-1.5a7.8086,7.8086,0,0,0-2.7-2.4A6.0991,6.0991,0,0,0,40.8,20a1.5,1.5,0,0,0,0,3Z"/><line x1="14.5" x2="56.5" y1="47.5" y2="47.5" fill="none" stroke="#6a462f" stroke-miterlimit="10" stroke-width="3"/><line x1="17.9" x2="54.5" y1="43.7" y2="43.7" fill="none" stroke="#6a462f" stroke-miterlimit="10" stroke-width="2.356"/><line x1="16.2" x2="57.4" y1="36" y2="36" fill="none" stroke="#f1b31c" stroke-miterlimit="10" stroke-width="2.356"/></g><g id="c" fill="none" stroke="#000"><path stroke-linecap="round" stroke-linejoin="round" stroke-width="2.356" d="M19.1,33.3a17.65,17.65,0,0,1,35.3-.1v.1"/><path stroke-linejoin="round" stroke-width="2" d="M17.3,34.3h39A1.7524,1.7524,0,0,1,58,36v.1a1.7524,1.7524,0,0,1-1.7,1.7h-39a1.7524,1.7524,0,0,1-1.7-1.7V36A1.6275,1.6275,0,0,1,17.3,34.3Z"/><rect width="3.5" height="2.4" x="35" y="38.4" stroke-linecap="square" stroke-miterlimit="10" stroke-width="2"/><rect width="37.7" height="3.5" x="17.4" y="41.9" stroke-linecap="square" stroke-linejoin="round" stroke-width="2"/><rect width="42.4" height="3.5" x="15" y="45.5" stroke-linecap="square" stroke-linejoin="round" stroke-width="2"/><path stroke-linecap="round" stroke-linejoin="round" stroke-width="2" d="M35,15a2.3505,2.3505,0,1,1,4.7-.1h0"/></g></svg>