<svg xmlns="http://www.w3.org/2000/svg" id="a" viewBox="0 0 72 72"><g id="b"><path fill="#d0cfce" d="m10.052 33.285c0.2752 2.3177 47.558 2.6076 51.719 0 0 0 1.0555 0 1.0555 4.222s1.0555 16.888-10.555 18.999h-31.665a8.744 8.744 0 0 1-3.57-0.98c-2.2-1.11-4.8087-3.4755-5.9294-8.5189-2.1109-9.4998-1.0554-13.722-1.0554-13.722z"/><path fill="#d0cfce" d="m46.994 12.176 6.3329 5.2774a5.9576 5.9576 0 0 0 0-6.3329c-2.111-3.1665-6.3329 1.0555-6.3329 1.0555z"/><path fill="#9b9b9a" d="m62.851 33.496-19.024 23.01s9.2649 1.0555 10.438 0 7.5057-6.3329 7.5057-8.4439 1.0805-14.566 1.0805-14.566z"/><polygon fill="#9b9b9a" points="16.385 55.451 14.274 61.783 16.385 63.894 19.551 63.894 21.662 57.562"/><polygon fill="#9b9b9a" points="54.382 55.451 56.493 61.783 54.382 63.894 51.216 63.894 49.105 57.562"/></g><g id="c"><path fill="#fcea2b" d="m26.94 28.008a5.272 5.272 0 0 1-5.2775 5.2774c-2.6232 0-3.1664-5.2378-3.1664-8.4439s0.0155-3.1664 2.6387-3.1664 5.8052 3.1268 5.8052 6.3329z"/></g><g id="d"><path fill="#a57939" d="M20.6068,21.675s-6.4089,1.0555-7.3884,4.2219.4919,6.984,2.111,7.3884a6.9539,6.9539,0,0,0,1.0555,0c.61.0623,2.6129.7382,3.1664,0,.7551-1.0068-.986-2.6281,0-4.2219C21.51,25.8969,22.5658,22.7305,20.6068,21.675Z"/></g><g id="e"><g fill="none" stroke="#000" stroke-linecap="round" stroke-linejoin="round" stroke-width="2"><path d="m60.399 33.496v-20.899s0-7.2829-6.8607-1.5832"/><path d="m47.205 12.492c1.6888-2.2166 4.5386-2.85 6.3329-1.4777s1.9 4.3275 0.2111 6.544z"/><polyline points="15.857 60.306 14.696 64 18.39 64 19.129 61.889"/><path d="m10.052 33.496v9.9216c0 7.2829 5.7 13.299 12.666 13.299h27.443c6.9662 0 12.666-6.0162 12.666-13.299v-9.9216a350.71 350.71 0 0 1-52.774 0z"/></g><g fill="none" stroke="#000" stroke-linecap="round" stroke-linejoin="round" stroke-width="2"><path d="m20.607 21.675"/><path d="m21.521 34.033-3.0252-3.914a8.2726 8.2726 0 0 0 3.1541-8.2744"/></g><path fill="none" stroke="#000" stroke-linecap="round" stroke-linejoin="round" stroke-width="2" d="M17.3458,33.74a6.5034,6.5034,0,0,1-3.9-7.4819,6.6126,6.6126,0,0,1,8.2491-4.3734,6.6126,6.6126,0,0,1,5.0183,7.8734,5.8915,5.8915,0,0,1-.3394.95"/><polyline fill="none" stroke="#000" stroke-linecap="round" stroke-linejoin="round" stroke-width="2" points="51.638 61.783 52.377 63.894 56.071 63.894 54.91 60.2"/></g></svg>