<svg xmlns="http://www.w3.org/2000/svg" id="a" viewBox="0 0 72 72"><g id="b" stroke-linecap="round" stroke-linejoin="round" stroke-miterlimit="10" stroke-width="2"><polygon fill="#D0CFCE" points="51.903 18.602 51.903 42.357 15.015 42.357 11.349 18.602"/><circle cx="50.142" cy="58.463" r="2.375" fill="#D0CFCE"/><circle cx="14.035" cy="58.463" r="2.375" fill="#D0CFCE"/><line x1="45.664" x2="45.664" y1="23.644" y2="24.434" fill="#9B9B9A"/><line x1="45.664" x2="45.664" y1="36.753" y2="37.543" fill="#9B9B9A"/><line x1="40.288" x2="40.288" y1="23.644" y2="24.434" fill="#9B9B9A"/><line x1="40.288" x2="40.288" y1="36.753" y2="37.543" fill="#9B9B9A"/><line x1="34.912" x2="34.912" y1="23.644" y2="24.434" fill="#9B9B9A"/><line x1="34.912" x2="34.912" y1="36.753" y2="37.543" fill="#9B9B9A"/><line x1="29.536" x2="29.536" y1="23.644" y2="24.434" fill="#9B9B9A"/><line x1="29.536" x2="29.536" y1="36.753" y2="37.543" fill="#9B9B9A"/><line x1="24.161" x2="24.161" y1="23.644" y2="24.434" fill="#9B9B9A"/><line x1="24.161" x2="24.161" y1="36.753" y2="37.543" fill="#9B9B9A"/><line x1="18.785" x2="18.785" y1="23.644" y2="24.434" fill="#9B9B9A"/><line x1="18.785" x2="18.785" y1="36.753" y2="37.543" fill="#9B9B9A"/><line x1="45.664" x2="45.664" y1="29.999" y2="30.789" fill="#9B9B9A"/><line x1="40.288" x2="40.288" y1="29.999" y2="30.789" fill="#9B9B9A"/><line x1="34.912" x2="34.912" y1="29.999" y2="30.789" fill="#9B9B9A"/><line x1="29.536" x2="29.536" y1="29.999" y2="30.789" fill="#9B9B9A"/><line x1="24.161" x2="24.161" y1="29.999" y2="30.789" fill="#9B9B9A"/><line x1="18.785" x2="18.785" y1="29.999" y2="30.789" fill="#9B9B9A"/></g><g id="c" fill="none" stroke="#000" stroke-linecap="round" stroke-linejoin="round" stroke-miterlimit="10" stroke-width="2"><polygon points="51.903 18.602 51.903 42.357 15.015 42.357 11.349 18.602"/><polyline points="51.903 18.602 55.506 11.079 60.651 11.079"/><line x1="14.035" x2="51.906" y1="51.861" y2="51.861"/><circle cx="50.142" cy="58.463" r="2.375"/><circle cx="14.035" cy="58.463" r="2.375"/><path d="m51.903 42.357s4.8415 0.3558 4.8415 4.7876c0 5.1219-4.5827 4.7121-4.5827 4.7121"/><line x1="45.664" x2="45.664" y1="23.644" y2="24.434"/><line x1="45.664" x2="45.664" y1="36.753" y2="37.543"/><line x1="40.288" x2="40.288" y1="23.644" y2="24.434"/><line x1="40.288" x2="40.288" y1="36.753" y2="37.543"/><line x1="34.912" x2="34.912" y1="23.644" y2="24.434"/><line x1="34.912" x2="34.912" y1="36.753" y2="37.543"/><line x1="29.536" x2="29.536" y1="23.644" y2="24.434"/><line x1="29.536" x2="29.536" y1="36.753" y2="37.543"/><line x1="24.161" x2="24.161" y1="23.644" y2="24.434"/><line x1="24.161" x2="24.161" y1="36.753" y2="37.543"/><line x1="18.785" x2="18.785" y1="23.644" y2="24.434"/><line x1="18.785" x2="18.785" y1="36.753" y2="37.543"/><line x1="45.664" x2="45.664" y1="29.999" y2="30.789"/><line x1="40.288" x2="40.288" y1="29.999" y2="30.789"/><line x1="34.912" x2="34.912" y1="29.999" y2="30.789"/><line x1="29.536" x2="29.536" y1="29.999" y2="30.789"/><line x1="24.161" x2="24.161" y1="29.999" y2="30.789"/><line x1="18.785" x2="18.785" y1="29.999" y2="30.789"/></g></svg>