<svg xmlns="http://www.w3.org/2000/svg" id="a" viewBox="0 0 72 72"><g id="b" fill="#3f3f3f"><path d="m36 8.0712c-15.425 0-27.929 12.504-27.929 27.929s12.504 27.929 27.929 27.929 27.929-12.504 27.929-27.929-12.504-27.929-27.929-27.929zm0 48.844c-11.551 0-20.916-9.3643-20.916-20.916s9.3642-20.916 20.916-20.916 20.916 9.3642 20.916 20.916-9.3643 20.916-20.916 20.916z"/><path d="m36 29.244c-3.7314 0-6.7562 3.0249-6.7562 6.7563s3.0248 6.7562 6.7562 6.7562 6.7562-3.0248 6.7562-6.7562-3.0248-6.7563-6.7562-6.7563zm0 9.7563c-1.6569 0-3-1.3431-3-3s1.3431-3 3-3 3 1.3431 3 3-1.3431 3-3 3z"/></g><g id="c" fill="none" stroke="#000" stroke-miterlimit="10" stroke-width="2"><circle cx="36" cy="36" r="27.929"/><circle cx="36" cy="36" r="21.298"/><line x1="21.032" x2="31.223" y1="50.968" y2="40.777" stroke-linecap="round"/><line x1="41.478" x2="37.749" y1="56.446" y2="42.526" stroke-linecap="round"/><line x1="56.446" x2="42.526" y1="41.478" y2="37.749" stroke-linecap="round"/><line x1="50.968" x2="40.777" y1="21.032" y2="31.223" stroke-linecap="round"/><line x1="30.522" x2="34.252" y1="15.554" y2="29.475" stroke-linecap="round"/><line x1="15.554" x2="29.473" y1="30.522" y2="34.251" stroke-linecap="round"/><circle cx="36" cy="36" r="6.756"/><circle cx="36" cy="36" r="3"/></g></svg>