<svg xmlns="http://www.w3.org/2000/svg" id="a" viewBox="0 0 72 72"><g id="b"><path fill="#d22f27" d="M29.2434,22.9412l1.7632-6.88.0151-.07a4.5848,4.5848,0,0,1,2.3793-3.14c1.9853-.88,4.13.52,4.8041,3.14l1.8186,7.09,13.8743,22.58a8.1186,8.1186,0,0,0,6.759,4.24h2.3641a1.9186,1.9186,0,0,1,1.6065,2.12v4.2818a2,2,0,0,1-2,2H59.8854V54.4965H59.369a10.7269,10.7269,0,0,1-9.1309-5.0973L36.4471,27.0308H27.1587l1.1244-4.373Z"/><path fill="#d0cfce" d="m42.095 48.973-3.1581-3.7356-9.9992-16.273v-1.9335h7.51s9.4916 13.544 12.46 18.358c1.9184 3.1115 2.9723 5.03 4.7426 6.25a30.361 30.361 0 0 1 2.823 2.8582h3.4129v4.7908h-12.407l2.4471-2.9847v-4.402a2 2 0 0 0-2-2z"/><path fill="#ea5a47" d="M21.7457,27.0308H13.4939l2.8112-10.97.0152-.07a4.5848,4.5848,0,0,1,2.3793-3.14c1.9853-.88,4.13.52,4.8041,3.14l1.8186,7.09,13.8743,22.58a8.1186,8.1186,0,0,0,6.759,4.24h1.9706a2,2,0,0,1,2,2v4.4018a2,2,0,0,1-2,2H41.0218Z"/></g><g id="c" fill="none" stroke="#000" stroke-linecap="round" stroke-linejoin="round" stroke-width="2"><line x1="24.861" x2="18.52" y1="37.751" y2="58.303"/><line x1="16.03" x2="7.372" y1="30.243" y2="58.303"/><line x1="22.138" x2="15.426" y1="33.84" y2="33.84"/><line x1="23.595" x2="13.44" y1="40.276" y2="40.276"/><line x1="21.61" x2="11.455" y1="46.711" y2="46.711"/><line x1="19.625" x2="9.47" y1="53.147" y2="53.147"/><polyline points="48.119 45.962 36.447 27.031 28.115 27.031"/><path d="m53.203 58.303h6.6826v-3.8061h-0.5164a10.722 10.722 0 0 1-5.5019-1.5185"/><path d="M29.2434,22.9412l1.7632-6.88.0151-.07a4.5848,4.5848,0,0,1,2.3793-3.14c1.9853-.88,4.13.52,4.8041,3.14l1.8186,7.09,13.8743,22.58a8.1186,8.1186,0,0,0,6.759,4.24h1.9706a2,2,0,0,1,2,2v4.4018a2,2,0,0,1-2,2H59.8854"/><path d="M21.7457,27.0308H13.4939l2.8112-10.97.0152-.07a4.5848,4.5848,0,0,1,2.3793-3.14c1.9853-.88,4.13.52,4.8041,3.14l1.8186,7.09,13.8743,22.58a8.1186,8.1186,0,0,0,6.759,4.24h1.9706a2,2,0,0,1,2,2v4.4018a2,2,0,0,1-2,2H41.0218Z"/></g></svg>