<?xml version="1.0" encoding="UTF-8"?>
<svg id="a" version="1.1" viewBox="0 0 72 72" xmlns="http://www.w3.org/2000/svg"><g id="b" fill="none" stroke="#000" stroke-linecap="round" stroke-linejoin="round" stroke-miterlimit="10" stroke-width="2"><path d="m44.388 14.729h-16.776c-0.2652 0-0.5196 0.1054-0.7071 0.2929l-11.862 11.862c-0.1875 0.1875-0.2929 0.4419-0.2929 0.7071v16.776c0 0.2652 0.1054 0.5196 0.2929 0.7071l11.862 11.862c0.1875 0.1875 0.4419 0.2929 0.7071 0.2929h16.776c0.2652 0 0.5196-0.1054 0.7071-0.2929l11.862-11.862c0.1875-0.1875 0.2929-0.4419 0.2929-0.7071v-16.776c0-0.2652-0.1054-0.5196-0.2929-0.7071l-11.862-11.862c-0.1875-0.1875-0.4419-0.2929-0.7071-0.2929z"/><path d="m39.323 39.5c-1.3807 0-2.5-1.1193-2.5-2.5v-2c0-1.3807 1.1193-2.5 2.5-2.5s2.5 1.1193 2.5 2.5v2c0 1.3807-1.1193 2.5-2.5 2.5z"/><path d="m26.145 33.894c-0.205-0.7975-1.0911-1.3973-2.1532-1.3973-1.2139 0-2.1979 0.7834-2.1979 1.75 0 0.9664 0.984 1.75 2.1979 1.75l-0.0447 0.0064c1.2139 0 2.1979 0.7835 2.1979 1.75s-0.984 1.75-2.1979 1.75c-1.0621 0-1.9482-0.5998-2.1532-1.3973"/><line x1="29.646" x2="33.646" y1="32.5" y2="32.5"/><line x1="31.646" x2="31.646" y1="32.5" y2="39.5"/><path d="m45.794 39.5v-7h2.6692c0.9629 0 1.7434 0.7806 1.7434 1.7435s-0.7805 1.7434-1.7434 1.7434h-2.6692"/></g><g id="c"><path d="m45.941 10.979h-19.882c-0.2652 0-0.5196 0.1054-0.7071 0.2929l-14.059 14.059c-0.1875 0.1875-0.2929 0.4419-0.2929 0.7071v19.882c0 0.2652 0.1054 0.5196 0.2929 0.7071l14.059 14.059c0.1875 0.1875 0.4419 0.2929 0.7071 0.2929h19.882c0.2652 0 0.5196-0.1054 0.7071-0.2929l14.059-14.059c0.1875-0.1875 0.2929-0.4419 0.2929-0.7071v-19.882c0-0.2652-0.1054-0.5196-0.2929-0.7071l-14.059-14.059c-0.1875-0.1875-0.4419-0.2929-0.7071-0.2929z" fill="#D22F27"/><path d="m44.388 14.729h-16.776c-0.2652 0-0.5196 0.1054-0.7071 0.2929l-11.862 11.862c-0.1875 0.1875-0.2929 0.4419-0.2929 0.7071v16.776c0 0.2652 0.1054 0.5196 0.2929 0.7071l11.862 11.862c0.1875 0.1875 0.4419 0.2929 0.7071 0.2929h16.776c0.2652 0 0.5196-0.1054 0.7071-0.2929l11.862-11.862c0.1875-0.1875 0.2929-0.4419 0.2929-0.7071v-16.776c0-0.2652-0.1054-0.5196-0.2929-0.7071l-11.862-11.862c-0.1875-0.1875-0.4419-0.2929-0.7071-0.2929z" fill="none" stroke="#fff" stroke-linecap="round" stroke-linejoin="round" stroke-miterlimit="10" stroke-width="2"/><path d="m39.323 39.5v0c-1.3807 0-2.5-1.1193-2.5-2.5v-2c0-1.3807 1.1193-2.5 2.5-2.5v0c1.3807 0 2.5 1.1193 2.5 2.5v2c0 1.3807-1.1193 2.5-2.5 2.5z" fill="none" stroke="#fff" stroke-linecap="round" stroke-linejoin="round" stroke-miterlimit="10" stroke-width="2"/><path d="m26.145 33.894c-0.205-0.7975-1.0911-1.3973-2.1532-1.3973v0c-1.2139 0-2.1979 0.7834-2.1979 1.75 0 0.9664 0.984 1.75 2.1979 1.75l-0.0447 0.0064c1.2139 0 2.1979 0.7835 2.1979 1.75s-0.984 1.75-2.1979 1.75v0c-1.0621 0-1.9482-0.5998-2.1532-1.3973" fill="none" stroke="#fff" stroke-linecap="round" stroke-linejoin="round" stroke-miterlimit="10" stroke-width="2"/><line x1="29.646" x2="33.646" y1="32.5" y2="32.5" fill="none" stroke="#fff" stroke-linecap="round" stroke-linejoin="round" stroke-miterlimit="10" stroke-width="2"/><line x1="31.646" x2="31.646" y1="32.5" y2="39.5" fill="none" stroke="#fff" stroke-linecap="round" stroke-linejoin="round" stroke-miterlimit="10" stroke-width="2"/><path d="m45.794 39.5v-7h2.6692c0.9629 0 1.7434 0.7806 1.7434 1.7435v0c0 0.9629-0.7805 1.7434-1.7434 1.7434h-2.6692" fill="none" stroke="#fff" stroke-linecap="round" stroke-linejoin="round" stroke-miterlimit="10" stroke-width="2"/></g><g id="d"><path d="m45.941 10.979h-19.882c-0.2652 0-0.5196 0.1054-0.7071 0.2929l-14.059 14.059c-0.1875 0.1875-0.2929 0.4419-0.2929 0.7071v19.882c0 0.2652 0.1054 0.5196 0.2929 0.7071l14.059 14.059c0.1875 0.1875 0.4419 0.2929 0.7071 0.2929h19.882c0.2652 0 0.5196-0.1054 0.7071-0.2929l14.059-14.059c0.1875-0.1875 0.2929-0.4419 0.2929-0.7071v-19.882c0-0.2652-0.1054-0.5196-0.2929-0.7071l-14.059-14.059c-0.1875-0.1875-0.4419-0.2929-0.7071-0.2929z" fill="none" stroke="#000" stroke-linecap="round" stroke-linejoin="round" stroke-miterlimit="10" stroke-width="2"/></g></svg>
