<?xml version="1.0" encoding="UTF-8"?>
<svg id="a" viewBox="0 0 72 72" xmlns="http://www.w3.org/2000/svg"><g id="b"><path d="m16.874 15.048c-14.518 13.147-11.988 30.917-1.4249 41.252a30.356 30.356 0 0 0 29.301 7.3546c24.894-10.388 23.722-34.762 11.526-47.931-9.109-9.8356-24.399-13.299-39.401-0.6758z" fill="none" stroke="#000" stroke-linecap="round" stroke-linejoin="round" stroke-width="2"/></g><g id="c"><path d="m16.874 15.048c-14.518 13.147-11.988 30.917-1.4249 41.252a30.356 30.356 0 0 0 29.301 7.3546c24.894-10.388 23.722-34.762 11.526-47.931-9.109-9.8356-24.399-13.299-39.401-0.6758z" fill="none" stroke="#d0cfce" stroke-linecap="round" stroke-linejoin="round" stroke-width="2"/><path d="M36,11A25,25,0,1,0,61,36,25,25,0,0,0,36,11Zm0,39.9874A14.9875,14.9875,0,1,1,50.9876,36,14.9875,14.9875,0,0,1,36,50.9874Z" fill="#ea5a47"/><path d="m20.857 15.048a24.342 24.342 0 0 0-5.8431 5.843l7.8266 7.8189a13.506 13.506 0 0 1 5.5628-5.6964z" fill="#fff"/><path d="m57.061 20.88a24.579 24.579 0 0 0-5.9-5.9l-7.89 7.8888a13.636 13.636 0 0 1 5.9048 5.8977z" fill="#fff"/><path d="m51.113 56.986a24.344 24.344 0 0 0 5.8431-5.843l-7.8261-7.8188a13.506 13.506 0 0 1-5.5634 5.6963z" fill="#fff"/><path d="m14.792 51.348a24.993 24.993 0 0 0 6 6l8.0237-8.0224a13.866 13.866 0 0 1-6.0047-5.9976z" fill="#fff"/><path d="m49.199 43.324 2.3154 2.3131a18.076 18.076 0 0 0-0.0779-19.062l-2.1909 2.1913a13.634 13.634 0 0 0-5.9052-5.8977l2.1814-2.181a18.081 18.081 0 0 0-19.18 0.0765l2.1308 2.2493a13.506 13.506 0 0 0-5.5622 5.6965l-2.2734-2.2711a18.087 18.087 0 0 0-0.1248 19.257l2.3682-2.3687a13.866 13.866 0 0 0 6.0048 5.9976l-2.3615 2.3611a18.104 18.104 0 0 0 19.384-0.268l-2.2718-2.3981a13.506 13.506 0 0 0 5.5628-5.6963zm-28.095-7.3237a14.988 14.988 0 1 1 14.988 14.987 14.988 14.988 0 0 1-14.988-14.987z" fill="#d22f27"/><path d="m28.551 22.841-2.131-2.2493a18.264 18.264 0 0 0-5.7053 5.6746l2.2734 2.2711a13.506 13.506 0 0 1 5.5629-5.6964z" fill="#d0cfce"/><path d="m49.323 28.594 2.191-2.1913a18.259 18.259 0 0 0-5.9144-5.8874l-2.1814 2.181a13.634 13.634 0 0 1 5.9048 5.8977z" fill="#d0cfce"/><path d="m51.592 45.465-2.3154-2.3131a13.506 13.506 0 0 1-5.5627 5.6964l2.2717 2.398a18.266 18.266 0 0 0 5.6064-5.7813z" fill="#d0cfce"/><path d="m22.958 43.155-2.3682 2.3687a18.26 18.26 0 0 0 6.0115 5.99l2.3616-2.3611a13.867 13.867 0 0 1-6.0049-5.9976z" fill="#d0cfce"/></g><g id="d" stroke="#000" stroke-linecap="round" stroke-linejoin="round" stroke-width="2"><path d="m15.361 50.112a25.014 25.014 0 0 1-0.0915-28.09" fill="none"/><path d="m50.083 56.659a25.014 25.014 0 0 1-28.061 0.0716" fill="none"/><path d="m56.629 21.873a25.014 25.014 0 0 1 0.1012 28.105" fill="none"/><path d="m21.874 15.371a25.014 25.014 0 0 1 28.104-0.101" fill="none"/><path d="m20.857 15.048a24.342 24.342 0 0 0-5.8431 5.843l7.8266 7.8189a13.506 13.506 0 0 1 5.5628-5.6964z" fill="none"/><path d="m18.33 16.405-1.9925-2.1032a7.712 7.712 0 0 0-1.851 1.8509l2.05 2.0478"/><path d="m55.711 18.185 2.1032-1.9925a7.712 7.712 0 0 0-1.8509-1.851l-2.0479 2.05"/><path d="m53.971 55.647 1.9925 2.1032a7.71 7.71 0 0 0 1.851-1.8509l-2.05-2.0479"/><path d="m16.154 54.067-2.1032 1.9926a7.71 7.71 0 0 0 1.851 1.8509l2.0478-2.05"/><path d="m57.061 20.88a24.579 24.579 0 0 0-5.9-5.9l-7.89 7.8888a13.636 13.636 0 0 1 5.9048 5.8977z" fill="none"/><path d="m51.113 56.986a24.344 24.344 0 0 0 5.8431-5.843l-7.8261-7.8188a13.506 13.506 0 0 1-5.5634 5.6963z" fill="none"/><path d="m14.792 51.348a24.993 24.993 0 0 0 6 6l8.0237-8.0224a13.866 13.866 0 0 1-6.0047-5.9976z" fill="none"/><circle cx="36" cy="36.17" r="14.988" fill="none"/></g></svg>
