<?xml version="1.0" encoding="UTF-8"?>
<svg id="a" viewBox="0 0 72 72" xmlns="http://www.w3.org/2000/svg"><g id="b"><path d="m56.973 55.428a3.3347 3.3347 0 0 1-1.8184 3.2656c-2.6045 1.3155-8.0371 2.9444-19.119 3.2344q-1.1763 0.0308-2.2686 0.03c-10.459 0-15.255-2.0127-17.23-3.27a3.2832 3.2832 0 0 1-1.5117-3.0928v-16.89h41.96z" fill="#a57939"/><path d="m37.457 42.197a80.276 80.276 0 0 1-28.383-5.2481 1.0321 1.0321 0 0 1-0.4756-1.4824c9.4228-15.568 26.328-25.016 27.044-25.411a1.0333 1.0333 0 0 1 0.9942-2e-3c0.7675 0.4209 18.9 10.475 27.026 25.412a1.0324 1.0324 0 0 1 0.0723 0.82 1 1 0 0 1-0.5518 0.6123c-8.7451 3.6743-17.477 4.8142-25.726 5.2992z" fill="#6a462f"/><path d="m33.883 61.966c-2.3349 0-3.792-0.0937-3.9052-0.1006a1 1 0 0 1-0.9336-0.998v-15.598a0.9994 0.9994 0 0 1 1-1h12.148a1 1 0 0 1 1 1v15.317a1.0005 1.0005 0 0 1-0.9082 0.9961c-3.3086 0.3037-6.2334 0.3838-8.4014 0.3838zm8.31-1.38z" fill="#6a462f"/><path d="M36.994,11.4445a1.16,1.16,0,0,0,.1363-.5375.9824.9824,0,0,0-.0346-.1774.96.96,0,0,0-.0628-.1987c-.0086-.0181-.0077-.038-.0176-.0558a.922.922,0,0,0-.09-.106.9368.9368,0,0,0-.0781-.1176c-.0146-.0146-.0342-.0193-.0493-.0328a.9607.9607,0,0,0-.17-.1132,1.1573,1.1573,0,0,0-.5393-.1369.9964.9964,0,0,0-.1779.0346.9629.9629,0,0,0-.1954.0612c-.0189.0088-.04.0079-.0581.0181-.7149.3946-17.6123,9.8389-27.0313,25.4a.999.999,0,0,0,.4571,1.4346,39.77,39.77,0,0,0,6.0537,2.0742,1.01,1.01,0,0,0,.1983.02l.0077.001h.002l.0058-.0011a.9928.9928,0,0,0,.2935-.0507.949.949,0,0,0,.0881-.0357.9873.9873,0,0,0,.1853-.1033.9538.9538,0,0,0,.08-.06.9858.9858,0,0,0,.1493-.1679c.017-.0234.0375-.043.0525-.0681l.0106-.0138A114.8886,114.8886,0,0,1,36.8473,11.6655c.0147-.0147.02-.0344.033-.05A.9558.9558,0,0,0,36.994,11.4445Z" fill="#fcea2b"/><path d="m53.741 33.087c1.0231 1.6166 2.0464 3.3131 3.0562 5.0865" fill="none" stroke="#000" stroke-linecap="round" stroke-linejoin="round" stroke-width="2"/></g><g id="c" fill="none" stroke="#000" stroke-linecap="round" stroke-linejoin="round" stroke-width="2"><path d="m55.986 41.231-0.0123 14.247a2.3154 2.3154 0 0 1-1.2693 2.3232c-2.1873 1.1044-7.3737 2.8312-18.695 3.1268-11.757 0.3069-16.898-1.7856-18.934-3.0824a2.3 2.3 0 0 1-1.049-2.1985v-14.416"/><polyline points="30.044 57.816 30.044 45.269 42.193 45.269 42.193 57.816"/><path d="m62.756 35.958c-8.074-14.843-26.616-25-26.616-25s-17.271 9.5309-26.66 25.042"/><path d="m25.404 33.132a60.26 60.26 0 0 0-2.0221 6.7441"/><path d="M32.0452,41.0117s.2834-3.3826.97-8.0255"/><path d="m46.918 33.197a60.281 60.281 0 0 1 2.0218 6.7442"/><path d="m40.192 41.049s-0.2835-3.3826-0.97-8.0254"/><path d="m18.4 32.927q-1.5348 2.4249-3.0562 5.0865"/><path d="m53.741 33.087c1.0231 1.6166 2.0464 3.3131 3.0562 5.0865"/></g></svg>
