<svg xmlns="http://www.w3.org/2000/svg" id="a" viewBox="0 0 72 72"><g id="b"><path fill="#61b2e4" d="M33.8625,22.6494H23.42a1,1,0,0,1-.8076-1.59l5.2207-7.1553a1.0367,1.0367,0,0,1,1.6152,0L34.67,21.06a1,1,0,0,1-.8076,1.59Z"/><path fill="#ea5a47" d="m43.855 22.649a1 1 0 0 1-0.8077-0.41l-5.2207-7.1554a1 1 0 0 1 0.8077-1.59h10.442a1 1 0 0 1 0.8077 1.59l-5.2217 7.1553a1 1 0 0 1-0.8076 0.4101z"/><rect width="31.642" height="33.422" x="20.179" y="27.62" fill="#d0cfce"/><path fill="#9b9b9a" d="m20.179 27.62h10.349v32.395a1.0269 1.0269 0 0 1-1.0269 1.0269h-9.3223v-33.422z"/><path fill="#9b9b9a" d="m41.472 27.62h10.349v33.422h-9.3223a1.0269 1.0269 0 0 1-1.0269-1.0269v-32.395z"/><circle cx="35.87" cy="42.228" r="2" fill="#fff"/><path fill="#fff" d="M37.467,61.042H34.508a1.0332,1.0332,0,0,1-.7287-.3445,1.1188,1.1188,0,0,1-.2459-.7649l.2041-5.375-1.62-.2012a1,1,0,0,1-.873-1.0849l.4766-5.1113A2.8978,2.8978,0,0,1,34.62,45.5186h2.665A2.9,2.9,0,0,1,40.1847,48.16l.4756,5.1113a1.001,1.001,0,0,1-.8681,1.0849l-1.53.1963.2041,5.4522a1,1,0,0,1-.999,1.0371Z"/></g><g id="c" fill="none" stroke="#000" stroke-linecap="round" stroke-linejoin="round" stroke-width="2"><polyline points="28.641 14.494 23.42 21.649 33.862 21.649"/><polyline points="49.076 14.494 38.634 14.494 43.855 21.649"/><polyline points="20.179 60.042 20.179 27.62 51.821 27.62 51.821 60.042"/><path d="m34.532 60.042 0.24-6.293"/><path d="m37.231 53.749 0.2361 6.293"/><path d="M39.6643,53.3639l-.4757-5.111a1.9117,1.9117,0,0,0-1.9034-1.7345H34.62a1.9117,1.9117,0,0,0-1.9034,1.7345l-.4758,5.111"/><circle cx="35.905" cy="42.193" r="2.035"/><polyline points="29.525 31.34 29.525 60.042 11 60.042"/><polyline points="42.471 31.34 42.471 60.042 60.995 60.042"/></g></svg>