<?xml version="1.0" encoding="UTF-8"?>
<svg id="a" viewBox="0 0 72 72" xmlns="http://www.w3.org/2000/svg"><g id="b"><path d="m9.5037 22.928 4.7907 6.4314c-0.4471 1.2757-1.6109 2.1572-2.9506 2.2346l-4.7907-6.4314c0.2042-1.4367 1.5252-2.4372 2.9506-2.2346z" fill="#D0CFCE"/><polygon points="42.933 27.819 18.432 58.077 23.966 61.989 45.813 34.661 48.097 31.947" fill="#9B9B9A"/><path d="m46.781 32.033c3.2442 2.5754 8.6578 1.1565 12.092-3.169s3.5876-9.9199 0.3434-12.495l-5.1471 6.4838-2.8327-0.0507-0.6772-2.7661 5.1323-6.4651c-3.2442-2.5754-8.6578-1.1565-12.092 3.169s-3.5876 9.9199-0.3434 12.495" fill="#9B9B9A"/><polygon points="27.347 25.982 39.097 41.705 42.513 44.091 51.631 58.476 51.631 58.476 48.432 60.752 47.366 61.511 37.183 47.885 35.899 43.981 24.148 28.259" fill="#A57939"/><path d="m12.025 19.935 5.9453 7.9154 10.177-7.6439-3.3973-4.5231s6.7846-5.0959 10.745-4.5331c0 0-6.6489-2.9652-13.293 1.1407s-10.177 7.644-10.177 7.644z" fill="#9B9B9A"/></g><g id="c"><line x1="41.719" x2="46.781" y1="38.509" y2="32.033"/><line x1="43.363" x2="38.703" y1="29.32" y2="35.08"/><polygon points="52 58.906 40.902 43.176 37.808 40.941 27.23 26.226 24.294 28.351 34.871 43.066 36.008 46.717 47.497 62.227" fill="none" stroke="#000" stroke-linecap="round" stroke-linejoin="round" stroke-miterlimit="10" stroke-width="2"/><path d="m12.511 19.79 5.7909 8.029 10.323-7.4455-3.3091-4.588s6.882-4.9637 10.831-4.3242c0 0-6.5903-3.0933-13.312 0.8832s-10.323 7.4455-10.323 7.4455z" fill="none" stroke="#000" stroke-linecap="round" stroke-linejoin="round" stroke-miterlimit="10" stroke-width="2"/><path d="m9.9316 22.733 4.6653 6.5229v0c-0.4717 1.2669-1.6524 2.1256-2.9933 2.1771h0l-4.6653-6.5229v0c0.2319-1.4325 1.5721-2.4073 2.9933-2.1771v0z" fill="none" stroke="#000" stroke-linecap="round" stroke-linejoin="round" stroke-miterlimit="10" stroke-width="2"/><line x1="41.289" x2="46.352" y1="38.509" y2="32.033" fill="none" stroke="#000" stroke-linecap="round" stroke-linejoin="round" stroke-miterlimit="10" stroke-width="2"/><line x1="42.933" x2="38.274" y1="29.32" y2="35.08" fill="none" stroke="#000" stroke-linecap="round" stroke-linejoin="round" stroke-miterlimit="10" stroke-width="2"/><path d="m46.352 32.033c3.2442 2.5754 8.6578 1.1565 12.092-3.169s3.5876-9.9199 0.3434-12.495l-5.1471 6.4838-2.8327-0.0507-0.6772-2.7661 5.1323-6.4651c-3.2442-2.5754-8.6578-1.1565-12.092 3.169-3.4338 4.3256-3.5876 9.9199-0.3434 12.495" fill="none" stroke="#000" stroke-linecap="round" stroke-linejoin="round" stroke-miterlimit="10" stroke-width="2"/><polyline points="30.818 44.386 19 58.906 23 61.906 32.959 49.166" fill="none" stroke="#000" stroke-linecap="round" stroke-linejoin="round" stroke-miterlimit="10" stroke-width="2"/></g></svg>
