<svg xmlns="http://www.w3.org/2000/svg" id="a" viewBox="0 0 72 72"><g id="b"><polygon fill="#b1cc33" points="11 35.474 11 54.974 32.154 35.474"/><polyline fill="#b1cc33" points="61 35.474 39.846 35.474 61 54.974"/><polygon fill="#5c9e31" points="40.808 35.474 61 35.474 61 41.632 46.865 41.632"/><polygon fill="#5c9e31" points="32.154 35.474 11 35.474 11 41.632 25.808 41.632"/><polygon fill="#d0cfce" points="11.962 56 60.038 56 39.846 36.5 33.115 36.5"/><polygon fill="#3f3f3f" points="26.293 40.605 46.737 40.605 39.846 36.5 33.115 36.5"/><rect width="18.773" height="8.21" x="26.674" y="19.053" fill="#5c9e31"/></g><g id="c" fill="none" stroke="#000" stroke-linecap="round" stroke-linejoin="round" stroke-width="1.987"><line x1="11.962" x2="33.115" y1="54.974" y2="35.475"/><line x1="60.038" x2="39.846" y1="54.974" y2="35.475"/><line x1="23.115" x2="23.115" y1="39.485" y2="17"/><line x1="49.365" x2="49.365" y1="39.485" y2="17"/><rect width="19.712" height="9.123" x="26.385" y="18.482" rx="3.053" ry="3.053"/><line x1="30.986" x2="29.269" y1="48.794" y2="54.523"/><line x1="33.654" x2="32.274" y1="39.827" y2="44.431"/><line x1="41.552" x2="43.269" y1="48.794" y2="54.523"/><line x1="38.885" x2="40.265" y1="39.827" y2="44.431"/><line x1="11.962" x2="60.038" y1="35.475" y2="35.475"/><line x1="23.115" x2="28.741" y1="18.482" y2="18.482"/><line x1="23.115" x2="28.741" y1="27.605" y2="27.605"/><line x1="43.308" x2="48.933" y1="18.482" y2="18.482"/><line x1="43.308" x2="48.933" y1="27.605" y2="27.605"/></g></svg>