<svg xmlns="http://www.w3.org/2000/svg" id="a" viewBox="0 0 72 72"><g id="b"><path fill="#d0cfce" d="m48.867 30.378s-24 23-27 20 20-27 20-27 4-5 8-1-1 8-1 8z"/><path fill="#e27022" d="M31.8468,55.2083l-2.17,3.25a.7511.7511,0,0,1-1.17.09l-7.45-8.12-8.25-7.56a.7511.7511,0,0,1,.09-1.17l3.25-2.17a.7529.7529,0,0,1,.86.03l8.52,6.41,6.29,8.38A.7529.7529,0,0,1,31.8468,55.2083Z"/><path fill="#e27022" d="m58.987 51.508-5.56 3.01a1.6207 1.6207 0 0 1-1.71-0.38l-18.06-14.89-0.62-0.5-0.5-0.62-14.89-18.06a1.6207 1.6207 0 0 1-0.38-1.71l3.01-5.56c0.38-0.69 1.49-0.56 2.28 0.27l17.55 18.61 18.61 17.55c0.83 0.79 0.96 1.9 0.27 2.28z"/><path fill="#92d3f5" d="M42.9113,33.32a.9972.9972,0,0,1-.71-.2959L39.21,30.0054a1,1,0,0,1-.0274-1.38L40.5546,27.21a1.8847,1.8847,0,0,1,1.3584-.6074,1.9759,1.9759,0,0,1,1.3867.5625L45.0742,28.94a1.92,1.92,0,0,1,.5605,1.39,1.886,1.886,0,0,1-.61,1.3594l-1.4383,1.3691A.9985.9985,0,0,1,42.9113,33.32Z"/></g><g id="c" fill="none" stroke="#000" stroke-linecap="round" stroke-linejoin="round"><line x1="49.267" x2="47.737" y1="32.978" y2="31.448" stroke-width="2"/><line x1="40.797" x2="39.267" y1="24.508" y2="22.978" stroke-width="2"/><line x1="39.859" x2="36.859" y1="20.579" y2="23.579" stroke-width="2"/><line x1="51.561" x2="48.561" y1="32.28" y2="35.28" stroke-width="2"/><path stroke-width="2" d="m33.657 39.248 2.78 2.29a97.783 97.783 0 0 1-9.02 6.94l-1.89-2.51-1.68-1.26a97.388 97.388 0 0 1 6.82-8.85l1.87 2.27 0.5 0.62z"/><path stroke-width="2" d="m48.867 30.378s-0.41 0.39-1.13 1.07c-0.9 0.85-2.3 2.15-3.98 3.67l-3.65-3.44-3-3.18c1.54-1.69 2.84-3.08 3.69-3.99 0.68-0.72 1.07-1.13 1.07-1.13s4-5 8-1-1 8-1 8z"/><path stroke-width="2" d="M40.631,28.6008c.2363-.2574.456-.4951.6548-.7091a.9049.9049,0,0,1,1.3059-.02l1.7757,1.7757a.9052.9052,0,0,1-.0216,1.3073c-.2184.2021-.4615.4255-.7242.6649"/><path stroke-width="2" d="M31.8468,55.2081l-2.17,3.25a.7511.7511,0,0,1-1.17.09l-7.45-8.12-8.25-7.56a.7511.7511,0,0,1,.09-1.17l3.25-2.17a.7529.7529,0,0,1,.86.03l6.84,5.15,1.68,1.26,1.89,2.51,4.4,5.87A.7529.7529,0,0,1,31.8468,55.2081Z"/><path stroke-width="2" d="m58.987 51.508-5.56 3.01a1.6207 1.6207 0 0 1-1.71-0.38l-15.28-12.6-2.78-2.29-0.62-0.5-0.5-0.62-1.87-2.27-13.02-15.79a1.6207 1.6207 0 0 1-0.38-1.71l3.01-5.56c0.38-0.69 1.49-0.56 2.28 0.27l14.55 15.43 3 3.18 3.65 3.44 14.96 14.11c0.83 0.79 0.96 1.9 0.27 2.28z"/><line x1="45.086" x2="58.898" y1="13.534" y2="27.347" stroke-width="1.798"/><line x1="53.21" x2="50.554" y1="19.222" y2="21.878" stroke-width="1.798"/></g></svg>