<?xml version="1.0" encoding="UTF-8"?>
<svg id="a" viewBox="0 0 72 72" xmlns="http://www.w3.org/2000/svg"><g id="b"><rect x="11" y="17.17" width="50" height="38.83" fill="#b1cc33"/><polygon points="26.564 17.552 16 43.649 11 56 15.989 56 55.978 56 61 56 56 43.649 45.436 17.552" fill="#6a462f"/><polygon points="16 54.941 18.075 49.653 53.925 49.653 56 54.941" fill="#a57939"/><polygon points="19.174 46.852 52.826 46.852 50.829 41.761 21.171 41.761" fill="#a57939"/><polygon points="22.199 38.939 49.801 38.939 47.836 33.93 24.164 33.93" fill="#a57939"/><polygon points="25.351 31.108 46.649 31.108 44.586 25.848 27.414 25.848" fill="#a57939"/><polygon points="28.509 23.059 43.491 23.059 41.512 18.682 30.046 18.682" fill="#a57939"/></g><g id="c" fill="none" stroke="#000" stroke-linecap="round" stroke-linejoin="round" stroke-width="2"><line x1="12.233" x2="59.935" y1="17.17" y2="17.17"/><polygon points="16 54.941 18.075 49.653 53.925 49.653 56 54.941"/><polygon points="19.174 46.852 52.826 46.852 50.829 41.761 21.171 41.761"/><polygon points="22.199 38.939 49.801 38.939 47.836 33.93 24.164 33.93"/><polygon points="25.351 31.108 46.649 31.108 44.586 25.848 27.414 25.848"/><polygon points="28.509 23.059 43.491 23.059 41.512 18.682 30.046 18.682"/><line x1="23.199" x2="32.891" y1="54.526" y2="18.725"/><line x1="48.801" x2="39.109" y1="54.526" y2="18.725"/></g></svg>
