<?xml version="1.0" encoding="UTF-8"?>
<svg id="a" viewBox="0 0 72 72" xmlns="http://www.w3.org/2000/svg"><g id="b"><path d="m43.137 33.535 11.862 4.1237c1.2058 0.4192 2.3293 1.0434 3.315 1.8546 2.8064 2.3099 8.0677 7.0692 4.5695 7.67-4.6427 0.7974-27.549-6.0191-34.245-8.128-6.6959-2.1089-13.907-6.0905-18.41-9.464-3.941-2.9528 2.243-1.9173 2.243-1.9173s7.116 1.0479 10.042 1.7994l3.2761 0.0835" fill="#d0cfce"/><polyline points="22.938 29.423 14.69 16.109 10.345 14.464 11.719 27.956" fill="#9b9b9a"/><polyline points="43.792 39.951 26.105 22.62 23.535 22.51 33.443 38.115" fill="#9b9b9a"/></g><g id="c"><polyline points="20.382 26.398 14.094 15.934 11.016 14.893 12.147 25.038" fill="none" stroke="#000" stroke-linecap="round" stroke-linejoin="round" stroke-miterlimit="10" stroke-width="1.5597"/><polyline points="44.245 39.371 26.105 22.62 23.535 22.51 33.07 37.528" fill="none" stroke="#000" stroke-linecap="round" stroke-linejoin="round" stroke-miterlimit="10" stroke-width="1.5597"/><ellipse transform="matrix(.3202 -.9473 .9473 .3202 -19.804 60.786)" cx="32.453" cy="44.192" rx="2" ry="2"/><ellipse transform="matrix(.3202 -.9473 .9473 .3202 -17.683 66.898)" cx="37.772" cy="45.77" rx="2" ry="2"/><path d="m43.26 34.329 11.434 3.2856c1.4513 0.417 2.7953 1.1264 3.9549 2.0935 2.86 2.3851 7.6527 6.8448 4.2739 7.425-4.6427 0.7974-27.549-6.0191-34.245-8.128-6.6958-2.109-13.907-6.0905-18.41-9.4641-3.941-2.9527 2.243-1.9172 2.243-1.9172s7.116 1.0479 10.042 1.7994l2.9414 0.7554" fill="none" stroke="#000" stroke-linecap="round" stroke-linejoin="round" stroke-miterlimit="10" stroke-width="1.5597"/></g></svg>
