<svg xmlns="http://www.w3.org/2000/svg" id="a" version="1.1" viewBox="0 0 72 72"><g id="b"><path fill="#9B9B9A" d="m39 36.09v5.55l-15.78-1.03c0.01-0.02 0.02-0.04 0.05-0.07 1.12-1.34 5.87-6.26 14.83-5.45 0.51 0.05 0.9 0.49 0.9 1z"/><path fill="#3F3F3F" d="m65 38.93v4.43c0 0.55-0.5063 1-1.125 1h-3.375v-0.43c0-0.52-0.495-0.96-1.125-0.99l-3.375-0.2v-3.81c0-0.55 0.5063-1 1.125-1h6.75c0.6187 0 1.125 0.45 1.125 1z"/><path fill="#D0CFCE" d="m60 43.93v6.07h-38.55s-2.2-1.54-4.62-5c-0.61-0.86-1.23-1.84-1.83-2.94-0.1-0.16-0.18-0.32-0.27-0.49-0.37-0.7 0.21-1.51 1.03-1.45l0.62 0.04 6.84 0.45 15.78 1.03 17 1.1 3 0.2c0.56 0.03 1 0.47 1 0.99z"/><polyline fill="none" points="69.042 48.256 68.042 68.021 4.042 68.021 4.042 48.256"/><path fill="#92D3F5" d="m68 47.021h-0.9583c-8 0-10 3-15 3s-10-3-16-3-10 3-16 3-12-3-15-3h-1v21h64v-10.5h-0.0417v-10.5z"/></g><g id="c" fill="none" stroke="#000" stroke-linecap="round" stroke-linejoin="round" stroke-miterlimit="10"><path stroke-width="2" d="m39 36.09v5.55l-15.78-1.03c0.01-0.02 0.02-0.04 0.05-0.07 1.12-1.34 5.87-6.26 14.83-5.45 0.51 0.05 0.9 0.49 0.9 1z"/><line x1="63" x2="63" y1="44.36" y2="47" stroke-width="2"/><path stroke-width="2.121" d="m65 38.93v4.43c0 0.55-0.5063 1-1.125 1h-3.375v-0.43c0-0.52-0.495-0.96-1.125-0.99l-3.375-0.2v-3.81c0-0.55 0.5063-1 1.125-1h6.75c0.6187 0 1.125 0.45 1.125 1z"/><path stroke-width="2" d="m21.45 50s-2.2-1.54-4.62-5c-0.61-0.86-1.23-1.84-1.83-2.94-0.1-0.16-0.18-0.32-0.27-0.49-0.37-0.7 0.21-1.51 1.03-1.45l0.62 0.04 6.84 0.45 15.78 1.03 17 1.1 3 0.2c0.56 0.03 1 0.47 1 0.99v3.0908"/><path stroke-width="2" d="m5.0417 47.021c3 0 9 3 15 3s10-3 16-3 11 3 16 3 7-3 15-3"/></g></svg>