<?xml version="1.0" encoding="UTF-8"?>
<svg id="a" viewBox="0 0 72 72" xmlns="http://www.w3.org/2000/svg"><g id="b"><path d="m60.81 45.25-0.18 0.03c-0.07 0-0.14 0.01-0.22 0.02l0.24-0.03c0.06 0 0.11-0.01 0.16-0.02z" fill="#d0cfce"/><path d="m60.65 45.27c-0.01 0-0.01 0-0.02 0.01-0.07 0-0.14 0.01-0.22 0.02l0.24-0.03z" fill="#d0cfce"/><path d="m60.81 45.25-0.18 0.03c-0.07 0-0.14 0.01-0.22 0.02l0.24-0.03c0.06 0 0.11-0.01 0.16-0.02z" fill="#d0cfce"/><path d="m61.66 46.07c-0.3 0.3-4.65 0.55-10.69 0.73-1.62 0.04-3.36 0.08-5.17 0.12-1.18 0.02-2.4 0.04-3.64 0.05-0.42 0-0.83 0.01-1.25 0.01-0.12 0.01-0.23 0.01-0.35 0.01-0.65 0.01-1.3 0.01-1.96 0.02-1.01 0.01-2.02 0.02-3.04 0.02-3.04 0.02-6.08 0.01-8.92-0.02-1.15-0.01-2.27-0.03-3.34-0.04-0.16-0.01-0.31-0.01-0.47-0.01-0.51-0.01-1.01-0.02-1.5-0.03-5.98-0.15-10.32-0.42-10.76-0.86-0.71-0.72-0.77-1.43-0.61-1.98 0.17-0.65 0.61-1.09 0.61-1.09l10.22-7.15h30.65l10.22 7.15s0.29 0.59 0.4 1.28c0.11 0.6 0.08 1.31-0.4 1.79z" fill="#d0cfce"/><polygon points="40.796 36.537 48.75 46.583 61.292 45.98 62.113 44.958 61.256 42.718 51.4 35.85 40.56 36" fill="#9b9b9a"/><path d="m40.97 45.97c-0.21 0-0.42 0.01-0.63 0.01h-0.46c0.21-0.01 0.42-0.01 0.63-0.01h0.46z" fill="#d0cfce"/><path d="m46.22 45.89c-0.11 0-0.22 0-0.32 0.01-0.2 0-0.4 0-0.6 0.01h-0.17c0.1-0.01 0.2-0.01 0.3-0.01 0.2 0 0.4-0.01 0.6-0.01h0.19z" fill="#d0cfce"/><path d="m51.36 45.76v0.01c-0.23 0-0.46 0.01-0.7 0.02 0.24-0.01 0.47-0.02 0.7-0.03z" fill="#d0cfce"/><path d="m50.97 46.8c-1.63 3.04-7.43 5.3-14.38 5.39 0.1-0.08 0.19-0.18 0.28-0.27 1.29-1.29 2.42-2.63 3.38-3.96 0.23-0.33 0.45-0.65 0.66-0.98 1.67-0.01 3.31-0.03 4.89-0.06 1.81-0.04 3.55-0.08 5.17-0.12z" fill="#9b9b9a"/><path d="m40.91 46.98c-0.21 0.33-0.43 0.65-0.66 0.98-0.96 1.33-2.09 2.67-3.38 3.96-0.09 0.09-0.18 0.19-0.28 0.27-0.15 0.01-0.31 0.01-0.47 0.01-0.87 0-1.73-0.03-2.56-0.1-0.88-0.07-1.73-0.17-2.55-0.31-4.63-0.76-8.24-2.53-9.61-4.75-0.03-0.04-0.05-0.07-0.07-0.11 1.96 0.04 4.1 0.07 6.34 0.09 0.13 0 0.25-0.01 0.38 0 4.02 0.03 8.35 0.02 12.51-0.03 0.12 0 0.23 0 0.35-0.01z" fill="#d0cfce"/><path d="m40.97 45.97c-0.21 0-0.42 0.01-0.63 0.01h-0.46c0.21-0.01 0.42-0.01 0.63-0.01h0.46z" fill="#d0cfce"/><path d="m46.22 45.89c-0.11 0-0.22 0-0.32 0.01-0.2 0-0.4 0-0.6 0.01h-0.17c0.1-0.01 0.2-0.01 0.3-0.01 0.2 0 0.4-0.01 0.6-0.01h0.19z" fill="#d0cfce"/><path d="m40.97 45.97c-0.21 0-0.42 0.01-0.63 0.01 0.06 0 0.12 0 0.17-0.01h0.46z" fill="#9b9b9a"/><path d="m45.9 45.9c-0.2 0-0.4 0-0.6 0.01 0.04 0 0.09 0 0.13-0.01h0.47z" fill="#9b9b9a"/><path d="m46.22 45.89c-0.11 0-0.22 0-0.32 0.01 0.05 0 0.09-0.01 0.13-0.01h0.19z" fill="#9b9b9a"/><path d="m51.94 45.75c-0.11 0-0.22 0-0.33 0.01 0.03 0 0.05 0 0.08-0.01h0.25z" fill="#9b9b9a"/><path d="m53.46 45.7c-0.11 0-0.22 0-0.33 0.01 0.04 0 0.07 0 0.1-0.01h0.23z" fill="#9b9b9a"/><path d="m55.39 45.62c-0.13 0.01-0.26 0.01-0.39 0.02 0.03 0 0.06 0 0.08-0.01 0.11 0 0.21 0 0.31-0.01z" fill="#9b9b9a"/><path d="m60.81 45.25-0.18 0.03c-0.07 0-0.14 0.01-0.22 0.02l0.24-0.03c0.06 0 0.11-0.01 0.16-0.02z" fill="#9b9b9a"/><path d="m15.65 45.7h-0.08c-0.11-0.01-0.22-0.02-0.32-0.02 0.09 0 0.18 0.01 0.27 0.01 0.05 0 0.09 0.01 0.13 0.01z" fill="#d0cfce"/><path d="m16.25 45.73c-0.21-0.01-0.41-0.02-0.6-0.03 0.18 0.01 0.35 0.02 0.53 0.02 0.02 0.01 0.05 0.01 0.07 0.01z" fill="#d0cfce"/><path d="m20.9 45.9c-0.07-0.01-0.13-0.01-0.19-0.01h0.18l0.01 0.01z" fill="#d0cfce"/><path d="m40.97 45.97c-0.21 0-0.42 0.01-0.63 0.01h-0.46c0.21-0.01 0.42-0.01 0.63-0.01h0.46z" fill="#d0cfce"/><path d="m46.22 45.89c-0.11 0-0.22 0-0.32 0.01-0.2 0-0.4 0-0.6 0.01h-0.17c0.1-0.01 0.2-0.01 0.3-0.01 0.2 0 0.4-0.01 0.6-0.01h0.19z" fill="#d0cfce"/><path d="m51.41 45.76c-0.02 0.01-0.04 0.01-0.05 0.01-0.23 0-0.46 0.01-0.7 0.02 0.24-0.01 0.47-0.02 0.7-0.03h0.05z" fill="#d0cfce"/><path d="m60.65 45.27c-0.01 0-0.01 0-0.02 0.01-0.07 0-0.14 0.01-0.22 0.02l0.24-0.03z" fill="#d0cfce"/><path d="m52.04 45.74c-0.03 0-0.07 0-0.1 0.01-0.11 0-0.22 0-0.33 0.01 0.03 0 0.05 0 0.08-0.01 0.12 0 0.24 0 0.35-0.01z" fill="#9b9b9a"/><path d="m53.54 45.69c-0.02 0-0.05 0-0.08 0.01-0.11 0-0.22 0-0.33 0.01 0.04 0 0.07 0 0.1-0.01 0.11 0 0.21 0 0.31-0.01z" fill="#9b9b9a"/><path d="m55.39 45.62c-0.13 0.01-0.26 0.01-0.39 0.02 0.03 0 0.06 0 0.08-0.01 0.11 0 0.21 0 0.31-0.01z" fill="#9b9b9a"/><path d="m60.81 45.25-0.18 0.03c-0.07 0-0.14 0.01-0.22 0.02l0.24-0.03c0.06 0 0.11-0.01 0.16-0.02z" fill="#9b9b9a"/><path d="m11.03 45.24c-0.02 0-0.04-0.01-0.06-0.01-0.03-0.01-0.06-0.02-0.09-0.03 0.04 0.01 0.08 0.02 0.13 0.03 0.01 0 0.01 0.01 0.02 0.01z" fill="#d0cfce"/><path d="m15.65 45.7h-0.08c-0.02-0.01-0.03-0.01-0.05-0.01 0.05 0 0.09 0.01 0.13 0.01z" fill="#d0cfce"/><path d="m11.03 45.24c-0.02 0-0.04-0.01-0.06-0.01-0.03-0.01-0.06-0.02-0.09-0.03 0.04 0.01 0.08 0.02 0.13 0.03 0.01 0 0.01 0.01 0.02 0.01z" fill="#d0cfce"/><path d="m15.65 45.7h-0.08c-0.02-0.01-0.03-0.01-0.05-0.01 0.05 0 0.09 0.01 0.13 0.01z" fill="#d0cfce"/><path d="m51.4 35.75v0.1h-10.37c1.03-4.9-0.35-10.21-4.16-14.01-0.09-0.1-0.19-0.19-0.29-0.28 7.87 0.23 14.25 6.4 14.82 14.19z" fill="#61b2e4"/><path d="m41.03 35.85h-20.2v-0.09c0.19-2.67 1.07-5.16 2.46-7.28 2.3-3.5 5.98-6 10.27-6.72 0.83-0.14 1.69-0.21 2.56-0.21 0.15 0 0.31 0 0.46 0.01 0.1 0.09 0.2 0.18 0.29 0.28 3.81 3.8 5.19 9.11 4.16 14.01z" fill="#92d3f5"/><path d="m52.04 41.44c0 0.31-0.07 0.61-0.2 0.88-0.02 0.05-0.04 0.09-0.07 0.14-0.35 0.61-1.02 1.03-1.77 1.03-0.18 0-0.35-0.02-0.51-0.08-0.53-0.13-0.99-0.48-1.25-0.95-0.19-0.3-0.29-0.65-0.29-1.02 0-0.55 0.22-1.06 0.6-1.42 0.24-0.27 0.57-0.46 0.94-0.55 0.16-0.05 0.33-0.07 0.51-0.07 1.12 0 2.04 0.92 2.04 2.04z" fill="#92d3f5" stroke-miterlimit="10" stroke-width="2"/><path d="m38.195 41.44c0 0.31-0.07 0.61-0.2 0.88-0.02 0.05-0.04 0.09-0.07 0.14-0.35 0.61-1.02 1.03-1.77 1.03-0.18 0-0.35-0.02-0.51-0.08-0.53-0.13-0.99-0.48-1.25-0.95-0.19-0.3-0.29-0.65-0.29-1.02 0-0.55 0.22-1.06 0.6-1.42 0.24-0.27 0.57-0.46 0.94-0.55 0.16-0.05 0.33-0.07 0.51-0.07 1.12 0 2.04 0.92 2.04 2.04z" fill="#92d3f5" stroke-miterlimit="10" stroke-width="2"/><path d="m24.445 41.44c0 0.31-0.07 0.61-0.2 0.88-0.02 0.05-0.04 0.09-0.07 0.14-0.35 0.61-1.02 1.03-1.77 1.03-0.18 0-0.35-0.02-0.51-0.08-0.53-0.13-0.99-0.48-1.25-0.95-0.19-0.3-0.29-0.65-0.29-1.02 0-0.55 0.22-1.06 0.6-1.42 0.24-0.27 0.57-0.46 0.94-0.55 0.16-0.05 0.33-0.07 0.51-0.07 1.12 0 2.04 0.92 2.04 2.04z" fill="#92d3f5" stroke-miterlimit="10" stroke-width="2"/></g><g id="c" fill="none" stroke="#000" stroke-miterlimit="10" stroke-width="2"><path d="m52.04 41.44c0 0.31-0.07 0.61-0.2 0.88-0.02 0.05-0.04 0.09-0.07 0.14-0.35 0.61-1.02 1.03-1.77 1.03-0.18 0-0.35-0.02-0.51-0.08-0.53-0.13-0.99-0.48-1.25-0.95-0.19-0.3-0.29-0.65-0.29-1.02 0-0.55 0.22-1.06 0.6-1.42 0.24-0.27 0.57-0.46 0.94-0.55 0.16-0.05 0.33-0.07 0.51-0.07 1.12 0 2.04 0.92 2.04 2.04z"/><path d="m38.195 41.44c0 0.31-0.07 0.61-0.2 0.88-0.02 0.05-0.04 0.09-0.07 0.14-0.35 0.61-1.02 1.03-1.77 1.03-0.18 0-0.35-0.02-0.51-0.08-0.53-0.13-0.99-0.48-1.25-0.95-0.19-0.3-0.29-0.65-0.29-1.02 0-0.55 0.22-1.06 0.6-1.42 0.24-0.27 0.57-0.46 0.94-0.55 0.16-0.05 0.33-0.07 0.51-0.07 1.12 0 2.04 0.92 2.04 2.04z"/><path d="m24.445 41.44c0 0.31-0.07 0.61-0.2 0.88-0.02 0.05-0.04 0.09-0.07 0.14-0.35 0.61-1.02 1.03-1.77 1.03-0.18 0-0.35-0.02-0.51-0.08-0.53-0.13-0.99-0.48-1.25-0.95-0.19-0.3-0.29-0.65-0.29-1.02 0-0.55 0.22-1.06 0.6-1.42 0.24-0.27 0.57-0.46 0.94-0.55 0.16-0.05 0.33-0.07 0.51-0.07 1.12 0 2.04 0.92 2.04 2.04z"/><path d="m61.66 46.07c-0.3 0.3-4.65 0.55-10.69 0.73-1.62 0.04-3.36 0.08-5.17 0.12-1.18 0.02-2.4 0.04-3.64 0.05-0.42 0-0.83 0.01-1.25 0.01-0.12 0.01-0.23 0.01-0.35 0.01-0.65 0.01-1.3 0.01-1.96 0.02-1.01 0.01-2.02 0.02-3.04 0.02-3.04 0.02-6.08 0.01-8.92-0.02-1.15-0.01-2.27-0.03-3.34-0.04-0.16-0.01-0.31-0.01-0.47-0.01-0.51-0.01-1.01-0.02-1.5-0.03-5.98-0.15-10.32-0.42-10.76-0.86-0.71-0.72-0.77-1.43-0.61-1.98 0.17-0.65 0.61-1.09 0.61-1.09l10.22-7.15h30.65l10.22 7.15s0.29 0.59 0.4 1.28c0.11 0.6 0.08 1.31-0.4 1.79z" stroke-linecap="round" stroke-linejoin="round"/><path d="m42.16 46.97c-0.42 0.01-0.84 0.01-1.26 0.02 0.01 0 0.01-0.01 0.01-0.01 0.42 0 0.83-0.01 1.25-0.01z" stroke-linecap="round" stroke-linejoin="round"/><path d="m50.97 46.8c-1.63 3.04-7.43 5.3-14.38 5.39-0.15 0.01-0.31 0.01-0.47 0.01-0.87 0-1.73-0.03-2.56-0.1-0.88-0.07-1.73-0.17-2.55-0.31-4.63-0.76-8.24-2.53-9.61-4.75-0.03-0.04-0.05-0.07-0.07-0.11 0.49 0.01 0.99 0.02 1.5 0.03 0.16 0 0.31 0 0.47 0.01 1.07 0.01 2.19 0.03 3.34 0.04 2.84 0.03 5.88 0.04 8.92 0.02 1.02 0 2.03-0.01 3.04-0.02 0.66-0.01 1.31-0.01 1.96-0.02h0.34c0.42-0.01 0.84-0.01 1.26-0.02 1.24-0.01 2.46-0.03 3.64-0.05 1.81-0.04 3.55-0.08 5.17-0.12z" stroke-linecap="round" stroke-linejoin="round"/><path d="m40.91 46.98s0 0.01-0.01 0.01h-0.34c0.12 0 0.23 0 0.35-0.01z" stroke-linecap="round" stroke-linejoin="round"/><path d="m42.16 46.97c-0.42 0.01-0.84 0.01-1.26 0.02h-0.34c0.12 0 0.23 0 0.35-0.01 0.42 0 0.83-0.01 1.25-0.01z" stroke-linecap="round" stroke-linejoin="round"/><path d="m51.4 35.75v0.1h-30.57v-0.09c0.19-2.67 1.07-5.16 2.46-7.28 2.3-3.5 5.98-6 10.27-6.72 0.83-0.14 1.69-0.21 2.56-0.21 0.15 0 0.31 0 0.46 0.01 7.87 0.23 14.25 6.4 14.82 14.19z" stroke-linecap="round" stroke-linejoin="round"/></g></svg>
