<?xml version="1.0" encoding="UTF-8"?>
<svg id="a" version="1.1" viewBox="0 0 72 72" xmlns="http://www.w3.org/2000/svg"><g id="b"><polyline points="69 48.235 68 68 4 68 4 48.235" fill="none"/><path d="M68,47v21H4V47h1c3,0,9,3,15,3s10-3,16-3s11,3,16,3s7-3,15-3H68z" fill="#92D3F5"/><path d="m37.5 10.5v5h-4v-5c0-0.5523 0.4477-1 1-1h2c0.5523 0 1 0.4477 1 1z" fill="#3F3F3F"/><path d="m48.904 31h-26.809l5.9312-14.87c0.1516-0.3801 0.5196-0.6295 0.9288-0.6295h13.089c0.4092 0 0.7772 0.2494 0.9288 0.6295l5.9312 14.87z" fill="#fff"/><path d="m55 34.748c-8.6667 3.6647-7.2222 21.904-10.111 24.653-2.0799 1.9789-6.4133 3.4815-8.6667 4.1686-0.2743 0.0825-0.52 0.1557-0.7222 0.2199-0.2022-0.0642-0.4479-0.1374-0.7222-0.2199-2.2534-0.6871-6.5868-2.1897-8.6667-4.1686-2.8889-2.7485-1.4444-20.988-10.111-24.653h39z" fill="#3F3F3F"/><path d="m55 32v2.7485h-39v-2.7485c0-0.5523 0.4477-1 1-1h37c0.5523 0 1 0.4477 1 1z" fill="#EA5A47"/></g><g id="c" fill="none" stroke="#000" stroke-linecap="round" stroke-linejoin="round" stroke-miterlimit="10" stroke-width="2"><path d="M47.4115,49.3367C48.9598,49.7227,50.4799,50,52,50c5,0,7-3,15-3"/><path d="m5 47c3 0 9 3 15 3 1.292 0 2.4913-0.1391 3.6378-0.3574"/><path d="m37.5 10.5v5h-4v-5c0-0.5523 0.4477-1 1-1h2c0.5523 0 1 0.4477 1 1z"/><path d="m48.904 31h-26.809l5.9312-14.87c0.1516-0.3801 0.5196-0.6295 0.9288-0.6295h13.089c0.4092 0 0.7772 0.2494 0.9288 0.6295l5.9312 14.87z"/><path d="m23.638 49.642c-1.0449-5.989-2.7008-12.806-7.6377-14.894h39c-8.6667 3.6647-7.2222 21.904-10.111 24.653-2.0799 1.9789-6.4133 3.4815-8.6667 4.1686-0.2743 0.0825-0.52 0.1557-0.7222 0.2199-0.2022-0.0642-0.4479-0.1374-0.7222-0.2199-2.2534-0.6871-6.5868-2.1897-8.6667-4.1686-1.2433-1.1828-1.6839-5.2348-2.4734-9.7594"/><path d="m55 32v2.7485h-39v-2.7485c0-0.5523 0.4477-1 1-1h37c0.5523 0 1 0.4477 1 1z"/><line x1="35.5" x2="35.5" y1="63.79" y2="32"/><line x1="30" x2="41" y1="21" y2="21"/><line x1="28" x2="43" y1="26" y2="26"/></g></svg>
