<?xml version="1.0" encoding="UTF-8"?>
<svg id="a" viewBox="0 0 72 72" xmlns="http://www.w3.org/2000/svg"><g id="b"><path d="M16.0452,35.531C14.6591,37.9318,14.5437,46.185,18.1,46.4758l44.8031-.0151a1.5622,1.5622,0,0,1,1.44,1.737l.0471.8975c-.0014.9565-.9094,2.4943-1.7094,2.3935l-45.5952-.1338c-1.616.0266-3.4773-1.1979-4.9939-2.0735-4.9143-2.8373-4.6773-9.9841-1.9377-14.7292" fill="#92d3f5"/><path d="M15.527,48.8715A7.8981,7.8981,0,0,1,10.69,46.7741c1.0817,2.368,4.0554,4.6785,6.7569,4.582l43.8125.1063c.8358.0717,2.5781-1.2311,2.5549-2.055l.0544-.487-.0659.0828" fill="#61b2e4"/><path d="m14.31 34.519a4.3163 4.3163 0 0 0-1.2614 5.9572s1.0525 1.8248 2.1829 1.0194a1.1048 1.1048 0 0 0 0.0793-1.2626 2.09 2.09 0 0 1 0.7579-2.6929" fill="#61b2e4"/><path d="m63.492 49.201-47.276-0.1312" fill="#61b2e4"/><path d="m62.369 51.687-44.595-0.1338" fill="#92d3f5"/><path d="m18.788 46.674 43.803-0.0151" fill="#92d3f5"/><path d="m18.136 51.554 43.813 0.1063" fill="#61b2e4"/><path d="M14.9205,42.6934A1.105,1.105,0,0,0,15,41.4308a2.09,2.09,0,0,1,.7579-2.6929" fill="#61b2e4"/></g><g id="c" fill="none" stroke="#000" stroke-linecap="round" stroke-linejoin="round" stroke-width="2"><line x1="32" x2="32" y1="46" y2="37"/><line x1="53" x2="53" y1="46" y2="37"/><path d="m12.89 49.34a9.7949 9.7949 0 0 1-3.8723-13.293"/><line x1="63.651" x2="23.491" y1="34.785" y2="34.676"/><path d="m18.716 46.647 44.838 0.1639v3.9736l-46.063-0.1086"/><path d="m15.725 39.92c-1.3379 2.3173-0.4639 6.4342 2.9909 6.7278"/><path d="m9.0175 36.047a3.8724 3.8724 0 0 1 6.7072 3.8729"/></g></svg>
