<?xml version="1.0" encoding="UTF-8"?>
<svg id="a" version="1.1" viewBox="0 0 72 72" xmlns="http://www.w3.org/2000/svg"><g id="b"><circle cx="18.825" cy="55.057" r="5.0001" fill="#D0CFCE"/><circle cx="55.342" cy="55.057" r="5.0001" fill="#D0CFCE"/><path d="m27.738 52.057h22.604v0.5833c0 1.6568-1.2226 3-2.7307 3h-17.143c-1.5081 0-2.7307-1.3432-2.7307-3v-0.5833z" fill="#EA5A47"/><path d="m28.198 17.376-1.0583-0.2316c-0.5395-0.118-0.8812-0.6511-0.7631-1.1906l0.4453-2.0352c0.118-0.5395 0.6511-0.8812 1.1906-0.7631l1.0583 0.2315c0.5395 0.1181 0.8812 0.6511 0.7631 1.1907l-0.4453 2.0351c-0.118 0.5396-0.6511 0.8812-1.1906 0.7632z" fill="#D0CFCE"/><path d="m41.048 15.864-0.2506 1.3235c-0.0974 0.5142-0.5977 0.8553-1.1119 0.7579l-4.132-0.7824c-0.5141-0.0974-0.8552-0.5978-0.7578-1.1119l0.2506-1.3236c0.0974-0.5141 0.5977-0.8552 1.1119-0.7578l4.132 0.7824c0.5142 0.0974 0.8552 0.5978 0.7578 1.1119z" fill="#EA5A47"/><path d="m21.548 11.913-0.2511 1.3257c-0.0972 0.5136-0.597 0.8542-1.1106 0.757l-4.12-0.7802c-0.5136-0.0973-0.8542-0.597-0.7569-1.1106l0.251-1.3257c0.0972-0.5136 0.597-0.8542 1.1106-0.757l4.12 0.7802c0.5136 0.0973 0.8542 0.597 0.757 1.1106z" fill="#EA5A47"/></g><g id="c" fill="none" stroke="#000" stroke-miterlimit="10"><line x1="29.915" x2="34.779" y1="14.262" y2="15.216" stroke-linecap="round" stroke-linejoin="round" stroke-width="2"/><line x1="21.903" x2="26.833" y1="12.69" y2="13.657" stroke-linecap="round" stroke-linejoin="round" stroke-width="2"/><circle cx="18.825" cy="55.057" r="5.0001" stroke-width="2"/><circle cx="55.342" cy="55.057" r="5.0001" stroke-width="2"/><polyline points="27.529 17.318 20.416 48.158 18.825 55.057" stroke-linecap="round" stroke-linejoin="round" stroke-width="2"/><path d="m27.738 52.057h22.604v0.5833c0 1.6568-1.2226 3-2.7307 3h-17.143c-1.5081 0-2.7307-1.3432-2.7307-3v-0.5833z" stroke-linecap="round" stroke-linejoin="round" stroke-width="1.9081"/><path d="m29.851 14.249c0.0123 0.1067 0.0074 0.2173-0.0168 0.3281l-0.4453 2.0351c-0.118 0.5396-0.6511 0.8812-1.1906 0.7632l-1.0583-0.2316c-0.5395-0.118-0.8812-0.6511-0.7631-1.1906l0.4453-2.0352c0.0191-0.0875 0.0492-0.1698 0.0885-0.2458" stroke-linecap="round" stroke-linejoin="round" stroke-width="2"/><path d="m26.91 13.672c0.2027-0.3924 0.6502-0.6162 1.1021-0.5173l1.0583 0.2315c0.4287 0.0938 0.7325 0.4497 0.7799 0.8626" stroke-linecap="round" stroke-linejoin="round" stroke-width="2"/><line x1="22.654" x2="27.738" y1="39.917" y2="52.057" stroke-linecap="round" stroke-linejoin="round" stroke-width="2"/><path d="m41.048 15.864-0.2506 1.3235c-0.0974 0.5142-0.5977 0.8553-1.1119 0.7579l-4.132-0.7824c-0.5141-0.0974-0.8552-0.5978-0.7578-1.1119l0.2506-1.3236c0.0974-0.5141 0.5977-0.8552 1.1119-0.7578l4.132 0.7824c0.5142 0.0974 0.8552 0.5978 0.7578 1.1119z" stroke-linecap="round" stroke-linejoin="round" stroke-width="1.9081"/><path d="m21.548 11.913-0.2511 1.3257c-0.0972 0.5136-0.597 0.8542-1.1106 0.757l-4.12-0.7802c-0.5136-0.0973-0.8542-0.597-0.7569-1.1106l0.251-1.3257c0.0972-0.5136 0.597-0.8542 1.1106-0.757l4.12 0.7802c0.5136 0.0973 0.8542 0.597 0.757 1.1106z" stroke-linecap="round" stroke-linejoin="round" stroke-width="1.9081"/></g></svg>
