<?xml version="1.0" encoding="UTF-8"?>
<svg id="a" viewBox="0 0 72 72" xmlns="http://www.w3.org/2000/svg"><g id="b" stroke-linecap="round" stroke-linejoin="round" stroke-miterlimit="10" stroke-width="2"><path d="m24.281 24.405c3.6326-3.6326 3.934-9.4125 0.8702-13.4-0.3699-0.4815-1.0826-0.53-1.512-0.1007l-12.639 12.639c-0.4196 0.4196-0.3828 1.1114 0.0737 1.4905 3.8646 3.2097 9.5665 3.0113 13.207-0.6295z" fill="#d0cfce"/><path d="m15.728 67.728-11.314-11.314c-0.3906-0.3906-0.3906-1.0237 0-1.4143l15.1-15.1c0.3905-0.3905 1.0236-0.3905 1.4142 0l11.314 11.314c0.3905 0.3906 0.3905 1.0237 0 1.4142l-15.1 15.1c-0.3906 0.3906-1.0237 0.3906-1.4143 0z" fill="#3f3f3f"/><path d="m51.213 32.243-11.314-11.314c-0.3905-0.3905-0.3905-1.0237 0-1.4142l15.1-15.1c0.3906-0.3906 1.0237-0.3906 1.4143 0l11.314 11.314c0.3906 0.3906 0.3906 1.0237 0 1.4143l-15.1 15.1c-0.3905 0.3905-1.0237 0.3905-1.4142 0z" fill="#3f3f3f"/><path d="m51.92 39.192-12.728 12.728c-0.3905 0.3905-1.0237 0.3905-1.4142 0l-14.142-14.142c-0.3905-0.3905-0.3905-1.0237 0-1.4142l12.728-12.728c0.3905-0.3905 1.0237-0.3905 1.4142 0l14.142 14.142c0.3905 0.3905 0.3905 1.0237 0 1.4142z" fill="#d0cfce"/><path d="m36.364 23.636-12.728 12.728c-0.3905 0.3905-1.0237 0.3905-1.4142 0l-4.2426-4.2427c-0.3905-0.3905-0.3905-1.0237 0-1.4142l12.728-12.728c0.3905-0.3905 1.0237-0.3905 1.4142 0l4.2427 4.2426c0.3905 0.3905 0.3905 1.0237 0 1.4142z" fill="#9b9b9a"/><path d="m53.334 44.849-8.4853 8.4853c-0.3905 0.3905-1.0236 0.3905-1.4142 0l-2.1213-2.1213c-0.3905-0.3905-0.3905-1.0237 0-1.4142l8.4853-8.4853c0.3905-0.3905 1.0237-0.3905 1.4142 0l2.1213 2.1213c0.3905 0.3906 0.3905 1.0237 0 1.4142z" fill="#9b9b9a"/><ellipse transform="matrix(.7071 -.7071 .7071 .7071 -5.1041 12.322)" cx="12.322" cy="12.322" rx="2" ry="2" fill="#3f3f3f"/></g><g id="c" fill="none" stroke="#000" stroke-miterlimit="10" stroke-width="2"><line x1="45.5" x2="43.07" y1="26.5" y2="28.93"/><polyline points="28.93 43.07 26.52 45.49 26 46"/><line x1="12" x2="12" y1="14" y2="22"/><line x1="23" x2="14" y1="12" y2="12"/><path d="m24.281 24.405c3.6326-3.6326 3.934-9.4125 0.8702-13.4-0.3699-0.4815-1.0826-0.53-1.512-0.1007l-12.639 12.639c-0.4196 0.4196-0.3828 1.1114 0.0737 1.4905 3.8646 3.2097 9.5665 3.0113 13.207-0.6295z" stroke-linecap="round" stroke-linejoin="round"/><path d="m15.728 67.728-11.314-11.314c-0.3906-0.3906-0.3906-1.0237 0-1.4143l15.1-15.1c0.3905-0.3905 1.0236-0.3905 1.4142 0l11.314 11.314c0.3905 0.3906 0.3905 1.0237 0 1.4142l-15.1 15.1c-0.3906 0.3906-1.0237 0.3906-1.4143 0z" stroke-linecap="round" stroke-linejoin="round"/><path d="m51.213 32.243-11.314-11.314c-0.3905-0.3905-0.3905-1.0237 0-1.4142l15.1-15.1c0.3906-0.3906 1.0237-0.3906 1.4143 0l11.314 11.314c0.3906 0.3906 0.3906 1.0237 0 1.4143l-15.1 15.1c-0.3905 0.3905-1.0237 0.3905-1.4142 0z" stroke-linecap="round" stroke-linejoin="round"/><path d="m51.92 39.192-12.728 12.728c-0.3905 0.3905-1.0237 0.3905-1.4142 0l-14.142-14.142c-0.3905-0.3905-0.3905-1.0237 0-1.4142l12.728-12.728c0.3905-0.3905 1.0237-0.3905 1.4142 0l14.142 14.142c0.3905 0.3905 0.3905 1.0237 0 1.4142z" stroke-linecap="round" stroke-linejoin="round"/><path d="m36.364 23.636-12.728 12.728c-0.3905 0.3905-1.0237 0.3905-1.4142 0l-4.2426-4.2427c-0.3905-0.3905-0.3905-1.0237 0-1.4142l12.728-12.728c0.3905-0.3905 1.0237-0.3905 1.4142 0l4.2427 4.2426c0.3905 0.3905 0.3905 1.0237 0 1.4142z" stroke-linecap="round" stroke-linejoin="round"/><path d="m53.334 44.849-8.4853 8.4853c-0.3905 0.3905-1.0236 0.3905-1.4142 0l-2.1213-2.1213c-0.3905-0.3905-0.3905-1.0237 0-1.4142l8.4853-8.4853c0.3905-0.3905 1.0237-0.3905 1.4142 0l2.1213 2.1213c0.3905 0.3906 0.3905 1.0237 0 1.4142z" stroke-linecap="round" stroke-linejoin="round"/><ellipse transform="matrix(.7071 -.7071 .7071 .7071 -5.1041 12.322)" cx="12.322" cy="12.322" rx="2" ry="2" stroke-linecap="round" stroke-linejoin="round"/></g></svg>
