<svg xmlns="http://www.w3.org/2000/svg" id="a" viewBox="0 0 72 72"><g id="b"><path fill="#ea5a47" d="m39.222 36.977s-5.9629 17.859-15.684-4.1085c-1.2636-2.8555-1.6273-7.5414-1.5838-6.9559l-5.9001 12.136c-0.3763 0.782-1.2391 1.4836-0.4093 1.747 9.8168 3.1162 10.562 9.6178 10.521 11.757-0.0074 0.394 15.748 0.3425 15.797 0 0.4531-3.1672 3.4645-17.566 19.856-6.2237 0.9994 0.6916-2.5161-11.209-3.9506-11.209 0 0-17.635 0.4864-17.635 1.1235l-1.012 1.733"/><ellipse cx="16.156" cy="50.893" fill="#d0cfce" stroke-miterlimit="10" stroke-width="2" rx="5.476" ry="5.476" transform="matrix(.9997 -.0233 .0233 .9997 -1.1828 .3907)"/><circle cx="51.398" cy="50.893" r="5.476" fill="#d0cfce" stroke-miterlimit="10" stroke-width="2"/><rect width="18.426" height="5.67" x="40.436" y="29.516" fill="#a57939" stroke-linecap="round" stroke-linejoin="round" stroke-miterlimit="10" stroke-width="2"/></g><g id="c" fill="none" stroke="#000" stroke-miterlimit="10" stroke-width="2"><ellipse cx="16.156" cy="50.893" rx="5.476" ry="5.476" transform="matrix(.9997 -.0233 .0233 .9997 -1.1828 .3907)"/><circle cx="51.398" cy="50.893" r="5.476"/><path stroke-linecap="round" stroke-linejoin="round" d="m26.262 50.776c-0.0016-0.4688-0.0365-0.9374-0.1044-1.4022-0.2986-2.0411-1.2365-4.0074-2.8138-5.5781-3.8908-3.8746-10.199-3.8746-14.09 1e-4"/><path stroke-linecap="round" stroke-linejoin="round" d="m61.697 50.776c0-5.4798-4.4421-9.9218-9.9218-9.9218-5.4795 0-9.9216 4.442-9.9216 9.9218"/><rect width="18.426" height="5.67" x="40.436" y="29.516" stroke-linecap="round" stroke-linejoin="round"/><polyline stroke-linecap="round" stroke-linejoin="round" points="14.923 40.855 23.428 23.846 29.097 23.846"/><line x1="26.262" x2="41.854" y1="50.893" y2="50.893" stroke-linecap="round" stroke-linejoin="round"/><path stroke-linecap="round" stroke-linejoin="round" d="m40.436 35.185s-5.6696 21.261-17.009 0"/><path stroke-linecap="round" stroke-linejoin="round" d="m58.862 35.185s4.2521 7.0871 2.8347 15.591"/></g></svg>