<?xml version="1.0" encoding="UTF-8"?>
<svg id="a" viewBox="0 0 72 72" xmlns="http://www.w3.org/2000/svg"><g id="b"><g id="c"><path d="M40.2352,29.0807l-1.4888-2.4294c-2.5346-4.25-9.4391-14.6418-9.5951-14.8465-1.15-1.511-2.63-2.3-4.141-1.15-1.511,1.1406-.4124,2.6109.4625,4.6891l6.92,14.4918,2.7722,5.6993-7.0191-5.5072a3.4042,3.4042,0,0,0-.787-.6514,2.7335,2.7335,0,0,0-1.3831-.5222,3.6991,3.6991,0,0,0-1.8252.0552l-9.6243,3.05a6.0112,6.0112,0,0,0-1.1023.4777c-1.3964.9851-1.8472,1.29-1.6537,3.1734a3.04,3.04,0,0,0,4.1514,1.8256l8.7156-1.9756.3726.31,6.9921,6.2168a52.2867,52.2867,0,0,1-2.0653,5.88,2.1935,2.1935,0,0,1-2.582,1.0227,47.2022,47.2022,0,0,0-6.2064-1.4551,2.1478,2.1478,0,0,1-.6908-.2417C16.3628,44.95,11.9489,43.7854,11,44.7342c-.9452.8718-.6212,1.3305-.1455,2.7578.7646,2.2939,6.5975,5.4205,7.9342,6.9346l6.55,5.4488s6.4019,4.6095,10.2273,4.5885c12.0634-.0664,18.9492-14.75,18.9621-18.52.0056-1.6424.1925-3.6251.1925-3.6252a19.0358,19.0358,0,0,0-.7777-3.0063l-.0111-.0058a3.2427,3.2427,0,0,0,.0292-.5362s-.9329-16.3193-1.1653-20.2392a5.2716,5.2716,0,0,0-.5568-2.1762,2.464,2.464,0,0,0-2.5623-1.4978c-1.6321.1867-2.1575,1.8759-2.2763,3.7827L46.834,26.731C45.45,21.2134,42.0178,10.33,41.93,10.1062A2.7783,2.7783,0,0,0,38.4958,8.053c-1.7839.6726-2.02,2.6906-1.7391,4.4593l.9758,6.688,1.0139,7.451" fill="#fcea2b" stroke="#fcea2b" stroke-linecap="round" stroke-linejoin="round" stroke-width="2"/></g></g><g id="d"><g id="e" fill="none" stroke="#000" stroke-linecap="round" stroke-linejoin="round" stroke-width="2"><path d="m31.736 42.143c-0.869 2.5155-1.12 4.3475-1.7985 5.5912a2.1933 2.1933 0 0 1-2.582 1.0226 47.197 47.197 0 0 0-6.2064-1.455 2.15 2.15 0 0 1-0.6908-0.2417c-4.0951-2.2435-8.509-3.4083-9.4579-2.4594a2.3467 2.3467 0 0 0-0.7764 2.9644c0.7646 2.2938 7.2284 5.2139 8.5651 6.728l5.849 5.8491s6.9723 4.9163 10.797 4.8952c12.063-0.0664 19.552-15.795 19.565-19.565a21.652 21.652 0 0 0-0.2793-3.2872 19.036 19.036 0 0 0-0.7777-3.0063"/><path d="M24.5042,35.6935l-8.5093,2.0318a3.4311,3.4311,0,0,1-4.429-2.0319c-.1935-1.8834.4621-2.4049,1.8585-3.39a6.0112,6.0112,0,0,1,1.1023-.4777l9.6243-3.05a3.6991,3.6991,0,0,1,1.8252-.0553"/><line x1="31.736" x2="24.638" y1="42.143" y2="35.771"/><path d="M25.01,28.6125a4.3334,4.3334,0,0,1,2.349.6306,3.4038,3.4038,0,0,1,.787.6513l8.3294,6.694"/><path d="M32.4365,29.9218,25.01,15.2084c-.875-2.0782-1.511-3.5464,0-4.687,1.511-1.15,2.9907-.3613,4.141,1.15.156.2047,8.5493,13.0158,11.0839,17.2661v.01"/><path d="m48.093 31.395c-1.3843-5.5176-6.0751-21.198-6.1629-21.423a2.7784 2.7784 0 0 0-3.4342-2.0532c-1.7839 0.6727-2.02 2.6907-1.7391 4.4594l0.9758 6.6879"/><path d="M47.4,18.5064c.1188-1.9068.6442-3.596,2.2763-3.7827a2.4638,2.4638,0,0,1,2.5623,1.4977,5.272,5.272,0,0,1,.5568,2.1762c.2324,3.92,1.1653,20.2393,1.1653,20.2393a3.2433,3.2433,0,0,1-.0292.5362"/><line x1="39.675" x2="43.166" y1="28.081" y2="33.594"/></g></g></svg>
