<svg xmlns="http://www.w3.org/2000/svg" id="a" viewBox="0 0 72 72"><g id="b" fill="#fcea2b"><path d="m21.662 43.963c-2.0638-0.1527-3.6226-1.9342-3.5-4v-7c-0.2578-1.933 1.1001-3.709 3.0331-3.9669 1.933-0.2578 3.709 1.1001 3.9669 3.0331 0.0413 0.3099 0.0413 0.6239 0 0.9337v7c0.1226 2.0659-1.4362 3.8474-3.5 4.0001z"/><path d="m28.724 50.193c-2.0638-0.1527-3.6226-1.9342-3.5-4v-15c-0.2578-1.933 1.1001-3.709 3.0331-3.9669 1.933-0.2578 3.709 1.1001 3.9669 3.0331 0.0413 0.3099 0.0413 0.6239 0 0.9337v15c0.1226 2.0659-1.4362 3.8474-3.5 4.0001z"/><path d="m54.386 37.938-12.12-30.258c-2.0167-4.6175-9.2042-1.7425-7.5148 2.7128l3.1856 9.0447 2.5625 16.167"/><path d="m46.699 19.347 3.2966-9.6649c0.9549-4.9474-6.5964-6.6514-7.729-2.0232"/><path d="m33.938 54.375 9.9333-30.52c0.9549-4.9474-3.1207-16.331-11.616 7.9577"/><path d="m18.67 46.5v6.1723c1.1617 8.6001 8.6874 14.985 17.512 14.857 9.8346 0 18.203-6.833 18.203-16.878l-0.0011-1e-3 -0.6684-11.129c-0.1659-2.228-2.037-3.9616-4.3095-3.993h-10.173c-2.1016-0.1226-3.914 1.4362-4.0694 3.5 0.1852 2.1099 1.8969 3.7781 4.045 3.942l1.0672 0.117c2.2249 0.242 4.045 1.342 4.045 2.442v2.44c-2.1907 0.4577-4.2188 1.4784-5.8772 2.958"/><polygon points="43.438 54.875 17.167 46.917 17.167 39.958 44.594 39.781"/></g><g id="c" fill="none" stroke="#000" stroke-linecap="round" stroke-linejoin="round" stroke-width="2"><path d="m21.662 43.963c-2.0638-0.1527-3.6226-1.9342-3.5-4v-7c-0.2578-1.933 1.1001-3.709 3.0331-3.9669 1.933-0.2578 3.709 1.1001 3.9669 3.0331 0.0413 0.3099 0.0413 0.6239 0 0.9337v7c0.1226 2.0659-1.4362 3.8474-3.5 4.0001z"/><path d="m28.724 50.193c-2.0638-0.1527-3.6226-1.9342-3.5-4v-15c-0.2578-1.933 1.1001-3.709 3.0331-3.9669 1.933-0.2578 3.709 1.1001 3.9669 3.0331 0.0413 0.3099 0.0413 0.6239 0 0.9337v15c0.1226 2.0659-1.4362 3.8474-3.5 4.0001z"/><line x1="37.938" x2="34.966" y1="19.438" y2="27.195"/><path d="m51.539 32.086-9.2724-24.406c-2.0167-4.6175-9.2042-1.7425-7.5148 2.7128l3.1856 9.0447 4.4316 12.533"/><path d="m46.699 19.347 3.2966-9.6649c0.9549-4.9474-6.5964-6.6514-7.729-2.0232"/><path d="m18.13 47.081s-0.0905 4.1182 0 5.487c0.5722 8.6567 9.6883 15.089 18.363 14.962 9.667 0 17.893-6.833 17.893-16.878l-1e-3 -1e-3 -0.657-11.129c-0.1631-2.228-2.0023-3.9616-4.236-3.993h-10c-2.0658-0.1226-3.8473 1.4362-4 3.5 0.1821 2.1099 1.8646 3.7781 3.976 3.942l1.049 0.117c2.187 0.242 3.976 1.342 3.976 2.442v2.44c-2.1534 0.4577-4.1469 1.4784-5.777 2.958"/></g></svg>