<?xml version="1.0" encoding="UTF-8"?>
<svg id="a" viewBox="0 0 72 72" xmlns="http://www.w3.org/2000/svg"><g id="b"><path d="m41.766 13.738c-0.284-1.9293 1.0499-3.7236 2.9792-4.0075 1.9293-0.284 3.7236 1.0498 4.0075 2.9792 0.0455 0.3093 0.0498 0.6232 0.0126 0.9336l0.2571 18.998-0.0217 4.3248-0.1759-12.999c-0.284-1.9293 1.0499-3.7236 2.9792-4.0075s3.7236 1.0498 4.0075 2.9792c0.0455 0.3093 0.0498 0.6232 0.0126 0.9336l0.176 12.999-0.0526 10.085c-0.4248 8.3102-7.7519 13.629-16.06 13.205-4.7918-0.2654-9.32-2.2781-12.728-5.6572-2.9178-3.0904-10.086-11.535-10.086-11.535-1.4629-2.1582-0.3282-5.4939 0.8007-4.6726l9.8756 4.6509 0.0389-5.3996-0.0389 5.3996 0.0389-5.3996-0.0395-21.85c-0.284-1.9293 1.0499-3.7236 2.9792-4.0075s3.7236 1.0498 4.0075 2.9792c0.0455 0.3093 0.0498 0.6232 0.0126 0.9336l0.0947 6.9994 0.1861 10.636-0.3671-22.193c-0.284-1.9293 1.0499-3.7236 2.9792-4.0075 1.9293-0.284 3.7236 1.0498 4.0075 2.9792 0.0455 0.3093 0.0498 0.6232 0.0126 0.9336l0.2064 24.016" fill="#fadcbc" stroke="#fadcbc"/></g><g id="c"><path d="m41.766 13.738c-0.284-1.9293 1.0499-3.7236 2.9792-4.0075 1.9293-0.284 3.7236 1.0498 4.0075 2.9792 0.0455 0.3093 0.0498 0.6232 0.0126 0.9336l0.2571 18.998-0.0048 0.9513-0.1928-9.6253c-0.284-1.9293 1.0499-3.7236 2.9792-4.0075s3.7236 1.0498 4.0075 2.9792c0.0455 0.3093 0.0498 0.6232 0.0126 0.9336l0.176 12.999-0.0526 10.085c-0.4248 8.3102-7.7519 13.629-16.06 13.205-4.7918-0.2654-9.32-2.2781-12.728-5.6572-2.9178-3.0904-10.086-11.535-10.086-11.535-1.4629-2.1582-0.3282-5.4939 0.8007-4.6726l9.8756 4.6509 0.0389-5.3996-0.0389 5.3996 0.0389-5.3996-0.0395-21.85c-0.284-1.9293 1.0499-3.7236 2.9792-4.0075s3.7236 1.0498 4.0075 2.9792c0.0455 0.3093 0.0498 0.6232 0.0126 0.9336l0.0947 6.9994 0.1861 10.636-0.3671-22.193c-0.284-1.9293 1.0499-3.7236 2.9792-4.0075 1.9293-0.284 3.7236 1.0498 4.0075 2.9792 0.0455 0.3093 0.0498 0.6232 0.0126 0.9336l0.1758 20.454" fill="none" stroke="#000" stroke-linecap="round" stroke-linejoin="round" stroke-width="2"/></g></svg>
