<svg xmlns="http://www.w3.org/2000/svg" id="a" viewBox="0 0 72 72"><g id="b"><circle cx="36" cy="36" r="23" fill="#FCEA2B"/><path fill="#fff" d="m32.143 47.374c-0.282 1.7234-0.4344 5.4883 3.8566 4.64v-4.3697"/><path fill="#fff" d="m39.857 47.374c0.282 1.7234 0.4344 5.4883-3.8566 4.64v-4.3697"/></g><g id="c"><circle cx="36" cy="36" r="23" fill="none" stroke="#000" stroke-linecap="round" stroke-linejoin="round" stroke-miterlimit="10" stroke-width="2"/><path fill="none" stroke="#000" stroke-linecap="round" stroke-linejoin="round" stroke-miterlimit="10" stroke-width="2" d="m19.074 30.407s-0.953 8.5508 6.8608 7.9185c2.6197-0.212 7.8164-0.6507 7.867-8.3427 0.0046-0.6979-0.0078-1.5989-0.8108-2.6298-1.0647-1.3669-3.5716-1.9711-9.9446-1.422 1e-4 1e-4 -3.4462-0.099-3.9724 4.476z"/><polyline fill="none" stroke="#000" stroke-linecap="round" stroke-linejoin="round" stroke-miterlimit="10" stroke-width="2" points="19.145 29.874 18.712 26.503 22.545 25.975"/><path fill="none" stroke="#000" stroke-linecap="round" stroke-linejoin="round" stroke-miterlimit="10" stroke-width="2" d="m52.932 30.407s0.953 8.5508-6.8608 7.9185c-2.6197-0.212-7.8164-0.6507-7.867-8.3427-0.0046-0.6979 0.0078-1.5989 0.8108-2.6298 1.0647-1.3669 3.5716-1.9711 9.9446-1.422 0 1e-4 3.4463-0.099 3.9724 4.476z"/><path fill="none" stroke="#000" stroke-linecap="round" stroke-linejoin="round" stroke-miterlimit="10" stroke-width="2" d="m31.696 26.359s4.1241 2.5339 8.6569 0"/><path fill="none" stroke="#000" stroke-linecap="round" stroke-linejoin="round" stroke-miterlimit="10" stroke-width="2" d="m33.802 31.261s2.1275-3.7509 4.383 0"/><polyline fill="none" stroke="#000" stroke-linecap="round" stroke-linejoin="round" stroke-miterlimit="10" stroke-width="2" points="52.855 29.877 53.288 26.505 49.455 25.978"/><path fill="none" stroke="#000" stroke-linecap="round" stroke-linejoin="round" stroke-miterlimit="10" stroke-width="2" d="m34.146 29.971s1.7954-3.7509 3.6988 0"/><path fill="none" stroke="#000" stroke-miterlimit="10" stroke-width="2" d="m32.143 47.374c-0.282 1.7234-0.4344 5.4883 3.8566 4.64v-4.3697"/><path d="m30 31c0 1.6568-1.3448 3-3 3-1.6553 0-3-1.3433-3-3 0-1.6552 1.3447-3 3-3 1.6552 0 3 1.3448 3 3"/><path d="m48 31c0 1.6568-1.3447 3-3 3s-3-1.3433-3-3c0-1.6552 1.3447-3 3-3s3 1.3448 3 3"/><path fill="none" stroke="#000" stroke-miterlimit="10" stroke-width="2" d="m39.857 47.374c0.282 1.7234 0.4344 5.4883-3.8566 4.64v-4.3697"/><path fill="none" stroke="#000" stroke-linecap="round" stroke-linejoin="round" stroke-miterlimit="10" stroke-width="2" d="m45.815 44.806c-6.574 3.5248-14.045 3.6576-19.63 0"/></g></svg>