<?xml version="1.0" encoding="UTF-8"?>
<svg id="a" viewBox="0 0 72 72" xmlns="http://www.w3.org/2000/svg"><g id="b"><path id="c" d="m47.744 38.641c0.1-0.1 0.3-0.2 0.5-0.3 2-0.6 3.9 1.4 3.3 3.4-0.1 0.3-0.2 0.6-0.5 0.8" fill="none" stroke="#000" stroke-linecap="round" stroke-linejoin="round" stroke-miterlimit="10" stroke-width="2"/></g><g id="d"><circle cx="36" cy="36" r="24" fill="#FCEA2B"/><path d="m40 49.2-0.7-0.8c-0.7-0.9-0.6-2.2 0.2-2.9l17-14.4c0.9-0.7 2.2-0.6 2.9 0.2l0.7 0.8c0.7 0.9 0.6 2.2-0.2 2.9l-17 14.4c-0.8 0.8-2.1 0.7-2.9-0.2z" fill="#fff"/><path d="m39.8 49-0.2-0.3c-0.6-0.7-0.5-1.7 0.2-2.3l8.6-7.3c0.7-0.6 1.7-0.5 2.3 0.2l0.2 0.3c0.6 0.7 0.5 1.7-0.2 2.3l-8.6 7.3c-0.7 0.6-1.7 0.5-2.3-0.2z" fill="#EA5A47"/></g><g id="e"><path d="m50.975 27.2c-1.6-2.8-4.8-4.1-7.9-3.4" fill="none" stroke="#000" stroke-linecap="round" stroke-linejoin="round" stroke-miterlimit="10" stroke-width="2"/><path d="m56.991 26.659c-3.6158-8.0349-11.651-13.659-20.991-13.659-12.655 0-23 10.244-23 23 0 12.655 10.244 23 23 23 10.646 0 19.585-7.2314 22.196-16.974" fill="none" stroke="#000" stroke-linecap="round" stroke-linejoin="round" stroke-miterlimit="10" stroke-width="2"/><path d="m30 33c0 1.6568-1.3448 3-3 3-1.6553 0-3-1.3433-3-3 0-1.6552 1.3447-3 3-3 1.6552 0 3 1.3448 3 3"/><path d="m48 33c0 1.6568-1.3447 3-3 3s-3-1.3433-3-3c0-1.6552 1.3447-3 3-3s3 1.3448 3 3"/><path d="m21.025 27.2c0.7-1.4 1.9-2.4 3.4-3 1.4-0.7 3-0.8 4.5-0.4" fill="none" stroke="#000" stroke-linecap="round" stroke-linejoin="round" stroke-miterlimit="10" stroke-width="2"/><path d="m40 49.3-0.7-0.8c-0.7-0.9-0.6-2.2 0.2-2.9l17-14.4c0.9-0.7 2.2-0.6 2.9 0.2l0.7 0.8c0.7 0.9 0.6 2.2-0.2 2.9l-17 14.4c-0.8 0.8-2.1 0.7-2.9-0.2z" fill="none" stroke="#000" stroke-miterlimit="10"/><path d="m29.6 50.7c4.3-2.3 9.1-2.4 12.8 0" fill="none" stroke="#000" stroke-linecap="round" stroke-linejoin="round" stroke-miterlimit="10" stroke-width="2"/><path d="m40 49.3-0.7-0.8c-0.7-0.9-0.6-2.2 0.2-2.9l17-14.4c0.9-0.7 2.2-0.6 2.9 0.2l0.7 0.8c0.7 0.9 0.6 2.2-0.2 2.9l-17 14.4c-0.8 0.8-2.1 0.7-2.9-0.2z" fill="none" stroke="#000" stroke-miterlimit="10" stroke-width="2"/></g></svg>
