<?xml version="1.0" encoding="UTF-8"?>
<svg id="a" viewBox="0 0 72 72" xmlns="http://www.w3.org/2000/svg"><g id="b"><path d="m34 16.112v-2.5109c0-1.3807 1.1193-2.5 2.5-2.5s2.5 1.1193 2.5 2.5v2.5" fill="#D22F27"/><path d="m13.5 41.101c-1.3807 0-2.5-1.1193-2.5-2.5v-8c0-1.3807 1.1193-2.5 2.5-2.5s2.5 1.1193 2.5 2.5v8c0 1.3807-1.1193 2.5-2.5 2.5z" fill="#D0CFCE"/><path d="m58.5 41.101c1.3807 0 2.5-1.1193 2.5-2.5v-8c0-1.3807-1.1193-2.5-2.5-2.5s-2.5 1.1193-2.5 2.5v8c0 1.3807 1.1193 2.5 2.5 2.5z" fill="#D0CFCE"/><path d="m47.45 56.112h-22.901c-4.7022 0-8.5495-3.8473-8.5495-8.5495v-22.901c0-4.7022 3.8473-8.5495 8.5495-8.5495h22.901c4.7022 0 8.5495 3.8473 8.5495 8.5495v22.901c0 4.7021-3.8473 8.5495-8.5495 8.5495z" fill="#D0CFCE"/><path d="m35.498 56.112h13.286c3.9687 0 7.2158-3.8473 7.2158-8.5495v-22.901c0-4.7022-3.2471-8.5495-7.2158-8.5495h-2.3526" fill="#9B9B9A"/><ellipse cx="44.835" cy="29.003" rx="2.8338" ry="2.8338" fill="#fff"/><ellipse cx="27.334" cy="29.002" rx="2.8338" ry="2.8338" fill="#fff"/><path d="m44.5 47.5h-17c-2.2 0-4-1.8-4-4s1.8-4 4-4h17c2.2 0 4 1.8 4 4s-1.8 4-4 4z" fill="#fff"/></g><g id="c" fill="none" stroke="#000" stroke-miterlimit="2" stroke-width="2"><path d="M34,16.0109V13.5c0-1.3807,1.1193-2.5,2.5-2.5l0,0c1.3807,0,2.5,1.1193,2.5,2.5V16" stroke-linecap="round" stroke-linejoin="round"/><path d="M47.4505,56h-22.901C19.8473,56,16,52.1527,16,47.4505v-22.901C16,19.8473,19.8473,16,24.5495,16h22.901 C52.1527,16,56,19.8473,56,24.5495v22.901C56,52.1527,52.1527,56,47.4505,56z" stroke-linecap="round" stroke-linejoin="round"/><ellipse cx="44.835" cy="29.002" rx="2.8338" ry="2.8338" stroke-linecap="round" stroke-linejoin="round"/><ellipse cx="27.334" cy="29.002" rx="2.8338" ry="2.8338" stroke-linecap="round" stroke-linejoin="round"/><path d="m44.5 47.5h-17c-2.2 0-4-1.8-4-4s1.8-4 4-4h17c2.2 0 4 1.8 4 4s-1.8 4-4 4z"/><path d="m13.5 41v0c-1.3807 0-2.5-1.1193-2.5-2.5v-8c0-1.3807 1.1193-2.5 2.5-2.5v0c1.3807 0 2.5 1.1193 2.5 2.5v8c0 1.3807-1.1193 2.5-2.5 2.5z" stroke-linecap="round" stroke-linejoin="round"/><path d="m58.5 41v0c1.3807 0 2.5-1.1193 2.5-2.5v-8c0-1.3807-1.1193-2.5-2.5-2.5v0c-1.3807 0-2.5 1.1193-2.5 2.5v8c0 1.3807 1.1193 2.5 2.5 2.5z" stroke-linecap="round" stroke-linejoin="round"/><line x1="28" x2="28" y1="40" y2="47" stroke-linecap="round" stroke-linejoin="round"/><line x1="33" x2="33" y1="40" y2="47" stroke-linecap="round" stroke-linejoin="round"/><line x1="38" x2="38" y1="40" y2="47" stroke-linecap="round" stroke-linejoin="round"/><line x1="43" x2="43" y1="40" y2="47" stroke-linecap="round" stroke-linejoin="round"/></g></svg>
