<svg xmlns="http://www.w3.org/2000/svg" id="a" viewBox="0 0 72 72"><g id="b"><path fill="#c19a65" stroke="#c19a65" d="m41.719 53.188 3.4339 1.7393c3.6875 1.2188 5.4784-6.7014-0.4496-9.3474l-1.8747-1.2578 3.1326 1.2578c3.5282 1.6578 7.6417-6.2371 0.4894-9.6956l-2.8458-0.5622 4.9913 0.5622c3.1056 1.8351 3.6609-6.0827-1.2092-8.3927l-15.887-3.1786c1.125-10.875 2-17.875-6.0625-19.312-2.4622-0.375-5.5 0-4.875 2.5 3.25 14.625-3.125 22.604-4.8966 24.455-7.1985 7.1985-7.1985 18.87 0 26.068 3.1257 2.9355 6.1596 2.7272 13.772 2.7272 1.4375 0 19.601 4.4807 19.601 4.4807 6.875 1.8125 10.648-5.5724 6.023-7.1349l-1.53-1.0489"/></g><g id="c" fill="none" stroke="#000" stroke-linecap="round" stroke-linejoin="round" stroke-width="2"><path d="m45.527 36.545c5.8565 1.4749 9.2792-7.5763 0.8148-9.3306l-14.842-2.9022c1.125-10.875 2-17.875-6.0625-19.312-2.4622-0.375-5.5 0-4.875 2.5 3.25 14.625-3.125 22.604-4.8966 24.455-7.1985 7.1985-7.1985 18.87 0 26.068 3.1257 2.9355 6.1596 2.7272 13.772 2.7272 1.4375 0 20.633 4.7314 20.633 4.7314 6.875 1.8125 8.9705-5.5167 4.3455-7.0792l-4.3455-1.5669"/><path d="m44.703 45.58c5.8255 1.5323 8.0626-7.4024 0.8241-9.0342"/><path d="m43.412 54.779c5.8275 1.5711 7.1882-7.5953 1.2911-9.1992"/><line x1="43.412" x2="37.719" y1="54.779" y2="53.196" stroke-miterlimit="10"/><line x1="44.703" x2="39.675" y1="45.58" y2="44.147" stroke-miterlimit="10"/><line x1="45.527" x2="41.394" y1="36.545" y2="35.702" stroke-miterlimit="10"/></g></svg>