<?xml version="1.0" encoding="UTF-8"?>
<svg id="a" version="1.1" viewBox="0 0 72 72" xmlns="http://www.w3.org/2000/svg"><g id="b"><path d="m18 25.438-2-11.188c-0.875-4.4982-7.6875-3.625-7.1875 1.75 0 0 3.8903 21.948 4.4479 29.348v-0.2559c0.5404 10.572 9.8613 17.338 20.43 16.798 6.0957-0.3376 11.856-2.898 16.191-7.1966 3.7118-3.9314 12.83-14.674 12.83-14.674 1.861-2.7454 0.4175-6.9889-1.0186-5.9441l-12.563 5.9165 0.3194-0.107c-2.3974 0.8467-3.0395-1.5318-2.8249-3.2447l2.1111-27.884c0.5272-6.7684-7.2581-6.5855-7.2581-0.9621l-1.1655 15.706-9.6782 0.8404-0.5949 0.6013-0.6767-0.4909-11.363 0.9867z" fill="#a57939"/></g><g id="c" fill="none" stroke="#000" stroke-linecap="round" stroke-linejoin="round" stroke-width="2"><path d="m18 25.438-2-11.188c-0.875-4.4982-7.6875-3.625-7.1875 1.75 0 0 3.8903 21.948 4.4479 29.348v-0.2559c0.5404 10.572 9.8613 17.338 20.43 16.798 6.0957-0.3376 11.856-2.898 16.191-7.1966 3.7118-3.9314 12.83-14.674 12.83-14.674 1.861-2.7454 0.4175-6.9889-1.0186-5.9441l-12.563 5.9165 0.3194-0.107c-2.3974 0.8467-3.0395-1.5318-2.8249-3.2447l2.1111-27.884c0.5272-6.7684-7.2581-6.5855-7.2581-0.9621l-1.1655 15.706"/><path d="m30.039 27.604c0.2371-2.1519 1.7598-3.4091 3.8076-3.4552 1.9138-0.043 3.9409 0.9576 3.9591 3.2774 0 0 0.1972 6.9598 0.1592 7.3048-0.2371 2.1519-2.1736 3.7041-4.3255 3.467-2.1518-0.237-3.3818-2.198-3.467-4.3254l-0.1334-6.2686z"/><path d="m22.109 27.604c0.2371-2.1519 1.7598-3.4091 3.8076-3.4552 1.9138-0.043 3.9409 0.9576 3.9591 3.2774 0 0 0.1972 6.9598 0.1592 7.3048-0.2371 2.1519-2.1736 3.7041-4.3255 3.467-2.1518-0.237-3.3818-2.198-3.467-4.3254l-0.1334-6.2686z"/></g></svg>
