<?xml version="1.0" encoding="UTF-8"?>
<svg id="a" version="1.1" viewBox="0 0 72 72" xmlns="http://www.w3.org/2000/svg"><g id="b" fill="#FCEA2B"><circle cx="36" cy="36.2" r="24"/><path d="m19.1 62.3c-0.3-1.2-0.4-2.4-0.3-3.6 0.2-1.1 2.3-6.5 2.7-7.3s1.4-4.5 2.4-4.8 1.2 0.1 1.1 0.7-0.6 7.7-0.6 7.7l9.4-2.8s7.7-1.9 7.9-1c2.1 2-5.4 4.5-7.5 4.4 0 0 1.1 0.6 0.9 1.3s-0.8 1.2-1 1.2 0.5 0.5 0.6 1.4c0.9 1.8-2.8 2.3-2.8 2.3 1.3-0.2 3.3 2.1 0.1 2.7-1 0.3-4.8 1.4-4.8 1.4s-3.3 1.2-5.2-0.1c-1.2-0.8-2.3-2-2.9-3.5z"/></g><g id="c"><path d="m28.9 44.5c2.4-0.7 11.9 0.5 14.1 2.1" fill="none" stroke="#000" stroke-linecap="round" stroke-linejoin="round" stroke-width="2"/><path d="m22.4 22.5c1.3-0.9 2.8-1.3 4.4-1.1 1.6 0 3.1 0.6 4.2 1.7" fill="none" stroke="#000" stroke-linecap="round" stroke-linejoin="round" stroke-width="2"/><path d="m51.1 26.5c-2.7-0.7-5.5-0.8-8.2-0.3" fill="none" stroke="#000" stroke-linecap="round" stroke-linejoin="round" stroke-width="2"/><path d="M42,58.4c12.3-3.3,19.5-15.9,16.2-28.2S42.3,10.7,30,14c-10,2.7-17,11.8-17,22.2c0,4.6,1.4,9.2,4,13" fill="none" stroke="#000" stroke-linecap="round" stroke-linejoin="round" stroke-width="2"/><path d="m31 30.7c0 1.7-1.3 3-3 3s-3-1.3-3-3 1.3-3 3-3 3 1.3 3 3"/><path d="m48 33.7c0 1.7-1.3 3-3 3s-3-1.3-3-3 1.3-3 3-3 3 1.3 3 3"/><path d="m19.7 56.7c-1 1.6-1.2 3.7-0.5 5.5 1.1 3.3 4 5.2 7.2 4.2l4.9-1.4 1-0.3c0.8-0.2 1.3-1.1 1.1-1.8v0c-0.2-0.5-0.6-0.9-1.2-1l1.2-0.3c0.8-0.2 1.3-1.1 1.1-1.8-0.2-0.5-0.6-1-1.2-1.1l1.2-0.4c0.8-0.2 1.3-1.1 1.1-1.8-0.1-0.5-0.5-0.9-1-1l6.4-1.9c0.8-0.2 1.3-1.1 1.1-1.8s-1.1-1.3-1.8-1.1v0l-15.3 4.5 0.6-7.8c0.1-0.9-1.5-1.2-2.1 0.2l-3.8 9.1z" fill="none" stroke="#000" stroke-linecap="round" stroke-linejoin="round" stroke-width="2"/></g></svg>
