<svg xmlns="http://www.w3.org/2000/svg" id="a" viewBox="0 0 72 72"><g id="b" fill="#fadcbc" stroke="#fadcbc"><path d="m33.44 29.64v-0.94c0.04 0.31 0.04 0.63 0 0.94z"/><path d="m53.88 50.93v0.01c0 10.04-8.23 16.87-17.89 16.87-8.68 0.13-16.08-6.25-17.22-14.85-0.39-2.89-1.06-7.88-1.06-14.88l-2-18.37c-1.61-7.79 5.1565-8.15 6.8165-2.03l1.13 9.0466 0.2085 0.2734s1.272 7.0058 2.1919 7.2158c0.37 0.08 0.1231-3.1858 0.3831-0.6258v-3.95c-0.25-1.9301 1.1-3.71 3.04-3.97 1.93-0.26 3.71 1.1 3.96 3.03v0.94c0.04-0.3101 0.04-0.63 0-0.94-0.25-1.9301 1.17-3.72 3.1-3.98 1.35-0.18 3.08 2.7677 4.09 3.8577 1.19-1.18 1.6835-5.2277 1.6835-5.2277l0.53-14.94c0-5.88 9.2846-5.4635 9.2846-0.0734l1.0634 31.32 0.0485 0.5134 0.64 10.76z"/><path d="m33.44 29.64v-0.94c0.04 0.31 0.04 0.63 0 0.94z"/></g><g id="c" fill="none" stroke="#000" stroke-linecap="round" stroke-width="2"><path stroke-miterlimit="10" d="m18.771 52.956c1.1419 8.6001 8.5393 14.985 17.214 14.857 9.667 0 17.893-6.833 17.893-16.878l-1e-3 -1e-3 -0.657-11.129c-0.1631-2.228-2.0023-3.9616-4.236-3.993h-10c-2.0658-0.1226-3.8473 1.4362-4 3.5 0.1821 2.1099 1.8646 3.7781 3.976 3.942l1.049 0.117c2.187 0.242 3.976 1.342 3.976 2.442v2.44c-2.1534 0.4577-4.1469 1.4784-5.777 2.958"/><path stroke-miterlimit="10" d="m18.771 52.956c-0.3908-2.8898-1.0629-7.8732-1.0629-14.873"/><line x1="17.708" x2="15.771" y1="38.083" y2="19.568" stroke-miterlimit="10"/><line x1="22" x2="22.944" y1="17.917" y2="26.607" stroke-miterlimit="10"/><line x1="43.5" x2="43.042" y1="8.25" y2="23.16" stroke-miterlimit="10"/><line x1="51.875" x2="52.375" y1="8.458" y2="33.292" stroke-miterlimit="10"/><path stroke-miterlimit="10" d="m15.771 19.568c-0.7236-7.7302 5.4982-7.5954 6.2292-1.651"/><path stroke-miterlimit="10" d="m43.5 8.25c0-5.875 8.375-5.1875 8.375 0.2083"/><path stroke-linejoin="round" d="m31.318 40.638c-3.322 1.2271-4.997-1.9342-4.8744-4v-7c-0.2578-1.933 1.1001-3.709 3.0331-3.9669 1.933-0.2578 3.709 1.1001 3.9669 3.0331 0.0413 0.3099 0.0413 0.6239 0 0.9337"/><path stroke-linejoin="round" d="m33.506 34.004v-5.3175c-0.2578-1.933 1.1001-3.709 3.0331-3.9669 1.933-0.2578 3.709 1.1001 3.9669 3.0331 0.0413 0.3099 0.0413 0.6239 0 0.9337l0.031 3.5043"/></g></svg>