<svg xmlns="http://www.w3.org/2000/svg" id="a" viewBox="0 0 72 72"><g id="b"><circle cx="39" cy="36" r="24" fill="#FCEA2B"/><path fill="#fff" d="m8.9985 46.982s16.156 1.2359 24.952-9.8598c0.6645-0.8383 1.9857-2.2668 3.8806-0.9725 0 0 9.3223 7.9456-10.971 28.666 0 0 0.0158-4.8296-2.3762-4.3161-4.3887 0.9421-12.096 4.156-17.881 1.6287 0 0 14.127-6.3368 2.3961-15.147z"/></g><g id="c" fill="none" stroke="#000" stroke-linecap="round" stroke-linejoin="round" stroke-miterlimit="10" stroke-width="2"><polyline points="28.488 27.413 35.075 31.427 28.488 35.164"/><polyline points="50.152 27.413 43.565 31.427 50.152 35.164"/><path d="m38.083 58.982c0.3041 0.0119 0.6098 0.0179 0.9169 0.0179 12.702 0 23-10.298 23-23 0-12.703-10.298-23-23-23-12.703 0-23 10.297-23 23 0 1.914 0.2338 3.7733 0.6744 5.5511"/><polyline points="37.929 50.003 41.129 51.093 44.079 46.273 47.709 49.123 49.769 46.763"/><path d="m8.9985 46.982s16.156 1.2359 24.952-9.8598c0.6645-0.8383 1.9857-2.2668 3.8806-0.9725 0 0 9.3223 7.9456-10.971 28.666 0 0 0.0158-4.8296-2.3762-4.3161-4.3887 0.9421-12.096 4.156-17.881 1.6287 0 0 14.127-6.3368 2.3961-15.147z"/></g></svg>