<?xml version="1.0" encoding="UTF-8"?>
<svg id="a" viewBox="0 0 72 72" xmlns="http://www.w3.org/2000/svg"><g id="b"><line x1="44.96" x2="44.96" y1="44.374" y2="48.845" fill="none" stroke="#000" stroke-linecap="round" stroke-linejoin="round" stroke-width="2"/><circle cx="44.926" cy="51.647" r="1"/><line x1="28.147" x2="27.046" y1="44.081" y2="51.32" fill="none" stroke="#000" stroke-linecap="round" stroke-linejoin="round" stroke-width="2"/><line x1="31.369" x2="30.268" y1="44.081" y2="51.32" fill="none" stroke="#000" stroke-linecap="round" stroke-linejoin="round" stroke-width="2"/><line x1="25.788" x2="33.109" y1="46.097" y2="46.09" fill="none" stroke="#000" stroke-linecap="round" stroke-linejoin="round" stroke-width="2"/><line x1="25.306" x2="32.628" y1="49.283" y2="49.276" fill="none" stroke="#000" stroke-linecap="round" stroke-linejoin="round" stroke-width="2"/><path d="M40.2178,45.7188a1.5322,1.5322,0,0,0-1.4173-.8272,1.5714,1.5714,0,0,0-1.6771,1.3525s-.2434,1.3691,1.8124,1.4336c0,0,1.4607.2435,1.4607,1.4607,0,1.3337-1.4337,1.38-1.4337,1.38s-1.3707.1039-1.752-.732" fill="none" stroke="#000" stroke-linecap="round" stroke-linejoin="round" stroke-width="2"/><line x1="38.805" x2="38.805" y1="44.64" y2="43.634" fill="none" stroke="#000" stroke-linecap="round" stroke-linejoin="round" stroke-width="2"/><line x1="38.805" x2="38.805" y1="51.778" y2="50.772" fill="none" stroke="#000" stroke-linecap="round" stroke-linejoin="round" stroke-width="2"/></g><g id="c"><path d="m36 13a23 23 0 1 0 23 23 23.026 23.026 0 0 0-23-23z" fill="#ea5a47"/><rect x="19.518" y="41.076" width="32.264" height="13.574" rx="4.0768" fill="#3f3f3f"/><line x1="44.96" x2="44.96" y1="44.374" y2="48.845" fill="none" stroke="#fff" stroke-linecap="round" stroke-linejoin="round" stroke-width="2"/><circle cx="44.926" cy="51.647" r="1" fill="#fff"/><line x1="28.147" x2="27.046" y1="44.081" y2="51.32" fill="none" stroke="#fff" stroke-linecap="round" stroke-linejoin="round" stroke-width="2"/><line x1="31.369" x2="30.268" y1="44.081" y2="51.32" fill="none" stroke="#fff" stroke-linecap="round" stroke-linejoin="round" stroke-width="2"/><line x1="25.788" x2="33.109" y1="46.097" y2="46.09" fill="none" stroke="#fff" stroke-linecap="round" stroke-linejoin="round" stroke-width="2"/><line x1="25.306" x2="32.628" y1="49.283" y2="49.276" fill="none" stroke="#fff" stroke-linecap="round" stroke-linejoin="round" stroke-width="2"/><path d="M40.2178,45.7188a1.5322,1.5322,0,0,0-1.4173-.8272,1.5714,1.5714,0,0,0-1.6771,1.3525s-.2434,1.3691,1.8124,1.4336c0,0,1.4607.2435,1.4607,1.4607,0,1.3337-1.4337,1.38-1.4337,1.38s-1.3707.1039-1.752-.732" fill="none" stroke="#fff" stroke-linecap="round" stroke-linejoin="round" stroke-width="2"/><line x1="38.805" x2="38.805" y1="44.64" y2="43.634" fill="none" stroke="#fff" stroke-linecap="round" stroke-linejoin="round" stroke-width="2"/><line x1="38.805" x2="38.805" y1="51.778" y2="50.772" fill="none" stroke="#fff" stroke-linecap="round" stroke-linejoin="round" stroke-width="2"/></g><g id="d"><circle cx="36" cy="36" r="23" fill="none" stroke="#000" stroke-miterlimit="10" stroke-width="2"/><path d="m30 33.925a3 3 0 1 1-3-3 3.0012 3.0012 0 0 1 3 3"/><path d="m48 33.925a3 3 0 1 1-3-3 3.0011 3.0011 0 0 1 3 3"/><line x1="23" x2="30" y1="25.113" y2="29.113" fill="none" stroke="#000" stroke-linecap="round" stroke-linejoin="round" stroke-width="2"/><line x1="49" x2="42" y1="25.113" y2="29.113" fill="none" stroke="#000" stroke-linecap="round" stroke-linejoin="round" stroke-width="2"/><rect x="19.868" y="41.076" width="32.264" height="13.574" rx="4.0768" fill="none" stroke="#000" stroke-miterlimit="2" stroke-width="2"/></g></svg>
