<?xml version="1.0" encoding="UTF-8"?>
<svg id="a" viewBox="0 0 72 72" xmlns="http://www.w3.org/2000/svg"><g id="b"><path d="m36 59.958a24.034 24.034 0 0 1-15.34-5.541 24.001 24.001 0 1 1 15.34 5.541z" fill="#fcea2b"/><circle cx="25.112" cy="39.318" r="5.1783" fill="#ffa7c0"/><circle cx="46.888" cy="39.318" r="5.1783" fill="#ffa7c0"/><path d="M35.16,66.938c-.0235,0-.0479-.001-.0723-.0029l-9.7-.7a.9994.9994,0,0,1-.9082-1.1934c.5361-2.68.9932-4.7227,1.2285-5.7773-.1533-.3135-.3057-.6387-.459-.9639-.1943-.4131-.3886-.8262-.583-1.2158-.208-.416-.6416-1.2832-1.3017-8.6573-.2032-2.03-.1514-3.5039.7373-4.54A2.51,2.51,0,0,1,26.06,42.938a2.5558,2.5558,0,0,1,2.3389,1.4092,39.2737,39.2737,0,0,1,2.6065-5.1289A3.4339,3.4339,0,0,1,33.71,37.231a2.5618,2.5618,0,0,1,1.4434.3916c1.2422-1.5723,2.6582-1.6739,3.668-1.1631A3.3912,3.3912,0,0,1,40.55,39.2173a2.6063,2.6063,0,0,1,.8037.2021A2.3671,2.3671,0,0,1,42.86,41.7378a5.8814,5.8814,0,0,1-.59,2.4912,2.6338,2.6338,0,0,1,.584.7627,4.0721,4.0721,0,0,1-.12,3.7324l-.8506,1.6074c-.2149.6573-.376,1.3174-.5322,1.9571l-.1211.4922a21.7084,21.7084,0,0,1-2.3936,6.539A5.8494,5.8494,0,0,1,37.2,61.312c-.0674.0664-.1328.127-.1934.1846a2.2249,2.2249,0,0,0-.2763.2861l-.07.4326a36.5585,36.5585,0,0,0-.502,3.7852,1,1,0,0,1-.998.9375Z" fill="#fcea2b"/></g><g id="c"><path d="M25.46,65.2381c.6-3,1.1-5.2,1.3-6.1-.4-.8-.8-1.7-1.2-2.5-.2-.4-.6-1.6-1.2-8.3-.2-2-.1-3.1.5-3.8a1.5628,1.5628,0,0,1,1.2-.6c1.3,0,1.7,1.2,2,2.4l.1.3.2.6a39.4783,39.4783,0,0,1,3.5-7.5c1.8-3,3.5-.6,3.5-.6,2.2-4.1,5-.8,4,1.3a1.9811,1.9811,0,0,1,1.6-.1,1.4158,1.4158,0,0,1,.9,1.4,5.2848,5.2848,0,0,1-.9,2.8,2.1889,2.1889,0,0,1,1,.9,3.0777,3.0777,0,0,1-.1,2.8l-.9,1.7c-.3.9-.5,1.8-.7,2.6a20.7835,20.7835,0,0,1-2.3,6.3,4.7436,4.7436,0,0,1-1.4,1.7c-.4.4-.7.6-.8,1a42.7765,42.7765,0,0,0-.6,4.4" fill="none" stroke="#000" stroke-linecap="round" stroke-linejoin="round" stroke-width="2"/></g><g id="d" fill="none" stroke="#000" stroke-linecap="round" stroke-width="2"><path d="m21.4 53.648a22.996 22.996 0 1 1 21.539 4.2758" stroke-linejoin="round"/><path d="m31.635 31.736a4.6154 4.6154 0 0 0-6.2-2.4 4.6846 4.6846 0 0 0-2.4 2.4" stroke-miterlimit="10"/><path d="m48.835 31.736a4.6154 4.6154 0 0 0-6.2-2.4 4.6846 4.6846 0 0 0-2.4 2.4" stroke-miterlimit="10"/><path d="M25.46,65.2381c.6-3,1.1-5.2,1.3-6.1-.4-.8-.8-1.7-1.2-2.5-.2-.4-.6-1.6-1.2-8.3-.2-2-.1-3.1.5-3.8a1.5628,1.5628,0,0,1,1.2-.6c1.3,0,1.7,1.2,2,2.4l.1.3.2.6a39.4783,39.4783,0,0,1,3.5-7.5c1.8-3,3.5-.6,3.5-.6,2.2-4.1,5-.8,4,1.3a1.9811,1.9811,0,0,1,1.6-.1,1.4158,1.4158,0,0,1,.9,1.4,5.2848,5.2848,0,0,1-.9,2.8,2.1889,2.1889,0,0,1,1,.9,3.0777,3.0777,0,0,1-.1,2.8l-.9,1.7c-.3.9-.5,1.8-.7,2.6a20.7835,20.7835,0,0,1-2.3,6.3,4.7436,4.7436,0,0,1-1.4,1.7c-.4.4-.7.6-.8,1a42.7765,42.7765,0,0,0-.6,4.4" stroke-linejoin="round"/></g></svg>
