<?xml version="1.0" encoding="UTF-8"?>
<svg id="a" viewBox="0 0 72 72" xmlns="http://www.w3.org/2000/svg"><g id="b" fill="#FCEA2B"><path d="m36 12c-13.234 0-24 10.766-24 24s10.766 24 24 24 24-10.766 24-24c1e-4 -13.234-10.766-24-24-24z"/><path d="m37.43 44.162s8.7363-0.0809 12.075 0.5893c3.3387 0.6701 6.7322 2.0667 9.1412 0.9499 1.1362-0.5267 1.6476-1.6404 1.7222-2.7085 0.1014-1.0659-0.2206-2.2484-1.255-2.9542-2.1935-1.4965-5.7742-0.6235-9.1776-0.5096s-12.008-1.3976-12.008-1.3976"/></g><g id="c"><path d="m20.949 27.277c0.851-1.3097 2.1554-2.2567 3.6642-2.659 1.4662-0.5614 3.0882-0.5534 4.5496 0.0179" fill="none" stroke="#000" stroke-linecap="round" stroke-linejoin="round" stroke-miterlimit="10" stroke-width="2"/><path d="m50.559 26.272c-1.3537-2.8907-4.4525-4.543-7.6074-4.056" fill="none" stroke="#000" stroke-linecap="round" stroke-linejoin="round" stroke-miterlimit="10" stroke-width="2"/><path d="m58.963 34.699c-0.6744-12.098-10.698-21.699-22.964-21.699-12.703 0-23 10.297-23 23 0 12.702 10.297 23 23 23 7.0803 0 13.414-3.1996 17.633-8.2316" fill="none" stroke="#000" stroke-linecap="round" stroke-linejoin="round" stroke-miterlimit="10" stroke-width="2"/><path d="m30 31c0 1.6568-1.3448 3-3 3-1.6553 0-3-1.3433-3-3 0-1.6552 1.3447-3 3-3 1.6552 0 3 1.3448 3 3"/><path d="m48 31c0 1.6568-1.3447 3-3 3s-3-1.3433-3-3c0-1.6552 1.3447-3 3-3s3 1.3448 3 3"/><path d="m39.722 50.635s-5.7186-1.8346-8.8718 1.5503" fill="none" stroke="#000" stroke-linecap="round" stroke-linejoin="round" stroke-miterlimit="10" stroke-width="2"/><path d="m37.43 44.162s8.7363-0.0809 12.075 0.5893c3.3387 0.6701 6.7322 2.0667 9.1412 0.9499 1.1362-0.5267 1.6476-1.6404 1.7222-2.7085 0.1014-1.0659-0.2206-2.2484-1.255-2.9542-2.1935-1.4965-5.7742-0.6235-9.1776-0.5096s-12.008-1.3976-12.008-1.3976" fill="none" stroke="#000" stroke-linecap="round" stroke-linejoin="round" stroke-miterlimit="10" stroke-width="2"/></g></svg>
