<?xml version="1.0" encoding="UTF-8"?>
<svg id="a" version="1.1" viewBox="0 0 72 72" xmlns="http://www.w3.org/2000/svg"><g id="b"><path d="M17,60.958L15.875,57c0-5.875,6.1328-10,11.125-10c6,5,12,5,18,0c4.9941,0,10,5.0059,10,10v3.958" fill="#92D3F5"/></g><g id="c"><path d="m20.265 49.272c2.0396-1.4404 4.4996-2.272 6.7346-2.272 6 5 12 5 18 0 1.8959 0 3.7919 0.7239 5.4167 1.8923 0.7012-0.423 1.4046-0.861 2.1135-1.3337-0.3916 0.3906 3.5781-7.6279 0.8447-12.371-0.4385-0.8535-0.9805-2.3496-1.3125-3.25-1.4727-3.2695-1.8623-4.0313-2.1875-10.062 0.0273-3.6929-3.1562-6.999-6.8369-7.3076-0.2656-0.0181-0.5137-0.1416-0.6885-0.3433-0.0928-0.0996-2.8271-3.0366-7.6621-3.0366-6.2002 0-11.306 4.0464-12.607 8.8906-0.5342 2.0122-2.6553 2.0952-2.4951 4.171 0.2041 2.019-0.0098 7.0098-0.7139 8.912-0.2481 0.7559-0.627 1.463-1.1191 2.088-3.7725 4.4199 0.4316 12.446 0.2392 12.153 0.7491 0.6817 1.509 1.2935 2.2743 1.8696z" fill="#fcea2b"/></g><g id="d" fill="#debb90"><path d="m28.875 60.958c0.0049-0.5703-0.6973-10.409 0-14.972 0.2666-1.7461 2-1.9863 3-3.9863 3-6 1.833-8.333 4-14 1.1299-2.9541-1.5645-3.7236-3.127-0.6001l3.0079-3.7939c1.2041-3.3145-2.5879-4.4395-4.2559-2.606l-1.8271 3.6265c1.5693-2.3536-0.9815-4.1485-2.6729-2.375-1.5791 1.6557-3.624 6.2949-5.125 10.748 0 0-0.1172-2.1943 0.8125-4.1875 0.5645-1.21 0.2285-2.9492-1.6875-2.8125-0.9971 0.0713-1.7637 2.7734-2.54 5.667-0.7803 2.9067 0.0879 7.1562 0.7197 8.4209 1.4141 2.8281 1.6953 2.8984 1.6953 2.8984s-2 8.9717-4 17.972"/><path d="m24.125 31c-0.1562 8.7187 4.4063 15 11.812 15 7.0635 0 11.064-7 11.064-15 0-5-8.916-13.499-8.916-13.499-3.75 3.583-6.874 12.778-12.75 10.3 0 0-1.1192-1.8008-1.209 3.1987z"/></g><g id="e"><path d="m20.478 24.004c0.0371-1.1914 0.1895-2.5352 0.627-4.1616 1.4795-5.5 7.2773-8.9658 13.709-8.9658 5.4003 0 8 3 8 3 4.1689 0.374 7.373 3.8515 7.4052 8.0371 0.3867 7.1796 1.0244 7.1523 3.4287 12.822 1.7159 3.9698 1.0762 8.5567-1.6377 11.904" fill="none" stroke="#000" stroke-linecap="round" stroke-linejoin="round" stroke-width="2"/><path d="m41.873 30c0 1.1045-0.8955 2-2 2-1.1044 0-2-0.8955-2-2s0.8956-2 2-2c1.1045 0 2 0.8955 2 2"/><path d="m37.438 38h1.5625" fill="none" stroke="#000" stroke-linecap="round" stroke-linejoin="round" stroke-width="2"/><path d="m55 60v-3c0-4.9941-5.0059-9-10-9-3.3652 2.8027-6.8389 3.6934-10.094 3.6934-0.7042 0-1.4415-0.0655-2.0538-0.1402" fill="none" stroke="#000" stroke-linecap="round" stroke-linejoin="round" stroke-width="2"/><path d="M32.3457,21.542C30.1553,24.8276,30.4473,24.3462,27,31" fill="none" stroke="#000" stroke-linecap="round" stroke-linejoin="round" stroke-miterlimit="10" stroke-width="2"/><path d="m22 32.602c2.25-4.333 4.1094-7.81 5.5313-9.6025" fill="none" stroke="#000" stroke-linecap="round" stroke-linejoin="round" stroke-miterlimit="10" stroke-width="2"/><path d="m17 60c2-9 4-17.411 4-17.411s-0.5859-0.7603-2-3.5889c-2-4 0-9 2-12" fill="none" stroke="#000" stroke-linecap="round" stroke-linejoin="round" stroke-miterlimit="10" stroke-width="2"/><path d="m35 23c-1.2832 2.5649-2.8262 5.4771-4 9" fill="none" stroke="#000" stroke-linecap="round" stroke-linejoin="round" stroke-miterlimit="10" stroke-width="2"/><path d="m29 60c0.0049-0.5703-0.6973-9.4512 0-14.014 0.2666-1.7461 2.1914-2.289 3-3.9863 1.9063-4 2.334-7.8057 3.9365-14" fill="none" stroke="#000" stroke-linecap="round" stroke-linejoin="round" stroke-miterlimit="10" stroke-width="2"/><path d="m37.326 19.711c0.5107-0.5605 0.9062-1.1352 1.6738-1.7114 0 0 4 5.0005 7 8 0 0 1 2.0005 1 5.0005 0 9-5.127 14-11.064 14-0.2187 0-0.5595-0.0229-0.9365-0.0562" fill="none" stroke="#000" stroke-linecap="round" stroke-linejoin="round" stroke-width="2"/></g></svg>
