<svg xmlns="http://www.w3.org/2000/svg" id="a" viewBox="0 0 72 72"><g id="b"><circle cx="36" cy="36" r="24" fill="#FCEA2B"/><polygon fill="#F1B31C" points="25.042 21.237 33.028 20.036 29.124 27.106 32.734 34.33 24.804 32.801 19.048 38.466 18.052 30.452 10.886 26.729 18.2 23.305 19.526 15.339"/><polygon fill="#F1B31C" points="46.882 21.237 38.896 20.036 42.801 27.106 39.191 34.33 47.121 32.801 52.876 38.466 53.872 30.452 61.039 26.729 53.725 23.305 52.399 15.339"/><path fill="#EA5A47" d="m49.737 46.356c-1.79 4.27-6.35 7.23-13.7 7.23-7.41 0-12.03-3.03-13.8-7.36 2.03 0.46 14.98 3.1699 27.5 0.13z"/><path fill="#fff" d="m50.607 41.866c0 1.6-0.29 3.11-0.87 4.49-12.52 3.04-25.47 0.33-27.5-0.13-0.55-1.35-0.83-2.82-0.83-4.36h0.11s14.81 3.59 28.89 0.07l0.2-0.07z"/></g><g id="c" fill="none" stroke="#000" stroke-linejoin="round" stroke-miterlimit="10" stroke-width="2"><path stroke-linecap="round" d="m50.607 41.866c0 1.6-0.29 3.11-0.87 4.49-12.52 3.04-25.47 0.33-27.5-0.13-0.55-1.35-0.83-2.82-0.83-4.36h0.11s14.81 3.59 28.89 0.07l0.2-0.07z"/><path d="m49.737 46.356c-1.79 4.27-6.35 7.23-13.7 7.23-7.41 0-12.03-3.03-13.8-7.36 2.03 0.46 14.98 3.1699 27.5 0.13z"/><path d="m50.227 46.236c-0.16 0.04-0.33 0.08-0.49 0.12"/><path d="m22.237 46.226c-0.19-0.05-0.28-0.07-0.28-0.07"/><path stroke-linecap="round" d="M46.5542,15.5591C43.3932,13.9237,39.8045,13,36,13c-3.9546,0-7.676,0.9979-10.9261,2.7556 c-0.0502,0.0271-0.1002,0.0544-0.1501,0.0819"/><path stroke-linecap="round" d="m13.194 32.995c-0.1283 0.9833-0.1944 1.9862-0.1944 3.0046 0 12.702 10.297 23 23 23 12.702 0 23-10.298 23-23 0-1.0073-0.0648-1.9995-0.1903-2.9726"/><polygon stroke-linecap="round" points="25.118 21.237 33.104 20.036 29.199 27.106 32.809 34.33 24.879 32.801 19.124 38.466 18.128 30.452 10.961 26.729 18.275 23.305 19.601 15.339"/><polygon stroke-linecap="round" points="46.882 21.237 38.896 20.036 42.801 27.106 39.191 34.33 47.121 32.801 52.876 38.466 53.872 30.452 61.039 26.729 53.725 23.305 52.399 15.339"/></g></svg>