<svg xmlns="http://www.w3.org/2000/svg" id="a" viewBox="0 0 72 72"><g id="b"><circle cx="36" cy="38" r="24" fill="#FCEA2B"/><path fill="#6A462F" d="m36 23.315c9.267-0.1288 15.334-2.4577 15.334-2.4577 2.5862 2.315 4.6453 5.2066 5.9755 8.4727 0 0 10.595-8.3618 2.2954-15.105 0 0-4.0069-3.8593-10.036 1.6462 0 0-3.8861 3.6651-13.569 3.706-9.683-0.0409-13.569-3.706-13.569-3.706-6.0294-5.5055-10.036-1.6462-10.036-1.6462-8.2994 6.7434 2.2954 15.105 2.2954 15.105 1.3301-3.2661 3.3893-6.1577 5.9755-8.4727 0 0 6.0675 2.329 15.334 2.4577z"/><path fill="#6A462F" d="m36 19.577c6.0519-0.0256 9.767-1.4279 11.757-2.5053 0 0-1.6341-0.5702-1.3904-2.7816 0.0725-0.6576 0.3541-1.6277 0.7107-2.549 0.6391-1.651 0.1938-2.9689-4.1138-5.1348 0 0-2.0825-1.0407-2.8202-1.2739-1.083-0.3423-2.9339-0.6203-4.1429 0.8181-1.209-1.4384-3.0599-1.1604-4.1428-0.8181-0.7377 0.2332-2.8202 1.2739-2.8202 1.2739-4.3076 2.1659-4.7529 3.4838-4.1138 5.1348 0.3566 0.9213 0.6382 1.8914 0.7107 2.549 0.2437 2.2114-1.3904 2.7816-1.3904 2.7816 1.9895 1.0774 5.7046 2.4797 11.756 2.5053z"/><path fill="#fff" d="m50.595 43.64c0.012 1.5397-0.2838 3.0662-0.87 4.49-12.49 3.03-25.43 0.34-27.49-0.13-0.5588-1.3852-0.8407-2.8664-0.83-4.36h0.11s14.8 3.59 28.89 0.07l0.19-0.07z"/><path fill="#EA5A47" d="m49.725 48.13c-1.79 4.27-6.35 7.23-13.69 7.23-7.41 0-12.03-3.03-13.8-7.36 2.06 0.47 15 3.16 27.49 0.13z"/></g><g id="c"><ellipse cx="28.068" cy="32.818" rx="3" ry="5.404"/><ellipse cx="43.932" cy="32.822" rx="3" ry="5.404"/><path fill="none" stroke="#000" stroke-linecap="round" stroke-linejoin="round" stroke-miterlimit="10" stroke-width="2" d="M58.4382,32.925C58.8059,34.5577,59,36.2562,59,38c0,12.7025-10.2975,23-23,23S13,50.7025,13,38 c0-1.7438,0.1941-3.4423,0.5618-5.075"/><path fill="none" stroke="#000" stroke-linecap="round" stroke-linejoin="round" stroke-miterlimit="10" stroke-width="2" d="m36 23.315c9.267-0.1288 15.334-2.4577 15.334-2.4577 2.5862 2.315 4.6453 5.2066 5.9755 8.4727 0 0 10.595-8.3618 2.2954-15.105 0 0-4.0069-3.8593-10.036 1.6462 0 0-3.8861 3.6651-13.569 3.706-9.683-0.0409-13.569-3.706-13.569-3.706-6.0294-5.5055-10.036-1.6462-10.036-1.6462-8.2994 6.7434 2.2954 15.105 2.2954 15.105 1.3301-3.2661 3.3893-6.1577 5.9755-8.4727 0 0 6.0675 2.329 15.334 2.4577z"/><path fill="none" stroke="#000" stroke-linecap="round" stroke-linejoin="round" stroke-miterlimit="10" stroke-width="2" d="m36 19.577c6.0519-0.0256 9.767-1.4279 11.757-2.5053 0 0-1.6341-0.5702-1.3904-2.7816 0.0725-0.6576 0.3541-1.6277 0.7107-2.549 0.6391-1.651 0.1938-2.9689-4.1138-5.1348 0 0-2.0825-1.0407-2.8202-1.2739-1.083-0.3423-2.9339-0.6203-4.1429 0.8181-1.209-1.4384-3.0599-1.1604-4.1428-0.8181-0.7377 0.2332-2.8202 1.2739-2.8202 1.2739-4.3076 2.1659-4.7529 3.4838-4.1138 5.1348 0.3566 0.9213 0.6382 1.8914 0.7107 2.549 0.2437 2.2114-1.3904 2.7816-1.3904 2.7816 1.9895 1.0774 5.7046 2.4797 11.756 2.5053v0z"/><path fill="none" stroke="#000" stroke-linecap="round" stroke-linejoin="round" stroke-width="2" d="m50.595 43.64c0.012 1.5397-0.2838 3.0662-0.87 4.49-12.49 3.03-25.43 0.34-27.49-0.13-0.5588-1.3852-0.8407-2.8664-0.83-4.36h0.11s14.8 3.59 28.89 0.07l0.19-0.07z"/><path fill="none" stroke="#000" stroke-linecap="round" stroke-linejoin="round" stroke-width="2" d="m49.725 48.13c-1.79 4.27-6.35 7.23-13.69 7.23-7.41 0-12.03-3.03-13.8-7.36 2.06 0.47 15 3.16 27.49 0.13z"/></g></svg>