<?xml version="1.0" encoding="UTF-8"?>
<svg id="a" viewBox="0 0 72 72" xmlns="http://www.w3.org/2000/svg"><g id="b"><circle cx="36" cy="36" r="24" fill="#FCEA2B"/><path d="m47.2 51.282c2.4604 0 5.4331 1.947 5.4331 3.6822 0 1.1754-0.9151 2.2-2.2701 2.7388 0.9556 3.1123-1.2429 4.6605-2.9806 4.8865-1.0209 0.1328-2.1134-0.4142-2.7863-1.093 0 1.3994-1.1345 2.5339-2.5339 2.5339s-2.9144-0.937-2.9144-2.3364c-0.3126 1.0449-1.2813 1.8065-2.428 1.8065-1.0988 0-2.2616-0.8964-2.6128-1.8743-0.3646 1.4932-1.6132 2.2102-2.9144 1.9393-1.0753-0.2239-1.8354-1.051-1.9545-1.9724-0.1766 1.2269-1.5284 2.4373-2.8041 2.4373-1.3994 0-2.5339-1.1345-2.5339-2.5339-1.3994 0-3.1504-0.8857-3.1504-2.2852 0-1.3994 1.1473-2.6613 2.5467-2.6613-0.6745-0.4553-1.118-1.2267-1.118-2.1017 0-1.3994 1.7368-2.7662 3.1362-2.7662-0.1313-0.2663-0.2489-0.5384-0.3522-0.8158-0.3427-0.9206-0.5273-1.8993-0.5273-2.9141 0-5.4121 5.2516-9.7995 11.73-9.7995s11.73 4.3874 11.73 9.7995c0 1.169-0.245 2.2903-0.6945 3.3298z" fill="#B1CC33"/></g><g id="c" fill="none" stroke="#000" stroke-linecap="round" stroke-linejoin="round" stroke-miterlimit="10" stroke-width="2"><polyline points="25.168 26.413 31.755 30.426 25.168 34.164"/><polyline points="46.832 26.413 40.245 30.426 46.832 34.164"/><path d="m54.22 50.039c2.9973-3.8841 4.7803-8.7533 4.7803-14.039 0-12.703-10.298-23-23-23-12.703 0-23 10.297-23 23 0 5.9897 2.2896 11.445 6.0414 15.538"/><path d="m43.281 19.071c0.5464 1.4632 1.6142 2.6709 2.9996 3.3911 1.3093 0.8663 2.8945 1.2106 4.4451 0.9702"/><path d="m28.719 19.071c-0.5464 1.4632-1.6142 2.6709-2.9996 3.3911-1.3093 0.8663-2.8945 1.2106-4.4451 0.9702"/><path d="m47.2 51.282c2.4604 0 5.4331 1.947 5.4331 3.6822 0 1.1754-0.9151 2.2-2.2701 2.7388 0.9556 3.1123-1.2429 4.6605-2.9806 4.8865-1.0209 0.1328-2.1134-0.4142-2.7863-1.093 0 1.3994-1.1345 2.5339-2.5339 2.5339s-2.9144-0.937-2.9144-2.3364c-0.3126 1.0449-1.2813 1.8065-2.428 1.8065-1.0988 0-2.2616-0.8964-2.6128-1.8743-0.3646 1.4932-1.6132 2.2102-2.9144 1.9393-1.0753-0.2239-1.8354-1.051-1.9545-1.9724-0.1766 1.2269-1.5284 2.4373-2.8041 2.4373-1.3994 0-2.5339-1.1345-2.5339-2.5339-1.3994 0-3.1504-0.8857-3.1504-2.2852 0-1.3994 1.1473-2.6613 2.5467-2.6613-0.6745-0.4553-1.118-1.2267-1.118-2.1017 0-1.3994 1.7368-2.7662 3.1362-2.7662-0.1313-0.2663-0.2489-0.5384-0.3522-0.8158-0.3427-0.9206-0.5273-1.8993-0.5273-2.9141 0-5.4121 5.2516-9.7995 11.73-9.7995s11.73 4.3874 11.73 9.7995c0 1.169-0.245 2.2903-0.6945 3.3298z"/></g></svg>
