<svg xmlns="http://www.w3.org/2000/svg" id="a" viewBox="0 0 72 72"><g id="b"><path fill="#D22F27" d="m13.845 27.933s-2.047-1.4682-0.6019-3.1236c0 0-2.2788-2.0129-0.4281-3.9039 0 0-1.2382-4.0732 2.1382-4.309 0 0-0.3899-4.0721 4.079-3.5985 0 0 2.5018-1.8015 4.3561 0.2489 0 0 2.5324-1.6079 3.8427 0.4026"/><path fill="#D22F27" d="m58.155 27.933s2.047-1.4682 0.6019-3.1236c0 0 2.2788-2.0129 0.4281-3.9039 0 0 1.2382-4.0732-2.1382-4.309 0 0 0.3899-4.0721-4.079-3.5985 0 0-2.5018-1.8015-4.3561 0.2489 0 0-2.5324-1.6079-3.8427 0.4026"/><circle cx="36" cy="36" r="23" fill="#fff"/><path fill="#D22F27" d="m49.807 46.546s-1.58 8.43-13.81 8.76c-12.18-0.44-13.81-8.76-13.81-8.76-0.46-1.73-1.2401-5.76 2.28-3.81 2.7 1.5 5.38 4.37 11.53 4.55 6.16-0.18 8.83-3.05 11.53-4.55 3.52-1.95 2.75 2.08 2.28 3.81z"/><path fill="#fff" d="m35.998 52.734c-6.0618 0-9.9298-3.3099-10.911-4.9147s0.5505-1.1552 0.866-1.003c2.3137 1.1164 4.0412 2.6979 10.045 2.9036m0 3.0141c6.0618 0 9.9298-3.3099 10.911-4.9147s-0.5505-1.1552-0.866-1.003c-2.3138 1.1164-4.0412 2.6979-10.045 2.9036"/></g><g id="c"><path fill="none" stroke="#000" stroke-linecap="round" stroke-linejoin="round" stroke-miterlimit="10" stroke-width="2" d="m23.443 21.175c2.8989-1.5543 6.1935-1.6129 8.6558 0"/><path fill="none" stroke="#000" stroke-linecap="round" stroke-linejoin="round" stroke-miterlimit="10" stroke-width="2" d="m39.901 21.175c2.8989-1.5543 6.1935-1.6129 8.6558 0"/><path fill="none" stroke="#000" stroke-linecap="round" stroke-linejoin="round" stroke-miterlimit="10" stroke-width="2" d="m49.808 46.546s-1.58 8.43-13.81 8.76c-12.18-0.44-13.81-8.76-13.81-8.76-0.46-1.73-1.2401-5.76 2.28-3.81 2.7 1.5 5.38 4.37 11.53 4.55 6.16-0.18 8.83-3.05 11.53-4.55 3.52-1.95 2.75 2.08 2.28 3.81z"/><path fill="none" stroke="#000" stroke-linecap="round" stroke-linejoin="round" stroke-miterlimit="10" stroke-width="2" d="m13.845 27.933s-2.047-1.4682-0.6019-3.1236c0 0-2.2788-2.0129-0.4281-3.9039 0 0-1.2382-4.0732 2.1382-4.309 0 0-0.3899-4.0721 4.079-3.5985 0 0 2.5018-1.8015 4.3561 0.2489 0 0 2.5324-1.6079 3.8427 0.4026"/><circle cx="36" cy="36" r="23" fill="none" stroke="#000" stroke-linecap="round" stroke-linejoin="round" stroke-miterlimit="10" stroke-width="2"/><path fill="none" stroke="#000" stroke-linecap="round" stroke-linejoin="round" stroke-miterlimit="10" stroke-width="2" d="m58.155 27.933s2.047-1.4682 0.6019-3.1236c0 0 2.2788-2.0129 0.4281-3.9039 0 0 1.2382-4.0732-2.1382-4.309 0 0 0.3899-4.0721-4.079-3.5985 0 0-2.5018-1.8015-4.3561 0.2489 0 0-2.5324-1.6079-3.8427 0.4026"/><ellipse cx="27.771" cy="30.818" fill="none" stroke="#000" stroke-miterlimit="10" stroke-width="2" rx="3.5" ry="6.304"/><ellipse cx="44.229" cy="30.822" fill="none" stroke="#000" stroke-miterlimit="10" stroke-width="2" rx="3.5" ry="6.304"/><circle cx="36" cy="38.978" r="2.735"/></g><g id="d"><ellipse cx="27.771" cy="30.818" fill="none" stroke="#92D3F5" stroke-miterlimit="10" stroke-width="2.1" rx="3.5" ry="6.304"/><ellipse cx="44.229" cy="30.822" fill="none" stroke="#92D3F5" stroke-miterlimit="10" stroke-width="2.1" rx="3.5" ry="6.304"/><path d="m30.268 30.816c0 3.04-1.32 5.31-2.5 5.31s-2.5-2.27-2.5-5.31c0-3.03 1.32-5.3 2.5-5.3s2.5 2.2701 2.5 5.3z"/><path d="m46.728 30.826c0 3.03-1.32 5.3-2.5 5.3s-2.5-2.27-2.5-5.3c0-3.04 1.32-5.31 2.5-5.31s2.5 2.27 2.5 5.31z"/><circle cx="36.056" cy="38.978" r="2.735" fill="#D22F27"/></g></svg>