<svg xmlns="http://www.w3.org/2000/svg" id="a" version="1.1" viewBox="0 0 72 72"><g id="b"><path fill="#92D3F5" d="M16,60.958L15.875,57c0-5.875,6.1328-10,11.125-10c6,5,12,5,18,0c4.9941,0,10,5.0059,10,10v3.958"/></g><g id="c"><path fill="#fcea2b" d="m26 38c-3 0-4.958-6.333-5-14-0.0332-6 6-12 15-12s14 6 14 12c0 7-1 14-4 14"/></g><g id="d" fill="#debb90"><path d="m24.125 31c-0.1562 8.7187 4.4063 15 11.812 15 7.0635 0 11.064-7 11.064-15 0-5-3-10-3-10-8 0-10.124 3.729-16 1.2515 0 0-3.7852 3.749-3.875 8.7485z"/><path d="m28.875 60.958c0.0049-0.5703-0.6973-10.409 0-14.972 0.2666-1.7461 2-1.9863 3-3.9863 3-6 1.833-8.333 4-14 1.1299-2.9541-1.5645-3.7236-3.127-0.6001l3.0079-3.7939c1.2041-3.3145-2.5879-4.4395-4.2559-2.606l-1.8271 3.6265c1.5693-2.3536-0.9815-4.1485-2.6729-2.375-1.5791 1.6557-3.624 6.2949-5.125 10.748 0 0-0.1172-2.1943 0.8125-4.1875 0.5645-1.21 0.2285-2.9492-1.6875-2.8125-0.9971 0.0713-1.7637 2.7734-2.54 5.667-0.7803 2.9067 0.0879 7.1562 0.7197 8.4209 1.4141 2.8281 1.6953 2.8984 1.6953 2.8984s-2 8.9717-4 17.972"/></g><g id="e"><path fill="none" stroke="#000" stroke-linecap="round" stroke-linejoin="round" stroke-miterlimit="10" stroke-width="2" d="M32.3457,21.542C30.1553,24.8276,30.4473,24.3462,27,31"/><path fill="none" stroke="#000" stroke-linecap="round" stroke-linejoin="round" stroke-miterlimit="10" stroke-width="2" d="m22 32.602c2.25-4.333 4.1094-7.81 5.5313-9.6025"/><path fill="none" stroke="#000" stroke-linecap="round" stroke-linejoin="round" stroke-miterlimit="10" stroke-width="2" d="m17 60c2-9 4-17.411 4-17.411s-0.5859-0.7603-2-3.5889c-2-4 0-9 2-12"/><path fill="none" stroke="#000" stroke-linecap="round" stroke-linejoin="round" stroke-miterlimit="10" stroke-width="2" d="m35 23c-1.2832 2.5649-2.8262 5.4771-4 9"/><path fill="none" stroke="#000" stroke-linecap="round" stroke-linejoin="round" stroke-miterlimit="10" stroke-width="2" d="m29 60c0.0049-0.5703-0.6973-9.4512 0-14.014 0.2666-1.7461 2.1914-2.289 3-3.9863 1.9063-4 2.334-7.8057 3.9365-14"/><path fill="none" stroke="#000" stroke-linecap="round" stroke-linejoin="round" stroke-width="2" d="m46 38c3 0 4-7 4-14 0-6-5-12-14-12-8.7617 0-13.732 3.7915-13.989 11.374"/><path d="m41.873 30c0 1.1045-0.8955 2-2 2-1.1044 0-2-0.8955-2-2s0.8956-2 2-2c1.1045 0 2 0.8955 2 2"/><path fill="none" stroke="#000" stroke-linecap="round" stroke-linejoin="round" stroke-width="2" d="m37.438 38h1.5625"/><path fill="none" stroke="#000" stroke-linecap="round" stroke-linejoin="round" stroke-width="2" d="M37.998,20.6182 c0.712-0.1426,1.4581-0.2745,2.252-0.3789C41.3477,20.0947,42.5791,20,44,20c0,0,3,6,3,11c0,8-5.127,14-11.0635,14 c-0.4795,0-0.9531-0.0381-1.4179-0.1113"/><path fill="none" stroke="#000" stroke-linecap="round" stroke-linejoin="round" stroke-width="2" d="m55 60v-3c0-4.9941-5.0059-9-10-9-3.3652 2.8027-6.8389 3.6934-10.094 3.6934-0.7042 0-1.4415-0.0655-2.0538-0.1402"/></g></svg>