<svg xmlns="http://www.w3.org/2000/svg" id="a" viewBox="0 0 72 72"><g id="b"><circle cx="36" cy="35.999" r="24" fill="#fcea2b"/><path fill="#fff" d="m51.58 34.554a11.555 11.555 0 0 1 1.2192 4.408c-9.8367 8.2722-22.622 11.622-24.676 12.118a11.434 11.434 0 0 1-2.6837-3.535l0.0985-0.0489s14.852-3.3718 25.902-12.795z"/><path fill="#ea5a47" d="m52.799 38.962c0.2974 4.6205-2.4688 9.3006-9.0418 12.567-6.6357 3.2978-12.121 2.6407-15.634-0.4493 2.0538-0.4959 14.839-3.846 24.675-12.118z"/><path fill="#92d3f5" d="M67.6926,32.9089a4.2419,4.2419,0,0,1-5.3735,2.6717c-3.9838-1.3386-6.68-6.6869-6.7069-6.74.213-.0912,5.4464-2.637,9.41-1.3052a4.241,4.241,0,0,1,2.6706,5.3737Z"/><path fill="#92d3f5" d="M14.395,59.3977a4.2421,4.2421,0,0,1-2.6718-5.3736c1.3387-3.9837,6.6869-6.68,6.74-6.7068.0912.213,2.6369,5.4464,1.3052,9.41a4.2411,4.2411,0,0,1-5.3737,2.6707Z"/></g><g id="c" fill="none" stroke="#000" stroke-linejoin="round" stroke-width="2"><path stroke-linecap="round" d="M55.2766,23.4489q-.0459-.0708-.0924-.1411A23.0031,23.0031,0,0,0,14.2153,43.3865c.0343.1023.1046.2972.14.3993"/><path stroke-linecap="round" d="m25.037 56.22a23.531 23.531 0 0 0 21.199 0.3755 23.342 23.342 0 0 0 12.486-17.023"/><path stroke-linecap="round" d="m51.58 34.554a11.555 11.555 0 0 1 1.2192 4.408c-9.8367 8.2722-22.622 11.622-24.676 12.118a11.434 11.434 0 0 1-2.6837-3.535l0.0985-0.0489s14.852-3.3718 25.902-12.795z"/><path stroke-linecap="round" d="m52.799 38.962c0.2974 4.6205-2.4688 9.3006-9.0418 12.567-6.6357 3.2978-12.121 2.6407-15.634-0.4493 2.0538-0.496 14.839-3.8459 24.675-12.118z"/><path d="M67.6926,32.9089a4.2419,4.2419,0,0,1-5.3735,2.6717c-3.9838-1.3386-6.68-6.6869-6.7069-6.74.213-.0912,5.4464-2.637,9.41-1.3052a4.241,4.241,0,0,1,2.6706,5.3737Z"/><path d="M14.395,59.3977a4.2421,4.2421,0,0,1-2.6718-5.3736c1.3387-3.9837,6.6869-6.68,6.74-6.7068.0912.213,2.6369,5.4464,1.3052,9.41a4.2411,4.2411,0,0,1-5.3737,2.6707Z"/><polyline stroke-linecap="round" points="22.478 33.13 30.163 33.793 25.928 40.072"/><polyline stroke-linecap="round" points="41.878 23.488 37.766 30.014 45.328 30.43"/></g></svg>