<svg xmlns="http://www.w3.org/2000/svg" id="a" viewBox="0 0 72 72"><g id="b"><circle cx="36.003" cy="36" r="23" fill="#B1CC33"/></g><g id="c"><path fill="none" stroke="#000" stroke-linecap="round" stroke-linejoin="round" stroke-miterlimit="10" stroke-width="2" d="m27.267 22.366c-0.2383 1.5436-1.039 2.9427-2.2496 3.9289-1.1065 1.1138-2.5889 1.7724-4.156 1.8514"/><path fill="none" stroke="#000" stroke-linecap="round" stroke-linejoin="round" stroke-miterlimit="10" stroke-width="2" d="m44.733 22.366c0.2383 1.5436 1.039 2.9427 2.2496 3.9289 1.1065 1.1138 2.5889 1.7724 4.156 1.8514"/><circle cx="36.003" cy="36" r="23" fill="none" stroke="#000" stroke-linecap="round" stroke-linejoin="round" stroke-miterlimit="10" stroke-width="2"/><path fill="none" stroke="#000" stroke-linecap="round" stroke-linejoin="round" stroke-miterlimit="10" stroke-width="2" d="m30.043 46.019c1.2832-0.8191 3.8698-1.0381 5.9568-1.0381s4.6737 0.219 5.9568 1.0381"/><path fill="none" stroke="#000" stroke-linecap="round" stroke-linejoin="round" stroke-miterlimit="10" stroke-width="2" d="m28.669 42.838c1.8323 1.6694 1.8323 4.2345 0 5.9854"/><path fill="none" stroke="#000" stroke-linecap="round" stroke-linejoin="round" stroke-miterlimit="10" stroke-width="2" d="m43.331 42.838c-1.8323 1.6694-1.8323 4.2345 0 5.9854"/><path d="m30 33c0 1.6568-1.3448 3-3 3-1.6553 0-3-1.3433-3-3 0-1.6552 1.3447-3 3-3 1.6552 0 3 1.3448 3 3"/><path d="m48 33c0 1.6568-1.3447 3-3 3s-3-1.3433-3-3c0-1.6552 1.3447-3 3-3s3 1.3448 3 3"/></g></svg>