<svg xmlns="http://www.w3.org/2000/svg" id="a" version="1.1" viewBox="0 0 72 72"><g id="b"><path fill="#92D3F5" d="m68 43.334c0-1.916-11.917 3.041-16.917 3.041s-10-3-16-3-10 3-16 3-15.083-4.958-15.083-3.125c0 5.3125-0.2705 7.4795 1.667 11.167 1.9619 3.7344 9.958 3.667 13.083 6.917 2.415 2.5117 7.125 1.833 10.25 1.833 2.166 0 4.5518 0.083 8.9688 0.083 3.833 0 10.488-1.334 13.28-1.334 2.333 0 5.791-3.3857 6.5-4.8027 2.003-4.0029 6.5508-0.96 8.25-4.0664 2.1875-4 2.001-4.2344 2.001-9.7129z"/><circle cx="14.969" cy="15.094" r="3" fill="#EA5A47"/></g><g id="c" fill="#fadcbc"><path d="m47.417 45s-3.709-7.75-4.4795-10.375l-1.875 9.375-5.0625-1.125-5.125 0.3125-1.875-11-0.9687-0.875c-0.6133-1.6455-6.0723-1.8545-8.4688-3.9375-1.7422-1.5146-3.25-6.8437-3.7812-9.1562l1.25-1.5938 3.9062 7.2188 8.75 3.1562 11.688 1.4375 2.875 2.125 5.625 12.25 0.8125 3.0625-3.2705-0.875z"/><circle cx="34.969" cy="20.094" r="3"/></g><g id="d" fill="none" stroke="#000" stroke-miterlimit="10" stroke-width="2"><circle cx="34.969" cy="20.094" r="3"/><path stroke-linecap="round" stroke-linejoin="round" d="M30,43v-7c0-1.0996-0.2246-2.6748-0.5-3.5S29,31,29,31"/><line x1="42" x2="41" y1="35" y2="43" stroke-linecap="round" stroke-linejoin="round"/><path stroke-linecap="round" stroke-linejoin="round" d="m5 43c3 0 9 3 15 3s10-3 16-3 11 3 16 3 7-3 15-3"/><path stroke-linecap="round" stroke-linejoin="round" d="M46.0059,50.9639C48.0449,51.5313,50.0225,52,52,52c2.7441,0,4.585-0.9043,7.0088-1.7197"/><path stroke-linecap="round" stroke-linejoin="round" d="M12.7773,50.8867C15.0439,51.4883,17.5225,52,20,52c6,0,10-3,16-3"/><path stroke-linecap="round" stroke-linejoin="round" d="m26.001 57.959c3.208-0.8828 6.2031-2.084 9.999-2.084 4.4063 0 8.2734 1.6182 11.997 2.4775"/><circle cx="14.969" cy="15.094" r="3"/><path stroke-linecap="round" stroke-linejoin="round" d="M17.875,16l2.4688,7.1108c0.3613,1.0391,1.5292,2.1075,2.5966,2.3741l4.1192,1.0302c1.0674,0.2666,2.8379,0.5537,3.9345,0.6382 l9.0118,0.6934c1.0966,0.0845,2.6308,0.7895,3.4082,1.5674l0.1718,0.1718c0.7774,0.7774,1.708,2.2647,2.0664,3.3047l0.7657,2.2207 c0.3584,1.0401,1.0097,2.7168,1.4472,3.7256L50.75,45.5"/></g></svg>