<svg xmlns="http://www.w3.org/2000/svg" id="a" version="1.1" viewBox="0 0 72 72"><g id="b"><path fill="#D0CFCE" d="m46.98 21.405s15 22.85 0 22.85h-22c-15 0 0-22.85 0-22.85"/><path fill="#EA5A47" d="m25.434 19.994c0-5.8242 4.7215-10.546 10.546-10.546s10.546 4.7215 10.546 10.546"/><path fill="#EA5A47" d="m54.855 60.99s2-13.985-10-13.985c-3.1919 2.128-5.9264 3.5985-9 3.5922h0.125c-3.0736 0.0063-5.8081-1.4642-9-3.5922-12 0-10 13.985-10 13.985"/><path fill="#D22F27" d="m44.855 47.005c-3.1699 2.1133-4.875 3-8.9375 3.5886 13.062 0.4114 13.062 6.4098 13.825 10.41h5.1129s2-13.998-10-13.998z"/><path fill="#fff" d="m39.6 55.047c5.1878-0.4859 8.9539-2.9065 10.354-6.9774-1.3294-0.6591-2.9951-1.0647-5.0991-1.0647-3.1699 2.1133-5.8895 3.5747-8.9375 3.5886-3.048-0.0139-5.7676-1.4753-8.9375-3.5886-2.0474 0-3.6792 0.3847-4.991 1.0124 2.3627 3.939 5.8207 6.1638 10.356 6.8708 0.4155 0.0648 0.8336 0.09 1.254 0.0954 0.9342 0.012 2.8034 0.0403 4.7616 0.0941 0.4119 0.0114 0.8292 0.0078 1.2395-0.0306z"/><path fill="#fff" d="m28.98 31.405c0 1.6569 1.3431 3 3 3s3-1.3431 3-3h2c0 1.6569 1.3431 3 3 3s3-1.3431 3-3"/><path fill="#fff" d="m45.099 17.545c-0.8798 0-1.6738 0.3416-2.2798 0.8875-0.606-0.5459-1.3999-0.8875-2.2798-0.8875-0.8798 0-1.6737 0.3416-2.2797 0.8875-0.606-0.5459-1.4-0.8875-2.2798-0.8875s-1.6738 0.3416-2.2798 0.8875c-0.606-0.5459-1.3999-0.8875-2.2797-0.8875-0.8799 0-1.6738 0.3416-2.2798 0.8875-0.606-0.5459-1.4-0.8875-2.2798-0.8875-1.8886 0-3.4196 1.5311-3.4196 3.4197s1.531 3.4196 3.4196 3.4196c0.8798 0 1.6738-0.3416 2.2798-0.8874 0.606 0.5458 1.3999 0.8874 2.2798 0.8874 0.8798 0 1.6737-0.3416 2.2797-0.8874 0.606 0.5458 1.4 0.8874 2.2798 0.8874s1.6738-0.3416 2.2798-0.8874c0.606 0.5458 1.3999 0.8874 2.2797 0.8874 0.8799 0 1.6738-0.3416 2.2798-0.8874 0.606 0.5458 1.4 0.8874 2.2798 0.8874 1.8886 0 3.4196-1.531 3.4196-3.4196s-1.531-3.4197-3.4196-3.4197z"/></g><g id="c"><path fill="#a57939" d="m46.997 27.041-0.0172 0.0033c-5 0.6392-13-3.7038-13-3.7038s-4 4.3429-9 3.7038l-0.0173-0.0033c-0.21 1.0783-0.3213 2.205-0.3213 3.3641 0 7.8277 5.0765 14.173 11.339 14.173s11.339-6.3456 11.339-14.173c0-1.1591-0.1113-2.2858-0.3214-3.3641zm-15.017 7.3641c-1.6569 0-3-1.3431-3-3h6c0 1.6569-1.3431 3-3 3zm8 0c-1.6569 0-3-1.3431-3-3h6c0 1.6569-1.3431 3-3 3z"/></g><g id="d"><path fill="none" stroke="#000" stroke-linecap="round" stroke-linejoin="round" stroke-miterlimit="10" stroke-width="2" d="m25.66 17.77c1.03-4.76 5.26-8.32 10.32-8.32s9.29 3.56 10.32 8.32"/><path fill="none" stroke="#000" stroke-linecap="round" stroke-linejoin="round" stroke-miterlimit="10" stroke-width="2" d="m54.855 60.005s2-13-10-13c-3.1919 2.128-5.9264 3.5985-9 3.5922h0.125c-3.0736 0.0063-5.8081-1.4642-9-3.5922-12 0-10 13-10 13"/><path fill="none" stroke="#000" stroke-linecap="round" stroke-linejoin="round" stroke-miterlimit="10" stroke-width="2" d="m39.6 55.047c5.1878-0.4859 8.9539-2.9065 10.354-6.9774-1.3294-0.6591-2.9951-1.0647-5.0991-1.0647-3.1699 2.1133-5.8895 3.5747-8.9375 3.5886-3.048-0.0139-5.7676-1.4753-8.9375-3.5886-2.0474 0-3.6792 0.3847-4.991 1.0124 2.3627 3.939 5.8207 6.1638 10.356 6.8708 0.4155 0.0648 0.8336 0.09 1.254 0.0954 0.9342 0.012 2.8034 0.0403 4.7616 0.0941 0.4119 0.0114 0.8292 0.0078 1.2395-0.0306z"/><path fill="none" stroke="#000" stroke-linecap="round" stroke-linejoin="round" stroke-miterlimit="10" stroke-width="2" d="m23.941 23.031c-3.1231 5.0885-11.464 20.374 1.0392 20.374"/><path fill="none" stroke="#000" stroke-linecap="round" stroke-linejoin="round" stroke-miterlimit="10" stroke-width="2" d="m46.98 43.405c12.483 0 4.1889-15.237 1.0542-20.35"/><path fill="none" stroke="#000" stroke-linecap="round" stroke-linejoin="round" stroke-miterlimit="10" stroke-width="2" d="m47 27.04c0.21 1.08 0.32 2.21 0.32 3.37 0 7.82-5.08 14.17-11.34 14.17s-11.34-6.35-11.34-14.17c0-1.16 0.11-2.29 0.32-3.37h0.02c2.95 0.38 5.55-1.3 7.19-2.75"/><path fill="none" stroke="#000" stroke-linecap="round" stroke-linejoin="round" stroke-miterlimit="10" stroke-width="2" d="m37.06 24.19c2.78 1.47 6.9 3.24 9.92 2.85"/><path d="m41.98 29.044c0 1.1045-0.8965 2-2 2s-2-0.8955-2-2c0-1.1035 0.8965-2 2-2s2 0.8965 2 2"/><path d="m33.98 29.044c0 1.1045-0.8965 2-2 2s-2-0.8955-2-2c0-1.1035 0.8965-2 2-2s2 0.8965 2 2"/><path d="m35.98 39.047c-1.1519 0-2.3037-0.2862-3.4473-0.858-0.4941-0.247-0.6943-0.8476-0.4472-1.3417 0.2465-0.4937 0.8462-0.6944 1.3418-0.4473 1.7177 0.8594 3.3877 0.8594 5.1054 0 0.4947-0.2471 1.0948-0.0464 1.3418 0.4473 0.2471 0.4941 0.0469 1.0947-0.4472 1.3417-1.1436 0.5718-2.2954 0.858-3.4473 0.858z"/><path fill="none" stroke="#000" stroke-linecap="round" stroke-linejoin="round" stroke-miterlimit="10" stroke-width="2" d="m28.98 31.405c0 1.6569 1.3431 3 3 3s3-1.3431 3-3h2c0 1.6569 1.3431 3 3 3s3-1.3431 3-3"/><path fill="none" stroke="#000" stroke-linecap="round" stroke-linejoin="round" stroke-miterlimit="10" stroke-width="2" d="m45.099 17.545c-0.8798 0-1.6738 0.3416-2.2798 0.8875-0.606-0.5459-1.3999-0.8875-2.2798-0.8875-0.8798 0-1.6737 0.3416-2.2797 0.8875-0.606-0.5459-1.4-0.8875-2.2798-0.8875s-1.6738 0.3416-2.2798 0.8875c-0.606-0.5459-1.3999-0.8875-2.2797-0.8875-0.8799 0-1.6738 0.3416-2.2798 0.8875-0.606-0.5459-1.4-0.8875-2.2798-0.8875-1.8886 0-3.4196 1.5311-3.4196 3.4197s1.531 3.4196 3.4196 3.4196c0.8798 0 1.6738-0.3416 2.2798-0.8874 0.606 0.5458 1.3999 0.8874 2.2798 0.8874 0.8798 0 1.6737-0.3416 2.2797-0.8874 0.606 0.5458 1.4 0.8874 2.2798 0.8874s1.6738-0.3416 2.2798-0.8874c0.606 0.5458 1.3999 0.8874 2.2797 0.8874 0.8799 0 1.6738-0.3416 2.2798-0.8874 0.606 0.5458 1.4 0.8874 2.2798 0.8874 1.8886 0 3.4196-1.531 3.4196-3.4196s-1.531-3.4197-3.4196-3.4197z"/></g></svg>