<svg xmlns="http://www.w3.org/2000/svg" id="a" viewBox="0 0 72 72"><g id="b" fill="#FCEA2B"><circle cx="34.334" cy="52" r="3"/><path d="m23.666 47.085c-1.292 2.042-0.959 5.417-1.042 11.125-0.0283 1.917 0.084 2.7588 2.4073 2.7588 0 0-0.5313-3.2813-0.0313-9.25 0.5-5.9688 3.8125-5.5938 7.8125-6.6563s8 1.875 9.1563 3.4688c1.1562 1.5937 1 12.438 1 12.438 3.2187 0 2.2812-2.5938 2.2812-2.5938 0 2.5938 1.291-10.168-0.751-12.793-1.373-1.7646-3.499-3.582-3.499-3.582l-2-2 1-7 6-9 5-14h-3l-7 12-6 5-2 1-11-3-11-4.9995-1 3 10 5.9995 9 6-2 7c-0.3115 1.3945-1.667 2.4502-3.334 5.085z"/></g><g id="c" fill="none" stroke="#000" stroke-miterlimit="10" stroke-width="2"><circle cx="34.334" cy="52" r="3"/><path stroke-linecap="round" stroke-linejoin="round" d="m28 42 0.7168-5.0205c0.1562-1.0889-0.4658-2.4785-1.3809-3.0889l-5.6718-3.7812c-0.9151-0.6104-2.4356-1.5723-3.3789-2.1382l-6.5704-3.9419c-0.9433-0.5659-1.4902-1.7036-1.2148-2.5288s1.3193-1.1275 2.3203-0.6724l7.3594 3.3443c1.001 0.455 2.6885 1.0644 3.75 1.354l7.1406 1.9472c1.0615 0.2896 2.3799 0.3013 2.9297 0.0264s1.6914-1.0762 2.5361-1.7803l2.9278-2.4394c0.8447-0.7041 1.9892-2.0576 2.5439-3.0078l4.9844-8.545c0.5547-0.9502 1.6826-1.7275 2.5078-1.7275s1.1973 0.8477 0.8271 1.8833l-3.6542 10.233c-0.3702 1.0356-1.1719 2.6323-1.7823 3.5474l-3.7812 5.6718c-0.6104 0.9151-1.2364 2.5547-1.3926 3.6436l-0.4336 3.041c-0.1562 1.0889-0.0586 2.4297 0.2168 2.9795s0.5 1 0.5 1"/><path stroke-linecap="round" stroke-linejoin="round" d="m25 60v-8c0-3.4307 1.8301-5.458 4-6 4-1 6-1 10 0 2.1689 0.542 4 2.6543 4 6v8"/></g></svg>