<svg xmlns="http://www.w3.org/2000/svg" id="a" viewBox="0 0 72 72"><g id="b" fill="#fadcbc"><circle cx="32.698" cy="49.57" r="2.86"/><path d="m22.593 44.899c-1.2393 1.9065-0.953 5.1476-0.953 10.581 0 1.8112 0.0953 2.6691 2.2878 2.6691a41.492 41.492 0 0 1 0-8.77c0.4767-5.72 3.6225-5.3383 7.4356-6.3869s7.6261 1.8112 8.77 3.3365 0.9533 11.82 0.9533 11.82c3.05 0 2.1925-2.4785 2.1925-2.4785 0 2.4785 1.2393-9.7233-0.7626-12.202a34.285 34.285 0 0 0-3.4318-3.4318l-1.9068-1.9063 0.6606-8.2772s3.6825-5.0295 5.7664-7.589l5.0123-12.732h-2.86l-6.6728 11.439-5.72 4.7663-2.0285 0.27-10.364-2.1763-10.486-4.7664-0.9533 2.86 9.5328 5.72 7.4679 2.8893 1.5834 4.5938s-1.4461 2.9371-2.2526 4.6959c-0.7794 1.6999-1.746 2.596-3.2712 5.0745z"/></g><g id="c" fill="none" stroke="#000" stroke-width="2"><circle cx="32.698" cy="49.57" r="3" stroke-miterlimit="10"/><path stroke-linecap="round" stroke-linejoin="round" d="M26.937,39.63l1.469-4.3173c.1907-1.0486-.9018-4.1506-1.76-4.7225l-15.4926-7.712A2.286,2.286,0,0,1,10.01,20.4953a1.5908,1.5908,0,0,1,2.1925-.6673l9.7119,3.96c.8685.4338,7.2783,1.9962,7.2783,1.9962,1.0486.286,4.84-.7131,5.6023-1.38,0,0,4.6711-4.29,5.1477-5.1476l4.7663-8.1028A3.2328,3.2328,0,0,1,47.092,9.5327c.7626,0,1.1439.7626.7626,1.8112,0,0-3.2563,8.39-3.7244,9.4031-.6234,1.35-4.4518,5.711-5.6233,7.6691a14.269,14.269,0,0,0-1.3089,3.5966,26.6874,26.6874,0,0,0-.6005,3.6625,12.17,12.17,0,0,0,.5481,3.5977"/><path stroke-linecap="round" stroke-linejoin="round" d="m23.832 57.196v-7.6263c0-3.2411 1.7159-5.243 3.8131-5.72a16.245 16.245 0 0 1 9.5327 0c2.0972 0.4766 3.8131 2.5738 3.8131 5.72v7.6262"/><path stroke-linecap="round" stroke-linejoin="round" d="M27.3863,54.6458s.6582-.0084.8517-.43c.2284-.4959-.0785-1.7926.1255-2.5157a3.3622,3.3622,0,0,1,1.2049-1.8068"/></g></svg>