<?xml version="1.0" encoding="UTF-8"?>
<svg id="a" viewBox="0 0 72 72" xmlns="http://www.w3.org/2000/svg"><g id="b"><path d="m23 38.965s-4 1-4 3l2 2a35.36 35.36 0 0 1 1 6c0 2-1 11-1 11h30s-2-15-1-16l3-3c0-2-4-3-4-3" fill="#92d3f5"/></g><g id="c" fill="#c19a65"><path d="m25 30.965c0 9 4.9365 14 11 14 5.9365 0 11.064-5 11.064-14a12.133 12.133 0 0 0-1-5c-3-3-7-8-7-8-4 3-7 6-13 7 0 0-1.0635 1-1.0635 6z"/><path d="m13.968 60.965 2.9375-12.305-0.9375-1.25-4-3-4-6a1.4142 1.4142 0 0 1 2-2l4 4c1 1 2 1 5 2s3.1308 3.2373 3 5c-0.666 8.9727-1 13.556-1 13.556"/><path d="M19.9912,42.855s-1.0234-2.89-2.1172-5.89c-.4316-1.1816-1.9062-1.0312-1.9062-.166v3.69"/><path d="m58.032 60.965-2.9375-12.305 0.9375-1.25 4-3 4-6a1.4142 1.4142 0 0 0-2-2l-4 4c-1 1-2 1-5 2s-3.1308 3.2373-3 5c0.667 8.9727 1 13.556 1 13.556"/><path d="M52.01,42.855s1.0224-2.89,2.1162-5.89c.4306-1.1816,1.9062-1.0312,1.9062-.166v3.69"/></g><g id="d"><path d="m46.202 26.054c-2.6614-0.8555-7.3665-7.9369-7.3665-7.9369-2.6615 3.2318-12.737 6.9864-12.737 6.9864-2.9942 2.9941-0.0451 13.859-0.0451 13.859-4 0-4-6-4-13s4-14 14-14 14 7 14 14 0 13-4 13c1.3246-2.2523 0.1486-12.908 0.1486-12.908z" fill="#6a462f"/></g><g id="e"><path d="m46 38.965c4 0 4-6 4-13s-4-14-14-14-14 7-14 14 0 13 4 13" fill="none" stroke="#000" stroke-linecap="round" stroke-linejoin="round" stroke-width="2"/><path d="m41.873 29.965a2 2 0 1 1-2-2 2 2 0 0 1 2 2"/><path d="m33.873 29.965a2 2 0 1 1-2-2 2 2 0 0 1 2 2"/><path d="m24.936 30.965c0 9 4.9365 14 11 14 5.9365 0 11.064-5 11.064-14a12.133 12.133 0 0 0-1-5c-3-3-7-8-7-8-4 3-7 6-13 7 0 0-1.0635 1-1.0635 6z" fill="none" stroke="#000" stroke-linejoin="round" stroke-width="2"/><path d="m34.084 37.965a11.5 11.5 0 0 0 3.9365 0" fill="none" stroke="#000" stroke-linecap="round" stroke-linejoin="round" stroke-width="2"/><path d="m13.968 59.965 2.9375-11.305-0.9375-1.25-4-3-4-6a1.4142 1.4142 0 0 1 2-2l4 4c1 1 2 1 5 2s3.1308 3.2373 3 5c-0.666 8.9727-1 12.556-1 12.556" fill="none" stroke="#000" stroke-linecap="round" stroke-linejoin="round" stroke-width="2"/><path d="M19.9912,42.855s-1.0234-2.89-2.1172-5.89c-.4316-1.1816-1.9062-1.0312-1.9062-.166v3.69" fill="none" stroke="#000" stroke-linecap="round" stroke-linejoin="round" stroke-width="2"/><path d="m58.032 59.965-2.9375-11.305 0.9375-1.25 4-3 4-6a1.4142 1.4142 0 0 0-2-2l-4 4c-1 1-2 1-5 2s-3.1308 3.2373-3 5c0.667 8.9727 1 12.556 1 12.556" fill="none" stroke="#000" stroke-linecap="round" stroke-linejoin="round" stroke-width="2"/><path d="M52.01,42.855s1.0224-2.89,2.1162-5.89c.4306-1.1816,1.9062-1.0312,1.9062-.166v3.69" fill="none" stroke="#000" stroke-linecap="round" stroke-linejoin="round" stroke-width="2"/><line x1="23" x2="26" y1="39.965" y2="38.965" fill="none" stroke="#000" stroke-linecap="round" stroke-linejoin="round" stroke-width="2"/><line x1="46" x2="49.444" y1="38.965" y2="39.965" fill="none" stroke="#000" stroke-linecap="round" stroke-linejoin="round" stroke-width="2"/></g></svg>
