<?xml version="1.0" encoding="UTF-8"?>
<svg id="a" viewBox="0 0 72 72" xmlns="http://www.w3.org/2000/svg"><g id="b" fill="#fcea2b"><circle cx="37.238" cy="13.509" r="3"/><circle cx="27.565" cy="15.461" r="3.8131"/><path d="m46.631 21.18 8.5792 9.5331v3.8131l-5.72 4.7663-4.7664 6.6729-2.6685 11.439h-3.2411l1.1439-14.299 5.72-10.486-7.9564-7.4957a5.4219 5.4219 0 0 0-2.53-1.9416c-1.7866-0.61-3.1994 0.3813-4.7664 0.3813a17.618 17.618 0 0 1-7.4351-2.6692s-1.5252-1.6206-0.0953-2.9551 1.9065 1.1439 3.3364 1.8112a14.653 14.653 0 0 0 9.2468 0.6673s6.1962-2.1926 7.9121-1.3346a20.278 20.278 0 0 1 3.2408 2.0968z"/><path d="m55.21 33.573 0.9533 10.486 4.0037 11.439h-2.86l-5.91-10.486-0.9533-5.72"/><path d="M24.0383,27.0907,19.0813,32.62l3.8131,11.4393-.7626,13.3458H18.986l-.7626-12.3925-2.9552-5.72L9.4533,34.5262V30.7131L18.128,21.18A13.3425,13.3425,0,0,1,20.54,18.1949c1.4035-.5458,2.0481-1.0561,3.4443-.8366.7626.286,3.2,3.3454,3.2,5.6333a4.2756,4.2756,0,0,1-.4766,1.8112c0,.0953,2.86,2.0972,4.099,1.1439,1.7159-1.3345,3.4318-5.3383,4.5757-5.3383,1.3346,0-.9532,5.72-2.86,7.2449-3.05,2.3831-7.2448-.7626-7.7215-.1907"/><path d="M10.4065,35.4794v9.5328L8.5,55.4981h2.86l2.86-9.5327.9533-5.72"/></g><g id="c" fill="none" stroke="#000" stroke-width="2"><circle cx="37.098" cy="13.65" r="3" stroke-miterlimit="10"/><path d="m38.051 24.04 6.3869 7.15a3.1057 3.1057 0 0 1 0.3813 3.1458l-3.9084 7.0542a12.412 12.412 0 0 0-1.0486 3.5271l-0.8579 10.486a1.6146 1.6146 0 0 0 1.43 1.9065 2.5371 2.5371 0 0 0 2.0972-1.8112l1.8112-7.7215a13.941 13.941 0 0 1 1.5252-3.4317l2.5739-3.5271a17.695 17.695 0 0 1 2.5738-2.7645l2.764-2.2882a4.831 4.831 0 0 0 1.43-3.1454 5.9587 5.9587 0 0 0-1.2393-3.3364l-7.34-8.1028" stroke-linecap="round" stroke-linejoin="round"/><path d="M55.21,33.5729l.7626,8.5794a25.7345,25.7345,0,0,0,.7626,3.7178L59.5,53.6869c.3813.9533,0,1.8112-.7626,1.8112a3.5213,3.5213,0,0,1-2.3832-1.62l-4.0037-7.2449a15.5126,15.5126,0,0,1-1.2393-3.5271l-.6673-3.8131" stroke-linecap="round" stroke-linejoin="round"/><path d="m46.631 21.18c-1.9065-1.9066-4.099-2.4785-5.72-1.9066a41.952 41.952 0 0 1-9.5323 1.9066 15.214 15.214 0 0 1-7.6262-2.86" stroke-linecap="round" stroke-linejoin="round"/><path d="M24.0383,27.0907,20.3206,31.285a3.8666,3.8666,0,0,0-.6673,3.2412l2.5738,7.8168a12.0668,12.0668,0,0,1,.4766,3.7177l-.4766,9.5328A1.9587,1.9587,0,0,1,20.5112,57.5a1.8844,1.8844,0,0,1-1.7159-1.9065l-.5719-8.5795a11.977,11.977,0,0,0-.9533-3.6224l-1.1439-2.3832a11.68,11.68,0,0,0-2.2879-2.9551l-2.7645-2.2879a4.831,4.831,0,0,1-1.43-3.1458,5.9587,5.9587,0,0,1,1.2393-3.3364l7.34-8.1028" stroke-linecap="round" stroke-linejoin="round"/><path d="M10.4065,35.4794v7.6262a25.832,25.832,0,0,1-.3813,3.8131L8.786,53.5916c-.1907,1.0486.286,1.9065,1.0486,1.9065a2.5458,2.5458,0,0,0,2.0018-1.8112l1.8113-5.91c.2859-1.0486.6673-2.6691.8579-3.7177l.6673-3.8131" stroke-linecap="round" stroke-linejoin="round"/><path d="m20.988 19.083a7.7543 7.7543 0 0 0-2.7645 2.0968" stroke-linecap="round" stroke-linejoin="round"/><path d="m22.894 22.134s4.671 3.8131 6.5776 3.8131c0.9532 0 2.86 0 3.813-4.7663" stroke-linecap="round" stroke-miterlimit="10"/><path d="m29.665 17.679a2.7923 2.7923 0 0 0 0.9-2.2 3 3 0 0 0-6 0" stroke-linecap="round" stroke-miterlimit="10"/><path d="M24.2852,12.8225s-.4585-.4723-.8981-.3229c-.5171.1749-1.2482,1.289-1.9136,1.6377a3.3624,3.3624,0,0,1-2.1406.3665" stroke-linecap="round" stroke-linejoin="round"/><path d="M40.2383,11.1353s.4585-.4724.8981-.323c.5171.1749,1.2482,1.289,1.9136,1.6378a3.3628,3.3628,0,0,0,2.1406.3664" stroke-linecap="round" stroke-linejoin="round"/></g></svg>
