<svg xmlns="http://www.w3.org/2000/svg" id="a" viewBox="0 0 72 72"><g id="b"><g id="c"><path d="m26 38c-3 0-4-7-4-14 0-6 5-12 14-12s14 6 14 12c0 7-1 14-4 14"/></g></g><g id="d"><g id="e"><path fill="#6a462f" d="m24.842 30.5c-0.1015 7.999 4.0635 14 11 14 7.0635 0 11.064-6 11.064-14 0-5-3-10-3-10-8 0-10 3-16 1a17.077 17.077 0 0 0-3.0635 9z"/></g></g><g id="f"><path fill="#fff" d="m54.938 60.906s2-13.797-10-13.797c-3.1919 2.1192-5.9264 3.5837-9 3.5775h0.125c-3.0736 0.0062-5.8082-1.4583-9-3.5775-12 0-10 13.797-10 13.797"/><g fill="#3f3f3f"><path d="m27.062 47.109c-12 0-10 13.967-10 13.967h15.893s-4.4214-3.2647-5.8934-13.967"/><path d="m44.938 47.109c12 0 10 13.967 10 13.967h-15.748s5.4224-7.4433 5.748-13.967"/></g><path d="M33.6927,50.5983S32.4864,56.62,36,56.62s2.3072-6.0214,2.3072-6.0214"/><path fill="#3f3f3f" d="m35.15 56.802-2.4156 3.6377c-3.63-1.7539-5.6719-12.962-5.6719-12.962l-5.1046 6.9347 2.974 1.842-0.9985 3.1134 8.8689 1.0721"/><path fill="#3f3f3f" d="m36.85 56.802 2.4155 3.6377c3.63-1.7539 5.672-12.962 5.672-12.962l5.1045 6.9347-2.974 1.842 0.9985 3.1134-8.8689 1.0721"/><polygon points="36 55.569 31.647 61.076 40.288 61.076"/></g><g id="g"><path d="m41.873 30a2 2 0 1 1-2-2 2 2 0 0 1 2 2"/><path d="m33.873 30a2 2 0 1 1-2-2 2 2 0 0 1 2 2"/><path fill="none" stroke="#000" stroke-linecap="round" stroke-linejoin="round" stroke-width="2" d="m32.873 38.25a8.2737 8.2737 0 0 0 6 0"/><path fill="none" stroke="#000" stroke-linecap="round" stroke-linejoin="round" stroke-width="2" d="m26 38c-3 0-4-7-4-14 0-6 5-12 14-12s14 6 14 12c0 7-1 14-4 14"/><path d="m41.873 30a2 2 0 1 1-2-2 2 2 0 0 1 2 2"/><path d="m33.873 30a2 2 0 1 1-2-2 2 2 0 0 1 2 2"/><path fill="none" stroke="#000" stroke-linejoin="round" stroke-width="2" d="M24.9365,31c-.1015,7.999,4.9365,14,11,14C41.873,45,47,39,47,31c0-5-3-11-3-11-8,0-10,3-16,1C28,21,25,26,24.9365,31Z"/><path fill="none" stroke="#000" stroke-linecap="round" stroke-linejoin="round" stroke-width="2" d="m32.873 38.25a8.2737 8.2737 0 0 0 6 0"/><path fill="none" stroke="#000" stroke-linecap="round" stroke-linejoin="round" stroke-width="2" d="m33.693 50.412s-1.2063 6.0215 2.3073 6.0215 2.3072-6.0215 2.3072-6.0215"/><path fill="none" stroke="#000" stroke-linecap="round" stroke-linejoin="round" stroke-width="2" d="m35.15 56.433-2.4152 3.6377c-3.63-1.7538-5.6719-12.962-5.6719-12.962l-5.1046 6.9346 2.974 1.842-0.9985 3.1134 8.8689 1.0721"/><path fill="none" stroke="#000" stroke-linecap="round" stroke-linejoin="round" stroke-width="2" d="m36.85 56.433 2.4151 3.6377c3.63-1.7538 5.672-12.962 5.672-12.962l5.1045 6.9346-2.974 1.842 0.9985 3.1134-8.8689 1.0721"/><path fill="none" stroke="#000" stroke-linecap="round" stroke-linejoin="round" stroke-width="2" d="M17.0625,60.109s-2-13,10-13c3.1918,2.1279,5.9264,3.5984,9,3.5921h-.125c3.0736.0063,5.8081-1.4642,9-3.5921,12,0,10,13,10,13"/></g></svg>