<svg xmlns="http://www.w3.org/2000/svg" id="a" version="1.1" viewBox="0 0 72 72"><g id="b"><path fill="#B399C8" d="m4 70.667v-17.5l22.75-0.9167 16.667-17.917c1.0833 2.2917 7.6667 6.25 10.083 6.5l-15 24.917c-1.0417 1.875-15.431 4.9167-34.5 4.9167z"/><polyline fill="#92D3F5" points="64.208 27.896 64.25 4.971 49.676 5.049 49.637 26.4"/></g><g id="c" fill="#debb90"><path d="m64.837 20.054c1.0597 0.1522 1.6563 0.9253 1.6457 1.9381-0.0099 0.9466-0.5375 1.9321-1.6843 1.9033 0 0-1.2147-0.0379-1.6188-0.015-0.1713 0.0097-0.3427 0.0192-0.5125-0.0051-1.0597-0.1522-1.7953-1.1346-1.6431-2.1943s1.1346-1.7953 2.1943-1.6431c0 0 1.6187 0.0163 1.6187 0.0161z"/><path d="m64.876 16.198c1.0597 0.1522 1.6563 0.9253 1.6457 1.9381-0.0099 0.9466-0.5375 1.9321-1.6843 1.9033 0 0-1.2147-0.0379-1.6188-0.015-0.1713 0.0097-0.3427 0.0192-0.5125-0.0051-1.0597-0.1522-1.7953-1.1346-1.6431-2.1943s1.1346-1.7953 2.1943-1.6431c-1e-4 1e-4 1.6187 0.0163 1.6187 0.0161z"/><path d="m51.275 26.252c-0.2374-0.9177-0.7139-1.7561-1.381-2.4296l0.0252-0.0391 0.5511-0.8399c0.2598-0.396 1.1637-0.3694 2.008 0.0605l0.4053 0.2057c0.8445 0.4295 1.8686 0.2729 2.3229-0.4194s0.1396-1.6255-0.6525-2.1452l-3.6001-2.3623c-0.7818-0.5361-1.8459-0.3709-2.4284 0.377l-2.8853 3.8816c-2.0153 3.1257 1.0264 12.251-0.9736 13.146 1.6544 1.5527 3.2083 2.7292 7.1282 4.6602 1.7052-4.6602 9.7468-6.5977 11.538-12.681"/></g><g id="d" fill="none" stroke="#000" stroke-linecap="round" stroke-linejoin="round" stroke-width="2"><line x1="4" x2="4" y1="53.167" y2="70.667" stroke-miterlimit="10"/><line x1="26.75" x2="4" y1="52.25" y2="53.167" stroke-miterlimit="10"/><line x1="53.5" x2="38.5" y1="40.833" y2="65.75" stroke-miterlimit="10"/><line x1="43.417" x2="26.75" y1="34.333" y2="52.25" stroke-miterlimit="10"/><path stroke-miterlimit="10" d="m38.5 65.75c-1.0417 1.875-15.431 4.9167-34.5 4.9167"/><path stroke-miterlimit="10" d="m43.417 34.333c1.0833 2.2917 7.6667 6.25 10.083 6.5"/><path d="m49.919 23.783 0.5511-0.8399c0.2598-0.396 1.1637-0.3694 2.008 0.0605l0.4053 0.2057c0.8445 0.4295 1.8686 0.2729 2.3229-0.4194s0.1396-1.6255-0.6525-2.1452l-3.6001-2.3623c-0.7818-0.5361-1.8459-0.3709-2.4284 0.377l-2.8853 3.8816"/><path d="m51.275 26.252c-0.2374-0.9177-0.7139-1.7561-1.381-2.4296"/><path d="m45.64 22.541c-2.0153 3.1257 1.0264 12.251-0.9736 13.146"/><path d="m63.333 27.667c-1.7916 6.0833-9.8333 8.0208-11.538 12.681"/><path d="m64.837 20.054c1.0597 0.1522 1.6563 0.9253 1.6457 1.9381-0.0099 0.9466-0.5375 1.9321-1.6843 1.9033 0 0-1.2147-0.0379-1.6188-0.015-0.1713 0.0097-0.3427 0.0192-0.5125-0.0051-1.0597-0.1522-1.7953-1.1346-1.6431-2.1943s1.1346-1.7953 2.1943-1.6431c0 0 1.6187 0.0163 1.6187 0.0161z"/><path d="m64.876 16.198c1.0597 0.1522 1.6563 0.9253 1.6457 1.9381-0.0099 0.9466-0.5375 1.9321-1.6843 1.9033 0 0-1.2147-0.0379-1.6188-0.015-0.1713 0.0097-0.3427 0.0192-0.5125-0.0051-1.0597-0.1522-1.7953-1.1346-1.6431-2.1943s1.1346-1.7953 2.1943-1.6431c-1e-4 1e-4 1.6187 0.0163 1.6187 0.0161z"/><line x1="63.28" x2="63.28" y1="12.64" y2="4"/><line x1="50.585" x2="63.28" y1="4" y2="4"/><line x1="50.585" x2="50.585" y1="4" y2="14.555"/></g></svg>