<svg xmlns="http://www.w3.org/2000/svg" id="a" version="1.1" viewBox="0 0 72 72"><g id="b"><path fill="#FFA7C0" d="m54.551 58.872s2-13.797-10-13.797c-3.1918 2.1192-5.9264 3.5837-9 3.5775h0.125c-3.0736 0.0062-5.8081-1.4583-9-3.5775-12 0-10 13.797-10 13.797"/><polygon fill="#fff" points="35.832 57.664 32.926 52.629 30.019 47.595 35.832 47.595 41.645 47.595 38.739 52.629"/><path fill="none" d="m47.617 27.815c0-1.1581-0.1111-2.2838-0.3208-3.3613-0.7817-4.0178-2.9333-7.3654-5.8015-9.2263-1.5615-1.0131-3.3354-1.5856-5.2163-1.5856-6.2621 0-11.338 6.3456-11.338 14.173 0 7.8277 5.0764 14.173 11.338 14.173 6.2622 0 11.339-6.3456 11.339-14.173z"/><path fill="none" d="m39.424 18.404c-0.0034-0.463-3.2918 6.1828-13.917 2.8403"/><polygon fill="#FCEA2B" points="31.47 16.638 31.471 6.895 34.587 9.546 36.002 6.001 37.47 9.41 40.314 6.895 40.314 16.638"/><path fill="#E67A94" d="m26.707 45.513s8.353 8.1081 9.1847 12.662l-9e-4 -0.0399-1.1954 0.0321c-7.9884 0-5.061-4.7397-5.061-4.7397-8.7662 0-2.8498-8.2603-2.8498-8.2603"/><path fill="#E67A94" d="m44.941 45.513s-8.353 8.1081-9.1847 12.662l9e-4 -0.0399 1.1954 0.0321c7.9884 0 5.0609-4.7397 5.0609-4.7397 8.7663 0 2.8499-8.2603 2.8499-8.2603"/></g><g id="c" fill="#a57939"><path d="m30.836 10.004c-2.1058 0.8958-3.9799 2.6516-5.6162 4.2515 0 0-2.2375 3.282-3.3208 4.9348 0 0-1.687-0.2842-3.2671-1.7638 0 0-0.4349 6.6434 7.5762 7.5773 0 0 2.8585 0.0224 6.1913-2.8192l1.5839-0.5867c0.0505 4e-4 0.0996 0.0028 0.1504 0.0028 3.5746 0 6.4724-1.0792 6.4724-2.4105 0-0.0146-0.0052-0.0287-0.0059-0.0433l0.0827-0.0306s1.8004-0.3126 3.5826-3.5399c1.0088-1.8269-0.5858-4.5801-3.7686-5.9411l0.0153 7.3184-9.6546-0.0311-0.0216-6.9186z"/><path d="m42.09 15.228c4.1993 0.1683 5.4644 3.9222 5.2347 9.2263l-0.0027 5e-4c-2.7022 2.0473-7.303-6.0499-7.303-6.0499l2.071-3.1769z"/></g><g id="d"><path fill="#fadcbc" d="m35.965 21.502c8.3683-4.5936 8.1936 3.2838 10.785 2.6929 0.3595 1.3815 0.5538 2.8562 0.5538 4.3876 0 7.8277-5.0764 14.173-11.338 14.173s-11.338-6.3456-11.338-14.173c0-1.3929 0.1607-2.7388 0.4603-4.0104 5.2644 0.1714 5.7304-3.0701 10.878-3.0701z"/></g><g id="e"><path d="m41.879 27.03c0 1.1045-0.8965 2-2 2s-2-0.8955-2-2c0-1.1035 0.8965-2 2-2s2 0.8965 2 2"/><path d="m33.879 27.03c0 1.1045-0.8965 2-2 2s-2-0.8955-2-2c0-1.1035 0.8965-2 2-2s2 0.8965 2 2"/><path d="m35.879 37.033c-1.1519 0-2.3037-0.2861-3.4473-0.8579-0.4941-0.2471-0.6943-0.8476-0.4472-1.3418 0.2466-0.4936 0.8462-0.6943 1.3418-0.4473 1.7177 0.8594 3.3877 0.8594 5.1054 0 0.4947-0.247 1.0948-0.0463 1.3418 0.4473 0.2471 0.4942 0.0469 1.0947-0.4472 1.3418-1.1436 0.5718-2.2954 0.8579-3.4473 0.8579z"/><path fill="none" stroke="#000" stroke-miterlimit="10" stroke-width="2" d="m24.919 24.744c-0.2472 1.1637-0.379 2.3862-0.379 3.6472 0 7.8277 5.0765 14.173 11.339 14.173s11.339-6.3455 11.339-14.173c0-1.1581-0.1111-2.2838-0.3208-3.3613"/><path fill="none" stroke="#000" stroke-linecap="round" stroke-linejoin="round" stroke-miterlimit="10" stroke-width="2" d="m16.819 57.883s-2-13 10-13c3.1918 2.1279 5.9264 3.5984 9 3.5921h-0.125c3.0736 0.0063 5.8081-1.4642 9-3.5921 12 0 10 13 10 13"/><polygon fill="none" stroke="#000" stroke-linecap="round" stroke-linejoin="round" stroke-miterlimit="10" stroke-width="2" points="31.47 16.638 31.471 6.895 34.587 9.546 36.002 6.001 37.47 9.41 40.314 6.895 40.314 16.638"/><path fill="none" stroke="#000" stroke-linecap="round" stroke-linejoin="round" stroke-miterlimit="10" stroke-width="2" d="m26.707 45.513s8.353 8.1081 9.1847 12.662l-9e-4 -0.0399-1.1954 0.0321c-7.9884 0-5.061-4.7397-5.061-4.7397-8.7662 0-2.8498-8.2603-2.8498-8.2603"/><path fill="none" stroke="#000" stroke-linecap="round" stroke-linejoin="round" stroke-miterlimit="10" stroke-width="2" d="m44.941 45.513s-8.353 8.1081-9.1847 12.662l9e-4 -0.0399 1.1954 0.0321c7.9884 0 5.0609-4.7397 5.0609-4.7397 8.7663 0 2.8499-8.2603 2.8499-8.2603"/><path fill="none" stroke="#000" stroke-linecap="round" stroke-linejoin="round" stroke-miterlimit="10" stroke-width="2" d="m44.184 15.819c2.6323 2.029 4.1215 5.5213 4.1007 8.3759l-0.0026 5e-4c-2.7022 2.0473-6.7361-4.9161-6.7361-4.9161l2.638-3.4603z"/><path fill="none" stroke="#000" stroke-linecap="round" stroke-linejoin="round" stroke-miterlimit="10" stroke-width="2" d="m28.673 12.349c-1.1387 0.7329-2.1947 1.5972-3.1667 2.5476 0 0-2.8375 2.382-3.9208 4.0348 0 0-1.687-0.2843-3.2671-1.7638 0 0-0.435 6.6434 7.5762 7.5773 0 0 2.8585 0.3058 6.1913-2.5357"/><path fill="none" stroke="#000" stroke-linecap="round" stroke-linejoin="round" stroke-miterlimit="10" stroke-width="2" d="m41.801 18.996c-0.0034-0.463-4.7091 5.3323-15.334 1.9899"/><path fill="none" stroke="#000" stroke-linecap="round" stroke-linejoin="round" stroke-miterlimit="10" stroke-width="2" d="m44.184 15.819s0.7576-1.7372-1.1344-3.4702"/></g></svg>