<svg xmlns="http://www.w3.org/2000/svg" id="a" viewBox="0 0 72 72"><g id="b" fill="#debb90"><circle cx="32.697" cy="49.57" r="2.86"/><path d="m22.592 44.899c-1.2392 1.9065-0.9532 5.1476-0.9532 10.581 0 1.8112 0.0953 2.6691 2.2878 2.6691a41.492 41.492 0 0 1 0-8.77c0.4766-5.72 3.6224-5.3383 7.4355-6.3869s7.6262 1.8112 8.77 3.3365 0.9534 11.821 0.9534 11.821c3.05 0 2.1925-2.4785 2.1925-2.4785 0 2.4785 1.2393-9.7233-0.7626-12.202a34.285 34.285 0 0 0-3.4318-3.4318l-1.9065-1.9066 0.6606-8.2772s3.6825-5.0295 5.7663-7.589l5.0123-12.732h-2.86l-6.6727 11.439-5.72 4.7663-2.0286 0.27-10.364-2.1765-10.486-4.7664-0.9533 2.86 9.5327 5.72 7.4679 2.8893 1.5834 4.5938s-1.4461 2.9371-2.2526 4.6959c-0.7797 1.7001-1.7463 2.5962-3.2716 5.0747z"/></g><g id="c" fill="none" stroke="#000" stroke-width="2"><circle cx="32.697" cy="49.57" r="3" stroke-miterlimit="10"/><path stroke-linecap="round" stroke-linejoin="round" d="M26.9366,39.63l1.469-4.3173c.1906-1.0486-.9018-4.1506-1.76-4.7225l-15.4925-7.712a2.286,2.286,0,0,1-1.144-2.3832,1.5909,1.5909,0,0,1,2.1926-.6673l9.7119,3.96c.8684.4338,7.2782,1.9962,7.2782,1.9962,1.0486.286,4.84-.7131,5.6024-1.38,0,0,4.671-4.29,5.1477-5.1476l4.7663-8.1028a3.2328,3.2328,0,0,1,2.3832-1.6206c.7626,0,1.1439.7626.7626,1.8112,0,0-3.2564,8.39-3.7244,9.4031-.6235,1.35-4.4518,5.711-5.6234,7.6691a14.267,14.267,0,0,0-1.3088,3.5966,26.6978,26.6978,0,0,0-.6006,3.6625,12.1721,12.1721,0,0,0,.5482,3.5977"/><path stroke-linecap="round" stroke-linejoin="round" d="m23.832 57.196v-7.6263c0-3.2411 1.7159-5.243 3.8131-5.72a16.245 16.245 0 0 1 9.5327 0c2.0972 0.4766 3.8131 2.5738 3.8131 5.72v7.6262"/></g></svg>