<?xml version="1.0" encoding="UTF-8"?>
<svg id="a" version="1.1" viewBox="0 0 72 72" xmlns="http://www.w3.org/2000/svg"><g id="b"><path d="m47.336 49.481c-5.0144-1.16-11.556 6.1034-15.945 6.1034l0.4558 7.5247 1.0888 4.8662h9.0131l0.962-4.223 4.6068-9.3292c0.6249-1.6017 0.5593-3.3905-0.1812-4.9421z" fill="#9B9B9A"/><path d="m41.321 51.657c0.6864 2.7364-2.7075 9.8993-2.7603 16.319h3.3884s0.3031-3.1508 0.962-4.223 4.1092-9.3292 4.1092-9.3292 1.7373-4.0488 0.1223-4.9422c-0.6364-0.1254-4.5832 1.1856-5.8216 2.1753z" fill="#3F3F3F"/><path d="m44.28 43.483c-0.5303-1.1113-0.6416-2.3711-0.3096-3.5567 0.8623-3.0779 2.398-9.1175 2.4551-10.648 0.0776-2.0787-3.2305-4.3562-3.2305-4.3562s-5.6782-5.8388-13.084 12.612l-3.4253 3.1475c-1.2339 1.5141-2.1729 3.2701-2.5865 5.1793-0.333 1.535-0.2861 2.8431 0.0171 3.9568 0.5371 1.9734 1.8794 3.336 3.3418 4.2676 2.4073 1.5339 5.1397 2.6995 5.1397 2.6995 7.4242-1.2057 6.2829-6.134 14.545-7.3034l-2.8628-5.9981z" fill="#92D3F5"/><path d="m42.173 24.428-2.8243 17.099 1.972 10.129s3.2845-1.9486 5.8216-2.1753l-3.3836-8.3017 2.3046-12.44-3.8903-4.3111z" fill="#61B2E4"/><path d="m23.076 36.841h-0.0235c-0.3203-0.0078-0.6181-0.1679-0.7998-0.4316l-1.5654-2.2686c-0.3135-0.4551-0.1992-1.0781 0.2549-1.3916 0.456-0.3135 1.0771-0.1992 1.3916 0.2549l0.7822 1.1348 0.8945-1.1729c0.334-0.4385 0.96-0.5254 1.4014-0.1885 0.4395 0.335 0.5234 0.962 0.1885 1.4014l-1.7295 2.2686c-0.1895 0.248-0.4834 0.3935-0.7949 0.3935z" fill="#EA5A47"/></g><g id="c" fill="#a57939"><ellipse transform="matrix(.8973 -.4414 .4414 .8973 -2.7167 17.721)" cx="36.728" cy="14.699" rx="5.8847" ry="7.3965"/><path d="m29.604 50.503c-0.9951 0-1.8574-0.7422-1.9824-1.7549-0.1348-1.0966 0.6445-2.0947 1.7402-2.2304 2.9727-0.3662 4.7989-1.6875 5.46-2.708 0.3818-0.5899 0.5752-1.4033 0.7793-2.2637 0.0664-0.2783 0.1318-0.5537 0.2031-0.8223 1.3604-5.1445 1.544-10.206 1.5459-10.257 0.0371-1.1035 0.9268-1.9668 2.0664-1.9316 1.1035 0.0371 1.9688 0.9619 1.9317 2.0664-0.0079 0.2246-0.2022 5.5683-1.6768 11.144-0.0625 0.2363-0.1201 0.4795-0.1787 0.7246-0.2608 1.0986-0.5567 2.3438-1.3135 3.5127-1.5332 2.3672-4.6465 4.0508-8.3271 4.5049-0.083 0.0097-0.1661 0.0146-0.2481 0.0146z"/></g><g id="d"><path d="m41.948 13.415h-0.01c-9.36 1.82-9.96-4.7-9.99-5.05 0.65-0.84 1.51-1.48 2.54-1.83 0 0 8.1-3.57 11.32 3.99 2.71 6.38 2.41 11.13 2.25 12.46-0.03 0.19-0.23 0.32-0.41 0.25-1.24-0.45-5.29-2.03-5.81-3.57l0.11-6.25z"/></g><g id="e"><path d="m41.952 67.976c-0.0468 0-0.0947-0.0029-0.1425-0.0098-0.5469-0.0791-0.9268-0.5849-0.8487-1.1318l0.462-3.2227c0.0156-0.1045 0.0468-0.206 0.0937-0.3008l4.6064-9.3291c0.4874-1.2597 0.4327-2.7724-0.1865-4.0693l-2.8633-5.998c-0.6347-1.3321-0.7656-2.8448-0.3681-4.2618 0.956-3.415 2.3681-9.0878 2.4179-10.412 0.0391-1.0483-1.6132-2.6753-2.7998-3.4951-0.0527-0.0371-0.1035-0.0796-0.1484-0.126-0.0244-0.0234-0.8535-0.7978-2.2314-0.5073-1.6631 0.3545-5.0713 2.4873-9.209 12.794-0.0557 0.1386-0.1416 0.2636-0.251 0.3642l-2.2627 2.0791c-1.2207 1.1221-2.1348 2.3233-2.7168 3.5703-0.3301 0.709-0.5762 1.4336-0.7314 2.1514-0.2784 1.2803-0.2764 2.4521 0.0039 3.4834 0.3994 1.4687 1.3799 2.709 2.914 3.6865 2.1817 1.3906 4.7119 1.749 4.7373 1.752 0.5469 0.0752 0.9307 0.5781 0.8565 1.125-0.0733 0.5468-0.5733 0.9297-1.1231 0.8574-0.1201-0.0166-2.9804-0.4131-5.5449-2.0469-1.9668-1.2539-3.2353-2.8848-3.7695-4.8486-0.3653-1.3447-0.375-2.835-0.0293-4.4317 0.1865-0.8623 0.4805-1.7285 0.874-2.5732 0.6924-1.4863 1.7607-2.8984 3.1758-4.1982l2.0967-1.9258c3.4179-8.4458 6.997-13.092 10.64-13.811 2.1485-0.4233 3.5576 0.6787 3.917 1.001 0.5928 0.4185 3.6914 2.7246 3.6006 5.1743-0.0645 1.7325-1.7061 8.0762-2.4902 10.877-0.2666 0.9512-0.1788 1.9668 0.247 2.8603l2.8633 5.9981c0.8565 1.7939 0.9326 3.8847 0.21 5.7363l-4.5713 9.2656-0.4385 3.0645c-0.0723 0.499-0.5 0.8584-0.9893 0.8584z"/><path d="m32.938 67.976c-0.5332 0-0.9766-0.4219-0.998-0.96l-0.3125-7.7324c-0.0225-0.5518 0.4072-1.0166 0.9589-1.0391 0.5469-0.0527 1.0166 0.4073 1.0391 0.959l0.3125 7.7324c0.0225 0.5518-0.4072 1.0166-0.959 1.0391-0.0137 1e-3 -0.0273 1e-3 -0.041 1e-3z"/><path d="m38.558 20.785c-3.07 0.59-6.36-1.6-7.59-5.2-0.9-2.66-0.45-5.4 0.98-7.22 0.65-0.84 1.51-1.48 2.54-1.83" fill="none" stroke="#000" stroke-linecap="round" stroke-linejoin="round" stroke-miterlimit="10" stroke-width="2"/><path d="m31.948 8.3547v0.01c0.03 0.35 0.63 6.87 9.99 5.05" fill="none" stroke="#000" stroke-linecap="round" stroke-linejoin="round" stroke-miterlimit="10" stroke-width="2"/><path d="m34.488 6.5347s8.1-3.57 11.32 3.99c2.71 6.38 2.41 11.13 2.25 12.46-0.03 0.19-0.23 0.32-0.41 0.25-1.24-0.45-5.29-2.03-5.81-3.57l0.11-6.25v-0.01" fill="none" stroke="#000" stroke-linecap="round" stroke-linejoin="round" stroke-miterlimit="10" stroke-width="2"/><path d="m30.918 50.71c-0.71 0-1.4825-0.0537-2.3262-0.168-0.5479-0.0742-0.9316-0.5781-0.8574-1.125s0.5781-0.9326 1.125-0.8574c5.6728 0.7705 7.1758-1.4756 8.6924-4.7285 2.3144-5.7413 1.9228-13.405 1.9189-13.482-0.0312-0.5507 0.3916-1.0224 0.9434-1.0527 0.5371-0.0557 1.0224 0.3906 1.0527 0.9434 0.0186 0.331 0.4199 8.1894-2.0811 14.389-1.5068 3.2334-3.3105 6.0821-8.4677 6.0821z"/></g></svg>
