<?xml version="1.0" encoding="UTF-8"?>
<svg id="a" version="1.1" viewBox="0 0 72 72" xmlns="http://www.w3.org/2000/svg"><g id="b"><path d="m35.036 50.957c-3.3514 0.6469-6.5323 2.0356-9.4541 4.5483-3.542-1.1069-5.5639-2.594-4.8048-7.7038 0.4237-2.8517 2.3245-8.1187 3.8385-11.977l4.5164-1.1455c-0.3613 8.1223 1.243 13.969 5.904 16.278z" fill="#92D3F5"/><path d="m54.736 47.135s-1.4193-4.8441-1.8906-6.4043c-0.4712-1.5602-1.641-3.9508-4.1093-5.8043h0.1166c-1.0415 2.842-2.2128 5.288-3.5408 7.2562" fill="#92D3F5"/><path d="m40.654 50.499c-2.3394-0.2048-5.0554 0.0429-7.8517 0.8091-7.2305 1.9814-12.258 6.6797-11.228 10.494 1.029 3.8141 7.7252 5.7661 14.956 3.7847 5.1971-1.4242 9.2563-4.4929 10.746-7.5227-5.1685-1.0101-7.1153-3.6652-6.6222-7.5651z" fill="#E27022"/></g><g id="c"><path d="m37.011 5.5444h-0.6082c-10.662 0.072-13.814 9.1852-13.201 17.501 0.6118 8.3156 5.0449 8.6202 5.0449 8.6202 7.1856 1.5858 10.611 2.4438 19.346-1.3634 1.1555-1.1618 2.3231-3.2142 2.6202-7.2568 0.6124-8.3156-2.5394-17.429-13.202-17.501z" fill="#A57939"/></g><g id="d"><path d="m20.646 48.447c-1.6956 4.6389-3.6227 8.4184-3.6227 8.4184-0.5984 2.7267-0.2715 5.1299 2.8906 6.5416l3.9165-6.3524" fill="#FCEA2B"/><path d="m34.676 50.767 5.9779-0.2685 1.3003 5.0409c1.3312 1.6315 3.3555 2.6745 5.625 2.6745 4.0083 0 7.2574-3.249 7.2574-7.2571 0-0.9559-0.1895-1.8664-0.5259-2.7022l6e-4 -3e-4s-0.5267-1.5108-1.273-3.5306c-0.2551-0.6903-6.1736-0.9213-6.4677-1.6905-1.1971-3.1305 3.0216-7.1018 2.2068-8.1807-2.857-3.7827-7.2266 0.3118-7.2266 0.3118-6.3461 4.5039-12.556-0.3118-12.556-0.3118-1.1563 11.475 5.681 15.914 5.681 15.914z" fill="#FCEA2B"/><path d="m41.575 65.02c-0.2884 0.0285-1.2082-0.1543-2.044-0.4062l-0.3232-0.7627c-0.4307-1.0176 0.0449-2.1914 1.0615-2.6221 2.2149-0.9375 0.5252-0.3051 2.3885-0.9818 3.3086-1.2032 5.22-2.1762 5.22-2.1762 1.4705-0.7485 2.9947-2.6722 3.3871-4.2748 0 0 0.0218-0.0891-0.2301-1.3479-0.2168-1.083 0.4853-2.1367 1.5683-2.3535 1.0889-0.2168 2.1367 0.4864 2.3535 1.5684 0.5124 2.5592 0.6346 6.8012 0.452 7.8839-0.0231 0.1369-0.1635 0.3128-0.2044 0.3443-2.4975 1.9276-7.4647 3.5946-11.18 4.9446-1.9053 0.6923-0.076-0.8209-2.1941 0.0766l-0.2549 0.1074z" fill="#FCEA2B"/><path d="m45.784 18.97c-7.3556-0.2979-13.7-8.0627-13.7-8.0627l-1e-3 -0.0013c-2.3749 1.8821-3.9396 5.0951-3.9396 8.7426 0 5.799 3.9552 10.5 8.834 10.5 4.879 0 8.8341-4.7011 8.8341-10.5 0-0.2281-0.0062-0.4546-0.0182-0.6791" fill="#FCEA2B"/><path d="m19.913 59.589c0.4496 0.2901 0.6421 3.5438 9.12 3.1549" fill="none" stroke="#FCEA2B" stroke-linecap="round" stroke-linejoin="round" stroke-miterlimit="10" stroke-width="4"/></g><g id="e"><path d="m39.25 50.259s-12.58 0.5886-16.556 9.17" fill="none" stroke="#000" stroke-linecap="round" stroke-linejoin="round" stroke-miterlimit="10" stroke-width="2"/><path d="m29.236 34.931s-0.9656 13.667 6.1998 15.836" fill="none" stroke="#000" stroke-linecap="round" stroke-linejoin="round" stroke-miterlimit="10" stroke-width="2"/><line x1="24.616" x2="23.044" y1="56.497" y2="52.589" fill="none" stroke="#000" stroke-linecap="round" stroke-linejoin="round" stroke-miterlimit="10" stroke-width="2"/><line x1="46.161" x2="45.811" y1="42.74" y2="40.203" fill="none" stroke="#000" stroke-linecap="round" stroke-linejoin="round" stroke-miterlimit="10" stroke-width="2"/><path d="m45.784 18.97c-7.3556-0.2979-13.7-8.0627-13.7-8.0627l-1e-3 -0.0013c-2.3749 1.8821-3.9396 5.0951-3.9396 8.7426 0 5.799 3.9552 10.5 8.834 10.5 4.879 0 8.8341-4.7011 8.8341-10.5 0-0.2281-0.0062-0.4546-0.0182-0.6791" fill="none" stroke="#000" stroke-linecap="round" stroke-linejoin="round" stroke-miterlimit="10" stroke-width="2"/><path d="m46.954 29.536c1.0908-1.0969 2.2245-3.1449 2.5054-6.9619 0.5779-7.8516-2.3976-16.456-12.465-16.524h-0.5742c-10.067 0.068-13.043 8.6726-12.465 16.524s4.7639 8.218 4.7639 8.218" fill="none" stroke="#000" stroke-linecap="round" stroke-linejoin="round" stroke-miterlimit="10" stroke-width="2"/><path d="m29.936 63.652c-16.663 2.7202-12.672-6.7863-12.672-6.7863s5.9595-16.151 7.2632-20.011c0.6696-1.9827 4.7086-2.0019 4.7086-2.0019s6.2092 4.8158 12.556 0.3118c0 0 4.3693-4.0945 7.2262-0.3118 0.6918 0.916 1.8192 3.5429 2.8765 6.231" fill="none" stroke="#000" stroke-linecap="round" stroke-linejoin="round" stroke-miterlimit="10" stroke-width="2"/><circle cx="47.82" cy="50.957" r="7.257" fill="none" stroke="#000" stroke-linecap="round" stroke-linejoin="round" stroke-miterlimit="10" stroke-width="2"/><path d="m40.466 64.915c8.909-2.032 13.987-5.5255 13.987-5.5255" fill="none" stroke="#000" stroke-linecap="round" stroke-linejoin="round" stroke-miterlimit="10" stroke-width="2"/><circle cx="22.713" cy="59.331" r="1"/></g></svg>
