<svg xmlns="http://www.w3.org/2000/svg" id="a" viewBox="0 0 72 72"><g id="b"><path fill="#EA5A47" d="m55.065 36.26s4.0331-3.3068 1.9928-6.298c-2.0402-2.9912-5.8371-3.3523-6.7789-2.6335 0 0-2.643-6.2579-8.1784-5.5303s-7.3202 5.6356-6.2605 9.2608c0 0-6.4001 5.0333-1.4014 10.534 0 0 5.2241 3.8607 8.5972 0.3025 0 0 3.9688 5.8969 8.7463 3.233 4.7774-2.664 3.2829-8.8685 3.2829-8.8685z"/><path fill="#D22F27" d="m35.868 25.74c-2.0403-0.754-3.9535-1.3032-5.6994-0.754-1.8369 0.5778-3.0824 2.1267-3.5372 3.7146-0.4807 1.6782-0.1027 3.6523 1.3417 5.1561 1.2212 1.2714 3.2734 1.7098 5.3399 2.3017l1.8414-5.2814 0.7136-5.137z"/><path fill="#EA5A47" d="m44.056 39.519c-1.1534-1.1534-0.6084-3.5685 1.2174-5.3943s4.2409-2.3708 5.3943-1.2173"/><path fill="#D22F27" d="m36.543 35.059c-0.1311-0.8395 0.2261-1.787 0.6582-2.5746 0.5728-1.0441 1.3665-1.9737 2.3259-2.6846 1.7166-1.2721 3.7295-1.9343 5.7283-1.9796 1.8795-0.0425 3.7466 0.4604 5.3435 1.5146 0 0 0.0265 0.0178 0.0725 0.0534 0.3221 0.2496 1.5999 1.3744 1.4302 3.397-0.0718 0.8558-0.4962 1.7435-1.041 2.461-0.7223 0.9511-1.6438 1.7543-2.6943 2.3146-1.8797 1.0025-3.9563 1.3525-5.9246 1.0908-1.8507-0.2461-3.6056-1.0331-5.0108-2.3273"/><path fill="#EA5A47" d="m50.157 32.812c-1.1392-1.1417-3.2422-0.5308-5.1572 1.2272s-2.5732 4.1572-1.47 5.3589l0.2237 0.2225c1.1675 1.1405 3.6173 0.5892 5.4716-1.2313s2.0995-4.4368 0.9319-5.5773"/><path fill="#D22F27" d="m45.637 34.281c1.4333 0.5699 2.0187 2.4839 1.3076 4.275-0.3689 0.9292-1.136 1.6363-2.0079 2.0574-1.3515 0.6528-3.0345 0.3746-4.0712-0.712-0.1508-0.158-0.2764-0.3266-0.3549-0.5012"/><path fill="#D22F27" d="m46.335 34.979c-0.5699-1.4333-2.4839-2.0187-4.275-1.3076-0.9292 0.3689-1.6363 1.136-2.0574 2.0079-0.6528 1.3515-0.3746 3.0345 0.712 4.0712 0.158 0.1508 0.3266 0.2764 0.5012 0.3549"/><path fill="#B1CC33" d="m10.374 37.432c1.542-3.1814 5.6727-4.3649 5.6727-4.3649s1.6302 3.9753 0.0885 7.1572-5.6727 4.3649-5.6727 4.3649-1.6285-3.9767-0.0885-7.1572z"/><path fill="#EA5A47" d="m43.571 54.86c-0.1839 0.9828-1.4893 1.5632-2.9156 1.2963s-2.4335-1.28-2.2496-2.2628l1.3835-2.6208c0.8878-1.5173 0.9261-1.5282 1.8709-1.3342l0.2962 0.0552c0.9513 0.159 0.9831 0.1831 1.2663 1.9184l0.3492 2.9434"/></g><g id="c" fill="none" stroke="#000" stroke-linecap="round" stroke-linejoin="round" stroke-width="2"><path stroke-miterlimit="10" d="m55.24 36.794c2.1976-0.9887 3.0946-4.581 1.7864-6.7298-1.2531-2.0583-4.8113-4.2316-7.0089-3.2429"/><path stroke-miterlimit="10" d="m38.48 31.213c1.7039-1.7039 3.9372-2.5559 6.1705-2.5559s4.4666 0.852 6.1705 2.5559"/><path stroke-miterlimit="10" d="m42.975 42.495c-4.2731 3.3861-9.0856 0.1496-9.9358-1.9156-1.35-3.2794-0.379-7.8158 2.0541-9.2439"/><path stroke-miterlimit="10" d="m49.251 33.407c1.1534 1.1534 0.9197 3.2573-0.5221 4.6991s-3.5456 1.6755-4.6991 0.5221"/><path stroke-miterlimit="10" d="m41.069 38.529c-0.8209-0.8209-0.6545-2.3181 0.3716-3.3441 0.5323-0.5323 1.2736-0.7925 2.002-0.8238 1.1291-0.0485 2.2096 0.6451 2.6021 1.7049 0.0571 0.1541 0.0936 0.3081 0.0958 0.4521"/><path stroke-miterlimit="10" d="m43.571 54.86c-0.1839 0.9828-1.4893 1.5632-2.9156 1.2963s-2.4335-1.28-2.2496-2.2628l1.3835-2.6208c0.8878-1.5173 0.9261-1.5282 1.8709-1.3342l0.2962 0.0552c0.9513 0.159 0.9831 0.1831 1.2663 1.9184l0.3492 2.9434"/><path stroke-miterlimit="10" d="m29.952 34.178c-2.3166-0.6635-3.6566-3.0794-2.9931-5.3959 0.6635-2.3166 3.0793-3.6566 5.3959-2.9931"/><path stroke-miterlimit="10" d="m55.24 36.794c1.5743 3.3868 0.105 7.4086-3.2819 8.9829-3.3868 1.5743-7.4086 0.105-8.9829-3.2819"/><path stroke-miterlimit="10" d="m50.017 26.821c-1.2466-4.1212-5.598-6.4515-9.7192-5.2049s-6.4515 5.598-5.2049 9.7192"/><path d="m10.374 37.432c1.542-3.1814 5.6727-4.3649 5.6727-4.3649s1.6302 3.9753 0.0885 7.1572-5.6727 4.3649-5.6727 4.3649-1.6285-3.9767-0.0885-7.1572z"/><path d="m40.44 17.148c-2.6414-6.3782-9.9533-9.4076-16.332-6.7661s-9.4076 9.9533-6.7661 16.332c0 0 10.658 22.193 9.6575 32.193"/></g></svg>