<?xml version="1.0" encoding="UTF-8"?>
<svg id="a" viewBox="0 0 72 72" xmlns="http://www.w3.org/2000/svg"><g id="b"><polyline points="28.028 22.427 28.028 17 43.972 17 43.972 22.427" fill="#e27022"/><circle cx="36" cy="45.021" r="23" fill="#e27022" stroke-linecap="round" stroke-linejoin="round" stroke-miterlimit="10" stroke-width="2"/><polyline points="54.999 4.0221 43 16.021 36 16.021 30.958 10.979 37.921 4.0169 54.999 4.0169" fill="#92d3f5" stroke="#92d3f5" stroke-linecap="round" stroke-linejoin="round" stroke-miterlimit="10" stroke-width="1.8"/><polyline points="23.983 4.0039 36 16.021 29 16.021 16.968 3.9883 23.983 3.9883" fill="#ea5a47" stroke="#ea5a47" stroke-linecap="round" stroke-linejoin="round" stroke-miterlimit="10" stroke-width="1.8"/></g><g id="c" fill="none" stroke="#000" stroke-miterlimit="10" stroke-width="2"><circle cx="36" cy="45.021" r="23"/><circle cx="36" cy="45.021" r="23" stroke-linecap="round" stroke-linejoin="round"/><line x1="29" x2="29" y1="19" y2="16.021" stroke-linecap="round" stroke-linejoin="round"/><line x1="43" x2="43" y1="19" y2="16.021" stroke-linecap="round" stroke-linejoin="round"/><line x1="29" x2="43" y1="16.021" y2="16.021" stroke-linecap="round" stroke-linejoin="round"/><line x1="25.99" x2="16.968" y1="13.01" y2="3.9883" stroke-linecap="round" stroke-linejoin="round"/><line x1="31.99" x2="23.983" y1="12.01" y2="4.0039" stroke-linecap="round" stroke-linejoin="round"/><line x1="34" x2="37.921" y1="8" y2="4.0169" stroke-linecap="round" stroke-linejoin="round"/><line x1="46" x2="54.999" y1="13" y2="4.0221" stroke-linecap="round" stroke-linejoin="round"/><line x1="16.968" x2="23.983" y1="3.9883" y2="3.9883" stroke-linecap="round" stroke-linejoin="round"/><line x1="37.921" x2="54.999" y1="4.0169" y2="4.0169" stroke-linecap="round" stroke-linejoin="round"/><path d="m28.833 52.81c0.6838 2.9621 3.6397 5.19 7.1827 5.19v0c4.0493 0 7.3316-2.9101 7.3316-6.5s-3.2823-6.5-7.3316-6.5c4.0493 0 7.3316-2.9101 7.3316-6.5s-3.2823-6.5-7.3316-6.5v0c-3.543 0-6.4989 2.2282-7.1827 5.19" stroke-linecap="round" stroke-linejoin="round"/></g></svg>
