<svg xmlns="http://www.w3.org/2000/svg" id="a" viewBox="0 0 72 72"><g id="b"><polyline fill="#9b9b9a" points="28.057 22.427 28.057 17 43.915 17 43.915 22.427"/><polyline fill="#92d3f5" stroke="#92d3f5" stroke-linecap="round" stroke-linejoin="round" stroke-miterlimit="10" stroke-width="1.8" points="54.999 4.022 43 16.021 36 16.021 30.958 10.979 37.921 4.017 54.999 4.017"/><polyline fill="#ea5a47" stroke="#ea5a47" stroke-linecap="round" stroke-linejoin="round" stroke-miterlimit="10" stroke-width="1.8" points="23.983 4.004 36 16.021 29 16.021 16.968 3.988 23.983 3.988"/><circle cx="36" cy="44.975" r="23" fill="#9b9b9a" stroke-linecap="round" stroke-linejoin="round" stroke-miterlimit="10" stroke-width="2"/></g><g id="c" fill="none" stroke="#000" stroke-miterlimit="10" stroke-width="2"><circle cx="36" cy="44.975" r="23"/><circle cx="36" cy="44.975" r="23" stroke-linecap="round" stroke-linejoin="round"/><line x1="29" x2="29" y1="19" y2="16.021" stroke-linecap="round" stroke-linejoin="round"/><line x1="43" x2="43" y1="19" y2="16.021" stroke-linecap="round" stroke-linejoin="round"/><line x1="29" x2="43" y1="16.021" y2="16.021" stroke-linecap="round" stroke-linejoin="round"/><line x1="25.99" x2="16.968" y1="13.01" y2="3.988" stroke-linecap="round" stroke-linejoin="round"/><line x1="31.99" x2="23.983" y1="12.01" y2="4.004" stroke-linecap="round" stroke-linejoin="round"/><line x1="34" x2="37.921" y1="8" y2="4.017" stroke-linecap="round" stroke-linejoin="round"/><line x1="46" x2="54.999" y1="13" y2="4.022" stroke-linecap="round" stroke-linejoin="round"/><line x1="16.968" x2="23.983" y1="3.988" y2="3.988" stroke-linecap="round" stroke-linejoin="round"/><line x1="37.921" x2="54.999" y1="4.017" y2="4.017" stroke-linecap="round" stroke-linejoin="round"/><path stroke-linecap="round" stroke-linejoin="round" d="M28.3219,38.3771C29.0666,34.7378,32.2865,32,36.146,32l0,0c2.2052,0,4.202,0.894,5.6472,2.3393 c2.2483,2.2483,2.0406,5.9841-0.0687,8.3627L28.1595,58h15.9729"/></g></svg>