<?xml version="1.0" encoding="UTF-8"?>
<svg id="a" viewBox="0 0 72 72" xmlns="http://www.w3.org/2000/svg"><g id="b"><ellipse transform="translate(-4.9734 53.897) rotate(-70)" cx="36" cy="30.5" rx="11.533" ry="27.882" fill="#92d3f5"/><path d="m62.2 40.036c-2.1785 5.9856-15.675 6.5684-30.145 1.3018s-17.22-8.3093-14.093-12.539c0.9582-1.2961 5.2447 4.3094 21.983 10.093 14.554 5.0289 24.434-4.8411 22.255 1.1445z" fill="#61b2e4"/></g><g id="c" fill="none" stroke="#000" stroke-linecap="round" stroke-linejoin="round" stroke-width="2"><ellipse transform="translate(-5.0564 53.751) rotate(-69.796)" cx="36" cy="30.5" rx="6.7991" ry="21.979"/><ellipse transform="translate(-4.9734 53.897) rotate(-70)" cx="36" cy="30.5" rx="11.533" ry="27.882"/><path d="m39.802 52.363c2.8865 1.5925 21.926 6.78 23.98 1.8"/><path d="m37.778 48.845c2.3577 1.41 18.063 6.2843 19.919 2.1969"/></g></svg>
