<?xml version="1.0" encoding="UTF-8"?>
<svg id="a" version="1.1" viewBox="0 0 72 72" xmlns="http://www.w3.org/2000/svg"><g id="b" fill="none" stroke="#000" stroke-linecap="round" stroke-linejoin="round" stroke-miterlimit="10"><path d="m26.51 14.13h-23" stroke-width="1.9431"/><path d="m57.404 12.046-22.961 5.4395" stroke-width="1.9742"/></g><g id="c"><path d="m3.1295 13c0.8508 16.971 5.8405 30 11.87 30s11.02-13.029 11.87-30h-23.741z" fill="#FCEA2B"/><path d="m11.404 13h-8.2747c0.8508 16.971 5.8405 30 11.87 30 1.5552 0 3.0402-0.8726 4.4039-2.4501-3.9397-5.0406-6.9336-15.18-7.9997-27.55z" fill="#F1B31C"/><path d="m34.133 16.355c4.7545 16.313 12.624 27.834 18.49 26.439s7.7059-15.225 4.6069-31.932l-23.097 5.4932z" fill="#FCEA2B"/><path d="m42.183 14.44-8.0502 1.9146c4.7545 16.313 12.624 27.834 18.49 26.439 1.513-0.3599 2.7558-1.5524 3.7175-3.4026-4.9991-3.9922-10.258-13.164-14.157-24.951z" fill="#F1B31C"/></g><g id="d" fill="none" stroke="#000" stroke-linecap="round" stroke-linejoin="round" stroke-miterlimit="10"><line x1="15" x2="15" y1="44" y2="67" stroke-width="2"/><line x1="4" x2="26" y1="67" y2="67" stroke-width="2"/><path d="M3.0427,5C3.0168,5.9411,3,6.8895,3,7.85C3,27.2628,8.3726,43,15,43S27,27.2628,27,7.85c0-0.9605-0.0168-1.9089-0.0427-2.85" stroke-width="1.9742"/><line x1="52.854" x2="58.176" y1="43.767" y2="66.143" stroke-width="2"/><line x1="47.474" x2="68.877" y1="68.688" y2="63.598" stroke-width="2"/><path d="m32.197 8.5922c0.1926 0.9215 0.3957 1.8481 0.6179 2.7825 4.4918 18.886 13.36 32.953 19.807 31.42s8.033-18.087 3.5413-36.973c-0.2222-0.9344-0.4581-1.8532-0.7009-2.7628" stroke-width="1.9742"/></g></svg>
