<svg xmlns="http://www.w3.org/2000/svg" id="a" viewBox="0 0 72 72"><g id="b"><path fill="#D0CFCE" stroke-linecap="round" stroke-linejoin="round" stroke-miterlimit="10" stroke-width="2" d="m43.457 21.323c0-5.0582-2.6112-9.1586-5.8323-9.1586s-5.8323 4.1004-5.8323 9.1586c0 4.6982 1.3551 8.5665 4.257 9.0938v0l-0.8108 28.412c0 1.1046 0.8954 2 2 2s2-0.8954 2-2l-0.0285-28.418v0c2.8967-0.5347 4.2469-4.3954 4.2469-9.088z"/></g><g id="c"><path fill="none" stroke="#000" stroke-linecap="round" stroke-linejoin="round" stroke-miterlimit="10" stroke-width="2" d="m43.457 21.323c0-5.0582-2.6112-9.1586-5.8323-9.1586s-5.8323 4.1004-5.8323 9.1586c0 4.6982 1.3551 8.5665 4.257 9.0938v0l-0.8108 28.412c0 1.1046 0.8954 2 2 2s2-0.8954 2-2l-0.0285-28.418v0c2.8967-0.5347 4.2469-4.3954 4.2469-9.088z"/></g></svg>