<svg xmlns="http://www.w3.org/2000/svg" id="a" viewBox="0 0 72 72"><g id="b"><path fill="#EA5A47" d="m58.757 59.067v-21.849h-45.738v21.849h45.738z"/><path fill="#a57939" d="m23.9 30.276c0.29 0.3853 0.7142 0.6346 1.1935 0.7018 0.4827 0.0603 0.9547-0.0583 1.3402-0.3482v-0.0018c0.7974-0.5995 0.9565-1.7382 0.3554-2.5346-0.3554-0.4713-0.8982-0.7197-1.4463-0.7197-0.3802 0-0.762 0.1186-1.0874 0.3643-0.7974 0.6011-0.9565 1.7407-0.3554 2.5382z"/><path fill="#a57939" d="m46.524 30.539c0.6857-0.8679 0.5369-2.1317-0.3291-2.8185-0.3683-0.2909-0.8073-0.432-1.2443-0.432-0.5917 0-1.1793 0.2617-1.5752 0.7613-0.6857 0.8669-0.5389 2.1307 0.3293 2.8185 0.4231 0.331 0.9502 0.4897 1.4772 0.4193 0.5329-0.0628 1.009-0.3293 1.3421-0.7486z"/><path fill="#D22F27" d="m47.681 54.448-0.0571 4.6192h11.133v-21.849h-10.863l-0.0804 6.5125 0.08-0.0038c0.5527 0 1 0.4473 1 1v8.7442c0 0.5527-0.4473 1-1 1l-0.2125-0.0235z"/></g><g id="c" fill="none" stroke="#000" stroke-linecap="round" stroke-linejoin="round" stroke-miterlimit="10" stroke-width="2"><line x1="35.815" x2="35.815" y1="44.728" y2="53.472"/><line x1="23.736" x2="23.736" y1="44.728" y2="53.472"/><line x1="47.894" x2="47.894" y1="44.728" y2="53.472"/><ellipse cx="25.34" cy="29.179" rx="2" ry="2" transform="matrix(.7984 -.6021 .6021 .7984 -12.461 21.141)"/><line x1="38.775" x2="50.293" y1="19.046" y2="10.359"/><line x1="26.937" x2="31.978" y1="27.975" y2="24.173"/><ellipse cx="44.944" cy="29.234" rx="2" ry="2" transform="matrix(.6204 -.7843 .7843 .6204 -5.8665 46.348)"/><line x1="21.337" x2="43.375" y1="10.562" y2="27.993"/><rect width="47.739" height="23.849" x="12.018" y="36.219"/></g></svg>