<svg xmlns="http://www.w3.org/2000/svg" id="a" viewBox="0 0 72 72"><g id="b"><path fill="#D0CFCE" d="m62.48 46.02c-0.74-0.16-1.45-0.22-2.13-0.22-3.8199 0-6.58 2.09-6.58 2.09l-6.06-19.68-0.51 19.24 4.66 15.96s-2.19 0.85-3.86 1.21l-0.01-0.14c-4.28 1.03-12.01 2.11-22.63 0.4v-2.92s-2.73 0.85-4.52-1.15l3.98-13.65-0.51-19.24-6.06 19.68v-0.03s-2.76-2.09-6.58-2.09c-0.68 0-1.38 0.06-2.12 0.22l7.11-23.02s1.56-5.47 3.44-7.19c1.87-1.72 8.1801-2.46 8.1801-2.46l2.1-5.37c0.12-0.3 0.47-0.55 1.22-0.55h9.01c0.76 0 1.1 0.24 1.22 0.55l2.11 5.37s6.11 1.04 7.98 2.76c1.88 1.71 3.44 7.18 3.44 7.18l7.1199 23.05z"/><polygon fill="#9B9B9A" points="30.921 7.875 41.583 7.875 36 16.958"/><rect width="21.95" height="3.688" x="25.25" y="42.25" fill="#3F3F3F"/><path fill="#3F3F3F" d="m33.775 22.045-5.0167-8.8259 1.9294-4.3596 5.5648 8.6206 5.3311-8.6206 1.5417 3.5575v1.3958c-7.0626 9.1876-11.957 28.602-11.957 28.602l-4.2859-0.2612s2.9838-12.283 6.8929-20.109z"/></g><g id="c" fill="none" stroke="#000" stroke-linecap="round" stroke-linejoin="round" stroke-miterlimit="10" stroke-width="2"><path d="m28.267 12.922s-6.3025 0.7358-8.1775 2.4233-3.4375 7.0625-3.4375 7.0625l-7.1241 22.642-9e-4 0.0041 9e-4 -0.0303-9e-4 0.0041c4.875-1.0208 8.7083 1.8333 8.7083 1.8333v0.0262l6.0634-19.333 0.5143 18.904-4.156 13.98c1.7944 1.9678 4.6915 1.352 4.6915 1.352v2.2188c10.627 1.6752 18.36 0.6209 22.641-0.3947"/><path d="m43.93 12.922s6.1059 1.0241 7.9809 2.7116 3.4375 7.0625 3.4375 7.0625l7.1241 22.642 9e-4 0.0041c-4.875-1.0208-8.7083 1.8333-8.7083 1.8333l-6.0634-19.333-0.5143 18.904 4.6611 15.679"/><path d="m36.095 17.523c-2.6908-4.8889-4.9342-7.8331-5.4623-8.6188 0 0-1.1458-1.7917 0.9583-1.7917h9.0071c2.1042 0 0.9583 1.7917 0.9583 1.7917-1.1477 1.7075-10.396 13.609-14.732 33.511"/><path d="m30.921 42.692c4.1212-17.805 11.973-28.14 13.009-29.77l-2.1148-5.2704"/><path d="m33.775 22.045c-2.6766-5.2005-4.9797-8.2986-5.5081-9.1302"/><line x1="28.267" x2="30.382" y1="12.922" y2="7.651"/><path d="m47.312 42.154c-9.8928 0.9136-17.802 0.7124-22.617 0.0011"/><path d="m47.2 46.258c-9.7712 0.8963-17.585 0.7032-22.393 0.0074"/></g></svg>