<?xml version="1.0" encoding="UTF-8"?>
<svg id="a" version="1.1" viewBox="0 0 72 72" xmlns="http://www.w3.org/2000/svg"><g id="b"><line id="c" x1="36.8" x2="58.4" y1="37" y2="37" fill="none" stroke="#000" stroke-linecap="round" stroke-linejoin="round" stroke-miterlimit="10" stroke-width="2"/></g><g id="d"><polygon points="12.9 36 16.5 67 55.5 67 59.1 36" fill="#F4AA41"/><polygon points="45.1 36 41.5 67 55.5 67 59.1 36" fill="#E27022"/><rect transform="matrix(.157 -.9876 .9876 .157 -16.807 90.937)" x="38.214" y="48.514" width="13.3" height="13.6" fill="#fff"/><rect transform="matrix(.9535 -.3015 .3015 .9535 -11.523 9.8218)" x="18.808" y="35.89" width="14.5" height="12.7" fill="#fff"/></g><g id="e" fill="none" stroke="#000" stroke-linecap="round" stroke-linejoin="round" stroke-miterlimit="10"><polyline points="60 28 55.5 67 16.5 67 12 28" stroke-width="2"/><rect transform="matrix(.157 -.9876 .9876 .157 -16.807 90.937)" x="38.214" y="48.514" width="13.3" height="13.6" stroke-width="1.7923"/><rect transform="matrix(.9535 -.3015 .3015 .9535 -11.523 9.8218)" x="18.808" y="35.89" width="14.5" height="12.7" stroke-width="1.8081"/></g></svg>
