<?xml version="1.0" encoding="UTF-8"?>
<svg id="a" viewBox="0 0 72 72" xmlns="http://www.w3.org/2000/svg"><g id="b"><path d="m43.874 19.106c-2.3448 0.8863-5.1547 3.1861-7.338 6.2834l-17.995 25.528c-6.5373 9.2739-0.804 13.974 7.0082 5.7457l21.504-22.65c4.2279-4.4533 6.0798-10.109 3.8963-11.899l-3.5093-2.8771c-0.836-0.6854-2.1117-0.6796-3.5665-0.1297" fill="#F4AA41" stroke="#f4aa41" stroke-linecap="round" stroke-linejoin="round" stroke-miterlimit="10" stroke-width="2"/><path d="m51.735 23.36c-0.13-0.46-0.34-0.85-0.66-1.14" fill="#d22f27" stroke="#d22f27" stroke-linejoin="round" stroke-miterlimit="10" stroke-width="2"/><path d="m51.695 26c-0.1 0.46-0.24 0.94-0.42 1.44-0.05 0.15-0.11 0.31-0.1801 0.46-0.06 0.17-0.1299 0.34-0.21 0.5-0.09 0.21-0.19 0.41-0.29 0.62-0.43 0.86-0.96 1.75-1.59 2.6201-0.12 0.18-0.25 0.35-0.39 0.53-0.13 0.18-0.28 0.37-0.42 0.55-0.36 0.44-0.74 0.87-1.14 1.29l-21.51 22.65c-3.66 3.86-6.86 4.87-8.56 3.9 6.4143 0.1209 35.754-37.376 34.09-40.16 1e-4 -1e-4 1.3313 3.8811 0.6201 5.5999z" fill="#E27022" stroke="#E27022" stroke-linecap="round" stroke-linejoin="round" stroke-width="2"/><path d="m48.384 13.636c0.926-1.558 2.003-2.5905 2.003-2.5905s1.8608 1.0058 1.8355 3.6491c2.357-2.2668 4.8651-2.6375 4.8651-2.6375s-0.0095 2.5317-1.913 5.1908c0.6025-0.094 1.1372-0.0757 1.5959 0.0135 1.5347 0.2795 2.2838 1.2805 2.2838 1.2805s-2.2545 3.1413-5.3876 4.0649c-0.6449 0.194-1.2192 0.2554-1.7259 0.2386-1.9705-0.0642-5.2636-2.639-4.804-5.8863 0.1736-1.2266 0.6823-2.3726 1.2472-3.3231" fill="#B1CC33" stroke="#B1CC33" stroke-linejoin="round" stroke-miterlimit="10" stroke-width="2"/><path d="m59.05 18.54s-2.25 3.14-5.38 4.07c-0.65 0.19-1.22 0.25-1.73 0.24-0.92-0.04-2.14-0.62-3.11-1.56l8.26-9.23s-0.01 2.53-1.92 5.19c0.61-0.1 1.14-0.08 1.6 0.01 1.54 0.28 2.28 1.28 2.28 1.28z" fill="#5C9E31"/></g><g id="c" fill="none" stroke="#000" stroke-linejoin="round" stroke-miterlimit="10" stroke-width="2"><path d="m42.258 19.898c-1.9435 1.1541-4.0222 3.0815-5.7213 5.4919l-17.995 25.528c-6.5373 9.2739-0.804 13.974 7.0082 5.7457l21.504-22.65c1.9941-2.1004 3.4596-4.4682 4.2225-6.5719" stroke-linecap="round"/><path d="m48.384 13.636c0.926-1.558 2.003-2.5905 2.003-2.5905s1.8608 1.0058 1.8355 3.6491c2.357-2.2668 4.8651-2.6375 4.8651-2.6375s-0.0095 2.5317-1.913 5.1908c0.6025-0.094 1.1372-0.0757 1.5959 0.0135 1.5347 0.2795 2.2838 1.2805 2.2838 1.2805s-2.2545 3.1413-5.3876 4.0649c-0.6449 0.194-1.2192 0.2554-1.7259 0.2386-1.9705-0.0642-5.2636-2.639-4.804-5.8863 0.1736-1.2266 0.6823-2.3726 1.2472-3.3231"/></g></svg>
