<?xml version="1.0" encoding="UTF-8"?>
<svg id="a" viewBox="0 0 72 72" xmlns="http://www.w3.org/2000/svg"><g id="b"><path d="m59.042 27.873c0 18.29-7.5955 27.208-14.675 31.541-6.1848 3.8041-11.992 4.1064-11.992 4.1064-10.808 0-19.575-8.767-19.575-19.575 0-6.6509 3.7337-11.43 8.3765-16.073 12.069-12.069 10.762-18.365 21.653-18.365 8.956 0 16.211 7.2681 16.211 16.224v2.1414z" fill="#A57939" stroke-linecap="round" stroke-linejoin="round" stroke-miterlimit="10" stroke-width="2"/><path d="m59.045 25.73v2.14c0 18.29-7.6 27.21-14.68 31.54-6.1801 3.81-11.99 4.11-11.99 4.11-1.67 0-3.28-0.21-4.8199-0.6 31.56-8.62 25.35-49.89 25.35-49.89 3.74 2.97 6.14 7.56 6.14 12.7z" fill="#a57939"/><circle cx="38.274" cy="51.65" r="3.2408" fill="#A57939" stroke-linecap="round" stroke-linejoin="round" stroke-miterlimit="10" stroke-width="2"/></g><g id="c"><path d="m59.042 27.873c0 18.29-7.5955 27.208-14.675 31.541-6.1848 3.8041-11.992 4.1064-11.992 4.1064-10.808 0-19.575-8.767-19.575-19.575 0-6.6509 3.7337-11.43 8.3765-16.073 12.069-12.069 10.762-18.365 21.653-18.365 8.956 0 16.211 7.2681 16.211 16.224v2.1414z" fill="none" stroke="#000" stroke-linecap="round" stroke-linejoin="round" stroke-miterlimit="10" stroke-width="2"/><circle cx="39.534" cy="16.214" r="1.2603"/><circle cx="38.274" cy="51.65" r="3.2408" fill="none" stroke="#000" stroke-linecap="round" stroke-linejoin="round" stroke-miterlimit="10" stroke-width="2"/><path d="m59.042 27.873c0 18.29-7.5955 27.208-14.675 31.541-6.1848 3.8041-11.992 4.1064-11.992 4.1064-10.808 0-19.575-8.767-19.575-19.575 0-6.6509 3.7337-11.43 8.3765-16.073 12.069-12.069 10.762-18.365 21.653-18.365 8.956 0 16.211 7.2681 16.211 16.224v2.1414z" fill="none" stroke="#000" stroke-linecap="round" stroke-linejoin="round" stroke-miterlimit="10" stroke-width="2"/></g></svg>
