<svg xmlns="http://www.w3.org/2000/svg" id="a" viewBox="0 0 72 72"><g id="b" stroke-linecap="round" stroke-linejoin="round" stroke-miterlimit="10" stroke-width="2"><circle cx="36.138" cy="35.762" r="25.012" fill="#5C9E31"/><path fill="#B1CC33" d="m37.315 26.332 2.3679-2.1883c1.156-1.0683 3.0228-0.1693 2.9083 1.4006l-0.2345 3.2157c-0.0658 0.9029 0.5736 1.7048 1.4686 1.8415l3.1872 0.4869c1.5559 0.2377 2.017 2.2578 0.7183 3.147l-2.6603 1.8216c-0.747 0.5115-0.9752 1.5114-0.5241 2.2963l1.6065 2.7955c0.7843 1.3647-0.5076 2.9846-2.0126 2.5237l-3.0829-0.9442c-0.8657-0.2651-1.7897 0.1799-2.1221 1.022l-1.184 2.999c-0.578 1.464-2.65 1.464-3.228 0l-1.184-2.999c-0.3324-0.8421-1.2565-1.2871-2.1221-1.022l-3.0829 0.9442c-1.505 0.4609-2.7969-1.159-2.0126-2.5237l1.6065-2.7955c0.4511-0.785 0.2229-1.7848-0.5241-2.2963l-2.6603-1.8216c-1.2987-0.8893-0.8377-2.9093 0.7183-3.147l3.1872-0.4869c0.895-0.1367 1.5344-0.9386 1.4685-1.8415l-0.2345-3.2157c-0.1145-1.5698 1.7523-2.4688 2.9083-1.4006l2.3679 2.1883c0.665 0.6145 1.6906 0.6145 2.3555 0z"/></g><g id="c"><circle cx="36.138" cy="35.762" r="25.012" fill="none" stroke="#000" stroke-linecap="round" stroke-linejoin="round" stroke-miterlimit="10" stroke-width="2"/><path fill="none" stroke="#000" stroke-linecap="round" stroke-linejoin="round" stroke-miterlimit="10" stroke-width="2" d="m37.315 26.332 2.3679-2.1883c1.156-1.0683 3.0228-0.1693 2.9083 1.4006l-0.2345 3.2157c-0.0658 0.9029 0.5736 1.7048 1.4686 1.8415l3.1872 0.4869c1.5559 0.2377 2.017 2.2578 0.7183 3.147l-2.6603 1.8216c-0.747 0.5115-0.9752 1.5114-0.5241 2.2963l1.6065 2.7955c0.7843 1.3647-0.5076 2.9846-2.0126 2.5237l-3.0829-0.9442c-0.8657-0.2651-1.7897 0.1799-2.1221 1.022l-1.184 2.999c-0.578 1.464-2.65 1.464-3.228 0l-1.184-2.999c-0.3324-0.8421-1.2565-1.2871-2.1221-1.022l-3.0829 0.9442c-1.505 0.4609-2.7969-1.159-2.0126-2.5237l1.6065-2.7955c0.4511-0.785 0.2229-1.7848-0.5241-2.2963l-2.6603-1.8216c-1.2987-0.8893-0.8377-2.9093 0.7183-3.147l3.1872-0.4869c0.895-0.1367 1.5344-0.9386 1.4685-1.8415l-0.2345-3.2157c-0.1145-1.5698 1.7523-2.4688 2.9083-1.4006l2.3679 2.1883c0.665 0.6145 1.6906 0.6145 2.3555 0z"/><ellipse cx="24.191" cy="25.13" rx=".914" ry="1.827" transform="matrix(.6637 -.748 .748 .6637 -10.662 26.547)"/><ellipse cx="36.039" cy="19.052" rx=".914" ry="1.827"/><ellipse cx="48.069" cy="25.24" rx="1.827" ry=".914" transform="matrix(.7071 -.7071 .7071 .7071 -3.7684 41.382)"/><ellipse cx="50.808" cy="38.1" rx=".914" ry="1.827" transform="matrix(.1109 -.9938 .9938 .1109 7.3099 84.372)"/><ellipse cx="21.473" cy="37.99" rx="1.827" ry=".914"/><ellipse cx="29.379" cy="48.704" rx="1.827" ry=".914" transform="matrix(.5 -.866 .866 .5 -27.489 49.795)"/><ellipse cx="43.053" cy="48.737" rx=".914" ry="1.827" transform="matrix(.882 -.4712 .4712 .882 -17.886 26.037)"/></g></svg>