<?xml version="1.0" encoding="UTF-8"?>
<svg id="a" viewBox="0 0 72 72" xmlns="http://www.w3.org/2000/svg"><g id="b"><path d="m36 64c12.858 0 20.961-11.977 20.961-26.157 0-14.652-8.4161-29.843-20.961-29.843s-20.961 15.191-20.961 29.843c0 14.18 8.1028 26.157 20.961 26.157z" fill="#fff"/><path d="m56.96 37.84c0 14.18-8.1 26.16-20.96 26.16s-20.96-11.98-20.96-26.16c2.8265 16.42 17.647 18.981 26.64 12.493 9.6972-6.9967 12.889-31.669-0.01-41.233 9.34 3.73 15.29 16.43 15.29 28.74z" fill="#d0cfce"/></g><g id="c"><path d="m36 64c12.858 0 20.961-11.977 20.961-26.157 0-14.652-8.4161-29.843-20.961-29.843s-20.961 15.191-20.961 29.843c0 14.18 8.1028 26.157 20.961 26.157z" fill="none" stroke="#000" stroke-linecap="round" stroke-linejoin="round" stroke-width="2"/></g></svg>
