<svg xmlns="http://www.w3.org/2000/svg" id="a" viewBox="0 0 72 72"><g id="b"><ellipse cx="35.719" cy="41.859" fill="#d0cfce" rx="24.281" ry="10.984"/><ellipse cx="35.719" cy="29.719" fill="#fcea2b" rx="19.656" ry="8.094"/><ellipse cx="35.719" cy="25.094" fill="#fcea2b" rx="19.656" ry="8.094"/><ellipse cx="35.719" cy="31.031" fill="#fcea2b" stroke="#fcea2b" stroke-miterlimit="10" stroke-width="2" rx="19.656" ry="8.094"/><ellipse cx="35.719" cy="40.125" fill="#fcea2b" stroke="#fcea2b" stroke-miterlimit="10" stroke-width="2" rx="19.656" ry="8.094"/><ellipse cx="35.719" cy="35.5" fill="#fcea2b" stroke="#fcea2b" stroke-miterlimit="10" stroke-width="2" rx="19.656" ry="8.094"/><path fill="#f1b31c" d="m38.609 25.094c-4.1508 0-7.5156 1.8119-7.5156 4.0469 0 1.6833 1.9094 3.1258 4.625 3.7357v4.3581a1.7344 1.7344 0 0 0 3.4687 0v2.3125a1.7344 1.7344 0 0 0 3.4687 0v-3.4688a1.7344 1.7344 0 0 0 3.4688 0v-6.9375c0-2.235-3.365-4.0469-7.5156-4.0469zm4.0406 7.4554 0.0061-2e-3v0.0623c1e-4 -0.0206-0.0053-0.0394-0.0061-0.0603z"/></g><g id="c" fill="none" stroke="#000" stroke-linecap="round" stroke-linejoin="round" stroke-width="2"><path d="M35.4059,34.3427q-.5911-.0037-1.1735-.0217c-10.1615-.3129-18.17-3.8068-18.17-8.071,0-4.47,8.8-8.0938,19.6563-8.0938S55.375,21.78,55.375,26.25c0,2.884-3.6633,5.4157-9.1784,6.8492"/><path d="m36.875 38.969c-10.856 0-20.812-3.6236-20.812-8.0937"/><path d="M55.375,30.875c0,2.3681-2.47,4.4987-6.4069,5.9788-.6809.256-2.08.7438-2.8431.9587"/><path d="M55.375,35.5c0,4.47-8.8,8.0938-19.6562,8.0938S16.0625,39.97,16.0625,35.5"/><path d="m55.375 40.125c0 4.47-8.8 8.0938-19.656 8.0938s-19.656-3.6237-19.656-8.0938"/><path d="m58.844 43.016c0 6.0665-10.354 10.984-23.125 10.984s-23.125-4.9179-23.125-10.984"/><path d="m38.609 25.094c-4.1508 0-7.5156 1.8119-7.5156 4.0469 0 1.6833 1.9094 3.1258 4.625 3.7357v4.3581a1.7344 1.7344 0 0 0 3.4687 0v2.3125a1.7344 1.7344 0 0 0 3.4687 0v-3.4688a1.7344 1.7344 0 0 0 3.4688 0v-6.9375c0-2.235-3.365-4.0469-7.5156-4.0469z"/></g></svg>