<svg xmlns="http://www.w3.org/2000/svg" id="a" viewBox="0 0 72 72"><g id="b" fill="#ea5a47"><path d="m14.241 39.418c-0.2002 0.6806-0.042 1.4443 0.4942 1.9795l3.6943 3.7011c0.7803 0.7813 2.0469 0.7813 2.8281 0l1.4912-1.5058c0.9053-0.9043 2.1543-1.4639 3.5371-1.4639 2.7608 1e-3 5-2.2383 5-5-9e-4 -2.7627 2.2383-5.001 5-5 2.7618 0 5-2.2393 5-5.001-9e-4 -2.7617 2.2383-5 5-5 2.7618 0 5-2.2383 5-4.999 0-1.3818 0.5596-2.6328 1.4649-3.5371l1.5058-1.4922c0.7813-0.7803 0.7813-2.0469 0-2.8281l-3.7011-3.6934c-0.5391-0.5381-1.3047-0.6963-1.9864-0.4922-2.4687 0.3047-4.3877 2.3868-4.3877 4.9375 1e-3 2.7627-2.2373 5.001-5 5-2.7617 0-5.0009 2.2393-5 5.001 1e-3 2.7617-2.2382 5-5.0009 5-2.7608 0-5 2.2383-5 5 9e-4 2.7617-2.2383 5.001-5 5-2.5528 0-4.6368 1.9219-4.9395 4.3936z"/><path d="m17.241 60.733c-0.2002 0.6797-0.042 1.4434 0.4942 1.9795l3.6943 3.7012c0.7803 0.7812 2.0469 0.7812 2.8281 0l1.4912-1.5059c0.9053-0.9053 2.1543-1.4639 3.5371-1.4639 2.7608 0 5-2.2382 5-5-9e-4 -2.7627 2.2383-5.0009 5-5 2.7618 0 5-2.2392 5-5.0009-9e-4 -2.7618 2.2383-5 5-5 2.7618 0 5-2.2383 5-5 0-1.3809 0.5596-2.6319 1.4649-3.5362l1.5058-1.4922c0.7813-0.7802 0.7813-2.0468 0-2.8281l-3.7011-3.6933c-0.5391-0.5381-1.3047-0.6963-1.9864-0.4932-2.4687 0.3057-4.3877 2.3867-4.3877 4.9385 1e-3 2.7627-2.2373 5.0009-5 5-2.7617 0-5.0009 2.2392-5 5 1e-3 2.7627-2.2382 5.0009-5.0009 5.0009-2.7608-9e-4 -5 2.2383-5 5 9e-4 2.7618-2.2383 5.001-5 5-2.5528 0-4.6368 1.9219-4.9395 4.3936z"/></g><g id="c" fill="none" stroke="#000" stroke-linecap="round" stroke-linejoin="round" stroke-miterlimit="10" stroke-width="2"><path d="m47.733 13.576c0 2.7617-2.2383 5-5 5-2.7617-1e-3 -5 2.2383-5 5s-2.2383 5.0009-5 5.0009c-2.7617-0.0019-5 2.2374-5 5 0 2.7618-2.2383 5-5 5"/><path d="m14.241 39.418c-0.2002 0.6806-0.042 1.4443 0.4942 1.9795l3.6943 3.7011c0.7803 0.7813 2.0469 0.7813 2.8281 0l1.4912-1.5058c0.9053-0.9043 2.1543-1.4639 3.5371-1.4639 2.7608 1e-3 5-2.2383 5-5-9e-4 -2.7627 2.2383-5.001 5-5 2.7618 0 5-2.2393 5-5.001-9e-4 -2.7617 2.2383-5 5-5 2.7618 0 5-2.2383 5-4.999 0-1.3818 0.5596-2.6328 1.4649-3.5371l1.5058-1.4922c0.7813-0.7803 0.7813-2.0469 0-2.8281l-3.7011-3.6934c-0.5391-0.5381-1.3047-0.6963-1.9864-0.4922-2.4687 0.3047-4.3877 2.3868-4.3877 4.9375 1e-3 2.7627-2.2373 5.001-5 5-2.7617 0-5.0009 2.2393-5 5.001 1e-3 2.7617-2.2382 5-5.0009 5-2.7608 0-5 2.2383-5 5 9e-4 2.7617-2.2383 5.001-5 5-2.5528 0-4.6368 1.9219-4.9395 4.3936z"/><path d="m50.733 34.892c0 2.7617-2.2383 5-5 5-2.7617-1e-3 -5 2.2383-5 5s-2.2383 5-5 5c-2.7617-1e-3 -5 2.2383-5 5s-2.2383 5.001-5 5"/><path d="m17.241 60.733c-0.2002 0.6797-0.042 1.4434 0.4942 1.9795l3.6943 3.7012c0.7803 0.7812 2.0469 0.7812 2.8281 0l1.4912-1.5059c0.9053-0.9053 2.1543-1.4639 3.5371-1.4639 2.7608 0 5-2.2382 5-5-9e-4 -2.7627 2.2383-5.0009 5-5 2.7618 0 5-2.2392 5-5.0009-9e-4 -2.7618 2.2383-5 5-5 2.7618 0 5-2.2383 5-5 0-1.3809 0.5596-2.6319 1.4649-3.5362l1.5058-1.4922c0.7813-0.7802 0.7813-2.0468 0-2.8281l-3.7011-3.6933c-0.5391-0.5381-1.3047-0.6963-1.9864-0.4932-2.4687 0.3057-4.3877 2.3867-4.3877 4.9385 1e-3 2.7627-2.2373 5.0009-5 5-2.7617 0-5.0009 2.2392-5 5 1e-3 2.7627-2.2382 5.0009-5.0009 5.0009-2.7608-9e-4 -5 2.2383-5 5 9e-4 2.7618-2.2383 5.001-5 5-2.5528 0-4.6368 1.9219-4.9395 4.3936z"/></g></svg>