<svg xmlns="http://www.w3.org/2000/svg" id="a" viewBox="0 0 72 72"><g id="b"><path fill="#f4aa41" d="m11.931 45.93c-3.9043 3.9043-3.9063 10.236 0 14.142 3.9043 3.9053 10.238 3.9053 14.142 1e-3l33.999-34.001c3.9043-3.9063 3.9043-10.237 0-14.142-3.9063-3.9063-10.237-3.9063-14.143-1e-3l-33.999 34.001z"/></g><g id="c" fill="none" stroke="#000" stroke-linecap="round" stroke-linejoin="round" stroke-miterlimit="10" stroke-width="2"><path d="m11.931 45.93c-3.9043 3.9043-3.9063 10.236 0 14.142 3.9043 3.9053 10.238 3.9053 14.142 1e-3l33.999-34.001c3.9043-3.9063 3.9043-10.237 0-14.142-3.9063-3.9063-10.237-3.9063-14.143-1e-3l-33.999 34.001z"/><path d="m45.93 11.929c-3.9043 3.9053-3.9043 10.237 0 14.143"/><path d="m37.43 20.429c-3.9043 3.9053-3.9043 10.237 0 14.143"/><path d="m28.93 28.929c-3.9033 3.9063-3.9033 10.238 0 14.143"/><path d="m20.431 37.43c-3.9043 3.9053-3.9043 10.237 0 14.143"/></g></svg>