<svg xmlns="http://www.w3.org/2000/svg" id="a" viewBox="0 0 72 72"><g id="b" fill="#f4aa41"><path d="m59.107 36.112-8.0185 4.7686c0.417 2.3398 2.4521 4.1191 4.9111 4.1191 2.7617 0 5-2.2393 5-5 0-1.5801-0.748-2.9717-1.8926-3.8877z"/><path d="m42 17c1.1045 0 2 0.8955 2 2l-3 15c0 1.1045-0.8955 2-2 2h-6c-1.1045 0-2-0.8955-2-2l-3-15c0-1.1045 0.8955-2 2-2h12z"/><path d="m53.496 23.576-9.2051-3.9063c-0.1308-0.0556-0.2656-0.0947-0.4004-0.122l-2.8906 14.452c0 0.8818-0.5742 1.6221-1.3672 1.8877 0.2012 0.2539 0.459 0.4668 0.7774 0.6025l3.6816 1.5625c1.0176 0.4317 2.1914-0.0429 2.623-1.0595l7.8418-10.794c0.4317-1.0166-0.0429-2.1914-1.0605-2.623z"/><path d="m60.412 32.478-5.7558-5.5566c-0.125-0.1211-0.2637-0.2158-0.4092-0.2969l-7.5323 10.368c-0.1826 0.4316-0.5039 0.7578-0.8867 0.9668-0.1308 0.6464 0.0567 1.3437 0.5664 1.8349l1.4395 1.3897c0.7949 0.7675 2.0605 0.7451 2.8281-0.0498l9.7988-5.8282c0.7676-0.7949 0.7452-2.0605-0.0488-2.8281z"/><path d="m12.893 36.112 8.0185 4.7686c-0.417 2.3398-2.4521 4.1191-4.9111 4.1191-2.7617 0-5-2.2393-5-5 0-1.5801 0.748-2.9717 1.8926-3.8877z"/><path d="m18.504 23.576 9.2051-3.9063c0.1308-0.0556 0.2656-0.0947 0.4004-0.122l2.8906 14.452c0 0.8818 0.5742 1.6221 1.3672 1.8877-0.2012 0.2539-0.459 0.4668-0.7774 0.6025l-3.6816 1.5625c-1.0176 0.4317-2.1914-0.0429-2.623-1.0595l-7.8418-10.794c-0.4317-1.0166 0.0429-2.1914 1.0605-2.623z"/><path d="m11.588 32.478 5.7559-5.5566c0.125-0.1211 0.2636-0.2158 0.4091-0.2969l7.5323 10.368c0.1826 0.4316 0.5039 0.7578 0.8867 0.9668 0.1308 0.6464-0.0567 1.3437-0.5664 1.8349l-1.4395 1.3897c-0.7949 0.7675-2.0605 0.7451-2.8281-0.0498l-9.7988-5.8282c-0.7676-0.7949-0.7452-2.0605 0.0488-2.8281z"/></g><g id="c" fill="none" stroke="#000" stroke-linecap="round" stroke-linejoin="round" stroke-miterlimit="10" stroke-width="2"><path d="m59.107 36.112-8.0185 4.7686c0.417 2.3398 2.4521 4.1191 4.9111 4.1191 2.7617 0 5-2.2393 5-5 0-1.5801-0.748-2.9717-1.8926-3.8877z"/><path d="m42 17c1.1045 0 2 0.8955 2 2l-3 15c0 1.1045-0.8955 2-2 2h-6c-1.1045 0-2-0.8955-2-2l-3-15c0-1.1045 0.8955-2 2-2h12z"/><path d="m53.496 23.576-9.2051-3.9063c-0.1308-0.0556-0.2656-0.0947-0.4004-0.122l-2.8906 14.452c0 0.8818-0.5742 1.6221-1.3672 1.8877 0.2012 0.2539 0.459 0.4668 0.7774 0.6025l3.6816 1.5625c1.0176 0.4317 2.1914-0.0429 2.623-1.0595l7.8418-10.794c0.4317-1.0166-0.0429-2.1914-1.0605-2.623z"/><path d="m60.412 32.478-5.7558-5.5566c-0.125-0.1211-0.2637-0.2158-0.4092-0.2969l-7.5323 10.368c-0.1826 0.4316-0.5039 0.7578-0.8867 0.9668-0.1308 0.6464 0.0567 1.3437 0.5664 1.8349l1.4395 1.3897c0.7949 0.7675 2.0605 0.7451 2.8281-0.0498l9.7988-5.8282c0.7676-0.7949 0.7452-2.0605-0.0488-2.8281z"/><path d="m12.893 36.112 8.0185 4.7686c-0.417 2.3398-2.4521 4.1191-4.9111 4.1191-2.7617 0-5-2.2393-5-5 0-1.5801 0.748-2.9717 1.8926-3.8877z"/><path d="m18.504 23.576 9.2051-3.9063c0.1308-0.0556 0.2656-0.0947 0.4004-0.122l2.8906 14.452c0 0.8818 0.5742 1.6221 1.3672 1.8877-0.2012 0.2539-0.459 0.4668-0.7774 0.6025l-3.6816 1.5625c-1.0176 0.4317-2.1914-0.0429-2.623-1.0595l-7.8418-10.794c-0.4317-1.0166 0.0429-2.1914 1.0605-2.623z"/><path d="m11.588 32.478 5.7559-5.5566c0.125-0.1211 0.2636-0.2158 0.4091-0.2969l7.5323 10.368c0.1826 0.4316 0.5039 0.7578 0.8867 0.9668 0.1308 0.6464-0.0567 1.3437-0.5664 1.8349l-1.4395 1.3897c-0.7949 0.7675-2.0605 0.7451-2.8281-0.0498l-9.7988-5.8282c-0.7676-0.7949-0.7452-2.0605 0.0488-2.8281z"/></g></svg>