<?xml version="1.0" encoding="UTF-8"?>
<svg id="a" viewBox="0 0 72 72" xmlns="http://www.w3.org/2000/svg"><g id="b" stroke-linecap="round" stroke-linejoin="round" stroke-miterlimit="10" stroke-width="2"><path d="m57.41 33.18c-0.11 0.11-0.23 0.23-0.36 0.34-0.12 0.11-0.24 0.21-0.37 0.33-0.13 0.09-0.25 0.2-0.39 0.3-0.58 0.44-1.2 0.82-1.86 1.18-1.66 0.91-3.54 1.64-5.45 2.51-0.01 0-0.01 0.01-0.01 0.01-0.3 0.13-0.59 0.26-0.89 0.41-0.62 0.3-1.25 0.62-1.86 0.96-0.27 0.15-0.53 0.3-0.79 0.47-0.29 0.17-0.58 0.36-0.86 0.56-0.2 0.13-0.4 0.27-0.59 0.43-0.65 0.47-1.27 1-1.87 1.6-0.7 0.7-1.31 1.44-1.84 2.2-0.16 0.22-0.31 0.44-0.45 0.67-0.01 0.01-0.02 0.02-0.02 0.03-2.3 3.57-3.19 7.48-5.32 10.6-0.21 0.31-0.44 0.62-0.68 0.93-0.25 0.3-0.51 0.59-0.79 0.87-3.24 3.2401-7.92 4.14-11.97 2.72h-0.0099c-0.65-0.23-1.29-0.53-1.9-0.89-0.21-0.12-0.42-0.25-0.63-0.39-0.15-0.1-0.3-0.2-0.44-0.31-0.12-0.08-0.23-0.17-0.34-0.2599-0.17-0.13-0.34-0.27-0.5-0.42-0.16-0.14-0.3199-0.29-0.48-0.45 0 0 12.14-3.83 18.14-12.83s13.24-12.13 13.24-12.13 9.67-4.53 6.96-17.51c0.83 0.49 1.62 1.09 2.33 1.8 4.4999 4.4999 4.4899 11.78-1e-4 16.27z" fill="#6A462F" stroke="#6A462F"/><path d="m48.12 32.62s-8.3558 2.4789-13.24 12.13c-5.2239 10.322-17.688 13.601-18.14 12.83-4.48-4.49-4.48-11.78 0-16.27 0.12-0.11 0.24-0.23 0.36-0.34s0.25-0.21 0.38-0.33c0.13-0.09 0.25-0.2 0.39-0.3 0.57-0.44 1.2-0.82 1.86-1.18 1.14-0.62 2.38-1.16 3.66-1.71 2.92-1.27 6.05-2.6201 8.66-5.23 4.21-4.21 4.9-9.52 7.62-13.51 0.21-0.31 0.44-0.62 0.69-0.93 0.25-0.3 0.51-0.59 0.78-0.87 0.34-0.34 0.7-0.66 1.07-0.95 0.7-0.54 1.44-0.99 2.22-1.35l0.01-0.01c0.34-0.15 0.68-0.29 1.03-0.41 0.28-0.1 0.5601-0.19 0.84-0.26 0.98-0.26 2-0.39 3.01-0.39 0.21 0 0.42 0.01 0.63 0.02 1.78 0.1 3.54 0.62 5.13 1.55 2.71 12.98-6.96 17.51-6.96 17.51z" fill="#A57939" stroke="#A57939"/></g><g id="c"><path d="m57.41 33.18c-0.11 0.11-0.23 0.23-0.36 0.34-0.12 0.11-0.24 0.21-0.37 0.33-0.13 0.09-0.25 0.2-0.39 0.3-0.58 0.44-1.2 0.82-1.86 1.18-1.66 0.91-3.54 1.64-5.45 2.51-0.01 0-0.01 0.01-0.01 0.01-0.3 0.13-0.59 0.26-0.89 0.41-0.62 0.3-1.25 0.62-1.86 0.96-0.27 0.15-0.53 0.3-0.79 0.47-0.29 0.17-0.58 0.36-0.86 0.56-0.2 0.13-0.4 0.27-0.59 0.43-0.65 0.47-1.27 1-1.87 1.6-0.7 0.7-1.31 1.44-1.84 2.2-0.16 0.22-0.31 0.44-0.45 0.67-0.01 0.01-0.02 0.02-0.02 0.03-2.3 3.57-3.19 7.48-5.32 10.6-0.21 0.31-0.44 0.62-0.68 0.93-0.25 0.3-0.51 0.59-0.79 0.87-3.24 3.2401-7.92 4.14-11.97 2.72h-0.0099c-0.65-0.23-1.29-0.53-1.9-0.89-0.21-0.12-0.42-0.25-0.63-0.39-0.15-0.1-0.3-0.2-0.44-0.31-0.12-0.08-0.23-0.17-0.34-0.2599-0.17-0.13-0.34-0.27-0.5-0.42-0.16-0.14-0.3199-0.29-0.48-0.45-4.48-4.49-4.48-11.78 0-16.27 0.12-0.11 0.24-0.23 0.36-0.34s0.25-0.21 0.38-0.33c0.13-0.09 0.25-0.2 0.39-0.3 0.57-0.44 1.2-0.82 1.86-1.18 1.14-0.62 2.38-1.16 3.66-1.71 2.92-1.27 6.05-2.6201 8.66-5.23 4.21-4.21 4.9-9.52 7.62-13.51 0.21-0.31 0.44-0.62 0.69-0.93 0.25-0.3 0.51-0.59 0.78-0.87 0.34-0.34 0.7-0.66 1.07-0.95 0.7-0.54 1.44-0.99 2.22-1.35l0.01-0.01c0.34-0.15 0.68-0.29 1.03-0.41 0.28-0.1 0.5601-0.19 0.84-0.26 0.98-0.26 2-0.39 3.01-0.39 0.21 0 0.42 0.01 0.63 0.02 2.72 0.16 5.39 1.28 7.46 3.35 4.4999 4.4999 4.4899 11.78-1e-4 16.27z" fill="none" stroke="#000" stroke-linecap="round" stroke-linejoin="round" stroke-miterlimit="10" stroke-width="2"/></g></svg>
