<?xml version="1.0" encoding="UTF-8"?>
<svg id="a" viewBox="0 0 72 72" xmlns="http://www.w3.org/2000/svg"><g id="b"><path d="m52.75 44.604c0 9.0482-7.3378 16.375-16.375 16.375-9.0482 0-16.375-7.3272-16.375-16.375 0-0.2534 0.0106-0.4962 0.0211-0.7496 0.095-2.2911 0.6757-4.4661 1.6259-6.4193 0.6335-1.5731 1.3831-3.1674 2.1432-4.7722 2.0377-4.3182 4.1388-8.6892 4.1388-13.039 0-4.6667 3.7797-8.4464 8.4464-8.4464 4.656 0 8.4464 3.7797 8.4464 8.4464 0 4.3499 2.101 8.7209 4.1387 13.039 0.7601 1.6048 1.5098 3.1991 2.1433 4.7722 0.8552 2.1644 1.4992 4.3077 1.6259 6.4193 0.0105 0.2534 0.0211 0.4962 0.0211 0.7496z" fill="#B1CC33" stroke-miterlimit="10" stroke-width="2"/><circle cx="36.375" cy="44.527" r="8.4489" fill="#A57939" stroke="#A57939" stroke-linecap="round" stroke-linejoin="round" stroke-miterlimit="10" stroke-width="2"/><path d="m44.82 44.522c0 4.6694-3.7764 8.4551-8.4458 8.4551 0 0 9.6829-7.2273 0-16.901 4.6694 1e-4 8.4458 3.7858 8.4458 8.4459z" fill="#6A462F"/></g><g id="c" fill="none" stroke="#000" stroke-miterlimit="10" stroke-width="2"><path d="m52.75 44.604c0 9.0482-7.3378 16.375-16.375 16.375-9.0482 0-16.375-7.3272-16.375-16.375 0-0.2534 0.0106-0.4962 0.0211-0.7496 0.095-2.2911 0.6757-4.4661 1.6259-6.4193 0.6335-1.5731 1.3831-3.1674 2.1432-4.7722 2.0377-4.3182 4.1388-8.6892 4.1388-13.039 0-4.6667 3.7797-8.4464 8.4464-8.4464 4.656 0 8.4464 3.7797 8.4464 8.4464 0 4.3499 2.101 8.7209 4.1387 13.039 0.7601 1.6048 1.5098 3.1991 2.1433 4.7722 0.8552 2.1644 1.4992 4.3077 1.6259 6.4193 0.0105 0.2534 0.0211 0.4962 0.0211 0.7496z"/><circle cx="36.375" cy="44.527" r="8.4489" stroke-linecap="round" stroke-linejoin="round"/></g></svg>
