<?xml version="1.0" encoding="UTF-8"?>
<svg id="a" viewBox="0 0 72 72" xmlns="http://www.w3.org/2000/svg"><g id="b"><path d="m15.391 65 0.7657 0.543c0.5126 0.4072 1.1523 0.6601 1.8574 0.6601 1.1484 0 2.1347-0.6523 2.6386-1.6006 0.8516 1.543 2.0977-0.665 5.3165-1.8525 0.2841 0.5352 1.3476 1.5547 4.1982 2.7822l0.456-0.8808c3e-3 0.0019 0.3877 0.1757 0.5918 0.2314 0.0313 0.0088 0.0616 0.0205 0.0928 0.0283 0.2237 0.0537 0.4541 0.0889 0.6944 0.0889 0.1826 0 0.3593-0.0225 0.5332-0.0537 0.0537-0.0098 0.1054-0.0215 0.1582-0.0342 0.124-0.0293 0.2441-0.0674 0.3623-0.1123 0.0498-0.0185 0.1015-0.0342 0.1513-0.0557 0.1328-0.0586 0.2588-0.1289 0.3809-0.207 0.085-0.0527 0.1631-0.1123 0.2422-0.1728 0.0371-0.0303 0.0742-0.0606 0.1103-0.0918 0.2862-0.2442 0.5225-0.5381 0.7002-0.8731 0 0 0 1e-3 1e-3 1e-3 0.2998 0.543 0.6924 1.0195 1.165 1.416 0.0538 0.0459 0.1084 0.0918 0.1641 0.1357 0.1328 0.1016 0.2666 0.2002 0.4092 0.2881 0.1592 0.1006 0.3271 0.1885 0.498 0.2705 0.1201 0.0567 0.2403 0.1075 0.3653 0.1543 0.1982 0.0762 0.4013 0.1397 0.6113 0.1905 0.0869 0.0205 0.1738 0.039 0.2627 0.0556 0.2871 0.0518 0.5801 0.0889 0.8828 0.0889h2e-3 9e-4c0.3047 0 0.5987-0.0371 0.8877-0.0898 0.086-0.0157 0.1699-0.0342 0.2549-0.0538 0.2149-0.0517 0.4238-0.1162 0.627-0.1953 0.1054-0.04 0.2089-0.08 0.3105-0.1269 0.1885-0.0889 0.3721-0.1865 0.5479-0.2979 0.1377-0.0849 0.2656-0.1797 0.3945-0.2773 0.0625-0.0498 0.123-0.1006 0.1846-0.1524 0.4638-0.3916 0.8505-0.8613 1.1474-1.3964 2e-3 -3e-3 0.0039-0.0069 0.0069-0.0098 0.1787 0.3359 0.417 0.6318 0.705 0.876 0.0332 0.0293 0.0664 0.0566 0.1016 0.084 0.0811 0.0634 0.1611 0.124 0.248 0.1787 0.1202 0.0761 0.2461 0.1455 0.378 0.205 0.0508 0.0215 0.1035 0.0372 0.1562 0.0567 0.1153 0.0439 0.2344 0.081 0.3565 0.1113 0.0537 0.0127 0.1064 0.0244 0.1611 0.0342 0.1719 0.0312 0.3477 0.0537 0.5293 0.0537h2e-3 9e-4c0.1836 0 0.3604-0.0225 0.5342-0.0537 0.0518-0.0098 0.1016-0.0215 0.1533-0.0332 0.128-0.0303 0.252-0.0693 0.3731-0.1162 0.0469-0.0176 0.0947-0.0313 0.1396-0.0508 0.1358-0.0606 0.2657-0.1328 0.3897-0.2119 0.0801-0.0498 0.1533-0.1055 0.2275-0.1631 0.044-0.0342 0.0879-0.0703 0.1309-0.1074 0.2763-0.2383 0.5058-0.5244 0.6806-0.8487 3e-3 -0.0048 0.0069-0.0097 0.0088-0.0146 0.3008 0.5439 0.6944 1.0215 1.168 1.417 0.0537 0.0459 0.1064 0.0908 0.1621 0.1347 0.1328 0.1016 0.2656 0.1993 0.4082 0.2881 0.1641 0.1026 0.3359 0.1934 0.5117 0.2774 0.1143 0.0537 0.2295 0.1015 0.3487 0.1465 0.1992 0.0771 0.4052 0.1406 0.6162 0.1914 0.0869 0.0205 0.1728 0.039 0.2607 0.0556 0.2871 0.0518 0.5801 0.0889 0.8838 0.0889h2e-3 9e-4c0.3067 0 0.6045-0.0371 0.8955-0.0898 0.0625-0.0118 0.1241-0.0215 0.1856-0.0352 0.2607-0.0586 0.5137-0.1367 0.7568-0.2344 0.0899-0.0361 0.1758-0.0771 0.2637-0.1181 0.167-0.0791 0.3281-0.167 0.4844-0.2627 0.1591-0.0967 0.3086-0.2041 0.456-0.3174 0.0908-0.0713 0.1797-0.1426 0.2656-0.2197 0.2305-0.2041 0.4375-0.4288 0.627-0.6719 0.0205-0.0264 0.0449-0.0508 0.0654-0.0781 0.2393 0.1816 0.4893 0.3349 0.751 0.4677 0.0107 0.0059 0.0225 0.0117 0.0332 0.0176 0.249 0.124 0.5029 0.2246 0.7647 0.3037 0.0332 0.0098 0.0664 0.0196 0.0996 0.0293 0.2431 0.0684 0.4863 0.1192 0.7353 0.1504 0.0635 0.0078 0.126 0.0127 0.1895 0.0186 0.2246 0.0185 0.4463 0.0283 0.6709 0.0175 0.0967-0.0048 0.1933-0.0185 0.29-0.0283 0.1943-0.0205 0.3867-0.0429 0.5781-0.0859 0.1319-0.0293 0.2598-0.0752 0.3907-0.1162 0.1562-0.0489 0.3134-0.0928 0.4658-0.1582 0.1689-0.0713 0.3271-0.166 0.4892-0.2569 0.1094-0.0625 0.2237-0.1123 0.3291-0.1836 0.2637-0.1767 0.5166-0.3789 0.75-0.6123 1.9522-1.9531 1.9512-5.1191-9e-4 -7.0713-0.2471-0.247-0.5137-0.4609-0.794-0.6455 0.2041-0.1494 0.4082-0.2998 0.5928-0.4843 1.708-1.709 1.9209-4.3467 0.6396-6.2871-0.1836-0.2774-0.3964-0.5401-0.6406-0.7842-0.2148-0.2149-0.4482-0.3965-0.6894-0.5635-0.0733-0.0508-0.1485-0.0986-0.2237-0.1455-0.1855-0.1133-0.3759-0.2129-0.5713-0.2998-0.1123-0.0508-0.2246-0.0986-0.3408-0.1406-0.1875-0.0674-0.3769-0.125-0.5703-0.169-0.1601-0.0381-0.3203-0.0625-0.4834-0.084-0.0762-0.0088-0.1514-0.0156-0.2275-0.0215-0.6075-0.0517-1.2159 0.0059-1.8057 0.1748-0.0029 1e-3 -0.0068 2e-3 -0.0107 3e-3 0.1552-0.5088 0.1767-1.0459 0.0566-1.5615-0.0049-0.0196-0.0127-0.0381-0.0176-0.0586-0.0547-0.2129-0.1347-0.418-0.2363-0.6172-0.0264-0.0518-0.0518-0.1026-0.0811-0.1533-0.1269-0.2149-0.2714-0.4219-0.456-0.6065l-1e-3 -1e-3c-1e-3 -9e-4 -0.0019-9e-4 -0.0029-0.0019-0.1826-0.1826-0.3877-0.3262-0.6006-0.4522-0.0527-0.0302-0.1055-0.0566-0.1592-0.084-0.1963-0.0996-0.3984-0.1787-0.6084-0.2324-0.0224-0.0058-0.0439-0.0146-0.0664-0.0195-0.5137-0.1201-1.0478-0.0977-1.5547 0.0557-1e-3 9e-4 -0.0029 9e-4 -0.0039 9e-4 0.1729-0.5966 0.2315-1.2119 0.1778-1.8261-0.0059-0.0713-0.0118-0.1416-0.0206-0.212-0.0214-0.166-0.0468-0.3281-0.0849-0.4912-0.043-0.1914-0.1006-0.3789-0.167-0.5654-0.042-0.1152-0.0889-0.2275-0.1397-0.3398-0.0878-0.1973-0.1884-0.3897-0.3037-0.5762-0.0459-0.0752-0.0918-0.1475-0.1425-0.2207-0.1661-0.2402-0.3477-0.4736-0.5625-0.6885-1e-3 0-1e-3 -1e-3 -2e-3 -0.0019l-1e-3 -1e-3c-0.2148-0.2149-0.4492-0.3975-0.6904-0.5635-0.0684-0.0478-0.1377-0.0928-0.208-0.1367-0.1983-0.1221-0.4014-0.2305-0.6104-0.3213-0.1367-0.0605-0.2744-0.1084-0.415-0.1563-0.1397-0.0468-0.2793-0.0917-0.4219-0.125-0.1709-0.0419-0.3418-0.0732-0.5166-0.0966-0.0263-3e-3 -0.0537-0.0049-0.0801-0.0078-0.664-0.0791-1.333-0.0235-1.9785 0.163 0.2344-0.7695 0.1543-1.6074-0.2431-2.3242-0.0186-0.0332-0.0332-0.0664-0.0528-0.0986-0.122-0.2031-0.2627-0.3984-0.4384-0.5742l-1e-3 -1e-3c-0.0742-0.0742 0.2832-1.0205 0.2002-1.0791-0.792-0.6445-1.7969-0.7012-2.7598-0.5391-11.113 1.8692-9.3223-7.6006-9.0117-8.6279 0.2851-0.9434-0.2656-3.5757-0.876-4.729l-0.7285-0.1899c-0.0322-0.0616-0.165 0.6923-0.1992 0.6318-0.0694-0.1172-0.1358-0.2344-0.2158-0.3477-0.1622-0.2363-0.3399-0.4648-0.5508-0.6757-0.2168-0.2168-0.4532-0.3995-0.6963-0.5674-0.0684-0.0479-0.1377-0.0918-0.208-0.1358-0.1934-0.1191-0.3916-0.2236-0.5967-0.3134-0.0918-0.0411-0.1826-0.0821-0.2764-0.1172-0.2041-0.0762-0.4121-0.1377-0.624-0.1856-0.1553-0.0361-0.3105-0.0596-0.4678-0.081-0.083-0.0098-0.166-0.0166-0.249-0.0235-0.6035-0.0508-1.208 0.0088-1.7939 0.1768-3e-3 1e-3 -0.0069 1e-3 -0.0098 0.0019 0.1553-0.5078 0.1777-1.0439 0.0566-1.5595-0.0048-0.0215-0.0136-0.042-0.0195-0.0645-0.0537-0.209-0.1318-0.4111-0.2324-0.6074-0.0274-0.0547-0.0537-0.1084-0.085-0.1621-0.124-0.209-0.2656-0.4102-0.4453-0.5908-0.0029-0.0039-0.0049-0.0088-0.0088-0.0127-0.0049-0.0049-0.0107-0.0069-0.0146-0.0118-0.1797-0.1767-0.3789-0.3183-0.5869-0.4404-0.0547-0.0332-0.1114-0.0605-0.168-0.0888-0.1914-0.0967-0.3887-0.1739-0.5918-0.2266-0.0283-0.0068-0.0537-0.0176-0.082-0.0244-0.5098-0.1182-1.0401-0.0957-1.543 0.0556-0.0039 1e-3 -0.0078 1e-3 -0.0117 2e-3 0.4902-1.6924 0.0898-3.5879-1.2442-4.9219-1.9531-1.9531-5.1191-1.9531-7.0703 0-0.1855 0.1846-0.3349 0.3877-0.4853 0.5928-0.1846-0.2813-0.3985-0.5469-0.6455-0.794-0.9766-0.9765-2.2559-1.4648-3.5362-1.4648-1.2793 0-2.5586 0.4883-3.5341 1.4648-0.2344 0.2344-0.4366 0.4873-0.6133 0.751-0.0674 0.1006-0.1153 0.209-0.1748 0.3125-0.0948 0.167-0.1924 0.333-0.2676 0.5088-0.0615 0.1445-0.1026 0.293-0.1494 0.4424-0.044 0.1387-0.0928 0.2754-0.1241 0.416-0.041 0.1826-0.0625 0.3662-0.083 0.5518-0.0107 0.1064-0.0263 0.2119-0.0302 0.3193-0.0108 0.2148-1e-3 0.4287 0.0166 0.6436 0.0068 0.0732 0.0117 0.1455 0.0205 0.2177 0.0303 0.2403 0.0801 0.4756 0.1455 0.711 0.0117 0.042 0.0244 0.083 0.0371 0.125 0.0771 0.2539 0.1748 0.5 0.2939 0.7412 0.0098 0.0195 0.0205 0.039 0.0313 0.0586 0.1289 0.2539 0.2783 0.497 0.4541 0.7295 1e-3 0.0019 0.0019 0.0048 0.0039 0.0068-0.2764 0.2061-0.5273 0.4404-0.7559 0.6973-0.0713 0.08-0.1377 0.164-0.2041 0.249-0.1201 0.1533-0.2314 0.3105-0.333 0.4785-0.0927 0.1514-0.1777 0.3066-0.2539 0.4678-0.0429 0.0908-0.0849 0.1787-0.122 0.2715-0.0967 0.2422-0.1749 0.4931-0.2334 0.7519-0.0137 0.0625-0.0235 0.127-0.0352 0.1904-0.0527 0.2901-0.0898 0.587-0.0898 0.8936 0 0.3037 0.0371 0.5977 0.0888 0.8857 0.0166 0.0889 0.0352 0.1748 0.0557 0.2608 0.0508 0.2099 0.1142 0.414 0.1904 0.6133 0.0469 0.124 0.0986 0.2451 0.1543 0.3652 0.082 0.1699 0.1699 0.3369 0.2695 0.4961 0.0899 0.1445 0.1885 0.2793 0.292 0.4131 0.042 0.0537 0.085 0.1054 0.1289 0.1572 0.3975 0.4746 0.876 0.8691 1.4209 1.1699-0.3369 0.1797-0.6337 0.418-0.8789 0.7071-0.0273 0.0322-0.0537 0.0644-0.0791 0.0976-0.0644 0.0811-0.1269 0.1631-0.1816 0.252-0.0762 0.1201-0.1455 0.2451-0.2041 0.3759-0.0225 0.0508-0.0381 0.1055-0.0586 0.1582-0.0439 0.1153-0.0811 0.2334-0.1104 0.3555-0.0127 0.0528-0.0244 0.1065-0.0341 0.1602-0.0323 0.1728-0.0537 0.3496-0.0537 0.5322s0.0214 0.3594 0.0537 0.5322c0.0097 0.0537 0.0214 0.1074 0.0341 0.1602 0.0293 0.1221 0.0665 0.2402 0.1104 0.3555 0.0205 0.0527 0.0361 0.1074 0.0586 0.1582 0.0586 0.1308 0.1279 0.2558 0.2041 0.3759 0.0547 0.0889 0.1172 0.1709 0.1816 0.252 0.0254 0.0332 0.0518 0.0654 0.0791 0.0976 0.2452 0.2891 0.542 0.5274 0.8789 0.7071-1.0937 0.6035-1.7314 1.0761-2.1337 2.2734-0.0215 0.0625-0.9346-0.4287-0.9532-0.3652-0.1279 0.4375-0.1963 0.9004-0.1963 1.3808 0 1.8877 1.6377 5.2207 3.1807 6.0723-0.6797 0.3613 0.5068 0.791 0.2344 2.2188-0.1074 0.5644-1.8281 2.4531-1.8281 2.4531s1.4707 0.0976 1.3623 0.1689c-0.6211 0.4072-1.1456 0.9453-1.5323 1.584-0.0976 0.1572-0.1855 0.3203-0.2646 0.4873-0.0479 0.1045-0.0908 0.209-0.1309 0.3164-0.0898 0.2305-0.167 0.4668-0.2217 0.7129-0.0107 0.0498-0.0166 0.1006-0.0253 0.1514-0.0557 0.2939-0.0918 0.5957-0.0918 0.9072 0 0.3047 0.0371 0.5986 0.0898 0.8867 0.0156 0.0879 0.0342 0.1729 0.0547 0.2588 0.0508 0.2119 0.1142 0.417 0.1914 0.6172 0.0449 0.1191 0.0937 0.2353 0.1475 0.3506 0.0839 0.1758 0.1738 0.3467 0.2763 0.5097 0.0889 0.1426 0.1875 0.2764 0.2901 0.4102 0.042 0.0547 0.0869 0.1074 0.1318 0.1602 0.3965 0.4736 0.875 0.8671 1.4189 1.1679-0.3369 0.1797-0.6337 0.418-0.8789 0.7071-0.0273 0.0322-0.0537 0.0644-0.0791 0.0976-0.0644 0.0811-0.1269 0.1631-0.1816 0.252-0.0762 0.1201-0.1455 0.2451-0.2041 0.3759-0.0225 0.0508-0.0381 0.1055-0.0586 0.1582-0.0439 0.1153-0.0811 0.2334-0.1104 0.3555-0.0127 0.0528-0.0244 0.1065-0.0341 0.1602-0.0323 0.1728-0.0537 0.3496-0.0537 0.5322s0.0214 0.3594 0.0537 0.5322c0.0097 0.0537 0.0214 0.1074 0.0341 0.1602 0.0293 0.1221 0.0665 0.2402 0.1104 0.3555 0.0205 0.0527 0.0361 0.1074 0.0586 0.1582 0.0586 0.1308 0.1279 0.2558 0.2041 0.3759 0.0547 0.0889 0.1172 0.1709 0.1816 0.252 0.0254 0.0332 0.0518 0.0654 0.0791 0.0976 0.2452 0.2891 0.542 0.5274 0.8799 0.7071-0.5449 0.2998-1.0215 0.6933-1.418 1.167-0.0459 0.0537-0.0917 0.1074-0.1347 0.1631-0.1016 0.1328-0.2002 0.2656-0.2881 0.4082-0.1025 0.1621-0.1924 0.332-0.2754 0.5068-0.0547 0.1162-0.1035 0.2334-0.1494 0.3545-0.0772 0.1992-0.1406 0.4043-0.1914 0.6162-0.0205 0.0859-0.0391 0.1709-0.0547 0.2588-0.0527 0.289-0.0898 0.582-0.0898 0.8867 0 0.3457 0.0351 0.6826 0.1015 1.0078 0.4668 2.2783 2.4824 3.9922 4.8985 3.9922 0.3046 0 0.5986-0.0371 0.8867-0.0898 0.0879-0.0157 0.1728-0.0342 0.2578-0.0547 0.2139-0.0508 0.4209-0.1153 0.6221-0.1924 0.1113-0.043 0.2207-0.0869 0.3281-0.1367 0.1836-0.0869 0.3613-0.1807 0.5312-0.2881 0.1397-0.0869 0.2705-0.1826 0.4004-0.2822 0.0596-0.0469 0.1172-0.0957 0.1748-0.1456 0.4688-0.3935 1.1875 0.1895 1.1875 0.1895" fill="#b1cc33"/><path d="m21.548 65.272c-0.9415 0.375-2.0079-0.082-2.3829-1.0235l-0.4814-1.0341-0.9023 0.4111-9.5-23.781 0.9687-0.2872-1.3135-3.4101c-0.376-0.9434 0.0811-2.0098 1.0225-2.3867l-0.1651-1.0098 23.686-9.437 0.418 0.9199 4.166-1.7002c0.9424-0.3745 2.0068 0.083 2.3847 1.0254l4.7657 11.991 0.9521-0.2256 5.6289 14.091c0.376 0.9414-0.2041 4.2539-1.1445 4.6308l-21.963 10.096-0.3711-0.9267-5.7685 2.0576z" fill="#fcea2b"/><path d="m59.683 55.683-43.366-43.366c-0.3984-0.1963-0.8418-0.3164-1.3164-0.3164-1.6562 0-3 1.3438-3 3v43c0 1.1045 0.8965 2 2 2h43c1.6563 0 3-1.3437 3-3 0-0.4746-0.1201-0.918-0.3174-1.3174z" fill="#f4aa41"/></g><g id="c" fill="none" stroke="#000" stroke-linecap="round" stroke-linejoin="round" stroke-miterlimit="10" stroke-width="2"><path d="m59.683 55.683-43.366-43.366c-0.3984-0.1963-0.8418-0.3164-1.3164-0.3164-1.6562 0-3 1.3438-3 3v43c0 1.1045 0.8965 2 2 2h43c1.6563 0 3-1.3437 3-3 0-0.4746-0.1201-0.918-0.3174-1.3174z"/><line x1="23" x2="33" y1="53" y2="43"/><line x1="18" x2="28" y1="48" y2="38"/><line x1="17" x2="24" y1="39" y2="32"/><line x1="32" x2="39" y1="55" y2="48"/><path d="m34.514 19.768c-0.2266-0.4317-0.5157-0.8389-0.8789-1.2031-1.334-1.334-3.2285-1.7344-4.9219-1.2452 0.3144-1.0263 0.0781-2.1845-0.7344-2.997s-1.9707-1.0479-2.9961-0.7344c0.4883-1.6924 0.0879-3.5879-1.2461-4.9219-1.9531-1.9531-5.1172-1.9531-7.0703 0-0.1836 0.1846-0.3359 0.3887-0.4844 0.5938-0.1855-0.2813-0.4003-0.5479-0.6464-0.795-1.9532-1.9531-5.1192-1.9531-7.0704 0-1.7871 1.7872-1.9199 4.5762-0.4375 6.5352-1.2246 0.9111-2.0273 2.3564-2.0273 4 0 1.8867 1.0566 3.5098 2.5996 4.3613-0.9473 0.5039-1.5996 1.4903-1.5996 2.6387s0.6523 2.1348 1.5996 2.6387c-0.9297 0.5136-1.6777 1.3105-2.1308 2.2734"/><path d="m48.557 36.857c0.2032-0.958-0.0351-1.9912-0.7793-2.7363-0.1347-0.1348-0.289-0.2295-0.4414-0.332"/><path d="M7.7559,43.2363C6.6875,44.1484,6,45.4844,6,47c0,1.8877,1.0566,3.5098,2.5996,4.3613C7.6523,51.8652,7,52.8516,7,54 s0.6523,2.1348,1.5996,2.6387C7.0566,57.4902,6,59.1133,6,61c0,2.7617,2.2383,5,5,5c1.8867,0,3.5098-1.0576,4.3613-2.6006 c0.1934,0.3662,0.4629,0.6865,0.7832,0.9444"/><path d="M30.6191,64.6514C31.0313,64.8701,31.498,65,32,65c1.1484,0,2.1348-0.6523,2.6387-1.6006C35.4883,64.9424,37.1133,66,39,66 c1.8867,0,3.5098-1.0576,4.3613-2.6006C43.8652,64.3477,44.8516,65,46,65c1.1484,0,2.1348-0.6523,2.6387-1.6006 C49.4902,64.9424,51.1113,66,53,66c1.6426,0,3.0879-0.8037,4-2.0273c1.959,1.4814,4.75,1.3496,6.5371-0.4366 c1.9512-1.9531,1.9512-5.1191-0.0019-7.0713c-0.2461-0.247-0.5137-0.4619-0.795-0.6464c0.2051-0.1495,0.4102-0.2998,0.5938-0.4844 c1.9531-1.9531,1.9512-5.1192,0-7.0703c-1.336-1.335-3.2305-1.7344-4.9238-1.2461c0.3144-1.0264,0.0781-2.1856-0.7344-2.9981 c-0.8106-0.8105-1.9707-1.0468-2.9961-0.7334c0.4883-1.6933,0.0898-3.5879-1.2461-4.9228 c-1.2988-1.2998-3.1289-1.7061-4.7852-1.2754"/><path d="m39.448 23.558 4.7657 11.991-4.7657-11.992c-0.2753-0.6894-0.9296-1.1152-1.6289-1.1299 0.6993 0.0157 1.3536 0.4405 1.6289 1.1309z"/><path d="m32.898 24.233 4.2207-1.6777c0.2304-0.0918 0.4687-0.1328 0.7011-0.128 0.6993 0.0157 1.3536 0.4405 1.6289 1.1309l4.7657 11.991"/><path d="m18.684 63.214 0.5156 1.2968c0.3653 0.92 1.4072 1.3672 2.3281 1.0039l5.7891-2.3007"/><path d="m9.25 33.625-0.3691 0.1465c-0.92 0.3672-1.3692 1.4082-1.0039 2.3301l1.373 3.455"/></g></svg>
