<svg xmlns="http://www.w3.org/2000/svg" id="a" viewBox="0 0 72 72"><g id="b"><path fill="#d0cfce" d="M45.9934,66H26.2541a2.6628,2.6628,0,0,1-2.6591-2.6592V60.91a1,1,0,0,1,1-1h.0019l23.0576.0429a1,1,0,0,1,.9981,1v2.3877A2.6628,2.6628,0,0,1,45.9934,66Z"/><path id="_" fill="#d0cfce" d="m51.297 28.832c5.0582 0 9.1586-2.6112 9.1586-5.8323s-4.1-5.8323-9.1586-5.8323c-4.6982 0-8.5665 1.3551-9.0938 4.257l-28.412-0.8108a2 2 0 0 0 0 4l28.418-0.0285c0.5347 2.8967 4.3954 4.2469 9.088 4.2469z"/><path fill="#fff" d="m47.332 61.953h-0.0235l-22.716-0.0431a12.095 12.095 0 0 1-7.65-2.74 29.916 29.916 0 0 1-10.943-23.17 1 1 0 0 1 1-1h58a0.9994 0.9994 0 0 1 1 1 29.903 29.903 0 0 1-11.026 23.238 12.099 12.099 0 0 1-7.6416 2.7148z"/><path fill="#d0cfce" d="M65,35H53.595a1,1,0,0,1,1,1A29.9032,29.9032,0,0,1,43.5686,59.2383a12.0867,12.0867,0,0,1-7.1633,2.6942l10.9035.0206h.0235a12.0993,12.0993,0,0,0,7.6416-2.7148A29.9031,29.9031,0,0,0,66,36,.9994.9994,0,0,0,65,35Z"/></g><g id="c" fill="none" stroke="#000" stroke-linecap="round" stroke-linejoin="round" stroke-width="2"><path d="m24.595 60.91a11.069 11.069 0 0 1-7.0163-2.5114 28.941 28.941 0 0 1-10.579-22.399h58a28.943 28.943 0 0 1-10.658 22.464 11.074 11.074 0 0 1-7.0309 2.4889l-17.568-0.0331"/><path d="M24.595,60.91v2.4312A1.6587,1.6587,0,0,0,26.2537,65h19.74a1.6587,1.6587,0,0,0,1.6587-1.6587V60.9531"/><path id="d" d="m51.297 28.832c5.0582 0 9.1586-2.6112 9.1586-5.8323s-4.1-5.8323-9.1586-5.8323c-4.6982 0-8.5665 1.3551-9.0938 4.257l-28.412-0.8108a2 2 0 0 0 0 4l28.418-0.0285c0.5347 2.8967 4.3954 4.2469 9.088 4.2469z"/></g></svg>