<svg xmlns="http://www.w3.org/2000/svg" id="a" viewBox="0 0 72 72"><g id="b"><rect width="8.537" height="17.184" x="17.396" y="28.24" fill="#d0cfce" transform="matrix(.5359 -.8443 .8443 .5359 -21.042 35.386)"/><path fill="#fcea2b" d="M38.0889,37.0473a25.4023,25.4023,0,0,0-5.68,1.2274,29.259,29.259,0,0,0-10.8,7.09l-.005.0055c-.0782.0857-.236.26-.242.269a14.5063,14.5063,0,0,0,2.3722,2.8561A19.3988,19.3988,0,1,0,25.5228,23.95a20.1316,20.1316,0,0,0-4.1612,4.5053c.006.0091.1638.1832.242.269l.005.0055A43.3575,43.3575,0,0,0,33,37"/><path fill="#f1b31c" d="m49.896 20.991a19.284 19.284 0 0 0-12.261-2.9385 19.188 19.188 0 0 1 8.5782 2.9385 19.352 19.352 0 0 1-8.668 35.618 19.371 19.371 0 0 0 12.35-35.618z"/></g><g id="c" fill="none" stroke="#000" stroke-linecap="round" stroke-linejoin="round" stroke-width="2"><path d="M38.0889,37.0473a25.4023,25.4023,0,0,0-5.68,1.2274,29.259,29.259,0,0,0-10.8,7.09l-.005.0055c-.0782.0857-.236.26-.242.269a14.5063,14.5063,0,0,0,2.3722,2.8561A19.3988,19.3988,0,1,0,25.5228,23.95a20.1316,20.1316,0,0,0-4.1612,4.5053c.006.0091.1638.1832.242.269l.005.0055C26.1318,33.6782,34,37,34,37"/><polyline points="17.847 38.124 12.73 34.876 16.116 29.541 24.294 34.732"/></g></svg>