<?xml version="1.0" encoding="UTF-8"?>
<svg id="a" viewBox="0 0 72 72" xmlns="http://www.w3.org/2000/svg"><g id="b"><path d="m52.738 53.134c-1.8989 1.899-4.0249 3.4471-6.2955 4.6442-0.7534 0.3922-1.5274 0.7534-2.3118 1.0734-3.1271 1.259-6.4606 1.8989-9.7838 1.8989-6.6567 0-13.313-2.5388-18.391-7.6165-10.155-10.155-4.4894-20.961 5.666-31.116 10.155-10.166 20.961-15.821 31.116-5.666 1.1972 1.1972 2.2499 2.4769 3.1684 3.8289 6.8528 10.114 5.8001 23.995-3.1684 32.953z" fill="#A57939" stroke="#A57939" stroke-linecap="round" stroke-linejoin="round" stroke-miterlimit="10" stroke-width="2"/><path d="m21.56 45.5c-2.7683 0.2917-4.5408 1.4543-6.0183 0.4583-7.5417-5.0833 16.083-33.667 27.208-31.5-4.7179 1.4948-24.918 13.868-21.19 31.042z" fill="#D0CFCE" stroke="#D0CFCE" stroke-linecap="round" stroke-linejoin="round" stroke-miterlimit="10" stroke-width="2"/><path d="m35.99 36.01c-4.03 4.03-8.34 7.03-12.04 8.63-0.83 0.36-1.63 0.65-2.39 0.86-7.7597-15.944 19.602-32.766 23.24-29.99 3.6259 2.7667-0.72 12.41-8.81 20.5z" fill="#fff" stroke="#fff" stroke-linecap="round" stroke-linejoin="round" stroke-miterlimit="10" stroke-width="2"/><path d="m45.667 15.875c-1.771-1.771-5.1098-2.033-9.0417-0.4167" fill="#fff" stroke-linecap="round" stroke-linejoin="round" stroke-miterlimit="10" stroke-width="2"/><path d="m14.371 40.667c-0.6125 2.4641-0.3948 4.4784 0.8066 5.6797" fill="#fff" stroke-linecap="round" stroke-linejoin="round" stroke-miterlimit="10" stroke-width="2"/><path d="m52.738 53.134c-5.0777 5.0777-11.734 7.6165-18.391 7.6165-2.6447-0.0032 31.939-14.857 13.007-48.328 17.621 10.555 14.353 31.754 5.3842 40.712z" fill="#6A462F"/></g><g id="c" fill="none" stroke="#000" stroke-linecap="round" stroke-linejoin="round" stroke-miterlimit="10" stroke-width="2"><path d="m45.667 15.875c-1.771-1.771-5.1098-2.033-9.0417-0.4167"/><path d="m14.371 40.667c-0.6125 2.4641-0.3948 4.4784 0.8066 5.6797"/><path d="m45.666 15.858c1.1431 1.1431 1.4082 2.0153 0.8338 4.3921-0.4408 1.824 0.875 7.5-2.7014 7.1824-1.7704-0.1572-2.4126 5.7146-3.6736 7.3176s-2.0464-0.3286-3.625 1.25c-1.2405 1.2405-3.6268 2.9832-5.25 4.125-0.5293 0.3723 0.0439 0.7503-0.125 1.375-0.3324 1.2299-5.9607 3.9444-7.7968 4.7164-1.3041 0.5482-3.1009-0.3945-4.2032-0.2164-1.953 0.3156-2.9552 1.3383-3.9472 0.3464"/><path d="m52.738 53.134c-1.8989 1.899-4.0249 3.4471-6.2955 4.6442-0.7534 0.3922-1.5274 0.7534-2.3118 1.0734-3.1271 1.259-6.4606 1.8989-9.7838 1.8989-6.6567 0-13.313-2.5388-18.391-7.6165-10.155-10.155-4.4894-20.961 5.666-31.116 10.155-10.166 20.961-15.821 31.116-5.666 1.1972 1.1972 2.2186 2.6717 3.1371 4.0237 6.8528 10.114 5.8314 23.8-3.1371 32.758z"/></g></svg>
