<?xml version="1.0" encoding="UTF-8"?>
<svg id="a" viewBox="0 0 72 72" xmlns="http://www.w3.org/2000/svg"><g id="b"><path d="m67.093 29.525c-0.0088-10.469-8.2617-18.984-18.405-18.984-4.873 0-8.7354 1.5693-12.031 4.7725-1.1817-1.1475-2.67-2.0293-4.1094-2.8282-0.1563-0.0859-0.7149 0.1299-0.8731 0.0479-2.4629-1.2744-5.2363-1.9922-8.1738-1.9922-10.144 0-18.396 8.5147-18.405 18.984 0-0.0029-9e-4 -0.0049-9e-4 -0.0078v0.0146 0.0098c0 0.0049 0.0019 0.0088 0.0019 0.0137v0.0088c0-0.0079-0.0019-0.0147-0.0019-0.0225 0 0.7305 0.0312 1.4551 0.0781 2.1777 0.0049 0.0782 0.0097 0.1563 0.0156 0.2344 0.0518 0.7246 0.126 1.4443 0.2246 2.1592 2e-3 0.0117 0.0039 0.0234 0.0059 0.0351 0.207 1.4883 0.5175 2.9512 0.9228 4.3819 3e-3 0.0107 0.0059 0.0205 0.0088 0.0302 0.8682 3.0557 1.9824 5.5254 3.6973 8.1915 0.1318 0.2041-1.0469 0.0781-1.0469 0.0781s2.4414 3.5244 2.8652 4.1025c0.4092 0.5547 0.0098 0.7891 0.0098 1.6094 0 2.209 1.7354 4 3.875 4 1.1309 0 2.2422-0.083 3.3359-0.2275 5.086 3.7187 7.6485 3.75 11.043 4.6816 1.1328 0.3105 4.0859 0.5019 4.3799 0.4551 0.5283 0.0273 6.4941-0.3535 7.6475-0.5742 3.5156-0.6719 6.497-1.8028 9.458-3.5674 0.5283-0.3145 1.0429-0.6446 1.5478-0.9873 1.0742 0.1396 2.166 0.2197 3.2754 0.2197 2.1396 0 3.875-1.791 3.875-4 0-0.7979 0.2021-1.0566-0.1875-1.6807 0.6709-0.8125 2.2471-3.3935 2.8438-4.2812 0.1308-0.1953-1.1563 0.2402-1.0625 0.0312 1.7265-2.6767 3.0605-4.9814 3.9316-8.0508 0.0029-0.0097 0.0059-0.0195 0.0088-0.0302 0.4053-1.4307 0.7158-2.8936 0.9228-4.3819 2e-3 -0.0117 0.0039-0.0234 0.0049-0.0351 0.0996-0.7149 0.1738-1.4346 0.2256-2.1592 0.0059-0.0781 0.0107-0.1562 0.0156-0.2344 0.0469-0.7226 0.0782-1.4472 0.0782-2.1777 0 0.0078-2e-3 0.0146-2e-3 0.0225v-0.0088c0-0.0049 2e-3 -0.0088 2e-3 -0.0137v-0.0098-0.0146c0 0.0029-1e-3 0.0049-1e-3 0.0078zm-29.374 22.179c-0.5723 0.043-1.252 0.0557-1.8331 0.083-1.333 0.0625-3.1669-0.2705-3.8955-0.666 1.75-1.375 2.75-2.2715 3.8536-3.959 1.8632 2.3809 2.5917 2.3008 5.125 3.916-1.5743 0.4844-1.5938 0.4981-3.25 0.626zm-19.266-8.3584c-0.1631-0.2207-0.6133 1.0215-0.9189 0.5986-2.2217-3.0341-3.711-6.5332-4.3408-10.267-0.0069-0.041-0.0137-0.082-0.0205-0.123-0.1026-0.6299-0.1827-1.2656-0.2364-1.9063-0.0049-0.0546-0.0078-0.1084-0.0117-0.163-0.0508-0.6465-0.081-1.2979-0.081-1.9541 0.0068-6.0611 4.7841-10.99 10.656-10.99 1.6016 0 3.1221 0.3682 4.4863 1.0254 0.1162 0.0566-0.5547 1.2178-0.4394 1.2783 1.2646 0.668 2.7295 1.5469 3.6406 2.6563-0.8604 2.1953-0.9062 3.5293-0.9062 6.0405 0 3.2226 0.5605 6.3096 1.5683 9.1777-0.332 0.6162-0.4101-0.8681-0.8027-0.2959-0.0762 0.1104-2.1875 2.4844-2.5781 2.7969-0.0586 0.0469 0.0234 0.9463-0.0215 1.0068-2.3418 3.1797-6.9375 4.1866-6.9375 4.1866s-1.541-1.0205-3.0567-3.0684zm40.81-11.86c-0.0039 0.0546-0.0068 0.1084-0.0117 0.163-0.0537 0.6407-0.1338 1.2774-0.2364 1.9073-0.0068 0.04-0.0136 0.081-0.0195 0.1211-0.6738 3.9912-2.4013 7.4179-4.8857 10.591l-0.8438-0.8125c-0.4697 0.6015-1.3593 1.8281-2.6875 2.8906-0.0595 0.0479 1.1475 1.0176 0.6924 1.4209-4.6894-1.4199-8.4726-4.3271-10.802-8.6553 1.0078-2.8681 2.1933-5.4365 2.25-9.5625 0.0625-4.5317-0.7959-5.3676-1.6563-7.563 1.9561-2.3828 4.3701-3.4443 7.625-3.4443 5.8721 0 10.649 4.9287 10.656 10.99 0 0.6562-0.0303 1.3076-0.0811 1.9541z" fill="#f4aa41"/></g><g id="c" fill="none" stroke="#000" stroke-linecap="round" stroke-linejoin="round" stroke-miterlimit="10" stroke-width="2"><path d="m32.096 13.544c-2.6123-1.4239-5.6045-2.2344-8.7832-2.2344-10.144 0-18.396 8.249-18.405 18.39 0-0.0039-9e-4 -0.0058-9e-4 -0.0078v0.0137 0.0097c0 0.0059 0.0019 0.0098 0.0019 0.0137 0.0068 5.9746 1.7031 11.703 4.8574 16.629"/><path d="m41.648 31.631c0.0469-0.6309 0.0704-1.2715 0.0704-1.9161 0-0.6347-0.0323-1.2592-0.0958-1.8774"/><path d="m29.168 42.1c-3.3682 3.6973-8.2207 6.0215-13.606 6.0215-2.1396 0-3.875 1.7344-3.875 3.875s1.7354 3.875 3.875 3.875c6.6924 0 12.807-2.5254 17.438-6.6777"/><path d="m17.8 44.279c-3.3291-4.1172-5.1396-9.2148-5.1435-14.574 0.0068-5.8716 4.7841-10.646 10.656-10.646 1.7676 0 3.4355 0.4326 4.9043 1.1972"/><path d="m37.742 52.867c-0.6084 0.0508-1.2207 0.0742-1.8359 0.0742-0.6153 0-1.2276-0.0234-1.836-0.0742"/><path d="m47.555 58.426c-0.543 0.2187-1.0938 0.4258-1.6484 0.6172-3.2149 1.0937-6.5801 1.6484-10 1.6484-3.42 0-6.7852-0.5547-10-1.6484-0.5547-0.1914-1.1055-0.3985-1.6485-0.6172"/><path d="m54.013 44.279c3.3291-4.1172 5.1396-9.2148 5.1436-14.574-0.0069-5.8716-4.7842-10.646-10.656-10.646-5.876 0-10.656 4.7803-10.656 10.656 0 10.148 8.2568 18.406 18.406 18.406 2.1396 0 3.875 1.7344 3.875 3.875s-1.7354 3.875-3.875 3.875c-14.423 0-26.156-11.732-26.156-26.156 0-10.148 8.2568-18.406 18.406-18.406 10.144 0 18.396 8.249 18.405 18.39 0-0.0039 1e-3 -0.0058 1e-3 -0.0078v0.0137 0.0097c0 0.0059-2e-3 0.0098-2e-3 0.0137-0.0068 5.9746-1.7031 11.703-4.8574 16.629"/></g></svg>
