<?xml version="1.0" encoding="UTF-8"?>
<svg id="a" viewBox="0 0 72 72" xmlns="http://www.w3.org/2000/svg"><g id="b"><circle cx="36" cy="36" r="23" fill="#FCEA2B"/><polygon points="15.063 6.4465 17.063 21.446 33.063 15.446" fill="#F4AA41"/><polyline points="26.984 12.406 33.063 15.446 19.912 20.378" fill="#E27022"/><polygon points="15.396 10.834 20.621 8.8175 23.454 10.58 15.563 13.946" fill="#EA5A47"/><polyline points="25.421 12.392 26.563 11.946 30.563 12.946 24.063 15.732" fill="#D22F27"/><polyline points="24.063 15.732 16.559 18.946 16.396 15.912 25.421 12.392" fill="#EA5A47"/></g><g id="c"><g id="d" fill="none" stroke="#000" stroke-linecap="round" stroke-linejoin="round" stroke-width="2"><path d="m36.45 42.118s10.551 3.1081 0.0462 5.5636c0 0 10.482 2.9013 0.0408 4.9123"/><path d="m21.02 27.355c0.7084-1.3911 1.9076-2.4701 3.3656-3.028 1.3992-0.711 3.0133-0.8745 4.5266-0.4585"/><path d="m50.629 27.109c-1.6054-2.7593-4.838-4.1297-7.9374-3.3648"/><path d="m23.454 34.379c2.5075-1.2805 5.4716-1.3051 8-0.0664"/><path d="m40.703 34.236c2.5075-1.2805 5.4716-1.3051 8-0.0665"/><path d="m45.948 15.294c11.449 5.5027 16.27 19.245 10.767 30.694s-19.245 16.27-30.694 10.767-16.27-19.245-10.767-30.694c0.3849-0.8008 0.8159-1.5787 1.2907-2.3296"/><path d="m34.956 13.052c0.2775-0.0123 0.5563-0.0196 0.8362-0.0219 3.5138-0.0343 6.9884 0.7403 10.155 2.2638"/></g><g fill="none" stroke="#000" stroke-linecap="round" stroke-linejoin="round" stroke-width="2"><line x1="17.384" x2="14.563" y1="20.98" y2="5.9801"/><line x1="33.563" x2="14.563" y1="15.246" y2="5.9801"/><line x1="17.384" x2="33.563" y1="20.98" y2="15.246"/></g><path d="m61.946 11.613c-0.0716 0.5158-0.2255 1.0168-0.4556 1.484-1.2886 2.5208-4.3362 3.5763-6.9079 2.3925" fill="none" stroke="#000" stroke-linecap="round" stroke-linejoin="round" stroke-width="2"/><path d="m66.426 43.349c-0.5082-0.1136-0.995-0.3079-1.4418-0.5754-2.4074-1.4903-3.2103-4.6144-1.82-7.0809" fill="none" stroke="#000" stroke-linecap="round" stroke-linejoin="round" stroke-width="2"/><path d="m61.946 62.968c-0.0716-0.5158-0.2255-1.0168-0.4556-1.484-1.2886-2.5208-4.3362-3.5763-6.9079-2.3925" fill="none" stroke="#000" stroke-linecap="round" stroke-linejoin="round" stroke-width="2"/><path d="m24.739 55.925c-0.3282-0.4043-0.7191-0.7534-1.1578-1.0341-2.4073-1.4907-5.562-0.8167-7.15 1.5276" fill="none" stroke="#000" stroke-linecap="round" stroke-linejoin="round" stroke-width="2"/><path d="m62.212 25.459c0.8284-0.0287 1.4767-0.7235 1.448-1.552-0.0273-0.7881-0.6599-1.4207-1.448-1.448-0.8284 0.0287-1.4767 0.7235-1.448 1.552 0.0273 0.7881 0.6599 1.4207 1.448 1.448z"/><path d="m62.212 50.459c0.8284-0.0287 1.4767-0.7235 1.448-1.552-0.0273-0.7881-0.6599-1.4207-1.448-1.448-0.8284 0.0287-1.4767 0.7235-1.448 1.552 0.0273 0.7881 0.6599 1.4207 1.448 1.448z"/><path d="m29.212 66.459c0.8284-0.0287 1.4767-0.7235 1.448-1.552-0.0273-0.7881-0.6599-1.4207-1.448-1.448-0.8284 0.0287-1.4767 0.7235-1.448 1.552 0.0273 0.7881 0.6599 1.4207 1.448 1.448z"/><path d="m20.212 48.459c0.8284-0.0287 1.4767-0.7235 1.448-1.552-0.0273-0.7881-0.6599-1.4207-1.448-1.448-0.8284 0.0287-1.4767 0.7235-1.448 1.552 0.0273 0.7881 0.6599 1.4207 1.448 1.448z"/><path d="m44.212 64.459c0.8284-0.0287 1.4767-0.7235 1.448-1.552-0.0273-0.7881-0.6599-1.4207-1.448-1.448-0.8284 0.0287-1.4767 0.7235-1.448 1.552 0.0273 0.7881 0.6599 1.4207 1.448 1.448z"/><path d="m38.563 47.98h5.5s5.5 0 5.5-3c0-2.2319-1.5221-2.8033-3.4339-2.95" fill="none" stroke="#000" stroke-linecap="round" stroke-linejoin="round" stroke-width="2"/></g><g id="e"><path d="m62.212 25.457c0.8284-0.0287 1.4767-0.7235 1.448-1.552-0.0273-0.7881-0.6599-1.4207-1.448-1.448-0.8284 0.0287-1.4767 0.7235-1.448 1.552 0.0273 0.7881 0.6599 1.4207 1.448 1.448z" fill="#8967AA"/><path d="m44.212 64.457c0.8284-0.0287 1.4767-0.7235 1.448-1.552-0.0273-0.7881-0.6599-1.4207-1.448-1.448-0.8284 0.0287-1.4767 0.7235-1.448 1.552 0.0273 0.7881 0.6599 1.4207 1.448 1.448z" fill="#8967AA"/><path d="m29.212 66.457c0.8284-0.0287 1.4767-0.7235 1.448-1.552-0.0273-0.7881-0.6599-1.4207-1.448-1.448-0.8284 0.0287-1.4767 0.7235-1.448 1.552 0.0273 0.7881 0.6599 1.4207 1.448 1.448z" fill="#F4AA41"/><path d="m20.212 48.457c0.8284-0.0287 1.4767-0.7235 1.448-1.552-0.0273-0.7881-0.6599-1.4207-1.448-1.448-0.8284 0.0287-1.4767 0.7235-1.448 1.552 0.0273 0.7881 0.6599 1.4207 1.448 1.448z" fill="#D22F27"/><path d="m62.212 50.457c0.8284-0.0287 1.4767-0.7235 1.448-1.552-0.0273-0.7881-0.6599-1.4207-1.448-1.448-0.8284 0.0287-1.4767 0.7235-1.448 1.552 0.0273 0.7881 0.6599 1.4207 1.448 1.448z" fill="#D22F27"/></g></svg>
