<svg xmlns="http://www.w3.org/2000/svg" id="a" viewBox="0 0 72 72"><g id="b"><circle cx="36" cy="36" r="23" fill="#FCEA2B"/></g><g id="c"><circle cx="36" cy="36" r="23" fill="none" stroke="#000" stroke-miterlimit="10" stroke-width="2"/><path fill="none" stroke="#000" stroke-linecap="round" stroke-linejoin="round" stroke-width="2" d="m21.264 27.629c1.1139-1.3946 2.7077-2.3238 4.47-2.6062 1.4909-0.2133 3.011 0.0546 4.3392 0.7648"/><path fill="none" stroke="#000" stroke-linecap="round" stroke-linejoin="round" stroke-width="2" d="m41 27.077c1.3758 1.1372 3.1261 1.7207 4.9091 1.6364 1.503-0.0963 2.9361-0.6696 4.0909-1.6364"/><path fill="none" stroke="#000" stroke-linecap="round" stroke-linejoin="round" stroke-width="2" d="M24,40.9991 C23.7435,40.795,23.52,49,29,49c5,0,4-8.0009,9-5.6007"/><path fill="none" stroke="#000" stroke-linecap="round" stroke-linejoin="round" stroke-width="2" d="m49 40.999s-0.8892 6.146-5 6.4007c-3.7688 0.2335-5.1617-6.1179-9-4.0005"/><path d="m30 33c0 1.6568-1.3448 3-3 3-1.6553 0-3-1.3433-3-3 0-1.6552 1.3447-3 3-3 1.6552 0 3 1.3448 3 3"/><path d="m48 31c0 1.6568-1.3447 3-3 3s-3-1.3433-3-3c0-1.6552 1.3447-3 3-3s3 1.3448 3 3"/></g></svg>