<svg xmlns="http://www.w3.org/2000/svg" id="a" viewBox="0 0 72 72"><g id="b"><path id="c" fill="#d0cfce" d="m61.184 27.995c-4.4209-2.1333-14.9-3.9756-25.216-3.7365-13.652-0.3165-27.084 4.8741-27.084 4.8741l0.0977 7.6946c0 6.424 2.9308 15.828 22.543 10.776l1.9121-7.6027 2.55-2.0909 2.8876 2.1029 1.3277 5.279a3.9665 3.9665 0 0 0 3.0453 2.9015c17.401 3.6642 20.082-5.2082 20.082-11.353l0.0667-5.2537a3.925 3.925 0 0 0-2.2129-3.5904z"/><path id="d" fill="#9b9b9a" d="m43.885 48.852c18.043 1.8776 19.591-5.6012 19.591-12.025l-0.0477-7.6826-6.9541-3.099c-1.9364 11.187-12.589 22.807-12.589 22.807z"/><polygon id="e" fill="#9b9b9a" points="9.503 29.17 5.168 31.951 5.549 40.438 10.078 43.096"/><polygon id="f" fill="#9b9b9a" points="62.117 28.984 66.452 31.765 66.071 40.252 61.542 42.91"/></g><g id="g" fill="none" stroke="#000" stroke-linecap="round" stroke-linejoin="round" stroke-width="2"><path id="h" d="m60.999 28.076c-4.3022-2.1077-14.583-4.0517-25.031-3.8172-10.448-0.2345-20.729 1.7095-25.031 3.8172a3.6433 3.6433 0 0 0-2.0242 3.3275l0.0689 5.424c0 5.8974 2.47 14.306 18.049 11.736a6.9243 6.9243 0 0 0 5.5518-5.1653l0.899-3.1641a2.43 2.43 0 0 1 0.7017-1.1973 2.7591 2.7591 0 0 1 2.9227-0.4146 2.6605 2.6605 0 0 1 1.3933 1.7426l0.8547 3.0334a6.9243 6.9243 0 0 0 5.5518 5.1653c15.579 2.57 18.049-5.8389 18.049-11.736l0.0689-5.424a3.6433 3.6433 0 0 0-2.0242-3.3275z"/><polyline id="i" points="9.503 29.17 5.168 31.951 5.549 40.438 10.078 43.096"/><polyline id="j" points="62.405 29.17 66.74 31.951 66.359 40.438 61.83 43.096"/></g></svg>