<svg xmlns="http://www.w3.org/2000/svg" id="a" viewBox="0 0 72 72"><g id="b"><circle cx="36" cy="36" r="24" fill="#FCEA2B"/><path fill="#FFA7C0" d="m11.319 34.66c-0.0843 0.1747-0.2943 0.2481-0.4691 0.1637-0.0715-0.0345-0.1292-0.0922-0.1637-0.1637-0.9703-2.0141-3.3896-2.8602-5.4036-1.8899-2.0141 0.9703-2.8602 3.3896-1.8899 5.4036 0.1063 0.2206 0.2323 0.4311 0.3766 0.6289l7.2333 9.2748 7.1911-9.218 0.232-0.3422c1.1619-1.91 0.5554-4.4002-1.3545-5.562s-4.4002-0.5554-5.562 1.3545c-0.0692 0.1136-0.1326 0.2305-0.1902 0.3503z"/><path fill="#FFA7C0" d="m48.319 7.66c-0.0843 0.1747-0.2943 0.2481-0.4691 0.1637-0.0715-0.0345-0.1292-0.0922-0.1637-0.1637-0.9703-2.0141-3.3896-2.8602-5.4036-1.8899s-2.8602 3.3896-1.8899 5.4036c0.1063 0.2206 0.2323 0.4311 0.3766 0.6289l7.2333 9.2748 7.1911-9.218 0.232-0.3422c1.1619-1.91 0.5554-4.4002-1.3545-5.562-1.91-1.1619-4.4002-0.5554-5.562 1.3545-0.0692 0.1136-0.1326 0.2305-0.1902 0.3503z"/><path fill="#FFA7C0" d="m56.319 52.66c-0.0843 0.1747-0.2943 0.2481-0.4691 0.1637-0.0715-0.0345-0.1292-0.0922-0.1637-0.1637-0.9703-2.0141-3.3896-2.8602-5.4036-1.8899-2.0141 0.9703-2.8602 3.3896-1.8899 5.4036 0.1063 0.2206 0.2323 0.4311 0.3766 0.6289l7.2333 9.2748 7.1911-9.218 0.232-0.3422c1.1619-1.91 0.5554-4.4002-1.3545-5.562-1.91-1.1619-4.4002-0.5554-5.562 1.3545-0.0692 0.1136-0.1326 0.2305-0.1902 0.3503z"/></g><g id="c" fill="none" stroke="#000" stroke-linecap="round" stroke-width="2"><path stroke-linejoin="round" d="m45.815 44.804c-5.6998 4.6988-13.93 4.6988-19.63 0"/><path stroke-linejoin="round" d="m52.04 50.366c-2.2368 1e-4 -4.0499 1.8135-4.0498 4.0502 0 0.7409 0.2033 1.4677 0.5878 2.1011l0.232 0.3422 7.1911 9.218 7.2333-9.2748c1.3204-1.8042 0.9281-4.3372-0.8761-5.6576s-4.3372-0.9281-5.6576 0.8761c-0.147 0.2008-0.2751 0.4148-0.3828 0.6392-0.0843 0.1747-0.2943 0.2481-0.4691 0.1637-0.0715-0.0345-0.1292-0.0922-0.1637-0.1637-0.6684-1.4059-2.0884-2.2997-3.6451-2.2944z"/><path stroke-linejoin="round" d="m7.04 32.366c-2.2368 1e-4 -4.0499 1.8135-4.0498 4.0502 0 0.7409 0.2033 1.4677 0.5878 2.1011l0.232 0.3422 7.1911 9.218 7.2333-9.2748c1.3204-1.8042 0.9281-4.3372-0.8761-5.6576s-4.3372-0.9281-5.6576 0.8761c-0.147 0.2008-0.2751 0.4148-0.3828 0.6391-0.0843 0.1747-0.2943 0.2481-0.4691 0.1637-0.0715-0.0345-0.1292-0.0922-0.1637-0.1637-0.6684-1.4058-2.0884-2.2996-3.6451-2.2943z"/><path stroke-linejoin="round" d="m44.04 5.3656c-2.2368 1e-4 -4.0499 1.8135-4.0498 4.0502 0 0.7409 0.2033 1.4677 0.5878 2.1011l0.232 0.3422 7.1911 9.218 7.2333-9.2748c1.3204-1.8042 0.9281-4.3372-0.8761-5.6576s-4.3372-0.9281-5.6576 0.8761c-0.147 0.2008-0.2751 0.4148-0.3828 0.6392-0.0843 0.1747-0.2943 0.2481-0.4691 0.1637-0.0715-0.0345-0.1292-0.0922-0.1637-0.1637-0.6684-1.4059-2.0884-2.2997-3.6451-2.2944z"/><path stroke-linejoin="round" d="M42.8076,57.9758 C40.6563,58.6415,38.37,59,36,59c-7.9391,0-14.9387-4.0224-19.072-10.1405"/><path stroke-linejoin="round" d="M53.7479,21.3699 C57.029,25.3456,59,30.4426,59,36c0,3.6035-0.8287,7.0135-2.3059,10.0497"/><path stroke-linejoin="round" d="M14.7323,27.2273 C18.1806,18.8766,26.404,13,36,13"/><path stroke-miterlimit="10" d="m31.694 32.404c-1.0598-2.3854-3.8527-3.46-6.238-2.4002-1.0697 0.4752-1.9249 1.3305-2.4002 2.4002"/><path stroke-miterlimit="10" d="m48.944 32.404c-1.0598-2.3854-3.8527-3.46-6.238-2.4002-1.0697 0.4752-1.9249 1.3305-2.4002 2.4002"/></g></svg>