<svg xmlns="http://www.w3.org/2000/svg" id="a" viewBox="0 0 72 72"><g id="b"><path id="c" fill="#ffa7c0" stroke="#ffa7c0" stroke-miterlimit="10" stroke-width="2" d="m27.294 41.682c0.0425 1.86 5.8332 2.5639 8.711 2.4895 28.006-0.7235 30.06-2.3123 29.388-8.65-0.3686-3.4781-9.1188-6.3021-17.115-5.4966-0.73 0.0736-1.352 1.8762-2.082 2.0023-10.768 1.8608-27.834 2.56-35.93-6.0744-1.3221-0.1986-4.8873 9.1692-3.5427 15.351z"/><rect id="d" width="13.912" height="3.417" x="6.427" y="40.77" fill="#3f3f3f"/></g><g id="e" fill="none" stroke="#000" stroke-linecap="round" stroke-linejoin="round" stroke-width="2"><path id="f" d="m6.4266 40.77c-1.6929-8.08 2.5186-15.016 3.84-14.817 8.0961 8.6347 25.033 7.9741 35.8 6.1134 0.8436-0.1458 1.5456-2.1011 2.3879-2.1769 7.8729-0.7088 15.015 1.6183 16.621 4.7477 3.0354 5.916-0.5294 10.939-36.626 9.27a38.643 38.643 0 0 1-3.7006-1.4289"/><rect id="g" width="13.912" height="3.417" x="6.427" y="40.77"/></g></svg>