<svg xmlns="http://www.w3.org/2000/svg" id="a" viewBox="0 0 72 72"><g id="b"><path id="c" fill="#a57939" d="m11.886 52.467c-0.3688-6.2627 1.5818-16.992 2.1224-18.043l0.0374-13.511s10.692-0.1226 13.854-1.591c1.3724-0.6373 3.6348-1.9031 5.1773-2.7855a1.0709 1.0709 0 0 1 1.6044 0.95c-0.0684 3.6668-0.0626 11.524 1.1608 13.682 1.1185 1.9729 4.3469 4.1119 6.3355 5.6121 5.3352 4.0247 13.07 4.3073 16.486 5.0048 5.3308 1.0883 5.9 5.6343 5.9 7.9125 0 7.2931-17.944 4.8129-17.944 4.8129-3.1249-0.1703-7.2828-1.7713-10.764-1.9613"/><path id="d" fill="#6a462f" d="M11.84,53.209c-.0636-1.08,0-6.2566,0-6.2566,12.1743,1.4221,38.3753,4.8793,52.6567.7787a5.4179,5.4179,0,0,1-2.7282,6.1262c-2.5564,1.4219-8.0734.6116-15.1487.4647-3.1288-.0649-7.27-.8124-10.7508-1.0025"/><rect id="e" width="17.221" height="3.435" x="11.84" y="52.278" fill="#3f3f3f"/></g><g id="f" fill="none" stroke="#000" stroke-linecap="round" stroke-linejoin="round" stroke-width="2"><path id="g" d="m11.886 52.278c-0.3688-6.2626 1.5818-16.992 2.1224-18.043l0.0374-13.511s10.692-0.1226 13.854-1.591c1.3724-0.6373 3.6348-1.9031 5.1773-2.7855a1.0709 1.0709 0 0 1 1.6044 0.95c-0.0684 3.6668-0.0626 11.524 1.1608 13.682 1.1185 1.9729 4.3469 4.1119 6.3355 5.6121 5.3352 4.0248 13.035 4.5045 16.486 5.0048 7.7281 1.12 6.928 9.9315 4.5453 11.576-3.7407 2.5814-16.589 1.15-16.589 1.15-3.1247-0.1707-9.9086-1.571-13.39-1.7611"/><rect id="h" width="17.221" height="3.435" x="11.84" y="52.278"/><line id="i" x1="32.218" x2="29.381" y1="25.885" y2="25.871"/><line id="j" x1="32.74" x2="29.982" y1="30.994" y2="31.656"/><line id="k" x1="35.09" x2="32.74" y1="34.754" y2="36.344"/><path id="l" d="m16.523 48.374s30.323 2.903 34.496 2.0077"/></g></svg>