<svg xmlns="http://www.w3.org/2000/svg" id="a" viewBox="0 0 72 72"><g id="b"><path fill="#6A462F" d="m34.602 63.93h4.1493 4.432s3.0287 0.5048-0.5048-3.0287c0 0 0.5048-1.0096 0.5048-1.5143s1.0937-1.0096 0.7992-2.0191"/><path fill="#6A462F" stroke="#6A462F" stroke-miterlimit="10" stroke-width="2" d="M37.8007,61.4321 c1.129-0.1524,1.9462-0.423,2.3542-1.035c1.0096-1.5143,1.0096-1.0096,0.5048-2.0191c-0.5048-1.0096,0-2.0191,0-2.0191L45,57"/><path fill="#A57939" d="m33.79 53.97c9.417 4.7375 29.517 3.7978 25.572-0.1477-4.4391-4.4391-5.0732-6.3416-5.7074-10.146s-5.7074-11.415-14.586-13.317 0-13.951-6.3416-19.659-13.951-0.6342-13.951 2.5366-3.1708 5.0732-3.1708 5.0732c-1.2683 0.6342-9.5123 3.8049 1.2683 3.8049s10.146 2.5366 6.9757 4.4391c0 0-10.808 4.5851-7.8493 14.446 3 10 17.996 13.456 17.996 13.456s-0.6342 1.2683 0 2.5366-0.3658 1.6342-1.6342 3.5366c-1.2683 1.9025-4.0732 0.2683-6.6099 0.9025-1.9455 0.4864-3.1708 2.5366 0.6342 2.5366s10.781 0 10.781 0 3.8049 0.6342-0.6342-3.8049c0 0 0.6342-1.2683 0.6342-1.9025s1.374-1.2683 1.0041-2.5366"/><path fill="#5C9E31" d="m39.069 30.358c-8.8782-1.9025 0-13.951-6.3416-19.659s-13.951-0.6342-13.951 2.5366-3.1708 5.0732-3.1708 5.0732c-1.2683 0.6342-9.5123 3.8049 1.2683 3.8049s10.146 2.5366 6.9757 4.4391"/><path fill="#FCEA2B" d="m15.605 18.31c-1.2683 0.6342-9.5123 3.8049 1.2683 3.8049"/></g><g id="c" fill="none" stroke="#000" stroke-linecap="round" stroke-linejoin="round" stroke-miterlimit="10" stroke-width="2"><path d="m47.947 46.212c6.9757 5.7074 0 6.3416 0 6.3416-17.122 1.9025-21.561-16.488-21.561-16.488"/><path d="m34.017 54.46c10.796 2.9088 29.291 3.308 25.345-0.6374-4.4391-4.4391-5.0732-6.3416-5.7074-10.146s-5.7074-11.415-14.586-13.317 0-13.951-6.3416-19.659-13.951-0.6342-13.951 2.5366-3.1708 5.0732-3.1708 5.0732c-1.2683 0.6342-9.5123 3.8049 1.2683 3.8049s10.146 2.5366 6.9757 4.4391c0 0-10.808 4.5851-7.8493 14.446 3 10 17.996 13.456 17.996 13.456s-0.6342 1.2683 0 2.5366-0.3658 1.6342-1.6342 3.5366c-1.2683 1.9025-4.0732 0.2683-6.6099 0.9025-1.9455 0.4864-3.1708 2.5366 0.6342 2.5366s10.781 0 10.781 0 3.8049 0.6342-0.6342-3.8049c0 0 0.6342-1.2683 0.6342-1.9025s1.374-1.2683 1.0041-2.5366"/><path d="m34.602 63.93h4.1493 4.432s3.0287 0.5048-0.5048-3.0287c0 0 0.5048-1.0096 0.5048-1.5143s1.0937-1.0096 0.7992-2.0191"/><path d="m40.66 56.359s-0.5048 1.0096 0 2.0191c0.5048 1.0096 0.5048 0.5048-0.5048 2.0191-0.408 0.612-1.2252 0.8826-2.3542 1.035"/></g></svg>