<svg xmlns="http://www.w3.org/2000/svg" id="a" viewBox="0 0 72 72"><g id="b"><path fill="#A57939" d="m16.77 49.53s-5.6081-13.46 14.581-12.338c0 0 4.4865-20.189 32.527-26.919 0 0 5.6081 26.919-23.554 38.135 0 0 0 8.973 8.973 11.216 1.2317 0.3079 3.0236-0.3413 3.3649 0 2.2433 2.2433-12.338 4.4865-15.703 3.3649v-6.7298s-7.8514 0-11.216-8.973c0-1e-4 -2.2433-4.4866-8.973 2.2432z"/><path fill="#6A462F" d="m33.594 30.341s0-20.068 6.7298-23.432c0 0 5.6081 4.4865 4.4865 11.216l-11.216 12.216z"/><path fill="#fff" d="m26.243 46.337s-4.1575-2.4149-9.3514 3.1932c0 0-6.4923-13.161 15.582-12.75l-6.2301 9.5563z"/><polygon fill="#FCEA2B" points="16.154 43.27 20.097 45.703 16.77 48.409"/></g><g id="c" fill="none" stroke="#000" stroke-linecap="round" stroke-linejoin="round" stroke-miterlimit="10" stroke-width="2"><path d="m43.689 14.76c0-4.4865-3.3649-6.7298-3.3649-6.7298-6.7298 4.4865-6.7298 17.946-7.8514 24.676-0.4206 2.5237-0.6835 3.6278-1.321 4.1207-1.0625 0.8215-3.1655-0.0548-8.7737 1.1136-8.973 1.8694-5.6081 11.59-5.6081 11.59 6.7298-6.7298 8.973-2.2433 8.973-2.2433 3.3649 10.095 10.095 8.973 10.095 8.973 1.1216 4.4865 0 6.7298 0 6.7298 3.3649 3.3649 26.919-3.3649 15.235-4.1126-11.684-0.7478-10.749-10.468-10.749-10.468 4.1408-2.3005 7.6106-4.6848 10.516-7.0871 0 0 0.7008-1.8859-1.5425-7.494"/><path d="m31.351 37.192c1.1216-7.8514 13.46-17.946 13.46-17.946s12.338-8.973 20.189-8.973c0 0 0 16.824-10.095 28.041 0 0 0-6.7298-2.2433-8.973"/><path d="m30.019 54.227-0.9113 5.3978s-3.3775-1.1341-4.4865 0"/><path d="m29.108 59.625s2.2433 0 2.2433 1.1216"/></g></svg>