<svg xmlns="http://www.w3.org/2000/svg" id="a" viewBox="0 0 72 72"><g id="b"><path fill="#fff" d="m23.754 12.362 1.6667 7.1667-5.3333 5.3333-8.3333 14.333 1 4.6667 2.1667 1.3333 4-0.1667 3.5-3.3333 6.8333-1.8333s1.3333 1.5 2.1667 3 3.6667 4.1667 3.6667 4.1667l0.5 6-1.8333 6.1667-2 2.8333s22 9.5 33.167-7l-0.5-6-1.8333-5-3.3333-5.1667-1-1.5-0.1667-5.1667-2.8333-5.3333-5-3-2.6667-4.5-5.1667-4.1667-6.5-1.5-5.6667 1-4.1667-2.1667-2.3335-0.1666z"/><path fill="#EA5A47" d="m50.671 23.155 5.2083 4.095s5.5638 8.2181-0.3258 17.82c-7.0492 11.492 0 0 0 0-1.6183 3.4754-2.3141 6.7423-1.738 9.7216l-5.3111-4.4167v-16.083l2.1666-11.137z"/><polyline fill="#EA5A47" points="25.898 19.271 10.785 12.021 15.951 18.14 21.175 23.995 25.898 19.271"/><path fill="#92D3F5" d="m29.737 13.631 10.768 0.1362s9.2377 4.0661 10.536 11.816l0.6874 8.9567c-2.6337 6.5386-3.0562 14.127 2.0883 20.834 0 0-7.1444 1.3215-9.8944-7.1094l-1.5835-4.7643 0.3258-6.0341 1.4169-5.6426-0.2833-4.8929-2.2761-4.3124-3.5322-2.8413-5.792-2.0801-2.4601-4.0655"/><path fill="#61B2E4" d="m58.455 36.75s5.5192 6.4066 6.9982 15.119c0.1838 1.0826 0.1251 2.193-0.1377 3.2591-0.4317 1.7512-0.8179 4.9979 0.1452 7.3825 0.4689 1.1611-0.5621 2.3655-1.7883 2.1115-3.7094-0.7686-9.2437-3.6474-10.257-8.0876-0.0239-0.1047-0.0368-0.2138-0.0417-0.321l-0.266-5.7459c-0.0132-0.2857 0.0516-0.5695 0.1875-0.8211l3.692-6.8359c0.0666-0.1233 0.1164-0.2549 0.1482-0.3914l1.3193-5.6695"/></g><g id="c"><path fill="none" stroke="#000" stroke-linecap="round" stroke-linejoin="round" stroke-miterlimit="10" stroke-width="2" d="m58.455 37.783c1.768 2.3617 6.5451 6.6821 6.0451 16.238"/><path fill="none" stroke="#000" stroke-linecap="round" stroke-linejoin="round" stroke-miterlimit="10" stroke-width="2" d="m32.5 41.885s8.4783 6.7823 0 18.765"/><polyline fill="none" stroke="#000" stroke-linecap="round" stroke-linejoin="round" stroke-miterlimit="10" stroke-width="2" points="24.809 19.134 10.25 11.75 21.175 23.995"/><path fill="none" stroke="#000" stroke-linecap="round" stroke-linejoin="round" stroke-miterlimit="10" stroke-width="2" d="m35.196 30.87c0.5489 8.3555-9.3225 9.703-11.954 10.335-0.3325 0.0798-0.6318 0.25-0.8736 0.4919l-2.2227 2.2227c-0.3494 0.3494-0.8234 0.5458-1.3176 0.5458h-3.5121c-1.203 0-2.2711-0.7698-2.6515-1.9111l-0.531-1.5931c-0.258-0.774-0.1649-1.6222 0.2549-2.3218l8.7862-14.644 4.7238-4.7238-2.1151-6.9054s7.8026-0.6987 8.4135 5.3308c0 0 16.928 2.4418 10.553 19.383 0 0-1.625 5.9489 2.375 11.185"/><path fill="none" stroke="#000" stroke-linecap="round" stroke-linejoin="round" stroke-miterlimit="10" stroke-width="2" d="m30.917 14.021s22.244-4.0208 19.958 19.958"/><path fill="none" stroke="#000" stroke-linecap="round" stroke-linejoin="round" stroke-miterlimit="10" stroke-width="2" d="m49.919 23.155s14.766 6.5865 5.4563 22.22c0 0-5.375 6.5625 0.625 13.604"/><circle cx="24.417" cy="28.93" r="2"/></g></svg>