<?xml version="1.0" encoding="UTF-8"?>
<svg id="a" viewBox="0 0 72 72" xmlns="http://www.w3.org/2000/svg"><g id="b"><path d="m17.123 5.3057-3.3235 4.0423-2.1112 12.895 2.5003 11.916-2.5003 5.0356 0.4829 11.388 2.2344 4.5s6.9323-3.3333 8.7656 3.9167l12.902 3.8333 13.216-4.25 0.715-2.439 3.5745-2.2785 3.5235 0.5481 2.5725-6.1293 0.6371-6.2846-1.7215-6.5752-0.7776-1.2636 1.4468-4.7673 0.2177-8.9431-0.9631-9.823-1.7047-3.8692-2.6385-2.0919-5.1846 6.5784-5.482 6.707h-1.3334l-5.1591-1.4108-9.1742 0.5805-4.75-5.0384-3.2746-5.1667-2.6903-1.611" fill="#E27022"/><path d="m11.338 45.083c6.0422-0.6554 11.991 4.5417 15.991 10.002l6.0087 2.2478 2.6566 0.7608 3.0517-0.8441 5.7089-2.0836s5.0827-11.25 15.916-10.139l-2.0833 8.2542-1.6875 1.7186-3.1875-0.8438-3.0625 1.3865-1.5173 3.0909s-3.5452 4.4554-12.868 4.4497c-5.8283-0.0036-12.26-1.375-13.473-4.484-0.8609-2.2069-3.8288-5.0369-3.8288-5.0369l-4.493 0.3564-3.132-8.8355z" fill="#fff"/><path d="m28.796 60.958s-0.3695 3.5417 1.3778 5.0417c1.7472 1.5 6.4139 1.7083 6.4139 1.7083l5.9583-1.7917s1.7083-1.6667 0.875-5l-2.75 0.7917-6.4972 0.2083-5.3778-0.9583z" fill="#d0cfce"/><path d="m57.671 7.375-3.0417 2.0417-4.4583 5.9583-1.5416 7.125 0.2083 1.9583s5 8.375 11.25 0.2917l-0.5833-8.5833-0.9167-7.25-0.9167-1.5417z" fill="#fff"/><path d="m14.271 7.375 3.0417 2.0417 4.4583 5.9583 1.5417 7.125-0.2083 1.9583s-5 8.375-11.25 0.2917l0.5833-8.5833 0.9167-7.25 0.9166-1.5417z" fill="#fff"/></g><g id="c"><path d="m29.045 41.681s-3.0393 1.5997-4.5092 1.0171c-1.4698-0.5826-2.2313-2.14-1.7007-3.4785 0.5306-1.3386 2.1522-1.9514 3.622-1.3688 1.4699 0.5826 2.5879 3.8302 2.5879 3.8302z"/><path d="m35.994 56.929c-1.513-0.2346-2.7355-0.9125-3.641-2.075v-0.698" fill="none" stroke="#000" stroke-linecap="round" stroke-linejoin="round" stroke-miterlimit="10" stroke-width="2"/><path d="m16.916 10.288s7.7517 5.915 5.3244 13.667" fill="none" stroke="#000" stroke-linecap="round" stroke-linejoin="round" stroke-miterlimit="10" stroke-width="2"/><path d="m23.607 58.094c-1.4877-3.2886-4.481-4.3848-5.1857-4.2282l-3.5235 0.5481c-2.6622-2.6622-3.132-10.179-3.132-10.179-0.4337-4.7705 1.0302-8.0757 2.4227-10.075l-0.3869-0.7301c-2.5056-6.1857-1.0179-15.66-0.4698-21.689 0.3975-4.3723 2.6068-5.9162 3.7911-6.4345 0.4153-0.1818 0.8959-0.0599 1.1789 0.2943 1.2956 1.6213 5.3162 6.5744 9.1241 10.447 1.6822 1.7107 2.4508 3.2218 2.748 4.4518" fill="none" stroke="#000" stroke-linecap="round" stroke-linejoin="round" stroke-miterlimit="10" stroke-width="2"/><path d="m42.955 41.681s3.0393 1.5997 4.5092 1.0171c1.4698-0.5826 2.2313-2.14 1.7007-3.4785s-2.1522-1.9514-3.622-1.3688c-1.4699 0.5826-2.5879 3.8302-2.5879 3.8302z"/><path d="m36.073 61.708v-4.7791c1.513-0.2346 2.7355-0.9125 3.641-2.075v-0.698" fill="none" stroke="#000" stroke-linecap="round" stroke-linejoin="round" stroke-miterlimit="10" stroke-width="2"/><path d="m43.747 50.156 1.1745 5.8367s0 6.6555-7.4385 6.1074h-2.8978c-7.4385 0.5481-7.4385-6.1074-7.4385-6.1074l1.1745-5.8367" fill="none" stroke="#000" stroke-linecap="round" stroke-linejoin="round" stroke-miterlimit="10" stroke-width="2"/><path d="m55.084 10.288s-7.7517 5.915-5.3244 13.667" fill="none" stroke="#000" stroke-linecap="round" stroke-linejoin="round" stroke-miterlimit="10" stroke-width="2"/><path d="m48.393 58.094c1.4877-3.2886 4.481-4.3848 5.1857-4.2282l3.5235 0.5481c2.6622-2.6622 3.132-10.179 3.132-10.179 0.4336-4.7691-1.0294-8.0739-2.4216-10.074l0.3858-0.7317c2.5056-6.1857 1.0179-15.66 0.4698-21.689-0.3975-4.3723-2.6068-5.9162-3.7911-6.4345-0.4153-0.1819-0.8958-0.06-1.1789 0.2942-1.2956 1.6213-5.3162 6.5744-9.1241 10.447-1.7324 1.7618-2.4958 3.3118-2.7734 4.5611" fill="none" stroke="#000" stroke-linecap="round" stroke-linejoin="round" stroke-miterlimit="10" stroke-width="2"/><path d="m41.667 65.449c-3.804 2.0509-7.418 2.0886-10.806 0" fill="none" stroke="#000" stroke-linecap="round" stroke-linejoin="round" stroke-miterlimit="10" stroke-width="2"/><path d="m29.018 17.952s6.0552-3.1842 13.781-0.1044" fill="none" stroke="#000" stroke-linecap="round" stroke-linejoin="round" stroke-miterlimit="10" stroke-width="2"/></g></svg>
