<svg xmlns="http://www.w3.org/2000/svg" id="a" viewBox="0 0 72 72"><g id="b"><path fill="#fff" d="m55.025 31.086 1.2292 9.9167s-1 6.75 4.6667 3.8333l-1.6667-3.1667 1.0833-4.5833-0.9167-4.1667-4.3958-1.8333z"/><path fill="#A57939" d="m17.713 20.398-10.375 5.625 0.625 2.1875s6.625 0.3125 7.25 1.6875-2.375 13.812 10.875 18.438l3.375 15.25s-1.75 4.5625-1.5625 4.4375 2.875-0.0625 2.875-0.0625l1.875-5.5625-0.25-7.8125-0.5-5 4.3125 0.3125 7.25-1.0625 4.3125-0.1875 2.75 4.375-2.9375 10.812-2.6875 4.125h3.875l5.5-10.062 1.25-3.75-1.75-7.1875 3.3125-9.8125s0.3125-3.5625-2.0625-6.0625-13.25 0.5-13.25 0.5l-11.562-1.4375-4.3125 0.3125-1.4375-2.5-0.6875-2.8125s3-0.125 3.1875-3.1875c0 0-3.375-2.75-6.5-0.1875 0 0-2.5-2.0625-2.75-1.375z"/><polygon fill="#6A462F" points="20.921 45.586 22.088 51.336 23.838 62.419 21.921 67.836 24.838 67.836 27.421 62.169 27.338 53.502 26.088 48.336"/></g><g id="c" fill="none" stroke="#000" stroke-linecap="round" stroke-linejoin="round" stroke-miterlimit="10" stroke-width="2"><path d="m28.168 67.021 1.1788-3.4527-3.4292-15.461c-12.324-3.8578-10.393-17.686-10.393-17.686-0.1921-1.7655-3.3238-1.8171-3.3238-1.8171l-2.6499 0.2126c-0.8005 0.0642-1.544-0.4182-1.8116-1.1753l-0.2103-0.595c-0.2696-0.7629 0.0713-1.6072 0.795-1.969l9.0205-4.5102s2.2172-0.8563 3.168 1.5187c0 0 1.1184-2.6975 6.4764-0.5542 0 0-0.4286 4.0721-5.1437 4.0721"/><path d="m33.026 39.748 0.5358 5.6795s-3.0005 3.0188-2.1432 9.0642"/><polyline points="23.096 51.184 24.061 62.663 22.239 66.842"/><path d="m23.784 28.655s0.671 3.2268 4.8768 1.8649c0.9554-0.3094 1.9838-0.2964 2.9608-0.064 2.4541 0.5839 10.06 1.4413 13.873 0.783 0.5614-0.0969 1.1066-0.2553 1.637-0.4631 1.5592-0.6108 6.7173-2.1085 11.707 2.3083 2.0034 1.7733 1.7879 4.751 1.0301 7.2283-0.0102 0.0336-0.8683 2.7102 0.5438 3.7727"/><polyline points="47.636 37.391 46.778 46.584 50.85 53.25 47.468 63.891 45.117 67.021"/><path d="m56.125 37.391s0.9716 4.995-2.0778 9.7294c0 0 0.1072 3.88 1.3931 6.2375l-2.036 4.1551"/><path d="m18.203 20.245s0.8573-4.1257 7.5548-2.4647c0 0 6.001 0.4822 7.9835-5.1437s-2.1788-7.698-2.1788-7.698"/><path d="m37.85 8.1547s2.8621 1.9342 0.2904 4.8651c-2.5013 2.8506-4.8487 2.0226-4.8487 2.0226"/><path d="m14.506 11.03s-1.2151 4.9964 1.2859 6.9654 2.4111 2.5629 2.4111 2.5629"/><path d="m27.847 10.654s-1.3159 1.711 0.1307 4.1802c0 0 0.6376 1.6171-0.6575 2.8709"/><path d="m20.506 17.706s-1.9289-2.3896 0.6965-5.015"/><path d="m36.24 48.924c4.753 0.5107 8.8861 0.5288 11.624-0.5618"/></g></svg>