<svg xmlns="http://www.w3.org/2000/svg" id="a" viewBox="0 0 72 72"><g id="b"><path fill="#A57939" d="m18.921 25.502c-0.75 0.25-8.5 9.3333-9.25 15.083s-0.3333 8.0833-0.3333 8.0833 2.8333 8.75 11.167 13.083c0 0 13.083 13.167 30.083 0.25 0 0 8.3333-2.8333 12-14.583l-0.3333-9.6667-2.4167-6.1667s-4.5-4.3333-4.6667-4.75-5.4167-4-5.4167-4l-1.9167-0.5833-23.917 0.4168-5 2.8333z"/><path fill="#F4AA41" d="m60.088 21.21 0.25-5.75-1.125-3.875-5.625-0.75-5.25 2.5-3.125 2.625-3.25-5.375-5.875-2.75-10.125 2-1.125 0.25s-2.375 1.75-2.25 2.5c0 0-6.75-3-9.625-0.375 0 0-3.75 6.875 0.375 11.375l4 3.5s-9.5 8.625 1.25 19.5c0 0-2.6198 5.6214 1.1127 11.917l3.2206 6.666c6 5.3333 19.417 5.0833 25.417-0.25l2.3253-4.8129c0.9155-1.0835 4.6646-5.941 3.6747-11.77 0 0 8.5-8.125 1.625-20.75l-1.625-1.5 3-1.625 2.75-3.25z"/><path fill="#A57939" d="m22.338 12.398s1-1.9375 3.875-3 5.8125-1.6875 5.8125-1.6875 6.4375 0.9375 6.9375 1 6 6.3125 6 6.3125l0.4375 2.4375s-1.8125 1.875-6.5625-0.5625-5.8125-2.375-6-2.25-5.625 2.3125-5.625 2.3125l-2.0625-1.6875-2.8125-2.875z"/><path fill="#fff" d="m47.671 42.336c0.0834-0.2084 1.5-8.6667 1.5-8.6667h-0.1666s-2.6667 4.7917-5.625 5.6667l-0.5 1.5416 0.0937 1.5181c-0.6256-0.0616-1.2596-0.024-1.6979 0.2527-1.1875 0.75-2.375 0.5-2.375 0.5l-1.8125 1.6875-0.5625 0.875-1.6875-0.5625s-0.6875-2-0.875-2.0625-2.0625-0.75-2.0625-0.75l-1.1875 0.4375s-0.9572-0.3216-1.9857-0.1018l0.1107-1.7941-0.5-1.5416c-2.9583-0.875-5.625-5.6667-5.625-5.6667h-0.1667s1.4167 8.4583 1.5 8.6667c0.0643 0.1606 1.7091 1.8027 2.4614 2.5486-0.7147 2.222 0.2053 4.6389 0.2053 4.6389l2.25 2.8125 5.25-0.75 1.9375-1.5625 1.8125 0.9375 3.9375 1.5 2.5-1.3125s1.6875-4.5 1.75-4.6875c0.0327-0.098-0.2592-1.0667-0.5452-1.9694 0.8204-0.8178 2.0116-2.0194 2.066-2.1555z"/><path fill="#f4aa41" d="m27.046 18.086s0.4583 2.875-2.2917 5.7083c0 0-4.3333 0.9167-4.5417 1.0417-0.2083 0.125-2.3333 1.3333-2.6667 1.5-0.3333 0.1667-1.7083-0.2917-2.0417-0.5417s-3.4583-5.5-3.4583-5.5l0.1667-3.625 1.0417-4.375 4.6667-0.5833 4 1.0417 3.8333 3.0417 1.2917 2.2916z"/><path fill="#f4aa41" d="m45.033 17.252s-0.4583 2.875 2.2917 5.7083c0 0 4.3333 0.9167 4.5417 1.0417 0.2083 0.125 2.3333 1.3333 2.6667 1.5s1.7083-0.2917 2.0417-0.5417c0.3333-0.25 3.4583-5.5 3.4583-5.5l-0.1667-3.625-1.0417-4.375-4.6667-0.5833-4 1.0417-3.8333 3.0417-1.2917 2.2916z"/><path fill="#fff" d="m27.671 51.336 2 4.5 2.5833 1.5833 5.75 0.4167 4.4167-1.5833 2.4167-5.25-2.9375 1.4583-4.3958-1.4583-1.5-1.3333-3.0833 1.6667s0 1.3333-1.75 0.9167c-1.7501-0.4168-3.5001-0.9168-3.5001-0.9168z"/></g><g id="c"><ellipse cx="28.778" cy="31.566" rx="2" ry="2" transform="matrix(.5156 -.8568 .8568 .5156 -13.106 39.948)"/><ellipse cx="43.463" cy="31.566" rx="2" ry="2" transform="matrix(.8568 -.5156 .5156 .8568 -10.053 26.928)"/><path fill="none" stroke="#000" stroke-linecap="round" stroke-linejoin="round" stroke-miterlimit="10" stroke-width="2" d="m40.393 43.066s-1.8705-1.3333-2.9394 2.0833l-1.4252 1.0833-1.4252-1.0833c-1.0689-3.4167-2.9394-2.0833-2.9394-2.0833"/><path fill="none" stroke="#000" stroke-linecap="round" stroke-linejoin="round" stroke-miterlimit="10" stroke-width="2" d="m42.947 39.982 2.1482 3.519c0.1941 0.3179 0.3227 0.6662 0.3793 1.0272l0.326 2.0779c0.0856 0.5453 0.0042 1.1018-0.235 1.6067l-1.1399 2.407c-0.4169 0.8804-1.2717 1.5195-2.2925 1.7141v0c-0.6475 0.1234-1.3206 0.0597-1.9273-0.1826l-1.3016-0.5197c-0.3174-0.1267-0.6105-0.2999-0.868-0.5128l-1.3748-1.1369h-1.2661l-1.3748 1.1369c-0.2575 0.2129-0.5505 0.3861-0.868 0.5128l-1.3016 0.5197c-0.6067 0.2423-1.2798 0.306-1.9273 0.1826h0c-1.0208-0.1946-1.8756-0.8337-2.2925-1.7141l-1.1399-2.407c-0.2391-0.505-0.3205-1.0614-0.235-1.6067l0.326-2.0779c0.0566-0.361 0.1853-0.7093 0.3793-1.0272l2.1482-3.519"/><line x1="36.028" x2="36.028" y1="46.232" y2="48.982" fill="none" stroke="#000" stroke-linecap="round" stroke-linejoin="round" stroke-miterlimit="10" stroke-width="2"/><path fill="none" stroke="#000" stroke-linecap="round" stroke-linejoin="round" stroke-miterlimit="10" stroke-width="2" d="m30.537 55.524 0.7708 0.7941c0.8297 0.8549 1.9545 1.3607 3.1446 1.4142l3.0167 0.1356c1.1576 0.052 2.2933-0.3278 3.1868-1.0657l0.8644-0.714"/><path fill="none" stroke="#000" stroke-linecap="round" stroke-linejoin="round" stroke-miterlimit="10" stroke-width="2" d="m17.739 26.829c-9.9983-4.0396-4.7942-14.18-4.7942-14.18 7.5833-4.5833 13.833 4.75 13.833 4.75s4.8857-4.6468 12.306-1.3781"/><path fill="none" stroke="#000" stroke-linecap="round" stroke-linejoin="round" stroke-miterlimit="10" stroke-width="2" d="m24.028 23.149s-17.333 6.0833-13.75 25"/><path fill="none" stroke="#000" stroke-linecap="round" stroke-linejoin="round" stroke-miterlimit="10" stroke-width="2" d="m19.456 45.187c-2.6014 3.7405-3.5847 9.9899 4.4889 19.462"/><path fill="none" stroke="#000" stroke-linecap="round" stroke-linejoin="round" stroke-miterlimit="10" stroke-width="2" d="m24.028 27.732s-5.6115 8.4105 2.1526 17.789"/><path fill="none" stroke="#000" stroke-linecap="round" stroke-linejoin="round" stroke-miterlimit="10" stroke-width="2" d="m25.36 10.919s12.705-9.5 19.862 5.3333"/><path fill="none" stroke="#000" stroke-linecap="round" stroke-linejoin="round" stroke-miterlimit="10" stroke-width="2" d="m45.222 16.49s6.2497-9.3333 13.833-4.75c0 0 5.2041 10.14-4.7942 14.18"/><path fill="none" stroke="#000" stroke-linecap="round" stroke-linejoin="round" stroke-miterlimit="10" stroke-width="2" d="m47.972 22.24s17.333 6.0833 13.75 25"/><path fill="none" stroke="#000" stroke-linecap="round" stroke-linejoin="round" stroke-miterlimit="10" stroke-width="2" d="m53.623 46.234c1.6075 3.8321 1.2349 9.5252-5.5679 17.506"/><path fill="none" stroke="#000" stroke-linecap="round" stroke-linejoin="round" stroke-miterlimit="10" stroke-width="2" d="m47.972 26.824s5.6115 8.4105-2.1526 17.789"/></g></svg>