<svg xmlns="http://www.w3.org/2000/svg" id="a" viewBox="0 0 72 72"><g id="b"><path fill="#3F3F3F" d="m31.963 21.086c-0.125-0.375-2.375-4-2.375-4l-7.625-4.625-5.75 2.25-0.625 2.5-1.75 3.125 0.375 2.625-1.125 3.75s-0.75 3.875 3.75 5c0 0-3.875 6.75-0.625 11 0 0-7 7.75-1.375 18.875l5.5 1 4.625 0.75 3.375-1.5 1-2-1.375-3.75s1.625-3 0.25-8.25l0.375-4.5 4.625 4 5 0.875 4.25-0.25s6.875-2.25 7.125-5l2.125 1.25s-3.4597 13.485 0.875 16.375c0.375 0.25 5.25 2 6.125 0s2.25-9.375 1-12.125 0.25-5.125 0.25-5.125 5.5-9.5-1.5-14.875-9.125-3.375-9.125-3.375-5.125 5-12.625 0.75l-4.75-4.75z"/><path fill="#9B9B9A" d="m33.421 21.919-1.5 8.5s0 5.75-5.1666 10.5c1.4591 2.5674 3.5905 4.7194 6.4583 6.4167l9.25 0.625 7.125-5s4.5-7.0417-1.5-16.875l-6.8333 1.1667-4.5417-1.4167-3.2917-3.9167z"/></g><g id="c" fill="none" stroke="#000" stroke-linecap="round" stroke-linejoin="round" stroke-miterlimit="10" stroke-width="2"><path d="m31.168 30.731c-0.6667 6.9167-6.75 12.667-6.75 12.667 2.209 4.8259-1.5972 14.142-3.0756 17.414-0.3234 0.7155-1.0347 1.1698-1.8199 1.1698h-3.3263c-0.8043 0-1.5271-0.4876-1.8479-1.2252-4.9797-11.448 1.903-17.942 1.903-17.942-2.4167-8.8333 2.4375-11.875 2.4375-11.875l2.8958-6.3333c2.25-7.1667 10.042-2.75 10.042-2.75s2.625 0.8333 5.1875 3.7708c0 0 3.4361 4.2083 13.497-0.6286 1.4052-0.6755 3.1173 0.0775 4.4333 0.9135l1.6141 1.0253c3.0781 1.9552 5.2543 5.1534 5.6318 8.7804 0.2435 2.3401-0.1842 5.0032-2.1764 7.5344l-0.4375 5s1.6601 6.8547-0.522 11.939c-0.3128 0.7288-1.0548 1.1812-1.8479 1.1724l-2.8239-0.0314c-0.9253-0.0103-1.7248-0.6509-1.9276-1.5538-0.7834-3.4892-2.3444-12 0.0588-15.776l-2.5-1s-4.125 6.875-13.125 5.375c0 0-6.2708-0.9375-7.2292-5.0625"/><path d="m28.735 17.69-1.5253-1.6666c-6.9167-7.5417-11.292-0.7083-11.292-0.7083l-0.5 2.3333c-3.2083 3-0.8333 5.75-0.8333 5.75s-4.4167 4.1667 0.8333 8.1667h2.0833"/><path d="m27.814 48.544s2.25 3.375 0 7.375l1.5088 3.0176c0.5453 1.0906 0.0936 2.4164-1.0041 2.9472l-3.3276 0.5397"/></g></svg>