<svg xmlns="http://www.w3.org/2000/svg" id="a" viewBox="0 0 72 72"><g id="b"><path fill="#92D3F5" d="m35.892 22.845c-1.1677-0.75117-2.3515-1.5127-4.2562-2.536s-4.5628-2.3295-7.3719-3.0366c-2.8091-0.70712-5.7684-0.81539-8.9995-0.92767s-6.7338-0.22857-8.7991 0.71011-2.694 2.9321-0.63572 6.7601 6.8063 9.4959 11.128 11.07 8.2242-0.93837 11.039-2.5076c2.8152-1.5692 4.5425-2.1943 6.2711-2.8198"/><path fill="#92D3F5" stroke="#92D3F5" stroke-linecap="round" stroke-linejoin="round" stroke-miterlimit="10" stroke-width="2" d="m32.103 44.066c-0.75813 3.7545-1.516 7.5079-3.6638 9.4562s-5.6846 2.0927-7.9036-0.93857c-2.219-3.0312-3.1212-9.2385-2.4695-12.725 0.65167-3.4868 2.8607-4.2531 5.602-5.4795s6.0204-2.9151 9.3011-4.6046z"/><path fill="#92D3F5" d="m36.108 22.845c1.1677-0.75117 2.3515-1.5127 4.2562-2.536s4.5628-2.3295 7.3719-3.0366c2.8091-0.70712 5.7684-0.81539 8.9995-0.92767s6.7338-0.22857 8.7992 0.71041 2.6939 2.9319 0.63551 6.76c-2.0584 3.8281-6.8031 9.492-11.126 11.068-4.3233 1.576-8.226-0.93668-11.041-2.5058-2.815-1.5691-4.5423-2.1941-6.2708-2.8196"/><path fill="#92D3F5" stroke="#92D3F5" stroke-linecap="round" stroke-linejoin="round" stroke-miterlimit="10" stroke-width="2" d="m39.897 44.066c0.75813 3.7545 1.516 7.5079 3.6638 9.4562s5.6846 2.0927 7.9036-0.93857c2.219-3.0312 3.1212-9.2385 2.4697-12.725-0.65148-3.4867-2.8579-4.2521-5.6008-5.4791s-6.022-2.9157-9.3024-4.605z"/><ellipse cx="35.807" cy="17.922" fill="#9B9B9A" rx="3.56" ry="2.67"/><ellipse cx="35.819" cy="23.563" fill="#3F3F3F" rx="3.353" ry="2.735"/><path fill="#9B9B9A" d="m35.394 26.812c-6.3212 0.67634 0.6061 20.481 0.6061 20.481s7.8636-21.387-0.6061-20.481z"/></g><g id="c" fill="none" stroke="#000" stroke-linecap="round" stroke-linejoin="round" stroke-miterlimit="10" stroke-width="2"><path d="m32.103 44.066c-0.75813 3.7545-1.516 7.5079-3.6638 9.4562s-5.6846 2.0927-7.9036-0.93857c-2.219-3.0312-3.1212-9.2385-2.4695-12.725 0.65167-3.4868 2.8581-4.2522 5.0655-5.0179"/><path d="m32.39 20.592c-2.6586-1.3063-5.3167-2.6125-8.1258-3.3196-2.8091-0.70712-5.7684-0.81539-8.9995-0.92767s-6.7338-0.22857-8.7991 0.71011-2.694 2.9321-0.63572 6.7601 6.8063 9.4959 11.128 11.07 8.2242-0.93837 12.129-3.4522"/><path d="m39.61 20.592c2.6586-1.3063 5.3167-2.6125 8.1258-3.3196 2.8091-0.70712 5.7684-0.81539 8.9995-0.92767s6.7338-0.22857 8.7992 0.71041 2.6939 2.9319 0.63551 6.76c-2.0584 3.8281-6.8031 9.492-11.126 11.068-4.3233 1.576-8.226-0.93668-12.13-3.4502"/><path d="m39.897 44.066c0.75813 3.7545 1.516 7.5079 3.6638 9.4562s5.6846 2.0927 7.9036-0.93857c2.219-3.0312 3.1212-9.2385 2.4697-12.725-0.65148-3.4867-2.858-4.2521-5.0657-5.018"/><ellipse cx="36" cy="17.922" rx="3.56" ry="2.67"/><ellipse cx="36" cy="23.563" rx="3.353" ry="2.735"/><path d="m35.392 26.812c-6.3212 0.67634 0.60836 20.481 0.60836 20.481s7.8614-21.387-0.60836-20.481z"/><line x1="37.968" x2="39.452" y1="14.845" y2="11.582"/><line x1="34.032" x2="32.548" y1="14.845" y2="11.582"/></g></svg>