<svg xmlns="http://www.w3.org/2000/svg" id="a" viewBox="0 0 72 72"><g id="b"><path fill="#EA5A47" d="m39.823 26.896s9.7765 0.248 9.8779-3.7507 1.6859-6.6916-0.7748-8.0222c-3.9262-2.1231-4.0627 5.8988-3.1358 7.923s-7.7904 1.9539-7.7904 1.9539l1.8231 1.896z"/><path fill="#EA5A47" d="m32 27s-10 0-10-4-1-6 1-8 4 6 3 8 7 2 7 2l-1 2z"/><path fill="#D22F27" d="m41.964 55.862s-2.1556-6.898 2.8023-3.0179-3.0179 9.9158-6.7902 6.898c-3.7723-3.0179-9.808-18.538-5.4968-33.196 0 0 3.449-5.1735 6.0357 0s1.1643 20.694 0.151 24.143-1.0133 6.0357 2.4357 7.3291"/><rect width="9" height="4" x="31" y="34" fill="#EA5A47"/><rect width="9" height="4" x="31" y="43" fill="#EA5A47"/></g><g id="c" fill="none" stroke="#000" stroke-linecap="round" stroke-linejoin="round" stroke-miterlimit="10" stroke-width="2"><path d="m23.857 11.888c-6.898 10.347 0.8622 14.658 0.8622 14.658l6.898 0.8622"/><path d="m23.189 14.554c5.3678 1.8034 2.3924 8.5436 2.3924 8.5436l0.8622 0.8622 6.898 0.8622"/><path d="m47.138 11.888s6.898 9.4847-0.8622 14.658l-6.6891 0.4638"/><path d="m37.653 24.822 7.7602-0.8622 0.8622-1.7245s-4.7459-3.2912 1.5071-7.6813"/><polyline points="40.24 30.857 45.167 32.582 47.138 30.857 46.152 29.133"/><polyline points="30.755 30.857 25.582 32.582 23.857 30.857 25.582 29.133"/><polyline points="30.755 34.306 27.306 40.342 25.582 41.204 23.103 39.983"/><polyline points="40.24 34.306 43.689 40.342 45.413 41.204 48.036 40.055"/><line x1="34.204" x2="34.779" y1="22.235" y2="24.247"/><line x1="36.144" x2="36.791" y1="24.247" y2="22.235"/><path d="m39.378 33.444c-5.1735 1.7245-8.3225-0.1249-8.3225-0.1249"/><path d="m30.84 37.324s4.8008 2.1556 8.8247 0"/><path d="m41.964 55.862s-2.1556-6.898 2.8023-3.0179-3.0179 9.9158-6.7902 6.898c-3.7723-3.0179-9.808-18.538-5.4968-33.196 0 0 3.449-5.1735 6.0357 0s1.1643 20.694 0.151 24.143-1.0133 6.0357 2.4357 7.3291"/><path d="m25.582 48.24h3.1731l1.5865-1.7245 0.7933-4.3112s5.5529 1.7245 8.7259 0l0.7933 4.3112 1.5865 1.7245h3.1731"/><path d="m31.932 46.315s3.9965 1.7871 7.4455 0.0626"/></g></svg>