<?xml version="1.0" encoding="UTF-8"?>
<svg id="a" viewBox="0 0 72 72" xmlns="http://www.w3.org/2000/svg"><g id="b" fill="#3F3F3F"><path d="m25.525 30.898c-2.3813-1.68-3.9042-4.1204-3.9326-9.0256-6.2917-12.368-15.833-7.6799-19-2.2433 7.8333 0.9798 4 14.667 4 14.667 10-0.5 7.3714 10.124 7.3714 10.124 10.087-3.1417 16.795 6.148 16.795 6.148-1.648 2.36-1.8159 6.5996-0.3112 7.4402s6.6325 4.2642 6.6325 4.2642l4.6115-4.752s2.1197-2.0094-2.1947-7.0703c2.5572-5.0901 5.9141-7.7066 11.635-7.725 1.6323-12.294 10.176-11.333 10.176-11.333 0.9549-10.544 8.774-13.05 8.774-13.05-10.99-11.21-22.99-2.2118-25.286 2.4153-0.2883 0.5812-0.3939 6.9192-3.3969 9.5794-5.0794 2.7045-10.343 3.2278-15.875 0.5625z"/><path d="m30.401 35.468c-3.1856-2.5092-2.6668-6.2877-2.6668-6.2877l0.706-6.3877s3.373 3.7061 3.448 3.9106l2.5254 0.2349 3.0896-4.4012s2.7828 10.062-0.6418 13.161"/></g><g id="c" fill="none" stroke="#000" stroke-linecap="round" stroke-linejoin="round" stroke-miterlimit="10" stroke-width="2"><path d="m24.738 31.516c-2.3813-1.68-3.1171-4.7386-3.1455-9.6438-6.2917-12.368-15.833-7.6799-19-2.2433 7.8333 0.9798 4 14.667 4 14.667 10-0.5 7.3714 10.124 7.3714 10.124 10.087-3.1417 16.795 6.148 16.795 6.148-1.648 2.36-1.8159 6.5996-0.3112 7.4402s6.6325 4.2642 6.6325 4.2642l4.6115-4.752s2.1197-2.0094-2.1947-7.0703c2.5572-5.0901 5.9141-7.7066 11.635-7.725 1.6323-12.294 10.176-11.333 10.176-11.333 0.9549-10.544 8.774-13.05 8.774-13.05-10.99-11.21-22.99-2.2118-25.286 2.4153-0.2883 0.5812 0.4585 7.3598-2.5445 10.02"/><path d="m30.401 35.134c-3.1856-2.5092-2.6668-6.2877-2.6668-6.2877l0.706-6.3877s3.373 3.7061 3.448 3.9106l2.5254 0.2349 3.0896-4.4012s2.7828 10.062-0.6418 13.161"/></g></svg>
