<svg xmlns="http://www.w3.org/2000/svg" id="a" viewBox="0 0 72 72"><g id="b"><path fill="#d22f27" d="M36.4416,31.0781s5.3372-1.1983,9.6068,4.7934c1.8117,2.5424,3.0945,2.5525,3.9162,3.3951.2268.2326,1.3914,1.8713,1.5586,2.0189,1.2509,1.1039,1.0841,2.6158,1.1856,4.2657.0492.799-.1324,3.2126-1.0058,3.63-1.5679.7495-1.9749,2.2278-5.6546,3.4671,0,0-6.4046,1.1983-9.6068-2.3967,0,0-3.2022,4.7934-11.7417,1.1983a7.4677,7.4677,0,0,1-4.0159-3.291C19.95,46.6762,19.163,44.84,20.18,42.84a5.8506,5.8506,0,0,1,1.0169-2c1.41-1.5834,4.5741-4.4271,5.0844-5C28.4159,33.4434,32.1719,29.88,36.4416,31.0781Z"/><path fill="#ea5a47" d="M17.2077,34.6889c-.1709,0-.3418-.0049-.5117-.0127a4.0515,4.0515,0,0,1-1.9805-.5283,1.0014,1.0014,0,0,1-.3574-1.3018l3.7177-7.2724a1.0067,1.0067,0,0,1,.5245-.4756,7.9385,7.9385,0,0,0,4.6738-5.2373.9995.9995,0,0,1,1.6767-.4444,8.8185,8.8185,0,0,1,1.1065,10.4395A10.4147,10.4147,0,0,1,17.2077,34.6889Z"/><path fill="#ea5a47" d="m21.731 44.231c-6.0292 5.4359-12.601-9.0188-7-10 0 5e-4 4 5e-4 4 2.0005s-1.6667 5 2.6667 6.5z"/><path fill="#d22f27" d="m13.492 33.043s-8.3114-8.2415 3.4967-16.024c0 0 4.522-2.1335 6.7065 0.153 0 0-6.3308 2.9869-5.955 6.1268s2.9869 6.3307 0.7 8.5152a13.381 13.381 0 0 1-4.9482 1.2292z"/><path fill="#ea5a47" d="M45.9427,29.8559a8.8185,8.8185,0,0,1,1.1065-10.4395.9995.9995,0,0,1,1.6767.4444A7.9385,7.9385,0,0,0,53.4,25.0981a1.0067,1.0067,0,0,1,.5245.4756l3.7177,7.2724a1.0014,1.0014,0,0,1-.3574,1.3018,4.0515,4.0515,0,0,1-1.98.5283c-.17.0078-.3408.0127-.5117.0127A10.4147,10.4147,0,0,1,45.9427,29.8559Z"/><path fill="#ea5a47" d="m50.602 42.731c4.3334-1.5 2.6667-4.5 2.6667-6.5s4-2 4-2.0005c5.601 0.9817-0.9711 15.436-7 10z"/><path fill="#d22f27" d="m53.559 31.814c-2.2865-2.1845 0.3247-5.3753 0.7-8.5152s-5.955-6.1268-5.955-6.1268c2.1845-2.2865 6.7065-0.153 6.7065-0.153 11.808 7.7827 3.4967 16.024 3.4967 16.024a13.381 13.381 0 0 1-4.9482-1.2292z"/></g><g id="c"><path fill="none" stroke="#000" stroke-linecap="round" stroke-linejoin="round" stroke-width="2" d="m51.38 48.037c-0.7015 1.3785-2.3662 2.7692-5.8135 3.8034 0 0-6 1-9-2 0 0-3 4-11 1a6.968 6.968 0 0 1-3.7623-2.7463"/><path fill="none" stroke="#000" stroke-linecap="round" stroke-linejoin="round" stroke-width="2" d="m23.649 39.757 3.9167-3.9168c2-2 5-5 9-4 0 0 5-1 9 4a36.489 36.489 0 0 0 3.6239 4.0462"/><path fill="none" stroke="#000" stroke-linecap="round" stroke-linejoin="round" stroke-width="2" d="m25.566 50.84a3.699 3.699 0 0 0-2 3"/><path fill="none" stroke="#000" stroke-linecap="round" stroke-linejoin="round" stroke-width="2" d="m29.649 51.923a3.8823 3.8823 0 0 0-1.0833 2.9166"/><path fill="none" stroke="#000" stroke-linecap="round" stroke-linejoin="round" stroke-width="2" d="m44.566 51.923a3.8823 3.8823 0 0 1 1.0833 2.9166"/><ellipse cx="32.566" cy="27.34" rx="1" ry="2.5"/><ellipse cx="40.566" cy="27.34" rx="1" ry="2.5"/><path fill="none" stroke="#000" stroke-linecap="round" stroke-linejoin="round" stroke-width="2" d="m48.901 50.592s1.7184 1.2213 1.3293 2.4966"/><path fill="none" stroke="#000" stroke-linecap="round" stroke-linejoin="round" stroke-width="2" d="m21.731 44.231s-5 4-8-3 1-7 1-7 4 0 4 2-1.6667 5 2.6667 6.5z"/><path fill="none" stroke="#000" stroke-linecap="round" stroke-linejoin="round" stroke-width="2" d="m13.492 33.043s-8.3114-8.2415 3.4967-16.024c0 0 4.522-2.1335 6.7065 0.153-14.022 5.6836 3.9956 14.617-10.203 15.871z"/><path fill="none" stroke="#000" stroke-linecap="round" stroke-linejoin="round" stroke-width="2" d="M18.9663,26.0289A8.9447,8.9447,0,0,0,24.24,20.12a7.817,7.817,0,0,1,.9574,9.2267,9.3849,9.3849,0,0,1-8.4513,4.3305,3.077,3.077,0,0,1-1.4973-.3754"/><path fill="none" stroke="#000" stroke-linecap="round" stroke-linejoin="round" stroke-width="2" d="m50.602 42.731c4.3334-1.5 2.6667-4.5 2.6667-6.5s4-2 4-2 4 0 1 7-8 3-8 3z"/><path fill="none" stroke="#000" stroke-linecap="round" stroke-linejoin="round" stroke-width="2" d="m48.305 17.172c2.1845-2.2865 6.7065-0.153 6.7065-0.153 11.808 7.7827 3.4967 16.024 3.4967 16.024-14.199-1.2544 3.8184-10.188-10.203-15.871z"/><path fill="none" stroke="#000" stroke-linecap="round" stroke-linejoin="round" stroke-width="2" d="M53.0337,26.0289A8.9447,8.9447,0,0,1,47.76,20.12a7.817,7.817,0,0,0-.9574,9.2267,9.3849,9.3849,0,0,0,8.4513,4.3305,3.077,3.077,0,0,0,1.4973-.3754"/></g></svg>