<svg xmlns="http://www.w3.org/2000/svg" id="a" viewBox="0 0 72 72"><g id="b"><path fill="#F4AA41" d="m19.879 8.1271 0.3333 3.8333-3 1.125-2.875 2.875-0.75 2.125 6.5-1s4.625 13.125 12.125 16.25c0 0-1.625 6.375 1.625 8.875l0.75 11.375-2.875 10.5-2 3.2083 2.3869 0.0295c0.6228 0.0077 1.2137-0.2752 1.5982-0.7653l1.2349-1.5739c0.1844-0.235 0.3138-0.5083 0.3787-0.7999l2.2286-10.009c0.0318-0.1427 0.0478-0.2885 0.0478-0.4347v-10.905l1.5 1.625 3.5 9.25 1.75 10.375-1.3333 3.1667 1.9224-0.1039c0.7177-0.0388 1.3595-0.4598 1.6809-1.1027l0.7958-1.5917c0.2003-0.4006 0.2603-0.8569 0.1705-1.2957l-1.972-9.6281c-0.0095-0.0464-0.0206-0.0924-0.0334-0.138l-2.6059-9.3066 3.125-0.875 3-1.25s3.625 7.375 6.5 7.875l1 13.5-1 3.875 1.1357-0.036c0.8837-0.0281 1.6441-0.633 1.8701-1.4878l0.4863-1.8395c0.0603-0.2282 0.0798-0.4653 0.0575-0.7002l-1.2758-13.435c-0.0158-0.1667-0.0525-0.3308-0.1093-0.4884l-1.0396-2.8877-1.625-8.5-1.125-3.625-3.625-3.125-7-0.5-5.875-3.875s-8.1667-0.7917-13.917-13.542c0 0-0.4166-5.9167-3.6666-5.0417z"/></g><g id="c" fill="none" stroke="#000" stroke-linecap="round" stroke-linejoin="round" stroke-miterlimit="10" stroke-width="2"><path d="m29.876 66.271 1.9375-2.3125 2.75-10.188-0.625-11.5c-3.5-4-1.4344-8.6627-1.4344-8.6627-9.875-5.25-12.066-16.4-12.066-16.4l-6.4404 0.9828c-0.8827 0-1.3296-1.0629-0.712-1.6936l2.7773-2.2892 1.1875-1.6875 2.625-0.625-0.0625-2.875"/><path d="m37.064 40.271s-0.125 3 2.375 3.9375l3.3125 9.4375 1.75 10.188-1.3125 2.4375"/><path d="m43.256 43.333h3.2456s3.0625-0.5625 3.375-3.9375"/><path d="m49.126 41.565s0.9376 4.7688 6.3751 8.2063l0.8125 13.79-0.5 2.7105"/><path d="m58.189 47.458c-2.5713-1.8248-3.1337-5.2183-3.221-7.2951-0.0597-1.419-0.2781-2.8221-0.6805-4.1841l-0.0985-0.3333c-1.8959-5.3999-8.6641-4.2096-12-5.5625-2.549-1.0338-4.8135-3.9259-5.126-3.9259-8.0867 0-14.175-12.301-14.175-12.301"/></g></svg>