<svg xmlns="http://www.w3.org/2000/svg" id="a" viewBox="0 0 72 72"><g id="b"><path fill="#5C9E31" d="m58 46h3s-5 10-23 9c0 0-7 0-15-8 0 0 1 7-4 5s-6-5-4-12l25 4"/><polygon fill="#B1CC33" points="39 50 56 35 54 46"/></g><g id="c" fill="none" stroke="#000" stroke-linecap="round" stroke-linejoin="round" stroke-miterlimit="10" stroke-width="2"><polyline points="8 36 14 40 11 34"/><polyline points="27.144 51.252 24 59 21 59"/><polyline points="32.85 54.124 31 59 35 59"/><path d="m58 46h3s-5 10-23 9c0 0-7 0-15-8 0 0 1 7-4 5s-6-5-4-12l25 4"/><polyline points="56 59 52 59 57 34 39 49"/></g></svg>