<svg xmlns="http://www.w3.org/2000/svg" id="a" viewBox="0 0 72 72"><g id="b"><path fill="#fff" d="m10.254 20.669 1.75 1.4167s-7.6667 8-5.3333 13.5l4.1667-0.1667s1.8333-3.75 6.3333-4.75l1 3.3333s4.1667 3.6667 4.3333 3.9167c0.1667 0.25 2.6667 4.1667 2.6667 4.1667l3.4167 1.6667 0.75 7.25-1.1667 10 2.5 0.75 1.25-0.6667 2.0833-16.5 3.75 0.3333 9.25-1.75 2.5833-3.4167 3.4167 4.75 1.9167 4.6667-0.3333 6.25-1.25 3.25-0.8333 2 1.5 0.75 1.6667-0.25 1.6667-3.5833 2.1667-9.25-2.0833-4.3333 2.6667-4s2.3333-7.5-1.5833-11.667-8-3.5-8-3.5l-7.8333 1.75s-6.5833-0.0833-6.8333-0.0833-4.9167-0.9167-4.9167-0.9167 0.5833-2.3333-1.75-4.0833-13.333-4.9167-13.333-4.9167-4.1671 0.5833-5.5837 4.0833z"/><path fill="#d0cfce" d="m49.588 39.752-2.5833 3.4167 1.25 6.25-4.5 10.667s2.75 1.0833 3.0833 1.0833 5.25-8.1667 5.25-8.1667 2.4167-4.8333 0.9167-8.5c-1.5-3.6666-3.4167-4.75-3.4167-4.75z"/><path fill="#d0cfce" d="m13.275 22.586s3.4375-4.4375 17.062 4.1667l0.5833-1.1667-1.75-4.0833-12.5-4.8333s-7.1149 0.8377-5.75 4.25c0.0417 0.1041 2.3542 1.6666 2.3542 1.6666z"/></g><g id="c" fill="none" stroke="#000" stroke-linecap="round" stroke-linejoin="round" stroke-miterlimit="10" stroke-width="2"><path d="m18.154 25.408s1.3961 4.9702-2.513 6.0871-4.8585 3.7416-4.8585 3.7416-3.9092 1.8987-4.691-1.8987 3.6858-8.3768 3.6858-8.3768l2.5689-2.5689-1.9546-1.6754s2.8768-5.4202 8.2748-3.2422 10.667 4.3604 10.667 4.3604 2.0563 1.7299 1.6654 4.1871c0 0 8.068 2.0936 17.856-0.7505 1.3381-0.3888 2.7579-0.3941 4.1104-0.0589 2.3706 0.5875 5.6294 2.1206 7.0727 6.1147 2.4013 6.6456-3.0156 12.677-3.0156 12.677l1.9546 4.6351-1.5078 8.9911-1.8002 3.0923c-0.1983 0.3657-0.581 0.5935-0.997 0.5935h-1.0495c-0.8724 0-1.4182-0.9437-0.9831-1.6999l1.3675-2.3768c1.2584-2.9501 1.3444-6.2662 0.2583-9.2841-1.5204-4.2249-4.335-8.5601-4.335-8.5601s-3.0715 7.2894-12.712 4.4197"/><path d="m19.093 33.647s0.8495 1.464 2.0882 2.5242c1.1976 1.025 2.1398 2.3157 2.8434 3.7263 0.8153 1.6348 2.2451 3.4701 4.6282 3.8275l0.6143 7.204s-0.0317 6.342-0.943 9.2166c-0.1843 0.5813 0.237 1.1707 0.8468 1.1706h1.9491c0.4895 0 0.8879-0.3939 0.8935-0.8834l0.4368-9.2245 0.7312-6.6456s-0.3909-4.4118 0.7818-6.0871"/><path d="m47.107 42.951s-0.9404 1.4675 1.153 6.7496c-0.8139 3.3558-1.8987 6.9806-4.4676 9.9404-0.3367 0.5956 0.2093 1.3403 0.8935 1.3403h1.3615c0.7774 0 1.4913-0.4289 1.8564-1.1152l0.8029-1.5095 2.4297-5.4235"/><path d="m62.429 27.251s4.9702-1.452 3.1832 14.576"/><path d="m40.502 26.698s5.665 4.3043 1.9983 14.304"/><path d="m37.091 43.832s2.5452-6.7005 0.4651-12.617"/><path d="m47.413 25.658s3.6699 5.5943 1.0033 10.511"/><path d="m24.988 40.824s2.8881-8.4483 0-13.948"/></g></svg>