<svg xmlns="http://www.w3.org/2000/svg" id="a" viewBox="0 0 72 72"><g id="b"><path fill="#9B9B9A" d="m13.588 35.586s-4.1667 5.1667-3.6667 8.3333l-2.8333 2.5v1.5s6.8333 2.8333 13.333 0.8333v2.5l0.1667 2.5 3.3333 1.3333s3.8333-0.6667 4.8333-6c0 0 4 1.5 5.6667 5.8333l4.6667-0.3333s0.6667-2.5-0.1667-4.1667l20.5-0.3333 2 1.8333v2l1 1.1667h2.1667l1.6667-1.8333-1.8333-6.5 1.5-4.6667s-17.333 10.5-41.333-3.1667l-1.8333-3.8333s-3.8333 0.6667-3.6667 1.6667c-1e-4 0-0.8334-2.6666-5.5001-1.1666z"/><path fill="#6A462F" d="m18.588 30.502-3.5 5.5s4.0833 0.1667 4 1.5833c-0.0833 1.4167 2.5 2.4167-0.4167 6.5833l2.1667 1 1.4167-1.0833 1.5833-3.5 0.75-1.6667s19.083 14.417 41.333 3.1667l1.5833-3-5-5-0.5833-2.1667-0.6667-2.8333-3.9167-0.75-3.5-4-7.9167-1.3333-4.25-1.5833-3.8333 2.75-3.8333-0.9167-4.1667 2.9167-1.9167 0.0833-3.4167-0.3333-2.25 4.8333-2.3333 0.0833-1.3332-0.3333z"/></g><g id="c" fill="none" stroke="#000" stroke-linecap="round" stroke-linejoin="round" stroke-miterlimit="10" stroke-width="2"><path d="m24.463 26.638c-0.856 2.25-1.8321 3.2941-2.6133 4.0861-0.5593 0.567-1.4467 0.6356-2.0742 0.1451l-1.1842-0.9257-3.4235 5.054c-0.4522 0.6675-1.2059 1.0673-2.0121 1.0673 0 0-2.6719 3.2711-3.6021 6.8056-0.2609 0.9913-0.8825 1.8494-1.7039 2.4625l-0.3813 0.2847s-2.3508 1.9617 0.455 2.8147c0 0 9.623 3.0391 14.956-1.2109"/><path d="m41.378 22.305s-1.8239 1.2266-3.1987 1.4888c-0.591 0.1127-1.1626 0.2298-1.7154 0.3508l-3.1685-0.6729c-1.5711 1.7948-3.7536 2.6499-5.291 3.3242"/><path d="m59.963 28.805c-1.9853 0-2.5489-0.1535-3.6695-1.0568-0.8687-0.7003-1.6041-1.5463-2.172-2.5068l-0.4085-0.6909c-2.6409 0-5.4664-0.3191-8.0477-0.7441"/><path d="m66.254 38.501c-3.0964-1.1547-3.5341-4.4159-4.5581-5.7359"/><path d="m20.818 51.746-0.2275 0.4726c-0.639 1.3278 0.3286 2.8673 1.8022 2.8673h1.6275c0.7345 0 1.41-0.4027 1.7593-1.0488l2.8454-5.2629s3.5011 1.4508 4.7542 5.0364c0.2731 0.7814 1.0483 1.2753 1.876 1.2753h2.0227c1.1869 0 2.121-1.028 1.9899-2.2077-0.1031-0.9279-0.2908-1.8895-0.633-2.3128 0 0 15.157 0.4371 20.008-0.6121 1.0237-0.2214 2.0438 0.3984 2.2698 1.4212 0.1096 0.4959 0.1747 1.0522 0.1418 1.6371-0.0641 1.1392 0.8536 2.0744 1.9946 2.0744h0.3886c1.1246 0 2.0006-0.7999 2.0742-1.842 0.1232-1.7442-0.0146-4.3923-1.5486-6.4315 0 0 1.1334-0.9919 1.1126-4.0873"/><path d="m19.211 37.218s2.1233-3.3264 4.0191-0.3412c1.2792 2.0143-0.3073 5.0412-1.4745 6.797-0.5543 0.8338-1.618 1.1557-2.5445 0.7763"/><line x1="27.421" x2="32.421" y1="34.597" y2="30.472"/><line x1="31.546" x2="37.546" y1="40.12" y2="38.062"/><line x1="36.921" x2="42.968" y1="32.765" y2="29.972"/><line x1="39.944" x2="46.796" y1="43.472" y2="42.725"/><line x1="48.796" x2="55.671" y1="36.633" y2="37.866"/><line x1="46.944" x2="52.398" y1="32.49" y2="29.987"/><line x1="53.04" x2="59.302" y1="43.769" y2="45.446"/></g></svg>