<?xml version="1.0" encoding="UTF-8"?>
<svg id="a" viewBox="0 0 72 72" xmlns="http://www.w3.org/2000/svg"><g id="b"><path d="m11.392 31.793a8.1054 8.1054 0 0 0 1.0984 3.4817 7.9042 7.9042 0 0 1 0.4561 6.7451 5.5677 5.5677 0 0 0-0.1055 5.21v7.27a2.5032 2.5032 0 0 0 2.5 2.501h3.1162a1 1 0 0 0 0.9991-0.9619c0.0107-0.2686 0.0664-2.669-1.1709-3.9551a2.599 2.599 0 0 0-0.9131-0.62v-3.624c1.1328-0.8155 3.9883-3.11 4.8955-6.0967a11.384 11.384 0 0 0 6.2558 1.97c4.5606 0 8.4033-3.9813 8.4336-4.2109 0.33-2.5035 1.3-3.3047 1.14-3.833-1.6938-5.5889-6.8241-11.658-9.5236-14.579l-2.4679 0.3068c-2.7059 0.7332-9.1059 2.7632-13.728 6.5881 0 0-0.986 1.0581-0.986 3.8078z" fill="#a57939"/><path d="M46.5793,38.987c.2176-.1511.4292-.2939.6252-.4206l.0056-.0055c.4334-.2823.856-.54,1.2473-.763v7.59a1,1,0,0,0,1.7071.707c3.3134-3.3135,5.957-4.1992,7.5918-4.3584a4.81,4.81,0,0,0,4.0927-3.1054l2.6582-7.1719a5.7884,5.7884,0,0,0-.7636-5.4531L61.2592,22.623a4.1907,4.1907,0,0,0-3.3662-1.705l-4.98-.003c-3.4981-4.3379-11.9616-10.7274-27.6589-2.6356a.9993.9993,0,0,0-.25,1.5947c.0772.0781,8.1247,8.6093,11.06,16.0722-.9991,2.5185-2.09,6.915.3652,10.5849,2.0889,3.1211,2.13,9.4991,2.13,9.5626a1,1,0,0,0,1,.998h8.583a1,1,0,0,0,1-1c0-2.5322-.5928-4.3594-1.7608-5.4316a3.5456,3.5456,0,0,0-1.59-.8545l-1.3477-4.4063a9.7222,9.7222,0,0,0,2.13-6.41l.0042-.0029" fill="#6a462f"/><path d="M26.4291,57H22.2162a1,1,0,0,1-.99-.8613c-.25-1.7891-.9229-4.63-1.6348-5.3418-1.4541-1.4541-2.0449-4.6328-2.1074-4.9912a.858.858,0,0,1,.2783-.8789A6.8691,6.8691,0,0,0,20.67,39.81a1,1,0,0,1,1.89-.0625,14.7308,14.7308,0,0,0,3.0224,1.44,1,1,0,0,1,.6514.9375c0,2.4385-1.9746,4.752-2.9522,5.748l1.459,3.4483a2.9848,2.9848,0,0,1,1.7051.9512,5.4017,5.4017,0,0,1,.9766,3.8427A.9994.9994,0,0,1,26.4291,57ZM22.6254,40.1025v0Z" fill="#6a462f"/><path d="M63.7436,26.0059,61.2592,22.623a4.1907,4.1907,0,0,0-3.3662-1.705l-5.4658-.003h-.001c-.0139,0-.0254.0074-.0393.008a1.1925,1.1925,0,0,0-.6914.32c-.0086.0093-.0208.013-.0291.0227a11.3506,11.3506,0,0,0-1.6044,2.8565,3.404,3.404,0,0,1-1.6966-1.7554,1.0135,1.0135,0,0,0-1.0166-.59,1,1,0,0,0-.875.7851c-.051.2351-1.0817,5.3088,2.081,7.7528a32.6211,32.6211,0,0,0-.0974,5.8476v9.2253a1,1,0,0,0,1.7071.707c3.3134-3.3135,5.957-4.1992,7.5918-4.3584a4.81,4.81,0,0,0,4.0927-3.1054l2.6582-7.1719A5.7884,5.7884,0,0,0,63.7436,26.0059Z" fill="#3f3f3f"/></g><g id="c" fill="none" stroke="#000" stroke-linecap="round" stroke-linejoin="round" stroke-width="2"><path d="M12.7288,33.3849a8.5288,8.5288,0,0,0,.634,1.4,8.9671,8.9671,0,0,1,.4782,7.6845,4.5549,4.5549,0,0,0,0,4.485V54.5A1.5005,1.5005,0,0,0,15.3415,56h3.116s.1438-3.7251-2.0851-3.7251V47.3138s5.1768-3.3074,5.1768-7.4057a10.6935,10.6935,0,0,0,6.9744,2.8041A8.92,8.92,0,0,0,32.79,41.4837"/><path d="M19.4154,48.73a4.78,4.78,0,0,0,.8825,1.36C21.57,51.3621,22.2166,56,22.2166,56h4.2128s.4348-3.7412-2.3784-3.7412l-1.9585-4.63S25.234,44.88,25.234,42.1253"/><path d="m27.597 22.052s-23.081 5.0896-18.978 18.978"/><path d="m49.458 36.154v9.2331c3.4941-3.4942 6.3579-4.4669 8.2011-4.6467a3.8288 3.8288 0 0 0 3.2526-2.4574l2.6588-7.1725a4.8041 4.8041 0 0 0-0.6324-4.5133l-2.4844-3.383a3.1777 3.1777 0 0 0-2.5612-1.2967l-5.4661-0.0027c-3.436-4.529-11.488-10.595-26.7-2.7541"/><path d="m38.133 33.979a15.277 15.277 0 0 0-0.9928 1.9787c-1.02 2.4154-2.1653 6.6 0.1209 10.017s2.299 10.118 2.299 10.118h5.4665c0.0041-3.7518-2.3121-3.8816-2.3121-3.8816l-1.8707-6.8232c0-3.2753 3.3023-6.0344 5.8175-7.6608"/><path d="m51.806 25.503a4.6449 4.6449 0 0 1-4.3549-2.731s-1.1809 5.5021 2.51 7.2536"/><path d="m44.965 56.092h3.1778c0-5.6393-3.1159-5.3716-3.1159-5.3716l-1.2792-5.6851"/></g></svg>
