<svg xmlns="http://www.w3.org/2000/svg" id="a" viewBox="0 0 72 72"><g id="b"><path id="c" fill="#fff" d="m23.842 42.51c22.03-12.565 24.21-0.1553 27.467-3.3092 0.9953-0.9637 8.6841-3.7561 8.6841-3.7561s-2.7489 23.3-12.589 24.917c-7.3779 1.2119-22.724 2.1761-28.036 0-9.18-3.7611-7.1649-16.346-5.3956-20.54 2.0552-4.8718 11.438-8.7859 9.3355-19.302-0.1854-0.9278-0.1975-2.0708-1.2787-2.53-1.5226-0.6471-4.48 3.2944-7.426 2.1242 0 0 3.7917-8.7431 6.9386-9.7333 4.5181-1.4216 7.8633 4.1879 8.3879 6.8218 1.1173 5.61-4.2908 14.013-4.7958 18.1-0.0273 0.2201-1.2925 7.2079-1.2925 7.2079z"/><path id="d" fill="#f4aa41" d="M17.7632,15.7092c-.135,1.2855,1.933,2.4762,2.1626,3.2628.2953,1.0119-4.1957.4178-4.1957.4178S17.873,14.6637,17.7632,15.7092Z"/></g><g id="e" fill="none" stroke="#000" stroke-linecap="round" stroke-linejoin="round" stroke-width="2"><path id="f" d="m27.199 41.088c3.045-0.91 8.4833-7.14 19.812-2.7989 8.2484 3.1606 12.983-2.8445 12.983-2.8445s-2.102 22.349-12.589 24.917c-7.2623 1.7782-22.724 2.1761-28.036 0-9.18-3.7611-8.2246-15.492-5.3956-20.54 2.911-5.1941 10.142-8.5786 10.268-19.302"/><path id="g" d="M23.77,43.5077c.71-12.0817,7.0657-20.416,6.1609-26.3062-.6954-4.5273-3.7741-7.76-8.2922-6.3379-3.1468.99-7.0343,9.2494-7.0343,9.2494,2.9462,1.17,7.426-2.1242,7.426-2.1242"/><path id="h" d="m49.612 44.31c-2.1331 3.4989-11.9 5.3058-16.652 5.4247"/></g></svg>