<svg xmlns="http://www.w3.org/2000/svg" id="a" viewBox="0 0 72 72"><g id="b"><path id="c" fill="#9b9b9a" d="M66.345,45.6765c2.0234.0968,1.1253-25.4583-15.5132-25.51C45.4029,20.15,34.7472,22.99,29.32,23.1375c-1.3974.038-4.4352.048-5.5315-.8195-.6186-.49-.2131-2.0038-1.8438-2.5609-1.1324-.3868-2.5413.9451-3.38,1.2805a23.09,23.09,0,0,0-8.2973,4.9681c-1.0957,1.0031-4.95,2.0035-4.8145,3.4828.1849,2.0187,7.2729,3.5853,7.2729,3.5853s7.0964,1.9422,9.1168,3.2779c3.1615,2.09,10.39,10.7109,10.1412,11.268-.1254.28-4.8936.3328-4.8145,2.8682.0543,1.7409,2.7658,1.7414,2.7658,1.7414h5.0193c.9442-.6272,1.3347-3.1729,1.4305-4.3023.0854-1.0068-1.5759-3.6953-.611-3.995,2.4779-.77,4.77.3993,10.6533.6146.8446.0309,0,3.38,0,3.38s-4.6731,1.5124-4.61,2.8682c.0672,1.4341,2.356,1.4341,2.356,1.4341h5.634s4.0166-7.5875,4.712-8.1949c2.6539-2.3175,4.9935-1.83,9.1168-4.5072C63.6362,39.5272,64.2135,45.5746,66.345,45.6765Z"/><path id="d" fill="#fff" d="m12.597 27.772c2.95-2.6329 12.813-4.2885 12.035-5.3581-2.488-3.4211-5.2288-1.764-6.0679-1.4286-2.2451 0.8973-5.8749 1.2566-8.2973 4.9682-0.8119 1.244-5.8456 2.4133-4.8145 3.4828 2.4693 2.5611 8.6828 3.1357 14.457 3.4639a60.57 60.57 0 0 1 13.016 2.354s-4.476-12.666-19.512-5.4328c-1.2083 0.5813-1.7108-1.2518-0.8171-2.0494z"/><path id="e" fill="#3f3f3f" d="M53.1224,51.7357l7.5048.4936s2.7368-3.1236,2.4876-5.7715c-.13-1.384-2.4173-5.7715-2.4173-5.7715l-4.49,1.5637,2.3011,4.3785-4.0365,1.9379Z"/><path id="f" fill="#3f3f3f" d="m24.828 51.205c-1.0614 1.5379-7.4582-0.4936-7.4582-0.4936l1.0783-3.0751 4.6564-1.4519 0.6847-9.0428s3.2307 2.6146 3.5553 3.8918c0.6451 2.5389-0.8181 7.7109-2.5165 10.172z"/></g><g id="g"><path id="h" fill="none" stroke="#000" stroke-linecap="round" stroke-linejoin="round" stroke-width="2" d="M66.6878,44.68c.9551-4.1388.7825-24.4613-15.856-24.5126C45.4029,20.15,34.7472,22.99,29.32,23.1375c-1.3974.038-4.4352.048-5.5315-.8195-.6186-.49-.2131-2.0038-1.8438-2.5609-1.1324-.3868-2.5413.9451-3.38,1.2805a23.3153,23.3153,0,0,0-8.2973,4.9681S5.4492,28.09,5.4527,29.4885c.0065,2.5891,7.2729,3.5853,7.2729,3.5853s7.0964,1.9422,9.1168,3.2779c3.1615,2.09,10.39,10.7109,10.1412,11.268-.1254.28-4.8936.3328-4.8145,2.8682.0543,1.7409,2.7658,1.7414,2.7658,1.7414h5.0193c.9442-.6272,1.3347-3.1729,1.4305-4.3023.0854-1.0068-1.5759-3.6953-.611-3.995,2.4779-.77,4.77.3993,10.6533.6146.8446.0309,0,3.38,0,3.38s-4.6731,1.5124-4.61,2.8682c.0672,1.4341,2.356,1.4341,2.356,1.4341h5.634s4.0166-7.5875,4.712-8.1949c2.6539-2.3175,4.9935-1.83,9.1168-4.5072"/><path id="i" fill="none" stroke="#000" stroke-linecap="round" stroke-linejoin="round" stroke-width="2" d="M55.8961,43.0439l3.2286,3.9687c-.6286.92-7.115.4826-6.0023,4.7231.1348.5136,1.5354.49,2.0664.492,1.0578.0036,4.2311,0,4.2311,0"/><path id="j" fill="none" stroke="#000" stroke-linecap="round" stroke-linejoin="round" stroke-width="2" d="M22.55,36.88s2.1119,7.22.8225,9.1084c-.6286.92-7.115.4826-6.0023,4.7231.1348.5136,1.5354.49,2.0664.492,1.0578.0036,4.2311,0,4.2311,0"/><path id="k" d="M7.9183,27.2494l.2742,4.7876c-.9434.379-3.314-2.3569-3.314-2.3569S7.03,26.853,7.9183,27.2494Z"/></g></svg>