<svg xmlns="http://www.w3.org/2000/svg" id="a" viewBox="0 0 72 72"><g id="b"><path fill="#a57939" d="M30.5206,30.6956c.8556.3943,1.7036,1.1046,2.45,3.1629"/><path fill="#a57939" d="M38.4792,38.4068a17.5846,17.5846,0,0,1-5.5482.86,3.33,3.33,0,0,1-2.1582-.8086c-.14-.1166-.2537-.21-.2836-.2311a9.7692,9.7692,0,0,1-2.2671-3.6693h0c-.3573-.7-.7263-2.6367-.0554-3.4371a1.967,1.967,0,0,1,2.3539-.425c.8556.3943,1.675.7294,2.4215,2.7877"/><path fill="#a57939" d="M20.5775,47.2816a17.5835,17.5835,0,0,0,3.5147-4.3782,3.3294,3.3294,0,0,0,.3767-2.2737c-.0311-.18-.0552-.3245-.0586-.3611a9.77,9.77,0,0,0-2.0477-3.7961h0c-.4281-.6589-1.9222-1.9456-2.9506-1.7638a1.9669,1.9669,0,0,0-1.5433,1.8275c-.0855.9382.1067,2.0276,1.5175,3.702"/><g fill="#6a462f"><ellipse cx="21.899" cy="29.17" rx="10.324" ry="8.514" transform="translate(-10.399 12.22) rotate(-25.413)"/><path d="m23.087 19.584a2.254 2.254 0 1 1 4.363 1.1022z"/><path d="m11.327 29.827a2.254 2.254 0 1 1 1.3326-4.2983z"/><path d="M62.4588,34.6236a2.3772,2.3772,0,0,0-1.2617-.2893l.1934-.4758a24.4589,24.4589,0,0,0-1.705-12.5578,4.2881,4.2881,0,0,0-3.57-2.1529,4.0869,4.0869,0,0,0-3.0907.91,4.3548,4.3548,0,0,0-1.6869,4.3913c.1626.7685,1.4726,5.2522,1.917,6.9218a2.5492,2.5492,0,0,0-.4658-.9673l-2.3575-2.9895a2.3717,2.3717,0,1,0-3.7047,2.9249,29.1457,29.1457,0,0,0,2.5241,2.3779c-4.375,1.7342-4.5891,4.5765-4.2728,6.2336-2.7986.3372-6.5353.1352-8.34-1.8727a15.8512,15.8512,0,0,0-5.7829-5.0272L16.933,37.9339l2.361,7.7682c3.1814,5.119,9.024,10.6091,24.8243,8.3766A18.0218,18.0218,0,0,0,56.376,45.9973l.8662-1.1787c.2078-.3356.8645-1.1355,1.2591-1.1253a3.4341,3.4341,0,0,0,2.7957-1.61l2.0439-3.6767A2.7536,2.7536,0,0,0,62.4588,34.6236ZM53.318,31.6114l-.0044.0022c-.0017-.0105-.0012-.02-.0031-.0307Z"/><path d="M63.3409,38.4068c-.1313.2364-.3156.5735-.4941.9Z"/><path d="m62.847 39.306-0.4111 0.7487c0.1043-0.1882 0.2557-0.4645 0.4111-0.7487z"/><path d="M50.4314,27.4141c.1479.1873.3587.4509.564.7077Z"/><path d="m50.995 28.122 0.4968 0.6233c-0.1241-0.1572-0.3082-0.3875-0.4968-0.6233z"/><path d="M54.0832,36.1775c-.083-.322-1.0457-5.4586-1.2943-5.7739l-2.3575-2.9895a2.3717,2.3717,0,1,0-3.7047,2.9249,29.1457,29.1457,0,0,0,2.5241,2.3779c-4.375,1.7342-4.5891,4.5765-4.2728,6.2336m8.34-7.3391-.0044.0022c-.0017-.0105-.0012-.02-.0031-.0307Z"/><path d="M63.3409,38.4068c-.1313.2364-.3156.5735-.4941.9Z"/><path d="m62.847 39.306-0.4111 0.7487c0.1043-0.1882 0.2557-0.4645 0.4111-0.7487z"/><path d="M50.4314,27.4141c.1479.1873.3587.4509.564.7077Z"/><path d="m50.995 28.122 0.4968 0.6233c-0.1241-0.1572-0.3082-0.3875-0.4968-0.6233z"/></g><polyline fill="#a57939" points="44.978 38.95 49.696 37.941 53.769 36.509"/></g><g id="c"><g fill="none" stroke="#000" stroke-linecap="round" stroke-miterlimit="10" stroke-width="2.079"><path d="M50.4313,27.4141l2.3576,2.9895A3.1084,3.1084,0,0,1,53.1581,33.3c-.1462.3259.2927,1.1534.5005,1.444l1.5433,2.9341"/><path d="m49.251 32.717c-4.3719 1.7329-4.591 4.5765-4.2757 6.234"/><path d="m50.431 27.414a2.3717 2.3717 0 1 0-3.7046 2.9249 29.163 29.163 0 0 0 2.5241 2.378"/><path d="M51.4922,28.7451c-.2593-.3284-.7772-.9717-1.0609-1.331"/></g><path fill="none" stroke="#000" stroke-miterlimit="10" stroke-width="2.079" d="M17.8515,37.7311q-.3114-.0795-.6129-.1785a8.9761,8.9761,0,0,1-1.03-.4092,7.4746,7.4746,0,0,1-3.6354-3.5429c-2.0178-4.247.5215-9.6735,5.6716-12.12s10.9609-.9875,12.9787,3.2595a7.6817,7.6817,0,0,1,.1171,6.1127"/><path fill="none" stroke="#000" stroke-miterlimit="10" stroke-width="2.079" d="m28.226 35.143a12.348 12.348 0 0 1-2.6732 1.7172 12.497 12.497 0 0 1-2.0086 0.7521"/><path fill="none" stroke="#000" stroke-miterlimit="10" stroke-width="2.079" d="m23.087 19.584a2.5318 2.5318 0 0 1 2.8527-2.1057 2.5318 2.5318 0 0 1 1.51 3.2079"/><path fill="none" stroke="#000" stroke-miterlimit="10" stroke-width="2.079" d="m11.327 29.827a2.4637 2.4637 0 0 1-1.8474-2.9285 2.4637 2.4637 0 0 1 3.18-1.37"/><path fill="none" stroke="#000" stroke-miterlimit="10" stroke-width="2.079" d="M48.0967,38.7479c-2.3193.7787-8.2338-.3219-11.4588-1.67,0,0-1.5714-.57-3.6671-3.2193"/><path fill="none" stroke="#000" stroke-miterlimit="10" stroke-width="2.079" d="m54.395 48.591a18.06 18.06 0 0 1-10.277 5.4875c-12.206 1.7247-17.602-0.699-21.626-4.4164a16.521 16.521 0 0 1-2.3359-2.6781 28.252 28.252 0 0 1-3.3387-10.046"/><path fill="none" stroke="#000" stroke-linecap="round" stroke-miterlimit="10" stroke-width="2.079" d="m53.318 31.612c-0.3679-1.4325-1.8094-6.3545-1.98-7.1624a4.3551 4.3551 0 0 1 1.6869-4.3914 4.0876 4.0876 0 0 1 3.0907-0.91 4.2885 4.2885 0 0 1 3.57 2.1529h0a24.458 24.458 0 0 1 1.705 12.558"/><path fill="none" stroke="#000" stroke-linecap="round" stroke-miterlimit="10" stroke-width="2.079" d="m54.395 48.591c0.695-0.8544 2.1121-2.6545 3.2123-4.3146"/><g fill="none" stroke="#000" stroke-linecap="round" stroke-miterlimit="10" stroke-width="2.079"><path d="M63.3409,38.4068,61.297,42.0836a3.4343,3.4343,0,0,1-2.7957,1.61c-.3946-.01-1.0513.79-1.2591,1.1252l-1.81,2.463"/><path d="M57.4317,39.4616c-5.3622-5.4962-9.335-.7137-9.335-.7137a4.53,4.53,0,0,0-.7979,2.75"/><path d="m57.432 39.462a32.24 32.24 0 0 1 1.3495-3.5862 2.62 2.62 0 1 1 4.56 2.5314"/><path d="M62.4357,40.0552c.2244-.4042.66-1.2061.9052-1.6484"/></g><path fill="none" stroke="#000" stroke-linecap="round" stroke-miterlimit="10" stroke-width="2.079" d="M32.9708,33.8585c-1.3922-1.5145-1.6012-2.9507-2.4568-3.345a2.2086,2.2086,0,0,0-2.4655.6538c-.6709.8-.1837,2.6906.1736,3.39h0a9.7692,9.7692,0,0,0,2.2671,3.6693c.03.0213.1434.1145.2836.2311a3.33,3.33,0,0,0,2.1582.8086"/><path fill="none" stroke="#000" stroke-linecap="round" stroke-miterlimit="10" stroke-width="2.079" d="M19.3862,39.9753c-1.4108-1.6743-1.603-2.7637-1.5175-3.7019a1.9669,1.9669,0,0,1,1.5433-1.8275c1.0284-.1818,2.5225,1.1049,2.9506,1.7638h0A9.77,9.77,0,0,1,24.41,40.0058c.0034.0366.0275.1814.0586.3611a3.3294,3.3294,0,0,1-.3767,2.2737,22.219,22.219,0,0,1-1.3,1.94"/><path d="M24.7733,29.0777h0a1.0411,1.0411,0,0,1,.1694,1.0933l-.677,1.3941a.8315.8315,0,0,1-.8857.4769l-1.2983-.1762a1.4475,1.4475,0,0,1-1.1577-1.1782.7255.7255,0,0,1,.4259-.7625l2.2389-1.1635A.9762.9762,0,0,1,24.7733,29.0777Z"/><circle cx="17.852" cy="28.745" r="1"/><circle cx="23.913" cy="25.391" r="1"/></g><g id="d"><path fill="#a57939" d="m44.445 44.628c-0.03 2.4345-7.8851 5.1128-12.038 3.2973-4.4271-1.9353-6.3237-6.284-5.1153-8.1263a1.9065 1.9065 0 0 1 2.985-0.3947 3.9137 3.9137 0 0 0 3.2617 0.7079s1.382 0.2874 2.1685 0.4875c4.6912 1.1929 8.765 1.8654 8.738 4.0283z"/></g></svg>