<svg xmlns="http://www.w3.org/2000/svg" id="a" viewBox="0 0 72 72"><g id="b" fill="none" stroke="#000" stroke-linecap="round" stroke-miterlimit="10" stroke-width="2"><line x1="41.84" x2="39.428" y1="16.692" y2="24.209"/><line x1="28.69" x2="31.158" y1="15.836" y2="23.836"/><line x1="17.149" x2="24.54" y1="23.052" y2="28.299"/><line x1="14.71" x2="22.605" y1="36.234" y2="36.205"/><line x1="18.412" x2="24.781" y1="48.696" y2="44.032"/><line x1="29.135" x2="32.047" y1="55.308" y2="47.291"/><line x1="42.285" x2="40.318" y1="56.164" y2="49.164"/><line x1="52.839" x2="46.935" y1="48.317" y2="43.701"/><line x1="57.765" x2="48.87" y1="35.766" y2="35.795"/><line x1="53.564" x2="46.194" y1="23.304" y2="28.468"/></g><g id="c"><path fill="#ea5a47" d="m50.488 36a15 15 0 1 1-15-15 15 15 0 0 1 15 15z"/><path fill="#d22f27" d="m45.298 24.67a16.986 16.986 0 0 1-14.81 25.33c-0.1382 0-0.2728-0.0143-0.41-0.0176a14.987 14.987 0 0 0 15.22-25.312z"/><g fill="none" stroke="#d22f27" stroke-linecap="round" stroke-miterlimit="10" stroke-width="2"><line x1="41.84" x2="39.428" y1="16.692" y2="24.209"/><line x1="28.69" x2="31.158" y1="15.836" y2="23.836"/><line x1="17.149" x2="24.54" y1="23.052" y2="28.299"/><line x1="14.71" x2="22.605" y1="36.234" y2="36.205"/><line x1="18.412" x2="24.781" y1="48.696" y2="44.032"/><line x1="29.135" x2="32.047" y1="55.308" y2="47.291"/><line x1="42.285" x2="40.318" y1="56.164" y2="49.164"/><line x1="52.839" x2="46.935" y1="48.317" y2="43.701"/><line x1="57.765" x2="48.87" y1="35.766" y2="35.795"/><line x1="53.564" x2="46.194" y1="23.304" y2="28.468"/></g></g><g id="d"><path fill="none" stroke="#000" stroke-linecap="round" stroke-linejoin="round" stroke-width="2" d="m50.488 36a15 15 0 1 1-15-15 15 15 0 0 1 15 15z"/><g fill="none" stroke="#000" stroke-linecap="round" stroke-linejoin="round" stroke-width="1.5"><polygon points="38.983 15.497 44.898 17.42 41.606 17.42"/><polygon points="30.592 14.628 25.97 15.954 28.804 16.115"/><polygon points="15.303 25.328 18.484 20.142 17.925 23.596"/><polygon points="13.933 38.166 13.958 34.101 15.149 36.134"/><polygon points="19.549 51.064 16.365 47.31 18.929 48.317"/><polygon points="31.612 57.008 25.697 55.086 29.153 55.319"/><polygon points="45.005 55.546 39.884 57.372 42.142 55.729"/><polygon points="54.382 46.814 51.702 50.5 52.529 48.075"/><polygon points="58.018 38.899 58.042 32.834 57.187 35.766"/><polygon points="52.016 20.787 55.465 25.415 53.163 23.582"/></g><circle cx="42.654" cy="32.49" r="1.25"/><circle cx="28.654" cy="29.49" r="1.25"/><circle cx="35.654" cy="28.49" r="1.25"/><circle cx="37.654" cy="44.49" r="1.25"/><circle cx="31.654" cy="34.74" r="2"/><circle cx="31.154" cy="41.74" r="2"/><circle cx="39.654" cy="37.74" r="3"/></g><g id="e" fill="none" stroke="#d22f27" stroke-linecap="round" stroke-miterlimit="10" stroke-width="2"><line x1="40.634" x2="39.428" y1="20.45" y2="24.209"/><line x1="29.598" x2="31.158" y1="18.782" y2="23.836"/><line x1="20.094" x2="24.54" y1="25.143" y2="28.299"/><line x1="17.989" x2="22.605" y1="36.234" y2="36.205"/><line x1="21.318" x2="24.781" y1="46.568" y2="44.032"/><line x1="30.226" x2="31.547" y1="52.304" y2="48.291"/><line x1="41.403" x2="40.318" y1="53.025" y2="49.164"/><line x1="50.206" x2="46.935" y1="46.258" y2="43.701"/><line x1="53.931" x2="48.87" y1="35.778" y2="35.795"/><line x1="50.552" x2="46.194" y1="25.415" y2="28.468"/></g></svg>