<?xml version="1.0" encoding="UTF-8"?>
<svg id="a" viewBox="0 0 72 72" xmlns="http://www.w3.org/2000/svg"><g id="b"><path d="M50.33,11.0293c.9038-.1443,1.4512.6169,1.2165,1.6916l-3.5293,16.16a2.0977,2.0977,0,0,1-2.3952,1.6L24.4888,26.6791a1.0892,1.0892,0,0,1-.7149-1.9125l.073-.0908a3.8035,3.8035,0,0,1,3.2275-1.2367l15.6617,2.5533a2.2561,2.2561,0,0,0,2.4857-1.6116L48.175,13.2251A3.0971,3.0971,0,0,1,50.33,11.0293Z" fill="#ea5a47"/><circle cx="40.893" cy="38.817" r="14.962" fill="#d0cfce"/><circle cx="22.52" cy="50.13" r="3.8971" fill="#d0cfce"/></g><g id="c" fill="none" stroke="#000" stroke-linecap="round" stroke-linejoin="round"><line x1="19.247" x2="13.941" y1="45.289" y2="45.289" stroke-width="2"/><line x1="51.759" x2="48.742" y1="11.748" y2="25.563" stroke-width="2"/><path d="m30.35 27.308-5.7455-0.9827a4.7949 4.7949 0 0 0-4.8664 3.41s-4.2077 9.749-2.3324 17.25" stroke-width="2"/><circle cx="40.893" cy="38.817" r="14.962" stroke-width="2"/><circle cx="22.52" cy="50.13" r="3.8971" stroke-width="1.6"/><line x1="17.182" x2="20.214" y1="43.032" y2="46.233" stroke-width="2"/></g></svg>
