<svg xmlns="http://www.w3.org/2000/svg" id="a" viewBox="0 0 72 72"><g id="b"><path id="c" fill="#fff" d="m56.846 18.796a11.642 11.642 0 0 0-10.55-5.0124c-4.808 0.5457-6.061 2.7647-10.357 3.1882-4.2963-0.4234-5.5494-2.6425-10.357-3.1882a11.642 11.642 0 0 0-10.55 5.0124c-2.7578 4.2124-2.1525 10.504 1.8126 15.319a6.0923 6.0923 0 0 1 1.4434 3.6257c0.2378 6.1213 1.402 23.342 6.9884 24.508 4.3092 0.8994 2.0308-19.696 10.663-19.43 8.6321-0.2667 6.3537 20.329 10.663 19.43 5.5865-1.166 6.7508-18.386 6.9885-24.508a6.0917 6.0917 0 0 1 1.4434-3.6257c3.9651-4.8143 4.5705-11.106 1.8126-15.319z"/><path id="d" fill="#d0cfce" d="m56.846 18.796c-1.2528-2.7956-12.475-7.6864-10.55-5.0124 3.06 4.2513 4.207 12.231 3.2562 20.922-0.8172 7.4687-5.476 23.878-5.476 23.878-0.3641 2.2321 0.97 4.2074 1.83 4.071 2.3756-0.3769 7.936-7.6133 7.6835-24.913a5.6745 5.6745 0 0 1 1.4434-3.6257 14.41 14.41 0 0 0 1.8129-15.319z"/></g><g id="e"><path id="f" fill="none" stroke="#000" stroke-miterlimit="10" stroke-width="2" d="m56.846 18.796a11.642 11.642 0 0 0-10.55-5.0124c-4.808 0.5457-6.061 2.7647-10.357 3.1882-4.2963-0.4234-5.5494-2.6425-10.357-3.1882a11.642 11.642 0 0 0-10.55 5.0124c-2.7578 4.2124-2.1525 10.504 1.8126 15.319a6.0923 6.0923 0 0 1 1.4434 3.6257c0.2378 6.1213 1.402 23.342 6.9884 24.508 4.3092 0.8994 2.0308-19.696 10.663-19.43 8.6321-0.2667 6.3537 20.329 10.663 19.43 5.5865-1.166 6.7508-18.386 6.9885-24.508a6.0917 6.0917 0 0 1 1.4434-3.6257c3.9651-4.8143 4.5705-11.106 1.8126-15.319z"/></g></svg>