<?xml version="1.0" encoding="UTF-8"?>
<svg id="a" version="1.1" viewBox="0 0 72 72" xmlns="http://www.w3.org/2000/svg"><g id="b"><path d="m26 38.096c-3 0-4-7-4-14 0-6 5-12 14-12s14 6 14 12c0 7-1 14-4 14" fill="#F4AA41"/></g><g id="c"><path d="m24.962 30.471c-0.1015 8.299 4.0635 14.525 11 14.525 7.0635 0 11.064-6.225 11.064-14.525 0-5.1875-3-10.375-3-10.375-8 0-10 3.1125-16 1.0375-1.8525 2.7489-2.9148 5.9869-3.0635 9.3376z" fill="#FCEA2B"/></g><g id="d"><path d="m35.994 45c-2.7523 0-5.2888-1.2704-7.2341-3.4094l-15.368-0.0076c1.694 2.6777 4.6436 8.9425 5.1442 10.79h34.929c0.4994-1.8426 3.4345-8.0783 5.1306-10.768l-15.373-0.0076c-1.9446 2.1351-4.4793 3.4022-7.2289 3.4022z" fill="#3F3F3F"/><path d="m36 32.706c-0.4906 0.9134-2.9358 2.556-5.8905 2.566-2.4937 0.0084-5.3503-1.146-7.7007-4.8833-0.8499-1.3361-2.4223-5.0381-2.4223-8.0675 1.9916 6.7499 6.304 3.5056 10.637 3.5306 1.848 0.0107 3.6998 0.6161 5.3767 2.8456 1.6769-2.2294 3.5286-2.8349 5.3767-2.8456 4.3328-0.025 8.6452 3.2193 10.637-3.5306 0 3.0294-1.5724 6.7314-2.4223 8.0675-2.3504 3.7372-5.207 4.8917-7.7007 4.8833-2.9547-0.01-5.3999-1.6526-5.8905-2.566z" fill="#5C9E31"/><path d="m17 61v-4c0-4.9941 5.0078-9 10-9 6 5 12 5 18 0 4.9941 0 10 4.0059 10 9v4" fill="#B1CC33"/><path d="m47.392 61c-0.2717-1.0124-0.6203-3.1588-1.0429-4.118-1.0368-2.3375-2.4915-4.4662-4.2926-6.2814h-12.113c-1.8011 1.8152-3.2558 3.9439-4.2926 6.2814-0.4226 0.9592-0.7712 3.1056-1.0429 4.118" fill="#3F3F3F"/></g><g id="e"><path d="m39 38.973c-1.875-1-4.125-1-6 0" fill="none" stroke="#000" stroke-linecap="round" stroke-linejoin="round" stroke-width="2"/><path d="m42 29.973c0 1.1046-0.8954 2-2 2s-2-0.8954-2-2 0.8954-2 2-2 2 0.8954 2 2"/><path d="m34 29.973c0 1.1046-0.8954 2-2 2s-2-0.8954-2-2 0.8954-2 2-2 2 0.8954 2 2"/><path d="m28.43 41.605-15.038-0.0224c1.694 2.6777 4.6436 8.9425 5.1442 10.79" fill="none" stroke="#000" stroke-linecap="round" stroke-linejoin="round" stroke-width="2"/><path d="m20.55 53.667c1.0817-1.4077 2.4649-2.5554 4.048-3.3589 1.0422-0.5249 2.1568-0.8916 3.3071-1.088" fill="none" stroke="#000" stroke-linecap="round" stroke-miterlimit="10" stroke-width="2"/><path d="m29.208 49.707c-3.4125 1.1596-5.9768 4.0098-6.7705 7.5255" fill="none" stroke="#000" stroke-linecap="round" stroke-miterlimit="10" stroke-width="2"/><path d="m29.944 50.601c-1.8011 1.8152-3.2558 3.9439-4.2926 6.2814-0.4226 0.9592-0.7712 2.1056-1.0429 3.118" fill="none" stroke="#000" stroke-linecap="round" stroke-miterlimit="10" stroke-width="2"/><path d="m46.53 26.554c-0.8517-3.5967-2.5042-6.4587-2.5042-6.4587-8 0-10 3.1125-16 1.0375-1.1138 1.6528-1.9359 3.4845-2.4515 5.4092" fill="none" stroke="#000" stroke-linecap="round" stroke-linejoin="round" stroke-width="2"/><path d="m25.125 33.5c0.8301 6.7393 4.7748 11.496 10.838 11.496 6.1623 0 9.9912-4.7392 10.868-11.459" fill="none" stroke="#000" stroke-linecap="round" stroke-linejoin="round" stroke-width="2"/><path d="m17 60v-3c0-4.9941 5.0078-9 10-9 6 5 12 5 18 0 4.9941 0 10 4.0059 10 9v3" fill="none" stroke="#000" stroke-linecap="round" stroke-linejoin="round" stroke-width="2"/><path d="m53.465 52.373c0.5006-1.8474 3.4502-8.1122 5.1442-10.79l-15.068 0.0224" fill="none" stroke="#000" stroke-linecap="round" stroke-linejoin="round" stroke-width="2"/><path d="m44.095 49.22c1.1503 0.1964 2.2649 0.5631 3.3071 1.088 1.5831 0.8035 2.9663 1.9512 4.048 3.3589" fill="none" stroke="#000" stroke-linecap="round" stroke-miterlimit="10" stroke-width="2"/><path d="m49.562 57.232c-0.7937-3.5157-3.358-6.3659-6.7705-7.5255" fill="none" stroke="#000" stroke-linecap="round" stroke-miterlimit="10" stroke-width="2"/><path d="m47.392 60c-0.2717-1.0124-0.6203-2.1588-1.0429-3.118-1.0368-2.3375-2.4915-4.4662-4.2926-6.2814" fill="none" stroke="#000" stroke-linecap="round" stroke-miterlimit="10" stroke-width="2"/><path d="m36 32.706c-0.4906 0.9134-2.9358 2.556-5.8905 2.566-2.4937 0.0084-5.3503-1.146-7.7007-4.8833-0.8499-1.3361-2.4223-5.0381-2.4223-8.0675 1.9916 6.7499 6.304 3.5056 10.637 3.5306 1.848 0.0107 3.6998 0.6161 5.3767 2.8456 1.6769-2.2294 3.5286-2.8349 5.3767-2.8456 4.3328-0.025 8.6452 3.2193 10.637-3.5306 0 3.0294-1.5724 6.7314-2.4223 8.0675-2.3504 3.7372-5.207 4.8917-7.7007 4.8833-2.9547-0.01-5.3999-1.6526-5.8905-2.566z" fill="none" stroke="#000" stroke-linejoin="round" stroke-width="2"/><path d="m46 38.096c2.1009 0 3.2185-3.4368 3.7012-7.8987-0.0357 0.06-0.0764 0.1387-0.11 0.1915" fill="none" stroke="#000" stroke-linecap="round" stroke-linejoin="round" stroke-width="2"/><path d="m22.409 30.389c-0.0336-0.0528-0.0743-0.1315-0.11-0.1915 0.4827 4.4619 1.6003 7.8987 3.7012 7.8987" fill="none" stroke="#000" stroke-linecap="round" stroke-linejoin="round" stroke-width="2"/><path d="M49.9761,25.8292 C49.9904,25.2535,50,24.6755,50,24.0959c0-6-5-12-14-12s-14,6-14,12c0,0.5797,0.0096,1.1577,0.0239,1.7333" fill="none" stroke="#000" stroke-linecap="round" stroke-linejoin="round" stroke-width="2"/></g></svg>
