<?xml version="1.0" encoding="UTF-8"?>
<svg id="a" viewBox="0 0 72 72" xmlns="http://www.w3.org/2000/svg"><g id="b"><g id="c"><path d="m26.296 38.096c-3 0-4-7-4-14 0-6 5-12 14-12s14 6 14 12c0 7-1 14-4 14" fill="#fcea2b"/></g></g><g id="d"><g id="e"><path d="m25.233 31.096c-0.1015 7.999 4.0635 14 11 14 7.0635 0 11.064-6 11.064-14 0-5-3-10-3-10-8 0-10 3-16 1a17.077 17.077 0 0 0-3.0635 9z" fill="#debb90"/></g></g><g id="f"><path d="m17.029 60.893v-3.8326c0-4.9941 5.0078-9 10-9q9 7.5 18 0c4.9941 0 10 4.0059 10 9v3.8331z" fill="#3f3f3f"/><path d="m47.078 60.893c-1.1319-3.474-2.9781-7.8938-5.4473-9.6662h-10.873c-2.4777 1.7567-4.33 6.1827-5.4667 9.6662z" fill="#ea5a47"/><path d="M41.2586,60.9583q.7149-1.393,1.43-2.786a2.8829,2.8829,0,0,1-1.5426-.7185,2.2708,2.2708,0,0,1-.7046-1.3286h-4.46q-.0018,1.47-.0035,2.94-.0018-1.47-.0036-2.94h-4.46a2.2435,2.2435,0,0,1-.1818.6085,2.3262,2.3262,0,0,1-.5228.72,2.8089,2.8089,0,0,1-1.497.7118q.7586,1.3963,1.5172,2.7927Z" fill="#fcea2b"/><path d="M25.2955,29.3308a6.47,6.47,0,0,0,3.8171-1.1031c1.4077-1.1888,3.11-2.1743,5.5654-.3989a3.1567,3.1567,0,0,0,1.5278.6005,3.1567,3.1567,0,0,0,1.5277-.6005c2.4553-1.7754,4.1577-.79,5.5654.3989a6.47,6.47,0,0,0,3.8171,1.1031l-.0727,1.53a6.47,6.47,0,0,0-3.8171,1.1031c-1.4078,1.1888-3.11,2.1743-5.5655.3989a3.1562,3.1562,0,0,0-1.5277-.6005,3.1572,3.1572,0,0,0-1.5278.6005c-2.4553,1.7754-4.1577.79-5.5654-.3989a6.47,6.47,0,0,0-3.8171-1.1031Z" fill="#ea5a47"/></g><g id="g"><path d="m42.169 30.096a2 2 0 1 1-2-2 2 2 0 0 1 2 2"/><path d="m34.169 30.096a2 2 0 1 1-2-2 2 2 0 0 1 2 2"/><path d="m33.169 38.346a8.2737 8.2737 0 0 0 6 0" fill="none" stroke="#000" stroke-linecap="round" stroke-linejoin="round" stroke-width="2"/><path d="m26.296 38.096c-3 0-4-7-4-14 0-6 5-12 14-12s14 6 14 12c0 7-1 14-4 14" fill="none" stroke="#000" stroke-linecap="round" stroke-linejoin="round" stroke-width="2"/><path d="m25.233 31.096c-0.1015 7.999 4.9365 14 11 14 5.9365 0 11.064-6 11.064-14 0-5-3-11-3-11-8 0-10 3-16 1 0 0-3 5-3.0635 10z" fill="none" stroke="#000" stroke-linejoin="round" stroke-width="2"/><path d="m33.169 38.346a8.2737 8.2737 0 0 0 6 0" fill="none" stroke="#000" stroke-linecap="round" stroke-linejoin="round" stroke-width="2"/><path d="m42.169 30.096a2 2 0 1 1-2-2 2 2 0 0 1 2 2"/><path d="m34.169 30.096a2 2 0 1 1-2-2 2 2 0 0 1 2 2"/><path d="m20.587 53.601a11.896 11.896 0 0 1 4.048-3.3589 11.752 11.752 0 0 1 3.3071-1.088" fill="none" stroke="#000" stroke-linecap="round" stroke-miterlimit="10" stroke-width="2"/><path d="m29.246 49.641a10.357 10.357 0 0 0-6.7707 7.5255" fill="none" stroke="#000" stroke-linecap="round" stroke-miterlimit="10" stroke-width="2"/><path d="m51.677 53.845a11.896 11.896 0 0 0-4.048-3.3589 11.752 11.752 0 0 0-3.3071-1.088" fill="none" stroke="#000" stroke-linecap="round" stroke-miterlimit="10" stroke-width="2"/><path d="m43.018 49.884a10.358 10.358 0 0 1 6.7708 7.5259" fill="none" stroke="#000" stroke-linecap="round" stroke-miterlimit="10" stroke-width="2"/><path d="m29.979 50.583a21.015 21.015 0 0 0-4.2927 6.2814 20.571 20.571 0 0 0-1.0428 2.9617" fill="none" stroke="#000" stroke-linecap="round" stroke-miterlimit="10" stroke-width="2"/><path d="m16.971 59.936v-3c0-4.9941 5.0078-9 10-9q9 7.5 18 0c4.9941 0 10 4.0059 10 9v3" fill="none" stroke="#000" stroke-linecap="round" stroke-linejoin="round" stroke-width="2"/><path d="m42.392 50.583a26.435 26.435 0 0 1 4.19 6.3125 26.104 26.104 0 0 1 1.1949 2.9984" fill="none" stroke="#000" stroke-linecap="round" stroke-miterlimit="10" stroke-width="2"/><path d="M31.1426,59.4463l-1.0271-1.8947a2.36,2.36,0,0,0,1.9771-2.0472h7.8545a2.36,2.36,0,0,0,1.9771,2.0472c-.0276.0508-.9674,1.7846-.9949,1.8353" fill="none" stroke="#000" stroke-linecap="round" stroke-linejoin="round" stroke-width="2"/><path d="M25.2955,29.3308a6.47,6.47,0,0,0,3.8171-1.1031c1.4077-1.1888,3.11-2.1743,5.5654-.3989a3.1567,3.1567,0,0,0,1.5278.6005,3.1567,3.1567,0,0,0,1.5277-.6005c2.4553-1.7754,4.1577-.79,5.5654.3989a6.47,6.47,0,0,0,3.8171,1.1031l-.0727,1.53a6.47,6.47,0,0,0-3.8171,1.1031c-1.4078,1.1888-3.11,2.1743-5.5655.3989a3.1562,3.1562,0,0,0-1.5277-.6005,3.1572,3.1572,0,0,0-1.5278.6005c-2.4553,1.7754-4.1577.79-5.5654-.3989a6.47,6.47,0,0,0-3.8171-1.1031Z" fill="none" stroke="#000" stroke-linejoin="round" stroke-width="2"/></g></svg>
