<svg xmlns="http://www.w3.org/2000/svg" id="a" viewBox="0 0 72 72"><g id="b"><path fill="#fcea2b" d="m26.3 38.1c-3 0-4-7-4-14 0-6 5-12 14-12s14 6 14 12c0 7-1 14-4 14"/></g><g id="c"><path fill="#debb90" d="m25.2 31.1c-0.1 8 4.1 14 11 14 7.1 0 11.1-6 11.1-14 0-5-7.7-12.8-7.7-12.8-5.1 2.9-7.4 5.6-13.5 6.9-1.8 2.6-0.7 2.7-0.9 5.9z"/></g><g id="d"><path fill="#3f3f3f" d="m17 60.9v-3.8c0-5 5-9 10-9q9 7.5 18 0c5 0 10 4 10 9v3.8z"/><path fill="#ea5a47" d="M47.1,60.9c-1.1-3.5-3-7.9-5.4-9.7H30.8c-2.5,1.8-4.3,6.2-5.5,9.7Z"/><path fill="#fcea2b" d="M41.3,61c.5-.9,1-1.9,1.4-2.8a2.6278,2.6278,0,0,1-1.5-.7,2.0911,2.0911,0,0,1-.7-1.3H36v0H31.5a1.4213,1.4213,0,0,1-.2.6,1.7937,1.7937,0,0,1-.5.7,2.6278,2.6278,0,0,1-1.5.7c.5.9,1,1.9,1.5,2.8Z"/><path fill="#ea5a47" d="M25.3,29.3a6.2826,6.2826,0,0,0,3.8-1.1c1.4-1.2,3.1-2.2,5.6-.4a3.9457,3.9457,0,0,0,1.5.6,3.3865,3.3865,0,0,0,1.5-.6c2.5-1.8,4.2-.8,5.6.4a6.4847,6.4847,0,0,0,3.8,1.1L47,30.9A6.2826,6.2826,0,0,0,43.2,32c-1.4,1.2-3.1,2.2-5.6.4a3.9457,3.9457,0,0,0-1.5-.6,3.3865,3.3865,0,0,0-1.5.6c-2.5,1.8-4.2.8-5.6-.4a6.4847,6.4847,0,0,0-3.8-1.1Z"/><path fill="#3f3f3f" stroke-linecap="round" stroke-miterlimit="10" stroke-width="2" d="m29.2 49.6a10.493 10.493 0 0 0-6.8 7.5"/><path fill="#3f3f3f" stroke-linecap="round" stroke-miterlimit="10" stroke-width="2" d="m43 49.9a10.493 10.493 0 0 1 6.8 7.5"/></g><g id="e"><path fill="none" stroke="#000" stroke-linecap="round" stroke-miterlimit="10" stroke-width="2" d="m20.6 53.6a12.959 12.959 0 0 1 4-3.4 12.814 12.814 0 0 1 3.3-1.1"/><path fill="none" stroke="#000" stroke-linecap="round" stroke-miterlimit="10" stroke-width="2" d="m29.2 49.6a10.493 10.493 0 0 0-6.8 7.5"/><path fill="none" stroke="#000" stroke-linecap="round" stroke-miterlimit="10" stroke-width="2" d="m51.7 53.8a12.959 12.959 0 0 0-4-3.4 12.814 12.814 0 0 0-3.3-1.1"/><path fill="none" stroke="#000" stroke-linecap="round" stroke-miterlimit="10" stroke-width="2" d="m43 49.9a10.493 10.493 0 0 1 6.8 7.5"/><path fill="none" stroke="#000" stroke-linecap="round" stroke-miterlimit="10" stroke-width="2" d="m30 50.6a19.6 19.6 0 0 0-4.3 6.3 15.099 15.099 0 0 0-1 3"/><path fill="none" stroke="#000" stroke-linecap="round" stroke-linejoin="round" stroke-width="2" d="m17 59.9v-3c0-5 5-9 10-9q9 7.5 18 0c5 0 10 4 10 9v3"/><path fill="none" stroke="#000" stroke-linecap="round" stroke-miterlimit="10" stroke-width="2" d="m42.4 50.6a26.636 26.636 0 0 1 4.2 6.3 18.77 18.77 0 0 1 1.2 3"/><path fill="none" stroke="#000" stroke-linecap="round" stroke-linejoin="round" stroke-width="2" d="M31.1,59.4l-1-1.9a2.5692,2.5692,0,0,0,2-2H40a2.2362,2.2362,0,0,0,2,2c0,.1-1,1.8-1,1.8"/><path fill="none" stroke="#000" stroke-linejoin="round" stroke-width="2" d="M25.3,29.3a6.2826,6.2826,0,0,0,3.8-1.1c1.4-1.2,3.1-2.2,5.6-.4a3.9457,3.9457,0,0,0,1.5.6,3.3865,3.3865,0,0,0,1.5-.6c2.5-1.8,4.2-.8,5.6.4a6.4847,6.4847,0,0,0,3.8,1.1L47,30.9A6.2826,6.2826,0,0,0,43.2,32c-1.4,1.2-3.1,2.2-5.6.4a3.9457,3.9457,0,0,0-1.5-.6,3.3865,3.3865,0,0,0-1.5.6c-2.5,1.8-4.2.8-5.6-.4a6.4847,6.4847,0,0,0-3.8-1.1Z"/><path fill="none" stroke="#000" stroke-linecap="round" stroke-linejoin="round" stroke-width="2" d="m26.3 39.1c-4 0-4-6-4-13s4-14 14-14 14 7 14 14 0 13-4 13"/><path d="m42.2 30.1a2 2 0 1 1-2-2 2.0059 2.0059 0 0 1 2 2"/><path d="m34.2 30.1a2 2 0 1 1-2-2 2.0059 2.0059 0 0 1 2 2"/><path fill="none" stroke="#000" stroke-linejoin="round" stroke-width="2" d="m25.2 31.1c0 9 4.9 14 11 14 5.9 0 11.1-5 11.1-14a12.133 12.133 0 0 0-1-5c-3-3-7-8-7-8-4 3-7 6-13 7 0 0-1.1 1-1.1 6z"/><path fill="none" stroke="#000" stroke-linecap="round" stroke-linejoin="round" stroke-width="2" d="m33.3 38.1a6.6712 6.6712 0 0 0 6 0"/></g></svg>