<svg xmlns="http://www.w3.org/2000/svg" id="a" viewBox="0 0 72 72"><g id="b"><path fill="#fcea2b" d="M38,13s2,18,2,23c0,4.1231-2.1716,7.5858-5,9-4,2-14,7-19,7H12.6a4.8944,4.8944,0,0,0-.6,2.5A3.5,3.5,0,0,0,15.5,58H49a5,5,0,0,0,5-5c0-6-3-11-3-17s3-23,3-23V12H38Z"/></g><g id="c"><path fill="#f1b31c" d="M45.5,58H49a5,5,0,0,0,5-5c0-6-3-11-3-17s3-23,3-23V12H50s-3,17-3,23,3,11,3,17a5,5,0,0,1-5,5Z"/></g><g id="d" fill="none" stroke="#000" stroke-linecap="round" stroke-width="2"><path stroke-linejoin="round" d="M38,13s2,18,2,23c0,4.1231-2.1716,7.5858-5,9-4,2-14,7-19,7H12.6a4.8944,4.8944,0,0,0-.6,2.5A3.5,3.5,0,0,0,15.5,58H49a5,5,0,0,0,5-5c0-6-3-11-3-17s3-23,3-23"/><path stroke-miterlimit="10" d="m48 47a4 4 0 0 1-4 4"/></g></svg>