<?xml version="1.0" encoding="UTF-8"?>
<svg id="a" viewBox="0 0 72 72" xmlns="http://www.w3.org/2000/svg"><g id="b"><path d="m18.265 47.408a24.047 24.047 0 0 0 3.6331 2.7193 10.465 10.465 0 0 1 5.361-2.09c6.209 5.0127 12.495 5.0127 18.7 0a8.343 8.343 0 0 1 4.2087 1.5136 22.784 22.784 0 0 0 2.972-2.33c1.1884-0.7148 3.125-8.2822 0.3916-13.025a23.732 23.732 0 0 1-1.1573-2.6328c-1.4726-3.27-2.0234-4.4927-2.3486-10.524 0.0273-3.6929-3.794-6.7842-7.4746-7.0928a1.0016 1.0016 0 0 1-0.6885-0.3433c-0.0928-0.1-2.4082-2.6547-7.2432-2.6547-6.2 0-11.441 3.3818-12.743 8.226a18.518 18.518 0 0 0-0.5645 6.1758 13.317 13.317 0 0 1-0.7607 5.9609 6.8034 6.8034 0 0 1-1.1192 2.0879c-3.772 4.4196-0.9745 14.302-1.1668 14.009z" fill="#fcea2b"/></g><g id="c"><path d="m25.685 29.514v0.957c0 7.6494 4.6093 13.643 10.494 13.643s10.494-5.9935 10.494-13.643c0-4.6533-1.7784-7.5151-5.2842-11.134a64.146 64.146 0 0 1-8.9883 5.772c-2.6465 1.5142-6.2549 3.5693-6.7158 4.4053z" fill="#debb90"/></g><g id="d"><path d="m17.029 60.893v-3.8326c0-4.9941 5.0078-9 10-9q9 7.5 18 0c4.9941 0 10 4.0059 10 9v3.8331z" fill="#3f3f3f"/><path d="m47.078 60.893c-1.1319-3.474-2.9781-7.8938-5.4473-9.6662h-10.873c-2.4777 1.7567-4.33 6.1827-5.4667 9.6662z" fill="#ea5a47"/><path d="M41.2388,60.8926l1.43-2.786a2.8838,2.8838,0,0,1-1.5426-.7186,2.27,2.27,0,0,1-.7046-1.3286h-4.46L35.9574,59q-.0017-1.47-.0036-2.94h-4.46a2.243,2.243,0,0,1-.1818.6086,2.3254,2.3254,0,0,1-.5228.72,2.8084,2.8084,0,0,1-1.4971.7119l1.5173,2.7927Z" fill="#fcea2b"/><path d="M25.1261,29.2078a6.47,6.47,0,0,0,3.8171-1.1031c1.4077-1.1888,3.11-2.1743,5.5654-.3989a3.1567,3.1567,0,0,0,1.5278.6005,3.1567,3.1567,0,0,0,1.5277-.6005c2.4554-1.7754,4.1577-.79,5.5655.3989a6.47,6.47,0,0,0,3.8171,1.1031l-.0728,1.53a6.47,6.47,0,0,0-3.8171,1.1031c-1.4077,1.1888-3.11,2.1743-5.5654.3989a3.1567,3.1567,0,0,0-1.5278-.6005,3.1567,3.1567,0,0,0-1.5277.6005c-2.4554,1.7754-4.1577.79-5.5655-.3989a6.47,6.47,0,0,0-3.8171-1.1031Z" fill="#ea5a47"/></g><g id="e"><path d="m18.931 46.698c-3.7227-5.8565-0.628-10.08 1.18-14.725 1.6357-4.2-0.209-6.4512 1.291-12.034 1.4795-5.5 7.2773-8.9658 13.709-8.9658 5.4 0 8 3 8 3a8.1321 8.1321 0 0 1 7.4049 8.0371c0.3867 7.18 1.0244 7.1523 3.4287 12.822a11.599 11.599 0 0 1-1.4463 11.663" fill="none" stroke="#000" stroke-linecap="round" stroke-linejoin="round" stroke-width="2"/><path d="m33.111 38.223a6.375 6.375 0 0 0 6 0" fill="none" stroke="#000" stroke-linecap="round" stroke-linejoin="round" stroke-width="2"/><path d="m25.111 30.973c0 8 5 14 11 14s11-6 11-14c0-5-2-8-6-12-4 4-16 9-16 11z" fill="none" stroke="#000" stroke-linejoin="round" stroke-width="2"/><path d="m42.111 29.973a2 2 0 1 1-2-2 2 2 0 0 1 2 2"/><path d="m34.111 29.973a2 2 0 1 1-2-2 2 2 0 0 1 2 2"/><path d="m20.587 53.601a11.896 11.896 0 0 1 4.048-3.3589 11.752 11.752 0 0 1 3.3071-1.088" fill="none" stroke="#000" stroke-linecap="round" stroke-miterlimit="10" stroke-width="2"/><path d="m29.246 49.641a10.357 10.357 0 0 0-6.7707 7.5255" fill="none" stroke="#000" stroke-linecap="round" stroke-miterlimit="10" stroke-width="2"/><path d="m51.677 53.845a11.896 11.896 0 0 0-4.048-3.3589 11.752 11.752 0 0 0-3.3071-1.088" fill="none" stroke="#000" stroke-linecap="round" stroke-miterlimit="10" stroke-width="2"/><path d="m43.018 49.884a10.358 10.358 0 0 1 6.7708 7.5259" fill="none" stroke="#000" stroke-linecap="round" stroke-miterlimit="10" stroke-width="2"/><path d="m29.979 50.583a21.015 21.015 0 0 0-4.2927 6.2814 20.571 20.571 0 0 0-1.0428 2.9617" fill="none" stroke="#000" stroke-linecap="round" stroke-miterlimit="10" stroke-width="2"/><path d="m16.971 59.936v-3c0-4.9941 5.0078-9 10-9q9 7.5 18 0c4.9941 0 10 4.0059 10 9v3" fill="none" stroke="#000" stroke-linecap="round" stroke-linejoin="round" stroke-width="2"/><path d="m42.392 50.583a26.435 26.435 0 0 1 4.19 6.3125 26.104 26.104 0 0 1 1.1949 2.9984" fill="none" stroke="#000" stroke-linecap="round" stroke-miterlimit="10" stroke-width="2"/><path d="m31.123 59.381-1.027-1.8948a2.36 2.36 0 0 0 1.9771-2.0471h7.8545a2.36 2.36 0 0 0 1.9771 2.0471l-0.9944 1.8354" fill="none" stroke="#000" stroke-linecap="round" stroke-linejoin="round" stroke-width="2"/><path d="M25.1261,29.2078a6.47,6.47,0,0,0,3.8171-1.1031c1.4077-1.1888,3.11-2.1743,5.5654-.3989a3.1567,3.1567,0,0,0,1.5278.6005,3.1567,3.1567,0,0,0,1.5277-.6005c2.4554-1.7754,4.1577-.79,5.5655.3989a6.47,6.47,0,0,0,3.8171,1.1031l-.0728,1.53a6.47,6.47,0,0,0-3.8171,1.1031c-1.4077,1.1888-3.11,2.1743-5.5654.3989a3.1567,3.1567,0,0,0-1.5278-.6005,3.1567,3.1567,0,0,0-1.5277.6005c-2.4554,1.7754-4.1577.79-5.5655-.3989a6.47,6.47,0,0,0-3.8171-1.1031Z" fill="none" stroke="#000" stroke-linejoin="round" stroke-width="2"/></g></svg>
