<svg xmlns="http://www.w3.org/2000/svg" id="a" viewBox="0 0 72 72"><g id="b"><line x1="17.534" x2="49.178" y1="26.878" y2="38.01" fill="none" stroke="#000" stroke-linecap="round" stroke-linejoin="round" stroke-width="2"/><line x1="32.361" x2="58.893" y1="24.15" y2="33.483" fill="none" stroke="#000" stroke-linecap="round" stroke-linejoin="round" stroke-width="2"/><line x1="22.674" x2="54.154" y1="25.364" y2="36.515" fill="none" stroke="#000" stroke-linecap="round" stroke-linejoin="round" stroke-width="2"/><line x1="12.697" x2="38.419" y1="30.188" y2="39.236" fill="none" stroke="#000" stroke-linecap="round" stroke-linejoin="round" stroke-width="2"/><line x1="51.864" x2="19.949" y1="26.058" y2="37.285" fill="none" stroke="#000" stroke-linecap="round" stroke-linejoin="round" stroke-width="2"/><line x1="41.163" x2="13.761" y1="24.716" y2="34.356" fill="none" stroke="#000" stroke-linecap="round" stroke-linejoin="round" stroke-width="2"/><line x1="57.972" x2="29.363" y1="28.92" y2="38.984" fill="none" stroke="#000" stroke-linecap="round" stroke-linejoin="round" stroke-width="2"/><path d="M41.1875,29.7323c-2.4421-1.3366-4.6916-2.63-8.0178-1.3488-2.4131.93-3.365,1.8461-3.4348,2.6691l-.0115,0,.0027.093c0,.0194.0007.0387.0017.0581l.0264.9179c-.4688,2.0237,4.5068,3.5277,6.9087,3.351,1.1667-.0859,5.0561-1.6,5.31-3.1837v-1.35A1.3972,1.3972,0,0,0,41.1875,29.7323Z"/><path d="m33.164 28.384c3.3262-1.2815 5.5758 0.0122 8.0178 1.3488 2.9283 1.94-3.0306 4.3928-4.5247 4.5027-3.326 0.245-11.587-2.7334-3.4931-5.8515z"/><line x1="49.179" x2="32.006" y1="43.442" y2="49.566" fill="none" stroke="#000" stroke-linecap="round" stroke-linejoin="round" stroke-width="2"/><line x1="54.065" x2="59.042" y1="42.12" y2="43.826" fill="none" stroke="#000" stroke-linecap="round" stroke-linejoin="round" stroke-width="2"/><line x1="20.395" x2="31.627" y1="48.111" y2="44.614" fill="none" stroke="#000" stroke-linecap="round" stroke-linejoin="round" stroke-width="2"/><line x1="20.773" x2="14.169" y1="42.974" y2="45.135" fill="none" stroke="#000" stroke-linecap="round" stroke-linejoin="round" stroke-width="2"/><line x1="44.664" x2="53.6" y1="44.152" y2="47.406" fill="none" stroke="#000" stroke-linecap="round" stroke-linejoin="round" stroke-width="2"/><line x1="28.058" x2="43.274" y1="44.224" y2="49.577" fill="none" stroke="#000" stroke-linecap="round" stroke-linejoin="round" stroke-width="2"/></g><g id="c"><path fill="#a57939" d="m60.488 41.643c-1.0474-5.1255-13.152-7.8836-24.581-7.8836a64.601 64.601 0 0 0-13.443 1.3227 0.9967 0.9967 0 0 0-0.6543 0.478l-1.1758 2.042-2.7666-0.9731a1.0046 1.0046 0 0 0-0.7 0.0137c-4.3706 1.7284-5.6545 3.7026-5.88 5.204a5.3278 5.3278 0 0 0-1.3408 6.5967c2.5264 4.7945 12.685 7.8926 25.88 7.8926h0.3506c13.195 0 23.352-3.0981 25.856-7.8535a5.3669 5.3669 0 0 0-1.5456-6.8395z"/><line x1="49.179" x2="32.006" y1="43.442" y2="49.566" fill="none" stroke="#6a462f" stroke-linecap="round" stroke-linejoin="round" stroke-width="2"/><line x1="54.065" x2="59.042" y1="42.12" y2="43.826" fill="none" stroke="#6a462f" stroke-linecap="round" stroke-linejoin="round" stroke-width="2"/><path fill="#a57939" d="M60.4877,30.96c-1.0474-5.1255-13.1523-7.8836-24.5806-7.8836a64.5944,64.5944,0,0,0-13.4433,1.3228.9964.9964,0,0,0-.6543.478l-1.1758,2.042-2.7666-.9731a1.0052,1.0052,0,0,0-.7.0136c-4.3706,1.7284-5.6545,3.7027-5.88,5.2041A5.3278,5.3278,0,0,0,9.9462,37.76c2.5264,4.7944,12.6846,7.8926,25.88,7.8926h.3506c13.1953,0,23.3525-3.0982,25.8564-7.8535A5.3671,5.3671,0,0,0,60.4877,30.96Z"/><polygon fill="#6a462f" points="21.6 25.244 53.855 37.184 51.667 39.916 49.178 37.97 20.243 27.831"/><line x1="17.534" x2="49.178" y1="26.878" y2="38.01" fill="none" stroke="#6a462f" stroke-linecap="round" stroke-linejoin="round" stroke-width="2"/><line x1="32.361" x2="58.893" y1="24.15" y2="33.483" fill="none" stroke="#6a462f" stroke-linecap="round" stroke-linejoin="round" stroke-width="2"/><line x1="22.674" x2="54.154" y1="25.364" y2="36.515" fill="none" stroke="#6a462f" stroke-linecap="round" stroke-linejoin="round" stroke-width="2"/><line x1="12.697" x2="38.419" y1="30.188" y2="39.236" fill="none" stroke="#6a462f" stroke-linecap="round" stroke-linejoin="round" stroke-width="2"/><line x1="51.864" x2="19.949" y1="26.058" y2="37.285" fill="none" stroke="#6a462f" stroke-linecap="round" stroke-linejoin="round" stroke-width="2"/><line x1="41.163" x2="13.761" y1="24.716" y2="34.356" fill="none" stroke="#6a462f" stroke-linecap="round" stroke-linejoin="round" stroke-width="2"/><line x1="57.972" x2="29.363" y1="28.92" y2="38.984" fill="none" stroke="#6a462f" stroke-linecap="round" stroke-linejoin="round" stroke-width="2"/><path fill="#f1b31c" d="M40.6358,29.7323c-2.4422-1.3366-4.6917-2.63-8.0179-1.3488-2.4131.93-3.365,1.8461-3.4348,2.6691l-.0115,0,.0027.093c0,.0194.0008.0387.0017.0581l.0264.9179c-.4687,2.0237,4.5068,3.5277,6.9087,3.351,1.1667-.0859,5.0561-1.6,5.31-3.1837v-1.35A1.3974,1.3974,0,0,0,40.6358,29.7323Z"/><path fill="#fcea2b" d="m32.612 28.384c3.3263-1.2815 5.5759 0.0122 8.0178 1.3488 2.9283 1.94-3.0306 4.3928-4.5247 4.5027-3.326 0.245-11.587-2.7334-3.4931-5.8515z"/><line x1="20.395" x2="31.627" y1="48.111" y2="44.614" fill="none" stroke="#6a462f" stroke-linecap="round" stroke-linejoin="round" stroke-width="2"/><line x1="20.773" x2="14.169" y1="42.974" y2="45.135" fill="none" stroke="#6a462f" stroke-linecap="round" stroke-linejoin="round" stroke-width="2"/><line x1="44.664" x2="53.6" y1="44.152" y2="47.406" fill="none" stroke="#6a462f" stroke-linecap="round" stroke-linejoin="round" stroke-width="2"/><line x1="28.058" x2="43.274" y1="44.224" y2="49.577" fill="none" stroke="#6a462f" stroke-linecap="round" stroke-linejoin="round" stroke-width="2"/></g><g id="d" fill="none" stroke="#000" stroke-linecap="round" stroke-linejoin="round"><path stroke-width="2" d="m21.085 28.127 1.59-2.7624a63.555 63.555 0 0 1 13.232-1.3c13.068 0 23.662 3.4057 23.662 7.6069 0 1.84-2.0324 3.5277-5.4149 4.8433l-2.4868 3.4016-2.4885-1.9462a63.488 63.488 0 0 1-13.272 1.3084c-13.068 0-23.662-3.4058-23.662-7.607 0-1.8173 1.9823-3.4858 5.29-4.7941"/><path stroke-width="2.054" d="m12.244 31.672a4.36 4.36 0 0 0-1.39 5.5979c2.1367 4.0564 11.179 7.3447 24.97 7.3447h0.3508a65.915 65.915 0 0 0 13.004-1.1723 45.245 45.245 0 0 0 4.8861-1.322c3.5717-1.3737 6.1014-2.9914 7.0806-4.85a4.36 4.36 0 0 0-1.39-5.5979"/><path stroke-width="2" d="m13.486 39.916a3.42 3.42 0 0 0-1.2418 2.4385c0 1.84 2.0323 3.5276 5.4148 4.8432a28.766 28.766 0 0 0 4.9752 1.4553 66.425 66.425 0 0 0 13.272 1.3084c13.068 0 23.662-3.4057 23.662-7.6069a3.3306 3.3306 0 0 0-1.1276-2.327"/><path stroke-width="2.054" d="m12.244 42.355a4.36 4.36 0 0 0-1.39 5.5978c2.1367 4.0564 11.179 7.3448 24.97 7.3448h0.3508a65.915 65.915 0 0 0 13.004-1.1723s2.9172-0.6432 4.8861-1.3223c3.6176-1.2476 6.1014-2.9913 7.0806-4.85a4.36 4.36 0 0 0-1.39-5.5978"/></g></svg>