<svg xmlns="http://www.w3.org/2000/svg" id="a" viewBox="0 0 72 72"><g id="b"><path fill="#e27022" d="M50.63,15.6a1.2,1.2,0,0,1-1.73,1.18c-1.08-.56-2.98-1.24-3.92-.35a.3039.3039,0,0,1-.07.05c-1.52-2.09-4.21-3.79-8.91-3.79a3.7944,3.7944,0,0,1,3.56-4.24,8.4848,8.4848,0,0,0,4.73-2.06,5.0935,5.0935,0,0,1,.65,3.96l.49.01C49.15,10.36,50.4,13.41,50.63,15.6Z"/><path fill="#b1cc33" d="m36.002 42.033c-15.278 0-10.555-6.0794-10.555-12.763 0-3.5808-0.3769-3.4016-0.3769-5.9038s0.6328-10.681 10.932-10.681 10.932 8.1789 10.932 10.681-0.3769 2.323-0.3769 5.9038c0 6.6834 4.723 12.763-10.555 12.763z"/><path fill="#b1cc33" d="m46.934 23.367c2.137-2.8369 5.3093-2.0623 8.8-4.36-0.548 3.5228-1.6172 12.306-8.9959 12.787z"/><path fill="#b1cc33" d="m25.262 31.794c-7.3787-0.4814-8.4479-9.2642-8.9959-12.787 3.49 2.2973 6.6628 1.5227 8.8 4.36z"/><path fill="#b1cc33" d="M17.0625,57.8177s-2-13,10-13c3.1918,2.1279,5.9264,3.5984,9,3.5922h-.125c3.0736.0062,5.8081-1.4643,9-3.5922,12,0,10,13,10,13l.0076,1H17.0361Z"/><path fill="#5c9e31" d="M36,58.8164c8.1262-10.7061,8.3828-14.831,8.3828-14.831a1.0008,1.0008,0,0,1,.5547-.168c3.6563,0,6.4844,1.1357,8.4072,3.3769C56.8984,51.3369,55.9668,57.7,55.9258,57.97a.9991.9991,0,0,1-.9863.8467Z"/><path fill="#a57939" d="m44.964 57.818a47.874 47.874 0 0 1 6.4665-6.8788c4.4058-3.4682 6.7662-3.56 10.948-8.9061 2.0629-2.6374 2.6374-7.2817 0-9.3447s-6.354-1.2434-8.878 1.8278c-4.681 5.6962-3.8249 8.713-6.1991 13.193a102.56 102.56 0 0 1-6.8037 10.106v1h4.4654z"/><path fill="#fff" d="m31.055 31.498a2.6068 2.6068 0 0 1 2.6068 2.6068v0.651h-2.6068v-3.2578z"/><path fill="#fff" d="m38.396 31.498h2.6068v0.651a2.6068 2.6068 0 0 1-2.6068 2.6068v-3.2578z" transform="translate(79.399 66.254) rotate(180)"/></g><g id="c"><path fill="none" stroke="#000" stroke-linecap="round" stroke-linejoin="round" stroke-width="2" d="m54.729 52.447a16.706 16.706 0 0 1 0.2087 5.3706"/><path fill="none" stroke="#000" stroke-linecap="round" stroke-linejoin="round" stroke-width="2" d="M17.0625,57.8177s-2-13,10-13c3.1918,2.1279,5.9264,3.5984,9,3.5922h-.125c3.0736.0062,5.8081-1.4643,9-3.5922"/><path fill="none" stroke="#000" stroke-linecap="round" stroke-linejoin="round" stroke-width="2" d="m44.287 12.09a5.0267 5.0267 0 0 0 0-5.7006 8.4359 8.4359 0 0 1-4.7251 2.0561 3.7937 3.7937 0 0 0-3.56 4.24"/><path fill="none" stroke="#000" stroke-linecap="round" stroke-linejoin="round" stroke-width="2" d="m46.934 23.367c2.137-2.8369 5.3093-2.0623 8.8-4.36-0.548 3.5228-1.6172 12.306-8.9959 12.787"/><path fill="none" stroke="#000" stroke-linecap="round" stroke-linejoin="round" stroke-width="2" d="m25.262 31.794c-7.3787-0.4814-8.4479-9.2642-8.9959-12.787 3.49 2.2973 6.6628 1.5227 8.8 4.36"/><path fill="none" stroke="#000" stroke-linecap="round" stroke-linejoin="round" stroke-width="2" d="m36.002 42.033c-15.278 0-10.555-6.0794-10.555-12.763 0-3.5808-0.3769-3.4016-0.3769-5.9038s0.6328-10.681 10.932-10.681 10.932 8.1789 10.932 10.681-0.3769 2.323-0.3769 5.9038c0 6.6834 4.723 12.763-10.555 12.763z"/><path d="m42.002 26.499a2 2 0 1 1-2-2 2 2 0 0 1 2 2"/><path d="m34.002 26.499a2 2 0 1 1-2-2 2 2 0 0 1 2 2"/><path fill="none" stroke="#000" stroke-linecap="round" stroke-linejoin="round" stroke-width="2" d="m38.039 23.026a5.4257 5.4257 0 0 1 5.0488-1.2713"/><path fill="none" stroke="#000" stroke-linecap="round" stroke-linejoin="round" stroke-width="2" d="m28.97 21.755a5.4256 5.4256 0 0 1 5.0488 1.2713"/><path fill="none" stroke="#000" stroke-linecap="round" stroke-linejoin="round" stroke-width="2" d="m44.964 57.818a47.874 47.874 0 0 1 6.4665-6.8788c4.4058-3.4682 6.7662-3.56 10.948-8.9061 2.0629-2.6374 2.6374-7.2817 0-9.3447s-6.354-1.2434-8.878 1.8278c-4.681 5.6962-3.8249 8.713-6.1991 13.193a102.56 102.56 0 0 1-6.8037 10.106"/><line x1="50.373" x2="53.516" y1="36.073" y2="37.974" fill="none" stroke="#000" stroke-linecap="round" stroke-linejoin="round" stroke-width="2"/><line x1="56.472" x2="58.399" y1="45.212" y2="48.34" fill="none" stroke="#000" stroke-linecap="round" stroke-linejoin="round" stroke-width="2"/><line x1="59.361" x2="59.052" y1="29.432" y2="33.093" fill="none" stroke="#000" stroke-linecap="round" stroke-linejoin="round" stroke-width="2"/><line x1="31.055" x2="31.055" y1="32.496" y2="35.272" fill="none" stroke="#000" stroke-linecap="round" stroke-linejoin="round" stroke-width="2"/><line x1="42.249" x2="29.808" y1="35.272" y2="35.272" fill="none" stroke="#000" stroke-linecap="round" stroke-linejoin="round" stroke-width="2"/><line x1="41.003" x2="41.003" y1="32.496" y2="35.272" fill="none" stroke="#000" stroke-linecap="round" stroke-linejoin="round" stroke-width="2"/><path fill="none" stroke="#000" stroke-linecap="round" stroke-linejoin="round" stroke-width="2" d="m47.247 15.108a9.3183 9.3183 0 0 1 2.754 1.1523s0-5.21-4.4936-5.21"/></g></svg>