<?xml version="1.0" encoding="UTF-8"?>
<svg id="a" viewBox="0 0 72 72" xmlns="http://www.w3.org/2000/svg"><g id="b"><path d="m38.491 16.785 0.0168-0.0011a3.5657 3.5657 0 0 1-1.9173-4.5094l-3.0652 1.94-1.6455 2.0535s0.1379 0.7632-0.0658 0.7984c-10.985 1.8963-19.297 10.731-19.297 21.352 0 12.003 10.615 21.734 23.709 21.734s23.709-9.7306 23.709-21.734c0-11.303-9.4132-20.587-21.445-21.633z" fill="#f4aa41"/><path d="M37.3583,9.74s-2.4851,5.7564.5827,7.2051l-.0168.001c12.0316,1.0456,21.4447,10.33,21.4447,21.633,0,12.0033-10.615,20.4085-23.7093,20.4085,0,0,8.0283-1.9112,13.0787-8.4973,4.3078-5.6179,6.3119-13.7888.813-23.2031-1.9052-3.2618-6.2748-6.9157-11.8291-8.5751-.1088-.0325-1.4118-.6586-1.4956-.7352-.4363-.3985-.7207-1.5541-.567-4.0836A9.8024,9.8024,0,0,1,37.3583,9.74Z" fill="#e27022"/></g><g id="c"><g fill="none" stroke="#000" stroke-linecap="round" stroke-linejoin="round" stroke-width="2"><path d="m34.417 14.631 4.3043-6.1339a20.026 20.026 0 0 0-1.22 2.2393c-2.7869 6.1037 2.1232 6.3747 2.1232 6.3747 11.485 1.4988 20.312 10.479 20.312 21.333 0 11.903-10.615 21.552-23.709 21.552s-23.709-9.6493-23.709-21.552c0-8.2317 5.0767-15.386 12.539-19.015a24.831 24.831 0 0 1 3.0884-1.2525q0.1238-0.0406 0.2481-0.08 0.1619-0.0515 0.3249-0.1009a25.486 25.486 0 0 1 3.2831-0.7619"/><path d="m35.993 60.204-5.797 2.59z"/><polyline points="40.931 62.794 35.993 60.204 35.993 62.794"/><path d="m32.376 53.455c-2.33-2.343-3.9821-8.237-3.9821-15.138 0-5.8044 1.1693-10.897 2.9272-13.762"/><path d="m23.726 49.892c-1.7551-1.7652-3-6.2059-3-11.405 0-4.3732 0.881-8.21 2.2054-10.369"/><path d="m49.28 49.892c1.7551-1.7652 3-6.2059 3-11.405 0-4.3732-0.8811-8.21-2.2055-10.369"/><path d="m39.216 53.455c2.33-2.343 3.9822-8.237 3.9822-15.138 0-5.8044-1.1693-10.897-2.9273-13.762"/></g></g></svg>
