<?xml version="1.0" encoding="UTF-8"?>
<svg id="a" viewBox="0 0 72 72" xmlns="http://www.w3.org/2000/svg"><g id="b"><path d="M19,33a3.416,3.416,0,0,0-3.3141,2.9835l-1.3718,13.033A2.65,2.65,0,0,0,17,52H55a2.65,2.65,0,0,0,2.6859-2.9835l-1.3718-13.033A3.416,3.416,0,0,0,53,33Z" fill="#fcea2b"/><polyline points="12.251 52 60.189 52 58 56 13.616 56 12.251 52" fill="#fff"/></g><g id="c" fill="none" stroke="#000" stroke-linecap="round" stroke-linejoin="round" stroke-width="2"><path d="M19,33a3.416,3.416,0,0,0-3.3141,2.9835l-1.3718,13.033A2.65,2.65,0,0,0,17,52H55a2.65,2.65,0,0,0,2.6859-2.9835l-1.3718-13.033A3.416,3.416,0,0,0,53,33Z"/><polyline points="11.38 52 14.448 52 36 52"/><path d="M36,56H15a2.4394,2.4394,0,0,1-1.82-.5833l-.2389-.2381L9.0074,47.17,4.88,47.1514"/><polyline points="60.62 52 57.552 52 36 52"/><path d="M36,56H57a2.4394,2.4394,0,0,0,1.82-.5833l.2389-.2381,3.934-8.0083,4.1271-.0189"/></g></svg>
