<svg xmlns="http://www.w3.org/2000/svg" id="a" viewBox="0 0 72 72"><g id="b"><path fill="#92d3f5" d="m36.635 54.592 21.835-5.6686-0.152-28.374-21.701 4.55-21.85-5.0948v24.906a5.0437 5.0437 0 0 0 3.637 4.9572l18.198 4.7244v-25.358"/><path fill="#61b2e4" d="m36.635 54.592 20.176-5.2381a2.2146 2.2146 0 0 0 1.6584-2.1435v-24.416a2.2148 2.2148 0 0 0-2.7176-2.1569l-19.136 4.4613"/><path fill="#fff" d="m36.618 43.711-0.26 10.418-5.3535-0.7313-15.929-20.36v-12.489l2.955 0.2794 18.587 22.883"/><polyline fill="#92d3f5" points="14.767 20.004 36.808 14.309 57.949 20.579"/><polyline fill="#92d3f5" points="57.398 20.254 36.451 25.368 14.745 19.869"/></g><g id="c" fill="none" stroke="#000" stroke-linecap="round" stroke-linejoin="round" stroke-width="2.069"><path d="m36.601 29.234v22.644a2.0994 2.0994 0 0 1-2.627 2.032l-1.3086-0.3397-14.515-3.7683a4.6932 4.6932 0 0 1-3.3843-4.6127v-22.54a2.0993 2.0993 0 0 1 2.5761-2.0445l17.721 4.1321a6.8379 6.8379 0 0 0 3.105 0l17.724-4.1322a2.0994 2.0994 0 0 1 2.5763 2.0447v24.65a2.1 2.1 0 0 1-1.5719 2.032l-19.574 5.0817a2.9706 2.9706 0 0 1-1.3844 0.0261l-1.9656-0.5288"/><path d="M14.7451,24.4107l.0168-3.4268a1.2719,1.2719,0,0,1,.9537-1.2252L34.83,14.82a7.0928,7.0928,0,0,1,3.926.1089l18.5261,5.0135A1.6083,1.6083,0,0,1,58.47,21.4952v2.6654"/></g></svg>