<svg xmlns="http://www.w3.org/2000/svg" id="a" viewBox="0 0 72 72"><g id="b"><path fill="#f4aa41" d="M42.9778,61.958H27.1451A4.0845,4.0845,0,0,1,23.21,58.3763L19.0916,31.1494A1,1,0,0,1,20.08,30H50.0642a.9994.9994,0,0,1,.9883,1.15L46.8773,58.6067A3.9444,3.9444,0,0,1,42.9778,61.958Z"/><path fill="#b399c8" d="M39.0727,32.0166,37.6941,47.1833a1,1,0,0,1-.9756.7851.5574.5574,0,0,1-.1564,0l-4.546-.0926a1.11,1.11,0,0,1-.7631-.4643.998.998,0,0,1-.1338-.7588L32.1,32.0166ZM33.822,25.3945l.2588-1.1523c1.336-5.9443,3.0879-8.4473,8.1514-11.6426l7.4844-4.77a.9983.9983,0,0,1,1.3721.293l2.6142,3.9687a.9987.9987,0,0,1-.293,1.39l-8.0156,5.1709A10.5358,10.5358,0,0,0,40.8,25.2373l-.043.195Z"/><path fill="#92d3f5" d="m52.902 32.017h-35.652a1 1 0 0 1-1-1v-2.1133a3.513 3.513 0 0 1 3.5088-3.5088h30.634a3.513 3.513 0 0 1 3.5088 3.5088v2.1133a0.9994 0.9994 0 0 1-1 1z"/></g><g id="c"><path fill="none" stroke="#000" stroke-linecap="round" stroke-linejoin="round" stroke-width="2" d="m49.55 34.193-3.6476 24.156a3.0671 3.0671 0 0 1-3.0324 2.6092h-15.62a3.0672 3.0672 0 0 1-3.0336-2.6083l-3.6538-24.157"/><circle cx="28.806" cy="55.732" r="2"/><circle cx="39.117" cy="56.566" r="2"/><circle cx="27.877" cy="47.217" r="2"/><circle cx="42.267" cy="43.979" r="2"/><circle cx="25.877" cy="41.002" r="2"/><circle cx="34.404" cy="52.052" r="2"/><circle cx="42.267" cy="50.452" r="2"/><path fill="none" stroke="#000" stroke-linecap="round" stroke-linejoin="round" stroke-width="2" d="m52.902 28.904a2.5163 2.5163 0 0 0-2.5089-2.5089h-30.635a2.5162 2.5162 0 0 0-2.5087 2.5089v2.1127h35.652z"/><path fill="none" stroke="#000" stroke-linecap="round" stroke-linejoin="round" stroke-width="2" d="m34.641 26.395 0.76-3.3468c1.2233-4.62 2.9271-6.8011 7.3659-9.6029l7.4875-4.7737 2.614 3.9693-8.0154 5.1712a11.595 11.595 0 0 0-4.3971 5.2362l-0.7969 3.3467"/><line x1="38.371" x2="42.02" y1="16.968" y2="20.393" fill="none" stroke="#000" stroke-linecap="round" stroke-linejoin="round" stroke-width="2"/><line x1="41.145" x2="43.73" y1="14.531" y2="18.636" fill="none" stroke="#000" stroke-linecap="round" stroke-linejoin="round" stroke-width="2"/><line x1="36.392" x2="40.858" y1="20.109" y2="22.193" fill="none" stroke="#000" stroke-linecap="round" stroke-linejoin="round" stroke-width="2"/><line x1="32.94" x2="32.097" y1="34.193" y2="46.875" fill="none" stroke="#000" stroke-linecap="round" stroke-linejoin="round" stroke-width="2"/><line x1="37.871" x2="36.71" y1="34.193" y2="46.98" fill="none" stroke="#000" stroke-linecap="round" stroke-linejoin="round" stroke-width="2"/></g></svg>