<?xml version="1.0" encoding="UTF-8"?>
<svg id="a" version="1.1" viewBox="0 0 72 72" xmlns="http://www.w3.org/2000/svg"><g id="b"><path d="m17.098 61 1-4c0.882-3.7223 3.2788-6.9071 6.6115-8.785 1.7304-0.9126 3.6858-1.3109 5.6353-1.148 0.225 0.0313-1.3287 0.251-1.0783 0.3947 7.9961 4.5894 12.126 4.8623 16.979 1.8752 1.8003-1.1192 4.035-1.2848 5.9806-0.4431 3.2977 1.4523 5.8715 4.5252 5.8715 8.1062v4" fill="#92D3F5"/></g><g id="c"><path d="m29.747 47.117c6.209 5.0127 12.495 5.0127 18.7 0 1.5146 0.112 2.9698 0.6353 4.2089 1.5134 1.0534-0.6931 2.0475-1.4724 2.972-2.33 1.1884-0.7148 3.125-8.2822 0.3916-13.025-0.4386-0.8533-0.8251-1.7325-1.1573-2.6326-1.4726-3.27-2.0234-4.4927-2.3486-10.524 0.0273-3.6929-3.794-6.7842-7.4746-7.0928-0.266-0.0182-0.5139-0.1418-0.6885-0.3433-0.0928-0.1-2.4082-2.6547-7.2432-2.6547-6.2 0-11.441 3.3818-12.743 8.226-0.5339 2.0123-0.7246 4.1001-0.5641 6.1758 0.2039 2.019-0.0563 4.0578-0.7607 5.9609-0.2481 0.7561-0.627 1.4627-1.1193 2.0879l-1.08 5.8961 4.9189-5.5975 2.2051 2.0355-4.41 4.8624 3.6185 2.827-0.113 4.7494 2.6873-0.1342z" fill="#6a462f"/></g><g id="d" fill="#c19a65"><path d="m18.846 60.958 3.2252-10.22c1.2814-0.2502 2.4901-0.7855 3.5366-1.5662 0.7613-0.5853 1.2082-1.4904 1.21-2.4507l0.0062-0.8187-0.9673-0.9151c2.9608-3.0021-2.9-5.0627-2.9-5.0627l3.2259-3.271c0.637-0.5814 0.9781-1.419 0.9285-2.28-0.1839-1.4763-2.15-0.483-2.15-0.483l-5.6295 5.7082c-0.192 0.1954-0.3282 0.4387-0.3945 0.7046l-1.2649 5.0423c-0.2775 1.1067-0.253 2.2676 0.071 3.3616l0.22 0.7427-4.7955 11.508h5.6783z"/><path d="m28.487 29.065v0.957c0 7.6494 4.6093 13.643 10.494 13.643s10.494-5.9932 10.494-13.643c0-4.6533-1.7784-7.5151-5.2842-11.134-2.8304 2.1706-5.8369 4.1012-8.9883 5.772-2.6465 1.5142-6.2549 3.5693-6.7158 4.4053z"/></g><g id="e"><path d="m58.098 60v-3c0-4.9941-5.0059-9-10-9-6 5-12 5-18 0" fill="none" stroke="#000" stroke-linecap="round" stroke-linejoin="round" stroke-width="2"/><g fill="none" stroke="#000" stroke-linecap="round" stroke-miterlimit="10" stroke-width="2"><path d="m18.566 29.334c1.1934 1.6038 1.1699 3.8068-0.0575 5.3848"/><path d="m14.984 27.075s2.5694 4.9485-0.6794 9.3944"/></g><g fill="none" stroke="#000" stroke-linecap="round" stroke-linejoin="round" stroke-width="2"><path d="m26.104 45.121c2.9607-3.0021-2.9-5.0627-2.9-5.0627l3.226-3.271c0.637-0.5814 0.978-1.419 0.9284-2.28-0.1838-1.4763-2.15-0.483-2.15-0.483l-5.6295 5.7083c-0.192 0.1954-0.3282 0.4387-0.3944 0.7046l-1.2646 5.0426c-0.2775 1.1067-0.253 2.2677 0.071 3.3617l0.22 0.7427-4.6474 10.445"/><path d="m27.071 46.036-0.0062 0.8187c-0.0018 0.9603-0.4487 1.8654-1.21 2.4507-0.9974 0.8119-2.1746 1.3735-3.4333 1.6379"/><line x1="22.422" x2="19.157" y1="50.944" y2="60.001"/></g><path d="m20.829 37.926c-0.204-3.01 2.0835-6.8738 2.0835-6.8738 1.6357-4.2-0.209-6.4512 1.291-12.034 1.4795-5.5 7.2773-8.9658 13.709-8.9658 5.4 0 8 3 8 3 4.169 0.374 7.373 3.8515 7.4052 8.0371 0.3867 7.18 1.0244 7.1523 3.4287 12.822 1.6689 3.8623 1.1153 8.3256-1.4466 11.663" fill="none" stroke="#000" stroke-linecap="round" stroke-linejoin="round" stroke-width="2"/><path d="m44.913 29.052c0 1.1046-0.8954 2-2 2s-2-0.8954-2-2 0.8954-2 2-2 2 0.8954 2 2"/><path d="m36.913 29.052c0 1.1046-0.8954 2-2 2s-2-0.8954-2-2 0.8954-2 2-2 2 0.8954 2 2"/><path d="m27.913 30.052c0 8 5 14 11 14s11-6 11-14c0-5-2-8-6-12-4 4-16 9-16 11v1z" fill="none" stroke="#000" stroke-linejoin="round" stroke-width="2"/><path d="m35.895 37.12c1.8826-0.9693 4.1174-0.9693 6 0v0.2729c-1.8826 0.9693-4.1174 0.9693-6 0v-0.2729z" fill="none" stroke="#000" stroke-linecap="round" stroke-linejoin="round" stroke-width="2"/></g></svg>
