<svg xmlns="http://www.w3.org/2000/svg" id="a" viewBox="0 0 72 72"><g id="b" fill="#a57939"><circle cx="37.809" cy="18.053" r="3"/><path d="M29.0042,51.3216c4.0423,0,6.7848-.2676,8.8634-.4181a5.4876,5.4876,0,0,0,5.2641-5.7009l-.9605-14.881c0-.7383-.1846-4.916-4.5-4.916a3.3534,3.3534,0,0,0-2.6258,1.1984,7.7317,7.7317,0,0,0-1.9187,5.3453l.0445,4.3723L31.2543,40.379l-.4723,4.1287-7.6163,2.51a4.4272,4.4272,0,0,0-1.75,1.0181l-.075.071a4.3761,4.3761,0,0,0,.31,6.7008A7.7935,7.7935,0,0,0,26.064,56.11c6.94.2112,16.3947-1.8511,16.3947-1.8511l-3.0541-3.2582"/></g><g id="c"><g id="d" fill="none" stroke="#000" stroke-width="2"><circle cx="37.809" cy="18.053" r="3" stroke-miterlimit="10"/><path stroke-linecap="round" stroke-linejoin="round" d="M28.84,51.0011c4.0423,0,6.95-.1135,9.0285-.264a5.4916,5.4916,0,0,0,5.099-5.855l-.2027-5.3-.6323-10.5385A4.3671,4.3671,0,0,0,37.84,25.0011h0a4.6314,4.6314,0,0,0-4.4463,4.0171L32.84,33.98l-.7,7.021"/><path stroke-linecap="round" stroke-linejoin="round" d="m31.438 44.854-8.458 2.3108a4.4945 4.4945 0 0 0-1.75 0.9614l-0.075 0.067a3.9881 3.9881 0 0 0 0.3105 6.3276 8.1207 8.1207 0 0 0 4.4127 1.23 145.2 145.2 0 0 0 15.94-0.7448"/><polyline stroke-linecap="round" stroke-linejoin="round" points="37.955 29.952 37.209 40.265 26.685 43.207"/></g></g></svg>