<?xml version="1.0" encoding="UTF-8"?>
<svg id="a" viewBox="0 0 72 72" xmlns="http://www.w3.org/2000/svg"><g id="b" fill="none" stroke="#000" stroke-linecap="round" stroke-linejoin="round" stroke-width="2"><line x1="34.134" x2="35.866" y1="16.5" y2="15.5"/><line x1="27.866" x2="26.134" y1="25.5" y2="24.5"/><line x1="36.866" x2="35.134" y1="35.5" y2="34.5"/><line x1="45.5" x2="44.5" y1="26.866" y2="25.134"/><line x1="34.5" x2="35.5" y1="27.866" y2="26.134"/><line x1="41.5" x2="40.5" y1="18.866" y2="17.134"/><line x1="23.5" x2="22.5" y1="35.866" y2="34.134"/><line x1="29" x2="31" y1="40" y2="40"/><line x1="47.5" x2="48.5" y1="36.866" y2="35.134"/><line x1="41.134" x2="42.866" y1="39.5" y2="38.5"/></g><g id="c"><path d="M59.0314,43.6287a2,2,0,1,0-2-3.4641L36,40l-21.01.1646a2.1507,2.1507,0,0,0-2.732.732,2.1509,2.1509,0,0,0,.732,2.7321L36,57Z" fill="#a57939" stroke="#a57939" stroke-miterlimit="10" stroke-width="2"/><path d="M56,46c-4,0-8,13-8,21H24c0-8-4-21-8-21h5l3,2,3-2,3,2,3-2,3,2,3-2,3,2,3-2,3,2,3-2Z" fill="#92d3f5"/><path d="M50,42c3.8461-1.0989,6-3,6-7,0-2-3-4-3-4s-1.9145-1.958-1.3566-3.2038C52,27,20,27.1609,20,28c0,1-2,2-2,2s-3,0-3,4c0,7,6.8643,7.4661,13,9,4,1,5-1,10-1C42,42,43,44,50,42Z" fill="#ffa7c0" stroke="#ffa7c0" stroke-miterlimit="10" stroke-width="2"/><path d="m24.052 20.659c-2.2758 0-4.5517 2.46-4.5517 4.31 0 2.2069 1.1379 5.4138 10.241 5.4138l10.241 0.1034c10.241 0 12.517-2.1034 12.517-4.31s-3.4138-3.2063-3.4138-3.2063c-1.2268-0.97-2.2581-1.97-1.1379-4.6212-0.0859-2.2688-6.3762-4.2728-6.8047-7.39a1.42 1.42 0 0 0-0.21-0.6111l-1.9336-5.3477c-0.1265 6.6629-12.672 7.8315-12.672 12.245 0 0 0 3.4138-2.2759 3.4138z" fill="#ffa7c0" stroke="#ffa7c0" stroke-linecap="round" stroke-linejoin="round" stroke-width="2"/><line x1="34.134" x2="35.866" y1="16.5" y2="15.5" fill="#61b2e4" stroke="#61b2e4" stroke-linecap="round" stroke-linejoin="round" stroke-width="2"/><line x1="27.866" x2="26.134" y1="25.5" y2="24.5" fill="#61b2e4" stroke="#d22f27" stroke-linecap="round" stroke-linejoin="round" stroke-width="2"/><line x1="36.866" x2="35.134" y1="35.5" y2="34.5" fill="#61b2e4" stroke="#5c9e31" stroke-linecap="round" stroke-linejoin="round" stroke-width="2"/><line x1="45.5" x2="44.5" y1="26.866" y2="25.134" fill="#61b2e4" stroke="#5c9e31" stroke-linecap="round" stroke-linejoin="round" stroke-width="2"/><line x1="34.5" x2="35.5" y1="27.866" y2="26.134" fill="#61b2e4" stroke="#fcea2b" stroke-linecap="round" stroke-linejoin="round" stroke-width="2"/><line x1="41.5" x2="40.5" y1="18.866" y2="17.134" fill="#61b2e4" stroke="#8967aa" stroke-linecap="round" stroke-linejoin="round" stroke-width="2"/><line x1="23.5" x2="22.5" y1="35.866" y2="34.134" fill="#5c9e31" stroke="#61b2e4" stroke-linecap="round" stroke-linejoin="round" stroke-width="2"/><line x1="29" x2="31" y1="40" y2="40" fill="#61b2e4" stroke="#e27022" stroke-linecap="round" stroke-linejoin="round" stroke-width="2"/><line x1="47.5" x2="48.5" y1="36.866" y2="35.134" fill="#61b2e4" stroke="#d22f27" stroke-linecap="round" stroke-linejoin="round" stroke-width="2"/><line x1="41.134" x2="42.866" y1="39.5" y2="38.5" fill="#61b2e4" stroke="#fcea2b" stroke-linecap="round" stroke-linejoin="round" stroke-width="2"/></g><g id="d" fill="none" stroke="#000" stroke-linecap="round" stroke-linejoin="round" stroke-width="2"><path d="m39 5c-0.1265 6.6629-12.672 7.8315-12.672 12.245 0 2.2069 3.4138 2.2069 5.69 2.2069"/><path d="m41.121 10.625c0 3.31 6.8276 5.5173 6.8276 7.7242s-4.49 4.6339-11.379 4.31"/><path d="m24.052 20.659c-2.2758 0-4.5517 2.46-4.5517 4.31 0 2.2069 1.1379 5.4138 10.241 5.4138"/><path d="m39.983 30.487c10.241 0 12.517-2.1034 12.517-4.31s-3.4138-3.2067-3.4138-3.2067"/><path d="M56,46c-4,0-8,13-8,21H24c0-8-4-21-8-21"/><path d="M21,46l2.1679,1.4453a1.6273,1.6273,0,0,0,1.6642,0l1.3358-.8906a1.6273,1.6273,0,0,1,1.6642,0l1.3358.8906a1.6273,1.6273,0,0,0,1.6642,0l1.3358-.8906a1.6273,1.6273,0,0,1,1.6642,0l1.3358.8906a1.6273,1.6273,0,0,0,1.6642,0l1.3358-.8906a1.6273,1.6273,0,0,1,1.6642,0l1.3358.8906a1.6273,1.6273,0,0,0,1.6642,0l1.3358-.8906a1.6273,1.6273,0,0,1,1.6642,0l1.3358.8906a1.6273,1.6273,0,0,0,1.6642,0L51,46"/><path d="m18 30s-3 0-3 4c0 3 3 8 9 8"/><path d="m57.031 40.165a2 2 0 1 1 2 3.4641"/><path d="M14.99,40.1646a2.1507,2.1507,0,0,0-2.732.732,2.1509,2.1509,0,0,0,.732,2.7321"/><path d="m53 31s3 1 3 4-2 7-6 7"/></g></svg>
