<?xml version="1.0" encoding="UTF-8"?>
<svg id="a" version="1.1" viewBox="0 0 72 72" xmlns="http://www.w3.org/2000/svg"><g id="b"><path d="m17.298 58.854s-2-13.8 10-13.8c3.1918 2.1279 5.9264 3.5984 9 3.5921h-0.125c3.0736 0.0063 5.3081-2.6642 8.5-4.7921 13.314 0 10.9 15 10.9 15" fill="#9B9B9A"/><polyline points="36.613 54.207 39.028 58.752 45.4 44.136 51.857 53.92 40.7 58.052" fill="#D0CFCE"/><path d="m38.507 57.743c-0.5976 1.0349-4.8914 1.0349-5.489 0l-1.842-2.4101-3.3864-8.7387 7.9729 2.7 7.573-2.7-3.2865 8.7387-1.542 2.4101z" fill="#fff"/><path d="m65.729 58.486h-15.485v-19.802h15.271c0.1181 0 0.2138 0.0957 0.2138 0.2138v19.589z" fill="#D0CFCE"/><path d="m62.618 60.962h-14.608v-18.952h10.753c2.1288 0 3.8546 1.7257 3.8546 3.8545v15.097z" fill="#fff"/><path d="m33.455 48.535s-1.2063 6.0215 2.3073 6.0215 2.3073-6.0215 2.3073-6.0215" fill="#3F3F3F"/><path d="m35.016 54.88c0.3249-0.5627 1.137-0.5627 1.4619 0l1.1645 2.0171 1.8956 1.9831h-7.5821l1.8955-1.9831 1.1646-2.0171z" fill="#3F3F3F"/><polyline points="34.912 54.556 32.497 57.801 26.825 44.886 22.868 53.37 32.325 57.801" fill="#D0CFCE"/></g><g id="c"><path d="m26 36.581c-4 0-4-6-4-13s4-14 14-14 14 7 14 14 0 13-4 13" fill="#a57939"/></g><g id="d"><path d="m24.936 28.581c0 9 4.9365 14 11 14 5.9365 0 11.064-5 11.064-14 0.0245-1.7187-0.3164-3.4229-1-5-3-3-7-8-7-8-4 3-7 6-13 7.0005 0-5e-4 -1.0635 0.9987-1.0635 5.9995z" fill="#fadcbc"/></g><g id="e"><polygon points="62.618 60.962 48.01 60.962 48.01 42.326 59.836 42.326 59.836 44.438 62.618 44.438" fill="none" stroke="#000" stroke-linecap="round" stroke-linejoin="round" stroke-miterlimit="10" stroke-width="2"/><polyline points="51.214 38.863 66.04 38.863 66.04 57.499" fill="none" stroke="#000" stroke-linecap="round" stroke-linejoin="round" stroke-miterlimit="10" stroke-width="2"/><line x1="59.836" x2="62.618" y1="42.326" y2="44.438" fill="none" stroke="#000" stroke-linecap="round" stroke-linejoin="round" stroke-miterlimit="10" stroke-width="2"/><line x1="50.955" x2="59.388" y1="48.535" y2="48.535" fill="none" stroke="#000" stroke-linecap="round" stroke-linejoin="round" stroke-miterlimit="10" stroke-width="2"/><line x1="50.955" x2="59.388" y1="52.631" y2="52.631" fill="none" stroke="#000" stroke-linecap="round" stroke-linejoin="round" stroke-miterlimit="10" stroke-width="2"/><line x1="50.955" x2="59.388" y1="56.216" y2="56.216" fill="none" stroke="#000" stroke-linecap="round" stroke-linejoin="round" stroke-miterlimit="10" stroke-width="2"/><path d="m33.455 48.535s-1.2063 6.0215 2.3073 6.0215 2.3073-6.0215 2.3073-6.0215" fill="none" stroke="#000" stroke-linecap="round" stroke-linejoin="round" stroke-miterlimit="10" stroke-width="2"/><line x1="44.7" x2="38.96" y1="55.629" y2="57.808" fill="none" stroke="#000" stroke-linecap="round" stroke-linejoin="round" stroke-miterlimit="10" stroke-width="2"/><path d="m16.825 57.886s-2-13 10-13c3.1919 2.1279 5.9264 3.5984 9 3.5921h-0.125c3.0736 0.0063 5.8081-1.4642 9-3.5921" fill="none" stroke="#000" stroke-linecap="round" stroke-linejoin="round" stroke-miterlimit="10" stroke-width="2"/><polyline points="34.912 54.556 32.497 57.801 26.825 44.886 22.868 53.37 32.325 57.801" fill="none" stroke="#000" stroke-linecap="round" stroke-linejoin="round" stroke-miterlimit="10" stroke-width="2"/><polyline points="44.7 44.886 39.028 57.801 36.613 54.556" fill="none" stroke="#000" stroke-linecap="round" stroke-linejoin="round" stroke-miterlimit="10" stroke-width="2"/><path d="m41.953 27.047c0 1.1046-0.8954 2-2 2s-2-0.8954-2-2 0.8954-2 2-2c1.1044 4e-4 1.9996 0.8956 2 2"/><path d="m33.953 27.047c0 1.1046-0.8954 2-2 2s-2-0.8954-2-2 0.8954-2 2-2c1.1044 4e-4 1.9996 0.8956 2 2"/><path d="m35.953 37.049c-1.2005-0.0116-2.3813-0.3055-3.4472-0.8579-0.494-0.247-0.6943-0.8477-0.4473-1.3418s0.8477-0.6943 1.3418-0.4473c1.5934 0.8593 3.5121 0.8593 5.1055 0 0.494-0.247 1.0947-0.0468 1.3418 0.4473s0.0468 1.0947-0.4473 1.3418c-1.0659 0.5524-2.2468 0.8463-3.4473 0.8579z"/><path d="m26 36.581c-4 0-4-6-4-13s4-14 14-14 14 7 14 14 0 13-4 13" fill="none" stroke="#000" stroke-linecap="round" stroke-linejoin="round" stroke-width="2"/><path d="m24.936 28.581c0 9 4.9365 14 11 14 5.9365 0 11.064-5 11.064-14 0.0245-1.7187-0.3164-3.4229-1-5-3-3-7-8-7-8-4 3-7 6-13 7.0005 0-5e-4 -1.0635 0.9987-1.0635 5.9995z" fill="none" stroke="#000" stroke-linejoin="round" stroke-width="2"/></g></svg>
