<?xml version="1.0" encoding="UTF-8"?>
<svg id="a" viewBox="0 0 72 72" xmlns="http://www.w3.org/2000/svg"><g id="b"><path d="m54.956 60.932s2-14.027-10-14.027c-3.1919 2.1279-5.9264 3.5984-9 3.5921h0.125c-3.0736 0.0063-5.8082-1.4642-9-3.5921-12 0-10 14.027-10 14.027z" fill="#b1cc33"/><path d="m45.342 46.905a18.013 18.013 0 0 1-8.9375 3.5885c13.062 0.4115 12.978 6.395 13.74 10.395h5.1129s2.0846-13.984-9.9154-13.984z" fill="#5c9e31"/><polyline points="18.09 52.064 18.09 42.499 25.175 42.499 25.175 46.063" fill="#6a462f"/><path d="m48.001 60.958c-18.499-5.1358-20.92-14.054-20.92-14.054s-4.2 0.2046-5.6776 1.3537c3.1163 6.4287 5.9346 9.5505 14.104 12.681" fill="#a57939"/></g><g id="c" fill="#6a462f"><path d="m38.122 20.791a9.3946 9.3946 0 0 1-2.18-5.054c-0.028 0-0.0549-0.0052-0.0829-0.0052a8.2719 8.2719 0 0 1-1.98 5.0591 10.877 10.877 0 0 1-8.7937 4.7087 17.399 17.399 0 0 0-0.5656 4.4052c0 7.8277 5.0765 14.173 11.339 14.173s11.339-6.3455 11.339-14.173a17.345 17.345 0 0 0-0.6258-4.6109 9.7529 9.7529 0 0 1-8.4492-4.5029z"/><path d="m46.574 24.71 11.45-1.6359s-6.2678 9.8488-10.494 8.7989"/><path d="m25.464 24.691-11.318-1.6171s6.1889 9.7351 10.366 8.6973"/></g><g id="d"><path d="m35.859 11.884a15.35 15.35 0 0 0-15.136 12.846c8.8261 3.0574 13.156-3.9388 13.156-3.9388a8.2716 8.2716 0 0 0 1.98-5.0592h0.0826a9.3969 9.3969 0 0 0 2.18 5.0592s3.413 6.46 12.873 3.93a15.351 15.351 0 0 0-15.135-12.837z"/><path d="M37.4764,44.508l-5.1958-.6448-4.21-2.6168L24.6576,35.14l-.3792-2.8444-2.3514-.4172-2.9109-2.2636V42.1683l6.159.3305v4.5958l1.9062-.19c3.17,2.1133,5.8895,3.5747,8.9375,3.5885,3.048-.0138,5.7675-1.4752,8.9375-3.5885A9.6884,9.6884,0,0,1,51.51,49.04a12.86,12.86,0,0,0,.6612-4.1082c0-16.6561-.27-14.3257-.27-14.3257l-2.3264,1.4249-2.2.2655-1.2895,4.8923-3.6029,4.9683Z"/></g><g id="e"><path d="m42.019 28.544a2 2 0 1 1-2-2 2.0007 2.0007 0 0 1 2 2"/><path d="m34.019 28.544a2 2 0 1 1-2-2 2.0007 2.0007 0 0 1 2 2"/><path d="m36.019 38.546a7.6528 7.6528 0 0 1-3.4473-0.8579 1 1 0 0 1 0.8945-1.7891 5.3774 5.3774 0 0 0 5.1055 0 1 1 0 1 1 0.8945 1.7891 7.6524 7.6524 0 0 1-3.4472 0.8579z"/><path d="m50.966 24.105c-4.4734-13.621-14.947-12.221-14.947-12.221s-10.353-1.3834-14.869 11.986" fill="none" stroke="#000" stroke-linecap="round" stroke-linejoin="round" stroke-width="2"/><path d="m26.838 21.538a6.5528 6.5528 0 0 0 6.0977 1.5354" fill="none" stroke="#000" stroke-linecap="round" stroke-linejoin="round" stroke-width="2"/><path d="m45.199 21.538a6.5525 6.5525 0 0 1-6.0976 1.5354" fill="none" stroke="#000" stroke-linecap="round" stroke-linejoin="round" stroke-width="2"/><circle cx="36.019" cy="22.105" r="1.5"/><path d="m25.464 24.691-11.318-1.6171s6.1889 9.7351 10.366 8.6973" fill="none" stroke="#000" stroke-linecap="round" stroke-linejoin="round" stroke-width="2"/><path d="m36.019 15.732a20.458 20.458 0 0 1-3.08 5.0592" fill="none" stroke="#000" stroke-linecap="round" stroke-linejoin="round" stroke-width="2"/><path d="m46.574 24.71 11.45-1.6359s-6.2678 9.8488-10.494 8.7989" fill="none" stroke="#000" stroke-linecap="round" stroke-linejoin="round" stroke-width="2"/><path d="m36.019 15.732a20.456 20.456 0 0 0 3.08 5.0592" fill="none" stroke="#000" stroke-linecap="round" stroke-linejoin="round" stroke-width="2"/><line x1="51.218" x2="51.218" y1="30.988" y2="44.491" fill="none" stroke="#000" stroke-linecap="round" stroke-linejoin="round" stroke-width="2"/><polyline points="18.09 52.064 18.09 42.499 25.175 42.499 25.175 46.063" fill="none" stroke="#000" stroke-linecap="round" stroke-linejoin="round" stroke-width="2"/><line x1="20.024" x2="20.024" y1="42.46" y2="37.717" fill="none" stroke="#000" stroke-linecap="round" stroke-linejoin="round" stroke-width="2"/><line x1="23.396" x2="23.396" y1="42.499" y2="39.058" fill="none" stroke="#000" stroke-linecap="round" stroke-linejoin="round" stroke-width="2"/><path d="M54.9563,59.9047s2-13-10-13c-3.1919,2.1279-5.9264,3.5984-9,3.5921h.125c-3.0736.0063-5.8082-1.4642-9-3.5921-12,0-10,13-10,13" fill="none" stroke="#000" stroke-linecap="round" stroke-linejoin="round" stroke-width="2"/><path d="m26.442 24.502-0.9825 0.2293a17.29 17.29 0 0 0-0.779 5.1733c0 7.8276 5.0765 14.173 11.339 14.173s11.339-6.3456 11.339-14.173a17.29 17.29 0 0 0-0.7791-5.1733l-0.8123-0.3239" fill="none" stroke="#000" stroke-linecap="round" stroke-linejoin="round" stroke-width="2"/><path d="m46.574 24.71 11.45-1.6359s-6.2678 9.8488-10.494 8.7989" fill="none" stroke="#000" stroke-linecap="round" stroke-linejoin="round" stroke-width="2"/><line x1="19.949" x2="19.949" y1="30.288" y2="33.457" fill="none" stroke="#000" stroke-linecap="round" stroke-linejoin="round" stroke-width="2"/><path d="m47.898 59.961c-18.499-5.1358-20.817-13.057-20.817-13.057s-4.2 0.2046-5.6776 1.3537c3.1163 6.4287 5.69 8.6387 13.86 11.769" fill="none" stroke="#000" stroke-linecap="round" stroke-linejoin="round" stroke-width="2"/></g></svg>
