<svg xmlns="http://www.w3.org/2000/svg" id="a" viewBox="0 0 72 72"><g id="b"><ellipse cx="35.6" cy="31" fill="#fadcbc" rx="11" ry="14"/></g><g id="c"><path fill="#92D3F5" d="m17 61v-4c0-5 5-9 10-9 6 5 12 5 18 0 5 0 10 4 10 9v4"/></g><g id="d"><path fill="none" stroke="#000" stroke-linejoin="round" stroke-width="2" d="m36 45c-5.9 0-11-6-11-14 0-3.3 1-7.4 3-10 0.3-0.3 0.5-0.6 0.8-0.9 2-1.8 4.5-2.8 7.2-2.8s5.2 1 7.2 2.8c0.3 0.3 0.6 0.6 0.8 0.9 2 2.6 3 6.7 3 10 0 8-5.1 14-11 14"/><path fill="none" stroke="#000" stroke-linecap="round" stroke-linejoin="round" stroke-width="2" d="m17 59.9v-3c0-5 5-9 10-9 6 5 12 5 18 0 5 0 10 4 10 9v3"/><path d="m42 29.9c0 1.1-0.9 2-2 2s-2-0.9-2-2 0.9-2 2-2 2 0.9 2 2"/><path d="m34 29.9c0 1.1-0.9 2-2 2s-2-0.9-2-2 0.9-2 2-2 2 0.9 2 2"/><path fill="none" stroke="#000" stroke-linecap="round" stroke-linejoin="round" stroke-width="2" d="m33 38.1c1.9 1 4.1 1 6 0"/></g></svg>