<svg xmlns="http://www.w3.org/2000/svg" id="a" version="1.1" viewBox="0 0 72 72"><g id="b"><path fill="#3F3F3F" d="m54.862 58.804s2-14-10-14c-3.1918 2.1279-5.9264 3.5984-9 3.5921h0.125c-3.0736 0.0063-5.8081-1.4642-9-3.5921-12 0-10 14-10 14"/><polygon fill="#9B9B9A" points="45.131 12.155 35.821 13.065 26.751 12.185 21.311 11.655 35.191 9.125 50.321 11.655"/><path fill="#3F3F3F" d="m45.131 12.155v7.97s-6.72-0.26-9.19 2.64c-2.47-2.9-9.19-2.64-9.19-2.64v-7.94l9.07 0.88 9.31-0.91z"/><path fill="#fff" d="m35.969 51.381h-0.0215-0.0459-0.041v-1e-3c-3.1973-0.0313-5.9854-1.4639-9.4278-3.7598-0.4599-0.3066-0.584-0.9277-0.2773-1.3867 0.3056-0.46 0.9248-0.583 1.3867-0.2773 3.1533 2.1025 5.6601 3.4101 8.3828 3.4248 2.7217-0.0137 5.2285-1.3223 8.3828-3.4248 0.46-0.3057 1.0811-0.1827 1.3867 0.2773 0.3067 0.46 0.1827 1.0801-0.2773 1.3867-3.4434 2.2959-6.2315 3.7285-9.4277 3.7598v1e-3h-0.0205z"/></g><g id="c"><path d="m26.578 20.098c-0.6876 1.2066-1.2278 2.5535-1.5876 3.9997l-0.0279 0.0694s3.9805 0.7845 7.961-3.0788l0.0355-0.1017c-2.8687-0.9967-6.3327-0.8611-6.3327-0.8611"/><path d="m45.012 20.125s-3.4076-0.2012-6.3247 0.9044l0.0275 0.0584c3.9805 3.8633 7.961 3.0788 7.961 3.0788l-0.0102 0.0025c-0.3597-1.4735-0.9063-2.8451-1.6054-4.0716"/></g><g id="d"><path fill="#a57939" d="m46.541 24.187c-0.7043 0.0936-4.2608 0.3619-7.8265-3.0989l-0.0275-0.0584c0.0073-0.0027 0.0148-0.0049 0.022-0.0077-1.0909 0.3906-2.0895 0.9471-2.7678 1.7435-2.0695-2.4297-7.1041-2.6405-8.6871-2.6452 1.1271 0.0109 3.5778 0.1272 5.7045 0.8661l-0.0355 0.1017c-3.5658 3.4608-7.1223 3.1925-7.8265 3.0989-0.3976 1.4398-0.6163 2.9834-0.6163 4.5929 0 7.8276 5.0765 14.173 11.339 14.173s11.339-6.3456 11.339-14.173c-2e-4 -1.6096-0.2189-3.1532-0.6165-4.5929z"/></g><g id="e"><path d="m41.942 26.951c0 1.1045-0.8965 2-2 2s-2-0.8955-2-2c0-1.1035 0.8965-2 2-2s2 0.8965 2 2"/><path d="m33.942 26.951c0 1.1045-0.8965 2-2 2s-2-0.8955-2-2c0-1.1035 0.8965-2 2-2s2 0.8965 2 2"/><path d="m35.941 36.954c-1.1518 0-2.3037-0.2861-3.4472-0.8579-0.4942-0.2471-0.6944-0.8477-0.4473-1.3418 0.2466-0.4937 0.8462-0.6943 1.3418-0.4473 1.7178 0.8594 3.3877 0.8594 5.1055 0 0.4946-0.247 1.0947-0.0464 1.3418 0.4473 0.247 0.4941 0.0468 1.0947-0.4473 1.3418-1.1436 0.5718-2.2954 0.8579-3.4473 0.8579z"/><path d="m46.13 19.77c-0.57-1.03-1.24-1.97-2-2.79v2.15c-0.22 0-0.48 0.01-0.76 0.03 0.46 0.6 0.87 1.2599 1.23 1.96 1.06 2.07 1.6801 4.54 1.6801 7.19 0 7.27-4.64 13.18-10.34 13.18s-10.34-5.91-10.34-13.18c0-2.66 0.62-5.13 1.69-7.2 0.36-0.7 0.77-1.35 1.22-1.95-0.28-0.02-0.54-0.03-0.76-0.03v-2.15c-0.75 0.82-1.43 1.76-2 2.79-1.36 2.43-2.15 5.37-2.15 8.54 0 8.37 5.54 15.18 12.34 15.18 6.81 0 12.34-6.81 12.34-15.18-1e-4 -3.17-0.7901-6.11-2.1501-8.54z"/><polyline fill="none" stroke="#000" stroke-linecap="round" stroke-linejoin="round" stroke-miterlimit="10" stroke-width="2" points="21.311 11.655 26.751 12.185 35.821 13.065 45.131 12.155 50.321 11.655"/><path d="m36.74 23.37c-0.02 0.01-0.03 0.03-0.04 0.04-0.13 0.16-0.29 0.2599-0.47 0.31-0.04 0.02-0.08 0.03-0.12 0.03-0.06 0.02-0.11 0.02-0.17 0.02s-0.12 0-0.17-0.02c-0.04 0-0.08-0.01-0.12-0.03-0.13-0.03-0.25-0.1-0.36-0.19-0.06-0.05-0.11-0.1-0.15-0.16-1.65-1.86-5.85-2.25-7.85-2.26-0.19 0-0.36 0.01-0.5 0.01-0.27 0.01-0.54-0.08-0.73-0.27-0.2-0.19-0.31-0.45-0.31-0.72v-8.47c0-0.56 0.45-1 1-1s1 0.44 1 1v7.47c0.22 0 0.48 0.01 0.76 0.03 2.04 0.12 5.36 0.5699 7.43 2.24 0.28 0.21 0.53 0.45 0.76 0.72 0.31 0.3599 0.32 0.88 0.04 1.25z"/><path d="m46.13 11.66v8.47c0 0.27-0.11 0.53-0.3 0.72-0.2 0.18-0.44 0.28-0.74 0.28-0.14-0.01-0.31-0.01-0.4901-0.01-2.0099 0-6.22 0.38-7.86 2.25-0.02 0.01-0.03 0.03-0.04 0.04-0.13 0.16-0.29 0.2599-0.47 0.31-0.04 0.02-0.08 0.03-0.12 0.03-0.06 0.02-0.11 0.02-0.17 0.02s-0.12 0-0.17-0.02c-0.04 0-0.08-0.01-0.12-0.03-0.13-0.03-0.25-0.1-0.36-0.19-0.06-0.05-0.11-0.1-0.15-0.16-0.28-0.37-0.27-0.89 0.04-1.25 0.23-0.27 0.48-0.51 0.76-0.72 2.07-1.67 5.39-2.12 7.43-2.24 0.28-0.02 0.54-0.03 0.76-0.03v-7.47c0-0.56 0.45-1 1-1s1.0001 0.44 1.0001 1z"/><polyline fill="none" stroke="#000" stroke-linecap="round" stroke-linejoin="round" stroke-miterlimit="10" stroke-width="2" points="50.321 11.655 35.191 9.125 21.311 11.655"/><path d="m21.312 21c-0.5527 0-1-0.4478-1-1v-8.1211c0-0.5523 0.4473-1 1-1s1 0.4477 1 1v8.1211c0 0.5522-0.4473 1-1 1z"/><path d="m19.285 23.58c-0.2159 0-0.4336-0.0698-0.6172-0.2134-0.4336-0.3413-0.5098-0.9702-0.168-1.4043l2.0264-2.5796c0.3408-0.4336 0.9677-0.5102 1.4043-0.1689 0.4336 0.3413 0.5097 0.9702 0.1679 1.4043l-2.0263 2.5796c-0.1973 0.2509-0.4903 0.3823-0.7871 0.3823z"/><path d="m21.312 25.101c-0.5527 0-1-0.4478-1-1v-4.1006c0-0.5523 0.4473-1 1-1s1 0.4477 1 1v4.1006c0 0.5522-0.4473 1-1 1z"/><path d="m45.894 25.232c-1.5938 0-4.6875-0.4511-7.753-3.4267-0.3965-0.3848-0.4062-1.0181-0.0215-1.4141 0.3858-0.3965 1.0176-0.4053 1.4141-0.0215 3.5215 3.4185 6.9356 2.8418 7.0781 2.8145 0.5401-0.0967 1.0635 0.2573 1.1651 0.7964 0.1025 0.54-0.2461 1.061-0.7852 1.1669-0.0527 0.0108-0.4531 0.0845-1.0976 0.0845z"/><path d="m25.989 25.232c-0.6455 0-1.045-0.0737-1.0977-0.0845-0.542-0.1064-0.8945-0.6323-0.7881-1.1743 0.1065-0.5405 0.6289-0.8911 1.169-0.789 0.1611 0.0312 3.5664 0.5947 7.0771-2.8145 0.3965-0.3838 1.0283-0.375 1.4141 0.0215 0.3847 0.396 0.375 1.0293-0.0215 1.4141-3.0654 2.9756-6.1592 3.4267-7.7529 3.4267z"/><path d="m54.759 58.803c-0.0508 0-0.1016-0.0029-0.1524-0.0107-0.5459-0.084-0.9209-0.5938-0.8378-1.1387 0.0087-0.0576 0.8271-5.7412-2.129-9.1777-1.4755-1.7149-3.6894-2.6123-6.5859-2.669-3.3096 2.1856-6.0283 3.5459-9.126 3.5889-0.0214 1e-3 -0.0429 1e-3 -0.0644 1e-3h-0.0215-0.0449-0.042c-0.0147 0-0.0293 0-0.044-1e-3 -3.0996-0.043-5.8164-1.4033-9.1259-3.5889-2.8965 0.0567-5.1104 0.9541-6.586 2.669-2.956 3.4365-2.1377 9.1201-2.1289 9.1777 0.083 0.5449-0.292 1.0547-0.8379 1.1387-0.5351 0.084-1.0547-0.29-1.1386-0.8359-0.0411-0.2696-0.9727-6.6329 2.581-10.775 1.9229-2.2412 4.751-3.377 8.4072-3.377 0.1973 0 0.3907 0.0586 0.5547 0.168 3.1533 2.1025 5.6602 3.4101 8.3828 3.4248 2.7217-0.0137 5.2286-1.3223 8.3828-3.4248 0.1641-0.1094 0.3575-0.168 0.5547-0.168 3.6563 0 6.4844 1.1358 8.4073 3.377 3.5537 4.1425 2.622 10.506 2.581 10.775-0.0762 0.4941-0.5019 0.8466-0.9863 0.8466z"/></g></svg>