<svg xmlns="http://www.w3.org/2000/svg" id="a" version="1.1" viewBox="0 0 72 72"><g id="b"><g id="c"><path fill="#92D3F5" d="m55 61v-4c0-5-5-9-10-9-6 5-12 5-18 0-5 0-10 4-10 9v4h38z"/></g></g><g id="d" fill="#c19a65"><path d="m42.2 20c1.2 0.1 3.2 1.5 5 8.7v0.4c-0.4805 2.0059-1.1849 3.9515-2.1 5.8 0 0-1.9 3-2.7-1.2-4.2842-1.2003-8.8158-1.2003-13.1 0-0.8 4.2-2.7 1.2-2.7 1.2-0.9151-1.8485-1.6195-3.7941-2.1-5.8v-0.4c2.8-11.1 6.2-8.6 6.2-8.6 4.4 1.9 4.8 2.2 10.6 0 0 0 0.5-0.2 1.2-0.5l-0.3 0.4z"/><rect width="11" height="7.6" x="30.6" y="35.2"/></g><g id="e"><path fill="#6a462f" d="m47.1 29v-0.4c-1.8-7.2-3.8-8.6-5-8.7v-0.3c-0.3493 0.177-0.7186 0.3113-1.1 0.4-5.8 2.2-6.1 1.9-10.6 0 0 0-3.4-2.5-6.2 8.6v0.4c-1.2142-4.4858-0.4886-9.2753 2-13.2 3.2-4.9 12.9-2.4 12.9-2.4l3.1-2.4 1.1 3.1 3.6-2.4c0.7247 1.8456 0.249 3.9466-1.2 5.3l0.1 0.1c1.7834 3.7007 2.2423 7.9015 1.3 11.9zm-1.7 11.3c-0.5279 1.0216-1.2398 1.9369-2.1 2.7-2.0473 1.7647-4.702 2.6615-7.4 2.5h-0.3c-2.698 0.1615-5.3527-0.7353-7.4-2.5-0.8311-0.7899-1.539-1.7-2.1-2.7-1.474-2.723-2.1336-5.8125-1.9-8.9 0.1-1 0.1-2 0.1-2.4 0.4805 2.0059 1.1849 3.9515 2.1 5.8 0 0 2 3 2.7-1.2 4.2842-1.2003 8.8158-1.2003 13.1 0 0.8 4.2 2.7 1.2 2.7 1.2 0.9151-1.8485 1.6195-3.7941 2.1-5.8 0.1887 0.7864 0.2894 1.5913 0.3 2.4 0.2336 3.0875-0.426 6.177-1.9 8.9zm-5.4-3.2c-0.0012-0.5518-0.4482-0.9988-1-1l-3.1 1.5-3-1.5c-0.5209-0.0314-0.9686 0.3653-1 0.8862-0.0023 0.0379-0.0023 0.0759 0 0.1138v1.9c0 0.7 1.6 2 4 2s4-1.3 4-2v-1.9h0.1z"/></g><g id="f"><g id="g"><path fill="none" stroke="#000" stroke-linecap="round" stroke-linejoin="round" stroke-width="2" d="m55 60v-3c0-5-5-9-10-9-6 5-12 5-18 0-5 0-10 4-10 9v3"/></g><path d="m40 26.7c1.1046 0 2 0.8954 2 2s-0.8954 2-2 2-2-0.8954-2-2c0.0032-1.1032 0.8968-1.9968 2-2z"/><path d="m39.9 36.5c0.2165 0.4972-0.0061 1.0761-0.5 1.3-1.0802 0.5583-2.2845 0.8336-3.5 0.8-1.1781-0.0154-2.3386-0.2885-3.4-0.8-0.4939-0.2239-0.7165-0.8028-0.5-1.3 0.1865-0.4504 0.7028-0.6643 1.1531-0.4778 0.0513 0.0212 0.1005 0.0473 0.1469 0.0778 1.5809 0.9 3.5191 0.9 5.1 0 0.5251-0.3006 1.1943-0.1221 1.5 0.4z"/><path d="m32 26.7c1.1046 0 2 0.8954 2 2s-0.8954 2-2 2-2-0.8954-2-2c0.0032-1.1032 0.8968-1.9968 2-2z"/><path fill="none" stroke="#000" stroke-linecap="round" stroke-linejoin="round" stroke-width="2" d="m24.3 29c0 0.4 0 1.4-0.1 2.4-0.2336 3.0875 0.426 6.177 1.9 8.9 0.561 1 1.2689 1.9101 2.1 2.7 2.0541 1.7528 4.7038 2.6479 7.4 2.5"/><path fill="none" stroke="#000" stroke-linecap="round" stroke-linejoin="round" stroke-width="2" d="m47.2 28.7v0.4c-0.4805 2.0059-1.1849 3.9515-2.1 5.8 0 0-1.9 3-2.7-1.2-4.2842-1.2003-8.8158-1.2003-13.1 0-0.8 4.2-2.7 1.2-2.7 1.2-0.9151-1.8485-1.6195-3.7941-2.1-5.8 0-0.1-0.2-1.3-0.2-1.5"/><path fill="none" stroke="#000" stroke-linecap="round" stroke-linejoin="round" stroke-width="2" d="m47.2 29c0 0.4 0.1 1.4 0.1 2.4 0.2336 3.0875-0.426 6.177-1.9 8.9-0.5279 1.0216-1.2398 1.9369-2.1 2.7-2.0473 1.7647-4.702 2.6615-7.4 2.5h-0.3"/><path fill="none" stroke="#000" stroke-linecap="round" stroke-linejoin="round" stroke-width="2" d="m24.3 29c-1.2142-4.4858-0.4886-9.2753 2-13.2 3.2-4.9 12.9-2.4 12.9-2.4l3.1-2.4 1.1 3.1 3.4-2.5c0.7247 1.8456 0.249 3.9466-1.2 5.3-1.0075 1.0362-2.193 1.883-3.5 2.5-0.3734 0.2244-0.7777 0.3928-1.2 0.5-5.8 2.2-6.1 1.9-10.6 0 0 0-3.3-2.5-6.1 8.6"/><path fill="none" stroke="#000" stroke-linecap="round" stroke-linejoin="round" stroke-width="2" d="m42 19.9h0.2c1.2 0.1 3.2 1.5 5 8.7"/><path fill="none" stroke="#000" stroke-linecap="round" stroke-linejoin="round" stroke-width="2" d="m45.8 17.1c1.787 3.6977 2.28 7.8885 1.4 11.9"/></g></svg>