<?xml version="1.0" encoding="UTF-8"?>
<svg id="a" version="1.1" viewBox="0 0 72 72" xmlns="http://www.w3.org/2000/svg"><g id="b"><path d="m50.174 16.159c0.6 1.14 0.42 2.53-0.4 3.52l-2.24 2.72-0.09 0.06c-1.02-1.56-2.34-2.5-2.34-2.5l-0.04-0.05c0.49-0.35 0.93-0.76 1.31-1.21h-21.07c0.33 0.33 0.7 0.64 1.1 0.93l-0.02 0.03s-1.2 0.91-2.17 2.4l-0.24-0.15-1.85-2.23c-0.82-0.99-1-2.38-0.4-3.52 1.37-2.58 4.98-6.72 14.23-7.28 9.25 0.56 12.86 4.7 14.22 7.28z" fill="#3F3F3F"/><path d="m33.854 22.259c-2.82-0.33-5.51-1.23-7.45-2.63-0.4-0.29-0.77-0.6-1.1-0.93h21.07c-0.38 0.45-0.82 0.86-1.31 1.21-1.08 0.82-2.38 1.43-3.82 1.83-2.28 0.65-4.88 0.81-7.39 0.52z" fill="#3F3F3F"/><path d="m33.023 18.116c0-1.6553 1.3448-3 3-3 1.6553 0 3 1.3447 3 3" fill="#D0CFCE"/><path d="m16.674 58.884s-0.9644-3.8571-0.1756-7.6612c0.7007-3.3792 4.6186-7.2388 10.209-7.2388 3.1918 2.1279 5.5264 4.5985 8.6 4.5922h-0.125c3.0736 0.0063 6.308-1.5642 9.4999-3.6922 11.565-0.0346 10.009 13.9 10.24 14" fill="#fff"/><path d="m44.576 49.878c4.2663 2.3224 4.3828 6.254 4.9068 9.004h5.1128s1.6601-4.6027 0.1076-8.7835c-1.1542-3.1082-4.4418-6.1174-9.6076-6.1165" fill="#D0CFCE"/><polygon points="35.721 50.206 39.496 58.883 35.721 58.883 31.746 58.883" fill="#3F3F3F"/><path d="m33.35 48.76s-1.2063 5.0369 2.3073 5.0369 2.3073-5.0369 2.3073-5.0369" fill="#3F3F3F"/></g><g id="c" fill="#a57939"><path d="m33.854 22.259c-7.05 1.08-9.38 7.7-9.38 7.7-2.46-3.11-1.54-5.98-0.26-7.9 0.97-1.49 2.17-2.4 2.17-2.4l0.02-0.03c1.94 1.4 4.63 2.3 7.45 2.63z"/><path d="m47.444 22.459c1.18 1.83 1.94 4.51-0.43 7.5 0 0-2.69-7.96-5.77-8.22 1.44-0.4 2.74-1.01 3.82-1.83l0.04 0.05s1.32 0.94 2.34 2.5z"/></g><g id="d" fill="#fadcbc"><path d="m36.323 22.459s7.7547-2.8806 10.917 6.2998c0 7.8277-5.0765 14.173-11.339 14.173s-11.339-6.3456-11.339-14.173c6.1815-8.2104 11.76-6.2998 11.76-6.2998z"/><rect x="16.735" y="44.382" width="6.9637" height="3.8501"/><rect x="47.685" y="44.382" width="6.9637" height="3.8501"/></g><g id="e"><path d="m42.023 26.877c0 1.1045-0.8965 2-2 2s-2-0.8955-2-2c0-1.1035 0.8965-2 2-2s2 0.8965 2 2"/><path d="m34.023 26.877c0 1.1045-0.8965 2-2 2s-2-0.8955-2-2c0-1.1035 0.8965-2 2-2s2 0.8965 2 2"/><path d="m36.023 36.88c-1.1518 0-2.3037-0.2862-3.4472-0.858-0.4942-0.247-0.6944-0.8476-0.4473-1.3418 0.2466-0.4936 0.8462-0.6943 1.3418-0.4472 1.7178 0.8594 3.3877 0.8594 5.1055 0 0.4946-0.2471 1.0947-0.0464 1.3418 0.4472 0.247 0.4942 0.0468 1.0948-0.4473 1.3418-1.1436 0.5718-2.2954 0.858-3.4473 0.858z"/><path d="m47.602 23.518c-0.2237 0-0.4493-0.0752-0.6358-0.229-0.4258-0.3521-0.4863-0.9824-0.1338-1.4082l2.2481-2.7198c0.5771-0.6987 0.6885-1.6464 0.2832-2.414-1.2051-2.2847-4.5391-6.1944-13.34-6.7505-8.7998 0.5561-12.136 4.4658-13.341 6.7505-0.4053 0.7671-0.2939 1.7148 0.2842 2.414l1.8457 2.2344c0.3525 0.4253 0.292 1.0557-0.1338 1.4077-0.4267 0.3521-1.0566 0.2925-1.4072-0.1342l-1.8457-2.2339c-1.0947-1.3238-1.2949-3.1377-0.5127-4.6216 1.4053-2.6611 5.2275-7.2153 15.049-7.8169 0.041-0.0029 0.082-0.0029 0.1231 0 9.8232 0.6016 13.644 5.1558 15.048 7.8174 0.7832 1.4839 0.582 3.2978-0.5117 4.6216l-2.2481 2.7197c-0.1972 0.2392-0.4834 0.3628-0.7714 0.3628z"/><path d="m35.94 43.411c-6.417 0-11.699-5.916-12.286-13.761l1.9942-0.1484c0.5 6.6777 5.0205 11.909 10.292 11.909 5.2578 0 9.6728-5.0136 10.27-11.663 0.0449-0.4892 0.0673-0.997 0.0673-1.5097h2c0 0.5732-0.0253 1.1416-0.0752 1.6904-0.6914 7.6856-5.9628 13.482-12.263 13.482z"/><path d="m24.55 31.078c-0.3027 0-0.5928-0.1377-0.7842-0.3799-1.4687-1.8569-2.0664-3.7729-1.7773-5.6948 0.4814-3.2016 3.2871-5.167 3.4062-5.2495 0.458-0.3125 1.0782-0.1968 1.3907 0.2564 0.3134 0.4541 0.1992 1.0751-0.2539 1.3891-0.0215 0.0156-2.2227 1.5762-2.5674 3.9151-0.1299 0.8847 0.0234 1.789 0.458 2.7026 1.248-2.2017 4.0664-5.7915 9.4287-6.5454 0.5596-0.085 1.0527 0.3042 1.1299 0.8511 0.0771 0.5468-0.3037 1.0527-0.8506 1.1293-6.4873 0.9122-8.6133 6.8907-8.6348 6.9512-0.1181 0.3457-0.417 0.5987-0.7773 0.6602-0.0557 0.0097-0.1123 0.0146-0.168 0.0146z"/><path d="m47.091 31.078c-0.0566 0-0.1133-0.0049-0.1699-0.0146-0.3613-0.0625-0.6592-0.3174-0.7773-0.6641-1.004-2.9599-3.2598-7.4038-4.9131-7.5415-0.5508-0.0459-0.959-0.5293-0.9131-1.0796 0.0449-0.5498 0.5205-0.9668 1.0791-0.9136 2.6748 0.2227 4.8086 4.3306 5.9082 6.9629 0.3682-0.8491 0.4932-1.6894 0.3721-2.5131-0.3448-2.3389-2.5459-3.8995-2.5674-3.9151-0.4522-0.3154-0.5655-0.938-0.251-1.3906 0.3145-0.4536 0.9355-0.5659 1.3877-0.2549 0.1191 0.0825 2.9248 2.0479 3.4062 5.2495 0.2891 1.9219-0.3085 3.8379-1.7773 5.6948-0.1914 0.2422-0.4814 0.3799-0.7842 0.3799z"/><path d="m39.023 19.116c-0.5527 0-1-0.4477-1-1 0-1.103-0.8974-2-2-2-1.1025 0-2 0.897-2 2 0 0.5523-0.4472 1-1 1-0.5527 0-1-0.4477-1-1 0-2.2056 1.794-4 4-4 2.2061 0 4 1.7944 4 4 0 0.5523-0.4472 1-1 1z"/><path d="m35.657 54.797c-1.4111 0-2.2158-0.6455-2.6426-1.1865-1.3828-1.753-0.7167-4.7471-0.6367-5.0831 0.1289-0.5351 0.6612-0.8671 1.2041-0.7382 0.5362 0.1269 0.8682 0.666 0.7412 1.2031-0.1435 0.6094-0.4043 2.5391 0.2627 3.3818 0.1436 0.1817 0.4112 0.4229 1.0713 0.4229 0.6612 0 0.9287-0.2422 1.0733-0.4248 0.6201-0.7871 0.4443-2.6162 0.2617-3.3789-0.1289-0.5371 0.2031-1.0762 0.7402-1.2051 0.5362-0.127 1.0762 0.2031 1.2051 0.7402 0.0801 0.335 0.7451 3.3291-0.6367 5.0821-0.4278 0.541-1.2324 1.1865-2.6436 1.1865z"/><path d="m54.737 58.936c-0.0508 0-0.1016-0.0029-0.1523-0.0107-0.5459-0.083-0.9209-0.5937-0.8379-1.1387 0.0049-0.0371 0.5361-3.6923-0.7725-6.9131-0.208-0.5117 0.0391-1.0947 0.5508-1.3027 0.5078-0.206 1.0937 0.0381 1.3027 0.5508 1.5205 3.7432 0.9219 7.7969 0.8955 7.9678-0.0761 0.4941-0.5019 0.8466-0.9863 0.8466z"/><path d="m30.082 54.731c-0.0283 0-0.0576-9e-4 -0.0869-0.0039-0.3662-0.0322-0.6855-0.2627-0.831-0.5996l-3.7745-8.748c-0.1279-0.2959-0.1054-0.6338 0.0596-0.9102 0.166-0.2763 0.4531-0.456 0.7735-0.4824l0.5527-0.0469c0.2285-0.0224 0.4512 0.0391 0.6396 0.1641 3.1534 2.1025 5.6602 3.4111 8.3829 3.4238 2.7207-0.0127 5.2275-1.3213 8.3828-3.4238 0.1845-0.1221 0.3994-0.1768 0.624-0.166l0.6777 0.0469c0.3281 0.0234 0.625 0.206 0.792 0.4902 0.167 0.2832 0.1846 0.6318 0.0449 0.9297l-4.0752 8.748c-0.1562 0.336-0.4853 0.5576-0.8554 0.5772-0.3682 0.0234-0.7198-0.17-0.9092-0.4864l-2.9072-4.8691c-0.5469 0.0928-1.1006 0.1445-1.668 0.1523-0.0147 1e-3 -0.0293 4e-3 -0.0439 1e-3h-3e-3c-0.0117 0-0.0263-1e-3 -0.0381 0h-0.0429c-0.0127-1e-3 -0.0274 0-0.0381 0h-0.0029c-0.0166 3e-3 -0.0293 0-0.044-1e-3 -0.5293-0.0068-1.0478-0.0527-1.5596-0.1337l-3.2138 4.8877c-0.1866 0.2822-0.501 0.4501-0.836 0.4501zm-1.8047-7.708 1.9883 4.6094 1.8155-2.7607c-1.2422-0.4297-2.4864-1.0586-3.8038-1.8487zm11.309 1.8233 1.6426 2.751 2.1475-4.6084c-1.3145 0.791-2.5537 1.4218-3.7901 1.8574z"/><path d="m16.858 58.936c-0.4844 0-0.9102-0.3525-0.9863-0.8466-0.0264-0.169-0.6172-4.1651 0.8613-7.8858 0.2051-0.5136 0.7861-0.7627 1.2988-0.5605 0.5137 0.2041 0.7637 0.7861 0.5606 1.2988-1.2735 3.2031-0.749 6.8086-0.7442 6.8447 0.083 0.545-0.292 1.0547-0.8379 1.1387-0.0507 0.0078-0.1015 0.0107-0.1523 0.0107z"/><path d="m31.878 58.894c-0.1767 0-0.3554-0.0469-0.5175-0.1456-0.4727-0.2861-0.6231-0.9013-0.336-1.373l2.2393-3.6895c0.2861-0.4736 0.9004-0.624 1.373-0.3359 0.4727 0.2861 0.6231 0.9014 0.336 1.3731l-2.2393 3.6894c-0.1875 0.3106-0.5176 0.4815-0.8555 0.4815z"/><path d="m39.438 58.894c-0.3379 0-0.668-0.1709-0.8555-0.4815l-2.2392-3.6894c-0.2871-0.4717-0.1367-1.087 0.3359-1.3731 0.4736-0.2871 1.0879-0.1367 1.3731 0.3359l2.2392 3.6895c0.2871 0.4717 0.1367 1.0869-0.3359 1.373-0.1621 0.0987-0.3408 0.1456-0.5176 0.1456z"/><path d="m23.699 48.272c-0.5527 0-1-0.4473-1-1v-1.9522c0-0.5527 0.4473-1 1-1 0.5528 0 1 0.4473 1 1v1.9522c0 0.5527-0.4472 1-1 1z"/><path d="m20.304 48.272c-0.5527 0-1-0.4473-1-1v-1.9522c0-0.5527 0.4473-1 1-1s1 0.4473 1 1v1.9522c0 0.5527-0.4473 1-1 1z"/><path d="m16.907 48.272c-0.5527 0-1-0.4473-1-1v-1.9522c0-0.5527 0.4473-1 1-1 0.5528 0 1 0.4473 1 1v1.9522c0 0.5527-0.4472 1-1 1z"/><path d="m47.772 48.272c-0.5527 0-1-0.4473-1-1v-1.9522c0-0.5527 0.4473-1 1-1s1 0.4473 1 1v1.9522c0 0.5527-0.4473 1-1 1z"/><path d="m51.167 48.272c-0.5527 0-1-0.4473-1-1v-1.9522c0-0.5527 0.4473-1 1-1s1 0.4473 1 1v1.9522c0 0.5527-0.4473 1-1 1z"/><path d="m54.562 48.272c-0.5527 0-1-0.4473-1-1v-1.9522c0-0.5527 0.4473-1 1-1s1 0.4473 1 1v1.9522c0 0.5527-0.4473 1-1 1z"/><path d="m36.343 23.518c-4.6983 0-9.208-1.5288-11.67-3.9951-0.2852-0.2862-0.3702-0.7163-0.2159-1.0899 0.1553-0.373 0.5196-0.6167 0.9239-0.6167h21.068c0.3897 0 0.7442 0.2266 0.9072 0.5801 0.1641 0.3535 0.1075 0.77-0.1455 1.0674-2.0312 2.3921-5.6777 3.8633-10.005 4.0371-0.2881 0.0117-0.5762 0.0171-0.8633 0.0171zm-7.8252-3.7017c2.333 1.1797 5.4336 1.8174 8.6084 1.6861 2.5635-0.1031 4.8261-0.6978 6.5381-1.6861h-15.146z"/></g></svg>
