<svg xmlns="http://www.w3.org/2000/svg" id="a" viewBox="0 0 72 72"><g id="b" fill="#fcea2b"><path d="m49.581 21.647 4.7663 2.2879-2.6692 12.583-1.0486 1.43-2.0018 11.344 2.86 11.439-2.86 0.9532-4.7664-12.392v-9.5327l-8.5794-4.7664-7.1839 7.2659-2.0447-1.7045 8.2753-10.328 10.591 3.2726s2.4737-8.53 2.7549-8.9922a96.026 96.026 0 0 1-11.249-2.7645c-1.43-0.4767-2.86-1.5253-1.9065-3.4318"/><circle cx="53.39" cy="16.022" r="2.86"/></g><g id="c"><path fill="#d0cfce" stroke="#d0cfce" stroke-linejoin="round" stroke-width="2" d="M42.0227,8.3009v.9532L40.54,15.16,34.9761,16.27l-2.6968,2.2116,1.817,4.2544-.653,3.6768-2.86,1.9065-1.9066,1.9066-5.182,10.4965.817,2.1191.6473,1.2173.387.8894-2.52,4.4842-3.87,5.793-4.5786,5.5052-5.5861.8541L8.7812,6.952l28.6915.0333Z"/><path fill="#92d3f5" d="M52.532,33.2766l2.9551.9532-1.2392,3.6225-2.9552-.9533"/></g><g id="d" fill="none" stroke="#000" stroke-width="2"><path stroke-linecap="round" stroke-linejoin="round" d="m45.968 30.771 6.4689 2.3145"/><path stroke-linecap="round" stroke-linejoin="round" d="M52.532,33.2766l2.9551.9533-1.2392,3.6224-2.9552-.9533"/><path stroke-linecap="round" stroke-linejoin="round" d="m40.691 14.453 1.2164-5.0428"/><path stroke-linecap="round" stroke-linejoin="round" d="m19.072 55.011 6.6729-10.486-2.0858-4.2821 5.8874-10.959 5.0733-3.5033-0.31-2.661"/><circle cx="53.39" cy="16.022" r="3" stroke-miterlimit="10"/><path stroke-linecap="round" stroke-linejoin="round" d="M44.4092,33.1669,36.1357,30.798a3.05,3.05,0,0,0-3.05.9533L26.9405,39.448a2.0726,2.0726,0,0,0-.3041,2.5348c.44.51,1.7187.1649,2.4814-.5977l4.8254-5.0581a2.59,2.59,0,0,1,3.05-.3813l5.243,2.9551a9.2638,9.2638,0,0,0,3.5271.9533h.9532a5.2968,5.2968,0,0,0,3.2412-1.43l.4766-.4766a7.3208,7.3208,0,0,0,1.7159-3.1458c.1906-.9533.3813-1.7159.3813-1.7159"/><path stroke-linecap="round" stroke-linejoin="round" d="m50.626 37.948-1.6206 9.4374a12.166 12.166 0 0 0 0.0951 3.7177l1.9066 7.7215a1.8053 1.8053 0 0 1-0.9533 2.2879 1.7817 1.7817 0 0 1-2.0972-1.3346l-3.4318-8.8654a12.201 12.201 0 0 1-0.6673-3.7178v-6.6729"/><path stroke-linecap="round" stroke-linejoin="round" d="M52.4367,33.0859l1.8112-5.91c.5719-2.0019-.1907-4.099-1.8112-4.5757a54.1713,54.1713,0,0,0-6.6729-1.43h-.0954c-2.0972-.286-5.2429-.8579-7.1495-1.3346-1.8112-.4766-3.3364-.9532-3.3364-.9532"/><path stroke-linecap="round" stroke-linejoin="round" d="M57.4057,16.6514s.6578-.0232.8715.389c.252.4842.0079,1.7942.2465,2.5066a3.3629,3.3629,0,0,0,1.2906,1.7468"/></g></svg>