<svg xmlns="http://www.w3.org/2000/svg" id="a" viewBox="0 0 72 72"><g id="b"><circle cx="36" cy="36" r="24" fill="#FCEA2B"/></g><g id="c"><path fill="none" stroke="#000" stroke-linecap="round" stroke-linejoin="round" stroke-miterlimit="10" stroke-width="2" d="m28.823 44.288c2.3686-0.6663 11.864 0.535 14.044 2.0632"/><path fill="none" stroke="#000" stroke-linecap="round" stroke-linejoin="round" stroke-miterlimit="10" stroke-width="2" d="m22.301 23.339c1.2822-0.889 2.8466-1.271 4.3937-1.0722 1.5679 0.0356 3.0646 0.6567 4.1996 1.7378"/><path fill="none" stroke="#000" stroke-linecap="round" stroke-linejoin="round" stroke-miterlimit="10" stroke-width="2" d="m49.044 27.318c-2.4149-1.7243-5.3513 0-8.2333-0.2604"/><path d="m30 31c0 1.6568-1.3448 3-3 3-1.6553 0-3-1.3433-3-3 0-1.6552 1.3447-3 3-3 1.6552 0 3 1.3448 3 3"/><path d="m47 33c0 1.6568-1.3447 3-3 3s-3-1.3433-3-3c0-1.6552 1.3447-3 3-3s3 1.3448 3 3"/><path fill="none" stroke="#000" stroke-linecap="round" stroke-linejoin="round" stroke-miterlimit="10" stroke-width="2" d="m55.644 47.97c2.1202-3.4721 3.346-7.5506 3.3562-11.916 0.0296-12.703-10.244-23.024-22.946-23.054-12.703-0.0297-23.024 10.243-23.054 22.946-0.0296 12.702 10.243 23.024 22.946 23.054 5.209 0.0122 10.018-1.7084 13.88-4.6186"/><circle cx="43.929" cy="30.81" r="9.421" fill="none" stroke="#000" stroke-linecap="round" stroke-linejoin="round" stroke-miterlimit="10" stroke-width="2"/><path fill="none" stroke="#000" stroke-linecap="round" stroke-linejoin="round" stroke-miterlimit="10" stroke-width="2" d="m53.688 30.957s2.2127 0.5511 1.9237 4.0128-3.5691 7.9621-3.5691 7.9621-2.0208 2.3624-1.4607 4.3219c0.7165 2.5065 4.3147 6.4367 4.1809 8.6099"/></g></svg>