<?xml version="1.0" encoding="UTF-8"?>
<svg id="a" viewBox="0 0 72 72" xmlns="http://www.w3.org/2000/svg"><g id="b"><path d="m33.89 59.412 10.457-8.456 8.0469 3.77s-8.8186 11.164-18.504 4.686z" fill="#e67a94"/><path d="M26.8543,51.6657a3.3643,3.3643,0,0,0,2.6313-2.9074c.4863-2.61,3.8554,2.7656,4.9433-1.6475,0,0,6.9443,1.4932,6.043-2.1972l4.1064,5.1758s-1.6572,4.1552-5.8935,3.1132c0,0,1.43,5.9-3.4453,4.23,0,0,.6464,1.8926-3.5469.1289Z" fill="#ffa7c0"/><path d="m38.669 52.954a3.01 3.01 0 0 1-4.747 3.6084" fill="none" stroke="#ffa7c0" stroke-linecap="round" stroke-miterlimit="10" stroke-width="2"/><path d="m43.421 49.344a3.013 3.013 0 0 1-4.752 3.6094" fill="none" stroke="#ffa7c0" stroke-linecap="round" stroke-miterlimit="10" stroke-width="2"/><path d="M30.1405,49.23c.38,1.373.0929,2.6924-1.3073,3.1289-1.4021.4394-1.598-1.0342-1.9789-2.4092" fill="none" stroke="#e67a94" stroke-linecap="round" stroke-miterlimit="10" stroke-width="2"/><path d="m35.517 47.644a2.8159 2.8159 0 0 1-5.3857 1.586" fill="none" stroke="#e67a94" stroke-linecap="round" stroke-miterlimit="10" stroke-width="2"/><path d="m40.904 46.056a2.8173 2.8173 0 0 1-5.3877 1.5879" fill="none" stroke="#e67a94" stroke-linecap="round" stroke-miterlimit="10" stroke-width="2"/><path d="M23.6457,42.6589s.1152,2.5156,1.6465.3467c1.5332-2.169,5.8418,3.3535,8.6748-.2032,0,0,4.77,2.3125,5.4932-1.416L41.426,46.445s-2.3418,4.4248-5.7529,1.7061c0,0-1.6192,4.7138-5.35,1.1572,0,0-.3271,5.0762-4.664,1.1436Z" fill="#e67a94"/><path d="m59.258 43.853c2.0088 0.9151-3.1621 9.8682-5.707 9.252s4.0097-10.022 5.707-9.252z" fill="#ffa7c0"/><path d="m53.765 53.884c-1.1386-2.3562 10.29-3.2657 10.771-1.4668 0.5712 2.1357-9.6309 3.8242-10.771 1.4668" fill="#ffa7c0"/></g><g id="c" fill="#fcea2b"><path d="M24.6434,30.2361s-5.3071,7.4758-9.9653,6.8441L14.52,34.0811s3.8691-.08,9.8711-8.292l12.3965-.6323S40.4193,26.5,41.6839,31.79c.781,3.2721,1.3691,5.9449,2.1778,7.28a4.2961,4.2961,0,0,1,.5627,1.485c-.0773,1.5863-3.5014,2.128-4.1536-.4342-1.8155-2.3711-1.5272,2.6116-1.5272,2.6116l-14.589.4519"/><path d="m36.241 17.27a4.7843 4.7843 0 0 1-4.7841 4.7847c-2.6426 0-6.5283-4.0371-4.0234-4.8731 2.6162-0.871 3.0918-3.0908 4.2012-4.0419 2.0067-1.7204 4.6063 1.4867 4.6063 4.1303z"/></g><g id="d" fill="#f4aa41"><path d="m23.671 33.431s-4.5183 4.7285-3.6686 8.582c-0.0437 5.8086 4.7605 5.0667 4.7605 5.0667z"/><path d="m24.839 25.157s0.6895-3.3242-0.3593-5.3926-1.5293-11.161 6.998-11.36 6.7139 11.416 6.7139 11.416l-0.8789 5.0429-5.4409-3.1849s8.6125-4.2242 1.0253-8.7355c0 0-3.9685 5.1315-6.5794 4.7764l4.7414 3.9685z"/><polygon points="23.751 25.418 23.771 22.007 38.514 21.886 38.595 25.397"/></g><g id="e" fill="none" stroke="#000" stroke-width="2"><path d="m15.235 34.304c7.3261-2.5693 6.3125-8.9961 10.883-8.9961h9.9707c4.5713 0 5.7744 7.5483 7.4062 15.246" stroke-linecap="round" stroke-miterlimit="10"/><path d="m24.736 31.095-0.3877 9.8672a21.666 21.666 0 0 0 9.5635 17.805s7.6977 6.6094 19.438-5.5029" stroke-linecap="round" stroke-miterlimit="10"/><line x1="39.471" x2="37.205" y1="40.397" y2="31.095" stroke-linecap="round" stroke-miterlimit="10"/><path d="m53.233 53.401c-10.73 1.05-13.763-13.061-13.763-13.061" stroke-linecap="round" stroke-miterlimit="10"/><line x1="14.953" x2="14.953" y1="63.308" y2="11.308" stroke-linecap="round" stroke-linejoin="round"/><path d="m8.9543 16.314c0 3.8 2.6279 6.8818 5.87 6.8818s5.87-3.0815 5.87-6.8818l-0.2656-4.8907" stroke-linecap="round" stroke-miterlimit="10"/><path d="m20.694 16.314c0 3.8-2.6279 6.8818-5.87 6.8818s-5.87-3.0815-5.87-6.8818l0.2646-4.8907" stroke-linecap="round" stroke-miterlimit="10"/><path d="m53.428 53.131s-0.8555-7.0772 6.1426-9.6045" stroke-linecap="round" stroke-miterlimit="10"/><path d="m59.536 43.525s0.8574 7.0762-6.1406 9.6045" stroke-linecap="round" stroke-miterlimit="10"/><path d="m54.591 53.865s4.7549-5.3115 11.27-1.7168" stroke-linecap="round" stroke-miterlimit="10"/><path d="m65.838 52.123s-4.753 5.31-11.27 1.7158" stroke-linecap="round" stroke-miterlimit="10"/><path d="m39.53 40.805c0 1.4443-4.0068 2.624-8.5947 2.624-4.5918 0-6.5859-1.0635-6.5859-2.5078" stroke-linecap="round" stroke-miterlimit="10"/><path d="M31.5543,7.8483s-7.4531-.3125-7.6172,7.1709c0,0-.4246,3.5706.4141,4.8321a4.9822,4.9822,0,0,1,.414,2.8056" stroke-linecap="round" stroke-miterlimit="10"/><path d="M37.5334,22.6794a5.3992,5.3992,0,0,1,.5156-2.8281c.6631-1.0137.4141-4.8321.4141-4.8321-.1641-7.4834-7.6172-7.1709-7.6172-7.1709" stroke-linecap="round" stroke-miterlimit="10"/><path d="m22.099 37.26s-2.9277 5.1231-0.3174 7.8047" stroke-linecap="round" stroke-miterlimit="10"/><path d="m32.55 13.005c1.5625-2.0557 3.918 2.3652 3.2061 4.8476a4.6761 4.6761 0 0 1-5.7836 3.2066l-0.0016-5e-4s-2.9971-1.0645-3.2314-3.48c5e-4 0 2.093-0.3935 5.8105-4.5737z" stroke-linejoin="round"/></g></svg>
