<svg xmlns="http://www.w3.org/2000/svg" id="a" version="1.1" viewBox="0 0 72 72"><g id="b"><path fill="#92D3F5" d="m17 61v-4c0-5 5-9 10-9 6 5 12 5 18 0 5 0 10 4 10 9v4"/></g><g id="c"><path fill="#fadcbc" d="m24.9 31c0 9 4.9 14 11 14 6 0 11.1-5 11.1-14 0.0164-1.7179-0.3241-3.4205-1-5-3-3-7-8-7-8-4 3-7 6-13 7 0 0-1.1 1-1.1 6z"/></g><g id="d"><path fill="#a57939" d="m36 12c-10 0-14 7-14 14 0 6.7 0 12.4 3.5 12.9 0.2 0.5 0.4 0.9 0.6 1.4 0.5866 0.9827 1.2919 1.8896 2.1 2.7 2.0255 1.8025 4.6964 2.7048 7.4 2.5h0.3c2.7037 0.2048 5.3745-0.6975 7.4-2.5 0.8667-0.757 1.5796-1.6737 2.1-2.7 0.3745-0.7139 0.7084-1.4484 1-2.2l-0.3 0.9c3.9-0.1 3.9-6 3.9-13s-4-14-14-14zm4 27c0 0.7-1.6 2-4 2s-4-1.3-4-2v-1.9c0.0012-0.5518 0.4482-0.9988 1-1l3 1.5 3.1-1.5c0.5209-0.0314 0.9686 0.3653 1 0.8862 0.0023 0.0379 0.0023 0.0759 0 0.1138l-0.1 1.9zm4.9-4.2s-1.9 3-2.7-1.2c-4.2842-1.2-8.8158-1.2-13.1 0-0.7 4.2-2.7 1.2-2.7 1.2-0.6363-1.3242-1.1712-2.6948-1.6-4.1 0.1925-1.8639 0.5608-3.7054 1.1-5.5 7.2-1 12.9-7.1 12.9-7.1s1.4 1.2 7.2 7.8c0.3133 1.3181 0.5471 2.6538 0.7 4-0.3723 1.7082-0.978 3.357-1.8 4.9z"/></g><g id="e"><path fill="none" stroke="#000" stroke-linecap="round" stroke-linejoin="round" stroke-width="2" d="M25.5,39.2 C20.7,39.2,22,33,22,26s4-14,14-14s14,7,14,14s0.9,13.4-4,13"/><path fill="none" stroke="#000" stroke-linecap="round" stroke-linejoin="round" stroke-width="2" d="m17 60v-3c0-5 5-9 10-9 6 5 12 5 18 0 5 0 10 4 10 9v3"/><path d="m41.9 29c0 1.1046-0.8954 2-2 2s-2-0.8954-2-2 0.8954-2 2-2c1.1032 0.0032 1.9968 0.8968 2 2"/><path d="m33.9 29c0 1.1046-0.8954 2-2 2s-2-0.8954-2-2 0.8954-2 2-2c1.1032 0.0032 1.9968 0.8968 2 2"/><path fill="none" stroke="#000" stroke-linejoin="round" stroke-width="2" d="m47 31c0.0164-1.7179-0.3241-3.4205-1-5-3-3-7-8-7-8-4 3-7 6-13 7 0 0-1.1 1-1.1 6"/><path d="m39.9 36.5c0.2165 0.4972-0.0061 1.0761-0.5 1.3-1.0802 0.5583-2.2845 0.8336-3.5 0.8-1.1781-0.0154-2.3386-0.2885-3.4-0.8-0.4939-0.2239-0.7165-0.8028-0.5-1.3 0.1662-0.4582 0.6724-0.6948 1.1306-0.5286 0.0235 0.0086 0.0467 0.0181 0.0694 0.0286 0.1 0 0.1 0 0.1 0.1 1.5809 0.9 3.5191 0.9 5.1 0 0.5269-0.2862 1.1856-0.1105 1.5 0.4z"/><path fill="none" stroke="#000" stroke-linecap="round" stroke-linejoin="round" stroke-width="2" d="m24.9 31c-0.2 3.1-0.3 6.6 1.2 9.3 0.5866 0.9827 1.2919 1.8896 2.1 2.7 2.0576 1.7465 4.7048 2.6408 7.4 2.5"/><path fill="none" stroke="#000" stroke-linecap="round" stroke-linejoin="round" stroke-width="2" d="m47 31c-0.2804 1.4441-0.9357 2.7891-1.9 3.9 0 0-1.9 3-2.7-1.2-4.2842-1.2-8.8158-1.2-13.1 0-0.8 4.2-2.7 1.2-2.7 1.2-0.7775-1.1859-1.3207-2.5097-1.6-3.9"/><path fill="none" stroke="#000" stroke-linecap="round" stroke-linejoin="round" stroke-width="2" d="m47 31.4c0.3271 3.0586-0.2281 6.1469-1.6 8.9-0.5204 1.0263-1.2333 1.943-2.1 2.7-2.0255 1.8025-4.6964 2.7048-7.4 2.5h-0.3"/></g></svg>