<svg xmlns="http://www.w3.org/2000/svg" id="a" viewBox="0 0 72 72"><g id="b"><path fill="#ea5a47" d="M25.6035,19.3722C26.1094,12.7284,31.5,8.3523,36.5,8.3523c6,0,9.0025,1.39,10.8816,2.3793,10.4928,5.524,8.7806,17.3451,7.9726,22.6407.05-.0038.0952-.02.1458-.02a1.9917,1.9917,0,0,1,1.7272,1.0084,1.9833,1.9833,0,0,1,1.7271,2.9916,1.9832,1.9832,0,0,1-1.727,2.9915,1.9835,1.9835,0,0,1-3.4546,0,1.9833,1.9833,0,0,1-1.7271-2.9915,1.9913,1.9913,0,0,1-.01-2,1.9167,1.9167,0,0,1,.1933-.2494L51.1979,34.62Z"/><path fill="#d22f27" d="M25.9722,19.7192,45.5,19.3523s4-3-1-10c14,4,11.0735,22.8005,11.0837,22.9368-.0188-.0256-.0771.0845-.23,1.0832.05-.0038.0952-.02.1458-.02l-3.4641,2a1.9167,1.9167,0,0,1,.1933-.2494l-1.06.5655Z"/><path fill="#fff" d="m51.5 37.352a4 4 0 1 0 4-4c-2 1-2 1-3.2961 1.7331a3.9814 3.9814 0 0 0-0.7039 2.2669z"/><path fill="#fff" d="M47.3221,19.3523H25.6779a1.0769,1.0769,0,0,0-1.1779.9325V23.42a1.0769,1.0769,0,0,0,1.1779.9325H47.3221A1.077,1.077,0,0,0,48.5,23.42v-3.135A1.077,1.077,0,0,0,47.3221,19.3523Z"/><path fill="#ea5a47" d="M55.48,60.9583H15.9794a1,1,0,0,1-.9375-.6523c-.7813-2.1065-.1074-7.711,2.69-11.3575a9.6931,9.6931,0,0,1,8.9814-3.82,1.0113,1.0113,0,0,1,.544.2246,14.17,14.17,0,0,0,8.0771,3.37l.9336-.0078a14.17,14.17,0,0,0,7.9336-3.3623,1.0113,1.0113,0,0,1,.544-.2246,9.6859,9.6859,0,0,1,8.9814,3.82c2.7979,3.6465,3.4717,9.251,2.69,11.3575A1,1,0,0,1,55.48,60.9583Z"/><path fill="#d22f27" d="m53.727 48.948a9.6857 9.6857 0 0 0-8.9814-3.82 1.0107 1.0107 0 0 0-0.544 0.2247 15.27 15.27 0 0 1-4.7538 2.7008 9.5541 9.5541 0 0 1 7.8249 3.8631 16.137 16.137 0 0 1 2.989 9.0415h5.2179a0.9994 0.9994 0 0 0 0.9375-0.6523c0.7816-2.1069 0.1078-7.7114-2.6901-11.358z"/><path fill="#fff" d="M50.8016,46.3382a9.9735,9.9735,0,0,0-6.0566-1.21,1.0114,1.0114,0,0,0-.543.2246,14.17,14.17,0,0,1-7.9336,3.3623l-.9336.0078a14.17,14.17,0,0,1-8.0771-3.37,1.0114,1.0114,0,0,0-.543-.2246,9.9876,9.9876,0,0,0-6.0556,1.21.9857.9857,0,0,0-.4146,1.2175c.0034.0111.0005.0224.0044.0335,1.5684,4.5439,5.78,7.4492,11.63,8.0634v4.3057a1,1,0,0,0,1,1h5.7031a1,1,0,0,0,1-1V55.6526c5.85-.6142,10.0615-3.52,11.63-8.0634.0039-.0112.0011-.0226.0045-.0338A.9869.9869,0,0,0,50.8016,46.3382Z"/></g><g id="c"><path fill="#6a462f" d="m48.027 24.164a28.816 28.816 0 0 1 0.2523 4.4513 18.802 18.802 0 0 1-3.6565 11.056 10.766 10.766 0 0 1-8.4854 4.5888c-0.065 0-0.131-1e-3 -0.196-0.0019-6.6212-0.1381-11.858-7.3851-11.676-16.155a28.076 28.076 0 0 1 0.349-4.1213h23.325z"/></g><g id="d"><path d="M29.7711,39.0823l-.0075-.0135a16.429,16.429,0,0,1-3.542-10.9746,27.4758,27.4758,0,0,1,.2614-3.4065.9394.9394,0,0,0-.4189-1.1736c-.0121-.0079-.0227-.0163-.0352-.0237a.967.967,0,0,0-.2559-.0935.9048.9048,0,0,0-.1012-.037c-.0234-.0036-.0444.005-.0674.003-.0188-.0011-.0347-.0108-.0537-.0108a.41.41,0,0,1-.1836-.0391l-.0022-.0071c-.0008-.0063-.0047-.0121-.0054-.0184a.9864.9864,0,0,0-.1133-.3466l-.0041-.0127c-.0133-.0237-.0362-.0369-.0511-.0591a.9874.9874,0,0,0-.1862-.2154.946.946,0,0,0-.1177-.0731,1.6367,1.6367,0,0,0-.5142-.1612c-.0212,0-.039.0108-.06.0121a1.7506,1.7506,0,0,0-.3811.1013c-.0166.0082-.0348.0074-.0511.0165a13.5621,13.5621,0,0,1-4.8994,1.3076.999.999,0,0,0-.8769,1.2364c.0879.3505.85,3.2285,2.6533,4.5664.1875,2.3115,1.3564,11.1162,8.2969,11.1162a.9972.9972,0,0,0,.7165-1.6936Z"/><path d="M42.699,39.7759a.9994.9994,0,0,0,1,1c6.94,0,8.1093-8.8047,8.2968-11.1162,1.8037-1.3379,2.5655-4.2159,2.6534-4.5664a.999.999,0,0,0-.877-1.2364,13.5629,13.5629,0,0,1-4.8994-1.3076c-.0162-.0091-.0344-.0083-.051-.0165a1.7545,1.7545,0,0,0-.3811-.1013c-.021-.0013-.0389-.0121-.06-.0121a.9592.9592,0,0,0-.1543.0291.9777.9777,0,0,0-.1533.029.9656.9656,0,0,0-.2066.1031.9448.9448,0,0,0-.1176.0731.9878.9878,0,0,0-.1863.2154c-.0149.0222-.0377.0354-.051.0591l-.0042.0127a.9864.9864,0,0,0-.1133.3466c-.0007.0063-.0046.0121-.0053.0184l-.0022.0071a.4106.4106,0,0,1-.1836.0391c-.0191,0-.0349.01-.0537.0108-.0231.002-.0441-.0066-.0674-.003a.9048.9048,0,0,0-.1012.037.9664.9664,0,0,0-.256.0935c-.0125.0074-.0231.0158-.0352.0237a.94.94,0,0,0-.4189,1.1736,27.4878,27.4878,0,0,1,.2615,3.4065A16.43,16.43,0,0,1,42.99,39.0688l-.0076.0135A.9941.9941,0,0,0,42.699,39.7759Z"/></g><g id="e"><path fill="none" stroke="#000" stroke-linecap="round" stroke-linejoin="round" stroke-width="2" d="m25.521 24.348a27.753 27.753 0 0 0-0.2988 3.747c-0.1723 8.2606 4.6388 15.06 10.746 15.188s11.197-6.4661 11.37-14.727"/><path fill="none" stroke="#000" stroke-linecap="round" stroke-linejoin="round" stroke-width="2" d="m47.338 28.556a27.461 27.461 0 0 0-0.2348-4.2081"/><path d="m42 29.773a2 2 0 1 1-2-2 2.0007 2.0007 0 0 1 2 2"/><path d="m34 29.773a2 2 0 1 1-2-2 2.0007 2.0007 0 0 1 2 2"/><path d="M36,39.7754a7.6524,7.6524,0,0,1-3.4472-.8579,1,1,0,0,1,.8945-1.7891,5.3774,5.3774,0,0,0,5.1055,0,1,1,0,1,1,.8945,1.7891A7.6528,7.6528,0,0,1,36,39.7754Z"/><path fill="none" stroke="#000" stroke-linecap="round" stroke-linejoin="round" stroke-width="2" d="m47.269 19.372a23.783 23.783 0 0 0-0.359-2.7506"/><path fill="none" stroke="#000" stroke-linecap="round" stroke-linejoin="round" stroke-width="2" d="M47.1948,19.3523H25.5506a1.0769,1.0769,0,0,0-1.1779.9325V23.42a1.0769,1.0769,0,0,0,1.1779.9325H47.1948a1.077,1.077,0,0,0,1.1779-.9325v-3.135A1.077,1.077,0,0,0,47.1948,19.3523Z"/><path fill="none" stroke="#000" stroke-linecap="round" stroke-linejoin="round" stroke-width="2" d="M25.4762,19.3722c.5059-6.6438,5.8965-11.02,10.8965-11.02,6,0,9.0025,1.39,10.8816,2.3793,10.4928,5.524,8.7806,17.3451,7.9726,22.6407.05-.0038.0952-.02.1458-.02A1.9917,1.9917,0,0,1,57.1,34.3607a1.9833,1.9833,0,0,1,1.7271,2.9916A1.9832,1.9832,0,0,1,57.1,40.3438a1.9835,1.9835,0,0,1-3.4546,0,1.9833,1.9833,0,0,1-1.7271-2.9915,1.9913,1.9913,0,0,1-.01-2,1.9167,1.9167,0,0,1,.1933-.2494L51.0706,34.62"/><path fill="none" stroke="#000" stroke-linecap="round" stroke-linejoin="round" stroke-width="2" d="M25.4762,19.3722c.5059-6.6438,5.8965-11.02,10.8965-11.02,6,0,9.0025,1.39,10.8816,2.3793,10.4928,5.524,8.7806,17.3451,7.9726,22.6407.05-.0038.0952-.02.1458-.02A1.9917,1.9917,0,0,1,57.1,34.3607a1.9833,1.9833,0,0,1,1.7271,2.9916A1.9832,1.9832,0,0,1,57.1,40.3438a1.9835,1.9835,0,0,1-3.4546,0,1.9833,1.9833,0,0,1-1.7271-2.9915,1.9913,1.9913,0,0,1-.01-2,1.9167,1.9167,0,0,1,.1933-.2494L51.0706,34.62"/><path fill="none" stroke="#000" stroke-linecap="round" stroke-linejoin="round" stroke-width="2" d="m38.582 59.958v-5.225c5.8635-0.3618 10.131-2.969 11.684-7.47"/><path fill="none" stroke="#000" stroke-linecap="round" stroke-linejoin="round" stroke-width="2" d="m55.481 59.958c0.9919-2.6744-0.7759-14.758-10.642-13.834a15.132 15.132 0 0 1-8.5644 3.5915l-1.004 0.0058a15.112 15.112 0 0 1-8.65-3.5973c-9.8654-0.924-11.633 11.16-10.641 13.834"/><path fill="none" stroke="#000" stroke-linecap="round" stroke-linejoin="round" stroke-width="2" d="m21.194 47.263c1.5537 4.5014 5.8209 7.1086 11.684 7.47v5.225"/><path fill="none" stroke="#000" stroke-linecap="round" stroke-linejoin="round" stroke-width="2" d="m24.373 23.42a14.258 14.258 0 0 1-5.2976 1.4325s0.8181 3.2885 2.6488 4.2367c0 0 0.3859 10.686 7.3309 10.686"/><path fill="none" stroke="#000" stroke-linecap="round" stroke-linejoin="round" stroke-width="2" d="m48.381 23.42a14.258 14.258 0 0 0 5.2977 1.4325s-0.8181 3.2885-2.6488 4.2367c0 0-0.3859 10.686-7.3309 10.686"/></g></svg>