<?xml version="1.0" encoding="UTF-8"?>
<svg id="a" viewBox="0 0 72 72" xmlns="http://www.w3.org/2000/svg"><g id="b"><path d="M16.6483,58.8573s-2.1-14.9,9.9-14.9c3.1919,2.1279,6.0264,3.7984,9.1,3.7921l.2749.1c3.0737.0063,5.9081-1.8642,9.1-3.9921,11.5646-.0346,9.509,14.9,9.74,15" fill="#fff"/><circle cx="24.614" cy="54.782" r="3" fill="#9b9b9a"/><path d="m45.077 43.845c-3.17 2.1133-5.275 3.5-9.3375 4.0886 13.062 0.4114 12.962 6.9114 13.725 10.911h5.1128s2.6144-15.002-9.5-15z" fill="#d0cfce"/></g><g id="c"><path d="m26 36.581c-4 0-4-6-4-13s4-14 14-14 14 7 14 14 0 13-4 13" fill="#6a462f"/></g><g id="d"><path d="m24.936 28.581c0 9 4.9365 14 11 14 5.9365 0 11.064-5 11.064-14a12.137 12.137 0 0 0-1-5c-3-3-7-8-7-8-4 3-7 6-13 7.0005 0-5e-4 -1.0635 0.9987-1.0635 5.9995z" fill="#c19a65"/></g><g id="e"><path d="m41.953 27.047a2 2 0 1 1-2-2 2.0007 2.0007 0 0 1 2 2"/><path d="m33.953 27.047a2 2 0 1 1-2-2 2.0007 2.0007 0 0 1 2 2"/><path d="m35.953 37.049a7.6524 7.6524 0 0 1-3.4472-0.8579 1 1 0 1 1 0.8945-1.789 5.3779 5.3779 0 0 0 5.1055 0 1 1 0 1 1 0.8945 1.789 7.6528 7.6528 0 0 1-3.4473 0.8579z"/><circle cx="24.614" cy="54.782" r="3" fill="none" stroke="#000" stroke-linecap="round" stroke-linejoin="round" stroke-width="2"/><path d="m24.614 51.782s-1.3273-5.46 2.2791-9.2021" fill="none" stroke="#000" stroke-linecap="round" stroke-linejoin="round" stroke-width="2"/><path d="m49.916 45.979c6.2065 3.1183 4.8522 11.921 4.8522 11.921" fill="none" stroke="#000" stroke-linecap="round" stroke-linejoin="round" stroke-width="2"/><path d="m28.594 45.99c2.4969 1.5232 4.7846 2.5066 7.2993 2.5014h-0.125a13.364 13.364 0 0 0 6.86-2.2377" fill="none" stroke="#000" stroke-linecap="round" stroke-linejoin="round" stroke-width="2"/><path d="m16.893 57.9s-1.4346-9.3251 5.4161-12.18" fill="none" stroke="#000" stroke-linecap="round" stroke-linejoin="round" stroke-width="2"/><path d="M44.4576,42.58c1.5847,1.6445,2.4274,5.3192,2.4274,5.3192-3.4246.1134-3.3095,3.8829-3.3095,3.8829s-.7793,5.5625,1.6548,5.4316L45.0658,58.83l.2835-2.963" fill="none" stroke="#000" stroke-linecap="round" stroke-linejoin="round" stroke-width="2"/><path d="M47.2913,47.8989c3.4246.1134,3.31,3.8829,3.31,3.8829s.7793,5.5625-1.6549,5.4316l.1645,1.6162-.2835-2.963" fill="none" stroke="#000" stroke-linecap="round" stroke-linejoin="round" stroke-width="2"/><line x1="29.953" x2="35.61" y1="46.767" y2="57.9" fill="none" stroke="#000" stroke-linecap="round" stroke-linejoin="round" stroke-width="2"/><line x1="41.268" x2="35.61" y1="46.997" y2="57.9" fill="none" stroke="#000" stroke-linecap="round" stroke-linejoin="round" stroke-width="2"/><path d="m26 36.581c-4 0-4-6-4-13s4-14 14-14 14 7 14 14 0 13-4 13" fill="none" stroke="#000" stroke-linecap="round" stroke-linejoin="round" stroke-width="2"/><path d="m24.936 28.581c0 9 4.9365 14 11 14 5.9365 0 11.064-5 11.064-14a12.137 12.137 0 0 0-1-5c-3-3-7-8-7-8-4 3-7 6-13 7.0005 0-5e-4 -1.0635 0.9987-1.0635 5.9995z" fill="none" stroke="#000" stroke-linejoin="round" stroke-width="2"/></g></svg>
