<svg xmlns="http://www.w3.org/2000/svg" id="a" version="1.1" viewBox="0 0 72 72"><g id="b"><path d="m26.1 39.2c-4 0-4-6-4-13s4-14 14-14 14 7 14 14 0 13-4 13"/></g><g id="c"><path fill="#6a462f" d="m24.949 31.1c0 9 4.9 14 11 14 5.9 0 11.1-5 11.1-14 0.0246-1.7187-0.3163-3.423-1-5-3-3-7-8-7-8-4 3-7 6-13 7 0 0-1.1 1-1.1 6z"/></g><g id="d"><path fill="#D22F27" d="m35.65 45.1c-3.4-0.1-8.6-5.7-8.6-5.7h-13.6c1.5916 2.7161 3.0272 5.5207 4.3 8.4 1.281 3.1916 2.2196 6.5102 2.8 9.9h30.9c0.5804-3.3898 1.519-6.7084 2.8-9.9 1.2728-2.8793 2.7084-5.6839 4.3-8.4h-13.9c0.1 0-5.5 5.7-9 5.7z"/><path fill="#3F3F3F" d="M17,61v-3.8c0-5,5-9,10-9c6,5,12,5,18,0c5,0,10,4,10,9V61H17z"/><path d="m31.45 61h9c3.6-2.9 5.6-13.5 5.6-13.5-5.7672 5-14.333 5-20.1 0 0-0.1 2 10.5 5.5 13.5z"/></g><g id="e"><path fill="none" stroke="#000" stroke-linejoin="round" stroke-width="2" d="m26.5 39.4h-13.1c1.6694 2.6727 3.1079 5.4829 4.3 8.4 0.5072 1.2402 0.9413 2.509 1.3 3.8"/><path fill="none" stroke="#000" stroke-linejoin="round" stroke-width="2" d="m53 51.4c0.4-1.2 0.8-2.4 1.3-3.6 1.1713-2.9266 2.6108-5.7385 4.3-8.4h-13.9"/><path d="m42 30.1c0 1.1046-0.8954 2-2 2s-2-0.8954-2-2 0.8954-2 2-2c1.1032 0.0032 1.9968 0.8968 2 2"/><path d="m34 30.1c0 1.1046-0.8954 2-2 2s-2-0.8954-2-2 0.8954-2 2-2c1.1032 0.0032 1.9968 0.8968 2 2"/><path fill="none" stroke="#000" stroke-linecap="round" stroke-linejoin="round" stroke-width="2" d="m33 39c1.875-1 4.125-1 6 0"/><path fill="none" stroke="#000" stroke-linecap="round" stroke-linejoin="round" d="m38 38.5c0.2408 0.0816 0.4748 0.1819 0.7 0.3"/><path fill="none" stroke="#000" stroke-linecap="round" stroke-linejoin="round" stroke-width="2" d="m17 60v-3c0-5 5-9 10-9 6 5 12 5 18 0 5 0 10 4 10 9v3"/><polygon stroke="#000" stroke-linecap="round" stroke-linejoin="round" points="34 38.7 34.3 41.1 35.1 38.8 35 38.7"/><polygon stroke="#000" stroke-linecap="round" stroke-linejoin="round" points="37.9 38.7 37.7 41.1 36.9 38.8 36.8 38.7"/><path fill="none" stroke="#000" stroke-linejoin="round" stroke-width="2" d="m24.949 31.1c0 9 4.9 14 11 14 5.9 0 11.1-5 11.1-14 0.0246-1.7187-0.3163-3.423-1-5-3-3-7-8-7-8-4 3-7 6-13 7 0 0-1.1 1-1.1 6z"/><path fill="none" stroke="#000" stroke-linecap="round" stroke-linejoin="round" stroke-width="2" d="m26 39.1c-4 0-4-6-4-13s4-14 14-14 14 7 14 14 0 13-4 13"/></g></svg>