<svg xmlns="http://www.w3.org/2000/svg" id="a" viewBox="0 0 72 72"><g id="b"><path fill="#9b9b9a" d="m50.902 27.521c0 1.2253-0.1469 2.4164-0.4241 3.5564-1.5969 6.5676-7.5169 11.444-14.576 11.444-7.0588 0-12.979-4.8758-14.576-11.443-0.2772-1.1402-0.4242-2.3314-0.4242-3.5569 0-8.2843 6.7157-15 15-15s15 6.7157 15 15z"/><path fill="#d0cfce" d="m31.931 12.927s-6.5188 2.2396-9.1842 7.3842c-1.1602 2.1133-3.0061 3.5059-1.4206 10.766 1.5855 7.2605 10.56 11.047 10.56 11.047 5.4844-1.2857 9.8095-5.5807 11.139-11.048 0.2773-1.1401 0.424-2.3311 0.424-3.5564 0-7.0857-4.9128-13.024-11.518-14.594z"/><path fill="#d0cfce" d="m16.764 58.738s-2-13.5 10-13.5c3.1919 2.1279 5.9264 3.5984 9 3.5922h-0.125c3.0736 0.0062 5.5082-2.1643 8.7-4.2922 15.57 0 10.7 14.2 10.7 14.2"/><rect width="15.561" height="5.824" x="28.45" y="52.893" fill="#9b9b9a"/><path fill="#9b9b9a" d="m44.745 45.666c-3.1699 2.1132-4.875 3-8.9375 3.5885 13.062 0.4115 13.062 5.4115 13.825 9.4115h5.1129s2-13-10-13z"/></g><g id="c"><path fill="#6a462f" stroke="#6a462f" d="m47.117 26.548c-0.365-2.5625-13.943-8.544-22.21-0.8061 0 0-0.3152 1.9842-0.3152 3.1318 0 7.8276 5.0766 14.173 11.339 14.173 6.262 0 11.338-6.3456 11.338-14.173 0-0.7922 0.2131 0.2368-0.1518-2.3257z"/></g><g id="d"><path d="m34.795 58.708c0.0426-0.1623 0.0653-0.3327 0.0653-0.5083 0-1.1035-0.8965-2-2-2h0.0068c-1.1035 0-2 0.8965-2 2 0 0.1756 0.0227 0.346 0.0653 0.5083"/><path d="m41.497 58.708c0.0426-0.1623 0.0653-0.3327 0.0653-0.5083 0-1.1035-0.8965-2-2-2h0.0068c-1.1035 0-2 0.8965-2 2 0 0.1756 0.0227 0.346 0.0653 0.5083"/><path fill="none" stroke="#000" stroke-linecap="round" stroke-linejoin="round" stroke-miterlimit="10" stroke-width="2" d="m16.87 57.807s-2-13 10-13c3.1918 2.1279 5.9264 3.5984 9 3.5921h-0.125c3.0736 0.0063 5.8081-1.4642 9-3.5921 12 0 10 13 10 13"/><path fill="none" stroke="#000" stroke-linecap="round" stroke-linejoin="round" stroke-miterlimit="10" stroke-width="2" d="m47.792 28.076c-0.2095-0.3905-0.4467-0.7659-0.7094-1.1234-1.1918-1.6212-2.9103-2.8724-4.9635-3.4745-2.1203-0.6217-4.1294-0.903-6.2164-0.8438-2.0871-0.0592-4.0963 0.2221-6.2165 0.8438-2.5057 0.7348-4.513 2.4362-5.6725 4.5972"/><line x1="53.864" x2="53.864" y1="25.456" y2="30.227" fill="none" stroke="#000" stroke-linecap="round" stroke-linejoin="round" stroke-miterlimit="10" stroke-width="2"/><line x1="17.751" x2="17.751" y1="25.456" y2="30.227" fill="none" stroke="#000" stroke-linecap="round" stroke-linejoin="round" stroke-miterlimit="10" stroke-width="2"/><polyline fill="none" stroke="#000" stroke-linecap="round" stroke-linejoin="round" stroke-miterlimit="10" stroke-width="2" points="43.83 57.785 43.83 52.977 28.57 52.977 28.57 57.785"/><path d="m41.93 26.954c0 1.1045-0.8965 2-2 2s-2-0.8955-2-2c0-1.1035 0.8965-2 2-2s2 0.8965 2 2"/><path d="m33.93 26.954c0 1.1045-0.8965 2-2 2s-2-0.8955-2-2c0-1.1035 0.8965-2 2-2s2 0.8965 2 2"/><path d="m35.93 36.957c-1.1519 0-2.3037-0.2861-3.4473-0.8579-0.4941-0.2471-0.6943-0.8476-0.4472-1.3418 0.2465-0.4936 0.8462-0.6943 1.3418-0.4473 1.7177 0.8594 3.3877 0.8594 5.1054 0 0.4947-0.247 1.0948-0.0463 1.3418 0.4473 0.2471 0.4942 0.0469 1.0947-0.4472 1.3418-1.1436 0.5718-2.2954 0.8579-3.4473 0.8579z"/><path fill="none" stroke="#000" stroke-miterlimit="10" stroke-width="2" d="m46.235 34.236c0.6636-1.8017 1.0338-3.8073 1.0338-5.921 0-0.3873-0.0125-0.771-0.0368-1.1505"/><path fill="none" stroke="#000" stroke-miterlimit="10" stroke-width="2" d="m24.634 27.077c-0.0283 0.408-0.0427 0.821-0.0427 1.2382 0 7.8277 5.0765 14.173 11.339 14.173"/><path fill="none" stroke="#000" stroke-linecap="round" stroke-miterlimit="10" stroke-width="2" d="m36.556 39.343s7.0406-0.0053 9.5918-5.1389"/><path fill="none" stroke="#000" stroke-linecap="round" stroke-linejoin="round" stroke-miterlimit="10" stroke-width="2" d="m50.902 27.521c0 1.2253-0.1469 2.4164-0.4241 3.5564-1.5969 6.5676-7.5169 11.444-14.576 11.444-7.0588 0-12.979-4.8758-14.576-11.443-0.2772-1.1402-0.4242-2.3314-0.4242-3.5569 0-8.2843 6.7157-15 15-15s15 6.7157 15 15z"/></g></svg>