<svg xmlns="http://www.w3.org/2000/svg" id="a" version="1.1" viewBox="0 0 72 72"><g id="b"><path fill="#92D3F5" d="m17.283 58.824s-2-13.5 10-13.5c3.1918 2.1279 5.9264 3.5984 9 3.5921h-0.125c3.0736 0.0063 4.7081-2.1642 7.9-4.2921 15.57-1e-4 11.5 14.2 11.5 14.2"/><polygon fill="#fff" points="35.537 55.498 32.298 51.566 29.059 47.634 35.537 47.634 42.015 47.634 38.776 51.566"/><path fill="#61B2E4" d="m26.53 44.92s-5.9003 4.0266-2.161 7.4669h4.5729l-0.8335 3.7419 7.8919 1.9525 0.2903-2.5055-8.3606-10.364"/><polygon fill="#D0CFCE" points="67.087 43.422 60.137 59.772 35.147 59.772 42.097 43.422"/><polygon fill="#9B9B9A" points="67.303 43.422 60.353 59.772 60.133 59.772 51.363 59.772 58.313 43.422 67.083 43.422"/></g><g id="c"><path fill="#6a462f" d="m26 36.581c-4 0-4-6-4-13s4-14 14-14 14 7 14 14 0 13-4 13"/></g><g id="d"><path fill="#c19a65" d="m24.936 28.581c0 9 4.9365 14 11 14 5.9365 0 11.064-5 11.064-14 0.0245-1.7187-0.3164-3.4229-1-5-3-3-7-8-7-8-4 3-7 6-13 7.0005 0-5e-4 -1.0635 0.9987-1.0635 5.9995z"/></g><g id="e"><path d="m16.917 58.919c-0.4844 1e-3 -0.9102-0.3525-0.9863-0.8466-0.0411-0.2696-0.9727-6.6328 2.581-10.775 1.9229-2.2412 4.751-3.377 8.4072-3.377 0.1973 0 0.3907 0.0586 0.5547 0.168 3.1631 2.1084 5.6758 3.418 8.4053 3.4238h0.04c0.5518 0 0.9991 0.4473 1 0.999 1e-3 0.5518-0.4462 1-0.998 1.001h-2e-3 -0.0029c-0.0107-1e-3 -0.0254-1e-3 -0.0381 0h-0.084c-0.0146 0-0.0302 0-0.0449-1e-3 -3.0986-0.0419-5.8164-1.4023-9.1269-3.5878-2.8965 0.0566-5.1104 0.9541-6.586 2.6689-2.956 3.4365-2.1377 9.1201-2.1289 9.1777 0.083 0.545-0.292 1.0547-0.8379 1.1387-0.0507 0.0078-0.1015 0.0107-0.1523 0.0107z"/><path d="m33.996 55.283c-0.294 0-0.584-0.1279-0.7813-0.375l-7.2646-9.0713c-0.3457-0.4306-0.2764-1.0605 0.1553-1.4053 0.4326-0.3486 1.0615-0.2753 1.4052 0.1553l7.2647 9.0713c0.3457 0.4307 0.2764 1.0606-0.1553 1.4053-0.1846 0.1484-0.4053 0.2197-0.624 0.2197z"/><path d="m33.007 57.356c-0.0742 0-0.1494-0.0078-0.2255-0.0254l-4.8975-1.127c-0.2686-0.0615-0.499-0.2314-0.6387-0.4697-0.1387-0.2373-0.1738-0.5225-0.0967-0.7861l0.458-1.5606h-3.2373c-0.2509 0-0.4921-0.0947-0.6767-0.2637-1.4043-1.2919-1.6201-2.6455-1.5537-3.5546 0.2129-2.9268 3.459-5.2227 3.8281-5.4746 0.4551-0.3116 1.0762-0.1934 1.3877 0.2617 0.3115 0.455 0.1953 1.0771-0.2598 1.3896-0.7832 0.5381-2.8427 2.3008-2.9619 3.9717-0.042 0.5918 0.1709 1.1406 0.6504 1.6699h4.1592c0.3154 0 0.6113 0.1485 0.8008 0.4004 0.1884 0.2529 0.247 0.5791 0.1591 0.8809l-0.5351 1.8242 3.8633 0.8887c0.5381 0.124 0.874 0.6601 0.75 1.1992-0.1065 0.4619-0.5186 0.7754-0.9737 0.7754z"/><polygon fill="none" stroke="#000" stroke-linecap="round" stroke-linejoin="round" stroke-miterlimit="10" stroke-width="2" points="35.147 59.772 60.137 59.772 67.087 43.422 42.097 43.422"/><line x1="24.177" x2="35.147" y1="59.772" y2="59.772" fill="none" stroke="#000" stroke-linecap="round" stroke-linejoin="round" stroke-miterlimit="10" stroke-width="2"/><path d="m41.953 27.047c0 1.1046-0.8954 2-2 2s-2-0.8954-2-2 0.8954-2 2-2c1.1044 4e-4 1.9996 0.8956 2 2"/><path d="m33.953 27.047c0 1.1046-0.8954 2-2 2s-2-0.8954-2-2 0.8954-2 2-2c1.1044 4e-4 1.9996 0.8956 2 2"/><path d="m35.953 37.049c-1.2005-0.0116-2.3813-0.3055-3.4472-0.8579-0.494-0.247-0.6943-0.8477-0.4473-1.3418s0.8477-0.6943 1.3418-0.4473c1.5934 0.8593 3.5121 0.8593 5.1055 0 0.494-0.247 1.0947-0.0468 1.3418 0.4473s0.0468 1.0947-0.4473 1.3418c-1.0659 0.5524-2.2468 0.8463-3.4473 0.8579z"/><path fill="none" stroke="#000" stroke-linecap="round" stroke-linejoin="round" stroke-width="2" d="m26 36.581c-4 0-4-6-4-13s4-14 14-14 14 7 14 14 0 13-4 13"/><path fill="none" stroke="#000" stroke-linejoin="round" stroke-width="2" d="m24.936 28.581c0 9 4.9365 14 11 14 5.9365 0 11.064-5 11.064-14 0.0245-1.7187-0.3164-3.4229-1-5-3-3-7-8-7-8-4 3-7 6-13 7.0005 0-5e-4 -1.0635 0.9987-1.0635 5.9995z"/><path d="m41.471 32.668h-2.0078c-1.5479 0-2.8828-0.9258-3.4815-2.253-0.5976 1.3272-1.9335 2.253-3.4804 2.253h-2.0078c-2.1045 0-3.8164-1.7119-3.8164-3.8164v-1.2378h-0.6924c-0.5528 0-1-0.4478-1-1 0-0.5523 0.4472-1 1-1h1.6924c0.5527 0 1 0.4477 1 1v2.2378c0 1.0019 0.8144 1.8164 1.8164 1.8164h2.0078c1.001 0 1.8154-0.8145 1.8154-1.8164v-1.104c0-0.5523 0.4473-1 1-1h1.3301c0.5527 0 1 0.4477 1 1v1.104c0 1.0019 0.8144 1.8164 1.8164 1.8164h2.0078c1.001 0 1.8154-0.8145 1.8154-1.8164v-2.2378c0-0.5523 0.4473-1 1-1h1.1573c0.5527 0 1 0.4477 1 1 0 0.5522-0.4473 1-1 1h-0.1573v1.2378c0 2.1045-1.7119 3.8164-3.8154 3.8164z"/></g></svg>