<svg xmlns="http://www.w3.org/2000/svg" id="a" version="1.1" viewBox="0 0 72 72"><g id="b"><polyline fill="#5C9E31" points="13.886 52.097 10.83 52.097 10.83 16.914 19.822 16.914 36.328 16.914 52.039 16.914 60.766 16.914 60.766 52.097 56.681 52.097"/><path fill="#6A462F" d="m53.88 58.999s2.7-14.138-9.3-14.138c-3.1919 2.1192-5.9264 3.5837-9 3.5775h0.125c-3.0736 0.0062-5.8082-1.4583-9-3.5775-12 0-10 14.138-10 14.138"/><polygon fill="#3F3F3F" points="44.58 45.364 47.15 54.404 41.53 54.164 41.62 58.954 35.74 57.354 35.83 57.324 35.74 57.194"/><path fill="#D0CFCE" d="m44.48 45.214 0.1 0.15-8.84 11.83-8.85-11.83 0.16-0.24c3.08 2.05 5.75 3.46 8.72 3.49h0.03 0.09c2.93-0.03 5.56-1.4 8.59-3.4z"/><polygon fill="#3F3F3F" points="35.74 57.194 35.64 57.324 35.74 57.354 29.85 58.954 29.94 54.164 24.32 54.404 26.89 45.364"/></g><g id="c"><path d="m26 36.581c-4 0-4-6-4-13s4-14 14-14 14 7 14 14 0 13-4 13"/></g><g id="d"><path fill="#6a462f" d="m24.936 28.581c0 9 4.9365 14 11 14 5.9365 0 11.064-5 11.064-14 0.0245-1.7187-0.3164-3.4229-1-5-3-3-7-8-7-8-4 3-7 6-13 7.0005 0-5e-4 -1.0635 0.9987-1.0635 5.9995z"/></g><g id="e"><path d="m22.965 17.91h-11.135v32.29h2.06c0.55 0 1 0.44 1 1 0 0.55-0.45 1-1 1h-3.06c-0.55 0-1-0.45-1-1v-34.29c0-0.55 0.45-1 1-1h13.058l-0.9227 2z"/><path d="m48.15 15.91h12.62c0.55 0 1 0.4499 1 1v34.29c0 0.55-0.45 1-1 1h-2.59c-0.55 0-1-0.45-1-1 0-0.56 0.45-1 1-1h1.59v-32.29h-10.74l-0.8803-2z"/><path d="m47.15 27.3h-1.96v1.24c0 2.11-1.71 3.82-3.81 3.82h-2.01c-1.55 0-2.88-0.93-3.48-2.25-0.6 1.32-1.94 2.25-3.48 2.25h-2.01c-2.11 0-3.82-1.71-3.82-3.82v-1.24h-0.69c-0.45 0-0.83-0.3-0.95-0.71 0.23-0.38 0.44-0.8 0.62-1.23 0.1-0.04 0.21-0.06 0.33-0.06h1.69c0.05 0 0.1 0 0.15 0.01 0.49 0.08 0.85 0.49 0.85 0.99v2.24c0 1 0.82 1.82 1.82 1.82h2.01c1 0 1.81-0.82 1.81-1.82v-1.1c0-0.55 0.45-1 1-1h1.33c0.56 0 1 0.45 1 1v1.1c0 1 0.82 1.82 1.82 1.82h2.01c1 0 1.81-0.82 1.81-1.82v-2.24c0-0.55 0.45-1 1-1h2.406l0.554 2z"/><path fill="none" stroke="#000" stroke-linecap="round" stroke-linejoin="round" stroke-miterlimit="10" stroke-width="2" d="m16.89 58.024s-2-13 10-13c0.05 0.04 0.11 0.07 0.16 0.1 3.08 2.05 5.75 3.46 8.72 3.49h0.03 0.09c2.93-0.03 5.56-1.4 8.59-3.4 0.1-0.06 0.19-0.12 0.29-0.19 3.99 0 6.43 1.44 7.92 3.36l0.78 1.26"/><polygon fill="none" stroke="#000" stroke-linecap="round" stroke-linejoin="round" stroke-miterlimit="10" stroke-width="2" points="35.74 57.194 35.83 57.324 35.74 57.354 29.85 58.954 29.94 54.164 24.32 54.404 26.89 45.364"/><polygon fill="none" stroke="#000" stroke-linecap="round" stroke-linejoin="round" stroke-miterlimit="10" stroke-width="2" points="35.74 57.194 35.64 57.324 35.74 57.354 41.62 58.954 41.53 54.164 47.15 54.404 44.58 45.364"/><path d="m53.044 58.752c-0.5096 0-0.9023-0.4491-0.8345-0.9541l3.3718-26.503-1.4138 26.672c-0.0297 0.4421-0.6804 0.7855-1.1235 0.7855z"/><path d="m53.044 59.503c-0.4599 0-0.8964-0.1982-1.1982-0.5439-0.3027-0.3467-0.4404-0.8057-0.3789-1.2608l3.3701-26.498c0.0508-0.3994 0.3975-0.6895 0.8115-0.6523 0.4014 0.0361 0.7032 0.3837 0.6817 0.7871l-1.4131 26.672c-0.0664 0.9678-1.1494 1.4961-1.8731 1.4961zm0.71-7.9004-0.7998 6.2911 0.0898 0.1093c0.1153 0 0.3028-0.0859 0.379-0.1572l0.331-6.2432z"/><path d="m41.953 27.047c0 1.1046-0.8954 2-2 2s-2-0.8954-2-2 0.8954-2 2-2c1.1044 4e-4 1.9996 0.8956 2 2"/><path d="m33.953 27.047c0 1.1046-0.8954 2-2 2s-2-0.8954-2-2 0.8954-2 2-2c1.1044 4e-4 1.9996 0.8956 2 2"/><path d="m35.953 37.049c-1.2005-0.0116-2.3813-0.3055-3.4472-0.8579-0.494-0.247-0.6943-0.8477-0.4473-1.3418s0.8477-0.6943 1.3418-0.4473c1.5934 0.8593 3.5121 0.8593 5.1055 0 0.494-0.247 1.0947-0.0468 1.3418 0.4473s0.0468 1.0947-0.4473 1.3418c-1.0659 0.5524-2.2468 0.8463-3.4473 0.8579z"/><path fill="none" stroke="#000" stroke-linecap="round" stroke-linejoin="round" stroke-width="2" d="m26 36.581c-4 0-4-6-4-13s4-14 14-14 14 7 14 14 0 13-4 13"/><path fill="none" stroke="#000" stroke-linejoin="round" stroke-width="2" d="m24.936 28.581c0 9 4.9365 14 11 14 5.9365 0 11.064-5 11.064-14 0.0245-1.7187-0.3164-3.4229-1-5-3-3-7-8-7-8-4 3-7 6-13 7.0005 0-5e-4 -1.0635 0.9987-1.0635 5.9995z"/></g></svg>