<svg xmlns="http://www.w3.org/2000/svg" id="a" version="1.1" viewBox="0 0 72 72"><g id="b"><path fill="#fff" d="m54.778 58.592s2-13.797-10-13.797c-3.1919 2.1192-5.9264 3.5837-9 3.5775h0.125c-3.0736 0.0062-5.8082-1.4583-9-3.5775-12 0-10 13.797-10 13.797"/><path fill="#61B2E4" d="m26.902 44.795c-12 0-10 13.967-10 13.967h15.893s-4.4214-3.2647-5.8934-13.967"/><path fill="#61B2E4" d="m44.778 44.795c12 0 10 13.967 10 13.967h-15.748s5.4224-7.4433 5.748-13.967"/><path fill="#92D3F5" d="m33.533 48.284s-1.2063 6.0214 2.3073 6.0214c3.5135 0 2.3072-6.0214 2.3072-6.0214"/><rect width="4" height="10.43" x="59.386" y="38.782" fill="#9B9B9A" transform="matrix(.7071 -.7071 .7071 .7071 -13.13 56.293)"/><ellipse cx="54.662" cy="37.461" fill="#D0CFCE" rx="4" ry="4"/><path fill="#92D3F5" d="m34.99 54.488-2.4152 3.6378c-3.6298-1.7539-5.6719-12.962-5.6719-12.962l-5.1046 6.9347 2.974 1.842-0.9985 3.1134 8.8689 1.0721"/><polygon fill="#92D3F5" points="35.679 54.096 37.469 56.706 38.976 58.75 32.665 58.75 34.172 56.706"/><path fill="#92D3F5" d="m36.69 54.488 2.4151 3.6378c3.6298-1.7539 5.672-12.962 5.672-12.962l5.1045 6.9347-2.974 1.842 0.9985 3.1134-8.8689 1.0721"/></g><g id="c"><path d="m26 35.081c-4 0-4-4.5-4-11.5s4-14 14-14 14 7 14 14 0 11.5-4 11.5"/></g><g id="d"><path fill="#a57939" d="m24.936 28.581c0 9 4.9365 14 11 14 5.9365 0 11.064-5 11.064-14 0.0245-1.7187-0.3164-3.4229-1-5-3-3-7-8-7-8-4 3-7 6-13 7.0005 0-5e-4 -1.0635 0.9987-1.0635 5.9995z"/></g><g id="e"><ellipse cx="54.662" cy="37.461" fill="none" stroke="#000" stroke-linecap="round" stroke-linejoin="round" stroke-miterlimit="10" stroke-width="2" rx="4" ry="4"/><line x1="65.091" x2="67.138" y1="47.667" y2="49.714" fill="none" stroke="#000" stroke-linecap="round" stroke-linejoin="round" stroke-miterlimit="10" stroke-width="2"/><line x1="58.893" x2="58.893" y1="44.664" y2="57.864" fill="none" stroke="#000" stroke-linecap="round" stroke-linejoin="round" stroke-miterlimit="10" stroke-width="2"/><path fill="none" stroke="#000" stroke-linecap="round" stroke-linejoin="round" stroke-miterlimit="10" stroke-width="2" d="m33.533 48.098s-1.2063 6.0215 2.3073 6.0215c3.5135 0 2.3072-6.0215 2.3072-6.0215"/><path fill="none" stroke="#000" stroke-linecap="round" stroke-linejoin="round" stroke-miterlimit="10" stroke-width="2" d="m34.99 54.119-2.4152 3.6377c-3.6298-1.7538-5.6719-12.962-5.6719-12.962l-5.1046 6.9346 2.974 1.842-0.9985 3.1134 8.8689 1.0721"/><path fill="none" stroke="#000" stroke-linecap="round" stroke-linejoin="round" stroke-miterlimit="10" stroke-width="2" d="m36.69 54.119 2.4151 3.6377c3.6298-1.7538 5.672-12.962 5.672-12.962l5.1045 6.9346-2.974 1.842 0.9985 3.1134-8.8689 1.0721"/><path fill="none" stroke="#000" stroke-linecap="round" stroke-linejoin="round" stroke-miterlimit="10" stroke-width="2" d="m16.902 57.795s-2-13 10-13c3.1918 2.1279 5.9264 3.5984 9 3.5921h-0.125c3.0736 0.0063 5.8081-1.4642 9-3.5921 12 0 10 13 10 13"/><path fill="none" stroke="#000" stroke-linecap="round" stroke-linejoin="round" stroke-width="2" d="m26 35.081c-4 0-4-4.5-4-11.5s4-14 14-14 14 7 14 14 0 11.5-4 11.5"/><path fill="none" stroke="#000" stroke-linejoin="round" stroke-width="2" d="m24.936 28.581c0 9 4.9365 14 11 14 5.9365 0 11.064-5 11.064-14 0.0245-1.7187-0.3164-3.4229-1-5-3-3-7-8-7-8-4 3-7 6-13 7.0005 0-5e-4 -1.0635 0.9987-1.0635 5.9995z"/><path d="m33.953 27.047c0 1.1046-0.8954 2-2 2s-2-0.8954-2-2 0.8954-2 2-2c1.1044 4e-4 1.9996 0.8956 2 2"/><path d="m35.953 37.049c-1.2005-0.0116-2.3813-0.3055-3.4472-0.8579-0.494-0.247-0.6943-0.8477-0.4473-1.3418s0.8477-0.6943 1.3418-0.4473c1.5934 0.8593 3.5121 0.8593 5.1055 0 0.494-0.247 1.0947-0.0468 1.3418 0.4473s0.0468 1.0947-0.4473 1.3418c-1.0659 0.5524-2.2468 0.8463-3.4473 0.8579z"/><path d="m41.953 27.047c0 1.1046-0.8954 2-2 2s-2-0.8954-2-2 0.8954-2 2-2c1.1044 4e-4 1.9996 0.8956 2 2"/><rect width="4" height="10.43" x="59.386" y="38.782" fill="none" stroke="#000" stroke-linecap="round" stroke-linejoin="round" stroke-miterlimit="10" stroke-width="2" transform="matrix(.7071 -.7071 .7071 .7071 -13.13 56.293)"/></g></svg>