<svg xmlns="http://www.w3.org/2000/svg" id="a" viewBox="0 0 72 72"><g id="b"><path fill="#ffa7c0" d="m54.925 60.932s2-14.027-10-14.027c-3.1919 2.1279-5.9264 3.5984-9 3.5921h0.125c-3.0736 0.0063-5.8082-1.4642-9-3.5921-12 0-10 14.027-10 14.027z"/><path fill="#e67a94" d="m45.311 46.905a18.013 18.013 0 0 1-8.9375 3.5885c13.062 0.4115 12.978 6.395 13.74 10.395h5.1129s2.0846-13.984-9.9154-13.984z"/><polyline fill="#6a462f" points="18.058 52.064 18.058 42.499 25.143 42.499 25.143 46.063"/><path fill="#a57939" d="m47.97 60.958c-18.499-5.1358-20.92-14.054-20.92-14.054s-4.2 0.2046-5.6776 1.3537c3.1163 6.4287 5.9346 9.5505 14.104 12.681"/></g><g id="c" fill="#fcea2b"><path d="m38.156 20.756a9.3946 9.3946 0 0 1-2.18-5.054c-0.028 0-0.0549-0.0052-0.0829-0.0052a8.2719 8.2719 0 0 1-1.98 5.0591 10.877 10.877 0 0 1-8.7937 4.7087 17.399 17.399 0 0 0-0.5656 4.4052c0 7.8277 5.0765 14.173 11.339 14.173s11.339-6.3455 11.339-14.173a17.345 17.345 0 0 0-0.6258-4.6109 9.7529 9.7529 0 0 1-8.4496-4.5029z"/><path d="m46.678 24.699 11.45-1.6359s-6.2678 9.8488-10.494 8.7989"/><path d="m25.569 24.68-11.318-1.617s6.1888 9.7351 10.366 8.697"/></g><g id="d" fill="#f4aa41"><path d="m35.862 11.919a15.35 15.35 0 0 0-15.136 12.846c8.8261 3.0574 13.156-3.9388 13.156-3.9388a8.2716 8.2716 0 0 0 1.98-5.0592h0.0826a9.3969 9.3969 0 0 0 2.18 5.0592s3.413 6.46 12.873 3.93a15.351 15.351 0 0 0-15.135-12.837z"/><path d="M47.2631,32.3374l4.8794-1.5357s-.943,1.64,1.023,3.999C54.8648,36.84,58.31,38.54,57.38,42.0739a9.8857,9.8857,0,0,0,2.8549,9.9242c3.4065,3.23.0162,8.9354.0162,8.9354H54.8394c1.767-13.95-9.5789-13.8569-9.5789-13.8569-10.4159,8.0909-17.3908,0-17.3908,0l-2.139.372-.093-4.371-7.6259-.186.2789,9.3-1.2285,8.7H11.6085c-3.19-7.3723-.3577-8.8028,1.5455-11.1139,1.4022-1.7026,1.7421-7.0244,1.7421-7.0244s-1.7374-3.9066,2.4935-7.603c3.5625-3.1125,2.4133-4.8758,2.4133-4.8758L24.57,32.4385S28.895,44.64,35.4185,44.08c7.2879-.6255,10.248-3.8931,11.8446-11.7429"/></g><g id="e"><path d="m42.01 28.552a2 2 0 1 1-2-2 2.0007 2.0007 0 0 1 2 2"/><path d="m34.01 28.552a2 2 0 1 1-2-2 2.0007 2.0007 0 0 1 2 2"/><path d="M36.01,38.554a7.6528,7.6528,0,0,1-3.4473-.8579,1,1,0,0,1,.8945-1.7891,5.3774,5.3774,0,0,0,5.1055,0,1,1,0,1,1,.8945,1.7891A7.6524,7.6524,0,0,1,36.01,38.554Z"/><path fill="none" stroke="#000" stroke-linecap="round" stroke-linejoin="round" stroke-width="2" d="m50.958 24.113c-4.4734-13.621-14.948-12.221-14.948-12.221s-10.353-1.3834-14.869 11.986"/><path fill="none" stroke="#000" stroke-linecap="round" stroke-linejoin="round" stroke-width="2" d="m25.456 24.699-11.318-1.6171s6.1889 9.7351 10.366 8.6973"/><path fill="none" stroke="#000" stroke-linecap="round" stroke-linejoin="round" stroke-width="2" d="m46.565 24.718 11.45-1.6359s-6.2678 9.8488-10.494 8.7989"/><circle cx="36.01" cy="22.113" r="1.5"/><path fill="none" stroke="#000" stroke-linecap="round" stroke-linejoin="round" stroke-width="2" d="m36.01 15.739a20.458 20.458 0 0 1-3.08 5.0592"/><path fill="none" stroke="#000" stroke-linecap="round" stroke-linejoin="round" stroke-width="2" d="m36.01 15.739a20.456 20.456 0 0 0 3.08 5.0592"/><polyline fill="none" stroke="#000" stroke-linecap="round" stroke-linejoin="round" stroke-width="2" points="18.082 52.072 18.082 42.506 25.167 42.506 25.167 46.071"/><line x1="20.016" x2="20.016" y1="42.468" y2="37.724" fill="none" stroke="#000" stroke-linecap="round" stroke-linejoin="round" stroke-width="2"/><line x1="23.387" x2="23.387" y1="42.506" y2="39.065" fill="none" stroke="#000" stroke-linecap="round" stroke-linejoin="round" stroke-width="2"/><path fill="none" stroke="#000" stroke-linecap="round" stroke-linejoin="round" stroke-width="2" d="M54.9479,59.9124s2-13-10-13c-3.1919,2.1279-5.9264,3.5984-9,3.5921h.125c-3.0736.0063-5.8082-1.4642-9-3.5921-12,0-10,13-10,13"/><path fill="none" stroke="#000" stroke-linecap="round" stroke-linejoin="round" stroke-width="2" d="M26.4333,24.51l-.9825.2293a17.29,17.29,0,0,0-.779,5.1733c0,7.8276,5.0765,14.1732,11.3386,14.1732S47.349,37.74,47.349,29.9124a17.29,17.29,0,0,0-.7791-5.1733l-.8123-.3239"/><path fill="none" stroke="#000" stroke-linecap="round" stroke-linejoin="round" stroke-width="2" d="m46.565 24.718 11.45-1.6359s-6.2678 9.8488-10.494 8.7989"/><path fill="none" stroke="#000" stroke-linecap="round" stroke-linejoin="round" stroke-width="2" d="m47.89 59.969c-18.499-5.1358-20.817-13.057-20.817-13.057s-4.2 0.2046-5.6776 1.3537c3.1163 6.4287 5.69 8.6387 13.86 11.769"/><path fill="none" stroke="#000" stroke-linecap="round" stroke-linejoin="round" stroke-width="2" d="M19.6347,30.2912s-.06,3.717-2.7115,5.1447c-2.5417,1.4408-2.7524,4.5177-2.2435,7.0705.7479,3.5353.4079,5.7108-2.2435,8.0223-3.12,2.72-2.1923,7.7515-.9,9.3831"/><path fill="none" stroke="#000" stroke-linecap="round" stroke-linejoin="round" stroke-width="2" d="m26.829 21.54a6.5528 6.5528 0 0 0 6.0977 1.5354"/><path fill="none" stroke="#000" stroke-linecap="round" stroke-linejoin="round" stroke-width="2" d="m45.19 21.54a6.5525 6.5525 0 0 1-6.0976 1.5354"/><path fill="none" stroke="#000" stroke-linecap="round" stroke-linejoin="round" stroke-width="2" d="M52.2,30.2912s.06,3.717,2.7115,5.1447c2.5417,1.4408,2.7524,4.5177,2.2435,7.0705-.7478,3.5353-.4079,5.7108,2.2435,8.0223,3.12,2.72,2.1923,7.7515.9006,9.3831"/></g></svg>