<?xml version="1.0" encoding="UTF-8"?>
<svg id="a" viewBox="0 0 72 72" xmlns="http://www.w3.org/2000/svg"><g id="b"><circle cx="36.944" cy="28.039" r="10" fill="#e67a94"/><path d="m35.177 17.157c-5.8765 0.5287-10.516 6.6407-10.516 14.121 0 7.8277 5.0764 14.173 11.339 14.173s11.339-6.3456 11.339-14.173a17.259 17.259 0 0 0-0.7674-5.0941 9.9175 9.9175 0 0 1-11.394-9.0271z" fill="#b1cc33"/><path d="m54.938 60.909s2-12.603-10-12.603c-3.1918 2.128-5.9264 3.5985-9 3.5922h0.125c-3.0736 0.0063-5.8081-1.4642-9-3.5922-12 0-10 12.603-10 12.603" fill="#b1cc33"/><path d="M46.354,48.2762l-.9075.8851a15.6367,15.6367,0,0,1-5.3451,5.81l-2.0029,5.7447-2-4.5853c-3.337.02-6.674-2.2824-9.3481-6.9693L26.2,48.25C15.27,48.9272,17.1609,60.937,17.1609,60.937l3.1531-.007,2.0839-4.7825,1.5287,4.8108,31.18-.05" fill="#d0cfce"/><path d="m32 38.299s8-3.11 8 0c0 6.2424-8 0-8 0z" fill="#fcea2b"/><path d="M42.5077,52.7252c6.4062,1.661,6.5337,5.0343,7.1339,8.1842h5.1128s1.8925-11.904-9.0495-12.5747q-.46-.0282-.9505-.0285" fill="#9b9b9a"/><path d="M30,29.9325v2.041a2.1088,2.1088,0,0,0,1.7064,2.1339A2.0016,2.0016,0,0,0,34,32.1283V29.9325a.0571.0571,0,0,0-.0571-.0571H30.0573A.057.057,0,0,0,30,29.9325Z" fill="#5c9e31"/><path d="m38 29.875v2.2529a2 2 0 0 0 4 0v-2.2529z" fill="#5c9e31"/><path d="m42 29.917a2 2 0 1 1-2-2 2.0007 2.0007 0 0 1 2 2" fill="#fff"/><path d="m34 29.917a2 2 0 1 1-2-2 2.0007 2.0007 0 0 1 2 2" fill="#fff"/></g><g id="c"><path d="m35.177 17.157c-5.8765 0.5287-10.516 6.6407-10.516 14.121 0 7.8277 5.0764 14.173 11.339 14.173s11.339-6.3456 11.339-14.173a17.259 17.259 0 0 0-0.7674-5.0941 9.9175 9.9175 0 0 1-11.394-9.0271z" fill="none" stroke="#000" stroke-linecap="round" stroke-linejoin="round" stroke-width="2"/><path d="M45.3836,25.2642a2,2,0,0,0-1.3286-2.18,1.9753,1.9753,0,0,0,.3775-.8915,1.9931,1.9931,0,0,0-2.79-2.1141,1.9923,1.9923,0,0,0-3.3909-1.3058,1.9922,1.9922,0,0,0-2.7713-.4814" fill="none" stroke="#000" stroke-linecap="round" stroke-linejoin="round" stroke-width="2"/><path d="M35.1773,17.1567q.0408.48.1262.9464a9.9978,9.9978,0,0,0,9.4213,8.1874q.2037.0082.4093.0082a10.0162,10.0162,0,0,0,1.4372-.1149" fill="none" stroke="#000" stroke-linecap="round" stroke-linejoin="round" stroke-width="2"/><path d="m32 38.299s8-3.11 8 0c0 6.2424-8 0-8 0z" fill="none" stroke="#000" stroke-linecap="round" stroke-linejoin="round" stroke-width="2"/><line x1="39.433" x2="35.134" y1="40.015" y2="40.015" fill="none" stroke="#000" stroke-linecap="round" stroke-linejoin="round" stroke-width="2"/><line x1="36.944" x2="36.944" y1="40.015" y2="37.09" fill="none" stroke="#000" stroke-linecap="round" stroke-linejoin="round" stroke-width="1.5"/><path d="m26.652 48.925c2.6741 4.6869 6.0111 6.99 9.3481 6.9693l2 4.0183 2.0029-5.1777a15.638 15.638 0 0 0 5.3451-5.81" fill="none" stroke="#000" stroke-linecap="round" stroke-linejoin="round" stroke-width="2"/><line x1="43.55" x2="42.794" y1="57.24" y2="59.903" fill="none" stroke="#000" stroke-linecap="round" stroke-linejoin="round" stroke-width="2"/><polyline points="20.216 59.871 22.3 56.308 23.828 59.871" fill="none" stroke="#000" stroke-linecap="round" stroke-linejoin="round" stroke-width="2"/><path d="m55 60.917a1 1 0 0 1-1-1v-3c0-4.4517-4.4961-7.81-8.6518-7.9922-6.2051 5.0117-12.491 5.0117-18.696 0-4.1558 0.1817-8.6519 3.5405-8.6519 7.9922v3a1 1 0 1 1-2 0v-3c0-5.3247 5.14-9.9976 11-10a0.9994 0.9994 0 0 1 0.64 0.2319c5.625 4.6875 11.095 4.6875 16.72 0a0.9994 0.9994 0 0 1 0.64-0.2319h5e-4c5.8595 0.0029 11 4.6753 11 10v3a1 1 0 0 1-1 1z"/><path d="m42 29.917a2 2 0 1 1-2-2 2.0007 2.0007 0 0 1 2 2" fill="none" stroke="#000" stroke-miterlimit="10" stroke-width="1.5"/><path d="m34 29.917a2 2 0 1 1-2-2 2.0007 2.0007 0 0 1 2 2" fill="none" stroke="#000" stroke-miterlimit="10" stroke-width="1.5"/></g></svg>
