<?xml version="1.0" encoding="UTF-8"?>
<svg id="a" version="1.1" viewBox="0 0 72 72" xmlns="http://www.w3.org/2000/svg"><g id="b"><path d="m26 38c-3 0-4-7-4-14 0-6 5-12 14-12s14 6 14 12c0 7-1 14-4 14" fill="#6a462f"/></g><g id="c" fill="#c19a65"><path d="m24.9 30.417c-0.1 8.3333 4.1 14.583 11 14.583 7.1 0 11.1-6.25 11.1-14.583 0-5.2084-3-10.417-3-10.417-8 0-10 3.125-16 1.0417 0 0-3 4.1666-3.1 9.375z"/><path d="m17 61v-4c0-4.9941 5.0078-9 10-9 6 5 12 5 18 0 4.9941 0 10 4.0059 10 9v4"/></g><g id="d"><path d="m64.221 31.343c-0.28 1.27 0.3061 2.9919-0.1539 5.4719-0.46 2.52-0.6695 4.4305-1.0495 7.7605-0.67 6.01-1.0319 6.9518-1.0219 7.9518-0.042 1.0297-1.5076 5.1479-1.7648 6.1458-0.0487 0.1797-0.1157 0.354-0.2 0.52-0.0507 0.0841-0.1075 0.1643-0.17 0.24-0.681 0.6066-1.4292 1.1334-2.23 1.57l-2.6305-3e-3v-3.8327c0-4.99-4.9294-9.0043-9.9294-9.0043-2.1181 1.9044-4.7324 3.1699-7.54 3.65 0.9864-2.6874 2.5225-5.1396 4.51-7.2 1.35-1.35 6.54-4.33 16.87-10.25 2.2199-1.27 4.06-2.32 5.31-3.02z" fill="#B1CC33"/><path d="m34.621 51.813c-2.8121-0.4755-5.4307-1.7415-7.55-3.65-4.99 0-10 4.01-10 9v3.84h-2.55c-0.805-0.4348-1.5567-0.9617-2.24-1.57-0.0574-0.0772-0.1108-0.1573-0.16-0.24-0.0937-0.1617-0.1612-0.3372-0.2-0.52-0.2626-0.9972-0.4168-2.0197-0.46-3.05 0.02-1-0.38-4-1.05-10.01-0.37-3.33-0.85-5.98-1.32-8.5-0.46-2.48-0.88-4.5-1.16-5.77 1.24 0.7 3.08 1.75 5.3 3.02 10.33 5.92 15.52 8.9 16.87 10.25 1.891 1.96 3.3761 4.2743 4.37 6.81l0.15 0.39z" fill="#B1CC33"/><polygon points="61.951 50.163 59.8 46.514 55.575 46.218 58.38 43.045 57.356 38.935 61.241 40.622 64.833 38.378 64.429 42.594 67.673 45.317 63.539 46.236" fill="#FCEA2B"/><path d="m24.7 61c0.1979-1.9479 0.3825-5.3371 0.3971-6.6899 0.0484-4.4969-0.7975-5.8392-0.7975-5.8392 0.904-0.2618 1.8406-0.4026 2.7767-0.4026 6 5 12 5 18 0 0.8579 0.0117 1.7011 0.1266 2.5139 0.3363l6e-4 2e-4s-0.7422 1.4085-0.6938 5.9054c0.0146 1.3528 0.1992 4.742 0.3971 6.6899" fill="#A57939"/></g><g id="e"><path d="m26 38c-3 0-4-7-4-14 0-6 5-12 14-12s14 6 14 12c0 7-1 14-4 14" fill="none" stroke="#000" stroke-linecap="round" stroke-linejoin="round" stroke-width="2"/><path d="m24.9 31c-0.1 8 4.9 14 11 14 6 0 11.1-6 11.1-14 0-5-3-11-3-11-8 0-10 3-16 1 0 0-3 5-3.1 10z" fill="none" stroke="#000" stroke-linejoin="round" stroke-width="2"/><path d="m37.793 51.449c1.0309-2.496 2.4667-4.8047 4.2495-6.8331 1.983-2.2291 2.9034-2.25 16.867-10.248 2.2246-1.2743 4.0655-2.3206 5.3082-3.0253-0.2364 1.0767-0.5789 2.685-0.9563 4.6577" fill="none" stroke="#000" stroke-linecap="round" stroke-linejoin="round" stroke-width="2"/><path d="m59.129 58.755c0.0972-0.1878 0.7619-1.5115 0.9072-1.88 0.4825-1.1863 0.8064-2.4301 0.9641-3.6992" fill="none" stroke="#000" stroke-linecap="round" stroke-linejoin="round" stroke-width="2"/><path d="m13.016 58.755c-0.0973-0.1878-0.7619-1.5115-0.9072-1.88-1.5871-4.025-0.647-6.9374-3.0149-19.759-0.4587-2.4838-0.8866-4.5-1.1662-5.7736 1.2428 0.7047 3.0837 1.751 5.3083 3.0253 13.963 7.998 14.884 8.019 16.867 10.248 1.7273 1.9632 3.1284 4.1908 4.15 6.5979" fill="none" stroke="#000" stroke-linecap="round" stroke-linejoin="round" stroke-width="2"/><line x1="59.434" x2="51.005" y1="47.742" y2="61.882" fill="none" stroke="#000" stroke-linecap="round" stroke-linejoin="round" stroke-width="2"/><polygon points="61.951 50.163 59.8 46.514 55.575 46.218 58.38 43.045 57.356 38.935 61.241 40.622 64.833 38.378 64.429 42.594 67.673 45.317 63.539 46.236" fill="none" stroke="#000" stroke-linecap="round" stroke-linejoin="round" stroke-width="2"/><path d="m17.076 60.068v-3c0-4.9941 5.0078-9 10-9 6 5 12 5 18 0 3.1629 0.0432 6.1254 1.4887 8.1051 3.915" fill="none" stroke="#000" stroke-linecap="round" stroke-linejoin="round" stroke-width="2"/><path d="m24.41 48.643s0.7355 1.17 0.6871 5.6669c-0.0146 1.3528-0.1992 3.742-0.3971 5.6899" fill="none" stroke="#000" stroke-linecap="round" stroke-linejoin="round" stroke-width="2"/><path d="m47.591 48.405s-0.7422 1.4085-0.6938 5.9054c0.0146 1.3528 0.1992 3.742 0.3971 5.6899" fill="none" stroke="#000" stroke-linecap="round" stroke-linejoin="round" stroke-width="2"/><path d="m42 29.942c0 1.1046-0.8954 2-2 2s-2-0.8954-2-2 0.8954-2 2-2 2 0.8954 2 2"/><path d="m34 29.942c0 1.1046-0.8954 2-2 2s-2-0.8954-2-2 0.8954-2 2-2 2 0.8954 2 2"/><path d="m33 38.192c1.875 1 4.125 1 6 0" fill="none" stroke="#000" stroke-linecap="round" stroke-linejoin="round" stroke-width="2"/></g></svg>
