<svg xmlns="http://www.w3.org/2000/svg" id="a" viewBox="0 0 72 72"><g id="b"><path fill="#92d3f5" d="m45.532 50.617 0.797 2.48-1.1339 4.9948-5.1813 5.6746a23.967 23.967 0 0 0 14.938-4.1124s2-13-10-13c-3.1918 2.1279-5.9264 3.5984-9 3.5921h0.125c-3.0736 0.0063-5.8081-1.4642-9-3.5921-12 0-10 13-10 13 9.9776 6.0208 14.368 3.708 28.119-1.5619l0.6171-3.5208-24.068 1.35 5.3094-0.9076"/><path fill="#92d3f5" d="M54.9358,59.6536s2-13-10-13c-3.1919,2.1279-5.9264,3.5984-9,3.5921h.125c-3.0736.0063-5.8081-1.4642-9-3.5921-12,0-10,13-10,13"/><path fill="#61b2e4" d="m45.218 46.654a18.013 18.013 0 0 1-8.9375 3.5885c13.062 0.4115 13.062 5.4115 13.825 9.4115h5.1128s2-13-10-13z"/><path fill="#61b2e4" d="m55.218 59.654s-11.756 9.0264-20.737 2.9632l10.714-4.5251 1.1339-4.9948s8.977-2.4641 8.8894 6.5567z"/><ellipse cx="36.013" cy="30.154" fill="#92d3f5" rx="11.339" ry="14.173"/><path fill="#fff" d="m49.185 14.728c-13.171 4.1165-24.51 13.518-24.51 13.518s-3.96-5.3394-2.2369-10.726c0 0 2.2369-8.0773 13.036-8.0773 7.7035 0 11.595 3.1694 13.711 5.2854 6.1464 8.7249-2.1346 13.604-2.1346 13.604a126.17 126.17 0 0 1-9.655-8.3413"/><path fill="#3f3f3f" d="m36.042 46.938c5.0174-0.1253 9.5065-6.0464 10.3-10.896-3.2477 5.68-8.6155 4.61-8.6155 4.61l-1.7067-2.6334-1.7063 2.6338s-5.3678 1.0695-8.6155-4.61c0.7933 4.85 5.2824 10.771 10.3 10.896"/><path fill="#d0cfce" d="m49.185 14.728c6.1463 8.7249-2.1347 13.604-2.1347 13.604a126.17 126.17 0 0 1-9.655-8.3413"/><path fill="#fcea2b" d="m36.014 25.82a2 2 0 0 1-2-2v-4a2 2 0 0 1 2-2 2 2 0 0 1 2 2v4a2 2 0 0 1-2 2z"/><polygon fill="#fcea2b" points="45.195 58.092 40.783 59.923 40.783 54.678 45.812 54.678"/></g><g id="c"><path fill="none" stroke="#000" stroke-linecap="round" stroke-linejoin="round" stroke-width="2" d="m40.014 63.766a23.967 23.967 0 0 0 14.938-4.1124s2-13-10-13c-3.1918 2.1279-5.9264 3.5984-9 3.5921h0.125c-3.0736 0.0063-5.8081-1.4642-9-3.5921-12 0-10 13-10 13 9.9776 6.0208 14.368 3.708 28.119-1.5619l0.6171-3.5208-24.068 1.35"/><path fill="none" stroke="#000" stroke-linecap="round" stroke-linejoin="round" stroke-width="2" d="m45.532 50.617 0.797 2.48-1.1339 4.9948"/><path fill="none" stroke="#000" stroke-linecap="round" stroke-linejoin="round" stroke-width="2" d="m25.716 36.072a17.002 17.002 0 0 1-1.04-5.92 18.705 18.705 0 0 1 0.11-2"/><path fill="none" stroke="#000" stroke-linecap="round" stroke-linejoin="round" stroke-width="2" d="m47.246 28.202a17.918 17.918 0 0 1 0.11 1.95 17.018 17.018 0 0 1-1.06 5.97"/><path d="m42.014 28.793a2 2 0 1 1-2-2 2.0007 2.0007 0 0 1 2 2"/><path d="m34.014 28.793a2 2 0 1 1-2-2 2.0007 2.0007 0 0 1 2 2"/><path d="m36.013 38.795a7.6528 7.6528 0 0 1-3.4473-0.8579 1 1 0 0 1 0.8946-1.7891 5.3772 5.3772 0 0 0 5.1054 0 1 1 0 0 1 0.8946 1.7891 7.6528 7.6528 0 0 1-3.4473 0.8579z"/><path fill="none" stroke="#000" stroke-linecap="round" stroke-linejoin="round" stroke-width="2" d="m36.042 46.938c5.0174-0.1253 9.5065-6.0464 10.3-10.896-3.2477 5.68-8.6155 4.61-8.6155 4.61l-1.7067-2.6334-1.7063 2.6338s-5.3678 1.0695-8.6155-4.61c0.7933 4.85 5.2824 10.771 10.3 10.896"/><path fill="none" stroke="#000" stroke-linecap="round" stroke-linejoin="round" stroke-width="2" d="M34.0159,21.7725c-1.28.77-2.47,1.53-3.53,2.24-3.13,2.09-5.21,3.75-5.7,4.14-.07.06-.11.09-.11.09s-3.96-5.34-2.24-10.72c0,0,2.24-8.08,13.04-8.08,7.7,0,11.59,3.17,13.71,5.29,5.58,7.91-.72,12.65-1.94,13.47-.13.09-.2.13-.2.13s-4.41-3.38-9.03-7.75"/><path fill="none" stroke="#000" stroke-linecap="round" stroke-linejoin="round" stroke-width="2" d="m37.986 19.512a66.431 66.431 0 0 1 11.2-4.78"/><path fill="none" stroke="#000" stroke-linecap="round" stroke-linejoin="round" stroke-width="2" d="m36.014 25.82h0a2 2 0 0 1-2-2v-4a2 2 0 0 1 2-2h0a2 2 0 0 1 2 2v4a2 2 0 0 1-2 2z"/><line x1="40.783" x2="40.783" y1="54.971" y2="59.719" fill="none" stroke="#000" stroke-linecap="round" stroke-linejoin="round" stroke-width="2"/></g></svg>