<svg xmlns="http://www.w3.org/2000/svg" id="a" version="1.1" viewBox="0 0 72 72"><g id="b"><path fill="#3F3F3F" d="m16.963 58.999s-2.1669-14.84 9.8331-14.84c3.1918 2.128 5.7264 3.6985 8.8 3.6922h-0.125c3.0736 0.0063 6.208-1.9642 9.3999-4.0922 12.338-1e-4 10.109 15.14 10.34 15.24"/><path fill="#fff" d="m44.785 44.608-3.8861 5.9728-2.5935 4.4989c-1.2071 2.0939-4.2282 2.0958-5.438 0.0035l-6.057-10.475c6.1416 5.2919 12.133 5.2919 17.975 0z"/><path fill="#A57939" d="m64.233 41.39c1.53 0.73 2.17 2.57 1.43 4.09l-1.63 3.39c-0.74 1.52-2.58 2.16-4.1 1.43l-2.05-1.74 0.36-0.43 3.41-7.05 0.04-0.2 2.54 0.51z"/><polygon fill="#F1B31C" points="61.693 40.88 61.653 41.08 58.243 48.13 57.883 48.56 57.353 48.12 57.333 48.1 53.683 46.34 53.663 46.34 52.703 46.13 52.833 45.52 56.243 38.47 56.413 38.27 57.253 38.96 60.893 40.72"/><path fill="#A57939" d="m57.333 48.1 0.02 0.02-0.06 0.07-5.5 11.38c-0.44 0.91-1.47 1.45-2.43 1.17-1.24-0.37-1.8-1.72-1.26-2.83l5.54-11.48 0.02-0.09h0.02l3.65 1.76z"/><path fill="#A57939" d="m54.483 36.68 1.93 1.59-0.17 0.2-3.41 7.05-0.13 0.61-2.52-0.54c-1.53-0.74-2.17-2.57-1.43-4.1l1.64-3.38c0.73-1.53 2.57-2.17 4.09-1.43z"/></g><g id="c"><path fill="#fcea2b" d="m26 36.581c-4 0-4-6-4-13s4-14 14-14 14 7 14 14 0 13-4 13"/></g><g id="d"><path fill="#debb90" d="m24.936 28.581c0 9 4.9365 14 11 14 5.9365 0 11.064-5 11.064-14 0.0245-1.7187-0.3164-3.4229-1-5-3-3-7-8-7-8-4 3-7 6-13 7.0005 0-5e-4 -1.0635 0.9987-1.0635 5.9995z"/></g><g id="e"><path d="m16.908 58.983c-0.4844 0-0.9102-0.3525-0.9863-0.8467-0.041-0.2695-0.9727-6.6328 2.581-10.775 1.8809-2.1914 4.627-3.3261 8.166-3.375 0.3672-0.1035 0.7666 0.0235 1.0157 0.3116 3.0508 2.0175 5.5049 3.2656 8.1631 3.2783 2.7226-0.0127 5.2294-1.3213 8.3828-3.4239 0.3886-0.2587 0.9052-0.2138 1.2441 0.1075 0.3379 0.3222 0.4092 0.8359 0.169 1.2373-1.6524 2.7705-7.2334 11.865-9.6397 12.562-1.9541 0.5713-5.2012-3.4942-9.6621-12.064-2.7637 0.1065-4.8857 1-6.3145 2.6612-2.956 3.4365-2.1377 9.1201-2.1289 9.1777 0.083 0.5449-0.292 1.0547-0.8379 1.1387-0.0507 0.0078-0.1015 0.0107-0.1523 0.0107zm12.694-11.188c2.3633 4.1709 4.9024 7.9229 5.9258 8.3096 0.9912-0.4873 3.6455-4.1123 6.2305-8.1358-1.9512 0.9991-3.7979 1.5782-5.8047 1.6055-0.0215 1e-3 -0.0449 0-0.0664 1e-3h-0.0234-0.0332c-0.0157 9e-4 -0.0323 9e-4 -0.0479 0-0.0146 0-0.0283 0-0.042-1e-3 -2.1211-0.0283-4.0635-0.6748-6.1387-1.7793z"/><path fill="none" stroke="#000" stroke-linecap="round" stroke-linejoin="round" stroke-miterlimit="10" stroke-width="2" d="m57.293 48.19-5.5 11.38c-0.44 0.91-1.47 1.45-2.43 1.17-1.24-0.37-1.8-1.72-1.26-2.83l5.54-11.48"/><path fill="none" stroke="#000" stroke-linecap="round" stroke-linejoin="round" stroke-miterlimit="10" stroke-width="2" d="m56.413 38.27-1.93-1.59c-1.52-0.74-3.36-0.1-4.09 1.43l-1.64 3.38c-0.74 1.53-0.1 3.36 1.43 4.1l2.52 0.54 0.96 0.21h0.02l3.65 1.76 0.02 0.02 0.53 0.44 2.05 1.74c1.52 0.73 3.36 0.09 4.1-1.43l1.63-3.39c0.74-1.52 0.1-3.36-1.43-4.09l-2.54-0.51-0.8-0.16-3.64-1.76-0.84-0.69z"/><line x1="61.653" x2="58.243" y1="41.08" y2="48.13" fill="none" stroke="#000" stroke-linecap="round" stroke-linejoin="round" stroke-miterlimit="10" stroke-width="2"/><line x1="52.833" x2="56.243" y1="45.52" y2="38.47" fill="none" stroke="#000" stroke-linecap="round" stroke-linejoin="round" stroke-miterlimit="10" stroke-width="2"/><path d="m32.024 54.62c-0.208 0-0.417-0.0644-0.5967-0.1982-0.4423-0.3301-0.5341-0.9571-0.2041-1.3994l3.7598-5.044c0.1904-0.2558 0.4883-0.4053 0.8135-0.4023 0.3203 0.0039 0.6181 0.1601 0.8037 0.4209l3.3779 4.7597c0.3194 0.4512 0.2139 1.0752-0.2363 1.3946-0.4512 0.3203-1.0742 0.2129-1.3945-0.2364l-2.5821-3.6386-2.9385 3.9414c-0.1962 0.2636-0.497 0.4023-0.8027 0.4023z"/><path d="m41.953 27.047c0 1.1046-0.8954 2-2 2s-2-0.8954-2-2 0.8954-2 2-2c1.1044 4e-4 1.9996 0.8956 2 2"/><path d="m33.953 27.047c0 1.1046-0.8954 2-2 2s-2-0.8954-2-2 0.8954-2 2-2c1.1044 4e-4 1.9996 0.8956 2 2"/><path d="m35.953 37.049c-1.2005-0.0116-2.3813-0.3055-3.4472-0.8579-0.494-0.247-0.6943-0.8477-0.4473-1.3418s0.8477-0.6943 1.3418-0.4473c1.5934 0.8593 3.5121 0.8593 5.1055 0 0.494-0.247 1.0947-0.0468 1.3418 0.4473s0.0468 1.0947-0.4473 1.3418c-1.0659 0.5524-2.2468 0.8463-3.4473 0.8579z"/><path fill="none" stroke="#000" stroke-linecap="round" stroke-linejoin="round" stroke-width="2" d="m26 36.581c-4 0-4-6-4-13s4-14 14-14 14 7 14 14 0 13-4 13"/><path fill="none" stroke="#000" stroke-linejoin="round" stroke-width="2" d="m24.936 28.581c0 9 4.9365 14 11 14 5.9365 0 11.064-5 11.064-14 0.0245-1.7187-0.3164-3.4229-1-5-3-3-7-8-7-8-4 3-7 6-13 7.0005 0-5e-4 -1.0635 0.9987-1.0635 5.9995z"/></g></svg>