<?xml version="1.0" encoding="UTF-8"?>
<svg id="a" version="1.1" viewBox="0 0 72 72" xmlns="http://www.w3.org/2000/svg"><g id="b"><path d="m17.254 58.726s-2-13.5 10-13.5c3.1919 2.1279 5.9264 3.5984 9 3.5922h-0.125c3.0736 0.0062 5.5081-2.1643 8.7-4.2922 15.57-1e-4 10.7 14.2 10.7 14.2" fill="#fff"/><path d="m46.739 44.753c-3.17 2.1133-4.875 3-8.9375 3.5886 13.062 0.4114 13.062 5.4114 13.825 9.4114h5.1129s2-13-10-13z" fill="#D0CFCE"/><path d="m58.474 43.099h-1.1793v6.4784l3.8661 8.8385s0.3081 1.3805-0.7928 1.3805c-0.5364 0-9.8482 0.0116-10.385 0.0116-1.1009 0-0.7928-1.3804-0.7928-1.3804l3.8661-8.8286v-6.5h-1.0854" fill="#fff"/><line x1="53.056" x2="57.294" y1="43.099" y2="43.099" fill="none"/><path d="m57.294 49.577 3.8661 8.8385s0.3081 1.3805-0.7928 1.3805c-0.5364 0-9.8482 0.0116-10.385 0.0116-1.1009 0-0.7928-1.3804-0.7928-1.3804l3.8661-8.8286" fill="#B1CC33"/><path d="m23.149 25.003s12.703-7.0231 26.25 0.8022l-3.8831 6.0255s-6.7095 0.9323-9.2418-1.6c-2.5912 2.5912-8.4903 1.6-8.4903 1.6l-4.6345-6.8277z" fill="#92D3F5"/></g><g id="c"><path d="m36 9.5808c-10 0-14 7-14 14s0 13 4 13h20c4 0 4-6 4-13s-4-14-14-14zm9.5153 22.25s-6.7095 0.9323-9.2418-1.6c-2.5912 2.5912-8.4903 1.6-8.4903 1.6l-4.6345-6.8277s12.703-7.0231 26.25 0.8022l-3.8831 6.0255z"/></g><g id="d" fill="#6a462f"><path d="m47.187 24.659c-0.5139-0.3405-1.0151-0.6812-1.187-1.0778-3-3-7-8-7-8-4 3-7 6-13 7.0005 0-3e-4 -1.2526 0.55-1.9208 1.9705 2.9542-1.3254 12.57-4.8149 23.108 0.1068z"/><path d="m45.515 31.83s-6.7095 0.9323-9.2418-1.6c-2.5912 2.5912-8.4903 1.6-8.4903 1.6l-4.081-6.0122c-0.0997 0.7969 1.2343 1.5124 1.2343 2.7626 0 9 4.9365 14 11 14 5.7099 0 10.657-4.6369 11.028-12.998l-1.4487 2.248z"/></g><g id="e"><path d="m37.562 58.953c-0.5527 0-1-0.4472-1-1v-4.4248c-6.1631-1.165-10.688-7.7207-10.888-8.0127-0.3105-0.456-0.1924-1.0781 0.2647-1.3886 0.4541-0.3116 1.0781-0.1924 1.3886 0.2626 0.0459 0.0674 4.6504 6.7227 10.332 7.2784 0.5117 0.0498 0.9023 0.4804 0.9023 0.9951v5.29c0 0.5528-0.4472 1-1 1z"/><path d="m16.993 58.952c-0.4844 0-0.9102-0.3525-0.9864-0.8466-0.041-0.2696-0.9726-6.6328 2.5811-10.775 1.9228-2.2412 4.751-3.377 8.4072-3.377 0.1973 0 0.3906 0.0586 0.5547 0.168 3.1533 2.1025 5.6611 3.4102 8.3828 3.4238 2.7227-0.0127 5.2295-1.3213 8.3828-3.4238 0.1641-0.1094 0.3575-0.168 0.5547-0.168 1.9072 0 3.6094 0.3155 5.0596 0.9365 0.5078 0.2168 0.7432 0.8047 0.5254 1.3125-0.2168 0.5088-0.8086 0.7452-1.3125 0.5254-1.127-0.4824-2.4629-0.7412-3.9756-0.7714-3.3096 2.1855-6.0274 3.5459-9.1279 3.5878-0.0147 1e-3 -0.0313 3e-3 -0.044 1e-3h-0.0029-0.0381-0.043-0.0381-0.0029c-0.0185 2e-3 -0.0293 0-0.0439-1e-3 -3.1006-0.0419-5.8174-1.4023-9.128-3.5878-2.8964 0.0566-5.1103 0.9541-6.5859 2.6689-2.956 3.4365-2.1377 9.1201-2.1289 9.1777 0.083 0.545-0.292 1.0547-0.8379 1.1387-0.0508 0.0078-0.1016 0.0107-0.1523 0.0107z"/><path d="m49.982 60.808c-0.5801 0-1.081-0.2265-1.4111-0.6387-0.5918-0.7382-0.4014-1.7626-0.3565-1.9599 0.0137-0.0635 0.0342-0.124 0.0596-0.1836l3.7822-8.6358v-5.291h-0.0859c-0.5527 0-1-0.4472-1-1 0-0.5527 0.4473-1 1-1h1.0859c0.5528 0 1 0.4473 1 1v6.5c0 0.1377-0.0283 0.2744-0.0839 0.4014l-3.8164 8.7139c-3e-3 0.0302-0.0049 0.0615-0.0059 0.0927l10.05-0.0107c-1e-3 -0.0313-0.0029-0.0635-0.0068-0.0947l-3.8155-8.7237c-0.0556-0.1259-0.084-0.2627-0.084-0.4004v-6.4785c0-0.5527 0.4473-1 1-1h1.1797c0.5528 0 1 0.4473 1 1 0 0.5528-0.4472 1-1 1h-0.1797v5.2696l3.7823 8.6464c0.0263 0.0586 0.0459 0.1192 0.0595 0.1827 0.045 0.1972 0.2354 1.2207-0.3564 1.959-0.3301 0.413-0.832 0.6396-1.4121 0.6396l-10.385 0.0117z"/><path d="m57.294 44.099h-4.2373c-0.5527 0-1-0.4472-1-1 0-0.5527 0.4473-1 1-1h4.2373c0.5528 0 1 0.4473 1 1 0 0.5528-0.4472 1-1 1z"/><path d="m41.953 27.047c0 1.1046-0.8954 2-2 2s-2-0.8954-2-2 0.8954-2 2-2c1.1044 4e-4 1.9996 0.8956 2 2"/><path d="m33.953 27.047c0 1.1046-0.8954 2-2 2s-2-0.8954-2-2 0.8954-2 2-2c1.1044 4e-4 1.9996 0.8956 2 2"/><path d="m35.953 37.049c-1.2005-0.0116-2.3813-0.3055-3.4472-0.8579-0.494-0.247-0.6943-0.8477-0.4473-1.3418s0.8477-0.6943 1.3418-0.4473c1.5934 0.8593 3.5121 0.8593 5.1055 0 0.494-0.247 1.0947-0.0468 1.3418 0.4473s0.0468 1.0947-0.4473 1.3418c-1.0659 0.5524-2.2468 0.8463-3.4473 0.8579z"/><path d="m26 36.581c-4 0-4-6-4-13s4-14 14-14 14 7 14 14 0 13-4 13" fill="none" stroke="#000" stroke-linecap="round" stroke-linejoin="round" stroke-width="2"/><path d="m30.057 33.016c-1.4844 0-2.6045-0.1816-2.7129-0.1992-0.2686-0.0449-0.5078-0.1992-0.6611-0.4248l-4.6348-6.8271c-0.1582-0.2325-0.2109-0.5206-0.1455-0.794s0.2431-0.5068 0.4892-0.6426c0.5381-0.2978 13.356-7.2046 27.233 0.8111 0.2373 0.1367 0.4073 0.3647 0.4717 0.6308 0.0645 0.2656 0.0176 0.5464-0.1308 0.7764l-3.8829 6.0259c-0.1582 0.2441-0.415 0.4082-0.7031 0.4482-0.6806 0.0947-6.3066 0.7959-9.373-1.2949-1.7188 1.2119-4.1133 1.4902-5.9502 1.4902zm-1.9678-2.1123c1.7627 0.2149 5.5313 0.293 7.2041-1.3799 0.3906-0.3906 1.0234-0.3906 1.4141 0 1.6513 1.6524 5.9384 1.5811 7.9492 1.3702l3.0488-4.7315c-10.415-5.499-20.253-2.0986-23.348-0.7558l3.7314 5.497z"/><path d="m24.948 27.689c-0.0078 0.282-0.0119 0.5789-0.0119 0.8915 0 9 4.9365 14 11 14 5.7258 0 10.699-4.6514 11.044-13.057" fill="none" stroke="#000" stroke-linejoin="round" stroke-width="2"/><path d="m46 23.581c-3-3-7-8-7-8-4 3-7 6-13 7.0005 0-2e-4 -0.2659 0.2494-0.5317 1.1243" fill="none" stroke="#000" stroke-linecap="round" stroke-linejoin="round" stroke-width="2"/></g></svg>
