<svg xmlns="http://www.w3.org/2000/svg" id="a" viewBox="0 0 72 72"><g id="b"><circle cx="46.065" cy="55.441" r="5" fill="#d0cfce"/><circle cx="19.765" cy="55.441" r="5" fill="#d0cfce"/><path fill="#ea5a47" d="m40.565 41.741c-6.2 2.2-6.9 9.6-6.9 9.6l-6.9021 0.0206 1.1021 4.8794 8.6 0.1a9.9 9.9 0 0 1 19.8 0 25.508 25.508 0 0 0-2.8-15.6"/><path fill="#a57939" d="m50.365 38.441a4.5375 4.5375 0 0 1-1 0.1h-13.3a1.0021 1.0021 0 0 0-1 1v1.2a1.0754 1.0754 0 0 0 1 1h16.4a1.0754 1.0754 0 0 0 1-1v-16.5a1.0021 1.0021 0 0 0-1-1h-1.2c-0.5 0-0.4192 0.4315-0.4192 1.0315l-0.5808 13.068a7.4642 7.4642 0 0 1 0.1 1.1z"/></g><g id="c" fill="#fadcbc"><circle cx="47.529" cy="11.241" r="2.599"/><path d="M35.0155,33.9542l5.8363-.3724.0356-.0343,1.1978-8.6156.6513-4.3151a3.9744,3.9744,0,0,1,3.9785-3.2913h0a3.7838,3.7838,0,0,1,3.5809,3.6439L49.94,36.2957a2.5073,2.5073,0,0,1-2.5066,2.4491H42.9114l-8.2679.0258L26.8907,49.1725c-.3652.5478-1.2438.2714-1.452-.3532A5.0532,5.0532,0,0,1,25.91,46.7l4.2951-9.5055a4.365,4.365,0,0,1,2.0179-2.3h0A6.7132,6.7132,0,0,1,35.0155,33.9542Z"/></g><g id="d" fill="none" stroke="#000" stroke-width="2"><circle cx="47.337" cy="11.144" r="2.599" stroke-miterlimit="10"/><path stroke-linecap="round" stroke-linejoin="round" d="M35.4329,33.7536l5.8364-.3724.0355-.0344,1.1978-8.6155.6513-4.3151a3.9744,3.9744,0,0,1,3.9785-3.2913h0a3.7838,3.7838,0,0,1,3.5809,3.6439L50.357,36.0951A2.5073,2.5073,0,0,1,47.85,38.5442H43.3288l-8.2679.0258-7.974,10.5633c-.3652.5478-1.283.6246-1.4912,0a4.2411,4.2411,0,0,1,.3532-2.0406l4.6732-10.0985a4.3656,4.3656,0,0,1,2.0179-2.3h0A6.715,6.715,0,0,1,35.4329,33.7536Z"/><polyline stroke-linecap="round" stroke-linejoin="round" points="47.409 20.737 43.218 28.194 33.794 26.495"/><path stroke-linecap="round" stroke-linejoin="round" d="m26.565 51.341a8.8792 8.8792 0 0 1 1.3 4.9l8.6 0.1h0a9.9 9.9 0 0 1 19.8 0 25.508 25.508 0 0 0-2.8-15.6"/><path stroke-linecap="round" stroke-linejoin="round" d="m40.565 41.741c-6.2 2.2-6.9 9.6-6.9 9.6h-3.2"/><path stroke-linecap="round" stroke-linejoin="round" d="m50.365 38.441a4.5375 4.5375 0 0 1-1 0.1h-13.3a1.0021 1.0021 0 0 0-1 1v1.2a1.0754 1.0754 0 0 0 1 1h16.4a1.0754 1.0754 0 0 0 1-1v-16.5a1.0021 1.0021 0 0 0-1-1h-1.2c-0.5 0-0.4192 0.4315-0.4192 1.0315l-0.5808 13.068a7.4642 7.4642 0 0 1 0.1 1.1z"/><circle cx="19.765" cy="55.44" r="5" stroke-miterlimit="10"/><circle cx="46.065" cy="55.441" r="5" stroke-miterlimit="10"/><path stroke-linecap="round" stroke-linejoin="round" d="m27.965 56.341a6.602 6.602 0 0 0-0.1-1.4 9.9842 9.9842 0 0 0-2.8-5.6 6.8638 6.8638 0 0 0-6.5391-2.1518"/><polyline stroke-linecap="round" stroke-linejoin="round" points="22.108 46.682 29.508 29.182 32.508 29.182 34.808 29.282"/><line x1="32.508" x2="32.508" y1="27.582" y2="29.182" stroke-linecap="round" stroke-linejoin="round"/></g></svg>