<svg xmlns="http://www.w3.org/2000/svg" id="a" viewBox="0 0 72 72"><g id="b"><path fill="#8967aa" d="m54.72 58.822c0.1516-0.0159 0.763-2.2457 0.771-4.982 0.012-4.1237-2.2823-9.4153-11.271-9.9154-3.1919 2.1193-5.9264 3.5838-9 3.5775h0.125c-3.0736 0.0063-5.8082-1.4582-9-3.5775-3.5464 0-5.9701 1.3012-7.484 3.1344-3.6085 4.3699-2.516 11.763-2.516 11.763"/><path fill="#B399C8" d="m36.832 56.676-0.5001-0.3c-7.932 0-14.362-7.1302-14.362-15.062l-1-8.5973v-6.6879c0-7.932 7.4302-14.362 15.362-14.362h1e-4c7.932 0 15.262 6.4302 15.262 14.362l0.1 13.285c0 0.9045-0.6953 3.7895-0.876 4.6477 2.2612 2.4635 1.8051 4.9002-2.7703 8.9835-2.7897 2.4897-7.3552 3.731-11.216 3.731z"/><rect width="15.775" height="6.041" x="31.627" y="52.802" fill="#B399C8"/></g><g id="c"><path fill="#debb90" stroke="#debb90" d="m47.283 30.092c-2.2979-6.6293-6.1527-9.2106-11.339-12.773-4.0003 3.8404-7.7972 4.8124-11.338 12.773 0 7.8277 5.0764 12.573 11.338 12.573 6.2622 0 11.339-4.7456 11.339-12.573z"/></g><g id="d"><path d="m41.945 27.04c0 1.1045-0.8965 2-2 2s-2-0.8955-2-2c0-1.1035 0.8965-2 2-2s2 0.8965 2 2"/><path d="m33.945 27.04c0 1.1045-0.8965 2-2 2s-2-0.8955-2-2c0-1.1035 0.8965-2 2-2s2 0.8965 2 2"/><path d="m35.944 37.042c-1.1518 0-2.3037-0.2861-3.4472-0.8579-0.4942-0.2471-0.6944-0.8477-0.4473-1.3418 0.2466-0.4937 0.8462-0.6944 1.3418-0.4473 1.7178 0.8594 3.3877 0.8594 5.1055 0 0.4946-0.2471 1.0947-0.0464 1.3418 0.4473 0.247 0.4941 0.0469 1.0947-0.4473 1.3418-1.1435 0.5718-2.2954 0.8579-3.4473 0.8579z"/><path fill="none" stroke="#000" stroke-linecap="round" stroke-linejoin="round" stroke-miterlimit="10" stroke-width="2" d="m54.26 51.392c1 3.25 0.5 6.5 0.5 6.5"/><path fill="none" stroke="#000" stroke-linecap="round" stroke-linejoin="round" stroke-miterlimit="10" stroke-width="2" d="m16.884 57.892s-1.0975-7.1337 3.2115-10.832"/><path fill="none" stroke="#000" stroke-linecap="round" stroke-linejoin="round" stroke-miterlimit="10" stroke-width="2" d="m36.067 17.611h-0.2446s-13.231 7.4283-10.187 16.678c0 0 2.3335 8.2843 10.31 8.2843 7.9755 0 10.309-8.2843 10.309-8.2843 3.044-9.2497-10.187-16.678-10.187-16.678z"/><path fill="none" stroke="#000" stroke-linecap="round" stroke-linejoin="round" stroke-miterlimit="10" stroke-width="2" d="m35.944 11.67s-13.689-0.6317-14.81 14.782c-1.1203 15.414 2.0357 18.952 2.0357 18.952s3.9019 10.133 13.648 11.307 15.59-8.7886 15.59-8.7886 1.9145-4.864-5.7-5.3491c-1.5975 1.0065-6.1982 4.2466-10.764 0"/><path fill="none" stroke="#000" stroke-linecap="round" stroke-linejoin="round" stroke-miterlimit="10" stroke-width="2" d="m36.158 11.67s13.689-0.6317 14.81 14.782c0.3086 4.2458 0.2928 7.5905 0.1078 10.208l-0.365 2.8404"/><line x1="31.944" x2="31.944" y1="55.234" y2="57.88" fill="none" stroke="#000" stroke-linecap="round" stroke-linejoin="round" stroke-miterlimit="10" stroke-width="2"/><line x1="47.402" x2="47.402" y1="53.471" y2="57.88" fill="none" stroke="#000" stroke-linecap="round" stroke-linejoin="round" stroke-miterlimit="10" stroke-width="2"/><path fill="none" stroke="#000" stroke-linecap="round" stroke-linejoin="round" stroke-miterlimit="10" stroke-width="2" d="m48.602 46.342s-3.4695 5.6659-10.843 4.7052c-5.8156-0.7577-15.808-8.0759-16.859-17.521"/></g></svg>