<svg xmlns="http://www.w3.org/2000/svg" id="a" version="1.1" viewBox="0 0 72 72"><g id="b"><path fill="#6a462f" d="m17.658 47.37c1.1226 1.0189 2.3391 1.9294 3.6331 2.7193 1.5566-1.1839 3.4138-1.908 5.361-2.09 6.209 5.0127 12.495 5.0127 18.7 0 1.5145 0.1121 2.9697 0.6354 4.2087 1.5136 1.0534-0.6931 2.0475-1.4724 2.972-2.33 1.1884-0.7148 3.125-8.2822 0.3916-13.025-0.4386-0.8534-0.8251-1.7326-1.1573-2.6328-1.4724-3.2703-2.0232-4.4935-2.3484-10.525 0.0273-3.6929-3.794-6.7842-7.4746-7.0928-0.266-0.0182-0.5139-0.1418-0.6885-0.3433-0.0928-0.1-2.4082-2.6547-7.2432-2.6547-6.2 0-11.441 3.3818-12.743 8.226-0.534 2.0122-0.7248 4.1001-0.5645 6.1758 0.2039 2.019-0.0563 4.0578-0.7607 5.9609-0.2481 0.7561-0.6269 1.4629-1.1192 2.0881-3.7725 4.42-0.9747 14.303-1.167 14.01z"/></g><g id="c"><path fill="#c19a65" d="m25 30.934c0 8 5 14 11 14s11-6 11-14c0-5-2-8-6-12-4 4-16 9-16 11v1z"/></g><g id="d"><path fill="#D22F27" d="m35.65 45.1c-3.4-0.1-8.6-5.7-8.6-5.7h-13.6c1.5916 2.7161 3.0272 5.5207 4.3 8.4 1.281 3.1916 2.2196 6.5102 2.8 9.9h30.9c0.5804-3.3898 1.519-6.7084 2.8-9.9 1.2728-2.8793 2.7084-5.6839 4.3-8.4h-13.9c0.1 0-5.5 5.7-9 5.7z"/><path fill="#3F3F3F" d="M17,61v-3.8c0-5,5-9,10-9c6,5,12,5,18,0c5,0,10,4,10,9V61H17z"/><path d="m31.45 61h9c3.6-2.9 5.6-13.5 5.6-13.5-5.7672 5-14.333 5-20.1 0 0-0.1 2 10.5 5.5 13.5z"/></g><g id="e"><path fill="none" stroke="#000" stroke-linejoin="round" stroke-width="2" d="m25 30.934c0 8 5 14 11 14s11-6 11-14c0-5-2-8-6-12-4 4-16 9-16 11v1z"/><path fill="none" stroke="#000" stroke-linecap="round" stroke-linejoin="round" stroke-width="2" d="m17.248 39.138c0.4948-2.4807 1.7853-4.7854 2.7268-7.2042 1.6357-4.2-0.209-6.4512 1.291-12.034 1.4795-5.5 7.2773-8.9658 13.709-8.9658 5.4 0 8 3 8 3 4.169 0.374 7.373 3.8515 7.4052 8.0371 0.3867 7.18 1.0244 7.1523 3.4287 12.822 0.5667 1.3101 0.8863 2.7137 0.9427 4.14"/><path fill="none" stroke="#000" stroke-linejoin="round" stroke-width="2" d="m26.5 39.4h-13.1c1.6694 2.6727 3.1079 5.4829 4.3 8.4 0.5072 1.2402 0.9413 2.509 1.3 3.8"/><path fill="none" stroke="#000" stroke-linejoin="round" stroke-width="2" d="m53 51.4c0.4-1.2 0.8-2.4 1.3-3.6 1.1713-2.9266 2.6108-5.7385 4.3-8.4h-13.9"/><path d="m42 30.1c0 1.1046-0.8954 2-2 2s-2-0.8954-2-2 0.8954-2 2-2c1.1032 0.0032 1.9968 0.8968 2 2"/><path d="m34 30.1c0 1.1046-0.8954 2-2 2s-2-0.8954-2-2 0.8954-2 2-2c1.1032 0.0032 1.9968 0.8968 2 2"/><path fill="none" stroke="#000" stroke-linecap="round" stroke-linejoin="round" stroke-width="2" d="m33 39c1.875-1 4.125-1 6 0"/><path fill="none" stroke="#000" stroke-linecap="round" stroke-linejoin="round" d="m38 38.5c0.2408 0.0816 0.4748 0.1819 0.7 0.3"/><path fill="none" stroke="#000" stroke-linecap="round" stroke-linejoin="round" stroke-width="2" d="m17 60v-3c0-5 5-9 10-9 6 5 12 5 18 0 5 0 10 4 10 9v3"/><polygon stroke="#000" stroke-linecap="round" stroke-linejoin="round" points="34 38.7 34.3 41.1 35.1 38.8 35 38.7"/><polygon stroke="#000" stroke-linecap="round" stroke-linejoin="round" points="37.9 38.7 37.7 41.1 36.9 38.8 36.8 38.7"/></g></svg>