<?xml version="1.0" encoding="UTF-8"?>
<svg id="a" version="1.1" viewBox="0 0 72 72" xmlns="http://www.w3.org/2000/svg"><g id="b"><g id="c" fill="#a57939"><circle cx="47" cy="11" r="3"/><path d="m56 42.9c-3.3 0-5.5-18.3-9-18.3s-7.2 18.3-11 18.3c0 0 2.1-5.7 2.5-10.6 0.2-2.5 0.3-9.3 0.3-9.3 0.1-2.8 2.4-5 5.2-5h6c2.8 0 5.1 2.2 5.2 5l0.8 19.9z"/><path d="M52,23.8c-0.5,2.5-0.1,6.7,0.2,8.2s0.5,4.9,0.6,5.6c0.3,3,1.1,24.2,1.1,24.2c0.1,1.1-0.7,1.8-1.5,1.8 S51,63,50.9,62.3L48.2,39c-0.1-0.6-0.5-1.1-1.2-1.1s-1.1,0.5-1.2,1.1l-2.7,23.3c-0.1,0.7-0.7,1.3-1.5,1.3s-1.6-0.7-1.5-1.8 c0,0,0.8-21.2,1.1-24.2c0-0.7,0.3-4.2,0.6-5.6c0.3-1.5,0.7-5.7,0.2-8.2"/></g><g id="d" fill="#debb90"><circle cx="25" cy="11" r="3"/><path d="m16.8 23c0.1-2.8 2.4-5 5.2-5h6c2.8 0 5.1 2.2 5.2 5 0 0 0.1 6.7 0.3 9.3 0.4 4.9 2.5 10.6 2.5 10.6-3.8 0-7.5-18.3-11-18.3s-5.7 18.3-9 18.3l0.8-19.9z"/><path d="m30 23.8c-0.5 2.5-0.1 6.7 0.2 8.2s0.5 4.9 0.6 5.6c0.3 3 1.1 24.2 1.1 24.2 0.1 1.1-0.7 1.8-1.5 1.8s-1.4-0.6-1.5-1.3l-2.7-23.3c-0.1-0.6-0.5-1.1-1.2-1.1s-1.1 0.5-1.2 1.1l-2.7 23.3c-0.1 0.7-0.7 1.3-1.5 1.3s-1.6-0.7-1.5-1.8c0 0 0.8-21.2 1.1-24.2 0-0.7 0.3-4.2 0.6-5.6 0.3-1.5 0.7-5.7 0.2-8.2"/></g></g><g id="e" fill="none" stroke="#000" stroke-width="2"><circle cx="25" cy="11" r="3" stroke-miterlimit="10"/><path d="m16 41.9 0.8-18.9c0.1-2.8 2.4-5 5.2-5h6c2.8 0 5.1 2.2 5.2 5 0 0 0.1 6.7 0.3 9.3 0.4 4.9 2.5 9.6 2.5 9.6" stroke-linecap="round" stroke-linejoin="round"/><circle cx="47" cy="11" r="3" stroke-miterlimit="10"/><path d="m36 41.9s2.1-4.7 2.5-9.6c0.2-2.5 0.3-9.3 0.3-9.3 0.1-2.8 2.4-5 5.2-5h6c2.8 0 5.1 2.2 5.2 5l0.8 18.9" stroke-linecap="round" stroke-linejoin="round"/><path d="m30 23.8c-0.5 2.5-0.1 6.7 0.2 8.2s0.5 4.9 0.6 5.6c0.3 3 1.1 24.2 1.1 24.2 0.1 1.1-0.7 1.8-1.5 1.8s-1.4-0.6-1.5-1.3l-2.7-23.3c-0.1-0.6-0.5-1.1-1.2-1.1s-1.1 0.5-1.2 1.1l-2.7 23.3c-0.1 0.7-0.7 1.3-1.5 1.3s-1.6-0.7-1.5-1.8c0 0 0.8-21.2 1.1-24.2 0-0.7 0.3-4.2 0.6-5.6 0.3-1.5 0.7-5.7 0.2-8.2" stroke-linecap="round" stroke-linejoin="round"/><path d="m52 23.8c-0.5 2.5-0.1 6.7 0.2 8.2s0.5 4.9 0.6 5.6c0.3 3 1.1 24.2 1.1 24.2 0.1 1.1-0.7 1.8-1.5 1.8s-1.4-0.6-1.5-1.3l-2.7-23.3c-0.1-0.6-0.5-1.1-1.2-1.1s-1.1 0.5-1.2 1.1l-2.7 23.3c-0.1 0.7-0.7 1.3-1.5 1.3s-1.6-0.7-1.5-1.8c0 0 0.8-21.2 1.1-24.2 0-0.7 0.3-4.2 0.6-5.6 0.3-1.5 0.7-5.7 0.2-8.2" stroke-linecap="round" stroke-linejoin="round"/></g></svg>
