<?xml version="1.0" encoding="UTF-8"?>
<svg id="a" viewBox="0 0 72 72" xmlns="http://www.w3.org/2000/svg"><g id="b"><path d="m54.922 60.932s2-14.027-10-14.027c-3.1919 2.1279-5.9264 3.5984-9 3.5921h0.125c-3.0736 0.0063-5.8082-1.4642-9-3.5921-12 0-10 14.027-10 14.027z" fill="#92d3f5"/><path d="m45.308 46.905a18.013 18.013 0 0 1-8.9375 3.5885c13.062 0.4115 12.978 6.395 13.74 10.395h5.1129s2.0846-13.984-9.9154-13.984z" fill="#61b2e4"/><polyline points="18.056 52.064 18.056 42.499 25.141 42.499 25.141 46.063" fill="#6a462f"/><path d="m47.967 60.958c-18.499-5.1358-20.92-14.054-20.92-14.054s-4.2 0.2046-5.6776 1.3537c3.1163 6.4287 5.9346 9.5505 14.104 12.681" fill="#a57939"/></g><g id="c" fill="#6a462f"><path d="m38.133 20.532a9.3955 9.3955 0 0 1-2.18-5.054c-0.028 0-0.0549-0.0052-0.0829-0.0052a8.2719 8.2719 0 0 1-1.98 5.0591 10.877 10.877 0 0 1-8.7937 4.7087 17.399 17.399 0 0 0-0.5656 4.4052c0 7.8277 5.0765 14.173 11.339 14.173s11.339-6.3455 11.339-14.173a17.345 17.345 0 0 0-0.6258-4.6109 9.7529 9.7529 0 0 1-8.4496-4.5029z"/><path d="m46.584 24.451 11.45-1.6359s-6.2681 9.8488-10.494 8.7989"/><path d="m25.475 24.432-11.318-1.6171s6.1889 9.7351 10.366 8.6973"/></g><g id="d"><path d="m35.797 11.756a15.35 15.35 0 0 0-15.136 12.846c8.8261 3.0574 13.156-3.9388 13.156-3.9388a8.2716 8.2716 0 0 0 1.98-5.0592h0.0826a9.3969 9.3969 0 0 0 2.18 5.0592s3.413 6.46 12.873 3.93a15.351 15.351 0 0 0-15.135-12.837z"/><path d="M37.48,44.3806l-5.1958-.6448-4.21-2.6168-3.4133-6.106-.3793-2.8445-2.3514-.4171L19.02,29.4878V42.0409l6.159.3305v4.5958l1.9062-.19c3.17,2.1133,5.8895,3.5747,8.9375,3.5885,3.048-.0138,5.7675-1.4752,8.9375-3.5885a9.6884,9.6884,0,0,1,6.5536,2.1348,12.86,12.86,0,0,0,.6612-4.1082c0-16.6561-.27-14.3257-.27-14.3257l-2.3265,1.4249-2.2.2654-1.29,4.8924-3.6029,4.9683Z"/></g><g id="e"><path d="m42.016 28.588a2 2 0 1 1-2-2 2.0007 2.0007 0 0 1 2 2"/><path d="m34.016 28.588a2 2 0 1 1-2-2 2.0007 2.0007 0 0 1 2 2"/><path d="m36.016 38.591a7.6528 7.6528 0 0 1-3.4473-0.8579 1 1 0 0 1 0.8945-1.7891 5.3774 5.3774 0 0 0 5.1055 0 1 1 0 1 1 0.8945 1.7891 7.6524 7.6524 0 0 1-3.4472 0.8579z"/><path d="m50.964 24.15c-4.4736-13.621-14.947-12.222-14.947-12.222s-10.353-1.3834-14.869 11.986" fill="none" stroke="#000" stroke-linecap="round" stroke-linejoin="round" stroke-width="2"/><circle cx="36.016" cy="22.15" r="1.5"/><path d="m25.461 24.736-11.318-1.6171s6.1889 9.7351 10.366 8.6973" fill="none" stroke="#000" stroke-linecap="round" stroke-linejoin="round" stroke-width="2"/><path d="m36.016 15.776a20.458 20.458 0 0 1-3.08 5.0592" fill="none" stroke="#000" stroke-linecap="round" stroke-linejoin="round" stroke-width="2"/><path d="m46.571 24.754 11.45-1.6359s-6.2678 9.8488-10.494 8.7989" fill="none" stroke="#000" stroke-linecap="round" stroke-linejoin="round" stroke-width="2"/><path d="m36.016 15.776a20.456 20.456 0 0 0 3.08 5.0592" fill="none" stroke="#000" stroke-linecap="round" stroke-linejoin="round" stroke-width="2"/><line x1="51.216" x2="51.216" y1="31.033" y2="44.536" fill="none" stroke="#000" stroke-linecap="round" stroke-linejoin="round" stroke-width="2"/><polyline points="18.088 52.108 18.088 42.543 25.173 42.543 25.173 46.108" fill="none" stroke="#000" stroke-linecap="round" stroke-linejoin="round" stroke-width="2"/><line x1="20.022" x2="20.022" y1="42.504" y2="37.761" fill="none" stroke="#000" stroke-linecap="round" stroke-linejoin="round" stroke-width="2"/><line x1="23.393" x2="23.393" y1="42.543" y2="39.102" fill="none" stroke="#000" stroke-linecap="round" stroke-linejoin="round" stroke-width="2"/><path d="M54.9537,59.9492s2-13-10-13c-3.1919,2.1279-5.9264,3.5984-9,3.5921h.125c-3.0736.0063-5.8082-1.4642-9-3.5921-12,0-10,13-10,13" fill="none" stroke="#000" stroke-linecap="round" stroke-linejoin="round" stroke-width="2"/><path d="m26.439 24.547-0.9825 0.2293a17.29 17.29 0 0 0-0.779 5.1733c0 7.8276 5.0765 14.173 11.339 14.173s11.339-6.3456 11.339-14.173a17.29 17.29 0 0 0-0.7791-5.1733l-0.8123-0.3239" fill="none" stroke="#000" stroke-linecap="round" stroke-linejoin="round" stroke-width="2"/><path d="m46.571 24.754 11.45-1.6359s-6.2678 9.8488-10.494 8.7989" fill="none" stroke="#000" stroke-linecap="round" stroke-linejoin="round" stroke-width="2"/><line x1="19.947" x2="19.947" y1="30.333" y2="33.501" fill="none" stroke="#000" stroke-linecap="round" stroke-linejoin="round" stroke-width="2"/><path d="m47.896 60.006c-18.499-5.1359-20.817-13.057-20.817-13.057s-4.2 0.2046-5.6776 1.3537c3.1163 6.4287 5.69 8.6387 13.86 11.769" fill="none" stroke="#000" stroke-linecap="round" stroke-linejoin="round" stroke-width="2"/><path d="m46.724 21.294c-2.6425-0.6931-3.2409 2.473-6.127 1.7854" fill="none" stroke="#000" stroke-linecap="round" stroke-linejoin="round" stroke-width="2"/><path d="M31.3867,23.08c-2.886.6876-2.8758-2.7625-5.5183-2.0694" fill="none" stroke="#000" stroke-linecap="round" stroke-linejoin="round" stroke-width="2"/></g></svg>
