<?xml version="1.0" encoding="UTF-8"?>
<svg id="a" viewBox="0 0 72 72" xmlns="http://www.w3.org/2000/svg"><g id="b"><path d="M55,60.998V57c0-4.9941-5.0059-9-10-9c-6,5-12,5-18,0c-4.9922,0-10,4.0059-10,9v3.998H55z" fill="#92D3F5"/></g><g id="c"><path d="m25 39c-2 0-4-10-4-13 0-4 5-14 15-14s15 8 15 14c0 5-3 14-5 14" fill="#D0CFCE"/></g><g id="d"><path d="M25,31.5C25,39.7861,29,46,35.9365,46C43,46,47,39.7861,47,31.5c0-6.2144-3-11.3931-4-12.4287 C41,17,40,17,40,17c-2,1.0356-9,0-11,2.0713C28,20.1069,25,25.2856,25,31.5z" fill="#debb90"/></g><g id="e"><path d="m27.096 41c-4-2-5.4473-8.0303-6-13-1-9 6-16 15-16 10 0 16 7 15 16.154-0.7432 6.8062-3 11.846-6 12.846" fill="none" stroke="#000" stroke-linecap="round" stroke-linejoin="round" stroke-width="2"/><path d="m25.096 31.5c0 8.2861 4 14.5 10.936 14.5 7.0635 0 11.064-6.2139 11.064-14.5 0-6.2144-1.2158-8.1025-2-9.3213-2-3.1074-4-5.1787-4-5.1787-2 1.0356-10 0-12 2.0713-1 1.0356-4 6.2143-4 12.429z" fill="none" stroke="#000" stroke-linejoin="round" stroke-width="2"/><path d="m17 60v-3c0-4.9941 5.0078-9 10-9 6 5 12 5 18 0 4.9941 0 10 4.0059 10 9v3" fill="none" stroke="#000" stroke-linecap="round" stroke-linejoin="round" stroke-width="2"/><path d="m38.127 38.438c-1.2481 0.75-2.5821 0.75-4 0" fill="none" stroke="#000" stroke-linecap="round" stroke-linejoin="round" stroke-width="2"/><path d="m31.127 36.438c0 1-1 2-1 2" fill="none" stroke="#000" stroke-linecap="round" stroke-linejoin="round" stroke-width="2"/><path d="m41.127 36.438c0 1 1 2 1 2" fill="none" stroke="#000" stroke-linecap="round" stroke-linejoin="round" stroke-width="2"/><path d="m42 29.438c0 1.1045-0.8955 2-2 2s-2-0.8955-2-2 0.8955-2 2-2 2 0.8955 2 2"/><path d="m34 29.438c0 1.1045-0.8955 2-2 2s-2-0.8955-2-2 0.8955-2 2-2 2 0.8955 2 2"/></g></svg>
