<svg xmlns="http://www.w3.org/2000/svg" id="a" version="1.1" viewBox="0 0 72 72"><g id="b"><polyline fill="#92D3F5" points="51.112 33.188 54.162 34.205 52.898 38 49.848 36.983"/><path fill="#D0CFCE" d="M40,7v1l-2,8c0,0-1,3-3,6s-4,4-4,4l-3,2l-2,2l-5,11l1,2v1l1,1l-3,4l-3.2656,7.6875L11,62l-7.041,1L4,9l16-5 h16L40,7z"/></g><g id="c" fill="#debb90"><circle cx="51.969" cy="15.094" r="3"/><path d="m48 21 4.9688 2.375-2.7618 13.235-1.0722 1.5302-2.1348 11.859 3 12-3 1-5-13v-10l-9-5-9 9-2-2 10-12 9.6025 2.8809s3.0225-6.6309 4.3975-8.8809c0 0-4.917-0.75-11.826-2.9106-1.5439-0.483-3.0175-1.5581-2.0175-3.5581"/></g><g id="d" fill="none" stroke="#000" stroke-miterlimit="10" stroke-width="2"><circle cx="51.969" cy="15.094" r="3"/><path stroke-linecap="round" stroke-linejoin="round" d="M42,33l-8.084-2.4258c-1.0537-0.3154-2.4922,0.1172-3.1963,0.9619l-7.4394,8.9278C22.5762,41.3086,22.4502,42.4502,23,43 s1.6367,0.3633,2.4141-0.4141l6.1718-6.1718c0.7774-0.7774,2.2012-0.9766,3.1621-0.4424l5.504,3.0566 C41.2129,39.5625,42.9004,40,44,40h1c1.0996,0,2.6182-0.6533,3.375-1.4531l0.457-0.4834c0.7569-0.7998,1.5537-2.2656,1.7715-3.2588 C50.8213,33.8125,51,33,51,33"/><path stroke-linecap="round" stroke-linejoin="round" d="M49.1348,38.1406l-1.7803,9.8907c-0.1953,1.083-0.1357,2.8417,0.1309,3.9091l2.0292,8.1192 c0.2667,1.0674-0.1894,2.165-1.0146,2.4404s-1.8232-0.3398-2.2178-1.3662l-3.5644-9.2676C42.3232,50.8398,42,49.0996,42,48v-7"/><path stroke-linecap="round" stroke-linejoin="round" d="m51 33 1.8506-6.1685c0.6318-2.1074-0.2002-4.2817-1.8506-4.8315s-4.7861-1.2231-6.9687-1.4961l-0.0625-0.0078c-2.1827-0.273-5.544-0.9248-7.4688-1.4492s-3.5-0.9531-3.5-0.9531"/><polyline stroke-linecap="round" stroke-linejoin="round" points="16 56 23 45 21 41 27 28 32 25 34 22"/><line x1="43" x2="51" y1="30" y2="33" stroke-linecap="round" stroke-linejoin="round"/><polyline stroke-linecap="round" stroke-linejoin="round" points="52.265 33.572 54.162 34.205 52.898 38 51 37.367"/><line x1="37" x2="39" y1="16" y2="8" stroke-linecap="round" stroke-linejoin="round"/><line x1="46" x2="45" y1="25" y2="27" stroke-linecap="round" stroke-linejoin="round"/></g></svg>