<svg xmlns="http://www.w3.org/2000/svg" id="a" viewBox="0 0 72 72"><g id="b"><rect width="38" height="62" x="17" y="5" fill="#d22f27"/><circle cx="36" cy="27" r="10" fill="#f1b31c"/></g><g id="c"><g fill="none" stroke="#000"><g stroke-linecap="round" stroke-linejoin="round"><line x1="31.887" x2="31.887" y1="21.413" y2="23.867"/><path d="M29.9242,23.8669h3.8493A12.01,12.01,0,0,1,29.7,28.85"/><path d="m33.587 28.264a5.2377 5.2377 0 0 1-1.7-1.4514v5.7744"/><line x1="34.812" x2="41.7" y1="22.148" y2="22.148"/><rect width="4.488" height="2.01" x="35.98" y="23.84"/><polyline points="35.37 32.537 35.37 27.615 38.268 27.615 41.166 27.615 41.166 32.537"/><line x1="35.37" x2="41.166" y1="29.667" y2="29.667"/><line x1="35.37" x2="41.166" y1="31.716" y2="31.716"/><line x1="38.229" x2="38.229" y1="31.716" y2="27.615"/></g><g stroke-linecap="round" stroke-miterlimit="10" stroke-width="2"><circle cx="36" cy="27" r="10"/><path d="m55 18a25.4 25.4 0 0 1-9.2886 6.6522"/><path d="M26.2886,24.6522A25.4,25.4,0,0,1,17,18"/></g><rect width="38" height="62" x="17" y="5" stroke-linejoin="round" stroke-width="2"/></g></g></svg>