<?xml version="1.0" encoding="UTF-8"?>
<svg id="a" viewBox="0 0 72 72" xmlns="http://www.w3.org/2000/svg"><g id="b"><rect transform="translate(-31.151 32.11) rotate(-45)" x="22.184" y="50.234" width="2" height="6.8467" fill="#92d3f5"/><rect transform="translate(-29.145 27.268) rotate(-45)" x="17.343" y="45.392" width="2" height="6.8472" fill="#ea5a47"/><rect transform="translate(-16.645 32.693) rotate(-45)" x="30.141" y="33.314" width="2" height="6.2505" fill="#92d3f5"/><rect transform="translate(-18.476 37.112) rotate(-45)" x="34.561" y="37.734" width="2" height="6.25" fill="#ea5a47"/><rect transform="translate(-14.888 38.846) rotate(-45)" x="38.447" y="33.971" width="2" height="6.8467" fill="#92d3f5"/><rect transform="translate(-12.883 34.004) rotate(-45)" x="33.605" y="29.129" width="2" height="6.8472" fill="#ea5a47"/><polygon points="41.748 30.252 40.016 31.984 37.114 29.082 38.152 28.044" fill="#92d3f5"/><polygon points="44.038 33.767 42.918 34.886 40.016 31.984 41.748 30.252" fill="#ea5a47"/><rect transform="translate(-1.6848 44.068) rotate(-45)" x="51.352" y="20.943" width="2" height="6.25" fill="#92d3f5"/><rect transform="translate(.1458 39.648) rotate(-45)" x="46.932" y="16.523" width="2" height="6.2505" fill="#ea5a47"/><rect transform="translate(2.5008 46.048) rotate(-45)" x="55.836" y="16.582" width="2" height="6.8467" fill="#92d3f5"/><rect transform="translate(4.5062 41.207) rotate(-45)" x="50.994" y="11.74" width="2" height="6.8472" fill="#ea5a47"/><rect transform="translate(-35.446 30.33) rotate(-45)" x="17.889" y="54.529" width="2" height="6.8467" fill="#92d3f5"/><rect transform="translate(-33.441 25.489) rotate(-45)" x="13.047" y="49.687" width="2" height="6.8472" fill="#ea5a47"/><path d="m48.813 31.842c0.792 3.9598 0.3747 8.4358-4.08 12.89-4.4548 4.4548-8.9308 4.872-12.89 4.08-2.1284-0.4313-4.1154-1.2162-5.8761-1.9021-0.2122-0.0848-0.4242-0.1697-0.6293-0.2475-4.5891-1.7748-7.2407-2.4466-10.246 0.5586l-4.4407 4.4407c-1.0748 1.0748-2.8143 1.0748-3.8891 0s-1.0748-2.8143 0-3.8891l4.4407-4.4407c4.0446-4.0446 8.2024-4.1436 11.985-3.1749 1.6829 0.4101 3.2951 1.0465 4.7871 1.6334 0.5586 0.2192 1.0961 0.4313 1.6122 0.6223 4.5326 1.6758 7.5731 2.1142 11.257-1.5698s3.2456-6.7245 1.5698-11.257c0.5162 0.1909 1.0536 0.4031 1.6122 0.6223 1.4919 0.5869 3.1042 1.2233 4.7871 1.6334z" fill="#92d3f5"/><path d="M51.6624,6.7612c1.0748,1.0748,1.0748,2.8143,0,3.8891l-4.4407,4.4407c-3.0052,3.0052-2.3334,5.6568-.5586,10.2459-.2051-.0778-.4172-.1626-.6293-.2475-1.7607-.6859-3.7477-1.4708-5.8761-1.9021-.9687-3.783-.8697-7.9408,3.1749-11.9854l4.4407-4.4407c1.0748-1.0748,2.8143-1.0748,3.8891,0Z" fill="#92d3f5"/><path d="M25.9662,46.9107c1.7607,.6859,3.7477,1.4708,5.8761,1.9021,.9687,3.783,.8697,7.9408-3.1749,11.9854l-4.4407,4.4407c-1.0748,1.0748-2.8143,1.0748-3.8891,0s-1.0748-2.8143,0-3.8891l4.4407-4.4407c3.0052-3.0052,2.3334-5.6568,.5586-10.2459,.2051,.0778,.4172,.1626,.6293,.2475Z" fill="#ea5a47"/><path d="M65.2388,20.3376c1.0748,1.0748,1.0748,2.8143,0,3.8891l-4.4407,4.4407c-4.0446,4.0446-8.2024,4.1436-11.9854,3.1749-1.6829-.4101-3.2951-1.0465-4.7871-1.6334-.5586-.2192-1.0961-.4313-1.6122-.6223-4.5326-1.6758-7.5731-2.1142-11.2571,1.5698s-3.2456,6.7245-1.5698,11.2571c-.5162-.1909-1.0536-.4031-1.6122-.6223-1.4919-.5869-3.1042-1.2233-4.7871-1.6334-.792-3.9598-.3747-8.4358,4.08-12.8905s8.9308-4.872,12.8905-4.08c2.1284,.4313,4.1154,1.2162,5.8761,1.9021,.2122,.0848,.4242,.1697,.6293,.2475,4.5891,1.7748,7.2407,2.4466,10.2459-.5586l4.4407-4.4407c1.0748-1.0748,2.8143-1.0748,3.8891,0Z" fill="#ea5a47"/></g><g id="c" fill="none" stroke="#000" stroke-width="2"><g stroke-miterlimit="10"><path d="m23.193 40.152c-0.7944-3.9626-0.3766-8.4301 4.076-12.883 6.8508-6.8508 13.737-4.1505 18.765-2.1779 4.9843 1.9542 7.7305 2.8277 10.874-0.3156l4.4401-4.4401c1.0738-1.0738 2.8153-1.0738 3.8891 0s1.0738 2.8153 0 3.8891l-4.4401 4.4401c-5.835 5.835-11.899 3.4575-16.77 1.5468-5.469-2.1448-8.7629-3.1585-12.868 0.9467-3.684 3.684-3.2459 6.7149-1.5669 11.25"/><path d="m31.851 48.806c0.9568 3.7914 0.8586 7.946-3.1864 11.991l-4.4401 4.4401c-1.0738 1.0738-2.8153 1.0738-3.8891 0s-1.0738-2.8153 0-3.8891l4.4401-4.4401c3.0081-3.0081 2.3373-5.6531 0.5607-10.244"/></g><g stroke-miterlimit="10"><path d="m40.148 23.193c-0.9565-3.7911-0.8576-7.9453 3.1868-11.99l4.4401-4.4401c1.0738-1.0738 2.8153-1.0738 3.8891 0s1.0738 2.8153 0 3.8891l-4.4401 4.4401c-3.0084 3.0084-2.337 5.6534-0.5609 10.244"/><path d="m48.807 31.851c0.7937 3.9617 0.3748 8.4283-4.0766 12.88-6.8508 6.8508-13.737 4.1498-18.765 2.1783-4.9836-1.9542-7.7305-2.8277-10.874 0.3152l-4.4401 4.4401c-1.0738 1.0738-2.8153 1.0738-3.8891 0s-1.0738-2.8153 0-3.8891l4.4401-4.4401c5.835-5.835 11.898-3.4572 16.771-1.5465 5.4683 2.1448 8.7625 3.1582 12.868-0.9471 3.6841-3.6841 3.2456-6.7147 1.5671-11.25"/></g><line x1="50.984" x2="60.667" y1="11.333" y2="21.016" stroke-linecap="round" stroke-linejoin="round"/><line x1="46.712" x2="56.347" y1="15.653" y2="25.288" stroke-linecap="round" stroke-linejoin="round"/><line x1="35.224" x2="43.423" y1="28.577" y2="36.776" stroke-linecap="round" stroke-linejoin="round"/><line x1="30.789" x2="40.459" y1="31.541" y2="41.211" stroke-linecap="round" stroke-linejoin="round"/><line x1="28.361" x2="35.489" y1="36.511" y2="43.639" stroke-linecap="round" stroke-linejoin="round"/><line x1="17.735" x2="26.546" y1="45.454" y2="54.265" stroke-linecap="round" stroke-linejoin="round"/><line x1="13.003" x2="22.687" y1="49.313" y2="58.997" stroke-linecap="round" stroke-linejoin="round"/></g></svg>
