<svg xmlns="http://www.w3.org/2000/svg" id="a" viewBox="0 0 72 72"><g id="b"><path fill="#5c9e31" d="M42.06,29.84V52.92a6.506,6.506,0,0,1-6.51,6.51,6.3082,6.3082,0,0,1-1.7754-.2486A6.5,6.5,0,0,1,29.04,52.92V29.84h.7811l-.5444,1.0534A14.0534,14.0534,0,0,0,35.55,32.2075a15.9069,15.9069,0,0,0,2.9589-.26c.071-.0119.1539-.0236.2249-.0355a11.5513,11.5513,0,0,0,3.0891-1.0178"/><path fill="#b1cc33" d="m28.294 30.894a14.053 14.053 0 0 0 6.2729 1.3137 15.907 15.907 0 0 0 2.9589-0.26v20.972a6.5 6.5 0 0 1-4.7343 6.261 6.5 6.5 0 0 1-4.7342-6.261v-23.08"/></g><g id="c" fill="none" stroke="#000" stroke-width="2"><path stroke-linecap="round" stroke-linejoin="round" d="m42.06 16.937v35.43a6.7993 6.7993 0 0 1-6.51 7.0628 6.7992 6.7992 0 0 1-6.51-7.0628v-35.082"/><ellipse cx="35.543" cy="15.224" stroke-miterlimit="10" rx="7.393" ry="3.137"/><path stroke-linecap="round" stroke-linejoin="round" d="M42.06,29.84V52.92a6.506,6.506,0,0,1-6.51,6.51,6.3082,6.3082,0,0,1-1.7754-.2486A6.5,6.5,0,0,1,29.04,52.92V29.84"/><path stroke-linecap="round" stroke-linejoin="round" d="M29.277,30.8938A14.0534,14.0534,0,0,0,35.55,32.2075a15.9069,15.9069,0,0,0,2.9589-.26c.071-.0119.1539-.0236.2249-.0355a11.5513,11.5513,0,0,0,3.0891-1.0178"/></g></svg>