<?xml version="1.0" encoding="UTF-8"?>
<svg id="a" viewBox="0 0 72 72" xmlns="http://www.w3.org/2000/svg"><g id="b" fill="#ea5a47"><path id="c" d="m33.76 32.43c-1.5816-1.582-4.1121 0.5854-4.9849 2.6526l0.0014-10.437a7.29 7.29 0 0 0-2.6321-5.6982c-6.617-5.3284-15.466 0.4108-15.732 7.0178-0.2336 5.79-0.0016 11.589-0.0025 17.383 0 3.0637 1.4989 10.538 1.4989 10.538s6.3562 1.1788 9.5168 1.32c3.38 0.1506 6.7166-0.0164 8.9268-2.1929 2.1361-2.1035 3.2031-6.1585 3.2036-9.3933-0.0342-2.235 0.2032-6.0348 0.2043-11.189z"/><path id="d" d="m38.041 32.525c1.5815-1.5821 4.1121 0.5853 4.9849 2.6525l-0.0015-10.437a7.29 7.29 0 0 1 2.6322-5.6982c6.6169-5.3284 15.466 0.4109 15.732 7.0179 0.2336 5.79 0.0017 11.589 0.0025 17.383 0 3.0638-1.4988 10.538-1.4988 10.538s-6.3563 1.1788-9.5169 1.32c-3.38 0.1506-6.7166-0.0165-8.9268-2.1929-2.1361-2.1035-3.2031-6.1585-3.2036-9.3933 0.0338-2.235-0.2035-6.0348-0.2042-11.189z"/></g><g id="e" fill="none" stroke="#000" stroke-linecap="round" stroke-linejoin="round" stroke-width="2"><path id="f" d="m12.983 55.15h15.533c4.6471-3.7963 6.7794-10.241 5.5558-21.582a1.6534 1.6534 0 0 0-2.1567-1.4435 5.79 5.79 0 0 0-2.9407 3.0528l0.0015-10.437a7.3549 7.3549 0 0 0-2.8-5.8308c-6.5977-5.0987-15.039 0.6151-15.564 7.1505-0.8356 10.388-2.482 23.688 2.3714 29.091z"/><path id="g" d="m59.017 55.15h-15.533c-4.6471-3.7963-6.7794-10.241-5.5558-21.582a1.6534 1.6534 0 0 1 2.1567-1.4435 5.79 5.79 0 0 1 2.9407 3.0528l-0.0015-10.437a7.3549 7.3549 0 0 1 2.8-5.8308c6.5977-5.0987 15.039 0.6151 15.564 7.1505 0.8356 10.388 2.482 23.688-2.3714 29.091z"/><line x1="43.484" x2="43.026" y1="41.882" y2="35.177"/><line x1="28.516" x2="28.974" y1="41.882" y2="35.177"/></g></svg>
