<?xml version="1.0" encoding="UTF-8"?>
<svg id="a" viewBox="0 0 72 72" xmlns="http://www.w3.org/2000/svg"><g id="b"><line x1="16" x2="25.875" y1="35" y2="35" fill="#ea5a47"/><path d="m25.875 35c3.4167 0 4.75-2.9167 4.75-6.1667" fill="#ea5a47"/><line x1="16" x2="19.75" y1="45.5" y2="45.5" fill="#ea5a47"/><line x1="35.3" x2="35.3" y1="45.5" y2="39.438" fill="#ea5a47"/><path d="m35.3 39.438c0-2.2455 1.2003-5.25 5.0756-5.25" fill="#ea5a47"/><line x1="58.458" x2="49.875" y1="34.542" y2="34.542" fill="#ea5a47"/><path d="m40.375 45.5s0.1642 10.5-7.9583 10.5h-16.417c-7.2083 0-7.6667-10.5 0-10.5-7.2083 0-7.6667-10.5 0-10.5-8.1667-7.25 1.875-13.562 6.5-8.6875-4.799-6.625 5.375-10.312 8.875-5-0.4123-5.3125 4.8472-6.2708 9.7253-2.2885l-0.4336 0.351c2.375-2.375 10.178-1.0833 10.178 5.3141l-2.2192 1.6234c6.8646-6.8646 14.208 4.1875 8.5 8.2292h1.3333c4.75 0 5.2917 10.958-1.3333 10.958h-27.833" fill="#FFA7C0"/><path d="m40.667 19.375c-2.4167 2.4167-0.2822 3.1782-4.2707 7.1667" fill="#ea5a47"/></g><g id="c" fill="none" stroke="#000" stroke-linecap="round" stroke-linejoin="round" stroke-miterlimit="10" stroke-width="2"><line x1="16" x2="25.875" y1="35" y2="35"/><path d="m25.875 35c3.4167 0 4.75-2.9167 4.75-6.1667"/><line x1="16" x2="19.75" y1="45.5" y2="45.5"/><line x1="35.3" x2="35.3" y1="45.5" y2="39.438"/><path d="m35.3 39.438c0-2.2455 1.2003-5.25 5.0756-5.25"/><line x1="58.458" x2="49.875" y1="34.542" y2="34.542"/><path d="m40.375 45.5s0.1642 10.5-7.9583 10.5h-16.417c-7.2083 0-7.6667-10.5 0-10.5-7.2083 0-7.6667-10.5 0-10.5-8.1667-7.25 1.875-13.562 6.5-8.6875-4.799-6.625 5.375-10.312 8.875-5-0.4123-5.3125 4.8472-6.2708 9.7253-2.2885l-0.4336 0.351c2.375-2.375 10.178-1.0833 10.178 5.3141l-2.2192 1.6234c6.8646-6.8646 14.208 4.1875 8.5 8.2292h1.3333c4.75 0 5.2917 10.958-1.3333 10.958h-27.833"/><path d="m40.667 19.375c-2.4167 2.4167-0.2822 3.1782-4.2707 7.1667"/></g></svg>
