<svg xmlns="http://www.w3.org/2000/svg" id="a" viewBox="0 0 72 72"><g id="b"><circle cx="20.197" cy="19.736" r="2.724" fill="#ea5a47"/><path fill="#d22f27" d="m21.276 17.057a2.7207 2.7207 0 0 1-3.7589 3.7589 2.7221 2.7221 0 1 0 3.7589-3.7589z"/><circle cx="30.834" cy="19.736" r="2.724" fill="#ea5a47"/><path fill="#d22f27" d="m31.914 17.057a2.7207 2.7207 0 0 1-3.7589 3.7589 2.7221 2.7221 0 1 0 3.7589-3.7589z"/><circle cx="37.697" cy="19.736" r="2.724" fill="#ea5a47"/><path fill="#d22f27" d="m38.777 17.057a2.7207 2.7207 0 0 1-3.7589 3.7589 2.7221 2.7221 0 1 0 3.7589-3.7589z"/><circle cx="45.246" cy="19.736" r="2.724" fill="#ea5a47"/><path fill="#d22f27" d="m46.326 17.057a2.7207 2.7207 0 0 1-3.7589 3.7589 2.7221 2.7221 0 1 0 3.7589-3.7589z"/><circle cx="23.931" cy="30.374" r="2.724" fill="#fcea2b"/><path fill="#f1b31c" d="m25.01 27.695a2.7206 2.7206 0 0 1-3.7588 3.7588 2.722 2.722 0 1 0 3.7588-3.7588z"/><circle cx="31.137" cy="30.374" r="2.724" fill="#fcea2b"/><path fill="#f1b31c" d="m32.216 27.695a2.7206 2.7206 0 0 1-3.7589 3.7588 2.7221 2.7221 0 1 0 3.7589-3.7588z"/><circle cx="47.264" cy="30.374" r="2.724" fill="#fcea2b"/><path fill="#f1b31c" d="m48.344 27.695a2.7206 2.7206 0 0 1-3.7588 3.7588 2.722 2.722 0 1 0 3.7588-3.7588z"/><circle cx="54.814" cy="30.374" r="2.724" fill="#fcea2b"/><path fill="#f1b31c" d="m55.893 27.695a2.7206 2.7206 0 0 1-3.7589 3.7588 2.7221 2.7221 0 1 0 3.7589-3.7588z"/><circle cx="23.931" cy="41.011" r="2.724" fill="#f4aa41"/><path fill="#e27022" d="m25.011 38.332a2.7206 2.7206 0 0 1-3.7589 3.7588 2.7221 2.7221 0 1 0 3.7589-3.7588z"/><circle cx="31.137" cy="41.011" r="2.724" fill="#f4aa41"/><path fill="#e27022" d="m32.216 38.332a2.7206 2.7206 0 0 1-3.7589 3.7588 2.7221 2.7221 0 1 0 3.7589-3.7588z"/><circle cx="41.088" cy="41.011" r="2.724" fill="#f4aa41"/><path fill="#e27022" d="m42.168 38.332a2.7206 2.7206 0 0 1-3.7589 3.7588 2.7221 2.7221 0 1 0 3.7589-3.7588z"/><circle cx="51.423" cy="41.011" r="2.724" fill="#f4aa41"/><path fill="#e27022" d="m52.502 38.332a2.7206 2.7206 0 0 1-3.7589 3.7588 2.7221 2.7221 0 1 0 3.7589-3.7588z"/></g><g id="c" fill="none" stroke="#000"><line x1="12.092" x2="12.092" y1="58.874" y2="12.874" stroke-linecap="round" stroke-linejoin="round" stroke-width="2"/><line x1="48.651" x2="59.546" y1="19.737" y2="19.736" stroke-linecap="round" stroke-linejoin="round" stroke-width="2"/><line x1="41.024" x2="41.892" y1="19.737" y2="19.737" stroke-linecap="round" stroke-linejoin="round" stroke-width="2"/><line x1="34.144" x2="34.407" y1="19.737" y2="19.737" stroke-linecap="round" stroke-linejoin="round" stroke-width="2"/><line x1="23.586" x2="27.473" y1="19.737" y2="19.737" stroke-linecap="round" stroke-linejoin="round" stroke-width="2"/><line x1="12.859" x2="16.891" y1="19.737" y2="19.737" stroke-linecap="round" stroke-linejoin="round" stroke-width="2"/><line x1="59.908" x2="59.908" y1="58.874" y2="12.874" stroke-linecap="round" stroke-linejoin="round" stroke-width="2"/><circle cx="20.197" cy="19.736" r="2.724" stroke-miterlimit="10" stroke-width="1.362"/><circle cx="30.834" cy="19.736" r="2.724" stroke-miterlimit="10" stroke-width="1.362"/><circle cx="37.697" cy="19.736" r="2.724" stroke-miterlimit="10" stroke-width="1.362"/><circle cx="45.246" cy="19.736" r="2.724" stroke-miterlimit="10" stroke-width="1.362"/><line x1="58.075" x2="58.859" y1="30.374" y2="30.374" stroke-linecap="round" stroke-linejoin="round" stroke-width="2"/><line x1="50.557" x2="51.542" y1="30.374" y2="30.374" stroke-linecap="round" stroke-linejoin="round" stroke-width="2"/><line x1="34.48" x2="43.922" y1="30.374" y2="30.374" stroke-linecap="round" stroke-linejoin="round" stroke-width="2"/><line x1="27.183" x2="27.885" y1="30.374" y2="30.374" stroke-linecap="round" stroke-linejoin="round" stroke-width="2"/><line x1="12.859" x2="20.634" y1="30.374" y2="30.374" stroke-linecap="round" stroke-linejoin="round" stroke-width="2"/><circle cx="23.931" cy="30.374" r="2.724" stroke-miterlimit="10" stroke-width="1.362"/><circle cx="31.137" cy="30.374" r="2.724" stroke-miterlimit="10" stroke-width="1.362"/><circle cx="47.264" cy="30.374" r="2.724" stroke-miterlimit="10" stroke-width="1.362"/><circle cx="54.814" cy="30.374" r="2.724" stroke-miterlimit="10" stroke-width="1.362"/><line x1="54.76" x2="58.859" y1="41.011" y2="41.011" stroke-linecap="round" stroke-linejoin="round" stroke-width="2"/><line x1="44.44" x2="48.071" y1="41.011" y2="41.011" stroke-linecap="round" stroke-linejoin="round" stroke-width="2"/><line x1="34.458" x2="37.791" y1="41.011" y2="41.011" stroke-linecap="round" stroke-linejoin="round" stroke-width="2"/><line x1="27.252" x2="27.812" y1="41.011" y2="41.011" stroke-linecap="round" stroke-linejoin="round" stroke-width="2"/><line x1="12.859" x2="20.606" y1="41.011" y2="41.011" stroke-linecap="round" stroke-linejoin="round" stroke-width="2"/><circle cx="23.931" cy="41.011" r="2.724" stroke-miterlimit="10" stroke-width="1.362"/><circle cx="31.137" cy="41.011" r="2.724" stroke-miterlimit="10" stroke-width="1.362"/><circle cx="41.088" cy="41.011" r="2.724" stroke-miterlimit="10" stroke-width="1.362"/><circle cx="51.423" cy="41.011" r="2.724" stroke-miterlimit="10" stroke-width="1.362"/></g></svg>