<svg xmlns="http://www.w3.org/2000/svg" id="a" viewBox="0 0 72 72"><g id="b"><path id="c" fill="#f4aa41" d="M47.0151,13.4757c.872,3.7029,4.3966,18.78,5.2367,23.4147.5558,3.0663,6.243,9.2905,2.2939,12.8615-1.6463,1.4887-8.0961-.1464-18.6271,5.7239A32.3756,32.3756,0,0,1,24.6,58.6741a2.6468,2.6468,0,0,1-1.83-4.5719c2.7678-2.5,6.9394-5.1285,9.4506-7.3386,3.4583-3.0436,5.4853-5.7263,6.3283-8.6978a4.2384,4.2384,0,0,0,.1184-1.8113c-.3742-2.3922-3.3821-14.836-4.2313-17.4714a1.1,1.1,0,0,1,.63-1.4009c1.7238-.6,6.8613-2.6177,8.8566-3.3288"/><path id="d" fill="#f4aa41" d="M43.7336,12.21c.62,3.7533,3.1185,19.0338,3.6437,23.7149.3475,3.0968,5.6015,9.6908,1.42,12.987-1.7431,1.3741-8.0678-.6927-18.9711,4.4531a32.3742,32.3742,0,0,1-11.5091,2.4266A2.6469,2.6469,0,0,1,16.8,51.1065c2.93-2.307,7.27-4.6481,9.9246-6.6836,3.6559-2.8032,5.8594-5.343,6.9012-8.2507a4.2389,4.2389,0,0,0,.24-1.7992c-.2118-2.412-2.3726-15.03-3.042-17.7172a1.1,1.1,0,0,1,.7234-1.3552c1.76-.4822,7.0224-2.1484,9.0611-2.7232"/><path id="e" fill="#e27022" d="M29.0586,53.3207s-5.6794-.3977-6.4778,1.4244c-.3341.7626-.4158,2.8548.2753,3.3192,2.36,1.586,11.24-1.7383,11.24-1.7383l-.7854-3.6331L32.3032,52.05Z"/><polygon id="f" fill="#e27022" points="53.042 39.715 48.672 44.255 47.997 50.99 54.408 50.403 56.165 46.57"/><path id="g" fill="#e27022" d="M23.16,47.2779s-5.6723,2.6932-6.592,4.4573c-.3849.7383-.6076,2.82.05,3.33C18.8666,56.8071,27.951,54.09,27.951,54.09l-.5383-3.6779Z"/><polygon id="h" fill="#e27022" points="47.975 38.796 43.309 43.031 42.18 49.704 48.616 49.552 50.628 45.847"/></g><g id="i" fill="none" stroke="#000" stroke-width="2"><path id="j" stroke-linecap="round" stroke-linejoin="round" d="M43.9388,13.2183c.9837,3.9139,2.5025,19.0774,3.4385,22.7065.7783,3.0175,5.0075,9.6808.8263,12.977-1.7431,1.3742-7.1054-1.2565-18.0087,3.8893-2.0512.9681-7.7537,3.6933-11.8776,3-2.1741-.3653-2.6941-3.918-1.0469-5.676,2.55-2.7214,7.8017-4.4489,10.4564-6.4844,3.656-2.8032,5.1131-4.4062,6.4073-7.2107.7272-1.5759.0155-13.8624-3.3095-19.7646a1.0129,1.0129,0,0,1,.7234-1.3552,54.7736,54.7736,0,0,1,9.274-1.74"/><path id="k" stroke-linecap="round" stroke-linejoin="round" d="m47.288 14.468c1.2458 3.8385 3.785 18.865 4.9639 22.422 0.98 2.9581 5.65 9.3206 1.7006 12.892-1.6463 1.4887-7.174-0.7739-17.705 5.0964-1.9812 1.1043-7.4866 4.2084-11.648 3.7956-1.46-0.1449-2.1551-1.475-2.0942-3.08"/><path id="l" stroke-linecap="round" stroke-linejoin="round" d="m32.645 51.859a11.494 11.494 0 0 1 1.9741 3.9075"/><path id="m" stroke-linecap="round" stroke-linejoin="round" d="m36.629 23.39a48.124 48.124 0 0 1 6.1619-1.7889"/><path id="n" stroke-miterlimit="10" d="m52.702 39.789a18.116 18.116 0 0 0-2.6806 2.3687"/><path id="o" stroke-linecap="round" stroke-linejoin="round" d="m22.818 46.922a6.6045 6.6045 0 0 1 3.8752 2.4416 13.333 13.333 0 0 1 1.8172 4.2037"/><path id="p" stroke-miterlimit="10" d="m47.631 38.847a14.598 14.598 0 0 0-4.2794 3.9332c-1.6329 2.7539-0.9307 6.5283-0.9307 6.5283"/><path id="q" stroke-linecap="round" stroke-linejoin="round" d="M45.3691,21.7928c.335-.0791.6481-.1446.9274-.1912"/></g></svg>