<?xml version="1.0" encoding="UTF-8"?>
<svg id="a" viewBox="0 0 72 72" xmlns="http://www.w3.org/2000/svg"><g id="b"><path d="m39.779 57.882h12.991v-13.031c5.2976 0 11.631 1.4 11.631-6.1934 0-6.7613-6.3338-5.8535-11.631-5.8535v-13.291h-12.991c1.8239-5.8157 1.8239-11.631-4.9774-11.631s-6.73 6.3338-6.73 11.631h-13.67v14.011c4.2433-1.5715 11.631-4.4184 11.631 5.1737s-8.48 6.5814-11.631 5.1737v14.011h11.971c0-5.2976 0-12.383 7.213-12.311 6.7827 0.0675 6.1933 7.0136 6.1933 12.311z" fill="#92d3f5"/><path d="m39.054 51.099c1.7359 1.7359 1.11 4.1339 1.11 6.7827h12.606v-14.011c5.8157 1.0357 10.997 3.6045 10.997-5.2137 0-5.2976-4.9743-6.1934-10.272-6.1934v-12.649h-4.1161" fill="#61b2e4"/></g><g id="c" fill="none" stroke="#000" stroke-linecap="round" stroke-linejoin="round" stroke-width="2"><polyline points="14.402 33.524 14.402 19.513 29.628 19.513"/><polyline points="28 57.882 14.402 57.882 14.402 43.871"/><polyline points="52.77 43.871 52.77 57.882 38.348 57.882"/><polyline points="39.976 19.513 52.77 19.513 52.77 33.524"/><path d="m14.402 33.524c2.6813-2.3413 11.631-3.2873 11.631 5.1737"/><path d="m14.402 43.871c2.6813 2.3413 11.631 3.2873 11.631-5.1737"/><path d="m28 57.882c-2.3414-2.6814-3.2873-11.631 5.1737-11.631"/><path d="m38.348 57.882c2.3413-2.6814 3.2873-11.631-5.1737-11.631"/><path d="m29.628 19.513c-2.3414-2.6814-3.2873-11.631 5.1737-11.631"/><path d="m39.976 19.513c2.3413-2.6814 3.2873-11.631-5.1737-11.631"/><path d="m52.77 43.871c2.6813 2.3413 11.631 3.2873 11.631-5.1737"/><path d="m52.77 33.524c2.6813-2.3413 11.631-3.2873 11.631 5.1737"/></g></svg>
