<svg xmlns="http://www.w3.org/2000/svg" id="a" viewBox="0 0 72 72"><g id="b" fill="#d0cfce"><path d="m46.16 18.741c-0.374-2.402-1.617-4.589-3.501-6.132l-0.312-0.243c-0.396-0.293-0.811-0.557-1.245-0.79l-0.338-0.173c-0.033-0.016-0.065-0.031-0.098-0.045l-0.293-0.132c-0.078-0.041-0.16-0.076-0.244-0.104l-0.245-0.094c-0.063-0.026-0.128-0.049-0.193-0.067v-1e-3c-0.103-0.035-0.208-0.07-0.309-0.099l-0.029-8e-3v-1e-3c-0.15-0.046-0.3-0.091-0.394-0.112-0.149-0.04-0.298-0.078-0.455-0.11-0.059-0.014-0.118-0.025-0.178-0.034l-0.115-0.019c-0.085-0.016-0.157-0.028-0.166-0.028-0.118-0.021-0.237-0.037-0.356-0.047-0.749-0.092-1.506-0.099-2.256-0.018-0.148 0.013-0.296 0.035-0.377 0.051-0.095 0.012-0.185 0.027-0.274 0.043l-0.109 0.018c-0.065 9e-3 -0.129 0.022-0.192 0.039-0.283 0.058-0.563 0.131-0.838 0.218-0.295 0.091-0.591 0.194-0.867 0.307-0.05 0.02-0.099 0.043-0.147 0.068l-0.288 0.13c-0.027 0.012-0.056 0.025-0.083 0.038-0.56 0.273-1.094 0.597-1.594 0.969l-0.374 0.291c-2.251 1.856-3.554 4.622-3.551 7.539 0 0.172 1e-3 0.343 0.011 0.509 0.011 0.188 0.023 0.354 0.046 0.53 0.109 0.852 0.834 1.49 1.692 1.491 0.271 3e-3 0.538-0.068 0.771-0.204 0.634-0.379 0.992-1.09 0.917-1.824-6e-3 -0.062-9e-3 -0.125-0.013-0.196-6e-3 -0.102-5e-3 -0.204-5e-3 -0.306-6e-3 -1.873 0.819-3.653 2.253-4.858l0.303-0.237c0.326-0.24 0.672-0.45 1.035-0.628l0.287-0.129c0.035-0.014 0.07-0.03 0.104-0.047 0.166-0.065 0.343-0.124 0.533-0.183 0.179-0.057 0.362-0.104 0.546-0.141l0.04-9e-3 0.306-0.048c0.057-0.01 0.114-0.021 0.214-0.03 0.481-0.057 0.966-0.056 1.446 4e-3 0.022 3e-3 0.067 8e-3 0.089 0.01l0.297 0.044c0.051 9e-3 0.102 0.017 0.152 0.025 0.018 5e-3 0.293 0.077 0.31 0.08l-0.258-0.068c0.09 0.016 0.175 0.04 0.316 0.077 0.072 0.016 0.144 0.041 0.216 0.062 0.018 6e-3 0.037 0.012 0.057 0.017 0.025 8e-3 0.048 0.015 0.069 0.021l0.204 0.07 7e-3 2e-3 0.056 0.022c0.058 0.023 0.115 0.045 0.171 0.065 0.021 0.01 0.042 0.019 0.063 0.028l0.545 0.262c0.27 0.146 0.53 0.312 0.777 0.496l0.242 0.188c1.22 1.005 2.021 2.429 2.247 3.994 0.031 0.242-0.043 0.486-0.205 0.669-0.161 0.184-0.394 0.289-0.638 0.288-1.397 0.011-2.788-0.2-4.119-0.625-0.358-0.113-0.749-1e-3 -0.993 0.285-0.244 0.285-0.294 0.689-0.127 1.026 1.197 2.364 3.734 5.69 8.316 4.843 0.742-0.153 1.276-0.804 1.28-1.562 0.079-1.823 0.033-3.65-0.139-5.467z"/><ellipse cx="36.489" cy="57.306" rx="4.725" ry="4.701"/></g><g id="c" fill="none" stroke="#000" stroke-width="2"><path stroke-linecap="round" stroke-linejoin="round" d="m41.143 58.223s7.4435-25.205 10.479-35.007"/><path stroke-miterlimit="10" d="m26.796 21.234c0.6752 7.2821 4.9723 36.496 4.9723 36.496"/><ellipse cx="36.489" cy="57.306" stroke-miterlimit="10" rx="4.725" ry="4.701"/><ellipse cx="36.51" cy="57.306" stroke-miterlimit="10" rx="1.667" ry="1.675"/><path stroke-miterlimit="10" d="m26.739 20.195c0 0.172 1e-3 0.343 0.011 0.509 0.011 0.188 0.023 0.354 0.046 0.53 0.109 0.852 0.834 1.49 1.692 1.491"/><path stroke-miterlimit="10" d="m46.16 18.741c-0.374-2.402-1.617-4.589-3.501-6.132l-0.312-0.243c-0.396-0.293-0.811-0.557-1.245-0.79l-0.338-0.173c-0.032-0.016-0.065-0.031-0.098-0.045l-0.293-0.132c-0.078-0.041-0.16-0.076-0.244-0.104l-0.245-0.094c-0.063-0.026-0.128-0.049-0.193-0.067v-1e-3c-0.103-0.035-0.208-0.07-0.309-0.099l-0.029-8e-3v-1e-3c-0.15-0.046-0.3-0.091-0.394-0.112-0.149-0.04-0.298-0.078-0.455-0.11-0.059-0.014-0.118-0.025-0.178-0.034l-0.115-0.019c-0.084-0.016-0.157-0.028-0.166-0.028-0.118-0.021-0.237-0.037-0.356-0.047-0.749-0.092-1.506-0.099-2.256-0.018-0.148 0.013-0.296 0.035-0.377 0.05-0.095 0.013-0.185 0.028-0.274 0.044l-0.109 0.018c-0.065 9e-3 -0.129 0.022-0.192 0.039-0.283 0.058-0.563 0.131-0.838 0.218-0.295 0.091-0.591 0.194-0.867 0.307-0.05 0.02-0.099 0.043-0.147 0.068l-0.288 0.129c-0.027 0.013-0.056 0.026-0.083 0.039-0.56 0.273-1.094 0.597-1.594 0.969l-0.374 0.291c-2.251 1.856-3.554 4.622-3.551 7.539 0 0.172 1e-3 0.343 0.011 0.509 0.011 0.188 0.023 0.354 0.046 0.53 0.111 0.862 0 1.746 1.692 1.491 0.269-0.015 0.531-0.085 0.771-0.204 0.634-0.379 0.992-1.09 0.917-1.824-6e-3 -0.062-9e-3 -0.125-0.013-0.196-6e-3 -0.102-5e-3 -0.204-5e-3 -0.306-6e-3 -1.873 0.819-3.653 2.253-4.858l0.303-0.237c0.326-0.24 0.672-0.45 1.035-0.628l0.287-0.129c0.035-0.014 0.07-0.03 0.104-0.047 0.166-0.065 0.343-0.124 0.533-0.183 0.179-0.057 0.362-0.104 0.546-0.141l0.04-9e-3 0.306-0.048c0.057-0.01 0.114-0.021 0.214-0.03 0.481-0.057 0.966-0.056 1.446 4e-3 0.022 3e-3 0.067 8e-3 0.089 0.01l0.297 0.043c0.051 0.01 0.102 0.018 0.152 0.026 0.018 5e-3 0.293 0.077 0.31 0.08l-0.258-0.068c0.09 0.016 0.175 0.04 0.316 0.077 0.072 0.016 0.144 0.041 0.216 0.062 0.018 6e-3 0.037 0.012 0.057 0.017 0.025 8e-3 0.048 0.015 0.069 0.021l0.204 0.07 7e-3 2e-3 0.056 0.022c0.058 0.023 0.115 0.045 0.171 0.065 0.021 0.01 0.042 0.019 0.063 0.028l0.545 0.262c0.27 0.146 0.53 0.312 0.777 0.496l0.242 0.188c1.22 1.005 2.021 2.429 2.247 3.994 0.031 0.242-0.043 0.486-0.205 0.669-0.161 0.184-0.394 0.289-0.638 0.288-1.397 0.011-2.788-0.2-4.119-0.625-0.358-0.113-0.749-1e-3 -0.993 0.285-0.244 0.285-0.294 0.689-0.127 1.025 1.197 2.365 3.734 5.691 8.316 4.844 0.742-0.153 1.276-0.804 1.28-1.562 0.079-1.823 0.033-3.65-0.139-5.467z"/></g></svg>