<svg xmlns="http://www.w3.org/2000/svg" id="a" viewBox="0 0 72 72"><g id="b"><polygon fill="#d0cfce" points="48.031 57.253 48.031 53.067 48.031 20.375 48.031 15.646 48.031 14.658 23.729 14.658 23.729 15.646 23.729 20.375 23.729 53.067 23.729 57.253"/></g><g id="c" fill="none" stroke="#000" stroke-linecap="round" stroke-linejoin="round" stroke-width="2"><polyline points="23.729 15.428 23.729 20.076 23.729 52.206 23.729 56.32"/><polyline points="48.031 56.32 48.031 52.206 48.031 20.076 48.031 15.428"/><polyline points="23.729 15.428 26.966 13.725 28.993 15.561 32.667 13.962 35.75 15.591 39.297 14.05 42.253 15.413 45.252 13.962 47.976 15.36"/><polyline points="48.031 56.32 44.507 58.186 42.479 56.349 38.805 57.949 35.722 56.32 32.175 57.86 29.219 56.498 26.22 57.949 23.776 56.434"/><line x1="27.275" x2="35.602" y1="28.213" y2="28.213"/><line x1="40.729" x2="44.316" y1="28.215" y2="28.215"/><line x1="27.275" x2="34.982" y1="33.747" y2="33.747"/><line x1="40.729" x2="44.316" y1="33.752" y2="33.752"/><line x1="27.275" x2="34.007" y1="39.262" y2="39.262"/><line x1="40.729" x2="44.316" y1="39.288" y2="39.288"/><line x1="40.729" x2="44.316" y1="45.822" y2="45.822"/></g></svg>