<svg xmlns="http://www.w3.org/2000/svg" id="a" viewBox="0 0 72 72"><g id="b"><g fill="#d22f27" stroke="#d22f27" stroke-linecap="round" stroke-linejoin="round" stroke-width="2"><rect width="17" height="9" x="15" y="45"/><rect width="16" height="8" x="33" y="46"/><rect width="17" height="9" x="40" y="36"/><rect width="16" height="7" x="23" y="37"/><rect width="17" height="9" x="15" y="27"/><rect width="17" height="9" x="32" y="27"/><rect width="17" height="9" x="40" y="18"/><rect width="17" height="9" x="23" y="18"/></g></g><g id="c"><g fill="none" stroke="#000" stroke-linecap="round" stroke-linejoin="round" stroke-width="2"><line x1="32" x2="32" y1="36" y2="27"/><line x1="54" x2="15" y1="27" y2="27"/><line x1="40" x2="40" y1="19" y2="27"/><line x1="58" x2="19" y1="36" y2="36"/><line x1="40" x2="40" y1="45" y2="36"/><line x1="52" x2="19" y1="45" y2="45"/><line x1="32" x2="32" y1="53" y2="45"/><line x1="47" x2="20" y1="18" y2="18"/><line x1="23" x2="23" y1="18" y2="27"/><line x1="23" x2="23" y1="45" y2="41"/><line x1="32" x2="32" y1="36" y2="27"/><line x1="49" x2="49" y1="46" y2="51"/><line x1="44" x2="26" y1="54" y2="54"/><line x1="57" x2="57" y1="40" y2="36"/></g></g></svg>