<svg xmlns="http://www.w3.org/2000/svg" id="a" viewBox="0 0 72 72"><g id="b"><rect width="48.652" height="24.366" x="11.674" y="11.632" fill="#d22f27"/><rect width="48.652" height="24.285" x="11.674" y="35.999" fill="#ea5a47"/><polygon fill="#a57939" points="44.407 29.061 44.368 35.999 41.809 35.999 41.848 29.061"/><path fill="#9b9b9a" d="m38.589 22.089v7.0214h9.0071v-4.0427s6.0283 0 8.0141 1.9858a10.653 10.653 0 0 0-8.0141-5.0354 39.626 39.626 0 0 0-9.0071 0.0709z"/><path fill="#d0cfce" d="m36.283 22.727v5.6737a2.2354 2.2354 0 0 1-2.6241 0v-5.6737a1.8842 1.8842 0 0 1 2.6241 0z"/><path fill="#d0cfce" d="M27.8655,23.9041a7.3568,7.3568,0,0,1-.0681.9049,4.9929,4.9929,0,0,1-3.1527,3.98l-.5838.2044v7.0058H20.3342V28.9931l-.4962-.1654a5.05,5.05,0,0,1-3.23-3.98V24.809a4.6961,4.6961,0,0,1,1.2454-4.184,6.12,6.12,0,0,1,1.4888-1.0411.4248.4248,0,0,1,.5838.3794v3.1429l.8271,1.2455h2.9l.8271-1.2455V19.9633a.4125.4125,0,0,1,.5838-.3794,6.3726,6.3726,0,0,1,1.4887,1.0411A4.4486,4.4486,0,0,1,27.8655,23.9041Z"/><rect width="7.154" height="3.613" x="32.423" y="40.423" fill="#d0cfce"/></g><g id="c"><rect width="48.652" height="24.366" x="11.674" y="11.632" fill="none" stroke="#000" stroke-linecap="round" stroke-linejoin="round" stroke-width="2"/><g id="_"><path fill="none" stroke="#000" stroke-linecap="round" stroke-linejoin="round" stroke-width="2.001" d="M20.3342,35.9989V28.74l-.4963-.1654a5.0391,5.0391,0,0,1-3.23-3.9311V24.595A4.5741,4.5741,0,0,1,17.853,20.46a5.4741,5.4741,0,0,1,1.4887-1.0022.429.429,0,0,1,.5838.3794v3.104l.8271,1.2455h2.9l.8271-1.2455v-3.104a.416.416,0,0,1,.5838-.3794A5.6789,5.6789,0,0,1,26.5519,20.46a4.4289,4.4289,0,0,1,1.3136,3.25,7.0368,7.0368,0,0,1-.0682.8855,4.9093,4.9093,0,0,1-3.1526,3.9407l-.5838.2044v7.2588"/></g><polyline fill="none" stroke="#000" stroke-linecap="round" stroke-linejoin="round" stroke-width="2" points="44.368 35.999 60.326 35.999 60.326 60.286 11.674 60.286 11.674 35.999 20.334 35.999"/><line x1="41.809" x2="24.061" y1="35.999" y2="35.999" fill="none" stroke="#000" stroke-miterlimit="10" stroke-width="2"/><rect width="7.154" height="3.613" x="32.423" y="40.423" fill="none" stroke="#000" stroke-miterlimit="10" stroke-width="2"/><g id="d"><g fill="none" stroke="#000" stroke-linecap="round" stroke-linejoin="round" stroke-width="2.001"><polyline points="44.368 35.999 44.407 29.061 41.848 29.061 41.809 35.999"/><path d="m38.589 22.04v7.0212h9.0071v-4.0425s6.0283 0 8.0141 1.9858a10.653 10.653 0 0 0-8.0141-5.0355 39.628 39.628 0 0 0-9.0071 0.071z"/><path d="m36.283 22.678v5.6737a2.2357 2.2357 0 0 1-2.6241 0v-5.6737a1.884 1.884 0 0 1 2.6241 0z"/></g></g></g></svg>