<?xml version="1.0" encoding="UTF-8"?>
<svg id="a" viewBox="0 0 72 72" xmlns="http://www.w3.org/2000/svg"><g id="b"><rect x="15.606" y="25.672" width="41.633" height="26.487" rx="10.965" ry="10.965" fill="#ffa7c0"/><path d="m18.943 34.353a4.1622 4.1622 0 0 1-4.1633 4.1634 3.9106 3.9106 0 0 1-1.5613-0.3123 4.1509 4.1509 0 0 1 0-7.7022 3.9088 3.9088 0 0 1 1.5613-0.3122 4.1621 4.1621 0 0 1 4.1633 4.1633z" fill="#61b2e4"/><ellipse cx="14.259" cy="34.353" rx="2.6021" ry="3.8511" fill="#92d3f5"/><ellipse transform="translate(-8.259 10.713) rotate(-25.363)" cx="19.675" cy="23.708" rx="3.8019" ry="4.6838" fill="#92d3f5"/><path d="m31.644 23.279a5.2061 5.2061 0 0 1-1.8034 7.1354 5.5518 5.5518 0 0 1-1.4581 0.6032 5.2188 5.2188 0 0 1-5.0975-8.5455 5.5512 5.5512 0 0 1 1.2235-0.9965 5.2062 5.2062 0 0 1 7.1355 1.8034z" fill="#61b2e4"/><ellipse transform="translate(-11.316 29.645) rotate(-50.384)" cx="25.853" cy="26.851" rx="3.6908" ry="5.1536" fill="#92d3f5"/></g><g id="c" fill="none" stroke="#000" stroke-width="2"><path d="m21.236 27.257a11.392 11.392 0 0 0-3.9031 3.8094" stroke-miterlimit="10"/><path d="m31.499 25.675h14.322a11.441 11.441 0 0 1 11.418 11.408v3.6638a11.441 11.441 0 0 1-11.418 11.408h-18.798a11.441 11.441 0 0 1-11.418-11.408v-2.3107" stroke-miterlimit="10"/><line x1="24.948" x2="47.896" y1="35.896" y2="35.896" stroke-linecap="round" stroke-linejoin="round"/><line x1="24.948" x2="47.896" y1="41.935" y2="41.935" stroke-linecap="round" stroke-linejoin="round"/><circle cx="14.779" cy="34.353" r="4.1633" stroke-miterlimit="10"/><path d="M23.6752,21.87a5.1348,5.1348,0,0,0-.4909.3643,4.1077,4.1077,0,0,0-.1777-.4986,4.1633,4.1633,0,1,0-1.9787,5.5454c.0665-.0315.1208-.0771.1848-.1116A5.1985,5.1985,0,1,0,23.6752,21.87Z" stroke-linecap="round" stroke-linejoin="round"/></g></svg>
