<svg xmlns="http://www.w3.org/2000/svg" id="a" viewBox="0 0 72 72"><g id="b"><path fill="#ea5a47" d="M43.5,36.5V47a8.5,8.5,0,0,1-17,0V36.5h-6V47a14.5,14.5,0,0,0,29,0V36.5Z"/><g fill="#d0cfce"><rect width="6" height="5" x="20.5" y="31.5"/><rect width="6" height="5" x="43.5" y="31.5"/></g><path fill="#fcea2b" d="M44.8818,19.7754a1.283,1.283,0,0,0-1.26-.9072H38.6973l3.4609-7.75a1,1,0,0,0-1.6455-1.0889L29.4214,21.958a1.327,1.327,0,0,0-.2788,1.4512,1.37,1.37,0,0,0,1.2666.85h4.8789l-4.9946,8.05a1.0006,1.0006,0,0,0,.2124,1.2988c.227.1875.38.3145.5717.3145.4,0,.9659-.5567,2.7163-2.2783L44.21,21.3711A1.4519,1.4519,0,0,0,44.8818,19.7754Z"/></g><g id="c" fill="none" stroke="#000" stroke-width="2"><path stroke-linecap="round" stroke-linejoin="round" d="M43.5,36.5V47a8.5,8.5,0,0,1-17,0V36.5h-6V47a14.5,14.5,0,0,0,29,0V36.5Z"/><g stroke-linecap="round" stroke-linejoin="round"><rect width="6" height="5" x="20.5" y="31.5"/><rect width="6" height="5" x="43.5" y="31.5"/></g><path stroke-miterlimit="10" d="M44.8818,19.7754a1.283,1.283,0,0,0-1.26-.9072H38.6973l3.4609-7.75a1,1,0,0,0-1.6455-1.0889L29.4214,21.958a1.327,1.327,0,0,0-.2788,1.4512,1.37,1.37,0,0,0,1.2666.85h4.8789l-4.9946,8.05a1.0006,1.0006,0,0,0,.2124,1.2988c.227.1875.38.3145.5717.3145.4,0,.9659-.5567,2.7163-2.2783L44.21,21.3711A1.4519,1.4519,0,0,0,44.8818,19.7754Z"/></g></svg>