<svg xmlns="http://www.w3.org/2000/svg" id="a" viewBox="0 0 72 72"><g id="b"><polyline fill="#d0cfce" points="49.224 17.187 53.891 12.36 17.207 12.36 21.875 17.187"/><polyline fill="#d0cfce" points="49.224 54.526 53.891 59.353 17.207 59.353 21.875 54.526"/><rect width="27.365" height="37.52" x="22.034" y="17.187" fill="#ea5a47"/><rect width="6.474" height="37.52" x="42.926" y="17.187" fill="#d22f27"/></g><g id="c" fill="none" stroke="#000" stroke-linecap="round" stroke-linejoin="round"><polyline stroke-width="2" points="49.224 17.187 53.891 12.36 17.207 12.36 21.875 17.187"/><line x1="21.875" x2="49.224" y1="17.187" y2="17.187" stroke-width="2.158"/><line x1="22.202" x2="49.232" y1="54.707" y2="54.707" stroke-width="2.158"/><polyline stroke-width="2" points="49.224 54.707 53.891 59.534 17.207 59.534 21.875 54.707"/><g stroke-width="2"><line x1="22.034" x2="49.065" y1="17.187" y2="17.187"/><line x1="22.012" x2="49.087" y1="22.547" y2="22.547"/><line x1="21.989" x2="49.11" y1="27.907" y2="27.907"/><line x1="21.966" x2="49.133" y1="33.267" y2="33.267"/><line x1="21.943" x2="49.156" y1="38.627" y2="38.627"/><line x1="21.92" x2="49.179" y1="43.987" y2="43.987"/><line x1="21.897" x2="49.201" y1="49.347" y2="49.347"/><line x1="21.875" x2="49.224" y1="54.707" y2="54.707"/></g><path stroke-width="2" d="m22.202 43.983h27.03a9.5279 9.5279 0 0 1 5.6467 2.5918c3.2368 3.2368 5.9341 5.9342 11.329 5.3947"/></g></svg>