<svg xmlns="http://www.w3.org/2000/svg" id="a" viewBox="0 0 72 72"><g id="b"><path fill="#f1b31c" d="m20.674 59.984c1.2983-1.388 3.5826-3.6053 4.8424-4.9521-1.4537 0.886-4.2076 3.37-5.6142 4.2624a46.002 46.002 0 0 1-5.4918-4.7712 23.642 23.642 0 0 0 9.05-4.15 29.78 29.78 0 0 1-10.084 2.9036 47.943 47.943 0 0 1-3.4267-5.45c7.1521 1.9446 14.929-0.92 19.73-5.92 1.2414 0.7174 2.835 1.59 4.1359 2.2474a3.2052 3.2052 0 0 1 1.6174 1.9094c1.7464 4.6657 0.728 8.7784-2.4318 12.475-1.3221 1.5467-3.2938 3.9123-5.0353 4.9607a33.957 33.957 0 0 1-7.2919-3.5152z"/><path fill="#a57939" d="m36.41 39.121-2.5918-1.5c0.684-1.1936 1.3464-2.3568 2.0156-3.516q7.255-12.567 14.512-25.133c0.0989-0.1713 0.1948-0.3449 0.3033-0.51a1.4973 1.4973 0 0 1 2.5844 1.5126c-0.81 1.4511-1.6532 2.8832-2.484 4.3224q-6.3643 11.025-12.73 22.05c-0.5225 0.9055-1.0495 1.8086-1.61 2.7736z"/><path fill="#92d3f5" d="M35.17,44.2183,30.05,41.2608c.5348-.9183,1.0216-1.82,1.5756-2.6789a.9318.9318,0,0,1,1.31-.3181q1.7127.9444,3.3875,1.9568a.9384.9384,0,0,1,.377,1.2973C36.2334,42.4269,35.696,43.3,35.17,44.2183Z"/></g><g id="c"><path fill="none" stroke="#000" stroke-linecap="round" stroke-linejoin="round" stroke-width="2" d="m20.674 59.984c1.2983-1.388 3.5826-3.6053 4.8424-4.9521-1.4537 0.886-4.2076 3.37-5.6142 4.2624a46.002 46.002 0 0 1-5.4918-4.7712 23.642 23.642 0 0 0 9.05-4.15 29.78 29.78 0 0 1-10.084 2.9036 47.943 47.943 0 0 1-3.4267-5.45c7.1521 1.9446 14.929-0.92 19.73-5.92 1.2414 0.7174 2.835 1.59 4.1359 2.2474a3.2052 3.2052 0 0 1 1.6174 1.9094c1.7464 4.6657 0.728 8.7784-2.4318 12.475-1.3221 1.5467-3.2938 3.9123-5.0353 4.9607a33.957 33.957 0 0 1-7.2919-3.5152z"/><path fill="none" stroke="#000" stroke-miterlimit="10" stroke-width="2" d="m36.41 39.121-2.5918-1.5c0.684-1.1936 1.3464-2.3568 2.0156-3.516q7.255-12.567 14.512-25.133c0.0989-0.1713 0.1948-0.3449 0.3033-0.51a1.4973 1.4973 0 0 1 2.5844 1.5126c-0.81 1.4511-1.6532 2.8832-2.484 4.3224q-6.3643 11.025-12.73 22.05c-0.5225 0.9055-1.0495 1.8086-1.61 2.7736z"/><path fill="none" stroke="#000" stroke-miterlimit="10" stroke-width="2" d="M35.17,44.2183,30.05,41.2608c.5348-.9183,1.0216-1.82,1.5756-2.6789a.9318.9318,0,0,1,1.31-.3181q1.7127.9444,3.3875,1.9568a.9384.9384,0,0,1,.377,1.2973C36.2334,42.4269,35.696,43.3,35.17,44.2183Z"/><circle cx="33.058" cy="63.358" r="1.408"/><circle cx="36.299" cy="59.295" r="1.185"/><circle cx="36.299" cy="62.294" r=".941"/></g></svg>