<svg xmlns="http://www.w3.org/2000/svg" id="a" viewBox="0 0 72 72"><g id="b"><path fill="#61b2e4" d="M48.0312,34.43V53.1413a5.2419,5.2419,0,0,1-5.2493,5.24H29.905a5.24,5.24,0,0,1-5.24-5.24V34.43a9.5463,9.5463,0,0,1,8.7611-9.5137c.2509-.0186.5111-.0279.7712-.0279h4.3016A9.542,9.542,0,0,1,48.0312,34.43Z"/><path fill="#92d3f5" d="m42.178 34.43v18.711a5.24 5.24 0 0 1-5.24 5.24h-7.0331a5.24 5.24 0 0 1-5.24-5.24v-18.711a9.5463 9.5463 0 0 1 8.7611-9.5137 9.5383 9.5383 0 0 1 8.752 9.5137z"/><path fill="#ea5a47" d="m36.075 17.776a3.7 3.7 0 0 1 3.7 3.7v3.1971h-7.4v-3.1971a3.7 3.7 0 0 1 3.7-3.7z"/><ellipse cx="36.348" cy="41.635" fill="#ea5a47" rx="6.834" ry="10.561"/></g><g id="c"><path d="m38.97 14.268h-5.5828c-0.1475-0.1475 2.7839 4.4322 2.7916 4.42 0.0076 0.012 2.9391-4.5675 2.7912-4.42z"/><path fill="none" stroke="#000" stroke-linecap="round" stroke-linejoin="round" stroke-width="2" d="M23.96,17.1731c.0775-.0278,5.1429-2.9513,5.1429-2.9513H42.18"/><path fill="none" stroke="#000" stroke-linecap="round" stroke-linejoin="round" stroke-width="2" d="m34.928 24.891h2.8388a10.265 10.265 0 0 1 10.265 10.265v17.584a5.6461 5.6461 0 0 1-5.6461 5.6461h-12.076a5.6461 5.6461 0 0 1-5.6461-5.6461v-17.584a10.265 10.265 0 0 1 10.265-10.265z"/><path fill="none" stroke="#000" stroke-linecap="round" stroke-linejoin="round" stroke-width="2" d="m36.075 17.776h0a3.7 3.7 0 0 1 3.7 3.7v3.1971a0 0 0 0 1 0 0h-7.4a0 0 0 0 1 0 0v-3.1971a3.7 3.7 0 0 1 3.7-3.7z"/><ellipse cx="36.348" cy="41.635" fill="none" stroke="#000" stroke-miterlimit="10" stroke-width="2" rx="6.834" ry="10.561"/></g></svg>