<?xml version="1.0" encoding="UTF-8"?>
<svg id="a" viewBox="0 0 72 72" xmlns="http://www.w3.org/2000/svg"><g id="b"><circle cx="30.806" cy="34.822" r="22.224" fill="#f4aa41"/><path d="m43.294 15.825c-6.2393 2.6787-12.012 8.0346-12.012 17.646s2.7688 16.856 11.31 19.955c5.712-4.986 11.01-8.8868 11.01-18.498s-6.5126-16.049-10.308-19.103z" fill="#e27022"/></g><g id="c" fill="none" stroke="#000" stroke-linecap="round" stroke-linejoin="round" stroke-width="2"><circle cx="30.806" cy="34.822" r="22.224"/><path d="m43.92 17.016a22.124 22.124 0 0 1-13.114 4.28 22.124 22.124 0 0 1-13.123-4.2865"/><path d="m46.735 19.661c-3.3016 4.46-9.726 8.3615-15.929 8.3615a21.241 21.241 0 0 1-16.21-8.2991"/><path d="m49.149 22.656c-2.8242 6.4865-10.514 12.094-18.343 12.094a21.24 21.24 0 0 1-18.463-11.688"/><path d="m51.231 26.425c-2.6184 8.1809-11.28 15.051-20.425 15.051a22.361 22.361 0 0 1-20.555-14.815"/><path d="m52.559 30.551a22.232 22.232 0 0 1-21.753 17.651 22.641 22.641 0 0 1-21.932-16.988"/><path d="M45.1424,51.971c1.3165.9452,3.7331,3.6351,6.6276,3.6753s5.5935-3.1506,7.0575-2.3287c2.6065,1.4632,3.7516,3.7282,6.6919,3.7746"/><path d="m37.818 55.844a22.708 22.708 0 0 1-14.098-21.022 22.232 22.232 0 0 1 14.118-20.699"/><path d="m41.563 15.825a22.223 22.223 0 0 0-11.175 18.997 21.895 21.895 0 0 0 11.272 19.106"/><path d="m44.578 17.825a22.926 22.926 0 0 0-7.5227 16.997c0 6.904 2.8854 13.414 8.0874 17.149"/></g></svg>
