<?xml version="1.0" encoding="UTF-8"?>
<svg id="a" version="1.1" viewBox="0 0 72 72" xmlns="http://www.w3.org/2000/svg"><g id="b"><path d="m8.1924 30.206c0-1.6819 0.996-1.5227 2.2246-1.5227h51.166c1.2286 0 2.2246-0.1592 2.2246 1.5227v1.5749c0 2.6857-0.8443 2.68-2.7141 3.4932-12.858 5.5906-10.02 6.2746-16.19 14.72-5.5122 7.5445-12.362 7.4371-17.88-0.1-6.4513-8.8121-3.815-9.0294-16.015-14.651-1.8973-0.8742-2.8163-3.8808-2.8163-6.6213v1.5839z" fill="#61B2E4"/><path d="m8.1924 28.684c0-1.6819 0.996-1.5226 2.2246-1.5226h51.166c1.2286 0 2.2246 1.3634 2.2246 3.0453v-1.47c0 2.6857-0.7522 6.5385-2.7141 6.5385-20.644 0-18.976 15.693-22.864 20.254h-4.5323c-2.7027-2.9387-2.1465-19.993-22.689-20.285-2.0018-0.0284-2.8163-0.8354-2.8163-3.576v-2.9845z" fill="#92D3F5"/></g><g id="c" fill="none" stroke="#000" stroke-miterlimit="10" stroke-width="2"><path d="m61.094 35.274c-12.858 5.5906-10.02 6.2746-16.19 14.72-5.5122 7.5445-12.362 7.4371-17.88-0.1-6.4513-8.8121-3.815-9.0294-16.015-14.651"/><path d="m32.585 54.562s-1.59-19.318-21.576-19.318c-2.0019 0-2.8163-2.3581-2.8163-5.0986v-1.4615c0-1.6819 0.996-1.5226 2.2246-1.5226h51.166c1.2286 0 2.2246-0.1593 2.2246 1.5226v1.5749c0 2.6858-0.7522 4.9848-2.7141 4.9848-20.088 0-21.752 19.319-21.752 19.319"/></g></svg>
