<?xml version="1.0" encoding="UTF-8"?>
<svg id="a" viewBox="0 0 72 72" xmlns="http://www.w3.org/2000/svg"><g id="b"><path d="m23.114 22.5 3.5 16.5-6.5 14.5c7.4469 3.4679 11.748 8.9461 13.175 15.5h4.65c0.5613-6.3319 5.6639-11.282 13.175-15.5l-6.5-14.5 4.05-16.5c-1.55 6-22.55 7-25.55 0z" fill="#b399c8"/><path d="m44.886 4.5s6.6123 18.22 2 21c-3.9956 2.4081-16.822 2.8488-22 0-5.8774-3.2336 2-21 2-21-0.2888 0.29-2.0408 4.0444 2 12 6.1492 6.2577 8.1287 6.8691 13 0 5.2049-9.105 3.1913-11.858 3-12z" fill="#8967aa"/></g><g id="c" fill="none" stroke="#000" stroke-linecap="round" stroke-linejoin="round" stroke-width="2"><path d="m23.114 22.5 3.5 16.5-6.5 14.5c7.4469 3.4679 11.748 8.9461 13.175 15.5h4.65c0.5613-6.3319 5.6639-11.282 13.175-15.5l-6.5-14.5 4.05-16.5"/><path d="m45.122 4.5s6.6123 18.22 2 21c-3.9956 2.4081-16.822 2.8488-22 0-5.8774-3.2336 2-21 2-21s-3.4311 4.2216 2 12c4.1942 6.0068 9.225 6.4472 13 0 4.9764-8.4991 3-12 3-12z"/></g></svg>
