<svg xmlns="http://www.w3.org/2000/svg" id="a" viewBox="0 0 72 72"><g id="b"><path fill="#fcea2b" d="m37.237 61.846a8.756 8.756 0 0 1-5.542-1.7978c-3.4931-2.73-3.9316-7.544-3.9482-7.7471l-3.5166-21.901c-0.9248-7.2568 0.1211-12.767 3.1054-16.406a10.905 10.905 0 0 1 7.0889-4.0214 10.181 10.181 0 0 1 7.5059 2.7441c2.1816 2.2275 3.0615 5.5879 2.6142 9.9883-0.7744 7.626 1.0547 24.327 1.169 25.355 0.1435 0.6836 1.2959 6.6407-1.3223 10.506a7.2109 7.2109 0 0 1-5.0283 3.1 13.229 13.229 0 0 1-2.126 0.1797zm-2.7353-50.876z"/></g><g id="c" fill="none" stroke="#000" stroke-linecap="round" stroke-linejoin="round" stroke-width="2"><path d="m43.55 22.604c1.266-12.465-9.0484-11.634-9.0484-11.634s-8.1434 0.5758-9.4276 11.568"/><path d="m26.381 37.493 2.3622 14.725s0.8348 10.029 10.459 8.4611c8-1.3034 5.5232-12.457 5.5232-12.457s-0.6125-5.412-1.0188-11.602"/><path d="m28.189 35.147s-11.22-3.6806 5.464-15.157l0.3479-2.83"/><path d="m40.665 34.166s10.642-4.6618-7.0119-14.176"/></g></svg>