<svg xmlns="http://www.w3.org/2000/svg" id="a" viewBox="0 0 72 72"><g id="b"><rect width="50" height="50" x="11" y="11" fill="#1e50a0" rx="1.923" ry="1.923"/><path fill="#92d3f5" d="m36.052 61c5.6087 0.0814 11.973 0.1739 17.098-3.9839 7.0824-5.7459 6.9269-15.658 6.8054-23.408-0.083-5.2918-0.2408-10.416-4.087-13.69-2.4247-1.8931-5.449-2.8517-8.5215-2.701-4.0244 2.683-7.4723 4.537-11.348 4.5292h0.0438c-3.8753 0.0078-7.3233-1.8462-11.348-4.5292-3.0725-0.1507-6.0968 0.8079-8.5215 2.701-3.8462 3.2741-4.004 8.3983-4.087 13.69-0.1215 7.7505-0.277 17.662 6.8054 23.408 5.1249 4.1578 11.49 4.0654 17.098 3.9839h0.0612z"/><path fill="none" stroke="#61b2e4" stroke-miterlimit="10" stroke-width="2" d="m36.052 61c5.6087 0.0814 11.973 0.1739 17.098-3.9839 7.0824-5.7459 6.9269-15.658 6.8054-23.408-0.083-5.2918-0.2408-10.416-4.087-13.69-2.4247-1.8931-5.449-2.8517-8.5215-2.701-4.0244 2.683-7.4723 4.537-11.348 4.5292h0.0438c-3.8753 0.0078-7.3233-1.8462-11.348-4.5292-3.0725-0.1507-6.0968 0.8079-8.5215 2.701-3.8462 3.2741-4.004 8.3983-4.087 13.69-0.1215 7.7505-0.277 17.662 6.8054 23.408 5.1249 4.1578 11.49 4.0654 17.098 3.9839h0.0612z"/><path fill="#61b2e4" d="M19.0187,34.6963c0,9.2673,2.9015,16.78,6.4807,16.78s6.481-7.5127,6.481-16.78c0-.4344-.0184-.9702-.0435-1.498-.0917-1.9322-.8432-3.8167-2.2529-5.1413-4.6192-4.3405-10.3989,1.2734-10.5786,3.8858-.1346,.9114-.1637,1.8353-.0868,2.7535Z"/><path fill="#61b2e4" d="M52.8944,31.9428c-.1796-2.6124-5.9593-8.2263-10.5786-3.8858-1.4096,1.3246-2.1611,3.2092-2.2529,5.1413-.0251,.5278-.0435,1.0635-.0435,1.498,0,9.2673,2.9017,16.78,6.481,16.78s6.4807-7.5127,6.4807-16.78c.0769-.9181,.0478-1.842-.0868-2.7535Z"/></g><g id="c"><path d="M15,12.9583c0,1.1046-.8954,2-2,2s-2-.8954-2-2,.8954-2,2-2c1.1044,.0004,1.9996,.8956,2,2"/><path d="M61,12.9583c0,1.1046-.8954,2-2,2s-2-.8954-2-2,.8954-2,2-2c1.1044,.0004,1.9996,.8956,2,2"/><path d="M15,59c0,1.1046-.8954,2-2,2s-2-.8954-2-2,.8954-2,2-2c1.1044,.0004,1.9996,.8956,2,2"/><path d="M61,59c0,1.1046-.8954,2-2,2s-2-.8954-2-2,.8954-2,2-2c1.1044,.0004,1.9996,.8956,2,2"/><rect width="50" height="50" x="11" y="11" fill="none" stroke="#000" stroke-miterlimit="10" stroke-width="2" rx="1.923" ry="1.923"/><g fill="none" stroke="#000" stroke-linecap="round" stroke-width="2"><path stroke-linejoin="round" d="m30.496 23.365c-0.9382-1.4974-2.0411-2.1902-4.8109-2.1902h-9.7449"/><path stroke-linejoin="round" d="m55.94 21.175h-10.145c-2.7698 0-3.8727 0.6927-4.8109 2.1902"/><path stroke-miterlimit="10" d="m41.228 31.935s11.786 0.3478 10.063-3.8191"/><path stroke-miterlimit="10" d="m40.778 27.508s6.4699 0.1909 5.5236-2.0964"/><path stroke-miterlimit="10" d="m40.723 35.65s14.27 2.3051 12.633-3.0287"/><path stroke-miterlimit="10" d="m40.45 38.949s13.222 6.8954 13.31-0.324"/><path stroke-miterlimit="10" d="m39.685 41.688s16.339 14.447 13.355 3.3463"/><path stroke-miterlimit="10" d="m39.685 41.688s9.8151 23.247 12.319 10.486"/><path stroke-miterlimit="10" d="m30.29 31.935s-11.786 0.3478-10.063-3.8191"/><path stroke-miterlimit="10" d="m30.74 27.508s-6.4699 0.1909-5.5236-2.0964"/><path stroke-miterlimit="10" d="m30.794 35.803s-14.27 2.3051-12.633-3.0287"/><path stroke-miterlimit="10" d="m31.068 38.949s-13.222 6.8954-13.31-0.324"/><path stroke-miterlimit="10" d="m31.833 41.688s-16.339 14.447-13.355 3.3463"/><path stroke-miterlimit="10" d="m31.833 41.688s-9.8151 23.247-12.319 10.486"/><polygon stroke-linejoin="round" points="36.539 24.826 35.815 43.989 34.941 24.826"/></g></g><g id="d" fill="none" stroke="#fff" stroke-linecap="round" stroke-width="2"><path stroke-linejoin="round" d="m30.496 23.365c-0.9382-1.4974-2.0411-2.1902-4.8109-2.1902h-9.7449"/><path stroke-linejoin="round" d="m55.94 21.175h-10.145c-2.7698 0-3.8727 0.6927-4.8109 2.1902"/><path stroke-miterlimit="10" d="m41.228 31.935s11.786 0.3478 10.063-3.8191"/><path stroke-miterlimit="10" d="m40.778 27.508s6.4699 0.1909 5.5236-2.0964"/><path stroke-miterlimit="10" d="m40.723 35.65s14.27 2.3051 12.633-3.0287"/><path stroke-miterlimit="10" d="m40.45 38.949s13.222 6.8954 13.31-0.324"/><path stroke-miterlimit="10" d="m39.685 41.688s16.339 14.447 13.355 3.3463"/><path stroke-miterlimit="10" d="m39.685 41.688s9.8151 23.247 12.319 10.486"/><path stroke-miterlimit="10" d="m30.29 31.935s-11.786 0.3478-10.063-3.8191"/><path stroke-miterlimit="10" d="m30.74 27.508s-6.4699 0.1909-5.5236-2.0964"/><path stroke-miterlimit="10" d="m30.794 35.803s-14.27 2.3051-12.633-3.0287"/><path stroke-miterlimit="10" d="m31.068 38.949s-13.222 6.8954-13.31-0.324"/><path stroke-miterlimit="10" d="m31.833 41.688s-16.339 14.447-13.355 3.3463"/><path stroke-miterlimit="10" d="m31.833 41.688s-9.8151 23.247-12.319 10.486"/><polygon stroke-linejoin="round" points="36.539 24.826 35.815 43.989 34.941 24.826"/></g></svg>