<?xml version="1.0" encoding="UTF-8"?>
<svg id="a" viewBox="0 0 72 72" xmlns="http://www.w3.org/2000/svg"><g id="b"><path d="m36.621 42.671c-2.56 0-3.9347 0.7605-3.9347 1.8289s-2 6.4131-2 6.4131h-14.062v-31.955h40v31.955h-14.062s-2-5.3446-2-6.4131-1.3743-1.8289-3.9347-1.8289" fill="#d0cfce"/><rect x="17" y="18" width="39" height="6" fill="#3f3f3f"/><path d="M34,29c2.0039-1.2821-.0281-3.2706,2-4" fill="#d0cfce" stroke-linecap="round" stroke-linejoin="round" stroke-width="1.6"/><path d="M40,30c-1.6822-1.6822-.9719-4.2706-3-5" fill="#d0cfce" stroke-linecap="round" stroke-linejoin="round" stroke-width="1.6"/><circle cx="36.5" cy="25.5" r=".5" fill="#d0cfce" stroke-linecap="round" stroke-linejoin="round" stroke-width="1.6"/></g><g id="c" fill="none" stroke="#000" stroke-linecap="round" stroke-linejoin="round"><path d="m36.621 42.671c-2.56 0-3.9347 0.7605-3.9347 1.8289s-2 6.4131-2 6.4131h-14.062v-32.955h40v32.955h-14.062s-2-5.3445-2-6.413-1.3743-1.8289-3.9347-1.8289z" stroke-width="2"/><path d="m27.044 26.328s-0.3847 7.672-8.0876 13.467" stroke-width="2"/><path d="m45.956 26.328s0.3847 7.672 8.0876 13.467" stroke-width="2"/><line x1="17" x2="56" y1="24" y2="24" stroke-width="2"/><path d="M34,29c2.0039-1.2821-.0281-3.2706,2-4" stroke-width="1.6"/><path d="M40,30c-1.6822-1.6822-.9719-4.2706-3-5" stroke-width="1.6"/><circle cx="36.5" cy="25.5" r=".5" stroke-width="1.6"/></g></svg>
