<svg xmlns="http://www.w3.org/2000/svg" id="a" viewBox="0 0 72 72"><g id="b"><path fill="#8967aa" d="m18.917 32.873a13.329 13.329 0 1 1 17.706 19.258"/><circle cx="24.328" cy="45.662" r="13.328" fill="#b399c8"/><polygon fill="#fcea2b" points="24.969 54.8 21.735 49.822 15.801 49.665 19.535 45.051 17.851 39.359 23.393 41.485 28.286 38.124 27.977 44.052 32.685 47.667 26.952 49.205"/></g><g id="c" fill="none" stroke="#000" stroke-linecap="round" stroke-linejoin="round"><polygon stroke-width="2" points="24.969 54.8 21.735 49.822 15.801 49.665 19.535 45.051 17.851 39.359 23.393 41.485 28.286 38.124 27.977 44.052 32.685 47.667 26.952 49.205"/><circle cx="24.328" cy="45.662" r="13.328" stroke-width="2"/><path stroke-width="2" d="m18.917 32.873a13.329 13.329 0 1 1 17.706 19.258"/><path stroke-width="2" d="M53.5939,12.7954c1.2762,3.059,5.5809,2.7469,5.5809,2.7469a3.1806,3.1806,0,0,0,3.5015-3.1043,4.1684,4.1684,0,0,0-4.4128-1.9115s-10.0687.39-12.2819,13.4416c-1.5124,8.9187-4.5094,9.7773-8.8623,9.3163-1.6194-.1716-2.9128-.9946-5.7844-2.2653a9.93,9.93,0,0,0-2.5408-.724s-3.3942-.2966-4.4659.4574"/><path stroke-width=".5" d="m16.57 35.011a13.329 13.329 0 1 1 17.706 19.258"/><path stroke-width=".5" d="m15.801 35.541a13.329 13.329 0 1 1 17.706 19.259"/><path stroke-width=".5" d="m15.007 36.335a13.329 13.329 0 1 1 17.706 19.258"/></g></svg>