<?xml version="1.0" encoding="UTF-8"?>
<svg id="a" viewBox="0 0 72 72" xmlns="http://www.w3.org/2000/svg"><g id="b"><path d="M60.709,28.9912A24.6027,24.6027,0,0,0,36.1416,8.417c-13.7193,0-24.841,10.88-24.841,24.3005,0,0,3.0573-1.8827,5.1108-.2893a.7149.7149,0,0,0,.7445.0778,11.63,11.63,0,0,1,10.1763.0629.7128.7128,0,0,0,.5473.06c1.5773-.4857,9.6051-2.708,16.679-.0346a.75.75,0,0,0,.6163-.0411,11.6416,11.6416,0,0,1,10.1442-.05.7254.7254,0,0,0,.7574-.0829c2.0348-1.5919,4.906.1853,4.906.1853" fill="#b1cc33"/><path d="m55.72 32.568c-4.4638-25.496-19.578-24.151-19.578-24.151s7.76 0.7192 8.73 24.223a10.073 10.073 0 0 1 10.848-0.0717z" fill="#5c9e31"/><path d="m56.341 31.952c1.6572-0.05 3.4387-0.54 5.5345 0.6879 0-20.292-21.807-23.19-21.807-23.19s4.8854 1.1285 9.3779 6.7089z" fill="#5c9e31"/><rect x="32.08" y="58.353" width="6.5859" height="6.5859" rx="1.4199"/></g><g id="c" fill="none" stroke="#000" stroke-linecap="round" stroke-linejoin="round" stroke-width="2"><path d="m60.982 32.606-22.316 27.167"/><path d="M60.709,28.9912A24.6027,24.6027,0,0,0,36.1416,8.417c-13.7193,0-24.841,10.88-24.841,24.3005,0,0,3.0573-1.8827,5.1108-.2893a.7149.7149,0,0,0,.7445.0778,11.63,11.63,0,0,1,10.1763.0629.7128.7128,0,0,0,.5473.06c1.5773-.4857,9.6051-2.708,16.679-.0346a.75.75,0,0,0,.6163-.0411,11.6416,11.6416,0,0,1,10.1442-.05.7254.7254,0,0,0,.7574-.0829c2.0348-1.5919,4.906.1853,4.906.1853"/><path d="m16.761 32.57c4.4636-25.495 19.381-24.153 19.381-24.153s-7.5643 0.7338-8.5346 24.238l6.78 25.041"/><path d="m44.872 32.64-7.6251 25.713"/><path d="m55.72 32.568c-4.4638-25.496-19.578-24.151-19.578-24.151s7.76 0.7192 8.73 24.223"/><line x1="16.761" x2="33.5" y1="32.66" y2="58.353"/><line x1="55.72" x2="37.246" y1="32.69" y2="58.353"/><line x1="11.301" x2="32.08" y1="32.718" y2="59.773"/><rect x="32.08" y="58.353" width="6.5859" height="6.5859" rx="1.4199"/></g></svg>
