<svg xmlns="http://www.w3.org/2000/svg" id="a" viewBox="0 0 72 72"><g id="b"><rect width="4.654" height="32.199" x="33.625" y="20.045" transform="matrix(.70797 .70624 -.70624 .70797 36.025 -14.836)"/></g><g id="c"><rect width="4.654" height="32.199" x="33.625" y="20.045" fill="#3f3f3f" transform="rotate(44.93 35.952 36.144)"/><circle cx="47.575" cy="10.958" r="2" fill="#fcea2b"/><circle cx="56" cy="28.31" r="2" fill="#fcea2b"/></g><g id="d" fill="none" stroke="#000" stroke-miterlimit="10" stroke-width="2"><rect width="3.385" height="53.525" x="34.263" y="9.277" rx=".44" transform="matrix(.70797 .70624 -.70624 .70797 35.953 -14.868)"/><line x1="45.306" x2="47.635" y1="23.873" y2="26.085"/><line x1="23.441" x2="25.838" y1="46.194" y2="48.584"/><line x1="47.575" x2="47.575" y1="8.958" y2="7.293" stroke-linecap="round"/><line x1="47.575" x2="47.575" y1="14.624" y2="12.958" stroke-linecap="round"/><line x1="45.575" x2="43.91" y1="10.958" y2="10.958" stroke-linecap="round"/><line x1="51.24" x2="49.575" y1="10.958" y2="10.958" stroke-linecap="round"/><line x1="56" x2="56" y1="26.31" y2="24.645" stroke-linecap="round"/><line x1="56" x2="56" y1="31.976" y2="30.31" stroke-linecap="round"/><line x1="54" x2="52.335" y1="28.31" y2="28.31" stroke-linecap="round"/><line x1="59.665" x2="58" y1="28.31" y2="28.31" stroke-linecap="round"/></g></svg>