<svg xmlns="http://www.w3.org/2000/svg" id="a" viewBox="0 0 72 72"><g id="b" fill="none" stroke="#000" stroke-linecap="round" stroke-linejoin="round" stroke-width="2.025"><line x1="35.9" x2="35.9" y1="14.713" y2="57.168"/><line x1="14.721" x2="57.283" y1="35.958" y2="35.958"/></g><g id="c"><rect width="42.775" height="42.775" x="14.513" y="14.613" fill="#92d3f5" rx=".784"/><polygon fill="#fff" points="14.535 26.666 26.588 14.613 55.23 14.613 14.514 55.477"/><path fill="#a57939" d="m60.94 62h-49.922a1.06 1.06 0 0 1-1.06-1.06v-49.922a1.06 1.06 0 0 1 1.06-1.06h49.922a1.06 1.06 0 0 1 1.06 1.06v49.922a1.06 1.06 0 0 1-1.06 1.06zm-44.367-5.6123h38.655a1.06 1.06 0 0 0 1.06-1.06v-38.656a1.06 1.06 0 0 0-1.06-1.06h-38.655a1.06 1.06 0 0 0-1.06 1.06v38.656a1.06 1.06 0 0 0 1.06 1.0599z"/><line x1="35.9" x2="35.9" y1="14.613" y2="57.387" fill="none" stroke="#a57939" stroke-linecap="round" stroke-linejoin="round" stroke-width="2.025"/><line x1="14.513" x2="57.288" y1="35.958" y2="35.958" fill="none" stroke="#a57939" stroke-linecap="round" stroke-linejoin="round" stroke-width="2.025"/></g><g id="d" fill="none" stroke="#000" stroke-linecap="round" stroke-linejoin="round" stroke-width="2"><line x1="61" x2="10.958" y1="61" y2="61"/><polyline points="10.958 57.168 10.958 10.958 61 10.958 61 57.168"/></g></svg>