<?xml version="1.0" encoding="UTF-8"?>
<svg id="a" viewBox="0 0 72 72" xmlns="http://www.w3.org/2000/svg"><g id="b"><circle cx="56.882" cy="44.306" r="1"/><circle cx="60.702" cy="38.72" r="1"/><circle cx="59.772" cy="42.927" r="1"/><circle cx="57.873" cy="40.056" r="1"/><circle cx="61.661" cy="34.395" r="1"/><circle cx="58.855" cy="35.607" r="1"/><circle cx="59.827" cy="31.322" r="1"/><circle cx="19.912" cy="45.562" r="1"/><circle cx="18.062" cy="41.61" r="1"/><circle cx="16.082" cy="37.506" r="1"/><circle cx="14.194" cy="33.538" r="1"/></g><g id="c"><path d="M19.7985,54.9706a1.0011,1.0011,0,0,1-.9053-.5733L6.8219,28.8163A.9993.9993,0,0,1,7.3,27.4852l5.7744-2.7246a.9987.9987,0,0,1,1.3311.4775L26.4762,50.8192a.9991.9991,0,0,1-.4775,1.331l-5.7744,2.7247A.99.99,0,0,1,19.7985,54.9706Z" fill="#781e32"/><path d="M60.4611,53.3613a.9924.9924,0,0,1-.4006-.0055l-7.4116-1.6283a1.0005,1.0005,0,0,1-.7626-1.1913l6.0691-27.6269a1.001,1.001,0,0,1,1.1913-.7626l7.4116,1.6283a1.0005,1.0005,0,0,1,.7626,1.1913L61.2518,52.5932a1.0008,1.0008,0,0,1-.7907.7681Z" fill="#781e32"/><path d="M15.9245,53.0282a3.6458,3.6458,0,0,1-3.2871-2.084L5.7653,36.3827a3.6325,3.6325,0,0,1,1.7354-4.835l2.1015-.9922a.9993.9993,0,0,1,1.3311.4776l9.1181,19.3232a.9994.9994,0,0,1-.4775,1.3311l-2.1016.9912A3.6174,3.6174,0,0,1,15.9245,53.0282Z" fill="#fff"/><polygon points="28.962 46.828 17.965 22.982 20.891 21.255" fill="#d0cfce"/><polygon points="34.792 44.759 27.705 17.933 31.046 17.885" fill="#d0cfce"/><polygon points="41.294 45.068 38.336 16.946 41.209 17.791" fill="#d0cfce"/><polygon points="48.025 46.637 49.192 19.545 51.119 21.979" fill="#d0cfce"/><circle cx="56.882" cy="44.306" r="1" fill="#fff"/><circle cx="60.702" cy="38.72" r="1" fill="#fff"/><circle cx="59.772" cy="42.927" r="1" fill="#fff"/><circle cx="57.873" cy="40.056" r="1" fill="#fff"/><circle cx="61.661" cy="34.395" r="1" fill="#fff"/><circle cx="58.855" cy="35.607" r="1" fill="#fff"/><circle cx="59.827" cy="31.322" r="1" fill="#fff"/><circle cx="19.912" cy="45.562" r="1" fill="#fff"/><circle cx="18.062" cy="41.61" r="1" fill="#fff"/><circle cx="16.082" cy="37.506" r="1" fill="#fff"/><circle cx="14.194" cy="33.538" r="1" fill="#fff"/></g><g id="d" fill="none" stroke="#000" stroke-linecap="round" stroke-linejoin="round" stroke-width="2"><polyline points="43.915 21.386 48.418 20.173 46.997 46.783 43.115 44.371"/><polyline points="53.664 25.174 58.553 24.705 53.059 49.467 50.177 46.223"/><polyline points="33.866 19.708 38.112 17.924 40.325 45.383 36.373 43.696"/><polyline points="23.952 21.272 27.834 18.935 33.98 45.922 29.973 44.889"/><polyline points="14.73 27.043 18.464 23.839 28.35 47.44 23.837 47.44"/><polyline points="9.331 31.789 7.727 28.39 13.5 25.665 25.572 51.246 19.798 53.97 18.449 51.112"/><path d="M19.1469,50.7828l-3.6775,1.7354a.89.89,0,0,1-1.1841-.4249L5.9263,34.38a.8894.8894,0,0,1,.4249-1.1841L10.0286,31.46"/><rect transform="translate(9.4888 -11.91) rotate(12.391)" x="55.81" y="23.608" width="7.5882" height="28.286"/><line x1="9.886" x2="7.1123" y1="35.642" y2="36.936"/><line x1="11.461" x2="8.6872" y1="38.734" y2="40.028"/><line x1="13.054" x2="10.28" y1="41.861" y2="43.154"/><line x1="14.557" x2="11.784" y1="45.032" y2="46.325"/><line x1="16.117" x2="13.343" y1="48.197" y2="49.491"/></g></svg>
