<svg xmlns="http://www.w3.org/2000/svg" id="a" viewBox="0 0 72 72"><g id="b"><path fill="#a57939" d="m59.65 9.6142c-0.0625 0.0039-4.9 4.8677-5.9621 5.5117-1.541 1.0313-2.5045 3.7789-2.6432 3.9146l-21.925 20.718a15.973 15.973 0 0 1 1.9548 2.1867l22.887-21.65a7.5276 7.5276 0 0 0 3.3142-1.9664c0.3054-0.3617 4.6013-4.24 4.97-4.97 0.7564-1.4975-2.0932-3.7776-2.5953-3.7449z"/><path fill="#ea5a47" d="M34.708,38.4357a.8932.8932,0,0,0-.2148.2158.9811.9811,0,0,1,.2163-.2139Z"/><path fill="#ea5a47" d="m30.434 41.478c-0.0324-0.0472-0.0661-0.0932-0.1-0.14 0.0339 0.0468 0.0676 0.0929 0.1 0.14z"/><circle cx="21.349" cy="49.342" r="12" fill="#d0cfce"/></g><g id="c" fill="none" stroke="#000" stroke-linecap="round" stroke-linejoin="round" stroke-width="2"><line x1="15.248" x2="20.349" y1="50.252" y2="55.195"/><path d="M54.6873,19.6056a5.0443,5.0443,0,0,0,2.2362-.58c.6314-.3969,3.5323-3.3609,5.1821-5.068a1.6979,1.6979,0,0,0-.0232-2.3817l-1.529-1.5289a1.6943,1.6943,0,0,0-2.379-.0257c-1.8269,1.7649-5.1332,4.9724-5.4614,5.3846a3.3166,3.3166,0,0,0-.4651,1.4471,1.7237,1.7237,0,0,1-.4994,1.0055L29.5532,39.4956"/><circle cx="21.349" cy="49.342" r="12"/></g></svg>