<?xml version="1.0" encoding="UTF-8"?>
<svg id="a" viewBox="0 0 72 72" xmlns="http://www.w3.org/2000/svg"><g id="b"><ellipse transform="translate(-14.246 39.491) rotate(-51.131)" cx="34.153" cy="34.635" rx="29.033" ry="22.118" fill="#fcea2b"/><path d="m52.139 12.03a18.698 18.698 0 0 0-13.3-3.8592 17.98 17.98 0 0 1 10.078 3.8592c9.5107 7.6656 9.0636 24-0.9986 36.484-6.14 7.6178-14.44 12.034-22.14 12.584 8.5313 0.6389 18.354-3.8885 25.362-12.584 10.062-12.484 10.51-28.819 0.9988-36.484z" fill="#fff"/><path d="M55.3488,13.082c-.4942-.3984-1.0176-.7812-1.5577-1.1377a.9281.9281,0,0,0-.1108-.045,1.03,1.03,0,0,0-.5558-.1024.9231.9231,0,0,0-.5263.2355.9427.9427,0,0,0-.0942.0682c-.0189.0205-.0247.047-.0417.0686s-.0414.0338-.0569.0573a.9449.9449,0,0,0-.0443.1094,1.0267,1.0267,0,0,0-.1021.5619.9782.9782,0,0,0,.0434.183.8341.8341,0,0,0,.1891.3358.9413.9413,0,0,0,.07.0971C60.84,21.15,59.9767,36.25,50.5968,47.8887c-9.7021,12.0351-24.97,15.88-34.0342,8.5732a.9608.9608,0,0,0-.1862-.0967c-.019-.01-.0363-.02-.0557-.0289a.97.97,0,0,0-.3-.0741c-.027-.0026-.0525-.0064-.08-.0068a.9161.9161,0,0,0-.5906.1954.94.94,0,0,0-.0972.058c-.0193.0174-.0268.0415-.0444.06-.0158.0171-.0375.0251-.0523.0435a.9354.9354,0,0,0-.0473.091.9593.9593,0,0,0-.1171.2256.9341.9341,0,0,0-.024.097.9719.9719,0,0,0-.0255.2966c.0017.02.0056.0386.0084.0585a.9646.9646,0,0,0,.0962.312c.0079.0157.0178.0295.0266.0447a.9534.9534,0,0,0,.109.1832,20.0687,20.0687,0,0,0,2.2862,2.1582A21.13,21.13,0,0,0,30.91,64.6338c8.59,0,17.8906-4.48,24.5283-12.7149C65.882,38.9619,65.841,21.539,55.3488,13.082Z" fill="#f1b31c"/><path d="M20.6524,44.72c.0722-.2316.6087-2.2138.6809-2.4455,5.9173.1054,6.209-.0917,7.0882-3.008,1.661-5.5087,2.1449-6.4941,3.8058-12.0028.5824-1.9314.4791-2.3538-2.29-2.882L28.25,24.0707c.063-.2034.4414-2.0746.5044-2.278a94.249,94.249,0,0,0,12.214-.7883l-5.4991,19c-.8584,2.9659-.7526,3.2031,4.9288,4.3013-.0656.2347-.5987,2.2183-.6642,2.453Z" fill="#f1b31c"/></g><g id="c" fill="none" stroke="#000" stroke-width="2"><path d="m53.238 12.777q0.7611 0.5013 1.4822 1.0818c10.08 8.1245 10.053 24.883-0.061 37.431s-26.484 16.134-36.564 8.0092a19.09 19.09 0 0 1-2.172-2.05" stroke-miterlimit="10"/><ellipse transform="translate(-14.246 39.491) rotate(-51.131)" cx="34.153" cy="34.635" rx="29.033" ry="22.118" stroke-miterlimit="10"/><line x1="51.373" x2="54.659" y1="48.515" y2="51.29" stroke-miterlimit="10"/><line x1="47.916" x2="50.812" y1="52.26" y2="55.372" stroke-miterlimit="10"/><line x1="44.257" x2="46.635" y1="55.304" y2="58.626" stroke-miterlimit="10"/><line x1="40.243" x2="42.116" y1="57.982" y2="61.326" stroke-miterlimit="10"/><line x1="54.036" x2="57.524" y1="44.774" y2="47.189" stroke-miterlimit="10"/><path d="M20.6524,44.72c.0722-.2316.6087-2.2138.6809-2.4455,5.9173.1054,6.209-.0917,7.0882-3.008,1.661-5.5087,2.1449-6.4941,3.8058-12.0028.5824-1.9314.4791-2.3538-2.29-2.882L28.25,24.0707c.063-.2034.4414-2.0746.5044-2.278a94.249,94.249,0,0,0,12.214-.7883l-5.4991,19c-.8584,2.9659-.7526,3.2031,4.9288,4.3013-.0656.2347-.5987,2.2183-.6642,2.453Z" stroke-linecap="round" stroke-linejoin="round"/></g></svg>
