<svg xmlns="http://www.w3.org/2000/svg" id="a" viewBox="0 0 72 72"><g id="b"><path fill="#92d3f5" d="m32.5 22.5s0 38 1 42 4 4 5 0c2.0308-8.123 1-42 1-42"/><path fill="#92d3f5" d="M22.5,15.5s10,5,10,7h7c0-1.6987,7.214-5.5616,9.3876-6.6869.3855-.2.6124-.3131.6124-.3131Z"/><rect width="32" height="9" x="20" y="6.5" fill="#d0cfce" rx="2.244" ry="2.244"/></g><g id="c" fill="none" stroke="#000" stroke-miterlimit="10" stroke-width="2"><path stroke-linecap="round" d="m32.5 22.5s0 38 1 42 4 4 5 0c2.0308-8.123 1-42 1-42"/><rect width="32" height="9" x="20" y="6.5" stroke-linecap="round" rx="2.244" ry="2.244"/><path stroke-linecap="round" d="m22.5 15.5s10 5 10 7"/><path stroke-linecap="round" d="M39.5,22.5c0-1.6987,7.214-5.5616,9.3876-6.6869.3855-.2.6124-.3131.6124-.3131"/><line x1="20" x2="52" y1="11" y2="11"/></g></svg>