<?xml version="1.0" encoding="UTF-8"?>
<svg id="a" viewBox="0 0 72 72" xmlns="http://www.w3.org/2000/svg"><g id="b"><path d="M29.625,35.9453a1,1,0,0,1-.8408-1.54l4.5527-7.1006L30.042,23.2236a1,1,0,0,1,1.5566-1.2558l3.7471,4.6416a1,1,0,0,1,.0635,1.1679l-4.9414,7.7081A.9986.9986,0,0,1,29.625,35.9453Z"/><path d="M25.6152,35.84a1,1,0,0,1-.7578-.3476L19.8037,29.623a1.001,1.001,0,0,1-.0225-1.2783L24.959,21.89a1,1,0,0,1,1.5605,1.252l-4.6582,5.8066,4.5117,5.2393a1,1,0,0,1-.7578,1.6523Z"/><path d="m28.797 54.457a1.0007 1.0007 0 0 1-0.9844-0.8281l-2.6279-15.102a1 1 0 1 1 1.9707-0.3437l2.6279 15.102a1 1 0 0 1-0.8135 1.1572 1.0571 1.0571 0 0 1-0.1728 0.0146z"/><path d="m30.529 54.457a1 1 0 0 1-0.9961-0.9189l-1.2373-15.165a1 1 0 0 1 1.9941-0.1621l1.2373 15.165a1.0007 1.0007 0 0 1-0.916 1.0781c-0.0273 2e-3 -0.0547 0.0029-0.082 0.0029z"/><path d="M39.51,35.9453a.9985.9985,0,0,1-.8428-.46l-4.9414-7.7081a1,1,0,0,1,.0635-1.1679l3.747-4.6416a1,1,0,0,1,1.5567,1.2558l-3.2949,4.0811,4.5527,7.1006a1,1,0,0,1-.8408,1.54Z"/><path d="M43.5205,35.84a1,1,0,0,1-.7578-1.6523l4.5107-5.2393-4.6582-5.8066a1,1,0,0,1,1.5606-1.252l5.1777,6.4551a1.0009,1.0009,0,0,1-.0224,1.2783l-5.0528,5.8692A.9978.9978,0,0,1,43.5205,35.84Z"/><path d="M40.3389,54.457a1.0364,1.0364,0,0,1-.1719-.0146,1,1,0,0,1-.8145-1.1563L41.98,38.1846a1,1,0,1,1,1.9707.3418l-2.627,15.1015A1.0006,1.0006,0,0,1,40.3389,54.457Z"/><path d="M38.6055,54.457c-.0274,0-.0547-.0009-.0821-.0029a1.0008,1.0008,0,0,1-.916-1.0781l1.2373-15.1651a1.0112,1.0112,0,0,1,1.0782-.916,1.0008,1.0008,0,0,1,.916,1.0781L39.6016,53.5381A1,1,0,0,1,38.6055,54.457Z"/></g><g id="c"><path d="M43.3557,57.378C52.84,30.25,47.2842,15.58,45.4308,11.8305a1.7576,1.7576,0,0,0-1.5829-.9736H25.45a1.7576,1.7576,0,0,0-1.5829.9736c-1.8534,3.75-7.4094,18.42,2.0751,45.5475a5.2374,5.2374,0,0,0,4.9413,3.4968h7.5313A5.2373,5.2373,0,0,0,43.3557,57.378Z" fill="#d22f27"/><polygon points="21.725 18.112 20.953 22.511 48.343 22.596 47.573 18.11" fill="#f1b31c"/><polygon points="24.871 53.457 44.514 53.457 43.651 56.524 25.981 56.524" fill="#f1b31c"/><rect x="24.701" y="35.181" width="6" height="3" rx="1.2901" fill="#a57939"/><rect transform="rotate(180 41.434 36.681)" x="38.434" y="35.181" width="6" height="3" rx="1.2901" fill="#a57939"/><polygon points="25.038 10.857 43.848 10.857 45.431 11.831 46.34 13.958 22.957 13.958 23.867 11.831" fill="#a57939"/><path d="M29.625,35.9453a1,1,0,0,1-.8408-1.54l4.5527-7.1006L30.042,23.2236a1,1,0,0,1,1.5566-1.2558l3.7471,4.6416a1,1,0,0,1,.0635,1.1679l-4.9414,7.7081A.9986.9986,0,0,1,29.625,35.9453Z" fill="#f1b31c"/><path d="M25.6152,35.84a1,1,0,0,1-.7578-.3476L19.8037,29.623a1.001,1.001,0,0,1-.0225-1.2783L24.959,21.89a1,1,0,0,1,1.5605,1.252l-4.6582,5.8066,4.5117,5.2393a1,1,0,0,1-.7578,1.6523Z" fill="#f1b31c"/><path d="m28.797 54.457a1.0007 1.0007 0 0 1-0.9844-0.8281l-2.6279-15.102a1 1 0 1 1 1.9707-0.3437l2.6279 15.102a1 1 0 0 1-0.8135 1.1572 1.0571 1.0571 0 0 1-0.1728 0.0146z" fill="#f1b31c"/><path d="m30.529 54.457a1 1 0 0 1-0.9961-0.9189l-1.2373-15.165a1 1 0 0 1 1.9941-0.1621l1.2373 15.165a1.0007 1.0007 0 0 1-0.916 1.0781c-0.0273 2e-3 -0.0547 0.0029-0.082 0.0029z" fill="#f1b31c"/><path d="M39.51,35.9453a.9985.9985,0,0,1-.8428-.46l-4.9414-7.7081a1,1,0,0,1,.0635-1.1679l3.747-4.6416a1,1,0,0,1,1.5567,1.2558l-3.2949,4.0811,4.5527,7.1006a1,1,0,0,1-.8408,1.54Z" fill="#f1b31c"/><path d="M43.5205,35.84a1,1,0,0,1-.7578-1.6523l4.5107-5.2393-4.6582-5.8066a1,1,0,0,1,1.5606-1.252l5.1777,6.4551a1.0009,1.0009,0,0,1-.0224,1.2783l-5.0528,5.8692A.9978.9978,0,0,1,43.5205,35.84Z" fill="#f1b31c"/><path d="M40.3389,54.457a1.0364,1.0364,0,0,1-.1719-.0146,1,1,0,0,1-.8145-1.1563L41.98,38.1846a1,1,0,1,1,1.9707.3418l-2.627,15.1015A1.0006,1.0006,0,0,1,40.3389,54.457Z" fill="#f1b31c"/><path d="M38.6055,54.457c-.0274,0-.0547-.0009-.0821-.0029a1.0008,1.0008,0,0,1-.916-1.0781l1.2373-15.1651a1.0112,1.0112,0,0,1,1.0782-.916,1.0008,1.0008,0,0,1,.916,1.0781L39.6016,53.5381A1,1,0,0,1,38.6055,54.457Z" fill="#f1b31c"/></g><g id="d" fill="none" stroke="#000" stroke-miterlimit="10" stroke-width="2"><path d="M43.3557,57.378C52.84,30.25,47.2842,15.58,45.4308,11.8305a1.7576,1.7576,0,0,0-1.5829-.9736H25.45a1.7576,1.7576,0,0,0-1.5829.9736c-1.8534,3.75-7.4094,18.42,2.0751,45.5475a5.2374,5.2374,0,0,0,4.9413,3.4968h7.5313A5.2373,5.2373,0,0,0,43.3557,57.378Z"/><line x1="21.725" x2="47.573" y1="18.119" y2="18.119" stroke-linecap="round"/><line x1="23.271" x2="46.34" y1="13.958" y2="13.958" stroke-linecap="round"/><line x1="20.953" x2="48.343" y1="22.515" y2="22.515" stroke-linecap="round"/><rect x="24.701" y="35.181" width="6" height="3" rx="1.3284"/><line x1="24.648" x2="44.61" y1="53.457" y2="53.457" stroke-linecap="round"/><line x1="25.981" x2="43.337" y1="56.524" y2="56.524" stroke-linecap="round"/><rect transform="matrix(-1 0 0 -1 82.868 73.362)" x="38.434" y="35.181" width="6" height="3" rx="1.3284"/></g></svg>
