<svg xmlns="http://www.w3.org/2000/svg" id="a" viewBox="0 0 72 72"><g id="b" fill="none" stroke="#000" stroke-linecap="round" stroke-linejoin="round" stroke-width="2"><line x1="41.635" x2="53.29" y1="43.302" y2="54.957"/><line x1="43.677" x2="55.332" y1="41.261" y2="52.916"/></g><g id="c"><path fill="#f4aa41" d="M58.5645,55.9782l-2.09,2.09a4.3035,4.3035,0,0,1-6.076.118l-13.64-13.64a.9993.9993,0,0,1,0-1.4142l.2147-.2147-.705-.7051-.2148.2148a1,1,0,0,1-1.4142,0l-2.64-2.64a1,1,0,0,1,0-1.4142l6.87-6.87a1,1,0,0,1,1.4142,0l2.64,2.64a1,1,0,0,1,0,1.4143l-.2845.2845.705.705.2845-.2845a.9993.9993,0,0,1,1.4142,0l13.64,13.64A4.3035,4.3035,0,0,1,58.5645,55.9782Z"/><path fill="#d0cfce" d="M34.82,37.4869a.9969.9969,0,0,1-.7071-.293L20.2686,23.3506l-3.416-.7719a1,1,0,0,1-.69-.5645l-2.3516-5.2148a1,1,0,0,1,.2041-1.1182l2.041-2.0415a1.0014,1.0014,0,0,1,1.1074-.21l5.2666,2.3a1,1,0,0,1,.5782.7119l.7236,3.4585L37.5684,33.7388a1,1,0,0,1,0,1.4141l-2.041,2.041A.9969.9969,0,0,1,34.82,37.4869Z"/><line x1="41.635" x2="53.29" y1="43.302" y2="54.957" fill="none" stroke="#e27022" stroke-linecap="round" stroke-linejoin="round" stroke-width="2"/><line x1="43.677" x2="55.332" y1="41.261" y2="52.916" fill="none" stroke="#e27022" stroke-linecap="round" stroke-linejoin="round" stroke-width="2"/></g><g id="d" fill="none" stroke="#000" stroke-linecap="round" stroke-linejoin="round" stroke-width="2"><path d="M44.3357,36.9691l13.64,13.64a3.3,3.3,0,0,1-.1177,4.6619l-2.09,2.09a3.3,3.3,0,0,1-4.662.1176l-13.64-13.64.922-.9219-2.1194-2.1194-.9219.922-2.64-2.64,6.87-6.87,2.64,2.64-.9919.992,2.1194,2.1193Z"/><polyline points="34.778 32.313 22.813 20.397 22.03 16.647 16.763 14.347 14.721 16.388 17.074 21.603 20.772 22.439 32.736 34.355"/></g></svg>