<?xml version="1.0" encoding="UTF-8"?>
<svg id="a" viewBox="0 0 72 72" xmlns="http://www.w3.org/2000/svg"><g id="b"><circle cx="36.146" cy="36.428" r="22.543" fill="#ea5a47"/><path d="m52.524 20.931a22.544 22.544 0 0 1-36.242 26.145 22.542 22.542 0 1 0 36.242-26.145z" fill="#d22f27"/><path d="m52.794 22.755c7.6746-0.9256 13.138-0.0236 14.192 2.8489 1.8403 5.0181-10.475 14.15-27.508 20.396s-32.332 7.2415-34.172 2.2235c-1.07-2.9183 2.6472-7.2279 9.2958-11.552l0.0766 1.5538c-2.5091 2.2523-3.7143 4.3411-3.1382 5.9122 1.4336 3.909 13.352 3.1334 26.619-1.7323s22.862-11.979 21.428-15.888c-0.5527-1.5073-2.6644-2.3181-5.8112-2.4664z" fill="#f1b31c"/></g><g id="c" fill="none" stroke="#000" stroke-linecap="round" stroke-linejoin="round" stroke-width="2"><path d="m17.156 46.594a21.539 21.539 0 1 1 38.77-18.687"/><path d="m57.677 37.164a21.555 21.555 0 0 1-34.892 16.164"/><path d="m52.794 22.755c7.6746-0.9256 13.138-0.0236 14.192 2.8489 1.8403 5.0181-10.475 14.15-27.508 20.396s-32.332 7.2415-34.172 2.2235c-1.07-2.9183 2.6472-7.2279 9.2958-11.552"/><path d="M53.7763,24.0509c3.1468.1483,5.2585.9591,5.8112,2.4664,1.4336,3.909-8.16,11.0223-21.428,15.8879S12.9737,48.0465,11.54,44.1375c-.5761-1.5711.6291-3.66,3.1382-5.9122"/></g></svg>
