<?xml version="1.0" encoding="UTF-8"?>
<svg id="a" viewBox="0 0 72 72" xmlns="http://www.w3.org/2000/svg"><g id="b"><path d="m32.5 22.5s0 38 1 42 4 4 5 0c2.0308-8.123 1-42 1-42" fill="#92d3f5"/><path d="M22.5,15.5s10,5,10,7h7c0-1.6987,7.214-5.5616,9.3876-6.6869.3855-.2.6124-.3131.6124-.3131Z" fill="#92d3f5"/><rect x="20" y="6.5" width="32" height="9" rx="2.2437" ry="2.2437" fill="#d0cfce"/></g><g id="c" fill="none" stroke="#000" stroke-miterlimit="10" stroke-width="2"><path d="m32.5 22.5s0 38 1 42 4 4 5 0c2.0308-8.123 1-42 1-42" stroke-linecap="round"/><rect x="20" y="6.5" width="32" height="9" rx="2.2437" ry="2.2437" stroke-linecap="round"/><path d="m22.5 15.5s10 5 10 7" stroke-linecap="round"/><path d="M39.5,22.5c0-1.6987,7.214-5.5616,9.3876-6.6869.3855-.2.6124-.3131.6124-.3131" stroke-linecap="round"/><line x1="20" x2="52" y1="11" y2="11"/></g></svg>
