<svg xmlns="http://www.w3.org/2000/svg" id="a" viewBox="0 0 72 72"><g id="b"><path fill="#6a462f" d="m22.265 62.034h-2.0576a1.0759 1.0759 0 0 1-1.0234-1.4072l16.164-49.94a1.0754 1.0754 0 0 1 1.0235-0.7451h2.0587a1.0759 1.0759 0 0 1 1.0235 1.4072l-16.165 49.94a1.0752 1.0752 0 0 1-1.0234 0.7451z"/><path fill="#a57939" d="m36.09 62.034h-2.0576a1.0759 1.0759 0 0 1-1.0234-1.4072l16.164-49.94a1.0752 1.0752 0 0 1 1.0234-0.7451h2.0586a1.0759 1.0759 0 0 1 1.0234 1.4072l-16.165 49.94a1.0753 1.0753 0 0 1-1.0235 0.7451z"/><path fill="#a57939" d="M47.9377,18.6777H34.12a1,1,0,0,1-.9346-1.3554l.6387-1.6778A1,1,0,0,1,34.759,15H48.5763a1,1,0,0,1,.9346,1.3555l-.6387,1.6777A1,1,0,0,1,47.9377,18.6777Z"/><path fill="#a57939" d="M44.1359,30.3166H30.3185a1,1,0,0,1-.9345-1.3555l.6386-1.6777a1,1,0,0,1,.9346-.6446H44.7746a1,1,0,0,1,.9346,1.3555l-.6387,1.6777A1,1,0,0,1,44.1359,30.3166Z"/><path fill="#a57939" d="M40.4338,42H26.6164a1,1,0,0,1-.9346-1.3555l.6387-1.6777a1,1,0,0,1,.9346-.6446H41.0725a1,1,0,0,1,.9345,1.3555l-.6386,1.6778A1.0005,1.0005,0,0,1,40.4338,42Z"/><path fill="#a57939" d="M36.6485,53.6528H22.8311a1,1,0,0,1-.9345-1.3555l.6386-1.6777a1,1,0,0,1,.9346-.6446H37.2872a1,1,0,0,1,.9346,1.3555l-.6387,1.6777A1,1,0,0,1,36.6485,53.6528Z"/></g><g id="c" fill="none" stroke="#000" stroke-linecap="round" stroke-linejoin="round" stroke-width="2"><line x1="20.207" x2="36.371" y1="60.958" y2="11.018"/><line x1="34.024" x2="50.189" y1="60.958" y2="11.018"/><line x1="34.759" x2="48.576" y1="16" y2="16"/><line x1="30.985" x2="44.803" y1="27.658" y2="27.658"/><line x1="37.256" x2="23.438" y1="50.974" y2="50.974"/><line x1="27.212" x2="41.029" y1="39.316" y2="39.316"/></g></svg>