<svg xmlns="http://www.w3.org/2000/svg" id="a" viewBox="0 0 72 72"><g id="b"><path d="m40.388 15.325v-3.4577h-9.309v3.4577a11.045 11.045 0 0 1 9.309 0z"/><ellipse cx="36" cy="40.097" fill="none" stroke="#000" stroke-linecap="round" stroke-linejoin="round" stroke-width="2" rx="7.759" ry="24.964"/><path d="m61.917 39.454c-0.2886-5.91-4.5112-11.12-10.872-14.348-3.3388-6.6532-8.8362-11.01-15.045-11.01-5.4929 0-10.426 3.4134-13.803 8.8061a2.9933 2.9933 0 0 1 2.3652 2.7744 32.734 32.734 0 0 1 11.42-2.0024 31.938 31.938 0 0 1 13.586 2.9051 29.716 29.716 0 0 1 2.1289 6.457 68.85 68.85 0 0 0-15.679-1.7 68.8 68.8 0 0 0-15.71 1.7069 31.064 31.064 0 0 1 1.2015-4.2128 2.9712 2.9712 0 0 1-1.8589-0.7119 33.024 33.024 0 0 0-1.4953 5.5154 20.506 20.506 0 0 0-5.3858 2.3941 16.648 16.648 0 0 1 6.8648-7.9228 2.9831 2.9831 0 0 1-0.9986-1.6967c-5.2854 3.3736-8.6176 8.2582-8.6176 13.688 0 6.2054 4.3508 11.7 10.997 15.039 3.3444 6.585 8.8127 10.889 14.984 10.889 6.1792 0 11.653-4.3141 14.997-10.913 6.3878-3.2252 10.631-8.4466 10.92-14.372a3.211 3.211 0 0 0 0-1.2861zm-25.935-17.779a34.563 34.563 0 0 0-12.014 2.0984c3.0013-4.7172 7.2832-7.6765 12.031-7.6765 4.7539 0 9.0405 2.9662 12.042 7.6934a34.546 34.546 0 0 0-12.06-2.1153zm23.188 14.286a20.887 20.887 0 0 0-5.3276-2.3387 33.023 33.023 0 0 0-1.4929-5.5035 16.68 16.68 0 0 1 6.8205 7.8422zm-41.336-0.1485a35.524 35.524 0 0 0 0.0083 8.5725c-3.6716-1.2474-5.7871-2.8065-5.7871-4.2877s2.1121-3.0378 5.7786-4.2848zm-5.0636 8.3533a20.527 20.527 0 0 0 5.3989 2.3983 32.907 32.907 0 0 0 1.5273 5.5651 16.679 16.679 0 0 1-6.9262-7.9634zm23.23 19.859c-4.7158 0-8.9712-2.92-11.969-7.5818a35.44 35.44 0 0 0 23.949-0.0169c-2.9986 4.6715-7.2584 7.5987-11.98 7.5987zm23.93-23.545c-0.2817 1.1724-1.8445 2.3707-4.4077 3.4088a2.627 2.627 0 0 1 0.4446 1.9377 17.404 17.404 0 0 0 3.2031-1.593 16.697 16.697 0 0 1-6.855 7.8648 32.259 32.259 0 0 0 1.0823-3.6363 2.6817 2.6817 0 0 1-1.9346-0.3966 29.296 29.296 0 0 1-1.94 5.5712 31.961 31.961 0 0 1-13.54 2.8824 31.985 31.985 0 0 1-13.494-2.859 29.631 29.631 0 0 1-2.1714-6.5076 68.811 68.811 0 0 0 15.701 1.705 70.41 70.41 0 0 0 14.662-1.4734 2.9727 2.9727 0 0 1-0.68-1.8719 67.812 67.812 0 0 1-13.982 1.3453 63.961 63.961 0 0 1-16.076-1.84 33.886 33.886 0 0 1-0.011-9.8359 63.936 63.936 0 0 1 16.087-1.8433 64.016 64.016 0 0 1 16.049 1.8331 34.51 34.51 0 0 1 0.3545 4.8905q0 1.28-0.0957 2.5235a2.8644 2.8644 0 0 1 1.9761 0.2262c0.07-0.9049 0.12-1.8185 0.12-2.75a36.222 36.222 0 0 0-0.2566-4.2621c3.3748 1.1423 5.4365 2.5474 5.7651 3.9153 0.0044 0.1278 0.0149 0.2545 0.0149 0.383s-0.0108 0.2548-0.0155 0.3823z"/></g><g id="c"><path d="m40.388 15.325v-3.4577h-9.309v3.4577a11.045 11.045 0 0 1 9.309 0z"/><polygon fill="#92d3f5" points="28.588 32.687 28.588 47.507 19.039 45.785 18.578 34.547"/><polygon fill="#92d3f5" points="30.31 23.129 28.588 32.687 43.412 32.687 41.655 23.129"/><polygon fill="#ffa7c0" points="30.31 23.129 21.695 25.811 18.578 34.547 28.588 32.687"/><polygon fill="#ffa7c0" points="11.214 42.07 19.039 45.785 21.232 54.153 12.24 47.857"/><polygon fill="#b399c8" points="28.588 47.507 30.31 57.065 41.177 57.519 43.376 47.857"/><polyline fill="#d0cfce" points="21.578 25.838 26.974 17.677 22.966 18.724 15.62 25.58 11.214 33.38 21.578 25.838"/><polygon fill="#9b9b9a" points="21.579 25.838 16.932 28.838 11.611 34.547 11.018 40.097 13.326 43.718 19.039 45.784 18.579 34.547"/><polyline fill="#92d3f5" points="41.359 16.303 46.881 20.568 50.318 25.838 56 29.687 60.39 34.547 55.7 24.671 49.11 18.771 41.359 16.303"/><polyline fill="#b399c8" points="37.693 64.46 41.997 57.008 50 54.514 43.759 63.423 37.693 64.46"/><polyline fill="#d0cfce" points="28.588 32.687 28.588 47.507 43.376 47.857 43.412 32.687 28.588 32.687"/><polygon fill="#9b9b9a" points="37.9 15.133 33.655 15.325 26.974 17.677 22.091 25.246 30.31 23.129 41.655 23.129"/><polygon fill="#9b9b9a" points="52.762 34.364 50.318 25.838 41.655 23.129 43.394 33.313 43.41 33.316 43.376 47.857 52.958 45.796 52.97 34.401"/><polygon fill="#fff" points="37.9 15.134 41.655 23.129 50.318 25.838 44.109 17.962"/><polygon fill="#fff" points="50.318 25.838 52.97 34.401 52.958 45.796 43.376 47.857 41.997 57.008 50 54.514 43.759 63.949 50.23 60.649 56.813 54.514 60.39 45.502 60.39 38.419 58.771 31.138"/><polygon fill="#fff" points="12.24 47.857 17.62 57.519 28.241 63.83 37.693 65.446 41.997 57.008 30.31 57.065 28.588 47.507 19.039 45.785 21.232 54.153"/><ellipse cx="36" cy="40.097" fill="none" stroke="#000" stroke-linecap="round" stroke-linejoin="round" stroke-width="2" rx="7.759" ry="24.964"/><ellipse cx="36" cy="40.061" fill="none" stroke="#000" stroke-linecap="round" stroke-linejoin="round" stroke-width="2" rx="17.422" ry="24.964"/><ellipse cx="36.018" cy="40.097" fill="none" stroke="#000" stroke-linecap="round" stroke-linejoin="round" stroke-width="2" rx="24.964" ry="7.759"/><ellipse cx="35.982" cy="40.097" fill="none" stroke="#000" stroke-linecap="round" stroke-linejoin="round" stroke-width="2" rx="24.964" ry="17.422"/><circle cx="21.578" cy="25.838" r="3" fill="#fff"/><circle cx="53" cy="45.502" r="3" fill="#fff"/></g><g id="d" fill="none" stroke="#000" stroke-linejoin="round" stroke-width="2"><circle cx="36" cy="40.061" r="25" stroke-linecap="round"/><polyline stroke-linecap="round" points="31.079 15.061 31.079 11.867 40.668 11.867 40.668 15.061"/><line x1="35.874" x2="35.874" y1="11.867" y2="5.077" stroke-linecap="square"/></g></svg>