<?xml version="1.0" encoding="UTF-8"?>
<svg id="a" viewBox="0 0 72 72" xmlns="http://www.w3.org/2000/svg"><g id="b"><path d="M48.0056,34.1314l-.0008,5.0108.0038-23.6357c.0006-3.7005-7.4368-4.0258-7.6548.3919-.0032.0655-.0374,18.5258-.0374,18.5934v-20c0-3.7329-2.29-4.8444-4.1235-4.9836H35.807c-1.8333.1392-4.1238,1.2507-4.1234,4.9836v20c0-.0676-.0342-18.5279-.0374-18.5934-.218-4.4177-7.6554-4.0924-7.6548-.3919l.0038,23.6357-.0008-5.0108c-1.3859-2.9117-5.4041-5.9646-7.9155-3.7363a73.2708,73.2708,0,0,0,2.0768,18.0967C21.473,57.32,25.8632,62.2879,35.6293,62.474l0,.0178c.0973,0,.1857-.008.282-.0089.0962.0009.1845.0089.2817.0089v-.0177c9.7729-.186,14.3341-5.1542,17.6514-13.9823a74.5043,74.5043,0,0,0,2.0768-18.0967C53.41,28.1668,49.3915,31.22,48.0056,34.1314Z" fill="#fcea2b"/></g><g id="c"><path d="m36.126 40.955c6.1218 0 11.084 6.505 11.084 6.505s-4.9627 6.505-11.084 6.505-11.084-6.5048-11.084-6.5048 4.9627-6.5052 11.084-6.5052z" fill="#fff"/><circle cx="36.205" cy="47.31" r="5.8448" fill="#61b2e4"/></g><g id="d"><path d="M48.0056,34.1314l-.0008,5.0108.0038-23.6357c.0006-3.7005-7.4368-4.0258-7.6548.3919-.0032.0655-.0374,18.5258-.0374,18.5934v-20c0-3.7329-2.29-4.8444-4.1235-4.9836H35.807c-1.8333.1392-4.1238,1.2507-4.1234,4.9836v20c0-.0676-.0342-18.5279-.0374-18.5934-.218-4.4177-7.6554-4.0924-7.6548-.3919l.0038,23.6357-.0008-5.0108c-1.3859-2.9117-5.4041-5.9646-7.9155-3.7363a73.2708,73.2708,0,0,0,2.0768,18.0967C21.473,57.32,25.8632,62.2879,35.6293,62.474l0,.0178c.0973,0,.1857-.008.282-.0089.0962.0009.1845.0089.2817.0089v-.0177c9.7729-.186,14.3341-5.1542,17.6514-13.9823a74.5043,74.5043,0,0,0,2.0768-18.0967C53.41,28.1668,49.3915,31.22,48.0056,34.1314Z" fill="none" stroke="#000" stroke-linecap="round" stroke-linejoin="round" stroke-width="2"/><path d="m36.126 40.428c6.6178 0 11.983 7.032 11.983 7.032s-5.3648 7.032-11.983 7.032-11.983-7.0318-11.983-7.0318 5.3648-7.0322 11.983-7.0322z" fill="none" stroke="#000" stroke-linecap="round" stroke-linejoin="round" stroke-width="1.9984"/><circle cx="36.205" cy="47.31" r="2.6881"/><circle cx="36.205" cy="47.31" r="5.8448" fill="none" stroke="#000" stroke-linecap="round" stroke-linejoin="round" stroke-width="1.9984"/></g></svg>
