<svg xmlns="http://www.w3.org/2000/svg" id="a" viewBox="0 0 72 72"><g id="b" fill="none" stroke="#000" stroke-linecap="round" stroke-linejoin="round" stroke-width="2"><path d="m39.179 35.642 15.018-17.26a3.9887 3.9887 0 0 0-6.38-4.7887l-29.238 45.599 16.39-18.727"/><path d="M49.9081,19.6608c-.7433.515-1.4725.6747-1.9149.3426-.7033-.5278-.416-2.0979.6416-3.507s2.485-2.1234,3.1882-1.5956a.9071.9071,0,0,1,.3111.4506"/><path d="m49.005 16.048a10.528 10.528 0 0 1 1.5422 0.9753 13.166 13.166 0 0 1 5.21 13.203s-1.613 8.9339-10.898 9.209c-8.5048 0.252-21.408-8.633-33.86 2.7982"/><path d="m34.589 18.564s6.0295-4.8028 12.184-3.3422"/></g><g id="c"><path fill="#d0cfce" d="M54.0019,11.998a5.0087,5.0087,0,0,0-7.0273,1.0562L17.7373,58.6523A1,1,0,0,0,19.332,59.85L54.95,19.04c.0166-.0185.0322-.0376.0469-.0576A4.995,4.995,0,0,0,54.0019,11.998Zm-3.62,5.81a3.283,3.283,0,0,1-1.7685,1.3692,3.2815,3.2815,0,0,1,.8213-2.08,3.283,3.283,0,0,1,1.7685-1.3692A3.2884,3.2884,0,0,1,50.3818,17.8076Z"/><path fill="none" stroke="#000" stroke-linecap="round" stroke-linejoin="round" stroke-width="2" d="m39.179 35.642 15.018-17.26a3.9887 3.9887 0 0 0-6.38-4.7887l-29.238 45.599 16.39-18.727"/><path fill="none" stroke="#000" stroke-linecap="round" stroke-linejoin="round" stroke-width="2" d="M49.9081,19.6608c-.7433.515-1.4725.6747-1.9149.3426-.7033-.5278-.416-2.0979.6416-3.507s2.485-2.1234,3.1882-1.5956a.9071.9071,0,0,1,.3111.4506"/><path fill="#92d3f5" d="m46.3 14.106c-6.2857-1.0746-12.087 3.4745-12.339 3.6755a1 1 0 0 0 1.2451 1.565c0.0518-0.0411 4.8049-3.75 9.8964-3.3722z"/><path fill="#92d3f5" d="m49.259 17.345q0.3492 0.221 0.6837 0.4753a12.093 12.093 0 0 1 4.831 12.226c-0.0615 0.332-1.6054 8.1416-9.9433 8.3887a32.332 32.332 0 0 1-7.9834-1.3046c-7.68-1.8545-17.233-4.16-26.524 4.3672a1 1 0 0 0 1.3535 1.4728c8.503-7.8056 17.108-5.73 24.7-3.8965a35.299 35.299 0 0 0 8.5118 1.3614c9.98-0.2969 11.835-9.9341 11.837-9.9624a14.056 14.056 0 0 0-5.5733-14.245q-0.2141-0.1624-0.4341-0.3145a3.8635 3.8635 0 0 0-1.4042 1.3433z"/></g></svg>