<?xml version="1.0" encoding="UTF-8"?>
<svg id="a" viewBox="0 0 72 72" xmlns="http://www.w3.org/2000/svg"><g id="b" fill="none" stroke="#000" stroke-linecap="round" stroke-linejoin="round" stroke-width="2"><line x1="9.9148" x2="26.613" y1="22.002" y2="22.002"/><line x1="34.861" x2="62.032" y1="22.002" y2="22.002"/><line x1="34.934" x2="54.108" y1="29.556" y2="29.556"/><line x1="34.934" x2="54.108" y1="33.554" y2="33.554"/><line x1="34.934" x2="54.108" y1="37.552" y2="37.552"/></g><g id="c"><rect x="5" y="17" width="62" height="38" rx="3.5081" fill="#d0cfce"/><rect x="10" y="29.544" width="16.528" height="19.462" fill="#fff" stroke="#fff" stroke-linecap="round" stroke-linejoin="round" stroke-width="2"/><path d="M26.6131,51l-1.1526-4.5626a4.3,4.3,0,0,0-4.209-4.1314h-6a4.3,4.3,0,0,0-4.209,4.1314L9.9148,51Z" fill="#fcea2b"/><circle cx="18.331" cy="34.8" r="3" fill="#fcea2b"/></g><g id="d" fill="none" stroke="#000" stroke-width="2"><path d="M34.474,50.0058l4.706-7.1323,1.255,6.2152,3.1695-4.1457.77,3.4347c4.7928-2.6426,9.5335,1.4738,13.2683.1157" stroke-linecap="round" stroke-linejoin="round"/><rect x="5" y="17" width="62" height="38" rx="3.5081" stroke-linecap="round" stroke-linejoin="round"/><circle cx="18.331" cy="34.8" r="3" stroke-miterlimit="10"/><path d="M26.6131,50.0058l-.1776-3.2675a5.274,5.274,0,0,0-5.2075-5H15.3a5.274,5.274,0,0,0-5.208,5l-.1776,3.2674" stroke-linecap="round" stroke-linejoin="round"/></g><g id="e" fill="none" stroke="#9b9b9a" stroke-linecap="round" stroke-linejoin="round" stroke-width="2"><line x1="9.9148" x2="26.613" y1="22.002" y2="22.002"/><line x1="34.861" x2="62.032" y1="22.002" y2="22.002"/><line x1="34.934" x2="54.108" y1="29.556" y2="29.556"/><line x1="34.934" x2="54.108" y1="33.554" y2="33.554"/><line x1="34.934" x2="54.108" y1="37.552" y2="37.552"/></g></svg>
