<svg xmlns="http://www.w3.org/2000/svg" id="a" version="1.1" viewBox="0 0 72 72"><g id="b" fill="none" stroke="#000" stroke-linejoin="round" stroke-width="2" transform="matrix(1.165 0 0 1.165 -5.868 -5.359)"><polygon points="52.11 48.61 51.44 56 47.58 52.3 50.12 56 54.5 56 57.29 49.9 53.38 56"/><polygon points="19.77 48.62 20.44 56.01 24.31 52.32 21.76 56.01 17.38 56.01 14.59 49.91 18.51 56.01"/></g><g id="c"><path fill="#9b9b9a" d="m55.21 59.88h-38.42a1.164 1.164 0 0 1-1.165-1.165v-27.39a20.38 20.38 0 0 1 40.75 0v27.39a1.165 1.165 0 0 1-1.165 1.165z"/><path fill="#3f3f3f" d="m36 10.95a20.37 20.37 0 0 0-3.935 0.3893 20.4 20.4 0 0 1 16.44 19.99v28.55h6.706a1.165 1.165 0 0 0 1.165-1.165v-27.39a20.4 20.4 0 0 0-20.38-20.38z"/><path fill="#5c9e31" d="m56.31 61.04h-3.787a1.167 1.167 0 0 1-0.9591-0.5028l-2.971-4.301a1.165 1.165 0 0 1 1.763-1.505l2.759 2.635 0.5642-6.2a1.165 1.165 0 0 1 1.115-1.058 1.142 1.142 0 0 1 1.193 0.968l0.9647 5.641 2.936-4.574a1.165 1.165 0 0 1 2.04 1.114l-3.254 7.103a1.165 1.165 0 0 1-1.059 0.6802h-1.305z"/><path fill="#5c9e31" d="m15.69 61.05h-1.305a1.165 1.165 0 0 1-1.059-0.6803l-3.253-7.103a1.165 1.165 0 0 1 2.04-1.114l2.936 4.576 0.9648-5.644a1.165 1.165 0 0 1 2.308 0.09098l0.5643 6.2 2.758-2.634a1.165 1.165 0 0 1 1.763 1.504l-2.971 4.301a1.167 1.167 0 0 1-0.959 0.5028h-1.524a0.036 0.036 0 0 0-0.01596 0z"/></g><g id="d" fill="none" stroke="#000" stroke-linecap="round" stroke-linejoin="round" stroke-width="2.33"><path d="m16.79 47.51v-16.19a19.21 19.21 0 0 1 19.21-19.21 19.21 19.21 0 0 1 19.21 19.21v16.19"/><line x1="25.99" x2="46.01" y1="30.35" y2="30.35"/><line x1="25.99" x2="46.01" y1="35.57" y2="35.57"/><line x1="30.75" x2="41.25" y1="44.39" y2="44.39"/></g></svg>