<svg xmlns="http://www.w3.org/2000/svg" id="a" viewBox="0 0 72 72"><g id="b" fill="none" stroke="#000" stroke-linecap="round" stroke-linejoin="round" stroke-width="2"><path d="m18.299 47.037s0.17 2.1674 4.5371 2.8755"/><path d="M25.0343,35.4841A5.4642,5.4642,0,0,1,29.5569,36"/><path d="m26.858 28.234a7.5161 7.5161 0 0 1 5.2271-0.6931"/><path d="M32.27,19.1212s3.0736.3742,2.6079,4.286"/><path d="m48.146 34.993s4.7358 1.001 5.6255-3.3181"/><path d="m41.396 40.644a6 6 0 0 0 6.6792 1.4717"/><path d="m33.598 45.211s4.3436-0.38 5.458 1.5936"/><path d="m23.789 56.957s2.5774-2.8107 6.0761-1.884"/><path d="m44.092 14.609s2.3364 2.296 1.1682 7.1425"/><path d="m39.056 20.634s0.7182 2.9572-1.898 6.6866"/><path d="m21.367 32.03s-0.4284 5.567 3.1854 6.1831"/><path d="m21.929 45.182s3.7608 1.0774 4.49-2.3129"/><path d="m31 52.545s6.3137-0.9121 5.5583-4.2323"/><path d="m44.466 30.345s0.7807 4.9488 3.0684 5.6554"/><path d="m48.492 22.982s-0.5088 3.9862 1.6566 6.1516"/></g><g id="c"><path fill="#5c9e31" d="m24.523 49.686a13.118 13.118 0 0 1-5.8688 3.6567 1 1 0 0 1-1.2492-0.6631l-1.4646-4.7806a1 1 0 0 1 0.6631-1.2491 7.3519 7.3519 0 0 0 3.57-2.4363zm-0.93-10.571c-0.3791-1.9241 0.85-5.3214 0.85-5.3214 0.2027-0.79 0.3949-1.5933 0.5868-2.3994 0.9789-4.0965 1.99-8.3311 4.54-11.202a11.653 11.653 0 0 1 10.947-3.8358 15.272 15.272 0 0 1 3.1433 1.0191 25.476 25.476 0 0 1-7.3478 6.2792 5.2812 5.2812 0 0 0-1.5072 1.1839c-1.9008 2.1405-2.9741 6.3152-4.0114 10.352a52.2 52.2 0 0 1-3.41 10.27s-3.4119-4.4217-3.7909-6.3458zm22.632-10.741a14.534 14.534 0 0 0-5.1751-4.4833l1.0392-0.71a17.333 17.333 0 0 0 4.277-4.3095q0.7529 0.5014 1.4783 1.0854a21.683 21.683 0 0 1 2.6876 2.5842 10.072 10.072 0 0 0-3.6373 4.27zm-14.424 25.486a13.796 13.796 0 0 0-2.5515 6.0447 1 1 0 0 1-1.1572 0.8132l-4.9259-0.8569a1 1 0 0 1-0.8132-1.1572 18.053 18.053 0 0 1 3.4686-7.985zm-2.4391-6.8048a57.642 57.642 0 0 1 8.8651-5.7552 43.44 43.44 0 0 0 7.8061-5.1223 5.1724 5.1724 0 0 0 1.7747-3.4277 14.397 14.397 0 0 1 4.5664-7.7965q0.4171 0.6309 0.7895 1.2877a12.212 12.212 0 0 1-2.406 15.102 26.682 26.682 0 0 1-6.5276 3.925c-1.1274 0.5413-2.192 1.0529-3.1918 1.618a34.431 34.431 0 0 1-5.1464 2.3265c-2.1387 0.6571-6.53-2.1568-6.53-2.1568z"/><path fill="#92d3f5" d="m35.173 22.01a23.474 23.474 0 0 0 6.0509-4.7473 10.195 10.195 0 0 0 2.5772-5.2516 1.0014 1.0014 0 0 1 1.1572-0.8132l4.9258 0.8571a1 1 0 0 1 0.8133 1.1572c-1.6129 9.27-8.9133 12.924-15.354 16.149-1.5385 0.7705-3.03 1.5178-4.4 2.3127zm12.902 18.92c-0.8671 3.4376-2.0365 6.7351-4.3373 9.3277a11.657 11.657 0 0 1-10.948 3.8363 17.406 17.406 0 0 1-7.327-3.6015 22.178 22.178 0 0 1-5.3192-6.2841 12.212 12.212 0 0 1 2.4048-15.1 26.281 26.281 0 0 1 6.07-3.839s-0.9792 3.4859-1.7137 6.6059c-0.8065 3.4258-1.2924 5.4625-1.2924 5.4625a5.2389 5.2389 0 0 0 0.6217 3.4209c1.8268 3.2221 5.1124 5.8979 7.9561 6.4766a3.9656 3.9656 0 0 0 1.5047 0.0092s1.0426-0.0662 4.8242-2.0364c4.4819-2.3348 7.5557-4.2776 7.5557-4.2776zm-7.1718-0.2865c0.434-1.4833 0.79-3.11 1.1547-4.7768 1.406-6.4238 3.1548-14.415 11.288-16.907a1.001 1.001 0 0 1 1.2491 0.6631l1.4656 4.78a1.0008 1.0008 0 0 1-0.6631 1.2491c-3.1856 0.9767-4.7535 3.7765-5.7769 8.0184z"/><path fill="#b1cc33" d="M22.8371,50.9126a1.0121,1.0121,0,0,1-.1612-.0127c-4.998-.8105-5.35-3.4824-5.374-3.7842a1,1,0,0,1,1.99-.1963c.02.0909.3935,1.47,3.7041,2.0059a1,1,0,0,1-.1592,1.9873Z"/><path fill="#b1cc33" d="M29.5558,37.0005a.9944.9944,0,0,1-.5058-.1377,4.4421,4.4421,0,0,0-3.6514-.4473,1,1,0,0,1-.7363-1.86,6.4773,6.4773,0,0,1,5.4013.583,1,1,0,0,1-.5078,1.8623Z"/><path fill="#b1cc33" d="M26.8615,29.2329a1,1,0,0,1-.501-1.8662,8.5,8.5,0,0,1,5.9951-.7891,1,1,0,1,1-.541,1.9258,6.5339,6.5339,0,0,0-4.4609.6A.9981.9981,0,0,1,26.8615,29.2329Z"/><path fill="#b1cc33" d="M34.8791,24.4067A.9836.9836,0,0,1,34.76,24.4a1,1,0,0,1-.875-1.1113c.3242-2.7295-1.3994-3.124-1.748-3.1758a1.0061,1.0061,0,0,1-.8516-1.124.9906.9906,0,0,1,1.1055-.8594c1.4053.1709,3.9414,1.5185,3.48,5.3955A1.0006,1.0006,0,0,1,34.8791,24.4067Z"/><path fill="#b1cc33" d="M49.29,36.0913a7.1188,7.1188,0,0,1-1.3506-.12,1,1,0,0,1-.7715-1.1856.9893.9893,0,0,1,1.1826-.7714c.39.0791,3.78.67,4.4415-2.542a1,1,0,1,1,1.9589.4043,4.9889,4.9889,0,0,1-2.1338,3.32A6.1025,6.1025,0,0,1,49.29,36.0913Z"/><path fill="#b1cc33" d="m45.698 43.535a6.7405 6.7405 0 0 1-5.084-2.2657 1 1 0 0 1 1.5586-1.2539 5.0172 5.0172 0 0 0 5.58 1.1553 1 1 0 0 1 0.6445 1.8926 8.3429 8.3429 0 0 1-2.6991 0.4717z"/><path fill="#b1cc33" d="M39.0568,47.8052a1.0006,1.0006,0,0,1-.8721-.5088c-.5986-1.0606-3.289-1.19-4.5009-1.0889a1,1,0,0,1-.1729-1.9922c.5117-.0449,5.0244-.3662,6.416,2.0987a1,1,0,0,1-.87,1.4912Z"/><path fill="#b1cc33" d="m23.789 57.956a1 1 0 0 1-0.7373-1.6739c0.1221-0.1328 3.0352-3.2441 7.0694-2.1748a1 1 0 0 1-0.5118 1.9336 5.5033 5.5033 0 0 0-5.0859 1.5957 1.0012 1.0012 0 0 1-0.7344 0.3194z"/><path fill="#61b2e4" d="M45.2609,22.7515a1.0222,1.0222,0,0,1-.2353-.0274,1.0011,1.0011,0,0,1-.7383-1.207c1.0068-4.1738-.8262-6.1221-.9043-6.2031a1,1,0,0,1,1.41-1.418c.1114.1094,2.7246,2.7539,1.4395,8.09A1.0017,1.0017,0,0,1,45.2609,22.7515Z"/><path fill="#61b2e4" d="M37.1564,28.3208a1,1,0,0,1-.8174-1.5742c2.292-3.2686,1.7666-5.78,1.7432-5.8848a1,1,0,0,1,1.9453-.4639c.0342.1387.792,3.4434-2.0518,7.4971A.9974.9974,0,0,1,37.1564,28.3208Z"/><path fill="#61b2e4" d="M24.5529,39.2124a1.0011,1.0011,0,0,1-.1689-.0146c-4.461-.7608-4.0352-6.98-4.0147-7.2442a1,1,0,0,1,1.9941.1514c-.0029.0469-.3115,4.667,2.3565,5.1221a1,1,0,0,1-.167,1.9853Z"/><path fill="#61b2e4" d="M23.2306,46.3481a6.0568,6.0568,0,0,1-1.5771-.205A1,1,0,0,1,22.2,44.2192a3.471,3.471,0,0,0,2.3779-.1914,1.9749,1.9749,0,0,0,.8623-1.3691,1,1,0,0,1,1.9551.42A3.9613,3.9613,0,0,1,25.6,45.7466,4.5974,4.5974,0,0,1,23.2306,46.3481Z"/><path fill="#61b2e4" d="M30.9992,53.5444a1,1,0,0,1-.1426-1.9892c.91-.1338,3.6982-.79,4.54-2.0186a1.1822,1.1822,0,0,0,.1875-1.0029,1,1,0,0,1,1.9493-.4434,3.196,3.196,0,0,1-.4883,2.5791c-1.4912,2.1709-5.4551,2.8-5.9024,2.8643A.8965.8965,0,0,1,30.9992,53.5444Z"/><path fill="#61b2e4" d="M47.5343,37.0005a.9994.9994,0,0,1-.2949-.0449c-2.8017-.8662-3.6709-5.8858-3.7607-6.4551a1,1,0,1,1,1.9746-.3125c.2871,1.8008,1.2148,4.498,2.376,4.8574a1,1,0,0,1-.295,1.9551Z"/><path fill="#61b2e4" d="M50.15,30.1333a.9971.9971,0,0,1-.7071-.293c-2.4843-2.4834-1.9658-6.8027-1.9423-6.9853a1,1,0,0,1,1.9843.2519c-.0039.0352-.414,3.5342,1.3721,5.3194a1,1,0,0,1-.707,1.707Z"/></g><g id="d" fill="none" stroke="#000" stroke-linecap="round" stroke-width="2"><path stroke-miterlimit="10" d="m41.964 17.936a11.175 11.175 0 0 0 2.8223-5.7523m-9.2964 10.798a24.811 24.811 0 0 0 6.4745-5.0461m4.4721 25.124a17.736 17.736 0 0 1-3.4466 6.5347 10.652 10.652 0 0 1-9.9985 3.52 16.406 16.406 0 0 1-6.9005-3.4 21.166 21.166 0 0 1-5.0766-5.9984 11.217 11.217 0 0 1 2.21-13.87 20.331 20.331 0 0 1 3.9477-2.7025m27.932-2.447c-3.7722 1.1558-5.47 4.594-6.4885 8.8732m-6.5633 6.6843c0.36-1.325 0.6684-2.7358 0.9833-4.1753 1.42-6.488 3.0295-13.842 10.603-16.162m-28.946 16.905a6.234 6.234 0 0 0 0.6721 4.4312 16.179 16.179 0 0 0 3.8847 4.5766 11.38 11.38 0 0 0 4.7415 2.3868 5.2968 5.2968 0 0 0 3.6759-0.6485m12.046-34.526c-1.5262 8.7724-8.587 12.308-14.817 15.426-1.3269 0.6645-2.6225 1.3133-3.8432 1.9941"/><path stroke-linejoin="round" d="M46.5789,20.2442q.3237.24.6416.4957M24.6568,36.8132q.3873-1.3116.7587-2.7671c1.2146-4.7269,2.0418-9.96,4.9058-13.1862A10.649,10.649,0,0,1,40.32,17.34a13.6481,13.6481,0,0,1,1.7463.4812M16.9,47.61a8.4831,8.4831,0,0,0,4.4667-3.2954m3.0795,3.9176A12.2526,12.2526,0,0,1,18.3646,52.39M35.8519,22.774a6.2737,6.2737,0,0,0-1.7912,1.4052c-2.06,2.32-3.1641,6.6137-4.2316,10.7662a59.69,59.69,0,0,1-2.7411,8.77M46.0042,26.4844a15.99,15.99,0,0,0-1.942-1.8592q-.56-.451-1.1339-.8276m-11.9278,23.24a64.0142,64.0142,0,0,1,7.7239-4.8637,44.08,44.08,0,0,0,7.9874-5.2542,6.2846,6.2846,0,0,0,1.92-3.3456m-25.29,25.3051a17.1545,17.1545,0,0,1,3.861-8.258m4.2586,2.0785a14.91,14.91,0,0,0-3.1937,7.0375M52.1154,26.4232q.0926.1566.1821.3147a11.2172,11.2172,0,0,1-2.2108,13.8707c-2.5466,2.3289-6.4051,3.6411-9.5366,5.41-1.0044.5089-1.963,1.03-2.87,1.5721m9.5408-26.85h0a20.45,20.45,0,0,1,1.8517,1.6924"/></g></svg>