<svg xmlns="http://www.w3.org/2000/svg" id="a" viewBox="0 0 72 72"><g id="b"><path fill="#a57939" d="M38.3053,42.0308a.9969.9969,0,0,1-.707-.293L15.9049,20.0444a2.9565,2.9565,0,0,1,4.1817-4.1806L41.78,37.5571a1,1,0,0,1,0,1.4141c-.3906.3906-2.3769,2.376-2.7675,2.7666A.9971.9971,0,0,1,38.3053,42.0308Z"/><path fill="#d22f27" d="m61.081 41.741a3.224 3.224 0 0 0-3.28-0.7073 11.778 11.778 0 0 0-12.737-1.9821l-2.39-2.3887a1 1 0 0 0-1.4141 0l-4.5566 4.5557a0.9995 0.9995 0 0 0 0 1.414l2.39 2.39a11.781 11.781 0 0 0 1.9652 12.718 3.1428 3.1428 0 0 0 5.1749 3.2982l14.848-14.846a3.15 3.15 0 0 0 0-4.4512z"/><path fill="#ea5a47" d="m61.081 41.741a3.23 3.23 0 0 0-4.4512 0l-14.848 14.847a3.1475 3.1475 0 0 0 4.4512 4.4512l14.848-14.847a3.15 3.15 0 0 0 0-4.4512z"/></g><g id="c" fill="none" stroke="#000" stroke-linecap="round" stroke-linejoin="round" stroke-width="2"><path d="m56 43.783 1.3361-1.336a2.1541 2.1541 0 0 1 3.0374 0 2.1541 2.1541 0 0 1 0 3.0374l-14.847 14.847a2.1541 2.1541 0 0 1-3.0374 0 2.1541 2.1541 0 0 1 0-3.0374l1.2943-1.2944z"/><path d="m36 38.726-19.388-19.388a1.9626 1.9626 0 0 1 0-2.7672 1.9626 1.9626 0 0 1 2.7672 0l19.388 19.388"/><path d="m55.433 40.524a10.874 10.874 0 0 0-10.572-0.2612l-2.8933-2.8933-4.5565 4.5564 2.8934 2.8933a10.875 10.875 0 0 0 0.239 10.534"/></g></svg>