<?xml version="1.0" encoding="UTF-8"?>
<svg id="a" viewBox="0 0 72 72" xmlns="http://www.w3.org/2000/svg"><g id="b"><path d="m60.814 42.802a1.0384 1.0384 0 0 1 1.0343-1.0421h4.285v-9.5731h-4.285a1.0383 1.0383 0 0 1-1.0343-1.0424v-7.4629h-55.137v26.075h55.137v-6.9541" fill="#d0cfce"/><path d="m11.501 45.784h9.119v-18.013h-9.119z" fill="#d22f27"/></g><g id="c" fill="none" stroke="#000" stroke-linecap="round" stroke-linejoin="round" stroke-width="2"><path d="M61.081,31.3475v-7.159a1,1,0,0,0-1-1H6.772a1,1,0,0,0-1,1v25.016a1,1,0,0,0,1,1H60.085a1,1,0,0,0,1-1v-6.674h5.143V31.3475Z"/><rect x="11" y="27.36" width="10.121" height="19.007"/></g></svg>
