<svg xmlns="http://www.w3.org/2000/svg" id="a" viewBox="0 0 72 72"><g id="b"><path fill="#3f3f3f" d="m40.245 32.918h-8.5328c3.2564 11.704-1.0771 20.017-1.0771 20.017l1.1848 2.0015c0.5108 0.8526 2.3242 3.6358 4.18 3.6358 1.8457 0 3.7158-2.7725 4.2451-3.6211l1.1885-1.8978s-3.8923-7.5849-1.1885-20.136z"/><path fill="#d22f27" d="m29.977 22.872a5.0792 5.0792 0 1 1 5.1463-5.0787 5.1185 5.1185 0 0 1-5.1463 5.0787z"/><path fill="#d22f27" d="m35.839 17.775a5.161 5.161 0 1 1 5.16 5.0665 5.1194 5.1194 0 0 1-5.16-5.0665z"/><path fill="#d0cfce" d="m17.695 60.055a7.809 7.809 0 0 1-3.9014-0.9209 5.7966 5.7966 0 0 1-2.8457-3.9756c-0.3447-1.2315-1.4648-9.1963 17.61-30.931a1.018 1.018 0 0 1 0.9238-0.3262 1 1 0 0 1 0.7588 0.62 63.531 63.531 0 0 1 3.4727 13.932c0.855 7.0692-0.1541 12.478-2.93 15.968a11.248 11.248 0 0 1-4.22 3.27 22.394 22.394 0 0 1-8.8682 2.3638z"/><path fill="#d0cfce" d="m54.294 60.055a22.376 22.376 0 0 1-8.8671-2.3633c-5.878-2.6631-8.3516-9.3154-7.1514-19.238a63.559 63.559 0 0 1 3.4726-13.932 1 1 0 0 1 0.7579-0.62 1.0123 1.0123 0 0 1 0.9248 0.3262c19.075 21.734 17.955 29.699 17.61 30.931a5.7962 5.7962 0 0 1-2.8457 3.9756 7.8087 7.8087 0 0 1-3.9011 0.9207z"/><path d="M35.5107,34.5954H35.51c-.0254,0-.0889-.002-.1153-.0039-4.2832-.2041-6.8183-4.4844-7.5039-12.7227a4.4428,4.4428,0,0,1,1.01-3.2841c1.916-2.2891,5.8418-2.4053,6.6094-2.4053h.97c.7676,0,4.6943.1162,6.6094,2.4053A4.4424,4.4424,0,0,1,44.1,21.8679c-.6885,8.2392-3.2236,12.52-7.5342,12.7255Z"/></g><g id="c" fill="none" stroke="#000" stroke-linecap="round" stroke-width="2"><path stroke-linejoin="round" d="m39.396 54.421s-1.9625 3.1506-3.3963 3.1506-3.322-3.1506-3.322-3.1506"/><path stroke-linejoin="round" d="m31.218 30.916c2.1195 8.0259 4.1409 21.694-5.0676 25.865-13.309 6.0279-14.224-1.844-14.224-1.844s-2.5216-7.3556 17.346-30.005"/><path stroke-linejoin="round" d="m40.813 30.762c-2.134 8.004-4.2411 21.822 5.0267 26.019 13.309 6.0279 14.224-1.844 14.224-1.844s2.5215-7.3557-17.346-30.006"/><path stroke-linejoin="round" d="m26.014 19.098a4.1674 4.1674 0 1 1 8.1116-1.7954"/><path stroke-linejoin="round" d="m44.981 19.098a4.1674 4.1674 0 1 0-8.1116-1.7954"/><polyline stroke-miterlimit="10" points="29.469 54.421 29.977 57.479 25.875 63.807"/><polyline stroke-miterlimit="10" points="42.674 54.586 42.194 57.479 46.295 63.807"/><path stroke-linejoin="round" d="M34.0092,33.3341a3.9639,3.9639,0,0,1-1.59-1.0147c-1.91-1.7455-3.0941-5.2687-3.5324-10.534a3.4564,3.4564,0,0,1,.7809-2.559c1.6648-1.99,5.4193-2.0472,5.8419-2.0472h.97c.4225,0,4.1771.0571,5.8419,2.0472a3.4569,3.4569,0,0,1,.7809,2.559c-.4388,5.257-1.62,8.7774-3.5245,10.5258A5.8964,5.8964,0,0,1,37.98,33.3341"/><polyline stroke-miterlimit="10" points="15.545 15.444 19.758 23.888 26.446 28.229"/><polyline stroke-miterlimit="10" points="56.327 15.444 52.113 23.888 45.503 28.179"/></g></svg>