<?xml version="1.0" encoding="UTF-8"?>
<svg id="a" viewBox="0 0 72 72" xmlns="http://www.w3.org/2000/svg"><g id="b"><path d="m42.334 49.147a29.945 29.945 0 0 1-19.338-8.1514c-8.0137-7.3643-8.378-18.075-8.5332-22.648l-0.0215-0.627a2.9039 2.9039 0 0 1 3.457-2.9512c17.005 3.3555 21.694 16.324 22.056 17.4a49.543 49.543 0 0 1 3.5742 15.922 1 1 0 0 1-0.9668 1.0518c-0.0293 0.0013-0.1065 0.0043-0.2276 0.0043z" fill="#b399c8"/><path d="m44.436 55.316c-11.646 0-17.376-6.9734-17.652-7.3542a1 1 0 0 1 0.2617-1.4239 11.103 11.103 0 0 1 12.774-1.5734c-1.4648-9.0782 1.877-13.568 2.0312-13.77a0.9982 0.9982 0 0 1 0.75-0.39 0.9705 0.9705 0 0 1 0.78 0.3242c8.9434 9.7715 8.793 16.532 7.9072 19.691-0.0341 0.1406-1.0615 4.0918-4.7714 4.4063-0.7117 0.0613-1.405 0.0896-2.0808 0.0896z" fill="#61b2e4"/></g><g id="c" fill="none" stroke="#000" stroke-linecap="round" stroke-linejoin="round" stroke-width="2"><path d="m55.184 57.69s-20.224-11.813-32.086-33.484"/><path d="m45.228 54.302c-11.931 0.4605-17.628-6.8808-17.628-6.8808"/><path d="m40.528 42.483c-0.5595-7.1945 2.1157-10.678 2.1157-10.678 8.8346 9.6533 8.4063 16.162 7.6813 18.747"/><path d="m37.014 47.422a30.15 30.15 0 0 1-13.341-7.1616c-8.0725-7.4186-8.0674-18.241-8.2321-22.577a1.9032 1.9032 0 0 1 2.2642-1.9314c16.989 3.3515 21.315 16.777 21.315 16.777"/></g></svg>
