<svg xmlns="http://www.w3.org/2000/svg" id="a" viewBox="0 0 72 72"><g id="b"><path fill="#f4aa41" d="M42.2688,60.9583H28.6752a.83.83,0,0,1-.8187-.6964l-2.4489-15.05a.8291.8291,0,0,1,.686-.9515c.4526-.0737,18.3067-.0745,18.7569,0a.8291.8291,0,0,1,.6859.9515L43.0876,60.2619A.83.83,0,0,1,42.2688,60.9583Z"/><path fill="#ea5a47" d="M47.7634,45.9079H23.1806a.8288.8288,0,0,1-.8292-.8293V39.9314a.8288.8288,0,0,1,.8292-.8292H47.7634a.8288.8288,0,0,1,.8293.8292v5.1472A.8288.8288,0,0,1,47.7634,45.9079Z"/><path fill="#5c9e31" d="M35.2717,32.3523a1,1,0,0,1-.9444-.6738c-1.2588-3.6514-13.1757-11.21-17.6611-13.8144a1,1,0,0,1-.0039-1.7276,12.09,12.09,0,0,1,10.4219-.7051l.0175.0088c8.8291,4.1338,9.1612,15.4131,9.1709,15.8916a1,1,0,0,1-.8242,1.0049A.9841.9841,0,0,1,35.2717,32.3523Z"/><path fill="#b1cc33" d="M50.0949,12.8416a1.0014,1.0014,0,0,0-.0488-1.6943,9.852,9.852,0,0,0-12.2529,2.4668c-4.8512,5.46-3.7389,14.053-3.4178,15.9636C32.05,27.86,27.3221,25.2581,21.98,27.4031c-.0127.0049-.0254.01-.0371.0156-.1719.0762-4.2041,1.9356-4.2608,6.3428a.9994.9994,0,0,0,1,1.0127,1.0156,1.0156,0,0,0,.2637-.0351c.1082-.0293,10.8372-2.9316,16.073-2.1958l.0163.0019.0123.0015a.9772.9772,0,0,0,.1762-.0023.9468.9468,0,0,0,.1226-.0007l.01-.0012.01-.0011c4.8706-.7582,13.4261,1.5561,13.5129,1.5795a1.0156,1.0156,0,0,0,.2637.0351.9993.9993,0,0,0,.9736-1.2265,7.5539,7.5539,0,0,0-6.2432-5.4736h-.0009a10.91,10.91,0,0,0-7.44,1.9071C36.6063,21.9418,49.9576,12.9328,50.0949,12.8416Z"/><path fill="#5c9e31" d="m35.194 31.323a1 1 0 0 1-0.9462-1.3212c0.123-0.3614 3.082-8.8575 10.213-11.318 7.4122-2.5606 11.094 3.1465 11.131 3.2041a1.0006 1.0006 0 0 1-0.7559 1.5273c-4.3261 0.4-16.129 2.5069-18.761 7.3828a1 1 0 0 1-0.8809 0.5254zm9.5928-11.694z"/><path fill="#a57939" d="M31.19,39.1022v-1.32a4.0049,4.0049,0,0,1,1.2969-2.9345,2.96,2.96,0,0,1-.2969-1.2911,3,3,0,0,1,6,0,2.96,2.96,0,0,1-.2968,1.2911A4.0032,4.0032,0,0,1,39.19,37.782v1.32Z"/></g><g id="c" fill="none" stroke="#000" stroke-linecap="round" stroke-linejoin="round" stroke-width="2"><rect width="24.583" height="5.147" x="23.181" y="39.932"/><polyline points="26.678 47.853 28.675 60.129 42.269 60.129 44.266 47.853"/><path d="m38.138 37.221a3.0039 3.0039 0 0 0-1.6655-2.1408 2 2 0 1 0-2.5631 0 3.004 3.004 0 0 0-1.6674 2.1509"/><path d="m41.886 31.708a61.916 61.916 0 0 1 7.2784 1.4515 6.5952 6.5952 0 0 0-5.4268-4.7128c-4.4986-0.7141-8.5255 3.1133-8.5255 3.1133"/><path d="m35.258 31.347s-0.2277-11.089-8.5947-15.007a11.15 11.15 0 0 0-9.51 0.653 132.23 132.23 0 0 1 11.617 7.6777"/><path d="m35.195 31.556s-5.9594-5.9847-12.839-3.2258c0 0-3.6211 1.6242-3.67 5.4432a84.036 84.036 0 0 1 10.71-2.1093"/><path d="m35.212 30.323c3.4659-6.4211 19.549-7.9037 19.549-7.9037s-3.2069-5.12-9.9567-2.7906"/><path d="m35.419 29.772c-0.304-8.1412 14.113-17.762 14.113-17.762a8.7847 8.7847 0 0 0-10.998 2.2682 12.964 12.964 0 0 0-2.6366 4.8407"/></g></svg>