<svg xmlns="http://www.w3.org/2000/svg" id="a" viewBox="0 0 72 72"><g id="b"><path fill="#a57939" d="m11.59 31.688c0-6.7958 10.928-12.305 24.41-12.305s24.41 5.509 24.41 12.305v1.0556c0 5.6918-2.0093 12.49-5.0625 16.344-3.0887 3.8978-9.5935 6.1539-19.348 6.1539s-15.854-1.8262-19.347-6.1539c-3.0884-3.8263-5.0625-9.6808-5.0625-16.344v-1.0556z"/><path fill="#6a462f" d="m56.616 47.215c0 2.1079-7.3333 8.027-17.631 8.027s-18.645-1.7089-18.645-3.8168 7.4581 0.6442 19.391-1.3738c10.154-1.7171 16.885-4.9443 16.885-2.8364z"/><g id="c"><path fill="#fff" d="M30.1896,39.9811c-.5807-1.2291-.8903-2.6807-.8903-4.2194,0-3.2033,1.3258-6.5034,3.4936-8.1002,.842-.629,1.8194-.9968,2.8936-.9968,1.5291,0,2.8646,.7452,3.9098,1.9258,1.5581,1.7613,2.4871,4.5001,2.4871,7.1711,0,1.5775-.329,3.0678-.9484,4.3259"/></g><g id="d"><path fill="#fff" d="m22.07 36.855c-0.3774-1.0452-0.571-2.2065-0.571-3.4259 0-4.4614 2.5646-9.097 6.3969-9.097 2.071 0 3.7743 1.3645 4.8969 3.3291l-3.628 12.426-7.0948-3.2323z"/></g><g id="e"><path fill="#fff" d="M48.0352,38.065l.0097-.0097c2.7968-3.1646,3.9581-7.8486,1.4033-10.4131-2.4097-2.4097-6.7066-1.5097-9.8518,.9484l.5354,11.497,7.9035-2.0226Z"/></g><path fill="#d0cfce" d="m31.105 25.573c-5.0101 4.9391-5.1766 10.262-3.8755 13.721l3.6002 1.0064-1.2569-5.7734 2.9144-6.5852-1.3822-2.3688z"/><path fill="#d0cfce" d="m37.933 27.826c2.8534 3.1015-0.3711 12.474-0.3711 12.474l3.2281-0.3812 1.0281-5.5714-1.3209-4.1974-2.5642-2.3245z"/><path fill="#d0cfce" d="M41.8177,40.0876l5.4053-1.5099,3.546-6.0577-.9593-3.0805c-.9535,7.4157-7.7263,7.606-7.7263,7.606l-.2657,3.0421Z"/></g><g id="f"><path fill="none" stroke="#000" stroke-linecap="round" stroke-linejoin="round" stroke-width="2" d="m52.324 33.688c0 3.8911-7.3087 7.0454-16.324 7.0454s-16.324-3.1543-16.324-7.0454"/><path fill="none" stroke="#000" stroke-linecap="round" stroke-linejoin="round" stroke-width="2" d="m53.302 42.529c-1.5841 2.241-5.687 4.008-10.885 4.6863"/><path fill="none" stroke="#000" stroke-linecap="round" stroke-linejoin="round" stroke-width="2" d="m11.59 31.688c0-6.7958 10.928-12.305 24.41-12.305s24.41 5.509 24.41 12.305v1.0556c0 5.6918-2.0093 12.49-5.0625 16.344-3.0887 3.8978-9.5935 6.1539-19.348 6.1539s-15.854-1.8262-19.347-6.1539c-3.0884-3.8263-5.0625-9.6808-5.0625-16.344v-1.0556z"/><g id="g"><path fill="none" stroke="#000" stroke-linecap="round" stroke-linejoin="round" stroke-width="2" d="M30.1896,39.9811c-.5807-1.2291-.8903-2.6807-.8903-4.2194,0-3.2033,1.3258-6.5034,3.4936-8.1002,.842-.629,1.8194-.9968,2.8936-.9968,1.5291,0,2.8646,.7452,3.9098,1.9258,1.5581,1.7613,2.4871,4.5001,2.4871,7.1711,0,1.5775-.329,3.0678-.9484,4.3259"/></g><g id="h"><path fill="none" stroke="#000" stroke-linecap="round" stroke-linejoin="round" stroke-width="2" d="M22.2547,37.3126c-.3774-1.0452-.7556-2.6638-.7556-3.8832,0-4.4614,2.5646-9.097,6.3969-9.097,2.071,0,3.7743,1.3645,4.8969,3.3291"/></g><g id="i"><path fill="none" stroke="#000" stroke-linecap="round" stroke-linejoin="round" stroke-width="2" d="m47.859 38.49c2.7968-3.1646 4.144-8.2831 1.5891-10.848-2.4097-2.4097-6.7066-1.5097-9.8518 0.9484"/></g></g></svg>