<svg xmlns="http://www.w3.org/2000/svg" id="a" viewBox="0 0 72 72"><g id="b"><circle cx="31.592" cy="45.623" r="1"/><circle cx="30.159" cy="41.739" r="1"/><circle cx="32.814" cy="39.749" r="1"/><circle cx="40.428" cy="45.623" r="1"/><circle cx="41.861" cy="41.739" r="1"/><circle cx="39.206" cy="39.749" r="1"/></g><g id="c"><path fill="#5c9e31" d="M43.12,34.5381H28.8805a1.0054,1.0054,0,0,1-.5068-.1377,7.0918,7.0918,0,0,1-3.2578-6.7861,3.1992,3.1992,0,0,1,.625-1.626,3.6052,3.6052,0,0,1,2.2461-1.1055c.205-.043.4111-.084.6064-.1426A6.5658,6.5658,0,0,0,30.52,23.5859c.2158-.1621.4306-.3252.6494-.4795a4.7522,4.7522,0,0,1,3.99-1.0556.9933.9933,0,0,1,.1289.0439h0a2.1056,2.1056,0,0,0,1.4219,0c1.498-.6289,2.9892.21,4.12,1.0117.2178.1543.4316.3155.6455.4776A6.5716,6.5716,0,0,0,43.4079,24.74c.1943.0586.4.1.6064.1426a3.6031,3.6031,0,0,1,2.2451,1.1055,3.1827,3.1827,0,0,1,.624,1.6269A7.09,7.09,0,0,1,43.6266,34.4,1.0054,1.0054,0,0,1,43.12,34.5381Z"/><path fill="#186648" d="M44.5006,33.2559c-2.7872-2.2383-7.4574-1.51-8.5009-1.3124-1.043-.1981-5.711-.9269-8.5,1.3114a5.7772,5.7772,0,0,0-2.0655,4.7617c0,3.4863,0,14.0967,9.1084,15.6582a.9977.9977,0,0,0,1.0537-.5186L36,52.3921l.4033.7641a.9977.9977,0,0,0,1.0537.5186c9.1094-1.5615,9.1094-12.1719,9.1094-15.6582A5.7742,5.7742,0,0,0,44.5006,33.2559Z"/><circle cx="31.592" cy="45.623" r="1" fill="#fcea2b"/><circle cx="30.159" cy="41.739" r="1" fill="#fcea2b"/><circle cx="32.814" cy="39.749" r="1" fill="#fcea2b"/><circle cx="40.428" cy="45.623" r="1" fill="#fcea2b"/><circle cx="41.861" cy="41.739" r="1" fill="#fcea2b"/><circle cx="39.206" cy="39.749" r="1" fill="#fcea2b"/></g><g id="d" fill="none" stroke="#000" stroke-linecap="round" stroke-linejoin="round" stroke-width="2"><path d="m31.746 51.68c-4.4446-2.4527-5.3118-8.2931-5.3118-13.664 0-7.1689 9.5658-5.0535 9.5658-5.0535v17.286l-1.2881 2.4412"/><line x1="36" x2="37.288" y1="50.249" y2="52.69"/><path d="m40.254 51.68c4.4446-2.4527 5.3118-8.2931 5.3118-13.664 0-7.1689-9.5657-5.0535-9.5657-5.0535"/><polyline points="26.817 43.343 23.045 46.301 26.092 52.145"/><path d="m25.127 50.295s-3.0066 6.004-0.8821 11.209"/><polyline points="27.12 35.201 20.879 34.117 21.124 38.691"/><path d="m18.351 46.24a9.7065 9.7065 0 0 1 2.6593-9.681"/><path d="M26.8806,31.4565a6.0714,6.0714,0,0,1-.7723-3.7131,2.2123,2.2123,0,0,1,.4085-1.1252c.5429-.6693,1.5368-.6726,2.3623-.92a10.4722,10.4722,0,0,0,2.8685-1.7764,3.9325,3.9325,0,0,1,3.1539-.9056,3.1056,3.1056,0,0,0,2.197,0c1.0423-.4384,2.2315.2515,3.1539.9056a10.4722,10.4722,0,0,0,2.8685,1.7764c.8255.2474,1.8194.2507,2.3623.92a2.2123,2.2123,0,0,1,.4085,1.1252,6.0714,6.0714,0,0,1-.7723,3.7131"/><polyline points="45.183 43.343 48.955 46.301 45.908 52.145"/><path d="m46.873 50.295s3.0066 6.004 0.8821 11.209"/><polyline points="44.88 35.201 51.121 34.117 50.876 38.691"/><path d="m53.649 46.24a9.7065 9.7065 0 0 0-2.6593-9.681"/><polyline points="31.57 10.958 36 15.106 40.43 10.958"/><line x1="36" x2="36" y1="15.106" y2="23.218"/><line x1="26.108" x2="23.522" y1="27.743" y2="23.841"/><path d="m20.384 15.106s-3.0817 8.29 4.2655 10.436"/><line x1="45.894" x2="48.481" y1="27.743" y2="23.841"/><path d="m51.618 15.106s3.0817 8.29-4.2654 10.436"/></g></svg>