<svg xmlns="http://www.w3.org/2000/svg" id="a" version="1.1" viewBox="0 0 72 72"><g id="b" fill="#FCEA2B"><circle cx="35.287" cy="7.96" r="2.966"/><ellipse cx="29.571" cy="9.632" rx="4.009" ry="4.009"/><path d="m32.661 16.138s-0.212-0.047-0.4178 6.8478c-0.1781 5.9669-2.1611 19.552-2.1611 19.552l-3.0754 9.6646-3.6164 8.3941-3.3842 5.9721-2.422-1.1612 2.4552-11.38 1.294-6.1048 0.7963-11.048-0.5972-2.9197-0.1659-0.8626 0.0332-7.5978 1.7253-6.0716 2.6211-2.8202 6.9149-0.4646z"/><path d="m32.038 18.767s-0.1656-2.2178 2.0582-2.9843 3.676-0.3515 5.7507-0.1737c2.4304 0.0889 2.6024 3.0795 2.6024 3.0795l0.1882 15.309-1.2159 4.8378 3.0871 16.558 2.0206 8.9806-1.6839 2.3574-2.6381-4.8271-4.1535-12.068-1.9645-0.1123-4.0974 15.828-2.3574 1.2348-1.4032-1.7961 2.3013-19.645 1.5054-26.579z"/></g><g id="c" fill="none" stroke="#000" stroke-miterlimit="10" stroke-width="2"><circle cx="35.287" cy="7.96" r="3"/><path stroke-linecap="round" stroke-linejoin="round" d="m30.18 12.574c-1.6165 0.3562-3.2188-0.6661-3.5753-2.2841-0.3565-1.6179 0.6676-3.2191 2.2841-3.5753"/><path stroke-linecap="round" stroke-linejoin="round" d="m32.536 30.634-4.2231 34.247c-0.1346 1.0917 0.5256 1.985 1.4671 1.985s1.9487-0.8683 2.2382-1.9295l5.4865-20.116c0.2895-1.0612 1.0427-2.6666 1.6738-3.5675l2.199-3.1389c0.6311-0.9009 1.1039-2.537 1.0505-3.6357l-0.4918-10.12"/><path stroke-linecap="round" stroke-linejoin="round" d="m41.453 38.006 1.8199 11.526c0.1716 1.0865 0.5237 2.8503 0.7826 3.9194l2.4228 10.007c0.2588 1.0691-0.2044 2.3938-1.0294 2.9438s-1.7732 0.1425-2.1072-0.9056l-2.8929-9.0797c-0.3339-1.0481-0.934-2.7442-1.3335-3.7691l-2.2034-5.6531"/><line x1="41.936" x2="41.48" y1="24.359" y2="18.974" stroke-linecap="round" stroke-linejoin="round"/><path stroke-linecap="round" stroke-linejoin="round" d="m37.148 20.042-3.9599 4.8358c-0.6969 0.8511-2.1344 1.788-3.1943 2.082l-10.677 2.9616"/><path stroke-linecap="round" stroke-linejoin="round" d="m22.399 25.566 0.8961-5.377c0.3616-2.1701 1.8617-3.7621 3.3334-3.5378 1.4718 0.2243 4.4529 0.1209 6.6248-0.2298l9.1168-1.4721"/><line x1="22.172" x2="22.358" y1="39.734" y2="32.783" stroke-linecap="round" stroke-linejoin="round"/><path stroke-linecap="round" stroke-linejoin="round" d="m22.172 39.734-1.0602 9.7592c-0.066 1.6999-0.6165 3.3668-1.0124 5.0214l-2.3812 9.9499c-0.265 1.1074 0.5267 2.188 1.6625 2.2691v0c0.7861 0.0562 1.521-0.3933 1.8291-1.1187l4.8722-13.756"/></g></svg>