<svg xmlns="http://www.w3.org/2000/svg" id="a" viewBox="0 0 72 72"><g id="b"><polygon fill="#fcea2b" points="31.44 14.337 31.442 4.594 34.557 7.246 35.972 3.7 37.441 7.109 40.285 4.594 40.285 14.337"/><path fill="#92d3f5" d="m17 61v-4c0-4.9941 5.0078-9 10-9 6 5 12 5 18 0 4.9941 0 10 4.0059 10 9v4"/></g><g id="c"><path fill="#fcea2b" d="m24.936 31c0 9 4.9365 14 11 14 5.9365 0 11.064-5 11.064-14 0.0245-1.7187-0.3164-3.4229-1-5-3-3-7-8-7-8-4 3-7 6-13 7 0 0-1.0635 1-1.0635 6z"/></g><g id="d"><path fill="#f1b31c" d="m31.44 11.585c-6.6762 1.8646-9.44 7.899-9.44 13.933 0 7.2593 0 13.482 4 13.482l-0.7854-5.7856 0.5528-7.7389 8.43-4.0077 5.2515-2.9712 6.5511 7.5034 0.9772 6-0.9772 7c4 0 4-6.2222 4-13.482 0-6.1163-2.84-12.233-9.715-14.007v2.8257h-8.845v-2.7518z"/></g><g id="e"><path fill="none" stroke="#000" stroke-linecap="round" stroke-linejoin="round" stroke-width="2" d="m44.097 14.089c4.1315 2.5955 5.9026 7.2534 5.9026 11.911 0 7 0 13-4 13"/><path fill="none" stroke="#000" stroke-linecap="round" stroke-linejoin="round" stroke-width="2" d="m26 39c-4 0-4-6-4-13 0-4.6575 1.7708-9.3149 5.9014-11.911"/><path fill="none" stroke="#000" stroke-linecap="round" stroke-linejoin="round" stroke-width="2" d="m17 60v-3c0-4.9941 5.0078-9 10-9 6 5 12 5 18 0 4.9941 0 10 4.0059 10 9v3"/><path d="M41.873,30c0,1.1046-.8954,2-2,2s-2-.8954-2-2,.8954-2,2-2,2,.8954,2,2"/><path d="M33.873,30c0,1.1046-.8954,2-2,2s-2-.8954-2-2,.8954-2,2-2,2,.8954,2,2"/><path fill="none" stroke="#000" stroke-linejoin="round" stroke-width="2" d="m24.936 31c0 9 4.9365 14 11 14 5.9365 0 11.064-5 11.064-14 0.0245-1.7187-0.3164-3.4229-1-5-3-3-7-8-7-8-4 3-7 6-13 7 0 0-1.0635 1-1.0635 6z"/><path fill="none" stroke="#000" stroke-linecap="round" stroke-linejoin="round" stroke-width="2" d="M33,38c1.8826,.9693,4.1174,.9693,6,0"/><polygon fill="none" stroke="#000" stroke-linecap="round" stroke-linejoin="round" stroke-width="2" points="31.44 14.337 31.442 4.594 34.557 7.246 35.972 3.7 37.441 7.109 40.285 4.594 40.285 14.337"/></g></svg>