<svg xmlns="http://www.w3.org/2000/svg" id="a" version="1.1" viewBox="0 0 72 72"><g id="b"><g id="c"><path fill="#EA5A47" d="m38.464 14.703 0.4123 3.1273 0.4026 0.0536 1.3674-2.5648 2.1561 0.7613c-0.14 1.558-1.74 4.2311 1.07 5.2588-1.8372 0.6183-2.8115 1.2422-4.6323-0.0152-1.0481-0.7238-2.6272 0.0793-3.2418 0.34-0.7542 0.3194-1.6364 0.6586-1.4836 1.9346 0.0415 0.3472 0.3816 0.6836-0.4217 1.7189-1.5952 1.7894-2.73 1.6071-4.7259 5.196-2.4475-3.2363-1.1789-9.924 2.9149-12.305l-0.49-1.9423 2.1061-0.9195 1.6493 2.594 0.9318-3.2377h1.9848z"/><path fill="#D22F27" d="m37.9 51.32c1.7607-3.743 2.4726-7.8935 2.06-12.009-0.373-3.5982-0.1758-3.3065 0.2164-4.8872 2.8469 2.2791 6.409 1.884 9.318 1.1694 0.8322 1.3276 1.0998 2.9324 0.7434 4.4582-0.8779 5.4941-3.4286 10.584-7.3045 14.576-3.2158 3.3068-6.4358 3.6325-10.081 0.84-5.1314-3.9312-9.4576-8.54-11.164-15.056-0.9274-3.5419 1.941-9.1041 5.3541-10.403 0.804-0.3333 1.7304-0.1321 2.3237 0.5047 1.8217 1.7297 3.2064 3.8673 4.04 6.237 0.63 1.5616 1.1643 3.162 1.7837 4.8607-2.9374-8.3031-4.2141-9.7578-5.8242-11.098 1.0163-2.4606 3.844-4.3388 4.7259-5.196 0.3453-0.3726 0.5242-0.8698 0.4954-1.377-0.3277-0.8162 0.0684-1.7435 0.8846-2.0711 0.0632-0.0254 0.128-0.0467 0.1939-0.0638 1.3584-0.5673 2.6541-1.3366 4.1841-0.076 0.7944 0.3875 1.7136 0.4293 2.54 0.1157 2.1936-0.7009 4.3193-1.6147 6.1987-2.3393l2.5141 5.0831c-1.536 1.0656-3.4246 2.2905-5.215 3.6452-1.4022 1.0325-2.7197 2.1752-3.94 3.4173-1.8063 1.8081-2.5944 4.3964-2.1024 6.9043 0.687 4.1278 0.0845 8.367-1.7253 12.14-0.0911 0.2005-0.1474 0.4164-0.2202 0.6248z"/><path fill="#EA5A47" d="m29.366 30.513c-2.992-2.5794-6.4657 3.0321-7.4105 5.7544-0.9813-1.6903-1.2951-3.6863-0.88-5.5962 1.0887-3.9847 2.2593-7.947 3.3529-11.766h6.8686c-0.6591 0.5705-1.2245 1.2409-1.6755 1.9869-1.4543 2.3994-1.8507 5.2937-1.0953 7.9958 0.2144 0.573 0.4963 1.1185 0.8398 1.6248z"/><path fill="#EA5A47" d="m45.888 28.234c1.4569 1.4613 2.284 3.4348 2.3043 5.4982 0.0014 0.4065 0.1122 2.1329-0.2474 2.1884-1.8919 0.3935-3.8538 0.285-5.6907-0.3148-2.3888-0.8793-2.0959-1.7839-1.0364-3.09 1.3812-1.6076 2.949-3.045 4.6702-4.2818z"/></g></g><g id="d"><g id="e"><g fill="none" stroke="#000" stroke-linecap="round" stroke-linejoin="round" stroke-width="2"><path d="m38.464 14.703 0.4123 3.1273 0.4026 0.0536 1.3674-2.5648 2.1561 0.7613c-0.14 1.558-1.74 4.2311 1.07 5.2588-1.8372 0.6183-2.8115 1.2422-4.6323-0.0152-1.0481-0.7238-2.6272 0.0793-3.2418 0.34-0.7542 0.3194-1.6364 0.6586-1.4836 1.9346 0.0415 0.3472 0.3816 0.6836-0.4217 1.7189-1.5952 1.7894-2.73 1.6071-4.7259 5.196-2.4475-3.2363-1.1789-9.924 2.9149-12.305l-0.49-1.9423 2.1061-0.9195 1.6493 2.594 0.9318-3.2377h1.9848z"/><path d="m37.9 51.32c1.7607-3.743 2.4726-7.8935 2.06-12.009-0.373-3.5982-0.1758-3.3065 0.2164-4.8872 2.8469 2.2791 6.409 1.884 9.318 1.1694 0.8322 1.3276 1.0998 2.9324 0.7434 4.4582-0.8779 5.4941-3.4286 10.584-7.3045 14.576-3.2158 3.3068-6.4358 3.6325-10.081 0.84-5.1314-3.9312-9.4576-8.54-11.164-15.056-0.9274-3.5419 1.941-9.1041 5.3541-10.403 0.804-0.3333 1.7304-0.1321 2.3237 0.5047 1.8217 1.7297 3.2064 3.8673 4.04 6.237 0.63 1.5616 1.1643 3.162 1.7837 4.8607-2.9374-8.3031-4.2141-9.7578-5.8242-11.098 1.0163-2.4606 3.844-4.3388 4.7259-5.196 0.3453-0.3726 0.5242-0.8698 0.4954-1.377-0.3277-0.8162 0.0684-1.7435 0.8846-2.0711 0.0632-0.0254 0.128-0.0467 0.1939-0.0638 1.3584-0.5673 2.6541-1.3366 4.1841-0.076 0.7944 0.3875 1.7136 0.4293 2.54 0.1157 2.1936-0.7009 4.3193-1.6147 6.1987-2.3393l2.5141 5.0831c-1.536 1.0656-3.4246 2.2905-5.215 3.6452-1.4022 1.0325-2.7197 2.1752-3.94 3.4173-1.8063 1.8081-2.5944 4.3964-2.1024 6.9043 0.687 4.1278 0.0845 8.367-1.7253 12.14-0.0911 0.2005-0.1474 0.4164-0.2202 0.6248z"/><path d="m29.366 30.513c-2.992-2.5794-6.4657 3.0321-7.4105 5.7544-0.9813-1.6903-1.2951-3.6863-0.88-5.5962 1.0887-3.9847 2.2593-7.947 3.3529-11.766h6.8686c-0.6591 0.5705-1.2245 1.2409-1.6755 1.9869-1.4543 2.3994-1.8507 5.2937-1.0953 7.9958 0.2144 0.573 0.4963 1.1185 0.8398 1.6248z"/><path d="m45.888 28.234c1.4569 1.4613 2.284 3.4348 2.3043 5.4982 0.0014 0.4065 0.1122 2.1329-0.2474 2.1884-1.8919 0.3935-3.8538 0.285-5.6907-0.3148-2.3888-0.8793-2.0959-1.7839-1.0364-3.09 1.3812-1.6076 2.949-3.045 4.6702-4.2818z"/></g></g></g></svg>