<?xml version="1.0" encoding="UTF-8"?>
<svg id="a" viewBox="0 0 72 72" xmlns="http://www.w3.org/2000/svg"><g id="b"><circle cx="31.075" cy="31.075" r="15.932" fill="#1e50a0"/><path d="M31.1391,25.3086a6.83,6.83,0,0,0-3.1626-.4173,6.8188,6.8188,0,0,0-1.3688-2.88l-.0962-.0884-.0962.0884a7.1959,7.1959,0,0,0-1.3688,2.88,6.83,6.83,0,0,0-3.1626.4173l-.1132.0651.0552.1183a7.1677,7.1677,0,0,0,2.3152,2.1859,6.8412,6.8412,0,0,0-.6005,3.1348l.0268.1278.13-.0158A7.2429,7.2429,0,0,0,26.5115,29.4a7.1092,7.1092,0,0,0,2.7793,1.5246l.13.0158.0269-.1278a6.8058,6.8058,0,0,0-.5654-3.1348,7.1688,7.1688,0,0,0,2.3152-2.1859l.0552-.1183Z" fill="#92d3f5"/><circle cx="46" cy="46" r="15" fill="#1e50a0"/><path d="M45.8609,40.3086a6.83,6.83,0,0,1,3.1626-.4173,6.8188,6.8188,0,0,1,1.3688-2.88l.0962-.0884.0962.0884a7.1959,7.1959,0,0,1,1.3688,2.88,6.83,6.83,0,0,1,3.1626.4173l.1132.0651-.0552.1183a7.1677,7.1677,0,0,1-2.3152,2.1859,6.8412,6.8412,0,0,1,.6005,3.1348l-.0268.1278-.13-.0158A7.2429,7.2429,0,0,1,50.4885,44.4a7.1092,7.1092,0,0,1-2.7793,1.5246l-.13.0158-.0269-.1278a6.8058,6.8058,0,0,1,.5654-3.1348,7.1688,7.1688,0,0,1-2.3152-2.1859l-.0552-.1183Z" fill="#92d3f5"/></g><g id="c" fill="none" stroke="#000" stroke-linecap="round" stroke-linejoin="round" stroke-width="2"><path d="M31.1391,25.3086a6.83,6.83,0,0,0-3.1626-.4173,6.8188,6.8188,0,0,0-1.3688-2.88l-.0962-.0884-.0962.0884a7.1959,7.1959,0,0,0-1.3688,2.88,6.83,6.83,0,0,0-3.1626.4173l-.1132.0651.0552.1183a7.1677,7.1677,0,0,0,2.3152,2.1859,6.8412,6.8412,0,0,0-.6005,3.1348l.0268.1278.13-.0158A7.2429,7.2429,0,0,0,26.5115,29.4a7.1092,7.1092,0,0,0,2.7793,1.5246l.13.0158.0269-.1278a6.8058,6.8058,0,0,0-.5654-3.1348,7.1688,7.1688,0,0,0,2.3152-2.1859l.0552-.1183Z"/><path d="m26.511 45.317a15.002 15.002 0 1 1 19.016-18.068"/><path d="M45.8609,40.3086a6.83,6.83,0,0,1,3.1626-.4173,6.8188,6.8188,0,0,1,1.3688-2.88l.0962-.0884.0962.0884a7.1959,7.1959,0,0,1,1.3688,2.88,6.83,6.83,0,0,1,3.1626.4173l.1132.0651-.0552.1183a7.1677,7.1677,0,0,1-2.3152,2.1859,6.8412,6.8412,0,0,1,.6005,3.1348l-.0268.1278-.13-.0158A7.2429,7.2429,0,0,1,50.4885,44.4a7.1092,7.1092,0,0,1-2.7793,1.5246l-.13.0158-.0269-.1278a6.8058,6.8058,0,0,1,.5654-3.1348,7.1688,7.1688,0,0,1-2.3152-2.1859l-.0552-.1183Z"/><circle cx="46" cy="46" r="15"/></g></svg>
