<?xml version="1.0" encoding="UTF-8"?>
<svg id="a" viewBox="0 0 72 72" xmlns="http://www.w3.org/2000/svg"><g id="b" fill="none" stroke="#000" stroke-linecap="round" stroke-linejoin="round"><path d="m43.873 12.146-15.572 3.7549a8.06 8.06 0 0 0-3.6028-0.2864" stroke-width="2"/><path d="m25.428 18.825s2.4881-1.0812 2.8736-2.9244" stroke-width="2"/><path d="m19.948 15.419 2.7744-0.6674a1.6175 1.6175 0 0 1 1.9508 1.1943l0.6936 2.8833" stroke-width="1.8827"/><path d="m19.948 15.419 2.7744-0.6674a1.6175 1.6175 0 0 1 1.9508 1.1943l0.6936 2.8833" stroke-width="1.8827"/><path d="M19.2691,30.2917c2.2176-5.2121-.224-11.71-.224-11.71L18.7535,17.37a1.6174,1.6174,0,0,1,1.1942-1.9508s3.8734-1.0686,5.4188,3.41a1.7388,1.7388,0,0,1-.9061,2.2024l-.26.2452c-1.0331,1.2294-3.5613,4.6335.1713,9.2105" stroke-width="2"/></g><g id="c"><path d="M64.9936,33.8619a4.39,4.39,0,0,0-4.0888-.4512L57.478,34.7662a2.3907,2.3907,0,0,1-.8818.168h-.7217a2.4039,2.4039,0,0,1-.9-.1758l-1.7582-.712a3.4327,3.4327,0,0,0-3.4283-3.7812H10.3813a3.46,3.46,0,0,0-3.41,4.0518l.458,2.6455a10.3687,10.3687,0,0,0,10.2373,8.6162H42.5181a10.3516,10.3516,0,0,0,8.1488-3.9446l4.3082-.613a2.4392,2.4392,0,0,1,.3379-.0244H56.87a2.3822,2.3822,0,0,1,.8907.1718l3.1269,1.253a4.3983,4.3983,0,0,0,6.0322-4.0821v-.8408A4.3919,4.3919,0,0,0,64.9936,33.8619Z" fill="#d22f27"/><path d="m44.856 31.265s-1.7052 12.762-10.546 13.33h8.3079s6.0706-0.5684 7.5019-4.2946c0 0 4.7578-8.0359 0-9.0356z" fill="#781e32"/><path d="m43.754 13.624a2.3645 2.3645 0 0 1-1.0326-1.4906h-7e-4a2.38 2.38 0 0 1 1.6594-2.775l7.7628-2.2441a2.9452 2.9452 0 0 1 2.3205 0.3013 2.9955 2.9955 0 0 1 1.3609 1.9 2.9328 2.9328 0 0 1-2.4513 3.52l-7.9994 1.1444a2.36 2.36 0 0 1-1.6196-0.356z" fill="#a57939"/><path d="M30.0718,61.9039a7.3914,7.3914,0,0,1-4.82-1.8282,5.4648,5.4648,0,0,1-1.5655-4.0566.9987.9987,0,0,1,.3018-.7158,1.1068,1.1068,0,0,1,.7226-.2842,13.3909,13.3909,0,0,1,2.8907.4063c.541-1.3164,1.2646-2.65,2.07-3.0157a1.0011,1.0011,0,0,1,1.0185.1153,5.2224,5.2224,0,0,1,1.6182,2.749,6.1989,6.1989,0,0,1,3.4551-.22,1,1,0,0,1,.7187,1.1562c-.3838,1.9688-2.2148,5.69-6.3925,5.6934Z" fill="#fcea2b"/><path d="M26.352,18.4737l-.6909-2.7619a2.63,2.63,0,0,0-3.19-1.9146l-2.7625.6909a2.634,2.634,0,0,0-1.9146,3.1906l.6908,2.763a2.63,2.63,0,0,0,3.19,1.9135l2.7624-.6908A2.6343,2.6343,0,0,0,26.352,18.4737Z" fill="#6a462f"/><path d="M47.5545,29.2651H24.8555c-2.7145-4.08-.4833-6.2713-.4833-6.2713,7.8487-6.8949-7.5854-12.749-6.77-5.1631,2.5134,6.8143,1.3876,9.9759.962,11.4344H12.825a1,1,0,0,0,0,2h34.73a1,1,0,0,0,0-2Z" fill="#fcea2b"/></g><g id="d" fill="none" stroke="#000" stroke-linecap="round" stroke-linejoin="round" stroke-width="2"><path d="m10.381 31.265h39.406a2.4611 2.4611 0 0 1 2.4273 2.8676l-0.4369 2.6079a9.39 9.39 0 0 1-9.26 7.8382h-24.852a9.39 9.39 0 0 1-9.2518-7.787l-0.4582-2.6457a2.461 2.461 0 0 1 2.425-2.881z"/><path d="M52.123,34.6824l2.4762,1.003a3.3974,3.3974,0,0,0,1.2753.2485h.722a3.3966,3.3966,0,0,0,1.25-.2382L61.2729,34.34A3.397,3.397,0,0,1,65.92,37.4987v.84a3.3969,3.3969,0,0,1-4.66,3.1535L58.1323,40.24a3.398,3.398,0,0,0-1.263-.2435H55.3132a3.394,3.394,0,0,0-.4788.0339l-4.7151.6713"/><path d="m43.523 11.961a1.55 1.55 0 0 1 1.0848-1.8147l7.7625-2.2437a2.113 2.113 0 0 1 2.6529 1.5857 2.1131 2.1131 0 0 1-1.7663 2.5358l-7.999 1.1454a1.55 1.55 0 0 1-1.7349-1.2085z"/><polyline points="19.585 58.005 20.991 47.567 39.178 47.567 40.585 58.005"/><path d="m15.67 58.991a1.9132 1.9132 0 0 0 1.9132 1.9132h25.003a1.9132 1.9132 0 0 0 1.9132-1.9132"/><path d="m30.085 60.904s-5.3988 0.0728-5.3988-4.8855a10.46 10.46 0 0 1 3.4967 0.6831s1.077-3.0067 1.9021-3.381a4.9823 4.9823 0 0 1 1.4789 3.3382 6.3564 6.3564 0 0 1 3.9374-0.64s-0.9539 4.8852-5.4163 4.8852z"/></g></svg>
