<svg xmlns="http://www.w3.org/2000/svg" id="a" viewBox="0 0 72 72"><g id="b"><path fill="#fcea2b" d="m43.5 39.337a49.359 49.359 0 0 1 2.1921 12.593 3.5779 3.5779 0 0 1-2.9713 3.6183 41.775 41.775 0 0 1-13.442 0.0317 3.5806 3.5806 0 0 1-2.9713-3.6183 53.125 53.125 0 0 1 1.93-12.057l0.2621-7.0247a49.364 49.364 0 0 1-2.1924-12.593 3.5779 3.5779 0 0 1 2.9713-3.6183 41.775 41.775 0 0 1 13.442-0.0317 3.5806 3.5806 0 0 1 2.9713 3.6183 51.989 51.989 0 0 1-2.2592 13.145z"/><path fill="#f1b31c" d="m38.53 16.169a73.966 73.966 0 0 1-2.53 18.689l2.9519 0.6275 4.4807-2.0854 2.0733-10.495v-4.6l-3.3634-1.94z"/><path fill="#f1b31c" d="m37.156 37.951a43.66 43.66 0 0 1 2.3964 18.158l4.2647-0.7867 1.8751-3.3917-2.1921-12.593z"/><rect width="19.387" height="3.107" x="26.306" y="34.555" fill="#b1cc33" rx="1.553" transform="rotate(192.33 36 36.108)"/><rect width="19.387" height="3.107" x="26.306" y="34.84" fill="#b1cc33" rx="1.553" transform="rotate(-12.328 35.997 36.391)"/></g><g id="c" fill="none" stroke="#000" stroke-linecap="round" stroke-linejoin="round" stroke-width="2"><path d="m28.5 32.88a49.364 49.364 0 0 1-2.1924-12.593 3.5779 3.5779 0 0 1 2.9713-3.6183 41.775 41.775 0 0 1 13.442-0.0317 3.5806 3.5806 0 0 1 2.9713 3.6183 51.989 51.989 0 0 1-2.2592 13.145"/><rect width="19.387" height="3.107" x="26.306" y="34.555" rx="1.553" transform="matrix(-.976 -.213 .213 -.976 63.461 79.069)"/><path d="m37.156 37.951-8.7769 1.918a1.5579 1.5579 0 0 1-1.849-1.1859 1.5579 1.5579 0 0 1 1.1859-1.8491l2.1641-0.4729"/><path d="m37.308 34.738 6.313-1.38a1.5578 1.5578 0 0 1 1.849 1.1864 1.5577 1.5577 0 0 1-1.1859 1.849"/><path d="m31.285 21.06a55.141 55.141 0 0 0 2.3261 12.936"/><path d="m39.374 21.06a43.65 43.65 0 0 1-0.8446 6.7476"/><path d="m43.5 39.337a49.359 49.359 0 0 1 2.1921 12.593 3.5779 3.5779 0 0 1-2.9713 3.6183 41.775 41.775 0 0 1-13.442 0.0317 3.5806 3.5806 0 0 1-2.9713-3.6183 53.125 53.125 0 0 1 1.93-12.057"/><path d="m40.715 51.157a55.143 55.143 0 0 0-2.3261-12.937"/><path d="m32.626 51.157a43.65 43.65 0 0 1 0.8446-6.7476"/></g></svg>