<svg xmlns="http://www.w3.org/2000/svg" id="a" viewBox="0 0 72 72"><g id="b"><rect width="34" height="26" x="19" y="30" fill="none" stroke="#000" stroke-width="2" rx="5"/></g><g id="c"><path fill="#fff" fill-rule="evenodd" d="m19 19c-0.5523 0-1 0.4477-1 1v2.5c0 1.3836-0.2295 2.3394-0.5429 3.064-0.3156 0.7301-0.7389 1.2807-1.222 1.8544-0.0649 0.077-0.1322 0.1558-0.2012 0.2367l-2e-4 2e-4c-0.4236 0.4962-0.91 1.0661-1.2843 1.7444-0.4581 0.8304-0.7494 1.8095-0.7494 3.1003v18.5c0 5.5228 4.4772 10 10 10h24c5.5228 0 10-4.4772 10-10v-18.5c0-1.2908-0.2913-2.2699-0.7494-3.1003-0.3743-0.6783-0.8607-1.2482-1.2843-1.7444-0.069-0.0809-0.1364-0.1598-0.2014-0.2369-0.4831-0.5737-0.9064-1.1243-1.222-1.8544-0.3134-0.7246-0.5429-1.6804-0.5429-3.064v-2.5c0-0.5523-0.4477-1-1-1h-34z" clip-rule="evenodd"/><path fill="#8967AA" fill-rule="evenodd" d="m24 29h24c3.3137 0 6 2.6863 6 6v16c0 3.3137-2.6863 6-6 6h-24c-3.3137 0-6-2.6863-6-6v-16c0-3.3137 2.6863-6 6-6z" clip-rule="evenodd"/><path fill="#B399C8" fill-rule="evenodd" d="m24 57h17c3.3137 0 6-2.6863 6-6v-16c0-3.3137-2.6863-6-6-6h-17c-3.3137 0-6 2.6863-6 6v16c0 3.3137 2.6863 6 6 6z" clip-rule="evenodd"/><path fill="none" stroke="#fff" stroke-linecap="round" stroke-linejoin="round" stroke-width="2" d="m24 51v-18.175c0-4.4211 2-3.9299 2-9.8246"/><path fill="#D0CFCE" d="m54 12h-36c-0.5523 0-1 0.4477-1 1v6c0 0.5523 0.4477 1 1 1h36c0.5523 0 1-0.4477 1-1v-6c0-0.5523-0.4477-1-1-1z"/></g><g id="d" fill="none" stroke="#000" stroke-linecap="round" stroke-linejoin="round" stroke-width="2"><path d="m36 60h12c4.9706 0 9-4.0294 9-9v-18.5c0-4.5-4-4-4-10"/><path d="m36 60h-12c-4.9706 0-9-4.0294-9-9v-18.5c0-4.5 4-4 4-10"/><path d="m54 12h-36c-0.5523 0-1 0.4477-1 1v6c0 0.5523 0.4477 1 1 1h36c0.5523 0 1-0.4477 1-1v-6c0-0.5523-0.4477-1-1-1z"/></g></svg>