<svg xmlns="http://www.w3.org/2000/svg" id="a" viewBox="0 0 72 72"><g id="b" fill="none" stroke="#000" stroke-linecap="round" stroke-linejoin="round"><path stroke-width="4" d="m40 47.091c0.243-0.4392 0.5461-0.8404 0.8984-1.1926 0.3522-0.3523 0.7534-0.6554 1.1926-0.8984"/><path stroke-width="3" d="m48.5 25.5c0.1162-0.21 0.2612-0.4019 0.4296-0.5704 0.1685-0.1684 0.3604-0.3134 0.5704-0.4296"/><path stroke-width="4" d="m18 21.346c0.3888-0.7027 0.8738-1.3447 1.4374-1.9082 0.5635-0.5636 1.2055-1.0486 1.9082-1.4374"/></g><g id="c"><path fill="#92D3F5" d="m24.5 39c7.4558 0 13.5-6.0442 13.5-13.5s-6.0442-13.5-13.5-13.5-13.5 6.0442-13.5 13.5 6.0442 13.5 13.5 13.5z"/><path fill="#92D3F5" d="m51.299 35.7c4.3591 0 7.8929-3.5337 7.8929-7.8929 0-4.3591-3.5338-7.8929-7.8929-7.8929-4.3592 0-7.8929 3.5338-7.8929 7.8929 0 4.3592 3.5337 7.8929 7.8929 7.8929z"/><path fill="#92D3F5" d="m44 60c5.5228 0 10-4.4772 10-10s-4.4772-10-10-10-10 4.4772-10 10 4.4772 10 10 10z"/><path fill="none" stroke="#61B2E4" stroke-linecap="round" stroke-linejoin="round" stroke-width="10" d="m32 25.5c0 3.5899-2.9101 6.5-6.5 6.5"/><path fill="none" stroke="#61B2E4" stroke-linecap="round" stroke-linejoin="round" stroke-width="6" d="m50 50c0 2.7614-2.2386 5-5 5"/><path fill="none" stroke="#61B2E4" stroke-linecap="round" stroke-linejoin="round" stroke-width="5" d="m55.5 28.5c0 1.6569-1.3431 3-3 3"/><path fill="none" stroke="#fff" stroke-linecap="round" stroke-linejoin="round" stroke-width="4" d="m40 47.091c0.243-0.4392 0.5461-0.8404 0.8984-1.1926 0.3522-0.3523 0.7534-0.6554 1.1926-0.8984"/><path fill="none" stroke="#fff" stroke-linecap="round" stroke-linejoin="round" stroke-width="3" d="m48.5 25.5c0.1162-0.21 0.2612-0.4019 0.4296-0.5704 0.1685-0.1684 0.3604-0.3134 0.5704-0.4296"/><path fill="none" stroke="#fff" stroke-linecap="round" stroke-linejoin="round" stroke-width="4" d="m18 21.346c0.3888-0.7027 0.8738-1.3447 1.4374-1.9082 0.5635-0.5636 1.2055-1.0486 1.9082-1.4374"/></g><g id="d" fill="none" stroke="#000" stroke-linecap="round" stroke-linejoin="round" stroke-width="2"><path d="m25.5 39c7.4558 0 13.5-6.0442 13.5-13.5s-6.0442-13.5-13.5-13.5-13.5 6.0442-13.5 13.5 6.0442 13.5 13.5 13.5z"/><path d="m52 36c4.4183 0 8-3.5817 8-8s-3.5817-8-8-8-8 3.5817-8 8 3.5817 8 8 8z"/><path d="m45 60c5.5228 0 10-4.4772 10-10s-4.4772-10-10-10-10 4.4772-10 10 4.4772 10 10 10z"/><path d="m45 60c5.5228 0 10-4.4772 10-10s-4.4772-10-10-10-10 4.4772-10 10 4.4772 10 10 10z"/></g></svg>