<svg xmlns="http://www.w3.org/2000/svg" id="a" viewBox="0 0 72 72"><g id="b"><rect width="45" height="11" x="17" y="33" fill="#fff"/><path fill="#D22F27" d="m23.5 36.5h-3.5l-5.5 1.5-6.5-0.5c10 9.5 32 18 42.5 17.5s13.5-18 13.5-18c-3.8333 2-12.6 6-17 6s-10.167-3.6667-12.5-5.5h-11v-1z"/><path fill="#D22F27" fill-rule="evenodd" d="m36.25 23.997c-1.6946-0.036-2.8342-0.4355-3.6488-0.8767-0.4344-0.2353-0.7933-0.4917-1.1148-0.7401-0.0833-0.0644-0.173-0.1357-0.2654-0.2091-0.2236-0.1777-0.463-0.368-0.6663-0.5036-0.1643-0.1095-0.3573-0.1679-0.5547-0.1679-5.2896 0-10.744 2.4976-14.963 5.5663-2.1203 1.542-3.9644 3.2534-5.3519 4.9185-1.3622 1.6346-2.3586 3.3129-2.6616 4.8-0.01981 0.0895-0.02686 0.1796-0.0221 0.2682 0.01596 0.2969 0.16444 0.5767 0.40933 0.7551 0.07152 0.0522 0.15072 0.0954 0.23627 0.1276 0.97374 0.3851 3.5557 1.0643 6.8533 1.0643 1.2214 0 2.2572-0.3876 3.3148-0.8721 0.3299-0.1511 0.6596-0.3101 1.0023-0.4755 0.7886-0.3805 1.6464-0.7944 2.7355-1.2214 3.0522-1.197 7.8002-2.431 16.447-2.431 5.9042 0 12.33 0.9859 17.304 1.9806 2.4816 0.4963 4.5909 0.9926 6.0786 1.3645 0.7437 0.186 1.3316 0.3407 1.7326 0.4486 0.2005 0.054 0.3541 0.0963 0.4572 0.1249l0.116 0.0324 0.02 0.0057c0.0804 0.0246 0.1646 0.0392 0.2508 0.0427 0.1217 0.0051 0.2413-0.0123 0.3535-0.0494 0.2683-0.0885 0.4949-0.2891 0.6094-0.5625 0.0457-0.1084 0.0726-0.2256 0.0775-0.3467 0.0036-0.0877-0.0044-0.1744-0.0231-0.2581-0.3009-1.4749-1.2561-3.1474-2.572-4.7843-1.3392-1.6659-3.1203-3.3791-5.1793-4.9234-4.0983-3.0737-9.4308-5.575-14.725-5.575-0.1975 0-0.3905 0.0584-0.5547 0.1679-0.2033 0.1356-0.4427 0.3258-0.6663 0.5035-0.0922 0.0733-0.1823 0.145-0.2655 0.2092-0.3215 0.2484-0.6804 0.5048-1.1148 0.7401-0.8145 0.4412-1.9542 0.8407-3.6487 0.8767z" clip-rule="evenodd"/><path fill="none" stroke="#EA5A47" stroke-linecap="round" stroke-width="2" d="m22 41c11 0 14.5 7.5 25.5 7.5"/><path fill="none" stroke="#D22F27" stroke-linecap="round" stroke-width="2" d="M64 37C64 42.5 61 55 50.5 55C24 55 8 37 8 37"/><path fill="none" stroke="#D22F27" stroke-linecap="round" stroke-width="2" d="m33 37.5c4 0 7.5 6 15.5 5.5 6.4-0.4 13-4 15.5-6"/></g><g id="c"><path fill="none" stroke="#000" stroke-linecap="round" stroke-width="2" d="m64 37c0 5.5-3 18-13.5 18-18.718 0-32.198-8.9805-38.5-14.255"/><path fill="none" stroke="#000" stroke-linecap="round" stroke-width="2" d="m64 37c-2.5 2-9.1 5.6-15.5 6-4.4055 0.2753-7.4463-1.4205-9.9575-3"/><path fill="none" stroke="#000" stroke-linecap="round" stroke-width="2" d="m8 37c0.83333 0.3333 3.3 1 6.5 1 4 0 6-5 23.5-5 12 0 26 4 26 4"/><path d="m7.0194 36.804c-0.10831 0.5415 0.2429 1.0684 0.78446 1.1767s1.0684-0.2429 1.1767-0.7845l-1.9612-0.3922zm22.981-14.304 0.5547-0.8321c-0.1643-0.1095-0.3573-0.1679-0.5547-0.1679v1zm6.5 3.5c0.5523 0 1-0.4477 1-1s-0.4477-1-1-1v2zm-27.519 11.196c0.20163-1.0081 0.9525-2.385 2.2407-3.9309 1.2687-1.5224 2.9872-3.1235 4.9919-4.5815 4.0306-2.9313 9.0764-5.1837 13.787-5.1837v-2c-5.2896 0-10.744 2.4976-14.963 5.5663-2.1203 1.542-3.9643 3.2534-5.3519 4.9185-1.368 1.6416-2.3671 3.3272-2.6655 4.8191l1.9612 0.3922zm20.465-13.864c0.2127 0.1418 0.4158 0.3201 0.8183 0.6311 0.366 0.2828 0.8195 0.6097 1.3851 0.9161 1.1461 0.6208 2.6847 1.1207 4.8513 1.1207v-2c-1.8334 0-3.0448-0.4167-3.8987-0.8793-0.4344-0.2353-0.7934-0.4917-1.1149-0.7401-0.285-0.2203-0.6444-0.5211-0.9317-0.7127l-1.1094 1.6642z"/><path d="m64.981 36.804c0.1083 0.5415-0.2429 1.0684-0.7845 1.1767-0.5415 0.1083-1.0684-0.2429-1.1767-0.7845l1.9612-0.3922zm-22.481-14.304-0.5547-0.8321c0.1643-0.1095 0.3573-0.1679 0.5547-0.1679v1zm-6.5 3.5c-0.5523 0-1-0.4477-1-1s0.4477-1 1-1v2zm27.019 11.196c-0.204-1.0199-0.9335-2.4017-2.1738-3.9445-1.2232-1.5216-2.8797-3.1209-4.8206-4.5766-3.9017-2.9263-8.8192-5.175-13.525-5.175v-2c5.2942 0 10.627 2.5013 14.725 5.575 2.0591 1.5443 3.8401 3.2575 5.1794 4.9234 1.3222 1.6447 2.2802 3.3254 2.5762 4.8055l-1.9612 0.3922zm-19.965-13.864c-0.2127 0.1418-0.4158 0.3201-0.8183 0.6311-0.366 0.2828-0.8195 0.6097-1.3851 0.9161-1.1461 0.6208-2.6847 1.1207-4.8513 1.1207v-2c1.8334 0 3.0448-0.4167 3.8987-0.8793 0.4344-0.2353 0.7934-0.4917 1.1149-0.7401 0.285-0.2203 0.6444-0.5211 0.9317-0.7127l1.1094 1.6642z"/><path fill="none" stroke="#000" stroke-linecap="round" stroke-width="2" d="m28 36c0 0.5 0.3 1.5 1.5 1.5h5c0.5 0 1.5-0.3 1.5-1.5"/><path fill="none" stroke="#000" stroke-linecap="round" stroke-width="2" d="m36 36c0 0.5 0.3 1.5 1.5 1.5h5c0.5 0 1.5-0.3 1.5-1.5"/><path fill="none" stroke="#000" stroke-linecap="round" stroke-width="2" d="m44 36c0 0.5 0.3 1.5 1.5 1.5h5"/><path fill="none" stroke="#000" stroke-linecap="round" stroke-width="2" d="m28 36c0 0.5-0.3 1.5-1.5 1.5h-3.5"/></g></svg>