<svg xmlns="http://www.w3.org/2000/svg" id="a" viewBox="0 0 72 72"><g id="b"><path fill="#fadcbc" d="m16.145 42.671c-1.9293-0.2841-3.7236 1.0496-4.0077 2.9789s1.0496 3.7236 2.9789 4.0077c0.3094 0.0456 0.6235 0.0498 0.9341 0.0126l18.998 0.2571 4.3248-0.0217-12.999-0.1757c-1.9293-0.2841-3.7236 1.0496-4.0077 2.9789s1.0496 3.7236 2.9789 4.0077c0.3094 0.0456 0.6235 0.0498 0.9341 0.0126l12.999 0.176 10.085-0.0526c8.31-0.4248 13.629-7.7519 13.205-16.06-0.2654-4.7918-2.2781-9.32-5.6572-12.728-3.09-2.9178-14.128-12.287-14.128-12.287-1.271-0.8724-2.9761-0.751-4.1107 0.2926-1.2945 1.2114-1.4189 3.2225-0.2835 4.5842l6.9657 8.0009-5.4 0.0389 5.4-0.0389-5.4 0.0389-21.85-0.0395c-1.9293-0.2841-3.7236 1.0496-4.0077 2.9789s1.0496 3.7236 2.9789 4.0077c0.3094 0.0456 0.6235 0.0498 0.9341 0.0126l6.9994 0.0947 10.636 0.1861-22.193-0.3671c-1.9293-0.2841-3.7236 1.0496-4.0077 2.9789s1.0496 3.7236 2.9789 4.0077c0.3094 0.0456 0.6235 0.0498 0.9341 0.0126l24.016 0.2064"/></g><g id="c"><path fill="none" stroke="#000" stroke-linecap="round" stroke-linejoin="round" stroke-width="2" d="m16.145 42.671c-1.9293-0.2841-3.7236 1.0496-4.0077 2.9789s1.0496 3.7236 2.9789 4.0077c0.3094 0.0456 0.6235 0.0498 0.9341 0.0126l18.998 0.2571 0.9512-0.0048-9.6252-0.1926c-1.9293-0.2841-3.7236 1.0496-4.0077 2.9789s1.0496 3.7236 2.9789 4.0077c0.3094 0.0456 0.6235 0.0498 0.9341 0.0126l12.999 0.176 10.085-0.0526c8.31-0.4248 13.629-7.7519 13.205-16.06-0.2654-4.7918-2.2781-9.32-5.6572-12.728-3.09-2.9178-13.816-12.281-13.816-12.281-1.4091-1.0107-3.3356-0.8867-4.6036 0.2962-1.1904 1.177-1.3134 3.0579-0.2865 4.38l7.15 8.1952-5.4 0.0389 5.4-0.0389-5.4 0.0389-21.85-0.0395c-1.9293-0.2841-3.7236 1.0496-4.0077 2.9789s1.0496 3.7236 2.9789 4.0077c0.3094 0.0456 0.6235 0.0498 0.9341 0.0126l6.9994 0.0947 10.636 0.1861-22.193-0.3671c-1.9293-0.2841-3.7236 1.0496-4.0077 2.9789s1.0496 3.7236 2.9789 4.0077c0.3094 0.0456 0.6235 0.0498 0.9341 0.0126l20.454 0.1758"/></g></svg>