<svg xmlns="http://www.w3.org/2000/svg" id="a" viewBox="0 0 72 72"><g id="b"><circle cx="39.866" cy="46.247" r="3.866" fill="#fcea2b"/></g><g id="c" fill="#fcea2b"><path d="m31.209 13.943c0.6705-3.2503 4.0434-6.6603 6.857-6.6603 1.6504 0 2.3534 0.6565 2.3534 2.0065 0 7.0439 0.9289 9.4563 3.4356 15.119l4.6067 9.1357-17.321-16.158 0.068-3.4431z"/><path d="m33.742 32.088c-1.6066-1.6066-4.2115-1.6066-5.8182 0s-1.6066 4.2115 0 5.8182l1.4969 1.4387c-1.6066-1.6066-4.2115-1.6066-5.8182 0s-1.6066 4.2115 0 5.8182l1.4545 1.4545c-1.6066-1.6066-4.2115-1.6066-5.8182 0s-1.6066 4.2115 0 5.8182l6.7966 6.7757c6.4264 6.4264 16.846 6.4264 23.272 0s6.3817-16.801-0.0447-23.227l-5.982-5.982-18.37-18.37c-1.6049-1.6049-4.207-1.6049-5.8119 0s-1.6049 4.207 0 5.8119l14.644 14.644"/></g><g id="d" fill="none" stroke="#000" stroke-linecap="round" stroke-linejoin="round" stroke-width="2"><path d="m33.742 32.088c-1.6066-1.6066-4.2115-1.6066-5.8182 0s-1.6066 4.2115 0 5.8182l1.4969 1.4387c-1.6066-1.6066-4.2115-1.6066-5.8182 0s-1.6066 4.2115 0 5.8182l1.4545 1.4545c-1.6066-1.6066-4.2115-1.6066-5.8182 0s-1.6066 4.2115 0 5.8182l6.7966 6.7757c6.4264 6.4264 16.846 6.4264 23.272 0s6.3817-16.801-0.0447-23.227l-5.982-5.982-18.37-18.37c-1.6049-1.6049-4.207-1.6049-5.8119 0s-1.6049 4.207 0 5.8119l14.644 14.644"/><path d="m32.2 13.646c0-3.688 3.0522-6.3632 5.8659-6.3632 1.6504 0 2.3534 0.6565 2.3534 2.0065 0 6.8778 0.2017 10.101 2.5447 15.52"/></g></svg>