<?xml version="1.0" encoding="UTF-8"?>
<svg id="a" viewBox="0 0 72 72" xmlns="http://www.w3.org/2000/svg"><g id="b" fill="#d22f27"><ellipse cx="26.669" cy="59.436" rx="3" ry="3.0228"/><path d="m26.569 49.964a2.4852 2.4852 0 0 1-2.5-2.519v-35.468a2.5 2.5 0 1 1 5 0v35.468a2.4852 2.4852 0 0 1-2.5 2.519z"/><ellipse cx="45.331" cy="59.436" rx="3" ry="3.0228"/><path d="m45.231 49.964a2.4852 2.4852 0 0 1-2.5-2.519v-35.468a2.5 2.5 0 1 1 5 0v35.468a2.4852 2.4852 0 0 1-2.5 2.519z"/></g><g id="c" fill="none" stroke="#000" stroke-linecap="round" stroke-linejoin="round" stroke-width="2"><ellipse cx="26.669" cy="60.081" rx="3" ry="3.0228"/><ellipse cx="45.331" cy="60.081" rx="3" ry="3.0228"/><path d="m26.669 49.964a2.4852 2.4852 0 0 1-2.5-2.519v-35.468a2.5 2.5 0 1 1 5 0v35.468a2.4852 2.4852 0 0 1-2.5 2.519z"/><path d="m45.331 49.964a2.4852 2.4852 0 0 1-2.5-2.519v-35.468a2.5 2.5 0 1 1 5 0v35.468a2.4852 2.4852 0 0 1-2.5 2.519z"/></g></svg>
