<svg xmlns="http://www.w3.org/2000/svg" id="a" viewBox="0 0 72 72"><g id="b"><path fill="#3F3F3F" d="m38.655 12.841h-15.921v3.4189h15.921c7.3628 0 16.14 3.214 16.14 18.526 0 11.607-5.3478 17.492-15.896 17.492h-17.825l5.5427-5.0903-2.0293-2.21-9.8013 9.0097 9.8013 8.9927 2.0293-2.209-5.5248-5.0743h17.807c12.455 0 19.315-7.4262 19.315-20.911 1e-4 -13.946-7.1289-21.945-19.558-21.945z"/></g><g id="c"><path d="m38.655 10.841h-15.92c-1.1045 0-2 0.8955-2 2v3.4189c0 1.1045 0.8955 2 2 2h15.92c9.3823 0 14.14 5.5601 14.14 16.526 0 10.569-4.4155 15.492-13.896 15.492h-12.69l1.7612-1.6172c0.8135-0.7471 0.8672-2.0122 0.1201-2.8257l-2.0293-2.21c-0.3589-0.3911-0.8584-0.623-1.3887-0.6455-0.5239-0.0239-1.0474 0.1665-1.438 0.5254l-9.8013 9.0098c-0.4121 0.3794-0.647 0.9136-0.6465 1.4736s0.2354 1.0942 0.6479 1.4727l9.8013 8.9922c0.3838 0.3525 0.8682 0.5264 1.3516 0.5264 0.5405 0 1.0791-0.2178 1.4731-0.6465l2.0293-2.209c0.3589-0.3916 0.5479-0.9082 0.5254-1.4385s-0.2544-1.0293-0.645-1.3877l-1.7432-1.6006h12.672c13.545 0 21.314-8.3511 21.314-22.912 1e-4 -14.994-8.059-23.945-21.558-23.945zm0.244 44.856h-17.807l5.5248 5.0743-2.0293 2.209-9.8013-8.9927 9.8013-9.0097 2.0293 2.21-5.5427 5.0903h17.825c10.548 0 15.896-5.8854 15.896-17.492 0-15.312-8.7767-18.526-16.14-18.526h-15.921v-3.4189h15.921c12.429 0 19.558 7.9988 19.558 21.945 1e-4 13.485-6.8594 20.911-19.315 20.911z"/></g></svg>