<svg xmlns="http://www.w3.org/2000/svg" id="a" viewBox="0 0 72 72"><g id="b"><path fill="#3F3F3F" d="m34.345 12.841h15.921v3.4189h-15.921c-7.3628 0-16.14 3.214-16.14 18.526 0 11.607 5.3478 17.492 15.896 17.492h17.825l-5.5427-5.0903 2.0293-2.21 9.8013 9.0097-9.8013 8.9927-2.0293-2.209 5.5248-5.0743h-17.807c-12.455 0-19.315-7.4262-19.315-20.911-1e-4 -13.946 7.1289-21.945 19.558-21.945z"/></g><g id="c"><path d="m12.786 34.787c0 14.56 7.769 22.912 21.314 22.912h12.672l-1.7433 1.6006c-0.3906 0.3584-0.6226 0.8574-0.645 1.3877s0.1665 1.0469 0.5254 1.4385l2.0293 2.209c0.394 0.4287 0.9326 0.6465 1.4731 0.6465 0.4834 0 0.9678-0.1738 1.3516-0.5264l9.8013-8.9922c0.4126-0.3784 0.6475-0.9126 0.6479-1.4727s-0.2344-1.0942-0.6465-1.4736l-9.8013-9.0098c-0.3906-0.3589-0.9141-0.5493-1.438-0.5254-0.5303 0.0225-1.0298 0.2544-1.3887 0.6455l-2.0293 2.21c-0.7471 0.8135-0.6934 2.0786 0.1201 2.8257l1.7612 1.6172h-12.69c-9.48 0-13.896-4.9229-13.896-15.492 0-10.966 4.7573-16.526 14.14-16.526h15.92c1.1045 0 2-0.8955 2-2v-3.4189c0-1.1045-0.8955-2-2-2h-15.92c-13.5 0-21.559 8.9517-21.559 23.945zm1.9999 1e-4c0-13.946 7.129-21.945 19.558-21.945h15.921v3.4189h-15.921c-7.3628 0-16.14 3.214-16.14 18.526 0 11.607 5.3478 17.492 15.896 17.492h17.825l-5.5427-5.0903 2.0293-2.21 9.8013 9.0097-9.8013 8.9927-2.0293-2.209 5.5248-5.0743h-17.807c-12.455 1e-4 -19.315-7.4261-19.315-20.911z"/></g></svg>