<?xml version="1.0" encoding="UTF-8"?>
<svg id="a" viewBox="0 0 72 72" xmlns="http://www.w3.org/2000/svg"><g id="b"><path d="M44.0449,43H27.9561C25.1357,45.584,24,49.665,24,52.3184V59h24v-6.6816 C48,49.665,46.8643,45.584,44.0449,43z" fill="#9B9B9A"/><path d="m55 11c0 1.1001-0.9004 2-2 2h-34c-1.0996 0-2-0.8999-2-2v-1c0-1.1001 0.9004-2 2-2h34c1.0996 0 2 0.8999 2 2v1z" fill="#a57939"/><path d="m55 62c0 1.0996-0.9004 2-2 2h-34c-1.0996 0-2-0.9004-2-2v-1c0-1.0996 0.9004-2 2-2h34c1.0996 0 2 0.9004 2 2v1z" fill="#a57939"/></g><g id="c" fill="none" stroke="#000" stroke-linecap="round" stroke-linejoin="round" stroke-miterlimit="10" stroke-width="2"><path d="m31 34c-7.2725-1.9092-10-9.5454-10-14.318v-6.6816"/><path d="m21 59v-6.6816c0-4.7725 2.7275-12.409 10-14.318"/><path d="m31 38c1-0.2715 2-0.8945 2-2 0-1.1045-1-1.7285-2-2"/><path d="m41 34c7.2725-1.9092 10-9.5454 10-14.318v-6.6816"/><path d="m51 59v-6.6816c0-4.7725-2.7275-12.409-10-14.318"/><path d="m41 38c-1-0.2715-2-0.8945-2-2 0-1.1045 1-1.7285 2-2"/><path d="m55 11c0 1.1001-0.9004 2-2 2h-34c-1.0996 0-2-0.8999-2-2v-1c0-1.1001 0.9004-2 2-2h34c1.0996 0 2 0.8999 2 2v1z"/><path d="m55 62c0 1.0996-0.9004 2-2 2h-34c-1.0996 0-2-0.9004-2-2v-1c0-1.0996 0.9004-2 2-2h34c1.0996 0 2 0.9004 2 2v1z"/><line x1="29" x2="43" y1="43" y2="43"/></g></svg>
