<svg xmlns="http://www.w3.org/2000/svg" id="a" viewBox="0 0 72 72"><g id="b"><path fill="#d0cfce" d="m5 18.09h62v35.82h-62z" transform="translate(0 .408)"/><rect width="3" height="3" x="9" y="25" fill="#9b9b9a" fill-rule="evenodd" stroke="#9b9b9a" stroke-linecap="round" stroke-linejoin="round" stroke-width="2" opacity=".999"/><rect width="3" height="3" x="60" y="25" fill="#9b9b9a" fill-rule="evenodd" stroke="#9b9b9a" stroke-linecap="round" stroke-linejoin="round" stroke-width="2" opacity=".999"/><rect width="3" height="3" x="16.29" y="25" fill="#9b9b9a" fill-rule="evenodd" stroke="#9b9b9a" stroke-linecap="round" stroke-linejoin="round" stroke-width="2" opacity=".999"/><rect width="3" height="3" x="23.57" y="25" fill="#9b9b9a" fill-rule="evenodd" stroke="#9b9b9a" stroke-linecap="round" stroke-linejoin="round" stroke-width="2" opacity=".999"/><rect width="3" height="3" x="30.86" y="25" fill="#9b9b9a" fill-rule="evenodd" stroke="#9b9b9a" stroke-linecap="round" stroke-linejoin="round" stroke-width="2" opacity=".999"/><rect width="3" height="3" x="38.14" y="25" fill="#9b9b9a" fill-rule="evenodd" stroke="#9b9b9a" stroke-linecap="round" stroke-linejoin="round" stroke-width="2" opacity=".999"/><rect width="3" height="3" x="45.43" y="25" fill="#9b9b9a" fill-rule="evenodd" stroke="#9b9b9a" stroke-linecap="round" stroke-linejoin="round" stroke-width="2" opacity=".999"/><rect width="3" height="3" x="52.71" y="25" fill="#9b9b9a" fill-rule="evenodd" stroke="#9b9b9a" stroke-linecap="round" stroke-linejoin="round" stroke-width="2" opacity=".999"/><rect width="3" height="3" x="20.5" y="34.5" fill="#9b9b9a" fill-rule="evenodd" stroke="#9b9b9a" stroke-linecap="round" stroke-linejoin="round" stroke-width="2" opacity=".999"/><rect width="3" height="3" x="48.5" y="34.5" fill="#9b9b9a" fill-rule="evenodd" stroke="#9b9b9a" stroke-linecap="round" stroke-linejoin="round" stroke-width="2" opacity=".999"/><rect width="3" height="3" x="9" y="44" fill="#9b9b9a" fill-rule="evenodd" stroke="#9b9b9a" stroke-linecap="round" stroke-linejoin="round" stroke-width="2" opacity=".999"/><rect width="3" height="3" x="16" y="44" fill="#9b9b9a" fill-rule="evenodd" stroke="#9b9b9a" stroke-linecap="round" stroke-linejoin="round" stroke-width="2" opacity=".999"/><rect width="3" height="3" x="53" y="44" fill="#9b9b9a" fill-rule="evenodd" stroke="#9b9b9a" stroke-linecap="round" stroke-linejoin="round" stroke-width="2" opacity=".999"/><rect width="3" height="3" x="60" y="44" fill="#9b9b9a" fill-rule="evenodd" stroke="#9b9b9a" stroke-linecap="round" stroke-linejoin="round" stroke-width="2" opacity=".999"/><rect width="3" height="3" x="41.5" y="34.5" fill="#9b9b9a" fill-rule="evenodd" stroke="#9b9b9a" stroke-linecap="round" stroke-linejoin="round" stroke-width="2" opacity=".999"/><rect width="3" height="3" x="34.5" y="34.5" fill="#9b9b9a" fill-rule="evenodd" stroke="#9b9b9a" stroke-linecap="round" stroke-linejoin="round" stroke-width="2" opacity=".999"/><rect width="3" height="3" x="27.5" y="34.5" fill="#9b9b9a" fill-rule="evenodd" stroke="#9b9b9a" stroke-linecap="round" stroke-linejoin="round" stroke-width="2" opacity=".999"/><rect width="26.14" height="3" x="22.93" y="44" fill="#9b9b9a" fill-rule="evenodd" stroke="#9b9b9a" stroke-linecap="round" stroke-linejoin="round" stroke-width="2" opacity=".999"/><rect width="7.5" height="3" x="9" y="34.5" fill="#9b9b9a" fill-rule="evenodd" stroke="#9b9b9a" stroke-linecap="round" stroke-linejoin="round" stroke-width="2" opacity=".999"/><rect width="7.5" height="3" x="55.5" y="34.5" fill="#9b9b9a" fill-rule="evenodd" stroke="#9b9b9a" stroke-linecap="round" stroke-linejoin="round" stroke-width="2" opacity=".999"/></g><g id="c" fill="none" stroke="#000" stroke-linecap="round" stroke-linejoin="round" stroke-miterlimit="10" stroke-width="2"><path d="m5 18.5h62v35h-62z"/><path d="m9 47h3v-3"/><path d="m22.93 47h26.14v-3"/><path d="m16 47h3v-3"/><path d="m53 47h3v-3"/><path d="m60 47h3v-3"/><path d="m55.5 37.5h7.5v-3"/><path d="m16.29 28h3v-3"/><path d="m23.57 28h3v-3"/><path d="m30.86 28h3v-3"/><path d="m38.14 28h3v-3"/><path d="m45.43 28h3v-3"/><path d="m52.71 28h3v-3"/><path d="m60 28h3v-3"/><path d="m9 28h3v-3"/><path d="m9 37.5h7.5v-3"/><path d="m48.5 37.5h3v-3"/><path d="m41.5 37.5h3v-3"/><path d="m34.5 37.5h3v-3"/><path d="m27.5 37.5h3v-3"/><path d="m20.5 37.5h3v-3"/></g></svg>