<svg xmlns="http://www.w3.org/2000/svg" id="a" viewBox="0 0 72 72"><g id="b"><line x1="50.258" x2="53.142" y1="55.036" y2="59.864" fill="#fff" stroke-linecap="round" stroke-linejoin="round" stroke-miterlimit="10" stroke-width="2"/><line x1="21.742" x2="18.858" y1="55.036" y2="59.864" fill="#fff" stroke-linecap="round" stroke-linejoin="round" stroke-miterlimit="10" stroke-width="2"/><path fill="#d0cfce" d="m46.186 14.792c2.2534-4.6476 4.2653-4.0842 6.1673-4.3168 1.2869-0.1573 6.4609 3.1641 6.4609 6.5799s-2.2433 4.739-3.5597 5.4867"/><path fill="#d0cfce" d="m25.814 14.792c-2.2533-4.6476-4.2652-4.0842-6.1672-4.3168-1.287-0.1573-6.461 3.1641-6.461 6.5799s2.2433 4.739 3.5597 5.4867"/><circle cx="36" cy="36.294" r="23" fill="#fff" stroke-linecap="round" stroke-linejoin="round" stroke-miterlimit="10" stroke-width="2"/><line x1="36.026" x2="36.026" y1="18.989" y2="35.989" fill="#fff" stroke-linecap="round" stroke-linejoin="round" stroke-miterlimit="10" stroke-width="2"/><line x1="35.974" x2="29.974" y1="35.935" y2="46.327" fill="#fff" stroke-linecap="round" stroke-linejoin="round" stroke-miterlimit="10" stroke-width="2.079"/></g><g id="c" fill="none" stroke="#000" stroke-linecap="round" stroke-linejoin="round" stroke-miterlimit="10"><line x1="50.258" x2="53.142" y1="55.036" y2="59.864" stroke-width="2"/><line x1="21.742" x2="18.858" y1="55.036" y2="59.864" stroke-width="2"/><path stroke-width="2" d="m48.85 12.576c0.9692-0.8502 2.2395-1.3655 3.6301-1.3655 3.0417 0 5.5076 2.4657 5.5076 5.5075 0 1.1088-0.3277 2.1411-0.8914 3.0052"/><path stroke-width="2" d="m23.15 12.576c-0.9693-0.8502-2.2396-1.3655-3.6302-1.3655-3.0417 0-5.5075 2.4657-5.5075 5.5075 0 1.1088 0.3276 2.1411 0.8914 3.0052"/><circle cx="36" cy="36.294" r="23" stroke-width="2"/><line x1="36.026" x2="36.026" y1="18.989" y2="35.989" stroke-width="2"/><line x1="35.974" x2="29.974" y1="35.935" y2="46.327" stroke-width="2.079"/></g></svg>