<?xml version="1.0" encoding="UTF-8"?>
<svg id="a" viewBox="0 0 72 72" xmlns="http://www.w3.org/2000/svg"><g id="b"><polyline points="53.756 19.737 58.342 16.187 61.402 20.141 57.149 23.432" fill="#d0cfce" stroke="#d0cfce" stroke-linecap="round" stroke-linejoin="round" stroke-miterlimit="10" stroke-width="2"/><rect x="31.313" y="7" width="11.008" height="6.2941" fill="#d0cfce"/><circle cx="36.821" cy="36.294" r="23" fill="#fff" stroke-linecap="round" stroke-linejoin="round" stroke-miterlimit="10" stroke-width="2"/></g><g id="c"><circle cx="36.821" cy="36.294" r="23" fill="none" stroke="#000" stroke-linecap="round" stroke-linejoin="round" stroke-miterlimit="10" stroke-width="2"/><polyline points="56.366 17.717 58.342 16.187 61.402 20.141 59.57 21.559" fill="none" stroke="#000" stroke-linecap="round" stroke-linejoin="round" stroke-miterlimit="10" stroke-width="2"/><polyline points="32.321 9.7271 32.321 7 41.321 7 41.321 9.8931" fill="none" stroke="#000" stroke-linecap="round" stroke-linejoin="round" stroke-miterlimit="10" stroke-width="2"/><circle cx="36.348" cy="16.982" r="1"/><circle cx="36.348" cy="55.024" r="1"/><ellipse transform="matrix(.7071 -.7071 .7071 .7071 -1.3619 41.818)" cx="49.798" cy="22.553" rx=".9878" ry="1.0121"/><ellipse transform="matrix(.7071 -.7071 .7071 .7071 -28.262 30.675)" cx="22.898" cy="49.453" rx=".9878" ry="1.0121"/><circle cx="55.369" cy="36.003" r="1"/><circle cx="17.326" cy="36.003" r="1"/><line x1="36.84" x2="21.44" y1="35.91" y2="35.91" stroke="#000" stroke-linecap="round" stroke-linejoin="round" stroke-miterlimit="10" stroke-width="2"/><line x1="36.885" x2="25.995" y1="35.925" y2="46.815" stroke="#000" stroke-linecap="round" stroke-linejoin="round" stroke-miterlimit="10" stroke-width="2"/><ellipse transform="matrix(.7071 -.7071 .7071 .7071 -20.383 49.696)" cx="49.798" cy="49.453" rx="1.0121" ry=".9878"/><ellipse transform="matrix(.7071 -.7071 .7071 .7071 -9.2407 22.796)" cx="22.898" cy="22.553" rx="1.0121" ry=".9878"/></g></svg>
