<?xml version="1.0" encoding="UTF-8"?>
<svg id="a" viewBox="0 0 72 72" xmlns="http://www.w3.org/2000/svg"><g id="b" stroke-linecap="round" stroke-linejoin="round" stroke-miterlimit="10"><path d="m12.605 57.682v-23c0-12.702 10.298-23 23-23s23 10.298 23 23v23h-46z" fill="#9b9b9a" stroke-width="2"/><circle cx="35.605" cy="34.682" r="15" fill="#d0cfce" stroke-width="2"/><circle cx="35.605" cy="34.682" r="15" fill="#fff" stroke-width="2"/><line x1="35.417" x2="28.605" y1="35.088" y2="35.088" fill="#fff" stroke-width="1.7585"/></g><g id="c"><path d="m12.605 57.682v-23c0-12.702 10.298-23 23-23s23 10.298 23 23v23h-46z" fill="none" stroke="#000" stroke-linecap="round" stroke-linejoin="round" stroke-miterlimit="10" stroke-width="2"/><circle cx="35.605" cy="34.682" r="15" fill="none" stroke="#000" stroke-linecap="round" stroke-linejoin="round" stroke-miterlimit="10" stroke-width="2"/><circle cx="35.605" cy="34.682" r="15" fill="none" stroke="#000" stroke-linecap="round" stroke-linejoin="round" stroke-miterlimit="10" stroke-width="2"/><path d="m12.605 57.682v-23c0-12.702 10.298-23 23-23s23 10.298 23 23v23h-46z" fill="none" stroke="#000" stroke-linecap="round" stroke-linejoin="round" stroke-miterlimit="10" stroke-width="2"/><circle cx="35.605" cy="34.682" r="15" fill="none" stroke="#000" stroke-linecap="round" stroke-linejoin="round" stroke-miterlimit="10" stroke-width="2"/><line x1="35.417" x2="28.605" y1="35.088" y2="35.088" fill="none" stroke="#000" stroke-linecap="round" stroke-linejoin="round" stroke-miterlimit="10" stroke-width="1.7585"/><circle cx="24.407" cy="34.988" r="1"/><circle cx="46.678" cy="34.988" r="1"/><ellipse transform="matrix(.7071 -.7071 .7071 .7071 -22.204 32.118)" cx="27.668" cy="42.862" rx="1" ry="1"/><ellipse transform="matrix(.7071 -.7071 .7071 .7071 -6.456 38.642)" cx="43.416" cy="27.114" rx="1" ry="1"/><circle cx="35.542" cy="46.123" r="1"/><circle cx="35.542" cy="23.852" r="1"/><ellipse transform="matrix(.7071 -.7071 .7071 .7071 -17.592 43.254)" cx="43.416" cy="42.862" rx="1" ry="1"/><ellipse transform="matrix(.7071 -.7071 .7071 .7071 -11.068 27.506)" cx="27.668" cy="27.114" rx="1" ry="1"/></g></svg>
