<?xml version="1.0" encoding="UTF-8"?>
<svg id="a" viewBox="0 0 72 72" xmlns="http://www.w3.org/2000/svg"><g id="b"><path d="m40.214 31.106c0.0039-2e-3 0.0068-2e-3 0.0107-2e-3 0.0049-0.0019 0.0088-0.0039 0.0137-0.0058 5.6543-1.4844 7.7617-7.7901 7.7617-11.416v-1.6816h-24v1.6816c0 3.626 2.1074 9.9317 7.7617 11.416 0.0049 0.0019 0.0088 0.0039 0.0137 0.0058 0.0039 0 0.0068 0 0.0107 2e-3 1.792 0.4863 3.0996 1.5361 3.7491 2.8945h0.9296c0.6495-1.3584 1.9571-2.4082 3.7491-2.8945z" fill="#9B9B9A"/><path d="m47 55c-6.0742 0-11-4.9258-11-11 0 6.0742-4.9258 11-11 11h-1v4h24v-4h-1z" fill="#9B9B9A"/><path d="m55 11c0 1.1001-0.9004 2-2 2h-34c-1.0996 0-2-0.8999-2-2v-1c0-1.1001 0.9004-2 2-2h34c1.0996 0 2 0.8999 2 2v1z" fill="#a57939"/><path d="m55 62c0 1.0996-0.9004 2-2 2h-34c-1.0996 0-2-0.9004-2-2v-1c0-1.0996 0.9004-2 2-2h34c1.0996 0 2 0.9004 2 2v1z" fill="#a57939"/><line x1="36" x2="36" y1="39" y2="44" fill="#fff" stroke-linecap="round" stroke-linejoin="round" stroke-miterlimit="10" stroke-width="2"/></g><g id="c" fill="none" stroke="#000" stroke-linecap="round" stroke-linejoin="round" stroke-miterlimit="10" stroke-width="2"><path d="m31 34c-7.2725-1.9092-10-9.5454-10-14.318v-6.6816"/><path d="m21 59v-6.6816c0-4.7725 2.7275-12.409 10-14.318"/><path d="m31 38c1-0.2715 2-0.8945 2-2 0-1.1045-1-1.7285-2-2"/><path d="m41 34c7.2725-1.9092 10-9.5454 10-14.318v-6.6816"/><path d="m51 59v-6.6816c0-4.7725-2.7275-12.409-10-14.318"/><path d="m41 38c-1-0.2715-2-0.8945-2-2 0-1.1045 1-1.7285 2-2"/><path d="m25 55c6.0742 0 11-4.9258 11-11 0 6.0742 4.9258 11 11 11"/><path d="m55 11c0 1.1001-0.9004 2-2 2h-34c-1.0996 0-2-0.8999-2-2v-1c0-1.1001 0.9004-2 2-2h34c1.0996 0 2 0.8999 2 2v1z"/><line x1="47" x2="25" y1="18" y2="18"/><path d="m55 62c0 1.0996-0.9004 2-2 2h-34c-1.0996 0-2-0.9004-2-2v-1c0-1.0996 0.9004-2 2-2h34c1.0996 0 2 0.9004 2 2v1z"/><line x1="36" x2="36" y1="39" y2="44"/></g></svg>
