<svg xmlns="http://www.w3.org/2000/svg" id="a" viewBox="0 0 72 72"><g id="b"><circle cx="36" cy="40" r="1"/></g><g id="c"><rect width="20" height="62" x="26" y="5" fill="#3F3F3F" stroke="#000" stroke-linejoin="round"/><rect width="20" height="14" x="26" y="53" fill="#9B9B9A"/><circle cx="36" cy="40" r="8" fill="#D22F27" stroke="#D0CFCE"/><circle r="4" fill="#EA5A47" transform="matrix(-1 0 0 1 36 40)"/><path fill="none" stroke="#fff" stroke-linecap="round" stroke-linejoin="round" stroke-width="2" d="M41 40C41 39.4156 40.8997 38.8546 40.7155 38.3333C40.0291 36.3913 38.177 35 36 35"/><circle cx="36" cy="40" r="2" fill="#F1B31C"/><circle cx="36" cy="40" r="1" fill="#FCEA2B"/><rect width="8" height="4" x="28" y="7" fill="#61B2E4"/></g><g id="d" stroke="#000"><rect width="20" height="62" x="26" y="5" fill="none" stroke-linejoin="round"/><circle cx="36" cy="40" r="7" fill="none"/><line x1="27.5" x2="44.5" y1="52.5" y2="52.5" stroke-linecap="round"/><rect width="16" height="4" x="28" y="7" fill="none" stroke-linejoin="round"/><rect width="20" height="62" x="26" y="5" fill="none" stroke-linejoin="round"/></g></svg>