<?xml version="1.0" encoding="UTF-8"?>
<svg id="a" viewBox="0 0 72 72" xmlns="http://www.w3.org/2000/svg"><g id="b"><path d="m37 44.286v-37.286c-7.9565 0-15.587 3.0553-21.213 8.4939s-8.7868 12.815-8.7868 20.506 3.1607 15.068 8.7868 20.506c5.6261 5.4385 13.257 8.4939 21.213 8.4939v-20.714z"/></g><g id="c"><path d="m36 45v-36c7.4261 0 14.548 2.95 19.799 8.201s8.201 12.373 8.201 19.799-2.95 14.548-8.201 19.799-12.373 8.201-19.799 8.201v-20z" fill="#fff"/><path d="m37 44.286v-37.286c-7.9565 0-15.587 3.0553-21.213 8.4939s-8.7868 12.815-8.7868 20.506 3.1607 15.068 8.7868 20.506c5.6261 5.4385 13.257 8.4939 21.213 8.4939v-20.714z" fill="#3F3F3F"/></g><g id="d" fill="none" stroke="#000" stroke-width="2"><path d="m36 64c15.464 0 28-12.536 28-28s-12.536-28-28-28-28 12.536-28 28 12.536 28 28 28z" stroke-linejoin="round"/><path d="m36 8v53" stroke-linecap="round"/></g></svg>
