<svg xmlns="http://www.w3.org/2000/svg" id="a" viewBox="0 0 72 72"><g id="b"><path d="m35 44.286v-37.286c7.9565 0 15.587 3.0553 21.213 8.4939s8.7868 12.815 8.7868 20.506-3.1607 15.068-8.7868 20.506-13.257 8.4939-21.213 8.4939v-20.714z"/></g><g id="c"><path fill="#fff" d="m36 45v-36c-7.4261 0-14.548 2.95-19.799 8.201s-8.201 12.373-8.201 19.799 2.95 14.548 8.201 19.799 12.373 8.201 19.799 8.201v-20z"/><path fill="#3F3F3F" d="m35 44.286v-37.286c7.9565 0 15.587 3.0553 21.213 8.4939s8.7868 12.815 8.7868 20.506-3.1607 15.068-8.7868 20.506c-5.6261 5.4385-13.257 8.4939-21.213 8.4939v-20.714z"/></g><g id="d" fill="none" stroke="#000" stroke-width="2"><path stroke-linejoin="round" d="m36 64c15.464 0 28-12.536 28-28s-12.536-28-28-28-28 12.536-28 28 12.536 28 28 28z"/><path stroke-linecap="round" d="m36 8v53"/></g></svg>