<?xml version="1.0" encoding="UTF-8"?>
<svg id="a" viewBox="0 0 72 72" xmlns="http://www.w3.org/2000/svg"><g id="b"><path d="M59 11.5L60 59H11.5L59 11.5Z"/></g><g id="c"><path d="M12 12H60L12 60V12Z" fill="#fff"/><path d="M59 11.5L60 59H11.5L59 11.5Z" fill="#3F3F3F"/></g><g id="d" fill="none" stroke="#000" stroke-width="2"><path d="m59.035 60h-46.07c-0.2557-8e-4 -0.5007-0.1027-0.6815-0.2836-0.1808-0.1808-0.2827-0.4258-0.2834-0.6815v-46.07c8e-4 -0.2557 0.1027-0.5007 0.2836-0.6815 0.1808-0.1808 0.4258-0.2827 0.6815-0.2834h46.07c0.2557 8e-4 0.5007 0.1027 0.6815 0.2836 0.1808 0.1808 0.2827 0.4258 0.2834 0.6815v46.07c-8e-4 0.2557-0.1027 0.5007-0.2836 0.6815-0.1808 0.1808-0.4258 0.2827-0.6815 0.2834z" stroke-linejoin="round"/><path d="m59 13-44 44" stroke-linecap="round"/></g></svg>
