<svg xmlns="http://www.w3.org/2000/svg" id="a" viewBox="0 0 72 72"><g id="b"><path d="M59 11.5L60 59H11.5L59 11.5Z"/></g><g id="c"><path fill="#fff" d="M12 12H60L12 60V12Z"/><path fill="#3F3F3F" d="M59 11.5L60 59H11.5L59 11.5Z"/></g><g id="d" fill="none" stroke="#000" stroke-width="2"><path stroke-linejoin="round" d="m59.035 60h-46.07c-0.2557-8e-4 -0.5007-0.1027-0.6815-0.2836-0.1808-0.1808-0.2827-0.4258-0.2834-0.6815v-46.07c8e-4 -0.2557 0.1027-0.5007 0.2836-0.6815 0.1808-0.1808 0.4258-0.2827 0.6815-0.2834h46.07c0.2557 8e-4 0.5007 0.1027 0.6815 0.2836 0.1808 0.1808 0.2827 0.4258 0.2834 0.6815v46.07c-8e-4 0.2557-0.1027 0.5007-0.2836 0.6815-0.1808 0.1808-0.4258 0.2827-0.6815 0.2834z"/><path stroke-linecap="round" d="m59 13-44 44"/></g></svg>