<?xml version="1.0" encoding="UTF-8"?>
<svg id="a" viewBox="0 0 72 72" xmlns="http://www.w3.org/2000/svg"><g id="b"><path d="m15.934 30.255c-0.0372 0.4242-0.3809 0.7675-0.8065 0.8131-5.1595 0.5527-9.128 5.633-9.128 11.817 0 6.553 4.5445 11.865 10.15 11.865h38.698c6.159 0 11.152-5.6139 11.152-12.539 0-6.6366-4.5855-12.069-10.388-12.51-0.4439-0.0337-0.804-0.3445-0.8887-0.7793-1.2963-6.6567-7.2763-11.659-14.346-11.659-4.5948 0-8.6879 2.0802-11.346 5.3894-0.2597 0.3234-0.6956 0.4715-1.079 0.3107-1.0228-0.4289-2.103-0.6365-3.3117-0.6365-4.5673 0-8.3163 3.4856-8.7055 7.9286z" fill="#D0CFCE"/></g><g id="c"><path d="m15.934 30.255c-0.0372 0.4242-0.3794 0.7675-0.8028 0.8127-5.1613 0.5507-9.1317 5.6319-9.1317 11.817 0 6.553 4.5445 11.865 10.15 11.865h38.698c6.159 0 11.152-5.6139 11.152-12.539 0-6.6379-4.5872-12.071-10.392-12.51-0.4421-0.0335-0.8008-0.3444-0.8855-0.7796-1.2964-6.6564-7.2763-11.658-14.346-11.658-4.5964 0-8.6908 2.0817-11.349 5.3929-0.2582 0.3217-0.6903 0.4696-1.0705 0.3097-1.0245-0.4306-2.1065-0.639-3.3175-0.639-4.5674 0-8.3164 3.4856-8.7056 7.9286z" fill="none" stroke="#000" stroke-linecap="round" stroke-linejoin="round" stroke-miterlimit="10" stroke-width="2"/></g></svg>
