<?xml version="1.0" encoding="UTF-8"?>
<svg id="a" version="1.1" viewBox="0 0 72 72" xmlns="http://www.w3.org/2000/svg"><g id="b"><path d="m46.97 36.97c-0.25 0.13-0.53 0.15-0.79 0.05-8.98-3.39-19.17-0.56-21.16 0.05-0.23 0.07-0.47 0.04-0.68-0.08-5.65-3-11.21-0.87-12.92-0.08-0.31 0.15-0.66 0.12-0.93-0.09-2.61-2.03-6.49 0.36-6.49 0.36 0-17.02 14.11-30.82 31.51-30.82 0-1e-4 7.53 3.01 11.46 30.61z" fill="#B399C8"/><path d="m59.97 36.94c-0.05-0.01-0.09-0.01-0.14-0.03-0.04-0.02-0.08-0.04-0.13-0.06 0.11 0.04 0.2 0.0699 0.27 0.09z" fill="#B399C8"/><path d="m67.99 36.99v0.05c0 0.01 0 0.02-0.01 0.03 0.01-0.0499 0.01-0.08 0.01-0.08z" fill="#B399C8"/><path d="m67.99 36.99s0 0.03-0.01 0.08c0 0.02 0 0.03-0.01 0.05 0 0.02-0.0099 0.05-0.02 0.07-0.02 0.04-0.04 0.08-0.07 0.11s-0.06 0.05-0.1 0.06c-0.03 0.02-0.08 0.03-0.13 0.03s-0.09-0.01-0.14-0.03c-0.11-0.05-0.23-0.1-0.36-0.16-0.06-0.03-0.14-0.06-0.22-0.09-1.54-0.54-6.14-0.31-6.14-0.31-0.14 0.11-0.29 0.17-0.45 0.19h-0.06c-0.03 0-0.09-0.01-0.17-0.02h-0.04c-0.01-0.01-0.02-0.01-0.03-0.01 0 0-0.0099 0-0.0099-0.01-0.02 0-0.03-0.01-0.05-0.01h-0.01c-0.0699-0.02-0.16-0.05-0.27-0.09-0.02 0-0.04-0.01-0.06-0.02-0.06-0.03-0.12-0.06-0.19-0.08-0.07-0.04-0.15-0.07-0.23-0.11-0.04-0.02-0.08-0.03-0.14-0.05-1.72-0.49-12.11 0.38-12.11 0.38-3.93-27.6-11.46-30.61-11.46-30.61 10.08 0 19.49 4.31 25.56 11.52 0.09 0.1 0.18 0.2 0.26 0.31 0.26 0.32 0.51 0.64 0.76 0.96 6.4799 8.4401 5.8999 17.84 5.8999 17.84z" fill="#8967AA"/><path d="m60.04 36.96c-0.02 0-0.04-0.01-0.06-0.02 0.02 0 0.03 0.01 0.05 0.01 0 0.01 0.01 0.01 0.01 0.01z" fill="#8967AA"/><path d="m67.51 37.36c-0.08-0.02-0.19-0.06-0.31-0.13-0.01-0.0099-0.03-0.02-0.05-0.03 0.13 0.0601 0.25 0.1101 0.36 0.16z" fill="#8967AA"/></g><g id="c" fill="none" stroke="#000" stroke-linecap="round" stroke-linejoin="round" stroke-miterlimit="10" stroke-width="2"><path d="m66.666 32.453c-2.2648-14.825-15.353-26.095-31.16-26.095-17.401 0-31.507 13.799-31.507 30.821 0 0 3.8776-2.3879 6.4822-0.3669 0.2721 0.2111 0.6336 0.2434 0.9442 0.0987 1.7106-0.7967 7.2706-2.9137 12.907 0.0798 0.2158 0.1146 0.4613 0.1477 0.6941 0.076 2.0005-0.616 12.182-3.4346 21.154-0.0438 0.2561 0.0968 0.539 0.0757 0.7817-0.0522 5.6159-2.96 11.15-0.8605 12.866-0.0631 0.3165 0.1471 0.6843 0.1111 0.9606-0.1051 2.5808-2.0191 6.2224 0.2349 6.2224 0.2349"/><path d="m45.352 62.539c0 3.0158-2.2041 5.4606-4.9229 5.4606s-4.9229-2.4448-4.9229-5.4606v-27.145"/><line x1="35.507" x2="35.507" y1="6.3579" y2="4"/><path d="m10.925 36.992c5.6614-32.337 24.582-30.634 24.582-30.634s-9.594 0.9306-10.825 30.741"/><path d="m60.338 36.99c-5.6614-32.337-24.832-30.632-24.832-30.632s9.8417 0.9121 11.072 30.723"/></g></svg>
