<?xml version="1.0" encoding="UTF-8"?>
<svg id="a" viewBox="0 0 72 72" xmlns="http://www.w3.org/2000/svg"><g id="b"><circle id="c" cx="36" cy="28.11" r="10.75" fill="#fff"/><circle id="d" cx="36" cy="51.44" r="13.86" fill="#fff"/><path id="e" d="m36 17.35c7.776 0 7.776 21.51 0 21.51 5.939 0 10.75-4.815 10.75-10.75 0-5.939-4.815-10.75-10.75-10.75z" fill="#d0cfce"/><path id="f" d="m36 37.58c8.008 0 8.008 27.72 0 27.72 7.653 0 13.86-6.204 13.86-13.86 0-7.653-6.204-13.86-13.86-13.86z" fill="#d0cfce"/><rect id="g" x="29.47" y="7.719" width="13.06" height="10.64" fill="#3f3f3f"/></g><g id="h"><line id="i" x1="42.59" x2="64.11" y1="40.04" y2="32.92" fill="none" stroke="#000" stroke-linecap="round" stroke-linejoin="round" stroke-miterlimit="10" stroke-width="1.757"/><line id="j" x1="57.96" x2="60.7" y1="34.95" y2="27.67" fill="none" stroke="#000" stroke-linecap="round" stroke-linejoin="round" stroke-miterlimit="10" stroke-width="1.757"/><circle id="k" cx="36" cy="47.93" r="1.757"/><circle id="l" cx="36" cy="54.08" r="1.757"/><circle id="m" cx="36" cy="60.23" r="1.757"/><circle id="n" cx="32.37" cy="25.39" r="1.537"/><circle id="o" cx="39.63" cy="25.39" r="1.537"/><path id="p" d="m40.7 31.87c-1.245 0.924-2.807 1.488-4.477 1.488-1.692 0-3.223-0.5413-4.476-1.488" fill="none" stroke="#000" stroke-linecap="round" stroke-linejoin="round" stroke-miterlimit="10" stroke-width="1.581"/><line id="q" x1="26.96" x2="45.04" y1="18.22" y2="18.22" fill="none" stroke="#000" stroke-linecap="round" stroke-linejoin="round" stroke-width="1.757"/><rect id="r" x="29.44" y="7.537" width="13.12" height="10.69" fill="none" stroke="#000" stroke-linecap="round" stroke-linejoin="round" stroke-width="1.757"/><path id="s" d="m43.42 21.38c1.667 1.801 2.685 4.211 2.685 6.858 0 5.579-4.522 10.1-10.1 10.1s-10.1-4.522-10.1-10.1c0-2.648 1.019-5.059 2.687-6.86" fill="none" stroke="#000" stroke-linecap="round" stroke-linejoin="round" stroke-miterlimit="10" stroke-width="1.757"/><line id="t" x1="29.41" x2="7.894" y1="40.04" y2="32.92" fill="none" stroke="#000" stroke-linecap="round" stroke-linejoin="round" stroke-miterlimit="10" stroke-width="1.757"/><line id="u" x1="14.04" x2="11.3" y1="34.96" y2="27.67" fill="none" stroke="#000" stroke-linecap="round" stroke-linejoin="round" stroke-miterlimit="10" stroke-width="1.757"/><path id="v" d="m45.82 42.67c2.086 2.33 3.354 5.407 3.354 8.781 0 7.276-5.899 13.17-13.17 13.17s-13.17-5.899-13.17-13.17c0-3.373 1.268-6.45 3.353-8.781" fill="none" stroke="#000" stroke-linecap="round" stroke-linejoin="round" stroke-miterlimit="10" stroke-width="1.757"/><line id="w" x1="9.2128" x2="14.606" y1="42.346" y2="47.74" fill="none" stroke="#000" stroke-linecap="round" stroke-linejoin="round" stroke-width="2"/><line id="x" x1="15.43" x2="8.3061" y1="43.589" y2="46.343" fill="none" stroke="#000" stroke-linecap="round" stroke-linejoin="round" stroke-width="2"/><line id="y" x1="10.867" x2="12.868" y1="48.651" y2="41.28" fill="none" stroke="#000" stroke-linecap="round" stroke-linejoin="round" stroke-width="2"/><line id="z" x1="16.45" x2="21.844" y1="16.807" y2="22.2" fill="none" stroke="#000" stroke-linecap="round" stroke-linejoin="round" stroke-width="2"/><line id="aa" x1="22.667" x2="15.544" y1="18.05" y2="20.804" fill="none" stroke="#000" stroke-linecap="round" stroke-linejoin="round" stroke-width="2"/><line id="ab" x1="18.105" x2="20.106" y1="23.112" y2="15.741" fill="none" stroke="#000" stroke-linecap="round" stroke-linejoin="round" stroke-width="2"/><line id="ac" x1="51.318" x2="56.712" y1="8.7468" y2="14.14" fill="none" stroke="#000" stroke-linecap="round" stroke-linejoin="round" stroke-width="2"/><line id="ad" x1="57.535" x2="50.412" y1="9.9892" y2="12.743" fill="none" stroke="#000" stroke-linecap="round" stroke-linejoin="round" stroke-width="2"/><line id="ae" x1="52.973" x2="54.974" y1="15.052" y2="7.681" fill="none" stroke="#000" stroke-linecap="round" stroke-linejoin="round" stroke-width="2"/><line id="af" x1="58.654" x2="64.048" y1="42.075" y2="47.468" fill="none" stroke="#000" stroke-linecap="round" stroke-linejoin="round" stroke-width="2"/><line id="ag" x1="64.871" x2="57.748" y1="43.318" y2="46.072" fill="none" stroke="#000" stroke-linecap="round" stroke-linejoin="round" stroke-width="2"/><line id="ah" x1="60.309" x2="62.31" y1="48.38" y2="41.009" fill="none" stroke="#000" stroke-linecap="round" stroke-linejoin="round" stroke-width="2"/></g></svg>
