<svg xmlns="http://www.w3.org/2000/svg" id="a" viewBox="0 0 72 72"><g id="b"><ellipse cx="20.767" cy="48.407" fill="#ea5a47" rx="6.586" ry="7.025" transform="translate(-19.02 13.889) rotate(-25.837)"/><path fill="#d22f27" d="M24.98,42.1607c-.0356-.0345.1043,1.5.1135,1.5474a9.4682,9.4682,0,0,1-.5592,4.4086c-.7529,2.3217-2.1159,5.892-3.1642,5.9543-2.2311.1328,4.1662.0938,4.1662.0938s.4376-.0957.8781-.8781c.1784-.3167,1.24-.1983,1.4184-.8131.1719-.5921.4429-.4843.7019-.7406.6742-.6671.544-.5776.5141-1.0807-.0415-.6963,0-4.3906,0-4.3906Z"/></g><g id="c"><path fill="none" stroke="#000" stroke-linecap="round" stroke-linejoin="round" stroke-width="1.49" d="M28.0542,44.3144l1.0332,2.7421.3112,2.0492-1.0159,2.793L27.4042,53.07l-1.6.7034-1.0825.5953-2.4946.6928-.7573-.165-1.9634-.025-2.03-.9106-1.6125-2.0421-.7486-2.0038-.974-2.0116.448-1.2854.3246-1.2306.5009-2.3322,3.8089-2.0374L21.56,41s.9362.4209,1.2579.56c.1121.0485,1.0541.38,1.1731.4077Z"/><line x1="26.841" x2="46.276" y1="36.759" y2="17.324" fill="none" stroke="#000" stroke-linecap="round" stroke-linejoin="round" stroke-width="2"/><line x1="31.782" x2="55.382" y1="37.982" y2="14.382" fill="none" stroke="#000" stroke-linecap="round" stroke-linejoin="round" stroke-width="2"/><line x1="35.171" x2="51.135" y1="40.229" y2="24.265" fill="none" stroke="#000" stroke-linecap="round" stroke-linejoin="round" stroke-width="2"/><line x1="40.171" x2="43.7" y1="18.229" y2="14.7" fill="none" stroke="#000" stroke-linecap="round" stroke-linejoin="round" stroke-width="2"/><line x1="25.171" x2="28.7" y1="33.229" y2="29.7" fill="none" stroke="#000" stroke-linecap="round" stroke-linejoin="round" stroke-width="2"/><line x1="33.171" x2="36.7" y1="46.229" y2="42.7" fill="none" stroke="#000" stroke-linecap="round" stroke-linejoin="round" stroke-width="2"/><line x1="56.171" x2="59.7" y1="19.229" y2="15.7" fill="none" stroke="#000" stroke-linecap="round" stroke-linejoin="round" stroke-width="2"/><path d="m22.608 30.496a1.1257 1.1257 0 0 0 0-2.25 1.1257 1.1257 0 0 0 0 2.25z"/><path d="m30.608 58.496a1.1257 1.1257 0 0 0 0-2.25 1.1257 1.1257 0 0 0 0 2.25z"/><polygon fill="none" stroke="#000" stroke-linecap="round" stroke-linejoin="round" stroke-width="2" points="40 41 42 41 42.75 38.75 43.5 41 45.5 41 44 42.25 44.5 44.25 42.75 43 41 44.25 41.75 42.25"/><polygon fill="none" stroke="#000" stroke-linecap="round" stroke-linejoin="round" stroke-width="2" points="28 20 30 20 30.75 17.75 31.5 20 33.5 20 32 21.25 32.5 23.25 30.75 22 29 23.25 29.75 21.25"/><path d="m53.608 28.496a1.1257 1.1257 0 0 0 0-2.25 1.1257 1.1257 0 0 0 0 2.25z"/></g></svg>