<?xml version="1.0" encoding="UTF-8"?>
<svg id="a" viewBox="0 0 72 72" xmlns="http://www.w3.org/2000/svg"><g id="b"><path d="m35.993 10.736-8.2015 16.634-18.352 2.6737 13.285 12.94-3.1283 18.28 16.412-8.6361 16.419 8.6239-3.1419-18.278 13.276-12.95-18.354-2.6601-8.2139-16.628z"/></g><g id="c"><path d="m35.993 10.736-8.2015 16.634-18.352 2.6737 13.285 12.94-3.1283 18.28 16.412-8.6361 16.419 8.6239-3.1419-18.278 13.276-12.95-18.354-2.6601-8.2139-16.628z" fill="#3F3F3F"/></g><g id="d"><path d="m35.993 10.736-8.2015 16.634-18.352 2.6737 13.285 12.94-3.1283 18.28 16.412-8.6361 16.419 8.6239-3.1419-18.278 13.276-12.95-18.354-2.6601-8.2139-16.628z" fill="none" stroke="#000" stroke-linecap="round" stroke-linejoin="round" stroke-miterlimit="10" stroke-width="2"/></g></svg>
