<?xml version="1.0" encoding="UTF-8"?>
<svg id="a" viewBox="0 0 72 72" xmlns="http://www.w3.org/2000/svg"><g id="b"><path d="m62.298 16.452c-8-6-44-6-52 0 0 0-4 4-2 10h13v-5c6-4 24-4 30 0v5h13c2-6-2-10-2-10z" fill="#ea5a47"/><polygon points="50.971 21.146 64.848 21.058 64.406 26.096 51.943 26.008" fill="#d22f27"/><polygon points="7.1299 21.146 21.007 21.058 20.565 26.096 8.1022 26.008" fill="#d22f27"/><polygon points="24.875 29.312 19 33 15.188 41.312 14.938 52.312 15 56 57 56 56.688 40.562 53 33 46.938 29 46 27.625 25.688 28.562" fill="#ea5a47"/><polygon points="26.75 25 26 29 26 30 46.125 30 45.281 24.531 43.188 24.25 41.688 26.438 30.062 26.5 28.812 24.438 26.656 24.594" fill="#d22f27"/><path d="m39.344 29.844s12.906 4.4062 12.656 25.906c6.375 2.0625 5.5-6.5 5.5-6.5l-2.5833-13.417-5.75-6.25-9.8229 0.2605z" fill="#d22f27"/></g><g id="c"><circle cx="30" cy="35" r="2"/><circle cx="30" cy="41" r="2"/><circle cx="30" cy="47" r="2"/><circle cx="36" cy="35" r="2"/><circle cx="36" cy="41" r="2"/><circle cx="36" cy="47" r="2"/><circle cx="42" cy="35" r="2"/><circle cx="42" cy="41" r="2"/><circle cx="42" cy="47" r="2"/><path d="m26 24v5s-3.5 0.5-7 4-4 9.9999-4 9.9999v13l3-2e-4h36l3-1e-4v-12.875s-0.5-6.6252-4-10.125-7-4-7-4v-5h-3l-1.0003 3h-12.186l-0.8133-3h-3z" fill="none" stroke="#000" stroke-linecap="round" stroke-linejoin="round" stroke-miterlimit="10" stroke-width="2"/><path d="m61.984 16.452c-8-6-44-6-52 0 0 0-4 4-2 10h13v-5c6-4 24-4 30 0v5h13c2-6-2-10-2-10z" fill="none" stroke="#000" stroke-linecap="round" stroke-linejoin="round" stroke-miterlimit="10" stroke-width="2"/></g></svg>
