<svg xmlns="http://www.w3.org/2000/svg" id="a" viewBox="0 0 72 72"><g id="b"><path fill="#D0CFCE" stroke="#D0CFCE" stroke-linecap="round" stroke-linejoin="round" stroke-miterlimit="10" stroke-width="2" d="m45 29.077v21.241c0 0.2541-0.2059 0.46-0.46 0.46h-22.08c-0.254 0-0.46-0.2059-0.46-0.46v-22.08c0-0.254 0.2059-0.46 0.46-0.46h22.54v1.2992z"/></g><g id="c" fill="none" stroke="#000" stroke-linecap="round" stroke-linejoin="round" stroke-miterlimit="10" stroke-width="2"><path d="m51.231 14.778c-15.231 18-18 30.462-18 30.462s-2.7692-6.9231-5.5385-9.6923"/><path d="m45 29.077v21.241c0 0.2541-0.2059 0.46-0.46 0.46h-22.08c-0.254 0-0.46-0.2059-0.46-0.46v-22.08c0-0.254 0.2059-0.46 0.46-0.46h14.391"/></g></svg>