<?xml version="1.0" encoding="UTF-8"?>
<svg id="a" viewBox="0 0 72 72" xmlns="http://www.w3.org/2000/svg"><g id="b"><path d="m64.096 50.623c-1.8852-12.34-12.78-21.721-25.937-21.721-14.484 0-26.226 11.486-26.226 25.655 0 0 3.2277-1.9877 5.3958-0.3054 0.2265 0.1757 0.5274 0.2026 0.7859 0.0822 1.4239-0.6631 6.052-2.4253 10.744 0.0664 0.1796 0.0954 0.384 0.123 0.5778 0.0633 1.6652-0.5128 10.141-2.859 17.609-0.0364 0.2132 0.0806 0.4486 0.063 0.6507-0.0435 4.6746-2.4639 9.2814-0.7163 10.71-0.0525 0.2634 0.1224 0.5696 0.0924 0.7996-0.0875 2.1483-1.6807 5.1795 0.1955 5.1795 0.1955" fill="#B399C8"/><path d="m38.159 28.901s17.916 0.2034 20.247 25.429c0 0-5.7234-2.8546-11.03 0.144 0 1e-4 0.1934-21.085-9.2166-25.573z" fill="#8967AA"/><path d="m44.458 30.204c7.9449 2.286 20.924 8.7906 20.924 24.235 0 0.2592-0.2464 0.4531-0.4961 0.3837-1.12-0.3112-3.9218-1.3783-6.0569-0.891-2.4416 0.5572-0.2623-16.12-14.643-23.001-0.4297-0.2057-0.1854-0.8586 0.2723-0.7269z" fill="#8967AA"/><path d="m64.098 25.549c0 2.9437-2.2386 5.3241-5 5.3241s-5-2.3864-5-5.3301c0 0-0.0548-3.5772 4.164-10.047 0 0 0.7916-1.3426 1.5885-0.0881 4.2188 6.4698 4.2475 10.141 4.2475 10.141" fill="#92D3F5"/><path d="m58.806 15.339c3.124 2.3331 5.0413 10.027 5.0413 10.027 0 3.7501-1.9877 5.5076-4.7491 5.5076-1e-4 -1e-4 3.7484-5.2848-0.2922-15.534" fill="#61B2E4"/><path d="m33.174 13.245c0 2.9437-2.2386 5.3241-5 5.3241s-5-2.3864-5-5.3301c0 0-0.0548-3.5771 4.164-10.047 0 0 0.7917-1.3426 1.5885-0.0881 4.2188 6.4698 4.2475 10.141 4.2475 10.141" fill="#92D3F5"/><path d="m27.882 3.0345c3.124 2.3331 5.0413 10.027 5.0413 10.027 0 3.7501-1.9877 5.5076-4.7491 5.5076 0 0 3.7485-5.2847-0.2922-15.534" fill="#61B2E4"/><path d="m16.618 25.242c0 2.9437-2.2386 5.3241-5 5.3241s-5-2.3864-5-5.3301c0 0-0.0548-3.5771 4.164-10.047 0 0 0.7917-1.3426 1.5885-0.0881 4.2188 6.4698 4.2475 10.141 4.2475 10.141" fill="#92D3F5"/><path d="m11.326 15.031c3.124 2.3331 5.0413 10.027 5.0413 10.027 0 3.7501-1.9877 5.5076-4.7491 5.5076-1e-4 -1e-4 3.7485-5.2848-0.2922-15.534" fill="#61B2E4"/></g><g id="c" fill="none" stroke="#000" stroke-linecap="round" stroke-linejoin="round" stroke-miterlimit="10" stroke-width="2"><path d="m64.098 25.549c0 2.9437-2.2386 5.3241-5 5.3241s-5-2.3864-5-5.3301c0 0-0.0548-3.5772 4.164-10.047 0 0 0.7916-1.3426 1.5885-0.0881 4.2188 6.4698 4.2475 10.141 4.2475 10.141"/><path d="m33.174 13.245c0 2.9437-2.2386 5.3241-5 5.3241s-5-2.3864-5-5.3301c0 0-0.0548-3.5771 4.164-10.047 0 0 0.7917-1.3426 1.5885-0.0881 4.2188 6.4698 4.2475 10.141 4.2475 10.141"/><path d="m16.618 25.242c0 2.9437-2.2386 5.3241-5 5.3241s-5-2.3864-5-5.3301c0 0-0.0548-3.5771 4.164-10.047 0 0 0.7917-1.3426 1.5885-0.0881 4.2188 6.4698 4.2475 10.141 4.2475 10.141"/><line x1="38.159" x2="38.159" y1="69.432" y2="53.143"/><path d="m17.697 54.401c4.7125-26.917 20.462-25.5 20.462-25.5s-7.986 0.7747-9.0104 25.589"/><path d="m58.829 54.399c-4.7125-26.917-20.67-25.498-20.67-25.498s8.1922 0.7592 9.2166 25.573"/><path d="m63.978 49.917c-2.1853-11.99-12.913-21.015-25.819-21.015-14.484 0-26.226 11.486-26.226 25.655 0 0 3.2277-1.9877 5.3958-0.3054 0.2265 0.1757 0.5274 0.2026 0.7859 0.0822 1.4239-0.6631 6.052-2.4253 10.744 0.0664 0.1796 0.0954 0.384 0.123 0.5778 0.0633 1.6652-0.5128 10.141-2.859 17.609-0.0364 0.2132 0.0806 0.4486 0.063 0.6507-0.0435 4.6746-2.4639 9.2814-0.7163 10.71-0.0525 0.2634 0.1224 0.5696 0.0924 0.7996-0.0875 2.1483-1.6807 5.1795 0.1955 5.1795 0.1955"/><line x1="38.159" x2="38.159" y1="28.901" y2="26.939"/></g></svg>
