<svg xmlns="http://www.w3.org/2000/svg" id="a" viewBox="0 0 72 72"><g id="b"><path d="m39.06 20.618-0.7049-0.7093-0.0022 0.0022 0.7071 0.7071zm0.0114-7.0824-0.7071 0.7071 0.7071-0.7071zm-7.7782-0.7071c-0.3905 0.3905-0.3905 1.0237 0 1.4142 0.3906 0.3905 1.0237 0.3905 1.4143 0l-1.4143-1.4142zm4.9498 0.7071-0.7071 0.7071 0.7071-0.7071zm0 4.2427-0.7071-0.7072 0.7071 0.7072zm-3.4534 3.4534 0.7048 0.7093 0.0023-0.0022-0.7071-0.7071zm-0.0114 0.0113 0.7071 0.7071-0.7071-0.7071zm0 7.0711-0.7071 0.7071 0.7071-0.7071zm7.7782 0.7071c0.3905-0.3905 0.3905-1.0237 0-1.4142-0.3906-0.3905-1.0237-0.3905-1.4143 0l1.4143 1.4142zm-4.9498-0.7071 0.7071-0.7071-0.7071 0.7071zm0-4.2426 0.7071 0.7071-0.7071-0.7071zm4.1584-2.7442 0.0135-0.0135-1.4142-1.4142c-3e-3 3e-3 -0.0061 6e-3 -0.0092 0.0091l1.4099 1.4186zm0.0135-0.0135c2.3432-2.3432 2.3432-6.1422 0-8.4853l-1.4142 1.4142c1.5621 1.5621 1.5621 4.0948 0 5.6569l1.4142 1.4142zm0-8.4853c-2.3431-2.3431-6.1421-2.3431-8.4853 0l1.4143 1.4142c1.5621-1.5621 4.0947-1.5621 5.6568 0l1.4142-1.4142zm-7.071 1.4142c0.781-0.781 2.0473-0.781 2.8284 0l1.4142-1.4142c-1.5621-1.5621-4.0948-1.5621-5.6569 0l1.4143 1.4142zm2.8284 0c0.781 0.7811 0.781 2.0474 0 2.8284l1.4142 1.4143c1.5621-1.5621 1.5621-4.0948 0-5.6569l-1.4142 1.4142zm0 2.8284-3.4534 3.4535 1.4142 1.4142 3.4534-3.4534-1.4142-1.4143zm-3.4512 3.4512-0.0136 0.0136 1.4142 1.4142c3e-3 -3e-3 0.0061-6e-3 0.0091-0.0091l-1.4097-1.4187zm-0.0136 0.0136c-2.3432 2.3432-2.3432 6.1422 0 8.4853l1.4142-1.4142c-1.5621-1.5621-1.5621-4.0948 0-5.6569l-1.4142-1.4142zm0 8.4853c2.3431 2.3431 6.1421 2.3431 8.4853 0l-1.4143-1.4142c-1.5621 1.5621-4.0947 1.5621-5.6568 0l-1.4142 1.4142zm7.071-1.4142c-0.781 0.781-2.0473 0.781-2.8284 0l-1.4142 1.4142c1.5621 1.5621 4.0948 1.5621 5.6569 0l-1.4143-1.4142zm-2.8284 0c-0.781-0.7811-0.781-2.0474 0-2.8284l-1.4142-1.4143c-1.5621 1.5621-1.5621 4.0948 0 5.6569l1.4142-1.4142zm0-2.8284 3.4534-3.4535-1.4142-1.4142-3.4534 3.4534 1.4142 1.4143z"/></g><g id="c"><g fill="#fff"><path fill-rule="evenodd" d="m36 52c9.9411 0 18-8.0589 18-18h-36c0 9.9411 8.0589 18 18 18z" clip-rule="evenodd"/><path d="m54 34h1c0-0.5523-0.4477-1-1-1v1zm-36 0v-1c-0.5523 0-1 0.4477-1 1h1zm35 0c0 9.3888-7.6112 17-17 17v2c10.493 0 19-8.5066 19-19h-2zm-35 1h36v-2h-36v2zm18 16c-9.3888 0-17-7.6112-17-17h-2c0 10.493 8.5066 19 19 19v-2z"/></g><path fill="#fff" fill-rule="evenodd" d="m15.87 55c-0.2789 0-0.5458-0.1158-0.7319-0.3235-0.9004-1.0051-1.7293-2.0756-2.4785-3.2036-0.4262-0.6415 0.0495-1.4729 0.8197-1.4729h45.041c0.7702 0 1.2459 0.8314 0.8197 1.4729-0.7492 1.128-1.5781 2.1985-2.4785 3.2036-0.1861 0.2077-0.453 0.3235-0.7318 0.3235h-40.259z" clip-rule="evenodd"/><path fill="#D0CFCE" fill-rule="evenodd" d="m48.04 50c0.7254 0 1.2073 0.7475 0.8767 1.3931-0.5742 1.1213-1.2093 2.1863-1.8992 3.1872-0.1829 0.2652-0.4863 0.4197-0.8084 0.4197h9.9206c0.2789 0 0.5458-0.1158 0.7319-0.3235 0.9004-1.0051 1.7292-2.0756 2.4785-3.2036 0.4262-0.6415-0.0495-1.4729-0.8197-1.4729h-10.48z" clip-rule="evenodd"/><g fill="#D0CFCE"><path fill-rule="evenodd" d="m44.254 50c5.7887-2.9925 9.7456-9.0341 9.7456-16h-7c0 6.9659-2.4181 13.008-5.9556 16h3.21z" clip-rule="evenodd"/><path d="m54 34h1v-1h-1v1zm-9.7456 16v1h0.2432l0.216-0.1117-0.4592-0.8883zm2.7456-16v-1h-1v1h1zm-5.9556 16-0.6459-0.7635-2.0847 1.7635h2.7306v-1zm11.956-16c0 6.5774-3.7352 12.284-9.2048 15.112l0.9184 1.7766c6.1078-3.1574 10.286-9.534 10.286-16.888h-2zm-6 1h7v-2h-7v2zm-5.3098 15.764c3.8359-3.2449 6.3098-9.6162 6.3098-16.764h-2c0 6.7844-2.3623 12.496-5.6015 15.236l1.2917 1.527zm2.5642-1.7635h-3.21v2h3.21v-2z"/></g><g fill="#D0CFCE"><path fill-rule="evenodd" d="m39.06 20.618 0.0114-0.0114c1.9526-1.9526 1.9526-5.1184 0-7.0711-1.9526-1.9526-5.1184-1.9526-7.071 0 1.1715-1.1715 3.071-1.1715 4.2426 0 1.1716 1.1716 1.1716 3.0711 0 4.2427l-3.4648 3.4648c-1.9526 1.9526-1.9526 5.1184 0 7.071s5.1184 1.9526 7.0711 0c-1.1716 1.1716-3.0711 1.1716-4.2427 0s-1.1716-3.071 0-4.2426l3.4534-3.4534z" clip-rule="evenodd"/><path d="m39.06 20.618-0.7049-0.7093-0.0022 0.0022 0.7071 0.7071zm0.0114-7.0825-0.7071 0.7071 0.7071-0.7071zm-7.7782-0.7071c-0.3905 0.3906-0.3905 1.0237 0 1.4142 0.3906 0.3906 1.0237 0.3906 1.4143 0l-1.4143-1.4142zm4.9498 0.7071-0.7071 0.7071 0.7071-0.7071zm0 4.2427-0.7071-0.7071 0.7071 0.7071zm-3.4534 3.4534 0.7048 0.7094 0.0023-0.0023-0.7071-0.7071zm-0.0114 0.0114 0.7071 0.7071-0.7071-0.7071zm0 7.071-0.7071 0.7071 0.7071-0.7071zm7.7782 0.7071c0.3905-0.3905 0.3905-1.0237 0-1.4142-0.3906-0.3905-1.0237-0.3905-1.4143 0l1.4143 1.4142zm-4.9498-0.7071 0.7071-0.7071-0.7071 0.7071zm0-4.2426 0.7071 0.7071-0.7071-0.7071zm4.1584-2.7442c0.0044-0.0044 9e-3 -0.0089 0.0135-0.0135l-1.4142-1.4142-0.0092 0.0092 1.4099 1.4185zm0.0135-0.0135c2.3432-2.3431 2.3432-6.1421 0-8.4853l-1.4142 1.4142c1.5621 1.5621 1.5621 4.0948 0 5.6569l1.4142 1.4142zm0-8.4853c-2.3431-2.3431-6.1421-2.3431-8.4853 0l1.4143 1.4142c1.5621-1.562 4.0947-1.562 5.6568 0l1.4142-1.4142zm-7.071 1.4142c0.781-0.781 2.0473-0.781 2.8284 0l1.4142-1.4142c-1.5621-1.5621-4.0948-1.5621-5.6569 0l1.4143 1.4142zm2.8284 0c0.781 0.7811 0.781 2.0474 0 2.8285l1.4142 1.4142c1.5621-1.5621 1.5621-4.0948 0-5.6569l-1.4142 1.4142zm0 2.8285-3.4534 3.4534 1.4142 1.4142 3.4534-3.4534-1.4142-1.4142zm-3.4512 3.4511c-0.0045 0.0046-0.0091 0.0091-0.0136 0.0137l1.4142 1.4142c3e-3 -0.0031 0.0061-0.0061 0.0091-0.0091l-1.4097-1.4188zm-0.0136 0.0136c-2.3432 2.3432-2.3432 6.1422 0 8.4853l1.4142-1.4142c-1.5621-1.5621-1.5621-4.0947 0-5.6568l-1.4142-1.4143zm0 8.4853c2.3431 2.3432 6.1421 2.3432 8.4853 0l-1.4143-1.4142c-1.5621 1.5621-4.0947 1.5621-5.6568 0l-1.4142 1.4142zm7.071-1.4142c-0.781 0.7811-2.0473 0.7811-2.8284 0l-1.4142 1.4142c1.5621 1.5621 4.0948 1.5621 5.6569 0l-1.4143-1.4142zm-2.8284 0c-0.781-0.781-0.781-2.0474 0-2.8284l-1.4142-1.4142c-1.5621 1.5621-1.5621 4.0947 0 5.6568l1.4142-1.4142zm0-2.8284 3.4534-3.4534-1.4142-1.4142-3.4534 3.4534 1.4142 1.4142z"/></g></g><g id="d"><path fill="none" stroke="#000" stroke-linecap="round" stroke-linejoin="round" stroke-width="2" d="m24 47.417c-3.6825-3.2959-6-8.0856-6-13.417h36c0 5.331-2.3175 10.121-6 13.417"/><path d="m56.862 54.676-0.7448-0.6673 0.7448 0.6673zm2.4785-3.2036 0.833 0.5533-0.833-0.5533zm-44.202 3.2036-0.7448 0.6672 0.7448-0.6672zm0.7448-0.6673c-0.8684-0.9694-1.6678-2.0019-2.3903-3.0896l-1.666 1.1066c0.776 1.1682 1.6343 2.2768 2.5667 3.3175l1.4896-1.3345zm-2.4036-3.0092h45.041v-2h-45.041v2zm45.028-0.0804c-0.7226 1.0877-1.522 2.1202-2.3904 3.0896l1.4896 1.3345c0.9324-1.0407 1.7907-2.1493 2.5667-3.3175l-1.6659-1.1066zm-2.3774 3.0804h-40.259v2h40.259v-2zm-0.013 0.0092c0.0042-0.0047 0.0085-0.0073 0.011-0.0084 0.0023-1e-3 3e-3 -8e-4 2e-3 -8e-4v2c0.5547 0 1.0953-0.2307 1.4766-0.6563l-1.4896-1.3345zm2.4036-3.0092c0.0058 0 0.0069 7e-4 0.0049 1e-4 -0.0019-5e-4 -0.0046-0.0016-0.0074-0.0032-5e-3 -0.0031-0.0083-0.0067-0.0107-0.011-0.0025-0.0045-0.0072-0.0155-0.0069-0.0334 2e-4 -9e-3 0.0017-0.0178 4e-3 -0.0252 0.0024-0.0075 0.0045-0.0102 0.0029-0.0077l1.6659 1.1066c0.8986-1.3527-0.141-3.0262-1.6527-3.0262v2zm-45.027-0.0804c-0.0017-0.0025 4e-4 2e-4 0.0028 0.0077 0.0023 0.0074 0.0038 0.0162 4e-3 0.0252 3e-4 0.0179-0.0044 0.0289-0.0069 0.0334-0.0024 0.0043-0.0057 0.0079-0.0107 0.0109-0.0028 0.0017-0.0055 0.0028-0.0074 0.0033-2e-3 6e-4 -9e-4 -1e-4 0.0049-1e-4v-2c-1.5117 0-2.5513 1.6735-1.6527 3.0262l1.666-1.1066zm0.9007 4.4241c0.3813 0.4256 0.9219 0.6563 1.4767 0.6563v-2c-0.0011 0-4e-4 -2e-4 0.0019 8e-4 0.0025 0.0011 0.0068 0.0037 0.011 0.0084l-1.4896 1.3345z"/><path fill="none" stroke="#000" stroke-linecap="round" stroke-width="2" d="m51 45h4.5c3.0376 0 5.5-2.4624 5.5-5.5s-2.4624-5.5-5.5-5.5h-2.5"/></g></svg>