<?xml version="1.0" encoding="UTF-8"?>
<svg id="a" viewBox="0 0 72 72" xmlns="http://www.w3.org/2000/svg"><g id="b"><path d="m35.75 38.861c0.7918-0.8555 2.1446-0.8553 2.9361 5e-4l5.0691 5.4806c1.9827 2.2387 4.4923 3.2216 6.9032 1.7652 2.3429-1.4154 3.0291-4.517 1.6577-6.886l-0.7615-1.3154-0.4165-0.7194 1.9671-1.1388c2.3997-1.3893 3.3965-4.5861 1.9817-6.9709-1.3879-2.3396-4.0753-2.4334-6.7882-1.772l-1.5258 0.4466c-1.592 0.466-3.0266-1.097-2.4262-2.6433l0.8157-2.1008c0.4085-1.0521 0.8731-2.0807 1.3203-3.1169 0.9172-2.1253 1.1047-4.2003-0.4735-5.8473-1.9632-2.0487-5.3008-1.904-7.3073 0.1024l-1.5842 1.5841-0.5878-0.5878-0.9963-0.9962c-2.0104-2.0102-5.3553-2.1497-7.3173-0.0922-1.5682 1.6446-1.386 3.6828-0.4662 5.8231 0.4505 1.0482 0.9183 2.0889 1.3313 3.1525l0.7883 2.0303c0.6038 1.5551-0.8495 3.1223-2.4456 2.6375l-1.2905-0.392c-2.7129-0.6613-5.4003-0.5676-6.7882 1.772-1.4148 2.3847-0.4179 5.5816 1.9817 6.9709l1.9671 1.1388-0.4165 0.7194-0.7615 1.3154c-1.3714 2.3689-0.6852 5.4706 1.6577 6.886 2.4109 1.4565 4.9205 0.4735 6.9032-1.7652l5.0729-5.4811z" fill="#5C9E31"/></g><g id="c" fill="none" stroke="#000" stroke-linecap="round" stroke-linejoin="round" stroke-width="2"><path d="m35.76 38.94c0.7918-0.8555 2.1446-0.8553 2.9361 5e-4l5.0691 5.4806c1.9827 2.2387 4.4923 3.2216 6.9032 1.7652 2.3429-1.4154 3.0291-4.517 1.6577-6.886l-0.7615-1.3154-0.4165-0.7194 1.9671-1.1388c2.3997-1.3893 3.3965-4.5861 1.9817-6.9709-1.388-2.3396-4.0753-2.4334-6.7882-1.772l-1.5257 0.4466c-1.592 0.466-3.0266-1.097-2.4262-2.6433l0.8157-2.1008c0.4085-1.0521 0.8731-2.0807 1.3203-3.1169 0.9172-2.1253 1.1047-4.2003-0.4735-5.8473-1.9632-2.0487-5.3008-1.904-7.3073 0.1024l-1.5842 1.5841-0.5878-0.5878-0.9963-0.9962c-2.0104-2.0102-5.3553-2.1497-7.3173-0.0922-1.5682 1.6446-1.386 3.6828-0.4662 5.8231 0.4505 1.0482 0.9183 2.0889 1.3313 3.1525l0.7883 2.0303c0.6038 1.5551-0.8495 3.1223-2.4456 2.6375l-1.2905-0.392c-2.7129-0.6613-5.4003-0.5676-6.7882 1.772-1.4148 2.3847-0.4179 5.5816 1.9817 6.9709l1.9671 1.1388-0.4165 0.7194-0.7615 1.3154c-1.3714 2.3689-0.6852 5.4706 1.6577 6.886 2.4109 1.4565 4.9205 0.4735 6.9032-1.7652l5.0728-5.4811z" stroke-miterlimit="10"/><path d="m37.137 44.052c-3.438 3.548-7.676 10.246-5.829 20.735"/></g></svg>
