<svg xmlns="http://www.w3.org/2000/svg" id="a" viewBox="0 0 72 72"><g id="b"><path fill="#fff" d="m40.526 16.92c-1.4058-0.4271-2.8669-0.6444-4.3361-0.6449h-0.0302c-1.0484 0.0035-2.0939 0.1118-3.1208 0.3233-3.6363 0.783-6.8667 2.8547-9.0952 5.8328-1.6956 2.2231-2.8175 4.8296-3.2665 7.5892-0.9016 5.1673 0.5755 10.466 4.0203 14.421l0.1114 0.1248c0.8836 0.9967 2.0939 2.3619 2.0939 3.8143l-0.0184 4.1778c0 0.4626-0.375 0.8376-0.8376 0.8376 1.8614 0.9501 3.8344 1.6637 5.873 2.1241 3.1924 0.7191 6.5139 0.6284 9.6622-0.2638 2.693-12.712 1.9818-25.989-1.056-38.336z"/><path fill="#D0CFCE" d="m46.98 20.812c-1.7983-1.809-4.0153-3.1462-6.4543-3.893 3.0379 12.347 3.749 25.625 1.0537 38.332 1.63-0.4557 3.2034-1.0938 4.6904-1.9021-0.4608 2e-3 -0.8384-0.3652-0.8493-0.8258l-0.0578-4.1401c0-1.382 1.1726-2.6727 2.0277-3.6158 0.1214-0.1332 0.237-0.2605 0.3409-0.3794 5.9059-6.8616 5.5818-17.101-0.7463-23.575l-5e-3 -9e-4z"/><path fill="#3F3F3F" d="m29.37 35.24c-2.2091 0-4 1.7909-4 4s1.7909 4 4 4 4-1.7909 4-4-1.7909-4-4-4z"/><path fill="#3F3F3F" d="m43.062 35.24c-2.2091 0-4 1.7909-4 4s1.7909 4 4 4 4-1.7909 4-4-1.7908-4-4-4z"/><path fill="#fff" d="m53.015 20.665c1.2729-1.2642 2.132-2.1147 2.4157-2.3897 0 0 1.9438 1.8393 3.2697 1.4425 1.3739-0.4111 2.157-1.8078 2.036-2.9537-0.1677-1.5889-2.11-3.0402-4.4383-2.5565 0.4057-1.5126 0.0682-3.0622-0.9331-3.9948-1.6539-1.5404-4.078-0.4787-4.9897 0.9177-1.2203 1.8691 1.5734 3.6628 1.5734 3.6628-0.2657 0.2576-1.0353 1.0191-2.1762 2.1518"/><path fill="#fff" d="m19.678 46.908c-1.5494 1.5397-2.5998 2.5803-2.9198 2.8905-0.6553-1.3027-2.133-1.943-3.4588-1.5463-1.3739 0.4111-2.157 1.8078-2.036 2.9537 0.1677 1.5889 2.11 3.0402 4.4383 2.5565-0.4057 1.5126-0.0682 3.0622 0.9332 3.9948 1.6539 1.5404 4.3294 0.6137 4.9897-0.9177 0.469-1.0879 0.1927-2.2976-1.4383-3.5051 0.2604-0.2525 1.0057-0.9898 2.1108-2.087"/><path fill="#fff" d="m19.112 20.792c-1.3428-1.3339-2.2498-2.2319-2.5429-2.5161 0 0-1.9438 1.8393-3.2697 1.4425-1.3739-0.4111-2.157-1.8078-2.036-2.9537 0.1677-1.5889 2.11-3.0402 4.4383-2.5565-0.4057-1.5126-0.0682-3.0622 0.9332-3.9948 1.6539-1.5404 4.078-0.4787 4.9897 0.9177 1.2203 1.8691-1.5735 3.6629-1.5735 3.6629 0.2863 0.2776 1.1575 1.14 2.4478 2.4216"/><path fill="#fff" d="m52.497 47.082c1.4533 1.4439 2.4367 2.4179 2.7444 2.7162 0.6553-1.3027 2.133-1.943 3.4588-1.5463 1.3739 0.4111 2.157 1.8078 2.036 2.9537-0.1677 1.5889-2.11 3.0402-4.4383 2.5565 0.4057 1.5126 0.0682 3.0622-0.9331 3.9948-1.6539 1.5404-4.3294 0.6137-4.9897-0.9177-0.469-1.0879-0.1927-2.2976 1.4383-3.5051-0.2579-0.25-0.9912-0.9755-2.0786-2.055"/></g><g id="c" fill="none" stroke="#000" stroke-width="2"><path stroke-linecap="round" stroke-linejoin="round" d="m46.255 52.473-0.0578-4.1409c0-1.2145 1.3811-2.542 2.1609-3.434 2.8766-3.3062 4.4518-7.5462 4.4316-11.929 0-9.7158-7.4493-17.594-16.631-17.575-1.1042 0.0035-2.2052 0.1177-3.2866 0.3409-6.6084 1.3552-11.874 7.0833-13.022 14.106-0.9438 5.4162 0.6083 10.969 4.2239 15.111 0.768 0.8686 1.9951 2.1944 1.9951 3.3838l-0.0184 4.1736"/><line x1="29.371" x2="29.371" y1="51.081" y2="55.085" stroke-linecap="round" stroke-linejoin="round"/><line x1="34.156" x2="34.156" y1="51.973" y2="55.978" stroke-linecap="round" stroke-linejoin="round"/><line x1="43.063" x2="43.063" y1="51.081" y2="55.085" stroke-linecap="round" stroke-linejoin="round"/><line x1="38.72" x2="38.72" y1="51.973" y2="55.978" stroke-linecap="round" stroke-linejoin="round"/><polyline stroke-linecap="round" stroke-linejoin="round" points="33.702 48.742 36.158 43.843 39.094 48.742"/><circle cx="29.371" cy="39.2" r="4.188" stroke-miterlimit="10"/><circle cx="43.063" cy="39.2" r="4.188" stroke-miterlimit="10"/><path stroke-linecap="round" stroke-linejoin="round" d="m53.015 20.665c1.2729-1.2642 2.132-2.1147 2.4157-2.3897 0 0 1.9438 1.8393 3.2697 1.4425 1.3739-0.4111 2.157-1.8078 2.036-2.9537-0.1677-1.5889-2.11-3.0402-4.4383-2.5565 0.4057-1.5126 0.0682-3.0622-0.9331-3.9948-1.6539-1.5404-4.078-0.4787-4.9897 0.9177-1.2203 1.8691 1.5734 3.6628 1.5734 3.6628-0.2657 0.2576-1.0353 1.0191-2.1762 2.1518"/><path stroke-linecap="round" stroke-linejoin="round" d="m19.678 46.908c-1.5494 1.5397-2.5998 2.5803-2.9198 2.8905-0.6553-1.3027-2.133-1.943-3.4588-1.5463-1.3739 0.4111-2.157 1.8078-2.036 2.9537 0.1677 1.5889 2.11 3.0402 4.4383 2.5565-0.4057 1.5126-0.0682 3.0622 0.9332 3.9948 1.6539 1.5404 4.3294 0.6137 4.9897-0.9177 0.469-1.0879 0.1927-2.2976-1.4383-3.5051 0.2604-0.2525 1.0057-0.9898 2.1108-2.087"/><path stroke-linecap="round" stroke-linejoin="round" d="m19.112 20.792c-1.3428-1.3339-2.2498-2.2319-2.5429-2.5161 0 0-1.9438 1.8393-3.2697 1.4425-1.3739-0.4111-2.157-1.8078-2.036-2.9537 0.1677-1.5889 2.11-3.0402 4.4383-2.5565-0.4057-1.5126-0.0682-3.0622 0.9332-3.9948 1.6539-1.5404 4.078-0.4787 4.9897 0.9177 1.2203 1.8691-1.5735 3.6629-1.5735 3.6629 0.2863 0.2776 1.1575 1.14 2.4478 2.4216"/><path stroke-linecap="round" stroke-linejoin="round" d="m52.497 47.082c1.4533 1.4439 2.4367 2.4179 2.7444 2.7162 0.6553-1.3027 2.133-1.943 3.4588-1.5463 1.3739 0.4111 2.157 1.8078 2.036 2.9537-0.1677 1.5889-2.11 3.0402-4.4383 2.5565 0.4057 1.5126 0.0682 3.0622-0.9331 3.9948-1.6539 1.5404-4.3294 0.6137-4.9897-0.9177-0.469-1.0879-0.1927-2.2976 1.4383-3.5051-0.2579-0.25-0.9912-0.9755-2.0786-2.055"/></g></svg>