<svg xmlns="http://www.w3.org/2000/svg" id="a" viewBox="0 0 72 72"><g id="b"><path fill="#D22F27" d="m60.021 36.363c-0.1826 7.0655-3.3988 13.388-8.4054 17.688-4.081 3.4962-9.3437 5.6768-15.106 5.823l23.511-23.511z"/><path fill="#EA5A47" d="m60.033 35.729c0 0.2071 0 0.4263-0.0122 0.6334l-9.2704 9.2705-14.241 14.24c-0.207 0.0121-0.4262 0.0121-0.6335 0.0121v0.0122c-3.4595 0-6.7487-0.7309-9.7332-2.0587l18.492-18.492 13.351-13.351c1.3156 2.9725 2.0465 6.2615 2.0465 9.7334z"/><path fill="#F1B31C" d="m57.987 25.996-31.844 31.843c-2.1927-0.9501-4.215-2.2414-6.0057-3.7763-0.4751-0.402-0.9258-0.8284-1.3522-1.2669l17.091-17.091 17.067-17.067c2.1075 2.1075 3.8253 4.5926 5.0435 7.3579z"/><path fill="#FCEA2B" d="m52.933 18.718-17.067 17.067-17.191 16.891-5.0311-7.3701 31.819-31.819c2.7653 1.206 5.2625 2.9237 7.4699 5.2311z"/><path fill="#92D3F5" d="m34.975 11.609-23.231 23.231c0.4508-12.62 10.61-22.78 23.231-23.231z"/><path fill="#B1CC33" d="m45.451 13.558-31.746 31.746c-1.2791-2.9358-1.9856-6.164-1.9856-9.5627 0-0.2924 0-0.5848 0.0243-0.8771l23.255-23.255c0.2924-0.0244 0.5847-0.0244 0.8771-0.0244v-0.0122c3.3988-1e-4 6.6392 0.7065 9.5751 1.9856z"/><path fill="#fff" d="m57.105 26.39c-1.1598-2.6386-2.7932-5.0162-4.8422-7.0652-2.0587-2.0587-4.4364-3.6824-7.0749-4.8325-0.0097 0-0.0289-0.0097-0.0386-0.0193-0.029-0.0097-0.0676-0.0193-0.087-0.029-2.0104-0.8796-4.1173-1.4594-6.2823-1.7204-0.6379-0.087-1.2855-0.1353-1.933-0.1546-0.2706-0.0193-0.5413-0.029-0.8216-0.029-0.0676 0.0097-0.1449 0.0097-0.2223 0.0097-0.2416 0-0.4833 0-0.7249 0.0193-0.029 0.0096-0.058 0.0096-0.0773 0.0096-0.029 0-0.0579 0-0.087 0.0097-0.6573 0.0193-1.2951 0.0677-1.9331 0.1547-11.115 1.382-19.862 10.738-20.268 22.114v0.0096 0.0097c0 0.0194-0.0097 0.0484-0.0097 0.0677-0.0193 0.3093-0.0193 0.5509-0.0193 0.8022 0 3.1798 0.6379 6.2726 1.9041 9.1722 0.0193 0.029 0.029 0.058 0.0386 0.087 0 0.0096 0.0097 0.0193 0.0097 0.0386 0.4929 1.1308 1.0728 2.2133 1.7494 3.2378 0.3383 0.5412 0.7152 1.0729 1.1115 1.5851 0.3866 0.5026 0.8022 1.0052 1.2468 1.4788 0.232 0.2609 0.4736 0.5122 0.7249 0.7635 0.2126 0.2223 0.4253 0.4253 0.6282 0.6283 0.2223 0.2126 0.4446 0.4059 0.6669 0.5896 1.7687 1.5174 3.7017 2.7352 5.7604 3.6244 2.2423 0.9955 4.5909 1.6237 7.0169 1.8654 0.7249 0.0773 1.4498 0.116 2.1843 0.116 0.0676-0.0097 0.1353-0.0097 0.2029-0.0097 0.174 0 0.3576 0 0.5219-0.0097 0.5992-0.0193 1.1888-0.058 1.7783-0.116 4.6973-0.4833 9.1625-2.3969 12.758-5.4801 0.2127-0.1836 0.4253-0.377 0.6284-0.5703 0.4833-0.4349 0.9375-0.8988 1.3724-1.3821 0.4446-0.4833 0.8602-0.9761 1.2468-1.4884 0.3962-0.5026 0.7733-1.0342 1.1114-1.5754 2.2907-3.5374 3.5954-7.6741 3.7115-11.965 0.0097-0.2223 0.0097-0.4156 0.0097-0.6089-1e-4 -3.2475-0.6574-6.3984-1.9622-9.3365zm-22.191 30.58c-0.6476-0.0193-1.2951-0.0773-1.9331-0.174-1.9523-0.2609-3.8564-0.8022-5.6831-1.6141-1.8847-0.8215-3.6534-1.933-5.2868-3.3345-0.1353-0.1063-0.261-0.2223-0.3963-0.3479-0.2512-0.232-0.5122-0.4736-0.7829-0.7538-0.2029-0.203-0.3962-0.406-0.5896-0.6186l1.4981-1.2275 11.24-9.1818 1.3531-1.0922 0.5799-0.4833v18.828zm0-21.331-1.9331 1.585-12.487 10.187-1.4981 1.2371c-0.3963-0.5122-0.7636-1.0438-1.1115-1.5947-0.5509-0.8796-1.0438-1.8074-1.4594-2.7643-0.0193-0.0483-0.0386-0.0966-0.058-0.1449-1.1598-2.6579-1.7494-5.4801-1.7494-8.399 0-0.2416 0-0.4736 0.0193-0.6379 0-0.0676 0.0097-0.1449 0.0097-0.2126 0.3866-10.332 8.2636-18.837 18.335-20.21 0.6283-0.0773 1.2758-0.145 1.9331-0.1643v21.118zm15.194 15.87c-0.1256 0.116-0.2513 0.232-0.3769 0.3383-3.1218 2.6676-6.9396 4.3783-10.95 4.9389-0.6379 0.087-1.2855 0.1546-1.933 0.174v-18.779l0.5315 0.4446 1.4015 1.1405 11.212 9.1529 1.498 1.2178c-0.4252 0.4735-0.8891 0.9374-1.3821 1.3723zm7.0169-15.319v0.0966c-0.0967 3.8467-1.2468 7.5678-3.2862 10.777-0.3286 0.5509-0.7055 1.0825-1.0922 1.5947l-1.4981-1.2178-12.468-10.177-1.933-1.5754v-21.186c0.6475 0.0193 1.2951 0.0773 1.933 0.174 1.8943 0.2513 3.7403 0.7732 5.5091 1.5367 0.0484 0.0194 0.0966 0.0387 0.145 0.058 2.4066 1.0535 4.5812 2.5419 6.4563 4.417 1.8846 1.8847 3.3828 4.0593 4.4458 6.4853 1.1888 2.6965 1.7978 5.5768 1.7978 8.5536 0 0.1546 0 0.3189-0.0097 0.4639z"/></g><g id="c"><path d="m58.874 25.607c-1.2565-2.8512-3.0253-5.4318-5.2483-7.6548-2.2132-2.2133-4.7745-3.9627-7.616-5.2094-0.0871-0.0483-0.1547-0.0677-0.174-0.0677-2.2906-1.0052-4.6972-1.6431-7.1812-1.9137-0.9181-0.1064-1.8363-0.1547-2.7738-0.1547-0.058 0-0.1064 0-0.1547 0.0097-0.2513 0-0.4929 0.0097-0.6863 0.0193-0.0579 0-0.1159 0-0.1739 0.0096-0.5992 0.0193-1.1888 0.0677-1.7784 0.145-12.168 1.3338-21.795 11.482-22.307 23.873-0.0193 0.0966-0.0193 0.1836-0.0097 0.2803-0.0193 0.2706-0.0193 0.5316-0.0193 0.8022 0 3.4214 0.6862 6.7365 2.0297 9.8584 0.029 0.087 0.0676 0.1836 0.116 0.2609 0.9181 2.0877 2.107 4.0207 3.5471 5.7701 0 0.0097 0.0097 0.0097 0.0097 0.0097 0.1063 0.1449 0.2126 0.2803 0.3383 0.4059 0.4059 0.4929 0.8505 0.9665 1.3048 1.4207 0.4639 0.4833 0.9472 0.9279 1.4111 1.3242 1.9137 1.643 4.011 2.9575 6.2437 3.924 3.1895 1.4207 6.6013 2.1456 10.129 2.1456 0.0483 0 0.0966-0.0097 0.1449-0.0097 0.1837 0 0.3577-0.0097 0.5123-0.0193 5.741-0.145 11.318-2.2907 15.706-6.0504 1.0342-0.8892 1.9814-1.8461 2.8415-2.8706 0.0097-0.0097 0.0193-0.0097 0.0193-0.0193 0.029-0.0387 0.058-0.0677 0.0871-0.116 0.0097-0.0193 0.029-0.0386 0.0387-0.058 3.5567-4.2913 5.6154-9.694 5.7604-15.3 0.0094-0.2317 0.0094-0.4637 0.0094-0.6957 0-3.5181-0.7152-6.9298-2.1263-10.119zm-3.8757 24.897-0.0097-0.0097c0.0097-0.0097 0.0194-0.0193 0.0289-0.029l-0.0192 0.0387zm4.0593-14.169c-0.1161 4.2913-1.4207 8.428-3.7115 11.965-0.3381 0.5412-0.7152 1.0728-1.1114 1.5754-0.3866 0.5123-0.8023 1.0051-1.2468 1.4884-0.4349 0.4833-0.8891 0.9472-1.3724 1.3821-0.203 0.1933-0.4156 0.3866-0.6284 0.5703-3.5954 3.0832-8.0605 4.9968-12.758 5.4801-0.5896 0.058-1.1791 0.0967-1.7783 0.116-0.1643 0.0097-0.3479 0.0097-0.5219 0.0097-0.0676 0-0.1353 0-0.2029 0.0097-0.7346 0-1.4594-0.0386-2.1843-0.116-2.4259-0.2416-4.7746-0.8699-7.0169-1.8654-2.0587-0.8892-3.9917-2.107-5.7604-3.6244-0.2223-0.1836-0.4446-0.377-0.6669-0.5896-0.2029-0.203-0.4156-0.406-0.6282-0.6283-0.2513-0.2513-0.4929-0.5026-0.7249-0.7635-0.4446-0.4736-0.8602-0.9762-1.2468-1.4788-0.3963-0.5122-0.7733-1.0438-1.1115-1.5851-0.6766-1.0245-1.2564-2.107-1.7494-3.2378 0-0.0194-0.0097-0.029-0.0097-0.0386-0.0097-0.029-0.0193-0.058-0.0386-0.087-1.2661-2.8995-1.9041-5.9924-1.9041-9.1722 0-0.2513 0-0.4929 0.0193-0.8022 0-0.0193 0.0097-0.0483 0.0097-0.0677v-0.0097-0.0096c0.4059-11.376 9.1528-20.732 20.268-22.114 0.6379-0.087 1.2758-0.1353 1.9331-0.1547 0.029-0.0097 0.0579-0.0097 0.087-0.0097 0.0192 0 0.0483 0 0.0773-0.0096 0.2416-0.0193 0.4833-0.0193 0.7249-0.0193 0.0774 0 0.1547 0 0.2223-0.0097 0.2803 0 0.551 0.0097 0.8216 0.029 0.6475 0.0193 1.2951 0.0676 1.933 0.1546 2.165 0.261 4.2719 0.8409 6.2823 1.7204 0.0194 0.0096 0.0579 0.0193 0.087 0.029 0.0097 0.0097 0.0289 0.0193 0.0386 0.0193 2.6385 1.1501 5.0162 2.7739 7.0749 4.8325 2.049 2.049 3.6825 4.4266 4.8422 7.0652 1.3048 2.9382 1.962 6.089 1.962 9.3364 0 0.1935 0 0.3868-0.0097 0.6091z"/><path d="m54.988 50.495 0.0097 0.0097 0.0192-0.0387c-0.0095 0.0097-0.0192 0.0193-0.0289 0.029z"/><path d="m32.981 14.686c-10.071 1.3724-17.948 9.8777-18.335 20.21 0 0.0677-0.0097 0.145-0.0097 0.2126-0.0193 0.1643-0.0193 0.3963-0.0193 0.6379 0 2.9189 0.5896 5.7411 1.7494 8.399 0.0194 0.0483 0.0387 0.0966 0.058 0.1449 0.4156 0.9569 0.9085 1.8847 1.4594 2.7643 0.3479 0.5509 0.7152 1.0825 1.1115 1.5947l1.4981-1.2371 12.487-10.187 1.9331-1.585v-21.118c-0.6574 0.0194-1.305 0.087-1.9332 0.1644zm0 20.045-13.58 11.086c-0.4446-0.7249-0.8409-1.4787-1.1888-2.2616-0.029-0.0677-0.0484-0.1257-0.0773-0.1836-1.0535-2.4066-1.5851-4.9775-1.5851-7.6258 0-0.1836 0-0.3866 0.0097-0.4833 0.0097-0.1063 0.0097-0.203 0.0194-0.3093 0.3576-9.2978 7.3841-16.962 16.402-18.306v18.084z"/><path d="m16.792 52.051c-0.0773-0.0483-0.1546-0.1063-0.2126-0.1836-0.058-0.0677-0.0967-0.145-0.1257-0.2223 0.1064 0.1449 0.2127 0.2802 0.3383 0.4059z"/><path d="m55.191 51.78c-0.0193 0.029-0.0387 0.058-0.058 0.087l-0.029 0.029c0.0289-0.0386 0.058-0.0676 0.087-0.116z"/><path d="m55.017 50.466-0.0192 0.0387-0.0097-0.0097c0.0096-0.0097 0.0193-0.0193 0.0289-0.029z"/><path d="m34.334 38.626-1.3531 1.0922-11.24 9.1818-1.4981 1.2275c0.1933 0.2126 0.3866 0.4156 0.5896 0.6186 0.2707 0.2803 0.5316 0.5219 0.7829 0.7538 0.1353 0.1257 0.261 0.2416 0.3963 0.3479 1.6334 1.4014 3.4021 2.513 5.2868 3.3345 1.8267 0.8119 3.7308 1.3531 5.6831 1.6141 0.6379 0.0967 1.2855 0.1547 1.9331 0.174v-18.828l-0.5801 0.4833zm-1.3531 16.208c-1.6817-0.2416-3.3248-0.7249-4.9195-1.4304-1.7011-0.7346-3.3055-1.7494-4.8036-3.0349-0.0386-0.0387-0.087-0.0677-0.1257-0.116l9.8487-8.0414v12.623z"/><path d="m49.992 48.919-11.212-9.1529-1.4015-1.1405-0.5315-0.4446v18.779c0.6475-0.0193 1.2951-0.087 1.933-0.174 4.0109-0.5606 7.8287-2.2713 10.95-4.9389 0.1256-0.1063 0.2513-0.2223 0.3769-0.3383 0.4929-0.4349 0.9568-0.8988 1.382-1.3724l-1.4979-1.2177zm-1.5174 1.4594c-2.7643 2.3679-6.1374 3.9047-9.6941 4.4556v-12.574l9.81 8.0123c-0.0388 0.0388-0.0773 0.0677-0.1159 0.1064z"/><path d="m55.336 27.173c-1.063-2.4259-2.5612-4.6006-4.4458-6.4853-1.8751-1.875-4.0497-3.3634-6.4563-4.417-0.0484-0.0193-0.0966-0.0386-0.145-0.058-1.7688-0.7635-3.6147-1.2854-5.5091-1.5367-0.6379-0.0967-1.2855-0.1547-1.933-0.174v21.186l1.933 1.5754 12.468 10.177 1.4981 1.2178c0.3866-0.5122 0.7636-1.0438 1.0922-1.5947 2.0393-3.2088 3.1894-6.9299 3.2862-10.777v-0.0966c0.0097-0.145 0.0097-0.3093 0.0097-0.464-1e-4 -2.9767-0.6092-5.8569-1.7979-8.5535zm-0.1353 8.9112c-0.0097 0.0484-0.0097 0.0967-0.0097 0.1547-0.0871 3.4214-1.0922 6.7365-2.8512 9.5974l-13.56-11.066v-18.141c1.6333 0.2416 3.2184 0.6959 4.7455 1.3628 0.058 0.0193 0.1161 0.0483 0.174 0.0677 2.1746 0.9568 4.1366 2.3003 5.828 3.9917 1.7107 1.7204 3.0736 3.7017 4.0401 5.9054 1.0825 2.4452 1.6335 5.0645 1.6335 7.7707v0.3575z"/></g></svg>