<svg xmlns="http://www.w3.org/2000/svg" id="a" viewBox="0 0 72 72"><g id="b"><circle cx="36" cy="36.883" r="25" fill="#fff"/><path fill="#3F3F3F" stroke-linecap="round" stroke-linejoin="round" stroke-miterlimit="10" stroke-width="2" d="m10.883 36.883c0 13.613 10.825 24.69 24.338 25.092-6.5806-0.4018-11.78-5.8647-11.78-12.533 0-6.9322 5.6137-12.558 12.558-12.558 6.9322 0 12.558-5.6261 12.558-12.558 0-6.6685-5.2117-12.131-11.792-12.533-0.2511-0.0126-0.5022-0.0251-0.766-0.0251s-0.5275 0-0.7786 0.0251c-13.513 0.4019-24.338 11.478-24.338 25.092z"/><circle cx="37.344" cy="48.939" r="4.019" fill="#3F3F3F" stroke-miterlimit="10" stroke-width="2"/><circle cx="37.344" cy="23.823" r="4.019" fill="#fff" stroke-miterlimit="10" stroke-width="2"/></g><g id="c" fill="none" stroke="#000" stroke-miterlimit="10" stroke-width="2"><path stroke-linecap="round" stroke-linejoin="round" d="m23.442 49.442c0 6.6685 5.1992 12.131 11.78 12.533 0.2637 0.0125 0.5148 0.0251 0.7786 0.0251s0.5149-0.0126 0.766-0.0251c13.513-0.3893 24.351-11.466 24.351-25.092s-10.838-24.702-24.351-25.092c6.5806 0.4019 11.792 5.8647 11.792 12.533 0 6.9322-5.6261 12.558-12.558 12.558-6.9446-1e-4 -12.558 5.626-12.558 12.558z"/><path stroke-linecap="round" stroke-linejoin="round" d="m10.883 36.883c0 13.613 10.825 24.69 24.338 25.092-6.5806-0.4018-11.78-5.8647-11.78-12.533 0-6.9322 5.6137-12.558 12.558-12.558 6.9322 0 12.558-5.6261 12.558-12.558 0-6.6685-5.2117-12.131-11.792-12.533-0.2511-0.0126-0.5022-0.0251-0.766-0.0251s-0.5275 0-0.7786 0.0251c-13.513 0.4019-24.338 11.478-24.338 25.092z"/><circle cx="37.344" cy="48.939" r="4.019"/><circle cx="37.344" cy="23.823" r="4.019"/></g></svg>