<svg xmlns="http://www.w3.org/2000/svg" id="a" version="1.1" viewBox="0 0 72 72"><g id="b"><rect width="48" height="47.83" x="12" y="12" fill="#b399c8"/></g><g id="c" fill="none" stroke="#000" stroke-linecap="round" stroke-linejoin="round"><path stroke-width="3" d="m51.01 35.99a15 15 0 1 1-15-15 15 15 0 0 1 15 15z"/><path stroke-width="3" d="m41 36a5 5 0 1 1-5-5.001 5.001 5.001 0 0 1 5 5.001z"/><line x1="36" x2="36" y1="31" y2="19" stroke-width="3"/><line x1="36" x2="36" y1="53" y2="41" stroke-width="3"/><rect width="48" height="48" x="12" y="12" stroke-width="2"/><line x1="41" x2="53" y1="36" y2="36" stroke-width="3"/><line x1="19" x2="31" y1="36" y2="36" stroke-width="3"/><line x1="39.54" x2="48.02" y1="32.46" y2="23.98" stroke-width="3"/><line x1="23.98" x2="32.46" y1="48.02" y2="39.54" stroke-width="3"/><line x1="32.46" x2="23.98" y1="32.46" y2="23.98" stroke-width="3"/><line x1="48.02" x2="39.54" y1="48.02" y2="39.54" stroke-width="3"/></g></svg>