<?xml version="1.0" encoding="UTF-8"?>
<svg id="a" viewBox="0 0 72 72" xmlns="http://www.w3.org/2000/svg"><g id="b"><path d="m36 13c-12.682 0-23 10.318-23 23 0 12.682 10.318 23 23 23 12.682 0 23-10.318 23-23 0-12.682-10.318-23-23-23z" fill="#FCEA2B"/></g><g id="c"><circle cx="36" cy="36" r="23" fill="none" stroke="#000" stroke-miterlimit="10" stroke-width="2"/><path d="m26.5 48c1.8768-3.8326 5.8239-6.1965 10-6 3.8343 0.1804 7.2926 2.4926 9 6" fill="none" stroke="#000" stroke-linecap="round" stroke-linejoin="round" stroke-miterlimit="10" stroke-width="2"/><path d="m30 31c0 1.6568-1.3448 3-3 3-1.6553 0-3-1.3433-3-3 0-1.6552 1.3447-3 3-3 1.6552 0 3 1.3448 3 3"/><path d="m48 31c0 1.6568-1.3447 3-3 3s-3-1.3433-3-3c0-1.6552 1.3447-3 3-3s3 1.3448 3 3"/></g></svg>
