<svg xmlns="http://www.w3.org/2000/svg" id="a" viewBox="0 0 72 72"><g id="b"><path fill="#9B9B9A" d="m51 25.968c0-8.2843-6.7158-15-15-15-8.2843 0-15 6.7157-15 15 0 7.429 5.4133 13.597 12.503 14.791v7.1515l-1.5027-3e-4h-6v5h6l1.5027 2e-4v8.9998l4.9974 0.0444v-9.0445l1.4999 1e-4h6v-5h-6l-1.4999-2e-4v-7.1493h-7e-4c0.0506-0.0085 0.1011-0.0172 0.1515-0.0262 7.0199-1.2518 12.349-7.3867 12.349-14.766zm-15 10c-5.5229 0-10-4.4772-10-10 0-5.5229 4.4771-10 10-10 5.5228 0 10 4.4771 10 10 0 5.5228-4.4772 10-10 10z"/></g><g id="c" fill="none" stroke="#000" stroke-linecap="round" stroke-linejoin="round" stroke-miterlimit="10" stroke-width="2"><path d="m38.5 40.761v7.1492l1.4999 2e-4h6v5h-6l-1.4999-2e-4v9.0445l-4.9974-0.0443v-8.9998l-1.5027-2e-4h-6v-5h6l1.5027 3e-4v-7.1515c-7.0893-1.1943-12.503-7.362-12.503-14.791 0-8.2843 6.7157-15 15-15s15 6.7157 15 15c0 7.3797-5.3292 13.515-12.349 14.766-0.0504 9e-3 -0.1009 0.0177-0.1515 0.0262"/><circle cx="36" cy="25.968" r="10"/></g></svg>