<svg xmlns="http://www.w3.org/2000/svg" id="a" version="1.1" viewBox="0 0 72 72"><g id="b"><rect width="48" height="47.83" x="12" y="12" fill="#b399c8"/></g><g id="c" fill="none" stroke="#000" stroke-linecap="round"><rect width="48" height="48" x="12" y="12" stroke-linejoin="round" stroke-width="2"/><path stroke-miterlimit="10" stroke-width="3" d="m52.05 41.23s-0.0772-3.854-3.211-3.802c0 0-3.21-0.0224-3.21 3.622s-3.211 3.622-3.211 3.622c-3.133 0.0508-3.21-3.763-3.21-3.763 1e-4 -3.683-3.21-3.66-3.21-3.66-3.134-0.0517-3.211 3.75-3.211 3.75-1e-4 3.669-3.211 3.647-3.211 3.647-3.134 0.0508-3.211-3.776-3.211-3.776 0-3.695-3.209-3.673-3.209-3.673-3.135-0.0508-3.211 3.802-3.211 3.802"/><path stroke-miterlimit="10" stroke-width="3" d="m52.05 31.36s-0.0772-3.854-3.211-3.802c0 0-3.21-0.0224-3.21 3.622s-3.211 3.622-3.211 3.622c-3.133 0.0508-3.21-3.763-3.21-3.763 1e-4 -3.683-3.21-3.66-3.21-3.66-3.134-0.0517-3.211 3.75-3.211 3.75-1e-4 3.669-3.211 3.647-3.211 3.647-3.134 0.0508-3.211-3.776-3.211-3.776 0-3.695-3.209-3.673-3.209-3.673-3.135-0.0508-3.211 3.802-3.211 3.802"/></g></svg>