<?xml version="1.0" encoding="UTF-8"?>
<svg id="a" viewBox="0 0 72 72" xmlns="http://www.w3.org/2000/svg"><g id="b"><polygon points="53.533 60.1 16.928 60.1 27.58 48.157 30.8 35.363 41.152 37.079 44.987 48.082" fill="#3f3f3f"/><polyline points="43.531 45.449 53.533 60.1 40.586 60.1"/><rect x="20.662" y="29.337" width="32.256" height="3.7256" fill="#3f3f3f"/><circle cx="36" cy="17" r="9.9999" fill="#3f3f3f"/><path d="m41.381 8.58a9.9888 9.9888 0 0 1-13.801 13.8 9.994 9.994 0 1 0 13.801-13.8z"/></g><g id="c" fill="none" stroke="#000" stroke-linecap="round" stroke-linejoin="round" stroke-width="2"><circle cx="36" cy="17" r="10"/><path d="m21.534 29.337a2.0189 2.0189 0 0 0 0 4"/><path d="m30.8 35.646c0 10.967-11.857 23.574-13.872 24.454h19.072"/><path d="M41.25,36.8969C42.0826,47.55,53.1331,59.2536,55.0723,60.1H36"/><path d="m52.047 33.337a2.0189 2.0189 0 0 0 0-4"/><line x1="21.534" x2="52.047" y1="29.337" y2="29.337"/><line x1="21.534" x2="52.047" y1="33.337" y2="33.337"/></g></svg>
