<svg xmlns="http://www.w3.org/2000/svg" id="a" viewBox="0 0 72 72"><g id="b"><path fill="none" stroke="#ea5a47" stroke-linecap="round" stroke-linejoin="round" stroke-width="2" d="m31.961 12.388s-9.4036 7.4062-1.7964 16.336-1.7964 16.336-1.7964 16.336h-2s9.4036-7.4061 1.7964-16.336 1.7964-16.336 1.7964-16.336z"/><path fill="none" stroke="#ea5a47" stroke-linecap="round" stroke-linejoin="round" stroke-width="2" d="m40.277 12.099s-9.4036 7.4062-1.7964 16.336-1.7964 16.336-1.7964 16.336h-2s9.4036-7.4062 1.7964-16.336 1.7964-16.336 1.7964-16.336z"/><path fill="#ea5a47" d="m20.201 31.772c-6.445 2.6625-8.29 6.1415-8.29 11.195 0 8.1563 11.008 14.768 24.588 14.768s24.588-6.612 24.588-14.768c0-4.9282-2.5719-8.2879-8.7486-10.971 7.0119 2.99 11.574 7.8532 11.574 13.345 0 9.0894-12.497 16.458-27.913 16.458s-27.913-7.3683-27.913-16.458c0-5.6313 4.7973-10.602 12.114-13.57z"/><path fill="#d22f27" d="m36 57.62q0.249 3e-3 0.4992 0.0029c13.58 0 24.588-6.6119 24.588-14.768 0-4.9281-2.5719-8.2878-8.7486-10.97 7.0119 2.99 11.574 7.8532 11.574 13.345 0 9.0894-12.497 16.458-27.913 16.458"/><path fill="none" stroke="#ea5a47" stroke-linecap="round" stroke-miterlimit="10" stroke-width="2" d="m26.781 45.06s9.4036-7.4061 1.7964-16.336 1.7964-16.336 1.7964-16.336"/><path fill="none" stroke="#ea5a47" stroke-linecap="round" stroke-linejoin="round" stroke-width="2" d="m48.782 12.099s-9.4036 7.4062-1.7964 16.336-1.7964 16.336-1.7964 16.336h-2s9.4036-7.4062 1.7964-16.336 1.7964-16.336 1.7964-16.336z"/><path fill="none" stroke="#ea5a47" stroke-linecap="round" stroke-miterlimit="10" stroke-width="2" d="m35.204 44.772s9.4036-7.4062 1.7964-16.336 1.7964-16.336 1.7964-16.336"/></g><g id="c" fill="none" stroke="#000" stroke-linecap="round" stroke-linejoin="round" stroke-width="2"><path d="m20.201 31.772c-6.445 2.6625-8.29 6.1415-8.29 11.195 0 8.1563 11.008 14.768 24.588 14.768s24.588-6.612 24.588-14.768c0-4.9282-2.5719-8.2879-8.7486-10.971 7.0119 2.99 11.574 7.8532 11.574 13.345 0 9.0894-12.497 16.458-27.913 16.458s-27.913-7.3683-27.913-16.458c0-5.6313 4.7973-10.602 12.114-13.57z"/><path d="m29.374 12.388s-9.4036 7.4062-1.7964 16.336"/><path d="m25.781 45.06s9.4036-7.4061 1.7964-16.336"/><path d="m46.219 12.099s-9.4036 7.4062-1.7964 16.336"/><path d="m42.626 44.772s9.4036-7.4062 1.7964-16.336"/><path d="M37.7964,12.099S28.3928,19.5052,36,28.4354"/><path d="m34.204 44.772s9.4036-7.4062 1.7964-16.336"/></g></svg>