<svg xmlns="http://www.w3.org/2000/svg" id="a" viewBox="0 0 72 72"><g id="b" stroke-linecap="round" stroke-linejoin="round" stroke-miterlimit="10" stroke-width="2"><path fill="#5C9E31" stroke="#5C9E31" d="m34.599 22.955-3.6234 5.9466-10-6 2.9936-5.047c1.4882-1.9298 4.1084-2.4725 6.2065-1.4143 0.4895 0.2469 0.8889 0.6454 1.1717 1.1151l3.2209 5.3487 0.0307 0.0509z"/><path fill="#5C9E31" stroke="#5C9E31" d="m44.595 41.732-3.4823-6.0303 10.059-5.9007 2.9947 5.0464c0.9804 2.2311 0.2008 4.7908-1.7335 6.125-0.4513 0.3113-0.9925 0.4708-1.5402 0.4939l-6.2381 0.2632-0.0595 0.0025z"/><path fill="#B1CC33" stroke="#b1cc33" d="m15.174 40.477 6.3786 11.715 0.0905 0.1672c0.457 0.8345 1.0227 0.8014 1.7954 0.8014h1.7755l5.9275-0.0201-0.1741-11.661-3.6013 0.0292-9.9074-0.0291h-0.0168c-0.0084-0.0037-1.6263 0.0036-1.6346-1e-4l-0.6333-1.0032z"/><path fill="#B1CC33" stroke="#b1cc33" d="m31.372 17.56 5.6282 9.3462-1.9038 1.2519 8.9038 0.7481 5-8-2 1-3-5-0.0966-0.1637c-0.4877-0.8169-1.1217-0.8302-1.8606-0.8302l-14.367-0.0054c-1e-4 1e-4 2.6027-0.1772 3.6964 1.6531z"/><path fill="#5C9E31" stroke="#5C9E31" d="m28 37.906-2-1-0.46 0.6599-2.37 3.9301-5.71-0.0199h-0.02c-0.01 0-0.02 0-0.02-0.01-2.14-0.9501-3.7-3.4701-2.69-5.7001l3.03-4.98-1.82-1.3099 9.41 0.7 2.65 7.7299z"/><path fill="#b1cc33" stroke="#b1cc33" d="m53.787 39.533-6.5944 12.041c-0.3555 0.6477-0.6895 1.5434-1.6403 1.5779l-0.2891 4e-4 -5.7482-8e-3 -0.0478 2.1256-4.6071-8.2326 4.754-7.761v2.2145l6.6396-0.0378 5.9102 0.1376 1.6231-2.0578z"/></g><g id="c" fill="none" stroke="#000" stroke-linecap="round" stroke-linejoin="round" stroke-miterlimit="10" stroke-width="2"><path d="m32.262 26.836-1.2615 2.0703-10-6 2.9936-5.047c1.4882-1.9298 4.1084-2.4725 6.2065-1.4143 0.4895 0.2469 0.8889 0.6454 1.1717 1.1151l5.6282 9.3462-1.9038 1.2519 8.9038 0.7481 5-8-2 1-3-5-0.0966-0.1637c-0.4877-0.8169-1.1217-0.8302-1.8606-0.8302l-7.0917-0.0054"/><path d="m14.734 35.766c-1.0145 2.2288-0.2617 4.7593 1.8762 5.7145 0 0 0.7482-0.0046 0.7566-9e-4l0.0915 1e-3 9.9074 0.0291 3.6013-0.0292 0.1741 11.66-5.9275 0.0201h-1.7755c-0.7727 0-1.3384 0.0331-1.7954-0.8014l-0.0905-0.1672-3.6618-6.7839"/><polyline points="14.734 35.766 17.76 30.782 15.943 29.478 25.352 30.174 28 37.906 26 36.906 25.537 37.567"/><path d="m42.327 37.75-1.2117-2.1088 10.072-5.8791 2.9838 5.0528c0.9756 2.2332 0.1905 4.7912-1.7467 6.1213-0.4519 0.3103-0.9935 0.4687-1.5413 0.4906l-11.269 0.0641v-2.2145l-4.754 7.761 4.6071 8.2326 0.0478-2.1256 5.7482 8e-3 0.2891-4e-4c0.9508-0.0344 1.2847-0.9301 1.6403-1.5779l3.3361-6.0667"/></g></svg>