<?xml version="1.0" encoding="UTF-8"?>
<svg id="a" viewBox="0 0 72 72" xmlns="http://www.w3.org/2000/svg"><g id="b"><path d="m54.215 34.11-5.2701 9.12h3.1702c-2.4101 5.55-7.6001 9.37-13.58 10.07v-23.88h4c1.2053 0 2.1704-1.0684 1.9747-2.3241-0.154-0.9877-1.0771-1.6759-2.0766-1.6759h-3.8981v-2.41c2.0104-0.891 3.3423-3.0605 2.9227-5.4805-0.3413-1.9684-1.8948-3.5908-3.8506-3.9978-3.2277-0.6717-6.0721 1.7782-6.0721 4.8883 0 2.05 1.24 3.81 3 4.59v2.41h-3.898c-0.9996 0-1.9227 0.6882-2.0766 1.6759-0.1958 1.2557 0.7694 2.3241 1.9746 2.3241h4v23.88c-5.9299-0.71-11.17-4.56-13.58-10.07h3.1001l-5.2701-9.12-5.27 9.12h3.28c0 0.24 0.0541 0.4652 0.13 0.71 2.6723 8.6078 16.563 15.168 19.099 16.304 0.2569 0.1151 0.5388 0.1164 0.7966 0.0034 2.5781-1.1294 16.862-7.7541 19.585-17.017h3.08l-5.27-9.12zm-17.68-16.69c0.5501 0 1 0.45 1 1s-0.4499 1-1 1c-0.55 0-1-0.45-1-1s0.45-1 1-1z" fill="#d0cfce" stroke-linecap="round" stroke-linejoin="round" stroke-miterlimit="10" stroke-width="2"/></g><g id="c"><path d="m54.215 34.11-5.2701 9.12h3.1702c-2.4101 5.55-7.6001 9.37-13.58 10.07v-23.88h4c1.2053 0 2.1704-1.0684 1.9747-2.3241-0.154-0.9877-1.0771-1.6759-2.0766-1.6759h-3.8981v-2.41c2.0104-0.891 3.3423-3.0605 2.9227-5.4805-0.3413-1.9684-1.8948-3.5908-3.8506-3.9978-3.2277-0.6717-6.0721 1.7782-6.0721 4.8883 0 2.05 1.24 3.81 3 4.59v2.41h-3.898c-0.9996 0-1.9227 0.6882-2.0766 1.6759-0.1958 1.2557 0.7694 2.3241 1.9746 2.3241h4v23.88c-5.9299-0.71-11.17-4.56-13.58-10.07h3.1001l-5.2701-9.12-5.27 9.12h3.28c0 0.24 0.0541 0.4652 0.13 0.71 2.6723 8.6078 16.563 15.168 19.099 16.304 0.2569 0.1151 0.5388 0.1164 0.7966 0.0034 2.5781-1.1294 16.862-7.7541 19.585-17.017h3.08l-5.27-9.12zm-17.68-16.69c0.5501 0 1 0.45 1 1s-0.4499 1-1 1c-0.55 0-1-0.45-1-1s0.45-1 1-1z" fill="none" stroke="#000" stroke-linecap="round" stroke-linejoin="round" stroke-miterlimit="10" stroke-width="2"/></g></svg>
