<?xml version="1.0" encoding="UTF-8"?>
<svg id="a" viewBox="0 0 72 72" xmlns="http://www.w3.org/2000/svg"><g id="b"><g id="c"><path d="m29.869 49.888s3.8768-0.1914 1.57-2.9351a27.351 27.351 0 0 1-9.9789-5.3369s-3.6038 1.0922-0.9827 3.2489a44.52 44.52 0 0 1 9.3916 5.0231z" fill="#9b9b9a"/><path d="m43.91 13.211a25.773 25.773 0 0 1-2.7051 9.5749l-11.29 21.818a22.406 22.406 0 0 1-4.52-2.4173l11.878-21.504a25.775 25.775 0 0 1 6.4619-7.5657" fill="#d0cfce"/><path d="m18.326 55.944a1.997 1.997 0 1 0 3.522 1.8837 88.168 88.168 0 0 0 3.8491-10.02l-1.1741-0.6279a88.164 88.164 0 0 0-6.197 8.7642z" fill="#9b9b9a"/><path d="m51.523 44.865c2.6211-2.1567-0.9827-3.2489-0.9827-3.2489a27.351 27.351 0 0 1-9.9791 5.3369c-2.3071 2.7437 1.57 2.9351 1.57 2.9351a44.52 44.52 0 0 1 9.3918-5.0231z" fill="#9b9b9a"/><path d="m29.266 14.116a25.775 25.775 0 0 1 6.4619 7.5657l11.878 21.504a22.406 22.406 0 0 1-4.52 2.4173l-11.291-21.818a25.773 25.773 0 0 1-2.7047-9.5749" fill="#d0cfce"/><path d="m53.674 55.944a1.997 1.997 0 1 1-3.522 1.8837 88.168 88.168 0 0 1-3.8491-10.02l1.1741-0.6279a88.164 88.164 0 0 1 6.197 8.7642z" fill="#9b9b9a"/></g></g><g id="d"><g id="e" fill="none" stroke="#000" stroke-linecap="round" stroke-linejoin="round" stroke-width="2"><path d="m40.342 46.542a1.9971 1.9971 0 0 0 1.8836 3.5221"/><path d="m51.617 45.041a1.997 1.997 0 0 0-1.8836-3.522"/><path d="m51.617 45.041a22.173 22.173 0 0 0-9.3921 5.0231"/><path d="m40.342 46.542a22.172 22.172 0 0 0 9.3921-5.023"/><path d="m53.674 55.944a1.997 1.997 0 1 1-3.522 1.8837 88.168 88.168 0 0 1-3.8491-10.02l1.1741-0.6279a88.164 88.164 0 0 1 6.197 8.7642z"/><path d="m28.266 13.116a25.775 25.775 0 0 1 6.4619 7.5657l12.192 22.091a22.404 22.404 0 0 1-4.5194 2.4172l-11.605-22.404a25.773 25.773 0 0 1-2.7047-9.5749"/><path d="m29.775 50.064a1.9971 1.9971 0 0 0 1.8836-3.5221"/><path d="m22.266 41.519a1.997 1.997 0 1 0-1.8836 3.522"/><path d="m29.775 50.064a22.173 22.173 0 0 0-9.3921-5.0231"/><path d="m22.266 41.519a22.172 22.172 0 0 0 9.3921 5.023"/><path d="m37.705 19.955a30.83 30.83 0 0 1 6.03-6.8384"/><path d="m34.343 36.034-4.7427 9.1563a22.404 22.404 0 0 1-4.52-2.4173l6.36-11.523"/><path d="m43.91 13.211a25.773 25.773 0 0 1-2.7051 9.5749l-0.9124 1.7576"/><path d="m18.326 55.944a1.997 1.997 0 1 0 3.522 1.8837 88.168 88.168 0 0 0 3.8491-10.02l-1.1741-0.6279a88.164 88.164 0 0 0-6.197 8.7642z"/></g></g></svg>
