<svg xmlns="http://www.w3.org/2000/svg" id="a" viewBox="0 0 72 72"><g id="b"><path fill="#B1CC33" stroke="#B1CC33" stroke-linecap="round" stroke-linejoin="round" stroke-miterlimit="10" stroke-width="1.8" d="m31.88 32.544h3.0758c1.081 0 1.9573 0.8763 1.9573 1.9573s-0.8763 1.9573-1.9573 1.9573h-12.863c-3.4747 0-6.2915 2.8168-6.2915 6.2915s2.8168 6.2915 6.2915 6.2915h5.82l0.1518-4.1943h-5.6921c-1.081 0-2.1149-0.8916-2.1149-1.9726s1.0339-1.9421 2.1149-1.9421h12.443c3.4747 0 6.2915-2.8168 6.2915-6.2915s-2.8168-6.2915-6.2915-6.2915h-2.936v4.1944z"/><path fill="#5C9E31" stroke="#5C9E31" stroke-linecap="round" stroke-linejoin="round" stroke-miterlimit="10" stroke-width="1.8" d="m25.682 52.957h6.2564c1.0718 0 2.0064-0.8259 2.0385-1.8971 0.0333-1.1085-0.8554-2.0176-1.9564-2.0176v-4.1943h0.2686c3.4114 0 6.317 2.6528 6.4382 6.062 0.1273 3.5793-2.7365 6.5209-6.2874 6.5209h-11.045v0c0.3544-1.7722 1.476-3.2963 3.0626-4.1617v0c0.3756-0.2049 0.7967-0.3122 1.2245-0.3122z"/><path fill="#B1CC33" stroke="#B1CC33" stroke-linecap="round" stroke-linejoin="round" stroke-miterlimit="10" stroke-width="2" d="m38.526 49.554c0.1156 0.4344 0.1846 0.8879 0.2013 1.3557 0.1273 3.5793-2.7365 6.5209-6.2874 6.5209h-11.045v0c0.3544-1.7722 1.476-3.2963 3.0626-4.1617v0c0.3756-0.2049 0.7966-0.3122 1.2245-0.3122h6.2564c0.6261 0 1.2055-0.2819 1.5854-0.7299l5.0022-2.6728z"/><polyline fill="#5C9E31" stroke="#5C9E31" stroke-linecap="round" stroke-linejoin="round" stroke-miterlimit="10" stroke-width="1.8" points="32.02 49.042 28.264 49.042 28.264 44.848 32.02 44.848"/><path fill="#5C9E31" d="m22.017 39.95s-7.0835 1.3718-6.6981 5.5566c0 0 1.5016 2.8532 3.3237 3.3165l5.4135 1.2276h2.9924v-6.2l-5.1829-0.0391-1.4931-0.648 1.4261-1.743 0.2184-1.4706z"/><path fill="#B1CC33" stroke="#B1CC33" stroke-linecap="round" stroke-linejoin="round" stroke-miterlimit="10" stroke-width="1.8" d="m53.129 19.883c0 4.333-7.5 4.5-7.5 4.5l-9.0336 0.0479-0.2124 0.0041h-16.965c-0.975 0-1.8787 0.6663-2.0353 1.6286-0.1995 1.2263 0.7418 2.2861 1.9306 2.2861h8.7861l-0.0654 4.1943h-3.9671-4.7694c-3.4449 0-6.449-2.6546-6.5523-6.0979-0.1069-3.563 2.7496-6.485 6.2886-6.485h16.777l0.0694-1e-4h0c0.9191-0.0536 1.6803-0.7117 1.8908-1.608 0.6815-2.9017 3.2865-5.062 6.3961-5.062"/><path fill="#B1CC33" d="m44.167 13.291c3.628 0 8.962 2.964 8.962 6.592"/><path fill="#5C9E31" d="m40.055 35.098s0.3106-2.1447-0.5502-3.2538c-1.1194-1.4422-2.6599-3.9045-5.0267-4.4977h-6.0243l0.184 6.203h6.6038c0.8129-0.2732 1.2617-0.2283 1.7893-0.07 0.8758 0.2629 1.6941 0.689 2.4436 1.2129l0.5805 0.4056z"/><path fill="#5C9E31" d="m17.318 27.843c0.9637 0.7905 2.4037 0.5477 3.0549-0.515l6.8774 0.0181-0.0809 6.1896c-1.7968-0.0299-3.6842 0.107-5.0206-0.1243-7.325-1.2678-8.0362-5.2822-8.0362-5.2822s0.4486-4.6934 5.3821-4.6934l-1.5559 1.5603c-0.8572 0.2494-1.4626 1.014-1.5088 1.9056l0.888 0.9413z"/></g><g id="c"><path fill="none" stroke="#000" stroke-linecap="round" stroke-linejoin="round" stroke-miterlimit="10" stroke-width="2" d="m24.129 44.848h-1.7993c-1.081 0-1.9573-0.8763-1.9573-1.9573s0.8763-1.9573 1.9573-1.9573h12.443c3.4747 0 6.2915-2.8168 6.2915-6.2915s-2.8168-6.2915-6.2915-6.2915h-2.936"/><path fill="none" stroke="#000" stroke-linecap="round" stroke-linejoin="round" stroke-miterlimit="10" stroke-width="2" d="m31.837 32.544h3.0758c1.081 0 1.9573 0.8763 1.9573 1.9573s-0.8763 1.9573-1.9573 1.9573h-12.862c-3.4747 0-6.2915 2.8168-6.2915 6.2915s2.8168 6.2915 6.2915 6.2915h2.0789"/><path fill="none" stroke="#000" stroke-linecap="round" stroke-linejoin="round" stroke-width="2" d="m24.066 32.544h-4.7694c-3.4449 0-6.449-2.6546-6.5523-6.0979-0.1069-3.563 2.7496-6.485 6.2886-6.485h16.777l0.0694-1e-4h0c0.9191-0.0536 1.6803-0.7117 1.8908-1.608 0.6815-2.9017 3.2865-5.062 6.3961-5.062"/><path fill="none" stroke="#000" stroke-linecap="round" stroke-linejoin="round" stroke-width="2" d="m53.129 19.883c0 4.333-7.5 4.5-7.5 4.5l-9.0336 0.0479-0.2124 0.0041h-16.965c-0.975 0-1.8787 0.6663-2.0353 1.6286-0.1995 1.2263 0.7418 2.2861 1.9306 2.2861h4.7536"/><path fill="none" stroke="#000" stroke-linecap="round" stroke-linejoin="round" stroke-width="1.8" d="m44.167 13.291c3.628 0 8.962 2.964 8.962 6.592"/><path fill="none" stroke="#000" stroke-linecap="round" stroke-miterlimit="10" stroke-width="2" d="m50.981 23.838s3.793 4.054 7.585 4.577"/><line x1="58.069" x2="62.907" y1="28.415" y2="26.192" fill="none" stroke="#000" stroke-linecap="round" stroke-miterlimit="10" stroke-width="2"/><line x1="59.115" x2="58.069" y1="32.992" y2="28.415" fill="none" stroke="#000" stroke-linecap="round" stroke-miterlimit="10" stroke-width="2"/><line x1="28.065" x2="28.065" y1="58.237" y2="62.962" fill="none" stroke="#000" stroke-linecap="round" stroke-linejoin="round" stroke-width="2"/><line x1="28.065" x2="28.065" y1="41.858" y2="51.877" fill="none" stroke="#000" stroke-linecap="round" stroke-linejoin="round" stroke-width="2"/><polyline fill="none" stroke="#000" stroke-linecap="round" stroke-linejoin="round" stroke-width="2" points="28.065 25.398 28.065 27.349 28.065 33.542 28.065 35.576"/><line x1="28.065" x2="28.065" y1="15.038" y2="18.881" fill="none" stroke="#000" stroke-linecap="round" stroke-linejoin="round" stroke-width="2"/><circle cx="28.065" cy="12.038" r="3"/><path fill="none" stroke="#000" stroke-linecap="round" stroke-linejoin="round" stroke-miterlimit="10" stroke-width="2" d="m32.02 44.848h0.2686c3.4114 0 6.317 2.6528 6.4382 6.062 0.1273 3.5793-2.7365 6.5209-6.2874 6.5209h-11.045v0c0.3544-1.7722 1.476-3.2963 3.0626-4.1617v0c0.3756-0.2049 0.7966-0.3122 1.2245-0.3122h6.2564c1.0718 0 2.0064-0.8259 2.0385-1.8971 0.0333-1.1085-0.8554-2.0176-1.9564-2.0176"/></g></svg>