<?xml version="1.0" encoding="UTF-8"?>
<svg id="a" viewBox="0 0 72 72" xmlns="http://www.w3.org/2000/svg"><g id="b"><path d="m48.063 62.92c0-3.3137-5.5964-6-12.5-6s-12.5 2.6863-12.5 6h25z" fill="#9B9B9A"/><path d="m24.901 46.966c0 2.1938-2.1985 3.9723-4.9106 3.9723s-4.9106-1.7785-4.9106-3.9723h9.8212z" fill="#D0CFCE"/><path d="m57.901 46.925c0 2.1938-2.1985 3.9723-4.9106 3.9723-2.712 0-4.9106-1.7785-4.9106-3.9723h9.8212z" fill="#D0CFCE"/></g><g id="c"><path d="m16 25.17c2.6667 1e-4 8.9544-5.3333 20-5.3333s14.667 4.0001 20 5.3333" fill="none" stroke="#000" stroke-linecap="round" stroke-linejoin="round" stroke-miterlimit="10" stroke-width="2"/><line x1="36" x2="36" y1="23.906" y2="51.906" fill="none" stroke="#000" stroke-linecap="round" stroke-linejoin="round" stroke-miterlimit="10" stroke-width="2"/><circle cx="36" cy="13.895" r="3"/><path d="m48 61.906c0-3.3137-5.5964-6-12.5-6s-12.5 2.6863-12.5 6" fill="none" stroke="#000" stroke-linecap="round" stroke-linejoin="round" stroke-miterlimit="10" stroke-width="2"/><path d="m26 45.906c0 3.3137-2.6863 6-6 6s-6-2.6863-6-6h12z" fill="none" stroke="#000" stroke-linecap="round" stroke-linejoin="round" stroke-miterlimit="10" stroke-width="2"/><polygon points="20 27.906 15 45.906 25 45.906" fill="none" stroke="#000" stroke-linecap="round" stroke-linejoin="round" stroke-miterlimit="10" stroke-width="2"/><line x1="20" x2="20" y1="27.906" y2="45.906" fill="none" stroke="#000" stroke-linecap="round" stroke-linejoin="round" stroke-miterlimit="10" stroke-width="2"/><path d="m59 45.906c0 3.3137-2.6863 6-6 6s-6-2.6863-6-6h12z" fill="none" stroke="#000" stroke-linecap="round" stroke-linejoin="round" stroke-miterlimit="10" stroke-width="2"/><polygon points="53 27.906 48 45.906 58 45.906" fill="none" stroke="#000" stroke-linecap="round" stroke-linejoin="round" stroke-miterlimit="10" stroke-width="2"/><line x1="53" x2="53" y1="27.906" y2="45.906" fill="none" stroke="#000" stroke-linecap="round" stroke-linejoin="round" stroke-miterlimit="10" stroke-width="2"/></g></svg>
