<?xml version="1.0" encoding="UTF-8"?>
<svg id="a" viewBox="0 0 72 72" xmlns="http://www.w3.org/2000/svg"><g id="b"><g id="c"><path d="m17.974 37.97c2.3079 5.3821 8.3214 10.764 14.7 10.764s11.912-5.6449 14.7-10.764z" fill="#92d3f5"/><path d="m41.749 37.97c-2.46 4.5156-6.9725 9.914-12.4 10.618a17.218 17.218 0 0 0 2.2169 0.1465c6.3789 0 14.129-5.6449 16.917-10.764z" fill="#61b2e4"/></g></g><g id="d"><g id="e" fill="none" stroke="#000" stroke-linecap="round" stroke-linejoin="round" stroke-width="2"><path d="m49.302 32.588 7.6734 5.4653 2.3028-2.2361s-12.441-19.375-26.603-19.375a16.392 16.392 0 0 0-16.627 16.146 16.392 16.392 0 0 0 16.627 16.146 16.392 16.392 0 0 0 16.627-16.146"/><polyline points="12.722 55.558 18.265 44.794 47.085 44.794 52.627 55.558"/><line x1="32.675" x2="32.675" y1="44.794" y2="55.558"/></g></g></svg>
