<svg xmlns="http://www.w3.org/2000/svg" id="a" viewBox="0 0 72 72"><g id="b"><path fill="#D0CFCE" d="m51.258 29.811s-1.8149-0.4504-1.0786-2.0742l4.5037-7.4841-3.6502-3.417-0.73-0.6833-7.1357 4.6903c-0.9431 0.4213-2.037-0.1166-2.2794-1.1205l-1.887-7.8158h-6l-1.8809 7.7858c-0.2389 0.9894-1.3101 1.5798-2.2425 1.1716-0.0148-0.0063-0.0296-0.0131-0.0445-0.0198l-7.1357-4.6904-0.73 0.6833-3.6502 3.417 4.5037 7.4841c0.7364 1.6238-1.0785 2.0743-1.0785 2.0743l-8.4766 2.1074 0.1649 4.9972 0.033 0.9995 8.3622 1.7291c0.952 0.3641 1.3501 1.4954 0.8358 2.3755l-0.0328 0.0562-4.5037 7.484 3.6502 3.417 0.73 0.6833 7.1357-4.6902c0.0149-0.0068 0.03-0.0129 0.0445-0.02 0 0 0.0115-0.0042 0.0332-0.0111 1.1606-0.3768 2.393 0.3463 2.6794 1.5325l1.7947 7.4336h6l1.887-7.8158c0.2424-1.0039 1.3364-1.5417 2.2794-1.1205l7.1357 4.6903 0.73-0.6833 3.6502-3.417-4.5037-7.4841-0.0328-0.0562c-0.5143-0.88-0.1162-2.0112 0.8358-2.3755l8.3622-1.729 0.033-0.9995 0.1649-4.9973-8.4764-2.1074zm-15.258 15.095c-5.5228 0-10-4.4772-10-10s4.4772-10 10-10 10 4.4772 10 10-4.4772 10-10 10z"/><path fill="#9B9B9A" d="m36 24.906c-5.5228 0-10 4.4772-10 10s4.4772 10 10 10 10-4.4772 10-10-4.4772-10-10-10zm0 15c-2.7614 0-5-2.2386-5-5 0-2.7615 2.2386-5 5-5s5 2.2385 5 5c0 2.7614-2.2386 5-5 5z"/></g><g id="c" fill="none" stroke="#000" stroke-linecap="round" stroke-linejoin="round" stroke-miterlimit="10" stroke-width="2"><circle cx="36" cy="34.906" r="5"/><circle cx="36" cy="34.906" r="10"/><path d="m31.119 19.692c-0.2389 0.9895-1.31 1.5799-2.2425 1.1717-0.0147-0.0065-0.0296-0.0131-0.0445-0.0199l-7.1357-4.6903-0.73 0.6834-3.6502 3.417 4.5037 7.484c0.7363 1.6239-1.0785 2.0744-1.0785 2.0744l-8.4766 2.1074 0.1649 4.9973 0.033 0.9995 8.3622 1.7291c0.9521 0.3641 1.3501 1.4954 0.8359 2.3754l-0.0328 0.0562-4.5037 7.484 3.6502 3.417 0.73 0.6834 7.1357-4.6903c0.0149-0.0068 0.03-0.0129 0.0445-0.0199 0 0 0.0116-0.0042 0.0332-0.0112 1.1606-0.3768 2.393 0.3463 2.6794 1.5324l1.7947 7.4336h6l1.8869-7.8157c0.2424-1.004 1.3364-1.5418 2.2794-1.1205l7.1357 4.6903 0.73-0.6834 3.6502-3.417-4.5037-7.484-0.0328-0.0562c-0.5143-0.8801-0.1162-2.0113 0.8359-2.3755l8.3622-1.7291 0.033-0.9995 0.1649-4.9973-8.4766-2.1074s-1.8149-0.4505-1.0785-2.0744l4.5037-7.484-3.6502-3.417-0.73-0.6834-7.1357 4.6903c-0.943 0.4212-2.037-0.1166-2.2794-1.1206l-1.887-7.8155h-6l-1.8809 7.7857"/></g></svg>