<svg xmlns="http://www.w3.org/2000/svg" id="a" viewBox="0 0 72 72"><g id="b" fill="#92D3F5" stroke="#92D3F5" stroke-linejoin="round" stroke-miterlimit="10"><path stroke-width="1.8" d="m28.127 22.764c-0.3952 2.3126-0.6857 4.7995-0.8483 7.4259-3.3469 1.871-6.3451 3.8466-8.8669 5.8105-6.1591-4.7995-9.4596-9.5293-8.0767-12.435 1.5689-3.3003 8.6925-3.405 17.792-0.8018z"/><path stroke-width="1.8" d="m62.642 48.435c-1.5688 3.3004-8.6926 3.405-17.804 0.8019-2.638-0.7554-5.4504-1.7432-8.344-2.9518-1.3363-0.5462-2.6844-1.1388-4.0441-1.7896-1.8013-0.8599-3.5329-1.7548-5.1713-2.6728-0.128-1.8826-0.1976-3.8233-0.1976-5.8222 0-1.9872 0.0697-3.9396 0.1976-5.8105 1.6385-0.918 3.37-1.8129 5.1713-2.6728 1.3597-0.6508 2.7078-1.2551 4.0441-1.8013 1.325 0.5578 2.6729 1.1505 4.0325 1.8013 1.8013 0.8483 3.5212 1.7432 5.1598 2.6612 0.1278 1.8826 0.1976 3.8234 0.1976 5.8222 0 1.9989-0.0698 3.9512-0.1976 5.8338 3.3585-1.8826 6.3568-3.8582 8.8785-5.8338 6.1593 4.7993 9.4597 9.5291 8.0767 12.434z"/><path stroke-width="1.8" d="m44.838 49.236c-1.5456 9.3433-4.7065 15.723-8.3556 15.723-3.6489 0-6.8098-6.38-8.3555-15.723 2.6496-0.7554 5.4619-1.7432 8.3671-2.9518 2.8937 1.2087 5.706 2.1964 8.344 2.9518z"/><path stroke-width="1.8" d="m44.838 22.764c-2.638 0.7554-5.4504 1.7432-8.344 2.9518-2.9053-1.2086-5.7175-2.1964-8.3671-2.9518 1.5573-9.3433 4.7066-15.723 8.3555-15.723 3.6492-1e-4 6.7985 6.3799 8.3556 15.723z"/><path stroke-width="2" d="m36.494 25.715c-1.3363 0.5462-2.6844 1.1505-4.0441 1.8013-1.8013 0.8599-3.5329 1.7548-5.1713 2.6728 0.1626-2.6264 0.4531-5.1133 0.8483-7.4259 2.6496 0.7554 5.4619 1.7431 8.3671 2.9518z"/><path stroke-width="2" d="m45.884 36c0 1.9989-0.0698 3.9512-0.1976 5.8338-0.1627 2.6147-0.4532 5.1016-0.8483 7.4026-2.638-0.7554-5.4504-1.7432-8.344-2.9518-1.3363-0.5462-2.6844-1.1388-4.0441-1.7896-1.8013-0.8599-3.5329-1.7548-5.1713-2.6728-0.128-1.8826-0.1976-3.8233-0.1976-5.8222 0-1.9872 0.0697-3.9396 0.1976-5.8105 1.6385-0.918 3.37-1.8129 5.1713-2.6728 1.3597-0.6508 2.7078-1.2551 4.0441-1.8013 1.325 0.5578 2.6729 1.1505 4.0325 1.8013 1.8013 0.8483 3.5212 1.7432 5.1598 2.6612 0.1278 1.8825 0.1976 3.8233 0.1976 5.8221z"/><path stroke-width="2" d="m36.494 46.285c-2.9053 1.2086-5.7175 2.1964-8.3671 2.9518-0.3952-2.301-0.6857-4.7995-0.8483-7.4143 1.6385 0.918 3.37 1.8129 5.1713 2.6728 1.3597 0.6509 2.7078 1.2436 4.0441 1.7897z"/><path stroke-width="1.8" d="m28.127 49.236c-9.111 2.6031-16.223 2.4869-17.792-0.8019-1.3828-2.9052 1.9177-7.635 8.0768-12.434 2.5218 1.9756 5.52 3.9512 8.8669 5.8222 0.1625 2.6147 0.4531 5.1132 0.8483 7.4142z"/><path stroke-width="2" d="m27.081 36c0 1.9989 0.0697 3.9396 0.1976 5.8222-3.3469-1.871-6.3451-3.8466-8.8669-5.8222 2.5218-1.964 5.52-3.9396 8.8669-5.8105-0.128 1.8709-0.1976 3.8233-0.1976 5.8105z"/><path stroke-width="2" d="m45.687 30.178c-1.6386-0.918-3.3585-1.8129-5.1598-2.6612-1.3596-0.6508-2.7075-1.2435-4.0325-1.8013 2.8936-1.2086 5.706-2.1964 8.344-2.9518 0.395 2.3011 0.6855 4.7996 0.8483 7.4143z"/><path stroke-width="1.8" d="m54.565 36c-2.5217-1.964-5.52-3.9396-8.8785-5.8222-0.1627-2.6147-0.4532-5.1132-0.8483-7.4143 9.1109-2.6031 16.235-2.4985 17.804 0.8019 1.3829 2.9053-1.9175 7.6351-8.0767 12.435z"/><path stroke-width="2" d="m45.687 41.834c0.1278-1.8826 0.1976-3.8349 0.1976-5.8338 0-1.9988-0.0698-3.9396-0.1976-5.8222 3.3585 1.8826 6.3568 3.8582 8.8785 5.8222-2.5217 1.9756-5.52 3.9512-8.8785 5.8338z"/><path stroke-width="2" d="m45.884 36c0 1.9989-0.0698 3.9512-0.1976 5.8338-1.6386 0.918-3.3585 1.8129-5.1598 2.6612-1.3596 0.6391-2.7075 1.2435-4.0325 1.7896-1.3363-0.5462-2.6844-1.1388-4.0441-1.7896-1.8013-0.8599-3.5329-1.7548-5.1713-2.6728-0.128-1.8826-0.1976-3.8233-0.1976-5.8222 0-1.9872 0.0697-3.9396 0.1976-5.8105 1.6385-0.918 3.37-1.8129 5.1713-2.6728 1.3597-0.6508 2.7078-1.2551 4.0441-1.8013 1.325 0.5578 2.6729 1.1505 4.0325 1.8013 1.8013 0.8483 3.5212 1.7432 5.1598 2.6612 0.1278 1.8825 0.1976 3.8233 0.1976 5.8221z"/></g><g id="c" fill="none" stroke="#000" stroke-miterlimit="10" stroke-width="2"><path stroke-linejoin="round" d="m18.412 36c-6.1591-4.7995-9.4596-9.5293-8.0767-12.435 1.569-3.3004 8.6926-3.405 17.792-0.8019"/><path stroke-linejoin="round" d="m54.565 36c6.1592 4.7995 9.4596 9.5293 8.0766 12.435-1.5688 3.3004-8.6926 3.405-17.804 0.8019-2.638-0.7554-5.4504-1.7432-8.344-2.9518-1.3363-0.5462-2.6844-1.1388-4.0441-1.7896-1.8013-0.8599-3.5329-1.7548-5.1713-2.6728"/><path stroke-linecap="round" stroke-linejoin="round" d="m44.092 53c-1.6996 7.2511-4.4743 11.96-7.6092 11.96-3.6489 0-6.8098-6.38-8.3555-15.723l-0.4842-2.3455"/><path stroke-linecap="round" stroke-linejoin="round" d="m28.927 18.79c1.7085-7.1316 4.4512-11.749 7.5555-11.749 3.6492 0 6.7985 6.38 8.3556 15.723"/><path stroke-linejoin="round" d="m28.127 22.764c2.6496 0.7554 5.4619 1.7432 8.3671 2.9518"/><path stroke-linejoin="round" d="m44.838 49.236c-2.638-0.7554-5.4504-1.7432-8.344-2.9518-1.3363-0.5462-2.6844-1.1388-4.0441-1.7896-1.8013-0.8599-3.5329-1.7548-5.1713-2.6728"/><path stroke-linecap="round" stroke-linejoin="round" d="m45.868 34.35c0.0105 0.5455 0.0159 1.0955 0.0159 1.6499 0 1.9989-0.0698 3.9512-0.1976 5.8338-0.0533 0.8571-0.1204 1.7004-0.2004 2.528"/><path stroke-linecap="round" stroke-linejoin="round" d="m23.718 50.317c-6.9369 1.3942-12.078 0.8539-13.383-1.882-1.1056-2.3228 0.7824-5.8117 4.7314-9.5702"/><path stroke-linejoin="round" d="m27.134 41.741c-3.2884-1.8469-6.2364-3.7938-8.7216-5.7408"/><path stroke-linejoin="round" d="m27.279 41.822c-0.0485-0.0271-0.097-0.0543-0.1453-0.0814"/><path stroke-linecap="round" stroke-linejoin="round" d="m44.838 22.764c0.1379 0.803 0.263 1.63 0.3744 2.4777"/><path stroke-linecap="round" stroke-linejoin="round" d="m49.131 21.706c6.9986-1.4263 12.198-0.9018 13.511 1.8591 1.0638 2.2348-0.6435 5.5491-4.2915 9.1443"/><path stroke-linecap="round" stroke-linejoin="round" d="m54.565 36c-2.5217-1.964-5.52-3.9396-8.8785-5.8222"/><path stroke-linejoin="round" d="m45.687 30.178c3.3585 1.8826 6.3568 3.8582 8.8785 5.8222"/><path stroke-linecap="round" stroke-linejoin="round" d="m41.666 43.947c-0.2817 0.1403-0.5677 0.2787-0.8578 0.4148"/><path stroke-linejoin="round" d="m36.494 25.715c1.325 0.5578 2.6729 1.1505 4.0325 1.8013 1.8013 0.8483 3.5212 1.7432 5.1598 2.6612"/><path stroke-linecap="round" stroke-linejoin="round" d="m27.09 36.722c-0.0061-0.5548-0.0092-1.1129-0.0092-1.6746 0-2.6514 0.0697-5.2563 0.1976-7.7526"/><path stroke-linejoin="round" d="m36.494 46.285c-1.3363-0.5462-2.6844-1.1388-4.0441-1.7896-1.8013-0.8599-3.5329-1.7548-5.1713-2.6728"/><circle cx="36.826" cy="36.327" r="3.263"/><path stroke-linecap="round" stroke-linejoin="round" d="m31.61 48.364s0.3376-0.0601 0.9707-0.3281"/><path stroke-linecap="round" stroke-linejoin="round" d="m49.702 39.967s1.4042-0.8972 1.6463-1.1023"/><path stroke-linecap="round" stroke-linejoin="round" d="m31.707 27.295c-0.2829 0.143-0.5659 0.2907-0.8485 0.4432"/><path stroke-linecap="round" stroke-linejoin="round" d="m22.221 32.768s0.2273-0.2384 0.8141-0.5891"/><path stroke-linecap="round" stroke-linejoin="round" d="m39.752 23.202s1.6145-0.5904 1.9449-0.6609"/></g></svg>