<?xml version="1.0" encoding="UTF-8"?>
<svg id="a" viewBox="0 0 72 72" xmlns="http://www.w3.org/2000/svg"><g id="b"><rect x="26.589" y="46.453" width="19.083" height="3.5434" fill="#fcea2b" stroke="#fcea2b" stroke-miterlimit="10" stroke-width=".9541"/><path d="M38.3593,53.3015c.7194,2.8877,1.9365,3.03,1.9365,6.2157,0,4.5215-4.2132,6.9738-4.2132,6.9738l-.0154.009-.0153-.009s-4.2132-2.4523-4.2132-6.9738c0-3.1847,1.2166-3.3279,1.936-6.2137" fill="#fcea2b"/><path d="m33.78 42.898c-1.7823-7.1024-7.612-13.29-7.612-19.587 0-7.4337 9.8842-17.794 9.8842-17.794l0.0151-0.0161 0.0153 0.0161s9.8843 10.361 9.8843 17.794c0 6.2974-5.83 12.485-7.612 19.587" fill="#fcea2b"/><path d="m42.398 42.898c2.1073-3.01 5.6779-5.8795 8.4984-5.8795 4.28 0 5.43 1.93 5.43 3.77a19.467 19.467 0 0 1-1.3034 5.1371s8.6413-0.46 8.6413-6.9005-5.1139-9.281-10.788-9.281c-4.8767 0-12.547 4.2982-14.521 13.153" fill="#fcea2b"/><path d="m38.359 53.302c2.18 6.6031 9.303 5.1565 9.303 5.1565a5.732 5.732 0 0 0 4.6-6.21 10.232 10.232 0 0 1-5.98 1.9168 6.1052 6.1052 0 0 1-3.3222-0.861" fill="#fcea2b"/><path d="m33.775 53.304c-2.18 6.6006-9.2022 5.1545-9.2022 5.1545a5.732 5.732 0 0 1-4.6-6.21 10.232 10.232 0 0 0 5.98 1.9168 6.106 6.106 0 0 0 3.3218-0.8607" fill="#fcea2b"/><path d="m29.837 42.898c-2.1073-3.01-5.678-5.8795-8.4985-5.8795-4.28 0-5.43 1.93-5.43 3.77a19.467 19.467 0 0 0 1.3034 5.1371s-8.6413-0.46-8.6413-6.9005 5.1144-9.2814 10.788-9.2814c4.8768 0 12.447 4.2977 14.421 13.153" fill="#fcea2b"/><path d="m36.083 66.491s4.2132-2.4523 4.2132-6.9738c0-3.1855-1.2171-3.328-1.9365-6.2157h-2.292z" fill="#f1b31c"/><path d="m36.067 42.898h2.2876c1.7822-7.1024 7.612-13.29 7.612-19.587 0-7.4337-9.8843-17.794-9.8843-17.794z" fill="#f1b31c"/><path d="m54.402 45.926a19.466 19.466 0 0 0 1.3035-5.1371c0-1.84-1.15-3.77-5.43-3.77-2.8206 0-6.3912 2.8693-8.4985 5.88h-1.5426s3.2832-8.4891 9.9579-8.4891c0 0 8.55-0.75 8.55 6.3372-4e-4 -9e-4 0.2198 5.179-4.3403 5.179z" fill="#f1b31c"/><path d="m17.86 45.926a19.467 19.467 0 0 1-1.3034-5.1371c0-1.84 1.15-3.77 5.43-3.77 2.82 0 6.3912 2.8693 8.4984 5.88h1.5425s-3.2833-8.4891-9.9579-8.4891c0 0-8.55-0.75-8.55 6.3372 4e-4 -9e-4 -0.2196 5.179 4.3404 5.179z" fill="#f1b31c"/><path d="m51.514 52.694a10.232 10.232 0 0 1-5.98 1.9168 4.2434 4.2434 0 0 1-3.3753-1.3093h-1.5643s1.852 3.1942 4.9038 3.1942c0 0 6.0158 0.2348 6.0158-3.8017z" fill="#f1b31c"/><path d="m20.557 52.694a10.233 10.233 0 0 0 5.98 1.9168 4.2436 4.2436 0 0 0 3.3754-1.3093h1.5638s-1.852 3.1942-4.9038 3.1942c4e-4 0-6.0154 0.2348-6.0154-3.8017z" fill="#f1b31c"/></g><g id="c" fill="none" stroke="#000" stroke-linecap="round" stroke-linejoin="round" stroke-width="1.9083"><path d="M38.3593,53.3015c.7194,2.8877,1.9365,3.03,1.9365,6.2157,0,4.5215-4.2132,6.9738-4.2132,6.9738l-.0154.009-.0153-.009s-4.2132-2.4523-4.2132-6.9738c0-3.1847,1.2166-3.3279,1.936-6.2137"/><path d="m33.78 42.898c-1.7823-7.1024-7.612-13.29-7.612-19.587 0-7.4337 9.8842-17.794 9.8842-17.794l0.0151-0.0161 0.0153 0.0161s9.8843 10.361 9.8843 17.794c0 6.2974-5.83 12.485-7.612 19.587"/><path d="m42.398 42.898c2.1073-3.01 5.6779-5.8795 8.4984-5.8795 4.28 0 5.43 1.93 5.43 3.77a19.467 19.467 0 0 1-1.3034 5.1371s8.6413-0.46 8.6413-6.9005-5.1139-9.281-10.788-9.281c-4.8767 0-12.547 4.2982-14.521 13.153"/><path d="m38.359 53.302c2.18 6.6031 9.303 5.1565 9.303 5.1565a5.732 5.732 0 0 0 4.6-6.21 10.232 10.232 0 0 1-5.98 1.9168 6.1052 6.1052 0 0 1-3.3222-0.861"/><path d="m33.775 53.304c-2.18 6.6006-9.2022 5.1545-9.2022 5.1545a5.732 5.732 0 0 1-4.6-6.21 10.232 10.232 0 0 0 5.98 1.9168 6.106 6.106 0 0 0 3.3218-0.8607"/><path d="m29.837 42.898c-2.1073-3.01-5.678-5.8795-8.4985-5.8795-4.28 0-5.43 1.93-5.43 3.77a19.467 19.467 0 0 0 1.3034 5.1371s-8.6413-0.46-8.6413-6.9005 5.1144-9.2814 10.788-9.2814c4.8768 0 12.447 4.2977 14.421 13.153"/><line x1="45.672" x2="26.589" y1="49.996" y2="49.996"/><line x1="26.589" x2="45.672" y1="46.453" y2="46.453"/></g></svg>
