<svg xmlns="http://www.w3.org/2000/svg" id="a" viewBox="0 0 72 72"><g id="b" stroke-linecap="round" stroke-linejoin="round" stroke-miterlimit="10" stroke-width="2"><path fill="#fcea2b" d="m32.522 13.005c0.6977-1.2046 1.9862-2.0244 3.4778-2.0244s2.7801 0.8198 3.4778 2.0244l20.968 41.935c0.3433 0.5938 0.5544 1.2735 0.5544 2.0082 0 2.2272-1.8051 4.0323-4.0323 4.0323l-41.935 0.0173c-2.2272 0-4.0323-1.8059-4.0323-4.0322 0-0.7356 0.211-1.4145 0.5544-2.0083l20.968-41.952"/><path fill="#fff" d="m37.613 47.271c0 0.8907-0.7222 1.6129-1.6129 1.6129s-1.6129-0.7222-1.6129-1.6129v-23.378c0-0.8907 0.7222-1.6129 1.6129-1.6129s1.6129 0.7222 1.6129 1.6129v23.378z"/><circle cx="36" cy="54.529" r="1.613" fill="#fff"/></g><g id="c" fill="none" stroke="#000" stroke-linecap="round" stroke-linejoin="round" stroke-miterlimit="10" stroke-width="2"><path d="m32.522 13.005c0.6977-1.2046 1.9862-2.0244 3.4778-2.0244s2.7801 0.8198 3.4778 2.0244l20.968 41.935c0.3433 0.5938 0.5544 1.2735 0.5544 2.0082 0 2.2272-1.8051 4.0323-4.0323 4.0323l-41.935 0.0173c-2.2272 0-4.0323-1.8059-4.0323-4.0322 0-0.7356 0.211-1.4145 0.5544-2.0083l20.968-41.952"/><path d="m37.613 47.271c0 0.8907-0.7222 1.6129-1.6129 1.6129s-1.6129-0.7222-1.6129-1.6129v-23.378c0-0.8907 0.7222-1.6129 1.6129-1.6129s1.6129 0.7222 1.6129 1.6129v23.378z"/><circle cx="36" cy="54.529" r="1.613"/></g></svg>