<svg xmlns="http://www.w3.org/2000/svg" id="a" viewBox="0 0 72 72"><g id="b" stroke-miterlimit="10"><path fill="#A57939" stroke="#A57939" stroke-width="2" d="m31.632 67.6h9.0635c1.3055 0 2.4611-0.8442 2.858-2.0879l12.353-38.705c0.271-0.8492 0.1504-1.7749-0.3292-2.5262l-11.805-18.495c-0.5511-0.8634-1.5045-1.3859-2.5288-1.3859h-10.158c-1.0242 0-1.9777 0.5225-2.5288 1.3859l-11.805 18.495c-0.4796 0.7514-0.6002 1.6771-0.3292 2.5262l12.353 38.705c0.3969 1.2438 1.5525 2.088 2.858 2.088z"/><line x1="36.334" x2="36.334" y1="22" y2="38" fill="#f4aa41" stroke-linecap="round" stroke-width="2"/><line x1="31.534" x2="41.134" y1="26.633" y2="26.633" fill="#f4aa41" stroke-linecap="round" stroke-width="2"/><polygon fill="#6A462F" stroke="#6A462F" stroke-linejoin="round" points="39.25 4.4 47.5 26.5 39.25 67.6 41.5 67.5 56 25.382 41.5 4.5"/></g><g id="c" fill="none" stroke="#000" stroke-miterlimit="10" stroke-width="2"><line x1="36.334" x2="36.334" y1="22" y2="38" stroke-linecap="round"/><line x1="31.534" x2="41.134" y1="26.633" y2="26.633" stroke-linecap="round"/><path d="m31.632 67.6h9.0635c1.3055 0 2.4611-0.8442 2.858-2.0879l12.353-38.705c0.271-0.8492 0.1504-1.7749-0.3292-2.5262l-11.805-18.495c-0.5511-0.8634-1.5045-1.3859-2.5288-1.3859h-10.158c-1.0242 0-1.9777 0.5225-2.5288 1.3859l-11.805 18.495c-0.4796 0.7514-0.6002 1.6771-0.3292 2.5262l12.353 38.705c0.3969 1.2438 1.5525 2.088 2.858 2.088z"/></g></svg>