<?xml version="1.0" encoding="UTF-8"?>
<svg id="a" viewBox="0 0 72 72" xmlns="http://www.w3.org/2000/svg"><g id="b"><g id="c"><path d="m44.797 15.175 3.3621-2.9411a2.1208 2.1208 0 0 0-0.5449-3.5321 27.541 27.541 0 0 0-11.338-2.3387 27.541 27.541 0 0 0-11.338 2.3387 2.1208 2.1208 0 0 0-0.5449 3.5321l3.6591 3.2009c-4.8465 3.0433-9.1842 8.3556-9.1842 14.416 0 10.739 8.5614 35.786 8.5614 35.786h17.14s8.5611-25.047 8.5611-35.786a17.096 17.096 0 0 0-8.3344-14.675z" fill="#f4aa41" stroke="#000" stroke-linecap="round" stroke-linejoin="round" stroke-width="2"/><path d="m28.053 15.435a30.948 30.948 0 0 1 16.744-0.26" fill="none" stroke="#e27022" stroke-linecap="square" stroke-linejoin="round" stroke-width="2"/><line x1="25.352" x2="46.648" y1="59.201" y2="59.201" fill="none" stroke="#e27022" stroke-linejoin="round" stroke-width="4"/><line x1="19.645" x2="52.355" y1="29.522" y2="29.522" fill="none" stroke="#e27022" stroke-linecap="round" stroke-linejoin="round" stroke-width="2"/><line x1="19.645" x2="51.821" y1="34.088" y2="34.088" fill="none" stroke="#e27022" stroke-linecap="round" stroke-linejoin="round" stroke-width="2"/><path d="m44.797 15.175h-1.1416c0 1.0928 2.6269 8.4364 2.6269 14.675 0 10.739-8.5613 35.786-8.5613 35.786h6.8493s8.5611-25.047 8.5611-35.786a17.096 17.096 0 0 0-8.3344-14.675z" fill="#e27022"/><path d="m44.797 8.1159c2.4548 3.0045 0.4662 2.303-1.1416 7.0594 3.5167 2.5048 5.2063-4.7835 5.2063-4.7835s-1.875-2.8456-4.0647-2.2759z" fill="#e27022"/></g></g><g id="d"><path id="e" d="m44.797 15.175 3.3621-2.9411a2.1208 2.1208 0 0 0-0.5449-3.5321 27.541 27.541 0 0 0-11.338-2.3387 27.541 27.541 0 0 0-11.338 2.3387 2.1208 2.1208 0 0 0-0.5449 3.5321l3.6591 3.2009c-4.8465 3.0433-9.1842 8.3556-9.1842 14.416 0 10.739 8.5614 35.786 8.5614 35.786h17.14s8.5611-25.047 8.5611-35.786a17.096 17.096 0 0 0-8.3344-14.675z" fill="none" stroke="#000" stroke-linecap="round" stroke-linejoin="round" stroke-width="2"/></g></svg>
