<svg xmlns="http://www.w3.org/2000/svg" id="a" viewBox="0 0 72 72"><g id="b"><path fill="#fff" d="m65 36c0 1.61-0.13 3.19-0.39 4.73-0.71 4.39-2.42 8.45-4.89 11.94v0.01c-4.24 6.03-10.73 10.37-18.24 11.8-1.78 0.34-3.61 0.52-5.48 0.52-0.5 0-1-0.01-1.49-0.04h-0.07c-0.47-0.03-0.94-0.06-1.41-0.11-0.04 0-0.08-0.01-0.1201-0.01-0.39-0.04-0.78-0.09-1.17-0.15-0.11-0.02-0.23-0.03-0.34-0.05-0.3-0.05-0.59-0.1-0.89-0.16-0.47-0.09-0.94-0.19-1.41-0.31-0.19-0.04-0.39-0.09-0.58-0.14-0.26-0.07-0.52-0.15-0.78-0.23-0.23-0.07-0.47-0.14-0.71-0.22-0.2401-0.0699-0.47-0.15-0.7-0.24-0.19-0.07-0.38-0.14-0.57-0.21-0.11-0.03-0.21-0.07-0.32-0.12-0.39-0.16-0.78-0.32-1.16-0.4901-0.52-0.23-1.03-0.48-1.54-0.74-0.23-0.12-0.45-0.24-0.68-0.37-0.26-0.14-0.51-0.28-0.76-0.43-0.28-0.17-0.56-0.33-0.84-0.51-0.08-0.05-0.16-0.11-0.2401-0.16-0.39-0.25-0.78-0.52-1.15-0.79-0.32-0.22-0.63-0.46-0.93-0.69-0.03-0.02-0.05-0.04-0.08-0.0699-0.27-0.21-0.53-0.42-0.78-0.64-0.13-0.1-0.26-0.21-0.38-0.32-0.1-0.09-0.19-0.17-0.29-0.26-0.02-0.01-0.03-0.02-0.04-0.03-0.03-0.03-0.06-0.06-0.09-0.08-0.02-0.01-0.03-0.03-0.04-0.04-0.02-0.01-0.03-0.02-0.04-0.04-0.13-0.11-0.25-0.22-0.37-0.34-0.13-0.12-0.25-0.23-0.36-0.35-0.02-0.02-0.04-0.04-0.05-0.06-0.1-0.1-0.2-0.19-0.3-0.28-0.1517-0.1517-0.2917-0.3225-0.4401-0.4795-0.0066-0.0068-0.0134-0.0137-0.02-0.0205 8e-4 4e-4 0.0015 9e-4 0.0023 0.0013-0.3342-0.3544-0.6707-0.7049-0.9923-1.0813-0.24-0.28-0.48-0.57-0.71-0.87-0.3199-0.41-0.6299-0.82-0.93-1.25-2.46-3.51-4.16-7.59-4.87-12.01-0.2397-1.5-0.3597-3.04-0.3597-4.61 0-6.17 1.92-11.89 5.22-16.59 3.19-4.58 7.68-8.19 12.93-10.3 3.35-1.37 7.01-2.11 10.85-2.11 3.83 0 7.49 0.74 10.83 2.1 2.52 1 4.86 2.36 6.97 4.02 0.56 0.43 1.11 0.89 1.64 1.38h0.01c0.53 0.48 1.04 0.98 1.53 1.5 0.75 0.77 1.44 1.58 2.09 2.44 0.21 0.28 0.43 0.57 0.63 0.86v0.01s0-0.01 0.01 0c0.5 0.69 0.97 1.42 1.39 2.17 0.15 0.25 0.29 0.5 0.4301 0.76 0.17 0.31 0.33 0.61 0.47 0.92 0.11 0.21 0.21 0.42 0.31 0.64 0.16 0.32 0.3 0.64 0.43 0.96 0.16 0.36 0.3 0.72 0.43 1.09 0.11 0.28 0.21 0.56 0.3 0.85 0.08 0.23 0.16 0.47 0.2401 0.72 0.1 0.32 0.19 0.64 0.28 0.96 0.06 0.23 0.12 0.45 0.17 0.68 0.1801 0.71 0.33 1.42 0.44 2.15 0.04 0.21 0.07 0.42 0.1 0.64 0.05 0.32 0.09 0.65 0.12 0.97 0.02 0.14 0.04 0.28 0.05 0.41 0.03 0.35 0.06 0.7 0.07 1.06 0.02 0.15 0.03 0.29 0.03 0.44 0.0198 0.42 0.0298 0.84 0.0298 1.27z"/><path fill="#D0CFCE" d="m65 36c0 1.61-0.13 3.19-0.39 4.73-0.71 4.39-2.42 8.45-4.89 11.94v0.01c-4.24 6.03-10.73 10.37-18.24 11.8-1.78 0.34-3.61 0.52-5.48 0.52-0.5 0-1-0.01-1.49-0.04h-0.07c-0.47-0.03-0.94-0.06-1.41-0.11-0.04 0-0.08-0.01-0.1201-0.01-0.39-0.04-0.78-0.09-1.17-0.15-0.11-0.02-0.23-0.03-0.34-0.05-0.3-0.05-0.59-0.1-0.89-0.16-0.47-0.09-0.94-0.19-1.41-0.31-0.19-0.04-0.39-0.09-0.58-0.14-0.26-0.07-0.52-0.15-0.78-0.23-0.23-0.07-0.47-0.14-0.71-0.22-0.2401-0.0699-0.47-0.15-0.7-0.24-0.19-0.07-0.38-0.14-0.57-0.21-0.11-0.03-0.21-0.07-0.32-0.12-0.39-0.16-0.78-0.32-1.16-0.4901-0.26-0.12-0.52-0.24-0.77-0.36-0.26-0.12-0.51-0.25-0.77-0.38-0.23-0.12-0.45-0.24-0.68-0.37-0.26-0.14-0.51-0.28-0.76-0.43-0.28-0.17-0.56-0.33-0.84-0.51-0.08-0.05-0.16-0.11-0.2401-0.16-0.39-0.25-0.78-0.52-1.15-0.79-0.32-0.22-0.63-0.46-0.93-0.69-0.03-0.02-0.05-0.04-0.08-0.0699-0.27-0.21-0.53-0.42-0.78-0.64-0.02-0.01-0.04-0.03-0.0601-0.05-0.2599-0.22-0.52-0.45-0.78-0.68-0.02-0.01-0.03-0.02-0.04-0.04-0.26-0.25-0.53-0.49-0.78-0.75-0.26-0.26-0.51-0.52-0.76-0.78 3.99 2.34 8.6 3.77 13.52 3.95 0.38 0.02 0.76 0.03 1.14 0.03 6.76 0 12.99-2.31 17.92-6.2 5.99-4.71 10.08-11.73 10.92-19.72 0.11-1.01 0.16-2.04 0.16-3.08 0-2.07-0.22-4.08-0.63-6.02v-0.01c-1.11-5.25-3.63-9.95-7.15-13.73 1.06 0.63 2.09 1.33 3.06 2.08 0.56 0.44 1.11 0.9 1.64 1.38 0 0 0-0.01 0.01 0 0.53 0.49 1.04 0.98 1.53 1.5 0.98 1.03 1.9 2.14 2.72 3.31 0.5 0.7 0.97 1.42 1.4 2.17 0.15 0.25 0.29 0.5 0.4301 0.76 0.17 0.31 0.33 0.61 0.47 0.92 0.11 0.21 0.21 0.42 0.31 0.64 0.16 0.32 0.3 0.64 0.43 0.96 0.16 0.36 0.3 0.72 0.43 1.09 0.11 0.28 0.21 0.56 0.3 0.85 0.08 0.23 0.16 0.47 0.2401 0.72 0.1 0.32 0.19 0.64 0.28 0.96 0.06 0.23 0.12 0.45 0.17 0.68 0.1801 0.71 0.33 1.42 0.44 2.15 0.04 0.21 0.07 0.42 0.1 0.64 0.05 0.32 0.09 0.65 0.12 0.97 0.02 0.14 0.04 0.28 0.05 0.41 0.03 0.35 0.06 0.7 0.07 1.06 0.02 0.15 0.03 0.29 0.03 0.44 0.0201 0.42 0.0301 0.84 0.0301 1.27z"/></g><g id="c"><path fill="none" stroke="#000" stroke-linecap="round" stroke-linejoin="round" stroke-miterlimit="10" stroke-width="2" d="m65 36c0 1.61-0.13 3.19-0.39 4.73-0.71 4.39-2.42 8.45-4.89 11.94v0.01c-4.24 6.03-10.73 10.37-18.24 11.8-1.78 0.34-3.61 0.52-5.48 0.52-0.5 0-1-0.01-1.49-0.04h-0.07c-0.47-0.03-0.94-0.06-1.41-0.11-0.04 0-0.08-0.01-0.1201-0.01-0.39-0.04-0.78-0.09-1.17-0.15-0.11-0.02-0.23-0.03-0.34-0.05-0.3-0.05-0.59-0.1-0.89-0.16-0.47-0.09-0.94-0.19-1.41-0.31-0.19-0.04-0.39-0.09-0.58-0.14-0.26-0.07-0.52-0.15-0.78-0.23-0.23-0.07-0.47-0.14-0.71-0.22-0.2401-0.0699-0.47-0.15-0.7-0.24-0.19-0.07-0.38-0.14-0.57-0.21-0.11-0.03-0.21-0.07-0.32-0.12-0.39-0.16-0.78-0.32-1.16-0.4901-0.52-0.23-1.03-0.48-1.54-0.74-0.23-0.12-0.45-0.24-0.68-0.37-0.26-0.14-0.51-0.28-0.76-0.43-0.28-0.17-0.56-0.33-0.84-0.51-0.08-0.05-0.16-0.11-0.2401-0.16-0.39-0.25-0.78-0.52-1.15-0.79-0.32-0.22-0.63-0.46-0.93-0.69-0.03-0.02-0.05-0.04-0.08-0.0699-0.27-0.21-0.53-0.42-0.78-0.64-0.13-0.1-0.26-0.21-0.38-0.32-0.1-0.09-0.19-0.17-0.29-0.26-0.02-0.01-0.03-0.02-0.04-0.03-0.03-0.03-0.06-0.06-0.09-0.08-0.02-0.01-0.03-0.03-0.04-0.04-0.02-0.01-0.03-0.02-0.04-0.04-0.13-0.11-0.25-0.22-0.37-0.34-0.13-0.12-0.25-0.23-0.36-0.35-0.02-0.02-0.04-0.04-0.05-0.06-0.1-0.1-0.2-0.19-0.3-0.28-0.1517-0.1517-0.2917-0.3225-0.4401-0.4795-0.0066-0.0068-0.0134-0.0137-0.02-0.0205 8e-4 4e-4 0.0015 9e-4 0.0023 0.0013-0.3342-0.3544-0.6707-0.7049-0.9923-1.0813-0.24-0.28-0.48-0.57-0.71-0.87-0.3199-0.41-0.6299-0.82-0.93-1.25-2.46-3.51-4.16-7.59-4.87-12.01-0.2397-1.5-0.3597-3.04-0.3597-4.61 0-6.17 1.92-11.89 5.22-16.59 3.19-4.58 7.68-8.19 12.93-10.3 3.35-1.37 7.01-2.11 10.85-2.11 3.83 0 7.49 0.74 10.83 2.1 2.52 1 4.86 2.36 6.97 4.02 0.56 0.43 1.11 0.89 1.64 1.38h0.01c0.53 0.48 1.04 0.98 1.53 1.5 0.75 0.77 1.44 1.58 2.09 2.44 0.21 0.28 0.43 0.57 0.63 0.86v0.01s0-0.01 0.01 0c0.5 0.69 0.97 1.42 1.39 2.17 0.15 0.25 0.29 0.5 0.4301 0.76 0.17 0.31 0.33 0.61 0.47 0.92 0.11 0.21 0.21 0.42 0.31 0.64 0.16 0.32 0.3 0.64 0.43 0.96 0.16 0.36 0.3 0.72 0.43 1.09 0.11 0.28 0.21 0.56 0.3 0.85 0.08 0.23 0.16 0.47 0.2401 0.72 0.1 0.32 0.19 0.64 0.28 0.96 0.06 0.23 0.12 0.45 0.17 0.68 0.1801 0.71 0.33 1.42 0.44 2.15 0.04 0.21 0.07 0.42 0.1 0.64 0.05 0.32 0.09 0.65 0.12 0.97 0.02 0.14 0.04 0.28 0.05 0.41 0.03 0.35 0.06 0.7 0.07 1.06 0.02 0.15 0.03 0.29 0.03 0.44 0.0198 0.42 0.0298 0.84 0.0298 1.27z"/><path d="m34.237 28.073-6.1555 4.4722c-1.0515 0.7639-1.4914 2.118-1.0898 3.3541l2.3512 7.2362c0.4016 1.2361 1.5535 2.0729 2.8532 2.0729h7.6086c1.2997 0 2.4515-0.8369 2.8532-2.0729l2.3512-7.2362c0.4016-1.2361-0.0383-2.5902-1.0898-3.3541l-6.1555-4.4722c-1.0515-0.7639-2.4753-0.7639-3.5268 0z"/><path d="M46.28,10.18l-8.41,4.12c-0.59,0.28-1.23,0.42-1.87,0.41c-0.57-0.0099-1.14-0.14-1.68-0.39l-8.61-4.1 c-0.42-0.2-0.64-0.67-0.56-1.11C28.5,7.74,32.16,7,36,7c3.83,0,7.49,0.74,10.83,2.1C46.91,9.53,46.7,9.98,46.28,10.18z"/><path d="m30.51 64.48c-0.47-0.09-0.94-0.19-1.41-0.31-0.19-0.04-0.39-0.09-0.58-0.14-0.26-0.07-0.52-0.15-0.78-0.23-0.23-0.07-0.47-0.14-0.71-0.22-0.2401-0.0699-0.47-0.15-0.7-0.24-0.19-0.07-0.38-0.14-0.57-0.21-0.11-0.03-0.21-0.07-0.32-0.12-0.39-0.16-0.78-0.32-1.16-0.4901-0.522-0.2304-1.0333-0.4806-1.5386-0.741-0.2299-0.1179-0.4554-0.2423-0.6817-0.3661-0.2557-0.1407-0.509-0.2849-0.7601-0.4332-0.2823-0.1659-0.5635-0.3326-0.8397-0.5077-0.0818-0.0522-0.1609-0.108-0.2422-0.161-3.1296-2.0298-5.849-4.6387-7.9878-7.691 0.19-0.34 0.58-0.55 1.01-0.5l9.34 1.14c0.64 0.08 1.24 0.3 1.76 0.65 0.49 0.33 0.91 0.76 1.22 1.27l2.82 4.59 2.19 3.58c0.2201 0.3601 0.1901 0.8101-0.0599 1.1301z"/><path d="m15.16 31.37c-0.14 0.58-0.41 1.13-0.79 1.61l-5.9 7.3c-0.28 0.34-0.73 0.46-1.11 0.33-0.24-1.5-0.36-3.04-0.36-4.61 0-6.17 1.92-11.89 5.22-16.59 0.42 0.05 0.79 0.35 0.88 0.79l2.08 9.33c0.14 0.61 0.13 1.24-0.02 1.84z"/><path d="m59.72 52.67v0.01c-4.24 6.03-10.73 10.37-18.24 11.8-0.26-0.32-0.29-0.78-0.07-1.15l4.99-8.14c0.3199-0.52 0.74-0.95 1.24-1.28 0.52-0.34 1.11-0.56 1.74-0.64l9.31-1.14c0.44-0.05 0.84 0.18 1.03 0.54z"/><path d="M65,36c0,1.61-0.13,3.19-0.39,4.73c-0.36,0.08-0.75-0.04-1-0.35l-5.25-6.5l-0.73-0.9c-0.78-0.96-1.08-2.23-0.8-3.45 l1.06-4.75v-0.01l1.04-4.69c0.08-0.39,0.39-0.6899,0.77-0.77c0-0.01,0-0.01,0.01,0c0.5,0.69,0.97,1.42,1.39,2.17 c0.15,0.25,0.29,0.5,0.4301,0.76c0.17,0.31,0.33,0.61,0.47,0.92c0.11,0.21,0.21,0.42,0.31,0.64c0.16,0.32,0.3,0.64,0.43,0.96 c0.16,0.36,0.3,0.72,0.43,1.09c0.11,0.28,0.21,0.56,0.3,0.85c0.08,0.23,0.16,0.47,0.2401,0.72c0.1,0.32,0.19,0.64,0.28,0.96 c0.06,0.23,0.12,0.45,0.17,0.68c0.1801,0.71,0.33,1.42,0.44,2.15c0.04,0.21,0.07,0.42,0.1,0.64c0.05,0.32,0.09,0.65,0.12,0.97 c0.02,0.14,0.04,0.28,0.05,0.41c0.03,0.35,0.06,0.7,0.07,1.06c0.02,0.15,0.03,0.29,0.03,0.44C64.99,35.15,65,35.57,65,36z"/><line x1="36" x2="36" y1="14.712" y2="27.5" fill="none" stroke="#000" stroke-linecap="round" stroke-linejoin="round" stroke-miterlimit="10" stroke-width="2"/><line x1="44.989" x2="56.812" y1="33.99" y2="31.327" fill="none" stroke="#000" stroke-linecap="round" stroke-linejoin="round" stroke-miterlimit="10" stroke-width="2"/><line x1="41.591" x2="47.638" y1="44.617" y2="53.913" fill="none" stroke="#000" stroke-linecap="round" stroke-linejoin="round" stroke-miterlimit="10" stroke-width="2"/><line x1="30.394" x2="24.343" y1="44.606" y2="53.913" fill="none" stroke="#000" stroke-linecap="round" stroke-linejoin="round" stroke-miterlimit="10" stroke-width="2"/><line x1="27.001" x2="15.164" y1="34.019" y2="31.373" fill="none" stroke="#000" stroke-linecap="round" stroke-linejoin="round" stroke-miterlimit="10" stroke-width="2"/></g></svg>