<?xml version="1.0" encoding="UTF-8"?>
<svg id="a" viewBox="0 0 72 72" xmlns="http://www.w3.org/2000/svg"><g id="b"><circle cx="36" cy="35.958" r="29" fill="#fff"/><path d="m56.494 57.518c-5.2796-5.2522-8.5478-12.524-8.5478-20.56 0-8.0081 3.2459-15.258 8.4939-20.506" fill="none" stroke="#d0cfce" stroke-miterlimit="10" stroke-width="3"/><path d="m15.533 16.452c5.248 5.248 8.4939 12.498 8.4939 20.506 0 8.0287-3.2626 15.295-8.5344 20.546" fill="none" stroke="#d0cfce" stroke-miterlimit="10" stroke-width="3"/><path d="m50.738 10.998c4.8254 5.1792 7.7822 12.122 7.7822 19.76 0 16.016-12.984 29-29 29-5.3519 0-10.361-1.4558-14.665-3.9839 5.2892 5.6453 12.798 9.1841 21.144 9.1841 16.016 0 29-12.984 29-29 0-10.631-5.7308-19.911-14.262-24.96z" fill="#D0CFCE"/></g><g id="c" fill="none" stroke="#000" stroke-linecap="round" stroke-linejoin="round" stroke-miterlimit="10" stroke-width="2"><circle cx="36" cy="35.958" r="29"/><path d="m56.494 56.518c-5.2796-5.2522-8.5478-12.524-8.5478-20.56 0-8.0081 3.2459-15.258 8.4939-20.506"/><path d="m15.533 15.452c5.248 5.248 8.4939 12.498 8.4939 20.506 0 8.0287-3.2455 15.277-8.5172 20.528"/><polyline points="45.946 35.458 47.946 36.458 49.946 35.458"/><polyline points="26.027 36.458 24.027 35.458 22.027 36.458"/><polyline points="25.202 43.332 23.424 41.976 21.273 42.586"/><polyline points="23.001 49.455 21.523 47.777 19.294 47.953"/><polyline points="19.598 54.647 18.824 52.548 16.682 51.908"/><polyline points="20.27 17.796 18.12 18.411 17.322 20.5"/><polyline points="23.488 23.542 21.289 23.652 20.003 25.506"/><polyline points="25.475 29.755 23.27 29.381 21.648 30.92"/><polyline points="46.771 28.584 48.549 29.94 50.701 29.33"/><polyline points="48.972 22.461 50.45 24.139 52.679 23.963"/><polyline points="52.499 17.118 53.272 19.216 55.415 19.856"/><polyline points="51.545 53.912 53.694 53.297 54.492 51.208"/><polyline points="48.482 48.429 50.716 48.318 51.967 46.465"/><polyline points="46.499 42.161 48.703 42.535 50.325 40.996"/></g></svg>
