<svg xmlns="http://www.w3.org/2000/svg" id="a" viewBox="0 0 72 72"><g id="b"><polygon fill="#FCEA2B" points="17.889 41.528 11.722 44.932 12.451 36.396 4.387 35.234 10.423 29.76 4.582 24.079 12.685 23.202 11.292 15.171 18.364 19.228 21.959 11.91 25.295 19.347 32.504 15.543 30.838 23.519 39.726 25.329 33.124 30.695 38.997 36.53 30.874 37.206 32.069 45.27 25.098 41.049 20.44 48.608"/><path fill="#fff" stroke-linecap="round" stroke-linejoin="round" stroke-miterlimit="10" stroke-width="2" d="m25.294 39.547c-0.0314 0.3586-0.3219 0.6487-0.6817 0.6872-4.3612 0.4672-7.7156 4.7614-7.7156 9.9884 0 5.539 3.8413 10.029 8.5799 10.029h32.71c5.206 0 9.4262-4.7453 9.4262-10.599 0-5.6097-3.8759-10.202-8.7809-10.574-0.3752-0.0285-0.6796-0.2912-0.7512-0.6587-1.0957-5.6267-6.1504-9.855-12.126-9.855-3.8839 0-7.3436 1.7583-9.5903 4.5555-0.2195 0.2733-0.588 0.3986-0.9121 0.2627-0.8645-0.3626-1.7776-0.538-2.7992-0.538-3.8605 0-7.0293 2.9462-7.3584 6.7018z"/></g><g id="c" fill="none" stroke="#000" stroke-linecap="round" stroke-linejoin="round" stroke-miterlimit="10"><polyline stroke-width="1.9" points="14.291 42.414 11.092 44.21 12.758 36.234 4.693 35.072 10.729 29.598 4.888 23.917 12.992 23.04 11.598 15.009 18.67 19.066 22.266 11.748 25.601 19.185 32.81 15.381 31.144 23.357 39.208 24.519 36.284 26.902"/><path stroke-width="1.9" d="m17.282 39.517c-3.6168-1.7402-6.1131-5.4394-6.1131-9.7216 0-5.9549 4.8274-10.782 10.782-10.782 5.59 0 10.186 4.2539 10.729 9.7012"/><path stroke-width="2" d="m25.294 39.547c-0.0314 0.3586-0.3219 0.6487-0.6817 0.6872-4.3612 0.4672-7.7156 4.7614-7.7156 9.9884 0 5.539 3.8413 10.029 8.5799 10.029h32.71c5.206 0 9.4262-4.7453 9.4262-10.599 0-5.6097-3.8759-10.202-8.7809-10.574-0.3752-0.0285-0.6796-0.2912-0.7512-0.6587-1.0957-5.6267-6.1504-9.855-12.126-9.855-3.8839 0-7.3436 1.7583-9.5903 4.5555-0.2195 0.2733-0.588 0.3986-0.9121 0.2627-0.8645-0.3626-1.7776-0.538-2.7992-0.538-3.8605 0-7.0293 2.9462-7.3584 6.7018z"/></g></svg>