<?xml version="1.0" encoding="UTF-8"?>
<svg id="a" viewBox="0 0 72 72" xmlns="http://www.w3.org/2000/svg"><g id="b"><path d="m24.026 59.256c-0.7516 1.1632-2.1343 1.6031-3.0902 0.9854s-1.1216-2.0613-0.37-3.2245c0 0 0.8943-1.4257 4.0066-3.0386 0 0 0.6168-0.3534 0.5724 0.3205-0.1914 3.5001-1.1188 4.9572-1.1188 4.9572" fill="#92D3F5"/><path d="m24.485 54.12c0.5441 1.6504-0.7227 4.9495-0.7227 4.9495-0.9587 1.3692-2.1337 1.5027-3.1418 0.7967-1e-4 1e-4 2.7195-0.9711 3.8645-5.7462" fill="#61B2E4"/><path d="m17.726 51.684c-0.7516 1.1632-2.1343 1.6031-3.0902 0.9854s-1.1216-2.0613-0.37-3.2245c0 0 0.8943-1.4257 4.0066-3.0386 0 0 0.6168-0.3534 0.5724 0.3205-0.1914 3.5001-1.1188 4.9572-1.1188 4.9572" fill="#92D3F5"/><path d="m18.185 46.549c0.5441 1.6504-0.7227 4.9495-0.7227 4.9495-0.9587 1.3692-2.1337 1.5027-3.1418 0.7967-1e-4 0 2.7195-0.9711 3.8645-5.7462" fill="#61B2E4"/><path d="m56.428 51.684c-0.7516 1.1632-2.1343 1.6031-3.0902 0.9854s-1.1216-2.0613-0.37-3.2245c0 0 0.8943-1.4257 4.0066-3.0386 0 0 0.6168-0.3534 0.5724 0.3205-0.1914 3.5001-1.1188 4.9572-1.1188 4.9572" fill="#92D3F5"/><path d="m56.888 46.549c0.5441 1.6504-0.7227 4.9495-0.7227 4.9495-0.9587 1.3692-2.1337 1.5027-3.1418 0.7967-1e-4 0 2.7195-0.9711 3.8645-5.7462" fill="#61B2E4"/><path d="m48.002 59.256c-0.7516 1.1632-2.1343 1.6031-3.0902 0.9854s-1.1216-2.0613-0.37-3.2245c0 0 0.8943-1.4257 4.0066-3.0386 0 0 0.6168-0.3534 0.5724 0.3205-0.1915 3.5001-1.1188 4.9572-1.1188 4.9572" fill="#92D3F5"/><path d="m48.461 54.12c0.5441 1.6504-0.7227 4.9495-0.7227 4.9495-0.9587 1.3692-2.1337 1.5027-3.1418 0.7967-1e-4 1e-4 2.7194-0.9711 3.8645-5.7462" fill="#61B2E4"/><path d="m19.279 22.307c-0.031 0.3535-0.3174 0.6396-0.6721 0.6775-4.2996 0.4606-7.6066 4.6942-7.6066 9.8474 0 5.4608 3.7871 9.8877 8.4588 9.8877h32.248c5.1325 0 9.2932-4.6783 9.2932-10.449 0-5.5305-3.8212-10.058-8.6569-10.425-0.37-0.0281-0.67-0.2871-0.7406-0.6494-1.0803-5.5472-6.0636-9.7159-11.955-9.7159-3.829 0-7.2399 1.7335-9.4549 4.4912-0.2164 0.2695-0.5797 0.3929-0.8992 0.2589-0.8523-0.3575-1.7525-0.5304-2.7597-0.5304-3.8062 0-6.9303 2.9047-7.2547 6.6073z" fill="#d0cfce"/><path d="m31.083 42.719-3.7893 6.7541c-0.2732 0.2863-0.0517 0.7346 0.3629 0.7346h8.4435l-5.845 9.2144c-0.3172 0.5 0.3444 1.0389 0.7699 0.6271l13.669-13.227c0.2916-0.2821 0.0737-0.7475-0.35-0.7475h-8.1735l1.5388-3.3558h-6.6263z" fill="#FCEA2B"/></g><g id="c" fill="none" stroke="#000" stroke-linecap="round" stroke-linejoin="round" stroke-miterlimit="10"><path d="m24.026 59.256c-0.7516 1.1632-2.1343 1.6031-3.0902 0.9854s-1.1216-2.0613-0.37-3.2245c0 0 0.8761-1.5078 4.0066-3.0386 0 0 0.6168-0.3534 0.5724 0.3205-0.1914 3.5001-1.1188 4.9572-1.1188 4.9572" stroke-width="1.8"/><path d="m17.726 51.684c-0.7516 1.1632-2.1343 1.6031-3.0902 0.9854s-1.1216-2.0613-0.37-3.2245c0 0 0.8761-1.5078 4.0066-3.0386 0 0 0.6168-0.3534 0.5724 0.3205-0.1914 3.5001-1.1188 4.9572-1.1188 4.9572" stroke-width="1.8"/><path d="m56.428 51.684c-0.7516 1.1632-2.1343 1.6031-3.0902 0.9854s-1.1216-2.0613-0.37-3.2245c0 0 0.8761-1.5078 4.0066-3.0386 0 0 0.6168-0.3534 0.5724 0.3205-0.1914 3.5001-1.1188 4.9572-1.1188 4.9572" stroke-width="1.8"/><path d="m48.002 59.256c-0.7516 1.1632-2.1343 1.6031-3.0902 0.9854s-1.1216-2.0613-0.37-3.2245c0 0 0.8761-1.5078 4.0066-3.0386 0 0 0.6168-0.3534 0.5724 0.3205-0.1915 3.5001-1.1188 4.9572-1.1188 4.9572" stroke-width="1.8"/><path d="m19.279 22.307c-0.031 0.3535-0.3174 0.6396-0.6721 0.6775-4.2996 0.4606-7.6066 4.6942-7.6066 9.8474 0 5.4608 3.7871 9.8877 8.4588 9.8877h32.248c5.1325 0 9.2932-4.6783 9.2932-10.449 0-5.5305-3.8212-10.058-8.6569-10.425-0.37-0.0281-0.67-0.2871-0.7406-0.6494-1.0803-5.5472-6.0636-9.7159-11.955-9.7159-3.829 0-7.2399 1.7335-9.4549 4.4912-0.2164 0.2695-0.5797 0.3929-0.8992 0.2589-0.8523-0.3575-1.7525-0.5304-2.7597-0.5304-3.8062 0-6.9303 2.9047-7.2547 6.6073z" stroke-width="2"/><path d="m31.083 42.719-3.7893 6.7541c-0.2732 0.2863-0.0517 0.7346 0.3629 0.7346h8.4435l-5.845 9.2144c-0.3172 0.5 0.3444 1.0389 0.7699 0.6271l13.669-13.227c0.2916-0.2821 0.0737-0.7475-0.35-0.7475h-8.1735l1.5388-3.3558h-6.6263z" stroke-width="1.8"/></g></svg>
