<svg xmlns="http://www.w3.org/2000/svg" id="a" viewBox="0 0 72 72"><g id="b" fill="#D0CFCE"><path d="m42.635 12.448c-0.4574-3.6438-3.5668-6.4626-7.3346-6.4626-4.0828 0-7.3925 3.3097-7.3925 7.3925v3.8019c0 4.0828 3.3098 7.3925 7.3925 7.3925s7.3925-3.3097 7.3925-7.3925v-3.8019c0-0.315-0.0197-0.6253-0.0579-0.9299zm-3.0878 3.9228c0 2.3455-1.9014 4.2468-4.2468 4.2468s-4.2468-1.9014-4.2468-4.2468v-2.184c0-2.3455 1.9014-4.2467 4.2468-4.2467 2.1645 0 3.9507 1.6191 4.2135 3.7124 0.022 0.175 0.0333 0.3533 0.0333 0.5343v2.184z"/><path d="m42.635 33.262c-0.4574-3.6438-3.5668-6.4625-7.3346-6.4625-4.0828 0-7.3925 3.3097-7.3925 7.3925v3.8019c0 4.0828 3.3098 7.3925 7.3925 7.3925s7.3925-3.3097 7.3925-7.3925v-3.8019c0-0.315-0.0197-0.6253-0.0579-0.93zm-3.0878 3.9228c0 2.3455-1.9014 4.2468-4.2468 4.2468s-4.2468-1.9014-4.2468-4.2468v-2.184c0-2.3455 1.9014-4.2467 4.2468-4.2467 2.1645 0 3.9507 1.6191 4.2135 3.7124 0.022 0.175 0.0333 0.3533 0.0333 0.5343v2.184z"/><path d="m42.635 54.076c-0.4574-3.6438-3.5668-6.4625-7.3346-6.4625-4.0828 0-7.3925 3.3097-7.3925 7.3925v3.8019c0 4.0828 3.3098 7.3925 7.3925 7.3925s7.3925-3.3097 7.3925-7.3925v-3.8019c0-0.315-0.0197-0.6253-0.0579-0.93zm-3.0878 3.9228c0 2.3455-1.9014 4.2468-4.2468 4.2468s-4.2468-1.9014-4.2468-4.2468v-2.184c0-2.3455 1.9014-4.2467 4.2468-4.2467 2.1645 0 3.9507 1.6191 4.2135 3.7124 0.022 0.175 0.0333 0.3533 0.0333 0.5343v2.184z"/></g><g id="c" fill="none" stroke="#000" stroke-linecap="round" stroke-linejoin="round" stroke-miterlimit="10" stroke-width="2"><path d="m39.547 57.998c0 2.3454-1.9013 4.2468-4.2468 4.2468s-4.2468-1.9013-4.2468-4.2468v-2.184c0-2.3454 1.9013-4.2468 4.2468-4.2468 2.1645 0 3.9507 1.6193 4.2135 3.7125 0.022 0.175 0.0333 0.3533 0.0333 0.5342v2.1841z"/><path d="m42.692 58.807c0 4.0828-3.3097 7.3925-7.3925 7.3925s-7.3925-3.3097-7.3925-7.3925v-3.8019c0-4.0828 3.3097-7.3925 7.3925-7.3925 3.7678 0 6.8772 2.8188 7.3346 6.4625 0.0382 0.3046 0.0579 0.615 0.0579 0.93v3.8019z"/><path d="m39.547 37.184c0 2.3454-1.9013 4.2468-4.2468 4.2468s-4.2468-1.9013-4.2468-4.2468v-2.184c0-2.3454 1.9013-4.2468 4.2468-4.2468 2.1645 0 3.9507 1.6193 4.2135 3.7125 0.022 0.175 0.0333 0.3533 0.0333 0.5342v2.1841z"/><path d="m42.692 37.993c0 4.0828-3.3097 7.3925-7.3925 7.3925s-7.3925-3.3097-7.3925-7.3925v-3.8019c0-4.0828 3.3097-7.3925 7.3925-7.3925 3.7678 0 6.8772 2.8188 7.3346 6.4625 0.0382 0.3046 0.0579 0.615 0.0579 0.93v3.8019z"/><path d="m39.547 16.37c0 2.3454-1.9013 4.2468-4.2468 4.2468s-4.2468-1.9013-4.2468-4.2468v-2.184c0-2.3454 1.9013-4.2468 4.2468-4.2468 2.1645 0 3.9507 1.6193 4.2135 3.7125 0.022 0.175 0.0333 0.3533 0.0333 0.5342v2.1841z"/><path d="m42.692 17.179c0 4.0828-3.3097 7.3925-7.3925 7.3925s-7.3925-3.3097-7.3925-7.3925v-3.8019c0-4.0828 3.3097-7.3925 7.3925-7.3925 3.7678 0 6.8772 2.8188 7.3346 6.4625 0.0382 0.3046 0.0579 0.615 0.0579 0.93v3.8019z"/><line x1="35.5" x2="35.5" y1="38.892" y2="54"/><line x1="35.5" x2="35.5" y1="17.931" y2="33.039"/></g></svg>