<?xml version="1.0" encoding="UTF-8"?>
<svg id="a" viewBox="0 0 72 72" xmlns="http://www.w3.org/2000/svg"><g id="b" stroke-linecap="round" stroke-linejoin="round" stroke-miterlimit="10" stroke-width="2"><path d="m36 11c-13.807 0-25 11.193-25 25 0 13.807 11.193 25 25 25 13.806 0 25-11.193 25-25 0-13.807-11.194-25-25-25z" fill="#ea5a47"/><path d="m55.52 39.43c0.1986-1.1263 0.3081-2.2831 0.3081-3.4659 0-1.171-0.1078-2.316-0.3014-3.4306h-39.052c-0.1936 1.1146-0.3014 2.2596-0.3014 3.4306 0 1.1828 0.1095 2.3396 0.3081 3.4659h39.039z" fill="#fff"/></g><g id="c" fill="none" stroke="#000" stroke-linecap="round" stroke-linejoin="round" stroke-miterlimit="10" stroke-width="2"><path d="m36 11c-13.807 0-25 11.193-25 25 0 13.807 11.193 25 25 25 13.806 0 25-11.193 25-25 0-13.807-11.194-25-25-25z"/><path d="m55.52 39.43c0.1986-1.1263 0.3081-2.2831 0.3081-3.4659 0-1.171-0.1078-2.316-0.3014-3.4306h-39.052c-0.1936 1.1146-0.3014 2.2596-0.3014 3.4306 0 1.1828 0.1095 2.3396 0.3081 3.4659h39.039z"/></g></svg>
