<?xml version="1.0" encoding="UTF-8"?>
<svg id="a" version="1.1" viewBox="0 0 72 72" xmlns="http://www.w3.org/2000/svg"><g id="b"><path d="m52 42.2s-0.2-6.2-0.3-6.8-0.7-1.6-1-2.1l-2.5-4.3-6.2-4.5-7.2 5.4 2.6 4.5 4.9-0.4 10.2 13.3-0.5-5.1z" fill="#3F3F3F"/><polyline points="50 39 53.4 48.1 60 56 12 56 16 49 18 37 25 18 29 22 33 25 37 33 42 33 50 39" fill="#9B9B9A"/></g><g id="c" fill="none" stroke="#000" stroke-linecap="round" stroke-linejoin="round" stroke-miterlimit="10" stroke-width="2"><polyline points="60 55 53.4 48.1 50 39"/><polyline points="37 33 33 25 29 22 25 18 18 37 16 49 12 55"/><polyline points="31 24 32 33 42 33 50 39 49 45 50 50 48 52 45 55"/><polyline points="39 28 43 25 47 29 50 34"/></g></svg>
