<svg xmlns="http://www.w3.org/2000/svg" id="a" viewBox="0 0 72 72"><g id="b"><polygon fill="#d0cfce" points="35.955 41.28 35.955 32.735 30.935 32.114 32.728 37.087 33.445 41.435"/><polygon fill="#9b9b9a" points="35.955 41.7 35.955 33.156 40.975 32.535 39.182 37.507 38.465 41.856"/><path fill="#d0cfce" d="m36 42.238-0.045 17.778h-4.975s-0.3773-7.7261-1.69-10.945-9.6-9.2972-9.6-9.2972 11.731 2.47 14.02 2.4675"/><path fill="#d0cfce" d="M36,60.622v5.5511H5.7425V54.2276s19.2585,6.74,23.8912,6.2538S36,60.622,36,60.622Z"/><path fill="#9b9b9a" d="M36,60.622v5.5511H66.2575V54.2276s-19.2585,6.74-23.8912,6.2538S36,60.622,36,60.622Z"/><line x1="53.578" x2="53.578" y1="35.819" y2="31.642" fill="none" stroke="#61b2e4" stroke-linecap="round" stroke-linejoin="round" stroke-width="2"/><path fill="none" stroke="#61b2e4" stroke-linecap="round" stroke-linejoin="round" stroke-width="2" d="m53.046 35.819v-5.7162a5.6623 5.6623 0 0 1 10.735-0.0869v20.917h-0.7174v-19.29"/><path fill="#9b9b9a" d="m35.955 42.238v17.778h5.02s0.3773-7.7261 1.69-10.945 9.6-9.2972 9.6-9.2972-11.731 2.47-14.02 2.4675"/><path fill="none" stroke="#61b2e4" stroke-linecap="round" stroke-linejoin="round" stroke-width="2" d="m48.014 16.12a4.51 4.51 0 0 0-4.7431-4.2321 4.51 4.51 0 0 0-4.7431 4.2321v10.607h-0.6243v-12.038a5.6622 5.6622 0 0 1 10.735-0.0869v20.917h-0.7174v-19.29l0.0931 0.0231v19.29"/><path fill="none" stroke="#92d3f5" stroke-linecap="round" stroke-linejoin="round" stroke-width="2" d="m18.638 35.819v-5.7162a5.393 5.393 0 0 0-5.2736-3.9018 5.4071 5.4071 0 0 0-5.4612 3.8149v20.917h0.7174v-19.29"/><path fill="none" stroke="#92d3f5" stroke-linecap="round" stroke-linejoin="round" stroke-width="2" d="m33.157 16.251v10.475h0.6243v-12.038a5.3931 5.3931 0 0 0-5.2736-3.9019 5.4072 5.4072 0 0 0-5.4612 3.815v20.917h0.7174"/></g><g id="c" fill="none" stroke="#000" stroke-linecap="round" stroke-linejoin="round" stroke-width="2"><path d="M67.015,66.7126H4.985V53.32A75.6246,75.6246,0,0,0,36,60.0162,75.5043,75.5043,0,0,0,67.015,53.32Z"/><path d="m16 38.867a58.01 58.01 0 0 0 20.41 3.3666 57.997 57.997 0 0 0 19.59-3.7492"/><path d="m28.57 31.474a21.164 21.164 0 0 0 14.616-0.14"/><path d="m16 38.867a22.456 22.456 0 0 1 15.025 20.408"/><path d="m56 38.484a22.456 22.456 0 0 0-15.025 20.408"/><path d="m28.57 31.498a13.081 13.081 0 0 1 2.6427 3.3827 13.33 13.33 0 0 1 1.5856 6.5539"/><path d="m43.09 31.498a13.084 13.084 0 0 0-2.6427 3.3827 13.332 13.332 0 0 0-1.5856 6.5539"/><path d="m54.232 35.819v-3.672a4.0884 4.0884 0 0 1 8.1767 0v18.763"/><path d="m39.182 26.727v-9.9706a4.0884 4.0884 0 0 1 8.1767 0v18.763"/><path d="m17.453 35.819v-3.672a4.0883 4.0883 0 1 0-8.1766 0v18.763"/><path d="m32.503 26.727v-9.9706a4.0883 4.0883 0 1 0-8.1766 0v18.763"/></g></svg>