<?xml version="1.0" encoding="UTF-8"?>
<svg id="a" viewBox="0 0 72 72" xmlns="http://www.w3.org/2000/svg"><g id="b"><path d="m17.003 68c0-5.6246-0.5417-10.332 8.1621-11.632 0.1915 2.5172 2.2717 3.5067 4.8379 3.5067s4.6464-0.9896 4.8379-3.5067c8.7037 1.2999 8.4122 6.0071 8.4122 11.632h-26.25z" fill="#B1CC33"/><path d="m24.425 68h18.829c0-2.5777 0.097-5.6094-1.0543-7.6507 0 6.609-12.028 7.6507-17.775 7.6507z" fill="#5C9E31"/><path d="m32.003 7.8785v-2.1784c-0.0938-1.6532-3.5156-2.1688-3.9063 0.0812l-0.0156 2.0973" fill="#d0cfce"/><path d="m27.17 6.0755v53.381s2.6005 0.9454 5.7165 0v-53.381" fill="#d0cfce"/><path d="m28.003 10.888h4l21.062 4.9899c1.0231 0.2948 1.9375 0.8674 1.9375 1.9375s-0.855 1.6071-1.9375 1.9375h0.0013l-21.064 4.9902-3.9987 0.0017-0.0013-6.9294v-6.9274z" fill="#EA5A47"/><path d="m55.003 17.815c0 1.0701-0.855 1.6071-1.9375 1.9375h0.0013l-21.064 4.9902-3.9987 0.0017-0.0013-6.9294h27z" fill="#D22F27"/></g><g id="c" fill="none" stroke="#000" stroke-linecap="round" stroke-linejoin="round" stroke-miterlimit="10" stroke-width="2"><path d="m17.003 68c0-5.6246-0.5417-10.332 8.1621-11.632 0.1915 2.5172 2.2717 3.5067 4.8379 3.5067s4.6464-0.9896 4.8379-3.5067c8.7037 1.2999 8.4122 6.0071 8.4122 11.632h-26.25z"/><path d="m32.003 6.8824v-0.8824c0-1.1-0.9-2-2-2s-2 0.9-2 2v0.8824"/><path d="m28.003 28.75v30.883s1.8471 0.5469 4 0v-30.883"/><path d="m28.004 24.741 3.9988-0.0017 21.064-4.9902h-0.0013c1.0825-0.3304 1.9375-0.8674 1.9375-1.9375s-0.9144-1.6427-1.9375-1.9375l-21.062-4.9899h-4l0.0012 13.857z"/></g></svg>
