<?xml version="1.0" encoding="UTF-8"?>
<svg id="a" version="1.1" viewBox="0 0 72 72" xmlns="http://www.w3.org/2000/svg"><g id="b"><polygon points="39 5.762 39 37 57.686 37" fill="#D0CFCE"/><path d="m54 50c3-3 5-8 5-8h-43s-1 5 3 8h35z" fill="#A57939"/><polygon points="35.262 13 35.262 37 23.738 37" fill="#D0CFCE"/><polyline points="69 48.235 68 68 4 68 4 48.235" fill="none"/><path d="M68,47v21H4V47h1c3,0,9,3,15,3s10-3,16-3s11,3,16,3s7-3,15-3H68z" fill="#92D3F5"/></g><g id="c" fill="none" stroke="#000" stroke-linecap="round" stroke-linejoin="round" stroke-miterlimit="10"><polygon points="39 5.762 39 37 57.686 37" stroke-width="2.0358"/><path d="m54.119 49.81c3-3 4.8813-7.81 4.8813-7.81h-43s-1.2082 4.8375 2.7918 7.8375" stroke-width="2"/><polygon points="35.262 13 35.262 37 23.738 37" stroke-width="2"/><line x1="39" x2="39" y1="6" y2="42" stroke-width="2.0358"/><path d="m5 47c3 0 9 3 15 3s10-3 16-3 11 3 16 3 7-3 15-3" stroke-width="2"/></g></svg>
