<svg xmlns="http://www.w3.org/2000/svg" id="a" version="1.1" viewBox="0 0 72 72"><g id="b"><polygon fill="#D0CFCE" points="39 5.762 39 37 57.686 37"/><path fill="#A57939" d="m54 50c3-3 5-8 5-8h-43s-1 5 3 8h35z"/><polygon fill="#D0CFCE" points="35.262 13 35.262 37 23.738 37"/><polyline fill="none" points="69 48.235 68 68 4 68 4 48.235"/><path fill="#92D3F5" d="M68,47v21H4V47h1c3,0,9,3,15,3s10-3,16-3s11,3,16,3s7-3,15-3H68z"/></g><g id="c" fill="none" stroke="#000" stroke-linecap="round" stroke-linejoin="round" stroke-miterlimit="10"><polygon stroke-width="2.036" points="39 5.762 39 37 57.686 37"/><path stroke-width="2" d="m54.119 49.81c3-3 4.8813-7.81 4.8813-7.81h-43s-1.2082 4.8375 2.7918 7.8375"/><polygon stroke-width="2" points="35.262 13 35.262 37 23.738 37"/><line x1="39" x2="39" y1="6" y2="42" stroke-width="2.036"/><path stroke-width="2" d="m5 47c3 0 9 3 15 3s10-3 16-3 11 3 16 3 7-3 15-3"/></g></svg>