<?xml version="1.0" encoding="UTF-8"?>
<svg id="a" viewBox="0 0 72 72" xmlns="http://www.w3.org/2000/svg"><g id="b"><path d="M58.439,49.9792a4.2769,4.2769,0,0,1-2.2165,1.2315c.016,1.5921-.2583,5.0364-2.95,5.0364H47.44c-3.8651,0-4.127-3.195-4.1035-4.2935-1.2174.0228-2.4108.0176-3.494-.0344-.1707,4.3151-3.4828,4.3279-3.4828,4.3279H25.8628c-5.2485,0-4.6654-5.8318-4.6654-5.8318.1019.1018-6.4149,0-6.4149,0a2.5544,2.5544,0,0,1,1.1664,3.4991C14.3841,57.044,8.9508,56.83,8.9508,56.83s-1.1664.5832-1.1664,2.9159H52.1056c5.8318,0,6.7521-1.5811,7.29-2.2575C61.3041,55.0887,59.4128,51.5047,58.439,49.9792Z" fill="#d0cfce" stroke="#d0cfce" stroke-linecap="round" stroke-linejoin="round" stroke-width="2"/><path d="m12.45 41.084 1.1664 9.3308h9.3306v-3.499a144.18 144.18 0 0 0 13.996 4.6654c3.6893 0.8709 12.83 0 15.162 0s6.9981 0 6.9981-3.4991c0 0-15.162 1.1664-19.828 1.1664-2.3327 0-16.329-5.8318-16.329-5.8318z" fill="#9b9b9a" stroke="#9b9b9a" stroke-linecap="round" stroke-linejoin="round" stroke-width="2"/><path d="m48.607 38.752a12.992 12.992 0 0 1-7.2457-4.2509l-1.3452 1.6154 1.3452-1.6154a23.986 23.986 0 0 1-3.08-4.1918l-2.3216 1.7178 2.3216-1.7178a28.424 28.424 0 0 1-2.2581-4.8254l-2.787 1.1973 2.787-1.1973c-0.088-0.2495-0.1734-0.4966-0.2458-0.7281-0.9735-3.1112-2.3327-12.83-2.3327-12.83l-18.662 3.4993s1.1664 8.1644 0 12.83-3.499 8.1644-2.3327 12.83l10.497 2.3327s13.996 5.8317 16.329 5.8317c4.6654 0 19.828-1.1663 19.828-1.1663 0-6.9985-3.499-8.1649-10.497-9.3312z" fill="#92d3f5"/></g><g id="c"><g fill="none" stroke="#000" stroke-linecap="round" stroke-linejoin="round" stroke-width="2.1846"><path d="m15.949 53.914a5.265 5.265 0 0 1-3.43 2.4669"/><path d="m38.866 54.957a3.4911 3.4911 0 0 1-2.5057 1.29h-10.497a4.1344 4.1344 0 0 1-4.1116-2.4455"/><path d="m48.607 38.752a12.992 12.992 0 0 1-7.2457-4.2509l-2.79 2.2189 2.79-2.2189a23.986 23.986 0 0 1-3.08-4.1918l-3.6509 1.6818 3.6506-1.6818a28.424 28.424 0 0 1-2.2581-4.8254l-4.4137 0.99 4.4137-0.99c-0.088-0.2495-0.1734-0.4966-0.2458-0.7281-0.9735-3.1112-2.3327-12.83-2.3327-12.83l-18.662 3.4993s1.1664 8.1644 0 12.83-3.499 8.1644-2.3327 12.83l10.497 2.3327s13.996 5.8317 16.329 5.8317c4.6654 0 19.828-1.1663 19.828-1.1663 0-6.9985-3.499-8.1649-10.497-9.3312z"/><path d="m55.757 54.341a2.59 2.59 0 0 1-2.485 1.906h-5.832a3.8684 3.8684 0 0 1-3.22-1.3127"/><path d="M7.7844,59.7461H52.1056c5.8318,0,6.7521-1.5811,7.29-2.2575a4.4763,4.4763,0,0,0,.6329-3.96c-.05-.2081-.1083-.414-.1731-.6163"/><polyline points="13.043 45.576 13.634 50.306 22.965 50.306 22.965 47.754"/></g></g></svg>
