<?xml version="1.0" encoding="UTF-8"?>
<svg id="a" viewBox="0 0 72 72" xmlns="http://www.w3.org/2000/svg"><g id="b" stroke-linecap="round" stroke-linejoin="round" stroke-miterlimit="10" stroke-width="2"><polygon points="36 18 14.54 55 57.46 55" fill="#FCEA2B"/><polygon points="36 18 14.54 55 36 55" fill="#F1B31C"/><path d="M36,46.12c-1.48,0-4.44,1.48-7.4,1.48c-4.087,0-7.4,3.3131-7.4,7.4H36V46.12z" fill="#8967AA"/></g><g id="c" fill="none" stroke="#000" stroke-linecap="round" stroke-linejoin="round" stroke-miterlimit="10" stroke-width="2"><polygon points="36 18 14.54 55 57.46 55"/><polygon points="36 18 14.54 55 36 55"/><line x1="36" x2="36" y1="55" y2="18"/><path d="M36,46.12c-1.48,0-4.44,1.48-7.4,1.48c-4.087,0-7.4,3.3131-7.4,7.4H36V46.12z"/><line x1="36" x2="36" y1="55" y2="18"/></g></svg>
