<?xml version="1.0" encoding="UTF-8"?>
<svg id="a" viewBox="0 0 72 72" xmlns="http://www.w3.org/2000/svg"><g id="b"><path d="m24.488 52.117c-0.5439 2.6905-0.4393 4.9935 0.3049 6.6602 2.0541 4.6004 7.4659 6.6766 12.07 4.6202 2.2292-0.9951 3.9378-2.7983 4.8096-5.0782 0.873-2.2798 0.8058-4.7633-0.1893-6.9926-1.0976-2.4583-2.4708-4.353-5.0665-5.1028-0.3095-0.0891-0.0393-1.1312 0.0839-1.4273l0.8396-2.8127-7.5987-2.5299c-3.4214 7.729-5.1046 11.923-5.2532 12.663zm10.033-2.0056c1.2255 0.2796 2.2689 1.0194 2.9376 2.0835 0.6685 1.0642 0.8821 2.3254 0.6024 3.5509s-1.0195 2.269-2.0837 2.9376c-0.7596 0.4767-1.6194 0.7224-2.494 0.7224-0.3518 0-0.7059-0.0397-1.0568-0.12-1.2255-0.2797-2.2689-1.0194-2.9376-2.0836-0.6686-1.0642-0.8821-2.3253-0.6024-3.5508 0.2796-1.2256 1.0195-2.269 2.0837-2.9376 1.0658-0.6687 2.3302-0.8813 3.5508-0.6024z" fill="#EA5A47"/><path d="m37.009 42.077 12.133-30.045c-2.1868 0.6951-4.5552 1.2401-6.5 3.2139-2.4429 2.4793-4.2251 6.3918-4.2251 6.3918s-7.5842 16.521-7.9522 17.344c-0.0134 0.03 6.5439 3.0952 6.5439 3.0952z" fill="#D0CFCE"/><path d="m61.011 24.5s-15.291 5.18-14.812 4.9513c-0.0013-6e-4 -0.0027-0.0042-0.0039-0.0047l-3.9462 1.6485-5.1362 12.966 5.7091-2.7443 0.0016-0.0152c-0.1026 0.034 9.4146-5.6414 9.5884-5.731 4.0244-2.0782 7.0273-6.1439 8.5996-11.071z" fill="#9b9b9a"/><path d="m21.833 32.884c-4.082-1.8222-10.4 0.2072-12.222 4.2873-1.8223 4.083-0.1787 10.432 3.9033 12.254 1.4775 0.6601 3.9424 1.0561 6.3301 0.5737 0.1025-0.0205 3.3664-0.2273 2.9776 0.0254l2.2852-1.0631c1.1782-2.9712 4.7164-11.342 5.0059-11.988l-2.738 1.3137-0.0062 0.0115c-0.0176 0.2838-3.4774-4.4947-5.536-5.4147zm-0.2485 10.35c-0.6457 1.0277-1.6534 1.7422-2.837 2.0124-0.3389 0.0775-0.6777 0.115-1.0118 0.115-2.0731 0-3.9503-1.4297-4.4298-3.5339-0.2709-1.1836-0.064-2.4015 0.5818-3.4293 0.6457-1.0277 1.6535-1.7422 2.837-2.0123 1.182-0.2701 2.4008-0.0631 3.4293 0.5819 1.0277 0.6456 1.7422 1.6534 2.0123 2.837 0.2701 1.1835 0.0639 2.4015-0.5818 3.4292z" fill="#D22F27"/></g><g id="c" fill="none" stroke="#000" stroke-linecap="round" stroke-linejoin="round" stroke-miterlimit="10" stroke-width="2"><path d="m29.584 39.621c3.0581-6.8803 6.6525-14.644 7.7996-16.865 2.0717-4.012 5.7336-10.19 12.542-11.194l-12.661 30.554"/><path d="m41.462 50.976c-1.1378-2.5493-3.3045-4.3145-5.7916-5.0337l1.593-3.8265-7.6801-2.4942c-2.5052 5.6398-4.8798 11.216-5.0918 12.265-0.3613 1.7873-0.6165 4.374 0.3383 6.5134 2.0499 4.5928 7.435 6.6542 12.028 4.6044 4.5929-2.0499 6.6543-7.4351 4.6044-12.028zm-3.5499 4.7362c-0.5596 2.4517-3.0009 3.9855-5.4525 3.4258-2.4517-0.5597-3.9856-3.0008-3.4259-5.4525 0.5597-2.4518 3.0009-3.9856 5.4526-3.4259s3.9855 3.0009 3.4258 5.4526z"/><path d="m26.373 38.238c-0.7838-2.3259-2.4964-4.3306-4.9143-5.4099-4.5928-2.0498-9.9779 0.0115-12.028 4.6045-2.0499 4.5928 0.0116 9.9778 4.6044 12.028 2.1394 0.955 4.7261 0.6996 6.5134 0.3384 0.2928-0.0592 0.8983-0.2697 1.7418-0.5971m-3.541-3.9451c-2.4518 0.5597-4.893-0.9741-5.4526-3.4259-0.5597-2.4517 0.974-4.8928 3.4258-5.4525 2.4517-0.5597 4.8929 0.974 5.4526 3.4257 0.5596 2.4518-0.9741 4.893-3.4258 5.4527z"/><path d="m46.625 30.347 14.247-5.9816c-1.004 6.8082-7.1823 10.47-11.194 12.542-1.3118 0.6774-3.3115 1.6931-7.1655 3.463"/></g></svg>
