<?xml version="1.0" encoding="UTF-8"?>
<svg id="a" viewBox="0 0 72 72" xmlns="http://www.w3.org/2000/svg"><g id="b"><path d="m53.189 52.843h-32.609c-0.3752 0-0.6794-0.2955-0.6794-0.66v-31.68c0-0.3645 0.3042-0.66 0.6794-0.66h32.609c0.3752 0 0.6794 0.2955 0.6794 0.66v31.68c0 0.3645-0.3042 0.66-0.6794 0.66z" fill="#B1CC33"/><path d="m30.66 30.538c-1.85-2.61-6.18-0.11-4.32 2.52 3.19 4.51 5.87 9.25 7.91 14.38 0.84 2.09 4.23 2.65 4.83 0 2.83-12.6 8.21-27.17 20.68-33 2.91-1.36 0.38-5.67-2.52-4.32-11.43 5.35-17.68 17.36-21.23 29.25-1.56-3.05-3.33-5.99-5.35-8.83z" fill="#fff" stroke-linecap="round" stroke-linejoin="round" stroke-miterlimit="10" stroke-width="2"/></g><g id="c" fill="none" stroke="#000" stroke-linecap="round" stroke-linejoin="round" stroke-miterlimit="10" stroke-width="2"><path d="m53 22.642v30.476c0 0.3645-0.2955 0.66-0.66 0.66h-31.68c-0.3645 0-0.66-0.2955-0.66-0.66v-31.68c0-0.3645 0.2955-0.66 0.66-0.66h20.649"/><path d="m30.66 30.538c-1.85-2.61-6.18-0.11-4.32 2.52 3.19 4.51 5.87 9.25 7.91 14.38 0.84 2.09 4.23 2.65 4.83 0 2.83-12.6 8.21-27.17 20.68-33 2.91-1.36 0.38-5.67-2.52-4.32-11.43 5.35-17.68 17.36-21.23 29.25-1.56-3.05-3.33-5.99-5.35-8.83z"/></g></svg>
