<svg xmlns="http://www.w3.org/2000/svg" id="a" version="1.1" viewBox="0 0 72 72"><g id="b"><path fill="#9B9B9A" d="m43.224 23.598-5.5234-0.8185-21.3-3.547c-2.5478-0.4214-5.1427 0.4102-6.971 2.234l-3.579 3.573c-0.3903 0.3907-0.3901 1.0238 5e-4 1.4142 0.114 0.1139 0.2538 0.1986 0.4075 0.2468l20.929 6.568 3.8119 1.1561"/><path fill="#9B9B9A" d="m36.151 37.924 2.394 6.663 6.575 20.954c0.1654 0.527 0.7266 0.8201 1.2535 0.6548 0.1538-0.0482 0.2936-0.1329 0.4075-0.2468l3.578-3.578c1.8248-1.8278 2.6569-4.4229 2.235-6.971l-3.549-21.311-0.893-5.915-12.001 9.75z"/><path fill="#D0CFCE" d="m9.3413 49.6 8.619 3.716c0.2418 0.1044 0.4326 0.2998 0.531 0.544l3.5481 8.8 3.9609-4.01-0.691-5.951c-0.0351-0.3033 0.0702-0.606 0.286-0.822l28.8-28.794c1.0236-1.2048 1.3221-2.8662 0.782-4.352l-0.157-0.585c-0.1859-0.6966-0.7258-1.2433-1.42-1.438l-0.579-0.159c-1.4628-0.5363-3.102-0.2238-4.265 0.813l-28.856 28.812c-0.2199 0.2198-0.5297 0.3248-0.838 0.284l-5.846-0.776-3.875 3.918z"/></g><g id="c" fill="none" stroke="#000" stroke-linejoin="round" stroke-width="2"><path stroke-linecap="round" d="m48.372 36.082 3.243 19.472c0.3715 2.2297-0.3566 4.5016-1.955 6.1l-3.578 3.578-6.534-20.824"/><path stroke-linecap="round" d="m27.223 32.2-20.659-6.482 3.578-3.578c1.5985-1.5984 3.8703-2.3265 6.1001-1.955l19.472 3.243"/><path d="m56.142 18.469-0.158-0.585c-0.2797-1.0374-1.0847-1.8511-2.119-2.142l-0.579-0.159c-1.8103-0.6506-3.8324-0.2362-5.241 1.074l-28.853 28.808-6.339-0.842-5.253 5.312 9.964 4.3 4.1171 10.206 5.371-5.428-0.747-6.428 28.8-28.795c1.2924-1.4507 1.69-3.4911 1.0369-5.321z"/></g></svg>