<?xml version="1.0" encoding="UTF-8"?>
<svg id="a" version="1.1" viewBox="0 0 72 72" xmlns="http://www.w3.org/2000/svg"><g id="b"><path d="M28,37l-4,4l-1.3301-0.4409L11.4549,50.89c-0.35-0.6201-0.57-1.44-0.57-2.32V22.06L28,37z" fill="#D0CFCE"/><path d="m60.825 22.01v26.56c0 0.86-0.2 1.65-0.55 2.27l-11.317-10.362-1.0289 0.0579-4.0645-3.806 16.96-14.72z" fill="#9B9B9A"/><line x1="11.521" x2="11.458" y1="21.649" y2="21.61" fill="none"/><path d="m26.805 36.75 4.47 4.13c0.24 0.22 0.48 0.41 0.72 0.57 2.4301 1.8 5.26 1.8 7.6801-0.01 0.23-0.16 0.47-0.36 0.69-0.56l4.5-4.15" fill="#D0CFCE"/><path d="m26.805 36.75 4.47 4.13c0.24 0.22 0.48 0.41 0.72 0.57 2.4301 1.8 5.26 1.8 7.6801-0.01 0.23-0.16 0.47-0.36 0.69-0.56l4.5-4.15 15.41 14.11c-0.42 0.77-1.07 1.27-1.79 1.27h-45.26c-0.7 0-1.34-0.47-1.77-1.22l15.35-14.14" fill="#D0CFCE" stroke="#D0CFCE" stroke-linecap="round" stroke-linejoin="round" stroke-miterlimit="10" stroke-width="1.8"/><path d="m47.929 39.536 12.346 11.304c-0.42 0.77-1.07 1.27-1.79 1.27h-45.26c-0.7 0-1.34-0.47-1.77-1.22l12.078-11.126" fill="#D0CFCE"/><path d="m60.825 22.01-15.96 14.72-4.5 4.15c-0.22 0.2-0.46 0.4-0.69 0.56-2.42 1.81-5.25 1.81-7.6801 0.01-0.24-0.16-0.48-0.35-0.72-0.57l-4.47-4.13-15.92-14.69c0.04-0.06 0.09-0.13 0.14-0.2 0.42-0.6 0.99-0.96 1.61-0.96h46.48c0.59 0 1.16 0.35 1.5699 0.91 0.0502 0.06 0.1002 0.13 0.1402 0.2z" fill="#D0CFCE"/></g><g id="c" fill="none" stroke="#000" stroke-linecap="round" stroke-linejoin="round" stroke-miterlimit="10" stroke-width="2"><path d="m22.67 40.559-11.215 10.331c-0.35-0.6201-0.57-1.44-0.57-2.32v-26.51"/><path d="m60.825 22.01v26.56c0 0.86-0.2 1.65-0.55 2.27l-11.317-10.362"/><line x1="11.521" x2="11.458" y1="21.649" y2="21.61"/><path d="m26.805 36.75 4.47 4.13c0.24 0.22 0.48 0.41 0.72 0.57 2.4301 1.8 5.26 1.8 7.6801-0.01 0.23-0.16 0.47-0.36 0.69-0.56l4.5-4.15"/><path d="m47.929 39.536 12.346 11.304c-0.42 0.77-1.07 1.27-1.79 1.27h-45.26c-0.7 0-1.34-0.47-1.77-1.22l12.078-11.126"/><path d="m60.825 22.01-15.96 14.72-4.5 4.15c-0.22 0.2-0.46 0.4-0.69 0.56-2.42 1.81-5.25 1.81-7.6801 0.01-0.24-0.16-0.48-0.35-0.72-0.57l-4.47-4.13-15.92-14.69c0.04-0.06 0.09-0.13 0.14-0.2 0.42-0.6 0.99-0.96 1.61-0.96h46.48c0.59 0 1.16 0.35 1.5699 0.91 0.0502 0.06 0.1002 0.13 0.1402 0.2z"/></g></svg>
