<svg xmlns="http://www.w3.org/2000/svg" id="a" viewBox="0 0 72 72"><g id="b"><path fill="#fcea2b" d="m30.614 13.738c0.284-1.9293-1.0499-3.7236-2.9792-4.0075s-3.7236 1.0498-4.0075 2.9792c-0.0455 0.3093-0.0498 0.6232-0.0126 0.9336l-0.2572 18.998 0.0217 4.3248 0.1759-12.999c0.284-1.9293-1.0499-3.7236-2.9792-4.0075s-3.7236 1.0498-4.0075 2.9792c-0.0455 0.3093-0.0498 0.6232-0.0126 0.9336l-0.1759 12.999 0.0526 10.085c0.4248 8.3102 7.7518 13.629 16.06 13.205 4.7918-0.2654 9.32-2.2781 12.728-5.6572 2.9178-3.0904 10.086-11.535 10.086-11.535 1.4629-2.1582 0.3282-5.4939-0.8007-4.6726l-9.8756 4.6509-0.0389-5.3996 0.0389 5.3996-0.0389-5.3996 0.0395-21.85c0.284-1.9293-1.0499-3.7236-2.9792-4.0075s-3.7236 1.0498-4.0075 2.9792c-0.0455 0.3093-0.0498 0.6232-0.0126 0.9336l-0.0947 6.9994-0.1861 10.636 0.3671-22.193c0.284-1.9293-1.0499-3.7236-2.9792-4.0075-1.9293-0.284-3.7236 1.0498-4.0075 2.9792-0.0455 0.3093-0.0498 0.6232-0.0126 0.9336l-0.2064 24.016"/></g><g id="c"><path fill="none" stroke="#000" stroke-linecap="round" stroke-linejoin="round" stroke-width="2" d="m30.614 13.738c0.284-1.9293-1.0499-3.7236-2.9792-4.0075s-3.7236 1.0498-4.0075 2.9792c-0.0455 0.3093-0.0498 0.6232-0.0126 0.9336l-0.2572 18.998 0.0048 0.9513 0.1928-9.6253c0.284-1.9293-1.0499-3.7236-2.9792-4.0075s-3.7236 1.0498-4.0075 2.9792c-0.0455 0.3093-0.0498 0.6232-0.0126 0.9336l-0.1759 12.999 0.0526 10.085c0.4248 8.3102 7.7518 13.629 16.06 13.205 4.7918-0.2654 9.32-2.2781 12.728-5.6572 2.9178-3.0904 10.086-11.535 10.086-11.535 1.4629-2.1582 0.3282-5.4939-0.8007-4.6726l-9.8756 4.6509-0.0389-5.3996 0.0389 5.3996-0.0389-5.3996 0.0395-21.85c0.284-1.9293-1.0499-3.7236-2.9792-4.0075s-3.7236 1.0498-4.0075 2.9792c-0.0455 0.3093-0.0498 0.6232-0.0126 0.9336l-0.0947 6.9994-0.1861 10.636 0.3671-22.193c0.284-1.9293-1.0499-3.7236-2.9792-4.0075-1.9293-0.284-3.7236 1.0498-4.0075 2.9792-0.0455 0.3093-0.0498 0.6232-0.0126 0.9336l-0.1758 20.454"/></g></svg>