<svg xmlns="http://www.w3.org/2000/svg" id="a" version="1.1" viewBox="0 0 72 72"><g id="b" fill="#3F3F3F"><polyline points="26.296 36.76 45.9 6.237 50.201 9.084 34.088 35.112"/><polyline points="18.943 53.711 15.552 58.535 9.74 62.873 11.748 55.808 15.552 50.271"/></g><g id="c" fill="#c19a65"><path d="m12.511 54.697c-1.1821-1.3451-2.3342-3.0456-2.2442-4.012l2.6885-18.46c0-0.8427 0.1873-1.5918 1.0708-2.0703l16.348-8.2712c0.5202-0.2526-1.2442-2.812 4.2487-0.4575"/><path d="m20.542 40.496 0.659-3.9539c0.0669-0.5425 0.6064-1.3509 0.9989-1.5091l2.1077-0.8445"/><path d="m21.943 53.139c2.3774 7.0276 10.894 6.7402 5.0421-2.1684"/><path d="m23.427 51.971c4.8738 8.5664 15.571 8.7109 6.3068-4.2992"/><path d="m28.121 49.28c13.31 17.747 14.103 4.4061 5.0706-1.307"/><path d="m56.797 52.239c-13.048 2.7879-14.96-3.4116-21.215-4.3521-5.087-1.0545-10.789 2.251-12.74 3.8613-4.4436 4.2833-10.263-1.5712-4.7642-5.6889l7.2546-6.7291 8.2677-3.938 7.8137-10.37 18.639 10.011c5.6531 5.6531 5.6531 14.819 0 20.472-4.5269 0.4947-12.548 4.1806-23.554 2.6678"/><polygon points="38.132 42.874 16.516 42.874 25.136 35.48 26.062 36.581 34.088 35.112 40.721 23.534 44.288 25.433"/><rect width="21.481" height="11.268" x="32.059" y="45.907"/></g><g id="d" fill="none" stroke="#000" stroke-linecap="round" stroke-linejoin="round" stroke-width="2"><path stroke-miterlimit="10" d="m10.632 52.621 2.3232-20.396c0-0.8427 0.1873-1.5918 1.0708-2.0703l17.178-8.7194"/><path stroke-miterlimit="10" d="m19.542 39.496 0.659-3.9539c0.0669-0.5425 0.6064-1.3509 0.9989-1.5091l2.1077-0.8445"/><polyline stroke-miterlimit="10" points="26.062 35.788 45.9 6.237 50.201 9.084 33.73 34.189"/><polyline stroke-miterlimit="10" points="15.552 56.775 13.516 59.539 8.74 64.873 11.494 58 13.534 54.961"/><path stroke-miterlimit="10" d="m43.704 26.252s12.626 6.0141 16.35 8.7817c6.4166 4.769 5.6531 14.819 0 20.472-4.527 0.4947-8.1479 2.0335-18.217 2.0335"/><path d="m29.078 55.939c0.6067 3.2292-4.422 4.7876-5.0939 0.133"/><path d="m34.011 55.791c0.6388 3.2142-4.2872 4.1327-4.9332 0.1478"/><path d="m39.05 55.395c0.6599 3.2167-4.3629 3.6515-5.0383 0.396"/><line x1="39.05" x2="38.456" y1="55.395" y2="52.613" stroke-miterlimit="10"/><line x1="34.011" x2="33.009" y1="55.791" y2="51.234" stroke-miterlimit="10"/><line x1="29.078" x2="28.455" y1="55.939" y2="52.862" stroke-miterlimit="10"/><line x1="23.984" x2="23.891" y1="56.072" y2="55.395" stroke-miterlimit="10"/><path stroke-miterlimit="10" d="m56.797 52.239c-13.048 2.7879-14.96-3.4116-21.215-4.3521-5.087-1.0545-10.789 2.251-12.74 3.8613-4.4436 4.2833-10.263-1.5712-4.7642-5.6889 0 0 5.0087-4.6922 7.2546-5.7291 2.183-1.0079 9.5516-2.1251 9.5516-2.1251"/></g></svg>