<?xml version="1.0" encoding="UTF-8"?>
<svg id="a" viewBox="0 0 72 72" xmlns="http://www.w3.org/2000/svg"><g id="b"><path d="m50.875 34.028a2.7147 2.7147 0 0 1-1.9317-0.8l-10.226-10.226a2.7308 2.7308 0 0 1 9e-4 -3.8628l9.5557-9.5566a1.0168 1.0168 0 0 1 1.3965 0l12.693 12.693a0.988 0.988 0 0 1 0 1.3955l-9.5567 9.5571a2.714 2.714 0 0 1-1.9316 0.7999z" fill="#3f3f3f"/><path d="m48.141 35.024a1.8386 1.8386 0 0 1-1.2992-0.54l-9.3615-9.3637a1.8007 1.8007 0 0 1-0.03-2.5431l1.1156-1.1156a1.0078 1.0078 0 0 1 1.4266 0l10.51 10.51a1.0087 1.0087 0 0 1 0 1.426l-1.1166 1.1152a1.7548 1.7548 0 0 1-1.2449 0.5112zm0.1264-1.9679 9e-4 0.0015v-5e-4z" fill="#fcea2b"/><path d="M14.5049,57.4578a.934.934,0,0,1,0-1.3217c5.6313-5.6313,5.0519-22.5735,5.0457-22.7441a.9344.9344,0,0,1,.7119-.9439c.1264-.0311,12.6748-3.1344,17.8075-8.2671a.9343.9343,0,0,1,1.3217,0l8.3907,8.3907a.9342.9342,0,0,1,0,1.3216C42.65,39.0261,39.5457,51.5738,39.5146,51.7a.9345.9345,0,0,1-.9439.712c-.1706-.0062-17.1177-.5807-22.7441,5.0457A.934.934,0,0,1,14.5049,57.4578Z" fill="#d0cfce"/><circle cx="36.07" cy="35.876" r="3" fill="#fff"/></g><g id="c" fill="none" stroke="#000" stroke-linecap="round" stroke-linejoin="round"><path d="m15.1 56.846c5.9849-5.9849 5.3187-23.441 5.3187-23.441s10.044-2.446 16.095-6.7283" stroke-width="1.8691"/><path d="m15.1 56.846c5.9849-5.9849 23.441-5.3187 23.441-5.3187s2.446-10.044 6.7283-16.095" stroke-width="1.8691"/><circle cx="36.07" cy="35.876" r="3" stroke-width="1.9737"/><line x1="15.1" x2="33.951" y1="56.846" y2="37.995" stroke-width="2"/><path d="M48.9721,10.28l-9.5573,9.5573a1.7446,1.7446,0,0,0-.155,2.29l-1.1337,1.1307a.7948.7948,0,0,0,.03,1.123L47.565,33.79a.7948.7948,0,0,0,1.123.03l1.1291-1.1349a1.7446,1.7446,0,0,0,2.2911-.1539l9.5573-9.5572" stroke-width="2"/></g></svg>
