<?xml version="1.0" encoding="UTF-8"?>
<svg id="a" viewBox="0 0 72 72" xmlns="http://www.w3.org/2000/svg"><g id="b"><polygon points="29.4 36.162 26.556 33.322 18.42 25.186 24.695 18.911 32.835 27.052 35.534 29.746 35.68 29.892 38.524 27.052 46.665 18.911 52.94 25.186 44.804 33.322 41.959 36.163 42.059 36.263 44.103 38.304 52.94 47.141 46.665 53.416 37.826 44.577 35.678 42.432 35.619 42.495 33.533 44.577 24.695 53.416 18.42 47.141 27.256 38.304 29.369 36.194" fill="#D0CFCE"/></g><g id="c"><polygon points="29.4 36.162 26.556 33.322 18.42 25.186 24.695 18.911 32.835 27.052 35.534 29.746 35.68 29.892 38.524 27.052 46.665 18.911 52.94 25.186 44.804 33.322 41.959 36.163 42.059 36.263 44.103 38.304 52.94 47.141 46.665 53.416 37.826 44.577 35.678 42.432 35.619 42.495 33.533 44.577 24.695 53.416 18.42 47.141 27.256 38.304 29.369 36.194" fill="none" stroke="#000" stroke-linecap="round" stroke-linejoin="round" stroke-miterlimit="10" stroke-width="2"/></g></svg>
