<?xml version="1.0" encoding="UTF-8"?>
<svg id="a" viewBox="0 0 72 72" xmlns="http://www.w3.org/2000/svg"><g id="b"><path d="m53.13 28.38v2.91c0 1.6569-1.3431 3-3 3h-6.68c-1.6569 0-3 1.3431-3 3v20.72c0 1.6569-1.3431 3-3 3h-2.9c-1.6569 0-3-1.3431-3-3v-20.72c0-1.6569-1.3431-3-3-3h-6.68c-1.6569 0-3-1.3431-3-3v-2.91c0-1.6569 1.3431-3 3-3h6.6799c1.6569 0 3-1.3431 3-3v-8.39c0-1.6569 1.3431-3 3-3h2.9c1.6569 0 3 1.3431 3 3v8.39c0 1.6569 1.3431 3 3 3h6.6801c1.6569 0 3 1.3432 3 3z" fill="#B399C8" stroke-linecap="round" stroke-linejoin="round" stroke-miterlimit="10" stroke-width="2"/></g><g id="c"><path d="m53.13 28.38v2.91c0 1.6569-1.3431 3-3 3h-6.68c-1.6569 0-3 1.3431-3 3v20.72c0 1.6569-1.3431 3-3 3h-2.9c-1.6569 0-3-1.3431-3-3v-20.72c0-1.6569-1.3431-3-3-3h-6.68c-1.6569 0-3-1.3431-3-3v-2.91c0-1.6569 1.3431-3 3-3h6.6799c1.6569 0 3-1.3431 3-3v-8.39c0-1.6569 1.3431-3 3-3h2.9c1.6569 0 3 1.3431 3 3v8.39c0 1.6569 1.3431 3 3 3h6.6801c1.6569 0 3 1.3432 3 3z" fill="none" stroke="#000" stroke-linecap="round" stroke-linejoin="round" stroke-miterlimit="10" stroke-width="2"/></g></svg>
