<svg xmlns="http://www.w3.org/2000/svg" id="a" viewBox="0 0 72 72"><g id="b"><path fill="#FCEA2B" d="m25.705 40.107c0.1453 0.8051 0.9245 1.4619 1.9675 1.6589l11.906 2.2495c0.5576 0.1054 0.564 0.7031 0.0064 0.8085-3.1597 0.597-9.0176 1.7037-11.919 2.2519-1.043 0.1971-1.8155 0.8529-1.9608 1.6579l-3.1563 17.492c-0.0868 0.4811-1.0073 0.4811-1.0942 0l-3.1563-17.492c-0.1453-0.8051-0.9179-1.461-1.9611-1.6581-2.9014-0.5479-8.7594-1.6546-11.919-2.2516-0.5576-0.1053-0.5576-0.7019 0-0.8072 3.1601-0.597 9.0184-1.7039 11.92-2.2523 1.0429-0.1971 1.172-1.1419 1.3173-1.9469l2.6528-14.092c0.0868-0.4811 2.1538-3.594 2.2406-3.1128 0.9825 5.4443 2.9623 16.416 3.1566 17.494z"/><path fill="#F1B31C" d="m22.65 66.226 1.5818-15.403c-2.7995-4.6185-3.8694-9.4102-5.1728-12.822l-1.3554 2.1201c-0.1349 0.8046-0.8519 1.46-1.8203 1.6571-2.6937 0.548-8.133 1.6544-11.067 2.2512-0.5177 0.1053-0.5177 0.7015 0 0.8068 2.9338 0.5967 8.3727 1.7028 11.066 2.2504 0.9685 0.197 2.6859 0.8525 2.8208 1.6572l2.9305 17.483c0.0806 0.4809 0.9353 0.4809 1.0158-1e-4z"/><path fill="#FCEA2B" d="m46.676 19.305c0.1049 0.5815 0.6677 1.0558 1.421 1.1981l8.5987 1.6246c0.4027 0.0761 0.4073 0.5078 0.0046 0.5839-2.282 0.4312-6.5127 1.2304-8.6081 1.6263-0.7533 0.1423-1.3112 0.616-1.4161 1.1974l-2.2795 12.633c-0.0627 0.3475-0.7275 0.3475-0.7902 0l-2.2795-12.633c-0.1049-0.5815-0.6629-1.0552-1.4163-1.1975-2.0955-0.3957-6.3263-1.195-8.6084-1.6262-0.4027-0.0761-0.4027-0.5069 0-0.583 2.2823-0.4312 6.5133-1.2306 8.6086-1.6267 0.7532-0.1423 0.8465-0.8247 0.9514-1.4061l1.7931-10.178c0.0627-0.3475 1.6784-2.5957 1.741-2.2481 0.7095 3.9321 2.1393 11.856 2.2797 12.635z"/><path fill="#F1B31C" d="m44.747 38.169 0.8646-11.125c-2.0219-3.3355-3.5168-6.7963-4.4581-9.2606l-0.2567 1.5312c-0.0974 0.5811-0.6153 1.0544-1.3147 1.1968-1.9454 0.3958-5.8738 1.1948-7.9927 1.6259-0.3739 0.076-0.3739 0.5066 0 0.5827 2.1189 0.431 6.0469 1.2298 7.9924 1.6253 0.6995 0.1423 2.2176 0.6157 2.315 1.1969l2.1164 12.627c0.0583 0.3473 0.6756 0.3473 0.7338-1e-4z"/><path fill="#FCEA2B" d="m56.882 48.936c0.0862 0.4637 0.5487 0.8419 1.1677 0.9554l7.0663 1.2955c0.3309 0.0607 0.3347 0.4049 0.0038 0.4656-1.8753 0.3438-5.352 0.9812-7.074 1.2969-0.619 0.1135-1.0775 0.4912-1.1637 0.9548l-1.8733 10.074c-0.0515 0.2771-0.5978 0.2771-0.6494 0l-1.8733-10.074c-0.0862-0.4637-0.5448-0.8414-1.1639-0.9549-1.722-0.3156-5.1988-0.9529-7.0743-1.2967-0.3309-0.0607-0.3309-0.4042 0-0.4649 1.8755-0.3438 5.3525-0.9813 7.0745-1.2972 0.619-0.1135 0.6956-0.6577 0.7818-1.1213l1.4736-8.1159c0.0515-0.2771 1.3793-2.0699 1.4308-1.7927 0.583 3.1356 1.758 9.4545 1.8734 10.075z"/><path fill="#F1B31C" d="m55.232 63.978 1.0538-8.8711c-1.6123-2.6598-2.8044-5.4195-3.555-7.3846l-0.2047 1.221c-0.0777 0.4634-0.4906 0.8408-1.0484 0.9543-1.5513 0.3156-4.6839 0.9528-6.3736 1.2965-0.2982 0.0606-0.2982 0.404 0 0.4646 1.6896 0.3437 4.822 0.9807 6.3733 1.2961 0.5578 0.1134 0.9709 0.491 1.0486 0.9544l2.1208 10.069c0.0466 0.277 0.5388 0.277 0.5852 0z"/></g><g id="c" fill="none" stroke="#000" stroke-linecap="round" stroke-linejoin="round" stroke-miterlimit="10" stroke-width="2"><path d="m20 32 2.1418-11.16 0.6996 4.1763c0.1122 0.6679 2.3298 13.906 2.3298 13.906 0.2615 1.5604 1.6435 2.8154 3.5205 3.1974l11.308 2.3011-11.316 2.3026c-1.8724 0.381-3.2513 1.6356-3.5127 3.1963l-3.029 18.081-3.029-18.081c-0.2615-1.5607-1.6405-2.8153-3.5131-3.1964l-11.316-2.3025 11.317-2.3031c1.872-0.3812 3.138-2.557 3.3993-4.1174"/><path d="m42.556 13.45 1.5469-8.0604 0.5052 3.0162c0.081 0.4824 1.6827 10.043 1.6827 10.043 0.1889 1.1269 1.1869 2.0334 2.5426 2.3092l8.167 1.662-8.1728 1.663c-1.3523 0.2752-2.3482 1.1812-2.5369 2.3084l-2.1876 13.059-2.1876-13.058c-0.1889-1.1272-1.1848-2.0333-2.5372-2.3085l-8.173-1.6629 8.1735-1.6634c1.352-0.2753 2.2663-1.8467 2.455-2.9736"/><path d="m53.848 44.267 1.2335-6.4275 0.4029 2.4052c0.0646 0.3847 1.3418 8.0084 1.3418 8.0084 0.1506 0.8986 0.9465 1.6215 2.0275 1.8414l6.5126 1.3253-6.5171 1.3261c-1.0783 0.2194-1.8725 0.9419-2.023 1.8408l-1.7445 10.413-1.7445-10.413c-0.1506-0.8988-0.9448-1.6214-2.0232-1.8409l-6.5174-1.326 6.5177-1.3264c1.0781-0.2195 1.8072-1.4726 1.9577-2.3712"/></g></svg>