<svg xmlns="http://www.w3.org/2000/svg" id="a" viewBox="0 0 72 72"><g id="b" fill="none" stroke="#000" stroke-linecap="round" stroke-linejoin="round" stroke-width="4"><line x1="36" x2="36" y1="20.981" y2="51.019"/><line x1="51.019" x2="20.981" y1="36" y2="36"/><line x1="46.62" x2="25.38" y1="25.38" y2="46.62"/><line x1="46.62" x2="25.38" y1="46.62" y2="25.38"/></g><g id="c"><path fill="#5c9e31" d="M60,60.9583H12a.9448.9448,0,0,1-1-1v-48a.9448.9448,0,0,1,1-1H60a.9448.9448,0,0,1,1,1v48A.9448.9448,0,0,1,60,60.9583Z"/><line x1="36" x2="36" y1="20.939" y2="50.977" fill="none" stroke="#fff" stroke-linecap="round" stroke-linejoin="round" stroke-width="4"/><line x1="51.019" x2="20.981" y1="35.958" y2="35.958" fill="none" stroke="#fff" stroke-linecap="round" stroke-linejoin="round" stroke-width="4"/><line x1="46.62" x2="25.38" y1="25.338" y2="46.578" fill="none" stroke="#fff" stroke-linecap="round" stroke-linejoin="round" stroke-width="4"/><line x1="46.62" x2="25.38" y1="46.578" y2="25.338" fill="none" stroke="#fff" stroke-linecap="round" stroke-linejoin="round" stroke-width="4"/></g><g id="d"><path fill="none" stroke="#000" stroke-linecap="round" stroke-linejoin="round" stroke-width="2" d="M60,61H12a.9448.9448,0,0,1-1-1V12a.9448.9448,0,0,1,1-1H60a.9448.9448,0,0,1,1,1V60A.9448.9448,0,0,1,60,61Z"/></g></svg>