<svg xmlns="http://www.w3.org/2000/svg" id="a" viewBox="0 0 72 72"><g id="b" fill="none" stroke="#000" stroke-linecap="round" stroke-linejoin="round" stroke-miterlimit="10" stroke-width="2"><line x1="36" x2="36" y1="7" y2="65"/><line x1="11.237" x2="60.763" y1="50.502" y2="21.498"/><line x1="60.763" x2="11.237" y1="50.502" y2="21.498"/><line x1="21.043" x2="21.043" y1="27.24" y2="16"/><line x1="25.957" x2="36" y1="13.708" y2="18.458"/><line x1="21.043" x2="11" y1="27.24" y2="31.991"/><line x1="46.043" x2="36" y1="13.708" y2="18.458"/><line x1="25.957" x2="36" y1="58.209" y2="53.458"/><line x1="46.043" x2="36" y1="58.209" y2="53.458"/><line x1="21.077" x2="11.034" y1="44.742" y2="39.992"/><line x1="61" x2="50.957" y1="31.991" y2="27.24"/><line x1="60.968" x2="50.925" y1="39.992" y2="44.742"/><line x1="50.925" x2="50.925" y1="55.983" y2="44.742"/><line x1="21.077" x2="21.077" y1="55.983" y2="44.742"/><line x1="50.957" x2="50.957" y1="27.24" y2="16"/></g></svg>