<?xml version="1.0" encoding="UTF-8"?>
<svg id="a" viewBox="0 0 72 72" xmlns="http://www.w3.org/2000/svg"><g id="b"><path d="m59.04 60.166h-46.08c-0.5302 0-0.96-0.4298-0.96-0.96v-46.08c0-0.5302 0.4298-0.96 0.96-0.96h46.08c0.5302 0 0.96 0.4298 0.96 0.96v46.08c0 0.5302-0.4298 0.96-0.96 0.96z" fill="#B1CC33"/><polygon points="42.836 35.575 45.318 33.054 53.979 24.243 47.299 17.447 38.633 26.263 36.275 28.66 35.97 28.966 24.709 17.509 18.029 24.305 29.095 35.563 29.288 35.758 26.639 38.449 17.232 48.019 23.912 54.815 33.321 45.243 35.74 42.785 35.966 42.553 48.088 54.885 54.768 48.089 42.651 35.762" fill="#D0CFCE"/></g><g id="c" fill="none" stroke="#000" stroke-linecap="round" stroke-linejoin="round" stroke-miterlimit="10" stroke-width="2"><path d="m59.04 60.166h-46.08c-0.5302 0-0.96-0.4298-0.96-0.96v-46.08c0-0.5302 0.4298-0.96 0.96-0.96h46.08c0.5302 0 0.96 0.4298 0.96 0.96v46.08c0 0.5302-0.4298 0.96-0.96 0.96z"/><polygon points="42.836 35.575 45.318 33.054 53.979 24.243 47.299 17.447 38.633 26.263 36.275 28.66 35.97 28.966 24.709 17.509 18.029 24.305 29.095 35.563 29.288 35.758 26.639 38.449 17.232 48.019 23.912 54.815 33.321 45.243 35.74 42.785 35.966 42.553 48.088 54.885 54.768 48.089 42.651 35.762"/></g></svg>
