<?xml version="1.0" encoding="UTF-8"?>
<svg id="a" viewBox="0 0 72 72" xmlns="http://www.w3.org/2000/svg"><g id="b"><polygon points="31.853 29.874 31.853 12.521 42.149 12.521 42.149 29.88 42.197 29.881 46.248 29.883 59.605 29.883 59.605 40.179 46.256 40.179 42.149 40.176 42.149 40.206 42.149 58.851 31.853 58.851 31.853 40.169 31.753 40.169 27.936 40.167 14 40.167 14 29.871 27.933 29.871 31.769 29.874" fill="#D0CFCE"/></g><g id="c"><polygon points="31.853 29.874 31.853 12.521 42.149 12.521 42.149 29.88 42.197 29.881 46.248 29.883 59.605 29.883 59.605 40.179 46.256 40.179 42.149 40.176 42.149 40.206 42.149 58.851 31.853 58.851 31.853 40.169 31.753 40.169 27.936 40.167 14 40.167 14 29.871 27.933 29.871 31.769 29.874" fill="none" stroke="#000" stroke-linecap="round" stroke-linejoin="round" stroke-miterlimit="10" stroke-width="2"/></g></svg>
