<?xml version="1.0" encoding="UTF-8"?>
<svg id="a" viewBox="0 0 72 72" xmlns="http://www.w3.org/2000/svg"><g id="b"><path d="m60.99 21.717a1.0416 1.0416 0 0 0-0.6263-1.017 25.474 25.474 0 0 0-9.87-2.0747 27.293 27.293 0 0 0-14.39 3.8742h-0.3632a27.292 27.292 0 0 0-14.39-3.8742 25.422 25.422 0 0 0-9.6957 2.0015 1.0417 1.0417 0 0 0-0.635 0.9585l-0.0122 1.3739a0.9713 0.9713 0 0 0 1.3313 0.9166 17.822 17.822 0 0 1 6.9084-1.3763 24.796 24.796 0 0 1 10.033 1.7289 1.0083 1.0083 0 0 1 0.1826 1.7318c-2.8342 2.1263-9.33 7.7453-9.33 14.582 0 8.7447 7.4163 14.833 15.386 14.833h0.8056c7.97 0 15.386-6.0881 15.386-14.833 0-6.8368-6.4956-12.456-9.33-14.582a1.0083 1.0083 0 0 1 0.1826-1.7318 24.796 24.796 0 0 1 10.033-1.7289 17.822 17.822 0 0 1 6.9588 1.3974 0.9776 0.9776 0 0 0 1.3676-0.8424zm-13.736 18.592a11.068 11.068 0 0 1-11.271 10.968c-6.12 0-11.574-3.5752-11.574-11.029 0-6.48 8.6115-11.77 10.86-13.04a1.0031 1.0031 0 0 1 1.0439 0.033c2.2387 1.4495 11.047 7.5126 10.941 13.068z" fill="#3f3f3f"/></g><g id="c"><path d="m60.99 21.717a1.0416 1.0416 0 0 0-0.6263-1.017 25.474 25.474 0 0 0-9.87-2.0747 27.293 27.293 0 0 0-14.39 3.8742h-0.3632a27.292 27.292 0 0 0-14.39-3.8742 25.422 25.422 0 0 0-9.6957 2.0015 1.0417 1.0417 0 0 0-0.635 0.9585l-0.0122 1.3739a0.9713 0.9713 0 0 0 1.3313 0.9166 17.822 17.822 0 0 1 6.9084-1.3763 24.796 24.796 0 0 1 10.033 1.7289 1.0083 1.0083 0 0 1 0.1826 1.7318c-2.8342 2.1263-9.33 7.7453-9.33 14.582 0 8.7447 7.4163 14.833 15.386 14.833h0.8056c7.97 0 15.386-6.0881 15.386-14.833 0-6.8368-6.4956-12.456-9.33-14.582a1.0083 1.0083 0 0 1 0.1826-1.7318 24.796 24.796 0 0 1 10.033-1.7289 17.822 17.822 0 0 1 6.9588 1.3974 0.9776 0.9776 0 0 0 1.3676-0.8424zm-13.736 18.592a11.068 11.068 0 0 1-11.271 10.968c-6.12 0-11.574-3.5752-11.574-11.029 0-6.48 8.6115-11.77 10.86-13.04a1.0031 1.0031 0 0 1 1.0439 0.033c2.2387 1.4495 11.047 7.5126 10.941 13.068z" fill="none" stroke="#000" stroke-linecap="round" stroke-linejoin="round" stroke-width="2"/></g></svg>
