<svg xmlns="http://www.w3.org/2000/svg" id="a" viewBox="0 0 72 72"><g id="b"><path fill="#3f3f3f" d="m65.156 24.864a47.777 47.777 0 0 0-14.421 2.8752 34.625 34.625 0 0 0-14.735-2.8752 34.566 34.566 0 0 0-14.735 2.8752 47.814 47.814 0 0 0-14.43-2.8752 1.7614 1.7614 0 0 0-1.8418 1.7431 1.7977 1.7977 0 0 0 1.7431 1.8509 44.192 44.192 0 0 1 10.476 1.7161c-4.5644 3.4592-6.3254 7.8439-6.3254 10.638 0 4.5554 2.8932 9.8745 11.07 9.8745 3.9 0 7.5294-1.7521 9.0209-4.3667a11.276 11.276 0 0 0 0.5121-9.8925 14.566 14.566 0 0 0-5.8851-6.5231 33.939 33.939 0 0 1 10.396-1.4465 34.024 34.024 0 0 1 10.396 1.4465 14.464 14.464 0 0 0-5.8851 6.5231 11.246 11.246 0 0 0 0.5121 9.8925c1.4915 2.6146 5.1124 4.3667 9.0209 4.3667 8.1673 0 11.07-5.3191 11.07-9.8745 0-2.7943-1.77-7.188-6.3524-10.656a48.416 48.416 0 0 1 10.504-1.6981 1.7978 1.7978 0 0 0-0.1078-3.594zm-36.982 12.956a7.6329 7.6329 0 0 1-0.3235 6.7208c-0.7278 1.2669-2.983 2.5517-5.8941 2.5517-6.7478 0-7.4755-4.3937-7.4755-6.2805 0-1.5364 1.4915-5.966 6.9184-9.0838 3.0459 1.4108 5.6336 3.3875 6.7747 6.0918zm29.345 2.992c0 1.8868-0.7277 6.2805-7.4755 6.2805-2.92 0-5.1753-1.2848-5.9031-2.5517a7.6626 7.6626 0 0 1-0.3235-6.7208c1.1771-2.7763 3.7558-4.744 6.73-6.1188 5.4716 3.1181 6.9721 7.5746 6.9721 9.111z"/></g><g id="c"><path fill="none" stroke="#000" stroke-linecap="round" stroke-linejoin="round" stroke-width="1.797" d="m65.156 24.864a47.777 47.777 0 0 0-14.421 2.8752 34.625 34.625 0 0 0-14.735-2.8752 34.566 34.566 0 0 0-14.735 2.8752 47.814 47.814 0 0 0-14.43-2.8752 1.7614 1.7614 0 0 0-1.8418 1.7431 1.7977 1.7977 0 0 0 1.7431 1.8509 44.192 44.192 0 0 1 10.476 1.7161c-4.5644 3.4592-6.3254 7.8439-6.3254 10.638 0 4.5554 2.8932 9.8745 11.07 9.8745 3.9 0 7.5294-1.7521 9.0209-4.3667a11.276 11.276 0 0 0 0.5121-9.8925 14.566 14.566 0 0 0-5.8851-6.5231 33.939 33.939 0 0 1 10.396-1.4465 34.024 34.024 0 0 1 10.396 1.4465 14.464 14.464 0 0 0-5.8851 6.5231 11.246 11.246 0 0 0 0.5121 9.8925c1.4915 2.6146 5.1124 4.3667 9.0209 4.3667 8.1673 0 11.07-5.3191 11.07-9.8745 0-2.7943-1.77-7.188-6.3524-10.656a48.416 48.416 0 0 1 10.504-1.6981 1.7978 1.7978 0 0 0-0.1078-3.594zm-36.982 12.956a7.6329 7.6329 0 0 1-0.3235 6.7208c-0.7278 1.2669-2.983 2.5517-5.8941 2.5517-6.7478 0-7.4755-4.3937-7.4755-6.2805 0-1.5364 1.4915-5.966 6.9184-9.0838 3.0459 1.4108 5.6336 3.3875 6.7747 6.0918zm29.345 2.992c0 1.8868-0.7277 6.2805-7.4755 6.2805-2.92 0-5.1753-1.2848-5.9031-2.5517a7.6626 7.6626 0 0 1-0.3235-6.7208c1.1771-2.7763 3.7558-4.744 6.73-6.1188 5.4716 3.1181 6.9721 7.5746 6.9721 9.111z"/></g></svg>