<svg xmlns="http://www.w3.org/2000/svg" id="a" viewBox="0 0 72 72"><g id="b"><path fill="#3F3F3F" stroke-linecap="round" stroke-linejoin="round" stroke-miterlimit="10" stroke-width="2" d="m40.184 12-14.055 14.859 3.7285 3.413 7.5107-7.9438v16.492c0 10.523-5.7598 15.639-17.609 15.639h-1v5.5411h1c14.99 0 23.246-7.522 23.246-21.18v-16.487l7.5078 7.9386 3.7275-3.413-14.056-14.859z"/></g><g id="c"><path fill="none" stroke="#000" stroke-linecap="round" stroke-linejoin="round" stroke-miterlimit="10" stroke-width="2" d="m40.184 12-14.055 14.859 3.7285 3.413 7.5107-7.9438v16.492c0 10.523-5.7598 15.639-17.609 15.639h-1v5.5411h1c14.99 0 23.246-7.522 23.246-21.18v-16.487l7.5078 7.9386 3.7275-3.413-14.056-14.859z"/></g></svg>