<svg xmlns="http://www.w3.org/2000/svg" id="a" viewBox="0 0 72 72"><g id="b"><path d="m34.824 8.4511c0.701-0.509 1.651-0.509 2.352 0l25.229 18.33c0.701 0.51 0.994 1.412 0.727 2.236l-9.637 29.659c-0.268 0.824-1.036 1.382-1.902 1.382h-31.186c-0.866 0-1.634-0.558-1.902-1.382l-9.637-29.659c-0.267-0.824 0.026-1.726 0.727-2.236l25.229-18.33z"/></g><g id="c"><path fill="#3F3F3F" d="m34.824 8.4511c0.701-0.509 1.651-0.509 2.352 0l25.229 18.33c0.701 0.51 0.994 1.412 0.727 2.236l-9.637 29.659c-0.268 0.824-1.036 1.382-1.902 1.382h-31.186c-0.866 0-1.634-0.558-1.902-1.382l-9.637-29.659c-0.267-0.824 0.026-1.726 0.727-2.236l25.229-18.33z"/></g><g id="d"><path fill="none" stroke="#000" stroke-width="2" d="m35.054 8.3818c0.701-0.509 1.651-0.509 2.352 0l25.229 18.33c0.701 0.51 0.994 1.412 0.727 2.236l-9.637 29.659c-0.268 0.824-1.036 1.382-1.902 1.382h-31.186c-0.866 0-1.634-0.558-1.902-1.382l-9.637-29.659c-0.267-0.824 0.026-1.726 0.727-2.236l25.229-18.33z"/></g></svg>