<?xml version="1.0" encoding="UTF-8"?>
<svg id="a" viewBox="0 0 72 72" xmlns="http://www.w3.org/2000/svg"><g id="b" clip-rule="evenodd" fill-rule="evenodd"><path d="m33.745 63-15.93-9.1978h36.371l-15.93 9.1978h-4.5106z" fill="#B399C8"/><path d="m17.814 53.802-5.3487-3.0882c-0.604-0.3484-0.9759-0.9925-0.9759-1.6903v-4.1226h49.021v4.1226c0 0.6978-0.3718 1.3419-0.9759 1.6903l-5.3487 3.0882h-36.372z" fill="#92D3F5"/><path d="m11.49 44.901v-8.9011h49.021v8.9011h-49.021z" fill="#B1CC33"/><path d="M11.4896 36V27.0989H60.5103V36H11.4896Z" fill="#FCEA2B"/><path d="m11.49 27.099v-4.1226c0-0.6978 0.3719-1.3419 0.9759-1.6903l5.3487-3.0882h36.372l5.3487 3.0882c0.6041 0.3484 0.9759 0.9925 0.9759 1.6903v4.1226h-49.021z" fill="#F4AA41"/><path d="m17.814 18.198 15.93-9.1978h4.5107l15.93 9.1978h-36.372z" fill="#EA5A47"/></g><g id="c"><path d="m35.024 8.2613c0.6041-0.3484 1.3478-0.3484 1.9519 0l22.558 13.025c0.6041 0.3484 0.9759 0.9925 0.9759 1.6903v26.047c0 0.6978-0.3718 1.3419-0.9759 1.6903l-22.558 13.025c-0.6041 0.3484-1.3478 0.3484-1.9519 0l-22.558-13.025c-0.604-0.3484-0.9759-0.9925-0.9759-1.6903v-26.047c0-0.6978 0.3719-1.3419 0.9759-1.6903l22.558-13.025z" fill="none" stroke="#000" stroke-width="2"/></g></svg>
