<svg xmlns="http://www.w3.org/2000/svg" id="a" viewBox="0 0 72 72"><g id="b"><path fill="#B399C8" d="m35.024 8.2613c0.6041-0.3484 1.3478-0.3484 1.9519 0l22.558 13.025c0.6041 0.3484 0.9759 0.9925 0.9759 1.6903v26.047c0 0.6978-0.3718 1.3419-0.9759 1.6903l-22.558 13.025c-0.6041 0.3484-1.3478 0.3484-1.9519 0l-22.558-13.025c-0.604-0.3484-0.9759-0.9925-0.9759-1.6903v-26.047c0-0.6978 0.3719-1.3419 0.9759-1.6903l22.558-13.025z"/></g><g id="c"><path fill="none" stroke="#000" stroke-width="2" d="m35.024 8.2613c0.6041-0.3484 1.3478-0.3484 1.9519 0l22.558 13.025c0.6041 0.3484 0.9759 0.9925 0.9759 1.6903v26.047c0 0.6978-0.3718 1.3419-0.9759 1.6903l-22.558 13.025c-0.6041 0.3484-1.3478 0.3484-1.9519 0l-22.558-13.025c-0.604-0.3484-0.9759-0.9925-0.9759-1.6903v-26.047c0-0.6978 0.3719-1.3419 0.9759-1.6903l22.558-13.025z"/></g></svg>