<svg xmlns="http://www.w3.org/2000/svg" id="a" viewBox="0 0 72 72"><g id="b"><path d="m8.2613 36.976c-0.3484-0.6041-0.3484-1.3477 0-1.9518l13.025-22.558c0.3484-0.6041 0.9925-0.976 1.6903-0.976h26.047c0.6978 0 1.3419 0.3719 1.6903 0.976l13.025 22.558c0.3484 0.6041 0.3484 1.3477 0 1.9518l-13.025 22.558c-0.3484 0.6041-0.9925 0.9759-1.6903 0.9759h-26.047c-0.6978 0-1.3419-0.3718-1.6903-0.9759l-13.025-22.558z"/></g><g id="c"><path fill="#3F3F3F" d="m8.2613 36.976c-0.3484-0.6041-0.3484-1.3477 0-1.9518l13.025-22.558c0.3484-0.6041 0.9925-0.976 1.6903-0.976h26.047c0.6978 0 1.3419 0.3719 1.6903 0.976l13.025 22.558c0.3484 0.6041 0.3484 1.3477 0 1.9518l-13.025 22.558c-0.3484 0.6041-0.9925 0.9759-1.6903 0.9759h-26.047c-0.6978 0-1.3419-0.3718-1.6903-0.9759l-13.025-22.558z"/></g><g id="d"><path fill="none" stroke="#000" stroke-width="2" d="m8.2613 36.976c-0.3484-0.6041-0.3484-1.3477 0-1.9518l13.025-22.558c0.3484-0.6041 0.9925-0.976 1.6903-0.976h26.047c0.6978 0 1.3419 0.3719 1.6903 0.976l13.025 22.558c0.3484 0.6041 0.3484 1.3477 0 1.9518l-13.025 22.558c-0.3484 0.6041-0.9925 0.9759-1.6903 0.9759h-26.047c-0.6978 0-1.3419-0.3718-1.6903-0.9759l-13.025-22.558z"/></g></svg>