<svg xmlns="http://www.w3.org/2000/svg" id="a" viewBox="0 0 72 72"><g id="b"><path d="m24.662 10.568c0.364-0.364 0.8576-0.5685 1.3723-0.5685h19.931c0.5147 0 1.0084 0.2045 1.3724 0.5685l14.094 14.094c0.364 0.364 0.5685 0.8576 0.5685 1.3723v19.931c0 0.5147-0.2045 1.0084-0.5685 1.3724l-14.094 14.094c-0.364 0.364-0.8577 0.5685-1.3724 0.5685h-19.931c-0.5147 0-1.0083-0.2045-1.3723-0.5685l-14.094-14.094c-0.364-0.364-0.5685-0.8577-0.5685-1.3724v-19.931c0-0.5147 0.2045-1.0083 0.5685-1.3723l14.094-14.094z"/></g><g id="c"><path fill="#3F3F3F" d="m24.662 10.568c0.364-0.364 0.8576-0.5685 1.3723-0.5685h19.931c0.5147 0 1.0084 0.2045 1.3724 0.5685l14.094 14.094c0.364 0.364 0.5685 0.8576 0.5685 1.3723v19.931c0 0.5147-0.2045 1.0084-0.5685 1.3724l-14.094 14.094c-0.364 0.364-0.8577 0.5685-1.3724 0.5685h-19.931c-0.5147 0-1.0083-0.2045-1.3723-0.5685l-14.094-14.094c-0.364-0.364-0.5685-0.8577-0.5685-1.3724v-19.931c0-0.5147 0.2045-1.0083 0.5685-1.3723l14.094-14.094z"/></g><g id="d"><path fill="none" stroke="#000" stroke-width="2" d="m24.662 10.568c0.364-0.364 0.8576-0.5685 1.3723-0.5685h19.931c0.5147 0 1.0084 0.2045 1.3724 0.5685l14.094 14.094c0.364 0.364 0.5685 0.8576 0.5685 1.3723v19.931c0 0.5147-0.2045 1.0084-0.5685 1.3724l-14.094 14.094c-0.364 0.364-0.8577 0.5685-1.3724 0.5685h-19.931c-0.5147 0-1.0083-0.2045-1.3723-0.5685l-14.094-14.094c-0.364-0.364-0.5685-0.8577-0.5685-1.3724v-19.931c0-0.5147 0.2045-1.0083 0.5685-1.3723l14.094-14.094z"/></g></svg>