<?xml version="1.0" encoding="UTF-8"?>
<svg id="a" viewBox="0 0 72 72" xmlns="http://www.w3.org/2000/svg"><g id="b"><path d="m37.061 11-9.2087 15.87-18.352 2.6737 13.285 12.94-3.1283 18.28 17.404-8.2637v-41.5z"/></g><g id="c"><path d="m35 11.5 9.6481 15.87 18.352 2.6737-13.285 12.94 3.1283 18.28-17.843-8.7637v-41z" fill="#FCEA2B"/><path d="m37.061 11-9.2087 15.87-18.352 2.6737 13.285 12.94-3.1283 18.28 17.404-8.2637v-41.5z" fill="#3F3F3F"/></g><g id="d" stroke="#000" stroke-linecap="round" stroke-width="2"><path d="m35.993 10.736-8.2015 16.634-18.352 2.6737 13.285 12.94-3.1283 18.28 16.412-8.6361 16.419 8.6239-3.1419-18.278 13.276-12.95-18.354-2.6601-8.2139-16.628z" fill="none" stroke-linejoin="round" stroke-miterlimit="10"/><line x1="36" x2="36" y1="12" y2="49"/></g></svg>
