<?xml version="1.0" encoding="UTF-8"?>
<svg id="a" viewBox="0 0 72 72" xmlns="http://www.w3.org/2000/svg"><g id="b"><path d="m16 37.166c1 3 2.2386 5 5 5 2.7495 0 3.9892-1.9827 4.987-4.9611 0.0043-0.013 0.0087-0.0259 0.013-0.0389l0.0172-0.0514c1.797-5.3715 4.0281-8.9486 8.9828-8.9486 4.9706 0 7.2 3.6 9 9l0.0382 0.1138c1.1198 2.906 2.2354 4.8862 4.9618 4.8862 2.7614 0 4-2 5-5l0.0209-0.0625 0.023-0.0684c1.7925-5.3272 4.0259-8.8691 8.9562-8.8691v5c-2.6345 0.3308-4.2753 1.8259-5 4l-0.0814 0.242c-1.7862 5.2653-4.0227 8.758-8.9186 8.758-4.9463 0-7.1782-3.5649-8.9736-8.921l-0.1149-0.34c-0.9456-2.8536-2.2311-4.739-4.9116-4.739-2.7614 0-4 2-5 5l-0.06 0.1788c-1.7897 5.3005-4.0245 8.8212-8.94 8.8212-4.9706 0-7.2-3.6-9-9l-0.0302-0.0888c-0.7395-2.1259-2.3713-3.5848-4.9698-3.9112v-5c4.9706 0 7.2 3.6 9 9" fill="#3F3F3F"/></g><g id="c"><path d="m16 37.166c1 3 2.2386 5 5 5 2.7495 0 3.9892-1.9827 4.987-4.9611 0.0043-0.013 0.0087-0.0259 0.013-0.0389l0.0172-0.0514c1.797-5.3715 4.0281-8.9486 8.9828-8.9486 4.9706 0 7.2 3.6 9 9l0.0382 0.1138c1.1198 2.906 2.2354 4.8862 4.9618 4.8862 2.7614 0 4-2 5-5v0l0.0209-0.0625 0.023-0.0684c1.7925-5.3272 4.0259-8.8691 8.9562-8.8691v5c-2.6345 0.3308-4.2753 1.8259-5 4l-0.0814 0.242c-1.7862 5.2653-4.0227 8.758-8.9186 8.758-4.9463 0-7.1782-3.5649-8.9736-8.921l-0.1149-0.34c-0.9456-2.8536-2.2311-4.739-4.9116-4.739-2.7614 0-4 2-5 5l-0.06 0.1788c-1.7897 5.3005-4.0245 8.8212-8.94 8.8212-4.9706 0-7.2-3.6-9-9l-0.0302-0.0888c-0.7395-2.1259-2.3713-3.5848-4.9698-3.9112v-5c4.9706 0 7.2 3.6 9 9" fill="none" stroke="#000" stroke-linecap="round" stroke-linejoin="round" stroke-width="2"/></g></svg>
