<svg xmlns="http://www.w3.org/2000/svg" id="a" viewBox="0 0 72 72"><g id="b"><path fill="#fcea2b" d="M57.3105,54.81,46.9273,19.1985c-2.33-4.3386-6.2667-1.5266-6.2667-1.5266l-6.91,5.7044-3.1334-5.8979c-3.9368-5.5765-7.63,0-7.63,0l-7.5987,8.7283s-2.3361,2.3874.6161,5.34,6.6232-1.54,6.6232-1.54l3.286-3.748,3.9534,6.5205s2.3617,3.3373,6.1611-.77L40.0551,28.39l9.0614,28.34a4.2288,4.2288,0,0,0,2.1411,2.5146c1.4508.7157,3.5588,1.2629,5.1377-.3873A4.167,4.167,0,0,0,57.3105,54.81Z"/></g><g id="c"><path fill="none" stroke="#000" stroke-miterlimit="10" stroke-width="2" d="m57.31 54.34-10.383-35.612c-2.33-4.3386-6.2667-1.5266-6.2667-1.5266l-6.91 5.7044-3.1329-5.8978c-3.9368-5.5765-7.63 0-7.63 0l-7.5987 8.7282s-2.3361 2.3875 0.6161 5.34 6.6232-1.54 6.6232-1.54l3.286-3.748 3.9534 6.5206s2.3617 3.3372 6.1611-0.77l4.0262-3.6184 9.0614 28.34a4.2285 4.2285 0 0 0 2.1411 2.5146c1.4508 0.7158 3.5588 1.2629 5.1377-0.3873a4.167 4.167 0 0 0 0.9153-4.0482z"/></g></svg>