<?xml version="1.0" encoding="UTF-8"?>
<svg id="a" viewBox="0 0 72 72" xmlns="http://www.w3.org/2000/svg"><g id="b"><path d="m45.498 25.016a33.636 33.636 0 0 0-3.6522 0.1018 11.713 11.713 0 0 0-6.1521 1.7939 1.2523 1.2523 0 0 1-0.5877 0.3008 1.2216 1.2216 0 0 1-0.639-0.1909 14.775 14.775 0 0 0-6.2841-1.255c-3.3125-0.08-6.7515 0.2835-9.6195 1.9429-3.8016 2.2-6.0438 6.8879-3.6121 10.892a11.105 11.105 0 0 0 6.2783 4.6054 21.605 21.605 0 0 0 6.5791 0.8253 15.456 15.456 0 0 0 8.1509-1.8771 1.5292 1.5292 0 0 1 0.8584-0.3322 1.564 1.564 0 0 1 0.6015 0.2222 12.222 12.222 0 0 0 4.74 1.0915 21.218 21.218 0 0 0 9.0651-0.95c3.3556-1.2655 6.6136-4.2408 6.6136-8.0656 0-4.1762-3.7449-7.2023-7.4315-8.3417a18.61 18.61 0 0 0-4.9087-0.7631z" fill="#92d3f5"/><path d="m51.226 38.396a21.218 21.218 0 0 1-9.0651 0.95 12.219 12.219 0 0 1-4.74-1.0915 1.5644 1.5644 0 0 0-0.6016-0.2222 1.5292 1.5292 0 0 0-0.8584 0.3322 15.455 15.455 0 0 1-8.1514 1.8771 21.602 21.602 0 0 1-6.5791-0.8253 11.105 11.105 0 0 1-6.2781-4.6054 6.99 6.99 0 0 1-0.7388-1.6851 6.7956 6.7956 0 0 0 0.7388 5.4752 11.106 11.106 0 0 0 6.2782 4.6055 21.605 21.605 0 0 0 6.5791 0.8253 15.455 15.455 0 0 0 8.1509-1.8772 1.5291 1.5291 0 0 1 0.8584-0.3321 1.5644 1.5644 0 0 1 0.6016 0.2222 12.221 12.221 0 0 0 4.74 1.0915 21.218 21.218 0 0 0 9.0651-0.95c3.3556-1.2656 6.6136-4.2408 6.6136-8.0656a6.8075 6.8075 0 0 0-0.2785-1.9005c-0.8495 2.9049-3.5556 5.1278-6.3347 6.1759z" fill="#61b2e4"/></g><g id="c"><path d="m45.498 25.016a33.636 33.636 0 0 0-3.6522 0.1018 11.713 11.713 0 0 0-6.1521 1.7939 1.2523 1.2523 0 0 1-0.5877 0.3008 1.2216 1.2216 0 0 1-0.639-0.1909 14.775 14.775 0 0 0-6.2841-1.255c-3.3125-0.08-6.7515 0.2835-9.6195 1.9429-3.8016 2.2-6.0438 6.8879-3.6121 10.892a11.105 11.105 0 0 0 6.2783 4.6054 21.605 21.605 0 0 0 6.5791 0.8253 15.456 15.456 0 0 0 8.1509-1.8771 1.5292 1.5292 0 0 1 0.8584-0.3322 1.564 1.564 0 0 1 0.6015 0.2222 12.222 12.222 0 0 0 4.74 1.0915 21.218 21.218 0 0 0 9.0651-0.95c3.3556-1.2655 6.6136-4.2408 6.6136-8.0656 0-4.1762-3.7449-7.2023-7.4315-8.3417a18.61 18.61 0 0 0-4.9087-0.7631z" fill="none" stroke="#000" stroke-miterlimit="10" stroke-width="2"/><line x1="35.099" x2="35.099" y1="21.477" y2="25.267" fill="none" stroke="#000" stroke-linecap="round" stroke-linejoin="round" stroke-width="2"/><line x1="36.615" x2="36.615" y1="42.733" y2="46.523" fill="none" stroke="#000" stroke-linecap="round" stroke-linejoin="round" stroke-width="2"/><line x1="28.651" x2="29.418" y1="21.758" y2="25.47" fill="none" stroke="#000" stroke-linecap="round" stroke-linejoin="round" stroke-width="2"/><line x1="42.053" x2="42.821" y1="43.53" y2="47.242" fill="none" stroke="#000" stroke-linecap="round" stroke-linejoin="round" stroke-width="2"/><line x1="41.547" x2="40.779" y1="21" y2="24.712" fill="none" stroke="#000" stroke-linecap="round" stroke-linejoin="round" stroke-width="2"/><line x1="30.934" x2="30.167" y1="44.288" y2="48" fill="none" stroke="#000" stroke-linecap="round" stroke-linejoin="round" stroke-width="2"/><line x1="48.185" x2="46.774" y1="21.201" y2="24.719" fill="none" stroke="#000" stroke-linecap="round" stroke-linejoin="round" stroke-width="2"/><line x1="25.434" x2="24.023" y1="44.386" y2="47.903" fill="none" stroke="#000" stroke-linecap="round" stroke-linejoin="round" stroke-width="2"/><line x1="24.023" x2="25.434" y1="21.855" y2="25.372" fill="none" stroke="#000" stroke-linecap="round" stroke-linejoin="round" stroke-width="2"/><line x1="47.553" x2="48.965" y1="43.628" y2="47.145" fill="none" stroke="#000" stroke-linecap="round" stroke-linejoin="round" stroke-width="2"/><line x1="53.65" x2="51.921" y1="22.032" y2="25.404" fill="none" stroke="#000" stroke-linecap="round" stroke-linejoin="round" stroke-width="2"/><line x1="20.54" x2="18.811" y1="43.046" y2="46.419" fill="none" stroke="#000" stroke-linecap="round" stroke-linejoin="round" stroke-width="2"/><line x1="51.792" x2="53.521" y1="42.554" y2="45.926" fill="none" stroke="#000" stroke-linecap="round" stroke-linejoin="round" stroke-width="2"/><line x1="19.569" x2="21.298" y1="22.79" y2="26.162" fill="none" stroke="#000" stroke-linecap="round" stroke-linejoin="round" stroke-width="2"/><line x1="58.113" x2="61.903" y1="34.121" y2="34.121" fill="none" stroke="#000" stroke-linecap="round" stroke-linejoin="round" stroke-width="2"/><line x1="9.8102" x2="13.6" y1="34.879" y2="34.879" fill="none" stroke="#000" stroke-linecap="round" stroke-linejoin="round" stroke-width="2"/><line x1="10.792" x2="14.163" y1="40.165" y2="38.433" fill="none" stroke="#000" stroke-linecap="round" stroke-linejoin="round" stroke-width="2"/><line x1="11.023" x2="14.416" y1="29.326" y2="31.015" fill="none" stroke="#000" stroke-linecap="round" stroke-linejoin="round" stroke-width="2"/><line x1="60.416" x2="57.045" y1="39.165" y2="37.433" fill="none" stroke="#000" stroke-linecap="round" stroke-linejoin="round" stroke-width="2"/><line x1="61.185" x2="57.792" y1="29.326" y2="31.015" fill="none" stroke="#000" stroke-linecap="round" stroke-linejoin="round" stroke-width="2"/><line x1="14.38" x2="17.06" y1="24.831" y2="27.511" fill="none" stroke="#000" stroke-linecap="round" stroke-linejoin="round" stroke-width="2"/><line x1="55.38" x2="58.06" y1="40.831" y2="43.511" fill="none" stroke="#000" stroke-linecap="round" stroke-linejoin="round" stroke-width="2"/><line x1="58.06" x2="55.38" y1="24.831" y2="27.511" fill="none" stroke="#000" stroke-linecap="round" stroke-linejoin="round" stroke-width="2"/><line x1="16.06" x2="13.38" y1="41.831" y2="44.511" fill="none" stroke="#000" stroke-linecap="round" stroke-linejoin="round" stroke-width="2"/><circle cx="25" cy="37" r="1.25"/><circle cx="32" cy="33" r="1.25"/><circle cx="21" cy="32" r="1.25"/><circle cx="45" cy="37" r="1.25"/><circle cx="52" cy="33" r="1.25"/><circle cx="40" cy="33" r="1.25"/></g></svg>
