<svg xmlns="http://www.w3.org/2000/svg" id="a" viewBox="0 0 72 72"><g id="b"><path fill="#61b2e4" stroke-linecap="round" stroke-linejoin="round" stroke-miterlimit="10" stroke-width="2" d="m58.042 16.667s-2.5833 2.0833-6.2083 2.4583c0 0-5.7083-6.375-13.875-0.8333-3.6667 2.5833-4 8.0417-3.375 10 0 0-11.083 0.875-20.75-10.458 0 0-4.3333 7.5 2.8333 13.5 0 0-2.1182 0.3333-4.1317-1.3333 0 0-0.9517 7.75 7.715 9.9167 0 0-0.5833 1-4.0833 0 0 0 0.5833 6.3333 8.8333 7.25 0 0-4.4569 4.5833-14.478 4 0 0 16.562 12.417 34.478-2.5833 10-8.5 9.6667-20.75 9.5-22.583 0 0 3.9491-3 4.9746-4.9167 0 0-3.0579 1-5.5579 1 0-2e-4 3.3333-1.7502 4.125-5.4168z"/></g><g id="c"><path fill="none" stroke="#000" stroke-linecap="round" stroke-linejoin="round" stroke-miterlimit="10" stroke-width="2" d="m58.042 16.667s-2.5833 2.0833-6.2083 2.4583c0 0-5.7083-6.375-13.875-0.8333-3.6667 2.5833-4 8.0417-3.375 10 0 0-11.083 0.875-20.75-10.458 0 0-4.3333 7.5 2.8333 13.5 0 0-2.1182 0.3333-4.1317-1.3333 0 0-0.9517 7.75 7.715 9.9167 0 0-0.5833 1-4.0833 0 0 0 0.5833 6.3333 8.8333 7.25 0 0-4.4569 4.5833-14.478 4 0 0 16.562 12.417 34.478-2.5833 10-8.5 9.6667-20.75 9.5-22.583 0 0 3.9491-3 4.9746-4.9167 0 0-3.0579 1-5.5579 1 0-2e-4 3.3333-1.7502 4.125-5.4168z"/></g></svg>