<?xml version="1.0" encoding="UTF-8"?>
<svg id="a" viewBox="0 0 72 72" xmlns="http://www.w3.org/2000/svg"><g id="b"><path d="m57 12h-42c-2.2091 0-4 1.7909-4 4v42c0 2.2091 1.7909 4 4 4h42c2.2091 0 4-1.7909 4-4v-42c0-2.2091-1.7909-4-4-4z" fill="#61B2E4"/><path d="m48.5 26.844h4.6875v-7.0312c-3.125 0-15.625-3.125-15.625 10.156v4.6875h-6.25v7.8125h6.25v20.531h7.8125v-20.531h7.0312l0.7812-7.8125h-7.8124v-4.6875c0-3.125 2.3438-3.125 3.125-3.125z" fill="#fff"/></g><g id="c" fill="none" stroke="#000" stroke-miterlimit="10" stroke-width="2"><path d="M45.6188,62h12.1554 C59.5558,62,61,60.5558,61,58.7742V15.2258C61,13.4442,59.5558,12,57.7742,12H14.2258C12.4442,12,11,13.4442,11,15.2258v43.5484 C11,60.5558,12.4442,62,14.2258,62h23.4761"/><path d="m45.618 62v-19.792h7.1251l0.7917-7.9168h-7.9168v-4.7501c0-3.1667 2.375-3.1667 3.1667-3.1667s4.7501 0 4.7501 0v-7.1251c-3.1997-0.3243-15.834-3.1667-15.834 10.292v4.7501h-6.3334v7.9168h6.3334v19.792" stroke-linecap="round" stroke-linejoin="round"/></g></svg>
