<svg xmlns="http://www.w3.org/2000/svg" id="a" version="1.1" viewBox="0 0 72 72"><g id="b"><path fill="#fff" d="m46.784 12.614h-21.569c-6.9598 0-12.602 5.6421-12.602 12.602v21.569c0 6.9598 5.6421 12.602 12.602 12.602h21.569c6.9598 0 12.602-5.6421 12.602-12.602v-21.569c1e-4 -6.9598-5.642-12.602-12.602-12.602z"/></g><g id="c"><path fill="none" stroke="#000" stroke-miterlimit="10" stroke-width="2" d="m46.784 12.614h-21.569c-6.9598 0-12.602 5.6421-12.602 12.602v21.569c0 6.9598 5.6421 12.602 12.602 12.602h21.569c6.9598 0 12.602-5.6421 12.602-12.602v-21.569c1e-4 -6.9598-5.642-12.602-12.602-12.602z"/><circle cx="36" cy="36" r="11.29" fill="none" stroke="#000" stroke-miterlimit="10" stroke-width="2"/><circle cx="49.709" cy="22.291" r="2.419"/></g></svg>