<svg xmlns="http://www.w3.org/2000/svg" id="a" viewBox="0 0 72 72"><g id="b"><path fill="#d0cfce" d="m29.044 61.611c0-0.92747-0.03474-3.9798-0.03474-7.7645 0-2.6461 0.87401-4.3727 1.863-5.2521-6.2277-0.72166-12.779-3.1539-12.779-14.035 0-3.0978 1.0959-5.6316 2.8866-7.6149-0.28599-0.71899-1.2536-3.6056 0.27797-7.5133 0 0 2.3548-0.76443 7.7164 2.908 2.2372-0.62811 4.6373-0.94618 7.0268-0.95153 2.3842 0.0054 4.7843 0.32341 7.0268 0.95153 5.3563-3.6725 7.7111-2.908 7.7111-2.908 1.5315 3.9077 0.56931 6.7943 0.27797 7.5133 1.7961 1.9832 2.8813 4.5144 2.8813 7.6149 0 10.905-6.5591 13.308-12.816 14.008 1.013 0.88203 1.9084 2.6113 1.9084 5.2628 0 3.7927-0.03474 6.8504-0.03474 7.7806 0 0.76176 0.50516 1.6411 1.9298 1.3685 11.146-3.758 19.177-14.396 19.177-26.931 0-15.679-12.568-28.388-28.067-28.388-15.494 0-28.059 12.707-28.059 28.388 0 12.541 8.0398 23.181 19.202 26.934 1.3952 0.26194 1.9057-0.61475 1.9057-1.3712z"/></g><g id="c" fill="none" stroke="#000" stroke-linecap="round" stroke-linejoin="round" stroke-miterlimit="10" stroke-width="2"><path d="m29.044 61.611c0-0.92747-0.03474-3.9798-0.03474-7.7645 0-2.6461 0.87401-4.3727 1.863-5.2521-6.2277-0.72166-12.779-3.1539-12.779-14.035 0-3.0978 1.0959-5.6316 2.8866-7.6149-0.28599-0.71899-1.2536-3.6056 0.27797-7.5133 0 0 2.3548-0.76443 7.7164 2.908 2.2372-0.62811 4.6373-0.94618 7.0268-0.95153 2.3842 0.0054 4.7843 0.32341 7.0268 0.95153 5.3563-3.6725 7.7111-2.908 7.7111-2.908 1.5315 3.9077 0.56931 6.7943 0.27797 7.5133 1.7961 1.9832 2.8813 4.5144 2.8813 7.6149 0 10.905-6.5591 13.308-12.816 14.008 1.013 0.88203 1.9084 2.6113 1.9084 5.2628 0 3.7927-0.03474 6.8504-0.03474 7.7806 0 0.76176 0.50516 1.6411 1.9298 1.3685 11.146-3.758 19.177-14.396 19.177-26.931 0-15.679-12.568-28.388-28.067-28.388-15.494 0-28.059 12.707-28.059 28.388 0 12.541 8.0398 23.181 19.202 26.934 1.3952 0.26194 1.9057-0.61475 1.9057-1.3712z"/><path d="m16.289 48.089c2.5686 0.78046 3.5816 1.6358 4.7897 3.6618 1.2054 2.026 2.6194 4.2872 7.9329 2.9989"/></g></svg>