<svg xmlns="http://www.w3.org/2000/svg" id="a" viewBox="0 0 72 72"><g id="b"><path fill="#B1CC33" fill-rule="evenodd" d="m20.653 28.059c-9.3502 5.3379-15.653 15.403-15.653 26.941 0 0.3346 0.0053 0.668 0.01582 1h61.968c0.0105-0.332 0.0158-0.6654 0.0158-1 0-11.537-6.3028-21.603-15.653-26.941l4.853-8.4057c0.5523-0.9566 0.2245-2.1798-0.7321-2.7321-0.9565-0.5522-2.1797-0.2245-2.732 0.7321l-4.9928 8.6478c-3.6219-1.4835-7.587-2.3014-11.743-2.3014s-8.1212 0.8179-11.743 2.3014l-4.9929-8.6478c-0.5523-0.9566-1.7755-1.2844-2.732-0.7321-0.9566 0.5523-1.2844 1.7755-0.7321 2.7321l4.853 8.4057z" clip-rule="evenodd"/></g><g id="c"><path d="m20.653 27.059 0.4958 0.8684c0.2311-0.1319 0.4001-0.3504 0.4695-0.6072 0.0695-0.2569 0.0338-0.5308-0.0992-0.7612l-0.8661 0.5zm-15.637 27.941-0.99949 0.0317c0.0171 0.5397 0.45954 0.9683 0.99949 0.9683v-1zm61.968 0v1c0.5399 0 0.9824-0.4286 0.9995-0.9683l-0.9995-0.0317zm-15.637-27.941-0.8661-0.5c-0.133 0.2304-0.1687 0.5043-0.0992 0.7612 0.0695 0.2568 0.2384 0.4753 0.4695 0.6072l0.4958-0.8684zm4.853-8.4057 0.866 0.5-0.866-0.5zm-0.7321-2.7321 0.5-0.866-0.5 0.866zm-2.732 0.7321-0.866-0.5 0.866 0.5zm-4.9928 8.6478-0.3791 0.9254c0.463 0.1897 0.9949 8e-3 1.2451-0.4254l-0.866-0.5zm-23.486 0-0.8661 0.5c0.2502 0.4333 0.7821 0.6151 1.2451 0.4254l-0.379-0.9254zm-4.9929-8.6478-0.866 0.5 0.866-0.5zm-2.732-0.7321-0.5-0.866 0.5 0.866zm-0.7321 2.7321-0.866 0.5 0.866-0.5zm-9.8 35.346c0-11.164 6.0976-20.905 15.149-26.072l-0.9915-1.7369c-9.6493 5.5087-16.157 15.898-16.157 27.809h2zm0.01532 0.9683c-0.01019-0.3215-0.01532-0.6443-0.01532-0.9683h-2c0 0.3452 0.00547 0.6891 0.01633 1.0317l1.999-0.0634zm60.969-0.9683h-61.968v2h61.968v-2zm-0.9842 0c0 0.324-0.0051 0.6468-0.0153 0.9683l1.999 0.0634c0.0108-0.3426 0.0163-0.6865 0.0163-1.0317h-2zm-15.149-26.072c9.0512 5.1673 15.149 14.908 15.149 26.072h2c0-11.911-6.508-22.3-16.157-27.809l-0.9915 1.7368zm4.4828-9.7741-4.8531 8.4057 1.7321 1 4.853-8.4057-1.732-1zm-0.3661-1.366c0.4783 0.2761 0.6422 0.8877 0.3661 1.366l1.732 1c0.8285-1.4349 0.3368-3.2697-1.0981-4.0981l-1 1.7321zm-1.366 0.366c0.2762-0.4783 0.8878-0.6422 1.366-0.366l1-1.7321c-1.4348-0.8284-3.2696-0.3368-4.098 1.0981l1.732 1zm-4.9928 8.6478 4.9928-8.6478-1.732-1-4.9929 8.6478 1.7321 1zm-12.609-1.8014c4.0239 0 7.8603 0.7917 11.364 2.2268l0.7581-1.8507c-3.7401-1.532-7.8338-2.3761-12.122-2.3761v2zm-11.364 2.2268c3.5037-1.4351 7.3401-2.2268 11.364-2.2268v-2c-4.2883 0-8.382 0.8441-12.122 2.3761l0.7581 1.8507zm0.487-1.4254-4.9929-8.6478-1.732 1 4.9928 8.6478 1.7321-1zm-4.9929-8.6478c-0.8284-1.4349-2.6632-1.9265-4.098-1.0981l0.9999 1.7321c0.4783-0.2762 1.0899-0.1123 1.3661 0.366l1.732-1zm-4.098-1.0981c-1.4349 0.8284-1.9266 2.6632-1.0981 4.0981l1.732-1c-0.2761-0.4783-0.1122-1.0899 0.3661-1.366l-1-1.7321zm-1.0981 4.0981 4.853 8.4057 1.7321-1-4.8531-8.4057-1.732 1z"/><circle cx="22.5" cy="42.5" r="2.5"/><circle cx="49.5" cy="42.5" r="2.5"/></g></svg>