<?xml version="1.0" encoding="UTF-8"?>
<svg id="a" viewBox="0 0 72 72" xmlns="http://www.w3.org/2000/svg"><g id="b"><path d="m34 9.1458-22 12.604v27.5l22 12.604v-52.708z" fill="#8967AA"/><path d="m38 9.1458 22 12.604v27.5l-22 12.604v-52.708z" fill="#F4AA41"/><path d="M18 26.76L23 24L28 26.76V47L23 44.24L18 47V26.76Z" fill="#B399C8"/></g><g id="c"><path d="m12 21.75-0.4971-0.8677c-0.311 0.1782-0.5029 0.5092-0.5029 0.8677h1zm22-12.604h1c0-0.35667-0.19-0.68634-0.4986-0.86519-0.3085-0.17885-0.689-0.1798-0.9985-0.00249l0.4971 0.86768zm-22 40.104h-1c0 0.3585 0.1919 0.6895 0.5029 0.8677l0.4971-0.8677zm22 12.604-0.4971 0.8677c0.3095 0.1773 0.69 0.1763 0.9985-0.0025 0.3086-0.1789 0.4986-0.5086 0.4986-0.8652h-1zm26-12.604 0.4971 0.8677c0.311-0.1782 0.5029-0.5092 0.5029-0.8677h-1zm-22 12.604h-1c0 0.3566 0.19 0.6863 0.4986 0.8652 0.3085 0.1788 0.689 0.1798 0.9985 0.0025l-0.4971-0.8677zm22-40.104h1c0-0.3585-0.1919-0.6895-0.5029-0.8677l-0.4971 0.8677zm-22-12.604 0.4971-0.86768c-0.3095-0.17731-0.69-0.17636-0.9985 0.00249-0.3086 0.17885-0.4986 0.50852-0.4986 0.86519h1zm-25.503 13.472 22-12.604-0.9942-1.7354-22 12.604 0.9942 1.7354zm0.5029 26.632v-27.5h-2v27.5h2zm21.497 11.736-22-12.604-0.9942 1.7354 22 12.604 0.9942-1.7354zm0.5029 0.8677v-52.708h-2v52.708h2zm24.503-13.472-22 12.604 0.9942 1.7354 22-12.604-0.9942-1.7354zm-0.5029-26.632v27.5h2v-27.5h-2zm-21.497-11.736 22 12.604 0.9942-1.7354-22-12.604-0.9942 1.7354zm-0.5029-0.86767v52.708h2v-52.708h-2z"/><path d="M18 26.76L23 24L28 26.76V47L23 44.24L18 47V26.76Z" fill="none" stroke="#000" stroke-linejoin="round" stroke-width="2"/><path d="m31 16.055c-4.1716 0.4612-7.4839 3.7735-7.9451 7.9451" fill="none" stroke="#000" stroke-linecap="round" stroke-width="2"/><circle cx="47" cy="28" r="2" fill="none" stroke="#000" stroke-width="2"/><circle cx="47" cy="42" r="2" fill="none" stroke="#000" stroke-width="2"/><circle cx="47" cy="20" r="2" fill="none" stroke="#000" stroke-width="2"/><circle cx="55" cy="41" r="2" fill="none" stroke="#000" stroke-width="2"/><circle cx="55" cy="33" r="2" fill="none" stroke="#000" stroke-width="2"/><circle cx="55" cy="25" r="2" fill="none" stroke="#000" stroke-width="2"/><path d="m38 30h2l4 4h4l5 5" fill="none" stroke="#000" stroke-linecap="round" stroke-linejoin="round" stroke-width="2"/><path d="M50.5 37.5L53 35" fill="none" stroke="#000" stroke-width="2"/><path d="m55 31v-4" fill="none" stroke="#000" stroke-width="2"/><path d="m38 16h4l3 3" fill="none" stroke="#000" stroke-linecap="round" stroke-linejoin="round" stroke-width="2"/><circle transform="matrix(1 0 0 -1 47 50)" r="2" fill="none" stroke="#000" stroke-width="2"/><path d="m38 54h4l3-3" fill="none" stroke="#000" stroke-linecap="round" stroke-linejoin="round" stroke-width="2"/><path d="m47 22v4" fill="none" stroke="#000" stroke-width="2"/><path d="m47 44v4" fill="none" stroke="#000" stroke-width="2"/></g></svg>
