<svg xmlns="http://www.w3.org/2000/svg" id="a" viewBox="0 0 72 72"><g id="b"><path fill="#B1CC33" stroke="#B1CC33" stroke-linejoin="round" stroke-width="2" d="m45 37 8-10v31h-8v-21z"/><path fill="#EA5A47" stroke="#EA5A47" stroke-linejoin="round" stroke-width="2" d="M34 34.5L27.95 27H12V58H34V34.5Z"/><rect width="5" height="21" x="37" y="37" fill="#FCEA2B" stroke="#FCEA2B" stroke-linejoin="round" stroke-width="2"/><rect width="8" height="14" x="36" y="23" fill="#FCEA2B" stroke="#FCEA2B" stroke-linejoin="round" stroke-width="2"/><rect width="4" height="15" x="47" y="18" fill="#B1CC33" stroke="#B1CC33" stroke-linejoin="round" stroke-width="2"/><rect width="4" height="12" fill="#EA5A47" stroke="#EA5A47" stroke-linejoin="round" stroke-width="2" transform="matrix(-1 0 0 1 33 21)"/><path fill="#D0CFCE" d="m48.101 12.283c-3.2684-2.0837-7.1512-2.7717-10.937-1.9372-3.785 0.8366-7.0182 3.097-9.1041 6.3645-4.3036 6.746-2.3176 15.737 4.4283 20.042 6.745 4.3047 15.735 2.3197 20.042-4.4273 2.0849-3.2675 2.7728-7.1524 1.9362-10.937-0.8366-3.7851-3.096-7.0182-6.3646-9.1041zm1.8363 18.388c-2.1788 3.4147-5.8819 5.2814-9.6611 5.2814-2.1045 9e-4 -4.2319-0.5785-6.1343-1.7924-5.3172-3.3926-6.8818-10.479-3.4892-15.795 1.6436-2.5754 4.1915-4.3576 7.1747-5.0159 2.9841-0.6584 6.0444-0.1176 8.6208 1.5269 2.5755 1.6426 4.3567 4.1905 5.016 7.1747 0.6593 2.9831 0.1166 6.0443-1.5269 8.6207z"/><path fill="#3F3F3F" d="m27.767 38.307-6.918 10.335-3.7106 5.8155c-0.4778 0.75 0.3797 3.2105 1.1294 3.6888 0.3613 0.2305 2.5325 0.011 2.5325 0.011l11.524-17.192-4.5571-2.658z"/><rect width="4" height="28" x="56" y="30" fill="#92D3F5" stroke="#92D3F5" stroke-linejoin="round" stroke-width="2"/></g><g id="c" fill="none" stroke="#000" stroke-linecap="round" stroke-width="2"><path stroke-linejoin="round" d="M34 44.5V58H25.0952M23 27H12V58H15.1429"/><path stroke-linejoin="round" d="m36 32v-9h8v9"/><path d="M47 19.5V30"/><path stroke-linejoin="round" d="m37 41v17h5v-17"/><path stroke-linejoin="round" d="M45 40.6531V58H53V36"/><path stroke-linejoin="round" d="m57 30h3v28h-4v-25"/><path stroke-linejoin="round" stroke-miterlimit="10" d="m52.537 32.067c4.3067-6.5674 2.3264-15.288-4.4231-19.479-6.7495-4.1905-15.712-2.2637-20.019 4.3038-4.3067 6.5674-2.3264 15.288 4.4231 19.479s15.712 2.2637 20.019-4.3037z"/><path stroke-linejoin="round" stroke-miterlimit="10" d="m49.638 30.267c3.2853-5.0098 1.7748-11.662-3.3739-14.859s-11.986-1.7267-15.271 3.2831-1.7747 11.662 3.374 14.859c5.1487 3.1966 11.986 1.7267 15.271-3.2831z"/><path stroke-linejoin="round" stroke-miterlimit="10" d="m27.777 38.444 4.3636 2.709-10.396 15.853c-0.7427 1.1326-2.3216 1.4442-3.5265 0.6962-1.205-0.7481-1.5798-2.2726-0.8371-3.4053l10.396-15.853z"/><path d="m33 21v8"/></g></svg>