<?xml version="1.0" encoding="UTF-8"?>
<svg id="a" viewBox="0 0 72 72" xmlns="http://www.w3.org/2000/svg"><g id="b"><path d="m21 13-2 5 5 2 2 9-5 5 2 3-3 2v1l5 7 4-2m5.5 11 1.5-3 3-2 7 4 5-1v-4l-2-2 1.5-3.5" fill="none" stroke="#000" stroke-linecap="round" stroke-linejoin="round" stroke-width="2"/></g><g id="c"><g fill="#B1CC33"><path d="M25 13L12 12V24L12.9967 35.04L12 47V59L25 60L36 59L48 60L60 59V47L59.0033 35.04L60 24V12L48 13L36 12L25 13Z" clip-rule="evenodd" fill-rule="evenodd"/><path d="m12 12 0.0767-0.9971c-0.2777-0.0213-0.5518 0.0741-0.7561 0.2634-0.2044 0.1892-0.3206 0.4552-0.3206 0.7337h1zm13 1-0.0767 0.9971c0.0557 0.0042 0.1116 0.0038 0.1672-0.0012l-0.0905-0.9959zm-13 11h-1c0 0.03 0.0014 0.06 0.0041 0.0899l0.9959-0.0899zm0.9967 11.04 0.9965 0.083c0.0048-0.0575 0.0046-0.1154-6e-4 -0.1729l-0.9959 0.0899zm-0.9967 11.96-0.9965-0.083c-0.0023 0.0276-0.0035 0.0553-0.0035 0.083h1zm0 12h-1c0 0.5225 0.4023 0.957 0.9233 0.9971l0.0767-0.9971zm13 1-0.0767 0.9971c0.0557 0.0042 0.1116 0.0038 0.1672-0.0012l-0.0905-0.9959zm11-1 0.083-0.9965c-0.0577-0.0049-0.1158-0.0046-0.1735 6e-4l0.0905 0.9959zm12 1-0.083 0.9965c0.0552 0.0047 0.1108 0.0047 0.166 0l-0.083-0.9965zm12-1 0.083 0.9965c0.5183-0.0431 0.917-0.4764 0.917-0.9965h-1zm0-12h1c0-0.0277-0.0012-0.0554-0.0035-0.083l-0.9965 0.083zm-0.9967-11.96-0.9959-0.0899c-0.0052 0.0575-0.0054 0.1154-6e-4 0.1729l0.9965-0.083zm0.9967-11.04 0.9959 0.0899c0.0027-0.0299 0.0041-0.0599 0.0041-0.0899h-1zm0-12h1c0-0.2797-0.1171-0.5465-0.3229-0.7359-0.2058-0.1893-0.4815-0.2839-0.7601-0.2606l0.083 0.9965zm-12 1-0.083 0.9965c0.0552 0.0047 0.1108 0.0047 0.166 0l-0.083-0.9965zm-12-1 0.083-0.9965c-0.0577-0.0049-0.1158-0.0046-0.1735 6e-4l0.0905 0.9959zm-24.077 0.9971 13 1 0.1534-1.9942-13-1-0.1534 1.9942zm1.0767 11.003v-12h-2v12h2zm0.9926 10.95-0.9967-11.04-1.9918 0.1798 0.9966 11.04 1.9919-0.1798zm-0.9961 12.133 0.9967-11.96-1.9931-0.166-0.9966 11.96 1.993 0.166zm0.0035 11.917v-12h-2v12h2zm12.077 0.0029-13-1-0.1534 1.9942 13 1 0.1534-1.9942zm10.833-0.9988-11 1 0.181 1.9918 11-1-0.181-1.9918zm12.174 0.9994-12-1-0.166 1.993 12 1 0.166-1.993zm11.834-1-12 1 0.166 1.993 12-1-0.166-1.993zm-0.917-11.004v12h2v-12h-2zm-0.9932-11.877 0.9967 11.96 1.993-0.166-0.9966-11.96-1.9931 0.166zm0.9973-11.213-0.9967 11.04 1.9919 0.1798 0.9966-11.04-1.9918-0.1798zm-0.0041-11.91v12h2v-12h-2zm-10.917 1.9965 12-1-0.166-1.993-12 1 0.166 1.993zm-12.166-1 12 1 0.166-1.993-12-1-0.166 1.993zm-10.826 0.9994 11-1-0.181-1.9918-11 1 0.181 1.9918z"/></g><path d="m21 13-2 5 5 2 2 9-5 5 2 3-3 2v1l5 7 4-2 4 6-2 6 2 2 3-6 3-2 7 4 5-1v-4l-2-2 3-7 8-1" fill="none" stroke="#EA5A47" stroke-linejoin="round" stroke-width="2"/><path d="m16 49c1.6569 0 3-1.3431 3-3s-1.3431-3-3-3-3 1.3431-3 3v7.9996c-0.3786 0.2844-0.7156 0.6213-1 0.9999v4.0005h8.9c0.0656-0.3231 0.1-0.6575 0.1-1 0-2.7614-2.2386-5-5-5-1.1046 0-2-0.8954-2-2s0.8954-2 2-2z" clip-rule="evenodd" fill="#5C9E31" fill-rule="evenodd"/><path d="m57.25 53.9c-1.4083 0-2.55 1.1417-2.55 2.55s1.1417 2.55 2.55 2.55 2.55-1.1417 2.55-2.55v-0.0058-6.7939c0.3218-0.2417 0.6082-0.5281 0.85-0.8499v-5.1008c-0.7754-1.0321-2.0097-1.6996-3.4-1.6996-2.3472 0-4.25 1.9028-4.25 4.25s1.9028 4.25 4.25 4.25c0.9389 0 1.7 0.7611 1.7 1.7s-0.7611 1.7-1.7 1.7z" clip-rule="evenodd" fill="#5C9E31" fill-rule="evenodd"/><path d="m48.868 39.867c-0.6099 0.0877-1.2334 0.1331-1.8675 0.1331-7.1797 0-13-5.8203-13-13 0-0.6341 0.0454-1.2577 0.1331-1.8675-3.6339 1.7957-6.1331 5.5398-6.1331 9.8675 0 6.0751 4.9249 11 11 11 4.3277 0 8.0718-2.4992 9.8675-6.1331z" clip-rule="evenodd" fill="#92D3F5" fill-rule="evenodd"/><path d="m31.5 19c2.4853 0 4.5-2.0147 4.5-4.5 0-0.9251-0.2791-1.785-0.7578-2.5h-7.4844c-0.4787 0.715-0.7578 1.5749-0.7578 2.5 0 2.4853 2.0147 4.5 4.5 4.5z" clip-rule="evenodd" fill="#5C9E31" fill-rule="evenodd"/><path d="m56.707 33.425c3.317-5.1984 1.7918-12.102-3.4066-15.419s-12.102-1.7918-15.419 3.4067c-3.3171 5.1985-1.7919 12.102 3.4065 15.419 5.1985 3.317 12.102 1.7917 15.419-3.4068z" fill="#B1CC33"/><path d="m50.973 14.618c-0.3131 3.5764-3.3155 6.3817-6.9731 6.3817-2.2091 0-4 1.7909-4 4s1.7909 4 4 4c3.866 0 7 3.134 7 7 0 1.3414-0.3773 2.5947-1.0316 3.6596-0.9534 0.2226-1.9472 0.3404-2.9684 0.3404-4.0209 0-7.6154-1.8255-10-4.6929v-16.614c2.3846-2.8674 5.9791-4.6929 10-4.6929 1.3857 0 2.7207 0.2168 3.9731 0.6183z" clip-rule="evenodd" fill="#92D3F5" fill-rule="evenodd"/><path d="m56.764 33.79c1.461-2.289 2.284-6.5149 1.6981-9.1673-0.4014-1.8161-2.6553-3.8396-3.8988-5.1585 0.6487 2.3544 1.0384 7.3509-2.1852 11.972-2.7358 3.9212-6.6908 5.6353-8.9477 6.0576 4.2488 1.2831 10.831 0.2175 13.334-3.7034z" fill="#5C9E31"/><path d="m50.569 33.575c0.279 0.7555 0.4314 1.5724 0.4314 2.4249 0 0.5419-0.0616 1.0695-0.1781 1.5761-2.5086 0.614-5.2473 0.5646-7.3916-0.0829 1.7946-0.3358 4.663-1.4884 7.1383-3.9181z" clip-rule="evenodd" fill="#61B2E4" fill-rule="evenodd"/><path d="m55.101 15.185c-3.2684-2.0837-7.1512-2.7717-10.937-1.9372-3.785 0.8366-7.0182 3.097-9.1041 6.3645-4.3036 6.746-2.3176 15.737 4.4283 20.042 6.745 4.3047 15.735 2.3197 20.042-4.4273 2.0849-3.2675 2.7728-7.1524 1.9362-10.937-0.8366-3.7851-3.096-7.0182-6.3646-9.1041zm1.8363 18.388c-2.1788 3.4147-5.8819 5.2814-9.6611 5.2814-2.1045 9e-4 -4.2319-0.5785-6.1343-1.7924-5.3172-3.3926-6.8818-10.479-3.4892-15.795 1.6436-2.5754 4.1915-4.3576 7.1747-5.0159 2.9841-0.6584 6.0444-0.1176 8.6208 1.5269 2.5755 1.6426 4.3567 4.1905 5.016 7.1747 0.6593 2.9831 0.1166 6.0443-1.5269 8.6207z" fill="#D0CFCE"/><path d="m34.767 41.209-6.918 10.335-3.7106 5.8155c-0.4778 0.75 0.3797 3.2105 1.1294 3.6888 0.3613 0.2305 2.5325 0.011 2.5325 0.011l11.524-17.192-4.5571-2.658z" fill="#3F3F3F"/><path d="m42.5 21h9.5" fill="none" stroke="#fff" stroke-linecap="round" stroke-width="2"/><path d="m40 24h13" fill="none" stroke="#fff" stroke-linecap="round" stroke-width="2"/><path d="m39 27h13" fill="none" stroke="#fff" stroke-linecap="round" stroke-width="2"/></g><g id="d" fill="none" stroke="#000" stroke-linecap="round" stroke-linejoin="round" stroke-width="2"><path d="m59.537 35.067c4.3067-6.5674 2.3264-15.288-4.4231-19.479s-15.712-2.2637-20.019 4.3037c-4.3067 6.5675-2.3264 15.288 4.4231 19.479s15.712 2.2637 20.019-4.3037z" stroke-miterlimit="10"/><path d="m56.638 33.267c3.2853-5.0098 1.7748-11.662-3.3739-14.859s-11.986-1.7267-15.271 3.2831-1.7747 11.662 3.374 14.859c5.1487 3.1966 11.986 1.7267 15.271-3.2831z" stroke-miterlimit="10"/><path d="m34.777 41.444 4.3636 2.709-10.396 15.853c-0.7427 1.1326-2.3216 1.4442-3.5265 0.6962-1.205-0.7481-1.5798-2.2726-0.8371-3.4053l10.396-15.853z" stroke-miterlimit="10"/><path d="M40 12.3333L36 12L25 13L12 12V24L12.9967 35.04L12 47V59L21 59.6923M54.2656 12.4779L60 12V16.5M59.375 39.5L60 47V59L48 60L36 59L32.5 59.3182"/></g></svg>
