<?xml version="1.0" encoding="UTF-8"?>
<svg id="a" viewBox="0 0 72 72" xmlns="http://www.w3.org/2000/svg"><g id="b"><path d="m28.5 19c-2.4 0-5.3333 3.3333-6.5 5l6 2c-0.5-1.8333-1.1-5.8 0.5-7z" fill="#EA5A47"/><path d="m48.783 47.414c5.596-4.1954 9.2168-10.882 9.2168-18.414 0-1.6264-0.1688-3.2134-0.4899-4.7444-6.2454-3.0305-11.171-8.3547-13.683-14.878-5.3591 4.0124-8.8273 10.412-8.8273 17.622 0 9.2455 5.7031 17.159 13.783 20.414z" clip-rule="evenodd" fill="#F1B31C" fill-rule="evenodd"/><circle cx="36" cy="36" r="13" fill="#8967AA" stroke="#8967AA" stroke-width="2"/><g fill="#D22F27"><path d="m39 48.051c0.8012 0.1956 1.6385 0.2994 2.5 0.2994 5.799 0 10.5-4.701 10.5-10.5s-4.701-10.5-10.5-10.5c-0.8615 0-1.6988 0.1038-2.5 0.2994 4.592 1.1216 8 5.2631 8 10.201s-3.408 9.079-8 10.201z" clip-rule="evenodd" fill-rule="evenodd"/><path d="m39 48.051-0.2373-0.9715v1.9429l0.2373-0.9714zm13-10.201h1-1zm-13-10.201-0.2373-0.9714v1.9429l0.2373-0.9715zm2.5 19.701c-0.7809 0-1.5386-0.094-2.2627-0.2709l-0.4746 1.9429c0.8783 0.2145 1.7952 0.328 2.7373 0.328v-2zm9.5-9.5c0 5.2467-4.2533 9.5-9.5 9.5v2c6.3513 0 11.5-5.1487 11.5-11.5h-2zm-9.5-9.5c5.2467 0 9.5 4.2533 9.5 9.5h2c0-6.3513-5.1487-11.5-11.5-11.5v2zm-2.2627 0.2709c0.7241-0.1769 1.4818-0.2709 2.2627-0.2709v-2c-0.9421 0-1.859 0.1135-2.7373 0.328l0.4746 1.9429zm-0.4746 0c4.1548 1.0147 7.2373 4.7632 7.2373 9.2291h2c0-5.4091-3.7334-9.9436-8.7627-11.172l-0.4746 1.9429zm7.2373 9.2291c0 4.4659-3.0825 8.2143-7.2373 9.2291l0.4746 1.9429c5.0293-1.2284 8.7627-5.763 8.7627-11.172h-2z"/></g><path d="m27.5 25c-2-2-5.1667-2.1667-6.5-2h-1v10.5h11l5-2c-3.5 0-6-4-8.5-6.5z" fill="#EA5A47"/><path d="m11 36.5c0-7.4661 3.2087-14.183 8.3224-18.846 0.2612-0.2382 0.6783-0.0327 0.6776 0.3209v0.0255c0 1.7106 0.3068 3.3496 0.8684 4.8649 0.0313 0.0846 0.0341 0.1771 0.0076 0.2634-0.5687 1.8491-0.876 3.8225-0.876 5.8717 0 0.2959 0.0064 0.5903 0.0191 0.8829 3e-4 0.0065-2e-4 0.013-0.0013 0.0195l-0.0153 0.0841c-0.0013 0.0072 0.0039 0.0139 0.0112 0.0143 0.0062 3e-4 0.0111 0.0053 0.0114 0.0115 0.0011 0.0228 0.0023 0.0456 0.0035 0.0684 0.0028 0.0517 0.0494 0.0897 0.1007 0.0825 0.199-0.0279 0.4055-0.0531 0.6188-0.0748 0.0125-0.0013 0.0231-0.0098 0.0269-0.0218 0.0045-0.0136 0.0175-0.0225 0.0318-0.0217l0.2574 0.0143c0.4514-0.0375 0.9311-0.0592 1.4358-0.0592 1.8174 0 3.3652 0.5393 4.8533 1.0578 1.3778 0.48 2.7045 0.9422 4.1467 0.9422 1.5453 0 2.759-0.1382 3.5609-0.2811 0.3508-0.0625 0.6419 0.3134 0.434 0.6028-0.4744 0.6604-1.181 1.407-1.9949 1.6783-0.3236 0.1079-0.8566 0.1692-1.5087 0.2443-2.3706 0.2727-6.3149 0.7265-7.4913 4.2557l-0.0367 0.1592c-0.0139 0.0603-0.0137 0.1231 0.0011 0.1833 0.4219 1.7117 1.1194 3.315 2.0426 4.7601 0.0202 0.0316 0.0449 0.0602 0.0733 0.0848 3.1071 2.6948 7.0844 4.3126 11.42 4.3126 9.9411 0 18-8.5066 18-19 0-4.1243-1.2449-7.9416-3.3597-11.056-0.271-0.3991 0.2609-0.9761 0.6243-0.6588 5.3533 4.6745 8.7354 11.55 8.7354 19.215 0 14.083-11.417 25.5-25.5 25.5s-25.5-11.417-25.5-25.5z" clip-rule="evenodd" fill="#EA5A47" fill-rule="evenodd"/><path d="m22.5 30c-2.8 0-4.8333 0.6667-5.5 1 0 0 2 4 6 4 0 0 1 2 2 6 0.5-6.5 7-6.5 8.5-7 1.2-0.4 2.1667-1.8333 2.5-2.5-0.5 0.1667-2.1 0.5-4.5 0.5-3 0-5.5-2-9-2z" fill="#F1B31C"/><path d="m61.884 34.387c-1.2338 12.933-12.127 23.048-25.384 23.048s-24.15-10.115-25.384-23.048c-0.077 0.8069-0.1164 1.6248-0.1164 2.4519 0 14.083 11.417 25.5 25.5 25.5s25.5-11.417 25.5-25.5c0-0.8271-0.0394-1.6449-0.1164-2.4519z" clip-rule="evenodd" fill="#B399C8" fill-rule="evenodd"/></g><g id="c" fill="none" stroke="#000" stroke-linecap="round" stroke-width="2"><path d="m52 37.85c0-5.799-4.701-10.5-10.5-10.5-0.8615 0-1.6988 0.1038-2.5 0.2995 4.592 1.1215 8 5.263 8 10.2s-3.408 9.0284-8 10.15c-4 0.977-11.5-0.5-14.5-7" stroke-linejoin="round"/><path d="m55.054 22.904c-5.076-3.1398-9.0542-7.8847-11.226-13.526-3.6977 2.7686-6.4953 6.6738-7.8744 11.197m-0.9529 10.815c-2.2403-0.4938-4.0684-2.5698-5.7931-4.5284-0.4611-0.5237-0.9148-1.0389-1.3671-1.5134-0.4426-1.9943-0.7696-5.276 0.6602-6.3484-1.978 0-4.3184 2.2643-5.7333 3.9936-0.6255-0.0584-1.2667-0.0436-1.8508 0.0064l0.0015-0.0047c-0.5927-1.5515-0.9174-3.2355-0.9174-4.9953 0-0.3264 0.0112-0.6502 0.0331-0.971-5.5253 4.6776-9.0331 11.665-9.0331 19.471 0 0.0566 2e-4 0.113 6e-4 0.1695-4e-4 0.0564-6e-4 0.1129-6e-4 0.1694 0 14.083 11.417 25.5 25.5 25.5s25.5-11.417 25.5-25.5c0-0.0565-2e-4 -0.113-5e-4 -0.1694 3e-4 -0.0565 5e-4 -0.1129 5e-4 -0.1695 0-7.5522-3.2831-14.338-8.5-19.007" stroke-linejoin="round"/><path d="m30 24.464c1.795-0.9355 3.8357-1.4644 6-1.4644 2.3679 0 4.5879 0.6331 6.5 1.7392"/></g></svg>
