<svg xmlns="http://www.w3.org/2000/svg" id="a" viewBox="0 0 72 72"><g id="b"><path fill="#EA5A47" fill-rule="evenodd" d="m36 64c14.359 0 26-12.536 26-28s-11.641-28-26-28-26 12.536-26 28 11.641 28 26 28zm0-7c8.8366 0 16-9.402 16-21s-7.1634-21-16-21-16 9.402-16 21 7.1634 21 16 21z" clip-rule="evenodd"/><path fill="#D22F27" fill-rule="evenodd" d="m38.766 63.843c13.059-1.4872 23.234-13.386 23.234-27.843s-10.175-26.356-23.234-27.843c-2.7876 0.39304-5.4125 1.5133-7.766 3.2157-6.5516 4.7394-11 13.991-11 24.628 0 14.458 8.2183 26.356 18.766 27.843zm13.234-27.843c0 11.598-7.1634 21-16 21s-16-9.402-16-21 7.1634-21 16-21 16 9.402 16 21z" clip-rule="evenodd"/><path fill="#EA5A47" d="m38.766 63.843-0.1397 0.9902 0.1262 0.0178 0.1266-0.0144-0.1131-0.9936zm0-55.687 0.1131-0.99358-0.1266-0.01441-0.1262 0.01778 0.1397 0.99021zm-7.766 3.2157-0.5861-0.8102 0.5861 0.8102zm30 24.628c0 14.003-9.8452 25.426-22.347 26.85l0.2263 1.9872c13.616-1.5506 24.121-13.925 24.121-28.837h-2zm-22.347-26.85c12.502 1.4238 22.347 12.847 22.347 26.85h2c0-14.912-10.505-27.286-24.121-28.837l-0.2263 1.9872zm-0.0265-1.9838c-2.9649 0.41805-5.7408 1.6078-8.2124 3.3957l1.1722 1.6205c2.2354-1.6171 4.7093-2.6678 7.3195-3.0358l-0.2793-1.9804zm-8.2124 3.3957c-6.8631 4.9647-11.414 14.55-11.414 25.438h2c0-10.385 4.346-19.303 10.586-23.818l-1.1722-1.6204zm-11.414 25.438c0 14.732 8.392 27.25 19.626 28.834l0.2793-1.9804c-9.861-1.3903-17.906-12.67-17.906-26.853h-2zm17 22c4.7969 0 9.0689-2.5544 12.109-6.5447 3.0397-3.9896 4.8909-9.4571 4.8909-15.455h-2c0 5.5998-1.7305 10.632-4.4817 14.243-2.7506 3.6101-6.4786 5.7568-10.518 5.7568v2zm-17-22c0 5.9982 1.8512 11.466 4.8909 15.455 3.0402 3.9903 7.3122 6.5447 12.109 6.5447v-2c-4.0397 0-7.7677-2.1467-10.518-5.7568-2.7512-3.611-4.4817-8.6434-4.4817-14.243h-2zm17-22c-4.7969 0-9.0689 2.5544-12.109 6.5447-3.0397 3.9896-4.8909 9.4571-4.8909 15.455h2c0-5.5998 1.7305-10.632 4.4817-14.243 2.7506-3.6101 6.4786-5.7568 10.518-5.7568v-2zm17 22c0-5.9982-1.8512-11.466-4.8909-15.455-3.0402-3.9903-7.3122-6.5447-12.109-6.5447v2c4.0397 0 7.7677 2.1467 10.518 5.7568 2.7512 3.611 4.4817 8.6434 4.4817 14.243h2z"/></g><g id="c" fill="none" stroke="#000" stroke-width="2"><ellipse cx="36" cy="36" rx="26" ry="28"/><ellipse cx="36" cy="36" rx="26" ry="28"/><path stroke-linecap="round" d="m29 17.111c2.1144-1.3523 4.4897-2.1111 7-2.1111 8.8366 0 16 9.402 16 21s-7.1634 21-16 21c-2.5103 0-4.8856-0.7588-7-2.1111"/><path stroke-linecap="round" d="m31 11.372c-6.5516 4.7394-11 13.991-11 24.628s4.4484 19.888 11 24.628"/></g></svg>