<svg xmlns="http://www.w3.org/2000/svg" id="a" viewBox="0 0 72 72"><g id="b"><circle cx="36" cy="36" r="28" fill="#B1CC33"/><path fill="#FCEA2B" fill-rule="evenodd" d="m34.312 27.158 8e-3 0.0467c2.0031-0.3473 4.1346-0.0214 6.0328 1.0745 4.3047 2.4853 5.7795 7.9896 3.2943 12.294l-13.261 22.969c11.443 2.2785 23.558-2.8033 29.716-13.469 4.2094-7.2909 4.7672-15.688 2.2408-23.074h-26.342c-0.5771 0-1.1415 0.0543-1.6884 0.1581z" clip-rule="evenodd"/><path fill="#EA5A47" fill-rule="evenodd" d="M27 43.5L8.20227 32.6171C9.87243 18.7484 21.681 8 36 8C48.3156 8 58.7741 15.9511 62.5222 27H36C31.0294 27 27 31.0294 27 36C27 38.1919 27.7836 40.2008 29.0858 41.7618L27 43.5Z" clip-rule="evenodd"/><circle cx="36" cy="36" r="9" fill="#61B2E4"/></g><g id="c" fill="none" stroke="#000" stroke-width="2"><circle cx="36" cy="36" r="28"/><path stroke-linecap="round" d="m36 26h23"/><path stroke-linecap="round" d="m44.66 41-11.5 19.919"/><path stroke-linecap="round" d="m11.081 33.16 19.919 11.5"/><circle cx="36" cy="36" r="10"/></g></svg>