<svg xmlns="http://www.w3.org/2000/svg" id="a" viewBox="0 0 72 72"><g id="b"><path fill="#61B2E4" d="m58 11h-44c-1.6569 0-3 1.3431-3 3v44c0 1.6569 1.3431 3 3 3h44c1.6569 0 3-1.3431 3-3v-44c0-1.6569-1.3431-3-3-3z"/><g fill="#3F3F3F"><path fill-rule="evenodd" d="m61 46.247c-7.6472-3.3735-16.105-5.2467-25-5.2467s-17.353 1.8732-25 5.2467v11.753c0 1.6569 1.3431 3 3 3h44c1.6569 0 3-1.3431 3-3v-11.753z" clip-rule="evenodd"/><path d="m61 46.247h1v-0.6518l-0.5964-0.2631-0.4036 0.9149zm-50 0-0.4036-0.9149-0.5964 0.2631v0.6518h1zm25-4.2467c8.7535 0 17.074 1.8432 24.596 5.1617l0.8072-1.8299c-7.7719-3.4285-16.367-5.3318-25.404-5.3318v2zm-24.596 5.1617c7.5225-3.3185 15.843-5.1617 24.596-5.1617v-2c-9.0368 0-17.632 1.9033-25.404 5.3318l0.8072 1.8299zm-1.4036-0.915v11.753h2v-11.753h-2zm0 11.753c0 2.2091 1.7909 4 4 4v-2c-1.1046 0-2-0.8954-2-2h-2zm4 4h44v-2h-44v2zm44 0c2.2091 0 4-1.7909 4-4h-2c0 1.1046-0.8954 2-2 2v2zm4-4v-11.753h-2v11.753h2z"/></g><g fill="#fff"><path fill-rule="evenodd" d="m44 19h-1v3h1c1.1046 0 2 0.8954 2 2v15l-17-19h-8v3h2c1.1046 0 2 0.8954 2 2v17c0 1.1046-0.8954 2-2 2h-1v3h9v-3h-1c-1.1046 0-2-0.8954-2-2v-17l13.956 16.282c2.39 0.2278 4.7405 0.5913 7.0436 1.0827v-18.365c0-1.1046 0.8954-2 2-2h1v-3h-8z" clip-rule="evenodd"/><path d="m43 19v-1c-0.5523 0-1 0.4477-1 1h1zm0 3h-1c0 0.5523 0.4477 1 1 1v-1zm3 17-0.7452 0.6668c0.2764 0.309 0.7148 0.4153 1.1021 0.2673 0.3873-0.1479 0.6431-0.5195 0.6431-0.9341h-1zm-17-19 0.7452-0.6668c-0.1897-0.212-0.4607-0.3332-0.7452-0.3332v1zm-8 0v-1c-0.5523 0-1 0.4477-1 1h1zm0 3h-1c0 0.5523 0.4477 1 1 1v-1zm4 2h-1 1zm0 17h1-1zm-3 2v-1c-0.5523 0-1 0.4477-1 1h1zm0 3h-1c0 0.2652 0.1054 0.5196 0.2929 0.7071s0.4419 0.2929 0.7071 0.2929v-1zm9 0v1c0.5523 0 1-0.4477 1-1h-1zm0-3h1c0-0.5523-0.4477-1-1-1v1zm-3-2h1-1zm0-17 0.7593-0.6508c-0.2724-0.3177-0.7138-0.4323-1.1062-0.2871-0.3925 0.1452-0.6531 0.5194-0.6531 0.9379h1zm13.956 16.282-0.7593 0.6508c0.1685 0.1966 0.4066 0.3201 0.6644 0.3447l0.0949-0.9955zm7.0436 1.0827-0.2087 0.978c0.2952 0.063 0.6031-0.0107 0.8377-0.2006 0.2347-0.1898 0.371-0.4755 0.371-0.7774h-1zm3-20.365v1c0.5523 0 1-0.4477 1-1h-1zm0-3h1c0-0.5523-0.4477-1-1-1v1zm-9 1h1v-2h-1v2zm1 2v-3h-2v3h2zm0-1h-1v2h1v-2zm3 3c0-1.6569-1.3431-3-3-3v2c0.5523 0 1 0.4477 1 1h2zm0 15v-15h-2v15h2zm-18.745-18.333 17 19 1.4904-1.3336-17-19-1.4904 1.3336zm-0.2548 0.3332h1v-2h-1v2zm-5 0h5v-2h-5v2zm-2 0h2v-2h-2v2zm1 2v-3h-2v3h2zm1-1h-2v2h2v-2zm3 3c0-1.6569-1.3431-3-3-3v2c0.5523 0 1 0.4477 1 1h2zm0 17v-17h-2v17h2zm-3 3c1.6569 0 3-1.3431 3-3h-2c0 0.5523-0.4477 1-1 1v2zm-1 0h1v-2h-1v2zm1 2v-3h-2v3h2zm0-1h-1v2h1v-2zm7 0h-7v2h7v-2zm1 0h-1v2h1v-2zm-1-2v3h2v-3h-2zm0 1h1v-2h-1v2zm-3-3c0 1.6569 1.3431 3 3 3v-2c-0.5523 0-1-0.4477-1-1h-2zm0-17v17h2v-17h-2zm15.716 15.632-13.956-16.282-1.5186 1.3016 13.956 16.282 1.5185-1.3016zm6.4931 0.7555c-2.3405-0.4993-4.729-0.8687-7.1574-1.1002l-0.1898 1.991c2.3516 0.2242 4.6641 0.5818 6.9298 1.0652l0.4174-1.956zm-1.2087 0.6129v0.3651h2v-0.3651h-2zm0-18v18h2v-18h-2zm3-3c-1.6569 0-3 1.3431-3 3h2c0-0.5523 0.4477-1 1-1v-2zm1 0h-1v2h1v-2zm-1-2v3h2v-3h-2zm0 1h1v-2h-1v2zm-7 0h7v-2h-7v2z"/></g></g><g id="c" fill="none" stroke="#000" stroke-width="2"><path stroke-miterlimit="10" d="m58 11h-44c-1.6569 0-3 1.3431-3 3v44c0 1.6569 1.3431 3 3 3h44c1.6569 0 3-1.3431 3-3v-44c0-1.6569-1.3431-3-3-3z"/><path stroke-linecap="round" stroke-linejoin="round" d="m40 39c-3.8669-4.5114-7.2192-8.4224-12-14v17c0 1.1046 0.8954 2 2 2h1v3h-9v-3h1c1.1046 0 2-0.8954 2-2v-17c0-1.1046-0.8954-2-2-2h-2v-3h8l17 19v-15c0-1.1046-0.8954-2-2-2h-1v-3h9v3h-1c-1.1046 0-2 0.8954-2 2v16"/><path stroke-linecap="round" d="m61 46.247c-7.6472-3.3735-16.105-5.2467-25-5.2467-1.6832 0-3.3507 0.0671-5 0.1987m-20 5.048c2.8909-1.2753 5.8976-2.3362 9-3.1625"/></g></svg>