<?xml version="1.0" encoding="UTF-8"?>
<svg id="a" viewBox="0 0 72 72" xmlns="http://www.w3.org/2000/svg"><g id="b"><g fill="#61B2E4"><path d="m58.979 37c0.0141-0.3316 0.0213-0.6649 0.0213-1 0-12.702-10.298-23-23-23s-23 10.298-23 23 10.298 23 23 23c10.64 0 19.593-7.2252 22.22-17.037h-12.974c-1.9589 3.0309-5.3677 5.037-9.2451 5.037-5.738 0-10.45-4.3935-10.955-10h33.934zm-13.178-6c-1.8207-3.5617-5.5259-6-9.8006-6s-7.9799 2.4383-9.8006 6h19.601z" clip-rule="evenodd" fill-rule="evenodd"/><path d="m58.979 37v1c0.5356 0 0.9761-0.4221 0.999-0.9573l-0.999-0.0427zm-0.7592 4.963 0.966 0.2585c0.0804-0.3002 0.0165-0.6208-0.1727-0.8674-0.1893-0.2466-0.4825-0.3911-0.7933-0.3911v1zm-12.974 0v-1c-0.3394 0-0.6556 0.1721-0.8398 0.4571l0.8398 0.5429zm-20.2-4.963v-1c-0.2809 0-0.5488 0.1181-0.7382 0.3254-0.1895 0.2073-0.283 0.4847-0.2578 0.7644l0.996-0.0898zm20.756-6v1c0.3482 0 0.6713-0.1811 0.853-0.4781 0.1817-0.2969 0.1959-0.6671 0.0374-0.9771l-0.8904 0.4552zm-19.601 0-0.8904-0.4552c-0.1585 0.31-0.1443 0.6802 0.0374 0.9771 0.1818 0.297 0.5049 0.4781 0.853 0.4781v-1zm31.801 5c0 0.3208-0.0069 0.6399-0.0204 0.9573l1.9981 0.0854c0.0148-0.3458 0.0223-0.6934 0.0223-1.0427h-2zm-22-22c12.15 0 22 9.8497 22 22h2c0-13.255-10.745-24-24-24v2zm-22 22c0-12.15 9.8497-22 22-22v-2c-13.255 0-24 10.745-24 24h2zm22 22c-12.15 0-22-9.8497-22-22h-2c0 13.255 10.745 24 24 24v-2zm21.254-16.296c-2.5124 9.3855-11.077 16.296-21.254 16.296v2c11.104 0 20.445-7.5404 23.186-17.778l-1.932-0.5171zm-12.008 1.2586h12.974v-2h-12.974v2zm-9.2451 5.037c4.2309 0 7.9496-2.1903 10.085-5.4942l-1.6797-1.0857c-1.7825 2.758-4.8814 4.5799-8.4053 4.5799v2zm-11.951-10.91c0.5512 6.1172 5.6909 10.91 11.951 10.91v-2c-5.2158 0-9.5-3.994-9.9592-9.0898l-1.9919 0.1796zm34.93-1.0898h-33.934v2h33.934v-2zm-22.979-10c3.8847 0 7.2537 2.2148 8.9102 5.4552l1.7808-0.9104c-1.985-3.883-6.0263-6.5448-10.691-6.5448v2zm-8.9102 5.4552c1.6565-3.2404 5.0256-5.4552 8.9102-5.4552v-2c-4.6647 0-8.706 2.6618-10.691 6.5448l1.7808 0.9104zm18.711-1.4552h-19.601v2h19.601v-2z"/></g><path d="m59.999 25.366c-0.3613-2.6684-1.408-5.0042-3.192-6.7882-6.4964-6.4965-20.311-3.2152-30.855 7.329-10.544 10.544-13.826 24.358-7.329 30.855 1.8526 1.8526 4.3003 2.9101 7.0976 3.2307-4.0602 0.1159-7.6284-1.0258-10.158-3.5551-6.9459-6.9458-3.4267-21.726 7.8603-33.014s26.068-14.806 33.014-7.8603c2.4554 2.4553 3.603 5.8897 3.562 9.8027z" clip-rule="evenodd" fill="#FCEA2B" fill-rule="evenodd"/></g><g id="c"><path d="m17.88 50.167c4.21 5.3772 10.762 8.8329 18.12 8.8329 10.64 0 19.593-7.2252 22.22-17.037h-12.974c-1.9589 3.0309-5.3677 5.037-9.2451 5.037-5.738 0-10.45-4.3935-10.955-10h33.934c0.0141-0.3316 0.0213-0.6649 0.0213-1 0-7.4346-3.5275-14.045-9-18.25m-36.806 15.25c1.2984-9.9675 8.9784-17.93 18.806-19.653m4 11.653c4.2747 0 7.9799 2.4383 9.8006 6h-19.601c1.8207-3.5617 5.5259-6 9.8006-6z" fill="none" stroke="#000" stroke-linecap="round" stroke-linejoin="round" stroke-width="2"/><path d="m56.807 18.578-0.7071 0.7071 0.7071-0.7071zm3.192 6.7882-0.9909 0.1342c0.0703 0.5194 0.5298 0.8964 1.053 0.8639 0.5231-0.0325 0.9324-0.4635 0.9379-0.9876l-1-0.0105zm-34.047 0.5408 0.7071 0.7071-0.7071-0.7071zm-7.329 30.855-0.7072 0.7071h1e-4l0.7071-0.7071zm7.0976 3.2307 0.0285 0.9996c0.5244-0.015 0.9481-0.4327 0.9705-0.9568 0.0225-0.5242-0.364-0.9765-0.8852-1.0363l-0.1138 0.9935zm-10.158-3.5551 0.7071-0.7071-0.7071 0.7071zm7.8603-33.014 0.7071 0.7071-0.7071-0.7071zm33.014-7.8603-0.7071 0.7071 0.7071-0.7071zm-0.3371 3.7216c1.6052 1.6052 2.5713 3.7275 2.9082 6.2153l1.9819-0.2684c-0.3858-2.849-1.5131-5.3983-3.4759-7.3611l-1.4142 1.4142zm-29.44 7.329c5.1626-5.1626 11.093-8.512 16.469-9.7889 5.3942-1.2813 10.06-0.4516 12.971 2.4599l1.4142-1.4142c-3.5849-3.585-9.0747-4.3629-14.848-2.9916-5.7913 1.3756-12.04 4.939-17.421 10.321l1.4143 1.4142zm-7.329 29.44c-2.9116-2.9115-3.7412-7.5771-2.4599-12.971 1.2769-5.3759 4.6263-11.307 9.7889-16.469l-1.4143-1.4142c-5.3815 5.3815-8.9449 11.63-10.32 17.421-1.3713 5.773-0.5934 11.263 2.9915 14.848l1.4143-1.4142zm6.5043 2.9443c-2.613-0.2995-4.8379-1.2778-6.5043-2.9443l-1.4142 1.4142c2.0387 2.0388 4.7093 3.1754 7.6908 3.5171l0.2277-1.987zm-0.1424-0.0061c-3.8598 0.1102-7.1344-0.975-9.422-3.2626l-1.4142 1.4142c2.771 2.7711 6.6329 3.9692 10.893 3.8476l-0.0571-1.9992zm-9.422-3.2626c-3.1358-3.1358-4.0189-8.1548-2.6415-13.94 1.3731-5.7667 4.9676-12.125 10.502-17.659l-1.4142-1.4142c-5.7528 5.7528-9.5613 12.428-11.033 18.61-1.4674 6.1633-0.6372 12.008 3.1729 15.818l1.4142-1.4142zm7.8603-31.599c5.5342-5.5342 11.892-9.1287 17.659-10.502 5.7853-1.3774 10.804-0.4943 13.94 2.6415l1.4142-1.4142c-3.81-3.8101-9.6542-4.6403-15.818-3.1729-6.1818 1.4719-12.857 5.2804-18.61 11.033l1.4142 1.4142zm31.599-7.8603c2.2211 2.2211 3.3081 5.3714 3.2692 9.0851l1.9999 0.021c0.043-4.1123-1.1653-7.8308-3.8549-10.52l-1.4142 1.4142z"/></g></svg>
