<svg xmlns="http://www.w3.org/2000/svg" id="a" viewBox="0 0 72 72"><g id="b"><path fill="#61B2E4" d="m29 36.5v-4.5c-2.1667 0-6.5 2.7-6.5 13.5s8.6667 16.833 13 18.5c0.6667 0 3.6-0.4 10-2s11.333-7.3333 13-10c-5.1667 1.6667-17 3.6-23-2s-6.8333-11.333-6.5-13.5z"/><path fill="#92D3F5" fill-rule="evenodd" d="m63.305 26.207c-4.0164-11.198-14.725-19.207-27.305-19.207-16.016 0-29 12.984-29 29s12.984 29 29 29c0.1937 0 0.3869-0.0019 0.5797-0.0057-8.479-2.5458-14.58-9.6405-14.58-17.994 0-10.493 2.5-18.5 18.5-18.5 6.7548 0 13.753 2.591 18.532 6.7569l4.2734-9.0497z" clip-rule="evenodd"/><path fill="#92D3F5" fill-rule="evenodd" d="m64.911 33.712c-0.0449-0.5756-0.1067-1.1465-0.1847-1.7122-1.9485-14.123-14.067-25-28.726-25-14.751 0-26.93 11.014-28.762 25.267 1.2851-1.105 2.2293-2.4875 3.1405-3.8215 1.1978-1.7539 2.3385-3.424 4.1214-4.2697 8.3824-3.9763 18.697-1.9904 23.454 2.7666 3.4941 3.4942 4.4141 8.908 3.0805 14.858 0.9264 1.2048 2.4059 2.4423 4.4651 2.6997 4 0.5 14.5-2 18-8 0.5321-0.9122 1.0004-1.8508 1.4111-2.7878z" clip-rule="evenodd"/><path fill="#61B2E4" fill-rule="evenodd" d="m41.565 38.26c3.399-4.0343 5.4346-9.1693 5.4346-14.76 0-6.2746-2.5638-11.975-6.7413-16.19 12.694 1.868 22.712 11.96 24.468 24.69 0.0781 0.5657 0.1398 1.1366 0.1847 1.7121-0.4107 0.9371-0.879 1.8757-1.4111 2.7879-3.5 6-14 8.5-18 8-2.0592-0.2574-3.5387-1.4949-4.4651-2.6997 0.2703-1.2059 0.448-2.3897 0.5305-3.54z" clip-rule="evenodd"/></g><g id="c" fill="none" stroke="#000" stroke-linecap="round" stroke-linejoin="round" stroke-width="2"><path d="m28 36c0 12 12 17.5 20 17.5 6.4 0 10.667-1.6667 12-2.5-3 4.5-12 13.4-24 13-4.5-1.6667-13.5-7.6-13.5-18 0-13 9.5-18 13.5-18"/><path d="m12 21.5c3-5.1667 11-13.5 24-13.5 16.508 0 29 11 28.5 22.5s-9.5 14.5-16 14.5c-5.2 0-7.3169-3-7.7253-4.5 1.0227-1.4316 1.7253-3.1126 1.7253-5 0-6.5-8-14-18.5-14-7.5 0-16 2-16 14"/><path d="m8 36c0 16 13 26 21 27"/></g></svg>