<?xml version="1.0" encoding="UTF-8"?>
<svg id="a" viewBox="0 0 72 72" xmlns="http://www.w3.org/2000/svg"><g id="b"><polygon points="12.231 33.089 8.011 44.143 35.645 64.14" fill="#f1b31c"/><polygon points="36.047 64.441 63.982 43.741 60.264 33.793" fill="#f1b31c"/><polygon points="25.496 32.888 19.265 13.092 11.729 33.089" fill="#ea5a47"/><polygon points="46.296 33.29 60.465 33.29 53.029 13.193" fill="#ea5a47"/><polygon points="25.998 33.089 35.946 63.637 46.799 33.391" fill="#ea5a47"/><polygon points="12.131 32.888 25.998 33.089 35.946 63.738" fill="#e27022"/><polygon points="46.598 33.089 36.851 62.934 59.963 33.391" fill="#e27022"/></g><g id="c" fill="none" stroke="#000" stroke-linecap="round" stroke-width="2"><path d="m8.28 43.382 9.731-29.513a1.1007 1.1007 0 0 1 2.0964 0.018l5.9675 19.206 20.216-0.0016 5.7173-19.232a1.1006 1.1006 0 0 1 2.0947-0.0216l9.6344 28.825a1.2305 1.2305 0 0 1-0.4247 1.3714l-27.255 20.62-27.334-19.892a1.2307 1.2307 0 0 1-0.4447-1.3803z" stroke-linejoin="round"/><line x1="11.673" x2="26.625" y1="33.092" y2="33.092" stroke-miterlimit="10"/><line x1="45.586" x2="60.539" y1="33.092" y2="33.092" stroke-miterlimit="10"/><polyline points="60.337 33.079 36.245 64.617 11.79 33.079" stroke-linejoin="round"/><path d="m46.782 33.582c-0.2592 0.9938-10.537 31.035-10.537 31.035 0.0794-0.3042-9.9348-30.726-9.9348-30.726" stroke-linejoin="round"/></g></svg>
