<svg xmlns="http://www.w3.org/2000/svg" id="a" viewBox="0 0 72 72"><g id="b"><path fill="#61b2e4" d="m34.218 63.148a40.762 40.762 0 0 1-8.6407-0.914c-14.919-4.0039-14.419-23.062-14.412-23.254v-11.923c0.251-9.3574 5.4825-13.01 5.7051-13.161 8.8057-6.792 30.459-3.21 33.232-2.46 10.791 3.2725 10.766 14.067 10.765 14.176l0.0274 7.3955c0 10.255-3.335 12.781-3.4766 12.884-6.916 6.4824-21.112 5.4894-21.714 5.4453a55.856 55.856 0 0 1-9.582-1.1269 6.3517 6.3517 0 0 0 2.4609 4.9326c5.1348 3.86 16.499 0.6436 16.612 0.61a0.5 0.5 0 0 1 0.6387 0.48v4.334a0.5 0.5 0 0 1-0.2959 0.4561 28.087 28.087 0 0 1-11.319 2.1267z"/><path fill="#fff" d="M51.6182,42.7471H46.1846a.5.5,0,0,1-.5-.5V28.041a2.9229,2.9229,0,0,0-2.92-2.92h-.5175a2.9237,2.9237,0,0,0-2.9209,2.92v9.001a.5.5,0,0,1-.5.5H33.2275a.5.5,0,0,1-.5-.5V28.041a2.9237,2.9237,0,0,0-2.9209-2.92H29.29a2.9237,2.9237,0,0,0-2.9209,2.92V42.2471a.5.5,0,0,1-.5.5H20.4355a.5.5,0,0,1-.5-.5V27.2217A8.4214,8.4214,0,0,1,28.3477,18.81h1.1181c.2569,0,3.9678.0869,6.5615,4.8691,2.5918-4.78,6.3018-4.8691,6.5655-4.8691h1.1133a8.4214,8.4214,0,0,1,8.4121,8.4121V42.2471A.5.5,0,0,1,51.6182,42.7471Z"/></g><g id="c" fill="none" stroke="#000" stroke-linecap="round" stroke-linejoin="round" stroke-width="2"><path d="m11.665 27.07v11.928s-0.6652 18.807 14.027 22.751c0 0 11.094 2.637 19.641-1.1821v-4.3341s-19.732 5.6979-19.732-6.6686a48.363 48.363 0 0 0 10.14 1.273s14.497 1.0971 21.382-5.3515c0 0 3.2693-2.3614 3.2693-12.477l-0.0268-7.4038s0.1455-10.489-10.396-13.687c-2.6259-0.7112-24.17-4.28-32.821 2.3913 2e-4 0-5.2373 3.5522-5.4846 12.761z"/><path d="m36.027 24.801c-2.5181-5.53-6.5695-5.4914-6.5695-5.4914h-1.11a7.9118 7.9118 0 0 0-7.9119 7.9118v15.025h5.4335v-14.205a3.4205 3.4205 0 0 1 3.421-3.4206h0.5171a3.4205 3.4205 0 0 1 3.4206 3.4206v9.0007h5.5992v-9.0007a3.4205 3.4205 0 0 1 3.42-3.4206h0.5172a3.4206 3.4206 0 0 1 3.4206 3.4206v14.205h5.433v-15.025a7.9118 7.9118 0 0 0-7.9117-7.9114h-1.11s-4.0513-0.0384-6.5694 5.4914"/></g></svg>