<svg xmlns="http://www.w3.org/2000/svg" id="a" viewBox="0 0 72 72"><g id="b"><path fill="#ea5a47" d="M38.795,24.2591a.4574.4574,0,0,0,.021-.1034c.001-.0119.0069-.022.0069-.0341a.44.44,0,0,0-.012-.0594.48.48,0,0,0-.0036-.0666,15.1973,15.1973,0,0,0-26.5879-5.6407.4818.4818,0,0,0-.0918.0861,29.508,29.508,0,0,0,.292,34.7275.4994.4994,0,0,0,.6992.1035l.008-.009.0086-.0027a.5009.5009,0,0,0,.1142-.6982A14.2,14.2,0,0,1,24.7858,30.0835c.48,0,.9677.0245,1.4531.0733.0137.0014.0268-.0045.04-.0043s.023.0072.0357.0072a.5.5,0,0,0,.5-.5v-.1533a4.89,4.89,0,0,1,4.8838-4.8848h6.624a.5138.5138,0,0,0,.126-.0156c.0126-.0034.0217-.0124.0339-.0166a.4415.4415,0,0,0,.2285-.1658.3648.3648,0,0,0,.0837-.1645Z"/><path fill="#d22f27" d="M38.8107,24.0622a.4511.4511,0,0,0-.0034-.0666A15.1878,15.1878,0,0,0,13.2518,17.2a15.1617,15.1617,0,0,1,21.02,7.4217h4.0515a.5138.5138,0,0,0,.126-.0156c.0126-.0034.0214-.0124.0336-.0166a.4788.4788,0,0,0,.0889-.0435.5.5,0,0,0,.0786-.0528.476.476,0,0,0,.0611-.0695.4645.4645,0,0,0,.0542-.08.7.7,0,0,0,.0507-.1875c.001-.0119.0069-.022.0069-.0341A.4117.4117,0,0,0,38.8107,24.0622Z"/><path fill="#f4aa41" d="M47.9169,34.247a.4581.4581,0,0,0,.1043-.0165c.0114-.0032.023-.0013.0343-.0055a.4522.4522,0,0,0,.0515-.032.4839.4839,0,0,0,.061-.0267,15.1975,15.1975,0,0,0,5.4975-17.7571c-1.6281-4.3587-5.0951-7.1761-9.5166-8.6238-.0364-.0205-.57-.2946-.6128-.3058a27.6952,27.6952,0,0,0-17.5052.5989A29.26,29.26,0,0,0,11.6061,19.6546a.4994.4994,0,0,0,.1477.6912l.0112.0044.0056.0071a.5011.5011,0,0,0,.6941-.1373,14.2,14.2,0,0,1,25.0941,2.9414c.1677.4492.3157.9151.44,1.3869.0034.0133.0136.0236.0182.0365s.0013.024.0057.0359a.5.5,0,0,0,.6434.2934l.1436-.0536c2.5231-.9425,7.1979,1.6706,8.14,4.1937l.4623,4.8774a.5127.5127,0,0,0,.0588.1125c.0075.0107.0192.016.0274.026a.4394.4394,0,0,0,.2353.156.473.473,0,0,0,.0943.0227A.4654.4654,0,0,0,47.9169,34.247Z"/><path fill="#e27022" d="M48.6187,34.4428a.447.447,0,0,0,.0612-.0265,15.1877,15.1877,0,0,0-2.576-26.3178,15.1615,15.1615,0,0,1,.4024,22.2877l1.4177,3.7954a.508.508,0,0,0,.0587.1125c.0076.0107.0191.0158.0273.0258a.4813.4813,0,0,0,.0719.068.506.506,0,0,0,.0769.0552.7512.7512,0,0,0,.1808.0555.4515.4515,0,0,0,.0892-.0016.4572.4572,0,0,0,.1042-.0165c.0115-.0032.023-.0013.0343-.0055A.4108.4108,0,0,0,48.6187,34.4428Z"/><path fill="#b1cc33" d="m49.754 11.142a14.123 14.123 0 0 1 5.1967 11.96 14.123 14.123 0 0 1-7.0231 10.988 9.3526 9.3526 0 0 1-10.732 7.97c1.78 5.689 8.0883 9.3666 14.014 8.7158s11.074-5.1816 13.104-10.786-0.406-13.446-2.48-17.255c-2.0671-3.7954-6.8399-9.2913-12.079-11.592z"/><path fill="#5c9e31" d="M52.6479,47.257a13.8,13.8,0,0,1-12.2785-5.359,8.08,8.08,0,0,1-3.1741.0108c1.78,5.689,8.0884,9.3666,14.0137,8.7158S62.2827,45.443,64.3132,39.8384c.0967-.2666.1741-.5427.251-.8188A16.1422,16.1422,0,0,1,52.6479,47.257Z"/><path fill="#92d3f5" d="m37.013 42.466a14.983 14.983 0 0 0 26.618-0.0785 23.158 23.158 0 0 1-29.813 19.765 10.472 10.472 0 0 1-6.99-11.5c0.8856-4.8276 5.7208-8.5931 10.185-8.1868z"/><path fill="#61b2e4" d="m29.851 46.768c-2.091 11.028 8.54 17.673 15.304 15.909-12.589 3.6237-18.005-6.5985-18.407-13.163 1.2079-1.1089 1.6658-1.4678 3.1034-2.7461z"/><path fill="#b399c8" d="m40.255 64.354a15.133 15.133 0 0 1-13.985-14.572l0.0016-19.689c-5.3557-0.9959-11.061 1.989-13.783 6.7078a16.89 16.89 0 0 0-0.1512 15.688 22.346 22.346 0 0 0 12.027 10.511 29.444 29.444 0 0 0 15.892 1.3542z"/><path fill="#8967aa" d="m12.37 36.948a13.93 13.93 0 0 0-1.8372 8.473 13.458 13.458 0 0 1 1.8372-5.7232 13.143 13.143 0 0 1 13.097-6.1027v-2.75a13.143 13.143 0 0 0-13.097 6.1029z"/></g><g id="c" fill="none" stroke="#000" stroke-linecap="round" stroke-linejoin="round" stroke-width="2"><path d="m12.465 19.135a14.702 14.702 0 0 1 25.777 5.3823"/><path d="m44.446 8.2722a14.704 14.704 0 0 1 3.4306 26.541"/><path d="m65.042 36a14.701 14.701 0 0 1-28.064 6.1267"/><path d="m46.293 63.126a14.708 14.708 0 0 1-20.059-13.691"/><path d="m12.762 53.249a14.7 14.7 0 0 1 11.943-23.27 14.865 14.865 0 0 1 1.5028 0.0759"/><path d="m36.042 7a29 29 0 1 0 29 29 29 29 0 0 0-29-29zm11.932 26.519a8.6079 8.6079 0 0 1-8.6079 8.6077h-5.8325l-7.2993 7.3083v-19.534a5.3842 5.3842 0 0 1 5.3843-5.3842h7.7475a8.6078 8.6078 0 0 1 8.6079 8.6077z"/></g></svg>