<svg xmlns="http://www.w3.org/2000/svg" id="a" viewBox="0 0 72 72"><g id="b"><path d="m35.923 15.942a20.047 20.047 0 0 0-17.091 30.573l-1.9236 8.5325 8.4409-1.9844a20.069 20.069 0 1 0 10.574-37.121z"/><path fill="none" stroke="#000" stroke-dasharray="6.116 4.587" stroke-linecap="round" stroke-linejoin="round" stroke-width="2" d="m60.038 36.105a24.006 24.006 0 0 0-27.67-23.867c-16.614 2.367-25.717 21.866-16.926 36.041l-2.296 10.183a0.4561 0.4561 0 0 0 0.5493 0.5444l10.142-2.3844c15.508 9.44 36.24-2.149 36.201-20.517z"/></g><g id="c"><path fill="#61b2e4" d="m35.923 15.942a20.047 20.047 0 0 0-17.091 30.573l-1.9236 8.5325 8.4409-1.9844a20.069 20.069 0 1 0 10.574-37.121z"/><path fill="none" stroke="#61b2e4" stroke-dasharray="6.116 4.587" stroke-linecap="round" stroke-linejoin="round" stroke-width="2" d="m60.038 36.105a24.006 24.006 0 0 0-27.67-23.867c-16.614 2.367-25.717 21.866-16.926 36.041l-2.296 10.183a0.4561 0.4561 0 0 0 0.5493 0.5444l10.142-2.3844c15.508 9.44 36.24-2.149 36.201-20.517z"/></g></svg>