<?xml version="1.0" encoding="UTF-8"?>
<svg id="a" viewBox="0 0 72 72" xmlns="http://www.w3.org/2000/svg"><g id="b"><path d="m46.289 21.39c0-6.0159-4.6073-10.91-10.271-10.91s-10.271 4.8937-10.271 10.912c0.0018 0.3005 0.1445 7.4974 8.3708 20.179 0.53 0.8288 1.1424 1.2493 1.8196 1.2493 1.1879 0 1.9983-1.3088 2.0771-1.442 8.2789-12.689 8.2789-19.703 8.2745-19.989zm-10.271 4.3941c-2.5222 0-4.5742-2.052-4.5742-4.5742s2.052-4.5742 4.5742-4.5742 4.5742 2.052 4.5742 4.5742-2.052 4.5742-4.5742 4.5742z" fill="#d22f27"/><path d="m46.289 21.39c0-6.0159-4.6073-10.91-10.271-10.91-0.8622 0-1.6952 0.1258-2.4958 0.3393 5.4217 0.2902 9.7514 5.0521 9.7514 10.882 0.0044 0.2865 0.0044 7.3003-8.2745 19.989-0.0296 0.0499-0.1621 0.2652-0.3788 0.5149 0.4037 0.406 0.8442 0.6157 1.3171 0.6157 1.1879 0 1.9983-1.3088 2.0771-1.442 8.2789-12.689 8.2789-19.703 8.2745-19.989z" fill="#ea5a47"/><path d="m11.34 60.654v-2.285c0-3.23 1.9102-5.45 5.1402-5.45 1.9123 1.6148 4.1757 2.4223 6.1092 2.4225 1.934 2e-4 4.1979-0.8073 6.1107-2.4225 3.23 0 5.1402 2.22 5.1402 5.45v2.285h-22.5z" fill="#92d3f5"/><path d="m38.142 60.654v-2.285c0-3.23 1.9102-5.45 5.1402-5.45 1.9123 1.6148 4.1757 2.4223 6.1092 2.4225 1.934 2e-4 4.1979-0.8073 6.1107-2.4225 3.23 0 5.1402 2.22 5.1402 5.45v2.285h-22.5z" fill="#92d3f5"/></g><g id="c" fill="#FCEA2B"><circle cx="22.59" cy="45.397" r="5"/><circle cx="49.392" cy="45.397" r="5"/></g><g id="d"><path d="m11.34 60.324v-1.955c0-3.23 1.9102-5.45 5.1402-5.45 1.9123 1.6148 4.1757 2.4223 6.1092 2.4225 1.934 2e-4 4.1979-0.8073 6.1107-2.4225 3.23 0 5.1402 2.22 5.1402 5.45v1.955" fill="none" stroke="#000" stroke-linecap="round" stroke-linejoin="round" stroke-width="2"/><path d="m38.142 60.324v-1.955c0-3.23 1.9102-5.45 5.1402-5.45 1.9123 1.6148 4.1757 2.4223 6.1092 2.4225 1.934 2e-4 4.1979-0.8073 6.1107-2.4225 3.23 0 5.1402 2.22 5.1402 5.45v1.955" fill="none" stroke="#000" stroke-linecap="round" stroke-linejoin="round" stroke-width="2"/><path d="m35.937 42.821c-0.6772 0-1.2896-0.4205-1.8196-1.2493-8.2263-12.682-8.3691-19.879-8.3708-20.179 0-6.0186 4.6072-10.912 10.271-10.912s10.271 4.8937 10.271 10.91c0.0044 0.2865 0.0044 7.3003-8.2744 19.989-0.0789 0.1333-0.8893 1.4421-2.0772 1.4421z" fill="none" stroke="#000" stroke-miterlimit="10" stroke-width="2"/><path d="m36.018 25.784c-2.5222 0-4.5742-2.052-4.5742-4.5742s2.052-4.5742 4.5742-4.5742 4.5742 2.052 4.5742 4.5742-2.052 4.5742-4.5742 4.5742z" fill="none" stroke="#000" stroke-miterlimit="10" stroke-width="2"/><circle cx="22.59" cy="45.397" r="5" fill="none" stroke="#000" stroke-linecap="round" stroke-linejoin="round" stroke-width="2"/><circle cx="49.392" cy="45.397" r="5" fill="none" stroke="#000" stroke-linecap="round" stroke-linejoin="round" stroke-width="2"/></g></svg>
