<svg xmlns="http://www.w3.org/2000/svg" id="a" viewBox="0 0 72 72"><g id="b"><path fill="#92d3f5" d="M44.0447,53.3653l-.0145-.0488a6.5744,6.5744,0,0,1-1.0932.1014A2.6071,2.6071,0,0,1,40.1247,50.86c0-1.54.82-2.2057,2.3243-2.8673l-.0408-.1372c-.6542-1.8872-2.2846-2.78-5.0452-2.78H31.9885a4.2285,4.2285,0,0,0-3.1144,1.34l-.0006.0028c.1175.06.2341.1173.3466.1663,1.5335.6681,2.3676,1.3319,2.3676,2.8874A2.6368,2.6368,0,0,1,28.7754,52.03a8.3916,8.3916,0,0,1-1.19-.1108L26.544,58.2671H45.0076Z"/></g><g id="c" fill="#fcea2b"><path d="m42.461 47.988c-1.5334 0.6681-2.336 1.3164-2.336 2.872a2.607 2.607 0 0 0 2.8122 2.5583c5.1552 0 11.443-6.4679 11.443-15.14 0-8.2189-5.3448-11.019-8.0955-11.019h-6.3406l-3.0148 0.5934a5.1928 5.1928 0 0 0-4.4872-2.6548h-7.0138c-2.7506 0-8.0955 2.8887-8.0955 11.692 0 8.6725 6.2877 15.14 11.443 15.14a2.6368 2.6368 0 0 0 2.8123-2.5583c-0.0361-1.24-0.3708-2.0844-2.7136-3.0566 0.1275-0.4386 1.4472-1.34 3.451-1.34 0 0 4.78-0.013 5.3781 0 4.3316 0.0953 4.7576 2.9129 4.7576 2.9129z"/><circle cx="29.516" cy="18.195" r="3.543"/><circle cx="42.738" cy="20.054" r="3.543"/></g><g id="d" fill="none" stroke="#000" stroke-linecap="round" stroke-linejoin="round" stroke-width="2"><path d="m44.045 53.365 0.9629 4.2419"/><path d="m27.507 52.356-0.9629 5.2516"/><path d="m44.045 53.365 0.9629 4.2419"/><path d="m27.507 52.356-0.9629 5.2516"/><path d="m42.408 47.855"/><path d="m31.988 45.075h5.3745c2.7606 0 4.3909 0.8926 5.0453 2.78"/><path d="m23.942 35.904v1.7a9.5391 9.5391 0 0 0 5.2783 8.98c1.5335 0.6681 2.3676 1.3319 2.3676 2.8875a2.6368 2.6368 0 0 1-2.8123 2.5588c-5.1552 0-11.443-6.4679-11.443-15.14 0-8.8036 5.3449-11.692 8.0955-11.692h7.0138a5.1725 5.1725 0 0 1 5.1472 4.9914v1.423"/><path d="m47.771 38.302v0.69a9.539 9.539 0 0 1-5.2784 8.98c-1.5335 0.6681-2.3675 1.3319-2.3675 2.8875a2.607 2.607 0 0 0 2.8122 2.5583c5.1552 0 11.443-6.4679 11.443-15.14 0-8.2189-5.3448-11.019-8.0955-11.019h-6.0044"/><circle cx="29.516" cy="18.195" r="3.543"/><circle cx="35.254" cy="38.648" r="3.543"/><circle cx="42.738" cy="20.054" r="3.543"/></g></svg>