<svg xmlns="http://www.w3.org/2000/svg" id="a" viewBox="0 0 72 72"><g id="b"><path fill="#d0cfce" d="m42.598 36.648a12.276 12.276 0 1 0 12.116 12.433 12.29 12.29 0 0 0-12.116-12.433z"/><path fill="#9b9b9a" d="m42.511 43.399a5.524 5.524 0 1 0 5.4523 5.5949 5.53 5.53 0 0 0-5.4523-5.5949z"/></g><g id="c" fill="#fcea2b"><path d="M26.6756,23.9431c-.2778-2.1086-1.37-3.4866-3.34-3.4866-1.7539,0-3.4779.7993-4.29,4.0489,0,0-2.371,7.6178-2.371,10.303a10.0957,10.0957,0,0,0,.7729,3.6431l6.2751,20.884a2.3655,2.3655,0,0,0,2.1436,1.84,1.6845,1.6845,0,0,0,1.564-1.84L24.2467,36.06"/><path d="M38.4343,33.2632l1.1111-2.2471a.6416.6416,0,0,1,.4867-.2939c.1663,0,.2758.156.2758.35v2.44H42.21a14.0264,14.0264,0,0,1,7.42,2.0534l-.5966-4.24-.5965-3.9082a2.9546,2.9546,0,0,0-2.451-2.65l-4.2117-.53c-1.6558-.1986-2.7483.05-3.2461.9936l-2.3687,4.3941a6.7337,6.7337,0,0,0-1.0212,4.1635v6.6548c0,1.5175.7256,2.1706,1.6838,2.1706.9948,0,1.6126-.9345,1.6126-2.2679Z"/><circle cx="26.925" cy="13.975" r="3.543"/><circle cx="44.569" cy="17.605" r="3.543"/><path d="M17.611,48.0983,16.38,51.614s-3.5708,6.712-4.1492,7.6321a2.3544,2.3544,0,0,1-3.1868.9627c-.8862-.5878-.7548-2.1351.0291-3.5466.5059-.9109,4.0946-9.1931,4.0946-9.1931L15.35,39.934"/><path d="m57.773 46.55 1 8.9712c0.2431 1.625 1.0247 2.3289 2.1657 2.3289 1.2029 0 2.0025-1.1774 2.0025-2.9466 0 0-0.5521-10.182-0.7413-12.623s-2.3342-3.9331-5.7133-3.9331"/></g><g id="d" fill="none" stroke="#000" stroke-linecap="round" stroke-linejoin="round" stroke-width="2"><path d="M26.6756,23.9431c-.2778-2.1086-1.4292-3.4866-3.34-3.4866-1.7539,0-3.4779.7993-4.29,4.0489,0,0-2.371,7.6178-2.371,10.303a10.0957,10.0957,0,0,0,.7729,3.6431l6.2751,20.884a2.3655,2.3655,0,0,0,2.1436,1.84,1.6845,1.6845,0,0,0,1.564-1.84L24.2467,36.06"/><path d="m35.185 32.628h-6.7435a2.5277 2.5277 0 0 1-2.6036-1.748l-2.8058-6.5133"/><path d="M17.611,47.7947,16.38,51.614s-3.5708,6.712-4.1492,7.6321a2.3544,2.3544,0,0,1-3.1868.9627c-.8862-.5878-.7548-2.1351.0291-3.5466.5059-.9109,4.0946-9.1931,4.0946-9.1931l1.8789-7.2315"/><path d="m57.773 46.55 1 8.9712c0.2431 1.625 1.0247 2.3289 2.1657 2.3289 1.2029 0 2.0025-1.1774 2.0025-2.9466 0 0-0.5521-10.182-0.7413-12.623s-2.3342-3.9331-5.7133-3.9331"/><path d="m32.915 41.186a12.242 12.242 0 1 0 7.4671-4.3666"/><path d="m36.916 48.851a5.5241 5.5241 0 1 0 5.5949-5.4522"/><path d="M35.1379,35.61v4.8335c0,1.5175.7256,2.1706,1.6838,2.1706.9948,0,1.6126-.9345,1.6126-2.2679V39.678"/><path d="M40.6115,33.5122H42.21a14.0264,14.0264,0,0,1,7.42,2.0534l-.5966-4.24-.5965-3.9082a2.9546,2.9546,0,0,0-2.451-2.65l-4.2117-.53c-1.6558-.1986-2.778.05-3.2461.9936L36.0933,29.729"/><circle cx="26.925" cy="13.975" r="3.543"/><circle cx="44.569" cy="17.605" r="3.543"/></g></svg>