<?xml version="1.0" encoding="UTF-8"?>
<svg id="a" viewBox="0 0 72 72" xmlns="http://www.w3.org/2000/svg"><g id="b" fill="#fcea2b"><path d="m27.265 44.925-5.2875 4.873a14.216 14.216 0 0 1-3.3 2.1l-6.85 2.84a2.2083 2.2083 0 0 1-2.708-1.051 2.3635 2.3635 0 0 1 1.2781-2.8089l7.4659-4.1523 4.4669-6.7372z"/><path d="M38.2887,22.9679a3.9225,3.9225,0,0,0-2.4-3.8c-1.6-.6-4-.4-6,3.6l-5.1,9.2a8.61,8.61,0,0,0-1,3.8h0a5.0677,5.0677,0,0,0,1.5,3.3l8.77,8.3a6.4776,6.4776,0,0,1,1.7,3.4l1.3,10.34c.2,1.1.8036,2,2,2a1.831,1.831,0,0,0,1.7-2l-.2-13.34a9.2539,9.2539,0,0,0-1-3.7l-4.57-7.27a6.9632,6.9632,0,0,1-.8829-4.0428Z"/><path d="M52.4384,36.7979l4.57,7.6a9.2539,9.2539,0,0,1,1,3.7l.2,13.01a1.831,1.831,0,0,1-1.7,2c-1.1535,0-1.8-.9-2-2l-1.3-10.01a6.4776,6.4776,0,0,0-1.7-3.4L43.9991,40.591c-1.4087-1.3672-2.4043-3.342-1.7459-7.0311l2.5078-5.7907c1.3838-2.488,2.9193-5.256,3.4268-6.1983a4.1928,4.1928,0,0,1,4.0986-2.663c2.9,0,4.4127,3.6152,4.4127,8.5632,0,2.6268-.9661,3.4846-2.2935,3.4846a3.7464,3.7464,0,0,1-1.7977-.6345Z"/><circle cx="40.429" cy="14.633" r="3.5434"/><circle cx="58.208" cy="14.633" r="3.5434"/></g><g id="c" fill="#f1b31c"><path d="m33.479 55.438-4.4033 1.9405a2.2448 2.2448 0 0 1-2.96-1.03 2.407 2.407 0 0 1 1.134-2.8112l5.3683-3.1564z"/><path d="m39.559 43.738 1.1313-2.862 4.7949 4.95-4.8765 4.95a14.71 14.71 0 0 0-1.0497-7.038z"/></g><g id="d" fill="none" stroke="#000" stroke-linecap="round" stroke-linejoin="round" stroke-width="2"><path d="m29.247 43.098-7.27 6.7a14.216 14.216 0 0 1-3.3 2.1l-6.85 2.84a2.2083 2.2083 0 0 1-2.708-1.051 2.3635 2.3635 0 0 1 1.2781-2.8089l7.4659-4.1523 4.2008-6.3357"/><path d="M38.2887,22.9679a3.9225,3.9225,0,0,0-2.4-3.8c-1.6-.6-4-.4-6,3.6l-5.1,9.2a8.61,8.61,0,0,0-1,3.8h0a5.0677,5.0677,0,0,0,1.5,3.3l8.77,8.3a6.4776,6.4776,0,0,1,1.7,3.4l1.3,10.34c.2,1.1.8036,2,2,2a1.831,1.831,0,0,0,1.7-2l-.2-13.34a9.2539,9.2539,0,0,0-1-3.7l-4.57-7.27a6.9632,6.9632,0,0,1-.8829-4.0428"/><path d="m45.229 31.088-5.02-0.99a4.763 4.763 0 0 1-3.25-2.0683l-2.63-4.9317"/><path d="M51.7888,23.0682,49.73,29.6154c-.5378,1.786.4268,3.4645,2.5609,4.2469,0,0,3.6555,1.2354,4.5027,1.5134,1.2347.4052,2.65,2.963,2.65,2.963"/><path d="M44.761,27.7692c1.3838-2.488,2.9193-5.256,3.4268-6.1983a4.1928,4.1928,0,0,1,4.0986-2.663c2.9,0,4.4127,3.6152,4.4127,8.5632,0,2.6268-.9693,3.4846-2.26,3.4846a3.66,3.66,0,0,1-1.8309-.6317"/><path d="m52.438 36.798 4.57 7.6a9.2539 9.2539 0 0 1 1 3.7l0.2 13.01a1.831 1.831 0 0 1-1.7 2c-1.1535 0-1.8-0.9-2-2l-1.3-10.01a6.4776 6.4776 0 0 0-1.7-3.4l-7.5093-7.1069c-1.4087-1.3672-2.4043-3.342-1.7459-7.0311"/><path d="m47.437 43.845-6.8284 6.9316"/><path d="m40.69 40.876-1.1317 2.862"/><path d="m33.479 55.438-4.4033 1.9405a2.2448 2.2448 0 0 1-2.96-1.03 2.407 2.407 0 0 1 1.134-2.8112l5.3683-3.1564"/><path d="m36.885 14.633a3.5434 3.5434 0 1 1 3.5434 3.5434"/><path d="m54.665 14.633a3.5434 3.5434 0 1 1 3.5434 3.5434"/></g></svg>
