<?xml version="1.0" encoding="UTF-8"?>
<svg id="a" viewBox="0 0 72 72" xmlns="http://www.w3.org/2000/svg"><g id="b"><polygon points="53.118 45.107 41.915 45.107 41.915 50.728 30.481 50.728 30.481 56.349 19.242 56.349 19.242 61.853 53.118 61.853" fill="#9b9b9a"/></g><g id="c" fill="#fcea2b"><path d="M28.5423,33.5552l5.5574.96a2.3433,2.3433,0,0,1,1.8726,1.8726l1.87,8.96a1.7244,1.7244,0,0,1-1.0307,2.2671,2.0818,2.0818,0,0,1-2.27-1.502l-2.3905-7.82-5.1687-.5111c-4.4727-.402-6.063-1.6708-5.1868-6.1563.1544-.7906,2.5621-11.0379,2.5621-11.0379a13.8467,13.8467,0,0,1,3.629-.9979c1.4705,0,3.1637,1.1238,2.7171,3.7685-.1726,1.0225-1.1756,6.4169-1.1756,6.4169Z"/><path d="M27.0565,40.9394l-.5483,3.7867a8.6041,8.6041,0,0,1-1.1925,3.066L22.6339,53.48a2.03,2.03,0,0,1-2.4363.8335c-.7188-.3625-.8282-1.4934-.3865-2.417l2.6143-6.9494.5052-4.4275Z"/><circle cx="31.665" cy="13.406" r="3.4017"/></g><g id="d" fill="none" stroke="#000" stroke-linecap="round" stroke-linejoin="round" stroke-width="2"><line x1="38.678" x2="34.027" y1="29.079" y2="28.068"/><path d="M27.7411,38.49l-1.2329,6.2363a8.6041,8.6041,0,0,1-1.1925,3.066L22.6339,53.48a2.03,2.03,0,0,1-2.4363.8335c-.7188-.3625-.8282-1.4934-.3865-2.417l2.6143-6.9494.5052-4.0976"/><path d="M28.5423,33.5552l5.5574.96a2.3433,2.3433,0,0,1,1.8726,1.8726l1.87,8.96a1.7244,1.7244,0,0,1-1.0307,2.2671,2.0818,2.0818,0,0,1-2.27-1.502l-2.3905-7.82-5.1687-.5111c-4.4727-.402-6.063-1.6708-5.1868-6.1563.1544-.7906,2.5621-11.0379,2.5621-11.0379a13.8467,13.8467,0,0,1,3.629-.9979c1.4705,0,3.1637,1.1238,2.7171,3.7685-.1726,1.0225-1.1756,6.4169-1.1756,6.4169"/><polyline points="52.788 45.107 41.915 45.107 41.915 50.728 30.481 50.728 30.481 56.349 19.242 56.349 19.242 61.193"/><path d="m16.796 31.303s1.4482-6.0251 1.8065-7.3793a2.3092 2.3092 0 0 1 1.4275-1.6664l4.3275-1.6693"/><path d="m28.264 13.406a3.4017 3.4017 0 1 1 3.4017 3.4016"/></g></svg>
