<?xml version="1.0" encoding="UTF-8"?>
<svg id="a" viewBox="0 0 72 72" xmlns="http://www.w3.org/2000/svg"><g id="b"><path d="m15.894 42.945a32.082 32.082 0 0 1 3.9757-14.837c0.4651 7.3054 3.5814 9.257 5.292 9.257 1.2777 0 2.4529-0.9722 2.4529-3.0959 0.0884-2.7422 0.5065-6.7773 4.1743-13.565a2.0964 2.0964 0 0 0 1.0269 0.2866c1.4368 0 3.75-1.5546 1.8514-13.201 0 0 14.109 9.5092 13.578 25.254a1.9323 1.9323 0 0 0 2.08 2.0345 5.2583 5.2583 0 0 0 4.0427-2.3665 19.21 19.21 0 0 1 2.1 9.3875c0 12.055-7.4818 21.487-20.256 21.487-11.378 0-20.318-10.169-20.318-20.641z" fill="#fcea2b"/><path d="M37.4725,26.2478c-.3833,1.4743-1.661,3.9314-5.3663,8.1576-.1278.0983-.1278.1966-.2556.2949-.3833.688-2.0653,1.951-2.0653,4.7383a5.0912,5.0912,0,0,0,.66,2.24,4.8506,4.8506,0,0,1-3.0417,1.493,3.0417,3.0417,0,0,1-2.4293-2.1509,5.5523,5.5523,0,0,0-1.7014,4.0009c0,4.3877,2.0616,8.9425,7.939,12.4808,0,0,1.661,1.0811,1.7888,1.9657,0,0,0,.0983.1277.0983H39.9c.2556,0,.2556,0,.2556-.0983,0-.1966.5111-1.2777,4.0886-3.7348a14.1051,14.1051,0,0,0,4.7275-5.2091.862.862,0,0,0-.7666-1.1794,2.0154,2.0154,0,0,1-1.2777-1.18h0s-.2555-.7862.7666-2.5554a4.13,4.13,0,0,0,.5111-2.3588,1.2064,1.2064,0,0,0-1.661-.688,2.4727,2.4727,0,0,1-3.322-1.0811s-.8944-1.5726-.1278-5.4057c.5111-2.9485-1.2777-7.7644-3.5776-10.2215C38.878,25.2649,37.6,25.4615,37.4725,26.2478Z" fill="#f1b31c"/><path d="m46.443 60.255v-15.341l-10.853-7.2787-10.63 7.2787v15.341a18.886 18.886 0 0 0 21.483 0z" fill="#3f3f3f"/><rect x="31.479" y="50.664" width="8.4464" height="12.561" fill="#f1b31c"/></g><g id="c" fill="none" stroke="#000" stroke-linecap="round" stroke-linejoin="round" stroke-width="2"><path d="m23.23 58.699a17.301 17.301 0 0 0 12.384 4.8651c4.5112 0 9.7947-1.4392 12.891-4.5352"/><path d="m34.729 7.7674s14.109 9.5092 13.578 25.254c0 1.15 0.5178 2.0344 1.7673 2.0344a5.2949 5.2949 0 0 0 4.2929-2.3442 22.008 22.008 0 0 1 2.2925 9.8274 19.31 19.31 0 0 1-4.1736 12.504"/><line x1="46.443" x2="46.443" y1="59.925" y2="48.379"/><line x1="24.96" x2="24.96" y1="48.379" y2="59.925"/><polyline points="21.706 43.501 35.59 33.841 49.697 43.501"/><polyline points="31.479 62.565 31.479 50.664 39.595 50.664"/><path d="m19.819 54.7a20.078 20.078 0 0 1-3.9255-11.831 33.584 33.584 0 0 1 3.8992-15.091c0.4652 7.3054 3.5815 9.257 5.292 9.257 1.2778 0 2.4529-1.3022 2.4529-3.4259 0.0885-2.7422 0.5066-6.1174 4.1743-12.905"/></g></svg>
