<svg xmlns="http://www.w3.org/2000/svg" id="a" viewBox="0 0 72 72"><g id="b"><path fill="#fcea2b" d="m15.488 42.869a33.582 33.582 0 0 1 3.8993-15.091c0.4651 7.3054 3.9113 10.247 5.6219 10.247 1.2778 0 2.4529-1.3022 2.4529-3.4259 0.0885-2.7421 0.5065-7.4372 4.1743-14.225a2.0964 2.0964 0 0 0 1.0269 0.2866c1.4368 0 3.75-1.5545 1.8514-13.201 0 0 14.109 9.5092 13.578 25.254a1.9324 1.9324 0 0 0 2.08 2.0345 5.14 5.14 0 0 0 3.9807-2.6742 20.721 20.721 0 0 1 2.1614 9.6956c0 12.055-7.4818 21.487-20.256 21.487-11.377 0-20.571-9.5848-20.571-20.058"/><path fill="#f1b31c" d="M37.2545,26.9077c-.3833,1.4743-1.661,3.9314-5.3664,8.1576-.1277.0983-.1277.1966-.2555.2949-.3833.688-2.0654,1.951-2.0654,4.7383a5.0912,5.0912,0,0,0,.66,2.24,4.85,4.85,0,0,1-3.0416,1.493c-.7461,0-2.3087-.7109-2.4294-1.8209a4.7314,4.7314,0,0,0-1.7013,3.6709c0,4.3877,2.0615,8.9425,7.939,12.4808,0,0,1.661,1.0811,1.7887,1.9657,0,0,0,.0983.1278.0983h6.7718c.2556,0,.2556,0,.2556-.0983,0-.1966.511-1.2777,4.0886-3.7348a14.106,14.106,0,0,0,4.7275-5.2091.8621.8621,0,0,0-.7666-1.1794A2.0155,2.0155,0,0,1,46.71,48.8252h0s-.2556-.7863.7666-2.5554a4.7181,4.7181,0,0,0,.841-2.3589,1.2064,1.2064,0,0,0-1.661-.688,2.8632,2.8632,0,0,1-3.652-1.0811s-.8943-1.5725-.1277-5.4056c.5111-2.9486-1.2777-7.7645-3.5776-10.2216C38.66,25.9248,37.3823,26.1214,37.2545,26.9077Z"/><polyline fill="#3f3f3f" points="39.302 55.881 47.057 56.419 41.501 47.603 45.013 47.757 40.217 40.501 43.237 40.332 36.397 30.97 29.826 40.547 32.907 40.171 27.566 47.757 31.293 47.603 25.737 56.419 32.67 55.605"/></g><g id="c" fill="none" stroke="#000" stroke-linecap="round" stroke-width="2"><polyline stroke-linejoin="round" points="39.632 55.881 47.057 56.419 41.501 47.603 45.013 47.757 40.217 40.501 43.237 40.332 36.397 30.97 29.826 40.547 32.907 40.171 27.566 47.757 31.293 47.603 25.737 56.419 32.34 55.605"/><line x1="36.397" x2="36.397" y1="57.226" y2="63.22" stroke-miterlimit="10"/><path stroke-linejoin="round" d="m20.349 55.888a20.195 20.195 0 0 1-4.86-13.019 33.582 33.582 0 0 1 3.8988-15.091c0.4651 7.3054 3.9113 10.247 5.6219 10.247 1.2778 0 2.4529-1.3022 2.4529-3.4259 0.0885-2.7421 0.1766-7.1072 3.8443-13.895"/><path stroke-linejoin="round" d="m46.871 60.436a20.638 20.638 0 0 1-10.812 2.82 20.288 20.288 0 0 1-10.324-2.8253"/><path stroke-linejoin="round" d="m34.845 7.46s13.779 9.5092 13.248 25.254a1.9324 1.9324 0 0 0 2.08 2.0345 5.14 5.14 0 0 0 3.9807-2.6742 20.721 20.721 0 0 1 2.1614 9.6953 23.467 23.467 0 0 1-3.7862 13.28"/></g></svg>