<svg xmlns="http://www.w3.org/2000/svg" id="a" viewBox="0 0 72 72"><g id="b"><path fill="#fcea2b" d="m8.9652 37.094a30.58 30.58 0 0 1 3.5507-13.742c0.4235 6.6522 3.5616 9.3307 5.1193 9.3307 1.1635 0 2.2336-1.1858 2.2336-3.12 0.0805-2.497 0.4612-6.7723 3.801-12.953a1.91 1.91 0 0 0 0.9352 0.2609c1.3083 0 3.415-1.4155 1.6858-12.021 0 0 12.848 8.659 12.364 22.996a1.76 1.76 0 0 0 1.8936 1.8529 4.68 4.68 0 0 0 3.6248-2.4351 18.867 18.867 0 0 1 1.9686 8.8283c0 10.977-6.8129 19.566-18.445 19.566-10.36 0-18.732-8.7279-18.732-18.264"/><path fill="#f1b31c" d="M27.8362,23.4708c-.349,1.3425-1.5125,3.58-4.8866,7.4283-.1163.09-.1163.179-.2326.2685-.3491.6264-1.8808,1.7765-1.8808,4.3147a4.6362,4.6362,0,0,0,.6009,2.04,4.4166,4.4166,0,0,1-2.77,1.3595c-.6793,0-2.1022-.6474-2.2121-1.6581A4.3083,4.3083,0,0,0,14.906,40.566c0,3.9954,1.8773,8.143,7.2292,11.3649,0,0,1.5125.9845,1.6289,1.79,0,0,0,.09.1163.09h6.1664c.2327,0,.2327,0,.2327-.09,0-.179.4654-1.1635,3.7231-3.4009a12.8449,12.8449,0,0,0,4.3048-4.7434.785.785,0,0,0-.6981-1.0739,1.8353,1.8353,0,0,1-1.1635-1.074h0s-.2327-.716.6981-2.3269a4.2965,4.2965,0,0,0,.7659-2.148,1.0986,1.0986,0,0,0-1.5125-.6265,2.6073,2.6073,0,0,1-3.3255-.9844s-.8144-1.432-.1163-4.9224c.4653-2.6849-1.1635-7.07-3.2577-9.3077C29.116,22.5758,27.9525,22.7548,27.8362,23.4708Z"/><path fill="#3f3f3f" d="m40.767 48.029-4.26 5.78-6.1969 5.15 2.5223 1.9991 4.48-3.6187a7.5476 7.5476 0 0 0 2.4817-1.7235l4.2117-4.578z"/><path fill="#3f3f3f" d="M46.4845,44.3209v1.814l3.66,4.3682a4.3457,4.3457,0,0,1,.6671,2.3876l.3967,8.66c.0482,1.811-.9915,2.4007-1.7973,2.4007-.7887,0-1.44-.5994-1.7039-2.1969L46.9587,53.65l-6.0179-5.4492a2.9548,2.9548,0,0,1-.9225-2.1743,3.9655,3.9655,0,0,1,.615-2.1923l2.907-5.2487c1.0422-1.9472,2.0339-2.6234,3.4056-2.6234a3.1026,3.1026,0,0,1,2.65,2.667Z"/><circle cx="51.875" cy="33.152" r="3.135" fill="#3f3f3f"/><path fill="#f1b31c" d="M41.5141,48.551l-.7938-.7375-4.0572,5.9684-6.8014,4.7926.5568.4708L37.5532,54.33Z"/><path fill="#f1b31c" d="M41.9408,48.2006a2.9548,2.9548,0,0,1-.9225-2.1743,3.9655,3.9655,0,0,1,.615-2.1923l2.907-5.2487c1.0422-1.9472,2.0339-2.6234,3.4056-2.6234a2.1317,2.1317,0,0,1,1.0615.3218Z"/><path fill="#f1b31c" d="M49.5765,64.4027c-.7887,0-1.6052-1.0508-1.8691-2.6483L46.9587,53.65l-.599-.5424,2.2168.2953Z"/><path fill="#f1b31c" d="m49.592 35.301a3.135 3.135 0 0 1 4.2475-4.5922 9.217 9.217 0 0 0-4.2475 4.5922z"/></g><g id="c" fill="none" stroke="#000" stroke-linecap="round" stroke-linejoin="round"><polyline stroke-width="2" points="55.667 43.758 50.264 43.758 46.453 39.512"/><path stroke-width="2" d="M46.55,35.9786s-5.3819.91-6.5319,1.7338c-1.4689,1.0521-4.1343,6.2446-4.1343,6.2446"/><path stroke-width="2" d="m38.149 50.224-2.6422 3.5848-2.0713 1.3438"/><path stroke-width="2" d="M46.4845,43.9909v2.144l3.66,4.3682a4.3457,4.3457,0,0,1,.6671,2.3876l.3967,8.66c.0482,1.811-.9915,2.4007-1.7973,2.4007-.7887,0-1.44-.5994-1.7039-2.1969L46.9587,53.65l-6.0179-5.4492a2.9548,2.9548,0,0,1-.9225-2.1743,3.9655,3.9655,0,0,1,.615-2.1923l2.907-5.2487c1.0422-1.9472,2.0339-2.6234,3.4056-2.6234a2.4538,2.4538,0,0,1,2.32,2.337"/><path stroke-width="1.821" d="m26.543 55.543a18.805 18.805 0 0 1-16.668-18.449 30.58 30.58 0 0 1 3.5507-13.742c0.4235 6.6522 3.5616 9.3307 5.1193 9.3307 1.1635 0 2.2336-1.1858 2.2336-3.12 0.0805-2.497 0.4612-6.7723 3.801-12.953"/><path stroke-width="1.821" d="m26.291 4.851s12.848 8.659 12.364 22.996a1.76 1.76 0 0 0 1.8936 1.8525 4.68 4.68 0 0 0 3.6248-2.4351 13.842 13.842 0 0 1 1.28 3.3774"/><path stroke-width="2" d="m42.375 52.447-2.6421 3.5847-6.7443 4.3753"/><path stroke-width="2" d="m48.74 33.152a3.135 3.135 0 1 1 3.135 3.135"/></g></svg>