<?xml version="1.0" encoding="UTF-8"?>
<svg id="a" viewBox="0 0 72 72" xmlns="http://www.w3.org/2000/svg"><g id="b"><path d="m32.674 13.965a3.892 3.892 0 0 1 6.7063 0l20.449 40.142a4.4616 4.4616 0 0 1 0.5748 1.9161 3.8914 3.8914 0 0 1-3.8322 3.8877h-40.994a3.8091 3.8091 0 0 1-3.8322-3.7919 3.4544 3.4544 0 0 1 0.5748-1.9161l20.353-40.238" fill="#fcea2b"/><g fill="#9b9b9a"><path d="M54.6522,43.7775l.19.38"/><path d="M54.8426,44.1574l4.9868,9.95a4.4616,4.4616,0,0,1,.5748,1.9161,3.8914,3.8914,0,0,1-3.8322,3.8877H15.5783a3.8091,3.8091,0,0,1-3.8322-3.7919,3.4544,3.4544,0,0,1,.5748-1.9161l12.1164-23.954a27.3029,27.3029,0,0,1,5.8238-1.0549c6.27,0,11.27,3.4679,11.27,9.0242a7.2344,7.2344,0,0,1-.2708,1.8079c-1.1433,4.3752-5.8742,6.3523-7.8749,4.3843a5.4847,5.4847,0,0,0,.3443-1.6817,1.6184,1.6184,0,0,0-1.8053-1.8579c-2.0769,0-3.0454,1.8026-3.0454,3.4662,0,2.2466.9875,5.0339,5.9373,5.0339s12.75-5.8,17.72-5.7925a11.3766,11.3766,0,0,1,2.18.3765"/></g><path d="m60.404 56.023a4.4624 4.4624 0 0 0-0.5748-1.9162l-1.5471-3.087a6.37 6.37 0 0 0-3.8667-1.2417c-8.2095 0-19.891 8.2493-41.91 8.6036a3.9188 3.9188 0 0 0 2.9621 1.5288h41.104a3.8915 3.8915 0 0 0 3.8322-3.8875z" fill="#3f3f3f"/><path d="m31.393 48.734a6.6773 6.6773 0 0 1-5.61-6.9977c0-3.6964 2.2172-5.881 5.3391-5.881 2.74 0 4.6551 2.0121 4.6551 3.96a3.79 3.79 0 0 1-2.0946 3.4525 3.8849 3.8849 0 0 0 0.0267-0.5317 1.6184 1.6184 0 0 0-1.8053-1.8579c-2.0769 0-3.0454 1.8026-3.0454 3.4663a4.584 4.584 0 0 0 2.5344 4.3895z" fill="#3f3f3f"/></g><g id="c" fill="none" stroke="#000" stroke-linecap="round" stroke-linejoin="round" stroke-width="2"><path d="m54.717 43.955 5.1127 10.152a4.4616 4.4616 0 0 1 0.5748 1.9161 3.8914 3.8914 0 0 1-3.8322 3.8877h-40.994a3.8091 3.8091 0 0 1-3.8322-3.7919 3.4544 3.4544 0 0 1 0.5748-1.9161l12.116-23.954a27.572 27.572 0 0 1 5.8238-1.0549c6.27 0 11.27 3.4679 11.27 9.0242a7.2344 7.2344 0 0 1-0.2708 1.8079c-1.1433 4.3752-5.8742 6.3523-7.8749 4.3843a5.4847 5.4847 0 0 0 0.3443-1.6817 1.6184 1.6184 0 0 0-1.8053-1.8579c-2.0769 0-3.0454 1.8026-3.0454 3.4662 0 2.2466 0.9875 5.0339 5.9373 5.0339s12.75-5.8 17.72-5.7925a9.32 9.32 0 0 1 2.1804 0.3765z"/><path d="m32.674 13.965a3.892 3.892 0 0 1 6.7063 0l20.449 40.142a4.4616 4.4616 0 0 1 0.5748 1.9161 3.8914 3.8914 0 0 1-3.8322 3.8877h-40.994a3.8091 3.8091 0 0 1-3.8322-3.7919 3.4544 3.4544 0 0 1 0.5748-1.9161l20.353-40.238"/></g></svg>
