<svg xmlns="http://www.w3.org/2000/svg" id="a" viewBox="0 0 72 72"><g id="b"><ellipse cx="27.503" cy="53.486" fill="#a57939" rx="11.656" ry="7.87"/><path fill="#d0cfce" d="M30.6547,23.9855a14.0625,14.0625,0,0,1,7.21-1.89c4.7236,0,8.7752,6.4968,14.9073,6.4968.9039,0,1.3564-.4069,2.2686-.4069.7566,0,1.0586.5411,1.0586,1.496v1.6279c0,.7455-.8143,1.5923-3.2048,1.5923-7.1861,0-11.2378-4.0647-15.4069-4.0647a12.2077,12.2077,0,0,0-6.9151,2.3078v-4.438Z"/></g><g id="c" fill="none" stroke="#000" stroke-linecap="round" stroke-width="2"><path stroke-miterlimit="10" d="m32.177 46.274c4.1108 1.2157 6.9831 3.9874 6.9831 7.2116 0 4.3462-5.2186 7.87-11.656 7.87s-11.656-3.5234-11.656-7.87c0-3.1536 2.7474-5.8739 6.7144-7.1295"/><path stroke-linejoin="round" d="M30.6547,12.48a13.9517,13.9517,0,0,1,7.21-2.2332c4.7236,0,8.7752,4.1079,14.9073,4.1079.9039,0,1.3564-.4069,2.2686-.4069.7566,0,1.0586.5411,1.0586,1.496V31.3092c0,.7455-.8143,1.5923-3.2048,1.5923-7.1861,0-11.2378-4.0647-15.4069-4.0647a12.2077,12.2077,0,0,0-6.9151,2.3078v-4.438"/><line x1="27.182" x2="27.182" y1="10.421" y2="52.34" stroke-miterlimit="10"/></g></svg>