<svg xmlns="http://www.w3.org/2000/svg" id="a" viewBox="0 0 72 72"><g id="b"><rect width="45.606" height="20.653" x="13.046" y="40.78" fill="#92d3f5"/><rect width="12.273" height="15.42" x="18.355" y="46.012" fill="#a57939"/><rect width="6.467" height="12.562" x="35.927" y="44.87" fill="#fff"/><rect width="6.467" height="12.562" x="47.013" y="44.87" fill="#fff"/><path fill="#d0cfce" d="M27.9173,18.74A13.5224,13.5224,0,0,1,34.85,16.9228c4.5419,0,8.4377,6.247,14.3339,6.247.8691,0,1.3042-.3913,2.1813-.3913.7275,0,1.018.52,1.018,1.4385v1.5653c0,.7168-.783,1.531-3.0816,1.531-6.91,0-10.8056-3.9084-14.8143-3.9084a11.7385,11.7385,0,0,0-6.6492,2.219V21.3567Z"/><rect width="54.036" height="3.419" x="8.831" y="61.432" fill="#d0cfce"/></g><g id="c" fill="none" stroke="#000" stroke-linecap="round" stroke-width="2"><line x1="13.046" x2="13.046" y1="61.432" y2="45.399" stroke-linejoin="round"/><line x1="8.831" x2="62.867" y1="64.852" y2="64.852" stroke-linejoin="round"/><line x1="62.867" x2="8.831" y1="61.432" y2="61.432" stroke-linejoin="round"/><polyline stroke-linejoin="round" points="19.991 33.303 12.461 33.303 8.831 40.779 62.867 40.779 59.238 33.303 28.828 33.303"/><line x1="58.652" x2="58.652" y1="61.432" y2="45.399" stroke-linejoin="round"/><line x1="26.452" x2="26.452" y1="55.114" y2="52.33" stroke-linejoin="round"/><line x1="22.534" x2="22.534" y1="55.114" y2="52.33" stroke-linejoin="round"/><rect width="12.273" height="15.42" x="18.356" y="46.012" stroke-linejoin="round"/><path stroke-linejoin="round" d="M27.9173,9.34A13.4159,13.4159,0,0,1,34.85,7.1922c4.5419,0,8.4377,3.9373,14.3339,3.9373.8691,0,1.3042-.3912,2.1813-.3912.7275,0,1.018.52,1.018,1.4384V25.7823c0,.7168-.783,1.531-3.0816,1.531-6.91,0-10.8056-3.9084-14.8143-3.9084a11.7385,11.7385,0,0,0-6.6492,2.219V21.3567"/><line x1="24.579" x2="24.579" y1="7.347" y2="40.78" stroke-miterlimit="10"/><rect width="6.467" height="12.562" x="35.927" y="44.87" stroke-linejoin="round"/><rect width="6.467" height="12.562" x="47.013" y="44.87" stroke-linejoin="round"/></g></svg>