<svg xmlns="http://www.w3.org/2000/svg" id="a" viewBox="0 0 72 72"><g id="b"><rect width="7.947" height="55.182" x="31.071" y="10.482" fill="#6a462f"/><polygon fill="#a57939" points="31.071 18.66 31.071 10.481 39.018 10.481 39.018 16.558"/><polygon fill="#a57939" points="42.605 14.992 58.181 14.992 62.873 21.172 58.181 27.421 42.605 27.421"/><polygon fill="#6a462f" points="27.425 27.091 11.848 27.091 7.157 33.271 11.848 39.521 27.425 39.521"/><polygon fill="#6a462f" points="42.605 23.216 60.975 18.672 62.873 21.172 58.181 27.421 42.605 27.421"/><polygon fill="#a57939" points="7.157 33.271 27.425 27.091 11.848 27.091"/></g><g id="c" fill="none" stroke="#000" stroke-linecap="round" stroke-linejoin="round" stroke-width="2"><polyline points="18.23 27.091 11.848 27.091 7.157 33.271 11.848 39.521 27.425 39.521 27.425 33.982"/><polyline points="46.711 14.992 58.181 14.992 62.873 21.172 58.181 27.421 42.605 27.421 42.605 23.216"/><polyline points="31.071 65.663 31.071 10.481 39.018 10.481 39.018 65.663"/></g></svg>