<svg xmlns="http://www.w3.org/2000/svg" id="a" viewBox="0 0 72 72"><g id="b"><rect width="34.043" height="55.942" x="15.177" y="7.992" fill="#9b9b9a" rx="3.68" ry="3.68"/><path fill="#3f3f3f" d="M45.3881,55.0093H19.0087a.9748.9748,0,0,1-.9727-.9727V15.13a.9748.9748,0,0,1,.9727-.9727H45.3881a.9747.9747,0,0,1,.9727.9727V54.0366A.919.919,0,0,1,45.3881,55.0093Z"/><path fill="#fcea2b" d="M31.137,22.0732a3.6908,3.6908,0,0,0-3.68,3.68v14.996a.3105.3105,0,0,0,.46.276l4.6-4.048a.676.676,0,0,1,.552-.184H58.5534a3.6908,3.6908,0,0,0,3.68-3.68v-7.36a3.6908,3.6908,0,0,0-3.68-3.68Z"/></g><g id="c"><path fill="none" stroke="#000" stroke-linecap="round" stroke-linejoin="round" stroke-width="2" d="M46.3608,39.5475V54.0366a.919.919,0,0,1-.9727.9727H19.0087a.9748.9748,0,0,1-.9727-.9727V15.13a.9748.9748,0,0,1,.9727-.9727H45.3881a.9747.9747,0,0,1,.9727.9727v3.902"/><circle cx="32.198" cy="59.266" r="1.945"/><polygon fill="none" stroke="#000" stroke-linecap="round" stroke-linejoin="round" stroke-width="2" points="27.335 11.24 37.062 11.24 37.062 11.24"/><path fill="none" stroke="#000" stroke-linecap="round" stroke-linejoin="round" stroke-width="2" d="m49.22 39.548v20.707a3.6908 3.6908 0 0 1-3.68 3.68h-26.683a3.6908 3.6908 0 0 1-3.68-3.68v-48.582a3.6908 3.6908 0 0 1 3.68-3.68h26.683a3.6908 3.6908 0 0 1 3.68 3.68v7.36"/><path fill="none" stroke="#000" stroke-miterlimit="10" stroke-width="2" d="M31.137,22.0732a3.6908,3.6908,0,0,0-3.68,3.68v14.996a.3105.3105,0,0,0,.46.276l4.6-4.048a.676.676,0,0,1,.552-.184H58.5534a3.6908,3.6908,0,0,0,3.68-3.68v-7.36a3.6908,3.6908,0,0,0-3.68-3.68Z"/></g></svg>