<?xml version="1.0" encoding="UTF-8"?>
<svg id="a" viewBox="0 0 72 72" xmlns="http://www.w3.org/2000/svg"><g id="b"><rect x="15.177" y="7.9919" width="34.043" height="55.942" rx="3.68" ry="3.68" fill="#9b9b9a"/><path d="M45.3881,55.0093H19.0087a.9748.9748,0,0,1-.9727-.9727V15.13a.9748.9748,0,0,1,.9727-.9727H45.3881a.9747.9747,0,0,1,.9727.9727V54.0366A.919.919,0,0,1,45.3881,55.0093Z" fill="#3f3f3f"/><path d="M31.137,22.0732a3.6908,3.6908,0,0,0-3.68,3.68v14.996a.3105.3105,0,0,0,.46.276l4.6-4.048a.676.676,0,0,1,.552-.184H58.5534a3.6908,3.6908,0,0,0,3.68-3.68v-7.36a3.6908,3.6908,0,0,0-3.68-3.68Z" fill="#fcea2b"/></g><g id="c"><path d="M46.3608,39.5475V54.0366a.919.919,0,0,1-.9727.9727H19.0087a.9748.9748,0,0,1-.9727-.9727V15.13a.9748.9748,0,0,1,.9727-.9727H45.3881a.9747.9747,0,0,1,.9727.9727v3.902" fill="none" stroke="#000" stroke-linecap="round" stroke-linejoin="round" stroke-width="2"/><circle cx="32.198" cy="59.266" r="1.9453"/><polygon points="27.335 11.24 37.062 11.24 37.062 11.24" fill="none" stroke="#000" stroke-linecap="round" stroke-linejoin="round" stroke-width="2"/><path d="m49.22 39.548v20.707a3.6908 3.6908 0 0 1-3.68 3.68h-26.683a3.6908 3.6908 0 0 1-3.68-3.68v-48.582a3.6908 3.6908 0 0 1 3.68-3.68h26.683a3.6908 3.6908 0 0 1 3.68 3.68v7.36" fill="none" stroke="#000" stroke-linecap="round" stroke-linejoin="round" stroke-width="2"/><path d="M31.137,22.0732a3.6908,3.6908,0,0,0-3.68,3.68v14.996a.3105.3105,0,0,0,.46.276l4.6-4.048a.676.676,0,0,1,.552-.184H58.5534a3.6908,3.6908,0,0,0,3.68-3.68v-7.36a3.6908,3.6908,0,0,0-3.68-3.68Z" fill="none" stroke="#000" stroke-miterlimit="10" stroke-width="2"/></g></svg>
