<?xml version="1.0" encoding="UTF-8"?>
<svg id="a" viewBox="0 0 72 72" xmlns="http://www.w3.org/2000/svg"><g id="b"><path d="M53.6682,17.2111V12.5087a.617.617,0,0,0-.6531-.6531H18.2045a.617.617,0,0,0-.6531.6531V28.8364a.617.617,0,0,0,.6531.6531H53.0151a.617.617,0,0,0,.6531-.6531V24.4606h3.3309v-7.25Z" fill="#fff"/><path d="M43.2851,52.7306,47,52V45l-3.7149-1.1419Z" fill="#9b9b9a"/><path d="M24.9258,51.1876a.6074.6074,0,0,1-.6429.6429h-7.58a1.4788,1.4788,0,0,0,0,2.9575h7.58a.6074.6074,0,0,1,.6429.643" fill="#fcea2b"/><path d="M24.9258,40.5791a.6073.6073,0,0,1-.6429.6429h-7.58a1.4788,1.4788,0,0,0,0,2.9576h7.58a.6073.6073,0,0,1,.6429.6429" fill="#fcea2b"/><path d="m24.99 44.801a152.95 152.95 0 0 1 18.01 0.0643c-2-4.865-5-7.6935-11.323-7.6935h-6.6867z" fill="#9b9b9a"/><path d="M56.5721,45.594a.6074.6074,0,0,1-.6429.643H47.3643v3.9219h8.5649a.6073.6073,0,0,1,.6429.6429Z" fill="#d0cfce"/><path d="m21.767 25.927h4.931v-10.443h-4.931z" fill="#b1cc33"/></g><g id="c" fill="none" stroke="#000" stroke-linecap="round" stroke-width="2"><path d="m24.283 51.188h-7.58a2.1405 2.1405 0 0 0-2.1216 2.1217 2.1406 2.1406 0 0 0 2.1216 2.1217h7.58" stroke-miterlimit="10"/><path d="m24.283 40.579h-7.58a2.1405 2.1405 0 0 0-2.1216 2.1217 2.1405 2.1405 0 0 0 2.1216 2.1217h7.58" stroke-miterlimit="10"/><path d="m24.347 59.932h7.3938a11.702 11.702 0 0 0 0-23.403h-7.3938z" stroke-linejoin="round"/><polyline points="42.735 52.473 46.721 51.38 46.721 45.015 42.735 43.987" stroke-linejoin="round"/><polyline points="55.929 50.802 46.721 50.802 46.721 45.594 55.929 45.594" stroke-linejoin="round"/><path d="M53.6682,17.2111V12.5087a.617.617,0,0,0-.6531-.6531H18.2045a.617.617,0,0,0-.6531.6531V28.8364a.617.617,0,0,0,.6531.6531H53.0151a.617.617,0,0,0,.6531-.6531V24.4606h3.3309v-7.25Z" stroke-linejoin="round"/><rect x="21.441" y="15.157" width="5.5841" height="11.096" stroke-linejoin="round"/></g></svg>
