<?xml version="1.0" encoding="UTF-8"?>
<svg id="a" viewBox="0 0 72 72" xmlns="http://www.w3.org/2000/svg"><g id="b"><circle cx="23.575" cy="14.817" r="4.5579" fill="#9b9b9a"/><circle cx="31.9" cy="14.393" r="5.9228" fill="#3f3f3f"/><circle cx="36.505" cy="35.688" r="3.7241" fill="#9b9b9a"/><circle cx="51" cy="22.028" r="5.0643" fill="#9b9b9a"/><circle cx="40.101" cy="10.971" r="4.3911" fill="#9b9b9a"/><circle cx="40.571" cy="22.005" r="7.8212" fill="#3f3f3f"/><polygon points="7.948 64.288 21.46 44.389 31.209 37.155 37.472 38.628 42.788 37.155 47.916 43.567 56.263 49.391 62.819 64.288" fill="#9b9b9a"/><polygon points="7.948 64.288 21.46 44.389 25.377 41.481 27.031 45.012 25.417 51.296 27.31 64.288" fill="#d0cfce"/><polygon points="62.819 64.288 43.646 64.288 47.527 52.151 44.411 49.646 47.916 43.567 56.263 49.391" fill="#3f3f3f"/><circle cx="35.835" cy="28.594" r="5.6425" fill="#9b9b9a"/></g><g id="c" fill="none" stroke="#000" stroke-linecap="round" stroke-linejoin="round" stroke-width="2"><polyline points="8.406 63.629 21.46 44.389 31.209 37.155 37.472 38.628 42.788 37.155 47.916 43.567 56.263 49.391 62.619 63.779"/><polyline points="25.377 41.481 27.031 45.012 25.417 51.296 26.333 58.609"/><polyline points="47.916 43.567 44.411 49.646 47.527 52.151 45.854 57.324"/><path d="m32.952 23.751a5.6368 5.6368 0 0 0-0.2644 9.5271"/><path d="m44.492 10.971a4.3859 4.3859 0 0 0-8.6582-0.9971 5.9116 5.9116 0 0 0-9.1162 1.5535 4.5489 4.5489 0 0 0-7.7 3.2892"/><path d="m56.065 22.028a5.0642 5.0642 0 0 0-7.8906-4.2022"/><path d="m38.543 33.545a5.6492 5.6492 0 0 0 2.8056-3.7577 7.8122 7.8122 0 0 0 5.8059-3.5711"/><path d="m32.872 20.618a7.8234 7.8234 0 0 1 14.626-2.2467"/></g></svg>
