<svg xmlns="http://www.w3.org/2000/svg" id="a" viewBox="0 0 72 72"><g id="b"><polygon fill="#9b9b9a" points="7.785 63.268 21.297 43.369 31.046 36.135 37.309 37.608 42.625 36.135 47.753 42.546 56.1 48.371 62.656 63.268"/><circle cx="22.706" cy="18.608" r="5.064" fill="#3f3f3f"/><circle cx="40.738" cy="13.016" r="4.879" fill="#9b9b9a"/><circle cx="53.07" cy="25.946" r="4.879" fill="#9b9b9a"/><circle cx="32.039" cy="15.709" r="6.581" fill="#9b9b9a"/><circle cx="43.951" cy="21.655" r="7.821" fill="#9b9b9a"/><circle cx="36.245" cy="26.264" r="5.643" fill="#3f3f3f"/><polygon fill="#d0cfce" points="62.656 63.268 43.483 63.268 47.364 51.131 44.249 48.626 47.753 42.546 56.1 48.371"/></g><g id="c"><polyline fill="none" stroke="#000" stroke-linecap="round" stroke-miterlimit="10" stroke-width="2" points="8.244 62.609 21.297 43.369 31.046 36.135 37.309 37.608 42.625 36.135 47.753 42.546 56.1 48.371 62.456 62.759"/><polyline fill="none" stroke="#000" stroke-linecap="round" stroke-linejoin="round" stroke-width="2" points="25.214 40.46 26.868 43.992 25.254 50.276 26.17 57.589"/><polyline fill="none" stroke="#000" stroke-linecap="round" stroke-linejoin="round" stroke-width="2" points="47.753 42.546 44.249 48.626 47.364 51.131 45.786 56.065"/><path fill="none" stroke="#000" stroke-linecap="round" stroke-linejoin="round" stroke-width="2" d="M32.2514,22.279a5.6425,5.6425,0,1,0,8.9467,6.6894,7.7871,7.7871,0,0,0,2.7524.5077"/><path fill="none" stroke="#000" stroke-linecap="round" stroke-linejoin="round" stroke-width="2" d="m40.738 8.1368a4.8606 4.8606 0 0 0-4.3248 2.6653 6.57 6.57 0 0 0-10.831 3.6436 5.058 5.058 0 0 0-7.94 4.1628"/><path fill="none" stroke="#000" stroke-linecap="round" stroke-linejoin="round" stroke-width="2" d="m43.951 13.834a7.8213 7.8213 0 0 1 7.8212 7.8213"/><path fill="none" stroke="#000" stroke-linecap="round" stroke-linejoin="round" stroke-width="2" d="m51.758 21.246a4.883 4.883 0 0 1 6.1912 4.7005"/><circle cx="64.01" cy="11.748" r="1.48"/><circle cx="58.679" cy="18.6" r="1.48"/><circle cx="46.448" cy="18.6" r="1.48"/><circle cx="64.34" cy="26.451" r="1.48"/><circle cx="58.679" cy="32.963" r="1.48"/><circle cx="64.01" cy="40.144" r="1.48"/><circle cx="58.679" cy="45.996" r="1.48"/><circle cx="64.01" cy="52.518" r="1.48"/><circle cx="57.36" cy="60.359" r="1.48"/><circle cx="52.916" cy="11.748" r="1.48"/><circle cx="41.514" cy="11.748" r="1.48"/><circle cx="52.916" cy="26.451" r="1.48"/><circle cx="47.448" cy="32.963" r="1.48"/><circle cx="52.916" cy="40.144" r="1.48"/><circle cx="52.256" cy="52.518" r="1.48"/><circle cx="48.108" cy="60.359" r="1.48"/><circle cx="41.514" cy="40.144" r="1.48"/></g></svg>