<?xml version="1.0" encoding="UTF-8"?>
<svg id="a" viewBox="0 0 72 72" xmlns="http://www.w3.org/2000/svg"><g id="b"><path d="m32.413 59.974c-12.609 0-24.087-10.822-24.087-24.168 0-12.488 8.2436-19.418 16.298-19.418a12.586 12.586 0 0 1 12.515 12.317c0 5.2919-1.9082 8.092-3.73 8.092-1.1714 0-1.9323-0.8847-1.9323-2.6288a2.9316 2.9316 0 0 0-2.9637-2.7755c-1.8624 0-3.3462 1.6622-3.3462 4.3419 0 3.6251 3.33 6.5652 7.5 6.5652 9.91 0 11.785-3.7786 19.916-3.7786 4.6814 0 7.9983 3.742 7.9983 7.1491-2e-4 8.5101-11.398 14.304-28.168 14.304z" fill="#9b9b9a"/><path d="M61.8618,26.931,52.193,19.6675,42.6008,26.92v7.7138l.0043.9239a28.5957,28.5957,0,0,1,7.33-2.1127V27.7412h4.6122v5.4666c4.2271.2362,6.5978,2.1492,7.3148,4.024Z" fill="#3f3f3f"/><path d="m36.21 52.891c5.9145-2.6986 9.9539-5.732 17.435-5.732a17.523 17.523 0 0 1 9.14 2.7116v10.104h-30.534c0.4263-3.7077 3.9591-7.0833 3.9591-7.0833z" fill="#3f3f3f"/></g><g id="c" fill="none" stroke="#000" stroke-linecap="round" stroke-width="2"><line x1="46.34" x2="46.34" y1="23.897" y2="20.139" stroke-miterlimit="10"/><line x1="42.601" x2="42.601" y1="34.922" y2="26.92" stroke-linejoin="round"/><line x1="61.862" x2="61.862" y1="26.931" y2="36.571" stroke-linejoin="round"/><polyline points="41.116 28.015 52.193 19.668 63.347 28.015" stroke-linejoin="round"/><polyline points="50.232 27.741 54.547 27.741 54.547 33.343" stroke-linejoin="round"/><path d="m15.886 32.33c1.0278-5.61 4.9283-9.1318 9.1039-9.1318 3.7754 0 6.9221 2.1467 7.7409 5.6384" stroke-linejoin="round"/><path d="m62.786 49.87a17.523 17.523 0 0 0-9.14-2.7116c-11.464 0-14.014 6.8353-24.103 6.8353" stroke-linejoin="round"/><path d="m31.476 34.168a2.9316 2.9316 0 0 0-2.9637-2.7755c-1.8624 0-3.3462 1.6622-3.3462 4.3419 0 3.6251 3.33 6.5652 7.5 6.5652 9.91 0 11.785-3.7786 19.916-3.7786a8.1548 8.1548 0 0 1 6.7549 3.4652" stroke-linejoin="round"/><path d="m8.5042 32.709c1.2426-10.428 8.438-16.321 16.12-16.321a12.586 12.586 0 0 1 12.514 12.317 16.452 16.452 0 0 1-0.7092 4.938" stroke-linejoin="round"/></g></svg>
