<?xml version="1.0" encoding="UTF-8"?>
<svg id="a" viewBox="0 0 72 72" xmlns="http://www.w3.org/2000/svg"><g id="b"><polygon points="36.641 23.012 40.117 26.752 37.922 30.756 37.936 36.303 22.978 36.303 22.592 32.459 21.554 30.277 22.063 27.49 21.298 20.899 33.33 11.134 40.153 14.303" fill="#9b9b9a"/><polygon points="36.641 23.012 40.117 26.752 37.922 30.756 37.936 36.303 47.788 36.303 47.633 32.761 46.005 28.481 46.823 24.602 46.104 16.936 40.153 14.303" fill="#3f3f3f"/><path d="m19.258 58.568c0-9.1562 6.9838-16.425 16.667-16.579 9.112-0.1445 16.642 6.2323 16.667 16.579z" fill="#ea5a47"/><polygon points="32.584 30.153 27.436 30.153 26.919 24.245 32.067 24.245" fill="#fff"/></g><g id="c" fill="none" stroke="#000" stroke-linecap="round" stroke-width="2"><path d="m29.739 57.962a6.1863 6.1863 0 0 1 12.373 0" stroke-linejoin="round"/><path d="m54.588 43.778c3.219 3.0927 5.3153 8.6178 5.3153 13.643" stroke-linejoin="round"/><path d="m11.947 57.421a21.196 21.196 0 0 1 5.64-13.635" stroke-linejoin="round"/><polyline points="46.104 16.936 46.823 24.602 46.005 28.481 47.633 32.761 47.788 36.303" stroke-linejoin="round"/><polyline points="22.9 35.531 22.592 32.459 21.554 30.277 22.063 27.49 21.298 20.899" stroke-linejoin="round"/><polyline points="18.743 22.984 33.33 11.134 49.646 18.544" stroke-linejoin="round"/><line x1="25.718" x2="25.079" y1="17.184" y2="12.399" stroke-miterlimit="10"/><polyline points="26.919 24.245 32.067 24.245 32.584 30.153" stroke-linejoin="round"/><polyline points="38.164 19.237 36.641 23.012 40.117 26.724 37.93 30.758 37.937 36.214" stroke-linejoin="round"/><line x1="12.32" x2="32.675" y1="36.303" y2="36.303" stroke-linejoin="round"/><line x1="42.84" x2="59.68" y1="36.303" y2="36.303" stroke-linejoin="round"/><path d="m40.978 42.615a15.856 15.856 0 0 1 11.614 15.293" stroke-linejoin="round"/><path d="m19.258 57.908c0-7.3088 5.61-14.237 13.746-15.647" stroke-linejoin="round"/></g></svg>
