<svg xmlns="http://www.w3.org/2000/svg" id="a" viewBox="0 0 72 72"><g id="b"><polygon fill="#a57939" points="41.051 31.123 30.741 31.123 30.741 44.767 41.051 48"/><path fill="#61b2e4" d="m9.9469 60.049c5.3061 0 5.1545 3.1836 10.46 3.1836s5.3061-3.1836 10.461-3.1836 5.1544 3.1836 10.309 3.1836 5.1544-3.1836 10.309-3.1836 5.1542 3.1836 10.309 3.1836v-6.3591c-5.1544 0-5.1544-3.1836-10.309-3.1836s-5.1545 3.1836-10.309 3.1836-5.1545-3.1839-10.309-3.1839-5.1545 3.1836-10.461 3.1836-5.1544-3.1836-10.46-3.1836z"/><path fill="#92d3f5" d="m9.9469 52.441c5.3061 0 5.1545 3.1837 10.46 3.1837s5.3061-3.1837 10.461-3.1837 5.1544 3.1837 10.309 3.1837 5.1544-3.1837 10.309-3.1837 5.1545 3.1837 10.309 3.1837v-6.3591c-5.1544 0-5.1544-3.1837-10.309-3.1837s-5.1545 3.1837-10.309 3.1837-5.1545-3.1837-10.309-3.1837-5.1545 3.1837-10.461 3.1837-5.1544-3.1837-10.46-3.1837z"/><path fill="#92d3f5" d="m9.9469 45.417c5.3061 0 5.1545 3.1836 10.46 3.1836s5.3061-3.1836 10.461-3.1836 5.1544 3.1832 10.309 3.1832 5.1544-3.1836 10.309-3.1836 5.1542 3.1836 10.309 3.1836v-6.3587c-5.1544 0-5.1544-3.1836-10.309-3.1836s-5.1545 3.1836-10.309 3.1836-5.1545-3.1836-10.309-3.1836-5.1545 3.1836-10.461 3.1836-5.1544-3.1836-10.46-3.1836z"/><polygon fill="#ea5a47" points="16.6 25.201 35.686 8.917 55.192 25.201"/><polygon fill="#ea5a47" points="28.922 14.674 28.922 10.009 22.991 10.009 22.991 19.743"/></g><g id="c" fill="none" stroke="#000" stroke-linecap="round" stroke-linejoin="round" stroke-width="2"><line x1="55.185" x2="55.185" y1="50.435" y2="25.201"/><line x1="16.607" x2="16.607" y1="25.201" y2="50.946"/><polygon points="16.6 25.201 35.686 8.917 55.192 25.201"/><polygon points="28.922 14.674 28.922 10.009 22.991 10.009 22.991 19.743"/><polyline points="30.741 41.21 30.741 31.123 41.051 31.123 41.051 44.197"/><path d="m61.795 56.401c-5.1544 0-5.1544-3.1836-10.309-3.1836s-5.1545 3.1836-10.309 3.1836-5.1545-3.1836-10.309-3.1836-5.1545 3.1836-10.461 3.1836-5.1544-3.1836-10.46-3.1836"/><path d="m61.795 48.936c-5.1544 0-5.1544-3.1836-10.309-3.1836s-5.1545 3.1836-10.309 3.1836-5.1545-3.1836-10.309-3.1836-5.1545 3.1836-10.461 3.1836-5.1544-3.1836-10.46-3.1836"/><path d="m61.795 63.866c-5.1544 0-5.1544-3.1836-10.309-3.1836s-5.1545 3.1836-10.309 3.1836-5.1545-3.1836-10.309-3.1836-5.1545 3.1836-10.461 3.1836-5.1544-3.1836-10.46-3.1836"/></g></svg>