<svg xmlns="http://www.w3.org/2000/svg" id="a" viewBox="0 0 72 72"><g id="b"><circle cx="35.939" cy="29.281" r="3.15" fill="#3f3f3f"/><polyline fill="#d0cfce" points="46.439 64.56 36.838 32.3 35.041 32.3 25.439 64.56"/></g><g id="c" stroke="#000" stroke-width="2"><path fill="none" stroke-linecap="round" stroke-miterlimit="10" d="m18.863 46.357a24.152 24.152 0 0 1-1.7821-32.164"/><path fill="none" stroke-linecap="round" stroke-miterlimit="10" d="m54.798 14.194a24.152 24.152 0 0 1-1.7821 32.164"/><path fill="none" stroke-linecap="round" stroke-miterlimit="10" d="m48.238 19.441a15.751 15.751 0 0 1-1.1622 20.976"/><path fill="none" stroke-linecap="round" stroke-miterlimit="10" d="m24.802 40.418a15.751 15.751 0 0 1-1.1624-20.976"/><circle cx="35.939" cy="29.281" r="3.15" fill="none" stroke-miterlimit="10"/><line x1="28.589" x2="43.289" y1="55.477" y2="55.477" stroke-linecap="round" stroke-linejoin="round"/><line x1="31.739" x2="40.139" y1="43.613" y2="43.613" stroke-linecap="round" stroke-linejoin="round"/><line x1="35.041" x2="25.439" y1="32.3" y2="64.56" fill="none" stroke-linecap="round" stroke-linejoin="round"/><line x1="46.439" x2="36.838" y1="64.56" y2="32.3" fill="none" stroke-linecap="round" stroke-linejoin="round"/></g></svg>