<svg xmlns="http://www.w3.org/2000/svg" id="a" version="1.1" viewBox="0 0 72 72"><g id="b"><path fill="#FCEA2B" d="m58.999 59.999h-46c-0.5518-0.0012-0.9988-0.4482-1-1v-46c0.0012-0.5518 0.4482-0.9988 1-1h46c0.5518 0.0012 0.9988 0.4482 1 1v46c0.0314 0.5209-0.3653 0.9686-0.8862 1-0.0378 0.0023-0.0759 0.0023-0.1138 0z"/></g><g id="c"><path fill="none" stroke="#000" stroke-miterlimit="10" stroke-width="2" d="m58.999 59.999h-46c-0.5518-0.0012-0.9988-0.4482-1-1v-46c0.0012-0.5518 0.4482-0.9988 1-1h46c0.5518 0.0012 0.9988 0.4482 1 1v46c0.0314 0.5209-0.3653 0.9686-0.8862 1-0.0378 0.0023-0.0759 0.0023-0.1138 0z"/><path d="m26.597 32.837c0.369 0.0954 0.6695 0.3628 0.807 0.7183 0.1132 0.5518 0.6523 0.9074 1.2042 0.7942 0.5518-0.1132 0.9074-0.6523 0.7942-1.2042-0.0022-0.0108-0.0046-0.0216-0.0072-0.0323-0.3632-1.2888-1.4682-2.2311-2.7982-2.3861v2.1101z"/><path d="m25.279 38.914c-0.5351-0.0735-0.995-0.4167-1.2175-0.9089-0.1668-0.5381-0.7382-0.8391-1.2763-0.6723s-0.8391 0.7382-0.6723 1.2763c0.0041 0.0133 0.0085 0.0264 0.0131 0.0395 0.5084 1.3242 1.7379 2.2341 3.1529 2.3332v-2.0678z"/><path d="m25.894 34.815c-0.0314-3e-3 -0.0633-4e-3 -0.0956-4e-3 -0.9458 0-1.5808-0.5488-1.5808-1.0608 0-0.41 0.4121-0.84 1.0611-0.9956v-2.0617c-1.6638 0.0753-3.0022 1.3947-3.1011 3.0573 0.1193 1.7858 1.6327 3.1557 3.4216 3.0969 0.0313 2e-3 0.0632 0.0039 0.0956 0.0039 0.9458 0 1.5813 0.5489 1.5813 1.0609-0.0463 0.3928-0.3081 0.7267-0.6785 0.8654v2.1308c1.5054-0.2214 2.6441-1.4764 2.7185-2.9962-0.1193-1.786-1.633-3.1559-3.4221-3.0969z"/><path d="m45.969 38.906c-0.514-0.0868-0.9502-0.4255-1.1617-0.902-0.1782-0.5344-0.756-0.8232-1.2905-0.645-0.5344 0.1783-0.8232 0.756-0.6449 1.2905 0.5005 1.3057 1.7037 2.2101 3.0971 2.328v-2.0715z"/><path d="m47.288 32.814c0.3931 0.0879 0.7166 0.3658 0.8628 0.7411 0.1117 0.5521 0.6499 0.9092 1.202 0.7974 0.5521-0.1117 0.9092-0.6499 0.7974-1.202-0.0026-0.0126-0.0053-0.0252-0.0084-0.0377-0.37-1.3087-1.5011-2.2591-2.8539-2.3982v2.0994z"/><path d="m46.64 34.815c-0.0314-3e-3 -0.0633-4e-3 -0.0956-4e-3 -0.9458 0-1.5808-0.5488-1.5808-1.0608 0-0.3987 0.3882-0.8162 1.0053-0.983v-2.07c-1.6421 0.0985-2.9507 1.4103-3.0453 3.0526 0.1193 1.7856 1.6324 3.1553 3.421 3.0969 0.0314 2e-3 0.0633 0.0039 0.0957 0.0039 0.9458 0 1.5813 0.5489 1.5813 1.0609-0.0536 0.4125-0.3392 0.7576-0.7343 0.8875v2.1232c1.5302-0.2025 2.6973-1.4691 2.7743-3.0107-0.1195-1.7856-1.6329-3.1552-3.4216-3.0965z"/><path d="m35.532 38.858c-0.8088-0.2722-1.3546-1.0292-1.3574-1.8826v-2.3937c0.0028-0.8534 0.5486-1.6104 1.3574-1.8826v-2.09c-1.9534 0.3117-3.3924 1.9943-3.3974 3.9724v2.3937c5e-3 1.9782 1.444 3.6607 3.3974 3.9724v-2.0896z"/><path d="m36.85 30.613v2.0981c0.789 0.284 1.316 1.0314 1.3185 1.87v2.3937c-0.0025 0.8386-0.5295 1.586-1.3185 1.87v2.0981c1.936-0.3289 3.3541-2.0039 3.359-3.9677v-2.3937c-0.0045-1.964-1.4226-3.6395-3.359-3.9685z"/></g></svg>