<?xml version="1.0" encoding="UTF-8"?>
<svg id="a" version="1.1" viewBox="0 0 72 72" xmlns="http://www.w3.org/2000/svg"><g id="b"><path d="m58.999 59.999h-46c-0.5518-0.0012-0.9988-0.4482-1-1v-46c0.0012-0.5518 0.4482-0.9988 1-1h46c0.5518 0.0012 0.9988 0.4482 1 1v46c0.0314 0.5209-0.3653 0.9686-0.8862 1-0.0378 0.0023-0.0759 0.0023-0.1138 0z" fill="#EA5A47"/></g><g id="c"><path d="m58.999 59.999h-46c-0.5518-0.0012-0.9988-0.4482-1-1v-46c0.0012-0.5518 0.4482-0.9988 1-1h46c0.5518 0.0012 0.9988 0.4482 1 1v46c0.0314 0.5209-0.3653 0.9686-0.8862 1-0.0378 0.0023-0.0759 0.0023-0.1138 0z" fill="none" stroke="#000" stroke-miterlimit="10" stroke-width="2"/><path d="m33.692 29.992c-0.5523 0-1 0.4477-1 1v6.6943l-2.11-2.6943v3.2429l2.323 2.9661c0.3407 0.4347 0.9692 0.5109 1.4039 0.1703 0.2417-0.1894 0.383-0.4794 0.3832-0.7865v-9.5928c3e-4 -0.552-0.4468-0.9997-0.9988-1h-0.0013z"/><path d="m29.29 33.342-2.3229-2.9659c-0.3407-0.4347-0.9692-0.5109-1.4039-0.1703-0.2417 0.1894-0.383 0.4794-0.3832 0.7865v9.5928c0 0.5523 0.4477 1 1 1s1-0.4477 1-1v-6.6944l2.11 2.6941v-3.2428z"/><path d="m41.679 39.49c-1.057-0.2787-1.7901-1.2392-1.78-2.3323v-2.74c-0.0101-1.0929 0.723-2.0532 1.78-2.3314v-2.0314c-2.1802 0.2922-3.8012 2.163-3.78 4.3626v2.74c-0.0214 2.1999 1.5995 4.071 3.78 4.3636v-2.0311z"/><path d="m42.972 30.055v2.0313c1.0566 0.2784 1.7895 1.2385 1.7793 2.3312v2.74c-0.0303 1.0763-0.7477 2.0117-1.7793 2.32v2.04c2.1516-0.3418 3.746-2.181 3.7793-4.3593v-2.74c0.0216-2.1996-1.599-4.0707-3.7793-4.3632z"/></g></svg>
