<svg xmlns="http://www.w3.org/2000/svg" id="a" viewBox="0 0 72 72"><g id="b"><path fill="#fcea2b" d="m11.602 27.036a2.7339 2.7339 0 0 1 2.5041-1.9354h50.72a1.4722 1.4722 0 0 1 1.4959 1.9354l-5.7117 21.928a2.7341 2.7341 0 0 1-2.5042 1.9359h-50.72a1.4721 1.4721 0 0 1-1.4958-1.9354z"/><path fill="#f1b31c" d="m60.444 49.614 3.4947-13.428a193.65 193.65 0 0 1-24.953 8.9547 218.03 218.03 0 0 1-28.8 5.76h48.558a1.7112 1.7112 0 0 0 1.7002-1.2862z"/><polygon points="34.006 25.1 43.606 25.1 36.886 50.9 27.286 50.9"/><polygon points="49.667 25.1 59.267 25.1 52.547 50.9 42.947 50.9"/><polygon points="18.346 25.1 27.946 25.1 21.226 50.9 11.626 50.9"/><path fill="none" d="m11.602 27.036a2.7339 2.7339 0 0 1 2.5041-1.9354h50.72a1.4722 1.4722 0 0 1 1.4959 1.9354l-5.7117 21.928a2.7341 2.7341 0 0 1-2.5042 1.9359h-50.72a1.4721 1.4721 0 0 1-1.4958-1.9354z"/></g><g id="c" fill="none" stroke="#000" stroke-linecap="round" stroke-linejoin="round" stroke-width="2"><path d="m10.989 27.048a2.6542 2.6542 0 0 1 2.4573-1.947h51.38a1.4939 1.4939 0 0 1 1.5192 1.9413l-5.4285 21.916a2.6938 2.6938 0 0 1-2.4808 1.9418h-51.05a1.5161 1.5161 0 0 1-1.5426-1.947z"/><line x1="38.67" x2="31.95" y1="25.1" y2="50.9"/><line x1="54.001" x2="47.281" y1="25.1" y2="50.9"/><line x1="23.01" x2="16.29" y1="25.1" y2="50.9"/></g></svg>