<svg xmlns="http://www.w3.org/2000/svg" id="a" viewBox="0 0 72 72"><g id="b"><path fill="#fcea2b" d="m10.704 26.048a2.6542 2.6542 0 0 1 2.4573-1.947h51.38a1.494 1.494 0 0 1 1.519 1.9413l-5.4283 21.916a2.6939 2.6939 0 0 1-2.4808 1.9418h-51.05a1.5161 1.5161 0 0 1-1.5426-1.947z"/><path fill="#f1b31c" d="m60.249 48.614 3.4947-13.428a193.65 193.65 0 0 1-24.953 8.9547 218.03 218.03 0 0 1-28.8 5.76h48.558a1.7112 1.7112 0 0 0 1.7002-1.2862z"/><polygon points="18.929 36.928 10.697 24.1 19.099 24.1 27.376 36.966 16.549 49.9 8.103 49.9"/><polygon points="35.74 37.005 27.507 24.1 35.904 24.1 44.186 37.042 33.36 49.9 24.913 49.9"/><polygon points="51.682 37.079 43.449 24.1 51.851 24.1 60.128 37.116 49.302 49.9 40.855 49.9"/></g><g id="c" fill="none" stroke="#000" stroke-linecap="round" stroke-linejoin="round" stroke-width="2"><path d="m10.704 26.048a2.6542 2.6542 0 0 1 2.4573-1.947h51.38a1.494 1.494 0 0 1 1.519 1.9413l-5.4283 21.916a2.6939 2.6939 0 0 1-2.4808 1.9418h-51.05a1.5161 1.5161 0 0 1-1.5426-1.947z"/><polyline points="14.81 24.1 23.087 36.966 12.26 49.9"/><polyline points="31.614 24.1 39.897 37.042 29.07 49.9"/><polyline points="47.562 24.1 55.839 37.116 45.012 49.9"/></g></svg>