<?xml version="1.0" encoding="UTF-8"?>
<svg id="a" viewBox="0 0 72 72" xmlns="http://www.w3.org/2000/svg"><g id="b"><path d="m31.669 28.299c-8.1155 0-13.92 5.3219-13.92 15.52v18.871h-6.14v-19.201c0-13.5 7.7484-20.793 20.248-20.793h19.982l-10.4-9.6 3.8-4.1 17.8 16.5-17.8 16.5-3.8-4.1 10.4-9.6z" fill="#3f3f3f"/></g><g id="c"><path d="m31.669 28.299c-8.1155 0-13.92 5.3219-13.92 15.52v18.871h-6.14v-19.201c0-13.5 7.7484-20.793 20.248-20.793h19.982l-10.4-9.6 3.8-4.1 17.8 16.5-17.8 16.5-3.8-4.1 10.4-9.6z" fill="none" stroke="#000" stroke-linecap="round" stroke-linejoin="round" stroke-width="2"/></g></svg>
