<svg xmlns="http://www.w3.org/2000/svg" id="a" viewBox="0 0 72 72"><g id="b"><circle cx="35.905" cy="36.014" r="27.034" fill="#fcea2b"/><circle cx="36.006" cy="36.037" r="21.871" fill="#fff"/></g><g id="c"><path fill="none" stroke="#000" stroke-linecap="round" stroke-linejoin="round" stroke-width="2" d="m55.109 25.38a21.863 21.863 0 1 1-8.0938-8.2451"/><path fill="none" stroke="#000" stroke-linecap="round" stroke-linejoin="round" stroke-width="2" d="m62.939 35.997a27.046 27.046 0 1 1-5.265-16.038"/><polyline fill="none" stroke="#000" stroke-linecap="round" stroke-linejoin="round" stroke-width="2" points="47.394 21.578 58.432 20.418 57.272 9.38"/><polyline fill="none" stroke="#000" stroke-linecap="round" stroke-linejoin="round" stroke-width="2" points="49.975 36.354 35.987 36.354 35.891 36.354 35.891 18.52"/><line x1="35.891" x2="35.891" y1="53.911" y2="50.066" fill="none" stroke="#000" stroke-linecap="round" stroke-linejoin="round" stroke-width="2"/><polyline fill="none" stroke="#000" stroke-linecap="round" stroke-linejoin="round" stroke-width="2" points="21.143 36.354 18.086 36.354 18.086 36.354"/><circle cx="35.891" cy="36.354" r="3.737"/><circle cx="48.694" cy="47.937" r="1.48"/><circle cx="23.087" cy="24.717" r="1.48"/><circle cx="23.087" cy="47.937" r="1.48"/></g></svg>