<?xml version="1.0" encoding="UTF-8"?>
<svg id="a" viewBox="0 0 72 72" xmlns="http://www.w3.org/2000/svg"><g id="b"><g id="c"><path d="M46.0219,37.908c3.0066,0,4.0087-7.0154,4.0087-14.0307,0-6.0131-5.0109-12.0262-14.0306-12.0262S21.9694,17.8642,21.9694,23.8773c0,7.0153,1.0021,14.0307,4.0087,14.0307l-.7313-4.77.9021-7.16L26.617,24.88l1.8724-.6029,2.34-.766,3.0656-1.66,1.6578-1.2341,2.6383-1.7447,1.5233-.9787,1.2,2.7234L42.66,22.7447,44.7872,24.88l1.0213.8439v.8936l.5618,2.2979.6538.5957-.4784,5.9382Z" fill="#f1b31c"/></g></g><g id="d"><g id="e"><path d="m24.876 30.893c-0.1 8.0176 4.109 14.031 11.024 14.031 7.1155 0 11.124-6.0131 11.124-14.031 0-5.0109-4.7024-9.6688-4.7024-9.6688-7.0494-7.6155-8.47 2.5788-14.641 2.3719 0 0-2.705 2.286-2.8052 7.2969z" fill="#fcea2b"/></g><g id="f"><path d="m16.958 60.958v-4.0083c0-5.0109 5.011-9.02 10.022-9.02q9.02 7.5165 18.039 0c5.0109 0 10.022 4.0088 10.022 9.02v4.0088" fill="#92d3f5"/></g><polygon points="26.894 34.705 35.876 33.138 45.987 34.632 46.37 36.358 40.957 44.733 31.128 44.733 25.63 35.07" fill="#fff"/></g><g id="g"><path d="m22.089 27.886a37.872 37.872 0 0 1-0.1192-4.0088c0-6.0131 5.0109-12.026 14.031-12.026s14.031 6.0131 14.031 12.026a37.328 37.328 0 0 1-0.1191 4.0088" fill="none" stroke="#000" stroke-linecap="round" stroke-linejoin="round" stroke-width="2"/><path d="m41.913 29.89a2.0044 2.0044 0 1 1-2.0044-2.0044 2.01 2.01 0 0 1 2.0044 2.0044"/><path d="m33.895 29.89a2.0044 2.0044 0 1 1-2.0044-2.0044 2.01 2.01 0 0 1 2.0044 2.0044"/><path d="m41.913 29.89a2.0044 2.0044 0 1 1-2.0044-2.0044 2.01 2.01 0 0 1 2.0044 2.0044"/><path d="m33.895 29.89a2.0044 2.0044 0 1 1-2.0044-2.0044 2.01 2.01 0 0 1 2.0044 2.0044"/><path d="m16.958 59.956v-3.0061c0-5.0109 5.011-9.02 10.022-9.02q9.02 7.5165 18.039 0c5.0109 0 10.022 4.0088 10.022 9.02v3.0066" fill="none" stroke="#000" stroke-linecap="round" stroke-linejoin="round" stroke-width="2"/><path d="M32.6992,44.7333c-1.3329.0108-3.6242-1.852-4.4966-3.071a14.784,14.784,0,0,1-2.4335-5.8174l-.1394-.45,8.9093-2.2974a5.6017,5.6017,0,0,1,2.8794.0182l8.4081,2.2792H46.37a14.4865,14.4865,0,0,1-1.8409,5.7962c-.877,1.4159-3.28,3.4562-4.7422,3.4681Z" fill="none" stroke="#000" stroke-linecap="round" stroke-linejoin="round" stroke-width="2"/><line x1="46.169" x2="49.477" y1="35.165" y2="32.532" fill="none" stroke="#000" stroke-linecap="round" stroke-linejoin="round" stroke-width="2"/><line x1="25.63" x2="22.33" y1="35.165" y2="32.117" fill="none" stroke="#000" stroke-linecap="round" stroke-linejoin="round" stroke-width="2"/><path d="m46.974 29.253a11.658 11.658 0 0 0-0.9629-3.998c-3-3-7-8-7-8-4 3-7 6-13 7 0 0-0.9287 0.873-1.05 5.0693" fill="none" stroke="#000" stroke-linecap="round" stroke-linejoin="round" stroke-width="2"/></g></svg>
