<?xml version="1.0" encoding="UTF-8"?>
<svg id="a" viewBox="0 0 72 72" xmlns="http://www.w3.org/2000/svg"><g id="b"><g id="c"><path d="m26 38.042c-3 0-4-7-4-14 0-6 5-12 14-12s14 6 14 12c0 7-1 14-4 14" fill="#f1b31c"/></g></g><g id="d"><g id="e"><path d="m24.847 28.663c-0.1 8 4.1 14 11 14 7.1 0 11.1-6 11.1-14 0-5-3-10-3-10-8 0-10 3-16 1a17.302 17.302 0 0 0-3.1 9z" fill="#fcea2b"/></g><g id="f"><path d="m16.958 61.149v-4.0088c0-5.0109 5.011-9.02 10.022-9.02q9.02 7.5165 18.039 0c5.0109 0 10.022 4.0088 10.022 9.02v4.0088" fill="#92d3f5"/></g><path d="m24.51 29.123v1.042c0 8.3286 4.8508 14.854 11.044 14.854s11.044-6.5253 11.044-14.854c0-5.0665-1.8716-8.1824-5.5611-12.123a67.266 67.266 0 0 1-9.4594 6.2845c-2.7855 1.6486-6.583 3.8862-7.0677 4.7964z" fill="#fcea2b"/><polygon points="26.447 35.399 35.43 33.832 45.541 35.326 45.924 37.052 40.511 45.427 30.681 45.427 25.184 35.763" fill="#fff"/></g><g id="g"><path d="m22.089 28.077a37.87 37.87 0 0 1-0.1192-4.0087c0-6.0131 5.0106-12.026 14.031-12.026s14.031 6.0132 14.031 12.026a37.326 37.326 0 0 1-0.1191 4.0087" fill="none" stroke="#000" stroke-linecap="round" stroke-linejoin="round" stroke-width="2"/><path d="m41.913 30.081a2.0044 2.0044 0 1 1-2.0044-2.0044 2.01 2.01 0 0 1 2.0044 2.0044"/><path d="m33.895 30.081a2.0044 2.0044 0 1 1-2.0044-2.0044 2.01 2.01 0 0 1 2.0044 2.0044"/><path d="m41.913 30.081a2.0044 2.0044 0 1 1-2.0044-2.0044 2.01 2.01 0 0 1 2.0044 2.0044"/><path d="m33.895 30.081a2.0044 2.0044 0 1 1-2.0044-2.0044 2.01 2.01 0 0 1 2.0044 2.0044"/><path d="m16.958 60.147v-3.0066c0-5.0109 5.011-9.02 10.022-9.02q9.02 7.5165 18.039 0c5.0109 0 10.022 4.0088 10.022 9.02v3.0066" fill="none" stroke="#000" stroke-linecap="round" stroke-linejoin="round" stroke-width="2"/><line x1="46.169" x2="49.477" y1="35.356" y2="32.723" fill="none" stroke="#000" stroke-linecap="round" stroke-linejoin="round" stroke-width="2"/><line x1="25.63" x2="22.33" y1="35.356" y2="32.308" fill="none" stroke="#000" stroke-linecap="round" stroke-linejoin="round" stroke-width="2"/><path d="m47.05 29.663c0-5-3-11-3-11-8 0-10 3-16 1 0 0-3 5-3.1 10" fill="none" stroke="#000" stroke-linecap="round" stroke-linejoin="round" stroke-width="2"/><path d="M32.5955,45.0455c-1.333.0108-3.6243-1.8519-4.4967-3.071a14.785,14.785,0,0,1-2.4335-5.8173l-.1393-.45L34.4353,33.41a5.6014,5.6014,0,0,1,2.8793.0182l8.4081,2.2792h.5438a14.4865,14.4865,0,0,1-1.8409,5.7962c-.8769,1.4159-3.28,3.4562-4.7421,3.4681Z" fill="none" stroke="#000" stroke-linecap="round" stroke-linejoin="round" stroke-width="2"/></g></svg>
