<?xml version="1.0" encoding="UTF-8"?>
<svg id="a" viewBox="0 0 72 72" xmlns="http://www.w3.org/2000/svg"><g id="b"><path d="m54.194 32.719a23.723 23.723 0 0 1-1.1573-2.6329c-1.4726-3.2695-2.0234-4.4927-2.3486-10.524 0.0273-3.6929-3.794-6.7842-7.4746-7.0928a1.001 1.001 0 0 1-0.6885-0.3433c-0.0928-0.0995-2.4082-2.6546-7.2432-2.6546-6.2 0-11.441 3.3817-12.743 8.2259a18.516 18.516 0 0 0-0.5645 6.1759 13.317 13.317 0 0 1-0.7607 5.9608 38.875 38.875 0 0 1-3.12 4.7343l0.1908 4.452a11.072 11.072 0 0 0 8.78 10.446 3.8539 3.8539 0 0 0 0.8576 0.0944c4.953 1.2891 10.896 2.9162 18.7 0a8.3412 8.3412 0 0 1 4.209 1.5135c1.0534-0.6931 2.0475-4.4725 2.972-5.33 1.1875-0.7144 3.1244-8.2823 0.391-13.025zm-18.194 12.3c-10.956-0.05-10.104-16.369-10.104-16.369 2.3135-2.5392 15.494-10.79 15.494-10.79 6.0806 2.0743 6.3829 11.64 6.3829 11.64s-2.1772 15.068-11.773 15.519z" fill="#f1b31c"/></g><g id="c"><path d="m24.51 29.123v1.042c0 8.3286 4.8508 14.854 11.044 14.854s11.044-6.5253 11.044-14.854c0-5.0665-1.8716-8.1824-5.5611-12.123a67.266 67.266 0 0 1-9.4594 6.2845c-2.7855 1.6486-6.583 3.8862-7.0677 4.7964z" fill="#fcea2b"/><g id="d"><path d="m16.958 60.958v-4.0083c0-5.0109 5.011-9.02 10.022-9.02q9.02 7.5165 18.039 0c5.0109 0 10.022 4.0088 10.022 9.02v4.0088" fill="#92d3f5"/></g><polygon points="26.447 34.486 35.43 32.919 45.541 34.413 45.924 36.139 40.511 44.514 30.681 44.514 25.184 34.85" fill="#fff"/></g><g id="e"><path d="m42.035 28.832a2 2 0 1 1-2-2 2 2 0 0 1 2 2"/><path d="m34.035 28.832a2 2 0 1 1-2-2 2 2 0 0 1 2 2"/><path d="m18.581 35.772c0.6148-1.774 1.4978-3.4939 2.1913-5.2759 1.6357-4.2-0.209-6.4512 1.291-12.034 1.48-5.5 7.2773-8.9658 13.709-8.9658 5.4 0 8 3 8 3a8.1323 8.1323 0 0 1 7.4052 8.0371c0.3867 7.18 1.0244 7.1523 3.4287 12.822a11.599 11.599 0 0 1-1.4465 11.663" fill="none" stroke="#000" stroke-linecap="round" stroke-linejoin="round" stroke-width="2"/><path d="m46.291 34.831a17.717 17.717 0 0 0 0.7446-5.1532c0-5-2-8-6-12-4 4-16 9-16 11v1a17.899 17.899 0 0 0 0.5738 4.55" fill="none" stroke="#000" stroke-linejoin="round" stroke-width="2"/><path d="m16.958 59.956v-3.0061c0-5.0109 5.011-9.02 10.022-9.02q9.02 7.5165 18.039 0c5.0109 0 10.022 4.0088 10.022 9.02v3.0066" fill="none" stroke="#000" stroke-linecap="round" stroke-linejoin="round" stroke-width="2"/><line x1="46.169" x2="49.477" y1="35.165" y2="32.532" fill="none" stroke="#000" stroke-linecap="round" stroke-linejoin="round" stroke-width="2"/><line x1="25.63" x2="22.33" y1="35.165" y2="32.117" fill="none" stroke="#000" stroke-linecap="round" stroke-linejoin="round" stroke-width="2"/><path d="M32.576,44.2883c-1.333.0108-3.6243-1.8519-4.4967-3.071A14.7835,14.7835,0,0,1,25.6459,35.4l-.1394-.45,8.9093-2.2974a5.6024,5.6024,0,0,1,2.8793.0181L45.7032,34.95h.5438a14.4865,14.4865,0,0,1-1.8409,5.7961c-.8769,1.416-3.2795,3.4563-4.7421,3.4681Z" fill="none" stroke="#000" stroke-linecap="round" stroke-linejoin="round" stroke-width="2"/></g></svg>
