<?xml version="1.0" encoding="UTF-8"?>
<svg id="a" viewBox="0 0 72 72" xmlns="http://www.w3.org/2000/svg"><g id="b"><path d="m53.171 33.336a23.75 23.75 0 0 1-1.1573-2.6329c-1.4726-3.2695-2.0236-4.4926-2.3486-10.524 0.0273-3.6929-3.794-6.7842-7.4746-7.0928a1.0019 1.0019 0 0 1-0.6885-0.3433c-0.0928-0.0995-2.4082-2.6546-7.2432-2.6546-6.2 0-11.441 3.3817-12.743 8.2259a18.521 18.521 0 0 0-0.5645 6.1759 13.317 13.317 0 0 1-0.7607 5.9608 38.878 38.878 0 0 1-3.12 4.7343l0.1909 4.4519a11.072 11.072 0 0 0 8.78 10.446 3.8581 3.8581 0 0 0 0.8575 0.0943c4.953 1.2891 10.896 2.9162 18.7 0a8.343 8.343 0 0 1 4.209 1.5135c1.0535-0.6931 2.0475-4.4725 2.972-5.33 1.1875-0.7146 3.1244-8.2822 0.391-13.025zm-18.194 12.3c-10.587-4e-4 -10.587-17.359-10.587-17.359 2.3135-2.5393 15.978-9.8 15.978-9.8 6.0806 2.0742 6.3829 11.64 6.3829 11.64s-2.1774 15.068-11.773 15.518z" fill="#f1b31c"/></g><g id="c"><path d="m24.39 29.123v1.042c0 8.3286 4.8509 14.854 11.044 14.854s11.044-6.5253 11.044-14.854c0-5.0665-1.8716-8.1824-5.5611-12.123a67.278 67.278 0 0 1-9.4594 6.2845c-2.7852 1.6486-6.5827 3.8862-7.0675 4.7964z" fill="#fcea2b"/><path d="m47.181 46.469c-4.9473 7.4285-9.7692 5.8349-14.06 3.5476l-6.7135-10.814-8.41 4.992-0.5249 2.19-0.4339-0.0808-0.2111 2.7712-0.5792 2.4165 0.3995-0.0566-0.2467 3.239a12.764 12.764 0 0 0-0.1528 2.0052v4.28h38v-4.28c0-5.3438-3.7487-8.6468-7.0674-10.21z" fill="#92d3f5"/></g><g id="d"><polygon points="26.408 39.202 32.08 49.369 54.249 37.09 58.408 33.525 61.889 35.384 64.142 34.057 64.953 31.129 58.555 27.036 56.16 27.036 53.649 27.669 51.563 30.036 50.144 32.524" fill="#fcea2b"/></g><g id="e" fill="none" stroke="#000" stroke-linecap="round" stroke-width="2"><path d="m47.181 46.985c3.85 1.1778 7.0674 4.5469 7.0674 8.5508v5.4226" stroke-linejoin="round"/><path d="m54.16 37.036-14.433 9.0118a58.459 58.459 0 0 1-11.937 5.69c-2.4385 0.8393-4.6463 1.5969-4.6463 1.5969" stroke-miterlimit="10"/><path d="m58.73 33.622 1.8149 1.1067a2.7369 2.7369 0 0 0 3.2106-0.2627 2.7321 2.7321 0 0 0 0.3381-3.8073 12.152 12.152 0 0 0-5.3648-3.5348 6.1469 6.1469 0 0 0-4.9344 0.377 3.3866 3.3866 0 0 0-0.6987 0.4977l-0.5025 0.4643a3.3845 3.3845 0 0 0-0.73 0.9721l-0.5832 1.1668a4.7 4.7 0 0 1-1.97 2.0334 80.915 80.915 0 0 0-13.934 4.0547l-13.512 5.0544a8.1235 8.1235 0 0 0-5.2372 6.6187 91.684 91.684 0 0 0-0.4671 11.672" stroke-miterlimit="10"/><path d="m29.08 29.496s2.53 1.5112 4.0415 0" stroke-miterlimit="10"/><path d="m37.412 29.269s2.53 1.5112 4.0415 0" stroke-miterlimit="10"/><path d="m29.08 42.511s-0.0059 2.5532 2.0208 3.4468" stroke-miterlimit="10"/><path d="m36.188 51.083q5.2653 0.7349 10.53-3.6528" stroke-linejoin="round"/><path d="m54.343 39.785a11.589 11.589 0 0 1-2.2532 5.2334" stroke-linejoin="round"/><path d="m17.261 39.637c-0.3891-3.6368 1.748-7.3585 2.4415-9.14 1.6357-4.2-0.209-6.4512 1.291-12.034 1.48-5.5 7.2773-8.9658 13.709-8.9658 5.4 0 8 3 8 3a8.1323 8.1323 0 0 1 7.4052 8.0371 32.04 32.04 0 0 0 0.7464 6.2436" stroke-linejoin="round"/><path d="M45.9485,30.4886q.0172-.4016.0173-.81c0-5-2-8-6-12-4,4-16,9-16,11v1a17.8993,17.8993,0,0,0,.5738,4.55" stroke-linejoin="round"/></g></svg>
