<svg xmlns="http://www.w3.org/2000/svg" id="a" viewBox="0 0 72 72"><g id="b"><g id="c"><path fill="#f1b31c" d="M25.1643,37.59c-3.0066,0-4.0088-7.0153-4.0088-14.0306,0-6.0131,5.011-12.0263,14.0307-12.0263S49.2168,17.5464,49.2168,23.56c0,7.0153-3.2135,9.4758-3.2135,9.4758l-.11-4.4768.1277-2.367L43.6809,23s-1.83-1.617-1.66-1.4043-2.5884-2.9787-2.5884-2.9787l-2.1692-.33-3.4552,2.2871L31.34,21.8511,29.3773,23.39l-3.3135,1.44-.6383.4255-.0425,2.28-.5958,2.8687L26.3237,37.59H25.1643"/></g></g><g id="d"><path fill="#fcea2b" d="m24.199 28.799c0 8.2186 4.6433 13.393 11.612 13.393 6.823 0 10.401-4.1406 10.401-12.359a8.7214 8.7214 0 0 0-0.9629-4.2967c-3.448-2.7395-5.9168-8-5.9168-8-4.5973 2.7395-8.0453 5.4791-14.941 6.3923 0 0-0.1919 0.305-0.1919 4.8709z"/><path fill="#92d3f5" d="m47.181 46.469c-4.9473 7.4285-9.7692 5.8349-14.06 3.5476l-6.7135-10.814-8.41 4.992-0.5249 2.19-0.4339-0.0808-0.2111 2.7712-0.5792 2.4165 0.3995-0.0566-0.2467 3.239a12.764 12.764 0 0 0-0.1528 2.0052v4.28h38v-4.28c0-5.3438-3.7487-8.6468-7.0674-10.21z"/></g><g id="e"><polygon fill="#fcea2b" points="26.408 39.202 32.08 49.369 54.249 37.09 58.408 33.525 61.889 35.384 64.142 34.057 64.953 31.129 58.555 27.036 56.16 27.036 53.649 27.669 51.563 30.036 50.144 32.524"/></g><g id="f" fill="none" stroke="#000" stroke-linecap="round" stroke-width="2"><path stroke-linejoin="round" d="M21.2516,27.5356c-.0029-.6543-.0029-1.3223-.0029-2,0-7,5-14,14-14a13.75,13.75,0,0,1,14,13.4954q.0047.2523,0,.5046c0,.6.0039,1.1318.0049,1.666"/><path stroke-linejoin="round" d="m46.212 29.534a11.66 11.66 0 0 0-0.9629-3.998c-3-3-7-8-7-8-4 3-7 6-13 7 0 0-0.9287 0.873-1.05 5.0693"/><path stroke-linejoin="round" d="m47.181 46.985c3.85 1.1778 7.0674 4.5469 7.0674 8.5508v5.4226"/><path stroke-miterlimit="10" d="m54.16 37.036-14.433 9.0118a58.459 58.459 0 0 1-11.937 5.69c-2.4385 0.8393-4.6463 1.5969-4.6463 1.5969"/><path stroke-miterlimit="10" d="m58.73 33.622 1.8149 1.1067a2.7369 2.7369 0 0 0 3.2106-0.2627 2.7321 2.7321 0 0 0 0.3381-3.8073 12.152 12.152 0 0 0-5.3648-3.5348 6.1469 6.1469 0 0 0-4.9344 0.377 3.3866 3.3866 0 0 0-0.6987 0.4977l-0.5025 0.4643a3.3845 3.3845 0 0 0-0.73 0.9721l-0.5832 1.1668a4.7 4.7 0 0 1-1.97 2.0334 80.915 80.915 0 0 0-13.934 4.0547l-13.512 5.0544a8.1235 8.1235 0 0 0-5.2372 6.6187 91.684 91.684 0 0 0-0.4671 11.672"/><path stroke-miterlimit="10" d="m29.08 29.496s2.53 1.5112 4.0415 0"/><path stroke-miterlimit="10" d="m37.412 29.269s2.53 1.5112 4.0415 0"/><path stroke-linejoin="round" d="m26.324 37.59s-3.9807 1.0222-4.5279-5.5161"/><path stroke-miterlimit="10" d="m29.08 42.511s-0.0059 2.5532 2.0208 3.4468"/><path stroke-linejoin="round" d="m36.188 51.083q5.2653 0.7349 10.53-3.6528"/></g></svg>