<?xml version="1.0" encoding="UTF-8"?>
<svg id="a" viewBox="0 0 72 72" xmlns="http://www.w3.org/2000/svg"><g id="b"><g id="c"><path d="m26 38.042c-3 0-4-7-4-14 0-6 5-12 14-12s14 6 14 12c0 7-1 14-4 14" fill="#f1b31c"/></g></g><g id="d"><g id="e"><path d="m24.847 28.663c-0.1 8 4.1 14 11 14 7.1 0 11.1-6 11.1-14 0-5-3-10-3-10-8 0-10 3-16 1a17.302 17.302 0 0 0-3.1 9z" fill="#fcea2b"/></g><path d="m48.083 46.181c-4.9472 7.4285-9.7691 5.8349-14.06 3.5477l-6.713-10.814-8.41 4.992-0.5249 2.19-0.4338-0.0808-0.2113 2.7711-0.5792 2.4164 0.3994-0.0565-0.2467 3.2389a12.776 12.776 0 0 0-0.1527 2.0052v4.28h38v-4.28c-3e-4 -5.3435-3.7494-8.6466-7.0678-10.21z" fill="#92d3f5"/></g><g id="f"><polygon points="27.31 38.915 32.982 49.081 55.15 36.803 59.31 33.237 62.791 35.097 65.044 33.77 65.854 30.842 59.457 26.748 57.062 26.748 54.55 27.382 52.465 29.748 51.046 32.236" fill="#fcea2b"/></g><g id="g" fill="none" stroke="#000" stroke-linecap="round" stroke-width="2"><path d="m48.083 46.697c3.85 1.1778 7.0674 4.5469 7.0674 8.5508v5.4227" stroke-linejoin="round"/><path d="m55.062 36.748-14.433 9.0119a58.464 58.464 0 0 1-11.937 5.69c-2.4384 0.8392-4.6463 1.5968-4.6463 1.5968" stroke-miterlimit="10"/><path d="m59.632 33.335 1.8149 1.1066a2.7369 2.7369 0 0 0 3.2107-0.2627 2.7321 2.7321 0 0 0 0.3381-3.8072 12.152 12.152 0 0 0-5.3649-3.5349 6.1467 6.1467 0 0 0-4.9343 0.3771 3.3808 3.3808 0 0 0-0.6987 0.4976l-0.5025 0.4644a3.3858 3.3858 0 0 0-0.73 0.972l-0.5834 1.1668a4.6985 4.6985 0 0 1-1.97 2.0334 80.926 80.926 0 0 0-13.933 4.055l-13.513 5.0541a8.1237 8.1237 0 0 0-5.2372 6.6187 91.664 91.664 0 0 0-0.4666 11.672" stroke-miterlimit="10"/><path d="m29.982 29.209s2.53 1.5112 4.0414 0" stroke-miterlimit="10"/><path d="m38.314 28.982s2.53 1.5112 4.0414 0" stroke-miterlimit="10"/><path d="M24.0459,35.0192A18.7362,18.7362,0,0,1,22.2871,28.94a16.51,16.51,0,0,1-.1338-1.6918c-.0014-.6543-.0029-1.3223-.0029-2,0-7,5-14,14-14a13.75,13.75,0,0,1,14,13.4954q.0047.2523,0,.5046c0,.6.0039,1.1318.0049,1.666" stroke-linejoin="round"/><path d="m29.982 42.223s-6e-3 2.5532 2.0207 3.4468" stroke-miterlimit="10"/><path d="m37.09 50.795q5.2653 0.735 10.53-3.6527" stroke-linejoin="round"/><path d="m47.05 29.663c0-5-3-11-3-11-8 0-10 3-16 1a30.602 30.602 0 0 0-2.2629 10" stroke-linejoin="round"/></g></svg>
