<?xml version="1.0" encoding="UTF-8"?>
<svg id="a" viewBox="0 0 72 72" xmlns="http://www.w3.org/2000/svg"><g id="b"><polygon points="11.888 33.851 49.753 9.409 64.019 31.776 26.256 56.404" fill="#d0cfce"/><path d="m46.35 38.515-0.1515-16.178v0.665c-5e-4 -3.0516 5.629-3.873 5.63 0.72l0.0523 5.5746 0.0992 10.604-0.1142-12.193c0-2.7491 4.8971-2.8421 4.8976 0.7032l3e-3 20.691c7e-4 4.6779-0.1322 9.5924-3.468 11.856-2.0455 1.3881-5.5544 1.1924-10.213 1.063-10.423-0.2895-8.9278-3.0279-11.752-8.452a43.66 43.66 0 0 1-2.4857-5.9813c-0.7839-2.2764-2.59-5.1116-2.5909-9.8859 1.8834-1.8839 6.4834 1.0582 7.5227 3.52l1.1174 2.2832-0.0029-19.982c0-3.1749 5.7438-3.4111 5.7444 0.5v-2.5311c-5e-4 -3.4183 5.56-4.61 5.5609 1.5109" fill="#92d3f5"/><rect x="35.638" y="61.723" width="18.128" height="5.0213" fill="#fff"/></g><g id="c"><polyline points="28.256 54.586 26.154 55.927 11.888 33.561 49.753 9.409 64.019 31.776 60.217 34.201" fill="none" stroke="#000" stroke-linecap="round" stroke-linejoin="round" stroke-width="2"/><line x1="40.64" x2="40.637" y1="39.9" y2="24.023" fill="none" stroke="#000" stroke-linecap="round" stroke-linejoin="round" stroke-width="1.7327"/><path d="M46.35,38.5154l-.1515-16.1778,0,.665c-.0005-3.0516,5.629-3.873,5.63.72l.0523,5.5746L51.98,39.9007l-.1142-12.1926c0-2.7491,4.8971-2.8421,4.8976.7032l.0031,21.1213c.0006,4.1454-.5144,6.8717-2.68,10.3392v2.2133H35.0317V59.8694c-1.8558-2.1982-3.0311-5.3354-4.2739-9.0062-.815-2.5337-2.5332-6.7293-4.5016-12.5434,1.18-2.3882,4.8619-.9094,6.6355,1.0892l2.0046,4.0962-.0029-19.9825c0-3.1749,5.7438-3.4111,5.7444.5l0-2.5311c-.0005-3.4183,5.56-4.61,5.5609,1.5109" fill="none" stroke="#000" stroke-linecap="round" stroke-linejoin="round" stroke-width="2"/><line x1="40.64" x2="40.637" y1="39.9" y2="24.023" fill="none" stroke="#000" stroke-linecap="round" stroke-linejoin="round" stroke-width="2"/><circle cx="27.766" cy="10.958" r="2"/><circle cx="37.085" cy="10.958" r="2"/><circle cx="15.128" cy="16" r="2"/><circle cx="19.128" cy="20" r="2"/><circle cx="15.383" cy="25.338" r="2"/><circle cx="23.362" cy="24.669" r="2"/><circle cx="28.256" cy="20.669" r="2"/><circle cx="23.766" cy="16" r="2"/><circle cx="31.808" cy="16" r="2"/><circle cx="19.128" cy="10.958" r="2"/><polyline points="35.032 62.085 35.032 66.706 54.086 66.745 54.086 62.085" fill="none" stroke="#000" stroke-linecap="round" stroke-linejoin="round" stroke-width="2"/></g></svg>
