<svg xmlns="http://www.w3.org/2000/svg" id="a" viewBox="0 0 72 72"><g id="b"><polygon fill="#a57939" points="12.902 14.702 35.007 17.003 35.362 61.053 39.106 61.053 39.106 13.552 12.902 11"/></g><g id="c"><g id="d"><g id="e" fill="#fcea2b"><path d="M59.8917,30.9781A3.0052,3.0052,0,0,0,56.95,28.0907H52.7569a3.0052,3.0052,0,0,0-2.9416,2.8874l-.5535,13.5857a.7131.7131,0,0,1-.0845.3054l2.05-1.4637L50.7288,58.874a.8615.8615,0,0,0,.1747.6143.1688.1688,0,0,0,.1062.0629c.15,0,.4585-.2982.5137-.7865l2.0258-15.7272a3.4412,3.4412,0,0,1,.2815-.8332l.5064-.5627h1.1356l.6877.4355a3.4427,3.4427,0,0,1,.246.9374L58.183,58.7633c.0552.4876.3648.7865.5143.7865a.17.17,0,0,0,.1063-.0629c.1343-.1736.342-.4089.3192-.629l-.6515-15.4523,2.4457,1.6982"/><circle cx="54.909" cy="22.845" r="2.075"/></g></g><g id="f"><g id="g" fill="#fcea2b"><path d="M21.4537,30.9782a3.0052,3.0052,0,0,0-2.9416-2.8874H14.3188a3.0053,3.0053,0,0,0-2.9416,2.8874l-.5535,13.5857a.71.71,0,0,1-.0845.3053l2.05-1.4636-.4988,15.4685a.8607.8607,0,0,0,.1748.6142.1677.1677,0,0,0,.1062.0629c.1495,0,.4585-.2981.5137-.7865l2.0257-15.7271a3.45,3.45,0,0,1,.2815-.8332l.5065-.5627h1.1356l.6877.4354a3.4444,3.4444,0,0,1,.246.9375l1.7765,15.7487c.0552.4877.3648.7865.5144.7865a.1684.1684,0,0,0,.1062-.0629c.1344-.1735.3421-.4088.3193-.6289l-.6515-15.4523,2.4456,1.6982"/><circle cx="16.471" cy="22.845" r="2.075"/></g></g><polygon fill="#6a462f" points="39.106 13.552 34.617 18 12.902 14.851 12.902 10.766"/></g><g id="h"><polyline fill="none" stroke="#000" stroke-linecap="round" stroke-linejoin="round" stroke-width="2.224" points="13.902 14.702 35.007 17.003 35.362 61.053 39.106 61.053 38.873 13.552 13.902 11"/><g id="i"><g id="j" fill="none" stroke="#000" stroke-width="2"><g id="k"><circle cx="55.047" cy="23.097" r="2.075" stroke-miterlimit="10"/><path stroke-linecap="round" stroke-linejoin="round" d="M58.5178,32.14l1.3279,26.5574c.0385.7688-.4018,1.3978-.9784,1.3978a1.4509,1.4509,0,0,1-1.2084-1.3887L55.8824,43.309c-.09-.7639-.4746-1.3887-.859-1.3887s-.7708.6248-.8589,1.3887L52.39,58.706a1.4509,1.4509,0,0,1-1.2084,1.3887c-.5766,0-1.0169-.629-.9784-1.3978L51.5311,32.14"/><path stroke-linecap="round" stroke-linejoin="round" d="m48.736 44.719 0.5536-13.279a3.6858 3.6858 0 0 1 3.64-3.4944h4.1933"/></g><path stroke-linecap="round" stroke-linejoin="round" d="m57.071 27.946a3.6859 3.6859 0 0 1 3.64 3.4944l0.5535 13.279"/></g></g><g id="l"><g id="m" fill="none" stroke="#000" stroke-width="2"><g id="n"><circle cx="16.609" cy="23.164" r="2.075" stroke-miterlimit="10"/><path stroke-linecap="round" stroke-linejoin="round" d="M20.08,32.2056,21.4077,58.763c.0384.7688-.4019,1.3978-.9785,1.3978a1.4509,1.4509,0,0,1-1.2083-1.3887l-1.7766-15.397c-.09-.7639-.4745-1.3887-.8589-1.3887s-.7709.6248-.8589,1.3887L13.952,58.7721a1.4509,1.4509,0,0,1-1.2084,1.3887c-.5765,0-1.0168-.629-.9784-1.3978l1.3279-26.5574"/><path stroke-linecap="round" stroke-linejoin="round" d="m10.298 44.785 0.5535-13.279a3.686 3.686 0 0 1 3.64-3.4944h4.1933"/></g><path stroke-linecap="round" stroke-linejoin="round" d="m18.633 28.012a3.686 3.686 0 0 1 3.64 3.4944l0.5535 13.279"/></g></g><circle cx="26.112" cy="29.338" r="2"/><circle cx="9.297" cy="19.003" r="2"/><circle cx="7" cy="26.023" r="2"/><circle cx="22.826" cy="20" r="2"/><circle cx="28.112" cy="23.784" r="2"/></g></svg>