<?xml version="1.0" encoding="UTF-8"?>
<svg id="a" viewBox="0 0 72 72" xmlns="http://www.w3.org/2000/svg"><g id="b"><polygon id="_" points="40.999 32.238 39.395 34.016 43.384 37.745 27.644 37.745 31.633 34.016 30.029 32.238 22.787 39.089 30.029 45.94 31.633 44.162 27.644 40.433 43.384 40.433 39.395 44.162 40.999 45.94 48.241 39.089" fill="#3f3f3f"/></g><g id="c"><g id="d" fill="#fcea2b"><path d="M18.3219,26.6717A3.0052,3.0052,0,0,0,15.38,23.7843H11.187a3.0053,3.0053,0,0,0-2.9416,2.8874L7.6919,40.2574a.71.71,0,0,1-.0845.3054l2.05-1.4637L9.1589,54.5676a.8611.8611,0,0,0,.1748.6143.1686.1686,0,0,0,.1062.0629c.1495,0,.4585-.2982.5137-.7865l2.0257-15.7271a3.4491,3.4491,0,0,1,.2815-.8333l.5065-.5627h1.1356l.6877.4355a3.4427,3.4427,0,0,1,.246.9374l1.7765,15.7488c.0552.4876.3648.7865.5144.7865a.1688.1688,0,0,0,.1062-.0629c.1344-.1735.3421-.4089.3193-.629l-.6515-15.4522,2.4456,1.6981"/><circle cx="13.34" cy="18.539" r="2.075"/></g><g id="e"><g id="f" fill="#fcea2b"><path d="M63.7651,27.1356a3.0052,3.0052,0,0,0-2.9416-2.8874H56.63a3.0052,3.0052,0,0,0-2.9416,2.8874l-.5535,13.5857a.71.71,0,0,1-.0845.3053l2.05-1.4636-.4988,15.4685a.8608.8608,0,0,0,.1748.6142.1677.1677,0,0,0,.1062.0629c.15,0,.4584-.2981.5137-.7865L57.4225,39.195a3.45,3.45,0,0,1,.2815-.8332l.5065-.5627h1.1356l.6877.4354a3.4427,3.4427,0,0,1,.246.9374l1.7765,15.7488c.0552.4877.3648.7865.5144.7865a.1688.1688,0,0,0,.1062-.0629c.1343-.1735.3421-.4088.3193-.629l-.6515-15.4522L64.79,41.2612"/><circle cx="58.783" cy="19.003" r="2.075"/></g></g></g><g id="g"><g id="h"><g id="i" fill="none" stroke="#000" stroke-width="2"><g id="j"><circle cx="13.34" cy="18.539" r="2.075" stroke-miterlimit="10"/><path d="M16.81,27.5809l1.3279,26.5575c.0384.7688-.4019,1.3977-.9785,1.3977a1.4509,1.4509,0,0,1-1.2083-1.3886L14.1747,38.75c-.09-.7638-.4745-1.3886-.8589-1.3886s-.7709.6248-.8589,1.3886L10.6824,54.1475a1.4509,1.4509,0,0,1-1.2083,1.3886c-.5766,0-1.0169-.629-.9785-1.3977L9.8235,27.5809" stroke-linecap="round" stroke-linejoin="round"/><path d="m7.0279 40.161 0.5535-13.279a3.6859 3.6859 0 0 1 3.64-3.4944h4.1933" stroke-linecap="round" stroke-linejoin="round"/></g><path d="m15.364 23.388a3.686 3.686 0 0 1 3.64 3.4944l0.5535 13.279" stroke-linecap="round" stroke-linejoin="round"/></g></g><g id="k"><g id="l" fill="none" stroke="#000" stroke-width="2"><g id="m"><circle cx="58.783" cy="19.003" r="2.075" stroke-miterlimit="10"/><path d="M62.2534,28.0448l1.3279,26.5574C63.62,55.371,63.1794,56,62.6028,56a1.4509,1.4509,0,0,1-1.2083-1.3887l-1.7766-15.397c-.09-.7639-.4745-1.3887-.8589-1.3887s-.7709.6248-.8589,1.3887l-1.7745,15.397A1.4509,1.4509,0,0,1,54.9173,56c-.5766,0-1.0169-.629-.9785-1.3978l1.3279-26.5574" stroke-linecap="round" stroke-linejoin="round"/><path d="m52.471 40.625 0.5535-13.279a3.686 3.686 0 0 1 3.64-3.4944h4.1933" stroke-linecap="round" stroke-linejoin="round"/></g><path d="M60.8067,23.8514a3.686,3.686,0,0,1,3.64,3.4944L65,40.6246" stroke-linecap="round" stroke-linejoin="round"/></g></g><polygon id="n" points="40.999 32.238 39.395 34.016 43.384 37.745 27.644 37.745 31.633 34.016 30.029 32.238 22.787 39.089 30.029 45.94 31.633 44.162 27.644 40.433 43.384 40.433 39.395 44.162 40.999 45.94 48.241 39.089"/></g></svg>
