<svg xmlns="http://www.w3.org/2000/svg" id="a" viewBox="0 0 72 72"><g id="b"><path fill="#92d3f5" d="m32.088 60.149h-16.275v-29.453h7.9871a105.34 105.34 0 0 1 7.2549 9.6081c3.1125 4.9454 1.0331 19.845 1.0331 19.845z"/><polyline fill="#ea5a47" points="32.157 43.944 22.542 43.944 22.606 57.397 32.189 57.397"/><path fill="#fff" d="M23.8,30.6956h0a11.9539,11.9539,0,0,0,.7-4.0306V22.84l8.4869-3.1131V16h-8.844c-5.918,0-8.33,6.4915-8.33,6.4915v8.2041"/><path fill="#fff" d="M27.9347,22.5106c-.3521,2.1438,3.8126,8.5738,3.8126,8.5738l.4227-.1161a1.2323,1.2323,0,0,0,.86-1.55,38.2716,38.2716,0,0,1-.94-7.477l.1662-1.6927"/></g><g id="c"><path fill="#d0cfce" d="M31.2128,22.0638s-2.6171,1.6117-1.8511,5.9761L27.33,22.83l-.2022-1.0392,4.0851-1.4134Z"/><path fill="#61b2e4" d="m21.782 31.084s7.2394 8.1232 8.7181 12.86l2.2682-0.4974-8.4777-12.751z"/><path fill="#d22f27" d="M30.2872,43.9574s.3192,11.5213-.4787,13.2128l2.96.2271-.1193-13.44Z"/><polygon fill="#61b2e4" points="30.702 57.553 29.809 59.628 31.851 59.787 31.851 57.713"/></g><g id="d"><path fill="none" stroke="#000" stroke-linecap="round" stroke-linejoin="round" stroke-width="2" d="m32.197 60.149h-16.275v-29.453h7.9866a105.34 105.34 0 0 1 7.2549 9.6081c3.113 4.9454 1.0336 19.845 1.0336 19.845z"/><polyline fill="none" stroke="#000" stroke-linecap="round" stroke-linejoin="round" stroke-width="2" points="32.266 43.944 22.651 43.944 22.715 57.397 32.298 57.397"/><path fill="none" stroke="#000" stroke-linecap="round" stroke-linejoin="round" stroke-width="2" d="M15.9221,30.6956V22.4915S18.3336,16,24.2517,16h8.844v3.7266L24.6088,22.84v5.9014l-.7,1.9545"/><path fill="none" stroke="#000" stroke-linecap="round" stroke-linejoin="round" stroke-width="2" d="M27.3511,22.5106c-.3522,2.1438,3.8125,8.5738,3.8125,8.5738l.4227-.1161a1.2323,1.2323,0,0,0,.86-1.55,38.2716,38.2716,0,0,1-.94-7.477l.1662-1.6927"/><rect width="2.978" height="5.601" x="33.032" y="14.994"/><circle cx="54.043" cy="17.791" r="2"/><circle cx="54.043" cy="8.791" r="2"/><circle cx="47.836" cy="13.791" r="2"/><circle cx="47.836" cy="21.791" r="2"/><circle cx="54.043" cy="26.956" r="2"/><circle cx="40.87" cy="17.791" r="2"/></g></svg>