<?xml version="1.0" encoding="UTF-8"?>
<svg id="a" viewBox="0 0 72 72" xmlns="http://www.w3.org/2000/svg"><g id="b"><path d="m35.274 43.546-15.166-0.1792 4.2215-10.684-0.8418-1.6218s2.691-2.5672 5.8842-1.6706 5.07 2.8526 5.1005 5.681a5.3492 5.3492 0 0 1-1.8382 4.2263 3.4343 3.4343 0 0 1 2.6395 4.2485z" fill="#92d3f5"/><circle cx="38.74" cy="26.444" r="1.5788" fill="#92d3f5"/><path d="M53.0251,16.0509H49.9515c-6.32,0-6.8361,5.03-6.8361,6.8361a.6093.6093,0,0,0,.6449.6449h3.2246a.6858.6858,0,0,0,.6449-.58,2.4934,2.4934,0,0,1,2.3862-2.4507H60.3551l.085-.6449.56-3.16-.15-.645H53.0251Z" fill="#d0cfce"/><circle cx="29.797" cy="22.294" r="2.6809" fill="#92d3f5"/></g><g id="c"><path d="M21.631,31.7458,10.7656,45.4591s-3.6843,9.4143,1.1337,12.0724,8.2092,2.25,8.2092,2.25h8.8757s4.9868.962,4.734-3.2595l1.6224-.305a2.6569,2.6569,0,0,0,.27-4.4011s4.7615-1.6526.72-4.1828a3.6885,3.6885,0,0,0-.72-3.8747l-15.5022-.3165L24.33,32.7574a1.0684,1.0684,0,0,0-.8418-1.6218C21.977,30.8461,21.631,31.7458,21.631,31.7458Z" fill="#fcea2b"/><path d="M34.8217,33.5449l9.7166-4.47s3.1648.2048,1.9371,2.3351l-8.7885,7.3548L50.48,45.777s1.7953,1.49.7548,2.5888a3.1149,3.1149,0,0,1-1.8442,1.137s1.8908,1.5454.9069,2.8953-1.991,1.123-1.991,1.123-.9585,2.3751-1.1472,2.621a13.88,13.88,0,0,1-3.0947.2276l-1.2355,0-.48,2.2173-1.22.4809-6.0583-2.6426,1.58-2.9045-.32-1.9776,1.3564-3.1243L36.3305,46.706l-.1784-2.6347-.8375-.8494-.7917-2.7659-1.8881-1.1582,1.6336-2.9151Z" fill="#fcea2b"/><path d="m33.718 32.449s-1.36 6.7243-10.288 6.8488h9.8965" fill="#61b2e4"/><path d="M38.2052,24.3732s2.0631,2.2854.8174,4.0108l1.8153-1.107-.4556-2.2435Z" fill="#61b2e4"/><path d="M29.7967,19.6136s2.3457,2.9762,0,5.3617-.3833.2952-.3833.2952l3.4032-1.4647L32.7172,21.54l-1.088-1.6343Z" fill="#61b2e4"/><path d="m50.26 16.873a6.4367 6.4367 0 0 0-4.9829 1.75c-1.3349 1.439-1.3349 4.2-1.3349 4.2a10.909 10.909 0 0 1 2.5454-3.9669 5.854 5.854 0 0 1 3.7724-1.9831z" fill="#9b9b9a"/></g><g id="d" fill="none" stroke="#000" stroke-linecap="round" stroke-linejoin="round"><path d="m51.282 11.254h8.4751" stroke-width="1.6969"/><path d="m55.52 16.051v-4.7972" stroke-width="1.6969"/><path d="M60.5705,16.0509H49.9515c-6.32,0-6.8361,5.03-6.8361,6.8361a.6093.6093,0,0,0,.6449.6449h3.2246a.6858.6858,0,0,0,.6449-.58,2.4934,2.4934,0,0,1,2.3862-2.4507h9.7792" stroke-width="1.6969"/><path d="M22.3057,43.46l-2.1972-.0179L24.33,32.7574s.2165-2.3313-2.3853-1.3887L11.8579,44.22a12.058,12.058,0,0,0-2.595,6.2619,9.8694,9.8694,0,0,0,.6683,4.7683c1.969,4.7126,9.05,4.7192,10.9623,4.6249" stroke-width="2"/><path d="M22.0851,43.4667H35.3406s2.3684.7844.99,3.2393" stroke-width="2"/><path d="m24.587 47.548h11.541s1.5118 0.5235 1.5118 1.8715-1.5118 1.9124-1.5118 1.9124" stroke-width="2"/><path d="m24.555 51.834h10.786s1.6246-0.3709 1.6246 1.6247a2.06 2.06 0 0 1-1.5542 2.2506h-10.538" stroke-width="2"/><path d="m32.817 56.064a2.5062 2.5062 0 0 1 0.6313 2.1731 1.6922 1.6922 0 0 1-1.4447 1.6386h-6.635" stroke-width="2"/><path d="m25.75 29.814a5.9717 5.9717 0 0 1 5.7644 0.1979c1.6539 0.827 3.4629 3.4935 2.9111 5.862a10.308 10.308 0 0 1-1.9485 3.4244 3.1616 3.1616 0 0 1 1.8938 1.7615" stroke-width="2"/><path d="M30.49,33.2178a4.5106,4.5106,0,0,0-3.6907.2887" stroke-width="2"/><path d="M37.1616,32.5014l7.2316-3.136s1.9978-.3741,1.9809,1.1825a2.2545,2.2545,0,0,1-.8417,1.6578L37.64,38.91l4.2228,2.3918" stroke-width="2"/><path d="M41.4471,41.0756,50.35,45.9244a1.9542,1.9542,0,0,1,1.0656,1.6513,1.7322,1.7322,0,0,1-.18.79c-.5359,1.088-2.2139,1.0566-2.2139,1.0566" stroke-width="2"/><path d="M39.6555,44.503l9.3653,4.9194a2.7486,2.7486,0,0,1,1.4164,1.7007,1.8324,1.8324,0,0,1-.2335,1.5236c-.9176,1.39-2.8989,1.0031-2.8989,1.0031" stroke-width="2"/><path d="M39.75,49.8512,47.0981,53.52a1.8386,1.8386,0,0,1,.6977,2.8514,1.618,1.618,0,0,1-2.2849.543l-6.7306-2.98" stroke-width="2"/><path d="M43.0189,55.8106s.5473,1.9473-.3485,2.74a2.1873,2.1873,0,0,1-.6937.4152,2.3753,2.3753,0,0,1-1.8-.1132l-3.4154-1.5581" stroke-width="2"/><circle cx="38.74" cy="26.444" r="2.1972" stroke-width="2"/><circle cx="29.797" cy="22.294" r="2.8655" stroke-width="2"/></g></svg>
