<svg xmlns="http://www.w3.org/2000/svg" id="a" viewBox="0 0 72 72"><g id="b"><path fill="#fff" d="m28.77 17.596a3.8637 3.8637 0 0 0-3.8637 3.8637v16.428h7.7273v-16.428a3.8636 3.8636 0 0 0-3.8636-3.8637z"/><path fill="#ea5a47" d="M32.3923,48.9127a7.8209,7.8209,0,1,1-7.1763-.014V35.461s6.3086,1.1094,7.163-.7251Z"/><path fill="#fff" d="M37.2661,22.206a2.4562,2.4562,0,0,0-2.217,2.628l-.8037,7.0837-.9019,1.877c0,.1971.4545.3128.5653.2471l4.1887-1.1925a.3686.3686,0,0,1,.3326-.1314H53.783A2.4562,2.4562,0,0,0,56,30.09V24.834a2.4562,2.4562,0,0,0-2.217-2.628Z"/></g><g id="c"><path fill="#d22f27" d="M29.5311,36.047a8.5613,8.5613,0,0,0,3.1895-.8825l.0168,13.387a1.7357,1.7357,0,0,0,.38,1.0937c1.5413,1.8989,3.0231,3.7055,3.0231,6.4643a7.2153,7.2153,0,0,1-7.4163,7.1359s7.1832-5.41,1.203-11.7924a2.1565,2.1565,0,0,1-.3918-1.2619Z"/></g><g id="d" fill="none" stroke="#000" stroke-width="2"><g id="e" stroke-linecap="round" stroke-linejoin="round"><path d="m30.488 40.676a12.6 12.6 0 0 1-2.4173 0.1889c-1.59 0-2.8791-0.1853-2.8791-0.4138"/><path d="m30.488 46.149a12.6 12.6 0 0 1-2.4173 0.1889c-1.59 0-2.8791-0.1853-2.8791-0.4138"/><path d="m29.759 35.312a13.156 13.156 0 0 1-2.2837 0.07c-1.59 0-2.2837-0.1762-2.2837-0.4047"/><path d="m30.488 29.73a12.6 12.6 0 0 1-2.4173 0.1889c-1.59 0-2.8791-0.1853-2.8791-0.4138"/><path d="m32.42 37.888v10.831a2.1666 2.1666 0 0 0 0.9233 1.5989 7.2252 7.2252 0 1 1-11.086 2.5735"/><path d="m24.285 50.309a2.1032 2.1032 0 0 0 0.9068-1.59v-27.436a3.6137 3.6137 0 0 1 7.2273 0l0.0105 8.4285"/><path d="m30.488 24.257a12.6 12.6 0 0 1-2.4173 0.1889c-1.59 0-2.8791-0.1852-2.8791-0.4138"/></g><path stroke-miterlimit="10" d="M37.2661,22.206a2.4562,2.4562,0,0,0-2.217,2.628l-.52,6.7082-2.32,3.5085a.2268.2268,0,0,0,.1471.3411s5.9633-2.6739,6.0742-2.6739H53.783A2.4562,2.4562,0,0,0,56,30.09V24.834a2.4562,2.4562,0,0,0-2.217-2.628Z"/></g></svg>