<svg xmlns="http://www.w3.org/2000/svg" id="a" viewBox="0 0 72 72"><g id="b" fill="none" stroke="#000" stroke-linecap="round" stroke-width="2"><path d="M45 42H26"/><path d="M45 24H25.5"/><path d="m45.5 17h-20.361"/></g><g id="c"><path fill="#fff" fill-rule="evenodd" d="m22.034 13.033c-0.0187-0.565 0.4342-1.0331 0.9994-1.0331h24.93c0.5664 0 1.0197 0.47 0.9993 1.036l-0.1068 2.964h2e-4l-1.5163 42.072c-0.0388 1.0759-0.9222 1.928-1.9988 1.928h-19.818c-1.0788 0-1.9632-0.8556-1.9989-1.9339l-1.3919-42.066h-2e-4l-0.0981-2.9669z" clip-rule="evenodd"/><path fill="#A57939" d="m24.037 17.036c-0.0203-0.566 0.433-1.0359 0.9993-1.0359h20.927c0.5662 0 1.0195 0.4698 0.9993 1.0357l-1.3936 39.036c-0.0384 1.0761-0.9219 1.9286-1.9987 1.9286h-17.098c-0.5383 0-0.98-0.4261-0.9993-0.9641l-1.4362-40z"/><path fill="#6A462F" fill-rule="evenodd" d="m46.108 41h-21.21l-0.8604-23.964c-0.0203-0.566 0.433-1.0359 0.9994-1.0359h20.927c0.5663 0 1.0196 0.4698 0.9993 1.0357l-0.8555 23.964z" clip-rule="evenodd"/><path fill="#fff" fill-rule="evenodd" d="m46.75 23h-22.499l-0.2142-5.9641c-0.0203-0.566 0.433-1.0359 0.9994-1.0359h20.927c0.5663 0 1.0196 0.4698 0.9993 1.0357l-0.2129 5.9643z" clip-rule="evenodd"/></g><g id="d"><path d="m22.034 13.033-0.9995 0.033 0.9995-0.033zm26.928 0.0029-0.9993-0.036 0.9993 0.036zm-0.1068 2.964-0.9993-0.036-0.0374 1.036h1.0367v-1zm2e-4 0 0.9993 0.036 0.0374-1.036h-1.0367v1zm-1.5163 42.072 0.9993 0.036-0.9993-0.036zm-23.815-0.0059-0.9995 0.0331 0.9995-0.0331zm-1.3919-42.066 0.9994-0.0331-0.032-0.9669h-0.9674v1zm-2e-4 0-0.9994 0.0331 0.032 0.9669h0.9674v-1zm0.9013-5c-1.1305 0-2.0363 0.9363-1.9989 2.0661l1.9989-0.0661v-2zm24.93 0h-24.93v2h24.93v-2zm1.9987 2.072c0.0408-1.132-0.8659-2.072-1.9987-2.072v2l1.9987 0.072zm-0.1068 2.964 0.1068-2.964-1.9987-0.072-0.1068 2.964 1.9987 0.072zm-0.9994 0.964h2e-4v-2h-2e-4v2zm-0.9992-1.036-1.5163 42.072 1.9987 0.072 1.5163-42.072-1.9987-0.072zm-1.5163 42.072c-0.0194 0.5379-0.4611 0.964-0.9994 0.964v2c1.6149 0 2.9399-1.2782 2.9981-2.892l-1.9987-0.072zm-0.9994 0.964h-19.818v2h19.818v-2zm-19.818 0c-0.5394 0-0.9816-0.4278-0.9995-0.9669l-1.9989 0.0661c0.0535 1.6174 1.3801 2.9008 2.9984 2.9008v-2zm-0.9995-0.9669-1.3919-42.066-1.9989 0.0662 1.3919 42.066 1.9989-0.0661zm-2.3915-41.033h2e-4v-2h-2e-4v2zm-1.0976-3.9339 0.0982 2.967 1.9989-0.0662-0.0982-2.9669-1.9989 0.0661z"/><path fill="none" stroke="#000" stroke-linecap="round" stroke-width="2" d="M34 57H43.5351C44.0735 57 44.5152 56.5737 44.5344 56.0357L46 15"/></g></svg>