<?xml version="1.0" encoding="UTF-8"?>
<svg id="a" viewBox="0 0 72 72" xmlns="http://www.w3.org/2000/svg"><g id="b"><circle cx="38.5" cy="15" r="2" fill="#ea5a47"/><circle cx="33.5" cy="15" r="2" fill="#ea5a47"/><circle cx="36" cy="11" r="2" fill="#ea5a47"/><path d="m60 57c0 1.6563-1.3428 3-3 3h-42c-1.6572 0-3-1.3437-3-3v-1h48v1z" fill="#fff" stroke-linecap="round" stroke-linejoin="round" stroke-miterlimit="10" stroke-width="2"/><path d="M55.7666,34.4141L58,56H14l2.2334-21.5859L17,27c0-5.5229,4.4775-10,10-10h18c5.5225,0,10,4.4771,10,10 L55.7666,34.4141z" fill="#fcea2b"/><path d="m55.533 34.414c-0.4961 0.3632-1.1035 0.5859-1.7666 0.5859-1.6572 0-3-1.3437-3-3v-2c0-1.6567-1.3428-3-3-3s-3 1.3433-3 3v2c0 1.6563-1.3428 3-3 3s-3-1.3437-3-3v-2c0-1.6567-1.3428-3-3-3s-3 1.3433-3 3v2c0 1.6563-1.3428 3-3 3s-3-1.3437-3-3v-2c0-1.6567-1.3428-3-3-3s-3 1.3433-3 3v2c0 1.6563-1.3428 3-3 3-0.6631 0-1.2705-0.2227-1.7666-0.5859l0.7666-7.4141c0-5.5229 4.4775-10 10-10h18c5.5225 0 10 4.4771 10 10l0.7666 7.4141z" fill="#a57939"/></g><g id="c" fill="none" stroke="#000" stroke-linecap="round" stroke-linejoin="round" stroke-miterlimit="10" stroke-width="2"><path d="m60 57c0 1.6563-1.3428 3-3 3h-42c-1.6572 0-3-1.3437-3-3v-1h48v1z"/><circle cx="38.5" cy="15" r="2"/><circle cx="33.5" cy="15" r="2"/><circle cx="36" cy="11" r="2"/><path d="M16.2334,34.4141L17,27c0-5.5229,4.4775-10,10-10h18c5.5225,0,10,4.4771,10,10l0.7666,7.4141"/><polyline points="16.233 34.414 14 56 58 56 55.767 34.414"/><path d="m16.233 34.414c0.4961 0.3632 1.1035 0.5859 1.7666 0.5859 1.6572 0 3-1.3437 3-3v-2c0-1.6567 1.3428-3 3-3s3 1.3433 3 3v2c0 1.6563 1.3428 3 3 3s3-1.3437 3-3v-2c0-1.6567 1.3428-3 3-3s3 1.3433 3 3v2c0 1.6563 1.3428 3 3 3s3-1.3437 3-3v-2c0-1.6567 1.3428-3 3-3s3 1.3433 3 3v2c0 1.6563 1.3428 3 3 3 0.6631 0 1.2705-0.2227 1.7666-0.5859"/></g></svg>
