<svg xmlns="http://www.w3.org/2000/svg" id="a" viewBox="0 0 72 72"><g id="b"><path fill="#fff" d="M41.8312,61.958a3.7524,3.7524,0,0,1-.4794-.0293H29.6545a3.8959,3.8959,0,0,1-2.9776-.9873,1.987,1.987,0,0,1-.5449-1.456l-.0039-11.7276a1,1,0,0,1,1-1H43.6789a1,1,0,0,1,1,1v11.45a2.6241,2.6241,0,0,1-.8916,2.1133A3.0431,3.0431,0,0,1,41.8312,61.958ZM28.1281,59.5664v.0049l.001.001Z"/><path fill="#d0cfce" d="m43.679 46.758h-4.8223v15.171h2.4952a3.7524 3.7524 0 0 0 0.4794 0.0293 3.0431 3.0431 0 0 0 1.9561-0.6367 2.6241 2.6241 0 0 0 0.8916-2.1133v-11.45a1 1 0 0 0-1-1.0002z"/><path fill="#a57939" d="m36 48.758c-13.371 0-26 0-26-10 0-9.4775 11.648-24 26-24s26 14.522 26 24c0 10-12.629 10-26 10z"/><path fill="#6a462f" d="m36 14.758a21.854 21.854 0 0 0-4.9365 0.5776c11.993 2.7761 21.063 15.06 21.063 23.422 0 8.755-9.68 9.8449-21.063 9.9807 1.6189 0.0193 3.2717 0.0193 4.9365 0.0193 13.371 0 26 0 26-10 0-9.4778-11.647-24-26-24z"/></g><g id="c" fill="none" stroke="#000" stroke-linecap="round" stroke-linejoin="round" stroke-width="2"><path d="m27.128 51.532v8.0389s-0.1171 1.358 2.5264 1.358h11.769s2.2545 0.3973 2.2545-1.72v-7.677"/><path d="m61 38.758c0 8.8366-11.193 9-25 9s-25-0.1634-25-9 11.193-23 25-23 25 14.163 25 23z"/><path d="m61 38.758c0 8.8366-11.193 9-25 9s-25-0.1634-25-9 11.193-23 25-23 25 14.163 25 23z"/></g></svg>