<?xml version="1.0" encoding="UTF-8"?>
<svg id="a" viewBox="0 0 72 72" xmlns="http://www.w3.org/2000/svg"><g id="b"><path d="m62.043 37.787c0-9.4775-11.647-24-26-24s-26 14.522-26 24c0 7.76 7.6324 9.3875 16.13 9.8276l3e-3 10.899a1.9886 1.9886 0 0 0 0.5449 1.457 3.8985 3.8985 0 0 0 2.9775 0.9873h11.51a3.8985 3.8985 0 0 0 2.9775-0.9873 1.9562 1.9562 0 0 0 0.5486-1.371l-8e-4 -10.929c8.5498-0.3243 17.309-1.5655 17.309-9.8832zm-33.871 20.813v-4e-3l9e-4 0.0049z" fill="#fff"/><g fill="#a57939"><polygon points="28.171 54.888 28.17 54.883 28.17 54.887"/><path d="M44.1838,56.2578a3.899,3.899,0,0,1-2.9775.9873h-11.51a3.8989,3.8989,0,0,1-2.9775-.9873,1.9889,1.9889,0,0,1-.545-1.4571V58.514a1.9888,1.9888,0,0,0,.545,1.457,3.8985,3.8985,0,0,0,2.9775.9873h11.51a3.8986,3.8986,0,0,0,2.9775-.9873A1.956,1.956,0,0,0,44.7326,58.6l0-3.7046A1.9579,1.9579,0,0,1,44.1838,56.2578ZM28.17,58.6V58.596l.001.0049Z"/></g><g fill="#6a462f"><path d="M51.51,41.0729a3.9926,3.9926,0,0,0-2.58-2.9317,4.0859,4.0859,0,0,0-4.1387.0254c-2.1855,1.4893-2.0752,5.292-2.0566,5.6748v2.8731l.0029.0142c0,.006-.0032.011-.0029.017a.9524.9524,0,0,0,.0493.2125,1.007,1.007,0,0,0,.0359.1554.9739.9739,0,0,0,.1242.1844.5518.5518,0,0,0,.292.2643.9658.9658,0,0,0,.1133.0745.9934.9934,0,0,0,.3843.0777h.0322c1.6543-.0518,3.0986-.13,4.4141-.2413a.9915.9915,0,0,0,.8347-.628C49.78,46.0374,51.9426,43.5032,51.51,41.0729Z"/><path d="M26.1142,38.1666a4.086,4.086,0,0,0-4.1386-.0254,3.9891,3.9891,0,0,0-2.5791,2.9307c-.4942,2.7754,2.3935,5.6855,2.7246,6.0078a.9987.9987,0,0,0,.4712.2412.9338.9338,0,0,0,.1206.0381c1.3076.1406,2.7519.2422,4.416.3125.0142.001.0276.001.042.001h.001a.9894.9894,0,0,0,.382-.0773.9761.9761,0,0,0,.1275-.0829.9945.9945,0,0,0,.1865-.1257,7.2319,7.2319,0,0,0,.2151-.3106,1.0475,1.0475,0,0,0,.041-.17.9677.9677,0,0,0,.0459-.1912c0-.0074-.0034-.0136-.0034-.0209s.0044-.0136.0044-.0211l-.001-2.7852C28.1894,43.4586,28.3,39.6559,26.1142,38.1666Z"/></g></g><g id="c" fill="none" stroke="#000" stroke-linecap="round" stroke-linejoin="round" stroke-width="2"><path d="M22.82,46.3643s-5.2779-5.1456-.4356-7.31c5.1124-2.2848,4.7872,4.7872,4.7872,4.7872V58.6084s-.1171,1.358,2.5264,1.358h11.51c2.6435,0,2.5264-1.358,2.5264-1.358V43.8418s-.3251-7.072,4.7872-4.7872c4.8424,2.1641-.4355,7.31-.4355,7.31"/><path d="m27.171 46.672c-9.4278-0.3943-16.128-2.0392-16.128-8.8763 0-8.8366 11.193-23 25-23s25 14.163 25 23c0 7.1191-7.2648 8.6088-17.309 8.919"/></g></svg>
