<?xml version="1.0" encoding="UTF-8"?>
<svg id="a" viewBox="0 0 72 72" xmlns="http://www.w3.org/2000/svg"><g id="b"><path id="c" d="M46.1875 18.3669C42.9707 23.2635 41 31.0078 41 34C41 31.592 44.1199 26.3626 48.3961 22M34.2004 17.0374C30.9759 21.7332 29 29.2993 29 32.8947C29 29.8757 32.4056 24.3369 36.9774 20.0171M20.8901 20.324C18.449 24.9305 17 30.9211 17 34C17 30.9524 20.4704 25.337 25.1076 21" fill="none" stroke="#000" stroke-linecap="round" stroke-linejoin="round" stroke-width="2"/></g><g id="d"><path d="m64 41c0 10.493-12.536 14-28 14s-28-3.5066-28-14 8-24 28-24 28 13.507 28 24z" fill="#6A462F"/><path d="m46.188 18.367c1.5456 0.4533 2.9802 1.0088 4.3079 1.6502-5.3151 4.6278-9.4954 11.196-9.4954 13.983 0-2.9922 1.9707-10.736 5.1875-15.633z" fill="#A57939"/><path d="m40.358 17.227c-1.3843-0.149-2.8362-0.2272-4.3575-0.2272-0.611 0-1.2109 0.0126-1.7996 0.0373-3.2245 4.6959-5.2004 12.262-5.2004 15.857 0-3.727 5.1903-11.294 11.358-15.668z" fill="#A57939"/><path d="m29.596 17.506c-6.6947 4.1783-12.596 12.519-12.596 16.494 0-3.0789 1.449-9.0695 3.8901-13.676 2.4969-1.2884 5.3897-2.2664 8.7064-2.8177z" fill="#A57939"/><path d="m46.188 18.367c1.5456 0.4533 2.9802 1.0088 4.3079 1.6502-5.3151 4.6278-9.4954 11.196-9.4954 13.983 0-2.9922 1.9707-10.736 5.1875-15.633z" fill="none" stroke="#A57939" stroke-linejoin="round" stroke-width="2"/><path d="m40.358 17.227c-1.3843-0.149-2.8362-0.2272-4.3575-0.2272-0.611 0-1.2109 0.0126-1.7996 0.0373-3.2245 4.6959-5.2004 12.262-5.2004 15.857 0-3.727 5.1903-11.294 11.358-15.668z" fill="none" stroke="#A57939" stroke-linejoin="round" stroke-width="2"/><path d="m29.596 17.506c-6.6947 4.1783-12.596 12.519-12.596 16.494 0-3.0789 1.449-9.0695 3.8901-13.676 2.4969-1.2884 5.3897-2.2664 8.7064-2.8177z" fill="none" stroke="#A57939" stroke-linejoin="round" stroke-width="2"/></g><g id="e"><path d="m64 41c0 10.493-12.536 14-28 14s-28-3.5066-28-14 8-24 28-24 28 13.507 28 24z" fill="none" stroke="#000" stroke-width="2"/></g></svg>
