<svg xmlns="http://www.w3.org/2000/svg" id="a" viewBox="0 0 72 72"><g id="b"><path fill="#ea5a47" d="m36 64c15.464 0 28-12.536 28-28s-12.536-28-28-28-28 12.536-28 28 12.536 28 28 28z"/><path fill="#fff" fill-rule="evenodd" d="m49.474 22.604c2.9743 2.9913 4.9592 6.9675 5.4225 11.396h-7.0619c-0.9522-5.6754-5.8881-10-11.834-10-1.6207 0-3.1663 0.3213-4.5767 0.9036l-3.7436-5.9897c2.5128-1.226 5.3362-1.9139 8.3203-1.9139 1.6895 0 3.3276 0.2205 4.8869 0.6344 0.0804-0.1908 0.1736-0.3787 0.2798-0.5626 1.3807-2.3915 4.4386-3.2108 6.8301-1.8301s3.2108 4.4386 1.8301 6.8301c-0.1079 0.187-0.2261 0.3643-0.3534 0.5317zm-31.82 18.354c-0.2138 0.0279-0.4319 0.0423-0.6533 0.0423-2.7614 0-5-2.2386-5-5s2.2386-5 5-5c0.2214 0 0.4395 0.0144 0.6533 0.0423 1.0832-4.0182 3.4512-7.5093 6.6362-10.006l3.7434 5.9894c-2.4741 2.1982-4.0329 5.4039-4.0329 8.9738s1.5588 6.7756 4.0329 8.9738l-3.7434 5.9894c-3.185-2.4962-5.553-5.9873-6.6362-10.006zm31.831 8.4275c0.1303 0.1704 0.2511 0.3512 0.3612 0.5419 1.3807 2.3915 0.5613 5.4494-1.8301 6.8301-2.3915 1.3807-5.4494 0.5614-6.8302-1.8301-0.1068-0.1851-0.2005-0.3741-0.2813-0.5661-1.5645 0.4168-3.2084 0.639-4.9042 0.639-2.9841 0-5.8075-0.6879-8.3203-1.9139l3.7436-5.9897c1.4104 0.5823 2.956 0.9036 4.5767 0.9036 5.946 0 10.882-4.3246 11.834-10h7.0619c-0.4627 4.4234-2.4432 8.3952-5.4114 11.385z" clip-rule="evenodd"/></g><g id="c"><path d="m54.896 34v1c0.2833 0 0.5533-0.1202 0.743-0.3307 0.1896-0.2105 0.281-0.4916 0.2516-0.7734l-0.9946 0.1041zm-5.4225-11.396-0.796-0.6052c-0.3021 0.3972-0.265 0.9564 0.0869 1.3103l0.7091-0.7051zm-1.6394 11.396-0.9862 0.1654c0.0808 0.4817 0.4977 0.8346 0.9862 0.8346v-1zm-16.411-9.0964-0.848 0.53c0.2587 0.414 0.7784 0.5806 1.2296 0.3943l-0.3816-0.9243zm-3.7436-5.9897-0.4385-0.8988c-0.2547 0.1243-0.4447 0.3508-0.5228 0.6232-0.0781 0.2725-0.0369 0.5652 0.1133 0.8056l0.848-0.53zm13.207-1.2795-0.2566 0.9665c0.4818 0.1279 0.9842-0.1186 1.178-0.5779l-0.9214-0.3886zm0.2798-0.5626-0.866-0.5 0.866 0.5zm6.8301-1.8301-0.5 0.866 0.5-0.866zm1.8301 6.8301 0.8661 0.5-0.8661-0.5zm-32.174 18.886 0.9655-0.2603c-0.1303-0.4835-0.5983-0.7961-1.0949-0.7313l0.1294 0.9916zm0-9.9154-0.1294 0.9916c0.4966 0.0648 0.9646-0.2478 1.0949-0.7313l-0.9655-0.2603zm6.6362-10.006 0.848-0.53c-0.1503-0.2405-0.3957-0.4059-0.6751-0.4549s-0.5665 0.0229-0.7897 0.1978l0.6168 0.7871zm3.7434 5.9894 0.6642 0.7476c0.3647-0.324 0.4424-0.8639 0.1838-1.2776l-0.848 0.53zm0 17.948 0.848 0.53c0.2586-0.4137 0.1809-0.9536-0.1838-1.2776l-0.6642 0.7476zm-3.7434 5.9894-0.6168 0.787c0.2232 0.175 0.5103 0.2469 0.7897 0.1979s0.5248-0.2144 0.6751-0.4549l-0.848-0.53zm25.556-1.0361 0.866-0.5-0.866 0.5zm-0.3612-0.5419-0.7097-0.7045c-0.352 0.3547-0.3882 0.9148-0.0847 1.3118l0.7944-0.6073zm-1.4689 7.372 0.5 0.8661-0.5-0.8661zm-6.8302-1.8301-0.866 0.5 0.866-0.5zm-0.2813-0.5661 0.9217-0.3879c-0.1936-0.46-0.6968-0.7069-1.1791-0.5784l0.2574 0.9663zm-13.224-1.2749-0.848-0.53c-0.1502 0.2404-0.1914 0.5331-0.1133 0.8056 0.0781 0.2724 0.2681 0.4989 0.5228 0.6232l0.4385-0.8988zm3.7436-5.9897 0.3816-0.9244c-0.4512-0.1862-0.9709-0.0196-1.2296 0.3944l0.848 0.53zm16.411-9.0964v-1c-0.4885 0-0.9054 0.3528-0.9862 0.8345l0.9862 0.1655zm7.0619 0 0.9946 0.104c0.0294-0.2817-0.062-0.5628-0.2516-0.7733-0.1897-0.2105-0.4597-0.3307-0.743-0.3307v1zm0.9946-4.1041c-0.4879-4.6638-2.5784-8.8499-5.708-11.997l-1.4182 1.4101c2.819 2.8351 4.6983 6.6014 5.137 10.795l1.9892-0.2081zm-8.0565 1.1041h7.0619v-2h-7.0619v2zm-11.834-10c5.4495 0 9.9752 3.9637 10.848 9.1654l1.9724-0.3309c-1.0316-6.1491-6.3778-10.834-12.82-10.834v2zm-4.1951 0.8279c1.2915-0.5332 2.7076-0.8279 4.1951-0.8279v-2c-1.7539 0-3.4291 0.3479-4.9584 0.9793l0.7633 1.8486zm-4.9732-6.384 3.7436 5.9897 1.696-1.06-3.7436-5.9897-1.696 1.06zm9.1683-3.4439c-3.1393 0-6.1124 0.724-8.7588 2.0151l0.8769 1.7975c2.3793-1.1608 5.053-1.8126 7.8819-1.8126v-2zm5.1434 0.6678c-1.6423-0.4358-3.3665-0.6678-5.1434-0.6678v2c1.6022 0 3.154 0.2091 4.6303 0.6009l0.5131-1.9331zm0.6649 1.3552c0.0643-0.1526 0.139-0.3033 0.2244-0.4512l-1.732-1c-0.127 0.22-0.2387 0.445-0.3352 0.674l1.8428 0.7772zm0.2244-0.4512c1.1046-1.9132 3.5509-2.5687 5.4641-1.4641l1-1.7321c-2.8697-1.6568-6.5393-0.6736-8.1961 2.1962l1.732 1zm5.4641-1.4641c1.9132 1.1046 2.5687 3.5509 1.4641 5.4641l1.7321 1c1.6568-2.8698 0.6736-6.5393-2.1962-8.1962l-1 1.7321zm1.4641 5.4641c-0.0868 0.1503-0.1816 0.2925-0.2834 0.4265l1.592 1.2105c0.1528-0.2009 0.2944-0.4134 0.4235-0.637l-1.7321-1zm-31.961 20.428c0.2648 0 0.5261-0.0172 0.7827-0.0507l-0.2588-1.9832c-0.171 0.0223-0.3459 0.0339-0.5239 0.0339v2zm-6-6c0 3.3137 2.6863 6 6 6v-2c-2.2091 0-4-1.7909-4-4h-2zm6-6c-3.3137 0-6 2.6863-6 6h2c0-2.2091 1.7909-4 4-4v-2zm0.7827 0.0507c-0.2566-0.0335-0.5179-0.0507-0.7827-0.0507v2c0.178 0 0.3529 0.0116 0.5239 0.0339l0.2588-1.9832zm0.8361 1.2519c1.0256-3.8046 3.2686-7.1126 6.2876-9.4787l-1.2337-1.5742c-3.3511 2.6264-5.8442 6.3005-6.9849 10.532l1.931 0.5206zm4.8227-9.7358 3.7434 5.9894 1.696-1.06-3.7434-5.9894-1.696 1.06zm3.9272 4.7119c-2.6786 2.3798-4.3687 5.8538-4.3687 9.7213h2c0-3.2722 1.4275-6.2098 3.6971-8.2262l-1.3284-1.4951zm-4.3687 9.7213c0 3.8675 1.6901 7.3415 4.3687 9.7213l1.3284-1.4951c-2.2696-2.0164-3.6971-4.954-3.6971-8.2262h-2zm4.1849 8.4438-3.7434 5.9894 1.696 1.06 3.7434-5.9894-1.696-1.06zm-2.2785 5.7323c-3.019-2.3661-5.262-5.6741-6.2876-9.4787l-1.931 0.5206c1.1407 4.2318 3.6338 7.9059 6.9849 10.532l1.2337-1.5741zm25.805-0.749c-0.1317-0.2281-0.2764-0.4447-0.4327-0.6492l-1.5889 1.2146c0.1042 0.1363 0.201 0.2812 0.2896 0.4346l1.732-1zm-2.1961 8.1962c2.8697-1.6569 3.853-5.3264 2.1961-8.1962l-1.732 1c1.1045 1.9132 0.449 4.3595-1.4641 5.4641l1 1.7321zm-8.1962-2.1962c1.6569 2.8698 5.3264 3.853 8.1962 2.1962l-1-1.7321c-1.9132 1.1046-4.3596 0.4491-5.4641-1.4641l-1.7321 1zm-0.337-0.6782c0.097 0.2304 0.2092 0.4569 0.337 0.6782l1.7321-1c-0.0859-0.1488-0.161-0.3004-0.2257-0.454l-1.8434 0.7758zm0.6643-1.3542c-1.4813 0.3947-3.0387 0.6053-4.6468 0.6053v2c1.7835 0 3.5139-0.2337 5.1617-0.6727l-0.5149-1.9326zm-4.6468 0.6053c-2.8289 0-5.5026-0.6519-7.8819-1.8126l-0.8769 1.7975c2.6464 1.2911 5.6195 2.0151 8.7588 2.0151v-2zm-7.4723-0.3839 3.7436-5.9897-1.696-1.06-3.7436 5.9897 1.696 1.06zm2.5139-5.5954c1.5293 0.6314 3.2045 0.9793 4.9584 0.9793v-2c-1.4875 0-2.9036-0.2947-4.1951-0.828l-0.7633 1.8487zm4.9584 0.9793c6.4425 0 11.789-4.6854 12.82-10.835l-1.9724-0.3309c-0.8727 5.2018-5.3984 9.1655-10.848 9.1655v2zm11.834-10h7.0619v-2h-7.0619v2zm6.0673-1.1041c-0.4382 4.1889-2.3133 7.9509-5.1265 10.785l1.4194 1.409c3.1232-3.1461 5.209-7.3276 5.6963-11.986l-1.9892-0.2081z"/><path fill="none" stroke="#000" stroke-linejoin="round" stroke-width="2" d="m36 64c15.464 0 28-12.536 28-28s-12.536-28-28-28-28 12.536-28 28 12.536 28 28 28z"/></g></svg>