<svg xmlns="http://www.w3.org/2000/svg" id="a" version="1.1" viewBox="0 0 72 72"><g id="b"><line x1="54.832" x2="54.832" y1="49.886" y2="37.886" fill="none"/><path fill="#FCEA2B" d="m40.842 37.359c0.081-1.9313 1.7123-3.4313 3.6436-3.3502s3.4313 1.7123 3.3502 3.6436"/><path fill="#FCEA2B" d="m26.805 14.509c0-1.933 1.567-3.5 3.5-3.5s3.5 1.567 3.5 3.5"/><line x1="33.805" x2="33.805" y1="36.844" y2="14.509" fill="none"/><line x1="26.805" x2="26.805" y1="14.509" y2="42.299" fill="none"/><line x1="23.844" x2="21.886" y1="36.455" y2="34.242" fill="none"/><line x1="16.851" x2="18.672" y1="39.104" y2="41.485" fill="none"/><path fill="#FCEA2B" d="m54.836 36.844h-0.133c-0.3835-1.4413-1.6517-2.5361-3.2203-2.6019-1.6726-0.0703-3.116 1.0472-3.5264 2.6019h-0.1995c-0.2912-1.5044-1.5394-2.6978-3.1413-2.8266-1.795-0.1444-3.3657 1.0989-3.6997 2.8266h-0.1434c-0.1277-1.714-1.4872-3.1186-3.2511-3.2317-1.7462-0.112-3.2629 1.0814-3.6288 2.7386l-0.088-22.176h-6.9524v23.866l-0.8437-0.3276-1.8582-2.2302c-1.3429-1.3904-5.7173-2.5504-7.2135-1.3266-2.8118 2.2998 2.8898 8.5952 1.6817 7.2687l3.1434 9.0663c2.2408 16.169 12.717 16.612 16.614 16.724 9.0206 0.2588 16.14-6.3282 16.24-18.145h0.2203v-12.226zm-20.941 0.0429 0.02 0.0013v3.8943l-0.0045-0.0018-0.0155-3.8938z"/></g><g id="c" fill="none" stroke="#000" stroke-linecap="round" stroke-linejoin="round" stroke-miterlimit="10" stroke-width="2"><path d="m33.79 23.71c4.13-1.45 7.09-5.39 7.09-10.02 0-5.87-4.75-10.63-10.62-10.63s-10.62 4.76-10.62 10.63c0 4.65 2.99 8.6 7.15 10.04"/><path d="m33.79 20.57c2.49-1.28 4.2-3.88 4.2-6.88 0-4.28-3.46-7.74-7.73-7.74s-7.74 3.46-7.74 7.74c0 3.02 1.74 5.64 4.27 6.91"/><path d="m54.816 50.774c0 9.0883-7.3675 16.456-16.456 16.456s-16.456-7.3675-16.456-16.456"/><line x1="54.816" x2="54.816" y1="49.901" y2="37.901"/><path d="m47.824 37.607c0.081-1.9313 1.7123-3.4313 3.6436-3.3502s3.4313 1.7123 3.3502 3.6436"/><path d="m40.827 37.374c0.081-1.9313 1.7123-3.4313 3.6436-3.3502s3.4313 1.7123 3.3502 3.6436"/><path d="m40.831 37.241c0.155-1.9268 1.8426-3.3631 3.7694-3.2081s3.3631 1.8426 3.2081 3.7694"/><path d="m33.79 36.896c0.1237-1.929 1.7878-3.3925 3.7168-3.2688s3.3925 1.7878 3.2688 3.7168"/><path d="m16.836 39.12c-1.3429-1.3904-1.3044-3.6061 0.086-4.949s3.6061-1.3044 4.949 0.086"/><path d="m26.79 14.524c0-1.933 1.567-3.5 3.5-3.5s3.5 1.567 3.5 3.5"/><line x1="33.79" x2="33.79" y1="36.859" y2="14.524"/><line x1="26.79" x2="26.79" y1="14.524" y2="42.314"/><line x1="23.829" x2="21.871" y1="36.47" y2="34.257"/><path d="m18.603 41.44c1.9526 2.1439 3.3734 5.1677 3.3013 9.5218"/><line x1="16.836" x2="18.657" y1="39.12" y2="41.5"/><path d="m54.832 50.759c0 9.0883-7.3675 16.456-16.456 16.456s-16.456-7.3675-16.456-16.456"/></g></svg>