<svg xmlns="http://www.w3.org/2000/svg" id="a" viewBox="0 0 72 72"><g id="b"><path fill="#fcea2b" d="m30.614 20.738c0.284-1.9293-1.0499-3.7236-2.9792-4.0075s-3.7236 1.0498-4.0075 2.9792c-0.0455 0.3093-0.0498 0.6232-0.0126 0.9336l-0.2572 18.998 0.0217 4.3248 0.0058-4.9988c0.284-1.9293-0.8798-3.7236-2.8091-4.0075-1.9293-0.284-3.7236 1.0498-4.0075 2.9792-0.0455 0.3093-0.0498 0.6232-0.0126 0.9336l-0.1759 4.9988 0.0526 10.085c0.4248 8.3102 7.7518 13.629 16.06 13.205 4.7918-0.2654 9.32-2.2781 12.728-5.6571 2.9178-3.0904 10.086-11.535 10.086-11.535 1.4629-2.1582 0.3282-5.4939-0.8007-4.6726l-9.8756 4.6509-0.0389-5.3996 0.0389 5.3996-0.0389-5.3996 0.0395-21.85c0.284-1.9293-1.0499-3.7236-2.9792-4.0075s-3.7236 1.0498-4.0075 2.9792c-0.0455 0.3093-0.0498 0.6232-0.0126 0.9336l-0.0947 6.9994-0.1861 10.636 0.3671-22.193c0.284-1.9293-1.0499-3.7236-2.9792-4.0075s-3.7236 1.0498-4.0075 2.9792c-0.0455 0.3093-0.0498 0.6232-0.0126 0.9336l-0.2064 24.016"/></g><g id="c" fill="none" stroke="#000" stroke-linecap="round" stroke-linejoin="round" stroke-width="2"><path stroke-miterlimit="10" d="m23.4 24.976c-2.1796-1.368-3.6285-3.7928-3.6285-6.556 0-4.2718 3.463-7.7349 7.7349-7.7349 2.6282 0 4.9502 1.3108 6.348 3.3143"/><path stroke-miterlimit="10" d="m27.357 16.564c-0.0606-0.3901-0.0921-0.7899-0.0921-1.197 0-4.2718 3.463-7.7349 7.7349-7.7349s7.7349 3.463 7.7349 7.7349c0 1.1363-0.245 2.2153-0.6851 3.1872"/><path stroke-miterlimit="10" d="m35.899 14c1.418-1.6288 3.5068-2.6583 5.836-2.6583 4.2718 0 7.7349 3.463 7.7349 7.7349 0 3.0563-1.7726 5.6986-4.3459 6.9548"/><path d="m30.614 20.738c0.284-1.9293-1.0499-3.7236-2.9792-4.0075s-3.7236 1.0498-4.0075 2.9792c-0.0455 0.3093-0.0498 0.6232-0.0126 0.9336l-0.2572 18.998 0.0048 0.9513-0.0056-1.6253c0.284-1.9293-0.8514-3.7236-2.7808-4.0075-1.9293-0.284-3.7236 1.0498-4.0075 2.9792-0.0455 0.3093-0.0498 1.7509-0.0126 2.0613l-0.1759 3.8711 0.0526 10.085c0.4248 8.3102 7.7518 13.629 16.06 13.205 4.7918-0.2654 9.32-2.2781 12.728-5.6571 2.9178-3.0904 10.086-11.535 10.086-11.535 1.4629-2.1582 0.3282-5.4939-0.8007-4.6726l-9.8756 4.6509-0.0389-5.3996 0.0389 5.3996-0.0389-5.3996 0.0395-21.85c0.284-1.9293-1.0499-3.7236-2.9792-4.0075s-3.7236 1.0498-4.0075 2.9792c-0.0455 0.3093-0.0498 0.6232-0.0126 0.9336l-0.0947 6.9994-0.1861 10.636 0.3671-22.193c0.284-1.9293-1.0499-3.7236-2.9792-4.0075s-3.7236 1.0498-4.0075 2.9792c-0.0455 0.3093-0.0498 0.6232-0.0126 0.9336l-0.1758 20.454"/></g></svg>