<?xml version="1.0" encoding="UTF-8"?>
<svg id="a" viewBox="0 0 72 72" xmlns="http://www.w3.org/2000/svg"><g id="b"><circle cx="33" cy="12" r="4" fill="#92D3F5"/><circle cx="34" cy="19" r="3" fill="#FCEA2B"/><rect x="31" y="20" width="6" height="22" fill="#FCEA2B"/><polygon points="28 56 30.068 60.054 35.773 63.786 42.064 64.692 48.889 62.346 53.955 56.161 54.968 51.309 26.815 52.376 27.348 55.362" fill="#FCEA2B"/><polygon points="28 49 23.047 41.25 21 38 23.091 35.961 28.33 36.718 30.781 39.357 31.504 42.649 30.861 49.394" fill="#FCEA2B"/><polygon points="31.058 36.696 31.058 40.872 27 40.872 27 55 55 55 55 36.696" fill="#FCEA2B"/></g><g id="c" stroke="#000" stroke-linecap="round" stroke-linejoin="round" stroke-miterlimit="10" stroke-width="2"><path d="m40.568 11.595s7.2102 0 14.42 4.8068"/><path d="m26.148 11.595s-7.2102 0-14.42 4.8068"/><line x1="54.624" x2="55.931" y1="10" y2="17.239" fill="none"/><line x1="48.692" x2="55.931" y1="18.546" y2="17.239" fill="none"/><line x1="12.343" x2="11.036" y1="10" y2="17.239" fill="none"/><line x1="18.275" x2="11.036" y1="18.546" y2="17.239" fill="none"/><path d="m55.021 50.546c0 7.8067-6.3285 14.135-14.135 14.135s-14.135-6.3285-14.135-14.135" fill="none"/><line x1="55.021" x2="55.021" y1="49.796" y2="39.488" fill="none"/><path d="m49.014 39.236c0.0696-1.659 1.4708-2.9474 3.1298-2.8778 1.6589 0.0696 2.9474 1.4708 2.8778 3.1298" fill="none"/><path d="m43.004 39.036c0.0696-1.6589 1.4708-2.9474 3.1298-2.8778 1.6589 0.0696 2.9474 1.4708 2.8778 3.1298" fill="none"/><path d="m43.008 38.921c0.1331-1.6551 1.5828-2.8888 3.2378-2.7557 1.6551 0.1331 2.8888 1.5828 2.7557 3.2378" fill="none"/><path d="m36.959 38.626c0.1063-1.657 1.5357-2.9141 3.1927-2.8079 1.657 0.1063 2.9141 1.5357 2.8079 3.1927" fill="none"/><path d="m22.396 40.536c-1.1535-1.1943-1.1205-3.0976 0.0738-4.2511s3.0976-1.1205 4.2511 0.0738" fill="none"/><path d="m30.946 19.408c0-1.6604 1.346-3.0064 3.0064-3.0064s3.0064 1.346 3.0064 3.0064" fill="none"/><line x1="36.959" x2="36.959" y1="38.594" y2="19.408" fill="none"/><line x1="30.946" x2="30.946" y1="19.408" y2="43.28" fill="none"/><line x1="28.403" x2="26.721" y1="38.26" y2="36.358" fill="none"/><path d="m23.915 42.528c1.6773 1.8416 2.8977 4.4389 2.8358 8.1791" fill="none"/><line x1="22.396" x2="23.961" y1="40.536" y2="42.58" fill="none"/><path d="m35.527 13.618c0.2996-0.4668 0.4734-1.0222 0.4734-1.6182 0-1.6569-1.3431-3-3-3s-3 1.3431-3 3c0 0.8284 0.3358 1.5784 0.8787 2.1213" fill="none"/></g></svg>
