<svg xmlns="http://www.w3.org/2000/svg" id="a" viewBox="0 0 72 72"><g id="b"><path fill="#D0CFCE" d="m37.297 16.773h-2.472c-5.8763 0-10.684 4.8079-10.684 10.684v16.933c0 5.8763 4.8079 10.684 10.684 10.684h2.472c5.8763 0 10.684-4.8079 10.684-10.684v-16.933c0-5.8763-4.8079-10.684-10.684-10.684z"/><path fill="#3F3F3F" d="m36.061 22.112c-1.1405 0-2.0737 0.9332-2.0737 2.0737v5.8343c0 1.1405 0.9332 2.0737 2.0737 2.0737s2.0737-0.9332 2.0737-2.0737v-5.8343c0-1.1405-0.9332-2.0737-2.0737-2.0737z"/><path fill="#9B9B9A" d="m35.136 18.177c3.0267 1.2986 5.904 3.1629 6.2392 7.8732 0.3881 5.455-1.6305 15.669-2.2795 20.857-0.4538 3.6277-2.248 5.3071-4.6299 7.2111-1.2013 0.9603 5.2663 0.8427 7.9297-0.7139 2.2852-1.3355 4.4994-3.6288 4.5264-2.9039l0.3229-25.804s-0.9367-6.9377-8.5654-6.9401c0 1e-4 -7.652-0.3939-3.5434 0.4215z"/></g><g id="c" fill="none" stroke="#000" stroke-linecap="round" stroke-linejoin="round" stroke-miterlimit="10" stroke-width="2"><path d="m38.829 54.501h-5.5367c-4.9688 0-9.0342-4.0654-9.0342-9.0342v-19.087c0-4.9688 4.0654-9.0342 9.0342-9.0342h5.5367c4.9688 0 9.0342 4.0654 9.0342 9.0342v19.087c0 4.9688-4.0654 9.0342-9.0342 9.0342z"/><path d="m36.145 32.155h-0.1677c-1.1161 0-2.0294-0.9132-2.0294-2.0294v-6.0465c0-1.1161 0.9132-2.0294 2.0294-2.0294h0.1677c1.1161 0 2.0294 0.9132 2.0294 2.0294v6.0465c0 1.1162-0.9132 2.0294-2.0294 2.0294z"/><line x1="15.032" x2="9.817" y1="34.191" y2="28.975"/><line x1="15.032" x2="9.817" y1="23.717" y2="28.933"/><line x1="57.156" x2="62.372" y1="23.717" y2="28.933"/><line x1="57.156" x2="62.372" y1="34.191" y2="28.975"/></g></svg>