<svg xmlns="http://www.w3.org/2000/svg" id="a" version="1.1" viewBox="0 0 72 72"><g id="b"><circle cx="33" cy="12" r="4" fill="#92D3F5"/></g><g id="c"><path fill="#FCEA2B" d="M55,36.6959H37V20h-0.1837C36.928,19.6858,37,19.3525,37,19c0-1.6569-1.3431-3-3-3s-3,1.3431-3,3 c0,0.3525,0.072,0.6858,0.1837,1H31v20.354l-0.2188-0.9969l-2.4511-2.6396l-5.2392-0.7568L21,38l2.0471,3.25L27,47.4352v4.9335 l-0.1849,0.007L27,53.411V55h0.2838l0.0646,0.3616L28,56l2.0676,4.0537l5.7051,3.7324l6.2917,0.9064l6.8249-2.346l5.0653-6.1851 L54.1971,55H55V36.6959z"/></g><g id="d" stroke="#000" stroke-linecap="round" stroke-linejoin="round" stroke-miterlimit="10" stroke-width="2"><path d="m40.568 11.595s7.2102 0 14.42 4.8068"/><line x1="54.624" x2="55.931" y1="10" y2="17.239" fill="none"/><line x1="48.692" x2="55.931" y1="18.546" y2="17.239" fill="none"/><path fill="none" d="m55.021 50.546c0 7.8067-6.3285 14.135-14.135 14.135s-14.135-6.3285-14.135-14.135"/><line x1="55.021" x2="55.021" y1="49.796" y2="39.488" fill="none"/><path fill="none" d="m49.014 39.236c0.0696-1.659 1.4708-2.9474 3.1298-2.8778 1.6589 0.0696 2.9474 1.4708 2.8778 3.1298"/><path fill="none" d="m43.004 39.036c0.0696-1.6589 1.4708-2.9474 3.1298-2.8778 1.6589 0.0696 2.9474 1.4708 2.8778 3.1298"/><path fill="none" d="m43.008 38.921c0.1331-1.6551 1.5828-2.8888 3.2378-2.7557 1.6551 0.1331 2.8888 1.5828 2.7557 3.2378"/><path fill="none" d="m36.959 38.626c0.1063-1.657 1.5357-2.9141 3.1927-2.8079 1.657 0.1063 2.9141 1.5357 2.8079 3.1927"/><path fill="none" d="m22.396 40.536c-1.1535-1.1943-1.1205-3.0976 0.0738-4.2511s3.0976-1.1205 4.2511 0.0738"/><path fill="none" d="m30.946 19.408c0-1.6604 1.346-3.0064 3.0064-3.0064s3.0064 1.346 3.0064 3.0064"/><line x1="36.959" x2="36.959" y1="38.594" y2="19.408" fill="none"/><line x1="30.946" x2="30.946" y1="19.408" y2="43.28" fill="none"/><line x1="28.403" x2="26.721" y1="38.26" y2="36.358" fill="none"/><path fill="none" d="m23.915 42.528c1.6773 1.8416 2.8977 4.4389 2.8358 8.1791"/><line x1="22.396" x2="23.961" y1="40.536" y2="42.58" fill="none"/><path fill="none" d="m35.527 13.618c0.2996-0.4668 0.4734-1.0222 0.4734-1.6182 0-1.6569-1.3431-3-3-3s-3 1.3431-3 3c0 0.8284 0.3358 1.5784 0.8787 2.1213"/></g></svg>