<svg xmlns="http://www.w3.org/2000/svg" id="a" version="1.1" viewBox="0 0 72 72"><g id="b"><rect width="10" height="6" x="31" y="60" fill="#EA5A47"/></g><g id="c"><path fill="#FCEA2B" d="m46.602 29.825-2.9629-5.3871-1.6395-9.4377-0.43 0.5168-2.6892-3.9185-4.8484-2.7834-5.2974-0.808-6.0156 1.9753-4.2199 3.5016-2.2446 6.4646 0.1795 13.917 2.9629 1.1672 2.0651-1.4365 1.257 0.8978 2.6936 0.5387 2.2446-1.257 1.7059 1.6162 3.8531-0.5376-0.106 5.7248 0.1762 4.7134 0.0264 4.3976c-0.1944 0.3974-0.3132 0.8381-0.3132 1.3103 0 1.6569 1.3431 3 3 3 0.1146 0 0.2234-0.0212 0.3347-0.0338l0.4434 0.21 0.6378-0.5467c0.384-0.2073 0.7172-0.4908 0.9775-0.8378l0.7545-0.6467v-12.977l-0.0693-11.214 0.3219 3.7311 1.2144 2.0484 4.6407 2.3762 2.8731-2.2446-1.5263-4.0403zm-13.163 19.539 0.0033 0.088c-0.018 0.0297-0.0327 0.0613-0.0497 0.0916l0.0464-0.1796z"/></g><g id="d" fill="none" stroke="#000" stroke-linecap="round" stroke-linejoin="round" stroke-miterlimit="10" stroke-width="2"><path d="m16.004 21.435c0-7.4632 6.0501-13.513 13.513-13.513s13.513 6.0501 13.513 13.513"/><line x1="16.004" x2="16.004" y1="22.153" y2="32.007"/><path d="m21.746 32.248c-0.0665 1.586-1.4061 2.8177-2.9921 2.7512s-2.8177-1.4061-2.7512-2.9921"/><path d="m27.492 32.439c-0.0665 1.586-1.4061 2.8177-2.9921 2.7512s-2.8177-1.4061-2.7512-2.9921"/><path d="m27.488 32.549c-0.1273 1.5822-1.5131 2.7617-3.0954 2.6344-1.5822-0.1273-2.7617-1.5131-2.6344-3.0954"/><path d="m33.271 32.832c-0.1016 1.5841-1.4681 2.7859-3.0522 2.6843s-2.7859-1.4681-2.6843-3.0522"/><path d="m47.193 31.006c1.1028 1.1418 1.0712 2.9613-0.0706 4.0641s-2.9613 1.0712-4.0641-0.0706"/><path d="m39.019 51.204c0 1.5874-1.2868 2.8742-2.8742 2.8742s-2.8742-1.2868-2.8742-2.8742"/><line x1="33.271" x2="33.271" y1="32.862" y2="51.204"/><line x1="39.019" x2="39.019" y1="51.204" y2="28.382"/><line x1="41.451" x2="43.058" y1="33.182" y2="34.999"/><path d="m43.03 21.282c-0.0592 3.5756 1.1075 6.0587 2.711 7.8192"/><line x1="45.697" x2="47.193" y1="29.051" y2="31.006"/><line x1="20" x2="28" y1="65" y2="65"/><line x1="44" x2="52" y1="65" y2="65"/><line x1="31" x2="31" y1="65" y2="60"/><line x1="41" x2="41" y1="65" y2="60"/><line x1="30" x2="42" y1="60" y2="60"/></g></svg>