<svg xmlns="http://www.w3.org/2000/svg" id="a" viewBox="0 0 72 72"><g id="b"><path fill="#fff" d="m57.041 61.067h-42.175c-2.1608 0-3.9124-1.7516-3.9124-3.9124v-42.175c0-2.1608 1.7516-3.9124 3.9124-3.9124h42.175c2.1608 0 3.9124 1.7516 3.9124 3.9124v42.175c0 2.1608-1.7516 3.9124-3.9124 3.9124z"/><path fill="#D0CFCE" d="M12.1023,59.9056C12.7806,60.5819,13.7165,61,14.75,61h42.5c2.0711,0,3.75-1.6789,3.75-3.75v-42.5 c0-1.0365-0.4206-1.9749-1.1003-2.6536L12.1023,59.9056z"/><path fill="#D0CFCE" d="M25.4014,46.6146C22.6822,43.8995,21,40.1462,21,36v0c0-8.2843,6.7157-15,15-15h0 c4.1411,0,7.8903,1.6781,10.6046,4.3914L25.4014,46.6146z"/><path fill="#D0CFCE" stroke-linecap="round" stroke-linejoin="round" stroke-miterlimit="10" stroke-width="2" d="M46.6046,25.3914C49.3203,28.106,51,31.8568,51,36v0c0,8.2843-6.7157,15-15,15h0c-4.1381,0-7.8848-1.6757-10.5986-4.3854"/></g><g id="c"><path fill="none" stroke="#000" stroke-linecap="round" stroke-linejoin="round" stroke-miterlimit="10" stroke-width="2" d="m58 61h-44c-1.6569 0-3-1.3431-3-3v-44c0-1.6569 1.3431-3 3-3h44c1.6569 0 3 1.3431 3 3v44c0 1.6569-1.3431 3-3 3z"/><path fill="none" stroke="#000" stroke-linecap="round" stroke-linejoin="round" stroke-miterlimit="10" stroke-width="2" d="M46.6046,25.3914C49.3203,28.106,51,31.8568,51,36v0c0,8.2843-6.7157,15-15,15h0c-4.1381,0-7.8848-1.6757-10.5986-4.3854"/><circle cx="29.75" cy="36" r="3.75"/><circle cx="42.25" cy="36" r="3.75"/><circle cx="36" cy="36" r="15" fill="none" stroke="#000" stroke-linecap="round" stroke-linejoin="round" stroke-miterlimit="10" stroke-width="2"/></g></svg>