<?xml version="1.0" encoding="UTF-8"?>
<svg id="a" version="1.1" viewBox="0 0 72 72" xmlns="http://www.w3.org/2000/svg"><g id="b"><rect x="25" y="12" width="21" height="5" rx="1" fill="#1e50a0"/><rect x="23" y="16" width="26" height="48" rx="1" fill="#1e50a0"/><path d="m38 9.6c0-0.8837-0.8954-1.6-2-1.6s-2 0.7163-2 1.6v2.4h4z" clip-rule="evenodd" fill="#fff" fill-rule="evenodd"/><rect x="37" y="53" width="9" height="8" rx="1.125" ry="1.143" fill="#3f3f3f" fill-opacity=".502"/><rect x="26" y="53" width="9" height="8" rx="1.125" ry="1.143" fill="#3f3f3f" fill-opacity=".502"/><rect x="37" y="43" width="9" height="8" rx="1.125" ry="1.143" fill="#3f3f3f" fill-opacity=".502"/><rect x="26" y="43" width="9" height="8" rx="1.125" ry="1.143" fill="#3f3f3f" fill-opacity=".502"/><rect x="37" y="33" width="9" height="8" rx="1.125" ry="1.143" fill="#3f3f3f" fill-opacity=".502"/><rect x="26" y="33" width="9" height="8" rx="1.125" ry="1.143" fill="#3f3f3f" fill-opacity=".502"/><rect x="37" y="23" width="9" height="8" rx="1.125" ry="1.143" fill="#fff"/><rect x="26" y="23" width="9" height="8" rx="1.125" ry="1.143" fill="#fff"/></g><g id="c"><rect x="26" y="18.5" width="20" height="3" rx="1" ry="1"/><path d="m38 54.01v5.986h6.986" fill="none" stroke="#000" stroke-linecap="round" stroke-linejoin="round" stroke-width="2"/><path d="m27 54.01v5.986h6.986" fill="none" stroke="#000" stroke-linecap="round" stroke-linejoin="round" stroke-width="2"/><path d="m38 44v6h7" fill="none" stroke="#000" stroke-linecap="round" stroke-linejoin="round" stroke-width="2"/><path d="m27 44.01v5.986h6.986" fill="none" stroke="#000" stroke-linecap="round" stroke-linejoin="round" stroke-width="2"/><path d="m38 34.01v5.986h6.986" fill="none" stroke="#000" stroke-linecap="round" stroke-linejoin="round" stroke-width="2"/><path d="m27 34.01v5.986h6.986" fill="none" stroke="#000" stroke-linecap="round" stroke-linejoin="round" stroke-width="2"/><path d="m38 24.01v5.986h6.986" fill="none" stroke="#000" stroke-linecap="round" stroke-linejoin="round" stroke-width="2"/><path d="m27 24.01v5.986h6.986" fill="none" stroke="#000" stroke-linecap="round" stroke-linejoin="round" stroke-width="2"/><rect x="23" y="16" width="26" height="48" rx="1" fill="none" stroke="#000" stroke-width="2"/><path d="m34 12v-2.4c0-0.8837 0.8954-1.6 2-1.6s2 0.7163 2 1.6v2.4" fill="none" stroke="#000" stroke-width="2"/><path d="m25 16v-3c0-0.5523 0.4477-1 1-1h19c0.5523 0 1 0.4477 1 1v3" fill="none" stroke="#000" stroke-width="2"/></g></svg>
