<?xml version="1.0" encoding="UTF-8"?>
<svg id="a" viewBox="0 0 72 72" xmlns="http://www.w3.org/2000/svg"><g id="b"><rect x="12" y="12" width="48" height="48" rx="1" fill="#9B9B9A"/><path d="m24 26h23l-2 8h-19l-2-8z" fill="#d0cfce"/><circle cx="35" cy="19" r="4" fill="#fff"/><line x1="35" x2="35" y1="19" y2="18" stroke="#D22F27" stroke-linecap="round" stroke-width="2"/><path d="m18.152 15.358c0.3916-0.6271 1.3048-0.6271 1.6964 0l0.37 0.5924c0.1762 0.2822 0.4811 0.4582 0.8135 0.4698l0.6981 0.0241c0.7389 0.0256 1.1955 0.8165 0.8482 1.4691l-0.3281 0.6167c-0.1562 0.2936-0.1562 0.6458 0 0.9394l0.3281 0.6167c0.3473 0.6526-0.1093 1.4435-0.8482 1.4691l-0.6981 0.0241c-0.3324 0.0116-0.6373 0.1876-0.8135 0.4698l-0.37 0.5924c-0.3916 0.6271-1.3048 0.6271-1.6964 0l-0.37-0.5924c-0.1762-0.2822-0.4811-0.4582-0.8135-0.4698l-0.6981-0.0241c-0.7389-0.0256-1.1955-0.8165-0.8482-1.4691l0.3281-0.6167c0.1562-0.2936 0.1562-0.6458 0-0.9394l-0.3281-0.6167c-0.3473-0.6526 0.1093-1.4435 0.8482-1.4691l0.6981-0.0241c0.3324-0.0116 0.6373-0.1876 0.8135-0.4698l0.37-0.5924z" fill="#A57939"/><path d="m39 28c0 2.2091 7.7909 4 10 4s4-1.7909 4-4-1.7909-4-4-4-10 1.7909-10 4z" fill="#A57939"/><circle cx="53.5" cy="18.5" r="2.5" fill="#D22F27"/><path d="m25 52h20l-2 3h-16l-2-3z" fill="#fff"/><g fill="#fff"><path d="m35 53c3.3137 0 6-4.4772 6-10h-12c0 5.5228 2.6863 10 6 10z" clip-rule="evenodd" fill-rule="evenodd"/><path d="m41 43h1c0-0.5523-0.4477-1-1-1v1zm-12 0v-1c-0.5523 0-1 0.4477-1 1h1zm11 0c0 2.6113-0.6371 4.9271-1.6149 6.5566-0.9896 1.6494-2.2175 2.4434-3.3851 2.4434v2c2.1461 0 3.9182-1.4446 5.1001-3.4144 1.1939-1.9898 1.8999-4.6741 1.8999-7.5856h-2zm-11 1h12v-2h-12v2zm6 8c-1.1676 0-2.3955-0.794-3.3851-2.4434-0.9778-1.6295-1.6149-3.9453-1.6149-6.5566h-2c0 2.9115 0.706 5.5958 1.8999 7.5856 1.1819 1.9698 2.954 3.4144 5.1001 3.4144v-2z"/></g><circle cx="53.5" cy="18.5" r="2.5" fill="none" stroke="#D0CFCE" stroke-width="2"/></g><g id="c" stroke="#000" stroke-width="2"><rect x="12" y="12" width="48" height="48" rx="1" fill="none" stroke-linejoin="round"/><path d="m12 26h12" fill="none"/><path d="m56 26h4" fill="none" stroke-linecap="round"/><line x1="12" x2="60" y1="55" y2="55"/><path d="M40.5 26H24L26 34H44" fill="none" stroke-linecap="round" stroke-linejoin="round"/><circle cx="35" cy="19" r="4" fill="none"/><path d="m30.2 49c-0.7533-1.6713-1.1996-3.7488-1.1996-6h12c0 2.2512-0.4463 4.3287-1.1996 6" fill="none" stroke-linecap="round" stroke-linejoin="round"/><path d="m18.152 15.358c0.3916-0.6271 1.3048-0.6271 1.6964 0l0.37 0.5924c0.1762 0.2822 0.4811 0.4582 0.8135 0.4698l0.6981 0.0241c0.7389 0.0256 1.1955 0.8165 0.8482 1.4691l-0.3281 0.6167c-0.1562 0.2936-0.1562 0.6458 0 0.9394l0.3281 0.6167c0.3473 0.6526-0.1093 1.4435-0.8482 1.4691l-0.6981 0.0241c-0.3324 0.0116-0.6373 0.1876-0.8135 0.4698l-0.37 0.5924c-0.3916 0.6271-1.3048 0.6271-1.6964 0l-0.37-0.5924c-0.1762-0.2822-0.4811-0.4582-0.8135-0.4698l-0.6981-0.0241c-0.7389-0.0256-1.1955-0.8165-0.8482-1.4691l0.3281-0.6167c0.1562-0.2936 0.1562-0.6458 0-0.9394l-0.3281-0.6167c-0.3473-0.6526 0.1093-1.4435 0.8482-1.4691l0.6981-0.0241c0.3324-0.0116 0.6373-0.1876 0.8135-0.4698l0.37-0.5924z" fill="none"/><path d="m39 28c0 2.2091 7.7909 4 10 4s4-1.7909 4-4-1.7909-4-4-4-10 1.7909-10 4z" fill="none"/><path d="m53.5 21c-1.3807 0-2.5-1.1193-2.5-2.5s1.1193-2.5 2.5-2.5" fill="none" stroke-linecap="round"/><path d="m25 52h20l-2 3h-16l-2-3z" fill="none" stroke-linejoin="round"/></g></svg>
