<svg xmlns="http://www.w3.org/2000/svg" id="a" viewBox="0 0 72 72"><g id="b" fill="none" stroke="#000" stroke-linecap="round" stroke-linejoin="round" stroke-width="2"><path d="m31 15.5 1.38 14.5"/><path d="m32.71 39-0.4314 1-1.1613 17.5"/></g><g id="c"><path fill="#3F3F3F" stroke="#3F3F3F" stroke-linecap="round" stroke-linejoin="round" stroke-width="2" d="m56.5 13.5h-11.5l4.5 3.5h5.5l2 2.5-5.5 10v6l9-17-4-5z"/><path fill="#D0CFCE" d="m26 40-3 19.5 0.5 1h24l1-1-3-19.5-1-1h-17.5l-1 1z"/><path fill="#3F3F3F" fill-rule="evenodd" d="m37 59.5v-21.5h6.5l1 1 3 19.5-1 1h-9.5z" clip-rule="evenodd"/><path fill="#9B9B9A" d="m31.294 39.5-1.2941 19.5 0.2157 1h10.353l0.4314-1-1.2941-19.5-0.4314-1h-7.549l-0.4314 1z"/><path fill="none" stroke="#3F3F3F" stroke-linejoin="round" stroke-width="2" d="m41 59-1.2941-19.5-0.4314-1"/><path fill="#D0CFCE" fill-rule="evenodd" d="M45 33L49.5 15.5L37.5 11H34L22.5 15.5H17V16L19 17L25.0923 26.8415L26.5 33H45Z" clip-rule="evenodd"/><path fill="#3F3F3F" fill-rule="evenodd" d="M35 33V11H38L50 15.5L45.5 33H35Z" clip-rule="evenodd"/><path fill="#9B9B9A" d="M41 15.5L39.1667 33H31.6296L30 15.5L34.6852 11H36.1111L41 15.5Z"/><path fill="none" stroke="#3F3F3F" stroke-linecap="round" stroke-linejoin="round" stroke-width="2" d="M39.3672 32.9357L41 15.5"/><path fill="#9B9B9A" stroke="#9B9B9A" stroke-width="2" d="m27 15.5-2 11.5-7-11.5h9z"/><rect width="18" height="4" x="27" y="34" fill="#d0cfce"/><g fill="#3F3F3F"><rect width="8" height="4" x="37" y="34"/><rect width="8" height="4" x="37" y="34"/></g><rect width="5" height="4" x="33" y="34" fill="#9B9B9A"/><path fill="#3F3F3F" d="m33 5h5l-1 6h-3l-1-6z"/></g><g id="d"><path fill="none" stroke="#000" stroke-linejoin="round" stroke-width="2" d="m26 39.5-3 19.5 0.5 1h24l1-1-3-19.5-1-1h-17.5l-1 1z"/><path d="m49.5 15.5 0.9685 0.249c0.1272-0.4948-0.139-1.0059-0.6174-1.1853l-0.3511 0.9363zm-4.5 17.5v1c0.4564 0 0.8548-0.309 0.9685-0.751l-0.9685-0.249zm-7.5-22 0.3511-0.9363c-0.1123-0.0421-0.2312-0.0637-0.3511-0.0637v1zm-3.5 0v-1c-0.1247 0-0.2483 0.0233-0.3644 0.0688l0.3644 0.9312zm-11.5 4.5v1c0.1247 0 0.2483-0.0233 0.3644-0.0688l-0.3644-0.9312zm-5.5 0v-1c-0.5523 0-1 0.4477-1 1h1zm0 0.5h-1c0 0.3788 0.214 0.725 0.5528 0.8944l0.4472-0.8944zm2 1 0.8503-0.5264c-0.0977-0.1576-0.2372-0.2851-0.4031-0.368l-0.4472 0.8944zm6.0923 9.8415 0.9749-0.2229c-0.0245-0.1073-0.0666-0.2099-0.1246-0.3035l-0.8503 0.5264zm1.4077 6.1585-0.9749 0.2228c0.104 0.4547 0.5085 0.7772 0.9749 0.7772v-1zm22.032-17.749-4.5 17.5 1.937 0.498 4.5-17.5-1.937-0.498zm-11.383-3.3147 12 4.5 0.7022-1.8726-12-4.5-0.7022 1.8726zm-3.1489 0.0637h3.5v-2h-3.5v2zm-11.136 4.4312 11.5-4.5-0.7288-1.8624-11.5 4.5 0.7288 1.8624zm-5.8644 0.0688h5.5v-2h-5.5v2zm1-0.5v-0.5h-2v0.5h2zm1.4472 0.1056-2-1-0.8944 1.7888 2 1 0.8944-1.7888zm6.4954 10.21-6.0923-9.8415-1.7006 1.0528 6.0924 9.8414 1.7005-1.0527zm1.5323 6.4621-1.4077-6.1586-1.9497 0.4457 1.4076 6.1585 1.9498-0.4456zm17.525-0.7772h-18.5v2h18.5v-2z"/><path fill="none" stroke="#000" stroke-linecap="round" stroke-linejoin="round" stroke-width="2" d="m52.5 13.5h4l4 5-9 17v-6l5.5-10-2-2.5h-5.5"/><path fill="none" stroke="#000" stroke-linecap="round" stroke-linejoin="round" stroke-width="2" d="M41 15.5L39.6497 30"/><path fill="none" stroke="#000" stroke-linecap="round" stroke-linejoin="round" stroke-width="2" d="m39.274 38.5 0.4314 1 1.1614 17.5"/><path fill="none" stroke="#000" stroke-linejoin="round" stroke-width="2" d="m33 5h5l-1 6h-3l-1-6z"/><path fill="none" stroke="#000" stroke-linecap="round" stroke-linejoin="round" stroke-width="2" d="M21.5 15.5H41"/><path fill="none" stroke="#000" stroke-linecap="round" stroke-width="2" d="m26.989 15.574-1.2951 7.3566"/><path fill="none" stroke="#000" stroke-linecap="round" stroke-width="2" d="m28 33v3"/><path fill="none" stroke="#000" stroke-linecap="round" stroke-width="2" d="m44 33v5"/></g></svg>