<svg xmlns="http://www.w3.org/2000/svg" id="a" viewBox="0 0 72 72"><g id="b"><path fill="#d0cfce" fill-rule="evenodd" d="m21.42 12h-8.4202c-0.2478 2.726 1.224 6.4346 2.7716 10.334 1.2798 3.2248 2.6115 6.5804 3.0656 9.6192l-1.8859 22.631c-0.243 2.9151 2.0575 5.4152 4.9827 5.4152h27.744c2.8842 0 5.1702-2.4334 4.9903-5.3119l-2.3555-37.688-0.0195-0.3119-0.2344-3.7505c-0.0329-0.527-0.47-0.9376-0.998-0.9376h-29.64z" clip-rule="evenodd"/><g fill="#9B9B9A"><path fill-rule="evenodd" d="m20.119 16.571-0.0012 0.0138-0.0345 0.4152-3.1321 37.585c-0.243 2.9151 2.0575 5.4152 4.9827 5.4152h27.744c2.8842 0 5.1702-2.4334 4.9903-5.3119l-2.3555-37.688-0.0195-0.3119-0.2344-3.7505c-0.0329-0.527-0.47-0.9376-0.998-0.9376h-29.64c-0.5201 0-0.9534 0.3987-0.9966 0.917l-0.3045 3.654z" clip-rule="evenodd"/><path d="m20.118 16.585-0.9965-0.0831v1e-4l0.9965 0.083zm0.0012-0.0138 0.9963 0.0858 2e-4 -0.0027-0.9965-0.0831zm-0.0357 0.429 0.9965 0.083-0.9965-0.083zm-3.1321 37.585-0.9966-0.0831 0.9966 0.0831zm37.717 0.1033-0.998 0.0624 0.998-0.0624zm-2.3555-37.688 0.9981-0.0624-0.9981 0.0624zm-0.0195-0.3119-0.998 0.0624 0.998-0.0624zm-0.2344-3.7505 0.9981-0.0624-0.9981 0.0624zm-31.635-0.0206 0.9966 0.083-0.9966-0.083zm0.6909 3.7508c3e-4 -0.0037 6e-4 -0.0073 9e-4 -0.011l-1.9926-0.1715c-5e-4 0.0055-9e-4 0.0109-0.0014 0.0164l1.9931 0.1661zm-0.0346 0.4152 0.0346-0.4152-1.9931-0.166-0.0346 0.4152 1.9931 0.166zm-3.1321 37.585 3.1321-37.585-1.9931-0.166-3.1321 37.585 1.9931 0.1661zm3.9862 4.3322c-2.3402 0-4.1805-2.0001-3.9862-4.3322l-1.9931-0.1661c-0.2915 3.4981 2.4691 6.4983 5.9793 6.4983v-2zm27.744 0h-27.744v2h27.744v-2zm3.9923-4.2495c0.1439 2.3028-1.685 4.2495-3.9923 4.2495v2c3.461 0 6.2043-2.9201 5.9884-6.3743l-1.9961 0.1248zm-2.3555-37.688 2.3555 37.688 1.9961-0.1248-2.3555-37.688-1.9961 0.1248zm-0.0195-0.3119 0.0195 0.3119 1.9961-0.1248-0.0195-0.3119-1.9961 0.1248zm-0.2344-3.7505 0.2344 3.7505 1.9961-0.1248-0.2344-3.7505-1.9961 0.1248zm0 0 1.9961-0.1248c-0.0659-1.054-0.94-1.8752-1.9961-1.8752v2zm-3.7579 0h3.7579v-2h-3.7579v2zm-22.202 0h22.202v-2h-22.202v2zm-3.6805 0h3.6805v-2h-3.6805v2zm0 0v-2c-1.0402 0-1.9068 0.7973-1.9931 1.8339l1.9931 0.1661zm-0.3046 3.6541 0.3046-3.6541-1.9931-0.1661-0.3045 3.6541 1.993 0.1661z"/></g><path fill="#D0CFCE" fill-rule="evenodd" d="m30.526 16.28c-1e-4 4e-3 -2e-4 8e-3 -3e-4 0.0121l-0.0161 0.7077-0.8631 37.886c-0.0639 2.8053 2.1927 5.1139 4.9987 5.1139h0.3235c2.7948 0 5.047-2.291 4.9993-5.0854l-0.6478-37.915-0.0687-4.0171c-0.0093-0.5455-0.4542-0.9829-0.9998-0.9829h-6.6507c-0.5434 0-0.9874 0.434-0.9998 0.9772l-0.0752 3.303z" clip-rule="evenodd"/><path fill="#9B9B9A" d="m30.526 16.292-0.9997-0.0228 0.9997 0.0228zm3e-4 -0.0121 0.9997 0.0254v-0.0027l-0.9997-0.0227zm-0.0164 0.7198 0.9997 0.0228-0.9997-0.0228zm-0.8631 37.886-0.9997-0.0228 0.9997 0.0228zm10.322 0.0285-0.9999 0.0171 0.9999-0.0171zm-0.6478-37.915 0.9998-0.0171-0.9998 0.0171zm-0.0687-4.0171 0.9999-0.0171-0.9999 0.0171zm-8.6503-0.0057 0.9998 0.0228-0.9998-0.0228zm0.9242 3.3378c1e-4 -0.0031 2e-4 -0.0062 3e-4 -0.0094l-1.9994-0.0509c-1e-4 0.0049-2e-4 0.0098-3e-4 0.0148l1.9994 0.0455zm-0.0161 0.7078 0.0161-0.7078-1.9994-0.0455-0.0161 0.7077 1.9994 0.0456zm-0.8631 37.886 0.8631-37.886-1.9994-0.0456-0.8631 37.886 1.9994 0.0456zm3.999 4.0911c-2.2448 0-4.0501-1.8469-3.999-4.0911l-1.9994-0.0456c-0.0767 3.3664 2.6312 6.1367 5.9984 6.1367v-2zm0.3235 0h-0.3235v2h0.3235v-2zm3.9994-4.0683c0.0382 2.2355-1.7635 4.0683-3.9994 4.0683v2c3.3538 0 6.0564-2.7492 5.9991-6.1025l-1.9997 0.0342zm-0.6478-37.915 0.6478 37.915 1.9997-0.0342-0.6478-37.915-1.9997 0.0342zm-0.0686-4.0171 0.0686 4.0171 1.9997-0.0342-0.0686-4.0171-1.9997 0.0342zm0 0 1.9997-0.0342c-0.0186-1.0911-0.9085-1.9658-1.9997-1.9658v2zm-3.3348 0h3.3348v-2h-3.3348v2zm-3.3159 0h3.3159v-2h-3.3159v2zm0 0v-2c-1.0868 0-1.9747 0.8679-1.9995 1.9545l1.9995 0.0455zm-0.0753 3.3029 0.0753-3.3029-1.9995-0.0455-0.0752 3.3029 1.9994 0.0455z"/></g><g id="c"><path d="m12 12v-1c-0.5172 0-0.949 0.3944-0.9959 0.9095l0.9959 0.0905zm2.7716 10.334 0.9295-0.3689-0.9295 0.3689zm3.2284 11.666h-1c0 0.5523 0.4477 1 1 1v-1zm0.6674-0.0087 0.9966 0.083c0.0236-0.2833-0.0745-0.5632-0.2698-0.7698-0.1952-0.2067-0.4692-0.3204-0.7533-0.3129l0.0265 0.9997zm-1.7161 20.594-0.9966-0.0831 0.9966 0.0831zm37.717 0.1033-0.998 0.0624 0.998-0.0624zm-2.3555-37.688 0.9981-0.0624v-1e-4l-0.9981 0.0625zm-0.0195-0.3119-0.998 0.0624v1e-4l0.998-0.0625zm-0.2344-3.7505 0.9981-0.0624-0.9981 0.0624zm-40.059 0.0624h9.4202v-2h-9.4202v2zm3.7011 8.9656c-0.7778-1.9599-1.5155-3.8206-2.0313-5.5278-0.5195-1.7191-0.7801-3.1789-0.6739-4.3473l-1.9918-0.181c-0.1416 1.5576 0.2098 3.3151 0.7512 5.1068 0.545 1.8036 1.317 3.7471 2.0869 5.687l1.8589-0.7377zm3.2989 12.034c0-3.7631-1.7484-8.1273-3.2989-12.034l-1.8589 0.7377c1.5992 4.03 3.1578 7.9987 3.1578 11.297h2zm-0.3591-1.0084c-0.2094 0.0056-0.423 0.0084-0.6409 0.0084v2c0.2351 0 0.4664-3e-3 0.694-0.0091l-0.0531-1.9993zm-0.97 0.9166-1.7162 20.594 1.9931 0.1661 1.7162-20.594-1.9931-0.1661zm-1.7162 20.594c-0.2915 3.4981 2.4691 6.4983 5.9793 6.4983v-2c-2.3402 0-4.1805-2.0001-3.9862-4.3322l-1.9931-0.1661zm5.9793 6.4983h27.744v-2h-27.744v2zm27.744 0c3.461 0 6.2043-2.9201 5.9884-6.3743l-1.9961 0.1248c0.1439 2.3028-1.685 4.2495-3.9923 4.2495v2zm5.9884-6.3743-2.3555-37.688-1.9961 0.1248 2.3555 37.688 1.9961-0.1248zm-2.3555-37.688-0.0195-0.3118-1.9961 0.1249 0.0195 0.3119 1.9961-0.125zm-0.0195-0.3118-0.2344-3.7505-1.9961 0.1248 0.2344 3.7505 1.9961-0.1248zm-0.2344-3.7505c-0.0659-1.054-0.94-1.8752-1.9961-1.8752v2l1.9961-0.1248zm-1.9961-1.8752h-3.7579v2h3.7579v-2zm-3.7579 0h-16.803v2h16.803v-2zm-16.803 0h-5.3993v2h5.3993v-2zm-5.3993 0h-3.6805v2h3.6805v-2z"/><path fill="none" stroke="#000" stroke-linecap="round" stroke-width="2" d="m20.25 15c-0.5793 6.9519-1.0664 12.797-1.5417 18.5"/><path fill="none" stroke="#000" stroke-linecap="round" stroke-linejoin="round" stroke-width="2" d="m54.5 21.5-0.0707-1.9267c-0.0416-1.1325 0.8653-2.0733 1.9987-2.0733h8.2607c1.2189 0 2.1544 1.081 1.9793 2.2873l-3.9194 27c-0.1427 0.9833-0.9857 1.7127-1.9792 1.7127h-2.7694c-1.1046 0-2-0.8954-2-2v-1.5623"/></g></svg>