<?xml version="1.0" encoding="UTF-8"?>
<svg id="a" viewBox="0 0 72 72" xmlns="http://www.w3.org/2000/svg"><g id="b"><path d="m49.5 21h-7.5v2.5h7.5v4c0 2.5-5.5 13.5-5.5 13.5l3 6s5-15.5 5-19.5v-6.5h-2.5z" clip-rule="evenodd" fill="#3F3F3F" fill-rule="evenodd"/><path d="m18 27.5v-6.5h4v4c0 2.5 4 6 4 6l-3 16s-5-15.5-5-19.5z" fill="#d0cfce"/><path d="m27.111 17c0.6348-2.8377 3.9254-5 7.8894-5s7.2546 2.1623 7.8894 5h0.1106l5 33.5-3 9.5h-20l-3-9.5 5-33.5h0.1106z" clip-rule="evenodd" fill="#d0cfce" fill-rule="evenodd"/><path d="M32.6667 60H30L28 50.5L31.3333 17H34L30.6667 50.5L32.6667 60Z" clip-rule="evenodd" fill="#D0CFCE" fill-rule="evenodd"/><path d="m47.776 49h-25.552l-0.2239 1.5 3 9.5h20l3-9.5-0.2239-1.5z" clip-rule="evenodd" fill="#3F3F3F" fill-rule="evenodd"/><circle cx="35.5" cy="55" r="2" fill="#D22F27" stroke="#9B9B9A" stroke-width="2"/><rect x="33" y="8" width="4" height="4" fill="#3F3F3F"/></g><g id="c"><path d="m44 21h8v6.5c0 3.2382-3.2769 14.013-4.525 18m-3.475-22h5.5v4c0 1.4799-1.9272 5.9381-3.5 9.3301" fill="none" stroke="#000" stroke-linecap="round" stroke-linejoin="round" stroke-width="2"/><path d="m22.5 45.42c-1.2663-4.0489-4.5-14.703-4.5-17.92v-6.5h4v4c0 1.6667 1.7778 3.7778 2.963 5" fill="none" stroke="#000" stroke-linecap="round" stroke-linejoin="round" stroke-width="2"/><path d="m43 17h-1c0 0.0494 0.0037 0.0988 0.011 0.1476l0.989-0.1476zm-16 0 0.989 0.1476c0.0073-0.0488 0.011-0.0982 0.011-0.1476h-1zm-5 33.5-0.989-0.1476c-0.0225 0.1503-0.0104 0.3038 0.0354 0.4487l0.9536-0.3011zm3 9.5-0.9536 0.3011c0.1314 0.4161 0.5173 0.6989 0.9536 0.6989v-1zm20 0v1c0.4363 0 0.8222-0.2828 0.9536-0.6989l-0.9536-0.3011zm3-9.5 0.9536 0.3011c0.0458-0.1449 0.0579-0.2984 0.0354-0.4487l-0.989 0.1476zm-13-37.5c2.0517 0 3.8617 0.5218 5.1269 1.3125 1.2792 0.7995 1.8731 1.776 1.8731 2.6875h2c0-1.8499-1.197-3.3734-2.8131-4.3835-1.6303-1.019-3.8203-1.6165-6.1869-1.6165v2zm-7 4c0-0.9115 0.5939-1.888 1.8731-2.6875 1.2652-0.7907 3.0752-1.3125 5.1269-1.3125v-2c-2.3666 0-4.5566 0.5975-6.1869 1.6165-1.6161 1.0101-2.8131 2.5336-2.8131 4.3835h2zm-1.989-0.1476-5 33.5 1.978 0.2952 5-33.5-1.978-0.2952zm-4.9646 33.949 3 9.5 1.9072-0.6022-3-9.5-1.9072 0.6022zm3.9536 10.199h10v-2h-10v2zm10 0h10v-2h-10v2zm10.954-0.6989 3-9.5-1.9072-0.6022-3 9.5 1.9072 0.6022zm3.0354-9.9487-5-33.5-1.978 0.2952 5 33.5 1.978-0.2952z"/><path d="m35.5 57c-1.1046 0-2-0.8954-2-2s0.8954-2 2-2" fill="none" stroke="#000" stroke-linecap="round" stroke-width="2"/><path d="m23 50h21.5" fill="none" stroke="#000" stroke-linecap="round" stroke-linejoin="round" stroke-width="2"/><path d="m27 17h13" fill="none" stroke="#000" stroke-linecap="round" stroke-width="2"/><rect x="33" y="8" width="4" height="4" fill="none" stroke="#000" stroke-linejoin="round" stroke-width="2"/></g></svg>
