<svg xmlns="http://www.w3.org/2000/svg" id="a" viewBox="0 0 72 72"><g id="b"><path fill="#fff" d="m38 54v-13h17v9l-17 4z"/><path fill="#A57939" d="M38 19H55V42H38V19Z"/><g fill="#6A462F"><path fill-rule="evenodd" d="m38 54.5v3.5c0 1.1046 0.8954 2 2 2h13c1.1046 0 2-0.8954 2-2v-7.5l-17 4z" clip-rule="evenodd"/><path d="m38 54.5-0.229-0.9734c-0.4518 0.1063-0.771 0.5093-0.771 0.9734h1zm17-4h1c0-0.3055-0.1396-0.5942-0.3791-0.7839s-0.5526-0.2595-0.8499-0.1895l0.229 0.9734zm-16 7.5v-3.5h-2v3.5h2zm1 1c-0.5523 0-1-0.4477-1-1h-2c0 1.6569 1.3431 3 3 3v-2zm13 0h-13v2h13v-2zm1-1c0 0.5523-0.4477 1-1 1v2c1.6569 0 3-1.3431 3-3h-2zm0-3.5v3.5h2v-3.5h-2zm0-4v4h2v-4h-2zm-15.771 4.9734 17-4-0.458-1.9468-17 4 0.458 1.9468z"/><path d="m38 54.5-0.229-0.9734c-0.4518 0.1063-0.771 0.5093-0.771 0.9734h1zm17-4h1c0-0.3055-0.1396-0.5942-0.3791-0.7839s-0.5526-0.2595-0.8499-0.1895l0.229 0.9734zm-16 7.5v-3.5h-2v3.5h2zm1 1c-0.5523 0-1-0.4477-1-1h-2c0 1.6569 1.3431 3 3 3v-2zm13 0h-13v2h13v-2zm1-1c0 0.5523-0.4477 1-1 1v2c1.6569 0 3-1.3431 3-3h-2zm0-3.5v3.5h2v-3.5h-2zm0-4v4h2v-4h-2zm-15.771 4.9734 17-4-0.458-1.9468-17 4 0.458 1.9468z"/></g><path fill="#A57939" d="m22 13.528c0 3.0274-2.2386 8.4717-5 8.4717s-5-5.4443-5-8.4717c0-3.0275 2.2386-2.4917 5-2.4917s5-0.5358 5 2.4917z"/><rect width="5" height="5" x="44" y="14" fill="#d0cfce"/></g><g id="c" stroke="#000" stroke-width="2"><path fill="none" stroke-linecap="round" stroke-linejoin="round" d="m41 53.794 11-2.5882"/><path fill="none" d="m38 21c0-1.1046 0.8954-2 2-2h13c1.1046 0 2 0.8954 2 2v37c0 1.1046-0.8954 2-2 2h-13c-1.1046 0-2-0.8954-2-2v-37z"/><rect width="5" height="5" x="44" y="14" fill="none" stroke-linejoin="round"/><path fill="none" stroke-linejoin="round" d="m44 16h-6l-15 9h-6v-3"/><path fill="none" d="m22 13.528c0 3.0274-2.2386 8.4717-5 8.4717s-5-5.4443-5-8.4717c0-3.0275 2.2386-2.4917 5-2.4917s5-0.5358 5 2.4917z"/><line x1="39" x2="52" y1="41" y2="41" stroke-linecap="round"/></g></svg>