<svg xmlns="http://www.w3.org/2000/svg" id="a" version="1.1" viewBox="0 0 72 72"><g id="b"><path fill="#A57939" d="m14.375 47.125s0.2295 0.0762 0.4395 0.248c1.5 1.2295 1.333 2.9405 1.333 2.9405l1.3281 1.4678 4.5244 0.5937 4.75 0.1875 6.375-0.4375 3.5625 1.125 2.75-1.375s0.0625-5.8437 0.7188-5.8437c0.75 0 1.7812 1.1044 1.7812 3.9687 0 3.125-1.7939 6.2754-7.9375 6-0.457-0.0205 0.25 1.8125 0.25 1.8125l-0.9375 2.75-2 2.625-0.3125 3.0625-0.3125 0.375s-0.2637 0.4063-0.8437 0.4063c-2.7813 0-3.2188-1.4688-1.5938-2.0938 0.1309-0.0508 0.375-1.75 0.375-1.75l-2-2.0205-3.917 0.708-4.125 0.208 0.417 1.334-1.708 3.166s1.124 0.459-0.459 0.459c-0.374 0-2.04-0.334-2.207-2.459l0.624-3.209-1.208-2.041-0.833-2-1.917-0.5-4.124 0.624-1.375-1 1.75-1.75 1.6758-2.207 3.2412-2.168 1.915-3.207z"/><path fill="#6A462F" d="m13.583 59.71 1.667 1.664c-0.125 1-2.0713 0.8213-2.1455 1.6465-0.1045 1.166 0.5225 0.835 0.4844 1.6904-0.0821 1.8418-2.4346 1.7686-3.0293 1.1866-0.3848-0.376-0.3096-0.792 0.1484-2.1465 0.8428-2.4932 2.3545-4.25 2.3545-4.25l0.5205 0.209z"/></g><g id="c" fill="#FCEA2B"><circle cx="54.969" cy="8.094" r="3"/><path d="M61.2666,51.6416l-2.1318-13.501l-0.0814-0.0046L60,37l-0.6112-7.3345L60,30l-1.4307-10.9917 C58.2852,16.8267,56.252,15,54.0518,15H54c-2.2002,0-4.2002,1.8306-4.4463,4.0171L49,23.979l0.0469,0.0257L49,24l-0.6505,6.8286 l-5.4735,2.5358l-0.709,1.0127c0,0,0.9072,2.2705,3.3769,1.581l2.4663-1.5679l-0.061,0.6402L46.0137,66l2.1602,1l5.9759-21.0105 l3.3737,8.656L65.167,65l3-2L61.2666,51.6416z"/></g><g id="d" fill="none" stroke="#000" stroke-miterlimit="10" stroke-width="2"><circle cx="54.969" cy="8.094" r="3"/><path stroke-linecap="round" stroke-linejoin="round" d="m49 35-3.0479 30.01c-0.1113 1.0947 0.5684 1.9902 1.5098 1.9902s1.9492-0.8682 2.2383-1.9297l5.4863-20.115c0.2891-1.0615 1.043-2.667 1.6739-3.5674l2.1992-3.1397c0.6308-0.9003 1.1035-2.5371 1.0508-3.6357l-0.4922-10.119"/><path stroke-linecap="round" stroke-linejoin="round" d="m59.135 38.141 1.8203 11.525c0.1709 1.0869 0.7793 2.7451 1.3496 3.6846l4.8242 7.9404c0.5703 0.9395 0.3633 2.1592-0.4619 2.709s-2.0342 0.2764-2.6875-0.6094l-5.2686-7.1357c-0.6533-0.8858-1.5146-2.4483-1.914-3.4727l-2.2031-5.6533"/><path stroke-linecap="round" stroke-linejoin="round" d="M59.9248,29.5811L59.292,19.0347C59.1602,16.8389,57.252,15,55.0518,15H55c-2.2002,0-4.2002,1.8306-4.4463,4.0171L50.084,23.23"/><path stroke-linecap="round" stroke-linejoin="round" d="m55.167 20-3.0684 6.4443c-0.4726 0.9932-1.6269 2.2754-2.5654 2.8487l-7.5957 4.6445"/><path stroke-linecap="round" stroke-linejoin="round" d="m13 57 5-5s17-6 23.938-18.062"/><path stroke-linecap="round" stroke-linejoin="round" d="M40,47c2,5-4,8-7,6c-0.7715-0.5137-3.8535-1.3145-7-1l-8.3281,0.3281L16,51.3125"/><path stroke-linecap="round" stroke-linejoin="round" d="m27 58c0 2 1.25 4.501 1.25 4.501s0.3828 1.2344-0.25 2.499c-1 2 2 3 3 1s0.832-3.6641 1-4c0.4033-0.8066 1.999-1.917 2-4v-1"/><path stroke-linecap="round" stroke-linejoin="round" d="m27 60c-2.041 2.001-4.625 2-8 2"/><path stroke-linecap="round" stroke-linejoin="round" d="m14 59c-1.0156 0.9287-2 1-3 2s-1 3 0 4"/><path stroke-linecap="round" stroke-linejoin="round" d="M14,48l-1,2c0,0-2.2441,0.2998-3,1c-0.5801,0.5371-1,3-1,3s-2.8779,1.5928-3,2c-0.0937,0.3125,1.293,2,2,2c1,0,4-1,4-1c2,0,2,3,3,4 c0.4102,0.4102,0,3-0.334,3.959C13.9863,66.9131,17,68,17.834,65.834C18.1387,65.04,19,63,19,61"/></g></svg>