<svg xmlns="http://www.w3.org/2000/svg" id="a" version="1.1" viewBox="0 0 72 72"><g id="b"><path fill="#3F3F3F" d="m59.402 58.136c0.2986-0.7321 0-1.5517 0-1.5517l-3.088-13.713s-7.3053-4.4615-9.2725-5.1804l0.022 9.259c0.0069 0.3045-0.4776 1.0719-0.7119 1.2663l-0.7823 3.0723-0.0022 4.2743c-0.0465 0.325-0.1344 2.4349-0.402 2.581l14.237-0.0077z"/><path fill="#3F3F3F" d="m30.858 56.236-0.5315-4.6736-0.9703-3.6294c-0.2646-0.205-0.1556-1.4775-0.1312-1.8114l0.1168-10.363c-2.6716 1.1086-10.376 4.284-11.771 5.9-1.5683 1.8164-4.3451 9.9229-5.4818 14.342-0.0718 0.2787 0.1284 2.0113-0.1054 2.1395l18.868-0.0073c-0.2814-0.1538 0.0394-1.5536 7e-3 -1.8968z"/><path fill="#EA5A47" d="m40.93 44.304c0-0.4378-0.3427-1.2023-0.4095-1.6909-0.2221-9e-4 -3.8447 0.0629-4.1998 0-0.3101 0.2796-0.988 2.4611-0.988 3.0657 0 0.9824 0.8923 2.6409 1.1677 3.0706 0.1367 0.2129-1.1677 7.5843-1.1677 7.5843-0.0563 0.3096-0.1549 1.6622-0.4111 1.8022h6.4594l-1.7859-9.9945s1.3349-2.5416 1.3349-3.8374z"/><path fill="#fff" d="m35.085 56.367 1.1626-8.6584c-0.3769-0.6623-0.9002-3.6951-0.8975-3.7144 0.0336-0.7801 0.6051-0.8716 0.9702-1.381-1.2874-0.6318-6.8126-6.6048-6.9788-6.8541 0 0-1.0739 13.326-1.2517 13.189l1.2413 2.709c-0.0528-0.5498 1.5973 6.4707 1.5973 6.4708l3.9697 0.0077c-0.0735-0.0406 0.1648-1.6462 0.1869-1.769z"/><path fill="#D22F27" d="m40.974 55.86-1.3377-7.5169c-0.0615-0.2969 0.4211-0.9308 0.6144-1.1642 0.3252-0.3965 0.9543-1.447 0.9543-2.4168 0-0.655-1.2784-1.9644-1.522-2.1744-0.135 0.0051-0.8911 0.3159-0.9063 0.3159 0.0668 0.4886 0.2606 1.7083 0.2606 2.1461 0 1.2958-0.8415 3.0354-0.8415 3.0354l1.0875 10.059 2.0974-0.0077c-0.2487-0.136-0.3449-1.9761-0.4067-2.276z"/><path fill="#D22F27" d="m41.915 58.002z"/><path fill="#fff" d="m46.213 39.82c-0.271 0.2753-5.0554 2.9263-5.2475 2.9747 0.221 0.4385-0.0473 0.9182-0.0357 1.5087 7e-4 0.0095-0.4714 2.9412-0.949 3.6131l1.1591 7.7335c0.0253 0.123 0.4713 2.4396 0.3873 2.4853l3.5612 0.0077s1.9313-6.8455 1.8542-6.2987l0.9915-4.0777c-0.1817 0.1513-1.7211-7.9466-1.7211-7.9466z"/></g><g id="c"><path fill="#FCEA2B" d="m54.222 15.293c-1.291 0.698-2.821 0.794-4.187 0.264-3.029-1.269-6.474-3.8199-10.58-4.834-2.849-0.7-6.005-0.811-8.979 1.267-2.518 1.754-5.229 8.09-4.641 13.479 0 0 0.948-2.771 2.891-0.291l0.6 2.725c-0.161-1.025-0.237-2.062-0.229-3.1 0.138-0.815 0.387-0.869 1.16-2.545 1.122-2.431 0.958-3.65 0.313-4.268 0.2 0.052 0.376 0.1 0.51 0.146 2.969 0.974 3.671 1.442 4.53 1.734 2.363 0.8012 7.6118 1.372 11.529 0.9569-0.0908 0.0775-0.1676 0.131-0.2184 0.1406 0.7543 2.2964 1.5889 5.5163 1.6794 7.9885 0.0219 0.4136 2.0251 0.1324 2.0251 0.1324 0.0364-1.0378 0.0032-4.9171-0.2322-9.0099 2.5425-1.145 3.8287-4.7855 3.8287-4.7855z"/></g><g id="d"><path fill="#F1B31C" d="m44.718 41.356c2.2357-1.8806 3.6356-4.6241 3.8413-7.5386 0.2512-2.3396 0.3053-4.6771 0.1646-6.9865-0.022-0.5154-0.0717-1.0247-0.139-1.5296-0.0513-0.3741-0.1238-0.7427-0.2003-1.1103-0.0226-0.1114-0.039-0.2243-0.0639-0.3351-0.1056-0.4598-0.23-0.9145-0.3742-1.3636-0.0027-0.0089-0.0049-0.0179-0.0078-0.0266-0.1501-0.4655-0.3204-0.9253-0.5106-1.3789-0.2572 0.0162-0.5167 0.0283-0.779 0.0382-0.0505 0.0019-0.101 0.0035-0.1517 0.0051-0.7925 0.0263-1.5993 0.0257-2.4083 0.0014-0.0555-0.0016-0.1108-0.0032-0.1662-0.0051-0.2648-9e-3 -0.5277-0.0193-0.791-0.0329-9e-3 -6e-4 -0.0179-0.0011-0.0269-0.0017-0.4931-0.0259-0.98-0.0601-1.4611-0.1009-0.1032-0.0087-0.2067-0.0169-0.3093-0.0263-0.2059-0.0189-0.4084-0.039-0.6104-0.0602-0.1453-0.0153-0.2877-0.0316-0.4305-0.048-0.2309-0.0268-0.4585-0.0541-0.6825-0.0838-0.2285-0.03-0.4543-0.0609-0.6743-0.0937-0.1329-0.0199-0.2609-0.0406-0.3901-0.0615-0.195-0.0312-0.3852-0.0634-0.5715-0.0965-0.1033-0.0185-0.2076-0.0364-0.3079-0.0553-0.2739-0.0516-0.5372-0.105-0.7873-0.1601-0.0591-0.0131-0.1129-0.0265-0.1706-0.0398-0.2054-0.0472-0.4009-0.0951-0.587-0.1442-0.0653-0.0173-0.1302-0.0342-0.1929-0.0517-0.2232-0.0619-0.436-0.1247-0.6243-0.1886-0.3487-0.118-1.5024-0.5024-1.9192-0.6837-0.0016-7e-4 -0.0025-0.0011-0.0039-0.0018-0.4711-0.1765-2.293-1.1458-2.3021-1.0598-0.0077 0.0722-0.9814 5.0891-1.1785 5.4448-0.2284 0.4136-2.1478 0.6185-2.9326 0.3718-0.028-0.0088-0.769 0.8671-0.7898 0.8947-0.0174 0.0227-0.0344 0.0446-0.0522 0.0703-0.0331 0.0492-0.0663 0.1021-0.0978 0.1573-0.0025 0.0045-0.0052 0.0091-0.0077 0.0136-0.0353 0.063-0.0683 0.1275-0.0959 0.1892 0 1e-4 -1e-4 2e-4 -1e-4 3e-4v2e-3c-0.0534 0.7374-0.0088 1.4746 0.132 2.1929 0.0063 0.032 0.0182 0.0627 0.0249 0.0946 0.0679 0.3254 0.1503 0.6479 0.2577 0.9634 0.1202 0.3507 0.2626 0.6946 0.4304 1.0284 0.2598 0.4396 0.5933 0.6432 0.9798 0.8781 0.5089 0.3096 1.2072 0.734 1.4389 1.7474 1.3707 5.9742 5.5379 10.687 9.4875 10.728 2.1567 0.1451 4.2809-0.4092 6.0413-1.5569z"/></g><g id="e"><path fill="none" stroke="#000" stroke-linecap="round" stroke-linejoin="round" stroke-width="2" d="m47.54 38.189c1.8096 0.6235 6.2091 2.3107 8.3564 4.6279 2.9678 3.2048 3.4785 13.024 3.5335 14.32"/><path fill="none" stroke="#000" stroke-linecap="round" stroke-linejoin="round" stroke-width="2" d="m12.089 57.137c0.3035-1.1772 3.4064-13.074 5.4818-15.478 1.938-2.246 10.925-5.9 10.925-5.9l1.5259 0.1812"/><line x1="45.952" x2="45.183" y1="51.704" y2="57.137" fill="none" stroke="#000" stroke-linecap="round" stroke-linejoin="round" stroke-width="2"/><line x1="30.858" x2="30.326" y1="57.137" y2="51.562" fill="none" stroke="#000" stroke-linecap="round" stroke-linejoin="round" stroke-width="2"/><line x1="20.315" x2="20.315" y1="57.137" y2="47.326" fill="none" stroke="#000" stroke-linecap="round" stroke-linejoin="round" stroke-width="2"/><line x1="53.505" x2="53.505" y1="57.137" y2="48.216" fill="none" stroke="#000" stroke-linecap="round" stroke-linejoin="round" stroke-width="2"/><polyline fill="none" stroke="#000" stroke-linecap="round" stroke-linejoin="round" stroke-width="2" points="44.114 47.326 47.024 47.933 46.822 38.804"/><polyline fill="none" stroke="#000" stroke-linecap="round" stroke-linejoin="round" stroke-width="2" points="31.14 47.326 28.701 48.156 29.656 34.868"/><path fill="none" stroke="#000" stroke-linecap="round" stroke-linejoin="round" stroke-width="2" d="m39.683 42.587s1.3145 0.7544 1.3145 2.3074-1.4027 3.2464-1.4027 3.2464l1.8508 8.9956"/><path fill="none" stroke="#000" stroke-linecap="round" stroke-linejoin="round" stroke-width="2" d="m34.946 57.137 1.6239-8.981s-1.1499-1.7806-1.1499-3.284 1.5094-2.4668 1.5094-2.4668"/><path fill="none" stroke="#000" stroke-linecap="round" stroke-linejoin="round" stroke-width="2" d="m50.354 20.576c0.3527 3.5621 0.7042 8.4021 0.1151 8.7841-0.3842 0.2494-0.7696 0.5022-1.1479 0.7507"/><path fill="none" stroke="#000" stroke-linecap="round" stroke-linejoin="round" stroke-width="2" d="m46.921 20.967c0.879 1.8979 1.3803 3.9555 1.469 6.0565 0.131 2.145 0.081 4.297-0.149 6.433-0.207 2.934-1.604 5.655-3.865 7.534-1.789 1.182-3.917 1.744-6.057 1.6-4.079-0.043-8.179-4.6-9.522-10.453-0.23-1.006-1.316-0.801-2.1-2.143-0.703-1.398-1.002-2.966-0.862-4.525"/><circle cx="43.199" cy="26.436" r="2"/><circle cx="35.149" cy="26.436" r="2"/><path fill="none" stroke="#000" stroke-linecap="round" stroke-linejoin="round" stroke-miterlimit="10" stroke-width="2" d="m50.035 15.557c-3.029-1.269-6.474-3.82-10.58-4.834-2.849-0.7-6.005-0.811-8.979 1.267-2.518 1.754-5.229 8.09-4.641 13.479 0 0 0.948-2.771 2.891-0.291l0.6 2.725c-0.161-1.025-0.237-2.062-0.229-3.1 0.138-0.815 0.387-0.869 1.16-2.545 1.122-2.431 0.958-3.65 0.313-4.268 0.2 0.052 0.376 0.1 0.51 0.146 2.969 0.974 3.671 1.442 4.53 1.734 3.088 1.047 11.113 1.707 14.641 0.277 2.639-1.068 3.971-4.854 3.971-4.854-1.291 0.698-2.821 0.794-4.187 0.264z"/><path fill="none" stroke="#000" stroke-linecap="round" stroke-linejoin="round" stroke-width="2" d="m39.72 33.137v0c0.85 0.181 1.391 1.015 1.21 1.863l-0.253 1.189c-0.181 0.849-1.015 1.391-1.863 1.209h-1e-3c-0.849-0.18-1.391-1.015-1.21-1.863l0.253-1.189c0.181-0.848 1.016-1.39 1.864-1.209z"/><path fill="none" stroke="#000" stroke-linecap="round" stroke-linejoin="round" stroke-width="2" d="m25.835 25.469s0.948-2.771 2.891-0.291l0.6 2.725c-0.161-1.025-0.237-2.062-0.229-3.1 0.138-0.815 0.387-0.869 1.16-2.545 1.122-2.431 0.958-3.65 0.313-4.268 0.2 0.052 0.376 0.1 0.51 0.146 2.3257 0.974 3.671 1.442 4.53 1.734 3.088 1.047 11.113 1.707 14.641 0.277 2.639-1.068 3.971-4.854 3.971-4.854-1.291 0.698-2.821 0.794-4.187 0.264-3.029-1.269-6.474-3.82-10.58-4.834-2.849-0.7-6.005-0.811-8.979 1.267-2.518 1.754-5.229 8.09-4.641 13.479"/></g></svg>