<?xml version="1.0" encoding="UTF-8"?>
<svg id="a" viewBox="0 0 72 72" xmlns="http://www.w3.org/2000/svg"><g id="b"><path d="m54 49c-1-2 4-5 4-8 0-1.6006-1-6-5-7-1.7246-0.4316-3.9814-1.4424-6.166-1.3135-9.5215 0.5635-15.209 2.9385-18.834 2.001-0.9687-0.25-8.8125-8-9.375-8.6875l-3.5-3.4062-0.4609 3.6977c-3.167 2.125-3.6641 3.7085-8.6641 7.7085-0.5527 0.4424 1.3145 2.1719 2 2 4-1 8-1 8-1s1.8975 6.1826 2 8c0.1133 1.9971 0 6 1 7 1.5811 1.5811 3 2 3 2s-2 4-3 6c-0.6328 1.2646-0.3535 2.6465 0 3 2 2 8 4 8 4l1-3s-5-2-5-3c0-1.1289 4-4 5-6 0 0 6.5596-0.4023 9-1 1.6895-0.4141 7.0381-2.7969 10.613-4.4316 1.7812 2.58 4.1777 5.7099 4.1777 6.4316l-4 5 2 1s5-4 6-5c0.3535-0.3535 0.1914-1.5381 0-2-0.541-1.3066-1.1582-2.7354-1.791-4z" fill="#A57939"/><path d="m48 49s-2.1426 6.7891-3 9c-0.8906 2.2959-2 8-2 8l4.167-1.167 2.417-4.917-1.25-0.166v-2.584l2.916-3.041" fill="#6A462F"/><path d="m56 35h2s7 3 6 7c-0.7275 2.9102-4.126 5.583 0.874 10.583 0 0 0.709 2.834-2.041 2.042 0 0-2.3789-0.9268-3.375-4.083-1.75-5.542 1.6514-8.1826 1-10.209-0.375-1.166-2.334-1.125-2.334-1.125" fill="#6A462F"/><path d="M21.2813,52.125l-1.0938,2.9375c-0.625,0.2188-4.4219,1.5352-4.2812,2.7188C16.125,59.625,15,65,15,65l-2,1 c0,0-2-8-2-9c0-0.79,0-2,1-3s6-4,6-4" fill="#6A462F"/></g><g id="c" fill="#FCEA2B"><circle cx="28.386" cy="13.062" r="2.9687"/><path d="M34,28l1,3l-6.7949,8l-0.0967,2.3262l4.4771,7.9387l3.1313-1.6485l-2.1381-7.9379L42,35l2-4l-8.5267-12.3163l-4.7572,0.8079l0.6382,5.9204L24,28.2188c0,0,0.8125,1.7187,1.9375,1.5312s6-0.9687,7.25-2.25L34,28z" stroke-linecap="round" stroke-linejoin="round"/></g><g id="d" fill="none" stroke="#000" stroke-miterlimit="10" stroke-width="2"><circle cx="28.386" cy="13.062" r="2.9687"/><path d="m25 28 5.0771-1.4507c1.0577-0.3022 1.6758-1.4145 1.3731-2.4722l-0.9004-3.1542c-0.3027-1.0577 0.333-2.0992 1.4111-2.315l1.0782-0.2158c1.0781-0.2158 2.4736 0.3476 3.0996 1.2524l6.7226 9.711c0.626 0.9043 0.7364 2.4492 0.2442 3.4336l-0.211 0.4218c-0.4922 0.9844-1.6816 2.2266-2.6425 2.7608l-5.504 3.0566c-0.9609 0.5342-1.3945 1.7998-0.9628 2.8106l1.8466 4.3222c0.4317 1.0108 0.0166 2.2891-0.9228 2.8389-0.9404 0.5498-2.1514 0.2158-2.6914-0.7422l-2.9268-5.1894c-0.54-0.958-0.9609-2.2657-0.9345-2.9053 0.0273-0.6397 0.6318-1.8486 1.3437-2.6875l4.2051-4.9512c0.7119-0.8389 1.0703-2.1992 0.7949-3.0244s-0.5-1.5-0.5-1.5" stroke-linecap="round" stroke-linejoin="round"/><path d="m27 35c-1-1-3.4512-4.4502-6-7-1-1-3-2-3-2l-2-3" stroke-linecap="round" stroke-linejoin="round"/><path d="m46 40s-1 3 0 5c1.1885 2.377 5.791 8 5.791 9l-2.791 3s-1.1377 0.748-1.124 1.376c0.041 1.917 1.915 1.624 1.915 1.624s6.3779-5.5635 6.209-6c-0.5107-1.3193-1.3672-3.7354-2-5-1-2 4-5 4-8 0-1.6006-1-6-5-7-1.7246-0.4316-3.7734-0.4912-5.958-0.3486" stroke-linecap="round" stroke-linejoin="round"/><path d="m24 64c-1.7998-0.7598-3.957-1.957-5-3-0.3535-0.3535-0.6328-1.7354 0-3l3-6s-1.4189-0.4189-3-2c-1-1-0.8867-5.0029-1-7-0.1025-1.8174-2-8-2-8s-4 0-8 1c-0.6855 0.1719-2.5527-1.5576-2-2 5-4 5-4 8-6" stroke-linecap="round" stroke-linejoin="round"/><path d="m26 61s0.5527 0.5254 1.2295 1.166c0.6758 0.6416 0.6943 1.7197 0.042 2.3965-0.6543 0.6758-1.6563 0.8252-2.2295 0.333s-1.042-0.8955-1.042-0.8955" stroke-linecap="round" stroke-linejoin="round"/><path d="m47 48s-7.3848 3.3594-10 4c-2.4404 0.5977-9 1-9 1-4 4-5 6-5 6s1.6289 1.3418 3 2" stroke-linecap="round" stroke-linejoin="round"/><path d="m48 49s-2.1426 6.7891-3 9c-0.4707 1.2129-0.6182 1.9219-1.542 3.958-0.8242 1.8164-0.9101 2.1182-0.9101 2.1182-0.3018 1.0586 0.1269 2.1484 0.9521 2.4238s1.9004-0.3066 2.3887-1.292l1.0488-2.1142" stroke-linecap="round" stroke-linejoin="round"/><path d="m15 62v2c0 1.0996-0.6748 2-1.5 2s-1.5-0.7002-1.5-1.5566v-2.4014" stroke-linecap="round" stroke-linejoin="round"/><path d="m18 50s-5 3-6 4-1 2.21-1 3c0 0.5176 0.4834 2.8535 1 5.042" stroke-linecap="round" stroke-linejoin="round"/><path d="m56 35h2s7 3 6 7c-0.7275 2.9102-5 6 0 11" stroke-linecap="round" stroke-linejoin="round"/><line x1="15" x2="15" y1="58" y2="62" stroke-linecap="round" stroke-linejoin="round"/></g></svg>
