<svg xmlns="http://www.w3.org/2000/svg" id="a" viewBox="0 0 72 72"><g id="b"><path fill="#FCEA2B" d="m32.6 43c6.0751 0 11-6.268 11-14s-4.9249-14-11-14-11 6.268-11 14 4.9249 14 11 14z"/></g><g id="c" fill="#6A462F"><path d="m33 20c-5.6 0-9.3333 2.6667-10.5 4 0.8333-2.8333 4.2-8.5 11-8.5s9.1667 5 9.5 7.5c-1-1-4.4-3-10-3z"/><ellipse cx="33" cy="13.5" rx="4" ry="2.5"/></g><g id="d"><path fill="#3F3F3F" d="m14 59.1v-4c0-5 5-9 10-9 6 5 12 5 18 0 5 0 10 4 10 9v4"/><path fill="#6A462F" fill-rule="evenodd" d="m23.048 46.148c-1.0453 0.1042-2.0766 0.3763-3.0477 0.7884v12.164h26v-12.164c-0.8258-0.3505-1.6953-0.5997-2.5798-0.7305l-0.9202 0.3944-0.5 7.5h-18l-0.5-7.5-0.4523-0.4523z" clip-rule="evenodd"/><path fill="#fff" d="m41 57.1h20l-2 3h-16l-2-3z"/><g fill="#fff"><path fill-rule="evenodd" d="m51 58.1c3.3137 0 6-4.4772 6-10h-12c0 5.5228 2.6863 10 6 10z" clip-rule="evenodd"/><path d="m57 48.1h1c0-0.5523-0.4477-1-1-1v1zm-12 0v-1c-0.5523 0-1 0.4477-1 1h1zm11 0c0 2.6113-0.6371 4.927-1.6149 6.5565-0.9896 1.6495-2.2175 2.4435-3.3851 2.4435v2c2.1461 0 3.9182-1.4446 5.1001-3.4145 1.1939-1.9897 1.8999-4.674 1.8999-7.5855h-2zm-11 1h12v-2h-12v2zm6 8c-1.1676 0-2.3955-0.794-3.3851-2.4435-0.9778-1.6295-1.6149-3.9452-1.6149-6.5565h-2c0 2.9115 0.706 5.5958 1.8999 7.5855 1.1819 1.9699 2.954 3.4145 5.1001 3.4145v-2z"/></g></g><g id="e"><path fill="none" stroke="#000" stroke-linejoin="round" stroke-width="2" d="m32.968 15.3c-6.0635 0-11 5-11 14 0 6.6462 3.3964 14.1 11 14.1 7.5559 0 11.064-7.483 11.064-14.1 0-9-5.127-14-11.064-14z"/><path d="m39 27.9c0 1.1-0.9 2-2 2s-2-0.9-2-2 0.9-2 2-2 2 0.9 2 2z"/><path d="m31 27.9c0 1.1-0.9 2-2 2s-2-0.9-2-2 0.9-2 2-2 2 0.9 2 2z"/><path fill="none" stroke="#000" stroke-linecap="round" stroke-linejoin="round" stroke-width="2" d="m30 36.1c1.9 1 4.1 1 6 0"/><path fill="none" stroke="#000" stroke-width="2" d="m30.5 15.452c-0.9145-0.4582-1.5-1.1622-1.5-1.9517 0-1.3807 1.7909-2.5 4-2.5s4 1.1193 4 2.5c0 0.7895-0.5855 1.4935-1.5 1.9517"/><path fill="none" stroke="#000" stroke-linecap="round" stroke-linejoin="round" stroke-width="2" d="m22 28.5c0-7.5 7-10.5 11-8 4-2.5 11 0.5 11 8"/><g fill="none" stroke="#000" stroke-width="2"><path stroke-linecap="round" stroke-linejoin="round" d="m14 58v-3c0-5 5-9 10-9 6 5 12 5 18 0 0.5017 0 1.0034 0.0403 1.5 0.1178"/><path stroke-linejoin="round" d="m23.5 46.6 0.5 7.5h18l0.5-7.5"/><path stroke-linecap="round" d="m20 47.1v11"/><path stroke-linecap="round" stroke-linejoin="round" d="m46.2 54.1c-0.7533-1.6713-1.1996-3.7488-1.1996-6h12c0 2.2512-0.4463 4.3287-1.1996 6"/><path stroke-linejoin="round" d="m41 57.1h20l-2 3h-16l-2-3z"/></g></g></svg>