<svg xmlns="http://www.w3.org/2000/svg" id="a" viewBox="0 0 72 72"><g id="b"><ellipse cx="33" cy="29.5" fill="#FCEA2B" rx="12" ry="14.5"/></g><g id="c" fill="#6A462F"><path d="m42.8 15.1c3 5.8 1.3 11.9 1.3 11.9v-0.4c-1.8-7.2-3.8-8.6-5-8.7v-0.4c1-0.5 2.4-1.4 3.5-2.6l0.2 0.2z"/><path d="m43.9 9.7c0.8 2.2 0.1 3.9-1.2 5.3-1.1 1.2-2.5 2-3.5 2.5-0.7 0.4-1.2 0.5-1.2 0.5-5.8 2.2-6.1 1.9-10.6 0 0 0-3.4-2.5-6.2 8.6v0.4s-2.2-6.8 2-13.2c3.2-4.9 12.9-2.4 12.9-2.4l3.1-2.4 1.1 3.1 3.6-2.4z"/></g><g id="d"><path fill="#3F3F3F" d="m14 59.1v-4c0-5 5-9 10-9 6 5 12 5 18 0 5 0 10 4 10 9v4"/><path fill="#6A462F" fill-rule="evenodd" d="m23.048 46.148c-1.0453 0.1042-2.0766 0.3763-3.0477 0.7884v12.164h26v-12.164c-0.8258-0.3505-1.6953-0.5997-2.5798-0.7305l-0.9202 0.3944-0.5 7.5h-18l-0.5-7.5-0.4523-0.4523z" clip-rule="evenodd"/><path fill="#fff" d="m41 57.1h20l-2 3h-16l-2-3z"/><g fill="#fff"><path fill-rule="evenodd" d="m51 58.1c3.3137 0 6-4.4772 6-10h-12c0 5.5228 2.6863 10 6 10z" clip-rule="evenodd"/><path d="m57 48.1h1c0-0.5523-0.4477-1-1-1v1zm-12 0v-1c-0.5523 0-1 0.4477-1 1h1zm11 0c0 2.6113-0.6371 4.927-1.6149 6.5565-0.9896 1.6495-2.2175 2.4435-3.3851 2.4435v2c2.1461 0 3.9182-1.4446 5.1001-3.4145 1.1939-1.9897 1.8999-4.674 1.8999-7.5855h-2zm-11 1h12v-2h-12v2zm6 8c-1.1676 0-2.3955-0.794-3.3851-2.4435-0.9778-1.6295-1.6149-3.9452-1.6149-6.5565h-2c0 2.9115 0.706 5.5958 1.8999 7.5855 1.1819 1.9699 2.954 3.4145 5.1001 3.4145v-2z"/></g></g><g id="e"><path d="m37 24.7c1.1 0 2 0.9 2 2s-0.9 2-2 2-2-0.9-2-2 0.9-2 2-2z"/><path d="m36.9 34.5c0.2 0.5 0 1.1-0.5 1.3-1.1 0.6-2.3 0.8-3.5 0.8s-2.3-0.3-3.4-0.8c-0.5-0.2-0.7-0.8-0.5-1.3s0.8-0.7 1.3-0.4c1.7 0.9 3.4 0.9 5.1 0 0.6-0.3 1.2-0.1 1.5 0.4z"/><path fill="none" stroke="#000" stroke-linecap="round" stroke-linejoin="round" stroke-width="1.6" d="m33 32s1.2-2 3.6 0c0.3721 0.3786 0.8609 0.6208 1.3875 0.6875"/><path fill="none" stroke="#000" stroke-linecap="round" stroke-linejoin="round" stroke-width="1.6" d="m32.988 32s-1.2-2-3.6 0c-0.3721 0.3786-0.8609 0.6208-1.3875 0.6875"/><path d="m29 24.7c1.1 0 2 0.9 2 2s-0.9 2-2 2-2-0.9-2-2 0.9-2 2-2z"/><path fill="none" stroke="#000" stroke-linecap="round" stroke-linejoin="round" stroke-miterlimit="10" stroke-width="2" d="m21.3 27c0 0.4 0 1.4-0.1 2.4-0.2 3.1 0.4 6.2 1.9 8.9 0.6 1 1.3 2 2.1 2.7 2.8 2.4 5.6 2.5 7.4 2.5"/><path fill="none" stroke="#000" stroke-linecap="round" stroke-linejoin="round" stroke-miterlimit="10" stroke-width="2" d="m44.2 27c0 0.4 0.1 1.4 0.1 2.4 0.2 3.1-0.4 6.2-1.9 8.9-0.6 1-1.2 2-2.1 2.7-2.8 2.4-5.5 2.5-7.4 2.5h-0.3"/><path fill="none" stroke="#000" stroke-linecap="round" stroke-linejoin="round" stroke-miterlimit="10" stroke-width="2" d="m21.3 27s-2.2-6.8 2-13.2c3.2-4.9 12.9-2.4 12.9-2.4l3.1-2.4 1.1 3.1 3.4-2.5c0.8 2.2 0.1 3.9-1.2 5.3-1.1 1.2-2.5 2-3.5 2.5-0.7 0.4-1.2 0.5-1.2 0.5-5.8 2.2-6.1 1.9-10.6 0 0 0-3.4-2.5-6.2 8.6"/><path fill="none" stroke="#000" stroke-linecap="round" stroke-linejoin="round" stroke-miterlimit="10" stroke-width="2" d="m39 17.9h0.2c1.2 0.1 3.2 1.5 5 8.7"/><path fill="none" stroke="#000" stroke-linecap="round" stroke-linejoin="round" stroke-miterlimit="10" stroke-width="2" d="m42.8 15.1c3 5.8 1.3 11.9 1.3 11.9"/><g fill="none" stroke="#000" stroke-width="2"><path stroke-linecap="round" stroke-linejoin="round" d="m14 58v-3c0-5 5-9 10-9 6 5 12 5 18 0 0.5017 0 1.0034 0.0403 1.5 0.1178"/><path stroke-linejoin="round" d="m23.5 46.6 0.5 7.5h18l0.5-7.5"/><path stroke-linecap="round" d="m20 47.1v11"/><path stroke-linecap="round" stroke-linejoin="round" d="m46.2 54.1c-0.7533-1.6713-1.1996-3.7488-1.1996-6h12c0 2.2512-0.4463 4.3287-1.1996 6"/><path stroke-linejoin="round" d="m41 57.1h20l-2 3h-16l-2-3z"/></g></g></svg>