<svg xmlns="http://www.w3.org/2000/svg" id="a" viewBox="0 0 72 72"><g id="b"><ellipse cx="19.5" cy="42" fill="#3F3F3F" rx="3.5" ry="3"/><g fill="#3F3F3F"><path fill-rule="evenodd" d="m43 46.153v11.847h-23v-11.064c1.2651-0.5369 2.6326-0.8361 4-0.8361 6 5 12 5 18 0 0.3338 0 0.6677 0.0178 1 0.0526z" clip-rule="evenodd"/><path d="m43 46.153h1c0-0.512-0.3867-0.9413-0.896-0.9946l-0.104 0.9946zm0 11.847v1c0.5523 0 1-0.4477 1-1h-1zm-23 0h-1c0 0.5523 0.4477 1 1 1v-1zm0-11.064-0.3907-0.9205c-0.3694 0.1568-0.6093 0.5192-0.6093 0.9205h1zm4-0.8361 0.6402-0.7682c-0.1797-0.1498-0.4063-0.2318-0.6402-0.2318v1zm18 0v-1c-0.2339 0-0.4605 0.082-0.6402 0.2318l0.6402 0.7682zm0 0.0526v11.847h2v-11.847h-2zm1 10.847h-23v2h23v-2zm-22 1v-11.064h-2v11.064h2zm-0.6093-10.143c1.1515-0.4888 2.3865-0.7567 3.6093-0.7567v-2c-1.512 0-3.0119 0.3304-4.3907 0.9156l0.7814 1.8411zm2.9691-0.9885c3.1247 2.6039 6.3434 3.9818 9.6402 3.9818s6.5155-1.3779 9.6402-3.9818l-1.2804-1.5364c-2.8753 2.396-5.6566 3.5182-8.3598 3.5182s-5.4845-1.1222-8.3598-3.5182l-1.2804 1.5364zm18.64 0.2318c0.2982 0 0.5973 0.0159 0.896 0.0471l0.208-1.9891c-0.366-0.0383-0.7346-0.058-1.104-0.058v2z"/></g><g fill="#6A462F"><path fill-rule="evenodd" d="m24 58v-4h18l0.5-7.4 0.9202-0.3944c0.8845 0.1308 1.754 0.38 2.5798 0.7305v11.064h-22z" clip-rule="evenodd"/><path d="m24 54v-1c-0.5523 0-1 0.4477-1 1h1zm0 4h-1c0 0.5523 0.4477 1 1 1v-1zm18-4v1c0.5261 0 0.9623-0.4077 0.9977-0.9326l-0.9977-0.0674zm0.5-7.4-0.3939-0.9192c-0.3453 0.148-0.5785 0.477-0.6038 0.8518l0.9977 0.0674zm0.9202-0.3944 0.1462-0.9892c-0.183-0.0271-0.3701-0.0028-0.5402 0.0701l0.394 0.9191zm2.5798 0.7305h1c0-0.4013-0.2399-0.7637-0.6093-0.9205l-0.3907 0.9205zm0 11.064v1c0.5523 0 1-0.4477 1-1h-1zm-23-4v4h2v-4h-2zm19-1h-18v2h18v-2zm-0.4977-6.4674-0.5 7.4 1.9954 0.1348 0.5-7.4-1.9954-0.1348zm1.5239-1.2461-0.9201 0.3943 0.7878 1.8383 0.9202-0.3943-0.7879-1.8383zm0.2477 1.9084c0.797 0.1178 1.5845 0.343 2.3354 0.6618l0.7814-1.8411c-0.9008-0.3823-1.8522-0.6555-2.8243-0.7992l-0.2925 1.9785zm3.7261 10.805v-11.064h-2v11.064h2zm-23 1h22v-2h-22v2z"/></g><path fill="#fff" d="m41 57.1h20l-2 3h-16l-2-3z"/><g fill="#fff"><path fill-rule="evenodd" d="m51 58.1c3.3137 0 6-4.4772 6-10h-12c0 5.5228 2.6863 10 6 10z" clip-rule="evenodd"/><path d="m57 48.1h1c0-0.5523-0.4477-1-1-1v1zm-12 0v-1c-0.5523 0-1 0.4477-1 1h1zm11 0c0 2.6113-0.6371 4.927-1.6149 6.5565-0.9896 1.6495-2.2175 2.4435-3.3851 2.4435v2c2.1461 0 3.9182-1.4446 5.1001-3.4145 1.1939-1.9897 1.8999-4.674 1.8999-7.5855h-2zm-11 1h12v-2h-12v2zm6 8c-1.1676 0-2.3955-0.794-3.3851-2.4435-0.9778-1.6295-1.6149-3.9452-1.6149-6.5565h-2c0 2.9115 0.706 5.5958 1.8999 7.5855 1.1819 1.9699 2.954 3.4145 5.1001 3.4145v-2z"/></g></g><g id="c" fill="#6A462F" fill-rule="evenodd" clip-rule="evenodd"><path d="m33 10.581c10 0 13.5 7 13.5 14 0 4.4919-1.2353 8.5721-3.1775 10.919 1.8579-5.6 0.7741-9.6128 0-10.919-1.6075-1.6936-5.3225-5.6808-7.3225-8.0808-4 4.7354-10.333 6.6397-13 7-0.3333 0.5-1 2.5-1 6.5 0 1.8964 0.1498 3.5051 0.343 4.7645l0.157 0.2355 3 6h-2.6992c-0.4804-1.1652-1.7769-2-3.3008-2-1.0799 0-2.0456 0.4192-2.6876 1.0781l-2.3124-0.5781 1-15 1.0037 1.5056c-0.0025-0.1408-0.0037-0.2824-0.0037-0.4248 0-9.0808 6.5-15 16.5-15z"/><path d="m24 59v-6.5c0-5.2467-2.0147-9.5-4.5-9.5s-4.5 4.2533-4.5 9.5v6.5h9z"/></g><g id="d"><path fill="#FCEA2B" d="m22 30c0 9 4.9365 14 11 14 5.9365 0 11.064-5 11.064-14 0.0245-1.7187-0.3164-3.4229-1-5-3-3-7-8-7-8-4 3-7 6-13 7.0005 0-5e-4 -1.0635 0.9987-1.0635 5.9995z"/></g><g id="e"><path fill="none" stroke="#000" stroke-linejoin="round" stroke-width="2" d="m21.936 29.581c0 9 4.9365 14 11 14 5.9365 0 11.064-5 11.064-14 0.0245-1.7187-0.3164-3.4229-1-5-3-3-7-8-7-8-4 3-7 6-13 7.0005 0 0-1.0635 0.9987-1.0635 5.9995z"/><path d="m38.953 28.047c0 1.1046-0.8954 2-2 2s-2-0.8954-2-2 0.8954-2 2-2c1.1044 4e-4 1.9996 0.8956 2 2z"/><path d="m30.953 28.047c0 1.1046-0.8954 2-2 2s-2-0.8954-2-2 0.8954-2 2-2c1.1044 4e-4 1.9996 0.8956 2 2z"/><path fill="none" stroke="#000" stroke-linecap="round" stroke-linejoin="round" stroke-width="2" d="m16.5 40c-3.5 0-1-3.0808-1-14 0-9.0808 7.5-15.419 17.5-15.419s13.5 7 13.5 14c0 4.4919-1.2353 8.5721-3.1775 10.919"/><path d="m32.953 38.049c-1.2005-0.0116-2.3813-0.3055-3.4472-0.8579-0.494-0.247-0.6943-0.8477-0.4473-1.3418s0.8477-0.6943 1.3418-0.4473c1.5934 0.8593 3.5121 0.8593 5.1055 0 0.494-0.247 1.0947-0.0468 1.3418 0.4473s0.0468 1.0947-0.4473 1.3418c-1.0659 0.5524-2.2468 0.8463-3.4473 0.8579z"/><path fill="none" stroke="#000" stroke-linecap="round" stroke-width="2" d="m24 58v-5.5c0-5.2467-2.0147-9.5-4.5-9.5s-4.5 4.2533-4.5 9.5v5.5"/><path fill="none" stroke="#000" stroke-width="2" d="m17.238 44.29c-0.7576-0.5503-1.2384-1.3718-1.2384-2.2896 0-1.6569 1.567-3 3.5-3s3.5 1.3431 3.5 3c0 0.9178-0.4808 1.7393-1.2384 2.2896"/><path fill="none" stroke="#000" stroke-linecap="round" stroke-linejoin="round" stroke-width="2" d="m43.5 46.118c-0.4966-0.0775-0.9983-0.1178-1.5-0.1178-5.3238 4.4365-10.648 4.9365-15.971 1.5"/><path d="m27 53c-0.5523 0-1 0.4477-1 1s0.4477 1 1 1v-2zm15 1v1c0.5265 0 0.9628-0.4082 0.9978-0.9335l-0.9978-0.0665zm-15 1h15v-2h-15v2zm15.998-0.9335 0.5-7.5-1.9956-0.133-0.5 7.5 1.9956 0.133z"/><path fill="none" stroke="#000" stroke-linecap="round" stroke-linejoin="round" stroke-width="2" d="m46.2 54.1c-0.7533-1.6713-1.1996-3.7488-1.1996-6h12c0 2.2512-0.4463 4.3287-1.1996 6"/><path fill="none" stroke="#000" stroke-linejoin="round" stroke-width="2" d="m41 57.1h20l-2 3h-16l-2-3z"/></g></svg>