<svg xmlns="http://www.w3.org/2000/svg" id="a" viewBox="0 0 72 72"><g id="b"><rect width="20" height="14" x="26" y="36" fill="#3f3f3f"/><path fill="#fcea2b" d="M51.6,47.4A7.67,7.67,0,0,0,53,43a7.9931,7.9931,0,0,0-7-7.9v10c-.3,0-.7-.1-1-.1L33,47v1.3A17.9536,17.9536,0,0,1,27,45a3.4019,3.4019,0,0,0-1,.1v-10A8.07,8.07,0,0,0,19,43a7.4412,7.4412,0,0,0,1.4,4.4A8.6366,8.6366,0,0,0,17,54v5H55V54A8.7988,8.7988,0,0,0,51.6,47.4Z"/><path fill="#a57939" d="M28.4,40a1.33,1.33,0,0,1-.3.8,2.2524,2.2524,0,0,1-.5.5c.5,1,1.1,2.3.4,3.4a7.365,7.365,0,0,1-.5.6c.5,1.1,1.1,2.3.4,3.4a2.6513,2.6513,0,0,1-.5.6h0c.5,1.1,1.1,2.3.4,3.4a1.6979,1.6979,0,0,1-.6.6v.1c.5,1,1.1,2.2.4,3.3a1.6979,1.6979,0,0,1-.6.6c0,.1.1.1.1.2.5,1,1.1,2.2.5,3.2a1.966,1.966,0,0,1-1.7.9,1.3671,1.3671,0,0,1-1.4-1.4.9748.9748,0,0,1,.4-.9c-.1-.2-.2-.3-.2-.4-.5-1-1.1-2.2-.5-3.2.1-.2.3-.3.5-.5,0-.1-.1-.2-.1-.3-.5-1-1.1-2.2-.4-3.3a2.2524,2.2524,0,0,1,.5-.5c0-.1-.1-.1-.1-.2-.5-1.1-1.1-2.3-.4-3.4.1-.1.2-.3.4-.5a.0979.0979,0,0,0-.1-.1c-.5-1.1-1.2-2.3-.4-3.5.1-.1.2-.3.4-.4v-.1c-.5-1-1.2-2.4-.4-3.5.1-.1.2-.3.3-.4-.5-1.1-1.2-2.4-.4-3.6.1-.1.1-.2.2-.3-.6-1.1-1.2-2.5-.4-3.8L23.5,30C22.9,21,27,14.5,36,14.5S49.1,21,48.5,30l-.2,1.1c.8,1.3.2,2.7-.4,3.8.1.1.2.2.2.3.8,1.2.1,2.6-.4,3.6.2.2.3.3.3.4.7,1.2.1,2.5-.4,3.5v.1l.4.4c.7,1.1.1,2.4-.4,3.5a.0979.0979,0,0,1-.1.1,1.7556,1.7556,0,0,1,.4.5c.7,1.1.1,2.3-.4,3.4,0,.1-.1.1-.1.2.2.2.4.3.5.5.7,1.1.1,2.2-.4,3.3,0,.1-.1.2-.1.3l.5.5c.6,1,.1,2.1-.5,3.2-.1.1-.1.3-.2.4a1.4893,1.4893,0,0,1,.4.9,1.3671,1.3671,0,0,1-1.4,1.4,1.7721,1.7721,0,0,1-1.7-.9c-.6-1-.1-2.1.5-3.2,0-.1.1-.1.1-.2a1.6979,1.6979,0,0,1-.6-.6c-.7-1.1-.1-2.2.4-3.3v-.1a1.6979,1.6979,0,0,1-.6-.6c-.7-1.1-.1-2.3.4-3.4h0a1.3331,1.3331,0,0,1-.5-.6c-.7-1.1-.1-2.3.4-3.4a1.3331,1.3331,0,0,1-.5-.6c-.7-1.1-.1-2.4.4-3.4l-.5-.5a1.33,1.33,0,0,1-.3-.8H28.4Z"/></g><g id="c"><path fill="#fadcbc" d="m36 20c-4.1-1.5-7.1-0.2-9.1 2.2a15.287 15.287 0 0 0-1.9 7.8c0 7.2 3.7 13 11 13s11-5.8 11-13a15.287 15.287 0 0 0-1.9-7.8c-2-2.4-5-3.7-9.1-2.2z"/></g><g id="d"><path fill="none" stroke="#000" stroke-linecap="round" stroke-linejoin="round" stroke-width="2" d="M36,20c8-3,12,5,12,10,.6-9-3-15.5-12-15.5"/><path fill="none" stroke="#000" stroke-linecap="round" stroke-linejoin="round" stroke-width="2" d="M36,20c-8-3-12,5-12,10-.6-9,3-15.5,12-15.5"/><path d="m41.6 29a1.8 1.8 0 1 1-1.8-1.8 1.7925 1.7925 0 0 1 1.8 1.8"/><path d="m33.6 29a1.8 1.8 0 1 1-1.8-1.8 1.7925 1.7925 0 0 1 1.8 1.8"/><path d="m38.5 51a1.5 1.5 0 1 1-1.5-1.5 1.538 1.538 0 0 1 1.5 1.5"/><path fill="none" stroke="#000" stroke-linecap="round" stroke-linejoin="round" stroke-width="2" d="m33 36.5a6.6712 6.6712 0 0 0 6 0"/><path fill="none" stroke="#000" stroke-miterlimit="10" stroke-width="2" d="m26.8 22.3a15.652 15.652 0 0 0-1.8 7.7c0 7.2 3.7 13 11 13s11-5.8 11-13a16.326 16.326 0 0 0-1.8-7.8"/><path fill="none" stroke="#000" stroke-linecap="round" stroke-linejoin="round" stroke-width="2" d="M43.6,40a1.33,1.33,0,0,0,.3.8,2.2524,2.2524,0,0,0,.5.5c-.5,1-1.1,2.3-.4,3.4a7.365,7.365,0,0,0,.5.6c-.5,1.1-1.1,2.3-.4,3.4a2.6513,2.6513,0,0,0,.5.6h0c-.5,1.1-1.1,2.3-.4,3.4a1.6979,1.6979,0,0,0,.6.6v.1c-.5,1-1.1,2.2-.4,3.3a1.6979,1.6979,0,0,0,.6.6c0,.1-.1.1-.1.2-.5,1-1.1,2.2-.5,3.2a1.966,1.966,0,0,0,1.7.9,1.3671,1.3671,0,0,0,1.4-1.4.9748.9748,0,0,0-.4-.9c.1-.2.2-.3.2-.4.5-1,1.1-2.2.5-3.2-.1-.2-.3-.3-.5-.5,0-.1.1-.2.1-.3.5-1,1.1-2.2.4-3.3a2.2524,2.2524,0,0,0-.5-.5c0-.1.1-.1.1-.2.5-1.1,1.1-2.3.4-3.4-.1-.1-.2-.3-.4-.5a.0979.0979,0,0,1,.1-.1c.5-1.1,1.2-2.3.4-3.5-.1-.1-.2-.3-.4-.4v-.1c.5-1,1.2-2.4.4-3.5-.1-.1-.2-.3-.3-.4.5-1.1,1.2-2.4.4-3.6-.1-.1-.1-.2-.2-.3.6-1.1,1.2-2.5.4-3.8a2.56,2.56,0,0,0-1.3-1"/><path fill="none" stroke="#000" stroke-linecap="round" stroke-linejoin="round" stroke-width="2" d="M28.4,40a1.33,1.33,0,0,1-.3.8,2.2524,2.2524,0,0,1-.5.5c.5,1,1.1,2.3.4,3.4a7.365,7.365,0,0,1-.5.6c.5,1.1,1.1,2.3.4,3.4a2.6513,2.6513,0,0,1-.5.6h0c.5,1.1,1.1,2.3.4,3.4a1.6979,1.6979,0,0,1-.6.6v.1c.5,1,1.1,2.2.4,3.3a1.6979,1.6979,0,0,1-.6.6c0,.1.1.1.1.2.5,1,1.1,2.2.5,3.2a1.966,1.966,0,0,1-1.7.9,1.3671,1.3671,0,0,1-1.4-1.4.9748.9748,0,0,1,.4-.9c-.1-.2-.2-.3-.2-.4-.5-1-1.1-2.2-.5-3.2.1-.2.3-.3.5-.5,0-.1-.1-.2-.1-.3-.5-1-1.1-2.2-.4-3.3a2.2524,2.2524,0,0,1,.5-.5c0-.1-.1-.1-.1-.2-.5-1.1-1.1-2.3-.4-3.4.1-.1.2-.3.4-.5a.0979.0979,0,0,0-.1-.1c-.5-1.1-1.2-2.3-.4-3.5.1-.1.2-.3.4-.4v-.1c-.5-1-1.2-2.4-.4-3.5.1-.1.2-.3.3-.4-.5-1.1-1.2-2.4-.4-3.6.1-.1.1-.2.2-.3-.6-1.1-1.2-2.5-.4-3.8a2.56,2.56,0,0,1,1.3-1"/><path fill="none" stroke="#000" stroke-linecap="round" stroke-linejoin="round" stroke-width="2" d="m20.3 47.4a8.0936 8.0936 0 0 1 3.3-11.7"/><path fill="none" stroke="#000" stroke-linecap="round" stroke-linejoin="round" stroke-width="2" d="m27.7 45.5a16.066 16.066 0 0 0 5.3 2.8"/><path fill="none" stroke="#000" stroke-linecap="round" stroke-linejoin="round" stroke-width="2" d="m17 58v-4c0-4 3.1-7.3 6.9-8.5"/><path fill="none" stroke="#000" stroke-linecap="round" stroke-linejoin="round" stroke-width="2" d="M44.3,45.1,33,47V58"/><path fill="none" stroke="#000" stroke-linecap="round" stroke-linejoin="round" stroke-width="2" d="m55 58v-4c0-4-3.1-7.3-6.9-8.5"/><path fill="none" stroke="#000" stroke-linecap="round" stroke-linejoin="round" stroke-width="2" d="M51.7,47.4A7.5782,7.5782,0,0,0,53,43a8.1434,8.1434,0,0,0-4.6-7.3"/></g></svg>