<svg xmlns="http://www.w3.org/2000/svg" id="a" version="1.1" viewBox="0 0 72 72"><g id="b"><rect width="50" height="39.998" x="11" y="15.959" fill="#D0CFCE"/><rect width="8" height="11.083" x="14.984" y="24.988" fill="#3F3F3F"/><polygon fill="#9B9B9A" points="56.43 51.905 31.902 51.905 31.902 38.703 31.902 25.5 56.43 25.5 56.43 39.472"/></g><g id="c" fill="none" stroke="#000" stroke-linecap="round" stroke-linejoin="round" stroke-miterlimit="10" stroke-width="2"><rect width="50" height="39.998" x="11" y="15.959"/><line x1="12.058" x2="60.126" y1="20.813" y2="20.813"/><line x1="27.25" x2="27.25" y1="55.324" y2="20.813"/><rect width="8" height="11.083" x="14.984" y="24.988"/><polygon points="56.43 51.905 31.902 51.905 31.902 38.703 31.902 25.5 56.43 25.5 56.43 39.472"/><line x1="14.893" x2="19.991" y1="42.78" y2="42.78"/><line x1="14.893" x2="23.201" y1="46.78" y2="46.78"/><line x1="14.893" x2="19.991" y1="50.78" y2="50.78"/><line x1="31.902" x2="56.43" y1="51.905" y2="25.5"/><line x1="31.902" x2="56.43" y1="25.5" y2="51.905"/></g></svg>