<?xml version="1.0" encoding="UTF-8"?>
<svg id="a" viewBox="0 0 72 72" xmlns="http://www.w3.org/2000/svg"><g id="b"><path d="m64.8 44-1.1-0.6c-0.4-0.2-0.6-0.6-0.5-1 0.3-1.9 0.5-8.5-9.7-11.5-0.2-0.1-0.4-0.1-0.6-0.1l-19.6 0.1c-0.4 0-0.8 0.1-1.1 0.3l-10.3 6.9c-0.2 0.1-0.4 0.2-0.6 0.2-1.9-0.1-3.7 0.1-5.6 0.4-5.4 1.1-7.6 4-8.4 5.5-0.2 0.3-0.2 0.7-0.2 1 0.1 2.4-1.5 5.1 0.9 7.3l19.4-0.1 20.4-0.5 16.1-0.2c0.9-0.1001 2.4-1.4 2.8-2.2001 1.7-2.6999-1.7-5.3999-1.9-5.4999z" fill="#ea5a47"/><path d="m17.3 46.4c-2.2 0-4 1.8-4 4s1.8 4 4 4 4-1.8 4-4-1.8-4-4-4z" fill="#9b9b9a"/><path d="m57.1 46.4c-2.2 0-4 1.8-4 4s1.8 4 4 4 4-1.8 4-4-1.8-4-4-4z" fill="#9b9b9a"/><path d="m56.1 39.3v-4.3c0-0.9-0.8-1.7-1.7-1.7h-21.2c-0.1 0-0.2 0-0.2 0.1l-8 5.7c-0.2 0.1-0.2 0.4-0.1 0.6 0.1 0.1 0.2 0.2 0.3 0.2 5.6 0 27.2-0.2 30.4-0.1 0.3 0 0.5-0.2 0.5-0.5v0z" fill="#92d3f5"/><polygon points="8.9 40.5 12.9 42.1 10.8 45 5.8 45.1" fill="#fcea2b"/></g><g id="c" fill="none" stroke="#000" stroke-linecap="round" stroke-linejoin="round" stroke-width="2"><line x1="47.6" x2="27" y1="51" y2="51.4"/><path d="m8.1 51.4c-0.9-0.2-1.7-0.5-1.8-1-0.1-1-0.3-3.8-0.3-5.1 0-0.5 0.1-1.1 0.4-1.5 1.1-2 4.8-6.8 14.9-6.4l10.3-6.9c0.5-0.3 1.1-0.5 1.6-0.5l19.6-0.1c0.3 0 0.6 0 0.9 0.1 2.2 0.6 11.7 4 10.4 12.6l1.1 0.6c0.5 0.2 0.9 0.7 1 1.2 0.4 1.4 0.3 2.9-0.2 4.3"/><polyline points="24.9 39.9 55.1 39.7 55.1 35.2"/><circle cx="17.3" cy="50.4" r="5"/><circle cx="57.1" cy="50.4" r="5"/><polyline points="12.3 42.9 10.5 45.1 6.8 45"/><path d="m18.268 27.863c1.686-4.7001 5.6083-8.5012 10.815-9.8108 4.6697-1.1747 9.3778-0.0949 12.975 2.5523"/><path d="m14.182 26.854c1.9558-6.0058 6.8614-10.904 13.439-12.559 5.9379-1.4937 11.926-0.0137 16.393 3.5"/><path d="m22.217 28.734c1.3375-3.2661 4.1557-5.8757 7.841-6.8028 3.4647-0.8715 6.9577-0.0704 9.6268 1.8937"/></g></svg>
