<svg xmlns="http://www.w3.org/2000/svg" id="a" version="1.1" viewBox="0 0 72 72"><g id="b"><path fill="#D0CFCE" d="m33.1 58h-3c-0.6 0-1-0.4-1-1v-20c0-0.6 0.4-1 1-1h3c0.6 0 1 0.4 1 1v20c0 0.6-0.5 1-1 1z"/><path fill="#9B9B9A" d="m38.4 35.4c1.7-2.9 0.7-6.5-2.2-8.2s-6.5-0.7-8.2 2.2-0.7 6.5 2.2 8.2 6.5 0.7 8.2-2.2"/><rect width="10" height="35.999" x="30.603" y="10.078" fill="#fff" transform="matrix(.5 -.866 .866 .5 -6.5143 44.871)"/><rect width="10" height="35.999" x="30.602" y="10.079" fill="#D0CFCE" transform="matrix(.5 -.866 .866 .5 -6.5158 44.871)"/><polygon fill="#9B9B9A" points="42.1 37.6 42.1 37.6 22.5 14.8 17.5 23.4"/></g><g id="c"><line x1="30" x2="30" y1="36.4" y2="57" fill="none" stroke="#000" stroke-linecap="round" stroke-linejoin="round" stroke-miterlimit="10" stroke-width="2"/><line x1="34.1" x2="34.1" y1="39.4" y2="57" fill="none" stroke="#000" stroke-linecap="round" stroke-linejoin="round" stroke-miterlimit="10" stroke-width="2"/><path fill="none" stroke="#000" stroke-linecap="round" stroke-linejoin="round" stroke-miterlimit="10" stroke-width="2" d="m28.8 29.9c-1.3 2.2-0.7 4.9 1.2 6.4"/><rect width="10" height="35.999" x="30.603" y="10.078" fill="none" stroke="#000" stroke-linecap="round" stroke-linejoin="round" stroke-miterlimit="10" stroke-width="2" transform="matrix(.5 -.866 .866 .5 -6.5143 44.871)"/><rect width="10" height="35.999" x="30.603" y="10.078" fill="none" stroke="#000" stroke-linecap="round" stroke-linejoin="round" stroke-miterlimit="10" stroke-width="2" transform="matrix(.5 -.866 .866 .5 -6.5143 44.871)"/><path d="m52.7 34.5c1.4 0.8 1.9 2.7 1.1 4.1s-2.7 1.9-4.1 1.1l3-5.2z"/></g><g id="d"><path id="e" fill="#D22F27" d="m54.2 37.1c0 1.7-1.4 3-3 3-0.2 0-0.4 0-0.6-0.1l2.9-5c0.4 0.6 0.7 1.3 0.7 2.1z"/></g></svg>