<?xml version="1.0" encoding="UTF-8"?>
<svg id="a" version="1.1" viewBox="0 0 72 72" xmlns="http://www.w3.org/2000/svg"><g id="b"><path d="m33.1 58h-3c-0.6 0-1-0.4-1-1v-20c0-0.6 0.4-1 1-1h3c0.6 0 1 0.4 1 1v20c0 0.6-0.5 1-1 1z" fill="#D0CFCE"/><path d="m38.4 35.4c1.7-2.9 0.7-6.5-2.2-8.2s-6.5-0.7-8.2 2.2-0.7 6.5 2.2 8.2 6.5 0.7 8.2-2.2" fill="#9B9B9A"/><rect transform="matrix(.5 -.866 .866 .5 -6.5143 44.871)" x="30.603" y="10.078" width="9.9998" height="35.999" fill="#fff"/><rect transform="matrix(.5 -.866 .866 .5 -6.5158 44.871)" x="30.602" y="10.079" width="9.9998" height="35.999" fill="#D0CFCE"/><polygon points="42.1 37.6 42.1 37.6 22.5 14.8 17.5 23.4" fill="#9B9B9A"/></g><g id="c"><line x1="30" x2="30" y1="36.4" y2="57" fill="none" stroke="#000" stroke-linecap="round" stroke-linejoin="round" stroke-miterlimit="10" stroke-width="2"/><line x1="34.1" x2="34.1" y1="39.4" y2="57" fill="none" stroke="#000" stroke-linecap="round" stroke-linejoin="round" stroke-miterlimit="10" stroke-width="2"/><path d="m28.8 29.9c-1.3 2.2-0.7 4.9 1.2 6.4" fill="none" stroke="#000" stroke-linecap="round" stroke-linejoin="round" stroke-miterlimit="10" stroke-width="2"/><rect transform="matrix(.5 -.866 .866 .5 -6.5143 44.871)" x="30.603" y="10.078" width="9.9998" height="35.999" fill="none" stroke="#000" stroke-linecap="round" stroke-linejoin="round" stroke-miterlimit="10" stroke-width="2"/><rect transform="matrix(.5 -.866 .866 .5 -6.5143 44.871)" x="30.603" y="10.078" width="9.9998" height="35.999" fill="none" stroke="#000" stroke-linecap="round" stroke-linejoin="round" stroke-miterlimit="10" stroke-width="2"/><path d="m52.7 34.5c1.4 0.8 1.9 2.7 1.1 4.1s-2.7 1.9-4.1 1.1l3-5.2z"/></g><g id="d"><path id="e" d="m54.2 37.1c0 1.7-1.4 3-3 3-0.2 0-0.4 0-0.6-0.1l2.9-5c0.4 0.6 0.7 1.3 0.7 2.1z" fill="#D22F27"/></g></svg>
