<?xml version="1.0" encoding="UTF-8"?>
<svg id="a" version="1.1" viewBox="0 0 72 72" xmlns="http://www.w3.org/2000/svg"><g id="b"><polygon points="6.8082 55.158 22.069 33.412 30.66 42.002 46.642 26.021 65.719 55.875 6.2812 55.875" fill="#9B9B9A"/></g><g id="c" fill="none" stroke="#000" stroke-linecap="round" stroke-linejoin="round" stroke-miterlimit="10" stroke-width="2"><polygon points="6.8082 55.158 22.069 33.412 30.66 42.002 46.642 26.021 65.719 55.875 6.2812 55.875"/><path d="m38 17.021h22.021c4.4065 0 7.9787 3.5722 7.9787 7.9787v24.235h-64v-24.235c0-4.4065 3.5722-7.9787 7.9787-7.9787h21.938l2.0832 4.6037 2-4.6037z"/><polyline points="8.2083 24.125 8.2083 21.125 11 21.125"/><polyline points="15.521 21.125 18.521 21.125 18.521 23.917"/><polyline points="18.521 28.438 18.521 31.438 15.729 31.438"/><polyline points="11.208 31.438 8.2083 31.438 8.2083 28.646"/><circle cx="13.229" cy="26.146" r="2.0208"/><line x1="62.837" x2="40.642" y1="26.021" y2="26.021"/><line x1="67.858" x2="62.837" y1="26.021" y2="26.021"/><line x1="67.858" x2="62.837" y1="29.238" y2="29.238"/><line x1="67.858" x2="62.837" y1="32.456" y2="32.456"/><line x1="67.858" x2="62.837" y1="35.673" y2="35.673"/><line x1="67.858" x2="62.837" y1="38.891" y2="38.891"/><line x1="67.858" x2="62.837" y1="42.108" y2="42.108"/><line x1="67.858" x2="62.837" y1="45.326" y2="45.326"/><line x1="46.571" x2="46.571" y1="49.235" y2="20.06"/></g></svg>
