<?xml version="1.0" encoding="UTF-8"?>
<svg id="a" viewBox="0 0 72 72" xmlns="http://www.w3.org/2000/svg"><g id="b"><path d="m31.388 26.718s9.2367-1.8188 8.4221-9.1964c-1.3538-12.261-1.4678-10.424-1.4678-10.424l-5.5293 1.0104c1e-4 1e-4 3.1866 13.594-1.425 18.61z" fill="#92d3f5"/><path d="m34.542 7.0359c-8.1462 0-14.75 7.496-14.75 16.743v16.388h29.5" fill="#92d3f5" stroke-linecap="round" stroke-linejoin="round" stroke-miterlimit="10" stroke-width="2"/><rect x="26.833" y="44.5" width="4" height="22.095" fill="#d0cfce" stroke-linecap="round" stroke-linejoin="round" stroke-miterlimit="10" stroke-width="2"/><rect x="41.333" y="44.5" width="4" height="16.479" fill="#d0cfce" stroke-linecap="round" stroke-linejoin="round" stroke-miterlimit="10" stroke-width="2"/><path d="m34.542 7.5625s15.323 0.5495 15.905 13.875c0.9664 22.146 0.0665 18.919 0.0665 18.919l-9.3254-0.19c0 1e-4 1.4372-25.042-6.6458-32.604z" fill="#61b2e4"/><rect x="43.333" y="40.792" width="11.833" height="3.0833" fill="#61b2e4"/><rect x="16.335" y="40.792" width="26.998" height="3.0833" fill="#92d3f5"/></g><g id="c" fill="none" stroke="#000" stroke-linecap="round" stroke-linejoin="round" stroke-miterlimit="10" stroke-width="2"><path d="m34.542 7.0359c-8.1462 0-14.75 7.496-14.75 16.743v16.388h29.5"/><rect x="26.833" y="44.5" width="4" height="22.095"/><rect x="41.333" y="44.5" width="4" height="16.479"/><path d="m35.25 7.0359c8.1462 0 14.75 7.496 14.75 16.743v7.388"/><polygon points="16 44.5 45.531 44.5 45.906 44.5 56 44.5 56 40.167 45.906 40.167 45.5 40.167 16 40.167"/></g></svg>
