<?xml version="1.0" encoding="UTF-8"?>
<svg id="a" viewBox="0 0 72 72" xmlns="http://www.w3.org/2000/svg"><g id="b"><path d="m19.95 25.538s-2.5794 1.5485-3.1555 4.0953 5e-4 5.3368 5e-4 5.3368-4.0466 1.6684-4.0466 6.9178 3.4132 6.7328 3.4132 6.7328 0.0403 6.1949 3.859 9.5361 7.8262 3.3565 7.8262 3.3565 2.0841 4.4087 8.2153 4.4087 8.2153-4.4087 8.2153-4.4087 4.1496-0.606 7.8262-3.3565c3.6766-2.7504 3.5755-9.5361 3.5755-9.5361s3.6966-1.4834 3.6966-6.7328-4.0466-6.9178-4.0466-6.9178 0.5766-2.7901 5e-4 -5.3368-3.1555-4.0953-3.1555-4.0953" fill="#EA5A47"/><path d="m55.448 33.428c0-10.719-8.6891-13.738-19.408-13.738s-19.408 3.0198-19.408 13.738 8.6891 19.408 19.408 19.408 19.408-8.6891 19.408-19.408z" fill="#EA5A47"/><path d="m36.657 65.908s5.2476-3.6702 4.9048-12.111c2.2569-2.3481 2.9566-5.5031 0.9072-9.3371 3.463-4.9359 3.103-10.276-1.0411-14.324 1.7074-2.4634 0.8148-4.5971-1.1157-6.2005 0 0 5.5557 2.7244 9.8102-1.1714 0 0 8.9433 6.4302 5.2066 12.207 0 0 9.8734 6.6729 0.35 13.651 0 0 1.391 10.634-11.16 12.85-1e-4 -2e-4 -3.304 3.7386-7.8615 4.4359z" fill="#D22F27"/><path d="m55.78 11.262c-4.2703 19.928-17.375 13.133-19.156 9.6291-1.7804-3.5043-0.0602-17.458 19.156-9.6291z" fill="#B1CC33" stroke-linecap="round" stroke-linejoin="round" stroke-miterlimit="10" stroke-width="2"/><path d="m16.344 11.262c4.2703 19.928 17.375 13.133 19.156 9.6291 1.7805-3.5043 0.0604-17.458-19.156-9.6291z" fill="#B1CC33" stroke-linecap="round" stroke-linejoin="round" stroke-miterlimit="10" stroke-width="2"/></g><g id="c" fill="none" stroke="#000" stroke-linecap="round" stroke-linejoin="round" stroke-miterlimit="10" stroke-width="2"><path d="m55.78 11.262c-4.2703 19.928-17.375 13.133-19.156 9.6291-1.7804-3.5043-0.0602-17.458 19.156-9.6291z"/><path d="m45.572 15.294c-3.1311 1.2014-7.1389 3.1342-8.9149 5.6542"/><path d="m16.344 11.262c4.2703 19.928 17.375 13.133 19.156 9.6291 1.7805-3.5043 0.0604-17.458-19.156-9.6291z"/><path d="m26.552 15.294c3.1311 1.2014 7.1389 3.1342 8.9149 5.6542"/><path d="m19.95 25.538s-2.5794 1.5485-3.1555 4.0953 5e-4 5.3368 5e-4 5.3368-4.0466 1.6684-4.0466 6.9178 3.4132 6.7328 3.4132 6.7328 0.0403 6.1949 3.859 9.5361 7.8262 3.3565 7.8262 3.3565 2.0841 4.4087 8.2153 4.4087 8.2153-4.4087 8.2153-4.4087 4.1496-0.606 7.8262-3.3565c3.6766-2.7504 3.5755-9.5361 3.5755-9.5361s3.6966-1.4834 3.6966-6.7328-4.0466-6.9178-4.0466-6.9178 0.5766-2.7901 5e-4 -5.3368-3.1555-4.0953-3.1555-4.0953"/><path d="m42.243 29.475s-2.6163 2.7671-5.8436 2.7671"/><path d="m30.332 29.475s2.6163 2.7671 5.8436 2.7671"/><path d="m50.062 39.524c0 2.8921-2.4819 5.2365-5.5436 5.2365"/><path d="m38.763 39.524c0 2.8921 2.4819 5.2365 5.5436 5.2365"/><path d="m33.883 39.524c0 2.8921-2.4819 5.2365-5.5436 5.2365"/><path d="m22.583 39.524c0 2.8921 2.4819 5.2365 5.5436 5.2365"/><path d="m41.905 53.862c-1.0434 1.389-3.1599 2.3393-5.6011 2.3393"/><path d="m30.341 53.692c0.9945 1.4804 3.1823 2.5085 5.7214 2.5085"/><path d="m30.289 54.05c0 1.2407-0.7684 2.3588-1.9976 3.1439"/><path d="m41.965 54.05c0 1.3528 0.9134 2.5597 2.3417 3.3483"/><path d="m23.411 42.672c0 2.3661-1.6613 4.3657-3.9422 5.0147"/><path d="m25.012 29.439c0 3.0961-2.4819 5.6059-5.5436 5.6059"/><path d="m46.373 29.439c0 3.0961 2.4819 5.6059 5.5436 5.6059"/><path d="m49.251 42.672c0 2.26 1.5157 4.1856 3.6392 4.9194"/></g></svg>
