<svg xmlns="http://www.w3.org/2000/svg" id="a" version="1.1" viewBox="0 0 72 72"><g id="b"><path fill="#FCEA2B" d="m45.1 52.5c-0.1 4.1-1.1 10.8-1.1 10.8l-17.2 0.1 0.1-5.8s-0.2-11.2-5.3-15.5c-10.3-8.6-7.6-26.7 3.7-31.2 11.2-4.5 22.3-1.2 25.7 3.8s0.6 9.2 0.6 9.2-0.8 1.5 1.1 4.6 4.9 10.5 4.9 10.5l-4.1 1.4s2 9.5-0.8 10.9-8.7 0.8-13.2-0.6"/><path fill="#9B9B9A" d="m59.2 18v15.7h-14.5s-8.7-7.5 0-16.2h14.5v0.5z"/><path fill="#9B9B9A" d="m44.8 22h-30.3s-2 6.1 0 8.1h30.1l0.2-8.1z"/><line x1="54.5" x2="54.5" y1="17.6" y2="33.8" fill="none"/><line x1="55.9" x2="55.9" y1="17.6" y2="33.8" fill="none"/><line x1="57.4" x2="57.4" y1="17.6" y2="33.8" fill="none"/><rect width="4.6" height="16.5" x="54.8" y="17.6"/></g><g id="c" fill="none" stroke="#000" stroke-miterlimit="10" stroke-width="2"><path stroke-linecap="round" stroke-linejoin="round" d="m55.4 33.8c1.2 2.7 2.2 5.2 2.2 5.2l-4.1 1.4s2 9.5-0.8 10.9-8.7 0.8-13.2-0.5"/><path stroke-linecap="round" stroke-linejoin="round" d="M15.9,22c1.4-5,4.6-9.3,9.4-11.1C36.5,6.4,47.6,9.7,51,14.7c0.7,1,1.1,2,1.4,2.9"/><path stroke-linecap="round" stroke-linejoin="round" d="m15.3 30.1c0.5 4.5 2.6 8.9 6.3 12 5.1 4.3 5.3 15.5 5.3 15.5v5.8h17.2s1-6.8 1.1-10.8"/><path stroke-linecap="round" stroke-linejoin="round" d="m59.2 18v15.7h-14.5s-8.7-7.5 0-16.2h14.5v0.5z"/><path stroke-linecap="round" stroke-linejoin="round" d="m41.6 22h-27.1s-2 6.1 0 8.1h27.5"/><line x1="54.8" x2="54.8" y1="17.6" y2="33.6"/></g></svg>