<?xml version="1.0" encoding="UTF-8"?>
<svg id="a" viewBox="0 0 72 72" xmlns="http://www.w3.org/2000/svg"><g id="b"><rect x="13.353" y="8.1195" width="44.878" height="55.438" fill="#D0CFCE"/><polygon points="58.231 25.746 40.604 8.1195 19.936 8.1195 19.914 8.1407 58.231 46.458" fill="#fff"/><rect x="17.881" y="13.037" width="36.159" height="41.439" fill="#3F3F3F"/><polygon points="54.04 42.266 54.04 21.555 45.522 13.037 24.81 13.037" fill="#9B9B9A"/></g><g id="c"><path d="m13.47 62.539v-53.372c0-0.55 0.45-1 1-1h43.044c0.55 0 1 0.45 1 1v53.372c0 0.55-0.45 1-1 1h-43.044c-0.55 0-1-0.45-1-1z" fill="none" stroke="#000" stroke-linecap="round" stroke-linejoin="round" stroke-miterlimit="10" stroke-width="2"/><circle cx="35.992" cy="59.084" r="2"/><rect x="17.881" y="13.037" width="36.159" height="41.439" fill="none" stroke="#000" stroke-linecap="round" stroke-linejoin="round" stroke-miterlimit="10" stroke-width="2"/></g></svg>
