<svg xmlns="http://www.w3.org/2000/svg" id="a" viewBox="0 0 72 72"><g id="b" fill="#9B9B9A"><path d="m36.022 12.932c-12.696 0-22.987 10.292-22.987 22.987s10.292 22.988 22.987 22.988 22.987-10.292 22.987-22.987-10.292-22.988-22.987-22.988zm0 37.952c-8.2645 0-14.964-6.6997-14.964-14.964s6.6997-14.964 14.964-14.964 14.964 6.6997 14.964 14.964-6.6997 14.964-14.964 14.964z"/><rect width="8.982" height="11.19" x="31.53" y="7.661"/><rect width="8.982" height="11.19" x="31.53" y="53.069"/><rect width="8.982" height="11.19" x="8.783" y="30.307" transform="matrix(-1.837e-16 1 -1 -1.837e-16 49.176 22.628)"/><rect width="8.982" height="11.19" x="54.223" y="30.307" transform="matrix(-1.837e-16 1 -1 -1.837e-16 94.616 -22.813)"/></g><g id="c" fill="none" stroke="#000" stroke-linecap="round" stroke-linejoin="round" stroke-miterlimit="10" stroke-width="2"><path d="m58.874 31.433c-1.784-9.0631-9.3335-16.482-18.373-18.332"/><path d="m40.502 58.816c9.1275-1.7899 16.578-9.2979 18.373-18.423"/><path d="m13.12 40.393c1.7832 9.1158 9.3162 16.611 18.422 18.423"/><path d="m31.542 13.101c-9.07 1.8049-16.603 9.2666-18.422 18.332"/><circle cx="36.022" cy="35.919" r="15"/><line x1="31.542" x2="31.542" y1="13.101" y2="8.66"/><line x1="40.502" x2="40.502" y1="13.101" y2="8.66"/><line x1="31.542" x2="31.542" y1="63.258" y2="58.816"/><line x1="40.502" x2="40.502" y1="63.258" y2="58.816"/><line x1="58.874" x2="63.316" y1="31.433" y2="31.433"/><line x1="58.874" x2="63.316" y1="40.393" y2="40.393"/><line x1="8.679" x2="13.12" y1="31.433" y2="31.433"/><line x1="8.679" x2="13.12" y1="40.393" y2="40.393"/></g></svg>