<?xml version="1.0" encoding="UTF-8"?>
<svg id="a" viewBox="0 0 72 72" xmlns="http://www.w3.org/2000/svg"><g id="b"><rect x="29" y="4" width="14" height="18" fill="#9B9B9A"/><rect x="29" y="50" width="14" height="18" fill="#9B9B9A"/><circle cx="36" cy="36" r="15" fill="#3F3F3F"/><rect x="28" y="28" width="6" height="6" fill="#92D3F5"/><rect x="38" y="28" width="6" height="6" fill="#EA5A47"/><rect x="38" y="38" width="6" height="6" fill="#92D3F5"/><rect x="28" y="38" width="6" height="6" fill="#B399C8"/></g><g id="c"><circle cx="36" cy="36" r="15" fill="none" stroke="#000" stroke-linecap="round" stroke-linejoin="round" stroke-miterlimit="10" stroke-width="2"/><line x1="29" x2="29" y1="22" y2="5" fill="none" stroke="#000" stroke-linecap="round" stroke-linejoin="round" stroke-miterlimit="10" stroke-width="2"/><line x1="43" x2="43" y1="22" y2="5" fill="none" stroke="#000" stroke-linecap="round" stroke-linejoin="round" stroke-miterlimit="10" stroke-width="2"/><line x1="29" x2="29" y1="67" y2="50" fill="none" stroke="#000" stroke-linecap="round" stroke-linejoin="round" stroke-miterlimit="10" stroke-width="2"/><line x1="43" x2="43" y1="67" y2="50" fill="none" stroke="#000" stroke-linecap="round" stroke-linejoin="round" stroke-miterlimit="10" stroke-width="2"/><path d="m33 34h-4c-0.5523 0-1-0.4477-1-1v-4c0-0.5523 0.4477-1 1-1h4c0.5523 0 1 0.4477 1 1v4c0 0.5523-0.4477 1-1 1z" fill="none" stroke="#000" stroke-linecap="round" stroke-linejoin="round" stroke-miterlimit="10" stroke-width="2"/><path d="m43 34h-4c-0.5523 0-1-0.4477-1-1v-4c0-0.5523 0.4477-1 1-1h4c0.5523 0 1 0.4477 1 1v4c0 0.5523-0.4477 1-1 1z" fill="none" stroke="#000" stroke-linecap="round" stroke-linejoin="round" stroke-miterlimit="10" stroke-width="2"/><path d="m43 44h-4c-0.5523 0-1-0.4477-1-1v-4c0-0.5523 0.4477-1 1-1h4c0.5523 0 1 0.4477 1 1v4c0 0.5523-0.4477 1-1 1z" fill="none" stroke="#000" stroke-linecap="round" stroke-linejoin="round" stroke-miterlimit="10" stroke-width="2"/><path d="m33 44h-4c-0.5523 0-1-0.4477-1-1v-4c0-0.5523 0.4477-1 1-1h4c0.5523 0 1 0.4477 1 1v4c0 0.5523-0.4477 1-1 1z" fill="none" stroke="#000" stroke-linecap="round" stroke-linejoin="round" stroke-miterlimit="10" stroke-width="2"/><circle cx="36" cy="66" r="2"/></g></svg>
