<?xml version="1.0" encoding="UTF-8"?>
<svg id="a" viewBox="0 0 72 72" xmlns="http://www.w3.org/2000/svg"><g id="b"><path d="m53.908 63.031h-35.899c-0.5523 0-1-0.4477-1-1v-48.964c0-0.5523 0.4477-1 1-1h35.899c0.5523 0 1 0.4477 1 1v48.964c0 0.5523-0.4477 1-1 1z" fill="#D0CFCE"/><circle cx="36.024" cy="45.016" r="12" fill="#fff"/><path d="m24.024 45.016c0 6.6274 5.3726 12 12 12s12-5.3726 12-12" fill="#92D3F5"/><rect x="17" y="17.009" width="16" height="9.9501" fill="#9B9B9A"/><circle cx="36.024" cy="45.016" r="7" fill="#D0CFCE"/><path d="m29.024 45.016c0 3.866 3.134 7 7 7s7-3.134 7-7" fill="#61B2E4"/></g><g id="c"><circle cx="36.024" cy="45.016" r="12" fill="none" stroke="#000" stroke-miterlimit="10" stroke-width="2"/><circle cx="36.024" cy="45.016" r="7" fill="none" stroke="#000" stroke-miterlimit="10" stroke-width="2"/><path d="m53.908 63.031h-35.899c-0.5523 0-1-0.4477-1-1v-48.964c0-0.5523 0.4477-1 1-1h35.899c0.5523 0 1 0.4477 1 1v48.964c0 0.5523-0.4477 1-1 1z" fill="none" stroke="#000" stroke-linecap="round" stroke-linejoin="round" stroke-miterlimit="10" stroke-width="2"/><rect x="17" y="17.009" width="16" height="9.9501" fill="none" stroke="#000" stroke-linecap="round" stroke-linejoin="round" stroke-miterlimit="10" stroke-width="2"/><line x1="37" x2="44" y1="19" y2="19" fill="none" stroke="#000" stroke-linecap="round" stroke-linejoin="round" stroke-miterlimit="10" stroke-width="2"/><line x1="37" x2="44" y1="23" y2="23" fill="none" stroke="#000" stroke-linecap="round" stroke-linejoin="round" stroke-miterlimit="10" stroke-width="2"/><line x1="23" x2="27" y1="21" y2="21" fill="none" stroke="#000" stroke-linecap="round" stroke-linejoin="round" stroke-miterlimit="10" stroke-width="2"/><circle cx="49" cy="21" r="2"/></g></svg>
