<?xml version="1.0" encoding="UTF-8"?>
<svg id="a" version="1.1" viewBox="0 0 72 72" xmlns="http://www.w3.org/2000/svg"><g id="b"><rect x="4" y="24" width="64" height="24" fill="#fff"/><polygon points="59 24 68 24 68 48 32 48" fill="#D0CFCE"/></g><g id="c"><rect x="4" y="24" width="64" height="24" fill="none" stroke="#000" stroke-linecap="round" stroke-linejoin="round" stroke-miterlimit="10" stroke-width="2"/><path d="m41 44h-32c-0.6 0-1-0.4-1-1v-14c0-0.6 0.4-1 1-1h32c0.6 0 1 0.4 1 1v14c0 0.6-0.4 1-1 1z"/><path d="m63 44h-8c-0.6 0-1-0.4-1-1v-14c0-0.6 0.4-1 1-1h8c0.6 0 1 0.4 1 1v14c0 0.6-0.4 1-1 1z"/><path d="m49.3 40.3v-0.7c0-0.6-0.4-1-1-1h-0.7c-0.6 0-1 0.4-1 1v0.7c0 0.6-0.4 1-1 1h-0.6c-0.6 0-1 0.4-1 1v0.7c0 0.6 0.4 1 1 1h6c0.6 0 1-0.4 1-1v-0.7c0-0.6-0.4-1-1-1h-0.7c-0.5 0-1-0.4-1-1z"/><path d="m51 34h-6c-0.6 0-1-0.4-1-1v-4c0-0.6 0.4-1 1-1h6c0.6 0 1 0.4 1 1v4c0 0.6-0.4 1-1 1z"/></g><g id="d" fill="#3F3F3F"><path d="m41 44h-32c-0.6 0-1-0.4-1-1v-14c0-0.6 0.4-1 1-1h32c0.6 0 1 0.4 1 1v14c0 0.6-0.4 1-1 1z"/><path d="m63 44h-8c-0.6 0-1-0.4-1-1v-14c0-0.6 0.4-1 1-1h8c0.6 0 1 0.4 1 1v14c0 0.6-0.4 1-1 1z"/><path d="m49.3 40.3v-0.7c0-0.6-0.4-1-1-1h-0.7c-0.6 0-1 0.4-1 1v0.7c0 0.6-0.4 1-1 1h-0.6c-0.6 0-1 0.4-1 1v0.7c0 0.6 0.4 1 1 1h6c0.6 0 1-0.4 1-1v-0.7c0-0.6-0.4-1-1-1h-0.7c-0.5 0-1-0.4-1-1z"/><path d="m51 34h-6c-0.6 0-1-0.4-1-1v-4c0-0.6 0.4-1 1-1h6c0.6 0 1 0.4 1 1v4c0 0.6-0.4 1-1 1z"/></g></svg>
