<svg xmlns="http://www.w3.org/2000/svg" id="a" viewBox="0 0 72 72"><g id="b"><polygon fill="#5C9E31" points="8 56 63 56 63 51 67 46.904 67 28 63 24 63 16 8 16"/><polyline fill="#5C9E31" points="63 56 63 51 67 46.904 67 28 63 24 63 16 56.167 16"/><polygon fill="#B1CC33" points="31.333 56 8 56 8 16 56.167 16"/><rect width="2" height="9" x="6" y="22" fill="#B1CC33"/><rect width="28" height="4" x="29" y="46" fill="#B1CC33" stroke-linecap="round" stroke-linejoin="round" stroke-miterlimit="10" stroke-width="2"/><rect width="33" height="4" x="24" y="22" fill="#B1CC33" stroke-linecap="round" stroke-linejoin="round" stroke-miterlimit="10" stroke-width="2"/></g><g id="c" fill="none" stroke="#000" stroke-linecap="round" stroke-linejoin="round" stroke-miterlimit="10" stroke-width="2"><polyline points="8 22 8 16 63 16 63 24 67 28 67 46.904 63 51 63 56 8 56 8 31"/><rect width="28" height="4" x="29" y="46"/><rect width="33" height="4" x="24" y="22"/><polyline points="18 30 18 22 5 22 5 31 11.125 31"/><polyline points="14 50 18 50 18 46 14 46"/></g></svg>