<?xml version="1.0" encoding="UTF-8"?>
<svg id="a" version="1.1" viewBox="0 0 72 72" xmlns="http://www.w3.org/2000/svg"><g id="b"><rect x="21" y="30" width="6" height="12" fill="#fff"/><circle cx="41" cy="36" r="15" fill="#fff"/><path d="m30.4 46.6c2.7 2.7 6.5 4.4 10.6 4.4 8.3 0 15-6.7 15-15 0-3.6-1.3-6.9-3.4-9.5-0.3-0.4-0.7-0.8-1.1-1.2" fill="#D0CFCE"/></g><g id="c"><line x1="21" x2="16" y1="32" y2="32" fill="none" stroke="#000" stroke-linecap="round" stroke-linejoin="round" stroke-miterlimit="10" stroke-width="2"/><line x1="21" x2="16" y1="36" y2="36" fill="none" stroke="#000" stroke-linecap="round" stroke-linejoin="round" stroke-miterlimit="10" stroke-width="2"/><line x1="21" x2="16" y1="40" y2="40" fill="none" stroke="#000" stroke-linecap="round" stroke-linejoin="round" stroke-miterlimit="10" stroke-width="2"/><polyline points="27 41.4 27 42 21 42 21 30 27 30 27 30.6" fill="none" stroke="#000" stroke-linecap="round" stroke-linejoin="round" stroke-miterlimit="10" stroke-width="2"/><circle cx="41" cy="36" r="15" fill="none" stroke="#000" stroke-linecap="round" stroke-linejoin="round" stroke-miterlimit="10" stroke-width="2"/><circle cx="41" cy="36" r="4"/></g><g id="d" fill="#E27022"><path d="m20.005 30.99v2.02h-4.04c-0.606 0-1.01-0.505-1.01-1.01s0.404-1.01 1.01-1.01h4.04z"/><path d="m20.005 34.99v2.02h-4.04c-0.606 0-1.01-0.505-1.01-1.01s0.404-1.01 1.01-1.01h4.04z"/><path d="m20.005 38.99v2.02h-4.04c-0.606 0-1.01-0.505-1.01-1.01s0.404-1.01 1.01-1.01h4.04z"/></g></svg>
