<svg xmlns="http://www.w3.org/2000/svg" id="a" version="1.1" viewBox="0 0 72 72"><g id="b"><path fill="#9B9B9A" stroke="#9B9B9A" stroke-miterlimit="10" stroke-width="2" d="M52,38v14H20v-8h-4v8v3.0352 C16,55.5681,16.4319,56,16.9648,56h38.0705C55.5681,56,56,55.5681,56,55.0352V52V38H52z"/><path fill="#EA5A47" stroke="#EA5A47" stroke-miterlimit="10" stroke-width="2" d="M17.1547,16C16.517,16,16,16.517,16,17.1547V20 v8h4v-8h32v14h4V20v-2.8453C56,16.517,55.483,16,54.8453,16H17.1547z"/><circle cx="18" cy="36" r="8" fill="#fff"/></g><g id="c" fill="none" stroke="#000" stroke-linecap="round" stroke-linejoin="round" stroke-miterlimit="10" stroke-width="2"><polyline points="16 28.25 16 16 56 16 56 30.5"/><polyline points="56 38 56 56 16 56 16 43.75"/><polyline points="20 28.25 20 20 52 20 52 34"/><polyline points="52 41.5 52 52 20 52 20 43.75"/><circle cx="18" cy="36" r="8"/><line x1="23.657" x2="12.343" y1="30.343" y2="41.657"/><line x1="12.343" x2="23.657" y1="30.343" y2="41.657"/><line x1="49" x2="59" y1="34" y2="34"/><line x1="44" x2="64" y1="38" y2="38"/></g></svg>