<svg xmlns="http://www.w3.org/2000/svg" id="a" viewBox="0 0 72 72"><g id="b"><rect width="4" height="4" x="20" y="20"/><rect width="4" height="4" x="20" y="48"/><rect width="4" height="4" x="48" y="20"/></g><g id="c" stroke="#000" stroke-linejoin="round" stroke-width="2"><rect width="48" height="48" x="12" y="12" fill="#fff"/><rect width="4" height="4" x="20" y="20" fill="#3F3F3F"/><rect width="4" height="4" x="20" y="48" fill="#3F3F3F"/><rect width="4" height="4" x="48" y="20" fill="#3F3F3F"/></g><g id="d"><circle cx="18" cy="40" r="1"/><circle cx="16" cy="38" r="1"/><circle cx="20" cy="38" r="1"/><circle cx="34" cy="46" r="1"/><circle cx="40" cy="38" r="1"/><circle cx="40" cy="28" r="1"/><circle cx="32" cy="16" r="1"/><circle cx="46" cy="32" r="1"/><circle cx="52" cy="32" r="1"/><circle cx="52" cy="44" r="1"/><circle cx="54" cy="48" r="1"/><circle cx="56" cy="56" r="1"/><circle cx="32" cy="56" r="1"/><circle cx="44" cy="56" r="1"/><circle cx="46" cy="54" r="1"/><circle cx="44" cy="52" r="1"/><circle cx="16" cy="32" r="1"/><circle cx="40" cy="54" r="1"/><rect width="48" height="48" x="12" y="12" fill="none" stroke="#000" stroke-linejoin="round" stroke-width="2"/><rect width="12" height="12" x="16" y="16" fill="none" stroke="#000" stroke-linejoin="round" stroke-width="2"/><rect width="4" height="4" x="20" y="20" fill="none" stroke="#000" stroke-linejoin="round" stroke-width="2"/><rect width="12" height="12" x="16" y="44" fill="none" stroke="#000" stroke-linejoin="round" stroke-width="2"/><rect width="4" height="4" x="20" y="48" fill="none" stroke="#000" stroke-linejoin="round" stroke-width="2"/><rect width="12" height="12" x="44" y="16" fill="none" stroke="#000" stroke-linejoin="round" stroke-width="2"/><rect width="4" height="4" x="48" y="20" fill="none" stroke="#000" stroke-linejoin="round" stroke-width="2"/><path fill="none" stroke="#000" stroke-linecap="round" stroke-linejoin="round" stroke-width="2" d="m18 36v-2h8"/><path fill="none" stroke="#000" stroke-linecap="round" stroke-linejoin="round" stroke-width="2" d="m20 34v-2"/><path fill="none" stroke="#000" stroke-linecap="round" stroke-linejoin="round" stroke-width="2" d="m24 34v6"/><path fill="none" stroke="#000" stroke-linecap="round" stroke-linejoin="round" stroke-width="2" d="m24 38h2"/><path fill="none" stroke="#000" stroke-linecap="round" stroke-linejoin="round" stroke-width="2" d="m38 32v-2"/><path fill="none" stroke="#000" stroke-linecap="round" stroke-linejoin="round" stroke-width="2" d="m56 34h-2"/><path fill="none" stroke="#000" stroke-linecap="round" stroke-linejoin="round" stroke-width="2" d="m42 42h2v-2"/><path fill="none" stroke="#000" stroke-linecap="round" stroke-linejoin="round" stroke-width="2" d="m28 32h2"/><path fill="none" stroke="#000" stroke-linecap="round" stroke-linejoin="round" stroke-width="2" d="m34 32h6"/><path fill="none" stroke="#000" stroke-linecap="round" stroke-linejoin="round" stroke-width="2" d="m38 16v4h-2v8"/><path fill="none" stroke="#000" stroke-linecap="round" stroke-linejoin="round" stroke-width="2" d="m36 26h-4v2"/><path fill="none" stroke="#000" stroke-linecap="round" stroke-linejoin="round" stroke-width="2" d="m36 20h-4"/><path fill="none" stroke="#000" stroke-linecap="round" stroke-linejoin="round" stroke-width="2" d="m36 22h-2v-4"/><path fill="none" stroke="#000" stroke-linecap="round" stroke-linejoin="round" stroke-width="2" d="m28 36h8"/><path fill="none" stroke="#000" stroke-linecap="round" stroke-linejoin="round" stroke-width="2" d="m30 36v4h-2"/><path fill="none" stroke="#000" stroke-linecap="round" stroke-linejoin="round" stroke-width="2" d="m34 36v2"/><path fill="none" stroke="#000" stroke-linecap="round" stroke-linejoin="round" stroke-width="2" d="m32 44v-2h6v6h4v-2h8v10"/><path fill="none" stroke="#000" stroke-linecap="round" stroke-linejoin="round" stroke-width="2" d="m36 40v4h6m4-4h-4v8h2"/><path fill="none" stroke="#000" stroke-linecap="round" stroke-linejoin="round" stroke-width="2" d="m48 34v4h2v4h-2v4"/><path fill="none" stroke="#000" stroke-linecap="round" stroke-linejoin="round" stroke-width="2" d="m50 38v-2h2"/><path fill="none" stroke="#000" stroke-linecap="round" stroke-linejoin="round" stroke-width="2" d="m52 50h-4v2"/><path fill="none" stroke="#000" stroke-linecap="round" stroke-linejoin="round" stroke-width="2" d="m32 52h2v2h2v-4"/><path fill="none" stroke="#000" stroke-linecap="round" stroke-linejoin="round" stroke-width="2" d="m56 32v6h-2"/><path fill="none" stroke="#000" stroke-linecap="round" stroke-linejoin="round" stroke-width="2" d="m44 36v-2"/><path fill="none" stroke="#000" stroke-linecap="round" stroke-linejoin="round" stroke-width="2" d="m56 42v2"/><path fill="none" stroke="#000" stroke-linecap="round" stroke-linejoin="round" stroke-width="2" d="m54 52h2"/><path fill="none" stroke="#000" stroke-linecap="round" stroke-linejoin="round" stroke-width="2" d="m40 22v2"/></g></svg>