<?xml version="1.0" encoding="UTF-8"?>
<svg id="a" viewBox="0 0 72 72" xmlns="http://www.w3.org/2000/svg"><g id="b"><rect x="20" y="20" width="4" height="4"/><rect x="20" y="48" width="4" height="4"/><rect x="48" y="20" width="4" height="4"/></g><g id="c" stroke="#000" stroke-linejoin="round" stroke-width="2"><rect x="12" y="12" width="48" height="48" fill="#fff"/><rect x="20" y="20" width="4" height="4" fill="#3F3F3F"/><rect x="20" y="48" width="4" height="4" fill="#3F3F3F"/><rect x="48" y="20" width="4" height="4" fill="#3F3F3F"/></g><g id="d"><circle cx="18" cy="40" r="1"/><circle cx="16" cy="38" r="1"/><circle cx="20" cy="38" r="1"/><circle cx="34" cy="46" r="1"/><circle cx="40" cy="38" r="1"/><circle cx="40" cy="28" r="1"/><circle cx="32" cy="16" r="1"/><circle cx="46" cy="32" r="1"/><circle cx="52" cy="32" r="1"/><circle cx="52" cy="44" r="1"/><circle cx="54" cy="48" r="1"/><circle cx="56" cy="56" r="1"/><circle cx="32" cy="56" r="1"/><circle cx="44" cy="56" r="1"/><circle cx="46" cy="54" r="1"/><circle cx="44" cy="52" r="1"/><circle cx="16" cy="32" r="1"/><circle cx="40" cy="54" r="1"/><rect x="12" y="12" width="48" height="48" fill="none" stroke="#000" stroke-linejoin="round" stroke-width="2"/><rect x="16" y="16" width="12" height="12" fill="none" stroke="#000" stroke-linejoin="round" stroke-width="2"/><rect x="20" y="20" width="4" height="4" fill="none" stroke="#000" stroke-linejoin="round" stroke-width="2"/><rect x="16" y="44" width="12" height="12" fill="none" stroke="#000" stroke-linejoin="round" stroke-width="2"/><rect x="20" y="48" width="4" height="4" fill="none" stroke="#000" stroke-linejoin="round" stroke-width="2"/><rect x="44" y="16" width="12" height="12" fill="none" stroke="#000" stroke-linejoin="round" stroke-width="2"/><rect x="48" y="20" width="4" height="4" fill="none" stroke="#000" stroke-linejoin="round" stroke-width="2"/><path d="m18 36v-2h8" fill="none" stroke="#000" stroke-linecap="round" stroke-linejoin="round" stroke-width="2"/><path d="m20 34v-2" fill="none" stroke="#000" stroke-linecap="round" stroke-linejoin="round" stroke-width="2"/><path d="m24 34v6" fill="none" stroke="#000" stroke-linecap="round" stroke-linejoin="round" stroke-width="2"/><path d="m24 38h2" fill="none" stroke="#000" stroke-linecap="round" stroke-linejoin="round" stroke-width="2"/><path d="m38 32v-2" fill="none" stroke="#000" stroke-linecap="round" stroke-linejoin="round" stroke-width="2"/><path d="m56 34h-2" fill="none" stroke="#000" stroke-linecap="round" stroke-linejoin="round" stroke-width="2"/><path d="m42 42h2v-2" fill="none" stroke="#000" stroke-linecap="round" stroke-linejoin="round" stroke-width="2"/><path d="m28 32h2" fill="none" stroke="#000" stroke-linecap="round" stroke-linejoin="round" stroke-width="2"/><path d="m34 32h6" fill="none" stroke="#000" stroke-linecap="round" stroke-linejoin="round" stroke-width="2"/><path d="m38 16v4h-2v8" fill="none" stroke="#000" stroke-linecap="round" stroke-linejoin="round" stroke-width="2"/><path d="m36 26h-4v2" fill="none" stroke="#000" stroke-linecap="round" stroke-linejoin="round" stroke-width="2"/><path d="m36 20h-4" fill="none" stroke="#000" stroke-linecap="round" stroke-linejoin="round" stroke-width="2"/><path d="m36 22h-2v-4" fill="none" stroke="#000" stroke-linecap="round" stroke-linejoin="round" stroke-width="2"/><path d="m28 36h8" fill="none" stroke="#000" stroke-linecap="round" stroke-linejoin="round" stroke-width="2"/><path d="m30 36v4h-2" fill="none" stroke="#000" stroke-linecap="round" stroke-linejoin="round" stroke-width="2"/><path d="m34 36v2" fill="none" stroke="#000" stroke-linecap="round" stroke-linejoin="round" stroke-width="2"/><path d="m32 44v-2h6v6h4v-2h8v10" fill="none" stroke="#000" stroke-linecap="round" stroke-linejoin="round" stroke-width="2"/><path d="m36 40v4h6m4-4h-4v8h2" fill="none" stroke="#000" stroke-linecap="round" stroke-linejoin="round" stroke-width="2"/><path d="m48 34v4h2v4h-2v4" fill="none" stroke="#000" stroke-linecap="round" stroke-linejoin="round" stroke-width="2"/><path d="m50 38v-2h2" fill="none" stroke="#000" stroke-linecap="round" stroke-linejoin="round" stroke-width="2"/><path d="m52 50h-4v2" fill="none" stroke="#000" stroke-linecap="round" stroke-linejoin="round" stroke-width="2"/><path d="m32 52h2v2h2v-4" fill="none" stroke="#000" stroke-linecap="round" stroke-linejoin="round" stroke-width="2"/><path d="m56 32v6h-2" fill="none" stroke="#000" stroke-linecap="round" stroke-linejoin="round" stroke-width="2"/><path d="m44 36v-2" fill="none" stroke="#000" stroke-linecap="round" stroke-linejoin="round" stroke-width="2"/><path d="m56 42v2" fill="none" stroke="#000" stroke-linecap="round" stroke-linejoin="round" stroke-width="2"/><path d="m54 52h2" fill="none" stroke="#000" stroke-linecap="round" stroke-linejoin="round" stroke-width="2"/><path d="m40 22v2" fill="none" stroke="#000" stroke-linecap="round" stroke-linejoin="round" stroke-width="2"/></g></svg>
