<svg xmlns="http://www.w3.org/2000/svg" id="a" viewBox="0 0 72 72"><g id="b"><rect width="62" height="38" x="5" y="17" fill="#fff"/></g><g id="c" stroke="#000" stroke-linejoin="round" stroke-width="2"><rect width="62" height="38" x="5" y="17" fill="none"/><path fill="none" stroke-linecap="round" d="m9 21v31"/><path fill="none" stroke-linecap="round" d="m12 21v31"/><path fill="none" stroke-linecap="round" d="m12 21v31"/><path fill="none" stroke-linecap="round" d="m20 21v29"/><path fill="none" stroke-linecap="round" d="m28 21v29"/><path stroke-linecap="round" d="m15 50v-29h2v29h-2z"/><path stroke-linecap="round" d="m23 50v-29h2v29h-2z"/><path stroke-linecap="round" d="m31 50v-29h1v29h-1z"/><path fill="none" stroke-linecap="round" d="m46 21v29"/><path fill="none" stroke-linecap="round" d="m49 21v29"/><path fill="none" stroke-linecap="round" d="m57 21v29"/><path stroke-linecap="round" d="m41 50v-29h2v29h-2z"/><path stroke-linecap="round" d="m52 50v-29h2v29h-2z"/><path fill="none" stroke-linecap="round" d="m60 21v31"/><path fill="none" stroke-linecap="round" d="m63 21v31"/><path fill="none" stroke-linecap="round" d="m35 21v31"/><path fill="none" stroke-linecap="round" d="m38 21v31"/></g></svg>