<?xml version="1.0" encoding="UTF-8"?>
<svg id="a" viewBox="0 0 72 72" xmlns="http://www.w3.org/2000/svg"><g id="b"><rect x="5" y="17" width="62" height="38" fill="#fff"/></g><g id="c" stroke="#000" stroke-linejoin="round" stroke-width="2"><rect x="5" y="17" width="62" height="38" fill="none"/><path d="m9 21v31" fill="none" stroke-linecap="round"/><path d="m12 21v31" fill="none" stroke-linecap="round"/><path d="m12 21v31" fill="none" stroke-linecap="round"/><path d="m20 21v29" fill="none" stroke-linecap="round"/><path d="m28 21v29" fill="none" stroke-linecap="round"/><path d="m15 50v-29h2v29h-2z" stroke-linecap="round"/><path d="m23 50v-29h2v29h-2z" stroke-linecap="round"/><path d="m31 50v-29h1v29h-1z" stroke-linecap="round"/><path d="m46 21v29" fill="none" stroke-linecap="round"/><path d="m49 21v29" fill="none" stroke-linecap="round"/><path d="m57 21v29" fill="none" stroke-linecap="round"/><path d="m41 50v-29h2v29h-2z" stroke-linecap="round"/><path d="m52 50v-29h2v29h-2z" stroke-linecap="round"/><path d="m60 21v31" fill="none" stroke-linecap="round"/><path d="m63 21v31" fill="none" stroke-linecap="round"/><path d="m35 21v31" fill="none" stroke-linecap="round"/><path d="m38 21v31" fill="none" stroke-linecap="round"/></g></svg>
