<?xml version="1.0" encoding="UTF-8"?>
<svg id="a" viewBox="0 0 72 72" xmlns="http://www.w3.org/2000/svg"><g id="b" fill="#FCEA2B"><circle cx="51.905" cy="16.914" r="4.0018"/><path d="m52.259 26.163-3.3432 9.3693-1.277 1.8323 3.6645 6.2186 0.9392 0.8509 1.9117 4.2545 0.4211 16.927s-0.4968 3.126-4.3383 2.1101l-1.5033-15.444-6.5083-6.7305-6.8892 6.2543-13.652 6.7623-1.8414-2.0318 6.0638-4.5082 5.3019-3.651 4.0954-6.4448 4.6034-10 4.7304-8.9528 3.7145-0.9524 2.7938 2.0953 1.1125 2.0416z"/></g><g id="c" fill="none" stroke="#000" stroke-linecap="round" stroke-linejoin="round" stroke-miterlimit="10" stroke-width="2"><path d="m51.564 13.93c-1.4963 0.1683-2.6617 1.4392-2.6617 2.9811 0 1.5119 1.1206 2.7634 2.575 2.9701"/><path d="m50.697 66.818-1.5845-13.015c-0.1329-1.0919-0.8781-2.6217-1.6559-3.3996l-3.1716-3.1716c-0.7778-0.7778-2.1056-1.9904-2.9507-2.6946l-2.9271-2.4393c-0.845-0.7042-1.5364-2.1804-1.5364-3.2804s0.431-2.7901 0.9577-3.7558l5.0423-9.2442"/><path d="m48.023 35.177s-0.2593 0.5941-0.5761 1.3203c-0.3169 0.7262-0.093 2.0796 0.4976 3.0076l3.4189 5.3725"/><path d="m36.871 39.818-5.8531 8.3615c-0.6308 0.9012-1.922 2.0959-2.8694 2.6549l-6.7221 3.967c-0.9473 0.5591-1.4974 1.6915-1.2224 2.5165s1.3324 1.1579 2.3499 0.7398l8.4672-3.4796c1.0174-0.4181 2.5226-1.3581 3.3447-2.0889l7.5052-6.6713"/><path d="m42.871 25.818c2-4 4.3589-4.2329 6.0312-3.583 1.6377 0.6367 2.4151 2.2378 2.3692 3.834"/><line x1="47.751" x2="51.417" y1="26.916" y2="32.401"/><line x1="54.978" x2="54.978" y1="4.866" y2="66.84"/><line x1="14.225" x2="33.598" y1="20.9" y2="20.9"/><line x1="29.084" x2="33.9" y1="16.076" y2="20.891"/><line x1="29.084" x2="33.9" y1="25.745" y2="20.93"/></g></svg>
