<?xml version="1.0" encoding="UTF-8"?>
<svg id="a" viewBox="0 0 72 72" xmlns="http://www.w3.org/2000/svg"><g id="b"><polygon points="62 27 62 60 21 60 21 51 31 51 31 43 40.565 43.068 42 35 51 35 52 27" fill="#9B9B9A"/></g><g id="c" fill="none" stroke="#000" stroke-linecap="round" stroke-linejoin="round" stroke-miterlimit="10" stroke-width="2"><line x1="61" x2="51" y1="27" y2="27"/><line x1="51" x2="51" y1="35" y2="27"/><line x1="51" x2="41" y1="35" y2="35"/><line x1="41" x2="41" y1="43" y2="35"/><line x1="41" x2="31" y1="43" y2="43"/><line x1="31" x2="31" y1="51" y2="43"/><line x1="31" x2="21" y1="51" y2="51"/><line x1="21" x2="21" y1="59" y2="51"/><line x1="21" x2="11" y1="59" y2="59"/><line x1="16.397" x2="39.024" y1="39.63" y2="17.002"/><line x1="30.539" x2="39.024" y1="17.002" y2="17.002"/><line x1="39.024" x2="39.024" y1="25.487" y2="17.002"/><line x1="16.397" x2="16.397" y1="31.144" y2="39.63"/><line x1="24.882" x2="16.397" y1="39.63" y2="39.63"/></g></svg>
