<?xml version="1.0" encoding="UTF-8"?>
<svg id="a" viewBox="0 0 72 72" xmlns="http://www.w3.org/2000/svg"><g id="b"><polygon points="49 41.711 36 30 23 41.711 23 61 49 61" fill="#fff"/><polyline points="31.028 42.624 21.945 34.123 15 28.923 7 36.13 7 48 23 48" fill="#fff"/><polyline points="49 59 66 59 66 46.388 56.848 38.362 47.041 46.697" fill="#fff"/><polyline points="41.6 35 41.6 25.376 36 20 30.4 25.376 30.4 35" fill="#fff"/><polyline points="49 61 49 42 32 61" fill="#D0CFCE"/><polyline points="23 48 23 40.333 15.333 48" fill="#D0CFCE"/><polyline points="66 59 66 47 56 59" fill="#D0CFCE"/></g><g id="c"><path d="m36 20.763c-0.5789 0-1.0484-0.4694-1.0484-1.0484v-9.4295c0-0.579 0.4695-1.0484 1.0484-1.0484 0.579 0 1.0484 0.4694 1.0484 1.0484v9.4295c1e-4 0.5791-0.4693 1.0484-1.0484 1.0484z"/><path d="m39.824 15.157h-7.647c-0.579 0-1.0484-0.4694-1.0484-1.0484 0-0.5789 0.4694-1.0484 1.0484-1.0484h7.647c0.579 0 1.0484 0.4695 1.0484 1.0484 0 0.579-0.4694 1.0484-1.0484 1.0484z"/><polygon points="49 41.711 36 30 23 41.711 23 61 49 61" fill="none" stroke="#000" stroke-linecap="round" stroke-linejoin="round" stroke-miterlimit="10" stroke-width="2"/><polyline points="23 36.13 15 28.923 7 36.13 7 48 23 48" fill="none" stroke="#000" stroke-linecap="round" stroke-linejoin="round" stroke-miterlimit="10" stroke-width="2"/><polyline points="49 59 66 59 66 46.388 57.5 38.731 52.857 42.857" fill="none" stroke="#000" stroke-linecap="round" stroke-linejoin="round" stroke-miterlimit="10" stroke-width="2"/><polyline points="41.6 35 41.6 25.376 36 20 30.4 25.376 30.4 35" fill="none" stroke="#000" stroke-linecap="round" stroke-linejoin="round" stroke-miterlimit="10" stroke-width="2"/></g></svg>
