<?xml version="1.0" encoding="UTF-8"?>
<svg id="a" viewBox="0 0 72 72" xmlns="http://www.w3.org/2000/svg"><g id="b"><rect x="12.069" y="12.235" width="48.338" height="47.864" fill="#61B2E4"/></g><g id="c" fill="none" stroke="#000" stroke-linecap="round" stroke-linejoin="round" stroke-miterlimit="10" stroke-width="2"><path d="m59.177 59.927-46 0.1466c-0.5523 0.0018-1.0014-0.4445-1.0032-0.9968l-0.1466-46c-0.0018-0.5523 0.4445-1.0014 0.9968-1.0032l46-0.1466c0.5523-0.0018 1.0014 0.4445 1.0032 0.9968l0.1466 46c0.0018 0.5523-0.4445 1.0014-0.9968 1.0032z"/><line x1="19.062" x2="36.036" y1="27.048" y2="18"/><line x1="53.062" x2="36.036" y1="26.952" y2="18"/><path d="m30.023 53.008v-22h8.3889c3.0263 0 5.4793 2.4533 5.4793 5.4796s-2.453 5.4793-5.4793 5.4793h-8.3889"/></g></svg>
