<svg xmlns="http://www.w3.org/2000/svg" id="a" viewBox="0 0 72 72"><g id="b"><rect width="35" height="11" x="20" y="40" fill="#9b9b9a"/><path fill="#fcea2b" d="m46 18 13 4-3 20-5 5-3-5q-1-12-2-24z"/><path fill="#fcea2b" d="m15 17 4 14-1 16 30-5q-1-12-2-24z"/></g><g id="c" fill="none" stroke="#000" stroke-linecap="round" stroke-linejoin="round" stroke-width="2"><path d="m15 17 4 14-1 16 30-5q-1-12-2-24z"/><line x1="19" x2="46" y1="31" y2="18"/><line x1="48" x2="19" y1="42" y2="31"/><line x1="46" x2="56" y1="18" y2="42"/><polyline points="54 51 20 51 20 47"/><path d="m46 18 13 4-3 20-5 5-3-5q-1-12-2-24z"/><line x1="46" x2="56" y1="18" y2="42"/></g></svg>