<svg xmlns="http://www.w3.org/2000/svg" id="a" viewBox="0 0 72 72"><g id="b"><polygon fill="#d0cfce" points="37.489 32.657 34.22 32.657 32.88 62.518 35.44 62.518 36.126 62.518 38.686 62.518"/><g id="c"><rect width="30.04" height="2.587" x="6.076" y="63.44" fill="#b1cc33"/><rect width="30.266" height="2.587" x="35.844" y="63.452" fill="#5c9e31"/></g><path fill="#d0cfce" d="M30.0819,19.1426a38.3952,38.3952,0,0,1,6.0426-.944H36.14a24.333,24.333,0,0,1,5.4164.944,1.26,1.26,0,0,1,.1722.0651,17.6007,17.6007,0,0,1-1.44,11.1333c-.2661.51-.5166.9115-.7044,1.2045a28.72,28.72,0,0,0-3.6788.0977H35.874a28.1185,28.1185,0,0,0-2.9587.4014,1.1556,1.1556,0,0,1-.6418-.434l-.047-.0651C31.209,30.0263,28.9548,25.7726,30.0819,19.1426Z"/><path fill="#9b9b9a" d="m35.853 18.832v43.07h3.1125l-1.3336-29.256 2.0622-1.1119 2.0177-2.0044 0.4577-4.93-0.5344-5.4682s-6.0567-0.2994-5.7821-0.2994z"/><path fill="#d22f27" d="m35.868 8.5875c-0.8042 0-1.455-0.4473-1.455-1v-1.8369c0-0.5528 0.6508-1 1.455-1s1.455 0.4472 1.455 1v1.8369c0 0.5525-0.6508 1-1.455 1z"/><rect width="2.913" height="2.048" x="34.414" y="7.447" fill="#d0cfce"/><rect width="2.913" height="2.048" x="34.414" y="11.458" fill="#d0cfce"/><rect width="2.913" height="2.048" x="34.414" y="13.447" fill="#d22f27"/><rect width="2.913" height="2.048" x="34.414" y="9.435" fill="#d22f27"/></g><g id="d"><rect width="6.858" height="4.837" x="32.66" y="15.16" rx=".887" ry=".887"/><polygon fill="none" stroke="#000" stroke-linecap="round" stroke-linejoin="round" stroke-width="2" points="37.489 32.657 34.22 32.657 32.88 62.518 35.44 62.518 36.126 62.518 38.686 62.518"/><path fill="none" stroke="#000" stroke-linecap="round" stroke-linejoin="round" stroke-width="2" d="M29.9349,19.1426a16.3828,16.3828,0,0,0,11.7661,0s.0512.0251.1181.0616a24.71,24.71,0,0,1-1.0126,11.2271A4.8949,4.8949,0,0,1,39.6851,32.06c-.0507-.0216.0432,0,.0432,0"/><path fill="none" stroke="#000" stroke-linecap="round" stroke-linejoin="round" stroke-width="2" d="M41.8015,19.1426a16.3825,16.3825,0,0,1-11.766,0s-.0512.0251-.1182.0616A24.7124,24.7124,0,0,0,30.93,30.4313,4.8978,4.8978,0,0,0,32.0513,32.06c.0507-.0216-.0432,0-.0432,0"/><path fill="none" stroke="#000" stroke-linecap="round" stroke-linejoin="round" stroke-width="2" d="m41.384 27.535s-6.01 2.7857-10.855 0"/><path fill="none" stroke="#000" stroke-linecap="round" stroke-linejoin="round" stroke-width="2" d="m39.694 32.103a12.729 12.729 0 0 1-7.707-0.0643"/><path fill="none" stroke="#000" stroke-linecap="round" stroke-linejoin="round" stroke-width="2" d="m42.013 23.143s-6.186 2.6591-12.099-0.1334"/><path fill="none" stroke="#000" stroke-miterlimit="10" stroke-width="1.6" d="M37.6314,7.7469V5.818c0-.6286-.7067-1.1372-1.58-1.1372s-1.58.5086-1.58,1.1372V17.7039h3.1627V7.7469Z"/><rect width="61.962" height="4.5" x="5.135" y="62.528" fill="none" stroke="#000" stroke-linecap="round" stroke-linejoin="round" stroke-width="2"/><ellipse cx="35.832" cy="18.92" rx="6.777" ry="1.704"/></g></svg>