<svg xmlns="http://www.w3.org/2000/svg" id="a" version="1.1" viewBox="0 0 72 72"><g id="b"><polygon fill="#D0CFCE" points="46.958 12.625 50.114 17.81 50.114 54.778 41.917 54.778 42.205 20.759"/><polygon fill="#D0CFCE" points="25.18 12.875 21.755 17.68 21.755 54.647 30.062 54.281 29.633 21.02"/><path fill="#F4AA41" d="m28.315 57.438s1.2601-31.898 1.0101-39.896c-0.24-7.6278 6.64-11.465 6.64-11.465s6.88 3.8376 6.64 11.465c-0.25 7.9983 1.01 39.896 1.01 39.896h-15.3z"/><path fill="#fff" d="m39.51 59.87 16.099-1.2525c0.1851-3.1745-3.2684-6.958-3.2684-6.958-8.25-5.9369-9.5834-9.42-9.5834-9.42l-3.4166-9.1825"/><path fill="#fff" d="m32.43 59.841-16.038-1.2239c-0.1851-3.1745 3.2684-6.958 3.2684-6.958 8.25-5.9369 9.5834-9.42 9.5834-9.42l3.4166-9.1825"/><path fill="#fff" d="m40.03 65.778c-0.0101 0.0665-0.0101 0.1045-0.0101 0.1045h-8.1099s0-0.038-0.0101-0.114c-0.0499-0.6744-0.2699-4.1796 0.5301-5.9275-0.02-6.7253-0.06-29.001 0.51-34.007 0.66-5.918 3.0199-6.7919 3.0199-6.7919s2.37 0.8739 3.0401 6.7919c0.56 5.0156 0.53 27.339 0.5099 34.036 0.7801 1.7573 0.5601 5.253 0.5201 5.9084z"/></g><g id="c" fill="none" stroke="#000" stroke-linecap="round" stroke-linejoin="round" stroke-miterlimit="10" stroke-width="1.949"><polyline points="45.43 17.26 47.7 13.14 50.11 17.81 50.11 49.98"/><polyline points="21.75 50.09 21.75 17.68 24.17 13.01 26.44 17.13"/><path d="m43.09 42.86c-0.31-9.52-0.63-20.96-0.49-25.32 0.24-7.63-6.64-11.46-6.64-11.46s-6.88 3.83-6.64 11.46c0.14 4.38-0.18 15.9-0.49 25.45 0.31-0.49 0.41-0.75 0.41-0.75l3.36-9.01v-0.01c0.07-3.32 0.18-6.01 0.34-7.39 0.66-5.91 3.02-6.79 3.02-6.79s2.37 0.88 3.04 6.79c0.15 1.36 0.26 3.99 0.34 7.23 0.18 7.54 0.19 18.41 0.17 24.38"/><path d="m40.173 59.813 15.435-1.1955c0.1851-3.1745-3.2684-6.958-3.2684-6.958-8.25-5.9369-9.5834-9.42-9.5834-9.42l-3.4166-9.1825"/><path d="m32.43 57.44c-0.02-5.92-0.01-16.68 0.17-24.21l-3.36 9.01s-0.1 0.26-0.41 0.75v0.01"/><polyline points="32.66 33.06 32.6 33.22 32.6 33.23"/><path d="m28.83 43c-0.73 1.16-2.61 3.61-7.08 7.09-0.64 0.5-1.34 1.03-2.09 1.57 0 0-3.45 3.78-3.27 6.96l15.44 1.19"/><path d="m40.03 65.78c-0.01 0.06-0.01 0.1-0.01 0.1h-8.11s0-0.04-0.0099-0.11c-0.05-0.68-0.27-4.18 0.53-5.93v-2.4c-0.02-5.92-0.01-16.68 0.17-24.21v-0.0099c0.07-3.32 0.1801-6.01 0.34-7.39 0.66-5.91 3.02-6.79 3.02-6.79s2.37 0.88 3.04 6.79c0.15 1.36 0.26 3.99 0.34 7.23 0.18 7.54 0.19 18.41 0.17 24.38v2.43c0.7799 1.7599 0.5599 5.2499 0.5199 5.9099z"/></g></svg>