<svg xmlns="http://www.w3.org/2000/svg" id="a" viewBox="0 0 72 72"><g id="b"><rect width="48" height="47" x="12" y="13" fill="#D0CFCE"/><path fill="#d0cfce" stroke="#9B9B9A" stroke-linejoin="round" stroke-width="2" d="m44 27h10l-2 5h-6l-2-5z"/><path fill="none" stroke="#9B9B9A" stroke-linejoin="round" stroke-width="2" d="M43.5 34.5L40 31H36V27H44"/><path fill="none" stroke="#9B9B9A" stroke-linejoin="round" stroke-width="2" d="m42 38h-6v-7"/><path fill="none" stroke="#9B9B9A" stroke-linejoin="round" stroke-width="2" d="M54.5 34.5L58 31H59"/><path fill="none" stroke="#9B9B9A" stroke-linejoin="round" stroke-width="2" d="m56 38h3"/><path fill="none" stroke="#9B9B9A" stroke-linejoin="round" stroke-width="2" d="m56 45h3"/><path fill="none" stroke="#9B9B9A" stroke-linejoin="round" stroke-width="2" d="m56 52h3"/><path fill="none" stroke="#9B9B9A" stroke-linejoin="round" stroke-width="2" d="m36 45h5"/><path fill="none" stroke="#9B9B9A" stroke-linejoin="round" stroke-width="2" d="m36 52h5"/><path fill="#A57939" fill-rule="evenodd" d="m42 39c0-3.866 3.134-7 7-7s7 3.134 7 7v21h-14v-21z" clip-rule="evenodd"/><rect width="16" height="14" x="17" y="40" fill="#3F3F3F"/><rect width="4" height="18" fill="#6A462F" transform="matrix(-1 0 0 1 54 40)"/><rect width="4" height="18" fill="#6A462F" transform="matrix(-1 0 0 1 48 40)"/><path fill="#6A462F" fill-rule="evenodd" d="m44 39c0-2.7614 2.2386-5 5-5s5 2.2386 5 5h-10z" clip-rule="evenodd"/><path fill="none" stroke="#9B9B9A" stroke-width="2" d="m54 27h5"/><g fill="none" stroke-width="4"><path stroke="#EA5A47" d="m17 37v-10"/><path stroke="#EA5A47" d="m25 37v-10"/><path stroke="#EA5A47" d="m33 37v-10"/><path stroke="#fff" d="m29 37v-10"/><path stroke="#fff" d="m21 37v-10"/><path stroke="#D22F27" d="m17 39v-2"/><path stroke="#D22F27" d="m25 39v-2"/><path stroke="#D22F27" d="m33 39v-2"/><path stroke="#D0CFCE" d="m29 39v-2"/><path stroke="#D0CFCE" d="m21 39v-2"/></g></g><g id="c"><path fill="none" stroke="#000" stroke-linecap="round" stroke-width="2" d="m18 54h14"/><path d="m15 27v-1c-0.5523 0-1 0.4477-1 1h1zm20 0h1c0-0.5523-0.4477-1-1-1v1zm-15 11c0-0.5523-0.4477-1-1-1s-1 0.4477-1 1h2zm4 0c0-0.5523-0.4477-1-1-1s-1 0.4477-1 1h2zm4 0c0-0.5523-0.4477-1-1-1s-1 0.4477-1 1h2zm4 0c0-0.5523-0.4477-1-1-1s-1 0.4477-1 1h2zm-17-10h20v-2h-20v2zm1 10v-11h-2v11h2zm1 1c-0.5523 0-1-0.4477-1-1h-2c0 1.6569 1.3431 3 3 3v-2zm1-1c0 0.5523-0.4477 1-1 1v2c1.6569 0 3-1.3431 3-3h-2zm3 1c-0.5523 0-1-0.4477-1-1h-2c0 1.6569 1.3431 3 3 3v-2zm1-1c0 0.5523-0.4477 1-1 1v2c1.6569 0 3-1.3431 3-3h-2zm3 1c-0.5523 0-1-0.4477-1-1h-2c0 1.6569 1.3431 3 3 3v-2zm1-1c0 0.5523-0.4477 1-1 1v2c1.6569 0 3-1.3431 3-3h-2zm3 1c-0.5523 0-1-0.4477-1-1h-2c0 1.6569 1.3431 3 3 3v-2zm1-1c0 0.5523-0.4477 1-1 1v2c1.6569 0 3-1.3431 3-3h-2zm3 1c-0.5523 0-1-0.4477-1-1h-2c0 1.6569 1.3431 3 3 3v-2zm1-1c0 0.5523-0.4477 1-1 1v2c1.6569 0 3-1.3431 3-3h-2zm0-11v11h2v-11h-2z"/><line x1="35" x2="35" y1="59" y2="43" stroke="#000" stroke-linecap="round" stroke-width="2"/><line x1="15" x2="15" y1="59" y2="43" stroke="#000" stroke-linecap="round" stroke-width="2"/><path d="m56 60h1c0 0.5523-0.4477 1-1 1v-1zm-14 0v1c-0.5523 0-1-0.4477-1-1h1zm7-27c-3.3137 0-6 2.6863-6 6h-2c0-4.4183 3.5817-8 8-8v2zm6 6c0-3.3137-2.6863-6-6-6v-2c4.4183 0 8 3.5817 8 8h-2zm0 21v-21h2v21h-2zm-13-1h14v2h-14v-2zm1-20v21h-2v-21h2z"/><rect width="48" height="47" x="12" y="13" fill="none" stroke="#000" stroke-linejoin="round" stroke-width="2"/><path fill="none" stroke="#000" stroke-linecap="round" stroke-linejoin="round" stroke-miterlimit="10" stroke-width="2" d="m50.03 16.001h-4v7h4"/><path fill="none" stroke="#000" stroke-linecap="round" stroke-linejoin="round" stroke-miterlimit="10" stroke-width="2" d="m46.03 19.501h3"/><path fill="none" stroke="#000" stroke-linecap="round" stroke-linejoin="round" stroke-miterlimit="10" stroke-width="2" d="m57.03 16.001h-4v7h4"/><path fill="none" stroke="#000" stroke-linecap="round" stroke-linejoin="round" stroke-miterlimit="10" stroke-width="2" d="m53.03 19.501h3"/><path fill="none" stroke="#000" stroke-linecap="round" stroke-linejoin="round" stroke-miterlimit="10" stroke-width="2" d="m29.03 23.001-3-7-3 7"/><path fill="none" stroke="#000" stroke-linecap="round" stroke-linejoin="round" stroke-miterlimit="10" stroke-width="2" d="m24.03 21.321h4"/><path fill="none" stroke="#000" stroke-linecap="round" stroke-linejoin="round" stroke-miterlimit="10" stroke-width="2" d="m35.03 19.501h-3v3.5-7h4"/><path fill="none" stroke="#000" stroke-linecap="round" stroke-linejoin="round" stroke-miterlimit="10" stroke-width="2" d="m42.2 19.501h-3v3.5-7h4"/><path fill="none" stroke="#000" stroke-linecap="round" stroke-linejoin="round" stroke-miterlimit="10" stroke-width="2" d="m16 16.001v7"/><path fill="none" stroke="#000" stroke-linecap="round" stroke-linejoin="round" stroke-miterlimit="10" stroke-width="2" d="M16.0193 20.5387L20.0195 16"/><path fill="none" stroke="#000" stroke-linecap="round" stroke-linejoin="round" stroke-miterlimit="10" stroke-width="2" d="m17.986 18.357 2.3965 4.6466"/></g></svg>