<?xml version="1.0" encoding="UTF-8"?>
<svg id="a" viewBox="0 0 72 72" xmlns="http://www.w3.org/2000/svg"><g id="b"><path d="m20.4 32.431c-0.2614 1.1476-0.3995 2.3421-0.3995 3.5688 0 8.8366 7.1634 16 16 16 1.2268 0 2.4213-0.1381 3.5688-0.3995-3.3356-2.4359-6.8435-5.4377-10.288-8.8818-3.444-3.444-6.4458-6.9519-8.8817-10.288zm26.218 15.539c-3.3262-0.6892-8.5399-4.0802-13.523-9.0637-4.9836-4.9836-8.3746-10.197-9.0638-13.524 2.931-3.302 7.2075-5.3828 11.97-5.3828 8.8366 0 16 7.1634 16 16 0 4.7625-2.0808 9.039-5.3828 11.97z" clip-rule="evenodd" fill-rule="evenodd"/></g><g id="c"><circle cx="36" cy="36" r="20" fill="#D22F27" stroke="#D22F27" stroke-width="2"/><path d="m58.88 58.88c-3.9489 3.9489-17.394-3.0938-30.03-15.73s-19.679-26.082-15.73-30.03c1.848-1.848 5.7757-1.2888 10.727 1.1244 3.4055 1.6598 7.3128 1.9805 11.096 1.7835 0.3501-0.0183 0.7026-0.0275 1.0573-0.0275 11.046 0 20 8.9543 20 20 0 0.3547-0.0093 0.7071-0.0275 1.0573-0.197 3.7833 0.1237 7.6906 1.7835 11.096 2.4132 4.9513 2.9724 8.879 1.1243 10.727z" clip-rule="evenodd" fill="#D22F27" fill-rule="evenodd"/><path d="m36 51c8.2843 0 15-6.7157 15-15s-6.7157-15-15-15-15 6.7157-15 15 6.7157 15 15 15z"/><path d="m18.203 14.039c-0.365-0.365-0.8587-0.5908-1.3723-0.5388-0.9672 0.098-1.7562 0.4249-2.3311 0.9998-3.7106 3.7107 2.9072 16.345 14.781 28.219 11.874 11.874 24.508 18.492 28.219 14.781 0.5749-0.5749 0.9018-1.3639 0.9998-2.3311 0.052-0.5135-0.1738-1.0073-0.5388-1.3723l-6.6499-6.6499c-0.4641-0.4641-1.3469-0.1108-1.811 0.3533-2.1574 2.1574-9.5027-1.6902-16.406-8.5937-6.9035-6.9036-10.751-14.249-8.5937-16.406 0.4641-0.4641 0.8174-1.3469 0.3533-1.811l-6.65-6.65z" clip-rule="evenodd" fill="#D22F27" fill-rule="evenodd"/><path d="m14.711 14.711c0.2297-0.2297 0.8415-0.565 2.3519-0.3914 1.4799 0.17 3.4413 0.7986 5.7983 1.9474 3.8988 1.9002 8.2474 2.2136 12.199 2.0078 0.3111-0.0162 0.6246-0.0244 0.9402-0.0244 9.803 0 17.75 7.947 17.75 17.75 0 0.3156-0.0082 0.6291-0.0244 0.9402-0.2059 3.9516 0.1076 8.3002 2.0078 12.199 1.1488 2.357 1.7774 4.3183 1.9474 5.7982 0.1735 1.5104-0.1617 2.1223-0.3914 2.352-0.2463 0.2463-0.9359 0.6094-2.6561 0.3511-1.6678-0.2506-3.8626-1.035-6.4663-2.3988-5.1826-2.7147-11.523-7.4795-17.726-13.683s-10.968-12.544-13.682-17.726c-1.3639-2.6037-2.1483-4.7985-2.3988-6.4664-0.2583-1.7201 0.1048-2.4097 0.3511-2.656z" fill="#E27022" stroke="#D22F27" stroke-width=".5"/><path d="m33.094 38.906c4.1109 4.1108 8.3784 7.1381 11.614 8.4591 1.1695 0.4774 2.491 0.1315 3.3241-0.8181 2.4706-2.816 3.9684-6.5067 3.9684-10.547 0-8.8366-7.1635-16-16-16-4.0406 0-7.7313 1.4978-10.547 3.9684-0.9495 0.8331-1.2955 2.1546-0.818 3.3241 1.321 3.2354 4.3483 7.5029 8.4591 11.614z" clip-rule="evenodd" fill-rule="evenodd"/></g><g id="d"><path d="m28.85 43.15-0.7071 0.7071 0.7071-0.7071zm30.03 15.73-0.7071-0.7071 0.7071 0.7071zm-1.1243-10.727 0.8989-0.4381-0.8989 0.4381zm-29.613-4.2962c6.3694 6.3695 12.97 11.358 18.516 14.263 2.7677 1.4498 5.325 2.4084 7.4917 2.7338 2.1427 0.3218 4.1199 0.05 5.4369-1.2669l-1.4143-1.4142c-0.6575 0.6575-1.8417 0.9862-3.7255 0.7033-1.8598-0.2793-4.194-1.1308-6.8608-2.5276-5.3224-2.788-11.763-7.6389-18.03-13.906l-1.4142 1.4142zm-15.73-31.445c-1.317 1.3169-1.5888 3.2942-1.2669 5.4368 0.3254 2.1668 1.284 4.724 2.7337 7.4917 2.9053 5.5464 7.894 12.147 14.263 18.516l1.4142-1.4142c-6.267-6.2671-11.118-12.708-13.906-18.03-1.3969-2.6668-2.2483-5.001-2.5276-6.8607-0.283-1.8838 0.0457-3.068 0.7033-3.7256l-1.4142-1.4142zm11.872 0.9326c-2.5284-1.2323-4.863-2.0263-6.8512-2.2547-1.974-0.2268-3.7881 0.0892-5.021 1.3221l1.4142 1.4142c0.6151-0.6151 1.6888-0.9435 3.3785-0.7494 1.6754 0.1925 3.7803 0.8847 6.2033 2.0656l0.8762-1.7978zm11.715 1.6549c-0.372 0-0.7419 0.0097-1.1093 0.0288l0.104 1.9973c0.3328-0.0173 0.668-0.0261 1.0053-0.0261v-2zm21 21c0-11.598-9.402-21-21-21v2c10.493 0 19 8.5066 19 19h2zm-0.0288 1.1093c0.0191-0.3675 0.0288-0.7373 0.0288-1.1093h-2c0 0.3373-0.0088 0.6724-0.0261 1.0052l1.9973 0.1041zm2.6163 22.478c1.2329-1.2329 1.5488-3.047 1.3221-5.021-0.2284-1.9883-1.0224-4.3229-2.2547-6.8512l-1.7978 0.8762c1.1809 2.423 1.8731 4.5278 2.0655 6.2033 0.1942 1.6897-0.1343 2.7634-0.7494 3.3785l1.4143 1.4142zm-4.6136-22.582c-0.201 3.8582 0.1165 7.9616 1.8832 11.586l1.7978-0.8762c-1.553-3.1863-1.8769-6.8975-1.6837-10.606l-1.9973-0.1041zm-31.565-21.862c3.6247 1.7667 7.7281 2.0842 11.586 1.8832l-0.104-1.9973c-3.7086 0.1932-7.4197-0.1308-10.606-1.6837l-0.8762 1.7978z"/><path d="m16.224 33c-0.1472 0.9786-0.2235 1.9804-0.2235 3 0 11.046 8.9543 20 20 20 1.194 0 2.3635-0.1046 3.5-0.3052" fill="none" stroke="#000" stroke-linecap="round" stroke-width="2"/></g><g id="e"><path d="m36 52c-8.8366 0-16-7.1634-16-16" fill="none" stroke="#E27022" stroke-linecap="round" stroke-miterlimit="10" stroke-width="2"/></g></svg>
