<?xml version="1.0" encoding="UTF-8"?>
<svg id="a" viewBox="0 0 72 72" xmlns="http://www.w3.org/2000/svg"><g id="b"><polygon points="50.846 56 41.046 45.443 41.398 43.464 43.821 40.572 46.119 39.39 50.363 34.326 57.431 56" fill="#f4aa41"/><polygon points="51.957 55 25.968 26.963 35.078 56 40.384 56" fill="#e27022"/><polygon points="33.477 35.064 25.968 26.963 28.61 35.064 30.225 35.064" fill="#f4aa41"/><polygon points="2.473 55 25.968 26.963 35.111 55" fill="#f4aa41"/><polygon points="19.18 35.064 25.968 26.963 28.61 35.064" fill="#fcea2b"/><polygon points="69.527 55 50.363 34.326 57.105 55 59.945 55 61.61 55" fill="#e27022"/></g><g id="c" fill="none" stroke="#000" stroke-linecap="round" stroke-linejoin="round" stroke-width="2"><polyline points="44.586 41.219 50.363 34.326 57.105 55"/><polygon points="69.527 55 50.363 34.326 57.105 55 59.945 55 61.61 55"/><polygon points="2.473 55 25.968 26.963 35.111 55"/><polyline points="39.449 55 51.957 55 25.968 26.963"/></g></svg>
