<svg xmlns="http://www.w3.org/2000/svg" id="a" viewBox="0 0 72 72"><g id="b"><path fill="#9b9b9a" d="M27.7666,61.5156H17.6217v-.5748H16.0469v1.5748a.9993.9993,0,0,0,1,1h10.72a1,1,0,1,0,0-2Z"/><path fill="#9b9b9a" d="M44.299,61.5156H54.4439v-.5748h1.5748v1.5748a.9993.9993,0,0,1-1,1H44.299a1,1,0,0,1,0-2Z"/><rect width="18.532" height="4.111" x="26.767" y="61.889" fill="#61b2e4" rx="1"/><circle cx="35.952" cy="19.368" r="2.314" fill="#f4aa41"/><path fill="#f4aa41" d="M41.7407,38.9116l-1.1358-9.5873.1828-.3953,3.3964,3.7429a.7619.7619,0,0,1,.0767.93c-.4689.72-1.0447,1.6361-1.4252,2.1951a2.22,2.22,0,0,0,.85,3.1146L48.1537,32.8,41.9873,26.335,39.32,25.3067l-7.0052-.1505L31.23,24.5389l-3.31-4.22-1.419-6.3466c-1.2909,0-1.8634.7644-1.8634,1.5441,0,1.255.0575,1.495.0575,4.0649,0,2.2106,2.1772,4.9232,4.262,6.7536A12.0742,12.0742,0,0,0,31.32,28.0883l-.2142,1.236-.5018,9.5873L23.9073,60.9531H26.453l8.7518-19.2858h1.5429l8.9189,19.2858h2.5457Z"/><path fill="none" stroke="#9b9b9a" stroke-linecap="round" stroke-linejoin="round" stroke-width="2" d="M25.0952,7.5441c0-.9722.5578-1.9444,1.41-1.9444"/><path fill="none" stroke="#9b9b9a" stroke-linecap="round" stroke-linejoin="round" stroke-width="2" d="M28.8458,7.5441a2.0955,2.0955,0,0,1,1.4322-2.23c1.5293-.6169,2.8529.6682,4.4908-.3084"/><path fill="#f4aa41" d="m31.807 9.8822c0 1.7456-1.9977 3.1606-4.462 3.1606s-4.4619-1.415-4.4619-3.1606z"/></g><g id="c" fill="none" stroke="#000" stroke-width="2"><line x1="34.316" x2="32.437" y1="17.732" y2="15.854" stroke-linecap="round" stroke-linejoin="round"/><circle cx="35.952" cy="19.368" r="2.314" stroke-miterlimit="10"/><line x1="35.952" x2="35.952" y1="17.054" y2="14.368" stroke-linecap="round" stroke-linejoin="round"/><line x1="37.708" x2="39.611" y1="17.87" y2="15.968" stroke-linecap="round" stroke-linejoin="round"/><line x1="38.266" x2="40.951" y1="19.368" y2="19.368" stroke-linecap="round" stroke-linejoin="round"/><line x1="33.638" x2="30.981" y1="19.368" y2="19.368" stroke-linecap="round" stroke-linejoin="round"/><path stroke-linecap="round" stroke-linejoin="round" d="m27.408 13.41 0.1949 5.8847a3.4811 3.4811 0 0 0 0.4992 1.691c1.2559 2.0753 3.2963 4.2817 4.7881 4.0953a30.007 30.007 0 0 1 6.1714 0 3.9932 3.9932 0 0 1 2.6291 0.8852 50.48 50.48 0 0 1 5.0175 5.1822 2.7609 2.7609 0 0 1 0.18 3.4316l-2.59 3.6433"/><path stroke-linecap="round" stroke-linejoin="round" d="m31.807 9.8822c0 1.7456-1.9977 3.1606-4.462 3.1606s-4.4619-1.415-4.4619-3.1606z"/><polyline stroke-linecap="round" stroke-linejoin="round" points="17.047 60.953 27.767 60.953 27.767 65"/><polyline stroke-linecap="round" stroke-linejoin="round" points="44.299 65 44.299 60.953 55.019 60.953"/><path stroke-linecap="round" stroke-linejoin="round" d="m39.832 29.324 1.5149 9.5872 6.4577 20.073 0.0015-6e-4a1.46 1.46 0 0 1-2.6723 1.1667l-7.33-16.955a1.8584 1.8584 0 0 0-3.6578 0l-7.33 16.955a1.46 1.46 0 0 1-2.6724-1.1667l0.0016 6e-4 6.4577-20.073 1.5148-9.5872"/></g></svg>