<svg xmlns="http://www.w3.org/2000/svg" id="a" viewBox="0 0 72 72"><g id="b"><path fill="#d0cfce" d="M64.2949,54.96V45.7332H7.7051V54.96H13.297v-.5436a4.07,4.07,0,1,1,8.1395,0V54.96h4.2827v-.5436a4.07,4.07,0,1,1,8.1394,0V54.96h4.2828v-.5436a4.07,4.07,0,1,1,8.1394,0V54.96h4.2827v-.5436a4.07,4.07,0,1,1,8.14,0V54.96Z"/><path fill="#b1cc33" d="m56.971 36.506a3.5581 3.5581 0 0 0-3.5581-3.558h-34.826a3.5581 3.5581 0 0 0-3.5581 3.558h41.942z"/><rect width="45.75" height="9.227" x="13.125" y="36.506" fill="#d0cfce"/><path fill="#b1cc33" d="m47.657 23.722v-1.0016h-3.8121l-0.45 1.0019h-19.052a3.558 3.558 0 0 0-3.558 3.558h30.43a3.558 3.558 0 0 0-3.5582-3.5583z"/><polygon fill="#d0cfce" points="18.707 32.948 18.707 27.28 41.441 27.28 42.012 26.279 53.293 26.279 53.293 32.948"/><path fill="#b1cc33" d="m58.714 42.175h-17.24v-1.0022h-18.395v1.0022h-9.7945a3.5581 3.5581 0 0 0-3.558 3.5581h52.545a3.5581 3.5581 0 0 0-3.558-3.5581z"/></g><g id="c" fill="none" stroke="#000" stroke-linecap="round" stroke-linejoin="round" stroke-width="2"><polyline points="13.125 42.175 13.125 36.506 58.875 36.506 58.875 42.175"/><polyline points="18.707 32.948 18.707 27.28 42.012 27.28"/><path d="m31.535 18.098a6.3552 6.3552 0 0 0-7.2137 0"/><path d="m30.358 13.057a7.87 7.87 0 0 0-6.0371 5.0412"/><path d="m15.943 15.853a8.363 8.363 0 0 1 8.3786 2.2457"/><path d="m18.423 19.212a5.9185 5.9185 0 0 1 5.8986-1.1139"/><path d="m21.372 12.84c2.6979 1.0919 2.9493 5.2578 2.9493 5.2578"/><path d="m45.287 29.781a7.5552 7.5552 0 0 1 8.006-1.1138"/><path d="m47.657 23.722c4.347 0 5.6362 4.9454 5.6362 4.9454"/><path d="m61.672 26.421a8.3628 8.3628 0 0 0-8.3786 2.2458"/><path d="m59.192 29.781a5.9181 5.9181 0 0 0-5.8985-1.1138"/><path d="m56.242 23.409c-2.6979 1.0919-2.9492 5.2579-2.9492 5.2579"/><path d="m56.971 36.506a3.5581 3.5581 0 0 0-3.5581-3.558h-34.826a3.5581 3.5581 0 0 0-3.5581 3.558"/><path d="M64.2949,54.96V45.7332H7.7051V54.96H13.297v-.5436a4.07,4.07,0,1,1,8.1395,0V54.96h4.2827v-.5436a4.07,4.07,0,1,1,8.1394,0V54.96h4.2828v-.5436a4.07,4.07,0,1,1,8.1394,0V54.96h4.2827v-.5436a4.07,4.07,0,1,1,8.14,0V54.96Z"/><line x1="24.321" x2="24.321" y1="18.098" y2="32.948"/><line x1="53.293" x2="53.293" y1="28.667" y2="36.506"/><path d="m23.08 42.175h-9.7945a3.5581 3.5581 0 0 0-3.558 3.5581h52.545a3.5581 3.5581 0 0 0-3.558-3.5581h-17.24"/><path d="m38.013 42.156c-3.1938 0-5.3868 3.5776-5.3868 3.5776a11.028 11.028 0 0 0-0.06-4.9045"/><path d="m26.393 42.74a6.41 6.41 0 0 1 6.2334 2.9936"/><path d="m43.845 23.722h-19.502a3.558 3.558 0 0 0-3.558 3.558h21.227"/></g></svg>