<?xml version="1.0" encoding="UTF-8"?>
<svg id="a" viewBox="0 0 72 72" xmlns="http://www.w3.org/2000/svg"><g id="b"><rect x="27.504" y="27.245" width="16.992" height="13.25" fill="#9b9b9a"/><rect x="20.687" y="24.142" width="30.626" height="3.1025" fill="#d0cfce"/><polygon points="49.443 24.142 40.051 14.751 31.922 14.751 22.557 24.115" fill="#d0cfce"/><polygon points="53.742 42.549 53.742 56.356 18.258 56.356 18.258 42.549 20.312 40.495 51.688 40.495" fill="#d0cfce"/><polygon points="53.739 56.361 55.24 57.862 55.24 60.857 36 60.857 16.76 60.857 16.76 57.862 18.261 56.361" fill="#d0cfce"/></g><g id="c" fill="none" stroke="#000" stroke-linecap="round" stroke-linejoin="round" stroke-width="2"><rect x="20.687" y="24.142" width="30.626" height="3.1025"/><polygon points="49.443 24.142 40.051 14.751 31.922 14.751 22.557 24.115"/><line x1="21.84" x2="21.84" y1="27.245" y2="40.495"/><line x1="27.504" x2="27.504" y1="27.245" y2="40.495"/><line x1="33.168" x2="33.168" y1="27.245" y2="40.495"/><line x1="38.832" x2="38.832" y1="27.245" y2="40.495"/><line x1="44.496" x2="44.496" y1="27.245" y2="40.495"/><line x1="50.16" x2="50.16" y1="27.245" y2="40.495"/><polygon points="53.742 42.549 53.742 56.356 18.258 56.356 18.258 42.549 20.312 40.495 51.688 40.495"/><polygon points="53.739 56.361 55.24 57.862 55.24 60.857 36 60.857 16.76 60.857 16.76 57.862 18.261 56.361"/><line x1="36" x2="36" y1="11.374" y2="7.8195"/><line x1="31.922" x2="30.96" y1="14.751" y2="9.9693"/><line x1="40.051" x2="41.012" y1="14.751" y2="9.9693"/><line x1="34.012" x2="34.012" y1="12.748" y2="9.9988"/><line x1="37.988" x2="37.988" y1="9.9988" y2="12.748"/></g></svg>
