<svg xmlns="http://www.w3.org/2000/svg" id="a" viewBox="0 0 72 72"><g id="b"><path fill="#9b9b9a" d="m17.508 48.797a1 1 0 0 1-1-1v-15.749a1 1 0 0 1 2 0v15.749a1 1 0 0 1-1 1z"/><path fill="#9b9b9a" d="m25.508 48.797a1 1 0 0 1-1-1v-15.749a1 1 0 0 1 2 0v15.749a1 1 0 0 1-1 1z"/><path fill="#9b9b9a" d="m33.509 48.797a1 1 0 0 1-1-1v-15.749a1 1 0 0 1 2 0v15.749a1 1 0 0 1-1 1z"/><path fill="#9b9b9a" d="m41.509 48.797a1 1 0 0 1-1-1v-15.749a1 1 0 0 1 2 0v15.749a1 1 0 0 1-1 1z"/><path fill="#9b9b9a" d="m49.509 48.797a1 1 0 0 1-1-1v-15.749a1 1 0 0 1 2 0v15.749a1 1 0 0 1-1 1z"/><path fill="#9b9b9a" d="m57.509 48.797a1 1 0 0 1-1-1v-15.749a1 1 0 0 1 2 0v15.749a1 1 0 0 1-1 1z"/><rect width="46.109" height="3.978" x="12.946" y="28.07" fill="#d0cfce"/><rect width="48.109" height="5.582" x="11.946" y="46.797" fill="#d0cfce" rx="1"/><rect width="55.674" height="5.581" x="8.163" y="50.379" fill="#d0cfce" rx="1"/><polygon fill="#d0cfce" points="59.054 28.07 12.946 28.07 36 20.705"/></g><g id="c" fill="none" stroke="#000" stroke-linecap="round" stroke-linejoin="round" stroke-width="2"><line x1="59.054" x2="12.946" y1="47.797" y2="47.797"/><line x1="62.837" x2="9.163" y1="51.379" y2="51.379"/><line x1="66.29" x2="5.71" y1="55" y2="55"/><line x1="16" x2="16" y1="32.048" y2="47.797"/><line x1="24" x2="24" y1="32.048" y2="47.797"/><line x1="32" x2="32" y1="32.048" y2="47.797"/><line x1="40" x2="40" y1="32.048" y2="47.797"/><line x1="48" x2="48" y1="32.048" y2="47.797"/><line x1="56" x2="56" y1="32.048" y2="47.797"/><polygon points="59.054 28.07 12.946 28.07 36 20.705"/><polyline points="59.054 25.155 59.054 32.048 12.946 32.048 12.946 25.155"/><line x1="36" x2="36" y1="20.705" y2="18.386"/></g></svg>