<?xml version="1.0" encoding="UTF-8"?>
<svg id="a" viewBox="0 0 72 72" xmlns="http://www.w3.org/2000/svg"><g id="b"><path d="m17.508 48.797a1 1 0 0 1-1-1v-15.749a1 1 0 0 1 2 0v15.749a1 1 0 0 1-1 1z" fill="#9b9b9a"/><path d="m25.508 48.797a1 1 0 0 1-1-1v-15.749a1 1 0 0 1 2 0v15.749a1 1 0 0 1-1 1z" fill="#9b9b9a"/><path d="m33.509 48.797a1 1 0 0 1-1-1v-15.749a1 1 0 0 1 2 0v15.749a1 1 0 0 1-1 1z" fill="#9b9b9a"/><path d="m41.509 48.797a1 1 0 0 1-1-1v-15.749a1 1 0 0 1 2 0v15.749a1 1 0 0 1-1 1z" fill="#9b9b9a"/><path d="m49.509 48.797a1 1 0 0 1-1-1v-15.749a1 1 0 0 1 2 0v15.749a1 1 0 0 1-1 1z" fill="#9b9b9a"/><path d="m57.509 48.797a1 1 0 0 1-1-1v-15.749a1 1 0 0 1 2 0v15.749a1 1 0 0 1-1 1z" fill="#9b9b9a"/><rect x="12.946" y="28.07" width="46.109" height="3.9777" fill="#d0cfce"/><rect x="11.946" y="46.797" width="48.109" height="5.582" rx="1" fill="#d0cfce"/><rect x="8.1631" y="50.379" width="55.674" height="5.5811" rx="1" fill="#d0cfce"/><polygon points="59.054 28.07 12.946 28.07 36 20.705" fill="#d0cfce"/></g><g id="c" fill="none" stroke="#000" stroke-linecap="round" stroke-linejoin="round" stroke-width="2"><line x1="59.054" x2="12.946" y1="47.797" y2="47.797"/><line x1="62.837" x2="9.1631" y1="51.379" y2="51.379"/><line x1="66.29" x2="5.7102" y1="55" y2="55"/><line x1="16" x2="16" y1="32.048" y2="47.797"/><line x1="24" x2="24" y1="32.048" y2="47.797"/><line x1="32" x2="32" y1="32.048" y2="47.797"/><line x1="40" x2="40" y1="32.048" y2="47.797"/><line x1="48" x2="48" y1="32.048" y2="47.797"/><line x1="56" x2="56" y1="32.048" y2="47.797"/><polygon points="59.054 28.07 12.946 28.07 36 20.705"/><polyline points="59.054 25.155 59.054 32.048 12.946 32.048 12.946 25.155"/><line x1="36" x2="36" y1="20.705" y2="18.386"/></g></svg>
