<svg xmlns="http://www.w3.org/2000/svg" id="a" viewBox="0 0 72 72"><g id="b"><path fill="#d0cfce" d="M49.2629,61.3372a127.4642,127.4642,0,0,0,.0765-.3792c0-5.2217-4-13.6016-4.17-13.956-.0117-.0243-.0334-.0389-.0466-.0618a1.0905,1.0905,0,0,0-.238-.2812.9785.9785,0,0,0-.2427-.1424c-.0264-.0107-.05-.0217-.0774-.03a.9665.9665,0,0,0-.3039-.0448c-.024,0-.0462,0-.07.0015a.9412.9412,0,0,0-.1453.0031c-5.666,1.2754-11.5039-2.5733-13.7549-4.2871a.9145.9145,0,0,0-.1035-.05.9417.9417,0,0,0-.0937-.0669c-.0269-.0121-.0552-.0091-.0825-.0186a1.1815,1.1815,0,0,0-.3853-.0551,1.2356,1.2356,0,0,0-.3662.0949.9755.9755,0,0,0-.1524.0952.9646.9646,0,0,0-.1552.1364c-.0191.021-.045.0319-.0625.0548a.9539.9539,0,0,0-.05.1023.9426.9426,0,0,0-.0676.095,9.8784,9.8784,0,0,1-2.8242,3.6767,9.053,9.053,0,0,0-3.2129,3.7891c-.012.0267-.0091.0549-.0186.082a1.0011,1.0011,0,0,0-.0442.1977,1.026,1.026,0,0,0,.09.5618c.0124.0256.0127.0536.0276.0784a27.2644,27.2644,0,0,0,6.1884,6.8442c.5669.5,6.7246,5.7759,13.6123,5.7759a12.0768,12.0768,0,0,0,6.2588-1.6982.9793.9793,0,0,0,.4024-.4933Z"/><path fill="#d0cfce" d="M27.9722,36.9932a50.2276,50.2276,0,0,1-.2383,5.06.9992.9992,0,0,0,.33.8486c.0417.0376.177.1562.3933.3347.19-.3491.3154-.6143.3493-.69a.9435.9435,0,0,1,.0677-.095.9531.9531,0,0,1,.0495-.1023c.0176-.0229.0435-.0338.0625-.0548a.97.97,0,0,1,.1553-.1364.9793.9793,0,0,1,.1523-.0952,1.2377,1.2377,0,0,1,.3662-.0949,1.1805,1.1805,0,0,1,.3853.0551c.0273.0095.0557.0065.0825.0186a.9431.9431,0,0,1,.0938.0669.9228.9228,0,0,1,.1035.05c2.251,1.7138,8.0889,5.5625,13.7549,4.2871a.94.94,0,0,1,.1452-.0031c.024-.0019.0462-.0014.07-.0015a.9667.9667,0,0,1,.304.0448c.0268.0084.051.0194.0773.03a.9785.9785,0,0,1,.2427.1424.9529.9529,0,0,1,.0869.0815.9648.9648,0,0,1,.1512.2c.0131.0229.0349.0375.0466.0618.0334.07.2192.46.4905,1.0684a12.1419,12.1419,0,0,0,2.2834-1.0528,1,1,0,0,0,.458-1.1123L47.44,42.0742l-.0029-.01L47.43,42.04l-1.1778-4.5293a.9978.9978,0,0,0-.541-.6523,6.7788,6.7788,0,0,0-1.7029-.44,5.5191,5.5191,0,0,1-.634-2.6579,7.8164,7.8164,0,0,0,1.9922-2.1992,2.91,2.91,0,0,0,.3174-2.2353,3.7719,3.7719,0,0,0-2.26-2.3057,7.03,7.03,0,0,1-2.2949-1.8536,9.6587,9.6587,0,0,0,1.5049-4.7851c0-1.7607-1.44-4.3613-3.5-6.3222a11.3708,11.3708,0,0,0-8.377-3.3321c-6.9912.3467-7.1885,3.7344-7.1846,4.0381-.0371.4649-.89,11.46,1.1036,18.7012C24.96,34.6422,25.9927,36.6279,27.9722,36.9932Z"/><path d="m41.436 19.321a6.6922 6.6922 0 0 0-6.0785-2.6411c-6.9735 0.2759-6.1706 4.3511-6.1706 4.3511s-0.0281 1.3844 2.65 1.3844c2.0964 0 2.3338-1.1867 2.3338-1.1867 0.4255-1.2513 2.9571-1.0919 2.9571-1.0919s1.3779 3.8642 2.4405 4.2255 1.8675-2.4843 1.8675-2.4843 1.314-0.7393 2e-4 -2.557z"/><path d="m48.281 61.958a0.9994 0.9994 0 0 1-1-1c0-3.8027-5.7793-10.441-8.0059-12.678a1.0022 1.0022 0 0 1-0.1885-1.1465 1.017 1.017 0 0 1 1.0215-0.5518 11.83 11.83 0 0 0 3.8145-0.1045 1.0049 1.0049 0 0 1 1.1884 0.5245c0.17 0.3544 4.17 8.7343 4.17 13.956a1 1 0 0 1-1 1z"/></g><g id="c" fill="none" stroke="#000" stroke-linecap="round" stroke-linejoin="round" stroke-width="2"><path d="m37.261 20.382s2.0228 5.8346 5.7138 7.5464c2.75 1.2754 1.4944 3.1381 1.4944 3.1381a7.0382 7.0382 0 0 1-2.0657 2.1654"/><path d="m39.868 25.226a9.27 9.27 0 0 0 1.7378-4.8441c0-2.535-4.3492-8.9756-10.827-8.6547-6.2408 0.3091-6.2374 3.1187-6.2374 3.1187s-0.8983 11.202 1.0784 18.386a5.1109 5.1109 0 0 0 0.8452 1.7249"/><path d="m27.045 18.864c0.9206 4.8471 2.5111 14.954 1.6559 23.292 0 0 10.18 9.0768 18.739 4.0016l-2.184-8.3952s-2.1885-1.0335-6.14 0c0 0 6.14 0 7.3245 4.5536"/><path d="m37.261 31.29s4.66-2.43 3.2823-0.2631"/><path d="m48.346 60.994c-8.56 5.0752-18.739-4.0016-18.739-4.0016"/><path d="m48.346 60.958c0-5.0545-4.0715-13.523-4.0715-13.523"/><path d="m29.691 42.956a10.843 10.843 0 0 1-3.17 4.0914 8.0435 8.0435 0 0 0-2.8666 3.3731"/></g></svg>