<svg xmlns="http://www.w3.org/2000/svg" id="a" viewBox="0 0 72 72"><g id="b" stroke-linecap="round" stroke-linejoin="round" stroke-miterlimit="10" stroke-width="2"><path fill="#d0cfce" d="m51.098 45.979h-30.041c-5.5116 0-9.9797-4.4681-9.9797-9.9797s4.4681-9.9797 9.9797-9.9797h30.041c5.5116 0 9.9797 4.4681 9.9797 9.9797 0 5.5117-4.468 9.9797-9.9797 9.9797z"/><circle cx="20.923" cy="36" r="10.001" fill="#ea5a47"/><path fill="#ea5a47" d="m27.521 28.446c4.0892 3.7129 4.3944 10.038 0.6815 14.127s-10.038 4.3943-14.127 0.6815"/></g><g id="c" fill="none" stroke="#000" stroke-linecap="round" stroke-linejoin="round" stroke-miterlimit="10" stroke-width="2"><path d="m51.098 45.979h-30.041c-5.5116 0-9.9797-4.4681-9.9797-9.9797s4.4681-9.9797 9.9797-9.9797h30.041c5.5116 0 9.9797 4.4681 9.9797 9.9797 0 5.5117-4.468 9.9797-9.9797 9.9797z"/><circle cx="20.923" cy="36" r="10.001"/><path d="m27.521 28.446c4.0892 3.7129 4.3944 10.038 0.6815 14.127s-10.038 4.3943-14.127 0.6815"/></g></svg>