<svg xmlns="http://www.w3.org/2000/svg" id="a" version="1.1" viewBox="0 0 72 72"><g id="b"><path fill="#D0CFCE" d="m36 65.021s-3.091-5.9737-13.872-26.892c-2.1278-4.1286-4.8172-7.7062-4.8172-12.524 0-10.321 8.3671-18.688 18.688-18.688l1e-4 8.0285s-10.458 0.5199-10.458 10.397 10.459 10.756 10.459 10.756l5e-4 28.923z"/><path fill="#D0CFCE" d="m35.974 65.017s2.998-6.0172 13.872-26.892c2.0634-3.9611 4.8173-7.7062 4.8173-12.524 0-10.321-8.3671-18.688-18.688-18.688l-0.2836 8.0321s11.177 0.2666 11.008 10.735-11.009 10.418-11.009 10.418l0.2829 28.92z"/><path fill="#9B9B9A" d="m36.828 7.5469s9.7494 4.0365 11.838 15.286c2.0391 10.98-9.1666 30.167-12.167 39.833s18.191-34.667 18.191-34.667 0.4648-20.719-17.863-20.453z"/></g><g id="c" fill="none" stroke="#000" stroke-linecap="round" stroke-linejoin="round" stroke-miterlimit="10" stroke-width="2"><circle cx="36.001" cy="25.521" r="10.577"/><path d="m36 65.021s-3.091-5.9737-13.872-26.892c-2.1278-4.1286-4.8172-7.7062-4.8172-12.524 0-10.321 8.3671-18.688 18.688-18.688"/><path d="m36.002 65.017s2.998-6.0172 13.872-26.892c2.0634-3.9611 4.8173-7.7062 4.8173-12.524 0-10.321-8.3671-18.688-18.688-18.688"/></g></svg>