<svg xmlns="http://www.w3.org/2000/svg" id="a" viewBox="0 0 72 72"><g id="b" fill="none" stroke="#000" stroke-linecap="round" stroke-linejoin="round" stroke-miterlimit="10" stroke-width="2"><line x1="8.042" x2="64.042" y1="29" y2="29"/><line x1="8.042" x2="8.042" y1="26" y2="34"/><line x1="64.042" x2="64.042" y1="26" y2="34"/><line x1="36.042" x2="36.042" y1="26" y2="34"/><line x1="22.042" x2="22.042" y1="26" y2="32"/><line x1="50.042" x2="50.042" y1="26" y2="32"/><path d="m8.0085 45.905c-1.0579 0-1.9155-0.8576-1.9155-1.9155v-3.1689c0-1.0579 0.8576-1.9156 1.9155-1.9156 1.058 0 1.9156 0.8577 1.9156 1.9156v3.1689c0 1.0579-0.8576 1.9155-1.9156 1.9155z"/><path d="m61.833 40.612c0.2005-0.9798 1.0674-1.7169 2.1065-1.7169 0.5937 0 1.1313 0.2407 1.5204 0.6298 0.6053 0.6053 0.5494 1.6111-0.0185 2.2515l-3.6521 4.1187h4.3004"/><polyline points="35.121 40.412 37.059 38.96 37.059 45.96"/></g></svg>