<?xml version="1.0" encoding="UTF-8"?>
<svg id="a" viewBox="0 0 72 72" xmlns="http://www.w3.org/2000/svg"><g id="b" stroke-miterlimit="10" stroke-width="2"><path d="m12.013 16.019c0 7.5 5 13.75 5 13.75s5-6.25 5-13.75" fill="#61B2E4" stroke-linecap="round" stroke-linejoin="round"/><circle cx="17.013" cy="16.019" r="5" fill="#92D3F5"/><path d="m50.013 44.019c0 7.5 5 13.75 5 13.75s5-6.25 5-13.75" fill="#D22F27" stroke-linecap="round" stroke-linejoin="round"/><circle cx="55.013" cy="44.019" r="5" fill="#EA5A47"/></g><g id="c" fill="none" stroke="#000" stroke-miterlimit="10" stroke-width="2"><path d="m12.013 16.019c0 7.5 5 13.75 5 13.75s5-6.25 5-13.75" stroke-linecap="round" stroke-linejoin="round"/><circle cx="17.013" cy="16.019" r="5"/><path d="m50.013 44.019c0 7.5 5 13.75 5 13.75s5-6.25 5-13.75" stroke-linecap="round" stroke-linejoin="round"/><circle cx="55.013" cy="44.019" r="5"/><path d="m17 33s16 0 17 14 16 14 21 14" stroke-linecap="round" stroke-linejoin="round"/><line x1="31.971" x2="44.029" y1="21.741" y2="32.259" stroke-linecap="round" stroke-linejoin="round"/><line x1="43.548" x2="44.029" y1="25.204" y2="32.259" stroke-linecap="round" stroke-linejoin="round"/><line x1="36.974" x2="44.029" y1="32.74" y2="32.259" stroke-linecap="round" stroke-linejoin="round"/></g></svg>
