<?xml version="1.0" encoding="UTF-8"?>
<svg id="a" version="1.1" viewBox="0 0 72 72" xmlns="http://www.w3.org/2000/svg"><g id="b"><path d="m16.05 54.946c-1.6613 0-3.0081-1.3468-3.0081-3.0081v-8.862l-0.0015-3.4078c-1e-4 -0.2111 0.2466-0.326 0.4082-0.1901l3.7794 3.3007c0.1356 0.1142 0.3072 0.1768 0.4845 0.1768h23.28c1.6613 0 3.0081 1.3468 3.0081 3.0081v5.9742c0 1.6613-1.3468 3.0081-3.0081 3.0081l-24.942 1e-4z" fill="#9B9B9A"/><path d="m58.647 32.468c0.1623 0.1367 0.4103 0.0212 0.4102-0.191l-0.0014-3.2289h5e-4v-9.0304c0-1.6702-1.354-3.0242-3.0242-3.0242h-24.911c-1.6702 0-3.0242 1.354-3.0242 3.0242v6.0062c0 1.6702 1.354 3.0242 3.0242 3.0242h23.33c0.1782 0 0.3507 0.063 0.487 0.1777l3.7083 3.2422z" fill="#D0CFCE"/></g><g id="c" fill="#FCEA2B"><circle cx="13.02" cy="20.122" r="3"/><circle cx="59.08" cy="42.036" r="3"/><polygon points="7.4561 30.226 10.538 27.512 15.372 27.314 18.34 30.142 19.025 34.122 6.9435 34.114"/><polygon points="53.58 52.143 56.661 49.429 61.495 49.231 64.464 52.058 65.148 56.038 53.067 56.03"/></g><g id="d" fill="none" stroke="#000" stroke-miterlimit="10" stroke-width="2"><circle cx="13.02" cy="20.122" r="3"/><path d="m7.0196 33.122s1-4.3112 3-5.3112 4-1 6 0 3 5.3112 3 5.3112" stroke-linecap="round" stroke-linejoin="round"/><circle cx="59.08" cy="42.036" r="3"/><path d="m53.08 55.036s1-4.3112 3-5.3112 4-1 6 0 3 5.3112 3 5.3112" stroke-linecap="round" stroke-linejoin="round"/><path d="m16.05 54.946c-1.6613 0-3.0081-1.3468-3.0081-3.0081v-8.862l-0.0015-3.4078c-1e-4 -0.2111 0.2466-0.326 0.4082-0.1901l3.7794 3.3007c0.1356 0.1142 0.3072 0.1768 0.4845 0.1768h23.28c1.6613 0 3.0081 1.3468 3.0081 3.0081v5.9742c0 1.6613-1.3468 3.0081-3.0081 3.0081l-24.942 1e-4z"/><path d="m58.647 32.468c0.1623 0.1367 0.4103 0.0212 0.4102-0.191l-0.0014-3.2289h5e-4v-9.0304c0-1.6702-1.354-3.0242-3.0242-3.0242h-24.911c-1.6702 0-3.0242 1.354-3.0242 3.0242v6.0062c0 1.6702 1.354 3.0242 3.0242 3.0242h23.33c0.1782 0 0.3507 0.063 0.487 0.1777l3.7083 3.2422z"/></g></svg>
