<svg xmlns="http://www.w3.org/2000/svg" id="a" version="1.1" viewBox="0 0 72 72"><g id="b"><path fill="#D0CFCE" d="m35.67 60.98c-25.59-6.02-24.67-44.92-24.67-44.92 4.75 0.05 25-5.08 25-5.08v0.09s20.25 5.12 25 5.08c0 0 0.25 38.81-25.33 44.83z"/><path fill="#9B9B9A" d="m46.556 13.587s6.4443 30.413-10.556 46.413c0 0 16-1 22-25s0-19 0-19l-11.444-2.4126"/><polygon fill="#61B2E4" points="26.644 32.829 35.809 46.84 50.513 22.576 45.41 25.067 35.841 40.858 29.876 31.74"/></g><g id="c" fill="none" stroke="#000" stroke-linecap="round" stroke-linejoin="round" stroke-miterlimit="10" stroke-width="2"><path d="m36 10.979s-20.254 5.1291-25 5.0853c0 0-0.9167 38.894 24.667 44.915"/><path d="M35.6667,60.9792C61.25,54.9584,61,16.151,61,16.151c-4.7463,0.0437-25-5.0853-25-5.0853"/><polygon points="26.644 32.829 35.809 46.84 50.513 22.576 45.41 25.067 35.841 40.858 29.876 31.74"/></g></svg>