<?xml version="1.0" encoding="UTF-8"?>
<svg id="a" viewBox="0 0 72 72" xmlns="http://www.w3.org/2000/svg"><g id="b" fill="#FCEA2B"><circle cx="21" cy="17" r="3"/><circle cx="55.992" cy="26.324" r="3"/><circle cx="29.993" cy="47.008" r="3"/><polygon points="15.437 27.104 18.518 24.39 23.352 24.192 26.321 27.019 27.005 30.999 14.924 30.991"/><polygon points="50.491 36.43 53.573 33.716 58.407 33.518 61.375 36.345 62.06 40.325 49.978 40.318"/><polygon points="24.485 57.112 27.566 54.398 32.4 54.2 35.369 57.027 36.053 61.007 23.972 60.999"/></g><g id="c" fill="none" stroke="#000" stroke-miterlimit="10" stroke-width="2"><circle cx="21" cy="17" r="3"/><path d="M15,30c0,0,1-4.3112,3-5.3112s4-1,6,0S27,30,27,30" stroke-linecap="round" stroke-linejoin="round"/><circle cx="55.992" cy="26.324" r="3"/><path d="m49.992 39.324s1-4.3112 3-5.3112 4-1 6 0 3 5.3112 3 5.3112" stroke-linecap="round" stroke-linejoin="round"/><circle cx="29.993" cy="47.008" r="3"/><path d="m23.993 60.008s1-4.3112 3-5.3112 4-1 6 0 3 5.3112 3 5.3112" stroke-linecap="round" stroke-linejoin="round"/><path d="M52.552,20.1356C48.333,15.1588,42.0354,12,35,12c-2.7693,0-5.4243,0.4894-7.8832,1.3865" stroke-linecap="round" stroke-linejoin="round"/><path d="m39.433 57.573c8.2126-1.6036 14.861-7.5774 17.427-15.402" stroke-linecap="round" stroke-linejoin="round"/><path d="M12.0868,32.9884C12.0293,33.6513,12,34.3222,12,35c0,7.9743,4.0582,15.0008,10.2221,19.1268" stroke-linecap="round" stroke-linejoin="round"/></g></svg>
