<?xml version="1.0" encoding="UTF-8"?>
<svg id="a" viewBox="0 0 72 72" xmlns="http://www.w3.org/2000/svg"><g id="b" fill="#FCEA2B"><ellipse cx="20" cy="26.021" rx="13.8" ry="13.82" stroke="#FCEA2B" stroke-miterlimit="10" stroke-width="2"/><path d="M18.3981,39.9096C15.2441,44.248,11,46,5,46c2.874-1.916,5.748-5.6676,6.8636-8.617L18.3981,39.9096z"/><circle cx="52" cy="41.28" r="13.8" stroke="#FCEA2B" stroke-miterlimit="10" stroke-width="2"/><path d="M53.6019,55.1896C56.7559,59.528,61,61.28,67,61.28c-2.874-1.916-5.748-5.6676-6.8636-8.617 L53.6019,55.1896z"/></g><g id="c"><circle cx="13" cy="26" r="2"/><circle cx="20" cy="26" r="2"/><circle cx="27" cy="26" r="2"/><path d="M11.8636,37.383C10.748,40.3324,7.874,44.084,5,46c6,0,10.2441-1.752,13.3981-6.0904" fill="none" stroke="#000" stroke-linecap="round" stroke-linejoin="round" stroke-miterlimit="10" stroke-width="2"/><path d="M22.2749,39.8161 C28.9249,38.7295,34,32.9574,34,26c0-7.732-6.268-14-14-14S6,18.268,6,26c0,3.3337,1.1652,6.3952,3.1105,8.7995" fill="none" stroke="#000" stroke-linecap="round" stroke-miterlimit="10" stroke-width="2"/><circle cx="59" cy="41.28" r="2"/><circle cx="52" cy="41.28" r="2"/><circle cx="45" cy="41.28" r="2"/><path d="m60.136 52.663c1.1156 2.9494 3.9896 6.701 6.8636 8.617-6 0-10.244-1.752-13.398-6.0904" fill="none" stroke="#000" stroke-linecap="round" stroke-linejoin="round" stroke-miterlimit="10" stroke-width="2"/><path d="M49.7251,55.0961 C43.0751,54.0095,38,48.2374,38,41.28c0-7.732,6.268-14,14-14s14,6.268,14,14c0,3.3337-1.1652,6.3952-3.1105,8.7995" fill="none" stroke="#000" stroke-linecap="round" stroke-miterlimit="10" stroke-width="2"/></g></svg>
