<?xml version="1.0" encoding="UTF-8"?>
<svg id="a" version="1.1" viewBox="0 0 72 72" xmlns="http://www.w3.org/2000/svg"><g id="b" fill="#9B9B9A"><path d="m58.37 30.524c-5.6511-5.6511-13.458-9.1464-22.081-9.1464-8.6366 0-16.454 3.5061-22.108 9.1726l-3.813-3.7631c6.6245-6.6507 15.792-10.767 25.92-10.767 10.103 0 19.249 4.0949 25.869 10.715l-3.7881 3.7882z"/><path d="m21.916 38.286c3.7224-3.7905 8.9056-6.1416 14.638-6.1416 5.5973 0 10.671 2.2416 14.372 5.876l3.7837-3.7919c-4.6705-4.6014-11.082-7.4409-18.156-7.4409-7.2115 0-13.734 2.9506-18.426 7.7105l3.7879 3.7879z"/><path d="m43.352 45.596c-1.7623-1.6966-4.158-2.7397-6.7974-2.7397-2.7741 0-5.2791 1.1524-7.0623 3.0046l-3.8144-3.8145c2.7547-2.8372 6.6098-4.6001 10.877-4.6001 4.1307 0 7.8755 1.6522 10.61 4.3319l-3.8122 3.8178z"/><circle cx="36.289" cy="52.605" r="2.6723"/></g><g id="c" fill="none" stroke="#000" stroke-linecap="round" stroke-linejoin="round" stroke-miterlimit="10" stroke-width="2"><path d="m58.37 30.524c-5.6511-5.6511-13.458-9.1464-22.081-9.1464-8.6366 0-16.454 3.5061-22.108 9.1726l-3.813-3.7631c6.6245-6.6507 15.792-10.767 25.92-10.767 10.103 0 19.249 4.0949 25.869 10.715l-3.7881 3.7882z"/><path d="m21.916 38.286c3.7224-3.7905 8.9056-6.1416 14.638-6.1416 5.5973 0 10.671 2.2416 14.372 5.876l3.7837-3.7919c-4.6705-4.6014-11.082-7.4409-18.156-7.4409-7.2115 0-13.734 2.9506-18.426 7.7105l3.7879 3.7879z"/><path d="m43.352 45.596c-1.7623-1.6966-4.158-2.7397-6.7974-2.7397-2.7741 0-5.2791 1.1524-7.0623 3.0046l-3.8144-3.8145c2.7547-2.8372 6.6098-4.6001 10.877-4.6001 4.1307 0 7.8755 1.6522 10.61 4.3319l-3.8122 3.8178z"/><circle cx="36.289" cy="52.605" r="2.6723"/></g></svg>
