<svg xmlns="http://www.w3.org/2000/svg" id="a" version="1.1" viewBox="0 0 72 72"><g id="b"><path fill="#FCEA2B" d="m55.326 61.67c0.4702 0 0.8513-0.5583 0.8513-1.2471v-53.711c0-0.6888-0.3811-1.2471-0.8513-1.2471h-36.665c-0.4702 0-0.8513 0.5583-0.8513 1.2471v33.098l30.102 21.86h7.4136z"/><path fill="#FCEA2B" d="m55.344 60.367c0.4603 0 0.8335-0.5454 0.8335-1.2182v-52.466c0-0.6728-0.3732-1.2182-0.8335-1.2182h-35.898c-0.4603 0-0.8335 0.5454-0.8335 1.2182v53.684h36.731z"/><path fill="#FCEA2B" d="m18.613 6.6826c0-0.6728 0.3732-1.2182 0.8335-1.2182h35.898c0.4603 0 0.8335 0.5454 0.8335 1.2182v52.466c0 0.6728-0.3732 1.2182-0.8335 1.2182"/><path fill="#F1B31C" d="m51.18 66.452h-35.898c-0.4603 0-0.8335-0.5454-0.8335-1.2182v-52.466c0-0.6728 0.3732-1.2182 0.8335-1.2182h35.898c0.4603 0 0.8335 0.5454 0.8335 1.2182v52.466c0 0.6728-0.3732 1.2182-0.8335 1.2182z"/></g><g id="c" fill="none" stroke="#000" stroke-linejoin="round" stroke-width="2"><path stroke-linecap="round" stroke-miterlimit="10" d="m18.613 6.6826c0-0.6728 0.3732-1.2182 0.8335-1.2182h35.898c0.4603 0 0.8335 0.5454 0.8335 1.2182v52.466c0 0.6728-0.3732 1.2182-0.8335 1.2182"/><path stroke-linecap="round" stroke-miterlimit="10" d="m51.18 66.452h-35.898c-0.4603 0-0.8335-0.5454-0.8335-1.2182v-52.466c0-0.6728 0.3732-1.2182 0.8335-1.2182h35.898c0.4603 0 0.8335 0.5454 0.8335 1.2182v52.466c0 0.6728-0.3732 1.2182-0.8335 1.2182z"/><line x1="12.356" x2="19.628" y1="20.501" y2="20.501" stroke-linecap="round" stroke-miterlimit="10"/><line x1="12.356" x2="19.628" y1="27.864" y2="27.864" stroke-linecap="round" stroke-miterlimit="10"/><line x1="11" x2="18.272" y1="35.319" y2="35.319" stroke-linecap="round" stroke-miterlimit="10"/><line x1="18.272" x2="11" y1="42.683" y2="42.683" stroke-linecap="round" stroke-miterlimit="10"/><line x1="11" x2="18.272" y1="50.046" y2="50.046" stroke-linecap="round" stroke-miterlimit="10"/><line x1="11" x2="18.272" y1="57.41" y2="57.41" stroke-linecap="round" stroke-miterlimit="10"/><path stroke-linecap="round" d="m42.818 45.637s0-0.7431-0.3715-2.2292c-0.4499-1.8004-1.4862-2.9723-3.7154-2.9723h-8.1739c-2.2292 0-3.2653 1.172-3.7154 2.9723-0.3715 1.4862-0.3715 2.2292-0.3715 2.2292"/><path d="m30.929 33.004c0 1.3838 0.2003 2.9012 0.7431 3.7154 0.6916 1.0377 1.8642 1.4862 2.9723 1.4862 1.1502 0 2.28-0.4485 2.9723-1.4862 0.5424-0.8142 0.7431-2.3316 0.7431-3.7154 0-1.0379-0.3715-4.4585-3.7154-4.4585s-3.7154 2.7286-3.7154 4.4585z"/></g></svg>