<?xml version="1.0" encoding="UTF-8"?>
<svg id="a" version="1.1" viewBox="0 0 72 72" xmlns="http://www.w3.org/2000/svg"><g id="b"><path d="m55.625 48.824c0 11.975-7.1612 18.391-16.249 18.391s-16.617 2.2175-16.617-31.153" fill="#FCEA2B"/><line x1="55.832" x2="55.832" y1="49.886" y2="37.886" fill="none"/><path d="m48.839 37.592c0.081-1.9313 1.7123-3.4313 3.6436-3.3502s3.4313 1.7123 3.3502 3.6436" fill="#FCEA2B"/><path d="m41.842 37.359c0.081-1.9313 1.7123-3.4313 3.6436-3.3502s3.4313 1.7123 3.3502 3.6436" fill="#FCEA2B"/><path d="m41.846 37.225c0.155-1.9268 1.8426-3.3631 3.7694-3.2081s3.3631 1.8426 3.2081 3.7694" fill="#FCEA2B"/><path d="m34.805 36.881c0.1237-1.929 1.7878-3.3925 3.7168-3.2688s3.3925 1.7878 3.2688 3.7168" fill="#FCEA2B"/><path d="m23.292 46.185c-5.8672-7.6195-6.7449-10.687-5.3546-12.03s5.6942 0.7837 7.0371 2.1741" fill="#FCEA2B"/><path d="m27.805 14.509c0-1.933 1.567-3.5 3.5-3.5s3.5 1.567 3.5 3.5" fill="#FCEA2B"/><line x1="34.805" x2="34.805" y1="36.844" y2="14.509" fill="none"/><line x1="27.805" x2="27.805" y1="14.509" y2="42.299" fill="none"/><line x1="24.844" x2="22.886" y1="36.455" y2="34.242" fill="none"/><path d="m19.619 41.424c1.9526 2.1439 3.3734 5.1677 3.3013 9.5218" fill="#FCEA2B"/><line x1="17.851" x2="19.672" y1="39.104" y2="41.485" fill="none"/><polygon points="34.915 41.924 27.852 39.957 27.852 14.174 34.805 14.174" fill="#FCEA2B"/><rect x="34.915" y="36.844" width="20.921" height="12.226" fill="#FCEA2B"/><polygon points="27.805 40.065 25.149 39.07 25.658 35.884 27.822 38.814" fill="#FCEA2B"/></g><g id="c"><path d="m23.649 13.422c0-4.2718 3.463-7.7349 7.7349-7.7349s7.7349 3.463 7.7349 7.7349c0 2.6699-1.3527 5.0239-3.4102 6.4139-0.78 0.527-0.412-4.9898-1.8246-7.6565-0.8231-1.5539-3.4931-0.8244-4.0828-0.8244-1.5102 0-1.3365 9.3691-2.5272 8.6208-2.1776-1.3684-3.625-3.7921-3.625-6.5538z"/><path d="m55.816 50.774c0 9.0883-7.3675 16.456-16.456 16.456s-16.456-7.3675-16.456-16.456" fill="none" stroke="#000" stroke-linecap="round" stroke-linejoin="round" stroke-miterlimit="10" stroke-width="2"/><line x1="55.816" x2="55.816" y1="49.901" y2="37.901" fill="none" stroke="#000" stroke-linecap="round" stroke-linejoin="round" stroke-miterlimit="10" stroke-width="2"/><path d="m48.824 37.607c0.081-1.9313 1.7123-3.4313 3.6436-3.3502s3.4313 1.7123 3.3502 3.6436" fill="none" stroke="#000" stroke-linecap="round" stroke-linejoin="round" stroke-miterlimit="10" stroke-width="2"/><path d="m41.827 37.374c0.081-1.9313 1.7123-3.4313 3.6436-3.3502s3.4313 1.7123 3.3502 3.6436" fill="none" stroke="#000" stroke-linecap="round" stroke-linejoin="round" stroke-miterlimit="10" stroke-width="2"/><path d="m41.831 37.241c0.155-1.9268 1.8426-3.3631 3.7694-3.2081s3.3631 1.8426 3.2081 3.7694" fill="none" stroke="#000" stroke-linecap="round" stroke-linejoin="round" stroke-miterlimit="10" stroke-width="2"/><path d="m34.79 36.896c0.1237-1.929 1.7878-3.3925 3.7168-3.2688s3.3925 1.7878 3.2688 3.7168" fill="none" stroke="#000" stroke-linecap="round" stroke-linejoin="round" stroke-miterlimit="10" stroke-width="2"/><path d="m17.836 39.12c-1.3429-1.3904-1.3044-3.6061 0.086-4.949s3.6061-1.3044 4.949 0.086" fill="none" stroke="#000" stroke-linecap="round" stroke-linejoin="round" stroke-miterlimit="10" stroke-width="2"/><path d="m27.79 14.524c0-1.933 1.567-3.5 3.5-3.5s3.5 1.567 3.5 3.5" fill="none" stroke="#000" stroke-linecap="round" stroke-linejoin="round" stroke-miterlimit="10" stroke-width="2"/><line x1="34.79" x2="34.79" y1="36.859" y2="14.524" fill="none" stroke="#000" stroke-linecap="round" stroke-linejoin="round" stroke-miterlimit="10" stroke-width="2"/><line x1="27.79" x2="27.79" y1="14.524" y2="42.314" fill="none" stroke="#000" stroke-linecap="round" stroke-linejoin="round" stroke-miterlimit="10" stroke-width="2"/><line x1="24.829" x2="22.871" y1="36.47" y2="34.257" fill="none" stroke="#000" stroke-linecap="round" stroke-linejoin="round" stroke-miterlimit="10" stroke-width="2"/><path d="m19.603 41.44c1.9526 2.1439 3.3734 5.1677 3.3013 9.5218" fill="none" stroke="#000" stroke-linecap="round" stroke-linejoin="round" stroke-miterlimit="10" stroke-width="2"/><line x1="17.836" x2="19.657" y1="39.12" y2="41.5" fill="none" stroke="#000" stroke-linecap="round" stroke-linejoin="round" stroke-miterlimit="10" stroke-width="2"/></g></svg>
