<svg xmlns="http://www.w3.org/2000/svg" id="a" viewBox="0 0 72 72"><g id="b"><rect width="34.882" height="34.944" x="12.802" y="24.086" fill="#D0CFCE"/><rect width="34.901" height="34.786" x="24.894" y="12.081" fill="#fff"/></g><g id="c" fill="none" stroke="#000" stroke-linecap="round" stroke-linejoin="round" stroke-miterlimit="10" stroke-width="2"><path d="m46.802 51.984v7.013c0 0.55-0.45 1-1 1h-33c-0.55 0-1-0.45-1-1v-33c0-0.5523 0.4477-1 1-1h7.0819"/><path d="m58.802 46.997h-33c-0.55 0-1-0.45-1-1v-33c0-0.5523 0.4477-1 1-1h33c0.55 0 1 0.45 1 1v33c0 0.55-0.45 1-1 1z"/></g></svg>