<?xml version="1.0" encoding="UTF-8"?>
<svg id="a" viewBox="0 0 72 72" xmlns="http://www.w3.org/2000/svg"><g id="b"><path d="m58.231 54.809h-44.106c-0.8922 0-1.6222-0.73-1.6222-1.6222v-10.006c0-0.8922 0.73-1.6222 1.6222-1.6222h44.106c0.8922 0 1.6222 0.73 1.6222 1.6222v10.006c0 0.8922-0.73 1.6222-1.6222 1.6222z" fill="#D0CFCE"/><circle cx="19.017" cy="48.289" r="1.9337" fill="#92D3F5"/></g><g id="c" fill="none" stroke="#000" stroke-linecap="round" stroke-linejoin="round" stroke-miterlimit="10" stroke-width="2"><line x1="36.085" x2="36.085" y1="17.147" y2="36.016"/><line x1="42.24" x2="36.1" y1="29.895" y2="36.035"/><line x1="29.91" x2="36.05" y1="29.895" y2="36.035"/><path d="m56.896 54.978h-41.819c-1.65 0-3-1.35-3-3v-7.5762c0-1.65 1.35-3 3-3h41.819c1.65 0 3 1.35 3 3v7.5762c-1e-4 1.65-1.3501 3-3.0001 3z"/><circle cx="19.017" cy="48.289" r="2"/></g></svg>
