<svg xmlns="http://www.w3.org/2000/svg" id="a" viewBox="0 0 72 72"><g id="b"><rect width="42.498" height="42.246" x="12.854" y="16.577" fill="#fff"/><polygon fill="#F4AA41" points="32.775 39.406 37.494 37.624 34.557 34.687"/><rect width="5.352" height="31.132" x="44.82" y="9.012" fill="#A57939" transform="matrix(.7071 .7071 -.7071 .7071 31.291 -26.386)"/></g><g id="c" fill="none" stroke="#000" stroke-linecap="round" stroke-linejoin="round" stroke-miterlimit="10" stroke-width="2"><path d="m54.557 28.084v30.684c0 0.55-0.45 1-1 1h-40.388c-0.55 0-1-0.45-1-1v-40.388c0-0.5523 0.4477-1 1-1h31.023"/><path d="m38.053 37.749 21.461-21.461c0.3905-0.3905 0.3905-1.0237 0-1.4142l-2.3359-2.3359c-0.3905-0.3905-1.0237-0.3905-1.4142 0l-21.461 21.461-2.6258 6.3865 6.3759-2.6364-3.7501-3.7501"/></g></svg>