<?xml version="1.0" encoding="UTF-8"?>
<svg id="a" viewBox="0 0 72 72" xmlns="http://www.w3.org/2000/svg"><g id="b"><path d="m57.922 59.715h-43.844c-0.55 0-1-0.45-1-1v-23.533c0-0.55 0.45-1 1-1h43.844c0.55 0 1 0.45 1 1v23.533c0 0.55-0.45 1-1 1z" fill="#A57939" stroke-linecap="round" stroke-linejoin="round" stroke-miterlimit="10" stroke-width="2"/></g><g id="c" fill="none" stroke="#000" stroke-linecap="round" stroke-linejoin="round" stroke-miterlimit="10" stroke-width="2"><path d="m57.922 59.715h-43.844c-0.55 0-1-0.45-1-1v-23.533c0-0.55 0.45-1 1-1h43.844c0.55 0 1 0.45 1 1v23.533c0 0.55-0.45 1-1 1z"/><path d="m57.718 60.002h-43.355c-0.6323 0-1.1449-0.5126-1.1449-1.1449v-23.754c0-0.6323 0.5126-1.1449 1.1449-1.1449h43.355c0.6323 0 1.1449 0.5126 1.1449 1.1449v23.754c0 0.6323-0.5126 1.1449-1.1449 1.1449z"/><line x1="13.442" x2="58.809" y1="47.011" y2="47.011"/><line x1="40.028" x2="32.001" y1="38.97" y2="38.97"/><line x1="40.028" x2="32.001" y1="51.973" y2="51.973"/><line x1="36.047" x2="36.047" y1="9.1254" y2="27.995"/><line x1="42.202" x2="36.062" y1="21.874" y2="28.014"/><line x1="29.872" x2="36.012" y1="21.874" y2="28.014"/></g></svg>
