<?xml version="1.0" encoding="UTF-8"?>
<svg id="a" viewBox="0 0 72 72" xmlns="http://www.w3.org/2000/svg"><g id="b"><rect x="24" y="18" width="36" height="7" fill="#D0CFCE"/><rect x="24" y="33" width="36" height="7" fill="#D0CFCE"/><rect x="24" y="48" width="36" height="7" fill="#D0CFCE"/><rect x="12" y="48" width="7" height="7" fill="#9B9B9A"/><rect x="12" y="33" width="7" height="7" fill="#9B9B9A"/><rect x="12" y="18" width="7" height="7" fill="#9B9B9A"/></g><g id="c" fill="none" stroke="#000" stroke-linecap="round" stroke-linejoin="round" stroke-miterlimit="10" stroke-width="2"><path d="m59 25h-34c-0.5523 0-1-0.4477-1-1v-5c0-0.5523 0.4477-1 1-1h34c0.5523 0 1 0.4477 1 1v5c0 0.5523-0.4477 1-1 1z"/><path d="m59 40h-34c-0.5523 0-1-0.4477-1-1v-5c0-0.5523 0.4477-1 1-1h34c0.5523 0 1 0.4477 1 1v5c0 0.5523-0.4477 1-1 1z"/><path d="m59 55h-34c-0.5523 0-1-0.4477-1-1v-5c0-0.5523 0.4477-1 1-1h34c0.5523 0 1 0.4477 1 1v5c0 0.5523-0.4477 1-1 1z"/><path d="m18 25h-5c-0.5523 0-1-0.4477-1-1v-5c0-0.5523 0.4477-1 1-1h5c0.5523 0 1 0.4477 1 1v5c0 0.5523-0.4477 1-1 1z"/><path d="m18 40h-5c-0.5523 0-1-0.4477-1-1v-5c0-0.5523 0.4477-1 1-1h5c0.5523 0 1 0.4477 1 1v5c0 0.5523-0.4477 1-1 1z"/><path d="m18 55h-5c-0.5523 0-1-0.4477-1-1v-5c0-0.5523 0.4477-1 1-1h5c0.5523 0 1 0.4477 1 1v5c0 0.5523-0.4477 1-1 1z"/></g></svg>
