<?xml version="1.0" encoding="UTF-8"?>
<svg id="a" viewBox="0 0 72 72" xmlns="http://www.w3.org/2000/svg"><g id="b"><path d="m51.76 17h-31.607v37.65c0 4.0593 3.2907 5.6209 7.35 5.6209h16.907c4.0593 0 7.35-1.5616 7.35-5.6209v-37.65z" fill="#fff"/><polyline points="31 16 31 12 41 12 41 16" fill="#fff" stroke-linecap="round" stroke-linejoin="round" stroke-miterlimit="10" stroke-width="2"/><polygon points="51 37 51 46.517 51 57.621 48.3 60 33 60" fill="#9b9b9a"/><rect x="17" y="16" width="38" height="4" fill="#fff" stroke-linecap="round" stroke-linejoin="round" stroke-miterlimit="10" stroke-width="2"/></g><g id="c" fill="none" stroke="#000" stroke-linecap="round" stroke-linejoin="round" stroke-miterlimit="10" stroke-width="2"><polyline points="31 16 31 12 41 12 41 16"/><path d="M51,25v31c0,2.2091-1.7909,4-4,4H25c-2.2091,0-4-1.7909-4-4V25"/><rect x="17" y="16" width="38" height="4"/><line x1="41" x2="41" y1="28.25" y2="55"/><line x1="31" x2="31" y1="28.25" y2="55"/></g></svg>
