<svg xmlns="http://www.w3.org/2000/svg" id="a" viewBox="0 0 72 72"><g id="b" fill="#FCEA2B"><circle cx="36" cy="35" r="20.8"/><path d="M23.437,50.3563C22.1049,53.8785,18.4321,58.7119,15,61c7.1652,0,12.2335-2.0922,16-7.2731"/></g><g id="c"><circle cx="26" cy="35.079" r="2.857"/><circle cx="36" cy="35.079" r="2.857"/><circle cx="46" cy="35.079" r="2.857"/><path fill="none" stroke="#000" stroke-linecap="round" stroke-linejoin="round" stroke-miterlimit="10" stroke-width="2" d="M23.437,50.3563C22.1049,53.8785,18.4321,58.7119,15,61c7.1652,0,12.2335-2.0922,16-7.2731"/><path fill="none" stroke="#000" stroke-linecap="round" stroke-linejoin="round" stroke-miterlimit="10" stroke-width="2" d="M23.437,50.3563C22.1049,53.8785,18.4321,58.7119,15,61c7.1652,0,12.2335-2.0922,16-7.2731"/><path fill="none" stroke="#000" stroke-linecap="round" stroke-miterlimit="10" stroke-width="2" d="M20.4809,47.6168 C17.6795,44.1751,16,39.7837,16,35c0-11.0457,8.9543-20,20-20s20,8.9543,20,20s-8.9543,20-20,20 c-0.3703,0-0.7383-0.0101-1.1037-0.0299"/></g></svg>