<svg xmlns="http://www.w3.org/2000/svg" id="a" viewBox="0 0 72 72"><g id="b" stroke-linecap="round" stroke-linejoin="round" stroke-miterlimit="10"><polygon fill="#FCEA2B" stroke="#FCEA2B" stroke-width="1.8" points="35.25 12 46.375 23.25 46.375 62 13 62 13 12"/><polygon fill="#F1B31C" stroke="#F1B31C" stroke-width="1.8" points="15.688 62 12.625 62 46.375 62 46.375 36.625 20.938 62"/><polygon fill="#fff" stroke-width="2" points="34 49 34 54 39 54 63 30 58 25"/></g><g id="c" fill="none" stroke="#000" stroke-linecap="round" stroke-linejoin="round" stroke-miterlimit="10" stroke-width="2"><polyline points="46.375 31 46.375 23.25 35.125 23.25 35.125 12 12.625 12 12.625 62 46.375 62 46.375 52.167"/><line x1="35.125" x2="46.375" y1="12" y2="23.25"/><line x1="41" x2="18" y1="30" y2="30"/><line x1="28" x2="18" y1="24" y2="24"/><line x1="41" x2="18" y1="36" y2="36"/><line x1="28" x2="18" y1="42" y2="42"/><line x1="28" x2="18" y1="48" y2="48"/><line x1="28" x2="18" y1="54" y2="54"/><polygon points="34 49 34 54 39 54 63 30 58 25"/></g></svg>