<svg xmlns="http://www.w3.org/2000/svg" id="a" viewBox="0 0 72 72"><g id="b" fill="#D0CFCE"><polygon points="27 36 27 41 31 45 62 45 67 43 68 39 68 32 66 28 62 27 48 27 48 33 60 33 62 34 62 39 60 40 35 40 33 38 33 36"/><polygon points="45 36 45 31 41 27 10 27 5 29 4 33 4 40 6 44 10 45 24 45 24 39 12 39 10 38 10 33 12 32 37 32 39 34 39 36"/></g><g id="c" fill="none" stroke="#000" stroke-linecap="round" stroke-linejoin="round" stroke-miterlimit="10" stroke-width="2"><path d="M49.0417,27H62c3.3,0,6,2.7,6,6v6c0,3.3-2.7,6-6,6H33c-3.3,0-6-2.7-6-6v-2"/><path d="m49 33h11c1.1046 0 2 0.7374 2 1.647v2.7058c0 0.9096-0.8954 1.647-2 1.647h-25c-1.1046 0-2-0.7374-2-1.647v-0.3737"/><path d="M22.9882,45H10c-3.3,0-6-2.7-6-6v-6c0-3.3,2.7-6,6-6h29c3.3,0,6,2.7,6,6v2"/><path d="m23 39h-11c-1.1046 0-2-0.7374-2-1.647v-2.7059c0-0.9096 0.8954-1.647 2-1.647h25c1.1046 0 2 0.7374 2 1.647l1e-4 0.3454"/></g></svg>