<?xml version="1.0" encoding="UTF-8"?>
<svg id="a" viewBox="0 0 72 72" xmlns="http://www.w3.org/2000/svg"><g id="b"><path d="m36 13.2c-12.572 0-22.8 10.228-22.8 22.8 0 12.572 10.228 22.8 22.8 22.8 12.572 0 22.8-10.228 22.8-22.8 0-12.572-10.228-22.8-22.8-22.8z" fill="#FCEA2B"/><path d="m31.58 31.346c0 2.4645-2.0004 4.4626-4.4626 4.4626s-4.4626-1.9981-4.4626-4.4626c0-2.4622 2.0004-4.4626 4.4626-4.4626s4.4626 2.0004 4.4626 4.4626" fill="#fff"/><path d="m49.58 31.346c0 2.4645-2.0004 4.4626-4.4626 4.4626s-4.4626-1.9981-4.4626-4.4626c0-2.4622 2.0004-4.4626 4.4626-4.4626s4.4626 2.0004 4.4626 4.4626" fill="#fff"/></g><g id="c"><circle cx="36" cy="36" r="23" fill="none" stroke="#000" stroke-miterlimit="10" stroke-width="2"/><path d="m31.78 31.463c0 2.4645-2.0004 4.4626-4.4626 4.4626s-4.4626-1.9981-4.4626-4.4626c0-2.4622 2.0004-4.4626 4.4626-4.4626s4.4626 2.0004 4.4626 4.4626" fill="none" stroke="#000" stroke-miterlimit="10" stroke-width="2"/><path d="m29.317 31.925c0 1.1045-0.8965 2-2 2s-2-0.8955-2-2c0-1.1035 0.8965-2 2-2s2 0.8965 2 2"/><path d="m49.78 31.463c0 2.4645-2.0004 4.4626-4.4626 4.4626s-4.4626-1.9981-4.4626-4.4626c0-2.4622 2.0004-4.4626 4.4626-4.4626s4.4626 2.0004 4.4626 4.4626" fill="none" stroke="#000" stroke-miterlimit="10" stroke-width="2"/><path d="m47.317 31.925c0 1.1045-0.8965 2-2 2s-2-0.8955-2-2c0-1.1035 0.8965-2 2-2s2 0.8965 2 2"/><path d="m22.855 31c0-2.4622 2.0004-4.4626 4.4626-4.4626s4.4626 2.0004 4.4626 4.4626"/><path d="m40.855 31c0-2.4622 2.0004-4.4626 4.4626-4.4626s4.4626 2.0004 4.4626 4.4626"/><path d="M29,43c1.2841-0.6376,3.9847-1.0308,6.8421-0.9981C38.4656,42.0319,40.8318,42.4165,42,43" fill="none" stroke="#000" stroke-linecap="round" stroke-linejoin="round" stroke-miterlimit="10" stroke-width="2"/></g></svg>
