<?xml version="1.0" encoding="UTF-8"?>
<svg id="a" version="1.1" viewBox="0 0 72 72" xmlns="http://www.w3.org/2000/svg"><g id="b"><rect x="11" y="23.844" width="50" height="44.156" fill="#61B2E4"/><path d="m26.562 23.482-4.3533 4.7736 0.0855 3.9396-4.7557 1.1207 4.9233 3.8301-1.2307 3.83s4.923 0.7018 6.3015 3.45c0.094 0.1827 0.1667 0.3756 0.2166 0.5749 0.9256 3.2259 0.8665 11.149 0.8665 11.149l3.2 5.1067 5.3717 2.261 4.8387-11.821 1.4179 2.0757s0.9846 0.6627 2.1563-6.3347c0.7199 0.4804 1.7114 1.1294 2.1231 1.8907 0.9846 1.5203 0.2794-7.1338 0.2794-7.1338l-1.1717-3.1771 5.576-0.7436-1.9231-6.0785c-1.5926-3.1579-3.5919-6.0936-5.9471-8.7322l-17.975 0.0191z" fill="#92D3F5"/><polygon points="31.815 14.526 39.718 19.169 44.537 23.463 26.562 23.482" fill="#fff"/></g><g id="c" fill="none" stroke="#000" stroke-linecap="round" stroke-linejoin="round" stroke-width="2"><line x1="11" x2="61" y1="23.844" y2="23.844"/><path d="m22.462 37.146-1.2307 3.83s4.923 0.7018 6.3015 3.45c0.094 0.1827 0.1667 0.3756 0.2166 0.5749 0.9256 3.2259 0.8665 11.149 0.8665 11.149l3.2 5.1067 5.3717 2.261 4.8387-11.821 1.4179 2.0757s0.9846 0.6627 2.1563-6.3347c0.7199 0.4804 1.7114 1.1294 2.1231 1.8907 0.9846 1.5203 0.2794-7.1338 0.2794-7.1338l-1.1717-3.1771 5.576-0.7436-1.9231-6.0785c-1.5926-3.1579-3.5919-6.0936-5.9471-8.7322-3.7812-4.7068-12.721-8.9368-12.721-8.9368l-5.6537 9.9559-3.9533 3.7736 0.0855 3.9396-4.7557 1.1207 4.9233 3.8301z"/></g></svg>
