<?xml version="1.0" encoding="UTF-8"?>
<svg id="a" viewBox="0 0 72 72" xmlns="http://www.w3.org/2000/svg"><g id="b"><polygon points="66.164 22.918 66.164 49.778 36.654 49.778 36.504 49.648 36.344 49.778 5.844 49.778 5.844 22.918" fill="#fff"/><rect x="18.698" y="28.643" width="44.467" height="5.875" fill="#d0cfce"/><rect x="18.698" y="37.643" width="44.467" height="5.875" fill="#d0cfce"/><polygon points="6.998 50.569 6.998 61 9.498 61 9.498 50.687" fill="#1e50a0"/><polygon points="17.998 49.837 17.998 60.268 20.498 60.268 20.498 49.955" fill="#1e50a0"/><polygon points="49.998 49.837 49.998 60.268 52.498 60.268 52.498 49.955" fill="#1e50a0"/><polyline points="64.498 49.955 61.998 49.837 61.998 60.268" fill="#1e50a0"/><polygon points="36.654 50.569 43.414 50.569 43.414 61 29.414 61 29.414 50.569 36.344 50.569 36.504 50.464" fill="#ea5a47"/><rect x="29.414" y="16.228" width="14" height="6.69" fill="#ea5a47"/><path d="m34.151 10.992a3.8885 3.8885 0 0 1-1.4542 1.8678 1.65 1.65 0 0 1-1.4916 0.2269c-1.0111-0.4-1.3315-1.9863-0.7156-3.543s1.9348-2.4944 2.9458-2.0944 1.3315 1.986 0.7156 3.5427z" fill="#d0cfce"/><rect x="9.5618" y="34.286" width="5.2691" height="9.125" fill="#ea5a47"/><rect x="5.0131" y="22.918" width="61.948" height="3.345" fill="#ea5a47"/><rect x="5.0131" y="45.96" width="61.948" height="3.345" fill="#1e50a0"/><polygon points="17.998 50.569 17.998 61 20.498 61 20.498 50.687" fill="#1e50a0"/><polygon points="49.998 49.837 49.998 60.268 52.498 60.268 52.498 49.955" fill="#1e50a0"/><polygon points="49.998 50.569 49.998 61 52.498 61 52.498 50.687" fill="#1e50a0"/><polygon points="61.998 49.837 61.998 60.268 64.498 60.268 64.498 49.955" fill="#1e50a0"/><polygon points="61.998 50.569 61.998 61 64.498 61 64.498 50.687" fill="#1e50a0"/><polyline points="64.498 49.955 61.998 49.837 61.998 60.268" fill="#1e50a0"/></g><g id="c" fill="none" stroke="#000" stroke-linecap="round" stroke-linejoin="round"><polyline points="36.336 49.778 5.013 49.778 5.013 22.918 66.962 22.918 66.962 49.778 36.655 49.778" stroke-width="2"/><line x1="36.654" x2="36.344" y1="49.778" y2="49.778" stroke-width="2"/><polyline points="36.654 49.839 43.414 49.839 43.414 60" stroke-width="2"/><polyline points="29.414 60 29.414 49.839 36.344 49.839" stroke-width="2"/><rect x="29.414" y="16.228" width="14" height="6.69" stroke-width="2"/><path d="m34.151 10.992a3.8885 3.8885 0 0 1-1.4542 1.8678 1.65 1.65 0 0 1-1.4916 0.2269c-1.0111-0.4-1.3315-1.9863-0.7156-3.543s1.9348-2.4944 2.9458-2.0944 1.3315 1.986 0.7156 3.5427z" stroke-width="1.6"/><line x1="32.32" x2="32.32" y1="16.226" y2="13.052" stroke-width="1.6"/><polyline points="47.914 22.913 47.914 10.268 55.539 10.268" stroke-width="1.6"/><line x1="50.873" x2="50.873" y1="8.643" y2="11.768" stroke-width="1.6"/><line x1="53.873" x2="53.873" y1="8.643" y2="11.768" stroke-width="1.6"/><polyline points="19.482 22.445 19.482 17.204 15.642 17.204 15.642 11.445" stroke-width="1.6"/><polyline points="19.107 17.204 22.947 17.204 22.947 11.445" stroke-width="1.6"/><line x1="19.498" x2="19.498" y1="12.83" y2="17.487" stroke-width="1.6"/><polyline points="14.031 34.285 9.562 34.285 9.562 42.61" stroke-width="1.6"/><line x1="6.9976" x2="6.9976" y1="50.366" y2="60" stroke-width="2"/><line x1="17.998" x2="17.998" y1="49.839" y2="60" stroke-width="2"/><line x1="49.998" x2="49.998" y1="49.839" y2="60" stroke-width="2"/><line x1="61.998" x2="61.998" y1="49.839" y2="60" stroke-width="2"/><polyline points="18.733 33.718 18.733 29.188 62.462 29.188" stroke-width="1.6"/><polyline points="18.733 42.518 18.733 37.188 62.462 37.188" stroke-width="1.6"/></g></svg>
