<svg xmlns="http://www.w3.org/2000/svg" id="a" viewBox="0 0 72 72"><g id="b"><polygon fill="#fff" points="66.164 22.918 66.164 49.778 36.654 49.778 36.504 49.648 36.344 49.778 5.844 49.778 5.844 22.918"/><rect width="44.467" height="5.875" x="18.698" y="28.643" fill="#d0cfce"/><rect width="44.467" height="5.875" x="18.698" y="37.643" fill="#d0cfce"/><polygon fill="#1e50a0" points="6.998 50.569 6.998 61 9.498 61 9.498 50.687"/><polygon fill="#1e50a0" points="17.998 49.837 17.998 60.268 20.498 60.268 20.498 49.955"/><polygon fill="#1e50a0" points="49.998 49.837 49.998 60.268 52.498 60.268 52.498 49.955"/><polyline fill="#1e50a0" points="64.498 49.955 61.998 49.837 61.998 60.268"/><polygon fill="#ea5a47" points="36.654 50.569 43.414 50.569 43.414 61 29.414 61 29.414 50.569 36.344 50.569 36.504 50.464"/><rect width="14" height="6.69" x="29.414" y="16.228" fill="#ea5a47"/><path fill="#d0cfce" d="m34.151 10.992a3.8885 3.8885 0 0 1-1.4542 1.8678 1.65 1.65 0 0 1-1.4916 0.2269c-1.0111-0.4-1.3315-1.9863-0.7156-3.543s1.9348-2.4944 2.9458-2.0944 1.3315 1.986 0.7156 3.5427z"/><rect width="5.269" height="9.125" x="9.562" y="34.286" fill="#ea5a47"/><rect width="61.948" height="3.345" x="5.013" y="22.918" fill="#ea5a47"/><rect width="61.948" height="3.345" x="5.013" y="45.96" fill="#1e50a0"/><polygon fill="#1e50a0" points="17.998 50.569 17.998 61 20.498 61 20.498 50.687"/><polygon fill="#1e50a0" points="49.998 49.837 49.998 60.268 52.498 60.268 52.498 49.955"/><polygon fill="#1e50a0" points="49.998 50.569 49.998 61 52.498 61 52.498 50.687"/><polygon fill="#1e50a0" points="61.998 49.837 61.998 60.268 64.498 60.268 64.498 49.955"/><polygon fill="#1e50a0" points="61.998 50.569 61.998 61 64.498 61 64.498 50.687"/><polyline fill="#1e50a0" points="64.498 49.955 61.998 49.837 61.998 60.268"/></g><g id="c" fill="none" stroke="#000" stroke-linecap="round" stroke-linejoin="round"><polyline stroke-width="2" points="36.336 49.778 5.013 49.778 5.013 22.918 66.962 22.918 66.962 49.778 36.655 49.778"/><line x1="36.654" x2="36.344" y1="49.778" y2="49.778" stroke-width="2"/><polyline stroke-width="2" points="36.654 49.839 43.414 49.839 43.414 60"/><polyline stroke-width="2" points="29.414 60 29.414 49.839 36.344 49.839"/><rect width="14" height="6.69" x="29.414" y="16.228" stroke-width="2"/><path stroke-width="1.6" d="m34.151 10.992a3.8885 3.8885 0 0 1-1.4542 1.8678 1.65 1.65 0 0 1-1.4916 0.2269c-1.0111-0.4-1.3315-1.9863-0.7156-3.543s1.9348-2.4944 2.9458-2.0944 1.3315 1.986 0.7156 3.5427z"/><line x1="32.32" x2="32.32" y1="16.226" y2="13.052" stroke-width="1.6"/><polyline stroke-width="1.6" points="47.914 22.913 47.914 10.268 55.539 10.268"/><line x1="50.873" x2="50.873" y1="8.643" y2="11.768" stroke-width="1.6"/><line x1="53.873" x2="53.873" y1="8.643" y2="11.768" stroke-width="1.6"/><polyline stroke-width="1.6" points="19.482 22.445 19.482 17.204 15.642 17.204 15.642 11.445"/><polyline stroke-width="1.6" points="19.107 17.204 22.947 17.204 22.947 11.445"/><line x1="19.498" x2="19.498" y1="12.83" y2="17.487" stroke-width="1.6"/><polyline stroke-width="1.6" points="14.031 34.285 9.562 34.285 9.562 42.61"/><line x1="6.998" x2="6.998" y1="50.366" y2="60" stroke-width="2"/><line x1="17.998" x2="17.998" y1="49.839" y2="60" stroke-width="2"/><line x1="49.998" x2="49.998" y1="49.839" y2="60" stroke-width="2"/><line x1="61.998" x2="61.998" y1="49.839" y2="60" stroke-width="2"/><polyline stroke-width="1.6" points="18.733 33.718 18.733 29.188 62.462 29.188"/><polyline stroke-width="1.6" points="18.733 42.518 18.733 37.188 62.462 37.188"/></g></svg>