<svg xmlns="http://www.w3.org/2000/svg" id="a" viewBox="0 0 72 72"><g id="b"><path fill="#d22f27" d="M43.3128,23a4.29,4.29,0,0,0-4.4286-3.9164H32.76a4.3473,4.3473,0,0,0-4.2963,4.1314l-.8085,19.4393a1,1,0,0,1-.1234.4369l2.9945-2.0943L29.7976,63.13a1.2142,1.2142,0,0,0,.2552.8789.2474.2474,0,0,0,.1551.09c.2185,0,1.29-.3847,1.37-1.0835l2.5781-22.5781a4.2613,4.2613,0,0,1,.1716-1.1593l.74-.8052h1.6587l.6489.7458a4.3877,4.3877,0,0,1,.4218,1.25l2.625,22.5468a1.33,1.33,0,0,0,1.014,1.0815.248.248,0,0,0,.1552-.09c.1962-.2483.5-.585.4663-.9l-.9516-22.11,3.572,2.43Z"/><path fill="#fcea2b" d="M38.9326,12.58a3.0322,3.0322,0,0,1-6.0632,0,2.9474,2.9474,0,0,1,.2041-1.08h5.5631a.2881.2881,0,0,0,.0919-.01A3,3,0,0,1,38.9326,12.58Z"/><line x1="30.424" x2="32.974" y1="47.695" y2="48.062" fill="none" stroke="#fff" stroke-linecap="square" stroke-linejoin="round" stroke-width="2"/><line x1="30.424" x2="32.974" y1="50.695" y2="51.062" fill="none" stroke="#fff" stroke-linecap="square" stroke-linejoin="round" stroke-width="2"/><line x1="39.424" x2="41.974" y1="51.062" y2="50.695" fill="none" stroke="#fff" stroke-linecap="square" stroke-linejoin="round" stroke-width="2"/><line x1="39.424" x2="41.974" y1="48.062" y2="47.695" fill="none" stroke="#fff" stroke-linecap="square" stroke-linejoin="round" stroke-width="2"/><line x1="27.803" x2="30.353" y1="29.028" y2="29.395" fill="none" stroke="#fff" stroke-linecap="square" stroke-linejoin="round" stroke-width="2"/><line x1="41.6" x2="44.15" y1="29.395" y2="29.028" fill="none" stroke="#fff" stroke-linecap="square" stroke-linejoin="round" stroke-width="2"/><path fill="#a57939" d="M40.5028,8.03v5.12s-.47,1.12-1.12,0V11.11h-6.76v2.08c-.65,1.12-1.12,0-1.12,0V8.03a.7341.7341,0,0,1,.73-.73h7.54A.7341.7341,0,0,1,40.5028,8.03Z"/><rect width="2.896" height="3.842" x="37.459" y="7.083" fill="#6a462f"/><rect width=".972" height="2.979" x="39.383" y="10.625" fill="#6a462f"/></g><g id="c"><path fill="none" stroke="#000" stroke-linecap="round" stroke-linejoin="round" stroke-width="1.6" d="M40.5028,8.03v5.12s-.47,1.12-1.12,0V11.11h-6.76v2.08c-.65,1.12-1.12,0-1.12,0V8.03a.7341.7341,0,0,1,.73-.73h7.54A.7341.7341,0,0,1,40.5028,8.03Z"/><g id="d"><g id="e" fill="none" stroke="#000" stroke-linecap="round" stroke-linejoin="round" stroke-width="1.6"><g id="f"><path d="m38.973 12.08a2.97 2.97 0 1 1-5.94 0"/><path d="M40.9713,24.516s-.275,4.5-.2,6c.0686,1.3717.7744,5.4868.7744,5.4868L42.8713,62.516c.055,1.1-.575,2-1.4,2a2.076,2.076,0,0,1-1.729-1.987L37.2,40.498c-.129-1.093-.679-1.987-1.229-1.987s-1.103.894-1.229,1.987l-2.539,22.031a2.076,2.076,0,0,1-1.729,1.987c-.825,0-1.455-.9-1.4-2L30.4,36.0023c.1087-2.1733.7035-4.07.7737-5.4738.0752-1.5032-.1994-6.0125-.1994-6.0125"/><path d="m26.974 42.516 0.792-19a5.274 5.274 0 0 1 5.208-5h6"/></g><path d="m38.901 18.516a5.274 5.274 0 0 1 5.208 5l0.792 19"/></g></g></g></svg>