<?xml version="1.0" encoding="UTF-8"?>
<svg id="a" version="1.1" viewBox="0 0 72 72" xmlns="http://www.w3.org/2000/svg"><g id="b"><path d="m27.002 33.652-1.17 0.6371-3.292 1.7922c-4.9361 2.6699-6.7732 8.8359-4.1033 13.772s8.8359 6.7732 13.772 4.1033c0.0161-0.0087 0.0322-0.0174 0.0482-0.0262l18.486-10.064c6.6931-3.634 9.173-12.006 5.539-18.699s-12.006-9.173-18.699-5.539c-3.4968 1.8986-6.0031 5.215-6.8749 9.0973-0.4549 2.1054-1.8096 3.9058-3.7066 4.9262z" fill="#fff"/><path d="m33.63 29.53c0.9861-3.0417 2.3934-5.7466 5.315-7.337 6.2741-3.4371 14.45-0.0485 15.986 7.6707 0.9109 4.577-1.426 9.1944-5.5248 11.426l-0.0505 0.0275-18.487 10.064c-4.1979 2.3023-9.6756 0.0193-10.672-5.1686-0.5824-3.0334 0.9784-6.0822 3.6913-7.5591l0.0397-0.0216-0.3186-0.8327 5.8026-3.2132c0.5823-0.3225 1.0996-0.7504 1.5255-1.262l2.6922-3.7937z" fill="#EA5A47"/><circle cx="44.15" cy="31.755" r="3.629" fill="#fff"/><path d="m32.68 45.164s-2.2178-2.102-4.2685-4.1527c-1.538-1.538-2.0367-2.971-1.7578-4.0236l-14.777-14.748c-0.5738-0.5738-0.5738-1.504 0-2.0778s1.504-0.5738 2.0778 0l14.338 15.18c1.0533-0.2837 2.49 0.2136 4.0319 1.7557 2.0507 2.0507 4.1526 4.2685 4.1526 4.2685" fill="#D0CFCE"/></g><g id="c" fill="none" stroke="#000" stroke-linecap="round" stroke-linejoin="round"><g id="d" stroke-width="2"><path d="m31.779 33.897c0.7345-1.0522 1.2688-2.2308 1.5759-3.4767 1.0033-3.399 2.3861-6.4832 5.59-8.2272 5.2732-2.889 11.89-0.9562 14.779 4.317s0.9562 11.89-4.317 14.779c-0.017 0.0093-0.034 0.0186-0.051 0.0278l-18.487 10.064c-3.5147 1.9276-7.9265 0.641-9.854-2.8737-1.9276-3.5147-0.641-7.9265 2.8737-9.854 0.0132-0.0072 0.0264-0.0144 0.0397-0.0216"/><path d="m22.54 36.082c-4.9361 2.6699-6.7732 8.8359-4.1033 13.772s8.8359 6.7732 13.772 4.1033c0.0161-0.0087 0.0322-0.0174 0.0482-0.0262l18.486-10.064c6.6931-3.634 9.173-12.006 5.539-18.699s-12.006-9.173-18.699-5.539c-3.4968 1.8986-6.0031 5.215-6.8749 9.0973-0.3104 1.4627-1.0652 2.7937-2.1611 3.811"/><circle cx="44.15" cy="31.755" r="3.629"/></g><path d="m11.777 22.34c-0.5738-0.5738-0.5738-1.504 0-2.0778s1.504-0.5738 2.0778 0l14.338 15.18c1.0533-0.2837 2.49 0.2136 4.0319 1.7557 2.0507 2.0507 4.1526 4.2685 4.1526 4.2685" stroke-width="1.8"/><path d="m26.554 37.088-14.777-14.748" stroke-width="1.8"/><path d="m32.58 45.264s-2.2178-2.102-4.2685-4.1527c-1.538-1.538-2.0367-2.971-1.7578-4.0236" stroke-width="1.8"/><line x1="34.478" x2="29.499" y1="43.365" y2="38.386" stroke-width="1.8"/></g></svg>
