<?xml version="1.0" encoding="UTF-8"?>
<svg id="a" viewBox="0 0 72 72" xmlns="http://www.w3.org/2000/svg"><g id="b"><rect x="19.693" y="20.941" width="32.615" height="38.612" rx="6.7831" fill="#a57939"/><path d="m33.427 38.127c1.8065-2.92 5.8685-3.6166 5.8685-3.6166s1.1181 3.9957-0.6707 6.8386-5.8685 3.6165-5.8685 3.6165-1.1361-3.9186 0.6707-6.8385z" fill="#b1cc33"/></g><g id="c" fill="none" stroke="#000" stroke-width="2"><g stroke-linecap="round" stroke-linejoin="round"><path d="m33.645 38.054c1.8065-2.92 5.8685-3.6166 5.8685-3.6166s1.1182 3.9957-0.6706 6.8385-5.8685 3.6166-5.8685 3.6166-1.1359-3.9186 0.6706-6.8385z"/><line x1="32.1" x2="32.908" y1="46.457" y2="44.799"/></g><g stroke-miterlimit="10"><path d="m28.156 25.663c0-7.4447 3.4165-13.48 7.6309-13.48s7.6308 6.035 7.6308 13.48" stroke-linecap="round"/><rect x="19.693" y="20.941" width="32.615" height="38.612" rx="6.7831"/></g></g></svg>
