<?xml version="1.0" encoding="UTF-8"?>
<svg id="a" viewBox="0 0 72 72" xmlns="http://www.w3.org/2000/svg"><g id="b"><g id="c"><ellipse cx="35.593" cy="28.277" rx="11.281" ry="14.358" fill="#f4aa41"/></g><g id="d"><g id="e"><path d="M55.7858,58.9753A1.0255,1.0255,0,0,1,54.76,57.95V54.8732c0-4.5649-4.6149-9.0357-8.8723-9.2219-6.3636,5.1407-12.81,5.1407-19.1777,0-4.2624.1873-9.8989,4.657-9.8989,9.2219V57.95a1.0248,1.0248,0,0,1-1.0243,1.0255h-.0012" fill="#f4aa41"/></g></g><polygon points="43.887 19.363 27.689 19.363 24.731 24.335 25.638 33.685 45.938 33.685 46.896 24.619" fill="#d0cfce"/><circle cx="35.593" cy="40.578" r="5.1277" fill="#3f3f3f"/><circle cx="35.593" cy="40.578" r="1.5383" fill="#d0cfce"/><polygon points="33.889 33.75 39 33.838 43.27 19.027 38.16 18.939" fill="#fff"/><ellipse transform="translate(-13.594 47.882) rotate(-50)" cx="44.545" cy="38.517" rx="3.0863" ry="2.0608" fill="#d22f27"/><ellipse transform="translate(-18.545 26.082) rotate(-40)" cx="26.558" cy="38.517" rx="2.0608" ry="3.0863" fill="#d22f27"/></g><g id="f"><path d="m16.302 57.892v-3.0766c0-5.1217 5.1357-9.23 10.255-9.23q9.23 7.6915 18.46 0c5.1216 0 10.255 4.1082 10.255 9.23v3.0766" fill="none" stroke="#000" stroke-linecap="round" stroke-linejoin="round" stroke-width="2"/><line x1="27.689" x2="43.886" y1="18.338" y2="18.338" fill="none" stroke="#000" stroke-linecap="round" stroke-linejoin="round" stroke-width="2"/><line x1="25.638" x2="45.938" y1="33.685" y2="33.685" fill="none" stroke="#000" stroke-linecap="round" stroke-linejoin="round" stroke-width="2"/><line x1="26.558" x2="26.558" y1="45.585" y2="57.95" fill="none" stroke="#000" stroke-linecap="round" stroke-linejoin="round" stroke-width="2"/><circle cx="35.593" cy="40.578" r="5.1277" fill="none" stroke="#000" stroke-linecap="round" stroke-linejoin="round" stroke-width="2"/><ellipse transform="translate(-13.594 47.882) rotate(-50)" cx="44.545" cy="38.517" rx="3.0863" ry="2.0608" fill="none" stroke="#000" stroke-linecap="round" stroke-linejoin="round" stroke-width="2"/><ellipse transform="translate(-18.545 26.082) rotate(-40)" cx="26.558" cy="38.517" rx="2.0608" ry="3.0863" fill="none" stroke="#000" stroke-linecap="round" stroke-linejoin="round" stroke-width="2"/><path d="m26.037 35.664a17.243 17.243 0 0 1-1.5969-7.3869c0-3.369 0.9753-7.5655 3.0766-10.255a9.755 9.755 0 0 1 0.8615-0.968 10.888 10.888 0 0 1 7.3428-2.8778h0.0652a10.888 10.888 0 0 1 7.3428 2.8778 9.755 9.755 0 0 1 0.8615 0.968c2.1013 2.69 3.0766 6.8864 3.0766 10.255a17.245 17.245 0 0 1-1.5935 7.379" fill="none" stroke="#000" stroke-linecap="round" stroke-linejoin="round" stroke-width="2"/><circle cx="47.067" cy="51.558" r="2.1001"/></g></svg>
