<?xml version="1.0" encoding="UTF-8"?>
<svg id="a" viewBox="0 0 72 72" xmlns="http://www.w3.org/2000/svg"><g id="b"><polygon points="39 30 44 25 44 22 28 22 28 25 33 30" fill="#9b9b9a"/><rect x="33" y="20" width="6" height="10" fill="#d0cfce"/><path d="M39,30l7,8V57a10,10,0,0,1-20,0V38l7-8Z" fill="#9b9b9a"/><path d="M36,67A10,10,0,0,1,26,57V38l7-8h6l3,8V57c0,5.5228-2.6863,10-6,10" fill="#d0cfce"/></g><g id="c" stroke="#000" stroke-linecap="round" stroke-linejoin="round"><path d="m46 57a10 10 0 0 1-20 0" fill="none" stroke-width="2"/><polyline points="46 57 46 38 26 38 26 57" fill="none" stroke-width="2"/><rect x="33" y="20" width="6" height="10" fill="none" stroke-width="2"/><polyline points="26 38 33 30 28 25 28 22 32.972 22" fill="none" stroke-width="2"/><polyline points="46 38 39 30 44 25 44 22 39.27 22" fill="none" stroke-width="2"/><line x1="36" x2="36" y1="15" y2="5" fill="none" stroke-width="2"/><line x1="30" x2="30" y1="7" y2="18" fill="none" stroke-width="2"/><line x1="42" x2="42" y1="7" y2="18" fill="none" stroke-width="2"/><path d="M37.0062,51.8749a.76.76,0,1,1-.38-.6583A.76.76,0,0,1,37.0062,51.8749Z"/><path d="m33.206 51.875a3.0387 3.0387 0 0 1 1.52-2.6331l-1.52-2.6332a6.0777 6.0777 0 0 0-3.04 5.2663z"/><path d="m37.766 54.508a3.0441 3.0441 0 0 1-3.0405 0l-1.52 2.6331a6.0875 6.0875 0 0 0 6.081 0z"/><path d="m37.766 49.242a3.0386 3.0386 0 0 1 1.52 2.6331h3.04a6.0776 6.0776 0 0 0-3.0394-5.2663z"/></g></svg>
