<?xml version="1.0" encoding="UTF-8"?>
<svg id="a" viewBox="0 0 72 72" xmlns="http://www.w3.org/2000/svg"><g id="b"><path d="M27.1954,21.99V14.02s6.72.26,9.19-2.64c2.47,2.9,9.19,2.64,9.19,2.64v7.94l-9.07-.88Z" fill="#fff"/><polygon points="34.406 17.384 35.847 17.384 35.847 18.826 36.863 18.826 36.863 17.384 38.304 17.384 38.304 16.369 36.863 16.369 36.863 14.927 35.847 14.927 35.847 16.369 34.406 16.369" fill="#d22f27"/><path d="M17.0439,60.8806s-2.1-14.9,9.9-14.9c3.1919,2.1279,6.0264,3.7984,9.1,3.7921l.2749.1c3.0737.0063,5.9081-1.8642,9.1-3.9921,11.5646-.0346,9.509,14.9,9.74,15" fill="#fff"/><circle cx="25.01" cy="56.805" r="3" fill="#9b9b9a"/><path d="m45.473 45.868c-3.17 2.1133-5.275 3.5-9.3375 4.0886 13.062 0.4114 12.962 6.9114 13.725 10.911h5.1128s2.6144-15.002-9.5-15z" fill="#d0cfce"/></g><g id="c"><path d="m45.96 22.844-9.9942-1.593-10.791 7.3215a17.718 17.718 0 0 0-0.1966 2.641c0 7.8276 5.0765 14.173 11.339 14.173s11.339-6.3456 11.339-14.173a21.891 21.891 0 0 0-1.6951-8.3695z" fill="#fcea2b"/></g><g id="d" fill="#a57939"><path d="M31.8632,43.1l-3.17.02h-.33a13.2777,13.2777,0,0,1-2.95-.41c-.33-.08-.66-.17-.98-.28-4.15-1.5-6.52-6.3.21-16.12.52-.76,1.09-1.56,1.73-2.38h1a.8524.8524,0,0,1-.03.23.6789.6789,0,0,1-.07.2c-.02.05-.05.1-.08.16l-.02.02c-.32.6-1.2467,1.1207-1.9166,2.0307-.26.35-.4526,1.1449-.7326,1.5349.5-.19,1.3092-.5456,1.9192-.7656a14.4945,14.4945,0,0,0-.39,2.28c-.05.53-.08,1.06-.08,1.59C25.9732,36.44,28.3832,40.97,31.8632,43.1Z"/><path d="m44.253 43.02h-0.22l-3.18 0.02c3.43-2.14 5.8-6.64 5.8-11.83a15.912 15.912 0 0 0-1.53-6.89 1.0689 1.0689 0 0 1-0.1-0.39h1.22c0.64 0.83 1.23 1.63 1.75 2.4 8.6901 12.65 2.14 16.69-3.74 16.69z"/><path d="m35.39 21.46c-2.9757-1.1514-8.2326 1.36-8.2326 1.36a12.599 12.599 0 0 0-2.1274 6.2449c5.63-1.3521 12.837-7.1512 12.837-7.1512-0.354-0.209-2.0893-0.3037-2.4772-0.4537z"/></g><g id="e"><path d="M48.2278,42.6223a1,1,0,0,1-.3261-1.9453,4.466,4.466,0,0,0,3.1045-2.8877c.5957-1.9932.1142-5.9087-5.5578-13.2491a1,1,0,0,1,.18-1.4028.8264.8264,0,0,1,1.25.1717c4.9707,6.4316,7.104,11.5016,6.0436,15.0524a6.4354,6.4354,0,0,1-4.3682,4.2061A1.0038,1.0038,0,0,1,48.2278,42.6223Z"/><path d="M28.274,23.065a.841.841,0,0,1-.0334.2407.6826.6826,0,0,1-.078.2093c-.0223.0523-.3552-.2571-.3886-.1943-.0111.0105.4065-.08.3953-.07a52.7113,52.7113,0,0,0-3.5134,5.0364c-3.0615,4.7411-3.3064,7.5772-2.8277,9.1994A4.6943,4.6943,0,0,0,24.99,40.48a1.0281,1.0281,0,0,1,.6345,1.3605A1.1225,1.1225,0,0,1,24.589,42.5a1.1428,1.1428,0,0,1-.4119-.0733,6.7593,6.7593,0,0,1-4.4864-4.3851c-1.0909-3.7049,1.1244-8.9693,6.59-15.615a1.1316,1.1316,0,0,1,.8238-.4082h.0112a1.2772,1.2772,0,0,1,.4007.0523.8962.8962,0,0,1,.1782.0733.4718.4718,0,0,1,.1559.0942.9169.9169,0,0,1,.178.1779.555.555,0,0,1,.1113.1674.5225.5225,0,0,1,.0891.1989A.8306.8306,0,0,1,28.274,23.065Z"/><path d="M48.6532,31.21a16.572,16.572,0,0,1-4.62,11.81,10.5423,10.5423,0,0,1-15.34.1,16.5692,16.5692,0,0,1-4.72-11.91c0-.26.01-.52.02-.78a15.09,15.09,0,0,1,.13-1.51,16.0685,16.0685,0,0,1,.52-2.61,16.2982,16.2982,0,0,1,1.06-2.86,1,1,0,0,1,.62-.52h.01a.127.127,0,0,1,.06-.01.8025.8025,0,0,1,.3.06.2843.2843,0,0,1,.12.04c.01.01.03.02.04.03a.42.42,0,0,1,.14.09.8519.8519,0,0,1,.16.17.5372.5372,0,0,1,.1.16.5167.5167,0,0,1,.08.19.8424.8424,0,0,1,.04.27.8524.8524,0,0,1-.03.23.6789.6789,0,0,1-.07.2c-.02.05-.05.1-.08.16l-.02.02c-.32.6-2.3129,1.0664-2.3091,2.1964.0017.5016.4862,1.0156-.0909,1.2336.5-.19,1.06-.41,1.67-.63a14.4945,14.4945,0,0,0-.39,2.28c-.05.53-.08,1.06-.08,1.59,0,5.23,2.41,9.76,5.89,11.89a8.368,8.368,0,0,0,8.99-.06c3.43-2.14,5.8-6.64,5.8-11.83a15.9118,15.9118,0,0,0-1.53-6.89,7.9764,7.9764,0,0,1-.3726-1.0342,1.0183,1.0183,0,0,1,.6163-.9069c.5-.24.8391-.7107,1.1163-.0582.3951.93,1.24,3.0093,1.51,4.0093A18.0117,18.0117,0,0,1,48.6532,31.21Z"/><path d="m42.316 29.853a2 2 0 1 1-2-2 2.0007 2.0007 0 0 1 2 2z"/><path d="m34.316 29.853a2 2 0 1 1-2-2 2.0007 2.0007 0 0 1 2 2z"/><path d="m36.316 39.855a7.6524 7.6524 0 0 1-3.4472-0.8579 1 1 0 0 1 0.8945-1.7891 5.3774 5.3774 0 0 0 5.1055 0 1 1 0 1 1 0.8945 1.7891 7.6525 7.6525 0 0 1-3.4473 0.8579z"/><path d="m27.196 23.693a1 1 0 0 1-0.2856-1.9585 31.859 31.859 0 0 1 18.965 0.0039 1 1 0 1 1-0.5976 1.9082 29.909 29.909 0 0 0-17.795 0.0039 0.9919 0.9919 0 0 1-0.2866 0.0425z"/><path d="M35.5868,10.7755c.02-.01.03-.03.04-.04a.9078.9078,0,0,1,.47-.31.2663.2663,0,0,1,.12-.03.4954.4954,0,0,1,.17-.02.4678.4678,0,0,1,.17.02.2663.2663,0,0,1,.12.03.8966.8966,0,0,1,.36.19.7518.7518,0,0,1,.15.16c1.65,1.86,5.85,2.25,7.85,2.26.19,0,.36-.01.5-.01a.9781.9781,0,0,1,.73.27.9916.9916,0,0,1,.31.72v8.47a1,1,0,0,1-2,0v-7.47c-.22,0-.48-.01-.76-.03-2.04-.12-5.36-.57-7.43-2.24a4.7017,4.7017,0,0,1-.76-.72A.9943.9943,0,0,1,35.5868,10.7755Z"/><path d="M26.1968,22.4855v-8.47a1.0224,1.0224,0,0,1,.3-.72,1.0616,1.0616,0,0,1,.74-.28c.14.01.31.01.49.01,2.01,0,6.22-.38,7.86-2.25.02-.01.03-.03.04-.04a.9078.9078,0,0,1,.47-.31.2663.2663,0,0,1,.12-.03.4954.4954,0,0,1,.17-.02.4678.4678,0,0,1,.17.02.2663.2663,0,0,1,.12.03.8966.8966,0,0,1,.36.19.7518.7518,0,0,1,.15.16.9943.9943,0,0,1-.04,1.25,4.7017,4.7017,0,0,1-.76.72c-2.07,1.67-5.39,2.12-7.43,2.24-.28.02-.54.03-.76.03v7.47a1,1,0,0,1-2,0Z"/><path d="M36.8625,14.9273v1.4419h1.4419v1.0151H36.8625v1.4419h-1.015V17.3843h-1.442V16.3692h1.442V14.9273h1.015m0-1h-1.015a1,1,0,0,0-1,1v.4419h-.442a1,1,0,0,0-1,1v1.0151a1,1,0,0,0,1,1h.442v.4419a1,1,0,0,0,1,1h1.015a1,1,0,0,0,1-1v-.4419h.4419a1,1,0,0,0,1-1V16.3692a1,1,0,0,0-1-1h-.4419v-.4419a1,1,0,0,0-1-1Z"/><path d="M25.3091,30.3091a1,1,0,0,1-.9751-1.2212c.0015-.0493.0015-.1128.0025-.1885a11.5666,11.5666,0,0,1,1.9961-6.6435,1.0043,1.0043,0,0,1,.5039-.3824c.2612-.0883,6.4521-2.1626,11.6093-1.51a1,1,0,0,1,.542,1.7378c-.3095.2763-7.6372,6.7856-13.4453,8.18A.9741.9741,0,0,1,25.3091,30.3091Zm0-1h0Zm2.4893-5.6431A9.4259,9.4259,0,0,0,26.3789,27.94a37.8526,37.8526,0,0,0,9.3033-5.6914A32.7557,32.7557,0,0,0,27.7984,23.666Z"/><path d="m25.01 60.805a4 4 0 1 1 4-4 4.0043 4.0043 0 0 1-4 4zm0-6a2 2 0 1 0 2 2 2.0023 2.0023 0 0 0-2-2z"/><path d="m25.007 54.803a0.998 0.998 0 0 1-0.9615-0.7314 11.063 11.063 0 0 1 1.6079-8.42 1 1 0 0 1 1.6827 1.082 9.0452 9.0452 0 0 0-1.3619 6.8086 1.0022 1.0022 0 0 1-0.7031 1.2256 1.0272 1.0272 0 0 1-0.2641 0.0352z"/><path d="M55.1656,60.9219a.9962.9962,0,0,1-.99-1.1494c.0117-.0811,1.16-8.127-4.3134-10.877a1,1,0,1,1,.8984-1.7871c6.7793,3.4053,5.4512,12.5781,5.3916,12.9668A.9992.9992,0,0,1,55.1656,60.9219Z"/><path d="M36.2652,51.5146h-.06c-.0146-.0009-.0293,0-.0439,0s-.0274,0-.0411-.0009c-2.372-.0313-4.6733-.8282-7.6523-2.6465A1,1,0,0,1,29.51,47.16c2.685,1.6386,4.6982,2.3447,6.7148,2.3544a12.27,12.27,0,0,0,6.29-2.0986,1,1,0,0,1,1.0156,1.7227,14.37,14.37,0,0,1-7.1963,2.375C36.312,51.5146,36.29,51.5137,36.2652,51.5146Z"/><path d="M17.2871,60.9219a.9989.9989,0,0,1-.9868-.8467c-.0634-.4121-1.4677-10.1338,6.02-13.2549a1,1,0,0,1,.77,1.8457c-6.0361,2.5166-4.8252,11.0205-4.812,11.1065a.9962.9962,0,0,1-.99,1.1494Z"/><path d="M45.4624,61.8525c-.0322,0-.0654-.0019-.0986-.0048a1,1,0,0,1-.8975-1.09l.0713-.748a2.3039,2.3039,0,0,1-.667-.5059c-1.3623-1.4844-1.0146-4.8916-.9-5.7568-.0166-1.47.6474-4,3.1484-4.6651a6.102,6.102,0,0,0-1.3672-2.7529,1,1,0,1,1,1.44-1.3887,8.933,8.933,0,0,1,2.0859,4.8965,1,1,0,0,1-.9629,1.084c-2.2852.0762-2.3525,2.3945-2.3428,2.8584a1.0085,1.0085,0,0,1-.01.1631,11.4516,11.4516,0,0,0,.0185,3.3027.9745.9745,0,0,1,.8594-.3506.9988.9988,0,0,1,.9,1.09l-.1153,1.209a.9972.9972,0,0,1-.0039.1435l-.164,1.6162A1.0008,1.0008,0,0,1,45.4624,61.8525Z"/><path d="M49.5054,61.8525a1.0006,1.0006,0,0,1-.9941-.8984l-.1651-1.6162a1.0685,1.0685,0,0,1-.0039-.1475l-.1152-1.205a1,1,0,0,1,.8994-1.0909.9736.9736,0,0,1,.8613.3516,11.4551,11.4551,0,0,0,.0186-3.3037,1.0762,1.0762,0,0,1-.01-.168c.01-.459-.0576-2.7773-2.3428-2.8535a1,1,0,1,1,.0665-1.998c3.4365.1132,4.2968,3.1542,4.2773,4.8242.1143.8652.4619,4.2715-.9014,5.7558a2.2716,2.2716,0,0,1-.666.5069l.0713.747a1,1,0,0,1-.8965,1.0909C49.5718,61.8506,49.5386,61.8525,49.5054,61.8525Z"/><path d="M36.0074,60.9229a1.0016,1.0016,0,0,1-.8926-.5469L29.4571,49.2432a1,1,0,1,1,1.7832-.9063L36.898,59.47a1,1,0,0,1-.8906,1.4532Z"/><path d="m36.005 60.923a1 1 0 0 1-0.8867-1.461l5.6572-10.902a1 1 0 0 1 1.7754 0.9218l-5.6572 10.902a1 1 0 0 1-0.8887 0.5391z"/></g></svg>
