<?xml version="1.0" encoding="UTF-8"?>
<svg id="a" viewBox="0 0 72 72" xmlns="http://www.w3.org/2000/svg"><g id="b"><rect x="7.95" y="17.68" width="56.1" height="36.65" rx="4.644" ry="4.644" fill="#92d3f5" stroke-width="2.193"/><circle cx="20.74" cy="28.92" r="4.486" fill="#9b9b9a" stroke-width="2.193"/><circle cx="36.19" cy="28.92" r="4.486" fill="#d0cfce" stroke-width="2.193"/><circle cx="51.64" cy="28.92" r="4.486" fill="#d0cfce" stroke-width="2.193"/><circle cx="20.74" cy="43.46" r="4.486" fill="#d0cfce" stroke-width="2.193"/><circle cx="36.19" cy="43.46" r="4.486" fill="#d0cfce" stroke-width="2.193"/><circle cx="51.64" cy="43.46" r="4.486" fill="#d0cfce" stroke-width="2.193"/><rect x="17.76" y="25.7" width="3.575" height="6.922" fill="#d0cfce" stroke-width="2.13"/><rect x="36" y="25.57" width="3.716" height="7.145" fill="#9b9b9a" stroke-width="2.206"/><rect x="51.03" y="25.66" width="3.669" height="7.098" fill="#9b9b9a" stroke-width="2.185"/><rect x="51.03" y="39.6" width="3.622" height="7.334" fill="#9b9b9a" stroke-width="2.206"/><rect x="36" y="39.61" width="3.778" height="7.188" fill="#9b9b9a" stroke-width="2.231"/><rect x="21.34" y="39.27" width="3.669" height="7.475" fill="#9b9b9a" stroke-width="2.242"/></g><g id="c" fill="none" stroke="#000" stroke-linecap="round" stroke-linejoin="round" stroke-width="2"><rect x="9.057" y="18.4" width="53.89" height="35.2" rx="4.644" ry="4.644"/><circle cx="21.34" cy="29.2" r="4.309"/><circle cx="36.18" cy="29.2" r="4.309"/><circle cx="51.03" cy="29.2" r="4.309"/><circle cx="21.34" cy="43.16" r="4.309"/><circle cx="36.18" cy="43.16" r="4.309"/><circle cx="51.03" cy="43.16" r="4.309"/></g></svg>
