<?xml version="1.0" encoding="UTF-8"?>
<svg id="a" version="1.1" viewBox="0 0 72 72" xmlns="http://www.w3.org/2000/svg"><g id="b"><rect x="11" y="21.306" width="50" height="34.388" fill="#D0CFCE"/><polygon points="27.706 40.872 34.446 40.872 34.446 47.612 39.19 47.612 39.19 40.872 45.93 40.872 45.93 36.128 39.19 36.128 39.19 29.388 34.446 29.388 34.446 36.128 27.706 36.128" fill="#D22F27"/></g><g id="c"><polygon points="27.706 40.901 34.446 40.901 34.446 47.641 39.19 47.641 39.19 40.901 45.93 40.901 45.93 36.157 39.19 36.157 39.19 29.417 34.446 29.417 34.446 36.157 27.706 36.157" fill="none"/><path d="m18.939 18.694h2.8591c0.5127 0 0.9284 0.4157 0.9284 0.9284v1.8314c0 0.5127-0.4157 0.9284-0.9284 0.9284h-2.8591c-0.5127 0-0.9284-0.4157-0.9284-0.9284v-1.8314c0-0.5127 0.4157-0.9284 0.9284-0.9284z" fill="none"/><path d="m51.232 18.694h2.8591c0.5127 0 0.9284 0.4157 0.9284 0.9284v1.8314c0 0.5127-0.4157 0.9284-0.9284 0.9284h-2.8591c-0.5127 0-0.9284-0.4157-0.9284-0.9284v-1.8314c0-0.5127 0.4157-0.9284 0.9284-0.9284z" fill="none"/><rect x="11" y="21.335" width="50" height="34.388" fill="none" stroke="#000" stroke-linecap="round" stroke-linejoin="round" stroke-width="2"/><path d="m28.151 21.335v-2.9913c0-1.1415 0.9254-2.0669 2.0669-2.0669v0h11.564c1.1415 0 2.0669 0.9254 2.0669 2.0669v2.9913" fill="none" stroke="#000" stroke-linecap="round" stroke-linejoin="round" stroke-width="2"/><path d="m39.19 29.417v6.74h6.74v4.7442h-6.74v6.74h-4.7444v-6.74h-6.74v-4.7444h6.74v-6.74h4.7444m0-2h-4.7444c-1.1046 0-2 0.8954-2 2v4.74h-4.74c-1.1046 0-2 0.8954-2 2v4.7444c0 1.1046 0.8954 2 2 2h4.74v4.74c0 1.1046 0.8954 2 2 2h4.7444c1.1046 0 2-0.8954 2-2v-4.74h4.74c1.1046 0 2-0.8954 2-2v-4.7444c0-1.1046-0.8954-2-2-2h-4.74v-4.74c0-1.1046-0.8954-2-2-2z"/><path d="m18.939 18.694h2.8591c0.5127 0 0.9284 0.4157 0.9284 0.9284v1.8314c0 0.5127-0.4157 0.9284-0.9284 0.9284h-2.8591c-0.5127 0-0.9284-0.4157-0.9284-0.9284v-1.8314c0-0.5127 0.4157-0.9284 0.9284-0.9284z"/><path d="m51.232 18.694h2.8591c0.5127 0 0.9284 0.4157 0.9284 0.9284v1.8314c0 0.5127-0.4157 0.9284-0.9284 0.9284h-2.8591c-0.5127 0-0.9284-0.4157-0.9284-0.9284v-1.8314c0-0.5127 0.4157-0.9284 0.9284-0.9284z"/></g></svg>
