<?xml version="1.0" encoding="UTF-8"?>
<svg id="a" version="1.1" viewBox="0 0 72 72" xmlns="http://www.w3.org/2000/svg"><g id="b"><rect x="15.5" y="21.903" width="7.29" height="3.894" fill="#EA5A47"/><rect x="25.107" y="21.903" width="7.29" height="3.894" fill="#FCEA2B"/><rect x="34.714" y="21.903" width="7.29" height="3.894" fill="#B1CC33"/><rect x="15.5" y="25.797" width="40.5" height="24.3" fill="#D0CFCE"/><path d="m16.401 21.903h5.4885c0.4975 0 0.9008 0.4033 0.9008 0.9008v2.9932h-7.2901v-2.9932c0-0.4975 0.4033-0.9008 0.9008-0.9008z" fill="none"/><path d="m26.008 21.903h5.4885c0.4975 0 0.9008 0.4033 0.9008 0.9008v2.9932h-7.29v-2.9932c0-0.4975 0.4032-0.9007 0.9007-0.9008z" fill="none"/><path d="m35.615 21.903h5.4885c0.4975 0 0.9008 0.4033 0.9008 0.9008v2.9932h-7.29v-2.9932c0-0.4975 0.4032-0.9007 0.9007-0.9008z" fill="none"/><rect x="15.5" y="25.797" width="40.5" height="24.3" fill="none"/><polygon points="30.656 39.273 34.424 39.273 34.424 43.041 37.076 43.041 37.076 39.273 40.844 39.273 40.844 36.621 37.076 36.621 37.076 32.854 34.424 32.854 34.424 36.621 30.656 36.621" fill="#D22F27"/></g><g id="c"><rect x="15.5" y="21.903" width="7.29" height="3.894" fill="none"/><rect x="25.107" y="21.903" width="7.29" height="3.894" fill="none"/><rect x="34.714" y="21.903" width="7.29" height="3.894" fill="none"/><rect x="15.5" y="25.797" width="40.5" height="24.3" fill="none"/><path d="m16.401 21.903h5.4885c0.4975 0 0.9008 0.4033 0.9008 0.9008v2.9932 0h-7.2901v0-2.9932c0-0.4975 0.4033-0.9008 0.9008-0.9008z" fill="none" stroke="#000" stroke-linecap="round" stroke-linejoin="round" stroke-width="2"/><path d="m26.008 21.903h5.4885c0.4975 0 0.9008 0.4033 0.9008 0.9008v2.9932 0h-7.29v0-2.9932c0-0.4975 0.4032-0.9007 0.9007-0.9008z" fill="none" stroke="#000" stroke-linecap="round" stroke-linejoin="round" stroke-width="2"/><path d="m35.615 21.903h5.4885c0.4975 0 0.9008 0.4033 0.9008 0.9008v2.9932 0h-7.29v0-2.9932c0-0.4975 0.4032-0.9007 0.9007-0.9008z" fill="none" stroke="#000" stroke-linecap="round" stroke-linejoin="round" stroke-width="2"/><rect x="15.5" y="25.797" width="40.5" height="24.3" fill="none" stroke="#000" stroke-linecap="round" stroke-linejoin="round" stroke-width="2"/><path d="m37.076 32.853v3.7674h3.7674v2.6523h-3.7674v3.7675h-2.6522v-3.7675h-3.7674v-2.6523h3.7674v-3.7674h2.6522m0-2h-2.6522c-1.1046 0-2 0.8954-2 2v1.7674h-1.7674c-1.1046 0-2 0.8954-2 2v2.6523c0 1.1046 0.8954 2 2 2h1.7674v1.7675c0 1.1046 0.8954 2 2 2h2.6522c1.1046 0 2-0.8954 2-2v-1.7675h1.7674c1.1046 0 2-0.8954 2-2v-2.6523c0-1.1046-0.8954-2-2-2h-1.7674v-1.7674c0-1.1046-0.8954-2-2-2z"/></g></svg>
