<?xml version="1.0" encoding="UTF-8"?>
<svg id="a" version="1.1" viewBox="0 0 72 72" xmlns="http://www.w3.org/2000/svg"><g id="b"><path d="m22.25 14.307h27.5c1.8029 0 3.2644 1.4615 3.2644 3.2644v40.08c0 1.8029-1.4615 3.2644-3.2644 3.2644h-27.5c-1.8029 0-3.2644-1.4615-3.2644-3.2644v-40.08c0-1.8029 1.4615-3.2644 3.2644-3.2644z" fill="#A57939"/><rect x="23.308" y="16.564" width="25.395" height="38.93" fill="#fff"/><rect x="26.194" y="13.216" width="19.624" height="5.4611" fill="#9B9B9A"/><polygon points="26.204 24.599 28.087 24.599 28.087 26.483 29.413 26.483 29.413 24.599 31.297 24.599 31.297 23.273 29.413 23.273 29.413 21.389 28.087 21.389 28.087 23.273 26.204 23.273" fill="#D22F27"/></g><g id="c"><path d="m45.818 14.307h3.9321c1.8029 0 3.2644 1.4615 3.2644 3.2644v40.08c0 1.8029-1.4615 3.2644-3.2644 3.2644h-27.5c-1.8029 0-3.2644-1.4615-3.2644-3.2644v-40.08c0-1.8029 1.4615-3.2644 3.2644-3.2644h3.9443" fill="none" stroke="#000" stroke-linecap="round" stroke-linejoin="round" stroke-width="2"/><polyline points="45.82 16.56 48.7 16.56 48.7 55.49 23.31 55.49 23.31 16.56 26.19 16.56" fill="none" stroke="#000" stroke-linecap="round" stroke-linejoin="round" stroke-width="2"/><rect x="26.194" y="13.216" width="19.624" height="5.4611" fill="none" stroke="#000" stroke-linecap="round" stroke-linejoin="round" stroke-width="2"/><line x1="26.194" x2="31.216" y1="32.983" y2="32.983" fill="none" stroke="#000" stroke-linecap="round" stroke-linejoin="round" stroke-width="1.5"/><line x1="26.194" x2="42.75" y1="38.658" y2="38.658" fill="none" stroke="#000" stroke-linecap="round" stroke-linejoin="round" stroke-width="1.5"/><line x1="26.194" x2="39.774" y1="42.006" y2="42.006" fill="none" stroke="#000" stroke-linecap="round" stroke-linejoin="round" stroke-width="1.5"/><line x1="26.194" x2="42.75" y1="45.355" y2="45.355" fill="none" stroke="#000" stroke-linecap="round" stroke-linejoin="round" stroke-width="1.5"/><line x1="26.194" x2="39.774" y1="48.704" y2="48.704" fill="none" stroke="#000" stroke-linecap="round" stroke-linejoin="round" stroke-width="1.5"/><path d="m29.413 21.389v1.8837h1.8837v1.3261h-1.8837v1.8838h-1.3261v-1.8838h-1.8837v-1.3261h1.8837v-1.8837h1.3261m0-1h-1.3261c-0.5523 0-1 0.4477-1 1v0.8837h-0.8837c-0.5523 0-1 0.4477-1 1v1.3261c0 0.5523 0.4477 1 1 1h0.8837v0.8838c0 0.5523 0.4477 1 1 1h1.3261c0.5523 0 1-0.4477 1-1v-0.8838h0.8837c0.5523 0 1-0.4477 1-1v-1.3261c0-0.5523-0.4477-1-1-1h-0.8837v-0.8837c0-0.5523-0.4477-1-1-1z"/></g></svg>
