<svg xmlns="http://www.w3.org/2000/svg" id="a" viewBox="0 0 72 72"><g id="b"><path fill="#92d3f5" d="M40.98,32.1777v6.4111a5.5465,5.5465,0,0,1-5.63,5.4606h-.71c-3.13.4462-3,4.1706-3,4.1706H25.98s.13-3.7244-3-4.1706H21.61a5.5465,5.5465,0,0,1-5.63-5.4606V32.1777Z"/><rect width="9.36" height="4.777" x="24.018" y="48.22" fill="#d0cfce"/></g><g id="c" fill="none" stroke="#000" stroke-linecap="round" stroke-linejoin="round" stroke-width="2"><path d="m35.352 16.135h-13.739a5.6311 5.6311 0 0 0-5.6311 5.6312v16.523a5.6311 5.6311 0 0 0 5.6311 5.6308h1.3647c3.13 0.46 3 4.3 3 4.3h5.66s-0.13-3.84 3-4.3h0.7139a5.6311 5.6311 0 0 0 5.6311-5.6311v-16.523a5.6312 5.6312 0 0 0-5.6311-5.6312z"/><rect width="9.36" height="4.777" x="24.018" y="48.22"/><polyline points="28.698 52.997 28.698 60.958 28.698 65.029"/><line x1="15.983" x2="24.018" y1="36.285" y2="36.285"/><line x1="15.983" x2="21.327" y1="32.178" y2="32.178"/><line x1="15.983" x2="24.018" y1="28.07" y2="28.07"/><line x1="15.983" x2="21.327" y1="23.963" y2="23.963"/><polyline points="23.257 16 28.483 10.958 34.385 16.135"/><path d="M24.7312,9.8667a4.1726,4.1726,0,0,0,8.18,0H56V65.0293"/><path d="M40.98,32.1777v6.4111a5.5465,5.5465,0,0,1-5.63,5.4606h-.71c-3.13.4462-3,4.1706-3,4.1706H25.98s.13-3.7244-3-4.1706H21.61a5.5465,5.5465,0,0,1-5.63-5.4606V32.1777Z"/></g></svg>