<svg xmlns="http://www.w3.org/2000/svg" id="a" version="1.1" viewBox="0 0 72 72"><g id="b"><rect width="9.36" height="4.777" x="23.606" y="44.026" fill="#D0CFCE"/><path fill="#D22F27" d="m16 19.308h25.001v12.496c0 3.8273-2.5211 6.93-5.6311 6.93h-1.3647c-3.13 0.5662-3 5.2918-3 5.2918h-5.66s0.13-4.7256-3-5.2918h-0.7139c-3.11 0-5.6311-3.1026-5.6311-6.93v-12.496z"/><path fill="#D22F27" d="m51.086 20.516h1.4182c1.0506 0 1.9023 0.8517 1.9023 1.9023v7.77c0 1.0506-0.8517 1.9023-1.9023 1.9023h-1.4182c-1.0506 0-1.9023-0.8517-1.9023-1.9023v-7.77c0-1.0506 0.8517-1.9023 1.9023-1.9023z"/><path fill="#EA5A47" d="m32.006 30.836c0.1213 1.9364-1.3502 3.6045-3.2866 3.7258s-3.6045-1.3502-3.7258-3.2866c-0.0092-0.1476-0.0092-0.2957 3e-4 -0.4433 0 0-0.0384-2.5084 2.92-7.0452 0 0 0.5551-0.9414 1.1139-0.0618 2.9582 4.5367 2.9783 7.1111 2.9782 7.1111"/><path fill="#D22F27" d="m28.5 23.35c2.2571 1.8189 3.4842 7.1657 3.4842 7.1657 0 2.63-1.5478 4.0542-3.4842 4.0542 0 0 3.8568-3.1777 0-11.22"/></g><g id="c" fill="none" stroke="#000"><path stroke-linecap="round" stroke-linejoin="round" stroke-width="2" d="m28.286 49.967v3.9319 0c-0.0079 3.5364 2.5152 6.5721 5.9935 7.2108 2.5601 0.5178 5.2097 0.3777 7.7009-0.4071 3.3446-1.1536 5.3437-4.5786 4.7034-8.0581-0.1349-0.7062-0.21-1.4226-0.2243-2.1414 0.0158-2.6929 1.1733-5.2528 3.1847-7.0434 1.9826-1.8649 4.2174-4.5336 2.0371-11.369"/><path stroke-linecap="round" stroke-linejoin="round" stroke-width="2" d="m16 19.308v-1.7365c0-3.11 2.5211-5.6311 5.6311-5.6311h1e-4 13.739c3.11-1e-4 5.6311 2.521 5.6312 5.631v1e-4 1.7758"/><rect width="9.36" height="4.777" x="23.606" y="44.026" stroke-linecap="round" stroke-linejoin="round" stroke-width="2"/><path stroke-linecap="round" stroke-linejoin="round" stroke-width="2" d="m51.086 20.516h1.4182c1.0506 0 1.9023 0.8517 1.9023 1.9023v7.77c0 1.0506-0.8517 1.9023-1.9023 1.9023h-1.4182c-1.0506 0-1.9023-0.8517-1.9023-1.9023v-7.77c0-1.0506 0.8517-1.9023 1.9023-1.9023z"/><line x1="51.795" x2="51.795" y1="20.516" y2="13.913" stroke-linecap="round" stroke-linejoin="round" stroke-width="2"/><path stroke-miterlimit="10" stroke-width="2" d="m16 19.308h25.001v12.496c0 3.8273-2.5211 6.93-5.6311 6.93h-1.3647c-3.13 0.5662-3 5.2918-3 5.2918h-5.66s0.13-4.7256-3-5.2918h-0.7139c-3.11 0-5.6311-3.1026-5.6311-6.93v-12.496z"/><path stroke-linecap="round" stroke-linejoin="round" stroke-width="1.5" d="m32.006 30.836c0.1213 1.9364-1.3502 3.6045-3.2866 3.7258s-3.6045-1.3502-3.7258-3.2866c-0.0092-0.1476-0.0092-0.2957 3e-4 -0.4433 0 0-0.0384-2.5084 2.92-7.0452 0 0 0.5551-0.9414 1.1139-0.0618 2.9582 4.5367 2.9783 7.1111 2.9782 7.1111"/></g></svg>