<?xml version="1.0" encoding="UTF-8"?>
<svg id="a" viewBox="0 0 72 72" xmlns="http://www.w3.org/2000/svg"><g id="b"><path d="m47.176 59.056-2.203 0.5511a36.974 36.974 0 0 1-17.946 0l-2.203-0.5511a4.97 4.97 0 0 1-3.7639-4.8215v-30.883a5.6373 5.6373 0 0 1 5.6373-5.6373h18.605a5.6373 5.6373 0 0 1 5.6373 5.6373v30.883a4.97 4.97 0 0 1-3.7639 4.8215z" fill="#92d3f5"/><path d="m46.111 53.994-9.1737-0.5141a14.675 14.675 0 0 0-1.6435 0l-9.1737 0.5137a2.042 2.042 0 0 1-2.1411-2.0552v-28.63a2.4839 2.4839 0 0 1 2.4661-2.5014h19.341a2.4839 2.4839 0 0 1 2.4661 2.5014v28.63a2.042 2.042 0 0 1-2.1411 2.0556z" fill="#61b2e4"/><path d="m36.15 10.736a14.445 14.445 0 0 0-6.52 1.6474l1.4535 7.9938a5.6334 5.6334 0 0 0 10.134 0l1.4529-7.9938a14.445 14.445 0 0 0-6.52-1.6474z" fill="#92d3f5"/><circle cx="36.302" cy="56.56" r="1.1022" fill="#fff"/></g><g id="c" fill="none" stroke="#000"><path d="m40.718 21.797h4.4873a2.3348 2.3348 0 0 1 2.3208 2.3516v26.924a1.9256 1.9256 0 0 1-2.0124 1.9353l-8.6276-0.4858a12.878 12.878 0 0 0-1.542 0l-8.6276 0.4858a1.9256 1.9256 0 0 1-2.0124-1.9353v-26.924a2.34 2.34 0 0 1 2.3208-2.3516h4.5567" stroke-miterlimit="10" stroke-width="2"/><circle cx="36.302" cy="56.56" r="1.1022" stroke-miterlimit="10"/><path d="m36.15 10.736a14.445 14.445 0 0 0-6.52 1.6474l1.4535 7.9938a5.6334 5.6334 0 0 0 10.134 0l1.4529-7.9938a14.445 14.445 0 0 0-6.52-1.6474z" stroke-linecap="round" stroke-linejoin="round" stroke-width="2.0013"/><path d="M41.6988,17.7142h3.608A5.6376,5.6376,0,0,1,50.94,23.3474V54.236a4.9723,4.9723,0,0,1-3.7637,4.8215l-2.2057.5493a36.9,36.9,0,0,1-17.9412,0l-2.2057-.5493A4.9723,4.9723,0,0,1,21.06,54.236V23.3474a5.6376,5.6376,0,0,1,5.6332-5.6332h3.9031" stroke-linecap="round" stroke-linejoin="round" stroke-width="2.0013"/></g></svg>
