<svg xmlns="http://www.w3.org/2000/svg" id="a" viewBox="0 0 72 72"><g id="b" fill="#d22f27"><path d="m22.559 44.718c-0.5773-2.5154-2.0374-10.501 1.2395-15.72a6.6807 6.6807 0 0 1 2.559-2.33c2.4455-1.2931 7.5647-2.9953 13.658 0.7518v13.552a70.962 70.962 0 0 1-7.6985 0.6768 3.0564 3.0564 0 0 0-2.4926 1.32c-1.3449 1.9631-4.0426 5.1737-6.3169 3.3551a2.8422 2.8422 0 0 1-0.9483-1.6062z"/><path d="m40.016 27.408v13.564a14.93 14.93 0 0 0 7.7605-4.9721s2.644-2.8227 4.6357-3.3378c0 0 3.5712-1.7856-0.79-3.7429a32.771 32.771 0 0 0-11.606-1.5109z"/></g><g id="c" fill="none" stroke="#000" stroke-linecap="round" stroke-linejoin="round" stroke-width="2"><path d="m22.559 44.718c-0.5773-2.5154-2.0374-10.501 1.2395-15.72a6.6807 6.6807 0 0 1 2.559-2.33c2.4455-1.2931 7.5647-2.9953 13.658 0.7518v13.552a70.962 70.962 0 0 1-7.6985 0.6768 3.0564 3.0564 0 0 0-2.4926 1.32c-1.3449 1.9631-4.0426 5.1737-6.3169 3.3551a2.8422 2.8422 0 0 1-0.9483-1.6062z"/><path d="m40.016 27.408v13.564a14.93 14.93 0 0 0 7.7605-4.9721s2.644-2.8227 4.6357-3.3378c0 0 3.5712-1.7856-0.79-3.7429a32.771 32.771 0 0 0-11.606-1.5109z"/></g></svg>