<?xml version="1.0" encoding="UTF-8"?>
<svg id="a" version="1.1" viewBox="0 0 72 72" xmlns="http://www.w3.org/2000/svg"><g id="b"><path d="m36.813 15.513c2.5154 2.2602 5.3358 4.1559 8.3786 5.6314 0 0 8.3721 6.0465 1.7674 20.558 0 0-2.9767 13.116-21.488 13.488-1.6203 0.0202-3.2391-0.1044-4.8372-0.3721v6.2339h-4.6511v-6.792c-0.2629-0.3453-0.499-0.7102-0.7064-1.0915-2.9194-5.4055-0.9057-12.154 4.4985-15.076 1.8787-1.081 3.8853-1.9226 5.973-2.5051 1.6178-0.4154 3.0597-1.3387 4.1139-2.6342 1.1918-1.3789 1.9035-3.1075 2.0282-4.9258 0 0-0.093-4.8372 2.14-6.9767 0 0-4.44-5.3674-5.4705-8.4482h5.8237c0.3675 0.3939 1.8427 2.3728 2.4302 2.9098z" fill="#FFA7C0"/><path d="m27.062 46.636c-1.0568 0.0405-1.9908 0.6989-2.3842 1.6806-0.3227 0.8809-0.0785 1.875 2.1889 2.3285 2.9425 1.0829 6.24 0.498 8.6306-1.5307 0.3101-0.275 0.6582-0.5038 1.0336-0.6795 1.5761-0.6397 2.989-1.6243 4.1347-2.8815 0.5267-0.7065 0.3809-1.7061-0.3255-2.2328-0.0275-0.0205-0.0557-0.0401-0.0845-0.0588-1.6121-1.0951-3.7681-0.9262-5.19 0.4066 0 0-2.2455 2.6438-8.0036 2.9676z" fill="#E67A94"/></g><g id="c" fill="none" stroke="#000" stroke-linecap="round" stroke-linejoin="round" stroke-width="2"><path d="m15.983 60.958v-6.6977c-0.2629-0.3453-0.499-0.7102-0.7064-1.0915-2.9194-5.4055-0.9057-12.154 4.4985-15.076 1.8787-1.081 3.8853-1.9226 5.973-2.5051 1.6178-0.4154 3.0597-1.3387 4.1139-2.6342 1.1917-1.3789 1.9035-3.1075 2.0282-4.9257 0 0-0.093-4.8372 2.14-6.9767 0 0-5.0232-4.93-5.2093-8.093"/><path d="m34.401 12.958s3.2558 4.4651 10.791 8.186c0 0 8.3721 6.0465 1.7674 20.558 0 0-2.9767 13.116-21.488 13.488-1.6203 0.0202-3.2391-0.1044-4.8372-0.3721v6.1395"/><path d="m27.062 46.636c-1.0568 0.0405-1.9908 0.6989-2.3842 1.6806-0.3227 0.8809-0.0785 1.875 2.1889 2.3285 2.9425 1.0829 6.24 0.498 8.6306-1.5307 0.3101-0.275 0.6582-0.5038 1.0336-0.6795 1.5761-0.6397 2.989-1.6243 4.1347-2.8815 0.5267-0.7065 0.3809-1.7061-0.3255-2.2328-0.0275-0.0205-0.0557-0.0401-0.0845-0.0588-1.6121-1.0951-3.7681-0.9262-5.19 0.4066 0 0-2.2455 2.6438-8.0036 2.9676z"/></g></svg>
