<svg xmlns="http://www.w3.org/2000/svg" id="a" version="1.1" viewBox="0 0 72 72"><g id="b"><path fill="#D22F27" d="m25.942 31.266c-1.6653-1.6314-2.8128-3.7174-3.2992-5.9974-0.4464-2.2508-0.2846-4.9334 2.1864-6.5942 0 0 10.439-7.3873 19.592 0 0 0 11.081 6.8252 9.3948 24.651 0 0-0.1606 12.286-12.687 12.446 0 0-6.1828 1.5256-6.8252-8.5918 0.0609-0.9424 0.059-1.8878-0.0055-2.83-0.2494-3.8546-2.0436-7.4455-4.9764-9.9593-1.0276-0.8832-2.2367-1.9723-3.3803-3.1245z"/><path fill="#D22F27" d="m25.942 31.266c-1.6653-1.6314-2.8128-3.7174-3.2992-5.9974-0.4464-2.2508-0.2846-4.9334 2.1864-6.5942 0 0 10.439-7.3873 19.592 0 0 0 11.081 6.8252 9.3948 24.651 0 0-0.1606 12.286-12.687 12.446 0 0-6.1828 1.5256-6.8252-8.5918 0.0609-0.9424 0.059-1.8878-0.0055-2.83-0.2494-3.8546-2.0436-7.4455-4.9764-9.9593-1.0276-0.8832-2.2367-1.9723-3.3803-3.1245z"/></g><g id="c" fill="none" stroke="#000" stroke-width="2"><path stroke-miterlimit="10" d="m25.942 31.266c-1.6653-1.6314-2.8128-3.7174-3.2992-5.9974-0.4464-2.2508-0.2846-4.9334 2.1864-6.5942 0 0 10.439-7.3873 19.592 0 0 0 11.081 6.8252 9.3948 24.651 0 0-0.1606 12.286-12.687 12.446 0 0-6.1828 1.5256-6.8252-8.5918 0.0609-0.9424 0.059-1.8878-0.0055-2.83-0.2494-3.8546-2.0436-7.4455-4.9764-9.9593-1.0276-0.8832-2.2367-1.9723-3.3803-3.1245z"/><path stroke-linecap="round" stroke-linejoin="round" d="m34.987 29.073s-3.9033 1.592-7.2512 0.4347"/><path stroke-linecap="round" stroke-linejoin="round" d="m40.407 43.486s-6.9056-0.8029-9.6357-3.8141c0 0-3.3091-3.739-9.8363 0l-6.7782 2.3365"/><path stroke-linecap="round" stroke-linejoin="round" d="m36.788 33.69c-0.4326 0.3737-0.7294 0.88-0.8442 1.44-0.1346 0.6446-0.0589 1.3153 0.2161 1.9136 0.3386 0.7868 0.7848 2.5839-0.3043 5.44"/><path stroke-linecap="round" stroke-linejoin="round" d="m14.157 42.009 6.7782-2.3365s5.6207-2.2483 6.4237-5.701c0 0-0.3212-6.0223 2.0877-7.3071"/></g></svg>