<svg xmlns="http://www.w3.org/2000/svg" id="a" viewBox="0 0 72 72"><g id="b"><path fill="#fff" d="m46.355 25.522a78.453 78.453 0 0 0-20.71 0 19.993 19.993 0 0 0 0-13.463 81.964 81.964 0 0 0 20.71 0 34.84 34.84 0 0 0 0 13.463z"/><path fill="#d0cfce" d="m46.355 25.522a4.2993 4.2993 0 0 0-4.6606 0 28.096 28.096 0 0 0 0-13.463 4.4628 4.4628 0 0 0 4.6606 0q-0.2949 6.7313 0 13.463z"/><path fill="#fff" d="m50.306 61.536a65.535 65.535 0 0 0-28.611 0 75.3 75.3 0 0 0 0-31.001 68.423 68.423 0 0 0 28.611 0 132.91 132.91 0 0 0 0 31.001z"/><path fill="#d0cfce" d="m50.306 61.536q-3.0922-3.16-6.4387 0a106.84 106.84 0 0 0 0-31.001c2.0753 2.0614 4.2247 1.97 6.4387 0q-0.4083 15.501 0 31.001z"/></g><g id="c" fill="none" stroke="#000" stroke-linecap="round" stroke-linejoin="round" stroke-width="2"><path d="m46.355 25.522a78.453 78.453 0 0 0-20.71 0 19.993 19.993 0 0 0 0-13.463 81.964 81.964 0 0 0 20.71 0 34.84 34.84 0 0 0 0 13.463z"/><path d="m50.306 61.536a65.535 65.535 0 0 0-28.611 0 75.3 75.3 0 0 0 0-31.001 68.423 68.423 0 0 0 28.611 0 132.91 132.91 0 0 0 0 31.001z"/></g></svg>