<?xml version="1.0" encoding="UTF-8"?>
<svg id="a" viewBox="0 0 72 72" xmlns="http://www.w3.org/2000/svg"><g id="b"><ellipse cx="34.961" cy="25.779" rx="2.2509" ry="1.3725" fill="#fff"/></g><g id="c"><ellipse cx="35.169" cy="26.101" rx="9.5873" ry="4.6806" fill="none" stroke="#000" stroke-miterlimit="10" stroke-width="2"/><path d="m25.582 45.118c0 1.7658 4.2926 3.1908 9.5852 3.1908 5.3 0 8.1386-1.0336 10.464-2.5249" fill="none" stroke="#000" stroke-miterlimit="10" stroke-width="2"/><line x1="25.582" x2="25.582" y1="26.101" y2="45.12" fill="none" stroke="#000" stroke-miterlimit="10" stroke-width="2"/><line x1="44.759" x2="44.759" y1="27.933" y2="26.097" fill="none" stroke="#000" stroke-miterlimit="10" stroke-width="2"/><path d="m42.165 29.302s5.3488-1.7634 7.1208-3.2043v16.887a20.934 20.934 0 0 1-7.3085 4.5137" fill="none" stroke="#000" stroke-linecap="round" stroke-linejoin="round" stroke-width="2"/><ellipse cx="34.961" cy="26.097" rx="2.2509" ry="1.3725" fill="none" stroke="#000" stroke-linecap="round" stroke-linejoin="round" stroke-width="2"/><path d="m34.344 58.026a22.677 22.677 0 0 1-5.6481-44.197" fill="none" stroke="#000" stroke-linecap="round" stroke-linejoin="round" stroke-width="2"/><path d="M29.0563,17.4945l4.6293-4.14a.51.51,0,0,0-.1806-.8647l-5.8993-1.94a.51.51,0,0,0-.6585.5887l1.27,6.08A.51.51,0,0,0,29.0563,17.4945Z"/><path d="m37.656 12.766a22.677 22.677 0 0 1 5.648 44.197" fill="none" stroke="#000" stroke-linecap="round" stroke-linejoin="round" stroke-width="2"/><path d="M42.9437,53.2979l-4.6293,4.14a.51.51,0,0,0,.1806.8646l5.8993,1.94a.51.51,0,0,0,.6585-.5887l-1.27-6.08A.51.51,0,0,0,42.9437,53.2979Z"/></g></svg>
