<svg xmlns="http://www.w3.org/2000/svg" id="a" viewBox="0 0 72 72"><g id="b"><path fill="#d0cfce" d="m29.307 22.94c4.625-17.541 35.893-12.748 24.604 15.917-14.592 35.792-32.792 24.677-29.729 13"/><path fill="#9b9b9a" d="m49.888 38.806c3.6637-21.878-14.562-17.239-16.006-11.676 3.9743-15.875 24.092-9.5928 16.006 11.676z"/><path fill="#9b9b9a" d="M38.3632,30.8258c4.4385,7,8.3371,13.9079,2.3371,16.6163-1.3969.5735-2.8765.4132-4.3824,1.1735-1.5343.7223-1.8192,1.3265-3.6385,3.2848-2.5625,2.0625-5.7708-1.5465-3.9583-3.6875,3.0729-3.3958,6.4479-3.9271,4.6667-7.2083-1.2187-2.2047.4957-5.0277,4.402-3.9027"/></g><g id="c" fill="none" stroke="#000" stroke-linecap="round" stroke-linejoin="round" stroke-width="2"><path d="m30.325 22.817c4.6247-17.542 34.875-11.75 23.562 16.333-14.592 35.792-31.875 25-28.812 13.323"/><path d="M39.3034,31.1921c4.4386,7,7.3969,13.5417,1.3969,16.25-1.3969.5735-2.8765.4132-4.3824,1.1735-1.5343.7223-1.8192,1.3265-3.6385,3.2848-2.5625,2.0625-5.7708-1.5465-3.9583-3.6875,3.0729-3.3958,6.4479-3.9271,4.6667-7.2083-1.2187-2.2047-.4062-5.2812,3.5-4.1562"/><path d="m33.882 27.13c3.9744-15.875 24.833-10.258 15.24 11.118"/><polyline points="25.301 26.698 22.075 23.564 24.747 22.302 20.694 18.365"/><polyline points="11.788 42.093 16.166 41.063 15.789 43.995 21.289 42.701"/><polyline points="21.656 32.511 17.325 31.302 17.58 34.247 12.138 32.727"/></g><g id="d" fill="none" stroke="#d22f27" stroke-linecap="round" stroke-linejoin="round" stroke-width="2"><polyline points="25.301 26.698 22.075 23.564 24.747 22.302 20.694 18.365"/><polyline points="11.788 42.093 16.166 41.063 15.789 43.995 21.289 42.701"/><polyline points="21.656 32.511 17.325 31.302 17.58 34.247 12.138 32.727"/></g></svg>