<svg xmlns="http://www.w3.org/2000/svg" id="a" viewBox="0 0 72 72"><g id="b"><path id="c" fill="#d0cfce" stroke="#d0cfce" stroke-linecap="round" stroke-linejoin="round" stroke-width="2" d="M58.9318,8.7773c-2.87,6.6957-11.9928,11.43-11.9566,13.87.04,2.701,1.2377,8.168,1.4348,11a116.1177,116.1177,0,0,1,0,19.1307c-.1385,1.9079,4.45,5.4241,0,8.6087-1.1692.8368-5.7392-1.913-13.3914,0a23.0823,23.0823,0,0,1-7.26.278,1.7218,1.7218,0,0,1-.4942-3.2618c2.131-.9925,4.9607-1.8741,6.7972-2.7556,2.8229-1.355,4.5793-2.71,5.5716-4.4676a1.7154,1.7154,0,0,0,.2082-.6654c.8149-7.6618-2.4679-19.3382-4.8232-24.52a7.726,7.726,0,0,1-.9566-3.8261c0-1.9131.9566-2.87,1.9131-4.7827,2.1454-4.2908,2.7235-6.8638,3.7575-9.0221a1.92,1.92,0,0,1,1.647-.9573,50.4282,50.4282,0,0,1,14.0182.652Z"/><path fill="#fff" d="m47.031 27.514h-9.7737a2.54 2.54 0 0 0-2.54 2.54v21.492c-7.1223 0-12.896 0-12.896 5.8813 0 5.2772 5.7738 5.8813 12.896 5.8813h10.692a4.1611 4.1611 0 0 0 4.1611-4.1611v-29.093a2.54 2.54 0 0 0-2.5398-2.5397z"/><path fill="#fff" d="m26.225 52.109a14.088 14.088 0 0 0 6.1962 11.171h6.457s-6.6184-6.3452-5.8793-11.731a19.346 19.346 0 0 0-6.7739 0.5605z"/><polygon fill="#fff" points="34.717 50.807 49.57 56.039 49.57 48.156 39.351 45.084 34.717 43.691"/><polygon fill="#fff" points="49.57 39.574 42.144 45.923 34.717 43.691 49.57 31.9"/><path fill="#fff" d="m42.144 27.514 4.8337 6.4443-4.8337 3.837-7.0252-9.1068a2.5464 2.5464 0 0 1 2.1383-1.1745z"/><path fill="#fff" d="m35.946 59.83 13.625-3.79v3.1076s0.3968 4.1611-5.1477 4.1611h-5.5444z"/></g><g id="d" fill="none" stroke="#000" stroke-width="2"><g id="e" stroke-linecap="round" stroke-linejoin="round"><path d="M55.3981,8.06a50.3163,50.3163,0,0,0-14.02-.65,1.9359,1.9359,0,0,0-1.65.95c-1.03,2.16-1.61,4.74-3.75,9.03-.96,1.91-1.92,2.87-1.92,4.78a7.8233,7.8233,0,0,0,.96,3.82c.26.58.54,1.23.82,1.95v.01"/><line x1="36.898" x2="36.898" y1="31" y2="30.99"/><path d="M36.9281,61a.2769.2769,0,0,0-.09.01"/><path d="m47.558 27.56a39.767 39.767 0 0 1-0.58-4.91c-0.04-2.44 9.08-7.18 11.95-13.87"/><path d="M49.3281,60.69a.647.647,0,0,1-.09.08c0,.01,0,.01-.01.02"/><path id="f" d="M39.8012,19.2991c-1.311,1.6165-1.7026,3.5095-.9565,4.7826a2.78,2.78,0,0,0,.9565.9566"/></g><path stroke-miterlimit="10" d="m47.031 27.514h-9.7737a2.54 2.54 0 0 0-2.54 2.54v21.492c-7.1223 0-12.896 0-12.896 5.8813 0 5.2772 5.7738 5.8813 12.896 5.8813h10.692a4.1611 4.1611 0 0 0 4.1611-4.1611v-29.093a2.54 2.54 0 0 0-2.5398-2.5397z"/><path stroke-linecap="round" stroke-linejoin="round" d="m26.225 52.109a14.088 14.088 0 0 0 6.1962 11.171h6.457s-6.6184-6.3452-5.8793-11.731a19.346 19.346 0 0 0-6.7739 0.5605z"/><polygon stroke-linecap="round" stroke-linejoin="round" points="34.717 51.546 49.57 56.039 49.57 48.156 39.351 45.084 34.717 43.691"/><polygon stroke-linecap="round" stroke-linejoin="round" points="49.57 39.574 42.144 45.923 34.717 43.691 49.57 31.9"/><path stroke-linecap="round" stroke-linejoin="round" d="m42.144 27.514 4.8337 6.4443-4.8337 3.837-7.0252-9.1068a2.5464 2.5464 0 0 1 2.1383-1.1745z"/><path stroke-linecap="round" stroke-linejoin="round" d="m35.946 59.83 13.625-3.79v3.1076s0.3968 4.1611-5.1477 4.1611h-5.5444z"/><polyline stroke-linecap="round" stroke-linejoin="round" points="25.886 48.613 23.572 44.756 26.479 44.222 23.571 39.377"/><polyline stroke-linecap="round" stroke-linejoin="round" points="9.765 62.244 14.143 61.214 13.766 64.146 19.266 62.852"/><polyline stroke-linecap="round" stroke-linejoin="round" points="19.275 52.668 14.943 51.459 15.199 54.404 9.756 52.885"/></g><g id="g" fill="none" stroke="#d22f27" stroke-linecap="round" stroke-linejoin="round" stroke-width="2"><polyline points="25.886 48.613 23.572 44.756 26.479 44.222 23.571 39.377"/><polyline points="9.765 62.244 14.143 61.214 13.766 64.146 19.266 62.852"/><polyline points="19.275 52.668 14.943 51.459 15.199 54.404 9.756 52.885"/></g></svg>