<svg xmlns="http://www.w3.org/2000/svg" id="a" viewBox="0 0 72 72"><g id="b"><path fill="#d0cfce" d="m21.12 9.7472h31.305l-0.284 9.117s11.626 22.307-1.2545 41.506h-29.196s-10.588-22.864-1.4227-38.051c0 0 1.8268-2.7742 0.852-12.572z"/><path fill="#92d3f5" d="m19.56 24.012s14.316 3.031 33.984 0l1.5453 3.3616s-7.966 11.741-17.118 14.136h-3.0792s-11.302-3.9192-16.984-13.849z"/></g><g id="c" fill="none" stroke="#000" stroke-linecap="round" stroke-linejoin="round" stroke-width="2"><path d="m21.12 9.7472v9.3654a8.2241 8.2241 0 0 1-1.2136 4.3084c-2.603 4.2408-7.7481 16.491 1.7839 37.533"/><path d="m50.887 60.954s12.761-18.873 2.305-37.591a8.2459 8.2459 0 0 1-1.05-4.018v-9.5983"/><line x1="34.892" x2="34.892" y1="41.509" y2="60.954"/><line x1="37.971" x2="37.971" y1="41.509" y2="60.954"/><path d="m37.971 43.049a13.039 13.039 0 0 0 9.751 1.112"/><path d="m24.408 43.655a13.04 13.04 0 0 0 9.8138-0.0956"/><path d="m19.56 24.012s14.316 3.031 33.984 0l1.5453 3.3616s-7.966 11.741-17.118 14.136h-3.0792s-11.302-3.9192-16.984-13.849z"/><polyline points="42.396 20.826 44.379 16.789 46.405 18.941 48.896 13.869"/><polyline points="29.308 21.018 26.683 17.367 29.536 16.594 26.237 12.006"/><polyline points="36.773 19.751 37.403 15.298 34.517 15.938 35.309 10.343"/></g><g id="d" fill="none" stroke="#d22f27" stroke-linecap="round" stroke-linejoin="round" stroke-width="2"><polyline points="42.396 20.826 44.379 16.789 46.405 18.941 48.896 13.869"/><polyline points="29.308 21.018 26.683 17.367 29.536 16.594 26.237 12.006"/><polyline points="36.773 19.751 37.403 15.298 34.517 15.938 35.309 10.343"/></g></svg>