<svg xmlns="http://www.w3.org/2000/svg" id="a" version="1.1" viewBox="0 0 72 72"><g id="b"><path id="c" fill="#fff" d="m38.137 39.97c-0.6467-0.3526-1.4121-0.4164-2.1082-0.1756l0.0012-2e-3c-1.7358 0.219-2.14-2.6337-3.04-3.649-0.693-0.7657-1.713-1.1496-2.7389-1.0309-1.9186 0.2874-2.6773 2.6665-2.778 2.9822-0.2995 0.973-0.3027 2.0131-0.0093 2.988 0.2686 0.9195 0.2107 1.9036-0.164 2.7852-2.1602 4.7734-5.4337 8.9592-9.5459 12.206-1.2173-0.0531-2.4207 0.2755-3.442 0.94-0.6667 0.4385-1.9653 1.2924-2.014 2.7091 0.0331 0.8798 0.4422 1.7031 1.1233 2.261 0.6485 0.3531 1.4158 0.4165 2.1135 0.1747l-0.0065 0.0028c1.7357-0.219 2.14 2.6335 3.04 3.6491 0.6931 0.7656 1.7131 1.1496 2.739 1.0309 1.9185-0.2874 2.6773-2.6666 2.778-2.9823 0.2995-0.973 0.3027-2.0131 0.0092-2.9879-0.1974-0.6259-0.1954-1.2978 0.0058-1.9225l0.2113-0.0779 4.9385-8.025 0.1924-0.3138c1.2792-1.7001 2.7263-3.2671 4.3194-4.6774 1.2285 0.0661 2.4469-0.2538 3.4845-0.9149 0.6666-0.4385 1.9653-1.2924 2.0139-2.7092-0.0332-0.8797-0.4422-1.7029-1.1232-2.2607z"/><polyline fill="none" stroke="#FFA7C0" stroke-linecap="round" stroke-miterlimit="10" stroke-width="3" points="31.609 33.708 33.468 34.565 35.868 37.609 36.913 38.194 38.739 38.565"/><path id="d" fill="#D0CFCE" d="m18.023 64.478c-0.5407 0.8567 1.2488 3.7588 4.8863 1.6168 0.806-0.4746 1.0569-2.2655 1.5914-3.3343 0.2748-0.55-0.766-3.1452-0.4808-3.7338 2.4377-4.8947 5.7378-9.3098 9.7419-13.034 1.2285 0.0661 2.4469-0.2538 3.4844-0.915 0.6667-0.4384 1.9653-1.2923 2.014-2.7091-0.0332-0.8798-0.4422-1.703-1.1233-2.2609-1.1846-1.0667-2.21-0.5683-2.3036-0.3953 0 0 0.6448 1.2469-1.0633 3.0234-4.051 4.2127-10.838 12.978-14.127 19.684-1.4962 3.0505-2.6202 2.0584-2.6202 2.0584z"/><path id="e" fill="#fff" d="m56.077 9.8777c-0.6467-0.3526-1.4121-0.4164-2.1082-0.1757l0.0011-2e-3c-1.7358 0.219-2.14-2.6337-3.04-3.6491-0.6931-0.7657-1.7132-1.1497-2.7392-1.0309-1.9186 0.2873-2.6773 2.6665-2.778 2.9822-0.2995 0.973-0.3027 2.0131-0.0093 2.9879 0.2686 0.9195 0.2107 1.9036-0.164 2.7852-2.16 4.7736-5.4334 8.9595-9.5455 12.207-1.2173-0.0531-2.4207 0.2755-3.442 0.94-0.6667 0.4385-1.9653 1.2925-2.014 2.7092 0.0331 0.8798 0.4422 1.7031 1.1233 2.2609 0.6485 0.3531 1.4158 0.4165 2.1135 0.1747l-0.0065 0.0029c1.7357-0.219 2.1395 2.6334 3.04 3.649 0.693 0.7657 1.7131 1.1496 2.739 1.0309 1.9185-0.2874 2.6773-2.6665 2.778-2.9822 0.2995-0.973 0.3027-2.0132 0.0092-2.988-0.1974-0.6259-0.1954-1.2977 0.0057-1.9224l0.2114-0.0779 4.9384-8.0251 0.1924-0.3137c1.2792-1.7001 2.7263-3.2671 4.3194-4.6774 1.2285 0.0661 2.4469-0.2538 3.4844-0.915 0.6667-0.4384 1.9654-1.2924 2.014-2.7091-0.0331-0.8798-0.442-1.7031-1.1231-2.261z"/><path id="f" fill="#D0CFCE" d="m35.963 34.386c-0.5407 0.8567 1.2488 3.7587 4.8863 1.6168 0.806-0.4747 1.0569-2.2655 1.5914-3.3343 0.2748-0.55-0.766-3.1453-0.4808-3.7338 2.4377-4.8947 5.7378-9.3099 9.7419-13.034 1.2285 0.0662 2.4469-0.2537 3.4844-0.9149 0.6667-0.4384 1.9653-1.2924 2.014-2.7091-0.0332-0.8798-0.4422-1.7031-1.1233-2.261-1.1846-1.0666-2.21-0.5683-2.3036-0.3952 0 0 0.6448 1.2469-1.0633 3.0233-4.051 4.2127-10.838 12.978-14.127 19.683-1.4962 3.0507-2.6202 2.0586-2.6202 2.0586z"/></g><g id="g" fill="none" stroke="#000" stroke-linecap="round" stroke-linejoin="round" stroke-width="2"><path id="h" d="m50.226 10.082c0.6267 1.0969 4.6661-1.1327 5.8507-0.0661 0.681 0.558 1.0898 1.3813 1.1229 2.2611-0.0489 1.4169-1.3473 2.2707-2.014 2.7091-1.0375 0.6612-2.2559 0.9811-3.4844 0.915-4.1585 3.5428-7.9978 9.8859-9.45 12.52-0.3905 0.7734-0.4682 1.6674-0.2171 2.4966 0.2935 0.9748 0.2903 2.015-0.0092 2.988-0.1007 0.3158-0.8595 2.695-2.778 2.9822-1.0259 0.1187-2.0459-0.2652-2.7389-1.0309-0.9009-1.0156-1.3047-3.8681-3.04-3.6491"/><path id="i" d="m37.212 31.964c-0.6267-1.0969-4.6661 1.1327-5.8507 0.066-0.6811-0.5579-1.0902-1.3812-1.1233-2.261 0.0489-1.4169 1.3473-2.2707 2.014-2.7091 1.0212-0.6646 2.2247-0.9932 3.442-0.94 4.1123-3.247 7.3859-7.433 9.5461-12.207 0.3745-0.8815 0.4325-1.8654 0.164-2.7848-0.2934-0.9748-0.2902-2.0149 0.0093-2.9879 0.1007-0.3158 0.8594-2.6951 2.778-2.9823 1.0259-0.1184 2.0458 0.2657 2.7387 1.0314 0.9008 1.0156 1.3046 3.8681 3.04 3.6491"/><path id="j" d="m32.286 40.174c0.6267 1.0969 4.6661-1.1327 5.8507-0.066 0.681 0.558 1.0899 1.3813 1.123 2.2611-0.0489 1.4168-1.3473 2.2706-2.014 2.7091-1.0375 0.6611-2.2559 0.9811-3.4844 0.9149-4.1585 3.5429-7.9978 9.886-9.45 12.52-0.3905 0.7734-0.4682 1.6675-0.2171 2.4967 0.2935 0.9748 0.2903 2.0149-0.0092 2.9879-0.1007 0.3158-0.86 2.695-2.778 2.9822-1.0258 0.1187-2.0459-0.2652-2.7389-1.0308-0.9009-1.0156-1.3047-3.8681-3.04-3.6492"/><path id="k" d="m19.272 62.056c-0.6268-1.097-4.6662 1.1326-5.8508 0.066-0.6811-0.5579-1.0901-1.3813-1.1233-2.2611 0.0489-1.4168 1.3473-2.2707 2.014-2.7091 1.0213-0.6645 2.2247-0.9931 3.442-0.94 4.1121-3.2471 7.3855-7.4331 9.5456-12.207 0.3746-0.8815 0.4325-1.8654 0.164-2.7848-0.2934-0.9749-0.2902-2.015 0.0093-2.988 0.1007-0.3158 0.86-2.695 2.778-2.9822 1.026-0.1188 2.0463 0.2652 2.7393 1.0311 0.9008 1.0156 1.3046 3.8681 3.04 3.6491"/><polyline points="28.005 26.658 25.061 23.258 27.832 22.231 24.133 17.96"/><polyline points="24.521 35.066 20.027 35.245 21.174 37.969 15.528 38.194"/><polyline points="25.661 30.553 21.806 28.237 21.27 31.143 16.427 28.233"/></g><g id="l" fill="none" stroke="#D22F27" stroke-linecap="round" stroke-linejoin="round" stroke-width="2"><polyline points="28.005 26.658 25.061 23.258 27.832 22.231 24.133 17.96"/><polyline points="24.521 35.066 20.027 35.245 21.174 37.969 15.528 38.194"/><polyline points="25.661 30.553 21.806 28.237 21.27 31.143 16.427 28.233"/></g></svg>