<?xml version="1.0" encoding="UTF-8"?>
<svg id="a" viewBox="0 0 72 72" xmlns="http://www.w3.org/2000/svg"><g id="b"><path d="M48.8521,24.6873h0a4.7576,4.7576,0,0,0-6.7234-.2545L26.1505,39.2452c-1.336,1.2384-1.5632,4.9386-1.7681,5.1272l-3.1005,2.8552a2.3555,2.3555,0,0,0-.1371,3.3284l.1148.1246a2.3555,2.3555,0,0,0,3.3283.1371l3.1005-2.8552c.2642-.2432,3.7053-.6033,4.9309-1.7394L48.5976,31.4105A4.7574,4.7574,0,0,0,48.8521,24.6873Z" fill="#92d3f5"/></g><g id="c"><path d="M48.8521,24.6873h0a4.7576,4.7576,0,0,0-6.7234-.2545L26.1505,39.2452c-1.336,1.2384-1.5632,4.9386-1.7681,5.1272l-3.1005,2.8552a2.3555,2.3555,0,0,0-.1371,3.3284l.1148.1246a2.3555,2.3555,0,0,0,3.3283.1371l3.1005-2.8552c.2642-.2432,3.7053-.6033,4.9309-1.7394L48.5976,31.4105A4.7574,4.7574,0,0,0,48.8521,24.6873Z" fill="none" stroke="#000" stroke-linecap="round" stroke-linejoin="round" stroke-width="2"/><line x1="23.463" x2="46.253" y1="48.575" y2="27.417" fill="none" stroke="#000" stroke-linecap="round" stroke-linejoin="round" stroke-width="2"/><rect transform="translate(35.833 -9.4735) rotate(45)" x="27.905" y="37.732" width="2.8932" height="1.5706" rx=".5234"/><rect transform="translate(34.247 -12.448) rotate(45)" x="31.086" y="34.331" width="2.1258" height="1.5706" rx=".5234"/><rect transform="translate(33.665 -15.297) rotate(45)" x="33.602" y="32.203" width="3.3898" height="1.5706" rx=".5234"/><rect transform="translate(32.277 -18.282) rotate(45)" x="36.814" y="29.035" width="2.7857" height="1.5706" rx=".5234"/><rect transform="translate(31.16 -21.158) rotate(45)" x="39.727" y="26.249" width="2.7857" height="1.5706" rx=".5234"/></g></svg>
