<?xml version="1.0" encoding="UTF-8"?>
<svg id="a" viewBox="0 0 72 72" xmlns="http://www.w3.org/2000/svg"><g id="b"><polygon points="35.665 44.073 36.036 43.134 40.401 41.634 44.301 47.155 39.993 50.199" fill="#d0cfce"/><rect transform="translate(-23.187 44.686) rotate(-54.661)" x="27.755" y="42.138" width="7.7661" height="5.2754" fill="#d0cfce"/><path d="M53.8248,25.6409,43.0726,18.1182l1.455-2.08c.7017-1.003,1.7967-1.4059,2.36-.8684l2.8557,2.7241a8.09,8.09,0,0,0,2.0054,1.4029l3.5378,1.7492c.698.3451.6949,1.5119-.0068,2.5148Z" fill="#92d3f5"/><path d="M29.0712,17.9523,18.1575,25.4348,16.71,23.3239c-.698-1.018-.69-2.1945.0171-2.5359l3.5841-1.73a8.1611,8.1611,0,0,0,2.0354-1.3955l2.9056-2.7194c.5733-.5366,1.6735-.12,2.3715.8981Z" fill="#92d3f5"/></g><g id="c"><polygon points="35.665 44.073 36.036 43.134 40.401 41.634 44.301 47.155 39.993 50.199" fill="none" stroke="#000" stroke-linecap="round" stroke-linejoin="round" stroke-width="2"/><rect transform="translate(-23.187 44.686) rotate(-54.661)" x="27.755" y="42.138" width="7.7661" height="5.2754" fill="none" stroke="#000" stroke-linecap="round" stroke-linejoin="round" stroke-width="2"/><path d="M53.8248,25.6409,43.0726,18.1182l1.455-2.08c.7017-1.003,1.7967-1.4059,2.36-.8684l2.8557,2.7241a8.09,8.09,0,0,0,2.0054,1.4029l3.5378,1.7492c.698.3451.6949,1.5119-.0068,2.5148Z" fill="none" stroke="#000" stroke-linecap="round" stroke-linejoin="round" stroke-width="2"/><path d="M29.0712,17.9523,18.1575,25.4348,16.71,23.3239c-.698-1.018-.69-2.1945.0171-2.5359l3.5841-1.73a8.1611,8.1611,0,0,0,2.0354-1.3955l2.9056-2.7194c.5733-.5366,1.6735-.12,2.3715.8981Z" fill="none" stroke="#000" stroke-linecap="round" stroke-linejoin="round" stroke-width="2"/><path d="m43.045 18.892-10.16 13.878a3.961 3.961 0 0 0-0.7877 2.412l-0.365 4.9012-4.492 6.3351 4.3033 3.0513 4.492-6.3351 4.8032-1.66a3.9617 3.9617 0 0 0 2.0593-1.4789l10.109-13.809" fill="none" stroke="#000" stroke-linecap="round" stroke-linejoin="round" stroke-width="2"/><line x1="35.889" x2="29.28" y1="28.668" y2="19.057" fill="none" stroke="#000" stroke-linecap="round" stroke-linejoin="round" stroke-width="2"/><polyline points="35.494 43.898 39.87 50.059 44.171 47.005 40.401 41.634" fill="none" stroke="#000" stroke-linecap="round" stroke-linejoin="round" stroke-width="2"/><path d="m19.106 26.053 9.7445 14.172a4.0339 4.0339 0 0 0 1.6732 1.4093" fill="none" stroke="#000" stroke-linecap="round" stroke-linejoin="round" stroke-width="2"/><rect transform="translate(-29.596 43.343) rotate(-54.232)" x="24.127" y="49.424" width="6.7909" height="2.2909" rx=".7996"/><rect transform="translate(36.876 -3.6581) rotate(35.768)" x="22.398" y="53.603" width="3.4169" height="3.4169" rx="1.1751"/><rect transform="translate(25.095 115.92) rotate(236.97)" x="40.603" y="50.007" width="6.7909" height="2.2909" rx=".7996"/><rect transform="translate(-22.927 34.778) rotate(-33.03)" x="45.476" y="54.344" width="3.4169" height="3.4169" rx="1.1751"/><line x1="39.515" x2="49.066" y1="24.604" y2="31.658" fill="none" stroke="#000" stroke-linecap="round" stroke-linejoin="round" stroke-width="2"/><line x1="21.51" x2="31.638" y1="29.55" y2="22.487" fill="none" stroke="#000" stroke-linecap="round" stroke-linejoin="round" stroke-width="2"/></g></svg>
