<?xml version="1.0" encoding="UTF-8"?>
<svg id="a" version="1.1" viewBox="0 0 72 72" xmlns="http://www.w3.org/2000/svg"><g id="b"><ellipse cx="28.507" cy="43.726" rx="11.468" ry="11.274" fill="#D0CFCE"/><ellipse cx="28.507" cy="44.082" rx="6.8428" ry="6.7272" fill="#9B9B9A"/><ellipse cx="28.507" cy="43.726" rx="2.4923" ry="2.4502" fill="#D0CFCE"/><ellipse cx="47.442" cy="51.184" rx="3.8816" ry="3.816" fill="#D0CFCE"/><path d="m29.942 32.538 17.056-0.0874 1.7694 11.274h-8.7913s-0.6965-10.026-10.034-11.187z" fill="#D22F27"/></g><g id="c"><path d="m25.364 27.2s20.146-0.0658 21.608 0c0.0628 1.2046 0.0842 1.4174 0.0842 2.2887-0.7851 0.0127-18.086 0.131-21.308 0.1488-0.1818-0.8031-0.3102-1.6174-0.3842-2.4375z" stroke="#000" stroke-linecap="round" stroke-linejoin="round" stroke-width="2"/><polyline points="12.329 17.361 23.159 17.361 25.938 32.451" fill="none" stroke="#000" stroke-linecap="round" stroke-linejoin="round" stroke-width="2"/><ellipse cx="28.507" cy="43.726" rx="11.468" ry="11.274" fill="none" stroke="#000" stroke-linecap="round" stroke-linejoin="round" stroke-width="2"/><ellipse cx="28.507" cy="44.082" rx="6.8428" ry="6.7272" fill="none" stroke="#000" stroke-linecap="round" stroke-linejoin="round" stroke-width="2"/><ellipse cx="28.507" cy="43.726" rx="2.4923" ry="2.4502" fill="none" stroke="#000" stroke-linecap="round" stroke-linejoin="round" stroke-width="2"/><ellipse cx="47.442" cy="51.184" rx="3.8816" ry="3.816" fill="none" stroke="#000" stroke-linecap="round" stroke-linejoin="round" stroke-width="2"/><ellipse cx="47.449" cy="51.14" rx="1.331" ry="1.3085"/><line x1="23.633" x2="26.623" y1="39.362" y2="42.124" fill="none" stroke="#000" stroke-linecap="round" stroke-linejoin="round" stroke-width="2"/><line x1="32.973" x2="30.39" y1="39.362" y2="42.124" fill="none" stroke="#000" stroke-linecap="round" stroke-linejoin="round" stroke-width="2"/><line x1="30.092" x2="33.39" y1="45.616" y2="48.791" fill="none" stroke="#000" stroke-linecap="round" stroke-linejoin="round" stroke-width="2"/><line x1="26.623" x2="23.624" y1="45.616" y2="48.791" fill="none" stroke="#000" stroke-linecap="round" stroke-linejoin="round" stroke-width="2"/><path d="m29.942 32.538 17.056-0.0874 1.7694 11.274h-8.7913s-0.6965-10.026-10.034-11.187z" fill="none" stroke="#000" stroke-linecap="round" stroke-linejoin="round" stroke-width="2"/><path d="m52.049 45.26h3.4144c0.4006 0 0.7254 0.3248 0.7254 0.7254v0.3801c0 0.4006-0.3248 0.7254-0.7254 0.7254h-3.4144c-0.4006 0-0.7254-0.3248-0.7254-0.7254v-0.3801c0-0.4006 0.3248-0.7254 0.7254-0.7254z"/></g></svg>
