<?xml version="1.0" encoding="UTF-8"?>
<svg id="a" viewBox="0 0 72 72" xmlns="http://www.w3.org/2000/svg"><g id="b"><polygon points="46.894 34.519 16 34.519 16 40.484 56.286 40.484 56.286 34.519 56.286 30.072" fill="#92d3f5"/></g><g id="c" fill="none" stroke="#000" stroke-width="2"><polygon points="46.894 34.519 16 34.519 16 40.484 56.286 40.484 56.286 34.519 56.286 30.072" stroke-linecap="round" stroke-linejoin="round"/><path d="m28.315 34.052v-1.7416a2.1186 2.1186 0 0 1 2.1186-2.1186h11.419a2.1185 2.1185 0 0 1 2.1185 2.1186v1.7418" stroke-linecap="round" stroke-linejoin="round"/><circle cx="24.34" cy="53.078" r="2.9215" stroke-linecap="round" stroke-linejoin="round"/><circle cx="48.172" cy="53.078" r="2.9215" stroke-linecap="round" stroke-linejoin="round"/><line x1="45.01" x2="27.011" y1="40.652" y2="51.598" stroke-miterlimit="10"/><line x1="28.699" x2="45.01" y1="40.652" y2="51.988" stroke-miterlimit="10"/><line x1="27.261" x2="45.25" y1="53.078" y2="53.078" stroke-miterlimit="10"/></g></svg>
