<svg xmlns="http://www.w3.org/2000/svg" id="a" viewBox="0 0 72 72"><g id="b"><path fill="#92d3f5" d="m11.797 32.146h12.968a1.6942 1.6942 0 0 1 1.2068 0.502 14.389 14.389 0 0 1 2.5537 3.0972l0.0151 0.0527a1.6913 1.6913 0 0 1-1.6555 2.1059l-15.067-8e-3a1.7012 1.7012 0 0 1-1.7-1.6852l-0.0222-2.3473a1.7012 1.7012 0 0 1 1.7009-1.7173z"/></g><g id="c"><path fill="none" stroke="#000" stroke-linecap="round" stroke-linejoin="round" stroke-width="2" d="m16.986 42.762a20.43 20.43 0 0 0 39.6-7.4838 20.431 20.431 0 0 0-39.684-7.2572s8.7984 0.2756 8.8872 0.1679c3.721-4.5128 6.0234-5.59 10.319-5.59a12.682 12.682 0 0 1 0 25.359 12.364 12.364 0 0 1-10.198-5.412"/><line x1="17.332" x2="24.573" y1="42.412" y2="42.456" fill="none" stroke="#000" stroke-linecap="round" stroke-linejoin="round" stroke-width="2"/><path stroke="#000" stroke-linecap="round" stroke-linejoin="round" stroke-width="2" d="M10.186,40.904l26.07.0783a3.232,3.232,0,0,1-2.0356,1.4092c-1.2526.1566-24.0687.036-24.0687.036Z"/><path fill="none" stroke="#000" stroke-miterlimit="10" stroke-width="2" d="m11.797 32.146h12.968a1.6942 1.6942 0 0 1 1.2068 0.502 14.389 14.389 0 0 1 2.5537 3.0972l0.0151 0.0527a1.6913 1.6913 0 0 1-1.6555 2.1059l-15.067-8e-3a1.7012 1.7012 0 0 1-1.7-1.6852l-0.0222-2.3473a1.7012 1.7012 0 0 1 1.7009-1.7173z"/><ellipse cx="32.8" cy="34.819" rx="3.217" ry="3.199"/></g></svg>