<svg xmlns="http://www.w3.org/2000/svg" id="a" viewBox="0 0 72 72"><g id="b"><path fill="#92d3f5" stroke="#000" stroke-linecap="round" stroke-linejoin="round" stroke-width="2" d="m43.275 23.342h5.948a4.0713 4.0713 0 0 1 4.0713 4.0714v24.605a4.0713 4.0713 0 0 1-4.0713 4.0714h-26.968a4.0714 4.0714 0 0 1-4.0714-4.0714v-24.605a4.0714 4.0714 0 0 1 4.0714-4.0714h6.3754"/><circle cx="36.062" cy="23.279" r="7.279" fill="#fff"/></g><g id="c"><path fill="none" stroke="#000" stroke-linecap="round" stroke-linejoin="round" stroke-width="2" d="m44.275 23.342h4.948a4.0713 4.0713 0 0 1 4.0713 4.0714v24.605a4.0713 4.0713 0 0 1-4.0713 4.0714h-26.968a4.0714 4.0714 0 0 1-4.0714-4.0714v-24.605a4.0714 4.0714 0 0 1 4.0714-4.0714h6.3754"/><circle cx="36.062" cy="23.279" r="7.279" fill="none" stroke="#000" stroke-linecap="round" stroke-linejoin="round" stroke-width="2"/><path d="M38.39,18.9441a.6217.6217,0,0,0-.8339.2782l-1.89,3.7816a1.1456,1.1456,0,0,0-1.0146.8128,1.182,1.182,0,0,0,2.2691.659,1.1232,1.1232,0,0,0-.14-.9217l1.8872-3.776A.6217.6217,0,0,0,38.39,18.9441Z"/><path fill="none" stroke="#000" stroke-linecap="round" stroke-linejoin="round" stroke-width="2" d="m46.127 24.048a8.14 8.14 0 0 1 0.1092 1.3315c0 5.019-4.5886 9.0876-10.249 9.0876s-10.249-4.0686-10.249-9.0872a8.1373 8.1373 0 0 1 0.1417-1.5145"/></g></svg>