<?xml version="1.0" encoding="UTF-8"?>
<svg id="a" viewBox="0 0 72 72" xmlns="http://www.w3.org/2000/svg"><g id="b"><path d="m59.035 60h-46.07c-0.2557-8e-4 -0.5007-0.1027-0.6815-0.2836-0.1808-0.1808-0.2827-0.4258-0.2834-0.6815v-46.07c8e-4 -0.2557 0.1027-0.5007 0.2836-0.6815 0.1808-0.1808 0.4258-0.2827 0.6815-0.2834h46.07c0.2557 8e-4 0.5007 0.1027 0.6815 0.2836 0.1808 0.1808 0.2827 0.4258 0.2834 0.6815v46.07c-8e-4 0.2557-0.1027 0.5007-0.2836 0.6815-0.1808 0.1808-0.4258 0.2827-0.6815 0.2834z" fill="#F1B31C"/><circle cx="24.5" cy="47.5" r="4.5" fill="#fff"/><path d="m42 52c0-12.15-9.8497-22-22-22v7c8.2843 0 15 6.7157 15 15h7z" clip-rule="evenodd" fill="#fff" fill-rule="evenodd"/><path d="m52 52c0-17.673-14.327-32-32-32v7c13.807 0 25 11.193 25 25h7z" clip-rule="evenodd" fill="#fff" fill-rule="evenodd"/></g><g id="c" fill="none" stroke="#000" stroke-linejoin="round" stroke-width="2"><path d="m59.035 60h-46.07c-0.2557-8e-4 -0.5007-0.1027-0.6815-0.2836-0.1808-0.1808-0.2827-0.4258-0.2834-0.6815v-46.07c8e-4 -0.2557 0.1027-0.5007 0.2836-0.6815 0.1808-0.1808 0.4258-0.2827 0.6815-0.2834h46.07c0.2557 8e-4 0.5007 0.1027 0.6815 0.2836 0.1808 0.1808 0.2827 0.4258 0.2834 0.6815v46.07c-8e-4 0.2557-0.1027 0.5007-0.2836 0.6815-0.1808 0.1808-0.4258 0.2827-0.6815 0.2834z" stroke-miterlimit="10"/><path d="m29 47.5c0 2.4853-2.0147 4.5-4.5 4.5s-4.5-2.0147-4.5-4.5 2.0147-4.5 4.5-4.5 4.5 2.0147 4.5 4.5z" stroke-linecap="round"/><path d="m41 52c0-11.598-9.402-21-21-21v6c8.2843 0 15 6.7157 15 15h6z" clip-rule="evenodd" fill-rule="evenodd"/><path d="m52 52c0-17.673-14.327-32-32-32v6.0012c14.106 0.1342 25.5 11.611 25.5 25.749 0 0.0834-4e-4 0.1668-0.0012 0.25h6.5012z" clip-rule="evenodd" fill-rule="evenodd"/></g></svg>
