<?xml version="1.0" encoding="UTF-8"?>
<svg id="a" viewBox="0 0 72 72" xmlns="http://www.w3.org/2000/svg"><g id="b"><path d="M34 16.1628L15 19.2558V34H34V16.1628ZM15 38V52.7442L34 55.8372V38H15ZM38 56.4884L60 60.0698V38H38V56.4884ZM60 34H38V15.5116L60 11.9302V34Z" clip-rule="evenodd" fill="#61b2e4" fill-rule="evenodd"/></g><g id="c"><path d="m34 16.163h1c0-0.2933-0.1287-0.5718-0.3522-0.7618-0.2234-0.19-0.519-0.2723-0.8085-0.2252l0.1607 0.987zm-19 3.093-0.1607-0.987c-0.4839 0.0788-0.8393 0.4967-0.8393 0.987h1zm0 14.744h-1c0 0.5523 0.4477 1 1 1v-1zm19 0v1c0.5523 0 1-0.4477 1-1h-1zm-19 4v-1c-0.5523 0-1 0.4477-1 1h1zm0 14.744h-1c0 0.4902 0.3554 0.9082 0.8393 0.987l0.1607-0.987zm19 3.093-0.1607 0.987c0.2895 0.0471 0.5851-0.0352 0.8085-0.2252 0.2235-0.19 0.3522-0.4685 0.3522-0.7618h-1zm0-17.837h1c0-0.5523-0.4477-1-1-1v1zm4 18.488h-1c0 0.4902 0.3554 0.9082 0.8393 0.987l0.1607-0.987zm22 3.5814-0.1607 0.987c0.2895 0.0471 0.5851-0.0352 0.8085-0.2252s0.3522-0.4685 0.3522-0.7618h-1zm0-22.07h1c0-0.5523-0.4477-1-1-1v1zm-22 0v-1c-0.5523 0-1 0.4477-1 1h1zm22-4v1c0.5523 0 1-0.4477 1-1h-1zm-22 0h-1c0 0.5523 0.4477 1 1 1v-1zm0-18.488-0.1607-0.987c-0.4839 0.0788-0.8393 0.4968-0.8393 0.987h1zm22-3.5814h1c0-0.2933-0.1288-0.5718-0.3522-0.7618s-0.519-0.2723-0.8085-0.2252l0.1607 0.987zm-26.161 3.2456-19 3.093 0.3214 1.974 19-3.093-0.3214-1.974zm-19.839 4.08v14.744h2v-14.744h-2zm20 13.744h-19v2h19v-2zm-1-16.837v17.837h2v-17.837h-2zm-19 21.837v14.744h2v-14.744h-2zm0.8393 15.731 19 3.093 0.3214-1.974-19-3.093-0.3214 1.974zm18.161-15.731v17.837h2v-17.837h-2zm-18 1h19v-2h-19v2zm22.839 18.475 22 3.5814 0.3214-1.974-22-3.5814-0.3214 1.974zm23.161 2.5944v-22.07h-2v22.07h2zm-23-21.07h22v-2h-22v2zm1 17.488v-18.488h-2v18.488h2zm21-23.488h-22v2h22v-2zm-21 1v-18.488h-2v18.488h2zm20.839-23.057-22 3.5814 0.3214 1.974 22-3.5814-0.3214-1.974zm1.1607 23.057v-22.07h-2v22.07h2z"/></g></svg>
