<svg xmlns="http://www.w3.org/2000/svg" id="a" viewBox="0 0 72 72"><g id="b"><g fill="#5c9e31"><path fill-rule="evenodd" d="m42.147 10.948h3.7013c1e-4 0.0254 2e-4 0.0507 2e-4 0.0761 0 2.5601-0.9327 4.9505-2.7919 7.163-2.2436 2.6302-4.9573 4.1501-7.9001 3.9102-0.0375-0.3071-0.0592-0.6303-0.0592-0.97 0-2.4577 1.0669-5.0879 2.9617-7.2385 0.9459-1.0889 2.149-1.9943 3.608-2.7165 0.161-0.0787 0.321-0.1535 0.48-0.2243zm-26.948 19.907c0.1901-0.3972 0.3973-0.7834 0.6213-1.1587 1.1637-1.9916 2.7119-3.5627 4.6495-4.716s4.0312-1.7411 6.2858-1.7787c1.2337 0 2.8515 0.3827 4.8619 1.1347 2.0047 0.7546 3.2919 1.1372 3.8563 1.1372 0.4219 0 1.8519-0.4474 4.276-1.3394 2.2925-0.8272 4.2273-1.1698 5.8123-1.0348 4.2949 0.3475 7.5217 2.0453 9.6676 5.104-1.2833 0.7797-2.3499 1.6637-3.2 2.6517h-36.831z" clip-rule="evenodd"/><path d="m42.147 10.948v-1c-0.1402 0-0.2789 0.02951-0.4071 0.08663l0.4071 0.9134zm3.7013 0 0.9999-0.0071c-0.0039-0.5495-0.4504-0.99293-0.9999-0.99293v1zm-2.7917 7.2391 0.7609 0.649 0.0047-0.0057-0.7656-0.6433zm-7.9001 3.9102-0.9926 0.1212c0.0575 0.4712 0.4383 0.837 0.9114 0.8755l0.0812-0.9967zm2.9025-8.2085 0.7503 0.6611 0.0046-0.0053-0.7549-0.6558zm3.608-2.7165-0.4391-0.8985-0.0046 0.0023 0.4437 0.8962zm-26.468 19.683-0.902-0.4318c-0.1483 0.3098-0.1272 0.6741 0.0559 0.9648s0.5026 0.467 0.8461 0.467v-1zm0.6213-1.1587 0.8586 0.5127 0.0049-0.0082-0.8635-0.5045zm4.6495-4.716-0.5115-0.8593 0.5115 0.8593zm6.2858-1.7787v-1c-0.0055 0-0.0111 1e-4 -0.0166 2e-4l0.0166 0.9998zm4.8619 1.1347 0.3522-0.9359-0.0019-7e-4 -0.3503 0.9366zm8.1323-0.2022-0.3394-0.9407-0.0059 0.0022 0.3453 0.9385zm5.8123-1.0348-0.0849 0.9964 0.0042 3e-4 0.0807-0.9967zm9.6676 5.104 0.5192 0.8546c0.2364-0.1436 0.4028-0.3788 0.4595-0.6495 0.0567-0.2708-0.0012-0.553-0.1601-0.7794l-0.8186 0.5743zm-3.2 2.6517v1c0.2913 0 0.5681-0.127 0.758-0.3478l-0.758-0.6522zm-9.8824-18.907h3.7013v-2h-3.7013v2zm2.7013-0.993c1e-4 0.023 2e-4 0.046 2e-4 0.0691h2c0-0.0277-1e-4 -0.0554-3e-4 -0.0832l-1.9999 0.0141zm2e-4 0.0691c0 2.294-0.8287 4.4623-2.5575 6.5196l1.5312 1.2867c1.9896-2.3677 3.0263-4.9801 3.0263-7.8063h-2zm-2.5527 6.514c-2.1202 2.4856-4.5471 3.7672-7.0581 3.5625l-0.1624 1.9934c3.3746 0.2751 6.3752-1.4831 8.7421-4.258l-1.5216-1.2979zm-6.1467 4.438c-0.0329-0.2693-0.0518-0.552-0.0518-0.8488h-2c0 0.3825 0.0245 0.7463 0.0666 1.0912l1.9852-0.2424zm-0.0518-0.8488c0-2.1779 0.9523-4.5802 2.712-6.5774l-1.5006-1.3222c-2.0299 2.3039-3.2114 5.1621-3.2114 7.8996h2zm2.7166-6.5827c0.8485-0.9767 1.941-1.805 3.2968-2.4761l-0.8874-1.7924c-1.5621 0.7733-2.8758 1.7558-3.9192 2.9569l1.5098 1.3116zm3.2922-2.4739c0.1507-0.0736 0.3-0.1434 0.448-0.2093l-0.8142-1.8268c-0.1701 0.0758-0.3407 0.1556-0.512 0.2392l0.8782 1.7969zm-26.005 19.216c0.177-0.3698 0.3696-0.729 0.5779-1.0778l-1.7171-1.0254c-0.2399 0.4018-0.4615 0.815-0.6648 1.2396l1.804 0.8636zm0.5828-1.086c1.0804-1.8492 2.509-3.2966 4.2975-4.3612l-1.023-1.7186c-2.0867 1.2421-3.7544 2.9368-5.0014 5.0708l1.7269 1.009zm4.2975-4.3612c1.7859-1.063 3.7086-1.6034 5.791-1.6381l-0.0333-1.9997c-2.4269 0.0405-4.6914 0.6756-6.7807 1.9192l1.023 1.7186zm5.7743-1.638c1.0547 0 2.5393 0.3336 4.5115 1.0713l0.7007-1.8732c-2.0485-0.7663-3.7995-1.1981-5.2122-1.1981v2zm4.5096 1.0706c1.0129 0.3813 1.8613 0.675 2.5372 0.8747 0.6423 0.1898 1.2296 0.3266 1.6714 0.3266v-2c-0.1226 0-0.4611-0.0544-1.1046-0.2446-0.61-0.1802-1.4077-0.4552-2.3995-0.8285l-0.7045 1.8718zm4.2086 1.2013c0.2344 0 0.5034-0.0546 0.7401-0.1118 0.2613-0.0631 0.5786-0.154 0.9459-0.2691 0.7361-0.2305 1.7172-0.5718 2.9354-1.02l-0.6907-1.877c-1.2059 0.4438-2.1519 0.7722-2.8424 0.9884-0.3459 0.1083-0.6167 0.185-0.8179 0.2337-0.2259 0.0545-0.2938 0.0558-0.2704 0.0558v2zm4.6155-1.3988c2.2208-0.8014 4.0019-1.097 5.3879-0.979l0.1697-1.9928c-1.784-0.1519-3.8724 0.2375-6.2365 1.0906l0.6789 1.8812zm5.3921-0.9787c4.0508 0.3278 6.9827 1.9066 8.9296 4.6816l1.6373-1.1486c-2.3449-3.3423-5.8665-5.1591-10.406-5.5265l-0.1613 1.9935zm9.229 3.2527c-1.3597 0.8261-2.5107 1.7755-3.4387 2.854l1.516 1.3045c0.7722-0.8974 1.7544-1.716 2.9612-2.4493l-1.0385-1.7092zm-2.6807 2.5063h-36.831v2h36.831v-2z"/></g><path fill="#fcea2b" fill-rule="evenodd" d="m54.26 29c-2.5664 1.8323-4.0889 4.167-4.5688 7h-35.923c0.2949-2.2984 0.9787-4.3478 2.0521-6.1453 0.1718-0.294 0.352-0.579 0.5406-0.8547h37.899z" clip-rule="evenodd"/><path fill="#f4aa41" fill-rule="evenodd" d="m49.868 35c-0.2376 0.9408-0.3517 1.9408-0.3421 2.9997 0.0195 1.8418 0.4038 3.5093 1.1515 5.0003h-36.69c-0.2584-1.5016-0.3878-2.9796-0.3878-4.4343 0-1.2515 0.0984-2.4402 0.2952-3.5657h35.973z" clip-rule="evenodd"/><path fill="#ea5a47" fill-rule="evenodd" d="m50.075 42c0.5638 1.7489 1.5608 3.2885 2.9896 4.6162 1.0524 1.0017 2.2278 1.7759 3.5355 2.3257-0.0067 0.0194-0.0134 0.0387-0.02 0.0581h-41.097c-0.082-0.2237-0.1624-0.4495-0.2412-0.6775-0.7372-2.1531-1.2266-4.2604-1.4673-6.3225h36.3z" clip-rule="evenodd"/><path fill="#8967aa" fill-rule="evenodd" d="m53.243 56c0.9372-1.3965 1.7551-2.9032 2.4561-4.5271 0.3182-0.7584 0.6176-1.5483 0.9012-2.3731-0.0773-0.0325-0.1541-0.0657-0.2305-0.0998h-40.944c0.9503 2.6266 2.1298 4.9584 3.5384 7h34.279z" clip-rule="evenodd"/><path fill="#61b2e4" fill-rule="evenodd" d="m26.139 62c-1.0981-0.264-2.1939-0.9057-3.2883-1.9261-0.9284-0.812-2.076-2.17-3.4402-4.0739h33.396c-1.3762 1.9501-2.5082 3.3081-3.3875 4.0739-1.1599 1.0696-2.3878 1.7105-3.6873 1.9261h-1.904c-0.9296-0.1354-1.9807-0.4424-3.1498-0.9245-1.6377-0.6698-3.1426-1.0016-4.5187-1.0016-1.4432 0-2.9911 0.3318-4.6467 1.0016-1.1195 0.4545-2.0922 0.762-2.9202 0.9245h-2.4532z" clip-rule="evenodd"/></g><g id="c"><path id="d" fill="none" stroke="#000" stroke-linecap="round" stroke-linejoin="round" stroke-width="2" d="m35.156 22.097c-0.0375-0.3071-0.0592-0.6303-0.0592-0.97 0-2.4577 1.0669-5.0879 2.9617-7.2385 0.946-1.0889 2.1491-1.9943 3.608-2.7165 1.4558-0.7115 2.8329-1.1049 4.128-1.1723 0.0378 0.3422 0.0535 0.6845 0.0535 1.0241 0 2.5601-0.9327 4.9505-2.7918 7.163-0.8303 0.9733-1.725 1.7946-2.6718 2.4309m15.314 30.223c-0.772 1.7884-1.6858 3.4347-2.7446 4.9483-1.4432 2.0633-2.6249 3.4915-3.5356 4.2847-1.4117 1.3018-2.9242 1.9685-4.5439 2.0064-1.1627 0-2.565-0.3317-4.1972-1.0048-1.6377-0.6699-3.1426-1.0016-4.5187-1.0016-1.4432 0-2.9911 0.3317-4.6466 1.0016-1.6582 0.6731-2.9939 1.0238-4.0152 1.0586-1.5532 0.0663-3.1013-0.6194-4.6466-2.0602-0.9863-0.8627-2.22-2.3415-3.6978-4.4364-1.5857-2.2372-2.8893-4.8314-3.9106-7.7889-1.0937-3.1946-1.642-6.2881-1.642-9.2829 0-3.4306 0.7393-6.3895 2.22-8.869 1.1637-1.9916 2.7118-3.5627 4.6494-4.716s4.0312-1.7411 6.2858-1.7787c1.2337 0 2.8515 0.3827 4.8619 1.1347 2.0047 0.7546 3.292 1.1372 3.8563 1.1372 0.4219 0 1.8519-0.4474 4.2761-1.3394 2.2924-0.8272 4.2272-1.1698 5.8122-1.0348 4.2949 0.3475 7.5217 2.0453 9.6676 5.104-3.8412 2.3338-5.7413 5.6027-5.7035 9.796 0.0346 3.2663 1.2163 5.9844 3.5387 8.1426 1.0524 1.0016 2.2278 1.7758 3.5355 2.3256-0.2836 0.8247-0.5829 1.6146-0.9012 2.373z"/></g></svg>