<svg width="120mm" height="120mm" version="1.1" viewBox="-60 -60 120 120" xmlns="http://www.w3.org/2000/svg" xmlns:xlink="http://www.w3.org/1999/xlink"><defs><linearGradient id="a" x1="290.9" x2="368.96" y1="140.13" y2="140.13" gradientUnits="userSpaceOnUse" xlink:href="#b"/><linearGradient id="b"><stop offset="0"/></linearGradient></defs><g fill="none" fill-rule="evenodd" shape-rendering="auto" stroke-width=".05"><path d="m60-2.4e-6c0 33.137-26.863 60-60 60-33.137 0-60-26.863-60-60 0-33.137 26.863-60 60-60 33.137 0 60 26.863 60 60" color-rendering="auto" dominant-baseline="auto" fill="#8b0000" image-rendering="auto" style="font-feature-settings:normal;font-variant-alternates:normal;font-variant-caps:normal;font-variant-east-asian:normal;font-variant-ligatures:normal;font-variant-numeric:normal;font-variant-position:normal;font-variation-settings:normal;inline-size:0;isolation:auto;mix-blend-mode:normal;shape-margin:0;shape-padding:0;text-decoration-color:#000;text-decoration-line:none;text-decoration-style:solid;text-indent:0;text-orientation:mixed;text-transform:none;white-space:normal"/><path d="m-4.8e-6 -60c-33.136 0-60 26.864-60 60 0 33.136 26.864 60 60 60 33.136 0 60-26.864 60-60 0-33.136-26.864-60-60-60zm0 0.17319c33.043 0 59.827 26.784 59.827 59.827 0 33.043-26.784 59.827-59.827 59.827-33.043 0-59.827-26.784-59.827-59.827 0-33.043 26.784-59.827 59.827-59.827z" color-rendering="auto" dominant-baseline="auto" image-rendering="auto" style="font-feature-settings:normal;font-variant-alternates:normal;font-variant-caps:normal;font-variant-east-asian:normal;font-variant-ligatures:normal;font-variant-numeric:normal;font-variant-position:normal;font-variation-settings:normal;inline-size:0;isolation:auto;mix-blend-mode:normal;shape-margin:0;shape-padding:0;text-decoration-color:#000;text-decoration-line:none;text-decoration-style:solid;text-indent:0;text-orientation:mixed;text-transform:none;white-space:normal"/><g transform="matrix(1.1973 0 0 1.1973 -59.909 -59.866)" fill="url(#a)"><g transform="matrix(-.37219 .37219 -.37219 -.37219 -118.85 -23.758)" style="mix-blend-mode:normal"><path d="m-152.96-363.63h75c6.925 0 12.5 5.575 12.5 12.5s-5.575 12.5-12.5 12.5h-75c-6.925 0-12.5-5.575-12.5-12.5s5.575-12.5 12.5-12.5z" color-rendering="auto" dominant-baseline="auto" image-rendering="auto" style="font-feature-settings:normal;font-variant-alternates:normal;font-variant-caps:normal;font-variant-east-asian:normal;font-variant-ligatures:normal;font-variant-numeric:normal;font-variant-position:normal;font-variation-settings:normal;inline-size:0;isolation:auto;mix-blend-mode:normal;shape-margin:0;shape-padding:0;text-decoration-color:#000;text-decoration-line:none;text-decoration-style:solid;text-indent:0;text-orientation:mixed;text-transform:none;white-space:normal"/><path d="m-152.96-363.78c-7.0044 0-12.648 5.6441-12.648 12.648s5.6441 12.646 12.648 12.646h75c7.0044 0 12.646-5.6421 12.646-12.646s-5.6421-12.648-12.646-12.648zm0 0.29492h75c6.8456 0 12.352 5.5079 12.352 12.354s-5.5059 12.352-12.352 12.352h-75c-6.8456 0-12.354-5.5059-12.354-12.352s5.5079-12.354 12.354-12.354z" color-rendering="auto" dominant-baseline="auto" image-rendering="auto" style="font-feature-settings:normal;font-variant-alternates:normal;font-variant-caps:normal;font-variant-east-asian:normal;font-variant-ligatures:normal;font-variant-numeric:normal;font-variant-position:normal;font-variation-settings:normal;inline-size:0;isolation:auto;mix-blend-mode:normal;shape-margin:0;shape-padding:0;text-decoration-color:#000;text-decoration-line:none;text-decoration-style:solid;text-indent:0;text-orientation:mixed;text-transform:none;white-space:normal"/></g><g transform="matrix(-.37219 -.37219 .37219 -.37219 -118.85 -23.758)" style="mix-blend-mode:normal"><path d="m-351.13 140.46h75c6.925 0 12.5 5.575 12.5 12.5s-5.575 12.5-12.5 12.5h-75c-6.925 0-12.5-5.575-12.5-12.5s5.575-12.5 12.5-12.5z" color-rendering="auto" dominant-baseline="auto" image-rendering="auto" style="font-feature-settings:normal;font-variant-alternates:normal;font-variant-caps:normal;font-variant-east-asian:normal;font-variant-ligatures:normal;font-variant-numeric:normal;font-variant-position:normal;font-variation-settings:normal;inline-size:0;isolation:auto;mix-blend-mode:normal;shape-margin:0;shape-padding:0;text-decoration-color:#000;text-decoration-line:none;text-decoration-style:solid;text-indent:0;text-orientation:mixed;text-transform:none;white-space:normal"/><path d="m-351.13 140.31c-7.0044 0-12.648 5.6421-12.648 12.646s5.6441 12.648 12.648 12.648h75c7.0044 0 12.646-5.6441 12.646-12.648s-5.6421-12.646-12.646-12.646zm0 0.29493h75c6.8456 0 12.352 5.5059 12.352 12.352s-5.5059 12.354-12.352 12.354h-75c-6.8456 0-12.354-5.5079-12.354-12.354s5.5079-12.352 12.354-12.352z" color-rendering="auto" dominant-baseline="auto" image-rendering="auto" style="font-feature-settings:normal;font-variant-alternates:normal;font-variant-caps:normal;font-variant-east-asian:normal;font-variant-ligatures:normal;font-variant-numeric:normal;font-variant-position:normal;font-variation-settings:normal;inline-size:0;isolation:auto;mix-blend-mode:normal;shape-margin:0;shape-padding:0;text-decoration-color:#000;text-decoration-line:none;text-decoration-style:solid;text-indent:0;text-orientation:mixed;text-transform:none;white-space:normal"/></g></g></g></svg>
