<svg width="40" height="40" version="1.1" viewBox="0 0 40 40" xmlns="http://www.w3.org/2000/svg"><g shape-rendering="auto"><path d="m20.532 2.5073c-11.877 0-21.506 9.3139-21.506 20.802 0 11.488 9.6292 20.802 21.506 20.802 11.877 0 21.506-9.3139 21.506-20.802 0-11.488-9.6292-20.802-21.506-20.802zm0 0.060045c11.844 0 21.444 9.286 21.444 20.742s-9.6003 20.742-21.444 20.742c-11.844 0-21.444-9.286-21.444-20.742s9.6003-20.742 21.444-20.742z" color-rendering="auto" dominant-baseline="auto" fill="none" image-rendering="auto" style="font-feature-settings:normal;font-variant-alternates:normal;font-variant-caps:normal;font-variant-east-asian:normal;font-variant-ligatures:normal;font-variant-numeric:normal;font-variant-position:normal;font-variation-settings:normal;inline-size:0;isolation:auto;mix-blend-mode:normal;shape-margin:0;shape-padding:0;text-decoration-color:#000;text-decoration-line:none;text-decoration-style:solid;text-indent:0;text-orientation:mixed;text-transform:none;white-space:normal"/><path d="m40 20c0 11.046-8.9543 20-20 20-11.046 0-20-8.9543-20-20 0-11.046 8.9543-20 20-20 11.046 0 20 8.9543 20 20" color-rendering="auto" dominant-baseline="auto" fill="#8b0000" fill-rule="evenodd" image-rendering="auto" style="font-feature-settings:normal;font-variant-alternates:normal;font-variant-caps:normal;font-variant-east-asian:normal;font-variant-ligatures:normal;font-variant-numeric:normal;font-variant-position:normal;font-variation-settings:normal;inline-size:0;isolation:auto;mix-blend-mode:normal;shape-margin:0;shape-padding:0;text-decoration-color:#000;text-decoration-line:none;text-decoration-style:solid;text-indent:0;text-orientation:mixed;text-transform:none;white-space:normal"/></g><g stroke-width=".77889"><rect x="16.5" y="7" width="7" height="26"/><rect transform="rotate(90)" x="16.5" y="-33" width="7" height="26" image-rendering="auto"/></g></svg>
