<svg xmlns="http://www.w3.org/2000/svg" xmlns:svg="http://www.w3.org/2000/svg" id="svg8" width="644.701" height="291.431" version="1.1" viewBox="0 0 170.577 77.108"><metadata id="metadata5"/><g id="layer1" transform="translate(280.42239,-506.43091)"><g style="fill:#00a800;fill-opacity:1" id="g3938" transform="translate(-18.89881,131.53571)"><path id="path3952" d="m -104.70386,451.85415 c -2.54209,-0.18757 -19.09647,-1.12826 -22.35729,-1.27043 -6.86514,-0.29933 -35.89157,-1.73826 -42.73021,-2.11827 -3.8563,-0.21429 -12.96459,-0.6311 -20.24063,-0.92626 -7.27604,-0.29516 -16.32479,-0.71265 -20.10833,-0.92776 -3.78354,-0.21512 -11.7012,-0.63288 -17.59479,-0.92837 -12.70591,-0.63705 -26.96587,-1.51173 -30.29479,-1.85824 -1.30969,-0.13633 -2.58422,-0.24993 -2.83229,-0.25245 -0.77126,-0.008 -0.82892,-1.54907 -0.37493,-10.02153 0.77431,-14.45048 1.45869,-28.22453 2.00663,-40.38618 0.61064,-13.55348 0.94567,-17.87639 1.40969,-18.18979 0.44457,-0.30027 18.90565,0.30535 26.38152,0.86545 1.81901,0.13628 6.7601,0.37111 10.98021,0.52185 4.2201,0.15074 9.10167,0.39341 10.84792,0.53926 1.74625,0.14586 6.86593,0.44289 11.37708,0.66009 38.25183,1.84165 38.709,1.87274 39.6166,2.69411 0.43113,0.39017 0.53317,0.3993 0.74006,0.0662 0.39409,-0.6345 3.4115,-0.53788 50.13084,1.60516 15.692685,0.71983 15.920227,0.73734 16.448356,1.26547 0.387784,0.38778 0.416103,1.17896 0.271452,7.58381 -0.08882,3.93298 -0.402169,11.55618 -0.696325,16.94045 -0.294156,5.38427 -0.778248,14.73068 -1.075764,20.76979 -0.297513,6.03912 -0.715923,13.00427 -0.929799,15.47813 -0.213876,2.47385 -0.389543,5.07129 -0.390371,5.77208 -0.0028,2.34072 0.07773,2.30426 -4.971752,2.25148 -2.432357,-0.0254 -4.958247,-0.0858 -5.613087,-0.13407 z m -3.96875,-2.7145 c 0,-0.31217 -0.51603,-0.64611 -0.70556,-0.45659 -0.18952,0.18953 0.14442,0.70556 0.45659,0.70556 0.13693,0 0.24897,-0.11204 0.24897,-0.24897 z m -22.225,-1.47082 c 0.26788,-0.32278 0.25528,-0.39688 -0.0675,-0.39688 -0.21828,0 -0.54509,0.17859 -0.72625,0.39688 -0.26788,0.32277 -0.25528,0.39687 0.0675,0.39687 0.21828,0 0.54509,-0.17859 0.72625,-0.39687 z m 6.87917,0.007 c 0,-0.35194 -1.6572,-0.92542 -2.24668,-0.77747 -0.76997,0.19325 -0.86827,0.54614 -0.20072,0.72059 0.64223,0.16783 2.4474,0.20979 2.4474,0.0569 z m -26.72292,-0.93284 c 0,-0.41792 -0.17639,-0.52916 -0.83906,-0.52916 -0.46149,0 -1.07563,-0.20836 -1.36477,-0.46302 -0.50234,-0.44245 -0.51411,-0.44167 -0.26505,0.0176 0.29934,0.55195 1.64809,1.49943 2.13815,1.50201 0.1819,10e-4 0.33073,-0.23637 0.33073,-0.52742 z m 3.70417,-0.52916 c 0,-0.62377 -0.67172,-0.86273 -1.07139,-0.38115 -0.24538,0.29566 -0.24538,0.46663 0,0.76229 0.39967,0.48158 1.07139,0.24262 1.07139,-0.38114 z m -2.33275,-0.0573 c -0.18985,-0.18986 -0.31309,-0.20548 -0.31309,-0.0397 0,0.15038 0.0794,0.35278 0.17639,0.44979 0.097,0.097 0.2379,0.11488 0.31309,0.0397 0.0752,-0.0752 -0.004,-0.27759 -0.17639,-0.44979 z m 4.21858,0.12347 c 0.32911,-0.41964 0.31975,-0.429 -0.0999,-0.0999 -0.44073,0.34564 -0.58088,0.56291 -0.36312,0.56291 0.0549,0 0.2633,-0.20836 0.46302,-0.46302 z m -11.98252,-0.44075 c 0.0765,-0.39478 0.007,-0.41885 -0.47043,-0.16324 -0.30811,0.1649 -0.48643,0.41919 -0.39626,0.56509 0.23667,0.38293 0.76174,0.13948 0.86669,-0.40185 z m -10.8054,0.0817 c 0,-0.16109 -0.18489,-0.22194 -0.41086,-0.13523 -0.27422,0.10522 -0.56022,-0.10481 -0.8599,-0.63148 -0.51281,-0.90124 -0.65074,-0.94958 -1.11461,-0.39065 -0.27292,0.32885 -0.24732,0.49706 0.14091,0.92604 0.5109,0.56455 2.24446,0.7432 2.24446,0.23132 z m 3.96875,-0.26751 c 0,-0.14552 -0.11906,-0.191 -0.26458,-0.10106 -0.14552,0.0899 -0.26458,0.28258 -0.26458,0.4281 0,0.14552 0.11906,0.191 0.26458,0.10106 0.14552,-0.0899 0.26458,-0.28258 0.26458,-0.4281 z m -2.53244,-0.64913 c 0.595,-0.595 0.52621,-0.98486 -0.11339,-0.64256 -0.29104,0.15576 -0.52917,0.45761 -0.52917,0.67077 0,0.49346 0.12645,0.48791 0.64256,-0.0282 z m -32.58829,-0.52097 c 0.7356,-0.68209 0.99903,-1.36637 0.39417,-1.02388 -0.56595,0.32046 -1.52136,1.24837 -1.52136,1.47758 0,0.38881 0.38624,0.23335 1.12719,-0.4537 z m 98.31244,-3.8919 c 0.36675,-5.3332 1.837521,-34.46641 1.950681,-38.63922 0.0594,-2.19047 0.169706,-2.91129 0.474279,-3.09928 0.348964,-0.21539 0.344143,-0.29771 -0.03992,-0.68188 -0.387446,-0.38755 -0.394917,-0.53712 -0.06615,-1.32398 0.404164,-0.96731 0.463134,-2.64049 0.201956,-5.73021 l -0.168685,-1.99556 -2.543291,-0.17476 c -1.39881,-0.0961 -4.21017,-0.34373 -6.24746,-0.55026 -3.97834,-0.4033 -11.59903,-0.75311 -25.92917,-1.19022 -4.94771,-0.15092 -11.73427,-0.44805 -15.08125,-0.66029 -3.34698,-0.21225 -13.34823,-0.74452 -22.225,-1.18284 -24.9617,-1.23255 -26.08746,-1.32715 -26.85922,-2.25706 -0.29229,-0.35219 -0.36747,-0.34699 -0.65434,0.0453 -0.29487,0.40325 -0.96607,0.42754 -7.43965,0.26916 -7.85094,-0.19208 -16.51692,-0.58809 -21.40304,-0.97806 -4.83949,-0.38625 -22.09392,-0.89526 -23.21506,-0.68485 -0.72615,0.13628 -1.02368,0.3414 -1.11621,0.76953 -0.23468,1.08585 -1.52801,25.49916 -2.69549,50.88081 -0.11828,2.57134 -0.0823,3.78558 0.11564,3.90794 0.52251,0.32293 4.3389,0.66436 10.63924,0.95182 3.41974,0.15603 7.64646,0.39963 9.39271,0.54134 1.74625,0.14171 7.58031,0.44103 12.96459,0.66516 5.38427,0.22412 12.52802,0.5786 15.875,0.78773 3.34698,0.20913 9.18104,0.50588 12.96458,0.65945 3.78354,0.15357 8.72464,0.39355 10.98021,0.5333 2.25557,0.13974 8.08963,0.43895 12.96458,0.66491 4.87495,0.22596 10.05417,0.53714 11.50938,0.69152 1.45521,0.15438 3.59833,0.3784 4.7625,0.49782 1.16416,0.11943 4.0812,0.22734 6.48229,0.2398 6.58587,0.0342 33.29058,1.22927 33.58004,1.50275 0.0606,0.0573 2.45072,0.10416 5.31132,0.10416 h 5.20108 z m -31.97087,-6.26417 c -2.35607,-0.50694 -4.28298,-1.88534 -5.47209,-3.9144 -0.9251,-1.57857 -1.02929,-3.86393 -0.63722,-13.97745 0.35577,-9.17719 0.65941,-12.20189 1.39849,-13.93122 0.63162,-1.47788 2.9056,-3.72237 4.50828,-4.44982 2.3806,-1.08054 6.99496,-0.42555 9.3851,1.33218 1.93161,1.42051 2.98827,4.69372 2.98827,9.25669 0,2.39114 -0.47308,2.62764 -4.42906,2.21416 l -1.59626,-0.16684 -0.11336,-2.41285 c -0.14762,-3.14192 -0.78265,-4.49465 -2.32721,-4.95741 -1.82408,-0.54651 -2.43566,0.43907 -2.89245,4.66124 -0.46198,4.27021 -0.87978,13.11359 -0.75855,16.05599 0.15027,3.64698 0.51174,4.27673 2.52325,4.39588 1.17007,0.0693 1.39937,-0.005 1.87602,-0.61139 0.70722,-0.89908 1.14985,-3.08905 1.0502,-5.196 l -0.0795,-1.6799 -1.1625,-0.15513 c -1.40623,-0.18766 -1.8802,-0.75163 -1.8802,-2.23721 0,-1.54438 0.45389,-2.68515 1.14112,-2.86794 0.54861,-0.14592 5.6585,0.20334 7.543,0.51557 l 0.87892,0.14561 -0.17433,5.60684 c -0.27282,8.77499 -0.49869,10.95998 -1.21138,11.7186 -0.85868,0.91402 -1.89748,0.83455 -2.71305,-0.20755 l -0.65949,-0.84267 -1.80708,0.81979 c -1.94527,0.88248 -3.8981,1.20386 -5.37896,0.88523 z m 0.26458,-2.13635 c 0,-0.33674 -0.17639,-0.52917 -0.48507,-0.52917 -0.78064,0 -0.90263,0.34263 -0.25083,0.70448 0.77563,0.43061 0.7359,0.44007 0.7359,-0.17531 z m 2.11667,-0.7626 c 0,-0.29978 -0.095,-0.27122 -0.38847,0.11672 -0.21365,0.28247 -0.38845,0.69218 -0.38845,0.91046 0,0.29978 0.095,0.27123 0.38845,-0.11671 0.21366,-0.28248 0.38847,-0.69219 0.38847,-0.91047 z m -4.23334,-0.3947 c 0,-0.0544 -0.3048,-0.64432 -0.67734,-1.31086 l -0.67733,-1.21189 0.67733,-0.58894 c 0.37254,-0.32391 0.67734,-0.80559 0.67734,-1.07039 0,-0.63613 -0.16942,-0.60857 -1.10658,0.18001 -0.43236,0.3638 -0.95556,0.66145 -1.16268,0.66145 -0.50969,0 -0.4797,0.69756 0.0385,0.89644 0.27447,0.10532 0.35854,0.33753 0.24815,0.68536 -0.18856,0.59409 0.88187,1.85779 1.57366,1.85779 0.2249,0 0.4089,-0.0445 0.4089,-0.099 z m 0.78947,-1.76111 c -0.16674,-0.31157 -0.37308,-0.49659 -0.45852,-0.41114 -0.0855,0.0854 0.01,0.46393 0.21164,0.84109 0.20185,0.37716 0.40819,0.56217 0.45853,0.41114 0.0503,-0.15102 -0.0449,-0.52952 -0.21165,-0.84109 z m -2.52164,-3.32633 c 0.22351,-1.19145 0.12209,-1.29609 -0.60219,-0.62132 -0.57766,0.53817 -0.72925,1.06842 -0.39966,1.398 0.42457,0.42458 0.83638,0.10532 1.00185,-0.77668 z m 0.14467,-4.23716 c 0,-0.0558 -0.30468,-0.10143 -0.67707,-0.10143 -0.37239,0 -0.6104,0.10788 -0.5289,0.23974 0.13555,0.21934 1.20597,0.0966 1.20597,-0.13831 z m 0.82605,-1.60294 c -0.3119,-0.53637 -0.38722,-0.36469 -0.1319,0.30065 0.0907,0.23646 0.22071,0.37419 0.28883,0.30607 0.0681,-0.0681 -0.002,-0.34115 -0.15693,-0.60672 z m -1.22292,-1.67349 c -0.12801,-0.20713 -0.28021,-0.2225 -0.4566,-0.0461 -0.14553,0.14552 -0.17818,0.40439 -0.0726,0.57527 0.12801,0.20713 0.28021,0.2225 0.4566,0.0461 0.14552,-0.14552 0.17818,-0.40439 0.0726,-0.57527 z m -0.12404,-2.60107 c -0.72417,-0.10875 -0.91671,0.0684 -0.69688,0.6413 0.15658,0.40803 0.21576,0.40357 0.72511,-0.0547 l 0.55462,-0.49903 z m -24.7468,16.61066 c -9.0771,-0.68045 -9.12812,-0.68845 -9.12812,-1.43133 0,-0.95151 1.18606,-4.81215 2.19793,-7.1543 2.33757,-5.41071 5.38395,-12.15641 7.32023,-16.20943 1.16793,-2.4447 2.12351,-4.58576 2.12351,-4.75791 0,-0.57288 -0.89899,-0.78706 -3.96875,-0.94553 -3.59509,-0.1856 -4.70038,-0.50163 -4.92814,-1.40913 -0.24081,-0.95944 0.0234,-3.43991 0.41691,-3.91405 0.41575,-0.50095 3.48974,-0.51673 10.71981,-0.055 l 4.75338,0.30356 0.24354,1.03318 c 0.43977,1.86567 -0.70869,5.23495 -4.92371,14.44494 -5.94654,12.9934 -6.15786,13.54491 -5.31507,13.87143 0.26867,0.10409 2.08707,0.3664 4.0409,0.58292 1.95382,0.21652 3.76812,0.50911 4.03177,0.65021 0.63341,0.33899 0.84073,1.26258 0.69038,3.07557 -0.0939,1.13227 -0.26624,1.60268 -0.72252,1.97216 -0.32957,0.26687 -0.73485,0.47025 -0.90063,0.45198 -0.16578,-0.0183 -3.15892,-0.24745 -6.65142,-0.50926 z m -4.48703,-2.87949 c -0.0959,-0.1552 -0.30102,-0.28219 -0.45577,-0.28219 -0.17544,0 -0.15537,0.15182 0.0533,0.40327 0.36289,0.43725 0.68721,0.33968 0.40245,-0.12108 z m -0.46839,-1.39013 c -0.16353,-0.4906 -0.73312,-0.57197 -0.73312,-0.10473 0,0.23041 0.18852,0.41892 0.41892,0.41892 0.23041,0 0.3718,-0.14138 0.3142,-0.31419 z m 4.29397,-12.5181 c 0,-0.21828 -0.19318,-0.39687 -0.42928,-0.39687 -0.35157,0 -0.36965,0.0718 -0.0999,0.39687 0.18116,0.21828 0.37433,0.39688 0.42927,0.39688 0.0549,0 0.0999,-0.1786 0.0999,-0.39688 z m 1.10683,-0.98337 c -0.18985,-0.18985 -0.31308,-0.20547 -0.31308,-0.0397 0,0.35316 0.31289,0.66605 0.48947,0.48947 0.0752,-0.0752 -0.004,-0.27759 -0.17639,-0.44979 z m 2.99421,-3.47785 c 0.49641,-0.27915 0.48315,-0.30296 -0.21434,-0.38468 -0.59245,-0.0694 -0.72683,-0.20417 -0.66146,-0.66331 0.062,-0.43528 0.29236,-0.59648 0.94194,-0.65911 0.8359,-0.0806 1.16656,-0.62238 0.59532,-0.97543 -0.14553,-0.0899 -0.26459,-0.57321 -0.26459,-1.07395 0,-1.05208 -0.24354,-1.1398 -0.95118,-0.3426 -0.36251,0.4084 -0.41117,0.6003 -0.1733,0.68351 0.49556,0.17334 0.39957,0.72102 -0.22552,1.28672 -0.6583,0.59575 -1.29583,1.75912 -1.29583,2.36462 0,0.34778 0.16609,0.39538 0.85989,0.24642 0.47295,-0.10154 1.09803,-0.31852 1.38907,-0.48219 z m 1.00554,-6.07996 c 0.0749,-0.1951 0.0281,-0.52252 -0.10398,-0.7276 -0.20656,-0.32079 -0.27365,-0.32079 -0.48021,0 -0.25644,0.39825 -0.10468,1.08232 0.24011,1.08232 0.11438,0 0.26922,-0.15962 0.34408,-0.35472 z m 1.508,-2.55569 c 0,-0.33151 -0.28079,-0.33151 -0.79375,0 -0.32093,0.2074 -0.28296,0.25725 0.19844,0.26053 0.32742,0.002 0.59531,-0.11501 0.59531,-0.26053 z m -1.05833,-2.20948 c 0,-0.61667 -0.5699,-2.02386 -0.81964,-2.02386 -0.32526,0 -0.30193,1.23957 0.0352,1.86948 0.31511,0.58878 0.78445,0.68115 0.78445,0.15438 z m 1.5875,-0.55303 c 0,-0.2097 -0.11084,-0.44976 -0.24631,-0.53348 -0.31456,-0.19442 -0.63092,0.30103 -0.41515,0.65015 0.2433,0.39367 0.66146,0.31991 0.66146,-0.11667 z m 5.39593,28.36094 c 0.10168,-2.65575 0.3502,-7.20989 0.55227,-10.12031 0.20207,-2.91041 0.51218,-8.68495 0.68913,-12.83229 0.20629,-4.8351 0.42606,-7.61209 0.61251,-7.73981 0.15993,-0.10956 1.54094,-0.16909 3.06891,-0.1323 l 2.77812,0.0669 -0.0796,4.36563 c -0.0438,2.40109 -0.19063,6.15156 -0.32627,8.33437 -0.13564,2.18281 -0.36534,6.88578 -0.51046,10.45104 -0.14511,3.56526 -0.337,7.70021 -0.42642,9.18876 l -0.16258,2.70647 -0.9671,0.26862 c -0.53191,0.14774 -1.9675,0.26928 -3.19021,0.27009 l -2.22311,0.002 0.18486,-4.82864 z m 2.80615,-1.65364 c 0,-0.21828 -0.17859,-0.39688 -0.39688,-0.39688 -0.41316,0 -0.52492,0.31293 -0.22048,0.61736 0.30444,0.30444 0.61736,0.19268 0.61736,-0.22048 z m -0.0247,-8.02689 c -0.31114,-0.89253 -0.76906,-1.12741 -0.76906,-0.39447 0,0.43028 0.78765,1.50419 0.96971,1.32214 0.05,-0.0501 -0.0402,-0.46751 -0.20065,-0.92767 z m 0.7965,-3.9432 c -0.181,-0.54697 -0.37874,-0.8467 -0.43943,-0.66607 -0.0607,0.18063 0.0377,0.77594 0.21873,1.32291 0.181,0.54698 0.37875,0.84671 0.43944,0.66608 0.0607,-0.18064 -0.0377,-0.77595 -0.21874,-1.32292 z m 1.87402,-3.25907 c 0,-0.13693 -0.11906,-0.24897 -0.26458,-0.24897 -0.14552,0 -0.26458,0.18562 -0.26458,0.41249 0,0.22687 0.11906,0.33891 0.26458,0.24897 0.14552,-0.0899 0.26458,-0.27556 0.26458,-0.41249 z m -1.70676,-0.721 c -0.25474,-0.25475 -0.93907,0.20947 -0.93907,0.63703 0,0.40717 0.0464,0.40418 0.53079,-0.0342 0.29193,-0.2642 0.47566,-0.53549 0.40828,-0.60286 z m 0.92083,-3.21326 c -0.35009,-0.8452 -0.48196,-0.91866 -1.173,-0.65348 -0.36914,0.14165 -0.37152,0.2208 -0.0216,0.72033 0.21619,0.30865 0.39307,0.85881 0.39307,1.22257 v 0.66138 l 0.56908,-0.56908 c 0.51103,-0.51103 0.53475,-0.65199 0.23249,-1.38172 z m 0.95765,-8.13744 c -0.32567,-0.32566 -1.09167,0.32255 -1.18388,1.00184 l -0.0861,0.63444 0.73354,-0.71959 c 0.40345,-0.39577 0.64485,-0.80828 0.53645,-0.91669 z m -39.46234,32.00419 c -1.22393,-0.30084 -1.26709,-0.48416 -1.07459,-4.56438 0.0997,-2.11371 0.41135,-7.53406 0.69252,-12.0452 0.54669,-8.77139 0.63208,-12.50188 0.29821,-13.02756 -0.11442,-0.18016 -1.48182,-0.5246 -3.03866,-0.76543 l -2.83061,-0.43786 0.003,-1.48353 c 0.002,-0.81595 0.0767,-1.93002 0.16691,-2.47573 l 0.164,-0.99218 4.79403,0.005 c 4.90889,0.006 12.03888,0.37299 13.27918,0.68429 l 0.6936,0.17408 -0.18716,2.41236 c -0.10293,1.3268 -0.2153,2.44388 -0.24969,2.4824 -0.0344,0.0385 -1.39032,0.14601 -3.01316,0.23886 -2.29851,0.13151 -2.95062,0.25216 -2.95062,0.54589 0,0.20738 -0.11963,1.76677 -0.26584,3.4653 -0.14621,1.69853 -0.50606,7.73168 -0.79966,13.40699 -0.2936,5.67531 -0.60555,10.7143 -0.69323,11.19775 -0.10987,0.60583 -0.36007,0.9553 -0.80506,1.12448 -0.66352,0.25227 -3.24114,0.28556 -4.18308,0.054 z m 3.25768,-8.52325 c 0.0661,-0.19844 -0.0331,-0.29766 -0.23151,-0.23151 -0.191,0.0637 -0.39936,0.27202 -0.46302,0.46302 -0.0661,0.19843 0.0331,0.29765 0.23151,0.23151 0.19099,-0.0637 0.39935,-0.27203 0.46302,-0.46302 z m -1.14102,-2.39779 c -0.0899,-0.14552 -0.27555,-0.26458 -0.41249,-0.26458 -0.13693,0 -0.24897,0.11906 -0.24897,0.26458 0,0.14552 0.18563,0.26458 0.4125,0.26458 0.22687,0 0.3389,-0.11906 0.24896,-0.26458 z m 1.17203,-9.60676 c -0.0179,-0.5589 -0.0267,-0.56071 -0.24599,-0.0505 -0.31294,0.72826 -0.31294,0.98716 0,0.79375 0.14553,-0.0899 0.25622,-0.42439 0.24599,-0.74322 z m -1.5689,0.21405 c 0,-0.42048 -0.9293,-0.55512 -1.16782,-0.16919 -0.19539,0.31614 0.10606,0.56607 0.68275,0.56607 0.26679,0 0.48507,-0.1786 0.48507,-0.39688 z m 2.51354,-7.80521 c -0.0899,-0.14552 -0.28258,-0.26458 -0.4281,-0.26458 -0.14552,0 -0.191,0.11906 -0.10107,0.26458 0.0899,0.14552 0.28259,0.26459 0.42811,0.26459 0.14552,0 0.191,-0.11907 0.10106,-0.26459 z m 0.9908,-3.57187 c -0.15227,-0.79656 0.54013,-0.91439 1.30509,-0.22211 0.71078,0.64324 0.79571,0.33312 0.17657,-0.64474 -0.64985,-1.02637 -1.01843,-1.0616 -1.99469,-0.19068 l -0.74235,0.66227 0.62462,0.52836 c 0.78396,0.66314 0.78301,0.66334 0.63076,-0.1331 z m -2.97518,-0.52917 c 0,-0.3638 -0.10632,-0.66146 -0.23627,-0.66146 -0.30858,0 -0.60166,0.7728 -0.41043,1.08221 0.28821,0.46633 0.6467,0.23309 0.6467,-0.42075 z m -4.98619,-1.4818 c -0.48684,-0.44266 -0.95363,-0.73636 -1.03733,-0.65266 -0.2357,0.2357 1.03666,1.47397 1.50558,1.46525 0.28079,-0.005 0.1279,-0.27054 -0.46825,-0.81259 z m 6.99675,-0.16772 c -0.29362,-0.29362 -3.06889,-0.79926 -3.06889,-0.55914 0,0.11503 0.38695,0.32089 0.8599,0.45744 1.0494,0.30301 2.47597,0.36868 2.20899,0.1017 z m -18.38556,33.19843 -2.48439,-0.25735 0.17326,-2.94578 c 0.0953,-1.62018 0.40838,-7.82734 0.69574,-13.7937 0.61233,-12.71329 1.01565,-18.43149 1.32258,-18.75089 0.29221,-0.3041 5.48089,-0.0893 5.7789,0.23925 0.26039,0.28706 -0.0654,10.20748 -0.49065,14.93977 -0.15037,1.67349 -0.4478,6.91224 -0.66095,11.64167 -0.3387,7.51536 -0.44439,8.64063 -0.83867,8.92968 -0.24811,0.18191 -0.57719,0.31363 -0.73128,0.29272 -0.15409,-0.0209 -1.39813,-0.15383 -2.76454,-0.29537 z m 0.71388,-6.56563 c -0.0522,-0.15643 -0.20792,-0.28442 -0.34617,-0.28442 -0.13824,0 -0.29402,0.12799 -0.34616,0.28442 -0.0522,0.15644 0.10363,0.28443 0.34616,0.28443 0.24254,0 0.39831,-0.12799 0.34617,-0.28443 z m 0.31529,-7.27359 c 0,-0.42475 -0.59672,-1.17323 -0.93535,-1.17323 -0.50512,0 -0.49312,0.38581 0.0282,0.90714 0.41081,0.41081 0.90714,0.5564 0.90714,0.26609 z m 0.15538,-4.75842 c -0.26676,-0.72845 -0.38832,-0.8699 -0.40132,-0.46693 -0.0229,0.70884 0.53309,2.17477 0.67879,1.78985 0.0579,-0.15285 -0.067,-0.74816 -0.27747,-1.32292 z m 1.96129,-3.30959 c 0,-0.13693 -0.11906,-0.24897 -0.26459,-0.24897 -0.14552,0 -0.26458,0.18562 -0.26458,0.41249 0,0.22687 0.11906,0.33891 0.26458,0.24897 0.14553,-0.0899 0.26459,-0.27556 0.26459,-0.41249 z m -1.70676,-0.72101 c -0.25475,-0.25475 -0.93908,0.20947 -0.93908,0.63703 0,0.40717 0.0464,0.40419 0.53079,-0.0342 0.29194,-0.26419 0.47567,-0.53548 0.40829,-0.60286 z m 1.17759,-1.51233 c 0,-0.70599 -0.48061,-0.86877 -1.00797,-0.34141 -0.25035,0.25035 -0.18984,0.39237 0.27781,0.65208 0.32883,0.18262 0.62764,0.33625 0.66402,0.34141 0.0364,0.005 0.0661,-0.28828 0.0661,-0.65208 z m -0.79375,-1.85209 c 0,-0.21828 -0.17859,-0.39687 -0.39687,-0.39687 -0.21828,0 -0.39688,0.17859 -0.39688,0.39687 0,0.21828 0.1786,0.39688 0.39688,0.39688 0.21828,0 0.39687,-0.1786 0.39687,-0.39688 z m 0.79375,-1.98437 c -0.51815,-0.33486 -0.86841,-0.33486 -0.66146,0 0.0899,0.14552 0.36486,0.26276 0.61093,0.26053 0.38557,-0.003 0.39256,-0.0395 0.0505,-0.26053 z m 0.62939,-5.19947 c 0.38585,-0.38585 0.63826,-0.76483 0.56092,-0.84217 -0.17988,-0.17988 -1.52007,0.81321 -1.6587,1.22909 -0.17938,0.53815 0.36436,0.3465 1.09778,-0.38692 z m -21.27357,23.09522 c -0.636,-5.186 -1.24845,-9.42909 -1.36098,-9.42909 -0.33334,0 -1.17736,3.13433 -2.86446,10.63736 -0.87379,3.88601 -1.58871,7.13046 -1.58871,7.20989 0,0.0794 -1.23109,0.14442 -2.73575,0.14442 h -2.73574 l -0.437,-3.10885 c -0.49286,-3.50625 -3.23379,-27.1626 -3.50591,-30.25865 -0.13712,-1.56014 -0.096,-2.06448 0.18248,-2.23657 0.19773,-0.12221 1.37766,-0.27087 2.62205,-0.33037 1.82384,-0.0872 2.3292,-0.0279 2.6063,0.30603 0.22624,0.2726 0.61153,3.4261 1.12699,9.22391 0.84729,9.53037 0.92044,10.09587 1.27736,9.87529 0.24737,-0.15289 1.45893,-5.11235 3.07197,-12.57496 0.51899,-2.40109 1.15525,-4.78234 1.41392,-5.29166 0.45734,-0.90053 0.51799,-0.92818 2.2011,-1.00359 1.26927,-0.0569 1.837,0.0287 2.12907,0.32073 0.52072,0.52072 0.84186,2.45162 1.79609,10.79922 0.82341,7.20317 0.972,8.13989 1.29118,8.13989 0.2783,0 0.91649,-2.82834 1.99997,-8.86354 0.5225,-2.91042 1.19244,-6.33347 1.48875,-7.60678 l 0.53876,-2.3151 h 2.16804 c 2.25193,0 3.34412,0.39847 3.34412,1.22005 0,0.36813 -5.83638,27.78028 -6.72126,31.56822 -0.55886,2.39233 -0.8719,2.62844 -3.75621,2.83318 l -2.39575,0.17005 z m 4.70143,3.6114 c 0.1366,-0.4162 -1.20925,-0.75682 -1.56898,-0.39709 -0.15129,0.1513 -0.19087,0.41134 -0.0879,0.57788 0.23783,0.38482 1.51709,0.24523 1.65692,-0.18079 z m -11.12859,-1.44843 c -0.0845,-0.21107 -0.14716,-0.14837 -0.15985,0.15985 -0.0115,0.27892 0.051,0.43519 0.13896,0.34727 0.0879,-0.0879 0.0973,-0.31612 0.0209,-0.50712 z m -2.82658,-0.46394 c 0,-0.73495 -0.39821,-1.2931 -0.70423,-0.98707 -0.21717,0.21716 0.18683,1.7652 0.46067,1.7652 0.13396,0 0.24356,-0.35016 0.24356,-0.77813 z m 1.16855,-0.97953 c 0.2215,-0.57723 -0.0726,-0.84553 -0.38513,-0.35134 -0.31288,0.49473 -0.31954,0.78609 -0.018,0.78609 0.12996,0 0.31135,-0.19564 0.40311,-0.43475 z m 1.48543,-1.63909 c -0.19569,-0.33528 -0.25456,-0.18837 -0.24791,0.61863 0.008,0.92565 0.0398,0.98077 0.25664,0.4397 0.15629,-0.39 0.15306,-0.78113 -0.009,-1.05833 z m -2.15146,-0.0208 c 0.30968,-0.19607 0.2838,-0.40095 -0.15823,-1.25272 -0.6245,-1.20338 -1.48325,-1.3918 -1.62641,-0.35685 -0.0503,0.3638 -0.2094,0.80507 -0.35351,0.9806 -0.1441,0.17553 -0.1852,0.44342 -0.0913,0.59531 0.20736,0.33552 1.71673,0.35831 2.22947,0.0337 z m 2.67248,-1.90245 c 0,-0.12995 -0.17859,-0.23628 -0.39687,-0.23628 -0.21828,0 -0.39688,0.17486 -0.39688,0.38858 0,0.23669 0.15513,0.32904 0.39688,0.23627 0.21828,-0.0838 0.39687,-0.25862 0.39687,-0.38857 z m 12.96238,-0.49389 c 0.29722,-0.18792 0.3196,-0.32457 0.0907,-0.55353 -0.22895,-0.22895 -0.37767,-0.16635 -0.60241,0.25357 -0.3185,0.59512 -0.12993,0.70564 0.51176,0.29996 z m -16.25767,-1.60699 c 0.61812,-0.64518 0.69845,-0.85202 0.40203,-1.03522 -0.20374,-0.12591 -0.61837,-0.74536 -0.9214,-1.37654 -0.37152,-0.77384 -0.74484,-1.17513 -1.14627,-1.23214 -0.32743,-0.0465 -0.59532,0.0428 -0.59532,0.19843 0,0.15565 0.10462,0.28299 0.23249,0.28299 0.12786,0 0.38549,0.3694 0.5725,0.82089 0.26486,0.63941 0.27195,1.00913 0.0321,1.67243 -0.16935,0.46835 -0.30792,0.99192 -0.30792,1.16349 0,0.58644 0.95845,0.31286 1.73179,-0.49433 z m 11.3958,-0.9962 c -0.37002,-0.37002 -0.42759,-0.37364 -0.42759,-0.0269 0,0.54359 0.61911,1.1627 0.75501,0.75501 0.0551,-0.16527 -0.0923,-0.4929 -0.32742,-0.72807 z m -6.75082,-3.1485 c -0.25415,-0.43672 -0.27588,-0.43072 -0.28331,0.0782 -0.009,0.61247 0.32682,1.09002 0.46819,0.66591 0.0497,-0.14913 -0.0335,-0.48399 -0.18488,-0.74414 z m 6.52299,-0.93601 c -0.0599,-0.1819 -0.39725,-0.36399 -0.74965,-0.40465 -0.62049,-0.0716 -0.6245,-0.0611 -0.12714,0.33073 0.6219,0.48999 1.02501,0.52398 0.87679,0.0739 z m 6.83926,-0.39136 c -0.26895,-0.26895 -0.49087,0.13596 -0.2702,0.49302 0.1667,0.26972 0.22902,0.26993 0.31864,10e-4 0.0613,-0.18383 0.0395,-0.40617 -0.0484,-0.49408 z m -0.92614,-1.47295 c -0.33959,-0.33959 -0.68396,-0.0771 -0.43255,0.32967 0.0974,0.15757 0.29828,0.21159 0.44642,0.12003 0.18071,-0.11169 0.17615,-0.25968 -0.0139,-0.4497 z m -6.9251,-4.21936 c -0.13536,-0.47198 -0.24611,-0.8887 -0.24611,-0.92604 0,-0.0373 -0.1228,-0.0679 -0.27289,-0.0679 -0.51473,0 -0.58497,0.81353 -0.11507,1.33277 0.68629,0.75833 0.91386,0.63672 0.63407,-0.33884 z m -2.16422,0.13055 c 0.0646,-0.19399 -0.11778,-0.33073 -0.44109,-0.33073 -0.325,0 -0.55122,0.17084 -0.55122,0.41627 0,0.48627 0.82562,0.4151 0.99231,-0.0855 z m 0.26997,-1.96784 c -0.16353,-0.4906 -0.73311,-0.57197 -0.73311,-0.10473 0,0.2304 0.18851,0.41892 0.41892,0.41892 0.23041,0 0.3718,-0.14139 0.31419,-0.31419 z m 9.58564,40.88672 c 0,-0.54663 -0.73972,-0.42203 -1.06126,0.17877 -0.41582,0.77697 -0.0541,1.18651 0.55836,0.63222 0.27659,-0.25032 0.5029,-0.61526 0.5029,-0.81099 z m -20.04219,-0.28413 c 0.63107,-0.28185 1.0457,-1.13007 0.55241,-1.13007 -0.40101,0 -2.42019,1.339 -2.55707,1.69569 -0.21666,0.56462 0.41681,0.70561 0.88018,0.19591 0.21828,-0.24011 0.7243,-0.58279 1.12448,-0.76153 z m 7.60677,1.01703 c 0,-0.12878 -0.29766,-0.42919 -0.66146,-0.66756 -0.56293,-0.36884 -0.66146,-0.37534 -0.66146,-0.0436 0,0.2144 0.20836,0.51118 0.46303,0.65951 0.57868,0.33705 0.85989,0.35393 0.85989,0.0516 z m 14.81667,-0.31063 c 0,-0.13693 -0.1786,-0.24897 -0.39688,-0.24897 -0.40915,0 -0.52564,0.3122 -0.22768,0.61017 0.21139,0.21139 0.62456,-0.0276 0.62456,-0.3612 z m -12.96459,-0.79375 c 0,-0.28245 -0.17859,-0.51355 -0.39687,-0.51355 -0.39244,0 -0.55476,0.81225 -0.22768,1.13934 0.27585,0.27585 0.62455,-0.0735 0.62455,-0.62579 z m 5.65076,-0.27205 c -0.34896,-0.34896 -0.78453,-0.51197 -1.18327,-0.44283 -0.59245,0.10273 -0.57441,0.13585 0.29501,0.54189 1.26287,0.58978 1.54558,0.55825 0.88826,-0.0991 z m 3.21394,0.2858 c 0.0906,-0.14655 -0.0266,-0.33985 -0.26038,-0.42956 -0.50658,-0.1944 -0.78891,0.0198 -0.5454,0.41382 0.2197,0.35549 0.59132,0.36275 0.80578,0.0158 z m -14.31696,-0.41665 c 0.0883,-0.23018 0.1606,-0.60195 0.1606,-0.82614 0,-0.33234 -0.0733,-0.3468 -0.39688,-0.0783 -0.42915,0.35616 -0.54651,1.32292 -0.1606,1.32292 0.12996,0 0.30855,-0.18833 0.39688,-0.41852 z m -20.62608,-1.25159 c 0.13623,-0.38545 0.16477,-0.78375 0.0634,-0.8851 -0.24904,-0.24904 -0.95366,0.716 -0.96415,1.32048 -0.0121,0.69563 0.60671,0.39653 0.90074,-0.43538 z m 3.08701,-0.26039 c -0.21294,-0.21295 -0.28982,-0.0807 -0.28395,0.48852 0.007,0.68424 0.0431,0.72026 0.292,0.292 0.2035,-0.35012 0.20122,-0.57125 -0.008,-0.78052 z m 11.46032,0.97615 c 0.62374,-0.23935 0.50555,-0.63315 -0.19003,-0.63315 -0.3347,0 -0.73265,-0.12411 -0.88434,-0.2758 -0.19134,-0.19134 -0.38463,-0.14465 -0.63121,0.15246 -0.29877,0.35999 -0.29487,0.46656 0.0245,0.66862 0.44356,0.28067 1.09056,0.31449 1.68113,0.0879 z m -22.66638,-0.90557 c 0.76398,-0.43814 1.38906,-0.91327 1.38906,-1.05585 0,-0.41203 -0.45672,-0.30048 -0.63118,0.15415 -0.12558,0.32724 -0.40062,0.37709 -1.31994,0.23923 -1.26819,-0.19017 -1.63315,0.0622 -1.35542,0.93725 0.21529,0.67834 0.26893,0.67065 1.91748,-0.27478 z m 18.98385,0.27242 c 0.29994,-0.33143 0.3582,-0.52917 0.15591,-0.52917 -0.55591,0 -1.36868,0.54387 -1.20604,0.80702 0.23553,0.38109 0.52252,0.30515 1.05013,-0.27785 z m -4.74681,-0.55456 c 0.0986,-0.15948 -0.0135,-0.48265 -0.24897,-0.71816 -0.39451,-0.39452 -0.42818,-0.37172 -0.42818,0.28998 0,0.73069 0.35245,0.95356 0.67715,0.42818 z m -17.08131,-0.76836 c 0.30926,-0.19986 0.23625,-0.25737 -0.33073,-0.26053 -0.40018,-0.002 -0.72761,0.11501 -0.72761,0.26053 0,0.33454 0.54067,0.33454 1.05834,0 z m 157.427083,-0.41249 c 0,-0.22687 -0.119062,-0.33891 -0.264583,-0.24897 -0.145521,0.0899 -0.264584,0.27556 -0.264584,0.41249 0,0.13693 0.119063,0.24897 0.264584,0.24897 0.145521,0 0.264583,-0.18562 0.264583,-0.41249 z m 1.058333,-2.46962 c 0,-0.12995 -0.178593,-0.30481 -0.396875,-0.38857 -0.403299,-0.15476 -0.541864,0.12708 -0.220485,0.44846 0.25286,0.25286 0.61736,0.2175 0.61736,-0.0599 z m 0.264584,-4.26994 c 0,-0.31675 -0.746289,-0.65652 -0.963946,-0.43886 -0.231698,0.23169 0.161303,0.71174 0.582686,0.71174 0.209693,0 0.38126,-0.1228 0.38126,-0.27288 z m -0.598461,-9.17022 c -0.246002,-0.246 -0.521563,-0.37299 -0.61236,-0.28219 -0.260398,0.2604 0.139353,0.72946 0.621673,0.72946 0.403881,0 0.403156,-0.0348 -0.0093,-0.44727 z m 1.392211,-1.00794 c 0,-0.21828 0.248047,-0.64492 0.551214,-0.94809 0.695148,-0.69515 0.474991,-0.96452 -0.328393,-0.40181 -0.33283,0.23312 -0.87631,0.42386 -1.207735,0.42386 -0.71645,0 -0.753452,0.1885 -0.164703,0.83906 0.529783,0.58541 1.149617,0.6323 1.149617,0.087 z m -1.190625,-2.77812 c -0.128011,-0.20713 -0.280213,-0.2225 -0.456602,-0.0461 -0.145521,0.14552 -0.178173,0.40439 -0.07256,0.57527 0.128011,0.20713 0.280212,0.2225 0.456602,0.0461 0.145521,-0.14552 0.178173,-0.40439 0.07256,-0.57527 z m 1.190625,-5.96874 c 0,-0.50074 -0.119063,-0.91043 -0.264584,-0.91043 -0.14552,0 -0.264583,0.48328 -0.264583,1.07395 0,0.64859 0.104794,1.00918 0.264583,0.91043 0.145521,-0.0899 0.264584,-0.57322 0.264584,-1.07395 z m 1.058333,-3.73727 c 0,-0.22556 -0.193125,-0.35038 -0.463021,-0.29925 -0.317957,0.0602 -0.485206,0.37716 -0.533831,1.01159 l -0.07081,0.92388 0.533834,-0.62463 c 0.293605,-0.34354 0.533831,-0.79876 0.533831,-1.01159 z m -0.05292,-5.16358 c 0.579343,-0.57934 0.328822,-0.76027 -0.47625,-0.34395 -0.436562,0.22575 -0.79375,0.46693 -0.79375,0.53596 0,0.25893 0.964944,0.11305 1.27,-0.19201 z m -0.4803,-2.52677 c -0.0021,-0.25466 -0.114888,-0.63828 -0.250352,-0.85248 -0.210989,-0.33363 -0.271362,-0.32414 -0.421129,0.0661 -0.208254,0.54269 0.0195,1.24935 0.402645,1.24935 0.150088,0 0.271063,-0.20836 0.268836,-0.46302 z m -161.023033,-0.22054 c 0.0989,-0.25768 0.0397,-0.37864 -0.1536,-0.3142 -0.3955,0.13184 -0.61327,0.73318 -0.26551,0.73318 0.14208,0 0.33068,-0.18854 0.41911,-0.41898 z m 160.764484,-4.45122 c -0.553944,-0.54614 -0.566917,-0.5467 -0.943284,-0.0402 -0.474327,0.63837 -0.485196,0.94162 -0.03375,0.94162 0.191328,0 0.576958,0.44648 0.856954,0.99219 l 0.509084,0.99219 0.08633,-1.16604 c 0.06754,-0.91224 -0.03592,-1.28656 -0.47534,-1.71979 z m -159.810314,0.37228 c 0,-0.14552 -0.23813,-0.26458 -0.52917,-0.26458 -0.29104,0 -0.52917,0.11906 -0.52917,0.26458 0,0.14552 0.23813,0.26459 0.52917,0.26459 0.29104,0 0.52917,-0.11907 0.52917,-0.26459 z m -0.52917,-1.85208 c 0,-0.29104 -0.11906,-0.52917 -0.26458,-0.52917 -0.14552,0 -0.26459,0.23813 -0.26459,0.52917 0,0.29104 0.11907,0.52917 0.26459,0.52917 0.14552,0 0.26458,-0.23813 0.26458,-0.52917 z m 161.925,-3.43958 c 0,-0.14552 -0.208359,-0.26276 -0.463021,-0.26054 -0.395697,0.003 -0.405315,0.0413 -0.06615,0.26054 0.499325,0.32269 0.529167,0.32269 0.529167,0 z m -161.39583,-0.92604 c 0.26976,-0.32505 0.25168,-0.39688 -0.0999,-0.39688 -0.2361,0 -0.42927,0.17859 -0.42927,0.39688 0,0.21828 0.045,0.39687 0.0999,0.39687 0.0549,0 0.24811,-0.17859 0.42927,-0.39687 z m 160.60208,-0.89774 c 0,-0.12995 -0.178594,-0.30481 -0.396875,-0.38857 -0.403299,-0.15476 -0.541864,0.12708 -0.220485,0.44846 0.25286,0.25286 0.61736,0.2175 0.61736,-0.0599 z m -160.3375,-2.85675 c 0,-0.37827 -0.0621,-0.37236 -0.52917,0.0503 -0.29104,0.26339 -0.52916,0.58369 -0.52916,0.71177 0,0.12809 0.23812,0.10545 0.52916,-0.0503 0.29105,-0.15576 0.52917,-0.47606 0.52917,-0.71178 z m 0,-3.17934 c 0,-0.53911 -0.69601,-0.40112 -1.5066,0.29869 l -0.74236,0.6409 1.12448,-0.29869 c 0.61846,-0.16428 1.12448,-0.45268 1.12448,-0.6409 z m 156.777383,0.47056 c -0.09543,-0.15442 -0.414028,-0.40948 -0.70798,-0.5668 -0.480997,-0.25742 -0.506293,-0.2334 -0.252878,0.2401 0.262684,0.49083 0.830596,0.86477 1.041741,0.68593 0.05095,-0.0432 0.01455,-0.20481 -0.08088,-0.35923 z m -15.225293,-0.51324 c 0,-0.25464 -0.153,-0.67222 -0.34,-0.92796 -0.3204,-0.43816 -0.36985,-0.43199 -0.8576,0.10696 -0.51535,0.56945 -0.5149,0.57413 0.10298,1.07445 0.68365,0.55359 1.09462,0.45843 1.09462,-0.25345 z m -24.40769,0.16348 c -0.0606,-0.1819 -0.33459,-0.37422 -0.60894,-0.42739 -0.43156,-0.0836 -0.451,-0.039 -0.14412,0.33073 0.41969,0.50569 0.91021,0.56865 0.75306,0.0967 z m 5.22861,-0.4157 c -0.21024,-0.21024 -0.66515,0.26703 -0.50362,0.52838 0.10986,0.17777 0.24621,0.1507 0.3868,-0.0768 0.11942,-0.19322 0.17199,-0.39645 0.11682,-0.45161 z m 31.56505,0.28341 c -0.0485,-0.25466 -0.35493,-0.50106 -0.68087,-0.54757 -0.64025,-0.0913 -0.67565,-0.0428 -0.432,0.59208 0.22732,0.59239 1.22664,0.55243 1.11287,-0.0445 z m -9.47556,-0.61092 c 0,-0.29963 -0.11906,-0.4712 -0.26458,-0.38126 -0.14552,0.0899 -0.26458,0.33508 -0.26458,0.54478 0,0.20969 0.11906,0.38126 0.26458,0.38126 0.14552,0 0.26458,-0.24516 0.26458,-0.54478 z m -32.00927,-0.12308 c 0.18407,-0.22179 0.27522,-0.46272 0.20255,-0.53539 -0.21629,-0.21629 -0.94954,0.15675 -1.10514,0.56225 -0.19317,0.5034 0.47912,0.48339 0.90259,-0.0269 z m 7.24865,-0.0315 c 0.0918,-0.23911 0.10737,-0.4942 0.0347,-0.56687 -0.21063,-0.21063 -0.94824,0.50748 -0.78784,0.76701 0.22704,0.36735 0.57039,0.27611 0.75314,-0.20014 z m -121.81855,-0.0944 c 0,-0.14552 -0.18562,-0.26459 -0.41249,-0.26459 -0.22687,0 -0.3389,0.11907 -0.24896,0.26459 0.0899,0.14552 0.27555,0.26458 0.41249,0.26458 0.13693,0 0.24896,-0.11906 0.24896,-0.26458 z m 150.68343,-0.48186 c -0.21024,-0.21024 -0.66515,0.26704 -0.50362,0.52839 0.10986,0.17776 0.24621,0.1507 0.3868,-0.0768 0.11942,-0.19322 0.17199,-0.39645 0.11682,-0.45162 z m -38.81759,0.16436 c 0.56896,-0.56896 0.33435,-0.76408 -0.36654,-0.30484 -0.55195,0.36166 -0.72561,0.38094 -0.89934,0.0998 -0.13513,-0.21865 -0.39764,-0.27417 -0.70502,-0.14912 -0.46705,0.19002 -0.46522,0.20933 0.0394,0.41684 0.78331,0.32208 1.57227,0.29646 1.93146,-0.0627 z m -7.35542,-0.63977 c 0,-0.21829 -0.11906,-0.3233 -0.26458,-0.23336 -0.14552,0.0899 -0.26458,0.34212 -0.26458,0.5604 0,0.21828 0.11906,0.32329 0.26458,0.23335 0.14552,-0.0899 0.26458,-0.34211 0.26458,-0.56039 z m -13.49375,-0.64585 c 0,-0.4722 -0.11022,-0.74124 -0.26458,-0.64584 -0.14552,0.0899 -0.26458,0.45415 -0.26458,0.80936 0,0.35522 0.11906,0.64585 0.26458,0.64585 0.14552,0 0.26458,-0.36422 0.26458,-0.80937 z m 3.91621,0.30952 c 0.0724,-0.21947 0.003,-0.29449 -0.17225,-0.1862 -0.16139,0.0997 -0.54422,0.0471 -0.85073,-0.1169 -0.69093,-0.36978 -0.96842,-0.1439 -0.50669,0.41245 0.40486,0.48782 1.35516,0.41989 1.52967,-0.10935 z m 4.62996,0.14512 c 0.20557,-0.53569 -0.23355,-1.06722 -0.72567,-0.87838 -0.34674,0.13306 -0.3771,0.27508 -0.14968,0.70001 0.32961,0.61588 0.68006,0.68729 0.87535,0.17837 z m 9.14718,-0.0247 c 0.84427,-0.43659 1.50419,-1.14873 1.27598,-1.37694 -0.18287,-0.18287 -1.82864,0.79084 -2.30323,1.36269 -0.43144,0.51985 0.037,0.52634 1.02725,0.0143 z m 24.90457,-0.0174 c 0,-0.21828 -0.17859,-0.39687 -0.39688,-0.39687 -0.41316,0 -0.52492,0.31292 -0.22048,0.61736 0.30444,0.30444 0.61736,0.19268 0.61736,-0.22049 z m -51.06458,-0.52916 c 0.26976,-0.32505 0.25168,-0.39688 -0.0999,-0.39688 -0.2361,0 -0.42927,0.17859 -0.42927,0.39688 0,0.21828 0.045,0.39687 0.0999,0.39687 0.0549,0 0.24812,-0.17859 0.42928,-0.39687 z m 7.0107,-0.39451 c 0.19195,-0.60479 -0.0507,-1.14187 -0.4144,-0.91711 -0.32105,0.19841 -0.32066,1.44391 4.5e-4,1.44391 0.13571,0 0.32199,-0.23706 0.41395,-0.5268 z m 12.1188,-0.4414 c -0.17464,-0.4551 -0.87325,-0.46371 -0.87325,-0.0108 0,0.55164 0.59419,1.03726 0.82071,0.67075 0.10376,-0.1679 0.12741,-0.46489 0.0525,-0.65999 z m -23.09826,0.30674 c 0,-0.21828 -0.11203,-0.39688 -0.24896,-0.39688 -0.33364,0 -0.57259,0.41317 -0.3612,0.62456 0.29797,0.29797 0.61016,0.18147 0.61016,-0.22768 z m 2.39125,-0.38612 c 0.5936,-0.50739 0.77049,-0.78679 0.50253,-0.79375 -0.22744,-0.006 -0.75573,0.34643 -1.17398,0.78299 -0.97906,1.02192 -0.52013,1.02927 0.67145,0.0108 z m 5.81084,0.38612 c -0.18116,-0.21828 -0.46363,-0.39309 -0.62771,-0.38846 -0.16408,0.005 -0.0672,0.18322 0.21526,0.39687 0.65978,0.49904 0.8307,0.49555 0.41245,-0.008 z m -32.80834,-0.93457 c 0,-0.15021 0.2679,-0.37607 0.59532,-0.50192 0.58927,-0.22649 0.58776,-0.23177 -0.14952,-0.52064 -1.36415,-0.53449 -1.96038,-0.25422 -1.63567,0.76887 0.16999,0.53559 1.18987,0.75303 1.18987,0.25369 z m 4.9781,-0.18275 c -0.0776,-0.40278 -1.87621,-1.645 -2.39841,-1.65645 -0.10914,-0.002 -0.19844,0.2933 -0.19844,0.6571 0,0.57957 0.11466,0.66146 0.92605,0.66146 0.64675,0 0.92604,0.11969 0.92604,0.39688 0,0.21828 0.18732,0.39687 0.41627,0.39687 0.25155,0 0.38154,-0.1804 0.32849,-0.45586 z M -205.9,380.64828 c -0.0815,-0.0815 -0.29495,-1.7e-4 -0.47443,0.18065 -0.25936,0.26131 -0.22897,0.2917 0.14812,0.14811 0.26093,-0.0994 0.40778,-0.2473 0.32631,-0.32876 z m 13.08988,0.0812 c 0,-0.21828 -0.1786,-0.39687 -0.39688,-0.39687 -0.21828,0 -0.39687,0.17859 -0.39687,0.39687 0,0.21828 0.17859,0.39688 0.39687,0.39688 0.21828,0 0.39688,-0.1786 0.39688,-0.39688 z m -16.64891,-0.20505 c -0.0327,-0.31636 -0.39563,-0.25509 -0.50932,0.086 -0.0582,0.17462 0.037,0.26987 0.21167,0.21167 0.17462,-0.0582 0.30857,-0.19216 0.29765,-0.29766 z m -4.25723,-0.78714 c 0.002,-0.10914 -0.11501,-0.19843 -0.26053,-0.19843 -0.14552,0 -0.26276,0.26789 -0.26053,0.59531 0.003,0.48139 0.0531,0.51937 0.26053,0.19844 0.14107,-0.21828 0.25831,-0.48618 0.26053,-0.59532 z m -11.22928,0.31219 c 0.0962,-0.15572 0.42003,-0.37377 0.71953,-0.48456 0.44338,-0.16402 0.46857,-0.2306 0.13559,-0.35838 -0.43584,-0.16725 -1.52804,0.45924 -1.52804,0.87649 0,0.33905 0.45671,0.31629 0.67292,-0.0335 z m 5.94167,-1.31999 c 0,-0.13693 -0.11906,-0.24897 -0.26459,-0.24897 -0.14552,0 -0.26458,0.18562 -0.26458,0.41249 0,0.22687 0.11906,0.33891 0.26458,0.24897 0.14553,-0.0899 0.26459,-0.27556 0.26459,-0.41249 z m -30.1625,-0.6242 c 0,-0.0609 0.0723,-0.29899 0.1606,-0.52917 0.17701,-0.46129 -0.32339,-0.55868 -0.9221,-0.17946 -0.42689,0.27039 -0.17214,0.81928 0.38024,0.81928 0.20969,0 0.38126,-0.0498 0.38126,-0.11065 z m 7.80521,-0.15393 c -0.0899,-0.14552 -0.27556,-0.26459 -0.4125,-0.26459 -0.13693,0 -0.24896,0.11907 -0.24896,0.26459 0,0.14552 0.18562,0.26458 0.41249,0.26458 0.22687,0 0.3389,-0.11906 0.24897,-0.26458 z" style="fill:#00a800;stroke-width:1;fill-opacity:1"/><path id="path3940" d="m -105.76219,451.5919 c -4.71898,-0.33895 -15.57131,-0.94349 -23.01875,-1.28227 -13.50961,-0.61455 -40.13235,-1.95196 -42.06875,-2.11335 -0.94589,-0.0788 -8.86355,-0.43856 -17.5948,-0.79939 -8.73125,-0.36082 -18.97062,-0.83196 -22.75416,-1.04697 -3.78355,-0.215 -11.7012,-0.63304 -17.5948,-0.92897 -16.48747,-0.82787 -28.35269,-1.59084 -31.41927,-2.02034 l -1.12448,-0.15749 3.2e-4,-2.41736 c 1.6e-4,-1.32954 0.17556,-5.51298 0.38978,-9.29652 0.52699,-9.30791 1.34495,-25.61908 1.98357,-39.55521 0.54408,-11.87299 0.72816,-14.92795 0.97876,-16.2435 l 0.1458,-0.76538 6.25453,0.17759 c 7.97952,0.22658 16.70904,0.62403 20.93891,0.95334 1.81901,0.14162 6.87917,0.38095 11.24479,0.53184 4.36563,0.1509 9.24719,0.38935 10.84792,0.52988 1.60073,0.14054 5.58932,0.38067 8.86354,0.53361 3.27422,0.15295 10.4775,0.50904 16.00729,0.79133 5.52979,0.28228 12.67355,0.63977 15.875,0.79442 6.504,0.31417 8.45452,0.57789 9.18875,1.24236 0.4318,0.39077 0.53409,0.4 0.74194,0.0669 0.1986,-0.31826 1.07009,-0.37793 4.94478,-0.33856 4.85152,0.0493 21.72371,0.75551 40.02558,1.67535 5.74807,0.2889 12.85148,0.63089 15.785364,0.75999 2.933879,0.1291 5.482187,0.32611 5.662908,0.4378 0.374404,0.2314 0.199462,13.80336 -0.269292,20.89157 -0.144354,2.18281 -0.566063,10.27906 -0.937136,17.99166 -0.37107,7.71261 -0.789752,15.57073 -0.930407,17.4625 -0.140653,1.89177 -0.381871,5.28505 -0.536036,7.54063 -0.154167,2.25557 -0.330308,4.24987 -0.391427,4.43177 -0.08438,0.25113 -1.307055,0.3196 -5.080363,0.2845 -2.733081,-0.0254 -5.505021,-0.0847 -6.159861,-0.13174 z m -2.91042,-2.46787 c 0,-0.29398 -0.17639,-0.52916 -0.39688,-0.52916 -0.4028,0 -0.54272,0.5597 -0.22048,0.88194 0.33544,0.33544 0.61736,0.17434 0.61736,-0.35278 z m -22.09124,-1.32454 c 0.2642,-0.29193 0.40221,-0.60893 0.30671,-0.70443 -0.28177,-0.28177 -1.4988,0.39437 -1.4988,0.83268 0,0.56716 0.62345,0.50009 1.19209,-0.12825 z m 6.74541,-0.12136 c 0,-0.57179 -0.94503,-0.97722 -2.06173,-0.8845 -1.14687,0.0952 -1.34866,0.74907 -0.31952,1.03533 1.22008,0.33938 2.38125,0.26583 2.38125,-0.15083 z m -26.59063,-0.93897 c 0,-0.56918 -0.13372,-0.6689 -0.99219,-0.73995 -0.5457,-0.0452 -0.99218,-0.194 -0.99218,-0.33073 0,-0.13674 -0.24405,-0.24861 -0.54232,-0.24861 -0.71722,0 -0.40569,0.56059 0.80992,1.45743 1.09956,0.81123 1.71677,0.76157 1.71677,-0.13814 z m 14.15521,0.13592 c 0,-0.36381 -0.11906,-0.66146 -0.26458,-0.66146 -0.14553,0 -0.26459,0.29765 -0.26459,0.66146 0,0.3638 0.11906,0.66145 0.26459,0.66145 0.14552,0 0.26458,-0.29765 0.26458,-0.66145 z m -12.43542,-0.27289 c 0,-0.40034 -0.69758,-0.83752 -0.94368,-0.59142 -0.0699,0.0699 -0.052,0.32274 0.0397,0.56185 0.21051,0.54857 0.90396,0.57125 0.90396,0.0296 z m 1.98438,-0.38857 c 0,-0.51694 -0.15159,-0.67904 -0.69381,-0.74192 -0.80072,-0.0929 -1.21711,0.58969 -0.72297,1.1851 0.50749,0.61148 1.41678,0.32705 1.41678,-0.44318 z m 2.11666,0 c 0.93889,-0.97999 0.62325,-1.0226 -0.71338,-0.0963 -1.14078,0.79056 -1.19966,0.89006 -0.52674,0.89006 0.26381,0 0.82187,-0.35719 1.24012,-0.79375 z m -23.01875,-0.26459 c 0,-0.2271 -0.19318,-0.36474 -0.45158,-0.32175 -0.27954,0.0465 -0.60974,-0.23072 -0.86669,-0.72761 -0.46992,-0.90872 -0.71455,-0.98105 -1.30866,-0.38695 -0.55393,0.55393 -0.5257,0.78413 0.17639,1.43822 0.70597,0.6577 2.45054,0.65634 2.45054,-0.002 z m 3.84177,0.1259 c 0.18408,-0.2218 0.26332,-0.47463 0.1761,-0.56185 -0.27095,-0.27095 -0.97516,0.13341 -0.97516,0.55994 0,0.51822 0.36983,0.5191 0.79906,0.002 z m 7.09313,-0.21353 c 0.0715,-0.3751 -0.0467,-0.46472 -0.52376,-0.39687 -0.34229,0.0487 -0.65721,0.30297 -0.70853,0.57214 -0.0715,0.3751 0.0467,0.46472 0.52376,0.39687 0.34229,-0.0487 0.65721,-0.30298 0.70853,-0.57214 z m -42.54533,-0.89241 c 1.24465,-0.85784 1.65012,-1.66579 0.83598,-1.66579 -0.52884,0 -1.90159,1.29972 -1.90159,1.80042 0,0.43393 0.2947,0.3967 1.06561,-0.13463 z m 33.32092,-0.0609 c 0.37542,-0.70149 0.34807,-0.81114 -0.20236,-0.81114 -0.55715,0 -1.11125,0.48814 -1.11125,0.97896 0,0.53377 1.00697,0.40513 1.31361,-0.16782 z m 64.98181,0.18646 c 0.34927,-0.35047 0.76046,-6.70605 1.836227,-28.38197 0.361106,-7.27605 0.659159,-14.12214 0.66234,-15.21355 0.0065,-2.24423 0.124735,-2.5469 1.056013,-2.70421 l 0.661458,-0.11173 -0.701902,-0.2955 c -0.88441,-0.37233 -1.144326,-0.78303 -0.776238,-1.22655 0.325896,-0.39268 0.441481,-2.34516 0.350142,-5.91461 l -0.06263,-2.4474 -1.653646,-0.003 c -0.909504,-0.002 -3.290214,-0.17652 -5.290474,-0.3888 -5.37047,-0.56996 -11.29514,-0.87798 -25.59963,-1.33092 -7.05776,-0.22348 -15.5112,-0.5815 -18.78541,-0.79559 -3.27422,-0.21409 -13.335,-0.74935 -22.3573,-1.18946 -24.22383,-1.18165 -24.40401,-1.19875 -25.73073,-2.44156 l -0.59531,-0.55766 v 0.61704 0.61704 l -8.00364,-0.16707 c -8.37293,-0.17478 -16.03808,-0.52677 -21.62969,-0.99324 -1.81901,-0.15175 -7.84781,-0.34538 -13.39734,-0.43028 l -10.09004,-0.15437 -0.16548,1.55833 c -0.21979,2.06972 -1.36889,22.88029 -1.86841,33.8375 -0.21892,4.80219 -0.53916,11.267 -0.71164,14.36626 -0.26752,4.8071 -0.25853,5.68963 0.0612,6.00681 0.463,0.45928 4.1099,0.81708 12.14877,1.19192 3.27422,0.15267 7.26281,0.38698 8.86354,0.52068 1.60073,0.1337 4.75589,0.31302 7.01146,0.39847 8.15903,0.30912 16.12748,0.6919 22.09271,1.06126 3.34698,0.20725 7.99042,0.44737 10.31875,0.53362 2.32833,0.0863 7.32896,0.32693 11.1125,0.53484 3.78354,0.20792 10.80823,0.5655 15.61042,0.79463 4.80218,0.22912 9.62422,0.53159 10.71562,0.67215 2.33212,0.30036 9.19028,0.6323 21.29896,1.03089 9.19702,0.30275 23.09934,1.00861 23.54792,1.19559 0.45691,0.19046 9.86927,0.0131 10.07146,-0.18973 z m -32.63911,-11.27156 c -1.78453,-0.63779 -3.14995,-1.74067 -4.15527,-3.3563 -0.77208,-1.2408 -0.79627,-1.38095 -0.88621,-5.13362 -0.10716,-4.47148 0.38729,-16.96194 0.78639,-19.86529 0.36396,-2.6477 0.94178,-3.85077 2.58224,-5.37652 2.41765,-2.2486 4.72902,-2.88547 7.87188,-2.16903 1.0382,0.23666 2.52308,0.81084 3.29974,1.27595 2.31727,1.3877 3.40632,4.20694 3.41005,8.82765 0.002,2.72043 -0.008,2.73414 -2.07729,2.73071 -0.9667,-0.002 -2.1775,-0.0724 -2.69067,-0.15731 l -0.93303,-0.1544 0.003,-2.0255 c 0.005,-3.43812 -1.05331,-5.3328 -2.97783,-5.3328 -0.66705,0 -1.18644,0.17291 -1.47407,0.49073 -0.90969,1.0052 -1.50017,6.1163 -1.91487,16.5749 -0.2657,6.70076 0.34912,8.59896 2.7852,8.59896 2.07923,0 2.80504,-1.25075 3.10522,-5.3511 0.13571,-1.85375 0.0962,-2.33143 -0.20088,-2.42542 -0.20343,-0.0644 -0.90565,-0.27574 -1.56049,-0.46973 l -1.19063,-0.35271 -0.0801,-1.5465 c -0.0974,-1.88073 0.39283,-2.81817 1.47526,-2.82103 0.39683,-10e-4 2.25668,0.13746 4.133,0.3078 l 3.41149,0.30971 -0.18959,6.36379 c -0.23107,7.75622 -0.46575,10.0721 -1.09062,10.76258 -0.70998,0.78452 -1.72606,0.65597 -2.52814,-0.31984 l -0.68954,-0.83889 -1.82155,0.8524 c -2.35406,1.1016 -4.45071,1.29835 -6.40244,0.60081 z m 3.24627,-1.61915 c 0.44465,-0.85986 0.51456,-1.33606 0.19613,-1.33606 -0.2498,0 -1.11538,1.41764 -1.11538,1.82676 0,0.55949 0.51961,0.28212 0.91925,-0.4907 z m -1.713,0.002 c 0,-0.68879 -0.38309,-0.8835 -1.32937,-0.67566 -0.94001,0.20646 -0.99989,0.47664 -0.19198,0.86629 0.94484,0.45567 1.52135,0.38343 1.52135,-0.19063 z m -2.29915,-0.97966 c 0.0937,-0.0937 -0.15038,-0.74075 -0.54231,-1.43797 l -0.71259,-1.26768 0.71869,-0.66606 c 0.7056,-0.65393 0.92263,-1.32781 0.50982,-1.58295 -0.11488,-0.071 -0.72811,0.21963 -1.36273,0.64585 -0.63462,0.42621 -1.255,0.77493 -1.37863,0.77493 -0.38789,0 -0.24435,0.80284 0.17211,0.96266 0.22297,0.0856 0.39688,0.47928 0.39688,0.89853 0,1.05472 1.59974,2.27171 2.19876,1.67269 z m 1.23493,-1.08648 c -0.008,-0.61024 -0.95885,-1.83543 -1.22118,-1.5731 -0.23104,0.23103 0.65918,2.03612 1.00415,2.03612 0.1226,0 0.22027,-0.20836 0.21703,-0.46302 z m -2.91844,-3.96875 c 0.51009,-1.83673 0.29327,-2.08614 -0.87349,-1.00482 -0.7638,0.70786 -0.87335,1.18875 -0.3826,1.67951 0.56231,0.5623 0.97397,0.34118 1.25609,-0.67469 z m -0.14002,-4.1955 c 0.23019,-0.0883 0.41852,-0.27446 0.41852,-0.41364 0,-0.37136 -1.66,-0.14524 -1.78761,0.24351 -0.11504,0.35044 0.65111,0.44565 1.36909,0.17013 z m 1.47685,-1.133 c 0,-0.27492 -0.24642,-0.78094 -0.54761,-1.12448 l -0.5476,-0.62462 0.172,0.79227 c 0.15648,0.72079 0.57241,1.45668 0.82331,1.45668 0.055,0 0.0999,-0.22493 0.0999,-0.49985 z m -1.5875,-2.14598 c 0,-0.35278 -0.17639,-0.52917 -0.52917,-0.52917 -0.35277,0 -0.52916,0.17639 -0.52916,0.52917 0,0.35278 0.17639,0.52917 0.52916,0.52917 0.35278,0 0.52917,-0.17639 0.52917,-0.52917 z m 0.0149,-2.18281 c 0.6838,-0.81968 0.63792,-0.99219 -0.2639,-0.99219 -0.8982,0 -1.17759,0.31496 -0.94091,1.0607 0.21823,0.68758 0.59178,0.66634 1.20481,-0.0685 z m -26.07638,15.65098 c -3.63802,-0.27194 -6.89782,-0.56214 -7.244,-0.6449 -0.57977,-0.1386 -0.61656,-0.2442 -0.46648,-1.33917 0.23594,-1.72136 1.32072,-4.74434 3.21903,-8.97056 0.9151,-2.03729 2.32135,-5.19245 3.125,-7.01146 0.80364,-1.81901 2.29692,-5.08275 3.3184,-7.25276 1.41926,-3.01505 1.7979,-4.05636 1.6056,-4.41567 -0.27646,-0.51658 -1.07619,-0.66003 -4.9161,-0.88185 -1.32929,-0.0768 -2.72828,-0.258 -3.10886,-0.4027 -0.65306,-0.24829 -0.69196,-0.36474 -0.69196,-2.07115 0,-2.92674 -0.24867,-2.82361 6.24558,-2.59027 3.04061,0.10926 6.42134,0.27742 7.51275,0.37371 l 1.98437,0.17507 0.0793,1.3694 c 0.12858,2.22061 -1.26984,5.86937 -7.04486,18.38141 -1.45407,3.15034 -2.91429,6.46988 -3.24495,7.37675 -0.56337,1.54507 -0.57266,1.66972 -0.14763,1.98051 0.24946,0.18241 1.84867,0.47264 3.55378,0.64494 1.70511,0.1723 3.57646,0.45398 4.15854,0.62596 l 1.05833,0.3127 0.0788,1.81298 c 0.0987,2.27027 -0.33617,3.09651 -1.6063,3.05165 -0.46959,-0.0166 -3.83036,-0.25265 -7.46838,-0.52459 z m -3.15931,-2.11648 c 0.19976,-0.32322 -0.57074,-1.22754 -0.8273,-0.97099 -0.21885,0.21886 0.12573,1.26097 0.41695,1.26097 0.12713,0 0.31178,-0.13049 0.41035,-0.28998 z m -0.52916,-1.5875 c 0.0986,-0.15948 0.0163,-0.45283 -0.18283,-0.65189 -0.45899,-0.45883 -1.16362,-0.0695 -0.93806,0.51829 0.18595,0.48458 0.85471,0.56429 1.12089,0.1336 z m 4.08535,-12.93919 c 0,-0.29398 -0.17639,-0.52917 -0.39688,-0.52917 -0.4028,0 -0.54273,0.5597 -0.22048,0.88195 0.33543,0.33543 0.61736,0.17433 0.61736,-0.35278 z m 1.5875,-0.14969 c 0,-0.34443 -0.56731,-1.17323 -0.80306,-1.17323 -0.35725,0 -0.3186,0.6246 0.0622,1.00542 0.33199,0.33198 0.74084,0.4246 0.74084,0.16781 z m 2.39864,-3.82837 c 0.67114,-0.35918 0.65511,-0.98976 -0.0279,-1.09677 -0.87511,-0.1371 -0.7243,-0.60667 0.22408,-0.69775 1.01643,-0.0976 1.34837,-0.6669 0.76669,-1.31488 -0.25397,-0.28291 -0.35384,-0.72652 -0.26583,-1.18077 0.117,-0.60389 0.0483,-0.7276 -0.40403,-0.7276 -0.29976,0 -0.73036,0.26461 -0.95689,0.58804 -0.52847,0.75449 -0.52001,0.99946 0.0345,0.99946 0.36196,0 0.31764,0.1376 -0.23438,0.7276 -0.7046,0.75309 -1.53491,2.21303 -1.53491,2.69884 0,0.35798 1.73173,0.36075 2.39864,0.004 z m 1.17323,-6.75961 c 0,-0.50641 -0.13519,-0.7717 -0.39325,-0.7717 -0.43509,0 -0.66315,0.73388 -0.42274,1.36037 0.25135,0.65501 0.81599,0.24766 0.81599,-0.58867 z m 1.60175,-1.98538 c 0.0978,-0.15821 0.058,-0.40736 -0.0883,-0.55368 -0.30083,-0.30082 -1.38119,0.15758 -1.38119,0.58604 0,0.3509 1.2496,0.32338 1.46946,-0.0324 z m -1.27285,-3.04267 c -0.14867,-1.31897 -0.49922,-1.86803 -0.99646,-1.56072 -0.37281,0.23041 -0.1787,1.83601 0.29028,2.40109 0.58714,0.70746 0.84593,0.39949 0.70618,-0.84037 z m 1.82567,0.28423 c 0.15816,-0.41215 -0.31958,-1.18726 -0.73176,-1.18726 -0.2704,0 -0.31591,1.15099 -0.0558,1.41111 0.29355,0.29355 0.62518,0.19929 0.78755,-0.22385 z m 5.39008,29.83514 c 0.002,-1.56435 0.17917,-5.46365 0.39324,-8.66511 0.35456,-5.3026 0.6317,-10.47083 1.08183,-20.17448 l 0.16262,-3.50573 h 2.91019 2.9102 l -0.17293,5.09323 c -0.0951,2.80128 -0.28254,6.70058 -0.4165,8.66511 -0.13396,1.96453 -0.36585,6.78656 -0.51532,10.71562 -0.14948,3.92906 -0.33956,7.87616 -0.42241,8.77131 -0.17849,1.92844 -0.19139,1.93535 -3.61984,1.94071 l -2.3151,0.004 z m 2.74665,-3.13273 c 0.29267,-0.76269 -0.16869,-1.1048 -0.88158,-0.6537 -0.31481,0.19921 -0.32059,0.31178 -0.0337,0.65741 0.43948,0.52954 0.71112,0.52844 0.91533,-0.004 z m -0.10644,-8.84266 c -0.16435,-0.30708 -0.43958,-0.51201 -0.61163,-0.45538 -0.55528,0.18274 -0.48241,1.11222 0.13981,1.78301 l 0.60571,0.65301 0.0825,-0.71116 c 0.0454,-0.39113 -0.052,-0.9624 -0.21635,-1.26948 z m 1.32452,-1.93336 c 0,-0.0464 -0.18321,-0.70119 -0.40713,-1.45521 -0.39486,-1.32965 -0.91731,-1.84844 -0.91431,-0.90792 0.003,0.97719 0.56599,2.4474 0.937,2.4474 0.21144,0 0.38444,-0.0379 0.38444,-0.0843 z m 1.5875,-4.84292 c 0,-0.42684 -0.68447,-0.49077 -0.93388,-0.0872 -0.0942,0.15249 -0.0999,0.46356 -0.0125,0.69126 0.1284,0.33461 0.23438,0.35133 0.55262,0.0872 0.21656,-0.17973 0.39375,-0.4908 0.39375,-0.69126 z m -1.5875,-0.67518 c 0,-0.37042 -0.97469,-0.24118 -1.32012,0.17504 -0.17962,0.21643 -0.25063,0.59145 -0.15779,0.83338 0.14918,0.38875 0.24488,0.36841 0.82335,-0.17504 0.36001,-0.33821 0.65456,-0.71323 0.65456,-0.83338 z m 0.81219,-2.10502 c 0.21346,-0.39885 0.21514,-0.63153 0.006,-0.8406 -0.15899,-0.159 -0.28909,-0.51632 -0.28909,-0.79403 0,-0.41801 -0.12525,-0.474 -0.7276,-0.32524 -1.08662,0.26837 -1.23829,0.55762 -0.61774,1.17816 0.4105,0.4105 0.51377,0.74246 0.3875,1.24557 -0.15876,0.63255 -0.12867,0.66264 0.38678,0.38678 0.30741,-0.16452 0.69175,-0.54731 0.85409,-0.85064 z m 0.49232,-8.28032 c 0.56483,-0.60123 0.56623,-1.21021 0.003,-1.21021 -0.39328,0 -1.3073,1.01743 -1.3073,1.45521 0,0.59568 0.625,0.4783 1.30451,-0.245 z m -39.73524,30.88657 c -0.59177,-0.15464 -0.60494,-2.28956 -0.0666,-10.79782 0.81119,-12.82118 1.00034,-17.70449 0.71351,-18.42145 -0.25223,-0.6305 -0.48027,-0.72257 -2.47978,-1.00121 -3.92197,-0.54653 -3.53766,-0.24015 -3.43955,-2.74203 0.047,-1.19734 0.16602,-2.25566 0.26459,-2.35182 0.212,-0.20684 14.56149,0.18836 16.81658,0.46313 l 1.55612,0.18962 -0.13876,2.22424 c -0.0763,1.22334 -0.22067,2.30644 -0.32077,2.40688 -0.1001,0.10045 -1.4179,0.22311 -2.92843,0.27257 -2.28,0.0747 -2.7688,0.16453 -2.87817,0.52917 -0.19258,0.64204 -0.62909,7.0329 -1.07815,15.78507 -0.59975,11.68897 -0.6958,12.82753 -1.11775,13.24949 -0.36527,0.36527 -3.73707,0.4988 -4.90281,0.19416 z m 3.72356,-8.10777 c 0.0506,-0.26108 -0.0843,-0.44109 -0.33073,-0.44109 -0.24543,0 -0.41627,0.22622 -0.41627,0.55121 0,0.6448 0.61827,0.55366 0.747,-0.11012 z m -0.21784,-1.23484 c 0,-0.14552 -0.29062,-0.26459 -0.64584,-0.26459 -0.35521,0 -0.71943,0.11907 -0.80936,0.26459 -0.0954,0.15436 0.17364,0.26458 0.64584,0.26458 0.44515,0 0.80936,-0.11906 0.80936,-0.26458 z m -0.52916,-1.00542 c 0,-0.27384 -0.57283,-0.84667 -0.84667,-0.84667 -0.11642,0 -0.21167,0.23813 -0.21167,0.52917 0,0.35278 0.17639,0.52917 0.52917,0.52917 0.29104,0 0.52917,-0.0953 0.52917,-0.21167 z m 1.05833,-10.00975 c 0,-0.18188 -0.10659,-0.39656 -0.23686,-0.47707 -0.2828,-0.17479 -0.56018,0.46309 -0.54847,1.26127 0.008,0.56136 0.0167,0.56264 0.39687,0.0601 0.21365,-0.28247 0.38846,-0.6624 0.38846,-0.84428 z m -1.87967,0.71907 c 0.51245,-0.32448 0.16143,-1.08099 -0.50158,-1.08099 -0.663,0 -1.01402,0.75651 -0.50157,1.08099 0.2031,0.1286 0.42881,0.23383 0.50157,0.23383 0.0728,0 0.29847,-0.10523 0.50158,-0.23383 z m 2.938,-7.92776 c 0,-0.33351 -0.77667,-0.93141 -0.96512,-0.74297 -0.27094,0.27095 0.13342,0.97516 0.55995,0.97516 0.22285,0 0.40517,-0.10448 0.40517,-0.23219 z m 1.03409,-4.53031 c 0.11375,0 0.42232,0.23813 0.68571,0.52917 0.47335,0.52305 1.19062,0.71944 1.19062,0.326 0,-0.4511 -1.36786,-2.17809 -1.72515,-2.17809 -0.21074,0 -0.772,0.35763 -1.24724,0.79472 l -0.86407,0.79473 0.79375,0.7073 0.79375,0.7073 0.0829,-0.84056 c 0.0456,-0.46232 0.17598,-0.84057 0.28972,-0.84057 z m -3.19932,0.17803 c 0.0669,-0.5654 -0.0259,-0.7072 -0.46302,-0.7072 -0.39639,0 -0.54675,0.16978 -0.54675,0.61736 0,1.20132 0.86903,1.27863 1.00977,0.0898 z m -4.44935,-0.75629 c 0,-0.499 -1.10374,-1.53841 -1.63362,-1.53841 -0.7039,0 -0.59353,0.38916 0.33101,1.16711 0.8836,0.7435 1.30261,0.86294 1.30261,0.3713 z m 10.58334,-0.21549 c 0,-0.14552 -0.2311,-0.26458 -0.51356,-0.26458 -0.28245,0 -0.58713,0.11906 -0.67707,0.26458 -0.0927,0.15006 0.12955,0.26458 0.51355,0.26458 0.37239,0 0.67708,-0.11906 0.67708,-0.26458 z m -4.28348,-0.72645 c -0.0664,-0.34465 -0.48124,-0.51665 -1.63472,-0.67774 -0.85017,-0.11873 -1.61461,-0.14704 -1.69875,-0.0629 -0.4126,0.41259 1.24509,1.10657 2.8077,1.17541 0.44964,0.0198 0.59083,-0.0969 0.52577,-0.43478 z m -17.14778,33.1235 c -0.21828,-0.0469 -1.09905,-0.16294 -1.95727,-0.25781 l -1.56041,-0.17249 0.17215,-3.48181 c 0.0947,-1.915 0.40818,-8.36338 0.69667,-14.32973 0.5085,-10.51654 0.6589,-13.02064 0.95744,-15.94115 l 0.142,-1.38906 2.29607,0.004 c 3.79605,0.006 3.53459,-0.31189 3.34354,4.06475 -0.18039,4.13223 -0.47616,9.40883 -0.89909,16.03997 -0.15314,2.40109 -0.39078,6.79491 -0.52808,9.76404 -0.18226,3.94137 -0.34324,5.45778 -0.59643,5.61835 -0.33903,0.215 -1.27366,0.25178 -2.06659,0.0813 z m -0.33065,-6.4016 c 0.14467,-0.43448 -0.68434,-0.74462 -1.03991,-0.38905 -0.15216,0.15216 -0.19259,0.41269 -0.0898,0.57895 0.23378,0.37825 0.98249,0.2524 1.12975,-0.1899 z m 0.1924,-7.46497 c 0.16971,-0.27459 -0.75845,-1.33256 -1.16905,-1.33256 -0.44145,0 -0.57694,0.50385 -0.28312,1.05286 0.29699,0.55493 1.17728,0.72449 1.45217,0.2797 z m 0.35279,-4.34456 c -0.14156,-0.45345 -0.32115,-1.03282 -0.3991,-1.28748 -0.21209,-0.69287 -0.60919,-0.55798 -0.60919,0.20693 0,1.03609 0.76891,2.70877 1.04203,2.26684 0.12474,-0.20183 0.10982,-0.72639 -0.0337,-1.18629 z m 1.90213,-3.76727 c 0,-0.42684 -0.68447,-0.49077 -0.93387,-0.0872 -0.0942,0.15249 -0.0999,0.46356 -0.0125,0.69126 0.1284,0.3346 0.23438,0.35133 0.55261,0.0872 0.21657,-0.17973 0.39375,-0.49079 0.39375,-0.69125 z m -1.5875,-0.67519 c 0,-0.37042 -0.97469,-0.24117 -1.32012,0.17505 -0.17962,0.21642 -0.25062,0.59145 -0.15778,0.83338 0.14917,0.38875 0.24488,0.3684 0.82335,-0.17504 0.36,-0.33821 0.65455,-0.71323 0.65455,-0.83339 z m 1.05833,-1.40908 c 0,-1.06653 -0.40541,-1.19303 -1.35616,-0.42316 l -0.62103,0.50288 0.92245,0.40157 c 0.50735,0.22087 0.95222,0.41129 0.9886,0.42316 0.0364,0.0119 0.0661,-0.39513 0.0661,-0.90445 z m -0.84994,-1.75569 c 0.0966,-0.50176 -0.71125,-0.88999 -1.08151,-0.51973 -0.38234,0.38233 0.0102,1.1369 0.53855,1.03516 0.25343,-0.0488 0.49776,-0.28075 0.54296,-0.51543 z m 0.95833,-1.7775 c 0.15431,-0.24968 -1.15396,-0.9334 -1.37091,-0.71645 -0.20547,0.20548 0.48454,0.94234 0.88243,0.94234 0.19188,0 0.41169,-0.10165 0.48848,-0.22589 z m 0.40231,-5.35259 c 0.84018,-0.84018 0.87833,-1.40007 0.0761,-1.11741 -0.66524,0.2344 -1.64517,1.17708 -1.64517,1.58264 0,0.59956 0.71676,0.38704 1.56903,-0.46523 z m -20.17509,31.20824 c -0.0857,-0.49016 -0.58303,-4.46309 -1.10511,-8.82871 -1.08683,-9.08807 -1.10565,-9.20065 -1.51486,-9.06424 -0.49535,0.16511 -1.18198,2.5937 -2.94357,10.41126 l -1.66395,7.38423 -2.53828,0.0754 -2.53829,0.0754 -0.1533,-0.7369 c -0.43156,-2.07443 -3.86158,-31.71792 -3.86158,-33.37319 0,-1.27726 0.1842,-1.36268 2.93861,-1.36268 1.93674,0 2.11912,0.0467 2.32526,0.59531 0.12303,0.32742 0.60034,4.75659 1.06069,9.84259 0.46035,5.086 0.88301,9.29328 0.93925,9.34951 0.0562,0.0562 0.28206,-0.17597 0.50184,-0.51602 0.48395,-0.74877 1.12388,-3.23639 2.54127,-9.87868 1.492,-6.99193 1.98718,-8.55833 2.80369,-8.86876 0.64948,-0.24694 2.70839,-0.0919 3.25353,0.24506 0.39889,0.24653 0.97387,3.87477 1.76497,11.13724 1.21257,11.13175 1.39651,10.97685 4.08457,-3.43958 0.58337,-3.1287 1.19186,-6.15135 1.3522,-6.717 l 0.29152,-1.02846 2.10391,0.14421 c 2.22569,0.15255 2.87827,0.45185 2.87827,1.32009 0,0.54636 -6.39483,30.50908 -6.88254,32.24783 -0.39213,1.39804 -0.83072,1.63309 -3.28793,1.76206 l -2.1943,0.11517 z m 3.47707,-4.66153 c 0.0739,-0.52036 -0.0324,-0.59531 -0.84428,-0.59531 -1.05844,0 -1.42261,0.3687 -0.93934,0.95101 0.50054,0.60311 1.68087,0.36773 1.78362,-0.3557 z m -10.99498,-1.67996 c -0.0715,-0.27329 -0.23547,-0.43168 -0.36444,-0.35197 -0.27679,0.17106 -0.31253,1.00581 -0.0541,1.26421 0.2762,0.2762 0.56486,-0.35287 0.41858,-0.91224 z m -2.76515,0.0854 c 0.0938,-0.63579 -0.36876,-1.64657 -0.75352,-1.64657 -0.28522,0 -0.3452,1.30989 -0.0904,1.97392 0.2204,0.57435 0.74064,0.37255 0.8439,-0.32735 z m 1.22056,-1.29403 c 0.20508,-0.53443 -0.0429,-0.8919 -0.49758,-0.71741 -0.42977,0.16492 -0.73766,0.84065 -0.53354,1.17094 0.19593,0.31701 0.84499,0.0315 1.03112,-0.45353 z m 1.47481,-0.88171 c 0,-0.76435 -0.11024,-1.05833 -0.39687,-1.05833 -0.41028,0 -0.53738,0.91349 -0.23628,1.69815 0.29566,0.77046 0.63315,0.42941 0.63315,-0.63982 z m -2.09844,-0.82324 c 0.2504,-0.40515 -0.67545,-2.31598 -1.22417,-2.52654 -0.55031,-0.21118 -1.17531,0.39144 -1.17531,1.13322 0,0.34598 -0.11906,0.62906 -0.26458,0.62906 -0.37013,0 -0.33016,0.62066 0.0662,1.02709 0.4039,0.4142 2.29791,0.22259 2.59791,-0.26283 z m 2.53631,-1.70171 c 0.0862,-0.22456 0.0914,-0.47356 0.0116,-0.55333 -0.26325,-0.26324 -1.24325,0.19597 -1.24325,0.58257 0,0.50993 1.03413,0.48538 1.23161,-0.0292 z m 13.18817,-0.91463 c 0,-0.57381 -1.03223,-0.49477 -1.14439,0.0876 -0.0724,0.37572 0.0456,0.46483 0.52554,0.39687 0.34037,-0.0482 0.61885,-0.26622 0.61885,-0.4845 z m -16.562,-1.16427 0.87201,-0.89969 -0.55552,-0.55552 c -0.30554,-0.30554 -0.55553,-0.71806 -0.55553,-0.91672 0,-0.58895 -1.05728,-1.75547 -1.59109,-1.75547 -0.76677,0 -0.90384,0.51622 -0.28913,1.0889 0.61681,0.57465 0.73646,1.80641 0.25096,2.58381 -0.39156,0.62699 -0.11727,1.35437 0.51072,1.35437 0.26706,0 0.87797,-0.40485 1.35758,-0.89968 z m 11.78247,-0.39567 c 0.19104,-0.30911 -0.806,-1.54001 -1.0503,-1.29666 -0.30428,0.3031 0.11904,1.53368 0.52759,1.53368 0.20692,0 0.44214,-0.10666 0.52271,-0.23702 z m 4.91182,-0.9536 c 0,-0.36381 -0.11906,-0.66146 -0.26458,-0.66146 -0.14552,0 -0.26458,0.29765 -0.26458,0.66146 0,0.3638 0.11906,0.66145 0.26458,0.66145 0.14552,0 0.26458,-0.29765 0.26458,-0.66145 z m -11.86163,-2.91816 c -0.33132,-0.72717 -0.83837,-0.66504 -0.83837,0.10273 0,0.63547 0.56473,1.16591 0.89241,0.83823 0.16682,-0.16682 0.1478,-0.49797 -0.054,-0.94096 z m 6.18867,-1.33299 c -0.55232,-0.40765 -1.73537,-0.51842 -1.73537,-0.16248 0,0.11912 0.38695,0.40401 0.8599,0.63309 1.02521,0.49658 1.69678,0.13557 0.87547,-0.47061 z m 7.26046,0.2824 c 0,-0.45444 -0.44041,-0.74755 -0.79446,-0.52873 -0.17605,0.10881 -0.17159,0.33907 0.0133,0.68449 0.29586,0.55282 0.78118,0.45605 0.78118,-0.15576 z m -1.05833,-1.4396 c 0,-0.58187 -0.39855,-0.92132 -0.79446,-0.67663 -0.17643,0.10904 -0.17331,0.33585 0.009,0.67707 0.35338,0.66031 0.78516,0.66007 0.78516,-5.2e-4 z m -6.87917,-4.13405 c 0,-0.77787 -0.43106,-1.7024 -0.79375,-1.7024 -0.13528,0 -0.36659,0.2254 -0.51403,0.50089 -0.20572,0.38439 -0.14188,0.66131 0.27448,1.19063 0.68683,0.87316 1.0333,0.87681 1.0333,0.0109 z m -2.39086,0.029 c 0.17586,-0.2119 0.24295,-0.50956 0.14907,-0.66145 -0.38268,-0.61919 -1.63601,-0.052 -1.37694,0.62316 0.20273,0.52831 0.80558,0.54711 1.22787,0.0383 z m 0.36245,-2.10891 c 0.20176,-0.52576 -0.54633,-1.1223 -0.92835,-0.74029 -0.36535,0.36535 -0.0916,1.11782 0.40661,1.11782 0.20728,0 0.44207,-0.16989 0.52174,-0.37753 z m 9.21748,41.47923 c 0.6282,-0.56851 0.63275,-1.4142 0.008,-1.4142 -0.65206,0 -1.11125,0.51385 -1.11125,1.24355 0,0.71623 0.42771,0.78237 1.10365,0.17065 z m -20.68282,-0.17582 c 0,-0.19202 0.38696,-0.51945 0.8599,-0.72761 0.54026,-0.23779 0.89132,-0.59976 0.94444,-0.97379 0.11452,-0.80632 -0.32174,-0.75294 -1.84732,0.22602 -1.43914,0.92349 -1.74456,1.8245 -0.61847,1.8245 0.37136,0 0.66145,-0.15311 0.66145,-0.34912 z m 8.56844,-0.0319 c -0.18071,-0.47093 -1.41473,-1.30465 -1.62291,-1.09646 -0.0838,0.0838 -0.0165,0.45047 0.14957,0.81489 0.33506,0.73537 1.75135,1.00604 1.47334,0.28157 z m 14.97948,-0.14816 c 0,-0.35278 -0.17639,-0.52917 -0.52917,-0.52917 -0.35277,0 -0.52916,0.17639 -0.52916,0.52917 0,0.35277 0.17639,0.52916 0.52916,0.52916 0.35278,0 0.52917,-0.17639 0.52917,-0.52916 z m -13.13348,-0.39688 c 0.21035,-0.54818 -0.0752,-1.19062 -0.52917,-1.19062 -0.20728,0 -0.44541,0.17859 -0.52917,0.39687 -0.21036,0.54818 0.0752,1.19063 0.52917,1.19063 0.20728,0 0.4454,-0.1786 0.52917,-0.39688 z m -5.53854,-0.54806 c 0.52381,-0.52382 0.54173,-1.43631 0.0282,-1.43631 -0.48091,0 -1.02655,0.9682 -0.83173,1.47588 0.18323,0.47749 0.29181,0.47214 0.80353,-0.0396 z m 11.18279,-0.25405 c -0.82033,-0.7217 -1.77119,-0.8663 -1.77119,-0.26937 0,0.51829 0.75457,0.92317 1.7198,0.92278 l 0.79375,-2.6e-4 -0.74236,-0.6531 z m 3.2559,0.30125 c 0,-0.46614 -0.80031,-0.78904 -1.13244,-0.45691 -0.13761,0.13761 -0.17021,0.37964 -0.0724,0.53784 0.25772,0.41699 1.20488,0.35337 1.20488,-0.0809 z m -34.93431,-1.20154 c 0.39877,-0.74511 0.33653,-1.60489 -0.11619,-1.60489 -0.37466,0 -1.19742,1.26356 -1.19742,1.83894 0,0.48312 1.0278,0.29999 1.31361,-0.23405 z m 3.28915,0.091 c 0.20082,-0.52333 -0.0164,-0.90217 -0.51733,-0.90217 -0.23029,0 -0.38126,0.26192 -0.38126,0.66146 0,0.7399 0.64113,0.91164 0.89859,0.24071 z m 11.66912,-0.10842 c 0,-0.26344 -0.21606,-0.37287 -0.6426,-0.32547 -0.35343,0.0393 -0.72836,-0.0674 -0.83319,-0.23699 -0.28919,-0.46793 -1.03776,-0.0577 -1.03776,0.56865 0,0.49342 0.13332,0.54342 1.25677,0.47133 0.9049,-0.0581 1.25678,-0.19176 1.25678,-0.47752 z m -22.80597,-0.52334 c 0.68333,-0.43336 1.24242,-0.96914 1.24242,-1.19063 0,-0.53494 -0.76618,-0.51781 -0.97324,0.0218 -0.12516,0.32617 -0.38855,0.38839 -1.13732,0.26865 -1.23612,-0.19766 -2.00119,0.29157 -1.74049,1.11298 0.25503,0.80353 1.11693,0.73323 2.60863,-0.21278 z m 18.81345,0.28502 c 0.26816,-0.29631 0.34847,-0.56881 0.1955,-0.66335 -0.4102,-0.25351 -1.62694,0.31698 -1.62694,0.76283 0,0.5649 0.8859,0.50334 1.43144,-0.0995 z m -4.91877,-0.88346 c -0.12547,-0.8794 -1.01059,-0.9567 -1.01059,-0.0882 0,0.51209 0.13572,0.68085 0.54757,0.68085 0.41588,0 0.52723,-0.14251 0.46302,-0.59261 z m -16.62101,-0.77277 c 0,-0.12217 -0.35718,-0.22212 -0.79375,-0.22212 -0.73366,0 -1.05797,0.44134 -0.63506,0.86425 0.20311,0.2031 1.42881,-0.34775 1.42881,-0.64213 z m 157.162506,-0.25042 c 0,-0.27548 -0.104484,-0.50086 -0.232187,-0.50086 -0.375042,0 -0.886169,0.74716 -0.708158,1.03518 0.25513,0.41282 0.940345,0.0235 0.940345,-0.53432 z m 0.990217,-2.28088 c 0.104179,-0.31255 -0.929569,-0.75007 -1.18015,-0.49949 -0.219668,0.21966 0.486,0.99019 0.808421,0.88272 0.150963,-0.0503 0.318243,-0.22278 0.371729,-0.38323 z m 0.200408,-4.28019 c 0,-0.20043 -0.211748,-0.49645 -0.470553,-0.65783 -0.597731,-0.37273 -1.119704,0.28339 -0.663123,0.83353 0.361876,0.43603 1.133676,0.31642 1.133676,-0.1757 z m -0.446323,-8.9549 c -0.04854,-0.25466 -0.354922,-0.50107 -0.68086,-0.54757 -0.651375,-0.0929 -0.767805,0.2004 -0.275108,0.69309 0.473988,0.47399 1.057124,0.38522 0.955968,-0.14552 z m 1.326949,-1.25981 c 0.05112,-0.28937 0.337506,-0.71815 0.636403,-0.95284 0.298899,-0.2347 0.459769,-0.56212 0.357491,-0.72761 -0.256262,-0.41464 -0.862322,-0.37786 -1.031337,0.0626 -0.07671,0.19991 -0.565701,0.44343 -1.086642,0.54116 -1.108686,0.20799 -1.141245,0.30989 -0.363511,1.13775 0.677683,0.72136 1.354273,0.6936 1.487596,-0.061 z m -1.078986,-2.44421 c 0.144663,-0.43448 -0.68434,-0.74463 -1.039913,-0.38906 -0.152162,0.15216 -0.192591,0.41269 -0.08984,0.57895 0.233773,0.37825 0.982483,0.2524 1.12975,-0.18989 z m 1.010499,-5.73391 c 0.226663,-0.90309 0.04297,-1.60842 -0.418888,-1.60842 -0.273498,0 -0.418026,0.34243 -0.47461,1.12448 -0.06301,0.87089 0.01042,1.12448 0.325689,1.12448 0.223877,0 0.479391,-0.28824 0.567809,-0.64054 z m 0.610653,-3.3271 c 0.632103,-1.12467 0.568008,-1.58861 -0.219474,-1.58861 -0.573564,0 -0.806443,0.50287 -0.806443,1.74143 0,1.18678 0.297964,1.1424 1.025917,-0.15282 z m 0.238128,-5.96924 c 0.55644,-0.38975 0.817478,-1.17677 0.389601,-1.17463 -0.468876,0.002 -1.93005,1.08874 -1.783418,1.326 0.231428,0.37446 0.718632,0.32155 1.393817,-0.15137 z m -0.587074,-3.74415 c -0.124256,-0.3238 -0.230251,-0.33826 -0.547809,-0.0747 -0.512765,0.42556 -0.496803,0.79239 0.06928,1.59218 l 0.463021,0.65418 0.08479,-0.88508 c 0.04663,-0.4868 0.01545,-1.06575 -0.06928,-1.28657 z m -160.797637,0.76186 c 0.092,-0.6252 -0.20307,-0.74709 -0.67241,-0.27776 -0.35608,0.35608 -0.13255,1.08929 0.28973,0.95041 0.16398,-0.0539 0.33618,-0.35662 0.38268,-0.67265 z m 161.394614,-2.53349 c 0.158941,-1.89217 -1.522868,-3.10799 -2.105626,-1.5222 -0.184425,0.50185 -0.129071,0.64575 0.290619,0.7555 0.296024,0.0774 0.647541,0.52676 0.819372,1.04742 0.380902,1.15414 0.887098,1.01142 0.995635,-0.28072 z M -254.5075,398.25739 c 0.0651,-0.3416 -0.0862,-0.46302 -0.57699,-0.46302 -0.72328,0 -1.09348,0.36543 -0.81942,0.80888 0.26597,0.43034 1.29715,0.17494 1.39641,-0.34586 z m -0.61201,-1.78594 c 0,-0.71969 -0.52422,-1.00383 -0.75285,-0.40806 -0.20747,0.54068 0.0793,1.24995 0.45472,1.1248 0.16397,-0.0547 0.29813,-0.37719 0.29813,-0.71674 z m 161.52813,-2.11667 c 0,-0.14552 -0.231098,-0.26458 -0.513551,-0.26458 -0.282453,0 -0.587137,0.11906 -0.677074,0.26458 -0.09274,0.15006 0.129545,0.26459 0.513551,0.26459 0.37239,0 0.677074,-0.11907 0.677074,-0.26459 z m 0.628711,-1.18055 c -0.163042,-0.42489 -1.10395,-0.81365 -1.35694,-0.56066 -0.193064,0.19306 0.73184,0.92728 1.182947,0.93905 0.177332,0.005 0.25563,-0.16565 0.173993,-0.37839 z M -254.5048,391.88546 c 0.0495,-0.25521 -0.0833,-0.44109 -0.31511,-0.44109 -0.49153,0 -0.78818,0.43131 -0.55555,0.80771 0.23932,0.38724 0.7676,0.16479 0.87066,-0.36662 z m 160.648836,-0.69637 c 0,-0.40074 -0.996688,-0.85227 -1.190183,-0.53919 -0.09018,0.14591 -0.09038,0.38436 -5.29e-4,0.52988 0.20946,0.33892 1.190625,0.34659 1.190625,0.009 z m -160.611396,-2.37316 c 0.35184,-0.65741 0.34501,-0.81115 -0.036,-0.81115 -0.36931,0 -1.27761,0.78156 -1.27761,1.09934 0,0.44195 1.04562,0.21255 1.31361,-0.28819 z m 0.1416,-3.61493 c 0,-0.75662 -0.7615,-0.74009 -1.68451,0.0366 -0.45597,0.38367 -0.82903,0.78766 -0.82903,0.89775 0,0.11009 0.56555,0.0566 1.25677,-0.11895 0.93919,-0.23847 1.25677,-0.44451 1.25677,-0.81537 z m 157.030213,0.93907 c 0,-0.32259 -1.293048,-1.57487 -1.626134,-1.57487 -0.438984,0 -0.217377,0.56238 0.474144,1.20326 0.746386,0.69173 1.15199,0.82257 1.15199,0.37161 z m -39.942783,-1.16678 c -0.18627,-0.22445 -0.50269,-0.40809 -0.70315,-0.40809 -0.51999,0 -0.45116,0.71855 0.0985,1.02871 0.62089,0.35033 1.04723,-0.0873 0.60461,-0.62062 z m 24.48376,0.56358 c 0.19777,-0.51539 -0.34411,-1.76542 -0.7653,-1.76542 -0.19933,0 -0.57791,0.23813 -0.8413,0.52917 -0.46213,0.51064 -0.46213,0.54768 0,1.05833 0.54621,0.60356 1.4067,0.69885 1.6066,0.17792 z m 12.13009,0.19065 c 0.826245,-0.31706 0.13633,-1.4269 -0.88701,-1.4269 -0.39635,0 -0.35319,1.25008 0.0488,1.41227 0.1819,0.0734 0.35075,0.14285 0.37523,0.15434 0.0245,0.0115 0.23284,-0.0514 0.46302,-0.13971 z m -31.23905,-0.49239 c 0.16964,-0.44209 -0.22454,-0.78304 -0.6216,-0.53764 -0.39559,0.24449 -0.31906,0.92604 0.10398,0.92604 0.20272,0 0.43564,-0.17478 0.51762,-0.3884 z m 22.00727,-0.42812 c 0.004,-0.20576 0.10017,-0.52293 0.21405,-0.70483 0.29846,-0.47672 -0.47795,-0.42132 -0.87971,0.0628 -0.17962,0.21642 -0.25366,0.58351 -0.16455,0.81575 0.19118,0.4982 0.82011,0.36661 0.83021,-0.1737 z m -32.14108,-0.19896 c 0.56207,-0.45514 0.54541,-1.10118 -0.0284,-1.10118 -0.4106,0 -1.33875,1.05797 -1.16904,1.33256 0.22988,0.37197 0.52207,0.31551 1.19745,-0.23138 z m 7.3431,-0.16569 c 0.32289,-0.70868 0.0798,-1.03092 -0.58514,-0.77575 -0.61201,0.23485 -0.52007,1.42776 0.11004,1.42776 0.0979,0 0.3117,-0.29341 0.4751,-0.65201 z m -121.78818,-0.16017 c 0,-0.20416 -0.20836,-0.41133 -0.46303,-0.46037 -0.45607,-0.0878 -0.64461,0.47359 -0.28112,0.83709 0.27734,0.27733 0.74415,0.041 0.74415,-0.37672 z m 150.78049,-0.12585 c 0.16327,-0.42549 -0.24072,-0.75743 -0.62945,-0.51718 -0.14552,0.0899 -0.26458,0.39088 -0.26458,0.66877 0,0.56949 0.66028,0.45753 0.89403,-0.15159 z m -38.832,-0.26086 c 0.54692,-0.8347 0.28423,-1.16421 -0.42003,-0.52686 -0.4221,0.38199 -0.60259,0.41215 -0.91497,0.1529 -0.39121,-0.32467 -1.47287,-0.15772 -1.47287,0.22733 0,0.29232 1.08086,0.7772 1.77984,0.79844 0.35182,0.0107 0.76601,-0.25191 1.02803,-0.65181 z m -7.30578,-0.83606 c 0,-0.19047 -0.11488,-0.3463 -0.25528,-0.3463 -0.36316,0 -0.75647,0.85595 -0.59805,1.30153 0.10648,0.29945 0.20638,0.27582 0.49342,-0.11672 0.19795,-0.27071 0.35991,-0.64804 0.35991,-0.83851 z m -13.53898,-0.0555 c 0.0479,-0.32661 0.0167,-0.77717 -0.0693,-1.00126 -0.22283,-0.58068 -0.94384,0.0542 -0.94384,0.83109 0,1.10088 0.85558,1.24459 1.01311,0.17017 z m 3.33088,0.60697 c 0.62193,-0.23866 0.54727,-1.14645 -0.0808,-0.9822 -0.27462,0.0718 -0.57931,10e-4 -0.67708,-0.15707 -0.23776,-0.3847 -0.94028,-0.36807 -0.94028,0.0223 0,0.35647 0.777,1.2776 1.0777,1.2776 0.11106,0 0.39026,-0.0723 0.62045,-0.1606 z m 5.04872,-0.78749 c 0,-0.59354 -0.12133,-0.7717 -0.52554,-0.7717 -0.62369,0 -0.84706,0.78484 -0.38264,1.34444 0.47992,0.57827 0.90818,0.30819 0.90818,-0.57274 z m 9.83363,0.006 c 0.89712,-0.68427 1.17248,-1.43955 0.52482,-1.43955 -0.42029,0 -2.2476,1.28716 -2.81782,1.98489 -0.37436,0.45805 -0.34558,0.47544 0.50707,0.3065 0.49717,-0.0985 1.30084,-0.48184 1.78593,-0.85184 z m 24.38332,0.32366 c 0.10905,-0.56227 -0.7242,-0.90555 -1.02331,-0.42158 -0.2576,0.41681 0.20691,1.10673 0.64659,0.96036 0.16006,-0.0533 0.32959,-0.29574 0.37672,-0.53878 z m -51.01799,-0.86957 c 0,-0.20046 -0.16586,-0.36447 -0.36857,-0.36447 -0.4204,0 -0.76961,0.71508 -0.53478,1.09505 0.20249,0.32764 0.90335,-0.23918 0.90335,-0.73058 z m 6.93176,0.0226 c 0.25286,-0.55496 0.2273,-0.74975 -0.14753,-1.12448 -0.39735,-0.39725 -0.48438,-0.40421 -0.70433,-0.0564 -0.29145,0.46089 -0.33875,1.41962 -0.0827,1.67569 0.33264,0.33264 0.62901,0.17571 0.93454,-0.49484 z m 12.11824,-0.10691 c 0,-0.8717 -0.27822,-1.15363 -0.90217,-0.9142 -0.53934,0.20696 -0.53377,0.59975 0.0171,1.20849 0.62274,0.68813 0.88502,0.60092 0.88502,-0.29429 z m -23.10761,0.0989 c 0.24078,-0.62745 -0.32353,-1.06997 -0.82923,-0.65028 -0.31338,0.26009 -0.33984,0.42756 -0.11111,0.70317 0.39621,0.4774 0.74437,0.45782 0.94034,-0.0529 z m 2.66855,-0.72286 c 1.32783,-1.20942 0.2561,-1.36208 -1.11442,-0.15875 -0.51391,0.45123 -0.86802,0.9278 -0.7869,1.05905 0.17548,0.28393 1.06204,-0.13587 1.90132,-0.9003 z m 5.56255,0.56111 c -0.15353,-0.46059 -0.94077,-0.89242 -1.18382,-0.64937 -0.11589,0.11589 0.0202,0.37957 0.30246,0.58595 0.62423,0.45645 1.02191,0.48507 0.88136,0.0634 z m -32.91858,-0.8788 c 0.21828,-0.21828 0.58397,-0.39688 0.81265,-0.39688 0.22867,0 0.41577,-0.11487 0.41577,-0.25527 0,-0.30489 -0.65818,-0.66588 -1.64306,-0.90114 -0.86599,-0.20686 -1.32837,0.43236 -0.98003,1.35485 0.2597,0.68776 0.82492,0.76819 1.39467,0.19844 z m 5.0615,0.13776 c 0.265,-0.42878 -0.30104,-1.19527 -1.26674,-1.71533 -1.09332,-0.58879 -1.84482,-0.39191 -1.725,0.45191 0.0715,0.50351 0.23828,0.59188 1.06989,0.56693 0.54186,-0.0163 0.92178,0.073 0.84428,0.19844 -0.19904,0.32206 0.11804,0.75716 0.55178,0.75716 0.20111,0 0.43771,-0.1166 0.52579,-0.25911 z m -8.74951,-0.16607 c 0.43241,-0.16593 0.59131,-0.89773 0.19494,-0.89773 -0.12297,0 -0.43908,0.23812 -0.70247,0.52916 -0.47849,0.52873 -0.28189,0.6715 0.50753,0.36857 z m 13.59805,-0.43855 c 0.1053,-0.54678 -0.6585,-0.91522 -1.06162,-0.5121 -0.40312,0.40312 -0.0347,1.16692 0.5121,1.06162 0.25343,-0.0488 0.50072,-0.29609 0.54952,-0.54952 z m -21.18421,-0.28511 c 0.31098,-0.68254 0.0316,-1.40517 -0.43241,-1.1184 -0.34038,0.21037 -0.40371,1.73808 -0.072,1.73808 0.12216,0 0.34917,-0.27886 0.50446,-0.61968 z m 4.51735,-0.12865 c 0.0465,-0.31603 -0.0386,-0.57459 -0.18913,-0.57459 -0.35093,0 -0.85773,0.93387 -0.63025,1.16135 0.30726,0.30726 0.73265,0.003 0.81938,-0.58676 z m -15.56268,-0.17771 c 0.18116,-0.21829 0.56285,-0.39688 0.8482,-0.39688 0.75902,0 0.42832,-0.64635 -0.38,-0.74271 -0.63098,-0.0752 -1.52653,0.70547 -1.52653,1.33075 0,0.35356 0.71316,0.22474 1.05833,-0.19116 z m 5.87564,-1.77082 c -0.43387,-0.43388 -0.98232,0.11456 -0.74167,0.74167 0.16549,0.43127 0.20621,0.43257 0.61911,0.0197 0.34519,-0.3452 0.37203,-0.51189 0.12256,-0.76135 z m -30.10391,-0.36475 c 0.78838,-0.78838 0.43624,-1.24357 -0.66505,-0.85966 -0.84564,0.2948 -0.93283,0.47886 -0.45376,0.95793 0.41843,0.41843 0.6198,0.40074 1.11881,-0.0983 z m 7.82411,0.0106 c 0,-0.42245 -0.70316,-0.83193 -0.97014,-0.56496 -0.0845,0.0845 -0.0831,0.3373 0.003,0.56186 0.20291,0.52877 0.96703,0.53123 0.96703,0.003 z" style="fill:#00a800;stroke-width:1;fill-opacity:1"/></g></g></svg>