<svg width="29.42728mm" height="9mm" version="1.1" viewBox="0 0 29.427282 9.0000001" xmlns="http://www.w3.org/2000/svg"><g transform="matrix(.11030873 0 0 .11030873 29.694537 -45.833539)"><g transform="matrix(1.3568,0,0,1.3568,140.22,-151.71)" fill="#e11919" stroke-width=".73702"><path d="m-298.62 478.02c-0.0957-0.15487-0.29218-1.5115-0.4366-3.0148-0.23758-2.4732-1.8969-30.374-2.2475-37.791-0.0791-1.6735-0.21187-4.0694-0.29501-5.3242l-0.15119-2.2814 1.4145-0.16936c3.0133-0.36081 13.746-0.96753 16.893-0.95494 1.819 7e-3 4.1407-0.10577 5.1594-0.25121 2.1-0.29985 12.529-0.96543 33.338-2.1277 7.8581-0.4389 17.978-1.0333 22.49-1.3208 4.5112-0.28755 11.595-0.7072 15.743-0.93257 13.757-0.74754 48.135-2.8214 54.625-3.2953 2.2122-0.16153 3.5379-0.15898 3.7381 7e-3 0.20138 0.16713 0.55325 0.16509 1.0027-6e-3 0.38087-0.1448 3.5207-0.44273 6.9775-0.66206 3.4568-0.21934 11.988-0.76567 18.959-1.2141 11.055-0.71115 12.723-0.76642 13.057-0.43272 0.51205 0.51205 0.73861 2.7851 1.3893 13.938 0.30138 5.166 0.84104 14.155 1.1992 19.976 0.69679 11.323 0.78456 14.307 0.42724 14.528-0.42353 0.26175-43.08 2.8596-45.415 2.7659-0.72761-0.0292-2.6326 0.0906-4.2333 0.26624s-8.3278 0.66217-14.949 1.0812c-10.252 0.64876-12.147 0.70918-12.766 0.40718-0.61906-0.30173-0.7276-0.29845-0.7276 0.022 0 0.20713-0.14883 0.37683-0.33073 0.37712-0.1819 2.6e-4 -5.9862 0.35321-12.898 0.78428-6.9122 0.43106-15.425 0.9074-18.918 1.0585s-7.5406 0.39327-8.9958 0.53809c-1.4552 0.14481-6.0986 0.44855-10.319 0.67497-4.2201 0.22643-9.1017 0.52163-10.848 0.65602-4.1339 0.31812-8.2477 0.32135-8.8352 7e-3 -0.3092-0.16548-0.81526-0.13068-1.504 0.10343-1.0632 0.36142-5.7143 0.72496-23.792 1.8597-14.516 0.91114-18.538 1.0671-18.749 0.72702zm17.426-5.2191c4.3656-0.21736 8.4138-0.45673 8.9958-0.53196 0.97834-0.12642 12.402-0.76349 26.061-1.4534 3.1287-0.15801 8.0698-0.46214 10.98-0.67585 9.7664-0.71713 12.411-0.87576 17.33-1.0396 2.6921-0.0897 6.7403-0.33123 8.9958-0.5368 2.2556-0.20557 7.6134-0.56 11.906-0.78761 4.2929-0.22761 10.425-0.5901 13.626-0.80554 3.2015-0.21543 9.2736-0.57129 13.494-0.79081 4.2201-0.21951 9.0338-0.51287 10.697-0.65191 1.9914-0.16647 3.1324-0.16292 3.3412 0.0104 0.21135 0.17541 0.57051 0.1663 1.0769-0.0273 0.41788-0.15976 2.8434-0.39426 5.39-0.52111 4.3896-0.21864 7.968-0.43974 17.066-1.0544 2.1828-0.14748 6.4691-0.38485 9.525-0.52749 7.686-0.35876 12.054-0.78896 12.212-1.2029 0.0706-0.18401-0.11511-4.483-0.41271-9.5534-0.29761-5.0704-0.66964-11.541-0.82675-14.378-0.1571-2.8377-0.39733-6.4691-0.53384-8.0698-0.13652-1.6007-0.24923-3.8332-0.25048-4.9609l-2e-3 -2.0505-3.638 1e-3c-2.0009 6.9e-4 -6.4955 0.17998-9.988 0.39846-3.4925 0.21847-11.232 0.69421-17.198 1.0572-5.9664 0.36299-12.455 0.77541-14.42 0.91649s-6.8461 0.44046-10.848 0.66529c-4.0018 0.22483-18.306 1.0597-31.787 1.8552s-27.59 1.6268-31.353 1.8472c-3.763 0.22041-9.8184 0.58995-13.456 0.82121-3.638 0.23125-8.1624 0.38295-10.054 0.3371-1.8918-0.0458-3.5586-8e-3 -3.7042 0.0839-0.4772 0.3017-2.5266 0.47908-11.774 1.0191-12.998 0.759-25.235 1.592-25.37 1.7271-0.0635 0.0635 0.0882 3.5391 0.33704 7.7237 0.24885 4.1846 0.74268 12.49 1.0974 18.456 0.35472 5.9664 0.71335 11.354 0.79694 11.972l0.15199 1.1245 2.2989-1e-3c1.2644-4.1e-4 5.8708-0.17868 10.236-0.39603zm3.3984-7.2895c-0.69473-0.26242-0.80721-0.76228-1.1281-5.0134-0.43114-5.7117-1.183-19.829-1.0625-19.949 0.0634-0.0632 0.95715-0.19778 1.9862-0.29908l1.871-0.1842 2.47 5.7201c1.3585 3.1461 2.6489 5.868 2.8675 6.0488 0.41986 0.34713 0.41763 0.19136-0.12444-8.6789-0.14005-2.2918-0.1003-2.7197 0.28882-3.1089 0.47039-0.47039 2.63-0.6319 3.2425-0.2425 0.30299 0.19263 1.1103 10.995 1.5682 20.983l0.17703 3.8618-0.63351 0.16953c-0.34844 0.0932-1.1375 0.17116-1.7535 0.17314-1.325 4e-3 -1.2087 0.19209-4.4241-7.1401-1.1168-2.5466-2.2158-4.8088-2.4423-5.0271-0.37163-0.35818-0.39615-0.22918-0.25144 1.3229 0.0882 0.94588 0.23409 3.6843 0.32422 6.0854 0.13026 3.4706 0.0904 4.454-0.19455 4.7965-0.4276 0.51407-1.9821 0.78323-2.7809 0.48151zm3.7938-16.176c-0.0845-0.21107-0.14716-0.14837-0.15985 0.15985-0.0115 0.27892 0.051 0.43519 0.13896 0.34727 0.0879-0.0879 0.0973-0.31613 0.0209-0.50712zm11.654 13.178c-0.38682-5.1146-1.3451-22.912-1.239-23.011 0.0658-0.0618 1.0712-0.1554 2.2342-0.20789l2.1145-0.0954 0.58456 9.2604c0.32151 5.0932 0.62016 10.749 0.66366 12.568l0.0791 3.3073-4.2877 0.1524zm10.823 1.3144c-1.1342-0.41929-2.4154-1.5245-2.9402-2.5363-0.56669-1.0927-0.91613-3.3127-1.3317-8.4606-0.46823-5.8001-0.50022-9.2724-0.0987-10.719 0.61243-2.206 3.2003-3.8243 6.1308-3.8337 2.1175-7e-3 3.3813 0.53321 4.6624 1.9924 1.1567 1.3174 1.3662 1.9695 1.5378 4.7857 0.1677 2.7525 0.13999 2.7942-2.069 3.1143-1.5105 0.21889-1.6876 0.0293-2.0784-2.2252-0.41356-2.3855-0.68434-2.9539-1.732-3.6353l-0.91107-0.59263-0.53368 0.57284c-0.29352 0.31506-0.61068 0.98331-0.7048 1.485-0.29725 1.5844 0.44606 12.889 0.98179 14.932 0.27654 1.0544 0.86709 1.5259 1.9111 1.5259 1.0276 0 1.2973-0.62131 1.4927-3.4394 0.10071-1.4522 0.27013-2.7274 0.37649-2.8338 0.10637-0.10636 1.0204-0.24012 2.0313-0.29723l1.8379-0.10385v6.8791l-0.85989 1.2682c-0.49947 0.73665-1.3035 1.4963-1.9182 1.8122-1.3373 0.68737-4.3292 0.8474-5.7845 0.30939zm12.015-0.92535c-0.36317-0.6786-0.41228-1.3039-1.0988-13.993-0.30153-5.5731-0.48188-10.306-0.40076-10.517 0.11171-0.29112 0.65377-0.38434 2.235-0.38434h2.0875l0.17497 3.2412c0.0962 1.7826 0.24755 4.0448 0.33626 5.0271l0.16127 1.7859h1.7896c1.4404 0 1.8233-0.0878 1.9622-0.44986 0.0949-0.24743 0.0396-2.3013-0.12289-4.5641-0.35219-4.9029-0.23959-5.4159 1.2426-5.6608 1.791-0.29591 2.9284-0.20595 3.1016 0.24529 0.0883 0.23018 0.16228 1.5696 0.16434 2.9766 2e-3 1.4069 0.17169 4.8798 0.37696 7.7174 0.65857 9.104 0.7884 13.438 0.41596 13.887-0.23733 0.28597-0.84888 0.40039-2.14 0.40039h-1.8077l-0.13049-0.8599c-0.0718-0.47294-0.19935-2.0505-0.2835-3.5057-0.0842-1.4552-0.28116-3.39-0.43782-4.2995l-0.28482-1.6536h-3.6944l0.16053 2.9766c0.0883 1.6371 0.2285 4.0779 0.31158 5.424l0.15105 2.4474-1.4138 4e-3c-0.77756 2e-3 -1.6714 0.0727-1.9864 0.15723-0.41041 0.11008-0.6569-4e-3 -0.86999-0.40196zm19.16-1.0978c-0.0955-0.15453-0.34252-3.7562-0.54892-8.0036-0.42008-8.6448-0.68998-12.07-0.98929-12.554-0.12321-0.19935-0.79922-0.32795-1.724-0.32795-1.9978 0-2.4521-0.3588-2.6162-2.0662-0.12357-1.286-0.0914-1.3763 0.58096-1.6319 0.39148-0.14883 1.5204-0.27061 2.5087-0.27061 0.98834 0 3.3648-0.13123 5.281-0.29162s3.7708-0.21965 4.1213-0.13168c0.80871 0.20298 1.0296 0.90601 0.80272 2.5554l-0.17984 1.3075h-3.9191l4e-3 1.2568c2e-3 0.69122 0.17838 3.9952 0.39119 7.3422 0.21282 3.347 0.38949 7.663 0.39262 9.5912l6e-3 3.5057h-1.9688c-1.1037 0-2.0451-0.12346-2.1424-0.28098zm20.794-1.4219c-0.38654-0.46575-5.6212-23.081-5.5145-23.824 0.0585-0.40724 0.37069-0.58528 1.3333-0.76046 1.5052-0.27391 2.456-0.079 2.7022 0.55389 0.0996 0.25591 0.52417 2.1547 0.9436 4.2195 0.41942 2.0648 1.0266 4.8628 1.3494 6.2177 0.54934 2.3064 0.59942 2.4045 0.78493 1.5375 0.10898-0.50932 0.45186-3.4264 0.76196-6.4823 0.31011-3.0559 0.60783-5.691 0.66162-5.8557 0.0538-0.1647 0.70798-0.44585 1.4538-0.62476 1.1978-0.28734 1.4145-0.27236 1.8574 0.12847 0.27577 0.24956 0.57616 0.82836 0.66753 1.2862 0.0914 0.45785 0.64969 2.9756 1.2407 5.595 0.59102 2.6194 1.1322 5.0304 1.2026 5.3578 0.14402 0.66953 0.59554 0.81411 0.59554 0.19071 0-1.3371 0.85326-11.506 1.0206-12.163 0.20035-0.78691 0.21974-0.79442 2.2507-0.87128l2.0486-0.0775-0.14818 0.87128c-0.0815 0.4792-0.68504 5.9725-1.3412 12.207-0.65616 6.2349-1.3144 11.563-1.4628 11.84-0.21799 0.40732-0.56626 0.504-1.8155 0.504-0.99105 0-1.6545-0.13096-1.8486-0.3649-0.16656-0.2007-0.89488-2.9623-1.6185-6.1369s-1.427-5.8834-1.5632-6.0196c-0.23572-0.23572-0.31697 0.0699-0.67346 2.5334-0.0685 0.47295-0.31134 2.7633-0.53976 5.0897-0.50545 5.1476-0.64038 5.4275-2.6168 5.4275-0.90842 0-1.5298-0.13631-1.732-0.37992zm18.675-2.8612c-0.0932-1.2006-0.40864-6.1714-0.70109-11.046-0.29244-4.875-0.60623-9.6077-0.69731-10.517l-0.16559-1.6536h4.547l0.14116 0.85989c0.28754 1.7516 0.60936 10.358 0.41292 11.043-0.11187 0.39007-0.10505 0.88497 0.0152 1.0998 0.34884 0.62335 0.77765 5.5626 0.77765 8.9574 0 3.5788 0.10092 3.4399-2.4988 3.4399h-1.6618zm10.849 0.66145c-0.19992-1.0562-0.43322-4.4655-0.73779-10.782-0.14736-3.0559-0.32717-6.4194-0.39959-7.4745l-0.13167-1.9182h-1.9542c-2.1772 0-2.4069-0.17003-2.5028-1.8524-0.12018-2.109-0.42314-1.973 5.2925-2.3769 2.11-0.14911 4.6997-0.34651 5.7547-0.43868l1.9182-0.16756v1.99c0 1.84-0.0449 2.002-0.59532 2.1495-1.0292 0.27582-2.5618 0.18136-3.5142-0.21661 0.0127 0.6612-1.6394-0.43007-0.91448-0.102 8.3935 0.46121 0.85548 0.53743 0.92714 0.7632 0.0717 0.22576 0.25028 2.6666 0.39695 5.4241s0.37977 6.9187 0.518 9.247c0.13824 2.3283 0.25587 4.7394 0.2614 5.3578l0.0101 1.1245h-2.0956c-2.0764 0-2.0969-7e-3 -2.2334-0.72761zm9.9664-1.0342c0.20602-1.9711 2.061-8.4924 4.2244-14.851 1.4047-4.1288 1.5881-4.8755 1.2501-5.0892-0.2179-0.13774-1.6761-0.25227-3.2404-0.2545l-2.8443-4e-3v-1.5875c0-0.87312-0.0298-1.6768-0.0661-1.7859-0.0892-0.26758 2.2669-0.50594 7.276-0.7361l4.1672-0.19148v1.4463c0 1.578-0.65755 3.9742-3.7122 13.528-1.6068 5.0254-1.869 6.086-1.5574 6.3006 0.22435 0.15448 1.6223 0.19521 3.4836 0.10151l3.1088-0.15651v3.8927l-4.4318 0.32753c-2.4375 0.18014-5.1949 0.39819-6.1275 0.48454l-1.6957 0.15702zm14.895-0.0241c-0.37008-1.2143-1.2113-15.37-1.309-22.027l-0.0408-2.7781 1.9204-0.0778c1.8232-0.0738 1.9327-0.0452 2.165 0.56559 0.27602 0.726 1.0286 12.637 1.2605 19.951l0.15314 4.8286h-2.0041c-1.6785 0-2.027-0.0752-2.1452-0.46302zm10.952-0.0334c-2.0872-0.6834-3.5093-2.0117-3.9428-3.6828-0.76133-2.9343-1.3806-16.473-0.82977-18.142 0.95458-2.8924 4.6775-4.7957 7.5822-3.8764 2.6309 0.83267 3.7706 2.2969 4.4672 5.7389 0.6125 3.0264 0.45965 3.261-2.125 3.261h-1.9751l-6e-3 -0.85989c-0.01-1.3078-0.50301-3.1777-0.97589-3.7003-0.48846-0.53974-1.7427-0.62018-2.1235-0.1362-0.14314 0.1819-0.33232 0.79873-0.42039 1.3707-0.20016 1.2999 0.27516 11.944 0.62113 13.909 0.30117 1.7108 1.0375 2.5031 2.0947 2.254 1.144-0.26966 1.6074-1.0761 1.5779-2.7463-0.0403-2.2777-0.25039-2.7687-1.2744-2.9782-0.48634-0.0995-0.98611-0.34156-1.1106-0.538-0.34179-0.53934-0.2789-1.915 0.11198-2.4495 0.47068-0.64369 2.3316-0.96933 4.4557-0.77968l1.7594 0.15709 0.17289 1.3838c0.32065 2.5664 0.61354 9.7203 0.42674 10.423-0.22641 0.85217-1.1043 1.0452-2.0211 0.44448-0.61446-0.40261-0.71483-0.38819-1.8243 0.26201-1.2571 0.73669-3.4804 1.065-4.6403 0.68518z" fill="#e11919" stroke-width=".73702"/></g></g></svg>
