
<svg width="644.7" height="291.43" version="1.1" viewBox="0 0 170.58 77.108" xmlns="http://www.w3.org/2000/svg"><g transform="translate(280.42 -506.43)"><g transform="translate(-18.899 131.54)" fill="#00a800"><path d="m-104.7 451.85c-2.5421-.1876-19.096-1.1283-22.357-1.2704-6.8651-.2993-35.892-1.7383-42.73-2.1183-3.8563-.2143-12.965-.6311-20.241-.9263s-16.325-.7127-20.108-.9278c-3.7835-.2151-11.701-.6329-17.595-.9284-12.706-.6371-26.966-1.5117-30.295-1.8582-1.3097-.1363-2.5842-.2499-2.8323-.2525-.7713-.008-.8289-1.5491-.3749-10.022.7743-14.45 1.4587-28.225 2.0066-40.386.6106-13.553.9457-17.876 1.4097-18.19.4446-.3003 18.906.3054 26.382.8655 1.819.1363 6.7601.3711 10.98.5219 4.2201.1507 9.1017.3934 10.848.5393 1.7462.1459 6.8659.4429 11.377.6601 38.252 1.8416 38.709 1.8727 39.617 2.6941.4311.3902.5332.3993.7401.0662.3941-.6345 3.4115-.5379 50.131 1.6052 15.693.7198 15.92.7373 16.448 1.2655.3878.3878.4161 1.179.2715 7.5838-.0888 3.933-.4022 11.556-.6963 16.94s-.7782 14.731-1.0758 20.77c-.2975 6.0391-.7159 13.004-.9298 15.478-.2139 2.4738-.3895 5.0713-.3904 5.7721-.0028 2.3407.0777 2.3043-4.9718 2.2515-2.4324-.0254-4.9582-.0858-5.6131-.1341zm-3.9688-2.7145c0-.3122-.516-.6461-.7056-.4566-.1895.1895.1444.7056.4566.7056.1369 0 .249-.112.249-.249zm-22.225-1.4708c.2679-.3228.2553-.3969-.0675-.3969-.2183 0-.5451.1786-.7262.3969-.2679.3228-.2553.3969.0675.3969.2183 0 .5451-.1786.7262-.3969zm6.8792.007c0-.3519-1.6572-.9254-2.2467-.7775-.77.1933-.8683.5461-.2007.7206.6422.1678 2.4474.2098 2.4474.0569zm-26.723-.9328c0-.4179-.1764-.5292-.8391-.5292-.4615 0-1.0756-.2084-1.3648-.463-.5023-.4425-.5141-.4417-.2651.0176.2993.552 1.6481 1.4994 2.1382 1.502.1819.001.3307-.2364.3307-.5274zm3.7042-.5292c0-.6238-.6717-.8627-1.0714-.3811-.2454.2957-.2454.4666 0 .7623.3997.4816 1.0714.2426 1.0714-.3811zm-2.3328-.0573c-.1898-.1899-.3131-.2055-.3131-.0397 0 .1504.0794.3528.1764.4498.097.097.2379.1149.3131.0397.0752-.0752-.004-.2776-.1764-.4498zm4.2186.1235c.3291-.4196.3197-.429-.0999-.0999-.4407.3456-.5809.5629-.3631.5629.0549 0 .2633-.2084.463-.463zm-11.983-.4407c.0765-.3948.007-.4189-.4704-.1632-.3081.1649-.4864.4192-.3963.5651.2367.3829.7617.1395.8667-.4018zm-10.805.0817c0-.1611-.1849-.2219-.4109-.1352-.2742.1052-.5602-.1048-.8599-.6315-.5128-.9012-.6507-.9496-1.1146-.3906-.2729.3288-.2473.4971.1409.926.5109.5645 2.2445.7432 2.2445.2313zm3.9688-.2675c0-.1455-.1191-.191-.2646-.1011-.1455.0899-.2646.2826-.2646.4281s.1191.191.2646.1011c.1455-.0899.2646-.2826.2646-.4281zm-2.5324-.6491c.595-.595.5262-.9849-.1134-.6426-.291.1558-.5292.4576-.5292.6708 0 .4935.1265.4879.6426-.0282zm-32.588-.521c.7356-.6821.999-1.3664.3942-1.0239-.5659.3205-1.5214 1.2484-1.5214 1.4776 0 .3888.3862.2334 1.1272-.4537zm98.312-3.8919c.3668-5.3332 1.8375-34.466 1.9507-38.639.0594-2.1905.1697-2.9113.4743-3.0993.349-.2154.3441-.2977-.0399-.6819-.3875-.3876-.3949-.5371-.0662-1.324.4042-.9673.4631-2.6405.202-5.7302l-.1687-1.9956-2.5433-.1748c-1.3988-.0961-4.2102-.3437-6.2475-.5503-3.9783-.4033-11.599-.7531-25.929-1.1902-4.9477-.1509-11.734-.4481-15.081-.6603-3.347-.2122-13.348-.7445-22.225-1.1828-24.962-1.2326-26.087-1.3272-26.859-2.2571-.2923-.3522-.3675-.347-.6543.0453-.2949.4032-.9661.4275-7.4396.2692-7.8509-.1921-16.517-.5881-21.403-.9781-4.8395-.3862-22.094-.8953-23.215-.6848-.7261.1363-1.0237.3414-1.1162.7695-.2347 1.0858-1.528 25.499-2.6955 50.881-.1183 2.5713-.0823 3.7856.1156 3.9079.5225.3229 4.3389.6644 10.639.9518 3.4197.156 7.6465.3996 9.3927.5413s7.5803.441 12.965.6652c5.3843.2241 12.528.5786 15.875.7877s9.181.5059 12.965.6594 8.7246.3936 10.98.5333c2.2556.1397 8.0896.439 12.965.6649s10.054.5371 11.509.6915 3.5983.3784 4.7625.4978c1.1642.1194 4.0812.2273 6.4823.2398 6.5859.0342 33.291 1.2293 33.58 1.5028.0606.0573 2.4507.1042 5.3113.1042h5.2011zm-31.971-6.2642c-2.3561-.5069-4.283-1.8853-5.4721-3.9144-.9251-1.5786-1.0293-3.8639-.6372-13.977.3558-9.1772.6594-12.202 1.3985-13.931.6316-1.4779 2.9056-3.7224 4.5083-4.4498 2.3806-1.0805 6.995-.4255 9.3851 1.3322 1.9316 1.4205 2.9883 4.6937 2.9883 9.2567 0 2.3911-.4731 2.6276-4.4291 2.2142l-1.5963-.1668-.1134-2.4128c-.1476-3.1419-.7826-4.4946-2.3272-4.9574-1.8241-.5465-2.4357.4391-2.8924 4.6612-.462 4.2702-.8798 13.114-.7585 16.056.1503 3.647.5117 4.2767 2.5232 4.3959 1.1701.0693 1.3994-.005 1.876-.6114.7072-.8991 1.1498-3.089 1.0502-5.196l-.0795-1.6799-1.1625-.1551c-1.4062-.1877-1.8802-.7516-1.8802-2.2372 0-1.5444.4539-2.6852 1.1411-2.8679.5486-.1459 5.6585.2033 7.543.5156l.8789.1456-.1743 5.6068c-.2728 8.775-.4987 10.96-1.2114 11.719-.8587.914-1.8975.8346-2.713-.2076l-.6595-.8427-1.8071.8198c-1.9453.8825-3.8981 1.2039-5.379.8852zm.2646-2.1364c0-.3367-.1764-.5292-.4851-.5292-.7806 0-.9026.3426-.2508.7045.7756.4306.7359.4401.7359-.1753zm2.1167-.7626c0-.2998-.095-.2712-.3885.1167-.2137.2825-.3885.6922-.3885.9105 0 .2998.095.2712.3885-.1167.2137-.2825.3885-.6922.3885-.9105zm-4.2333-.3947c0-.0544-.3048-.6443-.6773-1.3109l-.6773-1.2119.6773-.5889c.3725-.3239.6773-.8056.6773-1.0704 0-.6361-.1694-.6086-1.1066.18-.4324.3638-.9556.6614-1.1627.6614-.5097 0-.4797.6976.0385.8964.2745.1053.3585.3375.2482.6854-.1886.5941.8819 1.8578 1.5737 1.8578.2249 0 .4089-.0445.4089-.099zm.7895-1.7611c-.1667-.3116-.3731-.4966-.4585-.4111-.0855.0854.01.4639.2116.8411.2019.3772.4082.5622.4585.4111.0503-.151-.0449-.5295-.2117-.8411zm-2.5216-3.3263c.2235-1.1914.1221-1.2961-.6022-.6213-.5777.5382-.7292 1.0684-.3997 1.398.4246.4246.8364.1053 1.0018-.7767zm.1447-4.2372c0-.0558-.3047-.1014-.6771-.1014s-.6104.1079-.5289.2397c.1356.2193 1.206.0966 1.206-.1383zm.826-1.6029c-.3119-.5364-.3872-.3647-.1319.3006.0907.2365.2207.3742.2888.3061.0681-.0681-.002-.3412-.1569-.6067zm-1.2229-1.6735c-.128-.2071-.2802-.2225-.4566-.0461-.1455.1455-.1782.4044-.0726.5753.128.2071.2802.2225.4566.0461.1455-.1455.1782-.4044.0726-.5753zm-.124-2.6011c-.7242-.1087-.9167.0684-.6969.6413.1566.408.2158.4036.7251-.0547l.5546-.499zm-24.747 16.611c-9.0771-.6804-9.1281-.6885-9.1281-1.4313 0-.9515 1.1861-4.8122 2.1979-7.1543 2.3376-5.4107 5.384-12.156 7.3202-16.209 1.1679-2.4447 2.1235-4.5858 2.1235-4.7579 0-.5729-.899-.7871-3.9688-.9455-3.5951-.1856-4.7004-.5016-4.9281-1.4091-.2408-.9594.0234-3.4399.4169-3.914.4158-.501 3.4897-.5167 10.72-.055l4.7534.3036.2435 1.0332c.4398 1.8657-.7087 5.235-4.9237 14.445-5.9465 12.993-6.1579 13.545-5.3151 13.871.2687.1041 2.0871.3664 4.0409.5829 1.9538.2165 3.7681.5091 4.0318.6502.6334.339.8407 1.2626.6904 3.0756-.0939 1.1323-.2662 1.6027-.7225 1.9722-.3296.2669-.7349.4703-.9006.452-.1658-.0183-3.1589-.2475-6.6514-.5093zm-4.487-2.8795c-.0959-.1552-.301-.2822-.4558-.2822-.1754 0-.1554.1518.0533.4033.3629.4373.6872.3397.4024-.1211zm-.4684-1.3901c-.1635-.4906-.7331-.572-.7331-.1047 0 .2304.1885.4189.4189.4189.2304 0 .3718-.1414.3142-.3142zm4.294-12.518c0-.2183-.1932-.3969-.4293-.3969-.3516 0-.3696.0718-.0999.3969.1812.2183.3743.3969.4293.3969.0549 0 .0999-.1786.0999-.3969zm1.1068-.9834c-.1898-.1898-.3131-.2055-.3131-.0397 0 .3532.3129.6661.4895.4895.0752-.0752-.004-.2776-.1764-.4498zm2.9942-3.4778c.4964-.2792.4832-.303-.2143-.3847-.5925-.0694-.7268-.2042-.6615-.6633.062-.4353.2924-.5965.9419-.6591.8359-.0806 1.1666-.6224.5953-.9754-.1455-.0899-.2646-.5732-.2646-1.074 0-1.0521-.2435-1.1398-.9512-.3426-.3625.4084-.4112.6003-.1733.6835.4956.1733.3996.721-.2255 1.2867-.6583.5958-1.2958 1.7591-1.2958 2.3646 0 .3478.1661.3954.8599.2464.4729-.1015 1.098-.3185 1.3891-.4822zm1.0055-6.08c.0749-.1951.0281-.5225-.104-.7276-.2066-.3208-.2737-.3208-.4802 0-.2564.3982-.1047 1.0823.2401 1.0823.1144 0 .2692-.1596.3441-.3547zm1.508-2.5557c0-.3315-.2808-.3315-.7937 0-.3209.2074-.283.2572.1984.2605.3274.002.5953-.115.5953-.2605zm-1.0583-2.2095c0-.6167-.5699-2.0239-.8196-2.0239-.3253 0-.3019 1.2396.0352 1.8695.3151.5888.7844.6812.7844.1544zm1.5875-.553c0-.2097-.1108-.4498-.2463-.5335-.3146-.1944-.6309.301-.4152.6502.2433.3937.6615.3199.6615-.1167zm5.3959 28.361c.1017-2.6558.3502-7.2099.5523-10.12.2021-2.9104.5122-8.685.6891-12.832.2063-4.8351.4261-7.6121.6125-7.7398.1599-.1096 1.5409-.1691 3.0689-.1323l2.7781.0669-.0796 4.3656c-.0438 2.4011-.1906 6.1516-.3263 8.3344s-.3653 6.8858-.5105 10.451c-.1451 3.5653-.337 7.7002-.4264 9.1888l-.1626 2.7065-.9671.2686c-.5319.1477-1.9675.2693-3.1902.2701l-2.2231.002.1849-4.8286zm2.8062-1.6536c0-.2183-.1786-.3969-.3969-.3969-.4132 0-.5249.3129-.2205.6174.3044.3044.6174.1927.6174-.2205zm-.0247-8.0269c-.3111-.8925-.7691-1.1274-.7691-.3945 0 .4303.7876 1.5042.9697 1.3221.05-.0501-.0402-.4675-.2006-.9277zm.7965-3.9432c-.181-.547-.3787-.8467-.4394-.6661-.0607.1806.0377.7759.2187 1.3229.181.547.3787.8467.4394.6661.0607-.1806-.0377-.776-.2187-1.3229zm1.874-3.2591c0-.1369-.1191-.249-.2646-.249s-.2646.1856-.2646.4125.1191.3389.2646.249c.1455-.0899.2646-.2756.2646-.4125zm-1.7068-.721c-.2547-.2547-.9391.2095-.9391.637 0 .4072.0464.4042.5308-.0342.2919-.2642.4757-.5355.4083-.6029zm.9208-3.2133c-.3501-.8452-.482-.9187-1.173-.6535-.3691.1416-.3715.2208-.0216.7203.2162.3086.3931.8588.3931 1.2226v.6614l.5691-.5691c.511-.511.5347-.652.2325-1.3817zm.9577-8.1374c-.3257-.3257-1.0917.3226-1.1839 1.0018l-.0861.6344.7335-.7196c.4034-.3958.6449-.8083.5364-.9167zm-39.462 32.004c-1.2239-.3008-1.2671-.4842-1.0746-4.5644.0997-2.1137.4113-7.5341.6925-12.045.5467-8.7714.6321-12.502.2982-13.028-.1144-.1802-1.4818-.5246-3.0387-.7654l-2.8306-.4379.003-1.4835c.002-.8159.0767-1.93.1669-2.4757l.164-.9922 4.794.005c4.9089.006 12.039.373 13.279.6843l.6936.1741-.1872 2.4124c-.1029 1.3268-.2153 2.4439-.2497 2.4824-.0344.0385-1.3903.146-3.0132.2389-2.2985.1315-2.9506.2522-2.9506.5459 0 .2074-.1196 1.7668-.2658 3.4653s-.5061 7.7317-.7997 13.407-.6056 10.714-.6932 11.198c-.1099.6058-.3601.9553-.8051 1.1245-.6635.2523-3.2411.2856-4.1831.054zm3.2577-8.5232c.0661-.1984-.0331-.2977-.2315-.2315-.191.0637-.3994.272-.463.463-.0661.1984.0331.2977.2315.2315.191-.0637.3993-.272.463-.463zm-1.141-2.3978c-.0899-.1455-.2756-.2646-.4125-.2646-.1369 0-.249.1191-.249.2646s.1856.2646.4125.2646.3389-.1191.249-.2646zm1.172-9.6068c-.0179-.5589-.0267-.5607-.246-.0505-.3129.7283-.3129.9872 0 .7937.1455-.0899.2562-.4244.246-.7432zm-1.5689.214c0-.4205-.9293-.5551-1.1678-.1692-.1954.3161.1061.5661.6827.5661.2668 0 .4851-.1786.4851-.3969zm2.5135-7.8052c-.0899-.1455-.2826-.2646-.4281-.2646s-.191.1191-.1011.2646c.0899.1455.2826.2646.4281.2646s.191-.1191.1011-.2646zm.9908-3.5719c-.1523-.7966.5401-.9144 1.3051-.2221.7108.6432.7957.3331.1766-.6447-.6499-1.0264-1.0184-1.0616-1.9947-.1907l-.7423.6623.6246.5284c.784.6631.783.6633.6308-.1331zm-2.9752-.5292c0-.3638-.1063-.6615-.2363-.6615-.3086 0-.6017.7728-.4104 1.0822.2882.4663.6467.2331.6467-.4208zm-4.9862-1.4818c-.4868-.4427-.9536-.7364-1.0373-.6527-.2357.2357 1.0367 1.474 1.5056 1.4652.2808-.005.1279-.2705-.4682-.8126zm6.9968-.1677c-.2936-.2936-3.0689-.7993-3.0689-.5591 0 .115.387.3209.8599.4574 1.0494.303 2.476.3687 2.209.1017zm-18.386 33.198-2.4844-.2574.1733-2.9458c.0953-1.6202.4084-7.8273.6957-13.794.6123-12.713 1.0156-18.431 1.3226-18.751.2922-.3041 5.4809-.0893 5.7789.2392.2604.2871-.0654 10.207-.4906 14.94-.1504 1.6735-.4478 6.9122-.661 11.642-.3387 7.5154-.4444 8.6406-.8387 8.9297-.2481.1819-.5772.3136-.7313.2927-.1541-.0209-1.3981-.1538-2.7645-.2954zm.7139-6.5656c-.0522-.1564-.2079-.2844-.3462-.2844-.1382 0-.294.128-.3462.2844-.0522.1564.1036.2844.3462.2844.2425 0 .3983-.128.3462-.2844zm.3153-7.2736c0-.4248-.5967-1.1732-.9354-1.1732-.5051 0-.4931.3858.0282.9071.4108.4108.9071.5564.9071.2661zm.1554-4.7584c-.2668-.7285-.3883-.8699-.4013-.4669-.0229.7088.5331 2.1748.6788 1.7898.0579-.1529-.067-.7482-.2775-1.3229zm1.9613-3.3096c0-.1369-.1191-.249-.2646-.249-.1455 0-.2646.1856-.2646.4125s.1191.3389.2646.249c.1455-.0899.2646-.2756.2646-.4125zm-1.7068-.721c-.2547-.2547-.9391.2095-.9391.637 0 .4072.0464.4042.5308-.0342.2919-.2642.4757-.5355.4083-.6029zm1.1776-1.5123c0-.706-.4806-.8688-1.008-.3414-.2504.2504-.1898.3924.2778.6521.3288.1826.6276.3362.664.3414.0364.005.0661-.2883.0661-.6521zm-.7937-1.8521c0-.2183-.1786-.3969-.3969-.3969s-.3969.1786-.3969.3969.1786.3969.3969.3969.3969-.1786.3969-.3969zm.7937-1.9844c-.5181-.3349-.8684-.3349-.6615 0 .0899.1455.3649.2628.6109.2605.3856-.003.3926-.0395.0505-.2605zm.6294-5.1995c.3859-.3859.6383-.7648.5609-.8422-.1799-.1799-1.5201.8132-1.6587 1.2291-.1794.5382.3644.3465 1.0978-.3869zm-21.274 23.095c-.636-5.186-1.2484-9.4291-1.361-9.4291-.3333 0-1.1774 3.1343-2.8645 10.637-.8738 3.886-1.5887 7.1305-1.5887 7.2099 0 .0794-1.2311.1444-2.7358.1444h-2.7357l-.437-3.1088c-.4929-3.5062-3.2338-27.163-3.5059-30.259-.1371-1.5601-.096-2.0645.1825-2.2366.1977-.1222 1.3777-.2709 2.622-.3304 1.8238-.0872 2.3292-.0279 2.6063.306.2262.2726.6115 3.4261 1.127 9.2239.8473 9.5304.9204 10.096 1.2774 9.8753.2474-.1529 1.4589-5.1124 3.072-12.575.519-2.4011 1.1552-4.7823 1.4139-5.2917.4573-.9005.518-.9282 2.2011-1.0036 1.2693-.0569 1.837.0287 2.1291.3207.5207.5207.8419 2.4516 1.7961 10.799.8234 7.2032.972 8.1399 1.2912 8.1399.2783 0 .9165-2.8283 2-8.8635.5225-2.9104 1.1924-6.3335 1.4888-7.6068l.5388-2.3151h2.168c2.2519 0 3.3441.3985 3.3441 1.22 0 .3681-5.8364 27.78-6.7213 31.568-.5589 2.3923-.8719 2.6284-3.7562 2.8332l-2.3958.1701zm4.7014 3.6114c.1366-.4162-1.2092-.7568-1.569-.3971-.1513.1513-.1909.4113-.0879.5779.2378.3848 1.5171.2452 1.6569-.1808zm-11.129-1.4484c-.0845-.2111-.1472-.1484-.1598.1598-.0115.2789.051.4352.139.3473.0879-.0879.0973-.3161.0209-.5071zm-2.8266-.4639c0-.7349-.3982-1.2931-.7042-.9871-.2172.2172.1868 1.7652.4607 1.7652.134 0 .2436-.3502.2436-.7781zm1.1686-.9795c.2215-.5772-.0726-.8455-.3851-.3513-.3129.4947-.3195.7861-.018.7861.13 0 .3114-.1956.4031-.4348zm1.4854-1.6391c-.1957-.3353-.2546-.1884-.2479.6186.008.9256.0398.9808.2566.4397.1563-.39.1531-.7811-.009-1.0583zm-2.1515-.0208c.3097-.1961.2838-.4009-.1582-1.2527-.6245-1.2034-1.4832-1.3918-1.6264-.3569-.0503.3638-.2094.8051-.3535.9806-.1441.1755-.1852.4434-.0913.5953.2074.3355 1.7167.3583 2.2295.0337zm2.6725-1.9024c0-.13-.1786-.2363-.3969-.2363s-.3969.1749-.3969.3886c0 .2367.1551.329.3969.2363.2183-.0838.3969-.2586.3969-.3886zm12.962-.4939c.2972-.1879.3196-.3246.0907-.5535-.2289-.2289-.3777-.1663-.6024.2536-.3185.5951-.1299.7056.5118.3zm-16.258-1.607c.6181-.6452.6985-.852.402-1.0352-.2037-.1259-.6184-.7454-.9214-1.3765-.3715-.7738-.7448-1.1751-1.1463-1.2321-.3274-.0465-.5953.0428-.5953.1984 0 .1557.1046.283.2325.283.1279 0 .3855.3694.5725.8209.2649.6394.272 1.0091.0321 1.6724-.1694.4683-.3079.9919-.3079 1.1635 0 .5864.9585.3129 1.7318-.4943zm11.396-.9962c-.37-.37-.4276-.3736-.4276-.0269 0 .5436.6191 1.1627.755.755.0551-.1653-.0923-.4929-.3274-.7281zm-6.7508-3.1485c-.2541-.4367-.2759-.4307-.2833.0782-.009.6125.3268 1.09.4682.6659.0497-.1491-.0335-.484-.1849-.7441zm6.523-.936c-.0599-.1819-.3972-.364-.7497-.4047-.6205-.0716-.6245-.0611-.1271.3307.6219.49 1.025.524.8768.0739zm6.8393-.3914c-.269-.269-.4909.136-.2702.493.1667.2697.229.2699.3186.001.0613-.1838.0395-.4062-.0484-.4941zm-.9261-1.473c-.3396-.3396-.684-.0771-.4325.3297.0974.1576.2983.2116.4464.12.1807-.1117.1762-.2597-.0139-.4497zm-6.9251-4.2194c-.1354-.472-.2461-.8887-.2461-.926 0-.0373-.1228-.0679-.2729-.0679-.5147 0-.585.8135-.1151 1.3328.6863.7583.9139.6367.6341-.3388zm-2.1642.1305c.0646-.194-.1178-.3307-.4411-.3307-.325 0-.5512.1708-.5512.4163 0 .4863.8256.4151.9923-.0855zm.27-1.9678c-.1635-.4906-.7331-.572-.7331-.1047 0 .2304.1885.4189.4189.4189s.3718-.1414.3142-.3142zm9.5856 40.887c0-.5466-.7397-.422-1.0613.1788-.4158.777-.0541 1.1865.5584.6322.2766-.2503.5029-.6153.5029-.811zm-20.042-.2841c.6311-.2818 1.0457-1.1301.5524-1.1301-.401 0-2.4202 1.339-2.5571 1.6957-.2167.5646.4168.7056.8802.1959.2183-.2401.7243-.5828 1.1245-.7615zm7.6068 1.017c0-.1288-.2977-.4292-.6615-.6676-.5629-.3688-.6615-.3753-.6615-.0436 0 .2144.2084.5112.463.6595.5787.3371.8599.3539.8599.0516zm14.817-.3106c0-.1369-.1786-.249-.3969-.249-.4092 0-.5256.3122-.2277.6102.2114.2114.6246-.0276.6246-.3612zm-12.965-.7937c0-.2824-.1786-.5135-.3969-.5135-.3924 0-.5548.8123-.2277 1.1393.2758.2758.6246-.0735.6246-.6258zm5.6508-.2721c-.349-.349-.7845-.512-1.1833-.4428-.5925.1027-.5744.1358.295.5419 1.2629.5898 1.5456.5583.8883-.0991zm3.2139.2858c.0906-.1466-.0266-.3398-.2604-.4296-.5066-.1944-.7889.0198-.5454.4138.2197.3555.5913.3628.8058.0158zm-14.317-.4167c.0883-.2302.1606-.6019.1606-.8261 0-.3323-.0733-.3468-.3969-.0783-.4291.3562-.5465 1.3229-.1606 1.3229.13 0 .3085-.1883.3969-.4185zm-20.626-1.2516c.1362-.3855.1648-.7837.0634-.8851-.249-.249-.9537.716-.9641 1.3205-.0121.6956.6067.3965.9007-.4354zm3.087-.2604c-.2129-.213-.2898-.0807-.2839.4885.007.6842.0431.7203.292.292.2035-.3501.2012-.5713-.008-.7805zm11.46.9761c.6237-.2394.5056-.6331-.19-.6331-.3347 0-.7327-.1241-.8843-.2758-.1913-.1913-.3846-.1447-.6312.1525-.2988.36-.2949.4666.0245.6686.4436.2807 1.0906.3145 1.6811.0879zm-22.666-.9056c.764-.4381 1.3891-.9133 1.3891-1.0558 0-.412-.4567-.3005-.6312.1542-.1256.3272-.4006.3771-1.3199.2392-1.2682-.1902-1.6332.0622-1.3554.9373.2153.6783.2689.6706 1.9175-.2748zm18.984.2724c.2999-.3314.3582-.5292.1559-.5292-.5559 0-1.3687.5439-1.206.807.2355.3811.5225.3051 1.0501-.2778zm-4.7468-.5546c.0986-.1595-.0135-.4827-.249-.7182-.3945-.3945-.4282-.3717-.4282.29 0 .7307.3524.9536.6772.4282zm-17.081-.7684c.3093-.1999.2362-.2574-.3307-.2605-.4002-.002-.7276.115-.7276.2605 0 .3345.5407.3345 1.0583 0zm157.43-.4125c0-.2269-.1191-.3389-.2646-.249-.1455.0899-.2646.2756-.2646.4125s.1191.249.2646.249.2646-.1856.2646-.4125zm1.0583-2.4696c0-.13-.1786-.3048-.3969-.3886-.4033-.1548-.5419.1271-.2205.4485.2529.2529.6174.2175.6174-.0599zm.2646-4.2699c0-.3167-.7463-.6565-.9639-.4389-.2317.2317.1613.7117.5827.7117.2097 0 .3813-.1228.3813-.2729zm-.5985-9.1702c-.246-.246-.5216-.373-.6124-.2822-.2604.2604.1394.7295.6217.7295.4039 0 .4032-.0348-.0093-.4473zm1.3922-1.0079c0-.2183.248-.6449.5512-.9481.6952-.6952.475-.9645-.3284-.4018-.3328.2331-.8763.4239-1.2077.4239-.7165 0-.7534.1885-.1647.8391.5298.5854 1.1496.6323 1.1496.087zm-1.1906-2.7781c-.128-.2071-.2802-.2225-.4566-.0461-.1455.1455-.1782.4044-.0726.5753.128.2071.2802.2225.4566.0461.1455-.1455.1782-.4044.0726-.5753zm1.1906-5.9687c0-.5007-.1191-.9104-.2646-.9104-.1455 0-.2646.4833-.2646 1.074 0 .6486.1048 1.0092.2646.9104.1455-.0899.2646-.5732.2646-1.074zm1.0583-3.7373c0-.2256-.1931-.3504-.463-.2993-.318.0602-.4852.3772-.5338 1.0116l-.0708.9239.5338-.6246c.2936-.3435.5338-.7988.5338-1.0116zm-.0529-5.1636c.5793-.5793.3288-.7603-.4763-.3439-.4366.2258-.7937.4669-.7937.536 0 .2589.9649.113 1.27-.192zm-.4803-2.5268c-.0021-.2547-.1149-.6383-.2504-.8525-.211-.3336-.2714-.3241-.4211.0661-.2082.5427.0195 1.2494.4026 1.2494.1501 0 .2711-.2084.2688-.463zm-161.02-.2205c.0989-.2577.0397-.3786-.1536-.3142-.3955.1318-.6133.7332-.2655.7332.1421 0 .3307-.1885.4191-.419zm160.76-4.4512c-.5539-.5461-.5669-.5467-.9433-.0402-.4743.6384-.4852.9416-.0338.9416.1913 0 .577.4465.8569.9922l.5091.9922.0863-1.166c.0675-.9122-.0359-1.2866-.4753-1.7198zm-159.81.3723c0-.1455-.2381-.2646-.5292-.2646s-.5292.1191-.5292.2646.2381.2646.5292.2646.5292-.1191.5292-.2646zm-.5292-1.8521c0-.291-.1191-.5292-.2646-.5292s-.2646.2381-.2646.5292.1191.5292.2646.5292.2646-.2381.2646-.5292zm161.92-3.4396c0-.1455-.2084-.2628-.463-.2605-.3957.003-.4053.0413-.0662.2605.4993.3227.5292.3227.5292 0zm-161.4-.926c.2698-.3251.2517-.3969-.0999-.3969-.2361 0-.4293.1786-.4293.3969 0 .2183.045.3969.0999.3969s.2481-.1786.4293-.3969zm160.6-.8977c0-.13-.1786-.3048-.3969-.3886-.4033-.1548-.5419.1271-.2205.4485.2529.2529.6174.2175.6174-.0599zm-160.34-2.8568c0-.3783-.0621-.3724-.5292.0503-.291.2634-.5292.5837-.5292.7118 0 .1281.2381.1055.5292-.0503.291-.1558.5292-.4761.5292-.7118zm0-3.1793c0-.5391-.696-.4011-1.5066.2987l-.7424.6409 1.1245-.2987c.6185-.1643 1.1245-.4527 1.1245-.6409zm156.78.4706c-.0954-.1544-.414-.4095-.708-.5668-.481-.2574-.5063-.2334-.2529.2401.2627.4908.8306.8648 1.0417.6859.051-.0432.0146-.2048-.0809-.3592zm-15.225-.5132c0-.2546-.153-.6722-.34-.928-.3204-.4382-.3699-.432-.8576.107-.5153.5695-.5149.5741.103 1.0744.6836.5536 1.0946.4584 1.0946-.2535zm-24.408.1635c-.0606-.1819-.3346-.3742-.6089-.4274-.4316-.0836-.451-.039-.1441.3307.4197.5057.9102.5686.7531.0967zm5.2286-.4157c-.2102-.2102-.6652.267-.5036.5284.1099.1778.2462.1507.3868-.0768.1194-.1932.172-.3965.1168-.4516zm31.565.2834c-.0485-.2547-.3549-.5011-.6809-.5476-.6402-.0913-.6756-.0428-.432.5921.2273.5924 1.2266.5524 1.1129-.0445zm-9.4756-.6109c0-.2996-.1191-.4712-.2646-.3813-.1455.0899-.2646.3351-.2646.5448 0 .2097.1191.3813.2646.3813s.2646-.2452.2646-.5448zm-32.009-.1231c.1841-.2218.2752-.4627.2026-.5354-.2163-.2163-.9495.1568-1.1051.5623-.1932.5034.4791.4834.9026-.0269zm7.2486-.0315c.0918-.2391.1074-.4942.0347-.5669-.2106-.2106-.9482.5075-.7878.767.227.3674.5704.2761.7531-.2001zm-121.82-.0944c0-.1455-.1856-.2646-.4125-.2646s-.3389.1191-.249.2646c.0899.1455.2756.2646.4125.2646.1369 0 .249-.1191.249-.2646zm150.68-.4819c-.2102-.2102-.6652.267-.5036.5284.1099.1778.2462.1507.3868-.0768.1194-.1932.172-.3965.1168-.4516zm-38.818.1644c.569-.569.3343-.7641-.3665-.3048-.552.3617-.7256.3809-.8993.0998-.1351-.2187-.3976-.2742-.705-.1491-.4671.19-.4652.2093.0394.4168.7833.3221 1.5723.2965 1.9315-.0627zm-7.3554-.6398c0-.2183-.1191-.3233-.2646-.2334-.1455.0899-.2646.3421-.2646.5604s.1191.3233.2646.2334c.1455-.0899.2646-.3421.2646-.5604zm-13.494-.6459c0-.4722-.1102-.7412-.2646-.6458-.1455.0899-.2646.4541-.2646.8094 0 .3552.1191.6459.2646.6459s.2646-.3642.2646-.8094zm3.9162.3095c.0724-.2195.003-.2945-.1722-.1862-.1614.0997-.5442.0471-.8507-.1169-.6909-.3698-.9684-.1439-.5067.4124.4049.4878 1.3552.4199 1.5297-.1094zm4.63.1451c.2056-.5357-.2336-1.0672-.7257-.8784-.3467.1331-.3771.2751-.1497.7.3296.6159.6801.6873.8753.1784zm9.1472-.0247c.8443-.4366 1.5042-1.1487 1.276-1.3769-.1829-.1829-1.8286.7908-2.3032 1.3627-.4314.5199.037.5263 1.0272.0143zm24.905-.0174c0-.2183-.1786-.3969-.3969-.3969-.4132 0-.5249.3129-.2205.6174s.6174.1927.6174-.2205zm-51.065-.5292c.2698-.3251.2517-.3969-.0999-.3969-.2361 0-.4293.1786-.4293.3969 0 .2183.045.3969.0999.3969s.2481-.1786.4293-.3969zm7.0107-.3945c.192-.6048-.0507-1.1419-.4144-.9171-.3211.1984-.3207 1.4439.0004 1.4439.1357 0 .322-.2371.4139-.5268zm12.119-.4414c-.1746-.4551-.8732-.4637-.8732-.0108 0 .5516.5942 1.0373.8207.6707.1038-.1679.1274-.4649.0525-.66zm-23.098.3067c0-.2183-.112-.3969-.249-.3969-.3336 0-.5726.4132-.3612.6246.298.298.6102.1815.6102-.2277zm2.3912-.3861c.5936-.5074.7705-.7868.5025-.7937-.2274-.006-.7557.3464-1.174.783-.9791 1.0219-.5201 1.0293.6714.0108zm5.8108.3861c-.1812-.2183-.4636-.3931-.6277-.3885-.1641.005-.0672.1832.2153.3969.6598.499.8307.4955.4124-.008zm-32.808-.9346c0-.1502.2679-.3761.5953-.5019.5893-.2265.5878-.2318-.1495-.5206-1.3642-.5345-1.9604-.2542-1.6357.7689.17.5356 1.1899.753 1.1899.2537zm4.9781-.1827c-.0776-.4028-1.8762-1.645-2.3984-1.6564-.1091-.002-.1984.2933-.1984.6571 0 .5796.1147.6615.9261.6615.6468 0 .926.1197.926.3969 0 .2183.1873.3969.4163.3969.2515 0 .3815-.1804.3285-.4559zm-8.2784-.2868c-.0815-.0815-.2949-.0002-.4744.1807-.2594.2613-.229.2917.1481.1481.2609-.0994.4078-.2473.3263-.3288zm13.09.0812c0-.2183-.1786-.3969-.3969-.3969s-.3969.1786-.3969.3969.1786.3969.3969.3969.3969-.1786.3969-.3969zm-16.649-.2051c-.0327-.3164-.3956-.2551-.5093.086-.0582.1746.037.2699.2117.2117.1746-.0582.3086-.1922.2977-.2977zm-4.2572-.7871c.002-.1091-.115-.1984-.2605-.1984s-.2628.2679-.2605.5953c.003.4814.0531.5194.2605.1984.1411-.2183.2583-.4862.2605-.5953zm-11.229.3122c.0962-.1557.42-.3738.7195-.4846.4434-.164.4686-.2306.1356-.3584-.4358-.1673-1.528.4592-1.528.8765 0 .3391.4567.3163.6729-.0335zm5.9417-1.32c0-.1369-.1191-.249-.2646-.249-.1455 0-.2646.1856-.2646.4125s.1191.3389.2646.249c.1455-.0899.2646-.2756.2646-.4125zm-30.162-.6242c0-.0609.0723-.299.1606-.5292.177-.4613-.3234-.5587-.9221-.1795-.4269.2704-.1721.8193.3802.8193.2097 0 .3813-.0498.3813-.1106zm7.8052-.1539c-.0899-.1455-.2756-.2646-.4125-.2646-.1369 0-.249.1191-.249.2646s.1856.2646.4125.2646.3389-.1191.249-.2646z"/><path d="m-105.76 451.59c-4.719-.3389-15.571-.9435-23.019-1.2823-13.51-.6146-40.132-1.952-42.069-2.1134-.9459-.0788-8.8636-.4386-17.595-.7994-8.7312-.3608-18.971-.832-22.754-1.047-3.7836-.215-11.701-.633-17.595-.929-16.487-.8279-28.353-1.5908-31.419-2.0203l-1.1245-.1575.0003-2.4174c.0002-1.3295.1756-5.513.3898-9.2965.527-9.3079 1.345-25.619 1.9836-39.555.5441-11.873.7282-14.928.9788-16.244l.1458-.7654 6.2545.1776c7.9795.2266 16.709.624 20.939.9533 1.819.1416 6.8792.381 11.245.5318 4.3656.1509 9.2472.3893 10.848.5299 1.6007.1405 5.5893.3807 8.8635.5336 3.2742.153 10.478.509 16.007.7913 5.5298.2823 12.674.6398 15.875.7944 6.504.3142 8.4545.5779 9.1888 1.2424.4318.3908.5341.4.7419.0669.1986-.3183 1.0701-.3779 4.9448-.3386 4.8515.0493 21.724.7555 40.026 1.6754 5.7481.2889 12.851.6309 15.785.76 2.9339.1291 5.4822.3261 5.6629.4378.3744.2314.1995 13.803-.2693 20.892-.1444 2.1828-.5661 10.279-.9371 17.992-.3711 7.7126-.7897 15.571-.9304 17.462-.1406 1.8918-.3819 5.285-.536 7.5406-.1542 2.2556-.3303 4.2499-.3914 4.4318-.0844.2511-1.3071.3196-5.0804.2845-2.7331-.0254-5.505-.0847-6.1599-.1317zm-2.9104-2.4679c0-.294-.1764-.5292-.3969-.5292-.4028 0-.5427.5597-.2205.8819.3354.3354.6174.1743.6174-.3528zm-22.091-1.3245c.2642-.2919.4022-.6089.3067-.7044-.2818-.2818-1.4988.3944-1.4988.8327 0 .5672.6234.5001 1.1921-.1283zm6.7454-.1214c0-.5718-.945-.9772-2.0617-.8845-1.1469.0952-1.3487.7491-.3195 1.0353 1.2201.3394 2.3812.2658 2.3812-.1508zm-26.591-.939c0-.5692-.1337-.6689-.9922-.7399-.5457-.0452-.9922-.194-.9922-.3307 0-.1367-.244-.2486-.5423-.2486-.7172 0-.4057.5606.8099 1.4574 1.0996.8112 1.7168.7616 1.7168-.1381zm14.155.1359c0-.3638-.1191-.6615-.2646-.6615-.1455 0-.2646.2977-.2646.6615 0 .3638.1191.6614.2646.6614.1455 0 .2646-.2977.2646-.6614zm-12.435-.2729c0-.4003-.6976-.8375-.9437-.5914-.0699.0699-.052.3227.0397.5618.2105.5486.904.5713.904.0296zm1.9844-.3886c0-.5169-.1516-.679-.6938-.7419-.8007-.0929-1.2171.5897-.723 1.1851.5075.6115 1.4168.3271 1.4168-.4432zm2.1167 0c.9389-.98.6232-1.0226-.7134-.0963-1.1408.7906-1.1997.8901-.5267.8901.2638 0 .8219-.3572 1.2401-.7937zm-23.019-.2646c0-.2271-.1932-.3647-.4516-.3217-.2795.0465-.6097-.2307-.8667-.7276-.4699-.9087-.7146-.981-1.3087-.387-.5539.5539-.5257.7841.1764 1.4382.706.6577 2.4505.6563 2.4505-.002zm3.8418.1259c.1841-.2218.2633-.4746.1761-.5618-.271-.271-.9752.1334-.9752.5599 0 .5182.3698.5191.7991.002zm7.0931-.2135c.0715-.3751-.0467-.4647-.5238-.3969-.3423.0487-.6572.303-.7085.5721-.0715.3751.0467.4647.5238.3969.3423-.0487.6572-.303.7085-.5721zm-42.545-.8924c1.2446-.8578 1.6501-1.6658.836-1.6658-.5288 0-1.9016 1.2997-1.9016 1.8004 0 .4339.2947.3967 1.0656-.1346zm33.321-.0609c.3754-.7015.3481-.8111-.2024-.8111-.5572 0-1.1112.4881-1.1112.979 0 .5338 1.007.4051 1.3136-.1678zm64.982.1865c.3493-.3505.7605-6.706 1.8362-28.382.3611-7.276.6592-14.122.6623-15.214.0065-2.2442.1247-2.5469 1.056-2.7042l.6615-.1117-.7019-.2955c-.8844-.3723-1.1443-.783-.7762-1.2266.3259-.3927.4415-2.3452.3501-5.9146l-.0626-2.4474-1.6536-.003c-.9095-.002-3.2902-.1765-5.2905-.3888-5.3705-.57-11.295-.878-25.6-1.3309-7.0578-.2235-15.511-.5815-18.785-.7956-3.2742-.2141-13.335-.7493-22.357-1.1895-24.224-1.1816-24.404-1.1988-25.731-2.4416l-.5953-.5577v1.2341l-8.0036-.1671c-8.3729-.1748-16.038-.5268-21.63-.9932-1.819-.1517-7.8478-.3454-13.397-.4303l-10.09-.1544-.1655 1.5583c-.2198 2.0697-1.3689 22.88-1.8684 33.838-.2189 4.8022-.5392 11.267-.7116 14.366-.2675 4.8071-.2585 5.6896.0612 6.0068.463.4593 4.1099.8171 12.149 1.1919 3.2742.1527 7.2628.387 8.8635.5207s4.7559.313 7.0115.3985c8.159.3091 16.127.6919 22.093 1.0613 3.347.2072 7.9904.4474 10.319.5336 2.3283.0863 7.329.3269 11.112.5348 3.7835.2079 10.808.5655 15.61.7946 4.8022.2291 9.6242.5316 10.716.6722 2.3321.3004 9.1903.6323 21.299 1.0309 9.197.3028 23.099 1.0086 23.548 1.1956.4569.1905 9.8693.0131 10.071-.1897zm-32.639-11.272c-1.7845-.6378-3.15-1.7407-4.1553-3.3563-.7721-1.2408-.7963-1.381-.8862-5.1336-.1072-4.4715.3873-16.962.7864-19.865.364-2.6477.9418-3.8508 2.5822-5.3765 2.4176-2.2486 4.729-2.8855 7.8719-2.169 1.0382.2367 2.5231.8108 3.2997 1.276 2.3173 1.3877 3.4063 4.2069 3.41 8.8276.002 2.7204-.008 2.7341-2.0773 2.7307-.9667-.002-2.1775-.0724-2.6907-.1573l-.933-.1544.003-2.0255c.005-3.4381-1.0533-5.3328-2.9778-5.3328-.6671 0-1.1864.1729-1.4741.4907-.9097 1.0052-1.5002 6.1163-1.9149 16.575-.2657 6.7008.3491 8.599 2.7852 8.599 2.0792 0 2.805-1.2508 3.1052-5.3511.1357-1.8538.0962-2.3314-.2009-2.4254-.2034-.0644-.9056-.2757-1.5605-.4697l-1.1906-.3527-.0801-1.5465c-.0974-1.8807.3928-2.8182 1.4753-2.821.3968-.001 2.2567.1375 4.133.3078l3.4115.3097-.1896 6.3638c-.2311 7.7562-.4657 10.072-1.0906 10.763-.71.7845-1.7261.656-2.5281-.3198l-.6895-.8389-1.8216.8524c-2.3541 1.1016-4.4507 1.2984-6.4024.6008zm3.2463-1.6192c.4446-.8599.5146-1.3361.1961-1.3361-.2498 0-1.1154 1.4176-1.1154 1.8268 0 .5595.5196.2821.9193-.4907zm-1.713.002c0-.6888-.3831-.8835-1.3294-.6757-.94.2065-.9999.4766-.192.8663.9448.4557 1.5214.3834 1.5214-.1906zm-2.2992-.9797c.0937-.0937-.1504-.7408-.5423-1.438l-.7126-1.2677.7187-.6661c.7056-.6539.9226-1.3278.5098-1.583-.1149-.071-.7281.2196-1.3627.6459-.6346.4262-1.255.7749-1.3786.7749-.3879 0-.2444.8028.1721.9627.223.0856.3969.4793.3969.8985 0 1.0547 1.5997 2.2717 2.1988 1.6727zm1.2349-1.0865c-.008-.6102-.9588-1.8354-1.2212-1.5731-.231.231.6592 2.0361 1.0042 2.0361.1226 0 .2203-.2084.217-.463zm-2.9184-3.9688c.5101-1.8367.2933-2.0861-.8735-1.0048-.7638.7079-.8733 1.1888-.3826 1.6795.5623.5623.974.3412 1.2561-.6747zm-.14-4.1955c.2302-.0883.4185-.2745.4185-.4136 0-.3714-1.66-.1452-1.7876.2435-.115.3504.6511.4456 1.3691.1701zm1.4768-1.133c0-.2749-.2464-.7809-.5476-1.1245l-.5476-.6246.172.7923c.1565.7208.5724 1.4567.8233 1.4567.055 0 .0999-.2249.0999-.4999zm-1.5875-2.146c0-.3528-.1764-.5292-.5292-.5292-.3528 0-.5292.1764-.5292.5292s.1764.5292.5292.5292c.3528 0 .5292-.1764.5292-.5292zm.0149-2.1828c.6838-.8197.6379-.9922-.2639-.9922-.8982 0-1.1776.315-.9409 1.0607.2182.6876.5918.6663 1.2048-.0685zm-26.076 15.651c-3.638-.2719-6.8978-.5621-7.244-.6449-.5798-.1386-.6166-.2442-.4665-1.3392.2359-1.7214 1.3207-4.7443 3.219-8.9706.9151-2.0373 2.3214-5.1924 3.125-7.0115.8036-1.819 2.2969-5.0828 3.3184-7.2528 1.4193-3.015 1.7979-4.0564 1.6056-4.4157-.2765-.5166-1.0762-.66-4.9161-.8819-1.3293-.0768-2.7283-.258-3.1089-.4027-.6531-.2483-.692-.3647-.692-2.0712 0-2.9267-.2487-2.8236 6.2456-2.5903 3.0406.1093 6.4213.2774 7.5128.3737l1.9844.1751.0793 1.3694c.1286 2.2206-1.2698 5.8694-7.0449 18.381-1.4541 3.1503-2.9143 6.4699-3.245 7.3768-.5634 1.5451-.5727 1.6697-.1476 1.9805.2495.1824 1.8487.4726 3.5538.6449s3.5765.454 4.1585.626l1.0583.3127.0788 1.813c.0987 2.2703-.3362 3.0965-1.6063 3.0516-.4696-.0166-3.8304-.2526-7.4684-.5246zm-3.1593-2.1165c.1998-.3232-.5707-1.2275-.8273-.971-.2188.2189.1257 1.261.4169 1.261.1271 0 .3118-.1305.4103-.29zm-.5292-1.5875c.0986-.1595.0163-.4528-.1828-.6519-.459-.4588-1.1636-.0695-.9381.5183.186.4846.8547.5643 1.1209.1336zm4.0854-12.939c0-.294-.1764-.5292-.3969-.5292-.4028 0-.5427.5597-.2205.882.3354.3354.6174.1743.6174-.3528zm1.5875-.1497c0-.3444-.5673-1.1732-.8031-1.1732-.3573 0-.3186.6246.0622 1.0054.332.332.7408.4246.7408.1678zm2.3986-3.8284c.6711-.3592.6551-.9898-.0279-1.0968-.8751-.1371-.7243-.6067.2241-.6977 1.0164-.0976 1.3484-.6669.7667-1.3149-.254-.2829-.3538-.7265-.2658-1.1808.117-.6039.0483-.7276-.404-.7276-.2998 0-.7304.2646-.9569.588-.5285.7545-.52.9995.0345.9995.362 0 .3176.1376-.2344.7276-.7046.7531-1.5349 2.213-1.5349 2.6988 0 .358 1.7317.3608 2.3986.004zm1.1732-6.7596c0-.5064-.1352-.7717-.3932-.7717-.4351 0-.6632.7339-.4227 1.3604.2514.655.816.2477.816-.5887zm1.6018-1.9854c.0978-.1582.058-.4074-.0883-.5537-.3008-.3008-1.3812.1576-1.3812.586 0 .3509 1.2496.3234 1.4695-.0324zm-1.2728-3.0427c-.1487-1.319-.4992-1.868-.9965-1.5607-.3728.2304-.1787 1.836.2903 2.4011.5871.7075.8459.3995.7062-.8404zm1.8257.2842c.1582-.4122-.3196-1.1873-.7318-1.1873-.2704 0-.3159 1.151-.0558 1.4111.2935.2935.6252.1993.7875-.2238zm5.3901 29.835c.002-1.5644.1792-5.4636.3932-8.6651.3546-5.3026.6317-10.471 1.0818-20.174l.1626-3.5057h5.8204l-.1729 5.0932c-.0951 2.8013-.2825 6.7006-.4165 8.6651s-.3659 6.7866-.5153 10.716c-.1495 3.9291-.3396 7.8762-.4224 8.7713-.1785 1.9284-.1914 1.9354-3.6198 1.9407l-2.3151.004zm2.7466-3.1327c.2927-.7627-.1687-1.1048-.8816-.6537-.3148.1992-.3206.3118-.0337.6574.4395.5295.7111.5284.9153-.004zm-.1064-8.8427c-.1643-.3071-.4396-.512-.6116-.4554-.5553.1827-.4824 1.1122.1398 1.783l.6057.653.0825-.7112c.0454-.3911-.052-.9624-.2163-1.2695zm1.3245-1.9334c0-.0464-.1832-.7012-.4071-1.4552-.3949-1.3296-.9173-1.8484-.9143-.9079.003.9772.566 2.4474.937 2.4474.2114 0 .3844-.0379.3844-.0843zm1.5875-4.8429c0-.4268-.6845-.4908-.9339-.0872-.0942.1525-.0999.4636-.0125.6913.1284.3346.2344.3513.5526.0872.2166-.1797.3937-.4908.3937-.6913zm-1.5875-.6752c0-.3704-.9747-.2412-1.3201.175-.1796.2164-.2506.5915-.1578.8334.1492.3887.2449.3684.8234-.175.36-.3382.6546-.7132.6546-.8334zm.8122-2.105c.2135-.3988.2151-.6315.006-.8406-.159-.159-.2891-.5163-.2891-.794 0-.418-.1253-.474-.7276-.3252-1.0866.2684-1.2383.5576-.6177 1.1782.4105.4105.5138.7425.3875 1.2456-.1588.6325-.1287.6626.3868.3868.3074-.1645.6917-.5473.8541-.8506zm.4923-8.2803c.5648-.6012.5662-1.2102.003-1.2102-.3933 0-1.3073 1.0174-1.3073 1.4552 0 .5957.625.4783 1.3045-.245zm-39.735 30.887c-.5918-.1546-.6049-2.2896-.0666-10.798.8112-12.821 1.0003-17.704.7135-18.421-.2522-.6305-.4803-.7226-2.4798-1.0012-3.922-.5465-3.5377-.2402-3.4396-2.742.047-1.1973.166-2.2557.2646-2.3518.212-.2068 14.561.1884 16.817.4631l1.5561.1896-.1388 2.2242c-.0763 1.2233-.2207 2.3064-.3208 2.4069-.1001.1004-1.4179.2231-2.9284.2726-2.28.0747-2.7688.1645-2.8782.5292-.1926.642-.6291 7.0329-1.0782 15.785-.5998 11.689-.6958 12.828-1.1178 13.249-.3653.3653-3.7371.4988-4.9028.1942zm3.7236-8.1078c.0506-.2611-.0843-.4411-.3307-.4411-.2454 0-.4163.2262-.4163.5512 0 .6448.6183.5537.747-.1101zm-.2178-1.2348c0-.1455-.2906-.2646-.6458-.2646-.3552 0-.7194.1191-.8094.2646-.0954.1544.1736.2646.6458.2646.4451 0 .8094-.1191.8094-.2646zm-.5292-1.0054c0-.2738-.5728-.8467-.8467-.8467-.1164 0-.2117.2381-.2117.5292 0 .3528.1764.5292.5292.5292.291 0 .5292-.0953.5292-.2117zm1.0583-10.01c0-.1819-.1066-.3966-.2369-.4771-.2828-.1748-.5602.4631-.5485 1.2613.008.5614.0167.5626.3969.0601.2137-.2825.3885-.6624.3885-.8443zm-1.8797.7191c.5124-.3245.1614-1.081-.5016-1.081-.663 0-1.014.7565-.5016 1.081.2031.1286.4288.2338.5016.2338.0728 0 .2985-.1052.5016-.2338zm2.938-7.9278c0-.3335-.7767-.9314-.9651-.743-.2709.271.1334.9752.5599.9752.2228 0 .4052-.1045.4052-.2322zm1.0341-4.5303c.1138 0 .4223.2381.6857.5292.4733.5231 1.1906.7194 1.1906.326 0-.4511-1.3679-2.1781-1.7252-2.1781-.2107 0-.772.3576-1.2472.7947l-.8641.7947 1.5875 1.4146.0829-.8406c.0456-.4623.176-.8406.2897-.8406zm-3.1993.178c.0669-.5654-.0259-.7072-.463-.7072-.3964 0-.5467.1698-.5467.6174 0 1.2013.869 1.2786 1.0098.0898zm-4.4494-.7563c0-.499-1.1037-1.5384-1.6336-1.5384-.7039 0-.5935.3892.331 1.1671.8836.7435 1.3026.8629 1.3026.3713zm10.583-.2155c0-.1455-.2311-.2646-.5136-.2646-.2824 0-.5871.1191-.6771.2646-.0927.1501.1295.2646.5135.2646.3724 0 .6771-.1191.6771-.2646zm-4.2835-.7265c-.0664-.3447-.4812-.5167-1.6347-.6777-.8502-.1187-1.6146-.147-1.6988-.0629-.4126.4126 1.2451 1.1066 2.8077 1.1754.4496.0198.5908-.0969.5258-.4348zm-17.148 33.124c-.2183-.0469-1.099-.1629-1.9573-.2578l-1.5604-.1725.1721-3.4818c.0947-1.915.4082-8.3634.6967-14.33.5085-10.517.6589-13.021.9574-15.941l.142-1.3891 2.2961.004c3.796.006 3.5346-.3119 3.3435 4.0648-.1804 4.1322-.4762 9.4088-.8991 16.04-.1531 2.4011-.3908 6.7949-.5281 9.764-.1823 3.9414-.3432 5.4578-.5964 5.6184-.339.215-1.2737.2518-2.0666.0813zm-.3306-6.4016c.1447-.4345-.6843-.7446-1.0399-.3891-.1522.1522-.1926.4127-.0898.5789.2338.3782.9825.2524 1.1298-.1899zm.1924-7.465c.1697-.2746-.7584-1.3326-1.169-1.3326-.4415 0-.5769.5039-.2831 1.0529.297.5549 1.1773.7245 1.4522.2797zm.3528-4.3446c-.1416-.4535-.3211-1.0328-.3991-1.2875-.2121-.6929-.6092-.558-.6092.2069 0 1.0361.7689 2.7088 1.042 2.2668.1247-.2018.1098-.7264-.0337-1.1863zm1.9021-3.7673c0-.4268-.6845-.4908-.9339-.0872-.0942.1525-.0999.4636-.0125.6913.1284.3346.2344.3513.5526.0872.2166-.1797.3937-.4908.3937-.6913zm-1.5875-.6752c0-.3704-.9747-.2412-1.3201.1751-.1796.2164-.2506.5915-.1578.8334.1492.3887.2449.3684.8234-.175.36-.3382.6545-.7132.6545-.8334zm1.0583-1.4091c0-1.0665-.4054-1.193-1.3562-.4232l-.621.5029.9224.4016c.5073.2209.9522.4113.9886.4232.0364.0119.0661-.3951.0661-.9044zm-.8499-1.7557c.0966-.5018-.7113-.89-1.0815-.5197-.3823.3823.0102 1.1369.5385 1.0352.2534-.0488.4978-.2807.543-.5154zm.9583-1.7775c.1543-.2497-1.154-.9334-1.3709-.7165-.2055.2055.4845.9423.8824.9423.1919 0 .4117-.1017.4885-.2259zm.4023-5.3526c.8402-.8402.8783-1.4001.0761-1.1174-.6652.2344-1.6452 1.1771-1.6452 1.5826 0 .5996.7168.387 1.569-.4652zm-20.175 31.208c-.0857-.4902-.583-4.4631-1.1051-8.8287-1.0868-9.0881-1.1056-9.2006-1.5149-9.0642-.4954.1651-1.182 2.5937-2.9436 10.411l-1.664 7.3842-5.0766.1508-.1533-.7369c-.4316-2.0744-3.8616-31.718-3.8616-33.373 0-1.2773.1842-1.3627 2.9386-1.3627 1.9367 0 2.1191.0467 2.3253.5953.123.3274.6003 4.7566 1.0607 9.8426s.883 9.2933.9393 9.3495c.0562.0562.2821-.176.5018-.516.4839-.7488 1.1239-3.2364 2.5413-9.8787 1.492-6.9919 1.9872-8.5583 2.8037-8.8688.6495-.2469 2.7084-.0919 3.2535.2451.3989.2465.9739 3.8748 1.765 11.137 1.2126 11.132 1.3965 10.977 4.0846-3.4396.5834-3.1287 1.1919-6.1514 1.3522-6.717l.2915-1.0285 2.1039.1442c2.2257.1525 2.8783.4518 2.8783 1.3201 0 .5464-6.3948 30.509-6.8825 32.248-.3921 1.398-.8307 1.6331-3.2879 1.7621l-2.1943.1152zm3.4771-4.6615c.0739-.5204-.0324-.5953-.8443-.5953-1.0584 0-1.4226.3687-.9393.951.5005.6031 1.6809.3677 1.7836-.3557zm-10.995-1.68c-.0715-.2733-.2355-.4317-.3644-.352-.2768.1711-.3125 1.0058-.0541 1.2642.2762.2762.5649-.3529.4186-.9122zm-2.7652.0854c.0938-.6358-.3688-1.6466-.7535-1.6466-.2852 0-.3452 1.3099-.0904 1.9739.2204.5744.7406.3725.8439-.3273zm1.2206-1.294c.2051-.5344-.0429-.8919-.4976-.7174-.4298.1649-.7377.8407-.5335 1.1709.1959.317.845.0315 1.0311-.4535zm1.4748-.8817c0-.7643-.1102-1.0583-.3969-1.0583-.4103 0-.5374.9135-.2363 1.6982.2957.7705.6331.4294.6331-.6398zm-2.0984-.8232c.2504-.4052-.6754-2.316-1.2242-2.5265-.5503-.2112-1.1753.3914-1.1753 1.1332 0 .346-.1191.6291-.2646.6291-.3701 0-.3302.6207.0662 1.0271.4039.4142 2.2979.2226 2.5979-.2628zm2.5363-1.7017c.0862-.2246.0914-.4736.0116-.5533-.2632-.2632-1.2432.196-1.2432.5826 0 .5099 1.0341.4854 1.2316-.0292zm13.188-.9146c0-.5738-1.0322-.4948-1.1444.0876-.0724.3757.0456.4648.5255.3969.3404-.0482.6189-.2662.6189-.4845zm-16.562-1.1643.872-.8997-.5555-.5555c-.3055-.3055-.5555-.7181-.5555-.9167 0-.5889-1.0573-1.7555-1.5911-1.7555-.7668 0-.9038.5162-.2891 1.0889.6168.5746.7365 1.8064.251 2.5838-.3916.627-.1173 1.3544.5107 1.3544.2671 0 .878-.4048 1.3576-.8997zm11.782-.3957c.191-.3091-.806-1.54-1.0503-1.2967-.3043.3031.119 1.5337.5276 1.5337.2069 0 .4421-.1067.5227-.237zm4.9118-.9536c0-.3638-.1191-.6615-.2646-.6615s-.2646.2977-.2646.6615c0 .3638.1191.6614.2646.6614s.2646-.2977.2646-.6614zm-11.862-2.9182c-.3313-.7272-.8384-.665-.8384.1027 0 .6355.5647 1.1659.8924.8382.1668-.1668.1478-.498-.054-.941zm6.1887-1.333c-.5523-.4077-1.7354-.5184-1.7354-.1625 0 .1191.387.404.8599.6331 1.0252.4966 1.6968.1356.8755-.4706zm7.2605.2824c0-.4544-.4404-.7476-.7945-.5287-.1761.1088-.1716.3391.0133.6845.2959.5528.7812.4561.7812-.1558zm-1.0583-1.4396c0-.5819-.3986-.9213-.7945-.6766-.1764.109-.1733.3358.009.6771.3534.6603.7852.6601.7852-.0005zm-6.8792-4.134c0-.7779-.4311-1.7024-.7937-1.7024-.1353 0-.3666.2254-.514.5009-.2057.3844-.1419.6613.2745 1.1906.6868.8732 1.0333.8768 1.0333.0109zm-2.3909.029c.1759-.2119.2429-.5096.1491-.6614-.3827-.6192-1.636-.052-1.3769.6232.2027.5283.8056.5471 1.2279.0383zm.3624-2.1089c.2018-.5258-.5463-1.1223-.9284-.7403-.3654.3654-.0916 1.1178.4066 1.1178.2073 0 .4421-.1699.5217-.3775zm9.2175 41.479c.6282-.5685.6328-1.4142.008-1.4142-.6521 0-1.1112.5139-1.1112 1.2436 0 .7162.4277.7824 1.1036.1706zm-20.683-.1758c0-.192.387-.5194.8599-.7276.5403-.2378.8913-.5998.9444-.9738.1145-.8063-.3217-.7529-1.8473.226-1.4391.9235-1.7446 1.8245-.6185 1.8245.3714 0 .6614-.1531.6614-.3491zm8.5684-.0319c-.1807-.4709-1.4147-1.3046-1.6229-1.0965-.0838.0838-.0165.4505.1496.8149.3351.7354 1.7514 1.006 1.4733.2816zm14.979-.1482c0-.3528-.1764-.5292-.5292-.5292-.3528 0-.5292.1764-.5292.5292 0 .3528.1764.5292.5292.5292.3528 0 .5292-.1764.5292-.5292zm-13.133-.3969c.2104-.5482-.0752-1.1906-.5292-1.1906-.2073 0-.4454.1786-.5292.3969-.2104.5482.0752 1.1906.5292 1.1906.2073 0 .4454-.1786.5292-.3969zm-5.5385-.5481c.5238-.5238.5417-1.4363.0282-1.4363-.4809 0-1.0266.9682-.8317 1.4759.1832.4775.2918.4721.8035-.0396zm11.183-.254c-.8203-.7217-1.7712-.8663-1.7712-.2694 0 .5183.7546.9232 1.7198.9228l.7937-.0003-.7424-.6531zm3.2559.3013c0-.4661-.8003-.789-1.1324-.4569-.1376.1376-.1702.3796-.0724.5378.2577.417 1.2049.3534 1.2049-.0809zm-34.934-1.2015c.3988-.7451.3365-1.6049-.1162-1.6049-.3747 0-1.1974 1.2636-1.1974 1.8389 0 .4831 1.0278.3 1.3136-.2341zm3.2892.091c.2008-.5233-.0164-.9022-.5173-.9022-.2303 0-.3813.2619-.3813.6615 0 .7399.6411.9116.8986.2407zm11.669-.1084c0-.2634-.2161-.3729-.6426-.3255-.3534.0393-.7284-.0674-.8332-.237-.2892-.4679-1.0378-.0577-1.0378.5686 0 .4934.1333.5434 1.2568.4713.9049-.0581 1.2568-.1918 1.2568-.4775zm-22.806-.5233c.6833-.4334 1.2424-.9691 1.2424-1.1906 0-.5349-.7662-.5178-.9732.0218-.1252.3262-.3886.3884-1.1373.2686-1.2361-.1977-2.0012.2916-1.7405 1.113.255.8035 1.1169.7332 2.6086-.2128zm18.813.285c.2682-.2963.3485-.5688.1955-.6633-.4102-.2535-1.6269.317-1.6269.7628 0 .5649.8859.5033 1.4314-.0995zm-4.9188-.8835c-.1255-.8794-1.0106-.9567-1.0106-.0882 0 .5121.1357.6808.5476.6808.4159 0 .5272-.1425.463-.5926zm-16.621-.7728c0-.1222-.3572-.2221-.7937-.2221-.7337 0-1.058.4413-.6351.8642.2031.2031 1.4288-.3478 1.4288-.6421zm157.16-.2504c0-.2755-.1045-.5009-.2322-.5009-.375 0-.8862.7472-.7082 1.0352.2551.4128.9403.0235.9403-.5343zm.9902-2.2809c.1042-.3125-.9296-.7501-1.1802-.4995-.2197.2197.486.9902.8084.8827.151-.0503.3182-.2228.3717-.3832zm.2004-4.2802c0-.2004-.2117-.4965-.4706-.6578-.5977-.3727-1.1197.2834-.6631.8335.3619.436 1.1337.3164 1.1337-.1757zm-.4463-8.9549c-.0485-.2547-.3549-.5011-.6809-.5476-.6514-.0929-.7678.2004-.2751.6931.474.474 1.0571.3852.956-.1455zm1.3269-1.2598c.0511-.2894.3375-.7181.6364-.9528.2989-.2347.4598-.5621.3575-.7276-.2563-.4146-.8623-.3779-1.0313.0626-.0767.1999-.5657.4434-1.0866.5412-1.1087.208-1.1412.3099-.3635 1.1378.6777.7214 1.3543.6936 1.4876-.061zm-1.079-2.4442c.1447-.4345-.6843-.7446-1.0399-.3891-.1522.1522-.1926.4127-.0898.5789.2338.3782.9825.2524 1.1298-.1899zm1.0105-5.7339c.2267-.9031.043-1.6084-.4189-1.6084-.2735 0-.418.3424-.4746 1.1245-.063.8709.0104 1.1245.3257 1.1245.2239 0 .4794-.2882.5678-.6405zm.6107-3.3271c.6321-1.1247.568-1.5886-.2195-1.5886-.5736 0-.8064.5029-.8064 1.7414 0 1.1868.298 1.1424 1.0259-.1528zm.2381-5.9692c.5564-.3897.8175-1.1768.3896-1.1746-.4689.002-1.93 1.0887-1.7834 1.326.2314.3745.7186.3216 1.3938-.1514zm-.5871-3.7442c-.1243-.3238-.2303-.3383-.5478-.0747-.5128.4256-.4968.7924.0693 1.5922l.463.6542.0848-.8851c.0466-.4868.0155-1.0658-.0693-1.2866zm-160.8.7619c.092-.6252-.2031-.7471-.6724-.2778-.3561.3561-.1326 1.0893.2897.9504.164-.0539.3362-.3566.3827-.6726zm161.39-2.5335c.1589-1.8922-1.5229-3.108-2.1056-1.5222-.1844.5019-.1291.6458.2906.7555.296.0774.6475.5268.8194 1.0474.3809 1.1541.8871 1.0114.9956-.2807zm-160.34-1.5468c.0651-.3416-.0862-.463-.577-.463-.7233 0-1.0935.3654-.8194.8089.266.4303 1.2972.1749 1.3964-.3459zm-.612-1.7859c0-.7197-.5242-1.0038-.7529-.4081-.2075.5407.0793 1.25.4547 1.1248.164-.0547.2981-.3772.2981-.7167zm161.53-2.1167c0-.1455-.2311-.2646-.5135-.2646s-.5871.1191-.6771.2646c-.0927.1501.1295.2646.5135.2646.3724 0 .6771-.1191.6771-.2646zm.6287-1.1806c-.163-.4249-1.104-.8136-1.3569-.5607-.1931.1931.7318.9273 1.1829.9391.1773.005.2556-.1656.174-.3784zm-161.54-1.2888c.0495-.2552-.0833-.4411-.3151-.4411-.4915 0-.7882.4313-.5555.8077.2393.3872.7676.1648.8707-.3666zm160.65-.6964c0-.4007-.9967-.8523-1.1902-.5392-.0902.1459-.0904.3844-.0005.5299.2095.3389 1.1906.3466 1.1906.009zm-160.61-2.3732c.3518-.6574.345-.8112-.036-.8112-.3693 0-1.2776.7816-1.2776 1.0993 0 .442 1.0456.2125 1.3136-.2882zm.1416-3.6149c0-.7566-.7615-.7401-1.6845.0366-.456.3837-.829.7877-.829.8978s.5655.0566 1.2568-.119c.9392-.2385 1.2568-.4445 1.2568-.8154zm157.03.9391c0-.3226-1.293-1.5749-1.6261-1.5749-.439 0-.2174.5624.4741 1.2033.7464.6917 1.152.8226 1.152.3716zm-39.943-1.1668c-.1863-.2245-.5027-.4081-.7032-.4081-.52 0-.4512.7186.0985 1.0287.6209.3503 1.0472-.0873.6046-.6206zm24.484.5636c.1978-.5154-.3441-1.7654-.7653-1.7654-.1993 0-.5779.2381-.8413.5292-.4621.5106-.4621.5477 0 1.0583.5462.6036 1.4067.6988 1.6066.1779zm12.13.1906c.8262-.3171.1363-1.4269-.887-1.4269-.3963 0-.3532 1.2501.0488 1.4123.1819.0734.3508.1429.3752.1543.0245.0115.2328-.0514.463-.1397zm-31.239-.4924c.1696-.4421-.2245-.783-.6216-.5376-.3956.2445-.3191.926.104.926.2027 0 .4356-.1748.5176-.3884zm22.007-.4281c.004-.2058.1002-.5229.214-.7048.2985-.4767-.4779-.4213-.8797.0628-.1796.2164-.2537.5835-.1646.8157.1912.4982.8201.3666.8302-.1737zm-32.141-.199c.5621-.4551.5454-1.1012-.0284-1.1012-.4106 0-1.3388 1.058-1.169 1.3326.2299.372.5221.3155 1.1974-.2314zm7.3431-.1657c.3229-.7087.0798-1.0309-.5851-.7758-.612.2349-.5201 1.4278.11 1.4278.0979 0 .3117-.2934.4751-.652zm-121.79-.1602c0-.2042-.2084-.4113-.463-.4604-.4561-.0878-.6446.4736-.2811.8371.2773.2773.7441.041.7441-.3767zm150.78-.1258c.1633-.4255-.2407-.7574-.6294-.5172-.1455.0899-.2646.3909-.2646.6688 0 .5695.6603.4575.894-.1516zm-38.832-.2609c.5469-.8347.2842-1.1642-.42-.5269-.4221.382-.6026.4122-.915.1529-.3912-.3247-1.4729-.1577-1.4729.2273 0 .2923 1.0809.7772 1.7798.7984.3518.0107.766-.2519 1.028-.6518zm-7.3058-.8361c0-.1905-.1149-.3463-.2553-.3463-.3632 0-.7565.8559-.598 1.3015.1065.2994.2064.2758.4934-.1167.1979-.2707.3599-.648.3599-.8385zm-13.539-.0555c.0479-.3266.0167-.7772-.0693-1.0013-.2228-.5807-.9438.0542-.9438.8311 0 1.1009.8556 1.2446 1.0131.1702zm3.3309.607c.6219-.2387.5473-1.1464-.0808-.9822-.2746.0718-.5793.001-.6771-.1571-.2378-.3847-.9403-.3681-.9403.0223 0 .3565.777 1.2776 1.0777 1.2776.1111 0 .3903-.0723.6204-.1606zm5.0487-.7875c0-.5935-.1213-.7717-.5255-.7717-.6237 0-.8471.7848-.3826 1.3444.4799.5783.9082.3082.9082-.5727zm9.8336.006c.8971-.6843 1.1725-1.4396.5248-1.4396-.4203 0-2.2476 1.2872-2.8178 1.9849-.3744.4581-.3456.4754.5071.3065.4972-.0985 1.3008-.4818 1.7859-.8518zm24.383.3237c.109-.5623-.7242-.9055-1.0233-.4216-.2576.4168.2069 1.1067.6466.9604.1601-.0533.3296-.2957.3767-.5388zm-51.018-.8696c0-.2005-.1659-.3645-.3686-.3645-.4204 0-.7696.7151-.5348 1.095.2025.3276.9033-.2392.9033-.7306zm6.9318.0226c.2529-.555.2273-.7498-.1475-1.1245-.3973-.3972-.4844-.4042-.7043-.0564-.2914.4609-.3387 1.4196-.0827 1.6757.3326.3326.629.1757.9345-.4948zm12.118-.1069c0-.8717-.2782-1.1536-.9022-.9142-.5393.207-.5338.5998.0171 1.2085.6227.6881.885.6009.885-.2943zm-23.108.0989c.2408-.6274-.3235-1.07-.8292-.6503-.3134.2601-.3398.4276-.1111.7032.3962.4774.7444.4578.9403-.0529zm2.6686-.7229c1.3278-1.2094.2561-1.3621-1.1144-.1588-.5139.4512-.868.9278-.7869 1.059.1755.2839 1.062-.1359 1.9013-.9003zm5.5626.5611c-.1535-.4606-.9408-.8924-1.1838-.6494-.1159.1159.0202.3796.3025.5859.6242.4565 1.0219.4851.8814.0634zm-32.919-.8788c.2183-.2183.584-.3969.8126-.3969.2287 0 .4158-.1149.4158-.2553 0-.3049-.6582-.6659-1.6431-.9011-.866-.2069-1.3284.4324-.98 1.3548.2597.6878.8249.7682 1.3947.1984zm5.0615.1378c.265-.4288-.301-1.1953-1.2667-1.7153-1.0933-.5888-1.8448-.3919-1.725.4519.0715.5035.2383.5919 1.0699.5669.5419-.0163.9218.073.8443.1984-.199.3221.118.7572.5518.7572.2011 0 .4377-.1166.5258-.2591zm-8.7495-.1661c.4324-.1659.5913-.8977.1949-.8977-.123 0-.4391.2381-.7025.5292-.4785.5287-.2819.6715.5075.3686zm13.598-.4385c.1053-.5468-.6585-.9152-1.0616-.5121s-.0347 1.1669.5121 1.0616c.2534-.0488.5007-.2961.5495-.5495zm-21.184-.2851c.311-.6825.0316-1.4052-.4324-1.1184-.3404.2104-.4037 1.7381-.072 1.7381.1222 0 .3492-.2789.5045-.6197zm4.5174-.1286c.0465-.316-.0386-.5746-.1891-.5746-.3509 0-.8577.9339-.6302 1.1614.3073.3073.7327.003.8194-.5868zm-15.563-.1777c.1812-.2183.5628-.3969.8482-.3969.759 0 .4283-.6463-.38-.7427-.631-.0752-1.5265.7055-1.5265 1.3308 0 .3536.7132.2247 1.0583-.1912zm5.8756-1.7708c-.4339-.4339-.9823.1146-.7417.7417.1655.4313.2062.4326.6191.0197.3452-.3452.372-.5119.1226-.7613zm-30.104-.3648c.7884-.7884.4362-1.2436-.6651-.8597-.8456.2948-.9328.4789-.4538.9579.4184.4184.6198.4007 1.1188-.0983zm7.8241.0106c0-.4224-.7032-.8319-.9701-.565-.0845.0845-.0831.3373.003.5619.2029.5288.967.5312.967.003z"/></g></g></svg>
