<?xml version="1.0" encoding="UTF-8" standalone="no"?>
<svg
   inkscape:version="1.1.1 (3bf5ae0d25, 2021-09-20)"
   sodipodi:docname="StempelWitzigKlein.svg"
   id="svg8"
   version="1.1"
   viewBox="0 0 170.57715 77.107733"
   height="77.107735mm"
   width="170.57715mm"
   xmlns:inkscape="http://www.inkscape.org/namespaces/inkscape"
   xmlns:sodipodi="http://sodipodi.sourceforge.net/DTD/sodipodi-0.dtd"
   xmlns="http://www.w3.org/2000/svg"
   xmlns:svg="http://www.w3.org/2000/svg"
   xmlns:rdf="http://www.w3.org/1999/02/22-rdf-syntax-ns#"
   xmlns:cc="http://creativecommons.org/ns#"
   xmlns:dc="http://purl.org/dc/elements/1.1/">
  <defs
     id="defs2" />
  <sodipodi:namedview
     inkscape:snap-global="true"
     inkscape:document-rotation="0"
     fit-margin-bottom="0"
     fit-margin-right="0"
     fit-margin-left="0"
     fit-margin-top="0"
     inkscape:window-maximized="0"
     inkscape:window-y="0"
     inkscape:window-x="0"
     inkscape:window-height="1016"
     inkscape:window-width="956"
     showgrid="false"
     inkscape:current-layer="layer1"
     inkscape:document-units="mm"
     inkscape:cy="166.42857"
     inkscape:cx="310.71428"
     inkscape:zoom="1.4"
     inkscape:pageshadow="2"
     inkscape:pageopacity="0.0"
     borderopacity="1.0"
     bordercolor="#666666"
     pagecolor="#1A9900"
     id="base"
     inkscape:pagecheckerboard="1" />
  <metadata
     id="metadata5">
    <rdf:RDF>
      <cc:Work
         rdf:about="">
        <dc:format>image/svg+xml</dc:format>
        <dc:type
           rdf:resource="http://purl.org/dc/dcmitype/StillImage" />
      </cc:Work>
    </rdf:RDF>
  </metadata>
  <g
     transform="translate(280.42239,-506.43091)"
     id="layer1"
     inkscape:groupmode="layer"
     inkscape:label="Ebene 1">
    <path
       inkscape:connector-curvature="0"
       id="path3952"
       d="m -123.60267,583.38986 c -2.54209,-0.18757 -19.09647,-1.12826 -22.35729,-1.27043 -6.86514,-0.29933 -35.89157,-1.73826 -42.73021,-2.11827 -3.8563,-0.21429 -12.96459,-0.6311 -20.24063,-0.92626 -7.27604,-0.29516 -16.32479,-0.71265 -20.10833,-0.92776 -3.78354,-0.21512 -11.7012,-0.63288 -17.59479,-0.92837 -12.70591,-0.63705 -26.96587,-1.51173 -30.29479,-1.85824 -1.30969,-0.13633 -2.58422,-0.24993 -2.83229,-0.25245 -0.77126,-0.008 -0.82892,-1.54907 -0.37493,-10.02153 0.77431,-14.45048 1.45869,-28.22453 2.00663,-40.38618 0.61064,-13.55348 0.94567,-17.87639 1.40969,-18.18979 0.44457,-0.30027 18.90565,0.30535 26.38152,0.86545 1.81901,0.13628 6.7601,0.37111 10.98021,0.52185 4.2201,0.15074 9.10167,0.39341 10.84792,0.53926 1.74625,0.14586 6.86593,0.44289 11.37708,0.66009 38.25183,1.84165 38.709,1.87274 39.6166,2.69411 0.43113,0.39017 0.53317,0.3993 0.74006,0.0662 0.39409,-0.6345 3.4115,-0.53788 50.13084,1.60516 15.69268,0.71983 15.92023,0.73734 16.44836,1.26547 0.38778,0.38778 0.4161,1.17896 0.27145,7.58381 -0.0888,3.93298 -0.40217,11.55618 -0.69633,16.94045 -0.29415,5.38427 -0.77825,14.73068 -1.07576,20.76979 -0.29751,6.03912 -0.71592,13.00427 -0.9298,15.47813 -0.21388,2.47385 -0.38954,5.07129 -0.39037,5.77208 -0.003,2.34072 0.0777,2.30426 -4.97175,2.25148 -2.43236,-0.0254 -4.95825,-0.0858 -5.61309,-0.13407 z m 3.92504,-11.26271 c 0.36675,-5.3332 1.83752,-34.46641 1.95068,-38.63922 0.0594,-2.19047 0.16971,-2.91129 0.47428,-3.09928 0.34896,-0.21539 0.34414,-0.29771 -0.0399,-0.68188 -0.38745,-0.38755 -0.39492,-0.53712 -0.0661,-1.32398 0.40416,-0.96731 0.46313,-2.64049 0.20196,-5.73021 l -0.16869,-1.99556 -2.54329,-0.17476 c -1.39881,-0.0961 -4.21017,-0.34373 -6.24746,-0.55026 -3.97834,-0.4033 -11.59903,-0.75311 -25.92917,-1.19022 -4.94771,-0.15092 -11.73427,-0.44805 -15.08125,-0.66029 -3.34698,-0.21225 -13.34823,-0.74452 -22.225,-1.18284 -24.9617,-1.23255 -26.08746,-1.32715 -26.85922,-2.25706 -0.29229,-0.35219 -0.36747,-0.34699 -0.65434,0.0453 -0.29487,0.40325 -0.96607,0.42754 -7.43965,0.26916 -7.85094,-0.19208 -16.51692,-0.58809 -21.40304,-0.97806 -4.83949,-0.38625 -22.09392,-0.89526 -23.21506,-0.68485 -0.72615,0.13628 -1.02368,0.3414 -1.11621,0.76953 -0.23468,1.08585 -1.52801,25.49916 -2.69549,50.88081 -0.11828,2.57134 -0.0823,3.78558 0.11564,3.90794 0.52251,0.32293 4.3389,0.66436 10.63924,0.95182 3.41974,0.15603 7.64646,0.39963 9.39271,0.54134 1.74625,0.14171 7.58031,0.44103 12.96459,0.66516 5.38427,0.22412 12.52802,0.5786 15.875,0.78773 3.34698,0.20913 9.18104,0.50588 12.96458,0.65945 3.78354,0.15357 8.72464,0.39355 10.98021,0.5333 2.25557,0.13974 8.08963,0.43895 12.96458,0.66491 4.87495,0.22596 10.05417,0.53714 11.50938,0.69152 1.45521,0.15438 3.59833,0.3784 4.7625,0.49782 1.16416,0.11943 4.0812,0.22734 6.48229,0.2398 6.58587,0.0342 33.29058,1.22927 33.58004,1.50275 0.0606,0.0573 2.45072,0.10416 5.31132,0.10416 h 5.20108 z m -31.97087,-6.26417 c -2.35607,-0.50694 -4.28298,-1.88534 -5.47209,-3.9144 -0.9251,-1.57857 -1.02929,-3.86393 -0.63722,-13.97745 0.35577,-9.17719 0.65941,-12.20189 1.39849,-13.93122 0.63162,-1.47788 2.9056,-3.72237 4.50828,-4.44982 2.3806,-1.08054 6.99496,-0.42555 9.3851,1.33218 1.93161,1.42051 2.98827,4.69372 2.98827,9.25669 0,2.39114 -0.47308,2.62764 -4.42906,2.21416 l -1.59626,-0.16684 -0.11336,-2.41285 c -0.14762,-3.14192 -0.78265,-4.49465 -2.32721,-4.95741 -1.82408,-0.54651 -2.43566,0.43907 -2.89245,4.66124 -0.46198,4.27021 -0.87978,13.11359 -0.75855,16.05599 0.15027,3.64698 0.51174,4.27673 2.52325,4.39588 1.17007,0.0693 1.39937,-0.005 1.87602,-0.61139 0.70722,-0.89908 1.14985,-3.08905 1.0502,-5.196 l -0.0795,-1.6799 -1.1625,-0.15513 c -1.40623,-0.18766 -1.8802,-0.75163 -1.8802,-2.23721 0,-1.54438 0.45389,-2.68515 1.14112,-2.86794 0.54861,-0.14592 5.6585,0.20334 7.543,0.51557 l 0.87892,0.14561 -0.17433,5.60684 c -0.27282,8.77499 -0.49869,10.95998 -1.21138,11.7186 -0.85868,0.91402 -1.89748,0.83455 -2.71305,-0.20755 l -0.65949,-0.84267 -1.80708,0.81979 c -1.94527,0.88248 -3.8981,1.20386 -5.37896,0.88523 z m -28.7073,-1.88509 c -9.0771,-0.68045 -9.12812,-0.68845 -9.12812,-1.43133 0,-0.95151 1.18606,-4.81215 2.19793,-7.1543 2.33757,-5.41071 5.38395,-12.15641 7.32023,-16.20943 1.16793,-2.4447 2.12351,-4.58576 2.12351,-4.75791 0,-0.57288 -0.89899,-0.78706 -3.96875,-0.94553 -3.59509,-0.1856 -4.70038,-0.50163 -4.92814,-1.40913 -0.24081,-0.95944 0.0234,-3.43991 0.41691,-3.91405 0.41575,-0.50095 3.48974,-0.51673 10.71981,-0.055 l 4.75338,0.30356 0.24354,1.03318 c 0.43977,1.86567 -0.70869,5.23495 -4.92371,14.44494 -5.94654,12.9934 -6.15786,13.54491 -5.31507,13.87143 0.26867,0.10409 2.08707,0.3664 4.0409,0.58292 1.95382,0.21652 3.76812,0.50911 4.03177,0.65021 0.63341,0.33899 0.84073,1.26258 0.69038,3.07557 -0.0939,1.13227 -0.26624,1.60268 -0.72252,1.97216 -0.32957,0.26687 -0.73485,0.47025 -0.90063,0.45198 -0.16578,-0.0183 -3.15892,-0.24745 -6.65142,-0.50926 z m 11.87823,-4.28616 c 0.10168,-2.65575 0.3502,-7.20989 0.55227,-10.12031 0.20207,-2.91041 0.51218,-8.68495 0.68913,-12.83229 0.20629,-4.8351 0.42606,-7.61209 0.61251,-7.73981 0.15993,-0.10956 1.54094,-0.16909 3.06891,-0.1323 l 2.77812,0.0669 -0.0796,4.36563 c -0.0438,2.40109 -0.19063,6.15156 -0.32627,8.33437 -0.13564,2.18281 -0.36534,6.88578 -0.51046,10.45104 -0.14511,3.56526 -0.337,7.70021 -0.42642,9.18876 l -0.16258,2.70647 -0.9671,0.26862 c -0.53191,0.14774 -1.9675,0.26928 -3.19021,0.27009 l -2.22311,0.002 0.18486,-4.82864 z m -33.83865,3.04969 c -1.22393,-0.30084 -1.26709,-0.48416 -1.07459,-4.56438 0.0997,-2.11371 0.41135,-7.53406 0.69252,-12.0452 0.54669,-8.77139 0.63208,-12.50188 0.29821,-13.02756 -0.11442,-0.18016 -1.48182,-0.5246 -3.03866,-0.76543 l -2.83061,-0.43786 0.003,-1.48353 c 0.002,-0.81595 0.0767,-1.93002 0.16691,-2.47573 l 0.164,-0.99218 4.79403,0.005 c 4.90889,0.006 12.03888,0.37299 13.27918,0.68429 l 0.6936,0.17408 -0.18716,2.41236 c -0.10293,1.3268 -0.2153,2.44388 -0.24969,2.4824 -0.0344,0.0385 -1.39032,0.14601 -3.01316,0.23886 -2.29851,0.13151 -2.95062,0.25216 -2.95062,0.54589 0,0.20738 -0.11963,1.76677 -0.26584,3.4653 -0.14621,1.69853 -0.50606,7.73168 -0.79966,13.40699 -0.2936,5.67531 -0.60555,10.7143 -0.69323,11.19775 -0.10987,0.60583 -0.36007,0.9553 -0.80506,1.12448 -0.66352,0.25227 -3.24114,0.28556 -4.18308,0.054 z m -14.12605,-0.67109 -2.48439,-0.25735 0.17326,-2.94578 c 0.0953,-1.62018 0.40838,-7.82734 0.69574,-13.7937 0.61233,-12.71329 1.01565,-18.43149 1.32258,-18.75089 0.29221,-0.3041 5.48089,-0.0893 5.7789,0.23925 0.26039,0.28706 -0.0654,10.20748 -0.49065,14.93977 -0.15037,1.67349 -0.4478,6.91224 -0.66095,11.64167 -0.3387,7.51536 -0.44439,8.64063 -0.83867,8.92968 -0.24811,0.18191 -0.57719,0.31363 -0.73128,0.29272 -0.15409,-0.0209 -1.39813,-0.15383 -2.76454,-0.29537 z m -18.02751,-10.08128 c -0.636,-5.186 -1.24845,-9.42909 -1.36098,-9.42909 -0.33334,0 -1.17736,3.13433 -2.86446,10.63736 -0.87379,3.88601 -1.58871,7.13046 -1.58871,7.20989 0,0.0794 -1.23109,0.14442 -2.73575,0.14442 h -2.73574 l -0.437,-3.10885 c -0.49286,-3.50625 -3.23379,-27.1626 -3.50591,-30.25865 -0.13712,-1.56014 -0.096,-2.06448 0.18248,-2.23657 0.19773,-0.12221 1.37766,-0.27087 2.62205,-0.33037 1.82384,-0.0872 2.3292,-0.0279 2.6063,0.30603 0.22624,0.2726 0.61153,3.4261 1.12699,9.22391 0.84729,9.53037 0.92044,10.09587 1.27736,9.87529 0.24737,-0.15289 1.45893,-5.11235 3.07197,-12.57496 0.51899,-2.40109 1.15525,-4.78234 1.41392,-5.29166 0.45734,-0.90053 0.51799,-0.92818 2.2011,-1.00359 1.26927,-0.0569 1.837,0.0287 2.12907,0.32073 0.52072,0.52072 0.84186,2.45162 1.79609,10.79922 0.82341,7.20317 0.972,8.13989 1.29118,8.13989 0.2783,0 0.91649,-2.82834 1.99997,-8.86354 0.5225,-2.91042 1.19244,-6.33347 1.48875,-7.60678 l 0.53876,-2.3151 h 2.16804 c 2.25193,0 3.34412,0.39847 3.34412,1.22005 0,0.36813 -5.83638,27.78028 -6.72126,31.56822 -0.55886,2.39233 -0.8719,2.62844 -3.75621,2.83318 l -2.39575,0.17005 z"
       style="fill:#00a800;fill-opacity:1;stroke-width:1"
       sodipodi:nodetypes="ssssssscsccssscsssssssscssscssscsccssssssssssscsssssssssssscccssssssscssssscccsssscssscsccssssssssscssssssscsscssssccssscsccccccsssccsccscscssssssccscscssssssscsssscsscscccscccsssccsssscc" />
  </g>
</svg>
