<svg width="1008.3" height="308.88" version="1.1" viewBox="0 0 266.77 81.723" xmlns="http://www.w3.org/2000/svg"><g transform="translate(269.2 -415.41)"><g transform="matrix(1.3568 0 0 1.3568 140.22 -151.71)" fill="#e11919" stroke-width=".73702"><path d="m-298.62 478.02c-0.0957-0.15487-0.29218-1.5115-0.4366-3.0148-0.23758-2.4732-1.8969-30.374-2.2475-37.791-0.0791-1.6735-0.21187-4.0694-0.29501-5.3242l-0.15119-2.2814 1.4145-0.16936c3.0133-0.36081 13.746-0.96753 16.893-0.95494 1.819 7e-3 4.1407-0.10577 5.1594-0.25121 2.1-0.29985 12.529-0.96543 33.338-2.1277 7.8581-0.4389 17.978-1.0333 22.49-1.3208 4.5112-0.28755 11.595-0.7072 15.743-0.93257 13.757-0.74754 48.135-2.8214 54.625-3.2953 2.2122-0.16153 3.5379-0.15898 3.7381 7e-3 0.20138 0.16713 0.55325 0.16509 1.0027-6e-3 0.38087-0.1448 3.5207-0.44273 6.9775-0.66206 3.4568-0.21934 11.988-0.76567 18.959-1.2141 11.055-0.71115 12.723-0.76642 13.057-0.43272 0.51205 0.51205 0.73861 2.7851 1.3893 13.938 0.30138 5.166 0.84104 14.155 1.1992 19.976 0.69679 11.323 0.78456 14.307 0.42724 14.528-0.42353 0.26175-43.08 2.8596-45.415 2.7659-0.72761-0.0292-2.6326 0.0906-4.2333 0.26624s-8.3278 0.66217-14.949 1.0812c-10.252 0.64876-12.147 0.70918-12.766 0.40718-0.61906-0.30173-0.7276-0.29845-0.7276 0.022 0 0.20713-0.14883 0.37683-0.33073 0.37712-0.1819 2.6e-4 -5.9862 0.35321-12.898 0.78428-6.9122 0.43106-15.425 0.9074-18.918 1.0585s-7.5406 0.39327-8.9958 0.53809c-1.4552 0.14481-6.0986 0.44855-10.319 0.67497-4.2201 0.22643-9.1017 0.52163-10.848 0.65602-4.1339 0.31812-8.2477 0.32135-8.8352 7e-3 -0.3092-0.16548-0.81526-0.13068-1.504 0.10343-1.0632 0.36142-5.7143 0.72496-23.792 1.8597-14.516 0.91114-18.538 1.0671-18.749 0.72702zm5.9164-2.3252c0-0.19188-0.1177-0.42161-0.26156-0.51051-0.14606-0.0903-0.19651 8e-3 -0.11425 0.2222 0.081 0.21112 0.0201 0.46246-0.13532 0.55853-0.15544 0.0961-0.28262 0.30128-0.28262 0.45603 0 0.17743 0.14661 0.15969 0.39687-0.048 0.21828-0.18116 0.39688-0.48637 0.39688-0.67824zm-1.7198-0.38009c0.0899-0.14553 0.0374-0.26459-0.11668-0.26459-0.15411 0-0.2802 0.11906-0.2802 0.26459 0 0.14552 0.0525 0.26458 0.11668 0.26458 0.0642 0 0.19026-0.11906 0.2802-0.26458zm2.8119-0.19844c0.32911-0.41965 0.31975-0.42901-0.0999-0.0999-0.25466 0.19972-0.46302 0.40808-0.46302 0.46302 0 0.21777 0.21728 0.0776 0.56292-0.36312zm16.467-0.45633c-0.51416-0.37596-1.0074-0.27773-0.74419 0.1482 0.0852 0.13784 0.26656 0.18159 0.40305 0.0972 0.1365-0.0844 0.32871 0.0565 0.42715 0.31303 0.11924 0.31072 0.21616 0.35489 0.29036 0.13229 0.0613-0.18376-0.10811-0.4946-0.37637-0.69076zm14.455-0.66815c0-0.14552-0.11906-0.26458-0.26458-0.26458s-0.26459 0.11906-0.26459 0.26458 0.11907 0.26458 0.26459 0.26458 0.26458-0.11906 0.26458-0.26458zm1.9314-0.17494c0.46572-0.24174 0.71596-0.48378 0.55611-0.53786-0.42181-0.1427-1.6937 0.38767-1.6937 0.70625 0 0.36656 0.14972 0.3444 1.1376-0.16839zm2.9786-0.50815c-0.68739-0.50264-1.4704-0.47584-1.4704 0.0503 0 0.31896 0.16163 0.38499 0.64525 0.26362 0.35488-0.0891 0.72399-0.0345 0.82024 0.12121 0.0962 0.15573 0.25219 0.20597 0.34653 0.11163 0.0943-0.0943-0.0594-0.34039-0.34165-0.54677zm10.436 0.15392c0-0.14552-0.11906-0.26458-0.26458-0.26458s-0.26458 0.11906-0.26458 0.26458 0.11906 0.26459 0.26458 0.26459 0.26458-0.11907 0.26458-0.26459zm9.2604 0c0-0.14552-0.12609-0.26458-0.2802-0.26458s-0.20661 0.11906-0.11667 0.26458c0.0899 0.14552 0.21602 0.26459 0.2802 0.26459 0.0642 0 0.11667-0.11907 0.11667-0.26459zm-15.875-0.56039c0-0.14552-0.11906-0.191-0.26458-0.10107-0.14552 0.0899-0.26459 0.28259-0.26459 0.42811s0.11907 0.191 0.26459 0.10106c0.14552-0.0899 0.26458-0.28258 0.26458-0.4281zm9.2451 0.18197c0.2508-0.30219 0.20753-0.43544-0.21479-0.66146-0.72136-0.38606-0.82823-0.35999-0.82823 0.20203 0 0.86207 0.5191 1.0907 1.043 0.45943zm-38.482-0.28325c4.3656-0.21736 8.4138-0.45673 8.9958-0.53196 0.97834-0.12642 12.402-0.76349 26.061-1.4534 3.1287-0.15801 8.0698-0.46214 10.98-0.67585 9.7664-0.71713 12.411-0.87576 17.33-1.0396 2.6921-0.0897 6.7403-0.33123 8.9958-0.5368 2.2556-0.20557 7.6134-0.56 11.906-0.78761 4.2929-0.22761 10.425-0.5901 13.626-0.80554 3.2015-0.21543 9.2736-0.57129 13.494-0.79081 4.2201-0.21951 9.0338-0.51287 10.697-0.65191 1.9914-0.16647 3.1324-0.16292 3.3412 0.0104 0.21135 0.17541 0.57051 0.1663 1.0769-0.0273 0.41788-0.15976 2.8434-0.39426 5.39-0.52111 4.3896-0.21864 7.968-0.43974 17.066-1.0544 2.1828-0.14748 6.4691-0.38485 9.525-0.52749 7.686-0.35876 12.054-0.78896 12.212-1.2029 0.0706-0.18401-0.11511-4.483-0.41271-9.5534-0.29761-5.0704-0.66964-11.541-0.82675-14.378-0.1571-2.8377-0.39733-6.4691-0.53384-8.0698-0.13652-1.6007-0.24923-3.8332-0.25048-4.9609l-2e-3 -2.0505-3.638 1e-3c-2.0009 6.9e-4 -6.4955 0.17998-9.988 0.39846-3.4925 0.21847-11.232 0.69421-17.198 1.0572-5.9664 0.36299-12.455 0.77541-14.42 0.91649s-6.8461 0.44046-10.848 0.66529c-4.0018 0.22483-18.306 1.0597-31.787 1.8552s-27.59 1.6268-31.353 1.8472c-3.763 0.22041-9.8184 0.58995-13.456 0.82121-3.638 0.23125-8.1624 0.38295-10.054 0.3371-1.8918-0.0458-3.5586-8e-3 -3.7042 0.0839-0.4772 0.3017-2.5266 0.47908-11.774 1.0191-12.998 0.759-25.235 1.592-25.37 1.7271-0.0635 0.0635 0.0882 3.5391 0.33704 7.7237 0.24885 4.1846 0.74268 12.49 1.0974 18.456 0.35472 5.9664 0.71335 11.354 0.79694 11.972l0.15199 1.1245 2.2989-1e-3c1.2644-4.1e-4 5.8708-0.17868 10.236-0.39603zm3.3984-7.2895c-0.69473-0.26242-0.80721-0.76228-1.1281-5.0134-0.43114-5.7117-1.183-19.829-1.0625-19.949 0.0634-0.0632 0.95715-0.19778 1.9862-0.29908l1.871-0.1842 2.47 5.7201c1.3585 3.1461 2.6489 5.868 2.8675 6.0488 0.41986 0.34713 0.41763 0.19136-0.12444-8.6789-0.14005-2.2918-0.1003-2.7197 0.28882-3.1089 0.47039-0.47039 2.63-0.6319 3.2425-0.2425 0.30299 0.19263 1.1103 10.995 1.5682 20.983l0.17703 3.8618-0.63351 0.16953c-0.34844 0.0932-1.1375 0.17116-1.7535 0.17314-1.325 4e-3 -1.2087 0.19209-4.4241-7.1401-1.1168-2.5466-2.2158-4.8088-2.4423-5.0271-0.37163-0.35818-0.39615-0.22918-0.25144 1.3229 0.0882 0.94588 0.23409 3.6843 0.32422 6.0854 0.13026 3.4706 0.0904 4.454-0.19455 4.7965-0.4276 0.51407-1.9821 0.78323-2.7809 0.48151zm10.168-4.5315c-0.16966-0.50898-0.89215-0.84393-1.4-0.64904-0.44917 0.17236-0.44762 0.20123 0.0302 0.56286 0.61026 0.46188 1.514 0.51874 1.3698 0.0862zm-1.0522-3.1939c0.19091-0.40018 0.51666-0.72761 0.72388-0.72761 0.3086 0 0.32071-0.12302 0.067-0.67996l-0.30981-0.67997-0.47234 0.92069c-0.25979 0.50638-0.80243 1.1803-1.2059 1.4977l-0.73352 0.57699 0.79179-0.0901c0.55415-0.0631 0.89596-0.30847 1.1389-0.8177zm-7.7263-7.3831c0.11268-0.18232 0.073-0.23391-0.0984-0.12798-0.15795 0.0976-0.37019 0.0432-0.47165-0.12099-0.10146-0.16416-0.028-0.39515 0.16314-0.51332 0.28642-0.17701 0.28668-0.28825 2e-3 -0.63187-0.4774-0.57513-0.81057-0.52189-0.81057 0.12952 0 0.30061-0.12325 0.77686-0.27389 1.0583-0.24228 0.45269-0.18299 0.51177 0.51355 0.51177 0.43309 0 0.87239-0.13745 0.97623-0.30546zm2.4044-1.0671c-0.0845-0.21107-0.14716-0.14837-0.15985 0.15985-0.0115 0.27892 0.051 0.43519 0.13896 0.34727 0.0879-0.0879 0.0973-0.31613 0.0209-0.50712zm-3.9907-3.2841c-0.0942-0.24539-0.23074-0.38663-0.3035-0.31387-0.0728 0.0728-0.0553 0.33307 0.0389 0.57845 0.0942 0.24539 0.23073 0.38663 0.3035 0.31387 0.0728-0.0728 0.0552-0.33307-0.0389-0.57845zm1.2793-1.4018c-0.16608-0.16607-0.63836 0.50591-0.63187 0.89907 2e-3 0.14552 0.17794 0.0351 0.39009-0.24527 0.21215-0.28042 0.32095-0.57463 0.24178-0.6538zm14.366 17.864c-0.38682-5.1146-1.3451-22.912-1.239-23.011 0.0658-0.0618 1.0712-0.1554 2.2342-0.20789l2.1145-0.0954 0.58456 9.2604c0.32151 5.0932 0.62016 10.749 0.66366 12.568l0.0791 3.3073-4.2877 0.1524zm1.6588-2.5449c0-0.14552-0.11906-0.26458-0.26458-0.26458s-0.26459 0.11906-0.26459 0.26458 0.11907 0.26459 0.26459 0.26459 0.26458-0.11907 0.26458-0.26459zm-0.43348-5.424c-0.16103-0.41962-0.62485-0.55055-0.62485-0.17639 0 0.27981 0.28921 0.57327 0.56496 0.57327 0.1167 0 0.14365-0.1786 0.0599-0.39688zm0.0795-3.1088c-0.0734-0.1819-0.13345-0.0331-0.13345 0.33073 0 0.3638 0.06 0.51263 0.13345 0.33073 0.0734-0.1819 0.0734-0.47956 0-0.66146zm-0.0359-2.7932c-0.0815-0.0815-0.29496-1.7e-4 -0.47444 0.18065-0.25936 0.26131-0.22897 0.2917 0.14812 0.14811 0.26094-0.0994 0.40778-0.2473 0.32632-0.32876zm-7e-3 -2.4324c0.0899-0.14552-0.0221-0.26459-0.24897-0.26459s-0.41249 0.11907-0.41249 0.26459 0.11203 0.26458 0.24897 0.26458c0.13693 0 0.32255-0.11906 0.41249-0.26458zm0.92604-2.9104c0-0.14552-0.0525-0.26458-0.11668-0.26458-0.0642 0-0.19026 0.11906-0.2802 0.26458-0.0899 0.14552-0.0374 0.26458 0.11668 0.26458 0.15411 0 0.2802-0.11906 0.2802-0.26458zm8.6353 20.528c-1.1342-0.41929-2.4154-1.5245-2.9402-2.5363-0.56669-1.0927-0.91613-3.3127-1.3317-8.4606-0.46823-5.8001-0.50022-9.2724-0.0987-10.719 0.61243-2.206 3.2003-3.8243 6.1308-3.8337 2.1175-7e-3 3.3813 0.53321 4.6624 1.9924 1.1567 1.3174 1.3662 1.9695 1.5378 4.7857 0.1677 2.7525 0.13999 2.7942-2.069 3.1143-1.5105 0.21889-1.6876 0.0293-2.0784-2.2252-0.41356-2.3855-0.68434-2.9539-1.732-3.6353l-0.91107-0.59263-0.53368 0.57284c-0.29352 0.31506-0.61068 0.98331-0.7048 1.485-0.29725 1.5844 0.44606 12.889 0.98179 14.932 0.27654 1.0544 0.86709 1.5259 1.9111 1.5259 1.0276 0 1.2973-0.62131 1.4927-3.4394 0.10071-1.4522 0.27013-2.7274 0.37649-2.8338 0.10637-0.10636 1.0204-0.24012 2.0313-0.29723l1.8379-0.10385v6.8791l-0.85989 1.2682c-0.49947 0.73665-1.3035 1.4963-1.9182 1.8122-1.3373 0.68737-4.3292 0.8474-5.7845 0.30939zm-1.0946-2.8009c0.0899-0.14553 0.3876-0.26459 0.66146-0.26459 0.27387 0 0.57152-0.11906 0.66146-0.26458 0.28688-0.46419-0.76895-0.27222-1.4552 0.26458-0.3638 0.28457-0.51966 0.52005-0.34634 0.52328 0.17331 3e-3 0.3887-0.11317 0.47863-0.25869zm-0.66146-1.8055c-0.3638-0.0535-0.81028-0.21955-0.99218-0.36894-0.47927-0.39362-0.40613 0.0651 0.0995 0.62371 0.35696 0.39445 0.52582 0.4215 0.99218 0.15894 0.55664-0.31337 0.55569-0.31733-0.0994-0.41371zm0.3175-1.687c-0.24694-0.24694-0.3175-0.17638-0.3175 0.3175 0 0.49389 0.0706 0.56445 0.3175 0.3175 0.24695-0.24694 0.24695-0.38805 0-0.635zm0.21167-3.9158c0-0.14552-0.0525-0.26458-0.11668-0.26458-0.0642 0-0.19026 0.11906-0.28019 0.26458-0.0899 0.14552-0.0374 0.26458 0.11667 0.26458 0.15411 0 0.2802-0.11906 0.2802-0.26458zm-0.94812-3.2694c-0.17011-0.44329-0.63938-0.60702-0.63938-0.22308 0 0.25741 0.59027 0.87376 0.71619 0.74784 0.0495-0.0495 0.0149-0.28565-0.0768-0.52476zm-1.1686-0.28684c0-0.0642-0.11906-0.19026-0.26458-0.2802-0.14552-0.0899-0.26458-0.0374-0.26458 0.11668 0 0.15411 0.11906 0.2802 0.26458 0.2802s0.26458-0.0525 0.26458-0.11668zm2.1167-0.99457c0-0.42742-0.0782-0.50385-0.29445-0.28764-0.16194 0.16195-0.21445 0.42388-0.11667 0.58208 0.27368 0.44283 0.41112 0.3444 0.41112-0.29444zm-1.3229-1.0054c0-0.27386-0.11906-0.57152-0.26458-0.66146-0.15478-0.0957-0.26458 0.17885-0.26458 0.66146s0.1098 0.75712 0.26458 0.66146c0.14552-0.0899 0.26458-0.38759 0.26458-0.66146zm0.26459-1.7042c0-0.27927-0.50777-0.39659-0.65879-0.15223-0.0914 0.1479 0.0194 0.2689 0.2463 0.2689 0.22687 0 0.41249-0.0525 0.41249-0.11667zm-0.39688-1.4708c0.0899-0.14552 0.0374-0.26458-0.11667-0.26458-0.15411 0-0.2802 0.11906-0.2802 0.26458s0.0525 0.26458 0.11667 0.26458c0.0642 0 0.19027-0.11906 0.2802-0.26458zm1.4552-2.2646c0-0.22687-0.11906-0.33891-0.26458-0.24897-0.14552 0.0899-0.26459 0.27556-0.26459 0.41249s0.11907 0.24897 0.26459 0.24897 0.26458-0.18562 0.26458-0.41249zm13.242 20.28c-0.36317-0.6786-0.41228-1.3039-1.0988-13.993-0.30153-5.5731-0.48188-10.306-0.40076-10.517 0.11171-0.29112 0.65377-0.38434 2.235-0.38434h2.0875l0.17497 3.2412c0.0962 1.7826 0.24755 4.0448 0.33626 5.0271l0.16127 1.7859h1.7896c1.4404 0 1.8233-0.0878 1.9622-0.44986 0.0949-0.24743 0.0396-2.3013-0.12289-4.5641-0.35219-4.9029-0.23959-5.4159 1.2426-5.6608 1.791-0.29591 2.9284-0.20595 3.1016 0.24529 0.0883 0.23018 0.16228 1.5696 0.16434 2.9766 2e-3 1.4069 0.17169 4.8798 0.37696 7.7174 0.65857 9.104 0.7884 13.438 0.41596 13.887-0.23733 0.28597-0.84888 0.40039-2.14 0.40039h-1.8077l-0.13049-0.8599c-0.0718-0.47294-0.19935-2.0505-0.2835-3.5057-0.0842-1.4552-0.28116-3.39-0.43782-4.2995l-0.28482-1.6536h-3.6944l0.16053 2.9766c0.0883 1.6371 0.2285 4.0779 0.31158 5.424l0.15105 2.4474-1.4138 4e-3c-0.77756 2e-3 -1.6714 0.0727-1.9864 0.15723-0.41041 0.11008-0.6569-4e-3 -0.86999-0.40196zm9.8108-10.276c0.32911-0.41964 0.31975-0.429-0.0999-0.0999-0.44073 0.34564-0.58089 0.56291-0.36313 0.56291 0.0549 0 0.2633-0.20835 0.46302-0.46302zm-4.913-2.3067c0.65772-0.49747 0.18869-0.50331-0.67704-8e-3 -0.42398 0.24237-0.51338 0.38149-0.24901 0.3875 0.22685 5e-3 0.64357-0.16543 0.92605-0.37909zm3.9854-0.48859c0.24139 0.0926 0.36463-0.0559 0.36463-0.4396 0-0.71829-0.4821-0.58926-1.0194 0.27282-0.25567 0.41025-0.27636 0.53352-0.0565 0.33691 0.19065-0.17053 0.51073-0.24709 0.71128-0.17013zm-7.0437-1.7688c0-0.14552-0.11203-0.26458-0.24897-0.26458-0.13693 0-0.32255 0.11906-0.41249 0.26458-0.0899 0.14552 0.0221 0.26458 0.24897 0.26458s0.41249-0.11906 0.41249-0.26458zm8.7312-0.26458c0-0.14552-0.12609-0.26459-0.2802-0.26459s-0.20661 0.11907-0.11667 0.26459c0.0899 0.14552 0.21602 0.26458 0.2802 0.26458 0.0642 0 0.11667-0.11906 0.11667-0.26458zm-0.66293-2.1183c-0.26419-0.29193-0.53774-0.47341-0.60787-0.40327-0.17778 0.17778 0.48213 0.93406 0.81504 0.93406 0.15025 0 0.057-0.23886-0.20717-0.53079zm-1.3214 2e-3c0.0899-0.14552 0.0374-0.26458-0.11668-0.26458-0.15411 0-0.2802 0.11906-0.2802 0.26458s0.0525 0.26458 0.11668 0.26458c0.0642 0 0.19026-0.11906 0.2802-0.26458zm0.39929-1.7169c-0.17983-0.21668-0.4544-0.3152-0.61015-0.21894-0.1714 0.10593-0.0812 0.25411 0.22842 0.37537 0.73018 0.28593 0.74412 0.28022 0.38173-0.15643zm0.97207-1.7723c-0.0845-0.21107-0.14716-0.14837-0.15985 0.15985-0.0115 0.27891 0.0511 0.43519 0.13896 0.34727 0.0879-0.0879 0.0973-0.31613 0.0209-0.50712zm-1.393-0.11099c0.51691-0.19836 0.55121-0.63315 0.0499-0.63315-0.20271 0-0.4371 0.17859-0.52086 0.39687-0.17026 0.44369-0.12663 0.46558 0.47092 0.23628zm1.4768-1.6915c0-0.14552-0.23812-0.26458-0.52916-0.26458s-0.52917 0.11906-0.52917 0.26458c0 0.14553 0.23813 0.26459 0.52917 0.26459s0.52916-0.11906 0.52916-0.26459zm-1.3229-1.0583c0-0.14552-0.11906-0.26458-0.26459-0.26458-0.14552 0-0.26458 0.11906-0.26458 0.26458s0.11906 0.26458 0.26458 0.26458c0.14553 0 0.26459-0.11906 0.26459-0.26458zm10.441 22.473c-0.0955-0.15453-0.34252-3.7562-0.54892-8.0036-0.42008-8.6448-0.68998-12.07-0.98929-12.554-0.12321-0.19935-0.79922-0.32795-1.724-0.32795-1.9978 0-2.4521-0.3588-2.6162-2.0662-0.12357-1.286-0.0914-1.3763 0.58096-1.6319 0.39148-0.14883 1.5204-0.27061 2.5087-0.27061 0.98834 0 3.3648-0.13123 5.281-0.29162s3.7708-0.21965 4.1213-0.13168c0.80871 0.20298 1.0296 0.90601 0.80272 2.5554l-0.17984 1.3075h-3.9191l4e-3 1.2568c2e-3 0.69122 0.17838 3.9952 0.39119 7.3422 0.21282 3.347 0.38949 7.663 0.39262 9.5912l6e-3 3.5057h-1.9688c-1.1037 0-2.0451-0.12346-2.1424-0.28098zm1.5976-19.563c0.0899-0.14552 0.0374-0.26459-0.11668-0.26459-0.15411 0-0.2802 0.11907-0.2802 0.26459s0.0525 0.26458 0.11668 0.26458c0.0642 0 0.19026-0.11906 0.2802-0.26458zm1.0777-2.9104c0.43735 0 0.47214-0.23492 0.11755-0.79375-0.21592-0.3403-0.33482-0.31407-0.83407 0.18401-0.51164 0.51046-0.53676 0.63575-0.20714 1.0334 0.34531 0.41658 0.38189 0.41772 0.46064 0.0144 0.047-0.24094 0.25541-0.43808 0.46302-0.43808zm-5.9725-0.26458c-0.15576-0.29104-0.41653-0.52917-0.57948-0.52917-0.16296 0-0.0808 0.23813 0.1826 0.52917 0.26339 0.29104 0.52416 0.52916 0.57949 0.52916 0.0553 0-0.0268-0.23812-0.18261-0.52916zm7.2002-0.26459c0.0641-0.43656 0.0818-0.79375 0.0393-0.79375-0.21962 0-0.62688 1.1057-0.48927 1.3284 0.2506 0.40548 0.32492 0.31719 0.44994-0.53464zm-3.0992-0.79375c-1.1703-0.29779-1.7198-0.29779-1.7198 0 0 0.14553 0.56554 0.2505 1.2568 0.23328 1.1218-0.0279 1.1715-0.053 0.46302-0.23328zm19.99 22.374c-0.38654-0.46575-5.6212-23.081-5.5145-23.824 0.0585-0.40724 0.37069-0.58528 1.3333-0.76046 1.5052-0.27391 2.456-0.079 2.7022 0.55389 0.0996 0.25591 0.52417 2.1547 0.9436 4.2195 0.41942 2.0648 1.0266 4.8628 1.3494 6.2177 0.54934 2.3064 0.59942 2.4045 0.78493 1.5375 0.10898-0.50932 0.45186-3.4264 0.76196-6.4823 0.31011-3.0559 0.60783-5.691 0.66162-5.8557 0.0538-0.1647 0.70798-0.44585 1.4538-0.62476 1.1978-0.28734 1.4145-0.27236 1.8574 0.12847 0.27577 0.24956 0.57616 0.82836 0.66753 1.2862 0.0914 0.45785 0.64969 2.9756 1.2407 5.595 0.59102 2.6194 1.1322 5.0304 1.2026 5.3578 0.14402 0.66953 0.59554 0.81411 0.59554 0.19071 0-1.3371 0.85326-11.506 1.0206-12.163 0.20035-0.78691 0.21974-0.79442 2.2507-0.87128l2.0486-0.0775-0.14818 0.87128c-0.0815 0.4792-0.68504 5.9725-1.3412 12.207-0.65616 6.2349-1.3144 11.563-1.4628 11.84-0.21799 0.40732-0.56626 0.504-1.8155 0.504-0.99105 0-1.6545-0.13096-1.8486-0.3649-0.16656-0.2007-0.89488-2.9623-1.6185-6.1369s-1.427-5.8834-1.5632-6.0196c-0.23572-0.23572-0.31697 0.0699-0.67346 2.5334-0.0685 0.47295-0.31134 2.7633-0.53976 5.0897-0.50545 5.1476-0.64038 5.4275-2.6168 5.4275-0.90842 0-1.5298-0.13631-1.732-0.37992zm1.0443-4.222c0-0.20271-0.1786-0.4371-0.39688-0.52086-0.44369-0.17026-0.46558-0.12663-0.23628 0.47091 0.19836 0.51692 0.63316 0.55121 0.63316 0.0499zm9.525 0.10398c0-0.14552-0.1786-0.26458-0.39688-0.26458s-0.39687 0.11906-0.39687 0.26458c0 0.14553 0.17859 0.26459 0.39687 0.26459s0.39688-0.11906 0.39688-0.26459zm-7.5406-0.26458c0.0899-0.14552 0.0374-0.26458-0.11668-0.26458-0.15411 0-0.28019 0.11906-0.28019 0.26458s0.0525 0.26458 0.11667 0.26458c0.0642 0 0.19026-0.11906 0.2802-0.26458zm-1.2954-0.98667c-0.26896-0.26896-0.49087 0.13596-0.2702 0.49301 0.16669 0.26973 0.22902 0.26994 0.31864 1e-3 0.0613-0.18383 0.0395-0.40617-0.0484-0.49409zm-0.99544-1.6592c-0.66462-0.89894-0.8905-0.97458-1.1205-0.37524-0.34792 0.90668-0.17438 1.169 0.77337 1.169h0.93396zm2.1585 0.67707c0-0.0642-0.11906-0.19026-0.26458-0.2802-0.14553-0.0899-0.26459-0.0374-0.26459 0.11668 0 0.15411 0.11906 0.2802 0.26459 0.2802 0.14552 0 0.26458-0.0525 0.26458-0.11668zm-2.797-2.6804c0.55794-0.55793 0.53031-0.73042-0.2692-1.6806-0.83518-0.99256-1.6234-1.1488-1.1032-0.21874 0.18313 0.32743 0.48694 0.78896 0.67512 1.0256 0.2843 0.35757 0.27312 0.45682-0.0661 0.58701-0.22457 0.0862-0.4083 0.27947-0.4083 0.42956 0 0.41256 0.70187 0.32697 1.1717-0.14289zm8.1215-1.7714c-0.26131-0.25936-0.2917-0.22897-0.14812 0.14812 0.0994 0.26094 0.24731 0.40778 0.32877 0.32632 0.0815-0.0815 1.7e-4 -0.29496-0.18065-0.47444zm-4.8792-1.302c-0.0845-0.21107-0.14715-0.14838-0.15985 0.15985-0.0115 0.27891 0.0511 0.43518 0.13897 0.34726 0.0879-0.0879 0.0973-0.31612 0.0209-0.50711zm-3.8849-1.5379c0-0.14552-0.11907-0.26458-0.26459-0.26458s-0.26458 0.11906-0.26458 0.26458c0 0.14553 0.11906 0.26459 0.26458 0.26459s0.26459-0.11906 0.26459-0.26459zm12.435-1.4396c0-0.0642-0.11906-0.19026-0.26458-0.2802-0.14552-0.0899-0.26458-0.0374-0.26458 0.11668 0 0.15411 0.11906 0.2802 0.26458 0.2802s0.26458-0.0525 0.26458-0.11668zm-6.9454-2.419c-0.25213-0.25214-0.75763 0.15626-0.56973 0.4603 0.11169 0.18071 0.25968 0.17614 0.4497-0.0139 0.15578-0.15577 0.20979-0.35666 0.12003-0.44642zm1.4419-0.4278c-0.14921-0.14922-0.41877-0.18016-0.59901-0.0688-0.24336 0.15041-0.199 0.29667 0.17233 0.56819 0.55309 0.40443 0.91128-0.0148 0.42668-0.49943zm-1.4596-1.3195c-0.0845-0.21107-0.14715-0.14838-0.15985 0.15985-0.0115 0.27891 0.0511 0.43518 0.13897 0.34726 0.0879-0.0879 0.0973-0.31612 0.0209-0.50711zm13.746 16.388c-0.0932-1.2006-0.40864-6.1714-0.70109-11.046-0.29244-4.875-0.60623-9.6077-0.69731-10.517l-0.16559-1.6536h4.547l0.14116 0.85989c0.28754 1.7516 0.60936 10.358 0.41292 11.043-0.11187 0.39007-0.10505 0.88497 0.0152 1.0998 0.34884 0.62335 0.77765 5.5626 0.77765 8.9574 0 3.5788 0.10092 3.4399-2.4988 3.4399h-1.6618zm0.89034-8.1359c0-0.14552-0.11906-0.26459-0.26458-0.26459-0.14553 0-0.26459 0.11907-0.26459 0.26459s0.11906 0.26458 0.26459 0.26458c0.14552 0 0.26458-0.11906 0.26458-0.26458zm1.0416-5.4441c-0.28685-0.34562-0.28107-0.4582 0.0337-0.6574 0.23844-0.15088 0.26255-0.24188 0.0648-0.24442-0.49932-6e-3 -0.68639 0.51225-0.33672 0.93358 0.17586 0.21191 0.37929 0.38528 0.45205 0.38528 0.0728 0-0.0235-0.18766-0.21382-0.41704zm-0.29803-1.7698c0.0456-0.23485-0.18999-0.55546-0.52917-0.72028-0.57654-0.28015-0.58273-0.27411-0.109 0.10617 0.43687 0.35069 0.4541 0.46157 0.1323 0.85138-0.3198 0.38737-0.31615 0.43038 0.0269 0.31707 0.21828-0.0721 0.43383-0.32156 0.47899-0.55434zm-0.0411-5.8943c0.24636-0.64202-0.0423-0.70419-0.56869-0.1225-0.43835 0.48437-0.44134 0.53079-0.0342 0.53079 0.2454 0 0.51669-0.18373 0.60286-0.40829zm9.256 21.906c-0.19992-1.0562-0.43322-4.4655-0.73779-10.782-0.14736-3.0559-0.32717-6.4194-0.39959-7.4745l-0.13167-1.9182h-1.9542c-2.1772 0-2.4069-0.17003-2.5028-1.8524-0.12018-2.109-0.42314-1.973 5.2925-2.3769 2.11-0.14911 4.6997-0.34651 5.7547-0.43868l1.9182-0.16756v1.99c0 1.84-0.0449 2.002-0.59532 2.1495-1.0292 0.27582-2.5618 0.18136-3.5142-0.21661-1.2583-0.52576-1.2114-1.048 0.0746-0.83125 0.82883 0.13965 0.90506 0.1173 0.46302-0.13574-0.29104-0.16661-0.66838-0.47632-0.83854-0.68826-0.26623-0.33161-0.38613-0.30858-0.85989 0.16518-0.73731 0.73731-0.69583 0.97103 0.24633 1.3881 0.43827 0.19399 0.85548 0.53743 0.92714 0.7632 0.0717 0.22576 0.25028 2.6666 0.39695 5.4241 0.14667 2.7575 0.37977 6.9187 0.518 9.247 0.13824 2.3283 0.25587 4.7394 0.2614 5.3578l0.0101 1.1245h-2.0956c-2.0764 0-2.0969-7e-3 -2.2334-0.72761zm2.2123-5.887c0-0.14552-0.11203-0.26458-0.24897-0.26458-0.13693 0-0.32255 0.11906-0.41249 0.26458-0.0899 0.14553 0.0221 0.26459 0.24897 0.26459s0.41249-0.11906 0.41249-0.26459zm-1.8181-7.7391c0.28763-0.53981 0.27617-0.56145-0.12299-0.23219-0.2421 0.19973-0.44019 0.46762-0.44019 0.59532 0 0.40415 0.23512 0.25255 0.56318-0.36313zm-4.0028-8.7974c-0.187-0.22532-0.39952-0.35014-0.47228-0.27737-0.0728 0.0728 0.0207 0.31664 0.2077 0.54195 0.18699 0.22531 0.39952 0.35013 0.47228 0.27737 0.0728-0.0728-0.0207-0.31664-0.2077-0.54195zm4.7625-0.66146c0-0.14552-0.0525-0.26459-0.11668-0.26459-0.0642 0-0.19026 0.11907-0.2802 0.26459-0.0899 0.14552-0.0374 0.26458 0.11668 0.26458 0.15411 0 0.2802-0.11906 0.2802-0.26458zm-1.4552-0.26459c-0.0899-0.14552-0.27556-0.26458-0.41249-0.26458s-0.24897 0.11906-0.24897 0.26458c0 0.14553 0.18562 0.26459 0.41249 0.26459s0.33891-0.11906 0.24897-0.26459zm10.268 22.315c0.20602-1.9711 2.061-8.4924 4.2244-14.851 1.4047-4.1288 1.5881-4.8755 1.2501-5.0892-0.2179-0.13774-1.6761-0.25227-3.2404-0.2545l-2.8443-4e-3v-1.5875c0-0.87312-0.0298-1.6768-0.0661-1.7859-0.0892-0.26758 2.2669-0.50594 7.276-0.7361l4.1672-0.19148v1.4463c0 1.578-0.65755 3.9742-3.7122 13.528-1.6068 5.0254-1.869 6.086-1.5574 6.3006 0.22435 0.15448 1.6223 0.19521 3.4836 0.10151l3.1088-0.15651v3.8927l-4.4318 0.32753c-2.4375 0.18014-5.1949 0.39819-6.1275 0.48454l-1.6957 0.15702zm2.5647-1.6777c0-0.14552-0.0525-0.26458-0.11667-0.26458-0.0642 0-0.19027 0.11906-0.2802 0.26458-0.0899 0.14553-0.0374 0.26459 0.11667 0.26459 0.15411 0 0.2802-0.11906 0.2802-0.26459zm4.3908-12.216c0.27721-0.31606 0.33713-0.47646 0.13316-0.35645-0.24238 0.1426-0.49446 0.0492-0.72761-0.26967-0.30216-0.41324-0.35673-0.42273-0.35673-0.0621 0 0.2342-0.0723 0.61414-0.1606 0.84432-0.24043 0.62653 0.51882 0.51991 1.1118-0.15613zm0.65787-2.005c-0.13613-0.25466-0.31989-0.69194-0.40835-0.97173-0.15226-0.4816-0.18374-0.47601-0.59068 0.10498-0.40101 0.57252-0.397 0.63771 0.0598 0.97173 0.72072 0.527 1.2457 0.46832 0.93923-0.10498zm0.38232-4.513c-0.0815-0.0815-0.29495-1.7e-4 -0.47443 0.18065-0.25936 0.26131-0.22897 0.2917 0.14811 0.14811 0.26094-0.0994 0.40778-0.2473 0.32632-0.32876zm0.38988-1.7553c0-0.0642-0.11907-0.19026-0.26459-0.2802-0.14552-0.0899-0.26458-0.0374-0.26458 0.11668 0 0.15411 0.11906 0.2802 0.26458 0.2802s0.26459-0.0525 0.26459-0.11668zm-1.3229-0.41249c0-0.14552-0.11906-0.26458-0.26458-0.26458s-0.26459 0.11906-0.26459 0.26458 0.11907 0.26458 0.26459 0.26458 0.26458-0.11906 0.26458-0.26458zm7.832 22.556c-0.37008-1.2143-1.2113-15.37-1.309-22.027l-0.0408-2.7781 1.9204-0.0778c1.8232-0.0738 1.9327-0.0452 2.165 0.56559 0.27602 0.726 1.0286 12.637 1.2605 19.951l0.15314 4.8286h-2.0041c-1.6785 0-2.027-0.0752-2.1452-0.46302zm1.5715-4.3171c0.28476-0.46076-0.0396-0.55834-0.40245-0.12109-0.20869 0.25146-0.22876 0.40327-0.0533 0.40327 0.15475 0 0.35985-0.12698 0.45577-0.28218zm-0.76338-5.4043c-0.28265-0.6094-0.70271-0.89988-0.70271-0.48592 0 0.16921 0.80296 1.1453 0.94215 1.1453 0.0365 0-0.0712-0.29673-0.23944-0.65939zm0.38845-2.5862c-0.2613-0.25936-0.29169-0.22897-0.14811 0.14812 0.0994 0.26094 0.2473 0.40778 0.32877 0.32632 0.0815-0.0815 1.7e-4 -0.29496-0.18066-0.47444zm0.56249-4.0734c-0.18191-0.0734-0.33073-0.32197-0.33073-0.55237 0-0.23041-0.0742-0.34469-0.16498-0.25395-0.25812 0.25812 0.11012 0.98391 0.4874 0.96066 0.26555-0.0163 0.26735-0.0498 8e-3 -0.15434zm-1.1245-1.4123c0-0.14552-0.11907-0.26458-0.26459-0.26458s-0.26458 0.11906-0.26458 0.26458 0.11906 0.26458 0.26458 0.26458 0.26459-0.11906 0.26459-0.26458zm0.74414-5.2751c0.0661-0.19844-0.0331-0.29766-0.23151-0.23151-0.191 0.0637-0.39936 0.27203-0.46302 0.46302-0.0661 0.19844 0.0331 0.29766 0.23151 0.23151 0.19099-0.0637 0.39935-0.27202 0.46302-0.46302zm9.5729 23.035c-2.0872-0.6834-3.5093-2.0117-3.9428-3.6828-0.76133-2.9343-1.3806-16.473-0.82977-18.142 0.95458-2.8924 4.6775-4.7957 7.5822-3.8764 2.6309 0.83267 3.7706 2.2969 4.4672 5.7389 0.6125 3.0264 0.45965 3.261-2.125 3.261h-1.9751l-6e-3 -0.85989c-0.01-1.3078-0.50301-3.1777-0.97589-3.7003-0.48846-0.53974-1.7427-0.62018-2.1235-0.1362-0.14314 0.1819-0.33232 0.79873-0.42039 1.3707-0.20016 1.2999 0.27516 11.944 0.62113 13.909 0.30117 1.7108 1.0375 2.5031 2.0947 2.254 1.144-0.26966 1.6074-1.0761 1.5779-2.7463-0.0403-2.2777-0.25039-2.7687-1.2744-2.9782-0.48634-0.0995-0.98611-0.34156-1.1106-0.538-0.34179-0.53934-0.2789-1.915 0.11198-2.4495 0.47068-0.64369 2.3316-0.96933 4.4557-0.77968l1.7594 0.15709 0.17289 1.3838c0.32065 2.5664 0.61354 9.7203 0.42674 10.423-0.22641 0.85217-1.1043 1.0452-2.0211 0.44448-0.61446-0.40261-0.71483-0.38819-1.8243 0.26201-1.2571 0.73669-3.4804 1.065-4.6403 0.68518zm2.2507-1.0911c0.0899-0.14552 0.0374-0.26458-0.11667-0.26458-0.15411 0-0.2802 0.11906-0.2802 0.26458s0.0525 0.26458 0.11668 0.26458c0.0642 0 0.19026-0.11906 0.28019-0.26458zm1.3229 0c0.0899-0.14552 0.0374-0.26458-0.11667-0.26458-0.15411 0-0.2802 0.11906-0.2802 0.26458s0.0525 0.26458 0.11667 0.26458c0.0642 0 0.19026-0.11906 0.2802-0.26458zm-3.2245-0.55628c-0.81298-0.23521-1.9349-1.3403-1.9349-1.906 0-0.15082 0.1977-0.49268 0.43935-0.75969 0.74218-0.82011 0.19261-0.83121-0.72135-0.0146-0.85638 0.76517-0.85857 0.77343-0.35599 1.3418 0.27813 0.31452 0.71405 0.80997 0.96872 1.101 0.31867 0.36421 0.77232 0.52173 1.4552 0.50531l0.99219-0.0239-0.84325-0.24397zm-2.8006-4.4047c-0.10547-0.44097-0.12034-0.44097-0.31229 0-0.11085 0.25467-0.11085 0.67138 0 0.92605 0.19195 0.44097 0.20682 0.44097 0.31229 0 0.0609-0.25467 0.0609-0.67138 0-0.92605zm0.8657-3.0908c0-0.0629-0.38696-0.37143-0.8599-0.68572l-0.8599-0.57144 0.74236 0.68571c0.71515 0.66058 0.97744 0.81393 0.97744 0.57145zm-1.3229-2.9284c0.27917-0.33638 0.21868-0.39687-0.39688-0.39687-0.61555 0-0.67605 0.0605-0.39687 0.39687 0.18116 0.21828 0.35975 0.39688 0.39687 0.39688 0.0371 0 0.21572-0.1786 0.39688-0.39688zm-87.312 26.855c0-0.14552-0.11906-0.26458-0.26459-0.26458-0.14552 0-0.26458 0.11906-0.26458 0.26458s0.11906 0.26459 0.26458 0.26459c0.14553 0 0.26459-0.11907 0.26459-0.26459zm2.2199-1.37c-0.0859-0.13902-0.17405-0.21447-0.19586-0.16768-0.0218 0.0468-0.39683 0.49117-0.8334 0.98751l-0.79375 0.90243 0.98961-0.73476c0.54429-0.40411 0.91932-0.84849 0.8334-0.9875zm6.3425 1.2377c0.0838-0.21828 0.037-0.39687-0.10399-0.39687-0.14095 0-0.25628 0.17859-0.25628 0.39687s0.0468 0.39688 0.10399 0.39688c0.0572 0 0.17251-0.1786 0.25628-0.39688zm-3.9321-0.13229c0.0899-0.14552 0.0374-0.26458-0.11668-0.26458-0.15411 0-0.2802 0.11906-0.2802 0.26458s0.0525 0.26458 0.11668 0.26458c0.0642 0 0.19026-0.11906 0.2802-0.26458zm6.6146-0.22284c-0.29104-0.0566-0.61664-0.23802-0.72355-0.40308-0.14159-0.2186-0.19549-0.21386-0.19844 0.0175-5e-3 0.4123 0.83165 0.87936 1.1809 0.65904 0.14863-0.0937 0.0321-0.21679-0.25893-0.27342zm-3.6632-0.18545c0.21427-0.55836-0.14336-0.85981-0.4482-0.3778-0.3239 0.51217-0.31741 0.78609 0.0186 0.78609 0.15009 0 0.34339-0.18373 0.42956-0.40829zm-1.7608-0.12088c0-0.14552-0.11906-0.26458-0.26458-0.26458s-0.26459 0.11906-0.26459 0.26458 0.11907 0.26459 0.26459 0.26459 0.26458-0.11907 0.26458-0.26459zm10.221-0.72238c0.48554 0.0928 0.56746 0.0436 0.35444-0.21309-0.2446-0.29474-1.0148-0.1831-2.0489 0.29697-0.0398 0.0185 5e-3 0.2346 0.099 0.48027 0.15276 0.39806 0.21453 0.3851 0.56768-0.1191 0.27425-0.39154 0.59074-0.52859 1.0278-0.44505zm2.7435 0.12842c0-0.14759-0.17548-0.11894-0.39687 0.0648-0.21828 0.18115-0.39688 0.44844-0.39688 0.59396 0 0.14759 0.17549 0.11894 0.39688-0.0648 0.21828-0.18116 0.39687-0.44844 0.39687-0.59396zm21.726-1.3342c-0.21607-0.21608-0.29434-0.18647-0.29434 0.11135 0 0.52595 0.35578 0.88174 0.48727 0.48727 0.0558-0.16735-0.031-0.43673-0.19293-0.59862zm7.7238-0.20362c0.0905-0.34623 0.0296-0.50674-0.16758-0.4411-0.38056 0.1267-0.57914 0.98537-0.22788 0.98537 0.13922 0 0.31718-0.24492 0.39546-0.54427zm2.3059 0.141c0.41585-0.50106 0.13808-0.83885-0.35398-0.43048-0.19881 0.165-0.44611 0.21536-0.54955 0.11192-0.10344-0.10345-0.10951 0.0167-0.0135 0.26688 0.21547 0.56152 0.48146 0.57651 0.91702 0.0517zm3.6989-0.52277c0.34178-0.3638 0.56188-0.66146 0.48912-0.66146-0.0728 0-0.41193 0.29766-0.7537 0.66146-0.34178 0.3638-0.56188 0.66146-0.48912 0.66146 0.0728 0 0.41193-0.29766 0.7537-0.66146zm16.79-0.67974c-0.0837-0.13546-0.52619-0.2463-0.98327-0.2463-0.87755 0-0.74458 0.39016 0.20082 0.58923 0.64707 0.13625 0.98663-0.0126 0.78245-0.34293zm-4.4866 0.0183c0.0899-0.14552 0.0374-0.26458-0.11668-0.26458-0.15411 0-0.2802 0.11906-0.2802 0.26458s0.0525 0.26459 0.11668 0.26459c0.0642 0 0.19026-0.11907 0.2802-0.26459zm6.5929-0.42518c0.53092-0.20373 0.54559-0.63315 0.0216-0.63315-0.21828 0-0.39687 0.11033-0.39687 0.24518s-0.20836 0.29964-0.46302 0.36618c-0.40801 0.10663-0.41058 0.12465-0.0216 0.1517 0.24276 0.0169 0.62972-0.0416 0.8599-0.12991zm11.663-0.36857c0.0899-0.14552 0.0374-0.26458-0.11668-0.26458-0.15411 0-0.2802 0.11906-0.2802 0.26458s0.0525 0.26459 0.11668 0.26459c0.0642 0 0.19026-0.11907 0.2802-0.26459zm3.7635-0.97137c0.0656-0.19714-0.0949-0.25812-0.44109-0.16757-0.29935 0.0783-0.54428 0.25623-0.54428 0.39545 0 0.35126 0.85867 0.15268 0.98537-0.22788zm18.769-1.2114c-0.0734-0.1819-0.13346-0.0331-0.13346 0.33073 0 0.3638 0.0601 0.51263 0.13346 0.33073 0.0734-0.1819 0.0734-0.47956 0-0.66146zm10.408-3.1088c0-0.14553-0.11906-0.26459-0.26458-0.26459s-0.26458 0.11906-0.26458 0.26459c0 0.14552 0.11906 0.26458 0.26458 0.26458s0.26458-0.11906 0.26458-0.26458zm-1.0583-5.4084c0-0.0642-0.11906-0.19026-0.26458-0.2802-0.14552-0.0899-0.26459-0.0374-0.26459 0.11668 0 0.15411 0.11907 0.2802 0.26459 0.2802s0.26458-0.0525 0.26458-0.11668zm0.0662-2.969c-0.18191-0.0734-0.47956-0.0734-0.66146 0s-0.0331 0.13346 0.33073 0.13346c0.3638 0 0.51263-0.0601 0.33073-0.13346zm-0.33073-7.2331c0-0.14552-0.18562-0.26459-0.41249-0.26459s-0.33891 0.11907-0.24897 0.26459c0.0899 0.14552 0.27556 0.26458 0.41249 0.26458s0.24897-0.11906 0.24897-0.26458zm-189.44-0.11668c0-0.27926-0.50777-0.39658-0.65879-0.15222-0.0914 0.14789 0.0194 0.2689 0.2463 0.2689 0.22687 0 0.41249-0.0525 0.41249-0.11668zm-0.61301-1.5204c-0.0845-0.21107-0.14716-0.14837-0.15986 0.15985-0.0115 0.27892 0.051 0.43519 0.13897 0.34727 0.0879-0.0879 0.0973-0.31613 0.0209-0.50712zm189.29-4.7869c-0.41111-0.41111-0.64179-0.0682-0.42135 0.62633 0.17173 0.54108 0.21045 0.55202 0.44845 0.12674 0.17563-0.31383 0.1668-0.55917-0.0271-0.75307zm0.4496-1.9972c0.055-0.37345-0.0554-0.57459-0.31511-0.57459-0.50616 0-0.79176 0.43843-0.4309 0.66146 0.15027 0.0929 0.19517 0.29514 0.0998 0.44948-0.0995 0.16108-0.0168 0.229 0.19412 0.15943 0.20216-0.0667 0.40561-0.37975 0.45211-0.69578zm-190.42-1.0148c0.32927-0.39915 0.30762-0.41062-0.23219-0.12298-0.61567 0.32806-0.76727 0.56317-0.36312 0.56317 0.1277 0 0.39559-0.19808 0.59531-0.44019zm190.2-1.5286c0-0.0642-0.11906-0.19026-0.26458-0.28019-0.14552-0.0899-0.26459-0.0374-0.26459 0.11667 0 0.15411 0.11907 0.2802 0.26459 0.2802s0.26458-0.0525 0.26458-0.11668zm0.0338-1.6464c0.32927-0.39915 0.30762-0.41062-0.23219-0.12298-0.61567 0.32806-0.76727 0.56317-0.36312 0.56317 0.1277 0 0.39559-0.19808 0.59531-0.44019zm-186.76-2.3809c-0.1819-0.0734-0.47956-0.0734-0.66146 0s-0.0331 0.13345 0.33073 0.13345c0.3638 0 0.51263-0.06 0.33073-0.13345zm17.661-0.61852c0.29461-0.19039 0.13718-0.25752-0.61093-0.26053-0.60536-2e-3 -0.94251 0.1016-0.84428 0.26053 0.20667 0.3344 0.93777 0.3344 1.4552 0zm168.15-1.0394c-0.17678-0.8049-0.93019-1.1595-0.93019-0.43785 0 0.20616-0.14883 0.4456-0.33073 0.5321s-0.0497 0.10413 0.29383 0.0392c0.45781-0.0866 0.66104 0.0214 0.76121 0.40444 0.21882 0.83678 0.40245 0.35708 0.20588-0.53786zm-164.71 0.24566c0-0.14552-0.0525-0.26458-0.11668-0.26458-0.0642 0-0.19026 0.11906-0.28019 0.26458-0.0899 0.14552-0.0374 0.26458 0.11667 0.26458 0.15411 0 0.2802-0.11906 0.2802-0.26458zm9.9219-0.26458c0.26339-0.29104 0.41935-0.52917 0.34659-0.52917-0.0728 0-0.34779 0.23813-0.61118 0.52917s-0.41936 0.52916-0.3466 0.52916c0.0728 0 0.3478-0.23812 0.61119-0.52916zm1.9337-0.0199c-0.0522-0.15643-0.20792-0.28442-0.34616-0.28442-0.13825 0-0.29402 0.12799-0.34617 0.28442-0.0521 0.15644 0.10363 0.28443 0.34617 0.28443 0.24253 0 0.3983-0.12799 0.34616-0.28443zm2.0585-0.971c-0.28903-0.28903-0.48722 0.17062-0.27971 0.64871 0.19677 0.45333 0.21103 0.45291 0.32066-9e-3 0.0631-0.26605 0.0447-0.55379-0.041-0.63941zm4.6068 0.46168c0-0.14552-0.12609-0.26458-0.28019-0.26458-0.15411 0-0.20662 0.11906-0.11668 0.26458 0.0899 0.14552 0.21603 0.26458 0.2802 0.26458 0.0642 0 0.11667-0.11906 0.11667-0.26458zm16.14-1.119c0-0.15486-0.16812-0.12914-0.39688 0.0607-0.21828 0.18115-0.39687 0.37059-0.39687 0.42097 0 0.0504 0.17859 0.0231 0.39687-0.0607s0.39688-0.2732 0.39688-0.42097zm3.175 0.30968c0-0.15411-0.12708-0.20166-0.28239-0.10567-0.1555 0.0961-0.34771-0.0752-0.42774-0.38126-0.0799-0.30569-0.3308-0.55579-0.55748-0.55579-0.31732 0-0.26917 0.15217 0.20927 0.66146 0.65789 0.70029 1.0583 0.84454 1.0583 0.38126zm2.6458 0.0156c0-0.14552-0.24515-0.26458-0.54478-0.26458s-0.4712 0.11906-0.38126 0.26458c0.0899 0.14552 0.33509 0.26458 0.54478 0.26458s0.38126-0.11906 0.38126-0.26458zm-9.2604-0.52917c0-0.14552-0.0525-0.26458-0.11667-0.26458-0.0642 0-0.19026 0.11906-0.2802 0.26458-0.0899 0.14552-0.0374 0.26459 0.11668 0.26459 0.1541 0 0.28019-0.11907 0.28019-0.26459zm12.965 0c0-0.14552-0.18562-0.26458-0.41249-0.26458s-0.33891 0.11906-0.24897 0.26458c0.0899 0.14552 0.27556 0.26459 0.41249 0.26459s0.24897-0.11907 0.24897-0.26459zm3.175 0c0-0.14552-0.0525-0.26458-0.11668-0.26458-0.0642 0-0.19026 0.11906-0.2802 0.26458-0.0899 0.14552-0.0374 0.26459 0.11668 0.26459 0.15411 0 0.2802-0.11907 0.2802-0.26459zm5.2917 0c0-0.14552-0.11906-0.26458-0.26458-0.26458s-0.26458 0.11906-0.26458 0.26458 0.11906 0.26459 0.26458 0.26459 0.26458-0.11907 0.26458-0.26459zm-2.3559-0.54718c0.42264-0.30095 0.76844-0.6612 0.76844-0.80054 0-0.37336-1.4969 0.46543-1.6794 0.94106-0.2087 0.54386-6e-3 0.51264 0.91098-0.14052zm1.4408 0.265c0.28477-0.46076-0.0396-0.55834-0.40244-0.12108-0.20869 0.25145-0.22877 0.40326-0.0533 0.40326 0.15475 0 0.35984-0.12698 0.45576-0.28218zm7.7105-0.56118c-0.0845-0.21106-0.14716-0.14837-0.15985 0.15986-0.0115 0.27891 0.051 0.43518 0.13896 0.34726 0.0879-0.0879 0.0973-0.31612 0.0209-0.50712zm2.2005 0.0496c0.15576-0.29104 0.22367-0.52916 0.15091-0.52916-0.0728 0-0.25973 0.23812-0.4155 0.52916-0.15576 0.29105-0.22367 0.52917-0.15091 0.52917 0.0728 0 0.25974-0.23812 0.4155-0.52917zm-16.14-0.11667c0-0.0642-0.11906-0.19026-0.26458-0.2802-0.14552-0.0899-0.26458-0.0374-0.26458 0.11668 0 0.1541 0.11906 0.28019 0.26458 0.28019s0.26458-0.0525 0.26458-0.11667zm29.255-1.0789c-0.76173-0.82194-0.94461-0.82454-0.94461-0.0134 0 0.46141 0.16816 0.67077 0.59531 0.74117 0.92637 0.15268 1.0079-0.0171 0.3493-0.72773zm90.204 0.66642c0.0899-0.14552 0.0374-0.26459-0.11667-0.26459-0.15411 0-0.2802 0.11907-0.2802 0.26459s0.0525 0.26458 0.11667 0.26458c0.0642 0 0.19026-0.11906 0.2802-0.26458zm-86.386-0.38126c0-0.0642-0.11906-0.19026-0.26458-0.2802-0.14552-0.0899-0.26458-0.0374-0.26458 0.11668 0 0.1541 0.11906 0.28019 0.26458 0.28019s0.26458-0.0525 0.26458-0.11667zm-1.8521-0.5604c0-0.22687-0.11906-0.3389-0.26458-0.24897-0.14553 0.0899-0.26459 0.27556-0.26459 0.41249s0.11906 0.24897 0.26459 0.24897c0.14552 0 0.26458-0.18562 0.26458-0.41249zm17.33-0.11668c0.46709-0.51613 0.46213-0.52916-0.20153-0.52916-0.37423 0-0.7201-0.10816-0.76861-0.24035-0.14076-0.38359-1.0802-0.45392-1.2073-0.0904-0.0731 0.20908 0.13578 0.33073 0.56787 0.33073 0.50712 0 0.68351 0.13656 0.68351 0.52916 0 0.29105 0.10061 0.52917 0.22357 0.52917 0.12297 0 0.43908-0.23812 0.70247-0.52917zm-26.326 0c0-0.14552-0.12608-0.26458-0.28019-0.26458s-0.20662 0.11906-0.11668 0.26458c0.0899 0.14552 0.21603 0.26459 0.2802 0.26459 0.0642 0 0.11667-0.11907 0.11667-0.26459zm31.87-0.30705c0.37065-0.16888 0.67391-0.52607 0.67391-0.79375 0-0.65391-0.5434-0.62173-0.71709 0.0425-0.0907 0.34696-0.3609 0.52917-0.7846 0.52917-0.36343 0-0.57466 0.11578-0.48269 0.26458 0.21167 0.34249 0.48501 0.33364 1.3105-0.0425zm-20.228-0.3544c0-0.21829-0.0468-0.39688-0.10398-0.39688-0.0572 0-0.17252 0.17859-0.25628 0.39688-0.0838 0.21828-0.037 0.39687 0.10398 0.39687 0.14096 0 0.25628-0.17859 0.25628-0.39687zm4.7625-0.16353c0-0.14552-0.11906-0.19099-0.26458-0.10106-0.14552 0.0899-0.26458 0.28259-0.26458 0.42811s0.11906 0.191 0.26458 0.10106c0.14552-0.0899 0.26458-0.28259 0.26458-0.42811zm1.8521 0.29582c0-0.14552-0.11907-0.26459-0.26459-0.26459s-0.26458 0.11907-0.26458 0.26459 0.11906 0.26458 0.26458 0.26458 0.26459-0.11906 0.26459-0.26458zm4.7625-0.85855c0-0.14759-0.17549-0.11894-0.39688 0.0648-0.21828 0.18115-0.39687 0.44844-0.39687 0.59396 0 0.14759 0.17548 0.11894 0.39687-0.0648 0.21828-0.18115 0.39688-0.44844 0.39688-0.59396zm15.875 0.27646c0-0.42741-0.0782-0.50384-0.29445-0.28763-0.16194 0.16194-0.21445 0.42388-0.11668 0.58208 0.27369 0.44283 0.41113 0.34439 0.41113-0.29445zm-2.9104-0.21166c0-0.29398-0.17639-0.52917-0.39688-0.52917-0.48351 0-0.50042 0.16931-0.0661 0.66256 0.43592 0.49512 0.46302 0.48731 0.46302-0.13339zm4.7625 0.1479c0-0.0642-0.11906-0.19026-0.26458-0.28019-0.14553-0.0899-0.26459-0.0374-0.26459 0.11667 0 0.15411 0.11906 0.2802 0.26459 0.2802 0.14552 0 0.26458-0.0525 0.26458-0.11668zm3.5498-0.31806c0.25001-0.65152 0.0342-0.69252-0.50561-0.096-0.40602 0.44865-0.41698 0.53079-0.0708 0.53079 0.22527 0 0.48465-0.19563 0.5764-0.43474zm11.267-0.88818c0-0.14552-0.0525-0.26458-0.11668-0.26458-0.0642 0-0.19026 0.11906-0.2802 0.26458-0.0899 0.14552-0.0374 0.26459 0.11668 0.26459 0.15411 0 0.2802-0.11907 0.2802-0.26459zm4.7625 0c0-0.14552-0.11204-0.26458-0.24897-0.26458s-0.32256 0.11906-0.41249 0.26458c-0.0899 0.14552 0.0221 0.26459 0.24897 0.26459 0.22686 0 0.41249-0.11907 0.41249-0.26459zm2.2574-0.54282c0.25249-0.40852-0.36445-0.51857-0.74936-0.13367-0.21269 0.21269-0.4795 0.30308-0.59291 0.20087-0.11342-0.10221-0.12748-0.0482-0.0312 0.12006 0.1819 0.31799 1.1422 0.18707 1.3735-0.18726zm1.9759-0.51551c0-0.14552-0.0525-0.26458-0.11668-0.26458-0.0642 0-0.19026 0.11906-0.2802 0.26458-0.0899 0.14552-0.0374 0.26458 0.11668 0.26458 0.15411 0 0.2802-0.11906 0.2802-0.26458zm13.967-0.7276c-0.35998-0.43521-0.91108-0.42147-1.0832 0.027-0.0966 0.25177 0.084 0.34973 0.60973 0.33073 0.56558-0.0204 0.68056-0.10732 0.47344-0.35772zm15.595-0.75517c-0.0879-0.0879-0.31613-0.0973-0.50712-0.0209-0.21107 0.0845-0.14838 0.14716 0.15985 0.15985 0.27891 0.0115 0.43518-0.051 0.34727-0.13896z"/><path d="m-298.62 477.27c-0.31068-1.5111-2.8-42.9-2.8104-46.728-2e-3 -0.86044 0.10433-0.88538 5.422-1.2676 7.9311-0.57008 14.365-0.80269 15.045-0.54397 0.37324 0.14191 0.74071 0.15755 0.8166 0.0348 0.24825-0.40168 7.9498-0.94456 34.012-2.3975 7.9309-0.44214 18.111-1.0396 22.622-1.3278 4.5112-0.28815 11.595-0.70681 15.743-0.93036 8.7601-0.47218 31.263-1.8008 40.084-2.3666 3.347-0.2147 8.169-0.51288 10.716-0.66262 2.5466-0.14975 5.4934-0.34612 6.5484-0.43638 1.6223-0.13878 1.9182-0.1012 1.9182 0.24358 0 0.35838 0.0898 0.36287 0.74281 0.0371 0.81503-0.40659 2.9791-0.58656 18.969-1.5775 5.8208-0.36075 12.715-0.79299 15.321-0.96052 5.4883-0.35291 5.2686-0.43864 5.5405 2.1622 0.0918 0.87812 0.52833 7.695 0.97012 15.149 0.44178 7.4536 0.97787 16.29 1.1913 19.637s0.38921 7.2377 0.39061 8.6461l3e-3 2.5606-1.3891 0.15599c-1.2364 0.13886-13.785 0.91144-34.617 2.1313-3.8686 0.22652-7.9762 0.38977-9.1281 0.36276-1.1519-0.027-2.3325 0.0249-2.6235 0.11529-0.64499 0.20036-8.3614 0.77894-20.327 1.5241-8.3437 0.51961-8.9824 0.5276-9.4349 0.11807-0.45245-0.40946-0.50231-0.40903-0.73481 6e-3 -0.21793 0.38941-1.7572 0.53996-12.189 1.1921-6.5666 0.41053-15.067 0.87542-18.891 1.0331-3.8232 0.15767-8.0229 0.4068-9.3326 0.55362s-5.6555 0.44287-9.6573 0.6579c-4.0018 0.21503-9.8359 0.55528-12.965 0.7561-5.9489 0.38185-7.4603 0.33306-8.3271-0.26877-0.28704-0.19931-0.82282-0.35483-1.1906-0.3456l-0.66874 0.0168 0.63373 0.2535c0.34855 0.13942 0.5746 0.31262 0.50233 0.38489-0.0723 0.0723-1.1313 0.24961-2.3535 0.39411-2.9134 0.34444-30.036 2.0755-35.86 2.2887l-4.5341 0.166-0.15793-0.76819zm6.0298-1.0724c0.0835-0.21757 9e-3 -0.65485-0.1664-0.97173-0.30903-0.55952-0.32127-0.56087-0.4244-0.047-0.0584 0.29105-0.22269 0.67278-0.36508 0.84831s-0.1853 0.43822-0.0953 0.58376c0.21325 0.34504 0.8574 0.0917 1.0512-0.41336zm1.0608-0.77302c0.51449-0.51449 0.53493-0.90714 0.0472-0.90714-0.34667 0-0.68977 0.53718-0.68977 1.08 0 0.34715 0.16768 0.30205 0.64256-0.17283zm-2.4946-0.26509c0-0.24639-0.18001-0.38136-0.4411-0.33072-0.66377 0.12873-0.75492 0.747-0.11011 0.747 0.32499 0 0.55121-0.17084 0.55121-0.41628zm19.579-0.0842c0-0.59134-1.2441-1.0071-1.6874-0.56383-0.20747 0.20747-0.12287 0.33105 0.30286 0.44237 0.32491 0.085 0.59075 0.25967 0.59075 0.38821 0 0.12855 0.17859 0.23373 0.39687 0.23373s0.39688-0.22522 0.39688-0.50048zm7.6729-0.97035c0-0.43658-0.41815-0.51034-0.66145-0.11667-0.21577 0.34912 0.10059 0.84457 0.41515 0.65016 0.13547-0.0837 0.2463-0.32379 0.2463-0.53349zm3.175 0.42811c0-0.31217-0.51603-0.64611-0.70555-0.45659-0.18953 0.18953 0.14442 0.70556 0.45659 0.70556 0.13693 0 0.24896-0.11204 0.24896-0.24897zm-7.2977-0.17621c0.23019-0.0883 0.41852-0.26693 0.41852-0.39688 0-0.37857-0.69888-0.27251-1.0583 0.1606-0.34918 0.42074-0.0902 0.5164 0.63982 0.23628zm10.318-0.27415c0.0918-0.23911 0.10963-0.49194 0.0397-0.56185-0.2461-0.2461-0.94368 0.19108-0.94368 0.59142 0 0.54168 0.69346 0.519 0.90396-0.0296zm2.0065-0.15977 0.92604-0.59253-0.89706-0.0875c-0.95148-0.0928-1.8153 0.47422-1.4999 0.98454 0.24995 0.40443 0.41691 0.36986 1.4709-0.30454zm3.2812-0.30416c-0.3382-0.88133-2.2228-1.0978-2.2228-0.25534 0 0.51466 0.71916 0.75154 1.1631 0.38311 0.27873-0.23132 0.39992-0.20369 0.52392 0.11946 0.0887 0.23122 0.27603 0.34951 0.41622 0.26287 0.1402-0.0867 0.19402-0.31619 0.11961-0.5101zm10.166-0.24773c0.0506-0.26108-0.0843-0.44109-0.33073-0.44109-0.24543 0-0.41627 0.22621-0.41627 0.55121 0 0.6448 0.61827 0.55366 0.747-0.11012zm-6.7359-0.715c-0.35234-0.35234-1.0214 0.37689-0.74944 0.81687 0.13222 0.21393 0.30854 0.1794 0.60675-0.11881 0.29348-0.29347 0.33655-0.5042 0.14269-0.69806zm9.2619 0.57642c0.49544-0.54745 0.27071-0.87792-0.82557-1.214-0.63638-0.1951-0.72014 0.0218-0.42854 1.1099 0.19391 0.7236 0.65856 0.76216 1.2541 0.10408zm6.7812 0.25496c0-0.12995-0.17859-0.30481-0.39687-0.38857-0.24175-0.0928-0.39688-5.3e-4 -0.39688 0.23627 0 0.21372 0.1786 0.38858 0.39688 0.38858s0.39687-0.10633 0.39687-0.23628zm-46.699-0.42202c4.3656-0.2155 9.4853-0.51521 11.377-0.66604s10.286-0.62994 18.653-1.0647c8.3674-0.43476 17.297-0.9605 19.844-1.1683 5.8299-0.47574 8.4154-0.62758 16.03-0.94137 3.3593-0.13844 7.2289-0.37133 8.599-0.51753 2.4464-0.26105 4.7122-0.4016 19.292-1.1967 4.0018-0.21825 7.7523-0.45738 8.3344-0.53141 0.58209-0.074 4.6897-0.31714 9.1281-0.54022 4.4384-0.22309 9.6681-0.52383 11.622-0.66831 2.0081-0.14852 3.6517-0.16287 3.7816-0.033 0.12985 0.12985 0.82485 0.0753 1.599-0.12552 0.75313-0.19536 2.2066-0.35506 3.2299-0.35489 1.0233 1.8e-4 4.4204-0.17413 7.5491-0.38734 8.0372-0.54772 18.054-1.1524 22.093-1.3336 4.0351-0.18106 9.5192-0.60834 10.424-0.81218l0.63487-0.14296-0.16227-4.5491c-0.2607-7.3087-1.2263-23.818-1.9358-33.098l-0.15985-2.0906-5.1944 0.15773c-4.8703 0.1479-12.379 0.58722-37.077 2.1694-5.6026 0.35891-12.33 0.77506-14.949 0.92479-15.015 0.8583-50.614 2.9516-54.107 3.1817-20.682 1.3622-33.639 1.8659-34.612 1.3455-0.47373-0.25353-0.57771-0.23823-0.57771 0.085 0 0.56605-0.4828 0.61689-12.832 1.3512-6.1119 0.36343-13.732 0.83757-16.933 1.0536-3.2015 0.21606-6.2257 0.39323-6.7205 0.3937l-0.89966 8e-4 0.16854 2.5797c0.0927 1.4188 0.5834 9.6044 1.0905 18.19 0.90303 15.29 1.1424 18.584 1.3798 18.984 0.16923 0.28506 2.3683 0.24717 11.331-0.19527zm4.4081-8.0068c-0.1324-0.25466-0.31578-1.1179-0.40752-1.9182-0.2358-2.0573-1.2224-18.848-1.2224-20.804 0-1.8364 0.13169-1.9438 2.3812-1.9425l1.1906 7.9e-4 1.2991 3.1046c1.8521 4.4259 3.9046 8.793 4.1328 8.793 0.3973 0 0.43694-1.426 0.17914-6.4439-0.14535-2.8293-0.19111-5.3348-0.10169-5.5678 0.12369-0.32232 0.53623-0.4237 1.7242-0.4237h1.5616l0.1593 1.5214c0.18174 1.7356 0.89064 13.066 1.1878 18.984 0.13422 2.6733 0.10918 4.0343-0.0767 4.1696-0.15178 0.1105-0.92933 0.17003-1.7279 0.1323l-1.4519-0.0686-2.2913-5.2208c-2.5146-5.7296-3.0936-6.8466-3.6443-7.0301-0.29267-0.0976-0.3338 0.11445-0.20124 1.0371 0.0916 0.63784 0.24727 3.507 0.34584 6.3759l0.17922 5.2162-0.72038 0.27389c-1.1071 0.42092-2.2223 0.33641-2.4955-0.18914zm10.68-3.7819c0.30435-0.49245-0.45327-1.0776-1.2872-0.99411-0.9893 0.099-1.1626 0.51989-0.37463 0.91004 0.7894 0.39088 1.4515 0.42437 1.6618 0.0841zm-1.5451-2.5775c0.1728-0.10988 0.43774-0.52478 0.58876-0.922s0.44579-0.72222 0.65503-0.72222c0.3129 0 0.32725-0.14091 0.0808-0.79375-0.37084-0.98246-0.64584-1.0042-0.99762-0.079-0.14946 0.39312-0.76164 1.167-1.3604 1.7198l-1.0886 1.005 0.90392-4e-3c0.49716-2e-3 1.0453-0.0939 1.2181-0.20382zm-1.2402-2.8569c0-0.23041-0.14139-0.37179-0.31419-0.31419-0.4906 0.16353-0.57197 0.73311-0.10473 0.73311 0.2304 0 0.41892-0.18851 0.41892-0.41892zm-6.1994-5.1669c0.1-0.16179 0.0177-0.39991-0.18282-0.52916-0.29504-0.19016-0.29932-0.27721-0.0224-0.45614 0.26761-0.17294 0.22554-0.36032-0.19306-0.85989-0.45606-0.54427-0.57459-0.58005-0.80116-0.24189-0.14624 0.21828-0.26773 0.65484-0.26995 0.97014-2e-3 0.31529-0.1442 0.61997-0.31548 0.67707-0.17129 0.0571-0.22379 0.24561-0.11668 0.41892 0.24584 0.39778 1.6591 0.41335 1.9016 0.021zm2.671-1.4078c-0.0875-0.22806-0.28192-0.41466-0.43201-0.41466-0.3044 0-0.37394 0.86909-0.0921 1.1509 0.29047 0.29046 0.69826-0.28243 0.5241-0.73628zm-4.1332-3.3041c-0.1663-0.31074-0.4174-0.49389-0.558-0.407-0.14059 0.0869-0.2125 0.23906-0.15981 0.33814 0.0527 0.0991 0.17761 0.40843 0.27758 0.68742 0.12801 0.35728 0.26467 0.42435 0.46218 0.22684 0.1975-0.1975 0.19101-0.44747-0.022-0.8454zm1.1921-0.57475c0.45911-0.88781 0.37438-1.1881-0.26588-0.94244-0.24375 0.0935-0.40829 0.4799-0.40829 0.95873 0 1.0134 0.14348 1.01 0.67417-0.0163zm14.566 17.156c-0.30858-3.5202-1.2169-19.266-1.2169-21.095v-1.8039l1.8678-0.18757c1.0273-0.10317 1.9061-0.14501 1.9529-0.093 0.0977 0.10847 1.1767 16.749 1.3974 21.551l0.1471 3.2006-1.0289 0.16996c-0.56591 0.0935-1.4614 0.17127-1.99 0.17288l-0.9611 3e-3 -0.16815-1.9182zm1.5612-2.3151c0.2412-0.39028-0.0924-0.79245-0.52093-0.62801-0.20443 0.0785-0.30694 0.31137-0.2278 0.51761 0.16772 0.43708 0.51517 0.48831 0.74873 0.1104zm1.4552-1.5719c0-0.31217-0.51603-0.64611-0.70556-0.45659-0.18952 0.18953 0.14442 0.70556 0.45659 0.70556 0.13694 0 0.24897-0.11204 0.24897-0.24897zm-0.85438-1.1236c-0.16353-0.49059-0.73312-0.57196-0.73312-0.10473 0 0.23041 0.18852 0.41892 0.41892 0.41892 0.23041 0 0.3718-0.14138 0.3142-0.31419zm-0.73312-2.5092c0-0.26684-0.84322-1.1453-1.0993-1.1453-0.3562 0-0.25976 0.45519 0.1922 0.90715 0.42727 0.42728 0.90714 0.55326 0.90714 0.23817zm0-3.1141c0-0.70589-0.39352-1.1106-0.66025-0.67903-0.21502 0.3479 0.0899 1.3249 0.4135 1.3249 0.13571 0 0.24675-0.29063 0.24675-0.64584zm-0.6831-2.6898c0.41594-0.15961 0.59941-0.9031 0.22008-0.89185-0.10914 3e-3 -0.49609 0.23871-0.8599 0.52328-0.50852 0.39778-0.5594 0.51876-0.22007 0.52328 0.24276 3e-3 0.62971-0.0664 0.85989-0.15471zm0.37336-3.1076c0.0673-0.34954-0.0413-0.45812-0.3908-0.3908-0.2662 0.0513-0.52595 0.31102-0.57722 0.57722-0.0673 0.34954 0.0413 0.45811 0.3908 0.3908 0.2662-0.0513 0.52596-0.31102 0.57722-0.57722zm0.30974-1.3776c0-0.20969-0.17859-0.38126-0.39687-0.38126-0.39853 0-0.5439 0.55854-0.22768 0.87476 0.24692 0.24692 0.62455-0.0515 0.62455-0.4935zm0.66146-1.3955c0-0.47854-0.51787-0.39118-0.62058 0.10469-0.0571 0.27588 0.042 0.39684 0.26458 0.32265 0.1958-0.0653 0.356-0.25757 0.356-0.42734zm-0.70234-2.2793c0.0585-0.30163-0.0369-0.42885-0.26458-0.35302-0.1958 0.0652-0.39714 0.33075-0.44741 0.59011-0.0585 0.30163 0.0369 0.42885 0.26458 0.35302 0.1958-0.0652 0.39714-0.33075 0.44741-0.59011zm10.599 22.855c-2.1749-0.34276-3.5544-1.3688-4.3273-3.2188-0.55721-1.3336-0.52399-1.7119 0.1007-1.1465 0.56619 0.5124 1.3438 0.38984 1.9133-0.30156 0.3153-0.38278 0.27869-0.41161-0.3302-0.26003-0.41829 0.10412-0.8814 0.0267-1.1899-0.19882-0.32147-0.23507-0.61298-0.27973-0.80198-0.12288-0.21225 0.17616-0.34548-0.26392-0.46721-1.5432-0.47867-5.0307-0.68459-8.4562-0.68838-11.451-5e-3 -3.9066 0.26819-4.6416 2.2576-6.0754 1.0978-0.79123 1.5291-0.93445 3.0777-1.022 2.5632-0.14483 3.4327 0.091 4.8122 1.3053 1.4675 1.2917 2.0192 2.8492 2.0192 5.6996v1.9239l-0.99218 0.27555c-2.176 0.60431-2.5134 0.35373-2.8263-2.0996-0.24498-1.9207-0.75583-2.9203-1.8565-3.6328l-0.90665-0.58694-0.65313 0.7762c-0.84337 1.0023-1.0606 2.3752-0.85084 5.3781 0.80095 11.467 0.87184 11.899 2.0569 12.511 0.91926 0.47537 1.9311 0.30879 2.2989-0.37846 0.13986-0.26132 0.33744-1.5398 0.43907-2.8411 0.10164-1.3013 0.30288-2.5148 0.44721-2.6967 0.16165-0.20373 0.92263-0.33073 1.9818-0.33073h1.7193l-0.10978 3.2974c-0.1061 3.1869-0.13724 3.3354-0.9293 4.4318-1.3481 1.866-3.6217 2.713-6.1942 2.3076zm-2.3556-2.6025c0-0.13128 0.36612-0.36633 0.8136-0.52232s0.73811-0.40576 0.64584-0.55505c-0.24296-0.39313-0.85394-0.33364-1.601 0.15588-0.72225 0.47324-0.8734 1.1602-0.25527 1.1602 0.21828 0 0.39687-0.10741 0.39687-0.2387zm-0.26458-3.4655c0-0.65183-0.48819-0.9438-0.69163-0.41364-0.20846 0.54324 0.0851 1.2864 0.42518 1.0763 0.14655-0.0906 0.26645-0.38875 0.26645-0.66262zm-0.84107-1.3454c0.30383-0.48652 0.28826-0.54088-0.13176-0.45999-0.26196 0.0504-0.51616 0.29872-0.56489 0.55171-0.12154 0.63115 0.27807 0.57853 0.69665-0.0917zm1.1056-2.7556c0-0.21828-0.17859-0.39687-0.39687-0.39687s-0.39688 0.17859-0.39688 0.39687 0.1786 0.39688 0.39688 0.39688 0.39687-0.1786 0.39687-0.39688zm-1.0242-3.3497c-0.19478-0.51231-0.44394-0.65059-1.2115-0.67235-0.62172-0.0176-0.92976 0.0813-0.86389 0.27754 0.0563 0.1677 0.27087 0.3072 0.47682 0.30998 0.20594 3e-3 0.66476 0.2084 1.0196 0.45693 0.78198 0.54772 0.89986 0.47195 0.57896-0.3721zm1.0242-1.2805c0-0.29398-0.17639-0.52916-0.39687-0.52916-0.22049 0-0.39688 0.23518-0.39688 0.52916 0 0.29399 0.17639 0.52917 0.39688 0.52917 0.22048 0 0.39687-0.23518 0.39687-0.52917zm-1.5875-1.2127c0-0.64081-0.10719-0.9124-0.33072-0.83797-0.62168 0.20699-0.57054 1.7861 0.0578 1.7861 0.15009 0 0.27288-0.42664 0.27288-0.94809zm0.28904-1.5654c-2e-3 -0.14552-0.24633-0.30263-0.54314-0.34913-0.53212-0.0834-0.71589 0.21698-0.35411 0.57876 0.25727 0.25727 0.90151 0.0924 0.89725-0.22963zm-0.28904-1.6031c0-0.43658-0.41815-0.51034-0.66145-0.11667-0.21577 0.34912 0.10059 0.84457 0.41515 0.65016 0.13547-0.0837 0.2463-0.32379 0.2463-0.53349zm8.2021 0c0-0.20969-0.10633-0.38126-0.23628-0.38126-0.29203 0-0.57652 0.68651-0.37005 0.89299 0.2316 0.23159 0.60633-0.0847 0.60633-0.51173zm-6.6613-2.0568c0.0506-0.26108-0.0843-0.44109-0.33073-0.44109-0.24544 0-0.41628 0.22622-0.41628 0.55121 0 0.64481 0.61827 0.55366 0.74701-0.11012zm13.098 20.123c-0.2745-0.44414-1.5496-24.217-1.3117-24.455 0.10711-0.10711 1.0095-0.24079 2.0052-0.29705l1.8105-0.1023 0.18323 2.8726c0.10077 1.5799 0.26193 3.8846 0.35812 5.1215l0.17489 2.249 1.4411 0.0818c0.79258 0.045 1.7328 9e-3 2.0894-0.081l0.64838-0.16273-0.1743-4.8138c-0.10573-2.9199-0.0751-4.9662 0.0778-5.2012 0.16942-0.26029 0.86475-0.42196 2.1198-0.49288l1.8676-0.10553 4e-3 2.345c2e-3 1.2897 0.17958 4.7262 0.3945 7.6366 0.21492 2.9104 0.4694 7.4459 0.56552 10.079l0.17476 4.7872-1.2261 0.16806c-0.67436 0.0924-1.5677 0.0997-1.9852 0.0163l-0.75905-0.15181-0.16707-3.0836c-0.15005-2.7698-0.49595-5.4417-0.87017-6.7217-0.11195-0.38293-0.44993-0.46302-1.954-0.46302-1.0002 0-1.8719 0.0893-1.9369 0.19844-0.0651 0.10914-4e-3 2.5015 0.13601 5.3164 0.13985 2.8149 0.21582 5.1498 0.16881 5.1886-0.047 0.0388-0.88513 0.14189-1.8625 0.22903-1.2431 0.11083-1.8357 0.0634-1.9724-0.15778zm9.9785-10.462c-0.39944-0.13314-1.1017 0.48006-0.90827 0.79307 0.0872 0.14109 0.38573 0.0436 0.67885-0.22165 0.30931-0.27992 0.4031-0.51352 0.22942-0.57142zm-4.7443-2.068c0.1707-0.20568 0.24673-0.43759 0.16897-0.51536-0.22709-0.22709-2.1035 0.6484-1.9437 0.90691 0.20137 0.32582 1.3986 0.0617 1.7748-0.39155zm-4.034-0.24239c0.0836-0.43156 0.039-0.45099-0.33073-0.14411-0.50569 0.41968-0.56865 0.91021-0.0967 0.75305 0.1819-0.0606 0.37423-0.33459 0.4274-0.60894zm7.7748 0.17765c0.34818 0.19485 0.46286 0.1628 0.46286-0.12936 0-0.21361 0.0723-0.57671 0.1606-0.80689 0.12088-0.31502-8e-3 -0.41852-0.52237-0.41852-0.4887 0-0.7978 0.22205-1.0866 0.78061-0.52878 1.0226-0.51034 1.25 0.0595 0.73431 0.33496-0.30313 0.59132-0.34747 0.92604-0.16015zm-7.0029-2.1046c0.079-0.23984-0.0773-0.32465-0.48771-0.26458-0.33224 0.0486-0.65641 0.24726-0.7204 0.4414-0.079 0.23985 0.0773 0.32466 0.48772 0.26459 0.33223-0.0486 0.65641-0.24726 0.72039-0.44141zm8.5814-0.62155c-0.40416-0.40416-0.70237-0.10594-0.47822 0.47821 0.13236 0.34491 0.2471 0.37908 0.48248 0.1437s0.23437-0.38328-4e-3 -0.62191zm-2.0076-0.93166c-0.21809-0.21809-0.96012 0.13125-0.96012 0.452 0 0.19568 0.1692 0.19165 0.55183-0.0131 0.30351-0.16243 0.48724-0.35992 0.40829-0.43887zm1.9503-0.29663c0-0.38062-1.2604-1.4196-1.4163-1.1675-0.20911 0.33835 0.57275 1.3859 1.0344 1.3859 0.21003 0 0.38187-0.0983 0.38187-0.21846zm-1.8381-0.70758c-0.0207-0.39272-0.61267-0.32057-0.75 0.0914-0.0742 0.22255 0.0468 0.32173 0.32266 0.26459 0.24272-0.0503 0.43503-0.21048 0.42734-0.356zm0.873-1.4534c-0.31253-0.1261-0.65056-0.36246-0.75116-0.52524-0.13403-0.21687-0.28192-0.21381-0.55333 0.0114-0.56121 0.46576-0.19233 0.77854 0.89615 0.75984 0.81921-0.0141 0.88501-0.0537 0.40834-0.24604zm0.65016-1.7877c-0.1074-0.5577-0.57697-0.52253-0.69664 0.0522-0.0499 0.23971 0.0959 0.41085 0.35013 0.41085 0.27251 0 0.40228-0.1734 0.34651-0.46302zm-1.1801-0.45454c0.1814-0.47273-0.16623-0.72654-0.70955-0.51805-0.70924 0.27216-0.75426 0.90645-0.0643 0.90645 0.34367 0 0.69191-0.17478 0.77389-0.3884zm1.0982-1.4637c0-0.48879-0.88104-0.68-1.2827-0.27837-0.22416 0.22416-0.20024 0.36468 0.0943 0.55364 0.54109 0.34719 1.1884 0.19725 1.1884-0.27527zm-1.4412-1.1906c-0.0207-0.39272-0.61267-0.32057-0.75 0.0914-0.0742 0.22255 0.0468 0.32173 0.32266 0.26459 0.24272-0.0503 0.43503-0.21048 0.42734-0.356zm10.476 21.497c-0.0894-0.61847-0.24335-3.7205-0.34199-6.8934-0.15213-4.8935-0.1227-5.7567 0.19395-5.6885 0.20531 0.0442 0.37329-0.0983 0.37329-0.31654 0-0.21828-0.1389-0.39688-0.30868-0.39688-0.5575 0-0.64017-0.30316-0.87176-3.1966-0.26898-3.3606-0.41309-3.5503-2.6973-3.5503-1.7594 0-2.0754-0.3189-2.0754-2.0942 0-1.3229-0.40441-1.226 6.8371-1.6385 6.4257-0.36598 6.1776-0.43752 6.064 1.7483l-0.0688 1.3229-2.0505 0.0773c-2.0338 0.0767-2.0505 0.0831-2.0505 0.79375 4e-5 0.39407 0.17031 3.6335 0.37837 7.1988 0.20807 3.5653 0.45268 8.1194 0.54359 10.12l0.16529 3.638h-3.928zm2.152-5.4492c0.0758-0.22771-0.0514-0.32306-0.35303-0.26458-0.25936 0.0503-0.52491 0.25161-0.59011 0.44741-0.0758 0.22771 0.0514 0.32305 0.35303 0.26458 0.25936-0.0503 0.52491-0.25161 0.59011-0.44741zm-0.15407-3.2688c-0.24694-0.24694-0.38805-0.24694-0.635 0-0.24694 0.24695-0.17639 0.3175 0.3175 0.3175s0.56445-0.0706 0.3175-0.3175zm-0.3175-9.8846c0-0.43658-0.41816-0.51034-0.66146-0.11668-0.21577 0.34913 0.1006 0.84457 0.41516 0.65016 0.13546-0.0837 0.2463-0.32379 0.2463-0.53348zm1.6069-2.4979c0.58696 0 0.77435-0.12282 0.77435-0.50752 0-0.27914 0.0776-0.70971 0.17241-0.95683 0.14886-0.38791 0.0947-0.40767-0.39687-0.14462-0.31311 0.16757-0.57735 0.50884-0.5872 0.75839-0.0139 0.35132-0.0827 0.31936-0.30501-0.1416-0.36485-0.75651-0.50079-0.74713-1.2846 0.0886l-0.64144 0.68393 0.66146 0.5375c0.57797 0.46965 0.67226 0.48352 0.747 0.10981 0.0554-0.27694 0.35847-0.42768 0.8599-0.42768zm-3.4061-0.3175c-0.24694-0.24694-0.3175-0.17639-0.3175 0.3175s0.0706 0.56445 0.3175 0.3175c0.24695-0.24694 0.24695-0.38805 0-0.635zm-2.9687-0.22166c-0.30157-0.56348-1.3176-1.2025-1.3176-0.82874 0 0.13101 0.24766 0.55306 0.55036 0.93787 0.61523 0.78215 1.1997 0.69901 0.76721-0.10913zm4.4383-0.98102c0.0663-0.2019-0.13073-0.32434-0.50872-0.31608-0.33933 7e-3 -0.94439-0.0665-1.3446-0.16431-0.55468-0.13553-0.72761-0.0814-0.72761 0.22789 0 0.22312 0.14883 0.46855 0.33073 0.5454 0.58779 0.24834 2.1387 0.0465 2.2502-0.2929zm19.561 22.123c-0.22076-0.34469-1.5424-5.6273-2.9369-11.739-1.3945-6.1119-2.5936-11.365-2.6645-11.674-0.10939-0.47602 0.0212-0.58608 0.8597-0.72469 2.0337-0.33618 2.6219-0.22444 2.9391 0.55835 0.16215 0.40018 0.70942 2.8112 1.2162 5.3578 1.1112 5.5846 1.6939 7.6714 1.9909 7.1306 0.22569-0.41103 0.54054-2.7912 1.205-9.1093 0.24253-2.3061 0.54605-4.043 0.72593-4.1542 0.17003-0.10508 0.77093-0.26907 1.3353-0.36443 1.3445-0.22715 1.6945 0.14383 2.1586 2.2879 1.9846 9.1697 2.4707 11.089 2.8091 11.089 0.30511 0 0.43718-1.0698 0.89823-7.276 0.22702-3.0559 0.47178-5.7504 0.5439-5.9878 0.1444-0.47517 1.2009-0.75912 2.8244-0.75912h1.0553l-0.15619 1.1245c-0.0859 0.61847-0.63964 5.7679-1.2305 11.443-0.59088 5.6753-1.1625 10.795-1.2703 11.377l-0.19599 1.0583-1.6462 0.0788c-1.501 0.0718-1.6697 0.0252-1.9126-0.52917-0.14653-0.33436-0.80111-2.9667-1.4546-5.8496-1.2092-5.3343-1.591-6.5025-1.993-6.0977-0.21742 0.21895-0.70735 3.8325-1.3038 9.6162-0.1702 1.6505-0.43344 2.922-0.64968 3.1383-0.19996 0.19996-0.8996 0.42397-1.5548 0.49782-1.041 0.11733-1.2418 0.0552-1.5926-0.49245zm1.0608-3.84c0.10231-0.26662-0.0235-0.57441-0.32481-0.79474-0.64823-0.474-1.0596-0.0598-0.66773 0.6723 0.35761 0.6682 0.76388 0.71832 0.99254 0.12244zm9.5291 5e-3c0.12916-0.38795-0.53485-0.63933-0.97319-0.36842-0.18735 0.11578-0.25475 0.34948-0.14978 0.51933 0.22871 0.37005 0.98329 0.26865 1.123-0.15091zm-7.596-0.51766c0-0.46723-0.56958-0.38586-0.73311 0.10473-0.0576 0.17281 0.0838 0.31419 0.31419 0.31419 0.23041 0 0.41892-0.18851 0.41892-0.41892zm-1.2981-0.98501c-0.20948-0.20948-0.38074-0.19679-0.62013 0.0459-0.2651 0.26878-0.22573 0.41316 0.19844 0.72764 0.47323 0.35085 0.53878 0.34599 0.62013-0.0459 0.05-0.24103-0.0393-0.56846-0.19844-0.72763zm-0.61388-0.67012c0.25742-0.16336 0.21055-0.32828-0.19843-0.69841-0.29448-0.2665-0.53542-0.64469-0.53542-0.84042 0-0.19572-0.18154-0.35587-0.40343-0.35587-0.45335 0-1.0133 1.226-0.8063 1.7654 0.14781 0.38519 1.4083 0.46903 1.9436 0.12928zm1.6474-0.15929c0-0.42138-0.48005-0.81438-0.71175-0.58268-0.21766 0.21765 0.12211 0.96394 0.43886 0.96394 0.15009 0 0.27289-0.17156 0.27289-0.38126zm-2.893-2.2739c0.28664-0.15341 0.51177-0.55184 0.51177-0.90574 0-0.71334-1.1824-2.26-1.7277-2.26-0.45586 0-0.79693 0.5348-0.4829 0.75718 0.13115 0.0929 0.42825 0.46797 0.66023 0.83355 0.35929 0.5662 0.36733 0.71557 0.0542 1.008-0.70326 0.65694 0.0286 1.0784 0.98437 0.56691zm11.889-0.6742c0-0.46723-0.56958-0.38586-0.73311 0.10473-0.0576 0.17281 0.0838 0.31419 0.31419 0.31419 0.23041 0 0.41892-0.18851 0.41892-0.41892zm-3.175-1.0039c0-0.20046-0.17859-0.51269-0.39687-0.69385-0.32977-0.27369-0.39688-0.24188-0.39688 0.18809 0 0.2846 0.0794 0.59684 0.17639 0.69385 0.29549 0.29549 0.61736 0.19743 0.61736-0.18809zm-5.2917-1.8689c0-0.35522-0.11907-0.71943-0.26459-0.80937-0.15436-0.0954-0.26458 0.17364-0.26458 0.64585 0 0.44515 0.11906 0.80936 0.26458 0.80936s0.26459-0.29063 0.26459-0.64584zm9.3133-0.72999c-0.24694-0.24695-0.38806-0.24695-0.635 0-0.24694 0.24694-0.17639 0.3175 0.3175 0.3175s0.56444-0.0706 0.3175-0.3175zm-13.018-0.72522c0-0.35729-0.48232-0.60497-0.79807-0.40982-0.14789 0.0914-0.2004 0.27702-0.11667 0.41249 0.19861 0.32136 0.91474 0.31928 0.91474-3e-3zm12.435-1.3061c0-0.1277-0.168-0.3716-0.37332-0.54201-0.41463-0.34411-0.8387 0.0469-0.55273 0.50962 0.2015 0.32602 0.92605 0.35137 0.92605 0.0324zm-8.5273-1.0411c0.0576-0.1728-0.0838-0.31419-0.31419-0.31419-0.23041 0-0.41892 0.18852-0.41892 0.41892 0 0.46724 0.56958 0.38587 0.73311-0.10473zm1.5158-1.3762c0-0.56713-0.7688-0.48522-0.8803 0.0938-0.0681 0.35359 0.0397 0.46135 0.39325 0.39325 0.26787-0.0516 0.48705-0.27076 0.48705-0.48705zm1.4552-0.26096c0-0.35277-0.17639-0.52916-0.52917-0.52916-0.5099 0-0.717 0.51773-0.35278 0.88194 0.36422 0.36422 0.88195 0.15713 0.88195-0.35278zm-1.3229-1.4708c0-0.20969-0.1786-0.38126-0.39688-0.38126-0.39852 0-0.5439 0.55853-0.22768 0.87475 0.24692 0.24692 0.62456-0.0515 0.62456-0.49349zm13.656 16.618c-0.085-0.83674-0.27594-3.5454-0.42432-6.0193s-0.44772-7.1937-0.66519-10.489c-0.21748-3.2948-0.39541-6.1821-0.39541-6.4161 0-0.35554 0.34821-0.42554 2.1167-0.42554h2.1167v0.72521c0 0.39886 0.13723 2.9755 0.30497 5.7258 0.21894 3.5899 0.22429 5.1298 0.019 5.4586-0.1573 0.25189-0.18514 0.56256-0.0619 0.69037 0.45615 0.47294 1.2341 10.086 0.9287 11.477-0.17311 0.7881-0.18873 0.79438-1.9796 0.79438h-1.8051zm1.3278-2.8496c-0.0897-0.23378-0.28879-0.34738-0.44241-0.25244-0.19181 0.11855-0.18058 0.29157 0.0358 0.55233 0.38444 0.46323 0.62993 0.28217 0.40657-0.29989zm-0.69601-5.6832c0-0.29104-0.11204-0.52917-0.24897-0.52917-0.35516 0-0.60542 0.48158-0.41249 0.79375 0.27652 0.44742 0.66146 0.29345 0.66146-0.26458zm0.48555-2.7273c-0.20032-0.37431-0.34949-0.45896-0.42255-0.2398-0.1657 0.49711 0.15489 1.1751 0.46501 0.98346 0.17612-0.10884 0.16165-0.36228-0.0425-0.74366zm0.76077-2.5641c-0.0761-0.2909-0.0304-0.59558 0.10143-0.67708 0.13186-0.0815 0.23975-0.26021 0.23975-0.39714 0-0.39098-0.69396-0.29113-1.0624 0.15287-0.27292 0.32885-0.24733 0.49706 0.1409 0.92604 0.60088 0.66397 0.75491 0.66272 0.58037-5e-3zm-0.36398-1.6317c0.34407-0.5464-0.17986-1.279-0.91474-1.279-0.67839 0-0.62786 0.4519 0.0755 0.67514 0.50696 0.16091 0.52206 0.20973 0.13229 0.42785-0.24199 0.13543-0.43997 0.3681-0.43997 0.51706 0 0.40843 0.83047 0.16145 1.1469-0.3411zm-0.0765-6.0641c0.16243-0.3035 0.23128-0.61587 0.15301-0.69414-0.24747-0.24747-0.91312 0.13691-1.2155 0.70186-0.24874 0.46479-0.21405 0.54411 0.23797 0.54411 0.29104 0 0.66206-0.24832 0.8245-0.55183zm9.0226 18.08c-0.33926-4.8395-0.40476-9.516-0.12942-9.2407 0.28479 0.28479 0.88424-0.37195 0.88424-0.96874 0-0.52341-0.0247-0.52875-0.45502-0.0984-0.43031 0.43031-0.4725 0.37232-0.77677-1.0678-0.17695-0.83755-0.331-2.1181-0.34233-2.8457-0.0388-2.4936-0.0578-2.5135-2.395-2.5135h-2.0553l-0.18632-1.4912c-0.13637-1.0915-0.0957-1.5472 0.15189-1.7002 0.18601-0.11495 1.3575-0.28407 2.6032-0.37579 1.2458-0.0917 3.9495-0.30997 6.0084-0.48498l3.7434-0.3182 0.1747 1.5442c0.11724 1.0362 0.0719 1.668-0.13773 1.9206-0.58583 0.70588-4.481 0.35377-4.481-0.40507 0-0.16722 0.24744-0.15272 0.66863 0.0392 0.49902 0.22737 0.74486 0.22842 0.96913 4e-3 0.22426-0.22426 0.13855-0.36994-0.33791-0.57427-0.35112-0.15059-0.85176-0.4229-1.1125-0.60515-0.40434-0.28259-0.54998-0.234-0.98947 0.3301-0.51526 0.66135-0.51524 0.66155 0.12564 1.2288 0.35254 0.31204 0.77632 0.61246 0.94174 0.6676 0.19698 0.0657 0.38649 1.7414 0.54922 4.8566 0.13666 2.616 0.36 6.4828 0.49633 8.5928 0.13632 2.11 0.25435 4.7592 0.26229 5.887l0.0144 2.0505h-3.8837zm2.4889-1.9413c0.0978-0.1582 0.0503-0.41509-0.10546-0.57087-0.33017-0.33017-1.1891 0.23476-0.94859 0.62391 0.20138 0.32584 0.83974 0.29373 1.054-0.053zm-0.41112-8.0688c0-0.46724-0.56959-0.38587-0.73312 0.10473-0.0576 0.1728 0.0838 0.31419 0.3142 0.31419s0.41892-0.18851 0.41892-0.41892zm-5.0271-8.2713c0-0.12297-0.22631-0.42838-0.5029-0.6787-0.59277-0.53644-1.056-0.0977-0.54582 0.51699 0.34596 0.41685 1.0487 0.52522 1.0487 0.16171zm4.4319-1.0332c0.0646-0.19398-0.11778-0.33073-0.4411-0.33073-0.32499 0-0.55121 0.17084-0.55121 0.41628 0 0.48627 0.82562 0.4151 0.99231-0.0856zm2.9764 0.0467c0-0.24639-0.18002-0.38137-0.4411-0.33073-0.66377 0.12873-0.75492 0.747-0.11012 0.747 0.325 0 0.55122-0.17083 0.55122-0.41627zm-4.294-0.32787c0.0628-0.18848-0.16875-0.31419-0.57878-0.31419-0.70947 0-0.93025 0.38637-0.35277 0.61736 0.45743 0.18298 0.80748 0.0691 0.93155-0.30317zm10.115 22.59c0-1.4285 1.4276-6.607 3.7166-13.481 1.1574-3.4759 2.1043-6.4657 2.1043-6.6439 0-0.37468-1.934-0.6566-4.5276-0.66001l-1.7495-2e-3 -0.17542-1.4926c-0.0965-0.82093-0.13118-1.5368-0.0771-1.5909 0.16578-0.16577 6.5297-0.60826 8.8397-0.61463 2.0868-6e-3 2.1845 0.0208 2.3389 0.63591 0.2191 0.87298-0.54805 3.7776-3.1848 12.058-1.2279 3.8563-2.3107 7.3389-2.4062 7.7391l-0.17364 0.72761h6.9365v3.4015l-1.3891 0.13883c-2.1341 0.21338-8.737 0.69308-9.5388 0.69308-0.63668 0-0.71378-0.0981-0.71378-0.90816zm2.5244-1.7553c0.24351-0.39401-0.0388-0.60823-0.5454-0.41383-0.23378 0.0897-0.35095 0.28301-0.26038 0.42956 0.21446 0.34701 0.58608 0.33975 0.80578-0.0157zm2.1719-9.309c-0.0606-0.18191-0.269-0.33073-0.46302-0.33073-0.19403 0-0.40239 0.14882-0.46303 0.33073-0.0656 0.19674 0.12201 0.33072 0.46303 0.33072 0.34101 0 0.5286-0.13398 0.46302-0.33072zm2.4628-3.4022c0.16065-0.30017 0.20661-0.62486 0.10214-0.72154-0.10447-0.0967-0.24311-0.0269-0.30807 0.15496-0.18652 0.52225-0.60319 0.38517-0.60319-0.19844 0-0.29104-0.11367-0.52917-0.25259-0.52917-0.31444 0-0.65673 1.7156-0.41903 2.1002 0.23518 0.38053 1.0967-0.0884 1.4807-0.80603zm0.5138-1.3824c0-0.19403-0.0893-0.44208-0.19844-0.55122s-0.21332-0.30758-0.23151-0.44097c-0.0182-0.13339-0.0479-0.3616-0.0661-0.50712-0.0483-0.38612-0.54123-0.3234-0.99067 0.12605-0.29223 0.29223-0.32156 0.51968-0.11643 0.90298 0.41913 0.78314 1.6032 1.1305 1.6032 0.47028zm0.14745-4.5204c0.60577-0.44294 0.29117-0.92245-0.34283-0.52253-0.49545 0.31252-0.76039 0.89778-0.40641 0.89778 0.12984 0 0.46699-0.16886 0.74924-0.37525zm0.36217-2.4264c-0.17041-0.20533-0.41432-0.37332-0.54202-0.37332-0.35801 0-0.27466 0.73441 0.0985 0.86829 0.52988 0.19007 0.78016-0.0893 0.44347-0.49497zm-1.2109 0.032c0.16965-0.4421-0.22453-0.78304-0.6216-0.53764-0.39559 0.24448-0.31906 0.92604 0.10399 0.92604 0.20271 0 0.43563-0.17478 0.51761-0.3884zm7.7562 21.224c-0.28761-2.4708-0.8943-13.095-1.1634-20.373l-0.11496-3.1089h1.8586c1.0222 0 1.9195 0.0985 1.994 0.21896 0.0744 0.12043 0.32566 3.4839 0.5583 7.4745s0.53285 9.0415 0.66714 11.224c0.13429 2.1828 0.24727 4.4152 0.25106 4.9609l7e-3 0.99219h-3.8959zm1.7709-3.1623c0.15597-0.24769 0.19923-0.53469 0.0961-0.63779-0.20941-0.20941-1.249 0.63645-1.249 1.0162 0 0.39033 0.84305 0.1136 1.1529-0.37844zm1.096-1.534c-0.12801-0.20712-0.28021-0.22249-0.4566-0.0461-0.14552 0.14552-0.17817 0.40439-0.0726 0.57527 0.12801 0.20712 0.28021 0.22249 0.4566 0.0461 0.14552-0.14552 0.17817-0.40439 0.0726-0.57527zm-1.6536-3.627c-0.1819-0.0667-0.33073-0.28995-0.33073-0.4961s-0.24515-0.37483-0.54478-0.37483c-0.57232 0-0.51987 0.25259 0.23481 1.1307 0.30066 0.34983 0.4756 0.39192 0.68736 0.16536 0.20358-0.21779 0.19035-0.33827-0.0467-0.42517zm0.0133-3.0058c-0.57068-0.96609-0.95104-1.0147-0.59412-0.076 0.38339 1.0084 0.5203 1.1802 0.80174 1.0063 0.1444-0.0892 0.0565-0.4833-0.20762-0.93035zm1.1221-0.52856c0.28821-0.46635-0.0156-0.53173-0.55937-0.12037-0.44764 0.33866-0.45526 0.38675-0.0624 0.39414 0.24607 5e-3 0.52588-0.11857 0.62181-0.27377zm-0.52448-2.2398c-0.58648-0.44359-0.94162-0.49863-0.94162-0.14593 0 0.27353 0.46591 0.5033 1.0583 0.52192 0.29575 9e-3 0.26601-0.0865-0.11671-0.37599zm0.26729-0.94721c0.1-0.16179 0.0686-0.37015-0.0698-0.46302-0.13839-0.0929-0.34483-0.40698-0.45875-0.69802-0.20214-0.51644-0.21372-0.515-0.48135 0.0598-0.40666 0.8735 0.5237 1.8879 1.0099 1.1012zm-1.2089-1.5423c0-0.35729-0.48232-0.60497-0.79807-0.40983-0.14789 0.0914-0.2004 0.27703-0.11667 0.41249 0.19861 0.32137 0.91474 0.31928 0.91474-3e-3zm1.0583-3.0804c0-0.46723-0.56958-0.38586-0.73311 0.10473-0.0576 0.17281 0.0838 0.3142 0.31419 0.3142 0.23041 0 0.41892-0.18852 0.41892-0.41893zm-0.43459-2.0158c0.15597-0.24768 0.19279-0.54112 0.0818-0.6521-0.28228-0.28227-1.084 0.27173-1.1926 0.82409-0.11608 0.59047 0.71133 0.46236 1.1108-0.17199zm8.802 22.419c-1.3545-0.48282-2.762-1.8792-3.0658-3.0416-0.6755-2.5847-1.3786-15.867-0.95854-18.106 0.24989-1.332 2.2498-3.3572 3.7574-3.8049 2.4927-0.74025 5.3761 0.0373 6.6803 1.8014 0.67866 0.91794 1.7012 4.6462 1.5751 5.743-0.0821 0.71381-0.12891 0.73304-1.9687 0.80827l-1.8846 0.0771-0.2811-1.8939c-0.19645-1.3236-0.45949-2.0838-0.87346-2.5244-0.80537-0.85728-1.9409-0.83578-2.5198 0.0477-0.39731 0.60637-0.42654 1.3424-0.27582 6.9453 0.18075 6.7194 0.48981 9.4239 1.1618 10.166 0.60535 0.66891 2.239 0.61657 2.8786-0.0922 0.4075-0.45154 0.5017-0.95327 0.49186-2.6198-0.0137-2.3218-0.27628-2.8357-1.5114-2.9579-0.65023-0.0644-0.86464-0.2393-1.0225-0.83426-0.45696-1.7223 0.719-2.554 3.6044-2.5494 1.8215 3e-3 2.4445 0.2128 2.6117 0.8798 0.26182 1.0441 0.75651 10.213 0.58739 10.887-0.1302 0.51873-0.33503 0.66333-0.93959 0.66333-0.4252 0-0.84667-0.11906-0.93661-0.26458-0.26352-0.42639-0.96981-0.30728-2.36 0.39799-1.4779 0.74978-3.1424 0.84496-4.7508 0.27164zm3.0097-0.81754c0-0.43658-0.41816-0.51034-0.66146-0.11667-0.21577 0.34912 0.1006 0.84457 0.41516 0.65016 0.13546-0.0837 0.2463-0.32379 0.2463-0.53349zm1.3626 0.0156c0-0.13824-0.12799-0.29401-0.28443-0.34616-0.15643-0.0521-0.28442 0.10363-0.28442 0.34616 0 0.24254 0.12799 0.39831 0.28442 0.34617 0.15644-0.0521 0.28443-0.20792 0.28443-0.34617zm-2.6112-0.24776c0.0319-0.13627-0.32206-0.34623-0.78649-0.46657-0.46442-0.12035-1.0864-0.55872-1.3823-0.97416-0.5353-0.75176-0.53538-0.75758-0.0155-1.2281 0.65116-0.58929 0.66651-0.91988 0.0427-0.91988-0.26381 0-0.82936 0.36603-1.2568 0.8134-0.67358 0.70505-0.72375 0.85484-0.37659 1.1245 0.22029 0.17109 0.6043 0.62983 0.85338 1.0194s0.72369 0.76279 1.0547 0.82932c0.89371 0.17963 1.801 0.0834 1.8668-0.19793zm-3.3043-4.3822c-0.12956-1.1082-0.60211-0.73808-0.67541 0.52893-0.0649 1.1219-0.0452 1.1601 0.34195 0.6617 0.22595-0.29091 0.37601-0.82669 0.33346-1.1906zm-0.1056-4.1476c-1.2411-0.99308-1.6808-0.70042-0.50586 0.33668 0.66876 0.59032 1.0932 0.81044 1.1624 0.60285 0.0599-0.17984-0.23549-0.60263-0.65653-0.93953zm-0.2582-2.5026c-0.16537-0.26757-1.6979-0.31417-1.6979-0.0516 0 0.0977 0.19792 0.3963 0.43982 0.6636 0.40882 0.45174 0.47366 0.45538 0.91981 0.0516 0.26399-0.23891 0.41623-0.53753 0.33831-0.6636zm-110.33 28.047c-0.20873-0.33774-0.64027-0.0148-0.64027 0.47918 0 0.33633 0.0736 0.35254 0.39397 0.0867 0.21667-0.17983 0.32751-0.43448 0.2463-0.56588zm22.643-0.75946c0-0.29104-0.11204-0.52916-0.24897-0.52916-0.35516 0-0.60542 0.48157-0.41249 0.79375 0.27652 0.44742 0.66146 0.29344 0.66146-0.26459zm1.7198-0.40737c0.87407-0.75708 0.98924-0.96193 0.66146-1.1766-0.55054-0.36063-0.79375-0.33108-0.79375 0.0964 0 0.20046-0.1851 0.51809-0.41132 0.70584-0.50901 0.42244-1.0044 1.3145-0.72247 1.301 0.11426-5e-3 0.684-0.42243 1.2661-0.9266zm7.0115 0.12717c0-0.28245-0.11906-0.51355-0.26459-0.51355-0.14552 0-0.26458 0.30469-0.26458 0.67708 0 0.384 0.11452 0.60629 0.26458 0.51355 0.14553-0.0899 0.26459-0.39462 0.26459-0.67708zm-3.8436 0.0272c0.086-0.13916 0.31912-0.19058 0.51802-0.11425 0.1989 0.0763 0.44513 4e-3 0.54718-0.16145 0.26632-0.43091-0.0306-0.62903-0.58363-0.38942-0.26094 0.11305-0.64277 0.21706-0.84853 0.23112-0.51274 0.0351-0.69564 0.68703-0.19273 0.68703 0.22182 0 0.47368-0.11386 0.55969-0.25303zm2.6341-0.16274c0.48787-0.48787 0.52672-0.80735 0.12814-1.0537-0.3495-0.21601-0.65111 0.0799-0.89108 0.87414-0.20985 0.69457 0.16071 0.78177 0.76294 0.17954zm4.3845 0.15119c0-0.24387-0.36396-0.35497-0.65007-0.19844-0.0665 0.0364-0.28645-0.16025-0.48878-0.43696-0.26375-0.3607-0.4232-0.41358-0.56334-0.18684-0.1075 0.17394-0.0516 0.48963 0.12431 0.70154 0.36042 0.43429 1.5779 0.52742 1.5779 0.1207zm3.3322-0.71982c0.49514-0.62097 0.63277-0.67102 1.0021-0.36448 0.37278 0.30938 0.42816 0.27882 0.42816-0.23625 0-0.52525-0.0964-0.5729-0.8599-0.42485-0.47294 0.0917-1.0087 0.18459-1.1906 0.20641-0.34082 0.0409-0.47927 1.539-0.14223 1.539 0.10367 0 0.44678-0.32392 0.76246-0.71982zm3.4444 0.0501c0.24134-0.36834 0.3529-0.75529 0.2479-0.85989-0.19875-0.19799-1.2037 0.88263-1.2037 1.2943 0 0.46222 0.52447 0.22382 0.95579-0.43445zm22.328-1.2823c0-0.53528-0.69985-1.0598-0.92594-0.69403-0.26155 0.4232 0.051 1.0585 0.52076 1.0585 0.22285 0 0.40518-0.16402 0.40518-0.36448zm7.276-0.42927c0.0924-0.29104 0.27899-0.52917 0.4147-0.52917 0.13572 0 0.24676-0.11906 0.24676-0.26458 0-0.37574-0.60653-0.32753-1.183 0.094-0.30027 0.21956-0.42569 0.52734-0.32346 0.79375 0.22772 0.59343 0.64147 0.54739 0.84505-0.094zm2.2943 0.0913c0.26612-0.24083 0.48385-0.59802 0.48385-0.79375 0-0.42856-0.68913-0.4746-0.9435-0.063-0.12668 0.20497-0.24612 0.18743-0.3981-0.0585-0.35623-0.57639-0.54608-0.0978-0.25985 0.655 0.31021 0.81591 0.46404 0.85174 1.1176 0.26027zm4.6409-0.85548c0.33421 0.33421 0.95981 0.0652 0.72644-0.31242-0.47893-0.77493-2.7668 0.30577-2.7668 1.3069 0 0.2709 0.2856 0.12584 0.87281-0.4433 0.64144-0.62171 0.95095-0.76783 1.1676-0.55121zm-9.9779 0.65355c0-0.0609-0.0723-0.29899-0.1606-0.52917-0.22686-0.59118-0.63315-0.52018-0.63315 0.11065 0 0.29398 0.17639 0.52917 0.39687 0.52917 0.21829 0 0.39688-0.0498 0.39688-0.11065zm1.8521-0.4029c0-0.35729-0.48232-0.60497-0.79806-0.40983-0.1479 0.0914-0.2004 0.27703-0.11668 0.41249 0.19862 0.32137 0.91474 0.31928 0.91474-3e-3zm24.028-0.74322c-0.11456-0.60474-1.8032-0.82692-1.8032-0.23725 0 0.44456 0.38415 0.64907 1.2762 0.67938 0.44803 0.0152 0.59093-0.10466 0.527-0.44213zm-4.449-0.19844c0-0.21828-0.17859-0.39687-0.39688-0.39687-0.21828 0-0.39687 0.17859-0.39687 0.39687s0.17859 0.39688 0.39687 0.39688c0.21829 0 0.39688-0.1786 0.39688-0.39688zm6.4651-0.12574c0.74596-0.28362 0.88877-0.73629 0.30318-0.961-0.45601-0.17499-1.7953 0.65282-1.591 0.98339 0.18629 0.30142 0.44808 0.29687 1.2878-0.0224zm1.9548-0.62379c0.12381-0.63839-0.39392-0.54351-0.56303 0.10318-0.0905 0.34623-0.0296 0.50673 0.16758 0.4411 0.17045-0.0568 0.3484-0.30168 0.39545-0.54428zm10.101-0.20891c0-0.31898-0.72454-0.29363-0.92604 0.0324-0.28598 0.46272 0.1381 0.85372 0.55272 0.50962 0.20533-0.17041 0.37332-0.41432 0.37332-0.54202zm3.1924-0.24149c0.63788-0.34139 0.66564-0.78579 0.0487-0.78039-0.67191 6e-3 -1.2212 0.4191-1.0105 0.76011 0.22407 0.36257 0.31843 0.36455 0.96172 0.0203zm1.3055-0.43558c0-0.33634-0.0736-0.35254-0.39396-0.0867-0.21668 0.17983-0.32752 0.43448-0.2463 0.56588 0.20873 0.33773 0.64026 0.0148 0.64026-0.47918zm11.015 0.0426c-0.0897-0.23378-0.28879-0.34738-0.44241-0.25244-0.1918 0.11855-0.18058 0.29157 0.0358 0.55233 0.38445 0.46323 0.62993 0.28217 0.40657-0.29989zm6.9729-0.58995c-2e-3 -0.25466-0.10641-0.62456-0.23151-0.822-0.31808-0.50199-0.64185 0.0754-0.42515 0.75822 0.20635 0.65016 0.66217 0.69443 0.65666 0.0638zm10.192-3.5076c0.0906-0.14655-0.0266-0.33985-0.26038-0.42956-0.50658-0.1944-0.78891 0.0198-0.5454 0.41383 0.2197 0.35548 0.59132 0.36274 0.80578 0.0157zm-1.1918-5.6711c0-0.20969-0.11084-0.44976-0.2463-0.53348-0.31456-0.19441-0.63093 0.30104-0.41516 0.65016 0.2433 0.39366 0.66146 0.3199 0.66146-0.11668zm0.3851-2.7747c0.18565-0.30039-0.8036-0.64784-1.1808-0.41472-0.1492 0.0922-0.20277 0.27849-0.11904 0.41395 0.19686 0.31853 1.1031 0.31907 1.2998 8e-4zm-1.1788-6.473c0-0.3973-0.64222-0.7531-0.89788-0.49745-0.18659 0.18659 0.33567 0.86601 0.66569 0.86601 0.12771 0 0.23219-0.16585 0.23219-0.36856zm-188.89-1.0866c-2e-3 -0.14552-0.24633-0.30263-0.54314-0.34913-0.53212-0.0834-0.71589 0.21698-0.35411 0.57876 0.25727 0.25727 0.90151 0.0924 0.89725-0.22963zm189.62 0.0661c-0.0606-0.1819-0.32852-0.33073-0.59531-0.33073s-0.53468 0.14883-0.59531 0.33073c-0.0698 0.20946 0.14846 0.33073 0.59531 0.33073s0.66513-0.12127 0.59531-0.33073zm-189.99-1.6359c-0.0875-0.22806-0.28192-0.41466-0.43201-0.41466-0.3044 0-0.37394 0.86909-0.0921 1.1509 0.29046 0.29046 0.69826-0.28243 0.5241-0.73628zm188.94 0.0649c-0.16353-0.4906-0.73311-0.57197-0.73311-0.10473 0 0.23041 0.18851 0.41892 0.41892 0.41892s0.37179-0.14139 0.31419-0.31419zm-188.85-2.9775c0-0.42706-0.37473-0.74332-0.60632-0.51173-0.20648 0.20648 0.078 0.89298 0.37005 0.89298 0.12995 0 0.23627-0.17156 0.23627-0.38125zm189.13-1.3843c-0.12194-1.0301-0.74518-1.1209-0.74518-0.1086 0 0.56414 0.12785 0.8158 0.41445 0.8158 0.29372 0 0.39006-0.20601 0.33073-0.7072zm0.3029-1.9195c0.53404-0.99787-0.32941-1.8112-1.0285-0.96876-0.22635 0.27273-0.23022 0.42252-0.0144 0.55593 0.16251 0.10044 0.23156 0.34916 0.15345 0.55272-0.21806 0.56823 0.57742 0.44312 0.88944-0.13989zm-190.45-1.3193c0.34355-0.27852 0.53905-0.5923 0.43445-0.6973-0.22763-0.2285-1.5296 0.57604-1.5296 0.9452 0 0.40035 0.41006 0.30752 1.0952-0.2479zm190.33-1.6122c0.0906-0.14655-0.0266-0.33985-0.26038-0.42956-0.50659-0.19439-0.78891 0.0198-0.54541 0.41383 0.21971 0.35549 0.59132 0.36274 0.80579 0.0157zm-0.2799-1.4103c0.73216-0.53538 0.42336-1.0806-0.31795-0.56137-0.58637 0.41071-0.79579 0.91517-0.37992 0.91517 0.11771 0 0.43175-0.15921 0.69787-0.3538zm-189.5-1.2822c-0.40415-0.40415-0.70237-0.10594-0.47821 0.47821 0.13235 0.34491 0.2471 0.37909 0.48248 0.14371s0.23436-0.38329-4e-3 -0.62192zm3.3823-1.2694c0-0.31696-1.2774-0.66794-1.526-0.4193-0.2299 0.22989 0.46267 0.66954 1.063 0.67479 0.25466 2e-3 0.46302-0.11274 0.46302-0.25549zm185.61-1.5827c-0.16458-1.1966-0.25659-1.3526-0.75583-1.2815-0.37751 0.0538-0.54167 0.23937-0.48875 0.55248 0.0661 0.39114-0.0466 0.44167-0.66146 0.29657-0.56186-0.13258-0.67085-0.0995-0.45056 0.13662 0.15982 0.17133 0.63607 0.33743 1.0583 0.3691 0.66405 0.0498 0.77929 0.17771 0.85317 0.94692 0.0588 0.61229 0.17063 0.80412 0.35896 0.6158 0.16871-0.16872 0.20172-0.79564 0.0861-1.636zm-180.31 0.91623c0-0.21828-0.1786-0.39687-0.39688-0.39687-0.41316 0-0.52492 0.31292-0.22048 0.61736 0.30443 0.30444 0.61736 0.19268 0.61736-0.22049zm12.171 0.15585 0.66146-0.18828-0.57792-0.31451c-0.7807-0.42487-1.9356-0.40204-1.9356 0.0383 0 0.7153 0.51622 0.84477 1.8521 0.46453zm3.2852-0.98747c0.0918-0.23911 0.10737-0.4942 0.0347-0.56687-0.21062-0.21063-0.94824 0.50748-0.78784 0.76701 0.22704 0.36735 0.57039 0.27611 0.75314-0.20014zm4.0625-0.0448c0.0576-0.17281-0.0838-0.31419-0.31419-0.31419-0.23041 0-0.41893 0.18851-0.41893 0.41892 0 0.46724 0.56959 0.38587 0.73312-0.10473zm5.7506-0.0512c0.2642-0.29194 0.40245-0.60871 0.30722-0.70393-0.19294-0.19295-1.2347 0.66019-1.2347 1.0111 0 0.38626 0.42832 0.24439 0.92751-0.30721zm2.1152-0.26659c0-0.21628-0.26789-0.43129-0.59531-0.4778-0.57912-0.0822-0.82642 0.42671-0.40978 0.84335 0.30825 0.30825 1.0051 0.0548 1.0051-0.36555zm2.2076-0.67395c-0.14384-0.74195-0.75242-0.78241-0.75242-0.05 0 0.35168 0.0814 0.72077 0.1808 0.82021 0.28093 0.28094 0.67298-0.2473 0.57162-0.77018zm1.0019 0.27534c-0.0897-0.23378-0.2888-0.34737-0.44241-0.25244-0.19181 0.11855-0.18058 0.29157 0.0358 0.55233 0.38445 0.46324 0.62993 0.28217 0.40658-0.29989zm3.5373-0.11131c0-0.35729-0.48232-0.60497-0.79807-0.40983-0.14789 0.0914-0.2004 0.27703-0.11667 0.41249 0.19861 0.32137 0.91474 0.31928 0.91474-3e-3zm10.583-0.26459c0-0.31217-0.51603-0.64611-0.70556-0.45658-0.18952 0.18952 0.14442 0.70555 0.45659 0.70555 0.13694 0 0.24897-0.11203 0.24897-0.24897zm1.7495-0.68533c0.58399-0.89127 0.2054-1.2231-0.43883-0.38466-0.5646 0.73483-0.64293 1.0544-0.25846 1.0544 0.14216 0 0.45594-0.30137 0.69729-0.66972zm1.4255 0.40513c0-0.14552-0.11203-0.26458-0.24897-0.26458-0.13693 0-0.32255 0.11906-0.41249 0.26458-0.0899 0.14552 0.0221 0.26459 0.24897 0.26459s0.41249-0.11907 0.41249-0.26459zm8.0698-0.28663c0-0.21221-0.31565-0.41114-0.7276-0.45854-0.82615-0.0951-1.0558 0.62176-0.26458 0.82573 0.67612 0.17428 0.99218 0.0573 0.99218-0.36719zm-6.107 0.12603c0.4324-0.16592 0.59131-0.89773 0.19494-0.89773-0.12297 0-0.43908 0.23813-0.70247 0.52917-0.47849 0.52872-0.28189 0.67149 0.50753 0.36856zm3.5935-0.10398c0-0.14552-0.17859-0.26458-0.39687-0.26458-0.21829 0-0.39688-0.16586-0.39688-0.36857 0-0.42408-0.71634-0.76884-1.1021-0.53042-0.36654 0.22654 0.82217 1.4282 1.4128 1.4282 0.26568 0 0.48305-0.11906 0.48305-0.26458zm6.0854-0.41577c0-0.40098-0.59671-1.1717-0.90714-1.1717-0.27897 0-0.1547 0.949 0.1663 1.27 0.43761 0.43761 0.74084 0.39739 0.74084-0.0983zm3.3987-0.23194c0.0585-0.30163-0.0369-0.42885-0.26458-0.35302-0.1958 0.0652-0.39713 0.33074-0.44741 0.59011-0.0585 0.30163 0.0369 0.42884 0.26458 0.35302 0.1958-0.0652 0.39714-0.33075 0.44741-0.59011zm5.2003 0.0965c0-0.20616-0.20369-0.35907-0.45265-0.33981-0.24895 0.0193-0.44321-0.0403-0.43169-0.13229 0.0619-0.49427-0.084-0.59392-0.43858-0.29961-0.50101 0.41581-0.52105 1.0894-0.0268 0.8997 0.20356-0.0781 0.45259-9e-3 0.55341 0.15457 0.24167 0.39102 0.79627 0.19422 0.79627-0.28256zm5.1594 0.15434c0-0.21829-0.17859-0.39688-0.39687-0.39688s-0.39688 0.17859-0.39688 0.39688c0 0.21828 0.1786 0.39687 0.39688 0.39687s0.39687-0.17859 0.39687-0.39687zm-7.4994-0.54264c0.97956-0.74715 1.131-1.1772 0.41457-1.1772-0.71256 0-1.6464 0.75886-1.6464 1.3379 0 0.67154 0.16963 0.6494 1.2318-0.16076zm4.203 0.12816c0.28822-0.46635-0.0156-0.53174-0.55936-0.12037-0.44764 0.33866-0.45526 0.38675-0.0625 0.39414 0.24607 5e-3 0.52589-0.11857 0.62181-0.27377zm-8.9657-0.63245c-0.0862-0.22455-0.35746-0.40828-0.60286-0.40828-0.40717 0-0.40419 0.0464 0.0342 0.53079 0.52642 0.58169 0.81505 0.51951 0.56869-0.12251zm14.114 0.0988c0-0.64481-0.61827-0.55366-0.747 0.11011-0.0506 0.26109 0.0843 0.4411 0.33073 0.4411 0.24544 0 0.41627-0.22622 0.41627-0.55121zm1.9561 0.1327c0.28012-0.72998 0.18447-0.98901-0.23627-0.63982-0.43312 0.35945-0.53917 1.0583-0.1606 1.0583 0.12995 0 0.30854-0.18833 0.39687-0.41851zm13.854-0.83826c0.0597-0.1819-0.0911-0.33073-0.33509-0.33073-0.24403 0-0.50597-0.23812-0.58208-0.52917-0.19696-0.75319-0.82875-0.65495-1.0335 0.16069-0.11439 0.45577-0.0488 0.77082 0.1934 0.92844 0.49858 0.32453 1.6236 0.17777 1.7572-0.22923zm89.627 0.19657c0.0906-0.14655-0.0266-0.33985-0.26038-0.42956-0.50658-0.1944-0.78891 0.0198-0.5454 0.41382 0.2197 0.35549 0.59132 0.36275 0.80578 0.0157zm-86.519-0.26458c0.0906-0.14655-0.0266-0.33986-0.26038-0.42957-0.50658-0.19439-0.78891 0.0198-0.54541 0.41383 0.21971 0.35549 0.59132 0.36275 0.80579 0.0157zm-1.8729-0.43925c0.0931-0.24262 0.0651-0.54532-0.0623-0.67268-0.29586-0.29585-0.94916 0.46523-0.719 0.83762 0.25178 0.40739 0.58897 0.3362 0.78128-0.16494zm17.416-0.3016c0.66246-0.5689 0.57131-0.92718-0.19843-0.78003-0.46265 0.0884-0.66146 0.01-0.66146-0.26205 0-0.23285-0.1556-0.32878-0.3884-0.23944-0.21362 0.082-0.45998 0.0332-0.54745-0.1083-0.20469-0.3312-0.65165-0.0586-0.65165 0.3975 0 0.19272 0.24696 0.41498 0.5488 0.49391 0.30184 0.0789 0.61303 0.38914 0.69154 0.68935 0.146 0.55829 0.37723 0.52171 1.207-0.19094zm-26.26-0.0227c0-0.12995-0.1786-0.30481-0.39688-0.38857-0.24175-0.0928-0.39687-4.2e-4 -0.39687 0.23628 0 0.21371 0.17859 0.38857 0.39687 0.38857s0.39688-0.10633 0.39688-0.23628zm31.626-0.1471c0.62415-0.26078 0.91754-0.55689 0.91754-0.92604 0-0.64691-0.98982-0.76449-1.2272-0.14579-0.0838 0.21828-0.4414 0.39687-0.79475 0.39687-0.56047 0-0.60632 0.0675-0.35926 0.52917 0.33807 0.63169 0.30797 0.62869 1.4637 0.14579zm65.74-0.0135c0-0.22048-0.23519-0.39687-0.52917-0.39687-0.5856 0-0.71692 0.40931-0.19844 0.61852 0.57576 0.23232 0.72761 0.18606 0.72761-0.22165zm-85.99-0.54478c0-0.38401-0.11452-0.60629-0.26458-0.51355-0.14552 0.0899-0.26458 0.39462-0.26458 0.67707 0 0.28246 0.11906 0.51355 0.26458 0.51355s0.26458-0.30468 0.26458-0.67707zm6.748 0.41062c0.0906-0.14655-0.0266-0.33985-0.26038-0.42956-0.50658-0.19439-0.78891 0.0198-0.5454 0.41383 0.2197 0.35549 0.59132 0.36274 0.80578 0.0157zm-1.8825-0.41423c0.11134-0.29016 0.0265-0.39026-0.2805-0.33073-0.24209 0.047-0.48972 0.2342-0.55029 0.4161-0.16197 0.48648 0.64309 0.40376 0.83079-0.0854zm19.741-0.53386c0-0.72031-0.66744-1.1343-1.112-0.68968-0.20056 0.20055-0.15695 0.40847 0.15007 0.71549 0.23803 0.23803 0.43279 0.55037 0.43279 0.69408 0 0.14372 0.11906 0.18772 0.26458 0.0978 0.14552-0.0899 0.26458-0.45789 0.26458-0.81767zm-13.224 0.28211c0.18408-0.2218 0.26332-0.47463 0.1761-0.56185-0.27095-0.27095-0.97515 0.13341-0.97515 0.55994 0 0.51822 0.36982 0.5191 0.79905 2e-3zm16.134-0.28024c0-0.82886-0.62137-0.73814-0.74601 0.10892-0.0561 0.38158 0.0549 0.57459 0.33073 0.57459 0.27015 0 0.41528-0.23888 0.41528-0.68351zm-19.315 0.022c0-0.21828-0.1786-0.39688-0.39688-0.39688s-0.39687 0.1786-0.39687 0.39688 0.17859 0.39687 0.39687 0.39687 0.39688-0.17859 0.39688-0.39687zm20.902 0.0156c0-0.42138-0.48005-0.81438-0.71175-0.58268-0.21766 0.21765 0.12211 0.96394 0.43886 0.96394 0.15009 0 0.27289-0.17156 0.27289-0.38126zm3.7163-0.17056c0.16243-0.30351 0.23129-0.61587 0.15302-0.69415-0.24747-0.24746-0.91313 0.13691-1.2155 0.70186-0.24875 0.46479-0.21406 0.54411 0.23797 0.54411 0.29104 0 0.66206-0.24832 0.82449-0.55182zm52.315 0.0723c0.0576-0.17281-0.0838-0.3142-0.31419-0.3142-0.23041 0-0.41892 0.18852-0.41892 0.41893 0 0.46723 0.56958 0.38586 0.73311-0.10473zm-53.121-0.82775c0-0.35728-0.48232-0.60496-0.79807-0.40982-0.14789 0.0914-0.2004 0.27702-0.11668 0.41249 0.19862 0.32137 0.91475 0.31928 0.91475-3e-3zm12.039-0.2361c0-0.47854-0.51787-0.39118-0.62058 0.10469-0.0572 0.27589 0.042 0.39684 0.26458 0.32266 0.1958-0.0653 0.356-0.25757 0.356-0.42735zm4.7625-0.0477c0-0.56714-0.76879-0.48522-0.8803 0.0938-0.0681 0.35359 0.0397 0.46134 0.39325 0.39325 0.26787-0.0516 0.48705-0.27076 0.48705-0.48705zm-1.4552-0.37764c0-0.42705-0.37473-0.74331-0.60633-0.51172-0.20647 0.20648 0.078 0.89298 0.37005 0.89298 0.12995 0 0.23628-0.17156 0.23628-0.38126zm3.6552-0.21405c0.0607-0.32029-0.0814-0.46302-0.46085-0.46302-0.30171 0-0.54857 0.11906-0.54857 0.26458s-0.17859 0.26459-0.39687 0.26459-0.39688 0.1266-0.39688 0.28134c0 0.49328 1.7062 0.16448 1.8032-0.34749zm11.522-0.0661c0.0928-0.24176 5.3e-4 -0.39688-0.23627-0.39688-0.21372 0-0.38858 0.17859-0.38858 0.39688 0 0.21828 0.10633 0.39687 0.23628 0.39687s0.30481-0.17859 0.38857-0.39687zm-9.4884-0.35278c0-0.47854-0.51787-0.39118-0.62058 0.10469-0.0572 0.27588 0.042 0.39684 0.26458 0.32265 0.1958-0.0653 0.356-0.25757 0.356-0.42734zm13.626-0.31799c0 0.15064 0.1786 0.27389 0.39688 0.27389 0.60074 0 0.47594-0.46516-0.25295-0.94275-0.74362-0.48724-1.2023-0.31996-1.2023 0.43851 0 0.44087 0.083 0.47845 0.52917 0.23966 0.35877-0.19201 0.52916-0.19501 0.52916-9e-3zm16.075-1.1152c-0.0597-0.1819-0.44982-0.37062-0.86687-0.41938-0.6659-0.0779-0.71587-0.0376-0.41021 0.33073 0.41345 0.49819 1.4348 0.56909 1.2771 0.0886z"/></g></g></svg>
