<svg xmlns="http://www.w3.org/2000/svg" id="svg8" width="1008.272" height="308.875" version="1.1" viewBox="0 0 266.772 81.723"><metadata id="metadata5"/><g id="layer1" transform="translate(269.20245,-415.41018)"><g style="stroke-width:.73702037;fill:#e11919;fill-opacity:1" id="g3967" transform="matrix(1.3568146,0,0,1.3568146,140.21834,-151.71424)"><path id="path3981" d="m -298.62114,478.01558 c -0.0957,-0.15487 -0.29218,-1.51153 -0.4366,-3.0148 -0.23758,-2.47315 -1.89694,-30.37395 -2.24752,-37.79052 -0.0791,-1.67349 -0.21187,-4.06935 -0.29501,-5.32415 l -0.15119,-2.28144 1.41449,-0.16936 c 3.01332,-0.36081 13.74607,-0.96753 16.89261,-0.95494 1.81901,0.007 4.14073,-0.10577 5.15938,-0.25121 2.10001,-0.29985 12.52871,-0.96543 33.3375,-2.12766 7.85812,-0.4389 17.97844,-1.03327 22.48958,-1.32082 4.51115,-0.28755 11.59537,-0.7072 15.74271,-0.93257 13.75692,-0.74754 48.13512,-2.82145 54.62476,-3.29531 2.21225,-0.16153 3.53791,-0.15898 3.73813,0.007 0.20138,0.16713 0.55325,0.16509 1.00272,-0.006 0.38087,-0.1448 3.52074,-0.44273 6.9775,-0.66206 3.45676,-0.21934 11.98836,-0.76567 18.9591,-1.21409 11.05523,-0.71115 12.72296,-0.76642 13.05666,-0.43272 0.51205,0.51205 0.73861,2.7851 1.38926,13.93786 0.30138,5.16599 0.84104,14.15521 1.19925,19.97604 0.69679,11.32277 0.78456,14.30703 0.42724,14.52786 -0.42353,0.26175 -43.08024,2.85963 -45.41524,2.76587 -0.72761,-0.0292 -2.63261,0.0906 -4.23334,0.26624 -1.60073,0.17564 -8.32776,0.66217 -14.94895,1.08117 -10.2521,0.64876 -12.14652,0.70918 -12.76615,0.40718 -0.61906,-0.30173 -0.7276,-0.29845 -0.7276,0.022 0,0.20713 -0.14883,0.37683 -0.33073,0.37712 -0.1819,2.6e-4 -5.9862,0.35321 -12.89844,0.78428 -6.91224,0.43106 -15.42521,0.9074 -18.91771,1.05853 -3.4925,0.15113 -7.54063,0.39327 -8.99583,0.53809 -1.45521,0.14481 -6.09865,0.44855 -10.31875,0.67497 -4.22011,0.22643 -9.10167,0.52163 -10.84792,0.65602 -4.13387,0.31812 -8.24769,0.32135 -8.83518,0.007 -0.3092,-0.16548 -0.81526,-0.13068 -1.50396,0.10343 -1.06321,0.36142 -5.71426,0.72496 -23.79211,1.85968 -14.51588,0.91114 -18.53846,1.06712 -18.74866,0.72702 z m 5.91637,-2.32522 c 0,-0.19188 -0.1177,-0.42161 -0.26156,-0.51051 -0.14606,-0.0903 -0.19651,0.008 -0.11425,0.2222 0.081,0.21112 0.0201,0.46246 -0.13532,0.55853 -0.15544,0.0961 -0.28262,0.30128 -0.28262,0.45603 0,0.17743 0.14661,0.15969 0.39687,-0.048 0.21828,-0.18116 0.39688,-0.48637 0.39688,-0.67824 z m -1.71979,-0.38009 c 0.0899,-0.14553 0.0374,-0.26459 -0.11668,-0.26459 -0.15411,0 -0.2802,0.11906 -0.2802,0.26459 0,0.14552 0.0525,0.26458 0.11668,0.26458 0.0642,0 0.19026,-0.11906 0.2802,-0.26458 z m 2.81187,-0.19844 c 0.32911,-0.41965 0.31975,-0.42901 -0.0999,-0.0999 -0.25466,0.19972 -0.46302,0.40808 -0.46302,0.46302 0,0.21777 0.21728,0.0776 0.56292,-0.36312 z m 16.46712,-0.45633 c -0.51416,-0.37596 -1.00744,-0.27773 -0.74419,0.1482 0.0852,0.13784 0.26656,0.18159 0.40305,0.0972 0.1365,-0.0844 0.32871,0.0565 0.42715,0.31303 0.11924,0.31072 0.21616,0.35489 0.29036,0.13229 0.0613,-0.18376 -0.10811,-0.4946 -0.37637,-0.69076 z m 14.45538,-0.66815 c 0,-0.14552 -0.11906,-0.26458 -0.26458,-0.26458 -0.14552,0 -0.26459,0.11906 -0.26459,0.26458 0,0.14552 0.11907,0.26458 0.26459,0.26458 0.14552,0 0.26458,-0.11906 0.26458,-0.26458 z m 1.93137,-0.17494 c 0.46572,-0.24174 0.71596,-0.48378 0.55611,-0.53786 -0.42181,-0.1427 -1.69373,0.38767 -1.69373,0.70625 0,0.36656 0.14972,0.3444 1.13762,-0.16839 z m 2.97858,-0.50815 c -0.68739,-0.50264 -1.47037,-0.47584 -1.47037,0.0503 0,0.31896 0.16163,0.38499 0.64525,0.26362 0.35488,-0.0891 0.72399,-0.0345 0.82024,0.12121 0.0962,0.15573 0.25219,0.20597 0.34653,0.11163 0.0943,-0.0943 -0.0594,-0.34039 -0.34165,-0.54677 z m 10.43588,0.15392 c 0,-0.14552 -0.11906,-0.26458 -0.26458,-0.26458 -0.14552,0 -0.26458,0.11906 -0.26458,0.26458 0,0.14552 0.11906,0.26459 0.26458,0.26459 0.14552,0 0.26458,-0.11907 0.26458,-0.26459 z m 9.26042,0 c 0,-0.14552 -0.12609,-0.26458 -0.2802,-0.26458 -0.15411,0 -0.20661,0.11906 -0.11667,0.26458 0.0899,0.14552 0.21602,0.26459 0.2802,0.26459 0.0642,0 0.11667,-0.11907 0.11667,-0.26459 z m -15.875,-0.56039 c 0,-0.14552 -0.11906,-0.191 -0.26458,-0.10107 -0.14552,0.0899 -0.26459,0.28259 -0.26459,0.42811 0,0.14552 0.11907,0.191 0.26459,0.10106 0.14552,-0.0899 0.26458,-0.28258 0.26458,-0.4281 z m 9.2451,0.18197 c 0.2508,-0.30219 0.20753,-0.43544 -0.21479,-0.66146 -0.72136,-0.38606 -0.82823,-0.35999 -0.82823,0.20203 0,0.86207 0.5191,1.09072 1.04302,0.45943 z m -38.48156,-0.28325 c 4.36563,-0.21736 8.41375,-0.45673 8.99584,-0.53196 0.97834,-0.12642 12.40227,-0.76349 26.06145,-1.45335 3.1287,-0.15801 8.0698,-0.46214 10.98021,-0.67585 9.76645,-0.71713 12.41092,-0.87576 17.33021,-1.0396 2.69214,-0.0897 6.74026,-0.33123 8.99583,-0.5368 2.25558,-0.20557 7.61339,-0.56 11.90626,-0.78761 4.29286,-0.22761 10.42458,-0.5901 13.62604,-0.80554 3.20146,-0.21543 9.27364,-0.57129 13.49375,-0.79081 4.2201,-0.21951 9.03378,-0.51287 10.69706,-0.65191 1.99139,-0.16647 3.13244,-0.16292 3.34125,0.0104 0.21135,0.17541 0.57051,0.1663 1.0769,-0.0273 0.41788,-0.15976 2.84338,-0.39426 5.39,-0.52111 4.38956,-0.21864 7.96796,-0.43974 17.06562,-1.05443 2.18281,-0.14748 6.46906,-0.38485 9.525,-0.52749 7.686,-0.35876 12.05365,-0.78896 12.2125,-1.20292 0.0706,-0.18401 -0.11511,-4.48305 -0.41271,-9.55341 -0.29761,-5.07035 -0.66964,-11.54055 -0.82675,-14.3782 -0.1571,-2.83766 -0.39733,-6.46907 -0.53384,-8.06979 -0.13652,-1.60073 -0.24923,-3.83316 -0.25048,-4.96094 l -0.002,-2.05052 -3.63802,0.001 c -2.00091,6.9e-4 -6.49552,0.17998 -9.98802,0.39846 -3.4925,0.21847 -11.23156,0.69421 -17.19792,1.0572 -5.96635,0.36299 -12.45526,0.77541 -14.41979,0.91649 -1.96453,0.14108 -6.84609,0.44046 -10.84792,0.66529 -4.00182,0.22483 -18.30611,1.05966 -31.78731,1.85519 -13.4812,0.79553 -27.5901,1.62675 -31.35313,1.84717 -3.76302,0.22041 -9.81841,0.58995 -13.45643,0.82121 -3.63802,0.23125 -8.1624,0.38295 -10.05417,0.3371 -1.89177,-0.0458 -3.55865,-0.008 -3.70417,0.0839 -0.4772,0.3017 -2.52658,0.47908 -11.77396,1.01907 -12.99801,0.759 -25.23465,1.59203 -25.36969,1.72707 -0.0635,0.0635 0.0882,3.53914 0.33704,7.72372 0.24885,4.18457 0.74268,12.48988 1.0974,18.45623 0.35472,5.96636 0.71335,11.35394 0.79694,11.9724 l 0.15199,1.12448 2.29889,-0.001 c 1.26439,-4.1e-4 5.87077,-0.17868 10.23639,-0.39603 z m 3.39836,-7.28947 c -0.69473,-0.26242 -0.80721,-0.76228 -1.12811,-5.01344 -0.43114,-5.71172 -1.18305,-19.82853 -1.06254,-19.9487 0.0634,-0.0632 0.95715,-0.19778 1.98619,-0.29908 l 1.87098,-0.1842 2.46998,5.7201 c 1.35849,3.14606 2.64889,5.86802 2.86754,6.04881 0.41986,0.34713 0.41763,0.19136 -0.12444,-8.67893 -0.14005,-2.29182 -0.1003,-2.71974 0.28882,-3.10886 0.47039,-0.47039 2.63005,-0.6319 3.24253,-0.2425 0.30299,0.19263 1.11033,10.99536 1.56819,20.98324 l 0.17703,3.86175 -0.63351,0.16953 c -0.34844,0.0932 -1.13753,0.17116 -1.75354,0.17314 -1.32503,0.004 -1.20866,0.19209 -4.42414,-7.14014 -1.1168,-2.54661 -2.21584,-4.8088 -2.44232,-5.02708 -0.37163,-0.35818 -0.39615,-0.22918 -0.25144,1.32292 0.0882,0.94588 0.23409,3.68432 0.32422,6.08542 0.13026,3.47057 0.0904,4.45396 -0.19455,4.79651 -0.4276,0.51407 -1.98211,0.78323 -2.78089,0.48151 z m 10.16784,-4.53152 c -0.16966,-0.50898 -0.89215,-0.84393 -1.40001,-0.64904 -0.44917,0.17236 -0.44762,0.20123 0.0302,0.56286 0.61026,0.46188 1.51402,0.51874 1.36983,0.0862 z m -1.05215,-3.1939 c 0.19091,-0.40018 0.51666,-0.72761 0.72388,-0.72761 0.3086,0 0.32071,-0.12302 0.067,-0.67996 l -0.30981,-0.67997 -0.47234,0.92069 c -0.25979,0.50638 -0.80243,1.18033 -1.20586,1.49767 l -0.73352,0.57699 0.79179,-0.0901 c 0.55415,-0.0631 0.89596,-0.30847 1.13891,-0.8177 z m -7.72628,-7.38307 c 0.11268,-0.18232 0.073,-0.23391 -0.0984,-0.12798 -0.15795,0.0976 -0.37019,0.0432 -0.47165,-0.12099 -0.10146,-0.16416 -0.028,-0.39515 0.16314,-0.51332 0.28642,-0.17701 0.28668,-0.28825 0.002,-0.63187 -0.4774,-0.57513 -0.81057,-0.52189 -0.81057,0.12952 0,0.30061 -0.12325,0.77686 -0.27389,1.05833 -0.24228,0.45269 -0.18299,0.51177 0.51355,0.51177 0.43309,0 0.87239,-0.13745 0.97623,-0.30546 z m 2.40443,-1.06706 c -0.0845,-0.21107 -0.14716,-0.14837 -0.15985,0.15985 -0.0115,0.27892 0.051,0.43519 0.13896,0.34727 0.0879,-0.0879 0.0973,-0.31613 0.0209,-0.50712 z m -3.99074,-3.28414 c -0.0942,-0.24539 -0.23074,-0.38663 -0.3035,-0.31387 -0.0728,0.0728 -0.0553,0.33307 0.0389,0.57845 0.0942,0.24539 0.23073,0.38663 0.3035,0.31387 0.0728,-0.0728 0.0552,-0.33307 -0.0389,-0.57845 z m 1.27934,-1.40178 c -0.16608,-0.16607 -0.63836,0.50591 -0.63187,0.89907 0.002,0.14552 0.17794,0.0351 0.39009,-0.24527 0.21215,-0.28042 0.32095,-0.57463 0.24178,-0.6538 z m 14.36558,17.86374 c -0.38682,-5.11462 -1.34506,-22.91169 -1.23899,-23.01134 0.0658,-0.0618 1.0712,-0.1554 2.23416,-0.20789 l 2.11446,-0.0954 0.58456,9.26042 c 0.32151,5.09323 0.62016,10.74869 0.66366,12.56771 l 0.0791,3.30729 -2.14386,0.0762 -2.14387,0.0762 z m 1.65883,-2.54488 c 0,-0.14552 -0.11906,-0.26458 -0.26458,-0.26458 -0.14552,0 -0.26459,0.11906 -0.26459,0.26458 0,0.14552 0.11907,0.26459 0.26459,0.26459 0.14552,0 0.26458,-0.11907 0.26458,-0.26459 z m -0.43348,-5.42396 c -0.16103,-0.41962 -0.62485,-0.55055 -0.62485,-0.17639 0,0.27981 0.28921,0.57327 0.56496,0.57327 0.1167,0 0.14365,-0.1786 0.0599,-0.39688 z m 0.0795,-3.10885 c -0.0734,-0.1819 -0.13345,-0.0331 -0.13345,0.33073 0,0.3638 0.06,0.51263 0.13345,0.33073 0.0734,-0.1819 0.0734,-0.47956 0,-0.66146 z m -0.0359,-2.79317 c -0.0815,-0.0815 -0.29496,-1.7e-4 -0.47444,0.18065 -0.25936,0.26131 -0.22897,0.2917 0.14812,0.14811 0.26094,-0.0994 0.40778,-0.2473 0.32632,-0.32876 z m -0.007,-2.43235 c 0.0899,-0.14552 -0.0221,-0.26459 -0.24897,-0.26459 -0.22687,0 -0.41249,0.11907 -0.41249,0.26459 0,0.14552 0.11203,0.26458 0.24897,0.26458 0.13693,0 0.32255,-0.11906 0.41249,-0.26458 z m 0.92604,-2.91042 c 0,-0.14552 -0.0525,-0.26458 -0.11668,-0.26458 -0.0642,0 -0.19026,0.11906 -0.2802,0.26458 -0.0899,0.14552 -0.0374,0.26458 0.11668,0.26458 0.15411,0 0.2802,-0.11906 0.2802,-0.26458 z m 8.63527,20.52799 c -1.13422,-0.41929 -2.41537,-1.52448 -2.94016,-2.53632 -0.56669,-1.09267 -0.91613,-3.31268 -1.33171,-8.46063 -0.46823,-5.80014 -0.50022,-9.27245 -0.0987,-10.71857 0.61243,-2.20602 3.20027,-3.82426 6.13078,-3.83374 2.11747,-0.007 3.38129,0.53321 4.66245,1.99237 1.15668,1.31739 1.36622,1.96946 1.5378,4.78566 0.1677,2.75251 0.13999,2.79421 -2.06897,3.11431 -1.51054,0.21889 -1.68759,0.0293 -2.07845,-2.22524 -0.41356,-2.3855 -0.68434,-2.95386 -1.732,-3.63533 l -0.91107,-0.59263 -0.53368,0.57284 c -0.29352,0.31506 -0.61068,0.98331 -0.7048,1.48501 -0.29725,1.58444 0.44606,12.88925 0.98179,14.93176 0.27654,1.05435 0.86709,1.52586 1.91108,1.52586 1.02761,0 1.29726,-0.62131 1.49269,-3.43942 0.10071,-1.45223 0.27013,-2.72744 0.37649,-2.8338 0.10637,-0.10636 1.02044,-0.24012 2.03127,-0.29723 l 1.83788,-0.10385 v 3.43954 3.43953 l -0.85989,1.26825 c -0.49947,0.73665 -1.30351,1.49626 -1.91823,1.81224 -1.33728,0.68737 -4.32915,0.8474 -5.78452,0.30939 z m -1.09465,-2.8009 c 0.0899,-0.14553 0.3876,-0.26459 0.66146,-0.26459 0.27387,0 0.57152,-0.11906 0.66146,-0.26458 0.28688,-0.46419 -0.76895,-0.27222 -1.45521,0.26458 -0.3638,0.28457 -0.51966,0.52005 -0.34634,0.52328 0.17331,0.003 0.3887,-0.11317 0.47863,-0.25869 z m -0.66146,-1.80548 c -0.3638,-0.0535 -0.81028,-0.21955 -0.99218,-0.36894 -0.47927,-0.39362 -0.40613,0.0651 0.0995,0.62371 0.35696,0.39445 0.52582,0.4215 0.99218,0.15894 0.55664,-0.31337 0.55569,-0.31733 -0.0994,-0.41371 z m 0.3175,-1.68703 c -0.24694,-0.24694 -0.3175,-0.17638 -0.3175,0.3175 0,0.49389 0.0706,0.56445 0.3175,0.3175 0.24695,-0.24694 0.24695,-0.38805 0,-0.635 z m 0.21167,-3.91583 c 0,-0.14552 -0.0525,-0.26458 -0.11668,-0.26458 -0.0642,0 -0.19026,0.11906 -0.28019,0.26458 -0.0899,0.14552 -0.0374,0.26458 0.11667,0.26458 0.15411,0 0.2802,-0.11906 0.2802,-0.26458 z m -0.94812,-3.26942 c -0.17011,-0.44329 -0.63938,-0.60702 -0.63938,-0.22308 0,0.25741 0.59027,0.87376 0.71619,0.74784 0.0495,-0.0495 0.0149,-0.28565 -0.0768,-0.52476 z m -1.16855,-0.28684 c 0,-0.0642 -0.11906,-0.19026 -0.26458,-0.2802 -0.14552,-0.0899 -0.26458,-0.0374 -0.26458,0.11668 0,0.15411 0.11906,0.2802 0.26458,0.2802 0.14552,0 0.26458,-0.0525 0.26458,-0.11668 z m 2.11667,-0.99457 c 0,-0.42742 -0.0782,-0.50385 -0.29445,-0.28764 -0.16194,0.16195 -0.21445,0.42388 -0.11667,0.58208 0.27368,0.44283 0.41112,0.3444 0.41112,-0.29444 z m -1.32292,-1.00542 c 0,-0.27386 -0.11906,-0.57152 -0.26458,-0.66146 -0.15478,-0.0957 -0.26458,0.17885 -0.26458,0.66146 0,0.48261 0.1098,0.75712 0.26458,0.66146 0.14552,-0.0899 0.26458,-0.38759 0.26458,-0.66146 z m 0.26459,-1.70417 c 0,-0.27927 -0.50777,-0.39659 -0.65879,-0.15223 -0.0914,0.1479 0.0194,0.2689 0.2463,0.2689 0.22687,0 0.41249,-0.0525 0.41249,-0.11667 z m -0.39688,-1.47083 c 0.0899,-0.14552 0.0374,-0.26458 -0.11667,-0.26458 -0.15411,0 -0.2802,0.11906 -0.2802,0.26458 0,0.14552 0.0525,0.26458 0.11667,0.26458 0.0642,0 0.19027,-0.11906 0.2802,-0.26458 z m 1.45521,-2.26457 c 0,-0.22687 -0.11906,-0.33891 -0.26458,-0.24897 -0.14552,0.0899 -0.26459,0.27556 -0.26459,0.41249 0,0.13693 0.11907,0.24897 0.26459,0.24897 0.14552,0 0.26458,-0.18562 0.26458,-0.41249 z m 13.24173,20.27971 c -0.36317,-0.6786 -0.41228,-1.30388 -1.09881,-13.99278 -0.30153,-5.57307 -0.48188,-10.30581 -0.40076,-10.51719 0.11171,-0.29112 0.65377,-0.38434 2.23497,-0.38434 h 2.08749 l 0.17497,3.24115 c 0.0962,1.78263 0.24755,4.04482 0.33626,5.02708 l 0.16127,1.78594 h 1.78959 c 1.44036,0 1.82328,-0.0878 1.96222,-0.44986 0.0949,-0.24743 0.0396,-2.30126 -0.12289,-4.56406 -0.35219,-4.90294 -0.23959,-5.41586 1.24264,-5.66077 1.79096,-0.29591 2.9284,-0.20595 3.10156,0.24529 0.0883,0.23018 0.16228,1.56963 0.16434,2.97656 0.002,1.40693 0.17169,4.87977 0.37696,7.71742 0.65857,9.10401 0.7884,13.43836 0.41596,13.88712 -0.23733,0.28597 -0.84888,0.40039 -2.13999,0.40039 h -1.8077 l -0.13049,-0.8599 c -0.0718,-0.47294 -0.19935,-2.05052 -0.2835,-3.50573 -0.0842,-1.45521 -0.28116,-3.38997 -0.43782,-4.29948 l -0.28482,-1.65365 h -1.84722 -1.84723 l 0.16053,2.97657 c 0.0883,1.63711 0.2285,4.07789 0.31158,5.42396 l 0.15105,2.44739 -1.41376,0.004 c -0.77756,0.002 -1.67145,0.0727 -1.98641,0.15723 -0.41041,0.11008 -0.6569,-0.004 -0.86999,-0.40196 z m 9.81077,-10.27608 c 0.32911,-0.41964 0.31975,-0.429 -0.0999,-0.0999 -0.44073,0.34564 -0.58089,0.56291 -0.36313,0.56291 0.0549,0 0.2633,-0.20835 0.46302,-0.46302 z m -4.91296,-2.30669 c 0.65772,-0.49747 0.18869,-0.50331 -0.67704,-0.008 -0.42398,0.24237 -0.51338,0.38149 -0.24901,0.3875 0.22685,0.005 0.64357,-0.16543 0.92605,-0.37909 z m 3.98541,-0.48859 c 0.24139,0.0926 0.36463,-0.0559 0.36463,-0.4396 0,-0.71829 -0.4821,-0.58926 -1.01937,0.27282 -0.25567,0.41025 -0.27636,0.53352 -0.0565,0.33691 0.19065,-0.17053 0.51073,-0.24709 0.71128,-0.17013 z m -7.0437,-1.76878 c 0,-0.14552 -0.11203,-0.26458 -0.24897,-0.26458 -0.13693,0 -0.32255,0.11906 -0.41249,0.26458 -0.0899,0.14552 0.0221,0.26458 0.24897,0.26458 0.22687,0 0.41249,-0.11906 0.41249,-0.26458 z m 8.73125,-0.26458 c 0,-0.14552 -0.12609,-0.26459 -0.2802,-0.26459 -0.15411,0 -0.20661,0.11907 -0.11667,0.26459 0.0899,0.14552 0.21602,0.26458 0.2802,0.26458 0.0642,0 0.11667,-0.11906 0.11667,-0.26458 z m -0.66293,-2.11829 c -0.26419,-0.29193 -0.53774,-0.47341 -0.60787,-0.40327 -0.17778,0.17778 0.48213,0.93406 0.81504,0.93406 0.15025,0 0.057,-0.23886 -0.20717,-0.53079 z m -1.32144,0.002 c 0.0899,-0.14552 0.0374,-0.26458 -0.11668,-0.26458 -0.15411,0 -0.2802,0.11906 -0.2802,0.26458 0,0.14552 0.0525,0.26458 0.11668,0.26458 0.0642,0 0.19026,-0.11906 0.2802,-0.26458 z m 0.39929,-1.71688 c -0.17983,-0.21668 -0.4544,-0.3152 -0.61015,-0.21894 -0.1714,0.10593 -0.0812,0.25411 0.22842,0.37537 0.73018,0.28593 0.74412,0.28022 0.38173,-0.15643 z m 0.97207,-1.77231 c -0.0845,-0.21107 -0.14716,-0.14837 -0.15985,0.15985 -0.0115,0.27891 0.0511,0.43519 0.13896,0.34727 0.0879,-0.0879 0.0973,-0.31613 0.0209,-0.50712 z m -1.393,-0.11099 c 0.51691,-0.19836 0.55121,-0.63315 0.0499,-0.63315 -0.20271,0 -0.4371,0.17859 -0.52086,0.39687 -0.17026,0.44369 -0.12663,0.46558 0.47092,0.23628 z m 1.47684,-1.69149 c 0,-0.14552 -0.23812,-0.26458 -0.52916,-0.26458 -0.29104,0 -0.52917,0.11906 -0.52917,0.26458 0,0.14553 0.23813,0.26459 0.52917,0.26459 0.29104,0 0.52916,-0.11906 0.52916,-0.26459 z m -1.32291,-1.05833 c 0,-0.14552 -0.11906,-0.26458 -0.26459,-0.26458 -0.14552,0 -0.26458,0.11906 -0.26458,0.26458 0,0.14552 0.11906,0.26458 0.26458,0.26458 0.14553,0 0.26459,-0.11906 0.26459,-0.26458 z m 10.44091,22.47319 c -0.0955,-0.15453 -0.34252,-3.75617 -0.54892,-8.00364 -0.42008,-8.6448 -0.68998,-12.06981 -0.98929,-12.5541 -0.12321,-0.19935 -0.79922,-0.32795 -1.724,-0.32795 -1.99779,0 -2.45209,-0.3588 -2.61615,-2.06622 -0.12357,-1.28601 -0.0914,-1.37627 0.58096,-1.63192 0.39148,-0.14883 1.52041,-0.27061 2.50874,-0.27061 0.98834,0 3.36479,-0.13123 5.281,-0.29162 1.91621,-0.16039 3.77079,-0.21965 4.12129,-0.13168 0.80871,0.20298 1.02956,0.90601 0.80272,2.55535 l -0.17984,1.30753 h -1.95954 -1.95955 l 0.004,1.25678 c 0.002,0.69122 0.17838,3.9952 0.39119,7.34218 0.21282,3.34698 0.38949,7.663 0.39262,9.59115 l 0.006,3.50573 h -1.96876 c -1.10366,0 -2.04506,-0.12346 -2.14241,-0.28098 z m 1.59763,-19.56277 c 0.0899,-0.14552 0.0374,-0.26459 -0.11668,-0.26459 -0.15411,0 -0.2802,0.11907 -0.2802,0.26459 0,0.14552 0.0525,0.26458 0.11668,0.26458 0.0642,0 0.19026,-0.11906 0.2802,-0.26458 z m 1.07773,-2.91042 c 0.43735,0 0.47214,-0.23492 0.11755,-0.79375 -0.21592,-0.3403 -0.33482,-0.31407 -0.83407,0.18401 -0.51164,0.51046 -0.53676,0.63575 -0.20714,1.03339 0.34531,0.41658 0.38189,0.41772 0.46064,0.0144 0.047,-0.24094 0.25541,-0.43808 0.46302,-0.43808 z m -5.97252,-0.26458 c -0.15576,-0.29104 -0.41653,-0.52917 -0.57948,-0.52917 -0.16296,0 -0.0808,0.23813 0.1826,0.52917 0.26339,0.29104 0.52416,0.52916 0.57949,0.52916 0.0553,0 -0.0268,-0.23812 -0.18261,-0.52916 z m 7.20019,-0.26459 c 0.0641,-0.43656 0.0818,-0.79375 0.0393,-0.79375 -0.21962,0 -0.62688,1.10572 -0.48927,1.32839 0.2506,0.40548 0.32492,0.31719 0.44994,-0.53464 z m -3.09915,-0.79375 c -1.17032,-0.29779 -1.71979,-0.29779 -1.71979,0 0,0.14553 0.56554,0.2505 1.25677,0.23328 1.12182,-0.0279 1.17154,-0.053 0.46302,-0.23328 z m 19.99011,22.37425 c -0.38654,-0.46575 -5.62124,-23.08073 -5.51446,-23.8236 0.0585,-0.40724 0.37069,-0.58528 1.33334,-0.76046 1.50516,-0.27391 2.45599,-0.079 2.70219,0.55389 0.0996,0.25591 0.52417,2.15467 0.9436,4.21946 0.41942,2.06479 1.02663,4.86276 1.34937,6.21771 0.54934,2.30638 0.59942,2.40447 0.78493,1.5375 0.10898,-0.50932 0.45186,-3.42635 0.76196,-6.48229 0.31011,-3.05593 0.60783,-5.69101 0.66162,-5.85572 0.0538,-0.1647 0.70798,-0.44585 1.45377,-0.62476 1.19778,-0.28734 1.41448,-0.27236 1.85738,0.12847 0.27577,0.24956 0.57616,0.82836 0.66753,1.28622 0.0914,0.45785 0.64969,2.97558 1.2407,5.59496 0.59102,2.61937 1.1322,5.03039 1.20263,5.35781 0.14402,0.66953 0.59554,0.81411 0.59554,0.19071 0,-1.33712 0.85326,-11.50579 1.02061,-12.1631 0.20035,-0.78691 0.21974,-0.79442 2.2507,-0.87128 l 2.0486,-0.0775 -0.14818,0.87128 c -0.0815,0.4792 -0.68504,5.97252 -1.3412,12.20739 -0.65616,6.23486 -1.3144,11.5629 -1.46275,11.8401 -0.21799,0.40732 -0.56626,0.504 -1.81553,0.504 -0.99105,0 -1.65447,-0.13096 -1.84863,-0.3649 -0.16656,-0.2007 -0.89488,-2.96231 -1.61849,-6.13693 -0.72361,-3.17462 -1.42704,-5.88342 -1.56319,-6.01957 -0.23572,-0.23572 -0.31697,0.0699 -0.67346,2.53337 -0.0685,0.47295 -0.31134,2.76331 -0.53976,5.0897 -0.50545,5.14764 -0.64038,5.42749 -2.6168,5.42749 -0.90842,0 -1.52984,-0.13631 -1.73202,-0.37992 z m 1.04427,-4.22198 c 0,-0.20271 -0.1786,-0.4371 -0.39688,-0.52086 -0.44369,-0.17026 -0.46558,-0.12663 -0.23628,0.47091 0.19836,0.51692 0.63316,0.55121 0.63316,0.0499 z m 9.525,0.10398 c 0,-0.14552 -0.1786,-0.26458 -0.39688,-0.26458 -0.21828,0 -0.39687,0.11906 -0.39687,0.26458 0,0.14553 0.17859,0.26459 0.39687,0.26459 0.21828,0 0.39688,-0.11906 0.39688,-0.26459 z m -7.54063,-0.26458 c 0.0899,-0.14552 0.0374,-0.26458 -0.11668,-0.26458 -0.15411,0 -0.28019,0.11906 -0.28019,0.26458 0,0.14552 0.0525,0.26458 0.11667,0.26458 0.0642,0 0.19026,-0.11906 0.2802,-0.26458 z m -1.29535,-0.98667 c -0.26896,-0.26896 -0.49087,0.13596 -0.2702,0.49301 0.16669,0.26973 0.22902,0.26994 0.31864,10e-4 0.0613,-0.18383 0.0395,-0.40617 -0.0484,-0.49409 z m -0.99544,-1.65916 c -0.66462,-0.89894 -0.8905,-0.97458 -1.12049,-0.37524 -0.34792,0.90668 -0.17438,1.16899 0.77337,1.16899 h 0.93396 z m 2.1585,0.67707 c 0,-0.0642 -0.11906,-0.19026 -0.26458,-0.2802 -0.14553,-0.0899 -0.26459,-0.0374 -0.26459,0.11668 0,0.15411 0.11906,0.2802 0.26459,0.2802 0.14552,0 0.26458,-0.0525 0.26458,-0.11668 z m -2.79703,-2.68035 c 0.55794,-0.55793 0.53031,-0.73042 -0.2692,-1.68059 -0.83518,-0.99256 -1.62343,-1.14885 -1.1032,-0.21874 0.18313,0.32743 0.48694,0.78896 0.67512,1.02565 0.2843,0.35757 0.27312,0.45682 -0.0661,0.58701 -0.22457,0.0862 -0.4083,0.27947 -0.4083,0.42956 0,0.41256 0.70187,0.32697 1.17172,-0.14289 z m 8.12153,-1.77145 c -0.26131,-0.25936 -0.2917,-0.22897 -0.14812,0.14812 0.0994,0.26094 0.24731,0.40778 0.32877,0.32632 0.0815,-0.0815 1.7e-4,-0.29496 -0.18065,-0.47444 z m -4.87918,-1.30196 c -0.0845,-0.21107 -0.14715,-0.14838 -0.15985,0.15985 -0.0115,0.27891 0.0511,0.43518 0.13897,0.34726 0.0879,-0.0879 0.0973,-0.31612 0.0209,-0.50711 z m -3.8849,-1.5379 c 0,-0.14552 -0.11907,-0.26458 -0.26459,-0.26458 -0.14552,0 -0.26458,0.11906 -0.26458,0.26458 0,0.14553 0.11906,0.26459 0.26458,0.26459 0.14552,0 0.26459,-0.11906 0.26459,-0.26459 z m 12.43541,-1.43959 c 0,-0.0642 -0.11906,-0.19026 -0.26458,-0.2802 -0.14552,-0.0899 -0.26458,-0.0374 -0.26458,0.11668 0,0.15411 0.11906,0.2802 0.26458,0.2802 0.14552,0 0.26458,-0.0525 0.26458,-0.11668 z m -6.94535,-2.41895 c -0.25213,-0.25214 -0.75763,0.15626 -0.56973,0.4603 0.11169,0.18071 0.25968,0.17614 0.4497,-0.0139 0.15578,-0.15577 0.20979,-0.35666 0.12003,-0.44642 z m 1.44192,-0.4278 c -0.14921,-0.14922 -0.41877,-0.18016 -0.59901,-0.0688 -0.24336,0.15041 -0.199,0.29667 0.17233,0.56819 0.55309,0.40443 0.91128,-0.0148 0.42668,-0.49943 z m -1.45958,-1.31951 c -0.0845,-0.21107 -0.14715,-0.14838 -0.15985,0.15985 -0.0115,0.27891 0.0511,0.43518 0.13897,0.34726 0.0879,-0.0879 0.0973,-0.31612 0.0209,-0.50711 z m 13.74559,16.38763 c -0.0932,-1.20055 -0.40864,-6.17141 -0.70109,-11.04636 -0.29244,-4.87495 -0.60623,-9.60768 -0.69731,-10.51719 l -0.16559,-1.65364 h 2.27351 2.27351 l 0.14116,0.85989 c 0.28754,1.7516 0.60936,10.35816 0.41292,11.04308 -0.11187,0.39007 -0.10505,0.88497 0.0152,1.09977 0.34884,0.62335 0.77765,5.56262 0.77765,8.9574 0,3.57878 0.10092,3.43986 -2.49879,3.43986 h -1.66177 z m 0.89034,-8.13594 c 0,-0.14552 -0.11906,-0.26459 -0.26458,-0.26459 -0.14553,0 -0.26459,0.11907 -0.26459,0.26459 0,0.14552 0.11906,0.26458 0.26459,0.26458 0.14552,0 0.26458,-0.11906 0.26458,-0.26458 z m 1.0416,-5.44413 c -0.28685,-0.34562 -0.28107,-0.4582 0.0337,-0.6574 0.23844,-0.15088 0.26255,-0.24188 0.0648,-0.24442 -0.49932,-0.006 -0.68639,0.51225 -0.33672,0.93358 0.17586,0.21191 0.37929,0.38528 0.45205,0.38528 0.0728,0 -0.0235,-0.18766 -0.21382,-0.41704 z m -0.29803,-1.76984 c 0.0456,-0.23485 -0.18999,-0.55546 -0.52917,-0.72028 -0.57654,-0.28015 -0.58273,-0.27411 -0.109,0.10617 0.43687,0.35069 0.4541,0.46157 0.1323,0.85138 -0.3198,0.38737 -0.31615,0.43038 0.0269,0.31707 0.21828,-0.0721 0.43383,-0.32156 0.47899,-0.55434 z m -0.0411,-5.89432 c 0.24636,-0.64202 -0.0423,-0.70419 -0.56869,-0.1225 -0.43835,0.48437 -0.44134,0.53079 -0.0342,0.53079 0.2454,0 0.51669,-0.18373 0.60286,-0.40829 z m 9.25604,21.90568 c -0.19992,-1.05616 -0.43322,-4.46553 -0.73779,-10.78177 -0.14736,-3.05593 -0.32717,-6.41945 -0.39959,-7.47448 l -0.13167,-1.91823 h -1.95416 c -2.1772,0 -2.40694,-0.17003 -2.50281,-1.85235 -0.12018,-2.10904 -0.42314,-1.97298 5.29253,-2.37689 2.11005,-0.14911 4.69966,-0.34651 5.75469,-0.43868 l 1.91823,-0.16756 v 1.99001 c 0,1.84005 -0.0449,2.00203 -0.59532,2.14954 -1.02921,0.27582 -2.56176,0.18136 -3.51422,-0.21661 -1.25833,-0.52576 -1.21144,-1.04795 0.0746,-0.83125 0.82883,0.13965 0.90506,0.1173 0.46302,-0.13574 -0.29104,-0.16661 -0.66838,-0.47632 -0.83854,-0.68826 -0.26623,-0.33161 -0.38613,-0.30858 -0.85989,0.16518 -0.73731,0.73731 -0.69583,0.97103 0.24633,1.38807 0.43827,0.19399 0.85548,0.53743 0.92714,0.7632 0.0717,0.22576 0.25028,2.66662 0.39695,5.42414 0.14667,2.75751 0.37977,6.91866 0.518,9.247 0.13824,2.32833 0.25587,4.73935 0.2614,5.35781 l 0.0101,1.12448 h -2.09564 c -2.07639,0 -2.09691,-0.007 -2.23337,-0.72761 z m 2.21234,-5.88698 c 0,-0.14552 -0.11203,-0.26458 -0.24897,-0.26458 -0.13693,0 -0.32255,0.11906 -0.41249,0.26458 -0.0899,0.14553 0.0221,0.26459 0.24897,0.26459 0.22687,0 0.41249,-0.11906 0.41249,-0.26459 z m -1.81807,-7.73906 c 0.28763,-0.53981 0.27617,-0.56145 -0.12299,-0.23219 -0.2421,0.19973 -0.44019,0.46762 -0.44019,0.59532 0,0.40415 0.23512,0.25255 0.56318,-0.36313 z m -4.00276,-8.79739 c -0.187,-0.22532 -0.39952,-0.35014 -0.47228,-0.27737 -0.0728,0.0728 0.0207,0.31664 0.2077,0.54195 0.18699,0.22531 0.39952,0.35013 0.47228,0.27737 0.0728,-0.0728 -0.0207,-0.31664 -0.2077,-0.54195 z m 4.7625,-0.66146 c 0,-0.14552 -0.0525,-0.26459 -0.11668,-0.26459 -0.0642,0 -0.19026,0.11907 -0.2802,0.26459 -0.0899,0.14552 -0.0374,0.26458 0.11668,0.26458 0.15411,0 0.2802,-0.11906 0.2802,-0.26458 z m -1.45521,-0.26459 c -0.0899,-0.14552 -0.27556,-0.26458 -0.41249,-0.26458 -0.13693,0 -0.24897,0.11906 -0.24897,0.26458 0,0.14553 0.18562,0.26459 0.41249,0.26459 0.22687,0 0.33891,-0.11906 0.24897,-0.26459 z m 10.26757,22.31524 c 0.20602,-1.97107 2.06103,-8.49244 4.22435,-14.85084 1.40474,-4.12881 1.58814,-4.87547 1.25009,-5.08918 -0.2179,-0.13774 -1.6761,-0.25227 -3.24045,-0.2545 l -2.84427,-0.004 v -1.5875 c 0,-0.87312 -0.0298,-1.6768 -0.0661,-1.78594 -0.0892,-0.26758 2.26688,-0.50594 7.27604,-0.7361 l 4.16719,-0.19148 v 1.44626 c 0,1.57805 -0.65755,3.97424 -3.71217,13.52758 -1.60683,5.02537 -1.869,6.08604 -1.55735,6.30063 0.22435,0.15448 1.6223,0.19521 3.48358,0.10151 l 3.10885,-0.15651 v 1.94634 1.94634 l -4.43177,0.32753 c -2.43747,0.18014 -5.19486,0.39819 -6.12752,0.48454 l -1.69574,0.15702 z m 2.56472,-1.67774 c 0,-0.14552 -0.0525,-0.26458 -0.11667,-0.26458 -0.0642,0 -0.19027,0.11906 -0.2802,0.26458 -0.0899,0.14553 -0.0374,0.26459 0.11667,0.26459 0.15411,0 0.2802,-0.11906 0.2802,-0.26459 z m 4.39077,-12.21631 c 0.27721,-0.31606 0.33713,-0.47646 0.13316,-0.35645 -0.24238,0.1426 -0.49446,0.0492 -0.72761,-0.26967 -0.30216,-0.41324 -0.35673,-0.42273 -0.35673,-0.0621 0,0.2342 -0.0723,0.61414 -0.1606,0.84432 -0.24043,0.62653 0.51882,0.51991 1.11178,-0.15613 z m 0.65787,-2.00504 c -0.13613,-0.25466 -0.31989,-0.69194 -0.40835,-0.97173 -0.15226,-0.4816 -0.18374,-0.47601 -0.59068,0.10498 -0.40101,0.57252 -0.397,0.63771 0.0598,0.97173 0.72072,0.527 1.2457,0.46832 0.93923,-0.10498 z m 0.38232,-4.51296 c -0.0815,-0.0815 -0.29495,-1.7e-4 -0.47443,0.18065 -0.25936,0.26131 -0.22897,0.2917 0.14811,0.14811 0.26094,-0.0994 0.40778,-0.2473 0.32632,-0.32876 z m 0.38988,-1.75528 c 0,-0.0642 -0.11907,-0.19026 -0.26459,-0.2802 -0.14552,-0.0899 -0.26458,-0.0374 -0.26458,0.11668 0,0.15411 0.11906,0.2802 0.26458,0.2802 0.14552,0 0.26459,-0.0525 0.26459,-0.11668 z m -1.32292,-0.41249 c 0,-0.14552 -0.11906,-0.26458 -0.26458,-0.26458 -0.14552,0 -0.26459,0.11906 -0.26459,0.26458 0,0.14552 0.11907,0.26458 0.26459,0.26458 0.14552,0 0.26458,-0.11906 0.26458,-0.26458 z m 7.83205,22.55573 c -0.37008,-1.21429 -1.2113,-15.36966 -1.30899,-22.02656 l -0.0408,-2.77813 1.92035,-0.0778 c 1.82321,-0.0738 1.93274,-0.0452 2.16497,0.56559 0.27602,0.726 1.02857,12.63701 1.26054,19.95126 l 0.15314,4.82864 h -2.00407 c -1.67849,0 -2.02699,-0.0752 -2.14517,-0.46302 z m 1.57154,-4.31708 c 0.28476,-0.46076 -0.0396,-0.55834 -0.40245,-0.12109 -0.20869,0.25146 -0.22876,0.40327 -0.0533,0.40327 0.15475,0 0.35985,-0.12698 0.45577,-0.28218 z m -0.76338,-5.40429 c -0.28265,-0.6094 -0.70271,-0.89988 -0.70271,-0.48592 0,0.16921 0.80296,1.14531 0.94215,1.14531 0.0365,0 -0.0712,-0.29673 -0.23944,-0.65939 z m 0.38845,-2.58617 c -0.2613,-0.25936 -0.29169,-0.22897 -0.14811,0.14812 0.0994,0.26094 0.2473,0.40778 0.32877,0.32632 0.0815,-0.0815 1.7e-4,-0.29496 -0.18066,-0.47444 z m 0.56249,-4.07342 c -0.18191,-0.0734 -0.33073,-0.32197 -0.33073,-0.55237 0,-0.23041 -0.0742,-0.34469 -0.16498,-0.25395 -0.25812,0.25812 0.11012,0.98391 0.4874,0.96066 0.26555,-0.0163 0.26735,-0.0498 0.008,-0.15434 z m -1.12448,-1.41227 c 0,-0.14552 -0.11907,-0.26458 -0.26459,-0.26458 -0.14552,0 -0.26458,0.11906 -0.26458,0.26458 0,0.14552 0.11906,0.26458 0.26458,0.26458 0.14552,0 0.26459,-0.11906 0.26459,-0.26458 z m 0.74414,-5.27513 c 0.0661,-0.19844 -0.0331,-0.29766 -0.23151,-0.23151 -0.191,0.0637 -0.39936,0.27203 -0.46302,0.46302 -0.0661,0.19844 0.0331,0.29766 0.23151,0.23151 0.19099,-0.0637 0.39935,-0.27202 0.46302,-0.46302 z m 9.57289,23.035 c -2.08717,-0.6834 -3.50926,-2.0117 -3.94284,-3.68284 -0.76133,-2.93434 -1.38056,-16.47334 -0.82977,-18.14224 0.95458,-2.8924 4.67747,-4.79574 7.58217,-3.8764 2.63087,0.83267 3.77062,2.29689 4.46721,5.73894 0.6125,3.02645 0.45965,3.261 -2.12499,3.261 h -1.97506 l -0.006,-0.85989 c -0.01,-1.30777 -0.50301,-3.17773 -0.97589,-3.70026 -0.48846,-0.53974 -1.74266,-0.62018 -2.12353,-0.1362 -0.14314,0.1819 -0.33232,0.79873 -0.42039,1.37073 -0.20016,1.29994 0.27516,11.94377 0.62113,13.90896 0.30117,1.71076 1.03754,2.50313 2.09467,2.25395 1.14405,-0.26966 1.60738,-1.07609 1.57786,-2.74628 -0.0403,-2.27766 -0.25039,-2.76871 -1.27444,-2.97815 -0.48634,-0.0995 -0.98611,-0.34156 -1.11059,-0.538 -0.34179,-0.53934 -0.2789,-1.91498 0.11198,-2.44954 0.47068,-0.64369 2.33163,-0.96933 4.4557,-0.77968 l 1.75939,0.15709 0.17289,1.38378 c 0.32065,2.56638 0.61354,9.72029 0.42674,10.42336 -0.22641,0.85217 -1.10428,1.04523 -2.02112,0.44448 -0.61446,-0.40261 -0.71483,-0.38819 -1.82431,0.26201 -1.25706,0.73669 -3.48038,1.06498 -4.64033,0.68518 z m 2.25067,-1.09112 c 0.0899,-0.14552 0.0374,-0.26458 -0.11667,-0.26458 -0.15411,0 -0.2802,0.11906 -0.2802,0.26458 0,0.14552 0.0525,0.26458 0.11668,0.26458 0.0642,0 0.19026,-0.11906 0.28019,-0.26458 z m 1.32292,0 c 0.0899,-0.14552 0.0374,-0.26458 -0.11667,-0.26458 -0.15411,0 -0.2802,0.11906 -0.2802,0.26458 0,0.14552 0.0525,0.26458 0.11667,0.26458 0.0642,0 0.19026,-0.11906 0.2802,-0.26458 z m -3.2245,-0.55628 c -0.81298,-0.23521 -1.93487,-1.34034 -1.93487,-1.90596 0,-0.15082 0.1977,-0.49268 0.43935,-0.75969 0.74218,-0.82011 0.19261,-0.83121 -0.72135,-0.0146 -0.85638,0.76517 -0.85857,0.77343 -0.35599,1.34175 0.27813,0.31452 0.71405,0.80997 0.96872,1.10101 0.31867,0.36421 0.77232,0.52173 1.4552,0.50531 l 0.99219,-0.0239 -0.84325,-0.24397 z m -2.80057,-4.40466 c -0.10547,-0.44097 -0.12034,-0.44097 -0.31229,0 -0.11085,0.25467 -0.11085,0.67138 0,0.92605 0.19195,0.44097 0.20682,0.44097 0.31229,0 0.0609,-0.25467 0.0609,-0.67138 0,-0.92605 z m 0.8657,-3.09083 c 0,-0.0629 -0.38696,-0.37143 -0.8599,-0.68572 l -0.8599,-0.57144 0.74236,0.68571 c 0.71515,0.66058 0.97744,0.81393 0.97744,0.57145 z m -1.32292,-2.92844 c 0.27917,-0.33638 0.21868,-0.39687 -0.39688,-0.39687 -0.61555,0 -0.67605,0.0605 -0.39687,0.39687 0.18116,0.21828 0.35975,0.39688 0.39687,0.39688 0.0371,0 0.21572,-0.1786 0.39688,-0.39688 z m -87.3125,26.85521 c 0,-0.14552 -0.11906,-0.26458 -0.26459,-0.26458 -0.14552,0 -0.26458,0.11906 -0.26458,0.26458 0,0.14552 0.11906,0.26459 0.26458,0.26459 0.14553,0 0.26459,-0.11907 0.26459,-0.26459 z m 2.21988,-1.36995 c -0.0859,-0.13902 -0.17405,-0.21447 -0.19586,-0.16768 -0.0218,0.0468 -0.39683,0.49117 -0.8334,0.98751 l -0.79375,0.90243 0.98961,-0.73476 c 0.54429,-0.40411 0.91932,-0.84849 0.8334,-0.9875 z m 6.34247,1.23766 c 0.0838,-0.21828 0.037,-0.39687 -0.10399,-0.39687 -0.14095,0 -0.25628,0.17859 -0.25628,0.39687 0,0.21828 0.0468,0.39688 0.10399,0.39688 0.0572,0 0.17251,-0.1786 0.25628,-0.39688 z m -3.93214,-0.13229 c 0.0899,-0.14552 0.0374,-0.26458 -0.11668,-0.26458 -0.15411,0 -0.2802,0.11906 -0.2802,0.26458 0,0.14552 0.0525,0.26458 0.11668,0.26458 0.0642,0 0.19026,-0.11906 0.2802,-0.26458 z m 6.61458,-0.22284 c -0.29104,-0.0566 -0.61664,-0.23802 -0.72355,-0.40308 -0.14159,-0.2186 -0.19549,-0.21386 -0.19844,0.0175 -0.005,0.4123 0.83165,0.87936 1.18092,0.65904 0.14863,-0.0937 0.0321,-0.21679 -0.25893,-0.27342 z m -3.66318,-0.18545 c 0.21427,-0.55836 -0.14336,-0.85981 -0.4482,-0.3778 -0.3239,0.51217 -0.31741,0.78609 0.0186,0.78609 0.15009,0 0.34339,-0.18373 0.42956,-0.40829 z m -1.76078,-0.12088 c 0,-0.14552 -0.11906,-0.26458 -0.26458,-0.26458 -0.14552,0 -0.26459,0.11906 -0.26459,0.26458 0,0.14552 0.11907,0.26459 0.26459,0.26459 0.14552,0 0.26458,-0.11907 0.26458,-0.26459 z m 10.22106,-0.72238 c 0.48554,0.0928 0.56746,0.0436 0.35444,-0.21309 -0.2446,-0.29474 -1.0148,-0.1831 -2.04891,0.29697 -0.0398,0.0185 0.005,0.2346 0.099,0.48027 0.15276,0.39806 0.21453,0.3851 0.56768,-0.1191 0.27425,-0.39154 0.59074,-0.52859 1.02777,-0.44505 z m 2.74352,0.12842 c 0,-0.14759 -0.17548,-0.11894 -0.39687,0.0648 -0.21828,0.18115 -0.39688,0.44844 -0.39688,0.59396 0,0.14759 0.17549,0.11894 0.39688,-0.0648 0.21828,-0.18116 0.39687,-0.44844 0.39687,-0.59396 z m 21.7256,-1.33419 c -0.21607,-0.21608 -0.29434,-0.18647 -0.29434,0.11135 0,0.52595 0.35578,0.88174 0.48727,0.48727 0.0558,-0.16735 -0.031,-0.43673 -0.19293,-0.59862 z m 7.72377,-0.20362 c 0.0905,-0.34623 0.0296,-0.50674 -0.16758,-0.4411 -0.38056,0.1267 -0.57914,0.98537 -0.22788,0.98537 0.13922,0 0.31718,-0.24492 0.39546,-0.54427 z m 2.30594,0.141 c 0.41585,-0.50106 0.13808,-0.83885 -0.35398,-0.43048 -0.19881,0.165 -0.44611,0.21536 -0.54955,0.11192 -0.10344,-0.10345 -0.10951,0.0167 -0.0135,0.26688 0.21547,0.56152 0.48146,0.57651 0.91702,0.0517 z m 3.69886,-0.52277 c 0.34178,-0.3638 0.56188,-0.66146 0.48912,-0.66146 -0.0728,0 -0.41193,0.29766 -0.7537,0.66146 -0.34178,0.3638 -0.56188,0.66146 -0.48912,0.66146 0.0728,0 0.41193,-0.29766 0.7537,-0.66146 z m 16.78974,-0.67974 c -0.0837,-0.13546 -0.52619,-0.2463 -0.98327,-0.2463 -0.87755,0 -0.74458,0.39016 0.20082,0.58923 0.64707,0.13625 0.98663,-0.0126 0.78245,-0.34293 z m -4.48661,0.0183 c 0.0899,-0.14552 0.0374,-0.26458 -0.11668,-0.26458 -0.15411,0 -0.2802,0.11906 -0.2802,0.26458 0,0.14552 0.0525,0.26459 0.11668,0.26459 0.0642,0 0.19026,-0.11907 0.2802,-0.26459 z m 6.59294,-0.42518 c 0.53092,-0.20373 0.54559,-0.63315 0.0216,-0.63315 -0.21828,0 -0.39687,0.11033 -0.39687,0.24518 0,0.13485 -0.20836,0.29964 -0.46302,0.36618 -0.40801,0.10663 -0.41058,0.12465 -0.0216,0.1517 0.24276,0.0169 0.62972,-0.0416 0.8599,-0.12991 z m 11.66331,-0.36857 c 0.0899,-0.14552 0.0374,-0.26458 -0.11668,-0.26458 -0.15411,0 -0.2802,0.11906 -0.2802,0.26458 0,0.14552 0.0525,0.26459 0.11668,0.26459 0.0642,0 0.19026,-0.11907 0.2802,-0.26459 z m 3.76349,-0.97137 c 0.0656,-0.19714 -0.0949,-0.25812 -0.44109,-0.16757 -0.29935,0.0783 -0.54428,0.25623 -0.54428,0.39545 0,0.35126 0.85867,0.15268 0.98537,-0.22788 z m 18.76903,-1.21144 c -0.0734,-0.1819 -0.13346,-0.0331 -0.13346,0.33073 0,0.3638 0.0601,0.51263 0.13346,0.33073 0.0734,-0.1819 0.0734,-0.47956 0,-0.66146 z m 10.4081,-3.10885 c 0,-0.14553 -0.11906,-0.26459 -0.26458,-0.26459 -0.14552,0 -0.26458,0.11906 -0.26458,0.26459 0,0.14552 0.11906,0.26458 0.26458,0.26458 0.14552,0 0.26458,-0.11906 0.26458,-0.26458 z m -1.05833,-5.40835 c 0,-0.0642 -0.11906,-0.19026 -0.26458,-0.2802 -0.14552,-0.0899 -0.26459,-0.0374 -0.26459,0.11668 0,0.15411 0.11907,0.2802 0.26459,0.2802 0.14552,0 0.26458,-0.0525 0.26458,-0.11668 z m 0.0662,-2.96897 c -0.18191,-0.0734 -0.47956,-0.0734 -0.66146,0 -0.1819,0.0734 -0.0331,0.13346 0.33073,0.13346 0.3638,0 0.51263,-0.0601 0.33073,-0.13346 z m -0.33073,-7.2331 c 0,-0.14552 -0.18562,-0.26459 -0.41249,-0.26459 -0.22687,0 -0.33891,0.11907 -0.24897,0.26459 0.0899,0.14552 0.27556,0.26458 0.41249,0.26458 0.13693,0 0.24897,-0.11906 0.24897,-0.26458 z m -189.44167,-0.11668 c 0,-0.27926 -0.50777,-0.39658 -0.65879,-0.15222 -0.0914,0.14789 0.0194,0.2689 0.2463,0.2689 0.22687,0 0.41249,-0.0525 0.41249,-0.11668 z m -0.61301,-1.52043 c -0.0845,-0.21107 -0.14716,-0.14837 -0.15986,0.15985 -0.0115,0.27892 0.051,0.43519 0.13897,0.34727 0.0879,-0.0879 0.0973,-0.31613 0.0209,-0.50712 z m 189.29275,-4.7869 c -0.41111,-0.41111 -0.64179,-0.0682 -0.42135,0.62633 0.17173,0.54108 0.21045,0.55202 0.44845,0.12674 0.17563,-0.31383 0.1668,-0.55917 -0.0271,-0.75307 z m 0.4496,-1.99724 c 0.055,-0.37345 -0.0554,-0.57459 -0.31511,-0.57459 -0.50616,0 -0.79176,0.43843 -0.4309,0.66146 0.15027,0.0929 0.19517,0.29514 0.0998,0.44948 -0.0995,0.16108 -0.0168,0.229 0.19412,0.15943 0.20216,-0.0667 0.40561,-0.37975 0.45211,-0.69578 z m -190.41851,-1.01478 c 0.32927,-0.39915 0.30762,-0.41062 -0.23219,-0.12298 -0.61567,0.32806 -0.76727,0.56317 -0.36312,0.56317 0.1277,0 0.39559,-0.19808 0.59531,-0.44019 z m 190.20167,-1.52857 c 0,-0.0642 -0.11906,-0.19026 -0.26458,-0.28019 -0.14552,-0.0899 -0.26459,-0.0374 -0.26459,0.11667 0,0.15411 0.11907,0.2802 0.26459,0.2802 0.14552,0 0.26458,-0.0525 0.26458,-0.11668 z m 0.0338,-1.64643 c 0.32927,-0.39915 0.30762,-0.41062 -0.23219,-0.12298 -0.61567,0.32806 -0.76727,0.56317 -0.36312,0.56317 0.1277,0 0.39559,-0.19808 0.59531,-0.44019 z m -186.76344,-2.38087 c -0.1819,-0.0734 -0.47956,-0.0734 -0.66146,0 -0.1819,0.0734 -0.0331,0.13345 0.33073,0.13345 0.3638,0 0.51263,-0.06 0.33073,-0.13345 z m 17.66094,-0.61852 c 0.29461,-0.19039 0.13718,-0.25752 -0.61093,-0.26053 -0.60536,-0.002 -0.94251,0.1016 -0.84428,0.26053 0.20667,0.3344 0.93777,0.3344 1.45521,0 z m 168.14686,-1.03941 c -0.17678,-0.8049 -0.93019,-1.15953 -0.93019,-0.43785 0,0.20616 -0.14883,0.4456 -0.33073,0.5321 -0.1819,0.0865 -0.0497,0.10413 0.29383,0.0392 0.45781,-0.0866 0.66104,0.0214 0.76121,0.40444 0.21882,0.83678 0.40245,0.35708 0.20588,-0.53786 z m -164.70728,0.24566 c 0,-0.14552 -0.0525,-0.26458 -0.11668,-0.26458 -0.0642,0 -0.19026,0.11906 -0.28019,0.26458 -0.0899,0.14552 -0.0374,0.26458 0.11667,0.26458 0.15411,0 0.2802,-0.11906 0.2802,-0.26458 z m 9.92188,-0.26458 c 0.26339,-0.29104 0.41935,-0.52917 0.34659,-0.52917 -0.0728,0 -0.34779,0.23813 -0.61118,0.52917 -0.26339,0.29104 -0.41936,0.52916 -0.3466,0.52916 0.0728,0 0.3478,-0.23812 0.61119,-0.52916 z m 1.93366,-0.0199 c -0.0522,-0.15643 -0.20792,-0.28442 -0.34616,-0.28442 -0.13825,0 -0.29402,0.12799 -0.34617,0.28442 -0.0521,0.15644 0.10363,0.28443 0.34617,0.28443 0.24253,0 0.3983,-0.12799 0.34616,-0.28443 z m 2.05847,-0.971 c -0.28903,-0.28903 -0.48722,0.17062 -0.27971,0.64871 0.19677,0.45333 0.21103,0.45291 0.32066,-0.009 0.0631,-0.26605 0.0447,-0.55379 -0.041,-0.63941 z m 4.60682,0.46168 c 0,-0.14552 -0.12609,-0.26458 -0.28019,-0.26458 -0.15411,0 -0.20662,0.11906 -0.11668,0.26458 0.0899,0.14552 0.21603,0.26458 0.2802,0.26458 0.0642,0 0.11667,-0.11906 0.11667,-0.26458 z m 16.13959,-1.11904 c 0,-0.15486 -0.16812,-0.12914 -0.39688,0.0607 -0.21828,0.18115 -0.39687,0.37059 -0.39687,0.42097 0,0.0504 0.17859,0.0231 0.39687,-0.0607 0.21828,-0.0838 0.39688,-0.2732 0.39688,-0.42097 z m 3.175,0.30968 c 0,-0.15411 -0.12708,-0.20166 -0.28239,-0.10567 -0.1555,0.0961 -0.34771,-0.0752 -0.42774,-0.38126 -0.0799,-0.30569 -0.3308,-0.55579 -0.55748,-0.55579 -0.31732,0 -0.26917,0.15217 0.20927,0.66146 0.65789,0.70029 1.05834,0.84454 1.05834,0.38126 z m 2.64583,0.0156 c 0,-0.14552 -0.24515,-0.26458 -0.54478,-0.26458 -0.29963,0 -0.4712,0.11906 -0.38126,0.26458 0.0899,0.14552 0.33509,0.26458 0.54478,0.26458 0.20969,0 0.38126,-0.11906 0.38126,-0.26458 z m -9.26042,-0.52917 c 0,-0.14552 -0.0525,-0.26458 -0.11667,-0.26458 -0.0642,0 -0.19026,0.11906 -0.2802,0.26458 -0.0899,0.14552 -0.0374,0.26459 0.11668,0.26459 0.1541,0 0.28019,-0.11907 0.28019,-0.26459 z m 12.96459,0 c 0,-0.14552 -0.18562,-0.26458 -0.41249,-0.26458 -0.22687,0 -0.33891,0.11906 -0.24897,0.26458 0.0899,0.14552 0.27556,0.26459 0.41249,0.26459 0.13693,0 0.24897,-0.11907 0.24897,-0.26459 z m 3.175,0 c 0,-0.14552 -0.0525,-0.26458 -0.11668,-0.26458 -0.0642,0 -0.19026,0.11906 -0.2802,0.26458 -0.0899,0.14552 -0.0374,0.26459 0.11668,0.26459 0.15411,0 0.2802,-0.11907 0.2802,-0.26459 z m 5.29166,0 c 0,-0.14552 -0.11906,-0.26458 -0.26458,-0.26458 -0.14552,0 -0.26458,0.11906 -0.26458,0.26458 0,0.14552 0.11906,0.26459 0.26458,0.26459 0.14552,0 0.26458,-0.11907 0.26458,-0.26459 z m -2.35594,-0.54718 c 0.42264,-0.30095 0.76844,-0.6612 0.76844,-0.80054 0,-0.37336 -1.4969,0.46543 -1.67942,0.94106 -0.2087,0.54386 -0.006,0.51264 0.91098,-0.14052 z m 1.44078,0.265 c 0.28477,-0.46076 -0.0396,-0.55834 -0.40244,-0.12108 -0.20869,0.25145 -0.22877,0.40326 -0.0533,0.40326 0.15475,0 0.35984,-0.12698 0.45576,-0.28218 z m 7.71049,-0.56118 c -0.0845,-0.21106 -0.14716,-0.14837 -0.15985,0.15986 -0.0115,0.27891 0.051,0.43518 0.13896,0.34726 0.0879,-0.0879 0.0973,-0.31612 0.0209,-0.50712 z m 2.20051,0.0496 c 0.15576,-0.29104 0.22367,-0.52916 0.15091,-0.52916 -0.0728,0 -0.25973,0.23812 -0.4155,0.52916 -0.15576,0.29105 -0.22367,0.52917 -0.15091,0.52917 0.0728,0 0.25974,-0.23812 0.4155,-0.52917 z m -16.13959,-0.11667 c 0,-0.0642 -0.11906,-0.19026 -0.26458,-0.2802 -0.14552,-0.0899 -0.26458,-0.0374 -0.26458,0.11668 0,0.1541 0.11906,0.28019 0.26458,0.28019 0.14552,0 0.26458,-0.0525 0.26458,-0.11667 z m 29.25503,-1.07891 c -0.76173,-0.82194 -0.94461,-0.82454 -0.94461,-0.0134 0,0.46141 0.16816,0.67077 0.59531,0.74117 0.92637,0.15268 1.00787,-0.0171 0.3493,-0.72773 z m 90.20435,0.66642 c 0.0899,-0.14552 0.0374,-0.26459 -0.11667,-0.26459 -0.15411,0 -0.2802,0.11907 -0.2802,0.26459 0,0.14552 0.0525,0.26458 0.11667,0.26458 0.0642,0 0.19026,-0.11906 0.2802,-0.26458 z m -86.38646,-0.38126 c 0,-0.0642 -0.11906,-0.19026 -0.26458,-0.2802 -0.14552,-0.0899 -0.26458,-0.0374 -0.26458,0.11668 0,0.1541 0.11906,0.28019 0.26458,0.28019 0.14552,0 0.26458,-0.0525 0.26458,-0.11667 z m -1.85208,-0.5604 c 0,-0.22687 -0.11906,-0.3389 -0.26458,-0.24897 -0.14553,0.0899 -0.26459,0.27556 -0.26459,0.41249 0,0.13693 0.11906,0.24897 0.26459,0.24897 0.14552,0 0.26458,-0.18562 0.26458,-0.41249 z m 17.33021,-0.11668 c 0.46709,-0.51613 0.46213,-0.52916 -0.20153,-0.52916 -0.37423,0 -0.7201,-0.10816 -0.76861,-0.24035 -0.14076,-0.38359 -1.08016,-0.45392 -1.20728,-0.0904 -0.0731,0.20908 0.13578,0.33073 0.56787,0.33073 0.50712,0 0.68351,0.13656 0.68351,0.52916 0,0.29105 0.10061,0.52917 0.22357,0.52917 0.12297,0 0.43908,-0.23812 0.70247,-0.52917 z m -26.32605,0 c 0,-0.14552 -0.12608,-0.26458 -0.28019,-0.26458 -0.15411,0 -0.20662,0.11906 -0.11668,0.26458 0.0899,0.14552 0.21603,0.26459 0.2802,0.26459 0.0642,0 0.11667,-0.11907 0.11667,-0.26459 z m 31.86985,-0.30705 c 0.37065,-0.16888 0.67391,-0.52607 0.67391,-0.79375 0,-0.65391 -0.5434,-0.62173 -0.71709,0.0425 -0.0907,0.34696 -0.3609,0.52917 -0.7846,0.52917 -0.36343,0 -0.57466,0.11578 -0.48269,0.26458 0.21167,0.34249 0.48501,0.33364 1.31047,-0.0425 z m -20.22818,-0.3544 c 0,-0.21829 -0.0468,-0.39688 -0.10398,-0.39688 -0.0572,0 -0.17252,0.17859 -0.25628,0.39688 -0.0838,0.21828 -0.037,0.39687 0.10398,0.39687 0.14096,0 0.25628,-0.17859 0.25628,-0.39687 z m 4.7625,-0.16353 c 0,-0.14552 -0.11906,-0.19099 -0.26458,-0.10106 -0.14552,0.0899 -0.26458,0.28259 -0.26458,0.42811 0,0.14552 0.11906,0.191 0.26458,0.10106 0.14552,-0.0899 0.26458,-0.28259 0.26458,-0.42811 z m 1.85209,0.29582 c 0,-0.14552 -0.11907,-0.26459 -0.26459,-0.26459 -0.14552,0 -0.26458,0.11907 -0.26458,0.26459 0,0.14552 0.11906,0.26458 0.26458,0.26458 0.14552,0 0.26459,-0.11906 0.26459,-0.26458 z m 4.7625,-0.85855 c 0,-0.14759 -0.17549,-0.11894 -0.39688,0.0648 -0.21828,0.18115 -0.39687,0.44844 -0.39687,0.59396 0,0.14759 0.17548,0.11894 0.39687,-0.0648 0.21828,-0.18115 0.39688,-0.44844 0.39688,-0.59396 z m 15.875,0.27646 c 0,-0.42741 -0.0782,-0.50384 -0.29445,-0.28763 -0.16194,0.16194 -0.21445,0.42388 -0.11668,0.58208 0.27369,0.44283 0.41113,0.34439 0.41113,-0.29445 z m -2.91042,-0.21166 c 0,-0.29398 -0.17639,-0.52917 -0.39688,-0.52917 -0.48351,0 -0.50042,0.16931 -0.0661,0.66256 0.43592,0.49512 0.46302,0.48731 0.46302,-0.13339 z m 4.7625,0.1479 c 0,-0.0642 -0.11906,-0.19026 -0.26458,-0.28019 -0.14553,-0.0899 -0.26459,-0.0374 -0.26459,0.11667 0,0.15411 0.11906,0.2802 0.26459,0.2802 0.14552,0 0.26458,-0.0525 0.26458,-0.11668 z m 3.54979,-0.31806 c 0.25001,-0.65152 0.0342,-0.69252 -0.50561,-0.096 -0.40602,0.44865 -0.41698,0.53079 -0.0708,0.53079 0.22527,0 0.48465,-0.19563 0.5764,-0.43474 z m 11.26688,-0.88818 c 0,-0.14552 -0.0525,-0.26458 -0.11668,-0.26458 -0.0642,0 -0.19026,0.11906 -0.2802,0.26458 -0.0899,0.14552 -0.0374,0.26459 0.11668,0.26459 0.15411,0 0.2802,-0.11907 0.2802,-0.26459 z m 4.7625,0 c 0,-0.14552 -0.11204,-0.26458 -0.24897,-0.26458 -0.13693,0 -0.32256,0.11906 -0.41249,0.26458 -0.0899,0.14552 0.0221,0.26459 0.24897,0.26459 0.22686,0 0.41249,-0.11907 0.41249,-0.26459 z m 2.25739,-0.54282 c 0.25249,-0.40852 -0.36445,-0.51857 -0.74936,-0.13367 -0.21269,0.21269 -0.4795,0.30308 -0.59291,0.20087 -0.11342,-0.10221 -0.12748,-0.0482 -0.0312,0.12006 0.1819,0.31799 1.14216,0.18707 1.37351,-0.18726 z m 1.97594,-0.51551 c 0,-0.14552 -0.0525,-0.26458 -0.11668,-0.26458 -0.0642,0 -0.19026,0.11906 -0.2802,0.26458 -0.0899,0.14552 -0.0374,0.26458 0.11668,0.26458 0.15411,0 0.2802,-0.11906 0.2802,-0.26458 z m 13.9671,-0.7276 c -0.35998,-0.43521 -0.91108,-0.42147 -1.08317,0.027 -0.0966,0.25177 0.084,0.34973 0.60973,0.33073 0.56558,-0.0204 0.68056,-0.10732 0.47344,-0.35772 z m 15.59458,-0.75517 c -0.0879,-0.0879 -0.31613,-0.0973 -0.50712,-0.0209 -0.21107,0.0845 -0.14838,0.14716 0.15985,0.15985 0.27891,0.0115 0.43518,-0.051 0.34727,-0.13896 z" style="fill:#e11919;stroke-width:.73702037;fill-opacity:1"/><path id="path3969" d="m -298.62367,477.26908 c -0.31068,-1.51113 -2.79996,-42.89952 -2.8104,-46.72756 -0.002,-0.86044 0.10433,-0.88538 5.42201,-1.2676 7.93114,-0.57008 14.36486,-0.80269 15.04535,-0.54397 0.37324,0.14191 0.74071,0.15755 0.8166,0.0348 0.24825,-0.40168 7.94979,-0.94456 34.012,-2.39748 7.93089,-0.44214 18.11073,-1.03964 22.62188,-1.32778 4.51115,-0.28815 11.59536,-0.70681 15.74271,-0.93036 8.76006,-0.47218 31.26313,-1.8008 40.08437,-2.36664 3.34698,-0.2147 8.16901,-0.51288 10.71563,-0.66262 2.54661,-0.14975 5.49341,-0.34612 6.54844,-0.43638 1.6223,-0.13878 1.91823,-0.1012 1.91823,0.24358 0,0.35838 0.0898,0.36287 0.74281,0.0371 0.81503,-0.40659 2.97911,-0.58656 18.96864,-1.57753 5.82084,-0.36075 12.7151,-0.79299 15.32058,-0.96052 5.4883,-0.35291 5.26863,-0.43864 5.54047,2.16223 0.0918,0.87812 0.52833,7.69496 0.97012,15.14853 0.44178,7.45358 0.97787,16.29039 1.1913,19.63737 0.21343,3.34698 0.38921,7.23771 0.39061,8.64607 l 0.003,2.56065 -1.38907,0.15599 c -1.23643,0.13886 -13.78488,0.91144 -34.61656,2.13126 -3.86856,0.22652 -7.97622,0.38977 -9.12813,0.36276 -1.1519,-0.027 -2.3325,0.0249 -2.62354,0.11529 -0.64499,0.20036 -8.3614,0.77894 -20.32659,1.52408 -8.34366,0.51961 -8.98236,0.5276 -9.43489,0.11807 -0.45245,-0.40946 -0.50231,-0.40903 -0.73481,0.006 -0.21793,0.38941 -1.75724,0.53996 -12.18878,1.19212 -6.56664,0.41053 -15.06745,0.87542 -18.89068,1.0331 -3.82323,0.15767 -8.02289,0.4068 -9.33258,0.55362 -1.30969,0.14682 -5.65547,0.44287 -9.65729,0.6579 -4.00183,0.21503 -9.83589,0.55528 -12.96459,0.7561 -5.9489,0.38185 -7.46032,0.33306 -8.3271,-0.26877 -0.28704,-0.19931 -0.82282,-0.35483 -1.19062,-0.3456 l -0.66874,0.0168 0.63373,0.2535 c 0.34855,0.13942 0.5746,0.31262 0.50233,0.38489 -0.0723,0.0723 -1.13134,0.24961 -2.35351,0.39411 -2.91339,0.34444 -30.03597,2.07549 -35.86042,2.28872 l -4.53413,0.166 -0.15793,-0.76819 z m 6.02978,-1.0724 c 0.0835,-0.21757 0.009,-0.65485 -0.1664,-0.97173 -0.30903,-0.55952 -0.32127,-0.56087 -0.4244,-0.047 -0.0584,0.29105 -0.22269,0.67278 -0.36508,0.84831 -0.14239,0.17553 -0.1853,0.43822 -0.0953,0.58376 0.21325,0.34504 0.8574,0.0917 1.05123,-0.41336 z m 1.06084,-0.77302 c 0.51449,-0.51449 0.53493,-0.90714 0.0472,-0.90714 -0.34667,0 -0.68977,0.53718 -0.68977,1.07997 0,0.34715 0.16768,0.30205 0.64256,-0.17283 z m -2.49464,-0.26509 c 0,-0.24639 -0.18001,-0.38136 -0.4411,-0.33072 -0.66377,0.12873 -0.75492,0.747 -0.11011,0.747 0.32499,0 0.55121,-0.17084 0.55121,-0.41628 z m 19.57917,-0.0842 c 0,-0.59134 -1.24413,-1.00706 -1.68736,-0.56383 -0.20747,0.20747 -0.12287,0.33105 0.30286,0.44237 0.32491,0.085 0.59075,0.25967 0.59075,0.38821 0,0.12855 0.17859,0.23373 0.39687,0.23373 0.21828,0 0.39688,-0.22522 0.39688,-0.50048 z m 7.67291,-0.97035 c 0,-0.43658 -0.41815,-0.51034 -0.66145,-0.11667 -0.21577,0.34912 0.10059,0.84457 0.41515,0.65016 0.13547,-0.0837 0.2463,-0.32379 0.2463,-0.53349 z m 3.175,0.42811 c 0,-0.31217 -0.51603,-0.64611 -0.70555,-0.45659 -0.18953,0.18953 0.14442,0.70556 0.45659,0.70556 0.13693,0 0.24896,-0.11204 0.24896,-0.24897 z m -7.29768,-0.17621 c 0.23019,-0.0883 0.41852,-0.26693 0.41852,-0.39688 0,-0.37857 -0.69888,-0.27251 -1.05834,0.1606 -0.34918,0.42074 -0.0902,0.5164 0.63982,0.23628 z m 10.31831,-0.27415 c 0.0918,-0.23911 0.10963,-0.49194 0.0397,-0.56185 -0.2461,-0.2461 -0.94368,0.19108 -0.94368,0.59142 0,0.54168 0.69346,0.519 0.90396,-0.0296 z m 2.00646,-0.15977 0.92604,-0.59253 -0.89706,-0.0875 c -0.95148,-0.0928 -1.81527,0.47422 -1.49988,0.98454 0.24995,0.40443 0.41691,0.36986 1.4709,-0.30454 z m 3.28118,-0.30416 c -0.3382,-0.88133 -2.22285,-1.09782 -2.22285,-0.25534 0,0.51466 0.71916,0.75154 1.1631,0.38311 0.27873,-0.23132 0.39992,-0.20369 0.52392,0.11946 0.0887,0.23122 0.27603,0.34951 0.41622,0.26287 0.1402,-0.0867 0.19402,-0.31619 0.11961,-0.5101 z m 10.16582,-0.24773 c 0.0506,-0.26108 -0.0843,-0.44109 -0.33073,-0.44109 -0.24543,0 -0.41627,0.22621 -0.41627,0.55121 0,0.6448 0.61827,0.55366 0.747,-0.11012 z m -6.73591,-0.715 c -0.35234,-0.35234 -1.02137,0.37689 -0.74944,0.81687 0.13222,0.21393 0.30854,0.1794 0.60675,-0.11881 0.29348,-0.29347 0.33655,-0.5042 0.14269,-0.69806 z m 9.26187,0.57642 c 0.49544,-0.54745 0.27071,-0.87792 -0.82557,-1.214 -0.63638,-0.1951 -0.72014,0.0218 -0.42854,1.10992 0.19391,0.7236 0.65856,0.76216 1.25411,0.10408 z m 6.7812,0.25496 c 0,-0.12995 -0.17859,-0.30481 -0.39687,-0.38857 -0.24175,-0.0928 -0.39688,-5.3e-4 -0.39688,0.23627 0,0.21372 0.1786,0.38858 0.39688,0.38858 0.21828,0 0.39687,-0.10633 0.39687,-0.23628 z m -46.69895,-0.42202 c 4.36562,-0.2155 9.48531,-0.51521 11.37708,-0.66604 1.89177,-0.15083 10.28568,-0.62994 18.65312,-1.06471 8.36745,-0.43476 17.29714,-0.9605 19.84375,-1.16831 5.82989,-0.47574 8.41541,-0.62758 16.02975,-0.94137 3.35934,-0.13844 7.22887,-0.37133 8.59896,-0.51753 2.44635,-0.26105 4.71219,-0.4016 19.29213,-1.19673 4.00182,-0.21825 7.75229,-0.45738 8.33437,-0.53141 0.58209,-0.074 4.68974,-0.31714 9.12813,-0.54022 4.43838,-0.22309 9.66813,-0.52383 11.62167,-0.66831 2.00807,-0.14852 3.6517,-0.16287 3.78155,-0.033 0.12985,0.12985 0.82485,0.0753 1.59902,-0.12552 0.75313,-0.19536 2.20659,-0.35506 3.2299,-0.35489 1.02331,1.8e-4 4.42041,-0.17413 7.54911,-0.38734 8.03723,-0.54772 18.05408,-1.15238 22.09271,-1.3336 4.03506,-0.18106 9.5192,-0.60834 10.42444,-0.81218 l 0.63487,-0.14296 -0.16227,-4.5491 c -0.2607,-7.30871 -1.22631,-23.81821 -1.93583,-33.09806 l -0.15985,-2.09063 -5.19443,0.15773 c -4.87034,0.1479 -12.37867,0.58722 -37.07672,2.16943 -5.60256,0.35891 -12.32959,0.77506 -14.94896,0.92479 -15.01548,0.8583 -50.61355,2.9516 -54.1073,3.18171 -20.6824,1.36224 -33.63939,1.86592 -34.61187,1.34546 -0.47373,-0.25353 -0.57771,-0.23823 -0.57771,0.085 0,0.56605 -0.4828,0.61689 -12.83229,1.35123 -6.11188,0.36343 -13.73188,0.83757 -16.93333,1.05363 -3.20146,0.21606 -6.22569,0.39323 -6.72051,0.3937 l -0.89966,8e-4 0.16854,2.57968 c 0.0927,1.41883 0.5834,9.60438 1.09046,18.19011 0.90303,15.29037 1.14242,18.58397 1.3798,18.98385 0.16923,0.28506 2.36829,0.24717 11.33137,-0.19527 z m 4.40809,-8.00681 c -0.1324,-0.25466 -0.31578,-1.11786 -0.40752,-1.91823 -0.2358,-2.05727 -1.22245,-18.84809 -1.22245,-20.80372 0,-1.8364 0.13169,-1.94383 2.38125,-1.94254 l 1.19063,7.9e-4 1.29909,3.10456 c 1.85207,4.42593 3.90461,8.79299 4.1328,8.79299 0.3973,0 0.43694,-1.42595 0.17914,-6.44388 -0.14535,-2.82927 -0.19111,-5.33479 -0.10169,-5.56783 0.12369,-0.32232 0.53623,-0.4237 1.72422,-0.4237 h 1.56163 l 0.1593,1.52135 c 0.18174,1.73557 0.89064,13.06574 1.18777,18.98386 0.13422,2.67329 0.10918,4.03432 -0.0767,4.16964 -0.15178,0.1105 -0.92933,0.17003 -1.72788,0.1323 l -1.45191,-0.0686 -2.29131,-5.22084 c -2.51462,-5.72963 -3.09362,-6.84659 -3.64426,-7.03014 -0.29267,-0.0976 -0.3338,0.11445 -0.20124,1.0371 0.0916,0.63784 0.24727,3.50701 0.34584,6.37593 l 0.17922,5.21622 -0.72038,0.27389 c -1.10712,0.42092 -2.2223,0.33641 -2.49554,-0.18914 z m 10.68032,-3.7819 c 0.30435,-0.49245 -0.45327,-1.07757 -1.28717,-0.99411 -0.9893,0.099 -1.16257,0.51989 -0.37463,0.91004 0.7894,0.39088 1.45148,0.42437 1.6618,0.0841 z m -1.54507,-2.57753 c 0.1728,-0.10988 0.43774,-0.52478 0.58876,-0.922 0.15102,-0.39722 0.44579,-0.72222 0.65503,-0.72222 0.3129,0 0.32725,-0.14091 0.0808,-0.79375 -0.37084,-0.98246 -0.64584,-1.00423 -0.99762,-0.079 -0.14946,0.39312 -0.76164,1.16703 -1.36039,1.71979 l -1.08864,1.00503 0.90392,-0.004 c 0.49716,-0.002 1.0453,-0.0939 1.2181,-0.20382 z m -1.24022,-2.85689 c 0,-0.23041 -0.14139,-0.37179 -0.31419,-0.31419 -0.4906,0.16353 -0.57197,0.73311 -0.10473,0.73311 0.2304,0 0.41892,-0.18851 0.41892,-0.41892 z m -6.19943,-5.16691 c 0.1,-0.16179 0.0177,-0.39991 -0.18282,-0.52916 -0.29504,-0.19016 -0.29932,-0.27721 -0.0224,-0.45614 0.26761,-0.17294 0.22554,-0.36032 -0.19306,-0.85989 -0.45606,-0.54427 -0.57459,-0.58005 -0.80116,-0.24189 -0.14624,0.21828 -0.26773,0.65484 -0.26995,0.97014 -0.002,0.31529 -0.1442,0.61997 -0.31548,0.67707 -0.17129,0.0571 -0.22379,0.24561 -0.11668,0.41892 0.24584,0.39778 1.65908,0.41335 1.9016,0.021 z m 2.67099,-1.40784 c -0.0875,-0.22806 -0.28192,-0.41466 -0.43201,-0.41466 -0.3044,0 -0.37394,0.86909 -0.0921,1.15094 0.29047,0.29046 0.69826,-0.28243 0.5241,-0.73628 z m -4.13324,-3.30408 c -0.1663,-0.31074 -0.4174,-0.49389 -0.558,-0.407 -0.14059,0.0869 -0.2125,0.23906 -0.15981,0.33814 0.0527,0.0991 0.17761,0.40843 0.27758,0.68742 0.12801,0.35728 0.26467,0.42435 0.46218,0.22684 0.1975,-0.1975 0.19101,-0.44747 -0.022,-0.8454 z m 1.1921,-0.57475 c 0.45911,-0.88781 0.37438,-1.18814 -0.26588,-0.94244 -0.24375,0.0935 -0.40829,0.4799 -0.40829,0.95873 0,1.01342 0.14348,1.00996 0.67417,-0.0163 z m 14.56569,17.15636 c -0.30858,-3.52025 -1.21694,-19.26625 -1.21694,-21.095 v -1.8039 l 1.86775,-0.18757 c 1.02727,-0.10317 1.90608,-0.14501 1.95293,-0.093 0.0977,0.10847 1.17666,16.74914 1.39737,21.55139 l 0.1471,3.20056 -1.02893,0.16996 c -0.56591,0.0935 -1.46143,0.17127 -1.99003,0.17288 l -0.9611,0.003 -0.16815,-1.91823 z m 1.56118,-2.3151 c 0.2412,-0.39028 -0.0924,-0.79245 -0.52093,-0.62801 -0.20443,0.0785 -0.30694,0.31137 -0.2278,0.51761 0.16772,0.43708 0.51517,0.48831 0.74873,0.1104 z m 1.45521,-1.57189 c 0,-0.31217 -0.51603,-0.64611 -0.70556,-0.45659 -0.18952,0.18953 0.14442,0.70556 0.45659,0.70556 0.13694,0 0.24897,-0.11204 0.24897,-0.24897 z m -0.85438,-1.12356 c -0.16353,-0.49059 -0.73312,-0.57196 -0.73312,-0.10473 0,0.23041 0.18852,0.41892 0.41892,0.41892 0.23041,0 0.3718,-0.14138 0.3142,-0.31419 z m -0.73312,-2.50924 c 0,-0.26684 -0.84322,-1.14532 -1.09934,-1.14532 -0.3562,0 -0.25976,0.45519 0.1922,0.90715 0.42727,0.42728 0.90714,0.55326 0.90714,0.23817 z m 0,-3.11407 c 0,-0.70589 -0.39352,-1.1106 -0.66025,-0.67903 -0.21502,0.3479 0.0899,1.32487 0.4135,1.32487 0.13571,0 0.24675,-0.29063 0.24675,-0.64584 z m -0.6831,-2.68976 c 0.41594,-0.15961 0.59941,-0.9031 0.22008,-0.89185 -0.10914,0.003 -0.49609,0.23871 -0.8599,0.52328 -0.50852,0.39778 -0.5594,0.51876 -0.22007,0.52328 0.24276,0.003 0.62971,-0.0664 0.85989,-0.15471 z m 0.37336,-3.10761 c 0.0673,-0.34954 -0.0413,-0.45812 -0.3908,-0.3908 -0.2662,0.0513 -0.52595,0.31102 -0.57722,0.57722 -0.0673,0.34954 0.0413,0.45811 0.3908,0.3908 0.2662,-0.0513 0.52596,-0.31102 0.57722,-0.57722 z m 0.30974,-1.37762 c 0,-0.20969 -0.17859,-0.38126 -0.39687,-0.38126 -0.39853,0 -0.5439,0.55854 -0.22768,0.87476 0.24692,0.24692 0.62455,-0.0515 0.62455,-0.4935 z m 0.66146,-1.39549 c 0,-0.47854 -0.51787,-0.39118 -0.62058,0.10469 -0.0571,0.27588 0.042,0.39684 0.26458,0.32265 0.1958,-0.0653 0.356,-0.25757 0.356,-0.42734 z m -0.70234,-2.27931 c 0.0585,-0.30163 -0.0369,-0.42885 -0.26458,-0.35302 -0.1958,0.0652 -0.39714,0.33075 -0.44741,0.59011 -0.0585,0.30163 0.0369,0.42885 0.26458,0.35302 0.1958,-0.0652 0.39714,-0.33075 0.44741,-0.59011 z m 10.59854,22.85526 c -2.17491,-0.34276 -3.55436,-1.36885 -4.32732,-3.21881 -0.55721,-1.33358 -0.52399,-1.71186 0.1007,-1.14652 0.56619,0.5124 1.34378,0.38984 1.9133,-0.30156 0.3153,-0.38278 0.27869,-0.41161 -0.3302,-0.26003 -0.41829,0.10412 -0.8814,0.0267 -1.18988,-0.19882 -0.32147,-0.23507 -0.61298,-0.27973 -0.80198,-0.12288 -0.21225,0.17616 -0.34548,-0.26392 -0.46721,-1.54323 -0.47867,-5.03073 -0.68459,-8.45616 -0.68838,-11.45108 -0.005,-3.90656 0.26819,-4.64159 2.25759,-6.07543 1.0978,-0.79123 1.52911,-0.93445 3.07766,-1.02195 2.5632,-0.14483 3.43269,0.091 4.81215,1.30526 1.46747,1.29172 2.01924,2.84916 2.01924,5.69955 v 1.92391 l -0.99218,0.27555 c -2.17604,0.60431 -2.51336,0.35373 -2.82629,-2.09958 -0.24498,-1.92066 -0.75583,-2.92029 -1.8565,-3.63283 l -0.90665,-0.58694 -0.65313,0.7762 c -0.84337,1.00229 -1.06058,2.37523 -0.85084,5.3781 0.80095,11.46744 0.87184,11.8986 2.05694,12.51144 0.91926,0.47537 1.93112,0.30879 2.29892,-0.37846 0.13986,-0.26132 0.33744,-1.53984 0.43907,-2.84114 0.10164,-1.3013 0.30288,-2.51483 0.44721,-2.69674 0.16165,-0.20373 0.92263,-0.33073 1.98175,-0.33073 h 1.71934 l -0.10978,3.2974 c -0.1061,3.18689 -0.13724,3.3354 -0.9293,4.43177 -1.34806,1.86597 -3.6217,2.71298 -6.19423,2.30755 z m -2.35558,-2.6025 c 0,-0.13128 0.36612,-0.36633 0.8136,-0.52232 0.44748,-0.15599 0.73811,-0.40576 0.64584,-0.55505 -0.24296,-0.39313 -0.85394,-0.33364 -1.60104,0.15588 -0.72225,0.47324 -0.8734,1.16019 -0.25527,1.16019 0.21828,0 0.39687,-0.10741 0.39687,-0.2387 z m -0.26458,-3.46547 c 0,-0.65183 -0.48819,-0.9438 -0.69163,-0.41364 -0.20846,0.54324 0.0851,1.28642 0.42518,1.07626 0.14655,-0.0906 0.26645,-0.38875 0.26645,-0.66262 z m -0.84107,-1.34545 c 0.30383,-0.48652 0.28826,-0.54088 -0.13176,-0.45999 -0.26196,0.0504 -0.51616,0.29872 -0.56489,0.55171 -0.12154,0.63115 0.27807,0.57853 0.69665,-0.0917 z m 1.10565,-2.75559 c 0,-0.21828 -0.17859,-0.39687 -0.39687,-0.39687 -0.21828,0 -0.39688,0.17859 -0.39688,0.39687 0,0.21828 0.1786,0.39688 0.39688,0.39688 0.21828,0 0.39687,-0.1786 0.39687,-0.39688 z m -1.02415,-3.34969 c -0.19478,-0.51231 -0.44394,-0.65059 -1.21148,-0.67235 -0.62172,-0.0176 -0.92976,0.0813 -0.86389,0.27754 0.0563,0.1677 0.27087,0.3072 0.47682,0.30998 0.20594,0.003 0.66476,0.2084 1.01959,0.45693 0.78198,0.54772 0.89986,0.47195 0.57896,-0.3721 z m 1.02415,-1.28052 c 0,-0.29398 -0.17639,-0.52916 -0.39687,-0.52916 -0.22049,0 -0.39688,0.23518 -0.39688,0.52916 0,0.29399 0.17639,0.52917 0.39688,0.52917 0.22048,0 0.39687,-0.23518 0.39687,-0.52917 z m -1.5875,-1.21267 c 0,-0.64081 -0.10719,-0.9124 -0.33072,-0.83797 -0.62168,0.20699 -0.57054,1.78606 0.0578,1.78606 0.15009,0 0.27288,-0.42664 0.27288,-0.94809 z m 0.28904,-1.56545 c -0.002,-0.14552 -0.24633,-0.30263 -0.54314,-0.34913 -0.53212,-0.0834 -0.71589,0.21698 -0.35411,0.57876 0.25727,0.25727 0.90151,0.0924 0.89725,-0.22963 z m -0.28904,-1.60312 c 0,-0.43658 -0.41815,-0.51034 -0.66145,-0.11667 -0.21577,0.34912 0.10059,0.84457 0.41515,0.65016 0.13547,-0.0837 0.2463,-0.32379 0.2463,-0.53349 z m 8.20209,0 c 0,-0.20969 -0.10633,-0.38126 -0.23628,-0.38126 -0.29203,0 -0.57652,0.68651 -0.37005,0.89299 0.2316,0.23159 0.60633,-0.0847 0.60633,-0.51173 z m -6.66133,-2.05683 c 0.0506,-0.26108 -0.0843,-0.44109 -0.33073,-0.44109 -0.24544,0 -0.41628,0.22622 -0.41628,0.55121 0,0.64481 0.61827,0.55366 0.74701,-0.11012 z m 13.09838,20.1232 c -0.2745,-0.44414 -1.54965,-24.21698 -1.31173,-24.45489 0.10711,-0.10711 1.00947,-0.24079 2.00524,-0.29705 l 1.81049,-0.1023 0.18323,2.87257 c 0.10077,1.57992 0.26193,3.88462 0.35812,5.12154 l 0.17489,2.24896 1.44107,0.0818 c 0.79258,0.045 1.73283,0.009 2.08944,-0.081 l 0.64838,-0.16273 -0.1743,-4.81383 c -0.10573,-2.91991 -0.0751,-4.96624 0.0778,-5.20119 0.16942,-0.26029 0.86475,-0.42196 2.11975,-0.49288 l 1.86762,-0.10553 0.004,2.34496 c 0.002,1.28973 0.17958,4.72622 0.3945,7.63663 0.21492,2.91042 0.4694,7.4459 0.56552,10.07886 l 0.17476,4.78718 -1.22612,0.16806 c -0.67436,0.0924 -1.56768,0.0997 -1.98516,0.0163 l -0.75905,-0.15181 -0.16707,-3.08364 c -0.15005,-2.76976 -0.49595,-5.44171 -0.87017,-6.72167 -0.11195,-0.38293 -0.44993,-0.46302 -1.95401,-0.46302 -1.00025,0 -1.87186,0.0893 -1.93691,0.19844 -0.0651,0.10914 -0.004,2.50153 0.13601,5.31643 0.13985,2.8149 0.21582,5.14976 0.16881,5.18859 -0.047,0.0388 -0.88513,0.14189 -1.86248,0.22903 -1.24309,0.11083 -1.8357,0.0634 -1.97241,-0.15778 z m 9.97852,-10.46223 c -0.39944,-0.13314 -1.10172,0.48006 -0.90827,0.79307 0.0872,0.14109 0.38573,0.0436 0.67885,-0.22165 0.30931,-0.27992 0.4031,-0.51352 0.22942,-0.57142 z m -4.74428,-2.06797 c 0.1707,-0.20568 0.24673,-0.43759 0.16897,-0.51536 -0.22709,-0.22709 -2.10351,0.6484 -1.94374,0.90691 0.20137,0.32582 1.39861,0.0617 1.77477,-0.39155 z m -4.034,-0.24239 c 0.0836,-0.43156 0.039,-0.45099 -0.33073,-0.14411 -0.50569,0.41968 -0.56865,0.91021 -0.0967,0.75305 0.1819,-0.0606 0.37423,-0.33459 0.4274,-0.60894 z m 7.77485,0.17765 c 0.34818,0.19485 0.46286,0.1628 0.46286,-0.12936 0,-0.21361 0.0723,-0.57671 0.1606,-0.80689 0.12088,-0.31502 -0.008,-0.41852 -0.52237,-0.41852 -0.4887,0 -0.7978,0.22205 -1.08665,0.78061 -0.52878,1.02255 -0.51034,1.25003 0.0595,0.73431 0.33496,-0.30313 0.59132,-0.34747 0.92604,-0.16015 z m -7.00288,-2.10464 c 0.079,-0.23984 -0.0773,-0.32465 -0.48771,-0.26458 -0.33224,0.0486 -0.65641,0.24726 -0.7204,0.4414 -0.079,0.23985 0.0773,0.32466 0.48772,0.26459 0.33223,-0.0486 0.65641,-0.24726 0.72039,-0.44141 z m 8.5814,-0.62155 c -0.40416,-0.40416 -0.70237,-0.10594 -0.47822,0.47821 0.13236,0.34491 0.2471,0.37908 0.48248,0.1437 0.23538,-0.23538 0.23437,-0.38328 -0.004,-0.62191 z m -2.00763,-0.93166 c -0.21809,-0.21809 -0.96012,0.13125 -0.96012,0.452 0,0.19568 0.1692,0.19165 0.55183,-0.0131 0.30351,-0.16243 0.48724,-0.35992 0.40829,-0.43887 z m 1.9503,-0.29663 c 0,-0.38062 -1.26042,-1.41962 -1.41626,-1.16747 -0.20911,0.33835 0.57275,1.38593 1.03439,1.38593 0.21003,0 0.38187,-0.0983 0.38187,-0.21846 z m -1.83811,-0.70758 c -0.0207,-0.39272 -0.61267,-0.32057 -0.75,0.0914 -0.0742,0.22255 0.0468,0.32173 0.32266,0.26459 0.24272,-0.0503 0.43503,-0.21048 0.42734,-0.356 z m 0.873,-1.45344 c -0.31253,-0.1261 -0.65056,-0.36246 -0.75116,-0.52524 -0.13403,-0.21687 -0.28192,-0.21381 -0.55333,0.0114 -0.56121,0.46576 -0.19233,0.77854 0.89615,0.75984 0.81921,-0.0141 0.88501,-0.0537 0.40834,-0.24604 z m 0.65016,-1.78771 c -0.1074,-0.5577 -0.57697,-0.52253 -0.69664,0.0522 -0.0499,0.23971 0.0959,0.41085 0.35013,0.41085 0.27251,0 0.40228,-0.1734 0.34651,-0.46302 z m -1.18012,-0.45454 c 0.1814,-0.47273 -0.16623,-0.72654 -0.70955,-0.51805 -0.70924,0.27216 -0.75426,0.90645 -0.0643,0.90645 0.34367,0 0.69191,-0.17478 0.77389,-0.3884 z m 1.0982,-1.46369 c 0,-0.48879 -0.88104,-0.68 -1.28267,-0.27837 -0.22416,0.22416 -0.20024,0.36468 0.0943,0.55364 0.54109,0.34719 1.18842,0.19725 1.18842,-0.27527 z m -1.44124,-1.19062 c -0.0207,-0.39272 -0.61267,-0.32057 -0.75,0.0914 -0.0742,0.22255 0.0468,0.32173 0.32266,0.26459 0.24272,-0.0503 0.43503,-0.21048 0.42734,-0.356 z m 10.4764,21.4974 c -0.0894,-0.61847 -0.24335,-3.72048 -0.34199,-6.89336 -0.15213,-4.8935 -0.1227,-5.75668 0.19395,-5.68854 0.20531,0.0442 0.37329,-0.0983 0.37329,-0.31654 0,-0.21828 -0.1389,-0.39688 -0.30868,-0.39688 -0.5575,0 -0.64017,-0.30316 -0.87176,-3.19655 -0.26898,-3.36065 -0.41309,-3.55032 -2.69728,-3.55032 -1.75937,0 -2.0754,-0.3189 -2.0754,-2.09423 0,-1.32293 -0.40441,-1.22602 6.83712,-1.63846 6.42572,-0.36598 6.17759,-0.43752 6.06395,1.74831 l -0.0688,1.32292 -2.05052,0.0773 c -2.03382,0.0767 -2.05052,0.0831 -2.05046,0.79375 4e-5,0.39407 0.17031,3.63351 0.37837,7.19877 0.20807,3.56526 0.45268,8.1194 0.54359,10.12031 l 0.16529,3.63803 h -1.96402 -1.96403 z m 2.15203,-5.44923 c 0.0758,-0.22771 -0.0514,-0.32306 -0.35303,-0.26458 -0.25936,0.0503 -0.52491,0.25161 -0.59011,0.44741 -0.0758,0.22771 0.0514,0.32305 0.35303,0.26458 0.25936,-0.0503 0.52491,-0.25161 0.59011,-0.44741 z m -0.15407,-3.2688 c -0.24694,-0.24694 -0.38805,-0.24694 -0.635,0 -0.24694,0.24695 -0.17639,0.3175 0.3175,0.3175 0.49389,0 0.56445,-0.0706 0.3175,-0.3175 z m -0.3175,-9.88457 c 0,-0.43658 -0.41816,-0.51034 -0.66146,-0.11668 -0.21577,0.34913 0.1006,0.84457 0.41516,0.65016 0.13546,-0.0837 0.2463,-0.32379 0.2463,-0.53348 z m 1.6069,-2.49793 c 0.58696,0 0.77435,-0.12282 0.77435,-0.50752 0,-0.27914 0.0776,-0.70971 0.17241,-0.95683 0.14886,-0.38791 0.0947,-0.40767 -0.39687,-0.14462 -0.31311,0.16757 -0.57735,0.50884 -0.5872,0.75839 -0.0139,0.35132 -0.0827,0.31936 -0.30501,-0.1416 -0.36485,-0.75651 -0.50079,-0.74713 -1.2846,0.0886 l -0.64144,0.68393 0.66146,0.5375 c 0.57797,0.46965 0.67226,0.48352 0.747,0.10981 0.0554,-0.27694 0.35847,-0.42768 0.8599,-0.42768 z m -3.40607,-0.3175 c -0.24694,-0.24694 -0.3175,-0.17639 -0.3175,0.3175 0,0.49389 0.0706,0.56445 0.3175,0.3175 0.24695,-0.24694 0.24695,-0.38805 0,-0.635 z m -2.96868,-0.22166 c -0.30157,-0.56348 -1.31757,-1.20254 -1.31757,-0.82874 0,0.13101 0.24766,0.55306 0.55036,0.93787 0.61523,0.78215 1.19972,0.69901 0.76721,-0.10913 z m 4.43833,-0.98102 c 0.0663,-0.2019 -0.13073,-0.32434 -0.50872,-0.31608 -0.33933,0.007 -0.94439,-0.0665 -1.34457,-0.16431 -0.55468,-0.13553 -0.72761,-0.0814 -0.72761,0.22789 0,0.22312 0.14883,0.46855 0.33073,0.5454 0.58779,0.24834 2.13869,0.0465 2.25017,-0.2929 z m 19.56064,22.12294 c -0.22076,-0.34469 -1.54237,-5.62734 -2.9369,-11.73921 -1.39453,-6.11188 -2.59355,-11.36507 -2.66448,-11.67377 -0.10939,-0.47602 0.0212,-0.58608 0.8597,-0.72469 2.03374,-0.33618 2.62192,-0.22444 2.93911,0.55835 0.16215,0.40018 0.70942,2.8112 1.21615,5.35781 1.11123,5.58458 1.69389,7.67145 1.99087,7.13058 0.22569,-0.41103 0.54054,-2.79115 1.205,-9.10934 0.24253,-2.30608 0.54605,-4.04301 0.72593,-4.15419 0.17003,-0.10508 0.77093,-0.26907 1.33534,-0.36443 1.34451,-0.22715 1.69452,0.14383 2.15855,2.28787 1.98457,9.16972 2.4707,11.08868 2.80909,11.08868 0.30511,0 0.43718,-1.06978 0.89823,-7.27604 0.22702,-3.05594 0.47178,-5.75043 0.5439,-5.98776 0.1444,-0.47517 1.20087,-0.75912 2.82442,-0.75912 h 1.05531 l -0.15619,1.12448 c -0.0859,0.61847 -0.63964,5.76792 -1.23052,11.44323 -0.59088,5.67532 -1.16252,10.795 -1.27031,11.37709 l -0.19599,1.05833 -1.64617,0.0788 c -1.50098,0.0718 -1.66967,0.0252 -1.9126,-0.52917 -0.14653,-0.33436 -0.80111,-2.96668 -1.45461,-5.8496 -1.20918,-5.33426 -1.591,-6.50247 -1.99299,-6.09768 -0.21742,0.21895 -0.70735,3.83249 -1.30377,9.61616 -0.1702,1.65046 -0.43344,2.92204 -0.64968,3.13828 -0.19996,0.19996 -0.8996,0.42397 -1.55477,0.49782 -1.04097,0.11733 -1.24185,0.0552 -1.59262,-0.49245 z m 1.0608,-3.83997 c 0.10231,-0.26662 -0.0235,-0.57441 -0.32481,-0.79474 -0.64823,-0.474 -1.05956,-0.0598 -0.66773,0.6723 0.35761,0.6682 0.76388,0.71832 0.99254,0.12244 z m 9.52911,0.005 c 0.12916,-0.38795 -0.53485,-0.63933 -0.97319,-0.36842 -0.18735,0.11578 -0.25475,0.34948 -0.14978,0.51933 0.22871,0.37005 0.98329,0.26865 1.12297,-0.15091 z m -7.59603,-0.51766 c 0,-0.46723 -0.56958,-0.38586 -0.73311,0.10473 -0.0576,0.17281 0.0838,0.31419 0.31419,0.31419 0.23041,0 0.41892,-0.18851 0.41892,-0.41892 z m -1.2981,-0.98501 c -0.20948,-0.20948 -0.38074,-0.19679 -0.62013,0.0459 -0.2651,0.26878 -0.22573,0.41316 0.19844,0.72764 0.47323,0.35085 0.53878,0.34599 0.62013,-0.0459 0.05,-0.24103 -0.0393,-0.56846 -0.19844,-0.72763 z m -0.61388,-0.67012 c 0.25742,-0.16336 0.21055,-0.32828 -0.19843,-0.69841 -0.29448,-0.2665 -0.53542,-0.64469 -0.53542,-0.84042 0,-0.19572 -0.18154,-0.35587 -0.40343,-0.35587 -0.45335,0 -1.01329,1.226 -0.8063,1.76542 0.14781,0.38519 1.40826,0.46903 1.94358,0.12928 z m 1.6474,-0.15929 c 0,-0.42138 -0.48005,-0.81438 -0.71175,-0.58268 -0.21766,0.21765 0.12211,0.96394 0.43886,0.96394 0.15009,0 0.27289,-0.17156 0.27289,-0.38126 z m -2.89302,-2.27388 c 0.28664,-0.15341 0.51177,-0.55184 0.51177,-0.90574 0,-0.71334 -1.18237,-2.25995 -1.7277,-2.25995 -0.45586,0 -0.79693,0.5348 -0.4829,0.75718 0.13115,0.0929 0.42825,0.46797 0.66023,0.83355 0.35929,0.5662 0.36733,0.71557 0.0542,1.00805 -0.70326,0.65694 0.0286,1.07842 0.98437,0.56691 z m 11.88885,-0.6742 c 0,-0.46723 -0.56958,-0.38586 -0.73311,0.10473 -0.0576,0.17281 0.0838,0.31419 0.31419,0.31419 0.23041,0 0.41892,-0.18851 0.41892,-0.41892 z m -3.175,-1.00389 c 0,-0.20046 -0.17859,-0.51269 -0.39687,-0.69385 -0.32977,-0.27369 -0.39688,-0.24188 -0.39688,0.18809 0,0.2846 0.0794,0.59684 0.17639,0.69385 0.29549,0.29549 0.61736,0.19743 0.61736,-0.18809 z m -5.29166,-1.86886 c 0,-0.35522 -0.11907,-0.71943 -0.26459,-0.80937 -0.15436,-0.0954 -0.26458,0.17364 -0.26458,0.64585 0,0.44515 0.11906,0.80936 0.26458,0.80936 0.14552,0 0.26459,-0.29063 0.26459,-0.64584 z m 9.31333,-0.72999 c -0.24694,-0.24695 -0.38806,-0.24695 -0.635,0 -0.24694,0.24694 -0.17639,0.3175 0.3175,0.3175 0.49389,0 0.56444,-0.0706 0.3175,-0.3175 z m -13.0175,-0.72522 c 0,-0.35729 -0.48232,-0.60497 -0.79807,-0.40982 -0.14789,0.0914 -0.2004,0.27702 -0.11667,0.41249 0.19861,0.32136 0.91474,0.31928 0.91474,-0.003 z m 12.43542,-1.30614 c 0,-0.1277 -0.168,-0.3716 -0.37332,-0.54201 -0.41463,-0.34411 -0.8387,0.0469 -0.55273,0.50962 0.2015,0.32602 0.92605,0.35137 0.92605,0.0324 z m -8.52731,-1.04112 c 0.0576,-0.1728 -0.0838,-0.31419 -0.31419,-0.31419 -0.23041,0 -0.41892,0.18852 -0.41892,0.41892 0,0.46724 0.56958,0.38587 0.73311,-0.10473 z m 1.51585,-1.37615 c 0,-0.56713 -0.7688,-0.48522 -0.8803,0.0938 -0.0681,0.35359 0.0397,0.46135 0.39325,0.39325 0.26787,-0.0516 0.48705,-0.27076 0.48705,-0.48705 z m 1.45521,-0.26096 c 0,-0.35277 -0.17639,-0.52916 -0.52917,-0.52916 -0.5099,0 -0.717,0.51773 -0.35278,0.88194 0.36422,0.36422 0.88195,0.15713 0.88195,-0.35278 z m -1.32292,-1.47082 c 0,-0.20969 -0.1786,-0.38126 -0.39688,-0.38126 -0.39852,0 -0.5439,0.55853 -0.22768,0.87475 0.24692,0.24692 0.62456,-0.0515 0.62456,-0.49349 z m 13.65575,16.61822 c -0.085,-0.83674 -0.27594,-3.54542 -0.42432,-6.01927 -0.14838,-2.47385 -0.44772,-7.19369 -0.66519,-10.48853 -0.21748,-3.29483 -0.39541,-6.1821 -0.39541,-6.41614 0,-0.35554 0.34821,-0.42554 2.11667,-0.42554 h 2.11667 v 0.72521 c 0,0.39886 0.13723,2.97546 0.30497,5.72577 0.21894,3.5899 0.22429,5.12976 0.019,5.45855 -0.1573,0.25189 -0.18514,0.56256 -0.0619,0.69037 0.45615,0.47294 1.23407,10.08622 0.9287,11.47656 -0.17311,0.7881 -0.18873,0.79438 -1.97957,0.79438 h -1.80508 z m 1.32776,-2.84963 c -0.0897,-0.23378 -0.28879,-0.34738 -0.44241,-0.25244 -0.19181,0.11855 -0.18058,0.29157 0.0358,0.55233 0.38444,0.46323 0.62993,0.28217 0.40657,-0.29989 z m -0.69601,-5.68318 c 0,-0.29104 -0.11204,-0.52917 -0.24897,-0.52917 -0.35516,0 -0.60542,0.48158 -0.41249,0.79375 0.27652,0.44742 0.66146,0.29345 0.66146,-0.26458 z m 0.48555,-2.72733 c -0.20032,-0.37431 -0.34949,-0.45896 -0.42255,-0.2398 -0.1657,0.49711 0.15489,1.17513 0.46501,0.98346 0.17612,-0.10884 0.16165,-0.36228 -0.0425,-0.74366 z m 0.76077,-2.56407 c -0.0761,-0.2909 -0.0304,-0.59558 0.10143,-0.67708 0.13186,-0.0815 0.23975,-0.26021 0.23975,-0.39714 0,-0.39098 -0.69396,-0.29113 -1.06245,0.15287 -0.27292,0.32885 -0.24733,0.49706 0.1409,0.92604 0.60088,0.66397 0.75491,0.66272 0.58037,-0.005 z m -0.36398,-1.63174 c 0.34407,-0.5464 -0.17986,-1.27895 -0.91474,-1.27895 -0.67839,0 -0.62786,0.4519 0.0755,0.67514 0.50696,0.16091 0.52206,0.20973 0.13229,0.42785 -0.24199,0.13543 -0.43997,0.3681 -0.43997,0.51706 0,0.40843 0.83047,0.16145 1.14692,-0.3411 z m -0.0765,-6.06411 c 0.16243,-0.3035 0.23128,-0.61587 0.15301,-0.69414 -0.24747,-0.24747 -0.91312,0.13691 -1.21548,0.70186 -0.24874,0.46479 -0.21405,0.54411 0.23797,0.54411 0.29104,0 0.66206,-0.24832 0.8245,-0.55183 z m 9.02263,18.08048 c -0.33926,-4.83954 -0.40476,-9.51601 -0.12942,-9.24067 0.28479,0.28479 0.88424,-0.37195 0.88424,-0.96874 0,-0.52341 -0.0247,-0.52875 -0.45502,-0.0984 -0.43031,0.43031 -0.4725,0.37232 -0.77677,-1.06778 -0.17695,-0.83755 -0.331,-2.11812 -0.34233,-2.84573 -0.0388,-2.49364 -0.0578,-2.51354 -2.395,-2.51354 h -2.05532 l -0.18632,-1.49119 c -0.13637,-1.09153 -0.0957,-1.54722 0.15189,-1.70022 0.18601,-0.11495 1.35746,-0.28407 2.60322,-0.37579 1.24577,-0.0917 3.94954,-0.30997 6.00838,-0.48498 l 3.74335,-0.3182 0.1747,1.54415 c 0.11724,1.03621 0.0719,1.66799 -0.13773,1.92061 -0.58583,0.70588 -4.48096,0.35377 -4.48096,-0.40507 0,-0.16722 0.24744,-0.15272 0.66863,0.0392 0.49902,0.22737 0.74486,0.22842 0.96913,0.004 0.22426,-0.22426 0.13855,-0.36994 -0.33791,-0.57427 -0.35112,-0.15059 -0.85176,-0.4229 -1.11253,-0.60515 -0.40434,-0.28259 -0.54998,-0.234 -0.98947,0.3301 -0.51526,0.66135 -0.51524,0.66155 0.12564,1.2288 0.35254,0.31204 0.77632,0.61246 0.94174,0.6676 0.19698,0.0657 0.38649,1.74141 0.54922,4.85661 0.13666,2.616 0.36,6.48277 0.49633,8.59282 0.13632,2.11005 0.25435,4.7592 0.26229,5.88698 l 0.0144,2.05053 h -1.94187 -1.94187 z m 2.48886,-1.94129 c 0.0978,-0.1582 0.0503,-0.41509 -0.10546,-0.57087 -0.33017,-0.33017 -1.1891,0.23476 -0.94859,0.62391 0.20138,0.32584 0.83974,0.29373 1.05405,-0.053 z m -0.41112,-8.06878 c 0,-0.46724 -0.56959,-0.38587 -0.73312,0.10473 -0.0576,0.1728 0.0838,0.31419 0.3142,0.31419 0.2304,0 0.41892,-0.18851 0.41892,-0.41892 z m -5.02708,-8.27132 c 0,-0.12297 -0.22631,-0.42838 -0.5029,-0.6787 -0.59277,-0.53644 -1.05597,-0.0977 -0.54582,0.51699 0.34596,0.41685 1.04872,0.52522 1.04872,0.16171 z m 4.43189,-1.0332 c 0.0646,-0.19398 -0.11778,-0.33073 -0.4411,-0.33073 -0.32499,0 -0.55121,0.17084 -0.55121,0.41628 0,0.48627 0.82562,0.4151 0.99231,-0.0856 z m 2.97644,0.0467 c 0,-0.24639 -0.18002,-0.38137 -0.4411,-0.33073 -0.66377,0.12873 -0.75492,0.747 -0.11012,0.747 0.325,0 0.55122,-0.17083 0.55122,-0.41627 z m -4.29397,-0.32787 c 0.0628,-0.18848 -0.16875,-0.31419 -0.57878,-0.31419 -0.70947,0 -0.93025,0.38637 -0.35277,0.61736 0.45743,0.18298 0.80748,0.0691 0.93155,-0.30317 z m 10.1148,22.59015 c 0,-1.42854 1.4276,-6.60705 3.71655,-13.48149 1.15736,-3.47592 2.10429,-6.46566 2.10429,-6.64387 0,-0.37468 -1.93396,-0.6566 -4.52764,-0.66001 l -1.74951,-0.002 -0.17542,-1.4926 c -0.0965,-0.82093 -0.13118,-1.53685 -0.0771,-1.59094 0.16578,-0.16577 6.52974,-0.60826 8.83973,-0.61463 2.08682,-0.006 2.1845,0.0208 2.33888,0.63591 0.2191,0.87298 -0.54805,3.77757 -3.18475,12.05809 -1.22793,3.8563 -2.31074,7.33888 -2.40625,7.73906 l -0.17364,0.72761 h 3.46826 3.46827 v 1.70075 1.70075 l -1.38906,0.13883 c -2.1341,0.21338 -8.73701,0.69308 -9.53883,0.69308 -0.63668,0 -0.71378,-0.0981 -0.71378,-0.90816 z m 2.52442,-1.75527 c 0.24351,-0.39401 -0.0388,-0.60823 -0.5454,-0.41383 -0.23378,0.0897 -0.35095,0.28301 -0.26038,0.42956 0.21446,0.34701 0.58608,0.33975 0.80578,-0.0157 z m 2.17194,-9.30896 c -0.0606,-0.18191 -0.269,-0.33073 -0.46302,-0.33073 -0.19403,0 -0.40239,0.14882 -0.46303,0.33073 -0.0656,0.19674 0.12201,0.33072 0.46303,0.33072 0.34101,0 0.5286,-0.13398 0.46302,-0.33072 z m 2.46276,-3.40217 c 0.16065,-0.30017 0.20661,-0.62486 0.10214,-0.72154 -0.10447,-0.0967 -0.24311,-0.0269 -0.30807,0.15496 -0.18652,0.52225 -0.60319,0.38517 -0.60319,-0.19844 0,-0.29104 -0.11367,-0.52917 -0.25259,-0.52917 -0.31444,0 -0.65673,1.71561 -0.41903,2.10022 0.23518,0.38053 1.09669,-0.0884 1.48074,-0.80603 z m 0.5138,-1.38238 c 0,-0.19403 -0.0893,-0.44208 -0.19844,-0.55122 -0.10914,-0.10914 -0.21332,-0.30758 -0.23151,-0.44097 -0.0182,-0.13339 -0.0479,-0.3616 -0.0661,-0.50712 -0.0483,-0.38612 -0.54123,-0.3234 -0.99067,0.12605 -0.29223,0.29223 -0.32156,0.51968 -0.11643,0.90298 0.41913,0.78314 1.60319,1.13047 1.60319,0.47028 z m 0.14745,-4.52039 c 0.60577,-0.44294 0.29117,-0.92245 -0.34283,-0.52253 -0.49545,0.31252 -0.76039,0.89778 -0.40641,0.89778 0.12984,0 0.46699,-0.16886 0.74924,-0.37525 z m 0.36217,-2.42643 c -0.17041,-0.20533 -0.41432,-0.37332 -0.54202,-0.37332 -0.35801,0 -0.27466,0.73441 0.0985,0.86829 0.52988,0.19007 0.78016,-0.0893 0.44347,-0.49497 z m -1.21094,0.032 c 0.16965,-0.4421 -0.22453,-0.78304 -0.6216,-0.53764 -0.39559,0.24448 -0.31906,0.92604 0.10399,0.92604 0.20271,0 0.43563,-0.17478 0.51761,-0.3884 z m 7.75623,21.22434 c -0.28761,-2.47079 -0.8943,-13.09459 -1.16344,-20.37292 l -0.11496,-3.10886 h 1.85863 c 1.02225,0 1.91952,0.0985 1.99395,0.21896 0.0744,0.12043 0.32566,3.48394 0.5583,7.47448 0.23264,3.99054 0.53285,9.04146 0.66714,11.22427 0.13429,2.18282 0.24727,4.41524 0.25106,4.96094 l 0.007,0.99219 h -1.94795 -1.94795 z m 1.77091,-3.16231 c 0.15597,-0.24769 0.19923,-0.53469 0.0961,-0.63779 -0.20941,-0.20941 -1.24903,0.63645 -1.24903,1.01623 0,0.39033 0.84305,0.1136 1.1529,-0.37844 z m 1.09605,-1.53405 c -0.12801,-0.20712 -0.28021,-0.22249 -0.4566,-0.0461 -0.14552,0.14552 -0.17817,0.40439 -0.0726,0.57527 0.12801,0.20712 0.28021,0.22249 0.4566,0.0461 0.14552,-0.14552 0.17817,-0.40439 0.0726,-0.57527 z m -1.65364,-3.62699 c -0.1819,-0.0667 -0.33073,-0.28995 -0.33073,-0.4961 0,-0.20615 -0.24515,-0.37483 -0.54478,-0.37483 -0.57232,0 -0.51987,0.25259 0.23481,1.13074 0.30066,0.34983 0.4756,0.39192 0.68736,0.16536 0.20358,-0.21779 0.19035,-0.33827 -0.0467,-0.42517 z m 0.0133,-3.0058 c -0.57068,-0.96609 -0.95104,-1.01472 -0.59412,-0.076 0.38339,1.00841 0.5203,1.18025 0.80174,1.00631 0.1444,-0.0892 0.0565,-0.4833 -0.20762,-0.93035 z m 1.12206,-0.52856 c 0.28821,-0.46635 -0.0156,-0.53173 -0.55937,-0.12037 -0.44764,0.33866 -0.45526,0.38675 -0.0624,0.39414 0.24607,0.005 0.52588,-0.11857 0.62181,-0.27377 z m -0.52448,-2.23977 c -0.58648,-0.44359 -0.94162,-0.49863 -0.94162,-0.14593 0,0.27353 0.46591,0.5033 1.05833,0.52192 0.29575,0.009 0.26601,-0.0865 -0.11671,-0.37599 z m 0.26729,-0.94721 c 0.1,-0.16179 0.0686,-0.37015 -0.0698,-0.46302 -0.13839,-0.0929 -0.34483,-0.40698 -0.45875,-0.69802 -0.20214,-0.51644 -0.21372,-0.515 -0.48135,0.0598 -0.40666,0.8735 0.5237,1.88794 1.00993,1.1012 z m -1.20891,-1.5423 c 0,-0.35729 -0.48232,-0.60497 -0.79807,-0.40983 -0.14789,0.0914 -0.2004,0.27703 -0.11667,0.41249 0.19861,0.32137 0.91474,0.31928 0.91474,-0.003 z m 1.05833,-3.08038 c 0,-0.46723 -0.56958,-0.38586 -0.73311,0.10473 -0.0576,0.17281 0.0838,0.3142 0.31419,0.3142 0.23041,0 0.41892,-0.18852 0.41892,-0.41893 z m -0.43459,-2.01578 c 0.15597,-0.24768 0.19279,-0.54112 0.0818,-0.6521 -0.28228,-0.28227 -1.08402,0.27173 -1.19261,0.82409 -0.11608,0.59047 0.71133,0.46236 1.11079,-0.17199 z m 8.80198,22.41892 c -1.35454,-0.48282 -2.76201,-1.87918 -3.0658,-3.04159 -0.6755,-2.58471 -1.37865,-15.86657 -0.95854,-18.10594 0.24989,-1.33205 2.24977,-3.35722 3.75744,-3.80494 2.4927,-0.74025 5.37608,0.0373 6.68034,1.80137 0.67866,0.91794 1.70121,4.64623 1.57512,5.74297 -0.0821,0.71381 -0.12891,0.73304 -1.96872,0.80827 l -1.88464,0.0771 -0.2811,-1.89393 c -0.19645,-1.32356 -0.45949,-2.0838 -0.87346,-2.52445 -0.80537,-0.85728 -1.94093,-0.83578 -2.51981,0.0477 -0.39731,0.60637 -0.42654,1.34236 -0.27582,6.94531 0.18075,6.71938 0.48981,9.42388 1.16181,10.16642 0.60535,0.66891 2.23897,0.61657 2.87864,-0.0922 0.4075,-0.45154 0.5017,-0.95327 0.49186,-2.61983 -0.0137,-2.32183 -0.27628,-2.83568 -1.51145,-2.95794 -0.65023,-0.0644 -0.86464,-0.2393 -1.02249,-0.83426 -0.45696,-1.7223 0.719,-2.55405 3.60444,-2.54938 1.82151,0.003 2.44448,0.2128 2.61173,0.8798 0.26182,1.04412 0.75651,10.21334 0.58739,10.88719 -0.1302,0.51873 -0.33503,0.66333 -0.93959,0.66333 -0.4252,0 -0.84667,-0.11906 -0.93661,-0.26458 -0.26352,-0.42639 -0.96981,-0.30728 -2.35995,0.39799 -1.4779,0.74978 -3.14238,0.84496 -4.75079,0.27164 z m 3.0097,-0.81754 c 0,-0.43658 -0.41816,-0.51034 -0.66146,-0.11667 -0.21577,0.34912 0.1006,0.84457 0.41516,0.65016 0.13546,-0.0837 0.2463,-0.32379 0.2463,-0.53349 z m 1.3626,0.0156 c 0,-0.13824 -0.12799,-0.29401 -0.28443,-0.34616 -0.15643,-0.0521 -0.28442,0.10363 -0.28442,0.34616 0,0.24254 0.12799,0.39831 0.28442,0.34617 0.15644,-0.0521 0.28443,-0.20792 0.28443,-0.34617 z m -2.61115,-0.24776 c 0.0319,-0.13627 -0.32206,-0.34623 -0.78649,-0.46657 -0.46442,-0.12035 -1.08644,-0.55872 -1.38226,-0.97416 -0.5353,-0.75176 -0.53538,-0.75758 -0.0155,-1.22808 0.65116,-0.58929 0.66651,-0.91988 0.0427,-0.91988 -0.26381,0 -0.82936,0.36603 -1.25677,0.8134 -0.67358,0.70505 -0.72375,0.85484 -0.37659,1.12448 0.22029,0.17109 0.6043,0.62983 0.85338,1.01942 0.24908,0.38959 0.72369,0.76279 1.0547,0.82932 0.89371,0.17963 1.80105,0.0834 1.86682,-0.19793 z m -3.3043,-4.38221 c -0.12956,-1.10815 -0.60211,-0.73808 -0.67541,0.52893 -0.0649,1.1219 -0.0452,1.1601 0.34195,0.6617 0.22595,-0.29091 0.37601,-0.82669 0.33346,-1.19063 z m -0.1056,-4.14755 c -1.24106,-0.99308 -1.68079,-0.70042 -0.50586,0.33668 0.66876,0.59032 1.09319,0.81044 1.16239,0.60285 0.0599,-0.17984 -0.23549,-0.60263 -0.65653,-0.93953 z m -0.2582,-2.50263 c -0.16537,-0.26757 -1.69794,-0.31417 -1.69794,-0.0516 0,0.0977 0.19792,0.3963 0.43982,0.6636 0.40882,0.45174 0.47366,0.45538 0.91981,0.0516 0.26399,-0.23891 0.41623,-0.53753 0.33831,-0.6636 z m -110.33059,28.04691 c -0.20873,-0.33774 -0.64027,-0.0148 -0.64027,0.47918 0,0.33633 0.0736,0.35254 0.39397,0.0867 0.21667,-0.17983 0.32751,-0.43448 0.2463,-0.56588 z m 22.64307,-0.75946 c 0,-0.29104 -0.11204,-0.52916 -0.24897,-0.52916 -0.35516,0 -0.60542,0.48157 -0.41249,0.79375 0.27652,0.44742 0.66146,0.29344 0.66146,-0.26459 z m 1.71979,-0.40737 c 0.87407,-0.75708 0.98924,-0.96193 0.66146,-1.17664 -0.55054,-0.36063 -0.79375,-0.33108 -0.79375,0.0964 0,0.20046 -0.1851,0.51809 -0.41132,0.70584 -0.50901,0.42244 -1.00438,1.31447 -0.72247,1.30099 0.11426,-0.005 0.684,-0.42243 1.26608,-0.9266 z m 7.01146,0.12717 c 0,-0.28245 -0.11906,-0.51355 -0.26459,-0.51355 -0.14552,0 -0.26458,0.30469 -0.26458,0.67708 0,0.384 0.11452,0.60629 0.26458,0.51355 0.14553,-0.0899 0.26459,-0.39462 0.26459,-0.67708 z m -3.8436,0.0272 c 0.086,-0.13916 0.31912,-0.19058 0.51802,-0.11425 0.1989,0.0763 0.44513,0.004 0.54718,-0.16145 0.26632,-0.43091 -0.0306,-0.62903 -0.58363,-0.38942 -0.26094,0.11305 -0.64277,0.21706 -0.84853,0.23112 -0.51274,0.0351 -0.69564,0.68703 -0.19273,0.68703 0.22182,0 0.47368,-0.11386 0.55969,-0.25303 z m 2.63407,-0.16274 c 0.48787,-0.48787 0.52672,-0.80735 0.12814,-1.05368 -0.3495,-0.21601 -0.65111,0.0799 -0.89108,0.87414 -0.20985,0.69457 0.16071,0.78177 0.76294,0.17954 z m 4.38453,0.15119 c 0,-0.24387 -0.36396,-0.35497 -0.65007,-0.19844 -0.0665,0.0364 -0.28645,-0.16025 -0.48878,-0.43696 -0.26375,-0.3607 -0.4232,-0.41358 -0.56334,-0.18684 -0.1075,0.17394 -0.0516,0.48963 0.12431,0.70154 0.36042,0.43429 1.57788,0.52742 1.57788,0.1207 z m 3.33221,-0.71982 c 0.49514,-0.62097 0.63277,-0.67102 1.00213,-0.36448 0.37278,0.30938 0.42816,0.27882 0.42816,-0.23625 0,-0.52525 -0.0964,-0.5729 -0.8599,-0.42485 -0.47294,0.0917 -1.00872,0.18459 -1.19062,0.20641 -0.34082,0.0409 -0.47927,1.53899 -0.14223,1.53899 0.10367,0 0.44678,-0.32392 0.76246,-0.71982 z m 3.44441,0.0501 c 0.24134,-0.36834 0.3529,-0.75529 0.2479,-0.85989 -0.19875,-0.19799 -1.20369,0.88263 -1.20369,1.29434 0,0.46222 0.52447,0.22382 0.95579,-0.43445 z m 22.32755,-1.28226 c 0,-0.53528 -0.69985,-1.05985 -0.92594,-0.69403 -0.26155,0.4232 0.051,1.05851 0.52076,1.05851 0.22285,0 0.40518,-0.16402 0.40518,-0.36448 z m 7.27604,-0.42927 c 0.0924,-0.29104 0.27899,-0.52917 0.4147,-0.52917 0.13572,0 0.24676,-0.11906 0.24676,-0.26458 0,-0.37574 -0.60653,-0.32753 -1.18305,0.094 -0.30027,0.21956 -0.42569,0.52734 -0.32346,0.79375 0.22772,0.59343 0.64147,0.54739 0.84505,-0.094 z m 2.29427,0.0913 c 0.26612,-0.24083 0.48385,-0.59802 0.48385,-0.79375 0,-0.42856 -0.68913,-0.4746 -0.9435,-0.063 -0.12668,0.20497 -0.24612,0.18743 -0.3981,-0.0585 -0.35623,-0.57639 -0.54608,-0.0978 -0.25985,0.655 0.31021,0.81591 0.46404,0.85174 1.1176,0.26027 z m 4.6409,-0.85548 c 0.33421,0.33421 0.95981,0.0652 0.72644,-0.31242 -0.47893,-0.77493 -2.76682,0.30577 -2.76682,1.30693 0,0.2709 0.2856,0.12584 0.87281,-0.4433 0.64144,-0.62171 0.95095,-0.76783 1.16757,-0.55121 z m -9.97788,0.65355 c 0,-0.0609 -0.0723,-0.29899 -0.1606,-0.52917 -0.22686,-0.59118 -0.63315,-0.52018 -0.63315,0.11065 0,0.29398 0.17639,0.52917 0.39687,0.52917 0.21829,0 0.39688,-0.0498 0.39688,-0.11065 z m 1.85208,-0.4029 c 0,-0.35729 -0.48232,-0.60497 -0.79806,-0.40983 -0.1479,0.0914 -0.2004,0.27703 -0.11668,0.41249 0.19862,0.32137 0.91474,0.31928 0.91474,-0.003 z m 24.02817,-0.74322 c -0.11456,-0.60474 -1.80317,-0.82692 -1.80317,-0.23725 0,0.44456 0.38415,0.64907 1.27617,0.67938 0.44803,0.0152 0.59093,-0.10466 0.527,-0.44213 z m -4.449,-0.19844 c 0,-0.21828 -0.17859,-0.39687 -0.39688,-0.39687 -0.21828,0 -0.39687,0.17859 -0.39687,0.39687 0,0.21828 0.17859,0.39688 0.39687,0.39688 0.21829,0 0.39688,-0.1786 0.39688,-0.39688 z m 6.46507,-0.12574 c 0.74596,-0.28362 0.88877,-0.73629 0.30318,-0.961 -0.45601,-0.17499 -1.79529,0.65282 -1.59099,0.98339 0.18629,0.30142 0.44808,0.29687 1.28781,-0.0224 z m 1.95485,-0.62379 c 0.12381,-0.63839 -0.39392,-0.54351 -0.56303,0.10318 -0.0905,0.34623 -0.0296,0.50673 0.16758,0.4411 0.17045,-0.0568 0.3484,-0.30168 0.39545,-0.54428 z m 10.10091,-0.20891 c 0,-0.31898 -0.72454,-0.29363 -0.92604,0.0324 -0.28598,0.46272 0.1381,0.85372 0.55272,0.50962 0.20533,-0.17041 0.37332,-0.41432 0.37332,-0.54202 z m 3.1924,-0.24149 c 0.63788,-0.34139 0.66564,-0.78579 0.0487,-0.78039 -0.67191,0.006 -1.22123,0.4191 -1.01047,0.76011 0.22407,0.36257 0.31843,0.36455 0.96172,0.0203 z m 1.30552,-0.43558 c 0,-0.33634 -0.0736,-0.35254 -0.39396,-0.0867 -0.21668,0.17983 -0.32752,0.43448 -0.2463,0.56588 0.20873,0.33773 0.64026,0.0148 0.64026,-0.47918 z m 11.01476,0.0426 c -0.0897,-0.23378 -0.28879,-0.34738 -0.44241,-0.25244 -0.1918,0.11855 -0.18058,0.29157 0.0358,0.55233 0.38445,0.46323 0.62993,0.28217 0.40657,-0.29989 z m 6.97286,-0.58995 c -0.002,-0.25466 -0.10641,-0.62456 -0.23151,-0.822 -0.31808,-0.50199 -0.64185,0.0754 -0.42515,0.75822 0.20635,0.65016 0.66217,0.69443 0.65666,0.0638 z m 10.19166,-3.5076 c 0.0906,-0.14655 -0.0266,-0.33985 -0.26038,-0.42956 -0.50658,-0.1944 -0.78891,0.0198 -0.5454,0.41383 0.2197,0.35548 0.59132,0.36274 0.80578,0.0157 z m -1.19178,-5.67106 c 0,-0.20969 -0.11084,-0.44976 -0.2463,-0.53348 -0.31456,-0.19441 -0.63093,0.30104 -0.41516,0.65016 0.2433,0.39366 0.66146,0.3199 0.66146,-0.11668 z m 0.3851,-2.77469 c 0.18565,-0.30039 -0.8036,-0.64784 -1.1808,-0.41472 -0.1492,0.0922 -0.20277,0.27849 -0.11904,0.41395 0.19686,0.31853 1.10313,0.31907 1.29984,8e-4 z m -1.17885,-6.47303 c 0,-0.3973 -0.64222,-0.7531 -0.89788,-0.49745 -0.18659,0.18659 0.33567,0.86601 0.66569,0.86601 0.12771,0 0.23219,-0.16585 0.23219,-0.36856 z m -188.88805,-1.08664 c -0.002,-0.14552 -0.24633,-0.30263 -0.54314,-0.34913 -0.53212,-0.0834 -0.71589,0.21698 -0.35411,0.57876 0.25727,0.25727 0.90151,0.0924 0.89725,-0.22963 z m 189.61565,0.0661 c -0.0606,-0.1819 -0.32852,-0.33073 -0.59531,-0.33073 -0.26679,0 -0.53468,0.14883 -0.59531,0.33073 -0.0698,0.20946 0.14846,0.33073 0.59531,0.33073 0.44685,0 0.66513,-0.12127 0.59531,-0.33073 z m -189.99354,-1.63586 c -0.0875,-0.22806 -0.28192,-0.41466 -0.43201,-0.41466 -0.3044,0 -0.37394,0.86909 -0.0921,1.15094 0.29046,0.29046 0.69826,-0.28243 0.5241,-0.73628 z m 188.94072,0.0649 c -0.16353,-0.4906 -0.73311,-0.57197 -0.73311,-0.10473 0,0.23041 0.18851,0.41892 0.41892,0.41892 0.23041,0 0.37179,-0.14139 0.31419,-0.31419 z m -188.85187,-2.97748 c 0,-0.42706 -0.37473,-0.74332 -0.60632,-0.51173 -0.20648,0.20648 0.078,0.89298 0.37005,0.89298 0.12995,0 0.23627,-0.17156 0.23627,-0.38125 z m 189.12852,-1.38428 c -0.12194,-1.03006 -0.74518,-1.12088 -0.74518,-0.1086 0,0.56414 0.12785,0.8158 0.41445,0.8158 0.29372,0 0.39006,-0.20601 0.33073,-0.7072 z m 0.3029,-1.91947 c 0.53404,-0.99787 -0.32941,-1.81115 -1.02853,-0.96876 -0.22635,0.27273 -0.23022,0.42252 -0.0144,0.55593 0.16251,0.10044 0.23156,0.34916 0.15345,0.55272 -0.21806,0.56823 0.57742,0.44312 0.88944,-0.13989 z m -190.45292,-1.3193 c 0.34355,-0.27852 0.53905,-0.5923 0.43445,-0.6973 -0.22763,-0.2285 -1.52961,0.57604 -1.52961,0.9452 0,0.40035 0.41006,0.30752 1.09516,-0.2479 z m 190.33204,-1.61215 c 0.0906,-0.14655 -0.0266,-0.33985 -0.26038,-0.42956 -0.50659,-0.19439 -0.78891,0.0198 -0.54541,0.41383 0.21971,0.35549 0.59132,0.36274 0.80579,0.0157 z m -0.2799,-1.41026 c 0.73216,-0.53538 0.42336,-1.08061 -0.31795,-0.56137 -0.58637,0.41071 -0.79579,0.91517 -0.37992,0.91517 0.11771,0 0.43175,-0.15921 0.69787,-0.3538 z m -189.50248,-1.28221 c -0.40415,-0.40415 -0.70237,-0.10594 -0.47821,0.47821 0.13235,0.34491 0.2471,0.37909 0.48248,0.14371 0.23538,-0.23538 0.23436,-0.38329 -0.004,-0.62192 z m 3.38226,-1.26937 c 0,-0.31696 -1.27737,-0.66794 -1.52601,-0.4193 -0.2299,0.22989 0.46267,0.66954 1.06299,0.67479 0.25466,0.002 0.46302,-0.11274 0.46302,-0.25549 z m 185.60656,-1.58273 c -0.16458,-1.19662 -0.25659,-1.35262 -0.75583,-1.28146 -0.37751,0.0538 -0.54167,0.23937 -0.48875,0.55248 0.0661,0.39114 -0.0466,0.44167 -0.66146,0.29657 -0.56186,-0.13258 -0.67085,-0.0995 -0.45056,0.13662 0.15982,0.17133 0.63607,0.33743 1.05833,0.3691 0.66405,0.0498 0.77929,0.17771 0.85317,0.94692 0.0588,0.61229 0.17063,0.80412 0.35896,0.6158 0.16871,-0.16872 0.20172,-0.79564 0.0861,-1.63603 z m -180.31489,0.91623 c 0,-0.21828 -0.1786,-0.39687 -0.39688,-0.39687 -0.41316,0 -0.52492,0.31292 -0.22048,0.61736 0.30443,0.30444 0.61736,0.19268 0.61736,-0.22049 z m 12.17083,0.15585 0.66146,-0.18828 -0.57792,-0.31451 c -0.7807,-0.42487 -1.93562,-0.40204 -1.93562,0.0383 0,0.7153 0.51622,0.84477 1.85208,0.46453 z m 3.28521,-0.98747 c 0.0918,-0.23911 0.10737,-0.4942 0.0347,-0.56687 -0.21062,-0.21063 -0.94824,0.50748 -0.78784,0.76701 0.22704,0.36735 0.57039,0.27611 0.75314,-0.20014 z m 4.06249,-0.0448 c 0.0576,-0.17281 -0.0838,-0.31419 -0.31419,-0.31419 -0.23041,0 -0.41893,0.18851 -0.41893,0.41892 0,0.46724 0.56959,0.38587 0.73312,-0.10473 z m 5.75064,-0.0512 c 0.2642,-0.29194 0.40245,-0.60871 0.30722,-0.70393 -0.19294,-0.19295 -1.23473,0.66019 -1.23473,1.01114 0,0.38626 0.42832,0.24439 0.92751,-0.30721 z m 2.1152,-0.26659 c 0,-0.21628 -0.26789,-0.43129 -0.59531,-0.4778 -0.57912,-0.0822 -0.82642,0.42671 -0.40978,0.84335 0.30825,0.30825 1.00509,0.0548 1.00509,-0.36555 z m 2.20763,-0.67395 c -0.14384,-0.74195 -0.75242,-0.78241 -0.75242,-0.05 0,0.35168 0.0814,0.72077 0.1808,0.82021 0.28093,0.28094 0.67298,-0.2473 0.57162,-0.77018 z m 1.00193,0.27534 c -0.0897,-0.23378 -0.2888,-0.34737 -0.44241,-0.25244 -0.19181,0.11855 -0.18058,0.29157 0.0358,0.55233 0.38445,0.46324 0.62993,0.28217 0.40658,-0.29989 z m 3.53732,-0.11131 c 0,-0.35729 -0.48232,-0.60497 -0.79807,-0.40983 -0.14789,0.0914 -0.2004,0.27703 -0.11667,0.41249 0.19861,0.32137 0.91474,0.31928 0.91474,-0.003 z m 10.58333,-0.26459 c 0,-0.31217 -0.51603,-0.64611 -0.70556,-0.45658 -0.18952,0.18952 0.14442,0.70555 0.45659,0.70555 0.13694,0 0.24897,-0.11203 0.24897,-0.24897 z m 1.74953,-0.68533 c 0.58399,-0.89127 0.2054,-1.22313 -0.43883,-0.38466 -0.5646,0.73483 -0.64293,1.05438 -0.25846,1.05438 0.14216,0 0.45594,-0.30137 0.69729,-0.66972 z m 1.42547,0.40513 c 0,-0.14552 -0.11203,-0.26458 -0.24897,-0.26458 -0.13693,0 -0.32255,0.11906 -0.41249,0.26458 -0.0899,0.14552 0.0221,0.26459 0.24897,0.26459 0.22687,0 0.41249,-0.11907 0.41249,-0.26459 z m 8.06979,-0.28663 c 0,-0.21221 -0.31565,-0.41114 -0.7276,-0.45854 -0.82615,-0.0951 -1.05584,0.62176 -0.26458,0.82573 0.67612,0.17428 0.99218,0.0573 0.99218,-0.36719 z m -6.10705,0.12603 c 0.4324,-0.16592 0.59131,-0.89773 0.19494,-0.89773 -0.12297,0 -0.43908,0.23813 -0.70247,0.52917 -0.47849,0.52872 -0.28189,0.67149 0.50753,0.36856 z m 3.59351,-0.10398 c 0,-0.14552 -0.17859,-0.26458 -0.39687,-0.26458 -0.21829,0 -0.39688,-0.16586 -0.39688,-0.36857 0,-0.42408 -0.71634,-0.76884 -1.10211,-0.53042 -0.36654,0.22654 0.82217,1.42815 1.41281,1.42815 0.26568,0 0.48305,-0.11906 0.48305,-0.26458 z m 6.08542,-0.41577 c 0,-0.40098 -0.59671,-1.17173 -0.90714,-1.17173 -0.27897,0 -0.1547,0.949 0.1663,1.27 0.43761,0.43761 0.74084,0.39739 0.74084,-0.0983 z m 3.3987,-0.23194 c 0.0585,-0.30163 -0.0369,-0.42885 -0.26458,-0.35302 -0.1958,0.0652 -0.39713,0.33074 -0.44741,0.59011 -0.0585,0.30163 0.0369,0.42884 0.26458,0.35302 0.1958,-0.0652 0.39714,-0.33075 0.44741,-0.59011 z m 5.20026,0.0965 c 0,-0.20616 -0.20369,-0.35907 -0.45265,-0.33981 -0.24895,0.0193 -0.44321,-0.0403 -0.43169,-0.13229 0.0619,-0.49427 -0.084,-0.59392 -0.43858,-0.29961 -0.50101,0.41581 -0.52105,1.08938 -0.0268,0.8997 0.20356,-0.0781 0.45259,-0.009 0.55341,0.15457 0.24167,0.39102 0.79627,0.19422 0.79627,-0.28256 z m 5.15937,0.15434 c 0,-0.21829 -0.17859,-0.39688 -0.39687,-0.39688 -0.21828,0 -0.39688,0.17859 -0.39688,0.39688 0,0.21828 0.1786,0.39687 0.39688,0.39687 0.21828,0 0.39687,-0.17859 0.39687,-0.39687 z m -7.49945,-0.54264 c 0.97956,-0.74715 1.131,-1.17716 0.41457,-1.17716 -0.71256,0 -1.64637,0.75886 -1.64637,1.33792 0,0.67154 0.16963,0.6494 1.2318,-0.16076 z m 4.20304,0.12816 c 0.28822,-0.46635 -0.0156,-0.53174 -0.55936,-0.12037 -0.44764,0.33866 -0.45526,0.38675 -0.0625,0.39414 0.24607,0.005 0.52589,-0.11857 0.62181,-0.27377 z m -8.96572,-0.63245 c -0.0862,-0.22455 -0.35746,-0.40828 -0.60286,-0.40828 -0.40717,0 -0.40419,0.0464 0.0342,0.53079 0.52642,0.58169 0.81505,0.51951 0.56869,-0.12251 z m 14.11421,0.0988 c 0,-0.64481 -0.61827,-0.55366 -0.747,0.11011 -0.0506,0.26109 0.0843,0.4411 0.33073,0.4411 0.24544,0 0.41627,-0.22622 0.41627,-0.55121 z m 1.95607,0.1327 c 0.28012,-0.72998 0.18447,-0.98901 -0.23627,-0.63982 -0.43312,0.35945 -0.53917,1.05833 -0.1606,1.05833 0.12995,0 0.30854,-0.18833 0.39687,-0.41851 z m 13.85443,-0.83826 c 0.0597,-0.1819 -0.0911,-0.33073 -0.33509,-0.33073 -0.24403,0 -0.50597,-0.23812 -0.58208,-0.52917 -0.19696,-0.75319 -0.82875,-0.65495 -1.03347,0.16069 -0.11439,0.45577 -0.0488,0.77082 0.1934,0.92844 0.49858,0.32453 1.6236,0.17777 1.75724,-0.22923 z m 89.62712,0.19657 c 0.0906,-0.14655 -0.0266,-0.33985 -0.26038,-0.42956 -0.50658,-0.1944 -0.78891,0.0198 -0.5454,0.41382 0.2197,0.35549 0.59132,0.36275 0.80578,0.0157 z m -86.51875,-0.26458 c 0.0906,-0.14655 -0.0266,-0.33986 -0.26038,-0.42957 -0.50658,-0.19439 -0.78891,0.0198 -0.54541,0.41383 0.21971,0.35549 0.59132,0.36275 0.80579,0.0157 z m -1.87287,-0.43925 c 0.0931,-0.24262 0.0651,-0.54532 -0.0623,-0.67268 -0.29586,-0.29585 -0.94916,0.46523 -0.719,0.83762 0.25178,0.40739 0.58897,0.3362 0.78128,-0.16494 z m 17.41598,-0.3016 c 0.66246,-0.5689 0.57131,-0.92718 -0.19843,-0.78003 -0.46265,0.0884 -0.66146,0.01 -0.66146,-0.26205 0,-0.23285 -0.1556,-0.32878 -0.3884,-0.23944 -0.21362,0.082 -0.45998,0.0332 -0.54745,-0.1083 -0.20469,-0.3312 -0.65165,-0.0586 -0.65165,0.3975 0,0.19272 0.24696,0.41498 0.5488,0.49391 0.30184,0.0789 0.61303,0.38914 0.69154,0.68935 0.146,0.55829 0.37723,0.52171 1.20705,-0.19094 z m -26.25989,-0.0227 c 0,-0.12995 -0.1786,-0.30481 -0.39688,-0.38857 -0.24175,-0.0928 -0.39687,-4.2e-4 -0.39687,0.23628 0,0.21371 0.17859,0.38857 0.39687,0.38857 0.21828,0 0.39688,-0.10633 0.39688,-0.23628 z m 31.62621,-0.1471 c 0.62415,-0.26078 0.91754,-0.55689 0.91754,-0.92604 0,-0.64691 -0.98982,-0.76449 -1.22724,-0.14579 -0.0838,0.21828 -0.4414,0.39687 -0.79475,0.39687 -0.56047,0 -0.60632,0.0675 -0.35926,0.52917 0.33807,0.63169 0.30797,0.62869 1.46371,0.14579 z m 65.74046,-0.0135 c 0,-0.22048 -0.23519,-0.39687 -0.52917,-0.39687 -0.5856,0 -0.71692,0.40931 -0.19844,0.61852 0.57576,0.23232 0.72761,0.18606 0.72761,-0.22165 z m -85.98959,-0.54478 c 0,-0.38401 -0.11452,-0.60629 -0.26458,-0.51355 -0.14552,0.0899 -0.26458,0.39462 -0.26458,0.67707 0,0.28246 0.11906,0.51355 0.26458,0.51355 0.14552,0 0.26458,-0.30468 0.26458,-0.67707 z m 6.74803,0.41062 c 0.0906,-0.14655 -0.0266,-0.33985 -0.26038,-0.42956 -0.50658,-0.19439 -0.78891,0.0198 -0.5454,0.41383 0.2197,0.35549 0.59132,0.36274 0.80578,0.0157 z m -1.88247,-0.41423 c 0.11134,-0.29016 0.0265,-0.39026 -0.2805,-0.33073 -0.24209,0.047 -0.48972,0.2342 -0.55029,0.4161 -0.16197,0.48648 0.64309,0.40376 0.83079,-0.0854 z m 19.74069,-0.53386 c 0,-0.72031 -0.66744,-1.13426 -1.11202,-0.68968 -0.20056,0.20055 -0.15695,0.40847 0.15007,0.71549 0.23803,0.23803 0.43279,0.55037 0.43279,0.69408 0,0.14372 0.11906,0.18772 0.26458,0.0978 0.14552,-0.0899 0.26458,-0.45789 0.26458,-0.81767 z m -13.22386,0.28211 c 0.18408,-0.2218 0.26332,-0.47463 0.1761,-0.56185 -0.27095,-0.27095 -0.97515,0.13341 -0.97515,0.55994 0,0.51822 0.36982,0.5191 0.79905,0.002 z m 16.13428,-0.28024 c 0,-0.82886 -0.62137,-0.73814 -0.74601,0.10892 -0.0561,0.38158 0.0549,0.57459 0.33073,0.57459 0.27015,0 0.41528,-0.23888 0.41528,-0.68351 z m -19.31458,0.022 c 0,-0.21828 -0.1786,-0.39688 -0.39688,-0.39688 -0.21828,0 -0.39687,0.1786 -0.39687,0.39688 0,0.21828 0.17859,0.39687 0.39687,0.39687 0.21828,0 0.39688,-0.17859 0.39688,-0.39687 z m 20.90208,0.0156 c 0,-0.42138 -0.48005,-0.81438 -0.71175,-0.58268 -0.21766,0.21765 0.12211,0.96394 0.43886,0.96394 0.15009,0 0.27289,-0.17156 0.27289,-0.38126 z m 3.71629,-0.17056 c 0.16243,-0.30351 0.23129,-0.61587 0.15302,-0.69415 -0.24747,-0.24746 -0.91313,0.13691 -1.21548,0.70186 -0.24875,0.46479 -0.21406,0.54411 0.23797,0.54411 0.29104,0 0.66206,-0.24832 0.82449,-0.55182 z m 52.31474,0.0723 c 0.0576,-0.17281 -0.0838,-0.3142 -0.31419,-0.3142 -0.23041,0 -0.41892,0.18852 -0.41892,0.41893 0,0.46723 0.56958,0.38586 0.73311,-0.10473 z m -53.12061,-0.82775 c 0,-0.35728 -0.48232,-0.60496 -0.79807,-0.40982 -0.14789,0.0914 -0.2004,0.27702 -0.11668,0.41249 0.19862,0.32137 0.91475,0.31928 0.91475,-0.003 z m 12.03854,-0.2361 c 0,-0.47854 -0.51787,-0.39118 -0.62058,0.10469 -0.0572,0.27589 0.042,0.39684 0.26458,0.32266 0.1958,-0.0653 0.356,-0.25757 0.356,-0.42735 z m 4.7625,-0.0477 c 0,-0.56714 -0.76879,-0.48522 -0.8803,0.0938 -0.0681,0.35359 0.0397,0.46134 0.39325,0.39325 0.26787,-0.0516 0.48705,-0.27076 0.48705,-0.48705 z m -1.45521,-0.37764 c 0,-0.42705 -0.37473,-0.74331 -0.60633,-0.51172 -0.20647,0.20648 0.078,0.89298 0.37005,0.89298 0.12995,0 0.23628,-0.17156 0.23628,-0.38126 z m 3.65525,-0.21405 c 0.0607,-0.32029 -0.0814,-0.46302 -0.46085,-0.46302 -0.30171,0 -0.54857,0.11906 -0.54857,0.26458 0,0.14552 -0.17859,0.26459 -0.39687,0.26459 -0.21828,0 -0.39688,0.1266 -0.39688,0.28134 0,0.49328 1.70619,0.16448 1.80317,-0.34749 z m 11.52168,-0.0661 c 0.0928,-0.24176 5.3e-4,-0.39688 -0.23627,-0.39688 -0.21372,0 -0.38858,0.17859 -0.38858,0.39688 0,0.21828 0.10633,0.39687 0.23628,0.39687 0.12995,0 0.30481,-0.17859 0.38857,-0.39687 z m -9.48839,-0.35278 c 0,-0.47854 -0.51787,-0.39118 -0.62058,0.10469 -0.0572,0.27588 0.042,0.39684 0.26458,0.32265 0.1958,-0.0653 0.356,-0.25757 0.356,-0.42734 z m 13.62604,-0.31799 c 0,0.15064 0.1786,0.27389 0.39688,0.27389 0.60074,0 0.47594,-0.46516 -0.25295,-0.94275 -0.74362,-0.48724 -1.20226,-0.31996 -1.20226,0.43851 0,0.44087 0.083,0.47845 0.52917,0.23966 0.35877,-0.19201 0.52916,-0.19501 0.52916,-0.009 z m 16.07508,-1.11517 c -0.0597,-0.1819 -0.44982,-0.37062 -0.86687,-0.41938 -0.6659,-0.0779 -0.71587,-0.0376 -0.41021,0.33073 0.41345,0.49819 1.43484,0.56909 1.27708,0.0886 z" style="fill:#e11919;stroke-width:.73702037;fill-opacity:1"/></g></g></svg>