<svg width="21.015959mm" height="9.5mm" version="1.1" viewBox="0 0 21.015958 9.4999998" xmlns="http://www.w3.org/2000/svg"><g transform="matrix(.12320468 0 0 .12320468 34.549019 -62.394619)"><path d="m-123.6 583.39c-2.5421-.1876-19.096-1.1283-22.357-1.2704-6.8651-.2993-35.892-1.7383-42.73-2.1183-3.8563-.2143-12.965-.6311-20.241-.9263s-16.325-.7127-20.108-.9278c-3.7835-.2151-11.701-.6329-17.595-.9284-12.706-.6371-26.966-1.5117-30.295-1.8582-1.3097-.1363-2.5842-.2499-2.8323-.2525-.7713-.008-.8289-1.5491-.3749-10.022.7743-14.45 1.4587-28.225 2.0066-40.386.6106-13.553.9457-17.876 1.4097-18.19.4446-.3003 18.906.3054 26.382.8655 1.819.1363 6.7601.3711 10.98.5219 4.2201.1507 9.1017.3934 10.848.5393 1.7462.1459 6.8659.4429 11.377.6601 38.252 1.8416 38.709 1.8727 39.617 2.6941.4311.3902.5332.3993.7401.0662.3941-.6345 3.4115-.5379 50.131 1.6052 15.693.7198 15.92.7373 16.448 1.2655.3878.3878.4161 1.179.2715 7.5838-.0888 3.933-.4022 11.556-.6963 16.94-.2942 5.3843-.7782 14.731-1.0758 20.77-.2975 6.0391-.7159 13.004-.9298 15.478-.2139 2.4738-.3895 5.0713-.3904 5.7721-.003 2.3407.0777 2.3043-4.9718 2.2515-2.4324-.0254-4.9582-.0858-5.6131-.1341zm3.925-11.263c.3668-5.3332 1.8375-34.466 1.9507-38.639.0594-2.1905.1697-2.9113.4743-3.0993.349-.2154.3441-.2977-.0399-.6819-.3875-.3876-.3949-.5371-.0661-1.324.4042-.9673.4631-2.6405.202-5.7302l-.1687-1.9956-2.5433-.1748c-1.3988-.0961-4.2102-.3437-6.2475-.5503-3.9783-.4033-11.599-.7531-25.929-1.1902-4.9477-.1509-11.734-.4481-15.081-.6603-3.347-.2122-13.348-.7445-22.225-1.1828-24.962-1.2326-26.087-1.3272-26.859-2.2571-.2923-.3522-.3675-.347-.6543.0453-.2949.4032-.9661.4275-7.4396.2692-7.8509-.1921-16.517-.5881-21.403-.9781-4.8395-.3862-22.094-.8953-23.215-.6848-.7261.1363-1.0237.3414-1.1162.7695-.2347 1.0858-1.528 25.499-2.6955 50.881-.1183 2.5713-.0823 3.7856.1156 3.9079.5225.3229 4.3389.6644 10.639.9518 3.4197.156 7.6465.3996 9.3927.5413s7.5803.441 12.965.6652c5.3843.2241 12.528.5786 15.875.7877s9.181.5059 12.965.6594 8.7246.3936 10.98.5333c2.2556.1397 8.0896.439 12.965.6649s10.054.5371 11.509.6915 3.5983.3784 4.7625.4978c1.1642.1194 4.0812.2273 6.4823.2398 6.5859.0342 33.291 1.2293 33.58 1.5028.0606.0573 2.4507.1042 5.3113.1042h5.2011zm-31.971-6.2642c-2.3561-.5069-4.283-1.8853-5.4721-3.9144-.9251-1.5786-1.0293-3.8639-.6372-13.977.3558-9.1772.6594-12.202 1.3985-13.931.6316-1.4779 2.9056-3.7224 4.5083-4.4498 2.3806-1.0805 6.995-.4255 9.3851 1.3322 1.9316 1.4205 2.9883 4.6937 2.9883 9.2567 0 2.3911-.4731 2.6276-4.4291 2.2142l-1.5963-.1668-.1134-2.4128c-.1476-3.1419-.7826-4.4946-2.3272-4.9574-1.8241-.5465-2.4357.4391-2.8924 4.6612-.462 4.2702-.8798 13.114-.7585 16.056.1503 3.647.5117 4.2767 2.5232 4.3959 1.1701.0693 1.3994-.005 1.876-.6114.7072-.8991 1.1498-3.089 1.0502-5.196l-.0795-1.6799-1.1625-.1551c-1.4062-.1877-1.8802-.7516-1.8802-2.2372 0-1.5444.4539-2.6852 1.1411-2.8679.5486-.1459 5.6585.2033 7.543.5156l.8789.1456-.1743 5.6068c-.2728 8.775-.4987 10.96-1.2114 11.719-.8587.914-1.8975.8346-2.713-.2076l-.6595-.8427-1.8071.8198c-1.9453.8825-3.8981 1.2039-5.379.8852zm-28.707-1.8851c-9.0771-.6804-9.1281-.6885-9.1281-1.4313 0-.9515 1.1861-4.8122 2.1979-7.1543 2.3376-5.4107 5.384-12.156 7.3202-16.209 1.1679-2.4447 2.1235-4.5858 2.1235-4.7579 0-.5729-.899-.7871-3.9688-.9455-3.5951-.1856-4.7004-.5016-4.9281-1.4091-.2408-.9594.0234-3.4399.4169-3.914.4158-.501 3.4897-.5167 10.72-.055l4.7534.3036.2435 1.0332c.4398 1.8657-.7087 5.235-4.9237 14.445-5.9465 12.993-6.1579 13.545-5.3151 13.871.2687.1041 2.0871.3664 4.0409.5829s3.7681.5091 4.0318.6502c.6334.339.8407 1.2626.6904 3.0756-.0939 1.1323-.2662 1.6027-.7225 1.9722-.3296.2669-.7349.4703-.9006.452-.1658-.0183-3.1589-.2475-6.6514-.5093zm11.878-4.2862c.1017-2.6558.3502-7.2099.5523-10.12.2021-2.9104.5122-8.685.6891-12.832.2063-4.8351.4261-7.6121.6125-7.7398.1599-.1096 1.5409-.1691 3.0689-.1323l2.7781.0669-.0796 4.3656c-.0438 2.4011-.1906 6.1516-.3263 8.3344s-.3653 6.8858-.5105 10.451c-.1451 3.5653-.337 7.7002-.4264 9.1888l-.1626 2.7065-.9671.2686c-.5319.1477-1.9675.2693-3.1902.2701l-2.2231.002.1849-4.8286zm-33.839 3.0497c-1.2239-.3008-1.2671-.4842-1.0746-4.5644.0997-2.1137.4113-7.5341.6925-12.045.5467-8.7714.6321-12.502.2982-13.028-.1144-.1802-1.4818-.5246-3.0387-.7654l-2.8306-.4379.003-1.4835c.002-.8159.0767-1.93.1669-2.4757l.164-.9922 4.794.005c4.9089.006 12.039.373 13.279.6843l.6936.1741-.1872 2.4124c-.1029 1.3268-.2153 2.4439-.2497 2.4824-.0344.0385-1.3903.146-3.0132.2389-2.2985.1315-2.9506.2522-2.9506.5459 0 .2074-.1196 1.7668-.2658 3.4653s-.5061 7.7317-.7997 13.407-.6056 10.714-.6932 11.198c-.1099.6058-.3601.9553-.8051 1.1245-.6635.2523-3.2411.2856-4.1831.054zm-14.126-.6711-2.4844-.2574.1733-2.9458c.0953-1.6202.4084-7.8273.6957-13.794.6123-12.713 1.0156-18.431 1.3226-18.751.2922-.3041 5.4809-.0893 5.7789.2392.2604.2871-.0654 10.207-.4906 14.94-.1504 1.6735-.4478 6.9122-.661 11.642-.3387 7.5154-.4444 8.6406-.8387 8.9297-.2481.1819-.5772.3136-.7313.2927-.1541-.0209-1.3981-.1538-2.7645-.2954zm-18.028-10.081c-.636-5.186-1.2484-9.4291-1.361-9.4291-.3333 0-1.1774 3.1343-2.8645 10.637-.8738 3.886-1.5887 7.1305-1.5887 7.2099s-1.2311.1444-2.7358.1444h-2.7357l-.437-3.1088c-.4929-3.5062-3.2338-27.163-3.5059-30.259-.1371-1.5601-.096-2.0645.1825-2.2366.1977-.1222 1.3777-.2709 2.622-.3304 1.8238-.0872 2.3292-.0279 2.6063.306.2262.2726.6115 3.4261 1.127 9.2239.8473 9.5304.9204 10.096 1.2774 9.8753.2474-.1529 1.4589-5.1124 3.072-12.575.519-2.4011 1.1552-4.7823 1.4139-5.2917.4573-.9005.518-.9282 2.2011-1.0036 1.2693-.0569 1.837.0287 2.1291.3207.5207.5207.8419 2.4516 1.7961 10.799.8234 7.2032.972 8.1399 1.2912 8.1399.2783 0 .9165-2.8283 2-8.8635.5225-2.9104 1.1924-6.3335 1.4888-7.6068l.5388-2.3151h2.168c2.2519 0 3.3441.3985 3.3441 1.22 0 .3681-5.8364 27.78-6.7213 31.568-.5589 2.3923-.8719 2.6284-3.7562 2.8332l-2.3958.1701z" fill="#00a800"/></g></svg>
