<svg width="644.7" height="291.43" version="1.1" viewBox="0 0 170.58 77.108" xmlns="http://www.w3.org/2000/svg"><g transform="translate(280.42 -506.43)"><g transform="translate(-18.899 131.54)" fill="#00a800"><path d="m-104.7 451.85c-2.5421-0.18757-19.096-1.1283-22.357-1.2704-6.8651-0.29933-35.892-1.7383-42.73-2.1183-3.8563-0.21429-12.965-0.6311-20.241-0.92626s-16.325-0.71265-20.108-0.92776c-3.7835-0.21512-11.701-0.63288-17.595-0.92837-12.706-0.63705-26.966-1.5117-30.295-1.8582-1.3097-0.13633-2.5842-0.24993-2.8323-0.25245-0.77126-8e-3 -0.82892-1.5491-0.37493-10.022 0.77431-14.45 1.4587-28.225 2.0066-40.386 0.61064-13.553 0.94567-17.876 1.4097-18.19 0.44457-0.30027 18.906 0.30535 26.382 0.86545 1.819 0.13628 6.7601 0.37111 10.98 0.52185 4.2201 0.15074 9.1017 0.39341 10.848 0.53926 1.7462 0.14586 6.8659 0.44289 11.377 0.66009 38.252 1.8416 38.709 1.8727 39.617 2.6941 0.43113 0.39017 0.53317 0.3993 0.74006 0.0662 0.39409-0.6345 3.4115-0.53788 50.131 1.6052 15.693 0.71983 15.92 0.73734 16.448 1.2655 0.38778 0.38778 0.4161 1.179 0.27145 7.5838-0.08882 3.933-0.40217 11.556-0.69632 16.94s-0.77825 14.731-1.0758 20.77c-0.29751 6.0391-0.71592 13.004-0.9298 15.478-0.21388 2.4738-0.38954 5.0713-0.39037 5.7721-0.0028 2.3407 0.07773 2.3043-4.9718 2.2515-2.4324-0.0254-4.9582-0.0858-5.6131-0.13407zm-3.9688-2.7145c0-0.31217-0.51603-0.64611-0.70556-0.45659-0.18952 0.18953 0.14442 0.70556 0.45659 0.70556 0.13693 0 0.24897-0.11204 0.24897-0.24897zm-22.225-1.4708c0.26788-0.32278 0.25528-0.39688-0.0675-0.39688-0.21828 0-0.54509 0.17859-0.72625 0.39688-0.26788 0.32277-0.25528 0.39687 0.0675 0.39687 0.21828 0 0.54509-0.17859 0.72625-0.39687zm6.8792 7e-3c0-0.35194-1.6572-0.92542-2.2467-0.77747-0.76997 0.19325-0.86827 0.54614-0.20072 0.72059 0.64223 0.16783 2.4474 0.20979 2.4474 0.0569zm-26.723-0.93284c0-0.41792-0.17639-0.52916-0.83906-0.52916-0.46149 0-1.0756-0.20836-1.3648-0.46302-0.50234-0.44245-0.51411-0.44167-0.26505 0.0176 0.29934 0.55195 1.6481 1.4994 2.1382 1.502 0.1819 1e-3 0.33073-0.23637 0.33073-0.52742zm3.7042-0.52916c0-0.62377-0.67172-0.86273-1.0714-0.38115-0.24538 0.29566-0.24538 0.46663 0 0.76229 0.39967 0.48158 1.0714 0.24262 1.0714-0.38114zm-2.3328-0.0573c-0.18985-0.18986-0.31309-0.20548-0.31309-0.0397 0 0.15038 0.0794 0.35278 0.17639 0.44979 0.097 0.097 0.2379 0.11488 0.31309 0.0397 0.0752-0.0752-4e-3 -0.27759-0.17639-0.44979zm4.2186 0.12347c0.32911-0.41964 0.31975-0.429-0.0999-0.0999-0.44073 0.34564-0.58088 0.56291-0.36312 0.56291 0.0549 0 0.2633-0.20836 0.46302-0.46302zm-11.983-0.44075c0.0765-0.39478 7e-3 -0.41885-0.47043-0.16324-0.30811 0.1649-0.48643 0.41919-0.39626 0.56509 0.23667 0.38293 0.76174 0.13948 0.86669-0.40185zm-10.805 0.0817c0-0.16109-0.18489-0.22194-0.41086-0.13523-0.27422 0.10522-0.56022-0.10481-0.8599-0.63148-0.51281-0.90124-0.65074-0.94958-1.1146-0.39065-0.27292 0.32885-0.24732 0.49706 0.14091 0.92604 0.5109 0.56455 2.2445 0.7432 2.2445 0.23132zm3.9688-0.26751c0-0.14552-0.11906-0.191-0.26458-0.10106-0.14552 0.0899-0.26458 0.28258-0.26458 0.4281s0.11906 0.191 0.26458 0.10106c0.14552-0.0899 0.26458-0.28258 0.26458-0.4281zm-2.5324-0.64913c0.595-0.595 0.52621-0.98486-0.11339-0.64256-0.29104 0.15576-0.52917 0.45761-0.52917 0.67077 0 0.49346 0.12645 0.48791 0.64256-0.0282zm-32.588-0.52097c0.7356-0.68209 0.99903-1.3664 0.39417-1.0239-0.56595 0.32046-1.5214 1.2484-1.5214 1.4776 0 0.38881 0.38624 0.23335 1.1272-0.4537zm98.312-3.8919c0.36675-5.3332 1.8375-34.466 1.9507-38.639 0.0594-2.1905 0.16971-2.9113 0.47428-3.0993 0.34896-0.21539 0.34414-0.29771-0.03992-0.68188-0.38745-0.38755-0.39492-0.53712-0.06615-1.324 0.40416-0.96731 0.46313-2.6405 0.20196-5.7302l-0.16868-1.9956-2.5433-0.17476c-1.3988-0.0961-4.2102-0.34373-6.2475-0.55026-3.9783-0.4033-11.599-0.75311-25.929-1.1902-4.9477-0.15092-11.734-0.44805-15.081-0.66029-3.347-0.21225-13.348-0.74452-22.225-1.1828-24.962-1.2326-26.087-1.3272-26.859-2.2571-0.29229-0.35219-0.36747-0.34699-0.65434 0.0453-0.29487 0.40325-0.96607 0.42754-7.4396 0.26916-7.8509-0.19208-16.517-0.58809-21.403-0.97806-4.8395-0.38625-22.094-0.89526-23.215-0.68485-0.72615 0.13628-1.0237 0.3414-1.1162 0.76953-0.23468 1.0858-1.528 25.499-2.6955 50.881-0.11828 2.5713-0.0823 3.7856 0.11564 3.9079 0.52251 0.32293 4.3389 0.66436 10.639 0.95182 3.4197 0.15603 7.6465 0.39963 9.3927 0.54134s7.5803 0.44103 12.965 0.66516c5.3843 0.22412 12.528 0.5786 15.875 0.78773s9.181 0.50588 12.965 0.65945 8.7246 0.39355 10.98 0.5333c2.2556 0.13974 8.0896 0.43895 12.965 0.66491s10.054 0.53714 11.509 0.69152 3.5983 0.3784 4.7625 0.49782c1.1642 0.11943 4.0812 0.22734 6.4823 0.2398 6.5859 0.0342 33.291 1.2293 33.58 1.5028 0.0606 0.0573 2.4507 0.10416 5.3113 0.10416h5.2011zm-31.971-6.2642c-2.3561-0.50694-4.283-1.8853-5.4721-3.9144-0.9251-1.5786-1.0293-3.8639-0.63722-13.977 0.35577-9.1772 0.65941-12.202 1.3985-13.931 0.63162-1.4779 2.9056-3.7224 4.5083-4.4498 2.3806-1.0805 6.995-0.42555 9.3851 1.3322 1.9316 1.4205 2.9883 4.6937 2.9883 9.2567 0 2.3911-0.47308 2.6276-4.4291 2.2142l-1.5963-0.16684-0.11336-2.4128c-0.14762-3.1419-0.78265-4.4946-2.3272-4.9574-1.8241-0.54651-2.4357 0.43907-2.8924 4.6612-0.46198 4.2702-0.87978 13.114-0.75855 16.056 0.15027 3.647 0.51174 4.2767 2.5232 4.3959 1.1701 0.0693 1.3994-5e-3 1.876-0.61139 0.70722-0.89908 1.1498-3.089 1.0502-5.196l-0.0795-1.6799-1.1625-0.15513c-1.4062-0.18766-1.8802-0.75163-1.8802-2.2372 0-1.5444 0.45389-2.6852 1.1411-2.8679 0.54861-0.14592 5.6585 0.20334 7.543 0.51557l0.87892 0.14561-0.17433 5.6068c-0.27282 8.775-0.49869 10.96-1.2114 11.719-0.85868 0.91402-1.8975 0.83455-2.713-0.20755l-0.65949-0.84267-1.8071 0.81979c-1.9453 0.88248-3.8981 1.2039-5.379 0.88523zm0.26458-2.1364c0-0.33674-0.17639-0.52917-0.48507-0.52917-0.78064 0-0.90263 0.34263-0.25083 0.70448 0.77563 0.43061 0.7359 0.44007 0.7359-0.17531zm2.1167-0.7626c0-0.29978-0.095-0.27122-0.38847 0.11672-0.21365 0.28247-0.38845 0.69218-0.38845 0.91046 0 0.29978 0.095 0.27123 0.38845-0.11671 0.21366-0.28248 0.38847-0.69219 0.38847-0.91047zm-4.2333-0.3947c0-0.0544-0.3048-0.64432-0.67734-1.3109l-0.67733-1.2119 0.67733-0.58894c0.37254-0.32391 0.67734-0.80559 0.67734-1.0704 0-0.63613-0.16942-0.60857-1.1066 0.18001-0.43236 0.3638-0.95556 0.66145-1.1627 0.66145-0.50969 0-0.4797 0.69756 0.0385 0.89644 0.27447 0.10532 0.35854 0.33753 0.24815 0.68536-0.18856 0.59409 0.88187 1.8578 1.5737 1.8578 0.2249 0 0.4089-0.0445 0.4089-0.099zm0.78947-1.7611c-0.16674-0.31157-0.37308-0.49659-0.45852-0.41114-0.0855 0.0854 0.01 0.46393 0.21164 0.84109 0.20185 0.37716 0.40819 0.56217 0.45853 0.41114 0.0503-0.15102-0.0449-0.52952-0.21165-0.84109zm-2.5216-3.3263c0.22351-1.1914 0.12209-1.2961-0.60219-0.62132-0.57766 0.53817-0.72925 1.0684-0.39966 1.398 0.42457 0.42458 0.83638 0.10532 1.0018-0.77668zm0.14467-4.2372c0-0.0558-0.30468-0.10143-0.67707-0.10143s-0.6104 0.10788-0.5289 0.23974c0.13555 0.21934 1.206 0.0966 1.206-0.13831zm0.82605-1.6029c-0.3119-0.53637-0.38722-0.36469-0.1319 0.30065 0.0907 0.23646 0.22071 0.37419 0.28883 0.30607 0.0681-0.0681-2e-3 -0.34115-0.15693-0.60672zm-1.2229-1.6735c-0.12801-0.20713-0.28021-0.2225-0.4566-0.0461-0.14553 0.14552-0.17818 0.40439-0.0726 0.57527 0.12801 0.20713 0.28021 0.2225 0.4566 0.0461 0.14552-0.14552 0.17818-0.40439 0.0726-0.57527zm-0.12404-2.6011c-0.72417-0.10875-0.91671 0.0684-0.69688 0.6413 0.15658 0.40803 0.21576 0.40357 0.72511-0.0547l0.55462-0.49903zm-24.747 16.611c-9.0771-0.68045-9.1281-0.68845-9.1281-1.4313 0-0.95151 1.1861-4.8122 2.1979-7.1543 2.3376-5.4107 5.384-12.156 7.3202-16.209 1.1679-2.4447 2.1235-4.5858 2.1235-4.7579 0-0.57288-0.89899-0.78706-3.9688-0.94553-3.5951-0.1856-4.7004-0.50163-4.9281-1.4091-0.24081-0.95944 0.0234-3.4399 0.41691-3.914 0.41575-0.50095 3.4897-0.51673 10.72-0.055l4.7534 0.30356 0.24354 1.0332c0.43977 1.8657-0.70869 5.235-4.9237 14.445-5.9465 12.993-6.1579 13.545-5.3151 13.871 0.26867 0.10409 2.0871 0.3664 4.0409 0.58292 1.9538 0.21652 3.7681 0.50911 4.0318 0.65021 0.63341 0.33899 0.84073 1.2626 0.69038 3.0756-0.0939 1.1323-0.26624 1.6027-0.72252 1.9722-0.32957 0.26687-0.73485 0.47025-0.90063 0.45198-0.16578-0.0183-3.1589-0.24745-6.6514-0.50926zm-4.487-2.8795c-0.0959-0.1552-0.30102-0.28219-0.45577-0.28219-0.17544 0-0.15537 0.15182 0.0533 0.40327 0.36289 0.43725 0.68721 0.33968 0.40245-0.12108zm-0.46839-1.3901c-0.16353-0.4906-0.73312-0.57197-0.73312-0.10473 0 0.23041 0.18852 0.41892 0.41892 0.41892 0.23041 0 0.3718-0.14138 0.3142-0.31419zm4.294-12.518c0-0.21828-0.19318-0.39687-0.42928-0.39687-0.35157 0-0.36965 0.0718-0.0999 0.39687 0.18116 0.21828 0.37433 0.39688 0.42927 0.39688 0.0549 0 0.0999-0.1786 0.0999-0.39688zm1.1068-0.98337c-0.18985-0.18985-0.31308-0.20547-0.31308-0.0397 0 0.35316 0.31289 0.66605 0.48947 0.48947 0.0752-0.0752-4e-3 -0.27759-0.17639-0.44979zm2.9942-3.4778c0.49641-0.27915 0.48315-0.30296-0.21434-0.38468-0.59245-0.0694-0.72683-0.20417-0.66146-0.66331 0.062-0.43528 0.29236-0.59648 0.94194-0.65911 0.8359-0.0806 1.1666-0.62238 0.59532-0.97543-0.14553-0.0899-0.26459-0.57321-0.26459-1.074 0-1.0521-0.24354-1.1398-0.95118-0.3426-0.36251 0.4084-0.41117 0.6003-0.1733 0.68351 0.49556 0.17334 0.39957 0.72102-0.22552 1.2867-0.6583 0.59575-1.2958 1.7591-1.2958 2.3646 0 0.34778 0.16609 0.39538 0.85989 0.24642 0.47295-0.10154 1.098-0.31852 1.3891-0.48219zm1.0055-6.08c0.0749-0.1951 0.0281-0.52252-0.10398-0.7276-0.20656-0.32079-0.27365-0.32079-0.48021 0-0.25644 0.39825-0.10468 1.0823 0.24011 1.0823 0.11438 0 0.26922-0.15962 0.34408-0.35472zm1.508-2.5557c0-0.33151-0.28079-0.33151-0.79375 0-0.32093 0.2074-0.28296 0.25725 0.19844 0.26053 0.32742 2e-3 0.59531-0.11501 0.59531-0.26053zm-1.0583-2.2095c0-0.61667-0.5699-2.0239-0.81964-2.0239-0.32526 0-0.30193 1.2396 0.0352 1.8695 0.31511 0.58878 0.78445 0.68115 0.78445 0.15438zm1.5875-0.55303c0-0.2097-0.11084-0.44976-0.24631-0.53348-0.31456-0.19442-0.63092 0.30103-0.41515 0.65015 0.2433 0.39367 0.66146 0.31991 0.66146-0.11667zm5.3959 28.361c0.10168-2.6558 0.3502-7.2099 0.55227-10.12 0.20207-2.9104 0.51218-8.685 0.68913-12.832 0.20629-4.8351 0.42606-7.6121 0.61251-7.7398 0.15993-0.10956 1.5409-0.16909 3.0689-0.1323l2.7781 0.0669-0.0796 4.3656c-0.0438 2.4011-0.19063 6.1516-0.32627 8.3344s-0.36534 6.8858-0.51046 10.451c-0.14511 3.5653-0.337 7.7002-0.42642 9.1888l-0.16258 2.7065-0.9671 0.26862c-0.53191 0.14774-1.9675 0.26928-3.1902 0.27009l-2.2231 2e-3 0.18486-4.8286zm2.8062-1.6536c0-0.21828-0.17859-0.39688-0.39688-0.39688-0.41316 0-0.52492 0.31293-0.22048 0.61736 0.30444 0.30444 0.61736 0.19268 0.61736-0.22048zm-0.0247-8.0269c-0.31114-0.89253-0.76906-1.1274-0.76906-0.39447 0 0.43028 0.78765 1.5042 0.96971 1.3221 0.05-0.0501-0.0402-0.46751-0.20065-0.92767zm0.7965-3.9432c-0.181-0.54697-0.37874-0.8467-0.43943-0.66607-0.0607 0.18063 0.0377 0.77594 0.21873 1.3229 0.181 0.54698 0.37875 0.84671 0.43944 0.66608 0.0607-0.18064-0.0377-0.77595-0.21874-1.3229zm1.874-3.2591c0-0.13693-0.11906-0.24897-0.26458-0.24897s-0.26458 0.18562-0.26458 0.41249 0.11906 0.33891 0.26458 0.24897c0.14552-0.0899 0.26458-0.27556 0.26458-0.41249zm-1.7068-0.721c-0.25474-0.25475-0.93907 0.20947-0.93907 0.63703 0 0.40717 0.0464 0.40418 0.53079-0.0342 0.29193-0.2642 0.47566-0.53549 0.40828-0.60286zm0.92083-3.2133c-0.35009-0.8452-0.48196-0.91866-1.173-0.65348-0.36914 0.14165-0.37152 0.2208-0.0216 0.72033 0.21619 0.30865 0.39307 0.85881 0.39307 1.2226v0.66138l0.56908-0.56908c0.51103-0.51103 0.53475-0.65199 0.23249-1.3817zm0.95765-8.1374c-0.32567-0.32566-1.0917 0.32255-1.1839 1.0018l-0.0861 0.63444 0.73354-0.71959c0.40345-0.39577 0.64485-0.80828 0.53645-0.91669zm-39.462 32.004c-1.2239-0.30084-1.2671-0.48416-1.0746-4.5644 0.0997-2.1137 0.41135-7.5341 0.69252-12.045 0.54669-8.7714 0.63208-12.502 0.29821-13.028-0.11442-0.18016-1.4818-0.5246-3.0387-0.76543l-2.8306-0.43786 3e-3 -1.4835c2e-3 -0.81595 0.0767-1.93 0.16691-2.4757l0.164-0.99218 4.794 5e-3c4.9089 6e-3 12.039 0.37299 13.279 0.68429l0.6936 0.17408-0.18716 2.4124c-0.10293 1.3268-0.2153 2.4439-0.24969 2.4824-0.0344 0.0385-1.3903 0.14601-3.0132 0.23886-2.2985 0.13151-2.9506 0.25216-2.9506 0.54589 0 0.20738-0.11963 1.7668-0.26584 3.4653s-0.50606 7.7317-0.79966 13.407-0.60555 10.714-0.69323 11.198c-0.10987 0.60583-0.36007 0.9553-0.80506 1.1245-0.66352 0.25227-3.2411 0.28556-4.1831 0.054zm3.2577-8.5232c0.0661-0.19844-0.0331-0.29766-0.23151-0.23151-0.191 0.0637-0.39936 0.27202-0.46302 0.46302-0.0661 0.19843 0.0331 0.29765 0.23151 0.23151 0.19099-0.0637 0.39935-0.27203 0.46302-0.46302zm-1.141-2.3978c-0.0899-0.14552-0.27555-0.26458-0.41249-0.26458-0.13693 0-0.24897 0.11906-0.24897 0.26458s0.18563 0.26458 0.4125 0.26458 0.3389-0.11906 0.24896-0.26458zm1.172-9.6068c-0.0179-0.5589-0.0267-0.56071-0.24599-0.0505-0.31294 0.72826-0.31294 0.98716 0 0.79375 0.14553-0.0899 0.25622-0.42439 0.24599-0.74322zm-1.5689 0.21405c0-0.42048-0.9293-0.55512-1.1678-0.16919-0.19539 0.31614 0.10606 0.56607 0.68275 0.56607 0.26679 0 0.48507-0.1786 0.48507-0.39688zm2.5135-7.8052c-0.0899-0.14552-0.28258-0.26458-0.4281-0.26458s-0.191 0.11906-0.10107 0.26458c0.0899 0.14552 0.28259 0.26459 0.42811 0.26459s0.191-0.11907 0.10106-0.26459zm0.9908-3.5719c-0.15227-0.79656 0.54013-0.91439 1.3051-0.22211 0.71078 0.64324 0.79571 0.33312 0.17657-0.64474-0.64985-1.0264-1.0184-1.0616-1.9947-0.19068l-0.74235 0.66227 0.62462 0.52836c0.78396 0.66314 0.78301 0.66334 0.63076-0.1331zm-2.9752-0.52917c0-0.3638-0.10632-0.66146-0.23627-0.66146-0.30858 0-0.60166 0.7728-0.41043 1.0822 0.28821 0.46633 0.6467 0.23309 0.6467-0.42075zm-4.9862-1.4818c-0.48684-0.44266-0.95363-0.73636-1.0373-0.65266-0.2357 0.2357 1.0367 1.474 1.5056 1.4652 0.28079-5e-3 0.1279-0.27054-0.46825-0.81259zm6.9968-0.16772c-0.29362-0.29362-3.0689-0.79926-3.0689-0.55914 0 0.11503 0.38695 0.32089 0.8599 0.45744 1.0494 0.30301 2.476 0.36868 2.209 0.1017zm-18.386 33.198-2.4844-0.25735 0.17326-2.9458c0.0953-1.6202 0.40838-7.8273 0.69574-13.794 0.61233-12.713 1.0156-18.431 1.3226-18.751 0.29221-0.3041 5.4809-0.0893 5.7789 0.23925 0.26039 0.28706-0.0654 10.207-0.49065 14.94-0.15037 1.6735-0.4478 6.9122-0.66095 11.642-0.3387 7.5154-0.44439 8.6406-0.83867 8.9297-0.24811 0.18191-0.57719 0.31363-0.73128 0.29272-0.15409-0.0209-1.3981-0.15383-2.7645-0.29537zm0.71388-6.5656c-0.0522-0.15643-0.20792-0.28442-0.34617-0.28442-0.13824 0-0.29402 0.12799-0.34616 0.28442-0.0522 0.15644 0.10363 0.28443 0.34616 0.28443 0.24254 0 0.39831-0.12799 0.34617-0.28443zm0.31529-7.2736c0-0.42475-0.59672-1.1732-0.93535-1.1732-0.50512 0-0.49312 0.38581 0.0282 0.90714 0.41081 0.41081 0.90714 0.5564 0.90714 0.26609zm0.15538-4.7584c-0.26676-0.72845-0.38832-0.8699-0.40132-0.46693-0.0229 0.70884 0.53309 2.1748 0.67879 1.7898 0.0579-0.15285-0.067-0.74816-0.27747-1.3229zm1.9613-3.3096c0-0.13693-0.11906-0.24897-0.26459-0.24897-0.14552 0-0.26458 0.18562-0.26458 0.41249s0.11906 0.33891 0.26458 0.24897c0.14553-0.0899 0.26459-0.27556 0.26459-0.41249zm-1.7068-0.72101c-0.25475-0.25475-0.93908 0.20947-0.93908 0.63703 0 0.40717 0.0464 0.40419 0.53079-0.0342 0.29194-0.26419 0.47567-0.53548 0.40829-0.60286zm1.1776-1.5123c0-0.70599-0.48061-0.86877-1.008-0.34141-0.25035 0.25035-0.18984 0.39237 0.27781 0.65208 0.32883 0.18262 0.62764 0.33625 0.66402 0.34141 0.0364 5e-3 0.0661-0.28828 0.0661-0.65208zm-0.79375-1.8521c0-0.21828-0.17859-0.39687-0.39687-0.39687s-0.39688 0.17859-0.39688 0.39687 0.1786 0.39688 0.39688 0.39688 0.39687-0.1786 0.39687-0.39688zm0.79375-1.9844c-0.51815-0.33486-0.86841-0.33486-0.66146 0 0.0899 0.14552 0.36486 0.26276 0.61093 0.26053 0.38557-3e-3 0.39256-0.0395 0.0505-0.26053zm0.62939-5.1995c0.38585-0.38585 0.63826-0.76483 0.56092-0.84217-0.17988-0.17988-1.5201 0.81321-1.6587 1.2291-0.17938 0.53815 0.36436 0.3465 1.0978-0.38692zm-21.274 23.095c-0.636-5.186-1.2484-9.4291-1.361-9.4291-0.33334 0-1.1774 3.1343-2.8645 10.637-0.87379 3.886-1.5887 7.1305-1.5887 7.2099 0 0.0794-1.2311 0.14442-2.7358 0.14442h-2.7357l-0.437-3.1088c-0.49286-3.5062-3.2338-27.163-3.5059-30.259-0.13712-1.5601-0.096-2.0645 0.18248-2.2366 0.19773-0.12221 1.3777-0.27087 2.622-0.33037 1.8238-0.0872 2.3292-0.0279 2.6063 0.30603 0.22624 0.2726 0.61153 3.4261 1.127 9.2239 0.84729 9.5304 0.92044 10.096 1.2774 9.8753 0.24737-0.15289 1.4589-5.1124 3.072-12.575 0.51899-2.4011 1.1552-4.7823 1.4139-5.2917 0.45734-0.90053 0.51799-0.92818 2.2011-1.0036 1.2693-0.0569 1.837 0.0287 2.1291 0.32073 0.52072 0.52072 0.84186 2.4516 1.7961 10.799 0.82341 7.2032 0.972 8.1399 1.2912 8.1399 0.2783 0 0.91649-2.8283 2-8.8635 0.5225-2.9104 1.1924-6.3335 1.4888-7.6068l0.53876-2.3151h2.168c2.2519 0 3.3441 0.39847 3.3441 1.22 0 0.36813-5.8364 27.78-6.7213 31.568-0.55886 2.3923-0.8719 2.6284-3.7562 2.8332l-2.3958 0.17005zm4.7014 3.6114c0.1366-0.4162-1.2092-0.75682-1.569-0.39709-0.15129 0.1513-0.19087 0.41134-0.0879 0.57788 0.23783 0.38482 1.5171 0.24523 1.6569-0.18079zm-11.129-1.4484c-0.0845-0.21107-0.14716-0.14837-0.15985 0.15985-0.0115 0.27892 0.051 0.43519 0.13896 0.34727 0.0879-0.0879 0.0973-0.31612 0.0209-0.50712zm-2.8266-0.46394c0-0.73495-0.39821-1.2931-0.70423-0.98707-0.21717 0.21716 0.18683 1.7652 0.46067 1.7652 0.13396 0 0.24356-0.35016 0.24356-0.77813zm1.1686-0.97953c0.2215-0.57723-0.0726-0.84553-0.38513-0.35134-0.31288 0.49473-0.31954 0.78609-0.018 0.78609 0.12996 0 0.31135-0.19564 0.40311-0.43475zm1.4854-1.6391c-0.19569-0.33528-0.25456-0.18837-0.24791 0.61863 8e-3 0.92565 0.0398 0.98077 0.25664 0.4397 0.15629-0.39 0.15306-0.78113-9e-3 -1.0583zm-2.1515-0.0208c0.30968-0.19607 0.2838-0.40095-0.15823-1.2527-0.6245-1.2034-1.4832-1.3918-1.6264-0.35685-0.0503 0.3638-0.2094 0.80507-0.35351 0.9806-0.1441 0.17553-0.1852 0.44342-0.0913 0.59531 0.20736 0.33552 1.7167 0.35831 2.2295 0.0337zm2.6725-1.9024c0-0.12995-0.17859-0.23628-0.39687-0.23628s-0.39688 0.17486-0.39688 0.38858c0 0.23669 0.15513 0.32904 0.39688 0.23627 0.21828-0.0838 0.39687-0.25862 0.39687-0.38857zm12.962-0.49389c0.29722-0.18792 0.3196-0.32457 0.0907-0.55353-0.22895-0.22895-0.37767-0.16635-0.60241 0.25357-0.3185 0.59512-0.12993 0.70564 0.51176 0.29996zm-16.258-1.607c0.61812-0.64518 0.69845-0.85202 0.40203-1.0352-0.20374-0.12591-0.61837-0.74536-0.9214-1.3765-0.37152-0.77384-0.74484-1.1751-1.1463-1.2321-0.32743-0.0465-0.59532 0.0428-0.59532 0.19843 0 0.15565 0.10462 0.28299 0.23249 0.28299 0.12786 0 0.38549 0.3694 0.5725 0.82089 0.26486 0.63941 0.27195 1.0091 0.0321 1.6724-0.16935 0.46835-0.30792 0.99192-0.30792 1.1635 0 0.58644 0.95845 0.31286 1.7318-0.49433zm11.396-0.9962c-0.37002-0.37002-0.42759-0.37364-0.42759-0.0269 0 0.54359 0.61911 1.1627 0.75501 0.75501 0.0551-0.16527-0.0923-0.4929-0.32742-0.72807zm-6.7508-3.1485c-0.25415-0.43672-0.27588-0.43072-0.28331 0.0782-9e-3 0.61247 0.32682 1.09 0.46819 0.66591 0.0497-0.14913-0.0335-0.48399-0.18488-0.74414zm6.523-0.93601c-0.0599-0.1819-0.39725-0.36399-0.74965-0.40465-0.62049-0.0716-0.6245-0.0611-0.12714 0.33073 0.6219 0.48999 1.025 0.52398 0.87679 0.0739zm6.8393-0.39136c-0.26895-0.26895-0.49087 0.13596-0.2702 0.49302 0.1667 0.26972 0.22902 0.26993 0.31864 1e-3 0.0613-0.18383 0.0395-0.40617-0.0484-0.49408zm-0.92614-1.473c-0.33959-0.33959-0.68396-0.0771-0.43255 0.32967 0.0974 0.15757 0.29828 0.21159 0.44642 0.12003 0.18071-0.11169 0.17615-0.25968-0.0139-0.4497zm-6.9251-4.2194c-0.13536-0.47198-0.24611-0.8887-0.24611-0.92604 0-0.0373-0.1228-0.0679-0.27289-0.0679-0.51473 0-0.58497 0.81353-0.11507 1.3328 0.68629 0.75833 0.91386 0.63672 0.63407-0.33884zm-2.1642 0.13055c0.0646-0.19399-0.11778-0.33073-0.44109-0.33073-0.325 0-0.55122 0.17084-0.55122 0.41627 0 0.48627 0.82562 0.4151 0.99231-0.0855zm0.26997-1.9678c-0.16353-0.4906-0.73311-0.57197-0.73311-0.10473 0 0.2304 0.18851 0.41892 0.41892 0.41892s0.3718-0.14139 0.31419-0.31419zm9.5856 40.887c0-0.54663-0.73972-0.42203-1.0613 0.17877-0.41582 0.77697-0.0541 1.1865 0.55836 0.63222 0.27659-0.25032 0.5029-0.61526 0.5029-0.81099zm-20.042-0.28413c0.63107-0.28185 1.0457-1.1301 0.55241-1.1301-0.40101 0-2.4202 1.339-2.5571 1.6957-0.21666 0.56462 0.41681 0.70561 0.88018 0.19591 0.21828-0.24011 0.7243-0.58279 1.1245-0.76153zm7.6068 1.017c0-0.12878-0.29766-0.42919-0.66146-0.66756-0.56293-0.36884-0.66146-0.37534-0.66146-0.0436 0 0.2144 0.20836 0.51118 0.46303 0.65951 0.57868 0.33705 0.85989 0.35393 0.85989 0.0516zm14.817-0.31063c0-0.13693-0.1786-0.24897-0.39688-0.24897-0.40915 0-0.52564 0.3122-0.22768 0.61017 0.21139 0.21139 0.62456-0.0276 0.62456-0.3612zm-12.965-0.79375c0-0.28245-0.17859-0.51355-0.39687-0.51355-0.39244 0-0.55476 0.81225-0.22768 1.1393 0.27585 0.27585 0.62455-0.0735 0.62455-0.62579zm5.6508-0.27205c-0.34896-0.34896-0.78453-0.51197-1.1833-0.44283-0.59245 0.10273-0.57441 0.13585 0.29501 0.54189 1.2629 0.58978 1.5456 0.55825 0.88826-0.0991zm3.2139 0.2858c0.0906-0.14655-0.0266-0.33985-0.26038-0.42956-0.50658-0.1944-0.78891 0.0198-0.5454 0.41382 0.2197 0.35549 0.59132 0.36275 0.80578 0.0158zm-14.317-0.41665c0.0883-0.23018 0.1606-0.60195 0.1606-0.82614 0-0.33234-0.0733-0.3468-0.39688-0.0783-0.42915 0.35616-0.54651 1.3229-0.1606 1.3229 0.12996 0 0.30855-0.18833 0.39688-0.41852zm-20.626-1.2516c0.13623-0.38545 0.16477-0.78375 0.0634-0.8851-0.24904-0.24904-0.95366 0.716-0.96415 1.3205-0.0121 0.69563 0.60671 0.39653 0.90074-0.43538zm3.087-0.26039c-0.21294-0.21295-0.28982-0.0807-0.28395 0.48852 7e-3 0.68424 0.0431 0.72026 0.292 0.292 0.2035-0.35012 0.20122-0.57125-8e-3 -0.78052zm11.46 0.97615c0.62374-0.23935 0.50555-0.63315-0.19003-0.63315-0.3347 0-0.73265-0.12411-0.88434-0.2758-0.19134-0.19134-0.38463-0.14465-0.63121 0.15246-0.29877 0.35999-0.29487 0.46656 0.0245 0.66862 0.44356 0.28067 1.0906 0.31449 1.6811 0.0879zm-22.666-0.90557c0.76398-0.43814 1.3891-0.91327 1.3891-1.0558 0-0.41203-0.45672-0.30048-0.63118 0.15415-0.12558 0.32724-0.40062 0.37709-1.3199 0.23923-1.2682-0.19017-1.6332 0.0622-1.3554 0.93725 0.21529 0.67834 0.26893 0.67065 1.9175-0.27478zm18.984 0.27242c0.29994-0.33143 0.3582-0.52917 0.15591-0.52917-0.55591 0-1.3687 0.54387-1.206 0.80702 0.23553 0.38109 0.52252 0.30515 1.0501-0.27785zm-4.7468-0.55456c0.0986-0.15948-0.0135-0.48265-0.24897-0.71816-0.39451-0.39452-0.42818-0.37172-0.42818 0.28998 0 0.73069 0.35245 0.95356 0.67715 0.42818zm-17.081-0.76836c0.30926-0.19986 0.23625-0.25737-0.33073-0.26053-0.40018-2e-3 -0.72761 0.11501-0.72761 0.26053 0 0.33454 0.54067 0.33454 1.0583 0zm157.43-0.41249c0-0.22687-0.11906-0.33891-0.26458-0.24897-0.14552 0.0899-0.26458 0.27556-0.26458 0.41249s0.11906 0.24897 0.26458 0.24897 0.26458-0.18562 0.26458-0.41249zm1.0583-2.4696c0-0.12995-0.17859-0.30481-0.39688-0.38857-0.4033-0.15476-0.54186 0.12708-0.22048 0.44846 0.25286 0.25286 0.61736 0.2175 0.61736-0.0599zm0.26458-4.2699c0-0.31675-0.74629-0.65652-0.96395-0.43886-0.2317 0.23169 0.1613 0.71174 0.58269 0.71174 0.20969 0 0.38126-0.1228 0.38126-0.27288zm-0.59846-9.1702c-0.246-0.246-0.52156-0.37299-0.61236-0.28219-0.2604 0.2604 0.13935 0.72946 0.62167 0.72946 0.40388 0 0.40316-0.0348-0.0093-0.44727zm1.3922-1.0079c0-0.21828 0.24805-0.64492 0.55121-0.94809 0.69515-0.69515 0.47499-0.96452-0.32839-0.40181-0.33283 0.23312-0.87631 0.42386-1.2077 0.42386-0.71645 0-0.75345 0.1885-0.1647 0.83906 0.52978 0.58541 1.1496 0.6323 1.1496 0.087zm-1.1906-2.7781c-0.12801-0.20713-0.28021-0.2225-0.4566-0.0461-0.14552 0.14552-0.17817 0.40439-0.07256 0.57527 0.12801 0.20713 0.28021 0.2225 0.4566 0.0461 0.14552-0.14552 0.17817-0.40439 0.07256-0.57527zm1.1906-5.9687c0-0.50074-0.11906-0.91043-0.26458-0.91043-0.14552 0-0.26458 0.48328-0.26458 1.074 0 0.64859 0.10479 1.0092 0.26458 0.91043 0.14552-0.0899 0.26458-0.57322 0.26458-1.074zm1.0583-3.7373c0-0.22556-0.19312-0.35038-0.46302-0.29925-0.31796 0.0602-0.48521 0.37716-0.53383 1.0116l-0.07081 0.92388 0.53383-0.62463c0.2936-0.34354 0.53383-0.79876 0.53383-1.0116zm-0.05292-5.1636c0.57934-0.57934 0.32882-0.76027-0.47625-0.34395-0.43656 0.22575-0.79375 0.46693-0.79375 0.53596 0 0.25893 0.96494 0.11305 1.27-0.19201zm-0.4803-2.5268c-0.0021-0.25466-0.11489-0.63828-0.25035-0.85248-0.21099-0.33363-0.27136-0.32414-0.42113 0.0661-0.20825 0.54269 0.0195 1.2494 0.40264 1.2494 0.15009 0 0.27106-0.20836 0.26884-0.46302zm-161.02-0.22054c0.0989-0.25768 0.0397-0.37864-0.1536-0.3142-0.3955 0.13184-0.61327 0.73318-0.26551 0.73318 0.14208 0 0.33068-0.18854 0.41911-0.41898zm160.76-4.4512c-0.55394-0.54614-0.56692-0.5467-0.94328-0.0402-0.47433 0.63837-0.4852 0.94162-0.03375 0.94162 0.19133 0 0.57696 0.44648 0.85695 0.99219l0.50908 0.99219 0.08633-1.166c0.06754-0.91224-0.03592-1.2866-0.47534-1.7198zm-159.81 0.37228c0-0.14552-0.23813-0.26458-0.52917-0.26458s-0.52917 0.11906-0.52917 0.26458 0.23813 0.26459 0.52917 0.26459 0.52917-0.11907 0.52917-0.26459zm-0.52917-1.8521c0-0.29104-0.11906-0.52917-0.26458-0.52917s-0.26459 0.23813-0.26459 0.52917 0.11907 0.52917 0.26459 0.52917 0.26458-0.23813 0.26458-0.52917zm161.92-3.4396c0-0.14552-0.20836-0.26276-0.46302-0.26054-0.3957 3e-3 -0.40532 0.0413-0.06615 0.26054 0.49932 0.32269 0.52917 0.32269 0.52917 0zm-161.4-0.92604c0.26976-0.32505 0.25168-0.39688-0.0999-0.39688-0.2361 0-0.42927 0.17859-0.42927 0.39688 0 0.21828 0.045 0.39687 0.0999 0.39687s0.24811-0.17859 0.42927-0.39687zm160.6-0.89774c0-0.12995-0.17859-0.30481-0.39688-0.38857-0.4033-0.15476-0.54186 0.12708-0.22048 0.44846 0.25286 0.25286 0.61736 0.2175 0.61736-0.0599zm-160.34-2.8568c0-0.37827-0.0621-0.37236-0.52917 0.0503-0.29104 0.26339-0.52916 0.58369-0.52916 0.71177 0 0.12809 0.23812 0.10545 0.52916-0.0503 0.29105-0.15576 0.52917-0.47606 0.52917-0.71178zm0-3.1793c0-0.53911-0.69601-0.40112-1.5066 0.29869l-0.74236 0.6409 1.1245-0.29869c0.61846-0.16428 1.1245-0.45268 1.1245-0.6409zm156.78 0.47056c-0.09543-0.15442-0.41403-0.40948-0.70798-0.5668-0.481-0.25742-0.50629-0.2334-0.25288 0.2401 0.26268 0.49083 0.8306 0.86477 1.0417 0.68593 0.05095-0.0432 0.01455-0.20481-0.08088-0.35923zm-15.225-0.51324c0-0.25464-0.153-0.67222-0.34-0.92796-0.3204-0.43816-0.36985-0.43199-0.8576 0.10696-0.51535 0.56945-0.5149 0.57413 0.10298 1.0744 0.68365 0.55359 1.0946 0.45843 1.0946-0.25345zm-24.408 0.16348c-0.0606-0.1819-0.33459-0.37422-0.60894-0.42739-0.43156-0.0836-0.451-0.039-0.14412 0.33073 0.41969 0.50569 0.91021 0.56865 0.75306 0.0967zm5.2286-0.4157c-0.21024-0.21024-0.66515 0.26703-0.50362 0.52838 0.10986 0.17777 0.24621 0.1507 0.3868-0.0768 0.11942-0.19322 0.17199-0.39645 0.11682-0.45161zm31.565 0.28341c-0.0485-0.25466-0.35493-0.50106-0.68087-0.54757-0.64025-0.0913-0.67565-0.0428-0.432 0.59208 0.22732 0.59239 1.2266 0.55243 1.1129-0.0445zm-9.4756-0.61092c0-0.29963-0.11906-0.4712-0.26458-0.38126-0.14552 0.0899-0.26458 0.33508-0.26458 0.54478 0 0.20969 0.11906 0.38126 0.26458 0.38126s0.26458-0.24516 0.26458-0.54478zm-32.009-0.12308c0.18407-0.22179 0.27522-0.46272 0.20255-0.53539-0.21629-0.21629-0.94954 0.15675-1.1051 0.56225-0.19317 0.5034 0.47912 0.48339 0.90259-0.0269zm7.2486-0.0315c0.0918-0.23911 0.10737-0.4942 0.0347-0.56687-0.21063-0.21063-0.94824 0.50748-0.78784 0.76701 0.22704 0.36735 0.57039 0.27611 0.75314-0.20014zm-121.82-0.0944c0-0.14552-0.18562-0.26459-0.41249-0.26459s-0.3389 0.11907-0.24896 0.26459c0.0899 0.14552 0.27555 0.26458 0.41249 0.26458 0.13693 0 0.24896-0.11906 0.24896-0.26458zm150.68-0.48186c-0.21024-0.21024-0.66515 0.26704-0.50362 0.52839 0.10986 0.17776 0.24621 0.1507 0.3868-0.0768 0.11942-0.19322 0.17199-0.39645 0.11682-0.45162zm-38.818 0.16436c0.56896-0.56896 0.33435-0.76408-0.36654-0.30484-0.55195 0.36166-0.72561 0.38094-0.89934 0.0998-0.13513-0.21865-0.39764-0.27417-0.70502-0.14912-0.46705 0.19002-0.46522 0.20933 0.0394 0.41684 0.78331 0.32208 1.5723 0.29646 1.9315-0.0627zm-7.3554-0.63977c0-0.21829-0.11906-0.3233-0.26458-0.23336-0.14552 0.0899-0.26458 0.34212-0.26458 0.5604s0.11906 0.32329 0.26458 0.23335c0.14552-0.0899 0.26458-0.34211 0.26458-0.56039zm-13.494-0.64585c0-0.4722-0.11022-0.74124-0.26458-0.64584-0.14552 0.0899-0.26458 0.45415-0.26458 0.80936 0 0.35522 0.11906 0.64585 0.26458 0.64585s0.26458-0.36422 0.26458-0.80937zm3.9162 0.30952c0.0724-0.21947 3e-3 -0.29449-0.17225-0.1862-0.16139 0.0997-0.54422 0.0471-0.85073-0.1169-0.69093-0.36978-0.96842-0.1439-0.50669 0.41245 0.40486 0.48782 1.3552 0.41989 1.5297-0.10935zm4.63 0.14512c0.20557-0.53569-0.23355-1.0672-0.72567-0.87838-0.34674 0.13306-0.3771 0.27508-0.14968 0.70001 0.32961 0.61588 0.68006 0.68729 0.87535 0.17837zm9.1472-0.0247c0.84427-0.43659 1.5042-1.1487 1.276-1.3769-0.18287-0.18287-1.8286 0.79084-2.3032 1.3627-0.43144 0.51985 0.037 0.52634 1.0272 0.0143zm24.905-0.0174c0-0.21828-0.17859-0.39687-0.39688-0.39687-0.41316 0-0.52492 0.31292-0.22048 0.61736s0.61736 0.19268 0.61736-0.22049zm-51.065-0.52916c0.26976-0.32505 0.25168-0.39688-0.0999-0.39688-0.2361 0-0.42927 0.17859-0.42927 0.39688 0 0.21828 0.045 0.39687 0.0999 0.39687s0.24812-0.17859 0.42928-0.39687zm7.0107-0.39451c0.19195-0.60479-0.0507-1.1419-0.4144-0.91711-0.32105 0.19841-0.32066 1.4439 4.5e-4 1.4439 0.13571 0 0.32199-0.23706 0.41395-0.5268zm12.119-0.4414c-0.17464-0.4551-0.87325-0.46371-0.87325-0.0108 0 0.55164 0.59419 1.0373 0.82071 0.67075 0.10376-0.1679 0.12741-0.46489 0.0525-0.65999zm-23.098 0.30674c0-0.21828-0.11203-0.39688-0.24896-0.39688-0.33364 0-0.57259 0.41317-0.3612 0.62456 0.29797 0.29797 0.61016 0.18147 0.61016-0.22768zm2.3912-0.38612c0.5936-0.50739 0.77049-0.78679 0.50253-0.79375-0.22744-6e-3 -0.75573 0.34643-1.174 0.78299-0.97906 1.0219-0.52013 1.0293 0.67145 0.0108zm5.8108 0.38612c-0.18116-0.21828-0.46363-0.39309-0.62771-0.38846-0.16408 5e-3 -0.0672 0.18322 0.21526 0.39687 0.65978 0.49904 0.8307 0.49555 0.41245-8e-3zm-32.808-0.93457c0-0.15021 0.2679-0.37607 0.59532-0.50192 0.58927-0.22649 0.58776-0.23177-0.14952-0.52064-1.3642-0.53449-1.9604-0.25422-1.6357 0.76887 0.16999 0.53559 1.1899 0.75303 1.1899 0.25369zm4.9781-0.18275c-0.0776-0.40278-1.8762-1.645-2.3984-1.6564-0.10914-2e-3 -0.19844 0.2933-0.19844 0.6571 0 0.57957 0.11466 0.66146 0.92605 0.66146 0.64675 0 0.92604 0.11969 0.92604 0.39688 0 0.21828 0.18732 0.39687 0.41627 0.39687 0.25155 0 0.38154-0.1804 0.32849-0.45586zm-8.2784-0.28679c-0.0815-0.0815-0.29495-1.7e-4 -0.47443 0.18065-0.25936 0.26131-0.22897 0.2917 0.14812 0.14811 0.26093-0.0994 0.40778-0.2473 0.32631-0.32876zm13.09 0.0812c0-0.21828-0.1786-0.39687-0.39688-0.39687s-0.39687 0.17859-0.39687 0.39687 0.17859 0.39688 0.39687 0.39688 0.39688-0.1786 0.39688-0.39688zm-16.649-0.20505c-0.0327-0.31636-0.39563-0.25509-0.50932 0.086-0.0582 0.17462 0.037 0.26987 0.21167 0.21167 0.17462-0.0582 0.30857-0.19216 0.29765-0.29766zm-4.2572-0.78714c2e-3 -0.10914-0.11501-0.19843-0.26053-0.19843s-0.26276 0.26789-0.26053 0.59531c3e-3 0.48139 0.0531 0.51937 0.26053 0.19844 0.14107-0.21828 0.25831-0.48618 0.26053-0.59532zm-11.229 0.31219c0.0962-0.15572 0.42003-0.37377 0.71953-0.48456 0.44338-0.16402 0.46857-0.2306 0.13559-0.35838-0.43584-0.16725-1.528 0.45924-1.528 0.87649 0 0.33905 0.45671 0.31629 0.67292-0.0335zm5.9417-1.32c0-0.13693-0.11906-0.24897-0.26459-0.24897-0.14552 0-0.26458 0.18562-0.26458 0.41249s0.11906 0.33891 0.26458 0.24897c0.14553-0.0899 0.26459-0.27556 0.26459-0.41249zm-30.162-0.6242c0-0.0609 0.0723-0.29899 0.1606-0.52917 0.17701-0.46129-0.32339-0.55868-0.9221-0.17946-0.42689 0.27039-0.17214 0.81928 0.38024 0.81928 0.20969 0 0.38126-0.0498 0.38126-0.11065zm7.8052-0.15393c-0.0899-0.14552-0.27556-0.26459-0.4125-0.26459-0.13693 0-0.24896 0.11907-0.24896 0.26459s0.18562 0.26458 0.41249 0.26458 0.3389-0.11906 0.24897-0.26458z"/><path d="m-105.76 451.59c-4.719-0.33895-15.571-0.94349-23.019-1.2823-13.51-0.61455-40.132-1.952-42.069-2.1134-0.94589-0.0788-8.8636-0.43856-17.595-0.79939-8.7312-0.36082-18.971-0.83196-22.754-1.047-3.7836-0.215-11.701-0.63304-17.595-0.92897-16.487-0.82787-28.353-1.5908-31.419-2.0203l-1.1245-0.15749 3.2e-4 -2.4174c1.6e-4 -1.3295 0.17556-5.513 0.38978-9.2965 0.52699-9.3079 1.345-25.619 1.9836-39.555 0.54408-11.873 0.72816-14.928 0.97876-16.244l0.1458-0.76538 6.2545 0.17759c7.9795 0.22658 16.709 0.62403 20.939 0.95334 1.819 0.14162 6.8792 0.38095 11.245 0.53184 4.3656 0.1509 9.2472 0.38935 10.848 0.52988 1.6007 0.14054 5.5893 0.38067 8.8635 0.53361 3.2742 0.15295 10.478 0.50904 16.007 0.79133 5.5298 0.28228 12.674 0.63977 15.875 0.79442 6.504 0.31417 8.4545 0.57789 9.1888 1.2424 0.4318 0.39077 0.53409 0.4 0.74194 0.0669 0.1986-0.31826 1.0701-0.37793 4.9448-0.33856 4.8515 0.0493 21.724 0.75551 40.026 1.6754 5.7481 0.2889 12.851 0.63089 15.785 0.75999 2.9339 0.1291 5.4822 0.32611 5.6629 0.4378 0.3744 0.2314 0.19946 13.803-0.26929 20.892-0.14435 2.1828-0.56606 10.279-0.93714 17.992-0.37107 7.7126-0.78975 15.571-0.93041 17.462-0.14065 1.8918-0.38187 5.285-0.53604 7.5406-0.15417 2.2556-0.33031 4.2499-0.39143 4.4318-0.08438 0.25113-1.3071 0.3196-5.0804 0.2845-2.7331-0.0254-5.505-0.0847-6.1599-0.13174zm-2.9104-2.4679c0-0.29398-0.17639-0.52916-0.39688-0.52916-0.4028 0-0.54272 0.5597-0.22048 0.88194 0.33544 0.33544 0.61736 0.17434 0.61736-0.35278zm-22.091-1.3245c0.2642-0.29193 0.40221-0.60893 0.30671-0.70443-0.28177-0.28177-1.4988 0.39437-1.4988 0.83268 0 0.56716 0.62345 0.50009 1.1921-0.12825zm6.7454-0.12136c0-0.57179-0.94503-0.97722-2.0617-0.8845-1.1469 0.0952-1.3487 0.74907-0.31952 1.0353 1.2201 0.33938 2.3812 0.26583 2.3812-0.15083zm-26.591-0.93897c0-0.56918-0.13372-0.6689-0.99219-0.73995-0.5457-0.0452-0.99218-0.194-0.99218-0.33073 0-0.13674-0.24405-0.24861-0.54232-0.24861-0.71722 0-0.40569 0.56059 0.80992 1.4574 1.0996 0.81123 1.7168 0.76157 1.7168-0.13814zm14.155 0.13592c0-0.36381-0.11906-0.66146-0.26458-0.66146-0.14553 0-0.26459 0.29765-0.26459 0.66146 0 0.3638 0.11906 0.66145 0.26459 0.66145 0.14552 0 0.26458-0.29765 0.26458-0.66145zm-12.435-0.27289c0-0.40034-0.69758-0.83752-0.94368-0.59142-0.0699 0.0699-0.052 0.32274 0.0397 0.56185 0.21051 0.54857 0.90396 0.57125 0.90396 0.0296zm1.9844-0.38857c0-0.51694-0.15159-0.67904-0.69381-0.74192-0.80072-0.0929-1.2171 0.58969-0.72297 1.1851 0.50749 0.61148 1.4168 0.32705 1.4168-0.44318zm2.1167 0c0.93889-0.97999 0.62325-1.0226-0.71338-0.0963-1.1408 0.79056-1.1997 0.89006-0.52674 0.89006 0.26381 0 0.82187-0.35719 1.2401-0.79375zm-23.019-0.26459c0-0.2271-0.19318-0.36474-0.45158-0.32175-0.27954 0.0465-0.60974-0.23072-0.86669-0.72761-0.46992-0.90872-0.71455-0.98105-1.3087-0.38695-0.55393 0.55393-0.5257 0.78413 0.17639 1.4382 0.70597 0.6577 2.4505 0.65634 2.4505-2e-3zm3.8418 0.1259c0.18408-0.2218 0.26332-0.47463 0.1761-0.56185-0.27095-0.27095-0.97516 0.13341-0.97516 0.55994 0 0.51822 0.36983 0.5191 0.79906 2e-3zm7.0931-0.21353c0.0715-0.3751-0.0467-0.46472-0.52376-0.39687-0.34229 0.0487-0.65721 0.30297-0.70853 0.57214-0.0715 0.3751 0.0467 0.46472 0.52376 0.39687 0.34229-0.0487 0.65721-0.30298 0.70853-0.57214zm-42.545-0.89241c1.2446-0.85784 1.6501-1.6658 0.83598-1.6658-0.52884 0-1.9016 1.2997-1.9016 1.8004 0 0.43393 0.2947 0.3967 1.0656-0.13463zm33.321-0.0609c0.37542-0.70149 0.34807-0.81114-0.20236-0.81114-0.55715 0-1.1112 0.48814-1.1112 0.97896 0 0.53377 1.007 0.40513 1.3136-0.16782zm64.982 0.18646c0.34927-0.35047 0.76046-6.706 1.8362-28.382 0.36111-7.276 0.65916-14.122 0.66234-15.214 0.0065-2.2442 0.12474-2.5469 1.056-2.7042l0.66146-0.11173-0.7019-0.2955c-0.88441-0.37233-1.1443-0.78303-0.77624-1.2266 0.3259-0.39268 0.44148-2.3452 0.35014-5.9146l-0.06263-2.4474-1.6536-3e-3c-0.9095-2e-3 -3.2902-0.17652-5.2905-0.3888-5.3705-0.56996-11.295-0.87798-25.6-1.3309-7.0578-0.22348-15.511-0.5815-18.785-0.79559-3.2742-0.21409-13.335-0.74935-22.357-1.1895-24.224-1.1816-24.404-1.1988-25.731-2.4416l-0.59531-0.55766v1.2341l-8.0036-0.16707c-8.3729-0.17478-16.038-0.52677-21.63-0.99324-1.819-0.15175-7.8478-0.34538-13.397-0.43028l-10.09-0.15437-0.16548 1.5583c-0.21979 2.0697-1.3689 22.88-1.8684 33.838-0.21892 4.8022-0.53916 11.267-0.71164 14.366-0.26752 4.8071-0.25853 5.6896 0.0612 6.0068 0.463 0.45928 4.1099 0.81708 12.149 1.1919 3.2742 0.15267 7.2628 0.38698 8.8635 0.52068s4.7559 0.31302 7.0115 0.39847c8.159 0.30912 16.127 0.6919 22.093 1.0613 3.347 0.20725 7.9904 0.44737 10.319 0.53362 2.3283 0.0863 7.329 0.32693 11.112 0.53484 3.7835 0.20792 10.808 0.5655 15.61 0.79463 4.8022 0.22912 9.6242 0.53159 10.716 0.67215 2.3321 0.30036 9.1903 0.6323 21.299 1.0309 9.197 0.30275 23.099 1.0086 23.548 1.1956 0.45691 0.19046 9.8693 0.0131 10.071-0.18973zm-32.639-11.272c-1.7845-0.63779-3.15-1.7407-4.1553-3.3563-0.77208-1.2408-0.79627-1.381-0.88621-5.1336-0.10716-4.4715 0.38729-16.962 0.78639-19.865 0.36396-2.6477 0.94178-3.8508 2.5822-5.3765 2.4176-2.2486 4.729-2.8855 7.8719-2.169 1.0382 0.23666 2.5231 0.81084 3.2997 1.276 2.3173 1.3877 3.4063 4.2069 3.41 8.8276 2e-3 2.7204-8e-3 2.7341-2.0773 2.7307-0.9667-2e-3 -2.1775-0.0724-2.6907-0.15731l-0.93303-0.1544 3e-3 -2.0255c5e-3 -3.4381-1.0533-5.3328-2.9778-5.3328-0.66705 0-1.1864 0.17291-1.4741 0.49073-0.90969 1.0052-1.5002 6.1163-1.9149 16.575-0.2657 6.7008 0.34912 8.599 2.7852 8.599 2.0792 0 2.805-1.2508 3.1052-5.3511 0.13571-1.8538 0.0962-2.3314-0.20088-2.4254-0.20343-0.0644-0.90565-0.27574-1.5605-0.46973l-1.1906-0.35271-0.0801-1.5465c-0.0974-1.8807 0.39283-2.8182 1.4753-2.821 0.39683-1e-3 2.2567 0.13746 4.133 0.3078l3.4115 0.30971-0.18959 6.3638c-0.23107 7.7562-0.46575 10.072-1.0906 10.763-0.70998 0.78452-1.7261 0.65597-2.5281-0.31984l-0.68954-0.83889-1.8216 0.8524c-2.3541 1.1016-4.4507 1.2984-6.4024 0.60081zm3.2463-1.6192c0.44465-0.85986 0.51456-1.3361 0.19613-1.3361-0.2498 0-1.1154 1.4176-1.1154 1.8268 0 0.55949 0.51961 0.28212 0.91925-0.4907zm-1.713 2e-3c0-0.68879-0.38309-0.8835-1.3294-0.67566-0.94001 0.20646-0.99989 0.47664-0.19198 0.86629 0.94484 0.45567 1.5214 0.38343 1.5214-0.19063zm-2.2992-0.97966c0.0937-0.0937-0.15038-0.74075-0.54231-1.438l-0.71259-1.2677 0.71869-0.66606c0.7056-0.65393 0.92263-1.3278 0.50982-1.583-0.11488-0.071-0.72811 0.21963-1.3627 0.64585-0.63462 0.42621-1.255 0.77493-1.3786 0.77493-0.38789 0-0.24435 0.80284 0.17211 0.96266 0.22297 0.0856 0.39688 0.47928 0.39688 0.89853 0 1.0547 1.5997 2.2717 2.1988 1.6727zm1.2349-1.0865c-8e-3 -0.61024-0.95885-1.8354-1.2212-1.5731-0.23104 0.23103 0.65918 2.0361 1.0042 2.0361 0.1226 0 0.22027-0.20836 0.21703-0.46302zm-2.9184-3.9688c0.51009-1.8367 0.29327-2.0861-0.87349-1.0048-0.7638 0.70786-0.87335 1.1888-0.3826 1.6795 0.56231 0.5623 0.97397 0.34118 1.2561-0.67469zm-0.14002-4.1955c0.23019-0.0883 0.41852-0.27446 0.41852-0.41364 0-0.37136-1.66-0.14524-1.7876 0.24351-0.11504 0.35044 0.65111 0.44565 1.3691 0.17013zm1.4768-1.133c0-0.27492-0.24642-0.78094-0.54761-1.1245l-0.5476-0.62462 0.172 0.79227c0.15648 0.72079 0.57241 1.4567 0.82331 1.4567 0.055 0 0.0999-0.22493 0.0999-0.49985zm-1.5875-2.146c0-0.35278-0.17639-0.52917-0.52917-0.52917-0.35277 0-0.52916 0.17639-0.52916 0.52917s0.17639 0.52917 0.52916 0.52917c0.35278 0 0.52917-0.17639 0.52917-0.52917zm0.0149-2.1828c0.6838-0.81968 0.63792-0.99219-0.2639-0.99219-0.8982 0-1.1776 0.31496-0.94091 1.0607 0.21823 0.68758 0.59178 0.66634 1.2048-0.0685zm-26.076 15.651c-3.638-0.27194-6.8978-0.56214-7.244-0.6449-0.57977-0.1386-0.61656-0.2442-0.46648-1.3392 0.23594-1.7214 1.3207-4.7443 3.219-8.9706 0.9151-2.0373 2.3214-5.1924 3.125-7.0115 0.80364-1.819 2.2969-5.0828 3.3184-7.2528 1.4193-3.015 1.7979-4.0564 1.6056-4.4157-0.27646-0.51658-1.0762-0.66003-4.9161-0.88185-1.3293-0.0768-2.7283-0.258-3.1089-0.4027-0.65306-0.24829-0.69196-0.36474-0.69196-2.0712 0-2.9267-0.24867-2.8236 6.2456-2.5903 3.0406 0.10926 6.4213 0.27742 7.5128 0.37371l1.9844 0.17507 0.0793 1.3694c0.12858 2.2206-1.2698 5.8694-7.0449 18.381-1.4541 3.1503-2.9143 6.4699-3.245 7.3768-0.56337 1.5451-0.57266 1.6697-0.14763 1.9805 0.24946 0.18241 1.8487 0.47264 3.5538 0.64494s3.5765 0.45398 4.1585 0.62596l1.0583 0.3127 0.0788 1.813c0.0987 2.2703-0.33617 3.0965-1.6063 3.0516-0.46959-0.0166-3.8304-0.25265-7.4684-0.52459zm-3.1593-2.1165c0.19976-0.32322-0.57074-1.2275-0.8273-0.97099-0.21885 0.21886 0.12573 1.261 0.41695 1.261 0.12713 0 0.31178-0.13049 0.41035-0.28998zm-0.52916-1.5875c0.0986-0.15948 0.0163-0.45283-0.18283-0.65189-0.45899-0.45883-1.1636-0.0695-0.93806 0.51829 0.18595 0.48458 0.85471 0.56429 1.1209 0.1336zm4.0854-12.939c0-0.29398-0.17639-0.52917-0.39688-0.52917-0.4028 0-0.54273 0.5597-0.22048 0.88195 0.33543 0.33543 0.61736 0.17433 0.61736-0.35278zm1.5875-0.14969c0-0.34443-0.56731-1.1732-0.80306-1.1732-0.35725 0-0.3186 0.6246 0.0622 1.0054 0.33199 0.33198 0.74084 0.4246 0.74084 0.16781zm2.3986-3.8284c0.67114-0.35918 0.65511-0.98976-0.0279-1.0968-0.87511-0.1371-0.7243-0.60667 0.22408-0.69775 1.0164-0.0976 1.3484-0.6669 0.76669-1.3149-0.25397-0.28291-0.35384-0.72652-0.26583-1.1808 0.117-0.60389 0.0483-0.7276-0.40403-0.7276-0.29976 0-0.73036 0.26461-0.95689 0.58804-0.52847 0.75449-0.52001 0.99946 0.0345 0.99946 0.36196 0 0.31764 0.1376-0.23438 0.7276-0.7046 0.75309-1.5349 2.213-1.5349 2.6988 0 0.35798 1.7317 0.36075 2.3986 4e-3zm1.1732-6.7596c0-0.50641-0.13519-0.7717-0.39325-0.7717-0.43509 0-0.66315 0.73388-0.42274 1.3604 0.25135 0.65501 0.81599 0.24766 0.81599-0.58867zm1.6018-1.9854c0.0978-0.15821 0.058-0.40736-0.0883-0.55368-0.30083-0.30082-1.3812 0.15758-1.3812 0.58604 0 0.3509 1.2496 0.32338 1.4695-0.0324zm-1.2728-3.0427c-0.14867-1.319-0.49922-1.868-0.99646-1.5607-0.37281 0.23041-0.1787 1.836 0.29028 2.4011 0.58714 0.70746 0.84593 0.39949 0.70618-0.84037zm1.8257 0.28423c0.15816-0.41215-0.31958-1.1873-0.73176-1.1873-0.2704 0-0.31591 1.151-0.0558 1.4111 0.29355 0.29355 0.62518 0.19929 0.78755-0.22385zm5.3901 29.835c2e-3 -1.5644 0.17917-5.4636 0.39324-8.6651 0.35456-5.3026 0.6317-10.471 1.0818-20.174l0.16262-3.5057h5.8204l-0.17293 5.0932c-0.0951 2.8013-0.28254 6.7006-0.4165 8.6651s-0.36585 6.7866-0.51532 10.716c-0.14948 3.9291-0.33956 7.8762-0.42241 8.7713-0.17849 1.9284-0.19139 1.9354-3.6198 1.9407l-2.3151 4e-3zm2.7466-3.1327c0.29267-0.76269-0.16869-1.1048-0.88158-0.6537-0.31481 0.19921-0.32059 0.31178-0.0337 0.65741 0.43948 0.52954 0.71112 0.52844 0.91533-4e-3zm-0.10644-8.8427c-0.16435-0.30708-0.43958-0.51201-0.61163-0.45538-0.55528 0.18274-0.48241 1.1122 0.13981 1.783l0.60571 0.65301 0.0825-0.71116c0.0454-0.39113-0.052-0.9624-0.21635-1.2695zm1.3245-1.9334c0-0.0464-0.18321-0.70119-0.40713-1.4552-0.39486-1.3296-0.91731-1.8484-0.91431-0.90792 3e-3 0.97719 0.56599 2.4474 0.937 2.4474 0.21144 0 0.38444-0.0379 0.38444-0.0843zm1.5875-4.8429c0-0.42684-0.68447-0.49077-0.93388-0.0872-0.0942 0.15249-0.0999 0.46356-0.0125 0.69126 0.1284 0.33461 0.23438 0.35133 0.55262 0.0872 0.21656-0.17973 0.39375-0.4908 0.39375-0.69126zm-1.5875-0.67518c0-0.37042-0.97469-0.24118-1.3201 0.17504-0.17962 0.21643-0.25063 0.59145-0.15779 0.83338 0.14918 0.38875 0.24488 0.36841 0.82335-0.17504 0.36001-0.33821 0.65456-0.71323 0.65456-0.83338zm0.81219-2.105c0.21346-0.39885 0.21514-0.63153 6e-3 -0.8406-0.15899-0.159-0.28909-0.51632-0.28909-0.79403 0-0.41801-0.12525-0.474-0.7276-0.32524-1.0866 0.26837-1.2383 0.55762-0.61774 1.1782 0.4105 0.4105 0.51377 0.74246 0.3875 1.2456-0.15876 0.63255-0.12867 0.66264 0.38678 0.38678 0.30741-0.16452 0.69175-0.54731 0.85409-0.85064zm0.49232-8.2803c0.56483-0.60123 0.56623-1.2102 3e-3 -1.2102-0.39328 0-1.3073 1.0174-1.3073 1.4552 0 0.59568 0.625 0.4783 1.3045-0.245zm-39.735 30.887c-0.59177-0.15464-0.60494-2.2896-0.0666-10.798 0.81119-12.821 1.0003-17.704 0.71351-18.421-0.25223-0.6305-0.48027-0.72257-2.4798-1.0012-3.922-0.54653-3.5377-0.24015-3.4396-2.742 0.047-1.1973 0.16602-2.2557 0.26459-2.3518 0.212-0.20684 14.561 0.18836 16.817 0.46313l1.5561 0.18962-0.13876 2.2242c-0.0763 1.2233-0.22067 2.3064-0.32077 2.4069-0.1001 0.10045-1.4179 0.22311-2.9284 0.27257-2.28 0.0747-2.7688 0.16453-2.8782 0.52917-0.19258 0.64204-0.62909 7.0329-1.0782 15.785-0.59975 11.689-0.6958 12.828-1.1178 13.249-0.36527 0.36527-3.7371 0.4988-4.9028 0.19416zm3.7236-8.1078c0.0506-0.26108-0.0843-0.44109-0.33073-0.44109-0.24543 0-0.41627 0.22622-0.41627 0.55121 0 0.6448 0.61827 0.55366 0.747-0.11012zm-0.21784-1.2348c0-0.14552-0.29062-0.26459-0.64584-0.26459-0.35521 0-0.71943 0.11907-0.80936 0.26459-0.0954 0.15436 0.17364 0.26458 0.64584 0.26458 0.44515 0 0.80936-0.11906 0.80936-0.26458zm-0.52916-1.0054c0-0.27384-0.57283-0.84667-0.84667-0.84667-0.11642 0-0.21167 0.23813-0.21167 0.52917 0 0.35278 0.17639 0.52917 0.52917 0.52917 0.29104 0 0.52917-0.0953 0.52917-0.21167zm1.0583-10.01c0-0.18188-0.10659-0.39656-0.23686-0.47707-0.2828-0.17479-0.56018 0.46309-0.54847 1.2613 8e-3 0.56136 0.0167 0.56264 0.39687 0.0601 0.21365-0.28247 0.38846-0.6624 0.38846-0.84428zm-1.8797 0.71907c0.51245-0.32448 0.16143-1.081-0.50158-1.081-0.663 0-1.014 0.75651-0.50157 1.081 0.2031 0.1286 0.42881 0.23383 0.50157 0.23383 0.0728 0 0.29847-0.10523 0.50158-0.23383zm2.938-7.9278c0-0.33351-0.77667-0.93141-0.96512-0.74297-0.27094 0.27095 0.13342 0.97516 0.55995 0.97516 0.22285 0 0.40517-0.10448 0.40517-0.23219zm1.0341-4.5303c0.11375 0 0.42232 0.23813 0.68571 0.52917 0.47335 0.52305 1.1906 0.71944 1.1906 0.326 0-0.4511-1.3679-2.1781-1.7252-2.1781-0.21074 0-0.772 0.35763-1.2472 0.79472l-0.86407 0.79473 1.5875 1.4146 0.0829-0.84056c0.0456-0.46232 0.17598-0.84057 0.28972-0.84057zm-3.1993 0.17803c0.0669-0.5654-0.0259-0.7072-0.46302-0.7072-0.39639 0-0.54675 0.16978-0.54675 0.61736 0 1.2013 0.86903 1.2786 1.0098 0.0898zm-4.4494-0.75629c0-0.499-1.1037-1.5384-1.6336-1.5384-0.7039 0-0.59353 0.38916 0.33101 1.1671 0.8836 0.7435 1.3026 0.86294 1.3026 0.3713zm10.583-0.21549c0-0.14552-0.2311-0.26458-0.51356-0.26458-0.28245 0-0.58713 0.11906-0.67707 0.26458-0.0927 0.15006 0.12955 0.26458 0.51355 0.26458 0.37239 0 0.67708-0.11906 0.67708-0.26458zm-4.2835-0.72645c-0.0664-0.34465-0.48124-0.51665-1.6347-0.67774-0.85017-0.11873-1.6146-0.14704-1.6988-0.0629-0.4126 0.41259 1.2451 1.1066 2.8077 1.1754 0.44964 0.0198 0.59083-0.0969 0.52577-0.43478zm-17.148 33.124c-0.21828-0.0469-1.099-0.16294-1.9573-0.25781l-1.5604-0.17249 0.17215-3.4818c0.0947-1.915 0.40818-8.3634 0.69667-14.33 0.5085-10.517 0.6589-13.021 0.95744-15.941l0.142-1.3891 2.2961 4e-3c3.796 6e-3 3.5346-0.31189 3.3435 4.0648-0.18039 4.1322-0.47616 9.4088-0.89909 16.04-0.15314 2.4011-0.39078 6.7949-0.52808 9.764-0.18226 3.9414-0.34324 5.4578-0.59643 5.6184-0.33903 0.215-1.2737 0.25178-2.0666 0.0813zm-0.33065-6.4016c0.14467-0.43448-0.68434-0.74462-1.0399-0.38905-0.15216 0.15216-0.19259 0.41269-0.0898 0.57895 0.23378 0.37825 0.98249 0.2524 1.1298-0.1899zm0.1924-7.465c0.16971-0.27459-0.75845-1.3326-1.169-1.3326-0.44145 0-0.57694 0.50385-0.28312 1.0529 0.29699 0.55493 1.1773 0.72449 1.4522 0.2797zm0.35279-4.3446c-0.14156-0.45345-0.32115-1.0328-0.3991-1.2875-0.21209-0.69287-0.60919-0.55798-0.60919 0.20693 0 1.0361 0.76891 2.7088 1.042 2.2668 0.12474-0.20183 0.10982-0.72639-0.0337-1.1863zm1.9021-3.7673c0-0.42684-0.68447-0.49077-0.93387-0.0872-0.0942 0.15249-0.0999 0.46356-0.0125 0.69126 0.1284 0.3346 0.23438 0.35133 0.55261 0.0872 0.21657-0.17973 0.39375-0.49079 0.39375-0.69125zm-1.5875-0.67519c0-0.37042-0.97469-0.24117-1.3201 0.17505-0.17962 0.21642-0.25062 0.59145-0.15778 0.83338 0.14917 0.38875 0.24488 0.3684 0.82335-0.17504 0.36-0.33821 0.65455-0.71323 0.65455-0.83339zm1.0583-1.4091c0-1.0665-0.40541-1.193-1.3562-0.42316l-0.62103 0.50288 0.92245 0.40157c0.50735 0.22087 0.95222 0.41129 0.9886 0.42316 0.0364 0.0119 0.0661-0.39513 0.0661-0.90445zm-0.84994-1.7557c0.0966-0.50176-0.71125-0.88999-1.0815-0.51973-0.38234 0.38233 0.0102 1.1369 0.53855 1.0352 0.25343-0.0488 0.49776-0.28075 0.54296-0.51543zm0.95833-1.7775c0.15431-0.24968-1.154-0.9334-1.3709-0.71645-0.20547 0.20548 0.48454 0.94234 0.88243 0.94234 0.19188 0 0.41169-0.10165 0.48848-0.22589zm0.40231-5.3526c0.84018-0.84018 0.87833-1.4001 0.0761-1.1174-0.66524 0.2344-1.6452 1.1771-1.6452 1.5826 0 0.59956 0.71676 0.38704 1.569-0.46523zm-20.175 31.208c-0.0857-0.49016-0.58303-4.4631-1.1051-8.8287-1.0868-9.0881-1.1056-9.2006-1.5149-9.0642-0.49535 0.16511-1.182 2.5937-2.9436 10.411l-1.664 7.3842-5.0766 0.1508-0.1533-0.7369c-0.43156-2.0744-3.8616-31.718-3.8616-33.373 0-1.2773 0.1842-1.3627 2.9386-1.3627 1.9367 0 2.1191 0.0467 2.3253 0.59531 0.12303 0.32742 0.60034 4.7566 1.0607 9.8426s0.88301 9.2933 0.93925 9.3495c0.0562 0.0562 0.28206-0.17597 0.50184-0.51602 0.48395-0.74877 1.1239-3.2364 2.5413-9.8787 1.492-6.9919 1.9872-8.5583 2.8037-8.8688 0.64948-0.24694 2.7084-0.0919 3.2535 0.24506 0.39889 0.24653 0.97387 3.8748 1.765 11.137 1.2126 11.132 1.3965 10.977 4.0846-3.4396 0.58337-3.1287 1.1919-6.1514 1.3522-6.717l0.29152-1.0285 2.1039 0.14421c2.2257 0.15255 2.8783 0.45185 2.8783 1.3201 0 0.54636-6.3948 30.509-6.8825 32.248-0.39213 1.398-0.83072 1.6331-3.2879 1.7621l-2.1943 0.11517zm3.4771-4.6615c0.0739-0.52036-0.0324-0.59531-0.84428-0.59531-1.0584 0-1.4226 0.3687-0.93934 0.95101 0.50054 0.60311 1.6809 0.36773 1.7836-0.3557zm-10.995-1.68c-0.0715-0.27329-0.23547-0.43168-0.36444-0.35197-0.27679 0.17106-0.31253 1.0058-0.0541 1.2642 0.2762 0.2762 0.56486-0.35287 0.41858-0.91224zm-2.7652 0.0854c0.0938-0.63579-0.36876-1.6466-0.75352-1.6466-0.28522 0-0.3452 1.3099-0.0904 1.9739 0.2204 0.57435 0.74064 0.37255 0.8439-0.32735zm1.2206-1.294c0.20508-0.53443-0.0429-0.8919-0.49758-0.71741-0.42977 0.16492-0.73766 0.84065-0.53354 1.1709 0.19593 0.31701 0.84499 0.0315 1.0311-0.45353zm1.4748-0.88171c0-0.76435-0.11024-1.0583-0.39687-1.0583-0.41028 0-0.53738 0.91349-0.23628 1.6982 0.29566 0.77046 0.63315 0.42941 0.63315-0.63982zm-2.0984-0.82324c0.2504-0.40515-0.67545-2.316-1.2242-2.5265-0.55031-0.21118-1.1753 0.39144-1.1753 1.1332 0 0.34598-0.11906 0.62906-0.26458 0.62906-0.37013 0-0.33016 0.62066 0.0662 1.0271 0.4039 0.4142 2.2979 0.22259 2.5979-0.26283zm2.5363-1.7017c0.0862-0.22456 0.0914-0.47356 0.0116-0.55333-0.26325-0.26324-1.2432 0.19597-1.2432 0.58257 0 0.50993 1.0341 0.48538 1.2316-0.0292zm13.188-0.91463c0-0.57381-1.0322-0.49477-1.1444 0.0876-0.0724 0.37572 0.0456 0.46483 0.52554 0.39687 0.34037-0.0482 0.61885-0.26622 0.61885-0.4845zm-16.562-1.1643 0.87201-0.89969-0.55552-0.55552c-0.30554-0.30554-0.55553-0.71806-0.55553-0.91672 0-0.58895-1.0573-1.7555-1.5911-1.7555-0.76677 0-0.90384 0.51622-0.28913 1.0889 0.61681 0.57465 0.73646 1.8064 0.25096 2.5838-0.39156 0.62699-0.11727 1.3544 0.51072 1.3544 0.26706 0 0.87797-0.40485 1.3576-0.89968zm11.782-0.39567c0.19104-0.30911-0.806-1.54-1.0503-1.2967-0.30428 0.3031 0.11904 1.5337 0.52759 1.5337 0.20692 0 0.44214-0.10666 0.52271-0.23702zm4.9118-0.9536c0-0.36381-0.11906-0.66146-0.26458-0.66146s-0.26458 0.29765-0.26458 0.66146c0 0.3638 0.11906 0.66145 0.26458 0.66145s0.26458-0.29765 0.26458-0.66145zm-11.862-2.9182c-0.33132-0.72717-0.83837-0.66504-0.83837 0.10273 0 0.63547 0.56473 1.1659 0.89241 0.83823 0.16682-0.16682 0.1478-0.49797-0.054-0.94096zm6.1887-1.333c-0.55232-0.40765-1.7354-0.51842-1.7354-0.16248 0 0.11912 0.38695 0.40401 0.8599 0.63309 1.0252 0.49658 1.6968 0.13557 0.87547-0.47061zm7.2605 0.2824c0-0.45444-0.44041-0.74755-0.79446-0.52873-0.17605 0.10881-0.17159 0.33907 0.0133 0.68449 0.29586 0.55282 0.78118 0.45605 0.78118-0.15576zm-1.0583-1.4396c0-0.58187-0.39855-0.92132-0.79446-0.67663-0.17643 0.10904-0.17331 0.33585 9e-3 0.67707 0.35338 0.66031 0.78516 0.66007 0.78516-5.2e-4zm-6.8792-4.134c0-0.77787-0.43106-1.7024-0.79375-1.7024-0.13528 0-0.36659 0.2254-0.51403 0.50089-0.20572 0.38439-0.14188 0.66131 0.27448 1.1906 0.68683 0.87316 1.0333 0.87681 1.0333 0.0109zm-2.3909 0.029c0.17586-0.2119 0.24295-0.50956 0.14907-0.66145-0.38268-0.61919-1.636-0.052-1.3769 0.62316 0.20273 0.52831 0.80558 0.54711 1.2279 0.0383zm0.36245-2.1089c0.20176-0.52576-0.54633-1.1223-0.92835-0.74029-0.36535 0.36535-0.0916 1.1178 0.40661 1.1178 0.20728 0 0.44207-0.16989 0.52174-0.37753zm9.2175 41.479c0.6282-0.56851 0.63275-1.4142 8e-3 -1.4142-0.65206 0-1.1112 0.51385-1.1112 1.2436 0 0.71623 0.42771 0.78237 1.1036 0.17065zm-20.683-0.17582c0-0.19202 0.38696-0.51945 0.8599-0.72761 0.54026-0.23779 0.89132-0.59976 0.94444-0.97379 0.11452-0.80632-0.32174-0.75294-1.8473 0.22602-1.4391 0.92349-1.7446 1.8245-0.61847 1.8245 0.37136 0 0.66145-0.15311 0.66145-0.34912zm8.5684-0.0319c-0.18071-0.47093-1.4147-1.3046-1.6229-1.0965-0.0838 0.0838-0.0165 0.45047 0.14957 0.81489 0.33506 0.73537 1.7514 1.006 1.4733 0.28157zm14.979-0.14816c0-0.35278-0.17639-0.52917-0.52917-0.52917-0.35277 0-0.52916 0.17639-0.52916 0.52917 0 0.35277 0.17639 0.52916 0.52916 0.52916 0.35278 0 0.52917-0.17639 0.52917-0.52916zm-13.133-0.39688c0.21035-0.54818-0.0752-1.1906-0.52917-1.1906-0.20728 0-0.44541 0.17859-0.52917 0.39687-0.21036 0.54818 0.0752 1.1906 0.52917 1.1906 0.20728 0 0.4454-0.1786 0.52917-0.39688zm-5.5385-0.54806c0.52381-0.52382 0.54173-1.4363 0.0282-1.4363-0.48091 0-1.0266 0.9682-0.83173 1.4759 0.18323 0.47749 0.29181 0.47214 0.80353-0.0396zm11.183-0.25405c-0.82033-0.7217-1.7712-0.8663-1.7712-0.26937 0 0.51829 0.75457 0.92317 1.7198 0.92278l0.79375-2.6e-4 -0.74236-0.6531zm3.2559 0.30125c0-0.46614-0.80031-0.78904-1.1324-0.45691-0.13761 0.13761-0.17021 0.37964-0.0724 0.53784 0.25772 0.41699 1.2049 0.35337 1.2049-0.0809zm-34.934-1.2015c0.39877-0.74511 0.33653-1.6049-0.11619-1.6049-0.37466 0-1.1974 1.2636-1.1974 1.8389 0 0.48312 1.0278 0.29999 1.3136-0.23405zm3.2892 0.091c0.20082-0.52333-0.0164-0.90217-0.51733-0.90217-0.23029 0-0.38126 0.26192-0.38126 0.66146 0 0.7399 0.64113 0.91164 0.89859 0.24071zm11.669-0.10842c0-0.26344-0.21606-0.37287-0.6426-0.32547-0.35343 0.0393-0.72836-0.0674-0.83319-0.23699-0.28919-0.46793-1.0378-0.0577-1.0378 0.56865 0 0.49342 0.13332 0.54342 1.2568 0.47133 0.9049-0.0581 1.2568-0.19176 1.2568-0.47752zm-22.806-0.52334c0.68333-0.43336 1.2424-0.96914 1.2424-1.1906 0-0.53494-0.76618-0.51781-0.97324 0.0218-0.12516 0.32617-0.38855 0.38839-1.1373 0.26865-1.2361-0.19766-2.0012 0.29157-1.7405 1.113 0.25503 0.80353 1.1169 0.73323 2.6086-0.21278zm18.813 0.28502c0.26816-0.29631 0.34847-0.56881 0.1955-0.66335-0.4102-0.25351-1.6269 0.31698-1.6269 0.76283 0 0.5649 0.8859 0.50334 1.4314-0.0995zm-4.9188-0.88346c-0.12547-0.8794-1.0106-0.9567-1.0106-0.0882 0 0.51209 0.13572 0.68085 0.54757 0.68085 0.41588 0 0.52723-0.14251 0.46302-0.59261zm-16.621-0.77277c0-0.12217-0.35718-0.22212-0.79375-0.22212-0.73366 0-1.058 0.44134-0.63506 0.86425 0.20311 0.2031 1.4288-0.34775 1.4288-0.64213zm157.16-0.25042c0-0.27548-0.10448-0.50086-0.23219-0.50086-0.37504 0-0.88617 0.74716-0.70816 1.0352 0.25513 0.41282 0.94034 0.0235 0.94034-0.53432zm0.99022-2.2809c0.10418-0.31255-0.92957-0.75007-1.1802-0.49949-0.21967 0.21966 0.486 0.99019 0.80842 0.88272 0.15096-0.0503 0.31824-0.22278 0.37173-0.38323zm0.20041-4.2802c0-0.20043-0.21175-0.49645-0.47055-0.65783-0.59773-0.37273-1.1197 0.28339-0.66312 0.83353 0.36188 0.43603 1.1337 0.31642 1.1337-0.1757zm-0.44632-8.9549c-0.04854-0.25466-0.35492-0.50107-0.68086-0.54757-0.65138-0.0929-0.7678 0.2004-0.27511 0.69309 0.47399 0.47399 1.0571 0.38522 0.95597-0.14552zm1.3269-1.2598c0.05112-0.28937 0.33751-0.71815 0.6364-0.95284 0.2989-0.2347 0.45977-0.56212 0.35749-0.72761-0.25626-0.41464-0.86232-0.37786-1.0313 0.0626-0.07671 0.19991-0.5657 0.44343-1.0866 0.54116-1.1087 0.20799-1.1412 0.30989-0.36351 1.1378 0.67768 0.72136 1.3543 0.6936 1.4876-0.061zm-1.079-2.4442c0.14466-0.43448-0.68434-0.74463-1.0399-0.38906-0.15216 0.15216-0.19259 0.41269-0.08984 0.57895 0.23377 0.37825 0.98248 0.2524 1.1298-0.18989zm1.0105-5.7339c0.22666-0.90309 0.04297-1.6084-0.41889-1.6084-0.2735 0-0.41803 0.34243-0.47461 1.1245-0.06301 0.87089 0.01042 1.1245 0.32569 1.1245 0.22388 0 0.47939-0.28824 0.56781-0.64054zm0.61065-3.3271c0.6321-1.1247 0.56801-1.5886-0.21947-1.5886-0.57356 0-0.80644 0.50287-0.80644 1.7414 0 1.1868 0.29796 1.1424 1.0259-0.15282zm0.23813-5.9692c0.55644-0.38975 0.81748-1.1768 0.3896-1.1746-0.46888 2e-3 -1.93 1.0887-1.7834 1.326 0.23143 0.37446 0.71863 0.32155 1.3938-0.15137zm-0.58707-3.7442c-0.12426-0.3238-0.23025-0.33826-0.54781-0.0747-0.51276 0.42556-0.4968 0.79239 0.06928 1.5922l0.46302 0.65418 0.08479-0.88508c0.04663-0.4868 0.01545-1.0658-0.06928-1.2866zm-160.8 0.76186c0.092-0.6252-0.20307-0.74709-0.67241-0.27776-0.35608 0.35608-0.13255 1.0893 0.28973 0.95041 0.16398-0.0539 0.33618-0.35662 0.38268-0.67265zm161.39-2.5335c0.15894-1.8922-1.5229-3.108-2.1056-1.5222-0.18442 0.50185-0.12907 0.64575 0.29062 0.7555 0.29602 0.0774 0.64754 0.52676 0.81937 1.0474 0.3809 1.1541 0.8871 1.0114 0.99564-0.28072zm-160.34-1.5468c0.0651-0.3416-0.0862-0.46302-0.57699-0.46302-0.72328 0-1.0935 0.36543-0.81942 0.80888 0.26597 0.43034 1.2972 0.17494 1.3964-0.34586zm-0.61201-1.7859c0-0.71969-0.52422-1.0038-0.75285-0.40806-0.20747 0.54068 0.0793 1.25 0.45472 1.1248 0.16397-0.0547 0.29813-0.37719 0.29813-0.71674zm161.53-2.1167c0-0.14552-0.2311-0.26458-0.51355-0.26458s-0.58714 0.11906-0.67707 0.26458c-0.09274 0.15006 0.12954 0.26459 0.51355 0.26459 0.37239 0 0.67707-0.11907 0.67707-0.26459zm0.62871-1.1806c-0.16304-0.42489-1.104-0.81365-1.3569-0.56066-0.19306 0.19306 0.73184 0.92728 1.1829 0.93905 0.17733 5e-3 0.25563-0.16565 0.17399-0.37839zm-161.54-1.2888c0.0495-0.25521-0.0833-0.44109-0.31511-0.44109-0.49153 0-0.78818 0.43131-0.55555 0.80771 0.23932 0.38724 0.7676 0.16479 0.87066-0.36662zm160.65-0.69637c0-0.40074-0.99669-0.85227-1.1902-0.53919-0.09018 0.14591-0.09038 0.38436-5.29e-4 0.52988 0.20946 0.33892 1.1906 0.34659 1.1906 9e-3zm-160.61-2.3732c0.35184-0.65741 0.34501-0.81115-0.036-0.81115-0.36931 0-1.2776 0.78156-1.2776 1.0993 0 0.44195 1.0456 0.21255 1.3136-0.28819zm0.1416-3.6149c0-0.75662-0.7615-0.74009-1.6845 0.0366-0.45597 0.38367-0.82903 0.78766-0.82903 0.89775s0.56555 0.0566 1.2568-0.11895c0.93919-0.23847 1.2568-0.44451 1.2568-0.81537zm157.03 0.93907c0-0.32259-1.293-1.5749-1.6261-1.5749-0.43898 0-0.21738 0.56238 0.47414 1.2033 0.74639 0.69173 1.152 0.82257 1.152 0.37161zm-39.943-1.1668c-0.18627-0.22445-0.50269-0.40809-0.70315-0.40809-0.51999 0-0.45116 0.71855 0.0985 1.0287 0.62089 0.35033 1.0472-0.0873 0.60461-0.62062zm24.484 0.56358c0.19777-0.51539-0.34411-1.7654-0.7653-1.7654-0.19933 0-0.57791 0.23813-0.8413 0.52917-0.46213 0.51064-0.46213 0.54768 0 1.0583 0.54621 0.60356 1.4067 0.69885 1.6066 0.17792zm12.13 0.19065c0.82624-0.31706 0.13633-1.4269-0.88701-1.4269-0.39635 0-0.35319 1.2501 0.0488 1.4123 0.1819 0.0734 0.35075 0.14285 0.37523 0.15434 0.0245 0.0115 0.23284-0.0514 0.46302-0.13971zm-31.239-0.49239c0.16964-0.44209-0.22454-0.78304-0.6216-0.53764-0.39559 0.24449-0.31906 0.92604 0.10398 0.92604 0.20272 0 0.43564-0.17478 0.51762-0.3884zm22.007-0.42812c4e-3 -0.20576 0.10017-0.52293 0.21405-0.70483 0.29846-0.47672-0.47795-0.42132-0.87971 0.0628-0.17962 0.21642-0.25366 0.58351-0.16455 0.81575 0.19118 0.4982 0.82011 0.36661 0.83021-0.1737zm-32.141-0.19896c0.56207-0.45514 0.54541-1.1012-0.0284-1.1012-0.4106 0-1.3388 1.058-1.169 1.3326 0.22988 0.37197 0.52207 0.31551 1.1974-0.23138zm7.3431-0.16569c0.32289-0.70868 0.0798-1.0309-0.58514-0.77575-0.61201 0.23485-0.52007 1.4278 0.11004 1.4278 0.0979 0 0.3117-0.29341 0.4751-0.65201zm-121.79-0.16017c0-0.20416-0.20836-0.41133-0.46303-0.46037-0.45607-0.0878-0.64461 0.47359-0.28112 0.83709 0.27734 0.27733 0.74415 0.041 0.74415-0.37672zm150.78-0.12585c0.16327-0.42549-0.24072-0.75743-0.62945-0.51718-0.14552 0.0899-0.26458 0.39088-0.26458 0.66877 0 0.56949 0.66028 0.45753 0.89403-0.15159zm-38.832-0.26086c0.54692-0.8347 0.28423-1.1642-0.42003-0.52686-0.4221 0.38199-0.60259 0.41215-0.91497 0.1529-0.39121-0.32467-1.4729-0.15772-1.4729 0.22733 0 0.29232 1.0809 0.7772 1.7798 0.79844 0.35182 0.0107 0.76601-0.25191 1.028-0.65181zm-7.3058-0.83606c0-0.19047-0.11488-0.3463-0.25528-0.3463-0.36316 0-0.75647 0.85595-0.59805 1.3015 0.10648 0.29945 0.20638 0.27582 0.49342-0.11672 0.19795-0.27071 0.35991-0.64804 0.35991-0.83851zm-13.539-0.0555c0.0479-0.32661 0.0167-0.77717-0.0693-1.0013-0.22283-0.58068-0.94384 0.0542-0.94384 0.83109 0 1.1009 0.85558 1.2446 1.0131 0.17017zm3.3309 0.60697c0.62193-0.23866 0.54727-1.1464-0.0808-0.9822-0.27462 0.0718-0.57931 1e-3 -0.67708-0.15707-0.23776-0.3847-0.94028-0.36807-0.94028 0.0223 0 0.35647 0.777 1.2776 1.0777 1.2776 0.11106 0 0.39026-0.0723 0.62045-0.1606zm5.0487-0.78749c0-0.59354-0.12133-0.7717-0.52554-0.7717-0.62369 0-0.84706 0.78484-0.38264 1.3444 0.47992 0.57827 0.90818 0.30819 0.90818-0.57274zm9.8336 6e-3c0.89712-0.68427 1.1725-1.4396 0.52482-1.4396-0.42029 0-2.2476 1.2872-2.8178 1.9849-0.37436 0.45805-0.34558 0.47544 0.50707 0.3065 0.49717-0.0985 1.3008-0.48184 1.7859-0.85184zm24.383 0.32366c0.10905-0.56227-0.7242-0.90555-1.0233-0.42158-0.2576 0.41681 0.20691 1.1067 0.64659 0.96036 0.16006-0.0533 0.32959-0.29574 0.37672-0.53878zm-51.018-0.86957c0-0.20046-0.16586-0.36447-0.36857-0.36447-0.4204 0-0.76961 0.71508-0.53478 1.095 0.20249 0.32764 0.90335-0.23918 0.90335-0.73058zm6.9318 0.0226c0.25286-0.55496 0.2273-0.74975-0.14753-1.1245-0.39735-0.39725-0.48438-0.40421-0.70433-0.0564-0.29145 0.46089-0.33875 1.4196-0.0827 1.6757 0.33264 0.33264 0.62901 0.17571 0.93454-0.49484zm12.118-0.10691c0-0.8717-0.27822-1.1536-0.90217-0.9142-0.53934 0.20696-0.53377 0.59975 0.0171 1.2085 0.62274 0.68813 0.88502 0.60092 0.88502-0.29429zm-23.108 0.0989c0.24078-0.62745-0.32353-1.07-0.82923-0.65028-0.31338 0.26009-0.33984 0.42756-0.11111 0.70317 0.39621 0.4774 0.74437 0.45782 0.94034-0.0529zm2.6686-0.72286c1.3278-1.2094 0.2561-1.3621-1.1144-0.15875-0.51391 0.45123-0.86802 0.9278-0.7869 1.059 0.17548 0.28393 1.062-0.13587 1.9013-0.9003zm5.5626 0.56111c-0.15353-0.46059-0.94077-0.89242-1.1838-0.64937-0.11589 0.11589 0.0202 0.37957 0.30246 0.58595 0.62423 0.45645 1.0219 0.48507 0.88136 0.0634zm-32.919-0.8788c0.21828-0.21828 0.58397-0.39688 0.81265-0.39688 0.22867 0 0.41577-0.11487 0.41577-0.25527 0-0.30489-0.65818-0.66588-1.6431-0.90114-0.86599-0.20686-1.3284 0.43236-0.98003 1.3548 0.2597 0.68776 0.82492 0.76819 1.3947 0.19844zm5.0615 0.13776c0.265-0.42878-0.30104-1.1953-1.2667-1.7153-1.0933-0.58879-1.8448-0.39191-1.725 0.45191 0.0715 0.50351 0.23828 0.59188 1.0699 0.56693 0.54186-0.0163 0.92178 0.073 0.84428 0.19844-0.19904 0.32206 0.11804 0.75716 0.55178 0.75716 0.20111 0 0.43771-0.1166 0.52579-0.25911zm-8.7495-0.16607c0.43241-0.16593 0.59131-0.89773 0.19494-0.89773-0.12297 0-0.43908 0.23812-0.70247 0.52916-0.47849 0.52873-0.28189 0.6715 0.50753 0.36857zm13.598-0.43855c0.1053-0.54678-0.6585-0.91522-1.0616-0.5121s-0.0347 1.1669 0.5121 1.0616c0.25343-0.0488 0.50072-0.29609 0.54952-0.54952zm-21.184-0.28511c0.31098-0.68254 0.0316-1.4052-0.43241-1.1184-0.34038 0.21037-0.40371 1.7381-0.072 1.7381 0.12216 0 0.34917-0.27886 0.50446-0.61968zm4.5174-0.12865c0.0465-0.31603-0.0386-0.57459-0.18913-0.57459-0.35093 0-0.85773 0.93387-0.63025 1.1614 0.30726 0.30726 0.73265 3e-3 0.81938-0.58676zm-15.563-0.17771c0.18116-0.21829 0.56285-0.39688 0.8482-0.39688 0.75902 0 0.42832-0.64635-0.38-0.74271-0.63098-0.0752-1.5265 0.70547-1.5265 1.3308 0 0.35356 0.71316 0.22474 1.0583-0.19116zm5.8756-1.7708c-0.43387-0.43388-0.98232 0.11456-0.74167 0.74167 0.16549 0.43127 0.20621 0.43257 0.61911 0.0197 0.34519-0.3452 0.37203-0.51189 0.12256-0.76135zm-30.104-0.36475c0.78838-0.78838 0.43624-1.2436-0.66505-0.85966-0.84564 0.2948-0.93283 0.47886-0.45376 0.95793 0.41843 0.41843 0.6198 0.40074 1.1188-0.0983zm7.8241 0.0106c0-0.42245-0.70316-0.83193-0.97014-0.56496-0.0845 0.0845-0.0831 0.3373 3e-3 0.56186 0.20291 0.52877 0.96703 0.53123 0.96703 3e-3z"/></g></g></svg>
