<svg width="1008.3" height="308.88" version="1.1" viewBox="0 0 266.77 81.723" xmlns="http://www.w3.org/2000/svg"><g transform="translate(269.2 -415.41)"><g transform="matrix(1.3568 0 0 1.3568 140.22 -151.71)" fill="#e11919" stroke-width=".73702"><path d="m-298.62 478.02c-.0957-.1549-.2922-1.5115-.4366-3.0148-.2376-2.4732-1.8969-30.374-2.2475-37.791-.0791-1.6735-.2119-4.0694-.295-5.3242l-.1512-2.2814 1.4145-.1694c3.0133-.3608 13.746-.9675 16.893-.9549 1.819.007 4.1407-.1058 5.1594-.2512 2.1-.2999 12.529-.9654 33.338-2.1277 7.8581-.4389 17.978-1.0333 22.49-1.3208 4.5112-.2875 11.595-.7072 15.743-.9326 13.757-.7475 48.135-2.8214 54.625-3.2953 2.2122-.1615 3.5379-.159 3.7381.007.2014.1671.5533.1651 1.0027-.006.3809-.1448 3.5207-.4427 6.9775-.6621 3.4568-.2193 11.988-.7657 18.959-1.2141 11.055-.7111 12.723-.7664 13.057-.4327.5121.5121.7386 2.7851 1.3893 13.938.3014 5.166.841 14.155 1.1992 19.976.6968 11.323.7846 14.307.4272 14.528-.4235.2617-43.08 2.8596-45.415 2.7659-.7276-.0292-2.6326.0906-4.2333.2662s-8.3278.6622-14.949 1.0812c-10.252.6488-12.147.7092-12.766.4072-.6191-.3017-.7276-.2984-.7276.022 0 .2071-.1488.3768-.3307.3771-.1819.0003-5.9862.3532-12.898.7843-6.9122.4311-15.425.9074-18.918 1.0585s-7.5406.3933-8.9958.5381c-1.4552.1448-6.0986.4486-10.319.675-4.2201.2264-9.1017.5216-10.848.656-4.1339.3181-8.2477.3214-8.8352.007-.3092-.1655-.8153-.1307-1.504.1034-1.0632.3614-5.7143.725-23.792 1.8597-14.516.9111-18.538 1.0671-18.749.727zm5.9164-2.3252c0-.1919-.1177-.4216-.2616-.5105-.1461-.0903-.1965.008-.1143.2222.081.2111.0201.4625-.1353.5585-.1554.0961-.2826.3013-.2826.456 0 .1774.1466.1597.3969-.048.2183-.1812.3969-.4864.3969-.6782zm-1.7198-.3801c.0899-.1455.0374-.2646-.1167-.2646-.1541 0-.2802.1191-.2802.2646 0 .1455.0525.2646.1167.2646.0642 0 .1903-.1191.2802-.2646zm2.8119-.1984c.3291-.4197.3197-.429-.0999-.0999-.2547.1997-.463.4081-.463.463 0 .2178.2173.0776.5629-.3631zm16.467-.4563c-.5142-.376-1.0074-.2777-.7442.1482.0852.1378.2666.1816.4031.0972.1365-.0844.3287.0565.4271.313.1192.3107.2162.3549.2904.1323.0613-.1838-.1081-.4946-.3764-.6908zm14.455-.6682c0-.1455-.1191-.2646-.2646-.2646s-.2646.1191-.2646.2646.1191.2646.2646.2646.2646-.1191.2646-.2646zm1.9314-.1749c.4657-.2417.716-.4838.5561-.5379-.4218-.1427-1.6937.3877-1.6937.7063 0 .3666.1497.3444 1.1376-.1684zm2.9786-.5081c-.6874-.5026-1.4704-.4758-1.4704.0503 0 .319.1616.385.6452.2636.3549-.0891.724-.0345.8202.1212.0962.1557.2522.206.3465.1116.0943-.0943-.0594-.3404-.3417-.5468zm10.436.1539c0-.1455-.1191-.2646-.2646-.2646s-.2646.1191-.2646.2646.1191.2646.2646.2646.2646-.1191.2646-.2646zm9.2604 0c0-.1455-.1261-.2646-.2802-.2646s-.2066.1191-.1167.2646c.0899.1455.216.2646.2802.2646.0642 0 .1167-.1191.1167-.2646zm-15.875-.5604c0-.1455-.1191-.191-.2646-.1011-.1455.0899-.2646.2826-.2646.4281s.1191.191.2646.1011c.1455-.0899.2646-.2826.2646-.4281zm9.2451.182c.2508-.3022.2075-.4354-.2148-.6615-.7214-.3861-.8282-.36-.8282.202 0 .8621.5191 1.0907 1.043.4594zm-38.482-.2833c4.3656-.2174 8.4138-.4567 8.9958-.532.9783-.1264 12.402-.7635 26.061-1.4534 3.1287-.158 8.0698-.4621 10.98-.6758 9.7664-.7171 12.411-.8758 17.33-1.0396 2.6921-.0897 6.7403-.3312 8.9958-.5368 2.2556-.2056 7.6134-.56 11.906-.7876 4.2929-.2276 10.425-.5901 13.626-.8055 3.2015-.2154 9.2736-.5713 13.494-.7908 4.2201-.2195 9.0338-.5129 10.697-.6519 1.9914-.1665 3.1324-.1629 3.3412.0104.2114.1754.5705.1663 1.0769-.0273.4179-.1598 2.8434-.3943 5.39-.5211 4.3896-.2186 7.968-.4397 17.066-1.0544 2.1828-.1475 6.4691-.3849 9.525-.5275 7.686-.3588 12.054-.789 12.212-1.2029.0706-.184-.1151-4.483-.4127-9.5534-.2976-5.0704-.6696-11.541-.8267-14.378-.1571-2.8377-.3973-6.4691-.5338-8.0698-.1365-1.6007-.2492-3.8332-.2505-4.9609l-.002-2.0505-3.638.001c-2.0009.0007-6.4955.18-9.988.3985-3.4925.2185-11.232.6942-17.198 1.0572-5.9664.363-12.455.7754-14.42.9165s-6.8461.4405-10.848.6653c-4.0018.2248-18.306 1.0597-31.787 1.8552s-27.59 1.6268-31.353 1.8472c-3.763.2204-9.8184.5899-13.456.8212-3.638.2313-8.1624.383-10.054.3371-1.8918-.0458-3.5586-.008-3.7042.0839-.4772.3017-2.5266.4791-11.774 1.0191-12.998.759-25.235 1.592-25.37 1.7271-.0635.0635.0882 3.5391.337 7.7237.2488 4.1846.7427 12.49 1.0974 18.456.3547 5.9664.7134 11.354.7969 11.972l.152 1.1245 2.2989-.001c1.2644-.0004 5.8708-.1787 10.236-.396zm3.3984-7.2895c-.6947-.2624-.8072-.7623-1.1281-5.0134-.4311-5.7117-1.183-19.829-1.0625-19.949.0634-.0632.9571-.1978 1.9862-.2991l1.871-.1842 2.47 5.7201c1.3585 3.1461 2.6489 5.868 2.8675 6.0488.4199.3471.4176.1914-.1244-8.6789-.1401-2.2918-.1003-2.7197.2888-3.1089.4704-.4704 2.63-.6319 3.2425-.2425.303.1926 1.1103 10.995 1.5682 20.983l.177 3.8618-.6335.1695c-.3484.0932-1.1375.1712-1.7535.1731-1.325.004-1.2087.1921-4.4241-7.1401-1.1168-2.5466-2.2158-4.8088-2.4423-5.0271-.3716-.3582-.3962-.2292-.2514 1.3229.0882.9459.2341 3.6843.3242 6.0854.1303 3.4706.0904 4.454-.1946 4.7965-.4276.5141-1.9821.7832-2.7809.4815zm10.168-4.5315c-.1697-.509-.8921-.8439-1.4-.649-.4492.1724-.4476.2012.0302.5629.6103.4619 1.514.5187 1.3698.0862zm-1.0522-3.1939c.1909-.4002.5167-.7276.7239-.7276.3086 0 .3207-.123.067-.68l-.3098-.68-.4723.9207c-.2598.5064-.8024 1.1803-1.2059 1.4977l-.7335.577.7918-.0901c.5542-.0631.896-.3085 1.1389-.8177zm-7.7263-7.3831c.1127-.1823.073-.2339-.0984-.128-.158.0976-.3702.0432-.4717-.121-.1015-.1642-.028-.3952.1631-.5133.2864-.177.2867-.2883.002-.6319-.4774-.5751-.8106-.5219-.8106.1295 0 .3006-.1232.7769-.2739 1.0583-.2423.4527-.183.5118.5135.5118.4331 0 .8724-.1374.9762-.3055zm2.4044-1.0671c-.0845-.2111-.1472-.1484-.1598.1598-.0115.2789.051.4352.139.3473.0879-.0879.0973-.3161.0209-.5071zm-3.9907-3.2841c-.0942-.2454-.2307-.3866-.3035-.3139-.0728.0728-.0553.3331.0389.5785.0942.2454.2307.3866.3035.3139.0728-.0728.0552-.3331-.0389-.5785zm1.2793-1.4018c-.1661-.1661-.6384.5059-.6319.8991.002.1455.1779.0351.3901-.2453.2122-.2804.321-.5746.2418-.6538zm14.366 17.864c-.3868-5.1146-1.3451-22.912-1.239-23.011.0658-.0618 1.0712-.1554 2.2342-.2079l2.1145-.0954.5846 9.2604c.3215 5.0932.6202 10.749.6637 12.568l.0791 3.3073-4.2877.1524zm1.6588-2.5449c0-.1455-.1191-.2646-.2646-.2646s-.2646.1191-.2646.2646.1191.2646.2646.2646.2646-.1191.2646-.2646zm-.4335-5.424c-.161-.4196-.6249-.5505-.6249-.1764 0 .2798.2892.5733.565.5733.1167 0 .1436-.1786.0599-.3969zm.0795-3.1088c-.0734-.1819-.1335-.0331-.1335.3307 0 .3638.06.5126.1335.3307.0734-.1819.0734-.4796 0-.6615zm-.0359-2.7932c-.0815-.0815-.295-.0002-.4744.1807-.2594.2613-.229.2917.1481.1481.2609-.0994.4078-.2473.3263-.3288zm-.007-2.4324c.0899-.1455-.0221-.2646-.249-.2646s-.4125.1191-.4125.2646.112.2646.249.2646c.1369 0 .3226-.1191.4125-.2646zm.926-2.9104c0-.1455-.0525-.2646-.1167-.2646-.0642 0-.1903.1191-.2802.2646-.0899.1455-.0374.2646.1167.2646.1541 0 .2802-.1191.2802-.2646zm8.6353 20.528c-1.1342-.4193-2.4154-1.5245-2.9402-2.5363-.5667-1.0927-.9161-3.3127-1.3317-8.4606-.4682-5.8001-.5002-9.2724-.0987-10.719.6124-2.206 3.2003-3.8243 6.1308-3.8337 2.1175-.007 3.3813.5332 4.6624 1.9924 1.1567 1.3174 1.3662 1.9695 1.5378 4.7857.1677 2.7525.14 2.7942-2.069 3.1143-1.5105.2189-1.6876.0293-2.0784-2.2252-.4136-2.3855-.6843-2.9539-1.732-3.6353l-.9111-.5926-.5337.5728c-.2935.3151-.6107.9833-.7048 1.485-.2973 1.5844.4461 12.889.9818 14.932.2765 1.0544.8671 1.5259 1.9111 1.5259 1.0276 0 1.2973-.6213 1.4927-3.4394.1007-1.4522.2701-2.7274.3765-2.8338.1064-.1064 1.0204-.2401 2.0313-.2972l1.8379-.1038v6.8791l-.8599 1.2682c-.4995.7367-1.3035 1.4963-1.9182 1.8122-1.3373.6874-4.3292.8474-5.7845.3094zm-1.0946-2.8009c.0899-.1455.3876-.2646.6615-.2646.2739 0 .5715-.1191.6615-.2646.2869-.4642-.769-.2722-1.4552.2646-.3638.2846-.5197.5201-.3463.5233.1733.003.3887-.1132.4786-.2587zm-.6615-1.8055c-.3638-.0535-.8103-.2195-.9922-.3689-.4793-.3936-.4061.0651.0995.6237.357.3945.5258.4215.9922.1589.5566-.3134.5557-.3173-.0994-.4137zm.3175-1.687c-.2469-.2469-.3175-.1764-.3175.3175 0 .4939.0706.5645.3175.3175.247-.2469.247-.3881 0-.635zm.2117-3.9158c0-.1455-.0525-.2646-.1167-.2646-.0642 0-.1903.1191-.2802.2646-.0899.1455-.0374.2646.1167.2646.1541 0 .2802-.1191.2802-.2646zm-.9481-3.2694c-.1701-.4433-.6394-.607-.6394-.2231 0 .2574.5903.8738.7162.7478.0495-.0495.0149-.2857-.0768-.5248zm-1.1686-.2868c0-.0642-.1191-.1903-.2646-.2802-.1455-.0899-.2646-.0374-.2646.1167 0 .1541.1191.2802.2646.2802s.2646-.0525.2646-.1167zm2.1167-.9946c0-.4274-.0782-.5039-.2944-.2876-.1619.162-.2145.4239-.1167.5821.2737.4428.4111.3444.4111-.2944zm-1.3229-1.0054c0-.2739-.1191-.5715-.2646-.6615-.1548-.0957-.2646.1789-.2646.6615s.1098.7571.2646.6615c.1455-.0899.2646-.3876.2646-.6615zm.2646-1.7042c0-.2793-.5078-.3966-.6588-.1522-.0914.1479.0194.2689.2463.2689.2269 0 .4125-.0525.4125-.1167zm-.3969-1.4708c.0899-.1455.0374-.2646-.1167-.2646-.1541 0-.2802.1191-.2802.2646s.0525.2646.1167.2646c.0642 0 .1903-.1191.2802-.2646zm1.4552-2.2646c0-.2269-.1191-.3389-.2646-.249-.1455.0899-.2646.2756-.2646.4125s.1191.249.2646.249.2646-.1856.2646-.4125zm13.242 20.28c-.3632-.6786-.4123-1.3039-1.0988-13.993-.3015-5.5731-.4819-10.306-.4008-10.517.1117-.2911.6538-.3843 2.235-.3843h2.0875l.175 3.2412c.0962 1.7826.2475 4.0448.3363 5.0271l.1613 1.7859h1.7896c1.4404 0 1.8233-.0878 1.9622-.4499.0949-.2474.0396-2.3013-.1229-4.5641-.3522-4.9029-.2396-5.4159 1.2426-5.6608 1.791-.2959 2.9284-.2059 3.1016.2453.0883.2302.1623 1.5696.1643 2.9766.002 1.4069.1717 4.8798.377 7.7174.6586 9.104.7884 13.438.416 13.887-.2373.286-.8489.4004-2.14.4004h-1.8077l-.1305-.8599c-.0718-.4729-.1993-2.0505-.2835-3.5057-.0842-1.4552-.2812-3.39-.4378-4.2995l-.2848-1.6536h-3.6944l.1605 2.9766c.0883 1.6371.2285 4.0779.3116 5.424l.151 2.4474-1.4138.004c-.7776.002-1.6714.0727-1.9864.1572-.4104.1101-.6569-.004-.87-.402zm9.8108-10.276c.3291-.4196.3197-.429-.0999-.0999-.4407.3456-.5809.5629-.3631.5629.0549 0 .2633-.2084.463-.463zm-4.913-2.3067c.6577-.4975.1887-.5033-.677-.008-.424.2424-.5134.3815-.249.3875.2268.005.6436-.1654.9261-.3791zm3.9854-.4886c.2414.0926.3646-.0559.3646-.4396 0-.7183-.4821-.5893-1.0194.2728-.2557.4103-.2764.5335-.0565.3369.1906-.1705.5107-.2471.7113-.1701zm-7.0437-1.7688c0-.1455-.112-.2646-.249-.2646-.1369 0-.3226.1191-.4125.2646-.0899.1455.0221.2646.249.2646s.4125-.1191.4125-.2646zm8.7312-.2646c0-.1455-.1261-.2646-.2802-.2646s-.2066.1191-.1167.2646c.0899.1455.216.2646.2802.2646.0642 0 .1167-.1191.1167-.2646zm-.6629-2.1183c-.2642-.2919-.5377-.4734-.6079-.4033-.1778.1778.4821.9341.815.9341.1502 0 .057-.2389-.2072-.5308zm-1.3214.002c.0899-.1455.0374-.2646-.1167-.2646-.1541 0-.2802.1191-.2802.2646s.0525.2646.1167.2646c.0642 0 .1903-.1191.2802-.2646zm.3993-1.7169c-.1798-.2167-.4544-.3152-.6101-.2189-.1714.1059-.0812.2541.2284.3754.7302.2859.7441.2802.3817-.1564zm.9721-1.7723c-.0845-.2111-.1472-.1484-.1598.1598-.0115.2789.0511.4352.139.3473.0879-.0879.0973-.3161.0209-.5071zm-1.393-.111c.5169-.1984.5512-.6331.0499-.6331-.2027 0-.4371.1786-.5209.3969-.1703.4437-.1266.4656.4709.2363zm1.4768-1.6915c0-.1455-.2381-.2646-.5292-.2646s-.5292.1191-.5292.2646c0 .1455.2381.2646.5292.2646s.5292-.1191.5292-.2646zm-1.3229-1.0583c0-.1455-.1191-.2646-.2646-.2646-.1455 0-.2646.1191-.2646.2646s.1191.2646.2646.2646c.1455 0 .2646-.1191.2646-.2646zm10.441 22.473c-.0955-.1545-.3425-3.7562-.5489-8.0036-.4201-8.6448-.69-12.07-.9893-12.554-.1232-.1993-.7992-.328-1.724-.328-1.9978 0-2.4521-.3588-2.6162-2.0662-.1236-1.286-.0914-1.3763.581-1.6319.3915-.1488 1.5204-.2706 2.5087-.2706.9883 0 3.3648-.1312 5.281-.2916s3.7708-.2197 4.1213-.1317c.8087.203 1.0296.906.8027 2.5554l-.1798 1.3075h-3.9191l.004 1.2568c.002.6912.1784 3.9952.3912 7.3422.2128 3.347.3895 7.663.3926 9.5912l.006 3.5057h-1.9688c-1.1037 0-2.0451-.1235-2.1424-.281zm1.5976-19.563c.0899-.1455.0374-.2646-.1167-.2646-.1541 0-.2802.1191-.2802.2646s.0525.2646.1167.2646c.0642 0 .1903-.1191.2802-.2646zm1.0777-2.9104c.4374 0 .4721-.2349.1176-.7937-.2159-.3403-.3348-.3141-.8341.184-.5116.5105-.5368.6358-.2071 1.0334.3453.4166.3819.4177.4606.0144.047-.2409.2554-.4381.463-.4381zm-5.9725-.2646c-.1558-.291-.4165-.5292-.5795-.5292-.163 0-.0808.2381.1826.5292.2634.291.5242.5292.5795.5292.0553 0-.0268-.2381-.1826-.5292zm7.2002-.2646c.0641-.4366.0818-.7937.0393-.7937-.2196 0-.6269 1.1057-.4893 1.3284.2506.4055.3249.3172.4499-.5346zm-3.0992-.7937c-1.1703-.2978-1.7198-.2978-1.7198 0 0 .1455.5655.2505 1.2568.2333 1.1218-.0279 1.1715-.053.463-.2333zm19.99 22.374c-.3865-.4657-5.6212-23.081-5.5145-23.824.0585-.4072.3707-.5853 1.3333-.7605 1.5052-.2739 2.456-.079 2.7022.5539.0996.2559.5242 2.1547.9436 4.2195.4194 2.0648 1.0266 4.8628 1.3494 6.2177.5493 2.3064.5994 2.4045.7849 1.5375.109-.5093.4519-3.4264.762-6.4823.3101-3.0559.6078-5.691.6616-5.8557.0538-.1647.708-.4459 1.4538-.6248 1.1978-.2873 1.4145-.2724 1.8574.1285.2758.2496.5762.8284.6675 1.2862.0914.4578.6497 2.9756 1.2407 5.595.591 2.6194 1.1322 5.0304 1.2026 5.3578.144.6695.5955.8141.5955.1907 0-1.3371.8533-11.506 1.0206-12.163.2004-.7869.2197-.7944 2.2507-.8713l2.0486-.0775-.1482.8713c-.0815.4792-.685 5.9725-1.3412 12.207-.6562 6.2349-1.3144 11.563-1.4628 11.84-.218.4073-.5663.504-1.8155.504-.991 0-1.6545-.131-1.8486-.3649-.1666-.2007-.8949-2.9623-1.6185-6.1369s-1.427-5.8834-1.5632-6.0196c-.2357-.2357-.317.0699-.6735 2.5334-.0685.4729-.3113 2.7633-.5398 5.0897-.5054 5.1476-.6404 5.4275-2.6168 5.4275-.9084 0-1.5298-.1363-1.732-.3799zm1.0443-4.222c0-.2027-.1786-.4371-.3969-.5209-.4437-.1703-.4656-.1266-.2363.4709.1984.5169.6332.5512.6332.0499zm9.525.104c0-.1455-.1786-.2646-.3969-.2646s-.3969.1191-.3969.2646c0 .1455.1786.2646.3969.2646s.3969-.1191.3969-.2646zm-7.5406-.2646c.0899-.1455.0374-.2646-.1167-.2646-.1541 0-.2802.1191-.2802.2646s.0525.2646.1167.2646c.0642 0 .1903-.1191.2802-.2646zm-1.2954-.9867c-.269-.269-.4909.136-.2702.493.1667.2697.229.2699.3186.001.0613-.1838.0395-.4062-.0484-.4941zm-.9954-1.6592c-.6646-.8989-.8905-.9746-1.1205-.3752-.3479.9067-.1744 1.169.7734 1.169h.934zm2.1585.6771c0-.0642-.1191-.1903-.2646-.2802-.1455-.0899-.2646-.0374-.2646.1167 0 .1541.1191.2802.2646.2802.1455 0 .2646-.0525.2646-.1167zm-2.797-2.6804c.5579-.5579.5303-.7304-.2692-1.6806-.8352-.9926-1.6234-1.1488-1.1032-.2187.1831.3274.4869.789.6751 1.0256.2843.3576.2731.4568-.0661.587-.2246.0862-.4083.2795-.4083.4296 0 .4126.7019.327 1.1717-.1429zm8.1215-1.7714c-.2613-.2594-.2917-.229-.1481.1481.0994.2609.2473.4078.3288.3263.0815-.0815.0002-.295-.1807-.4744zm-4.8792-1.302c-.0845-.2111-.1472-.1484-.1598.1598-.0115.2789.0511.4352.139.3473.0879-.0879.0973-.3161.0209-.5071zm-3.8849-1.5379c0-.1455-.1191-.2646-.2646-.2646s-.2646.1191-.2646.2646c0 .1455.1191.2646.2646.2646s.2646-.1191.2646-.2646zm12.435-1.4396c0-.0642-.1191-.1903-.2646-.2802-.1455-.0899-.2646-.0374-.2646.1167 0 .1541.1191.2802.2646.2802s.2646-.0525.2646-.1167zm-6.9454-2.419c-.2521-.2521-.7576.1563-.5697.4603.1117.1807.2597.1761.4497-.0139.1558-.1558.2098-.3567.12-.4464zm1.4419-.4278c-.1492-.1492-.4188-.1802-.599-.0688-.2434.1504-.199.2967.1723.5682.5531.4044.9113-.0148.4267-.4994zm-1.4596-1.3195c-.0845-.2111-.1472-.1484-.1598.1598-.0115.2789.0511.4352.139.3473.0879-.0879.0973-.3161.0209-.5071zm13.746 16.388c-.0932-1.2006-.4086-6.1714-.7011-11.046-.2924-4.875-.6062-9.6077-.6973-10.517l-.1656-1.6536h4.547l.1412.8599c.2875 1.7516.6094 10.358.4129 11.043-.1119.3901-.1051.885.0152 1.0998.3488.6233.7776 5.5626.7776 8.9574 0 3.5788.1009 3.4399-2.4988 3.4399h-1.6618zm.8903-8.1359c0-.1455-.1191-.2646-.2646-.2646-.1455 0-.2646.1191-.2646.2646s.1191.2646.2646.2646c.1455 0 .2646-.1191.2646-.2646zm1.0416-5.4441c-.2868-.3456-.2811-.4582.0337-.6574.2384-.1509.2626-.2419.0648-.2444-.4993-.006-.6864.5122-.3367.9336.1759.2119.3793.3853.4521.3853.0728 0-.0235-.1877-.2138-.417zm-.298-1.7698c.0456-.2349-.19-.5555-.5292-.7203-.5765-.2802-.5827-.2741-.109.1062.4369.3507.4541.4616.1323.8514-.3198.3874-.3161.4304.0269.3171.2183-.0721.4338-.3216.479-.5543zm-.0411-5.8943c.2464-.642-.0423-.7042-.5687-.1225-.4384.4844-.4413.5308-.0342.5308.2454 0 .5167-.1837.6029-.4083zm9.256 21.906c-.1999-1.0562-.4332-4.4655-.7378-10.782-.1474-3.0559-.3272-6.4194-.3996-7.4745l-.1317-1.9182h-1.9542c-2.1772 0-2.4069-.17-2.5028-1.8524-.1202-2.109-.4231-1.973 5.2925-2.3769 2.11-.1491 4.6997-.3465 5.7547-.4387l1.9182-.1676v1.99c0 1.84-.0449 2.002-.5953 2.1495-1.0292.2758-2.5618.1814-3.5142-.2166-1.2583-.5258-1.2114-1.048.0746-.8313.8288.1396.9051.1173.463-.1357-.291-.1666-.6684-.4763-.8385-.6883-.2662-.3316-.3861-.3086-.8599.1652-.7373.7373-.6958.971.2463 1.3881.4383.194.8555.5374.9271.7632.0717.2258.2503 2.6666.397 5.4241.1467 2.7575.3798 6.9187.518 9.247.1382 2.3283.2559 4.7394.2614 5.3578l.0101 1.1245h-2.0956c-2.0764 0-2.0969-.007-2.2334-.7276zm2.2123-5.887c0-.1455-.112-.2646-.249-.2646-.1369 0-.3226.1191-.4125.2646-.0899.1455.0221.2646.249.2646s.4125-.1191.4125-.2646zm-1.8181-7.7391c.2876-.5398.2762-.5615-.123-.2322-.2421.1997-.4402.4676-.4402.5953 0 .4042.2351.2525.5632-.3631zm-4.0028-8.7974c-.187-.2253-.3995-.3501-.4723-.2774-.0728.0728.0207.3166.2077.542.187.2253.3995.3501.4723.2774.0728-.0728-.0207-.3166-.2077-.542zm4.7625-.6615c0-.1455-.0525-.2646-.1167-.2646-.0642 0-.1903.1191-.2802.2646-.0899.1455-.0374.2646.1167.2646.1541 0 .2802-.1191.2802-.2646zm-1.4552-.2646c-.0899-.1455-.2756-.2646-.4125-.2646s-.249.1191-.249.2646c0 .1455.1856.2646.4125.2646s.3389-.1191.249-.2646zm10.268 22.315c.206-1.9711 2.061-8.4924 4.2244-14.851 1.4047-4.1288 1.5881-4.8755 1.2501-5.0892-.2179-.1377-1.6761-.2523-3.2404-.2545l-2.8443-.004v-1.5875c0-.8731-.0298-1.6768-.0661-1.7859-.0892-.2676 2.2669-.5059 7.276-.7361l4.1672-.1915v1.4463c0 1.578-.6575 3.9742-3.7122 13.528-1.6068 5.0254-1.869 6.086-1.5574 6.3006.2243.1545 1.6223.1952 3.4836.1015l3.1088-.1565v3.8927l-4.4318.3275c-2.4375.1801-5.1949.3982-6.1275.4845l-1.6957.157zm2.5647-1.6777c0-.1455-.0525-.2646-.1167-.2646-.0642 0-.1903.1191-.2802.2646-.0899.1455-.0374.2646.1167.2646.1541 0 .2802-.1191.2802-.2646zm4.3908-12.216c.2772-.3161.3371-.4765.1332-.3564-.2424.1426-.4945.0492-.7276-.2697-.3022-.4132-.3567-.4227-.3567-.0621 0 .2342-.0723.6141-.1606.8443-.2404.6265.5188.5199 1.1118-.1561zm.6579-2.005c-.1361-.2547-.3199-.6919-.4083-.9717-.1523-.4816-.1837-.476-.5907.105-.401.5725-.397.6377.0598.9717.7207.527 1.2457.4683.9392-.105zm.3823-4.513c-.0815-.0815-.2949-.0002-.4744.1807-.2594.2613-.229.2917.1481.1481.2609-.0994.4078-.2473.3263-.3288zm.3899-1.7553c0-.0642-.1191-.1903-.2646-.2802-.1455-.0899-.2646-.0374-.2646.1167 0 .1541.1191.2802.2646.2802s.2646-.0525.2646-.1167zm-1.3229-.4125c0-.1455-.1191-.2646-.2646-.2646s-.2646.1191-.2646.2646.1191.2646.2646.2646.2646-.1191.2646-.2646zm7.832 22.556c-.3701-1.2143-1.2113-15.37-1.309-22.027l-.0408-2.7781 1.9204-.0778c1.8232-.0738 1.9327-.0452 2.165.5656.276.726 1.0286 12.637 1.2605 19.951l.1531 4.8286h-2.0041c-1.6785 0-2.027-.0752-2.1452-.463zm1.5715-4.3171c.2848-.4608-.0396-.5583-.4024-.1211-.2087.2515-.2288.4033-.0533.4033.1547 0 .3599-.127.4558-.2822zm-.7634-5.4043c-.2827-.6094-.7027-.8999-.7027-.4859 0 .1692.803 1.1453.9422 1.1453.0365 0-.0712-.2967-.2394-.6594zm.3885-2.5862c-.2613-.2594-.2917-.229-.1481.1481.0994.2609.2473.4078.3288.3263.0815-.0815.0002-.295-.1807-.4744zm.5625-4.0734c-.1819-.0734-.3307-.322-.3307-.5524 0-.2304-.0742-.3447-.165-.254-.2581.2581.1101.9839.4874.9607.2656-.0163.2673-.0498.008-.1543zm-1.1245-1.4123c0-.1455-.1191-.2646-.2646-.2646s-.2646.1191-.2646.2646.1191.2646.2646.2646.2646-.1191.2646-.2646zm.7441-5.2751c.0661-.1984-.0331-.2977-.2315-.2315-.191.0637-.3994.272-.463.463-.0661.1984.0331.2977.2315.2315.191-.0637.3993-.272.463-.463zm9.5729 23.035c-2.0872-.6834-3.5093-2.0117-3.9428-3.6828-.7613-2.9343-1.3806-16.473-.8298-18.142.9546-2.8924 4.6775-4.7957 7.5822-3.8764 2.6309.8327 3.7706 2.2969 4.4672 5.7389.6125 3.0264.4597 3.261-2.125 3.261h-1.9751l-.006-.8599c-.01-1.3078-.503-3.1777-.9759-3.7003-.4885-.5397-1.7427-.6202-2.1235-.1362-.1431.1819-.3323.7987-.4204 1.3707-.2002 1.2999.2752 11.944.6211 13.909.3012 1.7108 1.0375 2.5031 2.0947 2.254 1.144-.2697 1.6074-1.0761 1.5779-2.7463-.0403-2.2777-.2504-2.7687-1.2744-2.9782-.4863-.0995-.9861-.3416-1.1106-.538-.3418-.5393-.2789-1.915.112-2.4495.4707-.6437 2.3316-.9693 4.4557-.7797l1.7594.1571.1729 1.3838c.3206 2.5664.6135 9.7203.4267 10.423-.2264.8522-1.1043 1.0452-2.0211.4445-.6145-.4026-.7148-.3882-1.8243.262-1.2571.7367-3.4804 1.065-4.6403.6852zm2.2507-1.0911c.0899-.1455.0374-.2646-.1167-.2646-.1541 0-.2802.1191-.2802.2646s.0525.2646.1167.2646c.0642 0 .1903-.1191.2802-.2646zm1.3229 0c.0899-.1455.0374-.2646-.1167-.2646-.1541 0-.2802.1191-.2802.2646s.0525.2646.1167.2646c.0642 0 .1903-.1191.2802-.2646zm-3.2245-.5563c-.813-.2352-1.9349-1.3403-1.9349-1.906 0-.1508.1977-.4927.4394-.7597.7422-.8201.1926-.8312-.7214-.0146-.8564.7652-.8586.7734-.356 1.3418.2781.3145.714.81.9687 1.101.3187.3642.7723.5217 1.4552.5053l.9922-.0239-.8433-.244zm-2.8006-4.4047c-.1055-.441-.1203-.441-.3123 0-.1109.2547-.1109.6714 0 .9261.192.441.2068.441.3123 0 .0609-.2547.0609-.6714 0-.9261zm.8657-3.0908c0-.0629-.387-.3714-.8599-.6857l-.8599-.5714.7424.6857c.7151.6606.9774.8139.9774.5715zm-1.3229-2.9284c.2792-.3364.2187-.3969-.3969-.3969-.6156 0-.6761.0605-.3969.3969.1812.2183.3598.3969.3969.3969.0371 0 .2157-.1786.3969-.3969zm-87.312 26.855c0-.1455-.1191-.2646-.2646-.2646-.1455 0-.2646.1191-.2646.2646s.1191.2646.2646.2646c.1455 0 .2646-.1191.2646-.2646zm2.2199-1.37c-.0859-.139-.1741-.2145-.1959-.1677-.0218.0468-.3968.4912-.8334.9875l-.7937.9024.9896-.7348c.5443-.4041.9193-.8485.8334-.9875zm6.3425 1.2377c.0838-.2183.037-.3969-.104-.3969-.1409 0-.2563.1786-.2563.3969s.0468.3969.104.3969c.0572 0 .1725-.1786.2563-.3969zm-3.9321-.1323c.0899-.1455.0374-.2646-.1167-.2646-.1541 0-.2802.1191-.2802.2646s.0525.2646.1167.2646c.0642 0 .1903-.1191.2802-.2646zm6.6146-.2228c-.291-.0566-.6166-.238-.7236-.4031-.1416-.2186-.1955-.2139-.1984.0175-.005.4123.8317.8794 1.1809.659.1486-.0937.0321-.2168-.2589-.2734zm-3.6632-.1855c.2143-.5584-.1434-.8598-.4482-.3778-.3239.5122-.3174.7861.0186.7861.1501 0 .3434-.1837.4296-.4083zm-1.7608-.1209c0-.1455-.1191-.2646-.2646-.2646s-.2646.1191-.2646.2646.1191.2646.2646.2646.2646-.1191.2646-.2646zm10.221-.7224c.4855.0928.5675.0436.3544-.2131-.2446-.2947-1.0148-.1831-2.0489.297-.0398.0185.005.2346.099.4803.1528.3981.2145.3851.5677-.1191.2742-.3915.5907-.5286 1.0278-.4451zm2.7435.1284c0-.1476-.1755-.1189-.3969.0648-.2183.1812-.3969.4484-.3969.594 0 .1476.1755.1189.3969-.0648.2183-.1812.3969-.4484.3969-.594zm21.726-1.3342c-.2161-.2161-.2943-.1865-.2943.1114 0 .526.3558.8817.4873.4873.0558-.1673-.031-.4367-.1929-.5986zm7.7238-.2036c.0905-.3462.0296-.5067-.1676-.4411-.3806.1267-.5791.9854-.2279.9854.1392 0 .3172-.2449.3955-.5443zm2.3059.141c.4158-.5011.1381-.8388-.354-.4305-.1988.165-.4461.2154-.5495.1119-.1034-.1035-.1095.0167-.0135.2669.2155.5615.4815.5765.917.0517zm3.6989-.5228c.3418-.3638.5619-.6615.4891-.6615-.0728 0-.4119.2977-.7537.6615-.3418.3638-.5619.6615-.4891.6615.0728 0 .4119-.2977.7537-.6615zm16.79-.6797c-.0837-.1355-.5262-.2463-.9833-.2463-.8776 0-.7446.3902.2008.5892.6471.1363.9866-.0126.7824-.3429zm-4.4866.0183c.0899-.1455.0374-.2646-.1167-.2646-.1541 0-.2802.1191-.2802.2646s.0525.2646.1167.2646c.0642 0 .1903-.1191.2802-.2646zm6.5929-.4252c.5309-.2037.5456-.6331.0216-.6331-.2183 0-.3969.1103-.3969.2452s-.2084.2996-.463.3662c-.408.1066-.4106.1246-.0216.1517.2428.0169.6297-.0416.8599-.1299zm11.663-.3686c.0899-.1455.0374-.2646-.1167-.2646-.1541 0-.2802.1191-.2802.2646s.0525.2646.1167.2646c.0642 0 .1903-.1191.2802-.2646zm3.7635-.9714c.0656-.1971-.0949-.2581-.4411-.1676-.2994.0783-.5443.2562-.5443.3955 0 .3513.8587.1527.9854-.2279zm18.769-1.2114c-.0734-.1819-.1335-.0331-.1335.3307 0 .3638.0601.5126.1335.3307.0734-.1819.0734-.4796 0-.6615zm10.408-3.1088c0-.1455-.1191-.2646-.2646-.2646s-.2646.1191-.2646.2646c0 .1455.1191.2646.2646.2646s.2646-.1191.2646-.2646zm-1.0583-5.4084c0-.0642-.1191-.1903-.2646-.2802-.1455-.0899-.2646-.0374-.2646.1167 0 .1541.1191.2802.2646.2802s.2646-.0525.2646-.1167zm.0662-2.969c-.1819-.0734-.4796-.0734-.6615 0s-.0331.1335.3307.1335c.3638 0 .5126-.0601.3307-.1335zm-.3307-7.2331c0-.1455-.1856-.2646-.4125-.2646s-.3389.1191-.249.2646c.0899.1455.2756.2646.4125.2646s.249-.1191.249-.2646zm-189.44-.1167c0-.2793-.5078-.3966-.6588-.1522-.0914.1479.0194.2689.2463.2689.2269 0 .4125-.0525.4125-.1167zm-.613-1.5204c-.0845-.2111-.1472-.1484-.1599.1598-.0115.2789.051.4352.139.3473.0879-.0879.0973-.3161.0209-.5071zm189.29-4.7869c-.4111-.4111-.6418-.0682-.4214.6263.1717.5411.2104.552.4485.1267.1756-.3138.1668-.5592-.0271-.7531zm.4496-1.9972c.055-.3735-.0554-.5746-.3151-.5746-.5062 0-.7918.4384-.4309.6615.1503.0929.1952.2951.0998.4495-.0995.1611-.0168.229.1941.1594.2022-.0667.4056-.3797.4521-.6958zm-190.42-1.0148c.3293-.3992.3076-.4106-.2322-.123-.6157.3281-.7673.5632-.3631.5632.1277 0 .3956-.1981.5953-.4402zm190.2-1.5286c0-.0642-.1191-.1903-.2646-.2802-.1455-.0899-.2646-.0374-.2646.1167 0 .1541.1191.2802.2646.2802s.2646-.0525.2646-.1167zm.0338-1.6464c.3293-.3992.3076-.4106-.2322-.123-.6157.3281-.7673.5632-.3631.5632.1277 0 .3956-.1981.5953-.4402zm-186.76-2.3809c-.1819-.0734-.4796-.0734-.6615 0s-.0331.1335.3307.1335c.3638 0 .5126-.06.3307-.1335zm17.661-.6185c.2946-.1904.1372-.2575-.6109-.2605-.6054-.002-.9425.1016-.8443.2605.2067.3344.9378.3344 1.4552 0zm168.15-1.0394c-.1768-.8049-.9302-1.1595-.9302-.4379 0 .2062-.1488.4456-.3307.5321s-.0497.1041.2938.0392c.4578-.0866.661.0214.7612.4044.2188.8368.4024.3571.2059-.5379zm-164.71.2457c0-.1455-.0525-.2646-.1167-.2646-.0642 0-.1903.1191-.2802.2646-.0899.1455-.0374.2646.1167.2646.1541 0 .2802-.1191.2802-.2646zm9.9219-.2646c.2634-.291.4194-.5292.3466-.5292-.0728 0-.3478.2381-.6112.5292s-.4194.5292-.3466.5292c.0728 0 .3478-.2381.6112-.5292zm1.9337-.0199c-.0522-.1564-.2079-.2844-.3462-.2844-.1383 0-.294.128-.3462.2844-.0521.1564.1036.2844.3462.2844.2425 0 .3983-.128.3462-.2844zm2.0585-.971c-.289-.289-.4872.1706-.2797.6487.1968.4533.211.4529.3207-.009.0631-.2661.0447-.5538-.041-.6394zm4.6068.4617c0-.1455-.1261-.2646-.2802-.2646-.1541 0-.2066.1191-.1167.2646.0899.1455.216.2646.2802.2646.0642 0 .1167-.1191.1167-.2646zm16.14-1.119c0-.1549-.1681-.1291-.3969.0607-.2183.1812-.3969.3706-.3969.421 0 .0504.1786.0231.3969-.0607s.3969-.2732.3969-.421zm3.175.3097c0-.1541-.1271-.2017-.2824-.1057-.1555.0961-.3477-.0752-.4277-.3813-.0799-.3057-.3308-.5558-.5575-.5558-.3173 0-.2692.1522.2093.6615.6579.7003 1.0583.8445 1.0583.3813zm2.6458.0156c0-.1455-.2452-.2646-.5448-.2646s-.4712.1191-.3813.2646c.0899.1455.3351.2646.5448.2646s.3813-.1191.3813-.2646zm-9.2604-.5292c0-.1455-.0525-.2646-.1167-.2646-.0642 0-.1903.1191-.2802.2646-.0899.1455-.0374.2646.1167.2646.1541 0 .2802-.1191.2802-.2646zm12.965 0c0-.1455-.1856-.2646-.4125-.2646s-.3389.1191-.249.2646c.0899.1455.2756.2646.4125.2646s.249-.1191.249-.2646zm3.175 0c0-.1455-.0525-.2646-.1167-.2646-.0642 0-.1903.1191-.2802.2646-.0899.1455-.0374.2646.1167.2646.1541 0 .2802-.1191.2802-.2646zm5.2917 0c0-.1455-.1191-.2646-.2646-.2646s-.2646.1191-.2646.2646.1191.2646.2646.2646.2646-.1191.2646-.2646zm-2.3559-.5472c.4226-.3009.7684-.6612.7684-.8005 0-.3734-1.4969.4654-1.6794.9411-.2087.5439-.006.5126.911-.1405zm1.4408.265c.2848-.4608-.0396-.5583-.4024-.1211-.2087.2515-.2288.4033-.0533.4033.1547 0 .3598-.127.4558-.2822zm7.7105-.5612c-.0845-.2111-.1472-.1484-.1598.1599-.0115.2789.051.4352.139.3473.0879-.0879.0973-.3161.0209-.5071zm2.2005.0496c.1558-.291.2237-.5292.1509-.5292-.0728 0-.2597.2381-.4155.5292-.1558.291-.2237.5292-.1509.5292.0728 0 .2597-.2381.4155-.5292zm-16.14-.1167c0-.0642-.1191-.1903-.2646-.2802-.1455-.0899-.2646-.0374-.2646.1167 0 .1541.1191.2802.2646.2802s.2646-.0525.2646-.1167zm29.255-1.0789c-.7617-.8219-.9446-.8245-.9446-.0134 0 .4614.1682.6708.5953.7412.9264.1527 1.0079-.0171.3493-.7277zm90.204.6664c.0899-.1455.0374-.2646-.1167-.2646-.1541 0-.2802.1191-.2802.2646s.0525.2646.1167.2646c.0642 0 .1903-.1191.2802-.2646zm-86.386-.3813c0-.0642-.1191-.1903-.2646-.2802-.1455-.0899-.2646-.0374-.2646.1167 0 .1541.1191.2802.2646.2802s.2646-.0525.2646-.1167zm-1.8521-.5604c0-.2269-.1191-.3389-.2646-.249-.1455.0899-.2646.2756-.2646.4125s.1191.249.2646.249c.1455 0 .2646-.1856.2646-.4125zm17.33-.1167c.4671-.5161.4621-.5292-.2015-.5292-.3742 0-.7201-.1082-.7686-.2404-.1408-.3836-1.0802-.4539-1.2073-.0904-.0731.2091.1358.3307.5679.3307.5071 0 .6835.1366.6835.5292 0 .291.1006.5292.2236.5292.123 0 .4391-.2381.7025-.5292zm-26.326 0c0-.1455-.1261-.2646-.2802-.2646s-.2066.1191-.1167.2646c.0899.1455.216.2646.2802.2646.0642 0 .1167-.1191.1167-.2646zm31.87-.307c.3706-.1689.6739-.5261.6739-.7937 0-.6539-.5434-.6217-.7171.0425-.0907.347-.3609.5292-.7846.5292-.3634 0-.5747.1158-.4827.2646.2117.3425.485.3336 1.3105-.0425zm-20.228-.3544c0-.2183-.0468-.3969-.104-.3969-.0572 0-.1725.1786-.2563.3969-.0838.2183-.037.3969.104.3969.141 0 .2563-.1786.2563-.3969zm4.7625-.1635c0-.1455-.1191-.191-.2646-.1011-.1455.0899-.2646.2826-.2646.4281s.1191.191.2646.1011c.1455-.0899.2646-.2826.2646-.4281zm1.8521.2958c0-.1455-.1191-.2646-.2646-.2646s-.2646.1191-.2646.2646.1191.2646.2646.2646.2646-.1191.2646-.2646zm4.7625-.8586c0-.1476-.1755-.1189-.3969.0648-.2183.1812-.3969.4484-.3969.594 0 .1476.1755.1189.3969-.0648.2183-.1812.3969-.4484.3969-.594zm15.875.2765c0-.4274-.0782-.5038-.2944-.2876-.1619.1619-.2145.4239-.1167.5821.2737.4428.4111.3444.4111-.2944zm-2.9104-.2117c0-.294-.1764-.5292-.3969-.5292-.4835 0-.5004.1693-.0661.6626.4359.4951.463.4873.463-.1334zm4.7625.1479c0-.0642-.1191-.1903-.2646-.2802-.1455-.0899-.2646-.0374-.2646.1167 0 .1541.1191.2802.2646.2802.1455 0 .2646-.0525.2646-.1167zm3.5498-.3181c.25-.6515.0342-.6925-.5056-.096-.406.4486-.417.5308-.0708.5308.2253 0 .4847-.1956.5764-.4347zm11.267-.8882c0-.1455-.0525-.2646-.1167-.2646-.0642 0-.1903.1191-.2802.2646-.0899.1455-.0374.2646.1167.2646.1541 0 .2802-.1191.2802-.2646zm4.7625 0c0-.1455-.112-.2646-.249-.2646s-.3226.1191-.4125.2646c-.0899.1455.0221.2646.249.2646.2269 0 .4125-.1191.4125-.2646zm2.2574-.5428c.2525-.4085-.3644-.5186-.7494-.1337-.2127.2127-.4795.3031-.5929.2009-.1134-.1022-.1275-.0482-.0312.1201.1819.318 1.1422.1871 1.3735-.1873zm1.9759-.5155c0-.1455-.0525-.2646-.1167-.2646-.0642 0-.1903.1191-.2802.2646-.0899.1455-.0374.2646.1167.2646.1541 0 .2802-.1191.2802-.2646zm13.967-.7276c-.36-.4352-.9111-.4215-1.0832.027-.0966.2518.084.3497.6097.3307.5656-.0204.6806-.1073.4734-.3577zm15.595-.7552c-.0879-.0879-.3161-.0973-.5071-.0209-.2111.0845-.1484.1472.1598.1598.2789.0115.4352-.051.3473-.139z"/><path d="m-298.62 477.27c-.3107-1.5111-2.8-42.9-2.8104-46.728-.002-.8604.1043-.8854 5.422-1.2676 7.9311-.5701 14.365-.8027 15.045-.544.3732.1419.7407.1575.8166.0348.2482-.4017 7.9498-.9446 34.012-2.3975 7.9309-.4421 18.111-1.0396 22.622-1.3278 4.5112-.2882 11.595-.7068 15.743-.9304 8.7601-.4722 31.263-1.8008 40.084-2.3666 3.347-.2147 8.169-.5129 10.716-.6626 2.5466-.1497 5.4934-.3461 6.5484-.4364 1.6223-.1388 1.9182-.1012 1.9182.2436 0 .3584.0898.3629.7428.0371.815-.4066 2.9791-.5866 18.969-1.5775 5.8208-.3608 12.715-.793 15.321-.9605 5.4883-.3529 5.2686-.4386 5.5405 2.1622.0918.8781.5283 7.695.9701 15.149.4418 7.4536.9779 16.29 1.1913 19.637s.3892 7.2377.3906 8.6461l.003 2.5606-1.3891.156c-1.2364.1389-13.785.9114-34.617 2.1313-3.8686.2265-7.9762.3898-9.1281.3628-1.1519-.027-2.3325.0249-2.6235.1153-.645.2004-8.3614.7789-20.327 1.5241-8.3437.5196-8.9824.5276-9.4349.1181-.4525-.4095-.5023-.409-.7348.006-.2179.3894-1.7572.54-12.189 1.1921-6.5666.4105-15.067.8754-18.891 1.0331-3.8232.1577-8.0229.4068-9.3326.5536s-5.6555.4429-9.6573.6579c-4.0018.215-9.8359.5553-12.965.7561-5.9489.3819-7.4603.3331-8.3271-.2688-.287-.1993-.8228-.3548-1.1906-.3456l-.6687.0168.6337.2535c.3486.1394.5746.3126.5023.3849-.0723.0723-1.1313.2496-2.3535.3941-2.9134.3444-30.036 2.0755-35.86 2.2887l-4.5341.166-.1579-.7682zm6.0298-1.0724c.0835-.2176.009-.6549-.1664-.9717-.309-.5595-.3213-.5609-.4244-.047-.0584.291-.2227.6728-.3651.8483s-.1853.4382-.0953.5838c.2132.345.8574.0917 1.0512-.4134zm1.0608-.773c.5145-.5145.5349-.9071.0472-.9071-.3467 0-.6898.5372-.6898 1.08 0 .3472.1677.302.6426-.1728zm-2.4946-.2651c0-.2464-.18-.3814-.4411-.3307-.6638.1287-.7549.747-.1101.747.325 0 .5512-.1708.5512-.4163zm19.579-.0842c0-.5913-1.2441-1.0071-1.6874-.5638-.2075.2075-.1229.3311.3029.4424.3249.085.5907.2597.5907.3882 0 .1285.1786.2337.3969.2337s.3969-.2252.3969-.5005zm7.6729-.9704c0-.4366-.4182-.5103-.6614-.1167-.2158.3491.1006.8446.4152.6502.1355-.0837.2463-.3238.2463-.5335zm3.175.4281c0-.3122-.516-.6461-.7056-.4566-.1895.1895.1444.7056.4566.7056.1369 0 .249-.112.249-.249zm-7.2977-.1762c.2302-.0883.4185-.2669.4185-.3969 0-.3786-.6989-.2725-1.0583.1606-.3492.4207-.0902.5164.6398.2363zm10.318-.2742c.0918-.2391.1096-.4919.0397-.5618-.2461-.2461-.9437.1911-.9437.5914 0 .5417.6935.519.904-.0296zm2.0065-.1598.926-.5925-.8971-.0875c-.9515-.0928-1.8153.4742-1.4999.9845.25.4044.4169.3699 1.4709-.3045zm3.2812-.3042c-.3382-.8813-2.2228-1.0978-2.2228-.2553 0 .5147.7192.7515 1.1631.3831.2787-.2313.3999-.2037.5239.1195.0887.2312.276.3495.4162.2629.1402-.0867.194-.3162.1196-.5101zm10.166-.2477c.0506-.2611-.0843-.4411-.3307-.4411-.2454 0-.4163.2262-.4163.5512 0 .6448.6183.5537.747-.1101zm-6.7359-.715c-.3523-.3523-1.0214.3769-.7494.8169.1322.2139.3085.1794.6068-.1188.2935-.2935.3366-.5042.1427-.6981zm9.2619.5764c.4954-.5474.2707-.8779-.8256-1.214-.6364-.1951-.7201.0218-.4285 1.1099.1939.7236.6586.7622 1.2541.1041zm6.7812.255c0-.13-.1786-.3048-.3969-.3886-.2417-.0928-.3969-.0005-.3969.2363 0 .2137.1786.3886.3969.3886s.3969-.1063.3969-.2363zm-46.699-.422c4.3656-.2155 9.4853-.5152 11.377-.666s10.286-.6299 18.653-1.0647c8.3674-.4348 17.297-.9605 19.844-1.1683 5.8299-.4757 8.4154-.6276 16.03-.9414 3.3593-.1384 7.2289-.3713 8.599-.5175 2.4464-.2611 4.7122-.4016 19.292-1.1967 4.0018-.2182 7.7523-.4574 8.3344-.5314.5821-.074 4.6897-.3171 9.1281-.5402 4.4384-.2231 9.6681-.5238 11.622-.6683 2.0081-.1485 3.6517-.1629 3.7816-.033.1298.1298.8248.0753 1.599-.1255.7531-.1954 2.2066-.3551 3.2299-.3549 1.0233.0002 4.4204-.1741 7.5491-.3873 8.0372-.5477 18.054-1.1524 22.093-1.3336 4.0351-.1811 9.5192-.6083 10.424-.8122l.6349-.143-.1623-4.5491c-.2607-7.3087-1.2263-23.818-1.9358-33.098l-.1598-2.0906-5.1944.1577c-4.8703.1479-12.379.5872-37.077 2.1694-5.6026.3589-12.33.7751-14.949.9248-15.015.8583-50.614 2.9516-54.107 3.1817-20.682 1.3622-33.639 1.8659-34.612 1.3455-.4737-.2535-.5777-.2382-.5777.085 0 .5661-.4828.6169-12.832 1.3512-6.1119.3634-13.732.8376-16.933 1.0536-3.2015.2161-6.2257.3932-6.7205.3937l-.8997.0008.1685 2.5797c.0927 1.4188.5834 9.6044 1.0905 18.19.903 15.29 1.1424 18.584 1.3798 18.984.1692.2851 2.3683.2472 11.331-.1953zm4.4081-8.0068c-.1324-.2547-.3158-1.1179-.4075-1.9182-.2358-2.0573-1.2224-18.848-1.2224-20.804 0-1.8364.1317-1.9438 2.3812-1.9425l1.1906.0008 1.2991 3.1046c1.8521 4.4259 3.9046 8.793 4.1328 8.793.3973 0 .4369-1.426.1791-6.4439-.1454-2.8293-.1911-5.3348-.1017-5.5678.1237-.3223.5362-.4237 1.7242-.4237h1.5616l.1593 1.5214c.1817 1.7356.8906 13.066 1.1878 18.984.1342 2.6733.1092 4.0343-.0767 4.1696-.1518.1105-.9293.17-1.7279.1323l-1.4519-.0686-2.2913-5.2208c-2.5146-5.7296-3.0936-6.8466-3.6443-7.0301-.2927-.0976-.3338.1144-.2012 1.0371.0916.6378.2473 3.507.3458 6.3759l.1792 5.2162-.7204.2739c-1.1071.4209-2.2223.3364-2.4955-.1891zm10.68-3.7819c.3044-.4924-.4533-1.0776-1.2872-.9941-.9893.099-1.1626.5199-.3746.91.7894.3909 1.4515.4244 1.6618.0841zm-1.5451-2.5775c.1728-.1099.4377-.5248.5888-.922s.4458-.7222.655-.7222c.3129 0 .3272-.1409.0808-.7937-.3708-.9825-.6458-1.0042-.9976-.079-.1495.3931-.7616 1.167-1.3604 1.7198l-1.0886 1.005.9039-.004c.4972-.002 1.0453-.0939 1.2181-.2038zm-1.2402-2.8569c0-.2304-.1414-.3718-.3142-.3142-.4906.1635-.572.7331-.1047.7331.2304 0 .4189-.1885.4189-.4189zm-6.1994-5.1669c.1-.1618.0177-.3999-.1828-.5292-.295-.1902-.2993-.2772-.0224-.4561.2676-.1729.2255-.3603-.1931-.8599-.4561-.5443-.5746-.58-.8012-.2419-.1462.2183-.2677.6548-.27.9701-.002.3153-.1442.62-.3155.6771-.1713.0571-.2238.2456-.1167.4189.2458.3978 1.6591.4133 1.9016.021zm2.671-1.4078c-.0875-.2281-.2819-.4147-.432-.4147-.3044 0-.3739.8691-.0921 1.1509.2905.2905.6983-.2824.5241-.7363zm-4.1332-3.3041c-.1663-.3107-.4174-.4939-.558-.407-.1406.0869-.2125.2391-.1598.3381.0527.0991.1776.4084.2776.6874.128.3573.2647.4244.4622.2268.1975-.1975.191-.4475-.022-.8454zm1.1921-.5747c.4591-.8878.3744-1.1881-.2659-.9424-.2437.0935-.4083.4799-.4083.9587 0 1.0134.1435 1.01.6742-.0163zm14.566 17.156c-.3086-3.5202-1.2169-19.266-1.2169-21.095v-1.8039l1.8678-.1876c1.0273-.1032 1.9061-.145 1.9529-.093.0977.1085 1.1767 16.749 1.3974 21.551l.1471 3.2006-1.0289.17c-.5659.0935-1.4614.1713-1.99.1729l-.9611.003-.1681-1.9182zm1.5612-2.3151c.2412-.3903-.0924-.7924-.5209-.628-.2044.0785-.3069.3114-.2278.5176.1677.4371.5152.4883.7487.1104zm1.4552-1.5719c0-.3122-.516-.6461-.7056-.4566-.1895.1895.1444.7056.4566.7056.1369 0 .249-.112.249-.249zm-.8544-1.1236c-.1635-.4906-.7331-.572-.7331-.1047 0 .2304.1885.4189.4189.4189.2304 0 .3718-.1414.3142-.3142zm-.7331-2.5092c0-.2668-.8432-1.1453-1.0993-1.1453-.3562 0-.2598.4552.1922.9072.4273.4273.9071.5533.9071.2382zm0-3.1141c0-.7059-.3935-1.1106-.6603-.679-.215.3479.0899 1.3249.4135 1.3249.1357 0 .2467-.2906.2467-.6458zm-.6831-2.6898c.4159-.1596.5994-.9031.2201-.8919-.1091.003-.4961.2387-.8599.5233-.5085.3978-.5594.5188-.2201.5233.2428.003.6297-.0664.8599-.1547zm.3734-3.1076c.0673-.3495-.0413-.4581-.3908-.3908-.2662.0513-.526.311-.5772.5772-.0673.3495.0413.4581.3908.3908.2662-.0513.526-.311.5772-.5772zm.3097-1.3776c0-.2097-.1786-.3813-.3969-.3813-.3985 0-.5439.5585-.2277.8748.2469.2469.6246-.0515.6246-.4935zm.6615-1.3955c0-.4785-.5179-.3912-.6206.1047-.0571.2759.042.3968.2646.3226.1958-.0653.356-.2576.356-.4273zm-.7023-2.2793c.0585-.3016-.0369-.4289-.2646-.353-.1958.0652-.3971.3307-.4474.5901-.0585.3016.0369.4289.2646.353.1958-.0652.3971-.3307.4474-.5901zm10.599 22.855c-2.1749-.3428-3.5544-1.3688-4.3273-3.2188-.5572-1.3336-.524-1.7119.1007-1.1465.5662.5124 1.3438.3898 1.9133-.3016.3153-.3828.2787-.4116-.3302-.26-.4183.1041-.8814.0267-1.1899-.1988-.3215-.2351-.613-.2797-.802-.1229-.2122.1762-.3455-.2639-.4672-1.5432-.4787-5.0307-.6846-8.4562-.6884-11.451-.005-3.9066.2682-4.6416 2.2576-6.0754 1.0978-.7912 1.5291-.9345 3.0777-1.022 2.5632-.1448 3.4327.091 4.8122 1.3053 1.4675 1.2917 2.0192 2.8492 2.0192 5.6996v1.9239l-.9922.2756c-2.176.6043-2.5134.3537-2.8263-2.0996-.245-1.9207-.7558-2.9203-1.8565-3.6328l-.9066-.5869-.6531.7762c-.8434 1.0023-1.0606 2.3752-.8508 5.3781.801 11.467.8718 11.899 2.0569 12.511.9193.4754 1.9311.3088 2.2989-.3785.1399-.2613.3374-1.5398.4391-2.8411.1016-1.3013.3029-2.5148.4472-2.6967.1616-.2037.9226-.3307 1.9818-.3307h1.7193l-.1098 3.2974c-.1061 3.1869-.1372 3.3354-.9293 4.4318-1.3481 1.866-3.6217 2.713-6.1942 2.3076zm-2.3556-2.6025c0-.1313.3661-.3663.8136-.5223s.7381-.4058.6458-.5551c-.243-.3931-.8539-.3336-1.601.1559-.7222.4732-.8734 1.1602-.2553 1.1602.2183 0 .3969-.1074.3969-.2387zm-.2646-3.4655c0-.6518-.4882-.9438-.6916-.4136-.2085.5432.0851 1.2864.4252 1.0763.1466-.0906.2665-.3887.2665-.6626zm-.8411-1.3454c.3038-.4865.2883-.5409-.1318-.46-.262.0504-.5162.2987-.5649.5517-.1215.6311.2781.5785.6966-.0917zm1.1056-2.7556c0-.2183-.1786-.3969-.3969-.3969s-.3969.1786-.3969.3969.1786.3969.3969.3969.3969-.1786.3969-.3969zm-1.0242-3.3497c-.1948-.5123-.4439-.6506-1.2115-.6724-.6217-.0176-.9298.0813-.8639.2775.0563.1677.2709.3072.4768.31.2059.003.6648.2084 1.0196.4569.782.5477.8999.4719.579-.3721zm1.0242-1.2805c0-.294-.1764-.5292-.3969-.5292-.2205 0-.3969.2352-.3969.5292 0 .294.1764.5292.3969.5292.2205 0 .3969-.2352.3969-.5292zm-1.5875-1.2127c0-.6408-.1072-.9124-.3307-.838-.6217.207-.5705 1.7861.0578 1.7861.1501 0 .2729-.4266.2729-.9481zm.289-1.5654c-.002-.1455-.2463-.3026-.5431-.3491-.5321-.0834-.7159.217-.3541.5788.2573.2573.9015.0924.8972-.2296zm-.289-1.6031c0-.4366-.4182-.5103-.6614-.1167-.2158.3491.1006.8446.4152.6502.1355-.0837.2463-.3238.2463-.5335zm8.2021 0c0-.2097-.1063-.3813-.2363-.3813-.292 0-.5765.6865-.37.893.2316.2316.6063-.0847.6063-.5117zm-6.6613-2.0568c.0506-.2611-.0843-.4411-.3307-.4411-.2454 0-.4163.2262-.4163.5512 0 .6448.6183.5537.747-.1101zm13.098 20.123c-.2745-.4441-1.5496-24.217-1.3117-24.455.1071-.1071 1.0095-.2408 2.0052-.297l1.8105-.1023.1832 2.8726c.1008 1.5799.2619 3.8846.3581 5.1215l.1749 2.249 1.4411.0818c.7926.045 1.7328.009 2.0894-.081l.6484-.1627-.1743-4.8138c-.1057-2.9199-.0751-4.9662.0778-5.2012.1694-.2603.8648-.422 2.1198-.4929l1.8676-.1055.004 2.345c.002 1.2897.1796 4.7262.3945 7.6366.2149 2.9104.4694 7.4459.5655 10.079l.1748 4.7872-1.2261.1681c-.6744.0924-1.5677.0997-1.9852.0163l-.7591-.1518-.1671-3.0836c-.15-2.7698-.496-5.4417-.8702-6.7217-.1119-.3829-.4499-.463-1.954-.463-1.0002 0-1.8719.0893-1.9369.1984-.0651.1091-.004 2.5015.136 5.3164.1399 2.8149.2158 5.1498.1688 5.1886-.047.0388-.8851.1419-1.8625.229-1.2431.1108-1.8357.0634-1.9724-.1578zm9.9785-10.462c-.3994-.1331-1.1017.4801-.9083.7931.0872.1411.3857.0436.6788-.2217.3093-.2799.4031-.5135.2294-.5714zm-4.7443-2.068c.1707-.2057.2467-.4376.169-.5154-.2271-.2271-2.1035.6484-1.9437.9069.2014.3258 1.3986.0617 1.7748-.3916zm-4.034-.2424c.0836-.4316.039-.451-.3307-.1441-.5057.4197-.5686.9102-.0967.753.1819-.0606.3742-.3346.4274-.6089zm7.7748.1777c.3482.1948.4629.1628.4629-.1294 0-.2136.0723-.5767.1606-.8069.1209-.315-.008-.4185-.5224-.4185-.4887 0-.7978.222-1.0866.7806-.5288 1.0226-.5103 1.25.0595.7343.335-.3031.5913-.3475.926-.1601zm-7.0029-2.1046c.079-.2398-.0773-.3246-.4877-.2646-.3322.0486-.6564.2473-.7204.4414-.079.2399.0773.3247.4877.2646.3322-.0486.6564-.2473.7204-.4414zm8.5814-.6216c-.4042-.4042-.7024-.1059-.4782.4782.1324.3449.2471.3791.4825.1437s.2344-.3833-.004-.6219zm-2.0076-.9317c-.2181-.2181-.9601.1313-.9601.452 0 .1957.1692.1916.5518-.0131.3035-.1624.4872-.3599.4083-.4389zm1.9503-.2966c0-.3806-1.2604-1.4196-1.4163-1.1675-.2091.3383.5727 1.3859 1.0344 1.3859.21 0 .3819-.0983.3819-.2185zm-1.8381-.7076c-.0207-.3927-.6127-.3206-.75.0914-.0742.2225.0468.3217.3227.2646.2427-.0503.435-.2105.4273-.356zm.873-1.4534c-.3125-.1261-.6506-.3625-.7512-.5252-.134-.2169-.2819-.2138-.5533.0114-.5612.4658-.1923.7785.8962.7598.8192-.0141.885-.0537.4083-.246zm.6502-1.7877c-.1074-.5577-.577-.5225-.6966.0522-.0499.2397.0959.4108.3501.4108.2725 0 .4023-.1734.3465-.463zm-1.1801-.4545c.1814-.4727-.1662-.7265-.7096-.5181-.7092.2722-.7543.9064-.0643.9064.3437 0 .6919-.1748.7739-.3884zm1.0982-1.4637c0-.4888-.881-.68-1.2827-.2784-.2242.2242-.2002.3647.0943.5536.5411.3472 1.1884.1973 1.1884-.2753zm-1.4412-1.1906c-.0207-.3927-.6127-.3206-.75.0914-.0742.2225.0468.3217.3227.2646.2427-.0503.435-.2105.4273-.356zm10.476 21.497c-.0894-.6185-.2434-3.7205-.342-6.8934-.1521-4.8935-.1227-5.7567.194-5.6885.2053.0442.3733-.0983.3733-.3165 0-.2183-.1389-.3969-.3087-.3969-.5575 0-.6402-.3032-.8718-3.1966-.269-3.3606-.4131-3.5503-2.6973-3.5503-1.7594 0-2.0754-.3189-2.0754-2.0942 0-1.3229-.4044-1.226 6.8371-1.6385 6.4257-.366 6.1776-.4375 6.064 1.7483l-.0688 1.3229-2.0505.0773c-2.0338.0767-2.0505.0831-2.0505.7937 0 .3941.1703 3.6335.3784 7.1988.2081 3.5653.4527 8.1194.5436 10.12l.1653 3.638h-3.928zm2.152-5.4492c.0758-.2277-.0514-.3231-.353-.2646-.2594.0503-.5249.2516-.5901.4474-.0758.2277.0514.3231.353.2646.2594-.0503.5249-.2516.5901-.4474zm-.1541-3.2688c-.2469-.2469-.3881-.2469-.635 0-.2469.247-.1764.3175.3175.3175s.5645-.0706.3175-.3175zm-.3175-9.8846c0-.4366-.4182-.5103-.6615-.1167-.2158.3491.1006.8446.4152.6502.1355-.0837.2463-.3238.2463-.5335zm1.6069-2.4979c.587 0 .7743-.1228.7743-.5075 0-.2791.0776-.7097.1724-.9568.1489-.3879.0947-.4077-.3969-.1446-.3131.1676-.5774.5088-.5872.7584-.0139.3513-.0827.3194-.305-.1416-.3649-.7565-.5008-.7471-1.2846.0886l-.6414.6839.6615.5375c.578.4697.6723.4835.747.1098.0554-.2769.3585-.4277.8599-.4277zm-3.4061-.3175c-.2469-.2469-.3175-.1764-.3175.3175s.0706.5645.3175.3175c.247-.2469.247-.3881 0-.635zm-2.9687-.2217c-.3016-.5635-1.3176-1.2025-1.3176-.8287 0 .131.2477.5531.5504.9379.6152.7822 1.1997.699.7672-.1091zm4.4383-.981c.0663-.2019-.1307-.3243-.5087-.3161-.3393.007-.9444-.0665-1.3446-.1643-.5547-.1355-.7276-.0814-.7276.2279 0 .2231.1488.4686.3307.5454.5878.2483 2.1387.0465 2.2502-.2929zm19.561 22.123c-.2208-.3447-1.5424-5.6273-2.9369-11.739-1.3945-6.1119-2.5936-11.365-2.6645-11.674-.1094-.476.0212-.5861.8597-.7247 2.0337-.3362 2.6219-.2244 2.9391.5584.1621.4002.7094 2.8112 1.2162 5.3578 1.1112 5.5846 1.6939 7.6714 1.9909 7.1306.2257-.411.5405-2.7912 1.205-9.1093.2425-2.3061.5461-4.043.7259-4.1542.17-.1051.7709-.2691 1.3353-.3644 1.3445-.2271 1.6945.1438 2.1586 2.2879 1.9846 9.1697 2.4707 11.089 2.8091 11.089.3051 0 .4372-1.0698.8982-7.276.227-3.0559.4718-5.7504.5439-5.9878.1444-.4752 1.2009-.7591 2.8244-.7591h1.0553l-.1562 1.1245c-.0859.6185-.6396 5.7679-1.2305 11.443-.5909 5.6753-1.1625 10.795-1.2703 11.377l-.196 1.0583-1.6462.0788c-1.501.0718-1.6697.0252-1.9126-.5292-.1465-.3344-.8011-2.9667-1.4546-5.8496-1.2092-5.3343-1.591-6.5025-1.993-6.0977-.2174.219-.7074 3.8325-1.3038 9.6162-.1702 1.6505-.4334 2.922-.6497 3.1383-.2.2-.8996.424-1.5548.4978-1.041.1173-1.2418.0552-1.5926-.4924zm1.0608-3.84c.1023-.2666-.0235-.5744-.3248-.7947-.6482-.474-1.0596-.0598-.6677.6723.3576.6682.7639.7183.9925.1224zm9.5291.005c.1292-.388-.5349-.6393-.9732-.3684-.1873.1158-.2547.3495-.1498.5193.2287.37.9833.2686 1.123-.1509zm-7.596-.5177c0-.4672-.5696-.3859-.7331.1047-.0576.1728.0838.3142.3142.3142.2304 0 .4189-.1885.4189-.4189zm-1.2981-.985c-.2095-.2095-.3807-.1968-.6201.0459-.2651.2688-.2257.4132.1984.7276.4732.3508.5388.346.6201-.0459.05-.241-.0393-.5685-.1984-.7276zm-.6139-.6701c.2574-.1634.2105-.3283-.1984-.6984-.2945-.2665-.5354-.6447-.5354-.8404 0-.1957-.1815-.3559-.4034-.3559-.4533 0-1.0133 1.226-.8063 1.7654.1478.3852 1.4083.469 1.9436.1293zm1.6474-.1593c0-.4214-.48-.8144-.7117-.5827-.2177.2177.1221.9639.4389.9639.1501 0 .2729-.1716.2729-.3813zm-2.893-2.2739c.2866-.1534.5118-.5518.5118-.9057 0-.7133-1.1824-2.26-1.7277-2.26-.4559 0-.7969.5348-.4829.7572.1311.0929.4283.468.6602.8336.3593.5662.3673.7156.0542 1.008-.7033.6569.0286 1.0784.9844.5669zm11.889-.6742c0-.4672-.5696-.3859-.7331.1047-.0576.1728.0838.3142.3142.3142.2304 0 .4189-.1885.4189-.4189zm-3.175-1.0039c0-.2005-.1786-.5127-.3969-.6938-.3298-.2737-.3969-.2419-.3969.1881 0 .2846.0794.5968.1764.6938.2955.2955.6174.1974.6174-.1881zm-5.2917-1.8689c0-.3552-.1191-.7194-.2646-.8094-.1544-.0954-.2646.1736-.2646.6459 0 .4451.1191.8094.2646.8094s.2646-.2906.2646-.6458zm9.3133-.73c-.2469-.247-.3881-.247-.635 0-.2469.2469-.1764.3175.3175.3175s.5644-.0706.3175-.3175zm-13.018-.7252c0-.3573-.4823-.605-.7981-.4098-.1479.0914-.2004.277-.1167.4125.1986.3214.9147.3193.9147-.003zm12.435-1.3061c0-.1277-.168-.3716-.3733-.542-.4146-.3441-.8387.0469-.5527.5096.2015.326.9261.3514.9261.0324zm-8.5273-1.0411c.0576-.1728-.0838-.3142-.3142-.3142-.2304 0-.4189.1885-.4189.4189 0 .4672.5696.3859.7331-.1047zm1.5158-1.3762c0-.5671-.7688-.4852-.8803.0938-.0681.3536.0397.4613.3932.3932.2679-.0516.487-.2708.487-.487zm1.4552-.261c0-.3528-.1764-.5292-.5292-.5292-.5099 0-.717.5177-.3528.8819.3642.3642.882.1571.882-.3528zm-1.3229-1.4708c0-.2097-.1786-.3813-.3969-.3813-.3985 0-.5439.5585-.2277.8748.2469.2469.6246-.0515.6246-.4935zm13.656 16.618c-.085-.8367-.2759-3.5454-.4243-6.0193s-.4477-7.1937-.6652-10.489c-.2175-3.2948-.3954-6.1821-.3954-6.4161 0-.3555.3482-.4255 2.1167-.4255h2.1167v.7252c0 .3989.1372 2.9755.305 5.7258.2189 3.5899.2243 5.1298.019 5.4586-.1573.2519-.1851.5626-.0619.6904.4561.4729 1.2341 10.086.9287 11.477-.1731.7881-.1887.7944-1.9796.7944h-1.8051zm1.3278-2.8496c-.0897-.2338-.2888-.3474-.4424-.2524-.1918.1186-.1806.2916.0358.5523.3844.4632.6299.2822.4066-.2999zm-.696-5.6832c0-.291-.112-.5292-.249-.5292-.3552 0-.6054.4816-.4125.7937.2765.4474.6615.2934.6615-.2646zm.4855-2.7273c-.2003-.3743-.3495-.459-.4225-.2398-.1657.4971.1549 1.1751.465.9835.1761-.1088.1616-.3623-.0425-.7437zm.7608-2.5641c-.0761-.2909-.0304-.5956.1014-.6771.1319-.0815.2397-.2602.2397-.3971 0-.391-.694-.2911-1.0624.1529-.2729.3288-.2473.4971.1409.926.6009.664.7549.6627.5804-.005zm-.364-1.6317c.3441-.5464-.1799-1.279-.9147-1.279-.6784 0-.6279.4519.0755.6751.507.1609.5221.2097.1323.4279-.242.1354-.44.3681-.44.5171 0 .4084.8305.1615 1.1469-.3411zm-.0765-6.0641c.1624-.3035.2313-.6159.153-.6941-.2475-.2475-.9131.1369-1.2155.7019-.2487.4648-.214.5441.238.5441.291 0 .6621-.2483.8245-.5518zm9.0226 18.08c-.3393-4.8395-.4048-9.516-.1294-9.2407.2848.2848.8842-.372.8842-.9687 0-.5234-.0247-.5288-.455-.0984-.4303.4303-.4725.3723-.7768-1.0678-.1769-.8376-.331-2.1181-.3423-2.8457-.0388-2.4936-.0578-2.5135-2.395-2.5135h-2.0553l-.1863-1.4912c-.1364-1.0915-.0957-1.5472.1519-1.7002.186-.1149 1.3575-.2841 2.6032-.3758 1.2458-.0917 3.9495-.31 6.0084-.485l3.7434-.3182.1747 1.5442c.1172 1.0362.0719 1.668-.1377 1.9206-.5858.7059-4.481.3538-4.481-.4051 0-.1672.2474-.1527.6686.0392.499.2274.7449.2284.9691.004.2243-.2243.1386-.3699-.3379-.5743-.3511-.1506-.8518-.4229-1.1125-.6051-.4043-.2826-.55-.234-.9895.3301-.5153.6613-.5152.6615.1256 1.2288.3525.312.7763.6125.9417.6676.197.0657.3865 1.7414.5492 4.8566.1367 2.616.36 6.4828.4963 8.5928.1363 2.11.2544 4.7592.2623 5.887l.0144 2.0505h-3.8837zm2.4889-1.9413c.0978-.1582.0503-.4151-.1055-.5709-.3302-.3302-1.1891.2348-.9486.6239.2014.3258.8397.2937 1.054-.053zm-.4111-8.0688c0-.4672-.5696-.3859-.7331.1047-.0576.1728.0838.3142.3142.3142s.4189-.1885.4189-.4189zm-5.0271-8.2713c0-.123-.2263-.4284-.5029-.6787-.5928-.5364-1.056-.0977-.5458.517.346.4168 1.0487.5252 1.0487.1617zm4.4319-1.0332c.0646-.194-.1178-.3307-.4411-.3307-.325 0-.5512.1708-.5512.4163 0 .4863.8256.4151.9923-.0856zm2.9764.0467c0-.2464-.18-.3814-.4411-.3307-.6638.1287-.7549.747-.1101.747.325 0 .5512-.1708.5512-.4163zm-4.294-.3279c.0628-.1885-.1688-.3142-.5788-.3142-.7095 0-.9303.3864-.3528.6174.4574.183.8075.0691.9315-.3032zm10.115 22.59c0-1.4285 1.4276-6.607 3.7166-13.481 1.1574-3.4759 2.1043-6.4657 2.1043-6.6439 0-.3747-1.934-.6566-4.5276-.66l-1.7495-.002-.1754-1.4926c-.0965-.8209-.1312-1.5368-.0771-1.5909.1658-.1658 6.5297-.6083 8.8397-.6146 2.0868-.006 2.1845.0208 2.3389.6359.2191.873-.5481 3.7776-3.1848 12.058-1.2279 3.8563-2.3107 7.3389-2.4062 7.7391l-.1736.7276h6.9365v3.4015l-1.3891.1388c-2.1341.2134-8.737.6931-9.5388.6931-.6367 0-.7138-.0981-.7138-.9082zm2.5244-1.7553c.2435-.394-.0388-.6082-.5454-.4138-.2338.0897-.3509.283-.2604.4296.2145.347.5861.3397.8058-.0157zm2.1719-9.309c-.0606-.1819-.269-.3307-.463-.3307-.194 0-.4024.1488-.463.3307-.0656.1967.122.3307.463.3307.341 0 .5286-.134.463-.3307zm2.4628-3.4022c.1606-.3002.2066-.6249.1021-.7215-.1045-.0967-.2431-.0269-.3081.155-.1865.5222-.6032.3852-.6032-.1984 0-.291-.1137-.5292-.2526-.5292-.3144 0-.6567 1.7156-.419 2.1002.2352.3805 1.0967-.0884 1.4807-.806zm.5138-1.3824c0-.194-.0893-.4421-.1984-.5512s-.2133-.3076-.2315-.441c-.0182-.1334-.0479-.3616-.0661-.5071-.0483-.3861-.5412-.3234-.9907.126-.2922.2922-.3216.5197-.1164.903.4191.7831 1.6032 1.1305 1.6032.4703zm.1474-4.5204c.6058-.4429.2912-.9224-.3428-.5225-.4955.3125-.7604.8978-.4064.8978.1298 0 .467-.1689.7492-.3752zm.3622-2.4264c-.1704-.2053-.4143-.3733-.542-.3733-.358 0-.2747.7344.0985.8683.5299.1901.7802-.0893.4435-.495zm-1.2109.032c.1696-.4421-.2245-.783-.6216-.5376-.3956.2445-.3191.926.104.926.2027 0 .4356-.1748.5176-.3884zm7.7562 21.224c-.2876-2.4708-.8943-13.095-1.1634-20.373l-.115-3.1089h1.8586c1.0222 0 1.9195.0985 1.994.219.0744.1204.3257 3.4839.5583 7.4745s.5329 9.0415.6671 11.224c.1343 2.1828.2473 4.4152.2511 4.9609l.007.9922h-3.8959zm1.7709-3.1623c.156-.2477.1992-.5347.0961-.6378-.2094-.2094-1.249.6364-1.249 1.0162 0 .3903.843.1136 1.1529-.3784zm1.096-1.534c-.128-.2071-.2802-.2225-.4566-.0461-.1455.1455-.1782.4044-.0726.5753.128.2071.2802.2225.4566.0461.1455-.1455.1782-.4044.0726-.5753zm-1.6536-3.627c-.1819-.0667-.3307-.2899-.3307-.4961s-.2452-.3748-.5448-.3748c-.5723 0-.5199.2526.2348 1.1307.3007.3498.4756.3919.6874.1654.2036-.2178.1903-.3383-.0467-.4252zm.0133-3.0058c-.5707-.9661-.951-1.0147-.5941-.076.3834 1.0084.5203 1.1802.8017 1.0063.1444-.0892.0565-.4833-.2076-.9304zm1.1221-.5286c.2882-.4663-.0156-.5317-.5594-.1204-.4476.3387-.4553.3867-.0624.3941.2461.005.5259-.1186.6218-.2738zm-.5245-2.2398c-.5865-.4436-.9416-.4986-.9416-.1459 0 .2735.4659.5033 1.0583.5219.2958.009.266-.0865-.1167-.376zm.2673-.9472c.1-.1618.0686-.3701-.0698-.463-.1384-.0929-.3448-.407-.4587-.698-.2021-.5164-.2137-.515-.4814.0598-.4067.8735.5237 1.8879 1.0099 1.1012zm-1.2089-1.5423c0-.3573-.4823-.605-.7981-.4098-.1479.0914-.2004.277-.1167.4125.1986.3214.9147.3193.9147-.003zm1.0583-3.0804c0-.4672-.5696-.3859-.7331.1047-.0576.1728.0838.3142.3142.3142.2304 0 .4189-.1885.4189-.4189zm-.4346-2.0158c.156-.2477.1928-.5411.0818-.6521-.2823-.2823-1.084.2717-1.1926.8241-.1161.5905.7113.4624 1.1108-.172zm8.802 22.419c-1.3545-.4828-2.762-1.8792-3.0658-3.0416-.6755-2.5847-1.3786-15.867-.9585-18.106.2499-1.332 2.2498-3.3572 3.7574-3.8049 2.4927-.7402 5.3761.0373 6.6803 1.8014.6787.9179 1.7012 4.6462 1.5751 5.743-.0821.7138-.1289.733-1.9687.8083l-1.8846.0771-.2811-1.8939c-.1965-1.3236-.4595-2.0838-.8735-2.5244-.8054-.8573-1.9409-.8358-2.5198.0477-.3973.6064-.4265 1.3424-.2758 6.9453.1807 6.7194.4898 9.4239 1.1618 10.166.6054.6689 2.239.6166 2.8786-.0922.4075-.4515.5017-.9533.4919-2.6198-.0137-2.3218-.2763-2.8357-1.5114-2.9579-.6502-.0644-.8646-.2393-1.0225-.8343-.457-1.7223.719-2.554 3.6044-2.5494 1.8215.003 2.4445.2128 2.6117.8798.2618 1.0441.7565 10.213.5874 10.887-.1302.5187-.335.6633-.9396.6633-.4252 0-.8467-.1191-.9366-.2646-.2635-.4264-.9698-.3073-2.36.398-1.4779.7498-3.1424.845-4.7508.2716zm3.0097-.8175c0-.4366-.4182-.5103-.6615-.1167-.2158.3491.1006.8446.4152.6502.1355-.0837.2463-.3238.2463-.5335zm1.3626.0156c0-.1382-.128-.294-.2844-.3462-.1564-.0521-.2844.1036-.2844.3462 0 .2425.128.3983.2844.3462.1564-.0521.2844-.2079.2844-.3462zm-2.6112-.2478c.0319-.1363-.3221-.3462-.7865-.4666-.4644-.1203-1.0864-.5587-1.3823-.9742-.5353-.7518-.5354-.7576-.0155-1.2281.6512-.5893.6665-.9199.0427-.9199-.2638 0-.8294.366-1.2568.8134-.6736.705-.7238.8548-.3766 1.1245.2203.1711.6043.6298.8534 1.0194s.7237.7628 1.0547.8293c.8937.1796 1.801.0834 1.8668-.1979zm-3.3043-4.3822c-.1296-1.1082-.6021-.7381-.6754.5289-.0649 1.1219-.0452 1.1601.3419.6617.226-.2909.376-.8267.3335-1.1906zm-.1056-4.1476c-1.2411-.9931-1.6808-.7004-.5059.3367.6688.5903 1.0932.8104 1.1624.6028.0599-.1798-.2355-.6026-.6565-.9395zm-.2582-2.5026c-.1654-.2676-1.6979-.3142-1.6979-.0516 0 .0977.1979.3963.4398.6636.4088.4517.4737.4554.9198.0516.264-.2389.4162-.5375.3383-.6636zm-110.33 28.047c-.2087-.3377-.6403-.0148-.6403.4792 0 .3363.0736.3525.394.0867.2167-.1798.3275-.4345.2463-.5659zm22.643-.7595c0-.291-.112-.5292-.249-.5292-.3552 0-.6054.4816-.4125.7937.2765.4474.6615.2934.6615-.2646zm1.7198-.4074c.8741-.7571.9892-.9619.6615-1.1766-.5505-.3606-.7937-.3311-.7937.0964 0 .2005-.1851.5181-.4113.7058-.509.4224-1.0044 1.3145-.7225 1.301.1143-.005.684-.4224 1.2661-.9266zm7.0115.1272c0-.2824-.1191-.5135-.2646-.5135-.1455 0-.2646.3047-.2646.6771 0 .384.1145.6063.2646.5135.1455-.0899.2646-.3946.2646-.6771zm-3.8436.0272c.086-.1392.3191-.1906.518-.1143.1989.0763.4451.004.5472-.1615.2663-.4309-.0306-.629-.5836-.3894-.2609.113-.6428.2171-.8485.2311-.5127.0351-.6956.687-.1927.687.2218 0 .4737-.1139.5597-.253zm2.6341-.1627c.4879-.4879.5267-.8074.1281-1.0537-.3495-.216-.6511.0799-.8911.8741-.2099.6946.1607.7818.7629.1795zm4.3845.1512c0-.2439-.364-.355-.6501-.1984-.0665.0364-.2864-.1603-.4888-.437-.2637-.3607-.4232-.4136-.5633-.1868-.1075.1739-.0516.4896.1243.7015.3604.4343 1.5779.5274 1.5779.1207zm3.3322-.7198c.4951-.621.6328-.671 1.0021-.3645.3728.3094.4282.2788.4282-.2362 0-.5252-.0964-.5729-.8599-.4249-.4729.0917-1.0087.1846-1.1906.2064-.3408.0409-.4793 1.539-.1422 1.539.1037 0 .4468-.3239.7625-.7198zm3.4444.0501c.2413-.3683.3529-.7553.2479-.8599-.1988-.198-1.2037.8826-1.2037 1.2943 0 .4622.5245.2238.9558-.4345zm22.328-1.2823c0-.5353-.6998-1.0598-.9259-.694-.2616.4232.051 1.0585.5208 1.0585.2228 0 .4052-.164.4052-.3645zm7.276-.4293c.0924-.291.279-.5292.4147-.5292.1357 0 .2468-.1191.2468-.2646 0-.3757-.6065-.3275-1.183.094-.3003.2196-.4257.5273-.3235.7937.2277.5934.6415.5474.845-.094zm2.2943.0913c.2661-.2408.4839-.598.4839-.7937 0-.4286-.6891-.4746-.9435-.063-.1267.205-.2461.1874-.3981-.0585-.3562-.5764-.5461-.0978-.2599.655.3102.8159.464.8517 1.1176.2603zm4.6409-.8555c.3342.3342.9598.0652.7264-.3124-.4789-.7749-2.7668.3058-2.7668 1.3069 0 .2709.2856.1258.8728-.4433.6414-.6217.9509-.7678 1.1676-.5512zm-9.9779.6535c0-.0609-.0723-.299-.1606-.5292-.2269-.5912-.6331-.5202-.6331.1106 0 .294.1764.5292.3969.5292.2183 0 .3969-.0498.3969-.1106zm1.8521-.4029c0-.3573-.4823-.605-.7981-.4098-.1479.0914-.2004.277-.1167.4125.1986.3214.9147.3193.9147-.003zm24.028-.7432c-.1146-.6047-1.8032-.8269-1.8032-.2372 0 .4446.3841.6491 1.2762.6794.448.0152.5909-.1047.527-.4421zm-4.449-.1984c0-.2183-.1786-.3969-.3969-.3969-.2183 0-.3969.1786-.3969.3969s.1786.3969.3969.3969c.2183 0 .3969-.1786.3969-.3969zm6.4651-.1257c.746-.2836.8888-.7363.3032-.961-.456-.175-1.7953.6528-1.591.9834.1863.3014.4481.2969 1.2878-.0224zm1.9548-.6238c.1238-.6384-.3939-.5435-.563.1032-.0905.3462-.0296.5067.1676.4411.1704-.0568.3484-.3017.3955-.5443zm10.101-.2089c0-.319-.7245-.2936-.926.0324-.286.4627.1381.8537.5527.5096.2053-.1704.3733-.4143.3733-.542zm3.1924-.2415c.6379-.3414.6656-.7858.0487-.7804-.6719.006-1.2212.4191-1.0105.7601.2241.3626.3184.3645.9617.0203zm1.3055-.4356c0-.3363-.0736-.3525-.394-.0867-.2167.1798-.3275.4345-.2463.5659.2087.3377.6403.0148.6403-.4792zm11.015.0426c-.0897-.2338-.2888-.3474-.4424-.2524-.1918.1186-.1806.2916.0358.5523.3845.4632.6299.2822.4066-.2999zm6.9729-.5899c-.002-.2547-.1064-.6246-.2315-.822-.3181-.502-.6419.0754-.4251.7582.2064.6502.6622.6944.6567.0638zm10.192-3.5076c.0906-.1466-.0266-.3398-.2604-.4296-.5066-.1944-.7889.0198-.5454.4138.2197.3555.5913.3627.8058.0157zm-1.1918-5.6711c0-.2097-.1108-.4498-.2463-.5335-.3146-.1944-.6309.301-.4152.6502.2433.3937.6615.3199.6615-.1167zm.3851-2.7747c.1857-.3004-.8036-.6478-1.1808-.4147-.1492.0922-.2028.2785-.119.4139.1969.3185 1.1031.3191 1.2998.0008zm-1.1788-6.473c0-.3973-.6422-.7531-.8979-.4975-.1866.1866.3357.866.6657.866.1277 0 .2322-.1658.2322-.3686zm-188.89-1.0866c-.002-.1455-.2463-.3026-.5431-.3491-.5321-.0834-.7159.217-.3541.5788.2573.2573.9015.0924.8972-.2296zm189.62.0661c-.0606-.1819-.3285-.3307-.5953-.3307s-.5347.1488-.5953.3307c-.0698.2095.1485.3307.5953.3307s.6651-.1213.5953-.3307zm-189.99-1.6359c-.0875-.2281-.2819-.4147-.432-.4147-.3044 0-.3739.8691-.0921 1.1509.2905.2905.6983-.2824.5241-.7363zm188.94.0649c-.1635-.4906-.7331-.572-.7331-.1047 0 .2304.1885.4189.4189.4189s.3718-.1414.3142-.3142zm-188.85-2.9775c0-.4271-.3747-.7433-.6063-.5117-.2065.2065.078.893.37.893.13 0 .2363-.1716.2363-.3812zm189.13-1.3843c-.1219-1.0301-.7452-1.1209-.7452-.1086 0 .5641.1278.8158.4144.8158.2937 0 .3901-.206.3307-.7072zm.3029-1.9195c.534-.9979-.3294-1.8112-1.0285-.9688-.2263.2727-.2302.4225-.0144.5559.1625.1004.2316.3492.1535.5527-.2181.5682.5774.4431.8894-.1399zm-190.45-1.3193c.3436-.2785.5391-.5923.4345-.6973-.2276-.2285-1.5296.576-1.5296.9452 0 .4003.4101.3075 1.0952-.2479zm190.33-1.6122c.0906-.1466-.0266-.3398-.2604-.4296-.5066-.1944-.7889.0198-.5454.4138.2197.3555.5913.3627.8058.0157zm-.2799-1.4103c.7322-.5354.4234-1.0806-.318-.5614-.5864.4107-.7958.9152-.3799.9152.1177 0 .4318-.1592.6979-.3538zm-189.5-1.2822c-.4042-.4042-.7024-.1059-.4782.4782.1323.3449.2471.3791.4825.1437s.2344-.3833-.004-.6219zm3.3823-1.2694c0-.317-1.2774-.6679-1.526-.4193-.2299.2299.4627.6695 1.063.6748.2547.002.463-.1127.463-.2555zm185.61-1.5827c-.1646-1.1966-.2566-1.3526-.7558-1.2815-.3775.0538-.5417.2394-.4888.5525.0661.3911-.0466.4417-.6615.2966-.5619-.1326-.6708-.0995-.4506.1366.1598.1713.6361.3374 1.0583.3691.6641.0498.7793.1777.8532.9469.0588.6123.1706.8041.359.6158.1687-.1687.2017-.7956.0861-1.636zm-180.31.9162c0-.2183-.1786-.3969-.3969-.3969-.4132 0-.5249.3129-.2205.6174.3044.3044.6174.1927.6174-.2205zm12.171.1558.6615-.1883-.5779-.3145c-.7807-.4249-1.9356-.402-1.9356.0383 0 .7153.5162.8448 1.8521.4645zm3.2852-.9875c.0918-.2391.1074-.4942.0347-.5669-.2106-.2106-.9482.5075-.7878.767.227.3674.5704.2761.7531-.2001zm4.0625-.0448c.0576-.1728-.0838-.3142-.3142-.3142-.2304 0-.4189.1885-.4189.4189 0 .4672.5696.3859.7331-.1047zm5.7506-.0512c.2642-.2919.4024-.6087.3072-.7039-.1929-.193-1.2347.6602-1.2347 1.0111 0 .3863.4283.2444.9275-.3072zm2.1152-.2666c0-.2163-.2679-.4313-.5953-.4778-.5791-.0822-.8264.4267-.4098.8434.3083.3083 1.0051.0548 1.0051-.3655zm2.2076-.674c-.1438-.7419-.7524-.7824-.7524-.05 0 .3517.0814.7208.1808.8202.2809.2809.673-.2473.5716-.7702zm1.0019.2753c-.0897-.2338-.2888-.3474-.4424-.2524-.1918.1186-.1806.2916.0358.5523.3845.4632.6299.2822.4066-.2999zm3.5373-.1113c0-.3573-.4823-.605-.7981-.4098-.1479.0914-.2004.277-.1167.4125.1986.3214.9147.3193.9147-.003zm10.583-.2646c0-.3122-.516-.6461-.7056-.4566-.1895.1895.1444.7056.4566.7056.1369 0 .249-.112.249-.249zm1.7495-.6853c.584-.8913.2054-1.2231-.4388-.3847-.5646.7348-.6429 1.0544-.2585 1.0544.1422 0 .4559-.3014.6973-.6697zm1.4255.4051c0-.1455-.112-.2646-.249-.2646-.1369 0-.3226.1191-.4125.2646-.0899.1455.0221.2646.249.2646s.4125-.1191.4125-.2646zm8.0698-.2866c0-.2122-.3156-.4111-.7276-.4585-.8262-.0951-1.0558.6218-.2646.8257.6761.1743.9922.0573.9922-.3672zm-6.107.126c.4324-.1659.5913-.8977.1949-.8977-.123 0-.4391.2381-.7025.5292-.4785.5287-.2819.6715.5075.3686zm3.5935-.104c0-.1455-.1786-.2646-.3969-.2646-.2183 0-.3969-.1659-.3969-.3686 0-.4241-.7163-.7688-1.1021-.5304-.3665.2265.8222 1.4282 1.4128 1.4282.2657 0 .483-.1191.483-.2646zm6.0854-.4158c0-.401-.5967-1.1717-.9071-1.1717-.279 0-.1547.949.1663 1.27.4376.4376.7408.3974.7408-.0983zm3.3987-.2319c.0585-.3016-.0369-.4289-.2646-.353-.1958.0652-.3971.3307-.4474.5901-.0585.3016.0369.4288.2646.353.1958-.0652.3971-.3307.4474-.5901zm5.2003.0965c0-.2062-.2037-.3591-.4526-.3398-.249.0193-.4432-.0403-.4317-.1323.0619-.4943-.084-.5939-.4386-.2996-.501.4158-.5211 1.0894-.0268.8997.2036-.0781.4526-.009.5534.1546.2417.391.7963.1942.7963-.2826zm5.1594.1543c0-.2183-.1786-.3969-.3969-.3969s-.3969.1786-.3969.3969c0 .2183.1786.3969.3969.3969s.3969-.1786.3969-.3969zm-7.4994-.5426c.9796-.7471 1.131-1.1772.4146-1.1772-.7126 0-1.6464.7589-1.6464 1.3379 0 .6715.1696.6494 1.2318-.1608zm4.203.1282c.2882-.4663-.0156-.5317-.5594-.1204-.4476.3387-.4553.3867-.0625.3941.2461.005.5259-.1186.6218-.2738zm-8.9657-.6324c-.0862-.2245-.3575-.4083-.6029-.4083-.4072 0-.4042.0464.0342.5308.5264.5817.8151.5195.5687-.1225zm14.114.0988c0-.6448-.6183-.5537-.747.1101-.0506.2611.0843.4411.3307.4411.2454 0 .4163-.2262.4163-.5512zm1.9561.1327c.2801-.73.1845-.989-.2363-.6398-.4331.3594-.5392 1.0583-.1606 1.0583.13 0 .3085-.1883.3969-.4185zm13.854-.8383c.0597-.1819-.0911-.3307-.3351-.3307-.244 0-.506-.2381-.5821-.5292-.197-.7532-.8287-.655-1.0335.1607-.1144.4558-.0488.7708.1934.9284.4986.3245 1.6236.1778 1.7572-.2292zm89.627.1966c.0906-.1466-.0266-.3398-.2604-.4296-.5066-.1944-.7889.0198-.5454.4138.2197.3555.5913.3628.8058.0157zm-86.519-.2646c.0906-.1466-.0266-.3399-.2604-.4296-.5066-.1944-.7889.0198-.5454.4138.2197.3555.5913.3628.8058.0157zm-1.8729-.4392c.0931-.2426.0651-.5453-.0623-.6727-.2959-.2959-.9492.4652-.719.8376.2518.4074.589.3362.7813-.1649zm17.416-.3016c.6625-.5689.5713-.9272-.1984-.78-.4627.0884-.6615.01-.6615-.2621 0-.2329-.1556-.3288-.3884-.2394-.2136.082-.46.0332-.5474-.1083-.2047-.3312-.6516-.0586-.6516.3975 0 .1927.247.415.5488.4939.3018.0789.613.3891.6915.6894.146.5583.3772.5217 1.207-.1909zm-26.26-.0227c0-.13-.1786-.3048-.3969-.3886-.2417-.0928-.3969-.0004-.3969.2363 0 .2137.1786.3886.3969.3886s.3969-.1063.3969-.2363zm31.626-.1471c.6241-.2608.9175-.5569.9175-.926 0-.6469-.9898-.7645-1.2272-.1458-.0838.2183-.4414.3969-.7947.3969-.5605 0-.6063.0675-.3593.5292.3381.6317.308.6287 1.4637.1458zm65.74-.0135c0-.2205-.2352-.3969-.5292-.3969-.5856 0-.7169.4093-.1984.6185.5758.2323.7276.1861.7276-.2217zm-85.99-.5448c0-.384-.1145-.6063-.2646-.5135-.1455.0899-.2646.3946-.2646.6771 0 .2825.1191.5135.2646.5135s.2646-.3047.2646-.6771zm6.748.4106c.0906-.1466-.0266-.3398-.2604-.4296-.5066-.1944-.7889.0198-.5454.4138.2197.3555.5913.3627.8058.0157zm-1.8825-.4142c.1113-.2902.0265-.3903-.2805-.3307-.2421.047-.4897.2342-.5503.4161-.162.4865.6431.4038.8308-.0854zm19.741-.5339c0-.7203-.6674-1.1343-1.112-.6897-.2006.2006-.157.4085.1501.7155.238.238.4328.5504.4328.6941 0 .1437.1191.1877.2646.0978.1455-.0899.2646-.4579.2646-.8177zm-13.224.2821c.1841-.2218.2633-.4746.1761-.5618-.271-.271-.9751.1334-.9751.5599 0 .5182.3698.5191.7991.002zm16.134-.2802c0-.8289-.6214-.7381-.746.1089-.0561.3816.0549.5746.3307.5746.2702 0 .4153-.2389.4153-.6835zm-19.315.022c0-.2183-.1786-.3969-.3969-.3969s-.3969.1786-.3969.3969.1786.3969.3969.3969.3969-.1786.3969-.3969zm20.902.0156c0-.4214-.48-.8144-.7117-.5827-.2177.2177.1221.9639.4389.9639.1501 0 .2729-.1716.2729-.3813zm3.7163-.1706c.1624-.3035.2313-.6159.153-.6942-.2475-.2475-.9131.1369-1.2155.7019-.2487.4648-.2141.5441.238.5441.291 0 .6621-.2483.8245-.5518zm52.315.0723c.0576-.1728-.0838-.3142-.3142-.3142-.2304 0-.4189.1885-.4189.4189 0 .4672.5696.3859.7331-.1047zm-53.121-.8277c0-.3573-.4823-.605-.7981-.4098-.1479.0914-.2004.277-.1167.4125.1986.3214.9147.3193.9147-.003zm12.039-.2361c0-.4785-.5179-.3912-.6206.1047-.0572.2759.042.3968.2646.3227.1958-.0653.356-.2576.356-.4274zm4.7625-.0477c0-.5671-.7688-.4852-.8803.0938-.0681.3536.0397.4613.3932.3932.2679-.0516.487-.2708.487-.487zm-1.4552-.3776c0-.427-.3747-.7433-.6063-.5117-.2065.2065.078.893.37.893.13 0 .2363-.1716.2363-.3813zm3.6552-.214c.0607-.3203-.0814-.463-.4608-.463-.3017 0-.5486.1191-.5486.2646s-.1786.2646-.3969.2646-.3969.1266-.3969.2813c0 .4933 1.7062.1645 1.8032-.3475zm11.522-.0661c.0928-.2418.0005-.3969-.2363-.3969-.2137 0-.3886.1786-.3886.3969 0 .2183.1063.3969.2363.3969s.3048-.1786.3886-.3969zm-9.4884-.3528c0-.4785-.5179-.3912-.6206.1047-.0572.2759.042.3968.2646.3226.1958-.0653.356-.2576.356-.4273zm13.626-.318c0 .1506.1786.2739.3969.2739.6007 0 .4759-.4652-.253-.9427-.7436-.4872-1.2023-.32-1.2023.4385 0 .4409.083.4784.5292.2397.3588-.192.5292-.195.5292-.009zm16.075-1.1152c-.0597-.1819-.4498-.3706-.8669-.4194-.6659-.0779-.7159-.0376-.4102.3307.4134.4982 1.4348.5691 1.2771.0886z"/></g></g></svg>
