<?xml version="1.0" encoding="UTF-8" standalone="no"?>
<svg
   inkscape:version="1.1.1 (3bf5ae0d25, 2021-09-20)"
   sodipodi:docname="StempelNichtWitzigKlein.svg"
   id="svg8"
   version="1.1"
   viewBox="0 0 266.77209 81.723082"
   height="81.723083mm"
   width="266.77209mm"
   xmlns:inkscape="http://www.inkscape.org/namespaces/inkscape"
   xmlns:sodipodi="http://sodipodi.sourceforge.net/DTD/sodipodi-0.dtd"
   xmlns="http://www.w3.org/2000/svg"
   xmlns:svg="http://www.w3.org/2000/svg"
   xmlns:rdf="http://www.w3.org/1999/02/22-rdf-syntax-ns#"
   xmlns:cc="http://creativecommons.org/ns#"
   xmlns:dc="http://purl.org/dc/elements/1.1/">
  <defs
     id="defs2" />
  <sodipodi:namedview
     inkscape:document-rotation="0"
     fit-margin-bottom="0"
     fit-margin-right="0"
     fit-margin-left="0"
     fit-margin-top="0"
     inkscape:window-maximized="1"
     inkscape:window-y="0"
     inkscape:window-x="0"
     inkscape:window-height="1018"
     inkscape:window-width="1920"
     showgrid="false"
     inkscape:current-layer="g3967"
     inkscape:document-units="mm"
     inkscape:cy="133.34014"
     inkscape:cx="468.71078"
     inkscape:zoom="0.98994949"
     inkscape:pageshadow="2"
     inkscape:pageopacity="0.0"
     borderopacity="1.0"
     bordercolor="#666666"
     pagecolor="#ffffff"
     id="base"
     inkscape:pagecheckerboard="1" />
  <metadata
     id="metadata5">
    <rdf:RDF>
      <cc:Work
         rdf:about="">
        <dc:format>image/svg+xml</dc:format>
        <dc:type
           rdf:resource="http://purl.org/dc/dcmitype/StillImage" />
      </cc:Work>
    </rdf:RDF>
  </metadata>
  <g
     transform="translate(269.20245,-415.41018)"
     id="layer1"
     inkscape:groupmode="layer"
     inkscape:label="Ebene 1">
    <g
       style="stroke-width:0.73702037;fill:#e11919;fill-opacity:1"
       transform="matrix(1.3568146,0,0,1.3568146,140.21835,-151.71425)"
       id="g3967">
      <path
         inkscape:connector-curvature="0"
         id="path3981"
         d="m -298.62114,478.01558 c -0.0957,-0.15487 -0.29218,-1.51153 -0.4366,-3.0148 -0.23758,-2.47315 -1.89694,-30.37395 -2.24752,-37.79052 -0.0791,-1.67349 -0.21187,-4.06935 -0.29501,-5.32415 l -0.15119,-2.28144 1.41449,-0.16936 c 3.01332,-0.36081 13.74607,-0.96753 16.89261,-0.95494 1.81901,0.007 4.14073,-0.10577 5.15938,-0.25121 2.10001,-0.29985 12.52871,-0.96543 33.3375,-2.12766 7.85812,-0.4389 17.97844,-1.03327 22.48958,-1.32082 4.51115,-0.28755 11.59537,-0.7072 15.74271,-0.93257 13.75692,-0.74754 48.13512,-2.82145 54.62476,-3.29531 2.21225,-0.16153 3.53791,-0.15898 3.73813,0.007 0.20138,0.16713 0.55325,0.16509 1.00272,-0.006 0.38087,-0.1448 3.52074,-0.44273 6.9775,-0.66206 3.45676,-0.21934 11.98836,-0.76567 18.9591,-1.21409 11.05523,-0.71115 12.72296,-0.76642 13.05666,-0.43272 0.51205,0.51205 0.73861,2.7851 1.38926,13.93786 0.30138,5.16599 0.84104,14.15521 1.19925,19.97604 0.69679,11.32277 0.78456,14.30703 0.42724,14.52786 -0.42353,0.26175 -43.08024,2.85963 -45.41524,2.76587 -0.72761,-0.0292 -2.63261,0.0906 -4.23334,0.26624 -1.60073,0.17564 -8.32776,0.66217 -14.94895,1.08117 -10.2521,0.64876 -12.14652,0.70918 -12.76615,0.40718 -0.61906,-0.30173 -0.7276,-0.29845 -0.7276,0.022 0,0.20713 -0.14883,0.37683 -0.33073,0.37712 -0.1819,2.6e-4 -5.9862,0.35321 -12.89844,0.78428 -6.91224,0.43106 -15.42521,0.9074 -18.91771,1.05853 -3.4925,0.15113 -7.54063,0.39327 -8.99583,0.53809 -1.45521,0.14481 -6.09865,0.44855 -10.31875,0.67497 -4.22011,0.22643 -9.10167,0.52163 -10.84792,0.65602 -4.13387,0.31812 -8.24769,0.32135 -8.83518,0.007 -0.3092,-0.16548 -0.81526,-0.13068 -1.50396,0.10343 -1.06321,0.36142 -5.71426,0.72496 -23.79211,1.85968 -14.51588,0.91114 -18.53846,1.06712 -18.74866,0.72702 z m 17.42574,-5.21907 c 4.36563,-0.21736 8.41375,-0.45673 8.99584,-0.53196 0.97834,-0.12642 12.40227,-0.76349 26.06145,-1.45335 3.1287,-0.15801 8.0698,-0.46214 10.98021,-0.67585 9.76645,-0.71713 12.41092,-0.87576 17.33021,-1.0396 2.69214,-0.0897 6.74026,-0.33123 8.99583,-0.5368 2.25558,-0.20557 7.61339,-0.56 11.90626,-0.78761 4.29286,-0.22761 10.42458,-0.5901 13.62604,-0.80554 3.20146,-0.21543 9.27364,-0.57129 13.49375,-0.79081 4.2201,-0.21951 9.03378,-0.51287 10.69706,-0.65191 1.99139,-0.16647 3.13244,-0.16292 3.34125,0.0104 0.21135,0.17541 0.57051,0.1663 1.0769,-0.0273 0.41788,-0.15976 2.84338,-0.39426 5.39,-0.52111 4.38956,-0.21864 7.96796,-0.43974 17.06562,-1.05443 2.18281,-0.14748 6.46906,-0.38485 9.525,-0.52749 7.686,-0.35876 12.05365,-0.78896 12.2125,-1.20292 0.0706,-0.18401 -0.11511,-4.48305 -0.41271,-9.55341 -0.29761,-5.07035 -0.66964,-11.54055 -0.82675,-14.3782 -0.1571,-2.83766 -0.39733,-6.46907 -0.53384,-8.06979 -0.13652,-1.60073 -0.24923,-3.83316 -0.25048,-4.96094 l -0.002,-2.05052 -3.63802,0.001 c -2.00091,6.9e-4 -6.49552,0.17998 -9.98802,0.39846 -3.4925,0.21847 -11.23156,0.69421 -17.19792,1.0572 -5.96635,0.36299 -12.45526,0.77541 -14.41979,0.91649 -1.96453,0.14108 -6.84609,0.44046 -10.84792,0.66529 -4.00182,0.22483 -18.30611,1.05966 -31.78731,1.85519 -13.4812,0.79553 -27.5901,1.62675 -31.35313,1.84717 -3.76302,0.22041 -9.81841,0.58995 -13.45643,0.82121 -3.63802,0.23125 -8.1624,0.38295 -10.05417,0.3371 -1.89177,-0.0458 -3.55865,-0.008 -3.70417,0.0839 -0.4772,0.3017 -2.52658,0.47908 -11.77396,1.01907 -12.99801,0.759 -25.23465,1.59203 -25.36969,1.72707 -0.0635,0.0635 0.0882,3.53914 0.33704,7.72372 0.24885,4.18457 0.74268,12.48988 1.0974,18.45623 0.35472,5.96636 0.71335,11.35394 0.79694,11.9724 l 0.15199,1.12448 2.29889,-0.001 c 1.26439,-4.1e-4 5.87077,-0.17868 10.23639,-0.39603 z m 3.39836,-7.28947 c -0.69473,-0.26242 -0.80721,-0.76228 -1.12811,-5.01344 -0.43114,-5.71172 -1.18305,-19.82853 -1.06254,-19.9487 0.0634,-0.0632 0.95715,-0.19778 1.98619,-0.29908 l 1.87098,-0.1842 2.46998,5.7201 c 1.35849,3.14606 2.64889,5.86802 2.86754,6.04881 0.41986,0.34713 0.41763,0.19136 -0.12444,-8.67893 -0.14005,-2.29182 -0.1003,-2.71974 0.28882,-3.10886 0.47039,-0.47039 2.63005,-0.6319 3.24253,-0.2425 0.30299,0.19263 1.11033,10.99536 1.56819,20.98324 l 0.17703,3.86175 -0.63351,0.16953 c -0.34844,0.0932 -1.13753,0.17116 -1.75354,0.17314 -1.32503,0.004 -1.20866,0.19209 -4.42414,-7.14014 -1.1168,-2.54661 -2.21584,-4.8088 -2.44232,-5.02708 -0.37163,-0.35818 -0.39615,-0.22918 -0.25144,1.32292 0.0882,0.94588 0.23409,3.68432 0.32422,6.08542 0.13026,3.47057 0.0904,4.45396 -0.19455,4.79651 -0.4276,0.51407 -1.98211,0.78323 -2.78089,0.48151 z m 3.79384,-16.17555 c -0.0845,-0.21107 -0.14716,-0.14837 -0.15985,0.15985 -0.0115,0.27892 0.051,0.43519 0.13896,0.34727 0.0879,-0.0879 0.0973,-0.31613 0.0209,-0.50712 z m 11.65418,13.17782 c -0.38682,-5.11462 -1.34506,-22.91169 -1.23899,-23.01134 0.0658,-0.0618 1.0712,-0.1554 2.23416,-0.20789 l 2.11446,-0.0954 0.58456,9.26042 c 0.32151,5.09323 0.62016,10.74869 0.66366,12.56771 l 0.0791,3.30729 -2.14386,0.0762 -2.14387,0.0762 z m 10.82326,1.31436 c -1.13422,-0.41929 -2.41537,-1.52448 -2.94016,-2.53632 -0.56669,-1.09267 -0.91613,-3.31268 -1.33171,-8.46063 -0.46823,-5.80014 -0.50022,-9.27245 -0.0987,-10.71857 0.61243,-2.20602 3.20027,-3.82426 6.13078,-3.83374 2.11747,-0.007 3.38129,0.53321 4.66245,1.99237 1.15668,1.31739 1.36622,1.96946 1.5378,4.78566 0.1677,2.75251 0.13999,2.79421 -2.06897,3.11431 -1.51054,0.21889 -1.68759,0.0293 -2.07845,-2.22524 -0.41356,-2.3855 -0.68434,-2.95386 -1.732,-3.63533 l -0.91107,-0.59263 -0.53368,0.57284 c -0.29352,0.31506 -0.61068,0.98331 -0.7048,1.48501 -0.29725,1.58444 0.44606,12.88925 0.98179,14.93176 0.27654,1.05435 0.86709,1.52586 1.91108,1.52586 1.02761,0 1.29726,-0.62131 1.49269,-3.43942 0.10071,-1.45223 0.27013,-2.72744 0.37649,-2.8338 0.10637,-0.10636 1.02044,-0.24012 2.03127,-0.29723 l 1.83788,-0.10385 v 3.43954 3.43953 l -0.85989,1.26825 c -0.49947,0.73665 -1.30351,1.49626 -1.91823,1.81224 -1.33728,0.68737 -4.32915,0.8474 -5.78452,0.30939 z m 12.01479,-0.92535 c -0.36317,-0.6786 -0.41228,-1.30388 -1.09881,-13.99278 -0.30153,-5.57307 -0.48188,-10.30581 -0.40076,-10.51719 0.11171,-0.29112 0.65377,-0.38434 2.23497,-0.38434 h 2.08749 l 0.17497,3.24115 c 0.0962,1.78263 0.24755,4.04482 0.33626,5.02708 l 0.16127,1.78594 h 1.78959 c 1.44036,0 1.82328,-0.0878 1.96222,-0.44986 0.0949,-0.24743 0.0396,-2.30126 -0.12289,-4.56406 -0.35219,-4.90294 -0.23959,-5.41586 1.24264,-5.66077 1.79096,-0.29591 2.9284,-0.20595 3.10156,0.24529 0.0883,0.23018 0.16228,1.56963 0.16434,2.97656 0.002,1.40693 0.17169,4.87977 0.37696,7.71742 0.65857,9.10401 0.7884,13.43836 0.41596,13.88712 -0.23733,0.28597 -0.84888,0.40039 -2.13999,0.40039 h -1.8077 l -0.13049,-0.8599 c -0.0718,-0.47294 -0.19935,-2.05052 -0.2835,-3.50573 -0.0842,-1.45521 -0.28116,-3.38997 -0.43782,-4.29948 l -0.28482,-1.65365 h -1.84722 -1.84723 l 0.16053,2.97657 c 0.0883,1.63711 0.2285,4.07789 0.31158,5.42396 l 0.15105,2.44739 -1.41376,0.004 c -0.77756,0.002 -1.67145,0.0727 -1.98641,0.15723 -0.41041,0.11008 -0.6569,-0.004 -0.86999,-0.40196 z m 19.1596,-1.09782 c -0.0955,-0.15453 -0.34252,-3.75617 -0.54892,-8.00364 -0.42008,-8.6448 -0.68998,-12.06981 -0.98929,-12.5541 -0.12321,-0.19935 -0.79922,-0.32795 -1.724,-0.32795 -1.99779,0 -2.45209,-0.3588 -2.61615,-2.06622 -0.12357,-1.28601 -0.0914,-1.37627 0.58096,-1.63192 0.39148,-0.14883 1.52041,-0.27061 2.50874,-0.27061 0.98834,0 3.36479,-0.13123 5.281,-0.29162 1.91621,-0.16039 3.77079,-0.21965 4.12129,-0.13168 0.80871,0.20298 1.02956,0.90601 0.80272,2.55535 l -0.17984,1.30753 h -1.95954 -1.95955 l 0.004,1.25678 c 0.002,0.69122 0.17838,3.9952 0.39119,7.34218 0.21282,3.34698 0.38949,7.663 0.39262,9.59115 l 0.006,3.50573 h -1.96876 c -1.10366,0 -2.04506,-0.12346 -2.14241,-0.28098 z m 20.79399,-1.42186 c -0.38654,-0.46575 -5.62124,-23.08073 -5.51446,-23.8236 0.0585,-0.40724 0.37069,-0.58528 1.33334,-0.76046 1.50516,-0.27391 2.45599,-0.079 2.70219,0.55389 0.0996,0.25591 0.52417,2.15467 0.9436,4.21946 0.41942,2.06479 1.02663,4.86276 1.34937,6.21771 0.54934,2.30638 0.59942,2.40447 0.78493,1.5375 0.10898,-0.50932 0.45186,-3.42635 0.76196,-6.48229 0.31011,-3.05593 0.60783,-5.69101 0.66162,-5.85572 0.0538,-0.1647 0.70798,-0.44585 1.45377,-0.62476 1.19778,-0.28734 1.41448,-0.27236 1.85738,0.12847 0.27577,0.24956 0.57616,0.82836 0.66753,1.28622 0.0914,0.45785 0.64969,2.97558 1.2407,5.59496 0.59102,2.61937 1.1322,5.03039 1.20263,5.35781 0.14402,0.66953 0.59554,0.81411 0.59554,0.19071 0,-1.33712 0.85326,-11.50579 1.02061,-12.1631 0.20035,-0.78691 0.21974,-0.79442 2.2507,-0.87128 l 2.0486,-0.0775 -0.14818,0.87128 c -0.0815,0.4792 -0.68504,5.97252 -1.3412,12.20739 -0.65616,6.23486 -1.3144,11.5629 -1.46275,11.8401 -0.21799,0.40732 -0.56626,0.504 -1.81553,0.504 -0.99105,0 -1.65447,-0.13096 -1.84863,-0.3649 -0.16656,-0.2007 -0.89488,-2.96231 -1.61849,-6.13693 -0.72361,-3.17462 -1.42704,-5.88342 -1.56319,-6.01957 -0.23572,-0.23572 -0.31697,0.0699 -0.67346,2.53337 -0.0685,0.47295 -0.31134,2.76331 -0.53976,5.0897 -0.50545,5.14764 -0.64038,5.42749 -2.6168,5.42749 -0.90842,0 -1.52984,-0.13631 -1.73202,-0.37992 z m 18.67476,-2.86122 c -0.0932,-1.20055 -0.40864,-6.17141 -0.70109,-11.04636 -0.29244,-4.87495 -0.60623,-9.60768 -0.69731,-10.51719 l -0.16559,-1.65364 h 2.27351 2.27351 l 0.14116,0.85989 c 0.28754,1.7516 0.60936,10.35816 0.41292,11.04308 -0.11187,0.39007 -0.10505,0.88497 0.0152,1.09977 0.34884,0.62335 0.77765,5.56262 0.77765,8.9574 0,3.57878 0.10092,3.43986 -2.49879,3.43986 h -1.66177 z m 10.84885,0.66145 c -0.19992,-1.05616 -0.43322,-4.46553 -0.73779,-10.78177 -0.14736,-3.05593 -0.32717,-6.41945 -0.39959,-7.47448 l -0.13167,-1.91823 h -1.95416 c -2.1772,0 -2.40694,-0.17003 -2.50281,-1.85235 -0.12018,-2.10904 -0.42314,-1.97298 5.29253,-2.37689 2.11005,-0.14911 4.69966,-0.34651 5.75469,-0.43868 l 1.91823,-0.16756 v 1.99001 c 0,1.84005 -0.0449,2.00203 -0.59532,2.14954 -1.02921,0.27582 -2.56176,0.18136 -3.51422,-0.21661 0.0127,0.6612 -1.63936,-0.43007 -0.91448,-0.102 8.39353,0.46121 0.85548,0.53743 0.92714,0.7632 0.0717,0.22576 0.25028,2.66662 0.39695,5.42414 0.14667,2.75751 0.37977,6.91866 0.518,9.247 0.13824,2.32833 0.25587,4.73935 0.2614,5.35781 l 0.0101,1.12448 h -2.09564 c -2.07639,0 -2.09691,-0.007 -2.23337,-0.72761 z m 9.96637,-1.03424 c 0.20602,-1.97107 2.06103,-8.49244 4.22435,-14.85084 1.40474,-4.12881 1.58814,-4.87547 1.25009,-5.08918 -0.2179,-0.13774 -1.6761,-0.25227 -3.24045,-0.2545 l -2.84427,-0.004 v -1.5875 c 0,-0.87312 -0.0298,-1.6768 -0.0661,-1.78594 -0.0892,-0.26758 2.26688,-0.50594 7.27604,-0.7361 l 4.16719,-0.19148 v 1.44626 c 0,1.57805 -0.65755,3.97424 -3.71217,13.52758 -1.60683,5.02537 -1.869,6.08604 -1.55735,6.30063 0.22435,0.15448 1.6223,0.19521 3.48358,0.10151 l 3.10885,-0.15651 v 1.94634 1.94634 l -4.43177,0.32753 c -2.43747,0.18014 -5.19486,0.39819 -6.12752,0.48454 l -1.69574,0.15702 z m 14.89469,-0.0241 c -0.37008,-1.21429 -1.2113,-15.36966 -1.30899,-22.02656 l -0.0408,-2.77813 1.92035,-0.0778 c 1.82321,-0.0738 1.93274,-0.0452 2.16497,0.56559 0.27602,0.726 1.02857,12.63701 1.26054,19.95126 l 0.15314,4.82864 h -2.00407 c -1.67849,0 -2.02699,-0.0752 -2.14517,-0.46302 z m 10.95165,-0.0334 c -2.08717,-0.6834 -3.50926,-2.0117 -3.94284,-3.68284 -0.76133,-2.93434 -1.38056,-16.47334 -0.82977,-18.14224 0.95458,-2.8924 4.67747,-4.79574 7.58217,-3.8764 2.63087,0.83267 3.77062,2.29689 4.46721,5.73894 0.6125,3.02645 0.45965,3.261 -2.12499,3.261 h -1.97506 l -0.006,-0.85989 c -0.01,-1.30777 -0.50301,-3.17773 -0.97589,-3.70026 -0.48846,-0.53974 -1.74266,-0.62018 -2.12353,-0.1362 -0.14314,0.1819 -0.33232,0.79873 -0.42039,1.37073 -0.20016,1.29994 0.27516,11.94377 0.62113,13.90896 0.30117,1.71076 1.03754,2.50313 2.09467,2.25395 1.14405,-0.26966 1.60738,-1.07609 1.57786,-2.74628 -0.0403,-2.27766 -0.25039,-2.76871 -1.27444,-2.97815 -0.48634,-0.0995 -0.98611,-0.34156 -1.11059,-0.538 -0.34179,-0.53934 -0.2789,-1.91498 0.11198,-2.44954 0.47068,-0.64369 2.33163,-0.96933 4.4557,-0.77968 l 1.75939,0.15709 0.17289,1.38378 c 0.32065,2.56638 0.61354,9.72029 0.42674,10.42336 -0.22641,0.85217 -1.10428,1.04523 -2.02112,0.44448 -0.61446,-0.40261 -0.71483,-0.38819 -1.82431,0.26201 -1.25706,0.73669 -3.48038,1.06498 -4.64033,0.68518 z"
         style="fill:#e11919;fill-opacity:1;stroke-width:0.73702"
         sodipodi:nodetypes="ccccccccsscsccssssssssssscssssccssccccsscsssssssssssssscccsssssssccsscssccccsccccscsssscccsscccscccccccccssccccccsccssssscsssssssccccccccsssccccsccsccssscccsccccsccccccsssscssssccccsccsccscscscssssscssssccssssssscsssscsscccsscssccssscsssscsscccssccssscssccscscsssscccsscccsccsscscccsssssccssssscsssscsssscc" />
    </g>
  </g>
</svg>
