<svg xmlns="http://www.w3.org/2000/svg" width="111.221" height="9mm" version="1.1" viewBox="0 0 29.427 9"><g><g fill="#e11919" stroke-width=".737"><path fill="#e11919" stroke-width=".737" d="m-298.62 478.02c-.0957-.1549-.2922-1.5115-.4366-3.0148-.2376-2.4732-1.8969-30.374-2.2475-37.791-.0791-1.6735-.2119-4.0694-.295-5.3242l-.1512-2.2814 1.4145-.1694c3.0133-.3608 13.746-.9675 16.893-.9549 1.819.007 4.1407-.1058 5.1594-.2512 2.1-.2999 12.529-.9654 33.338-2.1277 7.8581-.4389 17.978-1.0333 22.49-1.3208 4.5112-.2875 11.595-.7072 15.743-.9326 13.757-.7475 48.135-2.8214 54.625-3.2953 2.2122-.1615 3.5379-.159 3.7381.007.2014.1671.5533.1651 1.0027-.006.3809-.1448 3.5207-.4427 6.9775-.6621 3.4568-.2193 11.988-.7657 18.959-1.2141 11.055-.7111 12.723-.7664 13.057-.4327.5121.5121.7386 2.7851 1.3893 13.938.3014 5.166.841 14.155 1.1992 19.976.6968 11.323.7846 14.307.4272 14.528-.4235.2617-43.08 2.8596-45.415 2.7659-.7276-.0292-2.6326.0906-4.2333.2662s-8.3278.6622-14.949 1.0812c-10.252.6488-12.147.7092-12.766.4072-.6191-.3017-.7276-.2984-.7276.022 0 .2071-.1488.3768-.3307.3771-.1819.0003-5.9862.3532-12.898.7843-6.9122.4311-15.425.9074-18.918 1.0585s-7.5406.3933-8.9958.5381c-1.4552.1448-6.0986.4486-10.319.675-4.2201.2264-9.1017.5216-10.848.656-4.1339.3181-8.2477.3214-8.8352.007-.3092-.1655-.8153-.1307-1.504.1034-1.0632.3614-5.7143.725-23.792 1.8597-14.516.9111-18.538 1.0671-18.749.727zm17.426-5.2191c4.3656-.2174 8.4138-.4567 8.9958-.532.9783-.1264 12.402-.7635 26.061-1.4534 3.1287-.158 8.0698-.4621 10.98-.6758 9.7664-.7171 12.411-.8758 17.33-1.0396 2.6921-.0897 6.7403-.3312 8.9958-.5368 2.2556-.2056 7.6134-.56 11.906-.7876 4.2929-.2276 10.425-.5901 13.626-.8055 3.2015-.2154 9.2736-.5713 13.494-.7908 4.2201-.2195 9.0338-.5129 10.697-.6519 1.9914-.1665 3.1324-.1629 3.3412.0104.2114.1754.5705.1663 1.0769-.0273.4179-.1598 2.8434-.3943 5.39-.5211 4.3896-.2186 7.968-.4397 17.066-1.0544 2.1828-.1475 6.4691-.3849 9.525-.5275 7.686-.3588 12.054-.789 12.212-1.2029.0706-.184-.1151-4.483-.4127-9.5534-.2976-5.0704-.6696-11.541-.8267-14.378-.1571-2.8377-.3973-6.4691-.5338-8.0698-.1365-1.6007-.2492-3.8332-.2505-4.9609l-.002-2.0505-3.638.001c-2.0009.0007-6.4955.18-9.988.3985-3.4925.2185-11.232.6942-17.198 1.0572-5.9664.363-12.455.7754-14.42.9165s-6.8461.4405-10.848.6653c-4.0018.2248-18.306 1.0597-31.787 1.8552s-27.59 1.6268-31.353 1.8472c-3.763.2204-9.8184.5899-13.456.8212-3.638.2313-8.1624.383-10.054.3371-1.8918-.0458-3.5586-.008-3.7042.0839-.4772.3017-2.5266.4791-11.774 1.0191-12.998.759-25.235 1.592-25.37 1.7271-.0635.0635.0882 3.5391.337 7.7237.2488 4.1846.7427 12.49 1.0974 18.456.3547 5.9664.7134 11.354.7969 11.972l.152 1.1245 2.2989-.001c1.2644-.0004 5.8708-.1787 10.236-.396zm3.3984-7.2895c-.6947-.2624-.8072-.7623-1.1281-5.0134-.4311-5.7117-1.183-19.829-1.0625-19.949.0634-.0632.9571-.1978 1.9862-.2991l1.871-.1842 2.47 5.7201c1.3585 3.1461 2.6489 5.868 2.8675 6.0488.4199.3471.4176.1914-.1244-8.6789-.1401-2.2918-.1003-2.7197.2888-3.1089.4704-.4704 2.63-.6319 3.2425-.2425.303.1926 1.1103 10.995 1.5682 20.983l.177 3.8618-.6335.1695c-.3484.0932-1.1375.1712-1.7535.1731-1.325.004-1.2087.1921-4.4241-7.1401-1.1168-2.5466-2.2158-4.8088-2.4423-5.0271-.3716-.3582-.3962-.2292-.2514 1.3229.0882.9459.2341 3.6843.3242 6.0854.1303 3.4706.0904 4.454-.1946 4.7965-.4276.5141-1.9821.7832-2.7809.4815zm3.7938-16.176c-.0845-.2111-.1472-.1484-.1598.1598-.0115.2789.051.4352.139.3473.0879-.0879.0973-.3161.0209-.5071zm11.654 13.178c-.3868-5.1146-1.3451-22.912-1.239-23.011.0658-.0618 1.0712-.1554 2.2342-.2079l2.1145-.0954.5846 9.2604c.3215 5.0932.6202 10.749.6637 12.568l.0791 3.3073-4.2877.1524zm10.823 1.3144c-1.1342-.4193-2.4154-1.5245-2.9402-2.5363-.5667-1.0927-.9161-3.3127-1.3317-8.4606-.4682-5.8001-.5002-9.2724-.0987-10.719.6124-2.206 3.2003-3.8243 6.1308-3.8337 2.1175-.007 3.3813.5332 4.6624 1.9924 1.1567 1.3174 1.3662 1.9695 1.5378 4.7857.1677 2.7525.14 2.7942-2.069 3.1143-1.5105.2189-1.6876.0293-2.0784-2.2252-.4136-2.3855-.6843-2.9539-1.732-3.6353l-.9111-.5926-.5337.5728c-.2935.3151-.6107.9833-.7048 1.485-.2973 1.5844.4461 12.889.9818 14.932.2765 1.0544.8671 1.5259 1.9111 1.5259 1.0276 0 1.2973-.6213 1.4927-3.4394.1007-1.4522.2701-2.7274.3765-2.8338.1064-.1064 1.0204-.2401 2.0313-.2972l1.8379-.1038v6.8791l-.8599 1.2682c-.4995.7367-1.3035 1.4963-1.9182 1.8122-1.3373.6874-4.3292.8474-5.7845.3094zm12.015-.9254c-.3632-.6786-.4123-1.3039-1.0988-13.993-.3015-5.5731-.4819-10.306-.4008-10.517.1117-.2911.6538-.3843 2.235-.3843h2.0875l.175 3.2412c.0962 1.7826.2475 4.0448.3363 5.0271l.1613 1.7859h1.7896c1.4404 0 1.8233-.0878 1.9622-.4499.0949-.2474.0396-2.3013-.1229-4.5641-.3522-4.9029-.2396-5.4159 1.2426-5.6608 1.791-.2959 2.9284-.2059 3.1016.2453.0883.2302.1623 1.5696.1643 2.9766.002 1.4069.1717 4.8798.377 7.7174.6586 9.104.7884 13.438.416 13.887-.2373.286-.8489.4004-2.14.4004h-1.8077l-.1305-.8599c-.0718-.4729-.1993-2.0505-.2835-3.5057-.0842-1.4552-.2812-3.39-.4378-4.2995l-.2848-1.6536h-3.6944l.1605 2.9766c.0883 1.6371.2285 4.0779.3116 5.424l.151 2.4474-1.4138.004c-.7776.002-1.6714.0727-1.9864.1572-.4104.1101-.6569-.004-.87-.402zm19.16-1.0978c-.0955-.1545-.3425-3.7562-.5489-8.0036-.4201-8.6448-.69-12.07-.9893-12.554-.1232-.1993-.7992-.328-1.724-.328-1.9978 0-2.4521-.3588-2.6162-2.0662-.1236-1.286-.0914-1.3763.581-1.6319.3915-.1488 1.5204-.2706 2.5087-.2706.9883 0 3.3648-.1312 5.281-.2916s3.7708-.2197 4.1213-.1317c.8087.203 1.0296.906.8027 2.5554l-.1798 1.3075h-3.9191l.004 1.2568c.002.6912.1784 3.9952.3912 7.3422.2128 3.347.3895 7.663.3926 9.5912l.006 3.5057h-1.9688c-1.1037 0-2.0451-.1235-2.1424-.281zm20.794-1.4219c-.3865-.4657-5.6212-23.081-5.5145-23.824.0585-.4072.3707-.5853 1.3333-.7605 1.5052-.2739 2.456-.079 2.7022.5539.0996.2559.5242 2.1547.9436 4.2195.4194 2.0648 1.0266 4.8628 1.3494 6.2177.5493 2.3064.5994 2.4045.7849 1.5375.109-.5093.4519-3.4264.762-6.4823.3101-3.0559.6078-5.691.6616-5.8557.0538-.1647.708-.4459 1.4538-.6248 1.1978-.2873 1.4145-.2724 1.8574.1285.2758.2496.5762.8284.6675 1.2862.0914.4578.6497 2.9756 1.2407 5.595.591 2.6194 1.1322 5.0304 1.2026 5.3578.144.6695.5955.8141.5955.1907 0-1.3371.8533-11.506 1.0206-12.163.2004-.7869.2197-.7944 2.2507-.8713l2.0486-.0775-.1482.8713c-.0815.4792-.685 5.9725-1.3412 12.207-.6562 6.2349-1.3144 11.563-1.4628 11.84-.218.4073-.5663.504-1.8155.504-.991 0-1.6545-.131-1.8486-.3649-.1666-.2007-.8949-2.9623-1.6185-6.1369s-1.427-5.8834-1.5632-6.0196c-.2357-.2357-.317.0699-.6735 2.5334-.0685.4729-.3113 2.7633-.5398 5.0897-.5054 5.1476-.6404 5.4275-2.6168 5.4275-.9084 0-1.5298-.1363-1.732-.3799zm18.675-2.8612c-.0932-1.2006-.4086-6.1714-.7011-11.046-.2924-4.875-.6062-9.6077-.6973-10.517l-.1656-1.6536h4.547l.1412.8599c.2875 1.7516.6094 10.358.4129 11.043-.1119.3901-.1051.885.0152 1.0998.3488.6233.7776 5.5626.7776 8.9574 0 3.5788.1009 3.4399-2.4988 3.4399h-1.6618zm10.849.6614c-.1999-1.0562-.4332-4.4655-.7378-10.782-.1474-3.0559-.3272-6.4194-.3996-7.4745l-.1317-1.9182h-1.9542c-2.1772 0-2.4069-.17-2.5028-1.8524-.1202-2.109-.4231-1.973 5.2925-2.3769 2.11-.1491 4.6997-.3465 5.7547-.4387l1.9182-.1676v1.99c0 1.84-.0449 2.002-.5953 2.1495-1.0292.2758-2.5618.1814-3.5142-.2166.0127.6612-1.6394-.4301-.9145-.102 8.3935.4612.8555.5374.9271.7632.0717.2258.2503 2.6666.397 5.4241s.3798 6.9187.518 9.247c.1382 2.3283.2559 4.7394.2614 5.3578l.0101 1.1245h-2.0956c-2.0764 0-2.0969-.007-2.2334-.7276zm9.9664-1.0342c.206-1.9711 2.061-8.4924 4.2244-14.851 1.4047-4.1288 1.5881-4.8755 1.2501-5.0892-.2179-.1377-1.6761-.2523-3.2404-.2545l-2.8443-.004v-1.5875c0-.8731-.0298-1.6768-.0661-1.7859-.0892-.2676 2.2669-.5059 7.276-.7361l4.1672-.1915v1.4463c0 1.578-.6575 3.9742-3.7122 13.528-1.6068 5.0254-1.869 6.086-1.5574 6.3006.2243.1545 1.6223.1952 3.4836.1015l3.1088-.1565v3.8927l-4.4318.3275c-2.4375.1801-5.1949.3982-6.1275.4845l-1.6957.157zm14.895-.0241c-.3701-1.2143-1.2113-15.37-1.309-22.027l-.0408-2.7781 1.9204-.0778c1.8232-.0738 1.9327-.0452 2.165.5656.276.726 1.0286 12.637 1.2605 19.951l.1531 4.8286h-2.0041c-1.6785 0-2.027-.0752-2.1452-.463zm10.952-.0334c-2.0872-.6834-3.5093-2.0117-3.9428-3.6828-.7613-2.9343-1.3806-16.473-.8298-18.142.9546-2.8924 4.6775-4.7957 7.5822-3.8764 2.6309.8327 3.7706 2.2969 4.4672 5.7389.6125 3.0264.4597 3.261-2.125 3.261h-1.9751l-.006-.8599c-.01-1.3078-.503-3.1777-.9759-3.7003-.4885-.5397-1.7427-.6202-2.1235-.1362-.1431.1819-.3323.7987-.4204 1.3707-.2002 1.2999.2752 11.944.6211 13.909.3012 1.7108 1.0375 2.5031 2.0947 2.254 1.144-.2697 1.6074-1.0761 1.5779-2.7463-.0403-2.2777-.2504-2.7687-1.2744-2.9782-.4863-.0995-.9861-.3416-1.1106-.538-.3418-.5393-.2789-1.915.112-2.4495.4707-.6437 2.3316-.9693 4.4557-.7797l1.7594.1571.1729 1.3838c.3206 2.5664.6135 9.7203.4267 10.423-.2264.8522-1.1043 1.0452-2.0211.4445-.6145-.4026-.7148-.3882-1.8243.262-1.2571.7367-3.4804 1.065-4.6403.6852z" transform="matrix(.11030873 0 0 .11030873 29.694537 -45.833539) matrix(1.3568,0,0,1.3568,140.22,-151.71)"/></g></g></svg>