<svg width="21.015959mm" height="9.5mm" version="1.1" viewBox="0 0 21.015958 9.4999998" xmlns="http://www.w3.org/2000/svg"><g transform="matrix(.12320468 0 0 .12320468 34.549019 -62.394619)"><path d="m-123.6 583.39c-2.5421-0.18757-19.096-1.1283-22.357-1.2704-6.8651-0.29933-35.892-1.7383-42.73-2.1183-3.8563-0.21429-12.965-0.6311-20.241-0.92626s-16.325-0.71265-20.108-0.92776c-3.7835-0.21512-11.701-0.63288-17.595-0.92837-12.706-0.63705-26.966-1.5117-30.295-1.8582-1.3097-0.13633-2.5842-0.24993-2.8323-0.25245-0.77126-8e-3 -0.82892-1.5491-0.37493-10.022 0.77431-14.45 1.4587-28.225 2.0066-40.386 0.61064-13.553 0.94567-17.876 1.4097-18.19 0.44457-0.30027 18.906 0.30535 26.382 0.86545 1.819 0.13628 6.7601 0.37111 10.98 0.52185 4.2201 0.15074 9.1017 0.39341 10.848 0.53926 1.7462 0.14586 6.8659 0.44289 11.377 0.66009 38.252 1.8416 38.709 1.8727 39.617 2.6941 0.43113 0.39017 0.53317 0.3993 0.74006 0.0662 0.39409-0.6345 3.4115-0.53788 50.131 1.6052 15.693 0.71983 15.92 0.73734 16.448 1.2655 0.38778 0.38778 0.4161 1.179 0.27145 7.5838-0.0888 3.933-0.40217 11.556-0.69633 16.94-0.29415 5.3843-0.77825 14.731-1.0758 20.77-0.29751 6.0391-0.71592 13.004-0.9298 15.478-0.21388 2.4738-0.38954 5.0713-0.39037 5.7721-3e-3 2.3407 0.0777 2.3043-4.9718 2.2515-2.4324-0.0254-4.9582-0.0858-5.6131-0.13407zm3.925-11.263c0.36675-5.3332 1.8375-34.466 1.9507-38.639 0.0594-2.1905 0.16971-2.9113 0.47428-3.0993 0.34896-0.21539 0.34414-0.29771-0.0399-0.68188-0.38745-0.38755-0.39492-0.53712-0.0661-1.324 0.40416-0.96731 0.46313-2.6405 0.20196-5.7302l-0.16869-1.9956-2.5433-0.17476c-1.3988-0.0961-4.2102-0.34373-6.2475-0.55026-3.9783-0.4033-11.599-0.75311-25.929-1.1902-4.9477-0.15092-11.734-0.44805-15.081-0.66029-3.347-0.21225-13.348-0.74452-22.225-1.1828-24.962-1.2326-26.087-1.3272-26.859-2.2571-0.29229-0.35219-0.36747-0.34699-0.65434 0.0453-0.29487 0.40325-0.96607 0.42754-7.4396 0.26916-7.8509-0.19208-16.517-0.58809-21.403-0.97806-4.8395-0.38625-22.094-0.89526-23.215-0.68485-0.72615 0.13628-1.0237 0.3414-1.1162 0.76953-0.23468 1.0858-1.528 25.499-2.6955 50.881-0.11828 2.5713-0.0823 3.7856 0.11564 3.9079 0.52251 0.32293 4.3389 0.66436 10.639 0.95182 3.4197 0.15603 7.6465 0.39963 9.3927 0.54134s7.5803 0.44103 12.965 0.66516c5.3843 0.22412 12.528 0.5786 15.875 0.78773s9.181 0.50588 12.965 0.65945 8.7246 0.39355 10.98 0.5333c2.2556 0.13974 8.0896 0.43895 12.965 0.66491s10.054 0.53714 11.509 0.69152 3.5983 0.3784 4.7625 0.49782c1.1642 0.11943 4.0812 0.22734 6.4823 0.2398 6.5859 0.0342 33.291 1.2293 33.58 1.5028 0.0606 0.0573 2.4507 0.10416 5.3113 0.10416h5.2011zm-31.971-6.2642c-2.3561-0.50694-4.283-1.8853-5.4721-3.9144-0.9251-1.5786-1.0293-3.8639-0.63722-13.977 0.35577-9.1772 0.65941-12.202 1.3985-13.931 0.63162-1.4779 2.9056-3.7224 4.5083-4.4498 2.3806-1.0805 6.995-0.42555 9.3851 1.3322 1.9316 1.4205 2.9883 4.6937 2.9883 9.2567 0 2.3911-0.47308 2.6276-4.4291 2.2142l-1.5963-0.16684-0.11336-2.4128c-0.14762-3.1419-0.78265-4.4946-2.3272-4.9574-1.8241-0.54651-2.4357 0.43907-2.8924 4.6612-0.46198 4.2702-0.87978 13.114-0.75855 16.056 0.15027 3.647 0.51174 4.2767 2.5232 4.3959 1.1701 0.0693 1.3994-5e-3 1.876-0.61139 0.70722-0.89908 1.1498-3.089 1.0502-5.196l-0.0795-1.6799-1.1625-0.15513c-1.4062-0.18766-1.8802-0.75163-1.8802-2.2372 0-1.5444 0.45389-2.6852 1.1411-2.8679 0.54861-0.14592 5.6585 0.20334 7.543 0.51557l0.87892 0.14561-0.17433 5.6068c-0.27282 8.775-0.49869 10.96-1.2114 11.719-0.85868 0.91402-1.8975 0.83455-2.713-0.20755l-0.65949-0.84267-1.8071 0.81979c-1.9453 0.88248-3.8981 1.2039-5.379 0.88523zm-28.707-1.8851c-9.0771-0.68045-9.1281-0.68845-9.1281-1.4313 0-0.95151 1.1861-4.8122 2.1979-7.1543 2.3376-5.4107 5.384-12.156 7.3202-16.209 1.1679-2.4447 2.1235-4.5858 2.1235-4.7579 0-0.57288-0.89899-0.78706-3.9688-0.94553-3.5951-0.1856-4.7004-0.50163-4.9281-1.4091-0.24081-0.95944 0.0234-3.4399 0.41691-3.914 0.41575-0.50095 3.4897-0.51673 10.72-0.055l4.7534 0.30356 0.24354 1.0332c0.43977 1.8657-0.70869 5.235-4.9237 14.445-5.9465 12.993-6.1579 13.545-5.3151 13.871 0.26867 0.10409 2.0871 0.3664 4.0409 0.58292s3.7681 0.50911 4.0318 0.65021c0.63341 0.33899 0.84073 1.2626 0.69038 3.0756-0.0939 1.1323-0.26624 1.6027-0.72252 1.9722-0.32957 0.26687-0.73485 0.47025-0.90063 0.45198-0.16578-0.0183-3.1589-0.24745-6.6514-0.50926zm11.878-4.2862c0.10168-2.6558 0.3502-7.2099 0.55227-10.12 0.20207-2.9104 0.51218-8.685 0.68913-12.832 0.20629-4.8351 0.42606-7.6121 0.61251-7.7398 0.15993-0.10956 1.5409-0.16909 3.0689-0.1323l2.7781 0.0669-0.0796 4.3656c-0.0438 2.4011-0.19063 6.1516-0.32627 8.3344s-0.36534 6.8858-0.51046 10.451c-0.14511 3.5653-0.337 7.7002-0.42642 9.1888l-0.16258 2.7065-0.9671 0.26862c-0.53191 0.14774-1.9675 0.26928-3.1902 0.27009l-2.2231 2e-3 0.18486-4.8286zm-33.839 3.0497c-1.2239-0.30084-1.2671-0.48416-1.0746-4.5644 0.0997-2.1137 0.41135-7.5341 0.69252-12.045 0.54669-8.7714 0.63208-12.502 0.29821-13.028-0.11442-0.18016-1.4818-0.5246-3.0387-0.76543l-2.8306-0.43786 3e-3 -1.4835c2e-3 -0.81595 0.0767-1.93 0.16691-2.4757l0.164-0.99218 4.794 5e-3c4.9089 6e-3 12.039 0.37299 13.279 0.68429l0.6936 0.17408-0.18716 2.4124c-0.10293 1.3268-0.2153 2.4439-0.24969 2.4824-0.0344 0.0385-1.3903 0.14601-3.0132 0.23886-2.2985 0.13151-2.9506 0.25216-2.9506 0.54589 0 0.20738-0.11963 1.7668-0.26584 3.4653s-0.50606 7.7317-0.79966 13.407-0.60555 10.714-0.69323 11.198c-0.10987 0.60583-0.36007 0.9553-0.80506 1.1245-0.66352 0.25227-3.2411 0.28556-4.1831 0.054zm-14.126-0.67109-2.4844-0.25735 0.17326-2.9458c0.0953-1.6202 0.40838-7.8273 0.69574-13.794 0.61233-12.713 1.0156-18.431 1.3226-18.751 0.29221-0.3041 5.4809-0.0893 5.7789 0.23925 0.26039 0.28706-0.0654 10.207-0.49065 14.94-0.15037 1.6735-0.4478 6.9122-0.66095 11.642-0.3387 7.5154-0.44439 8.6406-0.83867 8.9297-0.24811 0.18191-0.57719 0.31363-0.73128 0.29272-0.15409-0.0209-1.3981-0.15383-2.7645-0.29537zm-18.028-10.081c-0.636-5.186-1.2484-9.4291-1.361-9.4291-0.33334 0-1.1774 3.1343-2.8645 10.637-0.87379 3.886-1.5887 7.1305-1.5887 7.2099s-1.2311 0.14442-2.7358 0.14442h-2.7357l-0.437-3.1088c-0.49286-3.5062-3.2338-27.163-3.5059-30.259-0.13712-1.5601-0.096-2.0645 0.18248-2.2366 0.19773-0.12221 1.3777-0.27087 2.622-0.33037 1.8238-0.0872 2.3292-0.0279 2.6063 0.30603 0.22624 0.2726 0.61153 3.4261 1.127 9.2239 0.84729 9.5304 0.92044 10.096 1.2774 9.8753 0.24737-0.15289 1.4589-5.1124 3.072-12.575 0.51899-2.4011 1.1552-4.7823 1.4139-5.2917 0.45734-0.90053 0.51799-0.92818 2.2011-1.0036 1.2693-0.0569 1.837 0.0287 2.1291 0.32073 0.52072 0.52072 0.84186 2.4516 1.7961 10.799 0.82341 7.2032 0.972 8.1399 1.2912 8.1399 0.2783 0 0.91649-2.8283 2-8.8635 0.5225-2.9104 1.1924-6.3335 1.4888-7.6068l0.53876-2.3151h2.168c2.2519 0 3.3441 0.39847 3.3441 1.22 0 0.36813-5.8364 27.78-6.7213 31.568-0.55886 2.3923-0.8719 2.6284-3.7562 2.8332l-2.3958 0.17005z" fill="#00a800"/></g></svg>
