<svg xmlns="http://www.w3.org/2000/svg" xmlns:svg="http://www.w3.org/2000/svg" id="svg175" width="281.136" height="335.173" version="1.1" viewBox="0 0 74.384 88.681"><metadata id="metadata172"/><g id="layer1" transform="translate(-101.90332,-113.56406)"><path style="fill:#b8210b;stroke-width:.99999994" id="path3955-5" d="m 116.46612,201.67405 c 0.56053,-0.70774 2.28648,-2.27644 4.35393,-3.95724 2.27256,-1.84753 2.73985,-2.51787 4.14134,-5.94079 l 0.69176,-1.68946 -0.17326,-1.84971 c -0.39752,-4.24478 -0.82445,-5.59658 -2.18984,-6.93412 l -0.75678,-0.74132 -1.64183,0.14668 c -0.90301,0.0807 -2.45235,0.12307 -3.44305,0.0942 -1.71003,-0.0498 -1.84892,-0.0767 -2.74259,-0.53029 -1.40203,-0.71163 -2.5327,-1.67359 -2.95148,-2.51106 -0.33514,-0.67022 -0.35678,-0.84879 -0.35414,-2.92667 0.005,-2.20505 0.005,-2.2179 0.53539,-3.62192 0.29295,-0.77495 0.53258,-1.49085 0.53258,-1.59086 0,-0.27719 -0.2466,-0.33159 -3.2652,-0.7203 -1.54135,-0.19849 -2.89881,-0.38859 -3.0166,-0.42245 -0.11774,-0.0338 -0.77232,-0.12414 -1.45448,-0.20064 -1.99159,-0.22331 -2.82855,-0.80285 -2.82855,-1.95861 0,-0.96553 0.075,-1.05228 0.83442,-0.96591 1.6183,0.18403 2.77487,0.39967 4.30505,0.80265 1.53332,0.40382 1.7641,0.42763 3.49782,0.36092 1.82496,-0.0702 2.92271,-0.29902 3.03177,-0.6319 0.0937,-0.28617 -0.44517,-0.46159 -1.91049,-0.62187 -2.82073,-0.30856 -2.59956,-0.2416 -3.46453,-1.04894 -0.43863,-0.40938 -1.1373,-1.0223 -1.55268,-1.36206 -0.94996,-0.7771 -1.14896,-1.16614 -1.34165,-2.62321 -0.19371,-1.46498 -0.0559,-2.18422 0.82623,-4.31163 0.35818,-0.86375 1.0664,-2.59838 1.57389,-3.85473 0.50744,-1.25636 1.15824,-2.62984 1.44617,-3.05218 0.8245,-1.20935 2.19011,-2.24633 4.69507,-3.56526 1.24538,-0.65574 2.31373,-1.23834 2.37405,-1.29468 0.0603,-0.0563 0.2064,-0.65636 0.32457,-1.33339 0.3025,-1.73303 0.51607,-2.25341 1.58177,-3.85421 0.51644,-0.77578 0.91655,-1.42758 0.88914,-1.44846 -0.0275,-0.0209 -0.85288,-0.60061 -1.83441,-1.2883 -1.05485,-0.73905 -2.25167,-1.73516 -2.92676,-2.4359 -0.81301,-0.84392 -1.38897,-1.30299 -1.99877,-1.5931 -1.48118,-0.70472 -2.0402,-1.87369 -2.70579,-5.65792 -0.96647,-5.49517 -1.03948,-8.67609 -0.26856,-11.70331 0.22285,-0.8749 0.27908,-0.96362 0.61055,-0.96299 0.4592,8.7e-4 2.61892,0.97161 4.57674,2.05713 0.82444,0.45714 3.77463,2.34943 6.55591,4.20509 l 5.05687,3.37392 2.01015,2.31143 2.01012,2.31143 1.23182,2.61406 1.23182,2.61405 -0.33952,0.67341 c -0.31477,0.6243 -0.43356,1.11119 -0.27112,1.11119 0.0376,0 1.46708,0.25325 3.17658,0.56277 3.92611,0.71086 8.55946,1.43598 9.17562,1.43598 h 0.47219 l -0.0891,-1.66291 -0.0891,-1.6629 1.85669,-4.01915 1.85669,-4.01915 1.67271,-1.65521 1.6727,-1.6552 3.07019,-1.62142 c 4.00028,-2.11262 6.44675,-3.2789 11.49214,-5.47854 l 4.14027,-1.80503 1.35629,0.43776 c 1.37987,0.44537 2.65595,0.77716 3.5858,0.93235 l 0.51629,0.0862 0.23411,1.74701 0.23412,1.74701 -0.42864,1.11315 c -0.46499,1.20756 -0.97784,3.13813 -1.37248,5.16665 -0.23606,1.21336 -0.29634,1.34013 -1.0825,2.27652 -0.82963,0.98818 -0.8322,0.99412 -0.73939,1.71322 0.0512,0.39688 0.24009,1.33193 0.41971,2.07789 l 0.32658,1.3563 -0.55876,2.32629 c -0.76483,3.18429 -1.24306,3.85619 -3.13359,4.4026 -0.43187,0.12483 -0.83886,0.27669 -0.90442,0.33748 -0.0656,0.0608 0.17445,0.22267 0.53336,0.35974 1.42192,0.54304 1.28201,0.92352 -0.94976,2.58298 -2.58607,1.92291 -2.3156,1.82758 -5.30185,1.86863 -2.46704,0.0339 -3.07053,0.10481 -2.39532,0.28138 0.52372,0.13696 0.28323,0.36931 -0.93283,0.90131 -2.29259,1.00295 -4.44727,2.56424 -4.99166,3.61698 -0.31663,0.6123 -0.28229,2.38921 0.0805,4.16671 0.40675,1.99275 2.76577,9.98322 3.45625,11.70696 0.64157,1.60164 1.00597,2.25481 3.17552,5.69184 0.83607,1.3245 1.52011,2.49162 1.52011,2.59361 0,0.10199 -0.26902,0.27511 -0.59784,0.38472 -0.67042,0.22347 -0.84292,0.46964 -0.42258,0.60305 0.15411,0.0489 0.32371,0.19892 0.37688,0.33334 0.0532,0.13443 0.18747,2.1653 0.29843,4.51304 0.21368,4.52111 0.42635,5.94278 1.11267,7.43799 0.40028,0.87206 2.03481,3.05656 3.78983,5.06501 0.71872,0.82251 1.34469,1.64659 1.39105,1.8313 0.0953,0.37959 -0.20978,1.05964 -0.44206,0.98548 -0.0839,-0.0268 -0.35659,-0.39769 -0.60594,-0.82419 -2.35409,-4.02672 -3.5484,-5.36048 -5.79278,-6.4691 -1.52654,-0.75404 -2.62962,-1.03889 -4.54354,-1.17327 -1.6983,-0.11923 -2.03556,-0.0154 -3.58186,1.103 -1.07385,0.77666 -1.19467,0.83147 -1.23622,0.56072 -0.0808,-0.52633 0.85345,-3.00597 1.13255,-3.00597 0.0699,0 0.12704,0.31907 0.12704,0.70906 v 0.70906 l 0.8923,-0.61681 c 0.49077,-0.33924 1.37414,-0.89215 1.96306,-1.22868 1.40959,-0.80551 1.57045,-0.95892 1.57045,-1.49778 0,-0.54376 -0.83203,-3.61436 -1.3457,-4.9663 -0.46861,-1.23334 -1.27927,-2.8449 -2.20691,-4.3872 -0.63429,-1.05458 -0.85811,-1.57045 -0.6814,-1.57045 0.027,0 0.39639,0.11847 0.82092,0.26327 1.27405,0.43456 1.55709,0.48119 1.55709,0.2565 0,-0.47098 -2.76517,-2.18339 -3.26799,-2.02381 -0.1388,0.044 -0.47215,0.47599 -0.74078,0.95986 -0.26863,0.48386 -0.55765,0.90228 -0.64227,0.92981 -0.0846,0.0275 -0.2301,-0.11726 -0.32328,-0.32177 -0.22372,-0.49101 -0.4407,-0.39341 -0.83198,0.37421 -0.27549,0.54046 -0.44581,1.16582 -0.84309,3.09543 -0.0533,0.25909 -0.16247,0.32123 -0.5641,0.32123 -0.27388,0 -1.40586,0.1668 -2.5155,0.37067 -1.79699,0.33016 -2.28455,0.36416 -4.46049,0.31099 -2.33064,-0.057 -2.94266,-0.14029 -2.94266,-0.40071 0,-0.0642 0.49791,-0.41719 1.10645,-0.78433 0.60855,-0.36715 1.57224,-1.01594 2.14152,-1.44177 0.56929,-0.42583 1.03507,-0.73015 1.03507,-0.67626 0,0.0539 -0.201,0.41121 -0.44667,0.79405 -0.24567,0.38284 -0.40955,0.73319 -0.36419,0.77856 0.10312,0.10311 1.88401,-0.91662 3.02376,-1.73139 1.22028,-0.87234 2.16035,-1.74068 2.02931,-1.87447 -0.0617,-0.063 -0.50913,-0.008 -0.99425,0.12178 -0.48511,0.12998 -0.90667,0.21167 -0.9368,0.18154 -0.0301,-0.0301 0.48152,-0.40133 1.13701,-0.82489 0.65548,-0.42356 1.50178,-1.03913 1.88068,-1.36793 0.37888,-0.32879 0.74,-0.56621 0.80247,-0.5276 0.0625,0.0386 0.15337,0.2691 0.20199,0.51221 0.21689,1.08448 1.38517,-0.39682 1.49343,-1.89358 0.0644,-0.89073 -0.18761,-2.39722 -0.40106,-2.39722 -0.0663,0 -0.33373,0.27304 -0.59431,0.60676 -0.94337,1.20814 -1.34891,1.3039 -1.20921,0.28553 0.0512,-0.37298 0.12924,-1.12786 0.17348,-1.67752 l 0.0804,-0.99937 -0.29367,0.35692 -0.29366,0.35692 -0.003,-0.56196 c -0.006,-1.02316 0.83548,-3.71523 1.0835,-3.46722 0.0371,0.0371 0.20117,0.54118 0.36471,1.12028 0.16355,0.5791 0.37755,1.16796 0.47557,1.30858 0.16673,0.23918 0.18387,0.23458 0.26583,-0.0714 0.0482,-0.17988 0.0885,-0.91012 0.0896,-1.62277 0.002,-1.18531 0.0315,-1.32341 0.34797,-1.62078 l 0.34603,-0.32507 0.049,0.40726 c 0.049,0.40703 0.0492,0.40694 0.36545,-0.18918 0.17403,-0.32803 0.48371,-1.16323 0.68817,-1.85598 0.3311,-1.12179 0.36235,-1.41571 0.2857,-2.68736 -0.0879,-1.45784 -0.32716,-3.21971 -0.45461,-3.34716 -0.15579,-0.15579 -0.33662,0.38646 -0.33868,1.01564 -0.002,0.73502 -0.1158,1.153 -0.28449,1.04874 -0.0603,-0.0373 -0.15508,0.57345 -0.21063,1.35712 -0.0556,0.78367 -0.1555,1.42486 -0.22207,1.42486 -0.0666,0 -0.16498,-0.36942 -0.21866,-0.82092 -0.20125,-1.69256 -1.02728,-3.46211 -1.61614,-3.46211 -0.13804,0 -0.37569,0.0927 -0.52811,0.20594 -0.27136,0.20165 -0.26879,0.22097 0.12372,0.92799 0.43908,0.79091 0.29727,0.96015 -0.36682,0.43777 -0.56673,-0.44578 -1.68951,-0.87822 -2.34918,-0.90479 -0.54876,-0.0221 -0.66968,0.0427 -1.36856,0.73286 -0.98914,0.97685 -1.86163,1.26204 -4.27036,1.39588 l -1.76674,0.0982 -0.61854,-0.73879 c -0.3402,-0.40633 -0.59338,-0.76395 -0.56262,-0.79471 0.0308,-0.0308 0.47256,0.13062 0.98176,0.35864 1.69946,0.76098 2.4807,0.57011 5.49553,-1.34264 0.85963,-0.54538 1.49788,-0.83993 2.0511,-0.94658 1.35112,-0.26045 1.44558,-0.28763 1.44558,-0.41594 0,-0.22708 -0.92752,-0.30229 -1.78133,-0.14446 -0.4635,0.0857 -1.31463,0.34325 -1.8914,0.57236 -2.15987,0.858 -2.77635,0.83775 -4.46503,-0.14665 -0.5104,-0.29753 -1.26528,-0.65127 -1.67752,-0.78608 -0.41225,-0.13482 -0.74954,-0.30238 -0.74954,-0.37236 0,-0.1786 2.23227,-1.22434 3.05661,-1.43191 0.66278,-0.16689 3.00308,-0.10416 3.76056,0.1008 0.29047,0.0786 0.32123,0.0368 0.32123,-0.43591 0,-0.99067 -0.79897,-1.43524 -2.88273,-1.60406 -0.93399,-0.0757 -1.22811,-0.0404 -1.96771,0.23623 -0.47826,0.17886 -0.90408,0.29069 -0.94626,0.24851 -0.0422,-0.0422 0.45782,-0.34596 1.1111,-0.67508 l 1.18778,-0.5984 1.57045,0.0651 c 1.70914,0.0709 2.82593,0.38961 4.15734,1.1866 l 0.69677,0.41709 -0.53539,0.0443 c -0.67642,0.056 -0.68622,0.29335 -0.0357,0.86453 0.27482,0.2413 0.49969,0.50965 0.49969,0.59632 0,0.38263 0.54371,-0.006 1.06034,-0.75736 l 0.56307,-0.8192 0.35158,0.32124 0.35159,0.32123 -0.0926,-0.35692 c -0.0509,-0.19631 -0.12761,-0.6139 -0.17038,-0.92799 l -0.0778,-0.57107 0.38658,0.71384 c 0.21263,0.39261 0.49235,1.06703 0.62162,1.49872 0.24679,0.82417 0.43335,0.95932 1.095,0.79326 0.47617,-0.11951 1.04731,-1.34075 1.04921,-2.24347 0.002,-0.72604 -0.15864,-0.97161 -1.98694,-3.04664 -0.4843,-0.54965 -0.98198,-1.16633 -1.10596,-1.37039 l -0.22543,-0.37103 -3.18756,-0.0821 c -1.75317,-0.0452 -3.29876,-0.14436 -3.43467,-0.22042 -0.2064,-0.11551 -0.10746,-0.20877 0.60052,-0.56616 0.46619,-0.23533 1.00053,-0.5517 1.18741,-0.70303 0.29613,-0.23979 0.31752,-0.31678 0.16646,-0.59904 -0.24075,-0.44985 -0.11598,-0.5097 0.6282,-0.30134 0.69024,0.19325 0.8747,0.34324 0.95513,0.77669 0.0392,0.21142 0.45284,0.41217 1.78689,0.86731 1.9285,0.65795 2.45628,0.94091 2.42534,1.30026 -0.0134,0.15589 0.13217,0.28641 0.4074,0.36521 0.52092,0.14913 1.07075,0.0382 1.07075,-0.21602 0,-0.20489 -1.85642,-2.04016 -2.81966,-2.78753 -0.33371,-0.25893 -0.60676,-0.52842 -0.60676,-0.59888 0,-0.0737 0.83404,-0.0902 1.96579,-0.0387 1.66146,0.0756 2.03571,0.0533 2.41737,-0.14409 0.57374,-0.29669 2.42887,-1.89189 2.62384,-2.25621 0.14245,-0.26616 0.10253,-0.27236 -1.14542,-0.17815 -1.13382,0.0856 -1.293,0.0693 -1.293,-0.13224 0,-0.12642 0.59982,-1.01901 1.33293,-1.98354 1.26112,-1.6592 1.75649,-2.39615 1.61067,-2.39615 -0.0355,0 -0.37506,0.13466 -0.75456,0.29925 -1.17528,0.50975 -1.33243,0.55847 -1.33243,0.41308 0,-0.2474 1.06067,-0.84622 2.7937,-1.57725 2.21478,-0.93423 4.15372,-1.91391 6.05409,-3.0589 2.1115,-1.27221 2.10786,-1.27136 1.65823,-0.38407 -0.40508,0.79939 -0.47484,1.30976 -0.17903,1.30976 0.24882,0 1.70573,-1.01928 2.52211,-1.76451 1.08443,-0.98993 1.84492,-1.96058 2.61628,-3.33928 0.40632,-0.72624 0.81158,-1.32051 0.90057,-1.3206 0.25279,-2.4e-4 0.334,0.52082 0.33374,2.14136 -2.6e-4,1.81725 -0.15139,2.18967 -0.52831,1.30216 l -0.26218,-0.61735 -0.94647,1.00331 c -1.09248,1.15808 -2.11641,2.60579 -2.10745,2.97969 0.004,0.1773 0.29483,-0.0492 0.93161,-0.72618 0.509,-0.54112 0.96625,-0.94305 1.01612,-0.89318 0.27963,0.27963 -1.11542,4.62655 -2.17421,6.77472 -0.41391,0.83977 -0.72682,1.55322 -0.69535,1.58543 0.0315,0.0322 0.32086,-0.0204 0.6431,-0.11697 0.32224,-0.0965 0.62782,-0.13284 0.67907,-0.0806 0.17389,0.17708 -1.3282,1.3381 -2.83357,2.19017 -0.82448,0.46668 -2.31819,1.24024 -3.31935,1.71904 -1.00115,0.4788 -1.82029,0.9303 -1.82029,1.00332 0,0.14532 0.22371,0.22334 1.03006,0.35923 0.72869,0.1228 0.78547,0.30795 0.15794,0.51505 -0.96939,0.31993 -3.91283,-0.0375 -7.71963,-0.93731 -0.56659,-0.13393 -0.36309,0.30119 0.35693,0.76315 0.97156,0.62335 2.62571,1.35209 4.26014,1.8768 1.59611,0.51241 1.64592,0.51221 5.34099,-0.0223 2.79142,-0.40374 2.81791,-0.41615 1.89036,-0.88618 -0.41171,-0.20854 -0.74841,-0.46571 -0.74841,-0.5715 0,-0.22386 0.88767,-0.37392 2.21189,-0.37392 0.48792,0 1.28491,-0.0416 1.77109,-0.0924 0.69649,-0.0728 0.87482,-0.13988 0.84085,-0.31632 -0.0462,-0.23987 -0.22933,-0.34966 -1.70481,-1.02203 -1.27842,-0.58256 -1.3257,-0.77826 -0.29812,-1.23399 3.03083,-1.34417 3.35495,-1.57775 4.02857,-2.90321 0.56248,-1.10679 1.2883,-3.22238 1.2883,-3.75514 0,-0.34689 -0.13769,-0.5729 -0.60676,-0.99594 l -0.60677,-0.54721 0.53538,0.0858 c 0.29446,0.0472 0.53538,0.0388 0.53538,-0.0186 0,-0.0574 -0.25528,-0.40711 -0.5673,-0.77715 -0.76801,-0.9108 -1.19287,-1.6585 -1.09191,-1.92159 0.0745,-0.19406 0.12168,-0.19298 0.4312,0.01 l 0.34758,0.22775 0.15944,-0.82953 c 0.50309,-2.61756 0.75517,-3.07715 0.9282,-1.6923 0.0544,0.43526 0.14899,0.79138 0.21023,0.79138 0.1914,0 0.9887,-1.88321 1.20888,-2.85536 0.1156,-0.51039 0.28658,-2.05228 0.37997,-3.42642 0.0934,-1.37414 0.22479,-2.558 0.292,-2.63079 0.0712,-0.0771 0.2192,0.10159 0.35464,0.4283 0.29227,0.70499 0.33065,0.74271 0.49354,0.48514 0.22057,-0.34877 0.14804,-1.31444 -0.14766,-1.96599 -0.33434,-0.73667 -0.26269,-0.76163 -2.13806,0.74504 -0.74369,0.59748 -1.57888,1.14931 -1.85599,1.22629 -1.01264,0.28133 -3.84007,0.0911 -2.99826,-0.20171 0.11559,-0.0402 0.62775,-0.14331 1.13814,-0.22911 1.16203,-0.19536 2.21415,-0.69342 2.84946,-1.34889 l 0.49022,-0.50578 h -0.65879 c -0.36233,0 -0.76944,-0.0425 -0.9047,-0.0944 -0.20948,-0.0804 -0.17421,-0.15599 0.23818,-0.51045 l 0.48407,-0.41608 -0.59031,0.0663 c -0.9082,0.10208 -2.53877,0.84455 -10.26004,4.67184 -8.07601,4.00311 -9.03526,4.53745 -10.09582,5.62371 -1.31588,1.34777 -2.86444,4.30764 -4.03884,7.71974 -0.55197,1.60365 -0.63833,3.28879 -0.22229,4.33729 0.16763,0.42245 0.27564,0.79723 0.24004,0.83283 -0.0356,0.0356 -0.6558,0.1644 -1.37822,0.28621 -1.51257,0.25504 -1.55162,0.24945 -6.20559,-0.8872 -3.23499,-0.7901 -4.63404,-0.87352 -6.28133,-0.37453 -0.5494,0.16643 -1.12762,0.30086 -1.28491,0.29875 -0.24032,-0.003 -0.20841,-0.0682 0.19978,-0.40671 0.26718,-0.22157 0.44405,-0.47037 0.39305,-0.55288 -0.14298,-0.23135 -1.47544,-0.50533 -2.39427,-0.4923 -0.45427,0.006 -1.26281,0.1396 -1.79677,0.29591 -1.27013,0.37182 -2.74126,0.65048 -2.85161,0.54014 -0.048,-0.0481 0.43389,-0.57753 1.07107,-1.1765 0.93353,-0.87754 1.25983,-1.30102 1.68011,-2.18056 0.57795,-1.20946 0.50709,-1.23034 1.06979,0.31516 0.29628,0.81375 0.31577,0.83331 0.74502,0.74746 1.07908,-0.21582 1.39144,-0.78959 1.12398,-2.06467 -0.24587,-1.17222 -0.8637,-2.35881 -2.0695,-3.97467 -2.55845,-3.42851 -4.39275,-4.93527 -13.21491,-10.8552 -2.61374,-1.75392 -4.95828,-3.03418 -5.55642,-3.03418 -0.44306,0 -0.40815,0.42312 0.12087,1.46414 1.34251,2.6419 2.51527,3.80911 6.84568,6.81342 0.8245,0.572 1.40267,1.01064 1.28488,0.97475 -2.41226,-0.73508 -3.43846,-1.00731 -3.51368,-0.93212 -0.15427,0.1543 0.2208,1.39501 0.78657,2.60155 0.65285,1.39246 1.56407,2.28098 3.44035,3.35468 0.70703,0.40461 1.28553,0.79508 1.28553,0.8677 0,0.19534 -0.14041,0.1677 -1.14216,-0.22488 -1.22499,-0.48008 -1.4411,-0.46421 -0.93086,0.0684 0.80319,0.83837 3.15167,2.22252 4.69896,2.76953 0.38262,0.13527 0.21999,0.2354 -0.57753,0.35554 l -0.69214,0.10427 0.43853,0.23331 c 0.2412,0.12832 0.98001,0.34102 1.64182,0.47267 0.66182,0.13165 1.25979,0.29195 1.32876,0.35623 0.19112,0.17806 -0.51624,0.75816 -1.66428,1.36489 -0.95022,0.50221 -1.13714,0.54866 -2.38727,0.59322 -1.4779,0.0527 -1.94379,-0.0817 -1.57044,-0.45312 0.11779,-0.11717 0.55611,-0.3997 0.97408,-0.62784 l 0.75996,-0.41481 -0.74545,-0.0989 c -0.82558,-0.10952 -1.42669,-0.47276 -3.0445,-1.83975 -2.33542,-1.97338 -3.90246,-3.75432 -3.58383,-4.07297 0.0502,-0.05 0.34027,0.0526 0.64503,0.22799 0.30477,0.17539 0.5791,0.31889 0.60969,0.31889 0.0308,0 -0.0237,-0.53562 -0.12043,-1.19026 -0.41765,-2.82463 -0.76218,-3.85686 -1.84704,-5.53396 -0.59479,-0.91942 -0.64589,-1.05843 -0.44354,-1.2064 0.12578,-0.092 0.22873,-0.22253 0.22873,-0.29012 0,-0.1541 -1.59283,-1.773 -1.74446,-1.773 -0.1976,0 -0.12167,0.52251 0.3959,2.72594 0.46098,1.96218 0.53118,2.65369 0.21805,2.14699 -0.0636,-0.10288 -0.38867,-1.16108 -0.72241,-2.35154 -0.89459,-3.19113 -1.28396,-4.37737 -1.43699,-4.37737 -0.48067,0 0.34264,6.04142 0.94958,6.96773 0.17499,0.26704 0.25819,0.29909 0.4225,0.16274 0.17127,-0.14215 0.20462,-0.0848 0.20462,0.35195 0,0.28696 -0.10393,0.76061 -0.23095,1.05255 l -0.23089,0.53079 -0.33142,-0.71384 c -0.30887,-0.66529 -0.33196,-0.68468 -0.34016,-0.2852 -0.005,0.23575 0.15108,1.07094 0.34647,1.85598 0.19539,0.78504 0.35635,1.52371 0.35775,1.6415 0.005,0.45871 0.30854,1.28491 0.47155,1.28491 0.0945,1e-5 0.37432,-0.24091 0.62183,-0.53538 l 0.45008,-0.53538 -0.0748,0.9371 c -0.0874,1.09317 0.0963,1.56097 0.88461,2.2531 0.67045,0.58868 1.34332,0.92251 2.64623,1.31292 1.16698,0.34967 2.21315,0.82494 2.08904,0.94905 -0.0432,0.0431 -0.54731,-0.0296 -1.12031,-0.16155 -0.57299,-0.13201 -1.19266,-0.27097 -1.37704,-0.3088 -0.73973,-0.1518 -0.14391,0.34677 1.83127,1.53239 1.12862,0.6775 2.21741,1.42689 2.41954,1.66533 0.32954,0.38879 0.46627,0.43911 1.32563,0.48782 1.64193,0.0931 1.51108,0.29523 -0.63737,0.98507 -1.54076,0.4947 -2.14991,0.96795 -2.69533,2.09383 -0.33331,0.68811 -0.20764,1.03146 0.37761,1.03146 0.47447,0 2.95687,0.66562 3.56639,0.95628 0.51159,0.24396 0.5376,0.24232 1.07612,-0.0676 0.61854,-0.35599 0.70946,-0.37865 0.70946,-0.1769 0,0.25104 -1.61641,0.96566 -4.37099,1.93246 -3.5344,1.2405 -5.39805,1.97677 -6.22492,2.45929 -0.82122,0.47925 -2.80606,2.22184 -3.24588,2.84972 -0.31912,0.45564 -1.13348,2.853 -1.45092,4.27141 -0.16344,0.73048 -0.15837,0.75341 0.28588,1.29082 0.51197,0.61932 0.34361,0.79517 -0.39542,0.413 -0.64854,-0.33537 -0.73984,-0.28675 -0.69742,0.37153 0.0356,0.55723 0.0102,0.60172 -0.40778,0.71326 -0.73805,0.19685 -0.83319,0.43442 -0.88995,2.22143 -0.0811,2.55519 0.37621,3.36465 1.90083,3.36465 0.84652,0 1.46408,-0.2806 1.98803,-0.90327 0.53269,-0.63304 0.58827,-0.95082 0.58605,-3.34917 0,-1.94312 -0.0399,-2.26717 -0.41111,-3.49781 -0.47253,-1.56663 -0.67736,-3.50437 -0.35916,-3.39831 0.1076,0.0359 0.24055,0.28514 0.29543,0.55393 0.77702,3.80626 0.928,4.08276 2.15072,3.93795 0.73331,-0.0869 2.83935,-0.98302 3.1283,-1.33116 0.21476,-0.2588 0.0297,-0.24137 -0.92514,0.0871 -1.67447,0.57611 -0.53209,-0.36708 1.46457,-1.20916 1.43759,-0.6063 2.14824,-0.73517 2.72852,-0.49481 0.55394,0.22945 0.4838,0.43571 -0.21487,0.63173 -1.11032,0.31152 -0.55319,0.77562 0.72138,0.60093 0.89319,-0.12243 1.72778,-0.58795 2.00087,-1.11603 0.31092,-0.60125 0.1171,-1.24111 -0.72052,-2.37898 -0.63181,-0.85825 -0.63224,-0.85957 -0.21827,-0.71527 0.87884,0.30637 1.85405,1.90856 1.85405,3.04607 0,0.57243 0.32975,0.83995 0.91775,0.74453 0.50042,-0.0812 0.90128,-0.3272 4.19533,-2.57456 1.15393,-0.78725 1.45423,-0.93101 1.45423,-0.69613 0,0.26727 -3.85293,3.47918 -4.9128,4.09543 -0.75851,0.44104 -2.14203,0.78018 -6.10535,1.49658 -1.7805,0.32185 -3.5528,0.67887 -3.93845,0.79339 -1.53709,0.45646 -2.70477,2.38584 -2.30979,3.81643 0.29241,1.05895 2.80395,2.79964 4.7834,3.31522 1.21603,0.31674 4.34066,0.28861 6.00083,-0.054 1.50488,-0.31058 2.07302,-0.62982 3.47559,-1.95295 0.80782,-0.76206 1.01765,-1.05147 1.11261,-1.53445 0.11577,-0.5888 0.12431,-0.59572 0.78875,-0.63865 0.9545,-0.0617 2.169,0.19342 3.17007,0.66587 0.94259,0.44485 1.62657,0.9437 1.48664,1.08426 -0.049,0.0492 -0.55429,-0.0163 -1.12289,-0.14566 -1.33531,-0.30371 -2.71438,-0.22947 -3.58217,0.19283 -1.31979,0.64227 -3.87811,3.18768 -5.26951,5.24286 -0.74977,1.10744 -1.50051,2.55655 -2.43503,4.69996 -0.65237,1.49641 -1.19148,2.2398 -1.88378,2.59782 -0.43448,0.22467 -2.91138,0.47243 -4.7841,0.47855 l -1.03505,0.003 v 0.50908 c 0,0.65764 0.22161,1.06137 0.5826,1.06137 0.15783,0 0.44759,0.16061 0.6439,0.35692 0.41424,0.41424 0.48671,0.4355 0.48671,0.14277 0,-0.37025 0.38819,-0.23325 0.69004,0.24356 0.15939,0.25174 0.2583,0.50873 0.21977,0.57107 -0.11423,0.18486 -0.88045,0.12945 -1.43936,-0.10407 -0.60192,-0.25151 -0.83481,-0.11862 -0.70423,0.40183 0.10695,0.42591 1.73836,1.88427 2.43233,2.1742 0.35727,0.14928 1.04374,0.21122 2.34093,0.21122 h 1.83542 l 0.70283,-0.49969 c 0.81354,-0.5784 0.9179,-0.60274 0.9179,-0.21415 0,0.15705 0.0917,0.28554 0.20375,0.28554 0.31129,0 0.77216,-0.67222 1.01007,-1.47322 0.32564,-1.0966 0.29629,-1.21521 -0.31361,-1.26644 l -0.52746,-0.0443 0.62685,-0.41318 c 0.3448,-0.22726 1.62612,-0.98583 2.84744,-1.68572 2.18831,-1.25405 2.22121,-1.26722 2.26573,-0.90741 0.0249,0.20081 0.10307,0.36511 0.17383,0.36511 0.15937,0 1.10835,-1.2664 1.63151,-2.17722 0.21423,-0.37297 0.40974,-0.67814 0.43446,-0.67814 0.0247,0 -0.0433,0.36941 -0.15125,0.82091 -0.23332,0.9763 -0.25941,1.60614 -0.0665,1.60614 0.0769,0 0.57481,-0.54405 1.10645,-1.209 0.53164,-0.66494 0.98751,-1.14837 1.01305,-1.07427 0.0255,0.0741 -0.24366,0.71934 -0.59819,1.43386 -0.35452,0.71452 -0.6084,1.39342 -0.56418,1.50866 0.0442,0.11523 0.31817,0.33082 0.60877,0.47908 l 0.52837,0.26955 2.27369,-0.61441 c 2.46868,-0.6671 3.4872,-0.87617 3.4872,-0.71579 0,0.0565 -0.13372,0.31915 -0.29717,0.58362 -0.3921,0.63443 -0.2331,0.63034 1.5158,-0.0391 0.74708,-0.28595 1.39716,-0.48108 1.44463,-0.43361 0.0923,0.0923 -0.48951,2.00223 -0.95824,3.14538 l -0.28407,0.69279 0.64618,-0.0514 c 0.37722,-0.03 0.62692,0.006 0.59992,0.0873 -0.0638,0.19141 -1.88366,1.16803 -2.6673,1.43138 -0.3535,0.1188 -1.63187,0.3297 -2.84085,0.46865 l -2.19812,0.25265 1.53789,0.92548 c 2.10417,1.26627 2.92638,2.26001 2.92947,3.54061 5.3e-4,0.25767 -0.0579,0.31222 -0.26463,0.24661 -0.23345,-0.0741 -0.28626,0.0449 -0.43832,0.98752 -0.0951,0.58947 -0.22276,1.10258 -0.28371,1.14024 -0.0609,0.0377 -0.24385,-0.47042 -0.40645,-1.12909 -0.16261,-0.65868 -0.405,-1.42802 -0.53865,-1.70967 -0.49813,-1.04971 -2.69694,-2.93596 -3.42248,-2.93596 -0.16624,0 -0.48949,0.19543 -0.71833,0.43429 -0.56758,0.59242 -0.5646,1.30461 0.009,2.15086 l 0.42506,0.62712 0.0784,-0.71384 0.0784,-0.71383 0.18131,0.42794 c 0.24891,0.58752 0.58514,2.05228 0.5877,2.56032 0.002,0.39986 -0.0552,0.36236 -1.28815,-0.84413 -0.8747,-0.85594 -1.33701,-1.2158 -1.43546,-1.11735 -0.0799,0.0799 -0.19575,0.79752 -0.25751,1.59476 -0.0618,0.79725 -0.14586,1.48312 -0.18691,1.52417 -0.12381,0.12381 -0.64136,-1.21299 -0.96938,-2.50388 -0.45887,-1.80588 -1.35498,-3.5475 -1.66547,-3.23699 -0.048,0.0481 -0.0156,0.45874 0.0717,0.91264 0.42013,2.1793 0.64746,9.79418 0.30811,10.31934 -0.11699,0.18101 -0.13879,0.17365 -0.14062,-0.0476 -0.005,-0.57687 -0.37648,-0.071 -1.02092,1.38947 -0.89918,2.03786 -1.5216,2.82215 -3.4322,4.32485 -2.50949,1.97371 -3.32606,2.68567 -3.37565,2.94308 -0.0378,0.19559 0.0334,0.22289 0.39251,0.15104 0.24114,-0.0482 0.43847,-0.0434 0.43847,0.0107 0,0.0902 -2.32749,1.22215 -2.51305,1.22215 -0.0443,0 0.12297,-0.25724 0.37199,-0.57164 z m 12.30847,-21.37891 c 0.59328,-0.68016 0.66255,-1.46206 0.0831,-0.93763 -0.26218,0.23727 -0.68505,0.92183 -0.68505,1.109 0,0.17546 0.39836,0.0621 0.60198,-0.17137 z m -11.76235,-7.13011 c 0.33989,-0.19508 0.58843,-0.3842 0.55238,-0.42029 -0.11579,-0.11576 -1.71839,0.59274 -1.78368,0.78855 -0.0834,0.25027 0.41149,0.10225 1.2313,-0.36826 z m -3.25915,0.18057 c 0,-0.23096 -0.97327,-1.08115 -1.23767,-1.08115 -0.27762,0 -0.32824,0.20429 -0.14283,0.57623 0.28425,0.57016 1.3805,0.97111 1.3805,0.50492 z m 1.30932,-1.74574 c 0.40119,-0.36308 0.32031,-0.87521 -0.22431,-1.41982 -0.509,-0.509 -0.77917,-0.58273 -1.23718,-0.33762 -0.20014,0.10709 -0.27616,0.30017 -0.27616,0.70114 0,0.95535 1.10617,1.62778 1.73765,1.0563 z m 2.5402,-0.18831 c 0.45574,-0.32455 0.76369,-0.96852 0.69505,-1.45352 -0.0679,-0.47988 -0.65307,-0.50198 -1.52964,-0.0578 -1.01385,0.51377 -1.24587,0.99242 -0.73067,1.5076 0.36547,0.3655 1.05486,0.36713 1.56526,0.004 z m 41.12232,-1.30981 c -0.52779,-0.43953 -3.5277,-1.91515 -3.27961,-1.61321 0.28251,0.34383 1.92802,1.38894 2.63716,1.67492 0.81332,0.328 1.0797,0.30241 0.64245,-0.0617 z m -41.6658,-1.06311 c 1.34532,-0.43491 1.63697,-0.48681 1.91114,-0.34008 0.1779,0.0952 0.38829,0.13311 0.4675,0.0842 0.1894,-0.11707 1.32892,-1.85174 1.7184,-2.6159 0.50365,-0.98823 0.447,-1.09317 -0.54187,-1.0035 -0.89351,0.081 -2.05029,0.54304 -3.1904,1.27427 -0.37594,0.24113 -0.71966,0.40234 -0.76375,0.35823 -0.0443,-0.0441 0,-0.32004 0.0957,-0.61321 0.15606,-0.47279 0.1465,-0.55454 -0.0844,-0.7234 -0.33751,-0.2468 -0.80707,-0.24124 -1.42479,0.0169 -0.66986,0.27988 -0.86514,0.80376 -0.58584,1.57174 0.11536,0.31717 0.2378,0.91183 0.27206,1.32147 0.0529,0.63389 0.2767,1.18257 0.48213,1.18257 0.0313,0 0.77097,-0.23095 1.64414,-0.51323 z m -8.10045,-0.71557 c 0.13069,-0.0502 0.22582,-0.25322 0.22582,-0.48211 0,-0.33652 -0.10107,-0.43799 -0.67816,-0.68092 -1.59051,-0.66953 -3.71679,-1.23504 -4.09623,-1.08944 -0.2698,0.10354 -0.2937,0.67463 -0.0372,0.88756 0.10198,0.0846 0.76051,0.44543 1.46338,0.80181 1.06786,0.54141 1.41104,0.64809 2.08721,0.64885 0.44511,5.3e-4 0.91089,-0.0381 1.0351,-0.0857 z m -1.59904,-0.93478 c 0.0741,-0.2223 0.39353,-0.26123 0.4047,-0.0493 0.005,0.0785 -0.0996,0.16497 -0.23057,0.1921 -0.14887,0.0308 -0.21416,-0.0227 -0.17413,-0.14277 z m 6.42911,0.8026 c 0.16976,-0.0661 0.24984,-0.25255 0.24984,-0.58166 v -0.48441 l -1.53477,0.0169 c -0.84409,0.009 -1.72671,0.058 -1.96127,0.10818 -0.5158,0.11037 -0.62857,0.49598 -0.26413,0.90302 0.24255,0.2709 0.3755,0.28706 1.76145,0.21413 0.82445,-0.0434 1.61145,-0.12265 1.74888,-0.17615 z m -10.45772,-1.92268 c 0,-0.0785 -0.0286,-0.14277 -0.063,-0.14277 -0.0345,0 -0.10269,0.0642 -0.1512,0.14277 -0.0486,0.0785 -0.02,0.14277 0.063,0.14277 0.0831,0 0.1512,-0.0642 0.1512,-0.14277 z m 11.13589,-1.71854 c 0,-0.21144 -1.18598,-1.33576 -1.77657,-1.68421 l -0.49874,-0.29428 -0.29003,0.3687 c -0.53571,0.68102 -0.30477,1.25477 0.63796,1.58521 0.56474,0.19795 1.92738,0.21533 1.92738,0.0246 z m -3.59559,-0.53387 c 0.0248,-0.25729 -0.0286,-0.82215 -0.11845,-1.25523 -0.18842,-0.90772 -0.23073,-0.91242 -1.54361,-0.17166 -0.87382,0.49306 -0.99302,0.6877 -0.68783,1.1234 0.40125,0.57283 0.97257,0.85113 1.66244,0.80979 0.61228,-0.0367 0.64455,-0.0604 0.68745,-0.5063 z m 43.6844,-3.27984 c -0.0654,-1.10223 -0.42349,-2.12463 -0.68711,-1.9617 -0.073,0.0451 -0.20492,0.34987 -0.29305,0.67717 -0.18596,0.69062 -0.0253,1.41261 0.44833,2.01473 0.49383,0.62782 0.60345,0.47733 0.53183,-0.7302 z m -10.7371,-10.27823 c -0.099,-0.099 -0.36986,0.10215 -0.36986,0.2747 0,0.0947 0.0819,0.0838 0.2176,-0.0288 0.11967,-0.0993 0.1882,-0.21 0.15226,-0.24593 z m 0.55813,-0.75059 c -0.0485,-0.0785 -0.15248,-0.14276 -0.23101,-0.14276 -0.0785,0 -0.10306,0.0643 -0.0545,0.14276 0.0485,0.0785 0.15248,0.14277 0.231,0.14277 0.0785,0 0.10307,-0.0642 0.0545,-0.14277 z m -1.64183,-1.19825 c 0,-0.23621 -0.30785,-0.37302 -0.83259,-0.37001 -0.4772,0.003 -0.8052,0.20165 -0.67634,0.41016 0.14975,0.2423 1.50893,0.20614 1.50893,-0.0401 z m 10.56482,-0.44358 c 0,-0.11778 -0.0964,-0.21415 -0.21415,-0.21415 -0.11778,0 -0.21416,0.0964 -0.21416,0.21415 0,0.11779 0.0964,0.21416 0.21416,0.21416 0.11777,0 0.21415,-0.0964 0.21415,-0.21416 z m -33.86522,-5.23373 c 0.1376,-0.72149 -1.51113,-1.14951 -2.11229,-0.54836 -0.32424,0.32426 -0.37044,0.65438 -0.10706,0.76496 0.0982,0.0412 0.6275,0.0626 1.17632,0.0476 0.80243,-0.022 1.00672,-0.0737 1.04303,-0.26419 z m 15.09139,56.65252 c -0.1213,-0.29032 -0.26025,-0.8175 -0.30877,-1.17148 -0.0813,-0.5931 -0.10714,-0.62648 -0.32934,-0.42539 -0.37764,0.34175 -0.4726,0.26103 -0.36538,-0.31053 0.12072,-0.64347 0.63003,-1.67677 0.76161,-1.54518 0.0866,0.0866 0.17523,0.51936 0.59907,2.92582 0.17269,0.98049 -0.0379,1.29102 -0.35719,0.52676 z m -2.07028,-3.49036 c 0,-0.54802 2.29796,-2.71405 2.72747,-2.57089 0.17611,0.0587 -1.66669,2.0907 -2.31416,2.55175 -0.40149,0.28588 -0.41331,0.28643 -0.41331,0.0192 z m -4.09906,-1.98188 c -0.37148,-0.53657 -0.78676,-1.61713 -0.62148,-1.61713 0.16719,0 0.572,0.51455 0.9326,1.18543 0.20352,0.37865 0.23787,0.56577 0.12463,0.67899 -0.11323,0.11325 -0.23332,0.0451 -0.43575,-0.24729 z m 5.95504,-2.87942 c 0,-0.16545 1.71013,-1.79204 2.10583,-2.00296 0.62343,-0.33233 0.30986,0.11163 -0.78522,1.11169 -1.06908,0.97629 -1.32061,1.14606 -1.32061,0.89127 z m -3.85473,-1.56984 c 0,-0.0657 0.25089,-0.46987 0.55752,-0.89808 0.77362,-1.08035 0.92271,-1.73742 0.80574,-3.55096 -0.0532,-0.82448 -0.13374,-1.65968 -0.17903,-1.85598 l -0.0824,-0.35692 0.35672,0.32701 c 0.7589,0.6957 1.55811,2.9368 1.34712,3.7775 -0.19436,0.77431 -2.80572,3.15461 -2.80572,2.55743 z m 4.38302,-1.07065 c 0.58989,-0.98585 2.67998,-3.94946 2.78536,-3.94946 0.2054,0 -0.004,0.82945 -0.43263,1.71321 -0.4152,0.8562 -1.86126,2.42706 -2.23423,2.42706 -0.15594,0 -0.19502,-0.0629 -0.1185,-0.19081 z m 2.06162,-7.26873 c -0.97049,-0.48509 -1.6845,-0.90865 -1.58671,-0.94124 0.73447,-0.24483 3.70814,1.07527 3.70814,1.64615 0,0.30906 -0.27691,0.21705 -2.12143,-0.70491 z m 18.39341,-2.32435 c -0.20031,-0.24135 -1.85242,-2.92791 -1.85242,-3.01228 0,-0.0291 0.1247,-0.0529 0.27711,-0.0529 0.15241,0 0.30862,-0.051 0.34715,-0.11331 0.0385,-0.0623 -0.19677,-0.63703 -0.52286,-1.27712 -0.32609,-0.64009 -0.5427,-1.21398 -0.48135,-1.27532 0.15232,-0.15232 0.98769,0.85249 1.50585,1.81128 1.04024,1.92484 1.60653,4.98004 0.72652,3.91969 z m -39.49895,-2.15663 c -0.15929,-0.41514 0.16361,-0.69071 0.89859,-0.76692 1.08129,-0.11211 2.1409,-0.78952 3.03506,-1.94034 0.42105,-0.54192 0.83864,-0.9853 0.92799,-0.9853 0.29759,0 0.26284,0.92069 -0.0599,1.58736 -0.39509,0.81614 -1.36733,1.47786 -2.90108,1.97455 -1.30701,0.42324 -1.77602,0.45549 -1.90067,0.13065 z m 15.45332,-4.16599 c 0.41523,-0.70293 0.75534,-1.09591 0.85887,-0.99238 0.15271,0.15272 -0.22436,0.95046 -0.56059,1.18596 -0.45493,0.31865 -0.56042,0.25019 -0.29828,-0.19358 z m 9.73611,-0.82397 c -0.0461,-0.0461 -0.61146,-0.26657 -1.25629,-0.48985 l -1.1724,-0.40597 0.55434,-0.2334 c 1.19556,-0.50339 2.33854,-0.40348 2.8825,0.25194 0.26918,0.32434 -0.0978,0.95866 -0.55545,0.96004 -0.20285,5.3e-4 -0.40657,-0.0366 -0.4527,-0.0828 z m -19.46222,-0.53503 c -0.11504,-0.29973 0.041,-0.95154 0.2276,-0.95154 0.23014,0 0.22242,0.81767 -0.0102,1.05894 -0.0754,0.0783 -0.16296,0.035 -0.21762,-0.1074 z m 1.01428,-2.16507 c 0.13603,-0.83288 0.34296,-1.1247 0.34836,-0.49128 0,0.27945 -0.096,0.6328 -0.21865,0.78522 -0.20871,0.25941 -0.21702,0.24062 -0.12971,-0.29394 z m 1.68979,-2.84205 c 0.65636,-0.59511 2.86352,-2.08344 3.08966,-2.08344 0.30037,0 -0.004,0.26014 -1.46408,1.25007 -1.83014,1.24108 -2.39429,1.5303 -1.62558,0.83337 z m 7.37433,-0.76284 c 0.003,-0.13116 1.36698,-1.03506 1.56174,-1.03506 0.30363,0 -0.0593,0.45463 -0.62989,0.789 -0.60784,0.35622 -0.93657,0.44302 -0.93185,0.24606 z m 1.97342,-0.57107 c 0.34603,-0.4814 1.16491,-1.27136 1.16491,-1.12377 0,0.39541 -0.92402,1.51638 -1.24996,1.51638 -0.14709,0 -0.12549,-0.0997 0.085,-0.39261 z m 1.4961,-0.78522 c 0.0422,-0.17668 0.12135,-0.64245 0.17601,-1.03507 0.13862,-0.99553 0.26808,-1.20394 0.49014,-0.78902 0.30633,0.57239 -0.12464,2.14532 -0.58781,2.14532 -0.0882,0 -0.12195,-0.13836 -0.0783,-0.32123 z m -15.75012,-1.9345 c 0,-0.23712 0.35705,-0.45686 0.74238,-0.45686 0.43637,0 0.55745,0.33725 0.17396,0.48441 -0.32462,0.12456 -0.91634,0.10677 -0.91634,-0.0276 z m -3.17956,-0.61275 c -0.66893,-0.38944 0.45526,-0.57622 1.18792,-0.19736 0.23165,0.1198 0.42121,0.24829 0.42121,0.28553 0,0.13152 -1.35978,0.057 -1.60913,-0.0882 z m 6.42755,-0.0939 c -0.37777,-0.0858 -0.29926,-0.32133 0.10705,-0.32133 0.19631,0 0.35694,0.0605 0.35694,0.13434 0,0.18606 -0.16873,0.25405 -0.46399,0.18699 z m -16.38421,-0.89535 c -0.18513,-0.34593 -0.0764,-0.56812 0.27806,-0.56812 0.40119,0 0.65776,0.3769 0.43739,0.64245 -0.24665,0.29714 -0.53252,0.26743 -0.71545,-0.0743 z m 7.35414,-0.13982 c 0.0486,-0.0785 0.21293,-0.14277 0.36536,-0.14277 0.15238,0 0.27708,0.0642 0.27708,0.14277 0,0.0785 -0.16441,0.14277 -0.36536,0.14277 -0.2072,0 -0.32715,-0.0618 -0.27708,-0.14277 z m 5.07543,-0.13832 c -0.29349,-0.18138 -0.0615,-0.60335 0.30223,-0.54984 0.17089,0.0251 0.33568,0.12166 0.36622,0.2145 0.0754,0.22923 -0.4299,0.48275 -0.66845,0.33534 z m 3.00009,0.003 c -0.16986,-0.1066 -0.17294,-0.16716 -0.0183,-0.35366 0.21362,-0.25742 0.80189,-0.3009 0.94472,-0.0698 0.18826,0.3046 -0.56636,0.64951 -0.92654,0.42349 z m 3.08417,-0.24557 c -0.16431,-0.16427 -0.10398,-0.33312 0.11898,-0.33312 0.11774,0 0.21411,0.0964 0.21411,0.21415 0,0.22294 -0.16884,0.28325 -0.33309,0.11897 z m -8.4854,-0.38243 c -0.69371,-0.17009 -0.72743,-0.42894 -0.0644,-0.49465 0.52556,-0.0521 1.03068,0.18193 1.03068,0.47757 0,0.23179 -0.0845,0.23329 -0.96631,0.0171 z m -4.03062,-0.23625 c 0.0841,-0.15704 0.18271,-0.28553 0.21919,-0.28553 0.0367,0 0.0664,0.12849 0.0664,0.28553 0,0.16154 -0.0952,0.28554 -0.21918,0.28554 -0.17494,0 -0.18832,-0.0576 -0.0664,-0.28554 z m 11.61516,-0.0732 c -0.10748,-0.28009 0.19507,-0.64064 0.5376,-0.64064 0.18756,0 0.26807,0.10261 0.26807,0.34165 0,0.4811 -0.64406,0.72012 -0.80567,0.29899 z m -9.83821,-0.51031 c -0.13496,-0.2183 0.15788,-0.47095 0.42638,-0.36792 0.12308,0.0472 0.22377,0.18425 0.22377,0.3045 0,0.24951 -0.50473,0.29875 -0.65015,0.0634 z m -0.92034,-0.35291 c 0,-0.12241 0.0643,-0.18286 0.14278,-0.13434 0.0785,0.0485 0.14278,0.14869 0.14278,0.22258 0,0.0739 -0.0643,0.13434 -0.14278,0.13434 -0.0785,0 -0.14278,-0.10016 -0.14278,-0.22258 z m 7.3747,-0.18127 c -0.31065,-0.34324 -0.29872,-0.55647 0.0372,-0.66305 0.34048,-0.10808 1.01153,0.0502 1.01153,0.23858 0,0.14042 -0.56787,0.67189 -0.72743,0.6808 -0.0469,0.003 -0.19129,-0.11273 -0.32122,-0.25633 z m -14.37027,-0.29251 c 0,-0.41131 0.34906,-0.64186 0.56959,-0.37616 0.143,0.17234 0.14332,0.25913 0,0.43007 -0.24746,0.29816 -0.5711,0.26761 -0.5711,-0.0539 z m 12.37317,0.17288 c -0.0523,-0.0524 -0.0952,-0.20609 -0.0952,-0.34164 0,-0.35056 0.43459,-0.47543 0.70352,-0.20216 0.2043,0.20762 0.19955,0.24659 -0.0529,0.43355 -0.30859,0.22877 -0.41586,0.25005 -0.55567,0.11025 z m 14.24481,-0.25007 c -0.32687,-0.23901 -0.15711,-0.49775 0.18499,-0.28196 0.26735,0.16864 0.4103,0.48444 0.2193,0.48444 -0.0701,0 -0.25199,-0.0911 -0.40429,-0.20248 z m -16.27503,-0.0955 c -0.13873,-0.22448 0.16118,-0.46968 0.44247,-0.36175 0.19474,0.0747 0.20666,0.13198 0.0635,0.3045 -0.20894,0.25171 -0.37421,0.27042 -0.50598,0.0573 z m -7.5675,-0.14402 c -0.15308,-0.24777 0.32538,-0.65451 0.52967,-0.45023 0.12654,0.12654 0.1226,0.21892 -0.0167,0.38649 -0.21535,0.2595 -0.3796,0.27989 -0.51321,0.0637 z m 5.43982,-0.11913 c -0.0945,-0.15291 0.27363,-0.4678 0.39957,-0.34183 0.0518,0.0517 0.0939,0.14061 0.0939,0.19764 0,0.16009 -0.40971,0.27979 -0.49351,0.14419 z m 8.68931,-0.31714 c -0.12113,-0.19601 0.31826,-0.54941 0.68313,-0.54941 0.34259,0 0.33056,0.37954 -0.0178,0.56605 -0.35753,0.19134 -0.53948,0.18679 -0.66521,-0.0166 z m 9.93574,-0.19249 c -0.27483,-0.10584 -0.69243,-0.19936 -0.92799,-0.20783 -0.40801,-0.0147 -0.41518,-0.0253 -0.15118,-0.22502 0.15242,-0.11528 0.42866,-0.20961 0.61386,-0.20961 0.46517,0 1.17915,0.39123 1.17915,0.64613 0,0.24904 -0.0584,0.24874 -0.71384,-0.004 z m -3.49386,-0.9216 c -0.14713,-0.23804 0.76142,-0.5957 1.39606,-0.54959 0.63085,0.0459 0.74169,0.271 0.20341,0.41318 -0.75288,0.19886 -1.52042,0.26432 -1.59947,0.13641 z m 6.92594,-3.49252 c -0.16795,-0.34692 -0.34321,-0.87695 -0.38947,-1.17783 -0.0991,-0.64465 -0.30137,-0.94553 -0.56705,-0.84358 -0.28656,0.10996 -0.23726,-0.40997 0.10192,-1.07481 0.35253,-0.69101 0.60016,-0.65795 0.73353,0.0979 0.2962,1.67882 0.55288,3.02398 0.63119,3.30786 0.15427,0.55932 -0.19091,0.34986 -0.51012,-0.30955 z m -24.41543,0.0954 c 0.005,-0.29632 0.93544,-1.60613 1.14195,-1.60613 0.17715,0 -0.17062,0.86059 -0.58028,1.43596 -0.33682,0.47295 -0.56695,0.54268 -0.56167,0.17017 z m 11.92138,-1.49906 c -0.11995,-0.36503 -0.54256,-2.04806 -0.60942,-2.42705 -0.0937,-0.53132 0.0927,-0.49564 0.94974,0.18178 0.67207,0.53127 0.72668,0.62051 0.72668,1.18864 0,0.45748 -0.0843,0.69348 -0.33045,0.92467 -0.37092,0.34845 -0.64903,0.39828 -0.73655,0.13196 z m -10.32261,-2.1963 c -0.43734,-0.44403 -0.4872,-0.54893 -0.2814,-0.59203 0.3394,-0.0711 1.46306,0.56492 1.46306,0.82806 0,0.44412 -0.6371,0.31686 -1.18166,-0.23603 z m 20.52672,-0.46736 c 0,-0.35637 1.29997,-1.51939 1.93115,-1.72769 1.07621,-0.35519 0.98342,-0.0802 -0.32555,0.96493 -0.71303,0.56928 -1.36599,1.03506 -1.45102,1.03506 -0.085,0 -0.15458,-0.12253 -0.15458,-0.2723 z m -18.27429,-1.41602 c 0,-0.20536 0.65091,-0.73873 0.9015,-0.73873 0.38953,0 0.27568,0.40286 -0.18055,0.63879 -0.46901,0.24253 -0.72095,0.27746 -0.72095,0.0999 z m 14.56232,-8.58253 c 0,-0.0739 0.0585,-0.17047 0.12989,-0.21462 0.18449,-0.11402 0.59814,0.0677 0.50333,0.22115 -0.10508,0.17001 -0.63322,0.16455 -0.63322,-0.006 z m 21.27241,-4.13133 c 0,-0.16281 1.55581,-1.36451 1.64767,-1.27265 0.0385,0.0385 -0.24951,0.36878 -0.63998,0.734 -0.67835,0.63452 -1.00769,0.81056 -1.00769,0.53865 z m 8.9456,-6.66349 c 0.075,-0.19556 3.75549,-3.03498 4.80027,-3.70336 0.98022,-0.62707 0.41976,0.35968 -0.78297,1.37849 -0.95039,0.80506 -2.2484,1.68128 -3.21424,2.16976 -0.86974,0.43988 -0.91574,0.44877 -0.80306,0.15511 z m 3.19118,-4.7021 c -0.29082,-0.35041 -0.0743,-0.58478 0.9011,-0.97524 0.50983,-0.2041 1.8777,-0.80273 3.03971,-1.33028 1.94303,-0.88214 2.205,-0.96367 3.26117,-1.0149 1.38269,-0.0671 1.39548,-0.08 -1.23538,1.25205 -1.66929,0.84522 -2.18647,1.03532 -3.5335,1.29882 -0.8679,0.16978 -1.57801,0.35985 -1.57801,0.42239 0,0.0625 0.30518,0.15481 0.67816,0.20506 1.42044,0.19136 1.42759,0.3316 0.0175,0.34317 -1.05274,0.009 -1.41575,-0.0384 -1.55072,-0.20107 z"/></g></svg>