<svg width="281.14" height="335.17" version="1.1" viewBox="0 0 74.384 88.681" xmlns="http://www.w3.org/2000/svg"><g transform="translate(-101.9 -113.56)"><path d="m116.47 201.67c0.56053-0.70774 2.2865-2.2764 4.3539-3.9572 2.2726-1.8475 2.7398-2.5179 4.1413-5.9408l0.69176-1.6895-0.17326-1.8497c-0.39752-4.2448-0.82445-5.5966-2.1898-6.9341l-0.75678-0.74132-1.6418 0.14668c-0.90301 0.0807-2.4524 0.12307-3.443 0.0942-1.71-0.0498-1.8489-0.0767-2.7426-0.53029-1.402-0.71163-2.5327-1.6736-2.9515-2.5111-0.33514-0.67022-0.35678-0.84879-0.35414-2.9267 5e-3 -2.205 5e-3 -2.2179 0.53539-3.6219 0.29295-0.77495 0.53258-1.4908 0.53258-1.5909 0-0.27719-0.2466-0.33159-3.2652-0.7203-1.5414-0.19849-2.8988-0.38859-3.0166-0.42245-0.11774-0.0338-0.77232-0.12414-1.4545-0.20064-1.9916-0.22331-2.8286-0.80285-2.8286-1.9586 0-0.96553 0.075-1.0523 0.83442-0.96591 1.6183 0.18403 2.7749 0.39967 4.305 0.80265 1.5333 0.40382 1.7641 0.42763 3.4978 0.36092 1.825-0.0702 2.9227-0.29902 3.0318-0.6319 0.0937-0.28617-0.44517-0.46159-1.9105-0.62187-2.8207-0.30856-2.5996-0.2416-3.4645-1.0489-0.43863-0.40938-1.1373-1.0223-1.5527-1.3621-0.94996-0.7771-1.149-1.1661-1.3416-2.6232-0.19371-1.465-0.0559-2.1842 0.82623-4.3116 0.35818-0.86375 1.0664-2.5984 1.5739-3.8547 0.50744-1.2564 1.1582-2.6298 1.4462-3.0522 0.8245-1.2094 2.1901-2.2463 4.6951-3.5653 1.2454-0.65574 2.3137-1.2383 2.374-1.2947 0.0603-0.0563 0.2064-0.65636 0.32457-1.3334 0.3025-1.733 0.51607-2.2534 1.5818-3.8542 0.51644-0.77578 0.91655-1.4276 0.88914-1.4485-0.0275-0.0209-0.85288-0.60061-1.8344-1.2883-1.0548-0.73905-2.2517-1.7352-2.9268-2.4359-0.81301-0.84392-1.389-1.303-1.9988-1.5931-1.4812-0.70472-2.0402-1.8737-2.7058-5.6579-0.96647-5.4952-1.0395-8.6761-0.26856-11.703 0.22285-0.8749 0.27908-0.96362 0.61055-0.96299 0.4592 8.7e-4 2.6189 0.97161 4.5767 2.0571 0.82444 0.45714 3.7746 2.3494 6.5559 4.2051l5.0569 3.3739 2.0102 2.3114 2.0101 2.3114 2.4636 5.2281-0.33952 0.67341c-0.31477 0.6243-0.43356 1.1112-0.27112 1.1112 0.0376 0 1.4671 0.25325 3.1766 0.56277 3.9261 0.71086 8.5595 1.436 9.1756 1.436h0.47219l-0.0891-1.6629-0.0891-1.6629 3.7134-8.0383 3.3454-3.3104 3.0702-1.6214c4.0003-2.1126 6.4468-3.2789 11.492-5.4785l4.1403-1.805 1.3563 0.43776c1.3799 0.44537 2.656 0.77716 3.5858 0.93235l0.51629 0.0862 0.23411 1.747 0.23412 1.747-0.42864 1.1132c-0.46499 1.2076-0.97784 3.1381-1.3725 5.1666-0.23606 1.2134-0.29634 1.3401-1.0825 2.2765-0.82963 0.98818-0.8322 0.99412-0.73939 1.7132 0.0512 0.39688 0.24009 1.3319 0.41971 2.0779l0.32658 1.3563-0.55876 2.3263c-0.76483 3.1843-1.2431 3.8562-3.1336 4.4026-0.43187 0.12483-0.83886 0.27669-0.90442 0.33748-0.0656 0.0608 0.17445 0.22267 0.53336 0.35974 1.4219 0.54304 1.282 0.92352-0.94976 2.583-2.5861 1.9229-2.3156 1.8276-5.3018 1.8686-2.467 0.0339-3.0705 0.10481-2.3953 0.28138 0.52372 0.13696 0.28323 0.36931-0.93283 0.90131-2.2926 1.003-4.4473 2.5642-4.9917 3.617-0.31663 0.6123-0.28229 2.3892 0.0805 4.1667 0.40675 1.9928 2.7658 9.9832 3.4562 11.707 0.64157 1.6016 1.006 2.2548 3.1755 5.6918 0.83607 1.3245 1.5201 2.4916 1.5201 2.5936s-0.26902 0.27511-0.59784 0.38472c-0.67042 0.22347-0.84292 0.46964-0.42258 0.60305 0.15411 0.0489 0.32371 0.19892 0.37688 0.33334 0.0532 0.13443 0.18747 2.1653 0.29843 4.513 0.21368 4.5211 0.42635 5.9428 1.1127 7.438 0.40028 0.87206 2.0348 3.0566 3.7898 5.065 0.71872 0.82251 1.3447 1.6466 1.391 1.8313 0.0953 0.37959-0.20978 1.0596-0.44206 0.98548-0.0839-0.0268-0.35659-0.39769-0.60594-0.82419-2.3541-4.0267-3.5484-5.3605-5.7928-6.4691-1.5265-0.75404-2.6296-1.0389-4.5435-1.1733-1.6983-0.11923-2.0356-0.0154-3.5819 1.103-1.0738 0.77666-1.1947 0.83147-1.2362 0.56072-0.0808-0.52633 0.85345-3.006 1.1326-3.006 0.0699 0 0.12704 0.31907 0.12704 0.70906v0.70906l0.8923-0.61681c0.49077-0.33924 1.3741-0.89215 1.9631-1.2287 1.4096-0.80551 1.5704-0.95892 1.5704-1.4978 0-0.54376-0.83203-3.6144-1.3457-4.9663-0.46861-1.2333-1.2793-2.8449-2.2069-4.3872-0.63429-1.0546-0.85811-1.5704-0.6814-1.5704 0.027 0 0.39639 0.11847 0.82092 0.26327 1.274 0.43456 1.5571 0.48119 1.5571 0.2565 0-0.47098-2.7652-2.1834-3.268-2.0238-0.1388 0.044-0.47215 0.47599-0.74078 0.95986-0.26863 0.48386-0.55765 0.90228-0.64227 0.92981-0.0846 0.0275-0.2301-0.11726-0.32328-0.32177-0.22372-0.49101-0.4407-0.39341-0.83198 0.37421-0.27549 0.54046-0.44581 1.1658-0.84309 3.0954-0.0533 0.25909-0.16247 0.32123-0.5641 0.32123-0.27388 0-1.4059 0.1668-2.5155 0.37067-1.797 0.33016-2.2846 0.36416-4.4605 0.31099-2.3306-0.057-2.9427-0.14029-2.9427-0.40071 0-0.0642 0.49791-0.41719 1.1064-0.78433 0.60855-0.36715 1.5722-1.0159 2.1415-1.4418 0.56929-0.42583 1.0351-0.73015 1.0351-0.67626 0 0.0539-0.201 0.41121-0.44667 0.79405s-0.40955 0.73319-0.36419 0.77856c0.10312 0.10311 1.884-0.91662 3.0238-1.7314 1.2203-0.87234 2.1604-1.7407 2.0293-1.8745-0.0617-0.063-0.50913-8e-3 -0.99425 0.12178-0.48511 0.12998-0.90667 0.21167-0.9368 0.18154-0.0301-0.0301 0.48152-0.40133 1.137-0.82489 0.65548-0.42356 1.5018-1.0391 1.8807-1.3679 0.37888-0.32879 0.74-0.56621 0.80247-0.5276 0.0625 0.0386 0.15337 0.2691 0.20199 0.51221 0.21689 1.0845 1.3852-0.39682 1.4934-1.8936 0.0644-0.89073-0.18761-2.3972-0.40106-2.3972-0.0663 0-0.33373 0.27304-0.59431 0.60676-0.94337 1.2081-1.3489 1.3039-1.2092 0.28553 0.0512-0.37298 0.12924-1.1279 0.17348-1.6775l0.0804-0.99937-0.58733 0.71384-3e-3 -0.56196c-6e-3 -1.0232 0.83548-3.7152 1.0835-3.4672 0.0371 0.0371 0.20117 0.54118 0.36471 1.1203 0.16355 0.5791 0.37755 1.168 0.47557 1.3086 0.16673 0.23918 0.18387 0.23458 0.26583-0.0714 0.0482-0.17988 0.0885-0.91012 0.0896-1.6228 2e-3 -1.1853 0.0315-1.3234 0.34797-1.6208l0.34603-0.32507 0.049 0.40726c0.049 0.40703 0.0492 0.40694 0.36545-0.18918 0.17403-0.32803 0.48371-1.1632 0.68817-1.856 0.3311-1.1218 0.36235-1.4157 0.2857-2.6874-0.0879-1.4578-0.32716-3.2197-0.45461-3.3472-0.15579-0.15579-0.33662 0.38646-0.33868 1.0156-2e-3 0.73502-0.1158 1.153-0.28449 1.0487-0.0603-0.0373-0.15508 0.57345-0.21063 1.3571-0.0556 0.78367-0.1555 1.4249-0.22207 1.4249-0.0666 0-0.16498-0.36942-0.21866-0.82092-0.20125-1.6926-1.0273-3.4621-1.6161-3.4621-0.13804 0-0.37569 0.0927-0.52811 0.20594-0.27136 0.20165-0.26879 0.22097 0.12372 0.92799 0.43908 0.79091 0.29727 0.96015-0.36682 0.43777-0.56673-0.44578-1.6895-0.87822-2.3492-0.90479-0.54876-0.0221-0.66968 0.0427-1.3686 0.73286-0.98914 0.97685-1.8616 1.262-4.2704 1.3959l-1.7667 0.0982-0.61854-0.73879c-0.3402-0.40633-0.59338-0.76395-0.56262-0.79471 0.0308-0.0308 0.47256 0.13062 0.98176 0.35864 1.6995 0.76098 2.4807 0.57011 5.4955-1.3426 0.85963-0.54538 1.4979-0.83993 2.0511-0.94658 1.3511-0.26045 1.4456-0.28763 1.4456-0.41594 0-0.22708-0.92752-0.30229-1.7813-0.14446-0.4635 0.0857-1.3146 0.34325-1.8914 0.57236-2.1599 0.858-2.7764 0.83775-4.465-0.14665-0.5104-0.29753-1.2653-0.65127-1.6775-0.78608-0.41225-0.13482-0.74954-0.30238-0.74954-0.37236 0-0.1786 2.2323-1.2243 3.0566-1.4319 0.66278-0.16689 3.0031-0.10416 3.7606 0.1008 0.29047 0.0786 0.32123 0.0368 0.32123-0.43591 0-0.99067-0.79897-1.4352-2.8827-1.6041-0.93399-0.0757-1.2281-0.0404-1.9677 0.23623-0.47826 0.17886-0.90408 0.29069-0.94626 0.24851-0.0422-0.0422 0.45782-0.34596 1.1111-0.67508l1.1878-0.5984 1.5704 0.0651c1.7091 0.0709 2.8259 0.38961 4.1573 1.1866l0.69677 0.41709-0.53539 0.0443c-0.67642 0.056-0.68622 0.29335-0.0357 0.86453 0.27482 0.2413 0.49969 0.50965 0.49969 0.59632 0 0.38263 0.54371-6e-3 1.0603-0.75736l0.56307-0.8192 0.35158 0.32124 0.35159 0.32123-0.0926-0.35692c-0.0509-0.19631-0.12761-0.6139-0.17038-0.92799l-0.0778-0.57107 0.38658 0.71384c0.21263 0.39261 0.49235 1.067 0.62162 1.4987 0.24679 0.82417 0.43335 0.95932 1.095 0.79326 0.47617-0.11951 1.0473-1.3408 1.0492-2.2435 2e-3 -0.72604-0.15864-0.97161-1.9869-3.0466-0.4843-0.54965-0.98198-1.1663-1.106-1.3704l-0.22543-0.37103-3.1876-0.0821c-1.7532-0.0452-3.2988-0.14436-3.4347-0.22042-0.2064-0.11551-0.10746-0.20877 0.60052-0.56616 0.46619-0.23533 1.0005-0.5517 1.1874-0.70303 0.29613-0.23979 0.31752-0.31678 0.16646-0.59904-0.24075-0.44985-0.11598-0.5097 0.6282-0.30134 0.69024 0.19325 0.8747 0.34324 0.95513 0.77669 0.0392 0.21142 0.45284 0.41217 1.7869 0.86731 1.9285 0.65795 2.4563 0.94091 2.4253 1.3003-0.0134 0.15589 0.13217 0.28641 0.4074 0.36521 0.52092 0.14913 1.0708 0.0382 1.0708-0.21602 0-0.20489-1.8564-2.0402-2.8197-2.7875-0.33371-0.25893-0.60676-0.52842-0.60676-0.59888 0-0.0737 0.83404-0.0902 1.9658-0.0387 1.6615 0.0756 2.0357 0.0533 2.4174-0.14409 0.57374-0.29669 2.4289-1.8919 2.6238-2.2562 0.14245-0.26616 0.10253-0.27236-1.1454-0.17815-1.1338 0.0856-1.293 0.0693-1.293-0.13224 0-0.12642 0.59982-1.019 1.3329-1.9835 1.2611-1.6592 1.7565-2.3962 1.6107-2.3962-0.0355 0-0.37506 0.13466-0.75456 0.29925-1.1753 0.50975-1.3324 0.55847-1.3324 0.41308 0-0.2474 1.0607-0.84622 2.7937-1.5772 2.2148-0.93423 4.1537-1.9139 6.0541-3.0589 2.1115-1.2722 2.1079-1.2714 1.6582-0.38407-0.40508 0.79939-0.47484 1.3098-0.17903 1.3098 0.24882 0 1.7057-1.0193 2.5221-1.7645 1.0844-0.98993 1.8449-1.9606 2.6163-3.3393 0.40632-0.72624 0.81158-1.3205 0.90057-1.3206 0.25279-2.4e-4 0.334 0.52082 0.33374 2.1414-2.6e-4 1.8172-0.15139 2.1897-0.52831 1.3022l-0.26218-0.61735-0.94647 1.0033c-1.0925 1.1581-2.1164 2.6058-2.1074 2.9797 4e-3 0.1773 0.29483-0.0492 0.93161-0.72618 0.509-0.54112 0.96625-0.94305 1.0161-0.89318 0.27963 0.27963-1.1154 4.6266-2.1742 6.7747-0.41391 0.83977-0.72682 1.5532-0.69535 1.5854 0.0315 0.0322 0.32086-0.0204 0.6431-0.11697 0.32224-0.0965 0.62782-0.13284 0.67907-0.0806 0.17389 0.17708-1.3282 1.3381-2.8336 2.1902-0.82448 0.46668-2.3182 1.2402-3.3194 1.719-1.0012 0.4788-1.8203 0.9303-1.8203 1.0033 0 0.14532 0.22371 0.22334 1.0301 0.35923 0.72869 0.1228 0.78547 0.30795 0.15794 0.51505-0.96939 0.31993-3.9128-0.0375-7.7196-0.93731-0.56659-0.13393-0.36309 0.30119 0.35693 0.76315 0.97156 0.62335 2.6257 1.3521 4.2601 1.8768 1.5961 0.51241 1.6459 0.51221 5.341-0.0223 2.7914-0.40374 2.8179-0.41615 1.8904-0.88618-0.41171-0.20854-0.74841-0.46571-0.74841-0.5715 0-0.22386 0.88767-0.37392 2.2119-0.37392 0.48792 0 1.2849-0.0416 1.7711-0.0924 0.69649-0.0728 0.87482-0.13988 0.84085-0.31632-0.0462-0.23987-0.22933-0.34966-1.7048-1.022-1.2784-0.58256-1.3257-0.77826-0.29812-1.234 3.0308-1.3442 3.355-1.5778 4.0286-2.9032 0.56248-1.1068 1.2883-3.2224 1.2883-3.7551 0-0.34689-0.13769-0.5729-0.60676-0.99594l-0.60677-0.54721 0.53538 0.0858c0.29446 0.0472 0.53538 0.0388 0.53538-0.0186s-0.25528-0.40711-0.5673-0.77715c-0.76801-0.9108-1.1929-1.6585-1.0919-1.9216 0.0745-0.19406 0.12168-0.19298 0.4312 0.01l0.34758 0.22775 0.15944-0.82953c0.50309-2.6176 0.75517-3.0772 0.9282-1.6923 0.0544 0.43526 0.14899 0.79138 0.21023 0.79138 0.1914 0 0.9887-1.8832 1.2089-2.8554 0.1156-0.51039 0.28658-2.0523 0.37997-3.4264 0.0934-1.3741 0.22479-2.558 0.292-2.6308 0.0712-0.0771 0.2192 0.10159 0.35464 0.4283 0.29227 0.70499 0.33065 0.74271 0.49354 0.48514 0.22057-0.34877 0.14804-1.3144-0.14766-1.966-0.33434-0.73667-0.26269-0.76163-2.1381 0.74504-0.74369 0.59748-1.5789 1.1493-1.856 1.2263-1.0126 0.28133-3.8401 0.0911-2.9983-0.20171 0.11559-0.0402 0.62775-0.14331 1.1381-0.22911 1.162-0.19536 2.2142-0.69342 2.8495-1.3489l0.49022-0.50578h-0.65879c-0.36233 0-0.76944-0.0425-0.9047-0.0944-0.20948-0.0804-0.17421-0.15599 0.23818-0.51045l0.48407-0.41608-0.59031 0.0663c-0.9082 0.10208-2.5388 0.84455-10.26 4.6718-8.076 4.0031-9.0353 4.5374-10.096 5.6237-1.3159 1.3478-2.8644 4.3076-4.0388 7.7197-0.55197 1.6036-0.63833 3.2888-0.22229 4.3373 0.16763 0.42245 0.27564 0.79723 0.24004 0.83283s-0.6558 0.1644-1.3782 0.28621c-1.5126 0.25504-1.5516 0.24945-6.2056-0.8872-3.235-0.7901-4.634-0.87352-6.2813-0.37453-0.5494 0.16643-1.1276 0.30086-1.2849 0.29875-0.24032-3e-3 -0.20841-0.0682 0.19978-0.40671 0.26718-0.22157 0.44405-0.47037 0.39305-0.55288-0.14298-0.23135-1.4754-0.50533-2.3943-0.4923-0.45427 6e-3 -1.2628 0.1396-1.7968 0.29591-1.2701 0.37182-2.7413 0.65048-2.8516 0.54014-0.048-0.0481 0.43389-0.57753 1.0711-1.1765 0.93353-0.87754 1.2598-1.301 1.6801-2.1806 0.57795-1.2095 0.50709-1.2303 1.0698 0.31516 0.29628 0.81375 0.31577 0.83331 0.74502 0.74746 1.0791-0.21582 1.3914-0.78959 1.124-2.0647-0.24587-1.1722-0.8637-2.3588-2.0695-3.9747-2.5584-3.4285-4.3928-4.9353-13.215-10.855-2.6137-1.7539-4.9583-3.0342-5.5564-3.0342-0.44306 0-0.40815 0.42312 0.12087 1.4641 1.3425 2.6419 2.5153 3.8091 6.8457 6.8134 0.8245 0.572 1.4027 1.0106 1.2849 0.97475-2.4123-0.73508-3.4385-1.0073-3.5137-0.93212-0.15427 0.1543 0.2208 1.395 0.78657 2.6016 0.65285 1.3925 1.5641 2.281 3.4404 3.3547 0.70703 0.40461 1.2855 0.79508 1.2855 0.8677 0 0.19534-0.14041 0.1677-1.1422-0.22488-1.225-0.48008-1.4411-0.46421-0.93086 0.0684 0.80319 0.83837 3.1517 2.2225 4.699 2.7695 0.38262 0.13527 0.21999 0.2354-0.57753 0.35554l-0.69214 0.10427 0.43853 0.23331c0.2412 0.12832 0.98001 0.34102 1.6418 0.47267 0.66182 0.13165 1.2598 0.29195 1.3288 0.35623 0.19112 0.17806-0.51624 0.75816-1.6643 1.3649-0.95022 0.50221-1.1371 0.54866-2.3873 0.59322-1.4779 0.0527-1.9438-0.0817-1.5704-0.45312 0.11779-0.11717 0.55611-0.3997 0.97408-0.62784l0.75996-0.41481-0.74545-0.0989c-0.82558-0.10952-1.4267-0.47276-3.0445-1.8398-2.3354-1.9734-3.9025-3.7543-3.5838-4.073 0.0502-0.05 0.34027 0.0526 0.64503 0.22799 0.30477 0.17539 0.5791 0.31889 0.60969 0.31889 0.0308 0-0.0237-0.53562-0.12043-1.1903-0.41765-2.8246-0.76218-3.8569-1.847-5.534-0.59479-0.91942-0.64589-1.0584-0.44354-1.2064 0.12578-0.092 0.22873-0.22253 0.22873-0.29012 0-0.1541-1.5928-1.773-1.7445-1.773-0.1976 0-0.12167 0.52251 0.3959 2.7259 0.46098 1.9622 0.53118 2.6537 0.21805 2.147-0.0636-0.10288-0.38867-1.1611-0.72241-2.3515-0.89459-3.1911-1.284-4.3774-1.437-4.3774-0.48067 0 0.34264 6.0414 0.94958 6.9677 0.17499 0.26704 0.25819 0.29909 0.4225 0.16274 0.17127-0.14215 0.20462-0.0848 0.20462 0.35195 0 0.28696-0.10393 0.76061-0.23095 1.0526l-0.23089 0.53079-0.33142-0.71384c-0.30887-0.66529-0.33196-0.68468-0.34016-0.2852-5e-3 0.23575 0.15108 1.0709 0.34647 1.856s0.35635 1.5237 0.35775 1.6415c5e-3 0.45871 0.30854 1.2849 0.47155 1.2849 0.0945 1e-5 0.37432-0.24091 0.62183-0.53538l0.45008-0.53538-0.0748 0.9371c-0.0874 1.0932 0.0963 1.561 0.88461 2.2531 0.67045 0.58868 1.3433 0.92251 2.6462 1.3129 1.167 0.34967 2.2132 0.82494 2.089 0.94905-0.0432 0.0431-0.54731-0.0296-1.1203-0.16155-0.57299-0.13201-1.1927-0.27097-1.377-0.3088-0.73973-0.1518-0.14391 0.34677 1.8313 1.5324 1.1286 0.6775 2.2174 1.4269 2.4195 1.6653 0.32954 0.38879 0.46627 0.43911 1.3256 0.48782 1.6419 0.0931 1.5111 0.29523-0.63737 0.98507-1.5408 0.4947-2.1499 0.96795-2.6953 2.0938-0.33331 0.68811-0.20764 1.0315 0.37761 1.0315 0.47447 0 2.9569 0.66562 3.5664 0.95628 0.51159 0.24396 0.5376 0.24232 1.0761-0.0676 0.61854-0.35599 0.70946-0.37865 0.70946-0.1769 0 0.25104-1.6164 0.96566-4.371 1.9325-3.5344 1.2405-5.398 1.9768-6.2249 2.4593-0.82122 0.47925-2.8061 2.2218-3.2459 2.8497-0.31912 0.45564-1.1335 2.853-1.4509 4.2714-0.16344 0.73048-0.15837 0.75341 0.28588 1.2908 0.51197 0.61932 0.34361 0.79517-0.39542 0.413-0.64854-0.33537-0.73984-0.28675-0.69742 0.37153 0.0356 0.55723 0.0102 0.60172-0.40778 0.71326-0.73805 0.19685-0.83319 0.43442-0.88995 2.2214-0.0811 2.5552 0.37621 3.3646 1.9008 3.3646 0.84652 0 1.4641-0.2806 1.988-0.90327 0.53269-0.63304 0.58827-0.95082 0.58605-3.3492 0-1.9431-0.0399-2.2672-0.41111-3.4978-0.47253-1.5666-0.67736-3.5044-0.35916-3.3983 0.1076 0.0359 0.24055 0.28514 0.29543 0.55393 0.77702 3.8063 0.928 4.0828 2.1507 3.938 0.73331-0.0869 2.8394-0.98302 3.1283-1.3312 0.21476-0.2588 0.0297-0.24137-0.92514 0.0871-1.6745 0.57611-0.53209-0.36708 1.4646-1.2092 1.4376-0.6063 2.1482-0.73517 2.7285-0.49481 0.55394 0.22945 0.4838 0.43571-0.21487 0.63173-1.1103 0.31152-0.55319 0.77562 0.72138 0.60093 0.89319-0.12243 1.7278-0.58795 2.0009-1.116 0.31092-0.60125 0.1171-1.2411-0.72052-2.379-0.63181-0.85825-0.63224-0.85957-0.21827-0.71527 0.87884 0.30637 1.854 1.9086 1.854 3.0461 0 0.57243 0.32975 0.83995 0.91775 0.74453 0.50042-0.0812 0.90128-0.3272 4.1953-2.5746 1.1539-0.78725 1.4542-0.93101 1.4542-0.69613 0 0.26727-3.8529 3.4792-4.9128 4.0954-0.75851 0.44104-2.142 0.78018-6.1054 1.4966-1.7805 0.32185-3.5528 0.67887-3.9384 0.79339-1.5371 0.45646-2.7048 2.3858-2.3098 3.8164 0.29241 1.059 2.804 2.7996 4.7834 3.3152 1.216 0.31674 4.3407 0.28861 6.0008-0.054 1.5049-0.31058 2.073-0.62982 3.4756-1.953 0.80782-0.76206 1.0176-1.0515 1.1126-1.5344 0.11577-0.5888 0.12431-0.59572 0.78875-0.63865 0.9545-0.0617 2.169 0.19342 3.1701 0.66587 0.94259 0.44485 1.6266 0.9437 1.4866 1.0843-0.049 0.0492-0.55429-0.0163-1.1229-0.14566-1.3353-0.30371-2.7144-0.22947-3.5822 0.19283-1.3198 0.64227-3.8781 3.1877-5.2695 5.2429-0.74977 1.1074-1.5005 2.5566-2.435 4.7-0.65237 1.4964-1.1915 2.2398-1.8838 2.5978-0.43448 0.22467-2.9114 0.47243-4.7841 0.47855l-1.035 3e-3v0.50908c0 0.65764 0.22161 1.0614 0.5826 1.0614 0.15783 0 0.44759 0.16061 0.6439 0.35692 0.41424 0.41424 0.48671 0.4355 0.48671 0.14277 0-0.37025 0.38819-0.23325 0.69004 0.24356 0.15939 0.25174 0.2583 0.50873 0.21977 0.57107-0.11423 0.18486-0.88045 0.12945-1.4394-0.10407-0.60192-0.25151-0.83481-0.11862-0.70423 0.40183 0.10695 0.42591 1.7384 1.8843 2.4323 2.1742 0.35727 0.14928 1.0437 0.21122 2.3409 0.21122h1.8354l0.70283-0.49969c0.81354-0.5784 0.9179-0.60274 0.9179-0.21415 0 0.15705 0.0917 0.28554 0.20375 0.28554 0.31129 0 0.77216-0.67222 1.0101-1.4732 0.32564-1.0966 0.29629-1.2152-0.31361-1.2664l-0.52746-0.0443 0.62685-0.41318c0.3448-0.22726 1.6261-0.98583 2.8474-1.6857 2.1883-1.254 2.2212-1.2672 2.2657-0.90741 0.0249 0.20081 0.10307 0.36511 0.17383 0.36511 0.15937 0 1.1084-1.2664 1.6315-2.1772 0.21423-0.37297 0.40974-0.67814 0.43446-0.67814 0.0247 0-0.0433 0.36941-0.15125 0.82091-0.23332 0.9763-0.25941 1.6061-0.0665 1.6061 0.0769 0 0.57481-0.54405 1.1064-1.209 0.53164-0.66494 0.98751-1.1484 1.013-1.0743 0.0255 0.0741-0.24366 0.71934-0.59819 1.4339-0.35452 0.71452-0.6084 1.3934-0.56418 1.5087 0.0442 0.11523 0.31817 0.33082 0.60877 0.47908l0.52837 0.26955 2.2737-0.61441c2.4687-0.6671 3.4872-0.87617 3.4872-0.71579 0 0.0565-0.13372 0.31915-0.29717 0.58362-0.3921 0.63443-0.2331 0.63034 1.5158-0.0391 0.74708-0.28595 1.3972-0.48108 1.4446-0.43361 0.0923 0.0923-0.48951 2.0022-0.95824 3.1454l-0.28407 0.69279 0.64618-0.0514c0.37722-0.03 0.62692 6e-3 0.59992 0.0873-0.0638 0.19141-1.8837 1.168-2.6673 1.4314-0.3535 0.1188-1.6319 0.3297-2.8408 0.46865l-2.1981 0.25265 1.5379 0.92548c2.1042 1.2663 2.9264 2.26 2.9295 3.5406 5.3e-4 0.25767-0.0579 0.31222-0.26463 0.24661-0.23345-0.0741-0.28626 0.0449-0.43832 0.98752-0.0951 0.58947-0.22276 1.1026-0.28371 1.1402-0.0609 0.0377-0.24385-0.47042-0.40645-1.1291-0.16261-0.65868-0.405-1.428-0.53865-1.7097-0.49813-1.0497-2.6969-2.936-3.4225-2.936-0.16624 0-0.48949 0.19543-0.71833 0.43429-0.56758 0.59242-0.5646 1.3046 9e-3 2.1509l0.42506 0.62712 0.0784-0.71384 0.0784-0.71383 0.18131 0.42794c0.24891 0.58752 0.58514 2.0523 0.5877 2.5603 2e-3 0.39986-0.0552 0.36236-1.2882-0.84413-0.8747-0.85594-1.337-1.2158-1.4355-1.1174-0.0799 0.0799-0.19575 0.79752-0.25751 1.5948-0.0618 0.79725-0.14586 1.4831-0.18691 1.5242-0.12381 0.12381-0.64136-1.213-0.96938-2.5039-0.45887-1.8059-1.355-3.5475-1.6655-3.237-0.048 0.0481-0.0156 0.45874 0.0717 0.91264 0.42013 2.1793 0.64746 9.7942 0.30811 10.319-0.11699 0.18101-0.13879 0.17365-0.14062-0.0476-5e-3 -0.57687-0.37648-0.071-1.0209 1.3895-0.89918 2.0379-1.5216 2.8222-3.4322 4.3248-2.5095 1.9737-3.3261 2.6857-3.3756 2.9431-0.0378 0.19559 0.0334 0.22289 0.39251 0.15104 0.24114-0.0482 0.43847-0.0434 0.43847 0.0107 0 0.0902-2.3275 1.2222-2.513 1.2222-0.0443 0 0.12297-0.25724 0.37199-0.57164zm12.308-21.379c0.59328-0.68016 0.66255-1.4621 0.0831-0.93763-0.26218 0.23727-0.68505 0.92183-0.68505 1.109 0 0.17546 0.39836 0.0621 0.60198-0.17137zm-11.762-7.1301c0.33989-0.19508 0.58843-0.3842 0.55238-0.42029-0.11579-0.11576-1.7184 0.59274-1.7837 0.78855-0.0834 0.25027 0.41149 0.10225 1.2313-0.36826zm-3.2592 0.18057c0-0.23096-0.97327-1.0812-1.2377-1.0812-0.27762 0-0.32824 0.20429-0.14283 0.57623 0.28425 0.57016 1.3805 0.97111 1.3805 0.50492zm1.3093-1.7457c0.40119-0.36308 0.32031-0.87521-0.22431-1.4198-0.509-0.509-0.77917-0.58273-1.2372-0.33762-0.20014 0.10709-0.27616 0.30017-0.27616 0.70114 0 0.95535 1.1062 1.6278 1.7376 1.0563zm2.5402-0.18831c0.45574-0.32455 0.76369-0.96852 0.69505-1.4535-0.0679-0.47988-0.65307-0.50198-1.5296-0.0578-1.0138 0.51377-1.2459 0.99242-0.73067 1.5076 0.36547 0.3655 1.0549 0.36713 1.5653 4e-3zm41.122-1.3098c-0.52779-0.43953-3.5277-1.9152-3.2796-1.6132 0.28251 0.34383 1.928 1.3889 2.6372 1.6749 0.81332 0.328 1.0797 0.30241 0.64245-0.0617zm-41.666-1.0631c1.3453-0.43491 1.637-0.48681 1.9111-0.34008 0.1779 0.0952 0.38829 0.13311 0.4675 0.0842 0.1894-0.11707 1.3289-1.8517 1.7184-2.6159 0.50365-0.98823 0.447-1.0932-0.54187-1.0035-0.89351 0.081-2.0503 0.54304-3.1904 1.2743-0.37594 0.24113-0.71966 0.40234-0.76375 0.35823-0.0443-0.0441 0-0.32004 0.0957-0.61321 0.15606-0.47279 0.1465-0.55454-0.0844-0.7234-0.33751-0.2468-0.80707-0.24124-1.4248 0.0169-0.66986 0.27988-0.86514 0.80376-0.58584 1.5717 0.11536 0.31717 0.2378 0.91183 0.27206 1.3215 0.0529 0.63389 0.2767 1.1826 0.48213 1.1826 0.0313 0 0.77097-0.23095 1.6441-0.51323zm-8.1004-0.71557c0.13069-0.0502 0.22582-0.25322 0.22582-0.48211 0-0.33652-0.10107-0.43799-0.67816-0.68092-1.5905-0.66953-3.7168-1.235-4.0962-1.0894-0.2698 0.10354-0.2937 0.67463-0.0372 0.88756 0.10198 0.0846 0.76051 0.44543 1.4634 0.80181 1.0679 0.54141 1.411 0.64809 2.0872 0.64885 0.44511 5.3e-4 0.91089-0.0381 1.0351-0.0857zm-1.599-0.93478c0.0741-0.2223 0.39353-0.26123 0.4047-0.0493 5e-3 0.0785-0.0996 0.16497-0.23057 0.1921-0.14887 0.0308-0.21416-0.0227-0.17413-0.14277zm6.4291 0.8026c0.16976-0.0661 0.24984-0.25255 0.24984-0.58166v-0.48441l-1.5348 0.0169c-0.84409 9e-3 -1.7267 0.058-1.9613 0.10818-0.5158 0.11037-0.62857 0.49598-0.26413 0.90302 0.24255 0.2709 0.3755 0.28706 1.7614 0.21413 0.82445-0.0434 1.6114-0.12265 1.7489-0.17615zm-10.458-1.9227c0-0.0785-0.0286-0.14277-0.063-0.14277-0.0345 0-0.10269 0.0642-0.1512 0.14277-0.0486 0.0785-0.02 0.14277 0.063 0.14277 0.0831 0 0.1512-0.0642 0.1512-0.14277zm11.136-1.7185c0-0.21144-1.186-1.3358-1.7766-1.6842l-0.49874-0.29428-0.29003 0.3687c-0.53571 0.68102-0.30477 1.2548 0.63796 1.5852 0.56474 0.19795 1.9274 0.21533 1.9274 0.0246zm-3.5956-0.53387c0.0248-0.25729-0.0286-0.82215-0.11845-1.2552-0.18842-0.90772-0.23073-0.91242-1.5436-0.17166-0.87382 0.49306-0.99302 0.6877-0.68783 1.1234 0.40125 0.57283 0.97257 0.85113 1.6624 0.80979 0.61228-0.0367 0.64455-0.0604 0.68745-0.5063zm43.684-3.2798c-0.0654-1.1022-0.42349-2.1246-0.68711-1.9617-0.073 0.0451-0.20492 0.34987-0.29305 0.67717-0.18596 0.69062-0.0253 1.4126 0.44833 2.0147 0.49383 0.62782 0.60345 0.47733 0.53183-0.7302zm-10.737-10.278c-0.099-0.099-0.36986 0.10215-0.36986 0.2747 0 0.0947 0.0819 0.0838 0.2176-0.0288 0.11967-0.0993 0.1882-0.21 0.15226-0.24593zm0.55813-0.75059c-0.0485-0.0785-0.15248-0.14276-0.23101-0.14276-0.0785 0-0.10306 0.0643-0.0545 0.14276 0.0485 0.0785 0.15248 0.14277 0.231 0.14277 0.0785 0 0.10307-0.0642 0.0545-0.14277zm-1.6418-1.1982c0-0.23621-0.30785-0.37302-0.83259-0.37001-0.4772 3e-3 -0.8052 0.20165-0.67634 0.41016 0.14975 0.2423 1.5089 0.20614 1.5089-0.0401zm10.565-0.44358c0-0.11778-0.0964-0.21415-0.21415-0.21415-0.11778 0-0.21416 0.0964-0.21416 0.21415 0 0.11779 0.0964 0.21416 0.21416 0.21416 0.11777 0 0.21415-0.0964 0.21415-0.21416zm-33.865-5.2337c0.1376-0.72149-1.5111-1.1495-2.1123-0.54836-0.32424 0.32426-0.37044 0.65438-0.10706 0.76496 0.0982 0.0412 0.6275 0.0626 1.1763 0.0476 0.80243-0.022 1.0067-0.0737 1.043-0.26419zm15.091 56.653c-0.1213-0.29032-0.26025-0.8175-0.30877-1.1715-0.0813-0.5931-0.10714-0.62648-0.32934-0.42539-0.37764 0.34175-0.4726 0.26103-0.36538-0.31053 0.12072-0.64347 0.63003-1.6768 0.76161-1.5452 0.0866 0.0866 0.17523 0.51936 0.59907 2.9258 0.17269 0.98049-0.0379 1.291-0.35719 0.52676zm-2.0703-3.4904c0-0.54802 2.298-2.714 2.7275-2.5709 0.17611 0.0587-1.6667 2.0907-2.3142 2.5518-0.40149 0.28588-0.41331 0.28643-0.41331 0.0192zm-4.0991-1.9819c-0.37148-0.53657-0.78676-1.6171-0.62148-1.6171 0.16719 0 0.572 0.51455 0.9326 1.1854 0.20352 0.37865 0.23787 0.56577 0.12463 0.67899-0.11323 0.11325-0.23332 0.0451-0.43575-0.24729zm5.955-2.8794c0-0.16545 1.7101-1.792 2.1058-2.003 0.62343-0.33233 0.30986 0.11163-0.78522 1.1117-1.0691 0.97629-1.3206 1.1461-1.3206 0.89127zm-3.8547-1.5698c0-0.0657 0.25089-0.46987 0.55752-0.89808 0.77362-1.0804 0.92271-1.7374 0.80574-3.551-0.0532-0.82448-0.13374-1.6597-0.17903-1.856l-0.0824-0.35692 0.35672 0.32701c0.7589 0.6957 1.5581 2.9368 1.3471 3.7775-0.19436 0.77431-2.8057 3.1546-2.8057 2.5574zm4.383-1.0706c0.58989-0.98585 2.68-3.9495 2.7854-3.9495 0.2054 0-4e-3 0.82945-0.43263 1.7132-0.4152 0.8562-1.8613 2.4271-2.2342 2.4271-0.15594 0-0.19502-0.0629-0.1185-0.19081zm2.0616-7.2687c-0.97049-0.48509-1.6845-0.90865-1.5867-0.94124 0.73447-0.24483 3.7081 1.0753 3.7081 1.6462 0 0.30906-0.27691 0.21705-2.1214-0.70491zm18.393-2.3244c-0.20031-0.24135-1.8524-2.9279-1.8524-3.0123 0-0.0291 0.1247-0.0529 0.27711-0.0529s0.30862-0.051 0.34715-0.11331c0.0385-0.0623-0.19677-0.63703-0.52286-1.2771s-0.5427-1.214-0.48135-1.2753c0.15232-0.15232 0.98769 0.85249 1.5058 1.8113 1.0402 1.9248 1.6065 4.98 0.72652 3.9197zm-39.499-2.1566c-0.15929-0.41514 0.16361-0.69071 0.89859-0.76692 1.0813-0.11211 2.1409-0.78952 3.0351-1.9403 0.42105-0.54192 0.83864-0.9853 0.92799-0.9853 0.29759 0 0.26284 0.92069-0.0599 1.5874-0.39509 0.81614-1.3673 1.4779-2.9011 1.9746-1.307 0.42324-1.776 0.45549-1.9007 0.13065zm15.453-4.166c0.41523-0.70293 0.75534-1.0959 0.85887-0.99238 0.15271 0.15272-0.22436 0.95046-0.56059 1.186-0.45493 0.31865-0.56042 0.25019-0.29828-0.19358zm9.7361-0.82397c-0.0461-0.0461-0.61146-0.26657-1.2563-0.48985l-1.1724-0.40597 0.55434-0.2334c1.1956-0.50339 2.3385-0.40348 2.8825 0.25194 0.26918 0.32434-0.0978 0.95866-0.55545 0.96004-0.20285 5.3e-4 -0.40657-0.0366-0.4527-0.0828zm-19.462-0.53503c-0.11504-0.29973 0.041-0.95154 0.2276-0.95154 0.23014 0 0.22242 0.81767-0.0102 1.0589-0.0754 0.0783-0.16296 0.035-0.21762-0.1074zm1.0143-2.1651c0.13603-0.83288 0.34296-1.1247 0.34836-0.49128 0 0.27945-0.096 0.6328-0.21865 0.78522-0.20871 0.25941-0.21702 0.24062-0.12971-0.29394zm1.6898-2.842c0.65636-0.59511 2.8635-2.0834 3.0897-2.0834 0.30037 0-4e-3 0.26014-1.4641 1.2501-1.8301 1.2411-2.3943 1.5303-1.6256 0.83337zm7.3743-0.76284c3e-3 -0.13116 1.367-1.0351 1.5617-1.0351 0.30363 0-0.0593 0.45463-0.62989 0.789-0.60784 0.35622-0.93657 0.44302-0.93185 0.24606zm1.9734-0.57107c0.34603-0.4814 1.1649-1.2714 1.1649-1.1238 0 0.39541-0.92402 1.5164-1.25 1.5164-0.14709 0-0.12549-0.0997 0.085-0.39261zm1.4961-0.78522c0.0422-0.17668 0.12135-0.64245 0.17601-1.0351 0.13862-0.99553 0.26808-1.2039 0.49014-0.78902 0.30633 0.57239-0.12464 2.1453-0.58781 2.1453-0.0882 0-0.12195-0.13836-0.0783-0.32123zm-15.75-1.9345c0-0.23712 0.35705-0.45686 0.74238-0.45686 0.43637 0 0.55745 0.33725 0.17396 0.48441-0.32462 0.12456-0.91634 0.10677-0.91634-0.0276zm-3.1796-0.61275c-0.66893-0.38944 0.45526-0.57622 1.1879-0.19736 0.23165 0.1198 0.42121 0.24829 0.42121 0.28553 0 0.13152-1.3598 0.057-1.6091-0.0882zm6.4276-0.0939c-0.37777-0.0858-0.29926-0.32133 0.10705-0.32133 0.19631 0 0.35694 0.0605 0.35694 0.13434 0 0.18606-0.16873 0.25405-0.46399 0.18699zm-16.384-0.89535c-0.18513-0.34593-0.0764-0.56812 0.27806-0.56812 0.40119 0 0.65776 0.3769 0.43739 0.64245-0.24665 0.29714-0.53252 0.26743-0.71545-0.0743zm7.3541-0.13982c0.0486-0.0785 0.21293-0.14277 0.36536-0.14277 0.15238 0 0.27708 0.0642 0.27708 0.14277 0 0.0785-0.16441 0.14277-0.36536 0.14277-0.2072 0-0.32715-0.0618-0.27708-0.14277zm5.0754-0.13832c-0.29349-0.18138-0.0615-0.60335 0.30223-0.54984 0.17089 0.0251 0.33568 0.12166 0.36622 0.2145 0.0754 0.22923-0.4299 0.48275-0.66845 0.33534zm3.0001 3e-3c-0.16986-0.1066-0.17294-0.16716-0.0183-0.35366 0.21362-0.25742 0.80189-0.3009 0.94472-0.0698 0.18826 0.3046-0.56636 0.64951-0.92654 0.42349zm3.0842-0.24557c-0.16431-0.16427-0.10398-0.33312 0.11898-0.33312 0.11774 0 0.21411 0.0964 0.21411 0.21415 0 0.22294-0.16884 0.28325-0.33309 0.11897zm-8.4854-0.38243c-0.69371-0.17009-0.72743-0.42894-0.0644-0.49465 0.52556-0.0521 1.0307 0.18193 1.0307 0.47757 0 0.23179-0.0845 0.23329-0.96631 0.0171zm-4.0306-0.23625c0.0841-0.15704 0.18271-0.28553 0.21919-0.28553 0.0367 0 0.0664 0.12849 0.0664 0.28553 0 0.16154-0.0952 0.28554-0.21918 0.28554-0.17494 0-0.18832-0.0576-0.0664-0.28554zm11.615-0.0732c-0.10748-0.28009 0.19507-0.64064 0.5376-0.64064 0.18756 0 0.26807 0.10261 0.26807 0.34165 0 0.4811-0.64406 0.72012-0.80567 0.29899zm-9.8382-0.51031c-0.13496-0.2183 0.15788-0.47095 0.42638-0.36792 0.12308 0.0472 0.22377 0.18425 0.22377 0.3045 0 0.24951-0.50473 0.29875-0.65015 0.0634zm-0.92034-0.35291c0-0.12241 0.0643-0.18286 0.14278-0.13434 0.0785 0.0485 0.14278 0.14869 0.14278 0.22258 0 0.0739-0.0643 0.13434-0.14278 0.13434-0.0785 0-0.14278-0.10016-0.14278-0.22258zm7.3747-0.18127c-0.31065-0.34324-0.29872-0.55647 0.0372-0.66305 0.34048-0.10808 1.0115 0.0502 1.0115 0.23858 0 0.14042-0.56787 0.67189-0.72743 0.6808-0.0469 3e-3 -0.19129-0.11273-0.32122-0.25633zm-14.37-0.29251c0-0.41131 0.34906-0.64186 0.56959-0.37616 0.143 0.17234 0.14332 0.25913 0 0.43007-0.24746 0.29816-0.5711 0.26761-0.5711-0.0539zm12.373 0.17288c-0.0523-0.0524-0.0952-0.20609-0.0952-0.34164 0-0.35056 0.43459-0.47543 0.70352-0.20216 0.2043 0.20762 0.19955 0.24659-0.0529 0.43355-0.30859 0.22877-0.41586 0.25005-0.55567 0.11025zm14.245-0.25007c-0.32687-0.23901-0.15711-0.49775 0.18499-0.28196 0.26735 0.16864 0.4103 0.48444 0.2193 0.48444-0.0701 0-0.25199-0.0911-0.40429-0.20248zm-16.275-0.0955c-0.13873-0.22448 0.16118-0.46968 0.44247-0.36175 0.19474 0.0747 0.20666 0.13198 0.0635 0.3045-0.20894 0.25171-0.37421 0.27042-0.50598 0.0573zm-7.5675-0.14402c-0.15308-0.24777 0.32538-0.65451 0.52967-0.45023 0.12654 0.12654 0.1226 0.21892-0.0167 0.38649-0.21535 0.2595-0.3796 0.27989-0.51321 0.0637zm5.4398-0.11913c-0.0945-0.15291 0.27363-0.4678 0.39957-0.34183 0.0518 0.0517 0.0939 0.14061 0.0939 0.19764 0 0.16009-0.40971 0.27979-0.49351 0.14419zm8.6893-0.31714c-0.12113-0.19601 0.31826-0.54941 0.68313-0.54941 0.34259 0 0.33056 0.37954-0.0178 0.56605-0.35753 0.19134-0.53948 0.18679-0.66521-0.0166zm9.9357-0.19249c-0.27483-0.10584-0.69243-0.19936-0.92799-0.20783-0.40801-0.0147-0.41518-0.0253-0.15118-0.22502 0.15242-0.11528 0.42866-0.20961 0.61386-0.20961 0.46517 0 1.1792 0.39123 1.1792 0.64613 0 0.24904-0.0584 0.24874-0.71384-4e-3zm-3.4939-0.9216c-0.14713-0.23804 0.76142-0.5957 1.3961-0.54959 0.63085 0.0459 0.74169 0.271 0.20341 0.41318-0.75288 0.19886-1.5204 0.26432-1.5995 0.13641zm6.9259-3.4925c-0.16795-0.34692-0.34321-0.87695-0.38947-1.1778-0.0991-0.64465-0.30137-0.94553-0.56705-0.84358-0.28656 0.10996-0.23726-0.40997 0.10192-1.0748 0.35253-0.69101 0.60016-0.65795 0.73353 0.0979 0.2962 1.6788 0.55288 3.024 0.63119 3.3079 0.15427 0.55932-0.19091 0.34986-0.51012-0.30955zm-24.415 0.0954c5e-3 -0.29632 0.93544-1.6061 1.142-1.6061 0.17715 0-0.17062 0.86059-0.58028 1.436-0.33682 0.47295-0.56695 0.54268-0.56167 0.17017zm11.921-1.4991c-0.11995-0.36503-0.54256-2.0481-0.60942-2.427-0.0937-0.53132 0.0927-0.49564 0.94974 0.18178 0.67207 0.53127 0.72668 0.62051 0.72668 1.1886 0 0.45748-0.0843 0.69348-0.33045 0.92467-0.37092 0.34845-0.64903 0.39828-0.73655 0.13196zm-10.323-2.1963c-0.43734-0.44403-0.4872-0.54893-0.2814-0.59203 0.3394-0.0711 1.4631 0.56492 1.4631 0.82806 0 0.44412-0.6371 0.31686-1.1817-0.23603zm20.527-0.46736c0-0.35637 1.3-1.5194 1.9312-1.7277 1.0762-0.35519 0.98342-0.0802-0.32555 0.96493-0.71303 0.56928-1.366 1.0351-1.451 1.0351-0.085 0-0.15458-0.12253-0.15458-0.2723zm-18.274-1.416c0-0.20536 0.65091-0.73873 0.9015-0.73873 0.38953 0 0.27568 0.40286-0.18055 0.63879-0.46901 0.24253-0.72095 0.27746-0.72095 0.0999zm14.562-8.5825c0-0.0739 0.0585-0.17047 0.12989-0.21462 0.18449-0.11402 0.59814 0.0677 0.50333 0.22115-0.10508 0.17001-0.63322 0.16455-0.63322-6e-3zm21.272-4.1313c0-0.16281 1.5558-1.3645 1.6477-1.2726 0.0385 0.0385-0.24951 0.36878-0.63998 0.734-0.67835 0.63452-1.0077 0.81056-1.0077 0.53865zm8.9456-6.6635c0.075-0.19556 3.7555-3.035 4.8003-3.7034 0.98022-0.62707 0.41976 0.35968-0.78297 1.3785-0.95039 0.80506-2.2484 1.6813-3.2142 2.1698-0.86974 0.43988-0.91574 0.44877-0.80306 0.15511zm3.1912-4.7021c-0.29082-0.35041-0.0743-0.58478 0.9011-0.97524 0.50983-0.2041 1.8777-0.80273 3.0397-1.3303 1.943-0.88214 2.205-0.96367 3.2612-1.0149 1.3827-0.0671 1.3955-0.08-1.2354 1.252-1.6693 0.84522-2.1865 1.0353-3.5335 1.2988-0.8679 0.16978-1.578 0.35985-1.578 0.42239 0 0.0625 0.30518 0.15481 0.67816 0.20506 1.4204 0.19136 1.4276 0.3316 0.0175 0.34317-1.0527 9e-3 -1.4158-0.0384-1.5507-0.20107z" fill="#b8210b"/></g></svg>
