<?xml version="1.0" encoding="UTF-8"?>
<svg id="a" viewBox="0 0 72 72" xmlns="http://www.w3.org/2000/svg"><g id="b"><path d="M59.0349,60H12.9651 C12.4343,60,12,59.5657,12,59.0349V12.9651C12,12.4343,12.4343,12,12.9651,12h46.0698C59.5657,12,60,12.4343,60,12.9651v46.0698 C60,59.5657,59.5657,60,59.0349,60z" fill="#d0cfce" stroke-linejoin="round" stroke-miterlimit="10" stroke-width="2"/></g><g id="c" fill="none" stroke="#000" stroke-linejoin="round" stroke-miterlimit="10" stroke-width="2"><path d="M59.0349,60H12.9651 C12.4343,60,12,59.5657,12,59.0349V12.9651C12,12.4343,12.4343,12,12.9651,12h46.0698C59.5657,12,60,12.4343,60,12.9651v46.0698 C60,59.5657,59.5657,60,59.0349,60z"/><path d="m30.11 47.005v-22h8.3889c3.0263 0 5.4793 2.4533 5.4793 5.4796v0c0 3.0263-2.453 5.4793-5.4793 5.4793h-8.3889" stroke-linecap="round"/></g></svg>
