<?xml version="1.0" encoding="UTF-8"?>
<svg id="a" viewBox="0 0 72 72" xmlns="http://www.w3.org/2000/svg"><g id="b"><path id="c" d="M59.0349,60h-46.07A.9679.9679,0,0,1,12,59.0349v-46.07A.9679.9679,0,0,1,12.9651,12h46.07A.9679.9679,0,0,1,60,12.9651v46.07A.9679.9679,0,0,1,59.0349,60Z" fill="#92d3f5"/></g><g id="d"><g id="e"><path d="M59.0349,60h-46.07A.9679.9679,0,0,1,12,59.0349v-46.07A.9679.9679,0,0,1,12.9651,12h46.07A.9679.9679,0,0,1,60,12.9651v46.07A.9679.9679,0,0,1,59.0349,60Z" fill="none" stroke="#000" stroke-miterlimit="10" stroke-width="2"/><path d="m30.426 30.015v6.75a3.75 3.75 0 0 1-3.75 3.75h0a3.75 3.75 0 0 1-3.75-3.75v-6.75" fill="none" stroke="#000" stroke-linecap="round" stroke-linejoin="round" stroke-width="2"/><path d="m35.648 40.47v-10.5h4.0038a2.6151 2.6151 0 0 1 2.6151 2.6153h0a2.6149 2.6149 0 0 1-2.6151 2.6147h-4.0038" fill="none" stroke="#000" stroke-linecap="round" stroke-linejoin="round" stroke-width="2"/><line x1="49.869" x2="49.869" y1="29.97" y2="36.456" fill="none" stroke="#000" stroke-linecap="round" stroke-linejoin="round" stroke-width="2"/><circle cx="49.869" cy="40.47" r="1.5"/></g></g></svg>
