<?xml version="1.0" encoding="UTF-8"?>
<svg id="a" viewBox="0 0 72 72" xmlns="http://www.w3.org/2000/svg"><g id="b"><rect x="5" y="17" width="62" height="38" fill="#fcea2b"/><polygon points="12 48 36 36 12 24" fill="#5c9e31"/><polygon points="60 48 36 36 60 24" fill="#5c9e31"/><circle cx="36" cy="36" r="5" fill="#d22f27"/><polygon points="36 33.5 37.545 38.5 33.5 35.41 38.5 35.41 34.455 38.5" fill="#fcea2b" stroke="#fcea2b" stroke-linecap="round" stroke-linejoin="round"/><path d="M5,17V55H67V17ZM60,48H12V24H60Z" fill="#d22f27"/><polygon points="35.105 22.242 36.024 19.547 36.816 22.2 34.616 20.602 37.384 20.535" fill="#fcea2b" stroke="#fcea2b" stroke-linecap="round" stroke-linejoin="round"/><polygon points="45.105 22.242 46.024 19.547 46.816 22.2 44.616 20.602 47.384 20.535" fill="#fcea2b" stroke="#fcea2b" stroke-linecap="round" stroke-linejoin="round"/><polygon points="25.105 22.242 26.024 19.547 26.816 22.2 24.616 20.602 27.384 20.535" fill="#fcea2b" stroke="#fcea2b" stroke-linecap="round" stroke-linejoin="round"/><polygon points="35.105 52.242 36.024 49.547 36.816 52.2 34.616 50.602 37.384 50.535" fill="#fcea2b" stroke="#fcea2b" stroke-linecap="round" stroke-linejoin="round"/><polygon points="45.105 52.242 46.024 49.547 46.816 52.2 44.616 50.602 47.384 50.535" fill="#fcea2b" stroke="#fcea2b" stroke-linecap="round" stroke-linejoin="round"/><polygon points="25.105 52.242 26.024 49.547 26.816 52.2 24.616 50.602 27.384 50.535" fill="#fcea2b" stroke="#fcea2b" stroke-linecap="round" stroke-linejoin="round"/><g stroke-linecap="round" stroke-linejoin="round"><path d="m18.631 37.917a6.7812 6.7812 0 0 0-1.258-2.6215 6.7812 6.7812 0 0 0 2.6215 1.258 1.7666 1.7666 0 0 0-1.5618-2.1251c-0.0249-0.0023-0.05-0.0017-0.0749-3e-3l0.0025-0.0022h-0.0623c-0.0284-5e-4 -0.0566-0.0012-0.0849 0a5.7735 5.7735 0 0 1-2.09-0.3772 5.7764 5.7764 0 0 1 0.3771 2.0977c-8e-4 0.0321-6e-4 0.0642 0 0.0963v0.0428l0.0018-0.0021a1.7633 1.7633 0 0 0 2.1285 1.6363z" fill="#fcea2b" stroke="#fcea2b"/><path d="m18.801 36.277a1.77 1.77 0 0 1 0.4464 0.8929 1.5782 1.5782 0 0 1-1.3393-1.3393 1.77 1.77 0 0 1 0.8929 0.4464z" fill="#d22f27" stroke="#d22f27"/></g></g><g id="c"><rect x="5" y="17" width="62" height="38" fill="none" stroke="#000" stroke-linecap="round" stroke-linejoin="round" stroke-width="2"/></g></svg>
