<?xml version="1.0" encoding="UTF-8"?>
<svg id="a" viewBox="0 0 72 72" xmlns="http://www.w3.org/2000/svg"><g id="b"><rect x="5" y="17" width="62" height="38" fill="#fcea2b"/><rect x="5" y="45" width="62" height="10" fill="#d22f27"/><rect x="5" y="36" width="62" height="9" fill="#1e50a0"/><ellipse cx="36" cy="36" rx="4.5" ry="6" fill="#92d3f5"/><path d="m40.5 36c0 3.3137-2.0147 6-4.5 6s-4.5-2.6863-4.5-6z" fill="#5c9e31"/><line x1="36" x2="36" y1="46" y2="42" fill="none" stroke="#d22f27" stroke-miterlimit="10" stroke-width="2"/><path d="m42.065 42a10.928 10.928 0 0 0 2.4348-7v-5h1.5" fill="none" stroke="#f1b31c" stroke-linecap="round" stroke-linejoin="round" stroke-width="2"/><path d="m26 30h1.5v5a10.928 10.928 0 0 0 2.4348 7" fill="none" stroke="#f1b31c" stroke-linecap="round" stroke-linejoin="round" stroke-width="2"/><path d="m29 26c3.5-1 5.25 0 7 3 1.75-3 3.5-4 7-3" fill="none" stroke="#6a462f" stroke-linecap="round" stroke-linejoin="round" stroke-width="2"/><ellipse cx="36" cy="36" rx="4.5" ry="6" fill="none" stroke="#d22f27" stroke-miterlimit="10" stroke-width="2"/></g><g id="c"><rect x="5" y="17" width="62" height="38" fill="none" stroke="#000" stroke-linecap="round" stroke-linejoin="round" stroke-width="2"/></g></svg>
