<?xml version="1.0" encoding="UTF-8"?>
<svg id="a" viewBox="0 0 72 72" xmlns="http://www.w3.org/2000/svg"><g id="b"><rect x="5" y="17" width="62" height="38" fill="#1e50a0"/><path d="m36.002 46.5a11.736 11.736 0 0 0 5.9982-10.5 11.736 11.736 0 0 0-6-10.5 11.736 11.736 0 0 0-6 10.5 11.736 11.736 0 0 0 5.9982 10.5z" fill="#92d3f5" stroke="#d22f27" stroke-linecap="round" stroke-linejoin="round"/><path d="m30.64 40a11.242 11.242 0 0 0 5.3581 6.5h0.0035a11.242 11.242 0 0 0 5.3584-6.5z" fill="#fcea2b"/><rect x="7" y="19" width="58" height="34" fill="none" stroke="#d22f27" stroke-miterlimit="10" stroke-width="2"/><line x1="28" x2="44" y1="39" y2="39" fill="none" stroke="#1e50a0" stroke-linecap="round" stroke-linejoin="round" stroke-width="2"/><path d="m36.002 46.5a11.736 11.736 0 0 0 5.9982-10.5 11.736 11.736 0 0 0-6-10.5 11.736 11.736 0 0 0-6 10.5 11.736 11.736 0 0 0 5.9982 10.5z" fill="none" stroke="#d22f27" stroke-linecap="round" stroke-linejoin="round" stroke-width="2"/></g><g id="c"><rect x="5" y="17" width="62" height="38" fill="none" stroke="#000" stroke-linecap="round" stroke-linejoin="round" stroke-width="2"/></g></svg>
