<?xml version="1.0" encoding="UTF-8"?>
<svg id="a" viewBox="0 0 72 72" xmlns="http://www.w3.org/2000/svg"><g id="b"><rect x="5" y="17" width="62" height="38" fill="#1e50a0"/><rect x="5" y="17" width="62" height="13" fill="#d22f27"/><rect x="5" y="30" width="62" height="12" fill="#fff"/><path d="M40.5,43.7918A6.7093,6.7093,0,0,0,42.4885,42H40.5Z" fill="#d22f27"/><path d="M37.5,42v2.88a8.4378,8.4378,0,0,0,3-1.0877V42Z" fill="#fff"/><path d="M34.5,42v2.88a9.3963,9.3963,0,0,0,3,0V42Z" fill="#d22f27"/><path d="M31.5,42v1.7918a8.4378,8.4378,0,0,0,3,1.0877V42Z" fill="#fff"/><path d="M29.5115,42A6.7093,6.7093,0,0,0,31.5,43.7918V42Z" fill="#d22f27"/><path d="M40.5,42h1.9885A5.0877,5.0877,0,0,0,43.5,39h-3Z" fill="#fff"/><rect x="37.5" y="39" width="3" height="3" fill="#d22f27"/><rect x="34.5" y="39" width="3" height="3" fill="#fff"/><rect x="31.5" y="39" width="3" height="3" fill="#d22f27"/><path d="M31.5,39h-3a5.0877,5.0877,0,0,0,1.0115,3H31.5Z" fill="#fff"/><rect x="40.5" y="36" width="3" height="3" fill="#d22f27"/><rect x="37.5" y="36" width="3" height="3" fill="#fff"/><rect x="34.5" y="36" width="3" height="3" fill="#d22f27"/><rect x="31.5" y="36" width="3" height="3" fill="#fff"/><rect x="28.5" y="36" width="3" height="3" fill="#d22f27"/><rect x="40.5" y="33" width="3" height="3" fill="#fff"/><rect x="37.5" y="33" width="3" height="3" fill="#d22f27"/><rect x="34.5" y="33" width="3" height="3" fill="#fff"/><rect x="31.5" y="33" width="3" height="3" fill="#d22f27"/><rect x="28.5" y="33" width="3" height="3" fill="#fff"/><rect x="40.5" y="30" width="3" height="3" fill="#d22f27"/><rect x="37.5" y="30" width="3" height="3" fill="#fff"/><rect x="34.5" y="30" width="3" height="3" fill="#d22f27"/><rect x="31.5" y="30" width="3" height="3" fill="#fff"/><rect x="28.5" y="30" width="3" height="3" fill="#d22f27"/><path d="m43.5 39c0 3.3137-3.3579 6-7.5 6s-7.5-2.6863-7.5-6v-9h15z" fill="none" stroke="#d22f27" stroke-miterlimit="10"/><path d="M30.1872,24.3719,31.84,22.5087l2.1937,1.2321L36,22.1781l1.9663,1.5627L40.16,22.5087l1.6528,1.8632L44.1869,23.5l1.2922,2.104L43.5,30a15.9375,15.9375,0,0,0-15,0l-1.9791-4.396L27.8131,23.5Z" fill="#61b2e4" stroke="#61b2e4" stroke-linecap="round" stroke-linejoin="round"/><polygon points="37.619 28.21 37.966 23.741 40.16 22.509 41.813 24.372 40.674 28.83" fill="#1e50a0" stroke="#1e50a0" stroke-miterlimit="10" stroke-width=".25"/><polygon points="34.381 28.21 34.034 23.741 31.84 22.509 30.187 24.372 31.326 28.83" fill="#1e50a0" stroke="#1e50a0" stroke-miterlimit="10" stroke-width=".25"/><path d="M30.1872,24.3719,31.84,22.5087l2.1937,1.2321L36,22.1781l1.9663,1.5627L40.16,22.5087l1.6528,1.8632L44.1869,23.5l1.2922,2.104L43.5,30a15.9375,15.9375,0,0,0-15,0l-1.9791-4.396L27.8131,23.5Z" fill="none" stroke="#1e50a0" stroke-linecap="round" stroke-linejoin="round"/></g><g id="c"><rect x="5" y="17" width="62" height="38" fill="none" stroke="#000" stroke-linecap="round" stroke-linejoin="round" stroke-width="2"/></g></svg>
