<?xml version="1.0" encoding="UTF-8"?>
<svg id="a" viewBox="0 0 72 72" xmlns="http://www.w3.org/2000/svg"><g id="b"><rect x="5" y="17" width="62" height="38" fill="#1e50a0"/><polygon points="9.887 18 6 18 6 20.332 32.113 36 36 36 36 33.668" fill="#fff"/><polygon points="36 20.332 36 18 32.113 18 6 33.668 6 36 9.887 36" fill="#fff"/><rect x="6" y="24" width="30" height="6" fill="#fff"/><rect x="18" y="18" width="6" height="18" fill="#fff"/><rect x="20" y="18" width="2" height="18" fill="#d22f27"/><rect x="6" y="26" width="30" height="2" fill="#d22f27"/><polygon points="36 33.668 29.887 30 26 30 36 36 36 35.999" fill="#d22f27"/><polygon points="36 18 32.113 18 24 22.868 24 24 26.001 24 36 18.001" fill="#d22f27"/><polygon points="6 20.332 12.113 24 16.001 24 6.001 18 6 18.001" fill="#d22f27"/><polygon points="6 36 9.887 36 18 31.132 18 30 16 30 6 35.999" fill="#d22f27"/><polygon points="50.954 36 52.259 38.26 53.564 40.521 50.954 40.521 48.344 40.521 49.649 38.26" fill="#5c9e31" stroke="#5c9e31" stroke-linecap="round" stroke-linejoin="round"/><path d="M55.0483,41.7818c0,5.4893-1.8016,9.9393-4.0241,9.9393S47,47.2711,47,41.7818Z" fill="#fff"/><path d="M54.0279,42.7818c-.2013,4.8789-1.8477,7.9393-3.0037,7.9393s-2.8025-3.06-3.0038-7.9393h6.0075m1.02-1H47c0,5.4893,1.8017,9.9393,4.0242,9.9393s4.0241-4.45,4.0241-9.9393Z"/><ellipse transform="translate(-14.787 30.215) rotate(-31.65)" cx="45.906" cy="41.193" rx="1" ry=".5" fill="#a57939" stroke="#6a462f" stroke-miterlimit="10"/><ellipse transform="translate(-19.691 30.427) rotate(-31.65)" cx="43.828" cy="49.95" rx=".5" ry="1" fill="#a57939" stroke="#6a462f" stroke-miterlimit="10"/><path d="m40.757 49.472c-1.3634-0.3235-1.9723-2.6772-1.36-5.2572s2.2138-4.4091 3.5772-4.0856a2.0232 2.0232 0 0 1 1.3007 1.4393l-1.7092 7.2022a2.0226 2.0226 0 0 1-1.8087 0.7013z" fill="#a57939" stroke="#6a462f" stroke-miterlimit="10"/><ellipse transform="translate(-8.4062 67.329) rotate(-58.35)" cx="56.094" cy="41.193" rx=".5" ry="1" fill="#a57939" stroke="#6a462f" stroke-miterlimit="10"/><ellipse transform="translate(-14.873 73.26) rotate(-58.35)" cx="58.172" cy="49.95" rx="1" ry=".5" fill="#a57939" stroke="#6a462f" stroke-miterlimit="10"/><path d="m61.243 49.472c1.3634-0.3235 1.9723-2.6772 1.36-5.2572s-2.2138-4.4091-3.5772-4.0856a2.0232 2.0232 0 0 0-1.3007 1.4393l1.7092 7.2022a2.0226 2.0226 0 0 0 1.8087 0.7013z" fill="#a57939" stroke="#6a462f" stroke-miterlimit="10"/><path d="M53.5645,48.0205a.5009.5009,0,0,1-.3477-.1406l-2.2627-2.1846L48.6914,47.88a.5.5,0,0,1-.6953-.7188l2.61-2.52a.5.5,0,0,1,.6954,0l2.61,2.52a.5.5,0,0,1-.3476.8594Z" fill="#5c9e31"/><path d="M54.0279,42.7818c-.2013,4.8789-1.8477,7.9393-3.0037,7.9393s-2.8025-3.06-3.0038-7.9393h6.0075m1.02-1H47c0,5.4893,1.8017,9.9393,4.0242,9.9393s4.0241-4.45,4.0241-9.9393Z"/><ellipse transform="translate(-7.3995 14.343) rotate(-13.35)" cx="57.578" cy="38.785" rx="1" ry="1.5" fill="#a57939" stroke="#6a462f" stroke-miterlimit="10"/><ellipse transform="translate(-3.5722 73.051) rotate(-76.65)" cx="44.422" cy="38.785" rx="1.5" ry="1" fill="#a57939" stroke="#6a462f" stroke-miterlimit="10"/></g><g id="c"><rect x="5" y="17" width="62" height="38" fill="none" stroke="#000" stroke-linecap="round" stroke-linejoin="round" stroke-width="2"/></g></svg>
