<?xml version="1.0" encoding="UTF-8"?>
<svg id="a" viewBox="0 0 72 72" xmlns="http://www.w3.org/2000/svg"><g id="b"><rect x="5" y="17" width="62" height="38"/><rect x="5" y="17" width="62" height="13" fill="#1e50a0"/><line x1="25.284" x2="46.716" y1="36.063" y2="48.437" fill="#5c9e31" stroke="#5c9e31" stroke-linecap="round" stroke-linejoin="round" stroke-width="4"/><polygon points="36 37.832 37.293 35.75 37.691 38.168 39.682 36.74 39.124 39.126 41.51 38.568 40.082 40.559 42.5 40.957 40.418 42.25 42.5 43.543 40.082 43.941 41.51 45.932 39.124 45.374 39.682 47.76 37.691 46.332 37.293 48.75 36 46.668 34.707 48.75 34.309 46.332 32.318 47.76 32.876 45.374 30.49 45.932 31.918 43.941 29.5 43.543 31.582 42.25 29.5 40.957 31.918 40.559 30.49 38.568 32.876 39.126 32.318 36.74 34.309 38.168 34.707 35.75" fill="#f1b31c" stroke="#f1b31c" stroke-linecap="round" stroke-linejoin="round"/><g fill="#f1b31c" stroke="#f1b31c" stroke-linecap="round" stroke-linejoin="round" stroke-width="2"><line x1="36" x2="36" y1="21.25" y2="27.25"/><line x1="37.5" x2="34.5" y1="25.25" y2="25.25"/><line x1="23" x2="23" y1="21.25" y2="27.25"/><line x1="24.5" x2="21.5" y1="25.25" y2="25.25"/><line x1="49" x2="49" y1="21.25" y2="27.25"/><line x1="50.5" x2="47.5" y1="25.25" y2="25.25"/></g></g><g id="c"><rect x="5" y="17" width="62" height="38" fill="none" stroke="#000" stroke-linecap="round" stroke-linejoin="round" stroke-width="2"/></g></svg>
