<?xml version="1.0" encoding="UTF-8"?>
<svg id="a" viewBox="0 0 72 72" xmlns="http://www.w3.org/2000/svg"><g id="b"><rect x="5.0834" y="17" width="62" height="38" fill="#1e50a0"/><rect x="5.0834" y="49" width="62" height="6" fill="#d22f27"/><rect x="5" y="17" width="62" height="6" fill="#d22f27"/><circle cx="36.083" cy="36" r="9" fill="#fff"/><circle cx="36.083" cy="36" r="7.5" fill="#fff" stroke="#5c9e31" stroke-miterlimit="10"/><polygon points="38.583 38.5 36.083 38.5 36.083 33 39.083 33" fill="#fcea2b"/><path d="M36.0833,41a4.9451,4.9451,0,0,0,2.5876-2.2291L36,36.1l-2.5576,2.5576A4.9084,4.9084,0,0,0,36.0833,41Z" fill="#61b2e4" stroke="#61b2e4" stroke-linecap="round" stroke-linejoin="round"/><path d="m36.083 41s3-1 3-4v-4h-6v4c0 3 3 4 3 4z" fill="none" stroke="#000" stroke-linecap="round" stroke-linejoin="round"/></g><g id="c"><rect x="5.0834" y="17" width="62" height="38" fill="none" stroke="#000" stroke-linecap="round" stroke-linejoin="round" stroke-width="2"/></g></svg>
