<?xml version="1.0" encoding="UTF-8"?>
<svg id="a" viewBox="0 0 72 72" xmlns="http://www.w3.org/2000/svg"><g id="b"><rect x="5" y="17" width="62" height="38" fill="#1e50a0"/><polygon points="9.887 18 6 18 6 20.332 32.113 36 36 36 36 33.668" fill="#fff"/><polygon points="36 20.332 36 18 32.113 18 6 33.668 6 36 9.887 36" fill="#fff"/><rect x="6" y="24" width="30" height="6" fill="#fff"/><rect x="18" y="18" width="6" height="18" fill="#fff"/><rect x="20" y="18" width="2" height="18" fill="#d22f27"/><rect x="6" y="26" width="30" height="2" fill="#d22f27"/><polygon points="36 33.668 29.887 30 26 30 36 36 36 35.999" fill="#d22f27"/><polygon points="36 18 32.113 18 24 22.868 24 24 26.001 24 36 18.001" fill="#d22f27"/><polygon points="6 20.332 12.113 24 16.001 24 6.001 18 6 18.001" fill="#d22f27"/><polygon points="6 36 9.887 36 18 31.132 18 30 16 30 6 35.999" fill="#d22f27"/><line x1="48" x2="53" y1="30" y2="25" fill="#9b9b9a" stroke="#9b9b9a" stroke-linecap="round" stroke-linejoin="round" stroke-width="2"/><path d="M58,29c3.0744,4.7618-.8014,9.1557-4,10" fill="none" stroke="#fcea2b" stroke-linecap="round" stroke-linejoin="round" stroke-width="2"/><path d="m55.832 39.955c2 2 2.9548 6.2551 0.1682 10.045" fill="none" stroke="#fcea2b" stroke-linecap="round" stroke-linejoin="round" stroke-width="2"/><path d="m53 38.5q6 0 9 3" fill="none" stroke="#5c9e31" stroke-linecap="round" stroke-linejoin="round" stroke-width="2"/><path d="M44,29c-3.0744,4.7618.8014,9.1557,4,10" fill="none" stroke="#fcea2b" stroke-linecap="round" stroke-linejoin="round" stroke-width="2"/><path d="m46.168 39.955c-2 2-2.9548 6.2551-0.1682 10.045" fill="none" stroke="#fcea2b" stroke-linecap="round" stroke-linejoin="round" stroke-width="2"/><path d="m49 38.5q-6 0-9 3" fill="none" stroke="#5c9e31" stroke-linecap="round" stroke-linejoin="round" stroke-width="2"/><polyline points="50 36 50 28 51 27 54 36" fill="#9b9b9a" stroke="#9b9b9a" stroke-linecap="round" stroke-linejoin="round" stroke-width="2"/><path d="M55,35v3.625C55,44.25,53.6667,46.75,51,48c-2.6667-1.25-4-3.75-4-9.375V35Z" fill="#61b2e4" stroke="#61b2e4" stroke-linecap="round" stroke-linejoin="round" stroke-width="2"/></g><g id="c"><rect x="5" y="17" width="62" height="38" fill="none" stroke="#000" stroke-linecap="round" stroke-linejoin="round" stroke-width="2"/></g></svg>
