<?xml version="1.0" encoding="UTF-8"?>
<svg id="a" viewBox="0 0 72 72" xmlns="http://www.w3.org/2000/svg"><g id="b"><rect x="5" y="17" width="62" height="38" fill="#61b2e4"/><ellipse cx="36" cy="36" rx="10.466" ry="10.5" fill="none" stroke="#fff" stroke-miterlimit="10" stroke-width="3"/><path d="m46.466 35.932a10.466 10.466 0 1 1-20.932 0.137" fill="none" stroke="#fcea2b" stroke-linecap="round" stroke-linejoin="round"/><path d="m25.534 36.068a10.466 10.466 0 1 1 20.932-0.137" fill="none" stroke="#d22f27" stroke-linecap="round" stroke-linejoin="round"/><polygon points="40.5 50 31.5 50 34.5 32 37.5 32" fill="#9b9b9a" stroke="#9b9b9a" stroke-linecap="round" stroke-linejoin="round"/><polygon points="38.5 29 33.5 29 34.5 33 37.5 33" fill="#9b9b9a" stroke="#9b9b9a" stroke-linecap="round" stroke-linejoin="round"/><polygon points="32.122 42 36.105 30 39.539 41.816 30 34.696 42 34.4" fill="#fff" stroke="#fff" stroke-linecap="round" stroke-linejoin="round"/><path d="m25.747 38.116a10.642 10.642 0 0 1-0.0231-4.1161" fill="none" stroke="#5c9e31" stroke-linecap="round" stroke-linejoin="round"/><path d="m46.254 34a10.639 10.639 0 0 1 0.023 4.1158" fill="none" stroke="#5c9e31" stroke-linecap="round" stroke-linejoin="round"/></g><g id="c"><rect x="5" y="17" width="62" height="38" fill="none" stroke="#000" stroke-linecap="round" stroke-linejoin="round" stroke-width="2"/></g></svg>
