<?xml version="1.0" encoding="UTF-8"?>
<svg id="a" viewBox="0 0 72 72" xmlns="http://www.w3.org/2000/svg"><g id="b"><rect x="17" y="17" width="38" height="38" fill="#fff"/><rect x="17" y="17" width="19" height="38" fill="#fcea2b"/><ellipse cx="44.727" cy="29.86" rx="1.9462" ry="2.703" fill="#9b9b9a"/><g fill="none" stroke="#fcea2b" stroke-linecap="round" stroke-linejoin="round" stroke-width=".9103"><line x1="43.612" x2="45.842" y1="28.745" y2="28.745"/><line x1="43.612" x2="45.842" y1="29.86" y2="29.86"/><line x1="43.612" x2="45.842" y1="30.975" y2="30.975"/></g><path d="m40.202 42.284c2.54 2.54 6.8992 2.29 9.747-0.5575" fill="none" stroke="#d22f27" stroke-linecap="round" stroke-linejoin="round" stroke-width="1.1468"/><g fill="#9b9b9a"><path d="m47.934 36.139a3.2621 3.2621 0 1 0 3.9646 2.3588 3.2622 3.2622 0 0 0-3.9646-2.3588zm1.3 5.1189a2.0193 2.0193 0 1 1 1.46-2.4542 2.0193 2.0193 0 0 1-1.4601 2.4542z"/><rect transform="translate(-11.282 44.705) rotate(-48.848)" x="42.845" y="30.369" width="1.4686" height="8.8114" rx=".4164" ry=".4164"/><rect transform="translate(31.864 -18.399) rotate(41.152)" x="39.704" y="32.336" width="1.4686" height="1.8096" rx=".369" ry=".369"/><rect transform="translate(33.149 -19.09) rotate(41.152)" x="41.268" y="33.702" width="1.4686" height="1.8096" rx=".369" ry=".369"/></g><g fill="#fcea2b"><path d="m37.518 38.819a3.262 3.262 0 1 0 3.8347-2.5645 3.262 3.262 0 0 0-3.8347 2.5645zm1.2189 0.2419a2.0193 2.0193 0 1 1 1.5875 2.3739 2.0192 2.0192 0 0 1-1.5875-2.3739z"/><rect transform="translate(52.564 91.543) rotate(225.83)" x="44.895" y="30.257" width="1.4686" height="8.8114" rx=".4164" ry=".4164"/><rect transform="translate(106.58 22.682) rotate(135.83)" x="47.951" y="32.06" width="1.4686" height="1.8096" rx=".369" ry=".369"/><rect transform="translate(105.03 26.206) rotate(135.83)" x="46.462" y="33.507" width="1.4686" height="1.8096" rx=".369" ry=".369"/></g></g><g id="c"><rect x="17" y="17" width="38" height="38" fill="none" stroke="#000" stroke-linecap="round" stroke-linejoin="round" stroke-width="2"/></g></svg>
