<?xml version="1.0" encoding="UTF-8"?>
<svg id="a" viewBox="0 0 72 72" xmlns="http://www.w3.org/2000/svg"><g id="b"><rect x="5" y="17" width="62" height="38" fill="#d22f27"/><polygon points="15 17 5 17 36 36 36 34" fill="#f1b31c"/><polygon points="15 55 5 55 36 36 36 38" fill="#f1b31c"/><polygon points="57 17 67 17 36 36 36 34" fill="#f1b31c"/><polygon points="57 55 67 55 36 36 36 38" fill="#f1b31c"/><polygon points="33 55 39 55 37 36 35 36" fill="#f1b31c"/><polygon points="67 39 67 33 36 35 36 37" fill="#f1b31c"/><polygon points="5 39 5 33 36 35 36 37" fill="#f1b31c"/><polygon points="33 17 39 17 37 36 35 36" fill="#f1b31c"/><circle cx="36" cy="36" r="7" fill="#f1b31c" stroke="#d22f27" stroke-miterlimit="10"/></g><g id="c"><rect x="5" y="17" width="62" height="38" fill="none" stroke="#000" stroke-linecap="round" stroke-linejoin="round" stroke-width="2"/></g></svg>
