<?xml version="1.0" encoding="UTF-8"?>
<svg id="a" viewBox="0 0 72 72" xmlns="http://www.w3.org/2000/svg"><g id="b"><rect x="4" y="3.8981" width="64" height="64.102" fill="#e27022"/><polyline points="9.923 46 9.923 29 19.923 29 19.923 46" fill="#9b9b9a"/><rect x="33.923" y="33" width="13" height="35" fill="#9b9b9a"/><polyline points="50.923 68 50.923 37 66.923 37 66.923 68" fill="#d0cfce"/><polyline points="4.923 68 4.923 46 38.923 46 38.923 68" fill="#d0cfce"/><rect x="8.9231" y="49.004" width="2.9913" height="5.9965" fill="#fcea2b"/><rect x="14.923" y="49.004" width="2.9913" height="5.9965" fill="#fcea2b"/><rect x="26.923" y="49.004" width="2.9913" height="5.9965" fill="#fcea2b"/><rect x="32.923" y="49.004" width="2.9913" height="5.9965" fill="#fcea2b"/><rect x="54.923" y="40.004" width="2.9913" height="5.9965" fill="#fcea2b"/><rect x="60.923" y="50.004" width="2.9913" height="5.9965" fill="#fcea2b"/><rect x="60.923" y="60.004" width="2.9913" height="5.9965" fill="#fcea2b"/><rect x="54.923" y="60.004" width="2.9913" height="5.9965" fill="#fcea2b"/><rect x="32.923" y="59.004" width="2.9913" height="5.9965" fill="#fcea2b"/><rect x="20.923" y="59.004" width="2.9913" height="5.9965" fill="#fcea2b"/><rect x="8.9231" y="59.004" width="2.9913" height="5.9965" fill="#fcea2b"/></g><g id="c" fill="none" stroke="#000" stroke-linecap="round" stroke-linejoin="round" stroke-width="2"><polyline points="50.924 66.629 50.924 36.629 66.924 36.629 66.924 66.629"/><polyline points="4.924 66.629 4.924 45.629 38.924 45.629 38.924 66.629"/><polyline points="34.924 42.629 34.924 32.629 46.924 32.629 46.924 66.629"/><polyline points="10.924 42.629 10.924 28.629 18.924 28.629 18.924 42.629"/><polyline points="56.924 45.629 54.924 45.629 54.924 40.629"/><polyline points="62.924 55.629 60.924 55.629 60.924 50.629"/><polyline points="28.924 54.629 26.924 54.629 26.924 49.629"/><polyline points="34.924 54.629 32.924 54.629 32.924 49.629"/><polyline points="34.924 64.629 32.924 64.629 32.924 59.629"/><polyline points="16.924 54.629 14.924 54.629 14.924 49.629"/><polyline points="10.924 54.629 8.924 54.629 8.924 49.629"/><polyline points="10.924 64.629 8.924 64.629 8.924 59.629"/><polyline points="22.924 64.629 20.924 64.629 20.924 59.629"/><polyline points="56.924 65.629 54.924 65.629 54.924 60.629"/><polyline points="62.924 65.629 60.924 65.629 60.924 60.629"/><line x1="14.924" x2="14.924" y1="31.629" y2="42.629"/><line x1="38.924" x2="38.924" y1="35.629" y2="42.629"/><line x1="42.924" x2="42.924" y1="35.629" y2="66.629"/></g></svg>
