<?xml version="1.0" encoding="UTF-8"?>
<svg id="a" version="1.1" viewBox="0 0 72 72" xmlns="http://www.w3.org/2000/svg"><g id="b"><path d="m64.05 7.95v5.121c-27.56 0-51.03 23.42-51.03 50.98h-5.067c0-30.99 25.11-56.1 56.1-56.1z" fill="#ea5a47"/><path d="m64.05 13.07v5.12c-24.4 0-45.86 21.46-45.86 45.86h-5.178c0-27.56 23.48-50.98 51.04-50.98z" fill="#f4aa41"/><path d="m64.05 18.19v5.121c-21.51 0-40.74 19.25-40.74 40.74h-5.121c0-24.4 21.46-45.86 45.86-45.86z" fill="#fcea2b"/><path d="m64.05 23.31v5.121c-18.88 0-35.61 16.83-35.61 35.62l-5.131-8.8e-5c0-21.48 19.23-40.74 40.74-40.74z" fill="#b1cc33"/><path d="m64.05 28.43v5.12c-16.34 0-30.5 14.22-30.5 30.5h-5.11c0-18.78 16.73-35.62 35.61-35.62z" fill="#92d3f5"/><path d="m64.05 33.55v5.121c-14.02 0-25.38 11.36-25.38 25.38h-5.121c0-16.28 14.16-30.5 30.5-30.5z" fill="#b399c8"/></g><g id="c" fill="none" stroke="#000" stroke-linecap="round" stroke-linejoin="round" stroke-miterlimit="10" stroke-width="2"><path d="m64.05 7.95v5.121c-27.56 0-51.04 23.42-51.04 50.98h-5.063c0-30.99 25.11-56.1 56.1-56.1z"/><path d="m64.05 13.07v5.12c-24.4 0-45.86 21.46-45.86 45.86h-5.174c0-27.56 23.47-50.98 51.03-50.98z"/><path d="m64.05 18.19v5.121c-21.51 0-40.74 19.25-40.74 40.74h-5.121c0-24.4 21.46-45.86 45.86-45.86z"/><path d="m64.05 23.31v5.121c-18.88 0-35.61 16.83-35.61 35.62h-5.131c0-21.48 19.23-40.74 40.74-40.74z"/><path d="m64.05 28.43v5.12c-16.34 0-30.5 14.22-30.5 30.5h-5.11c0-18.78 16.73-35.62 35.61-35.62z"/><path d="m64.05 33.55v5.121c-14.02 0-25.38 11.36-25.38 25.38h-5.121c0-16.28 14.16-30.5 30.5-30.5z"/></g></svg>
