<?xml version="1.0" encoding="UTF-8"?>
<svg id="a" viewBox="0 0 72 72" xmlns="http://www.w3.org/2000/svg"><g id="b"><rect x="4" y="4" width="64.09" height="64" fill="#e27022"/><polyline points="4 31.112 25.09 36.627 24.647 41.607 4 41.035" fill="#f4aa41"/><polyline points="68.09 31.112 47 36.627 47.443 41.607 68.09 41.035" fill="#f4aa41"/><polyline points="68.09 11.879 51.09 31.879 47.09 28.879 59.927 4.008 68.09 4" fill="#f4aa41"/><polyline points="4 4 4.001 13.364 6.109 15.355 24.64 33.945 28.39 30.638 12.1 4" fill="#f4aa41"/><polyline points="32.502 4 34.438 26.255 39.421 26.666 42.692 4" fill="#f4aa41"/><circle cx="37.09" cy="35.879" r="15" fill="#fcea2b"/><polyline points="10.013 45.981 10.013 28.981 20.013 28.981 20.013 45.981" fill="#9b9b9a"/><rect x="34.013" y="32.981" width="13" height="35.019" fill="#9b9b9a"/><polyline points="51.013 68 51.013 36.981 67.013 36.981 67.013 68" fill="#d0cfce"/><polyline points="5.013 68 5.013 45.981 39.013 45.981 39.013 68" fill="#d0cfce"/><rect x="9.0131" y="48.985" width="2.9913" height="5.9965" fill="#fcea2b"/><rect x="15.013" y="48.985" width="2.9913" height="5.9965" fill="#fcea2b"/><rect x="27.013" y="48.985" width="2.9913" height="5.9965" fill="#fcea2b"/><rect x="33.013" y="48.985" width="2.9913" height="5.9965" fill="#fcea2b"/><rect x="55.013" y="39.985" width="2.9913" height="5.9965" fill="#fcea2b"/><rect x="61.013" y="49.985" width="2.9913" height="5.9965" fill="#fcea2b"/><rect x="61.013" y="59.985" width="2.9913" height="5.9965" fill="#fcea2b"/><rect x="55.013" y="59.985" width="2.9913" height="5.9965" fill="#fcea2b"/><rect x="33.013" y="58.985" width="2.9913" height="5.9965" fill="#fcea2b"/><rect x="21.013" y="58.985" width="2.9913" height="5.9965" fill="#fcea2b"/><rect x="9.0131" y="58.985" width="2.9913" height="5.9965" fill="#fcea2b"/></g><g id="c" fill="none" stroke="#000" stroke-linecap="round" stroke-width="2"><polyline points="51.013 66.981 51.013 36.981 67.013 36.981 67.013 66.981" stroke-linejoin="round"/><polyline points="5.013 66.981 5.013 45.981 39.013 45.981 39.013 66.981" stroke-linejoin="round"/><polyline points="35.013 42.981 35.013 32.981 47.013 32.981 47.013 66.981" stroke-linejoin="round"/><polyline points="11.013 42.981 11.013 28.981 19.013 28.981 19.013 42.981" stroke-linejoin="round"/><polyline points="57.013 45.981 55.013 45.981 55.013 40.981" stroke-linejoin="round"/><polyline points="63.013 55.981 61.013 55.981 61.013 50.981" stroke-linejoin="round"/><polyline points="29.013 54.981 27.013 54.981 27.013 49.981" stroke-linejoin="round"/><polyline points="35.013 54.981 33.013 54.981 33.013 49.981" stroke-linejoin="round"/><polyline points="35.013 64.981 33.013 64.981 33.013 59.981" stroke-linejoin="round"/><polyline points="17.013 54.981 15.013 54.981 15.013 49.981" stroke-linejoin="round"/><polyline points="11.013 54.981 9.013 54.981 9.013 49.981" stroke-linejoin="round"/><polyline points="11.013 64.981 9.013 64.981 9.013 59.981" stroke-linejoin="round"/><polyline points="23.013 64.981 21.013 64.981 21.013 59.981" stroke-linejoin="round"/><polyline points="57.013 65.981 55.013 65.981 55.013 60.981" stroke-linejoin="round"/><polyline points="63.013 65.981 61.013 65.981 61.013 60.981" stroke-linejoin="round"/><line x1="15.013" x2="15.013" y1="31.981" y2="42.981" stroke-linejoin="round"/><line x1="39.013" x2="39.013" y1="35.981" y2="42.981" stroke-linejoin="round"/><line x1="43.013" x2="43.013" y1="35.981" y2="66.981" stroke-linejoin="round"/><path d="m23.875 42.982a15.002 15.002 0 1 1 28.092-9.0372" stroke-miterlimit="10"/></g></svg>
