<?xml version="1.0" encoding="UTF-8"?>
<svg id="a" viewBox="0 0 72 72" xmlns="http://www.w3.org/2000/svg"><g id="b"><path d="m35.971 3.4517c-3.0012 0-5.4341 2.4329-5.4341 5.4341v23.106h10.868v-23.106c1e-4 -3.0012-2.4329-5.4341-5.4341-5.4341z" fill="#fff"/><path d="m41.066 47.498c3.526 1.8284 5.9344 5.5058 5.9344 9.7445 0 6.0613-4.9249 10.975-11 10.975s-11-4.9136-11-10.975c0-4.2539 2.4258-7.9426 5.9724-9.7641v-18.9s8.8728 1.5603 10.074-1.0199l0.0187 19.939z" fill="#EA5A47"/><path d="m37.042 29.403c1.6925-0.1501 2.2824-0.3294 4.4859-1.2412l0.0236 18.828c7e-4 0.5571 0.182 1.1036 0.5349 1.5383 2.1678 2.6707 4.2519 5.2117 4.2519 9.0919 0 5.9935-4.9899 10.036-10.431 10.036 0 0 10.103-7.6096 1.692-16.586-0.3555-0.3793-0.551-1.2297-0.551-1.7749l-0.0064-19.893z" fill="#D22F27"/></g><g id="c" fill="none" stroke="#000" stroke-linecap="round" stroke-linejoin="round" stroke-miterlimit="10" stroke-width="2"><path d="m38.387 35.913c-0.7217 0.1599-1.9748 0.2657-3.3999 0.2657-2.2364 0-4.0494-0.2606-4.0494-0.582"/><path d="m38.387 43.611c-0.7217 0.1599-1.9748 0.2657-3.3999 0.2657-2.2364 0-4.0494-0.2606-4.0494-0.582"/><path d="m38.387 28.216c-0.7217 0.1599-1.9748 0.2657-3.3999 0.2657-2.2364 0-4.0494-0.2606-4.0494-0.582"/><path d="m38.387 20.518c-0.7217 0.1599-1.9748 0.2657-3.3999 0.2657-2.2364 0-4.0494-0.2606-4.0494-0.582"/><path d="m29.663 49.462c1.2934-0.9629 1.2755-2.2365 1.2755-2.2365v-38.587c0-2.807 2.2755-5.0825 5.0825-5.0825s5.0825 2.2755 5.0825 5.0825v38.587s0.0052 1.2859 1.2986 2.2488c2.3101 1.8633 3.7879 4.7172 3.7879 7.9162 0 5.614-4.5511 10.165-10.165 10.165s-10.165-4.5511-10.165-10.165c0-1.5355 0.3405-2.9915 0.95-4.2966"/><path d="m38.387 12.821c-0.7217 0.1599-1.9748 0.2657-3.3999 0.2657-2.2364 0-4.0494-0.2606-4.0494-0.582"/></g></svg>
