<?xml version="1.0" encoding="UTF-8"?>
<svg id="a" viewBox="0 0 72 72" xmlns="http://www.w3.org/2000/svg"><g id="b"><path d="m27.124 42.962v11.254s-0.1171 1.9012 2.5264 1.9012 11.769 0 11.769 0 2.2545 0.5562 2.2545-2.4086v-10.747" fill="#D0CFCE" stroke="#D0CFCE" stroke-linecap="round" stroke-linejoin="round" stroke-miterlimit="10" stroke-width="2"/><path d="m27.124 46.732v8.0389s-0.1171 1.358 2.5264 1.358 11.769 0 11.769 0 2.2545 0.3973 2.2545-1.7204v-7.6766" fill="#D0CFCE" stroke-linecap="round" stroke-linejoin="round" stroke-miterlimit="10" stroke-width="2"/><path d="m60.996 33.958c0 8.8366-11.193 9-25 9s-25-0.1634-25-9 11.193-23 25-23 25 14.163 25 23z" fill="#EA5A47"/><path d="m60.996 33.958c0 8.8366-11.193 9-25 9s-25-0.1634-25-9 11.193-23 25-23 25 14.163 25 23z" fill="none" stroke="#fff" stroke-linecap="round" stroke-linejoin="round" stroke-miterlimit="10" stroke-width="2"/><path d="m60.996 33.959c0 8.8374-11.194 9.0023-25.004 9.0023 33.174-7.5962 0-32.003 0-32.003 13.81 0 25.004 14.163 25.004 23.001z" fill="#D22F27"/><path d="m22.742 15.387s4.6919 14.121-10.925 14.012c0-1e-4 3.005-9.0637 10.925-14.012z" fill="#fff" stroke-linecap="round" stroke-linejoin="round" stroke-miterlimit="10" stroke-width="2"/><ellipse transform="matrix(.9993 -.0382 .0382 .9993 -1.1252 1.3968)" cx="35.996" cy="30.149" rx="8.0208" ry="6.1759" fill="#fff" stroke-linecap="round" stroke-linejoin="round" stroke-miterlimit="10" stroke-width="2"/><path d="m49.155 15.387s-4.6919 14.121 10.925 14.012c-1e-4 -1e-4 -3.0051-9.0637-10.925-14.012z" fill="#D0CFCE" stroke-linecap="round" stroke-linejoin="round" stroke-miterlimit="10" stroke-width="2"/></g><g id="c" fill="none" stroke="#000" stroke-linecap="round" stroke-linejoin="round" stroke-miterlimit="10" stroke-width="2"><path d="m27.124 46.732v8.0389s-0.1171 1.358 2.5264 1.358 11.769 0 11.769 0 2.2545 0.3973 2.2545-1.7204v-7.6766"/><path d="m60.996 33.958c0 8.8366-11.193 9-25 9s-25-0.1634-25-9 11.193-23 25-23 25 14.163 25 23z"/><path d="m60.996 33.958c0 8.8366-11.193 9-25 9s-25-0.1634-25-9 11.193-23 25-23 25 14.163 25 23z"/><path d="m22.742 15.387s4.6919 14.121-10.925 14.012c0-1e-4 3.005-9.0637 10.925-14.012z"/><ellipse transform="matrix(.9993 -.0382 .0382 .9993 -1.1252 1.3968)" cx="35.996" cy="30.149" rx="8.0208" ry="6.1759"/><path d="m49.155 15.387s-4.6919 14.121 10.925 14.012c-1e-4 -1e-4 -3.0051-9.0637-10.925-14.012z"/></g></svg>
