<?xml version="1.0" encoding="UTF-8"?>
<svg id="a" viewBox="0 0 72 72" xmlns="http://www.w3.org/2000/svg"><g id="b"><polyline points="27 48.842 27 9.5234 26 9.5234 26 7 22 7 22 11.523 21 11.523 21 48" fill="#fcea2b"/><polyline points="43 46 43 9.5225 42 9.5225 42 5 38 5 38 8.5771 37 8.5225 37 47" fill="#fcea2b"/><polyline points="35 42 35 8.5225 34 7.9971 34 5 30 5 30 9.5234 29 9.5234 29 41" fill="#fcea2b"/><polyline points="51 40 51 11.522 50 11.522 50 7 46 7 46 9.5225 45 9.5225 45 40" fill="#fcea2b"/><polyline points="23 41.421 23 33.629 22 33.629 22 15.106 18 15.106 18 33.63 17 33.63 17 37.106" fill="#fcea2b"/><polyline points="47 44.525 47 34.524 46 34.524 46 13 42 13 42 34.579 41 34.524 41 46.525" fill="#fcea2b"/><polyline points="39 45.525 39 35.524 38 35.524 38 12 34 12 34 35.579 33 35.524 33 47.525" fill="#fcea2b"/><polyline points="31 46.525 31 34.524 30 33.999 30 13 26 13 26 34.524 25 34.524 25 44.524" fill="#fcea2b"/><polyline points="55 37 55 32.629 54 32.629 54 15.106 50 15.106 50 33.63 49 33.63 49 42.631" fill="#fcea2b"/><path d="m19 59.197c10 7.7363 23 7.7363 34 0l2-22.197-19 3-19-3 2 22.197z" fill="#ea5a47"/></g><g id="c" fill="none" stroke="#000" stroke-linecap="round" stroke-linejoin="round" stroke-miterlimit="10" stroke-width="2"><polyline points="42 10 42 5 38 5 38 9"/><polyline points="34 9 34 5 30 5 30 10"/><polyline points="50 12 50 7 46 7 46 10"/><polyline points="26 10 26 7 22 7 22 12"/><path d="m19 59.264c10 7.7363 23 7.7363 34 0l2-22.264-19 3-19-3 2 22.264z"/><polyline points="54 33.474 54 15.106 50 15.106 50 34.104"/><polyline points="30 35.368 30 13 26 13 26 34.736"/><polyline points="22 34.104 22 15.106 18 15.106 18 33.474"/><polyline points="46 34.736 46 13 42 13 42 35.368"/><polyline points="38 36 38 12 34 12 34 36"/></g></svg>
