<?xml version="1.0" encoding="UTF-8"?>
<svg id="a" viewBox="0 0 72 72" xmlns="http://www.w3.org/2000/svg"><g id="b"><path d="M45.8041,27.7451A13.8885,13.8885,0,0,0,36,31.7816c-.0415-.0411-.0876-.0773-.13-.1178V13.46a1.001,1.001,0,0,0-1-1.0031h-4.333a1.001,1.001,0,0,0-1,1.0031V28.1653A13.9287,13.9287,0,1,0,36,51.5791a13.934,13.934,0,1,0,9.8042-23.834Z" fill="#fcea2b"/><path d="m47.267 41.749c0 13.88-3.4667 25.133-11.267 25.133a25.134 25.134 0 0 0 25.133-25.133z" fill="#d0cfce"/><path d="m10.867 41.749a25.134 25.134 0 0 0 25.133 25.133c7.8 0 11.267-11.253 11.267-25.133z" fill="#fff"/></g><g id="c" fill="none" stroke="#000" stroke-linecap="round" stroke-linejoin="round" stroke-width="2"><path d="m10.867 41.749a25.133 25.133 0 1 0 50.267 0z"/><path d="m13.467 39.149a13.002 13.002 0 0 1 25.478 0"/><path d="m17.936 39.149a8.6687 8.6687 0 0 1 16.538 0"/><path d="m22.759 39.149a4.2946 4.2946 0 0 1 6.8944 0"/><path d="m38.606 30.916a13.004 13.004 0 0 1 19.927 8.2333"/><path d="m41.021 34.515a8.6692 8.6692 0 0 1 13.043 4.6338"/><path d="m42.928 38.518a4.2871 4.2871 0 0 1 6.313 0.6313"/><g id="d"><path d="m61 15.595-19.412-0.554c-0.7408 1.287-2.6022 2.191-5.5708 2.191-3.9478 0-8.1058-0.1115-8.1058-0.1115"/><path d="M27.9113,9.8105s4.158-.1115,8.1058-.1115c2.9609,0,4.82.8993,5.565,2.1809h0L61,11.8605"/><line x1="27.911" x2="37.496" y1="13.465" y2="13.465"/></g><line x1="34.87" x2="34.87" y1="13.522" y2="32.059"/><line x1="30.537" x2="30.537" y1="13.522" y2="25.683"/></g></svg>
