<?xml version="1.0" encoding="UTF-8"?>
<svg id="a" viewBox="0 0 72 72" xmlns="http://www.w3.org/2000/svg"><g id="b"><path d="m52.264 19.737c0.4765 0.4775 0.916 0.9775 1.3418 1.4854l2.9004-5.7286c-11.325-11.325-29.688-11.325-41.012 0l2.9004 5.7286c0.4258-0.5079 0.8653-1.0079 1.3418-1.4854 8.9834-8.9834 23.544-8.9834 32.527 0z" fill="#f4aa41"/><path d="m53.606 21.223c-0.4258-0.5079-0.8653-1.0079-1.3418-1.4854-8.9834-8.9834-23.544-8.9834-32.527 0-0.4765 0.4775-0.916 0.9775-1.3418 1.4854l17.606 34.777 17.606-34.777z" fill="#fcea2b"/><circle cx="31" cy="24" r="5" fill="#ea5a47"/><circle cx="44" cy="24" r="3" fill="#ea5a47"/><circle cx="37" cy="36" r="3" fill="#ea5a47"/></g><g id="c" fill="none" stroke="#000" stroke-linecap="round" stroke-linejoin="round" stroke-miterlimit="10" stroke-width="2"><path d="m52.264 19.737c0.4765 0.4775 0.916 0.9775 1.3418 1.4854l2.9004-5.7286c-11.325-11.325-29.688-11.325-41.012 0l2.9004 5.7286c0.4258-0.5079 0.8653-1.0079 1.3418-1.4854 8.9834-8.9834 23.544-8.9834 32.527 0z"/><path d="m53.606 21.223c-0.4258-0.5079-0.8653-1.0079-1.3418-1.4854-8.9834-8.9834-23.544-8.9834-32.527 0-0.4765 0.4775-0.916 0.9775-1.3418 1.4854l17.606 34.777 17.606-34.777z"/><circle cx="31" cy="24" r="5"/><circle cx="44" cy="24" r="3"/><circle cx="37" cy="36" r="3"/></g></svg>
