<?xml version="1.0" encoding="UTF-8"?>
<svg id="a" viewBox="0 0 72 72" xmlns="http://www.w3.org/2000/svg"><g id="b"><polyline points="55 17 55 11 17 11 17 17" fill="#f4aa41"/><path d="M45,60c8.2842,0,15-6.7158,15-15V22c0-2.7612-2.2383-5-5-5H17c-2.7617,0-5,2.2388-5,5v23 c0,8.2842,6.7158,15,15,15H45z" fill="#f4aa41"/><path d="m35 17v14c0 2.7617 2.2393 5 5 5 2.7617 0 5-2.2383 5-5v11c0 1.6563 1.3428 3 3 3s3-1.3437 3-3v-19c0 1.6567 1.3428 3 3 3 1.6563 0 3-1.3433 3-3v-5.5781c-0.6133-0.2681-1.2881-0.4219-2-0.4219h-22v-6h22v6" fill="#fcea2b"/></g><g id="c" fill="none" stroke="#000" stroke-linecap="round" stroke-linejoin="round" stroke-miterlimit="10" stroke-width="2"><polyline points="55 17 55 11 17 11 17 17"/><path d="m51 42c0 1.6563-1.3428 3-3 3s-3-1.3437-3-3"/><path d="m51 23c0 1.6567 1.3428 3 3 3 1.6563 0 3-1.3433 3-3v-5"/><path d="m45 31c0 2.7617-2.2383 5-5 5-2.7607 0-5-2.2383-5-5"/><line x1="45" x2="45" y1="42" y2="31"/><line x1="51" x2="51" y1="42" y2="23"/><line x1="35" x2="35" y1="31" y2="17"/><line x1="33" x2="33" y1="17" y2="11"/><path d="M45,60c8.2842,0,15-6.7158,15-15V22c0-2.7612-2.2383-5-5-5H17c-2.7617,0-5,2.2388-5,5v23c0,8.2842,6.7158,15,15,15H45z"/></g></svg>
