<?xml version="1.0" encoding="UTF-8"?>
<svg id="a" version="1.1" viewBox="0 0 72 72" xmlns="http://www.w3.org/2000/svg"><g id="b"><line id="c" x1="16.9" x2="55.2" y1="28" y2="28" fill="none" stroke="#000" stroke-linecap="round" stroke-linejoin="round" stroke-miterlimit="10" stroke-width="2"/></g><g id="d"><path d="m56 33c-0.1-2.1-0.3-4.1-0.7-6h-38.5c-0.4 1.9-0.7 3.9-0.7 6v0.6 0.4c0.5 12.2 9.2 22 20 22s19.5-9.8 20-22v-0.4c-0.1-0.2-0.1-0.4-0.1-0.6z" fill="#FCEA2B"/><path d="m56 33c-0.1-2.1-0.4-4.1-0.8-6h-13c0.4 1.9 0.7 3.9 0.7 6v0.6 0.4c-0.4 9.6-5.9 17.8-13.5 20.8 2 0.8 4.2 1.2 6.5 1.2 10.8 0 19.5-9.8 20-22v-0.4c0.1-0.2 0.1-0.4 0.1-0.6z" fill="#F1B31C"/></g><g id="e" fill="none" stroke="#000" stroke-miterlimit="10" stroke-width="2"><line x1="36" x2="36" y1="56" y2="67" stroke-linecap="round" stroke-linejoin="round"/><line x1="20" x2="52" y1="67" y2="67" stroke-linecap="round" stroke-linejoin="round"/><path d="M56,33c0,12.7-9,23-20,23S16,45.7,16,33"/><path d="M50.1,15.6C53.8,20.3,56,26.8,56,34" stroke-linecap="round" stroke-linejoin="round"/><path d="m16 34c0-7 2.1-13.3 5.6-18" stroke-linecap="round" stroke-linejoin="round"/><polyline points="43 24 43 11 50 4" stroke-linecap="round" stroke-linejoin="round"/></g></svg>
