<?xml version="1.0" encoding="UTF-8"?>
<svg id="a" viewBox="0 0 72 72" xmlns="http://www.w3.org/2000/svg"><g id="b" fill="#D0CFCE" stroke-miterlimit="10" stroke-width="2"><path d="m66.12 26.296c0-5.9431-5.1204-12.161-5.1204-10.296s0.9471 26.632 0.9471 26.632l-0.9471 16.196c0 1.1046 0.8954 2 2 2s2-0.8954 2-2l-0.5289-16.289s1.6493-10.3 1.6493-16.243z"/><path d="m11.421 16.74s0.1115 4.158 0.1115 8.1058c0 2.9609-0.8993 4.8203-2.1809 5.565v0l0.0285 28.418c0 1.1046-0.8954 2-2 2s-2-0.8954-2-2l0.8108-28.412v0c-1.287-0.7408-2.191-2.6023-2.191-5.5709 0-3.9478 0.1115-8.1058 0.1115-8.1058" stroke-linecap="round" stroke-linejoin="round"/><line x1="7.7663" x2="7.7663" y1="16.74" y2="26.325" stroke-linecap="round" stroke-linejoin="round"/><circle cx="36" cy="35.958" r="19.958" stroke-linecap="round" stroke-linejoin="round"/><circle cx="36.004" cy="36" r="12.15" stroke-linecap="round" stroke-linejoin="round"/></g><g id="c" fill="none" stroke="#000" stroke-miterlimit="10" stroke-width="2"><path d="m66.12 26.296c0-5.9431-5.1204-12.161-5.1204-10.296s0.9471 26.632 0.9471 26.632l-0.9471 16.196c0 1.1046 0.8954 2 2 2s2-0.8954 2-2l-0.5289-16.289s1.6493-10.3 1.6493-16.243z"/><path d="m11.421 16.74s0.1115 4.158 0.1115 8.1058c0 2.9609-0.8993 4.8203-2.1809 5.565v0l0.0285 28.418c0 1.1046-0.8954 2-2 2s-2-0.8954-2-2l0.8108-28.412v0c-1.287-0.7408-2.191-2.6023-2.191-5.5709 0-3.9478 0.1115-8.1058 0.1115-8.1058" stroke-linecap="round" stroke-linejoin="round"/><line x1="7.7663" x2="7.7663" y1="16.74" y2="26.325" stroke-linecap="round" stroke-linejoin="round"/><circle cx="36" cy="35.958" r="19.958" stroke-linecap="round" stroke-linejoin="round"/><circle cx="36.004" cy="36" r="12.15" stroke-linecap="round" stroke-linejoin="round"/></g></svg>
