<?xml version="1.0" encoding="UTF-8"?>
<svg id="a" viewBox="0 0 72 72" xmlns="http://www.w3.org/2000/svg"><g id="b"><path d="m51.885 5.9497h-31.935c-1.1025 0-2 0.897-2 2v56.142c0 1.1025 0.8975 2 2 2h31.935c1.1025 0 2-0.8975 2-2v-56.142c0-1.103-0.8975-2-2-2z" fill="#d0cfce"/><path d="m29.102 23.468v9.678h13.797v-9.678h-13.797z" fill="#3f3f3f"/><path d="m39.073 13.958c0-1.103-2.237-3-3.3395-3 0 0-2.6872 0.5693-2.6872 1.6723 0 0-0.2951 10.817-0.2951 10.817l6.6252 0.021c0-1e-4 -0.3034-9.51-0.3034-9.51z" fill="#9b9b9a"/><path d="m32.733 33.412v24.547c0 1.1025 1.0477 3 3 3s3.3395-1.8975 3.3395-3v-24.547h-6.3395z" fill="#9b9b9a"/></g><g id="c" fill="none" stroke="#000" stroke-linecap="round" stroke-linejoin="round" stroke-miterlimit="10" stroke-width="2"><path d="m32.733 23.097v-9.1386c0-1.6568 1.3433-3 3-3h0.3395c1.6567 0 3 1.3432 3 3v9.1386"/><path d="m39.073 33.412v24.547c0 1.6569-1.3433 3-3 3h-0.3395c-1.6567 0-3-1.3431-3-3v-24.547"/><rect x="29.102" y="23.447" width="13.797" height="9.699"/><line x1="33.021" x2="38.91" y1="28.333" y2="28.333"/><path d="m51.885 67.092h-31.934c-1.6568 0-3-1.3432-3-3v-56.142c0-1.6568 1.3432-3 3-3h31.934c1.6569 0 3 1.3432 3 3v56.142c0 1.6568-1.3431 3-3 3z"/><line x1="47.911" x2="50.559" y1="18.26" y2="18.26"/><line x1="47.911" x2="50.559" y1="12.631" y2="12.631"/><line x1="47.922" x2="50.559" y1="23.468" y2="23.468"/><line x1="47.911" x2="50.559" y1="28.203" y2="28.203"/><line x1="47.922" x2="50.559" y1="33.412" y2="33.412"/><line x1="47.911" x2="50.559" y1="39.041" y2="39.041"/><line x1="47.912" x2="50.559" y1="44.249" y2="44.249"/><line x1="47.901" x2="50.559" y1="48.984" y2="48.984"/><line x1="47.892" x2="50.559" y1="54.193" y2="54.193"/><line x1="47.906" x2="50.559" y1="58.909" y2="58.909"/><line x1="21.282" x2="23.93" y1="18.26" y2="18.26"/><line x1="21.282" x2="23.93" y1="12.631" y2="12.631"/><line x1="21.293" x2="23.93" y1="23.468" y2="23.468"/><line x1="21.282" x2="23.93" y1="28.203" y2="28.203"/><line x1="21.293" x2="23.93" y1="33.412" y2="33.412"/><line x1="21.282" x2="23.93" y1="39.041" y2="39.041"/><line x1="21.283" x2="23.93" y1="44.249" y2="44.249"/><line x1="21.272" x2="23.93" y1="48.984" y2="48.984"/><line x1="21.263" x2="23.93" y1="54.193" y2="54.193"/><line x1="21.277" x2="23.93" y1="58.909" y2="58.909"/></g></svg>
