<?xml version="1.0" encoding="UTF-8"?>
<svg id="a" version="1.1" viewBox="0 0 72 72" xmlns="http://www.w3.org/2000/svg"><g id="b"><path d="m33.6 29.04c-0.28-2.33-1.42-9.24-1.42-9.24-0.29-2.37-3.84-4.66-6.16-4.03 0 0-6.15 1.97-7.9 2.44-1.76 0.47-8.08 1.84-8.08 1.84-2.31 0.62-4.25 4.37-3.31 6.57 0 0 2.47 6.55 3.39 8.71 0.69 1.63 3.13 4.58 4.05 6.18 1.95 3.4 6.01 7.46 9.8 6.45l3.95-1.06c3.79-1.02 5.28-6.56 5.26-10.48 0-1.8499 0.63-5.62 0.42-7.38zm-17.34 2.3501c-1.07 0.28-2.11-0.13-2.32-0.93-0.22-0.8 0.47-1.68 1.54-1.97s2.11 0.13 2.32 0.93c0.22 0.8-0.48 1.68-1.54 1.97zm9.85-2.64c-1.06 0.28-2.1-0.13-2.32-0.93-0.21-0.8 0.48-1.69 1.55-1.97 1.06-0.29 2.1 0.1299 2.3199 0.93 0.2101 0.8-0.4799 1.68-1.5499 1.97zm-2.57 9.69c-2.4 0.65-3.24 5.31-3.88 2.91-0.65-2.4 0.78-4.8701 3.1801-5.51 2.4-0.65 4.87 0.78 5.5099 3.18 0.64 2.3999-2.41-1.2201-4.81-0.58z" fill="#3F3F3F"/><path d="m21.669 23.436c2.1356-0.765 4.0226-1.1808 5.0998-0.9136 1.2528 0.3108 2.2244 1.0304 3.1249 2.106l-8.2247-1.1924z" fill="#3F3F3F"/><path d="m17.454 24.565c-2.232 0.4053-4.0741 0.9887-4.8733 1.7587-0.9295 0.8956-1.4112 2.0046-1.6533 3.3863l6.5266-5.145z" fill="#3F3F3F"/><path d="m61.96 28.05s-6.32-1.37-8.07-1.84c-1.76-0.47-7.91-2.45-7.91-2.45-2.32-0.62-5.87 1.67-6.16 4.04 0 0-1.14 6.91-1.42 9.24-0.21 1.76 0.42 5.53 0.42 7.38-0.02 3.92 1.47 9.46 5.26 10.48l3.95 1.06c3.79 1.01 7.85-3.05 9.8-6.45 0.92-1.6 3.36-4.55 4.05-6.18 0.92-2.16 3.39-8.71 3.39-8.71 0.94-2.2-1-5.95-3.31-6.57zm-17.82 6.68c0.22-0.8 1.26-1.22 2.32-0.93 1.07 0.28 1.7599 1.16 1.55 1.96-0.22 0.8-1.26 1.22-2.32 0.93-1.07-0.2799-1.76-1.1599-1.55-1.96zm9.17 11.02c-0.65 2.4-3.11 3.83-5.51 3.18-2.4-0.64-3.83-3.11-3.19-5.51 0.65-2.4 1.48 2.26 3.88 2.9 2.41 0.65 5.46-2.97 4.82-0.57zm4.55-7.35c-0.21 0.8-1.25 1.22-2.32 0.94-1.06-0.29-1.7599-1.17-1.54-1.97 0.21-0.8 1.25-1.22 2.32-0.93 1.07 0.28 1.76 1.16 1.54 1.96z" fill="#fff"/></g><g id="c" fill="none" stroke="#000" stroke-linecap="round" stroke-linejoin="round" stroke-miterlimit="10" stroke-width="2"><path d="m27.92 46.898-3.9508 1.0585c-3.7855 1.0144-7.852-3.0433-9.7979-6.4451-0.9177-1.6042-3.3572-4.5516-4.0536-6.1821-0.9213-2.1567-3.3831-8.7075-3.3831-8.7075-0.9413-2.2036 0.9945-5.9547 3.3091-6.5749 0 0 6.3153-1.3686 8.0716-1.8392 1.7562-0.4705 7.9098-2.4429 7.9098-2.4429 2.3145-0.6202 5.8665 1.6604 6.1531 4.0394 0 0 1.1435 6.9053 1.4241 9.234 0.212 1.7598-0.427 5.5314-0.4197 7.3792 0.0157 3.9189-1.4771 9.4662-5.2626 10.481z"/><path d="m28.35 39.018c0.6432 2.4006-2.412-1.2173-4.8126-0.574-2.4006 0.6432-3.2375 5.3039-3.8808 2.9033-0.6432-2.4006 0.7814-4.8681 3.182-5.5113 2.4006-0.6433 4.8681 0.7813 5.5114 3.182z"/><ellipse transform="matrix(.9659 -.2588 .2588 .9659 -6.1883 7.5881)" cx="25.726" cy="27.298" rx="1.9999" ry="1.5"/><path d="m21.669 23.436c2.1356-0.765 4.0226-1.1808 5.0998-0.9136 1.2528 0.3108 2.2244 1.0304 3.1249 2.106"/><ellipse transform="matrix(.9659 -.2588 .2588 .9659 -7.2074 5.1273)" cx="15.87" cy="29.938" rx="1.9999" ry="1.5"/><path d="m17.454 24.565c-2.232 0.4053-4.0741 0.9887-4.8733 1.7587-0.9295 0.8956-1.4112 2.0046-1.6533 3.3863"/><path d="m48.031 55.956-3.9507-1.0587c-3.7855-1.0143-5.2784-6.5616-5.2627-10.481 0.0073-1.8481-0.6316-5.6204-0.4195-7.3807 0.2805-2.3284 1.4239-9.2325 1.4239-9.2325 0.2866-2.379 3.8386-4.6597 6.1532-4.0395 0 0 6.1535 1.9724 7.9099 2.443 1.7561 0.4706 8.0715 1.8393 8.0715 1.8393 2.3145 0.6201 4.2503 4.3712 3.309 6.5748 0 0-2.4623 6.5519-3.3837 8.7089-0.6963 1.63-3.1355 4.5768-4.0531 6.1807-1.9459 3.402-6.0123 7.4596-9.7978 6.4453z"/><ellipse transform="matrix(.2588 -.9659 .9659 .2588 4.8593 82.106)" cx="55.93" cy="37.887" rx="1.5" ry="1.9999"/><path d="m54.349 32.512c2.232 0.4053 4.0741 0.9887 4.8733 1.7587 0.9295 0.8956 1.4112 2.0046 1.6533 3.3863"/><ellipse transform="matrix(.2588 -.9659 .9659 .2588 .1055 70.628)" cx="46.074" cy="35.245" rx="1.5" ry="1.9999"/><path d="m50.134 31.383c-2.1356-0.765-4.0226-1.1808-5.0998-0.9136-1.2528 0.3108-2.2244 1.0304-3.1249 2.106"/><path d="m44.614 43.42c0.6432-2.4006 1.4802 2.2601 3.8808 2.9033 2.4006 0.6433 5.4558-2.9746 4.8125-0.574-0.6432 2.4006-3.1107 3.8253-5.5113 3.182-2.4006-0.6432-3.8252-3.1107-3.182-5.5113z"/></g></svg>
