<?xml version="1.0" encoding="UTF-8"?>
<svg id="a" viewBox="0 0 72 72" xmlns="http://www.w3.org/2000/svg"><g id="b"><circle cx="22.258" cy="26.11" r="3" fill="#d0cfce"/><circle cx="46.153" cy="26.11" r="3" fill="#d0cfce"/><path d="m46.153 16.11c-5.5143 0-10 4.4861-10 10 0 5.5142 4.4857 10 10 10s10-4.4858 10-10c0-5.5139-4.4857-10-10-10zm0 13c-1.6545 0-3-1.3459-3-3 0-1.6542 1.3455-3 3-3 1.6546 0 3 1.3458 3 3 0 1.6541-1.3454 3-3 3z" fill="#3F3F3F"/><path d="m22.258 16.11c-5.5143 0-10 4.4861-10 10 0 5.5142 4.4857 10 10 10s10-4.4858 10-10c0-5.5139-4.4857-10-10-10zm0 13c-1.6545 0-3-1.3459-3-3 0-1.6542 1.3455-3 3-3 1.6546 0 3 1.3458 3 3 0 1.6541-1.3454 3-3 3z" fill="#3F3F3F"/><path d="m20.429 44.236 6.998 0.8154c0.3759-0.1465 2.8419-0.3707 2.8419-0.3707s2.8139 1.7829 3.188 4.5719c0.375 2.7901-4.6428 3.8145-4.8684 3.8145-2.5157 0-3.6289-4.5602-3.6328-4.6031l-4.5267-0.6947v3.9511l0.9667 3.3692c0 0.4463 1.3875 1.8082 1.865 1.8082h24.827v-16.868h-27.658v4.2058z" fill="#3F3F3F"/><polygon points="51.728 42.827 51.722 42.83 51.886 42.772" fill="#9b9b9a"/><path d="m61.182 54.97-0.2379-13.609s-9.2885 1.4989-9.2459 1.4826c0.0088-0.0034 0.0155-0.0095 0.0237-0.0139l-3.4454 0.9831v9.2196l3.6286 1.0345-0.1419-0.043c-0.0176-0.0053 9.4188 0.9461 9.4188 0.9461z" fill="#9b9b9a"/><path d="m24.218 48.464c0.113 0.0207 2.5968 3.5392 2.6747 3.604 0.0641 0.0534 3.3897 1.0268 3.6015 0.9991 0.2104-0.0282 2.2949-2.0265 2.3537-2.1349 0.0182-0.0336 1.1749-1.7591 0.8288-3.2001-0.2426-1.0102-2.0037-1.8806-2.0689-1.9302-0.1583-0.1204-3.6895-0.7349-3.6999-0.7367 0 0-15.537-2.5602-15.65-2.6373l-4.3653-3.5156-1.3312 8.0498 4.7444-0.7342c0.1113-0.0176 12.913 2.2361 12.913 2.2361z" fill="#d0cfce"/></g><g id="c" fill="none" stroke="#000" stroke-linecap="round" stroke-linejoin="round" stroke-miterlimit="10" stroke-width="2"><path d="m21.396 40.031h26.692v16.868h-24.827c-1.03 0-1.865-0.8095-1.865-1.8082v-3.1238"/><path d="m7.9148 39.389-1.1513 7.5734 5.0161-0.7784 13.595 2.4922c-0.0187 0.2723-0.0103 0.5506 0.0275 0.8316 0.3018 2.2475 2.3682 3.8244 4.6154 3.5226 2.2475-0.3018 3.8245-2.3681 3.5227-4.6156-0.3018-2.2473-2.3682-3.8243-4.6156-3.5224-0.4237 0.0569-0.8235 0.1768-1.1914 0.3485l-15.267-2.7989-4.5507-3.053z"/><circle cx="46.154" cy="26.11" r="10"/><circle cx="46.154" cy="26.11" r="3"/><circle cx="22.258" cy="26.11" r="10"/><circle cx="22.258" cy="26.11" r="3"/><polyline points="52.053 53.068 60.945 55.181 60.945 41.362 52.053 43.773"/></g></svg>
