<?xml version="1.0" encoding="UTF-8"?>
<svg id="a" viewBox="0 0 72 72" xmlns="http://www.w3.org/2000/svg"><g id="b"><polygon points="33.636 37.325 17.31 66.846 30.098 66.846" fill="#61b2e4"/><polygon points="36.386 37.606 52.647 66.846 39.859 66.846" fill="#61b2e4"/><polyline points="46.53 55.464 38.967 41.393 37.759 42.092 45.968 66.846 52.647 66.846 47.205 56.719" fill="#92d3f5"/><polygon points="31.703 42.584 24.001 66.24 30.183 66.24 33.487 42.816" fill="#92d3f5"/><line x1="38.327" x2="50.599" y1="29.961" y2="17.69" fill="none" stroke="#9b9b9a" stroke-linecap="round" stroke-linejoin="round" stroke-width="2"/><line x1="19.267" x2="32.36" y1="49.049" y2="35.956" fill="none" stroke="#9b9b9a" stroke-linecap="round" stroke-linejoin="round" stroke-width="2"/><line x1="56.918" x2="38.901" y1="32.927" y2="32.927" fill="none" stroke="#9b9b9a" stroke-linecap="round" stroke-linejoin="round" stroke-width="2"/><line x1="50.612" x2="37.63" y1="48.676" y2="35.694" fill="none" stroke="#9b9b9a" stroke-linecap="round" stroke-linejoin="round" stroke-width="2"/><line x1="31.149" x2="12.589" y1="32.946" y2="32.946" fill="none" stroke="#9b9b9a" stroke-linecap="round" stroke-linejoin="round" stroke-width="2"/><line x1="32.207" x2="19.253" y1="30.299" y2="17.345" fill="none" stroke="#9b9b9a" stroke-linecap="round" stroke-linejoin="round" stroke-width="2"/><line x1="35.532" x2="35.532" y1="29.051" y2="10.492" fill="none" stroke="#9b9b9a" stroke-linecap="round" stroke-linejoin="round" stroke-width="2"/><circle cx="34.734" cy="33.066" r="24.855" fill="none" stroke="#9b9b9a" stroke-miterlimit="10"/><circle cx="11.682" cy="20.785" r="4.5885" fill="#f4aa41"/><circle cx="42.121" cy="9.4185" r="4.5885" fill="#f4aa41"/><circle cx="60.916" cy="32.206" r="4.6397" fill="#f4aa41"/><circle cx="47.91" cy="55.464" r="4.6397" fill="#f4aa41"/><circle cx="13.141" cy="47.132" r="4.5885" fill="#f4aa41"/></g><g id="c" fill="none" stroke="#000" stroke-width="2"><line x1="31.703" x2="33.176" y1="55.464" y2="37.325" stroke-linecap="round" stroke-linejoin="round"/><polyline points="30.692 62.634 30.098 66.846 17.31 66.846 22.578 57.044" stroke-linecap="round" stroke-linejoin="round"/><line x1="33.176" x2="24.497" y1="37.325" y2="53.473" stroke-linecap="round" stroke-linejoin="round"/><line x1="38.254" x2="36.092" y1="55.464" y2="37.093" stroke-linecap="round" stroke-linejoin="round"/><polyline points="39.289 62.804 39.859 66.846 52.647 66.846 48.929 60" stroke-linecap="round" stroke-linejoin="round"/><line x1="36.092" x2="44.276" y1="37.093" y2="51.387" stroke-linecap="round" stroke-linejoin="round"/><path d="m60.646 36.838a26.132 26.132 0 0 1-8.4087 15.7" stroke-linecap="round" stroke-linejoin="round"/><path d="m47.281 10.081a26.226 26.226 0 0 1 13.022 17.327" stroke-linecap="round" stroke-linejoin="round"/><path d="m14.439 16.524a26.13 26.13 0 0 1 20.295-9.64 26.484 26.484 0 0 1 2.6769 0.1352" stroke-linecap="round" stroke-linejoin="round"/><path d="m10.457 42.887a26.305 26.305 0 0 1-0.7559-17.514" stroke-linecap="round" stroke-linejoin="round"/><path d="m43.763 57.65a26.215 26.215 0 0 1-28.123-6.67" stroke-linecap="round" stroke-linejoin="round"/><path d="m37.163 36.16a3.8764 3.8764 0 1 1 1.7381-3.2336" stroke-linecap="round" stroke-miterlimit="10"/><line x1="37.969" x2="50.24" y1="29.602" y2="17.331" stroke-linecap="round" stroke-linejoin="round"/><line x1="18.909" x2="32.002" y1="48.69" y2="35.598" stroke-linecap="round" stroke-linejoin="round"/><line x1="31.849" x2="18.895" y1="30.657" y2="17.703" stroke-linecap="round" stroke-linejoin="round"/><line x1="50.254" x2="37.271" y1="49.035" y2="36.052" stroke-linecap="round" stroke-linejoin="round"/><line x1="31.149" x2="12.589" y1="33.453" y2="33.453" stroke-linecap="round" stroke-linejoin="round"/><line x1="56.276" x2="38.901" y1="33.433" y2="33.433" stroke-linecap="round" stroke-linejoin="round"/><line x1="35.025" x2="35.025" y1="29.051" y2="10.492" stroke-linecap="round" stroke-linejoin="round"/><circle cx="11.682" cy="20.785" r="4.5885" stroke-miterlimit="10"/><circle cx="42.121" cy="9.4185" r="4.5885" stroke-miterlimit="10"/><path d="M65.5556,32.2058a4.64,4.64,0,0,1-4.64,4.64q-.1362,0-.27-.0077a4.64,4.64,0,1,1,4.91-4.632Z" stroke-miterlimit="10"/><path d="m52.549 55.464a4.64 4.64 0 1 1-4.64-4.64 4.6414 4.6414 0 0 1 4.64 4.64z" stroke-miterlimit="10"/><circle cx="13.141" cy="47.132" r="4.5885" stroke-miterlimit="10"/></g></svg>
