<?xml version="1.0" encoding="UTF-8"?>
<svg id="a" viewBox="0 0 72 72" xmlns="http://www.w3.org/2000/svg"><g id="b"><circle cx="39.488" cy="39.455" r="29.85" fill="#EA5A47"/><circle cx="39.488" cy="39.455" r="23.85" fill="#fff"/><circle cx="39.488" cy="39.455" r="15.85" fill="#EA5A47"/><circle cx="39.488" cy="39.455" r="10.9" fill="#fff"/><circle cx="39.488" cy="39.455" r="5.9" fill="#EA5A47"/></g><g id="c" fill="none" stroke="#000" stroke-linecap="round" stroke-linejoin="round" stroke-miterlimit="10" stroke-width="2"><line x1="11.466" x2="2.5131" y1="11.499" y2="11.499"/><line x1="11.466" x2="11.466" y1="11.499" y2="2.546"/><line x1="15.507" x2="6.5538" y1="15.547" y2="15.547"/><line x1="15.509" x2="15.509" y1="15.545" y2="6.5925"/><line x1="39.486" x2="7.4778" y1="39.464" y2="7.5188"/><path d="m21.969 16.347c4.8593-3.674 10.958-5.8915 17.519-5.8915 16.016 0 29 12.984 29 29s-12.984 29-29 29-29-12.984-29-29c0-6.5467 2.1693-12.587 5.8283-17.44"/><path d="m26.257 20.64c3.7421-2.6364 8.306-4.1847 13.232-4.1847 12.702 0 23 10.298 23 23s-10.298 23-23 23-23-10.298-23-23c0-4.8704 1.5138-9.3872 4.0966-13.106"/><path d="m32.04 26.432c2.1945-1.2578 4.7374-1.9769 7.4482-1.9769 8.2843 0 15 6.7157 15 15s-6.7157 15-15 15-15-6.7157-15-15c0-2.6162 0.7305-5.1268 1.9079-7.268"/><path d="m40.078 34.474c2.4674 0.3067 4.3769 2.4111 4.3769 4.9616 0 2.7614-2.2386 5-5 5-2.4824 0-4.5422-1.809-4.9332-4.1806"/><path d="m35.778 30.166c1.1474-0.4587 2.3996-0.7111 3.7107-0.7111 5.5228 0 10 4.4772 10 10s-4.4772 10-10 10-10-4.4771-10-10c0-1.2548 0.252-2.4731 0.6858-3.5895"/></g></svg>
