<?xml version="1.0" encoding="UTF-8"?>
<svg id="a" version="1.1" viewBox="0 0 72 72" xmlns="http://www.w3.org/2000/svg"><g id="b"><path d="m12.08 19.86h44.95v32.27h-44.95z" fill="#fff" fill-rule="evenodd"/><line x1="13.23" x2="55.87" y1="22.52" y2="22.52" fill="none" stroke="#9b9b9a" stroke-linecap="round" stroke-linejoin="round" stroke-width="2.305"/><line x1="13.23" x2="55.87" y1="49.72" y2="49.72" fill="none" stroke="#9b9b9a" stroke-linecap="round" stroke-linejoin="round" stroke-width="2.305"/><circle cx="63.48" cy="30.73" r="2.593" fill="#ea5a47"/><path d="m64.51 28.18a2.59 2.59 0 0 1-3.579 3.579 2.592 2.592 0 1 0 3.579-3.579z" fill="#d22f27"/></g><g id="c" stroke="#000"><line x1="13.23" x2="55.87" y1="19.86" y2="19.86" stroke-linecap="round" stroke-linejoin="round" stroke-width="2.305"/><line x1="12.08" x2="12.08" y1="52.14" y2="19.86" fill="none" stroke-linecap="round" stroke-linejoin="round" stroke-width="2"/><line x1="55.95" x2="13.15" y1="52.14" y2="52.14" fill="none" stroke-linecap="round" stroke-linejoin="round" stroke-width="4.007"/><line x1="13.15" x2="55.95" y1="19.86" y2="19.86" fill="none" stroke-linecap="round" stroke-linejoin="round" stroke-width="4.007"/><line x1="27.06" x2="27.06" y1="19.86" y2="52.14" fill="none" stroke-linecap="round" stroke-linejoin="round" stroke-width="2"/><line x1="42.04" x2="42.04" y1="19.86" y2="52.14" fill="none" stroke-linecap="round" stroke-linejoin="round" stroke-width="2"/><line x1="57.02" x2="63.16" y1="47.42" y2="47.42" fill="none" stroke-linecap="round" stroke-linejoin="round" stroke-width="2"/><line x1="63.16" x2="63.16" y1="47.42" y2="34" fill="none" stroke-linecap="round" stroke-linejoin="round" stroke-width="2"/><circle cx="63.16" cy="30.73" r="2.593" fill="none" stroke-miterlimit="10" stroke-width="1.297"/><polyline points="17.3 35.69 17.3 33.7 21.84 33.7 19.03 41.77" fill="none" stroke-linecap="round" stroke-linejoin="round" stroke-width="2"/><polyline points="32.28 31.23 32.28 29.24 36.82 29.24 34.02 37.3" fill="none" stroke-linecap="round" stroke-linejoin="round" stroke-width="2"/><polyline points="47.26 35.69 47.26 33.7 51.8 33.7 49 41.77" fill="none" stroke-linecap="round" stroke-linejoin="round" stroke-width="2"/><line x1="57.02" x2="57.02" y1="19.86" y2="52.14" fill="none" stroke-linecap="round" stroke-linejoin="round" stroke-width="2"/></g><g id="d" fill="none" stroke="#d22f27" stroke-linecap="round" stroke-linejoin="round" stroke-width="2"><polyline points="17.3 35.69 17.3 33.7 21.84 33.7 19.03 41.77"/><polyline points="32.28 31.23 32.28 29.24 36.82 29.24 34.02 37.3"/><polyline points="47.26 35.69 47.26 33.7 51.8 33.7 49 41.77"/></g></svg>
