<?xml version="1.0" encoding="UTF-8"?>
<svg id="a" viewBox="0 0 72 72" xmlns="http://www.w3.org/2000/svg"><g id="b"><path d="m62.131 26.504h-0.0099v0.0492c7e-4 -0.0172 0.0084-0.0322 0.0099-0.0492z" fill="#fcea2b"/><path d="m53.2 33.962c-0.1729-0.2185-1.8227-2.1692-1.9919-2.3487-1.1848-1.2559-2.4592-1.3887-3.3-1.5459-0.6822-0.1161-12.935 0.3153-13.206 0.3154-0.4038 1e-4 -5.4346 0.071-5.4346 0.071-0.0658-3e-3 -9.8931-1.5033-10.049-1.5459-7.7496-2.1225-7.2259-11.29-7.2206-11.467l-2.5479-0.1341 0.2846 28.934 2.2-0.0297c0.0041-0.3338 1.758-7.678 3.1216-8.5623 1.0226-0.6632 4.7126-2.4821 6.1839-2.8838 0.6338-0.1729 8.192-1.1288 8.2055-1.1297 4.7871-0.1623 7.7451 9e-4 11.743 0.0594 1.1927 0.0174 3.2374-0.0484 4.1324 0 3.3001 0.1784 4.7727 4.8017 4.7866 4.9055 0.1022 0.7574-0.7584 6.4588-0.9497 6.7144-0.287 0.3835-3.127 1.6883-3.7774 1.8776-1.3965 0.4082-14.661 1.1363-16.857 0.4459-1.2451-0.3911-2.3048-0.7688-2.973-1.7243-0.1671-0.2389-1.4568-1.6055-1.5757-2.7947-0.0889-0.8886 1.9225-5.1252 2.1405-5.4108 0.1567-0.2035-0.0851-0.9969 0.1487-1.0406l-4.6356 0.2507c0.1848 0.0413-2.8983 6.1734-0.8348 9.6792 1.6852 2.496 3.9451 3.6601 5.1433 3.9541 0.1475 0.0361 10.875 0.546 12.011 0.5351 0.568-0.0054 10.316-0.9216 10.316-0.9216s4.4666-1.3128 5.4109-4.846c0.3059-1.1463 0.9027-9.6137-0.4757-11.357z" fill="#FCEA2B"/><path d="m26.281 36.67c0.0047-7e-3 0.0112-0.016 0.0157-0.0229l-0.2013 0.0117c0.0622-7e-4 0.1239 4e-4 0.1856 0.0112z" fill="#FCEA2B"/><path d="m65.688 35.428c0-0.5527-0.2219-7.8657-0.2219-7.8657l-1.4924-1.9159-0.6 0.023c-0.6761 0.151-2.7519 0.6533-3.7888 1.2733 0.4742-0.1221-1.5725 0.9777-1.3793 1.4465 0.1037 0.2537-0.6544 1.8465-0.3429 3.4488 0.3162 1.6269 1.7009 3.2616 1.6508 3.2457 0.3974 0.3109 3.0486 1.2611 4.2078 1.3315 1e-4 0 2e-4 -1e-4 3e-4 -1e-4 -0.5091-0.0468 1.9664-0.4657 1.9664-0.9871z" fill="#fcea2b"/><path d="m57.43 30.236c0-0.5527-3.6773-1.0075-3.1245-1.0075h-6.0492c0.0293 0.0039-2.6167-0.0103-2.5948-0.0062 1.9121 0.3594 7.8915 4.3526 7.6473 4.3635-1.0337 0.0464 4.9366-0.1542 4.9366-0.1542s-0.8154-2.6428-0.8154-3.1956z" fill="#fcea2b"/></g><g id="c" fill="none" stroke="#000" stroke-linecap="round" stroke-linejoin="round" stroke-miterlimit="10" stroke-width="2"><line x1="57.838" x2="54.306" y1="30.228" y2="30.228"/><polyline points="63.81 35.433 65.275 35.433 65.275 26.595 63.814 26.595"/><line x1="30.222" x2="30.288" y1="37.492" y2="44.177"/><line x1="36.561" x2="36.495" y1="44.177" y2="37.492"/><line x1="42.402" x2="42.336" y1="44.177" y2="37.492"/><line x1="41.715" x2="43.09" y1="22.651" y2="22.651"/><line x1="35.874" x2="37.249" y1="22.651" y2="22.651"/><line x1="29.601" x2="30.975" y1="22.651" y2="22.651"/><path d="m26.108 37.643s-2.0417 2.6643-2.0417 4.7346c0 2.563 1.3796 4.0715 3.2173 4.6482 1.9612 0.6154 18.129 0.202 19.351-0.154 1.3861-0.4037 3.3121-1.1107 3.4554-5.9911 0.1433-4.8803-1.7626-6.2501-2.571-6.7489-1.2532-0.7731-19.449-0.1569-19.449-0.1569s-5.189 0.362-7.6574 1.0359c-9.1295 2.4924-8.0053 11.507-8.0053 11.507h-3.1418v-29.407h3.0788s-1.6465 9.7107 8.4778 12.178c2.1637 0.5273 6.989 0.7823 6.989 0.7823s19.023-0.0951 20.349 0.1535c1.3263 0.2486 2.7594 0.8684 4.2257 2.7225 2.2131 2.7984 2.3729 7.8267 1.1911 12.251-1.0834 4.0563-4.7447 5.0552-6.551 5.53-1.8491 0.4861-18.989 0.5285-20.934 0-1.2837-0.3489-3.3067-0.5402-5.2377-3.8217-2.2431-3.8119-0.4919-8.0208 0.5584-9.0312"/><path d="m59.833 27.892c-1.2323 0.5044-2.1005 1.7157-2.1005 3.1296 0 1.4065 0.859 2.6123 2.081 3.1215"/><line x1="30.288" x2="30.288" y1="26.256" y2="26.759"/><line x1="36.561" x2="36.561" y1="26.759" y2="26.256"/><line x1="42.402" x2="42.402" y1="26.759" y2="26.256"/><line x1="30.288" x2="30.288" y1="54.529" y2="55.075"/><line x1="36.561" x2="36.561" y1="55.075" y2="54.529"/><line x1="42.402" x2="42.402" y1="55.075" y2="54.529"/></g></svg>
