<?xml version="1.0" encoding="UTF-8"?>
<svg id="a" viewBox="0 0 72 72" xmlns="http://www.w3.org/2000/svg"><g id="b"><polyline points="10 34 10 17 20 17 20 34" fill="#9B9B9A"/><rect x="34" y="21" width="13" height="35" fill="#9B9B9A"/><polyline points="51 56 51 25 67 25 67 56" fill="#D0CFCE" stroke-miterlimit="10"/><polyline points="5 56 5 34 39 34 39 56" fill="#D0CFCE" stroke-miterlimit="10"/></g><g id="c" fill="none" stroke="#000" stroke-miterlimit="10"><polyline points="51 56 51 25 67 25 67 56"/><polyline points="5 56 5 34 39 34 39 56"/><polyline points="51 55 51 25 67 25 67 55" stroke-linecap="round" stroke-linejoin="round" stroke-width="2"/><polyline points="5 55 5 34 39 34 39 55" stroke-linecap="round" stroke-linejoin="round" stroke-width="2"/><polyline points="35 31 35 21 47 21 47 55" stroke-linecap="round" stroke-linejoin="round" stroke-width="2"/><polyline points="11 31 11 17 19 17 19 31" stroke-linecap="round" stroke-linejoin="round" stroke-width="2"/><polyline points="57 34 55 34 55 29" stroke-linecap="round" stroke-linejoin="round" stroke-width="2"/><polyline points="63 34 61 34 61 29" stroke-linecap="round" stroke-linejoin="round" stroke-width="2"/><polyline points="57 44 55 44 55 39" stroke-linecap="round" stroke-linejoin="round" stroke-width="2"/><polyline points="63 44 61 44 61 39" stroke-linecap="round" stroke-linejoin="round" stroke-width="2"/><polyline points="29 43 27 43 27 38" stroke-linecap="round" stroke-linejoin="round" stroke-width="2"/><polyline points="35 43 33 43 33 38" stroke-linecap="round" stroke-linejoin="round" stroke-width="2"/><polyline points="29 53 27 53 27 48" stroke-linecap="round" stroke-linejoin="round" stroke-width="2"/><polyline points="35 53 33 53 33 48" stroke-linecap="round" stroke-linejoin="round" stroke-width="2"/><polyline points="17 43 15 43 15 38" stroke-linecap="round" stroke-linejoin="round" stroke-width="2"/><polyline points="23 43 21 43 21 38" stroke-linecap="round" stroke-linejoin="round" stroke-width="2"/><polyline points="17 53 15 53 15 48" stroke-linecap="round" stroke-linejoin="round" stroke-width="2"/><polyline points="11 43 9 43 9 38" stroke-linecap="round" stroke-linejoin="round" stroke-width="2"/><polyline points="11 53 9 53 9 48" stroke-linecap="round" stroke-linejoin="round" stroke-width="2"/><polyline points="23 53 21 53 21 48" stroke-linecap="round" stroke-linejoin="round" stroke-width="2"/><polyline points="57 54 55 54 55 49" stroke-linecap="round" stroke-linejoin="round" stroke-width="2"/><polyline points="63 54 61 54 61 49" stroke-linecap="round" stroke-linejoin="round" stroke-width="2"/><line x1="15" x2="15" y1="20" y2="31" stroke-linecap="round" stroke-linejoin="round" stroke-width="2"/><line x1="39" x2="39" y1="24" y2="31" stroke-linecap="round" stroke-linejoin="round" stroke-width="2"/><line x1="43" x2="43" y1="24" y2="55" stroke-linecap="round" stroke-linejoin="round" stroke-width="2"/></g></svg>
