<?xml version="1.0" encoding="UTF-8"?>
<svg id="a" version="1.1" viewBox="0 0 72 72" xmlns="http://www.w3.org/2000/svg"><g id="b"><path d="M10,50c0-1,10.9255-10.6791,24-8.5c0.3311,0.0552,0.6606,0.1119,0.9885,0.17l5.5038,1.1217 C49.5282,44.8554,59,49,60,49.4953c0,0,1.0586,1.1176,0.6667,2.4214C60.2708,53.2333,57.1563,54,57.1563,54h-5.601l-5.8296,1.2432 L27.5833,55l-12.4981-1H11.75c0,0-1.2199-0.5756-1.75-1.8333C9.4688,50.9063,10,50,10,50z" fill="#F1B31C"/><path d="M12,55.5c1.7419-2.0295,4.3382-5.4262,7-5c2.888,0.4624,4.6471,4.065,6.4235,4.065 c2.8824,0,4.5234-3.588,8.5765-4.065c3.6107-0.4249,3.5938,2.2813,6.0156,3.6719C40.9893,54.731,42.6139,54.4981,43,54.5 c3.6617,0.0176,4.9681-3.9727,8-4c4.0625-0.0366,7.4063,1.5625,8,5" fill="#92D3F5"/><path d="m52.226 33.488c1.1509-6.5267-3.4276-12.79-10.226-13.988s-13.243 3.1204-14.394 9.6471l24.62 4.3412z" fill="#fff"/><path d="m44.84 32.186c1.1508-6.5267-0.1208-12.206-2.8403-12.686s-5.857 4.4227-7.0078 10.95l9.8481 1.7364z" fill="#EA5A47"/></g><g id="c" fill="none" stroke="#000" stroke-linecap="round" stroke-linejoin="round" stroke-miterlimit="10" stroke-width="2"><path d="m12 54.5c1.7419-2.0295 4.3382-4.4262 7-4 2.888 0.4624 3.3025 3.4841 6 4 3.091 0.5912 4.9469-3.523 9-4 3.6107-0.4249 4.0565 2.411 6.6667 3.5456 1.0297 0.4476 1.9472 0.4525 2.3333 0.4544 3.6617 0.0176 4.9951-3.5954 8-4 1.3292-0.179 3.3015 0.2273 6 3"/><path d="M41.687,44.0801C50.7229,46.1438,56.7475,48.5,60,48.5"/><path d="m10 49c3.572-0.3572 9.7488-8.8785 22.823-6.6994 0.3311 0.0552 0.6606 0.1119 0.9885 0.17"/><path d="m52.226 33.488c1.1509-6.5267-3.4276-12.79-10.226-13.988s-13.243 3.1204-14.394 9.6471l24.62 4.3412z"/><path d="m44.84 32.186c1.1508-6.5267-0.1208-12.206-2.8403-12.686s-5.857 4.4227-7.0078 10.95l9.8481 1.7364z"/><polygon points="37.312 46.09 37.312 46.09 39.916 31.318 39.916 31.318"/></g></svg>
