<?xml version="1.0" encoding="UTF-8"?>
<svg id="a" viewBox="0 0 72 72" xmlns="http://www.w3.org/2000/svg"><g id="b" stroke-linecap="round"><line x1="45" x2="45" y1="56.435" y2="52" fill="#fff" stroke-linejoin="round" stroke-width="2"/><line x1="58" x2="58" y1="53.435" y2="49" fill="#fff" stroke-linejoin="round" stroke-width="2"/><polyline points="37.922 35.109 40.39 41.675 45.75 47.225 10.25 47.125 14.042 42.25 15.667 34.078 20.431 21.148 23.153 23.87 25.875 25.912 28.597 31.356 32 31.356 37.444 35.439" fill="#9B9B9A" stroke="#9b9b9a" stroke-linejoin="round" stroke-miterlimit="10" stroke-width=".9"/><path d="m37 52c-2.6985-2.7727-4.6708-3.179-6-3-3.0049 0.4046-4.3383 4.0176-8 4-0.3861-0.0019-1.3036-0.0068-2.3333-0.4544-2.6102-1.1346-3.056-3.9705-6.6667-3.5456-4.0531 0.477-4.909 4.5912-8 4h29.688" fill="#92D3F5" stroke="#92D3F5" stroke-linejoin="round" stroke-miterlimit="10" stroke-width="1.9"/><path d="m66.28 39.646c0-1.586-1.6295-2.8743-3.6396-2.8743-0.1679 0.0014-0.3356 0.012-0.5025 0.0318-0.8512-1.6546-2.6995-2.8039-4.8488-2.8039-2.9556 0-5.3514 2.1685-5.3514 4.8432 5e-4 0.1768 0.0116 0.3535 0.0332 0.5288-1.3211 0.4311-2.2509 1.4576-2.2509 2.6564 0 1.5861 1.6295 2.8743 3.6396 2.8743 0.764 0.0066 1.5164-0.1926 2.1825-0.578 0.8599 0.7071 2.2359 1.1677 3.7918 1.1677 2.6069 0 4.7201-1.2869 4.7201-2.8743-4e-4 -0.1049-0.0101-0.2096-0.029-0.3128 1.323-0.4317 2.255-1.4588 2.255-2.6589z" fill="#B1CC33" stroke="#B1CC33" stroke-miterlimit="10" stroke-width="1.9"/><path d="m52.898 42.9c0-1.586-1.6295-2.8743-3.6396-2.8743-0.1679 0.0014-0.3356 0.012-0.5025 0.0318-0.8512-1.6546-2.6995-2.8039-4.8488-2.8039-2.9556 0-5.3514 2.1685-5.3514 4.8432 5e-4 0.1768 0.0116 0.3535 0.0332 0.5288-1.3211 0.4311-2.2509 1.4576-2.2509 2.6564 0 1.5861 1.6295 2.8743 3.6396 2.8743 0.764 0.0066 1.5164-0.1926 2.1825-0.578 0.8599 0.7071 2.2359 1.1677 3.7918 1.1677 2.6069 0 4.7201-1.2869 4.7201-2.8743-4e-4 -0.1049-0.0101-0.2096-0.029-0.3128 1.323-0.4317 2.255-1.4588 2.255-2.6589z" fill="#B1CC33" stroke-miterlimit="10" stroke-width="1.9"/></g><g id="c" fill="none" stroke="#000" stroke-linecap="round"><line x1="45" x2="45" y1="56.435" y2="52" stroke-linejoin="round" stroke-width="2"/><line x1="58" x2="58" y1="53.435" y2="49" stroke-linejoin="round" stroke-width="2"/><polyline points="28.676 31.135 25.973 25.73 23.27 23.703 20.568 21 15.838 33.838 14.486 41.946 11.784 46" stroke-linejoin="round" stroke-miterlimit="10" stroke-width="2"/><polyline points="24.622 25.054 25.297 31.135 32.054 31.135 37.46 35.189" stroke-linejoin="round" stroke-miterlimit="10" stroke-width="2"/><polyline points="32.054 31.135 34.081 35.189 34.757 39.243 32.054 43.3 28 46" stroke-linejoin="round" stroke-miterlimit="10" stroke-width="2"/><path d="m55.542 44.325c0.8599 0.7071 2.2359 1.1677 3.7918 1.1677 2.6069 0 4.7201-1.287 4.7201-2.8743-4e-4 -0.1049-0.0101-0.2096-0.029-0.3128 1.323-0.4317 2.255-1.4588 2.255-2.6589 0-1.586-1.6295-2.8743-3.6396-2.8743-0.1679 0.0014-0.3356 0.012-0.5025 0.0318-0.8512-1.6546-2.6995-2.8039-4.8488-2.8039-2.5086 0-4.6139 1.5621-5.1934 3.6701" stroke-miterlimit="10" stroke-width="2"/><path d="m52.898 42.9c0-1.586-1.6295-2.8743-3.6396-2.8743-0.1679 0.0014-0.3356 0.012-0.5025 0.0318-0.8512-1.6546-2.6995-2.8039-4.8488-2.8039-2.9556 0-5.3514 2.1685-5.3514 4.8432 5e-4 0.1768 0.0116 0.3535 0.0332 0.5288-1.3211 0.4311-2.2509 1.4576-2.2509 2.6564 0 1.5861 1.6295 2.8743 3.6396 2.8743 0.764 0.0066 1.5164-0.1926 2.1825-0.578 0.8599 0.7071 2.2359 1.1677 3.7918 1.1677 2.6069 0 4.7201-1.2869 4.7201-2.8743-4e-4 -0.1049-0.0101-0.2096-0.029-0.3128 1.323-0.4317 2.255-1.4588 2.255-2.6589z" stroke-miterlimit="10" stroke-width="1.9"/><path d="M6,53c3.091,0.5912,3.9469-3.523,8-4c3.6107-0.4249,4.0565,2.411,6.6667,3.5456C21.6964,52.9932,22.6139,52.9981,23,53 c3.6617,0.0176,4.9951-3.5954,8-4c1.3292-0.179,3.3015,0.2273,6,3" stroke-linejoin="round" stroke-miterlimit="10" stroke-width="2"/></g></svg>
