<?xml version="1.0" encoding="UTF-8"?>
<svg id="a" version="1.1" viewBox="0 0 72 72" xmlns="http://www.w3.org/2000/svg"><g id="b"><path transform="translate(6,18)" d="M 57.81375,0 L 44.5425,0 60,34.2 60,36 47.5425,36 31.27125,0 18,0 34.27125,36 21,36 9,9.45 0,7.155 0,18.9 7.72875,36 21,36 0,30.645 0,18.9 60,34.2 60,22.455 9,9.45 4.72875,0 18,0 60,10.71 60,4.8375 z"/></g><g id="c"><rect x="5" y="17" width="62" height="38" fill="#fff"/><path transform="translate(6,18)" d="M 57.81375,0 L 44.5425,0 60,34.2 60,36 47.5425,36 31.27125,0 18,0 34.27125,36 21,36 9,9.45 0,7.155 0,18.9 7.72875,36 21,36 0,30.645 0,18.9 60,34.2 60,22.455 9,9.45 4.72875,0 18,0 60,10.71 60,4.8375 z" fill="#61B2E4"/></g><g id="d"><path d="M67 17H5V55H67V17Z" fill="none" stroke="#000" stroke-linecap="round" stroke-linejoin="round" stroke-width="2"/></g></svg>
