<?xml version="1.0" encoding="UTF-8"?>
<svg id="a" viewBox="0 0 72 72" xmlns="http://www.w3.org/2000/svg"><g id="b"><rect x="30" y="27" width="12" height="14" fill="#9B9B9A"/><polygon points="52 55 20 55 20 41 20 39 20 39 27 39 27 41 32 41 32 39 40 39 40 41 45 41 45 39 52 39 52 41 52 39" fill="#D0CFCE" stroke-linecap="round" stroke-linejoin="round" stroke-miterlimit="10" stroke-width="2"/><rect x="10" y="32" width="10" height="23" fill="#D0CFCE" stroke-linecap="round" stroke-linejoin="round" stroke-miterlimit="10" stroke-width="2"/><rect x="52" y="32" width="10" height="23" fill="#D0CFCE" stroke-linecap="round" stroke-linejoin="round" stroke-miterlimit="10" stroke-width="2"/><rect x="8" y="26" width="14" height="6" fill="#D0CFCE" stroke-linecap="round" stroke-linejoin="round" stroke-miterlimit="10" stroke-width="2"/><rect x="29.5" y="22" width="13" height="6" fill="#D0CFCE" stroke-linecap="round" stroke-linejoin="round" stroke-miterlimit="10" stroke-width="2"/><rect x="50" y="26" width="14" height="6" fill="#D0CFCE" stroke-linecap="round" stroke-linejoin="round" stroke-miterlimit="10" stroke-width="2"/><polygon points="36 12 31.5 22 40.5 22" fill="#EA5A47" stroke-linecap="round" stroke-linejoin="round" stroke-miterlimit="10" stroke-width="2"/><polygon points="15 16 9.5 26 20.5 26" fill="#EA5A47" stroke-linecap="round" stroke-linejoin="round" stroke-miterlimit="10" stroke-width="2"/><polygon points="57 16 51.5 26 62.5 26" fill="#EA5A47" stroke-linecap="round" stroke-linejoin="round" stroke-miterlimit="10" stroke-width="2"/><path d="m40.5 55h-9v-6c0-1.6569 1.3431-3 3-3h3c1.6569 0 3 1.3431 3 3v6z" fill="#A57939" stroke-linecap="round" stroke-linejoin="round" stroke-miterlimit="10" stroke-width="2"/></g><g id="c" fill="none" stroke="#000" stroke-linecap="round" stroke-linejoin="round" stroke-miterlimit="10" stroke-width="2"><polyline points="31 35 31 28 41 28 41 35"/><path d="m37 35h-2v-3c0-0.5523 0.4477-1 1-1"/><polygon points="52 55 20 55 20 41 20 39 20 39 27 39 27 41 32 41 32 39 40 39 40 41 45 41 45 39 52 39 52 41 52 39"/><rect x="10" y="32" width="10" height="23"/><rect x="52" y="32" width="10" height="23"/><rect x="8" y="26" width="14" height="6"/><rect x="29.5" y="22" width="13" height="6"/><rect x="50" y="26" width="14" height="6"/><polygon points="36 12 31.5 22 40.5 22"/><polygon points="15 16 9.5 26 20.5 26"/><polygon points="57 16 51.5 26 62.5 26"/><path d="m40.5 55h-9v-6c0-1.6569 1.3431-3 3-3h3c1.6569 0 3 1.3431 3 3v6z"/><line x1="36" x2="36" y1="46" y2="55"/><path d="m16 40h-2v-3c0-0.5523 0.4477-1 1-1"/><path d="m58 40h-2v-3c0-0.5523 0.4477-1 1-1"/></g></svg>
