<?xml version="1.0" encoding="UTF-8"?>
<svg id="a" viewBox="0 0 72 72" xmlns="http://www.w3.org/2000/svg"><g id="b"><path d="m46.642 50.728c-3.2203 2.5802-11.011 6.7476-22.2-0.7282 0 0-6.503-2.9793-3.7706-12.896 0.0185-0.0673 0.0415-0.1361 0.0669-0.2011l4.1436-10.598c0.0787-0.2013 0.1191-0.4155 0.1191-0.6317v-2.4312c0-1.3857 1.5443-2.2121 2.6972-1.4435v0c0.1657 0.1105 0.3452 0.1906 0.5387 0.2375 0.7078 0.1716 2.7641 1.169 2.7641 6.9643 0 9.0554 8.4083 7 8.4083 6s0.9355-12 10.29-10 13.116 9.6753 7.4837 22.333c0 0-2.6008 2.0855-4.182 3.6667-2 2-6 0-6 0" fill="#A57939" stroke="#A57939" stroke-linecap="round" stroke-linejoin="round" stroke-miterlimit="10" stroke-width="2"/><path d="M25,27c0,0,1.7612,2.6418-2.1537,3.7936 c-0.5305,0.1561-0.9858,0.5054-1.2736,0.9777C20.7301,33.1538,18.7811,35.6716,17,33c-1.087-1.6304-0.6971-2.9655-0.1146-3.8447 c0.6122-0.9239,0.4076-2.1807-0.4585-2.8722C15.5863,25.612,14.4283,25,13,25c-1.9171,0,0.6579-1.6335,2.7667-2.8128 c0.8642-0.4833,1.1619-1.482,0.9677-2.4528C16.6875,19.5,16.8419,19.3162,17,19c1-2,1-4,2-5c1.5811-1.5811,2-3,7-1 c5.4139,2.1656-0.8333,6.1667-0.8333,6.1667" fill="#EA5A47" stroke="#EA5A47" stroke-miterlimit="10" stroke-width="2"/><path d="m17 26.283c-0.9581-0.8657-2.278-1.655-3.9059-1.655-2.1851 0 0.7499-2.107 3.1534-3.6281" fill="#FCEA2B"/></g><g id="c" fill="none" stroke="#000" stroke-linecap="round" stroke-linejoin="round" stroke-miterlimit="10" stroke-width="2"><path d="m55.311 42s0 10-4.6773 10c0 0 2.8064-6-0.9355-9"/><path d="m32.236 54.083-0.7016 5.3333s-2.4166 0.5833-2.4166 1.5833"/><path d="m33.796 60s0-1-1.8709-1"/><path d="m40.656 54.083-0.7016 5.3333s-2.4166 0.5833-2.4166 1.5833"/><path d="m42.215 60s0-1-1.8709-1"/><path d="m26.312 36s-3.7418 9 3.7418 13 14.967 1 15.903-3-2.0268-3.6667-5.223-5.8333"/><path d="M25.1667,19.1667c0,0,6.2472-4.0011,0.8333-6.1667c-5-2-5.4189-0.5811-7,1c-1,1-1,3-2,5c-0.1581,0.3162-0.3125,0.5-0.2656,0.7344 c0.1942,0.9709-0.1036,1.9696-0.9677,2.4528C13.6579,23.3665,11.0829,25,13,25c1.4283,0,2.5863,0.612,3.4269,1.2831 c0.8661,0.6915,1.0707,1.9483,0.4585,2.8722C16.3029,30.0345,15.913,31.3696,17,33c1.7811,2.6716,3.7301,0.1538,4.5727-1.2287 c0.2878-0.4722,0.7431-0.8216,1.2736-0.9777C26.7612,29.6418,25,27,25,27"/><path d="m28 22s3 0 3 7c0 9.0554 8.4083 7 8.4083 6s0.9355-12 10.29-10 13.096 9.6667 7.4837 22.333"/><path d="m48.295 49.167s-8.8868 10.833-23.854 0.8333c0 0-6.5482-3-3.7418-13"/></g></svg>
