<?xml version="1.0" encoding="UTF-8"?>
<svg id="a" version="1.1" viewBox="0 0 72 72" xmlns="http://www.w3.org/2000/svg"><g id="b"><path d="m44.62 26.25s4.375-7.25 2.375-8.25-5 1-5 1 2-7-2-7-5 4-5 4-1.457-8.296-7-6c-3.464 1.435-5 5 0 15" fill="#EA5A47"/><path d="m21 35s4-11 15-11 15 11 15 11c15 28-15 29-15 29s-30-1-15-29z" fill="#fff"/><path d="m36 43s18-1 0 18c0 0-18-18 0-18z" fill="#F1B31C"/></g><g id="c"><path d="m44.46 26.25s4.375-7.25 2.375-8.25-5 1-5 1 2-7-2-7-5 4-5 4-1.457-8.296-7-6c-3.464 1.435-5 5 0 15" fill="none" stroke="#000" stroke-linecap="round" stroke-linejoin="round" stroke-miterlimit="10" stroke-width="2"/><circle cx="27" cy="39" r="2"/><circle cx="45" cy="39" r="2"/><path d="m36.02 43s18-1 0 18c0 0-18-18 0-18z" fill="none" stroke="#000" stroke-linecap="round" stroke-linejoin="round" stroke-miterlimit="10" stroke-width="2"/><path d="m21 35s4-11 15-11 15 11 15 11c15 28-15 29-15 29s-30-1-15-29z" fill="none" stroke="#000" stroke-linecap="round" stroke-linejoin="round" stroke-miterlimit="10" stroke-width="2"/></g></svg>
