<?xml version="1.0" encoding="UTF-8"?>
<svg id="a" viewBox="0 0 72 72" xmlns="http://www.w3.org/2000/svg"><g id="b"><path d="m15.012 20.611-8.9258 1.8002-1.1962 2.5885 0.8559 1.1667 3.0919-0.3333 4.9593 1.6804s3.7749 11.006 15.046 9.4478v22.007h3.9148l1.4545-4.9385 0.6012-3.6307 8.5906 6.5854 2.1212-1.0195-0.5892-2.5869s-7.0832-5.0589-6.966-5.8439 0.7549-6.3475 0.7549-6.3475 5.5402-0.5884 6.8003-1.3349c0.5464-0.3237 6.1267-1.1527 6.1267-1.1527s5.1853 9.2167-1.8147 18.321l1.3274 2.3125 2.6515-0.3332s3.4672-5.3228 5.3599-11.52c2.2364-7.322 3.0499-15.861 4.4943-18.23l-1.1135-2.833-9.0423-6.9512-3.6978-3.6864s-5.0878-0.9774-7.0336 0.0591c-1.9459 1.0365-3.6959 3.6615-3.6959 3.6615s-8.75 3.3226-10.625 8.4113c0 0-6.4254 4.6188-12.463-7.0837l-0.988-0.2163z" fill="#F4AA41"/><path d="m64.602 43.5s-3.138-7.5634-1.4511-13.157c0 0-2.3756 6.2192-4.6256 7.2817s-0.25 6.8125-0.25 6.8125l1.875 3.1562-1.528 5.8123c-0.0438 0.1668-0.0931 0.332-0.1478 0.4955l-1.3341 3.9788s-1.6495 3.3324 2.9161 2.184 3.3439-6.5643 3.3439-6.5643l1.2347-8.3345-0.0331-1.6655z" fill="#E27022"/><path d="m29.629 36.131-0.786 0.4944v17.167s-0.1193 4.9797 0 5.1774c0.1193 0.1976 4.5316-0.2607 4.5316-0.2607l0.9054-4.5 0.4903-4.1146-1.0997-10.927-4.0416-3.0361z" fill="#E27022"/></g><g id="c" fill="none" stroke="#000" stroke-linecap="round" stroke-linejoin="round" stroke-miterlimit="10" stroke-width="2"><path d="m59.335 35.672c-1.0322 1.8633-2.1378 4.2568-1.8743 5.5745 0.4734 2.3672 1.7162 6.2337 1.7162 6.2337l-5.0977 11.106c-0.3146 0.6855-0.9998 1.1249-1.754 1.1249h-0.0118c-1.4871 0-2.4197-1.6063-1.6706-2.8909 1.914-3.282 4.0872-9.1253 1.4405-16.314-0.6513-1.7691-0.6643-3.7138-0.039-5.4923l2.4968-7.1021"/><path d="m63.25 42.935c0.464 0.6901 1.5227 4.6182 1.3283 5.4268l-2.2703 9.4393c-0.2162 0.8988-1.0201 1.5323-1.9445 1.5323h-2.4483"/><path d="m38.375 31.438 0.6999 6.8107-1.1374 9.5643 6.999 5.5663c0.4067 0.2948 0.6875 0.7318 0.7868 1.2242l0.0032 0.016c0.3617 1.7945-1.6777 3.0917-3.1497 2.0033l-7.7629-6.2224-1.6028-11.36-2.8949-2.607c-10.968 3.4718-16.816-9.5167-16.816-9.5167l-5.25-1-1.9167 0.5c-0.4704 0.0884-1.0571-0.7298-1.25-1.1678-0.8884-2.0178 1.5725-3.1907 1.5725-3.1907l8.3562-1.4468c0.5717-0.1006 1.1403 0.1768 1.4055 0.6932 1.3581 2.6452 5.9254 10.218 12.163 6.6068 0 0 1.4468-4.8436 8.0473-6.9487 1.5595-0.4974 2.9298-1.464 3.8123-2.8426 0.6625-1.0349 1.5157-2.0836 2.3438-2.2815 1.2957-0.3098 3.7318-0.5408 5.4141-0.5968 0.9628-0.0321 1.8537 0.4943 2.2758 1.3603 0.7867 1.6141 11.413 9.105 11.413 9.105 1.3039 1.1445 2.0292 2.8096 1.9628 4.5432-0.0857 2.2388 0.821 6.2497 1.9635 8.9997"/><path d="m30 41.188-1.1395 16.63c-0.1143 0.615 0.3576 1.1828 0.9832 1.1828h1.5313c1.1046 0 2-0.8954 2-2v-2.5625"/><path d="m42.95 39.936c2.815-0.282 6.6505-0.8706 8.0404-1.9251"/></g></svg>
