<?xml version="1.0" encoding="UTF-8"?>
<svg id="a" viewBox="0 0 72 72" xmlns="http://www.w3.org/2000/svg"><g id="b"><path d="m17.135 58.899s-2-13.5 10-13.5c3.1918 2.1279 5.9264 3.5984 9 3.5922h-0.1247c3.0736 0.0062 5.4081-2.1643 8.6-4.2922 15.57 0 10.8 14.2 10.8 14.2" fill="#92d3f5"/><polygon points="49.297 58.861 49.297 45.986 44.806 45.202 44.806 52.447 26.929 52.447 26.931 45.202 22.265 45.986 22.265 58.861" fill="#61b2e4"/><polygon points="67.087 43.423 60.137 59.772 35.147 59.772 42.097 43.423" fill="#d0cfce"/><polygon points="67.303 43.423 60.353 59.772 60.133 59.772 51.363 59.772 58.313 43.423 67.083 43.423" fill="#9b9b9a"/><path d="m49.163 33.788c-2.1131 5.2847-7.4192 8.7024-13.631 8.7024-5.3551 0-11.31-3.3075-13.423-8.5922l-0.0742-0.1813c-0.67-1.6576-0.5622-3.6865-0.5622-5.5835l2.1538-18.764 6.0076 5.8429a14.354 14.354 0 0 1 5.586-1.1239h0.6246a14.354 14.354 0 0 1 5.586 1.1239l6.5951-6.4229 2.1863 19.636a14.267 14.267 0 0 1-1.04 5.3657" fill="#f4aa41"/><path d="M35.532,42.4907c6.2312.1985,11.9553-3.3981,14.0684-8.6828l.0651-.1339c.67-1.6576.5626-3.9976.5626-5.8946L48.0254,8.79" fill="#e27022"/><polygon points="22.652 17.7 22.165 22.428 49.297 20.787 49.014 18.333" fill="#b399c8"/><path d="m50.897 19.6a2 2 0 1 1-2-2 2.0007 2.0007 0 0 1 2 2" fill="#b399c8"/><path d="m47.072 24.975s-8.1678 3.4075-7.7837 3.84c7.8154 7.0159 8.4286-2.8627 7.7837-3.84z" fill="#fff"/><path d="m24.628 24.975s7.5569 4.01 7.7837 3.84c-7.5445 7.3839-8.5455-2.2369-7.7837-3.84z" fill="#fff"/><path d="M53.7216,51.7376a3.42,3.42,0,0,1-2.8489,2c-1.1035,0-1.62-.8955-1.1511-2a3.4212,3.4212,0,0,1,2.849-2c1.1035,0,1.6194.8965,1.151,2" fill="#fff"/></g><g id="c"><path d="M36.8723,48.3986a6.8472,6.8472,0,0,1-1.0665.0811h.125c-3.0736.0063-5.8081-1.4642-9-3.5921-12,0-10,13-10,13" fill="none" stroke="#000" stroke-linecap="round" stroke-linejoin="round" stroke-width="2"/><polyline points="35.467 52.133 26.929 52.133 26.931 44.888" fill="none" stroke="#000" stroke-linecap="round" stroke-linejoin="round" stroke-width="2"/><line x1="22.265" x2="22.265" y1="45.757" y2="57.867" fill="none" stroke="#000" stroke-linecap="round" stroke-linejoin="round" stroke-width="2"/><polygon points="35.147 59.772 60.137 59.772 67.087 43.423 42.097 43.423" fill="none" stroke="#000" stroke-linecap="round" stroke-linejoin="round" stroke-width="2"/><line x1="24.177" x2="35.147" y1="59.772" y2="59.772" fill="none" stroke="#000" stroke-linecap="round" stroke-linejoin="round" stroke-width="2"/><line x1="38.294" x2="35.85" y1="35.589" y2="32.575" fill="none" stroke="#000" stroke-linecap="round" stroke-linejoin="round" stroke-width="1.8"/><line x1="33.407" x2="35.85" y1="35.589" y2="32.575" fill="none" stroke="#000" stroke-linecap="round" stroke-linejoin="round" stroke-width="1.8"/><line x1="33.407" x2="38.294" y1="32.575" y2="32.575" fill="none" stroke="#000" stroke-linecap="round" stroke-linejoin="round" stroke-width="1.8"/><path d="m49.767 23.869 0.4387 4.1844a13.664 13.664 0 0 1-1.0171 5.189" fill="none" stroke="#000" stroke-linecap="round" stroke-linejoin="round" stroke-width="2"/><path d="m22.512 33.242a13.664 13.664 0 0 1-1.0171-5.1889l2.138-18.99 6.4492 6.2109a14.175 14.175 0 0 1 5.4626-1.0868h0.6108a14.182 14.182 0 0 1 5.4632 1.0868l6.4485-6.2109 0.6655 6.399" fill="none" stroke="#000" stroke-linecap="round" stroke-linejoin="round" stroke-width="2"/><path d="m28.112 39.722a14.121 14.121 0 0 0 7.4329 2.0969h0.6108a14.119 14.119 0 0 0 7.4329-2.0969" fill="none" stroke="#000" stroke-linecap="round" stroke-linejoin="round" stroke-width="1.8"/><ellipse cx="28.52" cy="27.752" rx="1.2217" ry="1.2057"/><ellipse cx="43.18" cy="27.752" rx="1.2217" ry="1.2057"/><path d="m47.072 24.947s-8.1678 3.4075-7.7837 3.84c7.8154 7.0159 8.4286-2.8627 7.7837-3.84z" fill="none" stroke="#000" stroke-linecap="round" stroke-linejoin="round" stroke-width="1.6"/><line x1="50.922" x2="45.424" y1="37.195" y2="34.18" fill="none" stroke="#000" stroke-linecap="round" stroke-linejoin="round" stroke-width="1.6"/><line x1="48.678" x2="43.18" y1="39.809" y2="36.795" fill="none" stroke="#000" stroke-linecap="round" stroke-linejoin="round" stroke-width="1.6"/><path d="m24.628 24.947s7.5569 4.01 7.7837 3.84c-7.5445 7.3838-8.5455-2.2369-7.7837-3.84z" fill="none" stroke="#000" stroke-linecap="round" stroke-linejoin="round" stroke-width="1.6"/><line x1="20.779" x2="26.276" y1="37.195" y2="34.18" fill="none" stroke="#000" stroke-linecap="round" stroke-linejoin="round" stroke-width="1.6"/><line x1="23.022" x2="28.52" y1="39.809" y2="36.795" fill="none" stroke="#000" stroke-linecap="round" stroke-linejoin="round" stroke-width="1.6"/><polyline points="46.998 18.284 22.652 17.7 22.165 22.428 47.005 20.926" fill="none" stroke="#000" stroke-linecap="round" stroke-linejoin="round" stroke-width="1.6"/><path d="m50.497 19.6a2 2 0 1 1-2-2 2.0007 2.0007 0 0 1 2 2" fill="none" stroke="#000" stroke-linecap="round" stroke-linejoin="round" stroke-width="1.6"/></g></svg>
