<?xml version="1.0" encoding="UTF-8"?>
<svg id="a" viewBox="0 0 72 72" xmlns="http://www.w3.org/2000/svg"><g id="b" fill="#fadcbc" stroke="#fadcbc"><path d="m45.697 55.288c11.975 0 18.391-7.1612 18.391-16.249s-6.2758-19.273-31.153-16.617"/><line x1="46.758" x2="34.758" y1="55.494" y2="55.494"/><path d="m34.465 48.502c-1.9313 0.081-3.4313 1.7123-3.3502 3.6436 0.081 1.9313 1.7123 3.4313 3.6436 3.3502"/><path d="m34.232 41.505c-1.9313 0.081-3.4312 1.7123-3.3502 3.6436s1.7123 3.4313 3.6436 3.3502"/><path d="m34.098 41.509c-1.9268 0.155-3.3631 1.8426-3.2081 3.7694s1.8426 3.3631 3.7694 3.2081"/><path d="m33.754 34.468c-1.929 0.1237-3.3925 1.7878-3.2688 3.7168s1.7878 3.3925 3.7168 3.2688"/><path d="m43.058 22.954c-7.6195-5.8672-10.687-6.7449-12.03-5.3546-1.3429 1.3904 0.7837 5.6942 2.1741 7.0371"/><path d="m11.382 27.468c-1.933 0-3.5 1.567-3.5 3.5s1.567 3.5 3.5 3.5"/><line x1="33.717" x2="11.382" y1="34.468" y2="34.468"/><line x1="11.382" x2="39.172" y1="27.468" y2="27.468"/><line x1="33.328" x2="31.114" y1="24.507" y2="22.549"/><path d="m38.297 19.282c2.1439 1.9526 5.1677 3.3734 9.5218 3.3013"/><line x1="35.978" x2="38.358" y1="17.514" y2="19.335"/><polygon points="38.797 34.578 36.83 27.515 11.047 27.515 11.047 34.468"/><rect transform="matrix(-4.495e-11 1 -1 -4.495e-11 84.868 5.2085)" x="29.369" y="38.925" width="20.921" height="12.226"/><polygon points="36.938 27.468 35.943 24.812 32.757 25.321 35.687 27.485"/></g><g id="c" fill="none" stroke="#000" stroke-linecap="round" stroke-linejoin="round" stroke-miterlimit="10" stroke-width="2"><path d="m47.632 55.494c9.0883 0 16.456-7.3675 16.456-16.456s-7.3675-16.456-16.456-16.456"/><line x1="46.758" x2="34.758" y1="55.494" y2="55.494"/><path d="m34.465 48.502c-1.9313 0.081-3.4313 1.7123-3.3502 3.6436 0.081 1.9313 1.7123 3.4313 3.6436 3.3502"/><path d="m34.232 41.505c-1.9313 0.081-3.4312 1.7123-3.3502 3.6436s1.7123 3.4313 3.6436 3.3502"/><path d="m34.098 41.509c-1.9268 0.155-3.3631 1.8426-3.2081 3.7694s1.8426 3.3631 3.7694 3.2081"/><path d="m33.754 34.468c-1.929 0.1237-3.3925 1.7878-3.2688 3.7168s1.7878 3.3925 3.7168 3.2688"/><path d="m35.978 17.514c-1.3904-1.3429-3.6061-1.3044-4.949 0.086s-1.3044 3.6061 0.086 4.949"/><path d="m11.382 27.468c-1.933 0-3.5 1.567-3.5 3.5s1.567 3.5 3.5 3.5"/><line x1="33.717" x2="11.382" y1="34.468" y2="34.468"/><line x1="11.382" x2="39.172" y1="27.468" y2="27.468"/><line x1="33.328" x2="31.114" y1="24.507" y2="22.549"/><path d="m38.297 19.282c2.1439 1.9526 5.1677 3.3734 9.5218 3.3013"/><line x1="35.978" x2="38.358" y1="17.514" y2="19.335"/><path d="m47.647 55.479c9.0883 0 16.456-7.3675 16.456-16.456s-7.3675-16.456-16.456-16.456"/><line x1="46.774" x2="34.774" y1="55.479" y2="55.479"/><path d="m34.48 48.487c-1.9313 0.081-3.4313 1.7123-3.3502 3.6436 0.081 1.9313 1.7123 3.4312 3.6436 3.3502"/><path d="m34.248 41.49c-1.9313 0.081-3.4312 1.7123-3.3502 3.6436s1.7123 3.4313 3.6436 3.3502"/><path d="m34.114 41.494c-1.9268 0.155-3.3631 1.8426-3.2081 3.7694s1.8426 3.3631 3.7694 3.2081"/><path d="m33.769 34.452c-1.929 0.1237-3.3925 1.7878-3.2688 3.7168s1.7878 3.3925 3.7168 3.2688"/><path d="m35.993 17.499c-1.3904-1.3429-3.6061-1.3044-4.949 0.086s-1.3044 3.6061 0.086 4.949"/><path d="m11.397 27.452c-1.933 0-3.5 1.567-3.5 3.5s1.567 3.5 3.5 3.5"/><line x1="33.732" x2="11.397" y1="34.452" y2="34.452"/><line x1="11.397" x2="39.188" y1="27.452" y2="27.452"/><line x1="33.344" x2="31.13" y1="24.492" y2="22.534"/><path d="m38.312 19.266c2.1439 1.9526 5.1677 3.3734 9.5218 3.3013"/><line x1="35.993" x2="38.373" y1="17.499" y2="19.32"/></g></svg>
