<?xml version="1.0" encoding="UTF-8"?>
<svg id="a" viewBox="0 0 72 72" xmlns="http://www.w3.org/2000/svg"><g id="b"><path d="m7.6821 50.464c-2.2486-1.8529-3.6821-4.6591-3.6821-7.8001 0-2.7896 1.1307-12.315 2.9588-14.143 0 0 16.438 9.1248 29.045 0l12.474 7.479s6.7551 0.8268 11.629 1.2555c4.8929 0.4303 6.6336 4.931 6.6336 7.6336 0 8.6515-13.338 7.2227-20.064 6.8554-3.7068-0.2024-9.1385-0.499-13.268-0.7245l-20.713-0.3202-5.0134-0.2355z" fill="#A57939"/><path d="m7.6821 50.464c-2.2486-1.8529-3.6821-4.6591-3.6821-7.8001 0-2.7896 1.1307-12.315 2.9588-14.143 0 0 16.438 9.1248 29.045 0l12.474 7.479s6.7551 0.8268 11.629 1.2555c4.8929 0.4303 6.6336 4.931 6.6336 7.6336 0 8.6515-13.338 7.2227-20.064 6.8554-3.7068-0.2024-9.1385-0.499-13.268-0.7245l-25.726-0.5557z" fill="#A57939" stroke="#A57939" stroke-miterlimit="10" stroke-width="2"/><rect x="11" y="50.7" width="16.544" height="3.3003" fill="#3F3F3F" stroke-linecap="round" stroke-linejoin="round" stroke-miterlimit="10" stroke-width="2"/></g><g id="c" fill="none" stroke="#000" stroke-linecap="round" stroke-linejoin="round" stroke-miterlimit="10" stroke-width="2"><path d="m7.6821 50.464c-2.2486-1.8529-3.6821-4.6591-3.6821-7.8001 0-2.7896 1.1307-12.315 2.9588-14.143 0 0 16.438 9.1248 29.045 0l12.474 7.479s6.7551 0.8268 11.629 1.2555c4.8929 0.4303 6.6336 4.931 6.6336 7.6336 0 8.6515-13.338 7.2227-20.064 6.8554-3.7068-0.2024-9.1385-0.499-13.268-0.7245"/><rect x="11" y="50.7" width="16.544" height="3.3003"/><line x1="37.098" x2="34.328" y1="33.385" y2="35.296"/><line x1="40.662" x2="37.893" y1="35.248" y2="37.159"/><line x1="44.227" x2="41.458" y1="37.111" y2="39.023"/></g></svg>
