<?xml version="1.0" encoding="UTF-8"?>
<svg id="a" viewBox="0 0 72 72" xmlns="http://www.w3.org/2000/svg"><g id="b" stroke-miterlimit="10"><path d="m37.589 34.151c1.0309-0.1557 2.3936-0.355 3.1719 3.5553 0.5088 2.5561 2.4518 2.3815 3.5921 4.0059 2.3054 3.2843 7.0505 5.5111 11.365 5.5111 6.9036 0 12.5-5.5964 12.5-12.5l0.105-4.9141 1.895 0.0501v-4.1273s-18.932-16.179-29.48 5.3212h-6.4239c-10.549-21.5-29.48-5.3212-29.48-5.3212v4.1273l1.895-0.0501 0.105 4.9141c0 6.9036 5.5964 12.5 12.5 12.5 4.3147 0 9.1189-2.1861 11.365-5.5111" fill="#9B9B9A" stroke="#9B9B9A" stroke-linejoin="round" stroke-width="2"/><path d="m37.589 34.151c1.0309-0.1557 2.3936-0.355 3.1719 3.5553 0.5088 2.5561 2.4518 2.3815 3.5921 4.0059 2.3054 3.2843 7.0505 5.5111 11.365 5.5111" fill="#9B9B9A" stroke="#9B9B9A" stroke-width="2"/><path d="m37.792 33.829c-6.7199-0.9921-2.7978 3.4384-3.0884 3.9105-1.3989 2.2732-2.5354 2.0263-3.6757 3.6507-2.3054 3.2843-7.0505 5.5111-11.365 5.5111" fill="#9B9B9A" stroke="#9B9B9A" stroke-width="2"/><circle cx="19.766" cy="33.558" r="9.5798" fill="#D0CFCE" stroke-linecap="round" stroke-linejoin="round" stroke-width="1.8457"/><circle cx="55.286" cy="33.558" r="9.5798" fill="#D0CFCE" stroke-linecap="round" stroke-linejoin="round" stroke-width="1.8457"/></g><g id="c" fill="none" stroke="#000" stroke-linecap="round" stroke-linejoin="round" stroke-miterlimit="10"><path d="m30.699 41.712c-2.2463 3.325-7.0505 5.5111-11.365 5.5111-6.9036 0-12.5-5.5964-12.5-12.5l-0.105-4.9141-1.895 0.0501v-4.1273s18.932-16.179 29.48 5.3212h6.4239c10.549-21.5 29.48-5.3212 29.48-5.3212v4.1273l-1.895-0.0501-0.105 4.9141c0 6.9036-5.5964 12.5-12.5 12.5-4.3147 0-9.1189-2.1861-11.365-5.5111" stroke-width="2"/><path d="m34.761 37.706c0-1.6569 1.3431-3 3-3s3 1.3431 3 3" stroke-width="2"/><circle cx="19.766" cy="33.558" r="9.5798" stroke-width="1.8457"/><circle cx="55.286" cy="33.558" r="9.5798" stroke-width="1.8457"/></g></svg>
