<?xml version="1.0" encoding="UTF-8"?>
<svg id="a" viewBox="0 0 72 72" xmlns="http://www.w3.org/2000/svg"><g id="b"><path d="m54 60.9v-3.9c0-5-4.2-9-9.2-9-6 5-12 5-18 0-5 0-8.8 4-8.8 9v3.9h36z" fill="#92D3F5"/></g><g id="c"><path d="m24 36c-2 0-3-12 0-16 6-8 18-8 24 0 3 4 2 16 0 16" fill="#fcea2b"/></g><g id="d"><path d="M25,34c0,8,4.8,11.9,10.8,11.9S47,42,47,34s-3-10-3-10c-8,4-14,2-16,0C28,24,25,26,25,34z" fill="#debb90"/></g><g id="e"><path d="m24 36c-2 0-3-12 0-16 6-8 18-8 24 0 3 4 2 16 0 16" fill="none" stroke="#000" stroke-linecap="round" stroke-linejoin="round" stroke-width="2"/><path d="m54 60v-3.1c0-5-4.2-9-9.2-9-6 5-12 5-18 0-5 0-8.8 4-8.8 9v3.1" fill="none" stroke="#000" stroke-linecap="round" stroke-linejoin="round" stroke-width="2"/><path d="m42 33c0 1.1-0.9 2-2 2s-2-0.9-2-2 0.9-2 2-2 2 0.9 2 2"/><path d="m34 33c0 1.1-0.9 2-2 2s-2-0.9-2-2 0.9-2 2-2 2 0.9 2 2"/><path d="m25 34c0 8 4.8 11.9 10.8 11.9s11.2-3.9 11.2-11.9-3-10-3-10c-8 4-14 2-16 0 0 0-3 2-3 10z" fill="none" stroke="#000" stroke-linejoin="round" stroke-width="2"/><path d="m32.8 39.2c1.9 1 4.1 1 6 0" fill="none" stroke="#000" stroke-linecap="round" stroke-linejoin="round" stroke-width="2"/></g></svg>
