<?xml version="1.0" encoding="UTF-8"?>
<svg id="a" viewBox="0 0 72 72" xmlns="http://www.w3.org/2000/svg"><g id="b" fill="#D0CFCE"><path d="m58 61s0-3-1-7c-1.2109-4.8457-4-8-10-8h-22c-6 0-8.7891 3.1543-10 8-1 4-1 7-1 7h44z"/><path d="m26 26c0 3.7246 0.5391 7.8086 2 10 1.8613 2.793 5.0176 4 8 4 3.0957 0 6.1367-1.207 8-4 1.46-2.1914 2-6.2754 2-10 0-2.7935-1-12-10-12s-10 7.3442-10 12z"/></g><g id="c" fill="none" stroke="#000" stroke-linejoin="round" stroke-width="2"><path d="m58 60s0-2-1-6c-1.2109-4.8457-4-8-10-8h-22c-6 0-8.7891 3.1543-10 8-1 4-1 6-1 6" stroke-linecap="round"/><path d="m26 26c0 3.7246 0.5391 7.8086 2 10 1.8613 2.793 5.0176 4 8 4 3.0957 0 6.1367-1.207 8-4 1.46-2.1914 2-6.2754 2-10 0-2.7935-1-12-10-12s-10 7.3442-10 12z"/></g></svg>
