<?xml version="1.0" encoding="UTF-8"?>
<svg id="a" viewBox="0 0 72 72" xmlns="http://www.w3.org/2000/svg"><g id="b"><path d="M18,60.9V57c0-5,3.8-9,8.8-9c6,5,12,5,18,0c5,0,9.2,4,9.2,9v3.9H18z" fill="#92D3F5"/></g><g id="c"><path d="m22.1 49.4c1.4-0.9 3-1.4 4.7-1.4 6 5 12 5 18 0 1.7 0 3.3 0.5 4.7 1.3 1.2-0.9 2.3-1.8 3.1-2.6 2.9-3.1 3.7-6.8 2-10.8-2.4-5.7-3-5.6-3.4-12.8 0-4.2-3.2-7.7-7.4-8 0 0-2.6-3-8-3-6.4 0-12.2 3.5-13.7 9-1.5 5.6 0.3 7.8-1.3 12-1.8 4.7-5.8 8.4-1.3 13.9 0.6 0.7 1.5 1.6 2.6 2.4z"/></g><g id="d"><path d="m25 32c0 8 4.8 12.9 10.8 12.9s11.2-4.9 11.2-12.9c0-4-1-6-1-6l-4-4s-12 2-16 4c0 0-1 2-1 6z" fill="#a57939"/></g><g id="e"><path d="m18 60v-3.1c0-5 3.8-9 8.8-9 6 5 12 5 18 0 5 0 9.2 4 9.2 9v3.1" fill="none" stroke="#000" stroke-linecap="round" stroke-linejoin="round" stroke-width="2"/><path d="m42 31c0 1.1-0.9 2-2 2s-2-0.9-2-2 0.9-2 2-2 2 0.9 2 2"/><path d="m34 31c0 1.1-0.9 2-2 2s-2-0.9-2-2 0.9-2 2-2 2 0.9 2 2"/><path d="m25 32c0 8 4.8 12.9 10.8 12.9s11.2-4.9 11.2-12.9c0-4-1-6-1-6l-4-4s-12 2-16 4c0 0-1 2-1 6z" fill="none" stroke="#000" stroke-linejoin="round" stroke-width="2"/><path d="m32.8 38.2c1.9 1 4.1 1 6 0" fill="none" stroke="#000" stroke-linecap="round" stroke-linejoin="round" stroke-width="2"/><path d="m20 46c-4-6-1.8-8.3 0.1-13 1.6-4.2-0.2-6.5 1.3-12s7.3-9 13.7-9c5.4 0 8 3 8 3 4.2 0.4 7.4 3.9 7.4 8 0.4 7.2 1 7.2 3.4 12.8 1.8 4.1 1 6.8-1.9 10.1" fill="none" stroke="#000" stroke-linecap="round" stroke-linejoin="round" stroke-width="2"/></g></svg>
