<?xml version="1.0" encoding="UTF-8"?>
<svg id="a" version="1.1" viewBox="0 0 72 72" xmlns="http://www.w3.org/2000/svg"><g id="b"><path d="m45.561 6.871c2.2 0 4 1.79 4 4s-1.8 4-4 4v6.05h-19.28v-6.05c-1.1 0-2.1-0.45-2.82-1.17-0.73-0.72-1.18-1.72-1.18-2.83 0-2.21 1.8-4 4-4 0.88 0 1.68 0.29 2.34 0.76-0.32-0.57-0.52-1.23-0.52-1.94 0-2.21 1.79-4 4-4 1.82 0 3.34 1.22 3.82 2.88 0.48-1.66 2-2.88 3.82-2.88 2.21 0 4 1.79 4 4 0 0.71-0.2 1.37-0.52 1.94 0.66-0.47 1.46-0.76 2.34-0.76z" fill="#fff"/><path d="m47.278 7.2563c-0.9873-0.6744-4.0588 0.3783-4.0588 0.3783 1.4981-3.7579-1.9342-5.6378-1.9342-5.6378s0.7999 3.7291-1.5665 5.7485c-0.254 0.2167-0.4339 0.5065-0.4339 0.8404v12.303h0.6366l0.3124 0.0363h5.3232v-6.0567c2.209 0 4-1.7908 4-4 0-1.5929-0.9311-2.9683-2.2788-3.6117l-0.0183 0.3969" fill="#D0CFCE"/><path d="m54.858 57.841s2-12.632-10-12.632c-3.1919 2.1279-5.9264 3.5984-9 3.5921h0.125c-3.0736 0.0063-5.8081-1.4642-9-3.5921-12 0-10 12.632-10 12.632" fill="#fff"/><path d="m44.327 45.209c-3.1699 2.1133-9.076 6.2728-17.344 0 0.3845 5.5358 9.6727 10.639 19.312 5.8941l0.4192 6.7374h8.1797s1.4331-12.632-10.567-12.632z" fill="#D0CFCE"/></g><g id="c"><path d="m45.844 20.925h-19.863c-9.4573 12.239-6.0158 17.633-0.9669 18.783 0.9531 0.2171 1.9636 0.4115 2.9553 0.4115l15.886-0.1c6.2451 0 13.231-4.5445 1.9883-19.094z" fill="#A57939"/></g><g id="d"><path d="m45.632 20.888h-9.0131l-11.84 4.68c-0.129 0.8557-0.1965 1.7385-0.1965 2.641 0 7.8276 5.0765 14.173 11.339 14.173s11.339-6.3456 11.339-14.173c0-2.6789-0.5946-5.1842-1.6278-7.321z" fill="#FCEA2B"/></g><g id="e"><path d="m47.832 39.618c-0.415 0-0.8027-0.2598-0.9453-0.6739-0.1797-0.5224 0.0967-1.0908 0.6192-1.2714 1.6582-0.5723 2.7031-1.544 3.1045-2.8877 0.5957-1.9932 0.1142-5.9087-5.5577-13.249-0.3379-0.437-0.2578-1.0649 0.1797-1.4028 0.4375-0.3384 1.0655-0.2559 1.4024 0.1802 4.9707 6.4316 6.9521 11.493 5.8916 15.044-0.5879 1.9678-2.0987 3.4229-4.3682 4.2061-0.1084 0.0371-0.2178 0.0547-0.3262 0.0547z"/><path d="m23.664 39.497c-0.1211 0-0.2452-0.0215-0.3643-0.0684-2.1103-0.8271-3.5059-2.2764-4.0361-4.1933-0.9805-3.544 1.0136-8.5645 5.9267-14.922 0.336-0.4361 0.9639-0.5191 1.4024-0.1802 0.4375 0.3379 0.5176 0.9658 0.1797 1.4028-5.6133 7.2647-6.1338 11.17-5.5811 13.166 0.3604 1.3038 1.3154 2.2676 2.8369 2.8633 0.5147 0.2022 0.7686 0.7823 0.5664 1.2959-0.1543 0.3946-0.5312 0.6358-0.9306 0.6358z"/><path d="m48.26 28.21c0 8.37-5.54 15.17-12.34 15.17s-12.34-6.8-12.34-15.17c0-0.26 0.01-0.52 0.02-0.78 0.1-2.47 0.69-4.86 1.71-6.98 0.13-0.26 0.36-0.45 0.63-0.52 0.02-0.01 0.04-0.01 0.06-0.01 0.14 0 0.28 0.03 0.42 0.1 0.49 0.25 0.7 0.84 0.46 1.34-0.3 0.62-0.93 1.48-1.67 2.48-0.26 0.35-0.55 0.74-0.83 1.13 0.5-0.19 1.06-0.41 1.67-0.63-0.19 0.74-0.32 1.51-0.39 2.28-0.05 0.53-0.08 1.06-0.08 1.59 0 7.26 4.64 13.17 10.34 13.17s10.34-5.91 10.34-13.17c0-2.44-0.53-4.82-1.53-6.89-0.24-0.49-0.03-1.09 0.47-1.33s1.09-0.03 1.33 0.46c1.13 2.3399 1.73 5.02 1.73 7.76z"/><path d="m54.921 57.849c-0.5522 0-1-0.4478-1-1v-3c0-4.4517-4.4961-7.8106-8.6519-7.9922-6.205 5.0117-12.491 5.0117-18.696 0-4.1558 0.1816-8.6519 3.5405-8.6519 7.9922v3c0 0.5522-0.4478 1-1 1s-1-0.4478-1-1v-3c0-5.3248 5.1401-9.9976 11-10h5e-4c0.2339 0 0.4604 0.082 0.6401 0.2319 5.625 4.6875 11.095 4.6875 16.72 0 0.1796-0.1499 0.4062-0.2319 0.6401-0.2319h5e-4c5.8594 0.0024 11 4.6752 11 10v3c0 0.5522-0.4478 1-1 1z"/><path d="m41.921 26.849c0 1.1045-0.8965 2-2 2s-2-0.8955-2-2c0-1.1035 0.8965-2 2-2s2 0.8965 2 2z"/><path d="m33.921 26.849c0 1.1045-0.8965 2-2 2s-2-0.8955-2-2c0-1.1035 0.8965-2 2-2s2 0.8965 2 2z"/><path d="m35.921 36.851c-1.1519 0-2.3037-0.2861-3.4473-0.8579-0.4941-0.2471-0.6943-0.8477-0.4472-1.3418 0.2465-0.4937 0.8462-0.6943 1.3418-0.4473 1.7177 0.8594 3.3877 0.8594 5.1054 0 0.4947-0.247 1.0948-0.0464 1.3418 0.4473 0.2471 0.4941 0.0469 1.0947-0.4472 1.3418-1.1436 0.5718-2.2954 0.8579-3.4473 0.8579z"/><path d="m46.739 57.856c-0.5528 0-1-0.4472-1-1v-4.5214c-5.7549 1.7822-10.593 1.7441-14.392-0.1133-4.3594-2.1309-5.669-5.8867-5.7227-6.0459-0.1768-0.5225 0.1045-1.0899 0.6279-1.2666 0.5215-0.1768 1.0889 0.1035 1.2657 0.624 0.0205 0.0576 1.1503 3.1729 4.749 4.9121 3.5879 1.7344 8.3476 1.5879 14.142-0.4365 0.3056-0.1045 0.6445-0.0586 0.9092 0.1289 0.2636 0.1875 0.4209 0.4912 0.4209 0.8154v5.9033c0 0.5528-0.4473 1-1 1z"/><circle cx="28.421" cy="55.849" r="1.5"/><circle cx="43.421" cy="55.849" r="1.5"/><path d="m37.37 22.14c-4.86 1.85-9.03 3.45-11.71 4.48-0.2 0.08-0.39 0.15-0.5699 0.22l-1.4 0.55c-0.03 0.01-0.06 0.02-0.09 0.04-0.6 0.25-1.04 0.63-1.05 0.64-0.19 0.16-0.42 0.24-0.66 0.24-0.18 0-0.36-0.04-0.52-0.14-0.37-0.23-0.56-0.68-0.45-1.1 0.3-1.19 1.51-2.83 2.68-4.42 0.62-0.84 1.26-1.71 1.48-2.16 0.16-0.34 0.5-0.55 0.86-0.56 0.02-0.01 0.04-0.01 0.06-0.01 0.14 0 0.28 0.03 0.42 0.1 0.49 0.25 0.7 0.84 0.46 1.34-0.3 0.62-0.93 1.48-1.67 2.48-0.26 0.35-0.55 0.74-0.83 1.13 0.5-0.19 1.06-0.41 1.67-0.63 2.66-1.04 6.37-2.46 10.61-4.07 0.51-0.19 1.09 0.07 1.29 0.58 0.1999 0.52-0.0601 1.1-0.5801 1.29z"/><path d="m26.285 21.925c-0.5528 0-1-0.4477-1-1v-5.1572c-2.2793-0.4644-4-2.4849-4-4.8994 0-2.7569 2.2431-5 5-5 0.2763 0 0.5488 0.0229 0.8173 0.0678-0.0039-0.082-0.0058-0.1645-0.0058-0.2475 0-2.7569 2.2431-5 5-5 0.5527 0 1 0.4477 1 1 0 0.5522-0.4473 1-1 1-1.6543 0-3 1.3457-3 3 0 0.4966 0.1338 0.9868 0.3974 1.457 0.086 0.1538 0.128 0.3223 0.128 0.4888 0 0.2783-0.1162 0.5522-0.335 0.7475-0.3506 0.3125-0.8721 0.3374-1.2519 0.0625-0.5196-0.3769-1.125-0.5761-1.75-0.5761-1.6543 0-3 1.3457-3 3s1.3457 3 3 3c0.5527 0 1 0.4477 1 1v6.0566c0 0.5523-0.4473 1-1 1z"/><path d="m35.921 5.5762c-0.4443 0-0.8359-0.2935-0.96-0.7207-0.3779-1.2959-1.5283-2.167-2.8642-2.167-0.5528 0-1-0.4478-1-1 0-0.5523 0.4472-1 1-1 1.501 0 2.8945 0.6914 3.8242 1.8066 0.9297-1.1152 2.3223-1.8066 3.8232-1.8066 0.5528 0 1 0.4477 1 1 0 0.5522-0.4472 1-1 1-1.3349 0-2.4853 0.8711-2.8632 2.167-0.1241 0.4272-0.5157 0.7207-0.96 0.7207z"/><path d="m45.557 21.925h-19.271c-0.5528 0-1-0.4477-1-1 0-0.5522 0.4472-1 1-1h18.271v-5.0566c0-0.5523 0.4473-1 1-1 1.6543 0 3-1.3457 3-3s-1.3457-3-3-3c-0.625 0-1.2304 0.1992-1.7509 0.5766-0.3799 0.274-0.9014 0.2486-1.252-0.0635-0.3516-0.3129-0.4365-0.8271-0.206-1.2368 0.2627-0.4682 0.3964-0.958 0.3964-1.456 0-1.6543-1.3457-3-3-3-0.5527 0-1-0.4478-1-1 0-0.5523 0.4473-1 1-1 2.7569 0 5 2.2431 5 5 0 0.083-0.0019 0.1655-0.0058 0.248 0.2685-0.0454 0.542-0.0683 0.8183-0.0683 2.7569 0 5 2.2431 5 5 0 2.4145-1.7207 4.435-4 4.8994v5.1572c0 0.5523-0.4472 1-1 1z"/></g></svg>
