<?xml version="1.0" encoding="UTF-8"?>
<svg id="a" version="1.1" viewBox="0 0 72 72" xmlns="http://www.w3.org/2000/svg"><g id="b"><polyline points="13.886 52.097 10.83 52.097 10.83 16.914 19.822 16.914 36.328 16.914 52.039 16.914 60.766 16.914 60.766 52.097 56.681 52.097" fill="#5C9E31"/><path d="m54.436 59.005s2.3969-14.166-9.6031-14.166c-3.1918 2.1192-5.9264 3.5837-9 3.5775h0.125c-3.0736 0.0062-5.8081-1.4583-9-3.5775-12 0-10 14.166-10 14.166" fill="#F4AA41"/><path d="m41.972 50.056c6.4062 1.661 6.5337 5.7996 7.1339 8.9496h5.1129s1.8924-12.669-9.0495-13.34c-0.3067-0.0188-0.6234-0.0284-0.9505-0.0284" fill="#E27022"/><polygon points="44.529 45.337 47.099 54.377 41.479 54.137 41.569 58.937 35.689 57.327 35.779 57.297 35.689 57.167" fill="#E27022"/><path d="m44.429 45.187 0.1 0.15-8.84 11.83-8.85-11.83 0.16-0.24c3.08 2.05 5.75 3.46 8.72 3.5h0.12c2.93-0.04 5.56-1.41 8.59-3.41z" fill="#D0CFCE"/><polygon points="35.689 57.167 35.589 57.297 35.689 57.327 29.799 58.937 29.889 54.137 24.269 54.377 26.839 45.337" fill="#E27022"/></g><g id="c"><path d="m26.958 44.839c3.17 2.1047 5.8895 3.5601 8.9375 3.574 3.048-0.0139 5.7676-1.4693 8.9375-3.574 2.6039 0 4.5281 0.6683 5.9479 1.7128 0.704-3.3138 1.017-7.626 0.9884-13.282-0.0414-8.1808-3.2218-15.425-7.2506-19.875-1.2902-1.5455-4.5467 0.4443-4.5467 0.4443-2.5234-4.1675-11.845-5.4113-16.151 2.1068-2.6326 4.5967-4.6118 10.559-4.6922 17.324-0.0637 5.3669 0.582 9.7911 1.7558 13.338 1.4569-1.0771 3.4225-1.7696 6.073-1.7696z"/></g><g id="d"><path d="m46.834 28.514c0-1.6561 0.8344-4.3121-0.6448-4.7232-3.4395-0.9557-4.7359-0.2517-7.5352-5.4172-4.6814 2.7427-4.4067 4.6607-13.871 5.4837-0.4058 1.4585-0.6263 3.0254-0.6263 4.6567 0 7.8277 5.0765 14.173 11.339 14.173 6.2622 0 11.339-6.3455 11.339-14.173z" fill="#6a462f"/></g><g id="e"><path d="m25.33 15.91c-0.53 0.64-0.99 1.3199-1.39 2h-12.11v32.29h2.06c0.55 0 1 0.44 1 1 0 0.55-0.45 1-1 1h-3.06c-0.55 0-1-0.45-1-1v-34.29c0-0.55 0.45-1 1-1h14.5z"/><path d="m61.77 16.91v34.29c0 0.55-0.45 1-1 1h-2.59c-0.55 0-1-0.45-1-1 0-0.56 0.45-1 1-1h1.59v-32.29h-12.4c-0.38-0.77-0.8-1.44-1.25-2h14.65c0.55 0 1 0.4499 1 1z"/><path d="m41.972 27.148c0 1.1045-0.8965 2-2 2s-2-0.8955-2-2c0-1.1035 0.8965-2 2-2s2 0.8965 2 2"/><path d="m33.972 27.148c0 1.1045-0.8965 2-2 2s-2-0.8955-2-2c0-1.1035 0.8965-2 2-2s2 0.8965 2 2"/><path d="m35.972 37.151c-1.1519 0-2.3037-0.2861-3.4473-0.8579-0.4941-0.247-0.6943-0.8476-0.4472-1.3418 0.2466-0.4936 0.8462-0.6943 1.3418-0.4472 1.7177 0.8594 3.3877 0.8594 5.1054 0 0.4947-0.2471 1.0948-0.0464 1.3418 0.4472 0.2471 0.4942 0.0469 1.0948-0.4472 1.3418-1.1436 0.5718-2.2954 0.8579-3.4473 0.8579z"/><path d="m35.973 43.683c-6.8038 0-12.339-6.8066-12.339-15.174 0-1.6841 0.2226-3.3389 0.6601-4.9185l1.9278 0.5352c-0.3906 1.4048-0.5879 2.8799-0.5879 4.3833 0 7.2637 4.6377 13.174 10.339 13.174 5.7002 0 10.338-5.9101 10.338-13.174 0-1.0708-0.1015-2.1377-0.3017-3.1709-0.0801-0.4121-0.1768-0.8174-0.2861-1.2134l1.9277-0.5322c0.123 0.4458 0.2314 0.9009 0.3213 1.3647 0.2246 1.1587 0.3388 2.3535 0.3388 3.5518 0 8.3672-5.5351 15.174-12.338 15.174z"/><path d="m41.396 32.336h-2.0068c-1.5479 0-2.8828-0.9257-3.4815-2.2529-0.5986 1.3272-1.9336 2.2529-3.4814 2.2529h-2.0069c-2.1044 0-3.8164-1.7119-3.8164-3.8159v-1.2378h-1.8271c-0.5527 0-1-0.4477-1-1 0-0.5522 0.4473-1 1-1h2.8271c0.5528 0 1 0.4478 1 1v2.2378c0 1.0015 0.8145 1.8159 1.8164 1.8159h2.0069c1.0019 0 1.8164-0.8144 1.8164-1.8159v-1.104c0-0.5522 0.4473-1 1-1h1.3301c0.5527 0 1 0.4478 1 1v1.104c0 1.0015 0.8144 1.8159 1.8164 1.8159h2.0068c1.002 0 1.8164-0.8144 1.8164-1.8159v-2.2378c0-0.5522 0.4473-1 1-1h2.957c0.5528 0 1 0.4478 1 1 0 0.5523-0.4472 1-1 1h-1.957v1.2378c0 2.104-1.7119 3.8159-3.8164 3.8159z"/><path d="m46.685 24.859c-0.0381 0-0.0772-2e-3 -0.1172-0.0068-4.8867-0.5699-7.2403-3.2593-8.2363-4.8921-1.9082 1.4878-6.4073 4.3872-12.991 4.896-0.5654 0.04-1.0312-0.3697-1.0742-0.92-0.0429-0.5507 0.3692-1.0317 0.9199-1.0742 8.0196-0.6196 12.721-5.1557 12.767-5.2016 0.2452-0.2413 0.5958-0.3399 0.9327-0.2593 0.3349 0.0796 0.6054 0.3257 0.7158 0.6513 0.0576 0.1641 1.5264 4.1519 7.1992 4.8135 0.5479 0.064 0.9414 0.5606 0.877 1.1089-0.0596 0.5093-0.4913 0.8843-0.9922 0.8843z"/><path d="m51.62 42.79c-0.06 0.55-0.54 0.95-1.11 0.89-0.54-0.06-0.94-0.56-0.88-1.11 0.63-5.68 0.71-11.74 0.22-15.82-0.42-3.45-1.31-6.56-2.48-8.84-0.38-0.77-0.8-1.44-1.25-2-0.25-0.31-0.51-0.59-0.77-0.83-2.16-1.97-4.84-0.4-4.86-0.38-0.43 0.26-0.99 0.16-1.3-0.24-0.18-0.22-4.54-5.48-10.76-1.39-1.23 0.8-2.25 1.78-3.1 2.84-0.53 0.64-0.99 1.3199-1.39 2-2.49 4.2-2.89 8.74-2.9 8.8-0.0099 0.1-0.7599 7.2 0.59 15.82 0.08 0.54-0.29 1.06-0.84 1.14-0.05 0.01-0.1 0.01-0.15 0.01-0.49 0-0.91-0.35-0.99-0.84-1.39-8.89-0.63-16.02-0.6-16.32 0.02-0.24 0.37-4.38 2.58-8.61 0.34-0.67 0.74-1.34 1.19-2 1.13-1.67 2.6-3.26 4.51-4.51 6.35-4.17 11.26-0.35 12.86 1.22 1.6-0.66 4.29-1.03 6.5 0.98 0.67 0.6 1.29 1.3799 1.86 2.31 0.37 0.6 0.72 1.27 1.05 2 1.05 2.37 1.84 5.33 2.23 8.6 0.52 4.22 0.43 10.46-0.21 16.28z"/><path d="m16.839 57.997s-2-13 10-13c0.05 0.04 0.11 0.07 0.16 0.1 3.08 2.05 5.75 3.46 8.72 3.5h0.12c2.93-0.04 5.56-1.41 8.59-3.41 0.09-0.06 0.19-0.12 0.29-0.19 5.17 0 7.74 2.42 8.99 5.17" fill="none" stroke="#000" stroke-linecap="round" stroke-linejoin="round" stroke-miterlimit="10" stroke-width="2"/><polygon points="35.689 57.167 35.779 57.297 35.689 57.327 29.799 58.937 29.889 54.137 24.269 54.377 26.839 45.337" fill="none" stroke="#000" stroke-linecap="round" stroke-linejoin="round" stroke-miterlimit="10" stroke-width="2"/><polygon points="35.689 57.167 35.589 57.297 35.689 57.327 41.569 58.937 41.479 54.137 47.099 54.377 44.529 45.337" fill="none" stroke="#000" stroke-linecap="round" stroke-linejoin="round" stroke-miterlimit="10" stroke-width="2"/><path d="m53.143 58.786c-0.5096 0-0.9023-0.4491-0.8344-0.9541l3.3717-26.503-1.4137 26.672c-0.0297 0.4421-0.6805 0.7855-1.1236 0.7855z"/><path d="m53.144 59.536c-0.459 0-0.8956-0.1982-1.1983-0.5439-0.3017-0.3447-0.4404-0.8047-0.3799-1.2598l3.3711-26.498c0.0508-0.4004 0.3926-0.6885 0.8115-0.6524 0.4014 0.0362 0.7032 0.3838 0.6817 0.7871l-1.4141 26.672c-0.0644 0.9658-1.1474 1.4951-1.872 1.4951zm0.7099-7.9013-0.8008 6.292 0.0909 0.1093c0.1123 0 0.3017-0.0869 0.3789-0.1562l0.331-6.2451z"/></g></svg>
