<?xml version="1.0" encoding="UTF-8"?>
<svg id="a" version="1.1" viewBox="0 0 72 72" xmlns="http://www.w3.org/2000/svg"><g id="b"><path d="m16.61 58.82s-1.7-15.1 10.3-15.1c3.1918 2.1279 5.8264 3.7984 8.9 3.7922h-0.125c3.0736 0.0062 6.308-1.4643 9.4999-3.5922 11.565-0.0346 9.609 14.8 9.84 14.9" fill="#fff"/><path d="m45.239 43.867c-3.0853 1.3313-4.3865 3.1319-9.3375 3.7285 13.062 0.4115 13.062 7.2115 13.825 11.212h5.1129s2.5432-14.94-9.6-14.94z" fill="#D0CFCE"/><circle cx="24.631" cy="54.744" r="3" fill="#9B9B9A"/></g><g id="c"><path d="m17.171 43.843 0.5833 0.9574c0.6752 0.6175 1.3502 1.1951 2.025 1.744 1.5487-1.6689 3.8149-2.8246 7.1309-2.8246 3.1714 2.1143 5.7935 3.7733 8.842 3.7884 3.0537-0.015 6.2641-1.4759 9.4329-3.5884 3.0659-0.0092 5.1746 1.0317 6.6327 2.561 0.712-0.5908 1.4239-1.2183 2.1356-1.8887l0.2913-0.7474c2.2459-3.6926 1.7322-8.725-2.4182-16.814-0.1286-6.4628-0.941-15.458-8.3977-15.2-1.8268-4.2462-24.483-9.5259-23.582 15.535-0.0763 4.3222-5.4465 10.151-2.6762 16.478z" fill="#fcea2b"/></g><g id="d"><path d="m47.309 28.012c0-5.3924-2.4091-10.081-5.9554-12.477-3.3033 3.4694-15.702 10.615-16.722 12.477 0 7.8277 5.0765 14.173 11.339 14.173s11.339-6.3455 11.339-14.173z" fill="#debb90"/></g><g id="e"><path d="m41.97 27.009c0 1.1045-0.8965 2-2 2s-2-0.8955-2-2c0-1.1035 0.8965-2 2-2s2 0.8965 2 2"/><path d="m33.97 27.009c0 1.1045-0.8965 2-2 2s-2-0.8955-2-2c0-1.1035 0.8965-2 2-2s2 0.8965 2 2"/><path d="m35.97 37.012c-1.1519 0-2.3037-0.2862-3.4473-0.8579-0.4941-0.2471-0.6943-0.8477-0.4472-1.3418 0.2466-0.4937 0.8462-0.6944 1.3418-0.4473 1.7177 0.8594 3.3877 0.8594 5.1054 0 0.4947-0.2471 1.0948-0.0464 1.3418 0.4473 0.2471 0.4941 0.0469 1.0947-0.4472 1.3418-1.1436 0.5717-2.2954 0.8579-3.4473 0.8579z"/><path d="m24.726 26.53c-0.0625 0.6024-0.0947 1.2167-0.0947 1.8404 0 7.8276 5.0765 14.173 11.339 14.173s11.339-6.3456 11.339-14.173c0-1.1582-0.1111-2.2839-0.3208-3.3614-0.7817-4.0177-2.9333-7.3654-5.8015-9.2263" fill="none" stroke="#000" stroke-miterlimit="10" stroke-width="2"/><path d="m49.933 45.941c6.2065 3.1183 4.8523 11.921 4.8523 11.921" fill="none" stroke="#000" stroke-linecap="round" stroke-linejoin="round" stroke-miterlimit="10" stroke-width="2"/><path d="m28.611 45.953c2.4969 1.5232 4.7846 2.5066 7.2993 2.5015h-0.125c2.3664 0.0048 4.5318-0.8657 6.8597-2.2377" fill="none" stroke="#000" stroke-linecap="round" stroke-linejoin="round" stroke-miterlimit="10" stroke-width="2"/><path d="m16.91 57.862s-1.4346-9.3246 5.416-12.179" fill="none" stroke="#000" stroke-linecap="round" stroke-linejoin="round" stroke-miterlimit="10" stroke-width="2"/><path d="m41.186 15.782c-2.0474 3.673-11.675 8.6146-16.374 10.756" fill="none" stroke="#000" stroke-linecap="round" stroke-linejoin="round" stroke-miterlimit="10" stroke-width="2"/><path d="m18.351 44.285-0.5604-0.9195c-2.661-6.0766 2.4972-11.676 2.5705-15.827-0.8656-24.071 20.896-19 22.651-14.921 7.1623-0.2473 7.9425 8.3925 8.0662 14.6 3.9866 7.7694 4.4801 12.603 2.3227 16.15l-0.2796 0.7179" fill="none" stroke="#000" stroke-linecap="round" stroke-linejoin="round" stroke-miterlimit="10" stroke-width="2"/><circle cx="24.631" cy="54.744" r="3" fill="none" stroke="#000" stroke-linecap="round" stroke-linejoin="round" stroke-miterlimit="10" stroke-width="2"/><path d="m24.631 51.744s-1.3273-5.4596 2.279-9.2022" fill="none" stroke="#000" stroke-linecap="round" stroke-linejoin="round" stroke-miterlimit="10" stroke-width="2"/><path d="m44.475 42.542c1.5847 1.6445 2.4274 5.3193 2.4274 5.3193-3.4246 0.1134-3.3096 3.8829-3.3096 3.8829s-0.7793 5.5625 1.6549 5.4316l-0.1645 1.6162 0.2835-2.9631" fill="none" stroke="#000" stroke-linecap="round" stroke-linejoin="round" stroke-miterlimit="10" stroke-width="2"/><path d="m47.309 47.861c3.4246 0.1134 3.3096 3.8829 3.3096 3.8829s0.7793 5.5625-1.6549 5.4316l0.1645 1.6162-0.2835-2.9631" fill="none" stroke="#000" stroke-linecap="round" stroke-linejoin="round" stroke-miterlimit="10" stroke-width="2"/><line x1="29.895" x2="35.553" y1="46.729" y2="57.862" fill="none" stroke="#000" stroke-linecap="round" stroke-linejoin="round" stroke-miterlimit="10" stroke-width="2"/><line x1="41.21" x2="35.553" y1="46.999" y2="57.862" fill="none" stroke="#000" stroke-linecap="round" stroke-linejoin="round" stroke-miterlimit="10" stroke-width="2"/></g></svg>
