<?xml version="1.0" encoding="UTF-8"?>
<svg id="a" viewBox="0 0 72 72" xmlns="http://www.w3.org/2000/svg"><g id="b"><path d="m18.1 47.3c1.1 1 2.3 1.9 3.6 2.7 1.6-1.2 3.4-1.9 5.4-2.1 6.2 5 12.5 5 18.7 0 1.5 0.1 3 0.6 4.2 1.5 1.1-0.7 2-1.5 3-2.3 1.2-0.7 3.1-8.3 0.4-13-0.4-0.9-0.8-1.7-1.2-2.6-1.5-3.3-2-4.5-2.3-10.5 0-3.7-3.8-6.8-7.5-7.1-0.3 0-0.5-0.1-0.7-0.3-0.1-0.1-2.4-2.7-7.2-2.7-6.2 0-11.4 3.4-12.7 8.2-0.5 2-0.7 4.1-0.6 6.2 0.2 2-0.1 4.1-0.8 6-0.2 0.8-0.6 1.5-1.1 2.1-3.8 4.3-1 14.2-1.2 13.9z" fill="#D0CFCE"/></g><g id="c"><path d="m25.4 29.4v1c0 7.6 4.6 13.6 10.5 13.6s10.5-6 10.5-13.6c0-4.7-1.8-7.5-5.3-11.1-2.8 2.2-5.8 4.1-9 5.8-2.6 1.4-6.2 3.5-6.7 4.3z" fill="#c19a65"/></g><g id="d"><path d="m17 61v-4c0-5 5-9 10-9 6 5 12 5 18 0 5 0 10 4 10 9v4" fill="#92D3F5"/></g><g id="e"><path d="m18.8 46.6c-3.7-5.9-0.6-10.1 1.2-14.7 1.6-4.2-0.2-6.5 1.3-12s7.3-9 13.7-9c5.4 0 8 3 8 3 4.2 0.4 7.4 3.9 7.4 8 0.4 7.2 1 7.2 3.4 12.8 1.7 3.9 1.1 8.3-1.4 11.7" fill="none" stroke="#000" stroke-linecap="round" stroke-linejoin="round" stroke-width="2"/><path d="m17 59.9v-3c0-5 5-9 10-9 6 5 12 5 18 0 5 0 10 4 10 9v3" fill="none" stroke="#000" stroke-linecap="round" stroke-linejoin="round" stroke-width="2"/><path d="m42 29.9c0 1.1-0.9 2-2 2s-2-0.9-2-2 0.9-2 2-2 2 0.9 2 2"/><path d="m34 29.9c0 1.1-0.9 2-2 2s-2-0.9-2-2 0.9-2 2-2 2 0.9 2 2"/><path d="m25 30.9c0 8 5 14 11 14s11-6 11-14c0-5-2-8-6-12-4 4-16 9-16 11v1z" fill="none" stroke="#000" stroke-linejoin="round" stroke-width="2"/><path d="m33 38.1c1.9 1 4.1 1 6 0" fill="none" stroke="#000" stroke-linecap="round" stroke-linejoin="round" stroke-width="2"/></g></svg>
