<?xml version="1.0" encoding="UTF-8"?>
<svg id="a" version="1.1" viewBox="0 0 72 72" xmlns="http://www.w3.org/2000/svg"><g id="b"><path d="m16.648 58.857s-2.1-14.9 9.9-14.9c3.1919 2.1279 6.0264 3.7984 9.1001 3.7921l0.2749 0.1c3.0737 0.0063 5.9081-1.8642 9.1-3.9921 11.565-0.0346 9.509 14.9 9.74 15" fill="#fff"/><circle cx="24.614" cy="54.782" r="3" fill="#9B9B9A"/><path d="m45.077 43.845c-3.1699 2.1133-5.275 3.5-9.3375 4.0886 13.062 0.4114 12.962 6.9114 13.725 10.911h5.1128s2.6144-15.002-9.5-15z" fill="#D0CFCE"/></g><g id="c"><path d="m31.461 13.942c-5.8264-2.362-9.8466 6.3904-6.9708 13.308 1.8952-0.7356 4.7204-7.028 4.7204-7.028s6.0436 4.0118 4.6066 0.9647c0 0 6.0003 3.9966 5.125 0.5757 0 0 5.42 5.8571 5.8039 0.4876 0 0 0.5486 5.2658 2.3966 5 5.2618-10.673-12.254-22.068-15.682-13.308z" fill="#6a462f"/></g><g id="d"><path d="m47.142 27.25c-1.848 0.2657-2.3966-5-2.3966-5-0.3839 5.3694-5.8039-0.4876-5.8039-0.4876 0.8753 3.4209-5.125-0.5757-5.125-0.5757 1.437 3.0471-4.6066-0.9647-4.6066-0.9647s-2.7309 6.0744-4.6239 6.9752c-0.0135 0.2836-0.0344 0.5648-0.0344 0.8526 0 7.8277 5.0765 14.173 11.339 14.173s11.339-6.3456 11.339-14.173c0-0.3094-0.0214-0.6119-0.037-0.9164-0.0186 0.0388-0.0306 0.0778-0.0498 0.1166z" fill="#c19a65"/></g><g id="e"><path d="m41.953 27.047c0 1.1045-0.8965 2-2 2s-2-0.8955-2-2c0-1.1035 0.8965-2 2-2s2 0.8965 2 2"/><path d="m33.953 27.047c0 1.1045-0.8965 2-2 2s-2-0.8955-2-2c0-1.1035 0.8965-2 2-2s2 0.8965 2 2"/><path d="m35.953 37.049c-1.1518 0-2.3037-0.2861-3.4472-0.8579-0.4942-0.2471-0.6944-0.8476-0.4473-1.3418 0.2466-0.4936 0.8462-0.6943 1.3418-0.4472 1.7178 0.8593 3.3877 0.8593 5.1055 0 0.4946-0.2471 1.0947-0.0464 1.3418 0.4472 0.247 0.4942 0.0468 1.0947-0.4473 1.3418-1.1436 0.5718-2.2954 0.8579-3.4473 0.8579z"/><path d="m47.232 26.943c0.0395 0.4816 0.0598 0.9703 0.0598 1.4649 0 7.8277-5.0765 14.173-11.339 14.173s-11.339-6.3455-11.339-14.173l-0.1242-1.4575" fill="none" stroke="#000" stroke-linecap="round" stroke-linejoin="round" stroke-miterlimit="10" stroke-width="2"/><path d="m31.461 13.942c-5.8264-2.362-9.8466 6.3904-6.9708 13.308 1.8952-0.7356 4.7204-7.028 4.7204-7.028s6.0436 4.0118 4.6066 0.9647c0 0 6.0003 3.9966 5.125 0.5757 0 0 5.42 5.8571 5.8039 0.4876 0 0 0.5486 5.2658 2.3966 5 5.2618-10.673-12.254-22.068-15.682-13.308z" fill="none" stroke="#000" stroke-linecap="round" stroke-linejoin="round" stroke-miterlimit="10" stroke-width="2"/><circle cx="24.614" cy="54.782" r="3" fill="none" stroke="#000" stroke-linecap="round" stroke-linejoin="round" stroke-miterlimit="10" stroke-width="2"/><path d="m24.614 51.782s-1.3273-5.4596 2.2791-9.2021" fill="none" stroke="#000" stroke-linecap="round" stroke-linejoin="round" stroke-miterlimit="10" stroke-width="2"/><path d="m49.916 45.979c6.2065 3.1183 4.8522 11.921 4.8522 11.921" fill="none" stroke="#000" stroke-linecap="round" stroke-linejoin="round" stroke-miterlimit="10" stroke-width="2"/><path d="m28.594 45.99c2.4969 1.5232 4.7846 2.5066 7.2993 2.5014h-0.125c2.3664 0.0049 4.5318-0.8657 6.8597-2.2377" fill="none" stroke="#000" stroke-linecap="round" stroke-linejoin="round" stroke-miterlimit="10" stroke-width="2"/><path d="m16.893 57.9s-1.4346-9.3247 5.4161-12.179" fill="none" stroke="#000" stroke-linecap="round" stroke-linejoin="round" stroke-miterlimit="10" stroke-width="2"/><path d="m44.458 42.58c1.5847 1.6445 2.4274 5.3192 2.4274 5.3192-3.4246 0.1134-3.3095 3.8829-3.3095 3.8829s-0.7793 5.5625 1.6548 5.4316l-0.1645 1.6162 0.2835-2.963" fill="none" stroke="#000" stroke-linecap="round" stroke-linejoin="round" stroke-miterlimit="10" stroke-width="2"/><path d="m47.291 47.899c3.4246 0.1134 3.3096 3.8829 3.3096 3.8829s0.7793 5.5625-1.6549 5.4316l0.1645 1.6162-0.2835-2.963" fill="none" stroke="#000" stroke-linecap="round" stroke-linejoin="round" stroke-miterlimit="10" stroke-width="2"/><line x1="29.953" x2="35.61" y1="46.767" y2="57.9" fill="none" stroke="#000" stroke-linecap="round" stroke-linejoin="round" stroke-miterlimit="10" stroke-width="2"/><line x1="41.268" x2="35.61" y1="46.997" y2="57.9" fill="none" stroke="#000" stroke-linecap="round" stroke-linejoin="round" stroke-miterlimit="10" stroke-width="2"/></g></svg>
