<?xml version="1.0" encoding="UTF-8"?>
<svg id="a" viewBox="0 0 72 72" xmlns="http://www.w3.org/2000/svg"><g id="b" fill="#D0CFCE"><path d="m63 61v-8c0-7-4-10-8-10h-12c-2.7842 0-5.5645 0.5059-7 3.75-1.125-3.3125-4.2158-4.7031-7-4.7031-5 0-5 0.9531-12 0.9531-4 0-8 3-8 10v8"/><path d="m15 26c0 4 0.876 6.3145 2 8 1.4316 2.1484 3.7061 3 6 3 2.3809 0 4.5664-0.8516 6-3 1.123-1.6855 2-4 2-8 0-2.1484-1.0771-9-8-9s-8 5.4189-8 9z"/><path d="m41 26c0 4 0.876 6.3145 2 8 1.4316 2.1484 3.7061 3 6 3 2.3809 0 4.5664-0.8516 6-3 1.123-1.6855 2-4 2-8 0-2.1484-1.0771-9-8-9s-8 5.4189-8 9z"/></g><g id="c" fill="none" stroke="#000" stroke-linejoin="round" stroke-width="2"><path d="m35 60v-7c0-7 4-10 8-10h12c4 0 8 3 8 10v7m-29-14.902m-25 14.902v-7c0-7 4-10 8-10h12c1.5313 0 3.0605 0.5313 4.3672 1.5488" stroke-linecap="round"/><path d="m15 26c0 4 0.876 6.3145 2 8 1.4316 2.1484 3.7061 3 6 3 2.3809 0 4.5664-0.8516 6-3 1.123-1.6855 2-4 2-8 0-2.1484-1.0771-9-8-9s-8 5.4189-8 9z"/><path d="m41 26c0 4 0.876 6.3145 2 8 1.4316 2.1484 3.7061 3 6 3 2.3809 0 4.5664-0.8516 6-3 1.123-1.6855 2-4 2-8 0-2.1484-1.0771-9-8-9s-8 5.4189-8 9z"/></g></svg>
