<?xml version="1.0" encoding="UTF-8"?>
<svg id="a" viewBox="0 0 72 72" xmlns="http://www.w3.org/2000/svg"><g id="b"><path d="m40.951 10.512s5.4813 8.9463 1.1446 12.828l5.4149 4.4923s8.3123-12.222-6.5595-17.32z" fill="#d0cfce"/><path d="m54.864 60.107s2-13.797-10-13.797c-3.1918 2.1192-5.9264 3.5837-9 3.5775h0.125c-3.0736 0.0062-5.8081-1.4583-9-3.5775-12 0-10 13.797-10 13.797" fill="#b1cc33"/><path d="m45.257 45.163c-3.1127 2.0751-4.9833 3.24-8.9725 3.8184 12.827 0.404 12.827 7.1793 13.575 11.107h5.02s2.1607-14.926-9.6225-14.926z" fill="#5c9e31"/></g><g id="c"><g id="d"><path d="M47.02,26.7651a17.639,17.639,0,0,1,.32,3.36c0,7.83-5.08,14.18-11.34,14.18s-11.34-6.35-11.34-14.18A8.8677,8.8677,0,0,1,25,27l.74-.995C28.14,23.9925,34.2985,20.9667,36,23c2.8123-2.0267,8.7265,1.6022,10.18,3.005L47,27C47.08,27.32,46.96,26.4351,47.02,26.7651ZM41,29c0-1.1.11-2.235-1-2.235-1.1,0-1,1.135-1,2.235,0,1.11-.1,1,1,1C41.11,30,41,30.11,41,29Zm-2,8c.49-.25,1.14.065.9-.425a.9935.9935,0,0,0-1.3292-.4554l-.0108.0054a5.383,5.383,0,0,1-5.11,0,.9879.9879,0,0,0-1.33.429l-.01.021c-.25.49,1.39.175,1.89.425,1.14.57.85,1,2,1A6.2213,6.2213,0,0,0,39,37Zm-6-8c0-1.1.11-2.235-1-2.235-1.1,0-1,1.135-1,2.235,0,1.11-.1,1,1,1C33.11,30,33,30.11,33,29Z" fill="#6a462f"/></g></g><g id="e"><path d="m24.761 27.38a17.585 17.585 0 0 0-0.1145 2.0118c0 7.83 5.08 14.18 11.34 14.18s11.34-6.35 11.34-14.18a17.864 17.864 0 0 0-0.1132-2.0119" fill="none" stroke="#000" stroke-miterlimit="10" stroke-width="2"/><path d="m40.098 26.252a2 2 0 1 1-2 2 2 2 0 0 1 2-2z"/><path d="M39.9884,36.0625a.9935.9935,0,0,1-.4392,1.3346l-.0108.0054a7.33,7.33,0,0,1-6.89,0,1.0108,1.0108,0,0,1-.45-1.34.9935.9935,0,0,1,1.3292-.4554l.0108.0054a5.383,5.383,0,0,0,5.11,0,.9935.9935,0,0,1,1.3346.4391Z"/><path d="m32.098 26.252a2 2 0 1 1-2 2 2.0258 2.0258 0 0 1 0.45-1.27 2.0008 2.0008 0 0 1 1.55-0.73z"/><path d="m40.098 26.252a2 2 0 1 1-2 2 2 2 0 0 1 2-2z"/><path d="m32.098 26.252a2 2 0 1 1-2 2 2.0258 2.0258 0 0 1 0.45-1.27 2.0008 2.0008 0 0 1 1.55-0.73z"/><path d="m44.908 46.112c12 0 10 13 10 13" fill="none" stroke="#000" stroke-linecap="round" stroke-linejoin="round" stroke-width="2"/><path d="m41.468 48.182a35.344 35.344 0 0 0 3.33-2" fill="none" stroke="#000" stroke-linecap="round" stroke-linejoin="round" stroke-width="2"/><path d="m17.038 59.112s-2-13 10-13c3.14 2.09 5.84 3.55 8.87 3.59h0.13a12.204 12.204 0 0 0 5.42-1.51" fill="none" stroke="#000" stroke-linecap="round" stroke-linejoin="round" stroke-width="2"/><path d="M24.8484,27.7725c.33-.22,1.59-1.07,3.17-2.35a39.4579,39.4579,0,0,0,4.08-3.79,18.7212,18.7212,0,0,0,4.07-6.24,9.0835,9.0835,0,0,0,.47-1.95,6.8916,6.8916,0,0,0-.53-3.75c0-.01-.01-.02-.01-.03a13.1,13.1,0,0,0-3.84.54c-15.84,4.84-7.5,17.63-7.5,17.63l.09-.06" fill="none" stroke="#000" stroke-linecap="round" stroke-linejoin="round" stroke-width="2"/><path d="m23.408 23.962a40.622 40.622 0 0 0 9.66-10.11" fill="none" stroke="#000" stroke-linecap="round" stroke-linejoin="round" stroke-width="2"/><path d="m47.408 27.762a46.098 46.098 0 0 1-6.98-6.13 21.354 21.354 0 0 1-4.13-6.19" fill="none" stroke="#000" stroke-linecap="round" stroke-linejoin="round" stroke-width="2"/><path d="M36.1684,9.6625a13.2154,13.2154,0,0,1,3.85.54c10.25,3.13,10.37,9.6,9.18,13.76a15.5842,15.5842,0,0,1-1.69,3.87s-.03-.02-.1-.07" fill="none" stroke="#000" stroke-linecap="round" stroke-linejoin="round" stroke-width="2"/><path d="m48.858 23.962a49.714 49.714 0 0 1-9.3-10.11" fill="none" stroke="#000" stroke-linecap="round" stroke-linejoin="round" stroke-width="2"/><path d="m32.098 21.632s4.59 3.57 8.33 0h0.01" fill="none" stroke="#000" stroke-linecap="round" stroke-linejoin="round" stroke-width="2"/><path d="M44.9084,46.1125a.9213.9213,0,0,0-.11.07c-.37.21-1.64.96-3.33,2a.01.01,0,0,1-.01.01c-5.09,3.14-14.05,8.95-14.05,10.92" fill="none" stroke="#000" stroke-linecap="round" stroke-linejoin="round" stroke-width="2"/></g></svg>
