<?xml version="1.0" encoding="UTF-8"?>
<svg id="a" viewBox="0 0 72 72" xmlns="http://www.w3.org/2000/svg"><g id="b"><path d="m51.759 19.365c-0.623 0.2558-1.2909 0.3844-1.9644 0.3781-4.3286 0.0022-8.078 1.8283-12.338 2.1357-5.0235 0.3625-9.3729-1.7156-14.266-2.062-0.568-0.037-1.1264-0.1647-1.6541-0.3781-0.4062 0.1384-0.8275 0.2274-1.2549 0.2651-8.8148 8.7879-8.8367 23.058-0.0487 31.873s23.058 8.8367 31.873 0.0487 8.8367-23.058 0.0487-31.873c-0.1305-0.1308-0.2625-0.26-0.396-0.3875z" fill="#EA5A47"/><path d="m57.744 27.453c2.0194-0.5984 4.1984-0.3024 5.985 0.813 0 0 0.9579-6.6034-8.62-11.32l5.6-1.3534-6.43-4.2878c-1.8164-0.4281-3.7106-0.5449-5.943-0.4239v5.1193s-4 0-5-1l0.9712-4.4568c-5.8179-1.8651-11.14-2.1988-15.857 0.0568l-0.1143 3.4c0 1-4 2-4 2l-1.9561-5.8942c-2.5773 0-4.179 0.6578-4.179 0.6578l-5.9226 4.8286c1.9768-0.9884 6.4331 0.41 6.4331 0.41s-8.6206 0.9434-10.536 13.207c0 0 3.8313-2.83 6.7047-2.83 0 0-10.536 3.7734-6.7047 20.754 0 0 1.9155-4.7168 4.789-5.66 0 0-3.8313 8.49 5.7471 17.924 0 0 1.5046-4.3139 2.4624-5.2572 0 0 1.3383 8.0873 7.0852 9.0306 0 0-0.9272-1.8866 0.9885-4.7168 2.0318 4.1166 5.9841 6.9476 10.536 7.5467 0 0-1.6543-6.9638 3.1349-7.9071 0 0 1.6543 0.36 1.6543 4.1337 0 0 5.2644-4.3139 5.2644-8.0873 2.1524 0.4806 3.8333 2.1614 4.314 4.3138 0 0 4.551-4.8542 3.5931-16.174 0 0 4.0695-1.7492 6.9429 3.911 0 4e-4 2.6354-10.247-6.9429-18.737zm0.5922 12.547c-3 10-11 18-20 18s-23-5-24-15-2-14 5-23c0 0 13 1 18 2 0 0 13-4 16-2 0 0 8 10 5 20z" fill="#6A462F"/><path d="m28.989 12.211c-2.4037-1.6025-3.2048-4.0062-2.4032-7.2111-5.6086 1.6025-4.8074 8.0123-2.4037 12.018 4.2466 0.8015 4.8069-4.8074 4.8069-4.8074z" fill="#D22F27"/><path d="m47.156 17.018c2.4035-4.0062 3.2047-10.416-2.4039-12.018 0.8012 3.2049 0 5.6086-2.4037 7.2111-3.6055 2.4038 0.5603 5.6089 4.8076 4.8074z" fill="#D22F27"/></g><g id="c"><line x1="49.21" x2="41.567" y1="24.646" y2="26.899" fill="none" stroke="#000" stroke-linecap="round" stroke-linejoin="round" stroke-width="2"/><path d="m18.208 11.639c-4.9423 1.9768-6.2023 4.3636-6.2023 4.3636s3.8313-0.9433 6.7048 0c0 0-8.62 0.9434-10.536 13.207 0 0 3.8313-2.83 6.7048-2.83 0 0-10.536 3.7735-6.7048 20.754 0 0 1.9157-4.7167 4.7892-5.66 0 0-3.8314 8.49 5.7469 17.924 0 0 1.5047-4.3138 2.4625-5.2572 0 0 1.3383 8.0873 7.0853 9.0306 0 0-0.9273-1.8867 0.9883-4.7167 2.032 4.1168 5.9846 6.9478 10.536 7.5466 0 0-1.6543-6.9638 3.1348-7.9071 0 0 1.6543 0.36 1.6543 4.1337 0 0 5.2644-4.3139 5.2644-8.0873 2.1524 0.4806 3.8333 2.1615 4.3139 4.3139 0 0 4.5511-4.8543 3.5932-16.174 0 0 4.0694-1.7493 6.9429 3.9109 0 0 2.6354-10.247-6.9429-18.737 2.0194-0.5984 4.1985-0.3024 5.9851 0.813 0 0 0.9578-6.6034-8.62-11.32 0 0 3.8313-1.8867 5.747-0.9434 0 0-4.7318-3.3282-6.8869-3.8459" fill="none" stroke="#000" stroke-linecap="round" stroke-linejoin="round" stroke-width="2"/><line x1="31.303" x2="30.813" y1="43.223" y2="46.705" fill="none" stroke="#000" stroke-linecap="round" stroke-miterlimit="2" stroke-width="2"/><line x1="40.697" x2="41.187" y1="43.223" y2="46.705" fill="none" stroke="#000" stroke-linecap="round" stroke-miterlimit="2" stroke-width="2"/><line x1="30.431" x2="22.788" y1="26.899" y2="24.646" fill="none" stroke="#000" stroke-linecap="round" stroke-linejoin="round" stroke-width="2"/><path d="m31.732 10.43c2.6719-0.8657 5.549-0.8657 8.2209 0" fill="none" stroke="#000" stroke-linecap="round" stroke-linejoin="round" stroke-width="2"/><line x1="27.599" x2="44.401" y1="42.279" y2="42.279" fill="none" stroke="#000" stroke-linecap="round" stroke-linejoin="round" stroke-width="2"/><path d="m53.38 20.805c8.0928 9.599 6.8718 23.941-2.7272 32.034s-23.941 6.8718-32.034-2.7272c-7.2418-8.5896-7.1228-21.181 0.2801-29.632" fill="none" stroke="#000" stroke-linecap="round" stroke-miterlimit="10" stroke-width="2"/><path d="m18.903 20.483s4.9777-1.2939 9.1885 0.0507c2.5313 0.8443 5.1933 1.2283 7.86 1.1339" fill="none" stroke="#000" stroke-linecap="round" stroke-linejoin="round" stroke-width="2"/><path d="m52.754 20.483s-4.9778-1.2939-9.1885 0.0507c-2.5313 0.8443-5.1933 1.2283-7.86 1.1339" fill="none" stroke="#000" stroke-linecap="round" stroke-linejoin="round" stroke-width="2"/><path d="m28.989 12.211c-2.4037-1.6025-3.2048-4.0062-2.4032-7.2111-5.6086 1.6025-4.8074 8.0123-2.4037 12.018 4.2466 0.8015 4.8069-4.8074 4.8069-4.8074z" fill="none" stroke="#000" stroke-linecap="round" stroke-linejoin="round" stroke-width="2"/><path d="m47.156 17.018c2.4035-4.0062 3.2047-10.416-2.4039-12.018 0.8012 3.2049 0 5.6086-2.4037 7.2111-3.6055 2.4038 0.5603 5.6089 4.8076 4.8074z" fill="none" stroke="#000" stroke-linecap="round" stroke-linejoin="round" stroke-width="2"/><path d="m30 32c0 1.6568-1.3448 3-3 3-1.6553 0-3-1.3433-3-3 0-1.6552 1.3447-3 3-3 1.6552 0 3 1.3448 3 3"/><path d="m48 32c0 1.6568-1.3447 3-3 3s-3-1.3433-3-3c0-1.6552 1.3447-3 3-3s3 1.3448 3 3"/></g></svg>
