<?xml version="1.0" encoding="UTF-8"?>
<svg id="a" viewBox="0 0 72 72" xmlns="http://www.w3.org/2000/svg"><g id="b"><polygon points="15.313 11 56.313 11 56.313 45 55.313 50 52.313 54 49.313 58 46.313 60 42.313 62 36.313 62 29.313 61 24.313 59 21.313 56 18.313 52 16.313 49 15.313 43" fill="#EA5A47" stroke="#EA5A47" stroke-miterlimit="10"/><path d="m23.298 23.865 0.4543-0.5574c1.2341-1.514 3.4619-1.7409 4.9759-0.5068l4.5938 3.7446c1.514 1.2341 1.7409 3.4619 0.5068 4.9759l-0.4543 0.5574c-1.2341 1.514-3.4619 1.7409-4.9759 0.5068l-4.5938-3.7446c-1.5141-1.2341-1.741-3.4619-0.5068-4.9759z" fill="#fff" stroke="#fff" stroke-linecap="round" stroke-linejoin="round"/><path d="m39.752 32.078-0.4543-0.5574c-1.2341-1.514-1.0072-3.7418 0.5068-4.9759l4.5938-3.7446c1.514-1.2341 3.7418-1.0072 4.9759 0.5068l0.4543 0.5574c1.2341 1.514 1.0072 3.7418-0.5068 4.9759l-4.5938 3.7446c-1.5139 1.2341-3.7417 1.0072-4.9759-0.5068z" fill="#fff" stroke="#fff" stroke-linecap="round" stroke-linejoin="round"/><g fill="#D22F27"><polygon points="36.313 41 46.313 35 55.313 35 57.872 35 60.313 35 63.313 35 64.313 36 65.313 37 65.313 38 65.313 40 63.313 41 59.313 41 54.313 41 51.313 41 48.313 41"/><path d="m38.867 35h8.8922c1.4105 0 2.5539 1.1434 2.5539 2.5539v0.8922c0 1.4105-1.1434 2.5539-2.5539 2.5539h-8.8922c-1.4105 0-2.5539-1.1434-2.5539-2.5539v-0.8922c0-1.4105 1.1434-2.5539 2.5539-2.5539z"/></g></g><g id="c"><polyline points="15.5 42 15.5 11 56.5 11 56.5 32.201" fill="none" stroke="#000" stroke-linecap="round" stroke-linejoin="round" stroke-width="2"/><path d="m56.418 43.851c-1.0227 11.276-10.993 19.588-22.269 18.565-10.561-0.9579-18.648-9.8117-18.649-20.416" fill="none" stroke="#000" stroke-linecap="round" stroke-miterlimit="10" stroke-width="2"/><path d="m43.813 50.541c-5.0061-2.0554-10.62-2.0554-15.626 0" fill="none" stroke="#000" stroke-linecap="round" stroke-miterlimit="10" stroke-width="2"/><path d="m33.63 28.925c0 1.6569-1.3431 3-3 3s-3-1.3431-3-3 1.3431-3 3-3c1.6565 7e-4 2.9993 1.3434 3 3"/><path d="m45.63 28.925c0 1.6569-1.3431 3-3 3s-3-1.3431-3-3 1.3431-3 3-3c1.6566 6e-4 2.9994 1.3434 3 3"/><line x1="25.313" x2="32.313" y1="17" y2="23" fill="none" stroke="#000" stroke-linecap="round" stroke-linejoin="round" stroke-width="2"/><line x1="47.313" x2="40.313" y1="17" y2="23" fill="none" stroke="#000" stroke-linecap="round" stroke-linejoin="round" stroke-width="2"/><line x1="55.372" x2="39.254" y1="35" y2="35" fill="none" stroke="#000" stroke-linecap="round" stroke-linejoin="round" stroke-width="2"/><line x1="60.313" x2="55.43" y1="35" y2="35" fill="none" stroke="#000" stroke-linecap="round" stroke-linejoin="round" stroke-width="2"/><path d="m56.5 41h4.8125s4 0 4-3c0.0345-1.6224-1.2527-2.9655-2.8751-3-0.0416-9e-4 -0.0833-9e-4 -0.1249 0h-2" fill="none" stroke="#000" stroke-linecap="round" stroke-linejoin="round" stroke-width="2"/><line x1="36.313" x2="56.5" y1="41" y2="41" fill="none" stroke="#000" stroke-linecap="round" stroke-linejoin="round" stroke-width="2"/><path d="m36.313 45s4-3 8 0c0.7638 0.6155 1.6585 1.0478 2.6154 1.2638" fill="none" stroke="#000" stroke-linecap="round" stroke-linejoin="round" stroke-width="2"/><path d="m35.928 45s-4-3-8 0c-0.7638 0.6155-1.6585 1.0478-2.6154 1.2638" fill="none" stroke="#000" stroke-linecap="round" stroke-linejoin="round" stroke-width="2"/></g></svg>
