<?xml version="1.0" encoding="UTF-8"?>
<svg id="a" version="1.1" viewBox="0 0 72 72" xmlns="http://www.w3.org/2000/svg"><g id="b" fill="#fff"><path d="m56.88 51.974c7 0-7.4648-26.286-7.4648-26.286h-28.337s-14.465 26.286-7.4648 26.286h43.267z"/><path d="m50.376 58.86c-5.4754-7.6615-12.44-2.7078-14.439-1.4018-1.9991-1.306-8.9639-6.2597-14.439 1.4018"/></g><g id="c" fill="#fcea2b"><circle cx="35.734" cy="11.446" r="5.0825"/><path d="m50.863 25.767c0 3.2423-0.8358 5.6961-2.2824 7.5154-2.9998-2.6292-22.225-3.4287-25.524 0.1695-1.551-1.8407-2.4526-4.3491-2.4526-7.6849 0-8.3558 6.7737-15.13 15.13-15.13s15.13 6.7737 15.13 15.13z"/></g><g id="d" fill="#debb90"><path d="m35.937 57.458c1.9984-1.3055 8.9591-6.2561 14.434 1.3944h4.8175c-0.231-0.1 1.3247-14.435-10.24-14.4-3.1709 2.1139-6.3835 3.6741-9.4389 3.6884-3.0474-0.0143-5.7666-1.4755-8.9361-3.5884-12 0-10 14.3-10 14.3h4.9299c5.4747-7.6505 12.435-2.7 14.434-1.3944z"/><path d="m25.094 31.519c1.1737 6.2639 5.6711 10.928 11.04 10.928 5.2521 0 9.6701-4.4636 10.959-10.522l-0.0086 0.0191c-3.4939-1.7469 0.122-6.0516 0.122-6.0516-2.2447-0.4311-4.8094-2.6289-6.9016-4.8433l-0.0451-0.2859c-1.2647 0.1992-2.7309 0.3347-4.3793 0.3347-1.5215 0-2.8878-0.1154-4.0839-0.2898l-0.0352 0.241c-2.0922 2.2144-4.657 4.4122-6.9017 4.8433 0 0 3.616 4.3047 0.1221 6.0516"/></g><g id="e"><path d="m41.989 27c0 1.1045-0.8965 2-2 2s-2-0.8955-2-2c0-1.1035 0.8965-2 2-2s2 0.8965 2 2"/><path d="m33.989 27c0 1.1045-0.8965 2-2 2s-2-0.8955-2-2c0-1.1035 0.8965-2 2-2s2 0.8965 2 2"/><path d="m35.989 37.002c-1.1518 0-2.3037-0.2861-3.4472-0.8579-0.4942-0.2471-0.6944-0.8477-0.4473-1.3418 0.2466-0.4936 0.8462-0.6943 1.3418-0.4473 1.7178 0.8594 3.3877 0.8594 5.1055 0 0.4946-0.247 1.0947-0.0463 1.3418 0.4473 0.247 0.4941 0.0468 1.0947-0.4473 1.3418-1.1436 0.5718-2.2954 0.8579-3.4473 0.8579z"/><path d="m24.949 31.606c1.1736 6.2639 5.671 10.928 11.04 10.928 5.2521 0 9.6702-4.4636 10.959-10.522" fill="none" stroke="#000" stroke-miterlimit="10" stroke-width="2"/><path d="m16.929 57.853s-2-13 10-13c3.1919 2.1279 5.9264 3.5984 9 3.5921h-0.125c3.0736 0.0063 5.8082-1.4642 9-3.5921 12 0 10 13 10 13" fill="none" stroke="#000" stroke-linecap="round" stroke-linejoin="round" stroke-miterlimit="10" stroke-width="2"/><path d="m50.376 57.853c-5.4754-7.6615-12.44-1.6678-14.439-0.3618-1.9991-1.306-8.9639-7.2997-14.439 0.3618" fill="none" stroke="#000" stroke-linecap="round" stroke-linejoin="round" stroke-miterlimit="10" stroke-width="2"/><path d="m45.581 18.856s-3.6254 1.9295-9.8462 1.9295-9.8484-1.9295-9.8484-1.9295" fill="none" stroke="#000" stroke-linecap="round" stroke-linejoin="round" stroke-miterlimit="10" stroke-width="2"/><path d="m31.616 21.137c-2.0922 2.2144-4.6569 4.4122-6.9016 4.8433 0 0 3.6159 4.3047 0.122 6.0516-3.4939 1.747-2.5533 4.9134-1.0247 5.2409" fill="none" stroke="#000" stroke-linecap="round" stroke-linejoin="round" stroke-miterlimit="10" stroke-width="2"/><path d="m40.159 21.137c2.0922 2.2144 4.6569 4.4122 6.9016 4.8433 0 0-3.6159 4.3047-0.122 6.0516 3.4939 1.747 2.5533 4.9134 1.0247 5.2409" fill="none" stroke="#000" stroke-linecap="round" stroke-linejoin="round" stroke-miterlimit="10" stroke-width="2"/><path d="m21.497 25s0.5545-13.406 14.367-13.406 14.271 13.946 14.271 13.946" fill="none" stroke="#000" stroke-linecap="round" stroke-linejoin="round" stroke-miterlimit="10" stroke-width="2"/><path d="m30.816 11.525c0-2.7614 2.2386-5 5-5s5 2.2386 5 5" fill="none" stroke="#000" stroke-linecap="round" stroke-linejoin="round" stroke-miterlimit="10" stroke-width="2"/><path d="m14.033 51.286c-7 0 7.4648-26.286 7.4648-26.286s-0.4777 3.23 0.4 4.9148" fill="none" stroke="#000" stroke-linecap="round" stroke-linejoin="round" stroke-miterlimit="10" stroke-width="2"/><path d="m57.299 51.286c7 0-7.2248-26.286-7.2248-26.286s0.4778 3.23-0.4 4.9148" fill="none" stroke="#000" stroke-linecap="round" stroke-linejoin="round" stroke-miterlimit="10" stroke-width="2"/></g></svg>
