<?xml version="1.0" encoding="UTF-8"?>
<svg id="a" viewBox="0 0 72 72" xmlns="http://www.w3.org/2000/svg"><g id="b"><path d="m41.184 14.216c-1.6784-0.5099-3.4229-0.7694-5.177-0.77h-0.036c-1.2518 0.0041-2.5 0.1334-3.726 0.386-4.3415 0.9348-8.1984 3.4083-10.859 6.964-2.0244 2.6542-3.3639 5.7662-3.9 9.061-1.0764 6.1694 0.6871 12.495 4.8 17.218l0.133 0.149c1.055 1.19 2.5 2.82 2.5 4.554l-0.022 4.988c0 0.5523-0.4477 1-1 1 2.2224 1.1344 4.5781 1.9863 7.012 2.536 3.8115 0.8585 7.7771 0.7502 11.536-0.315 3.215-15.177 2.366-31.029-1.261-45.771z" fill="#fff"/><path d="m48.89 18.863c-2.1471-2.1598-4.794-3.7563-7.706-4.648 3.627 14.742 4.476 30.595 1.258 45.766 1.9461-0.5441 3.8246-1.3059 5.6-2.271-0.5501 0.0023-1.0009-0.436-1.014-0.986l-0.069-4.943c0-1.65 1.4-3.191 2.421-4.317 0.145-0.159 0.283-0.311 0.407-0.453 7.0513-8.1923 6.6643-20.417-0.891-28.147l-6e-3 -1e-3z" fill="#D0CFCE"/><path d="m27.864 36.364c-2.4853 0-4.5 2.0147-4.5 4.5s2.0147 4.5 4.5 4.5 4.5-2.0147 4.5-4.5-2.0147-4.5-4.5-4.5z" fill="#3F3F3F"/><path d="m44.212 36.364c-2.4853 0-4.5 2.0147-4.5 4.5s2.0147 4.5 4.5 4.5 4.5-2.0147 4.5-4.5-2.0147-4.5-4.5-4.5z" fill="#3F3F3F"/></g><g id="c" fill="none" stroke="#000" stroke-width="2"><path d="m48.024 56.664-0.069-4.944c0-1.45 1.649-3.035 2.58-4.1 3.4344-3.9474 5.3151-9.0097 5.291-14.242 0-11.6-8.894-21.006-19.856-20.983-1.3183 0.0041-2.6329 0.1405-3.924 0.407-7.89 1.618-14.177 8.457-15.548 16.842-1.1269 6.4665 0.7263 13.096 5.043 18.041 0.917 1.037 2.382 2.62 2.382 4.04l-0.022 4.983" stroke-linecap="round" stroke-linejoin="round"/><line x1="27.864" x2="27.864" y1="55.002" y2="59.782" stroke-linecap="round" stroke-linejoin="round"/><line x1="33.578" x2="33.578" y1="56.067" y2="60.848" stroke-linecap="round" stroke-linejoin="round"/><line x1="44.212" x2="44.212" y1="55.002" y2="59.782" stroke-linecap="round" stroke-linejoin="round"/><line x1="39.028" x2="39.028" y1="56.067" y2="60.848" stroke-linecap="round" stroke-linejoin="round"/><polyline points="33.036 52.209 35.968 46.36 39.474 52.209" stroke-linecap="round" stroke-linejoin="round"/><circle cx="27.864" cy="40.817" r="5" stroke-miterlimit="10"/><circle cx="44.212" cy="40.817" r="5" stroke-miterlimit="10"/></g></svg>
