<?xml version="1.0" encoding="UTF-8"?>
<svg id="a" viewBox="0 0 72 72" xmlns="http://www.w3.org/2000/svg"><g id="b"><rect x="11" y="11" width="50" height="50" fill="#B399C8"/><g id="c"><path d="m52 30.639c0-4.7003-3.8103-8.5106-8.5106-8.5106-3.2363 0-6.0501 1.8067-7.4894 4.4662-1.4392-2.6595-4.2531-4.4662-7.4894-4.4662-4.7003 0-8.5106 3.8103-8.5106 8.5106 0 2.0221 0.7083 3.8769 1.8862 5.337l-0.0029 0.0023 14.117 17.496 14.117-17.496-0.0029-0.0023c1.1779-1.4602 1.8862-3.315 1.8862-5.337z" fill="#fff"/></g></g><g id="d"><rect x="11" y="11" width="50" height="50" fill="none" stroke="#000" stroke-linecap="round" stroke-linejoin="round" stroke-miterlimit="10" stroke-width="2"/><g id="e"><path d="m52 30.639c0-4.7003-3.8103-8.5106-8.5106-8.5106-3.2363 0-6.0501 1.8067-7.4894 4.4662-1.4392-2.6595-4.2531-4.4662-7.4894-4.4662-4.7003 0-8.5106 3.8103-8.5106 8.5106 0 2.0221 0.7083 3.8769 1.8862 5.337l-0.0029 0.0023 14.117 17.496 14.117-17.496-0.0029-0.0023c1.1779-1.4602 1.8862-3.315 1.8862-5.337z" fill="none" stroke="#000" stroke-linejoin="round" stroke-miterlimit="10" stroke-width="2"/></g></g></svg>
