<?xml version="1.0" encoding="UTF-8"?>
<svg id="a" viewBox="0 0 72 72" xmlns="http://www.w3.org/2000/svg"><g id="b"><path d="m55.023 24.349c-0.3898 1e-4 -0.7744 0.0223-1.1547 0.0586-1.0062-3.2881-4.0639-5.6796-7.6814-5.6788-1.3943 3e-4 -2.705 0.3568-3.8475 0.982-1.6049-4.7693-6.1041-8.2084-11.414-8.2072-6.6537 0.0015-12.046 5.3965-12.045 12.05 1e-4 0.5504 0.05 1.088 0.1216 1.6188l-15.001 6.3244v11l14.889 5.8841c-1e-4 0.0239-0.0035 0.047-0.0035 0.071 0.0015 6.6537 5.3965 12.046 12.05 12.045 4.8176-1e-3 8.962-2.8365 10.888-6.9231 1.2585 0.8182 2.7574 1.2979 4.3704 1.2975 3.9024-9e-4 7.1514-2.7856 7.8764-6.4755 0.3167 0.0249 0.634 0.0482 0.9571 0.0482 6.6537-0.0015 12.046-5.3965 12.045-12.05s-5.3964-12.046-12.05-12.045z" fill="#61B2E4"/><path d="m55.486 24.349c-0.3898 1e-4 -0.7744 0.0223-1.1547 0.0586-1.0062-3.2881-4.0639-5.6796-7.6814-5.6788-1.3943 3e-4 -2.705 0.3568-3.8475 0.982-1.6049-4.7693-6.1041-8.2084-11.414-8.2072-6.6537 0.0015-12.046 5.3965-12.045 12.05 1e-4 0.5504 0.05 1.088 0.1216 1.6188l-3.9779 1.6927c2.7356 1.4296 4.8538 3.8796 5.8519 6.8455 1.1426-0.6252 2.4532-0.9817 3.8475-0.982 3.6175-8e-4 6.6752 2.3907 7.6814 5.6788 0.3804-0.0363 0.7649-0.0585 1.1547-0.0586 6.6537-0.0014 12.049 5.3913 12.05 12.045 4e-4 1.5325-0.2968 2.9927-0.8183 4.3412 0.457 0.0814 0.9229 0.1364 1.4035 0.1363 3.9024-9e-4 7.1514-2.7856 7.8764-6.4755 0.3167 0.0249 0.634 0.0482 0.9571 0.0482 6.6537-0.0015 12.046-5.3965 12.045-12.05s-5.3965-12.046-12.05-12.045z" fill="#92D3F5"/></g><g id="c" fill="none" stroke="#000" stroke-linecap="round" stroke-linejoin="round" stroke-miterlimit="10" stroke-width="2"><path d="m5 42.273 14.352 6.1074c-1e-4 0.0239-0.0035 0.047-0.0035 0.071 0.0014 6.6537 5.3965 12.046 12.05 12.045 4.8176-1e-3 8.962-2.8365 10.888-6.9231 1.2585 0.8182 2.7574 1.2979 4.3704 1.2975 3.9024-9e-4 7.1514-2.7856 7.8764-6.4755 0.3167 0.0249 0.634 0.0482 0.9571 0.0482 6.6537-0.0015 12.046-5.3965 12.045-12.05s-5.3963-12.046-12.05-12.045c-0.3898 1e-4 -0.7744 0.0223-1.1547 0.0586-1.0062-3.2881-4.0639-5.6796-7.6814-5.6788-1.3943 3e-4 -2.705 0.3568-3.8475 0.982-1.6049-4.7693-6.1041-8.2084-11.414-8.2072-6.6537 0.0015-12.046 5.3965-12.045 12.05 1e-4 0.5504 0.05 1.088 0.1216 1.6188l-14.465 6.1553"/><path d="m5 25.497 9-4s-1-5 4-8"/><path d="m5 47.497 9 4s-1 5 4 8"/></g></svg>
