<?xml version="1.0" encoding="UTF-8"?>
<svg id="a" viewBox="0 0 72 72" xmlns="http://www.w3.org/2000/svg"><g id="b"><path d="m56 46.706c0 11.775-8.9543 21.296-20 21.296s-20-9.5455-20-21.32c0 0-0.2191-14.309 16.656-40.188 0 0 3.1666-5.3703 6.3541-0.3523 16.875 25.879 16.99 40.564 16.99 40.564" fill="#92D3F5"/><path d="m36 3.9991c12.875 10.376 19.875 40.875 19.875 40.875 0 15.001-8.8293 23.126-19.875 23.126 0 0 22-18.126 0-64.002" fill="#61B2E4"/></g><g id="c"><path d="m56 46.706c0 11.775-8.9543 21.296-20 21.296s-20-9.5455-20-21.32c0 0-0.2191-14.309 16.656-40.188 0 0 3.1666-5.3703 6.3541-0.3523 16.875 25.879 16.99 40.564 16.99 40.564" fill="none" stroke="#000" stroke-linecap="round" stroke-linejoin="round" stroke-miterlimit="10" stroke-width="2"/></g></svg>
