<?xml version="1.0" encoding="UTF-8"?>
<svg id="a" viewBox="0 0 72 72" xmlns="http://www.w3.org/2000/svg"><g id="b" stroke-miterlimit="10" stroke-width="2"><path d="m59.959 52.794h-47.918c-0.5523 0-1-0.4477-1-1v-29.547c0-0.5523 0.4477-1 1-1h47.918c0.5523 0 1 0.4477 1 1v29.547c0 0.5523-0.4477 1-1 1z" fill="#92D3F5"/><path d="m60 31h-48c-0.5523 0-1-0.4477-1-1v-2.8c0-0.5523 0.4477-1 1-1h48c0.5523 0 1 0.4477 1 1v2.8c0 0.5523-0.4477 1-1 1z" fill="#3F3F3F"/><path d="m20.998 47.8h-1.9471c-1.6645 0-3.0264-1.3619-3.0264-3.0264v-1.9471c0-1.6645 1.3619-3.0265 3.0264-3.0265h1.9471c1.6645 0 3.0264 1.3619 3.0264 3.0265v1.9471c1e-4 1.6645-1.3618 3.0264-3.0264 3.0264z" fill="#FCEA2B" stroke-linecap="round" stroke-linejoin="round"/></g><g id="c" fill="none" stroke="#000" stroke-miterlimit="10" stroke-width="2"><path d="m59.959 52.794h-47.918c-0.5523 0-1-0.4477-1-1v-29.547c0-0.5523 0.4477-1 1-1h47.918c0.5523 0 1 0.4477 1 1v29.547c0 0.5523-0.4477 1-1 1z"/><path d="m60 31h-48c-0.5523 0-1-0.4477-1-1v-2.8c0-0.5523 0.4477-1 1-1h48c0.5523 0 1 0.4477 1 1v2.8c0 0.5523-0.4477 1-1 1z"/><path d="m20.998 47.8h-1.9471c-1.6645 0-3.0264-1.3619-3.0264-3.0264v-1.9471c0-1.6645 1.3619-3.0265 3.0264-3.0265h1.9471c1.6645 0 3.0264 1.3619 3.0264 3.0265v1.9471c1e-4 1.6645-1.3618 3.0264-3.0264 3.0264z" stroke-linecap="round" stroke-linejoin="round"/></g></svg>
