<?xml version="1.0" encoding="UTF-8"?>
<svg id="a" viewBox="0 0 72 72" xmlns="http://www.w3.org/2000/svg"><g id="b"><rect transform="matrix(.7071 -.7071 .7071 .7071 -15.447 37.998)" x="29.145" y="23.354" width="18" height="28.582" fill="#fff"/><path d="m13.979 56.778c0.3645 0.3645 0.8533 0.5189 1.325 0.4674 0 0 8.9017 0.0515 13.962-4.8025 0.0643-0.0557 0.1243-0.1157 0.1843-0.1758 1.8352-1.8352 1.8309-4.8068 0-6.6377-1.831-1.831-4.8025-1.8352-6.6377 0l-8.8331 8.8331c-0.6389 0.639-0.6389 1.6766 0 2.3155z" fill="#fff" stroke-linecap="round" stroke-miterlimit="10" stroke-width="2"/><path d="m22.146 53.019c0.12 0.81-0.36 1.98-1.31 2.98-0.29 0.3-0.59 0.56-0.9 0.76" fill="#fff" stroke-linecap="round" stroke-miterlimit="10" stroke-width="2"/><path d="m17.966 55.659c-0.08 0.58-0.36 1.11-0.8 1.49" fill="#fff" stroke-linecap="round" stroke-miterlimit="10" stroke-width="2"/><ellipse transform="matrix(.7071 -.7071 .7071 .7071 -6.9934 31.418)" cx="34.428" cy="24.151" rx="2.328" ry="2.328" fill="#5C9E31"/><ellipse transform="matrix(.7071 -.7071 .7071 .7071 -13.994 48.938)" cx="52.077" cy="41.361" rx="2.328" ry="2.328" fill="#5C9E31"/><ellipse transform="matrix(.7071 -.7071 .7071 .7071 -17.103 27.23)" cx="24.319" cy="34.26" rx="2.328" ry="2.328" fill="#5C9E31"/><ellipse transform="matrix(.7071 -.7071 .7071 .7071 -24.252 44.491)" cx="41.58" cy="51.521" rx="2.328" ry="2.328" fill="#5C9E31"/><rect transform="matrix(-.7071 .7071 -.7071 -.7071 97.168 23.424)" x="42.898" y="18.172" width="1.67" height="27.329" fill="#5C9E31"/><rect transform="matrix(-.7071 .7071 -.7071 -.7071 85.09 50.974)" x="31.153" y="29.445" width="1.67" height="27.329" fill="#5C9E31"/><rect transform="matrix(.7071 .7071 -.7071 .7071 28.353 -12.115)" x="27.956" y="19.02" width="1.6895" height="18.295" fill="#5C9E31"/><rect transform="matrix(.7071 .7071 -.7071 .7071 47.185 -19.916)" x="46.788" y="37.852" width="1.6895" height="18.295" fill="#5C9E31"/><ellipse transform="matrix(.7071 -.7071 .7071 .7071 -15.334 37.916)" cx="38.101" cy="37.468" rx="5.7418" ry="9.277" fill="#5C9E31"/><path d="m47.425 35.192-11.733 11.733c-0.0422 0.0422-0.0886 0.0725-0.1392 0.0987-0.2062 0.1007-0.4716 0.0578-0.6501-0.1206l-6.2227-6.2227c-0.1785-0.1785-0.2214-0.4439-0.1206-0.6501 0.0262-0.0505 0.0565-0.097 0.0987-0.1392l11.733-11.733c0.0422-0.0422 0.0887-0.0725 0.1392-0.0987 0.2062-0.1007 0.4716-0.0578 0.6501 0.1206l6.2227 6.2227c0.1785 0.1785 0.2214 0.4439 0.1206 0.6501-0.0262 0.0506-0.0564 0.0971-0.0986 0.1393z" fill="#fff" stroke-linecap="round" stroke-linejoin="round" stroke-miterlimit="10" stroke-width="2"/><path d="m57.186 13.571c0.3645 0.3645 0.5189 0.8533 0.4674 1.325 0 0 0.0515 8.9017-4.8025 13.962-0.0557 0.0643-0.1158 0.1243-0.1758 0.1844-1.8352 1.8352-4.8068 1.8309-6.6377 0-1.831-1.831-1.8352-4.8025 0-6.6377l8.8331-8.8331c0.639-0.639 1.6766-0.639 2.3155-1e-4z" fill="#fff" stroke-linecap="round" stroke-miterlimit="10" stroke-width="2"/><path d="m53.427 21.739c0.81 0.12 1.98-0.36 2.98-1.31 0.3-0.29 0.56-0.59 0.76-0.9" fill="#fff" stroke-linecap="round" stroke-miterlimit="10" stroke-width="2"/><path d="m56.067 17.559c0.58-0.08 1.11-0.36 1.49-0.8" fill="#fff" stroke-linecap="round" stroke-miterlimit="10" stroke-width="2"/></g><g id="c" fill="none" stroke="#000" stroke-linecap="round" stroke-miterlimit="10" stroke-width="2"><path d="m13.979 56.778c0.3645 0.3645 0.8533 0.5189 1.325 0.4674 0 0 8.9017 0.0515 13.962-4.8025 0.0643-0.0557 0.1243-0.1157 0.1843-0.1758 1.8352-1.8352 1.8309-4.8068 0-6.6377-1.831-1.831-4.8025-1.8352-6.6377 0l-8.8331 8.8331c-0.6389 0.639-0.6389 1.6766 0 2.3155z"/><line x1="17.236" x2="17.226" y1="57.139" y2="57.129"/><path d="m22.146 53.019c0.12 0.81-0.36 1.98-1.31 2.98-0.29 0.3-0.59 0.56-0.9 0.76"/><path d="m17.966 55.659c-0.08 0.58-0.36 1.11-0.8 1.49"/><path d="m41.055 53.358-18.613-18.613c-0.3905-0.3905-0.3905-1.0237 0-1.4142l11.242-11.242c0.3905-0.3905 1.0237-0.3905 1.4142 0l18.613 18.613c0.3905 0.3905 0.3905 1.0237 0 1.4142l-11.242 11.242c-0.3905 0.3905-1.0237 0.3905-1.4142 0z" stroke-linejoin="round"/><path d="m47.425 35.192-11.733 11.733c-0.0422 0.0422-0.0886 0.0725-0.1392 0.0987-0.2062 0.1007-0.4716 0.0578-0.6501-0.1206l-6.2227-6.2227c-0.1785-0.1785-0.2214-0.4439-0.1206-0.6501 0.0262-0.0505 0.0565-0.097 0.0987-0.1392l11.733-11.733c0.0422-0.0422 0.0887-0.0725 0.1392-0.0987 0.2062-0.1007 0.4716-0.0578 0.6501 0.1206l6.2227 6.2227c0.1785 0.1785 0.2214 0.4439 0.1206 0.6501-0.0262 0.0506-0.0564 0.0971-0.0986 0.1393z" stroke-linejoin="round"/><path d="m57.186 13.571c0.3645 0.3645 0.5189 0.8533 0.4674 1.325 0 0 0.0515 8.9017-4.8025 13.962-0.0557 0.0643-0.1158 0.1243-0.1758 0.1844-1.8352 1.8352-4.8068 1.8309-6.6377 0-1.831-1.831-1.8352-4.8025 0-6.6377l8.8331-8.8331c0.639-0.639 1.6766-0.639 2.3155-1e-4z"/><line x1="57.547" x2="57.537" y1="16.829" y2="16.819"/><path d="m53.427 21.739c0.81 0.12 1.98-0.36 2.98-1.31 0.3-0.29 0.56-0.59 0.76-0.9"/><path d="m56.067 17.559c0.58-0.08 1.11-0.36 1.49-0.8"/></g></svg>
