<?xml version="1.0" encoding="UTF-8"?>
<svg id="a" viewBox="0 0 72 72" xmlns="http://www.w3.org/2000/svg"><g id="b"><polygon id="c" points="34.091 29.625 25.416 50.239 18.42 47.255 10.958 59.008 14.036 61.06 19.633 52.012 24.017 53.691 27.375 55.09 36.061 34.53 46.777 40.539 60.302 13.389 57.504 11.524 44.911 35.875" fill="#b1cc33"/></g><g id="d"><g id="e" fill="none" stroke="#000" stroke-linecap="round" stroke-linejoin="round" stroke-width="2"><polyline points="18.316 32.405 18.316 24.155 23.816 13.155 18.316 24.155 12.816 13.155"/><line x1="13.095" x2="23.46" y1="23.744" y2="23.744"/><polygon points="34.091 29.625 25.416 50.239 18.42 47.255 10.958 59.008 14.036 61.06 19.633 52.012 24.017 53.691 27.375 55.09 36.061 34.53 46.777 40.539 60.302 13.389 57.504 11.524 44.911 35.875"/></g></g></svg>
