<?xml version="1.0" encoding="UTF-8"?>
<svg id="a" viewBox="0 0 72 72" xmlns="http://www.w3.org/2000/svg"><g id="b"><path d="m64.59 28.71c-0.2401-0.92-0.52-1.83-0.85-2.71-0.32-0.89-0.69-1.77-1.1-2.61-2.85-5.92-7.65-10.72-13.57-13.57-0.84-0.41-1.72-0.78-2.61-1.1-0.88-0.33-1.79-0.61-2.71-0.85-2.32-0.59-4.75-0.91-7.25-0.91-0.44 0-0.88 0.01-1.32 0.04-0.11-0.01-0.22 0-0.32 0.01-0.32 0.01-0.64 0.04-0.95 0.07-0.14 0.01-0.28 0.02-0.42 0.04-0.33 0.03-0.65 0.07-0.98 0.12-0.33 0.04-0.65 0.09-0.98 0.15-0.64 0.11-1.28 0.24-1.91 0.4-0.3 0.07-0.6 0.15-0.9 0.23-0.03 0-0.0699 0.01-0.1 0.03-0.6 0.16-1.2 0.35-1.78 0.57-0.27 0.09-0.54 0.19-0.81 0.3-0.07 0.01-0.13 0.04-0.2 0.08-0.56 0.2-1.11 0.44-1.65 0.71-0.29 0.14-0.57 0.28-0.85 0.42-0.57 0.29-1.13 0.6-1.67 0.92l0.017 0.015c-5.3333 3.1692-9.5612 7.9852-11.957 13.775-0.18 0.43-0.35 0.86-0.5099 1.3-0.32 0.87-0.6 1.77-0.82 2.68-0.15 0.56-0.27 1.12-0.37 1.69-0.17 0.83-0.29 1.68-0.37 2.53-0.1001 0.96-0.1501 1.94-0.1501 2.92 0 2.5 0.32 4.9301 0.91 7.2401 0.2401 0.93 0.52 1.83 0.85 2.72 0.48 1.33 1.07 2.62 1.74 3.86 1.34 2.47 3.03 4.72 5 6.68 0.99 1 2.04 1.91 3.16 2.73 0.7401 0.57 1.51 1.09 2.3 1.57h0.01c0.79 0.49 1.61 0.93 2.46 1.34 3.8 1.83 8.06 2.86 12.57 2.86 0.42 0 0.84-0.0099 1.26-0.03 0.15 0 0.31-0.01 0.47-0.03 0.32-0.0099 0.63-0.03 0.94-0.07 0.47-0.03 0.93-0.09 1.39-0.16 0.26-0.03 0.53-0.07 0.79-0.12 0.63-0.1 1.25-0.23 1.87-0.38 0.28-0.06 0.5601-0.13 0.84-0.21 0.66-0.17 1.31-0.37 1.95-0.61 0.28-0.09 0.55-0.19 0.81-0.29 0.59-0.21 1.16-0.46 1.73-0.73 0.28-0.1299 0.56-0.2599 0.84-0.4 0.55-0.28 1.09-0.57 1.63-0.88l-0.0128-0.0112c5.3691-3.0992 9.6674-7.8692 12.133-13.619 0.01-0.01 0.01-0.01 0.01-0.02 0.38-0.87 0.71-1.77 1-2.68 0.14-0.46 0.28-0.93 0.4-1.4 0.1-0.38 0.19-0.77 0.28-1.16 0.13-0.56 0.23-1.13 0.32-1.71 0.08-0.4901 0.14-0.98 0.19-1.48 0.04-0.36 0.0699-0.73 0.09-1.1 0.05-0.63 0.07-1.27 0.07-1.91 0-2.5001-0.32-4.9301-0.91-7.2501zm-23.09 7.25c0 2.76-2.24 5-5 5s-5-2.24-5-5c0-2.7599 2.24-5 5-5s5 2.24 5 5z" fill="#fff"/><path d="m9.7201 24.838c-1.4283 3.4266-2.2206 7.1821-2.2206 11.12 0 15.991 13.01 29.001 29 29.001 5.288 0 10.245-1.4296 14.519-3.9123l-41.298-36.209z" fill="#FCEA2B"/><path d="m63.136 47.415c1.5184-3.5167 2.3638-7.3894 2.3638-11.457 0-15.99-13.009-29-29-29-5.4189 0-10.493 1.4977-14.837 4.0953l41.473 36.362z" fill="#FCEA2B"/></g><g id="c"><path d="m64.59 28.71c-0.2401-0.92-0.52-1.83-0.85-2.71-0.32-0.89-0.69-1.77-1.1-2.61-2.85-5.92-7.65-10.72-13.57-13.57-0.84-0.41-1.72-0.78-2.61-1.1-0.88-0.33-1.79-0.61-2.71-0.85-2.32-0.59-4.75-0.91-7.25-0.91-0.44 0-0.88 0.01-1.32 0.04-0.11-0.01-0.22 0-0.32 0.01-0.32 0.01-0.64 0.04-0.95 0.07-0.14 0.01-0.28 0.02-0.42 0.04-0.33 0.03-0.65 0.07-0.98 0.12-0.33 0.04-0.65 0.09-0.98 0.15-0.64 0.11-1.28 0.24-1.91 0.4-0.3 0.07-0.6 0.15-0.9 0.23-0.03 0-0.0699 0.01-0.1 0.03-0.6 0.16-1.2 0.35-1.78 0.57-0.27 0.09-0.54 0.19-0.81 0.3-0.07 0.01-0.13 0.04-0.2 0.08-0.56 0.2-1.11 0.44-1.65 0.71-0.29 0.14-0.57 0.28-0.85 0.42-0.57 0.29-1.13 0.6-1.67 0.92l0.017 0.015c-5.3333 3.1692-9.5612 7.9852-11.957 13.775-0.18 0.43-0.35 0.86-0.5099 1.3-0.32 0.87-0.6 1.77-0.82 2.68-0.15 0.56-0.27 1.12-0.37 1.69-0.17 0.83-0.29 1.68-0.37 2.53-0.1001 0.96-0.1501 1.94-0.1501 2.92 0 2.5 0.32 4.9301 0.91 7.2401 0.2401 0.93 0.52 1.83 0.85 2.72 0.48 1.33 1.07 2.62 1.74 3.86 1.34 2.47 3.03 4.72 5 6.68 0.99 1 2.04 1.91 3.16 2.73 0.7401 0.57 1.51 1.09 2.3 1.57h0.01c0.79 0.49 1.61 0.93 2.46 1.34 3.8 1.83 8.06 2.86 12.57 2.86 0.42 0 0.84-0.0099 1.26-0.03 0.15 0 0.31-0.01 0.47-0.03 0.32-0.0099 0.63-0.03 0.94-0.07 0.47-0.03 0.93-0.09 1.39-0.16 0.26-0.03 0.53-0.07 0.79-0.12 0.63-0.1 1.25-0.23 1.87-0.38 0.28-0.06 0.5601-0.13 0.84-0.21 0.66-0.17 1.31-0.37 1.95-0.61 0.28-0.09 0.55-0.19 0.81-0.29 0.59-0.21 1.16-0.46 1.73-0.73 0.28-0.1299 0.56-0.2599 0.84-0.4 0.55-0.28 1.09-0.57 1.63-0.88l-0.0128-0.0112c5.3691-3.0992 9.6674-7.8692 12.133-13.619 0.01-0.01 0.01-0.01 0.01-0.02 0.38-0.87 0.71-1.77 1-2.68 0.14-0.46 0.28-0.93 0.4-1.4 0.1-0.38 0.19-0.77 0.28-1.16 0.13-0.56 0.23-1.13 0.32-1.71 0.08-0.4901 0.14-0.98 0.19-1.48 0.04-0.36 0.0699-0.73 0.09-1.1 0.05-0.63 0.07-1.27 0.07-1.91 0-2.5001-0.32-4.9301-0.91-7.2501zm-23.09 7.25c0 2.76-2.24 5-5 5s-5-2.24-5-5c0-2.7599 2.24-5 5-5s5 2.24 5 5z" fill="none" stroke="#000" stroke-linecap="round" stroke-linejoin="round" stroke-miterlimit="10" stroke-width="2"/></g></svg>
