<?xml version="1.0" encoding="UTF-8"?>
<svg id="a" viewBox="0 0 72 72" xmlns="http://www.w3.org/2000/svg"><g id="b"><rect x="12.05" y="12.05" width="47.9" height="47.9" fill="#fff"/><rect x="18.32" y="37.6" width="8" height="21.41" fill="#b1cc33"/><rect x="46.25" y="44.38" width="8" height="14.62" fill="#92d3f5"/><rect x="32.28" y="21.69" width="8" height="37.32" fill="#d22f27"/></g><g id="c" fill="none" stroke="#000" stroke-linecap="round" stroke-linejoin="round" stroke-miterlimit="10" stroke-width="2"><path d="m18.03 59.01v-21.41h8v21.41"/><path d="m45.97 59.01v-14.62h8v14.62"/><line x1="12.75" x2="28.49" y1="31.28" y2="31.28"/><line x1="43.51" x2="59.45" y1="40.82" y2="40.82"/><line x1="57.48" x2="59.17" y1="50.37" y2="50.37"/><rect x="12.05" y="12.05" width="47.9" height="47.9"/><path d="m32 59.01v-37.28h8v37.28"/><line x1="12.39" x2="14.52" y1="40.82" y2="40.82"/><line x1="12.39" x2="14.52" y1="50.37" y2="50.37"/><line x1="43.51" x2="59.45" y1="31.28" y2="31.28"/><line x1="43.51" x2="59.45" y1="21.74" y2="21.74"/><line x1="12.75" x2="28.49" y1="21.74" y2="21.74"/></g></svg>
