<?xml version="1.0" encoding="UTF-8"?>
<svg id="a" viewBox="0 0 72 72" xmlns="http://www.w3.org/2000/svg"><g id="b"><path d="m12.05 59.91h47.9v-47.9h-47.9z" fill="#fff"/><path d="m30.552 40.184-7.9964 12.613 3.3386 2.2033 5.4904-8.9049c0.2539-0.4121 8.8517 2.5407 8.8517 2.5407l10.868-25.802-3.6863-1.5526-9.3903 21.53c-0.2148 0.5098-7.4754-2.6276-7.4754-2.6276z" fill="#ea5a47"/></g><g id="c" fill="none" stroke="#000" stroke-linecap="round" stroke-linejoin="round" stroke-miterlimit="10" stroke-width="2"><polygon points="47.418 21.282 38.115 43.369 30.552 40.184 22.556 52.798 25.895 55.001 31.9 45.261 36.55 47.084 40.237 48.637 51.104 22.834"/><rect x="12.052" y="12.015" width="47.897" height="47.897"/><line x1="50.069" x2="59.805" y1="36.085" y2="36.085"/><line x1="12.739" x2="37.179" y1="36.085" y2="36.085"/><line x1="45.024" x2="59.683" y1="47.993" y2="47.993"/><line x1="12.739" x2="20.819" y1="47.993" y2="47.993"/><line x1="48.133" x2="48.251" y1="40.444" y2="59.37"/><line x1="48.033" x2="48.037" y1="12.059" y2="17.182"/><line x1="36.184" x2="36.184" y1="51.65" y2="59.573"/><line x1="36.184" x2="36.184" y1="12.33" y2="37.831"/><line x1="24.225" x2="24.225" y1="58.613" y2="59.573"/><line x1="24.225" x2="24.225" y1="11.963" y2="43.099"/><line x1="55.184" x2="59.226" y1="24.177" y2="24.177"/><line x1="12.264" x2="41.751" y1="24.177" y2="24.177"/></g></svg>
