<?xml version="1.0" encoding="UTF-8"?>
<svg id="a" viewBox="0 0 72 72" xmlns="http://www.w3.org/2000/svg"><g id="b"><path d="m50.109 10.958h-28.51c-1.6872 0.2932-4.7785 0.9934-4.7785 0.9934l0.3262 52.021c0 1.1025 1.5713 3.0003 2.6738 3.0003h32.849c1.1026 0 2.0002-2.2775 2.0002-3.38v-51.641s-4.5606-0.9927-4.5606-0.9934z" fill="#A57939"/><path d="m32.957 11.209-4.0841 0.1491c-1.6251 0-3.3121 2.401-3.7826 3.8716l21.472 0.3382c-0.4705-1.4707-1.8325-4.3589-3.4576-4.3589l-3.8013-0.3336c-0.3697 0-0.1859-3.8359-3.3445-3.6872s-2.6318 4.0208-3.0015 4.0208z" fill="#d0cfce"/><path d="m51.78 54.94v-0.1743c-0.0021 0.0239-0.0102 0.0456-0.014 0.0689 0.0046 0.0353 0.0131 0.0696 0.014 0.1054z" fill="#fff"/><path d="m47.138 14.853c8e-3 0.1192-2.3273 0.5918-2.88 0.5918 0 0-20.139-0.4492-20.131-0.5685h-3.0741c2e-4 0 2e-4 1e-4 4e-4 1e-4 0.236 0.0377-0.1528 46.546-0.1528 46.546h22.536s7.3614-6.4365 7.3614-6.4623l-0.1522-2.8562 0.1522-36.259c0-0.0543-0.0221-0.9928-0.0221-0.9928h-3.637z" fill="#fff"/><path d="m42.739 57.104c0.0184 0.0177 0.0435 0.0265 0.0633 0.0427-0.0199-0.0159-0.0447-0.0253-0.0633-0.0427z" fill="#fff"/><path d="m43.04 57.301c0.1157 0.0482 0.2423 0.076 0.3765 0.076-0.1336 0-0.2601-0.0286-0.3765-0.076z" fill="#fff"/><polygon points="50.514 55.207 45.83 54.853 43.688 54.766 42.432 56.45 42.432 60.423 43.436 61.422" fill="#d0cfce"/><polyline points="50.645 55.927 43.229 62.404 20.914 62.404" fill="none" stroke="#6A462F" stroke-linecap="round" stroke-linejoin="round" stroke-miterlimit="10" stroke-width="2"/></g><g id="c" fill="none" stroke="#000" stroke-linecap="round" stroke-linejoin="round" stroke-miterlimit="10" stroke-width="2"><path d="m49.686 11.952h4.9838v52.021c0 1.6568-1.3431 3-3 3h-31.849c-1.6569 0-3-1.3432-3-3v-52.021h4.6155"/><line x1="50.797" x2="50.797" y1="15.845" y2="54.96"/><polyline points="43.418 56.376 43.418 54.964 50.796 54.96 43.436 61.422 20.9 61.422 20.9 15.845"/><line x1="24.581" x2="37.348" y1="22.615" y2="22.615"/><line x1="24.581" x2="41.563" y1="26.615" y2="26.615"/><line x1="24.581" x2="44.781" y1="30.615" y2="30.615"/><line x1="24.581" x2="38.134" y1="34.615" y2="34.615"/><line x1="24.581" x2="40.992" y1="38.615" y2="38.615"/><line x1="24.581" x2="31.703" y1="42.615" y2="42.615"/><path d="m42.276 10.944h-3.7961c0.1302-0.3182 0.2034-0.666 0.2034-1.0311 0-1.5047-1.2199-2.7244-2.7247-2.7244-1.5046 0-2.7244 1.2197-2.7244 2.7244 0 0.3651 0.0729 0.7129 0.2033 1.0311h-4.0611c-2.367 0-4.286 1.9189-4.286 4.286h21.472c0-2.3671-1.919-4.286-4.286-4.286z"/></g></svg>
