<?xml version="1.0" encoding="UTF-8"?>
<svg id="a" viewBox="0 0 72 72" xmlns="http://www.w3.org/2000/svg"><g id="b"><path d="M58.7,27.6c0-5.4-2.9627-10.4219-7.3-11.6-3.4284-.9312-15.4-.6-15.4-.6l-11.8036-.0976c-.7,0,3.5036,6.2976,3.5036,12.2976V39.3a2.338,2.338,0,0,1-2.1226,2.3964L58.7,41.6Z" fill="#61b2e4"/><path d="m34.6 27.6v11.8a2.1631 2.1631 0 0 1-2.1 2.3h-17.2a2.15 2.15 0 0 1-2-2.3v-12.8a12.27 12.27 0 0 1 4.6-9.1 9.5025 9.5025 0 0 1 6.1-2.2 13.552 13.552 0 0 1 2 0.2c4.9 1.1 8.6 6.1 8.6 12.1z" fill="#3f3f3f"/><path d="m40.377 31.53v0.9a1.12 1.12 0 0 0 1 1.2h10v2.1a1.12 1.12 0 0 0 1 1.2h7.4a1.1256 1.1256 0 0 0 1-1.2v-4.2a1.12 1.12 0 0 0-1-1.2h-18.4a1.1256 1.1256 0 0 0-1 1.2z" fill="#ea5a47"/><path d="M39.3,59.4V41.6533l-6.813.0082L32.5,46.4v13" fill="#fff"/></g><g id="c" fill="none" stroke="#000" stroke-width="2"><path d="M58.7,30.2954V27.6c0-5.4-3.0287-10.2014-7.3-11.6-3.4695-1.1361-27.2036-.6976-27.2036-.6976" stroke-linecap="round" stroke-linejoin="round"/><path d="M25.5774,41.6964,58.7,41.6V36.9717" stroke-linecap="round" stroke-linejoin="round"/><path d="m40.377 31.53v0.9a1.12 1.12 0 0 0 1 1.2h10v2.1a1.12 1.12 0 0 0 1 1.2h7.4a1.1256 1.1256 0 0 0 1-1.2v-4.2a1.12 1.12 0 0 0-1-1.2h-18.4a1.1256 1.1256 0 0 0-1 1.2z" stroke-linejoin="round"/><path d="m34.6 27.6v11.8a2.1631 2.1631 0 0 1-2.1 2.3h-17.2a2.15 2.15 0 0 1-2-2.3v-12.8a12.27 12.27 0 0 1 4.6-9.1 9.5025 9.5025 0 0 1 6.1-2.2 13.552 13.552 0 0 1 2 0.2c4.9 1.1 8.6 6.1 8.6 12.1z" stroke-miterlimit="10"/><path d="M39.3,59.4V41.6533l-6.813.0082L32.5,46.4v13" stroke-linecap="round" stroke-linejoin="round"/></g></svg>
