<?xml version="1.0" encoding="UTF-8"?>
<svg id="a" viewBox="0 0 72 72" xmlns="http://www.w3.org/2000/svg"><g id="b" stroke-linecap="round" stroke-linejoin="round" stroke-miterlimit="10" stroke-width="2"><rect x="13" y="32" width="46" height="26" fill="#9B9B9A"/><path d="m21 55h-1c-1.6569 0-3-1.3431-3-3v-14c0-1.6569 1.3431-3 3-3h1c1.6569 0 3 1.3431 3 3v14c0 1.6569-1.3431 3-3 3z" fill="#D0CFCE"/><rect x="17" y="13" width="38" height="19" fill="#9B9B9A"/><rect x="29" y="17" width="22" height="15" fill="#fff"/><rect x="46" y="37" width="9" height="8" fill="#B1CC33"/></g><g id="c"><rect x="13" y="32" width="46" height="26" fill="none" stroke="#000" stroke-linecap="round" stroke-linejoin="round" stroke-miterlimit="10" stroke-width="2"/><path d="m21 55h-1c-1.6569 0-3-1.3431-3-3v-14c0-1.6569 1.3431-3 3-3h1c1.6569 0 3 1.3431 3 3v14c0 1.6569-1.3431 3-3 3z" fill="none" stroke="#000" stroke-linecap="round" stroke-linejoin="round" stroke-miterlimit="10" stroke-width="2"/><rect x="17" y="13" width="38" height="19" fill="none" stroke="#000" stroke-linecap="round" stroke-linejoin="round" stroke-miterlimit="10" stroke-width="2"/><rect x="29" y="17" width="22" height="15" fill="none" stroke="#000" stroke-linecap="round" stroke-linejoin="round" stroke-miterlimit="10" stroke-width="2"/><circle cx="29" cy="39" r="2"/><circle cx="35" cy="39" r="2"/><circle cx="41" cy="39" r="2"/><circle cx="29" cy="45" r="2"/><circle cx="35" cy="45" r="2"/><circle cx="41" cy="45" r="2"/><circle cx="29" cy="51" r="2"/><circle cx="35" cy="51" r="2"/><circle cx="41" cy="51" r="2"/><rect x="46" y="37" width="9" height="8" fill="none" stroke="#000" stroke-linecap="round" stroke-linejoin="round" stroke-miterlimit="10" stroke-width="2"/></g></svg>
