<?xml version="1.0" encoding="UTF-8"?>
<svg id="a" version="1.1" viewBox="0 0 72 72" xmlns="http://www.w3.org/2000/svg"><g id="b"><path d="m26.638 36.75-15.35 14.14c-0.35-0.6201-0.57-1.44-0.57-2.32v-26.51l15.92 14.69z" fill="#D0CFCE"/><rect x="21.171" y="19.896" width="28.542" height="3.125" fill="#D0CFCE"/><path d="m60.658 22.01v26.56c0 0.86-0.2 1.65-0.55 2.27l-12.267-11.232-1.6151 1.2252-2.4465-3.2336 16.879-15.589z" fill="#9B9B9A"/><line x1="11.354" x2="11.292" y1="21.649" y2="21.61" fill="none"/><path d="m26.638 36.75 4.47 4.13c0.24 0.22 0.48 0.41 0.72 0.57 2.4301 1.8 5.26 1.8 7.6801-0.01 0.23-0.16 0.47-0.36 0.69-0.56l4.5-4.15" fill="#D0CFCE"/><path d="m26.638 36.75 4.47 4.13c0.24 0.22 0.48 0.41 0.72 0.57 2.4301 1.8 5.26 1.8 7.6801-0.01 0.23-0.16 0.47-0.36 0.69-0.56l4.5-4.15 15.41 14.11c-0.42 0.77-1.07 1.27-1.79 1.27h-45.26c-0.7 0-1.34-0.47-1.77-1.22l15.35-14.14" fill="#D0CFCE" stroke="#D0CFCE" stroke-linecap="round" stroke-linejoin="round" stroke-miterlimit="10" stroke-width="1.8"/><rect x="20" y="36" width="7" height="5" fill="#D0CFCE" stroke="#D0CFCE" stroke-linecap="round" stroke-linejoin="round" stroke-miterlimit="10" stroke-width="2"/><path d="m47.763 39.536 12.345 11.304c-0.42 0.77-1.07 1.27-1.79 1.27h-45.26c-0.7 0-1.34-0.47-1.77-1.22l12.078-11.126" fill="#D0CFCE"/><path d="m49.485 20.9h9.46c0.59 0 1.16 0.35 1.57 0.91 0.05 0.06 0.1 0.13 0.14 0.2l-15.96 14.72-4.5 4.15c-0.22 0.2-0.46 0.4-0.69 0.56-2.42 1.81-5.25 1.81-7.68 0.01-0.24-0.16-0.48-0.35-0.72-0.57l-4.47-4.13-15.92-14.69c0.04-0.06 0.09-0.13 0.14-0.2 0.42-0.6 0.99-0.96 1.61-0.96h8.48" fill="#D0CFCE"/><polyline points="37.698 20.755 33.698 20.755 33.698 27.755 37.698 27.755" fill="none" stroke="#EA5A47" stroke-linecap="round" stroke-miterlimit="10" stroke-width="2"/><line x1="33.698" x2="36.698" y1="24.255" y2="24.255" fill="none" stroke="#EA5A47" stroke-linecap="round" stroke-miterlimit="10" stroke-width="2"/></g><g id="c" fill="none" stroke="#000" stroke-linecap="round" stroke-linejoin="round" stroke-miterlimit="10" stroke-width="2"><path d="m20.072 42.799-8.7837 8.0913c-0.35-0.6201-0.57-1.44-0.57-2.32v-26.51l15.92 14.69"/><path d="m43.779 37.599 16.879-15.589v26.56c0 0.86-0.2 1.65-0.55 2.27l-12.267-11.232"/><line x1="11.354" x2="11.292" y1="21.649" y2="21.61"/><path d="m26.638 36.75 4.47 4.13c0.24 0.22 0.48 0.41 0.72 0.57 2.4301 1.8 5.26 1.8 7.6801-0.01 0.23-0.16 0.47-0.36 0.69-0.56l4.5-4.15"/><path d="m47.763 39.536 12.345 11.304c-0.42 0.77-1.07 1.27-1.79 1.27h-45.26c-0.7 0-1.34-0.47-1.77-1.22l12.078-11.126"/><path d="m49.485 20.9h9.46c0.59 0 1.16 0.35 1.57 0.91 0.05 0.06 0.1 0.13 0.14 0.2l-15.96 14.72-4.5 4.15c-0.22 0.2-0.46 0.4-0.69 0.56-2.42 1.81-5.25 1.81-7.68 0.01-0.24-0.16-0.48-0.35-0.72-0.57l-4.47-4.13-15.92-14.69c0.04-0.06 0.09-0.13 0.14-0.2 0.42-0.6 0.99-0.96 1.61-0.96h8.48"/><path d="m13.188 52.11s-2.7511 0.14-2.4693-4.485"/></g></svg>
