<?xml version="1.0" encoding="UTF-8"?>
<svg id="a" viewBox="0 0 72 72" xmlns="http://www.w3.org/2000/svg"><g id="b"><rect x="45.07" y="25" width="3" height="26" fill="#9b9b9a"/><path d="m47.125 46.307v12.858c0 0.4616-0.3741 0.8357-0.8357 0.8357h-27.578c-0.4616 0-0.8357-0.3741-0.8357-0.8357v-46.8c0-0.4616 0.3741-0.8357 0.8357-0.8357h27.578c0.4616 0 0.8357 0.3741 0.8357 0.8357v14.054" fill="#9b9b9a" stroke-linecap="round" stroke-linejoin="round" stroke-miterlimit="10" stroke-width="2"/><rect x="41.23" y="25" width="3" height="26" fill="#d0cfce"/><path d="m43.364 46.307v4.7258c0 0.4459-0.3614 0.8074-0.8074 0.8074h-20.114c-0.4459 0-0.8074-0.3614-0.8074-0.8074v-33.485c0-0.4459 0.3614-0.8074 0.8074-0.8074h20.114c0.4459 0 0.8074 0.3614 0.8074 0.8074v8.8714" fill="#d0cfce" stroke-linecap="round" stroke-linejoin="round" stroke-miterlimit="10" stroke-width="2"/><polygon points="28.321 14.233 36.679 14.233 36.679 14.233" fill="#fff" stroke-linecap="round" stroke-linejoin="round" stroke-miterlimit="10" stroke-width="2"/></g><g id="c"><path d="m47.125 46.307v12.858c0 0.4616-0.3741 0.8357-0.8357 0.8357h-27.578c-0.4616 0-0.8357-0.3741-0.8357-0.8357v-46.8c0-0.4616 0.3741-0.8357 0.8357-0.8357h27.578c0.4616 0 0.8357 0.3741 0.8357 0.8357v14.054" fill="none" stroke="#000" stroke-linecap="round" stroke-linejoin="round" stroke-miterlimit="10" stroke-width="2"/><path d="m43.364 46.307v4.7258c0 0.4459-0.3614 0.8074-0.8074 0.8074h-20.114c-0.4459 0-0.8074-0.3614-0.8074-0.8074v-33.485c0-0.4459 0.3614-0.8074 0.8074-0.8074h20.114c0.4459 0 0.8074 0.3614 0.8074 0.8074v8.8714" fill="none" stroke="#000" stroke-linecap="round" stroke-linejoin="round" stroke-miterlimit="10" stroke-width="2"/><circle cx="32.5" cy="56.018" r="1.6714"/><polygon points="28.321 14.233 36.679 14.233 36.679 14.233" fill="none" stroke="#000" stroke-linecap="round" stroke-linejoin="round" stroke-miterlimit="10" stroke-width="2"/><polyline points="45.83 36.47 42.83 36.47 42.83 39.97 42.83 32.97 46.83 32.97" fill="none" stroke="#000" stroke-linecap="round" stroke-linejoin="round" stroke-miterlimit="10" stroke-width="2"/><polyline points="53.83 36.47 50.83 36.47 50.83 39.97 50.83 32.97 54.83 32.97" fill="none" stroke="#000" stroke-linecap="round" stroke-linejoin="round" stroke-miterlimit="10" stroke-width="2"/><path d="m35.5 39.97v0c-1.3807 0-2.5-1.1193-2.5-2.5v-2c0-1.3807 1.1193-2.5 2.5-2.5v0c1.3807 0 2.5 1.1193 2.5 2.5v2c0 1.3807-1.1193 2.5-2.5 2.5z" fill="none" stroke="#000" stroke-linecap="round" stroke-linejoin="round" stroke-miterlimit="10" stroke-width="2"/></g></svg>
