<?xml version="1.0" encoding="UTF-8"?>
<svg id="a" viewBox="0 0 72 72" xmlns="http://www.w3.org/2000/svg"><g id="b"><path d="m33.852 28.007c-5.2851 0-9.5842 4.2991-9.5842 9.5842s4.2991 9.5842 9.5842 9.5842 9.5842-4.2991 9.5842-9.5842-4.2991-9.5842-9.5842-9.5842zm0 14.584c-2.7572 0-5-2.2428-5-5s2.2428-5 5-5 5 2.2428 5 5-2.2428 5-5 5z" fill="#3F3F3F"/><circle cx="33.852" cy="37.591" r="4.9999" fill="#D0CFCE"/><path d="m57.931 22.918h-42.661c-1.1816 0-3.1441 1.9245-3.1441 3.0622l0.4567 7.2175h8.0465l4.1493 0.1888c-0.0121 0.0215 3.277-5.7956 9.0743-5.7956 4.1504 0 8.7433 5.0107 8.7387 5.0002l3.3923 0.2991 14.304 0.2302-0.2126-7.1402c0-1.1377-0.9619-3.0622-2.1435-3.0622z" fill="#fff"/><path d="m28.818 19.184c-0.0174 0.2605-1.3503-2.1627-1.3503-2.1627h-9.0351s-1.2818 2.5039-1.3056 2.4387v3.3291l11.691-0.1182v-3.4869z" fill="#F1B31C"/><path d="m56.973 52.518c0.1326-0.0026 3.1017-1.7904 3.1017-1.9245l0.2126-17.473-10.778-0.2263-2.383-0.6966h-3.6908c0.0046 0.0105 0.0097 0.024 0.0144 0.0346 1e-4 1e-4 1e-4 2e-4 1e-4 3e-4 0.2194 0.3912-0.6648 0.7965-0.4939 1.2153 0.0112 0.0275 0.2962 7.996 0.1552 8.1433-0.4261 0.4452-2.2637 3.2105-3.0595 3.8446-2.3873 1.9024-4.5862 2.0301-4.6733 2.0385-0.3453 0.0332-1.9984 0.113-2.1133 0.0988-0.1099-0.0138-2.3397-0.3828-4.2028-1.3936-1.7796-0.9656-3.1984-2.5751-3.2099-2.5883-0.5522-0.6344-0.9877-1.9761-1.0001-2-0.119-0.2288-1.0291-2.1258-0.8403-4.7821 0.0819-1.1522 1.348-4.4997 1.348-4.4997l-4.7313-0.1117c0.1805 0-8.9089 0.3934-8.9089 0.3934l0.1028 16.61s0.5008 1.4067 1.2237 2.1654c0.8471 0.8893 1.9366 1.1514 1.9444 1.1514 0 0 41.968 2e-4 41.982 0z" fill="#9B9B9A"/></g><g id="c" fill="none" stroke="#000" stroke-linecap="round" stroke-linejoin="round" stroke-miterlimit="10" stroke-width="2"><path d="m15.27 22.918c-1.7365 0-3.1441 1.371-3.1441 3.0622v23.221c0 1.6912 1.4076 3.0623 3.1441 3.0623h41.661c1.7365 0 3.1441-1.3711 3.1441-3.0623v-23.221c0-1.6912-1.4076-3.0622-3.1441-3.0622h-41.661z"/><line x1="47.152" x2="59.618" y1="33.198" y2="33.198"/><line x1="12.582" x2="20.629" y1="33.198" y2="33.198"/><circle cx="33.852" cy="37.591" r="10"/><circle cx="33.852" cy="37.591" r="5"/><path d="m27.831 19.12v-1.0782c0-0.5638-0.4692-1.0208-1.048-1.0208h-7.6766c-0.5787 0-1.048 0.457-1.048 1.0208v1.0782"/></g></svg>
