<?xml version="1.0" encoding="UTF-8"?>
<svg id="a" viewBox="0 0 72 72" xmlns="http://www.w3.org/2000/svg"><g id="b" stroke-linecap="round" stroke-linejoin="round" stroke-miterlimit="10" stroke-width="2"><path d="m54.07 59h-26.39c-0.4447 0-0.8052-0.3605-0.8052-0.8052v-45.39c0-0.4447 0.3605-0.8052 0.8052-0.8052h26.39c0.4446 0 0.8051 0.3605 0.8051 0.8052v45.39c0 0.4447-0.3605 0.8052-0.8051 0.8052z" fill="#9B9B9A"/><path d="m50.594 52.053h-19.438c-0.4314 0-0.7812-0.3498-0.7812-0.7812v-32.438c0-0.4315 0.3498-0.7812 0.7812-0.7812h19.438c0.4315 0 0.7812 0.3497 0.7812 0.7812v32.438c0 0.4314-0.3497 0.7812-0.7812 0.7812z" fill="#D0CFCE"/><polygon points="37 15 45 15 45 15" fill="#fff"/></g><g id="c" stroke="#000" stroke-miterlimit="10"><path d="m54.07 59h-26.39c-0.4447 0-0.8052-0.3605-0.8052-0.8052v-45.39c0-0.4447 0.3605-0.8052 0.8052-0.8052h26.39c0.4446 0 0.8051 0.3605 0.8051 0.8052v45.39c0 0.4447-0.3605 0.8052-0.8051 0.8052z" fill="none" stroke-linecap="round" stroke-linejoin="round" stroke-width="2"/><path d="m50.594 52.053h-19.438c-0.4314 0-0.7812-0.3498-0.7812-0.7812v-32.438c0-0.4315 0.3498-0.7812 0.7812-0.7812h19.438c0.4315 0 0.7812 0.3497 0.7812 0.7812v32.438c0 0.4314-0.3497 0.7812-0.7812 0.7812z" fill="none" stroke-linecap="round" stroke-linejoin="round" stroke-width="2"/><circle cx="41" cy="55.5" r="1.5"/><polygon points="37 15 45 15 45 15" fill="none" stroke-linecap="round" stroke-linejoin="round" stroke-width="2"/><path d="M16.5297,42.7513L17.6409,44L25.5,35.5029L17.6351,27L16.53,28.2401l5.1655,5.55 c0.1464,0.1573,0.1693,0.4427,0.051,0.6374c-0.0646,0.1065-0.1621,0.1685-0.265,0.1685H6.5v1.813h14.9675 c0.1882,0.0001,0.3407,0.203,0.3407,0.4534c0,0.1369-0.0466,0.2664-0.1267,0.3525L16.5297,42.7513z"/></g></svg>
