<?xml version="1.0" encoding="UTF-8"?>
<svg id="a" viewBox="0 0 72 72" xmlns="http://www.w3.org/2000/svg"><g id="b"><circle cx="36" cy="36" r="26" fill="#fff"/><path d="m29.48 20h13.52c1.104 0 2 0.8955 2 2v13.52" fill="none"/><path d="m42.52 52h-13.52c-1.104 0-2-0.8955-2-2v-13.52" fill="none"/><polyline points="27 37.48 27 50 39.52 50" fill="#fff" stroke-linecap="round" stroke-linejoin="round" stroke-miterlimit="10" stroke-width="2"/><path d="m41.52 52h-12.52c-1.104 0-2-0.8955-2-2h12.52l2 2z" fill="#fff" stroke-linecap="round" stroke-linejoin="round" stroke-miterlimit="10" stroke-width="2"/><polyline points="45 34.52 45 22 32.48 22" fill="#fff" stroke-linecap="round" stroke-linejoin="round" stroke-miterlimit="10" stroke-width="2"/><path d="m30.48 20h12.52c1.104 0 2 0.8955 2 2h-12.52l-2-2z" fill="#fff" stroke-linecap="round" stroke-linejoin="round" stroke-miterlimit="10" stroke-width="2"/><path d="m36 7c-16.02 0-29 12.98-29 29s12.98 29 29 29 29-12.98 29-29-12.98-29-29-29zm-25.21 29.27c0-5.075 3.417-12.69 6.202-16.49l35.2 35.27c-3.805 2.784-10.93 5.904-16.01 5.904-12.7 0-25.39-11.98-25.39-24.68zm44.87 15.18-35.06-35.13c3.805-2.784 10.77-5.441 15.84-5.441 12.7 0 24.68 12.25 24.68 24.95 0 5.075-2.686 11.81-5.47 15.62z" fill="#ea5a47" stroke-miterlimit="10"/></g><g id="c" fill="none" stroke="#000" stroke-linecap="round" stroke-linejoin="round" stroke-width="2"><path d="m27 35v15h12.52" stroke-miterlimit="10"/><path d="m44.02 52h-15.02c-1.104 0-2-0.8955-2-2h15.02z" stroke-miterlimit="10"/><path d="m45 36v-14h-12.52" stroke-miterlimit="10"/><path d="m28.98 20h14.02c1.104 0 2 0.8955 2 2h-14.02z" stroke-miterlimit="10"/><circle cx="36" cy="36" r="30"/><path d="m55.66 51.44a24.99 24.99 0 0 0-35.06-35.13z"/><path d="m16.99 19.77a24.99 24.99 0 0 0 35.2 35.27z"/></g></svg>
