<?xml version="1.0" encoding="UTF-8"?>
<svg id="a" viewBox="0 0 72 72" xmlns="http://www.w3.org/2000/svg"><g id="b"><path d="m13.223 59.348h45.745v-26.571h-45.745v26.571z" fill="#d0cfce"/><path d="m18.74 38.284 36.479 0.177 0.4075-2.1818h-39.003v11.168l2.0825 0.336 0.0339-9.4996z" fill="#9B9B9A"/><polygon points="59.968 23.793 12.223 23.793 12.223 26.621 59.968 26.606" fill="#d0cfce"/><circle cx="22.268" cy="13.569" r="1" fill="#d0cfce"/><circle cx="22.49" cy="41.984" r="2.0004" fill="#3f3f3f"/></g><g id="c" fill="none" stroke="#000" stroke-linecap="round" stroke-linejoin="round" stroke-miterlimit="10" stroke-width="2"><line x1="47.434" x2="55.219" y1="27.214" y2="31.428"/><line x1="24.028" x2="34.665" y1="14.546" y2="20.304"/><circle cx="22.268" cy="13.569" r="2"/><rect x="12.223" y="31.777" width="47.745" height="28.571"/><line x1="16.546" x2="55.118" y1="52.237" y2="52.237"/><line x1="16.546" x2="55.118" y1="56.237" y2="56.237"/><rect x="16.624" y="36.279" width="38.595" height="11.504"/><circle cx="22.491" cy="41.985" r="2"/><polyline points="12.223 26.946 12.223 23.793 59.968 23.793 59.968 26.946"/><line x1="38.294" x2="38.294" y1="41.697" y2="42.364"/><line x1="42.294" x2="42.294" y1="41.697" y2="42.364"/><line x1="46.294" x2="46.294" y1="41.697" y2="42.364"/></g></svg>
