<?xml version="1.0" encoding="UTF-8"?>
<svg id="a" viewBox="0 0 72 72" xmlns="http://www.w3.org/2000/svg"><g id="b"><path d="m15.74 31.83v-6.134h27.84v-8.433l12.66 11.5-12.66 11.5v-8.433h-27.84" fill="#3f3f3f"/></g><g id="c" fill="none" stroke="#000" stroke-linecap="round" stroke-linejoin="round" stroke-width="2"><path d="m15.75 31.83h27.84v8.433l12.66-11.5-12.66-11.5v8.433h-27.84z"/><path d="m23.65 46.72a3.049 3.049 0 0 0-3.073-1.994c-1.732 0-3.137 1.118-3.137 2.498s1.404 2.498 3.137 2.498l-0.0638 0.0093c1.733 0 3.137 1.118 3.137 2.498s-1.404 2.498-3.137 2.498a3.049 3.049 0 0 1-3.073-1.994"/><polyline transform="translate(-.75 1.263)" points="47.39 53.38 47.39 43.38 54.53 53.38 54.53 43.38"/><path d="m40.21 54.61a3.572 3.572 0 0 1-3.572-3.571v-2.857a3.572 3.572 0 0 1 3.572-3.571 3.571 3.571 0 0 1 3.571 3.571v2.857a3.571 3.571 0 0 1-3.571 3.571z"/><path d="m30.21 54.61a3.572 3.572 0 0 1-3.572-3.571v-2.857a3.572 3.572 0 0 1 3.572-3.571 3.571 3.571 0 0 1 3.571 3.571v2.857a3.571 3.571 0 0 1-3.571 3.571z"/></g></svg>
