<?xml version="1.0" encoding="UTF-8"?>
<svg id="a" viewBox="0 0 72 72" xmlns="http://www.w3.org/2000/svg"><g id="b"><path d="m50.927 31.894c0.3893 0.0047 0.5734 0.5143 0.5734 0.9036v2.294c0 1.6823 1.2468 2.2059 3 3.0462 0 0 0.5946 0.28 0.8992 0.478 2.2596 1.4684 5.1008 9.4103 5.1008 12.214s-2.2386 5.0769-5 5.0769h-3.0361c-2.7614 0-5-2.2386-5-5l0.0361-3.5c0.0517-1.6036-0.0871-3.5828-1.2586-4.7544-0.6903-0.6903-1.628-1.0169-2.5215-0.929-1.1133 0.1095-2.1593-0.5902-2.2896-1.7013-0.0026-0.0223-0.0052-0.0448-0.0077-0.0673-0.1849-1.668 0.2687-3.3442 1.2016-4.7392 0.8667-1.2961 2.2772-2.7841 4.3758-3.3088 0 0 2.8532-0.0259 3.9266-0.0129z" fill="#A57939"/><path d="m35.361 23.119c-5.3-0.0464-10.588 0.5232-15.792 1.5242l-6.5681 1.2631v6h11.039c0.6381 0 1.2739 0.0782 1.8929 0.233 1.9108 0.4777 3.4451 1.8984 4.0679 3.7668v1e-4c1 4 4 4 6 4h2c0-6.7261 4.4351-12.046 13.435-12.046v-1.9543c-5.2187-2.0984-10.52-2.7385-16.074-2.7871zm0.6394 13.787h-1c-1 0-2.5 0-3-5h5c-1 2-1 3.208-1 5z" fill="#D0CFCE"/><path d="m50.65 25.005 1.0337-3.2631c0.2189-0.691 0.2181-2.1318 0.8587-2.4665l1.142-0.5894c0.7174-0.3748 1.211-0.9366 0.4416-1.1803l-2.0097-0.6366c-0.4696-0.1488-0.971-0.1664-1.4506-0.051l-4.4105 1.0612-1.7418 5.1819" fill="#9B9B9A"/></g><g id="c" fill="none" stroke="#000" stroke-linecap="round" stroke-linejoin="round" stroke-miterlimit="10" stroke-width="2"><path d="m50.492 22.199 0.7023-2.2172c0.1487-0.4695 0.4779-0.8607 0.915-1.0875l1.0989-0.5702c0.4895-0.254 0.4276-0.973-0.0982-1.1395l-1.6256-0.5149c-0.3208-0.1016-0.6633-0.1142-0.9907-0.0362l-3.0108 0.7166-1.1838 3.5208"/><path d="m30 35.906c1 4 4 4 6 4h2c0-6.7261 4.4351-12.046 13.435-12.046v-1.9543c-5.2187-2.0984-10.52-2.7386-16.074-2.7872-5.3001-0.0464-10.588 0.5232-15.792 1.5241l-6.5681 1.2631v6h11.039c0.6381 0 1.2739 0.0783 1.893 0.233 1.9107 0.4778 3.445 1.8985 4.0678 3.767z"/><path d="m37 31.906c-1 2-1 3.208-1 5h-1c-1 0-2.5 0-3-5h5z"/><path d="m50.927 31.894c0.3893 0.0047 0.5734 0.5143 0.5734 0.9036v2.294c0 1.6823 1.2468 2.2059 3 3.0462 0 0 0.5946 0.28 0.8992 0.478 2.2596 1.4684 5.1008 9.4103 5.1008 12.214s-2.2386 5.0769-5 5.0769h-3.0361c-2.7614 0-5-2.2386-5-5l0.0361-3.5c0.0517-1.6036-0.0871-3.5828-1.2586-4.7544-0.6903-0.6903-1.628-1.0169-2.5215-0.929-1.1133 0.1095-2.1593-0.5902-2.2896-1.7013-0.0026-0.0223-0.0052-0.0448-0.0077-0.0673-0.1849-1.668 0.2687-3.3442 1.2016-4.7392 0.8667-1.2961 2.2772-2.7841 4.3758-3.3088 0 0 2.8532-0.0259 3.9266-0.0129z"/></g></svg>
