<?xml version="1.0" encoding="UTF-8"?>
<svg id="a" viewBox="0 0 72 72" xmlns="http://www.w3.org/2000/svg"><g id="b"><path d="m41 64.905v-28.409l1.3665-0.5232c4.0791-1.5617 7.0017-5.2461 7.6335-9.623 0.601-4.2688-0.4505-7.5594-3-10.146 0 0-1.3928-1.4132-3.5973-2.4706-0.6527-0.3131-1.4027 0.1966-1.4027 0.929v7.6293l-2 3.0439h-7l-2-3.0439v-7.6293c0-0.7324-0.75-1.2421-1.4026-0.929-2.2046 1.0574-3.5974 2.4706-3.5974 2.4706-2.5495 2.5868-3.601 5.8774-3 10.146 5e-3 0.0356 0.0102 0.0712 0.0154 0.1068 0.6494 4.3916 3.72 8.0239 7.815 9.5916l1.1696 0.4478v28.409" fill="#D0CFCE"/></g><g id="c"><path d="m41 63.906v-28l1.3665-0.5157c4.0791-1.5392 7.0017-5.1705 7.6335-9.4843v0c0.601-4.2073-0.4505-7.4505-3-10 0 0-1.3928-1.3928-3.5973-2.435-0.6527-0.3085-1.4027 0.1939-1.4027 0.9157v7.5193l-2 3h-7l-2-3v-7.5193c0-0.7219-0.75-1.2242-1.4026-0.9157-2.2046 1.0422-3.5974 2.435-3.5974 2.435-2.5495 2.5495-3.601 5.7927-3 10 5e-3 0.0351 0.0102 0.0702 0.0154 0.1052 0.6494 4.3283 3.72 7.9082 7.815 9.4534l1.1696 0.4414v28" fill="none" stroke="#000" stroke-linecap="round" stroke-linejoin="round" stroke-miterlimit="10" stroke-width="2"/></g></svg>
