<?xml version="1.0" encoding="UTF-8"?>
<svg id="a" viewBox="0 0 72 72" xmlns="http://www.w3.org/2000/svg"><g id="b"><g id="c"><polygon points="36.804 28.439 43.931 35.497 46.961 32.467 39.869 25.374" fill="#9b9b9a"/><rect transform="translate(31.146 -26.155) rotate(45)" x="35.171" y="18.77" width="23.948" height="11.499" fill="#d0cfce"/><polyline points="32.174 33.07 39.869 25.374 46.961 32.467 19.415 60.013 12.322 52.921 32.174 33.07" fill="#d0cfce"/><rect transform="translate(36.29 -14.687) rotate(45)" x="30.858" y="35.5" width="10.03" height="1.9238" fill="#9b9b9a"/><rect transform="translate(40.234 -5.164) rotate(45)" x="21.336" y="45.023" width="10.03" height="1.9238" fill="#9b9b9a"/><rect transform="translate(41.08 -3.1235) rotate(45)" x="19.295" y="47.064" width="10.03" height="1.9238" fill="#9b9b9a"/><rect transform="translate(41.925 -1.0829) rotate(45)" x="17.254" y="49.104" width="10.03" height="1.9238" fill="#9b9b9a"/><rect transform="translate(38.244 -9.9688) rotate(45)" x="21.125" y="37.419" width="20.061" height="7.5228" fill="#d0cfce"/></g></g><g id="d"><g id="e" fill="none" stroke="#000" stroke-linecap="round" stroke-linejoin="round" stroke-width="2"><rect transform="translate(31.146 -26.155) rotate(45)" x="35.171" y="18.77" width="23.948" height="11.499"/><polyline points="32.755 32.488 39.869 25.374 46.961 32.467 39.883 39.546"/><polyline points="29.642 49.786 20.556 58.873 18.527 59.126 13.175 53.774 13.174 52.069 22.375 42.868"/><rect transform="translate(38.244 -9.9688) rotate(45)" x="21.125" y="37.419" width="20.061" height="7.5228"/></g></g></svg>
