<?xml version="1.0" encoding="UTF-8"?>
<svg id="a" viewBox="0 0 72 72" xmlns="http://www.w3.org/2000/svg"><g id="b"><ellipse cx="36" cy="36" rx="32.5" ry="13.5" fill="#3F3F3F"/><path d="m36 32.5c13.519 0 25.107 3.3025 30.005 8 1.6051-1.5394 2.4947-3.228 2.4947-5 0-7.1797-14.551-13-32.5-13s-32.5 5.8203-32.5 13c0 1.772 0.8896 3.4606 2.4947 5 4.8981-4.6975 16.486-8 30.005-8z" fill="#9B9B9A"/></g><g id="c" fill="none" stroke="#000" stroke-miterlimit="10" stroke-width="2"><ellipse cx="36" cy="36" rx="32.5" ry="13.5"/><path d="m36 32.5c13.519 0 25.107 3.3025 30.005 8 1.6051-1.5394 2.4947-3.228 2.4947-5 0-7.1797-14.551-13-32.5-13s-32.5 5.8203-32.5 13c0 1.772 0.8896 3.4606 2.4947 5 4.8981-4.6975 16.486-8 30.005-8z"/></g></svg>
