<?xml version="1.0" encoding="UTF-8"?>
<svg id="a" viewBox="0 0 72 72" xmlns="http://www.w3.org/2000/svg"><g id="b"><path d="m27.421 52.141c-1.1308 3.0553-2.6697 4.5942-5.6852 6.1955s-11.225-0.0889-9.5042-1.8095c2.3084-2.3084 3.6596-3.1597 3.2026-6.031-0.5824-3.6603 4.2087-6.1331 4.2087-6.1331s2.0935-1.1422 4.1931-0.8545c2.2812 0.3125 4.9498 4.9497 4.9498 4.9497l-1.3648 3.6829z" fill="#a57939" stroke="#a57939" stroke-miterlimit="10" stroke-width="2.0863"/><path d="m45.856 36.851c-7.0488 6.5155-12.477 10.431-15.87 12.607l-7.6389-7.6751c2.1789-3.3949 6.0918-8.8147 12.593-15.848 4.7694-5.1598 9.7635-9.9137 13.802-12.448 2.9438-1.8479 6.597-1.5717 8.8659 0.6971 2.2688 2.2688 2.5449 5.9222 0.697 8.8659-2.5347 4.038-7.2887 9.0321-12.448 13.802" fill="#92d3f5"/><polygon points="26.811 35.509 36.046 44.744 30.212 48.9 22.938 41.565" fill="#61b2e4"/></g><g id="c" fill="none" stroke="#000" stroke-linecap="round" stroke-linejoin="round" stroke-miterlimit="10" stroke-width="2"><path d="m45.856 36.851c-7.0488 6.5155-12.477 10.431-15.87 12.607l-7.6389-7.6751c2.1789-3.3949 6.0918-8.8147 12.593-15.848 4.7694-5.1598 9.7635-9.9137 13.802-12.448 2.9438-1.8479 6.597-1.5717 8.8659 0.6971 2.2688 2.2688 2.5449 5.9222 0.697 8.8659-2.5347 4.038-7.2887 9.0321-12.448 13.802"/><path d="m19.643 44.363s-4.7911 2.4728-4.2087 6.1331c0.457 2.8713-0.8942 3.7226-3.2026 6.031-1.7206 1.7206 6.4887 3.4108 9.5042 1.8095s4.5544-3.1402 5.6852-6.1955"/><line x1="27.43" x2="36.569" y1="35.257" y2="44.396"/></g></svg>
