<?xml version="1.0" encoding="UTF-8"?>
<svg id="a" viewBox="0 0 72 72" xmlns="http://www.w3.org/2000/svg"><g id="b"><path d="m11.88 59.884h47.654v-17.205h-47.654v17.205z" fill="#d0cfce"/><path d="m59.682 21.834-47.745-0.0962v18.511l5.2011-0.2299c1.2388-0.8432 0.42-5.6695 0.4861-5.803-0.0022-0.8421-0.0826-4.8571 0.0607-5.1954 0.2868-0.6767 9.9393-0.0789 9.935-0.0607l1.3976 4.132c0.1213-0.1646 10.088-1.8389 10.088-1.8389 0.1342 0 2.8583 5.5594 2.8583 5.5594 0.0507-0.055 12.542 2.7334 12.509 2.8326l1.7071 0.1676 3.4293 0.0551 0.0731-18.034z" fill="#9B9B9A"/><path d="m55.759 38.822c-0.0253 0.0764-3.9509-0.8774-6.2834-0.8984-9.4883-0.0856-32.113 0.8027-32.52 0.6987-0.4173-0.1066-1.8096 0.2996-1.8837 0.1519 0.0041 0.5459-0.1171 1.5355-0.0912 2.4913l40.704 0.0372 0.0751-2.4807z" fill="#d0cfce"/><path d="m16.346 38.82c-0.0255-0.0511-0.04-0.1049-0.0566-0.1605l-4.2857 0.0538-0.0912 2.9775 4.4966 0.4861c-0.0251-0.9275-0.0572-2.7892-0.0631-3.3569z" fill="#3f3f3f"/><path d="m16.498 33.866c0.0329-0.0362 0.0706-0.0638 0.1084-0.0949 0.0544-0.0457 0.1121-0.0849 0.1754-0.1182 0.0358-0.0183 0.0694-0.0365 0.1076-0.0505 0.1075-0.0406 0.2206-0.0691 0.3428-0.0691h11.286v-0.2734c0-0.4477 0.114-0.8656 0.3001-1.2423v-2e-4c0.0117-0.0232 0.0245-0.0456 0.0371-0.0681 0.0445-0.0842 0.0837-0.1716 0.1361-0.2505-0.0271 0.042-0.0536 0.0843-0.0837 0.1332-0.0051 0.0132-0.0141 0.0261-0.0164 0.0394-1e-4 5e-4 -7e-3 9e-4 -0.0084 0.0014-0.0418 0.0694-2.2119-1.3979-2.2261-1.3609 0 0-4.0156-1.191-8.5344 0.2555-0.1652 0.0529-1.2189 1.2375-1.361 1.16h-1e-4c-0.017-0.0093-0.0292-0.021-0.0454-0.0306-0.1397-0.0865-0.2534-0.2014-0.336-0.3438-0.0136-0.0231-0.0329-0.0417-0.0445-0.066v2.6199c1e-4 -4e-4 4e-4 -6e-4 6e-4 -1e-3 0.0421-0.088 0.0975-0.168 0.1617-0.2399z" fill="#d0cfce"/><path d="m16.615 37.611c0.0517-0.0429 0.1062-0.0801 0.1659-0.1119 0.0369-0.019 0.0718-0.0374 0.1113-0.0518 0.1066-0.0403 0.2189-0.0686 0.3403-0.0686h24.135v-0.1523c0-0.1708 0.0197-0.3366 0.0536-0.4977 0.021-0.1034 0.0577-0.2005 0.091-0.2993 0.0171-0.049 0.0289-0.1 0.049-0.1477 0.0535-0.1308 0.1208-0.2536 0.1946-0.3736 0.0055-0.0087 0.0099-0.0179 0.0154-0.0266 0.0819-0.1296 0.1753-0.2499 0.2787-0.3642 0.0016-0.0027 0.0083-0.013 0.0083-0.013l-1.3591-1.9881-8.3805 0.556-2.8078 1.4664c0.1137 0 0.2171-0.0288 0.3161-0.0677-0.0248 0.0081-0.0521 0.0095-0.0778 0.0157-0.0758 0.0186-0.1484 0.0464-0.2301 0.0464h-12.286c-0.1203 0-0.2314-0.0281-0.3369-0.068-0.041-0.0148-0.0776-0.0334-0.1158-0.0532-0.0545-0.0293-0.1043-0.0637-0.1521-0.1025-0.1126-0.0878-0.2056-0.1933-0.2721-0.3209-2e-4 -3e-4 -5e-4 -5e-4 -6e-4 -7e-4 0.0089 0.7905-0.0067 2.1071-0.0116 2.9536 0.0411-0.0833 0.0932-0.1601 0.1542-0.2289 0.0353-0.0389 0.0764-0.0684 0.1174-0.1014z" fill="#d0cfce"/><rect x="28.589" y="47.449" width="14.221" height="6.431" fill="#9B9B9A"/><path d="m28.865 28.1c-0.0117-0.0149-0.0222-0.0299-0.0347-0.0448-0.0172-0.0206-0.0414-0.0381-0.061-0.0578 0.0157 0.0144 0.0284 0.0307 0.0428 0.0459 0.018 0.0189 0.0367 0.0368 0.0529 0.0567z" fill="#d0cfce"/><path d="m28.926 29.303c0.0738-0.1033 0.1195-0.2172 0.1493-0.3332v-0.0225c-0.0289 0.1242-0.0805 0.2453-0.1593 0.3554-0.1606 0.2242-0.3967 0.3621-0.649 0.404 0.256-0.04 0.4962-0.1767 0.659-0.4037z" fill="#d0cfce"/><path d="m54.142 39.379c-0.4698 0 0.4545-2.0977 0.4545-2.0977 0-0.3555-1.1415-1.7131-1.5907-1.7131l-8.8721 0.0547c-0.2244 0-1.4766 1.4823-1.4766 1.6584l-0.9439 1.1013c0 0.4518-0.2533 0.5925-0.6643 0.7167l1.5575 0.2707s11.574 9e-3 11.536 9e-3z" fill="#fcea2b"/><path d="m42.021 35.505-0.0547-3.1313c-0.0071-0.0147-0.0197-0.0325-0.0276-0.0476 0.0121 0.0872-1.1648 0.308-1.4079-0.1871-0.1407-0.2871-0.8955-0.7655-1.2158-0.7655l-7.8576-0.135c-0.457 0-1.6886 0.7136-1.6886 1.1707l-0.4953 2.1614c0 0.5527-1.1133 0.9682-1.6661 0.9682l14.414-0.0338z" fill="#92d3f5"/><polygon points="59.411 38.663 54.94 38.69 54.963 41.93 59.365 41.849" fill="#3f3f3f"/><rect x="11.742" y="15.113" width="47.916" height="6.5216" fill="#d0cfce"/><path d="m17.626 31.979c0.0202-0.0089 0.0346-0.0261 0.0541-0.0364-0.0196 0.01-0.0338 0.0277-0.0541 0.0364z" fill="#d0cfce"/><path d="m19.072 29.38h7.9687c-4e-4 0-7e-4 -2e-4 -0.0011-2e-4h-7.9776c-0.1963 0-0.3694 0.0785-0.5116 0.193 0.1451-0.1151 0.3227-0.1928 0.5216-0.1928z" fill="#d0cfce"/><path d="m18.479 29.621c-0.0215 0.0213-0.0326 0.0506-0.0516 0.0741 0.0192-0.0233 0.0299-0.053 0.0516-0.0741z" fill="#d0cfce"/><path d="m29.072 31.576 0.0136-2.6288c-0.0289 0.1241-0.9471-0.3725-1.3982-0.6928-0.1407-0.1006-8.566-0.0374-8.566-0.0374-0.4571 0-2.0761 2.0573-2.0761 2.0573s0.6088 1.7768 0.0561 1.7768c-0.4336 0 11.688-0.0069 11.688-0.0069 0.0427-0.1109 0.2821-0.4682 0.2821-0.4682z" fill="#ea5a47"/></g><g id="c" fill="none" stroke="#000" stroke-linecap="round" stroke-linejoin="round" stroke-miterlimit="10" stroke-width="2"><polyline points="11.751 21.619 11.763 42.312 59.749 42.312 59.737 21.619"/><rect x="11.726" y="15.003" width="48.011" height="6.6168"/><rect x="11.763" y="42.312" width="47.986" height="17.362"/><rect x="28.61" y="47.061" width="14.426" height="6.8479"/><path d="m28.103 28.721c-0.2997-0.2145-0.6669-0.3408-1.0635-0.3408h-7.9776c-1.0102 0-1.829 0.8189-1.829 1.829v0.8521"/><path d="m40.97 32.457c-0.2972-0.6082-0.9219-1.0271-1.6444-1.0271h-7.9775c-1.0101 0-1.8291 0.8189-1.8291 1.829v1.2736h-12.286"/><path d="m54.003 38.378v-1.1524c0-0.914-0.8188-1.655-1.829-1.655h-7.9776c-1.0101 0-1.829 0.741-1.829 1.655v1.1524h-25.135"/></g></svg>
