<?xml version="1.0" encoding="UTF-8"?>
<svg id="a" viewBox="0 0 72 72" xmlns="http://www.w3.org/2000/svg"><g id="b"><path d="m60.069 17.015-5.9178-0.9325h-36.941l-5.2722 0.9684 0.0358 43.218 31.633-0.0359 16.498-12.051-0.0359-31.167z" fill="#fff"/><path d="m56.956 49.038h-12.817v4.4795c0 0.5527-0.4473 1-1 1-0.502 0-0.8992-0.3752-0.9712-0.8569v5.4255l1.1596-3e-4 13.629-10.048z" fill="#d0cfce"/><line x1="45.481" x2="45.481" y1="13.955" y2="19.591" fill="#fff" stroke-linecap="round" stroke-linejoin="round" stroke-miterlimit="10" stroke-width="2"/><line x1="40.72" x2="40.72" y1="13.955" y2="19.591" fill="#fff" stroke-linecap="round" stroke-linejoin="round" stroke-miterlimit="10" stroke-width="2"/><line x1="35.96" x2="35.96" y1="13.955" y2="19.591" fill="#fff" stroke-linecap="round" stroke-linejoin="round" stroke-miterlimit="10" stroke-width="2"/><line x1="50.241" x2="50.241" y1="13.955" y2="19.591" fill="#fff" stroke-linecap="round" stroke-linejoin="round" stroke-miterlimit="10" stroke-width="2"/><line x1="31.2" x2="31.2" y1="13.955" y2="19.591" fill="#fff" stroke-linecap="round" stroke-linejoin="round" stroke-miterlimit="10" stroke-width="2"/><line x1="26.439" x2="26.439" y1="13.955" y2="19.591" fill="#fff" stroke-linecap="round" stroke-linejoin="round" stroke-miterlimit="10" stroke-width="2"/><line x1="21.679" x2="21.679" y1="13.955" y2="19.591" fill="#fff" stroke-linecap="round" stroke-linejoin="round" stroke-miterlimit="10" stroke-width="2"/></g><g id="c" fill="none" stroke="#000" stroke-linecap="round" stroke-linejoin="round" stroke-miterlimit="10" stroke-width="2"><line x1="45.481" x2="45.481" y1="13.955" y2="19.591"/><line x1="40.72" x2="40.72" y1="13.955" y2="19.591"/><line x1="35.96" x2="35.96" y1="13.955" y2="19.591"/><line x1="50.241" x2="50.241" y1="13.955" y2="19.591"/><line x1="31.2" x2="31.2" y1="13.955" y2="19.591"/><line x1="26.439" x2="26.439" y1="13.955" y2="19.591"/><line x1="21.679" x2="21.679" y1="13.955" y2="19.591"/><line x1="16.99" x2="54.787" y1="29.352" y2="29.352"/><line x1="16.99" x2="54.787" y1="39.825" y2="39.825"/><line x1="16.99" x2="39.115" y1="50.298" y2="50.298"/><line x1="25.946" x2="25.946" y1="24.443" y2="55.549"/><polyline points="54.325 16.973 59.96 16.973 59.997 48.038 43.656 60.086 11.997 60.092 11.96 16.973 17.599 16.973"/><polyline points="59.746 48.038 43.138 48.038 43.138 53.518"/></g></svg>
