<?xml version="1.0" encoding="UTF-8"?>
<svg id="a" viewBox="0 0 72 72" xmlns="http://www.w3.org/2000/svg"><g id="b"><path d="M43.9081,30.5093l-2.73-2.73a.9992.9992,0,0,1-.05-1.36l9.9959-11.6009A4.0541,4.0541,0,1,1,56.9093,20.5L45.2685,30.559A.9993.9993,0,0,1,43.9081,30.5093Z" fill="#3f3f3f"/><path d="m50.916 35.782a2.9959 2.9959 0 0 0-2.7389-0.8094 24.309 24.309 0 0 0-11.489-11.428 2.9978 2.9978 0 1 0-2.2848 2.2617c2.3374 1.0055 8.6775 4.3276 11.468 11.455a2.9972 2.9972 0 1 0 5.045-1.48z" fill="#9b9b9a"/><path d="M37.6362,27.5385,18.304,46.8707a.9851.9851,0,0,0-.1381.1726c-3.5037,5.5353-4.6776,8.9452-3.4885,10.1343.4384.4385,1.6027,1.6027,9.9526-3.6688a.9819.9819,0,0,0,.1733-.1388L44.1888,33.9845A21.6019,21.6019,0,0,0,37.6362,27.5385Z" fill="#d0cfce"/><path d="M14.6774,57.1776c.4385.4385,1.6027,1.6027,9.9526-3.6688a.9863.9863,0,0,0,.1734-.1388L44.1888,33.9846a20.2873,20.2873,0,0,0-2.9254-3.574Z" fill="#9b9b9a"/></g><g id="c" fill="none" stroke="#000" stroke-linecap="round" stroke-linejoin="round" stroke-width="2"><path d="m38.806 27.783-19.795 19.795s-4.8529 7.6662-3.6262 8.8929c1.0375 1.0375 8.7113-3.8078 8.7113-3.8078l19.711-19.711"/><path d="M35.7718,22.8793a2,2,0,1,0-2.563,1.9195l.0265.0076c.57.1918,10.2914,3.5963,13.6361,13.644l.0038.0147a2,2,0,1,0,1.6967-2.55"/><path d="m42.927 25.841 8.9547-10.369a3.0639 3.0639 0 0 1 4.32 0 3.0639 3.0639 0 0 1 0 4.32l-10.369 8.955"/></g></svg>
