<?xml version="1.0" encoding="UTF-8"?>
<svg id="a" viewBox="0 0 72 72" xmlns="http://www.w3.org/2000/svg"><g id="b"><circle cx="36" cy="36" r="23" fill="#FCEA2B"/><path d="m26.499 27.438c-1.2653-3.3541-6.441-3.5687-6.1168 1.3178 0.0431 0.6485 0.281 1.2724 0.6414 1.8135l5.3179 6.4224 5.2212-6.266c0.5796-0.6964 0.9224-1.5779 0.905-2.4853-0.0863-4.3523-5.0509-4.0351-6.1274-0.8036" fill="#D22F27"/><path d="m45.801 27.438c-1.2547-3.3541-6.3873-3.5687-6.0658 1.3178 0.0428 0.6485 0.2787 1.2724 0.6361 1.8135l5.2737 6.4224 5.1777-6.266c0.5747-0.6964 0.9147-1.5779 0.8974-2.4853-0.0856-4.3523-5.0089-4.0351-6.0763-0.8036" fill="#D22F27"/><path d="m48.586 42.674c0 5.6296-4.1784 10.105-12.554 10.105-8.3738 0-12.607-4.4888-12.607-10.105 0 0 13.025 3.0311 25.161 1e-4z" fill="#fff"/></g><g id="c" fill="none" stroke="#000" stroke-linecap="round" stroke-linejoin="round" stroke-miterlimit="10" stroke-width="2"><circle cx="36" cy="36" r="23"/><path d="m48.586 42.674c0 5.6296-4.1784 10.105-12.554 10.105-8.3738 0-12.607-4.4888-12.607-10.105 0 0 13.025 3.0311 25.161 1e-4z"/><path d="m26.499 27.438c-1.2653-3.3541-6.441-3.5687-6.1168 1.3178 0.0431 0.6485 0.281 1.2724 0.6414 1.8135l5.3179 6.4224 5.2212-6.266c0.5796-0.6964 0.9224-1.5779 0.905-2.4853-0.0863-4.3523-5.0509-4.0351-6.1274-0.8036"/><path d="m45.801 27.438c-1.2547-3.3541-6.3873-3.5687-6.0658 1.3178 0.0428 0.6485 0.2787 1.2724 0.6361 1.8135l5.2737 6.4224 5.1777-6.266c0.5747-0.6964 0.9147-1.5779 0.8974-2.4853-0.0856-4.3523-5.0089-4.0351-6.0763-0.8036"/></g></svg>
