<?xml version="1.0" encoding="UTF-8"?>
<svg id="a" viewBox="0 0 72 72" xmlns="http://www.w3.org/2000/svg"><g id="b"><path d="m36 13c-12.682 0-23 10.318-23 23 0 12.682 10.318 23 23 23 12.682 0 23-10.318 23-23 0-12.682-10.318-23-23-23z" fill="#FCEA2B"/></g><g id="c"><circle cx="36" cy="36" r="23" fill="none" stroke="#000" stroke-miterlimit="10" stroke-width="2"/><path d="m42.87 45.7c0-2.592-3.834-4.694-6.869-4.694s-6.869 2.101-6.869 4.694 3.659 0.9248 6.694 0.9248 7.044 1.667 7.044-0.9248z" stroke="#000" stroke-miterlimit="10" stroke-width="2"/><path d="m30 31c0 1.657-1.345 3-3 3s-3-1.343-3-3c0-1.655 1.345-3 3-3s3 1.345 3 3"/><path d="m48 31c0 1.657-1.345 3-3 3s-3-1.343-3-3c0-1.655 1.345-3 3-3s3 1.345 3 3"/></g></svg>
