<?xml version="1.0" encoding="UTF-8"?>
<svg id="a" viewBox="0 0 72 72" xmlns="http://www.w3.org/2000/svg"><g id="b"><path d="m21.167 33.042a23.705 23.705 0 0 0-3.665 2.333c-2.2159 1.7734-3.918 16.334-3.834 17.667s1.583 7.916 2.25 7.916h40.332s2.166-3.333 2.083-4.333 0.25-14.749-1.166-16.583-1.5459-4.1895-2.418-4.833a28.567 28.567 0 0 0-3.582-2.167" fill="#92d3f5"/></g><g id="c" fill="#debb90"><path d="m39.167 36.042c0 4-14 2-14 6s4.873 8 10.936 8c5.9365 0 11.064-4 11.064-10 0-2-7-2-8-4"/><path d="m34.167 58.042a1.92 1.92 0 0 1-2 1.9414c-1.1025 0-6 0.0586-6 0.0586h-6s0-4 5-4h7a1.9588 1.9588 0 0 1 2 2z"/><path d="m38.167 58.042a1.92 1.92 0 0 0 2 1.9414c1.1025 0 6 0.0586 6 0.0586h6s0-4-5-4h-7a1.9588 1.9588 0 0 0-2 2z"/></g><g id="d"><path d="m43.088 47.899c2.9254-1.5092 4.157-7.0041 3.9423-7.9341s-7.9409-3.9226-7.9409-3.9226c-2.0747 5.6638-7.4411 0.42-12.922 4.4718-4.6763 3.457 5.18 8.6662 5.18 8.6662-8.7621 5.2459-10.332-3.9487-10.332-3.9487-2.187-5.7992 1.1523-5.1893 1.1523-12.189s4-14 14-14 14 7 14 14 2.7234 10.345 1.2489 15.518c0 0-4.2487 5.6569-9.2487 0.6922z" fill="#fcea2b"/></g><g id="e" fill="none" stroke="#000" stroke-linecap="round" stroke-width="2"><path d="m25.878 49.8c-9.9825-1.7577-3.7112-9.7577-3.7112-16.758s4-14 14-14 14 7 14 14 5.6037 16.053-3.3329 17.244" stroke-linejoin="round"/><path d="m39.167 36.042c0 4-14 2-14 6s4.873 8 10.936 8c5.9365 0 11.064-4 11.064-10 0-2-7-2-8-4" stroke-linejoin="round"/><path d="m34.167 58.042a1.92 1.92 0 0 1-2 1.9414c-1.1025 0-6 0.0586-6 0.0586h-6s0-4 5-4h7a1.9588 1.9588 0 0 1 2 2z" stroke-linejoin="round"/><path d="m38.167 58.042a1.92 1.92 0 0 0 2 1.9414c1.1025 0 6 0.0586 6 0.0586h6s0-4-5-4h-7a1.9588 1.9588 0 0 0-2 2z" stroke-linejoin="round"/><path d="m18.167 36.042s-4 3-4 12v4c0 3 0 6 2 8" stroke-linejoin="round"/><path d="m54.167 36.042s4 3 4 12v5c0 3 0 5-2 7" stroke-linejoin="round"/><line x1="23.167" x2="26.167" y1="15.042" y2="18.042" stroke-linejoin="round"/><line x1="31.167" x2="29.167" y1="15.042" y2="12.042" stroke-linejoin="round"/><line x1="49.167" x2="46.167" y1="15.042" y2="18.042" stroke-linejoin="round"/><line x1="41.167" x2="43.167" y1="15.042" y2="12.042" stroke-linejoin="round"/><path d="m39.167 36.042v-7" stroke-linejoin="round"/><path d="m33.167 43.042a2.7822 2.7822 0 0 1-3 0" stroke-miterlimit="10"/><path d="m39.167 43.042a2.9662 2.9662 0 0 0 3 0" stroke-miterlimit="10"/></g></svg>
