<?xml version="1.0" encoding="UTF-8"?>
<svg id="a" viewBox="0 0 72 72" xmlns="http://www.w3.org/2000/svg"><g id="b"><path d="M56.4921,60.9261l4-17-10.9375-4.375-.1543-.624c-2.4082,3.0312-2.7539,1.3447-4.334,2.3974-6.6572,8.6026-13.8242,6.1338-19.0742.05-1.8174-1.3633-1.6562.584-2.5039-1.4482h-.9961l-10,3,4,18" fill="#92d3f5"/></g><g id="c" fill="#fcea2b"><path d="m24.929 32.958c0 9 4.9365 14 11 14 5.9365 0 11.064-5 11.064-14a12.137 12.137 0 0 0-1-5.0005c-3-2.9995-7-8-7-8-4 3-7 6-13 7.0005 0 0-1.0635 0.9995-1.0635 6z"/><path d="M22.9882,39.9583c-1.0918-4.1-1.6553-8.4766-1.9961-10.25-.6426-3.3394,5-12.75,5-12.75h2c3,0,5-2,11-2a.8313.8313,0,0,0,.9414-.5483L28.9491,11.5423a25.4338,25.4338,0,0,0-3.957.416,11.464,11.464,0,0,0-4,2s-7,11-7,15v13"/><path d="M48.9,38.9593c.9219-3.7,1.6182-7.6348,2.0918-10.001.667-3.3345-5-12-5-12a3.4914,3.4914,0,0,0-2-1c-3,0-4-2-6-3a53.8435,53.8435,0,0,0-8-1,.9794.9794,0,0,1-1-1s.041-1.0835,1.041-1.0835c2.58,0,7.2276.0835,10.959.0835a32.8785,32.8785,0,0,1,8,2,11.0667,11.0667,0,0,1,2,2s7,11,7,15v13"/></g><g id="d"><path d="m45.493 27.45c-1.9017 0-4.6484-7.4922-6.239-6.916-3.9214 1.4205-10.879 5.6591-13.262 6.617-1.6562 0.6658-0.3539 13.425-0.3539 13.425-2.7372 0-5.08-5.5828-3.8667-12.477 1.5823-8.9916 2.0123-11.052 13.352-12.44 12.568-1.5393 15.405 5.3756 15.408 12.477 0.0025 7-0.54 12.44-4.54 12.44 1.0589-0.5521 1.4174-13.126-0.4987-13.126z" fill="#f1b31c"/></g><g id="e"><path d="m48.578 39.538a2.9 2.9 0 0 1-2.5859 1.42" fill="none" stroke="#000" stroke-linecap="round" stroke-linejoin="round" stroke-width="2"/><path d="m25.992 40.958a3.5531 3.5531 0 0 1-3.3121-1.9375" fill="none" stroke="#000" stroke-linecap="round" stroke-linejoin="round" stroke-width="2"/><path d="m41.865 31.958a2 2 0 1 1-2-2 2 2 0 0 1 2 2"/><path d="m33.865 31.958a2 2 0 1 1-2-2 2 2 0 0 1 2 2"/><path d="m24.929 32.958c0 9 4.9365 14 11 14 5.9365 0 11.064-5 11.064-14a12.137 12.137 0 0 0-1-5.0005c-3-2.9995-7-8-7-8-4 3-7 6-13 7.0005 0 0-1.0635 0.9995-1.0635 6z" fill="none" stroke="#000" stroke-linejoin="round" stroke-width="2"/><path d="m38.992 39.458c-1 2-5 2-6 0" fill="none" stroke="#000" stroke-linecap="round" stroke-linejoin="round" stroke-width="2"/><path d="M48.7743,39.4593c.9844-3.8408,1.7237-8.0274,2.2178-10.501.667-3.3345-5-12-5-12a3.4914,3.4914,0,0,0-2-1c-3,0-4-2-6-3a52.19,52.19,0,0,0-7.5547-.9932,1.3266,1.3266,0,0,1-1.4033-1.3242s-.042-1.4785,2.0791-1.4453a49.99,49.99,0,0,1,9.8789.7627c.98.1963,6.0244,1.0508,8,2a11.0667,11.0667,0,0,1,2,2s7,11,7,15V42.9261" fill="none" stroke="#000" stroke-linecap="round" stroke-linejoin="round" stroke-width="2"/><path d="M39.9335,14.41a.8313.8313,0,0,1-.9414.5483c-6,0-8,2-11,2h-2s-5.6426,9.4106-5,12.75c.3125,1.625.8125,5.4375,1.7344,9.2188" fill="none" stroke="#000" stroke-linecap="round" stroke-linejoin="round" stroke-width="2"/><path d="m13.992 41.958v-13c0-4 7-15 7-15a11.464 11.464 0 0 1 4-2 13.369 13.369 0 0 1 4.7363-0.187" fill="none" stroke="#000" stroke-linecap="round" stroke-linejoin="round" stroke-width="2"/><polyline points="22.492 39.926 11.992 42.958 15.992 59.958" fill="none" stroke="#000" stroke-linecap="round" stroke-linejoin="round" stroke-width="2"/><polyline points="48.578 39.538 59.992 43.958 55.992 59.958" fill="none" stroke="#000" stroke-linecap="round" stroke-linejoin="round" stroke-width="2"/></g></svg>
