<?xml version="1.0" encoding="UTF-8"?>
<svg id="a" viewBox="0 0 72 72" xmlns="http://www.w3.org/2000/svg"><g id="b"><path d="m16.995 60.938v-4c0-4.9941 5.0078-9 10-9q9 7.5 18 0c4.9941 0 10 4.0059 10 9v4" fill="#92d3f5"/></g><g id="c"><path d="m25.062 30.863c-0.1015 7.999 4.0635 14 11 14 7.0635 0 11.064-6 11.064-14 0-5-3-10-3-10-8 0-10 3-16 1a17.077 17.077 0 0 0-3.0635 9z" fill="#a57939"/></g><g id="d"><path d="m43.904 19.42c-1.4663 0.7739-15.477 2.0364-15.477 2.0364-5.4169 2.3623-2.4322 16.406-2.4322 16.406-3 0-4-7-4-14 0-6 5-12 14-12s14 6 14 12c0 7-1 14-4 14 2.4982 0.0333-0.6248-19.217-2.0909-18.443z"/></g><g id="e"><path d="m16.995 59.938v-3c0-4.9941 5.0078-9 10-9q9 7.5 18 0c4.9941 0 10 4.0059 10 9v3" fill="none" stroke="#000" stroke-linecap="round" stroke-linejoin="round" stroke-width="2"/><path d="m41.868 29.938a2 2 0 0 1-4 0c0-1.1045 2.0225-2 3.127-2a3.2627 3.2627 0 0 1 0.873 2"/><path d="m33.995 29.938a2 2 0 0 1-4 0 3.1184 3.1184 0 0 1 1-2c1.1045 0 3 0.8955 3 2"/><path d="m38.995 37.938c-1-2-5-2-6 0" fill="none" stroke="#000" stroke-linecap="round" stroke-linejoin="round" stroke-width="2"/><path d="m26.125 37.863c-3 0-4-7-4-14 0-6 5-12 14-12s14 6 14 12c0 7-1 14-4 14" fill="none" stroke="#000" stroke-linecap="round" stroke-linejoin="round" stroke-width="2"/><path d="m25.062 30.863c-0.1015 7.999 4.9365 14 11 14 5.9365 0 11.064-6 11.064-14 0-5-3-11-3-11-8 0-10 3-16 1 0 0-3 5-3.0635 10z" fill="none" stroke="#000" stroke-linejoin="round" stroke-width="2"/></g></svg>
