<?xml version="1.0" encoding="UTF-8"?>
<svg id="a" viewBox="0 0 72 72" xmlns="http://www.w3.org/2000/svg"><g id="b"><path d="m17 60.958v-4c0-4.9941 5.0078-9 10-9q9 7.5 18 0c4.9941 0 10 4.0059 10 9v4" fill="#92d3f5"/></g><g id="c"><path d="m24.936 30.958c0 9 4.9365 14 11 14 5.9365 0 11.064-5 11.064-14 0-3-1-4-1-4a76.84 76.84 0 0 0-7-6c-4 3-7 4-13 5 0 0-1.0635 0-1.0635 5z" fill="#fadcbc"/></g><g id="d"><path d="m46.754 28.74c0.2007-2.1675-9.874-10.396-7.9072-8.2284s-10.075 4.0944-12.684 6.0612-0.1625 12.386-0.1625 12.386c-4 0-4-6-4-13s4-14 14-14 14 7 14 14 0 13-4 13c0.4105-0.0976 0.5529-8.0505 0.7535-10.218z" fill="#a57939"/></g><g id="e"><path d="m26 38.958c-4 0-4-6-4-13s4-14 14-14 14 7 14 14 0 13-4 13" fill="none" stroke="#000" stroke-linecap="round" stroke-linejoin="round" stroke-width="2"/><path d="m17 59.958v-3c0-4.9941 5.0078-9 10-9q9 7.5 18 0c4.9941 0 10 4.0059 10 9v3" fill="none" stroke="#000" stroke-linecap="round" stroke-linejoin="round" stroke-width="2"/><path d="M42,30.9583c0,1.1045-.8955,1-2,1s-2,.1045-2-1a3.1184,3.1184,0,0,1,1-2c1.1045,0,3,.8955,3,2"/><path d="M34,30.9583c0,1.1045-.8955,1-2,1s-2,.1045-2-1c0-1,2.0225-2,3.127-2a3.2627,3.2627,0,0,1,.873,2"/><path d="m38 38.708a3.0417 3.0417 0 0 0-4 0" fill="none" stroke="#000" stroke-linecap="round" stroke-linejoin="round" stroke-width="2"/><path d="m24.936 30.958c0 9 4.9365 14 11 14 5.9365 0 11.064-5 11.064-14 0-3-1-4-1-4a76.84 76.84 0 0 0-7-6c-4 3-9 5-13 5 0 0-1.0635 0-1.0635 5z" fill="none" stroke="#000" stroke-linejoin="round" stroke-width="2"/></g></svg>
