<?xml version="1.0" encoding="UTF-8"?>
<svg id="a" viewBox="0 0 72 72" xmlns="http://www.w3.org/2000/svg"><g id="b"><path d="m22.494 65-0.2186-2.8134a23.426 23.426 0 0 1-4.3358-3.5173l3.9769-10.069c1.0234-2.5912 1.6347-3.5607 3.0234-2.5912 3.0068 2.0987 6.3457 2.9219 7.625 3.85 4.3281 3.6926 12.34 4.625 19.34 1.46 3 0 9.5687 3.8215 9.5687 9.09v4.5458z" fill="#92d3f5"/></g><g id="c" fill="#debb90"><path d="m31.402 33.985c0 9 4.9365 14 11 14 5.9365 0 11.064-5 11.064-14a12.137 12.137 0 0 0-1-5c-3-3-7-8-7-8-4 3-7 6-13 7 0 0-1.0635 0.9995-1.0635 6z"/><path d="m18.63 55.99c-2.624-3.249-5.712-4.458-6.212-6.458-0.543-2.169-3.193-15.63-2.192-19.88 0.4003-2.535 0.4843-5.111 0.25-7.666-0.06-0.998 0.8437-4.688 0.8437-6.688-0.04883-1.323 0.07726-2.647 0.375-3.938 1.188-1.725 2.872-0.7321 2.898 0.4981l1.039-4.342c0.1875-1.281 3.698-2.219 3.188 1.25l0.4502-2.481c0.6811-1.425 2.381-1.16 2.758-0.6921 0.6222 0.809 0.3033 1.542 0.256 2.536 0 0 2.254-0.01883 1.671 3.002-0.19 0.9824-1.633 10.23-1.633 10.23 0.458-0.458 1.541-4.699 3.124-4.699 2.119 0 1.904 1.65 1.904 1.65s-0.6026 1.433-1.281 2.673c-1.012 1.851-2.281 5.5-3.281 6.5-1.673 1.114-3.417 2.116-5.222 3l2.91 12.25s0.167 0.5381 2.496 2.256"/></g><g id="d"><path d="m52.583 29.077c-2.6614-0.8555-7.3665-7.9369-7.3665-7.9369-2.6615 3.2318-12.737 6.9864-12.737 6.9864-2.9942 2.9941-0.0451 13.859-0.0451 13.859-4 0-4-6-4-13s4-14 14-14 14 7 14 14 0 13-4 13c1.3246-2.2527 0.1486-12.908 0.1486-12.908z" fill="#fcea2b"/></g><g id="e"><path d="m32.466 41.985c-4 0-4-6-4-13s4-14 14-14 14 7 14 14 0 13-4 13" fill="none" stroke="#000" stroke-linecap="round" stroke-linejoin="round" stroke-width="2"/><path d="m48.339 32.985a2 2 0 1 1-2-2 2 2 0 0 1 2 2"/><path d="m40.339 32.985a2 2 0 1 1-2-2 2 2 0 0 1 2 2"/><path d="m31.402 33.985c0 9 4.9365 14 11 14 5.9365 0 11.064-5 11.064-14a12.137 12.137 0 0 0-1-5c-3-3-7-8-7-8-4 3-7 6-13 7 0 0-1.0635 0.9995-1.0635 6z" fill="none" stroke="#000" stroke-linejoin="round" stroke-width="2"/><path d="m39.466 40.985a6.5535 6.5535 0 0 0 6 0" fill="none" stroke="#000" stroke-linecap="round" stroke-linejoin="round" stroke-width="2"/><path d="m22.474 63.99a2.9818 2.9818 0 0 0-0.8419-2.6982c-3.1581-2.4458-4.1581-3.3018-4.1581-3.3018l5-12" fill="none" stroke="#000" stroke-linecap="round" stroke-linejoin="round" stroke-width="2"/><path d="m20.183 6.7816c-0.709 3.9248-1.125 6.6318-1.709 11.208" fill="none" stroke="#000" stroke-linecap="round" stroke-linejoin="round" stroke-width="2"/><path d="m21.542 21.365c0.2929-2.1626 1.0979-6.7505 1.5567-11.375" fill="none" stroke="#000" stroke-linecap="round" stroke-linejoin="round" stroke-width="2"/><path d="M61.4738,63.99s.0908-2.25.0908-3c0-7-9.0908-10-9.0908-10-7,2-11,2-16,1-3.2754-.6553-10.0273-4.59-15-8,0,0-3.9093-9.5-3.9093-13.5005,0-.5825,5.5518-1.9936,7-6.5.7813-2.4307,1.8106-5.6738,1.8106-5.6738" fill="none" stroke="#000" stroke-linecap="round" stroke-linejoin="round" stroke-width="2"/><path d="m14.474 17.99c0.86-5.0757 1.5645-8.6211 2-10" fill="none" stroke="#000" stroke-linecap="round" stroke-linejoin="round" stroke-width="2"/><path d="M18.6281,55.221c-5-4-6.5879-5.12-7.1543-8.2314-2-11-1-14.5811-1-18,0-1,.0156,0,.0156-6,.001-.812.5078-4.3931.9844-7a25.2783,25.2783,0,0,1,1-4" fill="none" stroke="#000" stroke-linecap="round" stroke-linejoin="round" stroke-width="2"/></g></svg>
