<?xml version="1.0" encoding="UTF-8"?>
<svg id="a" viewBox="0 0 72 72" xmlns="http://www.w3.org/2000/svg"><g id="b"><polygon points="21 50 11 61 61 61 51 50" fill="#3f3f3f"/><rect x="21.6" y="15" width="28.8" height="33" rx="3.0558" ry="3.0558" fill="#d0cfce"/><rect x="25" y="19" width="22" height="14" fill="#61b2e4"/><polyline points="47 19 25 19 25 33" fill="#92d3f5"/><rect x="25" y="37" width="5" height="5" fill="#fcea2b"/><rect x="42" y="37" width="5" height="5" fill="#fcea2b"/></g><g id="c" fill="none" stroke="#000" stroke-linecap="round" stroke-width="2"><rect x="21.6" y="15" width="28.8" height="33" rx="3.0558" ry="3.0558" stroke-linejoin="round"/><line x1="24" x2="16" y1="51" y2="60" stroke-miterlimit="10"/><line x1="48" x2="56" y1="51" y2="60" stroke-miterlimit="10"/><polygon points="35.166 15 27 8 44 8" stroke-linejoin="round"/><path d="M47,20V33H26" stroke-linejoin="round"/><polyline points="26 42 30 42 30 38" stroke-linejoin="round"/><polyline points="43 42 47 42 47 38" stroke-linejoin="round"/></g></svg>
