<?xml version="1.0" encoding="UTF-8"?>
<svg id="a" viewBox="0 0 72 72" xmlns="http://www.w3.org/2000/svg"><g id="b"><polyline points="53.775 42.583 53.775 18.792 60.781 18.792 60.781 42.583" fill="#d0cfce"/><polyline points="34.438 62.519 3.7813 62.519 3.7813 50.929 34.812 50.929" fill="#d0cfce"/><path d="m35.078 22.5h-18c-0.5522 0-1 0.4477-1 1v10c0 0.5522 0.4478 1 1 1h18c0.5523 0 1-0.4478 1-1v-10c0-0.5523-0.4477-1-1-1z" fill="#3f3f3f" stroke-linecap="round" stroke-linejoin="round" stroke-miterlimit="10" stroke-width="2"/><path d="m31.745 25.5h-11.334c-0.5523 0-1 0.4477-1 1v4c0 0.5522 0.4477 1 1 1h11.334c0.5522 0 1-0.4478 1-1v-4c0-0.5523-0.4478-1-1-1z" fill="#9b9b9a" stroke-linecap="round" stroke-linejoin="round" stroke-miterlimit="10" stroke-width="2"/><rect x="3.7813" y="9.1667" width="64.469" height="9.625" fill="#d0cfce" stroke-linecap="round" stroke-linejoin="round" stroke-miterlimit="10" stroke-width="2"/><polyline points="14.812 51.911 10.781 51.911 10.781 18.792 15.587 18.792 15.587 51.911 14.812 51.911" fill="#d0cfce" stroke-linecap="round" stroke-linejoin="round" stroke-miterlimit="10" stroke-width="2.0766"/><path d="m55.281 38.769s-13.688-1-23.75 5.625-16.25 11.625-16.25 11.625-1.7671 1.7819-1.875 3.875c-0.1563 3.0312 6.875 3.9375 6.875 3.9375l15.419 1.0884c0.3458 0.0244 0.6923 0.0366 1.0389 0.0366h32.48s-0.1874-26.188 0-26.188h-13.937z" fill="#d0cfce" stroke-linecap="round" stroke-linejoin="round" stroke-miterlimit="10" stroke-width="2"/><path d="m30.406 50.144 3.0313 3.0312h32.719v-6.9687c0-0.5523-0.4478-1-1-1h-17s-8.5625-0.25-18.125 4.125" fill="#3f3f3f"/><path d="m17.781 59.519s12.375-2.125 47.375-1" fill="none" stroke="#ea5a47" stroke-linecap="round" stroke-linejoin="round" stroke-miterlimit="10" stroke-width="2"/></g><g id="c"><polyline points="54.875 34.917 54.875 18.792 59.681 18.792 59.681 34.917" fill="none" stroke="#000" stroke-linecap="round" stroke-linejoin="round" stroke-miterlimit="10" stroke-width="2"/><circle cx="57.934" cy="66.021" r="2"/><polyline points="7.4375 61.536 3.7813 61.536 3.7813 51.911 14.812 51.911" fill="none" stroke="#000" stroke-linecap="round" stroke-linejoin="round" stroke-miterlimit="10" stroke-width="2"/><path d="m35.078 22.5h-18c-0.5522 0-1 0.4477-1 1v10c0 0.5522 0.4478 1 1 1h18c0.5523 0 1-0.4478 1-1v-10c0-0.5523-0.4477-1-1-1z" fill="none" stroke="#000" stroke-linecap="round" stroke-linejoin="round" stroke-miterlimit="10" stroke-width="2"/><path d="m31.745 25.5h-11.334c-0.5523 0-1 0.4477-1 1v4c0 0.5522 0.4477 1 1 1h11.334c0.5522 0 1-0.4478 1-1v-4c0-0.5523-0.4478-1-1-1z" fill="none" stroke="#000" stroke-linecap="round" stroke-linejoin="round" stroke-miterlimit="10" stroke-width="2"/><rect x="3.7813" y="9.1667" width="64.469" height="9.625" fill="none" stroke="#000" stroke-linecap="round" stroke-linejoin="round" stroke-miterlimit="10" stroke-width="2"/><polyline points="14.812 51.911 10.781 51.911 10.781 18.792 15.587 18.792 15.587 51.911 14.812 51.911" fill="none" stroke="#000" stroke-linecap="round" stroke-linejoin="round" stroke-miterlimit="10" stroke-width="2.0766"/><circle cx="44.872" cy="66.021" r="2"/><line x1="6.0938" x2="68" y1="68.019" y2="68.019" fill="none" stroke="#000" stroke-linecap="round" stroke-linejoin="round" stroke-miterlimit="10" stroke-width="2"/><path d="m55.281 38.769s-13.688-1-23.75 5.625-16.25 11.625-16.25 11.625-1.7671 1.7819-1.875 3.875c-0.1563 3.0312 6.875 3.9375 6.875 3.9375l15.419 1.0884c0.3458 0.0244 0.6923 0.0366 1.0389 0.0366h32.48s-0.1874-26.188 0-26.188h-13.937z" fill="none" stroke="#000" stroke-linecap="round" stroke-linejoin="round" stroke-miterlimit="10" stroke-width="2"/><polyline points="30.406 50.144 33.438 53.175 65.156 53.175" fill="none" stroke="#000" stroke-linecap="round" stroke-linejoin="round" stroke-miterlimit="10" stroke-width="2"/></g></svg>
