<?xml version="1.0" encoding="UTF-8"?>
<svg id="a" version="1.1" viewBox="0 0 72 72" xmlns="http://www.w3.org/2000/svg"><g id="b"><path d="m42.5 30.1-3.5-2.4c-0.5-0.3-1.2-0.2-1.5 0.4l-1.1 2" fill="#F1B31C"/><path d="m64.8 44.7-1.1-0.6c-0.4-0.2-0.6-0.6-0.5-1 0.3-1.9 0.5-8.5-9.7-11.5-0.2-0.1-0.4-0.1-0.6-0.1l-19.6 0.1c-0.4 0-0.8 0.1-1.1 0.3l-10.3 6.9c-0.2 0.1-0.4 0.2-0.6 0.2-1.9-0.1-3.7 0.1-5.6 0.4-5.4 1.1-7.6 4-8.4 5.5-0.2 0.3-0.2 0.7-0.2 1 0.1 2.4-1.5 5.1 0.9 7.3l19.4-0.1 20.4-0.5 16.1-0.2c0.9-0.1 2.4-1.4 2.8-2.2 1.7-2.7-1.7-5.4-1.9-5.5z" fill="#FCEA2B"/><path d="m17.3 47.1c-2.2 0-4 1.8-4 4s1.8 4 4 4 4-1.8 4-4-1.8-4-4-4z" fill="#9B9B9A"/><path d="m57.1 47.1c-2.2 0-4 1.8-4 4s1.8 4 4 4 4-1.8 4-4-1.8-4-4-4z" fill="#9B9B9A"/><path d="m56.1 40v-4.3c0-0.9-0.8-1.7-1.7-1.7h-21.2c-0.1 0-0.2 0-0.2 0.1l-8.6 5.7c-0.2 0.1 0.4 0.4 0.5 0.6 0.1 0.1 0.2 0.2 0.3 0.2 5.6 0 27.2-0.2 30.4-0.1 0.3 0 0.5-0.2 0.5-0.5v0z" fill="#3F3F3F"/><polygon points="8.9 41.2 12.9 42.8 10.8 45.7 5.8 45.8" fill="#D0CFCE"/></g><g id="c" fill="none" stroke="#000" stroke-linecap="round" stroke-linejoin="round" stroke-width="2"><path d="m42.5 30.1-3.5-2.4c-0.5-0.3-1.2-0.2-1.5 0.4l-1.1 2" stroke-miterlimit="10"/><line x1="47.6" x2="27" y1="51.7" y2="52.1"/><path d="m8.1 52.1c-0.9-0.2-1.7-0.5-1.8-1-0.1-1-0.3-3.8-0.3-5.1 0-0.5 0.1-1.1 0.4-1.5 1.1-2 4.8-6.8 14.9-6.4l10.3-6.9c0.5-0.3 1.1-0.5 1.6-0.5l19.6-0.1c0.3 0 0.6 0 0.9 0.1 2.2 0.6 11.7 4 10.4 12.6l1.1 0.6c0.5 0.2 0.9 0.7 1 1.2 0.4 1.4 0.3 2.9-0.2 4.3"/><polyline points="24.9 40.6 55.1 40.4 55.1 35.9"/><circle cx="17.3" cy="51.1" r="5"/><circle cx="57.1" cy="51.1" r="5"/><polyline points="12.3 43.6 10.5 45.8 6.8 45.7"/><line x1="24.1" x2="50.1" y1="44.1" y2="44.1" stroke-miterlimit="10"/></g><g id="d"><line id="e" x1="24.1" x2="50.1" y1="44.1" y2="44.1" fill="none" stroke="#F1B31C" stroke-linecap="round" stroke-linejoin="round" stroke-miterlimit="10" stroke-width="2.1"/></g></svg>
