<?xml version="1.0" encoding="UTF-8"?>
<svg id="a" version="1.1" viewBox="0 0 72 72" xmlns="http://www.w3.org/2000/svg"><g id="b"><path d="M68,45v3.8H4V42h22.5l1.2,2.5c0.2,0.3,0.5,0.5,0.9,0.5H68z" fill="#3F3F3F"/><rect x="14" y="48.8" width="4" height="19.2" fill="#3F3F3F"/><rect x="54" y="48.8" width="4" height="19.2" fill="#3F3F3F"/><path d="m68 41h-42l0.5 1s-1-0.2-2.4-0.5c-0.1 0-0.2 0-0.3-0.1-1.1-0.3-2.5-0.6-4-1.1-0.3-0.1-0.5-0.2-0.8-0.3-0.2-0.1-0.3-0.1-0.5-0.2-0.4-0.1-0.8-0.3-1.2-0.5h-0.1c-0.4-0.1-0.7-0.3-1.1-0.4-0.4-0.2-0.8-0.3-1.2-0.5-0.2-0.1-0.4-0.2-0.6-0.2-0.1 0-0.1-0.1-0.2-0.1-0.6-0.3-1.1-0.5-1.5-0.8-0.7-0.5-1.2-0.9-1.4-1.3-0.3-0.7-0.4-1.3-0.3-1.8v-0.3s0.1-0.2 0.1-0.3 0.1-0.2 0.1-0.3 0.1-0.2 0.1-0.3 0.1-0.2 0.2-0.3 0.1-0.2 0.2-0.2l0.1-0.1c1.5-2.6 7.6-8.4 14.3-11.4 9-4 42-3 42-3v23z" fill="#D0CFCE"/><path d="m11 36s-0.8-0.8-0.2-2.5c-0.2 0.7-0.3 1.6 0.2 2.5z" fill="#D0CFCE"/><path d="m10.9 33.3c0 0.1-0.1 0.2-0.1 0.3 0-0.1 0-0.2 0.1-0.3z" fill="#D0CFCE"/><path d="m18.4 39.9c-0.5-0.2-0.9-0.3-1.4-0.5 0.5 0.1 0.9 0.3 1.4 0.5z" fill="#D0CFCE"/><path d="m17 39.4c-0.3-0.1-0.7-0.2-1-0.4-5-2-5-3-5-3 0.5 1 3.2 2.3 6 3.4z" fill="#D0CFCE"/><path d="m11 33c0.2-0.4 0.4-0.6 0.4-0.6-0.2 0.2-0.3 0.4-0.4 0.6z" fill="#61B2E4"/><path d="m23.8 41.4c-1-0.2-2.4-0.6-4-1.1 1.5 0.5 2.9 0.8 4 1.1z" fill="#61B2E4"/><path d="M68,40.2V45H28.6c-0.4,0-0.7-0.3-0.9-0.7l-1.2-3L26,40.2H68z" fill="#92D3F5"/><path d="m59 30-21.9 0.1v-7c0-0.5 0.4-1 0.9-1 7-0.5 14.6-0.6 21 0v7.9z" fill="#3F3F3F"/><polyline points="34 23 34 30 19 30" fill="#D0CFCE"/><path d="m33.9 23.1v-1s-3.9 0.9-6.9 1.9c0 0-6.9 2.8-8.9 5.8h1.3l-0.4 0.2h15v-7l-0.1 0.1z" fill="#3F3F3F"/><polyline points="59 23 59 30 38 30" fill="#3F3F3F"/></g><g id="c" fill="none" stroke="#000" stroke-linecap="round" stroke-linejoin="round" stroke-miterlimit="10" stroke-width="2"><path d="M68,45v3.8H4V42h22.5l1.2,2.5c0.2,0.3,0.5,0.5,0.9,0.5H68z"/><rect x="14" y="48.8" width="4" height="19.2"/><rect x="54" y="48.8" width="4" height="19.2"/><path d="m68 41h-42l0.5 1s-1-0.2-2.4-0.5c-0.1 0-0.2 0-0.3-0.1-1.1-0.3-2.5-0.6-4-1.1-0.3-0.1-0.5-0.2-0.8-0.3-0.2-0.1-0.3-0.1-0.5-0.2-0.4-0.1-0.8-0.3-1.2-0.5h-0.1c-0.4-0.1-0.7-0.3-1.1-0.4-0.4-0.2-0.8-0.3-1.2-0.5-0.2-0.1-0.4-0.2-0.6-0.2-0.1 0-0.1-0.1-0.2-0.1-0.6-0.3-1.1-0.5-1.5-0.8-0.7-0.5-1.2-0.9-1.4-1.3-0.3-0.7-0.4-1.3-0.3-1.8v-0.3s0.1-0.2 0.1-0.3 0.1-0.2 0.1-0.3 0.1-0.2 0.1-0.3 0.1-0.2 0.2-0.3 0.1-0.2 0.2-0.2l0.1-0.1c1.5-2.6 7.6-8.4 14.3-11.4 9-4 42-3 42-3v23z"/><path d="m11 36s-0.8-0.8-0.2-2.5c-0.2 0.7-0.3 1.6 0.2 2.5z"/><path d="m10.9 33.3c0 0.1-0.1 0.2-0.1 0.3 0-0.1 0-0.2 0.1-0.3z"/><path d="m18.4 39.9c-0.5-0.2-0.9-0.3-1.4-0.5 0.5 0.1 0.9 0.3 1.4 0.5z"/><path d="m17 39.4c-0.3-0.1-0.7-0.2-1-0.4-5-2-5-3-5-3 0.5 1 3.2 2.3 6 3.4z"/><path d="m11 33c0.2-0.4 0.4-0.6 0.4-0.6-0.2 0.2-0.3 0.4-0.4 0.6z"/><path d="m23.8 41.4c-1-0.2-2.4-0.6-4-1.1 1.5 0.5 2.9 0.8 4 1.1z"/><path d="M68,40.2V45H28.6c-0.4,0-0.7-0.3-0.9-0.7l-1.2-3L26,40.2H68z"/><polyline points="34 23 34 30 19 30"/><polyline points="34 23 34 30 19 30"/><polyline points="59 23 59 30 38 30"/></g></svg>
