<?xml version="1.0" encoding="UTF-8"?>
<svg id="a" version="1.1" viewBox="0 0 72 72" xmlns="http://www.w3.org/2000/svg"><g id="b"><path d="m68 26.087h-35.038c-0.5314 0-0.9622 0.391-0.9622 0.8733v2.4004h36v-3.2737z" fill="#EA5A47"/><path d="M68,25.0871H46.7416l6.1518-13.0284c0.1277-0.31,0.4055-0.5086,0.7113-0.5086H68" fill="#fff"/><path d="m32 29.361s13.404 6.7981 15.672 22.247c0.0637 0.4344 0.4686 0.7673 0.9515 0.7673h19.376v-23.014" fill="#3F3F3F"/><path d="M63.146,11.5501V5.8734C63.146,5.391,63.4699,5,63.8695,5h2.261c0.3996,0,0.7235,0.391,0.7235,0.8734 v5.6767H63.146z" fill="#3F3F3F"/><path d="m32 29.361s10.404 6.7981 12.672 22.247c0.0637 0.4344 0.4686 0.7673 0.9515 0.7673h21.376" fill="#3F3F3F"/><path d="M67,25.625H32.9622C32.4308,25.625,32,26.016,32,26.4984v2.4004h35" fill="#EA5A47"/><path d="M67,26.0871H45.7416l7.1518-14.0284c0.1277-0.31,0.4055-0.5086,0.7113-0.5086H68" fill="none"/><line x1="4" x2="4" y1="68" y2="48.235" fill="none"/><line x1="69" x2="68" y1="48.235" y2="68" fill="none"/><path d="M68,47v21H4V47h1c3,0,9,3,15,3s10-3,16-3s11,3,16,3s7-3,15-3H68z" fill="#92D3F5"/></g><g id="c" fill="none" stroke="#000" stroke-linecap="round" stroke-linejoin="round" stroke-miterlimit="10" stroke-width="2"><path d="M63.146,11.5501V5.8734C63.146,5.391,63.4699,5,63.8695,5h2.261c0.3996,0,0.7235,0.391,0.7235,0.8734v5.6767H63.146z"/><line x1="53.723" x2="64.377" y1="16.354" y2="16.354"/><line x1="51.535" x2="64.377" y1="20.447" y2="20.447"/><path d="m32 29.361s8.8829 5.804 12.022 18.874"/><line x1="53.723" x2="64.377" y1="16.354" y2="16.354"/><line x1="51.535" x2="64.377" y1="20.447" y2="20.447"/><path d="M67,25.625H32.9622C32.4308,25.625,32,26.016,32,26.4984v2.4004h35"/><path d="M66,25.625H45.7416l7.1518-13.5663c0.1277-0.31,0.4055-0.5086,0.7113-0.5086H67"/><line x1="53.723" x2="64.377" y1="16.354" y2="16.354"/><line x1="51.535" x2="64.377" y1="20.447" y2="20.447"/><line x1="53.723" x2="64.377" y1="16.354" y2="16.354"/><line x1="51.535" x2="64.377" y1="20.447" y2="20.447"/><path d="m5 47c3 0 9 3 15 3s10-3 16-3 11 3 16 3 7-3 15-3"/></g></svg>
