<?xml version="1.0" encoding="UTF-8"?>
<svg id="a" viewBox="0 0 72 72" xmlns="http://www.w3.org/2000/svg"><g id="b"><path d="m60 61h-48c-0.5523 0-1-0.4477-1-1v-48c0-0.5523 0.4477-1 1-1h48c0.5523 0 1 0.4477 1 1v48c0 0.5523-0.4477 1-1 1z" fill="#61b2e4" stroke-linecap="round" stroke-linejoin="round" stroke-miterlimit="10" stroke-width="2"/><path d="m40.416 37.653s-1.1088-0.2837-0.7159 0.8999l-3.6179-1.9927 1.0397-1.1799 3.2941 2.2727z" fill="#fff"/><path d="m30.457 37.653s1.1088-0.2837 0.7159 0.8999l3.6179-1.9927-1.0397-1.1799-3.2941 2.2727z" fill="#fff"/><path d="M46.2,39.6c-5.3-4.6-10.7-4.2334-10.7-4.2334S29.9,35,24.6,39.6" fill="none" stroke="#fff" stroke-linecap="round" stroke-linejoin="round" stroke-miterlimit="10" stroke-width="3"/><polyline points="31 39 33 35 38.889 34.971 40 39 31 39" fill="#fff"/><path d="m39 38.6 5.6 11.2s0 1.4-1.4 1.4-5.6-4.2-5.6-4.2h-2.8 1.4-2.8s-4.2 4.2-5.6 4.2-1.4-1.4-1.4-1.4l5.6-11.2" fill="#fff" stroke-linecap="round" stroke-linejoin="round" stroke-miterlimit="10" stroke-width="2"/><polygon points="33.4 47 30.6 44.2 30.6 41.4 40.4 41.4 40.4 44.2 37.6 47" fill="#fff" stroke-linecap="round" stroke-linejoin="round" stroke-miterlimit="10" stroke-width="2"/><circle cx="36.2" cy="27" r="4.2" fill="#fff" stroke-linecap="round" stroke-linejoin="round" stroke-miterlimit="10" stroke-width="2"/></g><g id="c" fill="none" stroke="#000" stroke-linecap="round" stroke-linejoin="round" stroke-miterlimit="10" stroke-width="2"><path d="m60 61h-48c-0.5523 0-1-0.4477-1-1v-48c0-0.5523 0.4477-1 1-1h48c0.5523 0 1 0.4477 1 1v48c0 0.5523-0.4477 1-1 1z"/><path d="M47.4,40c-4.536-5.67-11.9-5.684-11.9-5.684S28.136,34.33,23.6,40"/><path d="m39 38.6 5.6 11.2s0 1.4-1.4 1.4-5.6-4.2-5.6-4.2h-2.8 1.4-2.8s-4.2 4.2-5.6 4.2-1.4-1.4-1.4-1.4l5.6-11.2"/><polygon points="33.4 47 30.6 44.2 30.6 41.4 40.4 41.4 40.4 44.2 37.6 47"/><circle cx="36.2" cy="27" r="4.2"/></g></svg>
