<?xml version="1.0" encoding="UTF-8"?>
<svg id="a" version="1.1" viewBox="0 0 72 72" xmlns="http://www.w3.org/2000/svg"><g id="b" fill="none" stroke="#000" stroke-linecap="round" stroke-linejoin="round" stroke-miterlimit="10" stroke-width="2"><path d="m50.085 41.732c-0.8686 0.7704-2.0115 1.2382-3.2639 1.2382-2.7175 0-4.9206-2.203-4.9206-4.9206v-3.9364 3.9364-3.9364c0-2.7176 2.2031-4.9206 4.9206-4.9206 1.2524 0 2.3953 0.4679 3.2639 1.2384"/><polyline points="37.661 29.192 33.724 42.97 29.788 29.192 25.851 42.97 21.915 29.192"/></g><g id="c"><path d="m60 61h-48c-0.5523 0-1-0.4477-1-1v-48c0-0.5523 0.4477-1 1-1h48c0.5523 0 1 0.4477 1 1v48c0 0.5523-0.4477 1-1 1z" fill="#61B2E4"/><path d="m50.085 41.732c-0.8686 0.7704-2.0115 1.2382-3.2639 1.2382v0c-2.7175 0-4.9206-2.203-4.9206-4.9206v-3.9364 3.9364-3.9364c0-2.7176 2.2031-4.9206 4.9206-4.9206v0c1.2524 0 2.3953 0.4679 3.2639 1.2384" fill="none" stroke="#fff" stroke-linecap="round" stroke-linejoin="round" stroke-miterlimit="10" stroke-width="2"/><polyline points="37.661 29.192 33.724 42.97 29.788 29.192 25.851 42.97 21.915 29.192" fill="none" stroke="#fff" stroke-linecap="round" stroke-linejoin="round" stroke-miterlimit="10" stroke-width="2"/></g><g id="d"><path d="m60 61h-48c-0.5523 0-1-0.4477-1-1v-48c0-0.5523 0.4477-1 1-1h48c0.5523 0 1 0.4477 1 1v48c0 0.5523-0.4477 1-1 1z" fill="none" stroke="#000" stroke-linecap="round" stroke-linejoin="round" stroke-miterlimit="10" stroke-width="2"/></g></svg>
