<?xml version="1.0" encoding="UTF-8"?>
<svg id="a" viewBox="0 0 72 72" xmlns="http://www.w3.org/2000/svg"><g id="b"><line x1="25.747" x2="36.001" y1="21.002" y2="21.002" fill="#EA5A47"/><polyline points="36.002 60.96 61.002 60.96 56.002 20.093 53.432 20.093 18.571 20.093 16.002 20.093 11.002 60.96 36.002 60.96" fill="#FCEA2B"/><line x1="46.256" x2="36.002" y1="21.002" y2="21.002" fill="#EA5A47"/></g><g id="c" fill="none" stroke="#000" stroke-linecap="round" stroke-linejoin="round" stroke-miterlimit="10" stroke-width="2"><polyline points="36.002 60.96 11.002 60.96 16.002 21.002 18.571 21.002"/><line x1="25.747" x2="36.001" y1="21.002" y2="21.002"/><polyline points="36.002 60.96 61.002 60.96 56.002 21.002 53.432 21.002"/><line x1="46.256" x2="36.002" y1="21.002" y2="21.002"/><path d="m22.049 27.662v-6.6199c0-7.7544 6.2862-14.041 14.041-14.041s14.041 6.2862 14.041 14.041v6.6199"/></g></svg>
