<?xml version="1.0" encoding="UTF-8"?>
<svg id="a" viewBox="0 0 72 72" xmlns="http://www.w3.org/2000/svg"><g id="b"><rect x="17" y="52.759" width="38" height="10.7" fill="#f4aa41"/><rect x="17" y="43.458" width="38" height="9.3003" fill="#f4aa41"/><rect x="47" y="56.458" width="2" height="4" fill="#92d3f5" stroke="#92d3f5" stroke-linecap="round" stroke-linejoin="round" stroke-width="2"/><rect x="23" y="56.458" width="2" height="4" fill="#92d3f5" stroke="#92d3f5" stroke-linecap="round" stroke-linejoin="round" stroke-width="2"/><rect x="48" y="47.436" width="2" height="2" fill="#92d3f5" stroke="#92d3f5" stroke-linecap="round" stroke-linejoin="round" stroke-width="2"/><rect x="41.5" y="47.436" width="2" height="2" fill="#92d3f5" stroke="#92d3f5" stroke-linecap="round" stroke-linejoin="round" stroke-width="2"/><rect x="35" y="47.436" width="2" height="2" fill="#92d3f5" stroke="#92d3f5" stroke-linecap="round" stroke-linejoin="round" stroke-width="2"/><rect x="28.5" y="47.436" width="2" height="2" fill="#92d3f5" stroke="#92d3f5" stroke-linecap="round" stroke-linejoin="round" stroke-width="2"/><rect x="22" y="47.436" width="2" height="2" fill="#92d3f5" stroke="#92d3f5" stroke-linecap="round" stroke-linejoin="round" stroke-width="2"/><circle cx="36.062" cy="12.381" r="5" fill="#f4aa41"/><rect x="21.129" y="38.436" width="29.995" height="5.0218" fill="#f4aa41"/><rect x="27" y="23.408" width="18" height="4.0504" fill="#f4aa41"/><rect x="25" y="28.487" width="22" height="6.971" fill="#f4aa41"/><rect x="22.587" y="33.521" width="27.413" height="3.8753" fill="#f4aa41"/><rect x="29.5" y="19.78" width="13" height="4.0504" fill="#f4aa41"/><path d="m37.583 7.511a4.9687 4.9687 0 0 1-5.0007 8.32 4.9894 4.9894 0 1 0 5.0007-8.32z" fill="#e27022"/><polyline points="25.311 42.651 36.062 31.899 46.814 42.651" fill="#e27022"/><polygon points="41.5 63.458 30.5 63.458 30.5 56.458 34.125 56.458 41.5 56.458" fill="#e27022"/></g><g id="c" fill="none" stroke="#000" stroke-linecap="round" stroke-linejoin="round" stroke-width="2"><rect x="17" y="43.458" width="38" height="9.3003"/><rect x="17" y="52.759" width="38" height="10.7"/><polyline points="43.5 38.436 51.124 38.436 51.124 43.458 21.129 43.458 21.129 38.436 28.178 38.436"/><rect x="27" y="24.408" width="18" height="4.0504"/><polyline points="25 32.613 25 28.487 47 28.487 47 32.613"/><polyline points="37.517 32.947 50 32.947 50 37.969 42.63 37.969"/><rect x="29.092" y="20.344" width="13.842" height="4.0504"/><polyline points="25.311 42.651 36.062 31.899 46.814 42.651"/><polyline points="29.485 37.969 22.587 37.969 22.587 32.947 34.524 32.947"/><polygon points="41.5 63.458 30.5 63.458 30.5 56.458 34.125 56.458 41.5 56.458"/><polyline points="34.062 63.458 34.062 56.458 38.062 56.458 38.062 63.458"/><polyline points="49 60.458 47 60.458 47 56.458"/><polyline points="24 49.458 22 49.458 22 47.458"/><polyline points="50 49.458 48 49.458 48 47.458"/><polyline points="43.5 49.458 41.5 49.458 41.5 47.458"/><polyline points="37 49.458 35 49.458 35 47.458"/><polyline points="30.5 49.458 28.5 49.458 28.5 47.458"/><polyline points="25 60.458 23 60.458 23 56.458"/><circle cx="36.062" cy="12.381" r="5"/><line x1="36.062" x2="36.062" y1="17.669" y2="20.055"/></g></svg>
