<?xml version="1.0" encoding="UTF-8"?>
<svg id="a" viewBox="0 0 72 72" xmlns="http://www.w3.org/2000/svg"><g id="b"><path d="m35.99 10.906c-11.046 0-20 4.4773-20 10l0.0261 0.2749c2.9513 30.53 18.674 39.067 19.898 39.688l0.0756 0.0374s17-8 20-40c0.5156-5.4986-8.9543-10-20-10zm0.0021 43.978-0.0604-0.0299c-0.978-0.4957-13.542-7.318-15.901-31.714l-0.021-0.2195c0-4.4133 7.1553-7.991 15.982-7.991 8.8265 0 16.394 3.5969 15.982 7.991-2.3972 25.571-15.982 31.964-15.982 31.964z" fill="#D0CFCE"/><path d="m35 17.906 3 4-3 4 3 4-3 4 3 4-3 4 3 4-3 4 1 5.2597s-15-11-16-32c0 0 0-8 16-8l-1 2.7403z" fill="#EA5A47"/><path d="m36 15.166-1 2.7403 3 4-3 4 3 4-3 4 3 4-3 4 3 4-3 4 1.002 4.9774s13.844-8.9583 15.982-31.964c0 0-0.8334-6.9702-15.984-7.7539z" fill="#D22F27"/></g><g id="c" fill="none" stroke="#000" stroke-linecap="round" stroke-linejoin="round" stroke-miterlimit="10" stroke-width="2"><path d="m35.924 60.869c-1.2239-0.6204-16.947-9.1579-19.898-39.688l-0.0262-0.2749c0-5.5228 8.9543-10 20-10s20.516 4.5013 20 10c-3 32-20 40-20 40l-0.0755-0.0373z"/><path d="m35.942 54.854c-0.978-0.4958-13.542-7.318-15.901-31.714l-0.021-0.2196c0-4.4133 7.1553-7.991 15.982-7.991s16.394 3.5969 15.982 7.991c-2.3973 25.571-15.982 31.964-15.982 31.964l-0.0603-0.0298z"/></g></svg>
