<?xml version="1.0" encoding="UTF-8"?>
<svg id="a" viewBox="0 0 72 72" xmlns="http://www.w3.org/2000/svg"><g id="b"><polygon points="11 35.474 11 54.974 32.154 35.474" fill="#b1cc33"/><polyline points="61 35.474 39.846 35.474 61 54.974" fill="#b1cc33"/><polygon points="40.808 35.474 61 35.474 61 41.632 46.865 41.632" fill="#5c9e31"/><polygon points="32.154 35.474 11 35.474 11 41.632 25.808 41.632" fill="#5c9e31"/><polygon points="11.962 56 60.038 56 39.846 36.5 33.115 36.5" fill="#d0cfce"/><polygon points="26.293 40.605 46.737 40.605 39.846 36.5 33.115 36.5" fill="#3f3f3f"/><rect x="26.674" y="19.053" width="18.773" height="8.2105" fill="#5c9e31"/></g><g id="c" fill="none" stroke="#000" stroke-linecap="round" stroke-linejoin="round" stroke-width="1.9868"><line x1="11.962" x2="33.115" y1="54.974" y2="35.475"/><line x1="60.038" x2="39.846" y1="54.974" y2="35.475"/><line x1="23.115" x2="23.115" y1="39.485" y2="17"/><line x1="49.365" x2="49.365" y1="39.485" y2="17"/><rect x="26.385" y="18.482" width="19.712" height="9.1228" rx="3.0527" ry="3.0527"/><line x1="30.986" x2="29.269" y1="48.794" y2="54.523"/><line x1="33.654" x2="32.274" y1="39.827" y2="44.431"/><line x1="41.552" x2="43.269" y1="48.794" y2="54.523"/><line x1="38.885" x2="40.265" y1="39.827" y2="44.431"/><line x1="11.962" x2="60.038" y1="35.475" y2="35.475"/><line x1="23.115" x2="28.741" y1="18.482" y2="18.482"/><line x1="23.115" x2="28.741" y1="27.605" y2="27.605"/><line x1="43.308" x2="48.933" y1="18.482" y2="18.482"/><line x1="43.308" x2="48.933" y1="27.605" y2="27.605"/></g></svg>
