<?xml version="1.0" encoding="UTF-8"?>
<svg id="a" viewBox="0 0 72 72" xmlns="http://www.w3.org/2000/svg"><g id="b"><polyline points="24 39.754 8.1194 34.508 3.6819 35.883 14.022 45.235" fill="#9b9b9a"/><path d="m42.589 30.772 13.635-4.637s13.5-0.2289 10.329 3.2551c-3.1706 3.484-25.425 12.196-32.002 14.651-6.5769 2.455-14.712 3.7502-20.337 3.8592-4.9236 0.0953 0.5896-2.8912 0.5896-2.8912s6.2557-3.55 9.0249-4.7568l2.6347-1.9489" fill="#d0cfce"/><polyline points="47.051 35.429 22.445 32.641 20.352 34.134 37.761 40.346" fill="#9b9b9a"/></g><g id="c" fill="none" stroke="#000" stroke-linecap="round" stroke-linejoin="round" stroke-miterlimit="10" stroke-width="1.5597"><polyline points="19.974 39.139 7.5418 34.736 4.4746 35.809 12.644 43.131"/><polyline points="47.051 34.693 22.445 32.641 20.352 34.134 37.106 40.113"/><path d="m43.174 31.323 11.149-4.4864c1.3266-0.5338 2.7434-0.7839 4.1727-0.74 3.6995 0.1136 10.39 0.6672 8.0573 3.2304-3.1706 3.4839-25.425 12.196-32.002 14.651s-14.712 3.7502-20.337 3.8591c-4.9236 0.0953 0.5896-2.8912 0.5896-2.8912s6.2557-3.55 9.0249-4.7568l2.7841-1.2132"/></g></svg>
