<?xml version="1.0" encoding="UTF-8"?>
<svg id="a" viewBox="0 0 72 72" xmlns="http://www.w3.org/2000/svg"><g id="b"><path d="M42.9146,32.98a1,1,0,0,1,.8169,1.5784l-5.8132,8.2129H58.4365a1,1,0,0,0,.9795-.7979,9.8383,9.8383,0,0,0-1.6006-7.3291c-1.6728-2.2109-4.41-3.4668-8.1377-3.7343C35.1484,29.8662,35.37,15.09,35.3867,14.4609a1.0006,1.0006,0,0,0-1-1.0273H17.6651a1,1,0,0,0-.9991.9648c-.0049.13-.4853,13.11-2.27,17.3047a21.4372,21.4372,0,0,0-1.4893,6.8858v3.1826a1,1,0,0,0,1,1h8.301l6.6307-9.3692a1,1,0,0,1,.8168-.4221h4.5049a1,1,0,0,1,.816,1.5784l-5.8124,8.2129H31l6.6315-9.3692a1,1,0,0,1,.8166-.4221Z" fill="#61b2e4"/><path d="m58.443 46.426h-44.086a2.8272 2.8272 0 0 1 0-5.6543h44.086a2.8272 2.8272 0 0 1 0 5.6543z" fill="#b399c8"/><polygon points="18.11 51.919 13.564 45.393 55.769 45.393 51.349 51.919 42.915 51.871 40.34 50.184 29.418 50.184 27.059 51.919" fill="#d0cfce"/><path d="m57.416 45.393-4.0437 5.8909a1.0981 1.0981 0 0 0 0.2726 1.2548l2.7335 2.2347 4.8551-6.4156z" fill="#3f3f3f"/><path d="m22.416 60.709a6 6 0 1 1 6-6 6.0066 6.0066 0 0 1-6 6z" fill="#fcea2b"/><path d="m46.669 60.709a6 6 0 1 1 6-6 6.0066 6.0066 0 0 1-6 6z" fill="#fcea2b"/></g><g id="c" fill="none" stroke="#000" stroke-linecap="round" stroke-linejoin="round" stroke-width="2"><path d="m58.424 38.588c-0.468-2.7025-2.34-6.2155-8.8182-6.6811-15.689-1.1272-15.219-17.474-15.219-17.474h-16.722s-0.47 13.246-2.3486 17.662a20.204 20.204 0 0 0-1.4092 6.494"/><line x1="34.795" x2="32.374" y1="18.453" y2="18.453"/><line x1="35.799" x2="33.377" y1="22.129" y2="22.129"/><line x1="37.662" x2="35.241" y1="25.633" y2="25.633"/><line x1="40.135" x2="37.714" y1="28.566" y2="28.566"/><line x1="24.097" x2="29.656" y1="41.772" y2="33.98"/><line x1="28.602" x2="34.161" y1="41.772" y2="33.98"/><line x1="32.889" x2="38.448" y1="41.772" y2="33.98"/><line x1="37.356" x2="42.915" y1="41.772" y2="33.98"/><path d="m21.219 41.772h37.225a1.8324 1.8324 0 0 1 1.827 1.8271 1.8324 1.8324 0 0 1-1.827 1.8271h-44.087a1.8325 1.8325 0 0 1-1.8272-1.8271 1.8325 1.8325 0 0 1 1.8271-1.8271h2.0589"/><line x1="29.089" x2="40.34" y1="49.188" y2="49.188"/><polyline points="56.869 45.426 61.233 48.528 57.117 54.091 54.275 51.748"/><circle cx="22.416" cy="54.709" r="5"/><circle cx="46.669" cy="54.709" r="5"/><line x1="16.486" x2="17.2" y1="47.82" y2="48.869"/><line x1="52.917" x2="52.204" y1="47.82" y2="48.869"/></g></svg>
