<?xml version="1.0" encoding="UTF-8"?>
<svg id="a" viewBox="0 0 72 72" xmlns="http://www.w3.org/2000/svg"><g id="b"><path d="m66.5 24.852s-1.9062 14.297-11.438 14.297h-38.125c-9.5313 0-11.438-14.297-11.438-14.297s3.8125 2.8593 30.5 2.8593 30.5-2.8593 30.5-2.8593z" fill="#61b2e4" stroke="#61b2e4" stroke-linecap="round" stroke-linejoin="round" stroke-width="2"/><polyline points="40.484 18.304 44.815 20.804 42.083 21.537 29.583 43.187 30.315 45.919 24.815 55.446 19.618 52.446 25.118 42.919 27.85 42.187 40.35 20.537 40.484 18.304" fill="#a57939"/></g><g id="c"><g fill="none" stroke="#000" stroke-linecap="round" stroke-linejoin="round" stroke-width="2"><line x1="40.35" x2="40.484" y1="20.536" y2="18.304"/><polyline points="41.083 23.269 29.583 43.187 30.315 45.919 24.815 55.446 19.618 52.446 25.118 42.919 26.484 42.553"/><line x1="40.484" x2="43.949" y1="18.304" y2="20.304"/><path d="m35.45 39.148h19.612c9.5313 0 11.438-14.297 11.438-14.297s-3.229 2.409-24.414 2.8034"/><path d="m33.858 27.704c-24.745-0.1486-28.358-2.8521-28.358-2.8521s1.9062 14.297 11.438 14.297h10.312"/></g></g></svg>
