<?xml version="1.0" encoding="UTF-8"?>
<svg id="a" viewBox="0 0 72 72" xmlns="http://www.w3.org/2000/svg"><g id="b"><circle cx="36" cy="36" r="24" fill="#FCEA2B"/><path d="m37.976 26.719c6.7831 0.247 13.84 0.8443 19.694 2.1435l0.2159 0.0451c-2.9896-9.2322-11.658-15.908-21.886-15.908-12.703 0-23 10.297-23 23 0 2.8816 0.5299 5.6395 1.4977 8.1814l-0.0013-0.0023s3.79-3.84 9.95-8.55c1.21-0.93 2.52-1.89 3.91-2.86 2.8899-2.04 6.13-4.12 9.6199-6.05" fill="#fff"/></g><g id="c"><path d="m44.916 27.109c0.56 0.97 1.38 1.78 2.38 2.34 1.29 0.89 2.87 1.27 4.43 1.07" fill="none" stroke="#000" stroke-linecap="round" stroke-linejoin="round" stroke-miterlimit="10" stroke-width="2"/><path d="m48 35c0 1.6568-1.3447 3-3 3s-3-1.3433-3-3c0-1.6552 1.3447-3 3-3s3 1.3448 3 3"/><path d="m33.108 46.888s5.7328-1.0685 11.663 2.0944" fill="none" stroke="#000" stroke-linecap="round" stroke-linejoin="round" stroke-miterlimit="10" stroke-width="2"/><path d="m14.496 44.179s3.79-3.84 9.95-8.55c1.21-0.93 2.52-1.89 3.91-2.86 2.89-2.04 6.13-4.12 9.62-6.05" fill="none" stroke="#000" stroke-linecap="round" stroke-linejoin="round" stroke-miterlimit="10" stroke-width="2"/><path d="m28.7 32.532c-0.1125 0.0787-0.2327 0.158-0.3442 0.2367-1.39 0.97-2.7 1.93-3.91 2.86-0.104 0.0795-0.2018 0.1566-0.3044 0.2357 0.3734 1.2321 1.5053 2.1352 2.8581 2.1352 1.6552 0 3-1.3432 3-3 0-1.0234-0.5158-1.926-1.2995-2.4676z"/><path d="m57.67 28.863c-15.94-3.5376-41.948-1.9371-41.948-1.9371" fill="none" stroke="#000" stroke-linecap="round" stroke-linejoin="round" stroke-miterlimit="10" stroke-width="2"/><path d="m19.366 20.28s21.584-1.5544 34.954 1.9832" fill="none" stroke="#000" stroke-linecap="round" stroke-linejoin="round" stroke-miterlimit="10" stroke-width="2"/><path d="M57.8857,28.9077C54.8961,19.6755,46.2274,13,36,13c-12.7031,0-23,10.2969-23,23c0,2.8816,0.5299,5.6395,1.4977,8.1814" fill="none" stroke="#000" stroke-linecap="round" stroke-linejoin="round" stroke-miterlimit="10" stroke-width="2"/><path d="m16.085 47.514c3.9786 6.8672 11.407 11.486 19.915 11.486 12.702 0 23-10.298 23-23 0-1.243-0.0986-2.4629-0.2884-3.6525" fill="none" stroke="#000" stroke-linecap="round" stroke-linejoin="round" stroke-miterlimit="10" stroke-width="2"/></g></svg>
