<?xml version="1.0" encoding="UTF-8"?>
<svg id="a" viewBox="0 0 72 72" xmlns="http://www.w3.org/2000/svg"><g id="b"><ellipse cx="36" cy="35.643" rx="23" ry="23" fill="#FCEA2B"/><path d="m58.296 54.198-1.9462 1.9462c-0.9381 0.9381-2.459 0.9381-3.397 0l-4.8606-4.8606c-0.9381-0.9381-0.9381-2.459 0-3.397l1.9462-1.9462c0.9381-0.9381 2.459-0.9381 3.397 0l4.8606 4.8606c0.938 0.938 0.938 2.4589 0 3.397z" fill="#9B9B9A"/><path d="m50.355 47.787-0.5122 0.5122c-0.2878 0.2878-0.7544 0.2878-1.0421 0l-1.6157-1.6157c-0.2878-0.2878-0.2878-0.7544 0-1.0421l0.5122-0.5122c0.2878-0.2878 0.7544-0.2878 1.0421 0l1.6157 1.6157c0.2878 0.2877 0.2878 0.7543 0 1.0421z" fill="#D0CFCE"/></g><g id="c"><line x1="47.705" x2="24.04" y1="45.684" y2="45.595" fill="none" stroke="#000" stroke-linecap="round" stroke-linejoin="round" stroke-miterlimit="10" stroke-width="2"/><line x1="24.561" x2="24.561" y1="45.865" y2="49.168" fill="none" stroke="#000" stroke-linecap="round" stroke-linejoin="round" stroke-miterlimit="10" stroke-width="2"/><line x1="26.472" x2="26.472" y1="42.026" y2="45.329" fill="none" stroke="#000" stroke-linecap="round" stroke-linejoin="round" stroke-miterlimit="10" stroke-width="2"/><line x1="28.413" x2="28.413" y1="45.865" y2="49.168" fill="none" stroke="#000" stroke-linecap="round" stroke-linejoin="round" stroke-miterlimit="10" stroke-width="2"/><line x1="30.324" x2="30.324" y1="42.026" y2="45.329" fill="none" stroke="#000" stroke-linecap="round" stroke-linejoin="round" stroke-miterlimit="10" stroke-width="2"/><line x1="32.253" x2="32.253" y1="45.865" y2="49.168" fill="none" stroke="#000" stroke-linecap="round" stroke-linejoin="round" stroke-miterlimit="10" stroke-width="2"/><line x1="34.164" x2="34.164" y1="42.026" y2="45.329" fill="none" stroke="#000" stroke-linecap="round" stroke-linejoin="round" stroke-miterlimit="10" stroke-width="2"/><line x1="36.105" x2="36.105" y1="45.865" y2="49.168" fill="none" stroke="#000" stroke-linecap="round" stroke-linejoin="round" stroke-miterlimit="10" stroke-width="2"/><line x1="38.016" x2="38.016" y1="42.026" y2="45.329" fill="none" stroke="#000" stroke-linecap="round" stroke-linejoin="round" stroke-miterlimit="10" stroke-width="2"/><line x1="39.932" x2="39.932" y1="45.865" y2="49.168" fill="none" stroke="#000" stroke-linecap="round" stroke-linejoin="round" stroke-miterlimit="10" stroke-width="2"/><line x1="41.844" x2="41.844" y1="42.026" y2="45.329" fill="none" stroke="#000" stroke-linecap="round" stroke-linejoin="round" stroke-miterlimit="10" stroke-width="2"/><line x1="43.813" x2="43.813" y1="45.865" y2="49.168" fill="none" stroke="#000" stroke-linecap="round" stroke-linejoin="round" stroke-miterlimit="10" stroke-width="2"/><line x1="45.7" x2="45.7" y1="42.026" y2="45.329" fill="none" stroke="#000" stroke-linecap="round" stroke-linejoin="round" stroke-miterlimit="10" stroke-width="2"/><path d="m50.918 45.328c0.8493-0.3076 1.8373-0.121 2.5182 0.56l4.8606 4.8606c0.938 0.938 0.938 2.4589 0 3.397l-1.9462 1.9462c-0.9381 0.9381-2.459 0.9381-3.397 0l-4.8606-4.8606c-0.6461-0.6461-0.8472-1.5687-0.6033-2.3869" fill="none" stroke="#000" stroke-linecap="round" stroke-miterlimit="10" stroke-width="2"/><path d="m57.481 44.237c0.9812-2.5572 1.5189-5.3341 1.5189-8.2366 0-12.703-10.298-23-23-23-12.702-1e-4 -23 10.297-23 23 0 12.702 10.298 23 23 23 4.0701 0 7.8933-1.0574 11.21-2.9123" fill="none" stroke="#000" stroke-linecap="round" stroke-linejoin="round" stroke-miterlimit="10" stroke-width="2"/><path d="m30 31c0 1.6568-1.3448 3-3 3-1.6553 0-3-1.3433-3-3 0-1.6552 1.3447-3 3-3 1.6552 0 3 1.3448 3 3"/><path d="m48 31c0 1.6568-1.3447 3-3 3s-3-1.3433-3-3c0-1.6552 1.3447-3 3-3s3 1.3448 3 3"/></g></svg>
