<?xml version="1.0" encoding="UTF-8"?>
<svg id="a" viewBox="0 0 72 72" xmlns="http://www.w3.org/2000/svg"><g id="b"><circle cx="36" cy="36" r="24" fill="#fcea2b"/><path d="M30.498,53.374c-4.296-1.49-6.4614-4.8011-6.4614-8.6835h.0939s12.1375,3.0627,23.683.066l.1606-.066a8.881,8.881,0,0,1-6.4152,8.6842" fill="#fff"/><path d="m40.538 49.289s1.518 8.819-1.0644 10.939l0.0255-0.0218a4.8842 4.8842 0 0 1-7.0087 0c-2.5824-2.12-1.0644-10.939-1.0644-10.939" fill="#b1cc33"/></g><g id="c" fill="none" stroke="#000" stroke-linecap="round" stroke-linejoin="round" stroke-width="2"><path d="M30.498,53.374c-4.296-1.49-6.4614-4.8011-6.4614-8.6835h.0939s12.1375,3.0627,23.683.066l.1606-.066a8.881,8.881,0,0,1-6.4152,8.6842"/><path d="m20.279 27.2a6.3062 6.3062 0 0 1 3.3907-3 6.3038 6.3038 0 0 1 4.53-0.4209"/><path d="m50.89 27.2a7.19 7.19 0 0 0-7.9095-3.43"/><path d="m44.324 57.447a23 23 0 1 0-16.589 0.0229"/><path d="m20.279 27.2a6.3062 6.3062 0 0 1 3.3907-3 6.3038 6.3038 0 0 1 4.53-0.4209"/><path d="m50.89 27.2a7.19 7.19 0 0 0-7.9095-3.43"/><path d="m40.538 49.289s1.518 8.819-1.0644 10.939l0.0255-0.0218a4.8842 4.8842 0 0 1-7.0087 0c-2.5824-2.12-1.0644-10.939-1.0644-10.939"/><path d="m29.23 31.549a1.9352 1.9352 0 0 0-1.9506-1.2659 1.8234 1.8234 0 0 0-1.9911 1.5854 1.8233 1.8233 0 0 0 1.9911 1.5854l-0.04 0.0059a1.8234 1.8234 0 0 1 1.9906 1.5854 1.8233 1.8233 0 0 1-1.9911 1.5854 1.9353 1.9353 0 0 1-1.9507-1.2659"/><line x1="27.259" x2="27.259" y1="30.284" y2="28.772"/><line x1="27.259" x2="27.259" y1="38.142" y2="36.631"/><path d="m46.267 31.549a1.9352 1.9352 0 0 0-1.9506-1.2659 1.8234 1.8234 0 0 0-1.9911 1.5854 1.8233 1.8233 0 0 0 1.9911 1.5854l-0.04 0.0059a1.8234 1.8234 0 0 1 1.9911 1.5854 1.8233 1.8233 0 0 1-1.9911 1.5854 1.9353 1.9353 0 0 1-1.9507-1.2659"/><line x1="44.296" x2="44.296" y1="30.284" y2="28.772"/><line x1="44.296" x2="44.296" y1="38.142" y2="36.631"/><path d="m37.897 53.146a1.9352 1.9352 0 0 0-1.9506-1.266 1.6267 1.6267 0 1 0 0 3.1708l-0.04 0.0059a1.6267 1.6267 0 1 1 0 3.1708 1.9353 1.9353 0 0 1-1.9507-1.2659"/><line x1="35.926" x2="35.926" y1="51.88" y2="50.369"/><line x1="35.926" x2="35.926" y1="59.739" y2="58.228"/></g></svg>
