<?xml version="1.0" encoding="UTF-8"?>
<svg id="a" version="1.1" viewBox="0 0 72 72" xmlns="http://www.w3.org/2000/svg"><g id="b"><path d="M16,60.958L15.875,57c0-5.875,6.1328-10,11.125-10c6,5,12,5,18,0c4.9941,0,10,5.0059,10,10v3.958" fill="#92D3F5"/></g><g id="c"><path d="m25.772 39c-4 0-4.832-6.5-4.832-13.5s4.832-13.5 14.832-13.5 14 7 14 14 0 13-4 13" fill="#a57939"/></g><g id="d" fill="#fadcbc"><path d="m28.844 43.094c0.7509 0.918 4.0087 2.9063 6.9062 2.9063 5.9365 0 11.125-5.25 11.125-14.25 0-3-1-5.0005-1-5.0005-3-2.9995-7.6562-9.4995-7.6562-9.4995-1.1211 0.8413-2.0743 2.5479-3.3243 3.978"/><path d="m28.875 60.958c0.0049-0.5703-0.6973-10.409 0-14.972 0.2666-1.7461 2-1.9863 3-3.9863 3-6 1.833-8.333 4-14 1.1299-2.9541-1.5645-3.7236-3.127-0.6001l3.0079-3.7939c1.2041-3.3145-2.5879-4.4395-4.2559-2.606l-1.8271 3.6265c1.5693-2.3536-0.9815-4.1485-2.6729-2.375-1.5791 1.6557-3.624 6.2949-5.125 10.748 0 0-0.1172-2.1943 0.8125-4.1875 0.5645-1.21 0.2285-2.9492-1.6875-2.8125-0.9971 0.0713-1.7637 2.7734-2.54 5.667-0.7803 2.9067 0.0879 7.1562 0.7197 8.4209 1.4141 2.8281 1.6953 2.8984 1.6953 2.8984s-2 8.9717-4 17.972"/></g><g id="e"><path d="M22.1895,23.4019 C23.0879,17.3662,27.2441,12,36,12c10,0,14,7,14,14s0,13-4,13" fill="none" stroke="#000" stroke-linecap="round" stroke-linejoin="round" stroke-width="2"/><path d="m41.873 30c0 1.1045-0.8955 2-2 2-1.1044 0-2-0.8955-2-2s0.8956-2 2-2c1.1045 0 2 0.8955 2 2"/><path d="m37.438 38h1.5625" fill="none" stroke="#000" stroke-linecap="round" stroke-linejoin="round" stroke-width="2"/><path d="m55 60v-3c0-4.9941-5.0059-9-10-9-3.3652 2.8027-6.8389 3.6934-10.094 3.6934-0.7042 0-1.4415-0.0655-2.0538-0.1402" fill="none" stroke="#000" stroke-linecap="round" stroke-linejoin="round" stroke-width="2"/><path d="M32.3457,21.542C30.1553,24.8276,30.4473,24.3462,27,31" fill="none" stroke="#000" stroke-linecap="round" stroke-linejoin="round" stroke-miterlimit="10" stroke-width="2"/><path d="m22 32.602c2.25-4.333 4.1094-7.81 5.5313-9.6025" fill="none" stroke="#000" stroke-linecap="round" stroke-linejoin="round" stroke-miterlimit="10" stroke-width="2"/><path d="m17 60c2-9 4-17.411 4-17.411s-0.5859-0.7603-2-3.5889c-2-4 0-9 2-12" fill="none" stroke="#000" stroke-linecap="round" stroke-linejoin="round" stroke-miterlimit="10" stroke-width="2"/><path d="m35 23c-1.2832 2.5649-2.8262 5.4771-4 9" fill="none" stroke="#000" stroke-linecap="round" stroke-linejoin="round" stroke-miterlimit="10" stroke-width="2"/><path d="m29 60c0.0049-0.5703-0.6973-9.4512 0-14.014 0.2666-1.7461 2.1914-2.289 3-3.9863 1.9063-4 2.334-7.8057 3.9365-14" fill="none" stroke="#000" stroke-linecap="round" stroke-linejoin="round" stroke-miterlimit="10" stroke-width="2"/><path d="m37.326 19.711c0.5107-0.5605 0.9062-1.1352 1.6738-1.7114 0 0 4 5.0005 7 8 0 0 1 2.0005 1 5.0005 0 9-5.127 14-11.064 14-0.2187 0-0.5595-0.0229-0.9365-0.0562" fill="none" stroke="#000" stroke-linecap="round" stroke-linejoin="round" stroke-width="2"/></g></svg>
