<?xml version="1.0" encoding="UTF-8"?>
<svg id="a" viewBox="0 0 72 72" xmlns="http://www.w3.org/2000/svg"><g id="b" fill="#6a462f"><path d="M45.1849,42.8973s-3.5271-7.4355-4.29-9.914l-1.7159,8.9608-4.8617-1.0486-4.8617.286-1.8112-10.486-.9533-.858c-.5719-1.5252-5.8149-1.8112-8.1028-3.7177-1.62-1.43-3.05-6.4823-3.6224-8.77l1.2393-1.5253,3.7177,6.8636,8.3888,3.05L39.4653,27.073,42.23,29.0749l5.3383,11.63.7626,2.9552Z"/><circle cx="33.364" cy="19.161" r="2.8598"/></g><g id="c"><path d="m64.822 41.277c0-1.8112-11.344 2.86-16.11 2.86s-9.5327-2.86-15.252-2.86-9.5327 2.86-15.252 2.86-14.395-4.6712-14.395-2.9553c0 5.0523-0.2859 7.15 1.6206 10.677s9.5327 3.5271 12.488 6.5776c2.2879 2.3831 6.7683 1.7158 9.7234 1.7158 2.0972 0 4.3851 0.0954 8.58 0.0954 3.6224 0 10.009-1.2393 12.678-1.2393 2.1925 0 5.5289-3.2411 6.1962-4.5757 1.9066-3.8131 6.2916-0.9533 7.8168-3.9084 2.0967-3.8135 1.9061-4.0035 1.9061-9.2467z" fill="#92d3f5"/><circle cx="14.299" cy="14.394" r="2.8598" fill="#ea5a47"/></g><g id="d" fill="none" stroke="#000" stroke-width="2"><path d="m4.7665 40.991c2.86 0 8.5794 2.86 14.299 2.86s9.5327-2.86 15.252-2.86 10.486 2.86 15.252 2.86 6.6729-2.86 14.299-2.86" stroke-linecap="round" stroke-linejoin="round"/><path d="M43.8506,48.617a19.97,19.97,0,0,0,5.72.9533c2.5739,0,4.3851-.858,6.6729-1.6206" stroke-linecap="round" stroke-linejoin="round"/><path d="m12.202 48.522a26.509 26.509 0 0 0 6.8636 1.0483c5.72 0 9.5327-2.86 15.252-2.86" stroke-linecap="round" stroke-linejoin="round"/><path d="m24.785 55.29c3.05-0.858 5.91-2.0019 9.5327-2.0019 4.1944 0 7.9121 1.5252 11.439 2.3832" stroke-linecap="round" stroke-linejoin="round"/><circle cx="14.299" cy="14.395" r="2.8598" stroke-miterlimit="10"/><circle cx="33.364" cy="19.161" r="3" stroke-miterlimit="10"/><path d="M28.598,40.9908V34.3179a11.7319,11.7319,0,0,0-.4766-3.3364c-.286-.7627-.4767-1.43-.4767-1.43" stroke-linecap="round" stroke-linejoin="round"/><path d="m40.037 33.365-0.9532 7.6262" stroke-linecap="round" stroke-linejoin="round"/><path d="M17.0634,15.2525l2.3832,6.7682a4.1985,4.1985,0,0,0,2.4785,2.2879l3.9084.9532a16.7367,16.7367,0,0,0,3.7178.572l8.5794.6673a6.0306,6.0306,0,0,1,3.2411,1.5252l.1907.1907a11.0071,11.0071,0,0,1,2.0018,3.1458L44.327,33.46c.3813.9532.9532,2.5738,1.3345,3.5271L48.426,43.374" stroke-linecap="round" stroke-linejoin="round"/><path d="M37.395,18.4363s.6362-.1686.936.186c.3531.4163.4056,1.7478.7962,2.39a3.3624,3.3624,0,0,0,1.6458,1.417" stroke-linecap="round" stroke-linejoin="round"/></g></svg>
