<?xml version="1.0" encoding="UTF-8"?>
<svg id="a" viewBox="0 0 72 72" xmlns="http://www.w3.org/2000/svg"><g id="b"><circle cx="19.969" cy="18.094" r="2" fill="#EA5A47"/><circle cx="40.969" cy="6.0938" r="2" fill="#92D3F5"/><circle cx="55.969" cy="27.094" r="2" fill="#B1CC33"/></g><g id="c" fill="#c19a65" stroke="#c19a65"><circle cx="35.969" cy="13.094" r="3"/><path d="m30 26-1.7002 41h3.2998l3.4004-25h2l3.4004 25h3.2998l-1.7002-41s0.2139 4.1162 1.417 6c0.8574 1.3428 2.666 3.375 6.125 2.875 0 0 4.5205-0.5625 5.333-2.25 0.4648-0.9658 0.125-1.584 0.042-1.875s-2.667 0.709-2.667 0.709l-3.083 0.541-2.083-1.125-1.334-1.458-1.958-7.292-3.458-1.333-9.709-0.2085-3.416 4.458-0.542 4.2915-1.667 1.167-6.666-6.1665s-1.459 1.729-0.459 3.104 3.7881 5.3242 5.916 5.7285c2.417 0.459 3.793-0.6152 4.375-1.416 0.667-0.917 1.501-3.083 1.834-5.75z"/></g><g id="d" fill="none" stroke="#000" stroke-miterlimit="10" stroke-width="2"><circle cx="35.969" cy="13.094" r="3"/><path d="M41,26l2.5684,39.0039C43.6406,66.1016,42.958,67,42.0508,67c-0.9082,0-1.7715-0.8916-1.9199-1.9814l-2.8614-21.0372 C37.1211,42.8916,36.5498,42,36,42c-0.5498,0-1.1211,0.8916-1.2695,1.9814l-2.8614,21.0372C31.7207,66.1084,30.8574,67,29.9492,67 c-0.9072,0-1.5898-0.8984-1.5176-1.9961L31,26" stroke-linecap="round" stroke-linejoin="round"/><path d="m19 25 3.707 4.2373c1.8116 2.0693 3.6631 1.543 4.1153-1.1694l0.3554-2.1358c0.4522-2.7129 2.6221-5.1572 4.8223-5.4321s5.7998-0.2749 8 0 4.3701 2.7192 4.8223 5.4321l0.3554 2.1358c0.4522 2.7124 2.6221 4.4819 4.8223 3.9321s4-1 4-1" stroke-linecap="round" stroke-linejoin="round"/></g></svg>
