<?xml version="1.0" encoding="UTF-8"?>
<svg id="a" viewBox="0 0 72 72" xmlns="http://www.w3.org/2000/svg"><g id="b"><path d="m23 38.958s-4 1-4 3l2 2a35.36 35.36 0 0 1 1 6c0 2-1 11-1 11h30s-2-15-1-16l3-3c0-2-4-3-4-3" fill="#92d3f5"/></g><g id="c" fill="#a57939"><path d="m25 30.958c0 9 4.9365 14 11 14 5.9365 0 11.064-5 11.064-14a12.133 12.133 0 0 0-1-5c-0.9553-3.0582-1.6273-6.0451-1.6273-6.0451-5.3017-0.8214-11.051 2.1655-16.502 1.2694 0 0-2.9338 4.7757-2.9338 9.7757z"/><path d="m13.968 60.958 2.9375-12.306-0.9375-1.25-4-3-4-6a1.4142 1.4142 0 0 1 2-2l4 4c1 1 2 1 5 2s3.1308 3.2373 3 5c-0.666 8.9727-1 13.556-1 13.556"/><path d="m19.991 42.848s-1.0234-2.89-2.1172-5.89c-0.4316-1.1816-1.9062-1.0312-1.9062-0.166v3.69"/><path d="m58.032 60.958-2.9375-12.306 0.9375-1.25 4-3 4-6a1.4142 1.4142 0 0 0-2-2l-4 4c-1 1-2 1-5 2s-3.1308 3.2373-3 5c0.667 8.9727 1 13.556 1 13.556"/><path d="M52.01,42.8479s1.0224-2.89,2.1162-5.89c.4306-1.1816,1.9062-1.0312,1.9062-.166v3.69"/></g><g id="d"><path d="m44.278 19.65c-7.473 0-8.7162 3.5912-16.36 1.88-3.4041-0.7621-1.9184 16.432-1.9184 16.432-3 0-4-7-4-14 0-6 5-12 14-12s14 6 14 12c0 7-1 14-4 14 0 0 0.7172-18.312-1.7216-18.312z"/></g><g id="e"><path d="m41.873 29.958a2 2 0 1 1-2-2 2 2 0 0 1 2 2"/><path d="m33.873 29.958a2 2 0 1 1-2-2 2 2 0 0 1 2 2"/><path d="m34.084 37.958a11.5 11.5 0 0 0 3.9365 0" fill="none" stroke="#000" stroke-linecap="round" stroke-linejoin="round" stroke-width="2"/><path d="m13.968 59.958 2.9375-11.306-0.9375-1.25-4-3-4-6a1.4142 1.4142 0 0 1 2-2l4 4c1 1 2 1 5 2s3.1308 3.2373 3 5c-0.666 8.9727-1 12.556-1 12.556" fill="none" stroke="#000" stroke-linecap="round" stroke-linejoin="round" stroke-width="2"/><path d="m19.991 42.848s-1.0234-2.89-2.1172-5.89c-0.4316-1.1816-1.9062-1.0312-1.9062-0.166v3.69" fill="none" stroke="#000" stroke-linecap="round" stroke-linejoin="round" stroke-width="2"/><path d="m58.032 59.958-2.9375-11.306 0.9375-1.25 4-3 4-6a1.4142 1.4142 0 0 0-2-2l-4 4c-1 1-2 1-5 2s-3.1308 3.2373-3 5c0.667 8.9727 1 12.556 1 12.556" fill="none" stroke="#000" stroke-linecap="round" stroke-linejoin="round" stroke-width="2"/><path d="M52.01,42.8479s1.0224-2.89,2.1162-5.89c.4306-1.1816,1.9062-1.0312,1.9062-.166v3.69" fill="none" stroke="#000" stroke-linecap="round" stroke-linejoin="round" stroke-width="2"/><line x1="23" x2="26" y1="39.958" y2="38.958" fill="none" stroke="#000" stroke-linecap="round" stroke-linejoin="round" stroke-width="2"/><line x1="46.006" x2="49.444" y1="38.812" y2="39.958" fill="none" stroke="#000" stroke-linecap="round" stroke-linejoin="round" stroke-width="2"/><path d="m24.951 30.962c-0.1015 7.999 4.9365 14 11 14 5.9365 0 11.064-6 11.064-14 0-5-3-11-3-11-8 0-10 3-16 1 0 0-3 5-3.0635 10z" fill="none" stroke="#000" stroke-linejoin="round" stroke-width="2"/><path d="m26.014 37.962c-3 0-4-7-4-14 0-6 5-12 14-12s14 6 14 12c0 7-1 14-4 14" fill="none" stroke="#000" stroke-linecap="round" stroke-linejoin="round" stroke-width="2"/></g></svg>
