<?xml version="1.0" encoding="UTF-8"?>
<svg id="a" viewBox="0 0 72 72" xmlns="http://www.w3.org/2000/svg"><g id="b" fill="#92d3f5"><path d="M27.1667,68H4V56.3333l15-7.5c-2.6034,8.5367,7.4551,14.557,12.5,11.6667L27.1667,68z"/><path d="m46.292 68h23.167v-11.667l-15-7.5c2.6034 8.5367-7.4551 14.557-12.5 11.667l4.3333 7.5z"/></g><g id="c" fill="#a57939" stroke="#a57939"><path d="m29.83 61.109c-6.1759 0-11.173-4.7888-11.173-10.707 6.625-4.0208 7.2806-13.84 7.9681-19.465 0.5-2.8906 1.7917-2.8906 2.25-5.7812l2.625-17.809c0.625-3.3474 4.579-3.0056 5.2292-0.3474v46.917c0 1.9346-2.8958 3.5-3.8958 3.5-0.8126 0-3.0032 3.0295-3.0032 3.6923z"/><path d="m43.628 61.109c6.1759 0 11.173-4.7888 11.173-10.707-6.625-4.0208-7.2806-13.84-7.9681-19.465-0.5-2.8906-1.7917-2.8906-2.25-5.7812l-2.625-17.809c-0.625-3.3475-4.5789-3.0057-5.2291-0.3475v46.917c0 1.9346 2.8958 3.5 3.8958 3.5 0.8125 0 3.0031 3.0295 3.0031 3.6923z"/></g><g id="d" fill="none" stroke="#000" stroke-linecap="round" stroke-linejoin="round" stroke-miterlimit="10" stroke-width="2"><path d="M27.1667,68H4V56.3333l15-7.5c-2.6034,8.5367,7.4551,14.557,12.5,11.6667L27.1667,68z"/><path d="M29.8302,61.109c0-0.6628,2.1906-3.6923,3.0031-3.6923c1,0,3.8958-1.5654,3.8958-3.5V7C36.079,4.3418,32.125,4,31.5,7.3474 l-2.625,17.8088c-0.4583,2.8906-1.75,2.8906-2.25,5.7812c-0.6875,5.625-1.3431,15.4439-7.9681,19.4647"/><path d="m46.292 68h23.167v-11.667l-15-7.5c2.6034 8.5367-7.4551 14.557-12.5 11.667l4.3333 7.5z"/><path d="m43.628 61.109c0-0.6628-2.1906-3.6923-3.0031-3.6923-1 0-3.8958-1.5654-3.8958-3.5v-46.917c0.6502-2.6582 4.6042-3 5.2292 0.3474l2.625 17.809c0.4583 2.8906 1.75 2.8906 2.25 5.7812 0.6875 5.625 1.3431 15.444 7.9681 19.465"/><line x1="16.381" x2="9.9565" y1="19.608" y2="19.869"/><line x1="21.076" x2="22.044" y1="15.404" y2="9.0474"/><line x1="18.471" x2="15.136" y1="17.257" y2="13.532"/><line x1="55.62" x2="62.044" y1="19.608" y2="19.869"/><line x1="50.924" x2="49.957" y1="15.404" y2="9.0474"/><line x1="53.529" x2="56.865" y1="17.257" y2="13.532"/></g></svg>
