<?xml version="1.0" encoding="UTF-8"?>
<svg id="a" viewBox="0 0 72 72" xmlns="http://www.w3.org/2000/svg"><g id="b" fill="none" stroke="#000" stroke-linecap="round" stroke-linejoin="round" stroke-width="2"><polyline points="62 55.5 62 17 10 17 10 55.5"/><line x1="62" x2="52.904" y1="55.5" y2="46.404"/><line x1="20" x2="53" y1="46" y2="46"/><line x1="10" x2="19.096" y1="55.5" y2="46.404"/><line x1="10" x2="19.32" y1="17" y2="45.583"/><line x1="10.752" x2="61.752" y1="18.083" y2="18.083"/><line x1="49.02" x2="61.602" y1="18.083" y2="18.083"/><line x1="16.886" x2="55.752" y1="39.083" y2="39.083"/><line x1="49.02" x2="55.933" y1="39.083" y2="39.083"/><line x1="14.752" x2="56.752" y1="32.083" y2="32.083"/><line x1="49.02" x2="57.35" y1="32.083" y2="32.083"/><line x1="35.77" x2="35.77" y1="17.5" y2="45.5"/><line x1="28.77" x2="28.77" y1="17.5" y2="45.5"/><line x1="21.77" x2="21.77" y1="17.5" y2="45.5"/><line x1="14.77" x2="14.77" y1="17.5" y2="50.449"/><line x1="42.77" x2="42.77" y1="18.083" y2="45.583"/><line x1="49.77" x2="49.77" y1="17.516" y2="45.583"/><line x1="56.77" x2="56.77" y1="18.083" y2="50.082"/><line x1="42.77" x2="42.77" y1="21" y2="36.167"/><line x1="12.768" x2="59.752" y1="25.083" y2="25.083"/><line x1="48.768" x2="60.185" y1="25.083" y2="25.083"/><line x1="57.35" x2="61.858" y1="32" y2="36.508"/><line x1="59.752" x2="61.903" y1="25.083" y2="27.238"/><line x1="55.102" x2="62" y1="39.083" y2="45.583"/><line x1="14.686" x2="10.263" y1="32.083" y2="36.506"/><line x1="12.768" x2="10.16" y1="25.78" y2="28.387"/><line x1="17.171" x2="10.337" y1="38.82" y2="45.259"/><line x1="53" x2="62" y1="46" y2="18"/></g><g id="c" fill="none" stroke-width="2"><line x1="10.752" x2="61.752" y1="18.083" y2="18.083" stroke="#d0cfce" stroke-miterlimit="10"/><line x1="49.02" x2="61.602" y1="18.083" y2="18.083" stroke="#9b9b9a" stroke-miterlimit="10"/><line x1="16.886" x2="55.752" y1="39.083" y2="39.083" stroke="#d0cfce" stroke-miterlimit="10"/><line x1="49.02" x2="55.933" y1="39.083" y2="39.083" stroke="#9b9b9a" stroke-miterlimit="10"/><line x1="14.752" x2="56.752" y1="32.083" y2="32.083" stroke="#d0cfce" stroke-miterlimit="10"/><line x1="49.02" x2="57.35" y1="32.083" y2="32.083" stroke="#9b9b9a" stroke-miterlimit="10"/><line x1="35.77" x2="35.77" y1="17.5" y2="45.5" stroke="#d0cfce" stroke-miterlimit="10"/><line x1="28.77" x2="28.77" y1="17.5" y2="45.5" stroke="#d0cfce" stroke-miterlimit="10"/><line x1="21.77" x2="21.77" y1="17.5" y2="45.5" stroke="#d0cfce" stroke-miterlimit="10"/><line x1="14.77" x2="14.77" y1="17.5" y2="51.358" stroke="#d0cfce" stroke-miterlimit="10"/><line x1="42.77" x2="42.77" y1="18.083" y2="45.583" stroke="#d0cfce" stroke-miterlimit="10"/><line x1="49.77" x2="49.77" y1="17.516" y2="45.583" stroke="#9b9b9a" stroke-miterlimit="10"/><line x1="56.77" x2="56.77" y1="18.083" y2="50.457" stroke="#9b9b9a" stroke-miterlimit="10"/><line x1="42.77" x2="42.77" y1="21" y2="36.167" stroke="#d0cfce" stroke-miterlimit="10"/><line x1="12.768" x2="59.752" y1="25.083" y2="25.083" stroke="#d0cfce" stroke-miterlimit="10"/><line x1="48.768" x2="60.185" y1="25.083" y2="25.083" stroke="#9b9b9a" stroke-miterlimit="10"/><line x1="57.35" x2="62.145" y1="32" y2="36.795" stroke="#9b9b9a" stroke-miterlimit="10"/><line x1="59.752" x2="62.145" y1="25.083" y2="27.481" stroke="#9b9b9a" stroke-miterlimit="10"/><line x1="55.102" x2="62" y1="39.083" y2="45.583" stroke="#9b9b9a" stroke-miterlimit="10"/><line x1="14.686" x2="9.7559" y1="32.083" y2="37.014" stroke="#d0cfce" stroke-miterlimit="10"/><line x1="13.483" x2="9.7559" y1="25.064" y2="28.791" stroke="#d0cfce" stroke-miterlimit="10"/><line x1="17.171" x2="9.7605" y1="38.82" y2="45.803" stroke="#d0cfce" stroke-miterlimit="10"/><line x1="53" x2="62" y1="46" y2="18" stroke="#000" stroke-linecap="round" stroke-linejoin="round"/><polyline points="62 55.5 62 17 10 17 10 55.5" stroke="#000" stroke-linecap="round" stroke-linejoin="round"/><line x1="62" x2="52.904" y1="55.5" y2="46.404" stroke="#000" stroke-linecap="round" stroke-linejoin="round"/><line x1="20" x2="53" y1="46" y2="46" stroke="#000" stroke-linecap="round" stroke-linejoin="round"/><line x1="10" x2="19.096" y1="55.5" y2="46.404" stroke="#000" stroke-linecap="round" stroke-linejoin="round"/><line x1="10" x2="19.32" y1="17" y2="45.583" stroke="#000" stroke-linecap="round" stroke-linejoin="round"/><line x1="53" x2="62" y1="46" y2="18" stroke="#000" stroke-linecap="round" stroke-linejoin="round"/></g></svg>
