<?xml version="1.0" encoding="UTF-8"?>
<svg id="a" viewBox="0 0 72 72" xmlns="http://www.w3.org/2000/svg"><g id="b"><path d="m45.606 50.925v-4.5612s1.2674-1.1629 2.4125-2.3333c3.7692-3.8524 5.6146-9.8857 5.6146-9.8857 5.0219-13.353 0.71-17.729 0.71-17.729-0.9967-1.3248-3.1441-0.5776-3.1441-0.5776-0.3357-3.0657-1.217-5.0365-1.217-5.0365-2.3082-7.0949-21.907-5.0803-21.907-5.0803-12.968 1.7958-12.128 15.81-12.128 15.81-0.011 18.594 6.1272 24.82 6.1272 24.82v4.524c0 1.8644 5.2812 3.3819 11.754 3.3819s11.778-1.4679 11.778-3.3323" fill="#ea5a47"/><path d="m33.572 66.542c6.6195 0 12.033-1.515 12.033-3.3795l5e-4 -0.0252v-12.212c0 1.8644-5.3061 3.3324-11.778 3.3324s-11.754-1.5175-11.754-3.3819v12.25l5e-4 0.0376c0 1.8644 5.4131 3.3795 12.033 3.3795" fill="#d0cfce"/><path d="m45.178 50.925v-4.5612s1.2674-1.1629 2.4125-2.3333c3.7692-3.8524 5.6146-9.8857 5.6146-9.8857 5.0219-13.353 0.71-17.729 0.71-17.729-0.9967-1.3248-3.1441-0.5776-3.1441-0.5776-0.3357-3.0657-1.217-5.0365-1.217-5.0365-0.9936-3.0534-8.5963-4.7285-13.054-5.2941 0 0 27.125 11.867 3.6091 39.537-0.1393 0.1639-0.2027 0.3785-0.2025 0.5937 0.0012 1.2357 0.0053 5.6832 0.0053 8.0304l-0.0057 0.0385c0-1e-4 4.0445-0.6901 5.2723-2.7819z" fill="#d22f27"/><path d="m39.906 66.969c4.0891-0.5312 6.695-2.125 6.695-3.5284l6e-4 -0.0258v-12.489c0 1.1917-2.7146 2.2375-6.6956 2.8449v13.199z" fill="#9b9b9a"/></g><g id="c" fill="none" stroke="#000" stroke-linecap="round" stroke-linejoin="round" stroke-miterlimit="10" stroke-width="2"><path d="m45.606 50.925c0 1.8644-5.3061 3.3324-11.778 3.3324s-11.754-1.5175-11.754-3.3819"/><path d="m45.606 60.106v-13.742s1.2674-1.1629 2.4125-2.3333c3.7692-3.8524 5.6146-9.8857 5.6146-9.8857 5.0219-13.353 0.71-17.729 0.71-17.729-0.9967-1.3248-3.1441-0.5776-3.1441-0.5776-0.3357-3.0657-1.217-5.0365-1.217-5.0365-2.3082-7.0949-21.907-5.0803-21.907-5.0803-12.968 1.7958-12.128 15.81-12.128 15.81-0.011 18.594 6.1272 24.82 6.1272 24.82v16.774l5e-4 0.0376c0 1.8644 5.4131 3.3795 12.033 3.3795"/><path d="m33.572 66.542c5.3784 0 9.9603-1.0002 11.49-2.3752 0.0209-0.0188 0.0413-0.0377 0.0611-0.0567"/><path d="m41.321 13.561c4.9387-4.4356 9.8773 2.2774 9.8773 2.2774s-6.0223 1.8613-4.9836 10.927"/></g></svg>
