<?xml version="1.0" encoding="UTF-8"?>
<svg id="a" viewBox="0 0 72 72" xmlns="http://www.w3.org/2000/svg"><g id="b"><rect x="30" y="17" width="16" height="3" fill="#d22f27"/><path d="m28 17h2v6h-4v-4a2 2 0 0 1 2-2z" fill="#d22f27"/><rect x="24" y="25" width="25" height="3" fill="#d22f27"/><path d="m15.024 45.316 43.782-0.014a5.12 5.12 0 0 1 0.1943 2.6281 6.665 6.665 0 0 1-3 3.8994 12.842 12.842 0 0 1-4.46 2.1093c-6.4185 1.5916-14.579 0.9581-22.54 0.815-1.5659-0.0281-3.9957-0.053-7 0a11.766 11.766 0 0 1-6-2.9243c-1.9575-1.84-3.823-5.0163-2.8989-6.1266 0.4139-0.4976 1.2965-0.4705 1.9224-0.3869z" fill="#9b9b9a"/><path d="M59,40H13a5.281,5.281,0,0,1-1-3.3854c.2236-2.9774,3.4077-5.7207,8-6.7707,4.2214-.4553,8.91-.7783,14-.8463a149.3349,149.3349,0,0,1,18,.8463c4.98,1.5891,8.1729,4.6559,8,7.6171A4.6653,4.6653,0,0,1,59,40Z" fill="#9b9b9a"/><path d="m47.154 28a14.055 14.055 0 0 0-6.1538 1.42 13.332 13.332 0 0 1 0 24.16 14.055 14.055 0 0 0 6.1538 1.42 13.504 13.504 0 1 0 0-27z" fill="#3f3f3f"/><path d="m60 42.5a14.324 14.324 0 0 0-0.2271-2.5h-11.327a13.898 13.898 0 0 1 0 5h11.327a14.325 14.325 0 0 0 0.2271-2.5z" fill="#9b9b9a"/></g><g id="c" fill="none" stroke="#000" stroke-linecap="round" stroke-linejoin="round" stroke-width="2"><rect x="26" y="17" width="4" height="7"/><rect x="12" y="29.067" width="48" height="25.6" rx="12"/><rect x="12" y="40" width="48" height="5" rx="2.5"/><rect x="23" y="25" width="26" height="4" rx="2"/><path d="M44.5,20H30V17H44.5a1.5,1.5,0,0,1,0,3Z"/></g></svg>
