<?xml version="1.0" encoding="UTF-8"?>
<svg id="a" viewBox="0 0 72 72" xmlns="http://www.w3.org/2000/svg"><g id="b"><circle cx="36" cy="36" r="28" fill="#fcea2b"/></g><g id="c" fill="none" stroke-width="2"><polyline points="23.111 58.006 21.594 53.799 17.319 52.488" stroke-linecap="round" stroke-linejoin="round"/><polyline points="27.658 51.94 25.199 48.205 20.736 47.93" stroke-linecap="round" stroke-linejoin="round"/><polyline points="30.692 45.113 27.415 42.069 23.014 42.864" stroke-linecap="round" stroke-linejoin="round"/><polyline points="31.997 37.918 28.076 35.767 24.003 37.613" stroke-linecap="round" stroke-linejoin="round"/><polyline points="31.295 29.888 26.963 28.777 23.475 31.576" stroke-linecap="round" stroke-linejoin="round"/><polyline points="28.666 21.957 24.194 21.938 21.496 25.505" stroke-linecap="round" stroke-linejoin="round"/><polyline points="24.457 15.353 20.109 16.399 18.336 20.505" stroke-linecap="round" stroke-linejoin="round"/><polyline points="49.889 58.006 51.406 53.799 55.681 52.488" stroke-linecap="round" stroke-linejoin="round"/><polyline points="45.342 51.94 47.801 48.205 52.264 47.93" stroke-linecap="round" stroke-linejoin="round"/><polyline points="42.308 45.113 45.585 42.069 49.986 42.864" stroke-linecap="round" stroke-linejoin="round"/><polyline points="41.003 37.918 44.924 35.767 48.997 37.613" stroke-linecap="round" stroke-linejoin="round"/><polyline points="41.705 29.888 46.037 28.777 49.525 31.576" stroke-linecap="round" stroke-linejoin="round"/><polyline points="44.334 21.957 48.806 21.938 51.504 25.505" stroke-linecap="round" stroke-linejoin="round"/><polyline points="48.543 15.353 52.891 16.399 54.664 20.505" stroke-linecap="round" stroke-linejoin="round"/><path d="m18 14.558a27.988 27.988 0 0 1 0 42.884" stroke="#000" stroke-linecap="round" stroke-miterlimit="10"/><path d="m54.5 14.991a27.98 27.98 0 0 0 0 42.018" stroke="#000" stroke-linecap="round" stroke-miterlimit="10"/><polyline points="23.111 58.006 21.594 53.799 17.319 52.488" stroke="#000" stroke-linecap="round" stroke-linejoin="round"/><polyline points="27.658 51.94 25.199 48.205 20.736 47.93" stroke="#000" stroke-linecap="round" stroke-linejoin="round"/><polyline points="27.658 51.94 25.199 48.205 20.736 47.93" stroke="#000" stroke-linecap="round" stroke-linejoin="round"/><polyline points="30.692 45.113 27.415 42.069 23.014 42.864" stroke="#000" stroke-linecap="round" stroke-linejoin="round"/><polyline points="31.997 37.918 28.076 35.767 24.003 37.613" stroke="#000" stroke-linecap="round" stroke-linejoin="round"/><polyline points="31.295 29.888 26.963 28.777 23.475 31.576" stroke="#000" stroke-linecap="round" stroke-linejoin="round"/><polyline points="28.666 21.957 24.194 21.938 21.496 25.505" stroke="#000" stroke-linecap="round" stroke-linejoin="round"/><polyline points="24.457 15.353 20.109 16.399 18.336 20.505" stroke="#000" stroke-linecap="round" stroke-linejoin="round"/><polyline points="49.889 58.006 51.406 53.799 55.681 52.488" stroke="#000" stroke-linecap="round" stroke-linejoin="round"/><polyline points="45.342 51.94 47.801 48.205 52.264 47.93" stroke="#000" stroke-linecap="round" stroke-linejoin="round"/><polyline points="42.308 45.113 45.585 42.069 49.986 42.864" stroke="#000" stroke-linecap="round" stroke-linejoin="round"/><polyline points="41.003 37.918 44.924 35.767 48.997 37.613" stroke="#000" stroke-linecap="round" stroke-linejoin="round"/><polyline points="41.705 29.888 46.037 28.777 49.525 31.576" stroke="#000" stroke-linecap="round" stroke-linejoin="round"/><polyline points="44.334 21.957 48.806 21.938 51.504 25.505" stroke="#000" stroke-linecap="round" stroke-linejoin="round"/><polyline points="48.543 15.353 52.891 16.399 54.664 20.505" stroke="#000" stroke-linecap="round" stroke-linejoin="round"/><circle cx="36" cy="36" r="28" stroke="#000" stroke-miterlimit="10"/></g><g id="d" fill="none" stroke="#d22f27" stroke-linecap="round" stroke-linejoin="round" stroke-width="2"><polyline points="23.111 58.006 21.594 53.799 17.319 52.488"/><polyline points="27.658 51.94 25.199 48.205 20.736 47.93"/><polyline points="30.692 45.113 27.415 42.069 23.014 42.864"/><polyline points="31.997 37.918 28.076 35.767 24.003 37.613"/><polyline points="31.295 29.888 26.963 28.777 23.475 31.576"/><polyline points="28.666 21.957 24.194 21.938 21.496 25.505"/><polyline points="24.457 15.353 20.109 16.399 18.336 20.505"/><polyline points="49.889 58.006 51.406 53.799 55.681 52.488"/><polyline points="45.342 51.94 47.801 48.205 52.264 47.93"/><polyline points="42.308 45.113 45.585 42.069 49.986 42.864"/><polyline points="41.003 37.918 44.924 35.767 48.997 37.613"/><polyline points="41.705 29.888 46.037 28.777 49.525 31.576"/><polyline points="44.334 21.957 48.806 21.938 51.504 25.505"/><polyline points="48.543 15.353 52.891 16.399 54.664 20.505"/></g></svg>
