<?xml version="1.0" encoding="UTF-8"?>
<svg id="a" viewBox="0 0 72 72" xmlns="http://www.w3.org/2000/svg"><g id="b"><circle cx="42.967" cy="40.025" r="5" fill="#d0cfce"/><path d="m45.091 35.815a4.9945 4.9945 0 0 1-6.9 6.9 4.9971 4.9971 0 1 0 6.9-6.9z" fill="#9b9b9a"/><polygon points="29.641 67.036 29.641 53.202 30.495 46.505 32.517 46.505 33.37 53.202 33.37 67.036" fill="#d0cfce" stroke="#d0cfce" stroke-linecap="round" stroke-linejoin="round" stroke-width="2"/></g><g id="c" stroke="#000"><line x1="31.696" x2="31.696" y1="28.5" y2="45.655" fill="none" stroke-linecap="round" stroke-linejoin="round" stroke-width="2"/><line x1="27.752" x2="35.752" y1="23" y2="23" stroke-miterlimit="10" stroke-width="1.5"/><line x1="31.696" x2="31.696" y1="4.5" y2="28.5" stroke-miterlimit="10" stroke-width="1.5"/><line x1="28.696" x2="28.696" y1="5" y2="25" stroke-miterlimit="10" stroke-width="1.4639"/><line x1="25.696" x2="25.696" y1="7.5" y2="20.217" stroke-miterlimit="10" stroke-width="1.5"/><line x1="34.696" x2="34.696" y1="5" y2="26" stroke-miterlimit="10" stroke-width="1.5"/><line x1="37.696" x2="37.696" y1="7.5" y2="20.217" stroke-miterlimit="10" stroke-width="1.5"/><line x1="22.535" x2="40.252" y1="14" y2="14" stroke-miterlimit="10" stroke-width="1.5"/><line x1="23.819" x2="39.685" y1="17" y2="17" stroke-miterlimit="10" stroke-width="1.5"/><line x1="25.535" x2="37.252" y1="20" y2="20" stroke-miterlimit="10" stroke-width="1.5"/><line x1="23.185" x2="40.252" y1="11" y2="11" stroke-miterlimit="10" stroke-width="1.5"/><line x1="25.252" x2="39.252" y1="8" y2="8" stroke-miterlimit="10" stroke-width="1.5"/><line x1="33.942" x2="39.194" y1="8" y2="8" stroke-miterlimit="10" stroke-width="1.5"/><line x1="33.942" x2="40.328" y1="11" y2="11" stroke-miterlimit="10" stroke-width="1.5"/><line x1="33.942" x2="40.328" y1="14" y2="14" stroke-miterlimit="10" stroke-width="1.5"/><line x1="33.942" x2="39.761" y1="17" y2="17" stroke-miterlimit="10" stroke-width="1.5"/><line x1="33.942" x2="38.06" y1="20" y2="20" stroke-miterlimit="10" stroke-width="1.5"/><line x1="33.942" x2="36.076" y1="23" y2="23" stroke-miterlimit="10" stroke-width="1.5"/><line x1="28.535" x2="34.252" y1="26" y2="26" stroke-miterlimit="10" stroke-width="1.5"/><polyline points="30.22 48.658 29.641 53.203 29.641 67.037 33.37 67.037 33.37 53.203" fill="none" stroke-linecap="round" stroke-linejoin="round" stroke-width="2"/><path d="M31.7518,28.6842c-3.2557,0-2.1077-2.2747-3.6881-5.6821C27.2314,21.2074,21,15,22.8952,10.0611,24.0612,7.0228,28.3768,5,31.7518,5" fill="none" stroke-miterlimit="10" stroke-width="2"/><path d="m31.752 5c3.375 0 7.6906 2.0228 8.8566 5.0611 1.8952 4.9389-4.3362 11.146-5.1684 12.941-1.58 3.4074-0.4323 5.6821-3.6881 5.6821" fill="none" stroke-miterlimit="10" stroke-width="2"/><circle cx="43" cy="40" r="5" fill="none" stroke-linecap="round" stroke-linejoin="round" stroke-width="1.8"/></g><g id="d" fill="none" stroke-miterlimit="10"><line x1="27.752" x2="35.752" y1="23" y2="23" stroke="#d0cfce" stroke-width="1.5"/><line x1="31.696" x2="31.696" y1="4.5" y2="28.5" stroke="#d0cfce" stroke-width="1.5"/><line x1="28.696" x2="28.696" y1="5" y2="25.15" stroke="#d0cfce" stroke-width="1.5"/><line x1="25.696" x2="25.696" y1="7.5" y2="19.933" stroke="#d0cfce" stroke-width="1.5"/><line x1="34.696" x2="34.696" y1="5" y2="26" stroke="#9b9b9a" stroke-width="1.5"/><line x1="37.696" x2="37.696" y1="7.5" y2="20.217" stroke="#9b9b9a" stroke-width="1.5"/><line x1="22.252" x2="40.252" y1="14" y2="14" stroke="#d0cfce" stroke-width="1.5"/><line x1="23.819" x2="39.685" y1="17" y2="17" stroke="#d0cfce" stroke-width="1.5"/><line x1="25.535" x2="37.252" y1="20" y2="20" stroke="#d0cfce" stroke-width="1.5"/><line x1="22.618" x2="40.252" y1="11" y2="11" stroke="#d0cfce" stroke-width="1.5"/><line x1="25.252" x2="39.252" y1="8" y2="8" stroke="#d0cfce" stroke-width="1.5"/><line x1="33.942" x2="39.194" y1="8" y2="8" stroke="#9b9b9a" stroke-width="1.5"/><line x1="33.942" x2="40.328" y1="11" y2="11" stroke="#9b9b9a" stroke-width="1.5"/><line x1="33.942" x2="40.328" y1="14" y2="14" stroke="#9b9b9a" stroke-width="1.5"/><line x1="33.942" x2="39.761" y1="17" y2="17" stroke="#9b9b9a" stroke-width="1.5"/><line x1="33.942" x2="38.06" y1="20" y2="20" stroke="#9b9b9a" stroke-width="1.5"/><line x1="33.942" x2="36.076" y1="23" y2="23" stroke="#9b9b9a" stroke-width="1.5"/><line x1="28.535" x2="34.252" y1="26" y2="26" stroke="#d0cfce" stroke-width="1.5"/><path d="M31.7518,28.6842c-3.2557,0-2.1077-2.2747-3.6881-5.6821C27.2314,21.2074,21,15,22.8952,10.0611,24.0612,7.0228,28.3768,5,31.7518,5" stroke="#000" stroke-width="2"/><path d="m31.752 5c3.375 0 7.6906 2.0228 8.8566 5.0611 1.8952 4.9389-4.3362 11.146-5.1684 12.941-1.58 3.4074-0.4323 5.6821-3.6881 5.6821" stroke="#000" stroke-width="2"/></g></svg>
