<?xml version="1.0" encoding="UTF-8"?>
<svg id="a" viewBox="0 0 72 72" xmlns="http://www.w3.org/2000/svg"><g id="b"><path d="M57.4,40.6l5-.8-.3-1a2.948,2.948,0,0,0,2.1-3.7,3.0871,3.0871,0,0,0-1.7-2,5.0751,5.0751,0,0,0,1.2637-3.1343A4.9061,4.9061,0,0,0,63.1,27.3,5.0971,5.0971,0,0,0,57.4,25a2.9614,2.9614,0,0,0-3.3-3.7,4.9778,4.9778,0,0,0-8.5-4.4,3.1021,3.1021,0,0,0-2.1-2.2,3.4405,3.4405,0,0,0-2.6.5,4.9559,4.9559,0,0,0-4.7-3.4,4.8455,4.8455,0,0,0-4.8,3.8,2.8031,2.8031,0,0,0-2.9-.8,3.0871,3.0871,0,0,0-2,1.7,4.9736,4.9736,0,0,0-5.8-.6,5.0971,5.0971,0,0,0-2.3,5.7,2.9614,2.9614,0,0,0-3.7,3.3,4.9778,4.9778,0,0,0-4.4,8.5,2.99,2.99,0,0,0-.1,5.8v1l3.1.7" fill="#b1cc33" stroke="#b1cc33" stroke-miterlimit="10" stroke-width="2"/><circle cx="21.697" cy="34.3" r="5.9998" fill="#ea5a47"/><circle cx="36.697" cy="33.3" r="5.9998" fill="#ea5a47"/><circle cx="51.697" cy="33.3" r="5.9998" fill="#ea5a47"/><path d="m65 35a29 29 0 0 1-58 0z" fill="#fff"/><path d="m49 35c0 16-4 29-13 29a29.021 29.021 0 0 0 29-29z" fill="#d0cfce"/></g><g id="c" fill="none" stroke="#000" stroke-linecap="round" stroke-linejoin="round" stroke-width="2"><path d="m50.269 28.202a5.1615 5.1615 0 0 1 2.9807 0.0393 5.83 5.83 0 0 1 2.56 1.689"/><path d="m33.277 29.229a5.8288 5.8288 0 0 1 2.8281-1.1871 5.16 5.16 0 0 1 2.9367 0.5118"/><path d="m17.584 30.93a5.8307 5.8307 0 0 1 2.56-1.689 5.1611 5.1611 0 0 1 2.9806-0.0393"/><path d="M63.6508,30.9359A4.9051,4.9051,0,0,0,63.1,27.4a5.0971,5.0971,0,0,0-5.7-2.3,2.9614,2.9614,0,0,0-3.3-3.7A4.9778,4.9778,0,0,0,45.6,17a3.1021,3.1021,0,0,0-2.1-2.2,3.4405,3.4405,0,0,0-2.6.5,4.9559,4.9559,0,0,0-4.7-3.4,4.8455,4.8455,0,0,0-4.8,3.8,2.8031,2.8031,0,0,0-2.9-.8,3.0871,3.0871,0,0,0-2,1.7,4.9736,4.9736,0,0,0-5.8-.6,5.0971,5.0971,0,0,0-2.3,5.7A2.9614,2.9614,0,0,0,14.7,25a5.0362,5.0362,0,0,0-5.3,2.4,4.7548,4.7548,0,0,0-.6441,2.8857"/><path d="m65 35a29 29 0 0 1-58 0z"/></g></svg>
