<?xml version="1.0" encoding="UTF-8"?>
<svg id="a" viewBox="0 0 72 72" xmlns="http://www.w3.org/2000/svg"><g id="b"><path d="m46.98 45.39c-2.83 0.03-3.78 2.88-3.78 2.88s-0.97 1.92-0.97 4.81v5.73c0 1.09-0.87 1.96-1.96 1.96h-7.61c-1.09 0-1.96-0.87-1.96-1.96v-5.73c0-2.89-0.97-4.81-0.97-4.81s-0.92-2.76-3.65-2.88c0 0 1.43-0.11 1.1-0.11 1.81-0.24 5.05-1.05 6.4-3.74 0 0 0-2.31 2.31-2.31s2.5 2.31 2.5 2.31c1.55 3.1 5.58 3.7 7.1 3.82-0.09 0.01-0.19 0.01-0.29 0.03h1.78z" fill="#B1CC33" stroke="#B1CC33" stroke-miterlimit="10" stroke-width="1.8"/><path d="m58.388 34.386c0 6.0769-5.1058 11-11.404 11-0.0481 0-0.0866 0-0.1346-0.0096-0.2308 0.0096-0.4711 0-0.6923-0.0192-0.2116-0.0096-0.4135-0.0192-0.625 0h-0.0384c-1.2404-0.0961-4.1731-0.5192-6.0481-2.3653 0 0 9.6511-16.11 9.8048-15.642s-32.045 4.0746-13.266-1.0311c7.7692-2.1154 9.9135-4.7404 9.4808-7.2308l-9.3942-8.3173c0.2404 0 0.4711 0.0096 0.7019 0.0192 7.5481 0.2596 13.808 5.4423 15.433 12.327 0.2308 1.0192 0.8558 1.9039 1.7211 2.5385 2.721 2.0095 4.4614 5.173 4.4614 8.7307z" fill="#5c9e31"/><path d="m39.445 42.992s-0.7788-0.8847-1.0577-1.4519c0 0-0.1923-2.3077-2.5-2.3077s-2.3077 2.3077-2.3077 2.3077c-1.3462 2.6923-4.5866 3.5-6.4038 3.7404-0.2116 0-0.4231 0.0096-0.6443 0.0288-0.4038 0.0481-0.8173 0.0769-1.2307 0.0769-0.1443 0-0.2884-0.0096-0.4231-0.0096-6.1635-0.1634-11.106-5.0385-11.106-11.029 0-3.6538 1.8461-6.8942 4.6827-8.9038 0.9038-0.6443 1.4807-1.6154 1.7596-2.6731 1.5096-5.8173 6.3558-10.365 12.452-11.635 0.452-0.0962 0.9135-0.1827 1.375-0.2308 0.2308-0.0289 0.4616-0.0577 0.702-0.0769 0.4326-0.0385-4.8365-0.0577 1.3269-0.0577 8.3025 0 17.18 13.379-0.0866 15.548 19.666-8.5689 26.866 19.431 3.4616 16.673z" fill="#5C9E31"/><path d="m30.811 46.742c0.5192 0.5673 1.1346 1.0577 1.8173 1.4616-0.7019-0.3943-1.3462-0.8942-1.8846-1.4616-0.6827-0.7212-1.5961-1.173-2.5673-1.3557h0.1443c0.9422 0.1827 1.8268 0.6346 2.4903 1.3557z" fill="#B1CC33"/><path d="m45.205 45.386c-1.0289 0.125-1.9808 0.5673-2.6924 1.3173-1.3846 1.4904-3.375 2.4423-5.5865 2.5192 2.0961-0.1154 3.9712-1.0577 5.2981-2.5192 0.6923-0.75 1.6154-1.1923 2.6058-1.3173h0.375z" fill="#B1CC33"/><path d="m46.984 45.386c-2.8365 0.0384-3.7885 2.8846-3.7885 2.8846s-0.9615 1.9231-0.9615 4.8077v5.7307c0 1.0865-0.875 1.9616-1.9615 1.9616 0-9.25 1.7903-16.208 1.7903-16.208 0.625 2.0313 4.9212 0.8237 4.9212 0.8237z" fill="#5C9E31" stroke="#5C9E31" stroke-linejoin="round" stroke-miterlimit="10" stroke-width="1.8"/></g><g id="c" fill="none" stroke="#000" stroke-miterlimit="10" stroke-width="2"><path d="m26.723 45.314c-0.4196 0.0478-0.8461 0.0723-1.278 0.0723-6.125 0-11.096-4.9423-11.096-11.038 0-3.6552 1.7871-6.8941 4.5366-8.9045 0.8801-0.6435 1.4456-1.6121 1.7114-2.6694 1.7341-6.898 8.0083-12.003 15.473-12.003 7.5784 0 13.936 5.2744 15.544 12.341 0.2335 1.0259 0.8381 1.9071 1.6744 2.5454 2.634 2.0103 4.3295 5.1681 4.3295 8.7285 0 6.0769-4.9519 11-11.058 11-0.161 0-0.3212-0.0034-0.4805-0.0101"/><path d="m26.723 45.314c-0.4196 0.0478-0.8461 0.0723-1.278 0.0723-6.125 0-11.096-4.9423-11.096-11.038 0-3.6552 1.7871-6.8941 4.5366-8.9045 0.8801-0.6435 1.4456-1.6121 1.7114-2.6694 1.7341-6.898 8.0083-12.003 15.473-12.003 7.5784 0 13.936 5.2744 15.544 12.341 0.2335 1.0259 0.8381 1.9071 1.6744 2.5454 2.634 2.0103 4.3295 5.1681 4.3295 8.7285 0 6.0769-4.9519 11-11.058 11-0.161 0-0.3212-0.0034-0.4805-0.0101"/><path d="m46.08 45.386s-0.2019 0-0.5481-0.0288h-0.0385" stroke-linecap="round" stroke-linejoin="round"/><path d="m27.176 45.28c-0.7692 0.1058-1.2885 0.1058-1.2885 0.1058" stroke-linecap="round" stroke-linejoin="round"/><path d="m25.888 45.386s5.7692 0 7.6923-3.8462" stroke-linecap="round" stroke-linejoin="round"/><path d="m43.195 48.271s-0.9615 1.9231-0.9615 4.8077v5.7292c0 1.0842-0.8789 1.9631-1.9631 1.9631h-7.6122c-1.0842 0-1.9631-0.8789-1.9631-1.9631v-5.7292c0-2.8846-0.9615-4.8077-0.9615-4.8077" stroke-linecap="round"/><path d="m46.08 45.386s-5.7692 0-7.6923-3.8462" stroke-linecap="round" stroke-linejoin="round"/><path d="m26.723 45.314c-0.4196 0.0478-0.8461 0.0723-1.278 0.0723-6.125 0-11.096-4.9423-11.096-11.038 0-3.6552 1.7871-6.8941 4.5366-8.9045 0.8801-0.6435 1.4456-1.6121 1.7114-2.6694 1.7341-6.898 8.0083-12.003 15.473-12.003 7.5784 0 13.936 5.2744 15.544 12.341 0.2335 1.0259 0.8381 1.9071 1.6744 2.5454 2.634 2.0103 4.3295 5.1681 4.3295 8.7285 0 6.0769-4.9519 11-11.058 11-0.161 0-0.3212-0.0034-0.4805-0.0101"/><path d="m46.08 45.386s-0.2019 0-0.5481-0.0288h-0.0385" stroke-linecap="round" stroke-linejoin="round"/><path d="m27.176 45.28c-0.7692 0.1058-1.2885 0.1058-1.2885 0.1058" stroke-linecap="round" stroke-linejoin="round"/></g></svg>
