<?xml version="1.0" encoding="UTF-8"?>
<svg id="a" viewBox="0 0 72 72" xmlns="http://www.w3.org/2000/svg"><g id="b"><g id="c"><circle cx="36" cy="36" r="23" fill="#fcea2b"/></g><path d="M44.5416,46.2169a3.6376,3.6376,0,0,1-1.1052-2.5764c-.0405-3.2205,2.9651-6.34,3.0929-6.4712a.6891.6891,0,0,1,.9748-.0123c.1313.1281,3.2143,3.1713,3.2555,6.3924l0,0a3.6626,3.6626,0,0,1-6.2183,2.6673Z" fill="#92d3f5"/></g><g id="d"><circle cx="36" cy="36" r="23" fill="none" stroke="#000" stroke-linecap="round" stroke-linejoin="round" stroke-width="2"/><path d="m44.152 45.768a20.041 20.041 0 0 1-17.967-0.8385" fill="none" stroke="#000" stroke-linecap="round" stroke-linejoin="round" stroke-width="2"/><path d="m30 31a3 3 0 1 1-3-3 3.0011 3.0011 0 0 1 3 3"/><path d="m48 31a3 3 0 1 1-3-3 3.001 3.001 0 0 1 3 3"/><path d="M44.5416,46.2169a3.6376,3.6376,0,0,1-1.1052-2.5764c-.0405-3.2205,2.9651-6.34,3.0929-6.4712a.6891.6891,0,0,1,.9748-.0123c.1313.1281,3.2143,3.1713,3.2555,6.3924l0,0a3.6626,3.6626,0,0,1-6.2183,2.6673Z" fill="none" stroke="#000" stroke-miterlimit="10" stroke-width="2"/></g></svg>
