<?xml version="1.0" encoding="UTF-8"?>
<svg id="a" viewBox="0 0 72 72" xmlns="http://www.w3.org/2000/svg"><g id="b"><path d="M30,29l-3,2c-9.5,4.375-2,30-2,30s8.75-9.25,15.875-10.125S51.75,36.75,50,32l-2-4" fill="#9B9B9A" stroke="#9B9B9A" stroke-linecap="round" stroke-linejoin="round" stroke-miterlimit="10" stroke-width="1.8"/><path d="m30 30s-6.5-5.5-0.25-14.75c0 0-0.75-3.25-2.75-3.25s5-3 6 1c0 0 7-3 11 0 0 0 5.25-3.5 7.125-1.75 0 0-4.125 2.75-2.125 4.75s4 10-1 14" fill="#9B9B9A"/><path d="M40,30c0,0-10,0-10-7.875c0-8.7341,8.1907-4.7359,9-3.125c0,0,7-6,9.125,1.5C50.1834,27.7649,40,30,40,30z" fill="#A57939"/><path d="M25.0192,59c0,0-0.8782-7,1.9027-9S40,40,37,35" fill="#A57939"/></g><g id="c" fill="none" stroke="#000" stroke-linecap="round" stroke-linejoin="round" stroke-miterlimit="10"><path d="m37 22s0.5-1.5-3-2" stroke-width="1.5"/><path d="m41 22s-0.5-1.5 3-2" stroke-width="1.5"/><polyline points="37.625 25.43 39.375 27 41.375 25.344" stroke-width="1.5"/><path d="m38 60s1-4-5-3v-2.375" stroke-width="2"/><path d="m43 57.375s1-4-5-3v-2.375" stroke-width="2"/><path d="m30 30s-6.5-5.5-0.25-14.75c0 0-0.75-3.25-2.75-3.25s5-3 6 1c0 0 7-3 11 0 0 0 5.25-3.5 7.125-1.75 0 0-4.125 2.75-2.125 4.75s4 10-1 14" stroke-width="2"/><path d="M40,30c0,0-10,0-10-7.875c0-8.7341,8.1907-4.7359,9-3.125c0,0,7-6,9.125,1.5C50.1834,27.7649,40,30,40,30z" stroke-width="2"/><path d="M27,31c-9.5,4.375-2,30-2,30s8.75-9.25,15.875-10.125S51.75,36.75,50,32" stroke-width="2"/><path d="M25,59c0,0-0.75-7,1.625-9S37,41,36,35" stroke-width="2"/></g></svg>
