<?xml version="1.0" encoding="UTF-8"?>
<svg id="a" viewBox="0 0 72 72" xmlns="http://www.w3.org/2000/svg"><g id="b"><path d="m43.5 42.5c0 3.866-3.134 4-7 4s-7-0.134-7-4 3.134-7 7-7 7 3.134 7 7z" fill="#fff"/><path d="M25.2835,62.4614C29.1914,59.6942,32.9108,47.2868,32,45" fill="none" stroke="#fff" stroke-linecap="round" stroke-linejoin="round" stroke-miterlimit="10" stroke-width="2"/><path d="m32 58s3-7 2-13" fill="none" stroke="#fff" stroke-linecap="round" stroke-linejoin="round" stroke-miterlimit="10" stroke-width="2"/><path d="m37 45s1 9.5-1.7449 14.028c0 0 0.7449 5.0725 0.7449 6.3118" fill="none" stroke="#fff" stroke-linecap="round" stroke-linejoin="round" stroke-miterlimit="10" stroke-width="2"/><line x1="38" x2="38" y1="62" y2="47" fill="none" stroke="#fff" stroke-linecap="round" stroke-linejoin="round" stroke-miterlimit="10" stroke-width="2"/><path d="m38.741 45.652s5.0712 17.583 1.3744 22.184" fill="none" stroke="#fff" stroke-linecap="round" stroke-linejoin="round" stroke-miterlimit="10" stroke-width="2"/><line x1="40.116" x2="45.148" y1="45" y2="62" fill="none" stroke="#fff" stroke-linecap="round" stroke-linejoin="round" stroke-miterlimit="10" stroke-width="2"/><path d="m48.308 62.915c-2.276 0-7.1197-14.291-7.6003-15.915" fill="none" stroke="#fff" stroke-linecap="round" stroke-linejoin="round" stroke-miterlimit="10" stroke-width="2"/><rect x="31" y="44.385" width="11" height="11.615" fill="#fff"/><path d="m34.378 10c-5.79 12.998-4.5556 22.993-4.1231 25.429 0.0639 0.3599 0.3185 0.6466 0.6698 0.7476 1.4744 0.4242 5.7267 1.3672 10.864-0.0046 0.3743-0.1 0.6502-0.4197 0.6987-0.8041 0.37-2.934 1.4-15.664-6.1921-29.349-0.2941-0.5301-1.0076-0.6542-1.4644-0.2558-1.5776 1.3762-5.0568 4.4713-8.7078 8.1138-0.0849 0.0847-0.1513 0.1793-0.1999 0.2889-0.5165 1.1651-3.2432 8.174 4.0768 11.834" fill="#F4AA41" stroke="#F4AA41" stroke-miterlimit="10" stroke-width="2"/><path d="m41.47 22s5.5151-4.1668 2.7575-8.3336l-1.2444-2.1155c-0.0092-0.0156-0.0167-0.0306-0.0237-0.0476-0.9738-2.3709-2.8808-6.7063-5.6257-7.0033-1.4972-0.162-2.0674-0.0963-1.8384 0.3119l0.9192 1.6881" fill="#E27022" stroke="#E27022" stroke-miterlimit="10"/></g><g id="c"><path d="m32.688 49.688s0.3125 4.3125-1.6875 7.3125" fill="none" stroke="#000" stroke-linecap="round" stroke-linejoin="round" stroke-miterlimit="10" stroke-width="2"/><line x1="42" x2="43.812" y1="55" y2="62.5" fill="none" stroke="#000" stroke-linecap="round" stroke-linejoin="round" stroke-miterlimit="10" stroke-width="2"/><path d="m38 48s4 18 1 20" fill="none" stroke="#000" stroke-linecap="round" stroke-linejoin="round" stroke-miterlimit="10" stroke-width="2"/><line x1="37" x2="37" y1="58" y2="62" fill="none" stroke="#000" stroke-linecap="round" stroke-linejoin="round" stroke-miterlimit="10" stroke-width="2"/><path d="m36 48s-1 8-2 10 1 8 1 8" fill="none" stroke="#000" stroke-linecap="round" stroke-linejoin="round" stroke-miterlimit="10" stroke-width="2"/><circle cx="32.222" cy="42" r="1.2222"/><circle cx="40.778" cy="42" r="1.2222"/><path d="m34.378 10c-6.6815 15-4.0089 26-4.0089 26s5.3452 2 12.027 0c0 0 2.6726-15-6.6816-31 0 0-4.7147 4-9.7147 9 0 0-5.6816 6 1 10" fill="none" stroke="#000" stroke-linecap="round" stroke-linejoin="round" stroke-miterlimit="10" stroke-width="2"/><path d="m42 22s6-4 3-8l-4-6" fill="none" stroke="#000" stroke-linecap="round" stroke-linejoin="round" stroke-miterlimit="10" stroke-width="2"/><path d="M31.0625,37.3125c0,0-1.6875,4.0625-0.375,6.875C32,47,25,62,24,62" fill="none" stroke="#000" stroke-linecap="round" stroke-linejoin="round" stroke-miterlimit="10" stroke-width="2"/><path d="M42,37.3125c0,0,1.6875,4.0625,0.375,6.875S48.0625,62,49.0625,62" fill="none" stroke="#000" stroke-linecap="round" stroke-linejoin="round" stroke-miterlimit="10" stroke-width="2"/></g></svg>
