<?xml version="1.0" encoding="UTF-8"?>
<svg id="a" version="1.1" viewBox="0 0 72 72" xmlns="http://www.w3.org/2000/svg"><g id="b"><path d="m18.039 47.408c1.1226 1.0189 2.3391 1.9294 3.6331 2.7193 1.5566-1.1839 3.4138-1.908 5.361-2.09 6.209 5.0127 12.495 5.0127 18.7 0 1.5145 0.1121 2.9697 0.6354 4.2087 1.5136 1.0534-0.6931 2.0475-1.4724 2.972-2.33 1.1884-0.7148 3.125-8.2822 0.3916-13.025-0.4386-0.8534-0.8251-1.7326-1.1573-2.6328-1.4726-3.27-2.0234-4.4927-2.3486-10.524 0.0273-3.6929-3.794-6.7842-7.4746-7.0928-0.266-0.0182-0.5139-0.1418-0.6885-0.3433-0.0928-0.1-2.4082-2.6547-7.2432-2.6547-6.2 0-11.441 3.3818-12.743 8.226-0.534 2.0122-0.7248 4.1001-0.5645 6.1758 0.2039 2.019-0.0563 4.0578-0.7607 5.9609-0.2481 0.7561-0.6269 1.4627-1.1192 2.0879-3.7723 4.4196-0.9745 14.302-1.1668 14.009z" fill="#fcea2b"/></g><g id="c"><path d="m25.185 29.878v0.9912c0 7.9232 4.7298 14.131 10.769 14.131s10.769-6.2079 10.769-14.131c0-4.8198-1.8249-7.784-5.4224-11.533-2.9045 2.2482-5.9896 4.248-9.2235 5.9785-2.7158 1.5684-6.4186 3.697-6.8915 4.5629z" fill="#debb90"/></g><g id="d"><path d="m35.994 45c-2.7523 0-5.2888-1.2704-7.2341-3.4094l-15.368-0.0076c1.694 2.6777 4.6436 8.9425 5.1442 10.79h34.929c0.4994-1.8426 3.4345-8.0783 5.1306-10.768l-15.373-0.0076c-1.9446 2.1351-4.4793 3.4022-7.2289 3.4022z" fill="#3F3F3F"/><path d="m36 32.706c-0.4906 0.9134-2.9358 2.556-5.8905 2.566-2.4937 0.0084-5.3503-1.146-7.7007-4.8833-0.8499-1.3361-2.4223-5.0381-2.4223-8.0675 1.9916 6.7499 6.304 3.5056 10.637 3.5306 1.848 0.0107 3.6998 0.6161 5.3767 2.8456 1.6769-2.2294 3.5286-2.8349 5.3767-2.8456 4.3328-0.025 8.6452 3.2193 10.637-3.5306 0 3.0294-1.5724 6.7314-2.4223 8.0675-2.3504 3.7372-5.207 4.8917-7.7007 4.8833-2.9547-0.01-5.3999-1.6526-5.8905-2.566z" fill="#5C9E31"/><path d="m17 61v-4c0-4.9941 5.0078-9 10-9 6 5 12 5 18 0 4.9941 0 10 4.0059 10 9v4" fill="#B1CC33"/><path d="m47.392 61c-0.2717-1.0124-0.6203-3.1588-1.0429-4.118-1.0368-2.3375-2.4915-4.4662-4.2926-6.2814h-12.113c-1.8011 1.8152-3.2558 3.9439-4.2926 6.2814-0.4226 0.9592-0.7712 3.1056-1.0429 4.118" fill="#3F3F3F"/></g><g id="e"><path d="m54.78 40.776c0.2364-2.0235-0.0649-4.0736-0.8736-5.9435-2.4043-5.67-3.042-5.6425-3.4287-12.822-0.0322-4.1856-3.2362-7.6631-7.4052-8.0371 0 0-2.6-3-8-3-6.4317 0-12.23 3.4658-13.709 8.9658-1.5 5.583 0.3447 7.834-1.291 12.034-1.2173 3.1275-3.0181 6.0642-2.928 9.4371" fill="none" stroke="#000" stroke-linecap="round" stroke-linejoin="round" stroke-width="2"/><path d="m25.185 33.665c0.968 6.6309 5.4965 11.335 10.809 11.335 5.3363 0 9.8817-4.7461 10.822-11.424" fill="none" stroke="#000" stroke-linejoin="round" stroke-width="2"/><path d="m46.288 26.191c-0.9234-2.519-2.6619-4.665-5.2154-7.2185-2.117 2.117-7.282 4.8159-10.916 6.9" fill="none" stroke="#000" stroke-linecap="round" stroke-linejoin="round" stroke-width="2"/><path d="m39 38.973c-1.875-1-4.125-1-6 0" fill="none" stroke="#000" stroke-linecap="round" stroke-linejoin="round" stroke-width="2"/><path d="m42 29.973c0 1.1046-0.8954 2-2 2s-2-0.8954-2-2 0.8954-2 2-2 2 0.8954 2 2"/><path d="m34 29.973c0 1.1046-0.8954 2-2 2s-2-0.8954-2-2 0.8954-2 2-2 2 0.8954 2 2"/><path d="m28.773 41.605-15.382-0.0224c1.694 2.6777 4.6436 8.9425 5.1442 10.79" fill="none" stroke="#000" stroke-linecap="round" stroke-linejoin="round" stroke-width="2"/><path d="m20.55 53.667c1.0817-1.4077 2.4649-2.5554 4.048-3.3589 1.0422-0.5249 2.1568-0.8916 3.3071-1.088" fill="none" stroke="#000" stroke-linecap="round" stroke-miterlimit="10" stroke-width="2"/><path d="m29.208 49.707c-3.4125 1.1596-5.9768 4.0098-6.7705 7.5255" fill="none" stroke="#000" stroke-linecap="round" stroke-miterlimit="10" stroke-width="2"/><path d="m29.944 50.601c-1.8011 1.8152-3.2558 3.9439-4.2926 6.2814-0.4226 0.9592-0.7712 2.1056-1.0429 3.118" fill="none" stroke="#000" stroke-linecap="round" stroke-miterlimit="10" stroke-width="2"/><path d="m36 32.706c-0.4906 0.9134-2.9358 2.556-5.8905 2.566-2.4937 0.0084-5.3503-1.146-7.7007-4.8833-0.8499-1.3361-2.4223-5.0381-2.4223-8.0675 1.9916 6.7499 6.304 3.5056 10.637 3.5306 1.848 0.0107 3.6998 0.6161 5.3767 2.8456 1.6769-2.2294 3.5286-2.8349 5.3767-2.8456 4.3328-0.025 8.6452 3.2193 10.637-3.5306 0 3.0294-1.5724 6.7314-2.4223 8.0675-2.3504 3.7372-5.207 4.8917-7.7007 4.8833-2.9547-0.01-5.3999-1.6526-5.8905-2.566z" fill="none" stroke="#000" stroke-linejoin="round" stroke-width="2"/><path d="m17 60v-3c0-4.9941 5.0078-9 10-9 6 5 12 5 18 0 4.9941 0 10 4.0059 10 9v3" fill="none" stroke="#000" stroke-linecap="round" stroke-linejoin="round" stroke-width="2"/><path d="m53.465 52.373c0.5006-1.8474 3.4502-8.1122 5.1442-10.79l-15.382 0.0224" fill="none" stroke="#000" stroke-linecap="round" stroke-linejoin="round" stroke-width="2"/><path d="m44.095 49.22c1.1503 0.1964 2.2649 0.5631 3.3071 1.088 1.5831 0.8035 2.9663 1.9512 4.048 3.3589" fill="none" stroke="#000" stroke-linecap="round" stroke-miterlimit="10" stroke-width="2"/><path d="m49.562 57.232c-0.7937-3.5157-3.358-6.3659-6.7705-7.5255" fill="none" stroke="#000" stroke-linecap="round" stroke-miterlimit="10" stroke-width="2"/><path d="m47.392 60c-0.2717-1.0124-0.6203-2.1588-1.0429-3.118-1.0368-2.3375-2.4915-4.4662-4.2926-6.2814" fill="none" stroke="#000" stroke-linecap="round" stroke-miterlimit="10" stroke-width="2"/></g></svg>
