<?xml version="1.0" encoding="UTF-8"?>
<svg id="a" viewBox="0 0 72 72" xmlns="http://www.w3.org/2000/svg"><g id="b"><path d="m53.581 29.472a3.5128 3.5128 0 0 1-1 0.0729h-17.177a1.0029 1.0029 0 0 0-1 1v2.0076a1.0029 1.0029 0 0 0 1 1h21.184a1.0029 1.0029 0 0 0 1-1v-21.184a1.0029 1.0029 0 0 0-1-1h-2.0075a1.0029 1.0029 0 0 0-1 1v18.104z" fill="#a57939"/><path d="m41.306 33.552c-7.8 2.8289-8.5532 11.156-8.5532 11.156l-9.29 0.1483a14.883 14.883 0 0 1 1.9152 7.0546l10.81 0.1463v-0.1463a12.484 12.484 0 1 1 24.968 0c1.7835-10.7-3.5667-19.618-3.5667-19.618" fill="#ea5a47"/><circle cx="48.196" cy="50.8" r="6.2912" fill="#d0cfce"/><circle cx="15.176" cy="50.8" r="6.2912" fill="#d0cfce"/></g><g id="c" fill="none" stroke="#000" stroke-width="2"><path d="m23.697 45.719a10.944 10.944 0 0 1 1.6812 6.1928l10.81 0.1463v-0.1463a12.484 12.484 0 1 1 24.968 0c1.7835-10.7-3.5667-19.618-3.5667-19.618" stroke-linecap="round" stroke-linejoin="round"/><path d="m41.306 33.552c-7.8 2.8289-8.7086 12.14-8.7086 12.14l-4.079 0.0123" stroke-linecap="round" stroke-linejoin="round"/><circle cx="48.196" cy="50.8" r="6.2912" stroke-miterlimit="10"/><path d="m25.378 51.912a12.505 12.505 0 0 0-8.3441-11.724" stroke-linecap="round" stroke-linejoin="round"/><path d="m53.581 29.472a3.5128 3.5128 0 0 1-1 0.0729h-17.177a1.0029 1.0029 0 0 0-1 1v2.0076a1.0029 1.0029 0 0 0 1 1h21.184a1.0029 1.0029 0 0 0 1-1v-21.184a1.0029 1.0029 0 0 0-1-1h-2.0075a1.0029 1.0029 0 0 0-1 1v18.104z" stroke-linecap="round" stroke-linejoin="round"/><polyline points="21.275 42.528 30.619 20.544 34.405 20.581 37.301 20.61" stroke-linecap="round" stroke-linejoin="round"/><line x1="34.404" x2="34.404" y1="18.481" y2="20.581" stroke-linecap="round" stroke-linejoin="round"/><circle transform="translate(-1.1795 .3674) rotate(-1.3352)" cx="15.176" cy="50.799" r="6.2911" stroke-miterlimit="10"/></g></svg>
