<?xml version="1.0" encoding="UTF-8"?>
<svg id="a" viewBox="0 0 72 72" xmlns="http://www.w3.org/2000/svg"><g id="b"><path d="m46.094 29.814a8.0935 8.0935 0 0 0 1.231-5.1156c-0.3322-8.5131-6.5889-10.901-9.5933-13.478 4.1911 5.4922 5.9607 10.756 2.6157 20.854 0 0 3.3328 1.5065 5.7466-2.2605z" fill="#d0cfce"/></g><g id="c"><path d="m15.224 17.362c4.625-17.542 35.893-12.748 24.604 15.917-14.592 35.792-32.792 24.677-29.729 13" fill="#fadcbc"/></g><g id="d" fill="#debb90"><path d="m35.525 33.666c3.6637-21.878-14.562-17.239-16.006-11.677 3.9743-15.875 24.092-9.5924 16.006 11.677z"/><path d="M24,25.6855c4.4385,7,8.3371,13.9079,2.3371,16.6163-1.3969.5735-2.8765.4132-4.3824,1.1735-1.5343.7223-1.8192,1.3265-3.6385,3.2848-2.5625,2.0625-5.7708-1.5465-3.9583-3.6875,3.0729-3.3958,6.4479-3.9271,4.6667-7.2083-1.2187-2.2047.4957-5.0277,4.402-3.9027Z"/></g><g id="e"><g fill="none" stroke="#000" stroke-linecap="round" stroke-width="2"><path d="m50.45 18.001a20.313 20.313 0 0 1 1.2748 9.7546 13.674 13.674 0 0 1-0.5124 2.2184" stroke-miterlimit="10"/><path d="m54.665 15.012a27.885 27.885 0 0 1 1.6739 13.009 18.658 18.658 0 0 1-0.6573 2.9564" stroke-miterlimit="10"/><path d="m58.909 13.928a32.338 32.338 0 0 1 1.868 14.713 21.533 21.533 0 0 1-0.7184 3.3416" stroke-miterlimit="10"/><path d="m46.094 29.814a8.0935 8.0935 0 0 0 1.231-5.1156c-0.3322-8.5131-6.5889-10.901-9.5933-13.478 4.1911 5.4922 5.9607 10.756 2.6157 20.854 0 0 3.3328 1.5065 5.7466-2.2605z" stroke-linejoin="round"/><path d="m19.519 21.989c3.9744-15.875 24.833-10.258 15.24 11.118" stroke-linejoin="round"/><path d="m10.712 47.333c-3.0623 11.677 14.221 22.469 28.812-13.323 11.312-28.083-18.938-33.875-23.562-16.333 0 0-2.7758 9.8921 5.3911 14.051" stroke-linejoin="round"/><path d="M24.8373,26.0518c4.4386,7,7.5,13.5417,1.5,16.25-1.3969.5735-2.8765.4132-4.3824,1.1735-1.5343.7223-1.8192,1.3265-3.6385,3.2848-2.5625,2.0625-5.7708-1.5465-3.9583-3.6875" stroke-linejoin="round"/><circle cx="20.028" cy="35.552" r="4.0484" stroke-linejoin="round"/></g></g><g id="f"><circle cx="20.01" cy="35.494" r="3.0542" fill="#d0cfce"/></g></svg>
