<?xml version="1.0" encoding="UTF-8"?>
<svg id="a" viewBox="0 0 72 72" xmlns="http://www.w3.org/2000/svg"><g id="b"><path d="m23.392 28.232a14.932 14.932 0 0 0-1.4625 0.7992 15.273 15.273 0 0 0-7.2972 12.944c0 8.3124 8.3359 15.282 16.912 15.282h9.2294c8.5765 0 17.381-6.97 17.381-15.282a15.274 15.274 0 0 0-7.334-12.967c-0.1755-0.0913-0.5667-0.3017-1.0809-0.6-2.4494-1.42-7.57-5.2052-8.7459-9.1391h-9.1675c-0.5127 5.0859-9.1691 9.4064-9.8971 9.7612l-0.0713 0.0347" fill="#d0cfce"/><path d="M50.9321,29.0655s-.0408-.0206-.111-.0571q-.5271-.3212-1.0809-.6c-.1156-.0579-.2275-.1221-.3448-.1771" fill="#9b9b9a"/><path d="m31.336 21.273a58.169 58.169 0 0 0 1.7379-10.243 2.4549 2.4549 0 0 1 2.4622-2.255l0.9394 0.0014c1.6873 0 2.07 0.6932 2.4746 2.3313l2.4041 9.6 7.3393 15.926a13.751 13.751 0 0 1 2.0444 7.1994 14.369 14.369 0 0 1-14.578 14.15 14.369 14.369 0 0 1-14.579-14.149 13.725 13.725 0 0 1 1.4289-6.0771" fill="#fff"/></g><g id="c" fill="none" stroke="#000" stroke-width="1.9591"><path d="m23.01 37.756a14.026 14.026 0 0 1 1.2417-2.068" stroke-miterlimit="10"/><path d="m31.336 21.273a58.032 58.032 0 0 0 1.7543-10.475 2.1554 2.1554 0 0 1 2.1465-2.023l1.2387 0.0018c1.6873 0 2.07 0.6932 2.4746 2.3313l2.1765 8.6043 0.2262 0.8738a4.8279 4.8279 0 0 0 0.1879 0.527l6.7209 14.584c1.0973 2.1763 2.4763 5.5042 2.4763 8.1365a14.369 14.369 0 0 1-14.578 14.149 14.369 14.369 0 0 1-14.579-14.149 13.725 13.725 0 0 1 1.4289-6.0771" stroke-linejoin="round"/><path d="M31.2916,21.4349s.0178-.0633.0447-.1622" stroke-miterlimit="10"/><path d="M31.3363,21.2727c.0809-.2806.1537-.5528.2086-.8065" stroke-miterlimit="10"/><path d="M22.9327,37.8805s.0266-.0428.0768-.1243" stroke-miterlimit="10"/><path d="m24.251 35.688c2.0515-3.479 5.8961-10.293 7.0851-14.416" stroke-miterlimit="10"/><path d="M23.01,37.7562c.1728-.2813.6271-1.0255,1.2417-2.068" stroke-miterlimit="10"/><path d="M31.8268,19.27c-.5127,5.0859-9.1691,9.4064-9.8971,9.7612l-.0713.0347" stroke-miterlimit="10"/><path d="M41.0122,57.18c8.364-.3419,17.1429-7.1037,17.1429-15.2047a15.2738,15.2738,0,0,0-7.334-12.9666c-.1755-.0913-.5667-.3017-1.0809-.6-2.4494-1.42-7.8942-5.005-8.72-9.1391l-.027-.1064" stroke-miterlimit="10"/><path d="m23.392 28.232a14.932 14.932 0 0 0-1.4625 0.7992 15.273 15.273 0 0 0-7.2972 12.944c0 7.9861 8.7026 14.765 16.912 15.282" stroke-miterlimit="10"/><path d="M50.9321,29.0655s-.0408-.0206-.111-.0571q-.5271-.3212-1.0809-.6c-.1156-.0579-.2425-.1624-.4111-.2423" stroke-miterlimit="10"/><line x1="32.316" x2="30.537" y1="57.982" y2="62.754" stroke-linecap="round" stroke-miterlimit="10"/><line x1="36.584" x2="36.462" y1="58.378" y2="62.429" stroke-linecap="round" stroke-miterlimit="10"/><line x1="40.523" x2="42.336" y1="57.989" y2="62.748" stroke-linecap="round" stroke-miterlimit="10"/></g></svg>
