<?xml version="1.0" encoding="UTF-8"?>
<svg id="a" viewBox="0 0 72 72" xmlns="http://www.w3.org/2000/svg"><g id="b"><polyline points="19.895 17 19 17 19 21 19 67 53 67 53 21 53 17 52.105 17" fill="#f4aa41"/><path d="M27.7162,49.891a2.1678,2.1678,0,0,1-.4029-2.4062c-1.6843-3.3029-.6629-8.0165,2.7517-11.4312s8.1282-4.436,11.4312-2.7518a2.1747,2.1747,0,0,1,2.8828,2.8828c1.688,3.3068.6629,8.0165-2.7518,11.4312s-8.1244,4.44-11.4312,2.7518a2.1681,2.1681,0,0,1-2.4434-.4394l-.0364-.0372" fill="#fcea2b"/><path d="m41.378 47.547c-3.4152 3.4152-8.1253 4.44-11.433 2.7529 13.724 0 14.378-13.907 14.378-13.907 1.6909 3.3042 0.4665 7.7387-2.9449 11.154z" fill="#f4aa41"/><path d="m33.424 51.494a16.572 16.572 0 0 1-4.1366-1.1825l-0.9892-0.4077h1.6465c5.535 0 9.568-2.27 11.987-6.7456a17.793 17.793 0 0 0 1.9954-6.7838l0.07-1.4858 0.6778 1.3241c1.7663 3.4516 0.5819 8.0105-3.0175 11.614a11.947 11.947 0 0 1-8.2337 3.6675zm-1.395-0.9112a10.627 10.627 0 0 0 9.0691-3.3158c2.8038-2.8073 4.0589-6.3314 3.4028-9.2245-0.6446 3.5009-3.1334 11.5-12.472 12.54z" fill="#f4aa41"/><path d="m43.912 33.654a5.77 5.77 0 0 1 0.3828 2.8624l-1.6226-1.6226 1.24-1.24" fill="#f4aa41"/><path d="m27.771 50.36a5.77 5.77 0 0 0 2.8868-0.0817l-1.8621-1.3413-1.0247 1.423" fill="#f4aa41"/></g><g id="c" fill="none" stroke="#000" stroke-linecap="round" stroke-width="2"><line x1="23" x2="49" y1="17" y2="17" stroke-linejoin="round"/><line x1="19" x2="53" y1="28" y2="28" stroke-linejoin="round"/><line x1="19" x2="53" y1="56" y2="56" stroke-linejoin="round"/><polyline points="19.895 17 19 17 19 21 19 67 53 67 53 21 53 17 52.105 17" stroke-linejoin="round"/><path d="M40,14l2.7655-4.9779A7.82,7.82,0,0,1,49.6011,5H60" stroke-linejoin="round"/><path d="M27.7162,49.891a2.1678,2.1678,0,0,1-.4029-2.4062c-1.6843-3.3029-.6629-8.0165,2.7517-11.4312s8.1282-4.436,11.4312-2.7518a2.1747,2.1747,0,0,1,2.8828,2.8828c1.688,3.3068.6629,8.0165-2.7518,11.4312s-8.1244,4.44-11.4312,2.7518a2.1681,2.1681,0,0,1-2.4434-.4394l-.0364-.0372" stroke-miterlimit="10"/></g></svg>
