<?xml version="1.0" encoding="UTF-8"?>
<svg id="a" viewBox="0 0 72 72" xmlns="http://www.w3.org/2000/svg"><g id="b"><circle cx="36.366" cy="28.349" r="10" fill="#e67a94"/><path d="m35.185 17.206c-5.8765 0.5287-10.516 6.6407-10.516 14.121 0 7.8277 5.0764 14.173 11.339 14.173s11.339-6.3456 11.339-14.173a17.259 17.259 0 0 0-0.7674-5.0941 9.9175 9.9175 0 0 1-11.394-9.0271z" fill="#b1cc33"/><path d="m54.946 60.958s2-12.603-10-12.603c-3.1918 2.128-5.9264 3.5985-9 3.5922h0.125c-3.0736 0.0063-5.8081-1.4642-9-3.5922-12 0-10 12.603-10 12.603" fill="#b1cc33"/><path d="M46.362,48.3253l-.9075.8851a15.6367,15.6367,0,0,1-5.3451,5.81L38.1065,60.765l-2-4.5853c-3.337.02-6.674-2.2824-9.3481-6.9693l-.55-.9118c-10.9306.6777-9.0393,12.6875-9.0393,12.6875l3.1531-.007,2.0839-4.7825,1.5287,4.8108,31.18-.05" fill="#d0cfce"/><path d="m32.008 38.348s8-3.11 8 0c0 6.2422-8 0-8 0z" fill="#fcea2b"/><path d="M42.5157,52.7743c6.4062,1.661,6.5337,5.0343,7.1339,8.1842h5.1128s1.8925-11.904-9.05-12.5747q-.46-.0282-.95-.0285" fill="#9b9b9a"/><path d="M30.0082,29.9816v2.041a2.1088,2.1088,0,0,0,1.7064,2.1339,2.0016,2.0016,0,0,0,2.2936-1.9791V29.9816a.0571.0571,0,0,0-.0571-.0571H30.0653A.057.057,0,0,0,30.0082,29.9816Z" fill="#5c9e31"/><path d="m38.008 29.924v2.2529a2 2 0 0 0 4 0v-2.2529z" fill="#5c9e31"/><path d="m42.008 29.966a2 2 0 1 1-2-2 2.0007 2.0007 0 0 1 2 2" fill="#fff"/><path d="m34.008 29.966a2 2 0 1 1-2-2 2.0007 2.0007 0 0 1 2 2" fill="#fff"/><path d="m53.052 51.442s6.0211-3.94 3.7911-8.3254c-1.865-3.6679-3.05-2.9718-5.5723-6.6808 0 0 4.5573 0.7879 4.9282-3.0695 0 0-4.1419-0.5987-4.5869-2.6015 2.032 0.3261 0.315-14.02-6.6162-6.9837 0.2355-1.2222 8.9306 17.787-7.1192 21.454-15.393 3.5166-17.053-28.186-2.3575-28.141l2.7526 1.31c0.609-0.5622 1.5694-2.5768 0.5622-4.0525-1.4611-2.1406-6.4019-3.4788-13.79 0.6178-2.8847-0.8727-7.5511 13.448-10.459 13.872 0 0 2.5221 3.4864 5.5634 1.3352 0 0-0.0313 1.2369-3.7089 8.3082-4.4193 8.4972 4.9328 11.965 4.1292 11.917 0 0 5.2327-3.6286 6.9235-2.8668 2.3857 1.0749 8.0418 8.8 17.432 0.0742-4e-4 4e-4 6.7751 1.079 8.1279 3.8336z" fill="#3f3f3f"/></g><g id="c"><path d="m35.185 17.206c-5.8765 0.5287-10.516 6.6407-10.516 14.121 0 7.8277 5.0764 14.173 11.339 14.173s11.339-6.3456 11.339-14.173a17.259 17.259 0 0 0-0.7674-5.0941 9.9175 9.9175 0 0 1-11.394-9.0271z" fill="none" stroke="#000" stroke-linecap="round" stroke-linejoin="round" stroke-width="2"/><path d="M45.3916,25.3133a2,2,0,0,0-1.3286-2.18,1.9753,1.9753,0,0,0,.3775-.8915,1.9931,1.9931,0,0,0-2.79-2.1141,1.9923,1.9923,0,0,0-3.3909-1.3058,1.9922,1.9922,0,0,0-2.7713-.4814" fill="none" stroke="#000" stroke-linecap="round" stroke-linejoin="round" stroke-width="2"/><path d="M35.1853,17.2058q.0408.48.1262.9464A9.9978,9.9978,0,0,0,44.7328,26.34q.2037.0082.4093.0082a10.0162,10.0162,0,0,0,1.4372-.1149" fill="none" stroke="#000" stroke-linecap="round" stroke-linejoin="round" stroke-width="2"/><path d="m32.008 38.348s8-3.11 8 0c0 6.2422-8 0-8 0z" fill="none" stroke="#000" stroke-linecap="round" stroke-linejoin="round" stroke-width="2"/><line x1="39.441" x2="35.142" y1="40.064" y2="40.064" fill="none" stroke="#000" stroke-linecap="round" stroke-linejoin="round" stroke-width="2"/><line x1="36.952" x2="36.952" y1="40.064" y2="37.139" fill="none" stroke="#000" stroke-linecap="round" stroke-linejoin="round" stroke-width="1.5"/><path d="m26.66 48.974c2.6741 4.6869 6.0111 6.99 9.3481 6.9693l2 4.0183 2.0029-5.1777a15.638 15.638 0 0 0 5.3451-5.81" fill="none" stroke="#000" stroke-linecap="round" stroke-linejoin="round" stroke-width="2"/><line x1="43.558" x2="42.802" y1="57.289" y2="59.952" fill="none" stroke="#000" stroke-linecap="round" stroke-linejoin="round" stroke-width="2"/><polyline points="20.224 59.92 22.308 56.357 23.836 59.92" fill="none" stroke="#000" stroke-linecap="round" stroke-linejoin="round" stroke-width="2"/><path d="m55.008 60.966a1 1 0 0 1-1-1v-3c0-4.4517-4.4961-7.81-8.6518-7.9922-6.2051 5.0117-12.491 5.0117-18.696 0-4.1558 0.1817-8.6519 3.5405-8.6519 7.9922v3a1 1 0 0 1-2 0v-3c0-5.3247 5.14-9.9976 11-10a0.9994 0.9994 0 0 1 0.64 0.2319c5.625 4.6875 11.095 4.6875 16.72 0a0.9994 0.9994 0 0 1 0.64-0.2319c5.8594 0.0024 11 4.6753 11 10v3a1 1 0 0 1-1 1z"/><path d="m42.008 29.966a2 2 0 1 1-2-2 2.0007 2.0007 0 0 1 2 2" fill="none" stroke="#000" stroke-miterlimit="10" stroke-width="1.5"/><path d="m34.008 29.966a2 2 0 1 1-2-2 2.0007 2.0007 0 0 1 2 2" fill="none" stroke="#000" stroke-miterlimit="10" stroke-width="1.5"/><path d="M48.5353,22.8288c5.0381.18,3.4578,6.7348,3.03,7.2054a4.4742,4.4742,0,0,0,4.6831,2.5273c-.3149,3.5538-3.68,3.2945-4.7574,3.2707a9.3964,9.3964,0,0,0,2.899,4.6831,5.02,5.02,0,0,1,.5947,7.7308" fill="none" stroke="#000" stroke-linecap="round" stroke-linejoin="round" stroke-width="2"/><path d="M18.1522,47.2228c-3.1087-2.9376-3.6951-8.0927-.2186-11.1464a7.2646,7.2646,0,0,0,2.1143-5.2045c-2.6565,1.2469-5.1757-.6366-5.9093-1.6807,1.5855-.3927,4.1821-3.7919,4.6165-5.89,1.48-5.5,5.1875-9.769,11.5628-10.6191,4.2819-.5709,6.484.4078,7.6666,2.1614" fill="none" stroke="#000" stroke-linecap="round" stroke-linejoin="round" stroke-width="2"/></g></svg>
