<?xml version="1.0" encoding="UTF-8"?>
<svg id="a" viewBox="0 0 72 72" xmlns="http://www.w3.org/2000/svg"><g id="b"><path d="m33.892 59.467 10.457-8.4561 8.0469 3.77s-8.8184 11.164-18.504 4.6861z" fill="#61b2e4"/><path d="M26.8566,51.72a3.3641,3.3641,0,0,0,2.6313-2.9073c.4863-2.61,3.8554,2.7655,4.9433-1.6475,0,0,6.9443,1.4932,6.043-2.1972l4.1064,5.1758s-1.6572,4.1552-5.8935,3.1132c0,0,1.43,5.9-3.4453,4.23,0,0,.6464,1.8926-3.5469.1289Z" fill="#92d3f5"/><path d="m38.671 53.009a3.01 3.01 0 0 1-4.747 3.6083" fill="none" stroke="#92d3f5" stroke-linecap="round" stroke-miterlimit="10" stroke-width="2"/><path d="m43.423 49.399a3.013 3.013 0 0 1-4.752 3.61" fill="none" stroke="#92d3f5" stroke-linecap="round" stroke-miterlimit="10" stroke-width="2"/><path d="M30.1518,49.285c.3577,1.373.0874,2.6924-1.231,3.1289-1.32.4394-1.5046-1.0342-1.8633-2.4092" fill="none" stroke="#61b2e4" stroke-linecap="round" stroke-miterlimit="10" stroke-width="2"/><path d="m35.519 47.699a2.8159 2.8159 0 0 1-5.3857 1.586" fill="none" stroke="#61b2e4" stroke-linecap="round" stroke-miterlimit="10" stroke-width="2"/><path d="m40.907 46.111a2.8173 2.8173 0 0 1-5.3877 1.5878" fill="none" stroke="#61b2e4" stroke-linecap="round" stroke-miterlimit="10" stroke-width="2"/><path d="M23.648,42.7137s.1152,2.5156,1.6465.3467c1.5332-2.169,5.8418,3.3535,8.6748-.2033,0,0,4.7705,2.3125,5.4932-1.416L41.4283,46.5s-2.3418,4.4248-5.7529,1.7061c0,0-1.6192,4.7137-5.35,1.1572,0,0-.3271,5.0761-4.664,1.1436Z" fill="#61b2e4"/><path d="m59.26 43.908c2.0088 0.9151-3.1621 9.8683-5.707 9.252s4.01-10.022 5.707-9.252z" fill="#92d3f5"/><path d="m53.767 53.939c-1.1386-2.3561 10.29-3.2656 10.771-1.4667 0.5712 2.1357-9.6309 3.8242-10.771 1.4668" fill="#92d3f5"/></g><g id="c" fill="#fadcbc"><path d="m36.345 16.634a4.7677 4.7677 0 1 1 0-6e-4z"/><path d="M24.7177,30.2908s-5.3072,7.4758-9.9654,6.8441l-.1582-2.9991s3.8691-.08,9.8711-8.292l12.3965-.6323s3.6318,1.3433,4.8964,6.6333c.7811,3.2721,1.3692,5.9449,2.1778,7.28a4.2952,4.2952,0,0,1,.5628,1.485c-.0774,1.5863-3.5014,2.128-4.1537-.4342-1.8155-2.3711-1.5271,2.6117-1.5271,2.6117l-14.5891.4518"/></g><g id="d" fill="none" stroke="#000" stroke-width="2"><path d="m15.237 34.359c7.3261-2.5691 6.3125-8.9961 10.883-8.9961h9.97c4.5713 0 5.7744 7.5483 7.4062 15.246" stroke-linecap="round" stroke-miterlimit="10"/><path d="m24.739 31.15-0.3877 9.8672a21.666 21.666 0 0 0 9.5635 17.805s7.6973 6.6094 19.438-5.5029" stroke-linecap="round" stroke-miterlimit="10"/><line x1="39.473" x2="37.208" y1="40.452" y2="31.15" stroke-linecap="round" stroke-miterlimit="10"/><path d="m53.236 53.456c-10.73 1.05-13.763-13.061-13.763-13.061" stroke-linecap="round" stroke-miterlimit="10"/><line x1="14.956" x2="14.956" y1="63.363" y2="11.363" stroke-linecap="round" stroke-linejoin="round"/><path d="m8.9566 16.368c0 3.8 2.6279 6.8818 5.87 6.8818s5.87-3.0815 5.87-6.8818l-0.2656-4.8907" stroke-linecap="round" stroke-miterlimit="10"/><path d="m20.697 16.368c0 3.8-2.6279 6.8818-5.87 6.8818s-5.87-3.0815-5.87-6.8818l0.2646-4.8907" stroke-linecap="round" stroke-miterlimit="10"/><path d="m53.43 53.185s-0.8555-7.0772 6.1426-9.6045" stroke-linecap="round" stroke-miterlimit="10"/><path d="m59.539 43.58s0.8574 7.0762-6.1406 9.6045" stroke-linecap="round" stroke-miterlimit="10"/><path d="m54.593 53.92s4.7549-5.3115 11.27-1.7168" stroke-linecap="round" stroke-miterlimit="10"/><path d="m65.84 52.178s-4.753 5.31-11.27 1.7158" stroke-linecap="round" stroke-miterlimit="10"/><path d="m39.533 40.86c0 1.4443-4.0068 2.624-8.5947 2.624-4.5918 0-6.5859-1.0635-6.5859-2.5078" stroke-linecap="round" stroke-miterlimit="10"/><path d="m36.194 16.644a4.6655 4.6655 0 1 1-4.6659-4.6651h9e-4a4.6657 4.6657 0 0 1 4.665 4.6651z" stroke-miterlimit="10"/></g></svg>
