<?xml version="1.0" encoding="UTF-8"?>
<svg id="a" viewBox="0 0 72 72" xmlns="http://www.w3.org/2000/svg"><g id="b"><path d="M45.511,50.67l.797,2.48-1.1339,4.9948L39.9928,63.82A23.9672,23.9672,0,0,0,54.93,59.7071s2-13-10-13c-3.1918,2.1279-5.9264,3.5984-9,3.5921h.125c-3.0736.0063-5.8081-1.4642-9-3.5921-12,0-10,13-10,13,9.9776,6.0208,14.368,3.708,28.1188-1.5619l.6171-3.5208-24.0677,1.35,5.3094-.9076" fill="#ffa7c0"/><path d="M54.9151,59.7071s2-13-10-13c-3.1919,2.1279-5.9264,3.5984-9,3.5921h.125c-3.0736.0063-5.8081-1.4642-9-3.5921-12,0-10,13-10,13" fill="#ffa7c0"/><path d="m45.197 46.707a18.013 18.013 0 0 1-8.9374 3.5885c13.062 0.4115 13.062 5.4115 13.825 9.4115h5.1128s1.9999-13-10-13z" fill="#e67a94"/><path d="m55.197 59.707s-11.756 9.0259-20.737 2.9629l10.714-4.5251 1.1339-4.9949s8.977-2.4637 8.8894 6.5571z" fill="#e67a94"/><ellipse cx="35.993" cy="30.207" rx="11.339" ry="14.173" fill="#ffa7c0"/><polygon points="45.174 58.145 40.762 59.977 40.762 54.731 45.791 54.731" fill="#fcea2b"/><path d="m36.297 12.766c-1.6576 0-3.0015-0.4749-3.0015-1.0607v-2.1215c0-0.5858 1.3439-1.0607 3.0015-1.0607 1.6577 0 3.0015 0.4749 3.0015 1.0607v2.1215c0 0.5858-1.3438 1.0607-3.0015 1.0607z" fill="#fcea2b"/><path d="m38.199 20.022c0.7609 2.2985 9.1149 1.9185 10.149 10.387 0 0 5.5792-18.162-12.286-17.272s-12.286 15.55-12.286 15.55c1.7657-8.2879 9.8525-5.3417 10.09-8.3093-1e-4 3e-4 1.6024-8.6058 4.3326-0.3558z" fill="#3f3f3f"/><ellipse cx="36.327" cy="7.6906" rx="4.2527" ry="2.2135" fill="#3f3f3f"/><path d="m35.874 24.874a2 2 0 0 1-2-2v-4a2 2 0 0 1 2-2 2 2 0 0 1 2 2v4a2 2 0 0 1-2 2z" fill="#fcea2b"/></g><g id="c"><path d="m39.993 63.82a23.967 23.967 0 0 0 14.937-4.1129s2-13-10-13c-3.1918 2.1279-5.9264 3.5984-9 3.5921h0.125c-3.0736 0.0063-5.8081-1.4642-9-3.5921-12 0-10 13-10 13 9.9776 6.0208 14.368 3.708 28.119-1.5619l0.6171-3.5208-24.068 1.35" fill="none" stroke="#000" stroke-linecap="round" stroke-linejoin="round" stroke-width="2"/><path d="M45.511,50.67l.797,2.48-1.1339,4.9948" fill="none" stroke="#000" stroke-linecap="round" stroke-linejoin="round" stroke-width="2"/><path d="m41.993 28.846a2 2 0 1 1-2-2 2.0007 2.0007 0 0 1 2 2"/><path d="m33.993 28.846a2 2 0 1 1-2-2 2.0007 2.0007 0 0 1 2 2"/><path d="m35.993 38.849a7.6528 7.6528 0 0 1-3.4473-0.8579 1 1 0 0 1 0.8946-1.7891 5.3772 5.3772 0 0 0 5.1054 0 1 1 0 0 1 0.8946 1.7891 7.6528 7.6528 0 0 1-3.4473 0.8579z"/><line x1="40.762" x2="40.762" y1="55.024" y2="59.773" fill="none" stroke="#000" stroke-linecap="round" stroke-linejoin="round" stroke-width="2"/><path d="m33.829 20.696c-2.9676 3.9172-8.2893 0.2-9.097 7.6924a17.83 17.83 0 0 0-0.0949 1.8417c0 7.8276 5.0765 14.173 11.339 14.173s11.339-6.3456 11.339-14.173a17.826 17.826 0 0 0-0.101-1.9c-1.4014-7.134-7.5085-4.5481-9.289-7.9906" fill="none" stroke="#000" stroke-linecap="round" stroke-linejoin="round" stroke-width="2"/><path d="M39.834,10.2366s3.7378-5.1462-3.5483-5.184l-.0316.0077c-7.2861.0378-3.5482,5.184-3.5482,5.184" fill="none" stroke="#000" stroke-linecap="round" stroke-linejoin="round" stroke-width="2"/><path d="m32.632 11.965c-1.1446-3.7662 8.4185-4.1724 7.2 0" fill="none" stroke="#000" stroke-linecap="round" stroke-linejoin="round" stroke-width="2"/><path d="m24.711 31.742c-6.1735-12.036 2.3604-18.882 11.309-18.882" fill="none" stroke="#000" stroke-linecap="round" stroke-linejoin="round" stroke-width="2"/><path d="m47.475 31.703c2.3653-1.4194 5.7753-18.526-11.249-18.843" fill="none" stroke="#000" stroke-linecap="round" stroke-linejoin="round" stroke-width="2"/><path d="m35.905 24.72h0a2 2 0 0 1-2-2v-4a2 2 0 0 1 2-2h0a2 2 0 0 1 2 2v4a2 2 0 0 1-2 2z" fill="none" stroke="#000" stroke-linecap="round" stroke-linejoin="round" stroke-width="2"/></g></svg>
