<?xml version="1.0" encoding="UTF-8"?>
<svg id="a" viewBox="0 0 72 72" xmlns="http://www.w3.org/2000/svg"><g id="b"><path d="M18,61v-4.1c0-5,3.8-9,8.8-9c6,5,12,5,18,0c5,0,9.2,4,9.2,9V61" fill="#92D3F5"/></g><g id="c"><path d="m26 40c-6 0-5-16-2-20 6-8 18-8 24 0 3 4 4 20-2 20" fill="#fcea2b"/></g><g id="d"><path d="M25,34c0,8,4.8,11.9,10.8,11.9S47,42,47,34c0-5.9-2.2-9.2-2.2-9.2c-2,0-5.8-3.5-5.8-3.5s-8.2,5.5-12.8,5.5 C26.2,26.8,25,28,25,34z" fill="#debb90"/></g><g id="e"><path d="m26 40c-6 0-5-16-2-20 6-8 18-8 24 0 3 4 4 20-2 20" fill="none" stroke="#000" stroke-linecap="round" stroke-linejoin="round" stroke-width="2"/><path d="m18 60v-3.1c0-5 3.8-9 8.8-9 6 5 12 5 18 0 5 0 9.2 4 9.2 9v3.1" fill="none" stroke="#000" stroke-linecap="round" stroke-linejoin="round" stroke-width="2"/><path d="m42 33c0 1.1-0.9 2-2 2s-2-0.9-2-2 0.9-2 2-2 2 0.9 2 2"/><path d="m34 33c0 1.1-0.9 2-2 2s-2-0.9-2-2 0.9-2 2-2 2 0.9 2 2"/><path d="M25,34c0,8,4.8,11.9,10.8,11.9S47,42,47,34 c0-5.9-2.2-9.2-2.2-9.2c-2,0-5.8-3.5-5.8-3.5s-8.2,5.5-12.8,5.5C26.2,26.8,25,28,25,34z" fill="none" stroke="#000" stroke-linejoin="round" stroke-width="2"/><path d="m32.8 39.2c1.9 1 4.1 1 6 0" fill="none" stroke="#000" stroke-linecap="round" stroke-linejoin="round" stroke-width="2"/></g></svg>
