<?xml version="1.0" encoding="UTF-8"?>
<svg id="a" viewBox="0 0 72 72" xmlns="http://www.w3.org/2000/svg"><g id="b"><g id="c" fill="#6a462f"><circle cx="41.226" cy="10.127" r="3"/><path d="m49.05 19.158-3.458-1.333-9.709-0.2085-3.416 4.458-0.542 4.2915-1.667 1.167-6.666-6.1665s-1.459 1.729-0.459 3.104 3.7881 5.3242 5.916 5.7285a4.1625 4.1625 0 0 0 4.375-1.416 13.916 13.916 0 0 0 1.834-5.75l-1.7 41h3.3l3.4-25h2l3.4 25h3.3l-1.7-41s2.694 16.691 3.682 18.116a1.3558 1.3558 0 0 0 2.3546 0.2476z"/></g></g><g id="d"><g fill="none" stroke="#000" stroke-width="2"><g id="e"><circle cx="41.226" cy="10.127" r="3" stroke-miterlimit="10"/><path d="m46.258 23.033 2.5684 39.004a1.7151 1.7151 0 0 1-1.5176 1.9961 2.1831 2.1831 0 0 1-1.92-1.9814l-2.8613-21.037c-0.1484-1.09-0.72-1.9814-1.27-1.9814s-1.1211 0.8916-1.2695 1.9814l-2.8609 21.037a2.1831 2.1831 0 0 1-1.92 1.9814 1.7151 1.7151 0 0 1-1.5176-1.9961l2.5684-39.004" stroke-linecap="round" stroke-linejoin="round"/><path d="m24.258 22.033 3.707 4.2373c1.8116 2.0693 3.6631 1.543 4.1153-1.1694l0.3554-2.1358c0.4522-2.7129 2.6221-5.1572 4.8223-5.4321a38.905 38.905 0 0 1 8 0c2.2 0.2749 4.37 2.7192 4.8223 5.4321l0.3554 2.1358c0.4522 2.7124 2.3794 13.644 2.593 15.724" stroke-linecap="round" stroke-linejoin="round"/></g><line x1="24.2" x2="19.735" y1="22.101" y2="61.672" stroke-linecap="round" stroke-miterlimit="10"/></g></g><g id="f"><line x1="22.362" x2="18.813" y1="21.698" y2="52.53" fill="none" stroke="#d0cfce" stroke-linecap="round" stroke-miterlimit="10" stroke-width="2"/><line x1="18.813" x2="17.737" y1="52.53" y2="62.092" fill="none" stroke="#d22f27" stroke-linecap="round" stroke-miterlimit="10" stroke-width="2"/><circle cx="17.737" cy="62.172" r="1.0973" fill="#d0cfce"/><line x1="22.362" x2="21.572" y1="21.698" y2="28.556" fill="none" stroke="#000" stroke-linecap="round" stroke-miterlimit="10" stroke-width="2"/></g></svg>
