<?xml version="1.0" encoding="UTF-8"?>
<svg id="a" viewBox="0 0 72 72" xmlns="http://www.w3.org/2000/svg"><g id="b"><path d="m44.75 28.119v35.881h-18.28v-35.881a8.9827 8.9827 0 0 1 5.93-8.7063 6.3683 6.3683 0 0 1 0.65-0.176h0.01a7.4867 7.4867 0 0 1 1.66-0.1868h1.78c4.56 0 8.25 4.0564 8.25 9.0691z" fill="#d22f27"/><path d="M38.33,26.723V64H26.47V28.1191a8.9827,8.9827,0,0,1,5.93-8.7063,6.3683,6.3683,0,0,1,.65-.176h.01a7.4867,7.4867,0,0,1,1.66-.1868h.15A9.844,9.844,0,0,1,38.33,26.723Z" fill="#ea5a47"/><rect x="33.518" y="9.9768" width="4.186" height="8.704" fill="#ea5a47"/><rect transform="translate(55.537 -26.917) rotate(90)" x="39.634" y="10.787" width="3.1867" height="7.0465" fill="#d0cfce"/><path d="M33.52,12.7167H28.8791a4.5108,4.5108,0,0,0-3.7455,1.9973L19.63,22.9146a1.5943,1.5943,0,0,0,.6751,2.34,1.6527,1.6527,0,0,0,2.0226-.6418l4.475-6.7034a4.5109,4.5109,0,0,1,3.7516-2.0062H33.52Z" fill="#d0cfce"/><polygon points="44.751 12.412 44.751 14.243 44.751 14.415 44.751 16.245 56.844 18.864 56.844 14.415 56.844 14.243 56.844 9.793" fill="#d0cfce"/><rect x="30.913" y="29.284" width="9.3953" height="5.6744" fill="#fff"/></g><g id="c" fill="none" stroke="#000" stroke-linecap="round" stroke-linejoin="round" stroke-width="2"><path d="M35.611,19.0521h0a9.14,9.14,0,0,1,9.14,9.14V63.1053a.8909.8909,0,0,1-.8909.8909H27.3624a.8909.8909,0,0,1-.8909-.8909V28.1916A9.14,9.14,0,0,1,35.611,19.0521Z"/><rect x="33.518" y="9.9768" width="4.186" height="8.704"/><rect transform="translate(55.537 -26.917) rotate(90)" x="39.634" y="10.787" width="3.1867" height="7.0465"/><path d="M33.52,12.7167H28.8791a4.5108,4.5108,0,0,0-3.7455,1.9973L19.63,22.9146a1.5943,1.5943,0,0,0,.6751,2.34,1.6527,1.6527,0,0,0,2.0226-.6418l4.475-6.7034a4.5109,4.5109,0,0,1,3.7516-2.0062H33.52Z"/><polygon points="44.751 12.412 44.751 14.243 44.751 14.415 44.751 16.245 56.844 18.864 56.844 14.415 56.844 14.243 56.844 9.793"/><rect x="30.913" y="29.284" width="9.3953" height="5.6744"/></g></svg>
