<?xml version="1.0" encoding="UTF-8"?>
<svg id="a" viewBox="0 0 72 72" xmlns="http://www.w3.org/2000/svg"><g id="b"><polyline points="33.2 33.2 48 24 38.8 38.8"/></g><g id="c"><circle cx="36" cy="36" r="24" fill="#fcea2b"/><path d="m53 19a24.042 24.042 0 0 1-17 41 24.302 24.302 0 0 1-17-7" fill="#f1b31c"/><polyline points="33.2 33.2 24 48 38.8 38.8" fill="#fff"/><polyline points="33.2 33.2 48 24 38.8 38.8" fill="#ea5a47"/></g><g id="d" fill="none" stroke="#000" stroke-linecap="round" stroke-linejoin="round" stroke-width="2"><circle cx="36" cy="36" r="24"/><polyline points="33.2 33.2 24 48 38.8 38.8"/><polyline points="33.2 33.2 48 24 38.8 38.8"/><line x1="36" x2="36" y1="21" y2="16"/><line x1="36" x2="36" y1="56" y2="51"/><line x1="51" x2="56" y1="36" y2="36"/><line x1="16" x2="21" y1="36" y2="36"/></g></svg>
