<?xml version="1.0" encoding="UTF-8"?>
<svg id="a" viewBox="0 0 72 72" xmlns="http://www.w3.org/2000/svg"><g id="b"><path id="c" d="m58.532 26.287c-0.7637-4.5368-5.5179-3.3408-6.6654-4.8738 0 0 1.5728-3.7014 0.79-6.2409-0.84-2.7235-4.5033-4.4717-5.0751-4.0175a20.754 20.754 0 0 1-11.608 4.017 20.754 20.754 0 0 1-11.608-4.017c-0.5718-0.4542-4.2353 1.294-5.0751 4.0175a8.2083 8.2083 0 0 0 0.1069 4.0978 2.65 2.65 0 0 1-1.9159 3.2084c-1.6963 0.422-3.6067 1.0736-4.067 3.8084-1.1975 7.1144 3.9252 8.4664 6.6654 8.8068 7.8862 0.98 23.885 0.8409 31.788 0 2.7457-0.292 7.8629-1.6923 6.6654-8.8067z" fill="#ea5a47"/><path id="d" d="M41.786,35.7819s7.049-.4124,7.4305-.4535a33.6533,33.6533,0,0,0,7.8259-1.8118c.0192-.0058,0,5.6384,0,5.6384-.1608,6.5671-.8528,16.53-.8528,16.53L42.8,57.1252s-.156-10.7842-.2307-17.1464c-.0015-.13-.7821-.834-.7836-.96Z" fill="#ea5a47"/><line id="e" x1="46.14" x2="46.14" y1="61.108" y2="55.093" fill="none" stroke="#ea5a47" stroke-linecap="round" stroke-linejoin="round" stroke-width="2"/><line id="f" x1="48.806" x2="48.806" y1="60.779" y2="54.765" fill="none" stroke="#ea5a47" stroke-linecap="round" stroke-linejoin="round" stroke-width="2"/><line id="g" x1="51.472" x2="51.472" y1="60.451" y2="54.437" fill="none" stroke="#ea5a47" stroke-linecap="round" stroke-linejoin="round" stroke-width="2"/><path id="h" d="m58.532 26.287c-1.11-4.4648-5.5179-3.3408-6.6654-4.8738 0 0 1.5728-3.7014 0.79-6.2409-0.84-2.7235-4.5033-4.4717-5.0751-4.0175a24.642 24.642 0 0 1-1.442 12.278s1.0507 7.1627-3.45 12.345c0 0 18.328 0.5115 15.842-9.4906z" fill="#d22f27"/><polygon id="i" points="57.042 33.517 51.088 56.159 55.616 55.585 57.042 37.575 57.042 33.517" fill="#d22f27"/></g><g id="j" fill="none" stroke="#000" stroke-width="2"><path id="k" d="M58.5325,26.2869c-.5538-3.29-3.2062-3.5652-5.06-4.0526a1.65,1.65,0,0,1-1.1647-2.0749,9.3069,9.3069,0,0,0,.3488-4.9872c-.84-2.7235-4.5033-4.4717-5.0751-4.0175a20.7541,20.7541,0,0,1-11.6084,4.017,20.7541,20.7541,0,0,1-11.6084-4.017c-.5718-.4542-4.2353,1.294-5.0751,4.0175a9.497,9.497,0,0,0,.394,5.1338,1.472,1.472,0,0,1-.9778,1.8647c-1.8562.533-4.7145.6862-5.2919,4.1162-1.1975,7.1144,3.9252,8.4664,6.6654,8.8068,7.8862.98,23.8853.8409,31.7876,0C54.6128,34.8016,59.73,33.4013,58.5325,26.2869Z" stroke-miterlimit="10"/><line id="l" x1="56.056" x2="56.056" y1="54.711" y2="37.337" stroke-linecap="round" stroke-linejoin="round"/><line id="m" x1="42.8" x2="42.8" y1="56.118" y2="38.743" stroke-linecap="round" stroke-linejoin="round"/><line id="n" x1="52.219" x2="52.219" y1="59.979" y2="53.965" stroke-linecap="round" stroke-linejoin="round"/><line id="o" x1="49.553" x2="49.553" y1="60.308" y2="54.293" stroke-linecap="round" stroke-linejoin="round"/><line id="p" x1="46.887" x2="46.887" y1="60.636" y2="54.621" stroke-linecap="round" stroke-linejoin="round"/><path id="q" d="m22.98 23.431c3.7066 1.6744 7.5693 2.1755 12.993 2.1755a25.135 25.135 0 0 0 7.1648-1.0878" stroke-linecap="round" stroke-miterlimit="10"/></g></svg>
