<?xml version="1.0" encoding="UTF-8"?>
<svg id="a" viewBox="0 0 72 72" xmlns="http://www.w3.org/2000/svg"><g id="b" fill="#a57939"><polygon points="36 35.129 17.213 35.084 22.09 58.34 36 58.34 49.91 58.34 54.787 35.084"/><polygon points="15.092 27.478 15.092 35.15 56.608 35.15 57.357 27.478"/><path d="m31.675 32.298-9.1893-14.738c-1.1159-1.79-0.83-3.9827 0.638-4.8982 1.4682-0.9156 3.5631-0.207 4.6791 1.5827l11.133 18.053z"/></g><g id="c"><polygon points="36 35.129 17.213 35.084 22.09 58.34 36 58.34 49.91 58.34 54.787 35.084" fill="none" stroke="#000" stroke-linecap="round" stroke-linejoin="round" stroke-width="2"/><path d="M31.6746,32.2975,22.4853,17.56c-1.1159-1.79-.83-3.9827.638-4.8982h0c1.4682-.9156,3.5631-.207,4.6791,1.5827L38.9357,32.2975Z" fill="none" stroke="#000" stroke-linecap="round" stroke-linejoin="round" stroke-width="2"/><g fill="none" stroke="#000" stroke-linecap="round" stroke-linejoin="round" stroke-width="2"><line x1="39.176" x2="47.888" y1="37.792" y2="47.37"/><line x1="28.915" x2="44.735" y1="37.65" y2="55.264"/><line x1="23.845" x2="36.383" y1="41.502" y2="55.7"/><line x1="25.283" x2="26.667" y1="54.099" y2="55.478"/><line x1="24.564" x2="32.575" y1="46.465" y2="37.792"/><line x1="26.876" x2="43.394" y1="55.352" y2="37.792"/><line x1="36.383" x2="48.445" y1="55.7" y2="43.216"/><line x1="44.735" x2="46.896" y1="55.264" y2="53.442"/></g><circle cx="33.874" cy="29.837" r=".8858"/><polyline points="36.383 27.427 57.357 27.427 57.357 35.092 14.643 35.092 14.643 27.427 27.849 27.427" fill="none" stroke="#000" stroke-linecap="round" stroke-linejoin="round" stroke-width="2"/></g></svg>
