<?xml version="1.0" encoding="UTF-8"?>
<svg id="a" viewBox="0 0 72 72" xmlns="http://www.w3.org/2000/svg"><g id="b" fill="#61b2e4"><path d="m37.809 65.826c0-2.3872-1.0786-4.3224-2.4092-4.3224s-2.4092 1.9352-2.4092 4.3224h4.8184z"/><path d="M46.31,26.29c-.52,.18-1.09-.1-1.27-.63l-.27-.81-6.88,2.38-1.89,.66-.65-1.89-5.5699-16.11c-.1801-.52,.1-1.09,.62-1.27,.52-.18,1.09,.1,1.27,.62l5.57,16.1,7.83-2.71c.25-.09,.53-.07,.77,.05,.24,.12,.42,.32,.5099,.58l.59,1.77c.18,.52-.1,1.09-.63,1.2599Z"/><path transform="translate(-1.5403 12.043) rotate(-19.022)" d="m29.364 6.8332h7.8265c2.089 0 3.7849 1.696 3.7849 3.7849 0 2.089-1.696 3.7849-3.7849 3.7849h-7.8265v-7.5698z"/></g><g id="c" fill="none" stroke="#000" stroke-width="2"><line x1="35.399" x2="35.399" y1="29.098" y2="61.504" stroke-miterlimit="10"/><path d="m37.809 65.826c0-2.3872-1.0786-4.3224-2.4092-4.3224s-2.4092 1.9352-2.4092 4.3224h4.8184z" stroke-linecap="round" stroke-linejoin="round"/><path transform="translate(-1.5403 12.043) rotate(-19.022)" d="m29.364 6.8332h7.8265c2.089 0 3.7849 1.696 3.7849 3.7849h0c0 2.089-1.696 3.7849-3.7849 3.7849h-7.8265v-7.5698h0z" stroke-linecap="round" stroke-linejoin="round"/><polyline points="45.993 25.44 35.41 29.098 28.448 8.9541" stroke-linecap="round" stroke-linejoin="round"/></g></svg>
