<?xml version="1.0" encoding="UTF-8"?>
<svg id="a" viewBox="0 0 72 72" xmlns="http://www.w3.org/2000/svg"><g id="b"><path d="m28.349 64.055a14.185 14.185 0 0 1-9.08-25.083 1 1 0 0 1 1.6318 0.8994c-0.7138 5.3779 5.1221 9.1143 5.1817 9.1514a1.0006 1.0006 0 0 1-0.5313 1.8476h-4.5733a7.438 7.438 0 0 0 14.809-1v-26.87a8.91 8.91 0 1 1 6.747 0.2344v26.636a14.201 14.201 0 0 1-14.184 14.185zm11.096-51.336a2.1643 2.1643 0 1 0 2.164 2.164 2.1664 2.1664 0 0 0-2.164-2.164z" fill="#9b9b9a"/></g><g id="c"><path d="m25.551 49.87s-6.4505-4.0285-5.64-10.13l-0.0011-5e-4a13.185 13.185 0 1 0 21.624 10.13v-27.364a7.9115 7.9115 0 1 0-4.7465-0.18v27.544a8.4382 8.4382 0 1 1-16.876 0h0.8339m20.553-32.421a3.1645 3.1645 0 1 1 1.3123-2.566" fill="none" stroke="#000" stroke-linecap="round" stroke-linejoin="round" stroke-width="2"/></g></svg>
