<?xml version="1.0" encoding="UTF-8"?>
<svg id="a" viewBox="0 0 72 72" xmlns="http://www.w3.org/2000/svg"><g id="b"><path d="m17.706 53.518a2.6421 2.6421 0 0 1-1.875-0.7744l-0.043-0.042a2.666 2.666 0 0 1-0.0117-3.7686l17.633-16.574 8.33-5.0088 10.038-10.062a2.6926 2.6926 0 0 1 3.8126 3.8027l-10.796 10.787-8.1836 5.14-17.05 15.746a2.61 2.61 0 0 1-1.85 0.7529z" fill="#92d3f5"/><path d="M42.7,28.6167a1,1,0,0,1-.7031-.2891L37.0205,23.35a.9883.9883,0,0,1-.18-.2412,2.9024,2.9024,0,0,1-.12-2.6718,2.398,2.398,0,0,1,2.2491-1.04,1.2056,1.2056,0,0,0,.8779-.2373.8234.8234,0,0,0,.0879-.5869,2.9549,2.9549,0,0,1,.5859-2.3809,2.8473,2.8473,0,0,1,2.4239-.8486c.7861.0352,1.0175-.34,1.082-.6943a2.8273,2.8273,0,0,1,.9023-2.3028,2.4079,2.4079,0,0,1,2.4268-.1865,1.0052,1.0052,0,0,1,.3584.2276l4.9767,4.9778a1,1,0,0,1,.0137,1.4082l-9.2881,9.541a1.0015,1.0015,0,0,1-.707.3028Z" fill="#fff"/></g><g id="c" fill="none" stroke="#000" stroke-linecap="round" stroke-miterlimit="10" stroke-width="2"><path d="M22.2733,48.8968,18.8813,52.03a1.66,1.66,0,0,1-2.3473.0029l-.0464-.0463a1.66,1.66,0,0,1-.0029-2.3473l17.44-16.4231,8.4353-5.0721,10.125-10.15a1.66,1.66,0,0,1,2.3473-.0029l.0464.0464a1.66,1.66,0,0,1,.0029,2.3472L44.2614,31.0312,36,36.2194,25.2054,46.256"/><line x1="42.994" x2="44.071" y1="21.404" y2="22.481"/><line x1="45.631" x2="46.708" y1="18.767" y2="19.844"/><path d="m40.919 25.834-3.1877-3.1877s-1.1923-2.2415 1.2458-2.2415 1.9419-2.0462 1.9419-2.0462a1.6659 1.6659 0 0 1 1.9763-2.01 1.8756 1.8756 0 0 0 2.144-1.65s-0.2173-2.3987 1.98-1.5939l3.1877 3.1877"/></g></svg>
