<?xml version="1.0" encoding="UTF-8"?>
<svg id="a" viewBox="0 0 72 72" xmlns="http://www.w3.org/2000/svg"><g id="b"><path d="m11.59 31.688c0-6.7958 10.928-12.305 24.41-12.305s24.41 5.509 24.41 12.305v1.0556c0 5.6918-2.0093 12.49-5.0625 16.344-3.0887 3.8978-9.5935 6.1539-19.348 6.1539s-15.854-1.8262-19.347-6.1539c-3.0884-3.8263-5.0625-9.6808-5.0625-16.344z" fill="#a57939"/><path d="m56.616 47.215c0 2.1079-7.3333 8.027-17.631 8.027s-18.645-1.7089-18.645-3.8168 7.4581 0.6442 19.391-1.3738c10.154-1.7171 16.885-4.9443 16.885-2.8364z" fill="#6a462f"/><ellipse cx="36" cy="33.754" rx="17.341" ry="7.0837" fill="#6a462f"/></g><g id="c"><path d="m23.156 36.808c0-1.6922 5.7726-4.0639 12.844-4.0639 7.0163 0 12.844 2.3717 12.844 4.0639" fill="none" stroke="#000" stroke-linecap="round" stroke-linejoin="round" stroke-width="2"/><path d="m52.324 33.688c0 3.8911-7.3087 7.0454-16.324 7.0454s-16.324-3.1543-16.324-7.0454" fill="none" stroke="#000" stroke-linecap="round" stroke-linejoin="round" stroke-width="2"/><path d="m53.302 42.529c-1.5841 2.241-5.687 4.008-10.885 4.6863" fill="none" stroke="#000" stroke-linecap="round" stroke-linejoin="round" stroke-width="2"/><path d="m36 24.643a28.571 28.571 0 0 1 12.474 2.5" fill="none" stroke="#000" stroke-linecap="round" stroke-linejoin="round" stroke-width="2"/><path d="m11.59 31.688c0-6.7958 10.928-12.305 24.41-12.305s24.41 5.509 24.41 12.305v1.0556c0 5.6918-2.0093 12.49-5.0625 16.344-3.0887 3.8978-9.5935 6.1539-19.348 6.1539s-15.854-1.8262-19.347-6.1539c-3.0884-3.8263-5.0625-9.6808-5.0625-16.344z" fill="none" stroke="#000" stroke-linecap="round" stroke-linejoin="round" stroke-width="2"/><ellipse cx="36.188" cy="36.923" rx="13.031" ry="4.1791"/></g></svg>
