<?xml version="1.0" encoding="UTF-8"?>
<svg id="a" viewBox="0 0 72 72" xmlns="http://www.w3.org/2000/svg"><g id="b"><polygon points="31.44 14.337 31.442 4.5942 34.557 7.2462 35.972 3.7002 37.441 7.1092 40.285 4.5942 40.285 14.337" fill="#fcea2b"/><path d="m17 61v-4c0-4.9941 5.0078-9 10-9 6 5 12 5 18 0 4.9941 0 10 4.0059 10 9v4" fill="#92d3f5"/></g><g id="c"><path d="m24.936 31c0 9 4.9365 14 11 14 5.9365 0 11.064-5 11.064-14 0.0245-1.7187-0.3164-3.4229-1-5-3-3-7-8-7-8-4 3-7 6-13 7 0 0-1.0635 1-1.0635 6z" fill="#fadcbc"/></g><g id="d"><path d="m31.44 11.585c-6.6762 1.8646-9.44 7.899-9.44 13.933 0 7.2593 0 13.482 4 13.482l-0.7854-5.7856 0.5528-7.7389 8.43-4.0077 5.2515-2.9712 6.5511 7.5034 0.9772 6-0.9772 7c4 0 4-6.2222 4-13.482 0-6.1163-2.84-12.233-9.715-14.007v2.8257h-8.845v-2.7518z" fill="#a57939"/></g><g id="e"><path d="m44.097 14.089c4.1315 2.5955 5.9026 7.2534 5.9026 11.911 0 7 0 13-4 13" fill="none" stroke="#000" stroke-linecap="round" stroke-linejoin="round" stroke-width="2"/><path d="m26 39c-4 0-4-6-4-13 0-4.6575 1.7708-9.3149 5.9014-11.911" fill="none" stroke="#000" stroke-linecap="round" stroke-linejoin="round" stroke-width="2"/><path d="m17 60v-3c0-4.9941 5.0078-9 10-9 6 5 12 5 18 0 4.9941 0 10 4.0059 10 9v3" fill="none" stroke="#000" stroke-linecap="round" stroke-linejoin="round" stroke-width="2"/><path d="M41.873,30c0,1.1046-.8954,2-2,2s-2-.8954-2-2,.8954-2,2-2,2,.8954,2,2"/><path d="M33.873,30c0,1.1046-.8954,2-2,2s-2-.8954-2-2,.8954-2,2-2,2,.8954,2,2"/><path d="m24.936 31c0 9 4.9365 14 11 14 5.9365 0 11.064-5 11.064-14 0.0245-1.7187-0.3164-3.4229-1-5-3-3-7-8-7-8-4 3-7 6-13 7 0 0-1.0635 1-1.0635 6z" fill="none" stroke="#000" stroke-linejoin="round" stroke-width="2"/><path d="M33,38c1.8826,.9693,4.1174,.9693,6,0" fill="none" stroke="#000" stroke-linecap="round" stroke-linejoin="round" stroke-width="2"/><polygon points="31.44 14.337 31.442 4.5942 34.557 7.2462 35.972 3.7002 37.441 7.1092 40.285 4.5942 40.285 14.337" fill="none" stroke="#000" stroke-linecap="round" stroke-linejoin="round" stroke-width="2"/></g></svg>
