<?xml version="1.0" encoding="UTF-8"?>
<svg id="a" viewBox="0 0 72 72" xmlns="http://www.w3.org/2000/svg"><g id="b"><ellipse transform="translate(-15.021 36.026) rotate(-45)" cx="35.976" cy="36.145" rx="23.045" ry="16.612" fill="#b1cc33"/><path d="m56.13 29.374a28.57 28.57 0 0 1-7.4245 12.372c-8.9995 9-21.682 10.908-28.328 4.2617a13.708 13.708 0 0 1-3.8294-8.1371s-3.8659 20.028 14.451 18.129c0 0 18.009-0.288 24.746-22.73z" fill="#5c9e31"/><path d="m47.974 31.77a8.3972 8.3972 0 0 1-5.6728-2.6855c-2.8477-2.8477-3.5332-6.6221-1.5606-8.5948a4.3884 4.3884 0 0 1 4.1865-0.9775 9.1721 9.1721 0 0 1 4.4092 2.5371c2.8477 2.8477 3.5332 6.6231 1.5606 8.5957a4.03 4.03 0 0 1-2.9229 1.125z" fill="#a57939"/></g><g id="c" fill="none" stroke="#000" stroke-miterlimit="10" stroke-width="2"><ellipse transform="translate(-15.021 36.026) rotate(-45)" cx="35.976" cy="36.145" rx="23.045" ry="16.612"/><path d="M50.2559,29.9382c-1.5521,1.5521-4.7673.8535-7.1813-1.56s-3.1127-5.6292-1.56-7.1814,4.7673-.8535,7.1813,1.56a8.2239,8.2239,0,0,1,2.2534,3.85" stroke-linecap="round"/></g></svg>
