<?xml version="1.0" encoding="UTF-8"?>
<svg id="a" viewBox="0 0 72 72" xmlns="http://www.w3.org/2000/svg"><g id="b"><g fill="#fff"><path d="m26.3 33.1h19.3a1.6855 1.6855 0 0 1 1.7 1.7v14.1a1.6855 1.6855 0 0 1-1.7 1.7h-19.3a1.6855 1.6855 0 0 1-1.7-1.7v-14.1a1.8276 1.8276 0 0 1 1.7-1.7z"/><path d="M53,29.5V59.7A3.1349,3.1349,0,0,1,50.1,63H21.9A3.1349,3.1349,0,0,1,19,59.7V29.5a15.0381,15.0381,0,0,1,2.2-7.8l1.8-3V14.5h-.9a1.58,1.58,0,0,1-1.6-1.6V10.5a1.58,1.58,0,0,1,1.6-1.6H49.9a1.58,1.58,0,0,1,1.6,1.6v2.4a1.58,1.58,0,0,1-1.6,1.6H49v4.2l1.8,3A14.7745,14.7745,0,0,1,53,29.5Zm-3.4-15H23"/></g><polygon points="49.6 14.7 22.4 14.7 20.9 13.4 20.2 11.1 21.2 9.1 50.3 9.1 51.8 10 51.5 13.7" fill="#9b9b9a"/><path d="M53,28.1V61.3L50.5,63H47.3V36c0-11.3-11.9-17-24.9-17l.3-4.5H49v2.6l.6,2.5,2.2,3.9Z" fill="#d0cfce"/><polygon points="51.8 10 51.8 13.4 50.7 14.3 50.7 14.5 46.2 14.5 46.2 9.1 50.8 9.1 50.8 9.2" fill="#3f3f3f"/></g><g id="c" fill="none" stroke="#000" stroke-width="2"><path d="m26.3 33.1h19.3a1.6855 1.6855 0 0 1 1.7 1.7v14.1a1.6855 1.6855 0 0 1-1.7 1.7h-19.3a1.6855 1.6855 0 0 1-1.7-1.7v-14.1a1.8276 1.8276 0 0 1 1.7-1.7z" stroke-miterlimit="10"/><path d="M53,29.5V59.7A3.1349,3.1349,0,0,1,50.1,63H21.9A3.1349,3.1349,0,0,1,19,59.7V29.5a15.0381,15.0381,0,0,1,2.2-7.8l1.8-3V14.5h-.9a1.58,1.58,0,0,1-1.6-1.6V10.5a1.58,1.58,0,0,1,1.6-1.6H49.9a1.58,1.58,0,0,1,1.6,1.6v2.4a1.58,1.58,0,0,1-1.6,1.6H49v4.2l1.8,3A14.7745,14.7745,0,0,1,53,29.5Z" stroke-linejoin="round"/><line x1="49.6" x2="23" y1="14.5" y2="14.5" stroke-linejoin="round"/></g></svg>
