<?xml version="1.0" encoding="UTF-8"?>
<svg id="a" viewBox="0 0 72 72" xmlns="http://www.w3.org/2000/svg"><g id="b" stroke-miterlimit="10" stroke-width="2"><path d="m53.996 40.523h0.6992c1.1 0 2-0.9 2-2v-5.1541c0-1.1-0.9-2-2-2h-4.695v9.1648l3.9958-0.0107z" fill="#9b9b9a" stroke="#9b9b9a"/><path d="M25,21V9c0-0.5523,0.4477-1,1-1h20 c0.5523,0,1,0.4477,1,1v12" fill="#9b9b9a"/><path d="M47,51v12c0,0.5523-0.4477,1-1,1H26 c-0.5523,0-1-0.4477-1-1V51" fill="#9b9b9a" stroke="#9b9b9a"/><path d="m48 51h-24c-1.1 0-2-0.9-2-2v-26c0-1.1 0.9-2 2-2h24c1.1 0 2 0.9 2 2v26c0 1.1-0.9 2-2 2z" fill="#d0cfce" stroke="#d0cfce"/></g><g id="c" fill="none" stroke="#000" stroke-miterlimit="10" stroke-width="2"><path d="M25,21V9c0-0.5523,0.4477-1,1-1h20 c0.5523,0,1,0.4477,1,1v12"/><polyline points="35.844 26.188 35.844 36.188 44.156 36.188" stroke-linecap="round" stroke-linejoin="round"/><polyline points="47 55 47 64 25 64 25 55" stroke-linecap="round" stroke-linejoin="round"/><polyline points="25 17 25 8 47 8 47 17" stroke-linecap="round" stroke-linejoin="round"/><path d="m53.996 31.369h0.6991c1.1 0 2 0.9 2 2v5.1541c0 1.1-0.9 2-2 2h-0.6992" stroke-linecap="round" stroke-linejoin="round"/><path d="m48 51h-24c-1.1 0-2-0.9-2-2v-26c0-1.1 0.9-2 2-2h24c1.1 0 2 0.9 2 2v26c0 1.1-0.9 2-2 2z" stroke-linecap="round" stroke-linejoin="round"/><polyline points="35.844 26.188 35.844 36.188 44.156 36.188" stroke-linecap="round" stroke-linejoin="round"/></g></svg>
