<?xml version="1.0" encoding="UTF-8"?>
<svg id="a" viewBox="0 0 72 72" xmlns="http://www.w3.org/2000/svg"><g id="b" fill="#debb90" stroke="#debb90"><path d="m20.238 52.066c1.0756 8.6001 8.0438 14.985 16.215 14.857 9.106 0 16.855-6.833 16.855-16.878l-0.0019 0.251-0.6189-11.213c-0.1679-2.1944-1.9158-3.8708-3.9892-3.826h-9.4197c-5.6339-3.2226-18.864 6.5869-18.864 8.5099"/><path d="m23.671 48.469c-1.9056-0.1527-4.0021-1.6337-3.8889-3.6995l0.0538-14.782c-0.2381-1.933 3.3124-3.8158 5.0972-4.0736s2.473 2.9834 2.7111 4.9164c0.9887-5.0982 0.2472-0.932-0.7415 6.639v7c0.1132 2.0658-1.3261 3.8473-3.2317 4z"/><path d="m31.534 53.238c-1.9056-0.1527-3.345-1.9342-3.2317-4l-0.029-19.77c-0.6874-1.8063-5.2848-1.2272 2.9078-3.2917 1.7538-0.4419 2.9939 0.7177 3.2319 2.6507 0.0382 0.3099 0.3909 5.1012 0.3528 5.4111v15c0.1132 2.0659-1.3262 3.8474-3.2318 4.0001z"/><path d="m33.759 37.933v-7.3098c-0.0213-1.9167 2.1944-5.08 4.2141-5.3379 2.0197-0.2578 6.9202 1.697 7.1896 3.63 0.0432 0.3099 0.0171 1.1216-0.0261 1.4314l-2.0281 5.8444"/><path d="m43.109 37.629 0.366-29.207c0-6.175 9.417-5.3884 9.417 0.283l1.0547 30.954"/></g><g id="c" fill="none" stroke="#000" stroke-linecap="round" stroke-width="2"><path d="m24.312 40.898c-2.0638-0.1527-3.6226-1.9342-3.5-4v-7c-0.2578-1.933 1.1001-3.709 3.0331-3.9669 1.933-0.2578 3.709 1.1001 3.9669 3.0331 0.0413 0.3099 0.0413 0.6239 0 0.9337v7c0.1226 2.0659-1.4362 3.8474-3.5 4.0001z" stroke-linejoin="round"/><path d="m53.309 51.072v-10.343c-0.1631-2.228-1.7835-4.5373-4.8134-4.5373" stroke-miterlimit="10"/><path d="m48.496 36.198h-8.2889c-1.7123-0.1206-3.189 1.4125-3.3155 3.4423 0.1509 2.0752 1.5455 3.7158 3.2957 3.877l0.8695 0.1151c1.8128 0.238 3.2957 1.3199 3.2957 2.4018v2.3997c-1.7849 0.4502-3.4373 1.4541-4.7885 2.9093" stroke-miterlimit="10"/><path d="m20.781 53.06c1.058 8.4584 7.9121 14.738 15.95 14.612 8.957 0 16.579-6.7204 16.579-16.6l-1e-3 -1e-3" stroke-miterlimit="10"/><line x1="44.308" x2="44.308" y1="8.372" y2="23.362" stroke-miterlimit="10"/><line x1="52.683" x2="52.683" y1="8.5804" y2="33.399" stroke-miterlimit="10"/><path d="m44.308 8.372c0-5.875 8.375-5.1875 8.375 0.2083" stroke-miterlimit="10"/><path d="m32.749 40.76c-3.322 1.2271-4.997-1.9342-4.8744-4v-7c-0.2578-1.933 1.1001-3.709 3.0331-3.9669 1.933-0.2578 3.709 1.1001 3.9669 3.0331 0.0413 0.3099 0.0413 0.6239 0 0.9337" stroke-linejoin="round"/><path d="m34.937 34.126v-5.3175c-0.2578-1.933 1.1001-3.709 3.0331-3.9669 1.933-0.2578 3.709 1.1001 3.9669 3.0331 0.0413 0.3099 0.0413 0.6239 0 0.9337l0.031 3.5043" stroke-linejoin="round"/><path d="m20.781 53.06c-0.08-1.5115 0-8.9394 0-8.9394" stroke-miterlimit="10"/></g></svg>
