<?xml version="1.0" encoding="UTF-8"?>
<svg id="a" viewBox="0 0 72 72" xmlns="http://www.w3.org/2000/svg"><g id="b" fill="#B399C8" stroke-linecap="round" stroke-linejoin="round" stroke-miterlimit="10" stroke-width="2"><path d="m45 57c1.9749 0 3.9-0.275 5.7124-0.8-4.125 3.0249-9.2125 4.8-14.712 4.8-13.812 0-25-11.188-25-25s11.188-25 25-25c5.5 0 10.588 1.775 14.712 4.8-1.8124-0.525-3.7375-0.8-5.7124-0.8-11.6 0-21 9.4-21 21s9.4001 21 21 21z"/><polygon points="50.652 27.896 53.024 32.703 58.33 33.474 54.491 37.216 55.397 42.5 50.652 40.005 45.907 42.5 46.813 37.216 42.974 33.474 48.279 32.703"/></g><g id="c" fill="none" stroke="#000" stroke-linecap="round" stroke-linejoin="round" stroke-miterlimit="10" stroke-width="2"><path d="m45 57c1.9749 0 3.9-0.275 5.7124-0.8-4.125 3.0249-9.2125 4.8-14.712 4.8-13.812 0-25-11.188-25-25s11.188-25 25-25c5.5 0 10.588 1.775 14.712 4.8-1.8124-0.525-3.7375-0.8-5.7124-0.8-11.6 0-21 9.4-21 21s9.4001 21 21 21z"/><polygon points="50.652 27.896 53.024 32.703 58.33 33.474 54.491 37.216 55.397 42.5 50.652 40.005 45.907 42.5 46.813 37.216 42.974 33.474 48.279 32.703"/></g></svg>
