<?xml version="1.0" encoding="UTF-8"?>
<svg id="a" viewBox="0 0 72 72" xmlns="http://www.w3.org/2000/svg"><g id="b"><path d="m40.094 33.096 0.9439-0.9438 7.5124-7.5121 1.3506-1.3432v12.724l4.9497-4.9497v-16.264h-16.263l-4.9497 4.9497h12.728l-0.0836 0.0835-8.897 8.8974-0.8243 0.8243c-5.858-4.1749-14.043-3.6346-19.299 1.621-5.8579 5.8579-5.8579 15.355 0 21.213 5.8578 5.8578 15.355 5.8579 21.213 0 5.2562-5.2562 5.796-13.443 1.6192-19.301zm-19.328 15.797c-3.9052-3.9052-3.9052-10.237 0-14.142s10.237-3.9052 14.142 0 3.9052 10.237 0 14.142-10.237 3.9052-14.142 0z" fill="#9B9B9A"/></g><g id="c" fill="none" stroke="#000" stroke-linecap="round" stroke-linejoin="round" stroke-miterlimit="10" stroke-width="2"><path d="m54.738 14.921h-16.264l-4.9497 4.9497h12.728l-8.9806 8.9809-0.8243 0.8243c-5.858-4.1749-14.043-3.6346-19.299 1.621-5.8579 5.8579-5.8579 15.355 0 21.213s15.355 5.8579 21.213 0c5.2563-5.2563 5.7961-13.443 1.6193-19.301l0.9439-0.9439 7.5124-7.5121 1.3505-1.3433v12.724l4.9497-4.9497v-16.263"/><ellipse transform="matrix(.7071 -.7071 .7071 .7071 -21.501 31.9)" cx="27.756" cy="41.904" rx="10" ry="10"/></g></svg>
