<?xml version="1.0" encoding="UTF-8"?>
<svg id="a" viewBox="0 0 72 72" xmlns="http://www.w3.org/2000/svg"><g id="b" fill="#3F3F3F"><path d="m39.4 51.9c0.8 3.6 5.4 9.5 7.3 10.3h-21.4c1.9-0.8 6.6-6.8 7.3-10.3l3.4-3.9 3.4 3.9z"/><path d="m12.3 42c0 7 5.6 12.6 12.6 12.6 4.8 0 9-2.7 11.1-6.6 2.1 3.9 6.3 6.6 11.1 6.6 7 0 12.6-5.6 12.6-12.6 0-3-1-5.7-2.8-7.9l-20.9-26-20.9 26c-1.8 2.1-2.8 4.9-2.8 7.9z"/></g><g id="c" fill="none" stroke="#000" stroke-linecap="round" stroke-linejoin="round" stroke-width="2"><path d="m39.4 52.1c0.8 3.6 5.4 9.3 7.3 10.1h-21.4c1.9-0.8 6.6-6.6 7.3-10.1"/><path d="m12.3 42c0 7 5.6 12.6 12.6 12.6 4.8 0 9-2.7 11.1-6.6 2.1 3.9 6.3 6.6 11.1 6.6 7 0 12.6-5.6 12.6-12.6 0-3-1-5.7-2.8-7.9l-20.9-26-20.9 26c-1.8 2.1-2.8 4.9-2.8 7.9z"/></g></svg>
