<?xml version="1.0" encoding="UTF-8"?>
<svg id="a" viewBox="0 0 72 72" xmlns="http://www.w3.org/2000/svg"><g id="b"><path d="m60.7 26.2c0-7.2-5.9-13.1-13.1-13.1-5 0-9.3 2.8-11.5 6.9-2.2-4.1-6.6-6.9-11.5-6.9-7.2 0-13.1 5.9-13.1 13.1 0 3.1 1.1 6 2.9 8.2l21.8 27 21.8-27c1.6-2.2 2.7-5 2.7-8.2z" fill="#EA5A47"/></g><g id="c"><path d="m60.7 26.2c0-7.2-5.9-13.1-13.1-13.1-5 0-9.3 2.8-11.5 6.9-2.2-4.1-6.6-6.9-11.5-6.9-7.2 0-13.1 5.9-13.1 13.1 0 3.1 1.1 6 2.9 8.2v0l21.8 27 21.8-27v0c1.6-2.2 2.7-5 2.7-8.2z" fill="none" stroke="#000" stroke-linecap="round" stroke-linejoin="round" stroke-width="2"/></g></svg>
