<?xml version="1.0" encoding="UTF-8"?>
<svg id="a" viewBox="0 0 72 72" xmlns="http://www.w3.org/2000/svg"><g id="b"><path d="M35.8616,7.8594C27.3764,8.0165,17.4771,11.9448,17.32,27.501l-.4714,3.2714c.9428-.1572,3.2124,2.1023,4.1552,2.2595,2.9855.1571,3.9861-1.4142,6.5,0s5.8436.5973,8.5148.5973,5.686.8169,8.2-.5973,5.5291.1571,8.3575,0h2.7858L54.2462,27.501C54.2462,11.9448,44.3468,8.0165,35.8616,7.8594Z" fill="#ea5a47"/><path d="M60.9337,30.246s7.4289,4.6431-3.7144,6.5c.6423-.1714,8.3064-.0721-15.7863,1.8572a32.6848,32.6848,0,0,0-6.5,0c-1.2857.1775-1.5794-.032-7.4289,0-6.003.0328-10.3189-.4127-13.1047-1.3413S9.86,35.8177,9.86,35.8177c-.6713.3837-4.6452-3.05,1.8572-5.5717-.0746-.3231-2.41.7826,24.1438,1.8573C42.1415,32.3574,60.9337,30.246,60.9337,30.246Z" fill="#d22f27"/></g><g id="c"><path d="m43.29 9.1081v14.547a15.278 15.278 0 0 1-14.858 0v-14.767" fill="none" stroke="#000" stroke-miterlimit="10" stroke-width="2"/><path d="m16.825 30.71c0-8.3786 4.7-18.365 11.425-21.517a17.873 17.873 0 0 1 7.6113-1.6984c10.514 0 19.036 9.1465 19.036 20.429 0 0.4376 0.0252 2.3551 0 2.7858" fill="none" stroke="#000" stroke-linecap="round" stroke-miterlimit="10" stroke-width="2"/><path d="m18.218 41.389s0.9286 21.358 17.644 21.358 17.644-21.358 17.644-21.358" fill="none" stroke="#000" stroke-linecap="round" stroke-miterlimit="10" stroke-width="2"/><g fill="none" stroke="#000" stroke-linecap="round" stroke-miterlimit="10" stroke-width="2"><path d="M59.6708,30.311c.0252.0041,3.86-.21,4.0487,2.7209.067,1.04-.5021,2.632-3.12,3.2538a136.3459,136.3459,0,0,1-24.7,2.3157"/><path d="M12.1443,30.311c-.0252.0041-3.86-.21-4.0487,2.7209-.067,1.04.5021,2.632,3.12,3.2538a136.3463,136.3463,0,0,0,24.7,2.3157"/></g><path d="m27.504 32.103a86.418 86.418 0 0 0 16.715 0" fill="none" stroke="#000" stroke-linecap="round" stroke-linejoin="round" stroke-width="2"/><path d="m28.432 60.922s7.4289 4.6751 14.858 0" fill="none" stroke="#000" stroke-linecap="round" stroke-miterlimit="10" stroke-width="4"/><path d="m28.948 8.8881s8.354-3.3824 14.134 0.166l0.2082 14.692s-7.4288 4.643-14.858 0z"/></g><g id="d" fill="none" stroke="#fff" stroke-linecap="round" stroke-miterlimit="10" stroke-width="2"><line x1="35.9" x2="35.9" y1="12.383" y2="20.276"/><line x1="32.418" x2="39.382" y1="16.33" y2="16.33"/></g></svg>
