<?xml version="1.0" encoding="UTF-8"?>
<svg id="a" version="1.1" viewBox="0 0 72 72" xmlns="http://www.w3.org/2000/svg"><g id="b"><rect x="16" y="33" width="40" height="4" fill="#D22F27"/><rect x="22" y="27" width="4" height="28" fill="#EA5A47"/><rect x="46" y="27" width="4" height="28" fill="#EA5A47"/><rect x="20.5" y="55" width="7" height="5" fill="#3F3F3F"/><rect x="44.5" y="55" width="7" height="5" fill="#3F3F3F"/><rect x="34" y="27" width="4" height="6" fill="#3F3F3F"/><path d="m12.5 21s11.25 2 15 2h18.5c3.3749 0 13.5-2 13.5-2l-4 3-2 3h-35l-2-3-4-3z" fill="#EA5A47"/></g><g id="c" fill="none" stroke="#000" stroke-linecap="round" stroke-linejoin="round" stroke-miterlimit="10" stroke-width="2"><rect x="16" y="33" width="6" height="4"/><rect x="26" y="33" width="20" height="4"/><rect x="50" y="33" width="6" height="4"/><rect x="22" y="27" width="4" height="28"/><rect x="46" y="27" width="4" height="28"/><rect x="20.5" y="55" width="7" height="5"/><rect x="44.5" y="55" width="7" height="5"/><rect x="34" y="27" width="4" height="6"/><path d="m59.5 21-4 3-2 3h-35l-2-3-4-3s11.25 2 15 2h18.5c3.38 0 13.5-2 13.5-2z"/></g></svg>
