<?xml version="1.0" encoding="UTF-8"?>
<svg id="a" viewBox="0 0 72 72" xmlns="http://www.w3.org/2000/svg"><g id="b" fill="#a57939" stroke="#a57939"><path d="m21.241 36.167c-2.0638-0.1527-3.6226-1.9342-3.5-4v-7c-0.2578-1.933 1.1001-3.709 3.0331-3.9669 1.933-0.2578 3.709 1.1001 3.9669 3.0331 0.0413 0.3099 0.0413 0.6239 0 0.9337v7c0.1227 2.0659-1.4362 3.8474-3.5 4.0001z"/><path d="m41.757 38.936c-2.0638-0.1527-3.6226-1.9342-3.5-4v-15c-0.2578-1.933 1.1001-3.709 3.0331-3.9669 1.933-0.2578 3.709 1.1001 3.9669 3.0331 0.0413 0.3099 0.0413 0.6239 0 0.9337v15c0.1226 2.0659-1.4362 3.8474-3.5 4.0001z"/><path d="m35.206 38.936c-2.0638-0.1527-3.6226-1.9342-3.5-4v-15c-0.2578-1.933 1.1001-3.709 3.0331-3.9669 1.933-0.2578 3.709 1.1001 3.9669 3.0331 0.0413 0.3099 0.0413 0.6239 0 0.9337v15c0.1226 2.0659-1.4362 3.8474-3.5 4.0001z"/><path d="m27.553 40.167c-2.0638-0.1527-3.6226-1.9342-3.5-4v-15c-0.2578-1.933 1.1001-3.709 3.0331-3.9669 1.933-0.2578 3.709 1.1001 3.9669 3.0331 0.0413 0.3099 0.0413 0.6239 0 0.9337v15c0.1226 2.0659-1.4362 3.8474-3.5 4.0001z"/><path d="m20.037 41.169c-2.0638-0.1527-3.6226-1.9342-3.5-4v-15c-0.2578-1.933 1.1001-3.709 3.0331-3.9669 1.933-0.2578 3.709 1.1001 3.9669 3.0331 0.0413 0.3099 0.0413 0.6239 0 0.9337v15c0.1226 2.0659-1.4362 3.8474-3.5 4.0001z"/><path d="m31.982 16.333c-0.2578-1.933 2.7585-0.1838 6.218 0.4567 2.3329 0.4319 4.5808-3.02 4.8386-1.087-0.2372 0.8694 3.7325-2.5368 3.1508 7.8034"/><line x1="44.212" x2="44.178" y1="20.053" y2="20.695"/><path d="m15.75 36.167c1.1419 8.8555 10.78 19.584 19.455 19.452 9.667 0 19.357-8.7184 19.357-19.062l-0.9282-10.534c0-5.1523-14.1-4.1388-16.301-4.0927l-21.333 7.4968"/></g><g id="c" fill="none" stroke="#000" stroke-linecap="round" stroke-width="2"><path d="m43.741 34.989v-2.333c0-1.1-1.789-2.2-3.976-2.441l-1.049-0.117c-2.187-0.242-3.976-1.851-3.976-3.774s1.8-3.334 4-3.334h10c2.2011-0.0448 4.0567 1.6316 4.235 3.826l0.657 11.213" stroke-linejoin="round"/><path d="m37.963 38.055c1.6302-1.4796 3.6236-2.5003 5.777-2.958" stroke-linejoin="round"/><path d="m16.776 39.479c1.1988 9.0291 8.9653 15.732 18.073 15.598 10.149 0 18.786-7.1738 18.786-17.72" stroke-miterlimit="10"/><line x1="16.776" x2="16.776" y1="39.479" y2="35.958" stroke-linejoin="round"/><path d="m20.308 32.965c-2.0638-0.1527-3.6226-1.9342-3.5-4v-7c-0.2578-1.933 1.1001-3.709 3.0331-3.9669 1.933-0.2578 3.709 1.1001 3.9669 3.0331 0.0413 0.3099 0.0413 0.6239 0 0.9337v7c0.1226 2.0659-1.4362 3.8474-3.5 4.0001z" stroke-linejoin="round"/><path d="m28.744 31.827c-3.322 1.2271-4.997-1.9342-4.8744-4v-7c-0.2578-1.933 1.1001-3.709 3.0331-3.9669 1.933-0.2578 3.709 1.1001 3.9669 3.0331 0.0413 0.3099 0.0413 0.6239 0 0.9337" stroke-linejoin="round"/><path d="m30.932 24.466v-5.3176c-0.2578-1.933 1.1001-3.709 3.0331-3.9669 1.933-0.2578 3.709 1.1001 3.9669 3.0331 0.0413 0.3099 0.0413 0.6239 0 0.9337" stroke-linejoin="round"/><path d="m37.995 19.148c-0.2578-1.933 1.1001-3.709 3.0331-3.9669 1.933-0.2578 3.709 1.1001 3.9669 3.0331 0.0413 0.3099 0.0413 0.6239 0 0.9337" stroke-linejoin="round"/></g></svg>
