<?xml version="1.0" encoding="UTF-8"?>
<svg id="a" viewBox="0 0 72 72" xmlns="http://www.w3.org/2000/svg"><g id="b"><path transform="translate(0)" d="m60.335 26.421a12.945 12.945 0 0 0-24.335-6.1512 12.945 12.945 0 0 0-24.335 6.1513c0 3.0754 1 6.6891 2.383 8.3685 5.541 6.73 21.083 25.915 21.083 25.915l1.6829-0.12 20.841-25.498a14.323 14.323 0 0 0 2.6797-8.6656z" fill="#ea5a47"/><path transform="translate(0)" d="m11 26.362s0.226 8.2339 9.2871 16.981l22.381-9.3962 16.547-1.5849s4.6246-10.743-3.1422-16.685l-18.793 7.2787z" fill="#fff"/></g><g id="c" fill="none" stroke="#000" stroke-linecap="round" stroke-linejoin="round"><path transform="translate(0)" d="m24.187 45.693 11.813 14.641 19.377-24.016" stroke-width="2"/><path transform="translate(0)" d="m50.466 14.782a12.042 12.042 0 0 0-3.4664-0.4876 12.497 12.497 0 0 0-11 6.56 12.497 12.497 0 0 0-11-6.56c-5.5829 0-9.99 2.7709-11.595 7.8223" stroke-width="2"/><path transform="translate(0)" d="m42.668 33.947 15.558-1.49a1.8478 1.8478 0 0 0 1.4954-1.0348 12.401 12.401 0 0 0 1.2682-5.1669" stroke-width="2.0663"/><path transform="translate(0)" d="m40.712 22.511-28.21 3.6566a1.6733 1.6733 0 0 0-1.4557 1.8172 12.944 12.944 0 0 0 2.5145 6.6049" stroke-width="2.0663"/><path transform="translate(0)" d="m15.157 33.879 39.821-17.716a1.8515 1.8515 0 0 1 2.0635 0.3731 13.209 13.209 0 0 1 3.93 8.3708 1.8725 1.8725 0 0 1-1.1506 1.8378l-38.21 16.042a1.864 1.864 0 0 1-2.2-0.583l-4.7864-6.2293a1.3759 1.3759 0 0 1 0.5323-2.0955z" stroke-width="2.1659"/></g></svg>
