<?xml version="1.0" encoding="UTF-8"?>
<svg id="a" viewBox="0 0 72 72" xmlns="http://www.w3.org/2000/svg"><g id="b"><path d="m35 7.577c0.619-0.357 1.381-0.357 2 0l23.115 13.346c0.619 0.357 1 1.017 1 1.732v26.69c0 0.715-0.381 1.375-1 1.732l-23.115 13.346c-0.619 0.357-1.381 0.357-2 0l-23.115-13.346c-0.619-0.357-1-1.017-1-1.732v-26.69c0-0.715 0.381-1.375 1-1.732l23.115-13.346z" fill="#fff"/></g><g id="c"><path d="m35 7.577c0.619-0.357 1.381-0.357 2 0l23.115 13.346c0.619 0.357 1 1.017 1 1.732v26.69c0 0.715-0.381 1.375-1 1.732l-23.115 13.346c-0.619 0.357-1.381 0.357-2 0l-23.115-13.346c-0.619-0.357-1-1.017-1-1.732v-26.69c0-0.715 0.381-1.375 1-1.732l23.115-13.346z" fill="none" stroke="#000" stroke-width="2"/></g></svg>
