<?xml version="1.0" encoding="UTF-8"?>
<svg id="a" viewBox="0 0 72 72" xmlns="http://www.w3.org/2000/svg"><g id="b"><path d="m36 66c16.568 0 30-13.431 30-30 0-16.568-13.432-30-30-30s-30 13.431-30 30c0 16.569 13.432 30 30 30z" stroke="#000" stroke-linejoin="round" stroke-width="2"/></g><g id="c"><path d="m36 66c16.568 0 30-13.431 30-30 0-16.568-13.432-30-30-30s-30 13.431-30 30c0 16.569 13.432 30 30 30z" fill="#3F3F3F" stroke="#000" stroke-linejoin="round" stroke-width="2"/></g><g id="d"><path d="m36 66c16.568 0 30-13.431 30-30 0-16.568-13.432-30-30-30s-30 13.431-30 30c0 16.569 13.432 30 30 30z" fill="none" stroke="#000" stroke-linejoin="round" stroke-width="2"/></g></svg>
