<?xml version="1.0" encoding="UTF-8"?>
<svg id="a" viewBox="0 0 72 72" xmlns="http://www.w3.org/2000/svg"><g id="b"><path d="m56 35.958c0.035 15.463-8.891 28.018-19.937 28.042-11.046 0.0231-20.029-12.494-20.063-27.958-0.035-15.463 8.891-28.018 19.937-28.041s20.029 12.494 20.063 27.958z"/></g><g id="c"><path d="m56 35.958c0.035 15.463-8.891 28.018-19.937 28.042-11.046 0.0231-20.029-12.494-20.063-27.958-0.035-15.463 8.891-28.018 19.937-28.041s20.029 12.494 20.063 27.958z" fill="#3F3F3F"/></g><g id="d"><path d="m56 36c0 15.464-8.954 28-20 28s-20-12.536-20-28 8.954-28 20-28 20 12.536 20 28z" fill="none" stroke="#000" stroke-width="2"/></g></svg>
