<?xml version="1.0" encoding="UTF-8"?>
<svg id="a" viewBox="0 0 72 72" xmlns="http://www.w3.org/2000/svg"><g id="b"><path d="m15.78 16.831c0.1971-0.4758 0.5748-0.8535 1.0506-1.0506l18.426-7.6324c0.4758-0.19712 1.0099-0.19712 1.4857 0l18.426 7.6324c0.4758 0.1971 0.8535 0.5748 1.0506 1.0506l7.6323 18.426c0.1972 0.4758 0.1972 1.0099 0 1.4857l-7.6323 18.426c-0.1971 0.4758-0.5748 0.8535-1.0506 1.0506l-18.426 7.6323c-0.4758 0.1972-1.0099 0.1972-1.4857 0l-18.426-7.6323c-0.4758-0.1971-0.8535-0.5748-1.0506-1.0506l-7.6324-18.426c-0.19712-0.4758-0.19712-1.0099 0-1.4857l7.6324-18.426z"/></g><g id="c"><path d="m15.78 16.831c0.1971-0.4758 0.5748-0.8535 1.0506-1.0506l18.426-7.6324c0.4758-0.19712 1.0099-0.19712 1.4857 0l18.426 7.6324c0.4758 0.1971 0.8535 0.5748 1.0506 1.0506l7.6324 18.426c0.1971 0.4758 0.1971 1.0099 0 1.4857l-7.6324 18.426c-0.1971 0.4758-0.5748 0.8535-1.0506 1.0506l-18.426 7.6324c-0.4758 0.1971-1.0099 0.1971-1.4857 0l-18.426-7.6324c-0.4758-0.1971-0.8535-0.5748-1.0506-1.0506l-7.6324-18.426c-0.19712-0.4758-0.19712-1.0099 0-1.4857l7.6324-18.426z" fill="#3F3F3F"/></g><g id="d"><path d="m15.78 16.831c0.1971-0.4758 0.5748-0.8535 1.0506-1.0506l18.426-7.6324c0.4758-0.19712 1.0099-0.19712 1.4857 0l18.426 7.6324c0.4758 0.1971 0.8535 0.5748 1.0506 1.0506l7.6324 18.426c0.1971 0.4758 0.1971 1.0099 0 1.4857l-7.6324 18.426c-0.1971 0.4758-0.5748 0.8535-1.0506 1.0506l-18.426 7.6324c-0.4758 0.1971-1.0099 0.1971-1.4857 0l-18.426-7.6324c-0.4758-0.1971-0.8535-0.5748-1.0506-1.0506l-7.6324-18.426c-0.19712-0.4758-0.19712-1.0099 0-1.4857l7.6324-18.426z" fill="none" stroke="#000" stroke-width="2"/></g></svg>
