<?xml version="1.0" encoding="UTF-8"?>
<svg id="a" viewBox="0 0 72 72" xmlns="http://www.w3.org/2000/svg"><g id="b"><path d="m63.874 21.906c-0.66906-2.5196-2.6402-4.5036-5.1436-5.177-4.537-1.2237-22.73-1.2237-22.73-1.2237s-18.193 0-22.73 1.2237c-2.5031 0.67336-4.4746 2.6574-5.1436 5.177-1.2157 4.5665-1.2157 14.094-1.2157 14.094s0 9.5276 1.2157 14.095c0.66901 2.5193 2.6405 4.5033 5.1436 5.177 4.5371 1.2235 22.73 1.2235 22.73 1.2235s18.193 0 22.73-1.2235c2.5034-0.67366 4.4745-2.6577 5.1436-5.177 1.2158-4.567 1.2158-14.095 1.2158-14.095s0-9.5278-1.2158-14.094" fill="#ea5a47"/><path d="m30.05 44.65 15.206-8.6501-15.206-8.6509z" fill="#fff"/></g><g id="c" fill="none" stroke="#000" stroke-miterlimit="10" stroke-width="2"><path d="m63.874 21.906c-0.66906-2.5196-2.6402-4.5036-5.1436-5.177-4.537-1.2237-22.73-1.2237-22.73-1.2237s-18.193 0-22.73 1.2237c-2.5031 0.67336-4.4746 2.6574-5.1436 5.177-1.2157 4.5665-1.2157 14.094-1.2157 14.094s0 9.5276 1.2157 14.095c0.66901 2.5193 2.6405 4.5033 5.1436 5.177 4.5371 1.2235 22.73 1.2235 22.73 1.2235s18.193 0 22.73-1.2235c2.5034-0.67366 4.4745-2.6577 5.1436-5.177 1.2158-4.567 1.2158-14.095 1.2158-14.095s0-9.5278-1.2158-14.094"/><path d="m30.05 44.65 15.206-8.6501-15.206-8.6509z" stroke-linecap="round" stroke-linejoin="round"/></g></svg>
