<?xml version="1.0" encoding="UTF-8"?>
<svg id="a" viewBox="0 0 72 72" xmlns="http://www.w3.org/2000/svg"><g id="b"><rect x="8" y="20" width="3.027" height="32"/><rect x="12.541" y="20" width="6.0541" height="32"/><rect x="20.108" y="20" width="6.0541" height="32"/><rect x="36.757" y="20" width="6.0541" height="32"/><rect x="48.865" y="20" width="6.0541" height="32"/><rect x="27.676" y="20" width="3.027" height="32"/><rect x="32.216" y="20" width="3.027" height="32"/><rect x="44.324" y="20" width="3.027" height="32"/><rect x="56.432" y="20" width="3.027" height="32"/><rect x="60.973" y="20" width="3.027" height="32"/></g><g id="c"><rect x="5" y="17" width="62" height="38" fill="#fff"/><rect x="8" y="20" width="3.027" height="32" fill="#D22F27"/><rect x="12.541" y="20" width="6.0541" height="32" fill="#D22F27"/><rect x="20.108" y="20" width="6.0541" height="32" fill="#D22F27"/><rect x="36.757" y="20" width="6.0541" height="32" fill="#61B2E4"/><rect x="48.865" y="20" width="6.0541" height="32" fill="#61B2E4"/><rect x="27.676" y="20" width="3.027" height="32" fill="#5C9E31"/><rect x="32.216" y="20" width="3.027" height="32" fill="#5C9E31"/><rect x="44.324" y="20" width="3.027" height="32" fill="#61B2E4"/><rect x="56.432" y="20" width="3.027" height="32" fill="#5C9E31"/><rect x="60.973" y="20" width="3.027" height="32" fill="#5C9E31"/></g><g id="d"><rect x="5" y="17" width="62" height="38" fill="none" stroke="#000" stroke-linejoin="round" stroke-width="2"/></g></svg>
