<?xml version="1.0" encoding="UTF-8"?>
<svg id="a" viewBox="0 0 72 72" xmlns="http://www.w3.org/2000/svg"><g id="b"><circle cx="36" cy="36" r="28" fill="#92D3F5"/><path d="m15.012 55.586 39.573-39.573c0.2429 0.2264 0.4828 0.458 0.7195 0.6947 10.935 10.935 10.935 28.663 0 39.598s-28.663 10.935-39.598 0c-0.2367-0.2367-0.4683-0.4766-0.6947-0.7195z" fill="#61B2E4"/><path d="M33.2 33.2L24 48L38.8 38.8" fill="#fff"/><path d="M33.2 33.2L48 24L38.8 38.8" fill="#EA5A47"/><g fill="none" stroke="#fff" stroke-linecap="round" stroke-linejoin="round" stroke-width="2"><path d="m36 14v-3"/><path d="m36 61v-3"/><path d="m58 36h3"/><path d="m11 36h3"/><path d="m51.556 20.444 2.1213-2.1213"/><path d="m18.322 53.678 2.1214-2.1214"/><path d="m51.556 51.556 2.1214 2.1214"/><path d="m18.322 18.322 2.1213 2.1213"/><path d="m47 16.947 1.5-2.598"/><path d="m23.5 57.651 1.5-2.598"/><path d="m55.053 47 2.598 1.5"/><path d="m14.349 23.5 2.598 1.5"/><path d="m57.25 30.306 2.8978-0.7765"/><path d="m11.852 42.47 2.8977-0.7765"/><path d="m41.694 57.25 0.7765 2.8977"/><path d="m29.53 11.852 0.7765 2.8977"/><path d="m55.053 25 2.598-1.5"/><path d="m14.349 48.5 2.598-1.5"/><path d="m47 55.053 1.5 2.598"/><path d="m23.5 14.349 1.5 2.598"/><path d="m57.25 41.694 2.8978 0.7765"/><path d="m11.852 29.53 2.8977 0.7765"/><path d="m30.306 57.25-0.7765 2.8977"/><path d="m42.47 11.852-0.7765 2.8977"/></g></g><g id="c" fill="none" stroke="#000" stroke-linecap="round" stroke-linejoin="round" stroke-width="2"><path d="m36 64c15.464 0 28-12.536 28-28s-12.536-28-28-28-28 12.536-28 28 12.536 28 28 28z"/><path d="M33.2 33.2L24 48L38.8 38.8"/><path d="M33.2 33.2L48 24L38.8 38.8"/></g></svg>
