<?xml version="1.0" encoding="UTF-8"?>
<svg id="a" viewBox="0 0 72 72" xmlns="http://www.w3.org/2000/svg"><g id="b"><path d="m46.655 36.403c-10.549-13.32-26.972-20.903-38.655-20.903 0 3.5 13.5 12.5 13.5 12.5h-7c0 4 13 9.5 13 9.5h-6.5c4.5209 6.2597 14.534 8.6897 20.578 8.9986-0.1928 0.3463-0.3852 0.6807-0.5776 1.0014-0.0419 0.0709-0.0845 0.1431-0.1277 0.2163-2.1896 3.7122-6.0658 10.284-15.872 10.284 3.5 2.5 7.5 3 10.5 3 11.5 0 25-9 25-24 0-6.7305 3-12 5.5-12h-7c-5.4192 0-9.2068 5.4384-12.345 11.403z" clip-rule="evenodd" fill="#B1CC33" fill-rule="evenodd"/><path d="M48 32.6855C42.9494 18.2493 33 10 29 10C29 13.6091 38.5 28.5 38.5 28.5L46 36L48 32.6855Z" fill="#B1CC33" stroke="#B1CC33" stroke-linejoin="round" stroke-width="2"/><circle cx="57" cy="28" r="1" fill="#fff"/></g><g id="c"><path d="m45.655 36.403-0.784 0.6209c0.21 0.2651 0.5398 0.4061 0.8765 0.3748 0.3368-0.0313 0.6349-0.2307 0.7924-0.53l-0.8849-0.4657zm-38.655-20.903v-1c-0.55228 0-1 0.4477-1 1h1zm13.5 12.5v1c0.4407 0 0.8294-0.2885 0.9571-0.7102 0.1277-0.4218-0.0357-0.8774-0.4024-1.1219l-0.5547 0.8321zm-7 0v-1c-0.5523 0-1 0.4477-1 1h1zm13 9.5v1c0.4757 0 0.8855-0.335 0.98-0.8012 0.0946-0.4662-0.1523-0.9344-0.5904-1.1198l-0.3896 0.921zm-6.5 0v-1c-0.3755 0-0.7194 0.2104-0.8904 0.5447-0.1709 0.3344-0.1401 0.7364 0.0797 1.0408l0.8107-0.5855zm20.578 8.9986 0.8738 0.4863c0.1679-0.3018 0.1683-0.6688 9e-4 -0.9709s-0.4788-0.4965-0.8237-0.5141l-0.051 0.9987zm-0.5776 1.0014-0.8575-0.5145-0.0034 0.0058 0.8609 0.5087zm-0.1277 0.2163-0.8613-0.5081v1e-4l0.8613 0.508zm-15.872 10.284v-1c-0.4347 0-0.8196 0.2808-0.9523 0.6948s0.0173 0.8663 0.3711 1.1189l0.5812-0.8137zm41-32c0.5523 0 1-0.4477 1-1s-0.4477-1-1-1v2zm-18.561 9.7825c-10.714-13.528-27.411-21.282-39.439-21.282v2c11.339 0 27.486 7.4113 37.871 20.524l1.5679-1.2417zm-40.439-20.282c0 0.7259 0.33534 1.4475 0.73601 2.0782 0.41705 0.6565 0.99201 1.3474 1.6474 2.0392 1.313 1.386 3.0426 2.8728 4.7437 4.2274 1.7066 1.3589 3.4099 2.6048 4.6847 3.5097 0.6379 0.4529 1.1699 0.8213 1.5429 1.0769 0.1865 0.1278 0.3334 0.2275 0.434 0.2954 0.0504 0.034 0.0891 0.06 0.1155 0.0777 0.0132 0.0089 0.0232 0.0156 0.0301 0.0202 0.0035 0.0023 0.0061 0.0041 8e-3 0.0053 9e-4 6e-4 0.0016 0.0011 0.0021 0.0014 2e-4 2e-4 5e-4 4e-4 6e-4 4e-4 2e-4 2e-4 3e-4 3e-4 0.555-0.8318s0.5547-0.832 0.5547-0.8321c-1e-4 0-2e-4 -1e-4 -3e-4 -2e-4 -3e-4 -2e-4 -9e-4 -5e-4 -0.0016-1e-3 -0.0014-1e-3 -0.0037-0.0025-0.0067-0.0045-0.0061-0.0041-0.0154-0.0103-0.0277-0.0186-0.0247-0.0166-0.0618-0.0415-0.1104-0.0743-0.0971-0.0656-0.2403-0.1627-0.4228-0.2878-0.3653-0.2502-0.888-0.6123-1.5157-1.0579-1.2565-0.8919-2.9282-2.1148-4.5966-3.4434-1.6739-1.3329-3.3193-2.7523-4.5376-4.0383-0.61022-0.6441-1.09-1.2305-1.4112-1.7361-0.33762-0.5315-0.42415-0.8567-0.42415-1.0058h-2zm14.5 11.5h-7v2h7v-2zm-8 1c0 0.7694 0.3098 1.4862 0.7265 2.1113 0.4204 0.6305 0.996 1.238 1.6422 1.8096 1.2924 1.1432 2.9839 2.2447 4.6316 3.1953 1.6558 0.9553 3.3064 1.7803 4.5399 2.3654 0.6176 0.293 1.1329 0.5269 1.4946 0.6879 0.1809 0.0805 0.3236 0.1428 0.4216 0.1853 0.049 0.0213 0.0869 0.0375 0.1128 0.0486 0.013 0.0056 0.0229 0.0098 0.0298 0.0128 0.0035 0.0014 0.0062 0.0026 8e-3 0.0034 1e-3 4e-4 0.0017 7e-4 0.0023 9e-4 3e-4 1e-4 5e-4 2e-4 7e-4 3e-4s4e-4 2e-4 0.39-0.9208 0.3897-0.9209 0.3897-0.9209c0-1e-4 -1e-4 -1e-4 -2e-4 -1e-4 -2e-4 -1e-4 -7e-4 -3e-4 -0.0013-6e-4 -0.0012-5e-4 -0.0033-0.0014-0.0061-0.0026-0.0056-0.0023-0.0143-6e-3 -0.0259-0.011-0.0233-0.01-0.0584-0.0251-0.1046-0.0451-0.0924-0.04-0.229-0.0998-0.4036-0.1774-0.3492-0.1555-0.8496-0.3825-1.4507-0.6677-1.204-0.5711-2.8034-1.3711-4.3976-2.2908-1.6023-0.9244-3.1608-1.9479-4.3059-2.9609-0.5726-0.5065-1.0125-0.985-1.3032-1.421-0.2941-0.4412-0.3906-0.7713-0.3906-1.0019h-2zm14 8.5h-6.5v2h6.5v-2zm-7.3107 1.5855c2.4222 3.3538 6.2611 5.6186 10.179 7.0821 3.93 1.4683 8.0463 2.1706 11.158 2.3297l0.1021-1.9974c-2.9309-0.1498-6.8429-0.8169-10.561-2.2058-3.7302-1.3936-7.1585-3.4737-9.2572-6.3796l-1.6214 1.171zm21.668 9.929c0.1988-0.3314 0.3967-0.6753 0.5939-1.0296l-1.7476-0.9726c-0.1883 0.3383-0.3753 0.6632-0.5613 0.9732l1.715 1.029zm-0.1238 0.2099c0.0432-0.0733 0.0855-0.1451 0.1272-0.2157l-1.7218-1.0174c-0.0422 0.0713-0.0849 0.1438-0.1281 0.2169l1.7227 1.0162zm-16.734 10.776c10.4 0 14.534-7.0458 16.734-10.776l-1.7227-1.0161c-2.1792 3.6946-5.7976 9.7917-15.011 9.7917v2zm10.5 1c-2.9058 0-6.6622-0.4876-9.9188-2.8137l-1.1624 1.6274c3.7434 2.6739 7.987 3.1863 11.081 3.1863v-2zm24-23c0 14.309-12.902 23-24 23v2c11.902 0 26-9.3086 26-25h-2zm6.5-13c-0.9794 0-1.8698 0.5095-2.6016 1.2024-0.7428 0.7033-1.4161 1.6801-1.9831 2.8321-1.136 2.3079-1.9153 5.4609-1.9153 8.9655h2c0-3.2259 0.7207-6.0729 1.7097-8.0823 0.4955-1.0068 1.041-1.768 1.5638-2.263 0.5338-0.5055 0.9559-0.6547 1.2265-0.6547v-2zm-7 2h7v-2h-7v2zm-11.46 10.869c1.5589-2.9627 3.238-5.7116 5.1546-7.7124 1.9084-1.9922 3.9665-3.1566 6.3058-3.1566v-2c-3.0799 0-5.6252 1.5548-7.7501 3.7731-2.1166 2.2096-3.9006 5.1624-5.4802 8.1646l1.7699 0.9313z"/><path d="m35.14 23s-6.1398-8-6.1398-13c3.5 0 12.521 6.854 17.59 19" fill="none" stroke="#000" stroke-linecap="round" stroke-linejoin="round" stroke-width="2"/></g></svg>
