<?xml version="1.0" encoding="UTF-8"?>
<svg id="a" viewBox="0 0 72 72" xmlns="http://www.w3.org/2000/svg"><g id="b"><rect x="14.182" y="7.9787" width="34.043" height="55.942" rx="3.68" ry="3.68" fill="#9b9b9a"/><path d="M44.3929,54.9961H18.0135a.9747.9747,0,0,1-.9727-.9727V15.117a.9748.9748,0,0,1,.9727-.9727H44.3929a.9748.9748,0,0,1,.9727.9727V54.0234A.919.919,0,0,1,44.3929,54.9961Z" fill="#3f3f3f"/><path d="m46.285 7.6752a13.032 13.032 0 0 0-9.2634 22.202l-2.6729 8.5816 7.1733-5.6237a13.032 13.032 0 1 0 4.763-25.16z" fill="#fcea2b"/></g><g id="c"><path d="M45.3656,37.4681V54.0234a.919.919,0,0,1-.9727.9727H18.0135a.9747.9747,0,0,1-.9727-.9727V15.117a.9748.9748,0,0,1,.9727-.9727H31.572" fill="none" stroke="#000" stroke-linecap="round" stroke-linejoin="round" stroke-width="2"/><circle cx="31.203" cy="59.252" r="1.9453"/><line x1="33.334" x2="26.34" y1="11.226" y2="11.226" fill="none" stroke="#000" stroke-linecap="round" stroke-linejoin="round" stroke-width="2"/><path d="m48.225 36.861v23.38a3.6908 3.6908 0 0 1-3.68 3.68h-26.683a3.6908 3.6908 0 0 1-3.68-3.68v-48.582a3.6908 3.6908 0 0 1 3.68-3.68h19.109" fill="none" stroke="#000" stroke-linecap="round" stroke-linejoin="round" stroke-width="2"/><polyline points="46.892 26.339 46.892 20.594 43.989 20.594" fill="none" stroke="#000" stroke-linecap="round" stroke-linejoin="round" stroke-width="2.5"/><line x1="49.652" x2="43.923" y1="26.339" y2="26.339" fill="none" stroke="#000" stroke-linecap="round" stroke-linejoin="round" stroke-width="2.5"/><circle cx="46.589" cy="15.602" r="1.9093"/><path d="m46.285 7.6752a13.026 13.026 0 0 0-9.0289 22.425l-2.6037 8.36 7.0766-5.5479a13.03 13.03 0 1 0 4.556-25.236z" fill="none" stroke="#000" stroke-linecap="round" stroke-linejoin="round" stroke-width="2"/></g></svg>
