<?xml version="1.0" encoding="UTF-8"?>
<svg id="a" viewBox="0 0 72 72" xmlns="http://www.w3.org/2000/svg"><g id="b"><circle cx="51.18" cy="40.086" r="4.8013" fill="#6a462f"/><circle cx="58.331" cy="47.881" r="4.8013" fill="#3f3f3f"/><circle cx="49.451" cy="30.634" r="2.552" fill="#a57939"/><circle cx="26.774" cy="23.151" r="1.2785" fill="#3f3f3f"/><circle cx="27.517" cy="30.102" r="1.2785" fill="#3f3f3f"/><circle cx="30.796" cy="34.268" r="1.2785" fill="#3f3f3f"/><circle cx="37.203" cy="34.469" r="2.552" fill="#6a462f"/><circle cx="34.743" cy="22.327" r="2.552" fill="#a57939"/><circle cx="38.542" cy="42.584" r="2.552" fill="#3f3f3f"/><circle cx="32.83" cy="39.743" r="2.552" fill="#3f3f3f"/><circle cx="43.674" cy="37.124" r="2.552" fill="#3f3f3f"/><polygon points="27.807 59.185 20.907 34.315 21.963 30.046 19.099 18.163 17.63 16.196 14.297 19.248 13.016 25.362 8.976 59.185" fill="#a57939"/><polygon points="27.807 59.185 20.907 34.315 21.963 30.046 19.099 18.163 17.63 16.196 20.701 13.427 26.348 18.902 31.921 38.139 41.863 46.833 52.085 47.654 61.412 55.916 62.402 59.185" fill="#3f3f3f"/><circle cx="44.334" cy="47.187" r="2.552" fill="#3f3f3f"/></g><g id="c"><polyline points="49.452 47.493 52.085 47.654 61.412 55.916" fill="none" stroke="#000" stroke-linecap="round" stroke-linejoin="round" stroke-width="2"/><polyline points="9.08 58.591 13.016 25.362 14.297 19.248 20.701 13.427 26.348 18.902 28.209 25.424" fill="none" stroke="#000" stroke-linecap="round" stroke-miterlimit="10" stroke-width="2"/><line x1="20.907" x2="27.78" y1="34.315" y2="58.769" fill="none" stroke="#000" stroke-linecap="round" stroke-miterlimit="10" stroke-width="2"/><polyline points="21.963 30.046 19.099 18.163 17.63 16.196" fill="none" stroke="#000" stroke-linecap="round" stroke-miterlimit="10" stroke-width="2"/><path d="m34.651 34.469a2.552 2.552 0 1 1 2.552 2.552" fill="none" stroke="#000" stroke-linecap="round" stroke-miterlimit="10" stroke-width="2"/><circle cx="34.743" cy="22.327" r="2.552" fill="none" stroke="#000" stroke-linecap="round" stroke-miterlimit="10" stroke-width="2"/><path d="m49.451 28.082a2.5521 2.5521 0 1 1-2.552 2.552" fill="none" stroke="#000" stroke-linecap="round" stroke-miterlimit="10" stroke-width="2"/><path d="m58.864 43.109a4.8017 4.8017 0 0 1 2.5533 8.45" fill="none" stroke="#000" stroke-linecap="round" stroke-miterlimit="10" stroke-width="2"/><path d="m48.777 35.928a4.8018 4.8018 0 0 1 5.3262 7.9668" fill="none" stroke="#000" stroke-linecap="round" stroke-miterlimit="10" stroke-width="2"/><circle cx="44.334" cy="47.187" r="2.552" fill="none" stroke="#000" stroke-linecap="round" stroke-miterlimit="10" stroke-width="2"/><circle cx="32.83" cy="39.743" r="2.552" fill="none" stroke="#000" stroke-linecap="round" stroke-miterlimit="10" stroke-width="2"/><circle cx="45.433" cy="26.877" r="1.2785"/><circle cx="42.125" cy="31.038" r="1.2785"/><circle cx="38.08" cy="27.414" r="1.2785"/><circle cx="29.857" cy="19.738" r="1.2785"/><circle cx="33.105" cy="30.458" r="1.2785"/></g></svg>
