<?xml version="1.0" encoding="UTF-8"?>
<svg id="a" viewBox="0 0 72 72" xmlns="http://www.w3.org/2000/svg"><g id="b"><path d="m52.573 29.11c0-9.3149-7.1338-16.892-15.903-16.892s-15.903 7.5773-15.903 16.896c0.0027 0.4653 0.2238 11.609 12.961 31.245a3.4626 3.4626 0 0 0 2.8174 1.9343c1.8394 0 3.0941-2.0266 3.2162-2.2327 12.819-19.647 12.819-30.507 12.812-30.951zm-15.903 6.8035a7.0826 7.0826 0 1 1 7.0826-7.0826 7.0907 7.0907 0 0 1-7.0826 7.0826z" fill="#d22f27"/><path d="M52.5733,29.11c0-9.3149-7.1338-16.8923-15.9034-16.8923a14.96,14.96,0,0,0-3.8645.5254c8.3948.4493,15.0989,7.8225,15.0989,16.849.0068.4436.0068,11.3036-12.812,30.9509a5.8543,5.8543,0,0,1-.5865.7972,2.8549,2.8549,0,0,0,2.0393.9534c1.8394,0,3.0941-2.0266,3.2162-2.2327C52.58,40.4135,52.58,29.5534,52.5733,29.11Z" fill="#ea5a47"/></g><g id="c" fill="none" stroke="#000" stroke-linecap="round" stroke-linejoin="round" stroke-width="2"><path d="m36.545 62.294a3.4628 3.4628 0 0 1-2.8174-1.9343c-12.738-19.636-12.958-30.78-12.961-31.245 0-9.3191 7.1337-16.896 15.903-16.896s15.903 7.5773 15.903 16.892c0.0068 0.4436 0.0068 11.304-12.812 30.951-0.1221 0.206-1.3768 2.2326-3.2162 2.2326z"/><path d="m36.67 35.914a7.0826 7.0826 0 1 1 7.0827-7.0826 7.0906 7.0906 0 0 1-7.0827 7.0826z"/></g></svg>
