<?xml version="1.0" encoding="UTF-8"?>
<svg id="a" viewBox="0 0 72 72" xmlns="http://www.w3.org/2000/svg"><g id="b"><path d="m45.19 27.205h-24.768v9.561a15.642 15.642 0 0 0 15.571 15.662 16.001 16.001 0 0 0 9.0146-2.8228 153.3 153.3 0 0 0 0.1822-22.4z" fill="#f4aa41"/><path d="m45.19 27.205a165.78 165.78 0 0 1-0.0911 22.309 15.634 15.634 0 0 0 6.6472-12.839v-9.47z" fill="#e27022"/><polygon points="30.075 52.337 31.623 57.982 40.638 57.982 42.095 52.337" fill="#e27022"/><rect x="32.442" y="57.982" width="7.3756" height="6.4847" fill="#e27022"/><path d="m28.297 9.631a3.0064 3.0064 0 0 1 3.0049 2.7979v13.774h-3.0049z" fill="#3f3f3f"/><path d="M44.51,9.631a3.0064,3.0064,0,0,1,3.0049,2.7979V26.2034H44.51Z" fill="#3f3f3f"/></g><g id="c" fill="none" stroke="#000" stroke-linecap="round" stroke-width="2"><path d="m31.302 26.203v-13.568a3.0316 3.0316 0 0 0-3.0049-3.0049 3.0315 3.0315 0 0 0-3.0048 3.0049v13.568" stroke-miterlimit="10"/><path d="m47.514 26.203v-13.568a3.0315 3.0315 0 0 0-3.0044-3.0049 3.0316 3.0316 0 0 0-3.0049 3.0049v13.568" stroke-miterlimit="10"/><path d="m19.512 26.294v10.472a16.572 16.572 0 0 0 33.145 0v-10.472z" stroke-linejoin="round"/><polyline points="30.075 52.337 31.623 57.982 40.638 57.982 42.095 52.337" stroke-linejoin="round"/><polyline points="32.442 64.467 32.442 57.982 39.818 57.982 39.818 64.467" stroke-linejoin="round"/></g></svg>
