<?xml version="1.0" encoding="UTF-8"?>
<svg id="a" viewBox="0 0 72 72" xmlns="http://www.w3.org/2000/svg"><g id="b"><path d="M16.1186,27.56a2.7118,2.7118,0,0,1,1.9637-2.8255,17.2625,17.2625,0,0,1,6.2269-.7168c3.7851.4034,21.9981.4481,26.9155-.0285a2.7556,2.7556,0,0,1,.6613.0128c1.1645.1646,4.8415.7883,4.98,2.1175A42.1509,42.1509,0,0,1,57.3,32.95c-.0831,3.0935-.7715,6.7093-.0755,9.4055.391,1.5146-.8614,2.7788-.8956,3.699a2.6865,2.6865,0,0,1-1.4221,2.2887c-1.5.7893-4.2816,1.5862-8.6045.39-7.0219-1.9435-19.1322.1047-20.6047.37s-6.2844.3436-7.4841-.7385A10.0873,10.0873,0,0,1,16.6708,42.62c.0294-.8605.4091-1.7951.4574-2.778.1047-2.1307-.624-3.5323-.756-5.3821A20.4248,20.4248,0,0,1,16.236,30.36c.1642-.9546.8161-1.0084.8417-1.5977C17.1065,28.101,16.1772,28.3,16.1186,27.56Z" fill="#fcea2b"/><path d="m17.501 43.925s7.9653 0.9578 11.27 0 7.9814-1.5966 10.429-1.171 6.45 2.4286 9.888 2.5009a23.468 23.468 0 0 0 7.2454-1.2916c0.2539-0.0665 2.3388 3.4037-2.6721 4.9027a11.226 11.226 0 0 1-5.518 0.1643c-3.5358-0.7419-10.91-2.1133-13.964-1.3634a37.955 37.955 0 0 1-11.142 1.3449c-3.058-0.118-7.1756-0.2444-5.5359-5.0868z" fill="#f1b31c"/></g><g id="c" fill="none" stroke="#000"><g stroke-width="2"><path d="m53.116 49.041a5.4454 5.4454 0 0 1-3.0172 0.42c-1.7444-0.1649-9.25-1.7467-12.976-1.7928s-10.394 1.496-11.922 1.4873a33.594 33.594 0 0 1-6.276-0.5534" stroke-miterlimit="10"/><path d="m20.225 24.101a23.18 23.18 0 0 1 3.9214-0.3553c1.7227 0 8.3141 1.2013 12.976 1.1552a123.74 123.74 0 0 0 12.994-0.8262 7.9161 7.9161 0 0 1 3.2613-0.08" stroke-miterlimit="10"/><path d="m53.378 23.994s-2.3711 17.852-0.2619 25.046" stroke-linecap="round" stroke-linejoin="round"/><path d="m20.365 24.286s2.23 19.325 0.25 23.428" stroke-linecap="round" stroke-miterlimit="10"/><path d="m19.364 48.702a2.971 2.971 0 0 1-2.352-1.8341" stroke-miterlimit="10"/></g><path d="M26.0669,31.6663h4.3449a3.4017,3.4017,0,0,1,2.2795.8592,3.8063,3.8063,0,0,0,2.574,1.113c1.9031-.0691,1.7567-1.8258,7.0268-1.9722" stroke-linecap="round" stroke-linejoin="round" stroke-width="1.6"/><path d="M27.736,37.7425H33.32c.84,0,2.3659,1.9451,4.4633,2.0925s4.0724-2.2282,5.1207-2.2663c1.9031-.0691.9149.1381,6.185-.0083" stroke-linecap="round" stroke-linejoin="round" stroke-width="1.6"/><path d="M17.0777,47.0221a5.8667,5.8667,0,0,1-.2578-1.6364,1.9322,1.9322,0,0,1,.1837-.6757,1.6421,1.6421,0,0,0-.3692-1.4576,1.3983,1.3983,0,0,1-.2462-.8891,2.9824,2.9824,0,0,1,.5246-1.6419,1.9279,1.9279,0,0,0,.2007-1.7994,5.51,5.51,0,0,0-.25-.53c-.6477-1.21-.2123-1.6478.0258-2.4034s-1.1916-.62-.5007-2.1742q.0534-.12.1014-.2352a2.5077,2.5077,0,0,0-.4316-2.3747c-.1019-.1529-.0854-.4125.178-.8442.1233-.2021.235-.4042.3358-.6019.409-.8019.5671-1.4735-.0427-2.1356-.2028-.22-.0033-.7955.1608-1.58.3292-1.5747,3.8073-1.9821,3.8073-1.9821" stroke-miterlimit="10" stroke-width="2"/><path d="M52.7458,49.1465s4.867-1.1035,4.0471-3.7689a1.93,1.93,0,0,0-.1837-.6757,1.6421,1.6421,0,0,1,.3692-1.4576,1.3983,1.3983,0,0,0,.2463-.8891A2.9832,2.9832,0,0,0,56.7,40.7133a1.9279,1.9279,0,0,1-.2008-1.7994,5.5346,5.5346,0,0,1,.25-.53c.6477-1.21.2124-1.6477-.0258-2.4034s1.1916-.62.5008-2.1741q-.0536-.12-.1015-.2352a2.508,2.508,0,0,1,.4316-2.3747c.1019-.1529.0854-.4125-.178-.8443-.1233-.202-.235-.4041-.3358-.6018-.4089-.8019-.567-1.4735.0427-2.1356.2028-.22.0033-.7956-.1607-1.58-.3293-1.5747-3.8984-2.1018-3.8984-2.1018" stroke-miterlimit="10" stroke-width="2"/></g></svg>
