<?xml version="1.0" encoding="UTF-8"?>
<svg id="a" viewBox="0 0 72 72" xmlns="http://www.w3.org/2000/svg"><g id="b"><ellipse cx="36" cy="36" rx="19" ry="28" fill="#A57939"/><g fill="#6A462F"><path d="m36 64c-0.0154 0-0.019-0.0215-0.0044-0.0264 8.4649-2.8339 14.796-14.259 14.796-27.923 0-13.671-6.3386-25.102-14.811-27.928-0.068-0.02268-0.0531-0.1232 0.0186-0.1232 10.493 0 19 12.536 19 28s-8.5066 28-19 28z" clip-rule="evenodd" fill-rule="evenodd"/><path d="m35.996 63.974 0.3175 0.9482-0.3175-0.9482zm13.796-27.923c0 6.6832-1.5494 12.79-4.1049 17.549-2.561 4.7696-6.0885 8.1126-10.009 9.4251l0.635 1.8965c4.5444-1.5214 8.4151-5.308 11.136-10.376 2.7266-5.0779 4.3428-11.515 4.3428-18.496h-2zm-14.127-26.979c3.9235 1.3087 7.4543 4.6508 10.018 9.4215 2.5579 4.7603 4.1091 10.87 4.1091 17.558h2c0-6.9842-1.618-13.425-4.3474-18.504-2.7237-5.0689-6.5983-8.855-11.147-10.372l-0.6328 1.8972zm0.335-0.07182c4.8166 0 9.2921 2.8765 12.608 7.7625 3.3117 4.8805 5.3924 11.679 5.3924 19.238h2c0-7.9055-2.1726-15.107-5.7375-20.36-3.5612-5.248-8.5856-8.6395-14.262-8.6395v2zm18 27c0 7.5585-2.0807 14.357-5.3924 19.238-3.3155 4.886-7.791 7.7625-12.608 7.7625v2c5.6769 0 10.701-3.3915 14.262-8.6395 3.5649-5.2535 5.7375-12.455 5.7375-20.36h-2zm-17.702-28.825c0.4926 0.16432 0.6866 0.64631 0.6294 1.0269-0.0578 0.38534-0.3948 0.79848-0.9272 0.79848v-2c-0.6041 0-0.9844 0.4634-1.0506 0.90467-0.0655 0.43656 0.1549 0.98016 0.7156 1.1672l0.6328-1.8972zm-0.6197 55.851c-1.1251 0.3767-0.7896 1.9747 0.3219 1.9747v-2c1.0808 0 1.409 1.5549 0.3131 1.9218l-0.635-1.8965z"/></g><g fill="#6A462F"><path d="m36 61s-6-11.193-6-25c0-13.76 5.9591-24.924 5.9998-25-0.0287 0.0538-2.9998 5.6294-2.9998 12.5 0 6.9036 3 12.5 3 12.5s3 5.5964 3 12.5-3 12.5-3 12.5z" clip-rule="evenodd" fill-rule="evenodd"/><path d="m36 61-0.8814 0.4725c0.1742 0.3248 0.5128 0.5275 0.8814 0.5275s0.7072-0.2027 0.8814-0.5275l-0.8814-0.4725zm-2e-4 -50 0.8819 0.4713c0.2603-0.487 0.0766-1.0928-0.4104-1.3532-0.487-0.26034-1.0928-0.0767-1.3533 0.4102l0.8818 0.4717zm2e-4 25 0.8814-0.4725-0.8814 0.4725zm-7 0c0 7.0426 1.529 13.402 3.0508 17.992 0.7618 2.2976 1.5242 4.1589 2.098 5.4493 0.2869 0.6453 0.5269 1.1484 0.6963 1.4923 0.0848 0.172 0.1519 0.3043 0.1984 0.3947 0.0233 0.0452 0.0415 0.08 0.0541 0.104 0.0063 0.012 0.0113 0.0214 0.0148 0.028 0.0018 0.0033 0.0032 6e-3 0.0042 0.0079 5e-4 1e-3 1e-3 0.0018 0.0013 0.0025 2e-4 3e-4 4e-4 6e-4 4e-4 8e-4 2e-4 3e-4 3e-4 6e-4 0.8817-0.4719s0.8815-0.4723 0.8815-0.4721h1e-4c-1e-4 0-2e-4 -2e-4 -4e-4 -6e-4 -4e-4 -8e-4 -0.0012-0.0022-0.0023-0.0043-0.0022-0.0043-0.0059-0.0112-0.0109-0.0208-0.0101-0.0191-0.0256-0.0489-0.0463-0.089-0.0413-0.0803-0.1031-0.202-0.1825-0.363-0.1586-0.3221-0.3874-0.8014-0.663-1.4211-0.5512-1.2398-1.2888-3.0397-2.027-5.2661-1.4782-4.4584-2.9492-10.598-2.9492-17.363h-2zm6.118-25.471c-0.0635 0.1188-6.118 11.46-6.118 25.471h2c0-13.509 5.8636-24.494 5.8816-24.528l-1.7636-0.9434zm-1.118 12.971c0-3.2967 0.714-6.2986 1.4387-8.4923 0.7236-2.1906 1.4474-3.5442 1.443-3.536l-1.7639-0.9427c-0.0515 0.0965-3.1178 5.8501-3.1178 12.971h2zm2 12.5c0.8814-0.4725 0.8815-0.4723 0.8816-0.4721 0 1e-4 1e-4 2e-4 1e-4 3e-4l1e-4 1e-4c-1e-4 -1e-4 -3e-4 -5e-4 -7e-4 -0.0013-8e-4 -0.0015-0.0023-0.0043-0.0045-0.0085-0.0044-0.0084-0.0115-0.022-0.0212-0.0408-0.0194-0.0376-0.0489-0.0958-0.0873-0.1736-0.0766-0.1556-0.1882-0.3892-0.3231-0.6927-0.27-0.6073-0.6326-1.4918-0.9958-2.5873-0.7282-2.1963-1.4492-5.2113-1.4492-8.5241h-2c0 3.5908 0.779 6.8257 1.5508 9.1535 0.3868 1.1667 0.7742 2.1127 1.0667 2.7705 0.1463 0.3291 0.2691 0.5865 0.3565 0.764 0.0438 0.0887 0.0787 0.1575 0.1032 0.2052 0.0123 0.0239 0.0221 0.0425 0.029 0.0558 0.0035 0.0066 0.0063 0.0119 0.0084 0.0158 1e-3 2e-3 0.0019 0.0036 0.0026 0.0049 3e-4 6e-4 6e-4 0.0011 8e-4 0.0016 2e-4 2e-4 3e-4 5e-4 4e-4 7e-4s2e-4 5e-4 0.8816-0.472zm0 0c-0.8814 0.4725-0.8815 0.4723-0.8816 0.4721 0-1e-4 -1e-4 -2e-4 -1e-4 -3e-4l-1e-4 -1e-4c1e-4 1e-4 3e-4 5e-4 7e-4 0.0013 8e-4 0.0015 0.0023 0.0043 0.0045 0.0085 0.0044 0.0084 0.0115 0.022 0.0212 0.0408 0.0194 0.0376 0.0489 0.0958 0.0873 0.1736 0.0766 0.1556 0.1882 0.3892 0.3231 0.6927 0.27 0.6073 0.6326 1.4918 0.9958 2.5873 0.7282 2.1963 1.4492 5.2113 1.4492 8.5241h2c0-3.5908-0.779-6.8257-1.5508-9.1535-0.3868-1.1666-0.7742-2.1127-1.0667-2.7705-0.1463-0.3291-0.2691-0.5865-0.3565-0.764-0.0438-0.0887-0.0786-0.1575-0.1032-0.2052-0.0123-0.0239-0.022-0.0425-0.029-0.0558-0.0035-0.0066-0.0063-0.0119-0.0084-0.0158-1e-3 -2e-3 -0.0019-0.0036-0.0025-0.0049-4e-4 -6e-4 -7e-4 -0.0011-9e-4 -0.0016-2e-4 -2e-4 -3e-4 -5e-4 -4e-4 -6e-4 -1e-4 -3e-4 -2e-4 -6e-4 -0.8816 0.4719zm2 12.5c0 3.3128-0.721 6.3278-1.4492 8.5241-0.3632 1.0955-0.7258 1.98-0.9958 2.5873-0.1349 0.3035-0.2465 0.5371-0.3231 0.6927-0.0384 0.0778-0.0679 0.136-0.0873 0.1736-0.0097 0.0188-0.0168 0.0324-0.0212 0.0408-0.0022 0.0042-0.0037 7e-3 -0.0045 0.0085-4e-4 8e-4 -6e-4 0.0012-7e-4 0.0013l1e-4 -1e-4c0-1e-4 1e-4 -2e-4 1e-4 -3e-4 1e-4 -2e-4 2e-4 -4e-4 0.8816 0.4721s0.8815 0.4722 0.8816 0.472 2e-4 -5e-4 4e-4 -7e-4c2e-4 -5e-4 5e-4 -1e-3 9e-4 -0.0016 6e-4 -0.0013 0.0015-0.0029 0.0025-0.0049 0.0021-0.0039 0.0049-0.0092 0.0084-0.0158 0.0069-0.0133 0.0167-0.0319 0.029-0.0558 0.0245-0.0477 0.0594-0.1165 0.1032-0.2052 0.0874-0.1775 0.2102-0.4349 0.3565-0.764 0.2925-0.6578 0.6799-1.6038 1.0667-2.7705 0.7718-2.3278 1.5508-5.5627 1.5508-9.1535h-2z"/></g></g><g id="c" fill="none" stroke="#000" stroke-width="2"><ellipse cx="36" cy="36" rx="19" ry="28"/><path d="m36 36s-3-5.5964-3-12.5 3-12.5 3-12.5" stroke-linecap="round" stroke-linejoin="round"/><path d="m36 36s3 5.5964 3 12.5-3 12.5-3 12.5" stroke-linecap="round" stroke-linejoin="round"/></g></svg>
