<?xml version="1.0" encoding="UTF-8"?>
<svg id="a" version="1.1" viewBox="0 0 72 72" xmlns="http://www.w3.org/2000/svg"><g id="b"><path d="m54.625 48.824c0 11.975-7.1612 18.391-16.249 18.391-10.13-1.8157-18.502-4.0812-16.617-31.153" fill="#FCEA2B"/><line x1="54.832" x2="54.832" y1="49.886" y2="37.886" fill="none"/><path d="m47.839 37.592c0.081-1.9313 1.7123-3.4313 3.6436-3.3502s3.4313 1.7123 3.3502 3.6436" fill="#FCEA2B"/><path d="m40.842 37.359c0.081-1.9313 1.7123-3.4313 3.6436-3.3502s3.4313 1.7123 3.3502 3.6436" fill="#FCEA2B"/><path d="m40.846 37.225c0.155-1.9268 1.8426-3.3631 3.7694-3.2081s3.3631 1.8426 3.2081 3.7694" fill="#FCEA2B"/><path d="m33.805 36.881c0.1237-1.929 1.7878-3.3925 3.7168-3.2688s3.3925 1.7878 3.2688 3.7168" fill="#FCEA2B"/><path d="m22.292 46.185c-5.8672-7.6195-6.7449-10.687-5.3546-12.03s5.6942 0.7837 7.0371 2.1741" fill="#FCEA2B"/><path d="m26.805 14.509c0-1.933 1.567-3.5 3.5-3.5s3.5 1.567 3.5 3.5" fill="#FCEA2B"/><line x1="33.805" x2="33.805" y1="36.844" y2="14.509" fill="none"/><line x1="26.805" x2="26.805" y1="14.509" y2="42.299" fill="none"/><line x1="23.844" x2="21.886" y1="36.455" y2="34.242" fill="none"/><path d="m18.619 41.424c1.9526 2.1439 3.3734 5.1677 3.3013 9.5218" fill="#FCEA2B"/><line x1="16.851" x2="18.672" y1="39.104" y2="41.485" fill="none"/><polygon points="33.915 41.924 26.852 39.957 26.852 14.174 33.805 14.174" fill="#FCEA2B"/><rect x="33.915" y="36.844" width="20.921" height="12.226" fill="#FCEA2B"/><polygon points="26.805 40.065 24.149 39.07 24.658 35.884 26.822 38.814" fill="#FCEA2B"/></g><g id="c" fill="none" stroke="#000" stroke-linecap="round" stroke-linejoin="round" stroke-miterlimit="10" stroke-width="2"><path d="m33.79 23.71c4.13-1.45 7.09-5.39 7.09-10.02 0-5.87-4.75-10.63-10.62-10.63s-10.62 4.76-10.62 10.63c0 4.65 2.99 8.6 7.15 10.04"/><path d="m54.816 50.774c0 9.0883-7.3675 16.456-16.456 16.456s-16.456-7.3675-16.456-16.456"/><line x1="54.816" x2="54.816" y1="49.901" y2="37.901"/><path d="m47.824 37.607c0.081-1.9313 1.7123-3.4313 3.6436-3.3502s3.4313 1.7123 3.3502 3.6436"/><path d="m40.827 37.374c0.081-1.9313 1.7123-3.4313 3.6436-3.3502s3.4313 1.7123 3.3502 3.6436"/><path d="m40.831 37.241c0.155-1.9268 1.8426-3.3631 3.7694-3.2081s3.3631 1.8426 3.2081 3.7694"/><path d="m33.79 36.896c0.1237-1.929 1.7878-3.3925 3.7168-3.2688s3.3925 1.7878 3.2688 3.7168"/><path d="m16.836 39.12c-1.3429-1.3904-1.3044-3.6061 0.086-4.949s3.6061-1.3044 4.949 0.086"/><path d="m26.79 14.524c0-1.933 1.567-3.5 3.5-3.5s3.5 1.567 3.5 3.5"/><line x1="33.79" x2="33.79" y1="36.859" y2="14.524"/><line x1="26.79" x2="26.79" y1="14.524" y2="42.314"/><line x1="23.829" x2="21.871" y1="36.47" y2="34.257"/><path d="m18.603 41.44c1.9526 2.1439 3.3734 5.1677 3.3013 9.5218"/><line x1="16.836" x2="18.657" y1="39.12" y2="41.5"/><path d="m54.832 50.759c0 9.0883-7.3675 16.456-16.456 16.456s-16.456-7.3675-16.456-16.456"/></g></svg>
