<?xml version="1.0" encoding="UTF-8"?>
<svg id="a" version="1.1" viewBox="0 0 72 72" xmlns="http://www.w3.org/2000/svg"><g id="b"><ellipse cx="14.229" cy="31.724" rx="3.9999" ry="3.9999" fill="#92D3F5"/></g><g id="c"><path d="m61.471 44.012-0.7338-0.9323 0.5161-0.6151-14.022-11.766-11.572 13.791-12.789-10.732-0.1182 0.1408c-0.1689-0.2877-0.378-0.5572-0.6481-0.7839-1.2691-1.065-3.1613-0.8995-4.2264 0.3696-1.065 1.2692-0.8995 3.1614 0.3696 4.2264 0.2701 0.2267 0.5718 0.3859 0.8844 0.5023l-0.1182 0.1408 15.582 13.076-0.8936-0.4675-3.5975 0.181-3.9475 3.527 0.2182 2.9125 3.8056 0.5209 7.279 0.9478 3.7792 3.1711-0.1135 0.1461 0.912 0.524 1.2171 1.0212 0.1823-0.2173 0.3185 0.183 0.908-0.0889 4.4343 1.0218 6.5264-1.9713 4.7385-4.2371 2.5898-6.7361-1.4817-7.8561z" fill="#FCEA2B"/></g><g id="d" fill="none" stroke="#000" stroke-linecap="round" stroke-linejoin="round" stroke-miterlimit="10" stroke-width="2"><path d="m57.855 39.586c5.9803 5.018 6.7603 13.934 1.7423 19.914s-13.934 6.7603-19.914 1.7423"/><line x1="57.28" x2="49.384" y1="39.104" y2="32.478"/><path d="m45.33 36.917c-1.2261-1.1197-1.3124-3.0213-0.1927-4.2474s3.0213-1.3124 4.2474-0.1927"/><path d="m41.314 41.393c-1.2261-1.1197-1.3124-3.0213-0.1927-4.2474s3.0213-1.3124 4.2474-0.1927"/><path d="m41.228 41.316c-1.1823-1.1659-1.1956-3.0694-0.0297-4.2516 1.1658-1.1823 3.0694-1.1956 4.2516-0.0297"/><path d="m37.113 45.759c-1.201-1.1465-1.2452-3.0496-0.0987-4.2506s3.0496-1.2453 4.2506-0.0988"/><path d="m29.215 58.143c-1.6564 0.116-3.0931-1.1328-3.2091-2.7891s1.1328-3.0931 2.7891-3.2091"/><path d="m18.527 38.013c-1.2719-1.0673-1.4379-2.9636-0.3706-4.2356s2.9636-1.4379 4.2356-0.3706"/><line x1="37.089" x2="22.392" y1="45.739" y2="33.407"/><line x1="18.527" x2="36.813" y1="38.013" y2="53.357"/><line x1="31.333" x2="28.795" y1="52.079" y2="52.145"/><path d="m31.718 58.261c2.4888-0.1011 5.263 0.6335 8.0883 3.0851"/><line x1="29.215" x2="31.787" y1="58.143" y2="58.259"/><path d="m17.09 30.817c-0.165-0.5297-0.4788-1.0198-0.9353-1.4029-1.2692-1.065-3.1615-0.8995-4.2265 0.3698-1.065 1.2692-0.8995 3.1615 0.3698 4.2265 0.6346 0.5325 1.425 0.7574 2.1898 0.6905"/><line x1="13.466" x2="13.466" y1="24.552" y2="7.466"/><line x1="8.2932" x2="13.494" y1="11.337" y2="6.1355"/><line x1="18.696" x2="13.494" y1="11.337" y2="6.1355"/></g></svg>
