<?xml version="1.0" encoding="UTF-8"?>
<svg id="a" version="1.1" viewBox="0 0 72 72" xmlns="http://www.w3.org/2000/svg"><g id="b"><path d="m45.5 25.1h-3.75c0-3.18-2.57-5.75-5.75-5.75s-5.75 2.57-5.75 5.75h-3.75c0-5.25 4.25-9.5 9.5-9.5s9.5 4.25 9.5 9.5z" fill="#9B9B9A"/><rect x="10.83" y="25.1" width="50.17" height="30.9" fill="#D0CFCE"/><polyline points="38.919 36.76 43.794 36.76 43.794 43.344 38.919 43.344 38.961 43.302 38.961 48.177 32.378 48.177 32.378 43.302" fill="#EA5A47"/><polyline points="32.336 43.344 27.544 43.344 27.544 36.76 32.336 36.76 32.378 36.719 32.378 31.927 38.961 31.927 38.961 36.719" fill="#EA5A47"/></g><g id="c" fill="none" stroke="#000" stroke-linecap="round" stroke-linejoin="round" stroke-miterlimit="10" stroke-width="2"><path d="m45.5 25.1h-3.75c0-3.18-2.57-5.75-5.75-5.75s-5.75 2.57-5.75 5.75h-3.75c0-5.25 4.25-9.5 9.5-9.5s9.5 4.25 9.5 9.5z"/><path d="m30.25 25.1c0-3.18 2.57-5.75 5.75-5.75s5.75 2.57 5.75 5.75"/><rect x="10.83" y="25.1" width="50.17" height="30.9"/><polyline points="38.919 36.76 43.794 36.76 43.794 43.344 38.919 43.344 38.961 43.302 38.961 48.177 32.378 48.177 32.378 43.302"/><polyline points="32.336 43.344 27.544 43.344 27.544 36.76 32.336 36.76 32.378 36.719 32.378 31.927 38.961 31.927 38.961 36.719"/></g></svg>
