<?xml version="1.0" encoding="UTF-8"?>
<svg id="a" viewBox="0 0 72 72" xmlns="http://www.w3.org/2000/svg"><g id="b" fill="#61b2e4" stroke-linecap="round" stroke-linejoin="round" stroke-miterlimit="10" stroke-width="2"><path d="m52.167 42.284h-32.333v-18.154c0-7.831 6.3483-14.179 14.179-14.179h4.1003c7.7617 0 14.054 6.2921 14.054 14.054v18.28z"/><path d="M61,55.0208h-8.8333V28h3.7829C58.7388,28,61,30.2612,61,33.0505V55.0208z"/><rect x="19.833" y="42.284" width="32.333" height="12.736"/><path d="m52.167 42.284h-32.333v-3.3504c0-2.1612 1.752-3.9133 3.9133-3.9133h23.683c2.6162 0 4.737 2.1208 4.737 4.737v2.5267z"/><path d="M11,55.0208h8.8333V28h-3.7829C13.2612,28,11,30.2612,11,33.0505V55.0208z"/></g><g id="c"><path d="m52.167 42.284h-32.333v-18.154c0-7.831 6.3483-14.179 14.179-14.179h4.1003c7.7617 0 14.054 6.2921 14.054 14.054v18.28z" fill="none" stroke="#000" stroke-linecap="round" stroke-linejoin="round" stroke-miterlimit="10" stroke-width="2"/><path d="M61,55.0208h-8.8333V28h3.7829C58.7388,28,61,30.2612,61,33.0505V55.0208z" fill="none" stroke="#000" stroke-linecap="round" stroke-linejoin="round" stroke-miterlimit="10" stroke-width="2"/><rect x="19.833" y="42.284" width="32.333" height="12.736" fill="none" stroke="#000" stroke-linecap="round" stroke-linejoin="round" stroke-miterlimit="10" stroke-width="2"/><path d="m52.167 42.284h-32.333v-3.3504c0-2.1612 1.752-3.9133 3.9133-3.9133h23.683c2.6162 0 4.737 2.1208 4.737 4.737v2.5267z" fill="none" stroke="#000" stroke-linecap="round" stroke-linejoin="round" stroke-miterlimit="10" stroke-width="2"/><path d="M11,55.0208h8.8333V28h-3.7829C13.2612,28,11,30.2612,11,33.0505V55.0208z" fill="none" stroke="#000" stroke-linecap="round" stroke-linejoin="round" stroke-miterlimit="10" stroke-width="2"/><circle cx="29.769" cy="18.71" r="1.1672"/><circle cx="42.56" cy="18.71" r="1.1672"/><circle cx="29.769" cy="27.438" r="1.1672"/><circle cx="42.56" cy="27.438" r="1.1672"/></g></svg>
