<?xml version="1.0" encoding="UTF-8"?>
<svg id="a" viewBox="0 0 72 72" xmlns="http://www.w3.org/2000/svg"><g id="b"><polygon points="45 66 27 66 27 28 36 28 45 25" fill="#EA5A47"/><polygon points="33 66 45 33 45 66" fill="#D22F27"/><polygon points="45 25 45 36 27 36 27 28 36 28" fill="#D0CFCE"/><line x1="36" x2="36" y1="28" y2="35" fill="#D0CFCE"/><path d="M35,17.7143C35,20.8571,33.2091,25,31,25s-4-4.1429-4-7.2857C27,11.8865,31,9,31,6C31,9,35,11.4286,35,17.7143z" fill="#F1B31C" stroke-linecap="round" stroke-linejoin="round" stroke-miterlimit="10" stroke-width="2"/></g><g id="c" fill="none" stroke="#000" stroke-linecap="round" stroke-linejoin="round" stroke-miterlimit="10" stroke-width="2"><polygon points="45 66 27 66 27 28 36 28 45 25"/><path d="M35,17.7143C35,20.8571,33.2091,25,31,25s-4-4.1429-4-7.2857C27,11.8865,31,9,31,6C31,9,35,11.4286,35,17.7143z"/><path d="M35,17.7143C35,20.8571,33.2091,25,31,25s-4-4.1429-4-7.2857C27,11.8865,31,9,31,6C31,9,35,11.4286,35,17.7143z"/><line x1="27" x2="45" y1="35" y2="35"/><line x1="36" x2="36" y1="28" y2="31"/></g></svg>
