<?xml version="1.0" encoding="UTF-8"?>
<svg id="a" viewBox="0 0 72 72" xmlns="http://www.w3.org/2000/svg"><g id="b"><rect x="4.7004" y="20.147" width="62.599" height="38.705" rx="3.4092" ry="3.4092" fill="#d0cfce"/><rect x="31.396" y="10.599" width="9.0029" height="15.673" rx="1.5573" ry="1.5573" fill="#9b9b9a"/><path d="m17.403 30.651h37.703a5.7472 5.7472 0 0 1 5.7472 5.7472v14.304a2.9184 2.9184 0 0 1-2.9184 2.9184h-45.152a2.9184 2.9184 0 0 1-2.9184-2.9184v-12.513a7.5386 7.5386 0 0 1 7.5386-7.5385z" fill="#9b9b9a"/><rect x="11.474" y="31.367" width="48" height="19.731" rx="2.9184" ry="2.9184" fill="#fff"/></g><g id="c" fill="none" stroke="#000" stroke-width="2"><path d="m40.502 20.647h23.389a3.4091 3.4091 0 0 1 3.4095 3.4092v31.887a3.4091 3.4091 0 0 1-3.4091 3.4092h-55.781a3.4091 3.4091 0 0 1-3.41-3.4092v-31.887a3.4091 3.4091 0 0 1 3.41-3.4092h23.286" stroke-linecap="round" stroke-linejoin="round"/><rect x="11.474" y="31.367" width="48" height="19.731" rx="2.9184" ry="2.9184" stroke-linecap="round" stroke-linejoin="round"/><polyline points="52.396 38.141 48.396 38.141 48.396 45.141 52.396 45.141" stroke-linecap="round" stroke-linejoin="round"/><line x1="48.396" x2="51.396" y1="41.641" y2="41.641" stroke-linecap="round" stroke-linejoin="round"/><polyline points="34.396 45.141 31.396 38.141 28.396 45.141" stroke-linecap="round" stroke-linejoin="round"/><line x1="29.396" x2="33.396" y1="43.465" y2="43.465" stroke-linecap="round" stroke-linejoin="round"/><polyline points="19.396 45.141 19.396 38.141 24.396 45.141 24.396 38.141" stroke-linecap="round" stroke-linejoin="round"/><polyline points="44.396 45.141 44.396 38.141 41.396 44.141 38.396 38.141 38.396 45.141" stroke-linecap="round" stroke-linejoin="round"/><rect x="31.499" y="10.237" width="9.0029" height="15.673" rx="1.5573" ry="1.5573" stroke-miterlimit="10"/></g></svg>
