<?xml version="1.0" encoding="UTF-8"?>
<svg id="a" viewBox="0 0 72 72" xmlns="http://www.w3.org/2000/svg"><g id="b"><path d="m22 16h28v6h-27l-5-4 4-2z" fill="#fff"/><path d="m50 21v35c0 2.2091-1.7909 4-4 4h-20c-2.2091 0-4-1.7909-4-4v-35h28z" clip-rule="evenodd" fill="#A57939" fill-rule="evenodd"/><path d="M35.5 5C33.567 5 32 6.567 32 8.5C32 9.0368 32.1208 9.54537 32.3368 10H38.6632C38.8792 9.54537 39 9.0368 39 8.5C39 6.567 37.433 5 35.5 5Z" fill="#3F3F3F"/><path d="m34 15.5h3v10.5l-3-2v-8.5z" fill="#9B9B9A"/><path d="m50 16.5v-1.5c0-1.6569-1.3431-3-3-3h-22c-1.6569 0-3 1.3431-3 3v1.5h28z" clip-rule="evenodd" fill="#3F3F3F" fill-rule="evenodd"/><path d="m50 56h-28c0 2.2091 1.7909 4 4 4h20c2.2091 0 4-1.7909 4-4z" clip-rule="evenodd" fill="#6A462F" fill-rule="evenodd"/><path d="m50 46v4c7.732 0 14-6.268 14-14s-6.268-14-14-14v4c5.5228 0 10 4.4772 10 10s-4.4772 10-10 10z" clip-rule="evenodd" fill="#3F3F3F" fill-rule="evenodd"/><path d="M35.5 5C33.567 5 32 6.567 32 8.5C32 9.0368 32.1208 9.54537 32.3368 10H38.6632C38.8792 9.54537 39 9.0368 39 8.5C39 6.567 37.433 5 35.5 5Z" fill="none" stroke="#3F3F3F" stroke-linecap="round" stroke-width="2"/></g><g id="c"><g id="d"><path d="m22 15c0-1.6569 1.3431-3 3-3h22c1.6569 0 3 1.3431 3 3v41c0 2.2091-1.7909 4-4 4h-20c-2.2091 0-4-1.7909-4-4v-34.5l-4.5-3.5 4.5-2.5v-0.5z" clip-rule="evenodd" fill="none" fill-rule="evenodd" stroke="#000" stroke-linejoin="round" stroke-width="2"/></g><path d="m50 50h-1v1h1v-1zm0-4v-1h-1v1h1zm0-24v-1h-1v1h1zm0 4h-1v1h1v-1zm1 24v-4h-2v4h2zm12-14c0 7.1797-5.8203 13-13 13v2c8.2843 0 15-6.7157 15-15h-2zm-13-13c7.1797 0 13 5.8203 13 13h2c0-8.2843-6.7157-15-15-15v2zm1 3v-4h-2v4h2zm-1 1c4.9706 0 9 4.0294 9 9h2c0-6.0751-4.9249-11-11-11v2zm9 9c0 4.9706-4.0294 9-9 9v2c6.0751 0 11-4.9249 11-11h-2z"/><path d="m22 15.5h25" fill="none" stroke="#000" stroke-linecap="round" stroke-width="2"/><path d="m32.337 10c-0.216-0.45463-0.3368-0.9632-0.3368-1.5 0-1.933 1.567-3.5 3.5-3.5s3.5 1.567 3.5 3.5c0 0.5368-0.1208 1.0454-0.3368 1.5" fill="none" stroke="#000" stroke-linecap="round" stroke-width="2"/><path d="m34 16v8" fill="none" stroke="#000" stroke-linecap="round" stroke-width="2"/><line x1="37" x2="37" y1="16" y2="26" stroke="#000" stroke-linecap="round" stroke-width="2"/><line x1="23" x2="31" y1="22" y2="22" stroke="#000" stroke-linecap="round" stroke-width="2"/><path d="m40 22h10" fill="none" stroke="#000" stroke-linecap="round" stroke-width="2"/></g></svg>
