<?xml version="1.0" encoding="UTF-8"?>
<svg id="a" viewBox="0 0 72 72" xmlns="http://www.w3.org/2000/svg"><g id="b"><path d="m16.617 37.555c0.2202-1.4686 1.4818-2.555 2.9668-2.555h13.833c1.485 0 2.7466 1.0864 2.9668 2.555l2.1 14c0.2721 1.8138-1.1327 3.445-2.9668 3.445h-18.033c-1.8341 0-3.2389-1.6312-2.9668-3.445l2.1-14z" fill="#fff"/><path d="m20.744 35h-1.1603c-1.485 0-2.7466 1.0864-2.9668 2.555l-2.1 14c-0.0512 0.3407-0.0431 0.6751 0.0159 0.9933-1.4994-0.73-2.5327-2.2685-2.5327-4.0483v-12c0-2.4853 2.0147-4.5 4.5-4.5 1.9593 0 3.6262 1.2522 4.2439 3z" clip-rule="evenodd" fill="#fff" fill-rule="evenodd"/><path d="m18 55h17c1.6569 0 3-1.3431 3-3v-7h-23v7c0 1.6569 1.3431 3 3 3z" clip-rule="evenodd" fill="#6A462F" fill-rule="evenodd"/><path d="m13 12c-0.5523 0-1 0.4477-1 1v13h31v29h-31v4c0 0.5523 0.4477 1 1 1h46c0.5523 0 1-0.4477 1-1v-46c0-0.5523-0.4477-1-1-1h-46z" clip-rule="evenodd" fill="#fff" fill-rule="evenodd"/><rect x="49" y="19" width="4" height="20" rx="1" fill="#D0CFCE"/><circle cx="51.5" cy="46.5" r="2.5" fill="#D22F27" stroke="#D0CFCE" stroke-width="2"/><rect x="17" y="29" width="19" height="6" fill="#fff"/></g><g id="c"><path d="m19.584 35c-1.485 0-2.7466 1.0864-2.9668 2.555l-2.1 14c-0.0512 0.3407-0.0431 0.6751 0.0159 0.9933-1.4994-0.73-2.5327-2.2685-2.5327-4.0483v-12c0-2.4853 2.0147-4.5 4.5-4.5" fill="none" stroke="#000" stroke-linecap="round" stroke-width="2"/><path d="m12 26h-1c0 0.5523 0.4477 1 1 1v-1zm31 0h1c0-0.5523-0.4477-1-1-1v1zm0 29v1c0.5523 0 1-0.4477 1-1h-1zm-31 0v-1c-0.5523 0-1 0.4477-1 1h1zm1-42v-2c-1.1046 0-2 0.8954-2 2h2zm0 13v-13h-2v13h2zm-1 1h31v-2h-31v2zm30-1v29h2v-29h-2zm1 28h-31v2h31v-2zm-30 5v-4h-2v4h2zm0 0h-2c0 1.1046 0.8954 2 2 2v-2zm46 0h-46v2h46v-2zm0 0v2c1.1046 0 2-0.8954 2-2h-2zm0-46v46h2v-46h-2zm0 0h2c0-1.1046-0.8954-2-2-2v2zm-46 0h46v-2h-46v2z"/><path d="m12 26h30.5" fill="none" stroke="#000" stroke-width="2"/><path d="M40 26V12.5" fill="none" stroke="#000" stroke-width="2"/><line x1="12" x2="60" y1="55" y2="55" stroke="#000" stroke-width="2"/><path d="m51.5 49c-1.3807 0-2.5-1.1193-2.5-2.5s1.1193-2.5 2.5-2.5" fill="none" stroke="#000" stroke-linecap="round" stroke-width="2"/><path d="m16.617 37.555c0.2202-1.4686 1.4818-2.555 2.9668-2.555h13.833c1.485 0 2.7466 1.0864 2.9668 2.555l2.1 14c0.2721 1.8138-1.1327 3.445-2.9668 3.445h-18.033c-1.8341 0-3.2389-1.6312-2.9668-3.445l2.1-14z" fill="none" stroke="#000" stroke-width="2"/><rect x="17" y="29" width="19" height="6" fill="none" stroke="#000" stroke-linejoin="round" stroke-width="2"/><line x1="50" x2="50" y1="20" y2="38" stroke="#000" stroke-linecap="round" stroke-width="2"/><path d="m50 20h2" fill="none" stroke="#000" stroke-linecap="round" stroke-width="2"/><path d="m50 38h2" fill="none" stroke="#000" stroke-linecap="round" stroke-width="2"/><path d="m50 29h2" fill="none" stroke="#000" stroke-linecap="round" stroke-width="2"/></g></svg>
