<?xml version="1.0" encoding="UTF-8"?>
<svg id="a" version="1.1" viewBox="0 0 72 72" xmlns="http://www.w3.org/2000/svg"><g id="b"><polygon points="16.564 17.064 54.249 17.064 57.374 27.911 60.132 27.911 60.132 41.997 56.961 41.997 50.389 56.979 19.229 56.979 13.255 42.77 11.049 42.77 11.049 26.532 13.255 26.532" fill="#9B9B9A"/><circle cx="25.388" cy="29.275" r="5.8826" fill="#D0CFCE"/><circle cx="27.41" cy="46.11" r="4.0443" fill="#D0CFCE"/><circle cx="44.322" cy="36.023" r="7.8499" fill="#D0CFCE"/><path d="M20.75,15.9438c0-1.5947,1.1753-2.8875,2.625-2.8875S26,14.349,26,15.9438" fill="#fff"/><path d="m28.625 15.944c0-1.5947 1.1753-2.8875 2.625-2.8875s2.625 1.2928 2.625 2.8875" fill="#fff"/><path d="m36.5 15.944c0-1.5947 1.1753-2.8875 2.625-2.8875s2.625 1.2928 2.625 2.8875" fill="#fff"/><path d="m44.375 15.944c0-1.5947 1.1753-2.8875 2.625-2.8875s2.625 1.2928 2.625 2.8875" fill="#fff"/></g><g id="c" fill="none" stroke="#000" stroke-linecap="round" stroke-linejoin="round" stroke-miterlimit="10" stroke-width="2"><polygon points="16.564 17.064 54.249 17.064 57.374 27.911 60.132 27.911 60.132 41.997 56.961 41.997 50.389 56.979 19.229 56.979 13.255 42.77 11.049 42.77 11.049 26.532 13.255 26.532"/><circle cx="25.388" cy="29.275" r="5.8826"/><circle cx="27.41" cy="46.11" r="4.0443"/><circle cx="44.322" cy="36.023" r="7.8499"/><line x1="25.388" x2="44.322" y1="23.392" y2="28.173"/><path d="m19.505 29.275s2.2519 14.997 3.8605 18.444c1.6085 3.4468 4.0443 2.4358 4.0443 2.4358 4.0443-0.3677 20.91-7.3842 20.91-7.3842"/><path d="M20.75,15.9438c0-1.5947,1.1753-2.8875,2.625-2.8875S26,14.349,26,15.9438"/><path d="m28.625 15.944c0-1.5947 1.1753-2.8875 2.625-2.8875s2.625 1.2928 2.625 2.8875"/><path d="m36.5 15.944c0-1.5947 1.1753-2.8875 2.625-2.8875s2.625 1.2928 2.625 2.8875"/><path d="m44.375 15.944c0-1.5947 1.1753-2.8875 2.625-2.8875s2.625 1.2928 2.625 2.8875"/></g></svg>
