<?xml version="1.0" encoding="UTF-8"?>
<svg id="a" viewBox="0 0 72 72" xmlns="http://www.w3.org/2000/svg"><g id="b"><polygon points="37.489 32.657 34.22 32.657 32.88 62.518 35.44 62.518 36.126 62.518 38.686 62.518" fill="#d0cfce"/><g id="c"><rect x="6.0758" y="63.44" width="30.04" height="2.5875" fill="#b1cc33"/><rect x="35.844" y="63.452" width="30.266" height="2.5875" fill="#5c9e31"/></g><path d="M30.0819,19.1426a38.3952,38.3952,0,0,1,6.0426-.944H36.14a24.333,24.333,0,0,1,5.4164.944,1.26,1.26,0,0,1,.1722.0651,17.6007,17.6007,0,0,1-1.44,11.1333c-.2661.51-.5166.9115-.7044,1.2045a28.72,28.72,0,0,0-3.6788.0977H35.874a28.1185,28.1185,0,0,0-2.9587.4014,1.1556,1.1556,0,0,1-.6418-.434l-.047-.0651C31.209,30.0263,28.9548,25.7726,30.0819,19.1426Z" fill="#d0cfce"/><path d="m35.853 18.832v43.07h3.1125l-1.3336-29.256 2.0622-1.1119 2.0177-2.0044 0.4577-4.93-0.5344-5.4682s-6.0567-0.2994-5.7821-0.2994z" fill="#9b9b9a"/><path d="m35.868 8.5875c-0.8042 0-1.455-0.4473-1.455-1v-1.8369c0-0.5528 0.6508-1 1.455-1s1.455 0.4472 1.455 1v1.8369c0 0.5525-0.6508 1-1.455 1z" fill="#d22f27"/><rect x="34.414" y="7.4468" width="2.9128" height="2.0477" fill="#d0cfce"/><rect x="34.414" y="11.458" width="2.9128" height="2.0477" fill="#d0cfce"/><rect x="34.414" y="13.447" width="2.9128" height="2.0477" fill="#d22f27"/><rect x="34.414" y="9.4352" width="2.9128" height="2.0477" fill="#d22f27"/></g><g id="d"><rect x="32.66" y="15.16" width="6.8577" height="4.8372" rx=".8874" ry=".8874"/><polygon points="37.489 32.657 34.22 32.657 32.88 62.518 35.44 62.518 36.126 62.518 38.686 62.518" fill="none" stroke="#000" stroke-linecap="round" stroke-linejoin="round" stroke-width="2"/><path d="M29.9349,19.1426a16.3828,16.3828,0,0,0,11.7661,0s.0512.0251.1181.0616a24.71,24.71,0,0,1-1.0126,11.2271A4.8949,4.8949,0,0,1,39.6851,32.06c-.0507-.0216.0432,0,.0432,0" fill="none" stroke="#000" stroke-linecap="round" stroke-linejoin="round" stroke-width="2"/><path d="M41.8015,19.1426a16.3825,16.3825,0,0,1-11.766,0s-.0512.0251-.1182.0616A24.7124,24.7124,0,0,0,30.93,30.4313,4.8978,4.8978,0,0,0,32.0513,32.06c.0507-.0216-.0432,0-.0432,0" fill="none" stroke="#000" stroke-linecap="round" stroke-linejoin="round" stroke-width="2"/><path d="m41.384 27.535s-6.01 2.7857-10.855 0" fill="none" stroke="#000" stroke-linecap="round" stroke-linejoin="round" stroke-width="2"/><path d="m39.694 32.103a12.729 12.729 0 0 1-7.707-0.0643" fill="none" stroke="#000" stroke-linecap="round" stroke-linejoin="round" stroke-width="2"/><path d="m42.013 23.143s-6.186 2.6591-12.099-0.1334" fill="none" stroke="#000" stroke-linecap="round" stroke-linejoin="round" stroke-width="2"/><path d="M37.6314,7.7469V5.818c0-.6286-.7067-1.1372-1.58-1.1372s-1.58.5086-1.58,1.1372V17.7039h3.1627V7.7469Z" fill="none" stroke="#000" stroke-miterlimit="10" stroke-width="1.6"/><rect x="5.1354" y="62.528" width="61.962" height="4.5" fill="none" stroke="#000" stroke-linecap="round" stroke-linejoin="round" stroke-width="2"/><ellipse cx="35.832" cy="18.92" rx="6.777" ry="1.7045"/></g></svg>
