<?xml version="1.0" encoding="UTF-8"?>
<svg id="a" viewBox="0 0 72 72" xmlns="http://www.w3.org/2000/svg"><g id="b"><path d="M35.1143,20.4165a1,1,0,0,1-.8955-1.4448l.81-1.6323a1.041,1.041,0,0,1,1.791,0l.8008,1.6113a1,1,0,0,1-.8828,1.4448l-1.6113.021Z" fill="#fcea2b"/><rect x="31.771" y="20.233" width="8.4581" height="12.419" fill="#d0cfce"/><rect x="37.145" y="20.233" width="3.0945" height="12.419" fill="#9b9b9a"/><polygon points="45.949 62.528 42.395 36.204 36 36.204 29.605 36.204 26.051 62.528 36 62.528" fill="#d0cfce"/><path d="M39.9355,40.08a1,1,0,0,0-.9931-.8828H33.0576a1,1,0,0,0-.9931.8828L29.4233,62.41a1,1,0,0,0,.9932,1.1171H41.583a1.0009,1.0009,0,0,0,.9932-1.1171Z" fill="#9b9b9a"/><g id="c"><rect x="4" y="62.528" width="64.014" height="5.4724" fill="#92d3f5"/></g><polygon points="36 10.031 39.269 14.029 32.731 14.029" fill="#d0cfce"/><rect x="27.94" y="32.651" width="16.12" height="3.5527" fill="#d0cfce"/></g><g id="d" fill="none" stroke="#000" stroke-linecap="round" stroke-linejoin="round"><line x1="36" x2="36" y1="7.6143" y2="10.031" stroke-width="2"/><rect x="27.94" y="32.651" width="16.12" height="3.5527" stroke-width="2"/><rect x="31.771" y="20.233" width="8.4581" height="12.419" stroke-width="2"/><line x1="40.229" x2="31.771" y1="23.233" y2="23.233" stroke-width="2"/><line x1="41.136" x2="30.864" y1="20.233" y2="20.233" stroke-width="2"/><rect x="33.349" y="14.029" width="5.2692" height="6.2034" stroke-width="2"/><line x1="27.94" x2="27.035" y1="32.651" y2="31.04" stroke-width="2"/><line x1="44.06" x2="44.965" y1="32.651" y2="31.04" stroke-width="2"/><polygon points="36 10.031 39.269 14.029 32.731 14.029" stroke-width="2"/><polyline points="41.224 59.486 38.942 40.197 33.058 40.197 30.776 59.486" stroke-width="2"/><polygon points="45.949 62.528 42.395 36.204 36 36.204 29.605 36.204 26.051 62.528 36 62.528" stroke-width="2"/><line x1="5.004" x2="66.998" y1="62.528" y2="62.528" stroke-width="2.0005"/></g></svg>
