<?xml version="1.0" encoding="UTF-8"?>
<svg id="a" viewBox="0 0 72 72" xmlns="http://www.w3.org/2000/svg"><g id="b" stroke-linecap="round" stroke-linejoin="round" stroke-miterlimit="10" stroke-width="2"><path d="m20.945 45.979h30.041c5.5116 0 9.9797-4.4681 9.9797-9.9797s-4.4681-9.9797-9.9797-9.9797h-30.041c-5.5116 0-9.9797 4.4681-9.9797 9.9797 0 5.5117 4.468 9.9797 9.9797 9.9797z" fill="#d0cfce"/><circle cx="50.965" cy="36" r="10.001" fill="#b1cc33"/><path d="m43.962 43.072c3.9056 3.9056 10.238 3.9056 14.143 0s3.9056-10.238 0-14.143" fill="#5c9e31"/></g><g id="c" fill="none" stroke="#000" stroke-linecap="round" stroke-linejoin="round" stroke-miterlimit="10" stroke-width="2"><path d="m20.945 45.979h30.041c5.5116 0 9.9797-4.4681 9.9797-9.9797s-4.4681-9.9797-9.9797-9.9797h-30.041c-5.5116 0-9.9797 4.4681-9.9797 9.9797 0 5.5117 4.468 9.9797 9.9797 9.9797z"/><circle cx="50.965" cy="36" r="10.001"/><path d="m43.962 43.072c3.9056 3.9056 10.238 3.9056 14.143 0s3.9056-10.238 0-14.143"/></g></svg>
