<?xml version="1.0" encoding="UTF-8"?>
<svg id="a" viewBox="0 0 72 72" xmlns="http://www.w3.org/2000/svg"><g id="b"><path d="m15.042 14.976c-2.2091 0-4 1.7909-4 4v11.784l-0.0019 4.5314c-2e-4 0.2808 0.328 0.4336 0.5428 0.2527l5.0257-4.389c0.1804-0.1518 0.4086-0.2351 0.6443-0.2351h30.956c2.2091 0 4-1.7909 4-4v-7.9441c0-2.2091-1.7909-4-4-4h-33.167z" fill="#D0CFCE"/><path d="m60.51 60.544c0.2147 0.1808 0.5427 0.0281 0.5426-0.2526l-0.0018-4.2707h7e-4v-11.944c0-2.2091-1.7909-4-4-4h-32.948c-2.2091 0-4 1.7909-4 4v7.9441c0 2.2091 1.7909 4 4 4h30.858c0.2357 0 0.4639 0.0833 0.6441 0.2351l4.9046 4.2882z" fill="#9B9B9A"/></g><g id="c"><path d="m15.042 14.976c-2.2091 0-4 1.7909-4 4v11.784l-0.0019 4.5314c-2e-4 0.2808 0.328 0.4336 0.5428 0.2527l5.0257-4.389c0.1804-0.1518 0.4086-0.2351 0.6443-0.2351h30.956c2.2091 0 4-1.7909 4-4v-7.9441c0-2.2091-1.7909-4-4-4h-33.167z" fill="none" stroke="#000" stroke-miterlimit="10" stroke-width="2"/><path d="m60.51 60.544c0.2147 0.1808 0.5427 0.0281 0.5426-0.2526l-0.0018-4.2707h7e-4v-11.944c0-2.2091-1.7909-4-4-4h-32.948c-2.2091 0-4 1.7909-4 4v7.9441c0 2.2091 1.7909 4 4 4h30.858c0.2357 0 0.4639 0.0833 0.6441 0.2351l4.9046 4.2882z" fill="none" stroke="#000" stroke-miterlimit="10" stroke-width="2"/><circle cx="31.996" cy="48.059" r="2"/><circle cx="40.008" cy="48.059" r="2"/><circle cx="48.02" cy="48.059" r="2"/></g></svg>
