<?xml version="1.0" encoding="UTF-8"?>
<svg id="a" viewBox="0 0 72 72" xmlns="http://www.w3.org/2000/svg"><g id="b"><ellipse transform="matrix(.7071 -.7071 .7071 .7071 -14.311 44.45)" cx="46.5" cy="39.5" rx="17.5" ry="17.5" fill="#FCEA2B"/><path d="m47.561 54.703c-0.789 0.789-1.6092 1.527-2.4482 2.231 4.9292 0.3899 9.9915-1.289 13.762-5.0594 6.8342-6.8342 6.8342-17.915 0-24.749-0.1168-0.1168-0.2441-0.2156-0.3634-0.3284 0.3704 10.055-3.2747 20.23-10.95 27.906z" fill="#F1B31C"/><ellipse transform="matrix(.7071 -.7071 .7071 .7071 -32.619 29.251)" cx="19" cy="54" rx="8" ry="8" fill="#FCEA2B"/><path d="m19.485 60.95c-0.3607 0.3607-0.7357 0.6981-1.1192 1.0199 2.2534 0.1782 4.5675-0.5892 6.2912-2.3129 3.1242-3.1242 3.1242-8.1895 0-11.314-0.0534-0.0534-0.1116-0.0985-0.1661-0.1501 0.1693 4.5965-1.497 9.248-5.0059 12.757z" fill="#F1B31C"/><ellipse transform="matrix(.7071 -.7071 .7071 .7071 -9.5772 18.879)" cx="18" cy="21" rx="11" ry="11" fill="#FCEA2B"/><path d="m18.667 30.556c-0.496 0.496-1.0115 0.9598-1.5389 1.4023 3.0984 0.2451 6.2804-0.8102 8.6504-3.1802 4.2958-4.2958 4.2958-11.261 0-15.556-0.0734-0.0734-0.1535-0.1355-0.2284-0.2064 0.2328 6.3201-2.0584 12.716-6.8831 17.541z" fill="#F1B31C"/></g><g id="c" fill="none" stroke="#000" stroke-linecap="round" stroke-linejoin="round" stroke-miterlimit="10" stroke-width="2"><circle cx="19" cy="54" r="8"/><circle cx="46.5" cy="39.5" r="17.5"/><circle cx="18" cy="21" r="11"/></g></svg>
