<?xml version="1.0" encoding="UTF-8"?>
<svg id="a" version="1.1" viewBox="0 0 72 72" xmlns="http://www.w3.org/2000/svg"><g id="b"><polyline points="51.065 43.916 51.065 10.979 18.937 10.979 18.937 60.739 35 60.739" fill="#fff"/><circle cx="43.167" cy="52.167" r="11.129" fill="#D0CFCE"/></g><g id="c" fill="none" stroke="#000" stroke-linecap="round" stroke-linejoin="round" stroke-miterlimit="10" stroke-width="2"><polyline points="51.065 43.916 51.065 10.979 18.937 10.979 18.937 60.739 35 60.739"/><line x1="23.667" x2="32" y1="16.02" y2="16.02"/><line x1="23.667" x2="45.667" y1="24.5" y2="24.5"/><line x1="23.667" x2="45.667" y1="28.271" y2="28.271"/><line x1="23.667" x2="45.667" y1="32.041" y2="32.041"/><line x1="23.667" x2="45.667" y1="35.812" y2="35.812"/><line x1="23.667" x2="45.667" y1="39.583" y2="39.583"/><line x1="36.38" x2="23.67" y1="43.35" y2="43.35"/><line x1="33.25" x2="23.67" y1="47.12" y2="47.12"/><line x1="32.12" x2="23.67" y1="50.89" y2="50.89"/><circle cx="43.167" cy="52.167" r="11.129"/><line x1="51.065" x2="56.532" y1="60.739" y2="66.206"/><line x1="33.439" x2="46.875" y1="48.453" y2="48.453"/><line x1="32.172" x2="46.875" y1="53.839" y2="53.839"/></g></svg>
