<?xml version="1.0" encoding="UTF-8"?>
<svg id="a" version="1.1" viewBox="0 0 72 72" xmlns="http://www.w3.org/2000/svg"><g id="b"><polygon points="32 50.08 21.92 50.08 21.92 40 18.08 40 18.08 50.08 8 50.08 8 53.92 18.08 53.92 18.08 64 21.92 64 21.92 53.92 32 53.92" fill="#D0CFCE"/><path d="m61.395 57c-0.5311 0-0.9618-0.4306-0.9618-0.9618v-0.8854c0-4.2816-4.3244-7.5123-8.3214-7.6869-5.9682 4.8203-12.014 4.8203-17.982 0-3.9971 0.1747-8.3215 3.4053-8.3215 7.6869v1.8472" fill="#92D3F5"/></g><g id="c"><path d="m57.83 46.215c-0.3757-0.3757-0.3757-0.9844 0-1.3601 1.7625-1.763 3.4115-6.2241 1.5578-10.624-0.426-1.004-0.7947-1.8226-1.114-2.5318-1.416-3.1448-1.9457-4.3217-2.2581-10.122-0.3418-6.3505-5.9869-6.806-6.2274-6.8224-0.2555-0.0174-0.494-0.1362-0.6617-0.3297-0.0892-0.1005-2.3171-2.5534-6.9675-2.5534-5.9644 0-11.004 3.2532-12.257 7.9115-0.6753 2.5125-0.6077 4.255-0.5424 5.94 0.0699 1.802 0.1357 3.5049-0.7322 5.7338-0.2892 0.7435-0.6119 1.4756-0.9336 2.2059-1.6418 3.7214-3.0591 6.9356-0.124 11.339 0.2945 0.4419 0.1752 1.0392-0.2667 1.3338-0.1639 0.1094-0.3494 0.1615-0.5326 0.1615-0.1436 0-0.2836-0.0396-0.4134-0.1014 1.0751 0.9476 2.1653 1.7982 3.2751 2.5224 1.3711-0.8599 2.9572-1.3843 4.4971-1.4517 5.9681 4.8203 12.014 4.8203 17.982 0 1.1812 0.0516 2.3886 0.3759 3.5069 0.9095 1.0673-0.5908 2.1423-1.2318 3.2286-1.9446-0.3422 0.1285-0.7421 0.0594-1.0176-0.2161z" fill="#F1B31C"/></g><g id="d"><path d="m33.502 29.269v0.8763c0 7.0112 4.2249 12.504 9.6181 12.504s9.6181-5.4923 9.6181-12.504c0-4.2642-1.6296-6.8872-4.8428-10.205-2.0533 1.7565-5.3186 3.6208-8.2379 5.2881-2.4257 1.3849-5.7324 3.2733-6.1555 4.0407zm-0.0197 0.0394z" fill="#FCEA2B"/></g><g id="e"><path d="m26.771 46.496c-0.311 0-0.6158-0.1502-0.8012-0.4283-3.5209-5.281-1.6691-9.4786-0.0357-13.182 0.3104-0.7045 0.6222-1.4103 0.9012-2.1274 0.7227-1.8565 0.6673-3.2955 0.6025-4.9617-0.0676-1.7429-0.1442-3.7187 0.6068-6.5134 1.4774-5.4971 7.2817-9.3359 14.114-9.3359 4.6499 0 7.3249 2.1496 8.1492 2.9372 1.5554 0.2465 7.253 1.6234 7.6283 8.5886 0.2931 5.4421 0.7101 6.3678 2.0913 9.436 0.3245 0.7204 0.6984 1.5512 1.1314 2.5727 2.3247 5.5173 0.0259 10.738-1.9692 12.733-0.3757 0.3757-0.9843 0.3757-1.36 0s-0.3757-0.9844 0-1.3601c1.7625-1.763 3.4115-6.2241 1.5578-10.624-0.426-1.004-0.7947-1.8226-1.114-2.5318-1.416-3.1448-1.9457-4.3216-2.2581-10.122-0.3418-6.3505-5.9869-6.806-6.2274-6.8224-0.2555-0.0174-0.494-0.1362-0.6617-0.3297-0.0892-0.1005-2.3171-2.5534-6.9675-2.5534-5.9644 0-11.004 3.2532-12.257 7.9115-0.6753 2.5125-0.6077 4.255-0.5424 5.94 0.0699 1.802 0.1357 3.5049-0.7322 5.7338-0.2892 0.7435-0.6119 1.4756-0.9336 2.2059-1.6418 3.7214-3.0591 6.9356-0.124 11.339 0.2945 0.4419 0.1752 1.0392-0.2667 1.3338-0.164 0.1091-0.3495 0.1612-0.5326 0.1612z"/><path d="m35.412 46.029c5.2934 4.2349 10.449 4.1444 15.749-0.2717 0.1728-0.1442 0.3907-0.2231 0.6157-0.2231h5e-4c5.6357 0.0024 10.58 4.4968 10.58 9.6181v0.8854c0 0.5312-0.4306 0.9618-0.9618 0.9618-0.5311 0-0.9618-0.4306-0.9618-0.9618v-0.8854c0-4.2816-4.3244-7.5123-8.3214-7.6869-5.9682 4.8203-12.014 4.8203-17.982 0 0 0-0.4839-0.5507-0.0195-1.1913 0.4643-0.6406 1.3025-0.2451 1.3025-0.2451z"/><path d="m48.891 29.184c0 1.0623-0.8623 1.9236-1.9236 1.9236s-1.9236-0.8613-1.9236-1.9236c0-1.0614 0.8623-1.9236 1.9236-1.9236s1.9236 0.8623 1.9236 1.9236"/><path d="m41.197 29.184c0 1.0623-0.8623 1.9236-1.9236 1.9236-1.0614 0-1.9236-0.8613-1.9236-1.9236 0-1.0614 0.8623-1.9236 1.9236-1.9236s1.9236 0.8623 1.9236 1.9236"/><path d="m43.12 44.573c-6.472 0-11.542-6.3372-11.542-14.427v-0.9618c0-1.4939 2.1843-2.8042 7.1253-5.6257 3.1813-1.8165 6.7868-3.8754 8.5455-5.6342 0.3757-0.3757 0.9843-0.3757 1.36 0 3.9257 3.9253 6.0527 7.0357 6.0527 12.222 1e-4 8.0899-5.0696 14.427-11.542 14.427zm-9.6181-15.304v0.8763c0 7.0112 4.2249 12.504 9.6181 12.504s9.6181-5.4923 9.6181-12.504c0-4.2642-1.6296-6.8872-4.8428-10.205-2.0533 1.7565-5.3186 3.6208-8.2379 5.2881-2.4257 1.3849-5.7324 3.2733-6.1555 4.0407zm-0.0197 0.0394z"/><path d="m43.12 38.804c-1.1078 0-2.2157-0.2752-3.3157-0.8251-0.4752-0.2377-0.6678-0.8153-0.4301-1.2906 0.2372-0.4748 0.8139-0.6679 1.2906-0.4302 1.6521 0.8266 3.2583 0.8266 4.9104 0 0.4758-0.2377 1.053-0.0446 1.2906 0.4302 0.2377 0.4752 0.0451 1.0529-0.4301 1.2906-1.0999 0.5499-2.2077 0.8251-3.3157 0.8251z"/><polygon points="32 50.08 21.92 50.08 21.92 40 18.08 40 18.08 50.08 8 50.08 8 53.92 18.08 53.92 18.08 64 21.92 64 21.92 53.92 32 53.92" fill="none" stroke="#000" stroke-linecap="round" stroke-linejoin="round" stroke-miterlimit="10" stroke-width="2"/></g></svg>
