<?xml version="1.0" encoding="UTF-8"?>
<svg id="a" viewBox="0 0 72 72" xmlns="http://www.w3.org/2000/svg"><g id="b"><path transform="translate(0)" d="M36.2,13.3A22.8,22.8,0,1,0,59,36.1,22.79,22.79,0,0,0,36.2,13.3Z" fill="#fcea2b"/><path transform="translate(0)" d="m40.5 41.7c-1.8 4.3-2 6-5.5 8.9-5.6 4.8-7.6-4.1-5.7-8.9z" fill="#ea5a47"/></g><g id="c" fill="none" stroke="#000"><circle cx="36" cy="36" r="23" stroke-miterlimit="10" stroke-width="2"/><path transform="translate(0)" d="m40.5 42.25c-1.8 5.8-6 10.7-9 9.8s-4-4.9-2.3-10.8" stroke-miterlimit="10" stroke-width="2"/><path transform="translate(0)" d="m46.8 39.7a4 4 0 0 0 0 6" stroke-linecap="round" stroke-linejoin="round" stroke-width="2.0013"/><path transform="translate(0)" d="M23.8,42.7c2.3-.8,6.8-1,10.5-1s8.3.2,10.5,1" stroke-linecap="round" stroke-linejoin="round" stroke-width="2.0013"/><path transform="translate(0)" d="m48.9 32.4a4.7 4.7 0 0 0-8.6 0" stroke-linecap="round" stroke-miterlimit="10" stroke-width="2"/><path transform="translate(0)" d="m31.7 32.4a4.7 4.7 0 0 0-8.6 0" stroke-linecap="round" stroke-miterlimit="10" stroke-width="2"/></g></svg>
