<?xml version="1.0" encoding="UTF-8"?>
<svg id="a" version="1.1" viewBox="0 0 72 72" xmlns="http://www.w3.org/2000/svg"><g id="b"><polyline points="31.402 19.194 18.375 23.052 24.226 38.219 18.458 37.927 22.042 42.677 24.042 44.552 25.167 47.219 25.167 51.76 28.708 54.677 29.708 57 39.613 57 36.147 44.619 34.655 32.978 32.803 30.283 33.637 24.917 31.402 19.194" fill="#fff"/><polyline points="67 57 44.021 57 46.208 43.635 45.25 31.733 43.75 28.827 45.25 23.608 43.75 17.65 54.583 18.969 60.482 18.614 64.083 19.469 68.083 20.219" fill="#fff"/><polygon points="53.358 39.439 54.858 44.179 54.598 48.309 53.358 53.679 54.598 57 48.75 57 50.358 53.679 51.598 48.309 51.858 44.179 50.358 39.439 50.358 34.559 55.598 32.889 57.808 33.139 53.358 34.559" fill="#D0CFCE"/><polygon points="46.014 43.101 43.554 57 39.444 57 40.574 46.491 40.394 36.541 38.99 28.469 37.508 21.082 43.554 17.111 45.054 23.071 43.554 28.291 45.054 31.191" fill="#D0CFCE"/><polygon points="11.708 43 11.708 48.333 15.125 43.5" fill="#fff"/><rect x="4" y="57" width="64" height="11" fill="#92D3F5"/><line x1="8.0718" x2="14.193" y1="61.34" y2="60.858" fill="none" stroke="#61B2E4" stroke-linecap="round" stroke-linejoin="round" stroke-width="2"/><polygon points="7.708 53.583 6.125 56.333 8.458 60.5 13.417 60" fill="#fff"/></g><g id="c" fill="none" stroke="#000" stroke-linecap="round" stroke-linejoin="round"><polyline points="44.021 57 46.208 43.635 45.25 31.733 43.75 28.827 45.25 23.608 43.75 17.65 54.583 18.969 60.482 18.614 64.083 19.469 68.083 20.219" stroke-width="2"/><polyline points="54.333 57 53.083 54.344 54.333 48.969 54.583 44.844 53.083 40.094 53.083 35.219 58.333 33.552 68.708 34.729" stroke-width="2"/><polyline points="61.708 39.958 62.833 44.708 61.888 49.72" stroke-width="2"/><polyline points="39.613 57 36.147 44.619 34.655 32.978 32.803 30.283 33.637 24.917 31.402 19.194" stroke-width="2"/><polyline points="31.402 19.194 18.375 23.052 24.226 38.219 18.458 37.927 22.042 42.677 24.042 44.552 25.167 47.219 25.167 51.76 28.708 54.677 29.708 57" stroke-width="2"/><line x1="11.248" x2="67" y1="57" y2="57" stroke-width="2"/><line x1="5" x2="6.0983" y1="57" y2="57" stroke-width="2"/><polyline points="43.75 17.65 37.146 21.281 39.613 28.406 39.613 37.434 41.583 46.844 39.708 57" stroke-width="2"/><polygon points="11.708 43 11.708 48.333 15.125 43.5" stroke-width="1.6"/><polygon points="7.708 53.583 6.125 56.333 8.458 60.5 13.417 60" stroke-width="1.6"/></g></svg>
