<?xml version="1.0" encoding="UTF-8"?>
<svg id="a" viewBox="0 0 72 72" xmlns="http://www.w3.org/2000/svg"><g id="b"><path d="M43.375,23a4.29,4.29,0,0,0-4.4285-3.9164H32.8219a4.3473,4.3473,0,0,0-4.2963,4.1314l-.8084,19.4393a1.0026,1.0026,0,0,1-.1234.4369l2.9944-2.0943L29.86,63.13a1.2146,1.2146,0,0,0,.2552.8789.2473.2473,0,0,0,.1552.09c.2184,0,1.29-.3847,1.37-1.0835l2.5782-22.5781a4.2574,4.2574,0,0,1,.1715-1.1593l.74-.8052h1.6586l.6489.7458a4.3879,4.3879,0,0,1,.4219,1.25l2.625,22.5468a1.3294,1.3294,0,0,0,1.014,1.0815.2481.2481,0,0,0,.1551-.09c.1962-.2483.5-.585.4663-.9l-.9516-22.11,3.5721,2.43Z" fill="#d22f27"/><path d="M38.9949,12.58a3.0323,3.0323,0,0,1-6.0633,0,2.9475,2.9475,0,0,1,.2042-1.08h5.5631a.2887.2887,0,0,0,.0919-.01A3,3,0,0,1,38.9949,12.58Z" fill="#fcea2b"/><line x1="30.487" x2="33.036" y1="47.695" y2="48.062" fill="none" stroke="#fff" stroke-linecap="square" stroke-linejoin="round" stroke-width="2"/><line x1="30.487" x2="33.036" y1="50.695" y2="51.062" fill="none" stroke="#fff" stroke-linecap="square" stroke-linejoin="round" stroke-width="2"/><line x1="39.487" x2="42.036" y1="51.062" y2="50.695" fill="none" stroke="#fff" stroke-linecap="square" stroke-linejoin="round" stroke-width="2"/><line x1="39.487" x2="42.036" y1="48.062" y2="47.695" fill="none" stroke="#fff" stroke-linecap="square" stroke-linejoin="round" stroke-width="2"/><line x1="27.866" x2="30.416" y1="29.028" y2="29.395" fill="none" stroke="#fff" stroke-linecap="square" stroke-linejoin="round" stroke-width="2"/><line x1="41.662" x2="44.212" y1="29.395" y2="29.028" fill="none" stroke="#fff" stroke-linecap="square" stroke-linejoin="round" stroke-width="2"/><path d="M40.565,8.03v5.12s-.47,1.12-1.12,0V11.11h-6.76v2.08c-.65,1.12-1.12,0-1.12,0V8.03a.7341.7341,0,0,1,.73-.73h7.54A.7341.7341,0,0,1,40.565,8.03Z" fill="#a57939"/><rect x="37.521" y="7.0833" width="2.8958" height="3.8417" fill="#6a462f"/><rect x="39.445" y="10.625" width=".9717" height="2.9792" fill="#6a462f"/></g><g id="c"><path d="M40.565,8.03v5.12s-.47,1.12-1.12,0V11.11h-6.76v2.08c-.65,1.12-1.12,0-1.12,0V8.03a.7341.7341,0,0,1,.73-.73h7.54A.7341.7341,0,0,1,40.565,8.03Z" fill="none" stroke="#000" stroke-linecap="round" stroke-linejoin="round" stroke-width="1.6"/><g id="d"><g id="e" fill="none" stroke="#000" stroke-linecap="round" stroke-linejoin="round" stroke-width="1.6"><g id="f"><path d="m39.035 12.08a2.97 2.97 0 1 1-5.94 0"/><path d="M41.0335,24.516l1.9,38c.055,1.1-.575,2-1.4,2a2.076,2.076,0,0,1-1.729-1.987l-2.542-22.031c-.129-1.093-.679-1.987-1.229-1.987s-1.103.894-1.229,1.987l-2.539,22.031a2.0758,2.0758,0,0,1-1.729,1.987c-.825,0-1.455-.9-1.4-2l1.9-38"/><path d="m27.036 42.516 0.792-19a5.274 5.274 0 0 1 5.208-5h6"/></g><path d="m38.964 18.516a5.274 5.274 0 0 1 5.208 5l0.792 19"/></g></g></g></svg>
