<?xml version="1.0" encoding="UTF-8"?>
<svg id="a" viewBox="0 0 72 72" xmlns="http://www.w3.org/2000/svg"><g id="b"><path d="M51.5,48.5c0,3,6,4,11,5s6,3,0,4-4.7378,3.5887-9.8689,3.2944S31.5,60.5,33.5,57.5s13-2,10-4-11.0977-2.8961-6.5489-4.948L45,46Z" fill="#3f3f3f"/><path d="m50.343 20.303a8.4825 8.4825 0 0 0-5.303 1.9623 8.4825 8.4825 0 0 0-5.303-1.9623 8.27 8.27 0 0 0-4.5455 1.4181 7.9938 7.9938 0 0 0-9.0909 0 8.2692 8.2692 0 0 0-4.5454-1.4181c-5.8297 0-10.556 6.4444-10.556 14.394s4.7259 14.394 10.556 14.394a8.2691 8.2691 0 0 0 4.5454-1.418 7.9943 7.9943 0 0 0 9.0909 0 8.27 8.27 0 0 0 4.5455 1.418 8.4819 8.4819 0 0 0 5.303-1.9623 8.4819 8.4819 0 0 0 5.303 1.9623c5.83 0 10.556-6.4444 10.556-14.394s-4.7259-14.394-10.556-14.394z" fill="#d0cfce"/><ellipse cx="50.394" cy="34.697" rx="7.5758" ry="11.364" fill="#9b9b9a"/><ellipse cx="51.152" cy="39.242" rx="2.2727" ry="3.7879" fill="#3f3f3f"/></g><g id="c" fill="none" stroke="#000" stroke-width="2"><path d="m32.92 38.551a20.282 20.282 0 0 1-0.708-5.3692 18.195 18.195 0 0 1 2.8846-10.178 11.737 11.737 0 0 1 1.7055-1.9947" stroke-linecap="round" stroke-linejoin="round"/><path d="m23.829 38.551a20.278 20.278 0 0 1-0.708-5.3692 18.195 18.195 0 0 1 2.8846-10.178 11.737 11.737 0 0 1 1.7055-1.9947" stroke-linecap="round" stroke-linejoin="round"/><path d="m50.343 20.303a8.4825 8.4825 0 0 0-5.303 1.9623 8.4825 8.4825 0 0 0-5.303-1.9623 8.27 8.27 0 0 0-4.5455 1.4181 7.9938 7.9938 0 0 0-9.0909 0 8.2692 8.2692 0 0 0-4.5454-1.4181c-5.8297 0-10.556 6.4444-10.556 14.394s4.7259 14.394 10.556 14.394a8.2691 8.2691 0 0 0 4.5454-1.418 7.9943 7.9943 0 0 0 9.0909 0 8.27 8.27 0 0 0 4.5455 1.418 8.4819 8.4819 0 0 0 5.303-1.9623 8.4819 8.4819 0 0 0 5.303 1.9623c5.83 0 10.556-6.4444 10.556-14.394s-4.7259-14.394-10.556-14.394z" stroke-linecap="round" stroke-linejoin="round"/><ellipse cx="50.394" cy="34.697" rx="7.5758" ry="11.364" stroke-miterlimit="10"/><ellipse cx="51.152" cy="39.242" rx="2.2727" ry="3.7879" stroke-linecap="round" stroke-miterlimit="10"/><path d="M36.9511,48.552C32.4023,50.6039,40.5,51.5,43.5,53.5s-8,1-10,4,14,3,19.1311,3.2944S56.5,58.5,62.5,57.5s5-3,0-4-11-2-11-5V43" stroke-linecap="round" stroke-linejoin="round"/></g></svg>
