<?xml version="1.0" encoding="UTF-8"?>
<svg id="a" version="1.1" viewBox="0 0 72 72" xmlns="http://www.w3.org/2000/svg"><g id="b"><path d="m50.814 46.165-0.83-0.4526c-0.2906-0.1282-0.449-0.445-0.3772-0.7544 0.2263-1.4334 0.3772-6.4123-7.3175-8.6755-0.1426-0.0615-0.2979-0.0873-0.4527-0.0754l-14.786 0.0754c-0.2927-6e-3 -0.5809 0.0726-0.83 0.2264l-7.77 5.2052c-0.1376 0.0837-0.2924 0.1353-0.4527 0.1509-1.4149-0.0498-2.8311 0.0513-4.2245 0.3018-4.0737 0.83-5.7334 3.0175-6.3369 4.1491-0.1218 0.2317-0.1742 0.4937-0.1508 0.7544 0.0754 1.8105-1.1316 3.8473 0.6789 5.507l14.636-0.0755 15.39-0.3772 12.146-0.1508c0.8813-0.2803 1.6316-0.8699 2.1123-1.66 1.2819-2.0365-1.283-4.0734-1.4339-4.1488z" fill="#3F3F3F"/><path d="m14.98 47.976c-1.6666-1e-4 -3.0176 1.3509-3.0177 3.0175s1.3509 3.0176 3.0175 3.0177 3.0176-1.3509 3.0177-3.0175v-1e-4c-0.0048-1.6645-1.353-3.0127-3.0175-3.0176z" fill="#9B9B9A"/><path d="m45.005 47.976c-1.6666 0-3.0176 1.351-3.0176 3.0176s1.351 3.0176 3.0176 3.0176 3.0176-1.351 3.0176-3.0176c-0.0048-1.6646-1.353-3.0128-3.0176-3.0176z" fill="#9B9B9A"/><path d="m44.25 42.62v-3.2442c-0.0207-0.6996-0.5829-1.2618-1.2825-1.2824h-15.993c-0.0754 0-0.1509 0-0.1509 0.0754l-6.035 4.3c-0.1509 0.0754-0.1509 0.3018-0.0755 0.4526 0.0755 0.0755 0.1509 0.1509 0.2263 0.1509 4.2246 0 20.519-0.1509 22.933-0.0754 0.1965 0.0116 0.3652-0.1383 0.3768-0.3348 8e-4 -0.014 8e-4 -0.0281 0-0.0421z" fill="#92d3f5"/><polygon points="8.643 43.525 11.661 44.732 10.077 46.92 6.305 46.995" fill="#FCEA2B"/><path d="m40.437 22.891c-0.1422-2.9005 2.0938-5.3671 4.9942-5.5093 1.5263-0.0748 3.0097 0.518 4.0639 1.6242 1.2318-1.9622 3.8211-2.5544 5.7833-1.3226 1.1742 0.7371 1.9084 2.0066 1.9616 3.392 0.0071-3e-4 0.0136-0.0026 0.0207-0.0029 2.3294-0.1067 4.3043 1.6951 4.411 4.0245s-1.6951 4.3043-4.0245 4.411c-0.0015 1e-4 -0.0029 1e-4 -0.0044 2e-4 -0.0685 0.0031-0.1329-0.011-0.2007-0.0109 0.6791 1.5807-0.0519 3.4127-1.6326 4.0917-0.0428 0.0184-0.086 0.0358-0.1296 0.0523 0.0086 0.063 0.0422 0.116 0.0451 0.1806 0.0538 1.1647-0.8468 2.1524-2.0115 2.2062s-2.1524-0.8468-2.2062-2.0115c-1e-4 -0.0012-1e-4 -0.0024-2e-4 -0.0036-0.0182-0.514 0.1543-1.0167 0.4842-1.4113-0.2072-0.2833-0.3655-0.5992-0.4685-0.9347-1.5768 0.7263-3.4438 0.0368-4.17-1.54-0.1105-0.2398-0.1903-0.4926-0.2375-0.7523-1.9253 1.2922-4.5336 0.779-5.8259-1.1463-0.7307-1.0887-0.9109-2.4563-0.487-3.6971-0.2094-0.5234-0.3329-1.0773-0.3654-1.6402z" fill="#D0CFCE"/></g><g id="c" fill="none" stroke="#000" stroke-linecap="round" stroke-linejoin="round" stroke-width="2"><line x1="37.838" x2="22.298" y1="51.446" y2="51.748"/><path d="m8.04 51.748c-0.6789-0.1509-1.2824-0.3772-1.3579-0.7544-0.0754-0.7544-0.2263-2.8667-0.2263-3.8474-0.0168-0.3991 0.0885-0.7938 0.3018-1.1316 0.83-1.5088 3.621-5.13 11.24-4.8281l7.77-5.2052c0.3634-0.2269 0.779-0.3568 1.207-0.3772l14.786-0.0754c0.2289-0.0123 0.4583 0.0132 0.6789 0.0754 1.66 0.4526 8.8263 3.0175 7.8456 9.5053l0.83 0.4526c0.3816 0.1639 0.662 0.5003 0.7544 0.9052 0.2897 1.0705 0.2369 2.2049-0.1509 3.2439"/><polyline points="20.714 43.072 43.496 42.921 43.496 39.088"/><circle cx="14.98" cy="50.993" r="3.7719"/><circle cx="45.005" cy="50.993" r="3.7719"/><polyline points="11.208 45.335 9.85 46.995 7.059 46.92"/><path d="m40.437 22.891c-0.1422-2.9005 2.0938-5.3671 4.9942-5.5093 1.5263-0.0748 3.0097 0.518 4.0639 1.6242 1.2318-1.9622 3.8211-2.5544 5.7833-1.3226 1.1742 0.7371 1.9084 2.0066 1.9616 3.392 0.0071-3e-4 0.0136-0.0026 0.0207-0.0029 2.3294-0.1067 4.3043 1.6951 4.411 4.0245s-1.6951 4.3043-4.0245 4.411c-0.0015 1e-4 -0.0029 1e-4 -0.0044 2e-4 -0.0685 0.0031-0.1329-0.011-0.2007-0.0109 0.6791 1.5807-0.0519 3.4127-1.6326 4.0917-0.0428 0.0184-0.086 0.0358-0.1296 0.0523 0.0086 0.063 0.0422 0.116 0.0451 0.1806 0.0538 1.1647-0.8468 2.1524-2.0115 2.2062s-2.1524-0.8468-2.2062-2.0115c-1e-4 -0.0012-1e-4 -0.0024-2e-4 -0.0036-0.0182-0.514 0.1543-1.0167 0.4842-1.4113-0.2072-0.2833-0.3655-0.5992-0.4685-0.9347-1.5768 0.7263-3.4438 0.0368-4.17-1.54-0.1105-0.2398-0.1903-0.4926-0.2375-0.7523-1.9253 1.2922-4.5336 0.779-5.8259-1.1463-0.7307-1.0887-0.9109-2.4563-0.487-3.6971-0.2094-0.5234-0.3329-1.0773-0.3654-1.6402z"/></g></svg>
