<?xml version="1.0" encoding="UTF-8"?>
<svg id="a" version="1.1" viewBox="0 0 72 72" xmlns="http://www.w3.org/2000/svg"><g id="b"><path d="m68 44.774c-8 0-11.113 3-16.113 3s-10-3-16-3-10 3-16 3-12.887-3-15.887-3v23.226h64v-23.226z" fill="#61B2E4"/></g><g id="c" fill="none" stroke="#000" stroke-linecap="round" stroke-width="2"><path d="m4.8873 44.774c3 0 9 3 15 3s10-3 16-3 11 3 16 3 7-3 15-3" stroke-linejoin="round"/><line x1="18.922" x2="18.922" y1="39.556" y2="26.493" stroke-miterlimit="10"/><path d="m13.922 31.106 4.8785-5.1809c0.0397-0.0421 0.106-0.0441 0.1481-0.0044 0.0019 0.0018 0.0038 0.0037 0.0056 0.0056l4.9678 5.4432" stroke-miterlimit="10"/><line x1="51.538" x2="51.538" y1="39.556" y2="26.493" stroke-miterlimit="10"/><path d="m46.538 31.106 4.8786-5.1809c0.0397-0.0421 0.106-0.0441 0.1481-0.0044 0.0019 0.0018 0.0038 0.0037 0.0056 0.0056l4.9677 5.4432" stroke-miterlimit="10"/></g></svg>
