<?xml version="1.0" encoding="UTF-8"?>
<svg id="a" viewBox="0 0 72 72" xmlns="http://www.w3.org/2000/svg"><g id="b"><rect x="20.684" y="12.084" width="29.619" height="48.13" fill="#fcea2b"/><rect x="40.431" y="12.084" width="10.018" height="48.13" fill="#f1b31c"/></g><g id="c" stroke="#000" stroke-linecap="round" stroke-linejoin="round" stroke-width="2"><line x1="19.178" x2="51.536" y1="60.214" y2="60.214" fill="none"/><line x1="51.536" x2="19.178" y1="11.677" y2="11.677" fill="none"/><line x1="37.276" x2="42.669" y1="10.214" y2="10.214" fill="none"/><path d="m19.178 11.677c1.7347 1.6573 2.1728 4.5617 2.1728 7.8687 0 3.6246-0.1542 6.7653-2.1728 8.31" fill="none"/><path d="m19.178 27.856c1.7347 1.6573 2.1728 4.5616 2.1728 7.8687 0 3.6246-0.1542 6.7653-2.1728 8.31" fill="none"/><path d="m19.178 44.035c1.7347 1.6573 2.1728 4.5616 2.1728 7.8687 0 3.6246-0.1542 6.7653-2.1728 8.3105" fill="none"/><path d="m51.536 11.677c-1.7348 1.6573-2.1729 4.5617-2.1729 7.8687 0 3.6246 0.1543 6.7653 2.1729 8.31" fill="none"/><path d="m51.536 27.856c-1.7348 1.6573-2.1729 4.5616-2.1729 7.8687 0 3.6246 0.1543 6.7653 2.1729 8.31" fill="none"/><path d="m51.536 44.035c-1.7348 1.6573-2.1729 4.5616-2.1729 7.8687 0 3.6246 0.1543 6.7653 2.1729 8.3105" fill="none"/><path d="m36.727 35.488a1.2333 1.2333 0 1 1-0.617-1.0685 1.2336 1.2336 0 0 1 0.617 1.0685z"/><path d="m30.556 35.488a4.9345 4.9345 0 0 1 2.4678-4.2758l-2.4687-4.2758a9.8691 9.8691 0 0 0-4.9356 8.5516z"/><path d="m37.962 39.764a4.9428 4.9428 0 0 1-4.9372 0l-2.4686 4.2757a9.8851 9.8851 0 0 0 9.8745 0z"/><path d="m37.962 31.213a4.9345 4.9345 0 0 1 2.4678 4.2758h4.9365a9.8691 9.8691 0 0 0-4.9358-8.5516z"/></g></svg>
