<?xml version="1.0" encoding="UTF-8"?>
<svg id="a" viewBox="0 0 72 72" xmlns="http://www.w3.org/2000/svg"><g id="b"><circle cx="36.144" cy="39.651" r="8.8964" fill="#a57939"/></g><g id="c"><ellipse cx="36" cy="39.921" rx="20" ry="11.737" fill="none" stroke="#000" stroke-linecap="round" stroke-linejoin="round" stroke-width="2"/><circle cx="36.144" cy="39.651" r="4.8502"/><circle cx="36.144" cy="39.651" r="4.8502" fill="none"/><circle cx="36.144" cy="39.651" r="8.8964" fill="none" stroke="#000" stroke-linecap="round" stroke-linejoin="round" stroke-width="2"/><polyline points="43.135 24.35 45.118 20.313 47.144 22.465 49.635 17.393" fill="none" stroke="#000" stroke-linecap="round" stroke-linejoin="round" stroke-width="2"/><polyline points="24.316 16.259 26.649 20.104 23.745 20.653 26.675 25.483" fill="none" stroke="#000" stroke-linecap="round" stroke-linejoin="round" stroke-width="2"/><polyline points="36.48 22.682 36.29 18.188 33.569 19.342 33.331 13.696" fill="none" stroke="#000" stroke-linecap="round" stroke-linejoin="round" stroke-width="2"/></g><g id="d" fill="none" stroke="#d22f27" stroke-linecap="round" stroke-linejoin="round" stroke-width="2"><polyline points="43.135 24.35 45.118 20.313 47.144 22.465 49.635 17.393"/><polyline points="24.316 16.259 26.649 20.104 23.745 20.653 26.675 25.483"/><polyline points="36.48 22.682 36.29 18.188 33.569 19.342 33.331 13.696"/></g></svg>
